<?xml version="1.0" encoding="UTF-8" standalone="no"?>
<!-- Created with Inkscape (http://www.inkscape.org/) -->

<svg
   xmlns:dc="http://purl.org/dc/elements/1.1/"
   xmlns:cc="http://creativecommons.org/ns#"
   xmlns:rdf="http://www.w3.org/1999/02/22-rdf-syntax-ns#"
   xmlns:svg="http://www.w3.org/2000/svg"
   xmlns="http://www.w3.org/2000/svg"
   xmlns:sodipodi="http://sodipodi.sourceforge.net/DTD/sodipodi-0.dtd"
   xmlns:inkscape="http://www.inkscape.org/namespaces/inkscape"
   id="svg7384"
   version="1.1"
   inkscape:version="0.48.3.1 r9886"
   height="16"
   sodipodi:docname="bluetooth-active.svg"
   width="16">
  <metadata
     id="metadata90">
    <rdf:RDF>
      <cc:Work
         rdf:about="">
        <dc:format>image/svg+xml</dc:format>
        <dc:type
           rdf:resource="http://purl.org/dc/dcmitype/StillImage" />
        <dc:title>Gnome Symbolic Icon Theme</dc:title>
      </cc:Work>
    </rdf:RDF>
  </metadata>
  <sodipodi:namedview
     inkscape:cy="7.0624968"
     inkscape:current-layer="layer9"
     inkscape:window-width="1918"
     pagecolor="#555753"
     showborder="true"
     showguides="true"
     inkscape:snap-nodes="true"
     objecttolerance="10"
     showgrid="true"
     inkscape:object-nodes="true"
     inkscape:pageshadow="2"
     inkscape:guide-bbox="true"
     inkscape:window-x="0"
     inkscape:snap-bbox="true"
     bordercolor="#666666"
     id="namedview88"
     inkscape:window-maximized="1"
     inkscape:snap-global="false"
     inkscape:window-y="25"
     gridtolerance="10"
     inkscape:zoom="44.40311"
     inkscape:window-height="1007"
     borderopacity="1"
     guidetolerance="10"
     inkscape:cx="9.640651"
     inkscape:bbox-paths="false"
     inkscape:snap-grids="true"
     inkscape:pageopacity="0"
     inkscape:snap-to-guides="true"
     borderlayer="true">
    <inkscape:grid
       visible="true"
       spacingx="1px"
       type="xygrid"
       spacingy="1px"
       id="grid4866"
       empspacing="2"
       enabled="true"
       snapvisiblegridlinesonly="true" />
  </sodipodi:namedview>
  <title
     id="title9167">Gnome Symbolic Icon Theme</title>
  <defs
     id="defs7386" />
  <g
     transform="translate(-41.0002,-317)"
     inkscape:groupmode="layer"
     id="layer9"
     inkscape:label="status"
     style="display:inline">
    <path
       d="m 47.886679,319.7802 0.02252,2.71662 -1.118478,-0.96083 c -0.30275,-0.26007 -0.300325,-0.41734 -0.582546,-0.13512 -0.282221,0.28222 -0.640167,0.41257 -0.382854,0.71767 l 2.061357,2.44421 0,0.84366 -2.286566,2.4217 c -0.283311,0.28197 0.12146,0.39125 0.404106,0.67389 0.211911,0.22133 0.321461,0.36008 0.519225,0.27751 0.402828,-0.16819 0.887981,-0.87751 1.363235,-1.21709 0.234989,0.8122 0.116526,1.74221 0,2.67158 0.143559,0.53138 0.759838,0.65438 1.28892,0.539 0.792921,-1.41382 1.918674,-2.16198 2.999667,-2.99966 0.130507,-0.27879 0.288153,-0.79922 0,-1.07801 -0.651136,-0.43544 -1.239399,-0.97566 -1.710747,-1.71075 0.45434,-0.80207 1.080089,-1.26132 1.710747,-1.71075 0.265626,-0.14367 0.130501,-0.79921 0,-1.078 -1.208021,-0.82645 -2.307624,-1.80705 -3.157314,-2.93211 -0.77389,-0.0155 -0.931527,0.13539 -1.131272,0.51648 z m 1.499834,1.78289 c 0.34733,0.43797 0.754064,0.80563 1.171745,1.17174 -0.476346,0.3088 -0.810036,0.74409 -1.171745,1.17175 0.0641,-0.78218 0.03139,-1.56135 0,-2.34349 z m 0,4.4995 c 0.310179,0.48904 0.723943,0.82273 1.171745,1.17174 -0.599196,0.34886 -0.859769,0.76545 -1.171745,1.17175 0.151935,-0.85713 0.08399,-1.60432 0,-2.34349 z"
       id="path3807"
       style="font-size:medium;font-style:normal;font-variant:normal;font-weight:normal;font-stretch:normal;text-indent:0;text-align:start;text-decoration:none;line-height:normal;letter-spacing:normal;word-spacing:normal;text-transform:none;direction:ltr;block-progression:tb;writing-mode:lr-tb;text-anchor:start;color:#000000;fill:#2ad4ff;fill-opacity:1;stroke:none;stroke-width:2;marker:none;visibility:visible;display:inline;overflow:visible;enable-background:accumulate;font-family:Bitstream Vera Sans;-inkscape-font-specification:Bitstream Vera Sans"
       inkscape:connector-curvature="0"
       sodipodi:nodetypes="ccsssccccscccccccccccccccccc" />
  </g>
  <g
     transform="translate(-41.0002,-317)"
     inkscape:groupmode="layer"
     id="layer10"
     inkscape:label="devices" />
  <g
     transform="translate(-41.0002,-317)"
     inkscape:groupmode="layer"
     id="layer11"
     inkscape:label="apps" />
  <g
     transform="translate(-41.0002,-317)"
     inkscape:groupmode="layer"
     id="layer12"
     inkscape:label="actions" />
  <g
     transform="translate(-41.0002,-317)"
     inkscape:groupmode="layer"
     id="layer13"
     inkscape:label="places" />
  <g
     transform="translate(-41.0002,-317)"
     inkscape:groupmode="layer"
     id="layer14"
     inkscape:label="mimetypes" />
  <g
     transform="translate(-41.0002,-317)"
     inkscape:groupmode="layer"
     id="layer15"
     inkscape:label="emblems"
     style="display:inline" />
</svg>
