<?xml version="1.0" encoding="UTF-8" standalone="no"?>
<!-- Created with Inkscape (http://www.inkscape.org/) -->

<svg
   xmlns:dc="http://purl.org/dc/elements/1.1/"
   xmlns:cc="http://creativecommons.org/ns#"
   xmlns:rdf="http://www.w3.org/1999/02/22-rdf-syntax-ns#"
   xmlns:svg="http://www.w3.org/2000/svg"
   xmlns="http://www.w3.org/2000/svg"
   xmlns:sodipodi="http://sodipodi.sourceforge.net/DTD/sodipodi-0.dtd"
   xmlns:inkscape="http://www.inkscape.org/namespaces/inkscape"
   id="svg7384"
   sodipodi:docname="gpm-battery-030-charging.svg"
   version="1.1"
   inkscape:version="0.48.3.1 r9886"
   height="16"
   width="16">
  <metadata
     id="metadata90">
    <rdf:RDF>
      <cc:Work
         rdf:about="">
        <dc:format>image/svg+xml</dc:format>
        <dc:type
           rdf:resource="http://purl.org/dc/dcmitype/StillImage" />
        <dc:title>Gnome Symbolic Icon Theme</dc:title>
      </cc:Work>
    </rdf:RDF>
  </metadata>
  <sodipodi:namedview
     inkscape:cy="3.0192053"
     pagecolor="#555753"
     borderopacity="1"
     showborder="true"
     inkscape:bbox-paths="false"
     guidetolerance="10"
     inkscape:object-paths="true"
     inkscape:window-width="1918"
     showguides="true"
     inkscape:object-nodes="true"
     inkscape:snap-bbox="true"
     inkscape:pageshadow="2"
     inkscape:guide-bbox="true"
     inkscape:snap-nodes="false"
     bordercolor="#666666"
     objecttolerance="10"
     id="namedview88"
     showgrid="true"
     inkscape:window-maximized="1"
     inkscape:window-x="0"
     inkscape:snap-global="false"
     inkscape:window-y="25"
     gridtolerance="10"
     inkscape:window-height="1007"
     inkscape:snap-to-guides="true"
     inkscape:current-layer="layer9"
     inkscape:snap-bbox-midpoints="false"
     inkscape:zoom="25.781249"
     inkscape:cx="-2.1116853"
     inkscape:snap-grids="true"
     inkscape:pageopacity="0">
    <inkscape:grid
       spacingx="1px"
       spacingy="1px"
       id="grid4866"
       empspacing="2"
       enabled="true"
       type="xygrid"
       snapvisiblegridlinesonly="true"
       visible="true" />
  </sodipodi:namedview>
  <title
     id="title9167">Gnome Symbolic Icon Theme</title>
  <defs
     id="defs7386" />
  <g
     inkscape:label="status"
     transform="translate(-61.0002,-217)"
     inkscape:groupmode="layer"
     id="layer9"
     style="display:inline">
    <path
       style="font-size:medium;font-style:normal;font-variant:normal;font-weight:normal;font-stretch:normal;text-indent:0;text-align:start;text-decoration:none;line-height:normal;letter-spacing:normal;word-spacing:normal;text-transform:none;direction:ltr;block-progression:tb;writing-mode:lr-tb;text-anchor:start;baseline-shift:baseline;color:#bebebe;fill:#2ad4ff;fill-opacity:1;stroke:none;stroke-width:2;marker:none;visibility:visible;display:inline;overflow:visible;enable-background:accumulate;font-family:Sans;-inkscape-font-specification:Sans"
       d="m 69.121158,218.04823 c -0.590776,0.005 -1.226292,0.0575 -1.875,0.15625 -0.440665,0.0671 -0.723703,0.19558 -0.9375,0.40625 -0.277885,0.55355 -0.442498,0.84541 0.0625,1.46875 -0.759631,-0.13754 -1.458556,-0.18368 -2.28125,-0.15625 l 0,0.875 c 0.399401,3.55678 0.163843,7.04488 0,10.53125 l 0,0.875 0.90625,0 c 1.745795,-0.18973 3.704181,-0.18694 5.4517,-0.13104 l -0.17045,-0.96271 0.174362,-0.69957 c -1.49726,-0.0607 -2.932802,-0.10178 -4.518112,0.0433 0.351116,-2.80533 0.306505,-5.75671 0,-8.78125 l 0.90625,0 0.90625,0 0,-0.875 0,-0.84375 c 0.919945,-0.19336 1.85202,-0.25422 2.71875,0 l 0,0.84375 0,0.875 0.90625,0 0.90625,0 c -0.05417,0.63639 -0.089,1.42113 -0.125,2.05753 l 1.831675,-0.009 c 0.04499,-0.77786 0.02262,-2.14196 0.105825,-2.92364 l 0,-0.875 c -0.746972,0.10379 -1.520909,0.0974 -2.28125,0.21875 0.30596,-0.54427 0.3973,-0.81749 0.09375,-1.4375 -0.203391,-0.23184 -0.549838,-0.46705 -1.03125,-0.46875 l 0,-0.0313 -0.0625,0 c -0.539251,-0.12021 -1.096724,-0.16161 -1.6875,-0.15625 z m 4.59375,12.4375 -1,1.6875 c 0.157426,0.0114 0.311361,0.019 0.46875,0.0313 l 0.90625,0 0,-0.875 c -0.02635,-0.25845 -0.03984,-0.52243 -0.0625,-0.78125 z"
       id="path3737-5"
       inkscape:connector-curvature="0"
       sodipodi:nodetypes="scccccccccccccccccccccccccccccccsccccccc" />
    <path
       inkscape:connector-curvature="0"
       d="m 72.345811,223.9629 a 1.016466,1.016466 0 0 0 -0.46875,0.28125 l -3,3 a 1.0001,1.0001 0 0 0 -0.28125,0.90625 l 0,0.8125 0.999998,0 2.125002,0 -0.843752,1.28125 a 1.016466,1.016466 0 0 0 -0.28125,0.9375 l 0,0.78125 1.000002,0 a 1.016466,1.016466 0 0 0 0.71875,-0.28125 l 3,-3 a 1.0001,1.0001 0 0 0 0.28125,-0.71875 1.0001,1.0001 0 0 0 0,-0.125 l 0,-0.875 -0.84375,0 -0.0937,0 a 1.0001,1.0001 0 0 0 -0.0625,0 l -2.125,0 0.84375,-1.28125 a 1.016466,1.016466 0 0 0 0.28125,-0.9375 l 0,-0.78125 -0.9375,0 a 1.016466,1.016466 0 0 0 -0.3125,0 z"
       id="path6217-8-8"
       style="font-size:medium;font-style:normal;font-variant:normal;font-weight:normal;font-stretch:normal;text-indent:0;text-align:start;text-decoration:none;line-height:normal;letter-spacing:normal;word-spacing:normal;text-transform:none;direction:ltr;block-progression:tb;writing-mode:lr-tb;text-anchor:start;color:#bebebe;fill:#ff6600;fill-opacity:1;fill-rule:nonzero;stroke:none;stroke-width:2;marker:none;visibility:visible;display:inline;overflow:visible;enable-background:accumulate;font-family:Bitstream Vera Sans;-inkscape-font-specification:Bitstream Vera Sans" />
  </g>
  <g
     inkscape:label="devices"
     transform="translate(-61.0002,-217)"
     inkscape:groupmode="layer"
     id="layer10" />
  <g
     inkscape:label="apps"
     transform="translate(-61.0002,-217)"
     inkscape:groupmode="layer"
     id="layer11" />
  <g
     inkscape:label="actions"
     transform="translate(-61.0002,-217)"
     inkscape:groupmode="layer"
     id="layer12" />
  <g
     inkscape:label="places"
     transform="translate(-61.0002,-217)"
     inkscape:groupmode="layer"
     id="layer13" />
  <g
     inkscape:label="mimetypes"
     transform="translate(-61.0002,-217)"
     inkscape:groupmode="layer"
     id="layer14" />
  <g
     inkscape:label="emblems"
     transform="translate(-61.0002,-217)"
     inkscape:groupmode="layer"
     id="layer15"
     style="display:inline" />
  <g
     inkscape:label="categories"
     transform="translate(-61.0002,-217)"
     inkscape:groupmode="layer"
     id="g4953"
     style="display:inline" />
</svg>
