<?xml version="1.0" encoding="UTF-8" standalone="no"?>
<!-- Created with Inkscape (http://www.inkscape.org/) -->

<svg
   xmlns:dc="http://purl.org/dc/elements/1.1/"
   xmlns:cc="http://creativecommons.org/ns#"
   xmlns:rdf="http://www.w3.org/1999/02/22-rdf-syntax-ns#"
   xmlns:svg="http://www.w3.org/2000/svg"
   xmlns="http://www.w3.org/2000/svg"
   xmlns:sodipodi="http://sodipodi.sourceforge.net/DTD/sodipodi-0.dtd"
   xmlns:inkscape="http://www.inkscape.org/namespaces/inkscape"
   id="svg7384"
   sodipodi:docname="gpm-battery-090-charging.svg"
   version="1.1"
   inkscape:version="0.48.3.1 r9886"
   height="16"
   width="16">
  <metadata
     id="metadata90">
    <rdf:RDF>
      <cc:Work
         rdf:about="">
        <dc:format>image/svg+xml</dc:format>
        <dc:type
           rdf:resource="http://purl.org/dc/dcmitype/StillImage" />
        <dc:title>Gnome Symbolic Icon Theme</dc:title>
      </cc:Work>
    </rdf:RDF>
  </metadata>
  <sodipodi:namedview
     inkscape:cy="7.6085973"
     pagecolor="#555753"
     borderopacity="1"
     showborder="true"
     inkscape:bbox-paths="false"
     guidetolerance="10"
     inkscape:object-paths="true"
     inkscape:window-width="1918"
     showguides="true"
     inkscape:object-nodes="true"
     inkscape:snap-bbox="true"
     inkscape:pageshadow="2"
     inkscape:guide-bbox="true"
     inkscape:snap-nodes="false"
     bordercolor="#666666"
     objecttolerance="10"
     id="namedview88"
     showgrid="true"
     inkscape:window-maximized="1"
     inkscape:window-x="0"
     inkscape:snap-global="false"
     inkscape:window-y="25"
     gridtolerance="10"
     inkscape:window-height="1007"
     inkscape:snap-to-guides="true"
     inkscape:current-layer="layer9"
     inkscape:snap-bbox-midpoints="false"
     inkscape:zoom="40.981985"
     inkscape:cx="8.7660573"
     inkscape:snap-grids="true"
     inkscape:pageopacity="0">
    <inkscape:grid
       spacingx="1px"
       spacingy="1px"
       id="grid4866"
       empspacing="2"
       enabled="true"
       type="xygrid"
       snapvisiblegridlinesonly="true"
       visible="true" />
  </sodipodi:namedview>
  <title
     id="title9167">Gnome Symbolic Icon Theme</title>
  <defs
     id="defs7386" />
  <g
     inkscape:label="status"
     transform="translate(-61.0002,-217)"
     inkscape:groupmode="layer"
     id="layer9"
     style="display:inline">
    <path
       style="fill:#2ad4ff;fill-opacity:1;stroke:none;display:inline"
       d="m 69.164657,218.00935 c -0.590776,0.005 -1.226292,0.0575 -1.875,0.15625 -0.440665,0.0671 -0.723703,0.22683 -0.9375,0.4375 -0.277885,0.55355 -0.442498,0.84541 0.0625,1.46875 -0.759631,-0.13754 -1.458556,-0.18368 -2.28125,-0.15625 l 0,0.875 c 0.399401,3.55678 0.163843,7.01363 0,10.5 l 0,0.875 0.90625,0 c 1.322297,-0.1437 2.645037,-0.19388 3.96875,-0.1875 l 0,-0.625 c -0.07125,-0.33286 0.03855,-0.69883 0.28125,-0.9375 l 0.125,-0.125 c -1.124791,-0.0119 -2.259577,0.0172 -3.4375,0.125 0.351116,-2.80533 0.306505,-5.72546 0,-8.75 l 0.90625,0 0.90625,0 0,-0.875 0,-0.875 c 0.459972,-0.0967 0.91653,-0.14864 1.375,-0.15625 0.45847,-0.008 0.910385,0.0291 1.34375,0.15625 l 0,0.875 0,0.875 0.90625,0 0.90625,0 c -0.03731,0.43836 -0.06467,0.8748 -0.09375,1.3125 0.556878,0.0554 1.268378,-0.048 1.71875,0.0313 0.04449,-0.73547 0.108694,-1.47842 0.1875,-2.21875 l 0,-0.875 c -0.746972,0.10379 -1.520909,0.0974 -2.28125,0.21875 0.30596,-0.54427 0.3973,-0.84874 0.09375,-1.46875 -0.203391,-0.23184 -0.549838,-0.46705 -1.03125,-0.46875 l 0,-0.0313 -0.0625,0 c -0.539251,-0.12021 -1.096724,-0.1616 -1.6875,-0.15625 z m -2.702578,6.01303 c 1.06463,0.036 2.593949,7.9e-4 3.786591,-0.0237 l 0.86746,-0.67518 -0.02223,-0.53227 c -1.31241,0.0527 -3.103171,0.12672 -4.59304,0.0633 -0.02512,0.35233 -0.03286,1.00658 -0.03878,1.16785 z m 0.20148,1.10553 -0.123902,0.41269 -0.03125,1.5625 c 0.400224,-0.0119 0.791098,-0.0127 1.1875,-0.0313 0.03798,-0.0803 0.07894,-0.17358 0.125,-0.21875 l 1.786591,-1.82538 c -0.95641,0.0192 -2.080609,0.17064 -2.943939,0.10024 z m 0.844848,2.88144 c -0.358567,0.006 -0.70599,0.009 -1.03125,0.0313 l -0.0625,1.5625 c 1.096926,-0.0859 2.400881,-0.13827 3.6875,-0.0625 l 0.3125,-0.53125 -1.90625,0 -1,0 0,-0.8125 c -0.0095,-0.0485 6.94e-4,-0.12146 0,-0.1875 z m 6.59375,1.75 -1.25,2.21875 c -0.06724,0.0642 -0.13654,0.11293 -0.21875,0.15625 0.199246,0.0141 0.394562,0.0157 0.59375,0.0313 l 0.90625,0 0,-0.875 c -0.07674,-0.75269 0.0137,-0.77689 -0.03125,-1.53125 z"
       id="rect10870-7-0"
       inkscape:connector-curvature="0"
       sodipodi:nodetypes="sccccccccccccccccccsccccccccccccccsccccccccccccccccccccccccccccccc" />
    <path
       inkscape:connector-curvature="0"
       d="m 71.604131,223.65869 a 1.016466,1.016466 0 0 0 -0.46875,0.28125 l -3,3 a 1.0001,1.0001 0 0 0 -0.28125,0.90625 l 0,0.8125 0.999998,0 2.125002,0 -0.843752,1.28125 a 1.016466,1.016466 0 0 0 -0.28125,0.9375 l 0,0.78125 1.000002,0 a 1.016466,1.016466 0 0 0 0.71875,-0.28125 l 3,-3 a 1.0001,1.0001 0 0 0 0.28125,-0.71875 1.0001,1.0001 0 0 0 0,-0.125 l 0,-0.875 -0.84375,0 -0.0937,0 a 1.0001,1.0001 0 0 0 -0.0625,0 l -2.125,0 0.84375,-1.28125 a 1.016466,1.016466 0 0 0 0.28125,-0.9375 l 0,-0.78125 -0.9375,0 a 1.016466,1.016466 0 0 0 -0.3125,0 z"
       id="path6217-8-8"
       style="font-size:medium;font-style:normal;font-variant:normal;font-weight:normal;font-stretch:normal;text-indent:0;text-align:start;text-decoration:none;line-height:normal;letter-spacing:normal;word-spacing:normal;text-transform:none;direction:ltr;block-progression:tb;writing-mode:lr-tb;text-anchor:start;color:#bebebe;fill:#ff6600;fill-opacity:1;fill-rule:nonzero;stroke:none;stroke-width:2;marker:none;visibility:visible;display:inline;overflow:visible;enable-background:accumulate;font-family:Bitstream Vera Sans;-inkscape-font-specification:Bitstream Vera Sans" />
  </g>
  <g
     inkscape:label="devices"
     transform="translate(-61.0002,-217)"
     inkscape:groupmode="layer"
     id="layer10" />
  <g
     inkscape:label="apps"
     transform="translate(-61.0002,-217)"
     inkscape:groupmode="layer"
     id="layer11" />
  <g
     inkscape:label="actions"
     transform="translate(-61.0002,-217)"
     inkscape:groupmode="layer"
     id="layer12" />
  <g
     inkscape:label="places"
     transform="translate(-61.0002,-217)"
     inkscape:groupmode="layer"
     id="layer13" />
  <g
     inkscape:label="mimetypes"
     transform="translate(-61.0002,-217)"
     inkscape:groupmode="layer"
     id="layer14" />
  <g
     inkscape:label="emblems"
     transform="translate(-61.0002,-217)"
     inkscape:groupmode="layer"
     id="layer15"
     style="display:inline" />
  <g
     inkscape:label="categories"
     transform="translate(-61.0002,-217)"
     inkscape:groupmode="layer"
     id="g4953"
     style="display:inline" />
</svg>
