<?xml version="1.0" encoding="UTF-8" standalone="no"?>
<!-- Created with Inkscape (http://www.inkscape.org/) -->

<svg
   xmlns:dc="http://purl.org/dc/elements/1.1/"
   xmlns:cc="http://creativecommons.org/ns#"
   xmlns:rdf="http://www.w3.org/1999/02/22-rdf-syntax-ns#"
   xmlns:svg="http://www.w3.org/2000/svg"
   xmlns="http://www.w3.org/2000/svg"
   xmlns:sodipodi="http://sodipodi.sourceforge.net/DTD/sodipodi-0.dtd"
   xmlns:inkscape="http://www.inkscape.org/namespaces/inkscape"
   id="svg7384"
   sodipodi:docname="gpm-battery-missing.svg"
   version="1.1"
   inkscape:version="0.48.3.1 r9886"
   height="16"
   width="16">
  <metadata
     id="metadata90">
    <rdf:RDF>
      <cc:Work
         rdf:about="">
        <dc:format>image/svg+xml</dc:format>
        <dc:type
           rdf:resource="http://purl.org/dc/dcmitype/StillImage" />
        <dc:title>Gnome Symbolic Icon Theme</dc:title>
      </cc:Work>
    </rdf:RDF>
  </metadata>
  <sodipodi:namedview
     inkscape:cy="3.9433396"
     pagecolor="#555753"
     borderopacity="1"
     showborder="true"
     inkscape:bbox-paths="false"
     guidetolerance="10"
     inkscape:object-paths="true"
     inkscape:window-width="1918"
     showguides="true"
     inkscape:object-nodes="true"
     inkscape:snap-bbox="true"
     inkscape:pageshadow="2"
     inkscape:guide-bbox="true"
     inkscape:snap-nodes="false"
     bordercolor="#666666"
     objecttolerance="10"
     id="namedview88"
     showgrid="true"
     inkscape:window-maximized="1"
     inkscape:window-x="0"
     inkscape:snap-global="false"
     inkscape:window-y="25"
     gridtolerance="10"
     inkscape:window-height="1007"
     inkscape:snap-to-guides="true"
     inkscape:current-layer="layer9"
     inkscape:snap-bbox-midpoints="false"
     inkscape:zoom="83.0841"
     inkscape:cx="10.629064"
     inkscape:snap-grids="true"
     inkscape:pageopacity="0">
    <inkscape:grid
       spacingx="1px"
       spacingy="1px"
       id="grid4866"
       empspacing="2"
       enabled="true"
       type="xygrid"
       snapvisiblegridlinesonly="true"
       visible="true" />
    <sodipodi:guide
       orientation="0,1"
       position="31.30182,-3.8400002"
       id="guide3036" />
  </sodipodi:namedview>
  <title
     id="title9167">Gnome Symbolic Icon Theme</title>
  <defs
     id="defs7386">
    <inkscape:path-effect
       effect="spiro"
       id="path-effect3032"
       is_visible="true" />
  </defs>
  <g
     inkscape:label="status"
     transform="translate(-61.0002,-217)"
     inkscape:groupmode="layer"
     id="layer9"
     style="display:inline">
    <path
       inkscape:connector-curvature="0"
       style="font-size:medium;font-style:normal;font-variant:normal;font-weight:normal;font-stretch:normal;text-indent:0;text-align:start;text-decoration:none;line-height:normal;letter-spacing:normal;word-spacing:normal;text-transform:none;direction:ltr;block-progression:tb;writing-mode:lr-tb;text-anchor:start;baseline-shift:baseline;color:#bebebe;fill:#2ad4ff;fill-opacity:1;stroke:none;stroke-width:2;marker:none;visibility:visible;display:inline;overflow:visible;enable-background:accumulate;font-family:Sans;-inkscape-font-specification:Sans"
       d="m 69.110843,217.99356 c -0.590776,0.005 -1.195042,0.0887 -1.84375,0.1875 -0.440665,0.0671 -0.723703,0.19558 -0.9375,0.40625 -0.277885,0.55355 -0.442498,0.84541 0.0625,1.46875 -0.759631,-0.13754 -1.458556,-0.18368 -2.28125,-0.15625 l 0,0.875 c 0.399401,3.55678 0.163843,7.04488 0,10.53125 l 0,0.875 0.90625,0 c 1.510424,-0.16415 3.020826,-0.21387 4.53125,-0.1875 l -0.09375,-1.71875 c -1.15039,-0.014 -2.331318,0.0464 -3.53125,0.15625 0.351116,-2.80533 0.306505,-5.75671 0,-8.78125 l 0.90625,0 0.90625,0 0,-0.875 0,-0.84375 c 0.919945,-0.19336 1.88327,-0.25422 2.75,0 l 0,0.84375 0,0.875 0.90625,0 0.90625,0 c -0.146591,1.72206 -0.238074,3.43419 -0.21875,5.15625 l 1.78125,0 c -0.033,-2.00072 0.03438,-4.00567 0.25,-6.03125 l 0,-0.875 c -0.746972,0.10379 -1.520909,0.0974 -2.28125,0.21875 0.30596,-0.54427 0.3973,-0.84874 0.09375,-1.46875 -0.203391,-0.23184 -0.581088,-0.4358 -1.0625,-0.4375 l 0,-0.0313 -0.0625,0 c -0.539251,-0.12021 -1.096724,-0.19286 -1.6875,-0.1875 z"
       id="path3737-1" />
    <g
       id="g3025"
       transform="translate(-8.5534565,2.3513449)">
      <g
         id="g3022"
         transform="translate(68.520863,216.74959)">
        <path
           style="font-size:medium;font-style:normal;font-variant:normal;font-weight:normal;font-stretch:normal;text-indent:0;text-align:start;text-decoration:none;line-height:normal;letter-spacing:normal;word-spacing:normal;text-transform:none;direction:ltr;block-progression:tb;writing-mode:lr-tb;text-anchor:start;baseline-shift:baseline;color:#000000;fill:#2ad4ff;fill-opacity:1;fill-rule:nonzero;stroke:none;stroke-width:1.43599999;marker:none;visibility:visible;display:inline;overflow:visible;enable-background:accumulate;font-family:Sans;-inkscape-font-specification:Sans"
           d="m 25.931061,10.398712 c -0.732967,0.532343 -0.858431,0.893766 -1.395493,1.423523 L 23.266174,10.52803 c -0.615474,0.152394 -0.934693,0.489603 -0.961212,0.94394 0.428698,0.447821 0.781464,0.970515 1.271591,1.452575 -0.497509,0.635756 -0.820493,0.896633 -1.295303,1.356705 -0.219724,0.54002 0.544107,1.262086 0.90625,0.875 l 1.4375,-1.280227 c 0.593649,0.638197 1.154469,0.888603 1.71875,1.561477 0.249119,-0.242427 0.982833,-0.634868 0.709015,-1.045227 L 25.509659,12.723069 26.65625,11.3125 c 0.286689,-0.353989 -0.382155,-0.921248 -0.725189,-0.913788 z"
           transform="translate(-11.942482,-2.2708023)"
           id="path3123"
           inkscape:connector-curvature="0"
           sodipodi:nodetypes="ccccccccccccc" />
      </g>
    </g>
  </g>
  <g
     inkscape:label="devices"
     transform="translate(-61.0002,-217)"
     inkscape:groupmode="layer"
     id="layer10" />
  <g
     inkscape:label="apps"
     transform="translate(-61.0002,-217)"
     inkscape:groupmode="layer"
     id="layer11" />
  <g
     inkscape:label="actions"
     transform="translate(-61.0002,-217)"
     inkscape:groupmode="layer"
     id="layer12" />
  <g
     inkscape:label="places"
     transform="translate(-61.0002,-217)"
     inkscape:groupmode="layer"
     id="layer13" />
  <g
     inkscape:label="mimetypes"
     transform="translate(-61.0002,-217)"
     inkscape:groupmode="layer"
     id="layer14" />
  <g
     inkscape:label="emblems"
     transform="translate(-61.0002,-217)"
     inkscape:groupmode="layer"
     id="layer15"
     style="display:inline" />
  <g
     inkscape:label="categories"
     transform="translate(-61.0002,-217)"
     inkscape:groupmode="layer"
     id="g4953"
     style="display:inline" />
</svg>
