<?xml version="1.0" encoding="UTF-8" standalone="no"?>
<!-- Created with Inkscape (http://www.inkscape.org/) -->

<svg
   xmlns:dc="http://purl.org/dc/elements/1.1/"
   xmlns:cc="http://creativecommons.org/ns#"
   xmlns:rdf="http://www.w3.org/1999/02/22-rdf-syntax-ns#"
   xmlns:svg="http://www.w3.org/2000/svg"
   xmlns="http://www.w3.org/2000/svg"
   xmlns:sodipodi="http://sodipodi.sourceforge.net/DTD/sodipodi-0.dtd"
   xmlns:inkscape="http://www.inkscape.org/namespaces/inkscape"
   id="svg7384"
   width="16"
   height="16.001099"
   sodipodi:docname="mail-read-symbolic.svg"
   inkscape:version="0.48.3.1 r9886"
   version="1.1">
  <metadata
     id="metadata90">
    <rdf:RDF>
      <cc:Work
         rdf:about="">
        <dc:format>image/svg+xml</dc:format>
        <dc:type
           rdf:resource="http://purl.org/dc/dcmitype/StillImage" />
        <dc:title>Gnome Symbolic Icon Theme</dc:title>
      </cc:Work>
    </rdf:RDF>
  </metadata>
  <sodipodi:namedview
     inkscape:window-width="1918"
     id="namedview88"
     showgrid="true"
     objecttolerance="10"
     inkscape:pageopacity="0"
     inkscape:cx="19.84"
     inkscape:cy="4.7127273"
     inkscape:snap-bbox="true"
     borderopacity="1"
     inkscape:object-nodes="false"
     inkscape:current-layer="layer9"
     inkscape:snap-to-guides="true"
     inkscape:snap-others="false"
     inkscape:snap-grids="true"
     bordercolor="#666666"
     inkscape:window-height="1007"
     inkscape:snap-bbox-midpoints="false"
     showborder="true"
     inkscape:bbox-paths="false"
     inkscape:guide-bbox="true"
     inkscape:window-x="0"
     inkscape:window-y="25"
     inkscape:snap-global="false"
     inkscape:snap-nodes="true"
     pagecolor="#ffffff"
     inkscape:object-paths="false"
     inkscape:pageshadow="2"
     inkscape:zoom="32.890501"
     inkscape:window-maximized="1"
     gridtolerance="10"
     guidetolerance="10"
     showguides="false"
     borderlayer="true">
    <inkscape:grid
       id="grid4866"
       empspacing="2"
       type="xygrid"
       visible="true"
       snapvisiblegridlinesonly="true"
       enabled="true"
       spacingx="1px"
       spacingy="1px" />
  </sodipodi:namedview>
  <title
     id="title9167">Gnome Symbolic Icon Theme</title>
  <defs
     id="defs7386" />
  <g
     id="layer9"
     inkscape:groupmode="layer"
     style="display:inline"
     transform="translate(-60.99995,-296.9989)"
     inkscape:label="status">
    <path
       d="m 62.983033,303.44026 c -0.872046,-0.17685 -1.181459,-1.56975 -0.470328,-2.11732 1.728399,-1.34393 3.112636,-1.08698 5.788639,-3.56599 0.698557,-0.68359 1.177278,-0.83827 1.881247,-0.26003 1.424237,1.54814 3.44861,2.11302 5.354549,3.82602 0.473773,0.38892 0.560069,1.18544 0.181142,1.67177 -0.378931,0.48633 -1.154742,0.57471 -1.628302,0.18552 -1.382188,-1.91069 -3.179979,-3.11019 -5.065056,-4.16033 -2.258947,1.50394 -3.624649,2.82447 -5.065059,4.16033 -0.265174,0.23146 -0.635528,0.33004 -0.976832,0.26003 z"
       id="path35600-7"
       style="font-size:medium;font-style:normal;font-variant:normal;font-weight:normal;font-stretch:normal;text-indent:0;text-align:start;text-decoration:none;line-height:normal;letter-spacing:normal;word-spacing:normal;text-transform:none;direction:ltr;block-progression:tb;writing-mode:lr-tb;text-anchor:start;color:#000000;fill:#2ad4ff;fill-opacity:1;stroke:none;stroke-width:1.99999976;marker:none;visibility:visible;display:inline;overflow:visible;enable-background:accumulate;font-family:Bitstream Vera Sans;-inkscape-font-specification:Bitstream Vera Sans"
       inkscape:connector-curvature="0"
       sodipodi:nodetypes="cccccscccc" />
    <path
       d="m 63.024049,301.4804 c -0.491584,0.0463 -0.908379,0.50624 -0.90625,1 0.196576,3 0.376134,6 0,9 5.2e-5,0.52358 0.476416,0.99995 1,1 3.814804,-0.55559 7.748509,-0.75447 11.999997,0 0.52359,-5e-5 0.99995,-0.47642 1,-1 -0.8463,-3.09403 -0.59431,-6.32278 -0.15202,-9.27364 -5e-5,-0.52358 -0.506813,0.003 -1.030403,0.003 -1.990134,0.16906 -5.033735,4.64813 -5.696494,4.61089 -0.881517,-0.0495 -4.296543,-4.46352 -6.2731,-4.7325 -0.03123,-10e-4 0.0895,-0.60908 0.05827,-0.60808 z m 0.54648,1.69596 c 1.576021,0.11004 4.739156,4.30329 5.699295,4.28941 1.025076,-0.0148 3.224682,-3.98575 4.999995,-4.16779 -0.443996,2.48133 -0.997048,5.13076 -0.15202,7.18242 -3.529692,-0.45817 -6.908162,-0.56349 -10,0 0.533061,-2.33333 -0.395468,-4.97071 -0.54727,-7.30404 z"
       id="rect35604-1"
       style="font-size:medium;font-style:normal;font-variant:normal;font-weight:normal;font-stretch:normal;text-indent:0;text-align:start;text-decoration:none;line-height:normal;letter-spacing:normal;word-spacing:normal;text-transform:none;direction:ltr;block-progression:tb;writing-mode:lr-tb;text-anchor:start;color:#000000;fill:#2ad4ff;fill-opacity:1;stroke:none;stroke-width:2;marker:none;visibility:visible;display:inline;overflow:visible;enable-background:accumulate;font-family:Bitstream Vera Sans;-inkscape-font-specification:Bitstream Vera Sans"
       inkscape:connector-curvature="0"
       sodipodi:nodetypes="ccccccccscccscccc" />
  </g>
  <g
     id="layer10"
     inkscape:groupmode="layer"
     transform="translate(-60.99995,-296.9989)"
     inkscape:label="devices" />
  <g
     id="layer11"
     inkscape:groupmode="layer"
     transform="translate(-60.99995,-296.9989)"
     inkscape:label="apps" />
  <g
     id="layer13"
     inkscape:groupmode="layer"
     transform="translate(-60.99995,-296.9989)"
     inkscape:label="places" />
  <g
     id="layer14"
     inkscape:groupmode="layer"
     transform="translate(-60.99995,-296.9989)"
     inkscape:label="mimetypes" />
  <g
     id="layer15"
     inkscape:groupmode="layer"
     style="display:inline"
     transform="translate(-60.99995,-296.9989)"
     inkscape:label="emblems" />
  <g
     id="g71291"
     inkscape:groupmode="layer"
     style="display:inline"
     transform="translate(-60.99995,-296.9989)"
     inkscape:label="emotes" />
  <g
     id="g4953"
     inkscape:groupmode="layer"
     style="display:inline"
     transform="translate(-60.99995,-296.9989)"
     inkscape:label="categories" />
  <g
     id="layer12"
     inkscape:groupmode="layer"
     style="display:inline"
     transform="translate(-60.99995,-296.9989)"
     inkscape:label="actions" />
</svg>
