<?xml version="1.0" encoding="UTF-8" standalone="no"?>
<!-- Created with Inkscape (http://www.inkscape.org/) -->

<svg
   xmlns:dc="http://purl.org/dc/elements/1.1/"
   xmlns:cc="http://creativecommons.org/ns#"
   xmlns:rdf="http://www.w3.org/1999/02/22-rdf-syntax-ns#"
   xmlns:svg="http://www.w3.org/2000/svg"
   xmlns="http://www.w3.org/2000/svg"
   xmlns:sodipodi="http://sodipodi.sourceforge.net/DTD/sodipodi-0.dtd"
   xmlns:inkscape="http://www.inkscape.org/namespaces/inkscape"
   id="svg7384"
   version="1.1"
   inkscape:version="0.48.3.1 r9886"
   height="16"
   sodipodi:docname="mail-unread-symbolic.svg"
   width="16">
  <metadata
     id="metadata90">
    <rdf:RDF>
      <cc:Work
         rdf:about="">
        <dc:format>image/svg+xml</dc:format>
        <dc:type
           rdf:resource="http://purl.org/dc/dcmitype/StillImage" />
        <dc:title>Gnome Symbolic Icon Theme</dc:title>
      </cc:Work>
    </rdf:RDF>
  </metadata>
  <sodipodi:namedview
     inkscape:cy="6.0794038"
     inkscape:current-layer="layer9"
     inkscape:window-width="1918"
     pagecolor="#ffffff"
     showborder="true"
     showguides="true"
     inkscape:snap-nodes="true"
     objecttolerance="10"
     showgrid="true"
     inkscape:object-nodes="true"
     inkscape:pageshadow="2"
     inkscape:guide-bbox="true"
     inkscape:window-x="0"
     inkscape:snap-bbox="true"
     bordercolor="#666666"
     id="namedview88"
     inkscape:window-maximized="1"
     inkscape:snap-global="true"
     inkscape:window-y="25"
     gridtolerance="10"
     inkscape:zoom="18.230097"
     inkscape:window-height="1007"
     borderopacity="1"
     guidetolerance="10"
     inkscape:cx="-2.6493965"
     inkscape:bbox-paths="false"
     inkscape:snap-grids="true"
     inkscape:pageopacity="0"
     inkscape:snap-to-guides="true"
     borderlayer="true">
    <inkscape:grid
       visible="true"
       spacingx="1px"
       type="xygrid"
       spacingy="1px"
       id="grid4866"
       empspacing="2"
       enabled="true"
       snapvisiblegridlinesonly="true" />
  </sodipodi:namedview>
  <title
     id="title9167">Gnome Symbolic Icon Theme</title>
  <defs
     id="defs7386" />
  <g
     transform="translate(-40.99995,-297)"
     inkscape:groupmode="layer"
     id="layer9"
     inkscape:label="status"
     style="display:inline">
    <path
       d="m 43.78125,301 c -0.753239,0.14877 -1.020499,1.3206 -0.40625,1.78125 1.492923,1.13063 2.688573,0.91445 5,3 0.603387,0.57508 1.016888,0.7052 1.62495,0.21875 1.2302,-1.30242 2.978775,-1.77764 4.62505,-3.21875 0.409223,-0.32719 0.483771,-0.99729 0.156465,-1.40642 -0.327307,-0.40914 -0.997422,-0.4835 -1.406465,-0.15608 -1.193881,1.60742 -2.746743,2.61654 -4.375,3.5 -1.951189,-1.26524 -3.13083,-2.37617 -4.375,-3.5 C 44.395953,301.02403 44.076054,300.94109 43.78125,301 z"
       id="path35600"
       style="font-size:medium;font-style:normal;font-variant:normal;font-weight:normal;font-stretch:normal;text-indent:0;text-align:start;text-decoration:none;line-height:normal;letter-spacing:normal;word-spacing:normal;text-transform:none;direction:ltr;block-progression:tb;writing-mode:lr-tb;text-anchor:start;color:#000000;fill:#2ad4ff;fill-opacity:1;stroke:none;stroke-width:1.99999976;marker:none;visibility:visible;display:inline;overflow:visible;enable-background:accumulate;font-family:Bitstream Vera Sans;-inkscape-font-specification:Bitstream Vera Sans"
       inkscape:connector-curvature="0"
       sodipodi:nodetypes="cccccscccc" />
    <path
       d="m 42.90625,300 c -0.491584,0.0463 -0.908379,0.50624 -0.90625,1 0.196576,3 0.376134,6 0,9 5.2e-5,0.52358 0.476416,0.99995 1,1 3.814804,-0.55559 7.748509,-0.75447 12,0 0.523584,-5e-5 0.999948,-0.47642 1,-1 -0.846301,-3.09403 -0.442295,-6.04914 0,-9 -5.2e-5,-0.52358 -0.476416,-0.99995 -1,-1 -4.116566,0.3497 -8.173574,0.52072 -12,0 -0.03123,-10e-4 -0.06252,-10e-4 -0.09375,0 z M 44,302 c 3.276146,0.22875 6.578966,0.3508 10,0 -0.443996,2.48133 -0.845028,4.94834 0,7 -3.529692,-0.45817 -6.908162,-0.56349 -10,0 0.533061,-2.33333 0.151802,-4.66667 0,-7 z"
       id="rect35604"
       style="font-size:medium;font-style:normal;font-variant:normal;font-weight:normal;font-stretch:normal;text-indent:0;text-align:start;text-decoration:none;line-height:normal;letter-spacing:normal;word-spacing:normal;text-transform:none;direction:ltr;block-progression:tb;writing-mode:lr-tb;text-anchor:start;color:#000000;fill:#2ad4ff;fill-opacity:1;stroke:none;stroke-width:2;marker:none;visibility:visible;display:inline;overflow:visible;enable-background:accumulate;font-family:Bitstream Vera Sans;-inkscape-font-specification:Bitstream Vera Sans"
       inkscape:connector-curvature="0"
       sodipodi:nodetypes="ccccccccccccccc" />
  </g>
  <g
     transform="translate(-40.99995,-297)"
     inkscape:groupmode="layer"
     id="layer10"
     inkscape:label="devices" />
  <g
     transform="translate(-40.99995,-297)"
     inkscape:groupmode="layer"
     id="layer11"
     inkscape:label="apps" />
  <g
     transform="translate(-40.99995,-297)"
     inkscape:groupmode="layer"
     id="layer12"
     inkscape:label="actions" />
  <g
     transform="translate(-40.99995,-297)"
     inkscape:groupmode="layer"
     id="layer13"
     inkscape:label="places" />
  <g
     transform="translate(-40.99995,-297)"
     inkscape:groupmode="layer"
     id="layer14"
     inkscape:label="mimetypes" />
  <g
     transform="translate(-40.99995,-297)"
     inkscape:groupmode="layer"
     id="layer15"
     inkscape:label="emblems"
     style="display:inline" />
</svg>
