<?xml version="1.0" encoding="UTF-8" standalone="no"?>
<!-- Created with Inkscape (http://www.inkscape.org/) -->

<svg
   xmlns:dc="http://purl.org/dc/elements/1.1/"
   xmlns:cc="http://creativecommons.org/ns#"
   xmlns:rdf="http://www.w3.org/1999/02/22-rdf-syntax-ns#"
   xmlns:svg="http://www.w3.org/2000/svg"
   xmlns="http://www.w3.org/2000/svg"
   xmlns:sodipodi="http://sodipodi.sourceforge.net/DTD/sodipodi-0.dtd"
   xmlns:inkscape="http://www.inkscape.org/namespaces/inkscape"
   id="svg7384"
   version="1.1"
   inkscape:version="0.48.3.1 r9886"
   height="16"
   sodipodi:docname="microphone-sensitivity-muted-symbolic.svg"
   width="16">
  <metadata
     id="metadata90">
    <rdf:RDF>
      <cc:Work
         rdf:about="">
        <dc:format>image/svg+xml</dc:format>
        <dc:type
           rdf:resource="http://purl.org/dc/dcmitype/StillImage" />
        <dc:title>Gnome Symbolic Icon Theme</dc:title>
      </cc:Work>
    </rdf:RDF>
  </metadata>
  <sodipodi:namedview
     inkscape:object-paths="true"
     inkscape:cy="5.3397978"
     inkscape:current-layer="layer9"
     inkscape:window-width="1918"
     pagecolor="#ffffff"
     showborder="true"
     showguides="true"
     inkscape:snap-nodes="false"
     objecttolerance="10"
     showgrid="true"
     inkscape:object-nodes="true"
     inkscape:pageshadow="2"
     inkscape:guide-bbox="true"
     inkscape:window-x="0"
     inkscape:snap-bbox="true"
     bordercolor="#666666"
     id="namedview88"
     inkscape:window-maximized="1"
     inkscape:snap-global="false"
     inkscape:window-y="25"
     gridtolerance="10"
     inkscape:zoom="36.460193"
     inkscape:window-height="1007"
     borderopacity="1"
     guidetolerance="10"
     inkscape:snap-bbox-midpoints="false"
     inkscape:cx="5.0841263"
     inkscape:bbox-paths="false"
     inkscape:snap-grids="true"
     inkscape:pageopacity="0"
     inkscape:snap-to-guides="true">
    <inkscape:grid
       visible="true"
       spacingx="1px"
       type="xygrid"
       spacingy="1px"
       id="grid4866"
       empspacing="2"
       enabled="true"
       snapvisiblegridlinesonly="true" />
  </sodipodi:namedview>
  <title
     id="title9167">Gnome Symbolic Icon Theme</title>
  <defs
     id="defs7386">
    <clipPath
       id="clipPath6810-7-87"
       clipPathUnits="userSpaceOnUse">
      <rect
         x="21"
         y="281"
         id="rect6812-2-4"
         height="11"
         width="14"
         style="color:#bebebe;fill:none;stroke:#ffffff;stroke-width:2;stroke-linecap:round;stroke-linejoin:round;stroke-miterlimit:4;stroke-opacity:1;stroke-dasharray:none;stroke-dashoffset:0;marker:none;visibility:visible;display:inline;overflow:visible" />
    </clipPath>
    <clipPath
       id="clipPath6810-7-87-5"
       clipPathUnits="userSpaceOnUse">
      <rect
         x="21"
         y="281"
         id="rect6812-2-4-6"
         height="11"
         width="14"
         style="color:#bebebe;fill:none;stroke:#ffffff;stroke-width:2;stroke-linecap:round;stroke-linejoin:round;stroke-miterlimit:4;stroke-opacity:1;stroke-dasharray:none;stroke-dashoffset:0;marker:none;visibility:visible;display:inline;overflow:visible" />
    </clipPath>
  </defs>
  <g
     transform="translate(-100,-398)"
     inkscape:groupmode="layer"
     id="layer9"
     inkscape:label="status"
     style="display:inline">
    <path
       style="color:#bebebe;fill:#2ad4ff;fill-opacity:1;fill-rule:nonzero;stroke:none;stroke-width:2;marker:none;visibility:visible;display:inline;overflow:visible"
       d="m 105.6935,399.96317 c 1.0346,0 1.61109,0.92457 1.86751,1.99802 0.33656,1.40891 0.32973,2.73767 0,4.00635 -0.27747,1.06762 -0.64679,2.13761 -1.68139,2.13761 -1.0346,0 -1.88185,-1.04693 -2.05363,-2.13761 -0.19924,-1.26508 -0.28861,-2.6177 0,-4.00635 0.22519,-1.08351 0.83291,-1.99802 1.86751,-1.99802 z"
       id="rect12327-1"
       inkscape:connector-curvature="0"
       sodipodi:nodetypes="sssssss" />
    <path
       inkscape:connector-curvature="0"
       transform="matrix(0.78201557,0,0,0.79920984,83.928132,179.00302)"
       clip-path="url(#clipPath6810-7-87-5)"
       d="m 27.96875,273.625 c -2.502477,0 -4.53125,2.02877 -4.53125,4.53125 l 0,5.8125 c 0,2.50248 2.056531,4.89495 4.53125,4.53125 2.120317,-0.31162 4.53125,-2.01816 4.53125,-4.53125 l 0,-5.8125 c 0,-2.50248 -2.028773,-4.53125 -4.53125,-4.53125 z m 0,1 c 1.964148,0 3.53125,1.5671 3.53125,3.53125 l 0,5.8125 c 0,1.96415 -1.533206,3.29908 -3.497354,3.29908 -1.869766,0 -3.565146,-1.33493 -3.565146,-3.29908 l 0,-5.8125 c 0,-1.96415 1.567102,-3.53125 3.53125,-3.53125 z"
       id="rect12329-8"
       style="font-size:medium;font-style:normal;font-variant:normal;font-weight:normal;font-stretch:normal;text-indent:0;text-align:start;text-decoration:none;line-height:normal;letter-spacing:normal;word-spacing:normal;text-transform:none;direction:ltr;block-progression:tb;writing-mode:lr-tb;text-anchor:start;color:#bebebe;fill:#2ad4ff;fill-opacity:1;stroke:none;stroke-width:1.00302994;marker:none;visibility:visible;display:inline;overflow:visible;enable-background:accumulate;font-family:Bitstream Vera Sans;-inkscape-font-specification:Bitstream Vera Sans"
       sodipodi:nodetypes="ssssssssssssss" />
    <path
       sodipodi:cy="361"
       transform="matrix(0.39338066,0,0,0.39960492,93.599865,259.31253)"
       sodipodi:type="arc"
       d="m 24,361 a 1,1 0 1 1 -2,0 1,1 0 1 1 2,0 z"
       id="path12331-4"
       sodipodi:rx="1"
       sodipodi:ry="1"
       style="color:#bebebe;fill:#2ad4ff;fill-opacity:1;stroke:none;stroke-width:2;marker:none;visibility:visible;display:inline;overflow:visible"
       sodipodi:cx="23" />
    <path
       sodipodi:cy="361"
       transform="matrix(0.39338066,0,0,0.39960492,99.893945,259.31253)"
       sodipodi:type="arc"
       d="m 24,361 a 1,1 0 1 1 -2,0 1,1 0 1 1 2,0 z"
       id="path12333-8"
       sodipodi:rx="1"
       sodipodi:ry="1"
       sodipodi:cx="23"
       style="color:#bebebe;fill:#2ad4ff;fill-opacity:1;stroke:none;stroke-width:2;marker:none;visibility:visible;display:inline;overflow:visible" />
    <path
       style="font-size:medium;font-style:normal;font-variant:normal;font-weight:normal;font-stretch:normal;text-indent:0;text-align:start;text-decoration:none;line-height:normal;letter-spacing:normal;word-spacing:normal;text-transform:none;direction:ltr;block-progression:tb;writing-mode:lr-tb;text-anchor:start;color:#bebebe;fill:#2ad4ff;fill-opacity:1;stroke:none;stroke-width:2;marker:none;visibility:visible;display:inline;overflow:visible;enable-background:accumulate;font-family:Bitstream Vera Sans;-inkscape-font-specification:Bitstream Vera Sans"
       d="m 104.61354,408.77567 c 0.13157,0.54009 0.72389,1.08017 0.29158,1.62026 -2.21715,-0.10286 -3.17491,0.40648 -2.69778,1.56725 l 0.65625,0 c 2.24543,-0.0997 4.45924,-0.44945 6.53125,0 l 0,-0.8125 -0.0313,0 c -0.009,-0.41057 -0.37698,-0.77844 -0.78125,-0.78125 l -2.04438,0.053 c -0.14526,-0.60685 0.29327,-1.09925 0.45063,-1.64677 z"
       id="path12335-2"
       inkscape:connector-curvature="0"
       sodipodi:nodetypes="ccccccccccc" />
    <path
       style="font-size:medium;font-style:normal;font-variant:normal;font-weight:normal;font-stretch:normal;text-indent:0;text-align:start;text-decoration:none;line-height:normal;letter-spacing:normal;word-spacing:normal;text-transform:none;direction:ltr;block-progression:tb;writing-mode:lr-tb;text-anchor:start;baseline-shift:baseline;color:#000000;fill:#9eebff;fill-opacity:1;stroke:none;stroke-width:0.70899999000000002;marker:none;visibility:visible;display:inline;overflow:visible;enable-background:accumulate;font-family:Sans;-inkscape-font-specification:Sans"
       d="m 112.46253,399.52566 c -0.92965,0 -1.71875,0.75959 -1.71875,1.6875 0,0.9279 0.7891,1.6875 1.71875,1.6875 0.46482,0 0.91755,-0.17836 1.28125,-0.46875 0.3637,-0.29039 0.625,-0.71646 0.625,-1.21875 0,-0.50229 -0.2613,-0.92835 -0.625,-1.21875 -0.3637,-0.2904 -0.81643,-0.46875 -1.28125,-0.46875 z m 0,0.71875 c 0.27418,0 0.60388,0.12098 0.84375,0.3125 0.23987,0.19152 0.375,0.42316 0.375,0.65625 0,0.23308 -0.13513,0.46473 -0.375,0.65625 -0.23987,0.19152 -0.56957,0.3125 -0.84375,0.3125 -0.54835,0 -1,-0.42591 -1,-0.96875 0,-0.54285 0.45165,-0.96875 1,-0.96875 z"
       id="path12347-9"
       inkscape:connector-curvature="0" />
    <path
       style="font-size:medium;font-style:normal;font-variant:normal;font-weight:normal;font-stretch:normal;text-indent:0;text-align:start;text-decoration:none;line-height:normal;letter-spacing:normal;word-spacing:normal;text-transform:none;direction:ltr;block-progression:tb;writing-mode:lr-tb;text-anchor:start;baseline-shift:baseline;color:#000000;fill:#9eebff;fill-opacity:1;stroke:none;stroke-width:0.70899999000000002;marker:none;visibility:visible;display:inline;overflow:visible;enable-background:accumulate;font-family:Sans;-inkscape-font-specification:Sans"
       d="m 112.60054,404.19406 c 0.92965,0 1.71875,0.75959 1.71875,1.6875 0,0.9279 -0.7891,1.6875 -1.71875,1.6875 -0.46482,0 -0.91755,-0.17836 -1.28125,-0.46875 -0.3637,-0.29039 -0.625,-0.71646 -0.625,-1.21875 0,-0.50229 0.2613,-0.92835 0.625,-1.21875 0.3637,-0.2904 0.81643,-0.46875 1.28125,-0.46875 z m 0,0.71875 c -0.27418,0 -0.60388,0.12098 -0.84375,0.3125 -0.23987,0.19152 -0.375,0.42316 -0.375,0.65625 0,0.23308 0.13513,0.46473 0.375,0.65625 0.23987,0.19152 0.56957,0.3125 0.84375,0.3125 0.54835,0 1,-0.42591 1,-0.96875 0,-0.54285 -0.45165,-0.96875 -1,-0.96875 z"
       id="path12347-9-1"
       inkscape:connector-curvature="0" />
    <g
       style="display:inline"
       id="g3025"
       transform="matrix(1,0,0,0.92923932,31.360484,198.78552)">
      <g
         id="g3022"
         transform="translate(68.520863,216.74959)">
        <path
           style="font-size:medium;font-style:normal;font-variant:normal;font-weight:normal;font-stretch:normal;text-indent:0;text-align:start;text-decoration:none;line-height:normal;letter-spacing:normal;word-spacing:normal;text-transform:none;direction:ltr;block-progression:tb;writing-mode:lr-tb;text-anchor:start;baseline-shift:baseline;color:#000000;fill:#2ad4ff;fill-opacity:1;fill-rule:nonzero;stroke:none;stroke-width:1.43599999;marker:none;visibility:visible;display:inline;overflow:visible;enable-background:accumulate;font-family:Sans;-inkscape-font-specification:Sans"
           d="m 25.931061,10.398712 c -0.732967,0.532343 -0.858431,0.893766 -1.395493,1.423523 L 23.266174,10.52803 c -0.615474,0.152394 -0.934693,0.489603 -0.961212,0.94394 0.428698,0.447821 0.781464,0.970515 1.271591,1.452575 -0.497509,0.635756 -0.820493,0.896633 -1.295303,1.356705 -0.219724,0.54002 0.544107,1.262086 0.90625,0.875 l 1.4375,-1.280227 c 0.593649,0.638197 1.154469,0.888603 1.71875,1.561477 0.249119,-0.242427 0.982833,-0.634868 0.709015,-1.045227 L 25.509659,12.723069 26.65625,11.3125 c 0.286689,-0.353989 -0.382155,-0.921248 -0.725189,-0.913788 z"
           transform="translate(-11.942482,-2.2708023)"
           id="path3123"
           inkscape:connector-curvature="0"
           sodipodi:nodetypes="ccccccccccccc" />
      </g>
    </g>
  </g>
  <g
     transform="translate(-100,-398)"
     inkscape:groupmode="layer"
     id="layer10"
     inkscape:label="devices" />
  <g
     transform="translate(-100,-398)"
     inkscape:groupmode="layer"
     id="layer11"
     inkscape:label="apps" />
  <g
     transform="translate(-100,-398)"
     inkscape:groupmode="layer"
     id="layer12"
     inkscape:label="actions" />
  <g
     transform="translate(-100,-398)"
     inkscape:groupmode="layer"
     id="layer13"
     inkscape:label="places" />
  <g
     transform="translate(-100,-398)"
     inkscape:groupmode="layer"
     id="layer14"
     inkscape:label="mimetypes" />
  <g
     transform="translate(-100,-398)"
     inkscape:groupmode="layer"
     id="layer15"
     inkscape:label="emblems"
     style="display:inline" />
  <g
     transform="translate(-100,-398)"
     inkscape:groupmode="layer"
     id="g4953"
     inkscape:label="categories"
     style="display:inline" />
</svg>
