<?xml version="1.0" encoding="UTF-8" standalone="no"?>
<!-- Created with Inkscape (http://www.inkscape.org/) -->

<svg
   xmlns:dc="http://purl.org/dc/elements/1.1/"
   xmlns:cc="http://creativecommons.org/ns#"
   xmlns:rdf="http://www.w3.org/1999/02/22-rdf-syntax-ns#"
   xmlns:svg="http://www.w3.org/2000/svg"
   xmlns="http://www.w3.org/2000/svg"
   xmlns:sodipodi="http://sodipodi.sourceforge.net/DTD/sodipodi-0.dtd"
   xmlns:inkscape="http://www.inkscape.org/namespaces/inkscape"
   id="svg7384"
   version="1.1"
   inkscape:version="0.48.3.1 r9886"
   height="16"
   sodipodi:docname="microphone-sensitivity-high-symbolic.svg"
   width="16">
  <metadata
     id="metadata90">
    <rdf:RDF>
      <cc:Work
         rdf:about="">
        <dc:format>image/svg+xml</dc:format>
        <dc:type
           rdf:resource="http://purl.org/dc/dcmitype/StillImage" />
        <dc:title>Gnome Symbolic Icon Theme</dc:title>
      </cc:Work>
    </rdf:RDF>
  </metadata>
  <sodipodi:namedview
     inkscape:object-paths="true"
     inkscape:cy="6.590594"
     inkscape:current-layer="layer9"
     inkscape:window-width="1918"
     pagecolor="#ffffff"
     showborder="true"
     showguides="true"
     inkscape:snap-nodes="false"
     objecttolerance="10"
     showgrid="true"
     inkscape:object-nodes="true"
     inkscape:pageshadow="2"
     inkscape:guide-bbox="true"
     inkscape:window-x="0"
     inkscape:snap-bbox="true"
     bordercolor="#666666"
     id="namedview88"
     inkscape:window-maximized="1"
     inkscape:snap-global="true"
     inkscape:window-y="25"
     gridtolerance="10"
     inkscape:zoom="34.630459"
     inkscape:window-height="1007"
     borderopacity="1"
     guidetolerance="10"
     inkscape:snap-bbox-midpoints="false"
     inkscape:cx="-5.4059339"
     inkscape:bbox-paths="false"
     inkscape:snap-grids="true"
     inkscape:pageopacity="0"
     inkscape:snap-to-guides="true">
    <inkscape:grid
       visible="true"
       spacingx="1px"
       type="xygrid"
       spacingy="1px"
       id="grid4866"
       empspacing="2"
       enabled="true"
       snapvisiblegridlinesonly="true" />
  </sodipodi:namedview>
  <title
     id="title9167">Gnome Symbolic Icon Theme</title>
  <defs
     id="defs7386">
    <clipPath
       id="clipPath6810-7-87"
       clipPathUnits="userSpaceOnUse">
      <rect
         x="21"
         y="281"
         id="rect6812-2-4"
         height="11"
         width="14"
         style="color:#bebebe;fill:none;stroke:#ffffff;stroke-width:2;stroke-linecap:round;stroke-linejoin:round;stroke-miterlimit:4;stroke-opacity:1;stroke-dasharray:none;stroke-dashoffset:0;marker:none;visibility:visible;display:inline;overflow:visible" />
    </clipPath>
  </defs>
  <g
     transform="translate(-100,-398)"
     inkscape:groupmode="layer"
     id="layer9"
     inkscape:label="status"
     style="display:inline">
    <path
       style="color:#bebebe;fill:#2ad4ff;fill-opacity:1;fill-rule:nonzero;stroke:none;stroke-width:2;marker:none;visibility:visible;display:inline;overflow:visible"
       d="m 105.48997,400 c 1.0346,0 1.61109,0.92457 1.86751,1.99802 0.33656,1.40891 0.32973,2.73767 0,4.00635 -0.27747,1.06762 -0.64679,2.13761 -1.68139,2.13761 -1.0346,0 -1.88185,-1.04693 -2.05363,-2.13761 -0.19924,-1.26508 -0.28861,-2.6177 0,-4.00635 C 103.84765,400.91451 104.45537,400 105.48997,400 z"
       id="rect12327"
       inkscape:connector-curvature="0"
       sodipodi:nodetypes="sssssss" />
    <path
       inkscape:connector-curvature="0"
       transform="matrix(0.78201557,0,0,0.79920984,83.724597,179.03985)"
       clip-path="url(#clipPath6810-7-87)"
       d="m 27.96875,273.625 c -2.502477,0 -4.53125,2.02877 -4.53125,4.53125 l 0,5.8125 c 0,2.50248 2.056531,4.89495 4.53125,4.53125 2.120317,-0.31162 4.53125,-2.01816 4.53125,-4.53125 l 0,-5.8125 c 0,-2.50248 -2.028773,-4.53125 -4.53125,-4.53125 z m 0,1 c 1.964148,0 3.53125,1.5671 3.53125,3.53125 l 0,5.8125 c 0,1.96415 -1.533206,3.29908 -3.497354,3.29908 -1.869766,0 -3.565146,-1.33493 -3.565146,-3.29908 l 0,-5.8125 c 0,-1.96415 1.567102,-3.53125 3.53125,-3.53125 z"
       id="rect12329"
       style="font-size:medium;font-style:normal;font-variant:normal;font-weight:normal;font-stretch:normal;text-indent:0;text-align:start;text-decoration:none;line-height:normal;letter-spacing:normal;word-spacing:normal;text-transform:none;direction:ltr;block-progression:tb;writing-mode:lr-tb;text-anchor:start;color:#bebebe;fill:#2ad4ff;fill-opacity:1;stroke:none;stroke-width:1.00302994;marker:none;visibility:visible;display:inline;overflow:visible;enable-background:accumulate;font-family:Bitstream Vera Sans;-inkscape-font-specification:Bitstream Vera Sans"
       sodipodi:nodetypes="ssssssssssssss" />
    <path
       sodipodi:cy="361"
       transform="matrix(0.39338066,0,0,0.39960492,93.396333,259.34936)"
       sodipodi:type="arc"
       d="m 24,361 c 0,0.55228 -0.447715,1 -1,1 -0.552285,0 -1,-0.44772 -1,-1 0,-0.55228 0.447715,-1 1,-1 0.552285,0 1,0.44772 1,1 z"
       id="path12331"
       sodipodi:rx="1"
       sodipodi:ry="1"
       style="color:#bebebe;fill:#2ad4ff;fill-opacity:1;stroke:none;stroke-width:2;marker:none;visibility:visible;display:inline;overflow:visible"
       sodipodi:cx="23" />
    <path
       sodipodi:cy="361"
       transform="matrix(0.39338066,0,0,0.39960492,99.690423,259.34936)"
       sodipodi:type="arc"
       d="m 24,361 c 0,0.55228 -0.447715,1 -1,1 -0.552285,0 -1,-0.44772 -1,-1 0,-0.55228 0.447715,-1 1,-1 0.552285,0 1,0.44772 1,1 z"
       id="path12333"
       sodipodi:rx="1"
       sodipodi:ry="1"
       sodipodi:cx="23"
       style="color:#bebebe;fill:#2ad4ff;fill-opacity:1;stroke:none;stroke-width:2;marker:none;visibility:visible;display:inline;overflow:visible" />
    <path
       style="font-size:medium;font-style:normal;font-variant:normal;font-weight:normal;font-stretch:normal;text-indent:0;text-align:start;text-decoration:none;line-height:normal;letter-spacing:normal;word-spacing:normal;text-transform:none;direction:ltr;block-progression:tb;writing-mode:lr-tb;text-anchor:start;color:#bebebe;fill:#2ad4ff;fill-opacity:1;stroke:none;stroke-width:2;marker:none;visibility:visible;display:inline;overflow:visible;enable-background:accumulate;font-family:Bitstream Vera Sans;-inkscape-font-specification:Bitstream Vera Sans"
       d="m 104.41001,408.8125 c 0.13157,0.54009 0.72389,1.08017 0.29158,1.62026 -2.21715,-0.10286 -3.17491,0.40648 -2.69778,1.56725 l 0.65625,0 c 2.24543,-0.0997 4.45924,-0.44945 6.53125,0 l 0,-0.8125 -0.0313,0 c -0.009,-0.41057 -0.37698,-0.77844 -0.78125,-0.78125 l -2.04438,0.053 c -0.14526,-0.60685 0.29327,-1.09925 0.45063,-1.64677 z"
       id="path12335"
       inkscape:connector-curvature="0"
       sodipodi:nodetypes="ccccccccccc" />
    <path
       style="color:#000000;fill:#2ad4ff;fill-opacity:1;stroke:none;stroke-width:1.20912814;marker:none;visibility:visible;display:inline;overflow:visible;enable-background:accumulate"
       d="m -185.71707,184.0625 c 0,1.07005 -1.21288,1.9375 -2.28293,1.9375 -1.07005,0 -1.9375,-0.86745 -1.9375,-1.9375 0,-1.07005 0.86745,-1.9375 1.9375,-1.9375 1.07005,0 2.28293,0.86745 2.28293,1.9375 z"
       id="path12347"
       transform="matrix(0.69062283,0,0,0.68723358,242.0825,274.75804)"
       inkscape:connector-curvature="0"
       sodipodi:nodetypes="sssss" />
    <path
       transform="matrix(0.69062283,0,0,0.68723358,242.0825,279.2541)"
       style="color:#000000;fill:#2ad4ff;fill-opacity:1;stroke:none;stroke-width:1.20912814;marker:none;visibility:visible;display:inline;overflow:visible;enable-background:accumulate"
       d="m -186.0625,184.0625 c 0,1.07005 -0.86745,1.9375 -1.9375,1.9375 -1.07005,0 -2.24455,-1.09888 -2.24455,-2.16893 0,-1.07005 1.1745,-1.70607 2.24455,-1.70607 1.07005,0 1.9375,0.86745 1.9375,1.9375 z"
       id="path12347-2"
       inkscape:connector-curvature="0"
       sodipodi:nodetypes="sssss" />
    <path
       transform="matrix(0.69062283,0,0,0.68723358,242.0825,283.75804)"
       style="color:#000000;fill:#2ad4ff;fill-opacity:1;stroke:none;stroke-width:1.20912814;marker:none;visibility:visible;display:inline;overflow:visible;enable-background:accumulate"
       d="m -185.728,183.72635 c 0.58022,1.28871 -1.00527,2.34777 -2.272,2.27365 -1.06824,-0.0625 -1.9375,-0.86745 -1.9375,-1.9375 0,-1.07005 0.86745,-1.9375 1.9375,-1.9375 1.07005,0 1.83306,0.62645 2.272,1.60135 z"
       id="path12347-7"
       inkscape:connector-curvature="0"
       sodipodi:nodetypes="sssss" />
  </g>
  <g
     transform="translate(-100,-398)"
     inkscape:groupmode="layer"
     id="layer10"
     inkscape:label="devices" />
  <g
     transform="translate(-100,-398)"
     inkscape:groupmode="layer"
     id="layer11"
     inkscape:label="apps" />
  <g
     transform="translate(-100,-398)"
     inkscape:groupmode="layer"
     id="layer12"
     inkscape:label="actions" />
  <g
     transform="translate(-100,-398)"
     inkscape:groupmode="layer"
     id="layer13"
     inkscape:label="places" />
  <g
     transform="translate(-100,-398)"
     inkscape:groupmode="layer"
     id="layer14"
     inkscape:label="mimetypes" />
  <g
     transform="translate(-100,-398)"
     inkscape:groupmode="layer"
     id="layer15"
     inkscape:label="emblems"
     style="display:inline" />
  <g
     transform="translate(-100,-398)"
     inkscape:groupmode="layer"
     id="g4953"
     inkscape:label="categories"
     style="display:inline" />
</svg>
