<?xml version="1.0" encoding="UTF-8" standalone="no"?>
<!-- Created with Inkscape (http://www.inkscape.org/) -->

<svg
   xmlns:dc="http://purl.org/dc/elements/1.1/"
   xmlns:cc="http://creativecommons.org/ns#"
   xmlns:rdf="http://www.w3.org/1999/02/22-rdf-syntax-ns#"
   xmlns:svg="http://www.w3.org/2000/svg"
   xmlns="http://www.w3.org/2000/svg"
   xmlns:sodipodi="http://sodipodi.sourceforge.net/DTD/sodipodi-0.dtd"
   xmlns:inkscape="http://www.inkscape.org/namespaces/inkscape"
   id="svg7384"
   sodipodi:docname="network-receive-symbolic.svg"
   version="1.1"
   inkscape:version="0.48.3.1 r9886"
   height="16"
   width="16">
  <metadata
     id="metadata90">
    <rdf:RDF>
      <cc:Work
         rdf:about="">
        <dc:format>image/svg+xml</dc:format>
        <dc:type
           rdf:resource="http://purl.org/dc/dcmitype/StillImage" />
        <dc:title>Gnome Symbolic Icon Theme</dc:title>
      </cc:Work>
    </rdf:RDF>
  </metadata>
  <sodipodi:namedview
     inkscape:cy="5.8569697"
     pagecolor="#ffffff"
     borderopacity="1"
     showborder="true"
     inkscape:bbox-paths="false"
     guidetolerance="10"
     inkscape:object-paths="true"
     inkscape:window-width="1918"
     showguides="true"
     inkscape:object-nodes="true"
     inkscape:snap-bbox="true"
     inkscape:pageshadow="2"
     inkscape:guide-bbox="true"
     inkscape:snap-nodes="false"
     bordercolor="#666666"
     objecttolerance="10"
     id="namedview88"
     showgrid="true"
     inkscape:window-maximized="1"
     inkscape:window-x="0"
     inkscape:snap-global="true"
     inkscape:window-y="25"
     gridtolerance="10"
     inkscape:window-height="1007"
     inkscape:snap-to-guides="true"
     inkscape:current-layer="layer9"
     inkscape:snap-bbox-midpoints="false"
     inkscape:zoom="38.864993"
     inkscape:cx="1.0461886"
     inkscape:snap-grids="true"
     inkscape:pageopacity="0"
     borderlayer="true">
    <inkscape:grid
       spacingx="1px"
       spacingy="1px"
       id="grid4866"
       empspacing="2"
       enabled="true"
       type="xygrid"
       snapvisiblegridlinesonly="true"
       visible="true" />
  </sodipodi:namedview>
  <title
     id="title9167">Gnome Symbolic Icon Theme</title>
  <defs
     id="defs7386" />
  <g
     inkscape:label="status"
     transform="translate(-281.0002,-177)"
     inkscape:groupmode="layer"
     id="layer9"
     style="display:inline">
    <g
       id="g3777"
       transform="translate(15.390617,-0.02073)">
      <path
         sodipodi:nodetypes="ssssccccsssssccccc"
         inkscape:connector-curvature="0"
         d="m 268.188,181.87913 c -0.85134,-0.0691 -1.67192,0.76992 -1.56978,1.67626 0.16822,1.49289 0.0893,2.90339 0,4.31042 -0.0578,0.91025 0.67585,1.18289 1.52236,1.29689 l 0.84009,-0.0292 -1.54731,1.78664 c 1.12719,-0.129 5.91524,-0.16157 7.36407,0.10059 l -0.89085,-1.47875 0.11214,0 c 0.85415,0 1.69106,-0.77227 1.56979,-1.67625 -0.16993,-1.26688 -0.087,-2.78657 0,-4.31044 0.052,-0.9106 -0.71923,-1.75441 -1.56979,-1.67626 -2.25419,0.20708 -4.09817,0.14069 -5.8307,0 z m 0.22427,1.91574 c 1.83692,0.44439 3.54607,0.22803 5.38218,0 -0.30605,1.27715 -0.39269,2.55431 0,3.83148 -1.86874,-0.15637 -3.60623,-0.11154 -5.38218,0 0.4046,-1.56617 0.19202,-2.69149 0,-3.83148 z"
         id="rect12675-3-8-70-9"
         style="font-size:medium;font-style:normal;font-variant:normal;font-weight:normal;font-stretch:normal;text-indent:0;text-align:start;text-decoration:none;line-height:normal;letter-spacing:normal;word-spacing:normal;text-transform:none;direction:ltr;block-progression:tb;writing-mode:lr-tb;text-anchor:start;baseline-shift:baseline;color:#bebebe;fill:#91e9ff;fill-opacity:1;stroke:none;stroke-width:2;marker:none;visibility:visible;display:inline;overflow:visible;enable-background:accumulate;font-family:Sans;-inkscape-font-specification:Sans" />
      <path
         sodipodi:nodetypes="ssccccccccsss"
         inkscape:connector-curvature="0"
         d="m 273.57001,179.00551 c -0.85022,-0.082 -1.56981,0.76418 -1.56981,1.67627 l 0,0.23947 c 2.42181,-0.11562 4.71896,-0.19967 7.17623,0 0.21215,0.41986 0.42774,2.26293 0,3.83148 -1.11489,0.25871 -1.77605,0.035 -2.69109,0 0.0986,1.00012 0.31849,2.05223 0,2.87362 0.69723,-0.0763 2.17407,-0.0226 3.60741,0.0236 l -1.11245,-1.17128 c 1.31703,0.0309 1.94714,-0.4065 1.99019,-1.48658 -0.19123,-1.43681 -0.12153,-2.87362 0,-4.31042 0.0769,-0.90884 -0.71582,-1.6936 -1.56979,-1.67627 -1.81065,0.0368 -3.81225,0.1946 -5.83069,0 z"
         id="rect12675-3-8-5-2-9"
         style="font-size:medium;font-style:normal;font-variant:normal;font-weight:normal;font-stretch:normal;text-indent:0pt;text-align:start;text-decoration:none;line-height:normal;letter-spacing:normal;word-spacing:normal;text-transform:none;direction:ltr;text-anchor:start;color:#bebebe;fill:#2ad4ff;fill-opacity:1;stroke:none;stroke-width:2;marker:none;visibility:visible;display:inline;overflow:visible;font-family:Andale Mono" />
    </g>
  </g>
  <g
     inkscape:label="devices"
     transform="translate(-281.0002,-177)"
     inkscape:groupmode="layer"
     id="layer10" />
  <g
     inkscape:label="apps"
     transform="translate(-281.0002,-177)"
     inkscape:groupmode="layer"
     id="layer11" />
  <g
     inkscape:label="actions"
     transform="translate(-281.0002,-177)"
     inkscape:groupmode="layer"
     id="layer12" />
  <g
     inkscape:label="places"
     transform="translate(-281.0002,-177)"
     inkscape:groupmode="layer"
     id="layer13" />
  <g
     inkscape:label="mimetypes"
     transform="translate(-281.0002,-177)"
     inkscape:groupmode="layer"
     id="layer14" />
  <g
     inkscape:label="emblems"
     transform="translate(-281.0002,-177)"
     inkscape:groupmode="layer"
     id="layer15"
     style="display:inline" />
  <g
     inkscape:label="categories"
     transform="translate(-281.0002,-177)"
     inkscape:groupmode="layer"
     id="g4953"
     style="display:inline" />
</svg>
