<?xml version="1.0" encoding="UTF-8" standalone="no"?>
<!-- Created with Inkscape (http://www.inkscape.org/) -->

<svg
   xmlns:dc="http://purl.org/dc/elements/1.1/"
   xmlns:cc="http://creativecommons.org/ns#"
   xmlns:rdf="http://www.w3.org/1999/02/22-rdf-syntax-ns#"
   xmlns:svg="http://www.w3.org/2000/svg"
   xmlns="http://www.w3.org/2000/svg"
   xmlns:sodipodi="http://sodipodi.sourceforge.net/DTD/sodipodi-0.dtd"
   xmlns:inkscape="http://www.inkscape.org/namespaces/inkscape"
   id="svg7384"
   sodipodi:docname="network-cellular-4g-symbolic.svg"
   version="1.1"
   inkscape:version="0.48.3.1 r9886"
   height="16"
   width="16">
  <metadata
     id="metadata90">
    <rdf:RDF>
      <cc:Work
         rdf:about="">
        <dc:format>image/svg+xml</dc:format>
        <dc:type
           rdf:resource="http://purl.org/dc/dcmitype/StillImage" />
        <dc:title>Gnome Symbolic Icon Theme</dc:title>
      </cc:Work>
    </rdf:RDF>
  </metadata>
  <sodipodi:namedview
     inkscape:cy="6.2895989"
     pagecolor="#ffffff"
     borderopacity="1"
     showborder="true"
     inkscape:bbox-paths="false"
     guidetolerance="10"
     inkscape:object-paths="true"
     inkscape:window-width="1918"
     showguides="true"
     inkscape:object-nodes="true"
     inkscape:snap-bbox="false"
     inkscape:pageshadow="2"
     inkscape:guide-bbox="true"
     inkscape:snap-nodes="true"
     bordercolor="#666666"
     objecttolerance="10"
     id="namedview88"
     showgrid="true"
     inkscape:window-maximized="1"
     inkscape:window-x="0"
     inkscape:snap-global="true"
     inkscape:window-y="25"
     gridtolerance="10"
     inkscape:window-height="1007"
     inkscape:snap-to-guides="true"
     inkscape:current-layer="layer9"
     inkscape:snap-bbox-midpoints="false"
     inkscape:zoom="51.5625"
     inkscape:cx="11.744026"
     inkscape:snap-grids="true"
     inkscape:pageopacity="0"
     borderlayer="true">
    <inkscape:grid
       spacingx="1px"
       spacingy="1px"
       id="grid4866"
       empspacing="2"
       enabled="true"
       type="xygrid"
       snapvisiblegridlinesonly="true"
       visible="true" />
  </sodipodi:namedview>
  <title
     id="title9167">Gnome Symbolic Icon Theme</title>
  <defs
     id="defs7386" />
  <g
     inkscape:label="status"
     transform="translate(-101.0002,-237)"
     inkscape:groupmode="layer"
     id="layer9"
     style="display:inline">
    <path
       inkscape:connector-curvature="0"
       d="m 104.5471,239.00914 c -0.85619,-0.10862 -1.59944,0.68543 -1.54688,1.54687 0.18113,2.96875 0.32687,5.9375 0,8.90625 -0.0944,0.85787 0.68641,1.61359 1.54688,1.54688 2.96875,-0.23017 5.9375,-0.28574 8.90625,0 0.85907,0.0827 1.65386,-0.69049 1.54687,-1.54688 -0.3605,-2.88556 -0.31107,-5.86572 0,-8.90625 0.0878,-0.85856 -0.68698,-1.62049 -1.54687,-1.54687 -3.12482,0.26754 -6.14207,0.35069 -8.90625,0 z m -0.0469,2.25 c 0.5,0.21144 1,0.14819 1.5,0 -0.0593,1.01185 -0.18503,2.03701 0,3 l 0.75,0 L 106.73081,243 c 0.47164,0.19854 0.74614,0.40036 1.26939,0.23762 -0.28253,1.78139 0.0723,3.79127 0.25,5.52152 -0.52967,-0.089 -1.02178,-0.0653 -1.5,0 0.22947,-1.22947 0.0589,-2.05891 0,-3 l -0.75,0 c -0.75,0 -1.5,-0.63125 -1.5,-1.5 z m 8.60159,0.39836 c 0.31106,0.28584 0.44508,0.75563 0.42188,1.19532 l 0.0234,0 0,0.0937 0,0.5625 c -0.52089,-0.18805 -1.03044,-0.27397 -1.5,0 l 0,-0.65625 0,-0.0469 0,-0.0234 c -0.0132,-0.002 0.002,-0.002 -0.0234,0 l -0.0234,0 -0.0234,0 c -0.49976,-0.18556 -0.98154,-0.22729 -1.42969,0 -0.0185,0.009 -0.0166,0.001 -0.0234,0 -0.005,0.003 -0.0219,-0.002 -0.0234,0 -0.005,0.0168 0.005,0.0349 0,0.0469 l 0,0.0234 c 0.32384,1.42074 0.18504,2.88774 0,4.35937 -0.0178,-0.0163 0,0.0469 0,0.0469 0.58179,0.29869 1.04906,0.21561 1.47656,0 0.005,-0.0145 0.022,-0.012 0.0234,0 6.6e-4,0.006 0,-0.0416 0,-0.0234 0.12403,-0.50504 0.18377,-0.99938 0,-1.45312 -0.28045,-0.15226 -0.52088,-0.10441 -0.75,0 l 0,-1.5 c 0.98593,0.18275 1.3808,0.12727 2.25,0 l 0,0.75 0,2.20312 c -0.0777,1.51759 -0.50014,1.76436 -2.99998,1.5234 -0.4686,0 -0.7456,-0.18093 -1.00781,-0.42188 -0.24829,-0.22816 -0.48294,-0.5924 -0.46875,-1.07812 4e-5,-0.002 -0.0236,0.001 -0.0234,0 l 0,-0.0703 c -0.13313,-1.35328 -0.0693,-2.85428 0,-4.35938 l 0,-0.0703 0,-0.0469 c -0.24952,-2.20523 2.57572,-2.17196 4.10139,-1.05466 z"
       id="path1245"
       sodipodi:nodetypes="ssssssssscccccccccsscccccccccccccsccccccccccccccccsccccccc"
       style="color:#bebebe;fill:#2ad4ff;fill-opacity:1;stroke:none;stroke-width:2;marker:none;visibility:visible;display:inline;overflow:visible" />
  </g>
  <g
     inkscape:label="devices"
     transform="translate(-101.0002,-237)"
     inkscape:groupmode="layer"
     id="layer10" />
  <g
     inkscape:label="apps"
     transform="translate(-101.0002,-237)"
     inkscape:groupmode="layer"
     id="layer11" />
  <g
     inkscape:label="actions"
     transform="translate(-101.0002,-237)"
     inkscape:groupmode="layer"
     id="layer12" />
  <g
     inkscape:label="places"
     transform="translate(-101.0002,-237)"
     inkscape:groupmode="layer"
     id="layer13" />
  <g
     inkscape:label="mimetypes"
     transform="translate(-101.0002,-237)"
     inkscape:groupmode="layer"
     id="layer14" />
  <g
     inkscape:label="emblems"
     transform="translate(-101.0002,-237)"
     inkscape:groupmode="layer"
     id="layer15"
     style="display:inline" />
  <g
     inkscape:label="categories"
     transform="translate(-101.0002,-237)"
     inkscape:groupmode="layer"
     id="g4953"
     style="display:inline" />
</svg>
