<?xml version="1.0" encoding="UTF-8" standalone="no"?>
<!-- Created with Inkscape (http://www.inkscape.org/) -->

<svg
   xmlns:dc="http://purl.org/dc/elements/1.1/"
   xmlns:cc="http://creativecommons.org/ns#"
   xmlns:rdf="http://www.w3.org/1999/02/22-rdf-syntax-ns#"
   xmlns:svg="http://www.w3.org/2000/svg"
   xmlns="http://www.w3.org/2000/svg"
   xmlns:sodipodi="http://sodipodi.sourceforge.net/DTD/sodipodi-0.dtd"
   xmlns:inkscape="http://www.inkscape.org/namespaces/inkscape"
   width="256"
   height="256"
   id="svg2"
   version="1.1"
   inkscape:version="0.48.3.1 r9886"
   sodipodi:docname="desktop.svg">
  <defs
     id="defs4" />
  <sodipodi:namedview
     id="base"
     pagecolor="#ffffff"
     bordercolor="#666666"
     borderopacity="1.0"
     inkscape:pageopacity="0.0"
     inkscape:pageshadow="2"
     inkscape:zoom="0.98994949"
     inkscape:cx="218.04177"
     inkscape:cy="68.945815"
     inkscape:document-units="px"
     inkscape:current-layer="layer1"
     showgrid="false"
     showguides="true"
     inkscape:guide-bbox="true"
     inkscape:window-width="1434"
     inkscape:window-height="850"
     inkscape:window-x="0"
     inkscape:window-y="26"
     inkscape:window-maximized="1" />
  <metadata
     id="metadata7">
    <rdf:RDF>
      <cc:Work
         rdf:about="">
        <dc:format>image/svg+xml</dc:format>
        <dc:type
           rdf:resource="http://purl.org/dc/dcmitype/StillImage" />
        <dc:title></dc:title>
      </cc:Work>
    </rdf:RDF>
  </metadata>
  <g
     inkscape:label="Layer 1"
     inkscape:groupmode="layer"
     id="layer1"
     transform="translate(0,-796.3622)">
    <path
       style="fill:#808080;fill-opacity:1;stroke:none"
       d="m 13.647113,817.80416 c -3.231195,0 -5.9619177,2.73072 -5.9619177,5.96191 l 0,52.0313 57.9932007,-57.99321 -52.031283,0 z m 177.231567,0 56.90922,56.90922 0,-50.94731 c 0,-3.23119 -2.73073,-5.96191 -5.96191,-5.96191 l -50.94731,0 z M 7.6851953,961.9741 l 0,55.2835 c 0,3.2311 2.7307227,5.9618 5.9619177,5.9618 l 55.283238,0 -61.2451557,-61.2453 z m 240.1027047,1.08415 -60.16117,60.16115 54.19926,0 c 3.23118,0 5.96191,-2.7307 5.96191,-5.9618 l 0,-54.19935 z"
       id="rect4430"
       inkscape:connector-curvature="0" />
    <path
       style="fill:#808080;stroke:#808080;stroke-width:1px;stroke-linecap:butt;stroke-linejoin:miter;stroke-opacity:1"
       d="m 84.285715,119.57143 -8.571429,52.85714 c 0,0 10,36.42857 44.285714,35.71429 34.28571,-0.71429 50,-29.28572 50,-29.28572 l -16.42857,-62.14285 z"
       id="path2984"
       inkscape:connector-curvature="0"
       transform="translate(0,796.3622)"
       sodipodi:nodetypes="ccsccc" />
    <path
       style="fill:#808080;stroke:#808080;stroke-width:1px;stroke-linecap:butt;stroke-linejoin:miter;stroke-opacity:1"
       d="m 90.714286,96 -4.285715,15.71429 67.142849,-3.57143 -5.71428,-12.857146 z"
       id="path2986"
       inkscape:connector-curvature="0"
       transform="translate(0,796.3622)"
       sodipodi:nodetypes="ccccc" />
    <path
       style="fill:#808080;stroke:#808080;stroke-width:1px;stroke-linecap:butt;stroke-linejoin:miter;stroke-opacity:1"
       d="M 145.71428,830.21934 C 145,833.07649 117.85714,883.79077 117.85714,883.79077 L 130,883.07649 154.28571,833.79077 z"
       id="path2988"
       inkscape:connector-curvature="0" />
    <path
       style="fill:#808080;stroke:none"
       d="m 9.2857143,88.857143 0,65.714287 8.4847707,8.48477 0.08666,-82.770486 z"
       id="path3777"
       inkscape:connector-curvature="0"
       transform="translate(0,796.3622)"
       sodipodi:nodetypes="ccccc" />
    <path
       style="fill:#808080;stroke:none"
       d="m 247.22744,885.1981 0,65.71429 -8.48477,8.48477 -0.0867,-82.77049 z"
       id="path3777-4"
       inkscape:connector-curvature="0"
       sodipodi:nodetypes="ccccc" />
    <path
       style="fill:#808080;stroke:none"
       d="m 79.280281,1022.3133 100.564549,0 8.48477,-8.4847 -117.620749,-0.087 z"
       id="path3777-40"
       inkscape:connector-curvature="0"
       sodipodi:nodetypes="ccccc" />
    <path
       style="fill:#808080;stroke:none"
       d="m 75.810398,817.24603 105.615322,0 8.48477,8.4847 -122.671522,0.087 z"
       id="path3777-4-6"
       inkscape:connector-curvature="0"
       sodipodi:nodetypes="ccccc" />
  </g>
</svg>
