<?xml version="1.0" encoding="UTF-8" standalone="no"?>
<!-- Creator: CorelDRAW -->

<svg
   xmlns:dc="http://purl.org/dc/elements/1.1/"
   xmlns:cc="http://creativecommons.org/ns#"
   xmlns:rdf="http://www.w3.org/1999/02/22-rdf-syntax-ns#"
   xmlns:svg="http://www.w3.org/2000/svg"
   xmlns="http://www.w3.org/2000/svg"
   xmlns:xlink="http://www.w3.org/1999/xlink"
   xmlns:sodipodi="http://sodipodi.sourceforge.net/DTD/sodipodi-0.dtd"
   xmlns:inkscape="http://www.inkscape.org/namespaces/inkscape"
   xml:space="preserve"
   width="256"
   height="256"
   style="fill-rule:evenodd"
   viewBox="0 0 256 256"
   id="svg2"
   version="1.1"
   inkscape:version="0.48.3.1 r9886"
   sodipodi:docname="gnome-tweak-tool.svg"><metadata
   id="metadata18"><rdf:RDF><cc:Work
       rdf:about=""><dc:format>image/svg+xml</dc:format><dc:type
         rdf:resource="http://purl.org/dc/dcmitype/StillImage" /><dc:title></dc:title></cc:Work></rdf:RDF></metadata><sodipodi:namedview
   pagecolor="#53978c"
   bordercolor="#666666"
   borderopacity="1"
   objecttolerance="10"
   gridtolerance="10"
   guidetolerance="10"
   inkscape:pageopacity="0"
   inkscape:pageshadow="2"
   inkscape:window-width="1914"
   inkscape:window-height="1030"
   id="namedview16"
   showgrid="false"
   inkscape:zoom="0.82722831"
   inkscape:cx="-123.26218"
   inkscape:cy="120.75622"
   inkscape:window-x="0"
   inkscape:window-y="26"
   inkscape:window-maximized="1"
   inkscape:current-layer="svg2"
   borderlayer="false"
   showborder="true"
   inkscape:showpageshadow="true"
   inkscape:snap-global="false" />
 <defs
   id="defs4"><linearGradient
     id="linearGradient4515"><stop
       style="stop-color:#955e2e;stop-opacity:1"
       offset="0"
       id="stop4517" /><stop
       style="stop-color:#c05e00;stop-opacity:1;"
       offset="1"
       id="stop4519" /></linearGradient><linearGradient
     id="linearGradient4465"><stop
       id="stop4467"
       offset="0"
       style="stop-color:#bd3333;stop-opacity:1;" /><stop
       id="stop4469"
       offset="1"
       style="stop-color:#e36751;stop-opacity:1;" /></linearGradient><linearGradient
     id="linearGradient4457"><stop
       id="stop4459"
       offset="0"
       style="stop-color:#b73939;stop-opacity:1;" /><stop
       id="stop4461"
       offset="1"
       style="stop-color:#ff524b;stop-opacity:1;" /></linearGradient><linearGradient
     id="linearGradient4290"><stop
       style="stop-color:#e2e2e2;stop-opacity:0.2264151;"
       offset="0"
       id="stop4292" /><stop
       style="stop-color:#535353;stop-opacity:0.6981132;"
       offset="1"
       id="stop4294" /></linearGradient><inkscape:path-effect
     effect="skeletal"
     id="path-effect4184"
     is_visible="true"
     pattern="M 0,5 C 0,2.24 2.24,0 5,0 7.76,0 10,2.24 10,5 10,7.76 7.76,10 5,10 2.24,10 0,7.76 0,5 z"
     copytype="single_stretched"
     prop_scale="1"
     scale_y_rel="false"
     spacing="0"
     normal_offset="0"
     tang_offset="0"
     prop_units="false"
     vertical_pattern="false"
     fuse_tolerance="0" /><inkscape:path-effect
     effect="skeletal"
     id="path-effect4172"
     is_visible="true"
     pattern="M 0,5 C 0,2.24 2.24,0 5,0 7.76,0 10,2.24 10,5 10,7.76 7.76,10 5,10 2.24,10 0,7.76 0,5 z"
     copytype="single_stretched"
     prop_scale="1"
     scale_y_rel="false"
     spacing="0"
     normal_offset="0"
     tang_offset="0"
     prop_units="false"
     vertical_pattern="false"
     fuse_tolerance="0" /><linearGradient
     id="linearGradient3837"><stop
       id="stop3839"
       offset="0"
       style="stop-color:#535353;stop-opacity:1;" /><stop
       id="stop3841"
       offset="1"
       style="stop-color:#e4e4e4;stop-opacity:1;" /></linearGradient><linearGradient
     id="linearGradient3773"><stop
       style="stop-color:#6d6d6d;stop-opacity:1;"
       offset="0"
       id="stop3775" /><stop
       style="stop-color:#e4e4e4;stop-opacity:1;"
       offset="1"
       id="stop3777" /></linearGradient><style
     type="text/css"
     id="style6">
   
    .str0 {stroke:#1F1A17;stroke-width:2.83465}
    .fil0 {fill:#0093DD}
    .fil1 {fill:#1F1A17}
    .fil2 {fill:#3A2E2A}
   
  </style><linearGradient
     inkscape:collect="always"
     xlink:href="#linearGradient3773-4"
     id="linearGradient3789-4"
     x1="75.519829"
     y1="32.724087"
     x2="108.07899"
     y2="32.724087"
     gradientUnits="userSpaceOnUse"
     gradientTransform="matrix(0.91315838,0,0,0.89303494,36.2502,-131.54369)" /><linearGradient
     id="linearGradient3773-4"><stop
       style="stop-color:#5d5d5d;stop-opacity:1;"
       offset="0"
       id="stop3775-1" /><stop
       style="stop-color:#f4f4f4;stop-opacity:1;"
       offset="1"
       id="stop3777-6" /></linearGradient><linearGradient
     inkscape:collect="always"
     xlink:href="#linearGradient3854-0"
     id="linearGradient3860-3"
     x1="407.06027"
     y1="89.782288"
     x2="416.77515"
     y2="89.782288"
     gradientUnits="userSpaceOnUse"
     gradientTransform="matrix(1,0,0,1.2357023,-27.100831,60.151907)" /><linearGradient
     inkscape:collect="always"
     id="linearGradient3854-0"><stop
       style="stop-color:#000000;stop-opacity:1;"
       offset="0"
       id="stop3856-5" /><stop
       style="stop-color:#000000;stop-opacity:0;"
       offset="1"
       id="stop3858-7" /></linearGradient><linearGradient
     inkscape:collect="always"
     xlink:href="#linearGradient3854-4"
     id="linearGradient3860-9"
     x1="407.06027"
     y1="89.782288"
     x2="416.77515"
     y2="89.782288"
     gradientUnits="userSpaceOnUse"
     gradientTransform="matrix(1,0,0,1.2357023,-27.100831,60.151907)" /><linearGradient
     inkscape:collect="always"
     id="linearGradient3854-4"><stop
       style="stop-color:#000000;stop-opacity:1;"
       offset="0"
       id="stop3856-6" /><stop
       style="stop-color:#000000;stop-opacity:0;"
       offset="1"
       id="stop3858-9" /></linearGradient><linearGradient
     y2="80.648178"
     x2="411.95734"
     y1="104.20689"
     x1="411.80405"
     gradientTransform="matrix(1,0,0,1.2357023,-10.234439,63.46599)"
     gradientUnits="userSpaceOnUse"
     id="linearGradient3877-6-9"
     xlink:href="#linearGradient3854-4-4"
     inkscape:collect="always" /><linearGradient
     inkscape:collect="always"
     id="linearGradient3854-4-4"><stop
       style="stop-color:#000000;stop-opacity:1;"
       offset="0"
       id="stop3856-6-8" /><stop
       style="stop-color:#000000;stop-opacity:0;"
       offset="1"
       id="stop3858-9-0" /></linearGradient><linearGradient
     y2="84.139336"
     x2="411.69891"
     y1="98.578033"
     x1="411.96664"
     gradientTransform="matrix(1,0,0,1.2357023,-19.774964,62.100563)"
     gradientUnits="userSpaceOnUse"
     id="linearGradient3928-8"
     xlink:href="#linearGradient3773-4-3"
     inkscape:collect="always" /><linearGradient
     id="linearGradient3773-4-3"><stop
       style="stop-color:#5d5d5d;stop-opacity:1;"
       offset="0"
       id="stop3775-1-2" /><stop
       style="stop-color:#cdcdcd;stop-opacity:1;"
       offset="1"
       id="stop3777-6-2" /></linearGradient><linearGradient
     y2="84.139336"
     x2="411.69891"
     y1="98.578033"
     x1="411.96664"
     gradientTransform="matrix(1,0,0,1.2357023,-19.774964,62.100563)"
     gradientUnits="userSpaceOnUse"
     id="linearGradient3928-9"
     xlink:href="#linearGradient3773-4-6"
     inkscape:collect="always" /><linearGradient
     id="linearGradient3773-4-6"><stop
       style="stop-color:#5d5d5d;stop-opacity:1;"
       offset="0"
       id="stop3775-1-8" /><stop
       style="stop-color:#cdcdcd;stop-opacity:1;"
       offset="1"
       id="stop3777-6-6" /></linearGradient><linearGradient
     y2="84.139336"
     x2="411.69891"
     y1="98.578033"
     x1="411.96664"
     gradientTransform="matrix(1,0,0,1.2357023,-19.774964,62.100563)"
     gradientUnits="userSpaceOnUse"
     id="linearGradient3928-85"
     xlink:href="#linearGradient3773-4-69"
     inkscape:collect="always" /><linearGradient
     id="linearGradient3773-4-69"><stop
       style="stop-color:#5d5d5d;stop-opacity:1;"
       offset="0"
       id="stop3775-1-88" /><stop
       style="stop-color:#cdcdcd;stop-opacity:1;"
       offset="1"
       id="stop3777-6-65" /></linearGradient><linearGradient
     y2="84.139336"
     x2="411.69891"
     y1="98.578033"
     x1="411.96664"
     gradientTransform="matrix(1,0,0,1.2357023,-19.356845,62.189123)"
     gradientUnits="userSpaceOnUse"
     id="linearGradient3928-0"
     xlink:href="#linearGradient3773-4-1"
     inkscape:collect="always" /><linearGradient
     id="linearGradient3773-4-1"><stop
       style="stop-color:#787878;stop-opacity:1;"
       offset="0"
       id="stop3775-1-23" /><stop
       style="stop-color:#e7e7e7;stop-opacity:1;"
       offset="1"
       id="stop3777-6-5" /></linearGradient><linearGradient
     y2="84.139336"
     x2="411.69891"
     y1="98.578033"
     x1="411.96664"
     gradientTransform="matrix(1,0,0,1.2357023,-10.620619,64.257932)"
     gradientUnits="userSpaceOnUse"
     id="linearGradient4054-2"
     xlink:href="#linearGradient3773-4-1-3"
     inkscape:collect="always" /><linearGradient
     id="linearGradient3773-4-1-3"><stop
       style="stop-color:#787878;stop-opacity:1;"
       offset="0"
       id="stop3775-1-23-7" /><stop
       style="stop-color:#e7e7e7;stop-opacity:1;"
       offset="1"
       id="stop3777-6-5-8" /></linearGradient><linearGradient
     y2="84.139336"
     x2="411.69891"
     y1="98.578033"
     x1="411.96664"
     gradientTransform="matrix(1,0,0,1.2357023,-10.620619,64.257932)"
     gradientUnits="userSpaceOnUse"
     id="linearGradient4054-27"
     xlink:href="#linearGradient3773-4-1-9"
     inkscape:collect="always" /><linearGradient
     id="linearGradient3773-4-1-9"><stop
       style="stop-color:#787878;stop-opacity:1;"
       offset="0"
       id="stop3775-1-23-0" /><stop
       style="stop-color:#e7e7e7;stop-opacity:1;"
       offset="1"
       id="stop3777-6-5-80" /></linearGradient><linearGradient
     id="linearGradient3773-4-1-3-4"><stop
       style="stop-color:#787878;stop-opacity:1;"
       offset="0"
       id="stop3775-1-23-7-7" /><stop
       style="stop-color:#e7e7e7;stop-opacity:1;"
       offset="1"
       id="stop3777-6-5-8-1" /></linearGradient><linearGradient
     inkscape:collect="always"
     xlink:href="#linearGradient3773-4-69"
     id="linearGradient4236"
     gradientUnits="userSpaceOnUse"
     x1="431.88281"
     y1="91.025459"
     x2="431.66913"
     y2="82.691261" /><linearGradient
     inkscape:collect="always"
     xlink:href="#linearGradient3773-4-1"
     id="linearGradient4238"
     gradientUnits="userSpaceOnUse"
     gradientTransform="matrix(1,0,0,1.2357023,-10.620619,64.257932)"
     x1="411.96664"
     y1="98.578033"
     x2="411.69891"
     y2="84.139336" /><linearGradient
     inkscape:collect="always"
     xlink:href="#linearGradient3773-4-1-3"
     id="linearGradient4240"
     gradientUnits="userSpaceOnUse"
     gradientTransform="matrix(1,0,0,1.2357023,-20.028314,62.265323)"
     x1="411.96664"
     y1="98.578033"
     x2="411.69891"
     y2="84.139336" /><linearGradient
     inkscape:collect="always"
     xlink:href="#linearGradient3773-4-1-9"
     id="linearGradient4242"
     gradientUnits="userSpaceOnUse"
     gradientTransform="matrix(1,0,0,1.2357023,8.5083348,68.309553)"
     x1="411.96664"
     y1="98.578033"
     x2="411.69891"
     y2="84.139336" /><linearGradient
     inkscape:collect="always"
     xlink:href="#linearGradient3773-4-1-3-4"
     id="linearGradient4244"
     gradientUnits="userSpaceOnUse"
     gradientTransform="matrix(1,0,0,1.2357023,-0.89936521,66.316944)"
     x1="411.96664"
     y1="98.578033"
     x2="411.69891"
     y2="84.139336" /><linearGradient
     inkscape:collect="always"
     xlink:href="#linearGradient3773-4-69"
     id="linearGradient4258"
     gradientUnits="userSpaceOnUse"
     x1="159.63338"
     y1="50.542316"
     x2="177.21373"
     y2="50.542316" /><linearGradient
     inkscape:collect="always"
     xlink:href="#linearGradient3773-4-1-3-4"
     id="linearGradient4260"
     gradientUnits="userSpaceOnUse"
     x1="158.069"
     y1="41.579147"
     x2="177.1619"
     y2="41.579147" /><linearGradient
     inkscape:collect="always"
     xlink:href="#linearGradient3773-4-1-3-4"
     id="linearGradient4266"
     gradientUnits="userSpaceOnUse"
     x1="157.39101"
     y1="55.017418"
     x2="171.06219"
     y2="47.751701"
     gradientTransform="matrix(0.98308072,0.18317288,-0.18317288,0.98308072,52.533027,-15.743347)" /><linearGradient
     inkscape:collect="always"
     xlink:href="#linearGradient3773-4-1-3-4"
     id="linearGradient4269"
     gradientUnits="userSpaceOnUse"
     x1="135.40227"
     y1="78.923141"
     x2="126.18782"
     y2="14.652905"
     gradientTransform="matrix(0.98308072,0.18317288,-0.18317288,0.98308072,52.533027,-15.743347)" /><linearGradient
     inkscape:collect="always"
     xlink:href="#linearGradient3773"
     id="linearGradient4272"
     gradientUnits="userSpaceOnUse"
     gradientTransform="matrix(0.91315838,0,0,0.89303494,36.468932,-186.87111)"
     x1="75.519829"
     y1="32.724087"
     x2="108.07899"
     y2="32.724087" /><linearGradient
     inkscape:collect="always"
     xlink:href="#linearGradient3837"
     id="linearGradient4275"
     gradientUnits="userSpaceOnUse"
     gradientTransform="matrix(0.73349306,0.67969694,-0.67969694,0.73349306,51.144689,-12.958774)"
     x1="122.17973"
     y1="42.555973"
     x2="177.29207"
     y2="39.966572" /><linearGradient
     inkscape:collect="always"
     xlink:href="#linearGradient3773-4"
     id="linearGradient4277"
     gradientUnits="userSpaceOnUse"
     gradientTransform="matrix(0.73349306,0.67969694,-0.67969694,0.73349306,51.144689,-12.958774)"
     x1="122.17973"
     y1="42.555973"
     x2="177.29207"
     y2="39.966572" /><linearGradient
     inkscape:collect="always"
     xlink:href="#linearGradient3773"
     id="linearGradient4280"
     gradientUnits="userSpaceOnUse"
     x1="120.1478"
     y1="156.38237"
     x2="42.053875"
     y2="89.939484"
     gradientTransform="matrix(0.98308072,0.18317288,-0.18317288,0.98308072,52.533027,-15.743347)" /><radialGradient
     inkscape:collect="always"
     xlink:href="#linearGradient4290"
     id="radialGradient4296"
     cx="162.04099"
     cy="111.89715"
     fx="162.04099"
     fy="111.89715"
     r="11.484133"
     gradientTransform="matrix(0.72619266,-0.0790329,0.20144295,1.8509561,21.419692,-82.306755)"
     gradientUnits="userSpaceOnUse"
     spreadMethod="pad" /><linearGradient
     inkscape:collect="always"
     xlink:href="#linearGradient4457-0"
     id="linearGradient4463-1"
     gradientUnits="userSpaceOnUse"
     x1="408.52737"
     y1="119.23328"
     x2="406.85861"
     y2="51.277447" /><linearGradient
     id="linearGradient4457-0"><stop
       id="stop4459-7"
       offset="0"
       style="stop-color:#b73939;stop-opacity:1;" /><stop
       id="stop4461-0"
       offset="1"
       style="stop-color:#ff524b;stop-opacity:1;" /></linearGradient><linearGradient
     inkscape:collect="always"
     xlink:href="#linearGradient3773-4-1-3-7"
     id="linearGradient4563-9"
     gradientUnits="userSpaceOnUse"
     gradientTransform="matrix(-0.99992531,-0.01222163,-0.01222163,0.99992531,760.17089,-16.076903)"
     x1="410.51306"
     y1="189.11266"
     x2="399.82819"
     y2="188.68526" /><linearGradient
     id="linearGradient3773-4-1-3-7"><stop
       style="stop-color:#787878;stop-opacity:1;"
       offset="0"
       id="stop3775-1-23-7-2" /><stop
       style="stop-color:#e7e7e7;stop-opacity:1;"
       offset="1"
       id="stop3777-6-5-8-3" /></linearGradient><linearGradient
     inkscape:collect="always"
     xlink:href="#linearGradient3773-4-1-3-1"
     id="linearGradient4607-1"
     x1="344.9079"
     y1="167.63605"
     x2="356.66132"
     y2="166.99496"
     gradientUnits="userSpaceOnUse"
     gradientTransform="matrix(0.7368421,0,0,1,-611.1976,-0.42739518)" /><linearGradient
     id="linearGradient3773-4-1-3-1"><stop
       style="stop-color:#787878;stop-opacity:1;"
       offset="0"
       id="stop3775-1-23-7-4" /><stop
       style="stop-color:#e7e7e7;stop-opacity:1;"
       offset="1"
       id="stop3777-6-5-8-8" /></linearGradient><filter
     inkscape:collect="always"
     id="filter4689"
     x="-0.84297409"
     width="2.6859482"
     y="-0.12530713"
     height="1.2506143"><feGaussianBlur
       inkscape:collect="always"
       stdDeviation="4.6707977"
       id="feGaussianBlur4691" /></filter><linearGradient
     inkscape:collect="always"
     xlink:href="#linearGradient3773-4-1-3-4"
     id="linearGradient4725"
     gradientUnits="userSpaceOnUse"
     gradientTransform="matrix(0.99992531,-0.01222163,0.01222163,0.99992531,-54.181683,-9.4606398)"
     x1="405.11789"
     y1="243.00481"
     x2="402.54907"
     y2="231.52066" /><linearGradient
     inkscape:collect="always"
     xlink:href="#linearGradient3773-4-1-3-7"
     id="linearGradient4728"
     gradientUnits="userSpaceOnUse"
     gradientTransform="matrix(-0.99992531,-0.01222163,-0.01222163,0.99992531,760.03229,-16.516292)"
     x1="395.64175"
     y1="269.28717"
     x2="411.00089"
     y2="236.26622" /><linearGradient
     inkscape:collect="always"
     xlink:href="#linearGradient4465"
     id="linearGradient4731"
     gradientUnits="userSpaceOnUse"
     gradientTransform="translate(-761.08969,-18.33637)"
     x1="399.18631"
     y1="84.187141"
     x2="409.01797"
     y2="84.187141" /><linearGradient
     inkscape:collect="always"
     xlink:href="#linearGradient4515"
     id="linearGradient4734"
     gradientUnits="userSpaceOnUse"
     gradientTransform="matrix(-0.99992531,-0.01222163,-0.01222163,0.99992531,759.61458,-8.7767186)"
     x1="422.20401"
     y1="95.299149"
     x2="386.98474"
     y2="89.101921" /><linearGradient
     inkscape:collect="always"
     xlink:href="#linearGradient4465"
     id="linearGradient4737"
     gradientUnits="userSpaceOnUse"
     gradientTransform="translate(-759.27654,-18.314209)"
     x1="387.75427"
     y1="83.973442"
     x2="394.37891"
     y2="83.973442" /><linearGradient
     inkscape:collect="always"
     xlink:href="#linearGradient4465"
     id="linearGradient4740"
     gradientUnits="userSpaceOnUse"
     gradientTransform="translate(-759.27654,-18.314209)"
     x1="413.07742"
     y1="83.759743"
     x2="419.70206"
     y2="83.759743" /><linearGradient
     inkscape:collect="always"
     xlink:href="#linearGradient4457"
     id="linearGradient4744"
     gradientUnits="userSpaceOnUse"
     gradientTransform="matrix(-0.99992531,-0.01222163,-0.01222163,0.99992531,759.44366,-9.0332446)"
     x1="408.52737"
     y1="119.23328"
     x2="406.85861"
     y2="51.277447" /><linearGradient
     inkscape:collect="always"
     xlink:href="#linearGradient3773-4-1-3"
     id="linearGradient4748"
     gradientUnits="userSpaceOnUse"
     gradientTransform="matrix(0.7368421,0,0,1,-610.89538,0.32813989)"
     x1="344.9079"
     y1="167.63605"
     x2="356.66132"
     y2="166.99496" /><linearGradient
     inkscape:collect="always"
     xlink:href="#linearGradient3773-4-1-3"
     id="linearGradient4751"
     gradientUnits="userSpaceOnUse"
     gradientTransform="matrix(-0.99992531,-0.01222163,-0.01222163,0.99992531,760.17089,-16.076903)"
     x1="410.51306"
     y1="189.11266"
     x2="399.82819"
     y2="188.68526" /><linearGradient
     inkscape:collect="always"
     xlink:href="#linearGradient4515-3"
     id="linearGradient4734-0"
     gradientUnits="userSpaceOnUse"
     gradientTransform="matrix(-0.99992531,-0.01222163,-0.01222163,0.99992531,759.61458,-8.7767186)"
     x1="422.20401"
     y1="95.299149"
     x2="386.98474"
     y2="89.101921" /><linearGradient
     id="linearGradient4515-3"><stop
       style="stop-color:#955e2e;stop-opacity:1"
       offset="0"
       id="stop4517-8" /><stop
       style="stop-color:#c05e00;stop-opacity:1;"
       offset="1"
       id="stop4519-1" /></linearGradient><linearGradient
     inkscape:collect="always"
     xlink:href="#linearGradient3773-4-1-3-47"
     id="linearGradient4751-2"
     gradientUnits="userSpaceOnUse"
     gradientTransform="matrix(-0.99992531,-0.01222163,-0.01222163,0.99992531,760.17089,-16.076903)"
     x1="410.51306"
     y1="189.11266"
     x2="399.82819"
     y2="188.68526" /><linearGradient
     id="linearGradient3773-4-1-3-47"><stop
       style="stop-color:#787878;stop-opacity:1;"
       offset="0"
       id="stop3775-1-23-7-41" /><stop
       style="stop-color:#e7e7e7;stop-opacity:1;"
       offset="1"
       id="stop3777-6-5-8-7" /></linearGradient></defs>
 
<g
   id="g4836"><g
     style="opacity:0.4;fill:#917c6f;fill-rule:evenodd"
     transform="matrix(48.729226,7.7723647,-7.7723647,48.729226,27.283602,2.0791955)"
     id="g2994"><path
       id="_121731384"
       class="fil0"
       d="M 0.67062907,3.1466295 0.96315753,3.436604 C 1.4643536,2.1285285 2.9137173,3.0231678 2.3709066,3.891 L 2.767349,4.0396257 C 3.5316128,2.8534265 1.7399119,1.2088624 0.67062907,3.1466295 z"
       inkscape:connector-curvature="0"
       style="fill:#917c6f;fill-opacity:1"
       sodipodi:nodetypes="ccccc" /><path
       id="_121328256"
       class="fil0"
       d="M 0.1777958,2.5586559 C -0.01275712,2.3374532 0.11748395,2.4022267 0.31580842,2.5444209 0.51413288,2.686615 0.81410198,2.8425452 1.1021572,3.1460838 L 0.96046525,3.4267024 C 0.50016423,3.0157207 0.36834871,2.7798588 0.1777958,2.5586559 z"
       inkscape:connector-curvature="0"
       style="fill:#917c6f;fill-opacity:1"
       sodipodi:nodetypes="zsccz" /><path
       sodipodi:type="arc"
       style="fill:#917c6f;fill-opacity:1;stroke:none"
       id="path3582"
       sodipodi:cx="11.182829"
       sodipodi:cy="12.753372"
       sodipodi:rx="2.6694496"
       sodipodi:ry="2.6694496"
       d="m 13.844562,12.550547 c 0.112017,1.470034 -0.988873,2.752541 -2.458908,2.864558 -1.4700343,0.112018 -2.7525408,-0.988873 -2.8645582,-2.458907 -0.1120173,-1.470035 0.9888732,-2.752542 2.4589082,-2.864559 1.447376,-0.1102906 2.717609,0.956188 2.859492,2.40081"
       transform="matrix(0.13834256,0,0,0.13834256,0.19919495,1.7915877)"
       sodipodi:start="6.2071318"
       sodipodi:end="12.46847"
       sodipodi:open="true" /><path
       id="_121328256-7"
       class="fil0"
       d="M 0.4247675,1.3417552 C 0.30865975,1.051719 0.40976238,1.1514637 0.55275704,1.3529974 0.69575091,1.5545312 1.0526419,2.1606454 1.2359221,2.5639276 L 0.96710859,2.750389 C 0.74796061,2.1419236 0.54087506,1.6317917 0.4247675,1.3417552 z"
       inkscape:connector-curvature="0"
       style="fill:#917c6f;fill-opacity:1;fill-rule:evenodd"
       sodipodi:nodetypes="zsccz" /><path
       id="_121328256-7-9"
       class="fil0"
       d="M 1.44312,0.58246558 C 1.43361,0.2701971 1.521214,0.39282353 1.5594765,0.63695278 1.6013875,0.90435635 1.7053444,1.7413136 1.7506921,2.2817189 l -0.3164814,0.082874 c 0.003,-0.6467199 0.018418,-1.46985881 0.00891,-1.78212772 z"
       inkscape:connector-curvature="0"
       style="fill:#917c6f;fill-opacity:1;fill-rule:evenodd"
       sodipodi:nodetypes="zsccz" /><path
       id="_121328256-7-4"
       class="fil0"
       d="M 2.4423509,0.52194906 C 2.5291241,0.19808085 2.5810366,0.32015476 2.5788735,0.5833539 2.5767086,0.84655178 2.4931372,1.8976838 2.1801821,2.4013588 L 1.8869765,2.2775017 c 0.307833,-0.6143974 0.4686,-1.43168421 0.5553744,-1.75555264 z"
       inkscape:connector-curvature="0"
       style="fill:#917c6f;fill-opacity:1;fill-rule:evenodd"
       sodipodi:nodetypes="zsccz" /><path
       id="_121328256-7-4-9"
       class="fil0"
       d="M 3.6839051,1.1452392 C 3.9311577,0.7718015 3.8949861,1.029192 3.7754429,1.2636867 3.5368401,1.7317274 2.9264141,2.4275569 2.4666837,2.7714357 L 2.2400615,2.4692892 C 2.8122122,2.0577751 3.4366526,1.5186768 3.6839051,1.1452392 z"
       inkscape:connector-curvature="0"
       style="fill:#917c6f;fill-opacity:1;fill-rule:evenodd"
       sodipodi:nodetypes="zsccz" /><path
       id="_121328256-7-4-9-1"
       class="fil0"
       d="m 4.2265513,3.0597007 c 0.4091243,-0.09358 0.2522344,0.074602 0.024419,0.1707759 C 4.0062521,3.3337885 3.127026,3.6011424 2.5719027,3.6165508 l 0.00603,-0.3830989 c 0.653125,-5.32e-4 1.239497,-0.080171 1.6486213,-0.1737512 z"
       inkscape:connector-curvature="0"
       style="fill:#917c6f;fill-opacity:1;fill-rule:evenodd"
       sodipodi:nodetypes="zsccz" /><path
       id="_121328256-9"
       class="fil0"
       d="M 3.9700033,4.2976494 C 4.2626923,4.4304234 4.1316091,4.4287597 3.9491295,4.4043056 3.7042093,4.3714838 3.1539385,4.1823832 2.7531868,4.0349335 L 2.8590012,3.7253663 c 0.5571017,0.2920484 0.8183128,0.4395089 1.1110017,0.572283 z"
       inkscape:connector-curvature="0"
       style="fill:#917c6f;fill-opacity:1;fill-rule:evenodd"
       sodipodi:nodetypes="zsccz" /><path
       id="_121328256-7-4-9-1-7"
       class="fil0"
       d="M 4.1962848,2.076334 C 4.5907234,1.8600715 4.4775437,2.0697011 4.2705883,2.2323244 4.0482794,2.4070154 3.2196806,2.935215 2.6523716,3.1218067 L 2.5483179,2.7530525 C 3.2208399,2.5503733 3.801846,2.2925963 4.1962848,2.076334 z"
       inkscape:connector-curvature="0"
       style="fill:#917c6f;fill-opacity:1;fill-rule:evenodd"
       sodipodi:nodetypes="zsccz"
       inkscape:transform-center-y="0.95298244"
       inkscape:transform-center-x="-0.069049672" /></g><g
     inkscape:transform-center-y="85.828784"
     inkscape:transform-center-x="83.411072"
     transform="translate(7.2531352,-3.0221402)"
     id="g4329"><g
       id="g4156"
       transform="matrix(0.31679361,0.9484945,-0.9484945,0.31679361,130.50923,-372.67453)"><rect
         ry="3.3610191"
         y="81.836464"
         x="412.43634"
         height="11.967065"
         width="44.876495"
         id="rect4021"
         style="fill:url(#linearGradient4236);fill-opacity:1;stroke:none" /><rect
         transform="matrix(0.97829675,-0.20720876,0.20720876,0.97829675,0,0)"
         ry="3.3610191"
         y="163.99873"
         x="398.57718"
         height="22.406794"
         width="5.4398527"
         id="rect3852-4-6-6"
         style="fill:url(#linearGradient4238);fill-opacity:1;fill-rule:evenodd;stroke:none" /><rect
         transform="matrix(0.97829675,-0.20720876,0.20720876,0.97829675,0,0)"
         ry="3.3610191"
         y="162.00612"
         x="389.16949"
         height="22.406794"
         width="5.4398527"
         id="rect3852-4-6-6-4"
         style="fill:url(#linearGradient4240);fill-opacity:1;fill-rule:evenodd;stroke:none" /><rect
         transform="matrix(0.97829675,-0.20720876,0.20720876,0.97829675,0,0)"
         ry="3.3610191"
         y="168.05035"
         x="417.70612"
         height="22.406794"
         width="5.4398527"
         id="rect3852-4-6-6-2"
         style="fill:url(#linearGradient4242);fill-opacity:1;fill-rule:evenodd;stroke:none" /><rect
         transform="matrix(0.97829675,-0.20720876,0.20720876,0.97829675,0,0)"
         ry="3.3610191"
         y="166.05774"
         x="408.29843"
         height="22.406794"
         width="5.4398527"
         id="rect3852-4-6-6-4-9"
         style="fill:url(#linearGradient4244);fill-opacity:1;fill-rule:evenodd;stroke:none" /></g><rect
       style="opacity:0.46987951;fill:url(#radialGradient4296);fill-opacity:1;stroke:none"
       id="rect4288"
       width="22.968266"
       height="34.150185"
       x="149.68134"
       y="95.024345"
       ry="3.0413966"
       transform="matrix(0.96606005,-0.25831759,0.25831759,0.96606005,0,0)" /><path
       inkscape:connector-curvature="0"
       style="fill:url(#linearGradient4280);fill-opacity:1;fill-rule:evenodd"
       d="M 197.02026,24.115936 C 189.4371,22.723112 177.8369,24.25585 169.56914,34.44998 161.30138,44.644109 163.59804,63.541227 154.02499,76.247396 112.07245,119.87464 64.501493,167.73347 27.308108,207.15745 8.8196952,227.00207 42.78865,253.46097 57.143072,235.38119 66.769822,223.25604 171.44114,103.0462 177.59466,96.46936 c 6.15352,-6.576834 16.90259,-1.499594 21.34435,-2.126267 4.44176,-0.626676 6.04009,-1.429932 8.3115,-2.297685 C 202.29646,75.586439 194.79884,51.29883 191.15895,38.854162 l 21.24699,-6.721855 C 208.385,27.736121 202.91827,25.19924 197.02026,24.115936 z m -8.91061,27.520954 c 1.17411,0.111932 2.23222,0.894611 2.59587,2.104855 l 6.80793,22.661697 c 0.48486,1.613658 -0.43922,3.307191 -2.04588,3.814794 l -13.1412,4.163329 c -1.60665,0.5076 -3.27421,-0.390053 -3.75908,-2.003712 l -6.81365,-22.630976 c -0.48486,-1.613658 0.41424,-3.343638 2.02089,-3.851239 L 186.91,51.76303 c 0.40166,-0.126902 0.80829,-0.163451 1.19965,-0.12614 z M 46.344217,209.40106 c 5.059316,0.7647 8.522576,5.50928 7.757878,10.5686 -0.76409,5.05529 -5.456728,8.55845 -10.512878,7.80005 l 1.392861,-9.18146 -1.423582,9.17573 c -5.059317,-0.7647 -8.522576,-5.50928 -7.757878,-10.56859 0.764698,-5.05932 5.484283,-8.55902 10.543599,-7.79433 z"
       id="path14-3" /><path
       inkscape:connector-curvature="0"
       style="fill:url(#linearGradient4275);fill-opacity:1;stroke:url(#linearGradient4277);stroke-width:4.2750001;stroke-miterlimit:4;stroke-opacity:1;stroke-dashoffset:5.60999992"
       d="m 151.09674,95.887059 c -2.09845,-0.313697 -4.32792,0.389743 -5.94291,2.039679 L 34.0817,211.4076 c -2.583979,2.6399 -3.501858,11.59804 0.257368,15.3379 5.783739,6.29083 14.373889,4.36682 16.833525,1.6107 L 157.43346,109.30606 c 2.45963,-2.75612 2.33414,-6.90473 -0.37543,-9.415569 l -2.49435,-2.308456 c -1.01609,-0.941562 -2.20786,-1.506759 -3.46694,-1.694976 z M 45.530969,210.01244 c 4.614692,0.97349 7.859409,5.23667 7.444364,10.03337 l -0.0093,0.22077 c -0.563059,5.18551 -5.240353,8.91971 -10.425861,8.35665 -5.185507,-0.56306 -8.925436,-5.20963 -8.362378,-10.39514 0.563059,-5.1855 5.209632,-8.92544 10.39514,-8.36237 0.319101,0.0346 0.650437,0.0818 0.958092,0.14667 z"
       id="rect3827" /><rect
       style="fill:none;stroke:url(#linearGradient4272);stroke-width:1.53523815;stroke-miterlimit:4;stroke-dasharray:none"
       id="rect3781"
       width="29.731674"
       height="19.870459"
       x="105.4305"
       y="-167.5826"
       transform="matrix(0.28776571,0.95770084,-0.95354225,0.30125932,0,0)"
       inkscape:transform-center-x="-15.661207"
       inkscape:transform-center-y="8.217907"
       ry="3.0413966" /><path
       style="fill:none;stroke:url(#linearGradient4269);stroke-width:4.19999981;stroke-miterlimit:4;stroke-opacity:1;stroke-dasharray:none"
       d="m 209.68637,92.097131 c 0,0 -10.63228,3.240697 -17.57631,2.561679 -6.94403,-0.679019 -19.59229,-0.469563 -27.76821,-18.044515 -5.85287,-12.581324 -3.99248,-25.34426 0.94681,-34.563007 4.9393,-9.218746 17.43511,-16.643228 23.79044,-17.146235 8.94519,-0.707985 18.61506,0.425202 23.47963,6.983356"
       id="path4170"
       inkscape:connector-curvature="0"
       sodipodi:nodetypes="csszsc" /><path
       style="fill:#000000;fill-rule:evenodd;stroke:url(#linearGradient4266);stroke-width:3.20000005;stroke-miterlimit:4;stroke-opacity:1;stroke-dasharray:none"
       d="m 192.44185,38.356769 15.27384,52.190125"
       id="path4182"
       inkscape:connector-curvature="0"
       sodipodi:nodetypes="cc" /><g
       id="g4212"
       transform="matrix(0.97906514,0.20354719,-0.20354719,0.97906514,53.240931,-18.679921)"><path
         sodipodi:nodetypes="cccc"
         inkscape:connector-curvature="0"
         id="path3077"
         d="m 158.12231,47.158413 19.09142,-9.611779 c 0,0 -1.07775,16.804501 -9.91541,26.444683 -5.71765,-11.672941 -9.17601,-16.832904 -9.17601,-16.832904 z"
         style="fill:url(#linearGradient4258);fill-opacity:1;stroke:none" /><path
         sodipodi:nodetypes="cc"
         inkscape:connector-curvature="0"
         id="path4202"
         d="M 159.569,46.036804 175.6619,37.12149"
         style="fill:none;stroke:url(#linearGradient4260);stroke-width:4.0999999;stroke-linecap:round;stroke-linejoin:miter;stroke-miterlimit:4;stroke-opacity:1;stroke-dasharray:none" /></g><path
       style="fill:none;stroke:#000000;stroke-width:3;stroke-linecap:butt;stroke-linejoin:miter;stroke-miterlimit:4;stroke-opacity:1;stroke-dasharray:none"
       d="m 24.741517,210.09168 c 5.34691,-6.4127 121.979873,-125.20892 126.983773,-131.460678 5.0039,-6.251758 6.86425,-12.597419 6.86425,-12.597419 0,0 -3.5844,-22.875437 12.92111,-35.270841 16.5055,-12.395404 34.92239,-9.189819 42.67063,-0.457769 l -3.04546,2.376599 -16.7962,5.700954 5.55614,18.226885 18.9565,-6.009458 0.40147,4.096919 c 0,0 -4.64653,16.473677 -13.67665,22.224549 0.63732,5.010368 3.0159,8.977918 4.70135,17.095807 -7.07875,4.189107 -25.4452,3.216203 -30.57395,0.651832 -5.73317,3.177695 -116.876965,135.64721 -121.876502,140.43598 -4.999536,4.78877 -15.865885,10.22014 -27.28441,1.51107 -9.424172,-7.18794 -11.148961,-20.11173 -5.802051,-26.52443 z"
       id="path4298"
       inkscape:connector-curvature="0"
       sodipodi:nodetypes="zzczccccccccczsz" /><path
       sodipodi:type="arc"
       style="fill:none;stroke:#000000;stroke-width:2.76471639;stroke-miterlimit:4;stroke-opacity:1;stroke-dasharray:none"
       id="path4300"
       sodipodi:cx="45.180996"
       sodipodi:cy="218.97878"
       sodipodi:rx="7.1020298"
       sodipodi:ry="6.7998157"
       d="m 52.262496,218.46212 c 0.298021,3.74458 -2.630882,7.01148 -6.541886,7.29681 -3.911005,0.28534 -7.323094,-2.51892 -7.621114,-6.2635 -0.298021,-3.74458 2.630882,-7.01148 6.541886,-7.29681 3.850722,-0.28095 7.230159,2.43567 7.607636,6.11551"
       sodipodi:start="6.2071318"
       sodipodi:end="12.46847"
       sodipodi:open="true"
       transform="matrix(1.0851023,0,0,1.0851023,-5.6582914,-18.333387)" /></g><g
     transform="matrix(0.91696812,-0.67304626,0.67304626,0.91696812,-283.40156,249.57522)"
     id="g4822"><path
       style="fill:url(#linearGradient4751);fill-opacity:1;stroke:none"
       d="m 358.85211,120.05974 -1.18703,97.11775 c 1.11128,2.2893 3.22447,5.00906 4.53567,7.33723 l -5.14244,24.40773 -10.98733,-0.29262 -2.79249,-24.0843 c 2.09801,-3.37737 3.41887,-5.57942 4.58239,-8.0302 0.19663,-4.8471 -0.1017,-96.59117 -0.1017,-96.59117 z"
       id="rect4352"
       inkscape:connector-curvature="0"
       sodipodi:nodetypes="ccccccccc" /><rect
       style="fill:url(#linearGradient4748);fill-opacity:1;stroke:none"
       id="rect4599"
       width="2.9917662"
       height="93.81324"
       x="-351.8714"
       y="123.62195"
       ry="2.030127"
       transform="scale(-1,1)" /><rect
       style="fill:#ffffff;fill-opacity:1;fill-rule:evenodd;stroke:none"
       id="rect4599-5"
       width="1.631803"
       height="93.81324"
       x="-356.89957"
       y="123.56682"
       ry="2.030127"
       transform="scale(-1,1)" /><path
       style="fill:url(#linearGradient4744);fill-opacity:1;stroke:none"
       d="m 363.1713,18.500718 c 6.03757,0.07379 10.81508,4.969525 10.74128,11.007098 l -0.93801,76.744264 c -0.0738,6.03758 -2.40535,10.84642 -8.44292,10.77262 1.84808,0.91917 1.2258,2.40943 1.19879,4.61885 -0.0376,3.07787 -2.5795,3.39426 -5.65737,3.35664 l -13.65523,-0.16691 c -3.07787,-0.0376 -5.70896,-1.16523 -5.67134,-4.2431 0.029,-2.37588 -0.0382,-3.10886 2.06077,-3.88041 -5.1634,-0.91746 -7.95864,-5.49962 -7.89235,-10.92287 l 0.93801,-76.74427 c 0.0738,-6.037573 5.00077,-10.81469 11.03834,-10.740896 z"
       id="rect4348"
       inkscape:connector-curvature="0"
       sodipodi:nodetypes="ssscsssscssss" /><path
       sodipodi:type="arc"
       style="fill:#ffdd55;fill-opacity:1;stroke:none;filter:url(#filter4689)"
       id="path4643"
       sodipodi:cx="355.10147"
       sodipodi:cy="67.720657"
       sodipodi:rx="6.6487088"
       sodipodi:ry="44.727676"
       d="m 361.73096,64.322239 c 0.279,24.631007 -2.46295,46.119911 -6.12432,47.996801 -3.66136,1.8769 -6.85566,-16.568957 -7.13466,-41.199964 -0.279,-24.631007 2.46295,-46.119907 6.12432,-47.996802 3.60493,-1.847965 6.76866,16.021308 7.12204,40.226508"
       sodipodi:start="6.2071318"
       sodipodi:end="12.46847"
       sodipodi:open="true"
       transform="matrix(1.3529928,0,0,1,-124.41441,2.4391899)" /><rect
       style="fill:url(#linearGradient4740);fill-opacity:1;stroke:none"
       id="rect4358"
       width="6.6246252"
       height="76.931129"
       x="-346.19913"
       y="26.979969"
       ry="3.3123126"
       transform="matrix(-0.99992531,-0.01222163,-0.01222163,0.99992531,0,0)" /><rect
       style="fill:url(#linearGradient4737);fill-opacity:1;stroke:none"
       id="rect4358-8"
       width="6.6246252"
       height="76.931129"
       x="-371.52228"
       y="27.193668"
       ry="3.3123126"
       transform="matrix(-0.99992531,-0.01222163,-0.01222163,0.99992531,0,0)" /><path
       style="opacity:0.19300005;fill:url(#linearGradient4734);fill-opacity:1;fill-rule:evenodd;stroke:none"
       d="m 363.34223,18.757245 c 6.03757,0.07379 10.81507,4.969525 10.74127,11.007098 l -0.93801,76.744267 c -0.0738,6.03758 -2.40535,10.84641 -8.44292,10.77262 1.84808,0.91916 1.2258,2.40943 1.19879,4.61884 -0.0376,3.07787 -2.5795,3.39426 -5.65737,3.35664 l -13.65523,-0.1669 c -3.07787,-0.0376 -5.70896,-1.16523 -5.67134,-4.2431 0.029,-2.37588 -0.0382,-3.10887 2.06077,-3.88041 -5.1634,-0.91747 -7.95864,-5.49962 -7.89235,-10.92288 l 0.93801,-76.744263 c 0.0738,-6.037573 5.00077,-10.81469 11.03834,-10.740895 z"
       id="rect4348-0"
       inkscape:connector-curvature="0"
       sodipodi:nodetypes="ssscsssscssss" /><rect
       style="fill:url(#linearGradient4731);fill-opacity:1;stroke:none"
       id="rect4358-8-3"
       width="9.8316803"
       height="76.291626"
       x="-361.90338"
       y="27.704958"
       ry="3.2847786"
       transform="matrix(-0.99992531,-0.01222163,-0.01222163,0.99992531,0,0)" /><path
       style="fill:url(#linearGradient4728);fill-opacity:1;fill-rule:evenodd;stroke:none"
       d="m 357.52648,216.73809 c 1.11128,2.2893 3.22447,5.00906 4.53567,7.33723 l -5.14244,24.40773 -10.98733,-0.29262 -2.79249,-24.0843 c 2.09801,-3.37737 3.41887,-5.57942 4.58239,-8.0302 4.38118,-0.28293 8.27401,0.32552 9.8042,0.66216 z"
       id="rect4352-3"
       inkscape:connector-curvature="0"
       sodipodi:nodetypes="ccccccc" /><path
       style="fill:url(#linearGradient4725);fill-opacity:1;stroke:none"
       d="m 347.688,216.86321 9.3624,-0.56779 4.62706,7.65048 -18.73403,0.38009 z"
       id="path4471"
       inkscape:connector-curvature="0" /><path
       style="fill:none;stroke:#000000;stroke-width:3.09912992;stroke-miterlimit:4;stroke-opacity:1;stroke-dasharray:none"
       d="m 346.75562,17.485542 c -6.32847,-0.07513 -11.48539,4.797838 -11.56274,10.944839 l -0.98269,78.141059 c -0.0695,5.52156 2.84226,10.16983 8.25443,11.10393 -2.2001,0.78552 -2.13147,1.5581 -2.16187,3.97704 -0.0394,3.13367 2.73536,4.25694 5.96154,4.29523 l 2.29288,0.0319 c 0.0418,12.902 0.25477,86.08137 0.0654,90.61309 -1.21957,2.49521 -2.61598,4.73825 -4.81507,8.17682 l 2.948,24.53044 11.49723,0.28635 5.40469,-24.84859 c -1.37437,-2.37038 -3.58476,-5.14608 -4.74958,-7.47686 l 1.14646,-91.12216 0.5241,0 c 3.22615,0.0383 5.88934,-0.30253 5.92876,-3.43617 0.0283,-2.24945 0.65965,-3.77301 -1.27749,-4.70882 6.32846,0.0752 8.79944,-4.79784 8.8768,-10.94485 l 0.98269,-78.141053 c 0.0774,-6.147 -4.93948,-11.124241 -11.26793,-11.199369 l -17.0657,-0.222715 z"
       id="rect4348-0-3"
       inkscape:connector-curvature="0" /></g></g></svg>