<?xml version="1.0" encoding="UTF-8" standalone="no"?>
<!-- Created with Inkscape (http://www.inkscape.org/) -->

<svg
   xmlns:dc="http://purl.org/dc/elements/1.1/"
   xmlns:cc="http://creativecommons.org/ns#"
   xmlns:rdf="http://www.w3.org/1999/02/22-rdf-syntax-ns#"
   xmlns:svg="http://www.w3.org/2000/svg"
   xmlns="http://www.w3.org/2000/svg"
   xmlns:xlink="http://www.w3.org/1999/xlink"
   xmlns:sodipodi="http://sodipodi.sourceforge.net/DTD/sodipodi-0.dtd"
   xmlns:inkscape="http://www.inkscape.org/namespaces/inkscape"
   width="256"
   height="256"
   id="svg2"
   version="1.1"
   inkscape:version="0.48.3.1 r9886"
   sodipodi:docname="gnome-control-center.svg">
  <defs
     id="defs4">
    <linearGradient
       id="linearGradient3820">
      <stop
         style="stop-color:#ffffff;stop-opacity:1;"
         offset="0"
         id="stop3822" />
      <stop
         id="stop3824"
         offset="0.24187069"
         style="stop-color:#f1f1f1;stop-opacity:1;" />
      <stop
         style="stop-color:#7d7d7d;stop-opacity:1;"
         offset="0.44867313"
         id="stop3826" />
      <stop
         style="stop-color:#2f2f2f;stop-opacity:1;"
         offset="0.71069998"
         id="stop3828" />
      <stop
         id="stop3830"
         offset="1"
         style="stop-color:#9a9a9a;stop-opacity:1;" />
    </linearGradient>
    <linearGradient
       id="linearGradient3796">
      <stop
         id="stop3804"
         offset="0"
         style="stop-color:#ffffff;stop-opacity:1;" />
      <stop
         style="stop-color:#f1f1f1;stop-opacity:1;"
         offset="0.24649662"
         id="stop3806" />
      <stop
         id="stop3810"
         offset="0.44683689"
         style="stop-color:#7d7d7d;stop-opacity:1;" />
      <stop
         id="stop3808"
         offset="0.68910587"
         style="stop-color:#2f2f2f;stop-opacity:1;" />
      <stop
         style="stop-color:#9a9a9a;stop-opacity:1;"
         offset="1"
         id="stop3800" />
    </linearGradient>
    <linearGradient
       id="linearGradient3790">
      <stop
         id="stop3792"
         offset="0"
         style="stop-color:#e8b465;stop-opacity:1;" />
      <stop
         id="stop3794"
         offset="1"
         style="stop-color:#673e1d;stop-opacity:1;" />
    </linearGradient>
    <linearGradient
       inkscape:collect="always"
       xlink:href="#linearGradient3790"
       id="linearGradient3788"
       x1="326.61865"
       y1="958.93542"
       x2="421.90439"
       y2="958.93542"
       gradientUnits="userSpaceOnUse" />
    <linearGradient
       inkscape:collect="always"
       xlink:href="#linearGradient3796"
       id="linearGradient3802"
       x1="340.71429"
       y1="900.57648"
       x2="392.14285"
       y2="899.50507"
       gradientUnits="userSpaceOnUse" />
    <linearGradient
       inkscape:collect="always"
       xlink:href="#linearGradient3820"
       id="linearGradient3818"
       x1="379.4758"
       y1="861.78735"
       x2="394.04724"
       y2="868.93018"
       gradientUnits="userSpaceOnUse" />
    <filter
       inkscape:collect="always"
       id="filter3838"
       x="-0.52779463"
       width="2.0555893"
       y="-0.45471602"
       height="1.909432">
      <feGaussianBlur
         inkscape:collect="always"
         stdDeviation="6.2204167"
         id="feGaussianBlur3840" />
    </filter>
    <linearGradient
       inkscape:collect="always"
       xlink:href="#linearGradient3790"
       id="linearGradient3848"
       gradientUnits="userSpaceOnUse"
       x1="326.61865"
       y1="958.93542"
       x2="421.90439"
       y2="958.93542" />
    <linearGradient
       inkscape:collect="always"
       xlink:href="#linearGradient3796"
       id="linearGradient3850"
       gradientUnits="userSpaceOnUse"
       x1="340.71429"
       y1="900.57648"
       x2="392.14285"
       y2="899.50507" />
    <linearGradient
       inkscape:collect="always"
       xlink:href="#linearGradient3820"
       id="linearGradient3852"
       gradientUnits="userSpaceOnUse"
       x1="379.4758"
       y1="861.78735"
       x2="394.04724"
       y2="868.93018" />
    <linearGradient
       inkscape:collect="always"
       xlink:href="#linearGradient3790"
       id="linearGradient3022"
       gradientUnits="userSpaceOnUse"
       x1="326.61865"
       y1="958.93542"
       x2="421.90439"
       y2="958.93542" />
    <linearGradient
       inkscape:collect="always"
       xlink:href="#linearGradient3796"
       id="linearGradient3024"
       gradientUnits="userSpaceOnUse"
       x1="340.71429"
       y1="900.57648"
       x2="392.14285"
       y2="899.50507" />
    <linearGradient
       inkscape:collect="always"
       xlink:href="#linearGradient3820"
       id="linearGradient3026"
       gradientUnits="userSpaceOnUse"
       x1="379.4758"
       y1="861.78735"
       x2="394.04724"
       y2="868.93018" />
    <linearGradient
       inkscape:collect="always"
       xlink:href="#linearGradient3790"
       id="linearGradient3042"
       gradientUnits="userSpaceOnUse"
       x1="326.61865"
       y1="958.93542"
       x2="421.90439"
       y2="958.93542" />
    <linearGradient
       inkscape:collect="always"
       xlink:href="#linearGradient3796"
       id="linearGradient3044"
       gradientUnits="userSpaceOnUse"
       x1="340.71429"
       y1="900.57648"
       x2="392.14285"
       y2="899.50507" />
    <linearGradient
       inkscape:collect="always"
       xlink:href="#linearGradient3820"
       id="linearGradient3046"
       gradientUnits="userSpaceOnUse"
       x1="379.4758"
       y1="861.78735"
       x2="394.04724"
       y2="868.93018" />
  </defs>
  <sodipodi:namedview
     id="base"
     pagecolor="#ffffff"
     bordercolor="#666666"
     borderopacity="1.0"
     inkscape:pageopacity="0.0"
     inkscape:pageshadow="2"
     inkscape:zoom="1.979899"
     inkscape:cx="103.19769"
     inkscape:cy="84.845537"
     inkscape:document-units="px"
     inkscape:current-layer="layer1"
     showgrid="false"
     showguides="true"
     inkscape:guide-bbox="true"
     inkscape:window-width="1914"
     inkscape:window-height="1030"
     inkscape:window-x="0"
     inkscape:window-y="26"
     inkscape:window-maximized="1" />
  <metadata
     id="metadata7">
    <rdf:RDF>
      <cc:Work
         rdf:about="">
        <dc:format>image/svg+xml</dc:format>
        <dc:type
           rdf:resource="http://purl.org/dc/dcmitype/StillImage" />
        <dc:title />
      </cc:Work>
    </rdf:RDF>
  </metadata>
  <g
     inkscape:label="Layer 1"
     inkscape:groupmode="layer"
     id="layer1"
     transform="translate(0,-796.3622)">
    <path
       style="fill:#808080;stroke:#808080;stroke-width:1px;stroke-linecap:butt;stroke-linejoin:miter;stroke-opacity:1"
       d="m -103.60266,915.42855 -8.57143,52.85714 c 0,0 10,36.42861 44.285716,35.71431 34.28571,-0.7143 50,-29.28574 50,-29.28574 l -16.42857,-62.14285 z"
       id="path2984"
       inkscape:connector-curvature="0"
       sodipodi:nodetypes="ccsccc" />
    <path
       style="fill:#808080;stroke:#808080;stroke-width:1px;stroke-linecap:butt;stroke-linejoin:miter;stroke-opacity:1"
       d="m -97.174088,891.85712 -4.285712,15.71429 67.142846,-3.57143 -5.71428,-12.85714 z"
       id="path2986"
       inkscape:connector-curvature="0"
       sodipodi:nodetypes="ccccc" />
    <path
       style="fill:#808080;stroke:#808080;stroke-width:1px;stroke-linecap:butt;stroke-linejoin:miter;stroke-opacity:1"
       d="m -42.174094,829.71426 c -0.71428,2.85715 -27.85714,53.57143 -27.85714,53.57143 l 12.14286,-0.71428 24.28571,-49.28572 z"
       id="path2988"
       inkscape:connector-curvature="0" />
    <g
       id="g3034"
       transform="matrix(1.1685763,0,0,1.1685763,-14.920642,-135.21336)">
      <path
         d="m 103.64633,870.6781 c -8.091714,0 -14.573353,6.48164 -14.573353,14.57336 l 0,111.10804 c 0,8.0918 6.481639,14.5733 14.573353,14.5733 l 111.10803,0 c 8.09171,0 14.57335,-6.4815 14.57335,-14.5733 l 0,-111.10804 c 0,-8.09172 -6.48164,-14.57336 -14.57335,-14.57336 l -111.10803,0 z m 80.20814,16.65524 13.91592,0 0,11.5053 -13.91592,0 0,-11.5053 z m -63.2242,0.65745 13.91592,0 0,45.58279 -13.91592,0 0,-45.58279 z m 52.3764,17.751 35.50196,0 c 5.72645,0 10.29997,4.57353 10.29997,10.29995 l 0,14.46377 c 0,5.72643 -4.57352,10.29995 -10.29997,10.29995 l -35.50196,0 c -5.72643,0 -10.29995,-4.57352 -10.29995,-10.29995 l 0,-14.46377 c 0,-5.72642 4.57352,-10.29995 10.29995,-10.29995 z m -63.11462,35.06367 35.50198,0 c 5.72645,0 10.29994,4.57353 10.29994,10.29998 l 0,14.46375 c 0,5.72641 -4.57349,10.30001 -10.29994,10.30001 l -35.50198,0 c -5.72645,0 -10.299973,-4.5736 -10.299973,-10.30001 l 0,-14.46375 c 0,-5.72645 4.573523,-10.29998 10.299973,-10.29998 z m 73.96242,7.01275 13.91592,0 0,45.36359 -13.91592,0 0,-45.36359 z m -63.2242,35.17329 13.91592,0 0,10.7382 -13.91592,0 0,-10.7382 z"
         id="rect3938"
         style="fill:#808080;fill-opacity:1;fill-rule:evenodd;stroke:none"
         inkscape:connector-curvature="0" />
      <g
         transform="matrix(0.92588762,0,0,0.92588762,-284.88365,34.659687)"
         style="stroke:#000000;stroke-width:3;stroke-miterlimit:4;stroke-opacity:1;stroke-dasharray:none"
         id="g3842">
        <path
           style="fill:url(#linearGradient3042);fill-opacity:1;stroke:#000000;stroke-width:3;stroke-linecap:butt;stroke-linejoin:miter;stroke-miterlimit:4;stroke-opacity:1;stroke-dasharray:none"
           d="m 335.69009,916.07308 -8.57143,52.85714 c 0,0 10,36.42858 44.28572,35.71428 34.28571,-0.7143 50,-29.28571 50,-29.28571 l -16.42857,-62.14285 z"
           id="path2984-5"
           inkscape:connector-curvature="0"
           sodipodi:nodetypes="ccsccc" />
        <path
           style="fill:url(#linearGradient3044);fill-opacity:1;stroke:#000000;stroke-width:3;stroke-linecap:butt;stroke-linejoin:miter;stroke-miterlimit:4;stroke-opacity:1;stroke-dasharray:none"
           d="m 342.11866,892.50165 -4.28571,15.71429 67.14285,-3.57143 -5.71428,-12.85715 z"
           id="path2986-9"
           inkscape:connector-curvature="0"
           sodipodi:nodetypes="ccccc" />
        <path
           style="fill:url(#linearGradient3046);fill-opacity:1;stroke:#000000;stroke-width:3;stroke-linecap:butt;stroke-linejoin:miter;stroke-miterlimit:4;stroke-opacity:1;stroke-dasharray:none"
           d="m 397.11866,830.35879 c -0.71428,2.85715 -27.85714,53.57143 -27.85714,53.57143 l 12.14286,-0.71428 24.28571,-49.28572 z"
           id="path2988-7"
           inkscape:connector-curvature="0" />
        <path
           sodipodi:type="arc"
           style="opacity:0.502008;fill:#e0be94;fill-opacity:1;stroke:#000000;stroke-width:2.45676255;stroke-miterlimit:4;stroke-opacity:1;stroke-dasharray:none;filter:url(#filter3838)"
           id="path3832"
           sodipodi:cx="366.1803"
           sodipodi:cy="146.65099"
           sodipodi:rx="14.142136"
           sodipodi:ry="16.414978"
           d="m 380.28155,145.40377 c 0.59345,9.03954 -5.23882,16.92593 -13.02673,17.61474 -7.78791,0.68882 -14.58234,-6.08077 -15.17578,-15.12031 -0.59344,-9.03954 5.23883,-16.92592 13.02674,-17.61474 7.66786,-0.6782 14.39727,5.87979 15.14893,14.76306"
           transform="matrix(1,0,0,1.4911322,-5.555839,728.66072)"
           sodipodi:start="6.2071318"
           sodipodi:end="12.46847"
           sodipodi:open="true" />
      </g>
    </g>
  </g>
</svg>
