<?xml version="1.0" encoding="UTF-8" standalone="no"?>
<!-- Creator: CorelDRAW -->

<svg
   xmlns:dc="http://purl.org/dc/elements/1.1/"
   xmlns:cc="http://creativecommons.org/ns#"
   xmlns:rdf="http://www.w3.org/1999/02/22-rdf-syntax-ns#"
   xmlns:svg="http://www.w3.org/2000/svg"
   xmlns="http://www.w3.org/2000/svg"
   xmlns:xlink="http://www.w3.org/1999/xlink"
   xmlns:sodipodi="http://sodipodi.sourceforge.net/DTD/sodipodi-0.dtd"
   xmlns:inkscape="http://www.inkscape.org/namespaces/inkscape"
   xml:space="preserve"
   width="256"
   height="256"
   style="fill-rule:evenodd"
   viewBox="0 0 72.24889 72.248891"
   id="svg2"
   version="1.1"
   inkscape:version="0.48.3.1 r9886"
   sodipodi:docname="huayra-motion.svg"
   inkscape:export-filename="/home/alumno/.icons/huayra-dev/22x22/all/start-here.png"
   inkscape:export-xdpi="123"
   inkscape:export-ydpi="123"><metadata
   id="metadata336"><rdf:RDF><cc:Work
       rdf:about=""><dc:format>image/svg+xml</dc:format><dc:type
         rdf:resource="http://purl.org/dc/dcmitype/StillImage" /><dc:title /></cc:Work></rdf:RDF></metadata><sodipodi:namedview
   pagecolor="#9b9b9b"
   bordercolor="#666666"
   borderopacity="1"
   objecttolerance="10"
   gridtolerance="10"
   guidetolerance="10"
   inkscape:pageopacity="0"
   inkscape:pageshadow="2"
   inkscape:window-width="1914"
   inkscape:window-height="1030"
   id="namedview334"
   showgrid="false"
   inkscape:zoom="2.4502196"
   inkscape:cx="156.86216"
   inkscape:cy="97.087034"
   inkscape:window-x="0"
   inkscape:window-y="25"
   inkscape:window-maximized="1"
   inkscape:current-layer="svg2" />
 <defs
   id="defs4"><linearGradient
     id="linearGradient5245"><stop
       id="stop5247"
       offset="0"
       style="stop-color:#e1f2f7;stop-opacity:1;" /><stop
       id="stop5249"
       offset="1"
       style="stop-color:#287d91;stop-opacity:1;" /></linearGradient><linearGradient
     inkscape:collect="always"
     id="linearGradient5154"><stop
       style="stop-color:#c4e5ef;stop-opacity:1;"
       offset="0"
       id="stop5156" /><stop
       style="stop-color:#c4e5ef;stop-opacity:0;"
       offset="1"
       id="stop5158" /></linearGradient><linearGradient
     id="linearGradient5063"><stop
       style="stop-color:#d8eef4;stop-opacity:1;"
       offset="0"
       id="stop5065" /><stop
       style="stop-color:#e1f2f7;stop-opacity:0;"
       offset="1"
       id="stop5067" /></linearGradient><linearGradient
     id="linearGradient4985"><stop
       style="stop-color:#bae3ec;stop-opacity:1;"
       offset="0"
       id="stop4987" /><stop
       style="stop-color:#6ac2d6;stop-opacity:0;"
       offset="1"
       id="stop4989" /></linearGradient><linearGradient
     id="linearGradient4975"><stop
       style="stop-color:#73c5d9;stop-opacity:1;"
       offset="0"
       id="stop4977" /><stop
       style="stop-color:#236e80;stop-opacity:1;"
       offset="1"
       id="stop4979" /></linearGradient><inkscape:path-effect
     effect="skeletal"
     id="path-effect3279"
     is_visible="true"
     pattern="M 0,5 C 0,2.24 2.24,0 5,0 7.76,0 10,2.24 10,5 10,7.76 7.76,10 5,10 2.24,10 0,7.76 0,5 z"
     copytype="single_stretched"
     prop_scale="1"
     scale_y_rel="false"
     spacing="0"
     normal_offset="0"
     tang_offset="0"
     prop_units="false"
     vertical_pattern="false"
     fuse_tolerance="0" /><inkscape:path-effect
     effect="skeletal"
     id="path-effect3245"
     is_visible="true"
     pattern="M 0,5 C 0,2.24 2.24,0 5,0 7.76,0 10,2.24 10,5 10,7.76 7.76,10 5,10 2.24,10 0,7.76 0,5 z"
     copytype="single"
     prop_scale="0.07"
     scale_y_rel="true"
     spacing="0.3"
     normal_offset="0"
     tang_offset="0"
     prop_units="false"
     vertical_pattern="false"
     fuse_tolerance="0" /><style
     type="text/css"
     id="style6">
   
    .fil0 {fill:#99AE6A}
    .fil4 {fill:#73A848}
    .fil8 {fill:#6F448A;fill-rule:nonzero}
    .fil1 {fill:#99AE6A;fill-rule:nonzero}
    .fil3 {fill:#ABA0C0;fill-rule:nonzero}
    .fil2 {fill:#BA8FBA;fill-rule:nonzero}
    .fil5 {fill:#73A848;fill-rule:nonzero}
    .fil6 {fill:#98227A;fill-rule:nonzero}
    .fil9 {fill:#B299BF;fill-rule:nonzero}
    .fil7 {fill:#D189B2;fill-rule:nonzero}
   
  </style><linearGradient
     inkscape:collect="always"
     xlink:href="#linearGradient4975"
     id="linearGradient4981"
     x1="150.12842"
     y1="343.41885"
     x2="141.27963"
     y2="313.30615"
     gradientUnits="userSpaceOnUse" /><linearGradient
     inkscape:collect="always"
     xlink:href="#linearGradient4985"
     id="linearGradient4991"
     x1="209.90964"
     y1="120.09382"
     x2="219.03151"
     y2="141.72453"
     gradientUnits="userSpaceOnUse" /><linearGradient
     inkscape:collect="always"
     xlink:href="#linearGradient5154"
     id="linearGradient5160"
     x1="31.093315"
     y1="27.393141"
     x2="64.145119"
     y2="55.573551"
     gradientUnits="userSpaceOnUse"
     gradientTransform="matrix(0.97503436,0,0,0.97503436,-0.34171481,1.4864891)" /><linearGradient
     inkscape:collect="always"
     xlink:href="#linearGradient5245"
     id="linearGradient5243"
     x1="14.665813"
     y1="14.89923"
     x2="39.672688"
     y2="48.878044"
     gradientUnits="userSpaceOnUse"
     gradientTransform="matrix(0.97503436,0,0,0.97503436,0.01493083,1.6746745)" /><linearGradient
     inkscape:collect="always"
     xlink:href="#linearGradient4975"
     id="linearGradient5257"
     x1="59.446133"
     y1="38.337811"
     x2="49.868595"
     y2="31.196501"
     gradientUnits="userSpaceOnUse"
     gradientTransform="matrix(0.97503436,0,0,0.97503436,0.13011325,1.5594921)" /><linearGradient
     inkscape:collect="always"
     xlink:href="#linearGradient4975"
     id="linearGradient5265"
     x1="53.646587"
     y1="47.038986"
     x2="44.327694"
     y2="40.473587"
     gradientUnits="userSpaceOnUse"
     gradientTransform="matrix(0.97503436,0,0,0.97503436,0.01493083,1.6746745)" /><linearGradient
     inkscape:collect="always"
     xlink:href="#linearGradient4975"
     id="linearGradient5273"
     x1="49.176533"
     y1="58.161556"
     x2="42.248756"
     y2="53.55426"
     gradientUnits="userSpaceOnUse"
     gradientTransform="matrix(0.97503436,0,0,0.97503436,-0.02579231,3.0999843)" /><linearGradient
     inkscape:collect="always"
     xlink:href="#linearGradient4975"
     id="linearGradient5281"
     x1="47.042896"
     y1="66.222923"
     x2="35.628872"
     y2="57.929787"
     gradientUnits="userSpaceOnUse"
     gradientTransform="matrix(0.97503436,0,0,0.97503436,0.01493083,1.6746745)" /><linearGradient
     inkscape:collect="always"
     xlink:href="#linearGradient4975"
     id="linearGradient5289"
     x1="34.375187"
     y1="50.968788"
     x2="42.396248"
     y2="50.968788"
     gradientUnits="userSpaceOnUse"
     gradientTransform="translate(-0.28795606,0.05759121)" /><linearGradient
     inkscape:collect="always"
     xlink:href="#linearGradient4975"
     id="linearGradient5297"
     x1="39.856121"
     y1="34.569763"
     x2="41.74371"
     y2="34.569763"
     gradientUnits="userSpaceOnUse" /><linearGradient
     inkscape:collect="always"
     xlink:href="#linearGradient4975"
     id="linearGradient5305"
     x1="39.856121"
     y1="34.569763"
     x2="41.74371"
     y2="34.569763"
     gradientUnits="userSpaceOnUse" /></defs>
 
<path
   style="fill:url(#linearGradient5289);fill-opacity:1;fill-rule:evenodd;stroke:none"
   d="m 38.725285,46.495924 c -2.499969,0 -4.638053,2.137856 -4.638053,4.638053 0,2.499968 2.138109,4.417155 4.638053,4.417155 0.147732,0 0.298996,0.01284 0.44174,0 0.01782,-0.0016 -0.01782,-0.217861 0,-0.220357 0.132715,-0.660867 -0.06731,-2.008943 0.589101,-3.279135 0.656413,-1.270192 1.282534,-2.332627 2.352164,-2.749456 -0.401172,-2.084015 -1.195241,-2.805645 -3.382907,-2.805645 z"
   id="path5408-0-1"
   inkscape:connector-curvature="0"
   sodipodi:nodetypes="csscczccc" /><path
   style="fill:url(#linearGradient5273);fill-opacity:1;fill-rule:evenodd;stroke:none"
   d="m 43.395106,51.823371 c -0.878847,0.606406 -1.731129,1.659929 -2.2492,3.108566 -1.035724,2.897593 -0.474664,6.159631 1.17141,7.206614 1.646023,1.046878 3.780403,-0.375913 4.816186,-3.273536 0.719873,-2.014184 0.71419,-4.259493 0.08247,-5.740482 -1.305112,0.134211 -2.618518,-0.486569 -3.632692,-1.377771 -0.06389,0.03872 -0.125818,0.03339 -0.18798,0.07636 z"
   id="path5408-06"
   inkscape:connector-curvature="0" /><path
   style="fill:url(#linearGradient5265);fill-opacity:1;fill-rule:evenodd;stroke:none"
   d="m 46.834121,39.3565 c -0.645887,0.337199 -1.186951,0.785241 -1.729952,1.390389 -2.171201,2.421939 -2.362944,6.169499 -0.453284,8.203916 1.909774,2.034305 5.188627,1.579968 7.359829,-0.841968 1.866644,-2.08238 2.124675,-4.890281 0.991724,-6.973117 -1.741278,0.201571 -3.591539,-0.647627 -4.817122,-2.13314 -0.447005,0.102987 -0.921192,0.128023 -1.351464,0.353458 z"
   id="path5408-06-7"
   inkscape:connector-curvature="0" /><path
   style="fill:url(#linearGradient5257);fill-opacity:1;fill-rule:evenodd;stroke:none"
   d="m 49.100674,30.532098 c -1.8263,2.727217 -1.090428,6.446553 1.63679,8.272853 2.72724,1.826316 6.446557,1.090432 8.272859,-1.636785 0.819458,-1.223701 0.963958,-2.623593 0.804471,-3.980002 -1.718114,0.407623 -3.789198,0.120463 -5.633111,-1.114327 -1.353745,-0.906545 -2.210915,-2.167716 -2.74935,-3.436062 -0.918561,0.444559 -1.722855,0.984924 -2.331674,1.894074 z"
   id="path5428-82"
   inkscape:connector-curvature="0" /><path
   sodipodi:type="arc"
   style="fill:url(#linearGradient5305);fill-opacity:1;fill-rule:evenodd;stroke:none"
   id="path5428-8-1-8-5"
   sodipodi:cx="40.799915"
   sodipodi:cy="34.569763"
   sodipodi:rx="0.94379294"
   sodipodi:ry="0.94379294"
   d="m 41.743708,34.569763 a 0.94379294,0.94379294 0 1 1 -1.887586,0 0.94379294,0.94379294 0 1 1 1.887586,0 z"
   transform="matrix(1.7510596,0,0,1.7510596,-42.156935,-22.634174)" /><path
   style="fill:url(#linearGradient5243);fill-opacity:1;fill-rule:evenodd;stroke:none"
   d="m 3.5955152,20.111845 c 0.030753,0.227789 0.465928,0.649088 1.4010766,1.340833 2.4700575,1.827187 8.8553172,5.918942 13.1018312,10.595314 -0.147103,0.327139 -0.281287,0.636841 -0.388531,0.987096 -0.02516,0.082 0.0098,0.174065 -0.01307,0.257616 C 12.886161,31.855853 5.4158137,29.97335 2.9950861,29.432927 1.6006651,29.12157 0.54476333,29.167489 0.61663214,29.46094 c 0.043623,0.176322 0.51437546,0.413232 1.53440766,0.779546 2.7081443,0.972431 9.6836552,3.870052 15.2287152,6.08418 0.04719,0.813079 0.139771,1.636779 0.407613,2.527927 -4.092429,0.27733 -9.9495924,1.137103 -12.050963,1.655773 -1.3871804,0.342035 -2.3507581,0.689959 -2.1919874,0.890643 0.094705,0.120166 0.5839588,0.224512 1.6677465,0.218855 2.858009,-0.01604 7.9235179,-0.07697 13.8178269,0.09205 0.296351,0.555028 0.611073,1.129297 0.99392,1.706684 -1.972484,1.153612 -3.475385,2.369907 -4.770753,3.206971 -1.896109,1.225279 -2.952203,2.135025 -0.402347,1.244554 1.912429,-0.667717 3.793446,-1.028551 6.760213,-2.248357 0.988782,-0.406883 2.141204,-0.906396 3.415662,-1.548684 L 23.563423,42.442703 C 17.091846,34.225306 28.478366,26.34132 33.756695,33.479072 l 2.499969,-2.78603 0.07556,0.02954 c 0.03101,-0.03513 0.02945,-0.116996 0.05909,-0.151431 2.615978,-2.941075 6.018673,-6.973954 7.117917,-8.946943 0.829023,-1.487862 1.28372,-2.579841 -0.850913,-0.51103 -2.061057,1.997499 -4.221752,3.793179 -8.323654,7.332132 -0.428137,-0.331456 -0.866688,-0.613068 -1.322829,-0.871659 1.070676,-4.724939 1.465174,-10.538747 1.417271,-12.506906 -0.05509,-2.286859 -0.950844,-4.178942 -1.53211,-0.340301 -0.473487,3.128138 -1.42005,7.269787 -2.951673,11.727304 -0.593045,-0.118329 -1.220207,-0.257639 -1.81958,-0.278018 -0.140951,-5.427445 -1.561674,-12.455755 -2.2152,-14.638473 -0.698437,-2.3326131 -2.130294,-4.0588812 -1.605619,0.06998 0.482584,3.790064 0.715198,9.104643 0.339098,14.952092 -0.278441,0.07891 -0.546253,0.192354 -0.816777,0.291677 C 22.09419,21.912162 18.704181,15.685935 15.886663,12.500817 14.27335,10.677184 12.22449,9.4774098 14.600485,12.870273 c 2.244832,3.206238 4.598965,9.811322 6.206396,15.859698 -0.344928,0.280078 -0.72251,0.500817 -1.025814,0.82367 C 16.224346,25.351031 8.1397087,21.395376 5.9756394,20.522648 4.5642937,19.953447 3.5437935,19.731449 3.5948122,20.111397 z"
   id="_121731384-6-3-5-5"
   inkscape:connector-curvature="0"
   inkscape:transform-center-x="22.034904"
   inkscape:transform-center-y="-33.098083"
   sodipodi:nodetypes="cscccccccccccccscccccccccsccccccccccccccccc" /><path
   sodipodi:type="arc"
   style="fill:url(#linearGradient5297);fill-opacity:1;fill-rule:evenodd;stroke:none"
   id="path5428-8-1-6"
   sodipodi:cx="40.799915"
   sodipodi:cy="34.569763"
   sodipodi:rx="0.94379294"
   sodipodi:ry="0.94379294"
   d="m 41.743708,34.569763 a 0.94379294,0.94379294 0 1 1 -1.887586,0 0.94379294,0.94379294 0 1 1 1.887586,0 z"
   transform="matrix(3.298609,0,0,3.298609,-100.23914,-71.376419)" /><path
   sodipodi:type="arc"
   style="fill:url(#linearGradient4981);fill-opacity:1;stroke:#000000;stroke-width:1.40308487;stroke-miterlimit:4;stroke-opacity:1;stroke-dasharray:none"
   id="path4457"
   sodipodi:cx="148.96623"
   sodipodi:cy="326.60593"
   sodipodi:rx="19.998207"
   sodipodi:ry="19.998207"
   d="m 168.96444,326.60593 a 19.998207,19.998207 0 1 1 -39.99641,0 19.998207,19.998207 0 1 1 39.99641,0 z"
   transform="matrix(0.44754559,0,0,0.44754559,-6.0303551,-124.19305)" /><path
   sodipodi:type="arc"
   style="fill:url(#linearGradient4991);fill-opacity:1;stroke:none"
   id="path4983"
   sodipodi:cx="213.04213"
   sodipodi:cy="133.562"
   sodipodi:rx="19.181953"
   sodipodi:ry="17.141321"
   d="m 232.22408,133.562 a 19.181953,17.141321 0 1 1 -38.3639,0 19.181953,17.141321 0 1 1 38.3639,0 z"
   transform="matrix(0.27517637,0,0,0.27517637,2.2433826,-18.071625)" /><path
   style="fill:url(#linearGradient5281);fill-opacity:1;fill-rule:evenodd;stroke:none"
   d="m 38.385267,62.353492 c -2.994758,0.322311 -5.041836,1.04276 -5.079749,1.987856 -0.05011,1.26013 3.576739,2.404054 8.171766,2.429348 7.136269,0.104374 11.756858,-1.028012 11.807396,-2.287887 0.02987,-0.77381 -2.610089,-1.85124 -6.154367,-1.82903 -1.358541,1.733038 -3.799634,2.380695 -5.19627,2.080643 -1.396635,-0.300051 -2.090463,-1.558043 -2.444565,-2.38093 -0.351111,0.02407 -0.77305,-0.03521 -1.104361,0 z"
   id="path5408-0-1-4"
   inkscape:connector-curvature="0"
   sodipodi:nodetypes="scccczccs" /><path
   style="fill:url(#linearGradient5160);fill-opacity:1;fill-rule:evenodd;stroke:none"
   d="m 51.070885,28.443726 c -3.61212,1.741784 -3.924401,6.611195 -1.900436,9.098018 0.696603,-1.322381 1.611784,-2.539759 2.897951,-3.568693 0.652182,-0.521746 1.278491,-1.214775 1.874639,-2.020827 -0.04042,-0.02603 -0.08019,-0.05047 -0.12039,-0.07739 -1.353738,-0.906544 -2.213331,-2.16276 -2.751764,-3.431105 z M 29.01378,36.509833 c -0.912728,0 0.457945,0.819777 0.457945,1.732504 0,0.912727 -1.370673,1.569613 -0.457945,1.569613 0.912726,0 1.651057,-0.738332 1.651057,-1.651059 0,-0.912727 -0.738331,-1.651058 -1.651057,-1.651058 z m 18.926974,2.184213 c -0.446994,0.102987 -0.919821,0.127134 -1.350085,0.352569 -0.645882,0.337198 -1.194053,0.779333 -1.73705,1.384482 -2.171208,2.421936 -2.356825,6.169277 -0.447162,8.203695 0.312609,0.332994 0.66535,0.597463 1.040511,0.799731 1.344622,-3.087564 1.680708,-6.863309 2.975344,-10.224522 -0.168009,-0.162499 -0.331,-0.333467 -0.481558,-0.515955 z M 34.035748,39.57977 c -1.719376,0 0.144918,0.986325 0.144918,2.705702 0,1.719375 -1.29417,2.461361 0.425206,2.461361 1.719376,0 2.542808,-0.334755 2.542808,-2.05413 0,-1.719377 -1.393556,-3.112933 -3.112932,-3.112933 z m 4.729594,6.544038 c -2.49997,0 -3.250415,0.921709 -4.064878,2.68889 -0.278963,0.605281 -0.581595,1.372536 -0.311653,1.930288 0.623437,-0.137442 1.769526,-0.980471 2.44071,-0.875151 2.076174,0.325785 1.8637,2.725966 2.580765,2.971996 0.07518,-0.380244 0.187167,-0.774253 0.386967,-1.160901 0.656422,-1.270192 1.277966,-2.326335 2.347599,-2.743164 -0.401177,-2.084015 -1.191844,-2.811958 -3.37951,-2.811958 z m 4.975712,6.085915 c -0.06386,0.03872 -0.127016,0.03443 -0.189184,0.07739 -0.878847,0.606406 -1.72634,1.655695 -2.244407,3.104334 -0.03329,0.09313 -0.05598,0.189982 -0.08599,0.283775 -0.02116,5.01423 1.087349,0.09647 3.594492,-2.192811 0.111565,-0.10187 0.161803,-0.258097 0.240779,-0.386967 -0.470863,-0.236514 -0.918908,-0.537057 -1.315687,-0.885724 z"
   id="path5408-0-1-6"
   inkscape:connector-curvature="0"
   sodipodi:nodetypes="ccsccccssssscccccccssssssscscccsccccsccc" /><path
   style="fill:none;stroke:#000000;stroke-width:0.60538799;stroke-miterlimit:4;stroke-opacity:1;stroke-dasharray:none"
   d="m 51.43121,28.344393 c -0.91856,0.444558 -1.72158,0.982687 -2.330399,1.891838 -1.826299,2.727218 -1.093359,6.44619 1.633859,8.272489 2.727241,1.826315 6.454788,1.093358 8.28109,-1.63386 0.819458,-1.223701 0.959217,-2.625051 0.799731,-3.981458 -1.718113,0.407622 -3.788603,0.116886 -5.632516,-1.117904 -1.353745,-0.906544 -2.213329,-2.16276 -2.751765,-3.431105 z m -22.285638,7.873444 c -0.912726,0 -1.651058,0.738331 -1.651058,1.651058 0,0.912727 0.738332,1.651058 1.651058,1.651058 0.912728,0 1.651059,-0.738331 1.651059,-1.651058 0,-0.912727 -0.738331,-1.651058 -1.651059,-1.651058 z m 5.030569,3.061337 c -1.719376,0 -3.112933,1.393556 -3.112933,3.112933 0,1.719376 1.393557,3.121531 3.112933,3.121531 1.719376,0 3.112933,-1.402155 3.112933,-3.121531 0,-1.719377 -1.393557,-3.112933 -3.112933,-3.112933 z m 14.124938,-0.684459 c -0.447005,0.102987 -1.327043,0.452918 -1.757314,0.678354 -0.645889,0.337201 -1.185452,0.787932 -1.728452,1.393081 -2.171202,2.421937 -2.365422,6.169278 -0.455761,8.203695 1.909774,2.034305 5.189766,1.579208 7.360968,-0.842727 1.866645,-2.082381 2.121865,-4.891164 0.988914,-6.974002 -1.741276,0.20157 -3.182771,-0.97289 -4.408355,-2.458401 z m -9.582643,7.755547 c -2.499969,0 -4.635002,2.143406 -4.635002,4.643601 0,2.499969 2.135058,4.411421 4.635002,4.411421 0.147732,0 0.304417,0.01284 0.447162,0 0.01782,-0.0016 -0.01782,-0.212486 0,-0.214982 0.132715,-0.660866 -0.07165,-2.006126 0.584749,-3.276318 0.656415,-1.270193 1.286569,-2.334935 2.356198,-2.751764 -0.401171,-2.084015 -1.200443,-2.80336 -3.388109,-2.80336 z m 0.11381,15.990979 c -0.09163,-2.31e-4 -0.17515,-2.03e-4 -0.257978,0.0086 -2.994758,0.322311 -5.044253,1.041334 -5.082163,1.986429 -0.05011,1.260129 3.574271,2.408297 8.169298,2.433592 7.13627,0.104374 11.756248,-1.036127 11.806787,-2.296003 0.02987,-0.77381 -2.604195,-1.845256 -6.148472,-1.823044 -1.358544,1.733036 -3.805918,2.381074 -5.202554,2.081022 -1.396636,-0.30005 -2.088087,-1.559108 -2.442191,-2.381996 -0.263332,0.01806 -0.567826,-0.0079 -0.842727,-0.0086 z"
   id="path5408-0-1-9"
   inkscape:connector-curvature="0"
   sodipodi:nodetypes="cssscscssssssssssccccccccssccsccccccccccsc" /><path
   style="fill:none;stroke:#000000;stroke-width:0.57787037;stroke-miterlimit:4;stroke-opacity:1;stroke-dasharray:none"
   d="m 3.7541326,19.876834 c 0.030753,0.227789 0.465928,0.649088 1.4010766,1.340833 2.4700575,1.827187 8.8553178,5.918942 13.1018358,10.595314 -0.147109,0.327139 -0.281287,0.636841 -0.388531,0.987096 -0.02516,0.082 0.0097,0.174065 -0.01305,0.257615 -4.810671,-1.43685 -12.2810174,-3.319353 -14.701745,-3.859776 -1.394421,-0.311357 -2.45032279,-0.265438 -2.37845399,0.02801 0.043623,0.176323 0.51437549,0.413233 1.53440769,0.779547 2.7081443,0.972431 9.6836563,3.870052 15.2287123,6.084179 0.04718,0.813079 0.139771,1.636781 0.407617,2.527928 -4.09243,0.277331 -9.9495925,1.137104 -12.0509641,1.655772 -1.3871804,0.342037 -2.3507582,0.689961 -2.1919875,0.890645 0.094705,0.120166 0.5839589,0.22451 1.6677466,0.218856 2.858009,-0.01604 7.923518,-0.07697 13.817827,0.09205 0.296351,0.555027 0.611071,1.129295 0.993925,1.706681 -1.97249,1.153614 -3.47539,2.36991 -4.770757,3.206972 -1.89611,1.225281 -2.952203,2.135028 -0.402348,1.244555 1.91243,-0.667717 3.793445,-1.028552 6.760211,-2.248357 0.988785,-0.406884 2.141206,-0.906395 3.415665,-1.548685 l -1.463262,-1.628373 c -6.471573,-8.217398 4.914947,-16.101384 10.193276,-8.963633 l 1.578513,-1.663001 0.996999,-1.093489 c 0.03101,-0.03513 0.864483,-0.980864 0.894193,-1.0153 2.615977,-2.941074 5.183597,-6.110085 6.282842,-8.083074 0.829021,-1.487863 1.283714,-2.579841 -0.85092,-0.51103 -2.061054,1.997499 -4.221745,3.793179 -8.323653,7.332131 -0.428134,-0.331455 -0.866687,-0.613067 -1.322819,-0.871658 1.070669,-4.72494 1.465165,-10.538748 1.41726,-12.506906 -0.05513,-2.286859 -0.950842,-4.178943 -1.5321,-0.340301 -0.473493,3.128138 -1.420051,7.269787 -2.951679,11.727304 C 29.510923,26.10041 28.883765,25.9611 28.284387,25.940721 28.143436,20.513276 26.722715,13.484966 26.06919,11.302247 c -0.69844,-2.332613 -2.130298,-4.0588811 -1.605621,0.06998 0.482584,3.790063 0.715204,9.104643 0.339096,14.952092 -0.278435,0.07891 -0.546249,0.192353 -0.816774,0.291676 -1.733049,-4.938843 -5.123061,-11.165071 -7.940582,-14.350189 -1.613312,-1.823633 -3.662173,-3.0234072 -1.286177,0.369456 2.244836,3.206239 4.598966,9.811323 6.206392,15.859699 -0.344922,0.280077 -0.722507,0.500817 -1.025806,0.82367 C 16.382963,25.11602 8.2983261,21.160365 6.1342568,20.287637 4.7229111,19.718436 3.7024109,19.496438 3.7534296,19.876386 z"
   id="_121731384-6-3-5-5-7"
   inkscape:connector-curvature="0"
   inkscape:transform-center-x="6.2187339"
   inkscape:transform-center-y="-9.3410233"
   sodipodi:nodetypes="cscccccccccccccscccccccccsccccccccccccccccc" /><path
   style="fill:none;stroke:#000000;stroke-width:0.60538799;stroke-miterlimit:4;stroke-opacity:1;stroke-dasharray:none"
   d="m 43.592535,51.876273 c -0.06389,0.03872 -0.127022,0.03443 -0.189184,0.07739 -0.878846,0.606406 -1.734934,1.655698 -2.253006,3.104333 -1.035722,2.897594 -0.476574,6.1592 1.169499,7.206182 1.646023,1.046878 3.779804,-0.370095 4.815588,-3.267721 0.719872,-2.01418 0.717715,-4.263317 0.08599,-5.744305 -1.305112,0.134211 -2.614715,-0.484679 -3.628889,-1.375882 z"
   id="path5408-0-1-9-5"
   inkscape:connector-curvature="0"
   sodipodi:nodetypes="cccccccc" /></svg>