<?xml version="1.0" encoding="UTF-8" standalone="no"?>
<!-- Created with Inkscape (http://www.inkscape.org/) -->

<svg
   xmlns:dc="http://purl.org/dc/elements/1.1/"
   xmlns:cc="http://creativecommons.org/ns#"
   xmlns:rdf="http://www.w3.org/1999/02/22-rdf-syntax-ns#"
   xmlns:svg="http://www.w3.org/2000/svg"
   xmlns="http://www.w3.org/2000/svg"
   xmlns:xlink="http://www.w3.org/1999/xlink"
   xmlns:sodipodi="http://sodipodi.sourceforge.net/DTD/sodipodi-0.dtd"
   xmlns:inkscape="http://www.inkscape.org/namespaces/inkscape"
   id="svg7384"
   version="1.1"
   inkscape:version="0.48.3.1 r9886"
   height="16"
   sodipodi:docname="system-file-manager-symbolic.svg"
   width="16">
  <metadata
     id="metadata90">
    <rdf:RDF>
      <cc:Work
         rdf:about="">
        <dc:format>image/svg+xml</dc:format>
        <dc:type
           rdf:resource="http://purl.org/dc/dcmitype/StillImage" />
        <dc:title>Gnome Symbolic Icon Theme</dc:title>
      </cc:Work>
    </rdf:RDF>
  </metadata>
  <sodipodi:namedview
     inkscape:object-paths="true"
     inkscape:cy="-3.5270386"
     inkscape:current-layer="layer11"
     inkscape:window-width="1914"
     pagecolor="#555753"
     showborder="true"
     showguides="true"
     inkscape:snap-nodes="false"
     objecttolerance="10"
     showgrid="true"
     inkscape:object-nodes="true"
     inkscape:pageshadow="2"
     inkscape:guide-bbox="true"
     inkscape:window-x="0"
     inkscape:snap-bbox="true"
     bordercolor="#666666"
     id="namedview88"
     inkscape:window-maximized="1"
     inkscape:snap-global="true"
     inkscape:window-y="26"
     gridtolerance="10"
     inkscape:zoom="16"
     inkscape:window-height="1030"
     borderopacity="1"
     guidetolerance="10"
     inkscape:snap-bbox-midpoints="false"
     inkscape:cx="17.93296"
     inkscape:bbox-paths="false"
     inkscape:snap-grids="true"
     inkscape:pageopacity="0"
     inkscape:snap-to-guides="true">
    <inkscape:grid
       visible="true"
       spacingx="1px"
       type="xygrid"
       spacingy="1px"
       id="grid4866"
       empspacing="2"
       enabled="true"
       snapvisiblegridlinesonly="true" />
  </sodipodi:namedview>
  <title
     id="title9167">Gnome Symbolic Icon Theme</title>
  <defs
     id="defs7386">
    <linearGradient
       id="linearGradient3776">
      <stop
         id="stop3778"
         offset="0"
         style="stop-color:#b5b5b5;stop-opacity:1;" />
      <stop
         id="stop3780"
         offset="1"
         style="stop-color:#303030;stop-opacity:1;" />
    </linearGradient>
    <linearGradient
       id="linearGradient3760">
      <stop
         style="stop-color:#e4e4e4;stop-opacity:1;"
         offset="0"
         id="stop3762" />
      <stop
         style="stop-color:#7f7f7f;stop-opacity:1;"
         offset="1"
         id="stop3764" />
    </linearGradient>
    <linearGradient
       inkscape:collect="always"
       xlink:href="#linearGradient3760"
       id="linearGradient3766"
       x1="209.0002"
       y1="491"
       x2="211.0002"
       y2="505"
       gradientUnits="userSpaceOnUse" />
    <linearGradient
       inkscape:collect="always"
       xlink:href="#linearGradient3776"
       id="linearGradient3774"
       x1="204.0002"
       y1="493"
       x2="216.0002"
       y2="505"
       gradientUnits="userSpaceOnUse" />
  </defs>
  <g
     transform="translate(-202.0002,-490)"
     inkscape:groupmode="layer"
     id="layer9"
     inkscape:label="status"
     style="display:inline" />
  <g
     transform="translate(-202.0002,-490)"
     inkscape:groupmode="layer"
     id="layer10"
     inkscape:label="devices" />
  <g
     transform="translate(-202.0002,-490)"
     inkscape:groupmode="layer"
     id="layer11"
     inkscape:label="apps">
    <path
       inkscape:connector-curvature="0"
       d="m 205.86656,491.12883 c -1.03507,0 -1.87883,0.87432 -1.87883,1.90568 l 0,9.93098 c 0,1.03136 0.84376,1.90568 1.87883,1.90568 l 8.26688,0 c 1.03507,0 1.87883,-0.87432 1.87883,-1.90568 l 0,-9.93098 c 0,-1.03136 -0.84376,-1.90568 -1.87883,-1.90568 l -8.26688,0 z m -0.16104,2.57669 8.58896,0 0,9.44785 -8.58896,0 0,-9.44785 z m 0.8589,0.8589 0,3.43558 6.898,0 0,-3.43558 -6.898,0 z m 2.01303,1.23466 a 0.42949077,0.42949077 0 0 1 0.0537,0 0.42949077,0.42949077 0 0 1 0.50997,0.42945 l 0,0.0537 1.7178,0 0,-0.0537 a 0.42949077,0.42949077 0 1 1 0.85889,0 l 0,0.0537 c 0,0.4684 -0.3905,0.85889 -0.85889,0.85889 l -1.7178,0 c -0.46839,0 -0.85889,-0.39049 -0.85889,-0.85889 l 0,-0.0537 a 0.42949077,0.42949077 0 0 1 0.29524,-0.42945 z m -1.98619,3.05982 0,3.43558 6.898,0 0,-3.43558 -6.898,0 z m 1.98619,1.23466 a 0.42949077,0.42949077 0 0 1 0.0537,0 0.42949077,0.42949077 0 0 1 0.50997,0.42945 l 0,0.0537 1.7178,0 0,-0.0537 a 0.42949077,0.42949077 0 1 1 0.85889,0 l 0,0.0537 c 0,0.4684 -0.3905,0.85889 -0.85889,0.85889 l -1.7178,0 c -0.46839,0 -0.85889,-0.39049 -0.85889,-0.85889 l 0,-0.0537 a 0.42949077,0.42949077 0 0 1 0.29524,-0.42945 z"
       id="rect11668-7"
       style="color:#000000;fill:url(#linearGradient3766);fill-opacity:1;fill-rule:evenodd;stroke:url(#linearGradient3774);stroke-width:0.25766873000000001;stroke-miterlimit:4;stroke-opacity:1;stroke-dasharray:none;marker:none;visibility:visible;display:inline;overflow:visible;enable-background:accumulate" />
  </g>
  <g
     transform="translate(-202.0002,-490)"
     inkscape:groupmode="layer"
     id="layer12"
     inkscape:label="actions" />
  <g
     transform="translate(-202.0002,-490)"
     inkscape:groupmode="layer"
     id="layer13"
     inkscape:label="places" />
  <g
     transform="translate(-202.0002,-490)"
     inkscape:groupmode="layer"
     id="layer14"
     inkscape:label="mimetypes" />
  <g
     transform="translate(-202.0002,-490)"
     inkscape:groupmode="layer"
     id="layer15"
     inkscape:label="emblems"
     style="display:inline" />
  <g
     transform="translate(-202.0002,-490)"
     inkscape:groupmode="layer"
     id="g4953"
     inkscape:label="categories"
     style="display:inline" />
</svg>
