<?xml version="1.0" encoding="UTF-8" standalone="no"?>
<!-- Created with Inkscape (http://www.inkscape.org/) -->

<svg
   xmlns:dc="http://purl.org/dc/elements/1.1/"
   xmlns:cc="http://creativecommons.org/ns#"
   xmlns:rdf="http://www.w3.org/1999/02/22-rdf-syntax-ns#"
   xmlns:svg="http://www.w3.org/2000/svg"
   xmlns="http://www.w3.org/2000/svg"
   xmlns:sodipodi="http://sodipodi.sourceforge.net/DTD/sodipodi-0.dtd"
   xmlns:inkscape="http://www.inkscape.org/namespaces/inkscape"
   id="svg7384"
   version="1.1"
   inkscape:version="0.48.3.1 r9886"
   height="16"
   sodipodi:docname="chat-huayra.svg"
   width="16">
  <metadata
     id="metadata90">
    <rdf:RDF>
      <cc:Work
         rdf:about="">
        <dc:format>image/svg+xml</dc:format>
        <dc:type
           rdf:resource="http://purl.org/dc/dcmitype/StillImage" />
        <dc:title>Gnome Symbolic Icon Theme</dc:title>
      </cc:Work>
    </rdf:RDF>
  </metadata>
  <sodipodi:namedview
     inkscape:cy="8.0146987"
     inkscape:current-layer="layer9"
     inkscape:window-width="1918"
     pagecolor="#555753"
     showborder="false"
     showguides="true"
     inkscape:snap-nodes="false"
     objecttolerance="10"
     showgrid="false"
     inkscape:object-nodes="true"
     inkscape:pageshadow="2"
     inkscape:guide-bbox="true"
     inkscape:window-x="0"
     inkscape:snap-bbox="true"
     bordercolor="#666666"
     id="namedview88"
     inkscape:window-maximized="1"
     inkscape:snap-global="true"
     inkscape:window-y="25"
     gridtolerance="10"
     inkscape:zoom="40.838427"
     inkscape:window-height="1007"
     borderopacity="1"
     guidetolerance="10"
     inkscape:cx="7.9605454"
     inkscape:bbox-paths="false"
     inkscape:snap-grids="true"
     inkscape:pageopacity="0"
     inkscape:snap-to-guides="true">
    <inkscape:grid
       visible="true"
       spacingx="1px"
       type="xygrid"
       spacingy="1px"
       id="grid4866"
       empspacing="2"
       enabled="true"
       snapvisiblegridlinesonly="true" />
  </sodipodi:namedview>
  <title
     id="title9167">Gnome Symbolic Icon Theme</title>
  <defs
     id="defs7386" />
  <g
     transform="translate(-41.000198,-357)"
     inkscape:groupmode="layer"
     id="layer9"
     inkscape:label="status"
     style="display:inline">
    <path
       style="color:#bebebe;fill:#55ddff;fill-opacity:1;fill-rule:nonzero;stroke:#000000;stroke-width:0.30000000999999998;stroke-miterlimit:4;stroke-opacity:1;stroke-dasharray:none;marker:none;visibility:visible;display:inline;overflow:visible;enable-background:accumulate;stroke-linecap:round;stroke-linejoin:round"
       d="m 44.687698,358.0625 c -1.499506,0.26932 -2.95591,1.24048 -2.75,2.75 0.1942,1.42368 0.260807,2.88382 0,4.4375 -0.252212,1.50248 1.257101,2.44618 2.75,2.75 2.018732,0.41083 3.942909,0.65872 6.434934,-0.12243 1.705566,0.83679 2.039822,2.68808 2.908816,4.12243 l -0.0625,-4.09375 c 1.204532,-0.29284 2.314778,-1.37808 2.09375,-2.65625 -0.229346,-1.32627 -0.159769,-2.85182 0,-4.4375 0.15273,-1.51583 -1.264779,-2.41063 -2.75,-2.75 -2.871974,-0.65624 -5.753455,-0.51575 -8.625,0 z"
       id="path3777"
       inkscape:connector-curvature="0"
       sodipodi:nodetypes="sssscccssss" />
    <path
       style="color:#bebebe;fill:#ffffff;fill-opacity:1;fill-rule:nonzero;stroke:#000000;stroke-width:0.30000001;stroke-linecap:round;stroke-linejoin:round;stroke-miterlimit:4;stroke-opacity:1;stroke-dasharray:none;marker:none;visibility:visible;display:inline;overflow:visible;enable-background:accumulate"
       d="m 47.031448,359.0625 c 0.05673,-0.0728 0.203884,0.13034 0.34375,0.46875 0.213528,0.51661 0.86571,2.55532 0.75,3.875 0.1089,-0.003 0.235224,0.0188 0.34375,0.0313 0.763663,-1.2897 1.484371,-2.79864 1.65625,-3.71875 0.183059,-0.97995 0.32298,-0.42813 0.28125,0.15625 -0.07288,1.0206 -0.56821,2.65163 -1.125,3.78125 0.06163,0.0296 0.12801,0.0596 0.1875,0.0937 1.068235,-0.92013 1.961071,-1.84151 2.53125,-2.5625 0.621084,-0.78538 0.564499,-0.26284 0.28125,0.25 -0.26623,0.48203 -1.243897,1.93688 -2.15625,2.875 0.10154,0.11008 0.16784,0.21703 0.25,0.34375 1.023987,-0.48745 1.913906,-1.02333 2.53125,-1.46875 0.75757,-0.5466 -0.359364,0.62792 -0.742996,1.02262 -0.330161,0.33969 -0.452198,0.55318 -1.444504,1.16488 0.03234,0.12233 0.04913,0.24509 0.0625,0.375 1.298981,0.10901 1.965859,0.1697 2.65625,0.1875 0.715162,0.0184 0.457806,0.11068 0.0625,0.21875 -0.52419,0.14335 -1.797252,0.41362 -2.743237,0.45942 -0.08487,0.0985 -0.01353,0.0245 -0.01353,0.0245 l 0.195894,-0.007 -0.955224,0.11148 c 0.337744,-2.10915 -3.099066,-2.59909 -3.421407,-0.49487 l -0.03125,0.53125 c -0.325001,-0.11084 -0.607329,-0.24228 -0.84375,-0.34375 -0.709264,-0.30441 -1.094414,-0.56507 -1.53125,-0.78125 -0.582462,-0.28826 -0.248623,-0.24453 0.28125,-0.125 0.361995,0.0817 0.844591,0.13666 1.375,0.28125 0.03599,-0.16885 0.04564,-0.35086 0.09375,-0.5 -0.95801,-1.03471 -1.799441,-1.85762 -2.28125,-2.34375 -0.489511,-0.49387 -0.18665,-0.41416 0.28125,-0.125 0.443018,0.27379 1.575639,1.15592 2.3125,1.8125 0.109517,-0.19336 0.211402,-0.38641 0.34375,-0.53125 -0.551971,-1.32316 -1.212256,-2.99858 -1.5,-3.625 -0.290272,-0.63199 -0.0089,-0.43605 0.28125,0.0313 0.314795,0.50702 1.249273,2.08752 1.8125,3.15625 0.09491,-0.0528 0.18216,-0.0886 0.28125,-0.125 0.09248,-1.5211 -0.272634,-3.2962 -0.375,-4.03125 -0.03858,-0.2772 -0.06529,-0.42515 -0.03125,-0.46875 z"
       id="path3775"
       inkscape:connector-curvature="0"
       sodipodi:nodetypes="ccccsscccsccssccccccccccscccccsccccccccc" />
    <path
       style="color:#bebebe;fill:#ffffff;fill-opacity:1;fill-rule:nonzero;stroke:#000000;stroke-width:0.30000001;stroke-miterlimit:4;stroke-opacity:1;stroke-dasharray:none;marker:none;visibility:visible;display:inline;overflow:visible;enable-background:accumulate"
       d="m 48.187698,365.53125 c 0.316376,-0.0244 0.621098,0.11173 0.78125,0.40625 l 0.03125,0.0313 c 0.208112,0.40348 0.02848,0.69651 -0.375,0.90462 -0.403473,0.20812 -0.916887,0.24888 -1.125,-0.15462 -0.208116,-0.40347 -0.02848,-0.88564 0.375,-1.09375 0.09931,-0.0512 0.207041,-0.0856 0.3125,-0.0937 z"
       id="rect11261"
       inkscape:connector-curvature="0"
       sodipodi:nodetypes="cccccccc" />
  </g>
  <g
     transform="translate(-41.000198,-357)"
     inkscape:groupmode="layer"
     id="layer10"
     inkscape:label="devices" />
  <g
     transform="translate(-41.000198,-357)"
     inkscape:groupmode="layer"
     id="layer11"
     inkscape:label="apps" />
  <g
     transform="translate(-41.000198,-357)"
     inkscape:groupmode="layer"
     id="layer12"
     inkscape:label="actions" />
  <g
     transform="translate(-41.000198,-357)"
     inkscape:groupmode="layer"
     id="layer13"
     inkscape:label="places" />
  <g
     transform="translate(-41.000198,-357)"
     inkscape:groupmode="layer"
     id="layer14"
     inkscape:label="mimetypes" />
  <g
     transform="translate(-41.000198,-357)"
     inkscape:groupmode="layer"
     id="layer15"
     inkscape:label="emblems"
     style="display:inline" />
  <g
     transform="translate(-41.000198,-357)"
     inkscape:groupmode="layer"
     id="g4953"
     inkscape:label="categories"
     style="display:inline" />
</svg>
