<?xml version="1.0" encoding="UTF-8" standalone="no"?>
<!-- Created with Inkscape (http://www.inkscape.org/) -->

<svg
   xmlns:dc="http://purl.org/dc/elements/1.1/"
   xmlns:cc="http://creativecommons.org/ns#"
   xmlns:rdf="http://www.w3.org/1999/02/22-rdf-syntax-ns#"
   xmlns:svg="http://www.w3.org/2000/svg"
   xmlns="http://www.w3.org/2000/svg"
   xmlns:sodipodi="http://sodipodi.sourceforge.net/DTD/sodipodi-0.dtd"
   xmlns:inkscape="http://www.inkscape.org/namespaces/inkscape"
   width="256"
   height="256"
   id="svg5266"
   version="1.1"
   inkscape:version="0.48.3.1 r9886"
   sodipodi:docname="preferences-desktop-locale.svg">
  <defs
     id="defs5268" />
  <sodipodi:namedview
     id="base"
     pagecolor="#ffffff"
     bordercolor="#666666"
     borderopacity="1.0"
     inkscape:pageopacity="0.0"
     inkscape:pageshadow="2"
     inkscape:zoom="2.8558559"
     inkscape:cx="136.63203"
     inkscape:cy="111.1848"
     inkscape:document-units="px"
     inkscape:current-layer="layer1"
     showgrid="false"
     inkscape:window-width="1918"
     inkscape:window-height="1007"
     inkscape:window-x="0"
     inkscape:window-y="25"
     inkscape:window-maximized="1" />
  <metadata
     id="metadata5271">
    <rdf:RDF>
      <cc:Work
         rdf:about="">
        <dc:format>image/svg+xml</dc:format>
        <dc:type
           rdf:resource="http://purl.org/dc/dcmitype/StillImage" />
        <dc:title />
      </cc:Work>
    </rdf:RDF>
  </metadata>
  <g
     inkscape:label="Capa 1"
     inkscape:groupmode="layer"
     id="layer1"
     transform="translate(0,-796.36218)">
    <path
       transform="matrix(-0.00430507,-0.99999073,0.99998792,-0.00491528,0,0)"
       style="fill:#55ddff;fill-rule:evenodd;stroke:#000000;stroke-width:6.85800076000000036;stroke-miterlimit:4;stroke-opacity:1;fill-opacity:1"
       d="m -1005.3076,14.498597 c 51.24843,4.089018 101.64148,10.370346 158.53161,0 20.09575,-3.6632 40.34071,24.511831 36.8677,54.51479 -4.55155,39.320443 -4.74523,77.571483 0,114.610543 3.83754,29.95405 -16.52615,56.34358 -36.8677,54.51479 -53.89581,-4.84545 -106.90353,-5.60016 -158.53161,0 -20.3069,2.20272 -42.5117,-24.84223 -36.8677,-54.51479 7.1253,-37.45994 4.3279,-75.95539 0,-114.610543 -3.3601,-30.01164 16.5087,-56.139198 36.8677,-54.51479 z"
       id="rect7046-0-2-9-1-0-8-5-5-4-7-6"
       inkscape:connector-curvature="0"
       sodipodi:nodetypes="sssssssss" />
    <path
       id="path7050-7-1-0-9-3-8-0-1-8-5-9"
       d="m 99.219172,809.00834 c 19.341618,-3.20295 106.046128,-1.56906 120.563588,5.6826 13.46074,6.72313 19.21419,20.50522 19.66612,37.95333 l 2.07586,80.07548"
       class="fil2"
       inkscape:connector-curvature="0"
       style="fill:none" />
    <path
       id="path7050-7-1-0-8-5-2-6-8-5-7-1"
       d="m 99.219172,809.00834 c 19.341618,-3.20295 106.046128,-1.56906 120.563588,5.6826 13.46074,6.72313 19.21419,20.50522 19.66612,37.95333 l 2.07586,80.07548"
       class="fil2"
       inkscape:connector-curvature="0"
       style="fill:none" />
    <path
       style="fill:none"
       inkscape:connector-curvature="0"
       id="path11198-0-0-4-1-1-4-7"
       d="m 165.56386,978.7176 c 11.76734,9.40763 18.107,-1.39342 20.79903,-7.4897 4.68408,-10.59714 -23.55277,-38.36601 -33.17069,-48.44967 -19.23738,-20.16886 -40.3908,-42.34648 -59.141772,-62.98073"
       class="fil2" />
    <path
       style="fill:none"
       inkscape:connector-curvature="0"
       id="path11198-0-0-4-2-88-5-1"
       d="m 112.98152,989.72221 c -6.31967,15.73559 1.53441,13.68409 5.94063,11.81109 7.65949,-3.25185 26.50888,-44.45692 33.37271,-58.90681 13.72905,-28.90236 28.82566,-60.68308 42.89927,-89.50133"
       class="fil2" />
    <path
       style="fill:#ffffff;fill-opacity:1;fill-rule:evenodd;stroke:#000000;stroke-width:4;stroke-linecap:round;stroke-linejoin:round;stroke-miterlimit:4;stroke-opacity:1;stroke-dasharray:none"
       d="m 137.57866,847.69404 c -0.85407,0.0293 -1.99584,2.17993 -3.36977,7.30751 -3.21551,12.00141 -9.13926,42.05536 -20.40932,65.00778 -1.84881,-0.0791 -3.72485,-0.0121 -5.61813,0.20718 -1.7366,-20.29727 -5.55281,-50.99932 -7.10481,-60.90044 -1.435644,-9.16183 -4.724755,-13.76248 -4.367955,-2.04358 0.354043,11.63444 -0.213563,42.15809 -0.332151,66.34707 -2.908697,1.36101 -5.814808,3.12743 -8.689204,5.33528 -7.143414,-15.01887 -19.333912,-35.63744 -24.391856,-42.76655 -5.366481,-7.56312 -9.159766,-11.30573 -4.802495,-0.42126 4.298838,10.73882 11.921778,29.52012 20.023726,51.95061 -1.679201,1.94724 -3.33496,4.0708 -4.958487,6.38259 -7.256315,-5.69381 -14.088951,-9.56552 -19.154651,-13.19764 -7.442989,-5.33649 -12.330461,-7.76876 -5.17929,0.53261 6.665957,7.73843 11.41657,15.95655 26.023139,29.52875 l 3.449758,3.41856 c 0.424368,-1.10746 0.866835,-2.17149 1.326021,-3.19569 l 2.279901,-4.51964 c 14.290042,-32.698 71.946624,-1.35937 50.691994,24.76848 l 12.88496,5.38199 -0.007,0.0202 c 15.04007,5.5335 35.68983,12.63003 44.88132,13.86175 6.84797,0.9177 11.76888,0.9802 0.78444,-4.00252 -10.68332,-4.84662 -20.28073,-10.23034 -40.03418,-20.60547 0.64345,-2.10719 1.11004,-4.2242 1.40841,-6.33811 19.36873,-3.00367 53.16345,-11.31974 60.48923,-14.41218 8.54941,-3.60937 3.11772,-8.61315 -12.23606,-5.10134 -12.50249,2.85992 -29.41533,5.3701 -48.50052,6.21556 -0.43247,-2.4552 -1.07229,-4.85903 -1.89879,-7.18944 20.27193,-8.60353 36.51745,-17.40368 43.78238,-23.11214 7.76635,-6.1018 20.2853,-20.93526 5.48275,-12.81918 -13.63028,7.47315 -27.35817,17.5945 -50.07651,24.87891 -0.7398,-0.98456 -2.23601,-3.76476 -3.81462,-5.92327 16.07256,-13.88245 30.25735,-34.07466 38.09712,-49.45395 4.48672,-8.80003 5.84256,-18.45829 -3.43648,-4.44363 -8.67921,13.1087 -29.74386,31.6561 -50.00269,46.63757 -1.55097,-0.88752 -3.15605,-1.6711 -4.80698,-2.34005 10.41356,-19.7588 13.69844,-46.40199 13.77549,-55.80789 0.0472,-5.71036 -1.01894,-19.22873 -2.18914,-19.1884 z"
       id="_121731384-68"
       inkscape:connector-curvature="0"
       sodipodi:nodetypes="cccccccccscccccccccccsccccccccscccsccccc" />
    <path
       transform="matrix(5.1917878,0,0,5.1917878,50.026636,902.64867)"
       style="fill:#ffffff;fill-opacity:1;fill-rule:evenodd;stroke:#000000;stroke-width:0.77044749;stroke-miterlimit:4;stroke-opacity:1"
       d="m 13.844562,12.550547 c 0.112017,1.470034 -1.156559,1.997953 -2.626594,2.10997 -1.4700346,0.112018 -2.5848548,-0.234285 -2.6968722,-1.704319 -0.1120173,-1.470035 0.9888732,-2.752542 2.4589082,-2.864559 1.447376,-0.1102906 2.726045,1.134289 2.867928,2.578911"
       id="path3582-5"
       inkscape:connector-curvature="0"
       sodipodi:nodetypes="csssc" />
  </g>
</svg>
