<?xml version="1.0" encoding="UTF-8" standalone="no"?>
<!-- Created with Inkscape (http://www.inkscape.org/) -->

<svg
   xmlns:dc="http://purl.org/dc/elements/1.1/"
   xmlns:cc="http://creativecommons.org/ns#"
   xmlns:rdf="http://www.w3.org/1999/02/22-rdf-syntax-ns#"
   xmlns:svg="http://www.w3.org/2000/svg"
   xmlns="http://www.w3.org/2000/svg"
   xmlns:sodipodi="http://sodipodi.sourceforge.net/DTD/sodipodi-0.dtd"
   xmlns:inkscape="http://www.inkscape.org/namespaces/inkscape"
   id="svg7384"
   version="1.1"
   inkscape:version="0.48.3.1 r9886"
   height="16"
   sodipodi:docname="pidgin-tray-email.svg"
   width="16">
  <metadata
     id="metadata90">
    <rdf:RDF>
      <cc:Work
         rdf:about="">
        <dc:format>image/svg+xml</dc:format>
        <dc:type
           rdf:resource="http://purl.org/dc/dcmitype/StillImage" />
        <dc:title>Gnome Symbolic Icon Theme</dc:title>
      </cc:Work>
    </rdf:RDF>
  </metadata>
  <sodipodi:namedview
     inkscape:cy="8.975215"
     inkscape:current-layer="layer9"
     inkscape:window-width="1914"
     pagecolor="#555753"
     showborder="true"
     showguides="true"
     inkscape:snap-nodes="false"
     objecttolerance="10"
     showgrid="true"
     inkscape:object-nodes="true"
     inkscape:pageshadow="2"
     inkscape:guide-bbox="true"
     inkscape:window-x="0"
     inkscape:snap-bbox="true"
     bordercolor="#666666"
     id="namedview88"
     inkscape:window-maximized="1"
     inkscape:snap-global="true"
     inkscape:window-y="25"
     gridtolerance="10"
     inkscape:zoom="16"
     inkscape:window-height="1031"
     borderopacity="1"
     guidetolerance="10"
     inkscape:cx="16.004815"
     inkscape:bbox-paths="false"
     inkscape:snap-grids="true"
     inkscape:pageopacity="0"
     inkscape:snap-to-guides="true">
    <inkscape:grid
       visible="true"
       spacingx="1px"
       type="xygrid"
       spacingy="1px"
       id="grid4866"
       empspacing="2"
       enabled="true"
       snapvisiblegridlinesonly="true"
       dotted="false" />
  </sodipodi:namedview>
  <title
     id="title9167">Gnome Symbolic Icon Theme</title>
  <defs
     id="defs7386" />
  <g
     transform="translate(-41.000198,-357)"
     inkscape:groupmode="layer"
     id="layer9"
     inkscape:label="status"
     style="display:inline">
    <path
       style="color:#bebebe;fill:#4ecae9;fill-opacity:1;fill-rule:nonzero;stroke:none;stroke-width:2.40000010000000019;marker:none;visibility:visible;display:inline;overflow:visible;enable-background:accumulate"
       d="m 45.267855,359 c -1.318545,0 -2.380045,1.0615 -2.380045,2.38004 l 0,3.84053 c 0,1.31855 1.0615,2.38005 2.380045,2.38005 l 5.463285,0 2.623458,3.46188 -0.05409,-3.54302 c 1.042488,-0.25345 1.81208,-1.17627 1.81208,-2.29891 l 0,-3.84053 c 0,-1.31854 -1.0615,-2.38004 -2.380045,-2.38004 l -7.464686,0 z m 0.622057,1.67685 a 0.49460139,0.49460139 0 0 1 0.05409,0 0.49460139,0.49460139 0 0 1 0.05409,0 0.49460139,0.49460139 0 0 1 0.02705,0 l 5.950112,0 a 0.49460139,0.49460139 0 0 1 0.486827,0.48683 l 0,4.46258 a 0.49460139,0.49460139 0 0 1 -0.486827,0.48683 l -5.950112,0 a 0.49460139,0.49460139 0 0 1 -0.486827,-0.48683 l 0,-4.46258 a 0.49460139,0.49460139 0 0 1 0.351597,-0.48683 z m 1.460482,1.0007 1.649804,1.32525 1.649804,-1.32525 -3.299608,0 z m -0.811379,0.6491 0,2.81278 4.922366,0 0,-2.81278 -2.163677,1.7039 -0.297506,0.24341 -0.297506,-0.24341 -2.163677,-1.7039 z"
       id="rect11261"
       inkscape:connector-curvature="0" />
  </g>
  <g
     transform="translate(-41.000198,-357)"
     inkscape:groupmode="layer"
     id="layer10"
     inkscape:label="devices" />
  <g
     transform="translate(-41.000198,-357)"
     inkscape:groupmode="layer"
     id="layer11"
     inkscape:label="apps" />
  <g
     transform="translate(-41.000198,-357)"
     inkscape:groupmode="layer"
     id="layer12"
     inkscape:label="actions" />
  <g
     transform="translate(-41.000198,-357)"
     inkscape:groupmode="layer"
     id="layer13"
     inkscape:label="places" />
  <g
     transform="translate(-41.000198,-357)"
     inkscape:groupmode="layer"
     id="layer14"
     inkscape:label="mimetypes" />
  <g
     transform="translate(-41.000198,-357)"
     inkscape:groupmode="layer"
     id="layer15"
     inkscape:label="emblems"
     style="display:inline" />
  <g
     transform="translate(-41.000198,-357)"
     inkscape:groupmode="layer"
     id="g4953"
     inkscape:label="categories"
     style="display:inline" />
</svg>
