<?xml version="1.0" encoding="UTF-8" standalone="no"?>
<!-- Created with Inkscape (http://www.inkscape.org/) -->

<svg
   xmlns:dc="http://purl.org/dc/elements/1.1/"
   xmlns:cc="http://creativecommons.org/ns#"
   xmlns:rdf="http://www.w3.org/1999/02/22-rdf-syntax-ns#"
   xmlns:svg="http://www.w3.org/2000/svg"
   xmlns="http://www.w3.org/2000/svg"
   xmlns:sodipodi="http://sodipodi.sourceforge.net/DTD/sodipodi-0.dtd"
   xmlns:inkscape="http://www.inkscape.org/namespaces/inkscape"
   width="256"
   height="256"
   viewBox="0 0 67.733332 67.733335"
   version="1.1"
   id="svg18205"
   inkscape:version="0.92.1 r15371"
   sodipodi:docname="imagen.svg">
  <defs
     id="defs18199" />
  <sodipodi:namedview
     id="base"
     pagecolor="#ffffff"
     bordercolor="#666666"
     borderopacity="1.0"
     inkscape:pageopacity="0.0"
     inkscape:pageshadow="2"
     inkscape:zoom="1.1794051"
     inkscape:cx="230.97387"
     inkscape:cy="112.39905"
     inkscape:document-units="mm"
     inkscape:current-layer="layer1"
     showgrid="false"
     units="px"
     inkscape:window-width="1918"
     inkscape:window-height="1023"
     inkscape:window-x="0"
     inkscape:window-y="26"
     inkscape:window-maximized="1"
     inkscape:snap-global="false" />
  <metadata
     id="metadata18202">
    <rdf:RDF>
      <cc:Work
         rdf:about="">
        <dc:format>image/svg+xml</dc:format>
        <dc:type
           rdf:resource="http://purl.org/dc/dcmitype/StillImage" />
        <dc:title></dc:title>
      </cc:Work>
    </rdf:RDF>
  </metadata>
  <g
     inkscape:label="Capa 1"
     inkscape:groupmode="layer"
     id="layer1"
     transform="translate(0,-229.26665)">
    <g
       id="g8791-4-5"
       transform="matrix(1.5614879,0,0,1.5614879,0.79748005,-472.20405)">
      <g
         transform="matrix(0.35277777,0,0,-0.35277777,42.629299,470.98756)"
         id="g52-0-0-3-9">
        <path
           inkscape:connector-curvature="0"
           id="path54-9-3-1-7"
           style="fill:#199453;fill-opacity:1;fill-rule:nonzero;stroke:none"
           d="m 0,0 c 0,-33.462 -27.127,-60.588 -60.589,-60.588 -33.462,0 -60.588,27.126 -60.588,60.588 0,33.462 27.126,60.588 60.588,60.588 C -27.127,60.588 0,33.462 0,0" />
      </g>
      <path
         d="m 21.672267,467.43713 c 2.750276,-0.0708 5.113744,1.96312 5.385581,4.68719 l 0.01016,0.11143 c 0.221456,2.8614 -1.952817,5.35576 -4.860281,5.57383 -2.907582,0.21793 -5.447257,-1.92198 -5.668798,-4.78341 -0.221473,-2.86147 1.957999,-5.35583 4.865514,-5.5739 0.08942,-0.007 0.179085,-0.0152 0.267756,-0.0169 z m 1.33546,-6.03598 c -1.229482,0.008 -2.7139,0.0882 -4.143787,0.0793 -1.634208,-0.008 -1.891479,3.16584 -1.891479,3.16584 l -2.320878,0.0198 v -0.51431 c 0,-0.17199 -0.14259,-0.31226 -0.317376,-0.31226 H 11.90764 c -0.174833,0 -0.317358,0.14022 -0.317358,0.31226 v 0.53888 h -0.01981 c -1.8694637,-10e-6 -3.1545932,1.4851 -3.1545932,3.32496 v 9.24034 c 0,1.83993 1.5028595,3.31891 3.3723412,3.31891 h 18.927425 c 1.869481,0 3.378522,-1.47898 3.378522,-3.31891 v -9.24034 c 0,-1.83986 -1.509041,-3.32497 -3.378522,-3.32497 l -5.313608,-0.14717 c 0,0 -0.574715,-3.10966 -1.891479,-3.13523 -0.164606,0 -0.328297,-0.008 -0.50398,-0.008 z"
         style="fill:#e69732;fill-opacity:1;stroke:#000000;stroke-width:0.69999999;stroke-miterlimit:4;stroke-dasharray:none;stroke-opacity:1"
         id="path6027-4-1-7"
         inkscape:connector-curvature="0" />
      <path
         d="m 25.14996,472.50276 a 3.2897954,3.2897954 0 0 1 -3.012396,3.52886 3.2897954,3.2897954 0 0 1 -3.545247,-2.99309 3.2897954,3.2897954 0 0 1 2.973694,-3.56153 3.2897954,3.2897954 0 0 1 3.57771,2.9542"
         sodipodi:open="true"
         sodipodi:end="6.1852898"
         sodipodi:start="6.2071239"
         sodipodi:ry="3.2897954"
         sodipodi:rx="3.2897954"
         sodipodi:cy="472.75275"
         sodipodi:cx="21.869677"
         sodipodi:type="arc"
         id="path8479-1-6"
         style="opacity:1;fill:#822b86;fill-opacity:1;fill-rule:nonzero;stroke:#03140b;stroke-width:0.69999999;stroke-linecap:round;stroke-linejoin:miter;stroke-miterlimit:4;stroke-dasharray:none;stroke-dashoffset:0;stroke-opacity:1;paint-order:fill markers stroke" />
    </g>
  </g>
</svg>
