<?xml version="1.0" encoding="UTF-8" standalone="no"?>
<!-- Created with Inkscape (http://www.inkscape.org/) -->

<svg
   xmlns:dc="http://purl.org/dc/elements/1.1/"
   xmlns:cc="http://creativecommons.org/ns#"
   xmlns:rdf="http://www.w3.org/1999/02/22-rdf-syntax-ns#"
   xmlns:svg="http://www.w3.org/2000/svg"
   xmlns="http://www.w3.org/2000/svg"
   xmlns:xlink="http://www.w3.org/1999/xlink"
   xmlns:sodipodi="http://sodipodi.sourceforge.net/DTD/sodipodi-0.dtd"
   xmlns:inkscape="http://www.inkscape.org/namespaces/inkscape"
   width="256"
   height="256"
   id="svg5121"
   version="1.1"
   inkscape:version="0.48.3.1 r9886"
   sodipodi:docname="gtk-print-error.svg">
  <defs
     id="defs5123">
    <linearGradient
       id="linearGradient3871"
       gradientUnits="userSpaceOnUse"
       x1="77.762001"
       y1="75.677498"
       x2="229.189"
       y2="264.96301">
      <stop
         offset="0"
         style="stop-color:#58A6D8"
         id="stop3873" />
      <stop
         id="stop3875"
         style="stop-color:#548bbb;stop-opacity:1;"
         offset="0.470588" />
      <stop
         offset="0.7104519"
         style="stop-color:#50719E"
         id="stop3877" />
      <stop
         offset="1"
         style="stop-color:#386EAB"
         id="stop3879" />
    </linearGradient>
    <linearGradient
       id="id9-9"
       gradientUnits="userSpaceOnUse"
       x1="77.762001"
       y1="75.677498"
       x2="229.189"
       y2="264.96301">
      <stop
         offset="0"
         style="stop-color:#58A6D8"
         id="stop3151-8" />
      <stop
         id="stop4258-1"
         style="stop-color:#548bbb;stop-opacity:1;"
         offset="0.470588" />
      <stop
         offset="0.941176"
         style="stop-color:#50719E"
         id="stop3153-82" />
      <stop
         offset="1"
         style="stop-color:#386EAB"
         id="stop3155-6" />
    </linearGradient>
    <linearGradient
       inkscape:collect="always"
       xlink:href="#id9-9"
       id="linearGradient3781"
       x1="46.160713"
       y1="984.31909"
       x2="215.34833"
       y2="984.31909"
       gradientUnits="userSpaceOnUse"
       spreadMethod="reflect" />
    <linearGradient
       inkscape:collect="always"
       xlink:href="#id9-9"
       id="linearGradient3783"
       x1="138.66939"
       y1="864.99664"
       x2="170.7412"
       y2="864.99664"
       gradientUnits="userSpaceOnUse"
       spreadMethod="reflect" />
    <linearGradient
       inkscape:collect="always"
       xlink:href="#id9-9"
       id="linearGradient3785"
       x1="2.6213412"
       y1="903.35083"
       x2="253.80396"
       y2="903.35083"
       gradientUnits="userSpaceOnUse"
       spreadMethod="reflect" />
    <linearGradient
       inkscape:collect="always"
       xlink:href="#id9-9"
       id="linearGradient3787"
       x1="174.884"
       y1="865.005"
       x2="206.95581"
       y2="865.005"
       gradientUnits="userSpaceOnUse"
       spreadMethod="reflect" />
    <linearGradient
       spreadMethod="reflect"
       gradientUnits="userSpaceOnUse"
       y2="8"
       x2="12.98246"
       y1="8"
       x1="3.01754"
       id="linearGradient4201"
       xlink:href="#id9"
       inkscape:collect="always" />
    <linearGradient
       y2="264.96301"
       x2="229.189"
       y1="75.677498"
       x1="77.762001"
       gradientUnits="userSpaceOnUse"
       id="id9">
      <stop
         id="stop3151"
         style="stop-color:#58A6D8"
         offset="0" />
      <stop
         offset="0.470588"
         style="stop-color:#548bbb;stop-opacity:1;"
         id="stop4258" />
      <stop
         id="stop3153"
         style="stop-color:#50719E"
         offset="0.941176" />
      <stop
         id="stop3155"
         style="stop-color:#386EAB"
         offset="1" />
    </linearGradient>
    <linearGradient
       inkscape:collect="always"
       xlink:href="#id9"
       id="linearGradient3066"
       gradientUnits="userSpaceOnUse"
       spreadMethod="reflect"
       x1="3.01754"
       y1="8"
       x2="12.98246"
       y2="8" />
    <linearGradient
       inkscape:collect="always"
       xlink:href="#id9"
       id="linearGradient3068"
       gradientUnits="userSpaceOnUse"
       spreadMethod="reflect"
       x1="3.01754"
       y1="8"
       x2="12.98246"
       y2="8" />
    <linearGradient
       inkscape:collect="always"
       xlink:href="#id9"
       id="linearGradient3070"
       gradientUnits="userSpaceOnUse"
       spreadMethod="reflect"
       x1="3.01754"
       y1="8"
       x2="12.98246"
       y2="8" />
    <linearGradient
       inkscape:collect="always"
       xlink:href="#id9"
       id="linearGradient3072"
       gradientUnits="userSpaceOnUse"
       spreadMethod="reflect"
       x1="3.01754"
       y1="8"
       x2="12.98246"
       y2="8" />
    <linearGradient
       inkscape:collect="always"
       xlink:href="#id9"
       id="linearGradient3074"
       gradientUnits="userSpaceOnUse"
       spreadMethod="reflect"
       x1="3.01754"
       y1="8"
       x2="12.98246"
       y2="8" />
    <linearGradient
       inkscape:collect="always"
       xlink:href="#id9"
       id="linearGradient3076"
       gradientUnits="userSpaceOnUse"
       spreadMethod="reflect"
       x1="3.01754"
       y1="8"
       x2="12.98246"
       y2="8" />
    <linearGradient
       inkscape:collect="always"
       xlink:href="#id9"
       id="linearGradient3078"
       gradientUnits="userSpaceOnUse"
       spreadMethod="reflect"
       x1="3.01754"
       y1="8"
       x2="12.98246"
       y2="8" />
    <linearGradient
       inkscape:collect="always"
       xlink:href="#id9"
       id="linearGradient3080"
       gradientUnits="userSpaceOnUse"
       spreadMethod="reflect"
       x1="3.01754"
       y1="8"
       x2="12.98246"
       y2="8" />
    <linearGradient
       inkscape:collect="always"
       xlink:href="#id9"
       id="linearGradient3861"
       x1="-116.0766"
       y1="1012.1856"
       x2="-253.98442"
       y2="1012.1856"
       gradientUnits="userSpaceOnUse"
       gradientTransform="translate(361.33618,-22.982513)" />
    <linearGradient
       inkscape:collect="always"
       xlink:href="#linearGradient3871"
       id="linearGradient3869"
       x1="-116.0766"
       y1="1012.1856"
       x2="-253.98442"
       y2="1012.1856"
       gradientUnits="userSpaceOnUse"
       gradientTransform="translate(361.33618,-22.982513)" />
  </defs>
  <sodipodi:namedview
     id="base"
     pagecolor="#ffffff"
     bordercolor="#666666"
     borderopacity="1.0"
     inkscape:pageopacity="0.0"
     inkscape:pageshadow="2"
     inkscape:zoom="1.1748063"
     inkscape:cx="43.128501"
     inkscape:cy="83.564975"
     inkscape:document-units="px"
     inkscape:current-layer="layer1"
     showgrid="false"
     inkscape:window-width="1918"
     inkscape:window-height="1032"
     inkscape:window-x="0"
     inkscape:window-y="25"
     inkscape:window-maximized="1" />
  <metadata
     id="metadata5126">
    <rdf:RDF>
      <cc:Work
         rdf:about="">
        <dc:format>image/svg+xml</dc:format>
        <dc:type
           rdf:resource="http://purl.org/dc/dcmitype/StillImage" />
        <dc:title></dc:title>
      </cc:Work>
    </rdf:RDF>
  </metadata>
  <g
     inkscape:label="Capa 1"
     inkscape:groupmode="layer"
     id="layer1"
     transform="translate(0,-796.36218)">
    <rect
       style="fill:url(#linearGradient3787);fill-opacity:1.0;stroke:none"
       width="32.071808"
       height="20.70857"
       ry="2.7455945"
       rx="3.3597281"
       id="rect4899"
       y="854.6507"
       x="174.884" />
    <path
       style="font-size:medium;font-style:normal;font-variant:normal;font-weight:normal;font-stretch:normal;text-indent:0;text-align:start;text-decoration:none;line-height:normal;letter-spacing:normal;word-spacing:normal;text-transform:none;direction:ltr;block-progression:tb;writing-mode:lr-tb;text-anchor:start;color:#000000;fill:url(#linearGradient3785);fill-opacity:1;stroke:none;stroke-width:2;marker:none;visibility:visible;display:inline;overflow:visible;enable-background:accumulate;font-family:Bitstream Vera Sans;-inkscape-font-specification:Bitstream Vera Sans"
       id="path41043-9"
       d="M 30.529114,992.98702 C 14.464724,993.47821 2.6213413,983.67746 2.6213413,962.90651 l 0,-116.65968 C 5.1920646,834.52147 17.126528,814.00536 30.529114,813.94407 l 0,-0.24703 1.839316,0 193.74054,0 c 14.59492,0.21665 27.35388,22.84278 27.69498,32.54979 0,0 0,104.25115 0,117.15294 -0.55827,17.72233 -2.52689,-2.41391 -16.96863,-2.33291 l -48.38207,2.12801 -3.83042,-4.72777 c 0,0 4.75104,0 14.4896,0 9.73856,0 28.33312,-5.09604 28.33312,-18.65866 0,-13.56262 0,-58.05637 0,-67.29114 0,-9.23477 -1.95,-23.88256 -29.27481,-23.88256 -27.99688,0 -110.866195,-1.01591 -135.006536,-1.44147 -21.224034,-0.37415 -28.855586,9.32598 -28.855586,34.05147 0,24.72549 0,40.37955 0,54.6514 0,14.27185 8.227546,22.09985 17.82989,22.13984 10.419676,0.0434 17.82989,0.43112 17.82989,0.43112 l 0,34.51992 z"
       inkscape:connector-curvature="0"
       sodipodi:nodetypes="cccccccccccczzzsszzsccc" />
    <rect
       style="fill:url(#linearGradient3783);fill-opacity:1.0;stroke:none"
       width="32.071808"
       height="20.70857"
       ry="2.7455945"
       rx="3.3597281"
       id="rect4899-2"
       y="854.64233"
       x="138.66939" />
    <path
       style="font-size:medium;font-style:normal;font-variant:normal;font-weight:normal;font-stretch:normal;text-indent:0;text-align:start;text-decoration:none;line-height:normal;letter-spacing:normal;word-spacing:normal;text-transform:none;direction:ltr;block-progression:tb;writing-mode:lr-tb;text-anchor:start;baseline-shift:baseline;color:#000000;fill:url(#linearGradient3781);fill-opacity:1;stroke:none;stroke-width:1.99999988;marker:none;visibility:visible;display:inline;overflow:visible;enable-background:accumulate;font-family:Sans;-inkscape-font-specification:Sans"
       sodipodi:nodetypes="ccccccccccccccccccccc"
       id="path1234-3"
       d="m 58.659194,1047.4853 c -7.05026,-1.3818 -12.6228,-8.424 -12.49637,-15.793 l 0,-110.55145 30.76031,0 107.588246,0.1079 2.85899,25.98926 -110.447236,-1.58989 0,70.25108 61.520616,0 97.03728,-9.5006 3.58026,-41.28338 -54.47707,-43.97437 30.76031,0 22.55691,32.58295 c 0.0923,4.17094 -1.5011,42.82829 -4.32567,45.82582 l -77.34871,43.49398 c -2.91885,2.9011 -6.9932,4.5384 -11.05449,4.4417 l -83.629596,0 c -0.47986,0.016 -0.96126,0.016 -1.44112,0 -0.47986,0.016 -0.96126,0.016 -1.44112,0 z"
       inkscape:connector-curvature="0" />
    <path
       inkscape:connector-curvature="0"
       id="path7"
       d="m 181.83849,909.77066 c -38.2533,0 -69.21796,30.96465 -69.21796,69.21793 0,38.25331 30.96466,69.21801 69.21796,69.21801 38.25332,0 69.21797,-30.9647 69.21797,-69.21801 0,-38.25327 -30.96465,-69.21792 -69.21797,-69.21792 z m -47.3635,54.63615 94.72701,0 0,29.14538 -94.72701,0 0,-29.14538 z"
       style="fill:url(#linearGradient3861);fill-opacity:1;fill-rule:nonzero;stroke:url(#linearGradient3869);stroke-width:2;stroke-miterlimit:4;stroke-opacity:1;stroke-dasharray:none" />
  </g>
</svg>
