<?xml version="1.0" encoding="UTF-8" standalone="no"?>
<!-- Created with Inkscape (http://www.inkscape.org/) -->

<svg
   xmlns:dc="http://purl.org/dc/elements/1.1/"
   xmlns:cc="http://creativecommons.org/ns#"
   xmlns:rdf="http://www.w3.org/1999/02/22-rdf-syntax-ns#"
   xmlns:svg="http://www.w3.org/2000/svg"
   xmlns="http://www.w3.org/2000/svg"
   xmlns:xlink="http://www.w3.org/1999/xlink"
   xmlns:sodipodi="http://sodipodi.sourceforge.net/DTD/sodipodi-0.dtd"
   xmlns:inkscape="http://www.inkscape.org/namespaces/inkscape"
   width="256"
   height="256"
   id="svg4374"
   version="1.1"
   inkscape:version="0.48.3.1 r9886"
   sodipodi:docname="gtk-orientation-landscape.svg">
  <defs
     id="defs4376">
    <linearGradient
       id="id9-9"
       gradientUnits="userSpaceOnUse"
       x1="77.762001"
       y1="75.677498"
       x2="229.189"
       y2="264.96301">
      <stop
         offset="0"
         style="stop-color:#58A6D8"
         id="stop3151-8" />
      <stop
         id="stop4258-1"
         style="stop-color:#548bbb;stop-opacity:1;"
         offset="0.470588" />
      <stop
         offset="0.941176"
         style="stop-color:#50719E"
         id="stop3153-82" />
      <stop
         offset="1"
         style="stop-color:#386EAB"
         id="stop3155-6" />
    </linearGradient>
    <linearGradient
       y2="264.96301"
       x2="229.189"
       y1="75.677498"
       x1="77.762001"
       gradientUnits="userSpaceOnUse"
       id="linearGradient3923">
      <stop
         id="stop3925"
         style="stop-color:#58A6D8"
         offset="0" />
      <stop
         offset="0.470588"
         style="stop-color:#548bbb;stop-opacity:1;"
         id="stop3927" />
      <stop
         id="stop3929"
         style="stop-color:#50719E"
         offset="0.89147073" />
      <stop
         id="stop3931"
         style="stop-color:#386EAB"
         offset="1" />
    </linearGradient>
    <linearGradient
       y2="264.96301"
       x2="229.189"
       y1="75.677498"
       x1="77.762001"
       gradientUnits="userSpaceOnUse"
       id="linearGradient3208">
      <stop
         id="stop3210"
         style="stop-color:#58A6D8"
         offset="0" />
      <stop
         offset="0.470588"
         style="stop-color:#548bbb;stop-opacity:1;"
         id="stop3212" />
      <stop
         id="stop3214"
         style="stop-color:#50719E"
         offset="0.89147073" />
      <stop
         id="stop3216"
         style="stop-color:#386EAB"
         offset="1" />
    </linearGradient>
    <linearGradient
       y2="939.13458"
       x2="38.005939"
       y1="932.80359"
       x1="197.59406"
       gradientUnits="userSpaceOnUse"
       id="linearGradient3220"
       xlink:href="#id9-9"
       inkscape:collect="always" />
    <linearGradient
       y2="939.13458"
       x2="38.005939"
       y1="932.80359"
       x1="197.59406"
       gradientUnits="userSpaceOnUse"
       id="linearGradient3222"
       xlink:href="#linearGradient3923"
       inkscape:collect="always" />
    <linearGradient
       y2="939.13458"
       x2="38.005939"
       y1="932.80359"
       x1="197.59406"
       gradientUnits="userSpaceOnUse"
       id="linearGradient3224"
       xlink:href="#id9-9"
       inkscape:collect="always" />
    <linearGradient
       y2="939.13458"
       x2="38.005939"
       y1="932.80359"
       x1="197.59406"
       gradientUnits="userSpaceOnUse"
       id="linearGradient3226"
       xlink:href="#linearGradient3923"
       inkscape:collect="always" />
    <linearGradient
       inkscape:collect="always"
       xlink:href="#linearGradient3208"
       id="linearGradient3858"
       x1="4.8022747"
       y1="924.54669"
       x2="251.19855"
       y2="924.54669"
       gradientUnits="userSpaceOnUse" />
    <linearGradient
       inkscape:collect="always"
       xlink:href="#linearGradient3208"
       id="linearGradient3866"
       x1="209.58745"
       y1="916.6004"
       x2="69.54673"
       y2="925.94385"
       gradientUnits="userSpaceOnUse"
       gradientTransform="matrix(1,0,0,-1,0,1847.216)" />
  </defs>
  <sodipodi:namedview
     id="base"
     pagecolor="#ffffff"
     bordercolor="#666666"
     borderopacity="1.0"
     inkscape:pageopacity="0.0"
     inkscape:pageshadow="2"
     inkscape:zoom="1.7124294"
     inkscape:cx="136.87726"
     inkscape:cy="156.36247"
     inkscape:document-units="px"
     inkscape:current-layer="layer1"
     showgrid="false"
     inkscape:window-width="1918"
     inkscape:window-height="1032"
     inkscape:window-x="0"
     inkscape:window-y="25"
     inkscape:window-maximized="1"
     showguides="true"
     inkscape:guide-bbox="true" />
  <metadata
     id="metadata4379">
    <rdf:RDF>
      <cc:Work
         rdf:about="">
        <dc:format>image/svg+xml</dc:format>
        <dc:type
           rdf:resource="http://purl.org/dc/dcmitype/StillImage" />
        <dc:title></dc:title>
      </cc:Work>
    </rdf:RDF>
  </metadata>
  <g
     inkscape:label="Capa 1"
     inkscape:groupmode="layer"
     id="layer1"
     transform="translate(0,-796.36218)">
    <g
       id="layer9-9"
       style="fill:#492356;fill-opacity:1;display:inline"
       transform="matrix(0,16.426419,-16.426419,0,10895.518,-3165.6349)"
       inkscape:label="status" />
    <g
       style="fill:#492356;fill-opacity:1"
       id="layer10-8"
       transform="matrix(0,16.426419,-16.426419,0,10895.518,-3165.6349)"
       inkscape:label="devices" />
    <g
       style="fill:#492356;fill-opacity:1"
       id="layer11-5"
       transform="matrix(0,16.426419,-16.426419,0,10895.518,-3165.6349)"
       inkscape:label="apps" />
    <g
       style="fill:#492356;fill-opacity:1"
       id="layer13-6"
       transform="matrix(0,16.426419,-16.426419,0,10895.518,-3165.6349)"
       inkscape:label="places" />
    <g
       style="fill:#492356;fill-opacity:1"
       id="layer14-6"
       transform="matrix(0,16.426419,-16.426419,0,10895.518,-3165.6349)"
       inkscape:label="mimetypes" />
    <g
       id="layer15-0"
       style="fill:#492356;fill-opacity:1;display:inline"
       transform="matrix(0,16.426419,-16.426419,0,10895.518,-3165.6349)"
       inkscape:label="emblems" />
    <g
       id="g71291"
       style="fill:#492356;fill-opacity:1;display:inline"
       transform="matrix(0,16.426419,-16.426419,0,10895.518,-3165.6349)"
       inkscape:label="emotes" />
    <g
       id="g4953"
       style="fill:#492356;fill-opacity:1;display:inline"
       transform="matrix(0,16.426419,-16.426419,0,10895.518,-3165.6349)"
       inkscape:label="categories" />
    <path
       style="color:#bebebe;fill:url(#linearGradient3858);fill-opacity:1.0;fill-rule:nonzero;stroke:none;stroke-width:1;marker:none;visibility:visible;display:inline;overflow:visible;enable-background:accumulate"
       id="path4387-5"
       d="m 251.18633,841.31011 c -0.64884,-8.33904 -8.49722,-15.4658 -16.86862,-15.31977 l -212.64541,0 c -8.866981,-0.13141 -16.997566,7.99359 -16.8684544,16.8517 l 0,163.41006 c -0.1314113,8.8581 8.0014734,16.9804 16.8684544,16.8517 l 163.57346,0 c 4.38651,-0.066 8.71898,-1.9449 11.75688,-5.1067 l 49.07196,-49.023 c 3.16487,-3.03478 5.04849,-7.36298 5.11173,-11.74505 l 0,-114.38701 c 0.0163,-0.51086 0.0163,-1.02173 0,-1.53259 z m -31.16814,17.87293 0,95.36407 -35.99998,-0.31868 0,35.68196 -144.714614,0 0,-130.72801 z"
       inkscape:connector-curvature="0"
       sodipodi:nodetypes="cccccccccccccccccccc" />
    <g
       transform="translate(-372.61864,663.64464)"
       id="layer9"
       style="display:inline" />
    <g
       transform="translate(-372.61864,663.64464)"
       id="layer10" />
    <path
       style="fill:url(#linearGradient3866);fill-opacity:1;stroke:none"
       d="m 122.63214,979.45658 c -10.48362,0 -18.97125,-8.48764 -18.97125,-18.97127 0,-10.48356 8.48763,-18.98963 18.97125,-18.98963 10.48364,0 18.98963,8.50607 18.98963,18.98963 0,10.48363 -8.50599,18.97127 -18.98963,18.97127 z m -11.12932,-38.29146 c -11.2422,4e-4 -22.475632,-0.0598 -33.718515,-0.22039 -4.351009,0 -4.260728,-4.15053 -4.260728,-4.15053 l 0,-2.03854 c 0,0 0.893695,-2.01894 3.06699,-2.75479 l 27.033583,-5.17898 0,-19.74261 -12.965832,-37.28136 c -0.447182,-1.89987 1.505948,-1.9651 1.505948,-1.9651 l 5.32591,-0.0734 c 0,0 2.645874,0.0405 3.324104,2.0753 l 20.27519,33.53485 c 1.96688,4.11911 2.10905,4.71314 4.18726,0 l 19.35694,-33.57158 c 0,0 0.90195,-2.00184 3.26901,-2.00184 l 4.92188,0.0552 c 0,0 2.74823,0.58927 1.46921,2.69966 l -12.65363,36.52841 0,19.74261 27.89675,5.39937 c 0,0 2.20383,0.58836 2.20383,2.69968 l 0,1.94671 c 0,4.03976 -4.02198,3.96689 -4.02198,3.96689 -18.73773,0.15599 -37.4789,0.32991 -56.21592,0.33057 z"
       id="rect2992"
       inkscape:connector-curvature="0" />
    <g
       transform="translate(-372.61864,663.64464)"
       id="layer12" />
    <g
       transform="translate(-372.61864,663.64464)"
       id="layer13" />
    <g
       transform="translate(-372.61864,663.64464)"
       id="layer14" />
    <g
       transform="translate(-372.61864,663.64464)"
       id="layer15" />
  </g>
</svg>
