<?xml version="1.0" encoding="UTF-8" standalone="no"?>
<!-- Created with Inkscape (http://www.inkscape.org/) -->

<svg
   xmlns:dc="http://purl.org/dc/elements/1.1/"
   xmlns:cc="http://creativecommons.org/ns#"
   xmlns:rdf="http://www.w3.org/1999/02/22-rdf-syntax-ns#"
   xmlns:svg="http://www.w3.org/2000/svg"
   xmlns="http://www.w3.org/2000/svg"
   xmlns:xlink="http://www.w3.org/1999/xlink"
   xmlns:sodipodi="http://sodipodi.sourceforge.net/DTD/sodipodi-0.dtd"
   xmlns:inkscape="http://www.inkscape.org/namespaces/inkscape"
   width="256"
   height="256"
   id="svg5121"
   version="1.1"
   inkscape:version="0.48.3.1 r9886"
   sodipodi:docname="document-print-warning.svg">
  <defs
     id="defs5123">
    <linearGradient
       y2="264.96301"
       x2="229.189"
       y1="75.677498"
       x1="77.762001"
       gradientUnits="userSpaceOnUse"
       id="linearGradient3923">
      <stop
         id="stop3925"
         style="stop-color:#58A6D8"
         offset="0" />
      <stop
         offset="0.470588"
         style="stop-color:#548bbb;stop-opacity:1;"
         id="stop3927" />
      <stop
         id="stop3929"
         style="stop-color:#50719E"
         offset="0.89147073" />
      <stop
         id="stop3931"
         style="stop-color:#386EAB"
         offset="1" />
    </linearGradient>
    <linearGradient
       id="id9-9"
       gradientUnits="userSpaceOnUse"
       x1="77.762001"
       y1="75.677498"
       x2="229.189"
       y2="264.96301">
      <stop
         offset="0"
         style="stop-color:#58A6D8"
         id="stop3151-8" />
      <stop
         id="stop4258-1"
         style="stop-color:#548bbb;stop-opacity:1;"
         offset="0.470588" />
      <stop
         offset="0.941176"
         style="stop-color:#50719E"
         id="stop3153-82" />
      <stop
         offset="1"
         style="stop-color:#386EAB"
         id="stop3155-6" />
    </linearGradient>
    <linearGradient
       inkscape:collect="always"
       xlink:href="#id9-9"
       id="linearGradient3781"
       x1="46.160713"
       y1="984.31909"
       x2="215.34833"
       y2="984.31909"
       gradientUnits="userSpaceOnUse"
       spreadMethod="reflect" />
    <linearGradient
       inkscape:collect="always"
       xlink:href="#id9-9"
       id="linearGradient3783"
       x1="138.66939"
       y1="864.99664"
       x2="170.7412"
       y2="864.99664"
       gradientUnits="userSpaceOnUse"
       spreadMethod="reflect" />
    <linearGradient
       inkscape:collect="always"
       xlink:href="#id9-9"
       id="linearGradient3785"
       x1="2.6213412"
       y1="903.35083"
       x2="253.80396"
       y2="903.35083"
       gradientUnits="userSpaceOnUse"
       spreadMethod="reflect" />
    <linearGradient
       inkscape:collect="always"
       xlink:href="#id9-9"
       id="linearGradient3787"
       x1="174.884"
       y1="865.005"
       x2="206.95581"
       y2="865.005"
       gradientUnits="userSpaceOnUse"
       spreadMethod="reflect" />
    <linearGradient
       inkscape:collect="always"
       xlink:href="#id9-9"
       id="linearGradient3913"
       x1="197.59406"
       y1="932.80359"
       x2="38.005939"
       y2="939.13458"
       gradientUnits="userSpaceOnUse" />
    <linearGradient
       inkscape:collect="always"
       xlink:href="#linearGradient3923"
       id="linearGradient3921"
       x1="197.59406"
       y1="932.80359"
       x2="38.005939"
       y2="939.13458"
       gradientUnits="userSpaceOnUse" />
  </defs>
  <sodipodi:namedview
     id="base"
     pagecolor="#ffffff"
     bordercolor="#666666"
     borderopacity="1.0"
     inkscape:pageopacity="0.0"
     inkscape:pageshadow="2"
     inkscape:zoom="0.83071347"
     inkscape:cx="43.128501"
     inkscape:cy="66.540891"
     inkscape:document-units="px"
     inkscape:current-layer="layer1"
     showgrid="false"
     inkscape:window-width="1918"
     inkscape:window-height="1032"
     inkscape:window-x="0"
     inkscape:window-y="25"
     inkscape:window-maximized="1" />
  <metadata
     id="metadata5126">
    <rdf:RDF>
      <cc:Work
         rdf:about="">
        <dc:format>image/svg+xml</dc:format>
        <dc:type
           rdf:resource="http://purl.org/dc/dcmitype/StillImage" />
        <dc:title></dc:title>
      </cc:Work>
    </rdf:RDF>
  </metadata>
  <g
     inkscape:label="Capa 1"
     inkscape:groupmode="layer"
     id="layer1"
     transform="translate(0,-796.36218)">
    <rect
       style="fill:url(#linearGradient3787);fill-opacity:1.0;stroke:none"
       width="32.071808"
       height="20.70857"
       ry="2.7455945"
       rx="3.3597281"
       id="rect4899"
       y="854.6507"
       x="174.884" />
    <path
       style="font-size:medium;font-style:normal;font-variant:normal;font-weight:normal;font-stretch:normal;text-indent:0;text-align:start;text-decoration:none;line-height:normal;letter-spacing:normal;word-spacing:normal;text-transform:none;direction:ltr;block-progression:tb;writing-mode:lr-tb;text-anchor:start;color:#000000;fill:url(#linearGradient3785);fill-opacity:1.0;stroke:none;stroke-width:2;marker:none;visibility:visible;display:inline;overflow:visible;enable-background:accumulate;font-family:Bitstream Vera Sans;-inkscape-font-specification:Bitstream Vera Sans"
       id="path41043-9"
       d="M 30.529114,992.98702 C 14.464724,993.47821 2.6213413,983.67746 2.6213413,962.90651 l 0,-116.65968 C 5.1920646,834.52147 17.126528,814.00536 30.529114,813.94407 l 0,-0.24703 1.839316,0 193.74054,0 c 14.59492,0.21665 27.35388,22.84278 27.69498,32.54979 0,0 0,104.25115 0,117.15294 -0.55827,17.72233 -10.18773,29.50625 -24.62947,29.58725 l -44.55165,0 0,-34.51992 c 0,0 4.75104,0 14.4896,0 9.73856,0 28.33312,-5.09604 28.33312,-18.65866 0,-13.56262 0,-58.05637 0,-67.29114 0,-9.23477 -1.95,-23.88256 -29.27481,-23.88256 -27.99688,0 -110.866195,-1.01591 -135.006536,-1.44147 -21.224034,-0.37415 -28.855586,9.32598 -28.855586,34.05147 0,24.72549 0,40.37955 0,54.6514 0,14.27185 8.227546,22.09985 17.82989,22.13984 10.419676,0.0434 17.82989,0.43112 17.82989,0.43112 l 0,34.51992 z"
       inkscape:connector-curvature="0"
       sodipodi:nodetypes="cccccccccccczzzsszzsccc" />
    <rect
       style="fill:url(#linearGradient3783);fill-opacity:1.0;stroke:none"
       width="32.071808"
       height="20.70857"
       ry="2.7455945"
       rx="3.3597281"
       id="rect4899-2"
       y="854.64233"
       x="138.66939" />
    <path
       style="font-size:medium;font-style:normal;font-variant:normal;font-weight:normal;font-stretch:normal;text-indent:0;text-align:start;text-decoration:none;line-height:normal;letter-spacing:normal;word-spacing:normal;text-transform:none;direction:ltr;block-progression:tb;writing-mode:lr-tb;text-anchor:start;baseline-shift:baseline;color:#000000;fill:url(#linearGradient3781);fill-opacity:1;stroke:none;stroke-width:1.99999988;marker:none;visibility:visible;display:inline;overflow:visible;enable-background:accumulate;font-family:Sans;-inkscape-font-specification:Sans"
       sodipodi:nodetypes="ccccccccccccccccccccc"
       id="path1234-3"
       d="m 58.659194,1047.4853 c -7.05026,-1.3818 -12.6228,-8.424 -12.49637,-15.793 l 0,-110.55145 30.76031,0 107.588246,0.1079 -17.56991,25.98926 -90.018336,-1.58989 0,70.25108 61.520616,0 48.94424,-8.6494 -2.80377,-38.72976 0,-47.37919 30.76031,0 0,54.28866 c 0.0923,4.17094 -45.33812,35.16749 -48.16269,38.16499 l -10.95478,29.4491 c -2.91885,2.9011 -6.9932,4.5384 -11.05449,4.4417 l -83.629596,0 c -0.47986,0.016 -0.96126,0.016 -1.44112,0 -0.47986,0.016 -0.96126,0.016 -1.44112,0 z"
       inkscape:connector-curvature="0" />
    <g
       id="layer1-4"
       inkscape:label="Capa 1"
       transform="matrix(0.60502224,0,0,0.60502224,98.525602,418.58184)"
       style="fill:url(#linearGradient3913);fill-opacity:1;stroke:url(#linearGradient3921);stroke-width:3.30566358999999999;stroke-miterlimit:4;stroke-opacity:1;stroke-dasharray:none">
      <path
         id="path2995"
         transform="translate(0,796.36218)"
         d="M 128,19.125 65.15625,128 l -62.875,108.875 125.71875,0 125.71875,0 L 190.84375,128 128,19.125 z m -10.15625,50.6875 20.3125,0 0,65.625 -2,35.75 -16.21875,0 -2.09375,-35.75 0,-65.625 z m 0,124.125 20.3125,0 0,25.46875 -20.3125,0 0,-25.46875 z"
         style="fill:url(#linearGradient3913);fill-opacity:1;stroke:url(#linearGradient3921);stroke-width:3.30566358999999999;stroke-miterlimit:4;stroke-opacity:1;stroke-dasharray:none"
         inkscape:connector-curvature="0" />
    </g>
  </g>
</svg>
