<?xml version="1.0" encoding="UTF-8" standalone="no"?>
<!-- Created with Inkscape (http://www.inkscape.org/) -->

<svg
   xmlns:dc="http://purl.org/dc/elements/1.1/"
   xmlns:cc="http://creativecommons.org/ns#"
   xmlns:rdf="http://www.w3.org/1999/02/22-rdf-syntax-ns#"
   xmlns:svg="http://www.w3.org/2000/svg"
   xmlns="http://www.w3.org/2000/svg"
   xmlns:xlink="http://www.w3.org/1999/xlink"
   xmlns:sodipodi="http://sodipodi.sourceforge.net/DTD/sodipodi-0.dtd"
   xmlns:inkscape="http://www.inkscape.org/namespaces/inkscape"
   width="256"
   height="256"
   id="svg4374"
   version="1.1"
   inkscape:version="0.48.3.1 r9886"
   sodipodi:docname="gtk-page-setup.svg">
  <defs
     id="defs4376">
    <linearGradient
       y2="264.96301"
       x2="229.189"
       y1="75.677498"
       x1="77.762001"
       gradientUnits="userSpaceOnUse"
       id="linearGradient3815">
      <stop
         id="stop3817"
         style="stop-color:#58A6D8"
         offset="0" />
      <stop
         offset="0.14385158"
         style="stop-color:#548bbb;stop-opacity:1;"
         id="stop3819" />
      <stop
         id="stop3821"
         style="stop-color:#50719E"
         offset="0.26339188" />
      <stop
         id="stop3823"
         style="stop-color:#386EAB"
         offset="1" />
    </linearGradient>
    <linearGradient
       id="linearGradient3797"
       gradientUnits="userSpaceOnUse"
       x1="77.762001"
       y1="75.677498"
       x2="229.189"
       y2="264.96301">
      <stop
         offset="0"
         style="stop-color:#58A6D8"
         id="stop3799" />
      <stop
         id="stop3801"
         style="stop-color:#548bbb;stop-opacity:1;"
         offset="0.40117767" />
      <stop
         offset="0.89147073"
         style="stop-color:#50719E"
         id="stop3803" />
      <stop
         offset="1"
         style="stop-color:#386EAB"
         id="stop3805" />
    </linearGradient>
    <linearGradient
       y2="264.96301"
       x2="229.189"
       y1="75.677498"
       x1="77.762001"
       gradientUnits="userSpaceOnUse"
       id="linearGradient3208">
      <stop
         id="stop3210"
         style="stop-color:#58A6D8"
         offset="0" />
      <stop
         offset="0.470588"
         style="stop-color:#548bbb;stop-opacity:1;"
         id="stop3212" />
      <stop
         id="stop3214"
         style="stop-color:#50719E"
         offset="0.89147073" />
      <stop
         id="stop3216"
         style="stop-color:#386EAB"
         offset="1" />
    </linearGradient>
    <linearGradient
       gradientTransform="translate(-0.131852,-0.19150609)"
       y2="924.54663"
       x2="230.82677"
       y1="924.54663"
       x1="33.709633"
       gradientUnits="userSpaceOnUse"
       id="linearGradient3023"
       xlink:href="#linearGradient3208"
       inkscape:collect="always" />
    <linearGradient
       inkscape:collect="always"
       xlink:href="#linearGradient3797"
       id="linearGradient3795"
       x1="17.613325"
       y1="942.11096"
       x2="-22.981367"
       y2="1034.1935"
       gradientUnits="userSpaceOnUse" />
    <linearGradient
       inkscape:collect="always"
       xlink:href="#linearGradient3815"
       id="linearGradient3813"
       x1="17.613325"
       y1="942.11096"
       x2="33.589508"
       y2="894.62445"
       gradientUnits="userSpaceOnUse" />
  </defs>
  <sodipodi:namedview
     id="base"
     pagecolor="#ffffff"
     bordercolor="#666666"
     borderopacity="1.0"
     inkscape:pageopacity="0.0"
     inkscape:pageshadow="2"
     inkscape:zoom="2.4217409"
     inkscape:cx="39.773818"
     inkscape:cy="98.571428"
     inkscape:document-units="px"
     inkscape:current-layer="layer1"
     showgrid="false"
     inkscape:window-width="1918"
     inkscape:window-height="1032"
     inkscape:window-x="0"
     inkscape:window-y="25"
     inkscape:window-maximized="1"
     showguides="true"
     inkscape:guide-bbox="true" />
  <metadata
     id="metadata4379">
    <rdf:RDF>
      <cc:Work
         rdf:about="">
        <dc:format>image/svg+xml</dc:format>
        <dc:type
           rdf:resource="http://purl.org/dc/dcmitype/StillImage" />
        <dc:title />
      </cc:Work>
    </rdf:RDF>
  </metadata>
  <g
     inkscape:label="Capa 1"
     inkscape:groupmode="layer"
     id="layer1"
     transform="translate(0,-796.36218)">
    <g
       transform="translate(-372.61864,663.64464)"
       id="layer9"
       style="display:inline" />
    <g
       transform="translate(-372.61864,663.64464)"
       id="layer10" />
    <g
       transform="translate(-372.61864,663.64464)"
       id="layer12" />
    <g
       transform="translate(-372.61864,663.64464)"
       id="layer13" />
    <g
       transform="translate(-372.61864,663.64464)"
       id="layer14" />
    <g
       transform="translate(-372.61864,663.64464)"
       id="layer15" />
    <path
       style="color:#bebebe;fill:url(#linearGradient3023);fill-opacity:1;fill-rule:nonzero;stroke:none;stroke-width:1;marker:none;visibility:visible;display:inline;overflow:visible;enable-background:accumulate"
       id="path4387-5-0"
       d="m 48.899758,801.16917 c -8.33903,0.64884 -15.4658,8.49722 -15.31977,16.86862 l 0,212.64531 c -0.13141,8.867 7.99359,16.9976 16.8517,16.8685 l 163.410022,0 c 8.85811,0.1314 16.98049,-8.0015 16.8517,-16.8685 l 0,-163.57336 c -0.0657,-4.38651 -1.94489,-8.71898 -5.10664,-11.75688 L 176.56376,806.2809 c -3.03478,-3.16487 -7.36298,-5.04849 -11.74505,-5.11173 l -114.387022,0 c -0.51086,-0.0163 -1.02172,-0.0163 -1.53258,0 z m 17.87293,31.16814 95.364082,0 -0.31868,35.99998 35.68196,0 0,144.71451 -130.728012,0 z"
       inkscape:connector-curvature="0"
       sodipodi:nodetypes="cccccccccccccccccccc" />
    <path
       style="fill:url(#linearGradient3795);fill-opacity:1;stroke:url(#linearGradient3813);stroke-width:2;stroke-miterlimit:4;stroke-opacity:1;stroke-dasharray:none"
       d="M 20.808002,871.66807 C 9.1922198,872.04112 4.9867638,883.10958 4.9867638,893.37467 l 0,105.45183 c 0,11.7315 9.4866482,21.17 21.2738532,21.17 l 209.743913,0 c 11.7872,0 17.91037,-21.9346 -2.28491,-32.3349 C 213.52435,977.2614 42.024615,875.52078 26.260617,872.18737 c -1.9705,-0.41667 -3.793218,-0.57259 -5.452615,-0.5193 z m 26.51724,43.14774 c 0.87468,-0.0281 1.83953,0.0563 2.87819,0.276 8.30932,1.75706 98.700188,55.38069 109.345268,60.86269 10.64507,5.4821 7.42222,17.0458 1.2091,17.0458 l -110.554368,0 c -6.21311,0 -11.223656,-4.9742 -11.223656,-11.158 l 0,-55.59255 c 0,-5.4108 2.222701,-11.23731 8.345466,-11.43394 z"
       id="rect3030"
       inkscape:connector-curvature="0"
       sodipodi:nodetypes="ssssssssscssssss" />
  </g>
</svg>
