<?xml version="1.0" encoding="UTF-8" standalone="no"?>
<!-- Created with Inkscape (http://www.inkscape.org/) -->

<svg
   xmlns:dc="http://purl.org/dc/elements/1.1/"
   xmlns:cc="http://creativecommons.org/ns#"
   xmlns:rdf="http://www.w3.org/1999/02/22-rdf-syntax-ns#"
   xmlns:svg="http://www.w3.org/2000/svg"
   xmlns="http://www.w3.org/2000/svg"
   xmlns:sodipodi="http://sodipodi.sourceforge.net/DTD/sodipodi-0.dtd"
   xmlns:inkscape="http://www.inkscape.org/namespaces/inkscape"
   height="60.0000000"
   id="svg1"
   inkscape:version="0.48.3.1 r9886"
   sodipodi:docname="applications-simulation.svg"
   sodipodi:version="0.32"
   version="1.0"
   width="60.0000000"
   x="0"
   y="0">
  <metadata
     id="metadata3">
    <rdf:RDF>
      <cc:Work
         rdf:about="">
        <dc:title>Part of the Flat Icon Collection (Wed Aug 25 23:29:46 2004)</dc:title>
        <dc:description />
        <dc:subject>
          <rdf:Bag>
            <rdf:li>hash</rdf:li>
            <rdf:li />
            <rdf:li>action</rdf:li>
            <rdf:li>computer</rdf:li>
            <rdf:li>icons</rdf:li>
            <rdf:li>theme</rdf:li>
          </rdf:Bag>
        </dc:subject>
        <dc:publisher>
          <cc:Agent
             rdf:about="http://www.openclipart.org">
            <dc:title>Danny Allen</dc:title>
          </cc:Agent>
        </dc:publisher>
        <dc:creator>
          <cc:Agent>
            <dc:title>Danny Allen</dc:title>
          </cc:Agent>
        </dc:creator>
        <dc:rights>
          <cc:Agent>
            <dc:title>Danny Allen</dc:title>
          </cc:Agent>
        </dc:rights>
        <dc:date />
        <dc:format>image/svg+xml</dc:format>
        <dc:type
           rdf:resource="http://purl.org/dc/dcmitype/StillImage" />
        <cc:license
           rdf:resource="http://web.resource.org/cc/PublicDomain" />
        <dc:language>en</dc:language>
      </cc:Work>
      <cc:License
         rdf:about="http://web.resource.org/cc/PublicDomain">
        <cc:permits
           rdf:resource="http://web.resource.org/cc/Reproduction" />
        <cc:permits
           rdf:resource="http://web.resource.org/cc/Distribution" />
        <cc:permits
           rdf:resource="http://web.resource.org/cc/DerivativeWorks" />
      </cc:License>
    </rdf:RDF>
  </metadata>
  <sodipodi:namedview
     bordercolor="#666666"
     borderopacity="1.0"
     id="base"
     inkscape:cx="28.50197"
     inkscape:cy="9.7721041"
     inkscape:pageopacity="0.0"
     inkscape:pageshadow="2"
     inkscape:window-height="1031"
     inkscape:window-width="1914"
     inkscape:window-x="0"
     inkscape:window-y="25"
     inkscape:zoom="8.0342603"
     pagecolor="#ffffff"
     showgrid="false"
     inkscape:window-maximized="1"
     inkscape:current-layer="svg1" />
  <defs
     id="defs3" />
  <g
     id="g3011"
     transform="matrix(1.0244999,0,0,1.0244999,-0.92796159,-0.4688219)">
    <rect
       inkscape:transform-center-y="216.96782"
       inkscape:transform-center-x="-425.38529"
       ry="7.3388124"
       y="3.8947468"
       x="2.3521991"
       height="52.235081"
       width="55.8451"
       id="rect8672-0-7-2-8-5-0-6-7-8-2-2-8-1-9-3-4-5-8-3"
       style="fill:#ffb380;fill-opacity:1;stroke:none" />
    <path
       inkscape:transform-center-y="224.68138"
       inkscape:transform-center-x="-442.77727"
       sodipodi:nodetypes="cccccscc"
       inkscape:connector-curvature="0"
       id="path8893-0-6-5-3-2-0-4-2-7-2-0-6-2-9-6-9-9-3-3"
       d="m 2.3844954,20.10979 -0.00755,27.471741 c -0.4940496,4.014158 1.9463027,7.827597 6.400615,8.579788 7.0518696,0.213991 26.2347486,-0.118204 33.6127076,0.01038 l 8.164443,-7.528194 C 42.810619,46.236054 38.119328,35.497792 32.41325,30.867333 27.307655,26.724163 16.43292,18.531904 11.940355,11.581348 z"
       style="fill:#cd9067;fill-opacity:1;stroke:none" />
    <path
       sodipodi:nodetypes="ccccccc"
       inkscape:connector-curvature="0"
       id="path4763-5"
       d="m 11.850347,11.56571 c -0.45334,2.599637 0.439751,5.803168 1.708979,7.017375 l 32.940202,28.231363 c 1.253731,0.71446 2.274502,2.594781 4.312519,1.976691 0.487371,-1.922593 -1.923518,-3.481769 -2.701733,-4.678829 L 19.027616,12.650873 C 15.978398,11.060759 14.060054,10.995645 11.850347,11.56571 z"
       style="fill:#b3ff80;fill-opacity:1;stroke:none" />
    <path
       sodipodi:nodetypes="ccccccc"
       inkscape:connector-curvature="0"
       id="path4763-55-4"
       d="m 19.947624,43.605799 1.611306,-1.59795 c 0.839658,-0.611381 1.018056,-1.291 1.318412,-2.236076 l 3.309096,-10.411567 -9.431099,-9.098127 2.262764,22.468932 c 0.265862,1.398849 0.287982,1.280651 0.929521,0.874788 z"
       style="fill:#b3ff80;fill-opacity:1;stroke:none" />
    <path
       sodipodi:nodetypes="ccccccc"
       inkscape:connector-curvature="0"
       id="path4763-55-4-4"
       d="m 44.222134,19.068923 -1.210302,1.316386 c -0.51695,0.768674 -1.104623,0.95751 -1.935952,1.256768 l -10.451264,3.762174 -9.448012,-9.080548 22.094699,1.38419 c 2.165585,0.219426 2.009769,0.216188 0.950831,1.36103 z"
       style="fill:#b3ff80;fill-opacity:1;stroke:none" />
    <path
       sodipodi:nodetypes="ccccccc"
       inkscape:connector-curvature="0"
       id="path4763-55-4-1"
       d="m 43.660569,52.322437 0.653105,-0.671783 c 0.340345,-0.257015 0.412658,-0.542741 0.534414,-0.940074 l 1.34131,-4.377026 -3.822779,-3.824889 0.917176,9.445988 c 0.107794,0.588107 0.116729,0.538433 0.376774,0.367784 z"
       style="fill:#b3ff80;fill-opacity:1;stroke:none" />
    <path
       sodipodi:nodetypes="ccccccc"
       inkscape:connector-curvature="0"
       id="path4763-55-4-4-5"
       d="m 53.499873,42.007069 -0.490551,0.553438 c -0.209539,0.323141 -0.44776,0.402538 -0.784721,0.528342 l -4.236244,1.581613 -3.82966,-3.817488 8.955755,0.58192 c 0.877824,0.09226 0.814675,0.09091 0.385421,0.572175 z"
       style="fill:#b3ff80;fill-opacity:1;stroke:none" />
  </g>
</svg>
