<?xml version="1.0" encoding="UTF-8" standalone="no"?>
<!-- Created with Inkscape (http://www.inkscape.org/) -->

<svg
   xmlns:dc="http://purl.org/dc/elements/1.1/"
   xmlns:cc="http://creativecommons.org/ns#"
   xmlns:rdf="http://www.w3.org/1999/02/22-rdf-syntax-ns#"
   xmlns:svg="http://www.w3.org/2000/svg"
   xmlns="http://www.w3.org/2000/svg"
   xmlns:sodipodi="http://sodipodi.sourceforge.net/DTD/sodipodi-0.dtd"
   xmlns:inkscape="http://www.inkscape.org/namespaces/inkscape"
   height="400pt"
   id="svg548"
   inkscape:version="0.48.3.1 r9886"
   sodipodi:docname="applications-painting.svg"
   sodipodi:version="0.32"
   width="400pt"
   version="1.1">
  <metadata
     id="metadata3">
    <rdf:RDF>
      <cc:Work
         rdf:about="">
        <dc:title>Clipart by Nicu Buculei - book_01</dc:title>
        <dc:description />
        <dc:subject>
          <rdf:Bag>
            <rdf:li>hash</rdf:li>
            <rdf:li />
            <rdf:li>education</rdf:li>
          </rdf:Bag>
        </dc:subject>
        <dc:publisher>
          <cc:Agent
             rdf:about="http://www.openclipart.org">
            <dc:title>Nicu Buculei</dc:title>
          </cc:Agent>
        </dc:publisher>
        <dc:creator>
          <cc:Agent>
            <dc:title>Nicu Buculei</dc:title>
          </cc:Agent>
        </dc:creator>
        <dc:rights>
          <cc:Agent>
            <dc:title>Nicu Buculei</dc:title>
          </cc:Agent>
        </dc:rights>
        <dc:date />
        <dc:format>image/svg+xml</dc:format>
        <dc:type
           rdf:resource="http://purl.org/dc/dcmitype/StillImage" />
        <cc:license
           rdf:resource="http://web.resource.org/cc/PublicDomain" />
        <dc:language>en</dc:language>
      </cc:Work>
      <cc:License
         rdf:about="http://web.resource.org/cc/PublicDomain">
        <cc:permits
           rdf:resource="http://web.resource.org/cc/Reproduction" />
        <cc:permits
           rdf:resource="http://web.resource.org/cc/Distribution" />
        <cc:permits
           rdf:resource="http://web.resource.org/cc/DerivativeWorks" />
      </cc:License>
    </rdf:RDF>
  </metadata>
  <defs
     id="defs550" />
  <sodipodi:namedview
     id="base"
     inkscape:cx="189.19567"
     inkscape:cy="115.65778"
     inkscape:window-height="1031"
     inkscape:window-width="1914"
     inkscape:window-x="0"
     inkscape:window-y="25"
     inkscape:zoom="0.45505626"
     showgrid="true"
     inkscape:snap-bbox="true"
     inkscape:window-maximized="1"
     inkscape:current-layer="svg548" />
  <rect
     style="fill:#ffb380;fill-opacity:1;stroke:none"
     id="rect8672-7-4-5-8-1-9-7-1-1-3-3-2-7-8-3-6-9"
     width="476.99692"
     height="446.1622"
     x="13.866396"
     y="27.256218"
     ry="62.683952" />
  <path
     style="fill:#cd9067;fill-opacity:1;stroke:none"
     d="M 210.88601,62.894915 17.362449,178.31388 14.413145,399.21557 c -2.71694,52.23226 25.376834,80.26095 96.691225,75.94262 42.73556,-1.90874 145.22906,-0.77208 184.05789,-2.7449 l 133.07056,1.14607 C 414.89065,331.95104 205.77246,174.18648 191.37422,161.63879 172.60199,138.3362 226.18548,105.83614 210.88601,62.894915 z"
     id="path8889-0-6-5-6-6-4-7-0-2-3-1-1-6-1-2-2-2"
     inkscape:connector-curvature="0"
     sodipodi:nodetypes="cccccccc" />
  <path
     style="fill:#ff8631;fill-opacity:1;stroke:none"
     d="m 306.45763,314.35919 100.02238,134.76067 c 9.34443,12.5899 14.01562,20.77988 19.92744,23.64224 2.16476,1.04792 4.40172,0.51405 6.79732,0.44413 6.5746,-0.19067 16.11376,-3.24853 25.0893,-7.77482 3.11048,-1.56858 7.52059,-4.67348 10.57539,-7.10467 5.16059,-4.1068 8.94045,-6.94831 2.78711,-14.6344 -29.26424,-47.16015 -73.56229,-98.58066 -120.85158,-162.80361 -8.44394,-11.46748 -14.59958,-22.9431 -26.67442,-12.57796 -11.35486,9.74535 -9.47179,4.63155 -20.82284,12.73457 -10.80166,7.70973 -11.61264,14.85787 3.1499,33.31385 z"
     id="rect3888-32-6-4-0-3-6-1"
     inkscape:connector-curvature="0"
     sodipodi:nodetypes="csssssccscc" />
  <path
     style="fill:#ff2a2a;fill-opacity:1;stroke:none"
     d="m 264.70263,320.16119 c 52.668,3.68351 65.54646,-22.73108 91.48845,-41.28925 21.22095,-97.78035 -95.42417,-65.3436 -144.11147,-217.35952 -73.28238,159.28152 -33.11453,245.58676 52.62302,258.64877 z"
     id="path3899-53-3-3-2-6-8-6-5"
     inkscape:connector-curvature="0"
     sodipodi:nodetypes="cccc"
     inkscape:transform-center-x="-106.66438"
     inkscape:transform-center-y="-113.22403" />
  <path
     style="fill:#d90000;fill-opacity:1;stroke:none"
     d="M 323.22171,302.38451 C 222.29679,264.56599 219.56384,112.94869 209.97435,62.672464 c -0.81303,15.845299 -96.50438,191.671766 24.68177,247.065096 10.31583,9.62611 66.13399,16.92349 88.56559,-7.35305 z"
     id="path4936-0-2"
     inkscape:connector-curvature="0"
     sodipodi:nodetypes="cccc" />
  <path
     style="fill:#b35c23;fill-opacity:1;stroke:none"
     d="m 296.51805,315.71702 60.81197,-41.93932 49.27889,78.63618 -50.32733,33.55155 z"
     id="path5010"
     inkscape:connector-curvature="0"
     sodipodi:nodetypes="ccccc" />
</svg>
