<?xml version="1.0" encoding="UTF-8" standalone="no"?>
<!-- Created with Inkscape (http://www.inkscape.org/) -->

<svg
   xmlns:dc="http://purl.org/dc/elements/1.1/"
   xmlns:cc="http://creativecommons.org/ns#"
   xmlns:rdf="http://www.w3.org/1999/02/22-rdf-syntax-ns#"
   xmlns:svg="http://www.w3.org/2000/svg"
   xmlns="http://www.w3.org/2000/svg"
   xmlns:sodipodi="http://sodipodi.sourceforge.net/DTD/sodipodi-0.dtd"
   xmlns:inkscape="http://www.inkscape.org/namespaces/inkscape"
   id="svg7384"
   version="1.1"
   inkscape:version="0.48.3.1 r9886"
   height="16"
   sodipodi:docname="bluetooth-disabled.svg"
   width="16">
  <metadata
     id="metadata90">
    <rdf:RDF>
      <cc:Work
         rdf:about="">
        <dc:format>image/svg+xml</dc:format>
        <dc:type
           rdf:resource="http://purl.org/dc/dcmitype/StillImage" />
        <dc:title>Gnome Symbolic Icon Theme</dc:title>
      </cc:Work>
    </rdf:RDF>
  </metadata>
  <sodipodi:namedview
     inkscape:cy="7.2532357"
     inkscape:current-layer="layer9"
     inkscape:window-width="1914"
     pagecolor="#555753"
     showborder="true"
     showguides="true"
     inkscape:snap-nodes="true"
     objecttolerance="10"
     showgrid="true"
     inkscape:object-nodes="true"
     inkscape:pageshadow="2"
     inkscape:guide-bbox="true"
     inkscape:window-x="0"
     inkscape:snap-bbox="true"
     bordercolor="#666666"
     id="namedview88"
     inkscape:window-maximized="1"
     inkscape:snap-global="false"
     inkscape:window-y="25"
     gridtolerance="10"
     inkscape:zoom="22.627417"
     inkscape:window-height="1031"
     borderopacity="1"
     guidetolerance="10"
     inkscape:cx="9.7390199"
     inkscape:bbox-paths="false"
     inkscape:snap-grids="true"
     inkscape:pageopacity="0"
     inkscape:snap-to-guides="true"
     borderlayer="true">
    <inkscape:grid
       visible="true"
       spacingx="1px"
       type="xygrid"
       spacingy="1px"
       id="grid4866"
       empspacing="2"
       enabled="true"
       snapvisiblegridlinesonly="true" />
  </sodipodi:namedview>
  <title
     id="title9167">Gnome Symbolic Icon Theme</title>
  <defs
     id="defs7386" />
  <g
     transform="translate(-41.0002,-317)"
     inkscape:groupmode="layer"
     id="layer9"
     inkscape:label="status"
     style="display:inline">
    <path
       style="font-size:medium;font-style:normal;font-variant:normal;font-weight:normal;font-stretch:normal;text-indent:0;text-align:start;text-decoration:none;line-height:normal;letter-spacing:normal;word-spacing:normal;text-transform:none;direction:ltr;block-progression:tb;writing-mode:lr-tb;text-anchor:start;color:#000000;fill:#4ecae9;fill-opacity:1;stroke:none;stroke-width:2;marker:none;visibility:visible;display:inline;overflow:visible;enable-background:accumulate;font-family:Bitstream Vera Sans;-inkscape-font-specification:Bitstream Vera Sans"
       d="m 46.927516,318.96875 a 0.74999186,0.74999186 0 0 0 -0.03125,0.0313 0.74999186,0.74999186 0 0 0 -0.65625,0.75 l 0,2.65625 -0.9375,-0.96875 a 0.77339804,0.77339804 0 1 0 -1.09375,1.09375 l 2.03125,2.03125 0,0.84375 -2.03125,2.03125 a 0.77339804,0.77339804 0 1 0 1.09375,1.09375 l 0.9375,-0.96875 0,2.65625 a 0.74999186,0.74999186 0 0 0 1.3125,0.5625 l 2.0625,-2.03125 0,-0.0313 0,-2.9375 -0.78125,-0.78125 1.71875,-1.71875 a 0.74999186,0.74999186 0 0 0 0,-1.09375 l -3,-3 a 0.74999186,0.74999186 0 0 0 -0.625,-0.21875 z m 0.8125,2.59375 1.1875,1.1875 -1.1875,1.15625 0,-2.34375 z m 0,4.5 1.1875,1.15625 -1.1875,1.1875 0,-2.34375 z"
       id="path3807"
       inkscape:connector-curvature="0" />
    <rect
       x="44.001896"
       y="321.23502"
       id="rect3940"
       height="0.74991685"
       width="0.74991685"
       style="fill:#4ecae9;fill-opacity:1;stroke:none" />
    <rect
       x="44.001896"
       y="327.98425"
       id="rect3942"
       height="0.74991685"
       style="fill:#4ecae9;fill-opacity:1;stroke:none"
       width="0.74991685" />
    <rect
       x="46.251644"
       y="330.23401"
       id="rect3944"
       height="0.74991685"
       width="0.74991685"
       style="fill:#4ecae9;fill-opacity:1;stroke:none" />
    <rect
       x="46.251644"
       y="318.98526"
       id="rect3946"
       height="0.74991685"
       style="fill:#4ecae9;fill-opacity:1;stroke:none"
       width="0.74991685" />
    <path
       style="color:#bebebe;fill:#ff7373;fill-opacity:1;stroke:none;stroke-width:2;marker:none;visibility:visible;display:inline;overflow:visible"
       d="M 9.34375 10.03125 L 9.34375 11.1875 L 10.21875 12.0625 L 9.34375 12.90625 L 9.34375 14.03125 L 10.5 14.03125 L 11.34375 13.15625 L 12.21875 14.03125 L 13.34375 14.03125 L 13.34375 12.90625 L 12.46875 12.0625 L 13.34375 11.1875 L 13.34375 10.03125 L 12.21875 10.03125 L 11.34375 10.90625 L 10.46875 10.03125 L 9.34375 10.03125 z "
       transform="translate(41.0002,317)"
       id="path3761-2-3-5-4-8-9-8-0" />
  </g>
  <g
     transform="translate(-41.0002,-317)"
     inkscape:groupmode="layer"
     id="layer10"
     inkscape:label="devices" />
  <g
     transform="translate(-41.0002,-317)"
     inkscape:groupmode="layer"
     id="layer11"
     inkscape:label="apps" />
  <g
     transform="translate(-41.0002,-317)"
     inkscape:groupmode="layer"
     id="layer12"
     inkscape:label="actions" />
  <g
     transform="translate(-41.0002,-317)"
     inkscape:groupmode="layer"
     id="layer13"
     inkscape:label="places" />
  <g
     transform="translate(-41.0002,-317)"
     inkscape:groupmode="layer"
     id="layer14"
     inkscape:label="mimetypes" />
  <g
     transform="translate(-41.0002,-317)"
     inkscape:groupmode="layer"
     id="layer15"
     inkscape:label="emblems"
     style="display:inline" />
</svg>
