<?xml version="1.0" encoding="UTF-8" standalone="no"?>
<!-- Created with Inkscape (http://www.inkscape.org/) -->

<svg
   xmlns:dc="http://purl.org/dc/elements/1.1/"
   xmlns:cc="http://creativecommons.org/ns#"
   xmlns:rdf="http://www.w3.org/1999/02/22-rdf-syntax-ns#"
   xmlns:svg="http://www.w3.org/2000/svg"
   xmlns="http://www.w3.org/2000/svg"
   xmlns:sodipodi="http://sodipodi.sourceforge.net/DTD/sodipodi-0.dtd"
   xmlns:inkscape="http://www.inkscape.org/namespaces/inkscape"
   width="256"
   height="256"
   id="svg2"
   version="1.1"
   inkscape:version="0.48.3.1 r9886"
   sodipodi:docname="dropboxstatus-busy.svg">
  <defs
     id="defs4" />
  <sodipodi:namedview
     id="base"
     pagecolor="#ffffff"
     bordercolor="#666666"
     borderopacity="1.0"
     inkscape:pageopacity="0.0"
     inkscape:pageshadow="2"
     inkscape:zoom="1.4506153"
     inkscape:cx="475.48555"
     inkscape:cy="85.832635"
     inkscape:document-units="px"
     inkscape:current-layer="layer1"
     showgrid="false"
     inkscape:window-width="1913"
     inkscape:window-height="1026"
     inkscape:window-x="0"
     inkscape:window-y="26"
     inkscape:window-maximized="1" />
  <metadata
     id="metadata7">
    <rdf:RDF>
      <cc:Work
         rdf:about="">
        <dc:format>image/svg+xml</dc:format>
        <dc:type
           rdf:resource="http://purl.org/dc/dcmitype/StillImage" />
        <dc:title />
      </cc:Work>
    </rdf:RDF>
  </metadata>
  <g
     inkscape:label="Capa 1"
     inkscape:groupmode="layer"
     id="layer1"
     transform="translate(0,-796.36218)">
    <path
       style="opacity:0.6;fill:#4ecae9;fill-opacity:1;stroke:none"
       d="m 80.71875,809.70593 -70.25,48.1875 48.8125,40.53125 8.625,-5.59375 0,-22.9375 35.40625,0 26.28125,-17.03125 -48.875,-43.15625 z m 98.375,2 -49.1875,41.15625 25.53125,17.03125 37.71875,0 0,25.15625 7.03125,4.6875 46.1875,-42.84375 -67.28125,-45.1875 z M 58.625,898.04968 9.4375,937.20593 l 58.46875,39.8125 0,-72.8125 -9.28125,-6.15625 z m 141.5625,2 -7.03125,4.1875 0,69.71875 54.21875,-34.75 -47.1875,-39.15625 z m 4,79.3125 -11.03125,6.71875 0,0.59375 -0.9375,0 -17.625,10.75 -11.9375,-10.75 -71.375,0 -12.0625,9.75 -20.59375,-15.0625 -1,16.0625 73.28125,44.18752 74.8125,-47.68752 -1.53125,-14.5625 z"
       id="path3050"
       inkscape:connector-curvature="0" />
    <g
       id="g4219"
       transform="matrix(8.5063873,0,0,8.5063873,64.303695,861.82688)"
       style="fill:#ff7f2a;fill-opacity:1">
      <g
         style="fill:#ff7f2a;fill-opacity:1;display:inline"
         inkscape:label="status"
         transform="translate(-241.0002,-627)"
         id="layer9" />
      <g
         inkscape:label="devices"
         transform="translate(-241.0002,-627)"
         id="layer10"
         style="fill:#ff7f2a;fill-opacity:1" />
      <g
         inkscape:label="apps"
         transform="translate(-241.0002,-627)"
         id="layer11"
         style="fill:#ff7f2a;fill-opacity:1" />
      <g
         inkscape:label="places"
         transform="translate(-241.0002,-627)"
         id="layer13"
         style="fill:#ff7f2a;fill-opacity:1" />
      <g
         inkscape:label="mimetypes"
         transform="translate(-241.0002,-627)"
         id="layer14"
         style="fill:#ff7f2a;fill-opacity:1" />
      <g
         style="fill:#ff7f2a;fill-opacity:1;display:inline"
         inkscape:label="emblems"
         transform="translate(-241.0002,-627)"
         id="layer15" />
      <g
         style="fill:#ff7f2a;fill-opacity:1;display:inline"
         inkscape:label="emotes"
         transform="translate(-241.0002,-627)"
         id="g71291" />
      <g
         style="fill:#ff7f2a;fill-opacity:1;display:inline"
         inkscape:label="categories"
         transform="translate(-241.0002,-627)"
         id="g4953" />
      <g
         style="fill:#ff7f2a;fill-opacity:1;display:inline"
         inkscape:label="actions"
         transform="translate(-241.0002,-627)"
         id="layer12">
        <path
           inkscape:connector-curvature="0"
           style="font-size:medium;font-style:normal;font-variant:normal;font-weight:normal;font-stretch:normal;text-indent:0;text-align:start;text-decoration:none;line-height:normal;letter-spacing:normal;word-spacing:normal;text-transform:none;direction:ltr;block-progression:tb;writing-mode:lr-tb;text-anchor:start;baseline-shift:baseline;color:#bebebe;fill:#ff7f2a;fill-opacity:1;stroke:none;stroke-width:2;marker:none;visibility:visible;display:inline;overflow:visible;enable-background:accumulate;font-family:Sans;-inkscape-font-specification:Sans"
           d="m 253.90645,628.96875 a 1.0001,1.0001 0 0 0 -0.125,0.0312 1.0001,1.0001 0 0 0 -0.78125,1 l 0,1.6875 c -0.38225,-0.57796 -0.84927,-1.08223 -1.40625,-1.5 -1.15563,-0.86677 -2.53199,-1.25227 -3.875,-1.1875 -0.19186,0.009 -0.37223,0.0353 -0.5625,0.0625 -1.52218,0.21741 -2.97815,1.02304 -3.96875,2.34375 -1.98119,2.64144 -1.42267,6.42505 1.21875,8.40625 2.64147,1.98122 6.42504,1.42267 8.40625,-1.21875 a 1.0063276,1.0063276 0 0 0 0.1875,-0.5937 1.0063276,1.0063276 0 0 0 0,-0.15625 l 0,-0.84375 -0.8125,0 -0.0937,0 a 1.0063276,1.0063276 0 0 0 -0.0937,0 1.0063276,1.0063276 0 0 0 -0.8125,0.40625 c -1.33265,1.77674 -3.81702,2.11387 -5.59375,0.78125 -1.77674,-1.33264 -2.1139,-3.81699 -0.78125,-5.59375 1.33265,-1.77674 3.817,-2.11389 5.59375,-0.78125 0.42946,0.32212 0.76954,0.73295 1.03125,1.1875 l -1.4375,0 a 1.0001,1.0001 0 0 0 -1,1 1.0001,1.0001 0 0 0 0,0.21875 l 0,0.78125 0.84375,0 0.15625,0 4,0 1,0 0,-1 0,-4 a 1.0001,1.0001 0 0 0 0,-0.1875 l 0,-0.8125 -0.8125,0 a 1.0001,1.0001 0 0 0 -0.28125,-0.0312 z"
           id="path4597" />
      </g>
    </g>
  </g>
</svg>
