<?xml version="1.0" encoding="UTF-8" standalone="no"?>
<!-- Created with Inkscape (http://www.inkscape.org/) -->

<svg
   xmlns:dc="http://purl.org/dc/elements/1.1/"
   xmlns:cc="http://creativecommons.org/ns#"
   xmlns:rdf="http://www.w3.org/1999/02/22-rdf-syntax-ns#"
   xmlns:svg="http://www.w3.org/2000/svg"
   xmlns="http://www.w3.org/2000/svg"
   xmlns:sodipodi="http://sodipodi.sourceforge.net/DTD/sodipodi-0.dtd"
   xmlns:inkscape="http://www.inkscape.org/namespaces/inkscape"
   version="1.1"
   width="16"
   height="16"
   id="svg7384"
   inkscape:version="0.48.3.1 r9886"
   sodipodi:docname="huayra-chat-symbolic.svg">
  <sodipodi:namedview
     pagecolor="#ffffff"
     bordercolor="#666666"
     borderopacity="1"
     objecttolerance="10"
     gridtolerance="10"
     guidetolerance="10"
     inkscape:pageopacity="0"
     inkscape:pageshadow="2"
     inkscape:window-width="1914"
     inkscape:window-height="1031"
     id="namedview29496"
     showgrid="false"
     inkscape:zoom="14.75"
     inkscape:cx="8"
     inkscape:cy="8"
     inkscape:window-x="0"
     inkscape:window-y="25"
     inkscape:window-maximized="1"
     inkscape:current-layer="svg7384" />
  <title
     id="title9167">Gnome Symbolic Icon Theme</title>
  <metadata
     id="metadata90">
    <rdf:RDF>
      <cc:Work
         rdf:about="">
        <dc:format>image/svg+xml</dc:format>
        <dc:type
           rdf:resource="http://purl.org/dc/dcmitype/StillImage" />
        <dc:title>Gnome Symbolic Icon Theme</dc:title>
      </cc:Work>
    </rdf:RDF>
  </metadata>
  <defs
     id="defs7386" />
  <path
     inkscape:connector-curvature="0"
     style="color:#bebebe;fill:#4ecae9;fill-opacity:1;fill-rule:nonzero;stroke:none;stroke-width:2.40000010000000019;marker:none;visibility:visible;display:inline;overflow:visible;enable-background:accumulate"
     id="rect11261"
     d="m 3.6875,1.0625 c -1.5235,0 -2.75,1.2265 -2.75,2.75 l 0,4.4375 c 0,1.5235 1.2265,2.75 2.75,2.75 L 10,11 l 3.03125,4 -0.0625,-4.09375 C 14.173282,10.61341 15.0625,9.54714 15.0625,8.25 l 0,-4.4375 c 0,-1.5235 -1.2265,-2.75 -2.75,-2.75 l -8.625,0 z M 7.78125,1.28125 C 7.8665,1.23375 7.9407,1.48766 7.9375,1.875 7.932625,2.46553 7.716878,4.72949 7.0625,5.96875 7.163875,6.00958 7.2796,6.0711 7.375,6.125 8.650544,5.18315 9.984602,4.04439 10.53125,3.21875 c 0.582208,-0.87932 0.468989,-0.30217 0.1875,0.25 C 10.227141,4.43309 9.070513,5.81637 8.0625,6.6875 8.11029,6.74163 8.17495,6.8172 8.21875,6.875 c 1.419982,-0.45626 2.647341,-1.0325 3.5,-1.5 0.928786,-0.50924 0.674819,-0.00792 0.1875,0.375 -0.458037,0.35993 -2.005728,1.36822 -3.28125,1.90625 0.053893,0.1495 0.097,0.2797 0.125,0.4375 1.200772,-0.05272 2.245026,-0.19517 3.03125,-0.375 0.963365,-0.22036 0.598941,0.14854 0.0625,0.375 -0.458671,0.19364 -1.848957,0.62339 -3.0625,0.8125 -0.018786,0.13988 -0.0509,0.29807 -0.09375,0.4375 1.221647,0.64196 1.834413,0.97932 2.5,1.28125 0.689201,0.31261 0.398434,0.3076 -0.03125,0.25 C 10.579535,10.79772 9.256153,10.37846 8.3125,10.03125 L 8.3125,10 7.4375,9.65625 C 8.635774,7.74048 5.686443,5.79473 4.34375,8.09375 l -0.25,0.5 C 3.009877,7.62601 2.698695,7.05211 2.25,6.53125 1.801303,6.01035 2.126754,6.16515 2.59375,6.5 2.910528,6.72713 3.327672,6.98848 3.78125,7.34375 3.885892,7.19408 3.985415,7.06297 4.09375,6.9375 3.586778,5.53457 3.112842,4.32844 2.84375,3.65625 2.570351,2.97333 2.819539,3.21297 3.15625,3.6875 3.475058,4.13683 4.208909,5.43163 4.65625,6.375 4.838007,6.23411 5.034727,6.1493 5.21875,6.0625 5.22604,4.54272 5.27229,2.60711 5.25,1.875 5.227603,1.13971 5.44116,1.42514 5.53125,2 5.629009,2.62372 5.860425,4.5704 5.96875,5.84375 6.081425,5.83095 6.202311,5.8085 6.3125,5.8125 7.024037,4.37065 7.391353,2.47416 7.59375,1.71875 7.670372,1.43277 7.7301,1.30975 7.78125,1.28125 z M 5.90625,8 C 6.377741,7.96407 6.76628,8.31066 6.8125,8.78125 l 0,0.03125 C 6.84899,9.29137 6.478872,9.7135 6,9.75 5.521128,9.78648 5.13024,9.41638 5.09375,8.9375 5.057259,8.45864 5.427378,8.0365 5.90625,8 z" />
  <g
     transform="translate(-41.000198,-357)"
     id="layer10" />
  <g
     transform="translate(-41.000198,-357)"
     id="layer11" />
  <g
     transform="translate(-41.000198,-357)"
     id="layer12" />
  <g
     transform="translate(-41.000198,-357)"
     id="layer13" />
  <g
     transform="translate(-41.000198,-357)"
     id="layer14" />
  <g
     transform="translate(-41.000198,-357)"
     id="layer15"
     style="display:inline" />
  <g
     transform="translate(-41.000198,-357)"
     id="g4953"
     style="display:inline" />
</svg>
