<?xml version="1.0" encoding="UTF-8" standalone="no"?>
<!-- Created with Inkscape (http://www.inkscape.org/) -->

<svg
   xmlns:dc="http://purl.org/dc/elements/1.1/"
   xmlns:cc="http://creativecommons.org/ns#"
   xmlns:rdf="http://www.w3.org/1999/02/22-rdf-syntax-ns#"
   xmlns:svg="http://www.w3.org/2000/svg"
   xmlns="http://www.w3.org/2000/svg"
   xmlns:sodipodi="http://sodipodi.sourceforge.net/DTD/sodipodi-0.dtd"
   xmlns:inkscape="http://www.inkscape.org/namespaces/inkscape"
   id="svg7384"
   sodipodi:docname="network-wired-acquiring-symbolic.svg"
   version="1.1"
   inkscape:version="0.48.3.1 r9886"
   height="16"
   width="16">
  <metadata
     id="metadata90">
    <rdf:RDF>
      <cc:Work
         rdf:about="">
        <dc:format>image/svg+xml</dc:format>
        <dc:type
           rdf:resource="http://purl.org/dc/dcmitype/StillImage" />
        <dc:title>Gnome Symbolic Icon Theme</dc:title>
      </cc:Work>
    </rdf:RDF>
  </metadata>
  <sodipodi:namedview
     inkscape:cy="12.628498"
     pagecolor="#ffffff"
     borderopacity="1"
     showborder="true"
     inkscape:bbox-paths="false"
     guidetolerance="10"
     inkscape:object-paths="true"
     inkscape:window-width="1914"
     showguides="true"
     inkscape:object-nodes="true"
     inkscape:snap-bbox="true"
     inkscape:pageshadow="2"
     inkscape:guide-bbox="true"
     inkscape:snap-nodes="false"
     bordercolor="#666666"
     objecttolerance="10"
     id="namedview88"
     showgrid="true"
     inkscape:window-maximized="1"
     inkscape:window-x="0"
     inkscape:snap-global="true"
     inkscape:window-y="25"
     gridtolerance="10"
     inkscape:window-height="1031"
     inkscape:snap-to-guides="true"
     inkscape:current-layer="layer9"
     inkscape:snap-bbox-midpoints="false"
     inkscape:zoom="22.627417"
     inkscape:cx="11.4458"
     inkscape:snap-grids="true"
     inkscape:pageopacity="0"
     borderlayer="true">
    <inkscape:grid
       spacingx="1px"
       spacingy="1px"
       id="grid4866"
       empspacing="2"
       enabled="true"
       type="xygrid"
       snapvisiblegridlinesonly="true"
       visible="true" />
  </sodipodi:namedview>
  <title
     id="title9167">Gnome Symbolic Icon Theme</title>
  <defs
     id="defs7386" />
  <g
     inkscape:label="status"
     transform="translate(-161.0002,-197)"
     inkscape:groupmode="layer"
     id="layer9"
     style="display:inline">
    <path
       inkscape:connector-curvature="0"
       d="m 166.11558,199 c -0.73246,0 -1.34615,0.63824 -1.34615,1.4 l 0,3.6 c 0,0.20998 0.0373,0.41958 0.12019,0.6 l 8.22116,0 c 0.0829,-0.18042 0.12019,-0.39002 0.12019,-0.6 l 0,-3.6 c 0,-0.76176 -0.61369,-1.4 -1.34615,-1.4 l -5.76924,0 z m 0.19231,1.6 5.38462,0 0,3.2 -5.38462,0 0,-3.2 z m 1.53846,7.95 0,0.85 -3.84615,0 0,1.6 10,0 0,-1.6 -3.84615,0 0,-0.85 -2.3077,0 z"
       id="rect12689-2"
       style="font-size:medium;font-style:normal;font-variant:normal;font-weight:normal;font-stretch:normal;text-indent:0pt;text-align:start;text-decoration:none;line-height:normal;letter-spacing:normal;word-spacing:normal;text-transform:none;direction:ltr;text-anchor:start;opacity:0.50000000000000000;color:#bebebe;fill:#4ecae9;fill-opacity:1;fill-rule:nonzero;stroke:none;stroke-width:2;marker:none;visibility:visible;display:inline;overflow:visible;font-family:Bitstream Vera Sans" />
    <path
       sodipodi:cy="209"
       transform="matrix(1.2,0,0,1.2,132.00004,-44.2)"
       d="m 29,209 c 0,0.55228 -0.447715,1 -1,1 -0.552285,0 -1,-0.44772 -1,-1 0,-0.55228 0.447715,-1 1,-1 0.552285,0 1,0.44772 1,1 z"
       id="path4955-1"
       sodipodi:type="arc"
       sodipodi:rx="1"
       sodipodi:ry="1"
       style="fill:#4ecae9;fill-opacity:1;stroke:none;display:inline"
       sodipodi:cx="28" />
    <path
       sodipodi:cy="209"
       transform="matrix(1.2,0,0,1.2,135.20004,-44.2)"
       d="m 29,209 c 0,0.55228 -0.447715,1 -1,1 -0.552285,0 -1,-0.44772 -1,-1 0,-0.55228 0.447715,-1 1,-1 0.552285,0 1,0.44772 1,1 z"
       id="path4957-2"
       sodipodi:type="arc"
       sodipodi:rx="1"
       sodipodi:ry="1"
       style="fill:#4ecae9;fill-opacity:1;stroke:none;display:inline"
       sodipodi:cx="28" />
    <path
       sodipodi:cy="209"
       transform="matrix(1.2,0,0,1.2,138.4,-44.2)"
       d="m 29,209 c 0,0.55228 -0.447715,1 -1,1 -0.552285,0 -1,-0.44772 -1,-1 0,-0.55228 0.447715,-1 1,-1 0.552285,0 1,0.44772 1,1 z"
       id="path4959-4"
       sodipodi:type="arc"
       sodipodi:rx="1"
       sodipodi:ry="1"
       style="fill:#4ecae9;fill-opacity:1;stroke:none;display:inline"
       sodipodi:cx="28" />
  </g>
  <g
     inkscape:label="devices"
     transform="translate(-161.0002,-197)"
     inkscape:groupmode="layer"
     id="layer10" />
  <g
     inkscape:label="apps"
     transform="translate(-161.0002,-197)"
     inkscape:groupmode="layer"
     id="layer11" />
  <g
     inkscape:label="actions"
     transform="translate(-161.0002,-197)"
     inkscape:groupmode="layer"
     id="layer12" />
  <g
     inkscape:label="places"
     transform="translate(-161.0002,-197)"
     inkscape:groupmode="layer"
     id="layer13" />
  <g
     inkscape:label="mimetypes"
     transform="translate(-161.0002,-197)"
     inkscape:groupmode="layer"
     id="layer14" />
  <g
     inkscape:label="emblems"
     transform="translate(-161.0002,-197)"
     inkscape:groupmode="layer"
     id="layer15"
     style="display:inline" />
  <g
     inkscape:label="categories"
     transform="translate(-161.0002,-197)"
     inkscape:groupmode="layer"
     id="g4953"
     style="display:inline" />
</svg>
