<?xml version="1.0" encoding="UTF-8" standalone="no"?>
<!-- Created with Inkscape (http://www.inkscape.org/) -->

<svg
   xmlns:dc="http://purl.org/dc/elements/1.1/"
   xmlns:cc="http://creativecommons.org/ns#"
   xmlns:rdf="http://www.w3.org/1999/02/22-rdf-syntax-ns#"
   xmlns:svg="http://www.w3.org/2000/svg"
   xmlns="http://www.w3.org/2000/svg"
   xmlns:sodipodi="http://sodipodi.sourceforge.net/DTD/sodipodi-0.dtd"
   xmlns:inkscape="http://www.inkscape.org/namespaces/inkscape"
   width="256"
   height="256"
   id="svg2"
   version="1.1"
   inkscape:version="0.48.3.1 r9886"
   sodipodi:docname="network-error.svg">
  <defs
     id="defs4">
		
	
			
			
			
		<style
   id="style6"
   type="text/css">
   
    .fil2 {fill:#6F448A}
    .fil3 {fill:#73A848}
    .fil1 {fill:#6F448A;fill-rule:nonzero}
    .fil0 {fill:#73A848;fill-rule:nonzero}
   
  </style>
</defs>
  <sodipodi:namedview
     id="base"
     pagecolor="#ffffff"
     bordercolor="#666666"
     borderopacity="1.0"
     inkscape:pageopacity="0.0"
     inkscape:pageshadow="2"
     inkscape:zoom="1.7656052"
     inkscape:cx="122.7579"
     inkscape:cy="203.71391"
     inkscape:document-units="px"
     inkscape:current-layer="layer1"
     showgrid="false"
     showguides="true"
     inkscape:guide-bbox="true"
     inkscape:window-width="1918"
     inkscape:window-height="1032"
     inkscape:window-x="0"
     inkscape:window-y="25"
     inkscape:window-maximized="1" />
  <metadata
     id="metadata7">
    <rdf:RDF>
      <cc:Work
         rdf:about="">
        <dc:format>image/svg+xml</dc:format>
        <dc:type
           rdf:resource="http://purl.org/dc/dcmitype/StillImage" />
        <dc:title></dc:title>
      </cc:Work>
    </rdf:RDF>
  </metadata>
  <g
     inkscape:label="Layer 1"
     inkscape:groupmode="layer"
     id="layer1"
     transform="translate(0,-796.3622)">
    <g
       id="g3884"
       transform="translate(317.6866,1.0290955)">
      <path
         style="fill:#492356;fill-opacity:1;stroke:none"
         d="m -291.49032,804.2438 c -11.20689,0 -20.2043,8.99658 -20.2043,20.2043 l 0,52.53115 c 0,11.20611 8.99741,20.7087 20.2043,20.7087 l 91.42443,0 c 11.20688,0 20.20429,-9.50259 20.20429,-20.7087 l 0,-52.53115 c 0,-11.20772 -8.99741,-20.2043 -20.20429,-20.2043 l -91.42443,0 z m 12.62768,11.11235 65.66395,0 c 11.20689,0 20.2043,8.99658 20.2043,20.2043 l 0,24.24516 c 0,11.20611 -8.99741,20.2043 -20.2043,20.2043 l -65.66395,0 c -11.20688,0 -20.20429,-8.99819 -20.20429,-20.2043 l 0,-24.24516 c 0,-11.20772 8.99741,-20.2043 20.20429,-20.2043 z"
         id="path3797"
         inkscape:connector-curvature="0" />
      <path
         style="fill:#492356;fill-opacity:1;stroke:none"
         d="m -179.3073,926.75442 c -11.20688,0 -20.20429,8.99679 -20.20429,20.2043 l 0,52.53124 c 0,11.20604 8.99741,20.70854 20.20429,20.70854 l 91.424436,0 c 11.20689,0 20.20429,-9.5025 20.20429,-20.70854 l 0,-52.53124 c 0,-11.20751 -8.9974,-20.2043 -20.20429,-20.2043 l -91.424436,0 z m 12.62768,11.11261 65.66397,0 c 11.206876,0 20.204286,8.9965 20.204286,20.2043 l 0,24.24499 c 0,11.20605 -8.99741,20.20428 -20.204286,20.20428 l -65.66397,0 c -11.20688,0 -20.20429,-8.99823 -20.20429,-20.20428 l 0,-24.24499 c 0,-11.2078 8.99741,-20.2043 20.20429,-20.2043 z"
         id="path3799"
         inkscape:connector-curvature="0" />
      <path
         inkscape:connector-curvature="0"
         style="fill:#492356;fill-opacity:1;stroke:none"
         d="m -302.24302,900.23962 117.15179,0 c 3.0113,0 5.43556,2.42426 5.43556,5.43556 l 0,8.01028 c 0,3.0113 -2.42426,5.43556 -5.43556,5.43556 l -117.15179,0 c -3.0113,0 -5.43555,-2.42426 -5.43555,-5.43556 l 0,-8.01028 c 0,-3.0113 2.42425,-5.43556 5.43555,-5.43556 z"
         id="path3801" />
      <rect
         style="fill:#492356;fill-opacity:1;stroke:none"
         id="rect3803"
         width="128.0229"
         height="18.881393"
         x="-196.3353"
         y="1023.541"
         ry="5.4355526" />
      <path
         style="fill:#492356;fill-opacity:1;stroke:none"
         d="m -239.44531,921.9814 0,58.93361 18.88139,0 0,-9.15505 17.1649,17.16401 c 0,0 -12.07219,10.4997 -17.30794,15.73523 0,-5.98392 -0.14305,-8.86887 -0.14305,-8.86887 0,0 -18.26062,0 -31.75507,0 0,-7.43839 0,-73.23661 0,-73.23661 z"
         id="path3805"
         inkscape:connector-curvature="0"
         sodipodi:nodetypes="cccccccccc" />
      <path
         style="fill:#492356;fill-opacity:1;stroke:none"
         d="m -141.60455,921.55158 0,-58.93352 -18.8814,0 0,9.15496 -17.16491,-17.16395 c 0,0 12.0722,-10.49976 17.30796,-15.7351 0,5.9837 0.14223,8.86886 0.14223,8.86886 0,0 18.26061,0 31.75506,0 0,7.43842 0,73.23643 0,73.23643 z"
         id="path3807"
         inkscape:connector-curvature="0"
         sodipodi:nodetypes="cccccccccc" />
      <path
         sodipodi:type="arc"
         style="fill:#492356;fill-opacity:1;stroke:none"
         id="path3809"
         sodipodi:cx="4.2832341"
         sodipodi:cy="3.7874734"
         sodipodi:rx="0.88496572"
         sodipodi:ry="0.88496572"
         d="M 5.1656417,3.7202336 C 5.2027773,4.2075738 4.8378142,4.6327454 4.350474,4.669881 3.8631338,4.7070166 3.4379621,4.3420536 3.4008265,3.8547133 3.363691,3.3673731 3.728654,2.9422014 4.2159942,2.9050659 4.6958229,2.8685027 5.1169258,3.2220577 5.1639622,3.7009731"
         transform="matrix(16.163436,0,0,16.163436,-317.83171,787.52597)"
         sodipodi:start="6.2071318"
         sodipodi:end="12.46847"
         sodipodi:open="true" />
      <path
         transform="matrix(16.163436,0,0,16.163436,-203.39902,909.96885)"
         sodipodi:type="arc"
         style="fill:#492356;fill-opacity:1;stroke:none"
         id="path3811"
         sodipodi:cx="4.2832341"
         sodipodi:cy="3.7874734"
         sodipodi:rx="0.88496572"
         sodipodi:ry="0.88496572"
         d="M 5.1656417,3.7202336 C 5.2027773,4.2075738 4.8378142,4.6327454 4.350474,4.669881 3.8631338,4.7070166 3.4379621,4.3420536 3.4008265,3.8547133 3.363691,3.3673731 3.728654,2.9422014 4.2159942,2.9050659 4.6958229,2.8685027 5.1169258,3.2220577 5.1639622,3.7009731"
         sodipodi:start="6.2071318"
         sodipodi:end="12.46847"
         sodipodi:open="true" />
    </g>
    <g
       transform="matrix(0.54201817,0,0,0.54201817,58.682114,423.03531)"
       id="layer1-7"
       inkscape:label="Capa 1"
       style="fill:#8abb22;fill-opacity:1;stroke:#a1e772;stroke-width:3.17429805;stroke-miterlimit:4;stroke-opacity:1;stroke-dasharray:none">
      <g
         style="fill:#8abb22;fill-opacity:1;stroke:#a1e772;stroke-width:0.09995962;stroke-miterlimit:4;stroke-opacity:1;stroke-dasharray:none"
         transform="matrix(31.755805,0,0,31.755805,-126.108,670.88364)"
         id="g4296">
        <g
           transform="translate(-60,-518)"
           id="layer9-7"
           style="fill:#8abb22;fill-opacity:1;stroke:#a1e772;stroke-width:0.09995962;stroke-miterlimit:4;stroke-opacity:1;stroke-dasharray:none;display:inline" />
        <g
           style="fill:#8abb22;fill-opacity:1;stroke:#a1e772;stroke-width:0.09995962;stroke-miterlimit:4;stroke-opacity:1;stroke-dasharray:none"
           transform="translate(-60,-518)"
           id="layer10-8" />
        <g
           style="fill:#8abb22;fill-opacity:1;stroke:#a1e772;stroke-width:0.09995962;stroke-miterlimit:4;stroke-opacity:1;stroke-dasharray:none"
           transform="translate(-60,-518)"
           id="layer11-2" />
        <g
           style="fill:#8abb22;fill-opacity:1;stroke:#a1e772;stroke-width:0.09995962;stroke-miterlimit:4;stroke-opacity:1;stroke-dasharray:none"
           transform="translate(-60,-518)"
           id="layer12-7">
          <g
             transform="translate(19,-242)"
             id="layer4-4-1"
             style="fill:#8abb22;fill-opacity:1;stroke:#a1e772;stroke-width:0.09995962;stroke-miterlimit:4;stroke-opacity:1;stroke-dasharray:none;display:inline">
            <path
               inkscape:connector-curvature="0"
               d="m 45,764 1,0 c 0.01037,-1.2e-4 0.02079,-4.6e-4 0.03125,0 0.254951,0.0112 0.50987,0.12858 0.6875,0.3125 L 49,766.59375 51.3125,764.3125 C 51.578125,764.082 51.759172,764.007 52,764 l 1,0 0,1 c 0,0.28647 -0.03434,0.55065 -0.25,0.75 l -2.28125,2.28125 2.25,2.25 C 52.906938,770.46942 52.999992,770.7347 53,771 l 0,1 -1,0 c -0.265301,-10e-6 -0.530586,-0.0931 -0.71875,-0.28125 L 49,769.4375 46.71875,771.71875 C 46.530586,771.90694 46.26529,772 46,772 l -1,0 0,-1 c -3e-6,-0.26529 0.09306,-0.53058 0.28125,-0.71875 l 2.28125,-2.25 L 45.28125,765.75 C 45.070508,765.55537 44.97809,765.28075 45,765 l 0,-1 z"
               id="path10839-9"
               style="font-size:medium;font-style:normal;font-variant:normal;font-weight:normal;font-stretch:normal;text-indent:0;text-align:start;text-decoration:none;line-height:normal;letter-spacing:normal;word-spacing:normal;text-transform:none;direction:ltr;block-progression:tb;writing-mode:lr-tb;text-anchor:start;color:#bebebe;fill:#8abb22;fill-opacity:1;fill-rule:nonzero;stroke:#a1e772;stroke-width:0.09995962;stroke-miterlimit:4;stroke-opacity:1;stroke-dasharray:none;marker:none;visibility:visible;display:inline;overflow:visible;enable-background:new;font-family:Andale Mono;-inkscape-font-specification:Andale Mono" />
          </g>
        </g>
        <g
           style="fill:#8abb22;fill-opacity:1;stroke:#a1e772;stroke-width:0.09995962;stroke-miterlimit:4;stroke-opacity:1;stroke-dasharray:none"
           transform="translate(-60,-518)"
           id="layer13-8" />
        <g
           style="fill:#8abb22;fill-opacity:1;stroke:#a1e772;stroke-width:0.09995962;stroke-miterlimit:4;stroke-opacity:1;stroke-dasharray:none"
           transform="translate(-60,-518)"
           id="layer14-0" />
        <g
           style="fill:#8abb22;fill-opacity:1;stroke:#a1e772;stroke-width:0.09995962;stroke-miterlimit:4;stroke-opacity:1;stroke-dasharray:none"
           transform="translate(-60,-518)"
           id="layer15-2" />
      </g>
    </g>
  </g>
</svg>
