<?xml version="1.0" encoding="UTF-8" standalone="no"?>
<!-- Created with Inkscape (http://www.inkscape.org/) -->

<svg
   xmlns:dc="http://purl.org/dc/elements/1.1/"
   xmlns:cc="http://creativecommons.org/ns#"
   xmlns:rdf="http://www.w3.org/1999/02/22-rdf-syntax-ns#"
   xmlns:svg="http://www.w3.org/2000/svg"
   xmlns="http://www.w3.org/2000/svg"
   xmlns:sodipodi="http://sodipodi.sourceforge.net/DTD/sodipodi-0.dtd"
   xmlns:inkscape="http://www.inkscape.org/namespaces/inkscape"
   width="256"
   height="256"
   viewBox="0 0 256 256"
   id="svg2"
   version="1.1"
   inkscape:version="0.91 r13725"
   sodipodi:docname="image.svg">
  <sodipodi:namedview
     id="base"
     pagecolor="#b5b5b5"
     bordercolor="#666666"
     borderopacity="1.0"
     inkscape:pageopacity="0"
     inkscape:pageshadow="2"
     inkscape:zoom="1.979899"
     inkscape:cx="106.91629"
     inkscape:cy="111.81211"
     inkscape:document-units="px"
     inkscape:current-layer="layer1"
     showgrid="true"
     inkscape:window-width="1913"
     inkscape:window-height="1030"
     inkscape:window-x="0"
     inkscape:window-y="24"
     inkscape:window-maximized="1"
     units="px">
    <inkscape:grid
       spacingy="5"
       empspacing="5"
       units="px"
       id="grid5438"
       type="axonomgrid" />
  </sodipodi:namedview>
  <defs
     id="defs4" />
  <metadata
     id="metadata7">
    <rdf:RDF>
      <cc:Work
         rdf:about="">
        <dc:format>image/svg+xml</dc:format>
        <dc:type
           rdf:resource="http://purl.org/dc/dcmitype/StillImage" />
        <dc:title />
      </cc:Work>
    </rdf:RDF>
  </metadata>
  <g
     transform="translate(0,-796.36219)"
     inkscape:label="Capa 1"
     inkscape:groupmode="layer"
     id="layer1">
    <path
       inkscape:connector-curvature="0"
       id="path5078"
       d="m 153.06968,1039.6109 64.9519,-37.5 -86.60254,-49.99997 -64.951906,37.5 z"
       style="fill:#000000;fill-rule:evenodd;stroke:none;stroke-width:1px;stroke-linecap:butt;stroke-linejoin:miter;stroke-opacity:1;opacity:0.4" />
    <path
       inkscape:connector-curvature="0"
       id="path5080"
       d="m 194.85572,989.86219 -17.32051,-45 -8.66026,30 z"
       style="fill:#24221c;fill-rule:evenodd;stroke:none;stroke-width:1px;stroke-linecap:butt;stroke-linejoin:miter;stroke-opacity:1;fill-opacity:1" />
    <path
       style="fill:#deaa87;fill-rule:evenodd;stroke:none;stroke-width:1px;stroke-linecap:butt;stroke-linejoin:miter;stroke-opacity:1"
       d="m 203.51597,869.86219 -43.30127,170.00001 -8.66025,10 43.30127,-175.00001 z"
       id="path5201"
       inkscape:connector-curvature="0" />
    <path
       sodipodi:nodetypes="ccccc"
       inkscape:connector-curvature="0"
       id="path4765-7"
       d="M 153.81041,1050.847 199.87084,871.78974 87.379151,807.20384 44.712576,985.81938 Z"
       style="fill:#454837;fill-rule:evenodd;stroke:#000000;stroke-width:0.74072987px;stroke-linecap:butt;stroke-linejoin:miter;stroke-opacity:1" />
    <path
       sodipodi:nodetypes="ccccc"
       inkscape:connector-curvature="0"
       id="path4765"
       d="M 150.96261,1039.8393 192.86099,876.96175 90.534114,818.21187 51.849183,982.07657 Z"
       style="fill:#d7eef4;fill-rule:evenodd;stroke:#000000;stroke-width:0.67379707px;stroke-linecap:butt;stroke-linejoin:miter;stroke-opacity:1" />
    <g
       id="g4777"
       transform="matrix(0.94498501,0,0,0.94498501,6.7377096,51.101435)">
      <path
         style="opacity:0.98999999;fill:#41707b;fill-opacity:1;stroke:none;stroke-width:10.00500011;stroke-miterlimit:4;stroke-dasharray:none;stroke-opacity:1"
         d="m 192.5669,876.7929 c 0,0 -102.143951,-58.11567 -102.143951,-58.11567 0,0 -38.421484,162.17641 -38.421484,162.17641 0,0 99.075105,58.54266 99.075105,58.54266 0,0 41.49033,-162.6034 41.49033,-162.6034"
         id="rect3777"
         inkscape:connector-curvature="0"
         sodipodi:nodetypes="ccccc" />
      <path
         style="fill:#d3bc5f;fill-opacity:0.54901961;stroke:none"
         d="m 137.30945,953.98337 c 0,0 -1.61212,15.8695 1.06993,28.60804 1.44669,6.87109 -0.95737,3.01663 10.69021,29.51449 2.30499,5.2439 2.16212,1.0719 5.133,2.3599 11.17771,-43.48311 22.59441,-87.73701 34.66123,-135.01062 0,0 -96.798467,-55.70671 -96.798467,-55.70671 0,0 -31.732002,134.68934 -31.732002,134.68934 0,0 1.656656,2.16543 3.07679,-4.66024 3.317817,-6.29402 10.012865,-9.5597 11.688011,-10.79549 1.676691,-1.23691 13.678443,-12.77049 13.992599,-14.07489 0.314303,-1.30494 3.784251,-8.97334 4.099869,-10.28242 0.315762,-1.3096 15.82599,-49.14356 17.82063,-52.54864 1.99763,-3.41019 11.83631,-16.82881 15.56294,-14.70318 3.72991,2.12756 14.1458,5.00616 14.1458,5.00616 0,0 7.1213,16.30694 7.1213,16.30694 0,0 2.20804,16.90903 2.20804,16.90903 0,0 1.1638,8.66151 -0.95016,16.18453 -2.10877,7.5045 -6.05304,32.77456 -9.00963,38.94999 -2.94926,6.16013 -2.77996,9.25384 -2.77996,9.25384 0,0 -1.3e-4,-7e-5 -1.3e-4,-7e-5"
         id="path4353"
         inkscape:connector-curvature="0"
         sodipodi:nodetypes="csscccccssssscccsscc" />
      <g
         id="g4383"
         transform="matrix(1.8015961,0.00508692,-0.00508692,1.8015961,-329.23765,-686.50628)">
        <g
           id="g4377">
          <path
             style="display:inline;fill:#d3bc5f;fill-opacity:1;stroke:none"
             d="m 253.12806,902.70123 c 0,0 -1.49001,4.5199 -1.49001,4.5199 0,0 2.88032,4.1475 3.25272,5.80926 0.37225,1.66103 2.27537,9.77518 2.08427,12.13353 -0.19089,2.35576 -2.41011,5.57728 -5.07662,4.84125 -2.66257,-0.73496 -10.20265,-3.09372 -10.20265,-3.09372 0,0 -5.3209,-11.4815 -5.8769,-13.44234 -0.55625,-1.96171 6.76205,-6.74846 7.2936,-10.56248 0.53257,-3.82139 3.08697,-0.48494 5.77775,-0.37638 2.69546,0.10875 4.23784,0.17098 4.23784,0.17098 0,0 0,0 0,0"
             id="path4349"
             inkscape:connector-curvature="0" />
          <path
             style="fill:#d3bc5f;fill-opacity:1;stroke:none"
             d="m 263.66029,859.36569 c 0,0 0.71693,5.80376 0.71693,5.80376 0,0 3.29303,3.6617 2.95625,5.41344 -0.33646,1.75012 -1.05669,10.72088 -1.88553,10.69328 -0.82838,-0.0276 -1.78407,-2.26721 -3.507,-2.25481 -0.58531,0.004 -2.17895,1.1132 -1.29327,3.54773 0.8853,2.43354 4.02024,1.52944 4.02024,1.52944 0,0 -1.24397,4.64256 -1.91584,6.62485 -0.67102,1.97981 -0.84912,4.24037 -2.44081,5.83224 -1.58898,1.58916 -4.32856,4.85609 -5.5201,4.46221 -1.19081,-0.39363 -4.35469,-5.9044 -4.53876,-7.03836 -0.18414,-1.13435 -1.0487,-5.66156 -1.06925,-8.61806 -0.0206,-2.96005 -0.088,-5.57436 1.03531,-8.32979 1.12539,-2.76058 1.53473,-4.46063 1.53473,-4.46063 0,0 -2.02219,-3.08147 0.84199,-4.26783 2.87098,-1.18918 2.89373,-6.24073 5.60535,-5.59451 2.71576,0.6472 5.12473,3.36304 5.21472,1.47084 0.0901,-1.89379 0.24504,-4.8138 0.24504,-4.8138 0,0 0,0 0,0 m -5.78902,16.53824 c 0,0 -4.84453,-1.709 -5.66273,-0.99105 -0.81752,0.71737 1.11711,3.14647 2.64142,4.46299 1.52502,1.31712 2.63945,-0.63515 2.66947,1.16304 0.036,2.15537 -0.29169,2.17122 0.5363,2.94153 0.82817,0.77048 0.85753,-3.1217 1.06189,-4.33963 0.20446,-1.21873 -1.24633,-3.23687 -1.24633,-3.23687 0,0 -2e-5,-1e-5 -2e-5,-1e-5 m -2.02949,11.42985 c 0,0 -0.24055,0.34851 -0.28571,0.91293 -0.032,1.38021 0.49246,2.32443 1.08006,2.6663 1.25207,0.7284 1.18126,-0.58497 2.02131,-0.9085 -0.15325,-0.0158 -0.65117,-0.2166 -0.82073,-0.3499 -0.69663,-0.54759 -1.12161,-0.17016 -1.375,-1.16903 -0.0848,-0.33412 -0.61993,-1.1518 -0.61993,-1.1518 0,0 0,0 0,0 m 3.31951,2.20545 c 0,0 -0.45825,0.0613 -0.74321,0.30176 0.47016,0.0415 0.74321,-0.30176 0.74321,-0.30176 0,0 0,0 0,0 m -4.15634,2.32365 c -0.26608,-0.17148 -1.82405,-1.64078 -1.6918,-1.40132 0.6204,1.12337 2.09346,2.37602 2.09346,2.37602 0,0 3.31792,1.64185 3.31792,1.64185 -0.24081,-0.0763 -0.666,-0.9037 -0.87605,-0.98762 -0.63003,-0.25172 -2.04505,-1.11457 -2.84358,-1.62873 0,0 5e-5,-2e-4 5e-5,-2e-4 m 0.32046,2.50059 c -0.24445,-0.14785 -0.55513,-0.72912 -0.69531,-0.62581 -0.56053,0.41315 -0.12682,2.36083 1.1601,2.36658 1.28802,0.006 1.24322,-0.85992 1.24322,-0.85992 0,0 -0.97436,-0.43795 -1.70801,-0.88085 0,0 0,0 0,0"
             id="path4335"
             inkscape:connector-curvature="0"
             sodipodi:nodetypes="ccsssscsssssscsssccssssscccscssccscssccssscscsc" />
          <path
             style="fill:#d3bc5f;fill-opacity:1;stroke:none"
             d="m 263.71836,880.7205 c 0,0 0.73744,0.73668 0.48681,1.22363 -0.25052,0.48676 -0.85226,-0.80233 -1.66717,-0.95322 -0.81452,-0.15084 -1.2166,-0.38076 -1.2166,-0.38076 0,0 2.39696,0.11035 2.39696,0.11035"
             id="path4355"
             inkscape:connector-curvature="0" />
          <path
             style="fill:#d3bc5f;fill-opacity:1;stroke:none"
             d="m 256.70016,876.4994 c 0,0 0.99303,1.82632 0.99303,1.82632 0,0 -1.0223,-0.89911 -1.42356,-1.12852 -0.4012,-0.22936 -1.33722,-0.13563 -1.95451,-0.27907 -0.61707,-0.14339 0.40436,-1.13131 0.40436,-1.13131 0,0 1.77369,0.48938 1.77369,0.48938 0,0 0.20699,0.2232 0.20699,0.2232"
             id="path4357"
             inkscape:connector-curvature="0" />
        </g>
      </g>
    </g>
    <path
       style="fill:#e9ddaf;fill-rule:evenodd;stroke:#000000;stroke-width:1px;stroke-linecap:butt;stroke-linejoin:miter;stroke-opacity:1"
       d="m 86.60254,807.36219 4.330127,-2.5 112.583303,65 -4.33013,2.5 -112.5833,-65"
       id="path5199"
       inkscape:connector-curvature="0" />
    <path
       style="fill:#c8ab37;fill-rule:evenodd;stroke:#c8ab37;stroke-width:1px;stroke-linecap:butt;stroke-linejoin:miter;stroke-opacity:1"
       d="m 51.961524,982.36219 99.592926,57.50001"
       id="path5203"
       inkscape:connector-curvature="0" />
    <path
       style="fill:#deaa87;fill-rule:evenodd;stroke:none;stroke-width:1px;stroke-linecap:butt;stroke-linejoin:miter;stroke-opacity:1;fill-opacity:1"
       d="m 181.86533,952.36219 12.99039,32.5 0,5 -12.99039,-32.5 z"
       id="path5205"
       inkscape:connector-curvature="0" />
  </g>
</svg>
