<?xml version="1.0" encoding="UTF-8" standalone="no"?>
<!-- Created with Inkscape (http://www.inkscape.org/) -->

<svg
   xmlns:dc="http://purl.org/dc/elements/1.1/"
   xmlns:cc="http://creativecommons.org/ns#"
   xmlns:rdf="http://www.w3.org/1999/02/22-rdf-syntax-ns#"
   xmlns:svg="http://www.w3.org/2000/svg"
   xmlns="http://www.w3.org/2000/svg"
   xmlns:sodipodi="http://sodipodi.sourceforge.net/DTD/sodipodi-0.dtd"
   xmlns:inkscape="http://www.inkscape.org/namespaces/inkscape"
   width="48"
   height="48"
   id="svg2"
   version="1.1"
   inkscape:version="0.48.5 r10040"
   sodipodi:docname="computer.svg">
  <defs
     id="defs4">
    <linearGradient
       id="linearGradient4501">
      <stop
         style="stop-color:#323232;stop-opacity:1;"
         offset="0"
         id="stop4503" />
      <stop
         style="stop-color:#575757;stop-opacity:1;"
         offset="1"
         id="stop4505" />
    </linearGradient>
    <linearGradient
       id="linearGradient4491">
      <stop
         style="stop-color:#262626;stop-opacity:1;"
         offset="0"
         id="stop4493" />
      <stop
         style="stop-color:#cfcfcf;stop-opacity:1;"
         offset="1"
         id="stop4495" />
    </linearGradient>
    <linearGradient
       id="linearGradient4441">
      <stop
         style="stop-color:#f7f7f7;stop-opacity:1;"
         offset="0"
         id="stop4443" />
      <stop
         style="stop-color:#02090b;stop-opacity:0;"
         offset="1"
         id="stop4445" />
    </linearGradient>
    <linearGradient
       id="linearGradient4429">
      <stop
         style="stop-color:#15526b;stop-opacity:1;"
         offset="0"
         id="stop4431" />
      <stop
         style="stop-color:#000000;stop-opacity:1;"
         offset="1"
         id="stop4433" />
    </linearGradient>
    <linearGradient
       id="linearGradient4419">
      <stop
         style="stop-color:#585858;stop-opacity:1;"
         offset="0"
         id="stop4421" />
      <stop
         style="stop-color:#d7d7d7;stop-opacity:1;"
         offset="1"
         id="stop4423" />
    </linearGradient>
  </defs>
  <sodipodi:namedview
     id="base"
     pagecolor="#ffffff"
     bordercolor="#666666"
     borderopacity="1.0"
     inkscape:pageopacity="0.0"
     inkscape:pageshadow="2"
     inkscape:zoom="7.6506647"
     inkscape:cx="72.239154"
     inkscape:cy="-0.24107654"
     inkscape:document-units="px"
     inkscape:current-layer="layer1"
     showgrid="false"
     showguides="true"
     inkscape:guide-bbox="true"
     inkscape:window-width="1914"
     inkscape:window-height="1031"
     inkscape:window-x="0"
     inkscape:window-y="25"
     inkscape:window-maximized="1"
     inkscape:snap-global="false" />
  <metadata
     id="metadata7">
    <rdf:RDF>
      <cc:Work
         rdf:about="">
        <dc:format>image/svg+xml</dc:format>
        <dc:type
           rdf:resource="http://purl.org/dc/dcmitype/StillImage" />
        <dc:title />
      </cc:Work>
    </rdf:RDF>
  </metadata>
  <g
     inkscape:label="Layer 1"
     inkscape:groupmode="layer"
     id="layer1"
     transform="translate(0,-1004.3622)">
    <g
       transform="matrix(12.178737,0,0,11.218299,0.36764893,1000.1836)"
       style="fill:#ffffff;fill-opacity:1;fill-rule:evenodd"
       id="g2992-6-6-8-0-2-7-4-6">
      <path
         sodipodi:nodetypes="ccccc"
         style="fill:#ffffff;fill-opacity:1"
         inkscape:connector-curvature="0"
         d="M 0.67062907,3.1466295 0.96315753,3.436604 C 1.4643536,2.1285285 2.398514,2.6652083 2.0308724,3.5442268 L 2.4273148,3.6928525 C 3.098842,2.8086816 1.7399119,1.2088624 0.67062907,3.1466295 z"
         class="fil0"
         id="_121731384-7-2-4-3-0-7-7-5-3" />
      <path
         sodipodi:nodetypes="zsccz"
         style="fill:#ffffff;fill-opacity:1"
         inkscape:connector-curvature="0"
         d="M 0.0303311,2.3985662 C -0.16022182,2.1773635 0.24113274,2.2791781 0.43945721,2.4213723 0.63778167,2.5635664 0.93775077,2.7194966 1.225806,3.0230352 L 1.164018,3.6005182 C 0.58270652,3.2325285 0.22088401,2.6197691 0.0303311,2.3985662 z"
         class="fil0"
         id="_121328256-76-9-9-5-8-5-1-4-0" />
      <path
         sodipodi:open="true"
         sodipodi:end="12.46847"
         sodipodi:start="6.2071318"
         transform="matrix(0.26388568,0,0,0.19013333,-1.3489891,0.75671127)"
         d="m 13.844562,12.550547 c 0.112017,1.470034 -0.988873,2.752541 -2.458908,2.864558 -1.4700343,0.112018 -2.7525408,-0.988873 -2.8645582,-2.458907 -0.1120173,-1.470035 0.9888732,-2.752542 2.4589082,-2.864559 1.447376,-0.1102906 2.717609,0.956188 2.859492,2.40081"
         sodipodi:ry="2.6694496"
         sodipodi:rx="2.6694496"
         sodipodi:cy="12.753372"
         sodipodi:cx="11.182829"
         id="path3582-4-5-6-5-0-1-4-2-6"
         style="fill:#ffffff;fill-opacity:1;stroke:none"
         sodipodi:type="arc" />
      <path
         sodipodi:nodetypes="zsccz"
         style="fill:#ffffff;fill-opacity:1;fill-rule:evenodd"
         inkscape:connector-curvature="0"
         d="M 0.41446344,1.6325973 C 0.29835569,1.3425611 0.41065505,1.0762974 0.55364971,1.2778311 0.69664358,1.4793649 1.1144663,2.1270867 1.2977465,2.5303689 L 0.8434598,2.8063202 C 0.62431182,2.1978548 0.530571,1.9226338 0.41446344,1.6325973 z"
         class="fil0"
         id="_121328256-7-8-4-5-2-3-9-3-0-9" />
      <path
         sodipodi:nodetypes="cccccc"
         style="fill:#ffffff;fill-opacity:1;fill-rule:evenodd"
         inkscape:connector-curvature="0"
         d="m 1.5285643,1.0508434 c 0.047624,0.2662739 0.1767801,0.6904702 0.2221278,1.2308755 L 1.0878669,2.5424885 c 0.003,-0.6467199 0.055534,-1.4510838 0.046026,-1.76335261 -0.031366,-0.195269 0.304361,-0.14254643 0.3946716,0.27170491 z"
         class="fil0"
         id="_121328256-7-9-5-0-5-8-1-9-0-9-0-9" />
      <path
         sodipodi:nodetypes="zsccz"
         style="fill:#ffffff;fill-opacity:1;fill-rule:evenodd"
         inkscape:connector-curvature="0"
         d="M 2.017781,0.71633647 C 2.104554,0.39246825 2.2915083,0.74256545 2.2893453,1.0057647 2.2871853,1.2689626 2.3900968,1.9200565 2.0771415,2.4237315 L 1.4385907,2.2718511 C 1.6742952,1.6127087 1.9310066,1.0402049 2.017781,0.71633647 z"
         class="fil0"
         id="_121328256-7-4-0-9-2-3-6-2-1-8-9-7" />
      <path
         sodipodi:nodetypes="zsccz"
         style="fill:#ffffff;fill-opacity:1;fill-rule:evenodd"
         inkscape:connector-curvature="0"
         d="M 2.9801268,1.2110424 C 3.2508751,0.79169164 3.3800006,1.2671233 3.1457903,1.7256896 2.9068459,2.1935248 2.8130694,2.3939982 2.353339,2.737877 2.2668705,2.607019 1.4950428,2.2032892 1.8679046,2.3025798 2.4400553,1.8910657 2.7093785,1.6303932 2.9801268,1.2110424 z"
         class="fil0"
         id="_121328256-7-4-9-4-8-5-4-4-9-6-7-5" />
      <path
         sodipodi:nodetypes="ccccc"
         style="fill:#ffffff;fill-opacity:1;fill-rule:evenodd"
         inkscape:connector-curvature="0"
         d="M 3.4884694,3.2864078 C 3.2437512,3.3897197 2.9621609,3.5116525 2.4070376,3.5270609 L 2.3892517,2.8608238 c 0.653125,-5.32e-4 0.8925785,-0.053347 1.3017028,-0.1469273 0.2756754,-0.056042 0.2300208,0.3827344 -0.2024851,0.5725113 z"
         class="fil0"
         id="_121328256-7-4-9-1-6-1-3-1-3-4-9-6-5" />
      <path
         sodipodi:nodetypes="zssccsz"
         style="fill:#ffffff;fill-opacity:1;fill-rule:evenodd"
         inkscape:connector-curvature="0"
         d="M 3.269115,3.6821765 C 3.4851657,3.7801847 3.6454268,4.1535553 3.4629472,4.1291012 3.233447,4.0983458 1.7231624,3.8077338 1.2125925,3.6229483 c -0.034305,-0.012416 -0.048502,-0.025764 -0.07324,-0.0371 L 2.4932599,3.2117686 C 2.6391331,3.2882396 2.6976901,3.3402434 2.8088667,3.3992199 3.122283,3.5654795 3.0530643,3.5841683 3.269115,3.6821765 z"
         class="fil0"
         id="_121328256-9-1-9-8-5-01-7-6-8-9" />
      <path
         inkscape:transform-center-x="-0.069049672"
         inkscape:transform-center-y="0.95298244"
         sodipodi:nodetypes="zsccz"
         style="fill:#ffffff;fill-opacity:1;fill-rule:evenodd"
         inkscape:connector-curvature="0"
         d="M 3.4936111,1.9441524 C 3.8880497,1.7278899 3.8576981,2.1264436 3.6507427,2.2890669 3.4284338,2.4637579 2.8979394,2.9061078 2.3306304,3.0926995 L 2.1967691,2.5314961 C 2.8692911,2.3288169 3.0991723,2.1604147 3.4936111,1.9441524 z"
         class="fil0"
         id="_121328256-7-4-9-1-7-6-6-7-8-3-7-0-3-1" />
    </g>
    <path
       id="_121731384-7-2-4-3-0-7-7-5-9"
       class="fil0"
       d="m 8.9195985,1035.3565 3.0634715,2.637 c 5.402447,-12.2865 15.565603,-4.6191 11.412012,3.4937 l 4.095294,0.7808 c 6.603003,-9.4403 -9.332509,-22.333 -18.5707775,-6.9115 z"
       inkscape:connector-curvature="0"
       style="fill:#ffffff;fill-opacity:1;fill-rule:evenodd"
       sodipodi:nodetypes="ccccc" />
    <g
       transform="matrix(9.5210796,0,0,8.7702299,2.1004384,1005.8629)"
       style="fill:#000000;fill-opacity:1;fill-rule:evenodd"
       id="g2992-6-6-8-0-2-7-4-7">
      <path
         sodipodi:nodetypes="ccccc"
         style="fill:#000000;fill-opacity:1"
         inkscape:connector-curvature="0"
         d="M 0.67062907,3.1466295 0.96315753,3.436604 C 1.4643536,2.1285285 2.9137173,3.0231678 2.3709066,3.891 L 2.767349,4.0396257 C 3.5316128,2.8534265 1.7399119,1.2088624 0.67062907,3.1466295 z"
         class="fil0"
         id="_121731384-7-2-4-3-0-7-7-5-2" />
      <path
         sodipodi:nodetypes="zsccz"
         style="fill:#000000;fill-opacity:1"
         inkscape:connector-curvature="0"
         d="M 0.1777958,2.5586559 C -0.01275712,2.3374532 0.11748395,2.4022267 0.31580842,2.5444209 0.51413288,2.686615 0.81410198,2.8425452 1.1021572,3.1460838 L 0.96046525,3.4267024 C 0.50016423,3.0157207 0.36834871,2.7798588 0.1777958,2.5586559 z"
         class="fil0"
         id="_121328256-76-9-9-5-8-5-1-4-6" />
      <path
         sodipodi:open="true"
         sodipodi:end="12.46847"
         sodipodi:start="6.2071318"
         transform="matrix(0.13834256,0,0,0.13834256,0.19919495,1.7915877)"
         d="m 13.844562,12.550547 c 0.112017,1.470034 -0.988873,2.752541 -2.458908,2.864558 -1.4700343,0.112018 -2.7525408,-0.988873 -2.8645582,-2.458907 -0.1120173,-1.470035 0.9888732,-2.752542 2.4589082,-2.864559 1.447376,-0.1102906 2.717609,0.956188 2.859492,2.40081"
         sodipodi:ry="2.6694496"
         sodipodi:rx="2.6694496"
         sodipodi:cy="12.753372"
         sodipodi:cx="11.182829"
         id="path3582-4-5-6-5-0-1-4-2-1"
         style="fill:#000000;fill-opacity:1;stroke:none"
         sodipodi:type="arc" />
      <path
         sodipodi:nodetypes="zsccz"
         style="fill:#000000;fill-opacity:1;fill-rule:evenodd"
         inkscape:connector-curvature="0"
         d="M 0.4247675,1.3417552 C 0.30865975,1.051719 0.40976238,1.1514637 0.55275704,1.3529974 0.69575091,1.5545312 1.0526419,2.1606454 1.2359221,2.5639276 L 0.96710859,2.750389 C 0.74796061,2.1419236 0.54087506,1.6317917 0.4247675,1.3417552 z"
         class="fil0"
         id="_121328256-7-8-4-5-2-3-9-3-0-5" />
      <path
         sodipodi:nodetypes="zsccz"
         style="fill:#000000;fill-opacity:1;fill-rule:evenodd"
         inkscape:connector-curvature="0"
         d="M 1.44312,0.58246558 C 1.43361,0.2701971 1.521214,0.39282353 1.5594765,0.63695278 1.6013875,0.90435635 1.7053444,1.7413136 1.7506921,2.2817189 l -0.3164814,0.082874 c 0.003,-0.6467199 0.018418,-1.46985881 0.00891,-1.78212772 z"
         class="fil0"
         id="_121328256-7-9-5-0-5-8-1-9-0-9-0-1" />
      <path
         sodipodi:nodetypes="zsccz"
         style="fill:#000000;fill-opacity:1;fill-rule:evenodd"
         inkscape:connector-curvature="0"
         d="M 2.4423509,0.52194906 C 2.5291241,0.19808085 2.5810366,0.32015476 2.5788735,0.5833539 2.5767086,0.84655178 2.4931372,1.8976838 2.1801821,2.4013588 L 1.8869765,2.2775017 c 0.307833,-0.6143974 0.4686,-1.43168421 0.5553744,-1.75555264 z"
         class="fil0"
         id="_121328256-7-4-0-9-2-3-6-2-1-8-9-0" />
      <path
         sodipodi:nodetypes="zsccz"
         style="fill:#000000;fill-opacity:1;fill-rule:evenodd"
         inkscape:connector-curvature="0"
         d="M 3.6839051,1.1452392 C 3.9311577,0.7718015 3.8949861,1.029192 3.7754429,1.2636867 3.5368401,1.7317274 2.9264141,2.4275569 2.4666837,2.7714357 L 2.2400615,2.4692892 C 2.8122122,2.0577751 3.4366526,1.5186768 3.6839051,1.1452392 z"
         class="fil0"
         id="_121328256-7-4-9-4-8-5-4-4-9-6-7-7" />
      <path
         sodipodi:nodetypes="zsccz"
         style="fill:#000000;fill-opacity:1;fill-rule:evenodd"
         inkscape:connector-curvature="0"
         d="m 4.2265513,3.0597007 c 0.4091243,-0.09358 0.2522344,0.074602 0.024419,0.1707759 C 4.0062521,3.3337885 3.127026,3.6011424 2.5719027,3.6165508 l 0.00603,-0.3830989 c 0.653125,-5.32e-4 1.239497,-0.080171 1.6486213,-0.1737512 z"
         class="fil0"
         id="_121328256-7-4-9-1-6-1-3-1-3-4-9-6-4" />
      <path
         sodipodi:nodetypes="zsccz"
         style="fill:#000000;fill-opacity:1;fill-rule:evenodd"
         inkscape:connector-curvature="0"
         d="M 3.9700033,4.2976494 C 4.2626923,4.4304234 4.1316091,4.4287597 3.9491295,4.4043056 3.7042093,4.3714838 3.1539385,4.1823832 2.7531868,4.0349335 L 2.8590012,3.7253663 c 0.5571017,0.2920484 0.8183128,0.4395089 1.1110017,0.572283 z"
         class="fil0"
         id="_121328256-9-1-9-8-5-01-7-6-8-6" />
      <path
         inkscape:transform-center-x="-0.069049672"
         inkscape:transform-center-y="0.95298244"
         sodipodi:nodetypes="zsccz"
         style="fill:#000000;fill-opacity:1;fill-rule:evenodd"
         inkscape:connector-curvature="0"
         d="M 4.1962848,2.076334 C 4.5907234,1.8600715 4.4775437,2.0697011 4.2705883,2.2323244 4.0482794,2.4070154 3.2196806,2.935215 2.6523716,3.1218067 L 2.5483179,2.7530525 C 3.2208399,2.5503733 3.801846,2.2925963 4.1962848,2.076334 z"
         class="fil0"
         id="_121328256-7-4-9-1-7-6-6-7-8-3-7-0-3-5" />
    </g>
  </g>
</svg>
