<?xml version="1.0" encoding="UTF-8" standalone="no"?>
<!-- Created with Inkscape (http://www.inkscape.org/) -->

<svg
   xmlns:dc="http://purl.org/dc/elements/1.1/"
   xmlns:cc="http://creativecommons.org/ns#"
   xmlns:rdf="http://www.w3.org/1999/02/22-rdf-syntax-ns#"
   xmlns:svg="http://www.w3.org/2000/svg"
   xmlns="http://www.w3.org/2000/svg"
   xmlns:sodipodi="http://sodipodi.sourceforge.net/DTD/sodipodi-0.dtd"
   xmlns:inkscape="http://www.inkscape.org/namespaces/inkscape"
   width="48"
   height="48"
   id="svg2"
   version="1.1"
   inkscape:version="0.48.5 r10040"
   sodipodi:docname="folder-pictures.svg">
  <defs
     id="defs4">
    <linearGradient
       id="linearGradient4195">
      <stop
         id="stop4197"
         offset="0"
         style="stop-color:#737373;stop-opacity:1;" />
      <stop
         id="stop4199"
         offset="1"
         style="stop-color:#cfcfcf;stop-opacity:1;" />
    </linearGradient>
    <linearGradient
       id="linearGradient4110">
      <stop
         style="stop-color:#000000;stop-opacity:1;"
         offset="0"
         id="stop4112" />
      <stop
         style="stop-color:#ffffff;stop-opacity:1;"
         offset="1"
         id="stop4114" />
    </linearGradient>
    <linearGradient
       id="linearGradient3864">
      <stop
         style="stop-color:#ffffff;stop-opacity:1;"
         offset="0"
         id="stop3866" />
      <stop
         style="stop-color:#d5d5d5;stop-opacity:0;"
         offset="1"
         id="stop3868" />
    </linearGradient>
    <linearGradient
       id="linearGradient3815">
      <stop
         style="stop-color:#e0f2fe;stop-opacity:1;"
         offset="0"
         id="stop3817" />
      <stop
         style="stop-color:#075e99;stop-opacity:1;"
         offset="1"
         id="stop3819" />
    </linearGradient>
    <linearGradient
       id="linearGradient3805">
      <stop
         style="stop-color:#989898;stop-opacity:1;"
         offset="0"
         id="stop3807" />
      <stop
         style="stop-color:#2a2a2a;stop-opacity:0.94968551;"
         offset="1"
         id="stop3809" />
    </linearGradient>
    <linearGradient
       id="linearGradient3909">
      <stop
         style="stop-color:#909090;stop-opacity:1;"
         offset="0"
         id="stop3911" />
      <stop
         style="stop-color:#cfcfcf;stop-opacity:1;"
         offset="1"
         id="stop3913" />
    </linearGradient>
    <linearGradient
       id="linearGradient3815-1">
      <stop
         style="stop-color:#e0f2fe;stop-opacity:1;"
         offset="0"
         id="stop3817-9" />
      <stop
         style="stop-color:#01131f;stop-opacity:1;"
         offset="1"
         id="stop3819-2" />
    </linearGradient>
  </defs>
  <sodipodi:namedview
     id="base"
     pagecolor="#ffffff"
     bordercolor="#666666"
     borderopacity="1.0"
     inkscape:pageopacity="0.0"
     inkscape:pageshadow="2"
     inkscape:zoom="8.5949936"
     inkscape:cx="68.163712"
     inkscape:cy="27.658737"
     inkscape:document-units="px"
     inkscape:current-layer="layer1"
     showgrid="false"
     showguides="true"
     inkscape:guide-bbox="true"
     inkscape:window-width="1914"
     inkscape:window-height="1031"
     inkscape:window-x="0"
     inkscape:window-y="25"
     inkscape:window-maximized="1" />
  <metadata
     id="metadata7">
    <rdf:RDF>
      <cc:Work
         rdf:about="">
        <dc:format>image/svg+xml</dc:format>
        <dc:type
           rdf:resource="http://purl.org/dc/dcmitype/StillImage" />
        <dc:title />
      </cc:Work>
    </rdf:RDF>
  </metadata>
  <g
     inkscape:label="Layer 1"
     inkscape:groupmode="layer"
     id="layer1"
     transform="translate(0,-1004.3622)">
    <path
       inkscape:connector-curvature="0"
       style="fill:#ffffff;fill-opacity:1;stroke:none"
       d="m 28.240065,1010.3687 c -2.264952,0.015 -6.198077,0.1626 -8.832155,0.1462 -3.010517,-0.018 -3.484439,5.8321 -3.484439,5.8321 l -1.878447,0.034 0,-0.9476 c 0,-0.3169 -0.262539,-0.5752 -0.584646,-0.5752 l -5.4290211,0 c -0.3219698,0 -0.584647,0.2583 -0.584647,0.5752 l 0,0.9927 -0.035852,0 c -3.4438973,0 -7.00982851,3.3351 -7.00982851,6.7245 l 0,17.0223 c 0,3.3896 2.76852061,6.7134 6.21241821,6.7134 l 34.7479514,0 c 3.443897,0 6.223864,-3.3238 6.223864,-6.7134 l 0,-17.0223 c 0,-3.3894 -2.779967,-6.7245 -6.223864,-6.7245 l -8.710015,-0.2707 c 0,0 -1.058705,-5.7286 -3.484435,-5.7758 -0.303216,0 -1.573318,0.065 -0.928402,-0.016 z m -2.510256,9.126 c 6.122654,-0.1576 11.384196,4.9696 11.989385,11.0339 l 0.02205,0.2481 c 0.493227,6.3702 -4.347341,11.9232 -10.819952,12.4086 -6.472888,0.4854 -12.126721,-4.2788 -12.619947,-10.6487 -0.493227,-6.3703 4.358925,-12.5225 10.831676,-13.008 0.199109,-0.015 0.398494,-0.03 0.596089,-0.034 z m 0.11445,4.5588 c -0.130994,0 -0.268609,0.015 -0.401119,0.021 -4.307627,0.3232 -7.537798,4.0179 -7.209761,8.2573 0.328451,4.2396 4.09404,7.4187 8.401945,7.0956 4.307626,-0.323 7.526353,-4.0178 7.198182,-8.2574 l -0.01653,-0.1691 c -0.40277,-4.036 -3.903059,-7.0537 -7.977524,-6.9488 z"
       id="rect4184-7-2-7-2-5-1-1"
       sodipodi:nodetypes="ccccsssscsssssssccccccccssccccccccccc" />
    <path
       inkscape:connector-curvature="0"
       style="fill:#000000;fill-opacity:1;stroke:none"
       d="m 27.006918,1013.4351 c -1.94359,0.013 -4.290191,0.1395 -6.550532,0.1255 -2.583367,-0.014 -2.990046,5.0045 -2.990046,5.0045 l -3.668872,0.03 0,-0.813 c 0,-0.272 -0.225289,-0.4936 -0.501693,-0.4936 l -3.8359458,0 c -0.276286,0 -0.5016929,0.2216 -0.5016929,0.4936 l 0,0.8519 -0.030762,0 c -2.9552591,0 -4.9867632,2.3476 -4.9867632,5.2561 l 0,14.6072 c 0,2.9085 2.3757084,5.2466 5.3309679,5.2466 l 29.92058,0 c 2.95526,0 5.340789,-2.3381 5.340789,-5.2466 l 0,-14.6072 c 0,-2.9085 -2.385529,-5.2561 -5.340789,-5.2561 l -8.399817,-0.2323 c 0,0 -0.908492,-4.9158 -2.990046,-4.9563 -0.260194,0 -0.518972,-0.013 -0.796674,-0.013 z m -2.154087,7.8312 c 5.253938,-0.1353 9.768944,3.7502 10.288269,8.9541 l 0.01891,0.213 c 0.423245,5.4663 -3.730519,10.2313 -9.284763,10.6479 -5.554482,0.4166 -10.406119,-3.6716 -10.829364,-9.1378 -0.423245,-5.4665 3.740457,-10.2316 9.29482,-10.6482 0.170861,-0.013 0.341955,-0.025 0.511513,-0.03 z m 0.0982,3.3978 c -0.112404,0 -0.230492,0.013 -0.344202,0.019 -3.69644,0.2773 -6.468296,3.4479 -6.186804,7.0857 0.281849,3.638 3.513156,6.3662 7.209834,6.0888 3.696439,-0.2772 6.458475,-3.4478 6.176867,-7.0858 l -0.0142,-0.1451 c -0.34562,-3.4632 -3.349274,-6.0529 -6.845629,-5.9628 z"
       id="rect4184-7-2-7-2-5-1" />
    <path
       sodipodi:type="arc"
       style="fill:#ffffff;fill-opacity:0.99607843;stroke:none"
       id="path4783-8-1-1-6-1-4"
       sodipodi:cx="1562.9642"
       sodipodi:cy="476.29611"
       sodipodi:rx="32.754883"
       sodipodi:ry="32.754883"
       d="m 1595.6244,473.80739 a 32.754883,32.754883 0 1 1 -0.062,-0.71288"
       transform="matrix(0.32607291,0,0,0.30386706,-484.52519,886.50115)"
       sodipodi:start="6.2071318"
       sodipodi:end="12.46847"
       sodipodi:open="true" />
    <path
       sodipodi:type="arc"
       style="fill:#000000;fill-opacity:1;stroke:none"
       id="path4783-1-0-5-4-7-2-2"
       sodipodi:cx="1562.9642"
       sodipodi:cy="476.29611"
       sodipodi:rx="32.754883"
       sodipodi:ry="32.754883"
       d="m 1595.6244,473.80739 a 32.754883,32.754883 0 1 1 -0.062,-0.71288"
       transform="matrix(0.21571453,0,0,0.20877914,-312.0389,931.79118)"
       sodipodi:start="6.2071318"
       sodipodi:end="12.46847"
       sodipodi:open="true" />
  </g>
</svg>
