<?xml version="1.0" encoding="UTF-8" standalone="no"?>
<!-- Created with Inkscape (http://www.inkscape.org/) -->

<svg
   xmlns:dc="http://purl.org/dc/elements/1.1/"
   xmlns:cc="http://creativecommons.org/ns#"
   xmlns:rdf="http://www.w3.org/1999/02/22-rdf-syntax-ns#"
   xmlns:svg="http://www.w3.org/2000/svg"
   xmlns="http://www.w3.org/2000/svg"
   xmlns:sodipodi="http://sodipodi.sourceforge.net/DTD/sodipodi-0.dtd"
   xmlns:inkscape="http://www.inkscape.org/namespaces/inkscape"
   width="256"
   height="256"
   viewBox="0 0 67.733332 67.733335"
   version="1.1"
   id="svg18205"
   inkscape:version="0.92.1 r15371"
   sodipodi:docname="folder-templates.svg">
  <defs
     id="defs18199" />
  <sodipodi:namedview
     id="base"
     pagecolor="#ffffff"
     bordercolor="#666666"
     borderopacity="1.0"
     inkscape:pageopacity="0.0"
     inkscape:pageshadow="2"
     inkscape:zoom="2.533314"
     inkscape:cx="132.63561"
     inkscape:cy="114.46449"
     inkscape:document-units="mm"
     inkscape:current-layer="layer1"
     showgrid="false"
     units="px"
     inkscape:window-width="1914"
     inkscape:window-height="1008"
     inkscape:window-x="0"
     inkscape:window-y="24"
     inkscape:window-maximized="1"
     inkscape:snap-global="true"
     showguides="true"
     inkscape:guide-bbox="true"
     inkscape:snap-bbox="false">
    <sodipodi:guide
       position="-7.2064694,8.3553269"
       orientation="0,1"
       id="guide4507"
       inkscape:locked="false" />
    <sodipodi:guide
       position="2.2977149,62.873835"
       orientation="1,0"
       id="guide4509"
       inkscape:locked="false" />
  </sodipodi:namedview>
  <metadata
     id="metadata18202">
    <rdf:RDF>
      <cc:Work
         rdf:about="">
        <dc:format>image/svg+xml</dc:format>
        <dc:type
           rdf:resource="http://purl.org/dc/dcmitype/StillImage" />
        <dc:title />
      </cc:Work>
    </rdf:RDF>
  </metadata>
  <g
     inkscape:label="Capa 1"
     inkscape:groupmode="layer"
     id="layer1"
     transform="translate(0,-229.26665)">
    <path
       style="opacity:1;fill:#38b7e9;fill-opacity:1;fill-rule:nonzero;stroke:#ffffff;stroke-width:1.57554173;stroke-linecap:round;stroke-linejoin:miter;stroke-miterlimit:4;stroke-dasharray:none;stroke-dashoffset:0;stroke-opacity:1;paint-order:fill markers stroke"
       d="m 60.27583,240.64653 -12.56867,0.002 c -3.98298,4.8e-4 -4.07898,1.77558 -4.23805,2.41727 l -33.0709,0.11759 c -2.48776,0.009 -3.02622,1.17237 -3.02622,2.93911 v 23.04255 c 0,1.17234 0.9438,2.11615 2.11615,2.11615 h 50.78769 c 1.17236,0 2.11615,-0.94381 2.11615,-2.11615 v -26.40187 c 0,-1.17234 -0.94382,-2.12221 -2.11615,-2.11615 z"
       id="rect4636-6-5-62-1"
       inkscape:connector-curvature="0"
       sodipodi:nodetypes="cscsssssssc"
       inkscape:export-filename="/home/alumno/Escritorio/folders.png"
       inkscape:export-xdpi="90"
       inkscape:export-ydpi="90" />
    <path
       style="fill:#d6e031;fill-opacity:1;fill-rule:evenodd;stroke:#ffffff;stroke-width:0.52518058;stroke-linecap:butt;stroke-linejoin:miter;stroke-miterlimit:4;stroke-dasharray:none;stroke-opacity:1"
       d="m 20.74935,249.7188 33.82333,-6.58184 v 21.93946 l -31.99504,-0.36569 z"
       id="path4708-3-9-0"
       inkscape:connector-curvature="0"
       inkscape:export-filename="/home/alumno/Escritorio/folders.png"
       inkscape:export-xdpi="90"
       inkscape:export-ydpi="90" />
    <path
       style="fill:#d6e031;fill-opacity:1;fill-rule:evenodd;stroke:#ffffff;stroke-width:0.52518058;stroke-linecap:butt;stroke-linejoin:miter;stroke-miterlimit:4;stroke-dasharray:none;stroke-opacity:1"
       d="m 26.68247,255.36961 33.82333,-6.58184 v 21.93945 l -31.99504,-0.36568 z"
       id="path4708-1-6"
       inkscape:connector-curvature="0"
       inkscape:export-filename="/home/alumno/Escritorio/folders.png"
       inkscape:export-xdpi="90"
       inkscape:export-ydpi="90" />
    <path
       style="opacity:1;fill:#38b7e9;fill-opacity:1;fill-rule:nonzero;stroke:#ffffff;stroke-width:1.57554173;stroke-linecap:round;stroke-linejoin:miter;stroke-miterlimit:4;stroke-dasharray:none;stroke-dashoffset:0;stroke-opacity:1;paint-order:fill markers stroke"
       d="m 5.62057,248.98688 h 32.20024 c 6.96117,0.0952 6.10131,3.52399 6.27921,7.05212 l 17.97196,0.13308 c 2.81558,0.021 3.42507,1.32689 3.42507,3.32647 v 26.07953 c 0,1.32686 -1.0682,2.39506 -2.39506,2.39506 H 5.62057 c -1.32686,0 -2.39505,-1.0682 -2.39505,-2.39506 v -34.19612 c 0,-1.32686 1.06819,-2.39506 2.39505,-2.39506 z"
       id="rect4636-7-2-3"
       inkscape:connector-curvature="0"
       sodipodi:nodetypes="sccssssssss"
       inkscape:export-filename="/home/alumno/Escritorio/folders.png"
       inkscape:export-xdpi="90"
       inkscape:export-ydpi="90" />
    <g
       id="g298-1-2-1-3-3-0"
       transform="matrix(0.53627619,0,0,-0.64176267,32.27197,278.47745)"
       style="fill:#9283be;fill-opacity:1;stroke:#ffffff"
       inkscape:export-filename="/home/alumno/Escritorio/folders.png"
       inkscape:export-xdpi="90"
       inkscape:export-ydpi="90">
      <path
         d="m 0,0 c 0,-2.737 -2.219,-4.957 -4.957,-4.957 h -33.458 c -2.738,0 -4.957,2.22 -4.957,4.957 v 27.263 c 0,2.737 2.219,4.957 4.957,4.957 H -4.957 C -2.219,32.22 0,30 0,27.263 Z"
         style="fill:#9283be;fill-opacity:1;stroke:#ffffff;stroke-width:2.47799993;stroke-linecap:round;stroke-linejoin:miter;stroke-miterlimit:10;stroke-dasharray:none;stroke-opacity:1"
         id="path300-5-8-1-6-6-6"
         inkscape:connector-curvature="0" />
    </g>
    <path
       sodipodi:type="star"
       style="opacity:1;fill:#38b7e9;fill-opacity:1;fill-rule:nonzero;stroke:#ffffff;stroke-width:0.06326085;stroke-linecap:round;stroke-linejoin:miter;stroke-miterlimit:4;stroke-dasharray:none;stroke-dashoffset:0;stroke-opacity:1;paint-order:fill markers stroke"
       id="path4984"
       sodipodi:sides="5"
       sodipodi:cx="168.17374"
       sodipodi:cy="133.58583"
       sodipodi:r1="8.1830578"
       sodipodi:r2="2.7032366"
       sodipodi:arg1="0.91971961"
       sodipodi:arg2="1.2763966"
       inkscape:flatsided="false"
       inkscape:rounded="0.20804439"
       inkscape:randomized="0"
       d="m 173.13302,140.09489 c -0.71937,0.95012 -2.98347,-3.94924 -4.1749,-3.92213 -1.42238,0.0324 -4.09819,4.60732 -5.44237,4.14104 -1.12591,-0.39056 2.83401,-4.05783 2.44005,-5.18257 -0.47032,-1.34276 -5.64822,-2.47387 -5.62014,-3.89635 0.0235,-1.1915 4.73499,1.44136 5.68293,0.71913 1.13171,-0.86224 0.6074,-6.13626 1.96893,-6.54912 1.14045,-0.34582 0.0924,4.94865 1.0722,5.62702 1.16975,0.80987 6.02362,-1.31854 6.83701,-0.15123 0.68132,0.97777 -4.6779,1.61707 -5.02028,2.75856 -0.40876,1.36277 3.1154,5.32135 2.25657,6.45565 z"
       inkscape:transform-center-x="0.057669227"
       inkscape:transform-center-y="-0.67812842"
       transform="matrix(1.0021414,0,0,0.93344848,-148.02078,144.97261)"
       inkscape:export-filename="/home/alumno/Escritorio/folders.png"
       inkscape:export-xdpi="90"
       inkscape:export-ydpi="90" />
  </g>
</svg>
