<?xml version="1.0" encoding="UTF-8" standalone="no"?>
<!-- Created with Inkscape (http://www.inkscape.org/) -->

<svg
   xmlns:dc="http://purl.org/dc/elements/1.1/"
   xmlns:cc="http://creativecommons.org/ns#"
   xmlns:rdf="http://www.w3.org/1999/02/22-rdf-syntax-ns#"
   xmlns:svg="http://www.w3.org/2000/svg"
   xmlns="http://www.w3.org/2000/svg"
   xmlns:sodipodi="http://sodipodi.sourceforge.net/DTD/sodipodi-0.dtd"
   xmlns:inkscape="http://www.inkscape.org/namespaces/inkscape"
   width="256"
   height="256"
   viewBox="0 0 67.733332 67.733335"
   version="1.1"
   id="svg18205"
   inkscape:version="0.92.1 r15371"
   sodipodi:docname="folder.svg">
  <defs
     id="defs18199" />
  <sodipodi:namedview
     id="base"
     pagecolor="#ffffff"
     bordercolor="#666666"
     borderopacity="1.0"
     inkscape:pageopacity="0.0"
     inkscape:pageshadow="2"
     inkscape:zoom="2.0502738"
     inkscape:cx="180.59952"
     inkscape:cy="86.484279"
     inkscape:document-units="mm"
     inkscape:current-layer="layer1"
     showgrid="false"
     units="px"
     inkscape:window-width="1914"
     inkscape:window-height="1008"
     inkscape:window-x="0"
     inkscape:window-y="24"
     inkscape:window-maximized="1"
     inkscape:snap-global="false" />
  <metadata
     id="metadata18202">
    <rdf:RDF>
      <cc:Work
         rdf:about="">
        <dc:format>image/svg+xml</dc:format>
        <dc:type
           rdf:resource="http://purl.org/dc/dcmitype/StillImage" />
        <dc:title></dc:title>
      </cc:Work>
    </rdf:RDF>
  </metadata>
  <g
     inkscape:label="Capa 1"
     inkscape:groupmode="layer"
     id="layer1"
     transform="translate(0,-229.26665)">
    <path
       style="opacity:1;fill:#50b8b1;fill-opacity:1;fill-rule:nonzero;stroke:#ffffff;stroke-width:1.57554173;stroke-linecap:round;stroke-linejoin:miter;stroke-miterlimit:4;stroke-dasharray:none;stroke-dashoffset:0;stroke-opacity:1;paint-order:fill markers stroke"
       d="m 60.233389,240.52357 -12.568669,0.002 c -3.982979,4.8e-4 -4.078982,1.77558 -4.238044,2.41727 l -33.070903,0.11759 c -2.4877588,0.009 -3.0262212,1.17237 -3.0262212,2.93911 v 23.04255 c 0,1.17234 0.943802,2.11615 2.116152,2.11615 H 60.233389 c 1.17236,0 2.116152,-0.94381 2.116152,-2.11615 v -26.40187 c 0,-1.17234 -0.943823,-2.12221 -2.116152,-2.11615 z"
       id="rect4636-6-5"
       inkscape:connector-curvature="0"
       sodipodi:nodetypes="cscsssssssc" />
    <path
       style="fill:#d6e031;fill-opacity:1;fill-rule:evenodd;stroke:#ffffff;stroke-width:0.52518058;stroke-linecap:butt;stroke-linejoin:miter;stroke-miterlimit:4;stroke-dasharray:none;stroke-opacity:1"
       d="m 20.706914,249.59584 33.823329,-6.58184 -5e-6,21.93946 -31.995034,-0.36569 z"
       id="path4708-3"
       inkscape:connector-curvature="0" />
    <path
       style="fill:#d6e031;fill-opacity:1;fill-rule:evenodd;stroke:#ffffff;stroke-width:0.52518058;stroke-linecap:butt;stroke-linejoin:miter;stroke-miterlimit:4;stroke-dasharray:none;stroke-opacity:1"
       d="m 26.640036,255.24665 33.823324,-6.58184 v 21.93945 l -31.995039,-0.36568 z"
       id="path4708"
       inkscape:connector-curvature="0" />
    <path
       style="opacity:1;fill:#50b8b1;fill-opacity:1;fill-rule:nonzero;stroke:#ffffff;stroke-width:1.57554173;stroke-linecap:round;stroke-linejoin:miter;stroke-miterlimit:4;stroke-dasharray:none;stroke-dashoffset:0;stroke-opacity:1;paint-order:fill markers stroke"
       d="M 5.5781324,248.86392 H 37.778375 c 6.961163,0.0952 6.101311,3.52399 6.279201,7.05212 l 17.971962,0.13308 c 2.815582,0.021 3.425075,1.32689 3.425075,3.32647 v 26.07953 c 0,1.32686 -1.068196,2.39506 -2.39506,2.39506 H 5.5781324 c -1.3268634,0 -2.3950544,-1.0682 -2.3950544,-2.39506 V 251.259 c 0,-1.32686 1.068191,-2.39506 2.3950544,-2.39506 z"
       id="rect4636-7"
       inkscape:connector-curvature="0"
       sodipodi:nodetypes="sccssssssss" />
  </g>
</svg>
