<?xml version="1.0" encoding="UTF-8" standalone="no"?>
<!-- Created with Inkscape (http://www.inkscape.org/) -->

<svg
   xmlns:dc="http://purl.org/dc/elements/1.1/"
   xmlns:cc="http://creativecommons.org/ns#"
   xmlns:rdf="http://www.w3.org/1999/02/22-rdf-syntax-ns#"
   xmlns:svg="http://www.w3.org/2000/svg"
   xmlns="http://www.w3.org/2000/svg"
   xmlns:xlink="http://www.w3.org/1999/xlink"
   xmlns:sodipodi="http://sodipodi.sourceforge.net/DTD/sodipodi-0.dtd"
   xmlns:inkscape="http://www.inkscape.org/namespaces/inkscape"
   width="256"
   height="256"
   id="svg2"
   version="1.1"
   inkscape:version="0.48.3.1 r9886"
   sodipodi:docname="font.svg">
  <defs
     id="defs4">
    <linearGradient
       id="linearGradient3864">
      <stop
         style="stop-color:#ffffff;stop-opacity:1;"
         offset="0"
         id="stop3866" />
      <stop
         style="stop-color:#d5d5d5;stop-opacity:0;"
         offset="1"
         id="stop3868" />
    </linearGradient>
    <linearGradient
       id="linearGradient3815">
      <stop
         style="stop-color:#ffffff;stop-opacity:1;"
         offset="0"
         id="stop3817" />
      <stop
         style="stop-color:#a5a5a5;stop-opacity:1;"
         offset="1"
         id="stop3819" />
    </linearGradient>
    <linearGradient
       id="linearGradient3805">
      <stop
         style="stop-color:#989898;stop-opacity:1;"
         offset="0"
         id="stop3807" />
      <stop
         style="stop-color:#2a2a2a;stop-opacity:0.94968551;"
         offset="1"
         id="stop3809" />
    </linearGradient>
    <linearGradient
       id="linearGradient3927">
      <stop
         id="stop3929"
         offset="0"
         style="stop-color:#9d9d9d;stop-opacity:1;" />
      <stop
         id="stop3931"
         offset="1"
         style="stop-color:#ffffff;stop-opacity:1;" />
    </linearGradient>
    <linearGradient
       id="linearGradient3909">
      <stop
         style="stop-color:#909090;stop-opacity:1;"
         offset="0"
         id="stop3911" />
      <stop
         style="stop-color:#cfcfcf;stop-opacity:1;"
         offset="1"
         id="stop3913" />
    </linearGradient>
    <linearGradient
       id="linearGradient3815-1">
      <stop
         style="stop-color:#e0f2fe;stop-opacity:1;"
         offset="0"
         id="stop3817-9" />
      <stop
         style="stop-color:#01131f;stop-opacity:1;"
         offset="1"
         id="stop3819-2" />
    </linearGradient>
    <filter
       inkscape:collect="always"
       id="filter3862"
       x="-0.20169965"
       width="1.4033993"
       y="-0.18064831"
       height="1.3612966">
      <feGaussianBlur
         inkscape:collect="always"
         stdDeviation="3.884344"
         id="feGaussianBlur3864" />
    </filter>
    <filter
       inkscape:collect="always"
       id="filter3880"
       x="-0.84898819"
       width="2.6979764"
       y="-0.63366594"
       height="2.2673319">
      <feGaussianBlur
         inkscape:collect="always"
         stdDeviation="20.637391"
         id="feGaussianBlur3882" />
    </filter>
    <linearGradient
       inkscape:collect="always"
       xlink:href="#linearGradient3927"
       id="linearGradient3997"
       gradientUnits="userSpaceOnUse"
       x1="419.11514"
       y1="-27.717825"
       x2="404.26071"
       y2="81.883369" />
    <linearGradient
       inkscape:collect="always"
       xlink:href="#linearGradient3815"
       id="linearGradient3042"
       gradientUnits="userSpaceOnUse"
       gradientTransform="matrix(1.2064957,0,0,1.2064957,-326.94029,775.45566)"
       x1="401.29074"
       y1="22.914968"
       x2="335.61041"
       y2="452.23996" />
    <linearGradient
       inkscape:collect="always"
       xlink:href="#linearGradient4975"
       id="linearGradient5289"
       x1="34.375187"
       y1="50.968788"
       x2="42.396248"
       y2="50.968788"
       gradientUnits="userSpaceOnUse"
       gradientTransform="matrix(1.2636709,0,0,1.2636709,-30.105232,-14.844882)" />
    <linearGradient
       id="linearGradient4975">
      <stop
         style="stop-color:#73c5d9;stop-opacity:1;"
         offset="0"
         id="stop4977" />
      <stop
         style="stop-color:#236e80;stop-opacity:1;"
         offset="1"
         id="stop4979" />
    </linearGradient>
    <linearGradient
       inkscape:collect="always"
       xlink:href="#linearGradient4975"
       id="linearGradient5273"
       x1="49.176533"
       y1="58.161556"
       x2="42.248756"
       y2="53.55426"
       gradientUnits="userSpaceOnUse"
       gradientTransform="matrix(1.2321225,0,0,1.2321225,-29.773943,-11.000299)" />
    <linearGradient
       id="linearGradient3221">
      <stop
         style="stop-color:#73c5d9;stop-opacity:1;"
         offset="0"
         id="stop3223" />
      <stop
         style="stop-color:#236e80;stop-opacity:1;"
         offset="1"
         id="stop3225" />
    </linearGradient>
    <linearGradient
       inkscape:collect="always"
       xlink:href="#linearGradient4975"
       id="linearGradient5265"
       x1="53.646587"
       y1="47.038986"
       x2="44.327694"
       y2="40.473587"
       gradientUnits="userSpaceOnUse"
       gradientTransform="matrix(1.215211,0.20344032,-0.20344032,1.215211,-18.292077,-21.197487)" />
    <linearGradient
       id="linearGradient3228">
      <stop
         style="stop-color:#73c5d9;stop-opacity:1;"
         offset="0"
         id="stop3230" />
      <stop
         style="stop-color:#236e80;stop-opacity:1;"
         offset="1"
         id="stop3232" />
    </linearGradient>
    <linearGradient
       inkscape:collect="always"
       xlink:href="#linearGradient4975"
       id="linearGradient5257"
       x1="59.446133"
       y1="38.337811"
       x2="49.868595"
       y2="31.196501"
       gradientUnits="userSpaceOnUse"
       gradientTransform="matrix(1.215279,0.20303425,-0.20303425,1.215279,-16.316172,-22.675501)" />
    <linearGradient
       id="linearGradient3235">
      <stop
         style="stop-color:#73c5d9;stop-opacity:1;"
         offset="0"
         id="stop3237" />
      <stop
         style="stop-color:#236e80;stop-opacity:1;"
         offset="1"
         id="stop3239" />
    </linearGradient>
    <linearGradient
       inkscape:collect="always"
       xlink:href="#linearGradient4975"
       id="linearGradient5305"
       x1="39.856121"
       y1="34.569763"
       x2="41.74371"
       y2="34.569763"
       gradientUnits="userSpaceOnUse" />
    <linearGradient
       id="linearGradient3242">
      <stop
         style="stop-color:#73c5d9;stop-opacity:1;"
         offset="0"
         id="stop3244" />
      <stop
         style="stop-color:#236e80;stop-opacity:1;"
         offset="1"
         id="stop3246" />
    </linearGradient>
    <linearGradient
       inkscape:collect="always"
       xlink:href="#linearGradient4975"
       id="linearGradient5297"
       x1="39.856121"
       y1="34.569763"
       x2="41.74371"
       y2="34.569763"
       gradientUnits="userSpaceOnUse" />
    <linearGradient
       id="linearGradient3249">
      <stop
         style="stop-color:#73c5d9;stop-opacity:1;"
         offset="0"
         id="stop3251" />
      <stop
         style="stop-color:#236e80;stop-opacity:1;"
         offset="1"
         id="stop3253" />
    </linearGradient>
    <linearGradient
       inkscape:collect="always"
       xlink:href="#linearGradient4975"
       id="linearGradient4981"
       x1="150.12842"
       y1="343.41885"
       x2="141.27963"
       y2="313.30615"
       gradientUnits="userSpaceOnUse" />
    <linearGradient
       id="linearGradient3256">
      <stop
         style="stop-color:#73c5d9;stop-opacity:1;"
         offset="0"
         id="stop3258" />
      <stop
         style="stop-color:#236e80;stop-opacity:1;"
         offset="1"
         id="stop3260" />
    </linearGradient>
    <linearGradient
       inkscape:collect="always"
       xlink:href="#linearGradient4985"
       id="linearGradient4991"
       x1="209.90964"
       y1="125.00735"
       x2="228.37466"
       y2="159.5919"
       gradientUnits="userSpaceOnUse" />
    <linearGradient
       id="linearGradient4985">
      <stop
         style="stop-color:#e9f6f9;stop-opacity:1;"
         offset="0"
         id="stop4987" />
      <stop
         style="stop-color:#6ac2d6;stop-opacity:0;"
         offset="1"
         id="stop4989" />
    </linearGradient>
    <linearGradient
       inkscape:collect="always"
       xlink:href="#linearGradient4975"
       id="linearGradient5281"
       x1="47.042896"
       y1="66.222923"
       x2="35.628872"
       y2="57.929787"
       gradientUnits="userSpaceOnUse"
       gradientTransform="matrix(1.2321225,0,0,1.2321225,-29.722482,-12.801421)" />
    <linearGradient
       id="linearGradient3267">
      <stop
         style="stop-color:#73c5d9;stop-opacity:1;"
         offset="0"
         id="stop3269" />
      <stop
         style="stop-color:#236e80;stop-opacity:1;"
         offset="1"
         id="stop3271" />
    </linearGradient>
    <linearGradient
       inkscape:collect="always"
       xlink:href="#linearGradient5154"
       id="linearGradient5160"
       x1="40.254642"
       y1="37.115364"
       x2="61.34063"
       y2="66.417572"
       gradientUnits="userSpaceOnUse"
       gradientTransform="matrix(1.2321225,0,0,1.2321225,-30.173165,-13.039225)" />
    <linearGradient
       id="linearGradient5154">
      <stop
         style="stop-color:#f0f8fb;stop-opacity:1;"
         offset="0"
         id="stop5156" />
      <stop
         style="stop-color:#c4e5ef;stop-opacity:0;"
         offset="1"
         id="stop5158" />
    </linearGradient>
    <linearGradient
       inkscape:collect="always"
       xlink:href="#linearGradient5154"
       id="linearGradient3404"
       gradientUnits="userSpaceOnUse"
       gradientTransform="matrix(3.2626675,0,0,3.2626675,-427.19473,695.78254)"
       x1="40.254642"
       y1="37.115364"
       x2="61.34063"
       y2="66.417572" />
    <linearGradient
       inkscape:collect="always"
       xlink:href="#linearGradient4975"
       id="linearGradient3407"
       gradientUnits="userSpaceOnUse"
       gradientTransform="matrix(3.2626675,0,0,3.2626675,-410.14273,798.36029)"
       x1="47.042896"
       y1="66.222923"
       x2="35.628872"
       y2="57.929787" />
    <linearGradient
       inkscape:collect="always"
       xlink:href="#linearGradient4975"
       id="linearGradient3414"
       gradientUnits="userSpaceOnUse"
       gradientTransform="matrix(3.2180658,0.53763587,-0.53763587,3.2180658,-374.64275,772.21367)"
       x1="59.446133"
       y1="38.337811"
       x2="49.868595"
       y2="31.196501" />
    <linearGradient
       inkscape:collect="always"
       xlink:href="#linearGradient4975"
       id="linearGradient3417"
       gradientUnits="userSpaceOnUse"
       gradientTransform="matrix(3.2178858,0.53871115,-0.53871115,3.2178858,-379.87496,776.12746)"
       x1="53.646587"
       y1="47.038986"
       x2="44.327694"
       y2="40.473587" />
    <linearGradient
       inkscape:collect="always"
       xlink:href="#linearGradient4975"
       id="linearGradient3420"
       gradientUnits="userSpaceOnUse"
       gradientTransform="matrix(3.2626675,0,0,3.2626675,-410.279,803.12967)"
       x1="49.176533"
       y1="58.161556"
       x2="42.248756"
       y2="53.55426" />
    <linearGradient
       inkscape:collect="always"
       xlink:href="#linearGradient4975"
       id="linearGradient3423"
       gradientUnits="userSpaceOnUse"
       gradientTransform="matrix(3.3462079,0,0,3.3462079,-411.15626,792.9492)"
       x1="34.375187"
       y1="50.968788"
       x2="42.396248"
       y2="50.968788" />
  </defs>
  <sodipodi:namedview
     id="base"
     pagecolor="#ffffff"
     bordercolor="#666666"
     borderopacity="1.0"
     inkscape:pageopacity="0.0"
     inkscape:pageshadow="2"
     inkscape:zoom="1.7656052"
     inkscape:cx="81.166561"
     inkscape:cy="77.418794"
     inkscape:document-units="px"
     inkscape:current-layer="layer1"
     showgrid="false"
     showguides="true"
     inkscape:guide-bbox="true"
     inkscape:window-width="1913"
     inkscape:window-height="1026"
     inkscape:window-x="0"
     inkscape:window-y="26"
     inkscape:window-maximized="1" />
  <metadata
     id="metadata7">
    <rdf:RDF>
      <cc:Work
         rdf:about="">
        <dc:format>image/svg+xml</dc:format>
        <dc:type
           rdf:resource="http://purl.org/dc/dcmitype/StillImage" />
        <dc:title></dc:title>
      </cc:Work>
    </rdf:RDF>
  </metadata>
  <g
     inkscape:label="Layer 1"
     inkscape:groupmode="layer"
     id="layer1"
     transform="translate(0,-796.3622)">
    <path
       inkscape:connector-curvature="0"
       style="fill:url(#linearGradient3042);fill-opacity:1;stroke:none"
       d="m 50.27813,817.11747 0,219.35603 166.72262,0 0,-187.57241 c -10.93332,-9.25258 -26.94202,-17.13462 -45.80913,-31.78362 z"
       id="rect3051"
       sodipodi:nodetypes="cccccc" />
    <g
       id="g3425"
       transform="matrix(0.72863494,0,0,0.72863494,295.68731,271.50356)"
       style="stroke:none">
      <path
         transform="matrix(1.4975805,0,0,1.4975805,-407.07914,385.80753)"
         d="m 168.96444,326.60593 c 0,11.0447 -8.9535,19.9982 -19.99821,19.9982 -11.0447,0 -19.9982,-8.9535 -19.9982,-19.9982 0,-11.04471 8.9535,-19.99821 19.9982,-19.99821 11.04471,0 19.99821,8.9535 19.99821,19.99821 z"
         sodipodi:ry="19.998207"
         sodipodi:rx="19.998207"
         sodipodi:cy="326.60593"
         sodipodi:cx="148.96623"
         id="path4457"
         style="fill:#999999;fill-opacity:1;fill-rule:evenodd;stroke:none"
         sodipodi:type="arc" />
      <path
         sodipodi:nodetypes="cssscscssssssssssccccccccssccsccccccccccsc"
         inkscape:connector-curvature="0"
         id="path5408-0-1-9"
         d="m -221.07094,890.11127 c -3.27947,0.95164 -6.23022,2.27673 -8.74831,4.93466 -7.55362,7.97309 -7.22047,20.65255 0.75263,28.20617 7.97316,7.55368 20.68091,7.22528 28.23453,-0.74782 3.3893,-3.57752 4.63592,-8.12212 4.87015,-12.6862 -5.89641,0.38159 -12.56381,-1.73819 -17.95454,-6.84531 -3.95771,-3.74949 -6.08921,-8.3755 -7.15446,-12.8615 z m -91.59462,23.83762 c -3.05417,0 -5.52478,2.47061 -5.52478,5.52478 0,3.05418 2.47061,5.52479 5.52478,5.52479 3.05418,0 5.52479,-2.47061 5.52479,-5.52479 0,-3.05417 -2.47061,-5.52478 -5.52479,-5.52478 z m 16.83333,10.24387 c -5.75339,0 -10.41652,4.66313 -10.41652,10.41652 0,5.75339 4.66313,10.44529 10.41652,10.44529 5.75339,0 10.41652,-4.6919 10.41652,-10.44529 0,-5.75339 -4.66313,-10.41652 -10.41652,-10.41652 z m 54.73199,1.22938 c -1.52998,0.12358 -4.61367,0.85415 -6.14779,1.39126 -2.30231,0.80228 -4.30781,2.03213 -6.39979,3.77154 -8.36591,6.96246 -10.83117,19.27428 -5.49818,26.93822 5.33341,7.66364 16.41374,7.75195 24.77965,0.7895 7.1925,-5.98639 9.40331,-15.16128 6.66531,-22.60783 -5.86284,-0.1794 -10.06406,-4.76866 -13.3992,-10.28269 z m -39.53253,22.43195 c -8.36541,0 -15.50968,7.17228 -15.50968,15.53845 0,8.36542 7.14435,14.76153 15.50968,14.76153 0.49435,0 1.01865,0.043 1.4963,0 0.0596,-0.005 -0.0596,-0.71102 0,-0.71937 0.44409,-2.21139 -0.23975,-6.71291 1.95669,-10.96324 2.1965,-4.25033 4.30513,-7.81318 7.88433,-9.20797 -1.3424,-6.97355 -4.01693,-9.38063 -11.33732,-9.38063 z m 0.38084,53.50911 c -0.30662,-7e-4 -0.58609,-7e-4 -0.86325,0.029 -10.02108,1.0785 -16.87912,3.4845 -17.00598,6.647 -0.16767,4.2167 11.96026,8.0587 27.33617,8.1433 23.87944,0.3493 39.33885,-3.4671 39.50797,-7.6829 0.0999,-2.5893 -8.71418,-6.1746 -20.57407,-6.1003 -4.54597,5.7991 -12.73539,7.9676 -17.40883,6.9636 -4.67343,-1.0041 -6.98717,-5.2171 -8.17208,-7.9707 -0.88116,0.06 -1.90006,-0.027 -2.81993,-0.029 z"
         style="fill:#999999;stroke:none" />
      <path
         sodipodi:nodetypes="cccccccc"
         inkscape:connector-curvature="0"
         id="path5408-0-1-9-5"
         d="m -264.32302,966.34527 c -0.2138,0.12957 -0.42504,0.11522 -0.63305,0.25895 -2.9408,2.02916 -5.80545,5.54031 -7.53902,10.38775 -3.46574,9.69595 -1.59472,20.60996 3.91338,24.11333 5.50794,3.5031 12.64801,-1.23837 16.11396,-10.93443 2.40884,-6.73986 2.40162,-14.26594 0.28774,-19.22164 -4.36717,0.4491 -8.74938,-1.62183 -12.14301,-4.60398 z"
         style="fill:#999999;stroke:none" />
    </g>
    <path
       sodipodi:type="arc"
       style="opacity:0.46586346;fill:#fcfce3;fill-opacity:1;stroke:none;filter:url(#filter3880)"
       id="path3866"
       sodipodi:cx="375.22543"
       sodipodi:cy="108.17533"
       sodipodi:rx="29.168468"
       sodipodi:ry="39.080086"
       d="m 404.30959,105.20602 c 1.22398,21.52094 -10.8052,40.29652 -26.86793,41.93643 -16.06273,1.63991 -30.07639,-14.47686 -31.30038,-35.99781 -1.22399,-21.520941 10.80519,-40.29652 26.86793,-41.936427 15.81515,-1.614629 29.6947,13.99836 31.24502,35.147267"
       transform="matrix(1.2064957,0,0,1.2064957,-323.52363,757.00568)"
       sodipodi:start="6.2071318"
       sodipodi:end="12.46847"
       sodipodi:open="true" />
    <path
       transform="matrix(0.97766688,0,0,1.092318,-209.51979,798.57424)"
       style="opacity:0.56626503;fill:#626262;fill-opacity:1;stroke:none;filter:url(#filter3862)"
       inkscape:transform-center-x="-5.4168637"
       inkscape:transform-center-y="-0.79858784"
       d="M 407.69217,61.026367 392.4689,18.875528 436.5518,46.747407 z"
       id="path3054-5"
       inkscape:connector-curvature="0"
       sodipodi:nodetypes="cccc" />
    <path
       transform="matrix(1.0810446,0,0,1.1409536,-252.48963,789.3103)"
       style="fill:url(#linearGradient3997);fill-opacity:1;stroke:none"
       inkscape:transform-center-x="-5.9896366"
       inkscape:transform-center-y="-0.83414663"
       d="m 400.04112,59.178801 -7.31749,-35.458778 43.1638,28.448868 z"
       id="path3054"
       inkscape:connector-curvature="0"
       sodipodi:nodetypes="cccc" />
    <path
       inkscape:connector-curvature="0"
       style="opacity:0.83999999;fill:none;stroke:#000000;stroke-width:3.61948705;stroke-miterlimit:4;stroke-opacity:1;stroke-dasharray:none"
       d="m 50.666646,816.20651 0,219.98729 167.202334,0 0,-188.11221 c -10.96477,-9.27921 -27.01954,-17.18392 -45.94094,-31.87508 z"
       id="rect3051-1"
       sodipodi:nodetypes="cccccc" />
  </g>
</svg>
