<?xml version="1.0" encoding="UTF-8" standalone="no"?>
<!-- Created with Inkscape (http://www.inkscape.org/) -->

<svg
   xmlns:dc="http://purl.org/dc/elements/1.1/"
   xmlns:cc="http://creativecommons.org/ns#"
   xmlns:rdf="http://www.w3.org/1999/02/22-rdf-syntax-ns#"
   xmlns:svg="http://www.w3.org/2000/svg"
   xmlns="http://www.w3.org/2000/svg"
   xmlns:sodipodi="http://sodipodi.sourceforge.net/DTD/sodipodi-0.dtd"
   xmlns:inkscape="http://www.inkscape.org/namespaces/inkscape"
   width="256"
   height="256"
   id="svg2"
   version="1.1"
   inkscape:version="0.48.3.1 r9886"
   sodipodi:docname="desktop-symbolic.svg">
  <defs
     id="defs4" />
  <sodipodi:namedview
     id="base"
     pagecolor="#ffffff"
     bordercolor="#666666"
     borderopacity="1.0"
     inkscape:pageopacity="0.0"
     inkscape:pageshadow="2"
     inkscape:zoom="0.98994949"
     inkscape:cx="220.06208"
     inkscape:cy="66.92551"
     inkscape:document-units="px"
     inkscape:current-layer="layer1"
     showgrid="false"
     showguides="true"
     inkscape:guide-bbox="true"
     inkscape:window-width="1914"
     inkscape:window-height="1031"
     inkscape:window-x="0"
     inkscape:window-y="25"
     inkscape:window-maximized="1" />
  <metadata
     id="metadata7">
    <rdf:RDF>
      <cc:Work
         rdf:about="">
        <dc:format>image/svg+xml</dc:format>
        <dc:type
           rdf:resource="http://purl.org/dc/dcmitype/StillImage" />
        <dc:title />
      </cc:Work>
    </rdf:RDF>
  </metadata>
  <g
     inkscape:label="Layer 1"
     inkscape:groupmode="layer"
     id="layer1"
     transform="translate(0,-796.3622)">
    <path
       inkscape:connector-curvature="0"
       style="fill:#808080;fill-opacity:1;stroke:none"
       d="m 8.3846369,816.60625 c -3.11267,0 -5.74324,2.6306 -5.74324,5.7433 l 0,50.1228 55.8660601,-55.8661 -50.1228201,0 z"
       id="path3048" />
    <path
       style="fill:#808080;fill-opacity:1;stroke:none"
       d="m 199.1155,816.60625 54.82185,54.8219 0,-49.0786 c 0,-3.1127 -2.63058,-5.7433 -5.74325,-5.7433 l -49.0786,0 z"
       id="path3046"
       inkscape:connector-curvature="0" />
    <path
       style="fill:#808080;fill-opacity:1;stroke:none"
       d="m 2.6413969,973.48815 0,53.25575 c 0,3.1127 2.63057,5.7432 5.74324,5.7432 l 53.2555001,0 -58.9987401,-58.99895 z"
       id="path3044"
       inkscape:connector-curvature="0" />
    <path
       style="fill:#808080;fill-opacity:1;stroke:none"
       d="m 253.93735,974.53255 -57.95453,57.95455 52.21128,0 c 3.11267,0 5.74325,-2.6305 5.74325,-5.7432 l 0,-52.21135 z"
       id="rect4430-7"
       inkscape:connector-curvature="0" />
    <path
       style="fill:#808080;fill-opacity:1;stroke:none"
       d="m 168.12576,815.86352 c -1.15978,4.63917 -41.72989,77.0157 -41.72989,77.0157 l 19.71646,-0.0828 35.93094,-71.13396 c -2.0616,-4.66805 -9.29442,-7.28645 -13.91751,-5.7989 z"
       id="path2988-7-3"
       inkscape:connector-curvature="0"
       sodipodi:nodetypes="ccccc" />
    <rect
       style="fill:#808080;fill-opacity:1;stroke:none"
       id="rect3200"
       width="131.04694"
       height="16.263742"
       x="62.271233"
       y="893.6377"
       ry="8.1318712"
       rx="6.6381645" />
    <path
       style="fill:#808080;fill-opacity:1;stroke:none"
       d="m 66.299477,910.97942 c -28.37451,56.29672 -1.26078,98.54928 24.52065,113.63088 l 71.693483,-0.2132 c 27.17923,-15.9932 50.79842,-58.34773 25.24815,-113.39481 z"
       id="path2984-5-8"
       inkscape:connector-curvature="0"
       sodipodi:nodetypes="ccccc" />
    <path
       style="fill:#808080;fill-opacity:1;stroke:none"
       d="m 91.681267,1025.0023 69.892263,0 c 4.32053,0.5703 5.85612,7.6688 4.75059,7.6972 l -78.879873,-0.3569 c -1.99709,-1.6629 1.25076,-7.2567 4.23702,-7.3403 z"
       id="rect3200-1"
       inkscape:connector-curvature="0"
       sodipodi:nodetypes="ccccc" />
  </g>
</svg>
