<?xml version="1.0" encoding="UTF-8" standalone="no"?>
<!-- Created with Inkscape (http://www.inkscape.org/) -->

<svg
   xmlns:dc="http://purl.org/dc/elements/1.1/"
   xmlns:cc="http://creativecommons.org/ns#"
   xmlns:rdf="http://www.w3.org/1999/02/22-rdf-syntax-ns#"
   xmlns:svg="http://www.w3.org/2000/svg"
   xmlns="http://www.w3.org/2000/svg"
   xmlns:sodipodi="http://sodipodi.sourceforge.net/DTD/sodipodi-0.dtd"
   xmlns:inkscape="http://www.inkscape.org/namespaces/inkscape"
   width="256"
   height="256"
   id="svg4374"
   version="1.1"
   inkscape:version="0.48.3.1 r9886"
   sodipodi:docname="gtk-about.svg">
  <defs
     id="defs4376" />
  <sodipodi:namedview
     id="base"
     pagecolor="#ffffff"
     bordercolor="#666666"
     borderopacity="1.0"
     inkscape:pageopacity="0.0"
     inkscape:pageshadow="2"
     inkscape:zoom="1.2108704"
     inkscape:cx="479.69796"
     inkscape:cy="26.723017"
     inkscape:document-units="px"
     inkscape:current-layer="layer1"
     showgrid="false"
     inkscape:window-width="1914"
     inkscape:window-height="1031"
     inkscape:window-x="0"
     inkscape:window-y="25"
     inkscape:window-maximized="1" />
  <metadata
     id="metadata4379">
    <rdf:RDF>
      <cc:Work
         rdf:about="">
        <dc:format>image/svg+xml</dc:format>
        <dc:type
           rdf:resource="http://purl.org/dc/dcmitype/StillImage" />
        <dc:title />
      </cc:Work>
    </rdf:RDF>
  </metadata>
  <g
     inkscape:label="Capa 1"
     inkscape:groupmode="layer"
     id="layer1"
     transform="translate(0,-796.36218)">
    <g
       id="g3021"
       transform="matrix(0.96995295,0,0,1.1698877,-333.64878,-191.69127)"
       style="fill:#4ecae9;fill-opacity:1">
      <path
         sodipodi:nodetypes="zssscccz"
         inkscape:connector-curvature="0"
         id="path2993"
         d="m 452.42917,903.85709 c -24.79182,2.85764 -30.36285,16.51677 -38.16894,33.0559 -10.53796,22.32729 -25.98435,43.56347 -21.92061,51.41068 4.06372,7.84718 27.47092,-3.55374 28.24191,-10.037 0.77101,-6.48325 25.66531,-34.4073 25.66531,-34.4073 l 7.78999,-2.15172 41.35356,-38.59121 c 0,0 -18.16939,-2.137 -42.96122,0.72065 z"
         style="fill:#4ecae9;stroke:none;fill-opacity:1" />
      <path
         sodipodi:nodetypes="czcccssccc"
         transform="translate(0,796.36218)"
         inkscape:connector-curvature="0"
         id="path2995"
         d="m 394.99575,202.63265 c 0,0 20.95567,-5.55355 26.22297,-9.38236 5.26731,-3.82881 16.43792,-18.52361 16.43792,-18.52361 l 68.64161,-58.87844 94.60244,-57.22864 c 0,0 -11.95263,60.51485 -38.81505,78.03382 -26.86243,17.51897 -97.66432,38.21006 -138.52559,57.22813 -21.45283,9.9848 -28.77494,20.36134 -28.77494,20.36134 l -5.21922,-7.20294 z"
         style="fill:#4ecae9;stroke:none;fill-opacity:1" />
      <path
         sodipodi:nodetypes="csssssccssc"
         transform="translate(0,796.36218)"
         inkscape:connector-curvature="0"
         id="path2997"
         d="m 417.53546,202.85912 c 0,0 -8.71798,14.66748 10.55288,17.00334 19.27087,2.33586 36.08021,-2.9473 45.74971,2.73915 12.78856,7.5207 25.05184,21.21099 56.58599,13.61944 31.53414,-7.59155 34.40929,6.6741 36.60664,8.6836 12.0042,10.97797 36.90218,-32.01288 37.48615,-37.26857 0.58396,-5.25569 -24.05495,-40.39886 -24.05495,-40.39886 l -18.59273,-18.06547 c 0,0 -68.16573,29.56895 -73.42142,30.73688 -5.25569,1.16793 -29.4507,13.60704 -47.55364,14.77497 -18.10294,1.16793 -23.35863,8.17552 -23.35863,8.17552 z"
         style="fill:#4ecae9;stroke:none;fill-opacity:1" />
      <path
         inkscape:connector-curvature="0"
         id="path2999"
         d="m 446.66006,1024.6718 c 0,0 -1.82493,13.0791 13.35817,20.0867 15.18311,7.0076 8.33377,-19.476 8.33377,-19.476 z"
         style="fill:#4ecae9;stroke:none;fill-opacity:1"
         sodipodi:nodetypes="cscc" />
      <path
         transform="translate(0,796.36218)"
         inkscape:connector-curvature="0"
         id="path3001"
         d="m 384.75758,211.51709 c 0,0 -19.73091,14.75223 -28.40236,21.77197 -8.67145,7.01975 -5.78097,6.1939 -3.30341,4.95512 2.47756,-1.23878 5.36804,-7.8456 15.27826,-6.60682 9.91023,1.23878 20.14385,-13.10053 20.14385,-13.10053 z"
         style="fill:#4ecae9;stroke:none;fill-opacity:1"
         sodipodi:nodetypes="cssscc" />
      <path
         sodipodi:nodetypes="cscc"
         inkscape:connector-curvature="0"
         id="path2999-5"
         d="m 474.68693,1027.4261 c 0,0 -4.6828,9.7956 7.16116,15.2621 11.84396,5.4664 6.20087,-6.9397 6.20087,-6.9397 z"
         style="fill:#4ecae9;stroke:none;fill-opacity:1" />
    </g>
  </g>
</svg>
