<?xml version="1.0" encoding="UTF-8" standalone="no"?>
<!-- Created with Inkscape (http://www.inkscape.org/) -->

<svg
   xmlns:dc="http://purl.org/dc/elements/1.1/"
   xmlns:cc="http://creativecommons.org/ns#"
   xmlns:rdf="http://www.w3.org/1999/02/22-rdf-syntax-ns#"
   xmlns:svg="http://www.w3.org/2000/svg"
   xmlns="http://www.w3.org/2000/svg"
   xmlns:sodipodi="http://sodipodi.sourceforge.net/DTD/sodipodi-0.dtd"
   xmlns:inkscape="http://www.inkscape.org/namespaces/inkscape"
   width="256"
   height="256"
   id="svg4374"
   version="1.1"
   inkscape:version="0.48.3.1 r9886"
   sodipodi:docname="gtk-bold.svg">
  <defs
     id="defs4376" />
  <sodipodi:namedview
     id="base"
     pagecolor="#ffffff"
     bordercolor="#666666"
     borderopacity="1.0"
     inkscape:pageopacity="0.0"
     inkscape:pageshadow="2"
     inkscape:zoom="1.7124294"
     inkscape:cx="156.14813"
     inkscape:cy="75.2128"
     inkscape:document-units="px"
     inkscape:current-layer="layer1"
     showgrid="false"
     inkscape:window-width="1914"
     inkscape:window-height="1031"
     inkscape:window-x="0"
     inkscape:window-y="25"
     inkscape:window-maximized="1" />
  <metadata
     id="metadata4379">
    <rdf:RDF>
      <cc:Work
         rdf:about="">
        <dc:format>image/svg+xml</dc:format>
        <dc:type
           rdf:resource="http://purl.org/dc/dcmitype/StillImage" />
        <dc:title />
      </cc:Work>
    </rdf:RDF>
  </metadata>
  <g
     inkscape:label="Capa 1"
     inkscape:groupmode="layer"
     id="layer1"
     transform="translate(0,-796.36218)">
    <g
       inkscape:label="status"
       transform="matrix(20.56274,0,0,20.56274,-3328.4019,-13757.615)"
       id="layer9"
       style="fill:#666666;fill-opacity:1;display:inline" />
    <g
       style="fill:#666666;fill-opacity:1"
       inkscape:label="devices"
       transform="matrix(20.56274,0,0,20.56274,-3328.4019,-13757.615)"
       id="layer10" />
    <g
       style="fill:#666666;fill-opacity:1"
       inkscape:label="apps"
       transform="matrix(20.56274,0,0,20.56274,-3328.4019,-13757.615)"
       id="layer11" />
    <path
       style="font-size:medium;font-style:normal;font-variant:normal;font-weight:normal;font-stretch:normal;text-indent:0;text-align:start;text-decoration:none;line-height:normal;letter-spacing:normal;word-spacing:normal;text-transform:none;direction:ltr;block-progression:tb;writing-mode:lr-tb;text-anchor:start;baseline-shift:baseline;color:#000000;fill:#2da189;fill-opacity:1;stroke:none;stroke-width:2;marker:none;visibility:visible;display:inline;overflow:visible;enable-background:accumulate;font-family:Sans;-inkscape-font-specification:Sans"
       d="M 43.875 25 L 43.875 66.125 L 64.4375 66.125 L 146.6875 66.125 C 155.49164 66.125 167.25 78.75316 167.25 86.6875 L 167.25 107.25 L 105.5625 107.25 L 64.4375 107.25 C 45.53479 107.25 28.764973 115.16262 18.1875 127.1875 C 7.6100265 139.21239 2.6186041 154.11958 2.75 168.9375 C 2.8733764 183.75542 8.2777967 198.82239 18.8125 210.71875 C 29.347203 222.61515 45.760775 230.625 64.4375 230.625 L 105.5625 230.625 L 187.8125 230.625 L 208.375 230.625 L 228.9375 230.625 L 249.5 230.625 L 249.5 210.0625 L 249.5 86.6875 C 249.5 53.08099 222.36202 25 187.8125 25 L 146.6875 25 L 64.4375 25 L 43.875 25 z M 105.5625 148.375 L 167.25 148.375 L 167.25 189.5 L 105.5625 189.5 C 97.381203 189.5 93.903496 187.24444 90.78125 183.71875 C 87.659003 180.19306 85.050996 174.68232 85 168.9375 C 84.95888 163.19268 87.167867 157.55342 90.15625 154.15625 C 93.144633 150.75908 96.877621 148.375 105.5625 148.375 z "
       transform="translate(0,796.36218)"
       id="path11643-3-1" />
    <g
       style="fill:#666666;fill-opacity:1"
       inkscape:label="places"
       transform="matrix(20.56274,0,0,20.56274,-3328.4019,-13757.615)"
       id="layer13" />
    <g
       style="fill:#666666;fill-opacity:1"
       inkscape:label="mimetypes"
       transform="matrix(20.56274,0,0,20.56274,-3328.4019,-13757.615)"
       id="layer14" />
    <g
       inkscape:label="emblems"
       transform="matrix(20.56274,0,0,20.56274,-3328.4019,-13757.615)"
       id="layer15"
       style="fill:#666666;fill-opacity:1;display:inline" />
    <g
       inkscape:label="categories"
       transform="matrix(20.56274,0,0,20.56274,-3328.4019,-13757.615)"
       id="g4953"
       style="fill:#666666;fill-opacity:1;display:inline" />
  </g>
</svg>
