<?xml version="1.0" encoding="UTF-8" standalone="no"?>
<!-- Created with Inkscape (http://www.inkscape.org/) -->

<svg
   xmlns:dc="http://purl.org/dc/elements/1.1/"
   xmlns:cc="http://creativecommons.org/ns#"
   xmlns:rdf="http://www.w3.org/1999/02/22-rdf-syntax-ns#"
   xmlns:svg="http://www.w3.org/2000/svg"
   xmlns="http://www.w3.org/2000/svg"
   xmlns:sodipodi="http://sodipodi.sourceforge.net/DTD/sodipodi-0.dtd"
   xmlns:inkscape="http://www.inkscape.org/namespaces/inkscape"
   width="256"
   height="256"
   id="svg2"
   version="1.1"
   inkscape:version="0.48.3.1 r9886"
   sodipodi:docname="gtk-refresh.svg">
  <defs
     id="defs4" />
  <sodipodi:namedview
     id="base"
     pagecolor="#ffffff"
     bordercolor="#666666"
     borderopacity="1.0"
     inkscape:pageopacity="0.0"
     inkscape:pageshadow="2"
     inkscape:zoom="1.8163057"
     inkscape:cx="131.80597"
     inkscape:cy="119.68824"
     inkscape:document-units="px"
     inkscape:current-layer="layer1"
     showgrid="false"
     inkscape:window-width="1914"
     inkscape:window-height="1031"
     inkscape:window-x="0"
     inkscape:window-y="25"
     inkscape:window-maximized="1" />
  <metadata
     id="metadata7">
    <rdf:RDF>
      <cc:Work
         rdf:about="">
        <dc:format>image/svg+xml</dc:format>
        <dc:type
           rdf:resource="http://purl.org/dc/dcmitype/StillImage" />
        <dc:title />
      </cc:Work>
    </rdf:RDF>
  </metadata>
  <g
     inkscape:label="Capa 1"
     inkscape:groupmode="layer"
     id="layer1"
     transform="translate(0,-796.36218)">
    <g
       id="g4219"
       transform="matrix(19.60332,0,0,19.60332,-19.339344,769.4939)"
       style="fill:#4ecae9;fill-opacity:1">
      <g
         style="display:inline;fill:#4ecae9;fill-opacity:1"
         inkscape:label="status"
         transform="translate(-241.0002,-627)"
         id="layer9" />
      <g
         inkscape:label="devices"
         transform="translate(-241.0002,-627)"
         id="layer10"
         style="fill:#4ecae9;fill-opacity:1" />
      <g
         inkscape:label="apps"
         transform="translate(-241.0002,-627)"
         id="layer11"
         style="fill:#4ecae9;fill-opacity:1" />
      <g
         inkscape:label="places"
         transform="translate(-241.0002,-627)"
         id="layer13"
         style="fill:#4ecae9;fill-opacity:1" />
      <g
         inkscape:label="mimetypes"
         transform="translate(-241.0002,-627)"
         id="layer14"
         style="fill:#4ecae9;fill-opacity:1" />
      <g
         style="display:inline;fill:#4ecae9;fill-opacity:1"
         inkscape:label="emblems"
         transform="translate(-241.0002,-627)"
         id="layer15" />
      <g
         style="display:inline;fill:#4ecae9;fill-opacity:1"
         inkscape:label="emotes"
         transform="translate(-241.0002,-627)"
         id="g71291" />
      <g
         style="display:inline;fill:#4ecae9;fill-opacity:1"
         inkscape:label="categories"
         transform="translate(-241.0002,-627)"
         id="g4953" />
      <g
         style="display:inline;fill:#4ecae9;fill-opacity:1"
         inkscape:label="actions"
         transform="translate(-241.0002,-627)"
         id="layer12">
        <path
           inkscape:connector-curvature="0"
           style="font-size:medium;font-style:normal;font-variant:normal;font-weight:normal;font-stretch:normal;text-indent:0;text-align:start;text-decoration:none;line-height:normal;letter-spacing:normal;word-spacing:normal;text-transform:none;direction:ltr;block-progression:tb;writing-mode:lr-tb;text-anchor:start;baseline-shift:baseline;color:#bebebe;fill:#4ecae9;fill-opacity:1;stroke:none;stroke-width:2;marker:none;visibility:visible;display:inline;overflow:visible;enable-background:accumulate;font-family:Sans;-inkscape-font-specification:Sans"
           d="m 253.0002,629.99995 0,1.6875 c -0.38225,-0.57796 -0.84927,-1.08223 -1.40625,-1.5 -1.15563,-0.86677 -2.53199,-1.25227 -3.875,-1.1875 -0.19186,0.009 -0.37223,0.0353 -0.5625,0.0625 -1.52218,0.21741 -2.97815,1.02304 -3.96875,2.34375 -1.98119,2.64144 -1.42267,6.42505 1.21875,8.40625 2.64147,1.98122 6.42504,1.42267 8.40625,-1.21875 0.67146,-1.26084 -0.71205,-2.15924 -1.6249,-1.18745 -1.33265,1.77674 -3.81702,2.11387 -5.59375,0.78125 -1.77674,-1.33264 -2.1139,-3.81699 -0.78125,-5.59375 1.33265,-1.77674 3.817,-2.11389 5.59375,-0.78125 0.42946,0.32212 0.76954,0.73295 1.03125,1.1875 l -1.4375,0 c -1.15537,0.0293 -1.25015,2.03882 0.33703,1.94383 l 3.66297,0.0562 1,0 0,-1 0,-4 c 0.006,-0.0623 0.006,-0.12518 0,-0.1875 0.0143,-1.31749 -2.06763,-1.09683 -2.0001,0.18745 z"
           id="path4597"
           sodipodi:nodetypes="cccccssccssscccccccccc" />
      </g>
    </g>
  </g>
</svg>
