<?xml version="1.0" encoding="UTF-8" standalone="no"?>
<!-- Created with Inkscape (http://www.inkscape.org/) -->

<svg
   xmlns:dc="http://purl.org/dc/elements/1.1/"
   xmlns:cc="http://creativecommons.org/ns#"
   xmlns:rdf="http://www.w3.org/1999/02/22-rdf-syntax-ns#"
   xmlns:svg="http://www.w3.org/2000/svg"
   xmlns="http://www.w3.org/2000/svg"
   xmlns:sodipodi="http://sodipodi.sourceforge.net/DTD/sodipodi-0.dtd"
   xmlns:inkscape="http://www.inkscape.org/namespaces/inkscape"
   width="256"
   height="256"
   id="svg5121"
   version="1.1"
   inkscape:version="0.48.3.1 r9886"
   sodipodi:docname="gtk-print-warning.svg">
  <defs
     id="defs5123" />
  <sodipodi:namedview
     id="base"
     pagecolor="#ffffff"
     bordercolor="#666666"
     borderopacity="1.0"
     inkscape:pageopacity="0.0"
     inkscape:pageshadow="2"
     inkscape:zoom="1.6614269"
     inkscape:cx="243.02443"
     inkscape:cy="103.67027"
     inkscape:document-units="px"
     inkscape:current-layer="layer1"
     showgrid="false"
     inkscape:window-width="1914"
     inkscape:window-height="1031"
     inkscape:window-x="0"
     inkscape:window-y="25"
     inkscape:window-maximized="1" />
  <metadata
     id="metadata5126">
    <rdf:RDF>
      <cc:Work
         rdf:about="">
        <dc:format>image/svg+xml</dc:format>
        <dc:type
           rdf:resource="http://purl.org/dc/dcmitype/StillImage" />
        <dc:title />
      </cc:Work>
    </rdf:RDF>
  </metadata>
  <g
     inkscape:label="Capa 1"
     inkscape:groupmode="layer"
     id="layer1"
     transform="translate(0,-796.36218)">
    <rect
       style="fill:#2da189;fill-opacity:1;stroke:none"
       width="32.071808"
       height="20.70857"
       ry="2.7455945"
       rx="3.3597281"
       id="rect4899"
       y="854.6507"
       x="174.884" />
    <path
       style="font-size:medium;font-style:normal;font-variant:normal;font-weight:normal;font-stretch:normal;text-indent:0;text-align:start;text-decoration:none;line-height:normal;letter-spacing:normal;word-spacing:normal;text-transform:none;direction:ltr;block-progression:tb;writing-mode:lr-tb;text-anchor:start;color:#000000;fill:#2da189;fill-opacity:1;stroke:none;stroke-width:2;marker:none;visibility:visible;display:inline;overflow:visible;enable-background:accumulate;font-family:Bitstream Vera Sans;-inkscape-font-specification:Bitstream Vera Sans"
       id="path41043-9"
       d="M 30.529114,992.98702 C 14.464724,993.47821 2.6213413,983.67746 2.6213413,962.90651 l 0,-116.65968 C -1.4287503,829.10444 17.126528,814.00536 30.529114,813.94407 l 0,-0.24703 1.839316,0 193.74054,0 c 14.59492,0.21665 30.96523,12.61061 27.69498,32.54979 0,0 0,104.25115 0,117.15294 -0.55827,17.72233 -10.18773,29.50625 -24.62947,29.58725 l -44.55165,0 0,-34.51992 c 0,0 4.75104,0 14.4896,0 9.73856,0 28.33312,-5.09604 28.33312,-18.65866 0,-13.56262 0,-58.05637 0,-67.29114 0,-9.23477 -1.95,-23.88256 -29.27481,-23.88256 -27.99688,0 -110.866195,-1.01591 -135.006536,-1.44147 -21.224034,-0.37415 -28.855586,9.32598 -28.855586,34.05147 0,24.72549 0,40.37955 0,54.6514 0,14.27185 12.440792,17.28472 22.043136,17.32471 10.419676,0.0434 13.616644,5.24625 13.616644,5.24625 l 0,34.51992 z"
       inkscape:connector-curvature="0"
       sodipodi:nodetypes="cccccccccccczzzsszzsccc" />
    <rect
       style="fill:#2da189;fill-opacity:1;stroke:none"
       width="32.071808"
       height="20.70857"
       ry="2.7455945"
       rx="3.3597281"
       id="rect4899-2"
       y="854.64233"
       x="138.66939" />
    <path
       style="font-size:medium;font-style:normal;font-variant:normal;font-weight:normal;font-stretch:normal;text-indent:0;text-align:start;text-decoration:none;line-height:normal;letter-spacing:normal;word-spacing:normal;text-transform:none;direction:ltr;block-progression:tb;writing-mode:lr-tb;text-anchor:start;baseline-shift:baseline;color:#000000;fill:#2da189;fill-opacity:1;stroke:none;stroke-width:1.99999988000000006;marker:none;visibility:visible;display:inline;overflow:visible;enable-background:accumulate;font-family:Sans;-inkscape-font-specification:Sans"
       sodipodi:nodetypes="ccccccccccccccccccccc"
       id="path1234-3"
       d="m 58.659194,1047.4853 c -7.05026,-1.3818 -12.6228,-8.424 -12.49637,-15.793 l 0,-110.55145 30.76031,0 107.588246,0.1079 2.85899,25.98926 -110.447236,-1.58989 0,70.25108 61.520616,0 0,-47.37916 46.14047,0 0,-47.37919 30.76031,0 0,54.28866 c 0.0923,4.17094 -1.5011,8.35452 -4.32567,11.35205 l -54.7918,56.26204 c -2.91885,2.9011 -6.9932,4.5384 -11.05449,4.4417 l -83.629596,0 c -0.47986,0.016 -0.96126,0.016 -1.44112,0 -0.47986,0.016 -0.96126,0.016 -1.44112,0 z"
       inkscape:connector-curvature="0" />
    <path
       transform="matrix(0.45046053,0.5365087,-0.5365087,0.45046053,49.810638,990.29339)"
       style="fill:#ff0000;fill-opacity:1;stroke:#ffffff;stroke-width:9.85097228;stroke-miterlimit:4;stroke-dasharray:none"
       inkscape:transform-center-x="-0.030766269"
       inkscape:transform-center-y="-19.45273"
       d="m -67.386455,-15.333255 c -3.682688,-4.613987 -19.188053,-45.933844 -33.936065,-82.105311 -14.74801,-36.171464 -29.25711,-73.106634 -25.75146,-77.483694 3.50565,-4.37706 41.226024,5.90846 79.89968,12.027 38.673656,6.11855 83.226403,12.07335 88.152211,16.07659 4.925808,4.00324 -23.634153,34.43901 -50.993349,67.078184 -27.359196,32.639171 -53.688329,69.021218 -57.371017,64.407231 z"
       id="path3852"
       inkscape:connector-curvature="0"
       sodipodi:nodetypes="zszszsz" />
    <g
       style="font-size:52.57753754px;font-style:normal;font-variant:normal;font-weight:normal;font-stretch:normal;line-height:125%;letter-spacing:0px;word-spacing:0px;fill:#ffffff;fill-opacity:1;stroke:none;font-family:'A.C.M.E. Secret Agent';-inkscape-font-specification:'A.C.M.E. Secret Agent'"
       id="text3854">
      <path
         d="m 87.863453,912.52932 c 0.294434,-8.02332 1.030521,-13.69119 2.429082,-18.47574 2.355472,-8.09694 2.502691,-8.75942 2.502691,-11.63015 0,-4.63734 -2.576303,-7.36086 -6.845595,-7.36086 -4.3429,0 -6.919204,2.72352 -6.919204,7.36086 0,1.91382 0.368044,4.3429 1.03052,6.55116 2.944339,9.71632 3.459602,12.8815 3.901253,23.55473 l 3.901253,0 m -1.987431,4.12208 c -3.754032,0 -6.845595,3.09156 -6.845595,6.8456 0,3.75403 3.091563,6.9192 6.771987,6.9192 3.901249,0 6.992812,-3.09156 6.992812,-6.9192 0,-3.75404 -3.091563,-6.8456 -6.919204,-6.8456"
         style="font-size:73.60855103px;font-weight:bold;fill:#ffffff;font-family:Century Schoolbook L;-inkscape-font-specification:Century Schoolbook L Bold"
         id="path3859" />
    </g>
  </g>
</svg>
