<?xml version="1.0" encoding="UTF-8" standalone="no"?>
<!-- Generator: Adobe Illustrator 9.0, SVG Export Plug-In  -->

<svg
   xmlns:dc="http://purl.org/dc/elements/1.1/"
   xmlns:cc="http://creativecommons.org/ns#"
   xmlns:rdf="http://www.w3.org/1999/02/22-rdf-syntax-ns#"
   xmlns:svg="http://www.w3.org/2000/svg"
   xmlns="http://www.w3.org/2000/svg"
   xmlns:sodipodi="http://sodipodi.sourceforge.net/DTD/sodipodi-0.dtd"
   xmlns:inkscape="http://www.inkscape.org/namespaces/inkscape"
   width="256"
   height="256"
   viewBox="0 0 256 256"
   xml:space="preserve"
   id="svg2"
   sodipodi:version="0.32"
   inkscape:version="0.48.3.1 r9886"
   sodipodi:docname="view-sort-descending.svg"
   inkscape:output_extension="org.inkscape.output.svg.inkscape"
   version="1.0"><metadata
   id="metadata45"><rdf:RDF><cc:Work
       rdf:about=""><dc:format>image/svg+xml</dc:format><dc:type
         rdf:resource="http://purl.org/dc/dcmitype/StillImage" /><dc:title /></cc:Work></rdf:RDF></metadata><defs
   id="defs43">
		
	
			
			
			
			
			
			
			
			
		
				
				
			</defs><sodipodi:namedview
   inkscape:window-height="1031"
   inkscape:window-width="1914"
   inkscape:pageshadow="2"
   inkscape:pageopacity="0.0"
   guidetolerance="10.0"
   gridtolerance="10.0"
   objecttolerance="10.0"
   borderopacity="1.0"
   bordercolor="#666666"
   pagecolor="#ffffff"
   id="base"
   showgrid="true"
   inkscape:object-paths="true"
   inkscape:object-nodes="true"
   inkscape:zoom="1.7383042"
   inkscape:cx="174.63694"
   inkscape:cy="64.677966"
   inkscape:window-x="0"
   inkscape:window-y="25"
   inkscape:window-maximized="1"
   inkscape:current-layer="svg2"
   inkscape:snap-grids="false"
   inkscape:snap-page="true"
   showguides="true"
   inkscape:guide-bbox="true"><inkscape:grid
     type="xygrid"
     id="grid2399"
     visible="true"
     enabled="false"
     empspacing="5"
     snapvisiblegridlinesonly="true" /><sodipodi:guide
     orientation="0,1"
     position="269.80318,-52.349871"
     id="guide3824" /></sodipodi:namedview>
	<path
   style="fill-rule:nonzero;stroke:none;fill:#a275bf;fill-opacity:1"
   inkscape:connector-curvature="0"
   id="path29"
   d="m 204.54357,39.017064 0,0 -10.92952,5.46476 -2.42878,-10.322325 15.17989,-7.286347 10.92952,0 0,57.68358 -12.75111,0 0,-45.539668 z" /><path
   style="fill-rule:nonzero;stroke:none;fill:#a275bf;fill-opacity:1"
   inkscape:connector-curvature="0"
   id="path31"
   d="m 191.18527,216.31817 c 1.82159,0 3.03598,0 6.07196,0 4.25037,0 8.50073,-1.21439 11.53671,-3.64317 3.64318,-2.42878 6.07196,-6.07196 7.28635,-10.32233 l 0,0 c -2.42878,2.42879 -6.07196,4.25037 -11.53672,4.25037 -9.71513,0 -17.60867,-6.67915 -17.60867,-18.21586 0,-10.92952 9.10794,-20.64465 21.85904,-20.64465 14.5727,0 21.85904,11.53671 21.85904,24.89502 0,12.14391 -3.64317,20.64464 -9.71513,26.10941 -5.46476,4.85756 -13.3583,7.89354 -21.85904,7.89354 -2.42878,0 -4.25037,0 -6.07195,0 l 0,-10.32233 -1.82159,0 z m 15.78709,-38.86051 c -4.25037,0 -7.89355,4.25036 -7.89355,10.32232 0,4.85757 3.03598,9.10793 7.89355,9.10793 3.64317,0 6.07195,-1.82158 7.89354,-3.64317 0.60719,-0.60719 0.60719,-1.82159 0.60719,-3.64317 0,-6.07196 -2.42878,-12.14391 -8.50073,-12.14391 l 0,0 z" /><path
   style="fill-rule:nonzero;stroke:none;fill:#a275bf;fill-opacity:1"
   d="m 220.93785,144.0619 c 0,6.07195 -4.85756,10.32232 -10.32232,10.32232 -6.07196,0 -10.32233,-4.85756 -10.32233,-10.32232 0,-6.07196 4.85757,-10.32233 10.32233,-10.32233 6.07195,0 10.32232,4.85757 10.32232,10.32233 z"
   id="path33"
   inkscape:connector-curvature="0" /><path
   style="fill-rule:nonzero;stroke:none;fill:#a275bf;fill-opacity:1"
   d="m 220.93785,111.88053 c 0,6.07196 -4.85756,10.32233 -10.32232,10.32233 -6.07196,0 -10.32233,-4.85757 -10.32233,-10.32233 0,-6.07195 4.85757,-10.32232 10.32233,-10.32232 6.07195,0 10.32232,4.85756 10.32232,10.32232 z"
   id="path35"
   inkscape:connector-curvature="0" /><path
   style="fill:#a275bf;fill-opacity:1;fill-rule:nonzero;stroke:none"
   d="m 50.315896,118.55968 c 0,0 12.751107,-12.7511 25.502214,-25.502206 l 0,142.083766 35.82454,0 0,-142.083766 c 12.75111,12.751106 25.50221,25.502206 25.50221,25.502206 17.03669,17.99474 42.93983,-9.05907 25.50222,-25.502206 l -56.46919,-56.46919 c -7.286348,-7.28635 -18.215868,-7.28635 -25.502215,0 L 24.813682,93.664674 C 8.7124161,111.76929 27.984523,134.23595 50.315896,119.16688 z"
   id="path37"
   inkscape:connector-curvature="0"
   sodipodi:nodetypes="cccccccscccc" />
	<g
   id="crop_x0020_marks"
   style="fill-rule:nonzero;stroke:#000000;stroke-miterlimit:4"
   transform="scale(5.3333333,5.3333333)">
		<path
   style="fill:none;stroke:none"
   d="M 48,48 0,48 0,0 48,0 48,48 z"
   id="path40"
   inkscape:connector-curvature="0" />
	</g>
</svg>