<?xml version="1.0" encoding="UTF-8" standalone="no"?>
<!-- Generator: Adobe Illustrator 9.0, SVG Export Plug-In  -->

<svg
   xmlns:dc="http://purl.org/dc/elements/1.1/"
   xmlns:cc="http://creativecommons.org/ns#"
   xmlns:rdf="http://www.w3.org/1999/02/22-rdf-syntax-ns#"
   xmlns:svg="http://www.w3.org/2000/svg"
   xmlns="http://www.w3.org/2000/svg"
   xmlns:sodipodi="http://sodipodi.sourceforge.net/DTD/sodipodi-0.dtd"
   xmlns:inkscape="http://www.inkscape.org/namespaces/inkscape"
   width="48"
   height="48"
   viewBox="0 0 48 48"
   xml:space="preserve"
   id="svg2"
   sodipodi:version="0.32"
   inkscape:version="0.92.1 r15371"
   sodipodi:docname="help.svg"
   inkscape:output_extension="org.inkscape.output.svg.inkscape"
   version="1.0"><metadata
     id="metadata35"><rdf:RDF><cc:Work
         rdf:about=""><dc:format>image/svg+xml</dc:format><dc:type
           rdf:resource="http://purl.org/dc/dcmitype/StillImage" /></cc:Work></rdf:RDF></metadata><defs
     id="defs33"><inkscape:path-effect
       effect="skeletal"
       id="path-effect3052"
       is_visible="true"
       pattern="M 0,5 C 0,2.24 2.24,0 5,0 7.76,0 10,2.24 10,5 10,7.76 7.76,10 5,10 2.24,10 0,7.76 0,5 z"
       copytype="single_stretched"
       prop_scale="1"
       scale_y_rel="false"
       spacing="0"
       normal_offset="0"
       tang_offset="0"
       prop_units="false"
       vertical_pattern="false"
       fuse_tolerance="0" /></defs><sodipodi:namedview
     inkscape:window-height="1023"
     inkscape:window-width="1918"
     inkscape:pageshadow="2"
     inkscape:pageopacity="0"
     guidetolerance="10.0"
     gridtolerance="10.0"
     objecttolerance="10.0"
     borderopacity="1.0"
     bordercolor="#666666"
     pagecolor="#ffffff"
     id="base"
     showgrid="true"
     inkscape:object-paths="true"
     inkscape:object-nodes="true"
     inkscape:zoom="16.448764"
     inkscape:cx="12.58127"
     inkscape:cy="25.496052"
     inkscape:window-x="0"
     inkscape:window-y="26"
     inkscape:current-layer="svg2"
     inkscape:window-maximized="1"
     inkscape:snap-global="false"><inkscape:grid
       type="xygrid"
       id="grid2394"
       visible="true"
       enabled="true"
       empspacing="5"
       snapvisiblegridlinesonly="true" /></sodipodi:namedview><path
     inkscape:connector-curvature="0"
     id="path30"
     d="M 48,48 H 0 V 0 h 48 z"
     style="fill:none;fill-rule:nonzero;stroke:none;stroke-miterlimit:4" /><path
     style="fill:#822b86;fill-opacity:1;stroke:#000000"
     d="M 36.003906 1.7480469 C 35.767315 1.7488667 35.523114 1.8045614 35.277344 1.9277344 C 33.331646 2.9028611 14.352234 17.425063 13.953125 17.730469 C 11.478465 15.901568 11.810589 11.772119 11.265625 9.9511719 C 10.695739 8.0469584 7.0264106 7.3785545 6.9179688 8.9316406 C 6.7895524 10.77074 7.8058033 15.911617 6.5957031 17.90625 C 4.7507185 21.222863 4.4145949 25.33571 4.6054688 29.105469 C 4.7963508 32.875228 4.8984375 34.525391 4.8984375 34.525391 L 1.1953125 38.041016 L 9.6015625 46.388672 C 9.6015625 46.388672 11.089272 44.659373 12.445312 43.371094 C 13.168031 42.684489 14.635965 41.726558 15.207031 41.529297 C 16.530193 42.185711 18.15674 43.163492 20.833984 41.662109 C 23.432129 40.205083 24.163873 39.754343 24.449219 39.574219 C 24.449266 39.574516 24.453125 39.591797 24.453125 39.591797 C 24.453125 39.591797 24.690922 39.428223 24.697266 39.423828 C 24.70007 39.421947 24.763672 39.382812 24.763672 39.382812 C 24.763672 39.382812 24.763674 39.378918 24.763672 39.378906 C 25.339741 38.97984 41.614954 27.706126 44.337891 26.037109 C 47.109067 24.338524 44.807605 21.515659 43.40625 22.296875 C 42.004894 23.078091 38.278407 25.250381 34.6875 27.496094 L 33.601562 25.410156 C 33.601562 25.410156 43.554224 18.414906 46.246094 16.386719 C 48.937965 14.358531 46.025505 11.447046 43.824219 12.986328 C 41.622933 14.525609 32.011719 21.820312 32.011719 21.820312 L 30.417969 19.863281 C 30.417969 19.863281 41.118385 11.756778 43.34375 9.9335938 C 45.569115 8.1104091 42.949374 5.1866608 40.609375 6.7910156 C 38.269375 8.3953704 27.914062 16.537109 27.914062 16.537109 L 26.091797 14.539062 C 26.091797 14.539062 36.231025 6.9078612 37.673828 5.5878906 C 38.936281 4.4329163 37.660042 1.7423079 36.003906 1.7480469 z "
     id="path2999" /></svg>