<?xml version="1.0" encoding="UTF-8" standalone="no"?>
<!-- Created with Inkscape (http://www.inkscape.org/) -->

<svg
   xmlns:dc="http://purl.org/dc/elements/1.1/"
   xmlns:cc="http://creativecommons.org/ns#"
   xmlns:rdf="http://www.w3.org/1999/02/22-rdf-syntax-ns#"
   xmlns:svg="http://www.w3.org/2000/svg"
   xmlns="http://www.w3.org/2000/svg"
   xmlns:sodipodi="http://sodipodi.sourceforge.net/DTD/sodipodi-0.dtd"
   xmlns:inkscape="http://www.inkscape.org/namespaces/inkscape"
   width="235.86879"
   height="256"
   id="svg3188"
   version="1.1"
   inkscape:version="0.48.5 r10040"
   sodipodi:docname="Documento nuevo 2">
  <defs
     id="defs3190" />
  <sodipodi:namedview
     id="base"
     pagecolor="#ffffff"
     bordercolor="#666666"
     borderopacity="1.0"
     inkscape:pageopacity="0.0"
     inkscape:pageshadow="2"
     inkscape:zoom="1.979899"
     inkscape:cx="296.02624"
     inkscape:cy="107.75979"
     inkscape:document-units="px"
     inkscape:current-layer="layer1"
     showgrid="false"
     fit-margin-top="0"
     fit-margin-left="0"
     fit-margin-right="0"
     fit-margin-bottom="0"
     inkscape:window-width="1913"
     inkscape:window-height="1026"
     inkscape:window-x="0"
     inkscape:window-y="25"
     inkscape:window-maximized="1" />
  <metadata
     id="metadata3193">
    <rdf:RDF>
      <cc:Work
         rdf:about="">
        <dc:format>image/svg+xml</dc:format>
        <dc:type
           rdf:resource="http://purl.org/dc/dcmitype/StillImage" />
        <dc:title></dc:title>
      </cc:Work>
    </rdf:RDF>
  </metadata>
  <g
     inkscape:label="Capa 1"
     inkscape:groupmode="layer"
     id="layer1"
     transform="translate(374.59767,787.3066)">
    <g
       id="g3307"
       transform="matrix(5.6916145,0,0,5.6916145,1759.7944,2490.1602)">
      <rect
         transform="matrix(0.99999503,-0.00315296,0.00315296,0.99999503,0,0)"
         y="-574.41901"
         x="-372.78836"
         height="41.570244"
         width="40.492966"
         id="rect4125-4"
         style="fill:#afc6e9;fill-opacity:1;stroke:none" />
      <path
         inkscape:connector-curvature="0"
         id="path3364"
         d="m -372.37148,-571.51515 c 0,0 -0.30915,25.89201 0,25.50556 0.30916,-0.38645 16.38539,-5.48756 24.26893,-5.64214 7.88353,-0.15458 11.59343,-0.38645 11.59343,-0.38645 l 0,-19.70884 z"
         style="fill:#afdde9;stroke:none" />
      <path
         style="fill:#f4d7d7;fill-opacity:1;stroke:none;display:inline"
         d="m -361.82874,-559.7827 c -0.0578,-0.28441 -0.9209,-3.24141 -1.88849,-3.23836 -0.9676,0.003 -2.3338,-0.0496 -2.04436,1.48631 0.28943,1.53587 0.97549,2.5013 2.05764,2.72557 1.08214,0.22426 2.16357,0.22085 2.16357,0.22085 z"
         id="path6937-9-8-3"
         inkscape:connector-curvature="0" />
      <path
         style="fill:#f4d7d7;fill-opacity:1;stroke:none;display:inline"
         d="m -347.23749,-559.83782 c 0,0 1.46999,-3.13511 2.66525,-3.13888 1.19525,-0.004 2.50399,-0.12173 2.22353,1.18826 -0.28046,1.30999 -0.62089,1.65258 -2.2695,2.28387 -1.64863,0.6313 -3.0141,0.80635 -3.0141,0.80635 z"
         id="path6939-3-7-2"
         inkscape:connector-curvature="0" />
      <path
         style="fill:#ffffff;stroke:none;display:inline"
         d="m -363.93412,-546.59845 c 2.01466,-3.01372 1.5906,-16.42769 1.5906,-16.42769 -0.28985,-2.81932 3.72537,-1.88986 7.46129,-1.98111 3.11009,-0.076 7.98712,-1.73565 7.87,3.69976 0.17907,2.45083 0.12279,4.25443 0.0732,5.62901 -0.0524,1.45158 0.0104,4.76437 2.98544,9.84233 2.97502,5.07796 3.7994,14.07861 3.7994,14.07861 l -28.16596,0.0677 c -0.67009,-4.79988 2.13935,-11.57259 4.38601,-14.9085 z"
         id="path6935-0-6-4"
         inkscape:connector-curvature="0"
         sodipodi:nodetypes="ccscszcccc" />
      <path
         style="fill:#ffffff;fill-opacity:1;stroke:none;display:inline"
         d="m -347.00583,-559.64024 c 0.95917,-2.20121 2.40724,-3.44545 3.41328,-2.11448 0.96532,1.27709 -1.99908,2.44361 -3.27341,2.65032 l -0.16618,0.42633 c 1.47948,0.46272 6.07233,-0.76837 5.86593,-2.90398 -0.12901,-1.33476 -0.72863,-2.2185 -1.67597,-2.38169 -0.56839,-0.0979 -1.26161,0.0639 -2.05519,0.54171 -1.8881,1.13689 -2.25953,2.14511 -2.23527,3.44205"
         id="path5154-4-0-4-7"
         inkscape:connector-curvature="0"
         sodipodi:nodetypes="csccsssc" />
      <path
         style="fill:#000000;fill-opacity:1;stroke:#000000;stroke-width:0.05634544px;stroke-linecap:butt;stroke-linejoin:miter;stroke-opacity:1;display:inline"
         d="m -354.42888,-561.13458 c -0.7176,2.25727 0.92464,4.90485 1.38124,5.30184 0.45659,0.39698 2.17541,2.18861 3.96803,1.95889 1.76556,-0.22625 2.02941,-1.60857 2.02528,-2.91767 -0.004,-1.30909 0.477,-5.57933 -0.89143,-6.34661 -3.87381,-2.17204 -5.76551,-0.25372 -6.48312,2.00355 z"
         id="path6983-98-7-9"
         inkscape:connector-curvature="0"
         sodipodi:nodetypes="zssssz" />
      <path
         style="fill:#000000;fill-opacity:1;stroke:#000000;stroke-width:0.05634544px;stroke-linecap:butt;stroke-linejoin:miter;stroke-opacity:1;display:inline"
         d="m -359.23223,-549.30341 0.76913,1.40622 c 0,0 3.82532,0.59164 4.70998,0.34737 0.88467,-0.24428 2.65336,-0.93405 2.65336,-0.93405 l 0.31879,-1.00718 c 0,0 -3.0553,1.0963 -4.58505,0.98038 -1.52976,-0.11591 -3.86621,-0.79274 -3.86621,-0.79274 z"
         id="path7018-2-0-2"
         inkscape:connector-curvature="0" />
      <path
         style="fill:#deccd8;fill-opacity:1;stroke:none;display:inline"
         d="m -359.75093,-549.66672 c 0.9254,1.52281 2.49726,1.60675 4.88169,1.46929 2.38246,-0.13735 4.17712,-0.38687 5.08002,-2.19775 0.38617,-1.49404 -0.4965,-1.92945 -0.99792,-2.6442 0.12412,-0.83604 -0.37442,-0.82327 -1.11514,-1.07887 -0.7407,-0.2556 -1.42579,0.83222 -3.00997,0.85061 -0.79209,0.009 -1.83926,-0.85858 -2.6481,-1.13102 -1.2368,-0.19614 -2.00882,1.17193 -2.42597,2.11497 -0.59541,1.45867 -0.0818,2.09503 0.23539,2.61697 z"
         id="path5150-81-7-6"
         inkscape:connector-curvature="0"
         sodipodi:nodetypes="sscczsccs" />
      <path
         sodipodi:type="arc"
         style="fill:#ffffff;fill-opacity:1;stroke:none;display:inline"
         id="path6985-4-1-4"
         sodipodi:cx="-431.33514"
         sodipodi:cy="786.01947"
         sodipodi:rx="57.107491"
         sodipodi:ry="53.298973"
         d="m -374.39273,781.9698 c 2.39638,29.35112 -21.15495,54.958 -52.60337,57.19457 -31.44843,2.23657 -58.88507,-19.74411 -61.28146,-49.09523 -2.39638,-29.35112 21.15495,-54.958 52.60338,-57.19457 30.96369,-2.2021 58.13777,19.09152 61.17307,47.93523"
         transform="matrix(0.05634516,-1.7765491e-4,1.7765491e-4,0.05634516,-326.32076,-603.69855)"
         sodipodi:start="6.2071318"
         sodipodi:end="12.46847"
         sodipodi:open="true" />
      <path
         transform="matrix(0.05634516,-1.7765491e-4,1.7765491e-4,0.05634516,-334.6175,-603.89258)"
         sodipodi:type="arc"
         style="fill:#ffffff;fill-opacity:1;stroke:none;display:inline"
         id="path6985-6-2-9-5"
         sodipodi:cx="-431.33514"
         sodipodi:cy="786.01947"
         sodipodi:rx="57.578697"
         sodipodi:ry="59.598999"
         d="m -373.92289,781.49113 c 2.41616,32.82047 -21.3295,61.45412 -53.03741,63.95506 -31.70792,2.50093 -59.37094,-22.07791 -61.7871,-54.89838 -2.41616,-32.82047 21.3295,-61.45412 53.03741,-63.95506 31.21919,-2.46238 58.61749,21.34817 61.67783,53.60126"
         sodipodi:start="6.2071318"
         sodipodi:end="12.46847"
         sodipodi:open="true" />
      <path
         style="fill:#000000;fill-opacity:1;stroke:none;display:inline"
         d="m -361.48939,-563.61067 c -0.42899,-0.43881 -1.81132,-2.61437 -1.36216,-3.12289 0.94953,-1.07502 2.71062,1.90721 2.71062,1.90721 0,0 -0.97912,0.6123 -1.34846,1.21568 z"
         id="path5962-64-9-2"
         inkscape:connector-curvature="0"
         sodipodi:nodetypes="cscc" />
      <path
         style="fill:#000000;fill-opacity:1;stroke:none;display:inline"
         d="m -349.60381,-564.5739 c 0,0 1.77663,-2.79139 2.29535,-2.29456 0.86064,0.82431 -0.36469,3.09053 -1.04991,3.391 -0.56821,-0.82773 -1.24544,-1.09644 -1.24544,-1.09644 z"
         id="path5964-7-0-3"
         inkscape:connector-curvature="0"
         sodipodi:nodetypes="cscc" />
      <path
         style="fill:#ffffff;fill-opacity:1;stroke:none;display:inline"
         d="m -362.10844,-559.32072 c -0.58809,-2.32799 -1.81432,-3.79133 -3.0236,-2.64185 -1.16032,1.10293 1.5747,2.73639 2.79839,3.14777 l 0.0946,0.44769 c -1.53507,0.21575 -5.8663,-1.74648 -5.31505,-3.82002 0.34454,-1.29597 1.08001,-2.07032 2.04127,-2.07714 0.57676,-0.004 1.2344,0.26837 1.93963,0.86901 1.67788,1.42903 1.88026,2.48426 1.64522,3.75996"
         id="path5154-0-2-0"
         inkscape:connector-curvature="0"
         sodipodi:nodetypes="csccsssc" />
      <path
         style="fill:#deccd8;fill-opacity:1;stroke:none;display:inline"
         d="m -358.00093,-548.12213 c 1.57594,0.48834 4.65065,0.16506 6.87592,-0.56346 0.57058,-0.1868 -0.90183,2.73013 -4.06864,2.65708 -3.1668,-0.0731 -4.38323,-2.58195 -2.80728,-2.09362 z"
         id="path6030-7-4-5"
         inkscape:connector-curvature="0"
         sodipodi:nodetypes="zszz" />
      <path
         style="fill:#666666;stroke:none;display:inline"
         d="m -353.49138,-560.33312 c 0,0 1.00387,-1.40496 2.82587,-1.43521 1.8084,0.016 3.00718,0.78723 3.42669,2.34802 0,0 -0.24847,-1.20169 -0.71983,-1.76939 -0.48917,-0.58913 -1.46431,-1.18421 -2.30375,-1.1531 -0.78659,0.0291 -2.11678,0.1232 -2.56984,0.85033 -0.43876,0.7042 -0.65914,1.15935 -0.65914,1.15935 z"
         id="path6961-0-2"
         inkscape:connector-curvature="0"
         sodipodi:nodetypes="cccsssc" />
      <path
         style="fill:#666666;stroke:none;display:inline"
         d="m -361.8372,-559.72912 c 0,0 1.03118,-2.1701 2.85318,-2.20033 1.8084,0.016 2.43333,0.65059 2.85284,2.21137 0,0 -0.3031,-1.36565 -0.77446,-1.93335 -0.48917,-0.58913 -1.32769,-1.04756 -2.16713,-1.01646 -0.7866,0.0291 -1.76155,0.58775 -2.21461,1.31487 -0.43876,0.7042 -0.54982,1.6239 -0.54982,1.6239 z"
         id="path6961-8-5-5-5"
         inkscape:connector-curvature="0"
         sodipodi:nodetypes="cccsssc" />
      <path
         sodipodi:type="arc"
         style="fill:#000000;fill-opacity:1;stroke:none;display:inline"
         id="path7014-8-8-9"
         sodipodi:cx="-453.21429"
         sodipodi:cy="914.96875"
         sodipodi:rx="18.928572"
         sodipodi:ry="14.285714"
         d="m -434.34044,913.88332 c 0.7943,7.86697 -7.01192,14.73038 -17.43566,15.32985 -10.42374,0.59947 -19.51776,-5.29201 -20.31205,-13.15899 -0.79429,-7.86697 7.01192,-14.73038 17.43566,-15.32985 10.26307,-0.59023 19.27006,5.1171 20.27613,12.84807"
         transform="matrix(0.05634516,-1.7765491e-4,1.7765491e-4,0.05634516,-326.32076,-603.69855)"
         sodipodi:start="6.2071318"
         sodipodi:end="12.46847"
         sodipodi:open="true" />
      <path
         sodipodi:type="arc"
         style="fill:#000000;fill-opacity:1;stroke:none;display:inline"
         id="path7016-3-1-2"
         sodipodi:cx="-567.5"
         sodipodi:cy="907.46875"
         sodipodi:rx="18.214285"
         sodipodi:ry="13.928572"
         d="m -549.33837,906.41045 c 0.76432,7.67031 -6.74731,14.36213 -16.7777,14.94661 -10.0304,0.58448 -18.78124,-5.15971 -19.54556,-12.83001 -0.76432,-7.67031 6.74731,-14.36213 16.7777,-14.94661 9.87579,-0.57547 18.5429,4.98917 19.511,12.52687"
         transform="matrix(0.05634516,-1.7765491e-4,1.7765491e-4,0.05634516,-326.32076,-603.69855)"
         sodipodi:start="6.2071318"
         sodipodi:end="12.46847"
         sodipodi:open="true" />
      <g
         style="display:inline"
         id="g3747-5-0"
         transform="matrix(0.05634516,-1.7765491e-4,1.7765491e-4,0.05634516,-579.11893,-586.87961)"
         inkscape:export-filename="/home/alumno/Documentos/plymouth-themes-huayra/huayra_liso/vaca_cabeza-01.png"
         inkscape:export-xdpi="90"
         inkscape:export-ydpi="90">
        <path
           inkscape:connector-curvature="0"
           id="path5156-8-51-1-2"
           d="m 3940.927,505.10211 c 1.516,21.18198 -13.383,39.66183 -33.2779,41.27592 -19.8948,1.61402 -37.2518,-14.24882 -38.7678,-35.43079 -1.516,-21.18198 13.383,-39.66183 33.2779,-41.27593 19.5882,-1.58914 36.7791,13.77787 38.6993,34.59367"
           style="fill:#000000;fill-opacity:1;stroke:none;display:inline" />
        <path
           inkscape:connector-curvature="0"
           id="path5156-8-5-6-8-9"
           d="m 4085.6179,501.7779 c 1.516,21.18199 -13.383,39.66183 -33.2779,41.27592 -19.8948,1.61402 -37.2518,-14.24882 -38.7678,-35.43078 -1.516,-21.18198 13.383,-39.66183 33.2779,-41.27593 19.5882,-1.58914 36.7791,13.77787 38.6993,34.59366"
           style="fill:#000000;fill-opacity:1;stroke:none;display:inline" />
      </g>
      <path
         style="fill:#666666;stroke:none;display:inline"
         d="m -353.72449,-558.91854 c 0,0 1.30445,2.49146 3.1266,2.5102 1.80826,-0.0274 2.97346,-1.34889 3.39679,-2.76201 0,0 -0.26493,1.44934 -0.97863,2.14297 -0.54914,0.53368 -1.53984,0.91946 -2.37946,0.89365 -0.78676,-0.0242 -2.06563,-0.60412 -2.52327,-1.32838 -0.44319,-0.70142 -0.64203,-1.45643 -0.64203,-1.45643 z"
         id="path6961-0-4-9"
         inkscape:connector-curvature="0"
         sodipodi:nodetypes="cccsssc" />
      <path
         style="fill:#666666;stroke:none;display:inline"
         d="m -361.88061,-559.22379 c 0,0 0.9902,2.65542 2.81234,2.67416 1.80826,-0.0274 2.56358,-1.02098 2.97325,-2.58439 0,0 -0.37424,1.23073 -0.84201,1.80139 -0.48544,0.59221 -1.34855,1.02877 -2.18817,1.00296 -0.78676,-0.0242 -1.73772,-0.54947 -2.19536,-1.27373 -0.44319,-0.70142 -0.56005,-1.62039 -0.56005,-1.62039 z"
         id="path6961-8-5-5-0-6"
         inkscape:connector-curvature="0"
         sodipodi:nodetypes="cccsssc" />
      <path
         sodipodi:nodetypes="ccccc"
         inkscape:connector-curvature="0"
         id="path4131-1"
         d="m -353.21605,-544.88973 1.127,13.26113 -5.5928,-0.005 1.80461,-13.15028 z"
         style="fill:#00d4aa;fill-opacity:1;stroke:none" />
      <path
         sodipodi:nodetypes="ccccc"
         inkscape:connector-curvature="0"
         id="path4135-1"
         d="m -353.34327,-545.04499 c 2.50674,-0.0215 5.33805,-2.68908 7.01876,-4.83821 l 0.12934,0.8234 c -2.31559,2.52643 -4.76212,3.72127 -7.08354,4.39483 z"
         style="fill:#00aa88;fill-opacity:1;stroke:none" />
      <path
         sodipodi:nodetypes="ccccc"
         inkscape:connector-curvature="0"
         id="path4135-0-5"
         d="m -355.5608,-544.91125 c -2.57914,-0.005 -5.49248,-2.59157 -7.23538,-4.7299 l -0.1278,0.8242 c 2.39849,2.51158 4.97153,3.56385 7.36418,4.22255 z"
         style="fill:#00aa88;fill-opacity:1;stroke:none" />
      <path
         sodipodi:nodetypes="zccczzzccccczccz"
         inkscape:connector-curvature="0"
         id="path4161-9"
         d="m -368.03732,-575.38564 c -1.78552,-0.14977 -2.85674,1.13464 -2.76175,2.1381 l 0.29578,-0.0153 0.76438,-0.0273 c 0.23677,0.0241 0.0315,-0.7694 1.32868,-0.65267 1.29719,0.11674 1.7389,0.6608 1.3741,3.72732 -0.36479,3.06653 -1.17173,11.1046 -1.54758,14.00971 -0.37586,2.90511 -0.69612,5.35943 -1.73698,5.20363 -1.0485,-0.15697 -1.15272,-0.8886 -1.0336,-2.5752 l 1.79933,-13.36437 -1.29964,-0.3171 -1.6286,12.98008 c -0.12936,1.8316 -0.6635,4.10471 1.94376,4.45596 2.60726,0.35125 2.83412,-3.54686 3.00866,-5.13078 0.39119,-3.60655 1.705,-14.53222 1.90005,-16.8166 0.0613,-1.33711 -0.62108,-3.46569 -2.40659,-3.61546 z"
         style="font-size:medium;font-style:normal;font-variant:normal;font-weight:normal;font-stretch:normal;text-indent:0;text-align:start;text-decoration:none;line-height:normal;letter-spacing:normal;word-spacing:normal;text-transform:none;direction:ltr;block-progression:tb;writing-mode:lr-tb;text-anchor:start;baseline-shift:baseline;color:#000000;fill:#999999;fill-opacity:1;stroke:none;stroke-width:0.40000001;marker:none;visibility:visible;display:inline;overflow:visible;enable-background:accumulate;font-family:Sans;-inkscape-font-specification:Sans" />
      <path
         sodipodi:nodetypes="cccc"
         inkscape:connector-curvature="0"
         id="path3049-4"
         d="m -356.15068,-544.44581 4.09635,13.13923 -1.00477,-13.3711 z"
         style="fill:#00be98;fill-opacity:1;stroke:none" />
      <path
         sodipodi:nodetypes="ccccccc"
         inkscape:connector-curvature="0"
         id="path4129-7"
         d="m -355.53064,-544.99203 2.07126,-0.0472 c 0.77233,0.006 0.56065,0.18693 0.40445,0.74153 l -0.98325,1.68916 c -0.43783,0.84681 -0.70727,0.73435 -1.15553,-0.0265 l -0.75166,-1.54508 c -0.55267,-0.97137 0.0486,-0.7972 0.41473,-0.812 z"
         style="fill:#00aa88;fill-opacity:1;stroke:none" />
      <path
         sodipodi:nodetypes="ccsccsc"
         inkscape:connector-curvature="0"
         id="path3048-1"
         d="m -352.90452,-544.83225 1.4685,3.86448 c 0,0 4.86924,-4.56009 5.48756,-5.79672 0.61832,-1.23663 0.85956,-2.25627 0.85956,-2.25627 l -0.68623,-1.86821 c 0,0 -3.3422,4.04719 -4.50155,4.66551 -1.15934,0.61831 -2.62784,1.39121 -2.62784,1.39121 z"
         style="fill:#e9afaf;stroke:none" />
      <path
         sodipodi:nodetypes="ccsccsc"
         inkscape:connector-curvature="0"
         id="path3048-6-8"
         d="m -355.80288,-544.83225 -1.4685,3.86448 c 0,0 -4.86925,-4.56009 -5.48756,-5.79672 -0.61832,-1.23663 -0.85956,-2.20161 -0.85956,-2.20161 l 0.52227,-1.97752 c 0,0 3.50616,4.10184 4.6655,4.72016 1.15935,0.61831 2.62785,1.39121 2.62785,1.39121 z"
         style="fill:#e9afaf;stroke:none" />
      <path
         inkscape:connector-curvature="0"
         id="path3068-24"
         d="m -361.51549,-560.23105 c 0,0 -0.27326,0.21861 -0.5192,0.1093 -0.24593,-0.1093 -0.27326,-0.27326 0.19128,-0.30058 0.46455,-0.0273 0.54652,-0.19129 0.54652,-0.19129 z"
         style="fill:#28170b;stroke:none" />
      <path
         inkscape:connector-curvature="0"
         id="path3068-5-06"
         d="m -361.13631,-560.75324 c 0,0 -0.31762,0.14689 -0.53026,-0.0181 -0.21265,-0.16496 -0.19996,-0.33069 0.25763,-0.24609 0.45758,0.0846 0.57641,-0.055 0.57641,-0.055 z"
         style="fill:#28170b;stroke:none" />
      <path
         inkscape:connector-curvature="0"
         id="path3068-2-4"
         d="m -360.58232,-561.26552 c 0,0 -0.33153,0.11203 -0.52528,-0.0748 -0.19376,-0.18679 -0.16339,-0.35021 0.28251,-0.21709 0.44588,0.13315 0.57898,0.007 0.57898,0.007 z"
         style="fill:#28170b;stroke:none" />
      <path
         inkscape:connector-curvature="0"
         id="path3068-8-1"
         d="m -360.18282,-561.62855 c 0,0 -0.34671,-0.0474 -0.43692,-0.301 -0.0902,-0.25356 0.01,-0.38633 0.34964,-0.0684 0.33984,0.31789 0.51518,0.26432 0.51518,0.26432 z"
         style="fill:#28170b;stroke:none" />
      <path
         inkscape:connector-curvature="0"
         id="path3068-21-9"
         d="m -361.45558,-558.46379 c 0,0 -0.2444,-0.25046 -0.50188,-0.17213 -0.25748,0.0783 -0.3047,0.2377 0.15299,0.32176 0.45769,0.0841 0.51894,0.25686 0.51894,0.25686 z"
         style="fill:#28170b;stroke:none" />
      <path
         inkscape:connector-curvature="0"
         id="path3068-5-7-06"
         d="m -361.14328,-557.89905 c 0,0 -0.29722,-0.18472 -0.52849,-0.0471 -0.23126,0.13765 -0.23899,0.30368 0.22552,0.27582 0.46451,-0.0279 0.56532,0.12526 0.56532,0.12526 z"
         style="fill:#28170b;stroke:none" />
      <path
         inkscape:connector-curvature="0"
         id="path3068-2-9-6"
         d="m -360.65629,-557.32271 c 0,0 -0.31529,-0.15183 -0.53049,0.01 -0.21519,0.16163 -0.20509,0.32754 0.25377,0.25009 0.45885,-0.0775 0.57547,0.064 0.57547,0.064 z"
         style="fill:#28170b;stroke:none" />
      <path
         inkscape:connector-curvature="0"
         id="path3068-8-4-5"
         d="m -360.3043,-556.91344 c 0,0 -0.34991,0.005 -0.47054,0.24516 -0.12062,0.24059 -0.0376,0.38462 0.33862,0.11075 0.37625,-0.27382 0.5437,-0.19916 0.5437,-0.19916 z"
         style="fill:#28170b;stroke:none" />
      <path
         inkscape:connector-curvature="0"
         id="path3068-0-1"
         d="m -347.55127,-560.15445 c 0,0 0.27326,0.21861 0.51919,0.1093 0.24593,-0.1093 0.27326,-0.27326 -0.19128,-0.30058 -0.46454,-0.0273 -0.54652,-0.19129 -0.54652,-0.19129 z"
         style="fill:#28170b;stroke:none" />
      <path
         inkscape:connector-curvature="0"
         id="path3068-5-0-6"
         d="m -347.93046,-560.67664 c 0,0 0.31762,0.14689 0.53027,-0.0181 0.21264,-0.16496 0.19995,-0.33069 -0.25764,-0.24609 -0.45758,0.0846 -0.57641,-0.055 -0.57641,-0.055 z"
         style="fill:#28170b;stroke:none" />
      <path
         inkscape:connector-curvature="0"
         id="path3068-2-6-0"
         d="m -348.48444,-561.18892 c 0,0 0.33153,0.11203 0.52528,-0.0748 0.19375,-0.18679 0.16338,-0.35021 -0.28251,-0.21709 -0.44589,0.13315 -0.57899,0.007 -0.57899,0.007 z"
         style="fill:#28170b;stroke:none" />
      <path
         inkscape:connector-curvature="0"
         id="path3068-8-6-5"
         d="m -348.88395,-561.55195 c 0,0 0.34671,-0.0474 0.43693,-0.301 0.0902,-0.25356 -0.01,-0.38633 -0.34965,-0.0684 -0.33984,0.31789 -0.51518,0.26432 -0.51518,0.26432 z"
         style="fill:#28170b;stroke:none" />
      <path
         inkscape:connector-curvature="0"
         id="path3068-21-1-4"
         d="m -347.61118,-558.38719 c 0,0 0.24439,-0.25046 0.50187,-0.17213 0.25748,0.0783 0.3047,0.2377 -0.15298,0.32176 -0.45769,0.0841 -0.51895,0.25686 -0.51895,0.25686 z"
         style="fill:#28170b;stroke:none" />
      <path
         inkscape:connector-curvature="0"
         id="path3068-5-7-0-1"
         d="m -347.92348,-557.82245 c 0,0 0.29721,-0.18472 0.52848,-0.0471 0.23127,0.13765 0.23899,0.30368 -0.22552,0.27582 -0.4645,-0.0279 -0.56532,0.12526 -0.56532,0.12526 z"
         style="fill:#28170b;stroke:none" />
      <path
         inkscape:connector-curvature="0"
         id="path3068-2-9-2-0"
         d="m -348.41048,-557.24611 c 0,0 0.31529,-0.15183 0.53049,0.01 0.21519,0.16163 0.20509,0.32754 -0.25377,0.25009 -0.45885,-0.0775 -0.57547,0.064 -0.57547,0.064 z"
         style="fill:#28170b;stroke:none" />
      <path
         inkscape:connector-curvature="0"
         id="path3068-8-4-4-4"
         d="m -348.76246,-556.83684 c 0,0 0.34991,0.005 0.47053,0.24516 0.12063,0.24059 0.0376,0.38462 -0.33862,0.11075 -0.37625,-0.27382 -0.5437,-0.19916 -0.5437,-0.19916 z"
         style="fill:#28170b;stroke:none" />
      <path
         sodipodi:nodetypes="ccccscczc"
         inkscape:connector-curvature="0"
         id="path3172-5"
         d="m -350.99499,-532.68646 c 0.40989,-0.88809 7.84256,-14.53742 7.84256,-14.53742 l 0.71047,0.87443 1.14769,-1.85816 c 0,0 1.59154,0.91033 1.64619,2.16732 0.0546,1.257 -0.6078,2.36879 -0.6078,2.36879 l -8.44372,12.10541 c 0,0 -0.92987,-0.0639 -1.32531,-0.2596 -0.39545,-0.19572 -0.97008,-0.86077 -0.97008,-0.86077 z"
         style="fill:#ffeeaa;stroke:none" />
      <path
         sodipodi:nodetypes="ccccc"
         inkscape:connector-curvature="0"
         id="path3176-2"
         d="m -343.23248,-547.19333 0.81154,0.81154 -8.0866,14.0649 -0.39971,-0.41377 z"
         style="fill:#d3bc5f;stroke:none" />
      <path
         sodipodi:nodetypes="ccccscc"
         inkscape:connector-curvature="0"
         id="path3174-3"
         d="m -346.79536,-540.5177 c 0.60667,-0.24123 1.2785,-0.53713 2.24736,0.19323 0.50513,0.57579 0.52114,1.95421 0.52114,1.95421 l -1.09304,1.58491 c 0,0 0.39895,-1.48854 -0.71436,-2.0834 -1.26576,-0.67632 -2.12754,0.6078 -2.12754,0.6078 z"
         style="fill:#ff2a2a;stroke:none" />
      <path
         sodipodi:nodetypes="cscszzsszssssc"
         inkscape:connector-curvature="0"
         id="path3180-7"
         d="m -368.21036,-575.17837 c 0,0 -0.25132,-0.0142 -0.6285,0.13664 -0.27326,0.1093 -0.54652,0.38256 -0.0273,0.35523 0.5192,-0.0273 1.58491,-0.0547 1.94015,0.57384 0.35524,0.6285 0.63423,-0.56246 0.27326,3.22447 -0.36097,3.78693 -2.04353,18.36946 -2.36273,19.03432 -0.3192,0.66486 -2.44444,2.45527 -2.52475,-1.31841 -0.0803,-3.77368 1.8843,-13.11146 1.70668,-13.37105 -0.35524,-0.51919 -0.51602,-0.53202 -0.54652,0.58905 -0.0305,1.12107 -1.40323,8.74218 -1.61729,12.72059 -0.14773,2.74564 2.0245,3.12692 2.44805,2.78534 0.84711,-0.68315 1.53026,-2.75992 1.80352,-6.14835 0.27326,-3.38842 1.96747,-16.06768 1.61223,-17.02409 -0.35524,-0.9564 -2.07677,-1.55758 -2.07677,-1.55758 z"
         style="fill:#f2f2f2;stroke:none" />
      <path
         inkscape:connector-curvature="0"
         id="path3182-2"
         d="m -344.92862,-536.64872 -3.44307,-2.45934 -0.38257,2.18608 -1.74886,0.16395 0.81978,1.31165 -1.58491,0 3.66169,2.95121 c 0,0 0.76512,0.49187 1.96747,-0.98374 1.20234,-1.4756 0.92908,-3.11516 0.71047,-3.16981 z"
         style="fill:#000000;stroke:none" />
    </g>
  </g>
</svg>
