<?xml version="1.0" encoding="UTF-8" standalone="no"?>
<!-- Created with Inkscape (http://www.inkscape.org/) -->

<svg
   xmlns:dc="http://purl.org/dc/elements/1.1/"
   xmlns:cc="http://creativecommons.org/ns#"
   xmlns:rdf="http://www.w3.org/1999/02/22-rdf-syntax-ns#"
   xmlns:svg="http://www.w3.org/2000/svg"
   xmlns="http://www.w3.org/2000/svg"
   xmlns:sodipodi="http://sodipodi.sourceforge.net/DTD/sodipodi-0.dtd"
   xmlns:inkscape="http://www.inkscape.org/namespaces/inkscape"
   id="svg7384"
   version="1.1"
   height="16.001099"
   width="16"
   sodipodi:docname="preferences-desktop-display-symbolic.svg"
   inkscape:version="0.92.1 r15371">
  <sodipodi:namedview
     pagecolor="#ffffff"
     bordercolor="#666666"
     borderopacity="1"
     objecttolerance="10"
     gridtolerance="10"
     guidetolerance="10"
     inkscape:pageopacity="0"
     inkscape:pageshadow="2"
     inkscape:window-width="1918"
     inkscape:window-height="1023"
     id="namedview17"
     showgrid="false"
     inkscape:zoom="14.748987"
     inkscape:cx="-7.0518809"
     inkscape:cy="8.0005493"
     inkscape:window-x="0"
     inkscape:window-y="26"
     inkscape:window-maximized="1"
     inkscape:current-layer="svg7384" />
  <title
     id="title9167">Gnome Symbolic Icon Theme</title>
  <metadata
     id="metadata90">
    <rdf:RDF>
      <cc:Work
         rdf:about="">
        <dc:format>image/svg+xml</dc:format>
        <dc:type
           rdf:resource="http://purl.org/dc/dcmitype/StillImage" />
        <dc:title>Gnome Symbolic Icon Theme</dc:title>
      </cc:Work>
    </rdf:RDF>
  </metadata>
  <defs
     id="defs7386" />
  <g
     transform="translate(-102,-381)"
     id="layer9"
     style="display:inline" />
  <g
     transform="translate(-102,-381)"
     id="layer10" />
  <g
     transform="translate(-102,-381)"
     id="layer11"
     style="fill:#822b86;fill-opacity:1">
    <g
       transform="translate(54,-17)"
       id="g11722"
       style="fill:#822b86;fill-opacity:1" />
    <path
       inkscape:connector-curvature="0"
       d="M 104.1875,381 C 102.98591,381 102,381.98758 102,383.1875 l 0,8.625 c 0,1.19992 0.98591,2.1875 2.1875,2.1875 l 11.625,0 c 1.20159,0 2.1875,-0.98758 2.1875,-2.1875 l 0,-8.625 C 118,381.98758 117.01409,381 115.8125,381 l -11.625,0 z m 0,2 11.625,0 c 0.1238,0 0.1875,0.0566 0.1875,0.1875 l 0,8.625 c 0,0.13089 -0.0637,0.1875 -0.1875,0.1875 l -11.625,0 C 104.0637,392 104,391.94339 104,391.8125 l 0,-8.625 C 104,383.05661 104.0637,383 104.1875,383 z"
       id="rect11749"
       style="font-size:medium;font-style:normal;font-variant:normal;font-weight:normal;font-stretch:normal;text-indent:0;text-align:start;text-decoration:none;line-height:normal;letter-spacing:normal;word-spacing:normal;text-transform:none;direction:ltr;block-progression:tb;writing-mode:lr-tb;text-anchor:start;color:#bebebe;fill:#822b86;fill-opacity:1;stroke:none;stroke-width:1.99999988;marker:none;visibility:visible;display:inline;overflow:visible;enable-background:accumulate;font-family:Sans;-inkscape-font-specification:Sans" />
    <path
       inkscape:connector-curvature="0"
       d="M 106.90625,395 A 1.001098,1.001098 0 1 0 107,397 l 6,0 a 1.0001,1.0001 0 1 0 0,-2 l -6,0 a 1.0001,1.0001 0 0 0 -0.0937,0 z"
       id="path11751"
       style="font-size:medium;font-style:normal;font-variant:normal;font-weight:normal;font-stretch:normal;text-indent:0;text-align:start;text-decoration:none;line-height:normal;letter-spacing:normal;word-spacing:normal;text-transform:none;direction:ltr;block-progression:tb;writing-mode:lr-tb;text-anchor:start;color:#bebebe;fill:#822b86;fill-opacity:1;stroke:none;stroke-width:2;marker:none;visibility:visible;display:inline;overflow:visible;enable-background:accumulate;font-family:Sans;-inkscape-font-specification:Sans" />
    <path
       inkscape:connector-curvature="0"
       d="m 103.97422,382.00574 -0.98677,11.02719 14.0455,-0.048 z m 1.03153,3.99621 5.09022,3.99805 -5.07349,0.0313 z"
       id="path11753"
       style="color:#bebebe;fill:#822b86;fill-opacity:1;stroke:none;stroke-width:2;marker:none;visibility:visible;display:inline;overflow:visible;enable-background:accumulate" />
  </g>
  <g
     transform="translate(-102,-381)"
     id="layer12" />
  <g
     transform="translate(-102,-381)"
     id="layer13" />
  <g
     transform="translate(-102,-381)"
     id="layer14" />
  <g
     transform="translate(-102,-381)"
     id="layer15" />
</svg>
