<?xml version="1.0" encoding="UTF-8"?>
<!DOCTYPE svg PUBLIC "-//W3C//DTD SVG 1.1//EN" "http://www.w3.org/Graphics/SVG/1.1/DTD/svg11.dtd">
<!-- Creator: CorelDRAW -->
<svg xmlns="http://www.w3.org/2000/svg" xml:space="preserve" width="300px" height="300px" style="shape-rendering:geometricPrecision; text-rendering:geometricPrecision; image-rendering:optimizeQuality; fill-rule:evenodd; clip-rule:evenodd"
viewBox="0 0 300 300"
 xmlns:xlink="http://www.w3.org/1999/xlink">
 <defs>
  <style type="text/css">
   <![CDATA[
    .fil1 {fill:#3E6E49}
    .fil0 {fill:#564261}
   ]]>
  </style>
 </defs>
 <g id="Capa_x0020_1">
  <metadata id="CorelCorpID_0Corel-Layer"/>
  <path class="fil0" d="M165.121 59.8475c15.3871,0 29.732,5.15027 29.7694,30.0947 31.2933,0 24.2482,0 57.5761,0 18.6869,0 33.7501,15.0093 33.7501,33.6851l0.0968876 70.1065c0.0221457,18.6758 -15.0093,33.739 -33.6961,33.7612l-196.86 0.242219c-18.6702,0 -33.7183,-15.0148 -33.7335,-33.6906l-0.135643 -107.862c-0.0166093,-18.6758 4.00146,-26.0019 24.3769,-26.1154 20.3658,-0.204848 83.5019,-0.701743 118.856,-0.221457z"/>
  <path class="fil1" d="M172.911 49.0002c13.9407,-0.275438 26.3216,8.48735 28.114,30.0407 16.4557,0 33.5979,0.189623 56.9865,0.189623 23.4108,0 20.781,14.583 20.781,14.583 0,-0.00553643 -0.0207616,-58.5907 -0.0207616,-64.6919 -0.0166093,-6.06378 -2.30592,-17.0176 -18.2661,-16.8723 -15.9588,0.184086 -45.4057,0.388935 -55.1996,0.426305 -9.82717,0 -12.3961,11.3109 -12.3961,11.3109 0,0 -137.326,0.578557 -155.365,0.578557 -18.0156,-0.00553643 -15.9269,11.6999 -15.5643,37.663 0.0207616,2.41942 3.52532,-12.1635 13.275,-12.3476 9.75658,-0.188239 91.7899,-0.204848 137.655,-0.880293z"/>
  <rect class="fil1" x="43.4465" y="266.362" width="220.366" height="12.5565" rx="8.34617" ry="8.34617"/>
  <rect class="fil1" transform="matrix(2.38358E-014 -0.934076 0.752229 2.0677E-014 144.213 275.848)" width="46.7386" height="16.6923" rx="8.34617" ry="8.34617"/>
  <path class="fil0" d="M168.119 272.542c0,9.61263 -8.12887,17.4079 -18.1526,17.4079 -10.0196,0 -18.1484,-7.79392 -18.1484,-17.4079 0,-9.61125 8.12887,-17.3996 18.1484,-17.3996 10.0237,0 18.1526,7.78838 18.1526,17.3996z"/>
 </g>
</svg>
