<?xml version="1.0" encoding="UTF-8" standalone="no"?>
<!-- Created with Inkscape (http://www.inkscape.org/) -->

<svg
   xmlns:dc="http://purl.org/dc/elements/1.1/"
   xmlns:cc="http://creativecommons.org/ns#"
   xmlns:rdf="http://www.w3.org/1999/02/22-rdf-syntax-ns#"
   xmlns:svg="http://www.w3.org/2000/svg"
   xmlns="http://www.w3.org/2000/svg"
   version="1.1"
   width="16"
   height="16"
   id="svg2"
   xml:space="preserve"
   style="fill-rule:evenodd"><metadata
   id="metadata20"><rdf:RDF><cc:Work
       rdf:about=""><dc:format>image/svg+xml</dc:format><dc:type
         rdf:resource="http://purl.org/dc/dcmitype/StillImage" /><dc:title></dc:title></cc:Work></rdf:RDF></metadata>
 <defs
   id="defs4">
  <style
   type="text/css"
   id="style6" />
 
  
  
  
  
  
 </defs>
 
<g
   transform="matrix(0.87185404,0,0,0.87185404,1.1533136,1.128146)"
   id="g3780"
   style="fill:#bebebe;fill-opacity:1"><path
     d="M 4,2.4012311 C 2.9680388,2.7381575 1,4.8130771 1,8 1,11.866325 4.1083387,15 7.9375,15 11.768902,15 14.875,11.866325 14.875,8 14.875,4.8592193 13,3 12,2.3832092 11,1.7664184 10.37065,3.4206086 10.763642,3.8047629 11.156634,4.1889172 13,5.9441856 13,8 13,10.762021 10.768324,13 8.03125,13 5.2957777,13 3.09375,10.762021 3.09375,8 3.09375,5.9708461 4.1420453,4.391884 5,4 5.8579546,3.608116 5.0319612,2.0643046 4,2.4012311 z"
     id="path10"
     style="fill:#bebebe;fill-opacity:1;fill-rule:nonzero" /><rect
     width="2"
     height="7"
     ry="0.73900861"
     x="7"
     y="1"
     id="rect3778"
     style="fill:#bebebe;fill-opacity:1;stroke:none" /></g></svg>