<?xml version="1.0" encoding="UTF-8" standalone="no"?>
<!-- Created with Inkscape (http://www.inkscape.org/) -->

<svg
   xmlns:dc="http://purl.org/dc/elements/1.1/"
   xmlns:cc="http://creativecommons.org/ns#"
   xmlns:rdf="http://www.w3.org/1999/02/22-rdf-syntax-ns#"
   xmlns:svg="http://www.w3.org/2000/svg"
   xmlns="http://www.w3.org/2000/svg"
   xmlns:sodipodi="http://sodipodi.sourceforge.net/DTD/sodipodi-0.dtd"
   xmlns:inkscape="http://www.inkscape.org/namespaces/inkscape"
   id="svg7384"
   sodipodi:docname="network-cellular-4g-symbolic.svg"
   version="1.1"
   inkscape:version="0.48.3.1 r9886"
   height="16"
   width="16">
  <metadata
     id="metadata90">
    <rdf:RDF>
      <cc:Work
         rdf:about="">
        <dc:format>image/svg+xml</dc:format>
        <dc:type
           rdf:resource="http://purl.org/dc/dcmitype/StillImage" />
        <dc:title>Gnome Symbolic Icon Theme</dc:title>
      </cc:Work>
    </rdf:RDF>
  </metadata>
  <sodipodi:namedview
     inkscape:cy="6.9023532"
     pagecolor="#ffffff"
     borderopacity="1"
     showborder="true"
     inkscape:bbox-paths="false"
     guidetolerance="10"
     inkscape:object-paths="true"
     inkscape:window-width="1296"
     showguides="true"
     inkscape:object-nodes="true"
     inkscape:snap-bbox="false"
     inkscape:pageshadow="2"
     inkscape:guide-bbox="true"
     inkscape:snap-nodes="true"
     bordercolor="#666666"
     objecttolerance="10"
     id="namedview88"
     showgrid="true"
     inkscape:window-maximized="0"
     inkscape:window-x="138"
     inkscape:snap-global="true"
     inkscape:window-y="26"
     gridtolerance="10"
     inkscape:window-height="849"
     inkscape:snap-to-guides="true"
     inkscape:current-layer="layer9"
     inkscape:snap-bbox-midpoints="false"
     inkscape:zoom="32"
     inkscape:cx="6.4965939"
     inkscape:snap-grids="true"
     inkscape:pageopacity="0"
     borderlayer="true">
    <inkscape:grid
       spacingx="1px"
       spacingy="1px"
       id="grid4866"
       empspacing="2"
       enabled="true"
       type="xygrid"
       snapvisiblegridlinesonly="true"
       visible="true" />
  </sodipodi:namedview>
  <title
     id="title9167">Gnome Symbolic Icon Theme</title>
  <defs
     id="defs7386" />
  <g
     inkscape:label="status"
     transform="translate(-101.0002,-237)"
     inkscape:groupmode="layer"
     id="layer9"
     style="display:inline">
    <path
       inkscape:connector-curvature="0"
       d="m 104.5471,239.00914 c -0.86305,0 -1.54688,0.68383 -1.54688,1.54687 l 0,8.90625 c 0,0.86305 0.68383,1.54688 1.54688,1.54688 l 8.90625,0 c 0.86304,0 1.54687,-0.68383 1.54687,-1.54688 l 0,-8.90625 c 0,-0.86304 -0.68383,-1.54687 -1.54687,-1.54687 z m -0.0469,2.25 1.5,0 0,3 0.75,0 0,-0.75 1.5,0 0,5.25 -1.5,0 0,-3 -0.75,0 c -0.75,0 -1.5,-0.63125 -1.5,-1.5 z m 6.04688,0.0234 1.38281,0 0.0469,0 c 0.002,-8e-5 -0.002,0.0236 0,0.0234 0.39549,-0.0153 0.80441,0.057 1.125,0.35156 0.31106,0.28584 0.44508,0.75563 0.42188,1.19532 l 0.0234,0 0,0.0937 0,0.5625 -1.5,0 0,-0.65625 0,-0.0469 0,-0.0234 c -0.0132,-0.002 0.002,-0.002 -0.0234,0 l -0.0234,0 -0.0234,0 -1.42969,0 c -0.0207,0 -0.0166,0.001 -0.0234,0 -0.005,0.003 -0.0219,-0.002 -0.0234,0 -0.005,0.0168 0.005,0.0349 0,0.0469 l 0,0.0234 0,4.35937 c -0.0178,-0.0163 0,0.0469 0,0.0469 l 1.47656,0 c 0.005,-0.0145 0.022,-0.012 0.0234,0 6.6e-4,0.006 0,-0.0416 0,-0.0234 l 0,-1.45312 -0.75,0 0,-1.5 1.5,0 0.75,0 0,0.75 0,2.20312 c 0,0.42198 -0.17031,0.74964 -0.42187,1.03125 -0.23694,0.26523 -0.63894,0.47401 -1.10156,0.46875 l 0,0.0234 -0.0703,0 -1.40625,0 c -0.4686,0 -0.7456,-0.18093 -1.00781,-0.42188 -0.24829,-0.22816 -0.48294,-0.5924 -0.46875,-1.07812 4e-5,-0.002 -0.0236,0.001 -0.0234,0 l 0,-0.0703 0,-4.35938 0,-0.0703 0,-0.0469 c 0.0469,-0.32796 0.15402,-0.66683 0.42187,-0.96093 0.26787,-0.2941 0.70956,-0.46875 1.125,-0.46875 z"
       id="path1245"
       sodipodi:nodetypes="ssssssssscccccccccsscscccccccccccccccscccccccccccccccsccccsscccccccs"
       style="color:#bebebe;fill:#808080;fill-opacity:1;stroke:none;stroke-width:2;marker:none;visibility:visible;display:inline;overflow:visible" />
  </g>
  <g
     inkscape:label="devices"
     transform="translate(-101.0002,-237)"
     inkscape:groupmode="layer"
     id="layer10" />
  <g
     inkscape:label="apps"
     transform="translate(-101.0002,-237)"
     inkscape:groupmode="layer"
     id="layer11" />
  <g
     inkscape:label="actions"
     transform="translate(-101.0002,-237)"
     inkscape:groupmode="layer"
     id="layer12" />
  <g
     inkscape:label="places"
     transform="translate(-101.0002,-237)"
     inkscape:groupmode="layer"
     id="layer13" />
  <g
     inkscape:label="mimetypes"
     transform="translate(-101.0002,-237)"
     inkscape:groupmode="layer"
     id="layer14" />
  <g
     inkscape:label="emblems"
     transform="translate(-101.0002,-237)"
     inkscape:groupmode="layer"
     id="layer15"
     style="display:inline" />
  <g
     inkscape:label="categories"
     transform="translate(-101.0002,-237)"
     inkscape:groupmode="layer"
     id="g4953"
     style="display:inline" />
</svg>
