<?xml version="1.0" encoding="UTF-8" standalone="no"?>
<!-- Created with Inkscape (http://www.inkscape.org/) -->

<svg
   xmlns:dc="http://purl.org/dc/elements/1.1/"
   xmlns:cc="http://creativecommons.org/ns#"
   xmlns:rdf="http://www.w3.org/1999/02/22-rdf-syntax-ns#"
   xmlns:svg="http://www.w3.org/2000/svg"
   xmlns="http://www.w3.org/2000/svg"
   xmlns:sodipodi="http://sodipodi.sourceforge.net/DTD/sodipodi-0.dtd"
   xmlns:inkscape="http://www.inkscape.org/namespaces/inkscape"
   width="256"
   height="256"
   id="svg2"
   version="1.1"
   inkscape:version="0.48.2 r9819"
   sodipodi:docname="folder.svg">
  <defs
     id="defs4">
    <inkscape:perspective
       sodipodi:type="inkscape:persp3d"
       inkscape:vp_x="0 : 526.18109 : 1"
       inkscape:vp_y="0 : 1000 : 0"
       inkscape:vp_z="744.09448 : 526.18109 : 1"
       inkscape:persp3d-origin="372.04724 : 350.78739 : 1"
       id="perspective4095" />
  </defs>
  <sodipodi:namedview
     id="base"
     pagecolor="#ffffff"
     bordercolor="#666666"
     borderopacity="1.0"
     inkscape:pageopacity="0.0"
     inkscape:pageshadow="2"
     inkscape:zoom="1.2484714"
     inkscape:cx="70.716408"
     inkscape:cy="119.63703"
     inkscape:document-units="px"
     inkscape:current-layer="layer1"
     showgrid="false"
     showguides="true"
     inkscape:guide-bbox="true"
     inkscape:window-width="1680"
     inkscape:window-height="953"
     inkscape:window-x="0"
     inkscape:window-y="31"
     inkscape:window-maximized="1" />
  <metadata
     id="metadata7">
    <rdf:RDF>
      <cc:Work
         rdf:about="">
        <dc:format>image/svg+xml</dc:format>
        <dc:type
           rdf:resource="http://purl.org/dc/dcmitype/StillImage" />
        <dc:title></dc:title>
      </cc:Work>
    </rdf:RDF>
  </metadata>
  <g
     inkscape:label="Layer 1"
     inkscape:groupmode="layer"
     id="layer1"
     transform="translate(0,-796.3622)">
    <path
       style="fill:#614868;fill-opacity:1;stroke:none"
       d="M 110.84375 78.40625 C 79.574652 78.354778 42.984196 78.648432 28.78125 78.78125 C 9.8439856 78.89459 6.104634 85.69874 6.125 103.0625 L 6.25 203.375 C 6.2704274 220.73866 20.260506 234.6875 37.625 234.6875 L 220.65625 234.46875 C 238.02073 234.44745 251.99005 220.45751 251.96875 203.09375 L 251.90625 137.875 C 251.88584 120.51125 237.89576 106.59375 220.53125 106.59375 L 166.96875 106.59375 C 166.94146 83.38776 153.615 78.57605 139.3125 78.59375 C 131.09351 78.478637 121.26678 78.423407 110.84375 78.40625 z M 179.875 122.5625 C 186.33552 122.58987 189.82022 147.75739 195.03125 151.9375 C 200.24428 156.11921 223.12031 152.04476 225.09375 158.78125 C 227.06641 165.51503 206.33425 176.8149 204.3125 183.53125 C 202.2899 190.25023 212.77471 212.989 207.53125 217.125 C 202.28987 221.2594 186.14803 202.99675 179.6875 202.96875 C 173.22445 202.93948 156.83906 220.8677 151.625 216.6875 C 146.413 212.5087 157.03354 190.04689 155.0625 183.3125 C 153.09068 176.5755 132.44778 165.06331 134.46875 158.34375 C 136.48896 151.62674 159.2889 155.85164 164.53125 151.71875 C 169.77567 147.58427 173.41195 122.5342 179.875 122.5625 z "
       transform="translate(0,796.3622)"
       id="rect2995" />
    <path
       style="fill:#4b7744;fill-opacity:1;stroke:none"
       d="m 146.52833,864.87609 c 12.97797,-0.26563 24.49128,7.88408 26.13988,27.91838 15.28963,0 31.25133,0.17709 53.01087,0.17709 21.75955,0 19.31029,13.55807 19.31029,13.55807 0,0 -0.0195,-54.482 -0.0265,-60.13474 -0.007,-5.65274 -2.14009,-15.83547 -16.97977,-15.69911 -14.83967,0.17709 -42.20801,0.37189 -51.32854,0.3896 -9.12056,0.0177 -11.50069,10.52628 -11.50069,10.52628 0,0 -127.715858,0.53127 -144.473859,0.53127 -16.7580033,0 -14.797503,10.88401 -14.4840647,35.02504 0.029043,2.23842 3.3026188,-11.30194 12.3651507,-11.48258 9.062533,-0.17709 85.339243,-0.19479 127.967293,-0.81461 z"
       id="path3769"
       inkscape:connector-curvature="0"
       sodipodi:nodetypes="cczcczzczszcc" />
  </g>
</svg>
