<?xml version="1.0" encoding="UTF-8" standalone="no"?>
<!-- Created with Inkscape (http://www.inkscape.org/) -->

<svg
   xmlns:dc="http://purl.org/dc/elements/1.1/"
   xmlns:cc="http://creativecommons.org/ns#"
   xmlns:rdf="http://www.w3.org/1999/02/22-rdf-syntax-ns#"
   xmlns:svg="http://www.w3.org/2000/svg"
   xmlns="http://www.w3.org/2000/svg"
   xmlns:sodipodi="http://sodipodi.sourceforge.net/DTD/sodipodi-0.dtd"
   xmlns:inkscape="http://www.inkscape.org/namespaces/inkscape"
   width="256"
   height="256"
   id="svg4374"
   version="1.1"
   inkscape:version="0.48.3.1 r9886"
   sodipodi:docname="edit-select-all.svg">
  <defs
     id="defs4376" />
  <sodipodi:namedview
     id="base"
     pagecolor="#ffffff"
     bordercolor="#666666"
     borderopacity="1.0"
     inkscape:pageopacity="0.0"
     inkscape:pageshadow="2"
     inkscape:zoom="1.2108704"
     inkscape:cx="237.3065"
     inkscape:cy="105.85598"
     inkscape:document-units="px"
     inkscape:current-layer="layer1"
     showgrid="false"
     inkscape:window-width="1193"
     inkscape:window-height="941"
     inkscape:window-x="695"
     inkscape:window-y="64"
     inkscape:window-maximized="0" />
  <metadata
     id="metadata4379">
    <rdf:RDF>
      <cc:Work
         rdf:about="">
        <dc:format>image/svg+xml</dc:format>
        <dc:type
           rdf:resource="http://purl.org/dc/dcmitype/StillImage" />
        <dc:title></dc:title>
      </cc:Work>
    </rdf:RDF>
  </metadata>
  <g
     inkscape:label="Capa 1"
     inkscape:groupmode="layer"
     id="layer1"
     transform="translate(0,-796.36218)">
    <path
       style="fill:#4ecae9;fill-opacity:1;stroke:none"
       d="m 54.90625,846.23528 0,151.22065 123.00409,0.29198 24.05746,-29.19669 7.95897,6.24327 0.29198,-128.55921 z m 94.6875,9.64296 c 0,0 -4.59647,26.8844 0.78125,34.58821 14.09177,20.18709 23.13946,36.04422 18.71875,53.74767 -1.04016,4.16547 -10.7998,14.72079 -18.3125,22.38432 0,0 -28.13328,-20.57094 -33.34375,-35.69477 -5.20956,-15.12129 -6.26227,-53.43545 32.15625,-75.02543 z m 24.5,92.79377 20.49715,14.14553 -22.88668,28.44351 L 154.5,970.55048 z"
       id="rect3882"
       inkscape:connector-curvature="0"
       sodipodi:nodetypes="ccccccccsscscccccc" />
    <path
       style="fill:#ee9960;fill-opacity:1;stroke:none"
       d="m 18.9946,16.502866 0,221.328384 184.16504,0 -25.60142,-36.33749 -122.226124,0 0,-151.130954 151.750334,0.206463 0.61939,126.148921 38.40213,29.73068 0,-189.120152 z"
       id="path3937"
       inkscape:connector-curvature="0"
       transform="translate(0,796.36218)"
       sodipodi:nodetypes="ccccccccccc" />
  </g>
</svg>
