<?xml version="1.0" encoding="UTF-8" standalone="no"?>
<!-- Created with Inkscape (http://www.inkscape.org/) -->

<svg
   xmlns:dc="http://purl.org/dc/elements/1.1/"
   xmlns:cc="http://creativecommons.org/ns#"
   xmlns:rdf="http://www.w3.org/1999/02/22-rdf-syntax-ns#"
   xmlns:svg="http://www.w3.org/2000/svg"
   xmlns="http://www.w3.org/2000/svg"
   xmlns:sodipodi="http://sodipodi.sourceforge.net/DTD/sodipodi-0.dtd"
   xmlns:inkscape="http://www.inkscape.org/namespaces/inkscape"
   width="256"
   height="256"
   id="svg4374"
   version="1.1"
   inkscape:version="0.48.3.1 r9886"
   sodipodi:docname="edit-clone.svg">
  <defs
     id="defs4376" />
  <sodipodi:namedview
     id="base"
     pagecolor="#ffffff"
     bordercolor="#666666"
     borderopacity="1.0"
     inkscape:pageopacity="0.0"
     inkscape:pageshadow="2"
     inkscape:zoom="3.4248588"
     inkscape:cx="65.153409"
     inkscape:cy="156.25564"
     inkscape:document-units="px"
     inkscape:current-layer="layer1"
     showgrid="false"
     inkscape:window-width="1913"
     inkscape:window-height="1026"
     inkscape:window-x="0"
     inkscape:window-y="26"
     inkscape:window-maximized="1" />
  <metadata
     id="metadata4379">
    <rdf:RDF>
      <cc:Work
         rdf:about="">
        <dc:format>image/svg+xml</dc:format>
        <dc:type
           rdf:resource="http://purl.org/dc/dcmitype/StillImage" />
        <dc:title></dc:title>
      </cc:Work>
    </rdf:RDF>
  </metadata>
  <g
     inkscape:label="Capa 1"
     inkscape:groupmode="layer"
     id="layer1"
     transform="translate(0,-796.36218)">
    <path
       style="fill:#4ecae9;fill-opacity:1;stroke:none"
       d="m 89.28125,87.375 0,143.65625 c 48.15124,0.011 96.31766,0.0292 144.46875,-0.0937 L 233.375,87.375 z m 97.3125,24.98992 c 14.30598,-0.345 20.13574,9.92517 19.84375,21.3125 -0.18255,7.11949 -0.18775,33.39718 -0.15625,36.47883 l 6,0 0,40 -51.40625,0 0,-40 6.15625,0 c -0.008,-1.20039 -0.0871,-30.0267 -0.3125,-38.82258 -0.24564,-9.58513 7.01969,-18.65873 19.875,-18.96875 z m 0,10.8125 c -11.83415,-0.17432 -10.45467,7.60004 -9.96875,46.97883 l 19.96875,0 c -0.12178,-46.21148 1.02749,-46.8164 -10,-46.97883 z"
       transform="translate(0,796.36218)"
       id="path41071"
       inkscape:connector-curvature="0"
       sodipodi:nodetypes="cccccssccccccsssccs" />
    <path
       style="fill:#19a8cc;fill-opacity:1;stroke:none"
       sodipodi:nodetypes="cccccccc"
       id="path41077"
       d="m 19.115204,818.63109 0,117.04733 59.179055,0.9218 0,-62.7383 73.167321,0 -0.76217,-55.22936 -131.584279,0 z"
       inkscape:connector-curvature="0" />
    <rect
       style="fill:#4ecae9;fill-opacity:1;stroke:none"
       id="rect4050"
       width="24.775566"
       height="35.408413"
       x="159.38947"
       y="931.06512" />
  </g>
</svg>
