<?xml version="1.0" encoding="UTF-8" standalone="no"?>
<!-- Created with Inkscape (http://www.inkscape.org/) -->

<svg
   xmlns:dc="http://purl.org/dc/elements/1.1/"
   xmlns:cc="http://creativecommons.org/ns#"
   xmlns:rdf="http://www.w3.org/1999/02/22-rdf-syntax-ns#"
   xmlns:svg="http://www.w3.org/2000/svg"
   xmlns="http://www.w3.org/2000/svg"
   xmlns:sodipodi="http://sodipodi.sourceforge.net/DTD/sodipodi-0.dtd"
   xmlns:inkscape="http://www.inkscape.org/namespaces/inkscape"
   width="256"
   height="256"
   id="svg4374"
   version="1.1"
   inkscape:version="0.48.3.1 r9886"
   sodipodi:docname="edit-delete.svg">
  <defs
     id="defs4376" />
  <sodipodi:namedview
     id="base"
     pagecolor="#ffffff"
     bordercolor="#666666"
     borderopacity="1.0"
     inkscape:pageopacity="0.0"
     inkscape:pageshadow="2"
     inkscape:zoom="1.2253893"
     inkscape:cx="-7.537275"
     inkscape:cy="19.263161"
     inkscape:document-units="px"
     inkscape:current-layer="layer1"
     showgrid="false"
     inkscape:window-width="1914"
     inkscape:window-height="1031"
     inkscape:window-x="0"
     inkscape:window-y="25"
     inkscape:window-maximized="1" />
  <metadata
     id="metadata4379">
    <rdf:RDF>
      <cc:Work
         rdf:about="">
        <dc:format>image/svg+xml</dc:format>
        <dc:type
           rdf:resource="http://purl.org/dc/dcmitype/StillImage" />
        <dc:title />
      </cc:Work>
    </rdf:RDF>
  </metadata>
  <g
     inkscape:label="Capa 1"
     inkscape:groupmode="layer"
     id="layer1"
     transform="translate(0,-796.36218)">
    <g
       transform="matrix(17.801452,0,0,17.801452,-727.45716,-8437.6302)"
       id="layer9"
       style="fill:#666666;fill-opacity:1;display:inline" />
    <g
       style="fill:#666666;fill-opacity:1"
       transform="matrix(17.801452,0,0,17.801452,-727.45716,-8437.6302)"
       id="layer10" />
    <g
       style="fill:#666666;fill-opacity:1"
       transform="matrix(17.801452,0,0,17.801452,-727.45716,-8437.6302)"
       id="layer11" />
    <g
       style="fill:#ff7373;fill-opacity:1"
       transform="matrix(17.801452,0,0,17.801452,-727.45716,-8437.6302)"
       id="layer12">
      <path
         inkscape:connector-curvature="0"
         d="m 48,519.03125 c -3.85327,0 -6.96875,3.11547 -6.96875,6.96875 0,3.85327 3.11548,6.96875 6.96875,6.96875 3.85327,0 6.96875,-3.11548 6.96875,-6.96875 0,-3.85328 -3.11548,-6.96875 -6.96875,-6.96875 z M 46.71875,523.3125 48,524.59375 49.3125,523.3125 c 1.060219,-0.90519 2.183547,0.65249 1.4375,1.4375 l -1.28125,1.28125 1.25,1.25 c 0.895409,0.94887 -0.580311,2.26559 -1.4375,1.4375 L 48,527.4375 l -1.28125,1.28125 c -1.062296,0.97653 -2.265629,-0.58041 -1.4375,-1.4375 l 1.28125,-1.25 -1.28125,-1.28125 c -0.932482,-1.17993 0.526094,-2.27448 1.4375,-1.4375 z"
         id="path10839"
         style="font-size:medium;font-style:normal;font-variant:normal;font-weight:normal;font-stretch:normal;text-indent:0;text-align:start;text-decoration:none;line-height:normal;letter-spacing:normal;word-spacing:normal;text-transform:none;direction:ltr;block-progression:tb;writing-mode:lr-tb;text-anchor:start;color:#bebebe;fill:#ff7373;fill-opacity:1;fill-rule:nonzero;stroke:none;stroke-width:1.78124988000000006;marker:none;visibility:visible;display:inline;overflow:visible;enable-background:new;font-family:Andale Mono;-inkscape-font-specification:Andale Mono"
         sodipodi:nodetypes="sssssccccccccccccc" />
    </g>
    <g
       style="fill:#666666;fill-opacity:1"
       transform="matrix(17.801452,0,0,17.801452,-727.45716,-8437.6302)"
       id="layer13" />
    <g
       style="fill:#666666;fill-opacity:1"
       transform="matrix(17.801452,0,0,17.801452,-727.45716,-8437.6302)"
       id="layer14" />
    <g
       style="fill:#666666;fill-opacity:1"
       transform="matrix(17.801452,0,0,17.801452,-727.45716,-8437.6302)"
       id="layer15" />
  </g>
</svg>
