<?xml version="1.0" encoding="UTF-8" standalone="no"?>
<!-- Created with Inkscape (http://www.inkscape.org/) -->

<svg
   xmlns:dc="http://purl.org/dc/elements/1.1/"
   xmlns:cc="http://creativecommons.org/ns#"
   xmlns:rdf="http://www.w3.org/1999/02/22-rdf-syntax-ns#"
   xmlns:svg="http://www.w3.org/2000/svg"
   xmlns="http://www.w3.org/2000/svg"
   xmlns:sodipodi="http://sodipodi.sourceforge.net/DTD/sodipodi-0.dtd"
   xmlns:inkscape="http://www.inkscape.org/namespaces/inkscape"
   id="svg7384"
   sodipodi:docname="gnome-lockscreen.svg"
   version="1.1"
   inkscape:version="0.48.3.1 r9886"
   height="256"
   width="256">
  <metadata
     id="metadata90">
    <rdf:RDF>
      <cc:Work
         rdf:about="">
        <dc:format>image/svg+xml</dc:format>
        <dc:type
           rdf:resource="http://purl.org/dc/dcmitype/StillImage" />
        <dc:title>Gnome Symbolic Icon Theme</dc:title>
      </cc:Work>
    </rdf:RDF>
  </metadata>
  <sodipodi:namedview
     inkscape:cy="151.4066"
     pagecolor="#555753"
     borderopacity="1"
     showborder="true"
     inkscape:bbox-paths="false"
     guidetolerance="10"
     inkscape:window-width="1914"
     showguides="true"
     inkscape:object-nodes="true"
     inkscape:snap-bbox="true"
     inkscape:pageshadow="2"
     inkscape:guide-bbox="true"
     inkscape:snap-nodes="false"
     bordercolor="#666666"
     objecttolerance="10"
     id="namedview88"
     showgrid="false"
     inkscape:window-maximized="1"
     inkscape:window-x="0"
     inkscape:snap-global="true"
     inkscape:window-y="25"
     gridtolerance="10"
     inkscape:window-height="1031"
     inkscape:snap-to-guides="true"
     inkscape:current-layer="layer10"
     inkscape:zoom="1.9999999"
     inkscape:cx="12.911388"
     inkscape:snap-grids="true"
     inkscape:pageopacity="0">
    <inkscape:grid
       spacingx="1px"
       spacingy="1px"
       id="grid4866"
       empspacing="2"
       enabled="true"
       type="xygrid"
       snapvisiblegridlinesonly="true"
       visible="true" />
  </sodipodi:namedview>
  <title
     id="title9167">Gnome Symbolic Icon Theme</title>
  <defs
     id="defs7386" />
  <g
     inkscape:label="status"
     transform="translate(-162,-98.000277)"
     inkscape:groupmode="layer"
     id="layer9"
     style="display:inline" />
  <g
     inkscape:label="devices"
     transform="translate(-162,-98.000277)"
     inkscape:groupmode="layer"
     id="layer10">
    <g
       inkscape:label="accessories-calculator"
       transform="translate(114,-60)"
       id="g11722-3-9" />
    <path
       inkscape:connector-curvature="0"
       style="font-size:medium;font-style:normal;font-variant:normal;font-weight:normal;font-stretch:normal;text-indent:0;text-align:start;text-decoration:none;line-height:normal;letter-spacing:normal;word-spacing:normal;text-transform:none;direction:ltr;block-progression:tb;writing-mode:lr-tb;text-anchor:start;color:#bebebe;fill:#4ecae9;fill-opacity:1;stroke:none;stroke-width:1.99999975999999990;marker:none;visibility:visible;display:inline;overflow:visible;enable-background:accumulate;font-family:Andale Mono;-inkscape-font-specification:Andale Mono"
       id="rect11749-5-91"
       d="m 209.1677,118.86733 c -20.27332,0 -45.10959,20.30736 -45.10959,44.98144 l 0,125.35965 c 0,24.67391 24.83627,44.98128 45.10959,44.98128 l 162.3928,0 c 20.27332,0 45.10959,-20.30737 45.10959,-44.98128 l 0,-125.35965 c 0,-24.67408 -24.83627,-44.98144 -45.10959,-44.98144 z m -2.40691,30.47158 162.87938,0.3734 c 6.00329,0.0136 10.61987,5.07865 10.61987,15.41295 l 0,121.30548 c 0,10.14809 -4.80279,13.54888 -10.61987,13.54888 l -162.13372,0 c -8.79955,0 -10.99278,-4.51953 -10.99278,-13.54888 l 0,-121.30548 c 0,-7.91127 -0.227,-15.80988 10.24712,-15.78586 z"
       sodipodi:nodetypes="ssssssssssssssssss" />
    <path
       style="fill:#4ecae9;fill-opacity:1;stroke:none"
       d="M 127.375 58.5625 C 126.49973 58.560829 125.62823 58.567167 124.75 58.59375 C 122.40804 58.66465 120.06575 58.84351 117.71875 59 C 106.11421 59.77365 98.18957 66.77331 95.5 73.375 C 93.28051 78.82287 93.62235 83.07614 93.8125 84.6875 L 93.78125 84.6875 L 93.78125 108.78125 L 111.5 108.78125 L 111.5 84.6875 L 111.5 84.03125 L 111.40625 83.34375 C 111.40625 83.34375 111.28266 81.59313 111.90625 80.0625 C 112.52984 78.53187 112.4077 77.08741 118.875 76.65625 C 127.55884 76.07726 134.40105 76.69295 137.0625 78.09375 C 138.39322 78.79414 138.97858 79.30663 139.6875 80.90625 C 140.39642 82.50587 141.03336 85.4601 140.78125 90.25 C 140.07071 103.74852 139.81105 115.44547 139.6875 123.3125 L 104.28125 123.3125 C 95.60442 123.3125 88.9375 130.41678 88.9375 139.09375 L 88.9375 182.96875 C 88.9375 191.64558 95.60442 198.71875 104.28125 198.71875 L 149.84375 198.71875 C 158.52057 198.71875 165.1875 191.64558 165.1875 182.96875 L 165.1875 139.09375 C 165.1875 133.17803 162.09419 127.97583 157.375 125.28125 C 157.47582 117.74171 157.71579 105.4885 158.46875 91.1875 C 158.81905 84.53193 158.10274 78.74548 155.875 73.71875 C 153.64726 68.69202 149.70451 64.71785 145.3125 62.40625 C 139.54798 59.372275 133.50186 58.574199 127.375 58.5625 z M 126 140.34375 C 133.01157 139.86805 139.081 144.76796 139.625 151 C 140.15932 157.23858 135.69053 162.46178 132.15625 162.8125 C 132.23805 164.47897 134.9375 181.6875 134.9375 181.6875 L 120.03125 181.6875 L 123.375 163 C 119.93028 162.80235 115.0016 158.57023 114.5 152.71875 C 113.96568 146.48003 118.98147 140.81905 126 140.34375 z "
       transform="translate(162,98.000277)"
       id="rect2995" />
  </g>
  <g
     inkscape:label="apps"
     transform="translate(-162,-98.000277)"
     inkscape:groupmode="layer"
     id="layer11" />
  <g
     inkscape:label="actions"
     transform="translate(-162,-98.000277)"
     inkscape:groupmode="layer"
     id="layer12" />
  <g
     inkscape:label="places"
     transform="translate(-162,-98.000277)"
     inkscape:groupmode="layer"
     id="layer13" />
  <g
     inkscape:label="mimetypes"
     transform="translate(-162,-98.000277)"
     inkscape:groupmode="layer"
     id="layer14" />
  <g
     inkscape:label="emblems"
     transform="translate(-162,-98.000277)"
     inkscape:groupmode="layer"
     id="layer15" />
</svg>
