<?xml version="1.0" encoding="UTF-8" standalone="no"?>
<!-- Created with Inkscape (http://www.inkscape.org/) -->

<svg
   xmlns:dc="http://purl.org/dc/elements/1.1/"
   xmlns:cc="http://creativecommons.org/ns#"
   xmlns:rdf="http://www.w3.org/1999/02/22-rdf-syntax-ns#"
   xmlns:svg="http://www.w3.org/2000/svg"
   xmlns="http://www.w3.org/2000/svg"
   xmlns:sodipodi="http://sodipodi.sourceforge.net/DTD/sodipodi-0.dtd"
   xmlns:inkscape="http://www.inkscape.org/namespaces/inkscape"
   width="256"
   height="256"
   id="svg2"
   version="1.1"
   inkscape:version="0.48.3.1 r9886"
   sodipodi:docname="gtk-fullscreen.svg">
  <defs
     id="defs4" />
  <sodipodi:namedview
     id="base"
     pagecolor="#ffffff"
     bordercolor="#666666"
     borderopacity="1.0"
     inkscape:pageopacity="0.0"
     inkscape:pageshadow="2"
     inkscape:zoom="2.8215252"
     inkscape:cx="150.76872"
     inkscape:cy="118.73639"
     inkscape:document-units="px"
     inkscape:current-layer="layer1"
     showgrid="false"
     inkscape:window-width="1914"
     inkscape:window-height="1031"
     inkscape:window-x="0"
     inkscape:window-y="25"
     inkscape:window-maximized="1" />
  <metadata
     id="metadata7">
    <rdf:RDF>
      <cc:Work
         rdf:about="">
        <dc:format>image/svg+xml</dc:format>
        <dc:type
           rdf:resource="http://purl.org/dc/dcmitype/StillImage" />
        <dc:title />
      </cc:Work>
    </rdf:RDF>
  </metadata>
  <g
     inkscape:label="Capa 1"
     inkscape:groupmode="layer"
     id="layer1"
     transform="translate(0,-796.36218)">
    <g
       inkscape:label="status"
       id="layer9"
       style="fill:#666666;fill-opacity:1;display:inline"
       transform="matrix(15.872751,0,0,15.872751,-649.39551,-9471.672)" />
    <g
       style="fill:#666666;fill-opacity:1"
       inkscape:label="devices"
       id="layer10"
       transform="matrix(15.872751,0,0,15.872751,-649.39551,-9471.672)" />
    <g
       style="fill:#666666;fill-opacity:1"
       inkscape:label="apps"
       id="layer11"
       transform="matrix(15.872751,0,0,15.872751,-649.39551,-9471.672)" />
    <g
       style="fill:#666666;fill-opacity:1"
       inkscape:label="places"
       id="layer13"
       transform="matrix(15.872751,0,0,15.872751,-649.39551,-9471.672)" />
    <g
       style="fill:#666666;fill-opacity:1"
       inkscape:label="mimetypes"
       id="layer14"
       transform="matrix(15.872751,0,0,15.872751,-649.39551,-9471.672)" />
    <g
       inkscape:label="emblems"
       id="layer15"
       style="fill:#666666;fill-opacity:1;display:inline"
       transform="matrix(15.872751,0,0,15.872751,-649.39551,-9471.672)" />
    <g
       inkscape:label="emotes"
       style="fill:#666666;fill-opacity:1;display:inline"
       id="g71291"
       transform="matrix(15.872751,0,0,15.872751,-649.39551,-9471.672)" />
    <g
       inkscape:label="categories"
       style="fill:#666666;fill-opacity:1;display:inline"
       id="g4953"
       transform="matrix(15.872751,0,0,15.872751,-649.39551,-9471.672)" />
    <g
       inkscape:label="actions"
       id="layer12"
       style="fill:#4ecae9;fill-opacity:1;display:inline"
       transform="matrix(15.872751,0,0,15.872751,-649.39551,-9471.672)">
      <path
         style="font-size:medium;font-style:normal;font-variant:normal;font-weight:normal;font-stretch:normal;text-indent:0;text-align:start;text-decoration:none;line-height:normal;letter-spacing:normal;word-spacing:normal;text-transform:none;direction:ltr;block-progression:tb;writing-mode:lr-tb;text-anchor:start;baseline-shift:baseline;color:#000000;fill:#4ecae9;fill-opacity:1;stroke:none;stroke-width:2;marker:none;visibility:visible;display:inline;overflow:visible;enable-background:new;font-family:Sans;-inkscape-font-specification:Sans"
         d="M 41.78125,657 A 1.0001,1.0001 0 0 0 41,658 l 0,4 a 1.0001,1.0001 0 0 0 1,1 l 4,0 a 1.0001,1.0001 0 1 0 0,-2 l -3,0 0,-3 a 1.0001,1.0001 0 0 0 -1.21875,-1 z"
         id="path12113"
         inkscape:connector-curvature="0" />
      <path
         style="font-size:medium;font-style:normal;font-variant:normal;font-weight:normal;font-stretch:normal;text-indent:0;text-align:start;text-decoration:none;line-height:normal;letter-spacing:normal;word-spacing:normal;text-transform:none;direction:ltr;block-progression:tb;writing-mode:lr-tb;text-anchor:start;baseline-shift:baseline;color:#000000;fill:#4ecae9;fill-opacity:1;stroke:none;stroke-width:2;marker:none;visibility:visible;display:inline;overflow:visible;enable-background:new;font-family:Sans;-inkscape-font-specification:Sans"
         d="m 46.875,656 a 1.0001,1.0001 0 0 0 -0.59375,0.28125 l -5,5 a 1.016466,1.016466 0 1 0 1.4375,1.4375 l 5,-5 A 1.0001,1.0001 0 0 0 46.875,656 z"
         id="path12147"
         inkscape:connector-curvature="0" />
      <rect
         width="1"
         height="1"
         style="color:#000000;fill:#4ecae9;fill-opacity:1;stroke:none;stroke-width:2;marker:none;visibility:visible;display:inline;overflow:visible;enable-background:new"
         id="rect12919"
         x="41.000198"
         y="662" />
      <path
         style="font-size:medium;font-style:normal;font-variant:normal;font-weight:normal;font-stretch:normal;text-indent:0;text-align:start;text-decoration:none;line-height:normal;letter-spacing:normal;word-spacing:normal;text-transform:none;direction:ltr;block-progression:tb;writing-mode:lr-tb;text-anchor:start;baseline-shift:baseline;color:#000000;fill:#4ecae9;fill-opacity:1;stroke:none;stroke-width:2;marker:none;visibility:visible;display:inline;overflow:visible;enable-background:new;font-family:Sans;-inkscape-font-specification:Sans"
         d="M 51.90625,647 A 1.001098,1.001098 0 1 0 52,649 l 3,0 0,3 a 1.0001,1.0001 0 1 0 2,0 l 0,-4 a 1.0001,1.0001 0 0 0 -1,-1 l -4,0 a 1.0001,1.0001 0 0 0 -0.09375,0 z"
         id="path12111"
         inkscape:connector-curvature="0" />
      <rect
         width="1"
         height="1"
         style="color:#000000;fill:#4ecae9;fill-opacity:1;stroke:none;stroke-width:2;marker:none;visibility:visible;display:inline;overflow:visible;enable-background:new"
         id="rect12923"
         x="56.000198"
         y="647" />
      <path
         style="font-size:medium;font-style:normal;font-variant:normal;font-weight:normal;font-stretch:normal;text-indent:0;text-align:start;text-decoration:none;line-height:normal;letter-spacing:normal;word-spacing:normal;text-transform:none;direction:ltr;block-progression:tb;writing-mode:lr-tb;text-anchor:start;baseline-shift:baseline;color:#000000;fill:#4ecae9;fill-opacity:1;stroke:none;stroke-width:2;marker:none;visibility:visible;display:inline;overflow:visible;enable-background:new;font-family:Sans;-inkscape-font-specification:Sans"
         d="m 55.875,647 a 1.0001,1.0001 0 0 0 -0.59375,0.28125 l -5,5 a 1.016466,1.016466 0 1 0 1.4375,1.4375 l 5,-5 A 1.0001,1.0001 0 0 0 55.875,647 z"
         id="path12925"
         inkscape:connector-curvature="0" />
    </g>
  </g>
</svg>
