<?xml version="1.0" encoding="UTF-8" standalone="no"?>
<!-- Created with Inkscape (http://www.inkscape.org/) -->

<svg
   xmlns:dc="http://purl.org/dc/elements/1.1/"
   xmlns:cc="http://creativecommons.org/ns#"
   xmlns:rdf="http://www.w3.org/1999/02/22-rdf-syntax-ns#"
   xmlns:svg="http://www.w3.org/2000/svg"
   xmlns="http://www.w3.org/2000/svg"
   xmlns:sodipodi="http://sodipodi.sourceforge.net/DTD/sodipodi-0.dtd"
   xmlns:inkscape="http://www.inkscape.org/namespaces/inkscape"
   width="256"
   height="256"
   id="svg4374"
   version="1.1"
   inkscape:version="0.48.3.1 r9886"
   sodipodi:docname="user-bookmarks.svg">
  <defs
     id="defs4376" />
  <sodipodi:namedview
     id="base"
     pagecolor="#ffffff"
     bordercolor="#666666"
     borderopacity="1.0"
     inkscape:pageopacity="0.0"
     inkscape:pageshadow="2"
     inkscape:zoom="0.8562147"
     inkscape:cx="126.25667"
     inkscape:cy="72.547626"
     inkscape:document-units="px"
     inkscape:current-layer="layer1"
     showgrid="false"
     inkscape:window-width="1914"
     inkscape:window-height="1031"
     inkscape:window-x="0"
     inkscape:window-y="25"
     inkscape:window-maximized="1" />
  <metadata
     id="metadata4379">
    <rdf:RDF>
      <cc:Work
         rdf:about="">
        <dc:format>image/svg+xml</dc:format>
        <dc:type
           rdf:resource="http://purl.org/dc/dcmitype/StillImage" />
        <dc:title />
      </cc:Work>
    </rdf:RDF>
  </metadata>
  <g
     inkscape:label="Capa 1"
     inkscape:groupmode="layer"
     id="layer1"
     transform="translate(0,-796.36218)">
    <path
       style="fill:#4ecae9;fill-opacity:1;stroke:none;display:inline"
       d="m 11.84375,71.09375 c -4.4468638,0 -8.15625,3.80765 -8.15625,8.375 l 0,156.96875 c 0,4.7143 3.5635823,8.375 8.15625,8.375 l 212.4375,0 c 4.59252,0 8.1875,-3.6592 8.1875,-8.375 L 249.75,158.78125 c 0,-4.56577 -3.70939,-8.375 -8.15625,-8.375 l -27.75,0 -0.125,74.22969 L 150.75,181.79702 c -2.91885,2.90118 -60.71875,42.24517 -60.71875,42.24517 0,0 0.315844,-38.66812 0.5625,-73.63594 l -27.3125,0 -13.46875,54.9375 c 0,4.3746 -3.427198,7.875 -7.6875,7.875 -4.260303,0 -7.6875,-3.5004 -7.6875,-7.875 l 0,-78.9375 c 0,-4.37468 3.427197,-7.875 7.6875,-7.875 l 47.481132,0 0,-47.4375 z"
       transform="translate(0,796.36218)"
       id="rect3845-5-8"
       inkscape:connector-curvature="0"
       sodipodi:nodetypes="sssssccscccccccssssccs" />
    <path
       style="font-size:medium;font-style:normal;font-variant:normal;font-weight:normal;font-stretch:normal;text-indent:0;text-align:start;text-decoration:none;line-height:normal;letter-spacing:normal;word-spacing:normal;text-transform:none;direction:ltr;block-progression:tb;writing-mode:lr-tb;text-anchor:start;baseline-shift:baseline;color:#000000;fill:#4ecae9;fill-opacity:1;stroke:none;stroke-width:1.99999988000000006;marker:none;visibility:visible;display:inline;overflow:visible;enable-background:accumulate;font-family:Sans;-inkscape-font-specification:Sans"
       sodipodi:nodetypes="ccccccc"
       id="path1234-3-9"
       d="m 109.71396,857.78337 55.07205,0 26.90678,0 -0.19689,126.37306 -40.43182,-34.77775 c -2.41561,2.84853 -42.05224,34.17627 -42.05224,34.17627 z"
       inkscape:connector-curvature="0" />
    <path
       style="fill:#4ecae9;fill-opacity:1;stroke:#4dcae8;stroke-width:10;stroke-miterlimit:4;stroke-opacity:1"
       d="m 214.34477,872.017 13.40186,0 c 4.20572,0 7.59155,3.38583 7.59155,7.59155 l 0,24.04279 c 0,4.20572 -3.38583,7.59155 -7.59155,7.59155 l -13.40186,0 z"
       inkscape:connector-curvature="0"
       sodipodi:nodetypes="csssscc"
       id="rect3024" />
  </g>
</svg>
