<?xml version="1.0" encoding="UTF-8" standalone="no"?>
<!-- Created with Inkscape (http://www.inkscape.org/) -->

<svg
   xmlns:dc="http://purl.org/dc/elements/1.1/"
   xmlns:cc="http://creativecommons.org/ns#"
   xmlns:rdf="http://www.w3.org/1999/02/22-rdf-syntax-ns#"
   xmlns:svg="http://www.w3.org/2000/svg"
   xmlns="http://www.w3.org/2000/svg"
   xmlns:sodipodi="http://sodipodi.sourceforge.net/DTD/sodipodi-0.dtd"
   xmlns:inkscape="http://www.inkscape.org/namespaces/inkscape"
   width="256"
   height="256"
   id="svg4374"
   version="1.1"
   inkscape:version="0.48.3.1 r9886"
   sodipodi:docname="object-group.svg">
  <defs
     id="defs4376" />
  <sodipodi:namedview
     id="base"
     pagecolor="#ffffff"
     bordercolor="#666666"
     borderopacity="1.0"
     inkscape:pageopacity="0.0"
     inkscape:pageshadow="2"
     inkscape:zoom="1.2108705"
     inkscape:cx="325.30158"
     inkscape:cy="0.57300262"
     inkscape:document-units="px"
     inkscape:current-layer="layer1"
     showgrid="false"
     inkscape:window-width="1913"
     inkscape:window-height="1026"
     inkscape:window-x="0"
     inkscape:window-y="26"
     inkscape:window-maximized="1" />
  <metadata
     id="metadata4379">
    <rdf:RDF>
      <cc:Work
         rdf:about="">
        <dc:format>image/svg+xml</dc:format>
        <dc:type
           rdf:resource="http://purl.org/dc/dcmitype/StillImage" />
        <dc:title></dc:title>
      </cc:Work>
    </rdf:RDF>
  </metadata>
  <g
     inkscape:label="Capa 1"
     inkscape:groupmode="layer"
     id="layer1"
     transform="translate(0,-796.36218)">
    <g
       id="g3791"
       transform="translate(-307.21701,-39.640905)">
      <path
         id="path2996"
         transform="translate(0,796.36218)"
         d="m 429.40625,53.65625 c -2.84878,0.0034 -5.70769,0.123831 -8.59375,0.34375 -62.53323,4.765062 -109.35881,59.31052 -104.59375,121.84375 4.76506,62.53323 59.31052,109.35881 121.84375,104.59375 62.53323,-4.76506 109.35881,-59.31052 104.59375,-121.84375 l -0.1875,-2.46875 C 536.71616,97.553385 487.33148,53.586375 429.40625,53.65625 z m 0.0313,16.53125 c 49.28951,-0.05946 91.26128,37.34797 96.15625,87.1875 l 0.1875,2.09375 c 4.05467,53.21052 -35.78948,99.63283 -89,103.6875 -53.21052,4.05467 -99.63283,-35.78948 -103.6875,-89 -4.05467,-53.21052 35.78948,-99.632832 89,-103.6875 2.4558,-0.187133 4.91968,-0.278326 7.34375,-0.28125 z"
         style="fill:#4ecae9;fill-opacity:1;stroke:#4ecae9;stroke-opacity:1"
         inkscape:connector-curvature="0" />
      <rect
         transform="matrix(0.54054604,-0.84131444,0.84131444,0.54054604,0,0)"
         y="995.1535"
         x="-585.27478"
         height="30.969458"
         width="16.104118"
         id="rect3019"
         style="fill:#4ecae9;fill-opacity:1;stroke:#4ecae9;stroke-opacity:1" />
      <rect
         y="905.57214"
         x="373.20346"
         height="112.5507"
         width="118.44622"
         id="rect3021"
         style="fill:none;stroke:#4ecae9;stroke-width:16.52015495;stroke-miterlimit:27.70000076;stroke-opacity:1;stroke-dasharray:16.52015487, 16.52015487;stroke-dashoffset:0" />
    </g>
  </g>
</svg>
