<?xml version="1.0" encoding="UTF-8" standalone="no"?>
<!-- Created with Inkscape (http://www.inkscape.org/) -->

<svg
   xmlns:dc="http://purl.org/dc/elements/1.1/"
   xmlns:cc="http://creativecommons.org/ns#"
   xmlns:rdf="http://www.w3.org/1999/02/22-rdf-syntax-ns#"
   xmlns:svg="http://www.w3.org/2000/svg"
   xmlns="http://www.w3.org/2000/svg"
   xmlns:sodipodi="http://sodipodi.sourceforge.net/DTD/sodipodi-0.dtd"
   xmlns:inkscape="http://www.inkscape.org/namespaces/inkscape"
   width="256"
   height="256"
   id="svg2"
   version="1.1"
   inkscape:version="0.48.3.1 r9886"
   sodipodi:docname="dropboxstatus-x.svg">
  <defs
     id="defs4" />
  <sodipodi:namedview
     id="base"
     pagecolor="#ffffff"
     bordercolor="#666666"
     borderopacity="1.0"
     inkscape:pageopacity="0.0"
     inkscape:pageshadow="2"
     inkscape:zoom="0.73398655"
     inkscape:cx="-75.856276"
     inkscape:cy="38.560388"
     inkscape:document-units="px"
     inkscape:current-layer="layer1"
     showgrid="false"
     inkscape:window-width="1434"
     inkscape:window-height="850"
     inkscape:window-x="0"
     inkscape:window-y="26"
     inkscape:window-maximized="1" />
  <metadata
     id="metadata7">
    <rdf:RDF>
      <cc:Work
         rdf:about="">
        <dc:format>image/svg+xml</dc:format>
        <dc:type
           rdf:resource="http://purl.org/dc/dcmitype/StillImage" />
        <dc:title />
      </cc:Work>
    </rdf:RDF>
  </metadata>
  <g
     inkscape:label="Capa 1"
     inkscape:groupmode="layer"
     id="layer1"
     transform="translate(0,-796.36218)">
    <path
       style="opacity:0.59999999999999998;fill:#808080;stroke:none"
       d="M 80.71875 13.34375 L 10.46875 61.53125 L 59.28125 102.0625 L 129.59375 56.5 L 80.71875 13.34375 z M 179.09375 15.34375 L 129.90625 56.5 L 200.1875 103.375 L 246.375 60.53125 L 179.09375 15.34375 z M 58.625 101.6875 L 9.4375 140.84375 L 78.71875 188.03125 L 127.90625 147.53125 L 58.625 101.6875 z M 200.1875 103.6875 L 177.78125 117.0625 L 216.3125 117.0625 L 200.1875 103.6875 z M 232.75 130.71875 L 232.75 152.21875 L 247.375 142.84375 L 232.75 130.71875 z M 131.875 144.46875 L 127.90625 146.84375 L 131.875 150.28125 L 131.875 144.46875 z M 128.90625 159.90625 L 79.21875 200.0625 L 58.625 185 L 57.625 201.0625 L 130.90625 245.25 L 174.15625 217.6875 L 131.875 217.6875 L 131.875 162.59375 L 128.90625 159.90625 z "
       transform="translate(0,796.36218)"
       id="path3050" />
    <g
       id="g4296"
       transform="matrix(10.748045,0,0,10.748045,95.603251,879.19333)"
       style="fill:#808080;fill-opacity:1">
      <g
         style="fill:#808080;fill-opacity:1;display:inline"
         id="layer9-7"
         transform="translate(-60,-518)" />
      <g
         id="layer10-8"
         transform="translate(-60,-518)"
         style="fill:#808080;fill-opacity:1" />
      <g
         id="layer11-2"
         transform="translate(-60,-518)"
         style="fill:#808080;fill-opacity:1" />
      <g
         id="layer12-7"
         transform="translate(-60,-518)"
         style="fill:#808080;fill-opacity:1">
        <g
           style="fill:#808080;fill-opacity:1;display:inline"
           id="layer4-4-1"
           transform="translate(19,-242)">
          <path
             style="font-size:medium;font-style:normal;font-variant:normal;font-weight:normal;font-stretch:normal;text-indent:0;text-align:start;text-decoration:none;line-height:normal;letter-spacing:normal;word-spacing:normal;text-transform:none;direction:ltr;block-progression:tb;writing-mode:lr-tb;text-anchor:start;color:#bebebe;fill:#808080;fill-opacity:1;fill-rule:nonzero;stroke:none;stroke-width:1.78124988000000006;marker:none;visibility:visible;display:inline;overflow:visible;enable-background:new;font-family:Andale Mono;-inkscape-font-specification:Andale Mono"
             id="path10839-9"
             d="m 45,764 1,0 c 0.01037,-1.2e-4 0.02079,-4.6e-4 0.03125,0 0.254951,0.0112 0.50987,0.12858 0.6875,0.3125 L 49,766.59375 51.3125,764.3125 C 51.578125,764.082 51.759172,764.007 52,764 l 1,0 0,1 c 0,0.28647 -0.03434,0.55065 -0.25,0.75 l -2.28125,2.28125 2.25,2.25 C 52.906938,770.46942 52.999992,770.7347 53,771 l 0,1 -1,0 c -0.265301,-10e-6 -0.530586,-0.0931 -0.71875,-0.28125 L 49,769.4375 46.71875,771.71875 C 46.530586,771.90694 46.26529,772 46,772 l -1,0 0,-1 c -3e-6,-0.26529 0.09306,-0.53058 0.28125,-0.71875 l 2.28125,-2.25 L 45.28125,765.75 C 45.070508,765.55537 44.97809,765.28075 45,765 l 0,-1 z"
             inkscape:connector-curvature="0" />
        </g>
      </g>
      <g
         id="layer13-8"
         transform="translate(-60,-518)"
         style="fill:#808080;fill-opacity:1" />
      <g
         id="layer14-0"
         transform="translate(-60,-518)"
         style="fill:#808080;fill-opacity:1" />
      <g
         id="layer15-2"
         transform="translate(-60,-518)"
         style="fill:#808080;fill-opacity:1" />
    </g>
  </g>
</svg>
