<?xml version="1.0" encoding="UTF-8" standalone="no"?>
<!-- Created with Inkscape (http://www.inkscape.org/) -->

<svg
   xmlns:dc="http://purl.org/dc/elements/1.1/"
   xmlns:cc="http://creativecommons.org/ns#"
   xmlns:rdf="http://www.w3.org/1999/02/22-rdf-syntax-ns#"
   xmlns:svg="http://www.w3.org/2000/svg"
   xmlns="http://www.w3.org/2000/svg"
   xmlns:xlink="http://www.w3.org/1999/xlink"
   xmlns:sodipodi="http://sodipodi.sourceforge.net/DTD/sodipodi-0.dtd"
   xmlns:inkscape="http://www.inkscape.org/namespaces/inkscape"
   version="1.0"
   width="96"
   height="96"
   id="svg2408"
   inkscape:version="0.48.3.1 r9886"
   sodipodi:docname="applications-games.svg">
  <sodipodi:namedview
     pagecolor="#ffffff"
     bordercolor="#666666"
     borderopacity="1"
     objecttolerance="10"
     gridtolerance="10"
     guidetolerance="10"
     inkscape:pageopacity="0"
     inkscape:pageshadow="2"
     inkscape:window-width="1914"
     inkscape:window-height="1031"
     id="namedview542"
     showgrid="false"
     inkscape:zoom="3.7395833"
     inkscape:cx="60.326087"
     inkscape:cy="17.826427"
     inkscape:window-x="0"
     inkscape:window-y="25"
     inkscape:window-maximized="1"
     inkscape:current-layer="svg2408"
     inkscape:snap-global="false" />
  <defs
     id="defs2410">
    <inkscape:path-effect
       effect="skeletal"
       id="path-effect4020"
       is_visible="true"
       pattern="M 0,5 C 0,2.24 2.24,0 5,0 7.76,0 10,2.24 10,5 10,7.76 7.76,10 5,10 2.24,10 0,7.76 0,5 z"
       copytype="single_stretched"
       prop_scale="1"
       scale_y_rel="false"
       spacing="0"
       normal_offset="0"
       tang_offset="0"
       prop_units="false"
       vertical_pattern="false"
       fuse_tolerance="0" />
    <inkscape:path-effect
       effect="skeletal"
       id="path-effect3209"
       is_visible="true"
       pattern="M 0,5 C 0,2.24 2.24,0 5,0 7.76,0 10,2.24 10,5 10,7.76 7.76,10 5,10 2.24,10 0,7.76 0,5 z"
       copytype="single_stretched"
       prop_scale="1"
       scale_y_rel="false"
       spacing="0"
       normal_offset="0"
       tang_offset="0"
       prop_units="false"
       vertical_pattern="false"
       fuse_tolerance="0" />
    <inkscape:path-effect
       effect="skeletal"
       id="path-effect3155"
       is_visible="true"
       pattern="M 0,5 C 0,2.24 2.24,0 5,0 7.76,0 10,2.24 10,5 10,7.76 7.76,10 5,10 2.24,10 0,7.76 0,5 z"
       copytype="single_stretched"
       prop_scale="0.2"
       scale_y_rel="false"
       spacing="0"
       normal_offset="0"
       tang_offset="0"
       prop_units="false"
       vertical_pattern="false"
       fuse_tolerance="0" />
    <inkscape:path-effect
       effect="skeletal"
       id="path-effect3151"
       is_visible="true"
       pattern="M 0,5 C 0,2.24 2.24,0 5,0 7.76,0 10,2.24 10,5 10,7.76 7.76,10 5,10 2.24,10 0,7.76 0,5 z"
       copytype="single_stretched"
       prop_scale="0.2"
       scale_y_rel="false"
       spacing="0"
       normal_offset="0"
       tang_offset="0"
       prop_units="false"
       vertical_pattern="false"
       fuse_tolerance="0" />
    <linearGradient
       inkscape:collect="always"
       id="linearGradient3916">
      <stop
         style="stop-color:#ffffff;stop-opacity:1;"
         offset="0"
         id="stop3918" />
      <stop
         style="stop-color:#ffffff;stop-opacity:0;"
         offset="1"
         id="stop3920" />
    </linearGradient>
    <linearGradient
       id="linearGradient4390">
      <stop
         style="stop-color:#efefef;stop-opacity:1;"
         offset="0"
         id="stop4392" />
      <stop
         style="stop-color:#3b3b3b;stop-opacity:1;"
         offset="1"
         id="stop4394" />
    </linearGradient>
    <linearGradient
       id="linearGradient4328">
      <stop
         style="stop-color:#ffffff;stop-opacity:1;"
         offset="0"
         id="stop4330" />
      <stop
         style="stop-color:#a2a2a2;stop-opacity:0;"
         offset="1"
         id="stop4332" />
    </linearGradient>
    <linearGradient
       id="linearGradient4308">
      <stop
         style="stop-color:#03789e;stop-opacity:1;"
         offset="0"
         id="stop4310" />
      <stop
         style="stop-color:#15a8b7;stop-opacity:1;"
         offset="1"
         id="stop4312" />
    </linearGradient>
    <linearGradient
       x1="45.447727"
       y1="92.539597"
       x2="45.447727"
       y2="7.0165396"
       id="ButtonShadow"
       gradientUnits="userSpaceOnUse"
       gradientTransform="scale(1.0058652,0.994169)">
      <stop
         id="stop3750"
         style="stop-color:#000000;stop-opacity:1"
         offset="0" />
      <stop
         id="stop3752"
         style="stop-color:#000000;stop-opacity:0.58823532"
         offset="1" />
    </linearGradient>
    <linearGradient
       id="linearGradient3737">
      <stop
         id="stop3739"
         style="stop-color:#ffffff;stop-opacity:1"
         offset="0" />
      <stop
         id="stop3741"
         style="stop-color:#ffffff;stop-opacity:0"
         offset="1" />
    </linearGradient>
    <filter
       color-interpolation-filters="sRGB"
       id="filter3174">
      <feGaussianBlur
         id="feGaussianBlur3176"
         stdDeviation="1.71" />
    </filter>
    <linearGradient
       x1="36.357143"
       y1="6"
       x2="36.357143"
       y2="63.893143"
       id="linearGradient3188"
       xlink:href="#linearGradient3737"
       gradientUnits="userSpaceOnUse" />
    <filter
       x="-0.192"
       y="-0.192"
       width="1.3839999"
       height="1.3839999"
       color-interpolation-filters="sRGB"
       id="filter3794">
      <feGaussianBlur
         id="feGaussianBlur3796"
         stdDeviation="5.28" />
    </filter>
    <linearGradient
       x1="48"
       y1="20.220806"
       x2="48"
       y2="138.66119"
       id="linearGradient3613"
       xlink:href="#linearGradient3737"
       gradientUnits="userSpaceOnUse" />
    <radialGradient
       cx="48"
       cy="90.171875"
       r="42"
       fx="48"
       fy="90.171875"
       id="radialGradient3619"
       xlink:href="#linearGradient3737"
       gradientUnits="userSpaceOnUse"
       gradientTransform="matrix(1.1573129,0,0,0.99590774,-7.5510206,0.19713193)" />
    <clipPath
       id="clipPath3613">
      <rect
         width="84"
         height="84"
         rx="6"
         ry="6"
         x="6"
         y="6"
         id="rect3615"
         style="fill:#ffffff;fill-opacity:1;fill-rule:nonzero;stroke:none" />
    </clipPath>
    <linearGradient
       x1="48"
       y1="90"
       x2="48"
       y2="5.9877172"
       id="linearGradient3617"
       xlink:href="#linearGradient3187"
       gradientUnits="userSpaceOnUse" />
    <linearGradient
       id="linearGradient3187">
      <stop
         id="stop3189"
         style="stop-color:#a2703a;stop-opacity:1"
         offset="0" />
      <stop
         id="stop3191"
         style="stop-color:#d9b27b;stop-opacity:1"
         offset="1" />
    </linearGradient>
    <linearGradient
       x1="136.41356"
       y1="115.49392"
       x2="149.52968"
       y2="115.49392"
       id="linearGradient3843"
       xlink:href="#linearGradient3485"
       gradientUnits="userSpaceOnUse" />
    <linearGradient
       id="linearGradient3485">
      <stop
         id="stop3487"
         style="stop-color:#e6605b;stop-opacity:1"
         offset="0" />
      <stop
         id="stop3489"
         style="stop-color:#f08682;stop-opacity:1"
         offset="1" />
    </linearGradient>
    <filter
       x="-0.42857143"
       y="-0.16666667"
       width="1.8571428"
       height="1.3333333"
       color-interpolation-filters="sRGB"
       id="filter3495">
      <feGaussianBlur
         stdDeviation="0.55242721"
         id="feGaussianBlur3497" />
    </filter>
    <filter
       x="-0.18344349"
       y="-0.17668343"
       width="1.366887"
       height="1.3533669"
       color-interpolation-filters="sRGB"
       id="filter3509">
      <feGaussianBlur
         stdDeviation="0.65925"
         id="feGaussianBlur3511" />
    </filter>
    <linearGradient
       x1="137.40625"
       y1="116.46875"
       x2="148.53125"
       y2="116.46875"
       id="linearGradient3845"
       xlink:href="#linearGradient3339"
       gradientUnits="userSpaceOnUse"
       gradientTransform="matrix(1.0893815,0,0,1,-13.275943,0)" />
    <linearGradient
       id="linearGradient3339">
      <stop
         id="stop3341"
         style="stop-color:#000000;stop-opacity:1"
         offset="0" />
      <stop
         id="stop3347"
         style="stop-color:#000000;stop-opacity:0.49803922"
         offset="0.69999999" />
      <stop
         id="stop3343"
         style="stop-color:#000000;stop-opacity:0"
         offset="1" />
    </linearGradient>
    <linearGradient
       x1="136"
       y1="60"
       x2="150"
       y2="60"
       id="linearGradient3847"
       xlink:href="#linearGradient3278"
       gradientUnits="userSpaceOnUse"
       gradientTransform="translate(-23.73343,0)" />
    <linearGradient
       id="linearGradient3278">
      <stop
         id="stop3280"
         style="stop-color:#945a00;stop-opacity:1"
         offset="0" />
      <stop
         id="stop3290"
         style="stop-color:#e28e0a;stop-opacity:1"
         offset="0.25" />
      <stop
         id="stop3286"
         style="stop-color:#ffba14;stop-opacity:1"
         offset="0.30000001" />
      <stop
         id="stop3288"
         style="stop-color:#f3ac00;stop-opacity:1"
         offset="0.69999999" />
      <stop
         id="stop3292"
         style="stop-color:#ffd314;stop-opacity:1"
         offset="0.75" />
      <stop
         id="stop3282"
         style="stop-color:#ffed94;stop-opacity:1"
         offset="1" />
    </linearGradient>
    <linearGradient
       x1="143"
       y1="2.4000001e-06"
       x2="143"
       y2="120.01752"
       id="linearGradient3849"
       xlink:href="#linearGradient3254"
       gradientUnits="userSpaceOnUse"
       gradientTransform="translate(-23.73343,0)" />
    <linearGradient
       id="linearGradient3254">
      <stop
         id="stop3256"
         style="stop-color:#000000;stop-opacity:1"
         offset="0" />
      <stop
         id="stop3266"
         style="stop-color:#000000;stop-opacity:1"
         offset="0.06588447" />
      <stop
         id="stop3264"
         style="stop-color:#ad5f1b;stop-opacity:1"
         offset="0.07" />
      <stop
         id="stop3268"
         style="stop-color:#ad601a;stop-opacity:1"
         offset="0.1913653" />
      <stop
         id="stop3262"
         style="stop-color:#785800;stop-opacity:1"
         offset="0.20983393" />
      <stop
         id="stop3258"
         style="stop-color:#785700;stop-opacity:1"
         offset="1" />
    </linearGradient>
    <linearGradient
       x1="141.25002"
       y1="4.9218717"
       x2="144.81252"
       y2="4.9218717"
       id="linearGradient3851"
       xlink:href="#linearGradient3394"
       gradientUnits="userSpaceOnUse"
       gradientTransform="translate(-23.73343,0)" />
    <linearGradient
       id="linearGradient3394">
      <stop
         id="stop3396"
         style="stop-color:#000000;stop-opacity:1"
         offset="0" />
      <stop
         id="stop3402"
         style="stop-color:#7d7d7d;stop-opacity:1"
         offset="0.5" />
      <stop
         id="stop3398"
         style="stop-color:#000000;stop-opacity:1"
         offset="1" />
    </linearGradient>
    <linearGradient
       x1="136.98804"
       y1="17.043356"
       x2="148.99513"
       y2="17.043356"
       id="linearGradient3853"
       xlink:href="#linearGradient3308"
       gradientUnits="userSpaceOnUse"
       gradientTransform="translate(-23.73343,0)" />
    <linearGradient
       id="linearGradient3308">
      <stop
         id="stop3310"
         style="stop-color:#da8539;stop-opacity:1"
         offset="0" />
      <stop
         id="stop3312"
         style="stop-color:#fadfc7;stop-opacity:1"
         offset="1" />
    </linearGradient>
    <linearGradient
       x1="146.10596"
       y1="118.94019"
       x2="146.07562"
       y2="66"
       id="linearGradient3855"
       xlink:href="#linearGradient5452"
       gradientUnits="userSpaceOnUse"
       gradientTransform="matrix(1,0,0,1.2653524,-23.73343,-54.364173)" />
    <linearGradient
       id="linearGradient5452">
      <stop
         id="stop5454"
         style="stop-color:#ffffff;stop-opacity:1"
         offset="0" />
      <stop
         id="stop5456"
         style="stop-color:#ffffff;stop-opacity:0"
         offset="1" />
    </linearGradient>
    <linearGradient
       x1="146.10596"
       y1="118.94019"
       x2="146.07562"
       y2="66"
       id="linearGradient3857"
       xlink:href="#linearGradient5452"
       gradientUnits="userSpaceOnUse"
       gradientTransform="matrix(1,0,0,1.2653524,-29.85843,-54.364173)" />
    <filter
       x="-0.43161276"
       y="-0.11371106"
       width="1.8632255"
       height="1.2274221"
       color-interpolation-filters="sRGB"
       id="filter3382">
      <feGaussianBlur
         stdDeviation="0.73914765"
         id="feGaussianBlur3384" />
    </filter>
    <filter
       x="-0.60979599"
       y="-0.1494"
       width="2.2195919"
       height="1.2988"
       color-interpolation-filters="sRGB"
       id="filter3390">
      <feGaussianBlur
         stdDeviation="0.77812506"
         id="feGaussianBlur3392" />
    </filter>
    <linearGradient
       x1="136"
       y1="106"
       x2="150"
       y2="106"
       id="linearGradient3859"
       xlink:href="#linearGradient3401"
       gradientUnits="userSpaceOnUse" />
    <linearGradient
       id="linearGradient3401">
      <stop
         id="stop3403"
         style="stop-color:#404040;stop-opacity:1"
         offset="0" />
      <stop
         id="stop3447"
         style="stop-color:#808080;stop-opacity:1"
         offset="0.2" />
      <stop
         id="stop3410"
         style="stop-color:#efefef;stop-opacity:1"
         offset="0.69999999" />
      <stop
         id="stop3405"
         style="stop-color:#dcdcdc;stop-opacity:1"
         offset="1" />
    </linearGradient>
    <linearGradient
       x1="136"
       y1="106"
       x2="150"
       y2="106"
       id="linearGradient3861"
       xlink:href="#linearGradient3461"
       gradientUnits="userSpaceOnUse" />
    <linearGradient
       id="linearGradient3461">
      <stop
         id="stop3463"
         style="stop-color:#444542;stop-opacity:1"
         offset="0" />
      <stop
         id="stop3465"
         style="stop-color:#71746e;stop-opacity:1"
         offset="1" />
    </linearGradient>
    <linearGradient
       x1="142.95775"
       y1="98.950562"
       x2="148.95775"
       y2="98.950562"
       id="linearGradient3863"
       xlink:href="#linearGradient3339"
       gradientUnits="userSpaceOnUse"
       gradientTransform="translate(0.04225159,1.5494389)"
       spreadMethod="reflect" />
    <linearGradient
       x1="142.95775"
       y1="98.950562"
       x2="148.95775"
       y2="98.950562"
       id="linearGradient3865"
       xlink:href="#linearGradient3355"
       gradientUnits="userSpaceOnUse"
       gradientTransform="translate(0.04225159,2.5494389)"
       spreadMethod="reflect" />
    <linearGradient
       id="linearGradient3355">
      <stop
         id="stop3357"
         style="stop-color:#ffffff;stop-opacity:1"
         offset="0" />
      <stop
         id="stop3359"
         style="stop-color:#ffffff;stop-opacity:0.49803922"
         offset="0.69999999" />
      <stop
         id="stop3361"
         style="stop-color:#ffffff;stop-opacity:0"
         offset="1" />
    </linearGradient>
    <linearGradient
       x1="142.95775"
       y1="98.950562"
       x2="148.95775"
       y2="98.950562"
       id="linearGradient3867"
       xlink:href="#linearGradient3339"
       gradientUnits="userSpaceOnUse"
       gradientTransform="translate(0.04225159,3.5494389)"
       spreadMethod="reflect" />
    <linearGradient
       x1="142.95775"
       y1="98.950562"
       x2="148.95775"
       y2="98.950562"
       id="linearGradient3869"
       xlink:href="#linearGradient3355"
       gradientUnits="userSpaceOnUse"
       gradientTransform="translate(0.04225159,4.5494389)"
       spreadMethod="reflect" />
    <linearGradient
       x1="142.95775"
       y1="98.950562"
       x2="148.95775"
       y2="98.950562"
       id="linearGradient3871"
       xlink:href="#linearGradient3339"
       gradientUnits="userSpaceOnUse"
       gradientTransform="translate(0.04225159,9.5494389)"
       spreadMethod="reflect" />
    <linearGradient
       x1="142.95775"
       y1="98.950562"
       x2="148.95775"
       y2="98.950562"
       id="linearGradient3873"
       xlink:href="#linearGradient3355"
       gradientUnits="userSpaceOnUse"
       gradientTransform="translate(0.04225159,10.549439)"
       spreadMethod="reflect" />
    <linearGradient
       x1="142.95775"
       y1="98.950562"
       x2="148.95775"
       y2="98.950562"
       id="linearGradient3875"
       xlink:href="#linearGradient3339"
       gradientUnits="userSpaceOnUse"
       gradientTransform="translate(0.04225159,11.549439)"
       spreadMethod="reflect" />
    <linearGradient
       x1="142.95775"
       y1="98.950562"
       x2="148.95775"
       y2="98.950562"
       id="linearGradient3877"
       xlink:href="#linearGradient3355"
       gradientUnits="userSpaceOnUse"
       gradientTransform="translate(0.04225159,12.549439)"
       spreadMethod="reflect" />
    <linearGradient
       x1="137"
       y1="106"
       x2="139.03125"
       y2="106"
       id="linearGradient3879"
       xlink:href="#linearGradient3439"
       gradientUnits="userSpaceOnUse"
       spreadMethod="repeat" />
    <linearGradient
       id="linearGradient3439">
      <stop
         id="stop3441"
         style="stop-color:#afafaf;stop-opacity:1;"
         offset="0" />
      <stop
         id="stop3443"
         style="stop-color:#ffffff;stop-opacity:1"
         offset="1" />
    </linearGradient>
    <filter
       x="-1.0349605"
       y="-0.13573837"
       width="3.069921"
       height="1.2714767"
       color-interpolation-filters="sRGB"
       id="filter3451">
      <feGaussianBlur
         stdDeviation="0.9498173"
         id="feGaussianBlur3453" />
    </filter>
    <filter
       x="-0.93333328"
       y="-0.13770492"
       width="2.8666666"
       height="1.2754098"
       color-interpolation-filters="sRGB"
       id="filter3457">
      <feGaussianBlur
         stdDeviation="0.92807767"
         id="feGaussianBlur3459" />
    </filter>
    <linearGradient
       id="linearGradient4114">
      <stop
         id="stop4116"
         style="stop-color:#aaaaaa;stop-opacity:1"
         offset="0" />
      <stop
         id="stop4118"
         style="stop-color:#dcdcdc;stop-opacity:1"
         offset="1" />
    </linearGradient>
    <linearGradient
       id="linearGradient3465">
      <stop
         id="stop3467"
         style="stop-color:#919191;stop-opacity:1"
         offset="0" />
      <stop
         id="stop3469"
         style="stop-color:#fdfdfd;stop-opacity:1"
         offset="1" />
    </linearGradient>
    <filter
       x="-0.03906453"
       y="-0.14405686"
       width="1.0781291"
       height="1.2881137"
       color-interpolation-filters="sRGB"
       id="filter3294">
      <feGaussianBlur
         id="feGaussianBlur3296"
         stdDeviation="1.4293142" />
    </filter>
    <linearGradient
       id="linearGradient3929">
      <stop
         id="stop3931"
         style="stop-color:#000000;stop-opacity:1"
         offset="0" />
      <stop
         id="stop3933"
         style="stop-color:#000000;stop-opacity:0.58823532"
         offset="1" />
    </linearGradient>
    <linearGradient
       x1="31"
       y1="108"
       x2="31"
       y2="96"
       id="linearGradient4383"
       xlink:href="#linearGradient3929"
       gradientUnits="userSpaceOnUse" />
    <linearGradient
       x1="31"
       y1="108"
       x2="31"
       y2="96"
       id="linearGradient4385"
       xlink:href="#linearGradient3929"
       gradientUnits="userSpaceOnUse" />
    <linearGradient
       x1="31"
       y1="108"
       x2="31"
       y2="96"
       id="linearGradient4387"
       xlink:href="#linearGradient3929"
       gradientUnits="userSpaceOnUse" />
    <linearGradient
       x1="31"
       y1="108"
       x2="31"
       y2="96"
       id="linearGradient4389"
       xlink:href="#linearGradient3929"
       gradientUnits="userSpaceOnUse" />
    <linearGradient
       x1="31"
       y1="108"
       x2="31"
       y2="96"
       id="linearGradient4391"
       xlink:href="#linearGradient3929"
       gradientUnits="userSpaceOnUse" />
    <linearGradient
       x1="23.882524"
       y1="132.27245"
       x2="23.882524"
       y2="117.57551"
       id="linearGradient4393"
       xlink:href="#linearGradient3929"
       gradientUnits="userSpaceOnUse"
       gradientTransform="scale(1.2247449,0.8164966)" />
    <linearGradient
       x1="31"
       y1="108"
       x2="31"
       y2="96"
       id="linearGradient4395"
       xlink:href="#linearGradient3929"
       gradientUnits="userSpaceOnUse" />
    <linearGradient
       x1="31"
       y1="108"
       x2="31"
       y2="96"
       id="linearGradient4397"
       xlink:href="#linearGradient3929"
       gradientUnits="userSpaceOnUse" />
    <linearGradient
       x1="31"
       y1="108"
       x2="31"
       y2="96"
       id="linearGradient4399"
       xlink:href="#linearGradient3929"
       gradientUnits="userSpaceOnUse" />
    <linearGradient
       x1="31"
       y1="108"
       x2="31"
       y2="96"
       id="linearGradient4401"
       xlink:href="#linearGradient3929"
       gradientUnits="userSpaceOnUse" />
    <linearGradient
       x1="31"
       y1="108"
       x2="31"
       y2="96"
       id="linearGradient4403"
       xlink:href="#linearGradient3929"
       gradientUnits="userSpaceOnUse" />
    <linearGradient
       x1="31"
       y1="108"
       x2="31"
       y2="96"
       id="linearGradient4405"
       xlink:href="#linearGradient3929"
       gradientUnits="userSpaceOnUse" />
    <linearGradient
       x1="31"
       y1="108"
       x2="31"
       y2="96"
       id="linearGradient4407"
       xlink:href="#linearGradient3929"
       gradientUnits="userSpaceOnUse" />
    <linearGradient
       x1="31"
       y1="108"
       x2="31"
       y2="80"
       id="linearGradient4409"
       xlink:href="#linearGradient3929"
       gradientUnits="userSpaceOnUse"
       gradientTransform="matrix(0.5581553,0,0,0.5568189,76.116988,21.863559)" />
    <linearGradient
       x1="31"
       y1="108"
       x2="31"
       y2="96"
       id="linearGradient4411"
       xlink:href="#linearGradient3929"
       gradientUnits="userSpaceOnUse" />
    <linearGradient
       x1="-52.5"
       y1="-76.295921"
       x2="-52.5"
       y2="-52.312489"
       id="linearGradient4662"
       xlink:href="#linearGradient3465"
       gradientUnits="userSpaceOnUse"
       gradientTransform="matrix(0.44155423,0,0,0.44049701,89.110105,50.940509)" />
    <linearGradient
       x1="74.906487"
       y1="96.908859"
       x2="74.906487"
       y2="23.893446"
       id="linearGradient4668"
       xlink:href="#linearGradient4114"
       gradientUnits="userSpaceOnUse"
       gradientTransform="matrix(0.79109563,0,0,0.79109563,7.4608755,-7.514973)" />
    <linearGradient
       x1="84"
       y1="96"
       x2="84"
       y2="23.998264"
       id="linearGradient4670"
       xlink:href="#linearGradient3465"
       gradientUnits="userSpaceOnUse"
       gradientTransform="matrix(0.79109563,0,0,0.79109563,6.5958013,-7.9826252)" />
    <linearGradient
       x1="45.447727"
       y1="92.539597"
       x2="45.447727"
       y2="7.0165396"
       id="ButtonShadow-0"
       gradientUnits="userSpaceOnUse"
       gradientTransform="matrix(1.0058652,0,0,0.994169,100,0)">
      <stop
         id="stop3750-8"
         style="stop-color:#000000;stop-opacity:1"
         offset="0" />
      <stop
         id="stop3752-5"
         style="stop-color:#000000;stop-opacity:0.58823532"
         offset="1" />
    </linearGradient>
    <linearGradient
       x1="32.251034"
       y1="6.1317081"
       x2="32.251034"
       y2="90.238609"
       id="linearGradient3780"
       xlink:href="#ButtonShadow-0"
       gradientUnits="userSpaceOnUse"
       gradientTransform="matrix(1.0238095,0,0,1.0119048,-1.1428571,-98.071429)" />
    <linearGradient
       x1="32.251034"
       y1="6.1317081"
       x2="32.251034"
       y2="90.238609"
       id="linearGradient3772"
       xlink:href="#ButtonShadow-0"
       gradientUnits="userSpaceOnUse"
       gradientTransform="matrix(1.0238095,0,0,1.0119048,-1.1428571,-98.071429)" />
    <linearGradient
       x1="32.251034"
       y1="6.1317081"
       x2="32.251034"
       y2="90.238609"
       id="linearGradient3725"
       xlink:href="#ButtonShadow-0"
       gradientUnits="userSpaceOnUse"
       gradientTransform="matrix(1.0238095,0,0,1.0119048,-1.1428571,-98.071429)" />
    <linearGradient
       x1="32.251034"
       y1="6.1317081"
       x2="32.251034"
       y2="90.238609"
       id="linearGradient3721"
       xlink:href="#ButtonShadow-0"
       gradientUnits="userSpaceOnUse"
       gradientTransform="translate(0,-97)" />
    <linearGradient
       x1="32.251034"
       y1="6.1317081"
       x2="32.251034"
       y2="90.238609"
       id="linearGradient3811"
       xlink:href="#ButtonShadow-0"
       gradientUnits="userSpaceOnUse"
       gradientTransform="matrix(1.0238095,0,0,1.0119048,-1.1428571,-98.071429)" />
    <linearGradient
       inkscape:collect="always"
       xlink:href="#linearGradient4308-7"
       id="linearGradient4350-8"
       gradientUnits="userSpaceOnUse"
       x1="152.95821"
       y1="7.220057"
       x2="153.49303"
       y2="90.384399"
       gradientTransform="matrix(0.88161209,0,0,1.0524691,14.531717,-4.8125451)" />
    <linearGradient
       id="linearGradient4308-7">
      <stop
         style="stop-color:#03789e;stop-opacity:1;"
         offset="0"
         id="stop4310-3" />
      <stop
         style="stop-color:#15a8b7;stop-opacity:1;"
         offset="1"
         id="stop4312-1" />
    </linearGradient>
    <linearGradient
       inkscape:collect="always"
       xlink:href="#linearGradient4390"
       id="linearGradient4443"
       gradientUnits="userSpaceOnUse"
       x1="173.08191"
       y1="7.034543"
       x2="187.12892"
       y2="49.957302" />
    <linearGradient
       inkscape:collect="always"
       xlink:href="#linearGradient4390"
       id="linearGradient4445"
       gradientUnits="userSpaceOnUse"
       x1="150.01329"
       y1="24.997812"
       x2="169.35474"
       y2="24.997812" />
    <linearGradient
       inkscape:collect="always"
       xlink:href="#linearGradient4390"
       id="linearGradient4448"
       gradientUnits="userSpaceOnUse"
       gradientTransform="matrix(0.93716497,0,0,0.94922694,-143.48992,45.474442)"
       x1="209.89029"
       y1="49.129711"
       x2="165.88618"
       y2="-41.924999" />
    <linearGradient
       inkscape:collect="always"
       xlink:href="#linearGradient3439"
       id="linearGradient4455"
       gradientUnits="userSpaceOnUse"
       gradientTransform="matrix(0.78571623,0,0,0.95499231,-73.924858,0.59053988)"
       x1="157.4791"
       y1="36.232529"
       x2="153.49303"
       y2="90.384399" />
    <linearGradient
       inkscape:collect="always"
       xlink:href="#linearGradient3916"
       id="linearGradient3922"
       x1="47.597473"
       y1="14.573833"
       x2="48.402527"
       y2="36.501408"
       gradientUnits="userSpaceOnUse" />
    <linearGradient
       inkscape:collect="always"
       xlink:href="#linearGradient4390"
       id="linearGradient3927"
       gradientUnits="userSpaceOnUse"
       x1="150.01329"
       y1="24.997812"
       x2="169.35474"
       y2="24.997812"
       gradientTransform="matrix(1.0011307,0.36973275,-0.36973275,1.0011307,-198.06362,-55.938498)" />
    <linearGradient
       inkscape:collect="always"
       xlink:href="#linearGradient4390"
       id="linearGradient3930"
       gradientUnits="userSpaceOnUse"
       x1="173.08191"
       y1="7.034543"
       x2="187.12892"
       y2="49.957302"
       gradientTransform="matrix(1.0011307,0.36973275,-0.36973275,1.0011307,-198.06362,-55.938498)" />
    <filter
       inkscape:collect="always"
       id="filter3956"
       x="-0.31476212"
       width="1.6295242"
       y="-0.91115474"
       height="2.8223095">
      <feGaussianBlur
         inkscape:collect="always"
         stdDeviation="5.7869897"
         id="feGaussianBlur3958" />
    </filter>
    <linearGradient
       inkscape:collect="always"
       xlink:href="#linearGradient3465"
       id="linearGradient4010"
       x1="-35.727104"
       y1="54.809574"
       x2="0.68618292"
       y2="54.809574"
       gradientUnits="userSpaceOnUse" />
    <linearGradient
       inkscape:collect="always"
       xlink:href="#linearGradient3465"
       id="linearGradient4018"
       x1="-64.471199"
       y1="46.898396"
       x2="-60.953289"
       y2="39.145824"
       gradientUnits="userSpaceOnUse" />
    <inkscape:path-effect
       effect="skeletal"
       id="path-effect3151-4"
       is_visible="true"
       pattern="m 34.043175,6.2249527 c 0,-2.76 2.24,-4.9999996 5,-4.9999996 2.76,0 5,2.2399996 5,4.9999996 0,2.76 -2.24,5.0000003 -5,5.0000003 -2.76,0 -5,-2.2400003 -5,-5.0000003 z"
       copytype="single_stretched"
       prop_scale="0.2"
       scale_y_rel="false"
       spacing="0"
       normal_offset="0"
       tang_offset="0"
       prop_units="false"
       vertical_pattern="false"
       fuse_tolerance="0" />
    <inkscape:path-effect
       effect="skeletal"
       id="path-effect3155-2"
       is_visible="true"
       pattern="m 5.4493311,40.42952 c 0,-2.76 2.24,-5 4.9999999,-5 2.76,0 5,2.24 5,5 0,2.76 -2.24,5 -5,5 -2.7599999,0 -4.9999999,-2.24 -4.9999999,-5 z"
       copytype="single_stretched"
       prop_scale="0.2"
       scale_y_rel="false"
       spacing="0"
       normal_offset="0"
       tang_offset="0"
       prop_units="false"
       vertical_pattern="false"
       fuse_tolerance="0" />
    <filter
       inkscape:collect="always"
       id="filter3987"
       x="-0.11490371"
       width="1.2298074"
       y="-0.22613889"
       height="1.4522778">
      <feGaussianBlur
         inkscape:collect="always"
         stdDeviation="2.6761712"
         id="feGaussianBlur3989" />
    </filter>
    <inkscape:path-effect
       effect="skeletal"
       id="path-effect3155-3"
       is_visible="true"
       pattern="M 0,5 C 0,2.24 2.24,0 5,0 7.76,0 10,2.24 10,5 10,7.76 7.76,10 5,10 2.24,10 0,7.76 0,5 z"
       copytype="single_stretched"
       prop_scale="0.2"
       scale_y_rel="false"
       spacing="0"
       normal_offset="0"
       tang_offset="0"
       prop_units="false"
       vertical_pattern="false"
       fuse_tolerance="0" />
    <filter
       inkscape:collect="always"
       id="filter4022"
       x="-0.15148085"
       width="1.3029617"
       y="-0.27454366"
       height="1.5490873">
      <feGaussianBlur
         inkscape:collect="always"
         stdDeviation="2.4442207"
         id="feGaussianBlur4024" />
    </filter>
  </defs>
  <metadata
     id="metadata2413">
    <rdf:RDF>
      <cc:Work
         rdf:about="">
        <dc:format>image/svg+xml</dc:format>
        <dc:type
           rdf:resource="http://purl.org/dc/dcmitype/StillImage" />
        <dc:title></dc:title>
      </cc:Work>
    </rdf:RDF>
  </metadata>
  <g
     id="layer2"
     style="display:none">
    <rect
       width="86"
       height="85"
       rx="6"
       ry="6"
       x="5"
       y="7"
       id="rect3745"
       style="opacity:0.9;fill:url(#ButtonShadow);fill-opacity:1;fill-rule:nonzero;stroke:none;filter:url(#filter3174)" />
  </g>
  <rect
     style="fill:url(#linearGradient4455);fill-opacity:1;stroke:none"
     id="rect3538"
     width="83.412865"
     height="82.74118"
     x="6.5464892"
     y="5.442646"
     ry="6.1289759" />
  <path
     sodipodi:type="arc"
     style="fill:#ffffff;fill-opacity:1;stroke:none;filter:url(#filter3956)"
     id="path4316"
     sodipodi:cx="157.90529"
     sodipodi:cy="72.86908"
     sodipodi:rx="32.249771"
     sodipodi:ry="14.39899"
     d="m 190.06184,71.775041 a 32.249771,14.39899 0 1 1 -0.0612,-0.313381"
     sodipodi:start="6.2071318"
     sodipodi:end="12.46847"
     sodipodi:open="true"
     transform="matrix(0.99735675,0,0,1.0652476,-111.15312,-12.667378)" />
  <rect
     style="fill:none;stroke:url(#linearGradient4448);stroke-width:4.76155089999999959;stroke-miterlimit:4;stroke-dasharray:none"
     id="rect3538-4"
     width="87.712372"
     height="86.556808"
     x="4.1174908"
     y="4.7343626"
     ry="6.4116149" />
  <path
     style="fill:#4d4d4d;fill-rule:evenodd;stroke:none;filter:url(#filter3987);opacity:0.80241935"
     d="m 13.992442,41.164755 c 0,0 -3.592654,5.294437 -1.134522,8.31983 2.458131,3.025393 12.101571,3.970828 12.101571,3.970828 0,0 -1.134522,4.916264 3.025393,7.185308 4.159915,2.269045 -0.567261,-4.727176 0.567261,-5.672611 1.134522,-0.945436 8.887091,-0.567262 15.505138,-0.378175 6.618047,0.189088 23.257708,-0.756348 23.824969,-6.618046 C 68.449513,42.11019 50.297156,30.008619 39.14102,33.223099 27.984884,36.437578 13.992442,41.164755 13.992442,41.164755 z"
     id="path3207"
     inkscape:connector-curvature="0" />
  <g
     id="g3199"
     transform="matrix(0.81948633,0,0,0.81948633,2.0119747,10.978376)">
    <path
       sodipodi:nodetypes="zcccsszz"
       inkscape:connector-curvature="0"
       id="path3149-6"
       d="m 12.650417,34.383726 c 6.91612,14.249619 19.387187,12.969361 19.387187,12.969361 0,0 0,8.824512 10.562674,13.236768 C 38.856545,56.043894 39.25766,53.10239 37.786907,47.486791 42.733982,48.422724 51.558495,49.492363 64.928969,46.016039 78.299447,42.539716 88.728407,36.255594 85.252087,24.756986 81.775767,13.258379 59.71144,11.567928 42.733983,11.252808 25.756525,10.937687 5.7342963,20.134108 12.650417,34.383726 z"
       style="fill:#aaeeff;fill-rule:evenodd;stroke:none" />
    <path
       sodipodi:nodetypes="zcccsszz"
       inkscape:connector-curvature="0"
       inkscape:original-d="m 12.835655,34.49582 c 6.91612,14.249619 19.387187,12.969361 19.387187,12.969361 0,0 0,8.824512 10.562674,13.236768 -3.743733,-4.545961 -3.342618,-7.487465 -4.813371,-13.103064 4.947075,0.935933 13.771588,2.005572 27.142062,-1.470752 C 78.484681,42.65181 88.91365,36.367688 85.437327,24.86908 81.961004,13.370473 59.896678,11.680022 42.919221,11.364902 25.941763,11.049781 5.9195344,20.246202 12.835655,34.49582 z"
       inkscape:path-effect="#path-effect3151"
       id="path3149"
       d="m 12.835655,34.49582 c 0.04596,-0.02231 0.259567,0.32097 0.669358,0.97838 0.40979,0.657409 1.018387,1.632041 1.917941,2.810878 0.899553,1.178837 2.092946,2.566852 3.694176,3.927254 1.601231,1.360402 3.613014,2.698441 6.128872,3.57552 2.255556,0.398969 4.710352,0.848879 7.349948,1.348127 6.6e-5,8.8e-5 6.6e-5,8.8e-5 6.6e-5,8.8e-5 0.0065,0.01574 0.01319,0.0317 0.01988,0.04748 0.01815,0.04306 0.03668,0.08626 0.05542,0.129591 1e-6,3e-6 2e-6,6e-6 4e-6,9e-6 0.07062,0.163287 0.144346,0.328482 0.220133,0.495599 1e-6,3e-6 3e-6,6e-6 4e-6,9e-6 0.0313,0.328492 0.0831,0.661666 0.149401,0.998922 0.220585,1.121028 0.604711,2.246318 1.140237,3.334194 0.75254,1.756683 1.889572,3.388916 3.33457,4.822616 1.444998,1.4337 3.198296,2.668877 5.114369,3.62199 -1.660473,-1.627114 -3.061344,-3.588202 -3.923176,-5.809558 -0.485499,-2.472267 -0.653062,-5.0286 -1.081949,-7.502048 4.18083,0.68873 8.616463,0.840614 13.199483,0.473539 4.583019,-0.367075 9.313125,-1.252843 14.043084,-2.569239 5.69682,-1.517474 11.630464,-3.407079 16.058834,-7.416926 0.550488,-0.497837 1.07133,-1.032783 1.545633,-1.601576 0.984326,-1.180422 1.756631,-2.493763 2.18221,-3.902385 0.718021,-2.263436 0.519477,-4.780552 -0.167069,-7.101924 -0.768999,-2.671783 -2.900632,-4.834705 -5.294168,-6.376645 -3.093852,-1.972997 -6.647924,-3.08382 -10.169034,-3.932856 -4.561013,-1.09205 -9.079525,-1.685128 -13.461074,-2.051055 -4.381548,-0.365927 -8.625965,-0.505155 -12.658847,-0.608733 -4.763665,-0.112475 -9.29558,0.39506 -13.300078,1.415247 -4.004497,1.020188 -7.484796,2.55039 -10.367437,4.360853 -1e-6,1e-6 -2e-6,2e-6 -3e-6,2e-6 -1.601469,1.012494 -3.014845,2.138454 -4.13199,3.327787 -1.117145,1.189333 -1.940575,2.441688 -2.478658,3.696186 -0.615836,1.402682 -0.805765,2.775172 -0.819644,3.972894 -0.01388,1.197723 0.150057,2.225121 0.333817,3.043762 0.18376,0.818642 0.388656,1.432407 0.525104,1.84594 0.136448,0.413532 0.204887,0.629425 0.170583,0.646075 -0.0343,0.01665 -0.170728,-0.16636 -0.37848,-0.557103 -0.207753,-0.390742 -0.487599,-0.991636 -0.747489,-1.818932 -0.259891,-0.827296 -0.50133,-1.884775 -0.553578,-3.149613 -0.05225,-1.264838 0.08286,-2.741451 0.680135,-4.305836 0.534749,-1.369483 1.369598,-2.748835 2.512372,-4.057244 1.142773,-1.308409 2.595982,-2.545449 4.249627,-3.633096 1e-6,0 2e-6,-1e-6 4e-6,-2e-6 2.942799,-1.948004 6.517011,-3.617964 10.637809,-4.75629 4.120797,-1.138327 8.791204,-1.742002 13.698426,-1.674974 4.045688,0.04637 8.323417,0.137879 12.769198,0.468929 4.445781,0.331051 9.059584,0.902128 13.75484,1.987846 3.626406,0.832596 7.377919,2.002458 10.778071,4.125559 2.704183,1.673448 5.124085,4.188252 6.15098,7.456733 0.802853,2.605101 1.007288,5.508721 0.17555,8.265765 -0.532889,1.696353 -1.42751,3.241508 -2.549221,4.594795 -0.540502,0.652089 -1.130696,1.256228 -1.753577,1.809322 -4.891459,4.337477 -11.097948,6.35334 -16.899387,7.825414 -4.643228,1.120632 -9.316221,1.797372 -13.867576,1.952606 -4.551354,0.155233 -8.980685,-0.211239 -13.173978,-1.106803 0.803581,2.232334 1.283663,4.408154 2.026686,6.403243 0.414073,2.418299 1.368081,4.612358 2.594931,6.491279 -2.250045,-0.787164 -4.300568,-1.918791 -6.007073,-3.29535 -1.706505,-1.37656 -3.069334,-2.998005 -4.013656,-4.774697 -0.565585,-1.204968 -0.961473,-2.45318 -1.179708,-3.698568 -0.06561,-0.374101 -0.115383,-0.751814 -0.143413,-1.131637 1e-6,-1e-6 2e-6,-1e-6 3e-6,-2e-6 0.05947,-0.02771 0.12006,-0.05715 0.182823,-0.08825 1e-6,0 2e-6,-1e-6 3e-6,-1e-6 0.01666,-0.0083 0.03346,-0.01662 0.05057,-0.02511 0.0063,-0.003 0.01263,-0.0063 0.01912,-0.0093 0,0 0,0 0,0 C 29.394901,47.472557 27.095852,47.156253 24.967777,46.848678 22.302136,45.81954 20.221793,44.343187 18.59914,42.86318 16.976486,41.383172 15.808716,39.894272 14.957869,38.632212 14.107023,37.370152 13.57035,36.329906 13.241582,35.617702 12.912814,34.905498 12.789699,34.518125 12.835655,34.49582 z"
       style="fill:#000000;fill-rule:evenodd;stroke:none" />
  </g>
  <path
     sodipodi:type="arc"
     style="opacity:0.90880001;fill:url(#linearGradient3922);fill-opacity:1;stroke:none"
     id="path3914"
     sodipodi:cx="46.930363"
     sodipodi:cy="26.874651"
     sodipodi:rx="33.827297"
     sodipodi:ry="12.167131"
     d="m 80.659876,25.95019 a 33.827297,12.167131 0 1 1 -0.0036,-0.01675 l -33.725931,0.941216 z"
     sodipodi:start="6.2071318"
     sodipodi:end="12.488936"
     transform="matrix(1,0,0,1.5219531,1.464029,-12.959639)" />
  <path
     style="fill:#4d4d4d;fill-rule:evenodd;stroke:none;filter:url(#filter4022);opacity:0.89919355"
     d="m 45.56998,60.07346 c 0,0 -3.970828,2.836306 -3.025393,6.42896 0.945435,3.592654 7.563482,8.887091 13.614268,9.265265 6.050785,0.378174 1.512696,5.672612 1.512696,5.672612 l 5.861699,-4.538089 c 0,0 3.970828,0.945435 8.698004,0.567261 4.727176,-0.378174 9.076179,-3.21448 8.887092,-6.996221 -0.189087,-3.781741 -22.50136,-9.454353 -22.50136,-9.454353"
     id="path4018"
     inkscape:connector-curvature="0" />
  <g
     id="g3203"
     transform="translate(-2.4581317,0.18908705)">
    <path
       sodipodi:nodetypes="zcccszz"
       inkscape:connector-curvature="0"
       id="path3153-2"
       d="M 87.397259,63.168221 C 86.126454,73.78148 71.32486,71.58259 71.32486,71.58259 c 0,0 -0.850892,5.8617 -7.279852,7.18531 1.796327,-2.26904 3.025393,-4.25446 2.836305,-6.61804 C 61.870507,71.67714 49.674392,73.00075 47.594435,63.830025 46.359403,58.38465 53.990418,50.239059 66.219509,48.892148 78.4486,47.545237 88.668064,52.554959 87.397259,63.168221 z"
       style="fill:#ffffff;fill-rule:evenodd;stroke:none" />
    <path
       sodipodi:nodetypes="zcccszz"
       inkscape:connector-curvature="0"
       inkscape:original-d="m 87.830936,63.571571 c -1.270805,10.613261 -16.072399,8.414373 -16.072399,8.414373 0,0 -0.850892,5.861699 -7.279852,7.185308 1.796327,-2.269044 3.025393,-4.254459 2.836305,-6.618046 C 62.304184,72.080488 50.108069,73.404098 48.028112,64.233375 46.793079,58.788 54.424095,50.642409 66.653186,49.295498 c 12.229091,-1.346911 22.448555,3.662811 21.17775,14.276073 z"
       inkscape:path-effect="#path-effect3155"
       id="path3153"
       d="m 87.830936,63.571571 c 0.08317,0.01 0.141867,0.638855 -0.133248,1.781391 -0.137557,0.571269 -0.368128,1.268573 -0.773718,2.028409 -0.40559,0.759836 -0.987022,1.584481 -1.840347,2.336624 -0.688199,0.593955 -1.517216,1.134534 -2.474451,1.585625 -0.957236,0.451092 -2.04334,0.812198 -3.207157,1.066289 -2.195069,0.0426 -4.626828,0.06289 -7.259924,0.06019 -7.4e-5,1.31e-4 -7.3e-5,1.31e-4 -7.1e-5,1.31e-4 0.008,-2.48e-4 0.01581,-3.85e-4 0.02368,-6.82e-4 0.02038,-4.35e-4 0.04061,-0.001 0.06078,-0.0017 0.07506,-0.0026 0.149228,-0.007 0.223085,-0.0132 10e-7,0 2e-6,0 4e-6,0 -0.05352,0.256599 -0.119522,0.508702 -0.19475,0.755846 -0.24477,0.806047 -0.595596,1.599578 -1.053721,2.351136 -1.491314,2.012437 -4.015294,3.477067 -6.979613,3.808075 -2e-6,0 -3e-6,0 -5e-6,0 0.691116,-0.972787 1.396018,-1.991662 1.903908,-3.042053 0.50789,-1.050391 0.818635,-2.132265 0.677284,-3.229351 -1.378909,0.0014 -2.837022,0.169032 -4.366639,0.249688 -1.969817,-0.07843 -4.014605,-0.239492 -6.077722,-0.689148 -1.97538,-0.421745 -4.005393,-1.159522 -5.755105,-2.493883 -1.026229,-0.800911 -1.875809,-1.809121 -2.509305,-2.946505 -0.477267,-0.856887 -0.82682,-1.777709 -1.040048,-2.724098 -0.378619,-1.808975 0.01465,-3.597294 0.746344,-5.086991 0.936302,-1.949841 2.329509,-3.557954 3.847535,-4.872207 2.216457,-1.923615 4.713419,-3.317364 7.264459,-4.291427 2.55104,-0.974063 5.155612,-1.528843 7.645605,-1.77433 3.126837,-0.329914 6.199902,-0.259631 8.942838,0.251163 2.742936,0.510793 5.157047,1.459536 7.140469,2.719971 1.103528,0.704506 2.046397,1.526604 2.807579,2.392036 0.761183,0.865431 1.34143,1.774247 1.757617,2.667249 0.821165,1.924495 0.923835,3.648781 0.901133,4.876676 -0.0227,1.227894 -0.177674,1.985385 -0.247311,2.238583 -0.02902,-0.0035 -0.02918,-0.0035 -0.02918,-0.0035 0,0 -1.61e-4,-1.9e-5 -0.02918,-0.0035 -0.0081,-0.260432 0.05209,-1.015284 -0.06217,-2.187549 -0.114254,-1.172266 -0.397653,-2.788528 -1.390386,-4.492223 -0.424192,-0.787938 -0.996138,-1.58078 -1.728215,-2.33054 -0.732077,-0.74976 -1.62502,-1.456543 -2.653044,-2.061347 -1.871195,-1.10727 -4.136931,-1.905074 -6.724702,-2.29855 -2.587772,-0.393475 -5.499418,-0.380631 -8.494663,-0.03626 -2.351018,0.287701 -4.793735,0.849944 -7.161179,1.783255 -2.367444,0.933311 -4.659034,2.237916 -6.651924,4.015017 -1.35961,1.215668 -2.583282,2.622262 -3.340601,4.255715 -0.557423,1.237766 -0.895742,2.599405 -0.592501,3.796812 0.174206,0.761843 0.456783,1.506294 0.83837,2.195931 0.506498,0.915384 1.180205,1.720718 1.985101,2.338259 1.396819,1.103049 3.163888,1.728114 4.960812,2.144659 1.883015,0.427262 3.817308,0.588843 5.737265,0.687642 1.752831,0.23021 3.530903,0.370483 5.303389,0.669225 0.06185,1.442922 -0.33224,2.742687 -0.925712,3.901907 -0.593472,1.15922 -1.386188,2.177925 -2.165706,3.062781 10e-7,0 2e-6,-10e-7 3e-6,-10e-7 2.177173,-0.727537 4.083096,-2.338042 5.104715,-4.342335 0.402679,-0.624372 0.718657,-1.289103 0.945634,-1.966891 0.06957,-0.208301 0.130232,-0.414229 0.178731,-0.617964 1e-6,-2e-6 3e-6,-5e-6 5e-6,-7e-6 0.102238,-0.134226 0.202882,-0.266882 0.301337,-0.398066 0.02645,-0.03524 0.05274,-0.07038 0.07879,-0.105416 0.01001,-0.01336 0.02002,-0.02685 0.02991,-0.04019 2e-6,-2e-6 4e-6,-5e-6 5e-6,-7e-6 2.89141,-0.17049 5.532301,-0.304162 7.885158,-0.399588 2.145767,-0.395743 3.954235,-1.14482 5.233684,-2.141377 0.801149,-0.608681 1.383812,-1.314898 1.817456,-1.98034 0.433645,-0.665443 0.719117,-1.292377 0.922004,-1.812516 0.405775,-1.040279 0.514452,-1.646498 0.597617,-1.63654 z"
       style="fill:#000000;fill-rule:evenodd;stroke:none" />
  </g>
</svg>
