<?xml version="1.0" encoding="UTF-8" standalone="no"?>
<!-- Created with Inkscape (http://www.inkscape.org/) -->

<svg
   xmlns:dc="http://purl.org/dc/elements/1.1/"
   xmlns:cc="http://creativecommons.org/ns#"
   xmlns:rdf="http://www.w3.org/1999/02/22-rdf-syntax-ns#"
   xmlns:svg="http://www.w3.org/2000/svg"
   xmlns="http://www.w3.org/2000/svg"
   xmlns:xlink="http://www.w3.org/1999/xlink"
   xmlns:sodipodi="http://sodipodi.sourceforge.net/DTD/sodipodi-0.dtd"
   xmlns:inkscape="http://www.inkscape.org/namespaces/inkscape"
   version="1.0"
   width="96"
   height="96"
   id="svg2408"
   inkscape:version="0.48.3.1 r9886"
   sodipodi:docname="applications-arcade.svg">
  <sodipodi:namedview
     pagecolor="#ffffff"
     bordercolor="#666666"
     borderopacity="1"
     objecttolerance="10"
     gridtolerance="10"
     guidetolerance="10"
     inkscape:pageopacity="0"
     inkscape:pageshadow="2"
     inkscape:window-width="1914"
     inkscape:window-height="1030"
     id="namedview542"
     showgrid="false"
     inkscape:zoom="2.6442847"
     inkscape:cx="-62.254445"
     inkscape:cy="-29.714433"
     inkscape:window-x="0"
     inkscape:window-y="26"
     inkscape:window-maximized="1"
     inkscape:current-layer="svg2408"
     inkscape:snap-global="false" />
  <defs
     id="defs2410">
    <linearGradient
       inkscape:collect="always"
       id="linearGradient3916">
      <stop
         style="stop-color:#ffffff;stop-opacity:1;"
         offset="0"
         id="stop3918" />
      <stop
         style="stop-color:#ffffff;stop-opacity:0;"
         offset="1"
         id="stop3920" />
    </linearGradient>
    <linearGradient
       id="linearGradient4390">
      <stop
         style="stop-color:#efefef;stop-opacity:1;"
         offset="0"
         id="stop4392" />
      <stop
         style="stop-color:#3b3b3b;stop-opacity:1;"
         offset="1"
         id="stop4394" />
    </linearGradient>
    <linearGradient
       id="linearGradient4328">
      <stop
         style="stop-color:#ffffff;stop-opacity:1;"
         offset="0"
         id="stop4330" />
      <stop
         style="stop-color:#a2a2a2;stop-opacity:0;"
         offset="1"
         id="stop4332" />
    </linearGradient>
    <linearGradient
       id="linearGradient4308">
      <stop
         style="stop-color:#03789e;stop-opacity:1;"
         offset="0"
         id="stop4310" />
      <stop
         style="stop-color:#15a8b7;stop-opacity:1;"
         offset="1"
         id="stop4312" />
    </linearGradient>
    <linearGradient
       x1="45.447727"
       y1="92.539597"
       x2="45.447727"
       y2="7.0165396"
       id="ButtonShadow"
       gradientUnits="userSpaceOnUse"
       gradientTransform="scale(1.0058652,0.994169)">
      <stop
         id="stop3750"
         style="stop-color:#000000;stop-opacity:1"
         offset="0" />
      <stop
         id="stop3752"
         style="stop-color:#000000;stop-opacity:0.58823532"
         offset="1" />
    </linearGradient>
    <linearGradient
       id="linearGradient3737">
      <stop
         id="stop3739"
         style="stop-color:#ffffff;stop-opacity:1"
         offset="0" />
      <stop
         id="stop3741"
         style="stop-color:#ffffff;stop-opacity:0"
         offset="1" />
    </linearGradient>
    <filter
       color-interpolation-filters="sRGB"
       id="filter3174">
      <feGaussianBlur
         id="feGaussianBlur3176"
         stdDeviation="1.71" />
    </filter>
    <linearGradient
       x1="36.357143"
       y1="6"
       x2="36.357143"
       y2="63.893143"
       id="linearGradient3188"
       xlink:href="#linearGradient3737"
       gradientUnits="userSpaceOnUse" />
    <filter
       x="-0.192"
       y="-0.192"
       width="1.3839999"
       height="1.3839999"
       color-interpolation-filters="sRGB"
       id="filter3794">
      <feGaussianBlur
         id="feGaussianBlur3796"
         stdDeviation="5.28" />
    </filter>
    <linearGradient
       x1="48"
       y1="20.220806"
       x2="48"
       y2="138.66119"
       id="linearGradient3613"
       xlink:href="#linearGradient3737"
       gradientUnits="userSpaceOnUse" />
    <radialGradient
       cx="48"
       cy="90.171875"
       r="42"
       fx="48"
       fy="90.171875"
       id="radialGradient3619"
       xlink:href="#linearGradient3737"
       gradientUnits="userSpaceOnUse"
       gradientTransform="matrix(1.1573129,0,0,0.99590774,-7.5510206,0.19713193)" />
    <clipPath
       id="clipPath3613">
      <rect
         width="84"
         height="84"
         rx="6"
         ry="6"
         x="6"
         y="6"
         id="rect3615"
         style="fill:#ffffff;fill-opacity:1;fill-rule:nonzero;stroke:none" />
    </clipPath>
    <linearGradient
       x1="48"
       y1="90"
       x2="48"
       y2="5.9877172"
       id="linearGradient3617"
       xlink:href="#linearGradient3187"
       gradientUnits="userSpaceOnUse" />
    <linearGradient
       id="linearGradient3187">
      <stop
         id="stop3189"
         style="stop-color:#a2703a;stop-opacity:1"
         offset="0" />
      <stop
         id="stop3191"
         style="stop-color:#d9b27b;stop-opacity:1"
         offset="1" />
    </linearGradient>
    <linearGradient
       x1="136.41356"
       y1="115.49392"
       x2="149.52968"
       y2="115.49392"
       id="linearGradient3843"
       xlink:href="#linearGradient3485"
       gradientUnits="userSpaceOnUse" />
    <linearGradient
       id="linearGradient3485">
      <stop
         id="stop3487"
         style="stop-color:#e6605b;stop-opacity:1"
         offset="0" />
      <stop
         id="stop3489"
         style="stop-color:#f08682;stop-opacity:1"
         offset="1" />
    </linearGradient>
    <filter
       x="-0.42857143"
       y="-0.16666667"
       width="1.8571428"
       height="1.3333333"
       color-interpolation-filters="sRGB"
       id="filter3495">
      <feGaussianBlur
         stdDeviation="0.55242721"
         id="feGaussianBlur3497" />
    </filter>
    <filter
       x="-0.18344349"
       y="-0.17668343"
       width="1.366887"
       height="1.3533669"
       color-interpolation-filters="sRGB"
       id="filter3509">
      <feGaussianBlur
         stdDeviation="0.65925"
         id="feGaussianBlur3511" />
    </filter>
    <linearGradient
       x1="137.40625"
       y1="116.46875"
       x2="148.53125"
       y2="116.46875"
       id="linearGradient3845"
       xlink:href="#linearGradient3339"
       gradientUnits="userSpaceOnUse"
       gradientTransform="matrix(1.0893815,0,0,1,-13.275943,0)" />
    <linearGradient
       id="linearGradient3339">
      <stop
         id="stop3341"
         style="stop-color:#000000;stop-opacity:1"
         offset="0" />
      <stop
         id="stop3347"
         style="stop-color:#000000;stop-opacity:0.49803922"
         offset="0.69999999" />
      <stop
         id="stop3343"
         style="stop-color:#000000;stop-opacity:0"
         offset="1" />
    </linearGradient>
    <linearGradient
       x1="136"
       y1="60"
       x2="150"
       y2="60"
       id="linearGradient3847"
       xlink:href="#linearGradient3278"
       gradientUnits="userSpaceOnUse"
       gradientTransform="translate(-23.73343,0)" />
    <linearGradient
       id="linearGradient3278">
      <stop
         id="stop3280"
         style="stop-color:#945a00;stop-opacity:1"
         offset="0" />
      <stop
         id="stop3290"
         style="stop-color:#e28e0a;stop-opacity:1"
         offset="0.25" />
      <stop
         id="stop3286"
         style="stop-color:#ffba14;stop-opacity:1"
         offset="0.30000001" />
      <stop
         id="stop3288"
         style="stop-color:#f3ac00;stop-opacity:1"
         offset="0.69999999" />
      <stop
         id="stop3292"
         style="stop-color:#ffd314;stop-opacity:1"
         offset="0.75" />
      <stop
         id="stop3282"
         style="stop-color:#ffed94;stop-opacity:1"
         offset="1" />
    </linearGradient>
    <linearGradient
       x1="143"
       y1="2.4000001e-06"
       x2="143"
       y2="120.01752"
       id="linearGradient3849"
       xlink:href="#linearGradient3254"
       gradientUnits="userSpaceOnUse"
       gradientTransform="translate(-23.73343,0)" />
    <linearGradient
       id="linearGradient3254">
      <stop
         id="stop3256"
         style="stop-color:#000000;stop-opacity:1"
         offset="0" />
      <stop
         id="stop3266"
         style="stop-color:#000000;stop-opacity:1"
         offset="0.06588447" />
      <stop
         id="stop3264"
         style="stop-color:#ad5f1b;stop-opacity:1"
         offset="0.07" />
      <stop
         id="stop3268"
         style="stop-color:#ad601a;stop-opacity:1"
         offset="0.1913653" />
      <stop
         id="stop3262"
         style="stop-color:#785800;stop-opacity:1"
         offset="0.20983393" />
      <stop
         id="stop3258"
         style="stop-color:#785700;stop-opacity:1"
         offset="1" />
    </linearGradient>
    <linearGradient
       x1="141.25002"
       y1="4.9218717"
       x2="144.81252"
       y2="4.9218717"
       id="linearGradient3851"
       xlink:href="#linearGradient3394"
       gradientUnits="userSpaceOnUse"
       gradientTransform="translate(-23.73343,0)" />
    <linearGradient
       id="linearGradient3394">
      <stop
         id="stop3396"
         style="stop-color:#000000;stop-opacity:1"
         offset="0" />
      <stop
         id="stop3402"
         style="stop-color:#7d7d7d;stop-opacity:1"
         offset="0.5" />
      <stop
         id="stop3398"
         style="stop-color:#000000;stop-opacity:1"
         offset="1" />
    </linearGradient>
    <linearGradient
       x1="136.98804"
       y1="17.043356"
       x2="148.99513"
       y2="17.043356"
       id="linearGradient3853"
       xlink:href="#linearGradient3308"
       gradientUnits="userSpaceOnUse"
       gradientTransform="translate(-23.73343,0)" />
    <linearGradient
       id="linearGradient3308">
      <stop
         id="stop3310"
         style="stop-color:#da8539;stop-opacity:1"
         offset="0" />
      <stop
         id="stop3312"
         style="stop-color:#fadfc7;stop-opacity:1"
         offset="1" />
    </linearGradient>
    <linearGradient
       x1="146.10596"
       y1="118.94019"
       x2="146.07562"
       y2="66"
       id="linearGradient3855"
       xlink:href="#linearGradient5452"
       gradientUnits="userSpaceOnUse"
       gradientTransform="matrix(1,0,0,1.2653524,-23.73343,-54.364173)" />
    <linearGradient
       id="linearGradient5452">
      <stop
         id="stop5454"
         style="stop-color:#ffffff;stop-opacity:1"
         offset="0" />
      <stop
         id="stop5456"
         style="stop-color:#ffffff;stop-opacity:0"
         offset="1" />
    </linearGradient>
    <linearGradient
       x1="146.10596"
       y1="118.94019"
       x2="146.07562"
       y2="66"
       id="linearGradient3857"
       xlink:href="#linearGradient5452"
       gradientUnits="userSpaceOnUse"
       gradientTransform="matrix(1,0,0,1.2653524,-29.85843,-54.364173)" />
    <filter
       x="-0.43161276"
       y="-0.11371106"
       width="1.8632255"
       height="1.2274221"
       color-interpolation-filters="sRGB"
       id="filter3382">
      <feGaussianBlur
         stdDeviation="0.73914765"
         id="feGaussianBlur3384" />
    </filter>
    <filter
       x="-0.60979599"
       y="-0.1494"
       width="2.2195919"
       height="1.2988"
       color-interpolation-filters="sRGB"
       id="filter3390">
      <feGaussianBlur
         stdDeviation="0.77812506"
         id="feGaussianBlur3392" />
    </filter>
    <linearGradient
       x1="136"
       y1="106"
       x2="150"
       y2="106"
       id="linearGradient3859"
       xlink:href="#linearGradient3401"
       gradientUnits="userSpaceOnUse" />
    <linearGradient
       id="linearGradient3401">
      <stop
         id="stop3403"
         style="stop-color:#404040;stop-opacity:1"
         offset="0" />
      <stop
         id="stop3447"
         style="stop-color:#808080;stop-opacity:1"
         offset="0.2" />
      <stop
         id="stop3410"
         style="stop-color:#efefef;stop-opacity:1"
         offset="0.69999999" />
      <stop
         id="stop3405"
         style="stop-color:#dcdcdc;stop-opacity:1"
         offset="1" />
    </linearGradient>
    <linearGradient
       x1="136"
       y1="106"
       x2="150"
       y2="106"
       id="linearGradient3861"
       xlink:href="#linearGradient3461"
       gradientUnits="userSpaceOnUse" />
    <linearGradient
       id="linearGradient3461">
      <stop
         id="stop3463"
         style="stop-color:#444542;stop-opacity:1"
         offset="0" />
      <stop
         id="stop3465"
         style="stop-color:#71746e;stop-opacity:1"
         offset="1" />
    </linearGradient>
    <linearGradient
       x1="142.95775"
       y1="98.950562"
       x2="148.95775"
       y2="98.950562"
       id="linearGradient3863"
       xlink:href="#linearGradient3339"
       gradientUnits="userSpaceOnUse"
       gradientTransform="translate(0.04225159,1.5494389)"
       spreadMethod="reflect" />
    <linearGradient
       x1="142.95775"
       y1="98.950562"
       x2="148.95775"
       y2="98.950562"
       id="linearGradient3865"
       xlink:href="#linearGradient3355"
       gradientUnits="userSpaceOnUse"
       gradientTransform="translate(0.04225159,2.5494389)"
       spreadMethod="reflect" />
    <linearGradient
       id="linearGradient3355">
      <stop
         id="stop3357"
         style="stop-color:#ffffff;stop-opacity:1"
         offset="0" />
      <stop
         id="stop3359"
         style="stop-color:#ffffff;stop-opacity:0.49803922"
         offset="0.69999999" />
      <stop
         id="stop3361"
         style="stop-color:#ffffff;stop-opacity:0"
         offset="1" />
    </linearGradient>
    <linearGradient
       x1="142.95775"
       y1="98.950562"
       x2="148.95775"
       y2="98.950562"
       id="linearGradient3867"
       xlink:href="#linearGradient3339"
       gradientUnits="userSpaceOnUse"
       gradientTransform="translate(0.04225159,3.5494389)"
       spreadMethod="reflect" />
    <linearGradient
       x1="142.95775"
       y1="98.950562"
       x2="148.95775"
       y2="98.950562"
       id="linearGradient3869"
       xlink:href="#linearGradient3355"
       gradientUnits="userSpaceOnUse"
       gradientTransform="translate(0.04225159,4.5494389)"
       spreadMethod="reflect" />
    <linearGradient
       x1="142.95775"
       y1="98.950562"
       x2="148.95775"
       y2="98.950562"
       id="linearGradient3871"
       xlink:href="#linearGradient3339"
       gradientUnits="userSpaceOnUse"
       gradientTransform="translate(0.04225159,9.5494389)"
       spreadMethod="reflect" />
    <linearGradient
       x1="142.95775"
       y1="98.950562"
       x2="148.95775"
       y2="98.950562"
       id="linearGradient3873"
       xlink:href="#linearGradient3355"
       gradientUnits="userSpaceOnUse"
       gradientTransform="translate(0.04225159,10.549439)"
       spreadMethod="reflect" />
    <linearGradient
       x1="142.95775"
       y1="98.950562"
       x2="148.95775"
       y2="98.950562"
       id="linearGradient3875"
       xlink:href="#linearGradient3339"
       gradientUnits="userSpaceOnUse"
       gradientTransform="translate(0.04225159,11.549439)"
       spreadMethod="reflect" />
    <linearGradient
       x1="142.95775"
       y1="98.950562"
       x2="148.95775"
       y2="98.950562"
       id="linearGradient3877"
       xlink:href="#linearGradient3355"
       gradientUnits="userSpaceOnUse"
       gradientTransform="translate(0.04225159,12.549439)"
       spreadMethod="reflect" />
    <linearGradient
       x1="137"
       y1="106"
       x2="139.03125"
       y2="106"
       id="linearGradient3879"
       xlink:href="#linearGradient3439"
       gradientUnits="userSpaceOnUse"
       spreadMethod="repeat" />
    <linearGradient
       id="linearGradient3439">
      <stop
         id="stop3441"
         style="stop-color:#afafaf;stop-opacity:1;"
         offset="0" />
      <stop
         id="stop3443"
         style="stop-color:#ffffff;stop-opacity:1"
         offset="1" />
    </linearGradient>
    <filter
       x="-1.0349605"
       y="-0.13573837"
       width="3.069921"
       height="1.2714767"
       color-interpolation-filters="sRGB"
       id="filter3451">
      <feGaussianBlur
         stdDeviation="0.9498173"
         id="feGaussianBlur3453" />
    </filter>
    <filter
       x="-0.93333328"
       y="-0.13770492"
       width="2.8666666"
       height="1.2754098"
       color-interpolation-filters="sRGB"
       id="filter3457">
      <feGaussianBlur
         stdDeviation="0.92807767"
         id="feGaussianBlur3459" />
    </filter>
    <linearGradient
       id="linearGradient4114">
      <stop
         id="stop4116"
         style="stop-color:#aaaaaa;stop-opacity:1"
         offset="0" />
      <stop
         id="stop4118"
         style="stop-color:#dcdcdc;stop-opacity:1"
         offset="1" />
    </linearGradient>
    <linearGradient
       id="linearGradient3465">
      <stop
         id="stop3467"
         style="stop-color:#919191;stop-opacity:1"
         offset="0" />
      <stop
         id="stop3469"
         style="stop-color:#fdfdfd;stop-opacity:1"
         offset="1" />
    </linearGradient>
    <filter
       x="-0.03906453"
       y="-0.14405686"
       width="1.0781291"
       height="1.2881137"
       color-interpolation-filters="sRGB"
       id="filter3294">
      <feGaussianBlur
         id="feGaussianBlur3296"
         stdDeviation="1.4293142" />
    </filter>
    <linearGradient
       id="linearGradient3929">
      <stop
         id="stop3931"
         style="stop-color:#000000;stop-opacity:1"
         offset="0" />
      <stop
         id="stop3933"
         style="stop-color:#000000;stop-opacity:0.58823532"
         offset="1" />
    </linearGradient>
    <linearGradient
       x1="31"
       y1="108"
       x2="31"
       y2="96"
       id="linearGradient4383"
       xlink:href="#linearGradient3929"
       gradientUnits="userSpaceOnUse" />
    <linearGradient
       x1="31"
       y1="108"
       x2="31"
       y2="96"
       id="linearGradient4385"
       xlink:href="#linearGradient3929"
       gradientUnits="userSpaceOnUse" />
    <linearGradient
       x1="31"
       y1="108"
       x2="31"
       y2="96"
       id="linearGradient4387"
       xlink:href="#linearGradient3929"
       gradientUnits="userSpaceOnUse" />
    <linearGradient
       x1="31"
       y1="108"
       x2="31"
       y2="96"
       id="linearGradient4389"
       xlink:href="#linearGradient3929"
       gradientUnits="userSpaceOnUse" />
    <linearGradient
       x1="31"
       y1="108"
       x2="31"
       y2="96"
       id="linearGradient4391"
       xlink:href="#linearGradient3929"
       gradientUnits="userSpaceOnUse" />
    <linearGradient
       x1="23.882524"
       y1="132.27245"
       x2="23.882524"
       y2="117.57551"
       id="linearGradient4393"
       xlink:href="#linearGradient3929"
       gradientUnits="userSpaceOnUse"
       gradientTransform="scale(1.2247449,0.8164966)" />
    <linearGradient
       x1="31"
       y1="108"
       x2="31"
       y2="96"
       id="linearGradient4395"
       xlink:href="#linearGradient3929"
       gradientUnits="userSpaceOnUse" />
    <linearGradient
       x1="31"
       y1="108"
       x2="31"
       y2="96"
       id="linearGradient4397"
       xlink:href="#linearGradient3929"
       gradientUnits="userSpaceOnUse" />
    <linearGradient
       x1="31"
       y1="108"
       x2="31"
       y2="96"
       id="linearGradient4399"
       xlink:href="#linearGradient3929"
       gradientUnits="userSpaceOnUse" />
    <linearGradient
       x1="31"
       y1="108"
       x2="31"
       y2="96"
       id="linearGradient4401"
       xlink:href="#linearGradient3929"
       gradientUnits="userSpaceOnUse" />
    <linearGradient
       x1="31"
       y1="108"
       x2="31"
       y2="96"
       id="linearGradient4403"
       xlink:href="#linearGradient3929"
       gradientUnits="userSpaceOnUse" />
    <linearGradient
       x1="31"
       y1="108"
       x2="31"
       y2="96"
       id="linearGradient4405"
       xlink:href="#linearGradient3929"
       gradientUnits="userSpaceOnUse" />
    <linearGradient
       x1="31"
       y1="108"
       x2="31"
       y2="96"
       id="linearGradient4407"
       xlink:href="#linearGradient3929"
       gradientUnits="userSpaceOnUse" />
    <linearGradient
       x1="31"
       y1="108"
       x2="31"
       y2="80"
       id="linearGradient4409"
       xlink:href="#linearGradient3929"
       gradientUnits="userSpaceOnUse"
       gradientTransform="matrix(0.5581553,0,0,0.5568189,76.116988,21.863559)" />
    <linearGradient
       x1="31"
       y1="108"
       x2="31"
       y2="96"
       id="linearGradient4411"
       xlink:href="#linearGradient3929"
       gradientUnits="userSpaceOnUse" />
    <linearGradient
       x1="-52.5"
       y1="-76.295921"
       x2="-52.5"
       y2="-52.312489"
       id="linearGradient4662"
       xlink:href="#linearGradient3465"
       gradientUnits="userSpaceOnUse"
       gradientTransform="matrix(0.44155423,0,0,0.44049701,89.110105,50.940509)" />
    <linearGradient
       x1="74.906487"
       y1="96.908859"
       x2="74.906487"
       y2="23.893446"
       id="linearGradient4668"
       xlink:href="#linearGradient4114"
       gradientUnits="userSpaceOnUse"
       gradientTransform="matrix(0.79109563,0,0,0.79109563,7.4608755,-7.514973)" />
    <linearGradient
       x1="84"
       y1="96"
       x2="84"
       y2="23.998264"
       id="linearGradient4670"
       xlink:href="#linearGradient3465"
       gradientUnits="userSpaceOnUse"
       gradientTransform="matrix(0.79109563,0,0,0.79109563,6.5958013,-7.9826252)" />
    <linearGradient
       x1="45.447727"
       y1="92.539597"
       x2="45.447727"
       y2="7.0165396"
       id="ButtonShadow-0"
       gradientUnits="userSpaceOnUse"
       gradientTransform="matrix(1.0058652,0,0,0.994169,100,0)">
      <stop
         id="stop3750-8"
         style="stop-color:#000000;stop-opacity:1"
         offset="0" />
      <stop
         id="stop3752-5"
         style="stop-color:#000000;stop-opacity:0.58823532"
         offset="1" />
    </linearGradient>
    <linearGradient
       x1="32.251034"
       y1="6.1317081"
       x2="32.251034"
       y2="90.238609"
       id="linearGradient3780"
       xlink:href="#ButtonShadow-0"
       gradientUnits="userSpaceOnUse"
       gradientTransform="matrix(1.0238095,0,0,1.0119048,-1.1428571,-98.071429)" />
    <linearGradient
       x1="32.251034"
       y1="6.1317081"
       x2="32.251034"
       y2="90.238609"
       id="linearGradient3772"
       xlink:href="#ButtonShadow-0"
       gradientUnits="userSpaceOnUse"
       gradientTransform="matrix(1.0238095,0,0,1.0119048,-1.1428571,-98.071429)" />
    <linearGradient
       x1="32.251034"
       y1="6.1317081"
       x2="32.251034"
       y2="90.238609"
       id="linearGradient3725"
       xlink:href="#ButtonShadow-0"
       gradientUnits="userSpaceOnUse"
       gradientTransform="matrix(1.0238095,0,0,1.0119048,-1.1428571,-98.071429)" />
    <linearGradient
       x1="32.251034"
       y1="6.1317081"
       x2="32.251034"
       y2="90.238609"
       id="linearGradient3721"
       xlink:href="#ButtonShadow-0"
       gradientUnits="userSpaceOnUse"
       gradientTransform="translate(0,-97)" />
    <linearGradient
       x1="32.251034"
       y1="6.1317081"
       x2="32.251034"
       y2="90.238609"
       id="linearGradient3811"
       xlink:href="#ButtonShadow-0"
       gradientUnits="userSpaceOnUse"
       gradientTransform="matrix(1.0238095,0,0,1.0119048,-1.1428571,-98.071429)" />
    <linearGradient
       inkscape:collect="always"
       xlink:href="#linearGradient4308-7"
       id="linearGradient4350-8"
       gradientUnits="userSpaceOnUse"
       x1="152.95821"
       y1="7.220057"
       x2="153.49303"
       y2="90.384399"
       gradientTransform="matrix(0.88161209,0,0,1.0524691,14.531717,-4.8125451)" />
    <linearGradient
       id="linearGradient4308-7">
      <stop
         style="stop-color:#03789e;stop-opacity:1;"
         offset="0"
         id="stop4310-3" />
      <stop
         style="stop-color:#15a8b7;stop-opacity:1;"
         offset="1"
         id="stop4312-1" />
    </linearGradient>
    <linearGradient
       inkscape:collect="always"
       xlink:href="#linearGradient4390"
       id="linearGradient4443"
       gradientUnits="userSpaceOnUse"
       x1="173.08191"
       y1="7.034543"
       x2="187.12892"
       y2="49.957302" />
    <linearGradient
       inkscape:collect="always"
       xlink:href="#linearGradient4390"
       id="linearGradient4445"
       gradientUnits="userSpaceOnUse"
       x1="150.01329"
       y1="24.997812"
       x2="169.35474"
       y2="24.997812" />
    <linearGradient
       inkscape:collect="always"
       xlink:href="#linearGradient4390"
       id="linearGradient4448"
       gradientUnits="userSpaceOnUse"
       gradientTransform="matrix(0.93716497,0,0,0.94922694,-143.48992,45.474442)"
       x1="209.89029"
       y1="49.129711"
       x2="165.88618"
       y2="-41.924999" />
    <linearGradient
       inkscape:collect="always"
       xlink:href="#linearGradient3439"
       id="linearGradient4455"
       gradientUnits="userSpaceOnUse"
       gradientTransform="matrix(0.78571623,0,0,0.95499231,-73.924858,0.59053988)"
       x1="157.4791"
       y1="36.232529"
       x2="153.49303"
       y2="90.384399" />
    <linearGradient
       inkscape:collect="always"
       xlink:href="#linearGradient3916"
       id="linearGradient3922"
       x1="47.597473"
       y1="14.573833"
       x2="48.402527"
       y2="36.501408"
       gradientUnits="userSpaceOnUse" />
    <linearGradient
       inkscape:collect="always"
       xlink:href="#linearGradient4390"
       id="linearGradient3927"
       gradientUnits="userSpaceOnUse"
       x1="150.01329"
       y1="24.997812"
       x2="169.35474"
       y2="24.997812"
       gradientTransform="matrix(1.0011307,0.36973275,-0.36973275,1.0011307,-198.06362,-55.938498)" />
    <linearGradient
       inkscape:collect="always"
       xlink:href="#linearGradient4390"
       id="linearGradient3930"
       gradientUnits="userSpaceOnUse"
       x1="173.08191"
       y1="7.034543"
       x2="187.12892"
       y2="49.957302"
       gradientTransform="matrix(1.0011307,0.36973275,-0.36973275,1.0011307,-198.06362,-55.938498)" />
    <filter
       inkscape:collect="always"
       id="filter3956"
       x="-0.31476212"
       width="1.6295242"
       y="-0.91115474"
       height="2.8223095">
      <feGaussianBlur
         inkscape:collect="always"
         stdDeviation="5.7869897"
         id="feGaussianBlur3958" />
    </filter>
    <linearGradient
       inkscape:collect="always"
       xlink:href="#linearGradient3465"
       id="linearGradient4010"
       x1="-35.727104"
       y1="54.809574"
       x2="0.68618292"
       y2="54.809574"
       gradientUnits="userSpaceOnUse" />
    <linearGradient
       inkscape:collect="always"
       xlink:href="#linearGradient3465"
       id="linearGradient4018"
       x1="-64.471199"
       y1="46.898396"
       x2="-60.953289"
       y2="39.145824"
       gradientUnits="userSpaceOnUse" />
  </defs>
  <metadata
     id="metadata2413">
    <rdf:RDF>
      <cc:Work
         rdf:about="">
        <dc:format>image/svg+xml</dc:format>
        <dc:type
           rdf:resource="http://purl.org/dc/dcmitype/StillImage" />
        <dc:title></dc:title>
      </cc:Work>
    </rdf:RDF>
  </metadata>
  <g
     id="layer2"
     style="display:none">
    <rect
       width="86"
       height="85"
       rx="6"
       ry="6"
       x="5"
       y="7"
       id="rect3745"
       style="opacity:0.9;fill:url(#ButtonShadow);fill-opacity:1;fill-rule:nonzero;stroke:none;filter:url(#filter3174)" />
  </g>
  <rect
     style="fill:url(#linearGradient4455);fill-opacity:1;stroke:none"
     id="rect3538"
     width="83.412865"
     height="82.74118"
     x="6.5464892"
     y="5.442646"
     ry="6.1289759" />
  <path
     sodipodi:type="arc"
     style="fill:#ffffff;fill-opacity:1;stroke:none;filter:url(#filter3956)"
     id="path4316"
     sodipodi:cx="157.90529"
     sodipodi:cy="72.86908"
     sodipodi:rx="32.249771"
     sodipodi:ry="14.39899"
     d="m 190.06184,71.775041 a 32.249771,14.39899 0 1 1 -0.0612,-0.313381"
     sodipodi:start="6.2071318"
     sodipodi:end="12.46847"
     sodipodi:open="true"
     transform="matrix(0.99735675,0,0,1.0652476,-111.15312,-12.667378)" />
  <rect
     style="fill:none;stroke:url(#linearGradient4448);stroke-width:4.76155089999999959;stroke-miterlimit:4;stroke-dasharray:none"
     id="rect3538-4"
     width="87.712372"
     height="86.556808"
     x="4.1174908"
     y="4.7343626"
     ry="6.4116149" />
  <g
     id="g4209"
     transform="translate(-72.042167,-8.1307432)">
    <path
       sodipodi:nodetypes="ccssssc"
       inkscape:connector-curvature="0"
       id="path4410"
       d="M 44.138758,49.196922 12.334165,71.887687 c 0,0 -7.331205,4.494795 -3.15014,10.000816 4.75119,6.256811 8.453139,1.207074 11.612294,-0.429014 3.919031,-2.029619 27.944072,-19.207218 31.142445,-21.757124 2.097675,-1.672373 5.298273,-4.810301 1.70223,-9.749172 -1.96954,-2.705002 -9.502236,-0.756271 -9.502236,-0.756271 z"
       style="fill:#d40000;stroke:#000000;stroke-width:1.20000005;stroke-miterlimit:4;stroke-opacity:1;stroke-dasharray:none" />
    <path
       sodipodi:nodetypes="ccscsc"
       inkscape:connector-curvature="0"
       id="path4432"
       d="m 54.371899,52.335506 -42.94534,29.96678 c 0,0 1.13462,2.207584 4.677222,1.089766 2.19957,-0.694037 33.92937,-23.230645 33.92937,-23.230645 0,0 4.093302,-3.059889 4.712347,-4.408679 0.790583,-1.722542 -0.373599,-3.417224 -0.373599,-3.417222 z"
       style="fill:#aa0000;fill-opacity:1;stroke:none" />
    <path
       sodipodi:nodetypes="zccssscz"
       inkscape:connector-curvature="0"
       id="path4434"
       d="M 53.917406,50.786941 C 51.918321,48.183197 47.313978,48.491905 44.260334,50.089757 33.25408,57.846882 22.166787,65.526636 11.051682,73.155936 c 0,0 -3.0809361,2.331014 -2.6771761,3.867671 0.403766,1.536658 1.585496,-1.632209 4.7753761,-3.506732 3.189865,-1.874522 30.824573,-22.316375 33.875963,-23.091009 5.603932,-1.422629 7.895512,5.579717 7.895512,5.579717 0,0 0.995133,-2.614896 -1.003951,-5.218642 z"
       style="fill:#ff8080;fill-opacity:1;stroke:none" />
  </g>
  <path
     style="fill:#000000;fill-opacity:1;stroke:none"
     d="m 68.348212,22.34767 c -0.08984,0 -0.153636,0.0809 -0.153636,0.17071 l 0,6.91374 c -0.04018,-0.0402 -0.09254,-0.0683 -0.153635,-0.0683 l -6.930816,0 c -0.122199,0 -0.221925,0.0997 -0.221925,0.22192 l 0,6.91375 -20.229109,0 0,-6.77718 c 0,-0.12219 -0.09973,-0.20485 -0.221918,-0.20485 l -6.947893,0 c -0.05193,0 -0.102223,0.008 -0.136565,0.0342 l 0,-6.89668 c 0,-0.0898 -0.08086,-0.15364 -0.170706,-0.15364 l -7.050318,0 c -0.08984,0 -0.153635,0.0637 -0.153635,0.15364 l 0,6.98203 c 0,0.0898 0.06375,0.17071 0.153635,0.17071 l 7.050318,0 c 0.03949,0 0.07434,-0.0279 0.102423,-0.0512 l 0,6.74304 -6.367477,0 c -0.345037,0 -0.61455,0.26952 -0.61455,0.61455 l 0,6.41869 -6.589395,0 c -0.172515,0 -0.307279,0.13476 -0.307279,0.30728 l 0,6.79425 c -0.07442,-0.0486 -0.160204,-0.0854 -0.256067,-0.0854 l -6.43576,0 c -0.262365,0 -0.477985,0.21562 -0.477985,0.47799 l 0,20.36567 c 0,0.26237 0.21562,0.47799 0.477985,0.47799 l 6.43576,0 c 0.262365,0 0.477985,-0.21562 0.477985,-0.47799 l 0,-13.86163 c 0.02805,0.008 0.05433,0.0171 0.08536,0.0171 l 6.589395,0 0,5.56514 c -0.0238,0.0321 -0.03416,0.0763 -0.03416,0.11949 l 0,8.2965 c 0,0.10692 0.08086,0.20485 0.187777,0.20485 l 6.606466,0 0,6.7601 c 0,0.0898 0.06375,0.17072 0.153643,0.17072 l 13.929914,0 c 0.08984,0 0.153635,-0.0809 0.153635,-0.17072 l 0,-6.96495 c 0,-0.0898 -0.06375,-0.17071 -0.153635,-0.17071 l -13.503141,0 0,-6.81132 34.10781,0 0,6.72596 c 0,0.0583 0.01662,0.11218 0.05124,0.15364 l -13.554352,0 c -0.08985,0 -0.153643,0.0809 -0.153643,0.17071 l 0,6.98203 c 0,0.0899 0.06375,0.15364 0.153643,0.15364 l 13.929914,0 c 0.08984,0 0.153635,-0.0638 0.153635,-0.15364 l 0,-6.98203 c 0,-0.0314 -0.0015,-0.0606 -0.01708,-0.0854 l 6.572325,0 c 0.132082,0 0.238996,-0.10692 0.238996,-0.239 l 0,-7.11859 c 0.03223,-0.0754 0.05124,-0.15273 0.05124,-0.239 l 0,-6.28212 6.725968,0 c 0.0306,0 0.05788,-0.009 0.08535,-0.0171 l 0,13.6397 c 0,0.26237 0.21562,0.47799 0.477985,0.47799 l 6.435761,0 c 0.262365,0 0.477985,-0.21562 0.477985,-0.47799 l 0,-20.38274 c 0,-0.26237 -0.21562,-0.47799 -0.477985,-0.47799 l -6.435761,0 c -0.09586,0 -0.181664,0.0368 -0.256059,0.0854 l 0,-6.77718 c 0,-0.17521 -0.132075,-0.32435 -0.307279,-0.32435 l -6.725968,0 0,-6.26505 c 0,-0.34503 -0.286592,-0.61455 -0.631628,-0.61455 l -6.282117,0 0,-6.8796 c 0.02496,0.0157 0.05363,0.0341 0.08535,0.0341 l 7.050318,0 c 0.08984,0 0.170706,-0.0637 0.170706,-0.15363 l 0,-6.98204 c 0,-0.0898 -0.08086,-0.1707 -0.170706,-0.1707 l -7.050318,0 z m -34.261445,19.71698 9.406108,0 c 0.345036,0 0.631628,0.28659 0.631628,0.63162 l 0,4.59209 c 0,0.34504 -0.286592,0.63163 -0.631628,0.63163 l -9.406108,0 c -0.345037,0 -0.631629,-0.28659 -0.631629,-0.63163 l 0,-4.59209 c 0,-0.34503 0.286592,-0.63162 0.631629,-0.63162 z m 24.32614,0.15364 9.406108,0 c 0.345037,0 0.631628,0.26951 0.631628,0.61455 l 0,4.60916 c 0,0.34504 -0.286591,0.61456 -0.631628,0.61456 l -9.406108,0 c -0.345037,0 -0.631628,-0.26952 -0.631628,-0.61456 l 0,-4.60916 c 0,-0.34504 0.286591,-0.61455 0.631628,-0.61455 z"
     id="rect5251-2"
     inkscape:connector-curvature="0" />
  <path
     style="fill:#ffcc00;fill-opacity:1;stroke:none"
     d="m 65.397526,18.37906 c -0.08984,0 -0.153636,0.0809 -0.153636,0.17071 l 0,6.91374 c -0.04018,-0.0402 -0.09254,-0.0683 -0.153635,-0.0683 l -6.930816,0 c -0.122199,0 -0.221925,0.0997 -0.221925,0.22192 l 0,6.91375 -20.229109,0 0,-6.77718 c 0,-0.12219 -0.09973,-0.20485 -0.221918,-0.20485 l -6.947893,0 c -0.05193,0 -0.102223,0.008 -0.136565,0.0342 l 0,-6.89668 c 0,-0.0898 -0.08086,-0.15364 -0.170706,-0.15364 l -7.050318,0 c -0.08984,0 -0.153635,0.0637 -0.153635,0.15364 l 0,6.98203 c 0,0.0898 0.06375,0.17071 0.153635,0.17071 l 7.050318,0 c 0.03949,0 0.07434,-0.0279 0.102423,-0.0512 l 0,6.74304 -6.367477,0 c -0.345037,0 -0.61455,0.26952 -0.61455,0.61455 l 0,6.41869 -6.589395,0 c -0.172515,0 -0.307279,0.13476 -0.307279,0.30728 l 0,6.79425 c -0.07442,-0.0486 -0.160204,-0.0854 -0.256067,-0.0854 l -6.43576,0 c -0.2623651,0 -0.4779849,0.21562 -0.4779849,0.47799 l 0,20.36567 c 0,0.26237 0.2156198,0.47799 0.4779849,0.47799 l 6.43576,0 c 0.262365,0 0.477985,-0.21562 0.477985,-0.47799 l 0,-13.86163 c 0.02805,0.008 0.05433,0.0171 0.08536,0.0171 l 6.589395,0 0,5.56514 c -0.0238,0.0321 -0.03416,0.0763 -0.03416,0.11949 l 0,8.2965 c 0,0.10692 0.08086,0.20485 0.187777,0.20485 l 6.606466,0 0,6.7601 c 0,0.0898 0.06375,0.17072 0.153643,0.17072 l 13.929914,0 c 0.08984,0 0.153635,-0.0809 0.153635,-0.17072 l 0,-6.96495 c 0,-0.0898 -0.06375,-0.17071 -0.153635,-0.17071 l -13.503141,0 0,-6.81132 34.10781,0 0,6.72596 c 0,0.0583 0.01662,0.11218 0.05124,0.15364 l -13.554352,0 c -0.08985,0 -0.153643,0.0809 -0.153643,0.17071 l 0,6.98203 c 0,0.0899 0.06375,0.15364 0.153643,0.15364 l 13.929914,0 c 0.08984,0 0.153635,-0.0638 0.153635,-0.15364 l 0,-6.98203 c 0,-0.0314 -0.0015,-0.0606 -0.01708,-0.0854 l 6.572325,0 c 0.132082,0 0.238996,-0.10692 0.238996,-0.239 l 0,-7.11859 c 0.03223,-0.0754 0.05124,-0.15273 0.05124,-0.239 l 0,-6.28212 6.725968,0 c 0.0306,0 0.05788,-0.009 0.08535,-0.0171 l 0,13.6397 c 0,0.26237 0.21562,0.47799 0.477985,0.47799 l 6.435761,0 c 0.262365,0 0.477985,-0.21562 0.477985,-0.47799 l 0,-20.38274 c 0,-0.26237 -0.21562,-0.47799 -0.477985,-0.47799 l -6.435761,0 c -0.09586,0 -0.181664,0.0368 -0.256059,0.0854 l 0,-6.77718 c 0,-0.17521 -0.132075,-0.32435 -0.307279,-0.32435 l -6.725968,0 0,-6.26505 c 0,-0.34503 -0.286592,-0.61455 -0.631628,-0.61455 l -6.282117,0 0,-6.8796 c 0.02496,0.0157 0.05363,0.0341 0.08535,0.0341 l 7.050318,0 c 0.08984,0 0.170706,-0.0637 0.170706,-0.15363 l 0,-6.98204 c 0,-0.0898 -0.08086,-0.1707 -0.170706,-0.1707 l -7.050318,0 z m -34.261445,19.71698 9.406108,0 c 0.345036,0 0.631628,0.28659 0.631628,0.63162 l 0,4.59209 c 0,0.34504 -0.286592,0.63163 -0.631628,0.63163 l -9.406108,0 c -0.345037,0 -0.631629,-0.28659 -0.631629,-0.63163 l 0,-4.59209 c 0,-0.34503 0.286592,-0.63162 0.631629,-0.63162 z m 24.32614,0.15364 9.406108,0 c 0.345037,0 0.631628,0.26951 0.631628,0.61455 l 0,4.60916 c 0,0.34504 -0.286591,0.61456 -0.631628,0.61456 l -9.406108,0 c -0.345037,0 -0.631628,-0.26952 -0.631628,-0.61456 l 0,-4.60916 c 0,-0.34504 0.286591,-0.61455 0.631628,-0.61455 z"
     id="rect5251"
     inkscape:connector-curvature="0" />
  <path
     sodipodi:type="arc"
     style="opacity:0.90880001;fill:url(#linearGradient3922);fill-opacity:1;stroke:none"
     id="path3914"
     sodipodi:cx="46.930363"
     sodipodi:cy="26.874651"
     sodipodi:rx="33.827297"
     sodipodi:ry="12.167131"
     d="m 80.659876,25.95019 a 33.827297,12.167131 0 1 1 -0.0036,-0.01675 l -33.725931,0.941216 z"
     sodipodi:start="6.2071318"
     sodipodi:end="12.488936"
     transform="matrix(1,0,0,1.5219531,1.464029,-12.959639)" />
</svg>
