<?xml version="1.0" encoding="UTF-8" standalone="no"?>
<!-- Created with Inkscape (http://www.inkscape.org/) -->

<svg
   xmlns:dc="http://purl.org/dc/elements/1.1/"
   xmlns:cc="http://creativecommons.org/ns#"
   xmlns:rdf="http://www.w3.org/1999/02/22-rdf-syntax-ns#"
   xmlns:svg="http://www.w3.org/2000/svg"
   xmlns="http://www.w3.org/2000/svg"
   xmlns:xlink="http://www.w3.org/1999/xlink"
   xmlns:sodipodi="http://sodipodi.sourceforge.net/DTD/sodipodi-0.dtd"
   xmlns:inkscape="http://www.inkscape.org/namespaces/inkscape"
   width="256"
   height="256"
   id="svg2"
   version="1.1"
   inkscape:version="0.48.3.1 r9886"
   sodipodi:docname="emblem-mail.svg">
  <defs
     id="defs4">
    <linearGradient
       id="linearGradient3855">
      <stop
         style="stop-color:#ffffff;stop-opacity:1;"
         offset="0"
         id="stop3857" />
      <stop
         style="stop-color:#cacaca;stop-opacity:1;"
         offset="1"
         id="stop3859" />
    </linearGradient>
    <linearGradient
       id="linearGradient3771">
      <stop
         style="stop-color:#a0a0a0;stop-opacity:1;"
         offset="0"
         id="stop3773" />
      <stop
         style="stop-color:#f9f9f9;stop-opacity:1;"
         offset="1"
         id="stop3775" />
    </linearGradient>
    <linearGradient
       inkscape:collect="always"
       xlink:href="#linearGradient3771"
       id="linearGradient3777"
       x1="119.97789"
       y1="206.75124"
       x2="120.29483"
       y2="59.608379"
       gradientUnits="userSpaceOnUse"
       gradientTransform="translate(0.71428572,819.21932)" />
    <linearGradient
       inkscape:collect="always"
       xlink:href="#linearGradient3771"
       id="linearGradient3787"
       x1="147.14285"
       y1="157.79683"
       x2="145"
       y2="70.653976"
       gradientUnits="userSpaceOnUse"
       gradientTransform="translate(-2.1428572,799.93361)" />
    <linearGradient
       inkscape:collect="always"
       xlink:href="#linearGradient3771"
       id="linearGradient3797"
       x1="129.45903"
       y1="240.90103"
       x2="123.36222"
       y2="24.057644"
       gradientUnits="userSpaceOnUse" />
    <linearGradient
       id="linearGradient3771-5">
      <stop
         style="stop-color:#a0a0a0;stop-opacity:1;"
         offset="0"
         id="stop3773-8" />
      <stop
         style="stop-color:#f9f9f9;stop-opacity:1;"
         offset="1"
         id="stop3775-7" />
    </linearGradient>
    <linearGradient
       inkscape:collect="always"
       xlink:href="#linearGradient3771-5"
       id="linearGradient3797-7"
       x1="129.45903"
       y1="240.90103"
       x2="123.36222"
       y2="24.057644"
       gradientUnits="userSpaceOnUse" />
    <linearGradient
       id="linearGradient3815">
      <stop
         style="stop-color:#a0a0a0;stop-opacity:1;"
         offset="0"
         id="stop3817" />
      <stop
         style="stop-color:#f9f9f9;stop-opacity:1;"
         offset="1"
         id="stop3819" />
    </linearGradient>
    <linearGradient
       inkscape:collect="always"
       xlink:href="#linearGradient3855"
       id="linearGradient3861"
       x1="136.07143"
       y1="73.14286"
       x2="145.71429"
       y2="159.92857"
       gradientUnits="userSpaceOnUse"
       gradientTransform="translate(0.50507627,797.87741)" />
    <linearGradient
       inkscape:collect="always"
       xlink:href="#linearGradient3855-7"
       id="linearGradient3861-6"
       x1="136.07143"
       y1="73.14286"
       x2="147.14287"
       y2="179.92857"
       gradientUnits="userSpaceOnUse" />
    <linearGradient
       id="linearGradient3855-7">
      <stop
         style="stop-color:#ffffff;stop-opacity:1;"
         offset="0"
         id="stop3857-7" />
      <stop
         style="stop-color:#e2e2e2;stop-opacity:1;"
         offset="1"
         id="stop3859-2" />
    </linearGradient>
  </defs>
  <sodipodi:namedview
     id="base"
     pagecolor="#ffffff"
     bordercolor="#666666"
     borderopacity="1.0"
     inkscape:pageopacity="0.0"
     inkscape:pageshadow="2"
     inkscape:zoom="1.4"
     inkscape:cx="54.952519"
     inkscape:cy="108.58475"
     inkscape:document-units="px"
     inkscape:current-layer="layer1"
     showgrid="false"
     inkscape:window-width="1434"
     inkscape:window-height="850"
     inkscape:window-x="0"
     inkscape:window-y="26"
     inkscape:window-maximized="1" />
  <metadata
     id="metadata7">
    <rdf:RDF>
      <cc:Work
         rdf:about="">
        <dc:format>image/svg+xml</dc:format>
        <dc:type
           rdf:resource="http://purl.org/dc/dcmitype/StillImage" />
        <dc:title></dc:title>
      </cc:Work>
    </rdf:RDF>
  </metadata>
  <g
     inkscape:label="Layer 1"
     inkscape:groupmode="layer"
     id="layer1"
     transform="translate(0,-796.36218)">
    <path
       style="fill:url(#linearGradient3797);fill-opacity:1;stroke:none"
       d="m 35,85.999999 c 0,0 80.71429,-75.714286 87.14286,-75.714286 6.42857,0 98.70141,76.811096 98.70141,76.811096 L 220.71429,116 34.285714,110.28571 z"
       id="path3789"
       inkscape:connector-curvature="0"
       transform="translate(0,796.36218)"
       sodipodi:nodetypes="cscccc" />
    <path
       style="fill:url(#linearGradient3777);fill-opacity:1;stroke:none"
       d="m 38.798728,883.95385 179.655962,-0.0396 c 3.63343,-8e-4 3.483,1.19895 3.483,4.07474 l 0,125.96311 c 0,5.4012 -4.34824,9.7494 -9.74941,9.7494 l -168.389552,0 c -5.401172,0 -9.749408,-4.3482 -9.749408,-9.7494 l 0,-125.96311 c 0,-5.40117 -0.651764,-4.03393 4.749408,-4.03512 z"
       id="rect2993"
       inkscape:connector-curvature="0"
       sodipodi:nodetypes="cssssssssc" />
    <path
       style="fill:url(#linearGradient3787);fill-opacity:1;stroke:none"
       d="m 35,883.79075 c 0,0 78.43278,66.58344 91.78571,66.78571 12.86062,0.19481 92.85715,-66.42857 92.85715,-66.42857 z"
       id="path3779"
       inkscape:connector-curvature="0"
       sodipodi:nodetypes="cscc" />
    <path
       style="fill:#bcc9de;fill-opacity:1;stroke:none;opacity:0.419"
       d="m 39.901026,89.829906 c 0,0 77.276664,-72.730984 82.327434,-72.730984 5.05076,0 94.44926,71.720831 94.44926,71.720831 L 199.00006,103.46696 177.28177,121.14464 56.063466,103.46697 z"
       id="path3918"
       inkscape:connector-curvature="0"
       transform="translate(0,796.36218)"
       sodipodi:nodetypes="csccccc" />
    <path
       style="fill:url(#linearGradient3861);fill-opacity:1;stroke:none"
       d="m 53.823967,898.03314 -3.318891,-13.44145 145.000004,-36.42857 14.03318,42.72716 C 188.56199,907.78122 137.9171,949.56927 126.68111,950.176 114.53825,948.74743 53.823967,898.03314 53.823967,898.03314 z"
       id="path3853"
       inkscape:connector-curvature="0"
       sodipodi:nodetypes="cccccc" />
    <path
       style="fill:none;stroke:#000000;stroke-width:3.01377082;stroke-miterlimit:4;stroke-opacity:1;stroke-dasharray:none"
       d="m 122.00448,806.92649 c -6.45808,0 -87.556327,76.06632 -87.556327,76.06632 l -0.03139,1.4441 c -1.16204,0.0656 -0.91041,0.79041 -0.91041,4.20672 l 0,126.54697 c 0,5.426 4.368792,9.7948 9.794755,9.7948 l 169.147892,0 c 5.42596,0 9.79475,-4.3688 9.79475,-9.7948 l 0,-126.54697 c 0,-2.00068 0.0689,-3.19147 -1.09877,-3.73582 l 0,-0.81623 c 0,0 -7.55966,-6.27298 -18.11402,-14.94328 l -7.06352,-22.28935 -15.50837,3.89279 c -25.82368,-20.89545 -54.92685,-43.82525 -58.45459,-43.82525 z"
       id="path3789-5"
       inkscape:connector-curvature="0" />
    <path
       style="fill:none;stroke:#ff8080;stroke-width:3.29999995000000013;stroke-linecap:butt;stroke-linejoin:miter;stroke-miterlimit:4;stroke-opacity:1;stroke-dasharray:6.59999990000000025, 3.29999995000000013;stroke-dashoffset:5.60999991999999992"
       d="m 38.254531,889.27804 c 0,0 -0.67403,101.48548 -0.14793,130.11206 15.17331,-0.6679 153.964449,-0.3869 177.612019,-0.8517 1.42422,-16.6273 1.94416,-131.19401 1.94416,-131.19401"
       id="path3898-1"
       inkscape:connector-curvature="0"
       sodipodi:nodetypes="cccc" />
    <path
       style="fill:none;stroke:#bfbfeb;stroke-width:3.29999995;stroke-linecap:butt;stroke-linejoin:miter;stroke-miterlimit:4;stroke-opacity:1;stroke-dasharray:6.6, 3.3;stroke-dashoffset:0"
       d="m 38.196339,889.71796 c 0,0 -0.674037,101.48549 -0.147934,130.11204 15.173315,-0.6679 153.964465,-0.3869 177.612035,-0.8517 1.42422,-16.6273 1.94416,-131.19398 1.94416,-131.19398"
       id="path3898"
       inkscape:connector-curvature="0"
       sodipodi:nodetypes="cccc" />
    <path
       style="fill:none;stroke:#a3a3a3;stroke-width:1px;stroke-linecap:butt;stroke-linejoin:miter;stroke-opacity:1"
       d="M 36.785714,225.64286 127.5,153.85714 l 90,72.5"
       id="path3920"
       inkscape:connector-curvature="0"
       transform="translate(0,796.36218)" />
    <flowRoot
       xml:space="preserve"
       id="flowRoot3922"
       style="font-size:40px;font-style:normal;font-variant:normal;font-weight:normal;font-stretch:normal;line-height:125%;letter-spacing:0px;word-spacing:0px;fill:#939393;fill-opacity:1;stroke:none;font-family:Asap;-inkscape-font-specification:Asap"
       transform="matrix(1.9455046,0,0,1.9455046,-95.688607,658.25073)"><flowRegion
         id="flowRegion3924"><rect
           id="rect3926"
           width="84.285713"
           height="63.57143"
           x="97.85714"
           y="100.28571"
           style="fill:#939393;fill-opacity:1" /></flowRegion><flowPara
         id="flowPara3928">@</flowPara></flowRoot>  </g>
</svg>
