<?xml version="1.0" encoding="UTF-8" standalone="no"?>
<!-- Created with Inkscape (http://www.inkscape.org/) -->

<svg
   xmlns:dc="http://purl.org/dc/elements/1.1/"
   xmlns:cc="http://creativecommons.org/ns#"
   xmlns:rdf="http://www.w3.org/1999/02/22-rdf-syntax-ns#"
   xmlns:svg="http://www.w3.org/2000/svg"
   xmlns="http://www.w3.org/2000/svg"
   xmlns:sodipodi="http://sodipodi.sourceforge.net/DTD/sodipodi-0.dtd"
   xmlns:inkscape="http://www.inkscape.org/namespaces/inkscape"
   width="256"
   height="256"
   id="svg2"
   version="1.1"
   inkscape:version="0.92.1 r15371"
   sodipodi:docname="desktop-symbolic.svg">
  <defs
     id="defs4" />
  <sodipodi:namedview
     id="base"
     pagecolor="#ffffff"
     bordercolor="#666666"
     borderopacity="1.0"
     inkscape:pageopacity="0.0"
     inkscape:pageshadow="2"
     inkscape:zoom="0.98994949"
     inkscape:cx="-4.1917857"
     inkscape:cy="66.92551"
     inkscape:document-units="px"
     inkscape:current-layer="layer1"
     showgrid="false"
     showguides="true"
     inkscape:guide-bbox="true"
     inkscape:window-width="1918"
     inkscape:window-height="1023"
     inkscape:window-x="0"
     inkscape:window-y="26"
     inkscape:window-maximized="1" />
  <metadata
     id="metadata7">
    <rdf:RDF>
      <cc:Work
         rdf:about="">
        <dc:format>image/svg+xml</dc:format>
        <dc:type
           rdf:resource="http://purl.org/dc/dcmitype/StillImage" />
        <dc:title />
      </cc:Work>
    </rdf:RDF>
  </metadata>
  <g
     inkscape:label="Layer 1"
     inkscape:groupmode="layer"
     id="layer1"
     transform="translate(0,-796.3622)">
    <rect
       style="opacity:1;fill:#2a9f6a;fill-opacity:1;fill-rule:nonzero;stroke:none;stroke-width:5.14382744;stroke-linecap:round;stroke-linejoin:miter;stroke-miterlimit:4;stroke-dasharray:none;stroke-dashoffset:0;stroke-opacity:1;paint-order:fill markers stroke"
       id="rect4503"
       width="241.91673"
       height="166.49806"
       x="7.331028"
       y="840.82379"
       ry="8.3960285" />
    <g
       id="g4519"
       transform="matrix(6.4297841,0,0,6.4297841,-89.722344,-770.35498)"
       style="stroke:none;stroke-width:0.80000001;stroke-miterlimit:4;stroke-dasharray:none">
      <g
         style="stroke:none;stroke-width:0.9898088;stroke-miterlimit:4;stroke-dasharray:none"
         transform="matrix(0.80823691,0,0,-0.80823691,22.429979,253.61775)"
         id="g88-2-2-0-2">
        <path
           inkscape:connector-curvature="0"
           id="path90-0-6-6-8"
           style="fill:#822b86;fill-opacity:1;fill-rule:nonzero;stroke:none;stroke-width:0.9898088;stroke-miterlimit:4;stroke-dasharray:none"
           d="M 0,0 C -2.315,0 -4.193,-1.877 -4.193,-4.193 V -21.96 c 0.006,-1.413 1.15,-2.556 2.562,-2.563 h 31.659 c 1.413,0.007 2.557,1.15 2.564,2.563 V -4.193 C 32.592,-1.877 30.714,0 28.397,0 Z" />
      </g>
      <g
         transform="matrix(0.80823691,0,0,-0.80823691,28.780604,261.9665)"
         id="g92-2-9-8-9"
         style="stroke:none;stroke-width:0.9898088;stroke-miterlimit:4;stroke-dasharray:none">
        <path
           inkscape:connector-curvature="0"
           id="path94-3-4-9-7"
           style="fill:#2a9f6a;fill-opacity:1;fill-rule:nonzero;stroke:none;stroke-width:0.9898088;stroke-miterlimit:4;stroke-dasharray:none"
           d="m 0,0 h -0.666 c -0.811,0 -1.473,0.663 -1.473,1.473 v 0.666 c 0,0.81 0.662,1.473 1.473,1.473 H 0 c 0.811,0 1.474,-0.663 1.474,-1.473 V 1.473 C 1.474,0.663 0.811,0 0,0" />
      </g>
      <g
         transform="matrix(0.80823691,0,0,-0.80823691,34.777652,261.9665)"
         id="g96-7-8-2-3"
         style="stroke:none;stroke-width:0.9898088;stroke-miterlimit:4;stroke-dasharray:none">
        <path
           inkscape:connector-curvature="0"
           id="path98-5-2-6-6"
           style="fill:#2a9f6a;fill-opacity:1;fill-rule:nonzero;stroke:none;stroke-width:0.9898088;stroke-miterlimit:4;stroke-dasharray:none"
           d="m 0,0 h -0.666 c -0.811,0 -1.473,0.663 -1.473,1.473 v 0.666 c 0,0.81 0.662,1.473 1.473,1.473 H 0 c 0.811,0 1.473,-0.663 1.473,-1.473 V 1.473 C 1.473,0.663 0.811,0 0,0" />
      </g>
      <g
         transform="matrix(0.80823691,0,0,-0.80823691,40.774682,261.9665)"
         id="g100-9-8-6-1"
         style="stroke:none;stroke-width:0.9898088;stroke-miterlimit:4;stroke-dasharray:none">
        <path
           inkscape:connector-curvature="0"
           id="path102-2-2-4-2"
           style="fill:#2a9f6a;fill-opacity:1;fill-rule:nonzero;stroke:none;stroke-width:0.9898088;stroke-miterlimit:4;stroke-dasharray:none"
           d="M 0,0 H -0.666 C -1.477,0 -2.14,0.663 -2.14,1.473 v 0.666 c 0,0.81 0.663,1.473 1.474,1.473 H 0 c 0.81,0 1.473,-0.663 1.473,-1.473 V 1.473 C 1.473,0.663 0.81,0 0,0" />
      </g>
      <g
         transform="matrix(0.80823691,0,0,-0.80823691,28.780604,268.00854)"
         id="g104-2-7-9-9"
         style="stroke:none;stroke-width:0.9898088;stroke-miterlimit:4;stroke-dasharray:none">
        <path
           inkscape:connector-curvature="0"
           id="path106-8-8-5-3"
           style="fill:#2a9f6a;fill-opacity:1;fill-rule:nonzero;stroke:none;stroke-width:0.9898088;stroke-miterlimit:4;stroke-dasharray:none"
           d="m 0,0 h -0.666 c -0.811,0 -1.473,0.663 -1.473,1.473 v 0.666 c 0,0.81 0.662,1.473 1.473,1.473 H 0 c 0.811,0 1.474,-0.663 1.474,-1.473 V 1.473 C 1.474,0.663 0.811,0 0,0" />
      </g>
      <g
         transform="matrix(0.80823691,0,0,-0.80823691,40.774682,268.00854)"
         id="g108-9-6-0-1"
         style="stroke:none;stroke-width:0.9898088;stroke-miterlimit:4;stroke-dasharray:none">
        <path
           inkscape:connector-curvature="0"
           id="path110-7-7-4-9"
           style="fill:#2a9f6a;fill-opacity:1;fill-rule:nonzero;stroke:none;stroke-width:0.9898088;stroke-miterlimit:4;stroke-dasharray:none"
           d="M 0,0 H -0.666 C -1.477,0 -2.14,0.663 -2.14,1.473 v 0.666 c 0,0.81 0.663,1.473 1.474,1.473 H 0 c 0.81,0 1.473,-0.663 1.473,-1.473 V 1.473 C 1.473,0.663 0.81,0 0,0" />
      </g>
      <g
         transform="matrix(0.80823691,0,0,-0.80823691,40.417207,266.62727)"
         id="g112-3-7-8-4"
         style="stroke:none;stroke-width:0.9898088;stroke-miterlimit:4;stroke-dasharray:none">
        <path
           inkscape:connector-curvature="0"
           id="path114-6-0-7-7"
           style="fill:#2a9f6a;fill-opacity:1;fill-rule:nonzero;stroke:none;stroke-width:0.9898088;stroke-miterlimit:4;stroke-dasharray:none"
           d="M 0,0 -7.333,7.112 -7.146,7.305 0.187,0.193 Z" />
      </g>
    </g>
  </g>
</svg>
