<?xml version="1.0" encoding="UTF-8" standalone="no"?>
<!-- Created with Inkscape (http://www.inkscape.org/) -->

<svg
   xmlns:dc="http://purl.org/dc/elements/1.1/"
   xmlns:cc="http://creativecommons.org/ns#"
   xmlns:rdf="http://www.w3.org/1999/02/22-rdf-syntax-ns#"
   xmlns:svg="http://www.w3.org/2000/svg"
   xmlns="http://www.w3.org/2000/svg"
   xmlns:sodipodi="http://sodipodi.sourceforge.net/DTD/sodipodi-0.dtd"
   xmlns:inkscape="http://www.inkscape.org/namespaces/inkscape"
   width="256"
   height="256"
   id="svg4374"
   version="1.1"
   inkscape:version="0.92.1 r15371"
   sodipodi:docname="document-saveas.svg">
  <defs
     id="defs4376" />
  <sodipodi:namedview
     id="base"
     pagecolor="#ffffff"
     bordercolor="#666666"
     borderopacity="1.0"
     inkscape:pageopacity="0.0"
     inkscape:pageshadow="2"
     inkscape:zoom="1.7124294"
     inkscape:cx="135.8659"
     inkscape:cy="121.93005"
     inkscape:document-units="px"
     inkscape:current-layer="layer1"
     showgrid="false"
     inkscape:window-width="1918"
     inkscape:window-height="1023"
     inkscape:window-x="0"
     inkscape:window-y="26"
     inkscape:window-maximized="1" />
  <metadata
     id="metadata4379">
    <rdf:RDF>
      <cc:Work
         rdf:about="">
        <dc:format>image/svg+xml</dc:format>
        <dc:type
           rdf:resource="http://purl.org/dc/dcmitype/StillImage" />
        <dc:title />
      </cc:Work>
    </rdf:RDF>
  </metadata>
  <g
     inkscape:label="Capa 1"
     inkscape:groupmode="layer"
     id="layer1"
     transform="translate(0,-796.36218)">
    <path
       inkscape:connector-curvature="0"
       id="path3613-6"
       d="m 59.30517,883.432 v 16.29991 c 1.63e-4,4.32436 1.517521,8.6484 4.584347,11.71555 l 48.899703,48.89971 4.58435,4.58434 h 14.26242 l 4.58434,-4.58434 48.89971,-48.89971 c 3.06748,-3.06715 4.58418,-7.39119 4.58435,-11.71555 V 883.432 h -16.29991 c -4.32436,1.7e-4 -8.64856,1.51752 -11.71555,4.58435 L 124.50478,925.2005 87.320627,888.01635 c -3.06699,-3.06683 -7.391191,-4.58418 -11.715555,-4.58435 z"
       style="color:#000000;font-style:normal;font-variant:normal;font-weight:normal;font-stretch:normal;font-size:medium;line-height:normal;font-family:'Bitstream Vera Sans';-inkscape-font-specification:'Bitstream Vera Sans';text-indent:0;text-align:start;text-decoration:none;text-decoration-line:none;letter-spacing:normal;word-spacing:normal;text-transform:none;writing-mode:lr-tb;direction:ltr;text-anchor:start;display:inline;overflow:visible;visibility:visible;fill:#199453;fill-opacity:1;stroke:none;stroke-width:32.59980392;marker:none;enable-background:accumulate" />
    <path
       inkscape:connector-curvature="0"
       id="path4388-5"
       d="m 108.20162,850.8322 v 81.49951 h 32.5998 V 850.8322 Z"
       style="color:#000000;font-style:normal;font-variant:normal;font-weight:normal;font-stretch:normal;font-size:medium;line-height:normal;font-family:Sans;-inkscape-font-specification:Sans;text-indent:0;text-align:start;text-decoration:none;text-decoration-line:none;letter-spacing:normal;word-spacing:normal;text-transform:none;writing-mode:lr-tb;direction:ltr;baseline-shift:baseline;text-anchor:start;display:inline;overflow:visible;visibility:visible;fill:#199453;fill-opacity:1;stroke:none;stroke-width:32.59980392;marker:none;enable-background:accumulate" />
    <path
       inkscape:connector-curvature="0"
       sodipodi:nodetypes="ccccccsccccsccccccc"
       id="rect11668-7-5-4"
       d="M 43.005268,981.23142 V 1046.431 H 206.00429 v -65.19958 z m 54.502797,23.43108 c 0.339038,-0.016 0.679706,-0.016 1.018744,0 4.742621,-0.9062 9.763311,3.3224 9.678071,8.15 v 1.0187 h 32.5998 v -1.0187 c -0.0652,-4.3058 3.84384,-8.266 8.14995,-8.266 4.30611,0 8.21075,3.9602 8.14995,8.266 v 1.0187 c 0,8.8892 -7.41075,16.2999 -16.2999,16.2999 h -32.5998 c -8.889156,0 -16.299906,-7.4107 -16.299906,-16.2999 v -1.0187 c -0.176039,-3.5381 2.236836,-7.0471 5.603091,-8.15 z"
       style="color:#000000;display:inline;overflow:visible;visibility:visible;fill:#822b86;fill-opacity:1;fill-rule:evenodd;stroke:none;stroke-width:16.29990196;marker:none;enable-background:accumulate" />
    <path
       inkscape:connector-curvature="0"
       id="rect4390"
       d="m 43.002008,801.93249 c -8.889152,0 -16.299902,7.41075 -16.299902,16.29991 v 32.5998 c 0,8.88915 7.41075,16.2999 16.299902,16.2999 H 206.00103 c 8.88915,0 16.2999,-7.41075 16.2999,-16.2999 v -32.5998 c 0,-8.88916 -7.41075,-16.29991 -16.2999,-16.29991 z m 0,16.29991 H 206.00103 v 32.5998 H 43.002008 Z"
       style="color:#bebebe;font-style:normal;font-variant:normal;font-weight:normal;font-stretch:normal;font-size:medium;line-height:normal;font-family:Sans;-inkscape-font-specification:Sans;text-indent:0;text-align:start;text-decoration:none;text-decoration-line:none;letter-spacing:normal;word-spacing:normal;text-transform:none;writing-mode:lr-tb;direction:ltr;baseline-shift:baseline;text-anchor:start;display:inline;overflow:visible;visibility:visible;fill:#199453;fill-opacity:1;stroke:none;stroke-width:16.29990196;marker:none;enable-background:accumulate" />
    <path
       inkscape:connector-curvature="0"
       id="rect4390-9-1"
       d="m 65.923745,948.63161 a 8.150766,8.150766 0 0 0 -5.093719,3.56561 l -16.299902,24.44985 a 8.150766,8.150766 0 1 0 13.24367,9.16869 l 16.299902,-24.44985 a 8.150766,8.150766 0 0 0 -8.149951,-12.7343 z m 114.099315,0 a 8.150766,8.150766 0 0 0 -5.09372,12.7343 l 16.2999,24.44985 a 8.150766,8.150766 0 1 0 13.24367,-9.16869 l -16.2999,-24.44985 a 8.150766,8.150766 0 0 0 -8.14995,-3.56561 z"
       style="color:#bebebe;font-style:normal;font-variant:normal;font-weight:normal;font-stretch:normal;font-size:medium;line-height:normal;font-family:Sans;-inkscape-font-specification:Sans;text-indent:0;text-align:start;text-decoration:none;text-decoration-line:none;letter-spacing:normal;word-spacing:normal;text-transform:none;writing-mode:lr-tb;direction:ltr;baseline-shift:baseline;text-anchor:start;display:inline;overflow:visible;visibility:visible;fill:#822b86;fill-opacity:1;stroke:none;stroke-width:16.29990196;marker:none;enable-background:accumulate" />
  </g>
</svg>
