<?xml version="1.0" encoding="UTF-8" standalone="no"?>
<!-- Created with Inkscape (http://www.inkscape.org/) -->

<svg
   xmlns:dc="http://purl.org/dc/elements/1.1/"
   xmlns:cc="http://creativecommons.org/ns#"
   xmlns:rdf="http://www.w3.org/1999/02/22-rdf-syntax-ns#"
   xmlns:svg="http://www.w3.org/2000/svg"
   xmlns="http://www.w3.org/2000/svg"
   xmlns:sodipodi="http://sodipodi.sourceforge.net/DTD/sodipodi-0.dtd"
   xmlns:inkscape="http://www.inkscape.org/namespaces/inkscape"
   width="256"
   height="256"
   id="svg4374"
   version="1.1"
   inkscape:version="0.92.1 r15371"
   sodipodi:docname="document-import.svg">
  <defs
     id="defs4376" />
  <sodipodi:namedview
     id="base"
     pagecolor="#ffffff"
     bordercolor="#666666"
     borderopacity="1.0"
     inkscape:pageopacity="0.0"
     inkscape:pageshadow="2"
     inkscape:zoom="1.6126403"
     inkscape:cx="313.58957"
     inkscape:cy="139.5678"
     inkscape:document-units="px"
     inkscape:current-layer="layer1"
     showgrid="false"
     inkscape:window-width="1918"
     inkscape:window-height="1023"
     inkscape:window-x="0"
     inkscape:window-y="26"
     inkscape:window-maximized="1" />
  <metadata
     id="metadata4379">
    <rdf:RDF>
      <cc:Work
         rdf:about="">
        <dc:format>image/svg+xml</dc:format>
        <dc:type
           rdf:resource="http://purl.org/dc/dcmitype/StillImage" />
        <dc:title />
      </cc:Work>
    </rdf:RDF>
  </metadata>
  <g
     inkscape:label="Capa 1"
     inkscape:groupmode="layer"
     id="layer1"
     transform="translate(0,-796.36218)">
    <g
       id="layer9-9"
       style="fill:#4ecae9;fill-opacity:1;display:inline"
       transform="matrix(16.426419,0,0,16.426419,-3957.9134,-9842.971)"
       inkscape:label="status" />
    <g
       style="fill:#4ecae9;fill-opacity:1"
       id="layer10-8"
       transform="matrix(16.426419,0,0,16.426419,-3957.9134,-9842.971)"
       inkscape:label="devices" />
    <g
       style="fill:#4ecae9;fill-opacity:1"
       id="layer11-5"
       transform="matrix(16.426419,0,0,16.426419,-3957.9134,-9842.971)"
       inkscape:label="apps" />
    <g
       style="fill:#4ecae9;fill-opacity:1"
       id="layer13-6"
       transform="matrix(16.426419,0,0,16.426419,-3957.9134,-9842.971)"
       inkscape:label="places" />
    <g
       style="fill:#4ecae9;fill-opacity:1"
       id="layer14-6"
       transform="matrix(16.426419,0,0,16.426419,-3957.9134,-9842.971)"
       inkscape:label="mimetypes" />
    <g
       id="layer15-0"
       style="fill:#4ecae9;fill-opacity:1;display:inline"
       transform="matrix(16.426419,0,0,16.426419,-3957.9134,-9842.971)"
       inkscape:label="emblems" />
    <g
       id="g71291"
       style="fill:#4ecae9;fill-opacity:1;display:inline"
       transform="matrix(16.426419,0,0,16.426419,-3957.9134,-9842.971)"
       inkscape:label="emotes" />
    <g
       id="g4953"
       style="fill:#4ecae9;fill-opacity:1;display:inline"
       transform="matrix(16.426419,0,0,16.426419,-3957.9134,-9842.971)"
       inkscape:label="categories" />
    <g
       id="layer12-7"
       style="fill:#4ecae9;fill-opacity:1;display:inline"
       transform="matrix(16.426419,0,0,16.426419,-3955.5775,-9841.8031)"
       inkscape:label="actions" />
    <path
       style="fill:#822b86;fill-opacity:1;stroke:none"
       d="m 19.619973,816.5336 c -6.715046,0.64884 -12.4480526,8.5036 -12.3304606,16.875 v 187.5456 c -0.10582,8.867 6.4304736,17.0041 13.5635006,16.875 H 152.43668 c 7.13304,0.1314 13.66722,-8.008 13.56351,-16.875 V 870.79179 c -0.0529,-4.38651 -1.55575,-8.7121 -4.10177,-11.75 L 122.41578,821.6586 c -2.44378,-3.16487 -5.93307,-5.06176 -9.46175,-5.125 H 20.853013 c -0.41137,-0.0163 -0.82167,-0.0163 -1.23304,0 z"
       id="path845" />
    <path
       style="fill:#199453;fill-opacity:1;stroke:none"
       d="m 202.85777,875.15505 49.11018,50.11983 -49.56363,48.75236 0.11463,-25.12429 -28.6302,-0.26983 0.13523,-43.21811 28.70224,0.2705 z"
       id="path3055" />
  </g>
</svg>
