<?xml version="1.0" encoding="UTF-8" standalone="no"?>
<!-- Created with Inkscape (http://www.inkscape.org/) -->

<svg
   xmlns:dc="http://purl.org/dc/elements/1.1/"
   xmlns:cc="http://creativecommons.org/ns#"
   xmlns:rdf="http://www.w3.org/1999/02/22-rdf-syntax-ns#"
   xmlns:svg="http://www.w3.org/2000/svg"
   xmlns="http://www.w3.org/2000/svg"
   xmlns:sodipodi="http://sodipodi.sourceforge.net/DTD/sodipodi-0.dtd"
   xmlns:inkscape="http://www.inkscape.org/namespaces/inkscape"
   version="1.1"
   width="48"
   height="48"
   id="svg1307"
   inkscape:version="0.92.1 r15371"
   sodipodi:docname="gnome-settings.svg">
  <sodipodi:namedview
     pagecolor="#ffffff"
     bordercolor="#666666"
     borderopacity="1"
     objecttolerance="10"
     gridtolerance="10"
     guidetolerance="10"
     inkscape:pageopacity="0"
     inkscape:pageshadow="2"
     inkscape:window-width="1918"
     inkscape:window-height="1023"
     id="namedview8"
     showgrid="false"
     inkscape:zoom="5.5441368"
     inkscape:cx="14.669469"
     inkscape:cy="-4.0269132"
     inkscape:window-x="0"
     inkscape:window-y="26"
     inkscape:window-maximized="1"
     inkscape:current-layer="svg1307" />
  <defs
     id="defs1309" />
  <metadata
     id="metadata1312">
    <rdf:RDF>
      <cc:Work
         rdf:about="">
        <dc:format>image/svg+xml</dc:format>
        <dc:type
           rdf:resource="http://purl.org/dc/dcmitype/StillImage" />
        <dc:title />
      </cc:Work>
    </rdf:RDF>
  </metadata>
  <path
     inkscape:connector-curvature="0"
     style="fill:#822b86;fill-opacity:1;fill-rule:evenodd;stroke:none"
     id="rect3938"
     d="m 5.6051382,0.98305113 c -2.679299,0 -4.82547696,2.14617837 -4.82547696,4.82547687 l 0,36.789726 c 0,2.679299 2.14617796,4.825477 4.82547696,4.825477 l 36.7897258,0 c 2.6793,0 4.82548,-2.146178 4.82548,-4.825477 l 0,-36.789726 c 0,-2.6792985 -2.14618,-4.82547687 -4.82548,-4.82547687 l -36.7897258,0 z m 26.5582658,5.51483067 4.60778,0 0,3.8095872 -4.60778,0 0,-3.8095872 z m -20.93459,0.2176907 4.607786,0 0,15.0932215 -4.607786,0 0,-15.0932215 z m 17.34269,5.8776485 11.7553,0 c 1.89612,0 3.41049,1.514368 3.41049,3.410488 l 0,4.789195 c 0,1.896119 -1.51437,3.410487 -3.41049,3.410487 l -11.7553,0 c -1.89612,0 -3.41049,-1.514368 -3.41049,-3.410487 l 0,-4.789195 c 0,-1.89612 1.51437,-3.410488 3.41049,-3.410488 z m -20.8983048,11.61017 11.7552978,0 c 1.896119,0 3.410487,1.514368 3.410487,3.410488 l 0,4.789195 c 0,1.896119 -1.514368,3.410487 -3.410487,3.410487 l -11.7552978,0 c -1.896118,0 -3.410487,-1.514368 -3.410487,-3.410487 l 0,-4.789195 c 0,-1.89612 1.514369,-3.410488 3.410487,-3.410488 z m 24.4902048,2.322034 4.60778,0 0,15.020658 -4.60778,0 0,-15.020658 z m -20.93459,11.646452 4.607786,0 0,3.555614 -4.607786,0 0,-3.555614 z" />
</svg>
