<?xml version="1.0" encoding="UTF-8" standalone="no"?>
<!-- Created with Inkscape (http://www.inkscape.org/) -->

<svg
   xmlns:dc="http://purl.org/dc/elements/1.1/"
   xmlns:cc="http://creativecommons.org/ns#"
   xmlns:rdf="http://www.w3.org/1999/02/22-rdf-syntax-ns#"
   xmlns:svg="http://www.w3.org/2000/svg"
   xmlns="http://www.w3.org/2000/svg"
   xmlns:sodipodi="http://sodipodi.sourceforge.net/DTD/sodipodi-0.dtd"
   xmlns:inkscape="http://www.inkscape.org/namespaces/inkscape"
   width="256"
   height="256"
   id="svg4374"
   version="1.1"
   inkscape:version="0.92.1 r15371"
   sodipodi:docname="gtk-about.svg">
  <defs
     id="defs4376" />
  <sodipodi:namedview
     id="base"
     pagecolor="#ffffff"
     bordercolor="#666666"
     borderopacity="1.0"
     inkscape:pageopacity="0.0"
     inkscape:pageshadow="2"
     inkscape:zoom="1.2108704"
     inkscape:cx="296.35877"
     inkscape:cy="26.723017"
     inkscape:document-units="px"
     inkscape:current-layer="layer1"
     showgrid="false"
     inkscape:window-width="1918"
     inkscape:window-height="1023"
     inkscape:window-x="0"
     inkscape:window-y="26"
     inkscape:window-maximized="1" />
  <metadata
     id="metadata4379">
    <rdf:RDF>
      <cc:Work
         rdf:about="">
        <dc:format>image/svg+xml</dc:format>
        <dc:type
           rdf:resource="http://purl.org/dc/dcmitype/StillImage" />
        <dc:title />
      </cc:Work>
    </rdf:RDF>
  </metadata>
  <g
     inkscape:label="Capa 1"
     inkscape:groupmode="layer"
     id="layer1"
     transform="translate(0,-796.36218)">
    <path
       style="fill:#822b86;stroke:none;stroke-width:1.06523991;fill-opacity:1"
       d="m 105.18623,865.72002 c -24.046901,3.34312 -29.450538,19.32277 -37.022078,38.67169 -10.221325,26.12042 -25.203597,50.96437 -21.26196,60.14473 3.941617,9.18031 26.6455,-4.15748 27.393324,-11.74217 0.747843,-7.58467 24.894143,-40.25267 24.894143,-40.25267 l 7.555921,-2.51728 40.11101,-45.14738 c 0,0 -17.62345,-2.50005 -41.67036,0.84308 z"
       id="path2993"
       inkscape:connector-curvature="0"
       sodipodi:nodetypes="zssscccz" />
    <path
       style="fill:#199453;stroke:none;stroke-width:1.06523991;fill-opacity:1"
       d="m 49.478513,977.02049 c 0,0 20.326014,-6.49702 25.435047,-10.9763 5.109043,-4.47928 15.944009,-21.67055 15.944009,-21.67055 L 157.4367,875.49248 249.19662,808.5414 c 0,0 -11.59349,70.79558 -37.64878,91.29081 -26.05529,20.49522 -94.72979,44.70147 -134.3633,66.95048 -20.808236,11.6811 -27.910338,23.82048 -27.910338,23.82048 l -5.062398,-8.42663 z"
       id="path2995"
       inkscape:connector-curvature="0"
       sodipodi:nodetypes="czcccssccc" />
    <path
       style="fill:#822b86;stroke:none;stroke-width:1.06523991;fill-opacity:1"
       d="m 71.340971,977.28544 c 0,0 -8.45603,17.1593 10.235797,19.892 18.691842,2.73269 34.996102,-3.44801 44.375062,3.20446 12.40431,8.7984 24.29911,24.8145 54.88575,15.9333 30.58663,-8.8813 33.37539,7.8079 35.50672,10.1588 11.64351,12.843 35.79338,-37.45149 36.3598,-43.60005 0.56642,-6.14857 -23.33217,-47.26213 -23.33217,-47.26213 l -18.03407,-21.13457 c 0,0 -66.11755,34.59235 -71.21532,35.95869 -5.09778,1.36635 -28.5658,15.91871 -46.124797,17.28506 -17.559,1.36635 -22.656772,9.56444 -22.656772,9.56444 z"
       id="path2997"
       inkscape:connector-curvature="0"
       sodipodi:nodetypes="csssssccssc" />
    <path
       sodipodi:nodetypes="cscc"
       style="fill:#822b86;stroke:none;stroke-width:1.06523991;fill-opacity:1"
       d="m 99.590463,1007.0597 c 0,0 -1.770096,15.301 12.956797,23.4991 14.7269,8.1982 8.08336,-22.7847 8.08336,-22.7847 z"
       id="path2999"
       inkscape:connector-curvature="0" />
    <path
       sodipodi:nodetypes="cssscc"
       style="fill:#199453;stroke:none;stroke-width:1.06523991;fill-opacity:1"
       d="m 39.54797,987.41429 c 0,0 -19.138055,17.25841 -27.548953,25.47081 -8.4108986,8.2123 -5.607269,7.2461 -3.2041524,5.7969 2.4031164,-1.4492 5.2067464,-9.1785 14.8191934,-7.7293 9.612457,1.4493 19.538587,-15.3261 19.538587,-15.3261 z"
       id="path3001"
       inkscape:connector-curvature="0" />
    <path
       style="fill:#822b86;stroke:none;stroke-width:1.06523991;fill-opacity:1"
       d="m 126.77521,1010.2819 c 0,0 -4.5421,11.4597 6.94599,17.8549 11.48808,6.3951 6.01455,-8.1186 6.01455,-8.1186 z"
       id="path2999-5"
       inkscape:connector-curvature="0"
       sodipodi:nodetypes="cscc" />
  </g>
</svg>
