<?xml version="1.0" encoding="UTF-8" standalone="no"?>
<!-- Created with Inkscape (http://www.inkscape.org/) -->

<svg
   xmlns:dc="http://purl.org/dc/elements/1.1/"
   xmlns:cc="http://creativecommons.org/ns#"
   xmlns:rdf="http://www.w3.org/1999/02/22-rdf-syntax-ns#"
   xmlns:svg="http://www.w3.org/2000/svg"
   xmlns="http://www.w3.org/2000/svg"
   xmlns:sodipodi="http://sodipodi.sourceforge.net/DTD/sodipodi-0.dtd"
   xmlns:inkscape="http://www.inkscape.org/namespaces/inkscape"
   width="256"
   height="256"
   id="svg4374"
   version="1.1"
   inkscape:version="0.92.1 r15371"
   sodipodi:docname="gtk-dnd-multiple.svg">
  <defs
     id="defs4376" />
  <sodipodi:namedview
     id="base"
     pagecolor="#ffffff"
     bordercolor="#666666"
     borderopacity="1.0"
     inkscape:pageopacity="0.0"
     inkscape:pageshadow="2"
     inkscape:zoom="1.7124294"
     inkscape:cx="-25.498001"
     inkscape:cy="172.72032"
     inkscape:document-units="px"
     inkscape:current-layer="layer1"
     showgrid="false"
     inkscape:window-width="1918"
     inkscape:window-height="1023"
     inkscape:window-x="0"
     inkscape:window-y="26"
     inkscape:window-maximized="1" />
  <metadata
     id="metadata4379">
    <rdf:RDF>
      <cc:Work
         rdf:about="">
        <dc:format>image/svg+xml</dc:format>
        <dc:type
           rdf:resource="http://purl.org/dc/dcmitype/StillImage" />
        <dc:title />
      </cc:Work>
    </rdf:RDF>
  </metadata>
  <g
     inkscape:label="Capa 1"
     inkscape:groupmode="layer"
     id="layer1"
     transform="translate(0,-796.36218)">
    <path
       style="color:#bebebe;fill:#822b86;fill-opacity:1;fill-rule:nonzero;stroke:none;stroke-width:1;marker:none;visibility:visible;display:inline;overflow:visible;enable-background:accumulate"
       d="m 63.196854,842.60768 c -5.82353,0.45311 -10.82073,5.93513 -10.71875,11.78125 l 0,17.25 23.1875,0 0,-5.46875 68.468746,0 0,5.46875 c -0.61744,13.35432 0.004,11.9893 -1.16354,28.25 l 23.60104,0.125 0.8125,99.9375 -8.0625,0 0,14.71877 19.0625,0 c 6.18601,0.092 11.83994,-5.589 11.75,-11.7813 l 0,-114.21872 c -0.0459,-3.06329 -1.35451,-6.09725 -3.5625,-8.21875 L 152.3531,846.17018 c -2.11932,-2.21017 -5.15855,-3.51834 -8.21875,-3.5625 l -79.874996,0 c -0.35676,-0.0114 -0.70574,-0.0114 -1.0625,0 z"
       id="path4387-5-8"
       inkscape:connector-curvature="0"
       sodipodi:nodetypes="cccccccccccccccccccc" />
    <path
       style="color:#bebebe;fill:#822b86;fill-opacity:1;fill-rule:nonzero;stroke:none;stroke-width:1;marker:none;visibility:visible;display:inline;overflow:visible;enable-background:accumulate"
       id="path4387-5"
       d="m 31.980373,872.52491 c -5.823523,0.45311 -10.800464,5.93399 -10.698484,11.78011 l 0,148.49978 c -0.09177,6.1923 5.582282,11.8702 11.768299,11.7801 l 114.116562,0 c 6.18601,0.092 11.85824,-5.5878 11.7683,-11.7801 l 0,-114.23063 c -0.0459,-3.06329 -1.35821,-6.08885 -3.5662,-8.21035 l -34.23497,-34.26916 c -2.11932,-2.21017 -5.1419,-3.52559 -8.2021,-3.56975 l -79.881592,0 c -0.356758,-0.0114 -0.713516,-0.0114 -1.070273,0 z m 12.48147,23.56126 68.469937,0 0,33.44258 22.42952,0.41001 0.81562,99.91764 -91.715077,0 z"
       inkscape:connector-curvature="0"
       sodipodi:nodetypes="cccccccccccccccccccc" />
    <path
       style="color:#bebebe;fill:#822b86;fill-opacity:1;fill-rule:nonzero;stroke:none;stroke-width:1;marker:none;visibility:visible;display:inline;overflow:visible;enable-background:accumulate"
       d="m 91.970041,806.91202 c -5.82353,0.45311 -10.82073,5.93513 -10.71875,11.78125 l 0,17.25 23.187499,0 0,-5.46875 68.46875,0 0,5.46875 c -0.61744,13.35432 0.004,11.9893 -1.16354,28.25 l 23.60104,0.125 0.8125,99.9375 -8.0625,0 0,14.71876 19.0625,0 c 6.18601,0.092 11.83994,-5.589 11.75,-11.78126 l 0,-114.21875 c -0.0459,-3.06329 -1.35451,-6.09725 -3.5625,-8.21875 l -34.21875,-34.28125 c -2.11932,-2.21017 -5.15855,-3.51834 -8.21875,-3.5625 l -79.874999,0 c -0.35676,-0.0114 -0.70574,-0.0114 -1.0625,0 z"
       id="path4387-5-8-0"
       inkscape:connector-curvature="0"
       sodipodi:nodetypes="cccccccccccccccccccc" />
  </g>
</svg>
