<?xml version="1.0" encoding="UTF-8" standalone="no"?>
<!-- Created with Inkscape (http://www.inkscape.org/) -->

<svg
   xmlns:dc="http://purl.org/dc/elements/1.1/"
   xmlns:cc="http://creativecommons.org/ns#"
   xmlns:rdf="http://www.w3.org/1999/02/22-rdf-syntax-ns#"
   xmlns:svg="http://www.w3.org/2000/svg"
   xmlns="http://www.w3.org/2000/svg"
   xmlns:sodipodi="http://sodipodi.sourceforge.net/DTD/sodipodi-0.dtd"
   xmlns:inkscape="http://www.inkscape.org/namespaces/inkscape"
   width="256"
   height="256"
   id="svg2"
   version="1.1"
   inkscape:version="0.92.1 r15371"
   sodipodi:docname="gtk-select-color.svg">
  <defs
     id="defs4">
    <inkscape:path-effect
       fuse_tolerance="0"
       vertical_pattern="false"
       prop_units="false"
       tang_offset="0"
       normal_offset="0"
       spacing="0"
       scale_y_rel="false"
       prop_scale="1"
       copytype="single_stretched"
       pattern="M 0,5 C 0,2.24 2.24,0 5,0 7.76,0 10,2.24 10,5 10,7.76 7.76,10 5,10 2.24,10 0,7.76 0,5 z"
       is_visible="true"
       id="path-effect3052"
       effect="skeletal" />
  </defs>
  <sodipodi:namedview
     id="base"
     pagecolor="#ffffff"
     bordercolor="#666666"
     borderopacity="1.0"
     inkscape:pageopacity="0.0"
     inkscape:pageshadow="2"
     inkscape:zoom="0.7633658"
     inkscape:cx="20.989755"
     inkscape:cy="222.31426"
     inkscape:document-units="px"
     inkscape:current-layer="layer1"
     showgrid="false"
     showguides="true"
     inkscape:guide-bbox="true"
     inkscape:window-width="1918"
     inkscape:window-height="1023"
     inkscape:window-x="0"
     inkscape:window-y="26"
     inkscape:window-maximized="1" />
  <metadata
     id="metadata7">
    <rdf:RDF>
      <cc:Work
         rdf:about="">
        <dc:format>image/svg+xml</dc:format>
        <dc:type
           rdf:resource="http://purl.org/dc/dcmitype/StillImage" />
        <dc:title />
      </cc:Work>
    </rdf:RDF>
  </metadata>
  <g
     inkscape:label="Layer 1"
     inkscape:groupmode="layer"
     id="layer1"
     transform="translate(0,-796.3622)">
    <path
       style="fill:#822b86;stroke:#822b86;stroke-width:0.87885088px;stroke-linecap:butt;stroke-linejoin:miter;stroke-opacity:1;fill-opacity:1"
       d="m 128.35521,817.5137 -21.58162,84.30249 c -5.29794,-0.51997 -8.948723,-0.15953 -14.72329,0.33722 l -0.407039,-87.92073 c 0,0 4.093459,-0.13948 16.281619,0.61057 13.22881,0.81408 20.43033,2.67046 20.43033,2.67045 z"
       id="path3088"
       inkscape:connector-curvature="0"
       sodipodi:nodetypes="ccccsc" />
    <path
       style="fill:#a637aa;stroke:#822b86;stroke-width:0.87885088px;stroke-linecap:butt;stroke-linejoin:miter;stroke-opacity:1;fill-opacity:1"
       d="m 163.82847,829.91586 -42.44284,75.87019 c -5.08044,-1.87048 -8.43805,-3.18109 -14.25964,-3.60681 l 21.21014,-84.58468 c 14.80818,2.82793 19.03272,3.9611 35.49234,12.3213 z"
       id="path3088-5"
       inkscape:connector-curvature="0"
       sodipodi:nodetypes="ccccc"
       inkscape:transform-center-x="-28.405336"
       inkscape:transform-center-y="-45.950004" />
    <path
       style="fill:#c453c8;stroke:#822b86;stroke-width:0.87885088px;stroke-linecap:butt;stroke-linejoin:miter;stroke-opacity:1;fill-opacity:1"
       d="m 194.62816,851.11101 -60.59141,62.5164 c -3.6805,-2.97156 -7.14936,-5.3479 -12.79872,-7.72673 l 42.61914,-75.92451 c 9.70406,5.2279 20.67878,11.57188 30.77099,21.13484 z"
       id="path3088-5-0"
       inkscape:connector-curvature="0"
       sodipodi:nodetypes="ccccc"
       inkscape:transform-center-x="-40.571592"
       inkscape:transform-center-y="-37.500774" />
    <path
       style="fill:#dc97de;stroke:#822b86;stroke-width:0.87885088px;stroke-linecap:butt;stroke-linejoin:miter;stroke-opacity:1;fill-opacity:1"
       d="m 218.50483,881.05776 -73.82195,44.45023 c -2.76636,-3.35007 -7.39862,-8.38877 -10.5086,-11.76364 l 60.47634,-62.40154 c 8.56263,9.36523 15.72021,16.90949 23.85421,29.71495 z"
       id="path3088-5-6"
       inkscape:connector-curvature="0"
       sodipodi:nodetypes="ccccc"
       inkscape:transform-center-x="-47.924241"
       inkscape:transform-center-y="-26.601059" />
    <path
       style="fill:#f0d4f1;stroke:#822b86;stroke-width:0.87885088px;stroke-linecap:butt;stroke-linejoin:miter;stroke-opacity:1;fill-opacity:1"
       d="m 233.77671,915.84038 -84.47915,23.5167 c -0.79305,-3.99031 -2.18259,-9.57315 -4.84381,-14.25042 l 74.27483,-43.86874 c 6.36896,10.58358 11.91861,19.83214 15.04813,34.60246 z"
       id="path3088-5-6-5"
       inkscape:connector-curvature="0"
       sodipodi:nodetypes="ccccc"
       inkscape:transform-center-x="-51.305201"
       inkscape:transform-center-y="-13.271289" />
    <path
       style="fill:none;stroke:#822b86;stroke-width:0.87885088px;stroke-linecap:butt;stroke-linejoin:miter;stroke-opacity:1"
       d="m 238.53121,954.33908 -87.4919,-0.0406 c 0.66021,-5.12576 -0.50234,-9.19427 -1.64596,-14.58814 l 84.50986,-23.74986 c 2.28731,11.53257 5.16643,26.74487 4.62796,38.37861 z"
       id="path3088-5-6-1"
       inkscape:connector-curvature="0"
       sodipodi:nodetypes="cccccc"
       inkscape:transform-center-x="-50.561738"
       inkscape:transform-center-y="0.323286" />
    <path
       style="fill:#822b86;fill-opacity:1;fill-rule:evenodd;stroke:none"
       d="m 9.7296393,984.20507 c 0.26701,-25.54143 -3.5076803,-41.58515 10.5004797,-41.90373 14.00816,-0.31858 12.70922,23.56186 12.70922,23.56186 l -1.13283,-95.1582 c 0,0 3.60081,-11.70596 10.19552,-11.70596 9.07054,0 13.21641,3.77611 12.8388,11.32835 -0.37761,7.55224 0.75522,64.57161 0.75522,64.57161 0,0 0.18881,-18.88058 12.46119,-18.88058 12.27238,0 13.21641,17.93655 13.21641,17.93655 0,0 -0.1194,-14.67604 12.962817,-14.72685 13.082224,-0.0508 13.908484,16.55961 13.908484,16.55961 0,0 2.32489,-9.00738 13.46445,-8.81857 11.13954,0.18881 13.31408,11.38173 13.47394,22.27906 0.25997,17.72306 0.0513,37.87825 0.0324,54.42518 -0.019,16.5469 -20.34522,24.0265 -20.34522,24.0265 l -0.26701,9.1543 -70.613401,0.3776 -0.42343,-8.8036 C 17.908979,1006.1328 9.8913093,1001.6759 9.7296693,984.20507 z"
       id="path2995"
       inkscape:connector-curvature="0"
       sodipodi:nodetypes="czccssczczczszccccc" />
  </g>
</svg>
