<?xml version="1.0" encoding="UTF-8" standalone="no"?>
<!-- Created with Inkscape (http://www.inkscape.org/) -->

<svg
   xmlns:dc="http://purl.org/dc/elements/1.1/"
   xmlns:cc="http://creativecommons.org/ns#"
   xmlns:rdf="http://www.w3.org/1999/02/22-rdf-syntax-ns#"
   xmlns:svg="http://www.w3.org/2000/svg"
   xmlns="http://www.w3.org/2000/svg"
   xmlns:sodipodi="http://sodipodi.sourceforge.net/DTD/sodipodi-0.dtd"
   xmlns:inkscape="http://www.inkscape.org/namespaces/inkscape"
   id="svg7384"
   sodipodi:docname="system-lock-screen.svg"
   version="1.1"
   inkscape:version="0.92.1 r15371"
   height="256"
   width="256">
  <metadata
     id="metadata90">
    <rdf:RDF>
      <cc:Work
         rdf:about="">
        <dc:format>image/svg+xml</dc:format>
        <dc:type
           rdf:resource="http://purl.org/dc/dcmitype/StillImage" />
        <dc:title>Gnome Symbolic Icon Theme</dc:title>
      </cc:Work>
    </rdf:RDF>
  </metadata>
  <sodipodi:namedview
     inkscape:cy="151.4066"
     pagecolor="#555753"
     borderopacity="1"
     showborder="true"
     inkscape:bbox-paths="false"
     guidetolerance="10"
     inkscape:window-width="1918"
     showguides="true"
     inkscape:object-nodes="true"
     inkscape:snap-bbox="true"
     inkscape:pageshadow="2"
     inkscape:guide-bbox="true"
     inkscape:snap-nodes="false"
     bordercolor="#666666"
     objecttolerance="10"
     id="namedview88"
     showgrid="false"
     inkscape:window-maximized="1"
     inkscape:window-x="0"
     inkscape:snap-global="true"
     inkscape:window-y="26"
     gridtolerance="10"
     inkscape:window-height="1023"
     inkscape:snap-to-guides="true"
     inkscape:current-layer="layer10"
     inkscape:zoom="1.9999999"
     inkscape:cx="-98.088618"
     inkscape:snap-grids="true"
     inkscape:pageopacity="0">
    <inkscape:grid
       spacingx="1"
       spacingy="1"
       id="grid4866"
       empspacing="2"
       enabled="true"
       type="xygrid"
       snapvisiblegridlinesonly="true"
       visible="true"
       originx="0"
       originy="0" />
  </sodipodi:namedview>
  <title
     id="title9167">Gnome Symbolic Icon Theme</title>
  <defs
     id="defs7386" />
  <g
     inkscape:label="status"
     transform="translate(-162,-98.000277)"
     inkscape:groupmode="layer"
     id="layer9"
     style="display:inline" />
  <g
     inkscape:label="devices"
     transform="translate(-162,-98.000277)"
     inkscape:groupmode="layer"
     id="layer10">
    <g
       inkscape:label="accessories-calculator"
       transform="translate(114,-60)"
       id="g11722-3-9" />
    <path
       inkscape:connector-curvature="0"
       style="color:#bebebe;font-style:normal;font-variant:normal;font-weight:normal;font-stretch:normal;font-size:medium;line-height:normal;font-family:'Andale Mono';-inkscape-font-specification:'Andale Mono';text-indent:0;text-align:start;text-decoration:none;text-decoration-line:none;letter-spacing:normal;word-spacing:normal;text-transform:none;writing-mode:lr-tb;direction:ltr;text-anchor:start;display:inline;overflow:visible;visibility:visible;fill:#822b86;fill-opacity:1;stroke:none;stroke-width:32.89920425;marker:none;enable-background:accumulate"
       id="rect11749-5-91"
       d="m 209.1677,118.86733 c -20.27332,0 -45.10959,20.30736 -45.10959,44.98144 v 125.35965 c 0,24.67391 24.83627,44.98128 45.10959,44.98128 h 162.3928 c 20.27332,0 45.10959,-20.30737 45.10959,-44.98128 V 163.84877 c 0,-24.67408 -24.83627,-44.98144 -45.10959,-44.98144 z m -2.40691,30.47158 162.87938,0.3734 c 6.00329,0.0136 10.61987,5.07865 10.61987,15.41295 v 121.30548 c 0,10.14809 -4.80279,13.54888 -10.61987,13.54888 H 207.50645 c -8.79955,0 -10.99278,-4.51953 -10.99278,-13.54888 V 165.12526 c 0,-7.91127 -0.227,-15.80988 10.24712,-15.78586 z"
       sodipodi:nodetypes="ssssssssssssssssss" />
    <path
       style="fill:#199453;fill-opacity:1;stroke:none;stroke-width:13.63058853"
       d="m 266.27915,221.31991 c -8.67683,0 -15.33442,7.0834 -15.33442,15.76037 v 43.87345 c 0,8.67683 6.65759,15.76037 15.33442,15.76037 h 45.57728 c 8.67682,0 15.33441,-7.08354 15.33441,-15.76037 v -43.87345 c 0,-8.67697 -6.65759,-15.76037 -15.33441,-15.76037 z m 21.72375,17.03823 c 7.01157,-0.4757 13.08659,4.41686 13.63059,10.6489 0.53432,6.23858 -3.95519,11.45133 -7.48947,11.80205 0.0818,1.66647 2.80327,18.86678 2.80327,18.86678 h -14.90846 l 3.35149,-18.66682 c -3.44472,-0.19765 -8.38731,-4.44671 -8.88891,-10.29819 -0.53432,-6.23872 4.48228,-11.87742 11.50081,-12.35272 z"
       id="rect2995"
       inkscape:connector-curvature="0"
       sodipodi:nodetypes="sssssssssccccccccc" />
    <path
       style="fill:none;stroke:#199453;stroke-width:17.71976471;stroke-linecap:butt;stroke-linejoin:miter;stroke-miterlimit:4;stroke-dasharray:none;stroke-opacity:1"
       d="m 267.13896,203.79288 v -24.09561 c 0,0 -2.40961,-15.66223 15.66223,-16.86704 18.07185,-1.20494 32.52927,0 31.32446,22.89094 -1.20495,22.89094 -1.20495,42.16745 -1.20495,42.16745"
       id="path2997"
       inkscape:connector-curvature="0"
       sodipodi:nodetypes="ccssc" />
  </g>
  <g
     inkscape:label="apps"
     transform="translate(-162,-98.000277)"
     inkscape:groupmode="layer"
     id="layer11" />
  <g
     inkscape:label="actions"
     transform="translate(-162,-98.000277)"
     inkscape:groupmode="layer"
     id="layer12" />
  <g
     inkscape:label="places"
     transform="translate(-162,-98.000277)"
     inkscape:groupmode="layer"
     id="layer13" />
  <g
     inkscape:label="mimetypes"
     transform="translate(-162,-98.000277)"
     inkscape:groupmode="layer"
     id="layer14" />
  <g
     inkscape:label="emblems"
     transform="translate(-162,-98.000277)"
     inkscape:groupmode="layer"
     id="layer15" />
</svg>
