<?xml version="1.0" encoding="UTF-8" standalone="no"?>
<!-- Created with Inkscape (http://www.inkscape.org/) -->

<svg
   xmlns:dc="http://purl.org/dc/elements/1.1/"
   xmlns:cc="http://creativecommons.org/ns#"
   xmlns:rdf="http://www.w3.org/1999/02/22-rdf-syntax-ns#"
   xmlns:svg="http://www.w3.org/2000/svg"
   xmlns="http://www.w3.org/2000/svg"
   xmlns:sodipodi="http://sodipodi.sourceforge.net/DTD/sodipodi-0.dtd"
   xmlns:inkscape="http://www.inkscape.org/namespaces/inkscape"
   width="256"
   height="256"
   id="svg4374"
   version="1.1"
   inkscape:version="0.92.1 r15371"
   sodipodi:docname="zoom-fit-page.svg">
  <defs
     id="defs4376" />
  <sodipodi:namedview
     id="base"
     pagecolor="#ffffff"
     bordercolor="#666666"
     borderopacity="1.0"
     inkscape:pageopacity="0.0"
     inkscape:pageshadow="2"
     inkscape:zoom="0.85621471"
     inkscape:cx="-140.77257"
     inkscape:cy="-37.54971"
     inkscape:document-units="px"
     inkscape:current-layer="layer1"
     showgrid="false"
     inkscape:window-width="1918"
     inkscape:window-height="1023"
     inkscape:window-x="0"
     inkscape:window-y="26"
     inkscape:window-maximized="1" />
  <metadata
     id="metadata4379">
    <rdf:RDF>
      <cc:Work
         rdf:about="">
        <dc:format>image/svg+xml</dc:format>
        <dc:type
           rdf:resource="http://purl.org/dc/dcmitype/StillImage" />
        <dc:title />
      </cc:Work>
    </rdf:RDF>
  </metadata>
  <g
     inkscape:label="Capa 1"
     inkscape:groupmode="layer"
     id="layer1"
     transform="translate(0,-796.36218)">
    <path
       inkscape:connector-curvature="0"
       style="fill:#822b86;fill-opacity:1;stroke:#822b86;stroke-opacity:1"
       d="m 122.18924,810.37752 c -2.84878,0.003 -5.70769,0.12383 -8.59375,0.34375 -62.53323,4.76506 -109.35881,59.31052 -104.59375,121.84375 4.76506,62.53323 59.31052,109.35878 121.84375,104.59378 62.53323,-4.7651 109.35881,-59.31055 104.59375,-121.84378 l -0.1875,-2.46875 C 229.49915,854.27466 180.11447,810.30764 122.18924,810.37752 z m 0.0313,16.53125 c 49.28951,-0.0595 91.26128,37.34797 96.15625,87.1875 l 0.1875,2.09375 c 4.05467,53.21052 -35.78948,99.63288 -89,103.68748 -53.21052,4.0547 -99.63283,-35.78946 -103.6875,-88.99998 -4.05467,-53.21052 35.78948,-99.63283 89,-103.6875 2.4558,-0.18713 4.91968,-0.27833 7.34375,-0.28125 z"
       id="path2996" />
    <rect
       style="fill:#822b86;fill-opacity:1;stroke:#822b86;stroke-width:1;stroke-opacity:1"
       id="rect3019"
       width="16.104118"
       height="30.969458"
       x="-717.98926"
       y="715.25964"
       transform="matrix(0.54054604,-0.84131444,0.84131444,0.54054604,0,0)" />
    <path
       style="fill:#199453;fill-opacity:1;stroke:none"
       sodipodi:nodetypes="ccccccc"
       id="path41071-5"
       d="m 182.30424,995.71634 0,-143.65322 -85.356653,0 -33.98629,40.9609 0.37727,102.69212 118.965723,0 -5e-5,2e-4 z"
       inkscape:connector-curvature="0" />
  </g>
</svg>
