<?xml version="1.0" encoding="UTF-8" standalone="no"?>
<!-- Created with Inkscape (http://www.inkscape.org/) -->

<svg
   xmlns:dc="http://purl.org/dc/elements/1.1/"
   xmlns:cc="http://creativecommons.org/ns#"
   xmlns:rdf="http://www.w3.org/1999/02/22-rdf-syntax-ns#"
   xmlns:svg="http://www.w3.org/2000/svg"
   xmlns="http://www.w3.org/2000/svg"
   xmlns:sodipodi="http://sodipodi.sourceforge.net/DTD/sodipodi-0.dtd"
   xmlns:inkscape="http://www.inkscape.org/namespaces/inkscape"
   id="svg7384"
   version="1.1"
   inkscape:version="0.48.3.1 r9886"
   height="256"
   sodipodi:docname="chat-huayra.svg"
   width="256">
  <metadata
     id="metadata90">
    <rdf:RDF>
      <cc:Work
         rdf:about="">
        <dc:format>image/svg+xml</dc:format>
        <dc:type
           rdf:resource="http://purl.org/dc/dcmitype/StillImage" />
        <dc:title>Gnome Symbolic Icon Theme</dc:title>
      </cc:Work>
    </rdf:RDF>
  </metadata>
  <sodipodi:namedview
     inkscape:cy="156.75655"
     inkscape:current-layer="layer9"
     inkscape:window-width="1918"
     pagecolor="#555753"
     showborder="true"
     showguides="true"
     inkscape:snap-nodes="false"
     objecttolerance="10"
     showgrid="false"
     inkscape:object-nodes="true"
     inkscape:pageshadow="2"
     inkscape:guide-bbox="true"
     inkscape:window-x="0"
     inkscape:snap-bbox="true"
     bordercolor="#666666"
     id="namedview88"
     inkscape:window-maximized="1"
     inkscape:snap-global="true"
     inkscape:window-y="25"
     gridtolerance="10"
     inkscape:zoom="2"
     inkscape:window-height="1032"
     borderopacity="1"
     guidetolerance="10"
     inkscape:cx="182.85208"
     inkscape:bbox-paths="false"
     inkscape:snap-grids="true"
     inkscape:pageopacity="0"
     inkscape:snap-to-guides="true">
    <inkscape:grid
       visible="true"
       spacingx="1px"
       type="xygrid"
       spacingy="1px"
       id="grid4866"
       empspacing="2"
       enabled="true"
       snapvisiblegridlinesonly="true" />
  </sodipodi:namedview>
  <title
     id="title9167">Gnome Symbolic Icon Theme</title>
  <defs
     id="defs7386"><style
   id="style1007"
   type="text/css">
   
    .str1 {stroke:#1F1A17;stroke-width:2.76822}
    .str0 {stroke:#72706F;stroke-width:4.15233}
    .fil2 {fill:none}
    .fil3 {fill:#00923F}
    .fil1 {fill:#1F1A17}
    .fil0 {fill:#B8DB7C}
   
  </style>
<style
   id="style20268"
   type="text/css">
   
    .str3 {stroke:#1F1A17;stroke-width:1.05469}
    .str1 {stroke:#72706F;stroke-width:2.44157}
    .str2 {stroke:#1F1A17;stroke-width:2.76822}
    .str0 {stroke:#72706F;stroke-width:4.15233}
    .fil3 {fill:none}
    .fil1 {fill:#00923F}
    .fil2 {fill:#1F1A17}
    .fil0 {fill:#B8DB7C}
   
  </style>

  
  
 
   
   
   
   
   
   
   
   
   
   
   
   
   
   
   
   
   
   
   
   
   
   
  </defs>
  <g
     transform="translate(-41.000198,-117)"
     inkscape:groupmode="layer"
     id="layer9"
     inkscape:label="status"
     style="display:inline">
    <path
       style="color:#bebebe;fill:#b8db7c;fill-opacity:1;fill-rule:nonzero;stroke:#72706f;stroke-width:3.96779871;stroke-miterlimit:4;stroke-opacity:1;stroke-dasharray:none;marker:none;visibility:visible;display:inline;overflow:visible;enable-background:accumulate"
       d="m 93.968505,123.76515 c -26.504222,0 -47.830574,21.32635 -47.830574,47.83057 l 0,77.21709 c 0,26.50422 21.326352,47.83057 47.830574,47.83057 0,0 76.903825,-4.12181 106.327425,10.5 29.4236,14.62181 56.22833,59.09147 56.22833,59.09147 0,0 -13.56254,-63.15613 -1.08495,-71.20339 12.47759,-8.04726 36.42315,-23.65239 36.42315,-46.21865 l 0,-77.21709 c 0,-26.50422 -21.32635,-47.83057 -47.83057,-47.83057 z m 41.227905,17.14213 c 1.18439,-0.0912 3.41963,3.24919 5.54872,8.40057 3.71473,8.98743 15.06334,44.46321 13.05034,67.42158 1.89453,-0.0469 4.06368,0.34051 5.95169,0.55798 13.2854,-22.43683 25.83837,-48.68664 28.82854,-64.69372 3.18467,-17.04813 5.62373,-7.46956 4.89775,2.69686 -1.26792,17.7553 -9.90456,46.12674 -19.591,65.77866 1.07212,0.51495 2.25089,1.04794 3.28583,1.64292 18.58401,-16.00744 34.0984,-32.03272 44.01777,-44.57574 10.80495,-13.66319 9.82542,-4.58205 4.89775,4.33978 -4.63158,8.38584 -21.63596,33.71105 -37.5081,50.03146 1.76649,1.91505 2.91044,3.77816 4.33978,5.9827 17.81423,-8.48014 33.30888,-17.82476 44.04877,-25.5737 13.1794,-9.50917 9.92885,-1.41102 3.25483,5.45572 -5.74378,5.90956 -24.05782,21.96864 -41.3209,32.61035 0.56262,2.12817 0.85234,4.24963 1.08494,6.50967 22.59828,1.89644 34.20797,2.97616 46.21866,3.28583 12.44162,0.32063 7.96205,1.90173 1.08494,3.78181 -9.11929,2.49385 -30.84637,4.65895 -47.3036,5.45572 -8.19109,0.2738 -4.21349,0.072 -16.83214,0.52697 5.8757,-36.69273 -50.93339,-47.76268 -56.54113,-4.33978 l -0.55798,9.23754 c -5.65401,-1.92827 -10.54926,-4.21744 -14.66225,-5.9827 -12.339019,-5.2958 -19.059041,-9.81644 -26.658646,-13.57731 -10.13305,-5.01483 -4.320411,-4.24935 4.897751,-2.16989 6.297602,1.42081 14.703285,2.35134 23.930785,4.86675 0.62615,-2.93747 0.77495,-6.08499 1.61192,-8.67956 C 98.504996,231.89697 83.875439,217.561 75.493442,209.10382 c -8.515988,-8.59181 -3.242271,-7.20038 4.897752,-2.16989 7.707152,4.76311 27.416836,20.13392 40.235956,31.5564 1.90526,-3.36387 3.68024,-6.74876 5.9827,-9.26853 -9.6026,-23.01892 -21.09482,-52.15301 -26.10068,-63.0508 -5.049838,-10.99468 -0.14964,-7.57162 4.89775,0.55797 5.47647,8.82059 21.72698,36.30559 31.5254,54.89822 1.65113,-0.91804 3.17389,-1.53664 4.89775,-2.16989 1.60889,-26.46247 -4.75982,-57.36184 -6.54066,-70.14945 -0.67119,-4.82243 -1.11917,-7.39408 -0.52698,-8.15258 0.12336,-0.15823 0.26478,-0.23496 0.43398,-0.24799 z m 20.70695,112.74128 c 5.12773,-0.0709 9.94235,2.32617 12.55436,7.12964 l 0.55797,0.52697 c 3.62051,7.01932 0.47858,15.97053 -6.54066,19.59101 -7.01919,3.62065 -15.93948,0.47848 -19.56001,-6.54067 -3.62058,-7.01913 -0.50958,-15.41257 6.50967,-19.03303 1.72774,-0.89121 3.62106,-1.47038 5.45572,-1.61192 0.344,-0.0266 0.6811,-0.0572 1.02295,-0.062 z"
       id="rect11261"
       inkscape:connector-curvature="0"
       sodipodi:nodetypes="sssszczssssscccsscccsccssccccccccscccccscccsccccsscccsccs" />
    <g
       style="fill-rule:evenodd"
       id="g1017"
       transform="translate(40.15596,68.808468)">
      <path
         style="fill:#1f1a17;stroke:#1f1a17;stroke-width:2.76821995"
         inkscape:connector-curvature="0"
         id="_65375008"
         class="fil1 str1"
         d="M 133.094,57.1111 C 97.7605,58.426 55.4109,53.62315 24.219,73.8893 15.96141,79.25549 12.533,90.3837 11.6997,99.5244 l -1.41594,41.998 -2.9523,29.1562 -0.555028,0 -1.17234,-57.3727 c -0.17855,-14.4501 -1.62633,-30.3161 9.31782,-41.6949 11.4632,-11.9172 28.0268,-15.7484 43.9551,-17.3844 25.1133,-2.57859 49.249398,0.581326 74.217298,2.88448 z" />
    </g>
    <circle
       d="M 57.894501,0 C 57.894501,31.97425 31.97425,57.894501 0,57.894501 -31.97425,57.894501 -57.894501,31.97425 -57.894501,0 c 0,-31.97425 25.920251,-57.894501 57.894501,-57.894501 31.97425,0 57.894501,25.920251 57.894501,57.894501 z"
       style="fill:#b8db7c;fill-rule:evenodd;stroke:#72706f;stroke-width:4.15232992"
       sodipodi:ry="57.894501"
       sodipodi:rx="57.894501"
       sodipodi:cy="0"
       sodipodi:cx="0"
       cy="0"
       cx="0"
       id="_67621792"
       class="fil0 str0"
       transform="matrix(2.02973,-0.0317031,0.0317031,2.02973,-297.87473,266.5)"
       r="57.894501" />
    <path
       style="fill:#00923f;fill-rule:evenodd;stroke:#72706f;stroke-width:2.44157004"
       inkscape:connector-curvature="0"
       id="_67742368"
       class="fil1 str1"
       d="m -388.65803,207.7203 -1.78273,0.0803 c 0.61593,2.30731 3.5793,3.71495 5.55166,4.75857 0,3.90042 0.93427,5.86308 4.75718,5.9489 0,-5.76758 -7.43266,-12.9234 -7.5337,-17.4481 2.64918,1.77443 1.60141,2.05125 2.81943,4.71566 0.34741,0.76126 2.63811,3.08103 3.53917,4.40839 l -0.4097,1.97928 c 1.85332,0.15364 7.97108,8.80708 8.0306,9.13373 l -0.49689,3.95163 c 2.12184,3.16822 6.30738,4.13572 9.91299,5.94751 2.40973,1.2111 2.66302,1.6291 6.34475,1.58619 2.87756,-0.0332 5.33297,0.16332 5.55028,2.77514 0.418,0.0346 6.05548,2.24779 6.88179,2.63534 2.58136,1.2111 1.60972,3.28172 4.61739,5.2956 l 0,1.98343 c 1.20417,0.80555 7.33993,4.36133 8.72404,4.36133 l 1.19033,0 -0.32111,-0.37509 2.35437,-2.01111 0.34464,0.40277 c 0.65191,2.4388 1.58619,4.1288 1.58619,7.53509 l 0,0.39586 c 0,1.41456 -2.30869,2.03326 -2.37928,5.15442 -1.69553,0.89828 -2.92739,2.67687 -3.42982,4.89836 -0.16056,0.71281 -0.93151,7.36623 -0.93151,7.39391 0,1.06161 0.57303,1.17372 1.19033,1.58619 -0.22284,0.31973 -0.79309,0.97995 -0.79309,1.19033 0,1.29968 1.88377,1.93775 2.76268,2.78759 0.93012,0.89828 1.33843,2.19243 1.84225,3.70941 0.89275,2.69624 2.8222,4.68521 4.00561,7.09632 1.0187,2.07478 -0.1135,2.17167 1.71768,3.83398 0.99794,0.90659 1.96267,1.62356 3.08795,2.46371 1.34259,1.00348 5.12397,4.35025 6.63542,4.68521 l 0.17025,11.9033 c 0.209,0.30035 0.80831,1.00071 0.42076,1.16265 l -0.42076,9.94067 c -0.0595,0.8014 -0.7931,0.27682 -0.7931,1.58619 0,2.16475 0.7931,2.19658 0.7931,4.36133 l 0,2.37928 c 0,1.37719 -0.7931,0.60485 -0.7931,1.98343 l 0,0.39585 c 0,1.20833 0.18132,1.45055 0.39724,2.37928 -0.5052,0.75434 -1.29691,1.47408 -1.1059,2.76822 l 0.31281,7.14477 0,0.39724 c 0,1.80073 0.84707,2.06786 1.49345,3.17515 l 0.47336,7.84236 -2.75991,0.48167 0,1.18895 c 0,0.14533 2.43465,3.45612 2.75576,3.95301 l -1.56681,2.78759 c 0.8886,3.81322 4.30458,10.6078 8.72404,10.7061 l 0,-1.18895 0.68929,0.0554 0.8969,1.92668 c -0.87475,0.0208 -1.98343,-0.12041 -1.98343,0.7931 0,1.11282 2.76545,3.17238 3.17238,3.17238 2.09416,0 3.78969,-0.46645 5.1558,-1.18895 -1.41871,-2.11907 -5.73436,-4.95511 -5.9572,-7.51294 l 1.30245,0.35295 -0.8969,-4.73642 c 0.87476,-0.4623 1.58619,-0.34603 1.58619,-1.58619 l 0,-2.37928 c 1.19725,-0.27821 2.37928,-0.22838 2.37928,-1.5848 l 0,-0.39724 c 0,-2.526 -1.9419,-3.10456 -3.56962,-3.96547 1.44224,-2.15229 3.47965,-1.11282 3.56962,-5.15442 1.2194,-0.32527 1.58619,-0.77095 1.58619,-2.37928 l -0.004,-1.57235 -1.97928,-0.41108 0,-1.5848 c 1.08929,0.25329 1.61249,0.79309 2.37928,0.79309 0.90797,0 0.46091,-0.13564 1.58619,-0.39724 l 0,-1.18895 c 0,-5.82571 1.39657,-3.26373 3.81184,-3.6928 1.82149,-0.32526 4.51496,-2.13568 4.51496,-4.23814 l 0,-0.79309 c 0,-1.7329 -0.7931,-1.43947 -0.7931,-3.17238 l 0.0208,-1.10867 1.96267,-0.47752 0,1.19033 1.18895,0 c 2.80005,0 3.33985,-3.2139 4.83884,-5.47138 1.25954,-1.89761 3.00352,-4.56756 4.39316,-6.31292 2.2644,-2.84434 0.0332,-6.58974 2.16751,-8.53857 0.75295,-0.6879 2.22841,-1.28307 3.17099,-1.98481 0.45814,-0.34326 2.84434,-2.6741 2.87756,-2.6741 1.01594,0 0.9578,0.0955 1.68031,0.53012 l 3.47411,-2.51216 0,-1.98343 c 4.57586,-3.06442 1.80211,-6.61881 3.96547,-10.7061 -0.29897,-1.28168 -0.7931,-2.45818 -0.7931,-3.96547 0,-3.80907 6.74061,-6.13022 6.74061,-15.4646 l 0,-0.39586 c 0,-0.8886 -0.31419,-0.8706 -0.79309,-1.58619 -7.50879,0 -4.09973,-2.31977 -6.76414,-3.5447 -0.0651,-0.0305 -8.71712,-1.21386 -9.15726,-1.1848 l -0.7322,-2.01111 c -1.43947,-0.12042 -4.23537,-1.19033 -4.36271,-1.19033 l -2.24087,-0.0858 -0.9315,-1.50037 -2.77514,0 c 0.14672,-0.30589 0.42907,-1.05746 0.63669,-1.34535 0.33219,-0.45676 0.9495,-0.41662 0.9495,-1.03393 0,-1.33843 -1.20002,-0.86784 -1.58619,-3.56823 -0.29482,-2.06786 -0.49275,-2.72531 -2.77514,-2.77514 -0.57579,-2.15229 -3.1613,-3.17238 -5.9489,-3.17238 l -3.17099,0 c -0.36125,-1.35227 -8.56486,-9.51713 -9.91437,-9.51713 -1.70522,0 -2.14952,0.46229 -3.56823,0.79309 -0.27959,-0.1481 -1.94744,-1.18895 -1.98204,-1.18895 -1.04085,0 -1.02701,0.64776 -2.77652,0.79309 -0.0983,-1.18341 -0.28513,-1.98343 -1.58619,-1.98343 -2.18966,0 -2.65195,0.79171 -4.28797,1.16127 l -0.4789,-1.18341 1.41456,-0.62285 -1.80211,-1.33705 c -0.73497,0.38894 -5.44508,3.17238 -5.94751,3.17238 l -1.19033,0 c 0,2.06371 -0.34465,4.36133 -2.37928,4.36133 -0.78203,0 -0.98134,-1.58619 -2.37928,-1.58619 l -1.18895,0 c -1.37719,0 -0.60486,0.7931 -1.98204,0.7931 l -1.19033,0 c -2.24087,0 -2.50662,-1.58619 -3.38138,-3.19867 l -0.97995,-5.12812 c 0.61731,-0.41385 1.18895,-0.52596 1.18895,-1.58619 l 0,-0.7931 c 0,-0.50381 -1.76335,-3.17238 -2.77514,-3.17238 l -5.87554,-0.11211 3.49072,-10.5234 -6.73507,-0.46783 c -0.25191,3.01459 -2.33638,6.34475 -5.55166,6.34475 -3.82291,0 -6.74061,-4.56341 -6.74061,-7.92956 l 0,-0.79309 c 0,-3.12532 1.39795,-4.88452 1.59588,-7.21259 l -3.18207,-0.3225 c -1.43255,-2.13845 -2.36267,-7.13646 -5.1558,-7.13646 -1.36612,0 -1.53498,0.29344 -2.75714,0.37787 l -5.27207,-5.42571 -0.29759,0.28928 c -0.63392,0.42492 -3.06165,1.98204 -3.96547,1.98204 l -0.79309,0 c -3.2222,0 -6.83058,-3.17238 -7.92956,-3.17238 l -4.57309,0.0872 3.97654,9.74551 z" />
    <g
       style="fill-rule:evenodd"
       id="g20275"
       transform="translate(-448.29373,113.868)">
    <path
   style="fill:#1f1a17;stroke:#1f1a17;stroke-width:2.76821995"
   inkscape:connector-curvature="0"
   id="_65215272"
   class="fil2 str2"
   d="m 134.836,127.195 c 6.84165,-0.0997 18.399,-2.60489 22.799,4.36963 l 0.80555,1.63878 0.9758,3.0395 0.9232,2.28932 2.04433,1.97097 3.50041,2.49001 3.41875,1.92114 c 6.83334,3.29556 15.2723,3.10317 22.2925,6.6285 2.11769,1.06161 2.87341,3.4229 2.24502,5.38141 l 1.06576,1.0104 c 4.03052,4.42776 2.94954,8.22299 0.39862,13.3442 -2.03049,4.07482 -4.10942,5.94751 -4.27413,10.7919 -0.11488,3.33432 1.98758,6.15651 0.16194,9.43132 -3.01044,5.39526 -10.6424,6.17451 -14.0542,11.3262 l 0.0678,-0.15225 -12.839,19.8329 -0.63392,-0.33634 c 3.47826,-8.00568 5.91568,-18.7754 12.1746,-25.3292 1.86578,-1.95298 10.1995,-5.95305 9.99188,-8.36694 -0.34326,-3.96824 -1.85055,-6.71016 -1.24708,-10.9995 l 0.9578,-3.78554 1.52806,-3.19452 1.80903,-3.05196 -0.09,0.15087 0.99102,-2.22011 0.21869,-1.03393 -0.0194,-0.10658 -0.0111,0.0457 -0.007,0.0388 -0.0803,-0.0844 -0.62562,-0.62008 -1.21248,-1.20141 c -1.36196,-1.5848 -3.38276,-3.70941 -3.43259,-5.95997 l -2.65334,-1.06438 c -8.00707,-2.85265 -22.4087,-5.08106 -26.1707,-14.4238 -1.22217,-3.03258 -0.86368,-8.28804 -4.69074,-9.58495 -5.47415,-1.85747 -10.9054,-2.12599 -16.3283,-4.18554 z m 52.5947,30.6054 0.0318,0.0332 -0.0152,-0.0249 -0.0166,-0.008 z" />

   </g>
    <path
       style="fill:none"
       inkscape:connector-curvature="0"
       id="_67679224"
       class="fil3"
       d="m -313.45773,241.063 c 5.52675,1.97374 11.4493,0.39447 16.9761,2.36821 5.52675,1.97374 4.34195,6.31707 6.31707,10.2645 1.97374,3.15854 10.2645,8.68528 12.2383,8.68528 1.1848,0 26.8462,6.71154 18.1609,7.89634 2.76268,5.52675 8.29081,4.7378 3.55301,13.0286 -2.76406,4.34195 -4.34333,6.31569 -4.34333,12.6328 0,3.15854 2.76406,6.31707 0,9.08114 -3.55301,3.55301 -10.2645,5.92122 -12.6328,10.659 -2.76406,6.71154 -7.50187,13.8176 -11.0549,20.5291" />
    <g
       style="fill-rule:evenodd"
       id="g20279"
       transform="translate(-448.29373,113.868)">
    <path
   style="fill:#1f1a17;stroke:#1f1a17;stroke-width:1.05469"
   inkscape:connector-curvature="0"
   id="_67679200"
   class="fil2 str3"
   d="m 136.645,192.255 c 1.28445,7.28456 3.03535,14.5248 3.1004,21.9201 0.0914,10.3324 -4.66029,22.5444 -0.10796,32.2525 2.09969,4.47759 1.59172,7.31917 2.1426,12.2535 0.24776,2.23395 1.93222,4.18693 3.11978,5.97104 l -0.36679,0.48997 c -2.00419,-1.09345 -3.67896,-1.80211 -4.93435,-3.84782 l -0.86784,-1.64986 -0.93842,-3.57515 -0.39032,-3.91564 -0.0955,0.0208 -0.44153,-0.7405 -0.72805,-1.08514 c -5.34266,-8.00845 -4.96618,-10.9871 -4.20215,-22.734 l 3.19591,-24.6039 1.51421,-10.7559 z" />

   </g>
    <path
       style="fill:none"
       inkscape:connector-curvature="0"
       id="_67725168"
       class="fil3"
       d="m -311.65073,306.125 c 0,6.79597 0.84984,14.4432 0.42492,21.6641 -0.84984,8.92058 -2.97307,19.1159 -2.12461,28.4628 0.42492,2.97307 4.67413,8.07074 4.67413,9.77042 0,5.52259 0,8.92058 5.09767,12.7435" />
    <g
       style="fill-rule:evenodd"
       id="g20283"
       transform="translate(-448.29373,113.868)">
    <path
   style="fill:#1f1a17;stroke:#1f1a17;stroke-width:1.05469"
   inkscape:connector-curvature="0"
   id="_67552648"
   class="fil2 str3"
   d="m 82.2299,91.4439 c 3.5364,1.16404 8.03752,1.30106 10.3365,4.91359 3.07549,4.83469 -4.0762,13.8494 2.36406,15.6709 l 0.188239,0.418 c -2.44018,3.10871 -5.34958,0.63116 -6.32122,-2.52877 l -0.719736,-1.74675 -0.206232,-5.4091 0.386166,-4.022219 0.03599,0.134259 0.04567,0.07059 0.02907,-0.0097 c 0.168861,-0.491359 -0.772333,-1.3758 -1.06438,-1.59311 -1.74951,-1.29829 -5.97935,-2.78621 -5.07414,-5.89769 z" />

   </g>
    <path
       style="fill:none"
       inkscape:connector-curvature="0"
       id="_67899296"
       class="fil3"
       d="m -366.06523,205.3119 c 0.65607,2.18828 3.60837,2.91909 5.24854,3.64851 1.64017,0.36402 3.28172,2.18828 3.28172,3.64713 0,2.91909 -0.65745,5.83679 -0.65745,8.75587 0,0 0.98548,3.64713 0.98548,3.64713 0.65607,1.82426 2.62427,1.82426 3.9364,1.09483" />
    <g
       style="fill-rule:evenodd"
       id="g20287"
       transform="translate(-448.29373,113.868)">
    <path
   style="fill:#1f1a17;stroke:#1f1a17;stroke-width:1.05469"
   inkscape:connector-curvature="0"
   id="_67629040"
   class="fil2 str3"
   d="m 101.429,124.52 c 2.45541,0.11211 4.94265,0.36264 6.59113,2.78483 0.93012,1.3675 1.11974,5.17795 2.51631,5.71775 3.68727,1.42286 10.1815,1.28168 10.5829,7.08248 0.28236,4.03883 -2.92462,7.16691 -5.16965,9.70399 l -0.37648,-0.21177 c 0.51904,-2.42081 4.01391,-9.18356 0.0471,-9.76073 -2.91632,-0.42354 -6.57036,-0.418 -8.59808,-3.40768 -1.58065,-2.33361 -0.58132,-5.49214 -1.92253,-7.69564 -0.96472,-1.58757 -2.49555,-2.82773 -3.67066,-4.21323 z" />

   </g>
    <path
       style="fill:none"
       inkscape:connector-curvature="0"
       id="_65375008-6"
       class="fil3"
       d="m -346.86473,238.388 c 1.86993,0.70036 4.98556,2.44849 5.60841,4.5468 0.31142,1.05054 0.93427,4.89698 1.55712,5.59734 0.62423,0.69897 3.42705,2.09831 4.36271,2.09831 1.55712,0 5.2956,0.69897 5.91983,2.44849 1.55712,2.79867 -1.86993,7.69564 -3.11563,10.4929" />
    <path
       style="fill:#00923f;fill-rule:evenodd;stroke:#72706f;stroke-width:2.44157004"
       inkscape:connector-curvature="0"
       id="_34376888"
       class="fil1 str1"
       d="m -350.74863,267.69 -36.8394,21.4205 19.1311,2.21596 c -39.6962,75.4754 37.4166,81.7067 53.5387,87.6722 -8.11503,-2.25333 -69.9598,-39.3461 -35.1522,-84.4099 l 20.2218,2.76406 -20.9,-29.6628 z" />
    <g
       style="fill-rule:evenodd"
       id="g20292"
       transform="translate(-448.29373,113.868)">
    <path
   style="fill:#1f1a17;stroke:#1f1a17;stroke-width:1.05469"
   inkscape:connector-curvature="0"
   id="_66035096"
   class="fil2 str3"
   d="m 114.781,182.974 -8.07627,0.58825 -7.87281,-1.0367 -2.22565,4.87621 -3.02012,8.18147 -2.27686,9.20847 c -3.11148,19.0675 6.72954,36.3425 21.9824,46.9074 l -0.14533,0.48582 c -5.99042,-2.23534 -9.91991,-3.91564 -14.504101,-8.74341 -10.0805,-10.6133 -15.7276,-25.1991 -12.7283,-39.7391 1.60695,-7.78146 5.5392,-18.1374 10.7268,-24.3755 0.429074,-0.51489 1.22355,-0.40831 1.77166,-0.28098 l 16.368501,3.9281 z" />

   </g>
    <path
       style="fill:none"
       inkscape:connector-curvature="0"
       id="_67551712"
       class="fil3"
       d="m -333.51073,296.842 c -1.32321,0.33772 -14.1442,-1.15019 -17.0204,-2.30177 -3.24158,5.69284 -10.6216,20.8502 -9.98773,33.1328 0.79309,15.3359 13.1255,34.4864 25.4455,38.1377" />
    <path
       style="fill:#00923f;fill-rule:evenodd;stroke:#72706f;stroke-width:2.44157004"
       inkscape:connector-curvature="0"
       id="_68172392"
       class="fil1 str1"
       d="m -247.84973,270.996 39.6852,-13.2611 -17.9547,-5.93921 c 53.1954,-64.6697 -24.7063,-88.9151 -39.0208,-97.8606 7.11432,-3.24158 66.8082,50.167 21.9935,91.0633 l -18.8945,-6.68386 14.1913,32.6816 z" />
    <g
       style="fill-rule:evenodd"
       id="g20297"
       transform="matrix(0.87744852,0.47967082,-0.47967082,0.87744852,138.37667,79.317749)">
    <path
   style="fill:#1f1a17;stroke:#1f1a17;stroke-width:1.05469"
   inkscape:connector-curvature="0"
   id="_67361768"
   class="fil2 str3"
   d="m 205.15683,129.96066 2.75161,-4.30043 4.00699,-7.35792 3.55577,-8.50812 c 6.00288,-17.9422 0.67683,-36.7495 -10.4306,-50.113 l 0.20762,-0.445683 c 4.70043,3.38553 7.74547,5.81602 10.7933,11.441 6.70047,12.367 8.93442,27.7099 3.82429,41.265803 -2.735,7.25411 -6.88502,16.19194 -12.39373,21.22044 -0.45399,0.41523 0.42519,14.0193 -1.0125,6.06763 -1.40208,-3.90471 -2.19008,-4.81142 -1.30275,-9.26972 z"
   sodipodi:nodetypes="ccccccccccc" />

   </g>
    <path
       style="fill:none"
       inkscape:connector-curvature="0"
       id="_67360576"
       class="fil3"
       d="m -256.61673,240.176 c 1.1848,-0.0623 11.8203,3.97239 14.0639,5.67346 3.75647,-4.89144 12.6992,-18.1637 14.3214,-30.2525 2.02633,-15.0951 -5.0866,-36.2318 -14.9179,-42.2707" />
    <g
       style="fill-rule:evenodd"
       id="g20301"
       transform="translate(-448.29373,113.868)">
    <path
   style="fill:#1f1a17;stroke:#1f1a17;stroke-width:1.05469"
   inkscape:connector-curvature="0"
   id="_67898856"
   class="fil2 str3"
   d="m 200.769,158.781 c 9.36073,-7.42851 19.736,-12.9719 31.1494,-16.1761 -3.7274,-1.45608 -7.38007,-3.22359 -11.1227,-4.58694 l 0.16056,-0.6533 c 5.67485,0.73912 18.1969,0.52596 22.9707,4.09835 0.89552,0.66991 0.63807,2.5523 -0.3225,3.1267 -4.97172,2.97445 -11.0756,3.38691 -16.583,5.1821 l -20.482,7.54616 c -1.86439,0.75988 -3.78138,1.14327 -5.77035,1.463 z" />

   </g>
    <path
       style="fill:none"
       inkscape:connector-curvature="0"
       id="_67777080"
       class="fil3"
       d="m -247.52473,272.647 c 2.99521,-0.53288 7.21536,-4.32534 10.3407,-5.35927 7.75101,-2.56337 21.6904,-10.2604 30.8629,-10.5787 l -21.0966,-5.15027" />
    <g
       style="fill-rule:evenodd"
       id="g20305"
       transform="translate(-448.29373,113.868)">
    <path
   style="fill:#1f1a17"
   inkscape:connector-curvature="0"
   id="_67468136"
   class="fil2"
   d="M 204.103,49.2784 C 186.9982,42.82015 172.4014,36.4879 153.7076,36.301 87.0129,35.632476 31.9516,102.2884 36.4516,166.864 c 2.61043,37.4651 24.68,67.2967 57.6633,84.7448 33.3778,17.6557 71.2456,21.0274 106.114,6.09285 11.7165,-5.01878 19.3111,-11.7137 28.3991,-20.1762 l 0.54119,0.36264 c -5.0257,5.62086 -9.68599,11.6404 -15.9242,15.8743 -62.7389,42.5669 -164.799004,6.29077 -182.043004,-68.7418 -13.0867,-56.9353 21.5879,-118.438004 73.820004,-142.285004 20.3838,-9.30536 43.7157,-12.9262 65.7604,-7.90741 11.866,2.7004 22.4156,9.05069 33.321,14.4501 z" />

   </g>
    <path
       style="fill:none"
       inkscape:connector-curvature="0"
       id="_4587152"
       class="fil3"
       d="m -244.19073,163.1464 c -88.7795,-52.448 -189.89,44.2679 -169.11,134.872 9.58218,41.7918 44.4133,70.2601 89.2307,82.1413 43.0195,11.4051 90.4335,-7.35792 104.675,-28.5846" />
    <g
       style="fill-rule:evenodd"
       id="g20309"
       transform="translate(-448.29373,113.868)">
    <path
   style="fill:#1f1a17;stroke:#1f1a17;stroke-width:1.05469"
   inkscape:connector-curvature="0"
   id="_67770824"
   class="fil2 str3"
   d="m 95.6405,154.242 c -7.97247,8.89982 -17.2626,16.1166 -27.9728,21.2032 3.9198,0.80278 7.82021,1.92945 11.7372,2.64226 l -0.04568,0.66991 c -5.71775,0.22976 -18.0266,2.55368 -23.3333,-0.16056 -0.997942,-0.50935 -1.06161,-2.40835 -0.210385,-3.13639 4.3987,-3.77031 10.3448,-5.2084 15.4702,-7.9088 l 18.9152,-10.8943 c 1.70799,-1.063 3.53501,-1.76474 5.43955,-2.41527 z" />

   </g>
    <path
       style="fill:none"
       inkscape:connector-curvature="0"
       id="_67700432"
       class="fil3"
       d="m -352.65323,268.11 c -2.86234,1.03255 -6.38212,5.48245 -9.28737,7.0285 -7.20705,3.83536 -19.6474,13.7746 -28.6344,15.6363 l 21.6641,1.5156" />
    <path
       inkscape:connector-curvature="0"
       id="path3945"
       d="m 136.1877,142.40625 c -0.1692,0.013 -0.31414,0.0918 -0.4375,0.25 -0.59219,0.7585 -0.13994,3.33382 0.53125,8.15625 1.78084,12.78761 8.17139,43.69378 6.5625,70.15625 -1.72386,0.63325 -3.25512,1.23821 -4.90625,2.15625 -9.79842,-18.59263 -26.05478,-46.08566 -31.53125,-54.90625 -5.04739,-8.12959 -9.95609,-11.55718 -4.90625,-0.5625 5.00586,10.89779 16.5224,40.04358 26.125,63.0625 -2.30246,2.51977 -4.09474,5.91738 -6,9.28125 -12.81912,-11.42248 -32.51159,-26.79939 -40.21875,-31.5625 -8.14002,-5.03049 -13.42224,-6.43556 -4.90625,2.15625 8.382,8.45718 22.98982,22.81172 39.65625,40.8125 -0.83697,2.59457 -0.9676,5.71878 -1.59375,8.65625 -9.2275,-2.51541 -17.6399,-3.42294 -23.9375,-4.84375 -9.21817,-2.07946 -15.0393,-2.85858 -4.90625,2.15625 7.59961,3.76087 14.31723,8.29795 26.65625,13.59375 4.11299,1.76526 9.03349,4.04048 14.6875,5.96875 l 0.5625,-9.25 c 5.60774,-43.4229 62.40695,-32.34898 56.53125,4.34375 12.61865,-0.45497 8.62141,-0.2262 16.8125,-0.5 16.45723,-0.79677 38.19321,-2.9749 47.3125,-5.46875 6.87711,-1.88008 11.34787,-3.46062 -1.09375,-3.78125 -12.01069,-0.30967 -23.62047,-1.38481 -46.21875,-3.28125 -0.2326,-2.26004 -0.49988,-4.40308 -1.0625,-6.53125 17.26308,-10.64171 35.56872,-26.68419 41.3125,-32.59375 6.67402,-6.86674 9.9294,-14.97792 -3.25,-5.46875 -10.73989,7.74894 -26.24827,17.11361 -44.0625,25.59375 -1.42934,-2.20454 -2.57726,-4.08495 -4.34375,-6 15.87214,-16.32041 32.89967,-41.64541 37.53125,-50.03125 4.92767,-8.92183 5.8987,-18.00694 -4.90625,-4.34375 -9.91937,12.54302 -25.44724,28.58631 -44.03125,44.59375 -1.03494,-0.59498 -2.20913,-1.1413 -3.28125,-1.65625 9.68644,-19.65192 18.32583,-48.02595 19.59375,-65.78125 0.72598,-10.16642 -1.72158,-19.73563 -4.90625,-2.6875 -2.99017,16.00708 -15.5271,42.25067 -28.8125,64.6875 -1.88801,-0.21747 -4.07422,-0.6094 -5.96875,-0.5625 2.013,-22.95837 -9.31652,-58.41882 -13.03125,-67.40625 -2.12909,-5.15138 -4.37811,-8.49745 -5.5625,-8.40625 z m 20.71875,112.75 c -0.34185,0.005 -0.68725,0.0359 -1.03125,0.0625 -1.83466,0.14154 -3.70976,0.70254 -5.4375,1.59375 -7.01925,3.62046 -10.15183,12.01212 -6.53125,19.03125 3.62053,7.01915 12.54331,10.18315 19.5625,6.5625 7.01924,-3.62048 10.15176,-12.57443 6.53125,-19.59375 l -0.53125,-0.53125 c -2.61201,-4.80347 -7.43477,-7.1959 -12.5625,-7.125 z"
       style="fill:#1f1a17;fill-opacity:1;stroke:#1f1a17;stroke-width:3.96779870999999984;stroke-miterlimit:4;stroke-opacity:1;stroke-dasharray:none" />
    <path
       style="fill:#00923f;fill-opacity:1;stroke:#72706f;stroke-width:3.96779871;stroke-miterlimit:4;stroke-opacity:1;stroke-dasharray:none"
       d="m 133.6877,139.40625 c -0.1692,0.013 -0.31414,0.0918 -0.4375,0.25 -0.59219,0.7585 -0.13994,3.33382 0.53125,8.15625 1.78084,12.78761 8.17139,43.69378 6.5625,70.15625 -1.72386,0.63325 -3.25512,1.23821 -4.90625,2.15625 -9.79842,-18.59263 -26.05478,-46.08566 -31.53125,-54.90625 -5.04739,-8.12959 -9.95609,-11.55718 -4.90625,-0.5625 5.00586,10.89779 16.5224,40.04358 26.125,63.0625 -2.30246,2.51977 -4.09474,5.91738 -6,9.28125 -12.81912,-11.42248 -32.51159,-26.79939 -40.21875,-31.5625 -8.14002,-5.03049 -13.42224,-6.43556 -4.90625,2.15625 8.382,8.45718 22.98982,22.81172 39.65625,40.8125 -0.83697,2.59457 -0.9676,5.71878 -1.59375,8.65625 -9.2275,-2.51541 -17.6399,-3.42294 -23.9375,-4.84375 -9.21817,-2.07946 -15.0393,-2.85858 -4.90625,2.15625 7.59961,3.76087 14.31723,8.29795 26.65625,13.59375 4.11299,1.76526 9.03349,4.04048 14.6875,5.96875 l 0.5625,-9.25 c 5.60774,-43.4229 62.40695,-32.34898 56.53125,4.34375 12.61865,-0.45497 8.62141,-0.2262 16.8125,-0.5 16.45723,-0.79677 38.19321,-2.9749 47.3125,-5.46875 6.87711,-1.88008 11.34787,-3.46062 -1.09375,-3.78125 -12.01069,-0.30967 -23.62047,-1.38481 -46.21875,-3.28125 -0.2326,-2.26004 -0.49988,-4.40308 -1.0625,-6.53125 17.26308,-10.64171 35.56872,-26.68419 41.3125,-32.59375 6.67402,-6.86674 9.9294,-14.97792 -3.25,-5.46875 -10.73989,7.74894 -26.24827,17.11361 -44.0625,25.59375 -1.42934,-2.20454 -2.57726,-4.08495 -4.34375,-6 15.87214,-16.32041 32.89967,-41.64541 37.53125,-50.03125 4.92767,-8.92183 5.8987,-18.00694 -4.90625,-4.34375 -9.91937,12.54302 -25.44724,28.58631 -44.03125,44.59375 -1.03494,-0.59498 -2.20913,-1.1413 -3.28125,-1.65625 9.68644,-19.65192 18.32583,-48.02595 19.59375,-65.78125 0.72598,-10.16642 -1.72158,-19.73563 -4.90625,-2.6875 -2.99017,16.00708 -15.5271,42.25067 -28.8125,64.6875 -1.88801,-0.21747 -4.07422,-0.6094 -5.96875,-0.5625 2.013,-22.95837 -9.31652,-58.41882 -13.03125,-67.40625 -2.12909,-5.15138 -4.37811,-8.49745 -5.5625,-8.40625 z m 20.71875,112.75 c -0.34185,0.005 -0.68725,0.0359 -1.03125,0.0625 -1.83466,0.14154 -3.70976,0.70254 -5.4375,1.59375 -7.01925,3.62046 -10.15183,12.01212 -6.53125,19.03125 3.62053,7.01915 12.54331,10.18315 19.5625,6.5625 7.01924,-3.62048 10.15176,-12.57443 6.53125,-19.59375 l -0.53125,-0.53125 c -2.61201,-4.80347 -7.43477,-7.1959 -12.5625,-7.125 z"
       id="rect3939"
       inkscape:connector-curvature="0" />
  </g>
  <g
     transform="translate(-41.000198,-117)"
     inkscape:groupmode="layer"
     id="layer10"
     inkscape:label="devices" />
  <g
     transform="translate(-41.000198,-117)"
     inkscape:groupmode="layer"
     id="layer11"
     inkscape:label="apps" />
  <g
     transform="translate(-41.000198,-117)"
     inkscape:groupmode="layer"
     id="layer12"
     inkscape:label="actions" />
  <g
     transform="translate(-41.000198,-117)"
     inkscape:groupmode="layer"
     id="layer13"
     inkscape:label="places" />
  <g
     transform="translate(-41.000198,-117)"
     inkscape:groupmode="layer"
     id="layer14"
     inkscape:label="mimetypes" />
  <g
     transform="translate(-41.000198,-117)"
     inkscape:groupmode="layer"
     id="layer15"
     inkscape:label="emblems"
     style="display:inline" />
  <g
     transform="translate(-41.000198,-117)"
     inkscape:groupmode="layer"
     id="g4953"
     inkscape:label="categories"
     style="display:inline" />
</svg>
