<?xml version="1.0" encoding="UTF-8" standalone="no"?>

<svg
   xmlns:dc="http://purl.org/dc/elements/1.1/"
   xmlns:cc="http://creativecommons.org/ns#"
   xmlns:rdf="http://www.w3.org/1999/02/22-rdf-syntax-ns#"
   xmlns:svg="http://www.w3.org/2000/svg"
   xmlns="http://www.w3.org/2000/svg"
   xmlns:sodipodi="http://sodipodi.sourceforge.net/DTD/sodipodi-0.dtd"
   xmlns:inkscape="http://www.inkscape.org/namespaces/inkscape"
   xml:space="preserve"
   width="256"
   height="256"
   style="fill-rule:evenodd"
   viewBox="0 0 72.24889 72.248891"
   id="svg2"
   version="1.1"
   inkscape:version="0.48.3.1 r9886"
   sodipodi:docname="start-here.svg"><metadata
   id="metadata336"><rdf:RDF><cc:Work
       rdf:about=""><dc:format>image/svg+xml</dc:format><dc:type
         rdf:resource="http://purl.org/dc/dcmitype/StillImage" /><dc:title></dc:title></cc:Work></rdf:RDF></metadata><sodipodi:namedview
   pagecolor="#ffffff"
   bordercolor="#666666"
   borderopacity="1"
   objecttolerance="10"
   gridtolerance="10"
   guidetolerance="10"
   inkscape:pageopacity="0"
   inkscape:pageshadow="2"
   inkscape:window-width="1918"
   inkscape:window-height="1032"
   id="namedview334"
   showgrid="false"
   inkscape:zoom="1.8384776"
   inkscape:cx="92.253502"
   inkscape:cy="167.01985"
   inkscape:window-x="0"
   inkscape:window-y="25"
   inkscape:window-maximized="1"
   inkscape:current-layer="svg2" />
 <defs
   id="defs4"><style
     type="text/css"
     id="style6">
   
    .fil0 {fill:#99AE6A}
    .fil4 {fill:#73A848}
    .fil8 {fill:#6F448A;fill-rule:nonzero}
    .fil1 {fill:#99AE6A;fill-rule:nonzero}
    .fil3 {fill:#ABA0C0;fill-rule:nonzero}
    .fil2 {fill:#BA8FBA;fill-rule:nonzero}
    .fil5 {fill:#73A848;fill-rule:nonzero}
    .fil6 {fill:#98227A;fill-rule:nonzero}
    .fil9 {fill:#B299BF;fill-rule:nonzero}
    .fil7 {fill:#D189B2;fill-rule:nonzero}
   
  </style></defs>
 
<g
   id="g3421"
   transform="matrix(0.96187318,0,0,0.96187318,1.2271037,-0.26323741)"><path
     sodipodi:nodetypes="ssccssccsscccsccccccccssccsscccsccscscccs"
     inkscape:connector-curvature="0"
     style="fill:#72706f;fill-opacity:1"
     d="M 40.763473,5.177014 C 40.386701,5.1198 39.876993,6.0494451 39.255348,8.369653 37.852085,13.607047 35.266851,26.717508 30.347709,36.732987 29.540782,36.698537 28.93929,35.757164 28.112997,35.853074 27.356279,26.996892 25.47796,14.571998 24.800278,10.248195 24.173733,6.2505501 22.739552,4.2440638 22.895278,9.3574308 23.049897,14.435533 22.796886,27.755699 22.745347,38.311668 21.479608,38.904179 20.212606,38.911365 18.961806,39.871353 15.845154,33.317915 10.796383,24.876946 8.3167358,21.978056 5.2153795,18.352342 4.3164516,17.043528 6.217708,21.792848 c 1.8754974,4.684981 4.337286,12.772208 7.871694,22.557426 -0.733215,0.850084 -0.583452,1.886095 -1.292388,2.895491 -3.1683407,-2.486883 -6.1491005,-4.173324 -8.3608338,-5.759097 -3.2475504,-2.3285 -5.38688819,-3.392862 -2.2665973,0.229305 2.9252726,3.395797 5.0060906,7.008275 11.4652781,12.991042 0.0088,0.0081 -1.610555,-1.06717 -0.733369,-0.08209 l 1.484381,2.443664 c 0.180909,-0.472155 1.020245,-1.897622 1.215726,-2.335117 l 1.031875,-2.054931 c 9.288463,-16.274206 28.836449,-2.190559 20.471967,11.182378 l 7.238728,2.020331 0,0.0088 c 6.562282,2.414485 15.577434,5.512715 19.587987,6.050139 2.988093,0.400434 5.127902,0.427914 0.335139,-1.74625 -4.64899,-2.108945 -8.890934,-4.492949 -17.462501,-8.995833 0.280606,-0.920206 0.912911,-1.629086 1.04273,-2.552212 8.778629,-0.875707 18.087412,-4.072792 21.023521,-5.923275 3.187726,-2.009064 6.302508,-4.336948 -0.396875,-2.804583 -5.454704,1.247682 -12.840347,2.347386 -21.166667,2.716389 -0.188573,-1.069732 -0.469082,-2.115467 -0.829028,-3.130903 8.845361,-3.754041 19.540291,-10.64133 22.71007,-13.132153 3.388871,-2.6624 5.241821,-6.09011 -1.217083,-2.54882 -5.949104,3.261761 -14.921138,6.77001 -24.837592,9.949012 -0.320788,-0.42648 -0.228041,-0.519806 -0.580048,-0.9179 7.014289,-6.057144 15.216367,-16.061615 18.6382,-22.773839 0.978754,-1.919912 0.41539,-4.481902 0.41539,-4.481902 0,0 -1.991341,1.913943 -3.868541,5.038206 C 54.06201,26.755603 46.597181,32.382667 37.756042,38.920209 37.081833,38.535199 36.708957,37.5452 35.991475,37.254691 40.538563,28.63491 41.452976,13.480405 41.486667,9.3750697 41.506592,6.9508073 41.247896,5.250575 40.763473,5.177014 z"
     id="path3417" /><path
     sodipodi:nodetypes="ssccssccsscccsccccccccssccsscccsccsscccs"
     inkscape:connector-curvature="0"
     style="fill:#1f1a17;fill-opacity:1"
     d="m 39.634584,5.7414585 c -0.376772,-0.057214 -0.88648,0.8724311 -1.508125,3.192639 -1.403263,5.2373935 -4.205591,17.5880255 -9.124733,27.6035045 -0.806927,-0.03445 -1.408419,0.760929 -2.234712,0.856839 C 26.010296,28.538255 24.349072,15.136438 23.671389,10.812635 23.044844,6.8149906 22.153398,4.3743163 22.309124,9.4876833 22.463743,14.565785 21.667999,28.320139 21.616458,38.876108 20.350719,39.468619 19.083717,40.235634 17.832917,41.195622 14.716265,34.642188 9.3953028,25.653665 7.1878469,22.5425 4.8463196,19.242427 3.7302978,16.95669 5.6315542,21.70601 c 1.8754974,4.684981 4.6629268,13.532037 8.1973348,23.317255 -0.733214,0.850084 -1.451828,1.777548 -2.160764,2.786944 -3.1683407,-2.486883 -6.1491005,-4.173324 -8.3608337,-5.759097 -3.24755041,-2.3285 -4.7356061,-4.044144 -1.6153152,-0.421977 2.9252726,3.395797 4.3548085,7.659557 10.8139959,13.642324 0.0088,0.0081 0.01765,0.0183 0.02646,0.02646 l 1.375834,1.358194 c 0.180909,-0.472155 0.368963,-0.920699 0.564444,-1.358194 l 1.031875,-2.054931 c 9.288463,-16.274206 29.813372,-2.5162 21.44889,10.856737 l 6.261805,2.345972 0,0.0088 c 6.562283,2.414485 15.577434,5.512715 19.587987,6.050139 2.988093,0.400434 5.127902,0.427914 0.335139,-1.74625 -4.64899,-2.108945 -8.890934,-4.492949 -17.4625,-8.995833 0.280605,-0.920206 0.478722,-1.84618 0.608541,-2.769306 8.452988,-1.309895 18.260363,-4.356365 21.457709,-5.706181 3.730462,-1.574876 6.302508,-4.336948 -0.396875,-2.804583 -5.454704,1.247682 -12.840347,2.347386 -21.166667,2.716389 -0.188573,-1.069732 -0.469082,-2.115467 -0.829028,-3.130903 8.845361,-3.754041 19.540291,-10.64133 22.71007,-13.132153 3.388871,-2.6624 5.784556,-6.849939 -0.674348,-3.308649 -5.949104,3.261761 -14.48695,6.552916 -24.946139,11.034482 -0.320788,-0.42648 -0.662228,-0.845447 -1.014236,-1.243541 7.014287,-6.057129 15.107823,-15.627409 18.529651,-22.339636 1.957508,-3.839823 3.393865,-7.403124 -1.499305,-1.940277 -5.416059,6.046612 -12.552799,12.94054 -21.393938,19.478082 -0.674209,-0.38501 -1.806914,0.144649 -2.524396,-0.14586 4.547088,-8.619781 5.787142,-24.425568 5.820833,-28.5309028 0.01992,-2.4242624 -0.238771,-4.1244947 -0.723194,-4.1980557 z"
     id="path3419" /><path
     transform="matrix(0.28222223,0,0,0.28222223,-5e-7,0)"
     id="_121731384"
     d="m 142.4375,18.34375 c -1.33502,-0.202727 -3.14107,3.091291 -5.34375,11.3125 -4.97219,18.557693 -14.13247,65.012084 -31.5625,100.5 -2.85919,-0.12207 -5.75969,0.004 -8.6875,0.34375 C 94.162466,99.119813 88.276237,51.633061 85.875,36.3125 83.654959,22.147618 78.573215,15.038021 79.125,33.15625 79.672862,51.149525 78.776368,98.346962 78.59375,135.75 74.108848,137.84945 69.619469,140.56722 65.1875,143.96875 54.144248,120.74791 35.290444,88.898811 27.46875,77.875 19.172,66.181828 13.294515,60.390451 20.03125,77.21875 26.676713,93.819075 38.476508,122.85922 51,157.53125 c -2.598003,3.01211 -5.144271,6.2984 -7.65625,9.875 C 32.117347,158.59446 21.5556,152.61888 13.71875,147 2.2116821,138.74941 -5.3686485,134.97805 5.6875,147.8125 c 10.365139,12.03235 17.738116,24.83247 40.625,46.03125 0.03116,0.0289 0.06253,0.0649 0.09375,0.0937 l 4.875,4.8125 c 0.641016,-1.67299 1.307349,-3.26232 2,-4.8125 l 3.65625,-7.28125 c 32.911875,-57.66451 105.63793,-8.91567 76,38.46875 l 22.1875,8.3125 0,0.0313 c 23.25218,8.55526 55.19563,19.53324 69.40625,21.4375 10.58773,1.41886 18.16973,1.51623 1.1875,-6.1875 -16.4728,-7.47264 -31.50331,-15.9199 -61.875,-31.875 0.99427,-3.26057 1.69626,-6.54158 2.15625,-9.8125 29.95153,-4.64136 64.70207,-15.43594 76.03125,-20.21875 13.21817,-5.58027 22.33172,-15.36714 -1.40625,-9.9375 -19.32769,4.42092 -45.49729,8.31751 -75,9.625 -0.66817,-3.79039 -1.6621,-7.49575 -2.9375,-11.09375 31.34183,-13.30172 69.23725,-37.7055 80.46875,-46.53125 12.00781,-9.4337 18.57338,-21.57913 -4.3125,-9.03125 -21.0795,11.55742 -51.33171,25.14207 -86.46875,36.40625 -1.13665,-1.51115 -2.34648,-2.99568 -3.59375,-4.40625 24.85378,-21.46233 53.53166,-55.37277 65.65625,-79.15625 6.93605,-13.605672 9.03344,-28.5424 -5.3125,-6.875 -13.42153,20.27116 -46.01688,48.92923 -77.34375,72.09375 -2.38893,-1.36421 -4.86399,-2.56439 -7.40625,-3.59375 16.11173,-30.54253 20.50562,-86.547286 20.625,-101.09375 0.0706,-8.589906 -0.84604,-14.614351 -2.5625,-14.875 z"
     style="fill:#b8db7c;fill-opacity:1"
     inkscape:connector-curvature="0" /><path
     sodipodi:nodetypes="csssc"
     inkscape:connector-curvature="0"
     id="path3413"
     d="m 13.844562,12.550547 c 0.112017,1.470034 -0.07846,2.752541 -2.410992,2.96039 -1.4684772,0.130855 -2.8004568,-1.084705 -2.9124742,-2.554739 -0.1120173,-1.470035 0.9888732,-2.752542 2.4589082,-2.864559 1.447376,-0.1102906 3.34052,0.668691 3.482403,2.113313"
     style="fill:#72706f;fill-opacity:1;stroke:none"
     transform="matrix(2.2653499,0,0,2.2653499,1.394454,29.157028)" /><path
     sodipodi:nodetypes="csc"
     inkscape:connector-curvature="0"
     id="path3409"
     d="m 27.055186,62.780668 c -1.461394,-1.398234 -4.790863,-7.979354 -3.7394,-9.276651 4.600701,-5.676353 16.468306,2.688439 6.956691,9.782672"
     style="fill:#1f1a17;fill-opacity:1;stroke:none" /><path
     sodipodi:open="true"
     sodipodi:end="12.46847"
     sodipodi:start="6.2071318"
     transform="matrix(2.2653499,0,0,2.2653499,1.9588985,29.157028)"
     d="m 13.844562,12.550547 c 0.112017,1.470034 -0.988873,2.752541 -2.458908,2.864558 -1.4700343,0.112018 -2.7525408,-0.988873 -2.8645582,-2.458907 -0.1120173,-1.470035 0.9888732,-2.752542 2.4589082,-2.864559 1.447376,-0.1102906 2.717609,0.956188 2.859492,2.40081"
     sodipodi:ry="2.6694496"
     sodipodi:rx="2.6694496"
     sodipodi:cy="12.753372"
     sodipodi:cx="11.182829"
     id="path3582"
     style="fill:#00923f;fill-opacity:1;stroke:none"
     sodipodi:type="arc" /></g></svg>