<?xml version="1.0" encoding="UTF-8" standalone="no"?>
<!-- Created with Inkscape (http://www.inkscape.org/) -->

<svg
   xmlns:dc="http://purl.org/dc/elements/1.1/"
   xmlns:cc="http://creativecommons.org/ns#"
   xmlns:rdf="http://www.w3.org/1999/02/22-rdf-syntax-ns#"
   xmlns:svg="http://www.w3.org/2000/svg"
   xmlns="http://www.w3.org/2000/svg"
   xmlns:sodipodi="http://sodipodi.sourceforge.net/DTD/sodipodi-0.dtd"
   xmlns:inkscape="http://www.inkscape.org/namespaces/inkscape"
   id="svg7384"
   version="1.1"
   height="256"
   width="256"
   inkscape:version="0.48.3.1 r9886"
   sodipodi:docname="preferences-desktop-accessibility.svg">
  <sodipodi:namedview
     pagecolor="#ffffff"
     bordercolor="#666666"
     borderopacity="1"
     objecttolerance="10"
     gridtolerance="10"
     guidetolerance="10"
     inkscape:pageopacity="0"
     inkscape:pageshadow="2"
     inkscape:window-width="1918"
     inkscape:window-height="1032"
     id="namedview17408"
     showgrid="false"
     inkscape:zoom="0.921875"
     inkscape:cx="107.25424"
     inkscape:cy="94.779661"
     inkscape:window-x="0"
     inkscape:window-y="25"
     inkscape:window-maximized="1"
     inkscape:current-layer="svg7384" />
  <title
     id="title9167">Gnome Symbolic Icon Theme</title>
  <metadata
     id="metadata90">
    <rdf:RDF>
      <cc:Work
         rdf:about="">
        <dc:format>image/svg+xml</dc:format>
        <dc:type
           rdf:resource="http://purl.org/dc/dcmitype/StillImage" />
        <dc:title>Gnome Symbolic Icon Theme</dc:title>
      </cc:Work>
    </rdf:RDF>
  </metadata>
  <defs
     id="defs7386"><style
   id="style20268"
   type="text/css">
   
    .str3 {stroke:#1F1A17;stroke-width:1.05469}
    .str1 {stroke:#72706F;stroke-width:2.44157}
    .str2 {stroke:#1F1A17;stroke-width:2.76822}
    .str0 {stroke:#72706F;stroke-width:4.15233}
    .fil3 {fill:none}
    .fil1 {fill:#00923F}
    .fil2 {fill:#1F1A17}
    .fil0 {fill:#B8DB7C}
   
  </style>

  
  
 
   
   
   
   
   
   
   
   
   
   
   
   
   
   
   
   
   
   
   
   
   
   
  </defs>
  <g
     transform="translate(-41.982553,-141.00459)"
     id="layer9"
     style="display:inline" />
  <g
     transform="translate(-41.982553,-141.00459)"
     id="layer10" />
  <rect
     style="fill:#00923f;fill-opacity:1;stroke:#00923f;stroke-width:4;stroke-miterlimit:4;stroke-opacity:1;stroke-dasharray:none"
     id="rect3834"
     width="173.01695"
     height="201.76271"
     x="41.932201"
     y="27.830509"
     rx="38.411106"
     ry="24.577095" />
  <g
     transform="matrix(15.477769,0,0,15.477769,-645.61839,-5892.923)"
     id="layer11"
     style="fill:#b8db7c;fill-opacity:1;stroke:#72706f;stroke-width:0.25513515;stroke-miterlimit:4;stroke-opacity:1;stroke-dasharray:none">
    <path
       inkscape:connector-curvature="0"
       d="m 49.982553,381.00459 c -4.418276,0 -8,3.58172 -8,8 0,4.41828 3.581724,8 8,8 4.418276,0 8,-3.58172 8,-8 0,-4.41828 -3.581724,-8 -8,-8 z m 0,1.94321 c 1.121291,0 2.030093,0.9088 2.030093,2.03009 0,1.12128 -0.908802,2.03008 -2.030093,2.03008 -1.121291,0 -2.030093,-0.9088 -2.030093,-2.03008 0,-1.12129 0.908802,-2.03009 2.030093,-2.03009 z m -4.797388,4.12017 c 3.206661,-0.0458 6.412936,-0.0154 9.619527,0.0113 0,0 0.430917,-0.008 0.430917,0.42408 l 0,0.20861 C 55.235609,387.93778 55,388 55,388 c 0,0 -2.340217,-0.20369 -2.985178,0.57817 -0.447749,0.54279 0,2.1109 0,2.1109 l 1.354691,3.90641 c 0.136799,0.22572 -0.158388,0.2902 -0.158388,0.2902 l -0.526496,0.005 c -0.253171,0 -0.348086,-0.21303 -0.348086,-0.21303 l -2.071779,-3.59156 c -0.257321,-0.15368 -0.271211,-0.0193 -0.44654,7.7e-4 l -2.168947,3.58622 c -0.07254,0.21764 -0.355596,0.22239 -0.355596,0.22239 l -0.570299,-0.009 c 0,0 -0.208476,-0.006 -0.160647,-0.20918 l 1.387549,-3.9888 c 0,0 0.44823,-1.56851 0,-2.1109 -0.625275,-0.75663 -2.891946,-0.5548 -2.891946,-0.5548 -0.232448,-0.0787 -0.328841,-0.29434 -0.328841,-0.29434 l 0,-0.21764 c 0,0 -0.0097,-0.44343 0.455668,-0.44343 z"
       id="path3850"
       style="fill:#b8db7c;fill-opacity:1;stroke:#72706f;stroke-width:0.25513515;stroke-miterlimit:4;stroke-opacity:1;stroke-dasharray:none;marker:none;visibility:visible;display:inline;overflow:visible"
       sodipodi:nodetypes="ssssssssssccsscsccccccccccccsccccc" />
  </g>
  <g
     transform="translate(-41.982553,-141.00459)"
     id="layer12" />
  <g
     transform="translate(-41.982553,-141.00459)"
     id="layer13" />
  <g
     transform="translate(-41.982553,-141.00459)"
     id="layer14" />
  <g
     transform="translate(-41.982553,-141.00459)"
     id="layer15" />
  <g
     style="fill-rule:evenodd"
     id="g20305"
     transform="matrix(1.0594412,0,0,1.0271959,-31.034657,-29.314194)">
    <path
   style="fill:#1f1a17"
   inkscape:connector-curvature="0"
   id="_67468136"
   class="fil2"
   d="M 204.103,49.2784 C 186.9982,42.82015 172.4014,36.4879 153.7076,36.301 87.0129,35.632476 31.9516,102.2884 36.4516,166.864 c 2.61043,37.4651 24.68,67.2967 57.6633,84.7448 33.3778,17.6557 71.2456,21.0274 106.114,6.09285 11.7165,-5.01878 19.3111,-11.7137 28.3991,-20.1762 l 0.54119,0.36264 c -5.0257,5.62086 -9.68599,11.6404 -15.9242,15.8743 -62.7389,42.5669 -164.799004,6.29077 -182.043004,-68.7418 -13.0867,-56.9353 21.5879,-118.438004 73.820004,-142.285004 20.3838,-9.30536 43.7157,-12.9262 65.7604,-7.90741 11.866,2.7004 22.4156,9.05069 33.321,14.4501 z" />

   </g>
  <g
     style="fill-rule:evenodd"
     id="g20309"
     transform="matrix(-0.06540255,0.99727196,0.88361849,0.07381481,-27.172753,90.644454)">
    <path
   style="fill:#1f1a17;stroke:#1f1a17;stroke-width:1.05469"
   inkscape:connector-curvature="0"
   id="_67770824"
   class="fil2 str3"
   d="m 95.6405,154.242 c -7.97247,8.89982 -24.790582,18.62845 -35.500782,23.71505 -6.62828,3.7049 5.180877,15.54479 9.097867,16.2576 l -0.04568,0.66991 c -5.71775,0.22976 -11.443529,-9.23524 -16.750229,-11.94948 -0.997942,-0.50935 2.522634,-6.74662 3.373859,-7.47466 4.3987,-3.77031 10.3448,-5.2084 15.4702,-7.9088 l 18.9152,-10.8943 c 1.70799,-1.063 3.53501,-1.76474 5.43955,-2.41527 z"
   sodipodi:nodetypes="cccccccccc" />

   </g>
  <g
     transform="matrix(-0.18772892,-0.17570847,-0.20223137,0.16562578,189.17595,68.437166)"
     id="g3933"
     style="fill-rule:evenodd;stroke:#1f1a17;stroke-width:8.68954849;stroke-miterlimit:4;stroke-opacity:1;stroke-dasharray:none">
    <path
   d="M 204.103,49.2784 C 186.9982,42.82015 172.4014,36.4879 153.7076,36.301 87.0129,35.632476 31.9516,102.2884 36.4516,166.864 c 2.61043,37.4651 24.68,67.2967 57.6633,84.7448 33.3778,17.6557 71.2456,21.0274 106.114,6.09285 11.7165,-5.01878 19.3111,-11.7137 28.3991,-20.1762 l 0.54119,0.36264 c -5.0257,5.62086 -9.68599,11.6404 -15.9242,15.8743 -62.7389,42.5669 -164.799004,6.29077 -182.043004,-68.7418 -13.0867,-56.9353 21.5879,-118.438004 73.820004,-142.285004 20.3838,-9.30536 43.7157,-12.9262 65.7604,-7.90741 11.866,2.7004 22.4156,9.05069 33.321,14.4501 z"
   class="fil2"
   id="path3935"
   inkscape:connector-curvature="0"
   style="fill:#1f1a17;stroke:#1f1a17;stroke-width:8.68954849;stroke-miterlimit:4;stroke-opacity:1;stroke-dasharray:none" />

   </g>
  <g
     style="fill-rule:evenodd;stroke:#1f1a17;stroke-width:8.68954849;stroke-miterlimit:4;stroke-opacity:1;stroke-dasharray:none"
     id="g3937"
     transform="matrix(0.22729083,0.10266398,0.13501315,-0.2129026,129.91987,156.19104)">
    <path
   style="fill:#1f1a17;stroke:#1f1a17;stroke-width:8.68954849;stroke-miterlimit:4;stroke-opacity:1;stroke-dasharray:none"
   inkscape:connector-curvature="0"
   id="path3939"
   class="fil2"
   d="m 36.4516,166.864 c 2.61043,37.4651 24.68,67.2967 57.6633,84.7448 33.3778,17.6557 16.70615,2.37042 50.19447,19.8881 30.26171,16.92683 35.08651,25.05201 7.06661,16.11948 C 93.071248,258.44351 48.445986,260.05316 31.201986,185.02059 18.115286,128.08529 52.789886,66.582586 105.02199,42.735586 152.04438,34.927183 33.69544,89.073875 36.4516,166.864 z"
   sodipodi:nodetypes="ccccccc" />

   </g>
</svg>
