<?xml version="1.0" encoding="UTF-8" standalone="no"?>
<!-- Created with Inkscape (http://www.inkscape.org/) -->

<svg
   xmlns:dc="http://purl.org/dc/elements/1.1/"
   xmlns:cc="http://creativecommons.org/ns#"
   xmlns:rdf="http://www.w3.org/1999/02/22-rdf-syntax-ns#"
   xmlns:svg="http://www.w3.org/2000/svg"
   xmlns="http://www.w3.org/2000/svg"
   xmlns:sodipodi="http://sodipodi.sourceforge.net/DTD/sodipodi-0.dtd"
   xmlns:inkscape="http://www.inkscape.org/namespaces/inkscape"
   width="256"
   height="256"
   id="svg8370"
   version="1.1"
   inkscape:version="0.48.3.1 r9886"
   sodipodi:docname="utilities-terminal.svg">
  <defs
     id="defs8372" />
  <sodipodi:namedview
     id="base"
     pagecolor="#ffffff"
     bordercolor="#666666"
     borderopacity="1.0"
     inkscape:pageopacity="0.0"
     inkscape:pageshadow="2"
     inkscape:zoom="0.79614093"
     inkscape:cx="200.06319"
     inkscape:cy="149.34294"
     inkscape:document-units="px"
     inkscape:current-layer="layer1"
     showgrid="false"
     inkscape:window-width="1918"
     inkscape:window-height="1032"
     inkscape:window-x="0"
     inkscape:window-y="25"
     inkscape:window-maximized="1" />
  <metadata
     id="metadata8375">
    <rdf:RDF>
      <cc:Work
         rdf:about="">
        <dc:format>image/svg+xml</dc:format>
        <dc:type
           rdf:resource="http://purl.org/dc/dcmitype/StillImage" />
        <dc:title></dc:title>
      </cc:Work>
    </rdf:RDF>
  </metadata>
  <g
     inkscape:label="Capa 1"
     inkscape:groupmode="layer"
     id="layer1"
     transform="translate(0,-796.36218)">
    <rect
       id="rect7040"
       ry="18.547808"
       rx="18.547808"
       height="28.919361"
       width="181.77892"
       y="996.82874"
       x="38.819675"
       class="fil0 str0"
       style="fill:#00923f;fill-rule:evenodd;stroke:#72706f;stroke-width:3.56301117" />
    <g
       style="fill-rule:evenodd"
       id="_81071816"
       transform="matrix(0.85807511,0,0,0.85807511,0.37284795,799.1626)">
      <path
         d="m 59.6039,230.051 c -3.74401,1.73014 -8.07074,3.13777 -9.877,7.20844 -3.85197,8.67559 2.12045,18.4086 10.7005,20.3021 17.8536,3.94194 35.764,2.04433 53.8654,2.48586 l 96.4558,4.68936 -0.008,0.3571 -133.057005,1.50314 c -8.38908,-0.80002 -26.4005,-2.19796 -30.2248,-12.4431 -2.49555,-6.68248 -4.19939,-16.3962 2.28101,-21.4592 3.09902,-2.42357 6.12191,-2.57444 9.86454,-2.64365 z"
         class="fil1 str1"
         id="_81851448"
         inkscape:connector-curvature="0"
         style="fill:#1f1a17;stroke:#1f1a17;stroke-width:2.76821995" />
    </g>
    <path
       id="path7044"
       d="m 51.517499,996.56534 c -14.304279,1.99408 -11.021606,13.87206 -8.582156,19.94336 4.237647,10.5572 42.158722,9.3078 55.508113,9.3078 26.701184,0 56.061544,0 82.762724,0.6639"
       class="fil2"
       inkscape:connector-curvature="0"
       style="fill:none" />
    <rect
       id="rect7046"
       ry="24.547865"
       rx="38.36554"
       height="159.56158"
       width="241.70341"
       transform="matrix(0.99999573,-0.00292343,0.00714097,0.9999745,0,0)"
       class="fil3 str0"
       x="1.0099374"
       y="836.26654"
       style="fill:#b8db7c;fill-rule:evenodd;stroke:#72706f;stroke-width:5.90924549" />
    <g
       style="fill-rule:evenodd"
       id="_45158744"
       transform="matrix(0.85807511,0,0,0.85807511,0.37284795,799.1626)">
      <path
         d="m 290.378,109.933 3.95025,51.7629 c -0.74604,23.0053 0.3917,57.3367 -27.6766,64.5922 -9.51159,2.45818 -19.3069,3.73848 -29.1313,3.87689 l -97.1727,-1.6111 -0.0111,-0.60486 97.0537,-5.05753 c 12.1428,-0.76541 25.7001,-1.96543 36.2789,-8.73096 15.239,-9.74828 14.0833,-38.3813 15.3733,-52.7373 l 1.33566,-51.4902 z"
         class="fil1 str1"
         id="_80379776"
         inkscape:connector-curvature="0"
         style="fill:#1f1a17;stroke:#1f1a17;stroke-width:2.76821995" />
    </g>
    <path
       id="path7050"
       d="m 249.53727,893.49337 c 3.33259,13.79957 1.63071,75.66043 -5.91577,86.01774 -6.99657,9.60349 -21.33884,13.70809 -39.49595,14.02996 l -83.32919,1.47865"
       class="fil2"
       inkscape:connector-curvature="0"
       style="fill:none" />
    <g
       style="fill-rule:evenodd"
       id="_81827144"
       transform="matrix(0.85807511,0,0,0.85807511,0.37284795,799.1626)">
      <path
         d="M 132.574,42.733 C 97.7263,44.02714 55.9581,39.29349 25.199,59.28 17.05352,64.57145 13.6721,75.5474 12.85,84.5607 l -1.39518,41.4194 -2.91216,28.7535 -0.546723,0 -1.15711,-56.581 c -0.175782,-14.2508 -1.60418,-29.8981 9.1891,-41.1191 11.3054,-11.7539 27.6406,-15.5325 43.3489,-17.1463 24.7686,-2.54261 48.572503,0.573021 73.197203,2.84573 z"
         class="fil1 str1"
         id="_80692792"
         inkscape:connector-curvature="0"
         style="fill:#1f1a17;stroke:#1f1a17;stroke-width:2.76821995" />
    </g>
    <path
       id="path7054"
       d="m 114.13041,835.83073 c -14.666543,0 -32.038488,-1.78626 -46.664636,-0.98577 -45.665924,2.49885 -61.8182295,14.74491 -58.6637718,48.2989 0.6068607,6.46567 -1.3337899,41.39861 -1.3337899,48.79178"
       class="fil2"
       inkscape:connector-curvature="0"
       style="fill:none" />
    <path
       id="path7060"
       d="m 58.522297,903.4153 c -1.900256,7.8683 -0.929931,43.13612 3.371782,49.04122 3.989363,5.47515 12.166459,7.81486 22.518168,7.99895 l 47.507943,0.84206"
       class="fil2"
       inkscape:connector-curvature="0"
       style="fill:none" />
    <path
       id="path7064"
       d="m 135.72045,870.54029 c 8.36123,0 18.26517,-1.01783 26.60496,-0.56176 26.03489,1.42402 35.24406,8.40632 33.44474,27.53615 -0.34554,3.68651 0.76012,23.60255 0.76012,27.81759"
       class="fil2"
       inkscape:connector-curvature="0"
       style="fill:none" />
    <path
       style="fill:none"
       inkscape:connector-curvature="0"
       id="path11198-0-0-4-1-7"
       d="m 143.3267,937.67505 c 10.79262,4.75157 14.89159,-6.42434 16.46886,-12.47689 2.74571,-10.52242 -23.71388,-26.41981 -32.79397,-32.37584 -18.16183,-11.91311 -38.132571,-25.01259 -55.94045,-37.46845"
       class="fil2" />
    <text
       xml:space="preserve"
       style="font-size:177.11346436px;font-style:normal;font-weight:normal;line-height:125%;letter-spacing:0px;word-spacing:0px;fill:#000000;fill-opacity:1;stroke:none;font-family:Sans"
       x="25.058006"
       y="1168.7626"
       id="text3050"
       sodipodi:linespacing="125%"
       transform="scale(1.2582786,0.79473654)"><tspan
         sodipodi:role="line"
         id="tspan3052"
         x="25.058006"
         y="1168.7626"
         style="font-style:normal;font-variant:normal;font-weight:normal;font-stretch:normal;font-family:Supra Genius Curves BRK;-inkscape-font-specification:Supra Genius Curves BRK">&gt;</tspan></text>
    <rect
       style="fill:#1f1a17;fill-opacity:1"
       id="rect3054"
       width="25.262735"
       height="5.5575857"
       x="72.16851"
       y="883.83392"
       rx="11.990167"
       ry="5.5575857" />
  </g>
</svg>
