<?xml version="1.0" encoding="UTF-8" standalone="no"?>
<!-- Creator: CorelDRAW -->

<svg
   xmlns:dc="http://purl.org/dc/elements/1.1/"
   xmlns:cc="http://creativecommons.org/ns#"
   xmlns:rdf="http://www.w3.org/1999/02/22-rdf-syntax-ns#"
   xmlns:svg="http://www.w3.org/2000/svg"
   xmlns="http://www.w3.org/2000/svg"
   xmlns:sodipodi="http://sodipodi.sourceforge.net/DTD/sodipodi-0.dtd"
   xmlns:inkscape="http://www.inkscape.org/namespaces/inkscape"
   xml:space="preserve"
   width="300px"
   height="300px"
   style="shape-rendering:geometricPrecision; text-rendering:geometricPrecision; image-rendering:optimizeQuality; fill-rule:evenodd; clip-rule:evenodd"
   viewBox="0 0 300 300"
   id="svg20264"
   version="1.1"
   inkscape:version="0.48.3.1 r9886"
   sodipodi:docname="web-browser.svg"><metadata
   id="metadata20315"><rdf:RDF><cc:Work
       rdf:about=""><dc:format>image/svg+xml</dc:format><dc:type
         rdf:resource="http://purl.org/dc/dcmitype/StillImage" /></cc:Work></rdf:RDF></metadata><sodipodi:namedview
   pagecolor="#ffffff"
   bordercolor="#666666"
   borderopacity="1"
   objecttolerance="10"
   gridtolerance="10"
   guidetolerance="10"
   inkscape:pageopacity="0"
   inkscape:pageshadow="2"
   inkscape:window-width="640"
   inkscape:window-height="480"
   id="namedview20313" />
 <defs
   id="defs20266"><style
     type="text/css"
     id="style20268">
   
    .str3 {stroke:#1F1A17;stroke-width:1.05469}
    .str1 {stroke:#72706F;stroke-width:2.44157}
    .str2 {stroke:#1F1A17;stroke-width:2.76822}
    .str0 {stroke:#72706F;stroke-width:4.15233}
    .fil3 {fill:none}
    .fil1 {fill:#00923F}
    .fil2 {fill:#1F1A17}
    .fil0 {fill:#B8DB7C}
   
  </style></defs>
 <g
   id="Capa_x0020_1">
  <metadata
   id="CorelCorpID_0Corel-Layer" />
  <g
   id="_67790696">
   <circle
   id="_67621792"
   class="fil0 str0"
   transform="matrix(2.02973 -0.0317031 0.0317031 2.02973 150.419 152.632)"
   r="57.8945" />
   <path
   id="_67742368"
   class="fil1 str1"
   d="M59.6357 93.8523l-1.78273 0.0802783c0.615928,2.30731 3.5793,3.71495 5.55166,4.75857 0,3.90042 0.934273,5.86308 4.75718,5.9489 0,-5.76758 -7.43266,-12.9234 -7.5337,-17.4481 2.64918,1.77443 1.60141,2.05125 2.81943,4.71566 0.347411,0.76126 2.63811,3.08103 3.53917,4.40839l-0.409696 1.97928c1.85332,0.153636 7.97108,8.80708 8.0306,9.13373l-0.496895 3.95163c2.12184,3.16822 6.30738,4.13572 9.91299,5.94751 2.40973,1.2111 2.66302,1.6291 6.34475,1.58619 2.87756,-0.0332186 5.33297,0.163325 5.55028,2.77514 0.418001,0.0346027 6.05548,2.24779 6.88179,2.63534 2.58136,1.2111 1.60972,3.28172 4.61739,5.2956l0 1.98343c1.20417,0.805551 7.33993,4.36133 8.72404,4.36133l1.19033 0 -0.321113 -0.375093 2.35437 -2.01111 0.344643 0.402776c0.651915,2.4388 1.58619,4.1288 1.58619,7.53509l0 0.395855c0,1.41456 -2.30869,2.03326 -2.37928,5.15442 -1.69553,0.898286 -2.92739,2.67687 -3.42982,4.89836 -0.160557,0.712816 -0.931505,7.36623 -0.931505,7.39391 0,1.06161 0.573021,1.17372 1.19033,1.58619 -0.222841,0.319729 -0.793094,0.979949 -0.793094,1.19033 0,1.29968 1.88377,1.93775 2.76268,2.78759 0.930121,0.898286 1.33843,2.19243 1.84225,3.70941 0.89275,2.69624 2.8222,4.68521 4.00561,7.09632 1.0187,2.07478 -0.113497,2.17167 1.71768,3.83398 0.997942,0.906591 1.96267,1.62356 3.08795,2.46371 1.34259,1.00348 5.12397,4.35025 6.63542,4.68521l0.170245 11.9033c0.209,0.300352 0.808319,1.00071 0.420769,1.16265l-0.420769 9.94067c-0.0595167,0.801399 -0.793094,0.276822 -0.793094,1.58619 0,2.16475 0.793094,2.19658 0.793094,4.36133l0 2.37928c0,1.37719 -0.793094,0.604855 -0.793094,1.98343l0 0.395855c0,1.20833 0.181318,1.45055 0.397239,2.37928 -0.5052,0.754339 -1.29691,1.47408 -1.1059,2.76822l0.312809 7.14477 0 0.397239c0,1.80073 0.847074,2.06786 1.49345,3.17515l0.473365 7.84236 -2.75991 0.48167 0 1.18895c0,0.145331 2.43465,3.45612 2.75576,3.95301l-1.56681 2.78759c0.888598,3.81322 4.30458,10.6078 8.72404,10.7061l0 -1.18895 0.689286 0.0553643 0.896902 1.92668c-0.874757,0.0207616 -1.98343,-0.120417 -1.98343,0.793094 0,1.11282 2.76545,3.17238 3.17238,3.17238 2.09416,0 3.78969,-0.466445 5.1558,-1.18895 -1.41871,-2.11907 -5.73436,-4.95511 -5.9572,-7.51294l1.30245 0.352948 -0.896902 -4.73642c0.874757,-0.462292 1.58619,-0.346027 1.58619,-1.58619l0 -2.37928c1.19725,-0.278206 2.37928,-0.228378 2.37928,-1.5848l0 -0.397239c0,-2.526 -1.9419,-3.10456 -3.56962,-3.96547 1.44224,-2.15229 3.47965,-1.11282 3.56962,-5.15442 1.2194,-0.325266 1.58619,-0.770948 1.58619,-2.37928l-0.00415233 -1.57235 -1.97928 -0.41108 0 -1.5848c1.08929,0.253292 1.61249,0.793094 2.37928,0.793094 0.907975,0 0.460908,-0.135643 1.58619,-0.397239l0 -1.18895c0,-5.82571 1.39657,-3.26373 3.81184,-3.6928 1.82149,-0.325266 4.51496,-2.13568 4.51496,-4.23814l0 -0.793094c0,-1.7329 -0.793094,-1.43947 -0.793094,-3.17238l0.0207616 -1.10867 1.96267 -0.477517 0 1.19033 1.18895 0c2.80005,0 3.33985,-3.2139 4.83884,-5.47138 1.25954,-1.89761 3.00352,-4.56756 4.39316,-6.31292 2.2644,-2.84434 0.0332186,-6.58974 2.16751,-8.53857 0.752955,-0.687902 2.22841,-1.28307 3.17099,-1.98481 0.45814,-0.343259 2.84434,-2.6741 2.87756,-2.6741 1.01594,0 0.957803,0.0955035 1.68031,0.530114l3.47411 -2.51216 0 -1.98343c4.57586,-3.06442 1.80211,-6.61881 3.96547,-10.7061 -0.298967,-1.28168 -0.793094,-2.45818 -0.793094,-3.96547 0,-3.80907 6.74061,-6.13022 6.74061,-15.4646l0 -0.395855c0,-0.888598 -0.314193,-0.870604 -0.793094,-1.58619 -7.50879,0 -4.09973,-2.31977 -6.76414,-3.5447 -0.0650531,-0.0304504 -8.71712,-1.21386 -9.15726,-1.1848l-0.732193 -2.01111c-1.43947,-0.120417 -4.23537,-1.19033 -4.36271,-1.19033l-2.24087 -0.0858147 -0.931505 -1.50037 -2.77514 0c0.146716,-0.305888 0.429074,-1.05746 0.63669,-1.34535 0.332186,-0.456756 0.949498,-0.416617 0.949498,-1.03393 0,-1.33843 -1.20002,-0.867836 -1.58619,-3.56823 -0.294815,-2.06786 -0.492743,-2.72531 -2.77514,-2.77514 -0.575789,-2.15229 -3.1613,-3.17238 -5.9489,-3.17238l-3.17099 0c-0.361252,-1.35227 -8.56486,-9.51713 -9.91437,-9.51713 -1.70522,0 -2.14952,0.462292 -3.56823,0.793094 -0.27959,-0.1481 -1.94744,-1.18895 -1.98204,-1.18895 -1.04085,0 -1.02701,0.647763 -2.77652,0.793094 -0.0982717,-1.18341 -0.285126,-1.98343 -1.58619,-1.98343 -2.18966,0 -2.65195,0.79171 -4.28797,1.16127l-0.478902 -1.18341 1.41456 -0.622849 -1.80211 -1.33705c-0.734962,0.388935 -5.44508,3.17238 -5.94751,3.17238l-1.19033 0c0,2.06371 -0.344643,4.36133 -2.37928,4.36133 -0.782021,0 -0.981333,-1.58619 -2.37928,-1.58619l-1.18895 0c-1.37719,0 -0.604855,0.793094 -1.98204,0.793094l-1.19033 0c-2.24087,0 -2.50662,-1.58619 -3.38138,-3.19867l-0.979949 -5.12812c0.617312,-0.413848 1.18895,-0.525961 1.18895,-1.58619l0 -0.793094c0,-0.503816 -1.76335,-3.17238 -2.77514,-3.17238l-5.87554 -0.112113 3.49072 -10.5234 -6.73507 -0.467829c-0.251908,3.01459 -2.33638,6.34475 -5.55166,6.34475 -3.82291,0 -6.74061,-4.56341 -6.74061,-7.92956l0 -0.793094c0,-3.12532 1.39795,-4.88452 1.59588,-7.21259l-3.18207 -0.322497c-1.43255,-2.13845 -2.36267,-7.13646 -5.1558,-7.13646 -1.36612,0 -1.53498,0.293431 -2.75714,0.377862l-5.27207 -5.42571 -0.297583 0.289279c-0.633922,0.424921 -3.06165,1.98204 -3.96547,1.98204l-0.793094 0c-3.2222,0 -6.83058,-3.17238 -7.92956,-3.17238l-4.57309 0.0871988 3.97654 9.74551z" />
   <g
   id="g20275">
    <path
   id="_65215272"
   class="fil2 str2"
   d="M134.836 127.195c6.84165,-0.0996558 18.399,-2.60489 22.799,4.36963l0.805551 1.63878 0.975797 3.0395 0.9232 2.28932 2.04433 1.97097 3.50041 2.49001 3.41875 1.92114c6.83334,3.29556 15.2723,3.10317 22.2925,6.6285 2.11769,1.06161 2.87341,3.4229 2.24502,5.38141l1.06576 1.0104c4.03052,4.42776 2.94954,8.22299 0.398623,13.3442 -2.03049,4.07482 -4.10942,5.94751 -4.27413,10.7919 -0.114881,3.33432 1.98758,6.15651 0.161941,9.43132 -3.01044,5.39526 -10.6424,6.17451 -14.0542,11.3262l0.0678213 -0.152252 -12.839 19.8329 -0.633922 -0.336338c3.47826,-8.00568 5.91568,-18.7754 12.1746,-25.3292 1.86578,-1.95298 10.1995,-5.95305 9.99188,-8.36694 -0.343259,-3.96824 -1.85055,-6.71016 -1.24708,-10.9995l0.957803 -3.78554 1.52806 -3.19452 1.80903 -3.05196 -0.0899671 0.150868 0.991022 -2.22011 0.218689 -1.03393 -0.0193775 -0.106576 -0.0110729 0.0456756 -0.00692054 0.038755 -0.0802783 -0.0844306 -0.625617 -0.620081 -1.21248 -1.20141c-1.36196,-1.5848 -3.38276,-3.70941 -3.43259,-5.95997l-2.65334 -1.06438c-8.00707,-2.85265 -22.4087,-5.08106 -26.1707,-14.4238 -1.22217,-3.03258 -0.863684,-8.28804 -4.69074,-9.58495 -5.47415,-1.85747 -10.9054,-2.12599 -16.3283,-4.18554zm52.5947 30.6054l0.0318345 0.0332186 -0.0152252 -0.024914 -0.0166093 -0.00830465z" />
   </g>
   <path
   id="_67679224"
   class="fil3"
   d="M134.836 127.195c5.52675,1.97374 11.4493,0.394471 16.9761,2.36821 5.52675,1.97374 4.34195,6.31707 6.31707,10.2645 1.97374,3.15854 10.2645,8.68528 12.2383,8.68528 1.1848,0 26.8462,6.71154 18.1609,7.89634 2.76268,5.52675 8.29081,4.7378 3.55301,13.0286 -2.76406,4.34195 -4.34333,6.31569 -4.34333,12.6328 0,3.15854 2.76406,6.31707 0,9.08114 -3.55301,3.55301 -10.2645,5.92122 -12.6328,10.659 -2.76406,6.71154 -7.50187,13.8176 -11.0549,20.5291" />
   <g
   id="g20279">
    <path
   id="_67679200"
   class="fil2 str3"
   d="M136.645 192.255c1.28445,7.28456 3.03535,14.5248 3.1004,21.9201 0.0913512,10.3324 -4.66029,22.5444 -0.10796,32.2525 2.09969,4.47759 1.59172,7.31917 2.1426,12.2535 0.247755,2.23395 1.93222,4.18693 3.11978,5.97104l-0.366789 0.489974c-2.00419,-1.09345 -3.67896,-1.80211 -4.93435,-3.84782l-0.867836 -1.64986 -0.938426 -3.57515 -0.390319 -3.91564 -0.0955035 0.0207616 -0.441531 -0.740498 -0.728041 -1.08514c-5.34266,-8.00845 -4.96618,-10.9871 -4.20215,-22.734l3.19591 -24.6039 1.51421 -10.7559z" />
   </g>
   <path
   id="_67725168"
   class="fil3"
   d="M136.643 192.257c0,6.79597 0.849843,14.4432 0.424921,21.6641 -0.849843,8.92058 -2.97307,19.1159 -2.12461,28.4628 0.424921,2.97307 4.67413,8.07074 4.67413,9.77042 0,5.52259 0,8.92058 5.09767,12.7435" />
   <g
   id="g20283">
    <path
   id="_67552648"
   class="fil2 str3"
   d="M82.2299 91.4439c3.5364,1.16404 8.03752,1.30106 10.3365,4.91359 3.07549,4.83469 -4.0762,13.8494 2.36406,15.6709l0.188239 0.418001c-2.44018,3.10871 -5.34958,0.631154 -6.32122,-2.52877l-0.719736 -1.74675 -0.206232 -5.4091 0.386166 -4.02222 0.0359868 0.134259 0.0456756 0.0705895 0.0290663 -0.00968876c0.168861,-0.491359 -0.772333,-1.3758 -1.06438,-1.59311 -1.74951,-1.29829 -5.97935,-2.78621 -5.07414,-5.89769z" />
   </g>
   <path
   id="_67899296"
   class="fil3"
   d="M82.2285 91.4439c0.656067,2.18828 3.60837,2.91909 5.24854,3.64851 1.64017,0.364021 3.28172,2.18828 3.28172,3.64713 0,2.91909 -0.657452,5.83679 -0.657452,8.75587 0,0 0.985485,3.64713 0.985485,3.64713 0.656067,1.82426 2.62427,1.82426 3.9364,1.09483" />
   <g
   id="g20287">
    <path
   id="_67629040"
   class="fil2 str3"
   d="M101.429 124.52c2.45541,0.112113 4.94265,0.362636 6.59113,2.78483 0.930121,1.3675 1.11974,5.17795 2.51631,5.71775 3.68727,1.42286 10.1815,1.28168 10.5829,7.08248 0.282358,4.03883 -2.92462,7.16691 -5.16965,9.70399l-0.376478 -0.211769c0.519041,-2.42081 4.01391,-9.18356 0.0470597,-9.76073 -2.91632,-0.423537 -6.57036,-0.418001 -8.59808,-3.40768 -1.58065,-2.33361 -0.581326,-5.49214 -1.92253,-7.69564 -0.964724,-1.58757 -2.49555,-2.82773 -3.67066,-4.21323z" />
   </g>
   <path
   id="_65375008"
   class="fil3"
   d="M101.429 124.52c1.86993,0.700359 4.98556,2.44849 5.60841,4.5468 0.311424,1.05054 0.934273,4.89698 1.55712,5.59734 0.624233,0.698975 3.42705,2.09831 4.36271,2.09831 1.55712,0 5.2956,0.698975 5.91983,2.44849 1.55712,2.79867 -1.86993,7.69564 -3.11563,10.4929" />
   <path
   id="_34376888"
   class="fil1 str1"
   d="M97.5451 153.822l-36.8394 21.4205 19.1311 2.21596c-39.6962,75.4754 37.4166,81.7067 53.5387,87.6722 -8.11503,-2.25333 -69.9598,-39.3461 -35.1522,-84.4099l20.2218 2.76406 -20.9 -29.6628z" />
   <g
   id="g20292">
    <path
   id="_66035096"
   class="fil2 str3"
   d="M114.781 182.974l-8.07627 0.588246 -7.87281 -1.0367 -2.22565 4.87621 -3.02012 8.18147 -2.27686 9.20847c-3.11148,19.0675 6.72954,36.3425 21.9824,46.9074l-0.145331 0.485822c-5.99042,-2.23534 -9.91991,-3.91564 -14.5041,-8.74341 -10.0805,-10.6133 -15.7276,-25.1991 -12.7283,-39.7391 1.60695,-7.78146 5.5392,-18.1374 10.7268,-24.3755 0.429074,-0.514888 1.22355,-0.408312 1.77166,-0.280974l16.3685 3.9281z" />
   </g>
   <path
   id="_67551712"
   class="fil3"
   d="M114.783 182.974c-1.32321,0.337722 -14.1442,-1.15019 -17.0204,-2.30177 -3.24158,5.69284 -10.6216,20.8502 -9.98773,33.1328 0.793094,15.3359 13.1255,34.4864 25.4455,38.1377" />
   <path
   id="_68172392"
   class="fil1 str1"
   d="M200.444 157.128l39.6852 -13.2611 -17.9547 -5.93921c53.1954,-64.6697 -24.7063,-88.9151 -39.0208,-97.8606 7.11432,-3.24158 66.8082,50.167 21.9935,91.0633l-18.8945 -6.68386 14.1913 32.6816z" />
   <g
   id="g20297">
    <path
   id="_67361768"
   class="fil2 str3"
   d="M191.677 126.308l6.97037 1.05607 6.50946 2.59659 2.75161 -4.30043 4.00699 -7.35792 3.55577 -8.50812c6.00288,-17.9422 0.676829,-36.7495 -10.4306,-50.113l0.207616 -0.445683c4.70043,3.38553 7.74547,5.81602 10.7933,11.441 6.70047,12.367 8.93442,27.7099 3.82429,41.2658 -2.735,7.25411 -7.90049,16.5456 -13.4092,21.5741 -0.453988,0.415233 -1.11144,0.152252 -1.55435,-0.0830465l-13.2252 -7.12539z" />
   </g>
   <path
   id="_67360576"
   class="fil3"
   d="M191.677 126.308c1.1848,-0.0622849 11.8203,3.97239 14.0639,5.67346 3.75647,-4.89144 12.6992,-18.1637 14.3214,-30.2525 2.02633,-15.0951 -5.0866,-36.2318 -14.9179,-42.2707" />
   <g
   id="g20301">
    <path
   id="_67898856"
   class="fil2 str3"
   d="M200.769 158.781c9.36073,-7.42851 19.736,-12.9719 31.1494,-16.1761 -3.7274,-1.45608 -7.38007,-3.22359 -11.1227,-4.58694l0.160557 -0.653299c5.67485,0.739114 18.1969,0.525961 22.9707,4.09835 0.895518,0.669909 0.638074,2.5523 -0.322497,3.1267 -4.97172,2.97445 -11.0756,3.38691 -16.583,5.1821l-20.482 7.54616c-1.86439,0.759876 -3.78138,1.14327 -5.77035,1.463z" />
   </g>
   <path
   id="_67777080"
   class="fil3"
   d="M200.769 158.779c2.99521,-0.532882 7.21536,-4.32534 10.3407,-5.35927 7.75101,-2.56337 21.6904,-10.2604 30.8629,-10.5787l-21.0966 -5.15027" />
   <g
   id="g20305">
    <path
   id="_67468136"
   class="fil2"
   d="M204.103 49.2784c-17.1048,-6.45825 -31.7016,-12.7905 -50.3954,-12.9774 -66.6947,-0.668524 -121.756,65.9874 -117.256,130.563 2.61043,37.4651 24.68,67.2967 57.6633,84.7448 33.3778,17.6557 71.2456,21.0274 106.114,6.09285 11.7165,-5.01878 19.3111,-11.7137 28.3991,-20.1762l0.541186 0.362636c-5.0257,5.62086 -9.68599,11.6404 -15.9242,15.8743 -62.7389,42.5669 -164.799,6.29077 -182.043,-68.7418 -13.0867,-56.9353 21.5879,-118.438 73.82,-142.285 20.3838,-9.30536 43.7157,-12.9262 65.7604,-7.90741 11.866,2.7004 22.4156,9.05069 33.321,14.4501z" />
   </g>
   <path
   id="_4587152"
   class="fil3"
   d="M204.103 49.2784c-88.7795,-52.448 -189.89,44.2679 -169.11,134.872 9.58218,41.7918 44.4133,70.2601 89.2307,82.1413 43.0195,11.4051 90.4335,-7.35792 104.675,-28.5846" />
   <g
   id="g20309">
    <path
   id="_67770824"
   class="fil2 str3"
   d="M95.6405 154.242c-7.97247,8.89982 -17.2626,16.1166 -27.9728,21.2032 3.9198,0.802783 7.82021,1.92945 11.7372,2.64226l-0.0456756 0.669909c-5.71775,0.229762 -18.0266,2.55368 -23.3333,-0.160557 -0.997942,-0.509352 -1.06161,-2.40835 -0.210385,-3.13639 4.3987,-3.77031 10.3448,-5.2084 15.4702,-7.9088l18.9152 -10.8943c1.70799,-1.063 3.53501,-1.76474 5.43955,-2.41527z" />
   </g>
   <path
   id="_67700432"
   class="fil3"
   d="M95.6405 154.242c-2.86234,1.03255 -6.38212,5.48245 -9.28737,7.0285 -7.20705,3.83536 -19.6474,13.7746 -28.6344,15.6363l21.6641 1.5156" />
  </g>
 </g>
</svg>