<?xml version="1.0" encoding="UTF-8" standalone="no"?>
<!-- Created with Inkscape (http://www.inkscape.org/) -->

<svg
   xmlns:dc="http://purl.org/dc/elements/1.1/"
   xmlns:cc="http://creativecommons.org/ns#"
   xmlns:rdf="http://www.w3.org/1999/02/22-rdf-syntax-ns#"
   xmlns:svg="http://www.w3.org/2000/svg"
   xmlns="http://www.w3.org/2000/svg"
   xmlns:sodipodi="http://sodipodi.sourceforge.net/DTD/sodipodi-0.dtd"
   xmlns:inkscape="http://www.inkscape.org/namespaces/inkscape"
   width="256"
   height="256"
   id="svg4374"
   version="1.1"
   inkscape:version="0.92.1 r15371"
   sodipodi:docname="gtk-bold.svg">
  <defs
     id="defs4376" />
  <sodipodi:namedview
     id="base"
     pagecolor="#ffffff"
     bordercolor="#666666"
     borderopacity="1.0"
     inkscape:pageopacity="0.0"
     inkscape:pageshadow="2"
     inkscape:zoom="1.7124294"
     inkscape:cx="26.507749"
     inkscape:cy="75.2128"
     inkscape:document-units="px"
     inkscape:current-layer="layer1"
     showgrid="false"
     inkscape:window-width="1918"
     inkscape:window-height="1023"
     inkscape:window-x="0"
     inkscape:window-y="26"
     inkscape:window-maximized="1" />
  <metadata
     id="metadata4379">
    <rdf:RDF>
      <cc:Work
         rdf:about="">
        <dc:format>image/svg+xml</dc:format>
        <dc:type
           rdf:resource="http://purl.org/dc/dcmitype/StillImage" />
        <dc:title />
      </cc:Work>
    </rdf:RDF>
  </metadata>
  <g
     inkscape:label="Capa 1"
     inkscape:groupmode="layer"
     id="layer1"
     transform="translate(0,-796.36218)">
    <g
       id="g5913"
       transform="matrix(20.56274,0,0,20.56274,-38.359408,759.67923)"
       style="fill:#9283be;fill-opacity:1">
      <g
         style="display:inline;fill:#9283be;fill-opacity:1"
         id="layer9"
         transform="translate(-160.0002,-706)"
         inkscape:label="status" />
      <g
         id="layer10"
         transform="translate(-160.0002,-706)"
         inkscape:label="devices"
         style="fill:#9283be;fill-opacity:1" />
      <g
         id="layer11"
         transform="translate(-160.0002,-706)"
         inkscape:label="apps"
         style="fill:#9283be;fill-opacity:1" />
      <g
         id="layer12"
         transform="translate(-160.0002,-706)"
         inkscape:label="actions"
         style="fill:#9283be;fill-opacity:1">
        <path
           style="font-size:medium;font-style:normal;font-variant:normal;font-weight:normal;font-stretch:normal;text-indent:0;text-align:start;text-decoration:none;line-height:normal;letter-spacing:normal;word-spacing:normal;text-transform:none;direction:ltr;block-progression:tb;writing-mode:lr-tb;text-anchor:start;baseline-shift:baseline;color:#000000;fill:#9283be;fill-opacity:1;stroke:none;stroke-width:2;marker:none;visibility:visible;display:inline;overflow:visible;enable-background:accumulate;font-family:Sans;-inkscape-font-specification:Sans"
           id="path11643-3-1"
           d="m 165,709 0,2 6,0 c 0.42816,0 1,0.61414 1,1 l 0,1 -5,0 c -0.91927,0 -1.7356,0.38396 -2.25,0.96875 -0.5144,0.58479 -0.75639,1.31063 -0.75,2.03125 0.006,0.72062 0.26893,1.45271 0.78125,2.03125 C 165.29357,718.60979 166.09172,719 167,719 l 6,0 1,0 0,-1 0,-6 c 0,-1.63434 -1.3198,-3 -3,-3 l -6,0 z m 2,6 5,0 0,2 -5,0 c -0.39787,0 -0.56691,-0.10979 -0.71875,-0.28125 C 166.12941,716.54729 166.00248,716.27938 166,716 c -0.002,-0.27938 0.10467,-0.55354 0.25,-0.71875 C 166.39533,715.11604 166.57764,715 167,715 z"
           inkscape:connector-curvature="0" />
        <path
           style="font-size:medium;font-style:normal;font-variant:normal;font-weight:normal;font-stretch:normal;text-indent:0;text-align:start;text-decoration:none;line-height:normal;letter-spacing:normal;word-spacing:normal;text-transform:none;direction:ltr;block-progression:tb;writing-mode:lr-tb;text-anchor:start;baseline-shift:baseline;color:#000000;fill:#9283be;fill-opacity:1;stroke:none;stroke-width:2;marker:none;visibility:visible;display:inline;overflow:visible;enable-background:accumulate;font-family:Sans;-inkscape-font-specification:Sans"
           id="path11643-3-1-2"
           d="m 164,709 0,2 5,0 c 0.42816,0 1,0.61414 1,1 l 0,1 -5,0 c -0.91927,0 -1.7356,0.38396 -2.25,0.96875 -0.5144,0.58479 -0.75639,1.31063 -0.75,2.03125 0.006,0.72062 0.26893,1.45271 0.78125,2.03125 C 163.29357,718.60979 164.09172,719 165,719 l 6,0 1,0 0,-1 0,-6 c 0,-1.63434 -1.3198,-3 -3,-3 l -5,0 z m 1,6 5,0 0,2 -5,0 c -0.39787,0 -0.56691,-0.10979 -0.71875,-0.28125 C 164.12941,716.54729 164.00248,716.27938 164,716 c -0.002,-0.27938 0.10467,-0.55354 0.25,-0.71875 C 164.39533,715.11604 164.57764,715 165,715 z"
           inkscape:connector-curvature="0" />
      </g>
      <g
         id="layer13"
         transform="translate(-160.0002,-706)"
         inkscape:label="places"
         style="fill:#9283be;fill-opacity:1" />
      <g
         id="layer14"
         transform="translate(-160.0002,-706)"
         inkscape:label="mimetypes"
         style="fill:#9283be;fill-opacity:1" />
      <g
         style="display:inline;fill:#9283be;fill-opacity:1"
         id="layer15"
         transform="translate(-160.0002,-706)"
         inkscape:label="emblems" />
      <g
         style="display:inline;fill:#9283be;fill-opacity:1"
         id="g4953"
         transform="translate(-160.0002,-706)"
         inkscape:label="categories" />
    </g>
  </g>
</svg>
