<?xml version="1.0" encoding="UTF-8" standalone="no"?>
<!-- Created with Inkscape (http://www.inkscape.org/) -->

<svg
   xmlns:dc="http://purl.org/dc/elements/1.1/"
   xmlns:cc="http://creativecommons.org/ns#"
   xmlns:rdf="http://www.w3.org/1999/02/22-rdf-syntax-ns#"
   xmlns:svg="http://www.w3.org/2000/svg"
   xmlns="http://www.w3.org/2000/svg"
   xmlns:sodipodi="http://sodipodi.sourceforge.net/DTD/sodipodi-0.dtd"
   xmlns:inkscape="http://www.inkscape.org/namespaces/inkscape"
   width="256"
   height="256"
   id="svg4374"
   version="1.1"
   inkscape:version="0.92.1 r15371"
   sodipodi:docname="gtk-orientation-landscape.svg">
  <defs
     id="defs4376" />
  <sodipodi:namedview
     id="base"
     pagecolor="#ffffff"
     bordercolor="#666666"
     borderopacity="1.0"
     inkscape:pageopacity="0.0"
     inkscape:pageshadow="2"
     inkscape:zoom="1.7124294"
     inkscape:cx="-53.495548"
     inkscape:cy="39.56933"
     inkscape:document-units="px"
     inkscape:current-layer="layer1"
     showgrid="false"
     inkscape:window-width="1918"
     inkscape:window-height="1023"
     inkscape:window-x="0"
     inkscape:window-y="26"
     inkscape:window-maximized="1"
     showguides="true"
     inkscape:guide-bbox="true" />
  <metadata
     id="metadata4379">
    <rdf:RDF>
      <cc:Work
         rdf:about="">
        <dc:format>image/svg+xml</dc:format>
        <dc:type
           rdf:resource="http://purl.org/dc/dcmitype/StillImage" />
        <dc:title />
      </cc:Work>
    </rdf:RDF>
  </metadata>
  <g
     inkscape:label="Capa 1"
     inkscape:groupmode="layer"
     id="layer1"
     transform="translate(0,-796.36218)">
    <g
       id="g6121"
       transform="matrix(0,16.426419,-16.426419,0,267.62451,793.13536)"
       style="fill:#9283be;fill-opacity:1">
      <g
         inkscape:label="status"
         transform="translate(-241.0002,-647)"
         style="fill:#9283be;fill-opacity:1;display:inline"
         id="layer9-9" />
      <g
         inkscape:label="devices"
         transform="translate(-241.0002,-647)"
         id="layer10-8"
         style="fill:#9283be;fill-opacity:1" />
      <g
         inkscape:label="apps"
         transform="translate(-241.0002,-647)"
         id="layer11-5"
         style="fill:#9283be;fill-opacity:1" />
      <g
         inkscape:label="places"
         transform="translate(-241.0002,-647)"
         id="layer13-6"
         style="fill:#9283be;fill-opacity:1" />
      <g
         inkscape:label="mimetypes"
         transform="translate(-241.0002,-647)"
         id="layer14-6"
         style="fill:#9283be;fill-opacity:1" />
      <g
         inkscape:label="emblems"
         transform="translate(-241.0002,-647)"
         style="fill:#9283be;fill-opacity:1;display:inline"
         id="layer15-0" />
      <g
         inkscape:label="emotes"
         transform="translate(-241.0002,-647)"
         style="fill:#9283be;fill-opacity:1;display:inline"
         id="g71291" />
      <g
         inkscape:label="categories"
         transform="translate(-241.0002,-647)"
         style="fill:#9283be;fill-opacity:1;display:inline"
         id="g4953" />
      <g
         inkscape:label="actions"
         transform="translate(-241.0002,-647)"
         style="fill:#9283be;fill-opacity:1;display:inline"
         id="layer12-7">
        <path
           style="color:#bebebe;fill:#9283be;fill-opacity:1;fill-rule:nonzero;stroke:none;stroke-width:1;marker:none;visibility:visible;display:inline;overflow:visible;enable-background:accumulate"
           id="path4387-5"
           d="m 243.93296,648.00074 c -0.50766,0.0395 -0.94152,0.51729 -0.93263,1.02692 l 0,12.94533 c -0.008,0.5398 0.48663,1.03477 1.02589,1.02691 l 9.948,0 c 0.53926,0.008 1.03373,-0.48711 1.02589,-1.02691 l 0,-9.95795 c -0.004,-0.26704 -0.1184,-0.53079 -0.31088,-0.71573 l -2.9844,-2.98738 c -0.18475,-0.19267 -0.44824,-0.30734 -0.71501,-0.31119 l -6.9636,0 c -0.0311,-9.9e-4 -0.0622,-9.9e-4 -0.0933,0 z m 1.08806,1.89744 5.80553,0 -0.0194,2.19159 2.17223,0 0,8.80987 -7.9584,0 z"
           inkscape:connector-curvature="0"
           sodipodi:nodetypes="cccccccccccccccccccc" />
      </g>
    </g>
    <g
       transform="translate(-372.61864,663.64464)"
       id="layer9"
       style="display:inline" />
    <g
       transform="translate(-372.61864,663.64464)"
       id="layer10" />
    <path
       style="fill:#f79420;fill-opacity:1;stroke:none"
       d="m 122.63214,867.75942 c -10.48362,0 -18.97125,8.48764 -18.97125,18.97127 0,10.48356 8.48763,18.98963 18.97125,18.98963 10.48364,0 18.98963,-8.50607 18.98963,-18.98963 0,-10.48363 -8.50599,-18.97127 -18.98963,-18.97127 z m -11.12932,38.29146 c -11.2422,-4e-4 -22.475632,0.0598 -33.718515,0.22039 -4.351009,0 -4.260728,4.15053 -4.260728,4.15053 l 0,2.03854 c 0,0 0.893695,2.01894 3.06699,2.75479 l 27.033583,5.17898 0,19.74261 -12.965832,37.28136 c -0.447182,1.89987 1.505948,1.9651 1.505948,1.9651 l 5.32591,0.0734 c 0,0 2.645874,-0.0405 3.324104,-2.0753 l 20.27519,-33.53485 c 1.96688,-4.11911 2.10905,-4.71314 4.18726,0 l 19.35694,33.57158 c 0,0 0.90195,2.00184 3.26901,2.00184 l 4.92188,-0.0552 c 0,0 2.74823,-0.58927 1.46921,-2.69966 l -12.65363,-36.52841 0,-19.74261 27.89675,-5.39937 c 0,0 2.20383,-0.58836 2.20383,-2.69968 l 0,-1.94671 c 0,-4.03976 -4.02198,-3.96689 -4.02198,-3.96689 -18.73773,-0.15599 -37.4789,-0.32991 -56.21592,-0.33057 z"
       id="rect2992"
       inkscape:connector-curvature="0" />
    <g
       transform="translate(-372.61864,663.64464)"
       id="layer12" />
    <g
       transform="translate(-372.61864,663.64464)"
       id="layer13" />
    <g
       transform="translate(-372.61864,663.64464)"
       id="layer14" />
    <g
       transform="translate(-372.61864,663.64464)"
       id="layer15" />
  </g>
</svg>
