<?xml version="1.0" encoding="UTF-8" standalone="no"?>
<!-- Generator: Adobe Illustrator 9.0, SVG Export Plug-In  -->

<svg
   xmlns:dc="http://purl.org/dc/elements/1.1/"
   xmlns:cc="http://creativecommons.org/ns#"
   xmlns:rdf="http://www.w3.org/1999/02/22-rdf-syntax-ns#"
   xmlns:svg="http://www.w3.org/2000/svg"
   xmlns="http://www.w3.org/2000/svg"
   xmlns:sodipodi="http://sodipodi.sourceforge.net/DTD/sodipodi-0.dtd"
   xmlns:inkscape="http://www.inkscape.org/namespaces/inkscape"
   width="48"
   height="48"
   viewBox="0 0 48 48"
   xml:space="preserve"
   id="svg2"
   sodipodi:version="0.32"
   inkscape:version="0.92.1 r15371"
   sodipodi:docname="help.svg"
   inkscape:output_extension="org.inkscape.output.svg.inkscape"
   version="1.0"><metadata
     id="metadata35"><rdf:RDF><cc:Work
         rdf:about=""><dc:format>image/svg+xml</dc:format><dc:type
           rdf:resource="http://purl.org/dc/dcmitype/StillImage" /></cc:Work></rdf:RDF></metadata><defs
     id="defs33"><inkscape:path-effect
       effect="skeletal"
       id="path-effect3052"
       is_visible="true"
       pattern="M 0,5 C 0,2.24 2.24,0 5,0 7.76,0 10,2.24 10,5 10,7.76 7.76,10 5,10 2.24,10 0,7.76 0,5 z"
       copytype="single_stretched"
       prop_scale="1"
       scale_y_rel="false"
       spacing="0"
       normal_offset="0"
       tang_offset="0"
       prop_units="false"
       vertical_pattern="false"
       fuse_tolerance="0" /></defs><sodipodi:namedview
     inkscape:window-height="1023"
     inkscape:window-width="1918"
     inkscape:pageshadow="2"
     inkscape:pageopacity="0"
     guidetolerance="10.0"
     gridtolerance="10.0"
     objecttolerance="10.0"
     borderopacity="1.0"
     bordercolor="#666666"
     pagecolor="#ffffff"
     id="base"
     showgrid="true"
     inkscape:object-paths="true"
     inkscape:object-nodes="true"
     inkscape:zoom="1.6672794"
     inkscape:cx="-6.350232"
     inkscape:cy="39.778913"
     inkscape:window-x="0"
     inkscape:window-y="26"
     inkscape:current-layer="svg2"
     inkscape:window-maximized="1"
     inkscape:snap-global="false"><inkscape:grid
       type="xygrid"
       id="grid2394"
       visible="true"
       enabled="true"
       empspacing="5"
       snapvisiblegridlinesonly="true" /></sodipodi:namedview><g
     id="crop_x0020_marks"
     style="fill-rule:nonzero;stroke:#000000;stroke-miterlimit:4"><path
       style="fill:none;stroke:none"
       d="M 48,48 L 0,48 L 0,0 L 48,0 L 48,48 z"
       id="path30" /></g><g
     id="g3056"
     transform="matrix(1.0258711,0,0,1.0258711,-48.287646,-3.9900332)"><g
       style="fill:#808080;fill-rule:evenodd"
       transform="matrix(7.5916723,0,0,7.5916723,7.7486737,-1.4506702)"
       id="g2994"><path
         id="_121731384"
         class="fil0"
         d="M 0.67062907,3.1466295 0.96315753,3.436604 C 1.4643536,2.1285285 2.9137173,3.0231678 2.3709066,3.891 L 2.767349,4.0396257 C 3.5316128,2.8534265 1.7399119,1.2088624 0.67062907,3.1466295 z"
         inkscape:connector-curvature="0"
         style="fill:#808080;fill-opacity:1"
         sodipodi:nodetypes="ccccc" /><path
         id="_121328256"
         class="fil0"
         d="M 0.1777958,2.5586559 C -0.01275712,2.3374532 0.11748395,2.4022267 0.31580842,2.5444209 0.51413288,2.686615 0.81410198,2.8425452 1.1021572,3.1460838 L 0.96046525,3.4267024 C 0.50016423,3.0157207 0.36834871,2.7798588 0.1777958,2.5586559 z"
         inkscape:connector-curvature="0"
         style="fill:#808080;fill-opacity:1"
         sodipodi:nodetypes="zsccz" /><path
         sodipodi:type="arc"
         style="fill:#808080;fill-opacity:1;stroke:none"
         id="path3582"
         sodipodi:cx="11.182829"
         sodipodi:cy="12.753372"
         sodipodi:rx="2.6694496"
         sodipodi:ry="2.6694496"
         d="m 13.844562,12.550547 a 2.6694496,2.6694496 0 0 1 -2.444373,2.863411 2.6694496,2.6694496 0 0 1 -2.8767188,-2.428698 2.6694496,2.6694496 0 0 1 2.4129488,-2.88994 2.6694496,2.6694496 0 0 1 2.903077,2.397129"
         transform="matrix(0.13834256,0,0,0.13834256,0.19919495,1.7915877)"
         sodipodi:start="6.2071318"
         sodipodi:end="12.46847"
         sodipodi:open="true" /><path
         id="_121328256-7"
         class="fil0"
         d="M 0.4247675,1.3417552 C 0.30865975,1.051719 0.40976238,1.1514637 0.55275704,1.3529974 0.69575091,1.5545312 1.0526419,2.1606454 1.2359221,2.5639276 L 0.96710859,2.750389 C 0.74796061,2.1419236 0.54087506,1.6317917 0.4247675,1.3417552 z"
         inkscape:connector-curvature="0"
         style="fill:#808080;fill-opacity:1;fill-rule:evenodd"
         sodipodi:nodetypes="zsccz" /><path
         id="_121328256-7-9"
         class="fil0"
         d="M 1.44312,0.58246558 C 1.43361,0.2701971 1.521214,0.39282353 1.5594765,0.63695278 1.6013875,0.90435635 1.7053444,1.7413136 1.7506921,2.2817189 l -0.3164814,0.082874 c 0.003,-0.6467199 0.018418,-1.46985881 0.00891,-1.78212772 z"
         inkscape:connector-curvature="0"
         style="fill:#808080;fill-opacity:1;fill-rule:evenodd"
         sodipodi:nodetypes="zsccz" /><path
         id="_121328256-7-4"
         class="fil0"
         d="M 2.4423509,0.52194906 C 2.5291241,0.19808085 2.5810366,0.32015476 2.5788735,0.5833539 2.5767086,0.84655178 2.4931372,1.8976838 2.1801821,2.4013588 L 1.8869765,2.2775017 c 0.307833,-0.6143974 0.4686,-1.43168421 0.5553744,-1.75555264 z"
         inkscape:connector-curvature="0"
         style="fill:#808080;fill-opacity:1;fill-rule:evenodd"
         sodipodi:nodetypes="zsccz" /><path
         id="_121328256-7-4-9"
         class="fil0"
         d="M 3.6839051,1.1452392 C 3.9311577,0.7718015 3.8949861,1.029192 3.7754429,1.2636867 3.5368401,1.7317274 2.9264141,2.4275569 2.4666837,2.7714357 L 2.2400615,2.4692892 C 2.8122122,2.0577751 3.4366526,1.5186768 3.6839051,1.1452392 z"
         inkscape:connector-curvature="0"
         style="fill:#808080;fill-opacity:1;fill-rule:evenodd"
         sodipodi:nodetypes="zsccz" /><path
         id="_121328256-7-4-9-1"
         class="fil0"
         d="m 4.2265513,3.0597007 c 0.4091243,-0.09358 0.2522344,0.074602 0.024419,0.1707759 C 4.0062521,3.3337885 3.127026,3.6011424 2.5719027,3.6165508 l 0.00603,-0.3830989 c 0.653125,-5.32e-4 1.239497,-0.080171 1.6486213,-0.1737512 z"
         inkscape:connector-curvature="0"
         style="fill:#808080;fill-opacity:1;fill-rule:evenodd"
         sodipodi:nodetypes="zsccz" /><path
         id="_121328256-9"
         class="fil0"
         d="M 3.9700033,4.2976494 C 4.2626923,4.4304234 4.1316091,4.4287597 3.9491295,4.4043056 3.7042093,4.3714838 3.1539385,4.1823832 2.7531868,4.0349335 L 2.8590012,3.7253663 c 0.5571017,0.2920484 0.8183128,0.4395089 1.1110017,0.572283 z"
         inkscape:connector-curvature="0"
         style="fill:#808080;fill-opacity:1;fill-rule:evenodd"
         sodipodi:nodetypes="zsccz" /><path
         id="_121328256-7-4-9-1-7"
         class="fil0"
         d="M 4.1962848,2.076334 C 4.5907234,1.8600715 4.4775437,2.0697011 4.2705883,2.2323244 4.0482794,2.4070154 3.2196806,2.935215 2.6523716,3.1218067 L 2.5483179,2.7530525 C 3.2208399,2.5503733 3.801846,2.2925963 4.1962848,2.076334 z"
         inkscape:connector-curvature="0"
         style="fill:#808080;fill-opacity:1;fill-rule:evenodd"
         sodipodi:nodetypes="zsccz"
         inkscape:transform-center-y="0.95298244"
         inkscape:transform-center-x="-0.069049672" /></g><path
       sodipodi:nodetypes="csccccscc"
       inkscape:connector-curvature="0"
       id="path3050"
       d="m 24.867273,29.236754 c 0,0 -0.136225,0.38538 -1.922283,1.066679 -1.824214,0.695853 -5.133534,0.124386 -5.133534,0.124386 0,0 0.143696,5.265144 0.454839,7.865006 1.5347,-0.03569 3.990595,-0.08391 3.990595,-0.08391 l 0.123625,-4.502661 c 0,0 1.63094,0.203992 3.425256,-0.929444 1.497279,-0.945804 1.614118,-0.778638 2.381132,-2.491791 -1.937167,-0.810084 -3.31963,-1.048272 -3.31963,-1.048266 z"
       style="fill:#808080;fill-opacity:1;fill-rule:evenodd;stroke:none" /><path
       transform="matrix(1.175414,0,0,1.175414,-74.363933,-13.643822)"
       sodipodi:open="true"
       sodipodi:end="12.46847"
       sodipodi:start="6.2071318"
       d="m 82.699767,47.12317 a 2.061202,1.9323769 0 0 1 -1.88741,2.072783 2.061202,1.9323769 0 0 1 -2.221244,-1.7581 2.061202,1.9323769 0 0 1 1.863147,-2.091987 2.061202,1.9323769 0 0 1 2.241596,1.735248"
       sodipodi:ry="1.9323769"
       sodipodi:rx="2.061202"
       sodipodi:cy="47.269993"
       sodipodi:cx="80.644524"
       id="path3054"
       style="fill:#808080;fill-opacity:1;stroke:none"
       sodipodi:type="arc" /></g><path
     style="fill:#9283be;fill-opacity:1;stroke:none"
     d="m 1.1948419,38.040208 3.704254,-3.515472 c 0,0 -0.1028679,-1.649927 -0.2937499,-5.419686 C 4.4144722,25.335291 4.7514612,21.222421 6.5964458,17.905808 7.806546,15.911175 6.7898859,10.769998 6.9183023,8.930899 7.0267441,7.3778129 10.696446,8.0465723 11.266332,9.9507858 c 0.569884,1.9042152 0.170642,6.3401662 3.035868,8.0219342 1.273855,0.747699 3.989197,2.197172 4.27414,4.101385 0.284941,1.904214 0.712356,6.884466 0.142466,7.909812 -3.3228,5.650433 -11.4320937,4.200124 -5.128967,12.743587 -0.997299,0 -3.9891949,3.66195 -3.9891949,3.66195 z"
     id="path2999"
     inkscape:connector-curvature="0"
     sodipodi:nodetypes="cczcsssscccc" /><path
     style="fill:#9283be;fill-opacity:1;stroke:none"
     d="m 15.021168,17.15943 c 0,0 18.289458,-14.2455429 20.255622,-15.2309266 1.966163,-0.9853836 3.840115,2.3391922 2.397312,3.6591628 -1.442803,1.3199706 -11.581901,8.9514048 -11.581901,8.9514048 l 1.822619,1.997826 c 0,0 10.35365,-8.1405584 12.69365,-9.7449132 2.339999,-1.6043548 4.961212,1.317837 2.735847,3.1410217 C 41.118952,11.75619 30.418191,19.864067 30.418191,19.864067 l 1.593113,1.956002 c 0,0 9.612222,-7.29535 11.813508,-8.834631 2.201286,-1.539282 5.11374,1.373929 2.421869,3.402117 -2.69187,2.028187 -12.64439,9.022362 -12.64439,9.022362 l 1.085471,2.085517 c 3.590907,-2.245713 7.317708,-4.417556 8.719064,-5.198772 1.401355,-0.781216 3.701771,2.041455 0.930595,3.74004 -2.771175,1.698584 -18.061022,12.94795 -18.061022,12.94795 0,0 -1.709655,-6.445032 -3.276839,-8.349247 -1.567185,-1.904214 -1.282242,-4.687296 -2.422012,-8.349246 -1.139769,-3.66195 -5.55638,-5.126729 -5.55638,-5.126729 z"
     id="path3001"
     inkscape:connector-curvature="0"
     sodipodi:nodetypes="czzcczzcczzcczzcssc" /><path
     style="fill:#9283be;fill-opacity:1;stroke:none"
     d="m 12.371802,36.378781 c 0,0 0.40297,4.350175 1.914108,4.764477 1.511136,0.414303 3.223756,2.382239 6.548256,0.517879 3.324499,-1.864362 3.928954,-2.278664 3.928954,-2.278664 0,0 -1.108166,-5.800233 -2.619302,-7.561018 C 20.63268,30.060669 19.726,28.196309 19.726,28.196309 c 0,0 -0.201486,3.210843 -1.309652,4.557327 -1.108166,1.346481 -6.044546,3.625145 -6.044546,3.625145 z"
     id="path3003"
     inkscape:connector-curvature="0" /></svg>