<?xml version="1.0" encoding="UTF-8" standalone="no"?>
<!-- Created with Inkscape (http://www.inkscape.org/) -->

<svg
   xmlns:dc="http://purl.org/dc/elements/1.1/"
   xmlns:cc="http://creativecommons.org/ns#"
   xmlns:rdf="http://www.w3.org/1999/02/22-rdf-syntax-ns#"
   xmlns:svg="http://www.w3.org/2000/svg"
   xmlns="http://www.w3.org/2000/svg"
   xmlns:sodipodi="http://sodipodi.sourceforge.net/DTD/sodipodi-0.dtd"
   xmlns:inkscape="http://www.inkscape.org/namespaces/inkscape"
   width="256"
   height="256"
   id="svg4374"
   version="1.1"
   inkscape:version="0.92.1 r15371"
   sodipodi:docname="object-ungroup.svg">
  <defs
     id="defs4376" />
  <sodipodi:namedview
     id="base"
     pagecolor="#ffffff"
     bordercolor="#666666"
     borderopacity="1.0"
     inkscape:pageopacity="0.0"
     inkscape:pageshadow="2"
     inkscape:zoom="1.7124294"
     inkscape:cx="-98.71163"
     inkscape:cy="112.09733"
     inkscape:document-units="px"
     inkscape:current-layer="layer1"
     showgrid="false"
     inkscape:window-width="1918"
     inkscape:window-height="1023"
     inkscape:window-x="0"
     inkscape:window-y="26"
     inkscape:window-maximized="1" />
  <metadata
     id="metadata4379">
    <rdf:RDF>
      <cc:Work
         rdf:about="">
        <dc:format>image/svg+xml</dc:format>
        <dc:type
           rdf:resource="http://purl.org/dc/dcmitype/StillImage" />
        <dc:title />
      </cc:Work>
    </rdf:RDF>
  </metadata>
  <g
     inkscape:label="Capa 1"
     inkscape:groupmode="layer"
     id="layer1"
     transform="translate(0,-796.36218)">
    <path
       style="fill:#9283be;fill-opacity:1;stroke:none"
       d="m 169.17412,895.95227 c -4.40539,28.66048 -6.75491,39.25705 -22.23645,55.85045 -15.48153,16.59338 -31.09278,17.34303 -47.876442,21.23159 l 0,22.04196 0,33.03053 c 44.302672,0.01 88.629952,0.048 132.932482,-0.065 l -0.35656,-132.08973 -33.12777,0 -29.33526,0 z m -15.91559,61.13403 20.1295,0 0,20.1295 -20.1295,0 0,-20.1295 z"
       id="path41071"
       inkscape:connector-curvature="0" />
    <path
       sodipodi:type="arc"
       style="fill:#9283be;fill-opacity:1;stroke:none"
       id="path2993"
       sodipodi:cx="99.51519"
       sodipodi:cy="102.39149"
       sodipodi:rx="70.610359"
       sodipodi:ry="70.610359"
       d="M 169.92144,97.026497 A 70.610359,70.610359 0 0 1 105.26464,172.76738 70.610359,70.610359 0 0 1 29.171747,108.52523 70.610359,70.610359 0 0 1 92.997342,32.082594 70.610359,70.610359 0 0 1 169.78744,95.489727"
       sodipodi:start="6.2071318"
       sodipodi:end="12.46847"
       sodipodi:open="true"
       transform="matrix(0.9200732,0,0,0.9200732,4.3896139,806.43119)" />
    <rect
       style="fill:#f79420;fill-opacity:1;stroke:none"
       id="rect2995"
       width="20.130821"
       height="20.130821"
       x="20.704996"
       y="822.82306" />
    <rect
       style="fill:#f79420;fill-opacity:1;stroke:none"
       id="rect2995-8"
       width="20.130821"
       height="20.130821"
       x="21.775784"
       y="959.66986" />
    <rect
       style="fill:#f79420;fill-opacity:1;stroke:none"
       id="rect2995-4"
       width="20.130821"
       height="20.130821"
       x="152.84029"
       y="819.18243" />
  </g>
</svg>
