<?xml version="1.0" encoding="UTF-8" standalone="no"?>
<!-- Created with Inkscape (http://www.inkscape.org/) -->

<svg
   xmlns:dc="http://purl.org/dc/elements/1.1/"
   xmlns:cc="http://creativecommons.org/ns#"
   xmlns:rdf="http://www.w3.org/1999/02/22-rdf-syntax-ns#"
   xmlns:svg="http://www.w3.org/2000/svg"
   xmlns="http://www.w3.org/2000/svg"
   xmlns:sodipodi="http://sodipodi.sourceforge.net/DTD/sodipodi-0.dtd"
   xmlns:inkscape="http://www.inkscape.org/namespaces/inkscape"
   width="256"
   height="256"
   id="svg2"
   version="1.1"
   inkscape:version="0.48.3.1 r9886"
   sodipodi:docname="applications-drawing.svg">
  <defs
     id="defs4" />
  <sodipodi:namedview
     id="base"
     pagecolor="#ffffff"
     bordercolor="#666666"
     borderopacity="1.0"
     inkscape:pageopacity="0.0"
     inkscape:pageshadow="2"
     inkscape:zoom="2.1794209"
     inkscape:cx="94.398767"
     inkscape:cy="98.111585"
     inkscape:document-units="px"
     inkscape:current-layer="layer1"
     showgrid="false"
     inkscape:window-width="1918"
     inkscape:window-height="1007"
     inkscape:window-x="0"
     inkscape:window-y="25"
     inkscape:window-maximized="1" />
  <metadata
     id="metadata7">
    <rdf:RDF>
      <cc:Work
         rdf:about="">
        <dc:format>image/svg+xml</dc:format>
        <dc:type
           rdf:resource="http://purl.org/dc/dcmitype/StillImage" />
        <dc:title />
      </cc:Work>
    </rdf:RDF>
  </metadata>
  <g
     inkscape:label="Capa 1"
     inkscape:groupmode="layer"
     id="layer1"
     transform="translate(0,-796.36218)">
    <path
       style="fill:#55ddff;fill-opacity:1;fill-rule:evenodd;stroke:#000000;stroke-width:5;stroke-miterlimit:4;stroke-opacity:1;stroke-dasharray:none"
       d="m 59.050934,826.324 c -1.639549,-10e-4 -3.149199,0.67148 -4.414189,2.28148 -3.64737,4.64207 9.449062,22.84767 13.395114,26.4449 2.906676,-5.42615 11.105947,-11.23379 11.105947,-11.23379 0,0 -11.733162,-17.48707 -20.086872,-17.49259 z"
       id="path3840" />
    <path
       style="fill:#55ddff;fill-opacity:1;fill-rule:evenodd;stroke:#000000;stroke-width:5;stroke-miterlimit:4;stroke-opacity:1;stroke-dasharray:none"
       d="m 195.39007,827.02219 c -5.70091,0.0882 -17.92754,14.25922 -17.92754,14.25922 0,0 5.6677,2.84109 9.96713,10.44595 6.1671,-2.08688 16.68038,-16.13281 9.84316,-23.92879 -0.48285,-0.55063 -1.126,-0.78809 -1.88275,-0.77638 z"
       id="path3838" />
    <path
       style="fill:#55ddff;fill-opacity:1;fill-rule:evenodd;stroke:#000000;stroke-width:5;stroke-miterlimit:4;stroke-opacity:1;stroke-dasharray:none"
       d="m 130.05326,827.86153 c -1.6304,0.006 -3.29741,0.049 -5.00167,0.13352 -62.327709,3.09141 -68.791656,66.67108 -69.380902,81.28235 -0.589369,14.61072 -10.257025,46.50199 -7.0314,49.25203 3.225563,2.75004 4.111233,0.41265 6.682296,-2.17086 2.360831,-2.37188 6.723012,-34.97797 5.884894,-40.34168 0.849533,4.49221 5.858157,21.6854 33.153882,24.24926 18.68893,1.75517 27.95413,-20.11696 31.99407,-23.63309 4.0403,-3.51662 9.31812,-2.26261 12.5081,1.25138 3.18955,3.51405 3.40808,19.68643 27.00186,21.52138 18.94537,1.47284 27.99387,-21.51564 27.99387,-21.51564 0,0 9.87112,27.80305 13.3798,31.49614 4.98011,5.2412 9.44173,0.80814 7.64756,-5.22295 -2.37682,-7.98934 -18.33091,-19.84484 -16.70095,-44.23315 1.58541,-23.72196 -10.13597,-72.2762 -68.13141,-72.06869 z"
       id="path3836" />
    <path
       style="fill:#55ddff;fill-opacity:1;fill-rule:evenodd;stroke:#000000;stroke-width:5;stroke-miterlimit:4;stroke-opacity:1;stroke-dasharray:none"
       d="m 232.41822,863.76997 c -4.56851,0.0183 -9.84425,1.8579 -15.66701,5.83722 -15.83267,10.82002 -18.55439,19.76341 -17.69478,31.01739 l 1.27048,2.88806 c 7.23077,-19.60116 19.18802,-31.13404 28.59282,-20.07545 9.02439,10.61064 -16.14283,22.22654 -27.10875,24.6594 l -1.23038,3.78655 c 13.08307,3.27995 52.36327,-9.71143 49.50195,-28.15979 -1.78844,-11.53014 -7.43813,-18.9068 -15.74905,-19.85038 -0.62331,-0.0707 -1.26261,-0.10563 -1.91528,-0.103 z"
       id="path3834" />
    <path
       style="fill:#55ddff;fill-opacity:1;fill-rule:evenodd;stroke:#000000;stroke-width:5;stroke-miterlimit:4;stroke-opacity:1;stroke-dasharray:none"
       d="m 27.719882,872.03454 c -0.275152,0.002 -0.546938,0.0105 -0.816464,0.0279 -7.188523,0.46504 -12.357149,6.57482 -14.376256,16.41828 -3.2304248,15.74932 30.016084,28.56351 41.407049,26.28823 l -0.900208,-3.30859 c -9.331432,-2.5501 -30.496679,-13.59274 -22.291348,-22.3439 8.551346,-9.11974 18.35596,1.29979 23.758365,18.46194 l 1.214051,-2.43136 c 1.208846,-9.64448 -0.759741,-17.45073 -13.927782,-27.41852 -5.188392,-3.92757 -9.94014,-5.71567 -14.067407,-5.69399 z"
       id="path3832"
       inkscape:connector-curvature="0" />
    <path
       style="fill:#ffffff;fill-opacity:1;fill-rule:evenodd;stroke:#000000;stroke-width:4.19999981;stroke-linecap:round;stroke-linejoin:round;stroke-miterlimit:4;stroke-opacity:1;stroke-dasharray:none"
       d="m 83.724306,892.20037 c -4.295366,3.69571 -6.750913,9.93049 -5.944779,16.53139 1.17832,9.65127 8.882082,16.42841 17.205778,15.13675 8.324045,-1.2917 14.116525,-10.16311 12.937855,-19.81433 l -0.0501,-0.38032 c -0.47352,-3.35017 -1.73307,-6.33592 -3.52568,-8.73889 3.30632,3.20228 5.66899,7.71886 6.41744,12.9771 l 0.0704,0.45702 c 1.43743,11.70012 -5.67185,22.46412 -15.878405,24.03782 -10.206497,1.57367 -19.650216,-6.63112 -21.087639,-18.33129 -1.132853,-9.2194 3.041023,-17.85668 9.85513,-21.87525 z"
       id="path3830"
       inkscape:connector-curvature="0" />
    <path
       style="fill:#ffffff;fill-opacity:1;fill-rule:evenodd;stroke:#000000;stroke-width:4.2;stroke-miterlimit:4;stroke-opacity:1;stroke-dasharray:none;stroke-linecap:round;stroke-linejoin:round"
       d="m 177.24888,887.33629 c 5.11539,3.74992 8.82258,9.51914 9.90041,16.37858 l 0.0763,0.53413 c 1.84709,13.6366 -7.39028,26.20013 -20.64395,28.05296 -13.25362,1.85277 -25.49674,-7.69591 -27.34334,-21.33257 -1.1376,-8.39821 1.93048,-16.38854 7.5502,-21.72167 -2.73551,3.59103 -4.07583,8.0894 -3.40314,12.75222 1.41687,9.82063 11.22181,16.64527 21.90101,15.24159 10.67926,-1.40361 18.18838,-10.50278 16.77151,-20.32341 l -0.061,-0.38915 c -0.6006,-3.56343 -2.30559,-6.71013 -4.74797,-9.19268 z"
       id="path3828" />
    <path
       style="fill:#55ddff;fill-opacity:1;fill-rule:evenodd;stroke:#000000;stroke-width:5;stroke-miterlimit:4;stroke-opacity:1;stroke-dasharray:none"
       d="m 148.29806,945.95561 c -6.64517,0.485 -12.36997,9.18021 -26.51047,11.08503 -7.7349,1.04193 -19.0139,-5.16619 -27.250177,-6.53208 -8.236341,-1.36589 -11.770192,5.39526 -16.689888,10.21912 -4.920317,4.82391 25.220235,-4.84109 16.39435,10.64281 -7.252251,12.72291 -16.682512,-13.42908 -20.896772,0.3221 -4.075453,13.30054 1.710738,18.16276 5.437719,22.27775 10.873182,12.00556 26.344888,10.82016 49.498568,6.73676 23.13405,-4.07947 40.38622,-8.41205 47.04761,-25.12336 1.53321,-3.84707 1.11798,-13.70066 -6.66022,-17.56172 -9.76851,-4.8492 -12.20986,18.32506 -20.32774,9.752 -9.96037,-10.51931 13.89138,-7.90158 14.06162,-13.77795 0.21276,-7.35972 -4.64733,-6.64249 -12.19727,-7.94635 -0.64879,-0.11203 -1.28261,-0.1397 -1.90733,-0.0941 z"
       id="path3826"
       inkscape:connector-curvature="0" />
    <path
       style="fill:#55ddff;fill-opacity:1;fill-rule:evenodd;stroke:#000000;stroke-width:5;stroke-miterlimit:4;stroke-opacity:1;stroke-dasharray:none"
       d="m 166.13778,991.71462 c -0.13614,0.0169 -0.28816,0.0607 -0.45638,0.13277 -20.9983,8.99381 -50.83373,15.52931 -66.910497,13.23981 -16.076076,-2.2895 -1.10762,17.8591 30.107597,14.6283 30.23973,-3.1291 41.48141,-28.51383 37.25928,-28.00088 z"
       id="path5150"
       inkscape:connector-curvature="0" />
    <path
       transform="matrix(-0.63367305,0.77360097,-0.77594758,-0.6307974,0,0)"
       style="fill:#ffffff;fill-opacity:1;fill-rule:evenodd;stroke:#000000;stroke-width:6.03302077;stroke-linecap:round;stroke-linejoin:round;stroke-opacity:1;stroke-miterlimit:4;stroke-dasharray:none"
       d="m 500.83155,-717.89676 c 61.10743,4.33819 120.05854,1.76452 178.80653,-1.46023 l 0.10968,18.46583 c -21.68992,0.72077 -86.80114,13.98722 -179.56515,16.55189 -16.00688,-3.50718 -10.02418,-32.2763 0.64894,-33.55749 z"
       id="rect11194-1-9-4-0-3-4"
       inkscape:connector-curvature="0"
       sodipodi:nodetypes="ccccc" />
    <path
       style="fill:none;stroke:#000000;stroke-width:0.14926149px;stroke-linecap:butt;stroke-linejoin:miter;stroke-opacity:1"
       d="M 124.8018,985.03635 109.01204,974.09762"
       id="path4789-2-5"
       inkscape:connector-curvature="0" />
    <path
       style="fill:#ffffff;fill-opacity:1;fill-rule:evenodd;stroke:#000000;stroke-width:3.601;stroke-linecap:round;stroke-linejoin:round;stroke-miterlimit:4;stroke-opacity:1;stroke-dasharray:none"
       d="m 110.81552,973.07963 13.01935,9.87017 -26.182315,17.2805 12.401465,-27.23621"
       id="path4791-9-8"
       inkscape:connector-curvature="0"
       sodipodi:nodetypes="cccc" />
    <path
       style="fill:none;stroke:#000000;stroke-width:0.14926149px;stroke-linecap:butt;stroke-linejoin:miter;stroke-opacity:1"
       d="m 95.942062,1003.1542 4.160868,-12.42077"
       id="path4800-3-6"
       inkscape:connector-curvature="0" />
    <path
       style="fill:#000000;fill-rule:evenodd;stroke:#000000;stroke-width:0.14631075px;stroke-linecap:butt;stroke-linejoin:miter;stroke-opacity:1"
       d="m 110.58017,992.58532 -7.07827,-4.39313 -8.79246,14.93131 z"
       id="path4808-8-7"
       inkscape:connector-curvature="0"
       sodipodi:nodetypes="cccc" />
  </g>
</svg>
