<?xml version="1.0" encoding="UTF-8" standalone="no"?>
<!-- Created with Inkscape (http://www.inkscape.org/) -->

<svg
   xmlns:dc="http://purl.org/dc/elements/1.1/"
   xmlns:cc="http://creativecommons.org/ns#"
   xmlns:rdf="http://www.w3.org/1999/02/22-rdf-syntax-ns#"
   xmlns:svg="http://www.w3.org/2000/svg"
   xmlns="http://www.w3.org/2000/svg"
   xmlns:sodipodi="http://sodipodi.sourceforge.net/DTD/sodipodi-0.dtd"
   xmlns:inkscape="http://www.inkscape.org/namespaces/inkscape"
   width="256"
   height="256"
   id="svg5274"
   version="1.1"
   inkscape:version="0.48.3.1 r9886"
   sodipodi:docname="applications-versioncontrol.svg">
  <defs
     id="defs5276" />
  <sodipodi:namedview
     id="base"
     pagecolor="#ffffff"
     bordercolor="#666666"
     borderopacity="1.0"
     inkscape:pageopacity="0.0"
     inkscape:pageshadow="2"
     inkscape:zoom="1.1760551"
     inkscape:cx="432.5457"
     inkscape:cy="45.303246"
     inkscape:document-units="px"
     inkscape:current-layer="layer1"
     showgrid="false"
     inkscape:window-width="1918"
     inkscape:window-height="1007"
     inkscape:window-x="0"
     inkscape:window-y="25"
     inkscape:window-maximized="1" />
  <metadata
     id="metadata5279">
    <rdf:RDF>
      <cc:Work
         rdf:about="">
        <dc:format>image/svg+xml</dc:format>
        <dc:type
           rdf:resource="http://purl.org/dc/dcmitype/StillImage" />
        <dc:title />
      </cc:Work>
    </rdf:RDF>
  </metadata>
  <g
     inkscape:label="Capa 1"
     inkscape:groupmode="layer"
     id="layer1"
     transform="translate(0,-796.36218)">
    <path
       style="fill:#2ad4ff;fill-opacity:1;fill-rule:evenodd;stroke:#000000;stroke-width:7.03177214;stroke-opacity:1"
       d="m 15.867879,1010.6274 c 8.78861,-55.54985 9.33383,-111.84925 1.04665,-168.9515 -3.00783,-20.72523 -6.56137,-34.03097 12.0326,-32.14611 68.00326,6.89352 130.217361,2.20871 193.853911,0.36882 18.68146,-0.54013 25.02672,1.74207 22.25455,22.50014 -9.40889,70.454 -9.78486,138.0252 -5.70381,177.68365 2.14376,20.8325 4.317,35.1183 -14.36118,34.4747 -62.87153,-2.1661 -125.743071,-12.9927 -188.614611,-2.6973 -12.3877,2.0285 -24.34865,-6.9576 -20.50811,-31.2324 z"
       id="rect7046-0-2-9-6"
       inkscape:connector-curvature="0"
       sodipodi:nodetypes="sssssssss" />
    <path
       id="path7050-7-1-0-9-3-8-0-6-8-6-9"
       d="m 98.948401,813.40656 c 18.758679,-3.10642 102.850289,-1.52178 116.930239,5.51134 13.05506,6.52052 18.63512,19.88727 19.07345,36.80956 l 2.01327,77.66229"
       class="fil2"
       inkscape:connector-curvature="0"
       style="fill:none" />
    <path
       id="path7054-6-7-2-3-9-0-3-5-7-1-1"
       d="m 20.568589,939.60659 c 0,13.66904 -2.426802,29.85979 -1.338123,43.49124 3.398694,42.56017 20.046117,57.61387 65.658321,54.67307 8.789242,-0.5659 56.276053,1.2418 66.326073,1.2418"
       class="fil2"
       inkscape:connector-curvature="0"
       style="fill:none" />
    <path
       id="path7050-7-1-0-8-5-2-6-3-4-5-9"
       d="m 98.948401,813.40656 c 18.758679,-3.10642 102.850289,-1.52178 116.930239,5.51134 13.05506,6.52052 18.63512,19.88727 19.07345,36.80956 l 2.01327,77.66229"
       class="fil2"
       inkscape:connector-curvature="0"
       style="fill:none" />
    <g
       transform="matrix(2.0123535,0,0,2.0123535,459.93853,405.90181)"
       style="font-size:40px;font-style:normal;font-weight:normal;line-height:125%;letter-spacing:0px;word-spacing:0px;fill:#ffffff;fill-opacity:1;stroke:#000000;stroke-width:1.9877224;stroke-linecap:round;stroke-linejoin:round;stroke-miterlimit:4;stroke-opacity:1;stroke-dasharray:none;font-family:Sans"
       id="text3009">
      <path
         d="m -186.37769,223.85135 c -3.24218,-1.07422 -6.1914,-1.62109 -8.84765,-1.62109 -6.38671,0 -10.44922,3.26172 -10.44922,8.65234 0,4.60937 2.63672,7.16797 8.51562,8.28125 l 2.28516,0.44922 c 1.62109,0.37109 3.04688,0.9375 3.75,1.54297 0.64453,0.625 1.01563,1.1914 1.01563,1.71875 0,0.5664 -0.46876,1.1914 -1.42579,1.875 -1.05468,0.76171 -2.55859,1.13281 -4.53125,1.13281 -2.71484,0 -5.82031,-1.07422 -9.51171,-3.125 l -0.58237,5.65702 c 15.92825,11.45704 26.83218,5.93756 27.55662,-2.85701 0.97723,-10.1161 -8.90785,-9.81173 -14.90394,-10.96407 l 0.0195,0 -2.28516,-0.44922 c -1.89453,-0.35156 -3.18359,-0.80078 -3.84765,-1.36719 l 0.0195,0.0195 c -0.56641,-0.46875 -0.83985,-1.21094 -0.83985,-2.22656 2.42744,-8.31697 10.56106,-0.74696 14.0625,0.96229 l 0,-7.68104"
         style="font-variant:normal;font-stretch:normal;fill:#ffffff;stroke:#000000;stroke-width:1.9877224;stroke-linecap:round;stroke-linejoin:round;stroke-miterlimit:4;stroke-opacity:1;stroke-dasharray:none;font-family:OpenDyslexic;-inkscape-font-specification:OpenDyslexic"
         id="path3084"
         inkscape:connector-curvature="0"
         sodipodi:nodetypes="csscccscsccccccccccc" />
      <path
         d="m -147.94206,222.73807 -8.92391,0 -9.44599,23.60784 -6.82533,-23.02547 -8.06988,-1.74711 12.4662,30.32489 2.78821,0 4.39929,0 13.32022,-29.16015"
         style="font-variant:normal;font-stretch:normal;fill:#ffffff;stroke:#000000;stroke-width:1.9877224;stroke-linecap:round;stroke-linejoin:round;stroke-miterlimit:4;stroke-opacity:1;stroke-dasharray:none;font-family:OpenDyslexic;-inkscape-font-specification:OpenDyslexic"
         id="path3086"
         inkscape:connector-curvature="0"
         sodipodi:nodetypes="ccccccccc" />
      <path
         d="m -137.28861,253.06296 c -2.23286,-7.59065 -2.64202,-14.47047 -3.01486,-21.75067 l 11.51553,21.93044 6.75095,-0.14939 1.58253,-30.06409 -8.1249,-2.03829 0.36574,22.09867 -10.78125,-19.80469 -5.83985,0 -0.76172,28.61328 8.30783,1.32173"
         style="font-variant:normal;font-stretch:normal;fill:#ffffff;stroke:#000000;stroke-width:1.9877224;stroke-linecap:round;stroke-linejoin:round;stroke-miterlimit:4;stroke-opacity:1;stroke-dasharray:none;font-family:OpenDyslexic;-inkscape-font-specification:OpenDyslexic"
         id="path3088"
         inkscape:connector-curvature="0"
         sodipodi:nodetypes="ccccccccccc" />
    </g>
    <g
       transform="matrix(2.5472439,0,0,1.9733272,417.15429,367.25225)"
       style="font-size:40px;font-style:normal;font-weight:normal;line-height:125%;letter-spacing:0px;word-spacing:0px;fill:#ffffff;fill-opacity:1;stroke:#000000;font-family:Sans;stroke-width:1.78412457;stroke-miterlimit:4;stroke-dasharray:none;stroke-opacity:1;stroke-linejoin:round;stroke-linecap:round"
       id="text3013">
      <path
         d="m -127.17552,309.53824 c -0.39063,0.29297 -0.9375,0.50781 -1.66016,0.68359 l 0.0195,0 c -0.99609,0.21485 -2.08984,0.3125 -3.39843,0.3125 -3.22266,0 -5.60547,-0.54687 -7.10938,-1.62109 l 0.0195,0 c -1.40625,-1.07422 -2.1875,-3.28125 -2.34375,-6.34766 0.0195,-7.01171 3.16407,-10.50781 9.4336,-10.50781 3.28124,0 7.13543,3.64508 10.57293,6.57477 l -1.1502,-8.29749 c -12.2235,-10.36982 -26.07881,-2.18801 -25.66626,11.74986 -0.15543,20.36604 19.46573,22.53749 27.04431,12.51192 l 0,-12.46094 -12.36981,-2.37555 0.69012,7.47321 5.91797,0 0,2.30469"
         style="font-variant:normal;font-stretch:normal;fill:#ffffff;stroke:#000000;stroke-width:1.78412461;stroke-linecap:round;stroke-linejoin:round;stroke-miterlimit:4;stroke-opacity:1;stroke-dasharray:none;font-family:OpenDyslexic;-inkscape-font-specification:OpenDyslexic"
         id="path3091"
         inkscape:connector-curvature="0"
         sodipodi:nodetypes="cccscccsccccccccc" />
      <path
         d="m -107.21887,318.71429 -2.6715,-30.34793 -5.01953,0 -0.60547,29.16016 8.2965,0.89083"
         style="font-variant:normal;font-stretch:normal;fill:#ffffff;stroke:#000000;stroke-width:1.78412461;stroke-linecap:round;stroke-linejoin:round;stroke-miterlimit:4;stroke-opacity:1;stroke-dasharray:none;font-family:OpenDyslexic;-inkscape-font-specification:OpenDyslexic"
         id="path3093"
         inkscape:connector-curvature="0"
         sodipodi:nodetypes="ccccc" />
      <path
         d="m -93.835678,292.64371 -2.352465,25.17975 9.997898,-0.59388 -2.352464,-24.58587 10.954885,0.39062 -1.610277,-7.04352 -25.132389,1.48472 0.69012,5.53927 9.804692,-0.37109"
         style="font-variant:normal;font-stretch:normal;fill:#ffffff;stroke:#000000;stroke-width:1.78412461;stroke-linecap:round;stroke-linejoin:round;stroke-miterlimit:4;stroke-opacity:1;stroke-dasharray:none;font-family:OpenDyslexic;-inkscape-font-specification:OpenDyslexic"
         id="path3095"
         inkscape:connector-curvature="0"
         sodipodi:nodetypes="ccccccccc" />
    </g>
    <flowRoot
       xml:space="preserve"
       id="flowRoot3075"
       style="fill:black;stroke:none;stroke-opacity:1;stroke-width:1px;stroke-linejoin:miter;stroke-linecap:butt;fill-opacity:1;font-family:Sans;font-style:normal;font-weight:normal;font-size:40px;line-height:125%;letter-spacing:0px;word-spacing:0px"><flowRegion
         id="flowRegion3077"><rect
           id="rect3079"
           width="181.0638"
           height="141.80402"
           x="-225.01132"
           y="191.54362" /></flowRegion><flowPara
         id="flowPara3081"></flowPara></flowRoot>  </g>
</svg>
