<?xml version="1.0" encoding="UTF-8" standalone="no"?>
<!-- Created with Inkscape (http://www.inkscape.org/) -->

<svg
   xmlns:dc="http://purl.org/dc/elements/1.1/"
   xmlns:cc="http://creativecommons.org/ns#"
   xmlns:rdf="http://www.w3.org/1999/02/22-rdf-syntax-ns#"
   xmlns:svg="http://www.w3.org/2000/svg"
   xmlns="http://www.w3.org/2000/svg"
   xmlns:sodipodi="http://sodipodi.sourceforge.net/DTD/sodipodi-0.dtd"
   xmlns:inkscape="http://www.inkscape.org/namespaces/inkscape"
   width="256"
   height="256"
   id="svg2"
   version="1.1"
   inkscape:version="0.48.3.1 r9886"
   sodipodi:docname="applications-cardgames.svg">
  <defs
     id="defs4" />
  <sodipodi:namedview
     id="base"
     pagecolor="#ffffff"
     bordercolor="#666666"
     borderopacity="1.0"
     inkscape:pageopacity="0.0"
     inkscape:pageshadow="2"
     inkscape:zoom="1.5389025"
     inkscape:cx="288.30514"
     inkscape:cy="92.873942"
     inkscape:document-units="px"
     inkscape:current-layer="layer1"
     showgrid="false"
     inkscape:window-width="1918"
     inkscape:window-height="1007"
     inkscape:window-x="0"
     inkscape:window-y="25"
     inkscape:window-maximized="1" />
  <metadata
     id="metadata7">
    <rdf:RDF>
      <cc:Work
         rdf:about="">
        <dc:format>image/svg+xml</dc:format>
        <dc:type
           rdf:resource="http://purl.org/dc/dcmitype/StillImage" />
        <dc:title />
      </cc:Work>
    </rdf:RDF>
  </metadata>
  <g
     inkscape:label="Capa 1"
     inkscape:groupmode="layer"
     id="layer1"
     transform="translate(0,-796.36218)">
    <path
       transform="matrix(0.1187222,-0.99292751,0.9934194,0.11453336,0,0)"
       style="fill:#55ddff;fill-opacity:1;fill-rule:evenodd;stroke:#000000;stroke-width:4.82864809;stroke-opacity:1"
       d="m -970.90671,124.99308 c 45.27759,3.32875 97.52144,8.70257 157.00061,5.1968 17.34201,-1.02215 20.28112,11.0752 19.20905,28.65449 -1.40703,23.07167 -1.81423,45.84958 0,66.81849 1.51718,17.53557 -1.56776,31.58634 -18.93563,31.60703 l -147.21875,0.17536 c -17.36786,0.0207 -33.69276,-14.32164 -31.3498,-31.78239 3.72729,-27.77736 3.95942,-51.73913 3.129,-73.73361 -0.66421,-17.59211 0.84982,-28.2092 18.16552,-26.93617 z"
       id="rect7046-0-5"
       inkscape:connector-curvature="0"
       sodipodi:nodetypes="sssssssss" />
    <path
       id="path7050-7-8"
       d="m 78.970463,808.69701 c 11.52367,-1.33149 61.527787,6.19682 69.178337,13.3469 7.0937,6.62912 8.99747,18.66956 7.45401,33.42826 l -7.08219,67.73256"
       class="fil2"
       inkscape:connector-curvature="0"
       style="fill:none" />
    <path
       id="path7054-6-8"
       d="m 18.744981,912.79049 c -1.457736,11.89562 -4.632858,25.80791 -5.437177,37.75026 -2.511673,37.28647 5.81531,51.60425 33.343416,52.38055 5.304429,0.1503 33.444483,5.196 39.440908,5.9308"
       class="fil2"
       inkscape:connector-curvature="0"
       style="fill:none" />
    <path
       inkscape:connector-curvature="0"
       d="m 91.971565,848.67622 c -6.58279,-0.93688 -12.677306,3.63746 -13.61704,10.22142 -0.15546,1.10147 -0.131577,2.182 0.0055,3.23766 -6.38743,-0.64627 -12.235788,3.80877 -13.150617,10.22542 -0.936798,6.58278 3.666978,12.68244 10.24977,13.6193 2.95792,0.42123 5.742243,-0.38974 8.082466,-1.88031 -5.258732,7.66648 -16.13572,14.79391 -15.753442,14.50358 12.769728,-3.28506 22.493566,-2.5424 30.070446,1.03931 0,0 -4.785794,-6.15302 -7.323925,-15.09893 1.847203,2.30969 4.491519,3.99162 7.646276,4.44319 6.582791,0.93685 12.680151,-3.63864 13.618191,-10.21849 0.93689,-6.58278 -3.63862,-12.68014 -10.22141,-13.61698 -0.0589,0.0236 -0.10011,0.006 -0.17087,2.6e-4 0.36846,-0.90335 0.64262,-1.85422 0.78489,-2.86139 0.93973,-6.58397 -3.634628,-12.67839 -10.218568,-13.61819 z"
       id="path717-2-7"
       sodipodi:stroke-cmyk="(0 0 0 0.8)"
       style="font-size:12px;fill:#ffffff;fill-opacity:1;fill-rule:evenodd;stroke:#000000;stroke-width:2.03229642;stroke-linecap:round;stroke-linejoin:round;stroke-miterlimit:4;stroke-opacity:1;stroke-dasharray:none"
       sodipodi:nodetypes="cccccccccccccccc" />
    <path
       sodipodi:nodetypes="cscccccccc"
       id="_79208600-31-6-4-3-1-4-2-2"
       class="fil2 str1"
       d="m 91.056776,884.17628 c -0.829026,4.95892 4.692642,6.846 9.548824,6.53341 4.42867,-0.28505 9.15366,-4.26185 11.22065,-8.68441 0.76114,-1.62838 1.21451,-3.40651 1.05873,-5.00827 -0.10857,-1.11725 -0.65777,-2.01063 -1.09528,-2.96307 l -0.93633,-1.20345 c 0.41775,2.04863 0.96952,4.68728 0.0999,7.01612 -1.49605,4.00691 -4.19979,7.1742 -8.05334,8.31559 -5.435586,1.60987 -11.002049,-0.30336 -11.840462,-4.00614 z"
       inkscape:connector-curvature="0"
       style="fill:#1f1a17;fill-rule:evenodd;stroke:#1f1a17;stroke-width:0.04967147" />
    <path
       inkscape:connector-curvature="0"
       d="m 84.364896,916.73417 c -6.582791,-0.93687 -12.677306,3.63746 -13.617041,10.22143 -0.15546,1.10147 -0.131576,2.182 0.0055,3.23765 -21.196519,-2.59889 -21.150433,21.34155 -2.900848,23.84473 2.957921,0.42122 5.742244,-0.38974 8.082466,-1.88032 -5.258731,7.66649 -14.186278,14.79392 -13.804,14.50358 11.586852,-3.91982 28.188748,3.51298 34.619142,8.18726 0,0 -11.283931,-13.30097 -13.822063,-22.24688 1.847204,2.3097 4.49152,3.99163 7.646277,4.4432 6.582793,0.93685 12.680151,-3.63865 13.618191,-10.21849 0.93689,-6.58278 -3.63862,-12.68014 -10.221415,-13.61699 -0.0589,0.0236 -0.100111,0.006 -0.170861,2.7e-4 0.368457,-0.90335 0.642611,-1.85422 0.784885,-2.8614 0.939734,-6.58396 -3.634628,-12.67839 -10.218568,-13.61818 z"
       id="path717-2-7-0"
       sodipodi:stroke-cmyk="(0 0 0 0.8)"
       style="font-size:12px;fill:#ffffff;fill-opacity:1;fill-rule:evenodd;stroke:#000000;stroke-width:2.03229642;stroke-linecap:round;stroke-linejoin:round;stroke-miterlimit:4;stroke-opacity:1;stroke-dasharray:none"
       sodipodi:nodetypes="ccccccccccccccc" />
    <path
       transform="matrix(-0.104328,-0.99454294,0.99409409,-0.10852159,0,0)"
       style="fill:#55ddff;fill-opacity:1;fill-rule:evenodd;stroke:#000000;stroke-width:4.82864809;stroke-opacity:1"
       d="m -1022.7428,2.156939 c 42.5904,9.262943 101.08322,1.7281061 146.64377,-0.7185216 17.34672,-0.93152873 21.72028,1.3018848 20.3455,18.8613746 -1.93849,24.759305 -4.78592,48.390734 -0.83493,80.458048 2.15202,17.46636 -0.0621,30.806 -17.29055,28.68215 -64.52334,-7.95416 -111.50575,0.0236 -148.86379,3.10023 -17.3152,1.42601 -30.9414,-0.96117 -29.5304,-18.51794 2.4385,-30.342115 4.3927,-63.154929 0.4005,-82.464663 -7.5273,-36.4091075 12.0459,-33.1162513 29.1299,-29.400678 z"
       id="rect7046-0"
       inkscape:connector-curvature="0"
       sodipodi:nodetypes="sssssssss" />
    <path
       id="path7050-7"
       d="m 138.55474,846.18294 c 10.94185,-3.85275 61.37078,-7.59586 70.41593,-2.31951 8.38666,4.89179 12.91201,16.2107 14.67842,30.94438 l 8.1079,67.61745"
       class="fil2"
       inkscape:connector-curvature="0"
       style="fill:none" />
    <path
       id="path7054-6"
       d="m 102.90131,961.03674 c 1.21536,11.9228 1.20309,26.19283 3.06597,38.01639 5.8159,36.91567 17.10948,49.03147 44.12484,43.68637 5.20579,-1.0292 33.76426,-2.3466 39.77439,-2.9593"
       class="fil2"
       inkscape:connector-curvature="0"
       style="fill:none" />
    <path
       inkscape:connector-curvature="0"
       d="m 164.44579,906.81131 c -9.05972,0.74593 -15.79829,8.69107 -15.05587,17.75321 0.12657,1.51551 0.48594,2.94876 0.98858,4.31456 -8.71113,1.07414 -15.1578,8.78566 -14.43278,17.61718 0.74597,9.05966 8.73195,15.79618 17.79167,15.05025 4.07101,-0.33485 7.53705,-2.25976 10.20517,-4.95609 -4.68732,11.81412 -11.75156,19.76858 -11.32985,19.26568 13.7806,-2.56107 27.58393,-5.25857 39.67544,2.31488 0,0 -12.79356,-11.95095 -18.88829,-23.10795 3.16262,2.51934 7.19757,3.96024 11.54009,3.6062 28.23561,-2.091 23.55928,-34.5758 -2.69493,-32.80539 -0.0714,0.0494 -0.13159,0.0384 -0.22765,0.0521 0.21743,-1.31595 0.29475,-2.66666 0.17912,-4.05248 -0.74242,-9.06213 -8.68752,-15.80059 -17.74968,-15.05821 z"
       id="path717-2"
       sodipodi:stroke-cmyk="(0 0 0 0.8)"
       style="font-size:12px;fill:#ffffff;fill-opacity:1;fill-rule:evenodd;stroke:#000000;stroke-width:2.77845335;stroke-linecap:round;stroke-linejoin:round;stroke-miterlimit:4;stroke-opacity:1;stroke-dasharray:none"
       sodipodi:nodetypes="ccccccccccccccc" />
  </g>
</svg>
