<?xml version="1.0" encoding="UTF-8" standalone="no"?>
<!-- Created with Inkscape (http://www.inkscape.org/) -->

<svg
   xmlns:dc="http://purl.org/dc/elements/1.1/"
   xmlns:cc="http://creativecommons.org/ns#"
   xmlns:rdf="http://www.w3.org/1999/02/22-rdf-syntax-ns#"
   xmlns:svg="http://www.w3.org/2000/svg"
   xmlns="http://www.w3.org/2000/svg"
   xmlns:sodipodi="http://sodipodi.sourceforge.net/DTD/sodipodi-0.dtd"
   xmlns:inkscape="http://www.inkscape.org/namespaces/inkscape"
   width="256"
   height="256"
   id="svg2"
   version="1.1"
   inkscape:version="0.48.3.1 r9886"
   sodipodi:docname="applications-publishing.svg">
  <defs
     id="defs4" />
  <sodipodi:namedview
     id="base"
     pagecolor="#ffffff"
     bordercolor="#666666"
     borderopacity="1.0"
     inkscape:pageopacity="0.0"
     inkscape:pageshadow="2"
     inkscape:zoom="1.3966294"
     inkscape:cx="274.22447"
     inkscape:cy="124.52536"
     inkscape:document-units="px"
     inkscape:current-layer="layer1"
     showgrid="false"
     inkscape:window-width="1918"
     inkscape:window-height="1007"
     inkscape:window-x="0"
     inkscape:window-y="25"
     inkscape:window-maximized="1" />
  <metadata
     id="metadata7">
    <rdf:RDF>
      <cc:Work
         rdf:about="">
        <dc:format>image/svg+xml</dc:format>
        <dc:type
           rdf:resource="http://purl.org/dc/dcmitype/StillImage" />
        <dc:title />
      </cc:Work>
    </rdf:RDF>
  </metadata>
  <g
     inkscape:label="Capa 1"
     inkscape:groupmode="layer"
     id="layer1"
     transform="translate(0,-796.36218)">
    <g
       id="g3044">
      <g
         inkscape:label="actions"
         transform="matrix(15.875952,0,0,15.875952,-3804.7125,-9492.4596)"
         style="fill:#55ddff;fill-opacity:1;stroke:#000000;stroke-width:0.60877544;stroke-miterlimit:4;stroke-opacity:1;stroke-dasharray:none;display:inline"
         id="layer12-7">
        <path
           sodipodi:nodetypes="ccccccccccccc"
           style="color:#bebebe;fill:#55ddff;fill-opacity:1;fill-rule:nonzero;stroke:#000000;stroke-width:0.60877544;stroke-miterlimit:4;stroke-opacity:1;stroke-dasharray:none;marker:none;visibility:visible;display:inline;overflow:visible;enable-background:accumulate"
           id="path4387-5"
           d="m 242.74156,648.78656 c -0.50766,0.0395 -0.94152,0.51729 -0.93263,1.02692 0.42877,4.43396 0.24462,8.65431 0,12.94533 -0.008,0.5398 0.48663,1.03477 1.02589,1.02691 3.19573,-0.37202 6.48228,-0.28842 9.948,0 0.53926,0.008 1.03373,-0.48711 1.02589,-1.02691 -0.29538,-3.27456 -0.68021,-6.60217 0,-9.95795 -0.004,-0.26704 -0.1184,-0.53079 -0.31088,-0.71573 l -2.9844,-2.98738 c -0.18475,-0.19267 -0.44824,-0.30734 -0.71501,-0.31119 -2.47804,0.29656 -4.75311,0.12975 -6.9636,0 -0.0311,-9.9e-4 -0.0622,-9.9e-4 -0.0933,0 z"
           inkscape:connector-curvature="0" />
      </g>
      <path
         sodipodi:nodetypes="ccssssssc"
         inkscape:connector-curvature="0"
         id="rect3896"
         d="m 66.847041,848.57421 c 31.444301,-1.17473 62.523019,1.10491 93.767639,3.12998 0.22203,0.0144 -0.39934,0.12691 -0.40243,0.28453 l -0.40244,20.4871 c -0.003,0.15762 -0.17952,0.28149 -0.40243,0.28454 -29.88918,0.40907 -57.70645,1.69711 -92.560339,0 -0.222428,-0.0109 -0.402437,-0.1269 -0.402437,-0.28454 l 0,-23.61707 c 0,-0.15764 0.179487,-0.28454 0.402437,-0.28454 z"
         style="fill:#ffffff;fill-opacity:1;fill-rule:nonzero;stroke:#000000;stroke-width:4.8761096;stroke-linecap:round;stroke-linejoin:round;stroke-miterlimit:4;stroke-opacity:1;stroke-dashoffset:0" />
      <path
         sodipodi:nodetypes="sssssssss"
         inkscape:connector-curvature="0"
         id="rect3896-5"
         d="m 66.444604,918.50394 c 41.971476,-2.84432 84.253826,-4.37023 127.294056,-2.68201 0.22248,0.009 0.40243,0.10875 0.40243,0.24382 l 0,20.23694 c 0,0.13507 -0.18037,0.2559 -0.40243,0.24382 -46.76366,-2.54348 -87.21457,-1.26235 -127.696492,0 -0.22266,0.007 -0.39598,-0.10881 -0.402436,-0.24382 l -0.804873,-16.82348 c -0.0068,-0.13502 -1.011479,-0.79764 1.609745,-0.97527 z"
         style="fill:#ffffff;fill-opacity:1;fill-rule:nonzero;stroke:#000000;stroke-width:5.29534578;stroke-linecap:round;stroke-linejoin:round;stroke-miterlimit:4;stroke-opacity:1;stroke-dashoffset:0" />
      <path
         sodipodi:nodetypes="sssssssss"
         inkscape:connector-curvature="0"
         id="rect3896-5-0"
         d="m 66.504527,980.22372 c 41.788783,5.89833 84.899313,-4.13173 127.696483,0 0.22046,0.0213 -0.40768,-0.40071 -0.40243,-0.25788 l 0.80487,21.91986 c 0.005,0.1429 -0.18032,0.2456 -0.40244,0.2579 -41.84209,2.3178 -84.81709,1.0057 -127.696483,0 -0.222805,-0.01 -0.402437,-0.115 -0.402437,-0.2579 l 0,-21.4041 c 0,-0.14286 0.184706,-0.28861 0.402437,-0.25788 z"
         style="fill:#ffffff;fill-opacity:1;fill-rule:nonzero;stroke:#000000;stroke-width:5.44591475;stroke-linecap:round;stroke-linejoin:round;stroke-miterlimit:4;stroke-opacity:1;stroke-dashoffset:0" />
      <g
         id="g2997"
         transform="matrix(0,1.0447139,1.0447139,0,-812.09679,773.13592)">
        <path
           transform="matrix(0.66805966,-0.74410772,0.74658213,0.66529326,0,0)"
           style="fill:#ffffff;fill-opacity:1;fill-rule:evenodd;stroke:#000000;stroke-width:5.00001717;stroke-linecap:round;stroke-linejoin:round;stroke-miterlimit:4;stroke-opacity:1"
           d="m -714.13611,696.0966 175.18068,5.94489 -0.17153,20.64672 -175.86833,9.01635 c -7.64782,-9.00192 -6.58026,-31.33605 0.85918,-35.60796 z"
           id="rect11194-1-9-4-0-3-1"
           inkscape:connector-curvature="0"
           sodipodi:nodetypes="ccccc" />
        <path
           style="fill:#ffffff;fill-opacity:1;fill-rule:evenodd;stroke:#000000;stroke-width:5.97323275;stroke-linecap:round;stroke-linejoin:round;stroke-miterlimit:4;stroke-opacity:1;stroke-dasharray:none"
           d="m 169.47849,863.29454 26.10307,-15.12089 -10.80844,27.81678 -14.97788,-12.38001"
           id="path4791-9-4"
           inkscape:connector-curvature="0"
           sodipodi:nodetypes="cccc" />
        <path
           style="fill:#ffffff;fill-rule:evenodd;stroke:#000000;stroke-width:3.96451712;stroke-linecap:round;stroke-linejoin:round;stroke-miterlimit:4;stroke-opacity:1;stroke-dasharray:none"
           d="m 185.83181,854.55562 4.01944,2.71775 6.67184,-8.70343 z"
           id="path4808-8-0"
           inkscape:connector-curvature="0"
           sodipodi:nodetypes="cccc" />
      </g>
    </g>
  </g>
</svg>
