<?xml version="1.0" encoding="UTF-8" standalone="no"?>
<!-- Created with Inkscape (http://www.inkscape.org/) -->

<svg
   xmlns:dc="http://purl.org/dc/elements/1.1/"
   xmlns:cc="http://creativecommons.org/ns#"
   xmlns:rdf="http://www.w3.org/1999/02/22-rdf-syntax-ns#"
   xmlns:svg="http://www.w3.org/2000/svg"
   xmlns="http://www.w3.org/2000/svg"
   xmlns:sodipodi="http://sodipodi.sourceforge.net/DTD/sodipodi-0.dtd"
   xmlns:inkscape="http://www.inkscape.org/namespaces/inkscape"
   width="256"
   height="256"
   id="svg2"
   version="1.1"
   inkscape:version="0.48.3.1 r9886"
   sodipodi:docname="applications-boardgames.svg">
  <defs
     id="defs4" />
  <sodipodi:namedview
     id="base"
     pagecolor="#ffffff"
     bordercolor="#666666"
     borderopacity="1.0"
     inkscape:pageopacity="0.0"
     inkscape:pageshadow="2"
     inkscape:zoom="2.7276335"
     inkscape:cx="93.093278"
     inkscape:cy="115.52693"
     inkscape:document-units="px"
     inkscape:current-layer="layer1"
     showgrid="false"
     inkscape:window-width="1918"
     inkscape:window-height="1007"
     inkscape:window-x="0"
     inkscape:window-y="25"
     inkscape:window-maximized="1" />
  <metadata
     id="metadata7">
    <rdf:RDF>
      <cc:Work
         rdf:about="">
        <dc:format>image/svg+xml</dc:format>
        <dc:type
           rdf:resource="http://purl.org/dc/dcmitype/StillImage" />
        <dc:title />
      </cc:Work>
    </rdf:RDF>
  </metadata>
  <g
     inkscape:label="Capa 1"
     inkscape:groupmode="layer"
     id="layer1"
     transform="translate(0,-796.36218)">
    <path
       transform="matrix(0.94934259,0.31424297,-0.3137734,0.9494979,0,0)"
       style="fill:#55ddff;fill-opacity:1;fill-rule:evenodd;stroke:#000000;stroke-width:6.00000048;stroke-miterlimit:4;stroke-opacity:1;stroke-dasharray:none"
       d="m 319.79891,767.05164 c 30.73216,3.42624 61.54998,-1.49003 91.06311,-4.8678 10.67571,-1.22183 20.69457,7.48495 20.44525,20.08664 l -1.7585,88.88279 c -0.24932,12.60169 -8.69941,23.7734 -19.39495,22.75096 -30.57205,-2.92253 -60.69514,-2.9534 -90.35491,0 -10.69245,1.06471 -20.83606,-10.22887 -19.39495,-22.75096 3.06954,-26.6718 3.41654,-53.73838 0,-81.35068 -1.54763,-12.50789 8.71689,-23.94142 19.39495,-22.75095 z"
       id="rect7046-4-7-2"
       inkscape:connector-curvature="0"
       sodipodi:nodetypes="sssssssss" />
    <path
       transform="matrix(-0.06632643,-0.12505184,0.12505184,-0.06632643,-2153.9412,-1065.6563)"
       style="fill:#ffffff;fill-opacity:1;fill-rule:evenodd;stroke:#000000;stroke-width:24.68448067;stroke-linecap:round;stroke-linejoin:bevel;stroke-miterlimit:4;stroke-opacity:1"
       inkscape:transform-center-x="36.207196"
       inkscape:transform-center-y="392.85785"
       d="m -19600.568,7133.7954 c 0,46.3403 -37.566,83.9066 -83.907,83.9066 -46.34,0 -72.188,-43.0778 -72.188,-89.4181 0,-46.3403 25.848,-78.395 72.188,-78.395 46.341,0 83.907,37.5662 83.907,83.9065 z"
       id="path5579-2-2"
       inkscape:connector-curvature="0"
       sodipodi:nodetypes="sssss" />
    <path
       transform="matrix(-0.06632643,-0.12505184,0.12505184,-0.06632643,-2110.3289,-1085.3042)"
       style="fill:#ffffff;fill-opacity:1;fill-rule:evenodd;stroke:#000000;stroke-width:24.68448067;stroke-linecap:round;stroke-linejoin:bevel;stroke-miterlimit:4;stroke-opacity:1"
       inkscape:transform-center-x="-396.24608"
       inkscape:transform-center-y="-62.919544"
       d="m -19615.788,7140.3814 c 0,46.3403 -22.346,77.3206 -68.687,77.3206 -46.34,0 -83.906,-37.5663 -83.906,-83.9066 0,-46.3403 37.566,-83.9065 83.906,-83.9065 46.341,0 68.687,44.1522 68.687,90.4925 z"
       id="path5579-3-0-4"
       inkscape:connector-curvature="0"
       sodipodi:nodetypes="sssss" />
    <path
       transform="matrix(-0.06632643,-0.12505184,0.12505184,-0.06632643,-2068.8109,-1106.0981)"
       style="fill:#ffffff;fill-opacity:1;fill-rule:evenodd;stroke:#000000;stroke-width:24.68448067;stroke-linecap:round;stroke-linejoin:bevel;stroke-miterlimit:4;stroke-opacity:1"
       inkscape:transform-center-x="-806.25383"
       inkscape:transform-center-y="-495.0404"
       d="m -19600.568,7133.7954 c 0,46.3403 -37.288,72.3272 -83.629,72.3272 -46.34,0 -84.184,-25.9869 -84.184,-72.3272 0,-46.3403 37.566,-83.9065 83.906,-83.9065 46.341,0 83.907,37.5662 83.907,83.9065 z"
       id="path5579-3-8-2-5"
       inkscape:connector-curvature="0"
       sodipodi:nodetypes="sssss" />
    <path
       transform="matrix(0.98867447,-0.15007595,0.15056487,0.98860013,0,0)"
       style="fill:#55ddff;fill-opacity:1;fill-rule:evenodd;stroke:#000000;stroke-width:6.00000037;stroke-opacity:1;stroke-miterlimit:4;stroke-dasharray:none"
       d="m -26.93479,904.27759 c 24.2631923,1.55894 42.347315,4.37545 95.76894,0 11.351072,-0.9297 21.943724,10.82639 20.557082,24.11418 -2.991121,28.66305 -4.797073,57.35727 0,86.22513 2.189757,13.1775 -9.242117,25.4018 -20.557082,24.1142 -30.928219,-3.5195 -62.6988816,-4.0584 -95.76894,0 -11.304496,1.3873 -22.077409,-10.8409 -20.557081,-24.1142 3.23583,-28.25049 2.545761,-57.09696 0,-86.22513 -1.163096,-13.30796 9.192252,-24.84438 20.557081,-24.11418 z"
       id="rect7046-4-7"
       inkscape:connector-curvature="0"
       sodipodi:nodetypes="sssssssss" />
    <path
       transform="matrix(0.14843129,-0.02187428,0.02187428,0.14843129,2900.3177,-563.90716)"
       style="fill:#ffffff;fill-opacity:1;fill-rule:evenodd;stroke:#000000;stroke-width:24.68448067;stroke-linecap:round;stroke-linejoin:bevel;stroke-miterlimit:4;stroke-opacity:1"
       d="m -19600.568,7133.7954 c 0,46.3403 -37.566,83.9066 -83.907,83.9066 -46.34,0 -100.116,-44.895 -100.116,-91.2353 0,-46.3403 48.661,-92.1513 95.001,-92.1513 46.341,0 89.022,53.1397 89.022,99.48 z"
       id="path5579"
       inkscape:connector-curvature="0"
       sodipodi:nodetypes="sssss" />
    <path
       transform="matrix(0.14843129,-0.02187428,0.02187428,0.14843129,2905.8551,-526.33257)"
       style="fill:#ffffff;fill-opacity:1;fill-rule:evenodd;stroke:#000000;stroke-width:24.68448067;stroke-linecap:round;stroke-linejoin:bevel;stroke-miterlimit:4;stroke-opacity:1"
       d="m -19600.568,7133.7954 c 0,46.3403 -41.052,90.8027 -87.393,90.8027 -46.34,0 -80.42,-44.4624 -80.42,-90.8027 0,-46.3403 37.566,-83.9065 83.906,-83.9065 46.341,0 83.907,37.5662 83.907,83.9065 z"
       id="path5579-3"
       inkscape:connector-curvature="0"
       sodipodi:nodetypes="sssss" />
    <path
       transform="matrix(0.14843129,-0.02187428,0.02187428,0.14843129,2911.105,-490.70814)"
       style="fill:#ffffff;fill-opacity:1;fill-rule:evenodd;stroke:#000000;stroke-width:24.68448067;stroke-linecap:round;stroke-linejoin:bevel;stroke-miterlimit:4;stroke-opacity:1"
       d="m -19593.749,7154.56 c 0,46.3403 -44.385,63.142 -90.726,63.142 -46.34,0 -83.906,-37.5663 -83.906,-83.9066 0,-46.3403 37.566,-83.9065 83.906,-83.9065 46.341,0 90.726,58.3308 90.726,104.6711 z"
       id="path5579-3-8"
       inkscape:connector-curvature="0"
       sodipodi:nodetypes="sssss" />
    <path
       transform="matrix(0.14843129,-0.02187428,0.02187428,0.14843129,2952.9411,-572.10878)"
       style="fill:#ffffff;fill-opacity:1;fill-rule:evenodd;stroke:#000000;stroke-width:24.68448067;stroke-linecap:round;stroke-linejoin:bevel;stroke-miterlimit:4;stroke-opacity:1"
       d="m -19612.655,7132.0141 c 0,46.3403 -25.479,85.6879 -71.82,85.6879 -46.34,0 -83.906,-37.5663 -83.906,-83.9066 0,-46.3403 37.566,-83.9065 83.906,-83.9065 46.341,0 71.82,35.7849 71.82,82.1252 z"
       id="path5579-2"
       inkscape:connector-curvature="0"
       sodipodi:nodetypes="sssss" />
    <path
       transform="matrix(0.14843129,-0.02187428,0.02187428,0.14843129,2958.4784,-534.53402)"
       style="fill:#ffffff;fill-opacity:1;fill-rule:evenodd;stroke:#000000;stroke-width:24.68448067;stroke-linecap:round;stroke-linejoin:bevel;stroke-miterlimit:4;stroke-opacity:1"
       d="m -19600.568,7133.7954 c 0,46.3403 -45.455,70.3943 -91.796,70.3943 -46.34,0 -76.017,-24.054 -76.017,-70.3943 0,-46.3403 37.566,-83.9065 83.906,-83.9065 46.341,0 83.907,37.5662 83.907,83.9065 z"
       id="path5579-3-0"
       inkscape:connector-curvature="0"
       sodipodi:nodetypes="sssss" />
    <path
       transform="matrix(0.14843129,-0.02187428,0.02187428,0.14843129,2963.7283,-498.9096)"
       style="fill:#ffffff;fill-opacity:1;fill-rule:evenodd;stroke:#000000;stroke-width:24.68448067;stroke-linecap:round;stroke-linejoin:bevel;stroke-miterlimit:4;stroke-opacity:1"
       d="m -19600.568,7133.7954 c 0,46.3403 -37.566,83.9066 -83.907,83.9066 -46.34,0 -83.906,-37.5663 -83.906,-83.9066 0,-46.3403 38.558,-73.8804 84.898,-73.8804 46.341,0 82.915,27.5401 82.915,73.8804 z"
       id="path5579-3-8-2"
       inkscape:connector-curvature="0"
       sodipodi:nodetypes="sssss" />
  </g>
</svg>
