<?xml version="1.0" encoding="UTF-8" standalone="no"?>
<!-- Created with Inkscape (http://www.inkscape.org/) -->

<svg
   xmlns:dc="http://purl.org/dc/elements/1.1/"
   xmlns:cc="http://creativecommons.org/ns#"
   xmlns:rdf="http://www.w3.org/1999/02/22-rdf-syntax-ns#"
   xmlns:svg="http://www.w3.org/2000/svg"
   xmlns="http://www.w3.org/2000/svg"
   xmlns:sodipodi="http://sodipodi.sourceforge.net/DTD/sodipodi-0.dtd"
   xmlns:inkscape="http://www.inkscape.org/namespaces/inkscape"
   width="256"
   height="256"
   id="svg5274"
   version="1.1"
   inkscape:version="0.48.3.1 r9886"
   sodipodi:docname="applications-java.svg">
  <defs
     id="defs5276" />
  <sodipodi:namedview
     id="base"
     pagecolor="#ffffff"
     bordercolor="#666666"
     borderopacity="1.0"
     inkscape:pageopacity="0.0"
     inkscape:pageshadow="2"
     inkscape:zoom="1.6895103"
     inkscape:cx="113.69327"
     inkscape:cy="65.598287"
     inkscape:document-units="px"
     inkscape:current-layer="layer1"
     showgrid="false"
     inkscape:window-width="1918"
     inkscape:window-height="1007"
     inkscape:window-x="0"
     inkscape:window-y="25"
     inkscape:window-maximized="1" />
  <metadata
     id="metadata5279">
    <rdf:RDF>
      <cc:Work
         rdf:about="">
        <dc:format>image/svg+xml</dc:format>
        <dc:type
           rdf:resource="http://purl.org/dc/dcmitype/StillImage" />
        <dc:title />
      </cc:Work>
    </rdf:RDF>
  </metadata>
  <g
     inkscape:label="Capa 1"
     inkscape:groupmode="layer"
     id="layer1"
     transform="translate(0,-796.36218)">
    <path
       id="path7050-7-1-0-9-3-8"
       d="m 98.373374,808.6727 c 19.510836,-3.23097 106.974186,-1.58279 121.618696,5.73233 13.57851,6.78197 19.38231,20.68467 19.83822,38.28548 l 2.094,80.77625"
       class="fil2"
       inkscape:connector-curvature="0"
       style="fill:none" />
    <path
       id="path7054-6-7-2-3-9-0"
       d="m 16.850834,939.93287 c 0,14.21711 -2.52411,31.05708 -1.391773,45.23509 3.534967,44.26664 20.849883,59.92384 68.29096,56.86514 9.14166,-0.5886 58.532509,1.2917 68.985499,1.2917"
       class="fil2"
       inkscape:connector-curvature="0"
       style="fill:none" />
    <path
       id="path7050-7-1-0-8-5-2"
       d="m 98.373374,808.6727 c 19.510836,-3.23097 106.974186,-1.58279 121.618696,5.73233 13.57851,6.78197 19.38231,20.68467 19.83822,38.28548 l 2.094,80.77625"
       class="fil2"
       inkscape:connector-curvature="0"
       style="fill:none" />
    <path
       style="fill:#2ad4ff;fill-opacity:1;fill-rule:evenodd;stroke:#000000;stroke-width:7.03177214;stroke-opacity:1"
       d="m 16.590339,1008.1766 c 8.78861,-55.54978 9.33383,-111.84913 1.04665,-168.95142 -3.00783,-20.72523 -6.56137,-34.03097 12.0326,-32.14611 68.00326,6.89352 130.217361,2.20871 193.853911,0.36882 18.68146,-0.54013 25.02672,1.74207 22.25455,22.50014 -9.40889,70.45405 -9.78486,138.02519 -5.70381,177.68357 2.14376,20.8325 4.317,35.1183 -14.36118,34.4747 -62.87153,-2.1661 -125.743071,-12.9927 -188.614611,-2.6973 -12.3877,2.0285 -24.34865,-6.9576 -20.50811,-31.2324 z"
       id="rect7046-0-2-9"
       inkscape:connector-curvature="0"
       sodipodi:nodetypes="sssssssss" />
    <path
       style="fill:#ffffff;fill-opacity:1;fill-rule:evenodd;stroke:#000000;stroke-width:2.72927594;stroke-miterlimit:4;stroke-opacity:1;stroke-dasharray:none;display:inline"
       id="path3672"
       inkscape:connector-curvature="0"
       d="m 140.8149,823.1729 c 8.33813,31.26692 -39.7675,38.80812 -53.391016,58.28127 -9.277957,13.2699 14.886056,29.45007 33.743856,45.64276 -7.35466,-15.82313 -32.302486,-29.69121 0,-53.97669 40.28038,-30.26758 19.64716,-49.94734 19.64716,-49.94734 z m 24.82269,38.74679 c 0,0 -68.058836,16.16856 -35.52902,51.85161 9.6026,10.52195 -2.47022,19.9352 -2.47022,19.9352 0,0 33.31928,-11.22335 22.13016,-26.22214 -10.45328,-13.98258 -27.52276,-21.60969 15.86908,-45.56467 z m 11.05897,63.72312 c -2.08477,0.0973 -4.23574,0.48388 -6.4708,1.23047 -2.0898,0.70504 -3.17545,2.35139 -3.17545,2.35139 0,0 1.28761,-0.5325 4.23555,-1.11845 12.04745,-2.39045 29.33161,15.35861 -8.00098,33.82015 -0.17865,0.44043 -0.70487,1.00928 -0.70487,1.00928 56.16229,-10.60782 50.61857,-37.2411 14.11655,-37.29284 z m -80.706735,1.79227 c -4.759166,0.12141 -15.991543,1.09166 -28.940772,7.05421 -26.83268,11.43472 30.914258,19.9098 87.295007,4.47916 3.81896,-2.48009 9.05848,-4.59081 9.05848,-4.59081 0,0 -15.03139,2.49945 -30.00105,3.696 -18.31872,1.4614 -37.899665,1.81659 -47.762773,0.55932 -23.356656,-2.9716 12.82392,-11.19788 12.82392,-11.19788 0,0 -0.88649,-0.0486 -2.472812,0 z m -5.998279,21.50114 c -38.987007,11.80669 1.597235,26.51826 65.882534,9.62981 -5.00438,-1.67812 -8.23596,-4.70335 -8.23596,-4.70335 -23.02453,4.21929 -36.33105,4.00754 -53.176072,2.3516 -13.023073,-1.28159 -4.470502,-7.27806 -4.470502,-7.27806 z m 4.705457,20.71816 c -36.90971,9.26386 -2.590754,28.75589 57.646577,9.07036 -6.37868,-2.35867 -10.94129,-5.03871 -10.94129,-5.03871 -17.37087,3.12486 -25.52514,3.39249 -41.29459,1.68045 -13.012818,-1.42268 -5.410697,-5.7121 -5.410697,-5.7121 z m -19.76444,13.77318 C 61.783989,982.94615 32.038788,995.39422 57.520477,999.33085 104.5175,1013.6416 202.23456,993.84268 181.6394,984.9961 c 0,0 5.58448,4.42575 -6.23565,7.83971 -22.48024,6.48069 -93.548386,8.40179 -113.295109,0.21898 -7.094171,-2.93982 6.164043,-6.97912 10.353341,-7.83979 4.365889,-0.89729 6.940898,-0.67118 6.940898,-0.67118 -0.98607,-0.6615 -2.59291,-1.05045 -4.470317,-1.12109 z m 119.293187,11.20058 c 0,0 -2.53901,6.12066 -29.64563,10.97406 -30.58341,5.4811 -68.222575,4.8587 -90.590364,1.3451 0,0 4.572878,3.5964 28.118234,5.0383 44.60282,6.3578 103.89658,5.0056 92.11776,-17.35746 z"
       sodipodi:nodetypes="ccccccccccccccccccccccccccccccccccccccccccccccccc" />
  </g>
</svg>
