<?xml version="1.0" encoding="UTF-8" standalone="no"?>
<!-- Created with Inkscape (http://www.inkscape.org/) -->

<svg
   xmlns:dc="http://purl.org/dc/elements/1.1/"
   xmlns:cc="http://creativecommons.org/ns#"
   xmlns:rdf="http://www.w3.org/1999/02/22-rdf-syntax-ns#"
   xmlns:svg="http://www.w3.org/2000/svg"
   xmlns="http://www.w3.org/2000/svg"
   xmlns:sodipodi="http://sodipodi.sourceforge.net/DTD/sodipodi-0.dtd"
   xmlns:inkscape="http://www.inkscape.org/namespaces/inkscape"
   width="256"
   height="256"
   id="svg4631"
   version="1.1"
   inkscape:version="0.48.3.1 r9886"
   sodipodi:docname="applications-physics.svg">
  <defs
     id="defs4633" />
  <sodipodi:namedview
     id="base"
     pagecolor="#ffffff"
     bordercolor="#666666"
     borderopacity="1.0"
     inkscape:pageopacity="0.0"
     inkscape:pageshadow="2"
     inkscape:zoom="2.1832823"
     inkscape:cx="101.88977"
     inkscape:cy="96.406064"
     inkscape:document-units="px"
     inkscape:current-layer="layer1"
     showgrid="false"
     inkscape:window-width="1918"
     inkscape:window-height="1007"
     inkscape:window-x="0"
     inkscape:window-y="25"
     inkscape:window-maximized="1"
     showguides="true"
     inkscape:guide-bbox="true" />
  <metadata
     id="metadata4636">
    <rdf:RDF>
      <cc:Work
         rdf:about="">
        <dc:format>image/svg+xml</dc:format>
        <dc:type
           rdf:resource="http://purl.org/dc/dcmitype/StillImage" />
        <dc:title />
      </cc:Work>
    </rdf:RDF>
  </metadata>
  <g
     inkscape:label="Capa 1"
     inkscape:groupmode="layer"
     id="layer1"
     transform="translate(0,-796.36218)">
    <path
       style="fill:#2ad4ff;fill-opacity:1;fill-rule:evenodd;stroke:#000000;stroke-width:3;stroke-miterlimit:4;stroke-opacity:1;stroke-dasharray:none"
       d="M 126.9375 0.9375 C 113.30507 0.9375 101.10632 18.104289 92.875 45.15625 C 67.192134 31.918368 45.912586 28.623637 36.34375 38.59375 C 26.970254 48.360332 30.792159 68.839423 44.375 93.28125 C 17.864042 101.50806 1.09375 113.61913 1.09375 127.09375 C 1.09375 140.54614 17.814946 152.58659 44.25 160.8125 C 31.393008 184.51591 27.968822 204.26074 37.125 213.8125 C 46.519739 223.61314 67.228014 220.61385 92.3125 207.96875 C 100.54437 236.11236 112.98956 254.0625 126.9375 254.0625 C 141.04277 254.0625 153.61591 235.69285 161.84375 207 C 187.79775 220.49923 209.32479 223.92341 218.96875 213.875 C 228.15913 204.29923 224.69105 184.43422 211.75 160.625 C 237.79386 152.40442 254.21875 140.4313 254.21875 127.09375 C 254.21875 113.74657 237.76411 101.75237 211.6875 93.53125 C 225.37335 69.011789 229.23616 48.45444 219.84375 38.65625 C 210.03342 28.42207 187.9298 32.158727 161.34375 46.25 C 153.11076 18.560042 140.75479 0.9375 126.9375 0.9375 z M 123.40625 17.03125 C 135.07808 17.03125 145.95154 29.607132 153.875 50.375 C 145.54867 55.239972 136.89099 61.055485 128.09375 67.6875 C 117.72522 59.861609 107.53478 53.187247 97.875 47.84375 C 103.59708 28.528223 112.08809 17.03125 123.40625 17.03125 z M 61.46875 41.5 C 69.504994 41.25823 79.690502 44.5398 91.28125 50.6875 C 88.496876 60.949559 86.261489 72.451037 84.6875 84.84375 C 72.857486 86.358657 61.829938 88.501404 51.9375 91.125 C 42.085773 71.40842 40.373282 55.251389 48.5625 46.71875 C 51.805499 43.339753 56.17228 41.659344 61.46875 41.5 z M 188.6875 43.40625 C 194.81395 43.136226 199.8542 44.848884 203.59375 48.75 C 211.42666 56.921324 210.17346 72.06172 201.40625 90.625 C 191.61424 88.129493 180.79358 86.117044 169.1875 84.6875 C 167.68524 72.907471 165.57044 61.927666 162.96875 52.0625 C 172.78987 46.746603 181.50198 43.722953 188.6875 43.40625 z M 96.3125 53.5 C 104.59202 58.308027 113.50291 64.472925 122.8125 71.75 C 118.44618 75.188729 114.06621 78.832458 109.6875 82.65625 C 103.34194 82.976136 97.162224 83.452979 91.15625 84.09375 C 92.368546 72.698637 94.078531 62.419937 96.3125 53.5 z M 155.96875 56.15625 C 158.71171 64.421294 161.00233 73.764627 162.75 83.96875 C 157.47835 83.42995 152.09248 82.981168 146.5625 82.6875 C 142.26314 78.926926 137.94453 75.357974 133.65625 71.96875 C 141.50586 65.771576 148.98203 60.457808 155.96875 56.15625 z M 128.4375 76.1875 C 130.84017 78.148552 133.27449 80.18258 135.71875 82.28125 C 133.04691 82.221549 130.37055 82.1875 127.65625 82.1875 C 125.49298 82.1875 123.35538 82.211962 121.21875 82.25 C 123.65294 80.151215 126.06266 78.13847 128.4375 76.1875 z M 126.96875 91.40625 C 133.81283 91.40625 140.36628 91.613902 146.65625 92 C 149.20501 94.342205 151.77138 96.74991 154.34375 99.21875 C 158.38624 103.09854 162.21806 107.0196 165.875 110.90625 C 166.29157 117.24953 166.53125 123.78397 166.53125 130.5 C 166.53125 133.81674 166.44773 137.04942 166.34375 140.25 C 161.70721 145.31407 156.74126 150.41589 151.4375 155.5 C 148.53012 158.28697 145.63987 160.99351 142.75 163.625 C 136.49579 163.81873 130.02861 163.90625 123.3125 163.90625 C 119.28508 163.90625 115.35063 163.83002 111.5625 163.6875 C 107.94572 160.41696 104.29334 157.05195 100.625 153.53125 C 96.604675 149.67274 92.795285 145.79045 89.15625 141.9375 C 89.051684 137.76028 88.96875 133.49358 88.96875 129.125 C 88.96875 123.44311 89.073061 117.89981 89.25 112.5 C 93.148878 108.41512 97.228792 104.31436 101.46875 100.25 C 104.58866 97.259301 107.66567 94.389551 110.71875 91.59375 C 115.92912 91.47121 121.3416 91.40625 126.96875 91.40625 z M 99.4375 91.96875 C 98.773259 92.595924 98.100335 93.208366 97.4375 93.84375 C 94.802243 96.369869 92.254335 98.919324 89.75 101.46875 C 89.926828 98.416845 90.136497 95.432056 90.375 92.5 C 93.30868 92.303686 96.326091 92.109013 99.4375 91.96875 z M 157.71875 92.90625 C 159.92357 93.130799 162.09768 93.383757 164.21875 93.65625 C 164.49035 95.742743 164.74276 97.855398 164.96875 100 C 162.93059 97.946751 160.87286 95.91242 158.75 93.875 C 158.4081 93.546862 158.06104 93.232207 157.71875 92.90625 z M 83.75 92.96875 C 83.224662 98.2003 82.815565 103.54773 82.53125 109.03125 C 78.688186 113.18484 74.994285 117.32473 71.53125 121.46875 C 65.014366 113.09411 59.522726 104.97121 55.1875 97.28125 C 63.230812 95.343276 72.791119 93.914429 83.75 92.96875 z M 170.28125 94.5 C 179.94109 96.005146 188.62247 98.01871 196.21875 100.46875 C 192.62076 106.71056 188.30621 113.23782 183.28125 119.9375 C 179.47988 115.44256 175.42973 110.96535 171.1875 106.46875 C 170.94655 102.40794 170.65588 98.420001 170.28125 94.5 z M 47.875 99.34375 C 53.206416 108.15187 59.710558 117.38378 67.25 126.75 C 60.506049 135.19589 54.601237 143.53453 49.65625 151.53125 C 33.334311 143.98859 24.9375 133.60971 24.9375 122.15625 C 24.9375 111.52843 32.956288 104.19591 47.875 99.34375 z M 205.5 103.9375 C 222.63115 111.20422 232.1875 121.10273 232.1875 132.25 C 232.1875 142.39898 223.57635 149.76316 208.4375 154.8125 C 203.11826 145.82465 196.56951 136.38878 188.90625 126.78125 C 195.16894 119.0107 200.74166 111.35857 205.5 103.9375 z M 171.65625 117.25 C 174.15237 120.06033 176.56288 122.84191 178.84375 125.625 C 176.58651 128.45709 174.23916 131.346 171.75 134.21875 C 171.79106 131.99942 171.8125 129.74816 171.8125 127.5 C 171.8125 124.04331 171.75268 120.6367 171.65625 117.25 z M 82.15625 120.15625 C 82.106719 122.59191 82.0625 125.02935 82.0625 127.5 C 82.0625 129.75881 82.083549 132.0203 82.125 134.25 C 80.020638 131.86339 77.978037 129.48725 76.03125 127.125 C 78.009826 124.80167 80.048379 122.49644 82.15625 120.15625 z M 71.78125 132.21875 C 75.15986 136.22396 78.706789 140.27083 82.4375 144.28125 C 82.707205 150.0194 83.123349 155.62507 83.65625 161.09375 C 72.910786 159.41086 63.59107 157.0159 55.75 154.0625 C 60.285422 147.04498 65.677846 139.70412 71.78125 132.21875 z M 184.21875 132.4375 C 190.73383 140.96752 196.16955 149.2656 200.4375 157.09375 C 191.80014 159.25314 181.60831 160.86268 170.125 161.96875 C 170.61963 157.03331 171.03192 152.00439 171.3125 146.84375 C 175.87003 142.04809 180.16282 137.23325 184.21875 132.4375 z M 89.46875 151.59375 C 91.786626 153.94519 94.16469 156.2937 96.59375 158.625 C 98.180494 160.14788 99.749671 161.64956 101.34375 163.125 C 97.463355 162.83274 93.717966 162.4448 90.125 162 C 89.877569 158.61898 89.634133 155.14503 89.46875 151.59375 z M 165.6875 152.59375 C 165.4287 155.95736 165.12269 159.23342 164.75 162.4375 C 161.52965 162.69661 158.21165 162.90484 154.8125 163.09375 C 156.39654 161.62903 157.98568 160.16777 159.5625 158.65625 C 161.6541 156.65127 163.67799 154.61417 165.6875 152.59375 z M 50.5625 162.65625 C 60.776847 165.44376 72.220809 167.72695 84.5625 169.3125 C 86.056844 181.35413 88.174064 192.55661 90.8125 202.625 C 69.564425 214.54829 52.456307 217.82842 43.84375 208.84375 C 35.544016 200.18544 38.897942 183.2219 50.5625 162.65625 z M 203.5 163 C 212.94254 182.52409 214.46643 198.53927 206.40625 206.9375 C 198.16707 215.52217 182.63728 212.8649 163.15625 202.1875 C 165.73158 192.27341 167.80918 181.28092 169.28125 169.46875 C 181.67753 167.93807 193.19807 165.73928 203.5 163 z M 90.8125 170.03125 C 97.267505 170.72703 103.93465 171.20758 110.78125 171.53125 C 114.64053 174.85502 118.49767 178.00841 122.34375 181.03125 C 112.98036 188.45628 103.93849 194.80132 95.46875 199.90625 C 93.417368 191.17794 91.890819 181.14474 90.8125 170.03125 z M 163.71875 170.09375 C 162.12234 180.72207 159.88848 190.32967 157.15625 198.75 C 149.52451 194.12517 141.35983 188.40674 132.875 181.75 C 137.03513 178.50867 141.19758 175.09427 145.375 171.5 C 151.65458 171.18794 157.77 170.72013 163.71875 170.09375 z M 120.875 171.90625 C 123.12496 171.94846 125.37663 171.96875 127.65625 171.96875 C 129.57801 171.96875 131.47415 171.93631 133.375 171.90625 C 131.28285 173.7012 129.22476 175.45647 127.15625 177.15625 C 125.07972 175.45596 122.98359 173.70782 120.875 171.90625 z M 128.0625 185.4375 C 137.4536 192.47515 146.67967 198.55977 155.5 203.5625 C 147.48078 225.35686 135.88547 238 123.40625 238 C 111.45691 238 102.65162 226.03494 96.9375 205.5625 C 106.85067 200.21383 117.35772 193.44948 128.0625 185.4375 z "
       transform="translate(0,796.36218)"
       id="path3225-9-0-5" />
    <path
       style="fill:#2ad4ff;fill-opacity:1;fill-rule:nonzero;stroke:#000000;stroke-width:4.4;stroke-miterlimit:4;stroke-opacity:1;stroke-dasharray:none"
       inkscape:connector-curvature="0"
       id="path4782-4-7-0-6"
       d="m 156.40793,926.86258 c 0,13.78245 -8.32414,22.66615 -21.98219,22.66615 -13.64973,0 -31.59255,-8.8837 -31.59255,-22.66615 -0.89994,-13.47895 12.00447,-21.89519 26.55426,-22.19492 13.65805,0 27.02048,8.41547 27.02048,22.19492 z"
       class="fil0 str0"
       sodipodi:nodetypes="ssccs" />
  </g>
</svg>
