<?xml version="1.0" encoding="UTF-8" standalone="no"?>
<!-- Created with Inkscape (http://www.inkscape.org/) -->

<svg
   xmlns:dc="http://purl.org/dc/elements/1.1/"
   xmlns:cc="http://creativecommons.org/ns#"
   xmlns:rdf="http://www.w3.org/1999/02/22-rdf-syntax-ns#"
   xmlns:svg="http://www.w3.org/2000/svg"
   xmlns="http://www.w3.org/2000/svg"
   xmlns:sodipodi="http://sodipodi.sourceforge.net/DTD/sodipodi-0.dtd"
   xmlns:inkscape="http://www.inkscape.org/namespaces/inkscape"
   width="256"
   height="256"
   id="svg5274"
   version="1.1"
   inkscape:version="0.48.3.1 r9886"
   sodipodi:docname="applications-interfacedesign.svg">
  <defs
     id="defs5276">
    <inkscape:path-effect
       effect="spiro"
       id="path-effect3834"
       is_visible="true" />
    <inkscape:path-effect
       effect="skeletal"
       id="path-effect3830"
       is_visible="true"
       pattern="M 0,5 C 0,2.24 2.24,0 5,0 7.76,0 10,2.24 10,5 10,7.76 7.76,10 5,10 2.24,10 0,7.76 0,5 z"
       copytype="single_stretched"
       prop_scale="1"
       scale_y_rel="false"
       spacing="0"
       normal_offset="0"
       tang_offset="0"
       prop_units="false"
       vertical_pattern="false"
       fuse_tolerance="0" />
  </defs>
  <sodipodi:namedview
     id="base"
     pagecolor="#ffffff"
     bordercolor="#666666"
     borderopacity="1.0"
     inkscape:pageopacity="0.0"
     inkscape:pageshadow="2"
     inkscape:zoom="1.1840812"
     inkscape:cx="296.2581"
     inkscape:cy="84.818154"
     inkscape:document-units="px"
     inkscape:current-layer="layer1"
     showgrid="false"
     inkscape:window-width="1918"
     inkscape:window-height="1007"
     inkscape:window-x="0"
     inkscape:window-y="25"
     inkscape:window-maximized="1" />
  <metadata
     id="metadata5279">
    <rdf:RDF>
      <cc:Work
         rdf:about="">
        <dc:format>image/svg+xml</dc:format>
        <dc:type
           rdf:resource="http://purl.org/dc/dcmitype/StillImage" />
        <dc:title />
      </cc:Work>
    </rdf:RDF>
  </metadata>
  <g
     inkscape:label="Capa 1"
     inkscape:groupmode="layer"
     id="layer1"
     transform="translate(0,-796.36218)">
    <path
       style="fill:#2ad4ff;fill-opacity:1;fill-rule:evenodd;stroke:#000000;stroke-width:7.03177214;stroke-opacity:1"
       d="m 16.951746,1010.424 c 8.78861,-55.54981 9.33383,-111.84916 1.04665,-168.95145 -3.00783,-20.72523 -6.56137,-34.03097 12.0326,-32.14611 68.00326,6.89352 130.217364,2.20871 193.853914,0.36882 18.68146,-0.54013 25.02672,1.74207 22.25455,22.50014 -9.40889,70.45405 -9.78486,138.02519 -5.70381,177.6836 2.14376,20.8325 4.317,35.1183 -14.36118,34.4747 -62.87153,-2.1661 -125.74307,-12.9927 -188.614614,-2.6973 -12.3877,2.0285 -24.34865,-6.9576 -20.50811,-31.2324 z"
       id="rect7046-0-2-9"
       inkscape:connector-curvature="0"
       sodipodi:nodetypes="sssssssss" />
    <path
       id="path7050-7-1-0-9-3-8-0-1-8-5"
       d="m 98.614724,806.38662 c 19.863196,-3.28932 108.906126,-1.61138 123.815106,5.83585 13.82374,6.90445 19.73235,21.05824 20.1965,38.97691 l 2.13181,82.23506"
       class="fil2"
       inkscape:connector-curvature="0"
       style="fill:none" />
    <path
       id="path7054-6-7-2-3-9-0-3-7-5-4"
       d="m 15.6199,940.01733 c 0,14.47387 -2.569693,31.61794 -1.416912,46.052 3.598809,45.06617 21.226434,61.00617 69.52429,57.89227 9.306754,-0.5993 59.589592,1.3149 70.231362,1.3149"
       class="fil2"
       inkscape:connector-curvature="0"
       style="fill:none" />
    <path
       id="path7050-7-1-0-8-5-2-6-8-5-7"
       d="m 98.614724,806.38662 c 19.863196,-3.28932 108.906126,-1.61138 123.815106,5.83585 13.82374,6.90445 19.73235,21.05824 20.1965,38.97691 l 2.13181,82.23506"
       class="fil2"
       inkscape:connector-curvature="0"
       style="fill:none" />
    <path
       transform="matrix(-0.68917536,-0.72459459,0.71957008,-0.69441983,0,0)"
       style="fill:#ffffff;fill-opacity:1;fill-rule:evenodd;stroke:#000000;stroke-width:5.0000658;stroke-miterlimit:4;stroke-opacity:1"
       d="m -772.33554,-554.5567 c 49.59397,0 89.51981,2.21007 89.51981,4.95531 l 0,3.00327 c 0,1.74968 -37.45221,8.07683 -88.07937,12.55329 -14.21548,2.7662 -132.86291,14.51417 -106.7901,-19.27168 14.90181,-8.17504 55.75569,-1.24019 105.34966,-1.24019 z"
       id="rect11194-1-9-4-1-4-8"
       inkscape:connector-curvature="0"
       sodipodi:nodetypes="sssccs" />
    <path
       style="fill:#ffffff;fill-opacity:1;fill-rule:evenodd;stroke:#000000;stroke-width:5.60119724;stroke-linecap:round;stroke-linejoin:round;stroke-miterlimit:4;stroke-opacity:1;stroke-dasharray:none"
       d="M 68.549204,886.7317 C 47.543323,880.82717 67.782575,855.04655 33.670516,856.02599 91.938788,825.00031 112.25649,887.41124 68.549204,886.7317 z"
       id="path4752-2-4"
       inkscape:connector-curvature="0"
       sodipodi:nodetypes="ccc" />
    <path
       transform="matrix(0.66805966,-0.74410772,0.74658213,0.66529326,0,0)"
       style="fill:#ffffff;fill-opacity:1;fill-rule:evenodd;stroke:#000000;stroke-width:5.00001717;stroke-linecap:round;stroke-linejoin:round;stroke-miterlimit:4;stroke-opacity:1"
       d="m -714.13611,696.0966 175.18068,5.94489 -0.17153,20.64672 -175.86833,9.01635 c -7.64782,-9.00192 -6.58026,-31.33605 0.85918,-35.60796 z"
       id="rect11194-1-9-4-0-3-1"
       inkscape:connector-curvature="0"
       sodipodi:nodetypes="ccccc" />
    <path
       style="fill:#ffffff;fill-opacity:1;fill-rule:evenodd;stroke:#000000;stroke-width:5.97323275;stroke-linecap:round;stroke-linejoin:round;stroke-miterlimit:4;stroke-opacity:1;stroke-dasharray:none"
       d="m 169.47849,863.29454 26.10307,-15.12089 -10.80844,27.81678 -14.97788,-12.38001"
       id="path4791-9-4"
       inkscape:connector-curvature="0"
       sodipodi:nodetypes="cccc" />
    <path
       style="fill:#ffffff;fill-rule:evenodd;stroke:#000000;stroke-width:3.96451712;stroke-linecap:round;stroke-linejoin:round;stroke-miterlimit:4;stroke-opacity:1;stroke-dasharray:none"
       d="m 185.83181,854.55562 4.01944,2.71775 6.67184,-8.70343 z"
       id="path4808-8-0"
       inkscape:connector-curvature="0"
       sodipodi:nodetypes="cccc" />
    <path
       style="fill:none;stroke:#000000;stroke-width:2.81137061;stroke-linecap:butt;stroke-linejoin:miter;stroke-miterlimit:4;stroke-opacity:1;stroke-dasharray:none"
       d="M 85.818691,879.24787 C 81.713549,857.94888 73.740249,852.91855 56.836904,849.24196"
       id="path3832"
       inkscape:connector-curvature="0"
       sodipodi:nodetypes="cc" />
    <path
       style="fill:none;stroke:#000000;stroke-width:2.81137061;stroke-linecap:butt;stroke-linejoin:miter;stroke-miterlimit:4;stroke-opacity:1;stroke-dasharray:none"
       d="M 84.905305,880.40152 C 72.064603,860.53246 61.06262,857.66439 42.526477,854.05806"
       id="path3832-3"
       inkscape:connector-curvature="0"
       sodipodi:nodetypes="cc" />
    <path
       style="fill:none;stroke:#000000;stroke-width:2.81137061;stroke-linecap:butt;stroke-linejoin:miter;stroke-miterlimit:4;stroke-opacity:1;stroke-dasharray:none"
       d="M 85.309104,883.13575 C 75.008337,871.50747 69.50894,865.65441 53.42738,864.1658"
       id="path3832-3-0"
       inkscape:connector-curvature="0"
       sodipodi:nodetypes="cc" />
    <path
       style="fill:none;stroke:#000000;stroke-width:2.81137061;stroke-linecap:butt;stroke-linejoin:miter;stroke-miterlimit:4;stroke-opacity:1;stroke-dasharray:none"
       d="M 83.991698,884.40718 C 69.113324,871.81527 66.872343,873.94902 57.096252,872.69214"
       id="path3832-3-0-3"
       inkscape:connector-curvature="0"
       sodipodi:nodetypes="cc" />
  </g>
</svg>
