<?xml version="1.0" encoding="UTF-8" standalone="no"?>
<!-- Created with Inkscape (http://www.inkscape.org/) -->

<svg
   xmlns:dc="http://purl.org/dc/elements/1.1/"
   xmlns:cc="http://creativecommons.org/ns#"
   xmlns:rdf="http://www.w3.org/1999/02/22-rdf-syntax-ns#"
   xmlns:svg="http://www.w3.org/2000/svg"
   xmlns="http://www.w3.org/2000/svg"
   xmlns:sodipodi="http://sodipodi.sourceforge.net/DTD/sodipodi-0.dtd"
   xmlns:inkscape="http://www.inkscape.org/namespaces/inkscape"
   width="256"
   height="256"
   id="svg4631"
   version="1.1"
   inkscape:version="0.48.3.1 r9886"
   sodipodi:docname="applications-chemistry.svg">
  <defs
     id="defs4633" />
  <sodipodi:namedview
     id="base"
     pagecolor="#ffffff"
     bordercolor="#666666"
     borderopacity="1.0"
     inkscape:pageopacity="0.0"
     inkscape:pageshadow="2"
     inkscape:zoom="1.9728043"
     inkscape:cx="191.57399"
     inkscape:cy="75.505052"
     inkscape:document-units="px"
     inkscape:current-layer="layer1"
     showgrid="false"
     inkscape:window-width="1918"
     inkscape:window-height="1007"
     inkscape:window-x="0"
     inkscape:window-y="25"
     inkscape:window-maximized="1"
     showguides="true"
     inkscape:guide-bbox="true" />
  <metadata
     id="metadata4636">
    <rdf:RDF>
      <cc:Work
         rdf:about="">
        <dc:format>image/svg+xml</dc:format>
        <dc:type
           rdf:resource="http://purl.org/dc/dcmitype/StillImage" />
        <dc:title />
      </cc:Work>
    </rdf:RDF>
  </metadata>
  <g
     inkscape:label="Capa 1"
     inkscape:groupmode="layer"
     id="layer1"
     transform="translate(0,-796.36218)">
    <path
       style="fill:#ffffff;fill-opacity:1;fill-rule:evenodd;stroke:#000000;stroke-width:4.17331409;stroke-linecap:round;stroke-linejoin:round;stroke-miterlimit:4;stroke-opacity:1;stroke-dasharray:none"
       d="m 111.87219,833.43448 c 18.82545,5.58434 36.35212,6.67469 53.02612,4.81465 0.55537,7.39299 -2.65608,13.16968 -8.30513,13.93371 l -9.77019,98.19691 c 0,0 36.90129,38.38102 51.7199,64.39405 2.67276,4.6919 3.66153,5.5958 4.75103,9.8388 2.55031,10.4799 2.14018,15.1272 -6.79398,21.9253 -50.78173,-13.3146 -117.866582,-12.4981 -156.666411,-7.3441 -9.431426,-8.9995 -4.927711,-14.7772 6.503343,-25.9357 15.284297,-14.91984 45.415269,-40.33363 62.166248,-67.15224 l 7.98872,-98.83545 c -5.77001,-1.89595 -6.25335,-6.63806 -4.61965,-13.83593 z"
       id="path9596"
       inkscape:connector-curvature="0"
       sodipodi:nodetypes="ccccscccsccc" />
    <path
       style="fill:#55ddff;fill-opacity:1;fill-rule:evenodd;stroke:#000000;stroke-width:1.64959323;stroke-linecap:butt;stroke-linejoin:miter;stroke-miterlimit:4;stroke-opacity:1;stroke-dasharray:none"
       d="m 146.65013,901.86712 -4.83374,49.48557 c 7.55334,15.3481 51.12025,53.87401 56.46875,75.36991 1.98685,7.9853 2.37596,11.3822 -3.72478,13.2648 -56.24995,-11.8018 -98.544918,-12.3504 -124.67352,-7.2823 -2.556991,-0.1711 -27.836355,3.1948 -29.110642,1.9222 -7.608939,-7.5993 9.329295,-14.7541 20.405049,-27.1876 13.533511,-13.02421 35.149608,-33.9153 51.094383,-58.91254 l 4.04356,-49.66195 c 8.19065,10.01476 17.89067,0.0551 30.33093,3.00197 z"
       id="path9596-8"
       inkscape:connector-curvature="0"
       sodipodi:nodetypes="ccsccsccccc" />
    <path
       sodipodi:type="arc"
       style="fill:#ffffff;fill-opacity:1;fill-rule:evenodd;stroke:#000000;stroke-width:33.49943542;stroke-miterlimit:4;stroke-opacity:1;stroke-dasharray:none"
       id="path9631"
       sodipodi:cx="169.77667"
       sodipodi:cy="6538.5029"
       sodipodi:rx="134.03421"
       sodipodi:ry="134.03421"
       d="m 303.81088,6538.5029 a 134.03421,134.03421 0 1 1 -268.068418,0 134.03421,134.03421 0 1 1 268.068418,0 z"
       transform="matrix(0.04958663,0.00493367,-0.00387823,0.03897879,153.14774,646.81808)" />
    <path
       sodipodi:type="arc"
       style="fill:#ffffff;fill-opacity:1;fill-rule:evenodd;stroke:#000000;stroke-width:33.49943542;stroke-miterlimit:4;stroke-opacity:1;stroke-dasharray:none"
       id="path9631-1"
       sodipodi:cx="169.77667"
       sodipodi:cy="6538.5029"
       sodipodi:rx="134.03421"
       sodipodi:ry="134.03421"
       d="m 303.81088,6538.5029 a 134.03421,134.03421 0 1 1 -268.068418,0 134.03421,134.03421 0 1 1 268.068418,0 z"
       transform="matrix(0.04958663,0.00493367,-0.0043992,0.04421493,145.92822,625.17307)" />
    <path
       sodipodi:type="arc"
       style="fill:#ffffff;fill-opacity:1;fill-rule:evenodd;stroke:#000000;stroke-width:45.26331711;stroke-miterlimit:4;stroke-opacity:1;stroke-dasharray:none"
       id="path9631-1-7"
       sodipodi:cx="169.77667"
       sodipodi:cy="6538.5029"
       sodipodi:rx="134.03421"
       sodipodi:ry="134.03421"
       d="m 303.81088,6538.5029 a 134.03421,134.03421 0 1 1 -268.068418,0 134.03421,134.03421 0 1 1 268.068418,0 z"
       transform="matrix(0.03747948,0.00372905,-0.00273158,0.02745415,146.68925,747.66681)" />
    <path
       sodipodi:type="arc"
       style="fill:#ffffff;fill-opacity:1;fill-rule:evenodd;stroke:#000000;stroke-width:33.49943542;stroke-miterlimit:4;stroke-opacity:1;stroke-dasharray:none"
       id="path9631-4"
       sodipodi:cx="169.77667"
       sodipodi:cy="6538.5029"
       sodipodi:rx="134.03421"
       sodipodi:ry="134.03421"
       d="m 303.81088,6538.5029 a 134.03421,134.03421 0 1 1 -268.068418,0 134.03421,134.03421 0 1 1 268.068418,0 z"
       transform="matrix(0.04812311,0.00493367,-0.00376377,0.03897879,163.00606,573.42382)" />
    <path
       sodipodi:type="arc"
       style="fill:#ffffff;fill-opacity:1;fill-rule:evenodd;stroke:#000000;stroke-width:33.49943542;stroke-miterlimit:4;stroke-opacity:1;stroke-dasharray:none"
       id="path9631-1-72"
       sodipodi:cx="169.77667"
       sodipodi:cy="6538.5029"
       sodipodi:rx="134.03421"
       sodipodi:ry="134.03421"
       d="m 303.81088,6538.5029 a 134.03421,134.03421 0 1 1 -268.068418,0 134.03421,134.03421 0 1 1 268.068418,0 z"
       transform="matrix(0.04958663,0.00493367,-0.0043992,0.04421493,153.94819,552.28571)" />
    <path
       sodipodi:type="arc"
       style="fill:#ffffff;fill-opacity:1;fill-rule:evenodd;stroke:#000000;stroke-width:45.26331711;stroke-miterlimit:4;stroke-opacity:1;stroke-dasharray:none"
       id="path9631-1-7-0"
       sodipodi:cx="169.77667"
       sodipodi:cy="6538.5029"
       sodipodi:rx="134.03421"
       sodipodi:ry="134.03421"
       d="m 303.81088,6538.5029 a 134.03421,134.03421 0 1 1 -268.068418,0 134.03421,134.03421 0 1 1 268.068418,0 z"
       transform="matrix(0.03747948,0.00372905,-0.00273158,0.02745415,154.70922,677.8208)" />
    <path
       sodipodi:type="arc"
       style="fill:#ffffff;fill-opacity:1;fill-rule:evenodd;stroke:#000000;stroke-width:33.49943542;stroke-miterlimit:4;stroke-opacity:1;stroke-dasharray:none"
       id="path9631-4-3"
       sodipodi:cx="169.77667"
       sodipodi:cy="6538.5029"
       sodipodi:rx="134.03421"
       sodipodi:ry="134.03421"
       d="m 303.81088,6538.5029 a 134.03421,134.03421 0 1 1 -268.068418,0 134.03421,134.03421 0 1 1 268.068418,0 z"
       transform="matrix(-0.04359024,-0.00584564,0.0045951,-0.03426518,101.5235,1113.2416)" />
    <path
       sodipodi:type="arc"
       style="fill:#ffffff;fill-opacity:1;fill-rule:evenodd;stroke:#000000;stroke-width:33.49943542;stroke-miterlimit:4;stroke-opacity:1;stroke-dasharray:none"
       id="path9631-1-72-1"
       sodipodi:cx="169.77667"
       sodipodi:cy="6538.5029"
       sodipodi:rx="134.03421"
       sodipodi:ry="134.03421"
       d="m 303.81088,6538.5029 a 134.03421,134.03421 0 1 1 -268.068418,0 134.03421,134.03421 0 1 1 268.068418,0 z"
       transform="matrix(-0.04359024,-0.00584564,0.00521237,-0.03886813,109.26713,1130.017)" />
    <path
       sodipodi:type="arc"
       style="fill:#ffffff;fill-opacity:1;fill-rule:evenodd;stroke:#000000;stroke-width:45.26331711;stroke-miterlimit:4;stroke-opacity:1;stroke-dasharray:none"
       id="path9631-1-7-0-5"
       sodipodi:cx="169.77667"
       sodipodi:cy="6538.5029"
       sodipodi:rx="134.03421"
       sodipodi:ry="134.03421"
       d="m 303.81088,6538.5029 a 134.03421,134.03421 0 1 1 -268.068418,0 134.03421,134.03421 0 1 1 268.068418,0 z"
       transform="matrix(-0.0247308,-0.0033165,0.00242938,-0.01811559,112.87357,981.9325)" />
    <path
       sodipodi:type="arc"
       style="fill:#ffffff;fill-opacity:1;fill-rule:evenodd;stroke:#000000;stroke-width:45.26331711;stroke-miterlimit:4;stroke-opacity:1;stroke-dasharray:none"
       id="path9631-1-7-0-1"
       sodipodi:cx="169.77667"
       sodipodi:cy="6538.5029"
       sodipodi:rx="134.03421"
       sodipodi:ry="134.03421"
       d="m 303.81088,6538.5029 a 134.03421,134.03421 0 1 1 -268.068418,0 134.03421,134.03421 0 1 1 268.068418,0 z"
       transform="matrix(0.03747948,0.00372905,-0.00273158,0.02745415,144.68374,639.33244)" />
    <path
       sodipodi:type="arc"
       style="fill:#ffffff;fill-opacity:1;fill-rule:evenodd;stroke:#000000;stroke-width:45.26331711;stroke-miterlimit:4;stroke-opacity:1;stroke-dasharray:none"
       id="path9631-1-7-0-5-3"
       sodipodi:cx="169.77667"
       sodipodi:cy="6538.5029"
       sodipodi:rx="134.03421"
       sodipodi:ry="134.03421"
       d="m 303.81088,6538.5029 a 134.03421,134.03421 0 1 1 -268.068418,0 134.03421,134.03421 0 1 1 268.068418,0 z"
       transform="matrix(-0.0247308,-0.0033165,0.00242938,-0.01811559,138.33057,934.32007)" />
  </g>
</svg>
