<?xml version="1.0" encoding="UTF-8" standalone="no"?>
<!-- Created with Inkscape (http://www.inkscape.org/) -->

<svg
   xmlns:dc="http://purl.org/dc/elements/1.1/"
   xmlns:cc="http://creativecommons.org/ns#"
   xmlns:rdf="http://www.w3.org/1999/02/22-rdf-syntax-ns#"
   xmlns:svg="http://www.w3.org/2000/svg"
   xmlns="http://www.w3.org/2000/svg"
   xmlns:sodipodi="http://sodipodi.sourceforge.net/DTD/sodipodi-0.dtd"
   xmlns:inkscape="http://www.inkscape.org/namespaces/inkscape"
   width="256"
   height="256"
   id="svg2"
   version="1.1"
   inkscape:version="0.48.3.1 r9886"
   sodipodi:docname="applications-filesharing.svg">
  <defs
     id="defs4">
    <style
       id="style2991"
       type="text/css">
   
    .str3 {stroke:#1F1A17;stroke-width:1.05469}
    .str1 {stroke:#72706F;stroke-width:2.44157}
    .str2 {stroke:#1F1A17;stroke-width:2.76822}
    .str0 {stroke:#72706F;stroke-width:4.15233}
    .fil3 {fill:none}
    .fil1 {fill:#00923F}
    .fil2 {fill:#1F1A17}
    .fil0 {fill:#B8DB7C}
   
  </style>
    <style
       id="style3081"
       type="text/css">
   
    .str1 {stroke:#1F1A17;stroke-width:2.76822}
    .str0 {stroke:#72706F;stroke-width:4.15233}
    .fil1 {fill:none}
    .fil3 {fill:#00923F}
    .fil2 {fill:#1F1A17}
    .fil0 {fill:#B8DB7C}
   
  </style>
    <style
       id="style3135"
       type="text/css">
   
    .str1 {stroke:#1F1A17;stroke-width:2.76822}
    .str0 {stroke:#72706F;stroke-width:4.15233}
    .fil1 {fill:none}
    .fil3 {fill:#00923F}
    .fil2 {fill:#1F1A17}
    .fil0 {fill:#B8DB7C}
   
  </style>
    <style
       id="style3203"
       type="text/css">
   
    .str1 {stroke:#1F1A17;stroke-width:1.38411}
    .str2 {stroke:#1F1A17;stroke-width:2.76822}
    .str0 {stroke:#72706F;stroke-width:4.15233}
    .str4 {stroke:#1F1A17;stroke-width:0.895518}
    .str3 {stroke:#72706F;stroke-width:1.34259}
    .fil2 {fill:none}
    .fil0 {fill:#00923F}
    .fil1 {fill:#1F1A17}
    .fil3 {fill:#B8DB7C}
    .fil5 {fill:#1F1A17;fill-rule:nonzero}
    .fil4 {fill:#72706F;fill-rule:nonzero}
    .fil6 {fill:#B8DB7C;fill-rule:nonzero}
   
  </style>
    <style
       id="style3319"
       type="text/css">
   
    .str1 {stroke:#1F1A17;stroke-width:1.38411}
    .str2 {stroke:#1F1A17;stroke-width:2.76822}
    .str0 {stroke:#72706F;stroke-width:4.15233}
    .str4 {stroke:#1F1A17;stroke-width:0.895518}
    .str3 {stroke:#72706F;stroke-width:1.34259}
    .fil2 {fill:none}
    .fil0 {fill:#00923F}
    .fil1 {fill:#1F1A17}
    .fil3 {fill:#B8DB7C}
    .fil5 {fill:#1F1A17;fill-rule:nonzero}
    .fil4 {fill:#72706F;fill-rule:nonzero}
    .fil6 {fill:#B8DB7C;fill-rule:nonzero}
   
  </style>
    <style
       id="style3435"
       type="text/css">
   
    .str1 {stroke:#1F1A17;stroke-width:2.76822}
    .str0 {stroke:#72706F;stroke-width:4.15233}
    .fil1 {fill:none}
    .fil3 {fill:#00923F}
    .fil2 {fill:#1F1A17}
    .fil0 {fill:#B8DB7C}
   
  </style>
    <style
       id="style3502"
       type="text/css">
   
    .str3 {stroke:#1F1A17;stroke-width:1.05469}
    .str1 {stroke:#72706F;stroke-width:2.44157}
    .str2 {stroke:#1F1A17;stroke-width:2.76822}
    .str0 {stroke:#72706F;stroke-width:4.15233}
    .fil3 {fill:none}
    .fil1 {fill:#00923F}
    .fil2 {fill:#1F1A17}
    .fil0 {fill:#B8DB7C}
   
  </style>
    <style
       id="style3592"
       type="text/css">
   
    .str1 {stroke:#1F1A17;stroke-width:2.76822}
    .str0 {stroke:#72706F;stroke-width:4.15233}
    .fil1 {fill:none}
    .fil3 {fill:#00923F}
    .fil2 {fill:#1F1A17}
    .fil0 {fill:#B8DB7C}
   
  </style>
    <style
       id="style3646"
       type="text/css">
   
    .str1 {stroke:#1F1A17;stroke-width:2.76822}
    .str0 {stroke:#72706F;stroke-width:4.15233}
    .fil1 {fill:none}
    .fil3 {fill:#00923F}
    .fil2 {fill:#1F1A17}
    .fil0 {fill:#B8DB7C}
   
  </style>
    <style
       id="style3714"
       type="text/css">
   
    .str3 {stroke:#1F1A17;stroke-width:1.05469}
    .str1 {stroke:#72706F;stroke-width:2.44157}
    .str2 {stroke:#1F1A17;stroke-width:2.76822}
    .str0 {stroke:#72706F;stroke-width:4.15233}
    .fil3 {fill:none}
    .fil1 {fill:#00923F}
    .fil2 {fill:#1F1A17}
    .fil0 {fill:#B8DB7C}
   
  </style>
    <style
       id="style3804"
       type="text/css">
   
    .str1 {stroke:#1F1A17;stroke-width:2.76822}
    .str0 {stroke:#72706F;stroke-width:4.15233}
    .fil1 {fill:none}
    .fil3 {fill:#00923F}
    .fil2 {fill:#1F1A17}
    .fil0 {fill:#B8DB7C}
   
  </style>
    <style
       id="style3858"
       type="text/css">
   
    .str1 {stroke:#1F1A17;stroke-width:2.76822}
    .str0 {stroke:#72706F;stroke-width:4.15233}
    .fil1 {fill:none}
    .fil3 {fill:#00923F}
    .fil2 {fill:#1F1A17}
    .fil0 {fill:#B8DB7C}
   
  </style>
    <style
       id="style3926"
       type="text/css">
   
    .str2 {stroke:#1F1A17;stroke-width:1.05469}
    .str3 {stroke:#1F1A17;stroke-width:1.38411}
    .str1 {stroke:#1F1A17;stroke-width:2.76822}
    .str0 {stroke:#72706F;stroke-width:4.15233}
    .fil0 {fill:none}
    .fil3 {fill:#00923F}
    .fil1 {fill:#1F1A17}
    .fil2 {fill:#B8DB7C}
   
  </style>
    <style
       id="style3998"
       type="text/css">
   
    .str1 {stroke:#1F1A17;stroke-width:2.76822}
    .str0 {stroke:#72706F;stroke-width:4.15233}
    .fil2 {fill:none}
    .fil3 {fill:#00923F}
    .fil1 {fill:#1F1A17}
    .fil0 {fill:#B8DB7C}
   
  </style>
    <style
       id="style4042"
       type="text/css">
   
    .str1 {stroke:#1F1A17;stroke-width:2.76822}
    .str0 {stroke:#72706F;stroke-width:4.15233}
    .fil2 {fill:none}
    .fil3 {fill:#00923F}
    .fil1 {fill:#1F1A17}
    .fil0 {fill:#B8DB7C}
   
  </style>
    <style
       id="style4086"
       type="text/css">
   
    .str1 {stroke:#1F1A17;stroke-width:2.34375}
    .str0 {stroke:#72706F;stroke-width:3.51563}
    .fil3 {fill:none}
    .fil2 {fill:#1F1A17}
    .fil0 {fill:#00923F;fill-rule:nonzero}
    .fil1 {fill:#B8DB7C;fill-rule:nonzero}
   
  </style>
    <style
       id="style4130"
       type="text/css">
   
    .str1 {stroke:#1F1A17;stroke-width:2.76822}
    .str0 {stroke:#72706F;stroke-width:4.15233}
    .fil2 {fill:none}
    .fil3 {fill:#00923F}
    .fil1 {fill:#1F1A17}
    .fil0 {fill:#B8DB7C}
   
  </style>
    <style
       id="style4181"
       type="text/css">
   
    .str1 {stroke:#1F1A17;stroke-width:2.76822}
    .str0 {stroke:#72706F;stroke-width:4.15233}
    .fil2 {fill:none}
    .fil3 {fill:#00923F}
    .fil1 {fill:#1F1A17}
    .fil0 {fill:#B8DB7C}
   
  </style>
    <style
       id="style4232"
       type="text/css">
   
    .str0 {stroke:#1F1A17;stroke-width:1.84225}
    .str1 {stroke:#72706F;stroke-width:2.76406}
    .fil3 {fill:none}
    .fil4 {fill:#00923F}
    .fil2 {fill:#1F1A17}
    .fil0 {fill:#B8DB7C}
    .fil1 {fill:#72706F;fill-rule:nonzero}
   
  </style>
  </defs>
  <sodipodi:namedview
     id="base"
     pagecolor="#ffffff"
     bordercolor="#666666"
     borderopacity="1.0"
     inkscape:pageopacity="0.0"
     inkscape:pageshadow="2"
     inkscape:zoom="2.358681"
     inkscape:cx="268.48708"
     inkscape:cy="115.96673"
     inkscape:document-units="px"
     inkscape:current-layer="layer1"
     showgrid="false"
     showguides="true"
     inkscape:guide-bbox="true"
     inkscape:window-width="1918"
     inkscape:window-height="1007"
     inkscape:window-x="0"
     inkscape:window-y="25"
     inkscape:window-maximized="1" />
  <metadata
     id="metadata7">
    <rdf:RDF>
      <cc:Work
         rdf:about="">
        <dc:format>image/svg+xml</dc:format>
        <dc:type
           rdf:resource="http://purl.org/dc/dcmitype/StillImage" />
        <dc:title />
      </cc:Work>
    </rdf:RDF>
  </metadata>
  <g
     inkscape:label="Capa 1"
     inkscape:groupmode="layer"
     id="layer1"
     transform="translate(0,-796.36218)">
    <g
       id="g5291"
       transform="matrix(0.61174881,0,0,0.72270234,2536.7104,140.14073)">
      <path
         sodipodi:nodetypes="ccccsssscc"
         inkscape:connector-curvature="0"
         id="_68172392-5-6-3-3-3-0-1-5-62-3"
         d="m -4126.1848,1055.3476 c 59.9684,-11.6055 100.7461,-7.8423 154.2916,-0.42 2.736,0.3793 5.0198,3.1978 5.0508,7.1866 13.7028,44.3594 4.6647,70.1639 0.6736,86.4827 0.031,3.9888 -2.2294,6.6978 -4.9387,7.2134 -113.7397,21.6401 -143.9772,5.7183 -154.2916,-3.4006 -1.992,-1.761 -8.9223,-15.8355 -9.8127,-19.7399 -5.6609,-24.8251 -4.7282,-37.4644 1.7074,-70.1089 0.7738,-3.9252 4.5525,-7.2059 7.3196,-7.2133 z"
         style="fill:#2ad4ff;stroke:#000000;stroke-width:6.45421553;stroke-miterlimit:4;stroke-opacity:1;stroke-dasharray:none" />
      <path
         sodipodi:nodetypes="ccccsssscc"
         inkscape:connector-curvature="0"
         id="_68172392-5-6-3-3-3-0-1-5-62-5-9"
         d="m -4106.0922,1065.6596 c 43.9335,-8.0342 73.8078,-5.429 113.0359,-0.2907 2.0044,0.2624 3.6775,2.2136 3.7003,4.975 10.0388,30.7089 3.4174,48.5725 0.4934,59.8695 0.022,2.7614 -1.6332,4.6368 -3.6181,4.9937 -83.3272,14.9808 -105.4795,3.9587 -113.036,-2.3541 -1.4593,-1.2192 -6.5364,-10.9625 -7.1889,-13.6654 -4.1471,-17.1857 -3.4639,-25.9356 1.2509,-48.5344 0.567,-2.7174 3.3353,-4.9885 5.3625,-4.9936 z"
         style="fill:#ffffff;stroke:#000000;stroke-width:4.59641171;stroke-miterlimit:4;stroke-opacity:1;stroke-dasharray:none" />
      <path
         sodipodi:nodetypes="cscscc"
         inkscape:connector-curvature="0"
         id="path4441-5"
         d="m -4079.5903,1166.3756 c 0,0 -34.3976,1.529 -32.2107,12.8843 0.1971,1.0236 13.7686,0.3942 13.7686,0.3942 0,0 107.0984,2.2308 115.0744,-0.3942 8.3636,-2.7525 -20.937,-16.1054 -20.937,-16.1054 l -75.6953,3.2211"
         style="fill:#2ad4ff;fill-opacity:1;stroke:#000000;stroke-width:3.81278729;stroke-linecap:butt;stroke-linejoin:miter;stroke-miterlimit:4;stroke-opacity:1" />
      <path
         sodipodi:nodetypes="csssc"
         inkscape:connector-curvature="0"
         id="path7090-4-4-1-8-0"
         d="m -3979.5394,1151.1207 c -4.3141,1.2968 -8.2997,-1.1479 -9.7689,-5.2103 -2.1274,-5.8826 1.1227,-8.9971 5.8539,-9.9065 3.9057,-0.7508 7.6028,0.4373 9.7688,5.2102 1.7709,3.9022 -1.5329,8.5992 -5.8392,9.9021"
         style="fill:#ffffff;stroke:#000000;stroke-width:1.53587377;stroke-linecap:round;stroke-linejoin:round;stroke-miterlimit:4;stroke-opacity:1;stroke-dasharray:none;stroke-dashoffset:0" />
    </g>
    <g
       id="g5285"
       transform="matrix(0.61174881,0,0,0.72270234,2549.5987,56.398225)">
      <path
         sodipodi:nodetypes="ccccsssscc"
         inkscape:connector-curvature="0"
         id="_68172392-5-6-3-3-3-0-1-5-62-3-2"
         d="m -3923.8766,1168.6924 c 59.9684,-11.6055 100.746,-7.8424 154.2916,-0.42 2.7359,0.3792 5.0197,3.1978 5.0508,7.1865 13.7027,44.3595 4.6646,70.1639 0.6735,86.4827 0.031,3.9888 -2.2293,6.6979 -4.9386,7.2134 -113.7398,21.6401 -143.9773,5.7183 -154.2917,-3.4006 -1.992,-1.761 -8.9223,-15.8354 -9.8127,-19.7398 -5.6609,-24.8251 -4.7282,-37.4645 1.7074,-70.1089 0.7739,-3.9253 4.5525,-7.206 7.3197,-7.2133 z"
         style="fill:#2ad4ff;stroke:#000000;stroke-width:6.45421553;stroke-miterlimit:4;stroke-opacity:1;stroke-dasharray:none" />
      <path
         sodipodi:nodetypes="ccccsssscc"
         inkscape:connector-curvature="0"
         id="_68172392-5-6-3-3-3-0-1-5-62-5-9-0"
         d="m -3903.7841,1179.0044 c 43.9336,-8.0342 73.8078,-5.4291 113.0359,-0.2908 2.0044,0.2625 3.6775,2.2137 3.7004,4.9751 10.0387,30.7088 3.4173,48.5724 0.4933,59.8694 0.022,2.7615 -1.6332,4.6368 -3.6181,4.9937 -83.3271,14.9809 -105.4794,3.9587 -113.0359,-2.3541 -1.4593,-1.2191 -6.5365,-10.9625 -7.1889,-13.6653 -4.1472,-17.1858 -3.4639,-25.9357 1.2508,-48.5344 0.567,-2.7175 3.3353,-4.9886 5.3625,-4.9936 z"
         style="fill:#ffffff;stroke:#000000;stroke-width:4.59641171;stroke-miterlimit:4;stroke-opacity:1;stroke-dasharray:none" />
      <path
         sodipodi:nodetypes="cscscc"
         inkscape:connector-curvature="0"
         id="path4441-5-4"
         d="m -3877.2822,1279.7203 c 0,0 -34.3975,1.529 -32.2107,12.8844 0.1971,1.0235 13.7686,0.3941 13.7686,0.3941 0,0 107.0985,2.2309 115.0744,-0.3941 8.3636,-2.7526 -20.9369,-16.1054 -20.9369,-16.1054 l -75.6954,3.221"
         style="fill:#2ad4ff;fill-opacity:1;stroke:#000000;stroke-width:3.81278729;stroke-linecap:butt;stroke-linejoin:miter;stroke-miterlimit:4;stroke-opacity:1" />
      <path
         sodipodi:nodetypes="csssc"
         inkscape:connector-curvature="0"
         id="path7090-4-4-1-8-0-0"
         d="m -3777.2313,1264.4655 c -4.3141,1.2967 -8.2996,-1.1479 -9.7688,-5.2103 -2.1275,-5.8827 1.1227,-8.9971 5.8538,-9.9065 3.9057,-0.7508 7.6028,0.4372 9.7688,5.2102 1.7709,3.9022 -1.5329,8.5992 -5.8392,9.9021"
         style="fill:#ffffff;stroke:#000000;stroke-width:1.53587377;stroke-linecap:round;stroke-linejoin:round;stroke-miterlimit:4;stroke-opacity:1;stroke-dasharray:none;stroke-dashoffset:0" />
    </g>
    <path
       style="fill:#2ad4ff;fill-opacity:1;fill-rule:nonzero;stroke:#000000;stroke-width:3.69085622;stroke-linecap:square;stroke-linejoin:round;stroke-miterlimit:4;stroke-opacity:1;stroke-dasharray:none;stroke-dashoffset:0"
       inkscape:transform-center-x="-5.634634"
       inkscape:transform-center-y="2.362521"
       d="m 143.25488,883.53091 c -6.88817,12.53004 -21.21949,7.83701 -24.54911,-0.33404 -1.67974,-4.82782 -9.36875,0.0834 -13.40948,-2.16862 -17.899339,-9.97566 -3.09361,-23.03838 -3.09361,-23.03838 0,0 -13.999933,-5.55346 -7.975003,-18.29894 6.025053,-12.74543 16.943303,-5.14022 16.943303,-5.14022 -0.15471,-9.99145 18.60787,-21.04869 22.47712,-3.697 7.61144,-9.31087 31.75325,-3.60889 20.58504,11.10113 14.27179,0.0594 26.55326,8.78932 5.80917,19.41536 0,0 12.37928,7.77465 1.93704,19.79255 -4.78265,6.31737 -18.24468,0.2477 -18.72447,2.36816 z"
       id="path6003-5-9"
       inkscape:connector-curvature="0"
       sodipodi:nodetypes="ccscscccccc" />
    <path
       style="fill:#2ad4ff;fill-opacity:1;fill-rule:nonzero;stroke:#000000;stroke-width:1.66866338;stroke-linecap:square;stroke-linejoin:round;stroke-miterlimit:4;stroke-opacity:1;stroke-dasharray:none;stroke-dashoffset:0"
       inkscape:transform-center-x="-0.53108204"
       inkscape:transform-center-y="0.80066336"
       d="m 87.216975,877.22861 c -2.034555,2.19188 -5.698869,0.5591 -5.698869,0.5591 0,0 -2.22597,3.53012 -5.147193,2.44804 -2.921345,-1.08209 -2.012287,-5.02841 -2.012287,-5.02841 0,0 -3.372143,-0.55059 -3.143165,-3.41131 0.2291,-2.86072 3.687316,-2.97554 3.687316,-2.97554 -3.789539,-6.89793 8.857817,-5.83303 6.838251,-1.53866 3.946575,-1.65626 8.494866,1.84505 5.232471,5.19695 0,0 2.27803,2.55757 0.243476,4.7495 z"
       id="path6003-2-6-8"
       inkscape:connector-curvature="0"
       sodipodi:nodetypes="scscscccs" />
    <path
       style="fill:#2ad4ff;fill-opacity:1;fill-rule:nonzero;stroke:#000000;stroke-width:1.11244237;stroke-linecap:square;stroke-linejoin:round;stroke-miterlimit:4;stroke-opacity:1;stroke-dasharray:none;stroke-dashoffset:0"
       inkscape:transform-center-x="-0.3814653"
       inkscape:transform-center-y="0.57474405"
       d="m 66.182787,884.01101 c -1.461712,1.57466 -4.094251,0.4014 -4.094251,0.4014 0,0 -1.599112,2.53604 -3.697777,1.75867 -2.098849,-0.77732 -1.445624,-3.61251 -1.445624,-3.61251 0,0 -2.422708,-0.3955 -2.258148,-2.45065 0.164683,-2.05515 2.649117,-2.13759 2.649117,-2.13759 -2.722404,-4.95565 6.363472,-4.19052 4.912527,-1.10545 2.835455,-1.18989 6.102867,1.3255 3.759135,3.7336 0,0 1.63655,1.83732 0.17496,3.41209 z"
       id="path6003-2-7-0-9"
       inkscape:connector-curvature="0"
       sodipodi:nodetypes="scscscccs" />
    <path
       style="fill:#2ad4ff;fill-opacity:1;fill-rule:nonzero;stroke:#000000;stroke-width:1.62394536;stroke-linecap:square;stroke-linejoin:round;stroke-miterlimit:4;stroke-opacity:1;stroke-dasharray:none;stroke-dashoffset:0"
       inkscape:transform-center-x="13.86045"
       inkscape:transform-center-y="-28.33264"
       d="m 182.68802,863.13159 c 2.95432,0.7594 2.83485,4.36863 2.83485,4.36863 0,0 4.33552,0.37603 4.45414,3.16544 0.11862,2.78924 -4.09364,3.64188 -4.09364,3.64188 0,0 0.81809,2.9391 -2.06282,3.90376 -2.88054,0.96494 -4.38183,-1.77669 -4.38183,-1.77669 -5.20219,5.8253 -9.24469,-4.79633 -4.24707,-4.89362 -3.19993,-2.51574 -1.61397,-7.58825 2.96417,-6.30519 0,0 1.57813,-2.8635 4.5322,-2.10421 z"
       id="path6003-2-6-8-9"
       inkscape:connector-curvature="0"
       sodipodi:nodetypes="scscscccs" />
    <path
       style="fill:#2ad4ff;fill-opacity:1;fill-rule:nonzero;stroke:#000000;stroke-width:1.08263028;stroke-linecap:square;stroke-linejoin:round;stroke-miterlimit:4;stroke-opacity:1;stroke-dasharray:none;stroke-dashoffset:0"
       inkscape:transform-center-x="-18.25235"
       inkscape:transform-center-y="-10.881981"
       d="m 201.98362,874.97221 c 2.12234,0.54558 2.03621,3.13863 2.03621,3.13863 0,0 3.11465,0.27017 3.19993,2.27409 0.0853,2.00387 -2.94086,2.61636 -2.94086,2.61636 0,0 0.58765,2.1115 -1.48196,2.80455 -2.06863,0.69532 -3.14812,-1.27645 -3.14812,-1.27645 -3.73717,4.18512 -6.64139,-3.44574 -3.05091,-3.51561 -2.29896,-1.80728 -1.15957,-5.45138 2.12949,-4.52961 0,0 1.13364,-2.05726 3.25591,-1.51179 z"
       id="path6003-2-7-0-9-0"
       inkscape:connector-curvature="0"
       sodipodi:nodetypes="scscscccs" />
  </g>
</svg>
