<?xml version="1.0" encoding="UTF-8" standalone="no"?>
<!-- Created with Inkscape (http://www.inkscape.org/) -->

<svg
   xmlns:dc="http://purl.org/dc/elements/1.1/"
   xmlns:cc="http://creativecommons.org/ns#"
   xmlns:rdf="http://www.w3.org/1999/02/22-rdf-syntax-ns#"
   xmlns:svg="http://www.w3.org/2000/svg"
   xmlns="http://www.w3.org/2000/svg"
   xmlns:sodipodi="http://sodipodi.sourceforge.net/DTD/sodipodi-0.dtd"
   xmlns:inkscape="http://www.inkscape.org/namespaces/inkscape"
   width="256"
   height="256"
   id="svg5274"
   version="1.1"
   inkscape:version="0.48.3.1 r9886"
   sodipodi:docname="applications-profiling.svg">
  <defs
     id="defs5276" />
  <sodipodi:namedview
     id="base"
     pagecolor="#ffffff"
     bordercolor="#666666"
     borderopacity="1.0"
     inkscape:pageopacity="0.0"
     inkscape:pageshadow="2"
     inkscape:zoom="2.3482923"
     inkscape:cx="80.395252"
     inkscape:cy="101.34618"
     inkscape:document-units="px"
     inkscape:current-layer="layer1"
     showgrid="false"
     inkscape:window-width="1918"
     inkscape:window-height="1007"
     inkscape:window-x="0"
     inkscape:window-y="25"
     inkscape:window-maximized="1" />
  <metadata
     id="metadata5279">
    <rdf:RDF>
      <cc:Work
         rdf:about="">
        <dc:format>image/svg+xml</dc:format>
        <dc:type
           rdf:resource="http://purl.org/dc/dcmitype/StillImage" />
        <dc:title />
      </cc:Work>
    </rdf:RDF>
  </metadata>
  <g
     inkscape:label="Capa 1"
     inkscape:groupmode="layer"
     id="layer1"
     transform="translate(0,-796.36218)">
    <path
       id="path7050-7-1-0-9-3-8-0-1"
       d="m 90.230979,816.5321 c 18.811641,-3.11518 103.140641,-1.52606 117.260341,5.52691 13.09193,6.53892 18.68773,19.94342 19.12732,36.91349 l 2.01895,77.88154"
       class="fil2"
       inkscape:connector-curvature="0"
       style="fill:none" />
    <path
       id="path7050-7-1-0-8-5-2-6-8"
       d="m 90.230979,816.5321 c 18.811641,-3.11518 103.140641,-1.52606 117.260341,5.52691 13.09193,6.53892 18.68773,19.94342 19.12732,36.91349 l 2.01895,77.88154"
       class="fil2"
       inkscape:connector-curvature="0"
       style="fill:none" />
    <path
       style="fill:#2ad4ff;fill-opacity:1;fill-rule:evenodd;stroke:#000000;stroke-width:7.03177214;stroke-opacity:1"
       d="m 17.03333,1010.5685 c 8.788607,-55.54975 9.333827,-111.84915 1.04665,-168.95144 -3.00783,-20.72523 -6.56137,-34.03097 12.032597,-32.14611 68.003263,6.89352 130.217373,2.20871 193.853923,0.36882 18.68146,-0.54013 25.02672,1.74207 22.25455,22.50014 -9.40889,70.45405 -9.78486,138.02524 -5.70381,177.68359 2.14376,20.8325 4.317,35.1183 -14.36118,34.4747 -62.87153,-2.1661 -125.74307,-12.9927 -188.614623,-2.6973 -12.3877,2.0285 -24.348647,-6.9576 -20.508107,-31.2324 z"
       id="rect7046-0-2-9"
       inkscape:connector-curvature="0"
       sodipodi:nodetypes="sssssssss" />
    <path
       id="path7054-6-7-2-3-9-0-3-7"
       d="m 11.629872,943.08844 c 0,13.70763 -2.433643,29.94408 -1.341905,43.61401 3.408303,42.68025 20.102721,57.77645 65.8437,54.82745 8.814058,-0.5676 56.434933,1.2453 66.513313,1.2453"
       class="fil2"
       inkscape:connector-curvature="0"
       style="fill:none" />
    <path
       style="fill:#ffffff;fill-opacity:1;fill-rule:evenodd;stroke:#000000;stroke-width:5.59698772;stroke-miterlimit:4;stroke-opacity:1;stroke-dasharray:none;display:inline"
       d="m 147.65129,853.33265 c 20.64545,5.0086 42.65497,23.32384 43.23683,53.11795 1.07221,19.20698 -18.18221,48.0976 -30.99582,61.96566 -2.36273,15.58058 0.52571,19.56434 0.52571,19.56434 l 17.19007,51.1936 c -31.2615,-4.0361 -61.6081,-4.4123 -91.569339,-3.2471 0,0 23.853739,-40.01423 18.042199,-52.68333 -8.791487,-4.8876 -19.316773,5.89753 -30.133877,-1.85156 -10.793484,-13.08234 1.591729,-23.14674 -1.860272,-23.58683 -6.11597,-3.02079 2.991476,-10.36848 0.493213,-18.50439 -1.435428,-4.67753 -9.793012,2.90319 -13.111995,-5.57835 2.031683,-11.65615 16.504865,-22.42901 16.478403,-24.99512 0,-2.56342 -3.780065,-10.51604 -4.72795,-15.4511 2.330052,-38.29324 41.562298,-46.66821 76.432828,-39.94377 z"
       id="rect4632"
       inkscape:connector-curvature="0"
       sodipodi:nodetypes="cccccccccscccc" />
  </g>
</svg>
