<?xml version="1.0" encoding="UTF-8" standalone="no"?>
<!-- Creator: CorelDRAW -->

<svg
   xmlns:dc="http://purl.org/dc/elements/1.1/"
   xmlns:cc="http://creativecommons.org/ns#"
   xmlns:rdf="http://www.w3.org/1999/02/22-rdf-syntax-ns#"
   xmlns:svg="http://www.w3.org/2000/svg"
   xmlns="http://www.w3.org/2000/svg"
   xmlns:sodipodi="http://sodipodi.sourceforge.net/DTD/sodipodi-0.dtd"
   xmlns:inkscape="http://www.inkscape.org/namespaces/inkscape"
   xml:space="preserve"
   width="300px"
   height="300px"
   style="shape-rendering:geometricPrecision; text-rendering:geometricPrecision; image-rendering:optimizeQuality; fill-rule:evenodd; clip-rule:evenodd"
   viewBox="0 0 300 300"
   id="svg1003"
   version="1.1"
   inkscape:version="0.48.3.1 r9886"
   sodipodi:docname="applications-mail.svg"><metadata
   id="metadata1028"><rdf:RDF><cc:Work
       rdf:about=""><dc:format>image/svg+xml</dc:format><dc:type
         rdf:resource="http://purl.org/dc/dcmitype/StillImage" /></cc:Work></rdf:RDF></metadata><sodipodi:namedview
   pagecolor="#ffffff"
   bordercolor="#666666"
   borderopacity="1"
   objecttolerance="10"
   gridtolerance="10"
   guidetolerance="10"
   inkscape:pageopacity="0"
   inkscape:pageshadow="2"
   inkscape:window-width="1918"
   inkscape:window-height="1007"
   id="namedview1026"
   showgrid="false"
   inkscape:zoom="2.5351562"
   inkscape:cx="150"
   inkscape:cy="150"
   inkscape:window-x="0"
   inkscape:window-y="25"
   inkscape:window-maximized="1"
   inkscape:current-layer="svg1003" />
 <defs
   id="defs1005"><style
     type="text/css"
     id="style1007">
   
    .str1 {stroke:#1F1A17;stroke-width:2.76822}
    .str0 {stroke:#72706F;stroke-width:4.15233}
    .fil2 {fill:none}
    .fil3 {fill:#00923F}
    .fil1 {fill:#1F1A17}
    .fil0 {fill:#B8DB7C}
   
  </style></defs>
 
<path
   style="fill:#2ad4ff;stroke:#000000;stroke-width:10.23433113;stroke-miterlimit:4;stroke-opacity:1;stroke-dasharray:none"
   d="M 28.878751,73.789572 C 123.3493,56.527529 187.58785,62.124992 271.94013,73.164869 c 4.31009,0.564116 7.90776,4.756405 7.95668,10.689247 21.58636,65.979914 7.34835,104.361334 1.0611,128.633894 0.0491,5.93295 -3.51202,9.96241 -7.78004,10.72916 C 93.999393,255.40456 46.365027,231.72241 30.116389,218.15916 26.97844,215.53979 16.060865,194.60556 14.65825,188.7982 5.7403598,151.87342 7.2096004,133.07377 17.347934,84.518631 18.566945,78.680252 24.519744,73.800523 28.878751,73.789572 z"
   id="_68172392-5-6-3-3-3-0"
   inkscape:connector-curvature="0"
   sodipodi:nodetypes="ccccsssscc" /><path
   style="fill:#ffffff;fill-opacity:0;stroke:#070000;stroke-width:8.55314064;stroke-linecap:round;stroke-linejoin:round;stroke-miterlimit:4;stroke-opacity:1;stroke-dasharray:none"
   d="m 23.68012,75.212451 c 8.80306,-2.328515 33.275701,27.092739 124.77819,86.162039 50.7629,-10.97358 91.18247,-44.33412 126.99424,-87.667918"
   id="path7110-3-1"
   inkscape:connector-curvature="0"
   sodipodi:nodetypes="ccc" /><path
   style="fill:#d72e82;fill-opacity:1;stroke:#080505;stroke-width:5.13188457;stroke-linecap:round;stroke-linejoin:miter;stroke-miterlimit:4;stroke-opacity:1"
   d="M 114.87517,139.69273 29.507036,220.32945"
   id="path7118-7-4"
   inkscape:connector-curvature="0"
   sodipodi:nodetypes="cc" /><path
   style="font-size:medium;font-style:normal;font-variant:normal;font-weight:normal;font-stretch:normal;text-indent:0;text-align:start;text-decoration:none;line-height:normal;letter-spacing:normal;word-spacing:normal;text-transform:none;direction:ltr;block-progression:tb;writing-mode:lr-tb;text-anchor:start;baseline-shift:baseline;color:#000000;fill:#080505;fill-opacity:1;fill-rule:nonzero;stroke:none;stroke-width:6;marker:none;visibility:visible;display:inline;overflow:visible;enable-background:accumulate;font-family:Sans;-inkscape-font-specification:Sans"
   d="m 194.25951,145.51985 c -1.10152,0.0102 -8.12637,-12.70019 -0.78549,-0.23867 -0.0317,5.23916 14.84889,17.0626 31.88363,30.47878 l 50.75932,42.03005 c 1.02384,0.94668 2.98156,0.95271 4.01308,0.0123 1.03162,-0.94043 0.92365,-2.63268 -0.22126,-3.46913 L 229.17833,172.328 198.11693,146.21631 c -0.51868,-0.44754 -3.12526,-0.70443 -3.85742,-0.69644 z"
   id="path7118-4-6-2"
   inkscape:connector-curvature="0"
   sodipodi:nodetypes="ccccsccccc" /></svg>