<?xml version="1.0" encoding="UTF-8" standalone="no"?>
<!-- Created with Inkscape (http://www.inkscape.org/) -->

<svg
   xmlns:dc="http://purl.org/dc/elements/1.1/"
   xmlns:cc="http://creativecommons.org/ns#"
   xmlns:rdf="http://www.w3.org/1999/02/22-rdf-syntax-ns#"
   xmlns:svg="http://www.w3.org/2000/svg"
   xmlns="http://www.w3.org/2000/svg"
   xmlns:sodipodi="http://sodipodi.sourceforge.net/DTD/sodipodi-0.dtd"
   xmlns:inkscape="http://www.inkscape.org/namespaces/inkscape"
   width="256"
   height="256"
   id="svg5274"
   version="1.1"
   inkscape:version="0.48.3.1 r9886"
   sodipodi:docname="applications-haskell.svg">
  <defs
     id="defs5276" />
  <sodipodi:namedview
     id="base"
     pagecolor="#ffffff"
     bordercolor="#666666"
     borderopacity="1.0"
     inkscape:pageopacity="0.0"
     inkscape:pageshadow="2"
     inkscape:zoom="1.7177843"
     inkscape:cx="28.982033"
     inkscape:cy="104.48872"
     inkscape:document-units="px"
     inkscape:current-layer="layer1"
     showgrid="false"
     inkscape:window-width="1918"
     inkscape:window-height="1007"
     inkscape:window-x="0"
     inkscape:window-y="25"
     inkscape:window-maximized="1" />
  <metadata
     id="metadata5279">
    <rdf:RDF>
      <cc:Work
         rdf:about="">
        <dc:format>image/svg+xml</dc:format>
        <dc:type
           rdf:resource="http://purl.org/dc/dcmitype/StillImage" />
        <dc:title />
      </cc:Work>
    </rdf:RDF>
  </metadata>
  <g
     inkscape:label="Capa 1"
     inkscape:groupmode="layer"
     id="layer1"
     transform="translate(0,-796.36218)">
    <path
       style="fill:#2ad4ff;fill-opacity:1;fill-rule:evenodd;stroke:#000000;stroke-width:7.03177261;stroke-opacity:1"
       d="m -1007.9386,10.989089 c 55.50608,9.027679 111.80206,9.81527 168.9444,1.773988 20.73977,-2.9185781 34.06282,-6.4148017 32.08658,12.170882 -7.22769,67.972967 -2.84873,130.206671 -1.32166,193.850571 0.4483,18.68361 -1.86506,25.01899 -22.60926,22.15748 -70.40696,-9.71211 -137.97553,-10.37898 -177.65356,-6.4687 -20.8427,2.05406 -35.1391,4.16578 -34.4037,-14.50946 2.4752,-62.86164 13.6107,-125.686 3.6244,-188.60129 -1.9676,-12.396327 7.0772,-24.3184818 31.3328,-20.373471 z"
       id="rect7046-0-2-9"
       transform="matrix(-0.00430507,-0.99999073,0.99998792,-0.00491528,0,0)"
       inkscape:connector-curvature="0"
       sodipodi:nodetypes="sssssssss" />
    <path
       style="font-size:medium;font-style:normal;font-variant:normal;font-weight:normal;font-stretch:normal;text-indent:0;text-align:start;text-decoration:none;line-height:normal;letter-spacing:normal;word-spacing:normal;text-transform:none;direction:ltr;block-progression:tb;writing-mode:lr-tb;text-anchor:start;baseline-shift:baseline;color:#000000;fill:#ffffff;fill-opacity:1;fill-rule:evenodd;stroke:#000000;stroke-width:4.88659811;stroke-miterlimit:4;stroke-opacity:1;stroke-dasharray:none;marker:none;visibility:visible;display:inline;overflow:visible;enable-background:accumulate;font-family:Sans;-inkscape-font-specification:Sans"
       d="m 76.692507,823.21204 c -6.700178,-0.0109 -11.172881,1.0384 -11.172881,1.0384 l 3.197975,15.98871 c 15.685908,-3.2628 20.346208,1.19129 25.856759,11.30497 2.367394,3.6801 5.385683,9.12058 8.69929,15.62185 4.29059,8.41842 9.12116,18.65047 14.17113,29.63005 -14.44881,42.07135 -32.186825,79.75709 -51.273608,115.64448 l 19.29685,8.5515 c 13.318666,-32.82675 17.892118,-65.6535 43.663868,-98.48025 6.95379,15.39473 13.90808,30.78524 20.23866,43.90803 7.32974,15.19455 12.95405,26.68962 19.47,34.07392 9.90579,11.2262 19.99368,16.5936 27.94515,18.7269 7.9518,2.1333 14.82268,0.8144 14.82268,0.8144 l -4.74391,-20.56438 c 0,0 -0.66685,0.42578 -4.60676,-0.63119 -3.93973,-1.05697 -10.09457,-3.81171 -17.59175,-12.3082 C 132.72273,948.23042 133.87623,823.75163 76.692507,823.21204 z"
       id="path4552"
       inkscape:connector-curvature="0"
       sodipodi:nodetypes="ccccccccccccccccc" />
  </g>
</svg>
