<?xml version="1.0" encoding="UTF-8" standalone="no"?>
<!-- Created with Inkscape (http://www.inkscape.org/) -->

<svg
   xmlns:dc="http://purl.org/dc/elements/1.1/"
   xmlns:cc="http://creativecommons.org/ns#"
   xmlns:rdf="http://www.w3.org/1999/02/22-rdf-syntax-ns#"
   xmlns:svg="http://www.w3.org/2000/svg"
   xmlns="http://www.w3.org/2000/svg"
   xmlns:sodipodi="http://sodipodi.sourceforge.net/DTD/sodipodi-0.dtd"
   xmlns:inkscape="http://www.inkscape.org/namespaces/inkscape"
   width="256"
   height="256"
   id="svg2"
   version="1.1"
   inkscape:version="0.48.3.1 r9886"
   sodipodi:docname="applications-simulation.svg">
  <defs
     id="defs4">
    <inkscape:path-effect
       effect="spiro"
       id="path-effect3029"
       is_visible="true" />
  </defs>
  <sodipodi:namedview
     id="base"
     pagecolor="#ffffff"
     bordercolor="#666666"
     borderopacity="1.0"
     inkscape:pageopacity="0.0"
     inkscape:pageshadow="2"
     inkscape:zoom="2.3237463"
     inkscape:cx="78.257107"
     inkscape:cy="111.48814"
     inkscape:document-units="px"
     inkscape:current-layer="layer1"
     showgrid="false"
     inkscape:window-width="1918"
     inkscape:window-height="1007"
     inkscape:window-x="0"
     inkscape:window-y="25"
     inkscape:window-maximized="1"
     showguides="true"
     inkscape:guide-bbox="true" />
  <metadata
     id="metadata7">
    <rdf:RDF>
      <cc:Work
         rdf:about="">
        <dc:format>image/svg+xml</dc:format>
        <dc:type
           rdf:resource="http://purl.org/dc/dcmitype/StillImage" />
        <dc:title />
      </cc:Work>
    </rdf:RDF>
  </metadata>
  <g
     inkscape:label="Capa 1"
     inkscape:groupmode="layer"
     id="layer1"
     transform="translate(0,-796.36218)">
    <path
       style="fill:#ffffff;stroke:#000000;stroke-width:2.83999990999999996;stroke-linecap:round;stroke-linejoin:round;stroke-miterlimit:4;stroke-opacity:1;stroke-dasharray:none"
       d="m 55.058019,972.00363 -40.263086,13.6344 24.967824,-1.83424 -23.454623,21.09371 23.454623,-8.25409 -10.592409,18.34219 15.888614,-15.59088 -0.7566,17.42528 9.835809,-14.6739 -1.513203,19.2595 14.510411,-28.5224 -12.07736,-20.87957"
       id="path3027"
       inkscape:path-effect="#path-effect3029"
       inkscape:original-d="m 55.058019,972.00363 -40.263086,13.6344 24.967824,-1.83424 -23.454623,21.09371 23.454623,-8.25409 -10.592409,18.34219 15.888614,-15.59088 -0.7566,17.42528 9.835809,-14.6739 -1.513203,19.2595 14.510411,-28.5224 z"
       inkscape:connector-curvature="0"
       sodipodi:nodetypes="cccccccccccc" />
    <path
       style="fill:#ffffff;fill-opacity:1;fill-rule:evenodd;stroke:#000000;stroke-width:3.29846191;stroke-linecap:round;stroke-linejoin:round;stroke-miterlimit:4;stroke-opacity:1"
       d="m 53.230881,903.09475 18.07904,3.8859 13.411161,2.88259 c 3.69221,0.79361 11.53677,1.25177 9.0095,4.50653 l -25.078138,32.297 c -2.527276,3.25475 -7.787591,6.22926 -8.930199,2.62973 l -3.967216,-27.90558 -36.529742,15.84891 c 0,0 -6.678038,-5.07555 -3.473175,-7.66582 L 42.54465,907.91952 c 3.204862,-2.59026 6.994027,-5.61837 10.686231,-4.82477 z"
       id="rect845"
       inkscape:connector-curvature="0"
       sodipodi:nodetypes="scssssccsss" />
    <path
       style="fill:#ffffff;fill-opacity:1;fill-rule:evenodd;stroke:#000000;stroke-width:3.29846191;stroke-linecap:round;stroke-linejoin:round;stroke-miterlimit:4;stroke-opacity:1"
       d="m 148.3747,1005.2848 -1.4316,-18.43645 -1.06199,-13.67629 c -0.29238,-3.76519 0.30334,-11.60051 -3.26036,-9.53152 l -35.36246,20.5306 c -3.56368,2.06898 -7.21537,6.88394 -3.80111,8.49793 l 27.1237,7.66583 -20.59478,34.0804 c 0,0 4.13625,7.2971 7.13208,4.4678 l 25.04512,-23.6538 c 2.99584,-2.8295 6.50378,-6.1793 6.2114,-9.9445 z"
       id="rect845-0"
       inkscape:connector-curvature="0"
       sodipodi:nodetypes="scssssccsss" />
    <path
       style="fill:#2ad4ff;fill-opacity:1;fill-rule:evenodd;stroke:#000000;stroke-width:5;stroke-linecap:round;stroke-linejoin:round;stroke-miterlimit:4;stroke-opacity:1;stroke-dasharray:none"
       d="m 170.07015,818.99853 c 6.81347,-5.34758 76.75432,-3.03086 76.75432,-3.03086 0.84355,2.44948 1.09707,58.76885 -4.21766,67.611 C 200.25954,968.68204 85.97031,1012.748 58.885002,984.17492 31.319122,952.4815 110.43322,839.09612 170.07015,818.99853 z"
       id="path12086-0"
       inkscape:connector-curvature="0"
       sodipodi:nodetypes="ccccc" />
    <path
       style="fill:#ffffff;fill-opacity:1;fill-rule:evenodd;stroke:#000000;stroke-width:5;stroke-linecap:round;stroke-linejoin:round;stroke-miterlimit:4;stroke-opacity:1"
       inkscape:transform-center-x="1990.3441"
       inkscape:transform-center-y="-452.52546"
       d="m 165.73524,833.17293 c 17.45561,21.87234 33.70573,36.15562 58.75355,47.23156 12.11837,4.57191 -1.95171,23.14857 -12.9051,15.78 -17.98354,-22.08218 -36.28263,-33.76002 -59.4498,-49.29923 -1.38172,-9.8005 8.29591,-17.33753 13.60135,-13.71233 z"
       id="rect5187-5"
       inkscape:connector-curvature="0"
       sodipodi:nodetypes="ccccc" />
    <path
       transform="translate(0,796.36218)"
       style="fill:#ffffff;fill-opacity:1;fill-rule:nonzero;stroke:#000000;stroke-width:3.5999999;stroke-linecap:round;stroke-linejoin:round;stroke-miterlimit:4;stroke-opacity:1;stroke-dasharray:none;stroke-dashoffset:0"
       d="m 130.53714,182.96136 c 15.50035,-1.08429 -24.21967,13.18552 -44.253521,13.6514 -30.135327,0.70079 -32.469086,-15.95232 -32.060488,-33.734 0.328529,-14.29714 14.574524,-48.16797 13.221059,-31.19985 -2.717653,34.07069 4.020458,55.41471 63.09295,51.28245 z"
       id="path3024"
       inkscape:connector-curvature="0"
       sodipodi:nodetypes="sssss" />
  </g>
</svg>
