<?xml version="1.0" encoding="UTF-8" standalone="no"?>
<!-- Created with Inkscape (http://www.inkscape.org/) -->

<svg
   xmlns:dc="http://purl.org/dc/elements/1.1/"
   xmlns:cc="http://creativecommons.org/ns#"
   xmlns:rdf="http://www.w3.org/1999/02/22-rdf-syntax-ns#"
   xmlns:svg="http://www.w3.org/2000/svg"
   xmlns="http://www.w3.org/2000/svg"
   xmlns:sodipodi="http://sodipodi.sourceforge.net/DTD/sodipodi-0.dtd"
   xmlns:inkscape="http://www.inkscape.org/namespaces/inkscape"
   width="256"
   height="256"
   id="svg4631"
   version="1.1"
   inkscape:version="0.48.3.1 r9886"
   sodipodi:docname="applications-mathematics.svg">
  <defs
     id="defs4633" />
  <sodipodi:namedview
     id="base"
     pagecolor="#ffffff"
     bordercolor="#666666"
     borderopacity="1.0"
     inkscape:pageopacity="0.0"
     inkscape:pageshadow="2"
     inkscape:zoom="1.5782304"
     inkscape:cx="92.226057"
     inkscape:cy="25.746092"
     inkscape:document-units="px"
     inkscape:current-layer="layer1"
     showgrid="false"
     inkscape:window-width="1918"
     inkscape:window-height="1007"
     inkscape:window-x="0"
     inkscape:window-y="25"
     inkscape:window-maximized="1"
     showguides="true"
     inkscape:guide-bbox="true" />
  <metadata
     id="metadata4636">
    <rdf:RDF>
      <cc:Work
         rdf:about="">
        <dc:format>image/svg+xml</dc:format>
        <dc:type
           rdf:resource="http://purl.org/dc/dcmitype/StillImage" />
        <dc:title />
      </cc:Work>
    </rdf:RDF>
  </metadata>
  <g
     inkscape:label="Capa 1"
     inkscape:groupmode="layer"
     id="layer1"
     transform="translate(0,-796.36218)">
    <path
       transform="matrix(2.0392752,-0.03185219,0.03185219,2.0392752,128.8806,927.03515)"
       style="fill:#2ad4ff;fill-opacity:1;fill-rule:nonzero;stroke:#000000;stroke-width:4.90310478;stroke-linecap:round;stroke-linejoin:round;stroke-miterlimit:4;stroke-opacity:1"
       d="m 57.894501,0 c 0,31.97425 -17.77101,53.361153 -49.7452604,53.361153 C -23.825009,53.361153 -57.894501,31.97425 -57.894501,0 c 0,-31.97425 19.678476,-56.12774 51.6527264,-56.12774 31.9742496,0 64.1362756,24.15349 64.1362756,56.12774 z"
       id="_67621792-4-0-3-9"
       inkscape:connector-curvature="0"
       sodipodi:nodetypes="sssss" />
    <path
       inkscape:connector-curvature="0"
       id="rect11194-1-5-0-2-7"
       d="m 135.80582,863.08932 -24.77482,0.865 6.00039,63.49074 -58.840049,3.41064 0.145396,17.7966 59.275753,0.39451 -0.86403,64.26749 25.40077,1.6697 -5.45809,-67.05531 64.08005,1.67768 -3.30983,-24.13689 -61.35166,2.117 z"
       style="fill:#ffffff;fill-opacity:1;fill-rule:evenodd;stroke:#000000;stroke-width:6;stroke-linecap:round;stroke-linejoin:round;stroke-miterlimit:4;stroke-opacity:1;stroke-dasharray:none"
       sodipodi:nodetypes="ccccccccccccc" />
    <path
       inkscape:connector-curvature="0"
       id="rect11194-1-5-0-2-74"
       d="m 50.650443,853.28633 -11.061379,5.2157 23.362858,21.22405 -19.887268,18.82691 6.869538,7.49123 20.2514,-19.17409 24.683585,25.06336 3.455449,-11.54926 -20.753258,-20.50359 21.027145,-19.90801 c -1.599502,-5.60458 -2.110105,-16.1092 -6.869601,-7.4938 L 70.335096,872.7341 z"
       style="fill:#ffffff;fill-opacity:1;fill-rule:evenodd;stroke:#000000;stroke-width:6;stroke-linecap:round;stroke-linejoin:round;stroke-miterlimit:4;stroke-opacity:1;stroke-dasharray:none"
       sodipodi:nodetypes="ccccccccccccc" />
    <path
       transform="matrix(-0.99999916,-0.00129769,0.0017575,-0.99999846,0,0)"
       style="fill:#ffffff;fill-opacity:1;fill-rule:evenodd;stroke:#000000;stroke-width:6.00000048;stroke-linecap:round;stroke-linejoin:round;stroke-miterlimit:4;stroke-opacity:1"
       d="m -221.03831,-989.47357 55.43315,-5.70259 3.17033,13.13338 -58.60348,4.43946 z"
       id="rect11194-1-5-0-6"
       inkscape:connector-curvature="0"
       sodipodi:nodetypes="ccccc" />
  </g>
</svg>
