<?xml version="1.0" encoding="UTF-8" standalone="no"?>
<!-- Created with Inkscape (http://www.inkscape.org/) -->

<svg
   xmlns:dc="http://purl.org/dc/elements/1.1/"
   xmlns:cc="http://creativecommons.org/ns#"
   xmlns:rdf="http://www.w3.org/1999/02/22-rdf-syntax-ns#"
   xmlns:svg="http://www.w3.org/2000/svg"
   xmlns="http://www.w3.org/2000/svg"
   xmlns:sodipodi="http://sodipodi.sourceforge.net/DTD/sodipodi-0.dtd"
   xmlns:inkscape="http://www.inkscape.org/namespaces/inkscape"
   width="256"
   height="256"
   id="svg8370"
   version="1.1"
   inkscape:version="0.48.3.1 r9886"
   sodipodi:docname="applications-webbrowsers.svg">
  <defs
     id="defs8372" />
  <sodipodi:namedview
     id="base"
     pagecolor="#ffffff"
     bordercolor="#666666"
     borderopacity="1.0"
     inkscape:pageopacity="0.0"
     inkscape:pageshadow="2"
     inkscape:zoom="1.8927244"
     inkscape:cx="209.69819"
     inkscape:cy="86.417906"
     inkscape:document-units="px"
     inkscape:current-layer="layer1"
     showgrid="false"
     inkscape:window-width="1918"
     inkscape:window-height="1007"
     inkscape:window-x="0"
     inkscape:window-y="25"
     inkscape:window-maximized="1" />
  <metadata
     id="metadata8375">
    <rdf:RDF>
      <cc:Work
         rdf:about="">
        <dc:format>image/svg+xml</dc:format>
        <dc:type
           rdf:resource="http://purl.org/dc/dcmitype/StillImage" />
        <dc:title />
      </cc:Work>
    </rdf:RDF>
  </metadata>
  <g
     inkscape:label="Capa 1"
     inkscape:groupmode="layer"
     id="layer1"
     transform="translate(0,-796.36218)">
    <path
       style="fill:#2ad4ff;fill-opacity:1;stroke:#000000;stroke-width:8.18264198;stroke-linecap:round;stroke-linejoin:round;stroke-miterlimit:4;stroke-opacity:1;stroke-dasharray:none;stroke-dashoffset:0"
       d="m 244.41092,919.79865 c 5.3675,65.20421 -40.26371,126.06555 -111.17144,125.43675 -63.116488,-0.56 -114.832198,-43.3566 -122.282358,-117.1832 -4.1618804,-41.24109 4.00539,-99.91463 87.85473,-118.94358 68.552778,-15.55751 140.089028,45.36166 145.580688,110.47109"
       id="path7090-4-4-1-7"
       inkscape:connector-curvature="0"
       sodipodi:nodetypes="csssc" />
    <path
       inkscape:connector-curvature="0"
       id="_67742368-3-1-5"
       class="fil1 str1"
       d="m 32.918712,862.5744 -1.83726,0.0828 c 0.63468,2.37787 3.68876,3.82848 5.72141,4.90416 0,4.01973 0.96293,6.04238 4.90275,6.13078 0,-5.94397 -7.66,-13.31875 -7.76416,-17.98196 2.73027,1.82887 1.65035,2.11408 2.90566,4.86001 0.35816,0.78461 2.71896,3.17532 3.64753,4.54328 l -0.42231,2.03982 c 1.91,0.15832 8.21506,9.07666 8.27629,9.41319 l -0.51203,4.07248 c 2.18682,3.26523 6.50036,4.26241 10.21629,6.12947 2.48345,1.24824 2.74441,1.67894 6.53895,1.63478 2.96547,-0.0344 5.496,0.16842 5.71999,2.8601 0.4308,0.0364 6.2408,2.31655 7.0924,2.71592 2.66035,1.24815 1.65893,3.38213 4.75857,5.45762 l 0,2.04406 c 1.24107,0.83028 7.56452,4.49489 8.99108,4.49489 l 1.22673,0 -0.33098,-0.38655 2.42647,-2.07266 0.35512,0.41504 c 0.67186,2.51336 1.63479,4.25514 1.63479,7.76567 l 0,0.40797 c 0,1.45788 -2.37939,2.09549 -2.45213,5.31212 -1.74734,0.92575 -3.017,2.75876 -3.53468,5.04823 -0.16559,0.7346 -0.96,7.5916 -0.96,7.62019 0,1.09407 0.59052,1.20955 1.22662,1.63469 -0.22954,0.32946 -0.81735,1.00991 -0.81735,1.22672 0,1.33947 1.94142,1.99709 2.84727,2.87293 0.95858,0.92575 1.37938,2.25946 1.89858,3.82282 0.92009,2.77887 2.90849,4.82859 4.12814,7.31346 1.04982,2.13833 -0.11699,2.23814 1.770268,3.95133 1.0285,0.93434 2.02275,1.67328 3.18249,2.53902 1.38362,1.03426 5.2806,4.48347 6.8384,4.82859 l 0.17539,12.26753 c 0.2155,0.30956 0.83311,1.03133 0.43363,1.19823 l -0.43363,10.24488 c -0.0606,0.82583 -0.81724,0.28521 -0.81724,1.63459 0,2.23107 0.81724,2.2638 0.81724,4.49488 l 0,2.45193 c 0,1.41939 -0.81724,0.62346 -0.81724,2.04427 l 0,0.40786 c 0,1.24541 0.18681,1.49496 0.40938,2.45213 -0.52071,0.77734 -1.33664,1.51921 -1.13983,2.85292 l 0.32239,7.36331 0,0.4094 c 0,1.8558 0.87301,2.1312 1.53921,3.2722 l 0.48778,8.0823 -2.84434,0.4964 0,1.2254 c 0,0.1497 2.50912,3.5618 2.8401,4.074 l -1.61469,2.8728 c 0.91575,3.93 4.43619,10.9325 8.99088,11.0338 l 0,-1.2254 0.71045,0.057 0.92434,1.9857 c -0.9016,0.021 -2.04417,-0.1241 -2.04417,0.8173 0,1.1468 2.8501,3.2695 3.26938,3.2695 2.15833,0 3.90567,-0.4808 5.31354,-1.2254 -1.46203,-2.1838 -5.90973,-5.1068 -6.13947,-7.7428 l 1.3424,0.3638 -0.92434,-4.8814 c 0.9014,-0.4764 1.63469,-0.3566 1.63469,-1.6349 l 0,-2.452 c 1.2339,-0.2867 2.45213,-0.2353 2.45213,-1.6332 l 0,-0.4094 c 0,-2.6033 -2.00133,-3.1995 -3.67895,-4.0869 1.48647,-2.2181 3.5862,-1.1469 3.67895,-5.3121 1.25663,-0.3351 1.63459,-0.7945 1.63459,-2.4521 l 0,-1.6204 -2.03972,-0.4237 0,-1.6332 c 1.12255,0.2611 1.66186,0.8174 2.45203,0.8174 0.93575,0 0.47494,-0.1397 1.63468,-0.4094 l 0,-1.2253 c 0,-6.0039 1.4394,-3.3636 3.92851,-3.8059 1.87726,-0.3352 4.65309,-2.2009 4.65309,-4.3677 l 0,-0.81735 c 0,-1.78593 -0.81734,-1.48354 -0.81734,-3.26947 l 0.0212,-1.14256 2.02275,-0.49213 0,1.22673 1.2254,0 c 2.88566,0 3.44194,-3.31222 4.98681,-5.63877 1.29805,-1.95576 3.0954,-4.70735 4.52752,-6.50611 2.33382,-2.93132 0.0343,-6.79133 2.2339,-8.79973 0.77592,-0.70893 2.29664,-1.3224 3.26806,-2.04558 0.47212,-0.35381 2.93132,-2.75583 2.96547,-2.75583 1.04699,0 0.98718,0.098 1.73178,0.54628 l 3.58035,-2.58903 0,-2.04417 c 4.71594,-3.15814 1.85726,-6.82123 4.08682,-11.03363 -0.30815,-1.32089 -0.81735,-2.53336 -0.81735,-4.08682 0,-3.92567 6.94682,-6.31779 6.94682,-15.93779 l 0,-0.40787 c 0,-0.91585 -0.32381,-0.89726 -0.81735,-1.63478 -7.73849,0 -4.22513,-2.39071 -6.97106,-3.6531 -0.0667,-0.0313 -8.9838,-1.25107 -9.43743,-1.22106 l -0.75461,-2.07266 c -1.48344,-0.12417 -4.36485,-1.22682 -4.49619,-1.22682 l -2.30948,-0.0889 -0.96,-1.54618 -2.85999,0 c 0.15114,-0.31532 0.44221,-1.08993 0.65619,-1.38656 0.3423,-0.4708 0.97849,-0.42938 0.97849,-1.06557 0,-1.37938 -1.23672,-0.89443 -1.63468,-3.67734 -0.30381,-2.13126 -0.50779,-2.80888 -2.86,-2.8602 -0.59346,-2.21814 -3.25806,-3.26937 -6.13098,-3.26937 l -3.26796,0 C 132.4695,907.0337 124.0149,898.619 122.6241,898.619 c -1.75734,0 -2.21521,0.47647 -3.67734,0.81735 -0.28814,-0.15266 -2.00708,-1.22541 -2.04275,-1.22541 -1.07265,0 -1.0584,0.66761 -2.86141,0.81744 -0.10103,-1.21965 -0.2938,-2.04416 -1.63479,-2.04416 -2.25653,0 -2.73299,0.81592 -4.41911,1.19691 l -0.49364,-1.21965 1.45789,-0.64195 -1.85716,-1.37787 c -0.75753,0.4008 -5.61179,3.26928 -6.12957,3.26928 l -1.226618,0 c 0,2.12691 -0.35533,4.49488 -2.45213,4.49488 -0.80593,0 -1.01143,-1.63469 -2.45214,-1.63469 l -1.2252,0 c -1.41939,0 -0.62347,0.81735 -2.04275,0.81735 l -1.22673,0 c -2.30947,0 -2.58337,-1.63479 -3.48487,-3.29655 l -1.00991,-5.28505 c 0.63619,-0.42656 1.22531,-0.54204 1.22531,-1.63469 l 0,-0.81744 c 0,-0.5192 -1.81725,-3.26938 -2.86,-3.26938 l -6.05541,-0.11558 3.59752,-10.84541 -6.94105,-0.48212 c -0.25965,3.10692 -2.40788,6.53885 -5.72161,6.53885 -3.93981,0 -6.94681,-4.70301 -6.94681,-8.17212 l 0,-0.81735 c 0,-3.22087 1.44071,-5.03398 1.64469,-7.43327 l -3.27948,-0.3324 c -1.47627,-2.2039 -2.43495,-7.35478 -5.31354,-7.35478 -1.40787,0 -1.58195,0.30249 -2.8414,0.38938 l -5.43347,-5.59168 -0.30663,0.29814 c -0.65337,0.43797 -3.15531,2.04265 -4.08682,2.04265 l -0.81744,0 c -3.3208,0 -7.03946,-3.26947 -8.17212,-3.26947 l -4.71301,0.0899 4.09823,10.04362 z"
       style="fill:#ffffff;fill-rule:evenodd;stroke:#000000;stroke-width:6.18400000000000016;stroke-miterlimit:4;stroke-opacity:1;stroke-dasharray:none;stroke-linejoin:round;stroke-linecap:round" />
    <path
       inkscape:connector-curvature="0"
       id="_67679224-2-7-6"
       class="fil3"
       d="m 108.75313,900.04197 c 5.5837,1.99406 11.56738,0.39857 17.15118,2.39263 5.5838,1.99415 4.38678,6.38225 6.38225,10.37036 1.99405,3.19107 10.37036,8.77487 12.36451,8.77487 1.19702,0 27.12308,6.78072 18.3482,7.97774 2.79109,5.5838 8.37631,4.78666 3.58965,13.16297 -2.79261,4.38678 -4.3882,6.38083 -4.3882,12.76308 0,3.19118 2.79261,6.38225 0,9.17486 -3.58964,3.58964 -10.37026,5.98227 -12.76298,10.76893 -2.79261,6.78072 -7.57927,13.9601 -11.16902,20.74082"
       style="fill:none" />
    <path
       inkscape:connector-curvature="0"
       id="_67725168-3-6"
       class="fil3"
       d="m 110.57876,965.77498 c 0,6.86609 0.85857,14.59215 0.42929,21.88752 -0.85857,9.01261 -3.00377,19.3131 -2.14652,28.7563 0.42929,3.0037 4.72231,8.1539 4.72231,9.8711 0,5.5797 0,9.0127 5.15027,12.8751"
       style="fill:none" />
    <path
       inkscape:connector-curvature="0"
       id="_65375008-9-8-4"
       class="fil3"
       d="m 75.001592,897.33938 c 1.88919,0.70763 5.03702,2.47376 5.66624,4.5937 0.31461,1.06133 0.94394,4.9475 1.57316,5.65502 0.63074,0.70621 3.46245,2.12005 4.40769,2.12005 1.57326,0 5.35022,0.7061 5.98096,2.47365 1.57316,2.82756 -1.88929,7.77506 -3.14783,10.60111"
       style="fill:none" />
    <path
       inkscape:connector-curvature="0"
       id="_67551712-7-5"
       class="fil3"
       d="m 88.493312,956.39624 c -1.33684,0.34118 -14.29007,-1.16206 -17.19593,-2.32554 -3.27503,5.75161 -10.73114,21.06523 -10.09071,33.47451 0.80128,15.49409 13.26087,34.84199 25.70793,38.53089"
       style="fill:none" />
    <path
       inkscape:connector-curvature="0"
       id="_67360576-2-5-4"
       class="fil3"
       d="m 166.18035,899.14582 c 1.19701,-0.0626 11.9422,4.01337 14.20894,5.73202 3.79524,-4.94195 12.83017,-18.35103 14.4691,-30.56451 2.0472,-15.25078 -5.13906,-36.60547 -15.07175,-42.70665"
       style="fill:none" />
    <path
       inkscape:connector-curvature="0"
       id="_67777080-4-1"
       class="fil3"
       d="m 175.36611,931.95171 c 3.02609,-0.5384 7.28982,-4.36991 10.44735,-5.41457 7.83094,-2.58974 21.9141,-10.36622 31.1812,-10.68781 l -21.31418,-5.20331"
       style="fill:none" />
    <path
       inkscape:connector-curvature="0"
       id="_4587152-6-7"
       class="fil3"
       d="M 178.7345,821.3218 C 89.039392,768.33288 -13.113888,866.04624 7.8804216,957.58477 c 9.6810204,42.22281 44.8713504,70.98473 90.1509604,82.98843 43.463168,11.5228 91.366168,-7.4338 105.754538,-28.8795"
       style="fill:none" />
    <path
       inkscape:connector-curvature="0"
       id="_67700432-8-1"
       class="fil3"
       d="m 69.153392,927.36792 c -2.89182,1.04325 -6.44792,5.53904 -9.38318,7.10098 -7.28133,3.87496 -19.85003,13.91667 -28.92972,15.79757 l 21.88753,1.53123"
       style="fill:none" />
  </g>
</svg>
