<?xml version="1.0" encoding="UTF-8" standalone="no"?>
<!-- Created with Inkscape (http://www.inkscape.org/) -->

<svg
   xmlns:dc="http://purl.org/dc/elements/1.1/"
   xmlns:cc="http://creativecommons.org/ns#"
   xmlns:rdf="http://www.w3.org/1999/02/22-rdf-syntax-ns#"
   xmlns:svg="http://www.w3.org/2000/svg"
   xmlns="http://www.w3.org/2000/svg"
   xmlns:sodipodi="http://sodipodi.sourceforge.net/DTD/sodipodi-0.dtd"
   xmlns:inkscape="http://www.inkscape.org/namespaces/inkscape"
   width="256"
   height="256"
   id="svg5274"
   version="1.1"
   inkscape:version="0.48.3.1 r9886"
   sodipodi:docname="applications-libraries.svg">
  <defs
     id="defs5276" />
  <sodipodi:namedview
     id="base"
     pagecolor="#ffffff"
     bordercolor="#666666"
     borderopacity="1.0"
     inkscape:pageopacity="0.0"
     inkscape:pageshadow="2"
     inkscape:zoom="1.8035389"
     inkscape:cx="215.99858"
     inkscape:cy="58.917157"
     inkscape:document-units="px"
     inkscape:current-layer="layer1"
     showgrid="false"
     inkscape:window-width="1918"
     inkscape:window-height="1007"
     inkscape:window-x="0"
     inkscape:window-y="25"
     inkscape:window-maximized="1" />
  <metadata
     id="metadata5279">
    <rdf:RDF>
      <cc:Work
         rdf:about="">
        <dc:format>image/svg+xml</dc:format>
        <dc:type
           rdf:resource="http://purl.org/dc/dcmitype/StillImage" />
        <dc:title />
      </cc:Work>
    </rdf:RDF>
  </metadata>
  <g
     inkscape:label="Capa 1"
     inkscape:groupmode="layer"
     id="layer1"
     transform="translate(0,-796.36218)">
    <path
       style="fill:#2ad4ff;fill-opacity:1;fill-rule:evenodd;stroke:#000000;stroke-width:7.03177214;stroke-opacity:1"
       d="m 16.637042,1010.1607 c 8.78861,-55.54981 9.33383,-111.84918 1.04665,-168.95147 -3.00783,-20.72523 -6.56137,-34.03097 12.0326,-32.14611 68.00326,6.89352 130.217368,2.20871 193.853918,0.36882 18.68146,-0.54013 25.02672,1.74207 22.25455,22.50014 -9.40889,70.45405 -9.78486,138.02521 -5.70381,177.68362 2.14376,20.8325 4.317,35.1183 -14.36118,34.4747 -62.87153,-2.1661 -125.74307,-12.9927 -188.614618,-2.6973 -12.3877,2.0285 -24.34865,-6.9576 -20.50811,-31.2324 z"
       id="rect7046-0-2-9"
       inkscape:connector-curvature="0"
       sodipodi:nodetypes="sssssssss" />
    <path
       id="path7050-7-1-0-9-3-8-0-6"
       d="m 98.402506,807.09749 c 19.773344,-3.27445 108.413454,-1.60409 123.254994,5.80945 13.7612,6.87321 19.64309,20.96297 20.10514,38.80058 l 2.12216,81.86305"
       class="fil2"
       inkscape:connector-curvature="0"
       style="fill:none" />
    <path
       id="path7054-6-7-2-3-9-0-3-5"
       d="m 15.783132,940.12368 c 0,14.4084 -2.558068,31.4749 -1.410502,45.84367 3.582529,44.86225 21.130411,60.73025 69.209777,57.63035 9.264653,-0.5965 59.320023,1.309 69.913653,1.309"
       class="fil2"
       inkscape:connector-curvature="0"
       style="fill:none" />
    <path
       id="path7050-7-1-0-8-5-2-6-3"
       d="m 98.402506,807.09749 c 19.773344,-3.27445 108.413454,-1.60409 123.254994,5.80945 13.7612,6.87321 19.64309,20.96297 20.10514,38.80058 l 2.12216,81.86305"
       class="fil2"
       inkscape:connector-curvature="0"
       style="fill:none" />
    <path
       inkscape:connector-curvature="0"
       id="path3883"
       style="font-size:40px;font-style:normal;font-variant:normal;font-weight:normal;font-stretch:normal;line-height:125%;letter-spacing:0px;word-spacing:0px;fill:#ffffff;fill-opacity:1;stroke:#000000;stroke-width:6;stroke-linecap:round;stroke-linejoin:round;stroke-miterlimit:4;stroke-opacity:1;stroke-dasharray:none;font-family:OpenDyslexic;-inkscape-font-specification:OpenDyslexic"
       d="m 124.94592,914.34874 1.18587,-19.07702 -36.788062,3.88126 7.672086,-67.32716 -19.865494,5.54465 -1.031189,76.97827 48.826789,0"
       sodipodi:nodetypes="ccccccc" />
    <path
       inkscape:connector-curvature="0"
       id="path3885"
       style="font-size:40px;font-style:normal;font-variant:normal;font-weight:normal;font-stretch:normal;line-height:125%;letter-spacing:0px;word-spacing:0px;fill:#ffffff;fill-opacity:1;stroke:#000000;stroke-width:6;stroke-linecap:round;stroke-linejoin:round;stroke-miterlimit:4;stroke-opacity:1;stroke-dasharray:none;font-family:OpenDyslexic;-inkscape-font-specification:OpenDyslexic"
       d="m 177.60795,916.5666 -4.30642,-78.64166 -19.34989,-0.55447 -1.59835,76.97827 24.7002,2.21787"
       sodipodi:nodetypes="ccccc" />
    <path
       inkscape:connector-curvature="0"
       id="path3887"
       style="font-size:40px;font-style:normal;font-variant:normal;font-weight:normal;font-stretch:normal;line-height:125%;letter-spacing:0px;word-spacing:0px;fill:#ffffff;fill-opacity:1;stroke:#000000;stroke-width:6;stroke-linecap:round;stroke-linejoin:round;stroke-miterlimit:4;stroke-opacity:1;stroke-dasharray:none;font-family:OpenDyslexic;-inkscape-font-specification:OpenDyslexic"
       d="m 103.85812,978.61721 c 4.79502,0 8.30107,0.92817 10.51812,2.83574 2.11393,1.75311 3.14512,3.1451 3.14512,4.1765 0,3.81537 -0.97962,6.2902 -2.93888,7.47601 l 0.0515,0 c -2.1655,1.34056 -5.77466,2.01072 -10.77591,2.01072 l -18.911251,0 0.554466,-16.49897 18.356785,0 m -1.2374,-31.50284 c 8.61042,0 12.37426,4.33093 12.37426,10.51819 0,6.03231 -4.12475,9.07447 -12.37426,9.07447 l -12.683622,0 0,-19.59266 12.683622,0 m 1.70145,66.40873 c 17.27241,0 32.94811,-8.0433 32.94811,-22.42836 0,-9.02306 -8.81828,-15.77733 -18.35677,-19.23184 5.00125,-2.78423 7.47612,-7.88865 7.47612,-15.31321 0,-6.39317 -2.26862,-11.39461 -6.59961,-14.79737 -4.33099,-3.40303 -10.67282,-5.20762 -18.87076,-5.20762 l -33.117075,0 -1e-6,76.9784 36.519986,0"
       sodipodi:nodetypes="ccsccsccccssccccscscsccc" />
    <path
       inkscape:connector-curvature="0"
       id="path3889"
       style="font-size:40px;font-style:normal;font-variant:normal;font-weight:normal;font-stretch:normal;line-height:125%;letter-spacing:0px;word-spacing:0px;fill:#ffffff;fill-opacity:1;stroke:#000000;stroke-width:6;stroke-linecap:round;stroke-linejoin:round;stroke-miterlimit:4;stroke-opacity:1;stroke-dasharray:none;font-family:OpenDyslexic;-inkscape-font-specification:OpenDyslexic"
       d="m 195.10119,939.48364 c -8.55884,-2.83573 -16.34434,-4.27946 -23.35641,-4.27946 -16.85992,0 -33.12896,9.16486 -33.12896,23.3952 0,12.16809 12.50519,18.36793 28.02458,21.30686 l 6.03246,1.18582 c 4.27941,0.97962 8.04327,2.47491 9.8994,4.07328 1.70146,1.64992 2.68111,3.14511 2.68111,4.53709 0,1.49519 -1.23746,3.1451 -3.76387,4.94976 -2.78419,2.0109 -6.75427,2.99032 -11.96178,2.99032 -7.16676,0 -12.03793,-2.83569 -21.78265,-8.24944 l -3.32679,20.31463 c 9.43536,3.506 17.94268,5.2589 25.10944,5.2589 19.64413,0 41.04536,-8.1463 41.04536,-23.56249 0,-12.99307 -18.46232,-20.52085 -34.29106,-23.56274 l 0.0515,0 -6.03246,-1.18581 c -5.00126,-0.92818 -8.40419,-2.11399 -10.15722,-3.60921 l 0.0516,0.0502 c -1.49522,-1.23757 -2.21705,-3.19686 -2.21705,-5.87788 0,-6.44492 5.36219,-10.05411 14.90068,-10.05411 5.92933,0 6.89386,2.11399 16.12299,6.44491 l 6.09912,-14.12711"
       sodipodi:nodetypes="csscccscsccsscccccsscc" />
  </g>
</svg>
