<?xml version="1.0" encoding="UTF-8" standalone="no"?>
<!-- Created with Inkscape (http://www.inkscape.org/) -->

<svg
   xmlns:dc="http://purl.org/dc/elements/1.1/"
   xmlns:cc="http://creativecommons.org/ns#"
   xmlns:rdf="http://www.w3.org/1999/02/22-rdf-syntax-ns#"
   xmlns:svg="http://www.w3.org/2000/svg"
   xmlns="http://www.w3.org/2000/svg"
   xmlns:sodipodi="http://sodipodi.sourceforge.net/DTD/sodipodi-0.dtd"
   xmlns:inkscape="http://www.inkscape.org/namespaces/inkscape"
   width="256"
   height="256"
   id="svg2"
   version="1.1"
   inkscape:version="0.48.3.1 r9886"
   sodipodi:docname="applications-science.svg">
  <defs
     id="defs4" />
  <sodipodi:namedview
     id="base"
     pagecolor="#ffffff"
     bordercolor="#666666"
     borderopacity="1.0"
     inkscape:pageopacity="0.0"
     inkscape:pageshadow="2"
     inkscape:zoom="2.3767801"
     inkscape:cx="57.495397"
     inkscape:cy="124.92793"
     inkscape:document-units="px"
     inkscape:current-layer="layer1"
     showgrid="false"
     inkscape:window-width="1918"
     inkscape:window-height="1007"
     inkscape:window-x="0"
     inkscape:window-y="25"
     inkscape:window-maximized="1" />
  <metadata
     id="metadata7">
    <rdf:RDF>
      <cc:Work
         rdf:about="">
        <dc:format>image/svg+xml</dc:format>
        <dc:type
           rdf:resource="http://purl.org/dc/dcmitype/StillImage" />
        <dc:title />
      </cc:Work>
    </rdf:RDF>
  </metadata>
  <g
     inkscape:label="Capa 1"
     inkscape:groupmode="layer"
     id="layer1"
     transform="translate(0,-796.36218)">
    <path
       style="fill:#2ad4ff;fill-opacity:1;fill-rule:evenodd;stroke:#000000;stroke-width:4.5999999;stroke-linecap:round;stroke-linejoin:round;stroke-miterlimit:4;stroke-opacity:1;stroke-dasharray:none"
       d="m 104.3835,810.44669 -18.084989,119.5026 c 7.061357,1.53635 -0.81037,-4.39803 15.127549,6.01488 l 12.99358,-44.76036 c 3.30016,-9.06935 21.00253,-5.1305 29.3752,1.3643 33.77893,23.2108 6.65712,97.59619 -15.84294,94.34231 L 73.410754,968.44026 c -4.701567,-2.76047 -6.100419,1.73841 -6.781039,4.11615 0.167755,6.56443 0.401335,16.01505 0.404233,17.85353 0.0051,3.22527 5.036337,3.87475 5.036337,3.87475 0,0 23.049004,0.77743 32.434645,4.49708 3.96852,1.57273 10.30476,6.07693 13.03844,11.74023 2.40546,4.9833 1.46004,11.2959 1.46004,11.2959 l 0.55368,15.9419 10.47382,0.8298 c 1.44749,-5.0308 5.96927,-10.4537 6.74719,-15.9566 64.57957,-20.396 57.82174,-101.88961 16.7904,-138.92418 -11.51293,-10.2405 -25.09387,-19.35365 -28.75678,-21.76026 l 16.05657,-42.74285 c -0.005,-18.45769 -31.53188,-23.51301 -36.48479,-8.75902 z"
       id="path8926"
       inkscape:connector-curvature="0"
       sodipodi:nodetypes="ccccccccscsscccccccc" />
    <path
       style="fill:#ffffff;fill-opacity:1;fill-rule:evenodd;stroke:#000000;stroke-width:2.79084373;stroke-linecap:round;stroke-linejoin:round;stroke-miterlimit:4;stroke-opacity:1;stroke-dasharray:none"
       d="m 86.824867,924.66892 c -6.693334,0.15699 -8.063212,9.15701 -2.02014,12.36833 l -2.172604,8.14162 4.68724,1.03283 4.727376,-7.09574 2.858689,0.72756 0.572747,7.48335 4.687235,1.59369 2.05826,-7.55266 c 9.39043,-1.25144 8.86394,-11.27727 1.25782,-13.33839 -3.669002,-1.78523 -11.531859,-4.53797 -16.656623,-3.36059 z"
       id="rect8938"
       inkscape:connector-curvature="0"
       sodipodi:nodetypes="ccccccccccc" />
    <path
       style="fill:#ffffff;fill-opacity:1;fill-rule:evenodd;stroke:#000000;stroke-width:3.712;stroke-linecap:round;stroke-linejoin:round;stroke-miterlimit:4;stroke-opacity:1;stroke-dasharray:none"
       d="m 73.578771,1028.5464 104.637259,6.3918 c 6.39145,-0.215 6.7845,14.0714 1.03467,14.2669 l -107.226329,0.1287 c -4.314683,0 -4.853229,-3.7004 -4.42282,-8.3085 0.430409,-4.6081 -0.495107,-12.4601 3.819558,-12.4726 z"
       id="rect8938-0"
       inkscape:connector-curvature="0"
       sodipodi:nodetypes="cccsssc" />
    <path
       style="fill:#ffffff;fill-opacity:1;fill-rule:evenodd;stroke:#000000;stroke-width:3.39337397;stroke-linecap:round;stroke-linejoin:round;stroke-miterlimit:4;stroke-opacity:1;stroke-dasharray:none"
       id="path2478-5"
       d="m 114.37194,861.69641 c 0.1681,-3.00967 1.66949,-5.66633 3.92645,-7.54717 2.22105,-1.84894 5.20356,-2.97788 8.46145,-2.97788 17.40306,-0.32696 23.80624,25.59183 0,22.15908 -3.60229,0 -6.82396,-1.36223 -9.08327,-3.53228 -2.21866,-2.13019 -3.47888,-5.00623 -3.30463,-8.10175 z"
       inkscape:connector-curvature="0"
       sodipodi:nodetypes="cccccc" />
  </g>
</svg>
