<?xml version="1.0" encoding="UTF-8" standalone="no"?>
<!-- Created with Inkscape (http://www.inkscape.org/) -->

<svg
   xmlns:dc="http://purl.org/dc/elements/1.1/"
   xmlns:cc="http://creativecommons.org/ns#"
   xmlns:rdf="http://www.w3.org/1999/02/22-rdf-syntax-ns#"
   xmlns:svg="http://www.w3.org/2000/svg"
   xmlns="http://www.w3.org/2000/svg"
   xmlns:xlink="http://www.w3.org/1999/xlink"
   xmlns:sodipodi="http://sodipodi.sourceforge.net/DTD/sodipodi-0.dtd"
   xmlns:inkscape="http://www.inkscape.org/namespaces/inkscape"
   width="256"
   height="256"
   id="svg5274"
   version="1.1"
   inkscape:version="0.48.3.1 r9886"
   sodipodi:docname="applications-python.svg">
  <defs
     id="defs5276">
    <linearGradient
       id="linearGradient4092">
      <stop
         id="stop4094"
         style="stop-color:#2b5d87;stop-opacity:1"
         offset="0" />
      <stop
         id="stop4096"
         style="stop-color:#4182b8;stop-opacity:1"
         offset="1" />
    </linearGradient>
    <linearGradient
       inkscape:collect="always"
       xlink:href="#linearGradient4092"
       id="linearGradient3024"
       gradientUnits="userSpaceOnUse"
       gradientTransform="matrix(1.5485255,0,0,1.5271899,-54.298257,746.96787)"
       x1="116.53692"
       y1="58.201862"
       x2="77.087646"
       y2="118.20246" />
  </defs>
  <sodipodi:namedview
     id="base"
     pagecolor="#ffffff"
     bordercolor="#666666"
     borderopacity="1.0"
     inkscape:pageopacity="0.0"
     inkscape:pageshadow="2"
     inkscape:zoom="2.3912335"
     inkscape:cx="146.07523"
     inkscape:cy="97.481069"
     inkscape:document-units="px"
     inkscape:current-layer="layer1"
     showgrid="false"
     inkscape:window-width="1918"
     inkscape:window-height="1007"
     inkscape:window-x="0"
     inkscape:window-y="25"
     inkscape:window-maximized="1" />
  <metadata
     id="metadata5279">
    <rdf:RDF>
      <cc:Work
         rdf:about="">
        <dc:format>image/svg+xml</dc:format>
        <dc:type
           rdf:resource="http://purl.org/dc/dcmitype/StillImage" />
        <dc:title />
      </cc:Work>
    </rdf:RDF>
  </metadata>
  <g
     inkscape:label="Capa 1"
     inkscape:groupmode="layer"
     id="layer1"
     transform="translate(0,-796.36218)">
    <path
       style="fill:#2ad4ff;fill-opacity:1;fill-rule:evenodd;stroke:#000000;stroke-width:7.03177214;stroke-opacity:1"
       d="m 17.68736,1010.2143 c 8.78861,-55.5497 9.33383,-111.84907 1.04665,-168.95137 -3.00783,-20.7252 -6.56137,-34.0309 12.0326,-32.1461 68.00326,6.8935 130.21736,2.2087 193.85391,0.3688 18.68146,-0.5401 25.02672,1.7421 22.25455,22.5002 -9.40889,70.454 -9.78486,138.02517 -5.70381,177.68347 2.14376,20.8325 4.317,35.1183 -14.36118,34.4747 -62.87153,-2.1661 -125.74307,-12.9927 -188.61461,-2.6973 -12.3877,2.0285 -24.34865,-6.9576 -20.50811,-31.2324 z"
       id="rect7046-0-2-9"
       inkscape:connector-curvature="0"
       sodipodi:nodetypes="sssssssss" />
    <path
       id="path7050-7-1-0-9-3-8-09-4"
       d="m 98.514708,811.53086 c 19.086122,-3.16061 104.645542,-1.54827 118.971312,5.60757 13.28292,6.63428 18.96036,20.23432 19.40637,37.45205 l 2.04841,79.01791"
       class="fil2"
       inkscape:connector-curvature="0"
       style="fill:none" />
    <path
       id="path7054-6-7-2-3-9-0-5-8"
       d="m 18.766659,939.93388 c 0,13.9077 -2.469117,30.38094 -1.361451,44.25037 3.458073,43.30305 20.396085,58.61955 66.804508,55.62735 8.94265,-0.5758 57.258364,1.2637 67.483784,1.2637"
       class="fil2"
       inkscape:connector-curvature="0"
       style="fill:none" />
    <path
       id="path7050-7-1-0-8-5-2-2-0"
       d="m 98.514708,811.53086 c 19.086122,-3.16061 104.645542,-1.54827 118.971312,5.60757 13.28292,6.63428 18.96036,20.23432 19.40637,37.45205 l 2.04841,79.01791"
       class="fil2"
       inkscape:connector-curvature="0"
       style="fill:none" />
    <path
       style="fill:#ffffff;fill-opacity:1;fill-rule:evenodd;stroke:#737373;stroke-width:0.07579627999999999;stroke-opacity:1"
       id="path2732"
       inkscape:connector-curvature="0"
       d="m 169.66591,992.15242 c 0,11.78988 -10.3751,17.76118 -20.90504,20.73928 -15.84142,4.4899 -28.55484,3.8027 -41.79472,0 -11.056515,-3.1766 -20.905163,-9.6672 -20.905163,-20.73928 l 0,-38.89747 c 0,-11.19436 9.46155,-20.7546 20.905163,-20.7546 l 41.12627,-2.63705 c 13.92117,0 23.01954,-8.5699 23.01954,-22.63534 l 3.78802,-18.80225 15.6711,0 c 12.17136,0 17.90091,8.91874 20.90504,20.73925 4.18103,16.41723 4.36684,28.69584 0,41.49373 -4.22749,12.43132 -8.74916,20.73925 -20.90504,20.73925 l -20.90517,0 -41.79459,0 0,-0.0816 41.79459,0 0,20.83605 z" />
    <path
       style="fill:none;stroke:#000000;stroke-width:6.22100019;stroke-miterlimit:4;stroke-opacity:1;stroke-dasharray:none"
       id="path2744"
       inkscape:connector-curvature="0"
       d="m 171.76115,992.15242 c 0,11.78988 -12.47034,17.76118 -23.00028,20.73928 -15.84142,4.4899 -28.55484,3.8027 -41.79472,0 -11.056515,-3.1766 -20.905163,-9.6672 -20.905163,-20.73928 l 0,-40.96388 c 0,-13.26392 9.760905,-20.45928 20.905163,-20.45928 l 37.17133,-0.21979 c 13.92129,0 28.01115,-14.05058 28.01115,-28.11601 l 0,-13.96775 18.42245,0 c 12.17136,0 17.90091,8.91874 20.90504,20.73925 4.18103,16.41723 1.85767,29.53223 -2.50917,42.33012 -4.22749,12.43132 -6.23999,21.37874 -18.39587,21.37874 l -18.80993,0 -43.88983,0 0,-0.0815 43.88983,0.14754 0,19.21251 z"
       sodipodi:nodetypes="sccssccscsccscccccs" />
    <path
       style="fill:url(#linearGradient3024);fill-opacity:1;fill-rule:evenodd;stroke:none"
       id="path2730"
       inkscape:connector-curvature="0"
       d="m 82.947589,862.3318 c 0,-11.78992 3.205421,-18.20404 20.905161,-21.25852 12.01652,-2.07699 27.42427,-2.33656 41.7946,0 11.35071,1.848 20.90504,10.18639 20.90504,21.25852 l 0,38.8976 c 0,11.40799 -9.27562,20.75448 -20.90504,20.75448 l -37.9036,2.06628 c -14.184522,0 -28.83293,12.2226 -28.83293,25.7077 l -1.197296,16.30078 -14.370327,0 c -12.155876,0 -19.232651,-8.64393 -22.205814,-20.73925 -4.01071,-16.2493 -3.840387,-25.93177 0,-41.49386 3.329292,-13.57662 13.967745,-20.73912 26.123621,-20.73912 l 15.686585,0 41.810201,0 0,-0.13822 -41.810201,0 0,-20.61639 0,0 z" />
    <path
       style="fill:#ffffff;fill-opacity:1;fill-rule:evenodd;stroke:#000000;stroke-width:6.22100019;stroke-miterlimit:4;stroke-opacity:1;stroke-dasharray:none"
       id="path3530"
       inkscape:connector-curvature="0"
       d="m 80.563192,863.42499 c 0,-11.78992 12.470338,-17.76117 23.000408,-20.73925 15.84129,-4.48995 28.55472,-3.80274 41.79459,0 11.05639,3.17647 20.90504,9.66712 20.90504,20.73925 l 0,38.89747 c 0,11.19436 -9.46142,22.52569 -20.90504,22.52569 l -38.94052,0 c -10.932269,0 -26.241827,11.86634 -26.241827,25.93177 l 0,16.37178 -18.422579,0 c -12.17136,0 -17.900909,-8.91873 -20.90504,-20.73925 -4.181033,-16.41722 -2.694063,-32.45971 1.672777,-45.25748 4.227485,-12.43131 7.076387,-18.4515 19.232263,-18.4515 l 18.809928,0 43.889838,0 0,0.0817 -43.889838,-0.14767 z"
       sodipodi:nodetypes="sccssssscsccsccccs" />
    <path
       style="fill:#2ad4ff;fill-opacity:1;fill-rule:evenodd;stroke:#000000;stroke-width:2.20000005;stroke-miterlimit:4;stroke-opacity:1;stroke-dasharray:none"
       id="path2734"
       inkscape:connector-curvature="0"
       d="m 95.733521,858.75615 c 0,-4.08208 3.395508,-7.38255 7.602219,-7.38255 4.19174,0 7.60222,3.30047 7.60222,7.38255 0,4.06761 -2.57409,5.6953 -6.76583,5.6953 -4.206713,0 -8.438609,-1.62769 -8.438609,-5.6953 z"
       sodipodi:nodetypes="sssss" />
    <path
       style="fill:#2ad4ff;fill-opacity:1;fill-rule:evenodd;stroke:#000000;stroke-width:2.20000005;stroke-miterlimit:4;stroke-opacity:1;stroke-dasharray:none"
       id="path2736"
       inkscape:connector-curvature="0"
       d="m 141.44215,992.86657 c 0,-4.29131 3.51522,-7.7733 7.83561,-7.7733 4.33587,0 7.83561,3.48199 7.83561,7.7733 0,4.30667 -1.40877,7.37043 -5.74464,7.37043 -4.32039,0 -9.92658,-3.06376 -9.92658,-7.37043 z"
       sodipodi:nodetypes="sssss" />
  </g>
</svg>
