<?xml version="1.0" encoding="UTF-8" standalone="no"?>
<!-- Created with Inkscape (http://www.inkscape.org/) -->

<svg
   xmlns:dc="http://purl.org/dc/elements/1.1/"
   xmlns:cc="http://creativecommons.org/ns#"
   xmlns:rdf="http://www.w3.org/1999/02/22-rdf-syntax-ns#"
   xmlns:svg="http://www.w3.org/2000/svg"
   xmlns="http://www.w3.org/2000/svg"
   xmlns:sodipodi="http://sodipodi.sourceforge.net/DTD/sodipodi-0.dtd"
   xmlns:inkscape="http://www.inkscape.org/namespaces/inkscape"
   width="256"
   height="256"
   id="svg2"
   version="1.1"
   inkscape:version="0.48.3.1 r9886"
   sodipodi:docname="applications-viewers.svg">
  <defs
     id="defs4" />
  <sodipodi:namedview
     id="base"
     pagecolor="#ffffff"
     bordercolor="#666666"
     borderopacity="1.0"
     inkscape:pageopacity="0.0"
     inkscape:pageshadow="2"
     inkscape:zoom="1.4075985"
     inkscape:cx="276.31634"
     inkscape:cy="-12.495424"
     inkscape:document-units="px"
     inkscape:current-layer="layer1"
     showgrid="false"
     inkscape:window-width="1918"
     inkscape:window-height="1007"
     inkscape:window-x="0"
     inkscape:window-y="25"
     inkscape:window-maximized="1" />
  <metadata
     id="metadata7">
    <rdf:RDF>
      <cc:Work
         rdf:about="">
        <dc:format>image/svg+xml</dc:format>
        <dc:type
           rdf:resource="http://purl.org/dc/dcmitype/StillImage" />
        <dc:title />
      </cc:Work>
    </rdf:RDF>
  </metadata>
  <g
     inkscape:label="Capa 1"
     inkscape:groupmode="layer"
     id="layer1"
     transform="translate(0,-796.36218)">
    <path
       style="fill:#2ad4ff;fill-opacity:1;fill-rule:evenodd;stroke:#000000;stroke-width:5.08897829;stroke-miterlimit:4;stroke-opacity:1;stroke-dasharray:none"
       d="m 243.53085,908.81973 c 0.13472,7.4364 -18.13586,49.27531 -116.70648,64.75677 C 70.608726,982.40569 -0.6567923,921.76672 7.2306867,911.56775 18.221124,897.35655 71.462172,847.08554 124.86407,855.83614 c 55.61945,9.11394 118.47582,42.43003 118.66678,52.98359 z"
       id="circle5781-6-9-8"
       inkscape:connector-curvature="0"
       sodipodi:nodetypes="sssss" />
    <path
       style="fill:#ffffff;fill-opacity:1;fill-rule:evenodd;stroke:#000000;stroke-width:5.05291462;stroke-miterlimit:4;stroke-opacity:1;stroke-dasharray:none"
       d="m 220.0133,920.78789 c 1.16268,12.45718 -69.0237,41.79036 -101.43343,41.79036 -32.409326,0 -106.2259,-34.27872 -103.25263,-45.71238 3.364322,-12.93745 70.843304,-42.96342 103.25263,-42.96342 32.40973,0 99.81631,29.55981 101.43343,46.88544 z"
       id="circle5781-6-9"
       inkscape:connector-curvature="0"
       sodipodi:nodetypes="sssss" />
    <path
       style="fill:#2ad4ff;fill-opacity:1;fill-rule:nonzero;stroke:#000000;stroke-width:5;stroke-miterlimit:4;stroke-opacity:1;stroke-dasharray:none"
       inkscape:connector-curvature="0"
       id="path4782-4-8"
       d="m 141.50105,933.43346 c -12.54643,13.90278 -34.19711,15.94499 -48.356277,4.56041 -14.150548,-11.37776 -15.457503,-31.87862 -2.911079,-45.78141 33.278496,-28.34221 96.198186,1.36172 51.267356,41.221 z"
       class="fil0 str0"
       sodipodi:nodetypes="cscc" />
    <path
       style="fill:none"
       inkscape:connector-curvature="0"
       id="path4788-1-6"
       d="m 114.96333,882.12376 c 7.8489,-1.62625 24.77685,7.12287 29.3874,12.02736 21.35352,22.71654 -12.28625,64.76217 -42.30551,50.20956"
       class="fil3" />
    <g
       transform="matrix(0.57426554,-1.2942188,1.975475,0.37622615,-323.99104,883.54531)"
       style="fill:#000000;fill-rule:evenodd"
       id="_67899552-2-9">
      <path
         style="fill:#000000"
         inkscape:connector-curvature="0"
         d="m 46.703221,172.17642 c 4.91983,0.11257 12.25921,0.24275 14.10826,1.26834 0.55863,0.30985 -5.0918,-0.25158 -7.50267,0.49064 -3.07565,0.94688 -5.14636,2.87814 0.80344,4.25124 1.61117,0.37183 9.83496,0.47599 10.78022,1.24943 0.37491,0.30677 -5.55131,0.60657 -8.24171,1.13553 -1.75671,0.34539 -0.68575,1.39208 -0.45728,1.6043 1.19755,1.11236 12.45107,1.78972 13.54884,2.99275 0.24599,0.26958 -5.91764,-0.48716 -8.61924,-0.6077 -1.99398,-0.089 -2.43886,2.59828 -2.11138,2.5604 2.55376,-0.29543 13.46533,2.34372 14.13936,3.27007 0.25154,0.34571 -6.08045,-1.32454 -8.11155,-0.78087 -1.66164,0.44479 -1.87921,2.27163 -1.69585,2.56336 0.71321,1.13474 13.33637,2.81586 13.9765,3.97946 0.17902,0.32542 -7.84313,-0.8594 -10.26708,-0.19941 -1.85311,0.50455 -1.66975,2.38201 -1.55197,2.63556 0.70546,1.51867 18.24596,4.86209 13.53467,4.52149 -0.36591,-0.0265 -5.57142,-0.19899 -7.70767,0.34116 -2.11014,0.53355 -3.33192,2.89731 -3.24176,3.21008 0.43695,1.51586 11.19911,3.74906 11.53588,5.23395 0.12881,0.56795 -4.55265,-1.4956 -6.82634,-1.39842 -1.93786,0.0828 -3.77345,1.51275 -3.28293,1.67384 2.6914,0.88387 6.65909,5.67434 6.75046,7.27081 0.0294,0.51414 -1.82872,-1.1371 -3.29323,-1.41555 -1.08381,-0.20606 -4.09017,-0.0158 -3.72131,0.15229 2.57651,1.1743 8.10701,12.95057 8.08453,14.23752 -0.009,0.51933 -4.74843,-7.65924 -6.44124,-8.04981 -1.10633,-0.25525 -1.72736,1.41705 -1.9334,1.75866 -1.55656,2.58078 6.01839,10.94976 3.9162,13.79303 -0.29555,0.49676 -2.21399,-5.6115 -3.59943,-6.40528 -1.0505,-0.60187 -2.37272,0.78467 -2.73131,1.18487 -0.91776,1.02424 2.02963,9.38527 1.20485,10.44035 -1.05636,1.3513 -1.536714,-4.60231 -3.17682,-3.44938 -0.319026,0.22426 0.744254,6.38056 -0.546951,8.61822 -0.593433,1.02841 1.523562,-1.92573 -2.008901,-3.59812 -0.524707,-0.24841 -2.43875,7.81578 -2.870954,8.29288 0.64582,-8.49489 -15.013475,17.66746 -5.053034,0.41645 7.40515,-5.89279 7.34202,-28.12384 8.04952,-32.15133 1.1396,-24.51275 -24.230615,-53.21159 -35.941275,-57.5314 11.02322,-3.77786 26.976855,3.16655 28.257705,3.73557 -1.64202,0.64697 -7.90778,-0.33968 -7.75515,2.70502 z"
         class="fil2"
         id="_67839448-9-3"
         sodipodi:nodetypes="cssssssssssssssssssssssssssscsssssscccccc" />
    </g>
    <path
       sodipodi:type="arc"
       style="fill:#000000;fill-opacity:1;fill-rule:nonzero;stroke:#000000;stroke-width:5;stroke-linecap:round;stroke-linejoin:round;stroke-miterlimit:4;stroke-opacity:1;stroke-dasharray:none;stroke-dashoffset:0"
       id="path3782"
       sodipodi:cx="124.59241"
       sodipodi:cy="137.96509"
       sodipodi:rx="10.200548"
       sodipodi:ry="8.0147161"
       d="m 134.79296,137.96509 a 10.200548,8.0147161 0 1 1 -20.4011,0 10.200548,8.0147161 0 1 1 20.4011,0 z"
       transform="matrix(1.2007895,0,0,1.2007895,-29.024207,750.01344)" />
  </g>
</svg>
