<?xml version="1.0" encoding="UTF-8" standalone="no"?>
<!-- Created with Inkscape (http://www.inkscape.org/) -->

<svg
   xmlns:dc="http://purl.org/dc/elements/1.1/"
   xmlns:cc="http://creativecommons.org/ns#"
   xmlns:rdf="http://www.w3.org/1999/02/22-rdf-syntax-ns#"
   xmlns:svg="http://www.w3.org/2000/svg"
   xmlns="http://www.w3.org/2000/svg"
   xmlns:sodipodi="http://sodipodi.sourceforge.net/DTD/sodipodi-0.dtd"
   xmlns:inkscape="http://www.inkscape.org/namespaces/inkscape"
   width="256"
   height="256"
   id="svg4631"
   version="1.1"
   inkscape:version="0.48.3.1 r9886"
   sodipodi:docname="applications-biology.svg">
  <defs
     id="defs4633" />
  <sodipodi:namedview
     id="base"
     pagecolor="#ffffff"
     bordercolor="#666666"
     borderopacity="1.0"
     inkscape:pageopacity="0.0"
     inkscape:pageshadow="2"
     inkscape:zoom="2.028499"
     inkscape:cx="62.76161"
     inkscape:cy="108.34116"
     inkscape:document-units="px"
     inkscape:current-layer="layer1"
     showgrid="false"
     inkscape:window-width="1918"
     inkscape:window-height="1007"
     inkscape:window-x="0"
     inkscape:window-y="25"
     inkscape:window-maximized="1" />
  <metadata
     id="metadata4636">
    <rdf:RDF>
      <cc:Work
         rdf:about="">
        <dc:format>image/svg+xml</dc:format>
        <dc:type
           rdf:resource="http://purl.org/dc/dcmitype/StillImage" />
        <dc:title />
      </cc:Work>
    </rdf:RDF>
  </metadata>
  <g
     inkscape:label="Capa 1"
     inkscape:groupmode="layer"
     id="layer1"
     transform="translate(0,-796.36218)">
    <path
       transform="matrix(0.9110879,0.41221212,0.00775526,0.99996993,0,0)"
       style="fill:#ffffff;fill-opacity:1;fill-rule:evenodd;stroke:#000000;stroke-width:3.14855242;stroke-miterlimit:4;stroke-opacity:1"
       d="m 67.121532,879.8736 c 11.410308,-0.5803 21.441484,-3.13583 35.446458,0 2.26264,0.50662 4.54409,1.56789 4.54409,3.51544 0,1.94756 -2.02667,3.51545 -4.54409,3.51545 l -35.446458,0 c -2.517426,0 -4.54409,-1.56789 -4.54409,-3.51545 0,-1.94755 1.974673,-3.38476 4.54409,-3.51544 z"
       id="rect11194-2-1-1-8-0-7"
       inkscape:connector-curvature="0"
       sodipodi:nodetypes="sssssss" />
    <path
       style="fill:none"
       inkscape:connector-curvature="0"
       id="path11198-8-2-3-6-9-5"
       d="m 66.219572,906.65639 c -3.227294,-0.97708 -2.463393,2.24609 -1.90093,3.97142 0.977097,2.99966 9.540372,6.57135 12.555743,7.93562 6.031263,2.72878 12.663203,5.72933 18.695721,8.61951"
       class="fil2" />
    <path
       style="fill:#55ddff;fill-opacity:1;fill-rule:nonzero;stroke:#000000;stroke-width:6;stroke-miterlimit:4;stroke-opacity:1;stroke-dasharray:none"
       inkscape:connector-curvature="0"
       id="path4782-5-0-7-7-8-2"
       d="m 71.201778,902.13632 c 0,11.69254 -11.44097,24.12993 -24.33753,24.12993 -12.888814,0 -24.822809,-11.94441 -24.822809,-23.63695 -0.849738,-11.43506 12.563133,-24.85033 26.301735,-25.10461 12.89656,0 22.858604,12.92165 22.858604,24.61163 z"
       class="fil0 str0"
       sodipodi:nodetypes="ssccs" />
    <path
       style="fill:none"
       inkscape:connector-curvature="0"
       id="path4788-3-1-7-5-3-3"
       d="m 31.571143,886.62212 c 3.313774,-3.8279 16.298656,-6.10991 21.036249,-5.50246 21.9434,2.81388 24.448812,36.31493 1.880501,40.83104"
       class="fil3" />
    <path
       transform="matrix(0,1,-1,0,0,0)"
       style="fill:#ffffff;fill-opacity:1;fill-rule:evenodd;stroke:#000000;stroke-width:3;stroke-miterlimit:4;stroke-opacity:1"
       d="m 856.73472,-137.52589 c 26.92778,-3.48076 37.85818,-1.62906 49.45652,0 3.47829,0.48855 6.34013,2.29585 6.34013,5.14766 0,2.8518 -3.21338,3.54747 -6.34013,5.14766 -3.59756,1.84114 -28.30967,0.66591 -49.45652,0 -3.51069,-0.11055 -6.34013,-2.29586 -6.34013,-5.14766 0,-2.85181 2.85668,-4.69738 6.34013,-5.14766 z"
       id="rect11194-2-1-4"
       inkscape:connector-curvature="0"
       sodipodi:nodetypes="sssssss" />
    <path
       style="fill:none"
       inkscape:connector-curvature="0"
       id="path11198-8-2-6"
       d="m 137.61966,854.04372 c -0.70988,-4.94806 -4.93843,-3.81251 -7.09984,-2.96868 -3.75837,1.46585 -3.31358,14.58331 -3.31358,19.20107 0,9.23632 0,19.39252 -0.23634,28.62884"
       class="fil2" />
    <path
       style="fill:#55ddff;fill-opacity:1;fill-rule:nonzero;stroke:#000000;stroke-width:6;stroke-miterlimit:4;stroke-opacity:1;stroke-dasharray:none"
       inkscape:connector-curvature="0"
       id="path4782-5-0-7-4"
       d="m 161.68772,827.25321 c 0,15.67785 -17.96234,24.44462 -35.25459,24.44462 -43.417842,-4.09984 -24.91659,-51.55164 3.9438,-52.81793 17.29225,0 31.31079,12.69888 31.31079,28.37331 z"
       class="fil0 str0"
       sodipodi:nodetypes="sccs" />
    <path
       style="fill:none"
       inkscape:connector-curvature="0"
       id="path4788-3-1-7-0"
       d="m 108.54928,806.4511 c 4.44323,-5.13262 21.85392,-8.19243 28.20629,-7.37793 29.42265,3.77296 32.78201,48.69261 2.52148,54.74801"
       class="fil3" />
    <path
       transform="matrix(0.64113981,0.76742409,-0.82908497,0.55912263,0,0)"
       style="fill:#ffffff;fill-opacity:1;fill-rule:evenodd;stroke:#000000;stroke-width:3.00792789;stroke-miterlimit:4;stroke-opacity:1"
       d="m 880.09292,494.17905 c 18.76828,-1.1936 34.14758,-4.06012 63.55875,0 4.53497,0.62604 8.14797,2.21467 8.14797,4.96562 0,2.75096 -3.79631,4.13173 -8.14797,4.96563 -17.99478,3.4483 -41.0117,1.63562 -63.55875,0 -4.53582,-0.32904 -8.14797,-2.21467 -8.14797,-4.96563 0,-2.75095 3.67205,-4.68097 8.14797,-4.96562 z"
       id="rect11194-2-1-1-4"
       inkscape:connector-curvature="0"
       sodipodi:nodetypes="sssssss" />
    <path
       style="fill:none"
       inkscape:connector-curvature="0"
       id="path11198-8-2-3-2"
       d="m 152.40395,949.00665 c -4.64473,-4.49715 -7.09094,-1.09655 -8.12428,0.90144 -1.79802,3.47277 9.36593,16.16998 13.17076,20.72425 7.61033,9.10932 15.9786,19.12587 23.39991,28.36267"
       class="fil2" />
    <path
       transform="matrix(0.67330224,-0.73936736,0.8057295,0.59228369,0,0)"
       style="fill:#ffffff;fill-opacity:1;fill-rule:evenodd;stroke:#000000;stroke-width:3.00826001;stroke-miterlimit:4;stroke-opacity:1"
       d="m -766.45788,729.3269 c 6.54896,-1.96164 36.11956,-0.85777 63.84193,0 4.51734,0.13977 8.18427,2.20534 8.18427,4.9447 0,2.73936 -3.63002,4.67737 -8.18427,4.94469 -25.10502,1.47359 -49.41727,2.64171 -63.84193,0 -4.37948,-0.80205 -8.18427,-2.20533 -8.18427,-4.94469 0,-2.73936 3.71033,-3.6046 8.18427,-4.9447 z"
       id="rect11194-2-1-1-8-6"
       inkscape:connector-curvature="0"
       sodipodi:nodetypes="sssssss" />
    <path
       style="fill:none"
       inkscape:connector-curvature="0"
       id="path11198-8-2-3-6-1"
       d="m 69.170984,1001.1774 c -3.751161,5.1264 0.508526,6.4484 2.914782,6.8727 4.182865,0.7392 15.2396,-12.03352 19.253104,-16.44084 8.027702,-8.81538 16.85491,-18.50873 25.06554,-27.18966"
       class="fil2" />
    <path
       style="fill:#55ddff;fill-opacity:1;fill-rule:nonzero;stroke:#000000;stroke-width:6;stroke-miterlimit:4;stroke-opacity:1;stroke-dasharray:none"
       inkscape:connector-curvature="0"
       id="path4782-5-0-7-7-5"
       d="m 28.510667,1037.7971 c -10.499028,-12.5226 -7.813704,-30.2531 5.998409,-39.60084 13.803797,-9.34209 33.513018,-6.76764 44.012046,5.75494 23.090528,37.6212 -29.422976,56.8609 -50.010455,33.8459 z"
       class="fil0 str0"
       sodipodi:nodetypes="cscc" />
    <path
       style="fill:none"
       inkscape:connector-curvature="0"
       id="path4788-3-1-7-5-2"
       d="m 84.885337,1025.6876 c -0.111822,6.5015 -11.969453,18.3572 -17.588825,21.1406 -26.027846,12.8914 -58.7925934,-21.172 -38.677264,-42.3667"
       class="fil3" />
    <path
       style="fill:#55ddff;fill-opacity:1;fill-rule:nonzero;stroke:#000000;stroke-width:6;stroke-miterlimit:4;stroke-opacity:1;stroke-dasharray:none"
       inkscape:connector-curvature="0"
       id="path4782-5-0-5"
       d="m 238.87223,1022.282 c -1.77833,15.5766 -14.01854,28.3884 -31.31079,28.3884 -17.28187,0 -31.30049,-12.7106 -31.30049,-28.3884 -1.13937,-15.3327 14.35811,-31.97619 32.77942,-32.31715 17.29225,0 32.29674,10.72695 29.83186,32.31715 z"
       class="fil0 str0"
       sodipodi:nodetypes="ssccs" />
    <path
       style="fill:none"
       inkscape:connector-curvature="0"
       id="path4788-3-1-77"
       d="m 185.73379,1001.4799 c 4.44323,-5.13266 21.85392,-8.19248 28.20629,-7.37797 29.42265,3.77296 32.78202,48.69257 2.52148,54.74797"
       class="fil3" />
    <path
       style="fill:#55ddff;fill-opacity:1;fill-rule:nonzero;stroke:#000000;stroke-width:6;stroke-miterlimit:4;stroke-opacity:1;stroke-dasharray:none"
       inkscape:connector-curvature="0"
       id="path4782-5-0-7-4-8"
       d="m 163.85614,935.69788 c 0,15.67785 -14.01854,28.38842 -31.31079,28.38842 -17.28187,0 -31.30049,-12.71057 -31.30049,-28.38842 -1.13937,-15.33262 9.42834,-30.49724 27.84966,-30.83819 18.77118,-1.47892 34.76162,15.16376 34.76162,30.83819 z"
       class="fil0 str0"
       sodipodi:nodetypes="ssccs" />
    <path
       style="fill:none"
       inkscape:connector-curvature="0"
       id="path4788-3-1-7-0-4"
       d="m 110.7177,914.89577 c 4.44323,-5.13262 21.85392,-8.19243 28.20629,-7.37793 29.42265,3.77296 32.78201,48.69261 2.52148,54.74801"
       class="fil3" />
  </g>
</svg>
