<?xml version="1.0" encoding="UTF-8" standalone="no"?>
<!-- Created with Inkscape (http://www.inkscape.org/) -->

<svg
   xmlns:dc="http://purl.org/dc/elements/1.1/"
   xmlns:cc="http://creativecommons.org/ns#"
   xmlns:rdf="http://www.w3.org/1999/02/22-rdf-syntax-ns#"
   xmlns:svg="http://www.w3.org/2000/svg"
   xmlns="http://www.w3.org/2000/svg"
   xmlns:sodipodi="http://sodipodi.sourceforge.net/DTD/sodipodi-0.dtd"
   xmlns:inkscape="http://www.inkscape.org/namespaces/inkscape"
   width="256"
   height="256"
   id="svg5274"
   version="1.1"
   inkscape:version="0.48.3.1 r9886"
   sodipodi:docname="applications-ide.svg">
  <defs
     id="defs5276" />
  <sodipodi:namedview
     id="base"
     pagecolor="#ffffff"
     bordercolor="#666666"
     borderopacity="1.0"
     inkscape:pageopacity="0.0"
     inkscape:pageshadow="2"
     inkscape:zoom="1.758489"
     inkscape:cx="305.67034"
     inkscape:cy="46.790841"
     inkscape:document-units="px"
     inkscape:current-layer="layer1"
     showgrid="false"
     inkscape:window-width="1918"
     inkscape:window-height="1007"
     inkscape:window-x="0"
     inkscape:window-y="25"
     inkscape:window-maximized="1" />
  <metadata
     id="metadata5279">
    <rdf:RDF>
      <cc:Work
         rdf:about="">
        <dc:format>image/svg+xml</dc:format>
        <dc:type
           rdf:resource="http://purl.org/dc/dcmitype/StillImage" />
        <dc:title />
      </cc:Work>
    </rdf:RDF>
  </metadata>
  <g
     inkscape:label="Capa 1"
     inkscape:groupmode="layer"
     id="layer1"
     transform="translate(0,-796.36218)">
    <path
       style="fill:#2ad4ff;fill-opacity:1;fill-rule:evenodd;stroke:#000000;stroke-width:7.03177214;stroke-opacity:1"
       d="m 13.358701,1008.4488 c 8.78861,-55.54984 9.33383,-111.84917 1.04665,-168.95146 -3.00783,-20.72523 -6.5613703,-34.03097 12.0326,-32.14611 68.00326,6.89352 130.217359,2.20871 193.853909,0.36882 18.68146,-0.54013 25.02672,1.74207 22.25455,22.50014 -9.40889,70.45405 -9.78486,138.02524 -5.70381,177.68361 2.14376,20.8325 4.317,35.1183 -14.36118,34.4747 -62.87153,-2.1661 -125.743069,-12.9927 -188.614609,-2.6973 -12.3877,2.0285 -24.3486503,-6.9576 -20.50811,-31.2324 z"
       id="rect7046-0-2-9"
       inkscape:connector-curvature="0"
       sodipodi:nodetypes="sssssssss" />
    <path
       id="path7050-7-1-0-9"
       d="m 98.23791,808.23433 c 19.46288,-3.22302 106.71132,-1.57889 121.31984,5.71825 13.54499,6.76529 19.33469,20.63384 19.78932,38.19141 l 2.08884,80.57775"
       class="fil2"
       inkscape:connector-curvature="0"
       style="fill:none" />
    <path
       id="path7054-6-7-2-3"
       d="m 16.915696,939.17197 c 0,14.18218 -2.517902,30.98072 -1.388356,45.1239 3.526281,44.15793 20.798497,59.77683 68.123153,56.72563 9.119194,-0.5872 58.388667,1.2884 68.815967,1.2884"
       class="fil2"
       inkscape:connector-curvature="0"
       style="fill:none" />
    <path
       id="path7050-7-1-0-8"
       d="m 98.23791,808.23433 c 19.46288,-3.22302 106.71132,-1.57889 121.31984,5.71825 13.54499,6.76529 19.33469,20.63384 19.78932,38.19141 l 2.08884,80.57775"
       class="fil2"
       inkscape:connector-curvature="0"
       style="fill:none" />
    <path
       inkscape:connector-curvature="0"
       d="m 206.04282,854.39473 c -7.69885,1.65814 -0.15677,6.13074 -3.50441,9.87846 -3.34764,3.75127 -7.04018,-0.64692 -7.04018,-0.64692 l 0,0 -14.97058,-19.67044 c -6.21384,6.37306 -12.52364,12.45818 -19.95251,15.18611 -0.67044,0.42319 -4.65699,2.74005 -6.70312,-1.39175 -2.2266,-4.50784 6.2288,-6.8049 -0.75282,-10.45065 -2.95556,-0.67807 -6.40909,0.35293 -9.30592,2.00716 -0.0392,0 -0.0783,0.0392 -0.15679,0.0782 -1.07405,0.50952 -2.21096,1.21909 -3.30849,2.12069 -2.97532,2.44211 -5.62514,6.07594 -5.78193,9.66667 1.65425,7.69887 6.12683,0.1568 9.8783,3.50443 5.6848,9.6683 -14.88998,19.54633 -20.22321,22.12431 6.55937,6.53985 9.85657,14.00672 15.18199,19.61954 0,0 3.6888,4.40211 7.04036,0.65066 3.34764,-3.74736 -4.19051,-8.21621 3.50852,-9.87044 3.58665,0.15677 7.22046,2.80285 9.65886,5.77407 0.90161,1.09757 1.61099,2.23444 2.12442,3.31241 0,0.0392 0.0393,0.0784 0.0782,0.11772 1.67009,2.90093 2.69326,6.35822 2.01499,9.31395 -3.64557,6.98145 -5.95047,-1.48179 -10.45456,0.74873 -4.50391,2.2264 -1.24648,6.95777 -1.24648,6.95777 l 14.87622,19.5608 c 6.84529,-11.89018 14.17834,-13.63372 20.54463,-15.63688 1.48963,-0.69375 4.40212,-1.50529 6.01721,1.7562 2.22641,4.50802 -6.23272,6.80901 0.74462,10.45456 2.95577,0.67826 6.41711,-0.35274 9.31395,-2.01109 0.0392,0 0.0784,-0.0392 0.11736,-0.0782 1.07425,-0.51344 2.21095,-1.22302 3.30868,-2.12461 2.97139,-2.43819 5.62513,-6.07593 5.78191,-9.66277 -1.65425,-7.69884 -6.12701,-0.15678 -9.87828,-3.50441 -6.8647,-8.40222 18.57538,-21.58075 20.32502,-22.04602 -6.39527,-5.08355 -11.72439,-11.76634 -15.64866,-20.55637 -0.68197,-1.51682 -1.39138,-4.33127 1.8073,-5.91131 4.50782,-2.23032 6.80489,6.2249 10.45064,-0.75655 2.23448,-7.34788 -3.05715,-17.28426 -13.84524,-18.51403 z"
       id="path1452-4"
       sodipodi:nodetypes="ccccccccccccccccccccccccccccccccccccc"
       style="fill:#ffffff;fill-opacity:1;fill-rule:evenodd;stroke:#000000;stroke-width:4.182;stroke-miterlimit:4;stroke-opacity:1;stroke-dasharray:none;display:inline" />
    <path
       inkscape:connector-curvature="0"
       d="m 70.199156,884.62847 c -3.951873,1.21407 -8.072833,3.75499 -9.69483,7.25701 -1.490736,8.33515 9.251239,3.59039 9.327991,8.90537 -8.080221,12.21377 -28.856937,9.03373 -32.431972,9.44695 8.629624,7.43501 8.105835,10.63641 10.220242,25.11466 0.140756,0.84401 0.829634,5.75228 -4.116131,6.09906 -5.391155,0.37512 -4.233197,-8.96327 -10.707181,-3.50649 -1.875152,2.66268 -2.273756,6.51163 -1.795558,10.07908 0,0.0469 0,0.0937 0,0.18756 0.04678,1.28007 0.328137,2.70033 0.764198,4.15825 5.852463,16.42462 10.928605,8.31085 14.771667,1.29387 4.86148,-2.36736 6.741313,3.51599 6.741313,3.51599 l 1.93355,27.01515 c 10.594188,-3.66274 21.188378,-10.47699 31.782565,-8.53958 1.711112,-0.0937 5.175637,0.14056 5.461639,4.20039 0.374902,5.39116 -8.968121,4.23321 -3.511341,10.70269 2.667343,1.87982 6.516107,2.27358 10.079078,1.79544 0.0468,0 0.0937,0 0.18755,0 1.275044,-0.0468 2.695674,-0.32818 4.158264,-0.76403 3.95205,-1.2143 8.07265,-3.75503 9.69016,-7.25704 1.49075,-8.33515 -6.03359,-2.65353 -8.3963,-7.51485 -1.01538,-11.68981 20.31924,-11.64863 28.09167,-14.57858 -6.64639,-13.35522 -5.28812,-20.26095 -6.25486,-25.88816 -0.0937,-1.76741 0.28133,-4.99294 4.2002,-5.26942 5.39134,-0.37492 4.23341,8.97761 10.70755,3.52063 1.87517,-2.66731 2.26893,-6.52577 1.79073,-10.08839 0,-0.0469 0,-0.0937 0,-0.14075 -0.0468,-1.27988 -0.32814,-2.70014 -0.75936,-4.15824 -1.21892,-3.95188 -3.75519,-8.07267 -7.26166,-9.69019 -8.33534,-1.49073 -2.65353,6.03342 -7.51502,8.39633 -4.77221,2.32521 -6.64291,-3.24885 -6.71318,-3.45058 -4.06726,-8.32318 -7.42066,-18.27981 -6.92422,-25.75102 -8.68224,4.91927 -18.10574,9.93409 -27.756382,10.89966 -1.786054,0.0468 -4.880142,-0.37512 -5.147494,-4.20991 -0.374912,-5.39135 8.968308,-4.22854 3.506673,-10.7027 -2.662678,-1.88002 -6.511443,-2.27378 -10.079074,-1.79556 -0.04678,0 -0.0938,0 -0.187557,0 -1.279879,0.0469 -2.700147,0.32813 -4.158254,0.76419 z"
       id="path1532-8"
       sodipodi:nodetypes="ccccccccccccccccccccccccccccccccccccccc"
       style="fill:#ffffff;fill-opacity:1;fill-rule:evenodd;stroke:#000000;stroke-width:4.182;stroke-miterlimit:4;stroke-opacity:1;stroke-dasharray:none;display:inline" />
  </g>
</svg>
