<?xml version="1.0" encoding="UTF-8" standalone="no"?>
<!-- Created with Inkscape (http://www.inkscape.org/) -->

<svg
   xmlns:dc="http://purl.org/dc/elements/1.1/"
   xmlns:cc="http://creativecommons.org/ns#"
   xmlns:rdf="http://www.w3.org/1999/02/22-rdf-syntax-ns#"
   xmlns:svg="http://www.w3.org/2000/svg"
   xmlns="http://www.w3.org/2000/svg"
   xmlns:sodipodi="http://sodipodi.sourceforge.net/DTD/sodipodi-0.dtd"
   xmlns:inkscape="http://www.inkscape.org/namespaces/inkscape"
   width="256"
   height="256"
   id="svg5274"
   version="1.1"
   inkscape:version="0.48.3.1 r9886"
   sodipodi:docname="applications-monodevelopment.svg">
  <defs
     id="defs5276" />
  <sodipodi:namedview
     id="base"
     pagecolor="#ffffff"
     bordercolor="#666666"
     borderopacity="1.0"
     inkscape:pageopacity="0.0"
     inkscape:pageshadow="2"
     inkscape:zoom="1.6637515"
     inkscape:cx="124.92526"
     inkscape:cy="65.384634"
     inkscape:document-units="px"
     inkscape:current-layer="layer1"
     showgrid="false"
     inkscape:window-width="1918"
     inkscape:window-height="1007"
     inkscape:window-x="0"
     inkscape:window-y="25"
     inkscape:window-maximized="1" />
  <metadata
     id="metadata5279">
    <rdf:RDF>
      <cc:Work
         rdf:about="">
        <dc:format>image/svg+xml</dc:format>
        <dc:type
           rdf:resource="http://purl.org/dc/dcmitype/StillImage" />
        <dc:title />
      </cc:Work>
    </rdf:RDF>
  </metadata>
  <g
     inkscape:label="Capa 1"
     inkscape:groupmode="layer"
     id="layer1"
     transform="translate(0,-796.36218)">
    <path
       style="fill:#2ad4ff;fill-opacity:1;fill-rule:evenodd;stroke:#000000;stroke-width:7.03177214;stroke-opacity:1"
       d="m 15.009235,1012.2078 c 8.78861,-55.54985 9.33383,-111.84925 1.04665,-168.95155 -3.00783,-20.72522 -6.5613705,-34.03096 12.0326,-32.1461 68.00326,6.89352 130.217355,2.20871 193.853905,0.36882 18.68146,-0.54013 25.02672,1.74207 22.25455,22.50014 -9.40889,70.45404 -9.78486,138.02524 -5.70381,177.68369 2.14376,20.8325 4.317,35.1183 -14.36118,34.4747 -62.87153,-2.1661 -125.743055,-12.9927 -188.614605,-2.6973 -12.3877,2.0285 -24.34865,-6.9576 -20.50811,-31.2324 z"
       id="rect7046-0-2-9"
       inkscape:connector-curvature="0"
       sodipodi:nodetypes="sssssssss" />
    <path
       id="path7050-7-1-0-9-3-8-09"
       d="m 98.185163,811.18389 c 19.165487,-3.17375 105.080747,-1.55471 119.466087,5.63089 13.33817,6.66188 19.03921,20.31848 19.48708,37.60781 l 2.05693,79.34654"
       class="fil2"
       inkscape:connector-curvature="0"
       style="fill:none" />
    <path
       id="path7054-6-7-2-3-9-0-5"
       d="m 18.105457,940.12093 c 0,13.96553 -2.479389,30.50728 -1.367115,44.43439 3.472461,43.48318 20.480911,58.86338 67.082335,55.85868 8.979842,-0.5781 57.496493,1.2689 67.764433,1.2689"
       class="fil2"
       inkscape:connector-curvature="0"
       style="fill:none" />
    <path
       id="path7050-7-1-0-8-5-2-2"
       d="m 98.185163,811.18389 c 19.165487,-3.17375 105.080747,-1.55471 119.466087,5.63089 13.33817,6.66188 19.03921,20.31848 19.48708,37.60781 l 2.05693,79.34654"
       class="fil2"
       inkscape:connector-curvature="0"
       style="fill:none" />
    <path
       style="fill:#ffffff;fill-opacity:1;fill-rule:evenodd;stroke:#000000;display:inline;stroke-opacity:1;stroke-width:5.5;stroke-miterlimit:4;stroke-dasharray:none;stroke-linecap:round;stroke-linejoin:round"
       id="path3607"
       inkscape:connector-curvature="0"
       d="m 60.213917,997.16658 c -8.615871,-20.78812 -20.038334,-39.10816 -20.29226,-73.05855 -0.262267,-35.07649 29.925689,-57.78599 53.784897,-57.7887 28.886696,-0.004 54.302326,24.31077 55.642506,44.45018 1.20946,18.17485 -5.27937,44.60749 -38.77176,44.41102 -15.991953,-0.0925 -32.609022,-13.95894 -32.696568,-34.58909 -0.09471,-22.26189 27.885078,-24.43366 34.940878,-18.76623 2.74073,2.20149 2.65696,6.55783 0.23224,5.7714 -15.065154,-4.88909 -24.372186,4.74656 -23.681026,14.33285 0.93829,13.00706 8.680496,20.74562 22.558936,21.40385 20.01968,0.94781 25.62427,-18.45843 25.11246,-26.33471 -0.62196,-9.57621 -8.99892,-29.27209 -35.05684,-32.8703 -12.303914,-1.69716 -22.501045,1.97605 -29.949599,9.17389 -7.448369,7.19846 -11.635922,14.64207 -12.247692,26.85251 -0.632775,12.62963 2.133719,20.04013 9.712263,36.61024 2.706998,5.91789 10.268429,17.8576 16.12417,29.81349 l -25.412481,10.58815 z" />
    <path
       style="fill:#ffffff;fill-opacity:1;fill-rule:evenodd;stroke:#000000;display:inline;stroke-opacity:1;stroke-width:5.5;stroke-miterlimit:4;stroke-dasharray:none;stroke-linecap:round;stroke-linejoin:round"
       id="path3611"
       inkscape:connector-curvature="0"
       d="m 192.08615,866.31933 c 8.61593,20.78954 20.03833,39.10884 20.29226,73.05997 0.26233,35.07649 -29.92575,57.78593 -53.78484,57.78728 -28.88675,0.005 -54.30245,-24.31009 -55.64251,-44.44746 -1.20939,-18.17689 5.27925,-44.61015 38.77176,-44.41238 15.99196,0.0925 32.60903,13.95894 32.69657,34.58847 0.0947,22.26121 -27.88513,24.43428 -34.94094,18.76624 -2.74067,-2.2015 -2.65701,-6.55722 -0.23218,-5.77141 15.0651,4.88971 24.37201,-4.74724 23.68085,-14.33291 -0.93823,-13.007 -8.68038,-20.74426 -22.55881,-21.40243 -20.01968,-0.94787 -25.62428,18.45905 -25.11253,26.33403 0.62196,9.57615 8.99886,29.27332 35.0569,32.86888 12.30392,1.6979 22.50105,-1.97531 29.94948,-9.17315 7.44849,-7.19914 11.63611,-14.64275 12.24788,-26.85115 0.63271,-12.63031 -2.13385,-20.04012 -9.71239,-36.6103 -2.707,-5.91987 -10.26849,-17.85692 -16.12405,-29.81417 l 25.41236,-10.58951 z" />
  </g>
</svg>
