<?xml version="1.0" encoding="UTF-8" standalone="no"?>
<!-- Created with Inkscape (http://www.inkscape.org/) -->

<svg
   xmlns:dc="http://purl.org/dc/elements/1.1/"
   xmlns:cc="http://creativecommons.org/ns#"
   xmlns:rdf="http://www.w3.org/1999/02/22-rdf-syntax-ns#"
   xmlns:svg="http://www.w3.org/2000/svg"
   xmlns="http://www.w3.org/2000/svg"
   xmlns:sodipodi="http://sodipodi.sourceforge.net/DTD/sodipodi-0.dtd"
   xmlns:inkscape="http://www.inkscape.org/namespaces/inkscape"
   width="256"
   height="256"
   id="svg5274"
   version="1.1"
   inkscape:version="0.48.3.1 r9886"
   sodipodi:docname="applications-ocaml.svg">
  <defs
     id="defs5276" />
  <sodipodi:namedview
     id="base"
     pagecolor="#ffffff"
     bordercolor="#666666"
     borderopacity="1.0"
     inkscape:pageopacity="0.0"
     inkscape:pageshadow="2"
     inkscape:zoom="2.953155"
     inkscape:cx="18.011836"
     inkscape:cy="83.056786"
     inkscape:document-units="px"
     inkscape:current-layer="layer1"
     showgrid="false"
     inkscape:window-width="1918"
     inkscape:window-height="1007"
     inkscape:window-x="0"
     inkscape:window-y="25"
     inkscape:window-maximized="1" />
  <metadata
     id="metadata5279">
    <rdf:RDF>
      <cc:Work
         rdf:about="">
        <dc:format>image/svg+xml</dc:format>
        <dc:type
           rdf:resource="http://purl.org/dc/dcmitype/StillImage" />
        <dc:title />
      </cc:Work>
    </rdf:RDF>
  </metadata>
  <g
     inkscape:label="Capa 1"
     inkscape:groupmode="layer"
     id="layer1"
     transform="translate(0,-796.36218)">
    <path
       style="fill:#2ad4ff;fill-opacity:1;fill-rule:evenodd;stroke:#000000;stroke-width:7.03177214;stroke-opacity:1"
       d="m 11.559946,1009.8618 c 8.78861,-55.54987 9.33383,-111.84924 1.04665,-168.95153 -3.0078298,-20.72523 -6.5613698,-34.03097 12.0326,-32.14611 68.00326,6.89352 130.217364,2.20871 193.853914,0.36882 18.68146,-0.54013 25.02672,1.74207 22.25455,22.50014 -9.40889,70.45405 -9.78486,138.02521 -5.70381,177.68368 2.14376,20.8325 4.317,35.1183 -14.36118,34.4747 -62.87153,-2.1661 -125.743064,-12.9927 -188.614614,-2.6973 -12.3877,2.0285 -24.3486498,-6.9576 -20.50811,-31.2324 z"
       id="rect7046-0-2-9"
       inkscape:connector-curvature="0"
       sodipodi:nodetypes="sssssssss" />
    <path
       id="path7050-7-1-0-9-3-8-09-4-1"
       d="m 98.255812,816.17202 c 18.506438,-3.06461 101.467268,-1.50124 115.357928,5.43725 12.8795,6.43279 18.3845,19.61977 18.81697,36.31458 l 1.98619,76.61797"
       class="fil2"
       inkscape:connector-curvature="0"
       style="fill:none" />
    <path
       id="path7054-6-7-2-3-9-0-5-8-3"
       d="m 20.929874,940.6752 c 0,13.48529 -2.394126,29.45822 -1.320099,42.9064 3.353036,41.9879 19.776616,56.8392 64.775526,53.9378 8.671042,-0.5583 55.519319,1.2253 65.434179,1.2253"
       class="fil2"
       inkscape:connector-curvature="0"
       style="fill:none" />
    <path
       id="path7050-7-1-0-8-5-2-2-0-9"
       d="m 98.255812,816.17202 c 18.506438,-3.06461 101.467268,-1.50124 115.357928,5.43725 12.8795,6.43279 18.3845,19.61977 18.81697,36.31458 l 1.98619,76.61797"
       class="fil2"
       inkscape:connector-curvature="0"
       style="fill:none" />
    <path
       style="fill:#ffffff;fill-opacity:1;fill-rule:evenodd;stroke:#000000;stroke-width:3.83899999;stroke-linecap:round;stroke-linejoin:round;stroke-miterlimit:4;stroke-opacity:1;stroke-dasharray:none;display:inline"
       d="m 65.550963,840.24234 c 0,0 -9.163907,0.80561 -16.889651,6.48588 -1.856695,1.36644 3.886136,1.10791 0.969806,4.95183 -2.912863,3.84056 -11.840895,14.983 -11.840895,14.983 l 4.542253,3.08302 15.449567,-2.87505 c 0,0 10.469328,20.1428 13.17293,31.06698 2.703729,10.92416 -0.454921,46.83533 6.755938,54.6238 9.795029,10.58509 14.524731,24.24188 14.524731,24.24188 l 2.026111,41.99102 2.026216,0.6849 2.026111,-54.96639 c 0,0 19.19138,53.42869 23.29678,53.55639 2.05263,0.067 -3.55064,-14.4758 -4.54044,-28.03215 -0.98992,-13.55602 -2.00624,-25.25225 0.83704,-24.50038 19.36403,5.11969 29.38497,-3.41417 34.1148,-7.51312 2.36492,-2.04784 14.48168,13.99926 16.634,29.87512 2.15566,15.87573 -5.65657,31.58053 -2.61736,31.58053 3.03921,0 10.13384,-33.46049 10.13384,-33.46049 2.62918,-10.697 -2.92607,-21.394 -7.26404,-32.09099 0,0 19.23126,14.70761 21.6195,26.97127 2.38811,12.26368 -11.48565,38.58021 -11.48565,38.58021 l 8.10761,0 9.45621,-41.65193 -7.76879,-21.85156 0.67998,-22.60576 24.92755,34.54407 -29.32104,-55.63822 c 0,0 -8.66236,-50.00447 -20.60638,-49.84334 -11.94081,0.16785 -17.93264,32.35271 -26.68135,33.45715 -8.74898,1.10466 -11.68505,-37.58977 -24.99753,-37.21365 -13.312355,0.37937 -22.396685,45.23058 -24.319888,39.9464 -7.287231,-20.01523 -22.967959,-58.38043 -22.967959,-58.38042 z"
       id="path5243"
       inkscape:connector-curvature="0"
       sodipodi:nodetypes="csscccssccccsssccccczccccccczzzsc" />
  </g>
</svg>
