<?xml version="1.0" encoding="UTF-8" standalone="no"?>
<!-- Created with Inkscape (http://www.inkscape.org/) -->

<svg
   xmlns:dc="http://purl.org/dc/elements/1.1/"
   xmlns:cc="http://creativecommons.org/ns#"
   xmlns:rdf="http://www.w3.org/1999/02/22-rdf-syntax-ns#"
   xmlns:svg="http://www.w3.org/2000/svg"
   xmlns="http://www.w3.org/2000/svg"
   xmlns:sodipodi="http://sodipodi.sourceforge.net/DTD/sodipodi-0.dtd"
   xmlns:inkscape="http://www.inkscape.org/namespaces/inkscape"
   width="256"
   height="256"
   id="svg2"
   version="1.1"
   inkscape:version="0.48.3.1 r9886"
   sodipodi:docname="applications-arcade.svg">
  <defs
     id="defs4" />
  <sodipodi:namedview
     id="base"
     pagecolor="#ffffff"
     bordercolor="#666666"
     borderopacity="1.0"
     inkscape:pageopacity="0.0"
     inkscape:pageshadow="2"
     inkscape:zoom="2.523425"
     inkscape:cx="101.22651"
     inkscape:cy="124.37626"
     inkscape:document-units="px"
     inkscape:current-layer="layer1"
     showgrid="false"
     inkscape:window-width="1918"
     inkscape:window-height="1007"
     inkscape:window-x="0"
     inkscape:window-y="25"
     inkscape:window-maximized="1" />
  <metadata
     id="metadata7">
    <rdf:RDF>
      <cc:Work
         rdf:about="">
        <dc:format>image/svg+xml</dc:format>
        <dc:type
           rdf:resource="http://purl.org/dc/dcmitype/StillImage" />
        <dc:title />
      </cc:Work>
    </rdf:RDF>
  </metadata>
  <g
     inkscape:label="Capa 1"
     inkscape:groupmode="layer"
     id="layer1"
     transform="translate(0,-796.36218)">
    <path
       style="fill:#2ad4ff;fill-opacity:1;fill-rule:nonzero;stroke:#000000;stroke-width:6;stroke-linecap:round;stroke-linejoin:round;stroke-miterlimit:4;stroke-opacity:1;stroke-dasharray:none"
       inkscape:connector-curvature="0"
       id="path4782-4"
       d="m 244.41289,867.17404 c -12.6151,13.87273 -37.82608,9.02619 -52.0627,-2.3338 -14.22808,-11.35315 -17.83696,-32.95701 -5.22194,-46.8298 11.39923,-14.3157 35.45412,-15.19661 50.89463,-3.39661 14.2367,11.35992 19.00215,38.69044 6.39001,52.56021 z"
       class="fil0 str0"
       sodipodi:nodetypes="ssccs" />
    <path
       style="fill:none"
       inkscape:connector-curvature="0"
       id="path4788-1"
       d="m 213.96026,806.97382 c 7.78794,-1.6227 24.58413,7.10756 29.15873,12.00136 21.1876,22.66749 -12.19076,64.62216 -41.97653,50.10107"
       class="fil3" />
    <path
       style="fill:#2ad4ff;fill-opacity:1;fill-rule:evenodd;stroke:#000000;stroke-width:6;stroke-linecap:round;stroke-linejoin:round;stroke-miterlimit:4;stroke-opacity:1;stroke-dasharray:none"
       d="M 6.1127778,997.0669 C 28.935838,985.69947 51.758899,983.40427 74.581959,978.6956 67.809304,1003.0439 61.582345,1036.1233 53.88921,1045.7439 20.516909,1027.9187 6.665429,1014.1694 6.1127778,997.0669 z"
       id="path12086"
       inkscape:connector-curvature="0"
       sodipodi:nodetypes="cccc" />
    <path
       style="fill:#ffffff;fill-opacity:1;fill-rule:nonzero;stroke:#000000;stroke-width:3.06749535;stroke-linecap:round;stroke-linejoin:round;stroke-miterlimit:4;stroke-opacity:1;stroke-dasharray:none;stroke-dashoffset:0"
       inkscape:transform-center-x="-0.36297959"
       inkscape:transform-center-y="1.1650914"
       d="m 225.02612,875.78209 c -0.97163,1.07723 -15.92158,-6.50884 -17.27224,-5.9529 -1.35065,0.55593 -5.97222,13.00653 -7.43438,12.93105 -1.46215,-0.0755 -5.13087,-12.95407 -6.41492,-13.64601 -1.28405,-0.69194 -24.52133,6.80057 -25.37296,5.62921 -0.85164,-1.17136 17.55695,-15.30538 17.30642,-16.72416 -0.25055,-1.41876 -25.00632,-13.81838 -24.60612,-15.20356 0.40018,-1.38518 32.34024,4.27617 33.31188,3.19892 0.97165,-1.07722 -6.40828,-18.55921 -5.05763,-19.11513 1.35066,-0.55594 11.4734,12.65838 12.93556,12.73386 1.46215,0.0755 17.09498,-19.833 18.37903,-19.14106 1.28406,0.69194 -7.06828,24.52371 -6.21665,25.69508 0.85163,1.17135 30.826,2.50646 30.3516,3.86878 -0.96016,2.75722 -30.60294,5.58148 -31.00335,6.96659 -0.40042,1.38511 12.0654,17.6821 11.09376,18.75933 z"
       id="path2990"
       inkscape:connector-curvature="0"
       sodipodi:nodetypes="sssssssssssssss" />
    <g
       id="g3761"
       transform="translate(-2.3777207,3.5665811)">
      <path
         inkscape:transform-center-y="31.03789"
         inkscape:transform-center-x="104.86804"
         sodipodi:nodetypes="ccccccccc"
         id="rect11194-1-9-4-1-0-1"
         d="m 139.06189,907.02406 c -5.60261,5.45254 -7.47484,12.59357 -6.65371,13.81146 l 0.93208,1.38232 c 0.76979,1.14179 5.31372,-1.64272 10.57121,-6.37094 l 2.05823,-1.91967 c 5.75842,-5.55066 9.68514,-10.9361 8.85032,-12.17429 l -0.93142,-1.38167 c -0.78308,-1.16195 -8.15285,0.2138 -13.52791,5.09493 z"
         style="fill:#ffffff;fill-opacity:1;fill-rule:evenodd;stroke:#000000;stroke-width:3;stroke-miterlimit:4;stroke-opacity:1;stroke-dasharray:none"
         inkscape:connector-curvature="0" />
      <path
         inkscape:connector-curvature="0"
         style="fill:#ffffff;fill-opacity:1;fill-rule:evenodd;stroke:#000000;stroke-width:3;stroke-miterlimit:4;stroke-opacity:1;stroke-dasharray:none"
         d="m 115.38159,931.264 c -5.60261,5.45261 -8.23977,12.59357 -7.41864,13.8116 l 0.93224,1.38225 c 0.76955,1.14187 5.31357,-1.64272 10.57105,-6.37087 l 2.05831,-1.91966 c 5.75833,-5.55074 9.68506,-10.93617 8.85032,-12.17436 l -0.9315,-1.38168 c -0.78324,-1.1618 -6.62298,0.21395 -11.99805,5.09508 z"
         id="rect11194-1-9-4-1-0-1-0"
         sodipodi:nodetypes="ccccccccc"
         inkscape:transform-center-x="-26.006048"
         inkscape:transform-center-y="12.688437" />
      <path
         inkscape:connector-curvature="0"
         style="fill:#ffffff;fill-opacity:1;fill-rule:evenodd;stroke:#000000;stroke-width:3;stroke-miterlimit:4;stroke-opacity:1;stroke-dasharray:none"
         d="m 91.796831,957.39863 c -5.602609,5.4526 -9.387159,10.68124 -8.566025,11.8992 l 0.93224,1.38232 c 0.769552,1.1418 7.225886,-0.49539 12.483286,-5.22347 l 2.058396,-2.68467 c 5.758332,-5.55073 7.772742,-11.31856 6.938002,-12.55675 l -0.9315,-1.38167 c -0.78325,-1.16188 -5.4756,1.74364 -10.850746,6.62478 z"
         id="rect11194-1-9-4-1-0-1-0-1"
         sodipodi:nodetypes="ccccccccc"
         inkscape:transform-center-x="5.2151816"
         inkscape:transform-center-y="-6.909193" />
      <path
         inkscape:connector-curvature="0"
         style="fill:#ffffff;fill-opacity:1;fill-rule:evenodd;stroke:#000000;stroke-width:3;stroke-miterlimit:4;stroke-opacity:1;stroke-dasharray:none"
         d="m 193.39399,853.46971 c -5.60261,5.45268 -8.62223,12.9761 -7.80111,14.19406 l 0.93224,1.38225 c 0.76956,1.14186 5.31357,-1.64272 10.57106,-6.37087 l 2.05831,-1.91967 c 5.75833,-5.55073 9.68506,-10.93609 8.85032,-12.17436 l -0.9315,-1.38167 c -0.78325,-1.16181 -7.38792,0.5964 -12.76298,5.47746 z"
         id="rect11194-1-9-4-1-0-1-0-4"
         sodipodi:nodetypes="ccccccccc"
         inkscape:transform-center-x="-26.006047"
         inkscape:transform-center-y="12.688427" />
      <path
         inkscape:connector-curvature="0"
         style="fill:#ffffff;fill-opacity:1;fill-rule:evenodd;stroke:#000000;stroke-width:3;stroke-miterlimit:4;stroke-opacity:1;stroke-dasharray:none"
         d="m 169.42677,879.98679 c -5.60261,5.45268 -9.38715,10.68125 -8.56602,11.89928 l 0.93224,1.38225 c 0.76955,1.14179 7.99081,-0.11294 13.24821,-4.84102 l 1.67593,-1.91974 c 5.75833,-5.55073 7.39028,-12.46594 6.55554,-13.70413 l -0.9315,-1.38175 c -0.78325,-1.16181 -5.4756,1.74379 -10.85075,6.62486 z"
         id="rect11194-1-9-4-1-0-1-0-1-3"
         sodipodi:nodetypes="ccccccccc"
         inkscape:transform-center-x="5.2151786"
         inkscape:transform-center-y="-6.9092182" />
    </g>
  </g>
</svg>
