<?xml version="1.0" encoding="UTF-8" standalone="no"?>
<!-- Created with Inkscape (http://www.inkscape.org/) -->

<svg
   xmlns:dc="http://purl.org/dc/elements/1.1/"
   xmlns:cc="http://creativecommons.org/ns#"
   xmlns:rdf="http://www.w3.org/1999/02/22-rdf-syntax-ns#"
   xmlns:svg="http://www.w3.org/2000/svg"
   xmlns="http://www.w3.org/2000/svg"
   xmlns:sodipodi="http://sodipodi.sourceforge.net/DTD/sodipodi-0.dtd"
   xmlns:inkscape="http://www.inkscape.org/namespaces/inkscape"
   version="1.1"
   width="48"
   height="48"
   id="svg1307"
   inkscape:version="0.48.3.1 r9886"
   sodipodi:docname="gnome-settings.svg">
  <sodipodi:namedview
     pagecolor="#ffffff"
     bordercolor="#666666"
     borderopacity="1"
     objecttolerance="10"
     gridtolerance="10"
     guidetolerance="10"
     inkscape:pageopacity="0"
     inkscape:pageshadow="2"
     inkscape:window-width="1918"
     inkscape:window-height="1007"
     id="namedview8"
     showgrid="false"
     inkscape:zoom="11.302194"
     inkscape:cx="27.936667"
     inkscape:cy="23.652449"
     inkscape:window-x="0"
     inkscape:window-y="25"
     inkscape:window-maximized="1"
     inkscape:current-layer="svg1307" />
  <defs
     id="defs1309" />
  <metadata
     id="metadata1312">
    <rdf:RDF>
      <cc:Work
         rdf:about="">
        <dc:format>image/svg+xml</dc:format>
        <dc:type
           rdf:resource="http://purl.org/dc/dcmitype/StillImage" />
        <dc:title />
      </cc:Work>
    </rdf:RDF>
  </metadata>
  <rect
     style="fill:none;stroke:none"
     id="rect1315"
     y="-3.6610169"
     x="-3.6610169"
     height="55.728817"
     width="55.728817" />
  <rect
     style="fill:none;stroke:none"
     id="rect1315-3"
     y="-1.8070515"
     x="-1.497844"
     height="51.924244"
     width="51.924244" />
  <path
     style="fill:#51dafd;fill-opacity:1;fill-rule:evenodd;stroke:#000000;stroke-width:1.397596;stroke-linecap:round;stroke-linejoin:round;stroke-miterlimit:4;stroke-opacity:1;stroke-dasharray:none"
     d="M 7.3252194,2.5199687 C 4.8398763,2.2854435 2.6711438,4.5246359 2.8291756,7.0160133 c 0.7436347,11.7234927 0.982045,23.2448937 0,34.2781147 -0.2213233,2.486554 2.004842,4.656819 4.4960438,4.496045 11.4260396,-0.737403 22.8520776,-0.647532 34.2781156,0 2.492386,0.141247 4.662743,-2.005232 4.496045,-4.496045 -0.687956,-10.279445 -0.322362,-22.314806 0,-34.2781147 0.06724,-2.4954786 -2.002925,-4.6236714 -4.496045,-4.4960446 -11.196766,0.5731806 -22.40388,1.1204919 -34.2781156,0 z"
     id="path3788"
     inkscape:connector-curvature="0"
     sodipodi:nodetypes="sssssssss" />
  <path
     style="fill:#ffffff;fill-opacity:1;fill-rule:evenodd;stroke:#000000;stroke-width:1.397596;stroke-linecap:round;stroke-linejoin:round;stroke-miterlimit:4;stroke-opacity:1;stroke-dasharray:none"
     d="m 32.070368,7.6583061 c 1.052145,-0.6315451 2.216621,-1.0758727 4.293216,0 l 0,3.5495079 -4.293216,0 c -0.191381,-0.896098 -0.474907,-1.6539768 0,-3.5495079 z"
     id="path3786"
     inkscape:connector-curvature="0"
     sodipodi:nodetypes="ccccc" />
  <path
     style="fill:#ffffff;fill-opacity:1;fill-rule:evenodd;stroke:#000000;stroke-width:1.397596;stroke-linecap:round;stroke-linejoin:round;stroke-miterlimit:4;stroke-opacity:1;stroke-dasharray:none"
     d="m 12.694923,7.2113772 4.163264,0.6497574 c -0.571371,5.2589764 -0.806194,10.1814044 0,14.0628164 l -4.293215,0 c 0.433944,-4.036688 0.377981,-9.652923 0.129951,-14.7125738 z"
     id="path3784"
     inkscape:connector-curvature="0"
     sodipodi:nodetypes="ccccc" />
  <path
     style="fill:#ffffff;fill-opacity:1;fill-rule:evenodd;stroke:#000000;stroke-width:1.397596;stroke-linecap:round;stroke-linejoin:round;stroke-miterlimit:4;stroke-opacity:1;stroke-dasharray:none"
     d="m 28.723689,13.33752 c 4.032229,0 8.725198,-0.389855 11.732479,-0.389855 1.766672,0 2.397946,1.800838 2.397946,3.567511 l 0,4.462239 c 0,1.766673 -1.423738,3.389569 -3.177655,3.177656 -3.804132,-0.459628 -7.494236,-0.577169 -10.95277,0 -1.742575,0.290805 -3.352504,-0.761796 -3.307607,-2.527898 l 0.129951,-5.111997 c 0.0449,-1.766103 1.410983,-3.177656 3.177656,-3.177656 z"
     id="path3782"
     inkscape:connector-curvature="0"
     sodipodi:nodetypes="sssssssss" />
  <path
     style="fill:#ffffff;fill-opacity:1;fill-rule:evenodd;stroke:#000000;stroke-width:1.397596;stroke-linecap:round;stroke-linejoin:round;stroke-miterlimit:4;stroke-opacity:1;stroke-dasharray:none"
     d="m 9.2520962,24.155071 10.9527708,0 c 1.766673,0 3.036164,1.416658 3.177656,3.177656 l 0.389854,4.852094 c 0.141492,1.760997 -1.02286,3.385802 -2.787801,3.307607 L 9.2520962,34.972622 C 7.4871551,34.894421 6.0744409,33.561639 6.0744409,31.794966 l 0,-4.462239 c 0,-1.766673 1.410983,-3.177656 3.1776553,-3.177656 z"
     id="path3780"
     inkscape:connector-curvature="0"
     sodipodi:nodetypes="sssssssss" />
  <path
     style="fill:#ffffff;fill-opacity:1;fill-rule:evenodd;stroke:#000000;stroke-width:1.397596;stroke-linecap:round;stroke-linejoin:round;stroke-miterlimit:4;stroke-opacity:1;stroke-dasharray:none"
     d="m 32.070368,26.318581 4.293216,0 c -0.255884,5.208394 -0.500055,10.401172 0.259902,14.25511 -1.517706,0.676029 -3.035411,0.447134 -4.553118,-0.259903 0.394502,-4.763695 0.941882,-9.565609 0,-13.995207 z"
     id="path3778"
     inkscape:connector-curvature="0"
     sodipodi:nodetypes="ccccc" />
  <path
     style="fill:#ffffff;fill-opacity:1;fill-rule:evenodd;stroke:#000000;stroke-width:1.397596;stroke-linecap:round;stroke-linejoin:round;stroke-miterlimit:4;stroke-opacity:1;stroke-dasharray:none"
     d="m 12.564972,37.169937 4.293215,0 0,3.312874 c -1.68313,0.504116 -2.934907,0.145526 -4.293215,0 z"
     id="rect3938"
     inkscape:connector-curvature="0"
     sodipodi:nodetypes="ccccc" />
</svg>
