<?xml version="1.0" encoding="UTF-8" standalone="no"?>
<!-- Created with Inkscape (http://www.inkscape.org/) -->

<svg
   xmlns:dc="http://purl.org/dc/elements/1.1/"
   xmlns:cc="http://creativecommons.org/ns#"
   xmlns:rdf="http://www.w3.org/1999/02/22-rdf-syntax-ns#"
   xmlns:svg="http://www.w3.org/2000/svg"
   xmlns="http://www.w3.org/2000/svg"
   xmlns:sodipodi="http://sodipodi.sourceforge.net/DTD/sodipodi-0.dtd"
   xmlns:inkscape="http://www.inkscape.org/namespaces/inkscape"
   width="256"
   height="256"
   id="svg8370"
   version="1.1"
   inkscape:version="0.48.3.1 r9886"
   sodipodi:docname="huayra-menu-development.svg">
  <defs
     id="defs8372" />
  <sodipodi:namedview
     id="base"
     pagecolor="#ffffff"
     bordercolor="#666666"
     borderopacity="1.0"
     inkscape:pageopacity="0.0"
     inkscape:pageshadow="2"
     inkscape:zoom="2.4319133"
     inkscape:cx="71.906185"
     inkscape:cy="115.20956"
     inkscape:document-units="px"
     inkscape:current-layer="layer1"
     showgrid="false"
     inkscape:window-width="1918"
     inkscape:window-height="1007"
     inkscape:window-x="0"
     inkscape:window-y="25"
     inkscape:window-maximized="1" />
  <metadata
     id="metadata8375">
    <rdf:RDF>
      <cc:Work
         rdf:about="">
        <dc:format>image/svg+xml</dc:format>
        <dc:type
           rdf:resource="http://purl.org/dc/dcmitype/StillImage" />
        <dc:title />
      </cc:Work>
    </rdf:RDF>
  </metadata>
  <g
     inkscape:label="Capa 1"
     inkscape:groupmode="layer"
     id="layer1"
     transform="translate(0,-796.36218)">
    <path
       inkscape:connector-curvature="0"
       id="path3010"
       style="font-size:86.23487854px;font-style:normal;font-variant:normal;font-weight:normal;font-stretch:normal;line-height:125%;letter-spacing:0px;word-spacing:0px;fill:#2ad4ff;fill-opacity:1;stroke:#000000;stroke-width:5;stroke-linecap:round;stroke-linejoin:round;stroke-miterlimit:4;stroke-opacity:1;stroke-dasharray:none;font-family:OpenDyslexic;-inkscape-font-specification:OpenDyslexic"
       d="m 81.832989,823.21933 c 13.967907,0 20.911041,10.75242 20.911041,32.18914 1.00687,46.9088 -27.828946,52.05942 -36.921034,25.45187 -3.582182,-8.69525 -4.777291,-17.81772 -4.819352,-25.24769 0,-21.57284 6.943127,-32.3933 20.829342,-32.3933 m 0,-10.13993 c -13.722835,0 -24.260059,4.55958 -31.448217,13.27036 -7.269846,8.7108 -11.108994,21.64093 -11.680784,38.45004 0,33.68627 14.049633,51.72038 41.577011,51.72038 27.527384,0 42.067114,-18.10215 43.129014,-51.65234 0,-33.68626 -14.04964,-51.78844 -41.577024,-51.78844"
       sodipodi:nodetypes="ccccccccscc" />
    <path
       inkscape:connector-curvature="0"
       id="path3012"
       style="font-size:86.23487854px;font-style:normal;font-variant:normal;font-weight:normal;font-stretch:normal;line-height:125%;letter-spacing:0px;word-spacing:0px;fill:#2ad4ff;fill-opacity:1;stroke:#000000;stroke-width:5;stroke-linecap:round;stroke-linejoin:round;stroke-miterlimit:4;stroke-opacity:1;stroke-dasharray:none;font-family:OpenDyslexic;-inkscape-font-specification:OpenDyslexic"
       d="m 221.67551,914.68277 -0.8224,-14.23068 -25.98098,-1.2336 c -3.98018,-27.39118 -1.51228,-60.1061 0.8224,-88.54976 -15.32513,7.02635 -31.83321,11.80834 -47.86109,9.14794 l 0,20.98917 27.36404,-8.67155 c 5.23611,25.32149 3.75722,45.90868 2.05599,71.19619 l -27.62577,-3.28959 -0.8224,19.16507 c 24.19972,-5.00179 48.76181,-6.78174 72.87021,-4.52319"
       sodipodi:nodetypes="ccccccccccc" />
    <path
       inkscape:connector-curvature="0"
       id="path3014"
       style="font-size:86.23487853999999686px;font-style:normal;font-variant:normal;font-weight:normal;font-stretch:normal;line-height:125%;letter-spacing:0px;word-spacing:0px;fill:#ffffff;fill-opacity:1;stroke:#000000;stroke-width:5;stroke-linecap:round;stroke-linejoin:round;stroke-miterlimit:4;stroke-opacity:1;stroke-dasharray:none;font-family:OpenDyslexic;-inkscape-font-specification:OpenDyslexic"
       d="m 113.36847,1033.1696 0,-22.8658 -25.158586,4.112 C 83.777995,987.35612 84.126567,952.20092 85.742691,925.04367 69.371252,935.63789 57.999782,938.6096 36.647994,936.65878 l 2.878392,18.52199 25.719262,-7.02675 c 6.925802,21.17347 7.860528,45.11727 8.223977,67.08418 l -30.504173,-0.4112 -1.233597,18.3426 c 27.480852,-5.8989 44.703717,-3.6261 71.636615,0"
       sodipodi:nodetypes="ccccccccccc" />
    <path
       inkscape:connector-curvature="0"
       id="path3016"
       style="font-size:86.23487853999999686px;font-style:normal;font-variant:normal;font-weight:normal;font-stretch:normal;line-height:125%;letter-spacing:0px;word-spacing:0px;fill:#ffffff;fill-opacity:1;stroke:#000000;stroke-width:5;stroke-linecap:round;stroke-linejoin:round;stroke-miterlimit:4;stroke-opacity:1;stroke-dasharray:none;font-family:OpenDyslexic;-inkscape-font-specification:OpenDyslexic"
       d="m 181.00259,941.70626 c 13.96789,0 22.14462,17.33157 22.14462,38.76831 -1.06188,10.27601 -2.44496,18.78554 -6.12071,24.36583 -9.30008,19.0311 -26.98786,4.0133 -32.03393,-5.4931 -3.98114,-9.06842 -5.17831,-14.52025 -5.23041,-21.95815 0,-21.57284 7.35432,-35.68287 21.24053,-35.68287 m 0,-10.13993 c -13.72283,0 -24.26007,4.55956 -31.44823,13.27035 -7.26984,8.71081 -11.10898,21.64094 -11.68077,38.45005 0,33.68625 17.33923,58.71085 44.8666,58.71085 27.5274,0 38.77752,-25.0926 39.83942,-58.64282 0,-33.68626 -14.04962,-51.78843 -41.57702,-51.78843"
       sodipodi:nodetypes="cccccccccscc" />
  </g>
</svg>
