<?xml version="1.0" encoding="UTF-8" standalone="no"?>
<!-- Created with Inkscape (http://www.inkscape.org/) -->

<svg
   xmlns:dc="http://purl.org/dc/elements/1.1/"
   xmlns:cc="http://creativecommons.org/ns#"
   xmlns:rdf="http://www.w3.org/1999/02/22-rdf-syntax-ns#"
   xmlns:svg="http://www.w3.org/2000/svg"
   xmlns="http://www.w3.org/2000/svg"
   xmlns:sodipodi="http://sodipodi.sourceforge.net/DTD/sodipodi-0.dtd"
   xmlns:inkscape="http://www.inkscape.org/namespaces/inkscape"
   width="256"
   height="256"
   id="svg8370"
   version="1.1"
   inkscape:version="0.48.3.1 r9886"
   sodipodi:docname="huayra-menu-accesibility.svg">
  <defs
     id="defs8372" />
  <sodipodi:namedview
     id="base"
     pagecolor="#ffffff"
     bordercolor="#666666"
     borderopacity="1.0"
     inkscape:pageopacity="0.0"
     inkscape:pageshadow="2"
     inkscape:zoom="0.70977575"
     inkscape:cx="232.18741"
     inkscape:cy="94.189234"
     inkscape:document-units="px"
     inkscape:current-layer="layer1"
     showgrid="false"
     inkscape:window-width="1438"
     inkscape:window-height="827"
     inkscape:window-x="0"
     inkscape:window-y="25"
     inkscape:window-maximized="1" />
  <metadata
     id="metadata8375">
    <rdf:RDF>
      <cc:Work
         rdf:about="">
        <dc:format>image/svg+xml</dc:format>
        <dc:type
           rdf:resource="http://purl.org/dc/dcmitype/StillImage" />
        <dc:title />
      </cc:Work>
    </rdf:RDF>
  </metadata>
  <g
     inkscape:label="Capa 1"
     inkscape:groupmode="layer"
     id="layer1"
     transform="translate(0,-796.36218)">
    <path
       id="_79208600-8-6"
       class="fil2 str1"
       d="m 44.765951,841.25949 c 29.180276,-52.41569 117.637689,-48.19598 166.214759,-9.44983 44.30063,35.3352 51.23685,103.05307 27.8835,150.70303 -8.59774,17.54511 -18.62512,24.37561 -33.33828,36.87411 -12.62579,7.2998 -27.65241,9.6643 -42.09446,13.296 l -0.41231,-1.6732 c 25.48307,-11.7428 46.49225,-21.6922 61.1237,-45.13987 25.17537,-40.34201 18.88766,-95.4932 -10.49034,-132.72846 C 172.21299,800.61976 99.686853,813.89709 44.765951,841.25949 z"
       inkscape:connector-curvature="0"
       style="fill:#1f1a17;fill-rule:evenodd;stroke:#1f1a17;stroke-width:0.6175223"
       sodipodi:nodetypes="csccccccc" />
    <path
       sodipodi:type="arc"
       style="fill:#00923f;fill-opacity:1;fill-rule:evenodd;stroke:#737373;stroke-width:20;stroke-linecap:round;stroke-linejoin:bevel;stroke-miterlimit:4;stroke-opacity:1;stroke-dasharray:none"
       id="path5865"
       sodipodi:cx="-17455.107"
       sodipodi:cy="9922.3213"
       sodipodi:rx="559.21497"
       sodipodi:ry="559.21497"
       d="m -16897.509,9879.832 a 559.21497,559.21497 0 1 1 -1.061,-12.1708"
       sodipodi:start="6.2071318"
       sodipodi:end="12.46847"
       sodipodi:open="true"
       transform="matrix(0.20865736,0,0,0.20865736,3766.9153,-1144.2574)" />
    <g
       style="fill-rule:evenodd"
       id="g5871"
       transform="matrix(0.20865736,0,0,0.185565,3717.0695,-594.83658)">
      <path
         class="fil3"
         d="m -17655.619,7761.9559 c 85.85,-110.379 422.255,-176.182 544.994,-158.666 568.495,81.14 633.403,1047.16 48.718,1177.384"
         id="path4788-1-9"
         inkscape:connector-curvature="0"
         style="fill:none" />
      <g
         transform="matrix(0.5112959,0,0,0.5112959,-6124.3906,253.52705)"
         id="g5846">
        <path
           style="fill:#b8db7c;fill-opacity:1;fill-rule:evenodd;stroke:#737373;stroke-width:20;stroke-miterlimit:4;stroke-opacity:1;stroke-dasharray:none"
           d="m -21741.551,14438.154 c -144.35,2.973 -254.209,113.743 -245.282,247.469 0,111.456 72.986,205.673 173.313,236.719 l -457.594,-1.344 c -141.845,-0.419 -255.842,25.142 -255.625,57.344 l 0.313,46.656 c 0.217,32.202 114.592,58.456 256.437,58.875 l 233.719,0.688 c 143.822,136.184 109.255,519.852 -19.937,812.125 l -279.876,388.344 c -59.748,82.905 -83.594,159.976 -53.468,172.812 l 43.625,18.594 c 30.125,12.836 102.47,-43.563 162.219,-126.469 l 299.937,-416.156 c 1.878,-0.839 3.739,-1.652 5.594,-2.407 54.812,-87.167 133.421,-104.256 212.031,-70.906 l 434.781,508.063 c 66.099,77.241 142.386,126.632 171.031,110.719 l 41.469,-23.032 c 28.646,-15.913 -1.495,-90.915 -67.593,-168.156 l -328.344,-383.688 c -168.924,-267.03 -133.912,-623.52 15,-817.968 l 217.5,0.656 c 141.845,0.42 255.873,-25.173 255.656,-57.375 l -0.312,-46.625 c -0.218,-32.202 -114.592,-58.455 -256.438,-58.875 l -487.562,-1.437 c 101.081,-30.606 174.75,-125.191 174.75,-237.157 0,-136.706 -109.842,-247.469 -245.344,-247.469 z"
           id="rect11194-1-9-4-0-6-5"
           inkscape:connector-curvature="0" />
        <g
           style="fill-rule:evenodd"
           id="_79162808-7-3-9"
           transform="matrix(0.53890738,0,0,0.53890738,-22545.807,13614.261)">
          <path
             style="fill:#1f1a17;stroke:#1f1a17;stroke-width:2.34375"
             inkscape:connector-curvature="0"
             d="m 1174.98,1651.34 c 151.696,-168.739 458.797,-203.52 633.996,-48.7652 159.776,141.131 194.279,398.256 110.052,588.573 -31.009,70.077 -79.3992,135.265 -144.688,177.062 -45.5367,29.1563 -99.7324,38.5992 -151.819,53.1059 l -1.4871,-6.6832 c 91.9078,-46.902 167.68,-86.6402 220.45,-180.292 90.798,-161.13 68.1211,-381.408 -37.834,-530.129 -149.457,-209.774 -430.591,-162.159 -628.67,-52.8715 z"
             class="fil2 str1"
             id="_79208600-8-8-3" />
        </g>
        <path
           style="fill:none"
           inkscape:connector-curvature="0"
           id="path4788-1-3-5"
           d="m -21912.607,14504.181 c 34.818,-44.766 171.248,-71.452 221.025,-64.349 230.555,32.907 256.879,424.681 19.758,477.493"
           class="fil3" />
      </g>
      <path
         sodipodi:nodetypes="csscccccccccccccccccccccccccccccccccsccccccccsccccccccccccsccccccc"
         inkscape:connector-curvature="0"
         id="path5853"
         d="m -17203.219,7883.9549 c 0,-0.747 16.654,-1.47 46.504,-2.074 14.925,-0.302 33.15,-0.573 54.242,-0.762 21.092,-0.189 45.052,-0.297 71.448,-0.226 l 0,0 c 12.165,0.03 24.855,0.08 38.03,0.256 13.175,0.172 26.833,0.465 40.931,1.022 13.272,0.526 26.863,1.477 40.744,2.423 18.515,1.26 37.685,2.151 57.413,2.826 11.386,0.257 23.613,3.624 32.818,12.23 6.847,6.655 10.856,15.976 10.991,25.65 0.121,9.126 -3.073,18.289 -9.207,25.37 -6.672,7.539 -16.387,11.898 -26.418,12.192 -16.63,0.509 -32.126,5.765 -49.176,6.278 -25.034,0.754 -49.625,1.575 -73.638,2.672 -24.012,1.098 -48.811,-2.309 -71.535,-0.519 -8.146,0.653 -16.017,1.14 -23.447,2.542 l 0,0 c -1.065,0.243 -1.736,0.3 -1.917,0.432 l 0,0 c -0.09,0.148 0.312,-0.178 1.256,-0.936 l 0,0 c -0.01,0.01 -0.03,0.03 -0.03,0.05 0,0 0,0 0,0.01 -7.177,8.17 -24.987,35.389 -30.349,46.557 -27.45,72.029 -28.73,132.009 -30.812,215.777 0.74,8.996 -0.421,17.645 0.556,24.497 0.978,6.852 2.036,12.592 2.975,17.182 0.472,2.307 0.921,4.313 1.336,6.017 0.407,1.667 0.773,3.029 1.103,4.098 0.155,0.501 0.297,0.928 0.433,1.289 0.126,0.319 0.222,0.564 0.333,0.747 0.05,0.07 0.07,0.123 0.101,0.156 0.02,0.02 0.02,0.04 0,0.05 -0.01,0.03 0.02,0.02 0.05,0.01 0.114,-0.06 0.185,-0.159 0.237,-0.144 0.03,0 0.05,0.04 0.06,0.09 0.01,0.05 0.01,0.133 -0.03,0.246 -0.03,0.07 -0.09,0.155 -0.23,0.21 -0.118,0.03 -0.243,0.02 -0.334,-0.03 -0.111,-0.05 -0.216,-0.118 -0.299,-0.192 -0.217,-0.185 -0.434,-0.453 -0.633,-0.75 -0.236,-0.347 -0.48,-0.771 -0.729,-1.255 -0.531,-1.034 -1.106,-2.388 -1.706,-4.022 -0.617,-1.678 -1.27,-3.671 -1.939,-5.96 -1.331,-4.548 -2.78,-10.284 -4.14,-17.16 -1.36,-6.876 -2.623,-14.894 -3.715,-23.936 -2.069,-17.102 -6.162,-34.432 -5.528,-58.453 0.633,-24.022 3.337,-60.092 9.502,-89.25 5.239,-24.606 8.153,-47.845 16.787,-69.47 8.671,-21.176 26.27,-42.803 40.058,-52.674 0,-0.01 0,-0.02 0,-0.02 0,-0.02 0.02,-0.04 0.04,-0.05 l 0,0 c 1.127,-0.944 1.784,-1.373 1.93,-1.329 1.26,-0.461 2.586,-0.861 3.874,-1.053 l 0,0 c 8.177,-1.575 16.395,-2.162 24.435,-2.832 22.846,-1.932 46.388,-3.417 70.483,-4.589 24.095,-1.172 48.744,-2.032 73.803,-2.786 17.067,-0.514 33.931,-4.744 50.549,-5.219 15.929,-1.793 16.979,-16.307 17.06,-25.241 0.986,-16.915 -23.406,-26.336 -46.438,-27.736 -100.515,-7.165 -187.86,-8.276 -281.324,-10.096 -29.844,-0.67 -46.5,-1.367 -46.5,-2.114 z"
         style="fill:#000000;stroke:none" />
      <path
         sodipodi:nodetypes="ccccsccccccccccccccccccccccccccccccccccccccccccccccccccccsccccccccccccccccccsscsccc"
         inkscape:connector-curvature="0"
         id="path5858"
         d="m -17406.114,8524.2659 c 0.488,0.328 -2.507,5.808 -8.44,15.59 -2.967,4.89 -6.669,10.856 -11.067,17.775 -4.397,6.919 -9.49,14.791 -15.283,23.467 -5.368,8.042 -11.324,16.792 -17.951,26.068 -6.627,9.276 -13.924,19.078 -22.057,29.152 -6.01,7.444 -12.5,15.061 -19.744,22.521 -5.601,5.779 -11.715,11.555 -18.77,16.663 -4.995,3.686 -10.825,7.177 -17.767,8.886 -2.711,0.657 -5.667,0.909 -8.735,0.529 -2.875,-0.373 -5.651,-1.379 -8.117,-2.966 -9.153,-5.736 -18.509,-11.62 -28.036,-17.627 -1.279,-4.435 -2.569,-8.904 -3.867,-13.404 -0.138,-5.136 0.679,-10.214 2.224,-14.992 l 0,0 c 2.232,-6.52 5.725,-12.461 9.865,-17.743 1.073,-1.378 2.139,-2.837 3.248,-4.34 1.091,-1.482 2.182,-2.971 3.274,-4.468 0.871,-1.193 1.739,-2.387 2.607,-3.58 6.177,-8.499 12.244,-16.927 18.218,-25.24 l 0,0 c 18.856,-26.24 36.721,-51.312 53.183,-74.518 l 0,0 c 22.457,-31.657 42.271,-59.84 58.279,-82.889 l 0,0 c 9.665,-13.915 17.935,-25.95 24.591,-35.727 l 0,0 c 5.328,-7.305 9.56,-13.306 12.679,-17.881 3.119,-4.574 5.141,-7.711 6.181,-9.215 l 0,0 c 0.189,0.109 0.34,0.153 0.454,0.218 0.136,0.08 0.183,0.124 0.193,0.114 l 0,0 c -0.01,0.247 -0.06,0.42 -0.102,0.557 l 0,0 c -0.07,0.242 -0.143,0.427 -0.21,0.56 l 0,0 0,0 c -0.04,0.08 -0.08,0.147 -0.121,0.19 l 0,0 c -0.06,0.02 -0.09,0.04 -0.106,0.05 -0.02,0.01 -0.02,0.02 -0.02,0.02 l 0,0 0,0 c 0,0 0,-0.01 -0.02,-0.03 -0.01,-0.02 -0.04,-0.04 -0.09,-0.07 l 0,0 c -0.03,-0.05 -0.05,-0.12 -0.08,-0.208 l 0,0 0,0 c -0.04,-0.143 -0.07,-0.333 -0.105,-0.566 l 0,0 c -0.02,-0.149 -0.04,-0.3 -0.08,-0.41 l 0,0 c 0,-0.08 0.06,-0.123 0.132,-0.08 0.06,0.03 0.168,0.167 0.326,0.33 l 0,0 c -0.892,1.927 -2.653,5.46 -5.208,10.354 -2.555,4.894 -5.923,11.14 -9.94,18.538 l 0,0 c -6.05,10.21 -15.969,32.558 -25.137,46.845 -36.831,58.276 -73.661,105.023 -106.72,149.602 l 0,0 c -5.95,8.346 -12.013,16.806 -18.207,25.336 -0.869,1.197 -1.741,2.397 -2.618,3.598 -1.099,1.506 -2.2,3.009 -3.305,4.507 -1.094,1.483 -2.214,3.012 -3.411,4.548 -3.595,4.646 -6.574,9.598 -8.325,14.802 l 0,0 c -1.262,3.486 -1.98,7.082 -1.916,10.561 0.477,3.119 0.952,6.223 1.425,9.312 8.777,5.015 17.397,9.955 25.838,14.813 1.289,0.855 2.795,1.429 4.316,1.657 1.637,0.263 3.464,0.09 5.332,-0.302 5.027,-1.033 9.816,-3.963 14.525,-7.187 6.477,-4.528 12.295,-9.883 17.824,-15.369 7.11,-7.068 13.583,-14.374 19.662,-21.567 8.228,-9.736 15.691,-19.236 22.537,-28.232 6.846,-8.996 13.075,-17.487 18.752,-25.276 6.119,-8.397 11.575,-15.994 16.362,-22.633 4.787,-6.639 8.905,-12.321 12.306,-16.918 6.801,-9.195 10.735,-14.05 11.223,-13.722 z"
         style="fill:#000000;stroke:none" />
    </g>
  </g>
</svg>
