<?xml version="1.0" encoding="UTF-8" standalone="no"?>
<!-- Created with Inkscape (http://www.inkscape.org/) -->

<svg
   xmlns:dc="http://purl.org/dc/elements/1.1/"
   xmlns:cc="http://creativecommons.org/ns#"
   xmlns:rdf="http://www.w3.org/1999/02/22-rdf-syntax-ns#"
   xmlns:svg="http://www.w3.org/2000/svg"
   xmlns="http://www.w3.org/2000/svg"
   xmlns:sodipodi="http://sodipodi.sourceforge.net/DTD/sodipodi-0.dtd"
   xmlns:inkscape="http://www.inkscape.org/namespaces/inkscape"
   width="256"
   height="256"
   id="svg8370"
   version="1.1"
   inkscape:version="0.48.3.1 r9886"
   sodipodi:docname="huayra-menu-huayra.svg">
  <defs
     id="defs8372" />
  <sodipodi:namedview
     id="base"
     pagecolor="#ffffff"
     bordercolor="#666666"
     borderopacity="1.0"
     inkscape:pageopacity="0.0"
     inkscape:pageshadow="2"
     inkscape:zoom="2.4255777"
     inkscape:cx="179.0867"
     inkscape:cy="149.33146"
     inkscape:document-units="px"
     inkscape:current-layer="layer1"
     showgrid="false"
     inkscape:window-width="1918"
     inkscape:window-height="1007"
     inkscape:window-x="0"
     inkscape:window-y="25"
     inkscape:window-maximized="1" />
  <metadata
     id="metadata8375">
    <rdf:RDF>
      <cc:Work
         rdf:about="">
        <dc:format>image/svg+xml</dc:format>
        <dc:type
           rdf:resource="http://purl.org/dc/dcmitype/StillImage" />
        <dc:title />
      </cc:Work>
    </rdf:RDF>
  </metadata>
  <g
     inkscape:label="Capa 1"
     inkscape:groupmode="layer"
     id="layer1"
     transform="translate(0,-796.36218)">
    <path
       inkscape:connector-curvature="0"
       style="fill:#2ad4ff;fill-opacity:1;fill-rule:evenodd;stroke:#000000;stroke-width:5;stroke-miterlimit:4;stroke-opacity:1;stroke-dasharray:none"
       d="m 140.44331,809.2624 c -1.26544,0.0436 -2.95729,3.23019 -4.99309,10.82829 -4.76483,17.78358 -13.54254,62.31758 -30.24252,96.32839 -2.73969,-0.11722 -5.51965,-0.0182 -8.325082,0.30712 -2.573375,-30.07655 -8.228203,-75.57067 -10.527877,-90.24224 -2.127326,-13.57611 -7.00122,-20.39334 -6.472534,-3.02822 0.52478,17.24006 -0.316389,62.46998 -0.492013,98.31309 -4.310232,2.01673 -8.616548,4.63417 -12.875736,7.90573 -10.585151,-22.25477 -28.648945,-52.80738 -36.143764,-63.37135 -7.952176,-11.20715 -13.573078,-16.75294 -7.116401,-0.62412 6.370129,15.9127 17.665832,43.74272 29.671232,76.98016 -2.488193,2.88539 -4.941839,6.03213 -7.347615,9.45782 -10.752429,-8.43726 -20.876838,-14.17415 -28.383387,-19.55629 -11.0287621,-7.90759 -18.2710186,-11.51173 -7.674568,0.78925 9.877659,11.4667 16.917027,23.6443 38.561056,43.75562 l 5.111978,5.06574 c 0.628762,-1.64097 1.284359,-3.21778 1.964898,-4.73551 l 3.378185,-6.69709 c 29.215162,-57.51119 102.313448,-2.91868 72.941438,36.70191 l 21.26688,7.9751 -0.01,0.03 c 22.28642,8.1998 52.88537,18.7153 66.50514,20.5405 10.14735,1.3598 17.43918,1.4523 1.16242,-5.9311 -15.83058,-7.1816 -30.05186,-15.1592 -59.32259,-30.5331 0.95349,-3.12244 1.64481,-6.25935 2.08705,-9.39181 28.70042,-4.45076 62.00693,-14.83837 72.86219,-19.42088 12.66861,-5.3484 21.39052,-14.6981 -1.36067,-9.49415 -18.52622,4.23768 -43.58774,7.95746 -71.8681,9.21015 -0.64091,-3.63809 -1.58902,-7.20008 -2.81356,-10.65327 30.03887,-12.74871 66.36682,-36.10901 77.13203,-44.56797 11.50822,-9.04159 17.80342,-20.70151 -4.13122,-8.67516 -20.19724,11.07369 -49.19111,24.10809 -82.85492,34.90211 -1.09625,-1.45882 -2.24725,-2.87242 -3.45089,-4.23356 23.81626,-20.57106 51.28536,-53.07175 62.90242,-75.86069 6.64826,-13.04009 8.65734,-27.35157 -5.09222,-6.58479 -12.86082,19.42462 -44.07438,46.90811 -74.09391,69.10745 -2.29819,-1.31487 -4.67661,-2.47606 -7.12307,-3.46742 15.43083,-29.27856 19.65346,-82.94863 19.76759,-96.8865 0.0699,-8.46158 -0.86484,-14.30256 -2.59894,-14.24286 z"
       id="_121731384"
       sodipodi:nodetypes="cscccscccsccsscccccccsccccscccscccsccccc" />
    <path
       sodipodi:type="arc"
       style="fill:#2ad4ff;fill-opacity:1;fill-rule:evenodd;stroke:#000000;stroke-width:0.64992583000000004;stroke-miterlimit:4;stroke-opacity:1;stroke-dasharray:none"
       id="path3582"
       sodipodi:cx="11.182829"
       sodipodi:cy="12.753372"
       sodipodi:rx="2.6694496"
       sodipodi:ry="2.6694496"
       d="m 13.844562,12.550547 a 2.6694496,2.6694496 0 1 1 -7.11e-4,-0.0091"
       transform="matrix(7.6931858,0,0,7.6931858,10.708895,890.69414)"
       sodipodi:start="6.2071318"
       sodipodi:end="12.486889"
       sodipodi:open="true" />
  </g>
</svg>
