<?xml version="1.0" encoding="UTF-8" standalone="no"?>
<!-- Created with Inkscape (http://www.inkscape.org/) -->

<svg
   xmlns:dc="http://purl.org/dc/elements/1.1/"
   xmlns:cc="http://creativecommons.org/ns#"
   xmlns:rdf="http://www.w3.org/1999/02/22-rdf-syntax-ns#"
   xmlns:svg="http://www.w3.org/2000/svg"
   xmlns="http://www.w3.org/2000/svg"
   xmlns:sodipodi="http://sodipodi.sourceforge.net/DTD/sodipodi-0.dtd"
   xmlns:inkscape="http://www.inkscape.org/namespaces/inkscape"
   width="256"
   height="256"
   id="svg8370"
   version="1.1"
   inkscape:version="0.48.3.1 r9886"
   sodipodi:docname="huayra-menu-accesories.svg">
  <defs
     id="defs8372" />
  <sodipodi:namedview
     id="base"
     pagecolor="#ffffff"
     bordercolor="#666666"
     borderopacity="1.0"
     inkscape:pageopacity="0.0"
     inkscape:pageshadow="2"
     inkscape:zoom="2.3072391"
     inkscape:cx="121.42031"
     inkscape:cy="92.032631"
     inkscape:document-units="px"
     inkscape:current-layer="layer1"
     showgrid="false"
     inkscape:window-width="1918"
     inkscape:window-height="1007"
     inkscape:window-x="0"
     inkscape:window-y="25"
     inkscape:window-maximized="1" />
  <metadata
     id="metadata8375">
    <rdf:RDF>
      <cc:Work
         rdf:about="">
        <dc:format>image/svg+xml</dc:format>
        <dc:type
           rdf:resource="http://purl.org/dc/dcmitype/StillImage" />
        <dc:title />
      </cc:Work>
    </rdf:RDF>
  </metadata>
  <g
     inkscape:label="Capa 1"
     inkscape:groupmode="layer"
     id="layer1"
     transform="translate(0,-796.36218)">
    <path
       inkscape:connector-curvature="0"
       d="m 148.01877,930.74514 c 25.58615,-29.78092 30.24723,-69.31692 38.91246,-67.23391 6.77414,1.62814 3.51887,6.52253 21.41951,9.97577 17.18758,3.31565 34.74833,-8.59779 38.39659,-22.97141 4.85943,-14.08816 -3.01675,-31.79572 -20.63817,-36.16708 -17.43828,-5.32828 -38.22369,3.33246 -44.42838,17.99572 -8.99052,16.76312 -13.60057,38.90235 -42.65648,57.90459 L 116.72213,904.8339 39.541777,996.82823 C 30.912192,1008.7221 25.73063,1024.545 36.919652,1039.6081 63.909775,990.69121 102.54799,966.95658 148.01877,930.74514 z m 80.63291,-78.49733 c -14.86405,12.51955 -39.85936,10.08538 -39.81466,-6.62676 -1.05246,-15.37562 21.08265,-29.3788 37.53622,-20.60224 13.85384,6.15379 12.454,18.65851 2.27844,27.229 z"
       id="path48999"
       sodipodi:nodetypes="cccccczcccccccc"
       style="fill:#2ad4ff;fill-opacity:1;fill-rule:evenodd;stroke:#000000;stroke-width:4.41913891;stroke-miterlimit:4;stroke-opacity:1;marker-start:none" />
    <path
       inkscape:connector-curvature="0"
       d="M 104.69388,927.22288 C 79.186008,897.39386 76.750128,862.18171 68.079141,864.24839 61.301095,865.86386 64.54379,870.76426 46.633543,874.1839 29.436949,877.46724 11.908085,865.52073 8.2974742,851.14028 3.475727,837.04313 11.398477,819.35032 29.031264,815.01219 c 17.452375,-5.29549 38.214883,3.4043 44.380628,18.07929 8.945882,16.7798 13.49782,38.92783 42.503388,57.98452 l 22.2639,14.62723 76.93675,92.13929 c 8.59824,11.91008 13.7383,27.74268 2.50971,42.78468 C 178.92358,975.93067 142.55503,961.21007 104.69388,927.22288 z M 30.708798,851.60384 c 14.831536,12.54745 32.04503,6.69548 35.511819,-5.2491 1.093135,-15.37358 -21.004936,-29.41839 -37.482066,-20.67289 -13.869757,6.12777 -8.18235,17.33234 1.970247,25.92199 z"
       id="path49000"
       sodipodi:nodetypes="cccccczcccccccc"
       style="fill:#2ad4ff;fill-opacity:1;fill-rule:evenodd;stroke:#000000;stroke-width:4.41916323;stroke-miterlimit:4;stroke-opacity:1;stroke-dasharray:none;marker-start:none" />
    <path
       style="fill:#ffffff;fill-opacity:1;fill-rule:nonzero;stroke:#000000;stroke-width:3.80491424;stroke-miterlimit:4;stroke-opacity:1;stroke-dasharray:none"
       inkscape:connector-curvature="0"
       id="path4782-0-5"
       d="m 136.62801,920.66836 c 0.74045,6.33929 -0.2642,14.61419 -12.56945,10.43374 -6.55083,-2.22551 -12.56526,-4.67158 -12.56526,-10.43374 -0.45738,-5.63529 5.17024,-10.30288 12.56526,-10.4282 6.94185,0 11.90088,4.70423 12.56945,10.4282 z"
       class="fil0 str0"
       sodipodi:nodetypes="ssccs" />
  </g>
</svg>
