<?xml version="1.0" encoding="UTF-8" standalone="no"?>
<!-- Created with Inkscape (http://www.inkscape.org/) -->

<svg
   xmlns:dc="http://purl.org/dc/elements/1.1/"
   xmlns:cc="http://creativecommons.org/ns#"
   xmlns:rdf="http://www.w3.org/1999/02/22-rdf-syntax-ns#"
   xmlns:svg="http://www.w3.org/2000/svg"
   xmlns="http://www.w3.org/2000/svg"
   xmlns:sodipodi="http://sodipodi.sourceforge.net/DTD/sodipodi-0.dtd"
   xmlns:inkscape="http://www.inkscape.org/namespaces/inkscape"
   width="256"
   height="256"
   id="svg8370"
   version="1.1"
   inkscape:version="0.48.3.1 r9886"
   sodipodi:docname="huayra-menu-multimedia.svg">
  <defs
     id="defs8372">
    <inkscape:path-effect
       effect="spiro"
       id="path-effect3009"
       is_visible="true" />
    <inkscape:path-effect
       effect="spiro"
       id="path-effect4759"
       is_visible="true" />
    <inkscape:path-effect
       effect="spiro"
       id="path-effect4755"
       is_visible="true" />
    <inkscape:path-effect
       effect="spiro"
       id="path-effect4678"
       is_visible="true" />
    <inkscape:path-effect
       effect="skeletal"
       id="path-effect4674"
       is_visible="true"
       pattern="M 0,5 C 0,2.24 2.24,0 5,0 7.76,0 10,2.24 10,5 10,7.76 7.76,10 5,10 2.24,10 0,7.76 0,5 z"
       copytype="single_stretched"
       prop_scale="1"
       scale_y_rel="false"
       spacing="0"
       normal_offset="0"
       tang_offset="0"
       prop_units="false"
       vertical_pattern="false"
       fuse_tolerance="0" />
  </defs>
  <sodipodi:namedview
     id="base"
     pagecolor="#ffffff"
     bordercolor="#666666"
     borderopacity="1.0"
     inkscape:pageopacity="0.0"
     inkscape:pageshadow="2"
     inkscape:zoom="2.4731724"
     inkscape:cx="31.065121"
     inkscape:cy="78.961734"
     inkscape:document-units="px"
     inkscape:current-layer="layer1"
     showgrid="false"
     inkscape:window-width="1918"
     inkscape:window-height="1007"
     inkscape:window-x="0"
     inkscape:window-y="25"
     inkscape:window-maximized="1"
     showguides="true"
     inkscape:guide-bbox="true" />
  <metadata
     id="metadata8375">
    <rdf:RDF>
      <cc:Work
         rdf:about="">
        <dc:format>image/svg+xml</dc:format>
        <dc:type
           rdf:resource="http://purl.org/dc/dcmitype/StillImage" />
        <dc:title />
      </cc:Work>
    </rdf:RDF>
  </metadata>
  <g
     inkscape:label="Capa 1"
     inkscape:groupmode="layer"
     id="layer1"
     transform="translate(0,-796.36218)">
    <path
       id="path7450-3"
       d="m 108.88666,861.23229 c -0.6494,31.51992 -0.97466,52.89637 -1.29993,111.38711 -0.0451,8.18112 1.21725,38.1244 -1.94931,44.5171 -3.74984,7.5713 -21.280522,22.4966 -30.869482,23.3963"
       class="fil3"
       inkscape:connector-curvature="0"
       style="fill:none" />
    <path
       style="fill:#2ad4ff;fill-opacity:1;fill-rule:nonzero;stroke:#000000;stroke-width:6;stroke-linecap:round;stroke-linejoin:round;stroke-miterlimit:4;stroke-opacity:1;stroke-dashoffset:0"
       d="m 6.3564951,852.13259 c 40.6297459,-1.66835 81.0157949,-0.53497 121.2367249,-2.05574 39.25314,-1.48418 82.02375,1.74474 123.03432,4.32592 0.46604,48.45646 4.48288,95.4928 0,143.92922 -38.62528,1.83701 -85.53884,4.53791 -122.58482,1.81101 C 86.846544,997.11068 51.65937,996.68227 7.2645659,998.33199 2.126757,953.83951 10.245634,904.93777 6.3564951,852.13259 z"
       id="rect3625"
       inkscape:connector-curvature="0"
       sodipodi:nodetypes="csccscc" />
    <path
       style="fill:#ffffff;fill-opacity:1;fill-rule:nonzero;stroke:#000000;stroke-width:3.6141541;stroke-linecap:round;stroke-linejoin:round;stroke-miterlimit:4;stroke-opacity:1;stroke-dashoffset:0"
       d="m 231.42522,992.04225 c -11.62642,2.62086 -11.6722,0.84664 -21.4221,0 l 0,-13.61005 c 7.1407,-1.62337 14.2814,-2.91752 21.4221,0 z"
       id="rect3627-5-6-2"
       inkscape:connector-curvature="0"
       sodipodi:nodetypes="ccccc" />
    <path
       style="fill:#ffffff;fill-opacity:1;fill-rule:nonzero;stroke:#000000;stroke-width:3.6141541;stroke-linecap:round;stroke-linejoin:round;stroke-miterlimit:4;stroke-opacity:1;stroke-dashoffset:0"
       d="m 194.80055,991.53349 c -7.51475,0.87915 -15.0563,1.82125 -21.42209,0 l 0,-13.61004 c 8.43018,-1.34696 16.47982,-2.29643 21.42209,0 z"
       id="rect3627-0-0-1-2"
       inkscape:connector-curvature="0"
       sodipodi:nodetypes="ccccc" />
    <path
       style="fill:#ffffff;fill-opacity:1;fill-rule:nonzero;stroke:#000000;stroke-width:3.6141541;stroke-linecap:round;stroke-linejoin:round;stroke-miterlimit:4;stroke-opacity:1;stroke-dashoffset:0"
       d="m 162.01227,992.04225 c -7.69823,1.2606 -15.0971,-0.22121 -21.4221,0 l 0,-13.61005 c 6.54391,-0.62338 11.61903,-2.78102 21.4221,0 z"
       id="rect3627-8-4-9-6"
       inkscape:connector-curvature="0"
       sodipodi:nodetypes="ccccc" />
    <path
       style="fill:#ffffff;fill-opacity:1;fill-rule:nonzero;stroke:#000000;stroke-width:3.6141541;stroke-linecap:round;stroke-linejoin:round;stroke-miterlimit:4;stroke-opacity:1;stroke-dashoffset:0"
       d="m 123.06518,991.53349 c -6.0765,0.6253 -10.89352,1.99063 -21.4221,0 l 0,-13.61004 c 5.51742,-3.17933 13.63922,-1.25776 21.4221,0 z"
       id="rect3627-0-7-2-9-6"
       inkscape:connector-curvature="0"
       sodipodi:nodetypes="ccccc" />
    <path
       style="fill:#ffffff;fill-opacity:1;fill-rule:nonzero;stroke:#000000;stroke-width:3.6141541;stroke-linecap:round;stroke-linejoin:round;stroke-miterlimit:4;stroke-opacity:1;stroke-dashoffset:0"
       d="m 83.042843,989.53349 c -6.024162,2.18683 -13.039524,2.43229 -21.422091,0 l 0,-13.61004 c 6.43522,-2.16303 15.750416,-1.16608 21.422091,0 z"
       id="rect3627-9-8-1-2"
       inkscape:connector-curvature="0"
       sodipodi:nodetypes="ccccc" />
    <path
       style="fill:#ffffff;fill-opacity:1;fill-rule:nonzero;stroke:#000000;stroke-width:3.6141541;stroke-linecap:round;stroke-linejoin:round;stroke-miterlimit:4;stroke-opacity:1;stroke-dashoffset:0"
       d="m 44.443049,991.53349 c -3.828674,0.51895 -6.232853,1.2611 -21.422091,0 l 0,-13.61004 c 5.530992,-1.89165 13.618986,-0.77842 21.422091,0 z"
       id="rect3627-0-6-5-4-4"
       inkscape:connector-curvature="0"
       sodipodi:nodetypes="ccccc" />
    <path
       style="fill:#ffffff;fill-opacity:1;fill-rule:nonzero;stroke:#000000;stroke-width:3.58814692;stroke-linecap:round;stroke-linejoin:round;stroke-miterlimit:4;stroke-opacity:1;stroke-dashoffset:0"
       d="M 8.5818064,882.66371 C 78.335238,886.08108 163.61405,878.50943 250.96213,877.3362 l 0,97.16412 c -58.42037,-6.44956 -117.04392,-6.41708 -175.587838,-5.42255 l -68.1545918,3.69776 z"
       id="rect4636"
       inkscape:connector-curvature="0"
       sodipodi:nodetypes="cccccc" />
    <path
       style="fill:#ffffff;fill-opacity:1;fill-rule:nonzero;stroke:#000000;stroke-width:3.6141541;stroke-linecap:round;stroke-linejoin:round;stroke-miterlimit:4;stroke-opacity:1;stroke-dashoffset:0"
       d="m 229.878,872.08454 c -11.62642,2.62082 -11.6722,0.84664 -21.4221,0 l 0,-13.61005 c 7.1407,-1.62337 14.2814,-2.91752 21.4221,0 z"
       id="rect3627-5-6-2-3"
       inkscape:connector-curvature="0"
       sodipodi:nodetypes="ccccc" />
    <path
       style="fill:#ffffff;fill-opacity:1;fill-rule:nonzero;stroke:#000000;stroke-width:3.6141541;stroke-linecap:round;stroke-linejoin:round;stroke-miterlimit:4;stroke-opacity:1;stroke-dashoffset:0"
       d="m 193.25333,871.57578 c -7.51475,0.87915 -15.0563,1.82125 -21.42209,0 l 0,-13.61004 c 8.43018,-1.34696 16.47982,-2.29643 21.42209,0 z"
       id="rect3627-0-0-1-2-1"
       inkscape:connector-curvature="0"
       sodipodi:nodetypes="ccccc" />
    <path
       style="fill:#ffffff;fill-opacity:1;fill-rule:nonzero;stroke:#000000;stroke-width:3.6141541;stroke-linecap:round;stroke-linejoin:round;stroke-miterlimit:4;stroke-opacity:1;stroke-dashoffset:0"
       d="m 160.46505,872.08454 c -7.69823,1.2606 -15.0971,-0.22121 -21.4221,0 l 0,-13.61005 c 6.54391,-0.62338 11.61903,-2.78102 21.4221,0 z"
       id="rect3627-8-4-9-6-0"
       inkscape:connector-curvature="0"
       sodipodi:nodetypes="ccccc" />
    <path
       style="fill:#ffffff;fill-opacity:1;fill-rule:nonzero;stroke:#000000;stroke-width:3.6141541;stroke-linecap:round;stroke-linejoin:round;stroke-miterlimit:4;stroke-opacity:1;stroke-dashoffset:0"
       d="m 121.51796,873.57578 c -6.0765,0.6253 -10.89352,1.99063 -21.4221,0 l 0,-13.61004 c 5.51742,-3.17933 13.63922,-1.25776 21.4221,0 z"
       id="rect3627-0-7-2-9-6-6"
       inkscape:connector-curvature="0"
       sodipodi:nodetypes="ccccc" />
    <path
       style="fill:#ffffff;fill-opacity:1;fill-rule:nonzero;stroke:#000000;stroke-width:3.6141541;stroke-linecap:round;stroke-linejoin:round;stroke-miterlimit:4;stroke-opacity:1;stroke-dashoffset:0"
       d="m 85.495632,873.57578 c -6.02417,2.18683 -13.03953,2.43228 -21.42209,0 l 0,-13.61004 c 6.43522,-2.16303 15.75041,-1.16608 21.42209,0 z"
       id="rect3627-9-8-1-2-0"
       inkscape:connector-curvature="0"
       sodipodi:nodetypes="ccccc" />
    <path
       style="fill:#ffffff;fill-opacity:1;fill-rule:nonzero;stroke:#000000;stroke-width:3.6141541;stroke-linecap:round;stroke-linejoin:round;stroke-miterlimit:4;stroke-opacity:1;stroke-dashoffset:0"
       d="m 44.895835,873.57578 c -3.828674,0.51895 -6.232853,1.2611 -21.422091,0 l 0,-13.61004 c 5.530992,-1.89165 13.618986,-0.77842 21.422091,0 z"
       id="rect3627-0-6-5-4-4-0"
       inkscape:connector-curvature="0"
       sodipodi:nodetypes="ccccc" />
    <path
       id="path4676-9-1-4-6"
       style="fill:none;stroke:#000000;stroke-width:1.54615927;stroke-linecap:round;stroke-linejoin:round;stroke-miterlimit:4;stroke-opacity:1;stroke-dasharray:none"
       d="M 226.02044,951.20495 C 148.50341,922.13331 72.907393,934.66334 20.847286,955.19173 M 229.66797,936.85257 C 150.50773,913.8353 68.856754,927.92662 24.494814,940.83934 M 229.66796,922.50018 C 149.84048,902.69149 69.195099,924.5375 24.494811,926.48695 M 231.05005,911.91132 C 157.3107,884.88983 70.486364,921.76054 24.494814,913.72929 M 232.41787,901.80195 c -80.81783,-26.3981 -158.553078,10.63472 -205.17315,3.98677"
       inkscape:connector-curvature="0"
       sodipodi:nodetypes="cccccccccc" />
    <g
       id="g4777"
       transform="translate(301.2953,-129.91632)">
      <path
         sodipodi:nodetypes="cccc"
         inkscape:connector-curvature="0"
         id="path4753"
         d="m -187.02215,1066.1462 c 1.77323,-12.8246 0.81273,-26.039 -0.15485,-41.2506 9.90929,-2.2613 19.93279,-1.9709 32.25606,0 -1.39788,19.0261 -2.56154,33.5975 -1.31292,51.3779"
         style="fill:none;stroke:#000000;stroke-width:3.9862113;stroke-linecap:round;stroke-linejoin:round;stroke-miterlimit:4;stroke-opacity:1" />
      <path
         sodipodi:nodetypes="cc"
         inkscape:connector-curvature="0"
         id="path4757"
         d="m -155.61198,1035.9846 c -11.86304,-2.7243 -22.21697,-2.9334 -32.25606,-2.6178"
         style="fill:none;stroke:#000000;stroke-width:3.9862113;stroke-linecap:butt;stroke-linejoin:miter;stroke-miterlimit:4;stroke-opacity:1" />
      <path
         inkscape:transform-center-y="-3.2248732"
         inkscape:transform-center-x="3.2727691"
         sodipodi:open="true"
         sodipodi:end="12.46847"
         sodipodi:start="6.2071318"
         transform="matrix(0.76610399,-0.25894304,-0.17020177,-0.30183638,-84.910025,1180.4932)"
         d="m -40.4519,414.64197 c 0.284818,5.25067 -2.51433,9.83153 -6.252073,10.23164 -3.737742,0.4001 -6.998671,-3.53206 -7.283489,-8.78273 -0.284818,-5.25067 2.514331,-9.83153 6.252073,-10.23164 3.680131,-0.39393 6.909854,3.41532 7.270608,8.57522"
         sodipodi:ry="9.5347433"
         sodipodi:rx="6.7874012"
         sodipodi:cy="415.36642"
         sodipodi:cx="-47.219681"
         id="path4761"
         style="fill:#000000;fill-opacity:1;fill-rule:nonzero;stroke:#000000;stroke-width:6;stroke-linecap:round;stroke-linejoin:round;stroke-miterlimit:4;stroke-opacity:1;stroke-dasharray:none;stroke-dashoffset:0"
         sodipodi:type="arc" />
      <path
         inkscape:transform-center-y="-3.9159175"
         inkscape:transform-center-x="1.8427847"
         sodipodi:open="true"
         sodipodi:end="12.46847"
         sodipodi:start="6.2071318"
         transform="matrix(1.091361,-0.24431833,0.08693862,0.38835161,-205.25887,911.05036)"
         d="m 10.878475,427.35495 c 0.266735,5.25068 -2.3547059,9.83153 -5.8551534,10.23164 -3.5004474,0.4001 -6.5543529,-3.53206 -6.8210886,-8.78273 -0.2667358,-5.25067 2.35470544,-9.83153 5.8551529,-10.23163 3.4464933,-0.39394 6.4711741,3.41531 6.8090251,8.57521"
         sodipodi:ry="9.5347433"
         sodipodi:rx="6.3564954"
         sodipodi:cy="428.07941"
         sodipodi:cx="4.5403538"
         id="path4763"
         style="fill:#000000;fill-opacity:1;fill-rule:nonzero;stroke:#000000;stroke-width:6;stroke-linecap:round;stroke-linejoin:round;stroke-miterlimit:4;stroke-opacity:1;stroke-dasharray:none;stroke-dashoffset:0"
         sodipodi:type="arc" />
    </g>
    <g
       id="g3814"
       transform="translate(336.00569,-24.664678)">
      <path
         sodipodi:nodetypes="cc"
         inkscape:connector-curvature="0"
         id="path3007"
         d="m -126.96244,930.84012 c -5.88561,16.58855 -7.02581,33.72965 -9.20863,50.76274"
         style="fill:none;stroke:#000000;stroke-width:2.72901392;stroke-linecap:round;stroke-linejoin:round;stroke-miterlimit:4;stroke-opacity:1;stroke-dasharray:none" />
      <path
         inkscape:transform-center-y="-3.9159175"
         inkscape:transform-center-x="1.8427847"
         sodipodi:open="true"
         sodipodi:end="12.46847"
         sodipodi:start="6.2071318"
         transform="matrix(1.091361,-0.24431833,0.08693862,0.38835161,-185.46788,815.82543)"
         d="m 10.878475,427.35495 c 0.266735,5.25068 -2.3547059,9.83153 -5.8551534,10.23164 -3.5004474,0.4001 -6.5543529,-3.53206 -6.8210886,-8.78273 -0.2667358,-5.25067 2.35470544,-9.83153 5.8551529,-10.23163 3.4464933,-0.39394 6.4711741,3.41531 6.8090251,8.57521"
         sodipodi:ry="9.5347433"
         sodipodi:rx="6.3564954"
         sodipodi:cy="428.07941"
         sodipodi:cx="4.5403538"
         id="path4763-8"
         style="fill:#000000;fill-opacity:1;fill-rule:nonzero;stroke:#000000;stroke-width:6;stroke-linecap:round;stroke-linejoin:round;stroke-miterlimit:4;stroke-opacity:1;stroke-dasharray:none;stroke-dashoffset:0"
         sodipodi:type="arc" />
    </g>
  </g>
</svg>
