<?xml version="1.0" encoding="UTF-8" standalone="no"?>
<!-- Created with Inkscape (http://www.inkscape.org/) -->

<svg
   xmlns:dc="http://purl.org/dc/elements/1.1/"
   xmlns:cc="http://creativecommons.org/ns#"
   xmlns:rdf="http://www.w3.org/1999/02/22-rdf-syntax-ns#"
   xmlns:svg="http://www.w3.org/2000/svg"
   xmlns="http://www.w3.org/2000/svg"
   xmlns:sodipodi="http://sodipodi.sourceforge.net/DTD/sodipodi-0.dtd"
   xmlns:inkscape="http://www.inkscape.org/namespaces/inkscape"
   width="256"
   height="256"
   id="svg8370"
   version="1.1"
   inkscape:version="0.48.3.1 r9886"
   sodipodi:docname="huayra-menu-games.svg">
  <defs
     id="defs8372" />
  <sodipodi:namedview
     id="base"
     pagecolor="#ffffff"
     bordercolor="#666666"
     borderopacity="1.0"
     inkscape:pageopacity="0.0"
     inkscape:pageshadow="2"
     inkscape:zoom="1.5561996"
     inkscape:cx="457.14534"
     inkscape:cy="27.61541"
     inkscape:document-units="px"
     inkscape:current-layer="layer1"
     showgrid="false"
     inkscape:window-width="1918"
     inkscape:window-height="1007"
     inkscape:window-x="0"
     inkscape:window-y="25"
     inkscape:window-maximized="1" />
  <metadata
     id="metadata8375">
    <rdf:RDF>
      <cc:Work
         rdf:about="">
        <dc:format>image/svg+xml</dc:format>
        <dc:type
           rdf:resource="http://purl.org/dc/dcmitype/StillImage" />
        <dc:title />
      </cc:Work>
    </rdf:RDF>
  </metadata>
  <g
     inkscape:label="Capa 1"
     inkscape:groupmode="layer"
     id="layer1"
     transform="translate(0,-796.36218)">
    <path
       style="fill:#2ad4ff;fill-opacity:1;fill-rule:evenodd;stroke:#000000;stroke-width:6;stroke-linecap:round;stroke-linejoin:round;stroke-miterlimit:4;stroke-opacity:1;stroke-dasharray:none"
       d="m 128.54437,863.97908 c -13.65022,-1.60996 -39.674535,-21.06764 -45.810225,-20.3227 -89.0048926,10.80611 -96.655824,103.16221 -53.200011,153.85891 4.075308,4.06041 7.125846,7.25681 12.712075,5.85061 13.449225,-3.45068 30.523866,-20.62732 37.797764,-26.79556 35.830287,-33.72933 57.364507,-35.34636 98.366807,-0.12477 10.08159,6.76505 24.28663,21.64501 35.34017,25.94693 5.07245,1.974 9.44375,1.6909 12.52332,-2.56668 60.97523,-84.30085 -12.84067,-143.78356 -47.20106,-154.5844 -8.19304,-2.57538 -36.22844,18.89757 -50.52884,18.73766 z"
       id="path7421"
       inkscape:connector-curvature="0"
       sodipodi:nodetypes="csccccsssc" />
    <path
       style="fill:#ffffff;fill-opacity:1;fill-rule:nonzero;stroke:#000000;stroke-width:3.5;stroke-miterlimit:4;stroke-opacity:1;stroke-dasharray:none"
       inkscape:connector-curvature="0"
       id="path4782-0-5-4-5"
       d="m 90.106521,917.27538 c -1.569121,10.92093 -10.548777,20.33431 -26.658101,20.33431 -16.099527,0 -31.669499,-4.07837 -31.669499,-20.33431 -1.061493,-15.89801 11.997884,-29.06608 29.158906,-29.4196 16.109324,0 31.480116,13.33233 29.168694,29.4196 z"
       class="fil0 str0"
       sodipodi:nodetypes="ssccs" />
    <path
       style="fill:#ffffff;fill-opacity:1;fill-rule:nonzero;stroke:#000000;stroke-width:4.55648756;stroke-miterlimit:4;stroke-opacity:1;stroke-dasharray:none"
       inkscape:connector-curvature="0"
       id="path4782-0-5-4-5-2-2"
       d="m 204.27303,941.56534 c 0,8.47211 -1.49484,12.48086 -9.89044,12.48086 -8.39072,0 -20.50799,-4.00875 -20.50799,-12.48086 -0.55321,-8.28556 6.25285,-15.14836 15.19679,-15.33259 8.3956,0 15.20164,6.8623 15.20164,15.33259 z"
       class="fil0 str0"
       sodipodi:nodetypes="ssccs" />
    <path
       inkscape:connector-curvature="0"
       style="fill:#ffffff;fill-opacity:1;fill-rule:evenodd;stroke:#000000;stroke-width:3.24942684;stroke-linecap:round;stroke-linejoin:round;stroke-miterlimit:4;stroke-opacity:1;stroke-dasharray:none"
       d="m 185.1332,891.70271 c -8.90048,-0.11522 -10.72787,-0.80835 -16.45832,-1.29979 l 1.94381,8.77016 c 6.50715,-0.81629 5.83235,-0.66421 14.94108,-1.16879 0.3238,8.77164 -0.98287,14.77126 -0.29081,14.91418 l 9.69862,-0.76763 c 0.73858,0.15257 -1.28495,-4.65265 -1.44489,-14.2618 10.27848,-0.2007 11.92634,0.16186 11.47236,-0.8664 l -0.20707,-6.68931 c -4.1896,0.68431 -5.07299,-0.12641 -12.51097,0.0139 -0.30164,-9.30934 0.10961,-14.18658 -0.61135,-14.33547 l -0.69592,-0.84485 c -3.09681,0.26248 -5.95399,-1.05988 -5.91047,0.17809 0.0915,2.6047 -0.12172,6.80718 0.0739,16.3577 z"
       id="rect11194-1-9-4-1-0"
       sodipodi:nodetypes="ccccccccccccsc" />
  </g>
</svg>
