<?xml version="1.0" encoding="UTF-8" standalone="no"?>
<!-- Created with Inkscape (http://www.inkscape.org/) -->

<svg
   xmlns:dc="http://purl.org/dc/elements/1.1/"
   xmlns:cc="http://creativecommons.org/ns#"
   xmlns:rdf="http://www.w3.org/1999/02/22-rdf-syntax-ns#"
   xmlns:svg="http://www.w3.org/2000/svg"
   xmlns="http://www.w3.org/2000/svg"
   xmlns:sodipodi="http://sodipodi.sourceforge.net/DTD/sodipodi-0.dtd"
   xmlns:inkscape="http://www.inkscape.org/namespaces/inkscape"
   width="256"
   height="256"
   id="svg8370"
   version="1.1"
   inkscape:version="0.48.3.1 r9886"
   sodipodi:docname="huayra-menu-education.svg">
  <defs
     id="defs8372" />
  <sodipodi:namedview
     id="base"
     pagecolor="#ffffff"
     bordercolor="#666666"
     borderopacity="1.0"
     inkscape:pageopacity="0.0"
     inkscape:pageshadow="2"
     inkscape:zoom="2.4098003"
     inkscape:cx="94.407931"
     inkscape:cy="131.91281"
     inkscape:document-units="px"
     inkscape:current-layer="layer1"
     showgrid="false"
     inkscape:window-width="1918"
     inkscape:window-height="1007"
     inkscape:window-x="0"
     inkscape:window-y="25"
     inkscape:window-maximized="1" />
  <metadata
     id="metadata8375">
    <rdf:RDF>
      <cc:Work
         rdf:about="">
        <dc:format>image/svg+xml</dc:format>
        <dc:type
           rdf:resource="http://purl.org/dc/dcmitype/StillImage" />
        <dc:title />
      </cc:Work>
    </rdf:RDF>
  </metadata>
  <g
     inkscape:label="Capa 1"
     inkscape:groupmode="layer"
     id="layer1"
     transform="translate(0,-796.36218)">
    <path
       style="fill:#2ad4ff;fill-opacity:1;fill-rule:evenodd;stroke:#000000;stroke-width:4.93915462;stroke-linecap:round;stroke-linejoin:round;stroke-miterlimit:4;stroke-opacity:1"
       d="m 126.79646,1045.88 -49.322346,-1.344 c 0.04178,-18.8313 -5.935225,-121.9358 -2.299522,-236.34216 l 53.796698,0.0991 c -4.04039,21.35964 -0.0901,229.17776 -2.17483,237.58706 z"
       id="rect11194-1-9-8"
       inkscape:connector-curvature="0"
       sodipodi:nodetypes="ccccc" />
    <path
       style="fill:none"
       inkscape:connector-curvature="0"
       id="path11198-0-0-9"
       d="m 110.20636,886.68676 c -3.32599,-18.10842 -23.598943,-14.03946 -33.965257,-10.99638 -18.025555,5.28609 -16.092996,53.26363 -16.162617,70.15016 -0.139352,33.776 -0.292658,70.91586 -1.564109,104.68716"
       class="fil2" />
    <path
       transform="matrix(0.16064996,0.98701144,-0.9867834,0.16204481,0,0)"
       style="fill:#2ad4ff;fill-opacity:1;fill-rule:evenodd;stroke:#000000;stroke-width:5.00000237999999975;stroke-miterlimit:4;stroke-opacity:1;stroke-linejoin:round;stroke-linecap:round"
       d="m 917.61423,-26.767045 88.32577,-1.160204 c 11.239,-0.147631 55.075,-1.474961 55.0165,-0.70034 l -3.4355,45.519382 c 0,0 -53.9916,-1.444583 -65.35705,-1.422188 l -71.34106,0.140573 c -11.36538,0.0224 -64.28889,1.81071 -64.64246,-2.128377 l -3.50775,-39.080208 c -0.35356,-3.939086 53.57695,-1.019359 64.94155,-1.168638 z"
       id="rect11194-1-9-8-5"
       inkscape:connector-curvature="0"
       sodipodi:nodetypes="ssccsssss" />
    <path
       style="fill:none"
       inkscape:connector-curvature="0"
       id="path11198-0-0-9-8"
       d="m 169.88327,885.36458 c -3.3261,-18.10842 -23.59893,-14.03947 -33.96536,-10.99638 -18.02556,5.28609 -16.09288,53.26364 -16.1625,70.15018 -0.13947,33.776 -0.29266,70.91582 -1.56423,104.68712"
       class="fil2" />
    <path
       style="fill:#ffffff;fill-opacity:1;fill-rule:evenodd;stroke:#000000;stroke-width:2.33146643999999981;stroke-miterlimit:4;stroke-opacity:1"
       d="m 83.095577,829.56268 30.139353,2.79925 c 1.94004,0.18018 3.51079,0.72513 3.50732,1.58937 l -0.0239,5.93326 c -0.004,0.86424 -1.57335,1.54692 -3.51988,1.53066 l -27.407984,-0.22898 c -1.946532,-0.0162 -3.510792,-0.72512 -3.507314,-1.58937 l 0.02388,-5.93326 c 0.0035,-0.86424 -1.15152,-4.28111 0.788513,-4.10093 z"
       id="rect11194-1-9-8-5-8"
       inkscape:connector-curvature="0"
       sodipodi:nodetypes="sssssssss" />
    <path
       style="fill:#ffffff;fill-opacity:1;fill-rule:evenodd;stroke:#000000;stroke-width:2.33146643999999981;stroke-miterlimit:4;stroke-opacity:1"
       d="m 85.794221,845.00718 27.407989,0.22899 c 1.94653,0.0162 3.5108,0.72512 3.50732,1.58936 l -0.0239,5.93326 c -0.0242,6.02289 -1.51474,3.67522 -2.60943,3.58688 l -28.318439,-2.28519 c -1.941633,-0.1567 -3.510792,-0.72513 -3.507313,-1.58937 l 0.02388,-5.93326 c 0.0035,-0.86425 1.573342,-1.54692 3.519873,-1.53067 z"
       id="rect11194-1-9-8-5-8-8"
       inkscape:connector-curvature="0"
       sodipodi:nodetypes="sssssssss" />
    <path
       style="fill:#ffffff;fill-opacity:1;fill-rule:evenodd;stroke:#000000;stroke-width:2.11006640999999995;stroke-miterlimit:4;stroke-opacity:1"
       d="m 130.39031,864.43967 27.84495,-3.00187 c 1.76618,-0.19041 3.25287,-0.0676 3.38806,0.69429 l 0.92816,5.23034 c 0.1352,0.76185 -1.1582,1.67887 -2.89999,2.05609 l -24.52517,5.31138 c -1.74179,0.37722 -3.25287,0.0676 -3.38806,-0.69429 l -0.92816,-5.23033 c -0.1352,-0.76186 -2.18598,-4.1752 -0.41979,-4.36561 z"
       id="rect11194-1-9-8-5-8-84"
       inkscape:connector-curvature="0"
       sodipodi:nodetypes="sssssssss" />
    <path
       style="fill:#ffffff;fill-opacity:1;fill-rule:evenodd;stroke:#000000;stroke-width:2.11006640999999995;stroke-miterlimit:4;stroke-opacity:1"
       d="m 135.74112,878.0944 24.52517,-5.31139 c 1.74179,-0.37721 3.25287,-0.0675 3.38806,0.6943 l 0.92816,5.23033 c 0.1352,0.76186 0.52207,2.28599 -1.2401,2.518 -8.17505,1.07633 -18.01,2.54589 -26.18506,4.84948 -1.72019,0.48469 -3.25286,0.0676 -3.38806,-0.6943 l -0.92816,-5.23033 c -0.1352,-0.76185 1.1582,-1.67887 2.89999,-2.05609 z"
       id="rect11194-1-9-8-5-8-8-1"
       inkscape:connector-curvature="0"
       sodipodi:nodetypes="sssssssss" />
  </g>
</svg>
