<?xml version="1.0" encoding="UTF-8" standalone="no"?>
<!-- Created with Inkscape (http://www.inkscape.org/) -->

<svg
   xmlns:dc="http://purl.org/dc/elements/1.1/"
   xmlns:cc="http://creativecommons.org/ns#"
   xmlns:rdf="http://www.w3.org/1999/02/22-rdf-syntax-ns#"
   xmlns:svg="http://www.w3.org/2000/svg"
   xmlns="http://www.w3.org/2000/svg"
   xmlns:sodipodi="http://sodipodi.sourceforge.net/DTD/sodipodi-0.dtd"
   xmlns:inkscape="http://www.inkscape.org/namespaces/inkscape"
   version="1.0"
   width="96"
   height="96"
   id="svg2408"
   inkscape:version="0.48.3.1 r9886"
   sodipodi:docname="applications-physics.svg">
  <sodipodi:namedview
     pagecolor="#ffffff"
     bordercolor="#666666"
     borderopacity="1"
     objecttolerance="10"
     gridtolerance="10"
     guidetolerance="10"
     inkscape:pageopacity="0"
     inkscape:pageshadow="2"
     inkscape:window-width="1438"
     inkscape:window-height="850"
     id="namedview71"
     showgrid="false"
     inkscape:zoom="4.1817681"
     inkscape:cx="38.123252"
     inkscape:cy="66.479661"
     inkscape:window-x="0"
     inkscape:window-y="26"
     inkscape:window-maximized="1"
     inkscape:current-layer="svg2408"
     showguides="false" />
  <defs
     id="defs2410">
    <linearGradient
       x1="45.447727"
       y1="92.539597"
       x2="45.447727"
       y2="7.0165396"
       id="ButtonShadow"
       gradientUnits="userSpaceOnUse"
       gradientTransform="scale(1.0058652,0.994169)">
      <stop
         id="stop3750"
         style="stop-color:#000000;stop-opacity:1"
         offset="0" />
      <stop
         id="stop3752"
         style="stop-color:#000000;stop-opacity:0.58823532"
         offset="1" />
    </linearGradient>
    <filter
       color-interpolation-filters="sRGB"
       id="filter3174">
      <feGaussianBlur
         id="feGaussianBlur3176"
         stdDeviation="1.71" />
    </filter>
  </defs>
  <metadata
     id="metadata2413">
    <rdf:RDF>
      <cc:Work
         rdf:about="">
        <dc:format>image/svg+xml</dc:format>
        <dc:type
           rdf:resource="http://purl.org/dc/dcmitype/StillImage" />
        <dc:title />
      </cc:Work>
    </rdf:RDF>
  </metadata>
  <g
     id="layer2"
     style="display:none">
    <rect
       width="86"
       height="85"
       rx="6"
       ry="6"
       x="5"
       y="7"
       id="rect3745"
       style="opacity:0.9;fill:url(#ButtonShadow);fill-opacity:1;fill-rule:nonzero;stroke:none;filter:url(#filter3174)" />
  </g>
  <g
     id="g3368"
     transform="translate(1.1956665,2.6304663)">
    <path
       inkscape:connector-curvature="0"
       id="path3161"
       d="m 43.194185,32.611367 c -0.30057,-0.01 -0.59914,0.0078 -0.90625,0.03125 -4.675027,0.356239 -8.199989,4.449973 -7.84375,9.125 0.02408,0.315991 0.099,0.633127 0.15625,0.9375 1.149768,-0.742959 2.507804,-1.201175 3.96875,-1.3125 1.304799,-0.09943 2.573392,0.08709 3.71875,0.53125 0.493425,-3.40088 3.032358,-6.183843 6.40625,-7 -1.466385,-1.364093 -3.396009,-2.242521 -5.5,-2.3125 z"
       style="fill:#694869;fill-opacity:1;stroke:none" />
    <path
       inkscape:connector-curvature="0"
       id="path3161-1"
       d="m 50.194185,43.517617 c -0.282546,-0.0067 -0.587314,0.0093 -0.875,0.03125 -1.38141,0.105264 -2.642822,0.51286 -3.75,1.1875 1.01892,1.250669 1.674543,2.808422 1.84375,4.53125 l 0.03125,0.1875 c 0.250745,3.290596 -1.42693,6.265425 -4.0625,7.875 1.69568,2.094648 4.35949,3.345258 7.25,3.125 4.675027,-0.356239 8.168739,-4.418723 7.8125,-9.09375 l -0.03125,-0.1875 c -0.423017,-4.30707 -3.980563,-7.555817 -8.21875,-7.65625 z"
       style="fill:#694869;fill-opacity:1;stroke:none" />
    <path
       sodipodi:nodetypes="cccsccssc"
       inkscape:connector-curvature="0"
       id="path3161-1-5-7-8"
       d="m 47.412935,49.017617 0.03125,0.1875 c 0.05476,0.718594 0.02402,1.414689 -0.09375,2.09375 1.154468,0.453961 2.430111,0.663076 3.75,0.5625 4.675027,-0.356239 8.168739,-4.449973 7.8125,-9.125 l 0,-0.1875 c -0.423017,-4.30707 -4.011813,-7.555817 -8.25,-7.65625 -0.282546,-0.0067 -0.556064,0.0093 -0.84375,0.03125 -3.961218,0.301847 -7.075541,3.286092 -7.71875,7.03125"
       style="fill:none;stroke:#694869;stroke-width:0.66982663" />
    <path
       transform="matrix(0.66982665,0,0,0.66982665,8.2245796,16.216828)"
       sodipodi:open="true"
       sodipodi:end="12.46847"
       sodipodi:start="6.2071318"
       d="m 58.551021,49.601696 c 0.531838,6.979459 -4.694991,13.068568 -11.67445,13.600406 -6.979458,0.531839 -13.068568,-4.694991 -13.600406,-11.67445 -0.531838,-6.979458 4.694991,-13.068568 11.67445,-13.600406 6.871881,-0.52364 12.90272,4.539809 13.576354,11.398611"
       sodipodi:ry="12.674065"
       sodipodi:rx="12.674065"
       sodipodi:cy="50.564674"
       sodipodi:cx="45.913593"
       id="path3161-1-5-7-8-1-4-9"
       style="fill:none;stroke:#694869"
       sodipodi:type="arc" />
    <path
       transform="matrix(0.74635354,-0.46595885,0.60789579,1.0100152,-20.747341,2.5000183)"
       sodipodi:open="true"
       sodipodi:end="12.46847"
       sodipodi:start="6.2071318"
       d="M 59.127599,59.06329 C 59.968003,80.660107 51.708627,99.501879 40.679764,101.14757 29.650902,102.79325 20.02896,86.619669 19.188556,65.022853 18.348151,43.426037 26.607528,24.584264 37.63639,22.938577 48.495259,21.318255 58.025122,36.986287 59.089592,58.209749"
       sodipodi:ry="39.217861"
       sodipodi:rx="20.027414"
       sodipodi:cy="62.043072"
       sodipodi:cx="39.158077"
       id="path3294-1-1"
       style="fill:none;stroke:#694869;stroke-width:2.29999995;stroke-linecap:square;stroke-linejoin:round;stroke-miterlimit:4;stroke-opacity:1;stroke-dasharray:none;stroke-dashoffset:9.3"
       sodipodi:type="arc" />
    <path
       transform="matrix(-0.74635354,-0.46595885,-0.60789579,1.0100152,112.37682,0.88492688)"
       sodipodi:open="true"
       sodipodi:end="12.46847"
       sodipodi:start="6.2071318"
       d="M 59.127599,59.06329 C 59.968003,80.660107 51.708627,99.501879 40.679764,101.14757 29.650902,102.79325 20.02896,86.619669 19.188556,65.022853 18.348151,43.426037 26.607528,24.584264 37.63639,22.938577 48.495259,21.318255 58.025122,36.986287 59.089592,58.209749"
       sodipodi:ry="39.217861"
       sodipodi:rx="20.027414"
       sodipodi:cy="62.043072"
       sodipodi:cx="39.158077"
       id="path3294-1-1-7"
       style="fill:none;stroke:#694869;stroke-width:2.29999995;stroke-linecap:square;stroke-linejoin:round;stroke-miterlimit:4;stroke-opacity:1;stroke-dasharray:none;stroke-dashoffset:9.3"
       sodipodi:type="arc" />
    <path
       transform="matrix(0.03035543,-0.87934055,-1.1786467,-0.0214456,118.8087,82.263032)"
       sodipodi:open="true"
       sodipodi:end="12.46847"
       sodipodi:start="6.2071318"
       d="M 59.127599,59.06329 C 59.968003,80.660107 51.708627,99.501879 40.679764,101.14757 29.650902,102.79325 20.02896,86.619669 19.188556,65.022853 18.348151,43.426037 26.607528,24.584264 37.63639,22.938577 48.495259,21.318255 58.025122,36.986287 59.089592,58.209749"
       sodipodi:ry="39.217861"
       sodipodi:rx="20.027414"
       sodipodi:cy="62.043072"
       sodipodi:cx="39.158077"
       id="path3294-1-1-7-2"
       style="fill:none;stroke:#694869;stroke-width:2.29999995;stroke-linecap:square;stroke-linejoin:round;stroke-miterlimit:4;stroke-opacity:1;stroke-dasharray:none;stroke-dashoffset:9.3"
       sodipodi:type="arc" />
  </g>
</svg>
