<?xml version="1.0" encoding="UTF-8" standalone="no"?>
<!-- Generator: Adobe Illustrator 12.0.0, SVG Export Plug-In . SVG Version: 6.00 Build 51448)  -->

<svg
   xmlns:dc="http://purl.org/dc/elements/1.1/"
   xmlns:cc="http://creativecommons.org/ns#"
   xmlns:rdf="http://www.w3.org/1999/02/22-rdf-syntax-ns#"
   xmlns:svg="http://www.w3.org/2000/svg"
   xmlns="http://www.w3.org/2000/svg"
   xmlns:xlink="http://www.w3.org/1999/xlink"
   xmlns:sodipodi="http://sodipodi.sourceforge.net/DTD/sodipodi-0.dtd"
   xmlns:inkscape="http://www.inkscape.org/namespaces/inkscape"
   height="256"
   id="Layer_1"
   inkscape:version="0.48.3.1 r9886"
   sodipodi:docname="huayra-menu-office.svg"
   sodipodi:version="0.32"
   space="preserve"
   style="overflow:visible"
   version="1.1"
   viewBox="0 0 255.99999 255.99999"
   width="256">
  <metadata
     id="metadata3">
    <rdf:RDF>
      <cc:Work
         rdf:about="">
        <dc:title>Tabella</dc:title>
        <dc:description />
        <dc:subject>
          <rdf:Bag>
            <rdf:li>unsorted</rdf:li>
          </rdf:Bag>
        </dc:subject>
        <dc:publisher>
          <cc:Agent
             rdf:about="http://www.openclipart.org/">
            <dc:title>Open Clip Art Library</dc:title>
          </cc:Agent>
        </dc:publisher>
        <dc:creator>
          <cc:Agent>
            <dc:title>Architetto Francesco Rollandin</dc:title>
          </cc:Agent>
        </dc:creator>
        <dc:rights>
          <cc:Agent>
            <dc:title>Architetto Francesco Rollandin</dc:title>
          </cc:Agent>
        </dc:rights>
        <dc:date />
        <dc:format>image/svg+xml</dc:format>
        <dc:type
           rdf:resource="http://purl.org/dc/dcmitype/StillImage" />
        <cc:license
           rdf:resource="http://web.resource.org/cc/PublicDomain" />
        <dc:language>en</dc:language>
      </cc:Work>
      <cc:License
         rdf:about="http://web.resource.org/cc/PublicDomain">
        <cc:permits
           rdf:resource="http://web.resource.org/cc/Reproduction" />
        <cc:permits
           rdf:resource="http://web.resource.org/cc/Distribution" />
        <cc:permits
           rdf:resource="http://web.resource.org/cc/DerivativeWorks" />
      </cc:License>
    </rdf:RDF>
  </metadata>
  <defs
     id="defs111">
    <linearGradient
       y2="463.69629"
       y1="463.69629"
       x2="-246.8481"
       x1="-248.5981"
       id="XMLID_8_"
       gradientUnits="userSpaceOnUse"
       gradientTransform="matrix(181.3333,0,0,-181.3333,45159.266,84188.594)">
      <stop
         style="stop-color:#FFFFFF"
         offset="0"
         id="stop32" />
      <stop
         style="stop-color:#737373"
         offset="1"
         id="stop34" />
    </linearGradient>
    <linearGradient
       inkscape:collect="always"
       xlink:href="#XMLID_8_"
       id="linearGradient3089"
       gradientUnits="userSpaceOnUse"
       gradientTransform="matrix(330.92589,0,0,-330.92589,82413.823,153644.57)"
       x1="-248.5981"
       y1="463.69629"
       x2="-246.8481"
       y2="463.69629" />
  </defs>
  <sodipodi:namedview
     bordercolor="#666666"
     borderopacity="1.0"
     id="base"
     inkscape:current-layer="Layer_1"
     inkscape:cx="103.62386"
     inkscape:cy="126.36433"
     inkscape:pageopacity="0.0"
     inkscape:pageshadow="2"
     inkscape:window-height="867"
     inkscape:window-width="1301"
     inkscape:window-x="252"
     inkscape:window-y="121"
     inkscape:zoom="1.9141602"
     pagecolor="#ffffff"
     showgrid="false"
     inkscape:window-maximized="0" />
  <rect
     style="fill:#8abb22;fill-opacity:1;stroke:#492356;stroke-width:2.57602428999999988;stroke-miterlimit:0;stroke-opacity:1;stroke-dasharray:none"
     id="rect3103"
     width="252.42397"
     height="252.42397"
     x="1.7880123"
     y="1.7880123"
     ry="15.914649" />
  <path
     inkscape:connector-curvature="0"
     style="fill:#a6f488"
     id="path22"
     d="m 68.788596,118.12086 c -8.708706,0 -16.374392,0 -25.083097,0 -4.465676,0 -1.826301,8.21693 -1.826301,11.96539 0,23.80112 0,46.03681 0,69.83975 0,7.11187 0,16.31707 0,23.43076 0,3.05864 15.724222,-0.22957 18.771904,-0.22957 0.868681,0 8.135669,0.43617 8.135669,-0.35769 0,-5.70665 0,-11.40965 0,-17.1163 0,-8.51161 0.155122,-7.15384 -9.139396,-7.38378 -0.91978,-0.0219 -17.713055,-0.16607 -17.713055,-0.9946 0,-1.99833 26.852451,0.77195 26.852451,-2.2155 0,-8.29809 0,-16.59436 0,-24.89245 0.0018,-17.34806 0.0018,-34.6943 0.0018,-52.04601"
     sodipodi:nodetypes="cssssssscsscc" />
  <path
     inkscape:connector-curvature="0"
     style="fill:#a6f488"
     id="path29"
     d="m 212.03037,91.475241 c -9.06274,0 -18.91095,1.306056 -27.97187,1.306056 -0.76367,32.901333 -0.91307,70.942223 -0.31802,102.815133 9.14852,-0.2336 15.9954,2.39846 28.63188,1.61139 -0.31936,-9.92413 -2.00707,-34.21851 -2.06182,-44.14629 -0.11862,-20.04901 0.13553,-41.04406 1.45862,-61.063866"
     sodipodi:nodetypes="cccccc" />
  <path
     inkscape:connector-curvature="0"
     style="fill:url(#linearGradient3089)"
     id="path36"
     d="m 194.63414,195.45716 c -1.90343,-0.0128 -3.80322,0.062 -5.69752,0.22264 5.25953,0 10.52454,0 15.78589,0 -3.3634,-0.0803 -6.7268,-0.22264 -10.08837,-0.22264" />
  <path
     inkscape:connector-curvature="0"
     style="fill:#492356;fill-opacity:1"
     id="path38"
     d="m 127.39716,171.93343 c -9.96792,0 -19.9322,0 -29.901954,0 0.799332,0 -2.151627,-25.58045 -0.268269,-27.33606 3.558673,-3.31413 24.562123,0 29.901963,0 0.54201,0.002 0.26826,24.47818 0.26826,27.33606" />
  <path
     inkscape:connector-curvature="0"
     style="fill:#492356;fill-opacity:1"
     id="path40"
     d="m 43.556709,172.85321 c 0,3.2758 0.284693,54.74513 -1.620564,54.74513 -2.443621,0 -2.443621,-109.49026 0,-109.49026 1.905257,0 1.620564,51.4675 1.620564,54.74513" />
  <path
     inkscape:connector-curvature="0"
     style="fill:#492356;fill-opacity:1"
     id="path42"
     d="m 70.476683,172.85321 c 0,3.2758 0.284694,54.74513 -1.620564,54.74513 -2.441795,0 -2.441795,-109.49026 0,-109.49026 1.905258,0 1.620564,51.4675 1.620564,54.74513" />
  <path
     inkscape:connector-curvature="0"
     style="fill:#492356;fill-opacity:1"
     id="path44"
     d="m 97.925896,156.22783 c 0,4.04046 0.284694,68.20421 -1.620564,68.20421 -2.445445,0 -2.445445,-136.410237 0,-136.410237 1.905258,0 1.620564,64.163747 1.620564,68.206027" />
  <path
     inkscape:connector-curvature="0"
     style="fill:#492356;fill-opacity:1"
     id="path46"
     d="m 129.07065,156.22783 c 0,4.04046 0.2847,68.20421 -1.62056,68.20421 -2.44545,0 -2.44545,-136.410237 0,-136.410237 1.90526,0 1.62056,64.163747 1.62056,68.206027" />
  <path
     inkscape:connector-curvature="0"
     style="fill:#492356;fill-opacity:1"
     id="path48"
     d="m 185.02755,142.77606 c 0,3.27762 0.26645,54.7287 -1.62421,54.7287 -2.45822,0 -2.45822,-109.482957 0,-109.482957 1.89248,0 1.62421,51.480277 1.62421,54.754257" />
  <path
     inkscape:connector-curvature="0"
     style="fill:#492356;fill-opacity:1"
     id="path50"
     d="m 156.51621,156.22783 c 0,4.04046 0.2847,68.20421 -1.62056,68.20421 -2.44727,0 -2.44727,-136.410237 0,-136.410237 1.90526,0 1.62056,64.163747 1.62056,68.206027" />
  <path
     inkscape:connector-curvature="0"
     style="fill:#492356;fill-opacity:1"
     id="path52"
     d="m 213.52977,142.77606 c 0,3.27762 0.26827,54.7287 -1.62422,54.7287 -2.45639,0 -2.45639,-109.482957 0,-109.482957 1.89431,0 1.62422,51.480277 1.62422,54.754257" />
  <path
     inkscape:connector-curvature="0"
     style="fill:#492356;fill-opacity:1"
     id="path54"
     d="m 127.29862,116.48752 c 5.01863,0 85.35699,-0.28835 85.35699,1.62056 0,2.44545 -170.719465,2.44545 -170.719465,0 0,-1.90891 80.342005,-1.62056 85.362475,-1.62056" />
  <path
     inkscape:connector-curvature="0"
     style="fill:#492356;fill-opacity:1"
     id="path56"
     d="m 127.29862,141.82343 c 5.01863,0 85.35699,-0.28652 85.35699,1.62239 0,2.44544 -170.719465,2.44544 -170.719465,0 0,-1.90891 80.342005,-1.62239 85.362475,-1.62239" />
  <path
     inkscape:connector-curvature="0"
     style="fill:#492356;fill-opacity:1"
     id="path58"
     d="m 127.29862,170.85671 c 5.01863,0 85.35699,-0.28835 85.35699,1.62056 0,2.44727 -170.719465,2.44362 -170.719465,0 0,-1.90891 80.342005,-1.62056 85.362475,-1.62056" />
  <path
     inkscape:connector-curvature="0"
     style="fill:#492356;fill-opacity:1"
     id="path60"
     d="m 154.23684,90.094957 c 3.61889,0 60.79487,-0.284694 60.79487,1.620564 0,2.44362 -121.593389,2.44362 -121.593389,0 0,-1.903433 57.179629,-1.620564 60.798519,-1.620564" />
  <path
     inkscape:connector-curvature="0"
     style="fill:#492356;fill-opacity:1"
     id="path62"
     d="m 127.30409,195.64695 c 5.02046,0 85.3424,-0.26827 85.3424,1.62969 0,2.46187 -170.710345,2.46187 -170.710345,0 0,-1.89796 80.349305,-1.62969 85.367945,-1.62969" />
  <path
     inkscape:connector-curvature="0"
     style="fill:#492356;fill-opacity:1"
     id="path64"
     d="m 99.360314,222.58883 c 3.427276,0 57.416866,-0.28652 57.416866,1.61874 0,2.44362 -114.84286,2.44362 -114.84286,0 0.0018,-1.90526 53.998721,-1.61874 57.425994,-1.61874" />
  <path
     inkscape:connector-curvature="0"
     style="fill:#dbdbdb"
     id="path72"
     d="m 182.98907,195.6871 c -1.26287,0.69166 0.0675,0.55114 0,0" />
  <path
     inkscape:connector-curvature="0"
     style="fill:#dbdbdb"
     id="path76"
     d="m 211.30697,194.25633 c 0.0566,0.98366 0.15877,2.79949 0,0" />
  <path
     inkscape:connector-curvature="0"
     style="fill:#d2d2d2"
     id="path78"
     d="m 211.30697,193.5957 c 0.0401,1.02015 0.0602,0.74276 0,0" />
  <rect
     ry="14.439755"
     y="1.7880124"
     x="1.7880123"
     height="55.02039"
     width="252.42397"
     id="rect3873"
     style="fill:#492356;fill-opacity:1;stroke:none"
     rx="16.717514" />
</svg>
