<?xml version="1.0" encoding="UTF-8" standalone="no"?>
<!-- Created with Inkscape (http://www.inkscape.org/) -->

<svg
   xmlns:dc="http://purl.org/dc/elements/1.1/"
   xmlns:cc="http://creativecommons.org/ns#"
   xmlns:rdf="http://www.w3.org/1999/02/22-rdf-syntax-ns#"
   xmlns:svg="http://www.w3.org/2000/svg"
   xmlns="http://www.w3.org/2000/svg"
   xmlns:sodipodi="http://sodipodi.sourceforge.net/DTD/sodipodi-0.dtd"
   xmlns:inkscape="http://www.inkscape.org/namespaces/inkscape"
   version="1.0"
   width="256"
   height="256"
   id="svg2408"
   style="display:inline"
   inkscape:version="0.48.3.1 r9886"
   sodipodi:docname="huayra-menu-internet.svg">
  <sodipodi:namedview
     pagecolor="#ffffff"
     bordercolor="#666666"
     borderopacity="1"
     objecttolerance="10"
     gridtolerance="10"
     guidetolerance="10"
     inkscape:pageopacity="0"
     inkscape:pageshadow="2"
     inkscape:window-width="1918"
     inkscape:window-height="1007"
     id="namedview698"
     showgrid="false"
     inkscape:zoom="2.4583333"
     inkscape:cx="196.91622"
     inkscape:cy="111.95848"
     inkscape:window-x="0"
     inkscape:window-y="25"
     inkscape:window-maximized="1"
     inkscape:current-layer="svg2408" />
  <defs
     id="defs2410">
    <linearGradient
       x1="45.447727"
       y1="92.539597"
       x2="45.447727"
       y2="7.0165396"
       id="ButtonShadow"
       gradientUnits="userSpaceOnUse"
       gradientTransform="scale(1.0058652,0.994169)">
      <stop
         id="stop3750"
         style="stop-color:#000000;stop-opacity:1"
         offset="0" />
      <stop
         id="stop3752"
         style="stop-color:#000000;stop-opacity:0.58823532"
         offset="1" />
    </linearGradient>
    <filter
       color-interpolation-filters="sRGB"
       id="filter3174">
      <feGaussianBlur
         id="feGaussianBlur3176"
         stdDeviation="1.71" />
    </filter>
  </defs>
  <metadata
     id="metadata2413">
    <rdf:RDF>
      <cc:Work
         rdf:about="">
        <dc:format>image/svg+xml</dc:format>
        <dc:type
           rdf:resource="http://purl.org/dc/dcmitype/StillImage" />
        <dc:title />
      </cc:Work>
    </rdf:RDF>
  </metadata>
  <g
     id="layer2"
     style="display:none"
     transform="translate(0,160)">
    <rect
       width="86"
       height="85"
       rx="6"
       ry="6"
       x="5"
       y="7"
       id="rect3745"
       style="opacity:0.9;fill:url(#ButtonShadow);fill-opacity:1;fill-rule:nonzero;stroke:none;filter:url(#filter3174)" />
  </g>
  <path
     style="fill:#8abb22;fill-opacity:1;fill-rule:evenodd;stroke:#492356;stroke-width:4.15086507999999998;display:inline"
     id="path5993"
     d="m 202.88624,128.0241 a 74.716592,74.71252 0 0 1 -149.433172,0 74.716592,74.71252 0 1 1 149.433172,0 z"
     inkscape:connector-curvature="0" />
  <path
     style="fill:#492356;fill-opacity:1;fill-rule:nonzero;stroke-miterlimit:4;display:inline"
     id="path4144"
     inkscape:connector-curvature="0"
     d="m 127.67811,55.085359 -8.47936,0.98313 -10.44558,2.887884 -1.96622,1.90479 6.51314,4.485423 0,2.580681 -2.58068,2.58068 3.37946,6.697463 2.2734,-1.228911 2.82648,-4.546906 c 4.36817,-1.353047 8.32133,-2.868658 12.47324,-4.792661 l 3.37946,-8.663689 -7.37334,-2.887884 z m -19.84659,1.044566 c -1.86789,0.528152 -3.72458,1.115043 -5.53003,1.781882 l -0.0617,0.06142 c -0.0357,0.0124 -0.0872,-0.0124 -0.12299,0 -2.492293,0.92792 -4.891888,2.01682 -7.250467,3.195124 l 3.686679,0.675891 1.41322,-1.290346 2.826438,-0.614444 c 1.93713,-0.943866 3.90482,-1.607426 5.96015,-2.273429 l -0.92169,-1.536114 z m -16.897286,7.311918 -0.553,1.290335 0.245653,3.195089 -2.211989,1.904789 -1.413262,3.563763 2.826462,0 1.41321,-3.195088 c 1.219435,-0.864004 2.38326,-1.749047 3.625249,-2.580669 l 2.82642,0.983084 c 1.884199,1.28258 3.767193,2.528999 5.652903,3.80959 l 2.88793,-2.58068 -3.13368,-1.22891 -1.41324,-2.887873 -5.407104,-0.675891 -0.245935,-1.597539 -2.580679,0.614408 -1.106,2.273465 -1.41323,-2.887873 z m 72.443146,2.580633 -5.40711,1.290335 -3.37946,2.21204 0,1.904742 -5.34566,3.563812 1.106,5.099877 3.13367,-2.211994 1.96623,2.211994 2.27345,1.290346 1.41322,-3.809542 -0.86024,-2.273478 0.86024,-1.597537 3.07221,-2.887885 1.41324,0 -1.41324,3.195087 0,2.887922 c 1.29921,-0.354067 2.6644,-0.448826 3.99392,-0.614444 l -3.68667,2.519196 -0.30728,1.659022 -4.23968,3.502328 -4.23967,-0.983082 0,-2.519246 -1.96622,1.228899 0.86019,2.273429 -3.13367,0 -1.65899,2.887884 -2.15055,2.396373 -3.80956,0.798751 2.27344,2.273477 0.55299,2.211994 -2.82643,0 -3.68667,1.966222 0,5.714332 1.72045,0 1.53611,1.78191 3.56379,-1.78191 1.4132,-3.502333 2.51922,-1.597543 0.553,-1.290346 4.2397,-0.983129 2.27345,2.580684 2.51922,1.290334 -1.41319,2.887873 2.27343,-0.61441 1.16744,-2.887919 -2.82646,-3.256562 1.10599,0 2.82648,2.273475 0.55299,3.195116 2.58067,2.88789 0.55302,-4.178218 1.41321,-0.614455 c 1.39798,1.454014 2.50926,3.156233 3.68667,4.792673 l 4.23967,0.30716 2.51923,1.59755 -1.10601,1.59754 -2.58067,2.27347 -3.62522,0 -4.85412,-1.59755 -2.51922,0.30717 -1.84335,2.08908 -5.22278,-5.2842 -3.68667,-0.98313 -5.3457,0.67593 -4.85409,1.29029 c -2.69717,3.06353 -5.31207,6.09653 -7.86493,9.27812 l -3.13367,7.37335 1.41325,1.59759 -2.51923,3.87098 2.82643,6.69746 c 2.40425,2.72488 4.78827,5.4453 7.18901,8.17214 l 3.50235,-3.01079 1.59755,1.78188 3.80956,-2.45777 1.29035,1.47468 3.80957,0 2.15055,2.45777 -1.35178,4.42403 2.70356,3.07223 -0.12295,5.2842 1.96626,3.80958 -1.41327,3.25658 c -0.14071,2.3593 -0.24564,4.64493 -0.24564,7.00467 1.15876,3.19683 2.28527,6.42698 3.37945,9.64677 l 0.79879,5.09993 0,2.58066 2.02766,0 3.07221,-1.90478 3.68668,0 5.53002,-6.26736 -0.73732,-2.08913 3.68666,-3.19508 -2.70355,-3.07227 3.25654,-2.70353 3.13368,-1.90476 1.41325,-1.59759 -0.86024,-3.56375 c 0,-2.99107 0,-5.9795 0,-8.97095 l 2.58069,-5.46855 3.07222,-3.50234 3.37945,-8.35647 0,-2.21201 c -1.67657,0.21171 -3.27551,0.37276 -4.91557,0.49155 l -0.12299,0.12287 -0.12296,-0.12287 c -0.99276,0.0676 -1.98998,0.12287 -3.01079,0.12287 -1.80054,-3.79073 -3.17577,-7.58583 -4.54688,-11.55158 l -2.39635,-2.70353 -1.22889,-4.66981 0.79878,-0.92165 3.25654,3.68667 3.80959,8.17214 2.27344,2.51919 -1.106,2.88794 2.15056,2.45776 c 0.081,-0.004 0.16501,0.004 0.24566,0 l 3.37945,-3.37946 4.66979,-3.1951 2.58068,-2.88791 0,-3.25657 c -0.56597,-1.06935 -1.15061,-2.12573 -1.72047,-3.19509 l -2.27344,2.58068 -1.72044,-1.90479 -2.51922,-1.96622 0,-4.1168 2.94933,3.318 3.25656,-0.43011 c 1.48122,1.34725 2.9405,2.58288 4.2397,4.11679 l 2.0891,-2.33486 C 198.91344,97.602212 189.22806,81.539907 175.48159,70.262131 l -0.553,0.860223 -2.82646,3.195124 -3.62521,-3.809531 3.62521,0 1.53614,-1.720458 c -0.12672,-0.09756 -0.24128,-0.210452 -0.36868,-0.307168 l -6.20591,-1.167462 -3.68667,-1.290347 z m -77.297237,0.245732 c -0.999769,0.682571 -1.923796,1.421459 -2.887918,2.150522 l -0.430122,1.106038 c 0,0 -0.774904,0.129921 -1.351746,0.245732 -15.99726,12.863364 -26.603434,32.20698 -27.834424,54.00976 0.768118,1.3189 1.720476,2.82645 1.720476,2.82645 l 5.960112,3.50234 5.898657,1.65901 2.580679,3.19509 3.93246,2.88794 2.273438,-0.36861 1.720445,0.79875 0,0.49155 -2.27344,6.08305 -1.720443,2.58063 0.552995,1.29033 -1.413232,4.79268 5.099906,9.33957 5.099908,4.48548 2.273436,3.19512 -0.307289,6.7589 1.720443,3.80957 -1.720443,7.37335 c 0,0 -0.04027,0.0544 0.06135,0.49154 2.376611,1.68509 4.864172,3.26671 7.434804,4.66976 0.04023,0.0207 0.0825,0.0415 0.122987,0.0615 0.110491,0.0518 0.264329,0.13699 0.368679,0.18431 0.911292,0.41384 1.579914,0.65765 1.72044,0.55302 0.560123,-0.42633 1.04457,-0.7988 1.04457,-0.7988 l -0.552991,-1.59754 2.27344,-2.27347 0.86021,-2.212 3.625247,-1.29029 2.82643,-7.06614 -0.79879,-1.9048 1.96623,-2.88787 4.2397,-0.98313 2.27345,-5.16136 -0.55304,-6.39021 3.37951,-4.79268 0.55299,-4.79267 c -4.64206,-2.30634 -9.27909,-4.6916 -13.88648,-7.06614 l -2.212027,-4.48548 -4.239669,-0.98308 -2.273459,-6.08301 -5.65287,0.61446 -4.792699,-3.50233 -5.099907,4.48541 0,0.67589 c -1.540314,-0.44543 -3.421117,-0.50687 -4.792662,-1.35178 l -1.167449,-3.19512 0,-3.50234 -3.379464,0.30717 c 0.283296,-2.24553 0.575102,-4.4523 0.860238,-6.69747 l -2.027652,0 -1.96626,2.51925 -1.9662,0.98314 -2.826465,-1.5976 -0.307289,-3.56376 0.614483,-3.80958 4.239668,-3.19513 3.379432,0 0.552994,-1.96622 4.239702,0.98313 3.133675,3.87102 0.552995,-6.4517 5.345692,-4.48545 2.027652,-4.79267 3.932458,-1.597552 2.27344,-3.195122 5.099908,-0.983096 2.51922,-3.871015 c -2.545067,0 -5.074062,0 -7.619128,0 l 4.792698,-2.211992 3.37942,0 4.792665,-1.597587 0.61445,-1.966225 -1.72045,-1.597537 -1.96619,-0.614455 0.553,-1.90479 -1.413226,-2.887885 -3.379469,1.22891 0.553,-2.519244 -3.932459,-2.27343 -3.133679,5.468554 0.307288,1.904753 -3.13367,1.290335 -1.966232,4.178266 -0.860238,-3.871014 -5.345658,-2.212006 -0.860238,-2.887919 7.066134,-4.17822 3.072223,-2.887884 0.307288,-3.502328 -1.720443,-0.98313 -0.307289,-0.06142 z m 49.217087,3.932404 -2.212,1.22891 -1.16745,-0.307168 -0.24566,1.966225 1.96624,1.228899 3.37946,-2.211994 -1.72045,-1.904789 z m -37.296858,0.614455 -2.27345,1.597585 2.82644,1.90479 2.273428,0 0,-2.212041 -2.826418,-1.290334 z m 44.670218,7.373342 0,1.904789 1.16741,1.290347 0,2.887873 -0.61442,3.871014 3.13368,-0.67588 2.27344,-2.211993 -1.96623,-1.904801 c -0.66477,-1.77358 -1.44145,-3.460237 -2.27344,-5.161349 l -1.72044,0 z m -1.106,3.871015 -2.02768,0.614454 0.61442,3.502329 2.51926,-1.228899 -1.106,-2.887884 z m -39.01731,5.775804 0.79875,4.485423 1.72047,-2.580634 -2.51922,-1.904789 z" />
  <path
     style="fill:#8abb22;fill-opacity:1;stroke:none;display:inline"
     id="path4464"
     inkscape:connector-curvature="0"
     d="M 50.467513,78.664498 1.1286592,128.00334 50.467513,177.3422 l 0,-21.14522 -28.193629,-28.19364 28.193629,-28.193614 0,-21.145228 z" />
  <path
     style="fill:#8abb22;fill-opacity:1;stroke:none;display:inline"
     id="path3722"
     inkscape:connector-curvature="0"
     d="m 205.53249,78.664498 0,21.145228 28.19362,28.193614 -28.19362,28.19364 0,21.14522 49.33885,-49.33886 -49.33885,-49.338842 z" />
</svg>
