<?xml version="1.0" encoding="UTF-8" standalone="no"?>
<!-- Created with Inkscape (http://www.inkscape.org/) -->

<svg
   xmlns:dc="http://purl.org/dc/elements/1.1/"
   xmlns:cc="http://creativecommons.org/ns#"
   xmlns:rdf="http://www.w3.org/1999/02/22-rdf-syntax-ns#"
   xmlns:svg="http://www.w3.org/2000/svg"
   xmlns="http://www.w3.org/2000/svg"
   xmlns:sodipodi="http://sodipodi.sourceforge.net/DTD/sodipodi-0.dtd"
   xmlns:inkscape="http://www.inkscape.org/namespaces/inkscape"
   version="1.1"
   width="256"
   height="256"
   id="svg1307"
   inkscape:version="0.48.3.1 r9886"
   sodipodi:docname="huayra-menu-preferences.svg">
  <sodipodi:namedview
     pagecolor="#ffffff"
     bordercolor="#666666"
     borderopacity="1"
     objecttolerance="10"
     gridtolerance="10"
     guidetolerance="10"
     inkscape:pageopacity="0"
     inkscape:pageshadow="2"
     inkscape:window-width="1918"
     inkscape:window-height="1007"
     id="namedview8"
     showgrid="false"
     inkscape:zoom="1.7383042"
     inkscape:cx="114.38125"
     inkscape:cy="77.805093"
     inkscape:window-x="0"
     inkscape:window-y="25"
     inkscape:window-maximized="1"
     inkscape:current-layer="svg1307" />
  <defs
     id="defs1309" />
  <metadata
     id="metadata1312">
    <rdf:RDF>
      <cc:Work
         rdf:about="">
        <dc:format>image/svg+xml</dc:format>
        <dc:type
           rdf:resource="http://purl.org/dc/dcmitype/StillImage" />
        <dc:title />
      </cc:Work>
    </rdf:RDF>
  </metadata>
  <rect
     style="fill:#492356;fill-opacity:1"
     id="rect3751"
     width="107.12421"
     height="68.865295"
     x="18.690027"
     y="124.72066" />
  <rect
     style="fill:#492356;fill-opacity:1"
     id="rect3751-8"
     width="107.12421"
     height="68.865295"
     x="129.09286"
     y="62.960598" />
  <path
     inkscape:connector-curvature="0"
     style="fill:#8abb22;fill-opacity:1;fill-rule:evenodd;stroke:#492356;stroke-width:2.14976263000000012;stroke-miterlimit:4;stroke-opacity:1;stroke-dasharray:none"
     id="rect3938"
     d="m 29.138528,3.2044485 c -14.399641,0 -25.9340756,11.5344445 -25.9340756,25.9340915 l 0,197.72292 c 0,14.39965 11.5344346,25.93409 25.9340756,25.93409 l 197.722952,0 c 14.39964,0 25.93407,-11.53444 25.93407,-25.93409 l 0,-197.72292 c 0,-14.399647 -11.53443,-25.9340915 -25.93407,-25.9340915 l -197.722952,0 z m 142.734902,29.6389395 24.76412,0 0,20.474285 -24.76412,0 0,-20.474285 z m -112.510981,1.169954 24.764115,0 0,81.117098 -24.764115,0 0,-81.117098 z m 93.206681,31.588881 63.17775,0 c 10.19051,0 18.32934,8.13884 18.32934,18.329359 l 0,25.739058 c 0,10.19051 -8.13883,18.32935 -18.32934,18.32935 l -63.17775,0 c -10.19052,0 -18.32935,-8.13884 -18.32935,-18.32935 l 0,-25.739058 c 0,-10.190519 8.13883,-18.329359 18.32935,-18.329359 z m -112.316,62.397767 63.17775,0 c 10.19051,0 18.32934,8.13885 18.32934,18.32937 l 0,25.73905 c 0,10.19052 -8.13883,18.32936 -18.32934,18.32936 l -63.17775,0 c -10.190513,0 -18.329346,-8.13884 -18.329346,-18.32936 l 0,-25.73905 c 0,-10.19052 8.138833,-18.32937 18.329346,-18.32937 z m 131.6203,12.47954 24.76412,0 0,80.72714 -24.76412,0 0,-80.72714 z m -112.510981,62.59282 24.764115,0 0,19.10928 -24.764115,0 0,-19.10928 z" />
</svg>
