<?xml version="1.0" encoding="UTF-8" standalone="no"?>
<!-- Created with Inkscape (http://www.inkscape.org/) -->

<svg
   xmlns:dc="http://purl.org/dc/elements/1.1/"
   xmlns:cc="http://creativecommons.org/ns#"
   xmlns:rdf="http://www.w3.org/1999/02/22-rdf-syntax-ns#"
   xmlns:svg="http://www.w3.org/2000/svg"
   xmlns="http://www.w3.org/2000/svg"
   xmlns:sodipodi="http://sodipodi.sourceforge.net/DTD/sodipodi-0.dtd"
   xmlns:inkscape="http://www.inkscape.org/namespaces/inkscape"
   height="16"
   width="16"
   id="svg7384"
   version="1.1"
   inkscape:version="0.92.1 r15371"
   sodipodi:docname="input-keyboard-symbolic.svg">
  <metadata
     id="metadata90">
    <rdf:RDF>
      <cc:Work
         rdf:about="">
        <dc:format>image/svg+xml</dc:format>
        <dc:type
           rdf:resource="http://purl.org/dc/dcmitype/StillImage" />
        <dc:title>Gnome Symbolic Icon Theme</dc:title>
      </cc:Work>
    </rdf:RDF>
  </metadata>
  <sodipodi:namedview
     guidetolerance="10"
     inkscape:window-height="1023"
     inkscape:snap-nodes="true"
     inkscape:guide-bbox="true"
     inkscape:window-width="1918"
     inkscape:zoom="2.1808934"
     inkscape:snap-global="true"
     inkscape:snap-bbox-midpoints="false"
     borderopacity="1"
     showguides="true"
     inkscape:snap-to-guides="true"
     inkscape:window-x="0"
     inkscape:window-y="26"
     inkscape:window-maximized="1"
     inkscape:object-nodes="false"
     inkscape:snap-others="false"
     objecttolerance="10"
     id="namedview88"
     showgrid="true"
     showborder="false"
     inkscape:snap-bbox="true"
     inkscape:current-layer="layer10"
     inkscape:snap-grids="true"
     inkscape:object-paths="false"
     inkscape:pageopacity="1"
     bordercolor="#666666"
     gridtolerance="10"
     inkscape:bbox-paths="false"
     inkscape:cx="120.5581"
     inkscape:cy="-30.66805"
     pagecolor="#555753"
     inkscape:pageshadow="2">
    <inkscape:grid
       snapvisiblegridlinesonly="true"
       visible="true"
       enabled="true"
       id="grid4866"
       spacingx="1"
       spacingy="1"
       type="xygrid"
       empspacing="2"
       originx="0"
       originy="0" />
  </sodipodi:namedview>
  <title
     id="title9167">Gnome Symbolic Icon Theme</title>
  <defs
     id="defs7386" />
  <g
     inkscape:label="status"
     style="display:inline"
     transform="translate(-121,-448)"
     id="layer9"
     inkscape:groupmode="layer" />
  <g
     inkscape:label="devices"
     transform="translate(-121,-448)"
     id="layer10"
     inkscape:groupmode="layer">
    <path
       d="m 122,450 c -0.554,0 -1,0.446 -1,1 l 0,10 c 0,0.554 0.446,1 1,1 l 14,0 c 0.554,0 1,-0.446 1,-1 l 0,-10 c 0,-0.554 -0.446,-1 -1,-1 l -14,0 z m 1,2 2,0 0,2 -2,0 0,-2 z m 3,0 2,0 0,2 -2,0 0,-2 z m 3,0 2,0 0,2 -2,0 0,-2 z m 3,0 2,0 0,2 -2,0 0,-2 z m -8,3.03125 2,0 0,2 -2,0 0,-2 z m 3,0 2,0 0,2 -2,0 0,-2 z m 3,0 2,0 0,2 -2,0 0,-2 z m 3,0 2,0 0,2 -2,0 0,-2 z m -10,3 2,0 0,2 -2,0 0,-2 z m 3,0 6,0 0,2 -6,0 0,-2 z m 7,0 3,0 0,2 -3,0 0,-2 z"
       style="color:#bebebe;fill:#9283be;fill-opacity:1;fill-rule:nonzero;stroke:none;stroke-width:3;marker:none;visibility:visible;display:inline;overflow:visible;enable-background:accumulate"
       id="rect4890"
       inkscape:connector-curvature="0" />
  </g>
  <g
     inkscape:label="apps"
     transform="translate(-121,-448)"
     id="layer11"
     inkscape:groupmode="layer" />
  <g
     inkscape:label="places"
     transform="translate(-121,-448)"
     id="layer13"
     inkscape:groupmode="layer" />
  <g
     inkscape:label="mimetypes"
     transform="translate(-121,-448)"
     id="layer14"
     inkscape:groupmode="layer" />
  <g
     inkscape:label="emblems"
     style="display:inline"
     transform="translate(-121,-448)"
     id="layer15"
     inkscape:groupmode="layer" />
  <g
     inkscape:label="emotes"
     transform="translate(-121,-448)"
     style="display:inline"
     id="g71291"
     inkscape:groupmode="layer" />
  <g
     inkscape:label="categories"
     style="display:inline"
     transform="translate(-121,-448)"
     id="g4953"
     inkscape:groupmode="layer" />
  <g
     inkscape:label="actions"
     transform="translate(-121,-448)"
     style="display:inline"
     id="layer12"
     inkscape:groupmode="layer" />
</svg>
