<?xml version="1.0" encoding="UTF-8" standalone="no"?>
<!-- Created with Inkscape (http://www.inkscape.org/) -->

<svg
   xmlns:dc="http://purl.org/dc/elements/1.1/"
   xmlns:cc="http://creativecommons.org/ns#"
   xmlns:rdf="http://www.w3.org/1999/02/22-rdf-syntax-ns#"
   xmlns:svg="http://www.w3.org/2000/svg"
   xmlns="http://www.w3.org/2000/svg"
   xmlns:sodipodi="http://sodipodi.sourceforge.net/DTD/sodipodi-0.dtd"
   xmlns:inkscape="http://www.inkscape.org/namespaces/inkscape"
   sodipodi:docname="appointment-missed-symbolic.svg"
   width="16"
   inkscape:version="0.92.1 r15371"
   version="1.1"
   id="svg7384"
   height="16">
  <metadata
     id="metadata90">
    <rdf:RDF>
      <cc:Work
         rdf:about="">
        <dc:format>image/svg+xml</dc:format>
        <dc:type
           rdf:resource="http://purl.org/dc/dcmitype/StillImage" />
        <dc:title>Gnome Symbolic Icon Theme</dc:title>
      </cc:Work>
    </rdf:RDF>
  </metadata>
  <sodipodi:namedview
     inkscape:window-x="0"
     inkscape:window-y="26"
     borderopacity="1"
     inkscape:window-maximized="1"
     inkscape:snap-nodes="true"
     inkscape:window-height="1023"
     inkscape:guide-bbox="true"
     bordercolor="#666666"
     inkscape:current-layer="layer9"
     inkscape:snap-global="true"
     showgrid="false"
     inkscape:zoom="6.6299213"
     gridtolerance="10"
     id="namedview88"
     inkscape:snap-others="false"
     inkscape:snap-bbox="true"
     pagecolor="#ffffff"
     inkscape:snap-grids="true"
     inkscape:bbox-paths="false"
     inkscape:snap-bbox-midpoints="false"
     inkscape:cx="46"
     inkscape:cy="-21.5"
     objecttolerance="10"
     showguides="true"
     inkscape:window-width="1918"
     inkscape:snap-to-guides="true"
     inkscape:object-nodes="true"
     guidetolerance="10"
     inkscape:pageopacity="0"
     showborder="false"
     inkscape:object-paths="true"
     inkscape:pageshadow="2">
    <inkscape:grid
       empspacing="2"
       spacingx="1"
       spacingy="1"
       type="xygrid"
       id="grid4866"
       visible="true"
       snapvisiblegridlinesonly="true"
       enabled="true"
       originx="0"
       originy="0" />
  </sodipodi:namedview>
  <title
     id="title9167">Gnome Symbolic Icon Theme</title>
  <defs
     id="defs7386" />
  <g
     inkscape:groupmode="layer"
     id="layer9"
     transform="translate(-181.0002,-397)"
     style="display:inline"
     inkscape:label="status">
    <path
       d="M 187.40625,402 A 0.50005,0.50005 0 0 0 187,402.5 l 0,2.5 -1.5,0 a 0.50005,0.50005 0 1 0 0,1 l 2,0 a 0.50005,0.50005 0 0 0 0.5,-0.5 l 0,-3 a 0.50005,0.50005 0 0 0 -0.59375,-0.5 z"
       id="path4639-4-4-7"
       inkscape:connector-curvature="0"
       style="font-size:medium;font-style:normal;font-variant:normal;font-weight:normal;font-stretch:normal;text-indent:0;text-align:start;text-decoration:none;line-height:normal;letter-spacing:normal;word-spacing:normal;text-transform:none;direction:ltr;block-progression:tb;writing-mode:lr-tb;text-anchor:start;baseline-shift:baseline;opacity:1;color:#000000;fill:#832c85;fill-opacity:0.45882353;stroke:none;stroke-width:1;marker:none;visibility:visible;display:inline;overflow:visible;enable-background:accumulate;font-family:Sans;-inkscape-font-specification:Sans" />
    <path
       d="m 191.99995,408 1.375,0 1.125,1.09375 1.09375,-1.09375 1.40625,0 0,1.46875 -1.09375,1.0625 1.09375,1.0625 0,1.40625 -1.4375,0 -1.0625,-1.0625 -1.0625,1.0625 -1.4375,0 0,-1.40625 1.0625,-1.0625 -1.0625,-1.0625 0,-1.46875 z"
       sodipodi:nodetypes="ccccccccccccccccc"
       id="path3761-2-3-5-4-8-9-8-0-1-6"
       inkscape:connector-curvature="0"
       style="color:#bebebe;fill:#199453;fill-opacity:1;stroke:none;stroke-width:2;marker:none;visibility:visible;display:inline;overflow:visible" />
    <path
       d="m 187.5002,399 c -3.57801,0 -6.5,2.92199 -6.5,6.5 0,3.57801 2.92199,6.5 6.5,6.5 1.29116,0 2.48506,-0.37561 3.5,-1.03125 l 0,-2.65625 c -0.82069,1.02721 -2.071,1.6875 -3.5,1.6875 -2.49713,0 -4.5,-2.00287 -4.5,-4.5 0,-2.49712 2.00287,-4.5 4.5,-4.5 2.49712,0 4.5,2.00288 4.5,4.5 0,0.53296 -0.11393,1.02721 -0.28125,1.5 l 2.09375,0 c 0.11483,-0.48186 0.1875,-0.98435 0.1875,-1.5 0,-3.57801 -2.922,-6.5 -6.5,-6.5 z"
       id="path3869-9"
       inkscape:connector-curvature="0"
       style="font-size:medium;font-style:normal;font-variant:normal;font-weight:normal;font-stretch:normal;text-indent:0;text-align:start;text-decoration:none;line-height:normal;letter-spacing:normal;word-spacing:normal;text-transform:none;direction:ltr;block-progression:tb;writing-mode:lr-tb;text-anchor:start;baseline-shift:baseline;opacity:1;color:#000000;fill:#832c85;fill-opacity:0.45882353;stroke:none;stroke-width:2.54545426;marker:none;visibility:visible;display:inline;overflow:visible;enable-background:accumulate;font-family:Sans;-inkscape-font-specification:Sans" />
  </g>
  <g
     inkscape:groupmode="layer"
     id="layer10"
     transform="translate(-181.0002,-397)"
     inkscape:label="devices" />
  <g
     inkscape:groupmode="layer"
     id="layer11"
     transform="translate(-181.0002,-397)"
     inkscape:label="apps" />
  <g
     inkscape:groupmode="layer"
     id="layer13"
     transform="translate(-181.0002,-397)"
     inkscape:label="places" />
  <g
     inkscape:groupmode="layer"
     id="layer14"
     transform="translate(-181.0002,-397)"
     inkscape:label="mimetypes" />
  <g
     inkscape:groupmode="layer"
     id="layer15"
     transform="translate(-181.0002,-397)"
     style="display:inline"
     inkscape:label="emblems" />
  <g
     inkscape:groupmode="layer"
     id="g71291"
     transform="translate(-181.0002,-397)"
     style="display:inline"
     inkscape:label="emotes" />
  <g
     inkscape:groupmode="layer"
     id="g4953"
     transform="translate(-181.0002,-397)"
     style="display:inline"
     inkscape:label="categories" />
  <g
     inkscape:groupmode="layer"
     id="layer12"
     transform="translate(-181.0002,-397)"
     style="display:inline"
     inkscape:label="actions" />
</svg>
