<?xml version="1.0" encoding="UTF-8" standalone="no"?>
<!-- Created with Inkscape (http://www.inkscape.org/) -->

<svg
   xmlns:dc="http://purl.org/dc/elements/1.1/"
   xmlns:cc="http://creativecommons.org/ns#"
   xmlns:rdf="http://www.w3.org/1999/02/22-rdf-syntax-ns#"
   xmlns:svg="http://www.w3.org/2000/svg"
   xmlns="http://www.w3.org/2000/svg"
   xmlns:sodipodi="http://sodipodi.sourceforge.net/DTD/sodipodi-0.dtd"
   xmlns:inkscape="http://www.inkscape.org/namespaces/inkscape"
   version="1.1"
   width="16"
   height="16"
   viewBox="0 0 4.5155556 4.5155556"
   id="svg2"
   xml:space="preserve"
   style="fill-rule:evenodd"
   inkscape:version="0.48.3.1 r9886"
   sodipodi:docname="avatar-default-symbolic.svg"><sodipodi:namedview
   pagecolor="#ffffff"
   bordercolor="#666666"
   borderopacity="1"
   objecttolerance="10"
   gridtolerance="10"
   guidetolerance="10"
   inkscape:pageopacity="0"
   inkscape:pageshadow="2"
   inkscape:window-width="640"
   inkscape:window-height="480"
   id="namedview9"
   showgrid="false"
   inkscape:zoom="7.375"
   inkscape:cx="9.7095703"
   inkscape:cy="10.231585"
   inkscape:window-x="0"
   inkscape:window-y="31"
   inkscape:window-maximized="0"
   inkscape:current-layer="svg2" /><metadata
   id="metadata20"><rdf:RDF><cc:Work
       rdf:about=""><dc:format>image/svg+xml</dc:format><dc:type
         rdf:resource="http://purl.org/dc/dcmitype/StillImage" /><dc:title /></cc:Work></rdf:RDF></metadata>
 <defs
   id="defs4"><style
     type="text/css"
     id="style6" /></defs>
 <g
   transform="matrix(1.0443277,0,0,1.0443277,-0.20181775,-0.15118842)"
   id="g2988"
   style="fill:#bebebe;fill-opacity:1"><path
     d="m 2.9200479,0.86692009 c 0,0.35895511 -0.2883701,0.64997461 -0.6440828,0.64997461 -0.3555048,0 -0.6438831,-0.2910195 -0.6438831,-0.64997461 0,-0.35888579 0.2883783,-0.64963573 0.6438831,-0.64963573 0.3557127,0 0.6440828,0.29074994 0.6440828,0.64963573 z"
     id="path10"
     style="fill:#bebebe;fill-opacity:1;fill-rule:nonzero"
     inkscape:connector-curvature="0" /><path
     d="m 3.8136003,4.3765119 c -0.3012333,0 -0.2910719,0 -0.7336153,0 0,-1.1186108 0.1349117,-1.8112052 -0.7848669,-1.7971653 -0.9197778,0.01404 -0.7475419,0.4195821 -0.7701617,1.7971653 0,0 -0.284722,0 -0.74247422,0 0,-1.4679736 -0.30631386,-2.5870366 1.46269122,-2.5723374 1.7690051,0.014699 1.5383492,1.217129 1.5684269,2.5723374 z"
     id="path12"
     style="fill:#bebebe;fill-opacity:1;fill-rule:nonzero"
     inkscape:connector-curvature="0" /></g>
</svg>