<?xml version="1.0" encoding="UTF-8" standalone="no"?>
<!-- Created with Inkscape (http://www.inkscape.org/) -->

<svg
   xmlns:dc="http://purl.org/dc/elements/1.1/"
   xmlns:cc="http://creativecommons.org/ns#"
   xmlns:rdf="http://www.w3.org/1999/02/22-rdf-syntax-ns#"
   xmlns:svg="http://www.w3.org/2000/svg"
   xmlns="http://www.w3.org/2000/svg"
   xmlns:sodipodi="http://sodipodi.sourceforge.net/DTD/sodipodi-0.dtd"
   xmlns:inkscape="http://www.inkscape.org/namespaces/inkscape"
   id="svg7384"
   sodipodi:docname="battery-full-charged-symbolic.svg"
   version="1.1"
   inkscape:version="0.92.1 r15371"
   height="16"
   width="16">
  <metadata
     id="metadata90">
    <rdf:RDF>
      <cc:Work
         rdf:about="">
        <dc:format>image/svg+xml</dc:format>
        <dc:type
           rdf:resource="http://purl.org/dc/dcmitype/StillImage" />
        <dc:title>Gnome Symbolic Icon Theme</dc:title>
      </cc:Work>
    </rdf:RDF>
  </metadata>
  <sodipodi:namedview
     inkscape:cy="6.0886678"
     pagecolor="#ffffff"
     borderopacity="1"
     showborder="false"
     inkscape:bbox-paths="false"
     guidetolerance="10"
     inkscape:object-paths="true"
     inkscape:window-width="1918"
     showguides="true"
     inkscape:object-nodes="true"
     inkscape:snap-bbox="true"
     inkscape:pageshadow="2"
     inkscape:guide-bbox="true"
     inkscape:snap-nodes="false"
     bordercolor="#666666"
     objecttolerance="10"
     id="namedview88"
     showgrid="true"
     inkscape:window-maximized="1"
     inkscape:window-x="0"
     inkscape:snap-global="true"
     inkscape:window-y="26"
     gridtolerance="10"
     inkscape:window-height="1023"
     inkscape:snap-to-guides="true"
     inkscape:current-layer="layer9"
     inkscape:snap-bbox-midpoints="false"
     inkscape:zoom="21.401219"
     inkscape:cx="13.93862"
     inkscape:snap-grids="true"
     inkscape:pageopacity="0">
    <inkscape:grid
       spacingx="1"
       spacingy="1"
       id="grid4866"
       empspacing="2"
       enabled="true"
       type="xygrid"
       snapvisiblegridlinesonly="true"
       visible="true"
       originx="0"
       originy="0" />
  </sodipodi:namedview>
  <title
     id="title9167">Gnome Symbolic Icon Theme</title>
  <defs
     id="defs7386">
    <clipPath
       id="clipPath6259-5-3-2">
      <rect
         x="26.998718"
         y="221.50153"
         id="rect6261-61-6-7"
         height="4.8734746"
         width="1.8762827"
         style="color:#bebebe;display:inline;overflow:visible;visibility:visible;fill:#bebebe;fill-opacity:1;stroke:none;stroke-width:2;marker:none" />
    </clipPath>
    <clipPath
       id="clipPath6265-334-7-0">
      <rect
         x="26.96591"
         y="221.32954"
         id="rect6267-61-5-9"
         height="5.21591"
         width="2.8977277"
         style="color:#bebebe;display:inline;overflow:visible;visibility:visible;fill:#bebebe;fill-opacity:1;fill-rule:nonzero;stroke:none;stroke-width:2;marker:none" />
    </clipPath>
    <clipPath
       id="clipPath6279-3-3-3">
      <rect
         x="26.85"
         y="220.75"
         id="rect6281-9-5-6"
         height="6.3750005"
         width="3.8250003"
         style="color:#bebebe;display:inline;overflow:visible;visibility:visible;fill:#bebebe;fill-opacity:1;fill-rule:nonzero;stroke:none;stroke-width:2;marker:none" />
    </clipPath>
  </defs>
  <g
     inkscape:label="status"
     transform="translate(-181.0002,-217)"
     inkscape:groupmode="layer"
     id="layer9"
     style="display:inline">
    <path
       inkscape:connector-curvature="0"
       d="m 184.46875,217.03125 c -0.49033,0 -0.79607,0.22845 -1.03125,0.46875 -0.23518,0.2403 -0.4375,0.55851 -0.4375,1.03125 l 0,0.46875 -1,0 -1,0 0,1 0,12 0,1 1,0 7,0 0,-2 -6,0 0,-10 1,0 1,0 0,-1 0,-0.96875 3,0 0,0.96875 0,1 1,0 1,0 0,3 2,0 0,-4 0,-1 -1,0 -1,0 0,-0.34375 0,-0.0312 c -0.0239,-0.4306 -0.17024,-0.75229 -0.40625,-1.03125 -0.22373,-0.26444 -0.62669,-0.52931 -1.15625,-0.53125 l 0,-0.0312 -0.0625,0 -3.90625,0 z"
       id="path10743"
       style="font-size:medium;font-style:normal;font-variant:normal;font-weight:normal;font-stretch:normal;text-indent:0;text-align:start;text-decoration:none;line-height:normal;letter-spacing:normal;word-spacing:normal;text-transform:none;direction:ltr;block-progression:tb;writing-mode:lr-tb;text-anchor:start;baseline-shift:baseline;color:#bebebe;fill:#822b86;fill-opacity:1;stroke:none;stroke-width:2;marker:none;visibility:visible;display:inline;overflow:visible;enable-background:accumulate;font-family:Sans;-inkscape-font-specification:Sans" />
    <path
       inkscape:connector-curvature="0"
       d="m 191.75,224.95891 a 1.016466,1.016466 0 0 0 -0.46875,0.28125 l -3,3 A 1.0001,1.0001 0 0 0 188,229.14641 l 0,0.8125 0.8125,0 0.1875,0 2.5625,0 -1.28125,1.28125 A 1.016466,1.016466 0 0 0 190,232.08391 a 1.016466,1.016466 0 0 0 0,0.0937 l 0,0.78125 0.84375,0 0.15625,0 a 1.016466,1.016466 0 0 0 0.71875,-0.28125 l 3,-3 a 1.0001,1.0001 0 0 0 0.28125,-0.7187 1.0001,1.0001 0 0 0 0,-0.125 l 0,-0.875 -0.84375,0 -0.15625,0 -2.5625,0 1.28125,-1.28125 A 1.016466,1.016466 0 0 0 193,225.83391 a 1.016466,1.016466 0 0 0 0,-0.0937 l 0,-0.7813 -0.84375,0 -0.0937,0 a 1.016466,1.016466 0 0 0 -0.0625,0 1.016466,1.016466 0 0 0 -0.25,0 z"
       id="path10747"
       style="font-size:medium;font-style:normal;font-variant:normal;font-weight:normal;font-stretch:normal;text-indent:0;text-align:start;text-decoration:none;line-height:normal;letter-spacing:normal;word-spacing:normal;text-transform:none;direction:ltr;block-progression:tb;writing-mode:lr-tb;text-anchor:start;opacity:1;color:#bebebe;fill:#822b86;fill-opacity:1;fill-rule:nonzero;stroke:none;stroke-width:2;marker:none;visibility:visible;display:inline;overflow:visible;enable-background:accumulate;font-family:Bitstream Vera Sans;-inkscape-font-specification:Bitstream Vera Sans" />
    <path
       inkscape:connector-curvature="0"
       d="m 190.0002,225 2,-2 -2,0 0,2 z"
       id="path10761"
       sodipodi:nodetypes="cccc"
       style="color:#bebebe;fill:#822b86;fill-opacity:1;fill-rule:nonzero;stroke:none;stroke-width:2;marker:none;visibility:visible;display:inline;overflow:visible" />
    <path
       inkscape:connector-curvature="0"
       d="m 184.0002,222 0,2 5,0 0,-2 -5,0 z m 0,3 0,2 4,0 1,-1 0,-1 -5,0 z m 0,3.0625 0,1.9375 3,0 0,-1.9375 -3,0 z"
       id="rect6060-4"
       style="fill:#199453;fill-opacity:1;stroke:none;display:inline" />
  </g>
  <g
     inkscape:label="devices"
     transform="translate(-181.0002,-217)"
     inkscape:groupmode="layer"
     id="layer10" />
  <g
     inkscape:label="apps"
     transform="translate(-181.0002,-217)"
     inkscape:groupmode="layer"
     id="layer11" />
  <g
     inkscape:label="actions"
     transform="translate(-181.0002,-217)"
     inkscape:groupmode="layer"
     id="layer12" />
  <g
     inkscape:label="places"
     transform="translate(-181.0002,-217)"
     inkscape:groupmode="layer"
     id="layer13" />
  <g
     inkscape:label="mimetypes"
     transform="translate(-181.0002,-217)"
     inkscape:groupmode="layer"
     id="layer14" />
  <g
     inkscape:label="emblems"
     transform="translate(-181.0002,-217)"
     inkscape:groupmode="layer"
     id="layer15"
     style="display:inline" />
  <g
     inkscape:label="categories"
     transform="translate(-181.0002,-217)"
     inkscape:groupmode="layer"
     id="g4953"
     style="display:inline" />
</svg>
