<?xml version="1.0" encoding="UTF-8" standalone="no"?>
<!-- Created with Inkscape (http://www.inkscape.org/) -->

<svg
   xmlns:dc="http://purl.org/dc/elements/1.1/"
   xmlns:cc="http://creativecommons.org/ns#"
   xmlns:rdf="http://www.w3.org/1999/02/22-rdf-syntax-ns#"
   xmlns:svg="http://www.w3.org/2000/svg"
   xmlns="http://www.w3.org/2000/svg"
   xmlns:sodipodi="http://sodipodi.sourceforge.net/DTD/sodipodi-0.dtd"
   xmlns:inkscape="http://www.inkscape.org/namespaces/inkscape"
   width="256"
   height="256"
   id="svg2"
   version="1.1"
   inkscape:version="0.92.1 r15371"
   sodipodi:docname="gnome-netstatus-error.svg">
  <defs
     id="defs4">
    <style
       id="style6"
       type="text/css">
   
    .fil2 {fill:#6F448A}
    .fil3 {fill:#73A848}
    .fil1 {fill:#6F448A;fill-rule:nonzero}
    .fil0 {fill:#73A848;fill-rule:nonzero}
   
  </style>
    <clipPath
       id="clipPath6259-6-4">
      <rect
         x="26.998718"
         y="221.50153"
         id="rect6261-4-9"
         height="4.8734746"
         width="1.8762827"
         style="color:#bebebe;display:inline;overflow:visible;visibility:visible;fill:#bebebe;fill-opacity:1;stroke:none;stroke-width:2;marker:none" />
    </clipPath>
  </defs>
  <sodipodi:namedview
     id="base"
     pagecolor="#ffffff"
     bordercolor="#666666"
     borderopacity="1.0"
     inkscape:pageopacity="0.0"
     inkscape:pageshadow="2"
     inkscape:zoom="1.7656052"
     inkscape:cx="241.74401"
     inkscape:cy="203.71391"
     inkscape:document-units="px"
     inkscape:current-layer="layer1"
     showgrid="false"
     showguides="true"
     inkscape:guide-bbox="true"
     inkscape:window-width="1918"
     inkscape:window-height="1023"
     inkscape:window-x="0"
     inkscape:window-y="26"
     inkscape:window-maximized="1" />
  <metadata
     id="metadata7">
    <rdf:RDF>
      <cc:Work
         rdf:about="">
        <dc:format>image/svg+xml</dc:format>
        <dc:type
           rdf:resource="http://purl.org/dc/dcmitype/StillImage" />
        <dc:title />
      </cc:Work>
    </rdf:RDF>
  </metadata>
  <g
     inkscape:label="Layer 1"
     inkscape:groupmode="layer"
     id="layer1"
     transform="translate(0,-796.3622)">
    <path
       style="fill:#822b86;fill-opacity:1;stroke:none"
       d="m 26.247765,804.2438 c -11.206884,0 -20.2042947,8.99658 -20.2042947,20.2043 l 0,52.53115 c 0,11.20611 8.9974107,20.7087 20.2042947,20.7087 l 91.424435,0 c 11.20688,0 20.20429,-9.50259 20.20429,-20.7087 l 0,-52.53115 c 0,-11.20772 -8.99741,-20.2043 -20.20429,-20.2043 l -91.424435,0 z m 12.627685,11.11235 65.66395,0 c 11.20689,0 20.2043,8.99658 20.2043,20.2043 l 0,24.24516 c 0,11.20611 -8.99741,20.2043 -20.2043,20.2043 l -65.66395,0 c -11.206885,0 -20.204296,-8.99819 -20.204296,-20.2043 l 0,-24.24516 c 0,-11.20772 8.997411,-20.2043 20.204296,-20.2043 z"
       id="rect3021"
       inkscape:connector-curvature="0" />
    <path
       style="fill:#822b86;fill-opacity:1;stroke:none"
       d="m 179.21001,926.75442 c -10.07412,27.75252 -60.98351,8.99679 -60.98351,20.2043 l 0,52.53124 c 0,11.20604 8.99741,20.70854 20.20429,20.70854 l 91.42443,0 c 11.20689,0 20.20429,-9.5025 20.20429,-20.70854 l 0,-52.53124 c 0,-11.20751 -8.9974,-20.2043 -20.20429,-20.2043 z m -0.96539,11.11261 38.47781,0 c 11.20688,0 20.20429,8.9965 20.20429,20.2043 l 0,24.24499 c 0,11.20605 -8.99741,20.20428 -20.20429,20.20428 l -65.66396,0 c -11.20688,0 -20.20429,-8.99823 -20.20429,-20.20428 l 0,-24.24499 c 0,-11.2078 36.18356,-20.2043 47.39044,-20.2043 z"
       id="rect3021-8"
       inkscape:connector-curvature="0"
       sodipodi:nodetypes="cssssssscsssssssss" />
    <path
       style="fill:#822b86;fill-opacity:1;stroke:none"
       d="m 15.495066,900.23962 117.151794,0 c 3.0113,0 8.44525,5.33702 5.43556,5.43556 l -54.372292,1.78012 c -3.009688,0.0985 -0.725126,11.66572 -3.736426,11.66572 l -64.478636,0 c -3.011296,0 -5.435553,-2.42426 -5.435553,-5.43556 l 0,-8.01028 c 0,-3.0113 2.424257,-5.43556 5.435553,-5.43556 z"
       id="rect3812"
       inkscape:connector-curvature="0"
       sodipodi:nodetypes="sssssssss" />
    <rect
       style="fill:#822b86;fill-opacity:1;stroke:none"
       id="rect3812-4"
       width="128.0229"
       height="18.881393"
       x="121.40279"
       y="1023.541"
       ry="5.4355526" />
    <path
       style="fill:#822b86;fill-opacity:1;stroke:none"
       d="m 78.292773,921.9814 0,58.93361 18.881391,0 0,-9.15505 17.164906,17.16401 c 0,0 -12.07219,10.4997 -17.307945,15.73523 0,-5.98392 -0.14305,-8.86887 -0.14305,-8.86887 0,0 -18.260622,0 -31.755069,0 0,-7.43839 0,-73.23661 0,-73.23661 z"
       id="path3832"
       inkscape:connector-curvature="0"
       sodipodi:nodetypes="cccccccccc" />
    <path
       style="fill:#822b86;fill-opacity:1;stroke:none"
       d="m 176.13354,921.55158 0,-58.93352 -18.8814,0 0,9.15496 -17.16491,-17.16395 c 0,0 12.0722,-10.49976 17.30796,-15.7351 0,5.9837 0.14223,8.86886 0.14223,8.86886 0,0 18.26061,0 31.75505,0 0,7.43842 0,73.23643 0,73.23643 z"
       id="path3832-5"
       inkscape:connector-curvature="0"
       sodipodi:nodetypes="cccccccccc" />
    <path
       sodipodi:type="arc"
       style="fill:#822b86;fill-opacity:1;stroke:none"
       id="path3852"
       sodipodi:cx="4.2832341"
       sodipodi:cy="3.7874734"
       sodipodi:rx="0.88496572"
       sodipodi:ry="0.88496572"
       d="M 5.1656417,3.7202336 A 0.88496572,0.88496572 0 0 1 4.3552925,4.6695006 0.88496572,0.88496572 0 0 1 3.4016137,3.8643481 0.88496572,0.88496572 0 0 1 4.2015454,2.906286 0.88496572,0.88496572 0 0 1 5.1639622,3.7009731"
       transform="matrix(16.163436,0,0,16.163436,-0.0936213,787.52597)"
       sodipodi:start="6.2071318"
       sodipodi:end="12.46847"
       sodipodi:open="true" />
    <path
       transform="matrix(16.163436,0,0,16.163436,114.33907,909.96885)"
       sodipodi:type="arc"
       style="fill:#822b86;fill-opacity:1;stroke:none"
       id="path3852-5"
       sodipodi:cx="4.2832341"
       sodipodi:cy="3.7874734"
       sodipodi:rx="0.88496572"
       sodipodi:ry="0.88496572"
       d="M 5.1656417,3.7202336 A 0.88496572,0.88496572 0 0 1 4.3552925,4.6695006 0.88496572,0.88496572 0 0 1 3.4016137,3.8643481 0.88496572,0.88496572 0 0 1 4.2015454,2.906286 0.88496572,0.88496572 0 0 1 5.1639622,3.7009731"
       sodipodi:start="6.2071318"
       sodipodi:end="12.46847"
       sodipodi:open="true" />
    <path
       inkscape:connector-curvature="0"
       id="path7"
       d="m 128,862.66245 c -34.09836,0 -61.699741,27.60142 -61.699741,61.69975 0,34.09833 27.601381,61.69975 61.699741,61.69975 34.09837,0 61.69974,-27.60142 61.69974,-61.69975 0,-34.09833 -27.60137,-61.69975 -61.69974,-61.69975 z m -42.21904,48.70178 84.43808,0 0,25.97966 -84.438081,0 0,-25.97966 z"
       style="fill:#ef2929;fill-opacity:1;fill-rule:nonzero;stroke:#870b0b;stroke-width:2.07492805000000002;stroke-miterlimit:4;stroke-opacity:1;stroke-dasharray:none" />
  </g>
</svg>
