<?xml version="1.0" encoding="UTF-8" standalone="no"?>
<!-- Created with Inkscape (http://www.inkscape.org/) -->

<svg
   xmlns:dc="http://purl.org/dc/elements/1.1/"
   xmlns:cc="http://creativecommons.org/ns#"
   xmlns:rdf="http://www.w3.org/1999/02/22-rdf-syntax-ns#"
   xmlns:svg="http://www.w3.org/2000/svg"
   xmlns="http://www.w3.org/2000/svg"
   xmlns:sodipodi="http://sodipodi.sourceforge.net/DTD/sodipodi-0.dtd"
   xmlns:inkscape="http://www.inkscape.org/namespaces/inkscape"
   id="svg7384"
   sodipodi:docname="gpm-battery-020-charging.svg"
   version="1.1"
   inkscape:version="0.92.1 r15371"
   height="16"
   width="16">
  <metadata
     id="metadata90">
    <rdf:RDF>
      <cc:Work
         rdf:about="">
        <dc:format>image/svg+xml</dc:format>
        <dc:type
           rdf:resource="http://purl.org/dc/dcmitype/StillImage" />
        <dc:title>Gnome Symbolic Icon Theme</dc:title>
      </cc:Work>
    </rdf:RDF>
  </metadata>
  <sodipodi:namedview
     inkscape:cy="6.5129295"
     pagecolor="#555753"
     borderopacity="1"
     showborder="true"
     inkscape:bbox-paths="false"
     guidetolerance="10"
     inkscape:object-paths="true"
     inkscape:window-width="1918"
     showguides="true"
     inkscape:object-nodes="true"
     inkscape:snap-bbox="true"
     inkscape:pageshadow="2"
     inkscape:guide-bbox="true"
     inkscape:snap-nodes="false"
     bordercolor="#666666"
     objecttolerance="10"
     id="namedview88"
     showgrid="true"
     inkscape:window-maximized="1"
     inkscape:window-x="0"
     inkscape:snap-global="false"
     inkscape:window-y="26"
     gridtolerance="10"
     inkscape:window-height="1023"
     inkscape:snap-to-guides="true"
     inkscape:current-layer="layer9"
     inkscape:snap-bbox-midpoints="false"
     inkscape:zoom="15.999999"
     inkscape:cx="10.506269"
     inkscape:snap-grids="true"
     inkscape:pageopacity="0">
    <inkscape:grid
       spacingx="1"
       spacingy="1"
       id="grid4866"
       empspacing="2"
       enabled="true"
       type="xygrid"
       snapvisiblegridlinesonly="true"
       visible="true"
       originx="0"
       originy="0" />
    <sodipodi:guide
       orientation="0,1"
       position="15.335379,3.625"
       id="guide3316"
       inkscape:locked="false" />
    <sodipodi:guide
       orientation="1,0"
       position="5.723,5.3916895"
       id="guide3320"
       inkscape:locked="false" />
  </sodipodi:namedview>
  <title
     id="title9167">Gnome Symbolic Icon Theme</title>
  <defs
     id="defs7386" />
  <g
     inkscape:label="status"
     transform="translate(-61.0002,-217)"
     inkscape:groupmode="layer"
     id="layer9"
     style="display:inline">
    <path
       style="font-size:medium;font-style:normal;font-variant:normal;font-weight:normal;font-stretch:normal;text-indent:0;text-align:start;text-decoration:none;line-height:normal;letter-spacing:normal;word-spacing:normal;text-transform:none;direction:ltr;block-progression:tb;writing-mode:lr-tb;text-anchor:start;baseline-shift:baseline;color:#bebebe;fill:#822b86;fill-opacity:1;stroke:none;stroke-width:2;marker:none;visibility:visible;display:inline;overflow:visible;enable-background:accumulate;font-family:Sans;-inkscape-font-specification:Sans"
       d="M 6.15625,1 C 5.710507,1 5.432547,1.19558 5.21875,1.40625 5.004952,1.61692 4.8125,1.89805 4.8125,2.3125 l 0,0.40625 -0.90625,0 -0.90625,0 0,0.875 L 3,14.125 3,15 l 0.90625,0 3.6874999,0 0,-0.40625 C 7.5149719,14.202815 7.617995,13.775582 7.9062499,13.5 l -0.0625,-0.25 -3.0312499,0 0,-8.78125 0.90625,0 0.90625,0 0,-0.875 0,-0.84375 2.75,0 0,0.84375 0,0.875 0.90625,0 0.90625,0 0,1.6875 c 0.637397,-0.042004 1.120872,0.065666 1.8125,0.03125 l 0,-2.5937498 0,-0.875 -0.90625,0 -0.90625,0 0,-0.28125 0,-0.03125 C 11.16575,2.02875 11.027054,1.74457 10.8125,1.5 10.609109,1.26816 10.231412,1.03295 9.75,1.03125 L 9.75,1 9.71875,1 z M 12.09375,15 13,15 13,14.125 C 12.778595,14.111319 12.439818,14.599858 12.09375,15 z"
       transform="translate(61.0002,217)"
       id="path3737"
       inkscape:connector-curvature="0"
       sodipodi:nodetypes="sssccccccccccccccccccccccccccccccscccscccc" />
    <path
       inkscape:connector-curvature="0"
       d="m 71.758542,223.97472 a 1.016466,1.016466 0 0 0 -0.46875,0.28125 l -3,3 a 1.0001,1.0001 0 0 0 -0.28125,0.90625 l 0,0.8125 0.999998,0 2.125002,0 -0.843752,1.28125 a 1.016466,1.016466 0 0 0 -0.28125,0.9375 l 0,0.78125 1.000002,0 a 1.016466,1.016466 0 0 0 0.71875,-0.28125 l 3,-3 a 1.0001,1.0001 0 0 0 0.28125,-0.71875 1.0001,1.0001 0 0 0 0,-0.125 l 0,-0.875 -0.84375,0 -0.0937,0 a 1.0001,1.0001 0 0 0 -0.0625,0 l -2.125,0 0.84375,-1.28125 a 1.016466,1.016466 0 0 0 0.28125,-0.9375 l 0,-0.78125 -0.9375,0 a 1.016466,1.016466 0 0 0 -0.3125,0 z"
       id="path6217-8"
       style="font-size:medium;font-style:normal;font-variant:normal;font-weight:normal;font-stretch:normal;text-indent:0;text-align:start;text-decoration:none;line-height:normal;letter-spacing:normal;word-spacing:normal;text-transform:none;direction:ltr;block-progression:tb;writing-mode:lr-tb;text-anchor:start;color:#bebebe;fill:#822b86;fill-opacity:1;fill-rule:nonzero;stroke:none;stroke-width:2;marker:none;visibility:visible;display:inline;overflow:visible;enable-background:accumulate;font-family:Bitstream Vera Sans;-inkscape-font-specification:Bitstream Vera Sans" />
    <rect
       transform="matrix(0,1,1,0,0,0)"
       x="227.62329"
       y="66.727516"
       id="rect10870-4"
       height="0.68598819"
       style="fill:#199453;fill-opacity:1;stroke:none;display:inline"
       width="1.7534242" />
  </g>
  <g
     inkscape:label="devices"
     transform="translate(-61.0002,-217)"
     inkscape:groupmode="layer"
     id="layer10" />
  <g
     inkscape:label="apps"
     transform="translate(-61.0002,-217)"
     inkscape:groupmode="layer"
     id="layer11" />
  <g
     inkscape:label="actions"
     transform="translate(-61.0002,-217)"
     inkscape:groupmode="layer"
     id="layer12" />
  <g
     inkscape:label="places"
     transform="translate(-61.0002,-217)"
     inkscape:groupmode="layer"
     id="layer13" />
  <g
     inkscape:label="mimetypes"
     transform="translate(-61.0002,-217)"
     inkscape:groupmode="layer"
     id="layer14" />
  <g
     inkscape:label="emblems"
     transform="translate(-61.0002,-217)"
     inkscape:groupmode="layer"
     id="layer15"
     style="display:inline" />
  <g
     inkscape:label="categories"
     transform="translate(-61.0002,-217)"
     inkscape:groupmode="layer"
     id="g4953"
     style="display:inline" />
</svg>
