<?xml version="1.0" encoding="UTF-8" standalone="no"?>
<!-- Created with Inkscape (http://www.inkscape.org/) -->

<svg
   xmlns:dc="http://purl.org/dc/elements/1.1/"
   xmlns:cc="http://creativecommons.org/ns#"
   xmlns:rdf="http://www.w3.org/1999/02/22-rdf-syntax-ns#"
   xmlns:svg="http://www.w3.org/2000/svg"
   xmlns="http://www.w3.org/2000/svg"
   xmlns:sodipodi="http://sodipodi.sourceforge.net/DTD/sodipodi-0.dtd"
   xmlns:inkscape="http://www.inkscape.org/namespaces/inkscape"
   id="svg7384"
   version="1.1"
   inkscape:version="0.92.1 r15371"
   height="256"
   sodipodi:docname="dialog-question.svg"
   width="256">
  <metadata
     id="metadata90">
    <rdf:RDF>
      <cc:Work
         rdf:about="">
        <dc:format>image/svg+xml</dc:format>
        <dc:type
           rdf:resource="http://purl.org/dc/dcmitype/StillImage" />
        <dc:title>Gnome Symbolic Icon Theme</dc:title>
      </cc:Work>
    </rdf:RDF>
  </metadata>
  <sodipodi:namedview
     inkscape:cy="105.09409"
     inkscape:current-layer="layer9"
     inkscape:window-width="1918"
     pagecolor="#555753"
     showborder="true"
     showguides="true"
     inkscape:snap-nodes="true"
     objecttolerance="10"
     showgrid="false"
     inkscape:object-nodes="true"
     inkscape:pageshadow="2"
     inkscape:guide-bbox="true"
     inkscape:window-x="0"
     inkscape:snap-bbox="true"
     bordercolor="#666666"
     id="namedview88"
     inkscape:window-maximized="1"
     inkscape:snap-global="true"
     inkscape:window-y="26"
     gridtolerance="10"
     inkscape:zoom="2"
     inkscape:window-height="1023"
     borderopacity="1"
     guidetolerance="10"
     inkscape:cx="-10.86802"
     inkscape:bbox-paths="false"
     inkscape:snap-grids="true"
     inkscape:pageopacity="0"
     inkscape:snap-to-guides="true">
    <inkscape:grid
       visible="true"
       spacingx="1"
       type="xygrid"
       spacingy="1"
       id="grid4866"
       empspacing="2"
       enabled="true"
       snapvisiblegridlinesonly="true"
       originx="0"
       originy="0" />
  </sodipodi:namedview>
  <title
     id="title9167">Gnome Symbolic Icon Theme</title>
  <defs
     id="defs7386" />
  <g
     transform="translate(-281.0002,-17)"
     inkscape:groupmode="layer"
     id="layer9"
     inkscape:label="status"
     style="display:inline">
    <path
       d="m 409.00022,20.033391 c -6.27734,0 -12.78966,2.495847 -17.64708,7.352953 L 291.35298,127.3865 c -9.71484,9.71437 -9.71484,25.57981 0,35.29417 l 100.00016,100.00016 c 9.71468,9.71437 25.57933,9.71437 35.29417,0 L 526.64747,162.68067 c 9.71484,-9.71436 9.71468,-25.5798 0,-35.29417 L 426.64731,27.386344 c -4.85742,-4.857106 -11.36974,-7.352953 -17.64709,-7.352953 z m -2.94118,46.568701 c 25.76365,-1.44314 48.55694,18.354225 50.00008,44.117718 -0.002,21.98215 -5.92487,30.14546 -25.00004,44.60791 -2.99498,2.25318 -5.10746,3.93099 -5.88236,4.90197 -0.7749,0.97412 -0.4902,0.52157 -0.4902,0.4902 0.10981,8.28723 -7.39813,15.6863 -15.6863,15.6863 -8.28817,0 -15.7961,-7.39907 -15.6863,-15.6863 0,-7.88064 3.5175,-14.79877 7.35296,-19.60788 3.83545,-4.80989 7.70668,-8.10009 11.27452,-10.78433 3.20079,-2.51859 7.22872,-6.03201 10.78434,-10.29413 1.46666,-1.75844 2.02353,-4.82605 1.96078,-6.86276 l 0,-0.49098 c -0.49568,-8.83515 -7.83154,-15.201589 -16.66669,-14.705899 -8.83515,0.49568 -15.20159,6.851139 -14.70591,15.686289 l -31.37259,0 c -1.44314,-25.763643 18.35406,-45.614184 44.11771,-47.058892 z m 2.94118,125.490388 c 8.66323,0 15.6863,7.02307 15.6863,15.6863 0,8.66323 -7.02307,15.6863 -15.6863,15.6863 -8.66323,0 -15.6863,-7.02307 -15.6863,-15.6863 0,-8.66323 7.02307,-15.6863 15.6863,-15.6863 z"
       id="path19592"
       style="color:#bebebe;fill:#822b86;fill-opacity:1;stroke:none;stroke-width:2;marker:none;visibility:visible;display:inline;overflow:visible"
       inkscape:connector-curvature="0" />
  </g>
  <g
     transform="translate(-281.0002,-17)"
     inkscape:groupmode="layer"
     id="layer10"
     inkscape:label="devices" />
  <g
     transform="translate(-281.0002,-17)"
     inkscape:groupmode="layer"
     id="layer11"
     inkscape:label="apps" />
  <g
     transform="translate(-281.0002,-17)"
     inkscape:groupmode="layer"
     id="layer12"
     inkscape:label="actions" />
  <g
     transform="translate(-281.0002,-17)"
     inkscape:groupmode="layer"
     id="layer13"
     inkscape:label="places" />
  <g
     transform="translate(-281.0002,-17)"
     inkscape:groupmode="layer"
     id="layer14"
     inkscape:label="mimetypes" />
  <g
     transform="translate(-281.0002,-17)"
     inkscape:groupmode="layer"
     id="layer15"
     inkscape:label="emblems"
     style="display:inline" />
  <g
     transform="translate(-281.0002,-17)"
     inkscape:groupmode="layer"
     id="g4953"
     inkscape:label="categories"
     style="display:inline" />
</svg>
