<?xml version="1.0" encoding="UTF-8" standalone="no"?>
<!-- Created with Inkscape (http://www.inkscape.org/) -->

<svg
   xmlns:dc="http://purl.org/dc/elements/1.1/"
   xmlns:cc="http://creativecommons.org/ns#"
   xmlns:rdf="http://www.w3.org/1999/02/22-rdf-syntax-ns#"
   xmlns:svg="http://www.w3.org/2000/svg"
   xmlns="http://www.w3.org/2000/svg"
   xmlns:sodipodi="http://sodipodi.sourceforge.net/DTD/sodipodi-0.dtd"
   xmlns:inkscape="http://www.inkscape.org/namespaces/inkscape"
   version="1.1"
   width="16"
   height="16"
   id="svg1307"
   inkscape:version="0.92.1 r15371"
   sodipodi:docname="mate-control-center-symbolic.svg">
  <sodipodi:namedview
     pagecolor="#ffffff"
     bordercolor="#666666"
     borderopacity="1"
     objecttolerance="10"
     gridtolerance="10"
     guidetolerance="10"
     inkscape:pageopacity="0"
     inkscape:pageshadow="2"
     inkscape:window-width="1918"
     inkscape:window-height="1023"
     id="namedview8"
     showgrid="true"
     inkscape:zoom="27.812867"
     inkscape:cx="10.829733"
     inkscape:cy="7.4850669"
     inkscape:window-x="0"
     inkscape:window-y="26"
     inkscape:window-maximized="1"
     inkscape:current-layer="svg1307">
    <inkscape:grid
       type="xygrid"
       id="grid2982"
       empspacing="5"
       visible="true"
       enabled="true"
       snapvisiblegridlinesonly="true" />
  </sodipodi:namedview>
  <defs
     id="defs1309" />
  <metadata
     id="metadata1312">
    <rdf:RDF>
      <cc:Work
         rdf:about="">
        <dc:format>image/svg+xml</dc:format>
        <dc:type
           rdf:resource="http://purl.org/dc/dcmitype/StillImage" />
        <dc:title />
      </cc:Work>
    </rdf:RDF>
  </metadata>
  <path
     inkscape:connector-curvature="0"
     style="fill:#822b86;fill-opacity:1;fill-rule:evenodd;stroke:none"
     id="rect3938"
     d="M 3.2911678,2 C 2.6017043,2 2.0494286,2.5545599 2.0494286,3.246875 l 0,9.50625 C 2.0494286,13.44544 2.6017043,14 3.2911678,14 l 9.4670942,0 C 13.447725,14 14,13.44544 14,12.753125 l 0,-9.50625 C 14,2.5545599 13.447725,2 12.758262,2 L 3.2911678,2 z m 6.8342332,1.4250001 1.185721,0 0,0.9843749 -1.185721,0 0,-0.9843749 z m -5.3870936,0.05625 1.1857207,0 0,3.9 -1.1857207,0 0,-3.9 z m 4.4627919,1.51875 3.0249887,0 c 0.487927,0 0.87762,0.3913038 0.87762,0.8812501 l 0,1.2374999 c 0,0.4899461 -0.389693,0.88125 -0.87762,0.88125 l -3.0249887,0 c -0.4879282,0 -0.8776203,-0.3913039 -0.8776203,-0.88125 l 0,-1.2374999 c 0,-0.4899463 0.3896921,-0.8812501 0.8776203,-0.8812501 z m -5.3777578,3 3.0249889,0 c 0.487928,0 0.87762,0.3913037 0.87762,0.88125 l 0,1.2375004 C 7.7259504,10.608697 7.3362584,11 6.8483304,11 l -3.0249889,0 c -0.487928,0 -0.87762,-0.391303 -0.87762,-0.881249 l 0,-1.2375004 c 0,-0.4899463 0.389692,-0.88125 0.87762,-0.88125 z m 6.3020595,0.5999999 1.185721,0 0,3.8812495 -1.185721,0 0,-3.8812495 z m -5.3870936,3.0093755 1.1857207,0 0,0.91875 -1.1857207,0 0,-0.91875 z" />
</svg>
