<?xml version="1.0" encoding="UTF-8" standalone="no"?>
<!-- Created with Inkscape (http://www.inkscape.org/) -->

<svg
   xmlns:dc="http://purl.org/dc/elements/1.1/"
   xmlns:cc="http://creativecommons.org/ns#"
   xmlns:rdf="http://www.w3.org/1999/02/22-rdf-syntax-ns#"
   xmlns:svg="http://www.w3.org/2000/svg"
   xmlns="http://www.w3.org/2000/svg"
   xmlns:sodipodi="http://sodipodi.sourceforge.net/DTD/sodipodi-0.dtd"
   xmlns:inkscape="http://www.inkscape.org/namespaces/inkscape"
   id="svg7384"
   version="1.1"
   inkscape:version="0.92.1 r15371"
   height="16"
   sodipodi:docname="network-cellular-acquiring-symbolic.svg"
   width="16">
  <metadata
     id="metadata90">
    <rdf:RDF>
      <cc:Work
         rdf:about="">
        <dc:format>image/svg+xml</dc:format>
        <dc:type
           rdf:resource="http://purl.org/dc/dcmitype/StillImage" />
        <dc:title>Gnome Symbolic Icon Theme</dc:title>
      </cc:Work>
    </rdf:RDF>
  </metadata>
  <sodipodi:namedview
     inkscape:object-paths="true"
     inkscape:cy="8.7839954"
     inkscape:current-layer="layer9"
     inkscape:window-width="1918"
     pagecolor="#ffffff"
     showborder="false"
     showguides="true"
     inkscape:snap-nodes="false"
     objecttolerance="10"
     showgrid="true"
     inkscape:object-nodes="true"
     inkscape:pageshadow="2"
     inkscape:guide-bbox="true"
     inkscape:window-x="0"
     inkscape:snap-bbox="true"
     bordercolor="#666666"
     id="namedview88"
     inkscape:window-maximized="1"
     inkscape:snap-global="false"
     inkscape:window-y="26"
     gridtolerance="10"
     inkscape:zoom="21.459016"
     inkscape:window-height="1023"
     borderopacity="1"
     guidetolerance="10"
     inkscape:snap-bbox-midpoints="false"
     inkscape:cx="24.121705"
     inkscape:bbox-paths="false"
     inkscape:snap-grids="true"
     inkscape:pageopacity="0"
     inkscape:snap-to-guides="true">
    <inkscape:grid
       visible="true"
       spacingx="1"
       type="xygrid"
       spacingy="1"
       id="grid4866"
       empspacing="2"
       enabled="true"
       snapvisiblegridlinesonly="true"
       originx="0"
       originy="0" />
  </sodipodi:namedview>
  <title
     id="title9167">Gnome Symbolic Icon Theme</title>
  <defs
     id="defs7386" />
  <g
     transform="translate(-141.0002,-257)"
     inkscape:groupmode="layer"
     id="layer9"
     inkscape:label="status"
     style="display:inline">
    <g
       transform="translate(21.0002,-18.999999)"
       id="g4339"
       style="opacity:0.35;display:inline;fill:#822b86;fill-opacity:1">
      <path
         inkscape:connector-curvature="0"
         d="m 120.02185,285 0,3 0,3 1,0 2,0 0,-3 -2,0 0,-3 -1,0 z"
         id="rect4162"
         style="color:#bebebe;fill:#822b86;fill-opacity:1;fill-rule:nonzero;stroke:none;stroke-width:3;marker:none;visibility:visible;display:inline;overflow:visible" />
      <path
         inkscape:connector-curvature="0"
         d="m 131.99975,276.0221 0,7 2,0 0,5 -2,0 0,3 3,0 0,-3 0,-5 0,-1 0,-6 -3,0 z"
         id="rect4162-9"
         style="color:#bebebe;fill:#822b86;fill-opacity:1;fill-rule:nonzero;stroke:none;stroke-width:3;marker:none;visibility:visible;display:inline;overflow:visible" />
      <path
         inkscape:connector-curvature="0"
         d="m 123.99975,288 0,3 3,0 0,-3 -3,0 z"
         id="rect4162-92"
         sodipodi:nodetypes="ccccc"
         style="color:#bebebe;fill:#822b86;fill-opacity:1;fill-rule:nonzero;stroke:none;stroke-width:3;marker:none;visibility:visible;display:inline;overflow:visible" />
      <path
         inkscape:connector-curvature="0"
         d="m 127.99975,288 0,3 3,0 0,-3 -3,0 z"
         id="rect4162-92-3"
         sodipodi:nodetypes="ccccc"
         style="color:#bebebe;fill:#822b86;fill-opacity:1;fill-rule:nonzero;stroke:none;stroke-width:3;marker:none;visibility:visible;display:inline;overflow:visible" />
      <path
         inkscape:connector-curvature="0"
         d="m 123.99975,282 0,1 3,0 0,-1 -3,0 z"
         id="rect4162-92-5"
         sodipodi:nodetypes="ccccc"
         style="color:#bebebe;fill:#822b86;fill-opacity:1;fill-rule:nonzero;stroke:none;stroke-width:3;marker:none;visibility:visible;display:inline;overflow:visible" />
      <path
         inkscape:connector-curvature="0"
         d="m 127.99975,279 0,4 3,0 0,-4 -3,0 z"
         id="rect4162-92-3-0"
         sodipodi:nodetypes="ccccc"
         style="color:#bebebe;fill:#822b86;fill-opacity:1;fill-rule:nonzero;stroke:none;stroke-width:3;marker:none;visibility:visible;display:inline;overflow:visible" />
    </g>
    <path
       sodipodi:cy="209"
       transform="matrix(1.5,0,0,1.5,102.5,-46.999999)"
       sodipodi:type="arc"
       d="m 29,209 a 1,1 0 0 1 -1,1 1,1 0 0 1 -1,-1 1,1 0 0 1 1,-1 1,1 0 0 1 1,1 z"
       id="path4955-3"
       sodipodi:rx="1"
       sodipodi:ry="1"
       style="fill:#822b86;fill-opacity:1;stroke:none;display:inline"
       sodipodi:cx="28" />
    <path
       sodipodi:cy="209"
       transform="matrix(1.5,0,0,1.5,106.5,-46.999999)"
       sodipodi:type="arc"
       d="m 29,209 a 1,1 0 0 1 -1,1 1,1 0 0 1 -1,-1 1,1 0 0 1 1,-1 1,1 0 0 1 1,1 z"
       id="path4957-3"
       sodipodi:rx="1"
       sodipodi:ry="1"
       sodipodi:cx="28"
       style="fill:#822b86;fill-opacity:1;stroke:none;display:inline" />
    <path
       sodipodi:cy="209"
       transform="matrix(1.5,0,0,1.5,110.49995,-46.999999)"
       sodipodi:type="arc"
       d="m 29,209 a 1,1 0 0 1 -1,1 1,1 0 0 1 -1,-1 1,1 0 0 1 1,-1 1,1 0 0 1 1,1 z"
       id="path4959-7"
       sodipodi:rx="1"
       sodipodi:ry="1"
       style="fill:#822b86;fill-opacity:1;stroke:none;display:inline"
       sodipodi:cx="28" />
  </g>
  <g
     transform="translate(-141.0002,-257)"
     inkscape:groupmode="layer"
     id="layer10"
     inkscape:label="devices" />
  <g
     transform="translate(-141.0002,-257)"
     inkscape:groupmode="layer"
     id="layer11"
     inkscape:label="apps" />
  <g
     transform="translate(-141.0002,-257)"
     inkscape:groupmode="layer"
     id="layer12"
     inkscape:label="actions" />
  <g
     transform="translate(-141.0002,-257)"
     inkscape:groupmode="layer"
     id="layer13"
     inkscape:label="places" />
  <g
     transform="translate(-141.0002,-257)"
     inkscape:groupmode="layer"
     id="layer14"
     inkscape:label="mimetypes" />
  <g
     transform="translate(-141.0002,-257)"
     inkscape:groupmode="layer"
     id="layer15"
     inkscape:label="emblems"
     style="display:inline" />
  <g
     transform="translate(-141.0002,-257)"
     inkscape:groupmode="layer"
     id="g4953"
     inkscape:label="categories"
     style="display:inline" />
</svg>
