<?xml version="1.0" encoding="UTF-8" standalone="no"?>
<!-- Created with Inkscape (http://www.inkscape.org/) -->

<svg
   xmlns:dc="http://purl.org/dc/elements/1.1/"
   xmlns:cc="http://creativecommons.org/ns#"
   xmlns:rdf="http://www.w3.org/1999/02/22-rdf-syntax-ns#"
   xmlns:svg="http://www.w3.org/2000/svg"
   xmlns="http://www.w3.org/2000/svg"
   xmlns:sodipodi="http://sodipodi.sourceforge.net/DTD/sodipodi-0.dtd"
   xmlns:inkscape="http://www.inkscape.org/namespaces/inkscape"
   id="svg7384"
   sodipodi:docname="pidgin-tray-offline.svg"
   version="1.1"
   inkscape:version="0.92.1 r15371"
   height="16"
   width="16">
  <metadata
     id="metadata90">
    <rdf:RDF>
      <cc:Work
         rdf:about="">
        <dc:format>image/svg+xml</dc:format>
        <dc:type
           rdf:resource="http://purl.org/dc/dcmitype/StillImage" />
        <dc:title>Gnome Symbolic Icon Theme</dc:title>
      </cc:Work>
    </rdf:RDF>
  </metadata>
  <sodipodi:namedview
     inkscape:cy="43.183056"
     pagecolor="#ffffff"
     borderopacity="1"
     showborder="true"
     inkscape:bbox-paths="false"
     guidetolerance="10"
     inkscape:object-paths="true"
     inkscape:window-width="1918"
     showguides="true"
     inkscape:object-nodes="true"
     inkscape:snap-bbox="true"
     inkscape:pageshadow="2"
     inkscape:guide-bbox="true"
     inkscape:snap-nodes="true"
     bordercolor="#666666"
     objecttolerance="10"
     id="namedview88"
     showgrid="true"
     inkscape:window-maximized="1"
     inkscape:window-x="0"
     inkscape:snap-global="true"
     inkscape:window-y="26"
     gridtolerance="10"
     inkscape:window-height="1023"
     inkscape:snap-to-guides="true"
     inkscape:current-layer="layer9"
     inkscape:snap-bbox-midpoints="false"
     inkscape:zoom="2"
     inkscape:cx="6.1814341"
     inkscape:snap-grids="true"
     inkscape:pageopacity="0">
    <inkscape:grid
       spacingx="1"
       spacingy="1"
       id="grid4866"
       empspacing="2"
       enabled="true"
       type="xygrid"
       snapvisiblegridlinesonly="true"
       visible="true"
       originx="0"
       originy="0" />
  </sodipodi:namedview>
  <title
     id="title9167">Gnome Symbolic Icon Theme</title>
  <defs
     id="defs7386" />
  <g
     inkscape:label="status"
     transform="translate(-61.000198,-357)"
     inkscape:groupmode="layer"
     id="layer9"
     style="display:inline">
    <path
       inkscape:connector-curvature="0"
       d="m 65.336484,359.1109 c -1.2943,0 -2.336282,1.04198 -2.336282,2.33628 l 0,3.76991 c 0,1.2943 1.041982,2.33628 2.336282,2.33628 l 5.36283,0 2.575221,3.39823 -0.0531,-3.47787 c 1.023325,-0.24879 1.77876,-1.15464 1.77876,-2.25664 l 0,-3.76991 c 0,-1.2943 -1.041982,-2.33628 -2.336282,-2.33628 l -7.327432,0 z m 1.115044,1.64602 0.849558,0 c 0.234596,0 0.456883,0.0852 0.610619,0.23893 l 1.088495,1.0885 1.088495,-1.0885 c 0.153736,-0.15373 0.376023,-0.23893 0.610619,-0.23893 l 0.849558,0 0,0.84955 c 0,0.2346 -0.0852,0.45689 -0.238938,0.61062 l -1.088495,1.0885 1.088495,1.08849 c 0.153736,0.15374 0.238938,0.37602 0.238938,0.61062 l 0,0.84956 -0.849558,0 c -0.234596,0 -0.456883,-0.0852 -0.610619,-0.23894 l -1.088495,-1.08849 -1.088495,1.08849 c -0.153736,0.15374 -0.376023,0.23894 -0.610619,0.23894 l -0.849558,0 0,-0.84956 c 0,-0.2346 0.0852,-0.45688 0.238938,-0.61062 l 1.088495,-1.08849 -1.088495,-1.0885 c -0.153736,-0.15373 -0.238938,-0.37602 -0.238938,-0.61062 l 0,-0.84955 z"
       id="rect11261-1"
       style="opacity:0.4;color:#bebebe;fill:#822b86;fill-opacity:1;fill-rule:nonzero;stroke:none;stroke-width:2.4000001;marker:none;visibility:visible;display:inline;overflow:visible;enable-background:accumulate" />
  </g>
  <g
     inkscape:label="devices"
     transform="translate(-61.000198,-357)"
     inkscape:groupmode="layer"
     id="layer10" />
  <g
     inkscape:label="apps"
     transform="translate(-61.000198,-357)"
     inkscape:groupmode="layer"
     id="layer11" />
  <g
     inkscape:label="actions"
     transform="translate(-61.000198,-357)"
     inkscape:groupmode="layer"
     id="layer12" />
  <g
     inkscape:label="places"
     transform="translate(-61.000198,-357)"
     inkscape:groupmode="layer"
     id="layer13" />
  <g
     inkscape:label="mimetypes"
     transform="translate(-61.000198,-357)"
     inkscape:groupmode="layer"
     id="layer14" />
  <g
     inkscape:label="emblems"
     transform="translate(-61.000198,-357)"
     inkscape:groupmode="layer"
     id="layer15"
     style="display:inline" />
  <g
     inkscape:label="categories"
     transform="translate(-61.000198,-357)"
     inkscape:groupmode="layer"
     id="g4953"
     style="display:inline" />
</svg>
