<?xml version="1.0" encoding="UTF-8" standalone="no"?>
<!-- Created with Inkscape (http://www.inkscape.org/) -->

<svg
   xmlns:dc="http://purl.org/dc/elements/1.1/"
   xmlns:cc="http://creativecommons.org/ns#"
   xmlns:rdf="http://www.w3.org/1999/02/22-rdf-syntax-ns#"
   xmlns:svg="http://www.w3.org/2000/svg"
   xmlns="http://www.w3.org/2000/svg"
   xmlns:sodipodi="http://sodipodi.sourceforge.net/DTD/sodipodi-0.dtd"
   xmlns:inkscape="http://www.inkscape.org/namespaces/inkscape"
   width="256"
   height="256"
   id="svg2"
   version="1.1"
   inkscape:version="0.48.3.1 r9886"
   sodipodi:docname="drive-harddisk-usb.svg">
  <defs
     id="defs4">
    <style
       type="text/css"
       id="style2990">
   
    .str1 {stroke:#1F1A17;stroke-width:0.2}
    .str0 {stroke:#72706F;stroke-width:0.3}
    .fil2 {fill:none}
    .fil1 {fill:#1F1A17}
    .fil0 {fill:#BA8FBA}
    .fil3 {fill:#91457B}
   
  </style>
    <style
       id="style3009"
       type="text/css">
   
    .str1 {stroke:#1F1A17;stroke-width:0.0762}
    .str2 {stroke:#1F1A17;stroke-width:0.2}
    .str0 {stroke:#72706F;stroke-width:0.3}
    .fil3 {fill:none}
    .fil2 {fill:#1F1A17}
    .fil0 {fill:#BA8FBA}
    .fil1 {fill:#91457B}
   
  </style>
  </defs>
  <sodipodi:namedview
     id="base"
     pagecolor="#ffffff"
     bordercolor="#666666"
     borderopacity="1.0"
     inkscape:pageopacity="0.0"
     inkscape:pageshadow="2"
     inkscape:zoom="8.7218803"
     inkscape:cx="163.13831"
     inkscape:cy="183.7836"
     inkscape:document-units="px"
     inkscape:current-layer="layer1"
     showgrid="false"
     showguides="true"
     inkscape:guide-bbox="true"
     inkscape:window-width="1918"
     inkscape:window-height="1007"
     inkscape:window-x="0"
     inkscape:window-y="25"
     inkscape:window-maximized="1" />
  <metadata
     id="metadata7">
    <rdf:RDF>
      <cc:Work
         rdf:about="">
        <dc:format>image/svg+xml</dc:format>
        <dc:type
           rdf:resource="http://purl.org/dc/dcmitype/StillImage" />
        <dc:title />
      </cc:Work>
    </rdf:RDF>
  </metadata>
  <g
     inkscape:label="Layer 1"
     inkscape:groupmode="layer"
     id="layer1"
     transform="translate(0,-796.3622)">
    <g
       transform="matrix(1.0854568,0,0,1.0854568,3562.2672,372.52041)"
       id="g3423">
      <path
         sodipodi:nodetypes="csssc"
         inkscape:connector-curvature="0"
         id="path7090-4-4-7-3"
         d="m -3053.8313,505.54071 c 1.2444,16.2281 13.4211,89.70076 -101.4973,103.17415 -55.3123,6.485 -115.6391,-33.41552 -118.2415,-88.56365 -2.2198,-47.04348 29.2574,-87.79236 101.4972,-103.17411 59.1768,-12.60029 113.4179,14.58085 118.2262,89.4204"
         style="fill:#2ad4ff;fill-opacity:1;stroke:#000000;stroke-width:10;stroke-linecap:round;stroke-linejoin:round;stroke-miterlimit:4;stroke-opacity:1;stroke-dasharray:none;stroke-dashoffset:0" />
      <path
         sodipodi:nodetypes="csssc"
         inkscape:connector-curvature="0"
         id="path7090-4-4-74"
         d="m -3121.4312,511.13413 c 1.6444,19.59542 -14.6418,34.93202 -36.0959,38.18432 -31.0687,4.70978 -42.7536,-11.67664 -42.0507,-32.77703 0.5802,-17.41866 10.41,-32.46568 36.0959,-38.18433 20.9998,-4.67545 40.363,13.14434 42.0452,32.71129"
         style="fill:#ffffff;stroke:#000000;stroke-width:5.10821581;stroke-linecap:round;stroke-linejoin:round;stroke-miterlimit:4;stroke-opacity:1;stroke-dasharray:none;stroke-dashoffset:0" />
      <path
         sodipodi:nodetypes="csssc"
         inkscape:connector-curvature="0"
         id="path5575-6"
         d="m -3150.3991,515.63706 c 0.2351,4.54875 -3.7175,5.67807 -7.7663,5.60859 -4.9411,-0.0848 -10.5046,-2.705 -10.8895,-7.60865 -0.3848,-4.90369 3.6593,-8.58813 8.7097,-8.96181 4.7658,-0.35259 8.8899,3.10743 9.6345,7.6915"
         style="fill:#000000;stroke:#000000;stroke-width:4.80968571;stroke-linecap:square;stroke-linejoin:round;stroke-miterlimit:4;stroke-opacity:1;stroke-dasharray:none;stroke-dashoffset:0" />
    </g>
    <path
       inkscape:connector-curvature="0"
       d="m 166.64976,842.57653 -12.81963,22.19882 9.14491,0 c 2.89565,39.31425 0.7362,78.7486 0,118.11273 l -23.34121,-16.2821 c -1.50707,-1.8802 -2.56428,-4.3402 -2.62284,-6.8708 0,-10.2372 -0.003,-16.3165 -0.007,-18.5542 4.32158,-1.5169 7.44085,-5.5913 7.44085,-10.4351 0,-6.1276 -4.9724,-11.10048 -11.10227,-11.10048 -6.13255,0 -11.10319,4.97238 -11.10319,11.10048 0,4.8438 3.11751,8.9182 7.43553,10.4351 l -0.004,18.3368 c 0,4.9698 2.72667,10.1773 5.92316,13.4918 -0.095,-0.091 -0.19609,-0.1846 0.002,0.01 0.079,0.07 24.76175,17.629 24.76175,17.629 1.50485,1.8762 2.55541,4.3349 2.61575,6.8637 l 0,7.79982 c -8.47944,1.7015 -14.86798,9.1895 -14.86798,18.1714 0,10.2407 8.3011,18.5418 18.53872,18.5418 10.24071,0 18.54226,-8.3011 18.54226,-18.5418 0,-8.9839 -6.39386,-16.4717 -14.8804,-18.1732 l 0,-7.57482 c 0,-0.033 0.002,-0.065 0,-0.098 l 0,-22.0819 c 0.0643,-2.5239 1.11622,-4.9795 2.62286,-6.8539 0,0 24.681,-23.3643 24.76086,-23.4366 0.19832,-0.1872 0.095,-0.094 0.002,0 3.19606,-3.3145 5.92093,-8.5243 5.92093,-13.4949 l -0.005,-28.13051 7.44308,0 0,-22.20458 -22.20236,0 0,22.20458 7.43333,0 c 0,0 -0.009,15.11344 -0.009,28.34701 -0.058,2.531 -1.114,4.9937 -2.62107,6.873 l -23.34564,22.0977 c -2.63472,-31.44396 -0.54389,-64.11266 0,-96.17594 l 9.54711,0 -11.65524,-21.81125 z"
       id="path1334-4-8"
       sodipodi:nodetypes="cccccccssscccccccssscsccccccccccccccccccc"
       style="fill:#ffffff;fill-opacity:1;stroke:#ffffff;stroke-width:6;stroke-linecap:round;stroke-linejoin:round;stroke-miterlimit:4;stroke-opacity:1;stroke-dasharray:none" />
    <path
       inkscape:connector-curvature="0"
       d="m 164.44421,845.75751 -9.07877,15.72103 c -0.61602,1.23162 -2.19494,3.31441 1.80718,3.31441 l 4.82827,0 c 4.28564,39.35914 1.96165,78.68039 0.59542,118.11274 L 139.2551,966.62355 c -1.50707,-1.88018 -2.56428,-4.34019 -2.62284,-6.87077 0,-10.23717 -0.003,-16.31648 -0.007,-18.55424 4.32158,-1.51683 12.09141,-5.20373 12.09141,-10.04748 0,-6.12768 -9.62296,-11.48806 -15.75283,-11.48806 -6.13255,0 -11.10319,4.97241 -11.10319,11.10051 0,4.84375 3.11751,8.9182 7.43553,10.43503 l -0.004,18.33685 c 0,4.96975 2.72667,10.17728 5.92316,13.49177 -0.095,-0.0905 -0.19609,-0.18454 0.002,0.006 0.079,0.0701 24.76175,17.62905 24.76175,17.62905 1.50485,1.87618 2.55541,4.33485 2.61575,6.86365 l 0,7.79984 c -8.47944,1.7015 -15.4634,9.4872 -15.4634,18.4691 0,10.2407 8.89652,18.2441 19.13414,18.2441 10.24071,0 23.19282,-8.3011 23.19282,-18.5418 0,-8.9839 -11.04442,-16.4717 -19.53096,-18.1732 l 0,-7.57483 c 0,-0.0328 0.002,-0.0646 0,-0.0976 l 0,-22.08191 c 0.0643,-2.52391 1.11622,-4.9795 2.62286,-6.85391 0,0 24.681,-23.36428 24.76086,-23.43659 0.19832,-0.18722 0.095,-0.0941 0.002,-0.002 3.19606,-3.3145 5.92093,-8.52425 5.92093,-13.49488 l -0.005,-28.13051 5.17417,0 c 1.88336,0.1066 2.35524,-1.49067 2.26891,-2.93919 l 0,-16.33859 c -0.0578,-1.60566 0.18529,-2.93327 -2.65339,-2.83417 l -15.65325,0.54646 c -2.08552,-0.11912 -3.85692,-0.14413 -4.35899,3.33811 l -0.35566,13.82239 c -0.62038,3.87495 1.3256,4.63511 2.42904,4.40499 l 5.82322,0 c 0,0 -0.009,15.11344 -0.009,28.34702 -0.058,2.53101 -1.114,4.99369 -2.62107,6.87298 l -23.34564,22.09767 c -1.79311,-32.03746 -0.49748,-64.11772 0,-96.1759 l 3.57059,-0.14389 c 4.43193,0.27613 2.6874,-3.05958 0.41836,-7.2539 -2.24517,-4.15019 -4.98467,-9.14583 -6.3547,-11.41675 -1.06794,-3.31222 -2.11887,-1.86826 -3.11747,-0.22141 z"
       id="path1334-4"
       sodipodi:nodetypes="ccccccccssscccccccssscscccccccccccccccccccccsccc"
       style="fill:#000000;fill-opacity:1" />
  </g>
</svg>
