<?xml version="1.0" encoding="UTF-8" standalone="no"?>
<!-- Created with Inkscape (http://www.inkscape.org/) -->

<svg
   xmlns:dc="http://purl.org/dc/elements/1.1/"
   xmlns:cc="http://creativecommons.org/ns#"
   xmlns:rdf="http://www.w3.org/1999/02/22-rdf-syntax-ns#"
   xmlns:svg="http://www.w3.org/2000/svg"
   xmlns="http://www.w3.org/2000/svg"
   xmlns:sodipodi="http://sodipodi.sourceforge.net/DTD/sodipodi-0.dtd"
   xmlns:inkscape="http://www.inkscape.org/namespaces/inkscape"
   width="256"
   height="256"
   id="svg2"
   version="1.1"
   inkscape:version="0.48.3.1 r9886"
   sodipodi:docname="drive-dvdrom.svg">
  <defs
     id="defs4">
    <style
       id="style2990"
       type="text/css">
   
    .str1 {stroke:#1F1A17;stroke-width:0.2}
    .str0 {stroke:#72706F;stroke-width:0.3}
    .fil2 {fill:none}
    .fil1 {fill:#1F1A17}
    .fil0 {fill:#BA8FBA}
    .fil3 {fill:#91457B}
   
  </style>
  </defs>
  <sodipodi:namedview
     id="base"
     pagecolor="#ffffff"
     bordercolor="#666666"
     borderopacity="1.0"
     inkscape:pageopacity="0.0"
     inkscape:pageshadow="2"
     inkscape:zoom="1.458294"
     inkscape:cx="461.87961"
     inkscape:cy="14.034381"
     inkscape:document-units="px"
     inkscape:current-layer="layer1"
     showgrid="false"
     showguides="true"
     inkscape:guide-bbox="true"
     inkscape:window-width="1918"
     inkscape:window-height="1007"
     inkscape:window-x="0"
     inkscape:window-y="25"
     inkscape:window-maximized="1" />
  <metadata
     id="metadata7">
    <rdf:RDF>
      <cc:Work
         rdf:about="">
        <dc:format>image/svg+xml</dc:format>
        <dc:type
           rdf:resource="http://purl.org/dc/dcmitype/StillImage" />
        <dc:title />
      </cc:Work>
    </rdf:RDF>
  </metadata>
  <g
     inkscape:label="Layer 1"
     inkscape:groupmode="layer"
     id="layer1"
     transform="translate(0,-796.3622)">
    <path
       style="fill:#2ad4ff;fill-opacity:1;stroke:#000000;stroke-width:10.85456753;stroke-linecap:round;stroke-linejoin:round;stroke-miterlimit:4;stroke-opacity:1;stroke-dasharray:none;stroke-dashoffset:0"
       d="m 245.82565,917.46803 c 1.35074,17.6149 14.56802,97.36627 -110.17094,111.99107 C 75.615603,1036.4983 10.133467,993.18801 7.3086747,933.3271 4.8991777,882.26343 39.066318,838.03228 117.4795,821.33606 c 64.23386,-13.67707 123.11023,15.82688 128.32943,97.06198"
       id="path7090-4-4-7-3"
       inkscape:connector-curvature="0"
       sodipodi:nodetypes="csssc" />
    <path
       style="fill:#ffffff;stroke:#000000;stroke-width:5.54474735;stroke-linecap:round;stroke-linejoin:round;stroke-miterlimit:4;stroke-opacity:1;stroke-dasharray:none;stroke-dashoffset:0"
       d="m 172.44888,923.53945 c 1.78492,21.26998 -15.89304,37.9172 -39.18054,41.44743 -33.723734,5.11226 -46.407188,-12.67449 -45.64422,-35.57805 0.629782,-18.90721 11.299605,-35.2401 39.18054,-41.44744 22.79438,-5.075 43.81229,14.26761 45.63825,35.50669"
       id="path7090-4-4-74"
       inkscape:connector-curvature="0"
       sodipodi:nodetypes="csssc" />
    <path
       style="fill:#000000;stroke:#000000;stroke-width:5.22070599;stroke-linecap:square;stroke-linejoin:round;stroke-miterlimit:4;stroke-opacity:1;stroke-dasharray:none;stroke-dashoffset:0"
       d="m 141.00547,928.42718 c 0.2552,4.93747 -4.03518,6.1633 -8.42998,6.08789 -5.36335,-0.0921 -11.40229,-2.93617 -11.82008,-8.25887 -0.41768,-5.32274 3.97201,-9.32204 9.454,-9.72765 5.17307,-0.38272 9.6496,3.37298 10.45784,8.34879"
       id="path5575-6"
       inkscape:connector-curvature="0"
       sodipodi:nodetypes="csssc" />
    <path
       d="m 348.375,991.3125 -5.84375,31.7187 15.5,1.6876 c 6.33206,0 10.99716,-1.324 14.0625,-4.0313 3.06535,-2.7521 4.625,-6.982 4.625,-12.6875 0,-5.6385 -1.61791,-9.87291 -4.59375,-12.625 -3.04297,-2.61785 -7.85119,-4.0625 -14.09375,-4.0625 l -9.65625,0 z m 35.0625,0 10.9375,33.5 4,2.3437 4.84375,2.0313 11.65625,-37.875 -4.15625,0.6875 -10.5,26.8438 -10.53125,-27.5313 -6.25,0 z m 38.125,0 -5.8125,33.4063 15.5,0 c 6.33206,0 10.99715,-1.324 14.0625,-4.0313 3.06534,-2.7521 4.625,-6.982 4.625,-12.6875 0,-5.6385 -1.61791,-9.87291 -4.59375,-12.625 -3.04297,-2.61785 -7.85119,-4.0625 -14.09375,-4.0625 l -9.6875,0 z m -67,5.21875 4.3125,0 c 4.04984,0 7.02214,0.91527 8.96875,2.75 1.9466,1.83475 2.84375,4.54935 2.84375,8.21875 -0.60412,2.7969 -1.87626,4.8947 -3.21875,5.9688 -1.56623,1.0516 -2.7187,3.4129 -6.875,3.625 l -6.71875,0.3437 0.6875,-20.90625 z m 73.21875,0 4.3125,0 c 4.04983,0 6.9909,0.91527 8.9375,2.75 1.94661,1.83475 2.875,4.54935 2.875,8.21875 -0.60411,2.7969 -1.87626,4.8947 -3.21875,5.9688 -1.56623,1.0516 -4.43205,1.5624 -8.59375,1.5624 l -4.3125,0 0,-18.49995 z"
       id="path3050"
       style="font-size:45.82356644px;font-style:normal;font-variant:normal;font-weight:normal;font-stretch:normal;line-height:125%;letter-spacing:0px;word-spacing:0px;fill:#000000;fill-opacity:1;stroke:none;font-family:OpenDyslexic;-inkscape-font-specification:OpenDyslexic"
       inkscape:original="M 348.375 991.3125 L 342.53125 1023.0312 L 358.03125 1024.7188 C 364.36331 1024.7188 369.02841 1023.3948 372.09375 1020.6875 C 375.1591 1017.9354 376.71875 1013.7055 376.71875 1008 C 376.71875 1002.3615 375.10084 998.12709 372.125 995.375 C 369.08203 992.75715 364.27381 991.3125 358.03125 991.3125 L 348.375 991.3125 z M 383.4375 991.3125 L 394.375 1024.8125 L 398.375 1027.1562 L 403.21875 1029.1875 L 414.875 991.3125 L 410.71875 992 L 400.21875 1018.8438 L 389.6875 991.3125 L 383.4375 991.3125 z M 421.5625 991.3125 L 415.75 1024.7188 L 431.25 1024.7188 C 437.58206 1024.7188 442.24715 1023.3948 445.3125 1020.6875 C 448.37784 1017.9354 449.9375 1013.7055 449.9375 1008 C 449.9375 1002.3615 448.31959 998.12709 445.34375 995.375 C 442.30078 992.75715 437.49256 991.3125 431.25 991.3125 L 421.5625 991.3125 z M 354.5625 996.53125 L 358.875 996.53125 C 362.92484 996.53125 365.89714 997.44652 367.84375 999.28125 C 369.79035 1001.116 370.6875 1003.8306 370.6875 1007.5 C 370.08338 1010.2969 368.81124 1012.3947 367.46875 1013.4688 C 365.90252 1014.5204 364.75005 1016.8817 360.59375 1017.0938 L 353.875 1017.4375 L 354.5625 996.53125 z M 427.78125 996.53125 L 432.09375 996.53125 C 436.14358 996.53125 439.08465 997.44652 441.03125 999.28125 C 442.97786 1001.116 443.90625 1003.8306 443.90625 1007.5 C 443.30214 1010.2969 442.02999 1012.3947 440.6875 1013.4688 C 439.12127 1014.5204 436.25545 1015.0312 432.09375 1015.0312 L 427.78125 1015.0312 L 427.78125 996.53125 z "
       inkscape:radius="0"
       sodipodi:type="inkscape:offset"
       transform="matrix(1.0307793,0,0,1.0307793,-281.97028,-48.340952)" />
  </g>
</svg>
