<?xml version="1.0" encoding="UTF-8" standalone="no"?>
<!-- Created with Inkscape (http://www.inkscape.org/) -->

<svg
   xmlns:dc="http://purl.org/dc/elements/1.1/"
   xmlns:cc="http://creativecommons.org/ns#"
   xmlns:rdf="http://www.w3.org/1999/02/22-rdf-syntax-ns#"
   xmlns:svg="http://www.w3.org/2000/svg"
   xmlns="http://www.w3.org/2000/svg"
   xmlns:sodipodi="http://sodipodi.sourceforge.net/DTD/sodipodi-0.dtd"
   xmlns:inkscape="http://www.inkscape.org/namespaces/inkscape"
   width="256"
   height="256"
   id="svg2"
   version="1.1"
   inkscape:version="0.48.3.1 r9886"
   sodipodi:docname="drive-harddisk.svg">
  <defs
     id="defs4">
    <style
       type="text/css"
       id="style2990">
   
    .str1 {stroke:#1F1A17;stroke-width:0.2}
    .str0 {stroke:#72706F;stroke-width:0.3}
    .fil2 {fill:none}
    .fil1 {fill:#1F1A17}
    .fil0 {fill:#BA8FBA}
    .fil3 {fill:#91457B}
   
  </style>
  </defs>
  <sodipodi:namedview
     id="base"
     pagecolor="#ffffff"
     bordercolor="#666666"
     borderopacity="1.0"
     inkscape:pageopacity="0.0"
     inkscape:pageshadow="2"
     inkscape:zoom="1.3560868"
     inkscape:cx="27.715784"
     inkscape:cy="2.1949897"
     inkscape:document-units="px"
     inkscape:current-layer="layer1"
     showgrid="false"
     showguides="true"
     inkscape:guide-bbox="true"
     inkscape:window-width="1918"
     inkscape:window-height="1007"
     inkscape:window-x="0"
     inkscape:window-y="25"
     inkscape:window-maximized="1" />
  <metadata
     id="metadata7">
    <rdf:RDF>
      <cc:Work
         rdf:about="">
        <dc:format>image/svg+xml</dc:format>
        <dc:type
           rdf:resource="http://purl.org/dc/dcmitype/StillImage" />
        <dc:title />
      </cc:Work>
    </rdf:RDF>
  </metadata>
  <g
     inkscape:label="Layer 1"
     inkscape:groupmode="layer"
     id="layer1"
     transform="translate(0,-796.3622)">
    <path
       style="fill:#ffffff;fill-opacity:1;fill-rule:nonzero;stroke:#000000;stroke-width:7.3;stroke-linecap:round;stroke-linejoin:round;stroke-miterlimit:4;stroke-opacity:1;stroke-dashoffset:0;stroke-dasharray:none"
       d="m 48.669459,804.22179 165.549891,0 c 20.22216,0 29.76091,18.141 30.60276,38.3456 l 7.00546,168.13091 c 0.84185,20.2046 -17.38611,32.4031 -37.60822,32.4463 l -172.555341,0.3687 c -20.22211,0.043 -37.84358,-22.1882 -37.23951,-42.4014 l 4.79321,-160.38801 c 0.60407,-20.2132 19.22959,-36.5021 39.45175,-36.5021 z"
       id="rect3009"
       inkscape:connector-curvature="0"
       sodipodi:nodetypes="sssssssss" />
    <g
       id="g3796"
       transform="matrix(0.87916445,0,0,0.87916445,254.94661,116.30244)">
      <path
         sodipodi:nodetypes="csssc"
         inkscape:connector-curvature="0"
         id="path7090-4-4-7-3"
         d="m -26.102497,910.71841 c 1.35074,17.6149 14.568021,97.36629 -110.170943,111.99109 -60.03911,7.0392 -125.52125,-36.27111 -128.34604,-96.13202 -2.4095,-51.06367 31.75764,-95.29482 110.17083,-111.99104 64.233863,-13.67707 123.110233,15.82688 128.329433,97.06198"
         style="fill:#2ad4ff;fill-opacity:1;stroke:#000000;stroke-width:10.85456753;stroke-linecap:round;stroke-linejoin:round;stroke-miterlimit:4;stroke-opacity:1;stroke-dasharray:none;stroke-dashoffset:0" />
      <path
         sodipodi:nodetypes="csssc"
         inkscape:connector-curvature="0"
         id="path7090-4-4-74"
         d="m -99.479267,916.78983 c 1.78492,21.26998 -15.893043,37.9172 -39.180543,41.44743 -33.72374,5.11223 -46.40719,-12.67449 -45.64422,-35.57805 0.62978,-18.90721 11.2996,-35.2401 39.18054,-41.44744 22.79438,-5.075 43.81229,14.26761 45.638253,35.50669"
         style="fill:#ffffff;stroke:#000000;stroke-width:5.54474735;stroke-linecap:round;stroke-linejoin:round;stroke-miterlimit:4;stroke-opacity:1;stroke-dasharray:none;stroke-dashoffset:0" />
      <path
         sodipodi:nodetypes="csssc"
         inkscape:connector-curvature="0"
         id="path5575-6"
         d="m -130.92268,921.67756 c 0.2552,4.93747 -4.03518,6.1633 -8.42998,6.08789 -5.36335,-0.0921 -11.40229,-2.93617 -11.82008,-8.25887 -0.41768,-5.32274 3.97201,-9.32204 9.454,-9.72765 5.17307,-0.38272 9.6496,3.37298 10.45784,8.34879"
         style="fill:#000000;stroke:#000000;stroke-width:5.22070599;stroke-linecap:square;stroke-linejoin:round;stroke-miterlimit:4;stroke-opacity:1;stroke-dasharray:none;stroke-dashoffset:0" />
      <path
         sodipodi:nodetypes="ccccc"
         inkscape:transform-center-y="2.5809557"
         inkscape:transform-center-x="11.798655"
         inkscape:connector-curvature="0"
         id="rect3793"
         d="m -210.02138,962.98832 9.56376,19.40201 -20.44646,14.8122 -12.14472,-13.50263 z"
         style="fill:#000000;fill-opacity:1;fill-rule:nonzero;stroke:#000000;stroke-width:4.9974556;stroke-linecap:round;stroke-linejoin:round;stroke-miterlimit:4;stroke-opacity:1;stroke-dashoffset:0" />
    </g>
  </g>
</svg>
