<?xml version="1.0" encoding="UTF-8" standalone="no"?>
<!-- Created with Inkscape (http://www.inkscape.org/) -->

<svg
   xmlns:dc="http://purl.org/dc/elements/1.1/"
   xmlns:cc="http://creativecommons.org/ns#"
   xmlns:rdf="http://www.w3.org/1999/02/22-rdf-syntax-ns#"
   xmlns:svg="http://www.w3.org/2000/svg"
   xmlns="http://www.w3.org/2000/svg"
   xmlns:sodipodi="http://sodipodi.sourceforge.net/DTD/sodipodi-0.dtd"
   xmlns:inkscape="http://www.inkscape.org/namespaces/inkscape"
   version="1.0"
   width="96"
   height="96"
   id="svg2408"
   inkscape:version="0.48.3.1 r9886"
   sodipodi:docname="applications-geography.svg">
  <sodipodi:namedview
     pagecolor="#ffffff"
     bordercolor="#666666"
     borderopacity="1"
     objecttolerance="10"
     gridtolerance="10"
     guidetolerance="10"
     inkscape:pageopacity="0"
     inkscape:pageshadow="2"
     inkscape:window-width="1434"
     inkscape:window-height="849"
     id="namedview101"
     showgrid="false"
     inkscape:zoom="2.8284271"
     inkscape:cx="109.7899"
     inkscape:cy="53.277823"
     inkscape:window-x="0"
     inkscape:window-y="26"
     inkscape:window-maximized="1"
     inkscape:current-layer="svg2408"
     inkscape:snap-global="false" />
  <defs
     id="defs2410">
    <linearGradient
       x1="45.447727"
       y1="92.539597"
       x2="45.447727"
       y2="7.0165396"
       id="ButtonShadow"
       gradientUnits="userSpaceOnUse"
       gradientTransform="scale(1.0058652,0.994169)">
      <stop
         id="stop3750"
         style="stop-color:#000000;stop-opacity:1"
         offset="0" />
      <stop
         id="stop3752"
         style="stop-color:#000000;stop-opacity:0.58823532"
         offset="1" />
    </linearGradient>
    <filter
       color-interpolation-filters="sRGB"
       id="filter3174">
      <feGaussianBlur
         id="feGaussianBlur3176"
         stdDeviation="1.71" />
    </filter>
  </defs>
  <metadata
     id="metadata2413">
    <rdf:RDF>
      <cc:Work
         rdf:about="">
        <dc:format>image/svg+xml</dc:format>
        <dc:type
           rdf:resource="http://purl.org/dc/dcmitype/StillImage" />
        <dc:title />
      </cc:Work>
    </rdf:RDF>
  </metadata>
  <g
     id="layer2"
     style="display:none">
    <rect
       width="86"
       height="85"
       rx="6"
       ry="6"
       x="5"
       y="7"
       id="rect3745"
       style="opacity:0.9;fill:url(#ButtonShadow);fill-opacity:1;fill-rule:nonzero;stroke:none;filter:url(#filter3174)" />
  </g>
  <path
     style="fill:#694869;fill-opacity:1;stroke:none"
     d="m 7.4453,57.238364 c -0.40252,5.159288 1.77114,8.852108 2.25033,14.077033 5.63564,11.946464 19.66,22.092275 40.00485,18.151824 C 67.16304,86.085019 76.46394,76.392038 80.347,59.725261 l 0.0254,-5.8358 C 80.21948,52.506719 79.82106,48.273021 79.48638,46.964964 76.93739,65.434431 65.06757,77.91999 47.363,80.395789 27.50591,83.172593 9.30648,73.793566 7.44531,57.238364 z"
     id="path4090"
     inkscape:connector-curvature="0"
     sodipodi:nodetypes="ccscccsc" />
  <path
     inkscape:connector-curvature="0"
     style="fill:#694869;fill-opacity:1;stroke:none"
     d="m 42.33594,47.80013 c -2.23565,-0.99571 -4.97514,-0.717883 -6.11284,0.625553 -1.1377,1.343432 -0.25297,3.242273 1.98268,4.237982 2.23565,0.995711 4.97514,0.717882 6.11283,-0.625552 l 0.036,-0.06103 c 1.07181,-1.343826 0.18248,-3.196602 -2.01871,-4.176965 z m -0.91157,0.80509 c 1.32081,0.588258 1.85221,1.70191 1.20908,2.508258 l -0.0145,0.04024 c -0.68267,0.806111 -2.33405,0.975155 -3.67552,0.377691 -1.34148,-0.597465 -1.87718,-1.742362 -1.19452,-2.548474 0.68267,-0.806111 2.33405,-0.975154 3.67553,-0.37769 z"
     id="path4112" />
  <path
     style="fill:#694869;fill-opacity:1;stroke:none"
     d="m 52.77589,40.660534 c -1.00569,1.145716 -2.29212,2.198136 -3.78125,4.125 -1.48912,1.926863 -2,2.413384 -2,2.413384 -0.17015,-0.270835 -0.46878,-0.381833 -0.71875,-0.475884 -0.33199,0.193481 -1.02096,1.052089 -1.54283,1.402019 -0.50826,-0.153836 -0.54988,-0.380659 -0.75808,-0.533585 -0.36196,0.361299 -0.46441,0.473573 -0.52611,0.626894 1.54336,1.017777 2.24231,2.603815 1.11515,3.847517 -1.81835,1.820339 -3.84295,1.519958 -5.75999,1.06652 -0.49187,0.264304 -1.10014,0.553408 -1.52814,1.278135 -0.64066,1.084843 1.09998,1.508039 1.09998,1.508039 0,0 -1.75885,1.158073 -2.85179,1.961616 l 1.28306,-9.05e-4 c 0,0 -4.93572,8.30047 -5.46875,9.375 -0.53294,1.074529 10.28125,-7.46875 10.28125,-7.46875 0,0 3.30929,12.34501 3.46875,12.9375 0.15941,0.592485 0.25,-14.6875 0.25,-14.6875 l 14.78125,3.3125 -12.25,-6.34375 10.2279,-4.993369 -10.02704,0.887161 c 0,0 3.39584,-7.507949 4.70539,-10.237542 z m -12.4375,0.75 -0.2076,5.449558 c 0.75946,-0.465858 1.13834,-0.620295 1.896,-1.25 -0.74434,-1.636163 -1.28046,-3.042185 -1.6884,-4.199558 z m -13.875,6.15625 8.15896,5.065215 c 0.48879,-0.415571 0.99117,-1.119362 1.25,-1.5 -0.53552,-0.433924 -0.93484,-0.932424 -1.125,-1.4375 z m 2.53883,9.09154 -9.46875,3.46875 7.78125,-1.03125 c 0.66336,-0.930225 1.14609,-1.657976 1.6875,-2.4375 z"
     id="path4357"
     inkscape:connector-curvature="0"
     sodipodi:nodetypes="cscccccccsccccccccccccccccccccccccc" />
  <path
     inkscape:connector-curvature="0"
     style="font-size:15.3319664px;font-style:normal;font-variant:normal;font-weight:normal;font-stretch:normal;line-height:125%;letter-spacing:0px;word-spacing:0px;fill:#694869;fill-opacity:1;stroke:none;font-family:Unna;-inkscape-font-specification:Unna"
     d="m 29.27589,67.848034 c -0.21662,0.0068 -0.41711,0.02412 -0.625,0.0625 -0.82055,0.157505 -1.45093,0.490796 -1.875,1 -0.61795,0.741993 -0.44745,1.49068 0.5,2.25 l 1.3125,1.0625 c 0.67362,0.534148 0.92618,1.039426 0.78125,1.5 l 1.46875,0.65625 c 0.0288,-0.03131 0.0665,-0.06101 0.0937,-0.09375 0.35743,-0.429191 0.48379,-0.817822 0.34375,-1.21875 -0.12296,-0.404208 -0.53655,-0.877261 -1.1875,-1.40625 l -1.1875,-0.96875 c -0.74316,-0.590739 -0.88072,-1.130336 -0.46875,-1.625 0.30896,-0.37099 0.69595,-0.580343 1.21875,-0.65625 0.52885,-0.08317 1.14113,-0.01285 1.78125,0.21875 0.6401,0.231608 1.0661,0.56529 1.28125,1.03125 0.23222,0.462686 0.14378,0.933416 -0.25,1.40625 l 0.4375,0.15625 c 0.0428,-0.154896 0.19708,-0.417527 0.5,-0.78125 0.3029,-0.363717 0.54023,-0.61864 0.71875,-0.78125 -0.14565,-0.01482 -0.30322,-0.0651 -0.46875,-0.125 -0.15452,-0.0559 -0.29728,-0.111209 -0.4375,-0.21875 l -0.46875,-0.375 -0.59375,-0.375 c -0.24563,-0.136196 -0.52556,-0.239922 -0.8125,-0.34375 -0.72841,-0.263545 -1.41264,-0.395458 -2.0625,-0.375 z m -4.78125,3.625 0.40625,0.1875 c 0.005,-0.0085 -0.005,-0.02272 0,-0.03125 l -0.40625,-0.15625 z"
     id="text4132-7" />
  <text
     xml:space="preserve"
     style="font-size:13.04655361px;font-style:normal;font-variant:normal;font-weight:normal;font-stretch:normal;line-height:125%;letter-spacing:0px;word-spacing:0px;fill:#694869;fill-opacity:1;stroke:none;font-family:Unna;-inkscape-font-specification:Unna"
     x="79.397217"
     y="46.11322"
     id="text4132-7-9"
     sodipodi:linespacing="125%"
     transform="matrix(1.0797467,0.39067116,-0.59270984,0.71169039,0,0)"><tspan
       sodipodi:role="line"
       id="tspan4134-1-2"
       x="79.397217"
       y="46.11322">E</tspan><tspan
       sodipodi:role="line"
       x="79.397217"
       y="62.421413"
       id="tspan4282" /></text>
  <text
     xml:space="preserve"
     style="font-size:10.3555479px;font-style:normal;font-variant:normal;font-weight:normal;font-stretch:normal;line-height:125%;letter-spacing:0px;word-spacing:0px;fill:#694869;fill-opacity:1;stroke:none;font-family:Unna;-inkscape-font-specification:Unna"
     x="39.631519"
     y="44.559475"
     id="text4132-7-9-6"
     sodipodi:linespacing="125%"
     transform="matrix(1.0797467,0.39067116,-0.59270984,0.71169039,0,0)"><tspan
       sodipodi:role="line"
       id="tspan4134-1-2-3"
       x="39.631519"
       y="44.559475">W</tspan></text>
  <path
     style="fill:none;stroke:#694869;stroke-width:1.07903731;stroke-miterlimit:4;stroke-dasharray:none"
     d="M 54.1003,22.80697 C 52.418,22.49304 50.66911,22.268561 48.87344,22.168655 29.41972,21.086304 11.10603,33.453966 7.9581,49.790255 4.81017,66.126544 18.04466,80.255151 37.49838,81.337503 56.9521,82.419855 75.26579,70.052192 78.41372,53.715903 l 0.0989,-0.649505 C 80.94163,38.472213 70.36262,25.841636 54.10031,22.80697 z m -1.93774,5.347679 C 65.54479,30.652738 74.27437,41.00269 72.2861,52.959924 l -0.10484,0.520797 C 69.60269,66.864986 54.52953,76.993318 38.52287,76.09278 22.51622,75.192243 11.63634,63.605859 14.21491,50.221594 16.79348,36.837328 31.86665,26.708996 47.8733,27.609533 c 1.47749,0.08312 2.90494,0.286693 4.28931,0.545119 z"
     id="path4090-2-3"
     inkscape:connector-curvature="0" />
  <path
     style="fill:#694869;stroke:none"
     d="m 15.85082,63.727764 c 0,0 -0.78979,-20.523835 15.71004,-28.665769 16.03936,-7.914711 30.12569,-3.216435 34.8077,1.503911 3.75472,3.785466 5.39981,5.242731 5.39981,5.242731 l -8.45834,-9.804265 c 0,0 -13.4935,-4.768876 -17.99134,-4.768876 -4.49783,0 -17.98506,4.274286 -22.48917,7.879013 -6.47689,5.183561 -8.81577,15.550682 -8.81577,17.831449 0,2.280767 1.83707,10.781806 1.83707,10.781806 z"
     id="path4317"
     inkscape:connector-curvature="0"
     sodipodi:nodetypes="cssccsssc" />
  <path
     style="fill:none;stroke:#694869;stroke-width:0.53559029px;stroke-linecap:butt;stroke-linejoin:miter;stroke-opacity:1"
     d="m 31.71689,53.40305 c 0,0 -6.84802,10.212195 -10.22173,13.713458 6.12522,-4.227083 15.4902,-11.16258 15.4902,-11.16258 0,0 -1.37305,-0.483288 -0.73239,-1.568131 0.64067,-1.08484 2.14157,-1.707353 2.14157,-1.707353 l -2.63684,-1.26466 c 0,0 -1.05388,1.621165 -1.68773,2.003384 -0.63385,0.382219 -2.35308,-0.01412 -2.35308,-0.01412 z"
     id="path4110-7-1"
     inkscape:connector-curvature="0"
     sodipodi:nodetypes="cccsccsc"
     inkscape:transform-center-x="-23.962966"
     inkscape:transform-center-y="4.2479803" />
  <path
     style="fill:#694869;stroke:none"
     d="m 41.91522,43.965036 c 0,0 11.68066,-7.742799 15.36789,-11.083862 -3.81649,5.406814 -10.29025,13.819669 -10.29025,13.819669 0,0 -1.07804,-0.769177 -2.34574,-0.0047 -1.2677,0.764438 -1.6444,1.961399 -1.6444,1.961399 l -2.52506,-1.372987 c 0,0 1.86456,-1.206917 2.1849,-1.749337 0.32033,-0.542422 -0.74734,-1.570142 -0.74734,-1.570142 z"
     id="path4110-9"
     inkscape:connector-curvature="0"
     sodipodi:nodetypes="cccsccsc" />
  <path
     style="font-size:16.61799431px;font-style:normal;font-variant:normal;font-weight:normal;font-stretch:normal;line-height:125%;letter-spacing:0px;word-spacing:0px;fill:#694869;fill-opacity:1;stroke:none;font-family:Unna;-inkscape-font-specification:Unna"
     d="m 53.47376,31.826263 -0.3125,0.375 0.71875,0.21875 c 0.1142,0.03108 0.20485,0.07942 0.21875,0.15625 0.0324,0.07329 -0.003,0.14779 -0.0625,0.21875 l -4.875,5.875 c 0.66408,-0.465932 1.3047,-0.930437 1.96875,-1.40625 l 3.3125,-3.96875 0.28125,1.34375 c 0.61185,-0.46971 1.13585,-0.906921 1.625,-1.3125 l -0.0937,-0.5 -2.78125,-1 z m 3.29551,2.450863 c -0.49236,0.692051 -1.00078,1.36981 -1.5,2.0625 l 1.11787,5.849579 0.53125,0.1875 5.46875,-6.53125 c 0.13787,-0.165575 0.29662,-0.22983 0.5,-0.15625 l 0.0313,0.03125 0.6875,0.25 0.28125,-0.34375 -2.875,-1.03125 -0.3125,0.34375 0.90625,0.28125 0.0625,0.03125 c 0.20334,0.07357 0.22506,0.186062 0.0937,0.34375 l -3.875,4.6875 z m -8.88926,4.267887 -0.28125,0.34375 0.8125,0.3125 c 0.15725,-0.109613 0.30996,-0.232614 0.46875,-0.34375 -0.0959,0.02172 -0.19288,0.01203 -0.3125,-0.03125 z"
     id="path6915-1"
     inkscape:connector-curvature="0"
     sodipodi:nodetypes="ccccccccccccccccccccccccccccccccccc" />
  <path
     style="fill:#694869;fill-opacity:1;stroke:none"
     d="m 72.49464,6.2855339 c -0.43683,-0.00795 -0.89897,0.00522 -1.34375,0.03125 -7.22788,0.4230112 -12.61327,5.2612071 -12.0625,10.8125001 0.23065,2.324714 1.48526,4.399093 3.375,6 0.14674,-0.151659 0.22627,-0.191756 0.40625,-0.375 -1.16643,-0.960881 -2.28682,-2.247031 -2.9375,-3.90625 -0.54763,-1.39646 -0.60176,-3.927295 0,-5.28125 1.23745,-2.784233 3.0867,-3.9467152 4.78125,-4.9687501 2.13304,-1.286507 4.82857,-1.6734222 6.96875,-1.75 0.71339,-0.025526 1.35419,-0.020075 1.90625,0 2.43068,0.088388 5.65974,1.7264278 6.53125,2.34375 2.12132,1.5026021 3.30806,2.9224921 3.75,6.2812501 0.44194,3.358757 -1.62592,5.167893 -2.15625,5.875 -0.53033,0.707107 -4.81526,2.96967 -6.40625,3.5 -1.59099,0.53033 -2.64553,-0.01256 -2.46875,-1.25 0.17677,-1.237437 3.44118,-1.397366 5.5625,-2.28125 2.12132,-0.883883 3.00628,-2.295653 3.625,-4.59375 0.61872,-2.298097 -1.78125,-5.125 -1.78125,-5.125 0,0 -1.10593,-1.6322015 -3.625,-2.7812501 -0.79201,-0.3612696 -3.17417,-0.807138 -4.5,-0.71875 -1.32582,0.088388 -3.7657,0.6625315 -5.3125,1.28125 -1.53313,0.6132517 -3.08709,2.2107861 -3.75,3.6250001 -0.61529,1.312627 -0.96849,2.937864 -0.375,4.59375 0.37093,1.034928 1.6735,2.035337 2.4375,2.96875 0.38579,-0.347614 0.7364,-0.653992 1.0625,-0.90625 -1.23519,-0.871169 -2.04152,-2.043478 -2.1875,-3.34375 -0.33366,-2.972051 2.93379,-5.586028 7.3125,-5.8125 4.37828,-0.226449 8.19701,1.997023 8.53125,4.96875 0.33366,2.972051 -2.93379,5.586028 -7.3125,5.8125 -0.18946,0.0098 -0.37537,-7.64e-4 -0.5625,0 -0.32343,0.08117 -0.77341,0.284043 -1.15625,0.875 -0.61428,0.948223 -1.05936,1.895146 0.0625,3.625 0.25309,0.390261 0.5977,0.571592 0.90625,0.65625 0.0105,2.21e-4 0.0207,-2.02e-4 0.0313,0 0.4432,0.0085 0.89201,-0.0048 1.34375,-0.03125 7.22788,-0.423011 12.64452,-5.261207 12.09375,-10.8125 l -0.0313,-0.21875 C 84.55938,10.264916 79.04714,6.4047912 72.49464,6.2855339 z"
     id="path6966"
     inkscape:connector-curvature="0"
     sodipodi:nodetypes="sssccsssssssssssscsssssccsscscssccsccs" />
  <path
     style="fill:#694869;fill-opacity:1;stroke:none"
     d="m 67.27471,19.061608 c -0.23918,0.01612 -0.47744,0.0846 -0.6875,0.21875 -1.61582,1.031943 -5.3125,4.96875 -5.3125,4.96875 l 5.375,2.84375 2.6875,2.21875 3.03125,-2.8125 c 0,0 -1.03599,0.141297 -1.59375,-0.71875 -1.12186,-1.729854 -0.67678,-2.676777 -0.0625,-3.625 0.65629,-1.01307 1.5625,-0.9375 1.5625,-0.9375 l -0.125,-0.6875 c 0,0 -1.56564,-0.446003 -2.75,-0.90625 -0.61325,-0.238309 -1.40747,-0.610863 -2.125,-0.5625 z m -0.6875,1.71875 c 0.83969,0.04419 1.99556,0.333947 2.4375,0.6875 0.44194,0.353554 -0.16697,0.998699 -0.34375,1.75 -0.17677,0.751301 -0.19731,1.699143 0.15625,2.40625 0.35355,0.707107 -0.46875,1.53125 -0.46875,1.53125 0,0 -0.32598,-0.715228 -2.09375,-1.6875 -1.76776,-0.972272 -3.4375,-1.6875 -3.4375,-1.6875 1.40384,-1.259894 2.39686,-2.383618 3.75,-3 z"
     id="path6973-8"
     inkscape:connector-curvature="0" />
</svg>
