<?xml version="1.0" encoding="UTF-8" standalone="no"?>
<!-- Created with Inkscape (http://www.inkscape.org/) -->

<svg
   xmlns:dc="http://purl.org/dc/elements/1.1/"
   xmlns:cc="http://creativecommons.org/ns#"
   xmlns:rdf="http://www.w3.org/1999/02/22-rdf-syntax-ns#"
   xmlns:svg="http://www.w3.org/2000/svg"
   xmlns="http://www.w3.org/2000/svg"
   xmlns:sodipodi="http://sodipodi.sourceforge.net/DTD/sodipodi-0.dtd"
   xmlns:inkscape="http://www.inkscape.org/namespaces/inkscape"
   width="256"
   height="256"
   viewBox="0 0 67.733332 67.733335"
   version="1.1"
   id="svg18205"
   inkscape:version="0.92.1 r15371"
   sodipodi:docname="categoria_sonido.svg">
  <defs
     id="defs18199" />
  <sodipodi:namedview
     id="base"
     pagecolor="#ffffff"
     bordercolor="#666666"
     borderopacity="1.0"
     inkscape:pageopacity="0.0"
     inkscape:pageshadow="2"
     inkscape:zoom="1.1794051"
     inkscape:cx="-53.491578"
     inkscape:cy="109.00751"
     inkscape:document-units="mm"
     inkscape:current-layer="layer1"
     showgrid="false"
     units="px"
     inkscape:window-width="1914"
     inkscape:window-height="1008"
     inkscape:window-x="0"
     inkscape:window-y="24"
     inkscape:window-maximized="1"
     inkscape:snap-global="false" />
  <metadata
     id="metadata18202">
    <rdf:RDF>
      <cc:Work
         rdf:about="">
        <dc:format>image/svg+xml</dc:format>
        <dc:type
           rdf:resource="http://purl.org/dc/dcmitype/StillImage" />
        <dc:title></dc:title>
      </cc:Work>
    </rdf:RDF>
  </metadata>
  <g
     inkscape:label="Capa 1"
     inkscape:groupmode="layer"
     id="layer1"
     transform="translate(0,-229.26665)">
    <g
       id="g4504"
       transform="matrix(1.4082341,0,0,1.4082341,105.99566,-91.304877)">
      <g
         style="fill:#9283be;fill-opacity:1"
         transform="matrix(0.54195365,0,0,-0.54195365,-27.743287,251.68406)"
         id="g370-3-4-3-4-2-4-4-7-62">
        <path
           inkscape:connector-curvature="0"
           id="path372-6-5-7-5-5-7-4-8-9"
           style="fill:#9283be;fill-opacity:1;fill-rule:nonzero;stroke:none"
           d="m 0,0 c 0,-24.08 -19.521,-43.601 -43.602,-43.601 -24.08,0 -43.6,19.521 -43.6,43.601 0,24.08 19.52,43.601 43.6,43.601 C -19.521,43.601 0,24.08 0,0" />
      </g>
      <path
         sodipodi:nodetypes="cccccccccccccccccccccccccccsc"
         inkscape:connector-curvature="0"
         id="rect4652-7-8-4-4-6-7-5-5-2-90"
         d="m -61.542088,239.64367 c -0.478507,-0.009 -0.986698,0.0978 -1.031142,0.7846 h -0.01073 v 18.2419 c -0.07262,0.36788 -0.09197,0.74259 -0.0576,1.11482 0.23343,2.39002 2.586292,4.16289 5.265637,3.96759 2.679446,-0.19497 4.678854,-2.28546 4.474521,-4.67768 l -0.0095,-0.0948 c -0.262735,-2.3876 -2.63728,-4.13737 -5.314087,-3.91586 -0.401765,0.0343 -0.797215,0.11298 -1.177312,0.23432 V 243.6488 h 13.181902 v 15.46084 h 0.008 c -0.02325,0.24148 -0.02415,0.48406 -0.0024,0.72557 0.233549,2.38998 2.5865,4.16274 5.265836,3.96738 2.67927,-0.19527 4.678524,-2.28541 4.474316,-4.67748 l -0.0092,-0.0948 c -0.262735,-2.38764 -2.637274,-4.13737 -5.314087,-3.91593 -0.424082,0.0355 -0.818355,0.13147 -1.217821,0.26354 V 243.6604 l 8.35e-4,-0.0119 0.01133,-2.32646 c 0.01133,-0.1747 -0.0075,-0.67033 -0.03503,-0.82133 v -0.0724 l 0.0083,0.11418 c -0.112779,-0.47801 -0.479539,-0.90421 -1.172226,-0.85815 H -60.88405 c -0.163371,0 -0.406612,-0.0358 -0.65798,-0.0405 z"
         style="fill:none;fill-opacity:1;stroke:#ffffff;stroke-width:1.19248939;stroke-miterlimit:4;stroke-dasharray:none;stroke-opacity:1" />
    </g>
  </g>
</svg>
