<?xml version="1.0" encoding="UTF-8" standalone="no"?>
<!-- Created with Inkscape (http://www.inkscape.org/) -->

<svg
   xmlns:dc="http://purl.org/dc/elements/1.1/"
   xmlns:cc="http://creativecommons.org/ns#"
   xmlns:rdf="http://www.w3.org/1999/02/22-rdf-syntax-ns#"
   xmlns:svg="http://www.w3.org/2000/svg"
   xmlns="http://www.w3.org/2000/svg"
   xmlns:sodipodi="http://sodipodi.sourceforge.net/DTD/sodipodi-0.dtd"
   xmlns:inkscape="http://www.inkscape.org/namespaces/inkscape"
   id="svg7384"
   width="16"
   height="16.001099"
   sodipodi:docname="mail-read-symbolic.svg"
   inkscape:version="0.92.1 r15371"
   version="1.1">
  <metadata
     id="metadata90">
    <rdf:RDF>
      <cc:Work
         rdf:about="">
        <dc:format>image/svg+xml</dc:format>
        <dc:type
           rdf:resource="http://purl.org/dc/dcmitype/StillImage" />
        <dc:title>Gnome Symbolic Icon Theme</dc:title>
      </cc:Work>
    </rdf:RDF>
  </metadata>
  <sodipodi:namedview
     inkscape:window-width="1918"
     id="namedview88"
     showgrid="true"
     objecttolerance="10"
     inkscape:pageopacity="0"
     inkscape:cx="0.6249184"
     inkscape:cy="7.6423434"
     inkscape:snap-bbox="true"
     borderopacity="1"
     inkscape:object-nodes="false"
     inkscape:current-layer="layer9"
     inkscape:snap-to-guides="true"
     inkscape:snap-others="false"
     inkscape:snap-grids="true"
     bordercolor="#666666"
     inkscape:window-height="1023"
     inkscape:snap-bbox-midpoints="false"
     showborder="true"
     inkscape:bbox-paths="false"
     inkscape:guide-bbox="true"
     inkscape:window-x="0"
     inkscape:window-y="26"
     inkscape:snap-global="false"
     inkscape:snap-nodes="true"
     pagecolor="#ffffff"
     inkscape:object-paths="false"
     inkscape:pageshadow="2"
     inkscape:zoom="32"
     inkscape:window-maximized="1"
     gridtolerance="10"
     guidetolerance="10"
     showguides="false"
     borderlayer="true">
    <inkscape:grid
       id="grid4866"
       empspacing="2"
       type="xygrid"
       visible="true"
       snapvisiblegridlinesonly="true"
       enabled="true"
       spacingx="1"
       spacingy="1"
       originx="0"
       originy="0" />
  </sodipodi:namedview>
  <title
     id="title9167">Gnome Symbolic Icon Theme</title>
  <defs
     id="defs7386" />
  <g
     id="layer9"
     inkscape:groupmode="layer"
     style="display:inline"
     transform="translate(-60.99995,-296.9989)"
     inkscape:label="status">
    <path
       id="path35631"
       style="font-size:medium;font-style:normal;font-variant:normal;font-weight:normal;font-stretch:normal;text-indent:0;text-align:start;text-decoration:none;line-height:normal;letter-spacing:normal;word-spacing:normal;text-transform:none;direction:ltr;block-progression:tb;writing-mode:lr-tb;text-anchor:start;baseline-shift:baseline;opacity:1;color:#000000;fill:#9283be;fill-opacity:1;stroke:none;stroke-width:1;marker:none;visibility:visible;display:inline;overflow:visible;enable-background:accumulate;font-family:Sans;-inkscape-font-specification:Sans"
       d="m 68.891613,298.27369 a 0.85705485,0.85705485 0 0 0 -0.428485,0.21425 l -4.204505,3.42787 a 0.85705485,0.85705485 0 0 0 -0.05356,0.0267 c 0,0 -0.279261,0.25476 -0.562386,0.64273 -0.191396,0.26227 -0.302253,0.71265 -0.428485,1.12477 a 0.85705485,0.85705485 0 0 0 -0.02678,0.0267 0.85705485,0.85705485 0 0 0 -0.187462,0.48204 c -4.37e-4,0.0101 3.08e-4,0.0167 0,0.0267 a 0.85705485,0.85705485 0 0 0 0,0.0267 0.85705485,0.85705485 0 0 0 0,0.1339 l 0,6.72185 a 0.85705485,0.85705485 0 0 0 0.856969,0.85697 l 10.28363,0 a 0.85705485,0.85705485 0 0 0 0.856969,-0.85697 l 0,-6.72185 a 0.85705485,0.85705485 0 0 0 0,-0.1339 0.85705485,0.85705485 0 0 0 -0.187462,-0.56239 0.85705485,0.85705485 0 0 0 -0.02678,-0.0267 c -0.280863,-1.01796 -0.964091,-1.71393 -0.964091,-1.71393 a 0.85705485,0.85705485 0 0 0 -0.02674,-0.0267 l -4.258108,-3.45457 a 0.85705485,0.85705485 0 0 0 -0.562386,-0.21425 0.85705485,0.85705485 0 0 0 -0.0803,0 z m 0.107121,1.95497 3.695679,3.02617 0.02674,0.0267 c 0.018,0.0219 0.154529,0.21383 0.294583,0.42848 l -4.017,3.02617 -4.017043,-3.02617 c 0.0222,-0.0338 0.02991,-0.0747 0.05356,-0.10712 0.163509,-0.22406 0.27315,-0.35497 0.294583,-0.37492 l 0.02678,-0.0267 3.642119,-2.97261 z m -4.284846,4.36518 4.017043,3.02617 0.267803,0.18747 0.267803,-0.18747 4.017043,-3.02617 0,5.67742 -8.569692,0 0,-5.67742 z"
       inkscape:connector-curvature="0" />
  </g>
  <g
     id="layer10"
     inkscape:groupmode="layer"
     transform="translate(-60.99995,-296.9989)"
     inkscape:label="devices" />
  <g
     id="layer11"
     inkscape:groupmode="layer"
     transform="translate(-60.99995,-296.9989)"
     inkscape:label="apps" />
  <g
     id="layer13"
     inkscape:groupmode="layer"
     transform="translate(-60.99995,-296.9989)"
     inkscape:label="places" />
  <g
     id="layer14"
     inkscape:groupmode="layer"
     transform="translate(-60.99995,-296.9989)"
     inkscape:label="mimetypes" />
  <g
     id="layer15"
     inkscape:groupmode="layer"
     style="display:inline"
     transform="translate(-60.99995,-296.9989)"
     inkscape:label="emblems" />
  <g
     id="g71291"
     inkscape:groupmode="layer"
     style="display:inline"
     transform="translate(-60.99995,-296.9989)"
     inkscape:label="emotes" />
  <g
     id="g4953"
     inkscape:groupmode="layer"
     style="display:inline"
     transform="translate(-60.99995,-296.9989)"
     inkscape:label="categories" />
  <g
     id="layer12"
     inkscape:groupmode="layer"
     style="display:inline"
     transform="translate(-60.99995,-296.9989)"
     inkscape:label="actions" />
</svg>
