<?xml version="1.0" encoding="UTF-8" standalone="no"?>
<!-- Created with Inkscape (http://www.inkscape.org/) -->

<svg
   xmlns:dc="http://purl.org/dc/elements/1.1/"
   xmlns:cc="http://creativecommons.org/ns#"
   xmlns:rdf="http://www.w3.org/1999/02/22-rdf-syntax-ns#"
   xmlns:svg="http://www.w3.org/2000/svg"
   xmlns="http://www.w3.org/2000/svg"
   xmlns:xlink="http://www.w3.org/1999/xlink"
   xmlns:sodipodi="http://sodipodi.sourceforge.net/DTD/sodipodi-0.dtd"
   xmlns:inkscape="http://www.inkscape.org/namespaces/inkscape"
   id="svg7384"
   sodipodi:docname="nm-stage03-connecting10.svg"
   version="1.1"
   inkscape:version="0.92.1 r15371"
   height="16"
   width="16"
   inkscape:export-filename="/home/alumno/Documentos/huayra-icon-theme/huayra-limbo/scalable/status/panel/nm-connect/stage03/nm-stage03-connecting11.png"
   inkscape:export-xdpi="90"
   inkscape:export-ydpi="90">
  <metadata
     id="metadata90">
    <rdf:RDF>
      <cc:Work
         rdf:about="">
        <dc:format>image/svg+xml</dc:format>
        <dc:type
           rdf:resource="http://purl.org/dc/dcmitype/StillImage" />
        <dc:title>Gnome Symbolic Icon Theme</dc:title>
      </cc:Work>
    </rdf:RDF>
  </metadata>
  <sodipodi:namedview
     inkscape:cy="8.2800079"
     pagecolor="#555753"
     borderopacity="1"
     showborder="true"
     inkscape:bbox-paths="false"
     guidetolerance="10"
     inkscape:object-paths="true"
     inkscape:window-width="1918"
     showguides="true"
     inkscape:object-nodes="true"
     inkscape:snap-bbox="true"
     inkscape:pageshadow="2"
     inkscape:guide-bbox="true"
     inkscape:snap-nodes="false"
     bordercolor="#666666"
     objecttolerance="10"
     id="namedview88"
     showgrid="true"
     inkscape:window-maximized="1"
     inkscape:window-x="0"
     inkscape:snap-global="false"
     inkscape:window-y="26"
     gridtolerance="10"
     inkscape:window-height="1023"
     inkscape:snap-to-guides="true"
     inkscape:current-layer="g3282"
     inkscape:snap-bbox-midpoints="false"
     inkscape:zoom="32"
     inkscape:cx="0.0670799"
     inkscape:snap-grids="true"
     inkscape:pageopacity="0"
     borderlayer="true">
    <inkscape:grid
       spacingx="1"
       spacingy="1"
       id="grid4866"
       empspacing="2"
       enabled="true"
       type="xygrid"
       snapvisiblegridlinesonly="true"
       visible="true"
       originx="0"
       originy="0" />
  </sodipodi:namedview>
  <title
     id="title9167">Gnome Symbolic Icon Theme</title>
  <defs
     id="defs7386">
    <linearGradient
       inkscape:collect="always"
       id="linearGradient4467">
      <stop
         style="stop-color:#808080;stop-opacity:1;"
         offset="0"
         id="stop4469" />
      <stop
         style="stop-color:#808080;stop-opacity:0;"
         offset="1"
         id="stop4471" />
    </linearGradient>
    <radialGradient
       inkscape:collect="always"
       xlink:href="#linearGradient4467"
       id="radialGradient4473"
       cx="1.7449667"
       cy="3.5274408"
       fx="1.7449667"
       fy="3.5274408"
       r="2.1976941"
       gradientTransform="matrix(1,0,0,0.93049596,0,0.16487803)"
       gradientUnits="userSpaceOnUse" />
    <radialGradient
       inkscape:collect="always"
       xlink:href="#linearGradient4467"
       id="radialGradient4535"
       gradientUnits="userSpaceOnUse"
       gradientTransform="matrix(3.0234266,0,0,2.8132862,1.08581,1.26086)"
       cx="1.7449667"
       cy="3.5274408"
       fx="1.7449667"
       fy="3.5274408"
       r="2.1976941" />
    <radialGradient
       inkscape:collect="always"
       xlink:href="#linearGradient4467"
       id="radialGradient4553"
       gradientUnits="userSpaceOnUse"
       gradientTransform="matrix(3.0234266,0,0,2.8132862,1.08581,1.26086)"
       cx="1.7449667"
       cy="3.5274408"
       fx="1.7449667"
       fy="3.5274408"
       r="2.1976941" />
    <radialGradient
       inkscape:collect="always"
       xlink:href="#linearGradient4467"
       id="radialGradient4560"
       gradientUnits="userSpaceOnUse"
       gradientTransform="matrix(0.96179895,0.09725891,-0.09485007,0.93797777,5.0178598,7.7061853)"
       cx="1.7449667"
       cy="3.5274408"
       fx="1.7449667"
       fy="3.5274408"
       r="2.1976941" />
    <radialGradient
       inkscape:collect="always"
       xlink:href="#linearGradient4467"
       id="radialGradient4568"
       gradientUnits="userSpaceOnUse"
       gradientTransform="matrix(6.5492238,-0.27482946,0.20503611,4.8860387,-5.7898415,-5.5710837)"
       cx="1.7449667"
       cy="3.5274408"
       fx="1.7449667"
       fy="3.5274408"
       r="2.1976941" />
    <radialGradient
       inkscape:collect="always"
       xlink:href="#linearGradient4467"
       id="radialGradient4574"
       gradientUnits="userSpaceOnUse"
       gradientTransform="matrix(1.6060873,-0.18178462,0.1796269,1.5870237,2.9253968,5.9036359)"
       cx="1.7449667"
       cy="3.5274408"
       fx="1.7449667"
       fy="3.5274408"
       r="2.1976941" />
  </defs>
  <g
     inkscape:label="01"
     transform="translate(-341.0002,-177)"
     inkscape:groupmode="layer"
     id="layer9"
     style="display:none">
    <g
       id="g2994"
       transform="matrix(3.0234266,0,0,3.0234266,342.08601,177.76236)"
       style="fill:#808080;fill-rule:evenodd">
      <path
         sodipodi:nodetypes="ccccc"
         style="fill:#808080;fill-opacity:1"
         inkscape:connector-curvature="0"
         d="M 0.67062907,3.1466295 0.96315753,3.436604 C 1.4643536,2.1285285 2.9137173,3.0231678 2.3709066,3.891 L 2.767349,4.0396257 C 3.5316128,2.8534265 1.7399119,1.2088624 0.67062907,3.1466295 z"
         class="fil0"
         id="_121731384" />
      <path
         sodipodi:nodetypes="zsccz"
         style="fill:#808080;fill-opacity:1"
         inkscape:connector-curvature="0"
         d="M 0.1777958,2.5586559 C -0.01275712,2.3374532 0.11748395,2.4022267 0.31580842,2.5444209 0.51413288,2.686615 0.81410198,2.8425452 1.1021572,3.1460838 L 0.96046525,3.4267024 C 0.50016423,3.0157207 0.36834871,2.7798588 0.1777958,2.5586559 z"
         class="fil0"
         id="_121328256" />
      <path
         sodipodi:open="true"
         sodipodi:end="12.46847"
         sodipodi:start="6.2071318"
         transform="matrix(0.13834256,0,0,0.13834256,0.19919495,1.7915877)"
         d="m 13.844562,12.550547 a 2.6694496,2.6694496 0 0 1 -2.444373,2.863411 2.6694496,2.6694496 0 0 1 -2.8767188,-2.428698 2.6694496,2.6694496 0 0 1 2.4129488,-2.88994 2.6694496,2.6694496 0 0 1 2.903077,2.397129"
         sodipodi:ry="2.6694496"
         sodipodi:rx="2.6694496"
         sodipodi:cy="12.753372"
         sodipodi:cx="11.182829"
         id="path3582"
         style="fill:#808080;fill-opacity:1;stroke:none"
         sodipodi:type="arc" />
      <path
         sodipodi:nodetypes="zsccz"
         style="fill:#808080;fill-opacity:1;fill-rule:evenodd"
         inkscape:connector-curvature="0"
         d="M 0.4247675,1.3417552 C 0.30865975,1.051719 0.40976238,1.1514637 0.55275704,1.3529974 0.69575091,1.5545312 1.0526419,2.1606454 1.2359221,2.5639276 L 0.96710859,2.750389 C 0.74796061,2.1419236 0.54087506,1.6317917 0.4247675,1.3417552 z"
         class="fil0"
         id="_121328256-7" />
      <path
         sodipodi:nodetypes="zsccz"
         style="fill:#808080;fill-opacity:1;fill-rule:evenodd"
         inkscape:connector-curvature="0"
         d="M 1.44312,0.58246558 C 1.43361,0.2701971 1.521214,0.39282353 1.5594765,0.63695278 1.6013875,0.90435635 1.7053444,1.7413136 1.7506921,2.2817189 l -0.3164814,0.082874 c 0.003,-0.6467199 0.018418,-1.46985881 0.00891,-1.78212772 z"
         class="fil0"
         id="_121328256-7-9" />
      <path
         sodipodi:nodetypes="zsccz"
         style="fill:#808080;fill-opacity:1;fill-rule:evenodd"
         inkscape:connector-curvature="0"
         d="M 2.4423509,0.52194906 C 2.5291241,0.19808085 2.5810366,0.32015476 2.5788735,0.5833539 2.5767086,0.84655178 2.4931372,1.8976838 2.1801821,2.4013588 L 1.8869765,2.2775017 c 0.307833,-0.6143974 0.4686,-1.43168421 0.5553744,-1.75555264 z"
         class="fil0"
         id="_121328256-7-4" />
      <path
         sodipodi:nodetypes="zsccz"
         style="fill:#808080;fill-opacity:1;fill-rule:evenodd"
         inkscape:connector-curvature="0"
         d="M 3.6839051,1.1452392 C 3.9311577,0.7718015 3.8949861,1.029192 3.7754429,1.2636867 3.5368401,1.7317274 2.9264141,2.4275569 2.4666837,2.7714357 L 2.2400615,2.4692892 C 2.8122122,2.0577751 3.4366526,1.5186768 3.6839051,1.1452392 z"
         class="fil0"
         id="_121328256-7-4-9" />
      <path
         sodipodi:nodetypes="zsccz"
         style="fill:#808080;fill-opacity:1;fill-rule:evenodd"
         inkscape:connector-curvature="0"
         d="m 4.2265513,3.0597007 c 0.4091243,-0.09358 0.2522344,0.074602 0.024419,0.1707759 C 4.0062521,3.3337885 3.127026,3.6011424 2.5719027,3.6165508 l 0.00603,-0.3830989 c 0.653125,-5.32e-4 1.239497,-0.080171 1.6486213,-0.1737512 z"
         class="fil0"
         id="_121328256-7-4-9-1" />
      <path
         sodipodi:nodetypes="zsccz"
         style="fill:#808080;fill-opacity:1;fill-rule:evenodd"
         inkscape:connector-curvature="0"
         d="M 3.9700033,4.2976494 C 4.2626923,4.4304234 4.1316091,4.4287597 3.9491295,4.4043056 3.7042093,4.3714838 3.1539385,4.1823832 2.7531868,4.0349335 L 2.8590012,3.7253663 c 0.5571017,0.2920484 0.8183128,0.4395089 1.1110017,0.572283 z"
         class="fil0"
         id="_121328256-9" />
      <path
         inkscape:transform-center-x="-0.069049672"
         inkscape:transform-center-y="0.95298244"
         sodipodi:nodetypes="zsccz"
         style="fill:#808080;fill-opacity:1;fill-rule:evenodd"
         inkscape:connector-curvature="0"
         d="M 4.1962848,2.076334 C 4.5907234,1.8600715 4.4775437,2.0697011 4.2705883,2.2323244 4.0482794,2.4070154 3.2196806,2.935215 2.6523716,3.1218067 L 2.5483179,2.7530525 C 3.2208399,2.5503733 3.801846,2.2925963 4.1962848,2.076334 z"
         class="fil0"
         id="_121328256-7-4-9-1-7" />
    </g>
  </g>
  <g
     style="display:none"
     id="g3351"
     inkscape:groupmode="layer"
     transform="translate(-341.0002,-177)"
     inkscape:label="02">
    <path
       sodipodi:nodetypes="ccccc"
       style="fill:#808080;fill-opacity:1;fill-rule:evenodd"
       inkscape:connector-curvature="0"
       d="m 344.05206,187.49002 0.93995,0.81692 c 1.2531,-4.04562 5.80286,-1.6335 4.33705,1.09217 l 1.22211,0.55737 c 2.07089,-3.73 -3.6568,-8.52428 -6.49911,-2.46646 z"
       class="fil0"
       id="path3355" />
    <path
       sodipodi:nodetypes="zsccz"
       style="fill:#808080;fill-opacity:1;fill-rule:evenodd"
       inkscape:connector-curvature="0"
       d="m 342.57027,185.69111 c -0.15941,-0.81186 0.279,-0.50634 0.60411,0.0348 0.37994,0.63246 1.02943,1.06537 2.17946,1.67697 l -0.37191,0.87466 c -1.83444,-0.78094 -2.25226,-1.77464 -2.41166,-2.58649 z"
       class="fil0"
       id="path3357" />
    <path
       sodipodi:open="true"
       sodipodi:end="12.46847"
       sodipodi:start="6.2071318"
       transform="matrix(0.41737081,-0.02738996,0.02738996,0.41737081,342.3615,183.49529)"
       d="m 13.844562,12.550547 a 2.6694496,2.6694496 0 0 1 -2.444373,2.863411 2.6694496,2.6694496 0 0 1 -2.8767188,-2.428698 2.6694496,2.6694496 0 0 1 2.4129488,-2.88994 2.6694496,2.6694496 0 0 1 2.903077,2.397129"
       sodipodi:ry="2.6694496"
       sodipodi:rx="2.6694496"
       sodipodi:cy="12.753372"
       sodipodi:cx="11.182829"
       id="path3359"
       style="fill:#808080;fill-opacity:1;fill-rule:evenodd;stroke:none"
       sodipodi:type="arc" />
    <path
       sodipodi:nodetypes="zsccz"
       style="fill:#808080;fill-opacity:1;fill-rule:evenodd"
       inkscape:connector-curvature="0"
       d="m 350.50962,179.81384 c 1.17055,-0.4447 0.90138,-0.13197 0.42403,0.15822 -1.57487,0.95745 -1.86638,3.26685 -2.32024,4.94856 l -0.90909,-0.31562 c 0.22786,-2.14188 1.63473,-4.34646 2.8053,-4.79116 z"
       class="fil0"
       id="path3365" />
    <path
       sodipodi:nodetypes="scczs"
       style="fill:#808080;fill-opacity:1;fill-rule:evenodd"
       inkscape:connector-curvature="0"
       d="m 353.0381,191.22724 c -0.52388,-0.68116 -1.38138,-0.59356 -2.49931,-1.32573 l 0.2295,-1.11168 c 1.73857,0.77078 2.18418,1.59728 2.67315,2.38402 0.48896,0.78673 0.0133,0.59524 -0.40334,0.0534 z"
       class="fil0"
       id="path3371" />
    <path
       sodipodi:nodetypes="zsccz"
       style="fill:#808080;fill-opacity:1;fill-rule:evenodd;display:inline"
       inkscape:connector-curvature="0"
       d="m 353.74623,182.26946 c 1.88257,0.17197 0.65878,0.42294 0.10033,0.4371 -1.80178,0.0457 -2.93047,1.40933 -4.06549,3.05171 l -0.73166,-0.67291 c 0.92718,-1.70125 2.81425,-2.98787 4.69682,-2.8159 z"
       class="fil0"
       id="path3365-8"
       inkscape:transform-center-x="-2.4586795"
       inkscape:transform-center-y="-1.3561585" />
    <path
       sodipodi:nodetypes="zsccz"
       style="fill:#808080;fill-opacity:1;fill-rule:evenodd;display:inline"
       inkscape:connector-curvature="0"
       d="m 355.10493,185.31865 c 1.11216,0.33381 -0.13501,0.49266 -0.75622,0.39987 -1.16816,-0.17451 -2.51809,0.67643 -4.07528,1.06652 l -0.24518,-0.93057 c 2.29158,-1.16276 3.96452,-0.86963 5.07668,-0.53582 z"
       class="fil0"
       id="path3365-8-4"
       inkscape:transform-center-x="-2.4466056"
       inkscape:transform-center-y="-0.44704238" />
    <path
       sodipodi:nodetypes="zsccz"
       style="fill:#808080;fill-opacity:1;fill-rule:evenodd;display:inline"
       inkscape:connector-curvature="0"
       d="m 354.82488,188.24136 c 1.12673,0.82784 0.58023,0.71775 0.0127,0.45282 -1.73494,-0.80992 -3.00234,-0.18023 -4.72385,-0.30621 l -0.0484,-0.96111 c 2.00576,-0.0444 3.63279,-0.0133 4.75951,0.81452 z"
       class="fil0"
       id="path3365-8-4-3"
       inkscape:transform-center-x="-1.8454706"
       inkscape:transform-center-y="0.083618434" />
    <path
       sodipodi:nodetypes="cscczc"
       style="fill:#808080;fill-opacity:1;fill-rule:evenodd;display:inline"
       inkscape:connector-curvature="0"
       d="m 347.16032,179.8577 c 0.5944,-0.6591 0.77914,-0.46735 0.4526,1.2e-4 -0.9958,1.42563 -0.62406,3.59479 -0.48922,5.08035 l -0.96208,0.022 c -0.44457,-1.91609 -0.10279,-3.70494 0.99866,-5.10276 1.10144,-1.39783 4e-5,2.7e-4 4e-5,2.7e-4 z"
       class="fil0"
       id="path3365-1"
       inkscape:transform-center-x="-0.1262779"
       inkscape:transform-center-y="-2.6128963" />
    <path
       sodipodi:nodetypes="cscczc"
       style="fill:#808080;fill-opacity:1;fill-rule:evenodd;display:inline"
       inkscape:connector-curvature="0"
       d="m 344.10293,181.41224 c 0.33308,-0.7714 0.53018,-0.67475 0.4239,-0.14808 -0.41832,2.0731 0.63445,3.34881 1.26441,4.60392 l -0.89332,0.3348 c -1.06586,-1.5301 -1.35308,-2.90769 -0.79495,-4.79059 0.55811,-1.88291 -4e-5,-5e-5 -4e-5,-5e-5 z"
       class="fil0"
       id="path3365-1-1"
       inkscape:transform-center-x="0.43905132"
       inkscape:transform-center-y="-2.3275556" />
  </g>
  <g
     inkscape:label="03"
     transform="translate(-341.0002,-177)"
     inkscape:groupmode="layer"
     id="g3199"
     style="display:none">
    <g
       id="g3243"
       inkscape:transform-center-x="-1.5283153"
       inkscape:transform-center-y="-3.2518526"
       transform="matrix(0.99260232,-0.12141103,0.12141103,0.99260232,-20.308417,43.563509)">
      <path
         sodipodi:nodetypes="ccccc"
         style="fill:#808080;fill-opacity:1;fill-rule:evenodd"
         inkscape:connector-curvature="0"
         d="m 344.00189,187.67845 0.98445,0.76271 c 1.02336,-4.10975 5.7017,-1.95759 4.39166,0.84628 l 1.25155,0.48768 c 1.85762,-3.84067 -4.13089,-8.3049 -6.62766,-2.09667 z"
         class="fil0"
         id="path3201" />
      <path
         inkscape:transform-center-y="-0.50117477"
         inkscape:transform-center-x="0.15092213"
         sodipodi:nodetypes="scccs"
         style="fill:#808080;fill-opacity:1;fill-rule:evenodd"
         inkscape:connector-curvature="0"
         d="m 343.33594,185.73202 c 0.34333,0.65305 0.82651,1.24722 1.93986,1.92329 l -0.31171,0.78957 c -1.78702,-0.88408 -2.03823,-2.00933 -2.15117,-2.82889 -0.11295,-0.81957 0.22924,-0.44271 0.52302,0.11603 z"
         class="fil0"
         id="path3203" />
      <path
         sodipodi:open="true"
         sodipodi:end="12.46847"
         sodipodi:start="6.2071318"
         transform="matrix(0.41516695,-0.05084299,0.05084299,0.41516695,342.08913,183.78523)"
         d="m 13.844562,12.550547 a 2.6694496,2.6694496 0 0 1 -2.444373,2.863411 2.6694496,2.6694496 0 0 1 -2.8767188,-2.428698 2.6694496,2.6694496 0 0 1 2.4129488,-2.88994 2.6694496,2.6694496 0 0 1 2.903077,2.397129"
         sodipodi:ry="2.6694496"
         sodipodi:rx="2.6694496"
         sodipodi:cy="12.753372"
         sodipodi:cx="11.182829"
         id="path3205"
         style="fill:#808080;fill-opacity:1;fill-rule:evenodd;stroke:none"
         sodipodi:type="arc" />
      <path
         inkscape:transform-center-y="-2.3372118"
         inkscape:transform-center-x="-1.3844641"
         sodipodi:nodetypes="zsccz"
         style="fill:#808080;fill-opacity:1;fill-rule:evenodd"
         inkscape:connector-curvature="0"
         d="m 350.65427,180.0505 c 1.17521,-0.43225 0.90273,-0.1224 0.42233,0.1627 -1.58496,0.94067 -2.21348,2.99684 -2.68518,4.67364 l -0.90569,-0.32526 c 0.2506,-2.13934 1.99331,-4.07885 3.16854,-4.51108 z"
         class="fil0"
         id="path3207" />
      <path
         inkscape:transform-center-y="0.89918079"
         inkscape:transform-center-x="-1.2300237"
         sodipodi:nodetypes="scczs"
         style="fill:#808080;fill-opacity:1;fill-rule:evenodd"
         inkscape:connector-curvature="0"
         d="m 352.94636,191.22236 c -0.47865,-0.71366 -1.34003,-0.68181 -2.40817,-1.48487 l 0.30104,-1.09448 c 1.68498,0.8818 2.07611,1.73545 2.51307,2.55221 0.43697,0.81676 -0.0253,0.59485 -0.40594,0.0271 z"
         class="fil0"
         id="path3209" />
      <path
         sodipodi:nodetypes="zsccz"
         style="fill:#808080;fill-opacity:1;fill-rule:evenodd;display:inline"
         inkscape:connector-curvature="0"
         d="m 353.8691,182.41497 c 1.88367,0.15947 0.66157,0.41856 0.10322,0.43642 -1.80143,0.0576 -3.24919,1.14748 -4.3733,2.79734 l -0.73611,-0.66804 c 0.91589,-1.70736 3.12251,-2.72521 5.00619,-2.56572 z"
         class="fil0"
         id="path3211"
         inkscape:transform-center-x="-2.5344487"
         inkscape:transform-center-y="-1.2441137" />
      <path
         sodipodi:nodetypes="zsccz"
         style="fill:#808080;fill-opacity:1;fill-rule:evenodd;display:inline"
         inkscape:connector-curvature="0"
         d="m 355.0605,185.63617 c 0.79099,0.48644 -0.13085,0.36622 -0.7347,0.19339 -1.2572,-0.35984 -2.62792,0.44156 -4.19435,0.7927 l -0.22191,-0.93639 c 2.31987,-1.10527 4.35997,-0.53614 5.15096,-0.0497 z"
         class="fil0"
         id="path3213"
         inkscape:transform-center-x="-2.4949878"
         inkscape:transform-center-y="-0.32688186" />
      <path
         sodipodi:nodetypes="scczs"
         style="fill:#808080;fill-opacity:1;fill-rule:evenodd;display:inline"
         inkscape:connector-curvature="0"
         d="m 354.57032,188.84133 c -1.46314,-1.235 -2.80236,-0.48381 -4.51559,-0.69428 l -0.001,-0.96233 c 2.00552,0.0542 3.70461,0.0847 4.68265,1.23498 0.97805,1.15024 0.31005,0.82351 -0.16606,0.42163 z"
         class="fil0"
         id="path3215"
         inkscape:transform-center-x="-1.8232663"
         inkscape:transform-center-y="0.32302818" />
      <path
         sodipodi:nodetypes="scccs"
         style="fill:#808080;fill-opacity:1;fill-rule:evenodd;display:inline"
         inkscape:connector-curvature="0"
         d="m 347.64556,179.95176 c -0.98945,1.43005 -0.8737,3.55065 -0.73225,5.03559 l -0.96196,0.0263 c -0.4531,-1.91409 0.14635,-3.65756 0.98971,-4.6896 0.84336,-1.03203 1.02896,-0.8411 0.7045,-0.37229 z"
         class="fil0"
         id="path3217"
         inkscape:transform-center-x="-0.30067479"
         inkscape:transform-center-y="-2.5989563" />
      <path
         sodipodi:nodetypes="scccs"
         style="fill:#808080;fill-opacity:1;fill-rule:evenodd;display:inline"
         inkscape:connector-curvature="0"
         d="m 344.60615,181.31039 c -0.43033,2.07065 0.4119,3.43057 1.03458,4.68931 l -0.89525,0.32961 c -1.05697,-1.53625 -1.13308,-2.9936 -0.67981,-4.31817 0.45327,-1.32457 0.64981,-1.22678 0.54048,-0.70075 z"
         class="fil0"
         id="path3219"
         inkscape:transform-center-x="0.35888323"
         inkscape:transform-center-y="-2.3653662" />
    </g>
  </g>
  <g
     style="display:none"
     id="g3255"
     inkscape:groupmode="layer"
     transform="translate(-341.0002,-177)"
     inkscape:label="04">
    <g
       transform="matrix(0.9426523,-0.33377634,0.33377634,0.9426523,-42.982749,126.73707)"
       inkscape:transform-center-y="-4.1826554"
       inkscape:transform-center-x="-1.1758678"
       id="g3257">
      <path
         id="path3259"
         class="fil0"
         d="m 344.00189,187.67845 0.98445,0.76271 c 1.02336,-4.10975 5.7017,-1.95759 4.39166,0.84628 l 1.25155,0.48768 c 1.85762,-3.84067 -4.13089,-8.3049 -6.62766,-2.09667 z"
         inkscape:connector-curvature="0"
         style="fill:#808080;fill-opacity:1;fill-rule:evenodd"
         sodipodi:nodetypes="ccccc" />
      <path
         id="path3261"
         class="fil0"
         d="m 343.33594,185.73202 c 0.34333,0.65305 0.82651,1.24722 1.93986,1.92329 l -0.31171,0.78957 c -1.78702,-0.88408 -2.03823,-2.00933 -2.15117,-2.82889 -0.11295,-0.81957 0.22924,-0.44271 0.52302,0.11603 z"
         inkscape:connector-curvature="0"
         style="fill:#808080;fill-opacity:1;fill-rule:evenodd"
         sodipodi:nodetypes="scccs"
         inkscape:transform-center-x="0.15092213"
         inkscape:transform-center-y="-0.50117477" />
      <path
         sodipodi:type="arc"
         style="fill:#808080;fill-opacity:1;fill-rule:evenodd;stroke:none"
         id="path3263"
         sodipodi:cx="11.182829"
         sodipodi:cy="12.753372"
         sodipodi:rx="2.6694496"
         sodipodi:ry="2.6694496"
         d="m 13.844562,12.550547 a 2.6694496,2.6694496 0 0 1 -2.444373,2.863411 2.6694496,2.6694496 0 0 1 -2.8767188,-2.428698 2.6694496,2.6694496 0 0 1 2.4129488,-2.88994 2.6694496,2.6694496 0 0 1 2.903077,2.397129"
         transform="matrix(0.41516695,-0.05084299,0.05084299,0.41516695,342.08913,183.78523)"
         sodipodi:start="6.2071318"
         sodipodi:end="12.46847"
         sodipodi:open="true" />
      <path
         id="path3265"
         class="fil0"
         d="m 350.65427,180.0505 c 1.17521,-0.43225 0.90273,-0.1224 0.42233,0.1627 -1.58496,0.94067 -2.21348,2.99684 -2.68518,4.67364 l -0.90569,-0.32526 c 0.2506,-2.13934 1.99331,-4.07885 3.16854,-4.51108 z"
         inkscape:connector-curvature="0"
         style="fill:#808080;fill-opacity:1;fill-rule:evenodd"
         sodipodi:nodetypes="zsccz"
         inkscape:transform-center-x="-1.3844641"
         inkscape:transform-center-y="-2.3372118" />
      <path
         id="path3267"
         class="fil0"
         d="m 352.94636,191.22236 c -0.47865,-0.71366 -1.34003,-0.68181 -2.40817,-1.48487 l 0.30104,-1.09448 c 1.68498,0.8818 2.07611,1.73545 2.51307,2.55221 0.43697,0.81676 -0.0253,0.59485 -0.40594,0.0271 z"
         inkscape:connector-curvature="0"
         style="fill:#808080;fill-opacity:1;fill-rule:evenodd"
         sodipodi:nodetypes="scczs"
         inkscape:transform-center-x="-1.2300237"
         inkscape:transform-center-y="0.89918079" />
      <path
         inkscape:transform-center-y="-1.2441137"
         inkscape:transform-center-x="-2.5344487"
         id="path3269"
         class="fil0"
         d="m 353.8691,182.41497 c 1.88367,0.15947 0.66157,0.41856 0.10322,0.43642 -1.80143,0.0576 -3.24919,1.14748 -4.3733,2.79734 l -0.73611,-0.66804 c 0.91589,-1.70736 3.12251,-2.72521 5.00619,-2.56572 z"
         inkscape:connector-curvature="0"
         style="fill:#808080;fill-opacity:1;fill-rule:evenodd;display:inline"
         sodipodi:nodetypes="zsccz" />
      <path
         inkscape:transform-center-y="-0.32688186"
         inkscape:transform-center-x="-2.4949878"
         id="path3271"
         class="fil0"
         d="m 355.0605,185.63617 c 0.79099,0.48644 -0.13085,0.36622 -0.7347,0.19339 -1.2572,-0.35984 -2.62792,0.44156 -4.19435,0.7927 l -0.22191,-0.93639 c 2.31987,-1.10527 4.35997,-0.53614 5.15096,-0.0497 z"
         inkscape:connector-curvature="0"
         style="fill:#808080;fill-opacity:1;fill-rule:evenodd;display:inline"
         sodipodi:nodetypes="zsccz" />
      <path
         inkscape:transform-center-y="0.32302818"
         inkscape:transform-center-x="-1.8232663"
         id="path3273"
         class="fil0"
         d="m 354.57032,188.84133 c -1.46314,-1.235 -2.80236,-0.48381 -4.51559,-0.69428 l -0.001,-0.96233 c 2.00552,0.0542 3.70461,0.0847 4.68265,1.23498 0.97805,1.15024 0.31005,0.82351 -0.16606,0.42163 z"
         inkscape:connector-curvature="0"
         style="fill:#808080;fill-opacity:1;fill-rule:evenodd;display:inline"
         sodipodi:nodetypes="scczs" />
      <path
         inkscape:transform-center-y="-2.5989563"
         inkscape:transform-center-x="-0.30067479"
         id="path3275"
         class="fil0"
         d="m 347.64556,179.95176 c -0.98945,1.43005 -0.8737,3.55065 -0.73225,5.03559 l -0.96196,0.0263 c -0.4531,-1.91409 0.14635,-3.65756 0.98971,-4.6896 0.84336,-1.03203 1.02896,-0.8411 0.7045,-0.37229 z"
         inkscape:connector-curvature="0"
         style="fill:#808080;fill-opacity:1;fill-rule:evenodd;display:inline"
         sodipodi:nodetypes="scccs" />
      <path
         inkscape:transform-center-y="-2.3653662"
         inkscape:transform-center-x="0.35888323"
         id="path3277"
         class="fil0"
         d="m 344.60615,181.31039 c -0.43033,2.07065 0.4119,3.43057 1.03458,4.68931 l -0.89525,0.32961 c -1.05697,-1.53625 -1.13308,-2.9936 -0.67981,-4.31817 0.45327,-1.32457 0.64981,-1.22678 0.54048,-0.70075 z"
         inkscape:connector-curvature="0"
         style="fill:#808080;fill-opacity:1;fill-rule:evenodd;display:inline"
         sodipodi:nodetypes="scccs" />
    </g>
  </g>
  <g
     inkscape:label="05"
     transform="translate(-341.0002,-177)"
     inkscape:groupmode="layer"
     id="g3279"
     style="display:none">
    <path
       id="path3283"
       class="fil0"
       d="m 343.95864,189.01402 1.20176,0.32655 c -0.63205,-4.18782 4.51399,-3.99568 4.3802,-0.90376 l 1.34287,-0.0299 c 0.2416,-4.25948 -7.00154,-6.08392 -6.92483,0.60713 z"
       inkscape:connector-curvature="0"
       style="fill:#808080;fill-opacity:1;fill-rule:evenodd"
       sodipodi:nodetypes="ccccc" />
    <path
       id="path3285"
       class="fil0"
       d="m 342.35282,187.79715 c 0.63002,0.38397 1.34977,0.64559 2.65229,0.6538 l 0.13807,0.83757 c -1.98737,0.15934 -2.78088,-0.6771 -3.29875,-1.32227 -0.51787,-0.64518 -0.0307,-0.4976 0.50835,-0.16913 z"
       inkscape:connector-curvature="0"
       style="fill:#808080;fill-opacity:1;fill-rule:evenodd"
       sodipodi:nodetypes="scccs"
       inkscape:transform-center-x="0.41568961"
       inkscape:transform-center-y="-0.31448563" />
    <path
       sodipodi:type="arc"
       style="fill:#808080;fill-opacity:1;fill-rule:evenodd;stroke:none"
       id="path3287"
       sodipodi:cx="11.182829"
       sodipodi:cy="12.753372"
       sodipodi:rx="2.6694496"
       sodipodi:ry="2.6694496"
       d="m 13.844562,12.550547 a 2.6694496,2.6694496 0 0 1 -2.444373,2.863411 2.6694496,2.6694496 0 0 1 -2.8767188,-2.428698 2.6694496,2.6694496 0 0 1 2.4129488,-2.88994 2.6694496,2.6694496 0 0 1 2.903077,2.397129"
       transform="matrix(0.36387229,-0.20626576,0.20626576,0.36387229,340.69834,186.15285)"
       sodipodi:start="6.2071318"
       sodipodi:end="12.46847"
       sodipodi:open="true" />
    <path
       id="path3289"
       class="fil0"
       d="m 346.6037,179.37262 c 0.8215,-0.94502 0.73203,-0.54222 0.44846,-0.0609 -0.93558,1.58797 -0.49558,3.69255 -0.10096,5.38915 l -0.95035,0.1514 c -0.81123,-1.99536 -0.2187,-4.53459 0.60285,-5.47961 z"
       inkscape:connector-curvature="0"
       style="fill:#808080;fill-opacity:1;fill-rule:evenodd"
       sodipodi:nodetypes="zsccz"
       inkscape:transform-center-x="0.045687631"
       inkscape:transform-center-y="-2.8054882" />
    <path
       id="path3291"
       class="fil0"
       d="m 353.69698,188.40638 c -0.77859,-0.36359 -1.49956,0.10884 -2.82902,-0.0267 l -0.30792,-1.09256 c 1.89824,-0.11589 2.67426,0.41278 3.47045,0.88619 0.7962,0.47341 0.28575,0.52233 -0.33352,0.233 z"
       inkscape:connector-curvature="0"
       style="fill:#808080;fill-opacity:1;fill-rule:evenodd"
       sodipodi:nodetypes="scczs"
       inkscape:transform-center-x="-1.8565319"
       inkscape:transform-center-y="0.091777789" />
    <path
       inkscape:transform-center-y="-2.246065"
       inkscape:transform-center-x="-1.6514417"
       id="path3293"
       class="fil0"
       d="m 350.61086,180.06888 c 1.7339,-0.75316 0.78095,0.0546 0.29789,0.33523 -1.55853,0.90523 -2.31605,2.55146 -2.52301,4.53711 l -0.9649,-0.23891 c -0.004,-1.93751 1.4561,-3.88029 3.19002,-4.63343 z"
       inkscape:connector-curvature="0"
       style="fill:#808080;fill-opacity:1;fill-rule:evenodd;display:inline"
       sodipodi:nodetypes="zsccz" />
    <path
       inkscape:transform-center-y="-0.99028249"
       inkscape:transform-center-x="-2.0216331"
       id="path3295"
       class="fil0"
       d="m 353.1927,182.54236 c 0.92591,0.0705 0.0513,0.3855 -0.56475,0.50818 -1.2825,0.2554 -2.1345,1.59525 -3.36659,2.62431 l -0.62583,-0.73102 c 1.55687,-2.0444 3.63126,-2.47199 4.55717,-2.40147 z"
       inkscape:connector-curvature="0"
       style="fill:#808080;fill-opacity:1;fill-rule:evenodd;display:inline"
       sodipodi:nodetypes="zsccz" />
    <path
       inkscape:transform-center-y="-0.34132939"
       inkscape:transform-center-x="-1.7789514"
       id="path3297"
       class="fil0"
       d="m 354.08735,185.55693 c -1.8828,-0.34792 -2.67396,0.96808 -4.26643,1.63402 l -0.47763,-0.83544 c 1.76895,-0.9465 3.25999,-1.76176 4.67944,-1.2471 1.41943,0.51462 0.6773,0.56174 0.0642,0.44858 z"
       inkscape:connector-curvature="0"
       style="fill:#808080;fill-opacity:1;fill-rule:evenodd;display:inline"
       sodipodi:nodetypes="scczs" />
    <path
       inkscape:transform-center-y="-2.4436257"
       inkscape:transform-center-x="0.57264809"
       id="path3299"
       class="fil0"
       d="m 343.88282,180.5706 c -0.19947,1.7275 0.90123,3.54376 1.72528,4.78715 l -0.83625,0.47619 c -1.30106,-1.47522 -1.59323,-3.29558 -1.33522,-4.60317 0.25802,-1.30757 0.51167,-1.22653 0.44619,-0.66017 z"
       inkscape:connector-curvature="0"
       style="fill:#808080;fill-opacity:1;fill-rule:evenodd;display:inline"
       sodipodi:nodetypes="scccs" />
    <path
       inkscape:transform-center-y="-1.7268917"
       inkscape:transform-center-x="1.0246016"
       id="path3301"
       class="fil0"
       d="m 341.73711,183.09985 c 0.57608,2.03491 1.95176,2.85115 3.08598,3.67921 l -0.64131,0.70628 c -1.64763,-0.87327 -2.3891,-2.1302 -2.59979,-3.51423 -0.21068,-1.38404 0.009,-1.38823 0.15512,-0.87126 z"
       inkscape:connector-curvature="0"
       style="fill:#808080;fill-opacity:1;fill-rule:evenodd;display:inline"
       sodipodi:nodetypes="scccs" />
  </g>
  <g
     style="display:none"
     id="g3313"
     inkscape:groupmode="layer"
     transform="translate(-341.0002,-177)"
     inkscape:label="06">
    <path
       sodipodi:nodetypes="ccccc"
       style="fill:#808080;fill-opacity:1;fill-rule:evenodd"
       inkscape:connector-curvature="0"
       d="m 343.96493,189.04893 1.20506,0.31417 c -0.67512,-4.1811 4.47262,-4.04193 4.37066,-0.9488 l 1.34249,-0.0437 c 0.19775,-4.26174 -7.06379,-6.01153 -6.91821,0.67837 z"
       class="fil0"
       id="path3315" />
    <path
       inkscape:transform-center-y="-0.18723561"
       inkscape:transform-center-x="0.46032542"
       sodipodi:nodetypes="cczcc"
       style="fill:#808080;fill-opacity:1;fill-rule:evenodd"
       inkscape:connector-curvature="0"
       d="m 344.90642,188.24213 0.24807,0.93727 c -1.84064,0.16017 -2.30529,-0.0708 -3.07593,-0.40339 -0.77065,-0.33262 -0.57666,-0.65547 0.0699,-0.43067 0.64659,0.2248 1.48304,0.16375 2.75794,-0.10321 z"
       class="fil0"
       id="path3317" />
    <path
       sodipodi:open="true"
       sodipodi:end="12.46847"
       sodipodi:start="6.2071318"
       transform="matrix(0.36172997,-0.2100001,0.2100001,0.36172997,340.67535,186.22147)"
       d="m 13.844562,12.550547 a 2.6694496,2.6694496 0 0 1 -2.444373,2.863411 2.6694496,2.6694496 0 0 1 -2.8767188,-2.428698 2.6694496,2.6694496 0 0 1 2.4129488,-2.88994 2.6694496,2.6694496 0 0 1 2.903077,2.397129"
       sodipodi:ry="2.6694496"
       sodipodi:rx="2.6694496"
       sodipodi:cy="12.753372"
       sodipodi:cx="11.182829"
       id="path3319"
       style="fill:#808080;fill-opacity:1;fill-rule:evenodd;stroke:none"
       sodipodi:type="arc" />
    <path
       inkscape:transform-center-y="-2.7837253"
       inkscape:transform-center-x="0.31166811"
       sodipodi:nodetypes="scczs"
       style="fill:#808080;fill-opacity:1;fill-rule:evenodd"
       inkscape:connector-curvature="0"
       d="m 345.55352,179.63901 c -10e-4,1.84307 0.78376,3.36382 1.36171,5.00703 l -0.92807,0.25451 c -1.02476,-1.89457 -1.20933,-4.2021 -0.85355,-5.37204 0.3558,-1.16996 0.4204,-0.57425 0.41991,0.1105 z"
       class="fil0"
       id="path3321" />
    <path
       inkscape:transform-center-y="-0.14792891"
       inkscape:transform-center-x="-1.8241595"
       sodipodi:nodetypes="cczzc"
       style="fill:#808080;fill-opacity:1;fill-rule:evenodd"
       inkscape:connector-curvature="0"
       d="m 350.92517,188.33951 -0.48626,-1.05683 c 1.82508,-0.53463 2.61338,-0.40742 3.45922,-0.24652 0.84584,0.1609 0.44676,0.46808 -0.27738,0.38955 -0.72413,-0.0785 -1.33789,0.74995 -2.69558,0.9138 z"
       class="fil0"
       id="path3323" />
    <path
       sodipodi:nodetypes="zsccz"
       style="fill:#808080;fill-opacity:1;fill-rule:evenodd;display:inline"
       inkscape:connector-curvature="0"
       d="m 349.08043,179.48114 c 1.27844,-1.31076 0.91823,-0.33086 0.5958,0.12543 -0.93441,1.32235 -1.34041,3.26404 -1.29269,5.25986 l -0.98746,-0.11401 c -0.2509,-1.92121 0.4059,-3.96053 1.68435,-5.27128 z"
       class="fil0"
       id="path3325"
       inkscape:transform-center-x="-0.81134667"
       inkscape:transform-center-y="-2.8264535" />
    <path
       sodipodi:nodetypes="zsccz"
       style="fill:#808080;fill-opacity:1;fill-rule:evenodd;display:inline"
       inkscape:connector-curvature="0"
       d="m 352.29829,181.63105 c 0.89329,-0.26723 0.17804,0.23848 -0.34617,0.58466 -0.88687,0.58571 -1.68215,2.02256 -2.61544,3.39309 l -0.75727,-0.5938 c 1.12481,-2.31046 2.8256,-3.11673 3.71888,-3.38395 z"
       class="fil0"
       id="path3327"
       inkscape:transform-center-x="-1.6225337"
       inkscape:transform-center-y="-1.5300617" />
    <path
       sodipodi:nodetypes="cczzc"
       style="fill:#808080;fill-opacity:1;fill-rule:evenodd;display:inline"
       inkscape:connector-curvature="0"
       d="m 349.96409,187.22245 -0.62529,-0.73152 c 1.56101,-1.26028 2.79166,-2.20662 4.16855,-2.34796 1.37691,-0.1413 0.47784,0.31293 -0.33511,0.55477 -0.81296,0.24185 -1.94524,1.35399 -3.20815,2.52471 z"
       class="fil0"
       id="path3329"
       inkscape:transform-center-x="-1.6529941"
       inkscape:transform-center-y="-0.60847388" />
    <path
       sodipodi:nodetypes="scczs"
       style="fill:#808080;fill-opacity:1;fill-rule:evenodd;display:inline"
       inkscape:connector-curvature="0"
       d="m 342.80113,181.20742 c 0.58564,1.63738 1.79129,2.97277 2.76217,4.10523 l -0.77125,0.57554 c -1.47281,-1.3038 -2.02018,-3.10564 -2.34425,-4.37805 -0.32406,-1.27242 0.0327,-1.1992 0.35333,-0.30272 z"
       class="fil0"
       id="path3331"
       inkscape:transform-center-x="1.0765205"
       inkscape:transform-center-y="-2.2257878" />
    <path
       sodipodi:nodetypes="scczs"
       style="fill:#808080;fill-opacity:1;fill-rule:evenodd;display:inline"
       inkscape:connector-curvature="0"
       d="m 341.30683,184.37913 c 1.19341,1.34374 2.21798,1.69601 3.46696,2.338 l -0.52392,0.79726 c -1.7632,-0.60698 -2.24844,-1.44936 -2.96951,-2.51644 -0.72107,-1.06707 -0.33023,-1.02044 0.0265,-0.61882 z"
       class="fil0"
       id="path3333"
       inkscape:transform-center-x="1.3881648"
       inkscape:transform-center-y="-1.2140086" />
  </g>
  <g
     inkscape:label="07"
     transform="translate(-341.0002,-177)"
     inkscape:groupmode="layer"
     id="g3113"
     style="display:none">
    <path
       id="path3115"
       class="fil0"
       d="m 343.94516,188.92725 1.19312,0.35683 c -0.52596,-4.20247 4.61357,-3.88027 4.40165,-0.79272 l 1.34319,0.004 c 0.34922,-4.25201 -6.84548,-6.259 -6.93796,0.43185 z"
       inkscape:connector-curvature="0"
       style="fill:#808080;fill-opacity:1;fill-rule:evenodd"
       sodipodi:nodetypes="ccccc" />
    <path
       id="path3117"
       class="fil0"
       d="m 344.91475,188.15445 0.21458,0.9455 c -1.81203,-0.18161 -2.30132,-0.36268 -3.10383,-0.39102 -0.80252,-0.0283 -0.5892,-0.36306 0.0852,-0.42791 0.67439,-0.0648 1.50941,-0.1261 2.80405,-0.12653 z"
       inkscape:connector-curvature="0"
       style="fill:#808080;fill-opacity:1;fill-rule:evenodd"
       sodipodi:nodetypes="cczzcc"
       inkscape:transform-center-x="0.46032542"
       inkscape:transform-center-y="-0.18723561" />
    <path
       sodipodi:type="arc"
       style="fill:#808080;fill-opacity:1;fill-rule:evenodd;stroke:none"
       id="path3119"
       sodipodi:cx="11.182829"
       sodipodi:cy="12.753372"
       sodipodi:rx="2.6694496"
       sodipodi:ry="2.6694496"
       d="m 13.844562,12.550547 a 2.6694496,2.6694496 0 0 1 -2.444373,2.863411 2.6694496,2.6694496 0 0 1 -2.8767188,-2.428698 2.6694496,2.6694496 0 0 1 2.4129488,-2.88994 2.6694496,2.6694496 0 0 1 2.903077,2.397129"
       transform="matrix(0.3689711,-0.19699985,0.19699985,0.3689711,340.75824,185.98456)"
       sodipodi:start="6.2071318"
       sodipodi:end="12.46847"
       sodipodi:open="true" />
    <path
       id="path3121"
       class="fil0"
       d="m 345.46972,179.54664 c 0.43059,0.8917 1.35967,3.25699 1.58049,5.08545 l -1.02493,0.26553 c -0.31589,-1.87458 -0.72762,-4.20931 -1.0928,-5.28852 -0.36518,-1.07921 0.23949,-0.67908 0.53724,-0.0625 z"
       inkscape:connector-curvature="0"
       style="fill:#808080;fill-opacity:1;fill-rule:evenodd"
       sodipodi:nodetypes="scczs"
       inkscape:transform-center-x="0.31166811"
       inkscape:transform-center-y="-2.7837253" />
    <path
       id="path3123"
       class="fil0"
       d="m 350.92623,188.46586 -0.44836,-1.07346 c 1.63302,-0.0606 2.59307,-0.17057 3.38846,-0.41057 0.79539,-0.24001 0.49612,0.29585 -0.21372,0.6667 -0.70984,0.37085 -1.36372,0.70188 -2.72638,0.81733 z"
       inkscape:connector-curvature="0"
       style="fill:#808080;fill-opacity:1;fill-rule:evenodd"
       sodipodi:nodetypes="cczzc"
       inkscape:transform-center-x="-1.8241595"
       inkscape:transform-center-y="-0.14792891" />
    <path
       inkscape:transform-center-y="-2.8264535"
       inkscape:transform-center-x="-0.81134667"
       id="path3125"
       class="fil0"
       d="m 348.49178,179.52538 c 0.16416,-1.19815 0.45746,-0.58894 0.45839,-0.0302 0.002,1.48715 0.0359,3.50156 -0.44042,5.40942 l -0.98278,-0.14906 c 0.45842,-1.77424 0.80065,-4.03198 0.96481,-5.23013 z"
       inkscape:connector-curvature="0"
       style="fill:#808080;fill-opacity:1;fill-rule:evenodd;display:inline"
       sodipodi:nodetypes="zsccz" />
    <path
       inkscape:transform-center-y="-1.5300617"
       inkscape:transform-center-x="-1.6225337"
       id="path3127"
       class="fil0"
       d="m 352.01783,181.58952 c 0.72544,-0.62198 0.64862,-0.12109 0.30721,0.40625 -0.4873,0.75266 -1.65359,2.6354 -2.88916,3.68461 l -0.73567,-0.62037 c 1.71452,-1.63921 2.59218,-2.84851 3.31762,-3.47049 z"
       inkscape:connector-curvature="0"
       style="fill:#808080;fill-opacity:1;fill-rule:evenodd;display:inline"
       sodipodi:nodetypes="zsccz" />
    <path
       inkscape:transform-center-y="-0.60847388"
       inkscape:transform-center-x="-1.6529941"
       id="path3129"
       class="fil0"
       d="m 350.00549,187.31532 -0.59887,-0.7533 c 1.73743,-0.91669 3.32135,-1.6751 4.24943,-2.19819 0.92808,-0.52309 0.68738,-0.068 -0.0121,0.48726 -0.6995,0.55527 -2.12475,1.72588 -3.63843,2.46423 z"
       inkscape:connector-curvature="0"
       style="fill:#808080;fill-opacity:1;fill-rule:evenodd;display:inline"
       sodipodi:nodetypes="cczzc" />
    <path
       inkscape:transform-center-y="-1.869957"
       inkscape:transform-center-x="1.4264439"
       id="path3131"
       class="fil0"
       d="m 342.62844,181.58648 c 1.16668,1.28951 2.33456,2.16241 3.04271,3.64551 l -0.76887,0.57871 c -0.95478,-1.50617 -1.90681,-3.07103 -2.62592,-3.92005 -0.71911,-0.84902 -0.27708,-0.99957 0.35208,-0.30417 z"
       inkscape:connector-curvature="0"
       style="fill:#808080;fill-opacity:1;fill-rule:evenodd;display:inline"
       sodipodi:nodetypes="scczs" />
    <path
       inkscape:transform-center-y="-0.87264977"
       inkscape:transform-center-x="1.4214638"
       id="path3133"
       class="fil0"
       d="m 344.83166,186.61323 -0.53108,0.79251 c -1.28501,-1.18359 -2.05373,-1.70839 -2.94587,-2.51186 -0.89215,-0.80347 0.47274,-0.31776 0.71225,-0.10006 0.23951,0.21774 1.67931,0.73315 2.7647,1.81938 z"
       inkscape:connector-curvature="0"
       style="fill:#808080;fill-opacity:1;fill-rule:evenodd;display:inline"
       sodipodi:nodetypes="cczzc" />
  </g>
  <g
     style="display:none"
     id="g3157"
     inkscape:groupmode="layer"
     transform="translate(-341.0002,-177)"
     inkscape:label="08">
    <path
       sodipodi:nodetypes="ccccc"
       style="fill:#808080;fill-opacity:1;fill-rule:evenodd"
       inkscape:connector-curvature="0"
       d="m 343.91522,188.39662 1.1246,0.53494 c 0.12228,-4.2335 5.15224,-3.12985 4.47108,-0.11093 l 1.32681,0.20917 c 0.99476,-4.14874 -5.80885,-7.23139 -6.92248,-0.63322 z"
       class="fil0"
       id="path3159" />
    <path
       inkscape:transform-center-y="0.14173877"
       inkscape:transform-center-x="0.5496923"
       sodipodi:nodetypes="cczzcc"
       style="fill:#808080;fill-opacity:1;fill-rule:evenodd"
       inkscape:connector-curvature="0"
       d="m 344.93867,187.51715 0.1392,1.00685 c -1.82112,-0.002 -2.15843,-0.22057 -2.95981,-0.16945 -0.80139,0.0512 -0.62221,-0.30305 0.0425,-0.43424 0.66468,-0.1311 1.48956,-0.27473 2.77781,-0.40307 z"
       class="fil0"
       id="path3161" />
    <path
       sodipodi:open="true"
       sodipodi:end="12.46847"
       sodipodi:start="6.2071318"
       transform="matrix(0.39473743,-0.13831478,0.13831478,0.39473743,341.2153,185.00157)"
       d="m 13.844562,12.550547 a 2.6694496,2.6694496 0 0 1 -2.444373,2.863411 2.6694496,2.6694496 0 0 1 -2.8767188,-2.428698 2.6694496,2.6694496 0 0 1 2.4129488,-2.88994 2.6694496,2.6694496 0 0 1 2.903077,2.397129"
       sodipodi:ry="2.6694496"
       sodipodi:rx="2.6694496"
       sodipodi:cy="12.753372"
       sodipodi:cx="11.182829"
       id="path3163"
       style="fill:#808080;fill-opacity:1;fill-rule:evenodd;stroke:none"
       sodipodi:type="arc" />
    <path
       inkscape:transform-center-y="-2.6372496"
       inkscape:transform-center-x="0.71549548"
       sodipodi:nodetypes="scczs"
       style="fill:#808080;fill-opacity:1;fill-rule:evenodd"
       inkscape:connector-curvature="0"
       d="m 346.0991,179.47549 c 0.42653,0.89364 1.34486,3.26312 1.55736,5.09257 l -1.02611,0.26088 c -0.30738,-1.876 -0.7085,-4.21259 -1.06877,-5.29344 -0.36028,-1.08086 0.24256,-0.67799 0.53755,-0.0597 z"
       class="fil0"
       id="path3165" />
    <path
       inkscape:transform-center-y="-0.6771384"
       inkscape:transform-center-x="-1.5604897"
       sodipodi:nodetypes="cczzcc"
       style="fill:#808080;fill-opacity:1;fill-rule:evenodd"
       inkscape:connector-curvature="0"
       d="m 350.79434,189.00711 -0.39739,-1.06518 c 1.60786,-0.29187 2.54255,-0.5371 3.29579,-0.88767 0.75324,-0.35054 0.5331,0.2224 -0.11687,0.69029 -0.64997,0.46791 -1.13973,0.93263 -2.47217,1.24043 z"
       class="fil0"
       id="path3167" />
    <path
       sodipodi:nodetypes="zsccz"
       style="fill:#808080;fill-opacity:1;fill-rule:evenodd;display:inline"
       inkscape:connector-curvature="0"
       d="m 349.12645,179.64826 c 0.18363,-1.19531 0.46698,-0.58141 0.45882,-0.0227 -0.0222,1.48699 -0.0211,3.50168 -0.52843,5.40154 l -0.98023,-0.16504 c 0.48724,-1.76654 0.86619,-4.01842 1.04983,-5.21374 z"
       class="fil0"
       id="path3169"
       inkscape:transform-center-x="-0.43526231"
       inkscape:transform-center-y="-2.9665554" />
    <path
       sodipodi:nodetypes="zsccz"
       style="fill:#808080;fill-opacity:1;fill-rule:evenodd;display:inline"
       inkscape:connector-curvature="0"
       d="m 351.92851,181.57212 c 0.62958,-0.71885 0.62481,-0.2121 0.3619,0.35843 -0.37527,0.81433 -1.26182,2.84385 -2.33554,4.05818 l -0.81644,-0.5094 c 1.46384,-1.86647 2.16052,-3.18834 2.79008,-3.90721 z"
       class="fil0"
       id="path3171"
       inkscape:transform-center-x="-1.0173344"
       inkscape:transform-center-y="-2.019733" />
    <path
       sodipodi:nodetypes="cczzc"
       style="fill:#808080;fill-opacity:1;fill-rule:evenodd;display:inline"
       inkscape:connector-curvature="0"
       d="m 350.35218,187.8282 -0.69144,-0.66935 c 1.604,-1.13412 3.07627,-2.09139 3.92874,-2.73033 0.85248,-0.63894 0.67278,-0.15651 0.0513,0.48469 -0.62163,0.64124 -1.88318,1.98668 -3.28842,2.91496 z"
       class="fil0"
       id="path3173"
       inkscape:transform-center-x="-1.3082857"
       inkscape:transform-center-y="-1.1060237" />
    <path
       sodipodi:nodetypes="scczs"
       style="fill:#808080;fill-opacity:1;fill-rule:evenodd;display:inline"
       inkscape:connector-curvature="0"
       d="m 342.85314,181.62755 c 1.28398,1.17278 2.52954,1.93071 3.37547,3.33978 l -0.71038,0.64918 c -1.09363,-1.40861 -2.1901,-2.87588 -2.98667,-3.6527 -0.79654,-0.77681 -0.37083,-0.96869 0.32158,-0.33626 z"
       class="fil0"
       id="path3175"
       inkscape:transform-center-x="1.887927"
       inkscape:transform-center-y="-1.3707271" />
    <path
       sodipodi:nodetypes="cczzc"
       style="fill:#808080;fill-opacity:1;fill-rule:evenodd;display:inline"
       inkscape:connector-curvature="0"
       d="m 345.34395,186.14908 -0.27192,0.91443 c -1.57841,-0.74885 -2.46825,-1.02182 -3.55867,-1.52429 -1.09043,-0.50245 0.35713,-0.44376 0.65045,-0.30699 0.29332,0.13684 1.82124,0.20168 3.18011,0.91678 z"
       class="fil0"
       id="path3177"
       inkscape:transform-center-x="1.8050744"
       inkscape:transform-center-y="-0.060474194" />
  </g>
  <g
     inkscape:label="09"
     transform="translate(-341.0002,-177)"
     inkscape:groupmode="layer"
     id="g3248"
     style="display:none">
    <g
       id="g3270"
       inkscape:transform-center-x="-0.90924682"
       inkscape:transform-center-y="-4.3412093"
       transform="matrix(0.98694305,0.16106958,-0.16106958,0.98694305,34.896501,-53.483293)">
      <path
         sodipodi:nodetypes="ccccc"
         style="fill:#808080;fill-opacity:1;fill-rule:evenodd"
         inkscape:connector-curvature="0"
         d="m 343.91522,188.39662 1.1246,0.53494 c 0.12228,-4.2335 5.15224,-3.12985 4.47108,-0.11093 l 1.32681,0.20917 c 0.99476,-4.14874 -5.80885,-7.23139 -6.92248,-0.63322 z"
         class="fil0"
         id="path3250" />
      <path
         inkscape:transform-center-y="0.14173877"
         inkscape:transform-center-x="0.5496923"
         sodipodi:nodetypes="cczzcc"
         style="fill:#808080;fill-opacity:1;fill-rule:evenodd"
         inkscape:connector-curvature="0"
         d="m 344.93867,187.51715 7.8e-4,1.119 c -1.7766,-0.27794 -2.01244,-0.42351 -2.86546,-0.14007 -0.85302,0.28344 -0.61196,-0.1033 0.0425,-0.43424 0.65446,-0.33094 1.53363,-0.41626 2.82188,-0.5446 z"
         class="fil0"
         id="path3252" />
      <path
         sodipodi:open="true"
         sodipodi:end="12.46847"
         sodipodi:start="6.2071318"
         transform="matrix(0.39473743,-0.13831478,0.13831478,0.39473743,341.2153,185.00157)"
         d="m 13.844562,12.550547 a 2.6694496,2.6694496 0 0 1 -2.444373,2.863411 2.6694496,2.6694496 0 0 1 -2.8767188,-2.428698 2.6694496,2.6694496 0 0 1 2.4129488,-2.88994 2.6694496,2.6694496 0 0 1 2.903077,2.397129"
         sodipodi:ry="2.6694496"
         sodipodi:rx="2.6694496"
         sodipodi:cy="12.753372"
         sodipodi:cx="11.182829"
         id="path3254"
         style="fill:#808080;fill-opacity:1;fill-rule:evenodd;stroke:none"
         sodipodi:type="arc" />
      <path
         inkscape:transform-center-y="-2.6372496"
         inkscape:transform-center-x="0.71549548"
         sodipodi:nodetypes="cczzc"
         style="fill:#808080;fill-opacity:1;fill-rule:evenodd"
         inkscape:connector-curvature="0"
         d="m 347.65646,184.56806 -1.02611,0.26088 c -0.016,-1.87502 -0.42074,-3.98638 -1.05855,-5.0936 -0.63781,-1.10722 -0.0869,-0.97446 0.58241,-0.18745 0.66934,0.78701 1.46066,3.14044 1.50225,5.02017 z"
         class="fil0"
         id="path3256" />
      <path
         inkscape:transform-center-y="-0.6771384"
         inkscape:transform-center-x="-1.5604897"
         sodipodi:nodetypes="cczzcc"
         style="fill:#808080;fill-opacity:1;fill-rule:evenodd"
         inkscape:connector-curvature="0"
         d="m 350.79434,189.00711 -0.23761,-1.04648 c 1.24378,-0.0533 2.45486,-0.38848 3.13601,-0.90637 0.68115,-0.51789 0.58474,-0.01 0.0398,0.55277 -0.54494,0.5627 -1.2964,1.07015 -2.62884,1.37795 z"
         class="fil0"
         id="path3258" />
      <path
         sodipodi:nodetypes="scczs"
         style="fill:#808080;fill-opacity:1;fill-rule:evenodd;display:inline"
         inkscape:connector-curvature="0"
         d="m 349.11661,179.63488 c 0.38148,1.35394 0.44756,3.49236 -0.0598,5.39222 l -0.98023,-0.16504 c 0.48724,-1.76654 0.85884,-3.99482 0.58552,-5.14358 -0.27332,-1.14877 0.30297,-0.62143 0.45451,-0.0836 z"
         class="fil0"
         id="path3260"
         inkscape:transform-center-x="-0.43526231"
         inkscape:transform-center-y="-2.9665554" />
      <path
         sodipodi:nodetypes="zsccz"
         style="fill:#808080;fill-opacity:1;fill-rule:evenodd;display:inline"
         inkscape:connector-curvature="0"
         d="m 351.64053,181.8654 c 0.41642,-1.06468 0.64578,-1.04393 0.52304,-0.0261 -0.10735,0.89019 -1.06244,2.96804 -2.13616,4.18237 l -0.88898,-0.54234 c 1.46384,-1.86647 2.08569,-2.54925 2.5021,-3.61393 z"
         class="fil0"
         id="path3262"
         inkscape:transform-center-x="-1.0173344"
         inkscape:transform-center-y="-2.019733" />
      <path
         sodipodi:nodetypes="cczzcc"
         style="fill:#808080;fill-opacity:1;fill-rule:evenodd;display:inline"
         inkscape:connector-curvature="0"
         d="m 350.35218,187.8282 -0.69144,-0.66935 c 1.604,-1.13412 2.59912,-1.72246 3.58737,-2.76418 0.98826,-1.04171 0.84861,-0.58821 0.38601,0.34051 -0.46261,0.92873 -1.87652,2.16471 -3.28176,3.09299 z"
         class="fil0"
         id="path3264"
         inkscape:transform-center-x="-1.3082857"
         inkscape:transform-center-y="-1.1060237" />
      <path
         sodipodi:nodetypes="scczs"
         style="fill:#808080;fill-opacity:1;fill-rule:evenodd;display:inline"
         inkscape:connector-curvature="0"
         d="m 342.85314,181.62755 c 1.41619,0.74819 2.52954,1.93071 3.37547,3.33978 l -0.71038,0.64918 c -0.95521,-1.52076 -1.87009,-2.97288 -2.95774,-3.61264 -1.08765,-0.63976 -0.53651,-0.81438 0.29265,-0.37632 z"
         class="fil0"
         id="path3266"
         inkscape:transform-center-x="1.887927"
         inkscape:transform-center-y="-1.3707271" />
      <path
         sodipodi:nodetypes="cczzcc"
         style="fill:#808080;fill-opacity:1;fill-rule:evenodd;display:inline"
         inkscape:connector-curvature="0"
         d="m 345.34395,186.14908 -0.27192,0.91443 c -1.67898,-0.88811 -2.0344,-1.28189 -3.38466,-1.41835 -1.35025,-0.13646 -0.0643,-0.41983 0.47644,-0.41293 0.54079,0.007 1.94989,-0.24472 3.18011,0.91678 z"
         class="fil0"
         id="path3268"
         inkscape:transform-center-x="1.8050744"
         inkscape:transform-center-y="-0.060474194" />
    </g>
  </g>
  <g
     style="display:inline"
     id="g3282"
     inkscape:groupmode="layer"
     transform="translate(-341.0002,-177)"
     inkscape:label="10">
    <path
       sodipodi:nodetypes="cccccc"
       style="fill:#9283be;fill-opacity:1;fill-rule:evenodd"
       inkscape:connector-curvature="0"
       d="m 344.0046,187.60646 0.9676,0.78398 c 1.11266,-4.0865 5.74299,-1.83293 4.37219,0.94174 l 1.24063,0.51478 c 2.02925,-3.97608 -3.949,-8.39292 -6.5804,-2.24054 z"
       class="fil0"
       id="path3286" />
    <path
       inkscape:transform-center-y="0.10730555"
       inkscape:transform-center-x="0.6733319"
       sodipodi:nodetypes="cczzcc"
       style="fill:#9283be;fill-opacity:1;fill-rule:evenodd"
       inkscape:connector-curvature="0"
       d="m 345.23601,187.13931 -0.40628,1.04265 c -1.55383,-0.90509 -1.72056,-1.12646 -2.61825,-1.17269 -0.8977,-0.0462 -0.53249,-0.3188 0.19752,-0.38904 0.73,-0.0702 1.57999,0.17007 2.82669,0.51906 z"
       class="fil0"
       id="path3288" />
    <path
       sodipodi:open="true"
       sodipodi:end="12.46847"
       sodipodi:start="6.2071318"
       transform="matrix(0.41617597,-0.04178731,0.04178731,0.41617597,342.1771,183.67248)"
       d="m 13.844562,12.550547 a 2.6694496,2.6694496 0 0 1 -2.444373,2.863411 2.6694496,2.6694496 0 0 1 -2.8767188,-2.428698 2.6694496,2.6694496 0 0 1 2.4129488,-2.88994 2.6694496,2.6694496 0 0 1 2.903077,2.397129"
       sodipodi:ry="2.6694496"
       sodipodi:rx="2.6694496"
       sodipodi:cy="12.753372"
       sodipodi:cx="11.182829"
       id="path3290"
       style="fill:#9283be;fill-opacity:1;fill-rule:evenodd;stroke:none"
       sodipodi:type="arc" />
    <path
       inkscape:transform-center-y="-2.8886324"
       inkscape:transform-center-x="-0.16488059"
       sodipodi:nodetypes="cczzc"
       style="fill:#9283be;fill-opacity:1;fill-rule:evenodd"
       inkscape:connector-curvature="0"
       d="m 348.53574,184.7821 -1.05849,-0.0238 c 0.48735,-1.81065 0.52294,-3.93759 0.20537,-5.17529 -0.31757,-1.23769 0.17757,-0.96207 0.61134,-0.0244 0.43381,0.93766 0.70574,3.40146 0.24178,5.22349 z"
       class="fil0"
       id="path3292" />
    <path
       inkscape:transform-center-y="0.0090613526"
       inkscape:transform-center-x="-1.5795714"
       sodipodi:nodetypes="cczzcc"
       style="fill:#9283be;fill-opacity:1;fill-rule:evenodd"
       inkscape:connector-curvature="0"
       d="m 350.47868,189.7634 0.17206,-1.05924 c 1.17304,0.41688 2.42145,0.56018 3.24708,0.33543 0.82563,-0.22475 0.54584,0.20994 -0.17036,0.52736 -0.71615,0.31737 -1.60305,0.50609 -2.9537,0.2919 z"
       class="fil0"
       id="path3294" />
    <path
       sodipodi:nodetypes="cczcc"
       style="fill:#9283be;fill-opacity:1;fill-rule:evenodd;display:inline"
       inkscape:connector-curvature="0"
       d="m 349.77254,185.57256 -0.87425,-0.47305 c 1.12589,-1.48293 1.97913,-3.51832 2.09184,-4.69376 0.11273,-1.17545 0.48758,-0.49012 0.434,0.49113 -0.0536,0.98125 -0.41669,3.1356 -1.65159,4.67568 z"
       class="fil0"
       id="path3296"
       inkscape:transform-center-x="-0.82710818"
       inkscape:transform-center-y="-2.6535206" />
    <path
       sodipodi:nodetypes="zsccz"
       style="fill:#9283be;fill-opacity:1;fill-rule:evenodd;display:inline"
       inkscape:connector-curvature="0"
       d="m 353.27031,183.28364 c 0.72306,-0.88551 0.93498,-0.79537 0.50581,0.13566 -0.37536,0.81429 -1.92203,2.49878 -3.3166,3.325 l -0.67965,-0.78898 c 1.966,-1.32718 2.76738,-1.78618 3.49044,-2.67169 z"
       class="fil0"
       id="path3298"
       inkscape:transform-center-x="-1.5619319"
       inkscape:transform-center-y="-1.4459985" />
    <path
       sodipodi:nodetypes="cczzcc"
       style="fill:#9283be;fill-opacity:1;fill-rule:evenodd;display:inline"
       inkscape:connector-curvature="0"
       d="m 350.39513,188.56496 -0.51499,-0.81296 c 1.8254,-0.72589 2.93083,-1.0642 4.136,-1.84482 1.20518,-0.78061 0.96298,-0.37257 0.29529,0.42161 -0.6677,0.79418 -2.33224,1.66372 -3.91612,2.23619 z"
       class="fil0"
       id="path3300"
       inkscape:transform-center-x="-1.3082857"
       inkscape:transform-center-y="-1.1060237" />
    <path
       sodipodi:nodetypes="scczs"
       style="fill:#9283be;fill-opacity:1;fill-rule:evenodd;display:inline"
       inkscape:connector-curvature="0"
       d="m 345.07843,180.54945 c 1.08935,1.17417 1.78059,2.7207 1.97268,4.31454 l -0.885,0.37793 c -0.28958,-1.78224 -0.72003,-3.45512 -1.48826,-4.43402 -0.76824,-0.97889 -0.23721,-0.94592 0.40058,-0.25845 z"
       class="fil0"
       id="path3302"
       inkscape:transform-center-x="0.96582195"
       inkscape:transform-center-y="-2.0949435" />
    <path
       sodipodi:nodetypes="cczzcc"
       style="fill:#9283be;fill-opacity:1;fill-rule:evenodd;display:inline"
       inkscape:connector-curvature="0"
       d="m 345.86583,185.91863 -0.65698,0.69174 c -1.0938,-1.55285 -1.23203,-2.06498 -2.37364,-2.79884 -1.1416,-0.73385 0.1331,-0.40333 0.61188,-0.15202 0.47883,0.25145 1.84889,0.666 2.41875,2.25904 z"
       class="fil0"
       id="path3304"
       inkscape:transform-center-x="1.0856784"
       inkscape:transform-center-y="-0.61600426" />
  </g>
  <g
     inkscape:label="02 copia copia copia copia copia copia copia copia copia"
     transform="translate(-341.0002,-177)"
     inkscape:groupmode="layer"
     id="g3306"
     style="display:none">
    <path
       id="path3310"
       class="fil0"
       d="m 344.0739,187.39026 0.91343,0.84648 c 1.38145,-4.00363 5.85199,-1.4477 4.30004,1.22986 l 1.20373,0.596 c 2.18876,-3.66209 -3.38321,-8.63653 -6.41717,-2.67238 z"
       inkscape:connector-curvature="0"
       style="fill:#808080;fill-opacity:1;fill-rule:evenodd"
       sodipodi:nodetypes="ccccc" />
    <path
       id="path3312"
       class="fil0"
       d="m 345.33113,186.96971 -0.5304,0.98531 c -1.43185,-1.08783 -1.57035,-1.32789 -2.45569,-1.48325 -0.88536,-0.15533 -0.48963,-0.38137 0.24349,-0.36205 0.73312,0.0193 1.54746,0.36146 2.74229,0.85992 z"
       inkscape:connector-curvature="0"
       style="fill:#808080;fill-opacity:1;fill-rule:evenodd"
       sodipodi:nodetypes="cczzcc"
       inkscape:transform-center-x="0.49674642"
       inkscape:transform-center-y="0.088402495" />
    <path
       sodipodi:type="arc"
       style="fill:#808080;fill-opacity:1;fill-rule:evenodd;stroke:none"
       id="path3314"
       sodipodi:cx="11.182829"
       sodipodi:cy="12.753372"
       sodipodi:rx="2.6694496"
       sodipodi:ry="2.6694496"
       d="m 13.844562,12.550547 a 2.6694496,2.6694496 0 0 1 -2.444373,2.863411 2.6694496,2.6694496 0 0 1 -2.8767188,-2.428698 2.6694496,2.6694496 0 0 1 2.4129488,-2.88994 2.6694496,2.6694496 0 0 1 2.903077,2.397129"
       transform="matrix(0.41803183,-0.01407128,0.01407128,0.41803183,342.51155,183.34366)"
       sodipodi:start="6.2071318"
       sodipodi:end="12.46847"
       sodipodi:open="true" />
    <path
       id="path3316"
       class="fil0"
       d="m 348.76852,184.88823 -1.05031,-0.13341 c 0.67239,-1.75038 1.06972,-3.86314 0.88215,-5.12709 -0.18757,-1.26394 0.27634,-0.93849 0.61059,0.039 0.33428,0.97758 0.20789,3.45727 -0.44241,5.22141 z"
       inkscape:connector-curvature="0"
       style="fill:#808080;fill-opacity:1;fill-rule:evenodd"
       sodipodi:nodetypes="cczzc"
       inkscape:transform-center-x="-0.24841559"
       inkscape:transform-center-y="-2.7548494" />
    <path
       id="path3318"
       class="fil0"
       d="m 350.39761,189.97831 0.25935,-1.04131 c 1.13442,0.51277 2.36664,0.75914 3.20806,0.60366 0.84143,-0.15548 0.52655,0.25451 -0.21349,0.51143 -0.74001,0.25685 -1.63951,0.37134 -2.96774,0.0458 z"
       inkscape:connector-curvature="0"
       style="fill:#808080;fill-opacity:1;fill-rule:evenodd"
       sodipodi:nodetypes="cczzcc"
       inkscape:transform-center-x="-1.6531682"
       inkscape:transform-center-y="-0.027626938" />
    <path
       inkscape:transform-center-y="-2.5855549"
       inkscape:transform-center-x="-0.95499093"
       id="path3320"
       class="fil0"
       d="m 351.92938,180.7095 c -0.12052,1.40149 -0.81292,3.4258 -1.95773,5.02463 l -0.85904,-0.50015 c 1.07897,-1.48118 2.21259,-3.43521 2.36198,-4.60655 0.14945,-1.17134 0.50268,-0.47464 0.45479,0.0821 z"
       inkscape:connector-curvature="0"
       style="fill:#808080;fill-opacity:1;fill-rule:evenodd;display:inline"
       sodipodi:nodetypes="scczs" />
    <path
       inkscape:transform-center-y="-1.346941"
       inkscape:transform-center-x="-1.621071"
       id="path3322"
       class="fil0"
       d="m 353.56274,183.64048 c 0.76677,-0.84795 0.97387,-0.74726 0.49834,0.16099 -0.4159,0.79435 -2.04547,2.39877 -3.4799,3.15368 l -0.63903,-0.82222 c 2.03037,-1.22644 2.85385,-1.64448 3.62059,-2.49245 z"
       inkscape:connector-curvature="0"
       style="fill:#808080;fill-opacity:1;fill-rule:evenodd;display:inline"
       sodipodi:nodetypes="zsccz" />
    <path
       inkscape:transform-center-y="-0.61823358"
       inkscape:transform-center-x="-1.5365519"
       id="path3324"
       class="fil0"
       d="m 350.36002,188.74694 -0.42697,-0.86245 c 1.89143,-0.5306 3.02622,-0.75119 4.30657,-1.40121 1.28035,-0.65002 0.99672,-0.2696 0.24948,0.45023 -0.74725,0.71983 -2.49376,1.41014 -4.12891,1.81347 z"
       inkscape:connector-curvature="0"
       style="fill:#808080;fill-opacity:1;fill-rule:evenodd;display:inline"
       sodipodi:nodetypes="cczzcc" />
    <path
       inkscape:transform-center-y="-2.1867945"
       inkscape:transform-center-x="0.86604932"
       id="path3326"
       class="fil0"
       d="m 345.56104,180.43152 c 0.99106,1.25826 1.52915,2.79069 1.73092,4.42176 l -0.91262,0.30528 c -0.25636,-1.77747 -0.50369,-3.47585 -1.23842,-4.50174 -0.73472,-1.0259 -0.16012,-0.96199 0.42012,-0.2253 z"
       inkscape:connector-curvature="0"
       style="fill:#808080;fill-opacity:1;fill-rule:evenodd;display:inline"
       sodipodi:nodetypes="scczs" />
    <path
       inkscape:transform-center-y="-0.71266795"
       inkscape:transform-center-x="1.0691954"
       id="path3328"
       class="fil0"
       d="m 346.05962,185.80802 -0.68519,0.6638 c -1.02823,-1.59701 -1.14504,-2.11445 -2.25513,-2.89517 -1.11008,-0.78073 0.14975,-0.39746 0.61767,-0.12643 0.46795,0.27114 1.81958,0.74234 2.32266,2.35772 z"
       inkscape:connector-curvature="0"
       style="fill:#808080;fill-opacity:1;fill-rule:evenodd;display:inline"
       sodipodi:nodetypes="cczzcc" />
  </g>
  <g
     style="display:none"
     id="g3675"
     inkscape:groupmode="layer"
     transform="translate(-341.0002,-177)"
     inkscape:label="01 copia">
    <path
       style="fill:url(#radialGradient4560);fill-opacity:1;fill-rule:evenodd;stroke:none"
       d="M 8.71875,1.75 C 8.653076,1.786594 8.5671313,1.9765538 8.46875,2.34375 8.2092659,3.3122165 7.7234027,5.7434718 6.8125,7.59375 6.6960432,7.58726 6.5885075,7.58443 6.46875,7.59375 6.438972,7.59607 6.404862,7.59049 6.375,7.59375 6.2355619,5.9586404 5.9378106,3.4869879 5.8125,2.6875 5.69682,1.94939 5.4087,1.58713 5.4375,2.53125 5.466153,3.4705531 5.44683,5.9243049 5.4375,7.875 5.1980928,7.986645 4.9563937,8.1287003 4.71875,8.3125 4.146145,7.0994044 3.1620645,5.4245081 2.75,4.84375 2.31763,4.23442 2.02396,3.9356 2.375,4.8125 2.7241082,5.6845495 3.3414936,7.2050579 4,9.03125 3.8632733,9.1892988 3.7265314,9.3482763 3.59375,9.53125 3.0040068,9.0665761 2.4425893,8.7636683 2.03125,8.46875 1.43163,8.0388 1.04888,7.83121 1.625,8.5 2.0570975,9.0015925 2.3987881,9.5251291 3.125,10.28125 3.3670706,10.53329 3.6520775,10.814357 4,11.125 L 4.3125,10.5 C 6.0358253,7.5481918 9.7885781,10.071419 8.25,12.53125 l 1.15625,0.4375 0.03125,0 c 1.209381,0.444404 2.858424,1.026493 3.59375,1.125 0.55171,0.07394 0.94743,0.05768 0.0625,-0.34375 -0.857442,-0.388975 -1.670849,-0.826616 -3.25,-1.65625 0.050155,-0.163062 0.06926,-0.336544 0.09375,-0.5 1.569483,-0.238375 3.404694,-0.811187 4,-1.0625 C 14.62631,10.24047 15.11195,9.71707 13.875,10 12.866647,10.230641 11.477117,10.431992 9.9375,10.5 9.9041621,10.311038 9.843706,10.117028 9.78125,9.9375 11.419016,9.2466774 13.411886,7.96214 14,7.5 c 0.469283,-0.3687225 0.783787,-0.7932775 0.40625,-0.71875 -0.125846,0.024843 -0.32686,0.086538 -0.625,0.25 C 12.683635,7.6330532 11.079212,8.3507962 9.25,8.9375 9.1881838,8.8553768 9.0993363,8.7950907 9.03125,8.71875 10.338688,7.6034035 11.859315,5.850528 12.5,4.59375 12.725894,4.1506437 12.868699,3.6709007 12.75,3.65625 12.678781,3.6474596 12.499081,3.7953525 12.21875,4.21875 11.514887,5.2818273 9.7982386,6.7889306 8.15625,8 8.0407745,7.9348604 7.9026456,7.895384 7.78125,7.84375 8.6456813,6.2658551 8.8682523,3.2983273 8.875,2.53125 8.8790875,2.0338937 8.8282069,1.6890096 8.71875,1.75 z m -2.4375,8.65625 C 5.6663807,10.4531 5.2031467,10.978881 5.25,11.59375 5.296853,12.208619 5.8226307,12.671853 6.4375,12.625 7.0523693,12.57815 7.5156033,12.052369 7.46875,11.4375 l 0,-0.03125 c -0.059345,-0.60424 -0.582108,-1.046131 -1.1875,-1 z"
       transform="translate(341.0002,177)"
       id="path3679"
       inkscape:connector-curvature="0" />
  </g>
  <g
     inkscape:label="01 copia copia#1"
     transform="translate(-341.0002,-177)"
     inkscape:groupmode="layer"
     id="g4570"
     style="display:none">
    <path
       inkscape:connector-curvature="0"
       id="path4572"
       transform="translate(341.0002,177)"
       d="M 8.71875,1.75 C 8.653076,1.786594 8.5671313,1.9765538 8.46875,2.34375 8.2092659,3.3122165 7.7234027,5.7434718 6.8125,7.59375 6.6960432,7.58726 6.5885075,7.58443 6.46875,7.59375 6.438972,7.59607 6.404862,7.59049 6.375,7.59375 6.2355619,5.9586404 5.9378106,3.4869879 5.8125,2.6875 5.69682,1.94939 5.4087,1.58713 5.4375,2.53125 5.466153,3.4705531 5.44683,5.9243049 5.4375,7.875 5.1980928,7.986645 4.9563937,8.1287003 4.71875,8.3125 4.146145,7.0994044 3.1620645,5.4245081 2.75,4.84375 2.31763,4.23442 2.02396,3.9356 2.375,4.8125 2.7241082,5.6845495 3.3414936,7.2050579 4,9.03125 3.8632733,9.1892988 3.7265314,9.3482763 3.59375,9.53125 3.0040068,9.0665761 2.4425893,8.7636683 2.03125,8.46875 1.43163,8.0388 1.04888,7.83121 1.625,8.5 2.0570975,9.0015925 2.3987881,9.5251291 3.125,10.28125 3.3670706,10.53329 3.6520775,10.814357 4,11.125 L 4.3125,10.5 C 6.0358253,7.5481918 9.7885781,10.071419 8.25,12.53125 l 1.15625,0.4375 0.03125,0 c 1.209381,0.444404 2.858424,1.026493 3.59375,1.125 0.55171,0.07394 0.94743,0.05768 0.0625,-0.34375 -0.857442,-0.388975 -1.670849,-0.826616 -3.25,-1.65625 0.050155,-0.163062 0.06926,-0.336544 0.09375,-0.5 1.569483,-0.238375 3.404694,-0.811187 4,-1.0625 C 14.62631,10.24047 15.11195,9.71707 13.875,10 12.866647,10.230641 11.477117,10.431992 9.9375,10.5 9.9041621,10.311038 9.843706,10.117028 9.78125,9.9375 11.419016,9.2466774 13.411886,7.96214 14,7.5 c 0.469283,-0.3687225 0.783787,-0.7932775 0.40625,-0.71875 -0.125846,0.024843 -0.32686,0.086538 -0.625,0.25 C 12.683635,7.6330532 11.079212,8.3507962 9.25,8.9375 9.1881838,8.8553768 9.0993363,8.7950907 9.03125,8.71875 10.338688,7.6034035 11.859315,5.850528 12.5,4.59375 12.725894,4.1506437 12.868699,3.6709007 12.75,3.65625 12.678781,3.6474596 12.499081,3.7953525 12.21875,4.21875 11.514887,5.2818273 9.7982386,6.7889306 8.15625,8 8.0407745,7.9348604 7.9026456,7.895384 7.78125,7.84375 8.6456813,6.2658551 8.8682523,3.2983273 8.875,2.53125 8.8790875,2.0338937 8.8282069,1.6890096 8.71875,1.75 z m -2.4375,8.65625 C 5.6663807,10.4531 5.2031467,10.978881 5.25,11.59375 5.296853,12.208619 5.8226307,12.671853 6.4375,12.625 7.0523693,12.57815 7.5156033,12.052369 7.46875,11.4375 l 0,-0.03125 c -0.059345,-0.60424 -0.582108,-1.046131 -1.1875,-1 z"
       style="fill:url(#radialGradient4574);fill-opacity:1;fill-rule:evenodd;stroke:none" />
  </g>
  <g
     inkscape:label="01 copia copia"
     transform="translate(-341.0002,-177)"
     inkscape:groupmode="layer"
     id="g4556"
     style="display:none">
    <path
       id="path4558"
       transform="translate(341.0002,177)"
       d="M 8.71875,1.75 C 8.653076,1.786594 8.5671313,1.9765538 8.46875,2.34375 8.2092659,3.3122165 7.7234027,5.7434718 6.8125,7.59375 6.6960432,7.58726 6.5885075,7.58443 6.46875,7.59375 6.438972,7.59607 6.404862,7.59049 6.375,7.59375 6.2355619,5.9586404 5.9378106,3.4869879 5.8125,2.6875 5.69682,1.94939 5.4087,1.58713 5.4375,2.53125 5.466153,3.4705531 5.44683,5.9243049 5.4375,7.875 5.1980928,7.986645 4.9563937,8.1287003 4.71875,8.3125 4.146145,7.0994044 3.1620645,5.4245081 2.75,4.84375 2.31763,4.23442 2.02396,3.9356 2.375,4.8125 2.7241082,5.6845495 3.3414936,7.2050579 4,9.03125 3.8632733,9.1892988 3.7265314,9.3482763 3.59375,9.53125 3.0040068,9.0665761 2.4425893,8.7636683 2.03125,8.46875 1.43163,8.0388 1.04888,7.83121 1.625,8.5 2.0570975,9.0015925 2.3987881,9.5251291 3.125,10.28125 3.3670706,10.53329 3.6520775,10.814357 4,11.125 L 4.3125,10.5 C 6.0358253,7.5481918 9.7885781,10.071419 8.25,12.53125 l 1.15625,0.4375 0.03125,0 c 1.209381,0.444404 2.858424,1.026493 3.59375,1.125 0.55171,0.07394 0.94743,0.05768 0.0625,-0.34375 -0.857442,-0.388975 -1.670849,-0.826616 -3.25,-1.65625 0.050155,-0.163062 0.06926,-0.336544 0.09375,-0.5 1.569483,-0.238375 3.404694,-0.811187 4,-1.0625 C 14.62631,10.24047 15.11195,9.71707 13.875,10 12.866647,10.230641 11.477117,10.431992 9.9375,10.5 9.9041621,10.311038 9.843706,10.117028 9.78125,9.9375 11.419016,9.2466774 13.411886,7.96214 14,7.5 c 0.469283,-0.3687225 0.783787,-0.7932775 0.40625,-0.71875 -0.125846,0.024843 -0.32686,0.086538 -0.625,0.25 C 12.683635,7.6330532 11.079212,8.3507962 9.25,8.9375 9.1881838,8.8553768 9.0993363,8.7950907 9.03125,8.71875 10.338688,7.6034035 11.859315,5.850528 12.5,4.59375 12.725894,4.1506437 12.868699,3.6709007 12.75,3.65625 12.678781,3.6474596 12.499081,3.7953525 12.21875,4.21875 11.514887,5.2818273 9.7982386,6.7889306 8.15625,8 8.0407745,7.9348604 7.9026456,7.895384 7.78125,7.84375 8.6456813,6.2658551 8.8682523,3.2983273 8.875,2.53125 8.8790875,2.0338937 8.8282069,1.6890096 8.71875,1.75 z m -2.4375,8.65625 C 5.6663807,10.4531 5.2031467,10.978881 5.25,11.59375 5.296853,12.208619 5.8226307,12.671853 6.4375,12.625 7.0523693,12.57815 7.5156033,12.052369 7.46875,11.4375 l 0,-0.03125 c -0.059345,-0.60424 -0.582108,-1.046131 -1.1875,-1 z"
       style="fill:url(#radialGradient4553);fill-opacity:1;fill-rule:evenodd;stroke:none"
       inkscape:connector-curvature="0" />
  </g>
  <g
     style="display:none"
     id="g4564"
     inkscape:groupmode="layer"
     transform="translate(-341.0002,-177)"
     inkscape:label="01 copia copia copia">
    <path
       inkscape:connector-curvature="0"
       style="fill:url(#radialGradient4568);fill-opacity:1;fill-rule:evenodd;stroke:none"
       d="M 8.71875,1.75 C 8.653076,1.786594 8.5671313,1.9765538 8.46875,2.34375 8.2092659,3.3122165 7.7234027,5.7434718 6.8125,7.59375 6.6960432,7.58726 6.5885075,7.58443 6.46875,7.59375 6.438972,7.59607 6.404862,7.59049 6.375,7.59375 6.2355619,5.9586404 5.9378106,3.4869879 5.8125,2.6875 5.69682,1.94939 5.4087,1.58713 5.4375,2.53125 5.466153,3.4705531 5.44683,5.9243049 5.4375,7.875 5.1980928,7.986645 4.9563937,8.1287003 4.71875,8.3125 4.146145,7.0994044 3.1620645,5.4245081 2.75,4.84375 2.31763,4.23442 2.02396,3.9356 2.375,4.8125 2.7241082,5.6845495 3.3414936,7.2050579 4,9.03125 3.8632733,9.1892988 3.7265314,9.3482763 3.59375,9.53125 3.0040068,9.0665761 2.4425893,8.7636683 2.03125,8.46875 1.43163,8.0388 1.04888,7.83121 1.625,8.5 2.0570975,9.0015925 2.3987881,9.5251291 3.125,10.28125 3.3670706,10.53329 3.6520775,10.814357 4,11.125 L 4.3125,10.5 C 6.0358253,7.5481918 9.7885781,10.071419 8.25,12.53125 l 1.15625,0.4375 0.03125,0 c 1.209381,0.444404 2.858424,1.026493 3.59375,1.125 0.55171,0.07394 0.94743,0.05768 0.0625,-0.34375 -0.857442,-0.388975 -1.670849,-0.826616 -3.25,-1.65625 0.050155,-0.163062 0.06926,-0.336544 0.09375,-0.5 1.569483,-0.238375 3.404694,-0.811187 4,-1.0625 C 14.62631,10.24047 15.11195,9.71707 13.875,10 12.866647,10.230641 11.477117,10.431992 9.9375,10.5 9.9041621,10.311038 9.843706,10.117028 9.78125,9.9375 11.419016,9.2466774 13.411886,7.96214 14,7.5 c 0.469283,-0.3687225 0.783787,-0.7932775 0.40625,-0.71875 -0.125846,0.024843 -0.32686,0.086538 -0.625,0.25 C 12.683635,7.6330532 11.079212,8.3507962 9.25,8.9375 9.1881838,8.8553768 9.0993363,8.7950907 9.03125,8.71875 10.338688,7.6034035 11.859315,5.850528 12.5,4.59375 12.725894,4.1506437 12.868699,3.6709007 12.75,3.65625 12.678781,3.6474596 12.499081,3.7953525 12.21875,4.21875 11.514887,5.2818273 9.7982386,6.7889306 8.15625,8 8.0407745,7.9348604 7.9026456,7.895384 7.78125,7.84375 8.6456813,6.2658551 8.8682523,3.2983273 8.875,2.53125 8.8790875,2.0338937 8.8282069,1.6890096 8.71875,1.75 z m -2.4375,8.65625 C 5.6663807,10.4531 5.2031467,10.978881 5.25,11.59375 5.296853,12.208619 5.8226307,12.671853 6.4375,12.625 7.0523693,12.57815 7.5156033,12.052369 7.46875,11.4375 l 0,-0.03125 c -0.059345,-0.60424 -0.582108,-1.046131 -1.1875,-1 z"
       transform="translate(341.0002,177)"
       id="path4566" />
  </g>
</svg>
