<?xml version="1.0" encoding="UTF-8" standalone="no"?>
<!-- Created with Inkscape (http://www.inkscape.org/) -->

<svg
   xmlns:dc="http://purl.org/dc/elements/1.1/"
   xmlns:cc="http://creativecommons.org/ns#"
   xmlns:rdf="http://www.w3.org/1999/02/22-rdf-syntax-ns#"
   xmlns:svg="http://www.w3.org/2000/svg"
   xmlns="http://www.w3.org/2000/svg"
   xmlns:sodipodi="http://sodipodi.sourceforge.net/DTD/sodipodi-0.dtd"
   xmlns:inkscape="http://www.inkscape.org/namespaces/inkscape"
   width="256"
   height="256"
   id="svg2"
   version="1.1"
   inkscape:version="0.92.1 r15371"
   sodipodi:docname="owncloud.svg">
  <defs
     id="defs4" />
  <sodipodi:namedview
     id="base"
     pagecolor="#ffffff"
     bordercolor="#666666"
     borderopacity="1.0"
     inkscape:pageopacity="0.0"
     inkscape:pageshadow="2"
     inkscape:zoom="0.73398655"
     inkscape:cx="-320.92778"
     inkscape:cy="57.243813"
     inkscape:document-units="px"
     inkscape:current-layer="layer1"
     showgrid="false"
     inkscape:window-width="1918"
     inkscape:window-height="1023"
     inkscape:window-x="0"
     inkscape:window-y="26"
     inkscape:window-maximized="1" />
  <metadata
     id="metadata7">
    <rdf:RDF>
      <cc:Work
         rdf:about="">
        <dc:format>image/svg+xml</dc:format>
        <dc:type
           rdf:resource="http://purl.org/dc/dcmitype/StillImage" />
        <dc:title />
      </cc:Work>
    </rdf:RDF>
  </metadata>
  <g
     inkscape:label="Capa 1"
     inkscape:groupmode="layer"
     id="layer1"
     transform="translate(0,-796.36218)">
    <path
       sodipodi:type="arc"
       style="fill:#9283be;fill-opacity:1;stroke:#ffffff;stroke-width:3.35542226;stroke-opacity:1"
       id="path2988"
       sodipodi:cx="135.56107"
       sodipodi:cy="228.07033"
       sodipodi:rx="78.33931"
       sodipodi:ry="105.58777"
       d="M 213.90038,228.07033 A 78.33931,105.58777 0 0 1 135.56107,333.6581 78.33931,105.58777 0 0 1 57.221756,228.07033 78.33931,105.58777 0 0 1 135.56107,122.48256 78.33931,105.58777 0 0 1 213.90038,228.07033 Z"
       transform="matrix(0.63175047,0,0,0.45241486,62.522709,803.54331)" />
    <path
       sodipodi:type="arc"
       style="fill:#9283be;fill-opacity:1;stroke:#ffffff;stroke-width:4.84169483;stroke-opacity:1"
       id="path2988-0-8-2-9"
       sodipodi:cx="135.56107"
       sodipodi:cy="228.07033"
       sodipodi:rx="78.33931"
       sodipodi:ry="105.58777"
       d="M 213.90038,228.07033 A 78.33931,105.58777 0 0 1 135.56107,333.6581 78.33931,105.58777 0 0 1 57.221756,228.07033 78.33931,105.58777 0 0 1 135.56107,122.48256 78.33931,105.58777 0 0 1 213.90038,228.07033 Z"
       transform="matrix(0.42673205,0,0,0.30559521,38.03525,866.17782)" />
    <path
       sodipodi:type="arc"
       style="fill:#9283be;fill-opacity:1;stroke:#ffffff;stroke-width:4.28774881;stroke-opacity:1"
       id="path2988-0"
       sodipodi:cx="135.56107"
       sodipodi:cy="228.07033"
       sodipodi:rx="78.33931"
       sodipodi:ry="105.58777"
       d="M 213.90038,228.07033 A 78.33931,105.58777 0 0 1 135.56107,333.6581 78.33931,105.58777 0 0 1 57.221756,228.07033 78.33931,105.58777 0 0 1 135.56107,122.48256 78.33931,105.58777 0 0 1 213.90038,228.07033 Z"
       transform="matrix(0.55119467,0,0,0.39472651,6.6075112,879.229)" />
    <path
       sodipodi:type="arc"
       style="fill:#9283be;fill-opacity:1;stroke:#ffffff;stroke-width:6.29364777;stroke-opacity:1"
       id="path2988-0-8-2-0-7-2"
       sodipodi:cx="135.56107"
       sodipodi:cy="228.07033"
       sodipodi:rx="78.33931"
       sodipodi:ry="105.58777"
       d="M 213.90038,228.07033 A 78.33931,105.58777 0 0 1 135.56107,333.6581 78.33931,105.58777 0 0 1 57.221756,228.07033 78.33931,105.58777 0 0 1 135.56107,122.48256 78.33931,105.58777 0 0 1 213.90038,228.07033 Z"
       transform="matrix(0.375519,0,0,0.26892006,-6.6270137,909.28413)" />
    <path
       sodipodi:type="arc"
       style="fill:#9283be;fill-opacity:1;stroke:#ffffff;stroke-width:6.29364777;stroke-opacity:1"
       id="path2988-0-8-2-0"
       sodipodi:cx="135.56107"
       sodipodi:cy="228.07033"
       sodipodi:rx="78.33931"
       sodipodi:ry="105.58777"
       d="M 213.90038,228.07033 A 78.33931,105.58777 0 0 1 135.56107,333.6581 78.33931,105.58777 0 0 1 57.221756,228.07033 78.33931,105.58777 0 0 1 135.56107,122.48256 78.33931,105.58777 0 0 1 213.90038,228.07033 Z"
       transform="matrix(0.375519,0,0,0.26892006,115.34358,872.1581)" />
    <path
       sodipodi:type="arc"
       style="fill:#9283be;fill-opacity:1;stroke:#ffffff;stroke-width:4.28774881;stroke-opacity:1"
       id="path2988-0-8"
       sodipodi:cx="135.56107"
       sodipodi:cy="228.07033"
       sodipodi:rx="78.33931"
       sodipodi:ry="105.58777"
       d="M 213.90038,228.07033 A 78.33931,105.58777 0 0 1 135.56107,333.6581 78.33931,105.58777 0 0 1 57.221756,228.07033 78.33931,105.58777 0 0 1 135.56107,122.48256 78.33931,105.58777 0 0 1 213.90038,228.07033 Z"
       transform="matrix(0.55119467,0,0,0.39472651,49.259937,893.53443)" />
    <path
       sodipodi:type="arc"
       style="fill:#9283be;fill-opacity:1;stroke:#ffffff;stroke-opacity:1;stroke-width:4.84169493"
       id="path2988-0-8-2"
       sodipodi:cx="135.56107"
       sodipodi:cy="228.07033"
       sodipodi:rx="78.33931"
       sodipodi:ry="105.58777"
       d="M 213.90038,228.07033 A 78.33931,105.58777 0 0 1 135.56107,333.6581 78.33931,105.58777 0 0 1 57.221756,228.07033 78.33931,105.58777 0 0 1 135.56107,122.48256 78.33931,105.58777 0 0 1 213.90038,228.07033 Z"
       transform="matrix(0.48813161,0,0,0.34956522,134.61388,876.58592)" />
    <path
       sodipodi:type="arc"
       style="fill:#9283be;fill-opacity:1;stroke:#ffffff;stroke-width:6.29364777;stroke-opacity:1"
       id="path2988-0-8-2-0-7"
       sodipodi:cx="135.56107"
       sodipodi:cy="228.07033"
       sodipodi:rx="78.33931"
       sodipodi:ry="105.58777"
       d="M 213.90038,228.07033 A 78.33931,105.58777 0 0 1 135.56107,333.6581 78.33931,105.58777 0 0 1 57.221756,228.07033 78.33931,105.58777 0 0 1 135.56107,122.48256 78.33931,105.58777 0 0 1 213.90038,228.07033 Z"
       transform="matrix(0.375519,0,0,0.26892006,125.52799,929.03926)" />
  </g>
</svg>
