<?xml version="1.0" encoding="UTF-8" standalone="no"?>
<!-- Created with Inkscape (http://www.inkscape.org/) -->

<svg
   xmlns:dc="http://purl.org/dc/elements/1.1/"
   xmlns:cc="http://creativecommons.org/ns#"
   xmlns:rdf="http://www.w3.org/1999/02/22-rdf-syntax-ns#"
   xmlns:svg="http://www.w3.org/2000/svg"
   xmlns="http://www.w3.org/2000/svg"
   xmlns:sodipodi="http://sodipodi.sourceforge.net/DTD/sodipodi-0.dtd"
   xmlns:inkscape="http://www.inkscape.org/namespaces/inkscape"
   width="64"
   height="64"
   id="svg5121"
   version="1.1"
   inkscape:version="0.92.1 r15371"
   sodipodi:docname="application-exit.svg">
  <defs
     id="defs5123" />
  <sodipodi:namedview
     id="base"
     pagecolor="#ffffff"
     bordercolor="#666666"
     borderopacity="1.0"
     inkscape:pageopacity="0.0"
     inkscape:pageshadow="2"
     inkscape:zoom="4.1821158"
     inkscape:cx="2.6391898"
     inkscape:cy="20.150086"
     inkscape:document-units="px"
     inkscape:current-layer="layer1"
     showgrid="true"
     inkscape:window-width="1920"
     inkscape:window-height="1027"
     inkscape:window-x="0"
     inkscape:window-y="25"
     inkscape:window-maximized="1"
     showguides="true"
     inkscape:guide-bbox="true">
    <inkscape:grid
       type="xygrid"
       id="grid20" />
  </sodipodi:namedview>
  <metadata
     id="metadata5126">
    <rdf:RDF>
      <cc:Work
         rdf:about="">
        <dc:format>image/svg+xml</dc:format>
        <dc:type
           rdf:resource="http://purl.org/dc/dcmitype/StillImage" />
        <dc:title></dc:title>
      </cc:Work>
    </rdf:RDF>
  </metadata>
  <g
     inkscape:label="Capa 1"
     inkscape:groupmode="layer"
     id="layer1"
     transform="translate(0,-1058.5197)">
    <g
       inkscape:label="status"
       transform="translate(-202.06939,344.4202)"
       id="layer9"
       style="display:inline" />
    <g
       inkscape:label="devices"
       transform="translate(-202.06939,344.4202)"
       id="layer10" />
    <g
       inkscape:label="apps"
       transform="translate(-202.06939,344.4202)"
       id="layer11" />
    <g
       inkscape:label="places"
       transform="translate(-202.06939,344.4202)"
       id="layer13" />
    <g
       inkscape:label="mimetypes"
       transform="translate(-202.06939,344.4202)"
       id="layer14" />
    <g
       inkscape:label="emblems"
       transform="translate(-202.06939,344.4202)"
       id="layer15"
       style="display:inline" />
    <g
       inkscape:label="emotes"
       transform="translate(-202.06939,344.4202)"
       id="g71291"
       style="display:inline" />
    <g
       inkscape:label="categories"
       transform="translate(-202.06939,344.4202)"
       id="g4953"
       style="display:inline" />
    <path
       style="opacity:1;fill:#d40000;fill-opacity:1;stroke:none;stroke-width:0.5669291;stroke-miterlimit:4;stroke-dasharray:none;stroke-opacity:1;paint-order:markers stroke fill"
       d="M 30 9 L 30 14 L 30 49 L 30 54 L 50 54 L 50 49 L 35 49 L 35 14 L 50 14 L 50 9 L 35 9 L 30 9 z "
       transform="translate(0,1058.5197)"
       id="rect24" />
    <path
       style="opacity:1;fill:#d40000;fill-opacity:1;stroke:none;stroke-width:0.73190576;stroke-miterlimit:4;stroke-dasharray:none;stroke-opacity:1;paint-order:markers stroke fill"
       d="M 14 19 L 14 21 L 16 21 L 16 23 L 18 23 L 18 25 L 20 25 L 20 27 L 22 27 L 22 28 L 5 28 L 5 33 L 22 33 L 22 34 L 20 34 L 20 36 L 18 36 L 18 38 L 16 38 L 16 40 L 14 40 L 14 42 L 16 42 L 20 42 L 20 40 L 22 40 L 22 38 L 24 38 L 24 36 L 26 36 L 26 34 L 28 34 L 28 33 L 30 33 L 30 28 L 28 28 L 28 27 L 26 27 L 26 25 L 24 25 L 24 23 L 22 23 L 22 21 L 20 21 L 20 19 L 16 19 L 14 19 z "
       transform="translate(0,1058.5197)"
       id="rect28" />
    <path
       style="opacity:1;fill:#d40000;fill-opacity:1;stroke:none;stroke-width:0.53982502;stroke-miterlimit:4;stroke-dasharray:none;stroke-opacity:1;paint-order:markers stroke fill"
       d="M 58 10 L 58 11 L 56 11 L 56 12 L 53 12 L 53 13 L 50 13 L 50 14 L 50 16 L 50 46 L 50 48 L 50 49 L 53 49 L 53 50 L 56 50 L 56 51 L 58 51 L 58 52 L 60 52 L 60 51 L 60 49 L 60 48 L 60 46 L 60 16 L 60 14 L 60 13 L 60 12 L 60 11 L 60 10 L 58 10 z "
       transform="translate(0,1058.5197)"
       id="rect40" />
  </g>
</svg>
