<?xml version="1.0" encoding="UTF-8" standalone="no"?>
<!-- Created with Inkscape (http://www.inkscape.org/) -->

<svg
   xmlns:dc="http://purl.org/dc/elements/1.1/"
   xmlns:cc="http://creativecommons.org/ns#"
   xmlns:rdf="http://www.w3.org/1999/02/22-rdf-syntax-ns#"
   xmlns:svg="http://www.w3.org/2000/svg"
   xmlns="http://www.w3.org/2000/svg"
   xmlns:sodipodi="http://sodipodi.sourceforge.net/DTD/sodipodi-0.dtd"
   xmlns:inkscape="http://www.inkscape.org/namespaces/inkscape"
   width="16"
   height="16"
   id="svg2"
   version="1.1"
   inkscape:version="0.92.1 r15371"
   sodipodi:docname="left.svg">
  <defs
     id="defs4" />
  <sodipodi:namedview
     id="base"
     pagecolor="#ffffff"
     bordercolor="#666666"
     borderopacity="1.0"
     inkscape:pageopacity="0.0"
     inkscape:pageshadow="2"
     inkscape:zoom="40.826248"
     inkscape:cx="0.1181093"
     inkscape:cy="7.5598656"
     inkscape:document-units="px"
     inkscape:current-layer="layer1"
     showgrid="true"
     inkscape:window-width="1920"
     inkscape:window-height="1027"
     inkscape:window-x="0"
     inkscape:window-y="25"
     inkscape:window-maximized="1">
    <inkscape:grid
       type="xygrid"
       id="grid816" />
  </sodipodi:namedview>
  <metadata
     id="metadata7">
    <rdf:RDF>
      <cc:Work
         rdf:about="">
        <dc:format>image/svg+xml</dc:format>
        <dc:type
           rdf:resource="http://purl.org/dc/dcmitype/StillImage" />
        <dc:title />
      </cc:Work>
    </rdf:RDF>
  </metadata>
  <g
     inkscape:label="Capa 1"
     inkscape:groupmode="layer"
     id="layer1"
     transform="translate(0,-1036.3622)">
    <path
       style="color:#bebebe;font-style:normal;font-variant:normal;font-weight:normal;font-stretch:normal;font-size:medium;line-height:normal;font-family:'Andale Mono';-inkscape-font-specification:'Andale Mono';text-indent:0;text-align:start;text-decoration:none;text-decoration-line:none;letter-spacing:normal;word-spacing:normal;text-transform:none;writing-mode:lr-tb;direction:ltr;text-anchor:start;display:inline;overflow:visible;visibility:visible;fill:#216778;fill-opacity:1;fill-rule:nonzero;stroke:none;stroke-width:2.34170747;marker:none;enable-background:new"
       d="M 9 1 L 9 2 L 8 2 L 8 3 L 7 3 L 7 4 L 6 4 L 6 5 L 5 5 L 5 6 L 4 6 L 4 7 L 3 7 L 3 8 L 3 9 L 4 9 L 4 10 L 5 10 L 5 9.9882812 L 5.0117188 10 L 5 10 L 5 11 L 6 11 L 6 10.976562 L 6.0234375 11 L 6 11 L 6 12 L 7 12 L 7 11.964844 L 7.0351562 12 L 7 12 L 7 13 L 8 13 L 8 12.953125 L 8.0488281 13 L 8 13 L 8 14 L 9 14 L 9 13.941406 L 9.0605469 14 L 9 14 L 9 15 L 10 15 L 11 15 L 11 14 L 12 14 L 12 13 L 12 12 L 11 12 L 11 11 L 10 11 L 10 10 L 9 10 L 9 9 L 8 9 L 8 8 L 8 7 L 9 7 L 9 6 L 10 6 L 10 5 L 11 5 L 11 4 L 12 4 L 12 3 L 12 2 L 11 2 L 11 1 L 10 1 L 9 1 z "
       transform="translate(0,1036.3622)"
       id="path10839-9-9-3-0-4-3" />
  </g>
</svg>
