<?xml version="1.0" encoding="UTF-8" standalone="no"?>
<!-- Created with Inkscape (http://www.inkscape.org/) -->

<svg
   xmlns:dc="http://purl.org/dc/elements/1.1/"
   xmlns:cc="http://creativecommons.org/ns#"
   xmlns:rdf="http://www.w3.org/1999/02/22-rdf-syntax-ns#"
   xmlns:svg="http://www.w3.org/2000/svg"
   xmlns="http://www.w3.org/2000/svg"
   xmlns:sodipodi="http://sodipodi.sourceforge.net/DTD/sodipodi-0.dtd"
   xmlns:inkscape="http://www.inkscape.org/namespaces/inkscape"
   width="273.06668"
   height="273.06668"
   viewBox="0 0 256 256"
   id="svg2"
   version="1.1"
   inkscape:version="0.92.1 r15371"
   sodipodi:docname="dialog-warning.svg">
  <defs
     id="defs4" />
  <sodipodi:namedview
     id="base"
     pagecolor="#ffffff"
     bordercolor="#666666"
     borderopacity="1.0"
     inkscape:pageopacity="0.0"
     inkscape:pageshadow="2"
     inkscape:zoom="2.0262787"
     inkscape:cx="166.44479"
     inkscape:cy="129.87967"
     inkscape:document-units="px"
     inkscape:current-layer="layer1"
     showgrid="true"
     units="px"
     inkscape:window-width="1920"
     inkscape:window-height="1027"
     inkscape:window-x="0"
     inkscape:window-y="25"
     inkscape:window-maximized="1"
     inkscape:snap-bbox="true"
     inkscape:bbox-paths="true"
     inkscape:bbox-nodes="true"
     inkscape:snap-grids="true">
    <inkscape:grid
       type="xygrid"
       id="grid4136"
       spacingx="2"
       spacingy="2"
       empspacing="8"
       dotted="false"
       visible="true"
       enabled="true"
       snapvisiblegridlinesonly="true"
       originx="0"
       originy="0" />
  </sodipodi:namedview>
  <metadata
     id="metadata7">
    <rdf:RDF>
      <cc:Work
         rdf:about="">
        <dc:format>image/svg+xml</dc:format>
        <dc:type
           rdf:resource="http://purl.org/dc/dcmitype/StillImage" />
        <dc:title />
      </cc:Work>
    </rdf:RDF>
  </metadata>
  <g
     inkscape:label="Capa 1"
     inkscape:groupmode="layer"
     id="layer1"
     transform="translate(0,-796.36216)">
    <path
       style="fill:#ffcc00;fill-opacity:1;stroke:none;stroke-width:1.50849497"
       d="M 119.4668 17.066406 L 119.4668 51.199219 L 102.40039 51.199219 L 102.40039 68.267578 L 102.40039 85.333984 L 85.333984 85.333984 L 85.333984 102.40039 L 85.333984 119.4668 L 68.267578 119.4668 L 68.267578 136.5332 L 68.267578 153.59961 L 51.199219 153.59961 L 51.199219 170.66602 L 51.199219 187.72266 L 34.132812 187.72266 L 34.132812 221.86719 L 17.066406 221.86719 L 17.066406 238.93359 L 17.066406 256 L 153.59961 256 L 256 256 L 256 238.93359 L 256 221.86719 L 238.93359 221.86719 L 238.93359 187.72266 L 221.86719 187.72266 L 221.86719 170.66602 L 221.86719 153.59961 L 204.80078 153.59961 L 204.80078 136.5332 L 204.80078 119.4668 L 187.73242 119.4668 L 187.73242 102.40039 L 187.73242 85.333984 L 170.66602 85.333984 L 170.66602 68.267578 L 170.66602 51.199219 L 153.59961 51.199219 L 153.59961 17.066406 L 136.5332 17.066406 L 119.4668 17.066406 z M 125.86719 85.333984 L 147.19922 85.333984 L 147.19922 102.40039 L 147.19922 119.4668 L 147.19922 136.5332 L 147.19922 153.59961 L 147.19922 170.66602 L 147.19922 187.72266 L 125.86719 187.72266 L 125.86719 170.66602 L 125.86719 153.59961 L 125.86719 136.5332 L 125.86719 119.4668 L 123.73242 119.4668 L 123.73242 102.40039 L 125.86719 102.40039 L 125.86719 85.333984 z "
       transform="matrix(0.93749995,0,0,0.93749995,0,796.36216)"
       id="rect3022-1-90-9" />
    <rect
       style="fill:#ffffff;fill-opacity:1;stroke:none;stroke-width:0.86602545"
       id="rect3022-1-90-990"
       width="24"
       height="95.999977"
       x="116"
       y="876.36218" />
    <rect
       style="fill:#ffffff;fill-opacity:1;stroke:none;stroke-width:0.5929265"
       id="rect3022-1-90-36"
       width="20"
       height="17.999977"
       x="118"
       y="988.36218" />
  </g>
  <g
     inkscape:groupmode="layer"
     id="layer2"
     inkscape:label="Capa 2" />
</svg>
