<?xml version="1.0" encoding="UTF-8" standalone="no"?>
<!-- Created with Inkscape (http://www.inkscape.org/) -->

<svg
   xmlns:dc="http://purl.org/dc/elements/1.1/"
   xmlns:cc="http://creativecommons.org/ns#"
   xmlns:rdf="http://www.w3.org/1999/02/22-rdf-syntax-ns#"
   xmlns:svg="http://www.w3.org/2000/svg"
   xmlns="http://www.w3.org/2000/svg"
   xmlns:sodipodi="http://sodipodi.sourceforge.net/DTD/sodipodi-0.dtd"
   xmlns:inkscape="http://www.inkscape.org/namespaces/inkscape"
   width="16"
   height="16"
   id="svg2"
   version="1.1"
   inkscape:version="0.92.1 r15371"
   sodipodi:docname="document-revert.svg">
  <defs
     id="defs4" />
  <sodipodi:namedview
     id="base"
     pagecolor="#828282"
     bordercolor="#666666"
     borderopacity="1.0"
     inkscape:pageopacity="0"
     inkscape:pageshadow="2"
     inkscape:zoom="5.8718922"
     inkscape:cx="-53.305883"
     inkscape:cy="3.5841624"
     inkscape:document-units="px"
     inkscape:current-layer="layer1"
     showgrid="true"
     inkscape:window-width="1920"
     inkscape:window-height="1027"
     inkscape:window-x="0"
     inkscape:window-y="25"
     inkscape:window-maximized="1">
    <inkscape:grid
       type="xygrid"
       id="grid821" />
  </sodipodi:namedview>
  <metadata
     id="metadata7">
    <rdf:RDF>
      <cc:Work
         rdf:about="">
        <dc:format>image/svg+xml</dc:format>
        <dc:type
           rdf:resource="http://purl.org/dc/dcmitype/StillImage" />
        <dc:title></dc:title>
      </cc:Work>
    </rdf:RDF>
  </metadata>
  <g
     inkscape:label="Capa 1"
     inkscape:groupmode="layer"
     id="layer1"
     transform="translate(0,-1106.5197)">
    <g
       transform="matrix(31.755805,0,0,31.755805,-2166.8867,-16830.531)"
       id="layer9-7"
       style="display:inline;fill:#666666;fill-opacity:1" />
    <g
       style="fill:#666666;fill-opacity:1"
       transform="matrix(31.755805,0,0,31.755805,-2166.8867,-16830.531)"
       id="layer10-8" />
    <g
       style="fill:#666666;fill-opacity:1"
       transform="matrix(31.755805,0,0,31.755805,-2166.8867,-16830.531)"
       id="layer11-2" />
    <g
       style="fill:#666666;fill-opacity:1"
       transform="matrix(31.755805,0,0,31.755805,-2166.8867,-16830.531)"
       id="layer13-8" />
    <g
       style="fill:#666666;fill-opacity:1"
       transform="matrix(31.755805,0,0,31.755805,-2166.8867,-16830.531)"
       id="layer14-0" />
    <g
       style="fill:#666666;fill-opacity:1"
       transform="matrix(31.755805,0,0,31.755805,-2166.8867,-16830.531)"
       id="layer15-2" />
    <path
       style="opacity:1;fill:#d7eef4;fill-opacity:1;stroke:none;stroke-width:0.12247431;stroke-miterlimit:4;stroke-dasharray:none;stroke-opacity:1"
       d="m 3.999999,1108.5197 v 12 h 4 1 H 12 v -8 H 8.999999 v -4 z"
       id="rect14583"
       inkscape:connector-curvature="0" />
    <path
       style="color:#000000;font-style:normal;font-variant:normal;font-weight:normal;font-stretch:normal;font-size:medium;line-height:normal;font-family:Sans;-inkscape-font-specification:Sans;text-indent:0;text-align:start;text-decoration:none;text-decoration-line:none;letter-spacing:normal;word-spacing:normal;text-transform:none;writing-mode:lr-tb;direction:ltr;baseline-shift:baseline;text-anchor:start;display:inline;overflow:visible;visibility:visible;fill:#37abc8;fill-opacity:1;stroke:none;stroke-width:0.03993938;stroke-miterlimit:4;stroke-dasharray:none;marker:none;enable-background:accumulate"
       d="m 3,1108.5197 v 12 1 h 9 v -1 H 4 v -11 h 4.9765625 l 0.023437,3 h 3.023438 l -0.02344,9 h 1 v -9 l -3,-4 z"
       id="path1234-3-5"
       inkscape:connector-curvature="0" />
    <path
       style="opacity:1;fill:#c83737;fill-opacity:1;stroke:none;stroke-width:3.64724398;stroke-miterlimit:4;stroke-dasharray:none;stroke-opacity:1"
       d="m 25,1111.5197 v 1 h -1 v 1 h -1 v 1 h -1 v 1 1 h 1 v 1 h 1 v 1 h 1 v 1 h 1 v -3 h 4 v 1 h 1 v 1 h -1 v 1 h -1 v 1 1 h 1 1 v -1 h 1 v -1 h 1 v -3 h -1 v -1 h -1 v -1 h -1 -4 v -3 z"
       id="rect2088"
       inkscape:connector-curvature="0"
       sodipodi:nodetypes="ccccccccccccccccccccccccccccccccccccccccc" />
    <path
       style="fill:#d40000;fill-opacity:1;stroke:none;stroke-width:1px;stroke-linecap:butt;stroke-linejoin:miter;stroke-opacity:1"
       d="M 8,1112.5197 H 7 v 1 H 6 v 1 H 5 v 1 h 1 v 1 h 1 v 1 h 1 v 1 h 1 v -7 H 8 Z"
       id="path3047"
       inkscape:connector-curvature="0" />
    <path
       style="fill:#d40000;fill-opacity:1;stroke:none;stroke-width:1px;stroke-linecap:butt;stroke-linejoin:miter;stroke-opacity:1"
       d="m 13,1112.5197 h -1 v 1 h -1 v 1 h -1 v 1 h 1 v 1 h 1 v 1 h 1 v 1 h 1 v -7 h -1 z"
       id="path3047-2"
       inkscape:connector-curvature="0" />
  </g>
</svg>
