<?xml version="1.0" encoding="UTF-8" standalone="no"?>
<!-- Created with Inkscape (http://www.inkscape.org/) -->

<svg
   xmlns:dc="http://purl.org/dc/elements/1.1/"
   xmlns:cc="http://creativecommons.org/ns#"
   xmlns:rdf="http://www.w3.org/1999/02/22-rdf-syntax-ns#"
   xmlns:svg="http://www.w3.org/2000/svg"
   xmlns="http://www.w3.org/2000/svg"
   xmlns:sodipodi="http://sodipodi.sourceforge.net/DTD/sodipodi-0.dtd"
   xmlns:inkscape="http://www.inkscape.org/namespaces/inkscape"
   width="16"
   height="16"
   id="svg2"
   version="1.1"
   inkscape:version="0.92.1 r15371"
   sodipodi:docname="filequickprint.svg">
  <defs
     id="defs4" />
  <sodipodi:namedview
     id="base"
     pagecolor="#828282"
     bordercolor="#666666"
     borderopacity="1.0"
     inkscape:pageopacity="0"
     inkscape:pageshadow="2"
     inkscape:zoom="11.743784"
     inkscape:cx="-26.529973"
     inkscape:cy="3.544908"
     inkscape:document-units="px"
     inkscape:current-layer="layer1"
     showgrid="true"
     inkscape:window-width="1920"
     inkscape:window-height="1027"
     inkscape:window-x="0"
     inkscape:window-y="25"
     inkscape:window-maximized="1">
    <inkscape:grid
       type="xygrid"
       id="grid821" />
  </sodipodi:namedview>
  <metadata
     id="metadata7">
    <rdf:RDF>
      <cc:Work
         rdf:about="">
        <dc:format>image/svg+xml</dc:format>
        <dc:type
           rdf:resource="http://purl.org/dc/dcmitype/StillImage" />
        <dc:title></dc:title>
      </cc:Work>
    </rdf:RDF>
  </metadata>
  <g
     inkscape:label="Capa 1"
     inkscape:groupmode="layer"
     id="layer1"
     transform="translate(0,-1106.5197)"
     style="opacity:1">
    <g
       transform="matrix(31.755805,0,0,31.755805,-2166.8867,-16830.531)"
       id="layer9-7"
       style="display:inline;fill:#666666;fill-opacity:1" />
    <g
       style="fill:#666666;fill-opacity:1"
       transform="matrix(31.755805,0,0,31.755805,-2166.8867,-16830.531)"
       id="layer10-8" />
    <g
       style="fill:#666666;fill-opacity:1"
       transform="matrix(31.755805,0,0,31.755805,-2166.8867,-16830.531)"
       id="layer11-2" />
    <g
       style="fill:#666666;fill-opacity:1"
       transform="matrix(31.755805,0,0,31.755805,-2166.8867,-16830.531)"
       id="layer13-8" />
    <g
       style="fill:#666666;fill-opacity:1"
       transform="matrix(31.755805,0,0,31.755805,-2166.8867,-16830.531)"
       id="layer14-0" />
    <g
       style="fill:#666666;fill-opacity:1"
       transform="matrix(31.755805,0,0,31.755805,-2166.8867,-16830.531)"
       id="layer15-2" />
    <rect
       style="opacity:1;fill:#37abc8;fill-opacity:1;stroke:none;stroke-width:3.64724398;stroke-miterlimit:4;stroke-dasharray:none;stroke-opacity:1"
       id="rect3101"
       width="10"
       height="4.0000753"
       x="3"
       y="1108.5197" />
    <rect
       style="opacity:1;fill:#d7eef4;fill-opacity:1;stroke:none;stroke-width:1.90472591;stroke-miterlimit:4;stroke-dasharray:none;stroke-opacity:1"
       id="rect3145"
       width="8"
       height="3.0000467"
       x="4"
       y="1109.5197" />
    <path
       style="fill:#dbe3e2;stroke:none;stroke-width:1px;stroke-linecap:butt;stroke-linejoin:miter;stroke-opacity:1"
       d="m 2,1118.5197 v -6 h 1 v 0 h 11 v 0 0 6 h -1 v -2 H 3 v 2 z"
       id="path3099"
       inkscape:connector-curvature="0"
       sodipodi:nodetypes="ccccccccccccc" />
    <rect
       style="opacity:1;fill:#53676c;fill-opacity:1;stroke:none;stroke-width:3.64724398;stroke-miterlimit:4;stroke-dasharray:none;stroke-opacity:1"
       id="rect3103"
       width="10"
       height="1"
       x="3"
       y="1115.5197" />
    <path
       style="color:#000000;font-style:normal;font-variant:normal;font-weight:normal;font-stretch:normal;font-size:medium;line-height:normal;font-family:Sans;-inkscape-font-specification:Sans;text-indent:0;text-align:start;text-decoration:none;text-decoration-line:none;letter-spacing:normal;word-spacing:normal;text-transform:none;writing-mode:lr-tb;direction:ltr;baseline-shift:baseline;text-anchor:start;display:inline;overflow:visible;visibility:visible;fill:#37abc8;fill-opacity:1;stroke:none;stroke-width:0.03993938;stroke-miterlimit:4;stroke-dasharray:none;marker:none;enable-background:accumulate"
       d="m 3.0234355,1108.5197 -0.023435,12 v 1 h 9.0000025 v -1 H 4 l 0.023435,-11 h 8.000003 l -0.02344,12 h 1 l -2e-6,-12 2e-6,-1 z"
       id="path1234-3-5"
       inkscape:connector-curvature="0"
       sodipodi:nodetypes="ccccccccccccc" />
    <rect
       style="opacity:1;fill:#b7c8c4;fill-opacity:1;stroke:none;stroke-width:3.64724398;stroke-miterlimit:4;stroke-dasharray:none;stroke-opacity:1"
       id="rect3105"
       width="1"
       height="6"
       x="1"
       y="1112.5197" />
    <rect
       style="opacity:1;fill:#536c67;fill-opacity:1;stroke:none;stroke-width:3.64724398;stroke-miterlimit:4;stroke-dasharray:none;stroke-opacity:1"
       id="rect3111"
       width="2"
       height="1"
       x="1"
       y="1118.5197" />
    <rect
       style="opacity:1;fill:#b7c8c4;fill-opacity:1;stroke:none;stroke-width:3.64724398;stroke-miterlimit:4;stroke-dasharray:none;stroke-opacity:1"
       id="rect3105-9"
       width="1"
       height="6"
       x="14"
       y="1112.5197" />
    <rect
       style="opacity:0.4;fill:#00aad4;fill-opacity:1;stroke:none;stroke-width:3.64724398;stroke-miterlimit:4;stroke-dasharray:none;stroke-opacity:1"
       id="rect3216"
       width="14"
       height="6"
       x="1"
       y="1113.5197" />
    <rect
       style="opacity:1;fill:#536c67;fill-opacity:1;stroke:none;stroke-width:3.64724398;stroke-miterlimit:4;stroke-dasharray:none;stroke-opacity:1"
       id="rect3111-2"
       width="2"
       height="1"
       x="13"
       y="1118.5197" />
    <rect
       style="opacity:1;fill:#dbe3e2;fill-opacity:1;stroke:none;stroke-width:5.15804195;stroke-miterlimit:4;stroke-dasharray:none;stroke-opacity:1"
       id="rect3147"
       width="2"
       height="2.0000467"
       x="1"
       y="1111.5197" />
    <rect
       style="opacity:1;fill:#dbe3e2;fill-opacity:1;stroke:none;stroke-width:5.15804195;stroke-miterlimit:4;stroke-dasharray:none;stroke-opacity:1"
       id="rect3149"
       width="2"
       height="2.0000467"
       x="13"
       y="1111.5197" />
    <rect
       style="opacity:1;fill:#6f918a;fill-opacity:1;stroke:none;stroke-width:3.64724398;stroke-miterlimit:4;stroke-dasharray:none;stroke-opacity:1"
       id="rect3151"
       width="1"
       height="1"
       x="5"
       y="1110.5197" />
    <rect
       style="opacity:1;fill:#6f918a;fill-opacity:1;stroke:none;stroke-width:3.64724398;stroke-miterlimit:4;stroke-dasharray:none;stroke-opacity:1"
       id="rect3151-6"
       width="1"
       height="1"
       x="7"
       y="1110.5197" />
    <rect
       style="opacity:1;fill:#d7eef4;fill-opacity:1;stroke:none;stroke-width:3.29905629;stroke-miterlimit:4;stroke-dasharray:none;stroke-opacity:1"
       id="rect3145-0"
       width="8"
       height="9"
       x="4"
       y="1111.5197" />
    <rect
       style="opacity:1;fill:#6f918a;fill-opacity:1;stroke:none;stroke-width:5.15798187;stroke-miterlimit:4;stroke-dasharray:none;stroke-opacity:1"
       id="rect3151-64"
       width="2"
       height="1"
       x="9"
       y="1110.5197" />
    <rect
       style="opacity:1;fill:#6f918a;fill-opacity:1;stroke:none;stroke-width:3.64724398;stroke-miterlimit:4;stroke-dasharray:none;stroke-opacity:1"
       id="rect3151-9"
       width="1"
       height="1"
       x="8"
       y="1111.5197" />
    <rect
       style="opacity:1;fill:#6f918a;fill-opacity:1;stroke:none;stroke-width:3.64724398;stroke-miterlimit:4;stroke-dasharray:none;stroke-opacity:1"
       id="rect3151-5"
       width="1"
       height="1"
       x="5"
       y="1112.5197" />
    <rect
       style="opacity:1;fill:#6f918a;fill-opacity:1;stroke:none;stroke-width:5.15798187;stroke-miterlimit:4;stroke-dasharray:none;stroke-opacity:1"
       id="rect3151-9-6"
       width="2"
       height="1"
       x="9"
       y="1113.5197" />
    <rect
       style="opacity:1;fill:#6f918a;fill-opacity:1;stroke:none;stroke-width:5.15798187;stroke-miterlimit:4;stroke-dasharray:none;stroke-opacity:1"
       id="rect3151-5-8"
       width="2"
       height="1"
       x="6"
       y="1113.5197" />
    <rect
       style="opacity:1;fill:#6f918a;fill-opacity:1;stroke:none;stroke-width:7.29448795;stroke-miterlimit:4;stroke-dasharray:none;stroke-opacity:1"
       id="rect3151-9-3"
       width="4"
       height="1"
       x="7"
       y="1115.5197" />
    <rect
       style="opacity:1;fill:#6f918a;fill-opacity:1;stroke:none;stroke-width:3.64724398;stroke-miterlimit:4;stroke-dasharray:none;stroke-opacity:1"
       id="rect3151-5-83"
       width="1"
       height="1"
       x="5"
       y="1115.5197" />
    <rect
       style="opacity:1;fill:#6f918a;fill-opacity:1;stroke:none;stroke-width:3.64724398;stroke-miterlimit:4;stroke-dasharray:none;stroke-opacity:1"
       id="rect3151-9-33"
       width="1"
       height="1"
       x="7"
       y="1117.5197" />
    <rect
       style="opacity:1;fill:#6f918a;fill-opacity:1;stroke:none;stroke-width:3.64724398;stroke-miterlimit:4;stroke-dasharray:none;stroke-opacity:1"
       id="rect3151-5-80"
       width="1"
       height="1"
       x="5"
       y="1117.5197" />
    <rect
       style="opacity:1;fill:#6f918a;fill-opacity:1;stroke:none;stroke-width:3.64724398;stroke-miterlimit:4;stroke-dasharray:none;stroke-opacity:1"
       id="rect3151-9-33-4"
       width="1"
       height="1"
       x="9"
       y="1118.5197" />
  </g>
  <g
     inkscape:groupmode="layer"
     id="layer6"
     inkscape:label="Capa 2"
     style="display:none">
    <path
       style="display:inline;opacity:0.49979996;fill:#374548;fill-opacity:1;stroke:none;stroke-width:0.81367522;paint-order:markers stroke fill"
       d="M 6,2.675781 V 3.490235 H 5.1875 v 0.8125 H 4.373047 v 0.814453 h -0.8125 v 3.253906 h 0.8125 V 9.185547 H 5.1875 V 10 H 6 v 0.8125 h 0.814453 0.814453 0.8125 0.814453 V 10 h 0.8125 0.814453 V 9.185547 8.371094 h 0.814453 V 5.117188 H 10.882812 V 4.302735 h -0.814453 v -0.8125 h -0.8125 V 2.675781 Z M 10.882812,10 v 0.8125 0.814453 h 0.814453 v 0.8125 h 0.8125 v 0.814453 h 0.814454 0.8125 v -0.814453 -0.8125 h -0.8125 V 10.8125 H 12.509765 V 10 h -0.8125 z"
       id="rect4752-7-9-1"
       inkscape:connector-curvature="0" />
    <path
       style="display:inline;opacity:1;fill:#374845;fill-opacity:1;stroke:none;stroke-width:0.81367522;paint-order:markers stroke fill"
       d="M 6.6512819,1.5367521 V 2.3504274 H 7.4649572 8.2786324 9.0923076 9.9059828 V 1.5367521 H 9.0923076 8.2786324 7.4649572 Z"
       id="rect4752-7-9"
       inkscape:connector-curvature="0" />
    <path
       style="display:inline;opacity:1;fill:#dbe2e3;fill-opacity:1;stroke:none;stroke-width:0.81367522;paint-order:markers stroke fill"
       d="M 10.719658,3.1641026 V 3.9777778 4.791453 5.6051282 6.4188034 h 0.813675 V 5.6051282 4.791453 3.9777778 3.1641026 Z"
       id="rect4752-2-3"
       inkscape:connector-curvature="0" />
    <rect
       style="display:inline;opacity:1;fill:#dbe2e3;fill-opacity:1;stroke:none;stroke-width:0.81367522;paint-order:markers stroke fill"
       id="rect4752-27-3"
       width="0.81367522"
       height="0.81367522"
       x="9.905983"
       y="6.4188032" />
    <path
       style="display:inline;opacity:1;fill:#dbe2e3;fill-opacity:1;stroke:none;stroke-width:0.81367522;paint-order:markers stroke fill"
       d="M 6.6512819,7.2324786 V 8.0461538 H 7.4649572 8.2786324 9.0923076 9.9059828 V 7.2324786 H 9.0923076 8.2786324 7.4649572 Z"
       id="rect4752-0-0"
       inkscape:connector-curvature="0" />
    <path
       style="display:inline;opacity:1;fill:#53676c;fill-opacity:1;stroke:none;stroke-width:0.81367522;paint-order:markers stroke fill"
       d="M 6.6512819,8.0461538 V 8.859829 H 7.4649572 8.2786324 9.0923076 V 8.0461538 H 8.2786324 7.4649572 Z"
       id="rect4752-93-9"
       inkscape:connector-curvature="0" />
    <rect
       style="display:inline;opacity:1;fill:#93aca7;fill-opacity:1;stroke:none;stroke-width:0.81367522;paint-order:markers stroke fill"
       id="rect4752-12-3-2"
       width="0.81367522"
       height="0.81367522"
       x="5.0239315"
       y="2.3504274" />
    <rect
       style="display:inline;opacity:1;fill:#374845;fill-opacity:1;stroke:none;stroke-width:0.81367522;paint-order:markers stroke fill"
       id="rect4752-12-7-7"
       width="0.81367522"
       height="0.81367522"
       x="5.8376069"
       y="2.3504274" />
    <path
       style="display:inline;opacity:1;fill:#93a7ac;fill-opacity:1;stroke:none;stroke-width:0.81367522;paint-order:markers stroke fill"
       d="m 11.533333,3.1641026 v 3.2547008 h 0.813675 V 3.1641026 Z m 0,3.2547008 h -0.813675 v 0.8136752 h 0.813675 z M 10.719658,7.2324786 H 9.9059828 v 0.8136752 h 0.8136752 z"
       id="rect4752-12-4-4"
       inkscape:connector-curvature="0"
       sodipodi:nodetypes="ccccccccccccccc" />
    <rect
       style="display:inline;opacity:1;fill:#53676c;fill-opacity:1;stroke:none;stroke-width:0.81367522;paint-order:markers stroke fill"
       id="rect4752-12-0-1"
       width="0.81367522"
       height="0.81367522"
       x="9.092308"
       y="8.046154" />
    <path
       style="display:inline;opacity:1;fill:#53676c;fill-opacity:1;stroke:none;stroke-width:0.81367522;paint-order:markers stroke fill"
       d="m 10.719658,6.4188034 v 0.8136752 h 0.813675 V 6.4188034 Z m 0,0.8136752 H 9.9059828 v 0.8136752 h 0.8136752 z"
       id="rect4752-12-36-2"
       inkscape:connector-curvature="0" />
    <rect
       style="display:inline;opacity:1;fill:#93aca7;fill-opacity:1;stroke:none;stroke-width:0.81367522;paint-order:markers stroke fill"
       id="rect4752-12-74-8"
       width="0.81367522"
       height="0.81367522"
       x="10.719658"
       y="6.4188032" />
    <rect
       style="display:inline;opacity:1;fill:#93aca7;fill-opacity:1;stroke:none;stroke-width:0.81367522;paint-order:markers stroke fill"
       id="rect4752-12-47-3"
       width="0.81367522"
       height="0.81367522"
       x="5.0239315"
       y="6.4188032" />
    <path
       style="display:inline;opacity:1;fill:#afdde9;fill-opacity:1;stroke:none;stroke-width:0.81367522;paint-order:markers stroke fill"
       d="M 6.6512819,0.72307693 V 1.5367521 c 1.0849003,0 2.1698006,0 3.2547009,0 V 0.72307693 c -1.0849003,0 -2.1698006,0 -3.2547009,0 z M 9.9059828,1.5367521 V 2.3504274 H 10.719658 V 1.5367521 Z m 0.8136752,0.8136753 v 0.8136752 h 0.813675 V 2.3504274 Z M 6.6512819,1.5367521 H 5.8376067 V 2.3504274 H 6.6512819 Z M 5.8376067,2.3504274 H 5.0239315 V 3.1641026 H 5.8376067 Z M 5.0239315,3.1641026 H 4.2102563 c 0,1.0849002 0,2.1698005 0,3.2547008 h 0.8136752 c 0,-1.0849003 0,-2.1698006 0,-3.2547008 z m 0,3.2547008 V 7.2324786 H 5.8376067 V 6.4188034 Z M 5.8376067,7.2324786 V 8.0461538 H 6.6512819 V 7.2324786 Z"
       id="rect4752-12-30-8"
       inkscape:connector-curvature="0"
       sodipodi:nodetypes="cccccccccccccccccccccccccccccccccccccccc" />
    <rect
       style="display:inline;opacity:1;fill:#93aca7;fill-opacity:1;stroke:none;stroke-width:0.81367522;paint-order:markers stroke fill"
       id="rect4752-12-78-0"
       width="0.81367522"
       height="0.81367522"
       x="10.719658"
       y="7.2324786" />
    <path
       style="display:inline;opacity:1;fill:#93aca7;fill-opacity:1;stroke:none;stroke-width:0.81367522;paint-order:markers stroke fill"
       d="M 11.533333,8.0461538 V 8.859829 h 0.813675 v 0.8136752 h 0.813676 v 0.8136748 h 0.813675 v 0.813676 h 0.813675 V 10.487179 9.6735042 H 13.974359 V 8.859829 H 13.160684 V 8.0461538 h -0.813676 z"
       id="rect4752-12-84-2"
       inkscape:connector-curvature="0" />
    <path
       style="display:inline;opacity:1;fill:#1c2224;fill-opacity:1;stroke:none;stroke-width:0.81367522;paint-order:markers stroke fill"
       d="m 11.533333,8.859829 v 0.8136752 h 0.813675 V 8.859829 Z m 0.813675,0.8136752 v 0.8136748 h 0.813676 V 9.6735042 Z m 0.813676,0.8136748 v 0.813676 h 0.813675 v -0.813676 z"
       id="rect4752-12-31-1"
       inkscape:connector-curvature="0" />
    <rect
       style="display:inline;opacity:1;fill:#535d6c;fill-opacity:1;stroke:none;stroke-width:0.81367522;paint-order:markers stroke fill"
       id="rect4752-12-2-5"
       width="0.81367522"
       height="0.81367522"
       x="10.719658"
       y="7.2324786" />
    <path
       style="display:inline;opacity:1;fill:#374845;fill-opacity:0.98300656;stroke:none;stroke-width:0.81367522;paint-order:markers stroke fill"
       d="M 5.0239315,3.1641026 V 6.4188034 H 5.8376067 V 3.1641026 Z"
       id="rect4752-12-9-9"
       inkscape:connector-curvature="0"
       sodipodi:nodetypes="ccccc" />
    <path
       style="display:inline;opacity:1;fill:#5fbcd3;fill-opacity:1;stroke:none;stroke-width:0.81367522;paint-order:markers stroke fill"
       d="M 7.4649572,2.3504274 V 3.1641026 H 8.2786324 9.0923076 V 2.3504274 H 8.2786324 Z m 0,0.8136752 H 6.6512819 V 3.9777778 H 7.4649572 Z M 6.6512819,3.9777778 H 5.8376067 V 4.791453 5.6051282 H 6.6512819 V 4.791453 Z"
       id="rect4752-12-8-73-99"
       inkscape:connector-curvature="0" />
    <path
       style="display:inline;opacity:1;fill:#ffffff;fill-opacity:1;stroke:none;stroke-width:0.81367522;paint-order:markers stroke fill"
       d="M 6.6512819,2.3504274 V 3.1641026 H 7.4649572 V 2.3504274 Z m 0,0.8136752 H 5.8376067 v 0.8136752 h 0.8136752 z"
       id="rect4752-12-8-73-6-0"
       inkscape:connector-curvature="0" />
    <path
       style="display:inline;opacity:1;fill:#87cdde;fill-opacity:1;stroke:none;stroke-width:0.81367522;paint-order:markers stroke fill"
       d="M 9.9059828,3.9777778 V 4.791453 5.6051282 H 9.0923076 V 6.4188034 H 8.2786324 7.4649572 V 7.2324786 H 8.2786324 9.0923076 9.9059828 V 6.4188034 H 10.719658 V 5.6051282 4.791453 3.9777778 Z"
       id="rect4752-12-8-73-61-9"
       inkscape:connector-curvature="0" />
  </g>
</svg>
