<?xml version="1.0" encoding="UTF-8" standalone="no"?>
<!-- Created with Inkscape (http://www.inkscape.org/) -->

<svg
   xmlns:dc="http://purl.org/dc/elements/1.1/"
   xmlns:cc="http://creativecommons.org/ns#"
   xmlns:rdf="http://www.w3.org/1999/02/22-rdf-syntax-ns#"
   xmlns:svg="http://www.w3.org/2000/svg"
   xmlns="http://www.w3.org/2000/svg"
   xmlns:sodipodi="http://sodipodi.sourceforge.net/DTD/sodipodi-0.dtd"
   xmlns:inkscape="http://www.inkscape.org/namespaces/inkscape"
   width="16"
   height="16"
   id="svg4374"
   version="1.1"
   inkscape:version="0.92.1 r15371"
   sodipodi:docname="edit-find.svg">
  <defs
     id="defs4376" />
  <sodipodi:namedview
     id="base"
     pagecolor="#ffffff"
     bordercolor="#666666"
     borderopacity="1.0"
     inkscape:pageopacity="0.0"
     inkscape:pageshadow="2"
     inkscape:zoom="14.602703"
     inkscape:cx="-14.589403"
     inkscape:cy="-8.7023949"
     inkscape:document-units="px"
     inkscape:current-layer="layer3"
     showgrid="true"
     inkscape:window-width="1920"
     inkscape:window-height="1027"
     inkscape:window-x="0"
     inkscape:window-y="25"
     inkscape:window-maximized="1"
     showguides="false"
     inkscape:guide-bbox="true"
     inkscape:snap-global="true">
    <inkscape:grid
       type="xygrid"
       id="grid823" />
    <sodipodi:guide
       position="38.345213,-2.5660307"
       orientation="0,1"
       id="guide4499"
       inkscape:locked="false" />
    <sodipodi:guide
       position="32.414293,-2.7112777"
       orientation="1,0"
       id="guide4501"
       inkscape:locked="false" />
    <sodipodi:guide
       position="36.69908,-0.99252129"
       orientation="0,1"
       id="guide4503"
       inkscape:locked="false" />
  </sodipodi:namedview>
  <metadata
     id="metadata4379">
    <rdf:RDF>
      <cc:Work
         rdf:about="">
        <dc:format>image/svg+xml</dc:format>
        <dc:type
           rdf:resource="http://purl.org/dc/dcmitype/StillImage" />
        <dc:title />
      </cc:Work>
    </rdf:RDF>
  </metadata>
  <g
     inkscape:groupmode="layer"
     id="layer3"
     inkscape:label="Capa 3">
    <g
       id="g7837">
      <path
         inkscape:connector-curvature="0"
         id="rect4752-7-9"
         d="M 5,3 V 4 H 6 7 8 9 V 3 H 8 7 6 Z"
         style="display:inline;opacity:1;fill:#374845;fill-opacity:1;stroke:none;paint-order:markers stroke fill" />
      <path
         sodipodi:nodetypes="ccccccccccccccccc"
         inkscape:connector-curvature="0"
         id="rect4752-3-7"
         d="M 8,4 V 5 H 6 V 6 H 5 V 8 H 4 v 2 H 6 V 9 H 8 V 8 H 9 V 6 h 1 V 4 Z"
         style="display:inline;opacity:1;fill:#d7eef4;fill-opacity:1;stroke:none;paint-order:markers stroke fill" />
      <path
         inkscape:connector-curvature="0"
         id="rect4752-2-3"
         d="m 10,5 v 1 1 1 1 h 1 V 8 7 6 5 Z"
         style="display:inline;opacity:1;fill:#dbe2e3;fill-opacity:1;stroke:none;paint-order:markers stroke fill" />
      <rect
         y="9"
         x="9"
         height="1"
         width="1"
         id="rect4752-27-3"
         style="display:inline;opacity:1;fill:#dbe2e3;fill-opacity:1;stroke:none;paint-order:markers stroke fill" />
      <path
         id="rect4752-0-0"
         d="M 5 10 L 5 11 L 6 11 L 7 11 L 8 11 L 9 11 L 9 10 L 8 10 L 7 10 L 6 10 L 5 10 z "
         style="display:inline;opacity:1;fill:#dbe2e3;fill-opacity:1;stroke:none;paint-order:markers stroke fill" />
      <path
         inkscape:connector-curvature="0"
         id="rect4752-93-9"
         d="m 5,11 v 1 H 6 7 8 V 11 H 7 6 Z"
         style="display:inline;opacity:1;fill:#53676c;fill-opacity:1;stroke:none;paint-order:markers stroke fill" />
      <rect
         y="4"
         x="3"
         height="1"
         width="1"
         id="rect4752-12-3-2"
         style="display:inline;opacity:1;fill:#93aca7;fill-opacity:1;stroke:none;paint-order:markers stroke fill" />
      <rect
         y="4"
         x="4"
         height="1"
         width="1"
         id="rect4752-12-7-7"
         style="display:inline;opacity:1;fill:#374845;fill-opacity:1;stroke:none;paint-order:markers stroke fill" />
      <path
         sodipodi:nodetypes="ccccccccccccccc"
         inkscape:connector-curvature="0"
         id="rect4752-12-4-4"
         d="m 11,5 v 4 h 1 V 5 Z m 0,4 h -1 v 1 h 1 z m -1,1 H 9 v 1 h 1 z"
         style="display:inline;opacity:1;fill:#93a7ac;fill-opacity:1;stroke:none;paint-order:markers stroke fill" />
      <rect
         y="11"
         x="8"
         height="1"
         width="1"
         id="rect4752-12-0-1"
         style="display:inline;opacity:1;fill:#53676c;fill-opacity:1;stroke:none;paint-order:markers stroke fill" />
      <path
         id="rect4752-12-36-2"
         d="M 10 9 L 10 10 L 11 10 L 11 9 L 10 9 z M 10 10 L 9 10 L 9 11 L 10 11 L 10 10 z "
         style="display:inline;opacity:1;fill:#53676c;fill-opacity:1;stroke:none;paint-order:markers stroke fill" />
      <rect
         y="9"
         x="10"
         height="1"
         width="1"
         id="rect4752-12-74-8"
         style="display:inline;opacity:1;fill:#93aca7;fill-opacity:1;stroke:none;paint-order:markers stroke fill" />
      <rect
         y="9"
         x="3"
         height="1"
         width="1"
         id="rect4752-12-47-3"
         style="display:inline;opacity:1;fill:#93aca7;fill-opacity:1;stroke:none;paint-order:markers stroke fill" />
      <path
         sodipodi:nodetypes="cccccccccccccccccccccccccccccccccccccccc"
         inkscape:connector-curvature="0"
         id="rect4752-12-30-8"
         d="M 5,2 V 3 C 6.3333333,3 7.6666667,3 9,3 V 2 C 7.6666667,2 6.3333333,2 5,2 Z m 4,1 v 1 h 1 V 3 Z m 1,1 v 1 h 1 V 4 Z M 5,3 H 4 V 4 H 5 Z M 4,4 H 3 V 5 H 4 Z M 3,5 H 2 C 2,6.3333333 2,7.6666667 2,9 H 3 C 3,7.6666667 3,6.3333333 3,5 Z m 0,4 v 1 H 4 V 9 Z m 1,1 v 1 h 1 v -1 z"
         style="display:inline;opacity:1;fill:#afdde9;fill-opacity:1;stroke:none;paint-order:markers stroke fill" />
      <rect
         y="10"
         x="10"
         height="1"
         width="1"
         id="rect4752-12-78-0"
         style="display:inline;opacity:1;fill:#93aca7;fill-opacity:1;stroke:none;paint-order:markers stroke fill" />
      <path
         inkscape:connector-curvature="0"
         id="rect4752-12-84-2"
         d="m 11,11 v 1 h 1 v 1 h 1 v 1 h 1 v 1 h 1 v -1 -1 h -1 v -1 h -1 v -1 h -1 z"
         style="display:inline;opacity:1;fill:#93aca7;fill-opacity:1;stroke:none;paint-order:markers stroke fill" />
      <path
         inkscape:connector-curvature="0"
         id="rect4752-12-31-1"
         d="m 11,12 v 1 h 1 v -1 z m 1,1 v 1 h 1 v -1 z m 1,1 v 1 h 1 v -1 z"
         style="display:inline;opacity:1;fill:#1c2224;fill-opacity:1;stroke:none;paint-order:markers stroke fill" />
      <rect
         y="10"
         x="10"
         height="1"
         width="1"
         id="rect4752-12-2-5"
         style="display:inline;opacity:1;fill:#535d6c;fill-opacity:1;stroke:none;paint-order:markers stroke fill" />
      <path
         sodipodi:nodetypes="ccccc"
         inkscape:connector-curvature="0"
         id="rect4752-12-9-9"
         d="M 3,5 V 9 H 4 V 5 Z"
         style="display:inline;opacity:1;fill:#374845;fill-opacity:0.98300656;stroke:none;paint-order:markers stroke fill" />
      <path
         id="rect4752-12-8-73-99"
         d="M 6 4 L 6 5 L 7 5 L 8 5 L 8 4 L 7 4 L 6 4 z M 6 5 L 5 5 L 5 6 L 6 6 L 6 5 z M 5 6 L 4 6 L 4 7 L 4 8 L 5 8 L 5 7 L 5 6 z "
         style="display:inline;opacity:1;fill:#5fbcd3;fill-opacity:1;stroke:none;paint-order:markers stroke fill" />
      <path
         id="rect4752-12-8-73-6-0"
         d="M 5 4 L 5 5 L 6 5 L 6 4 L 5 4 z M 5 5 L 4 5 L 4 6 L 5 6 L 5 5 z "
         style="display:inline;opacity:1;fill:#ffffff;fill-opacity:1;stroke:none;paint-order:markers stroke fill" />
      <path
         id="rect4752-12-8-73-61-9"
         d="M 9 6 L 9 7 L 9 8 L 8 8 L 8 9 L 7 9 L 6 9 L 6 10 L 7 10 L 8 10 L 9 10 L 9 9 L 10 9 L 10 8 L 10 7 L 10 6 L 9 6 z "
         style="display:inline;opacity:1;fill:#87cdde;fill-opacity:1;stroke:none;paint-order:markers stroke fill" />
    </g>
  </g>
</svg>
