<?xml version="1.0" encoding="UTF-8" standalone="no"?>
<!-- Created with Inkscape (http://www.inkscape.org/) -->

<svg
   xmlns:dc="http://purl.org/dc/elements/1.1/"
   xmlns:cc="http://creativecommons.org/ns#"
   xmlns:rdf="http://www.w3.org/1999/02/22-rdf-syntax-ns#"
   xmlns:svg="http://www.w3.org/2000/svg"
   xmlns="http://www.w3.org/2000/svg"
   xmlns:sodipodi="http://sodipodi.sourceforge.net/DTD/sodipodi-0.dtd"
   xmlns:inkscape="http://www.inkscape.org/namespaces/inkscape"
   width="16"
   height="16"
   id="svg2"
   version="1.1"
   inkscape:version="0.92.1 r15371"
   sodipodi:docname="right.svg">
  <defs
     id="defs4" />
  <sodipodi:namedview
     id="base"
     pagecolor="#ffffff"
     bordercolor="#666666"
     borderopacity="1.0"
     inkscape:pageopacity="0.0"
     inkscape:pageshadow="2"
     inkscape:zoom="10.206562"
     inkscape:cx="-35.042125"
     inkscape:cy="4.4204262"
     inkscape:document-units="px"
     inkscape:current-layer="layer1"
     showgrid="true"
     inkscape:window-width="1920"
     inkscape:window-height="1027"
     inkscape:window-x="0"
     inkscape:window-y="25"
     inkscape:window-maximized="1">
    <inkscape:grid
       type="xygrid"
       id="grid816" />
  </sodipodi:namedview>
  <metadata
     id="metadata7">
    <rdf:RDF>
      <cc:Work
         rdf:about="">
        <dc:format>image/svg+xml</dc:format>
        <dc:type
           rdf:resource="http://purl.org/dc/dcmitype/StillImage" />
        <dc:title />
      </cc:Work>
    </rdf:RDF>
  </metadata>
  <g
     inkscape:label="Capa 1"
     inkscape:groupmode="layer"
     id="layer1"
     transform="translate(0,-1036.3622)">
    <path
       style="color:#bebebe;font-style:normal;font-variant:normal;font-weight:normal;font-stretch:normal;font-size:medium;line-height:normal;font-family:'Andale Mono';-inkscape-font-specification:'Andale Mono';text-indent:0;text-align:start;text-decoration:none;text-decoration-line:none;letter-spacing:normal;word-spacing:normal;text-transform:none;writing-mode:lr-tb;direction:ltr;text-anchor:start;display:inline;overflow:visible;visibility:visible;fill:#216778;fill-opacity:1;fill-rule:nonzero;stroke:none;stroke-width:2.34170747;marker:none;enable-background:new"
       d="M 5 1 L 5 2 L 4 2 L 4 3 L 4 4 L 5 4 L 5 5 L 6 5 L 6 6 L 7 6 L 7 7 L 8 7 L 8 8 L 8 9 L 7 9 L 7 10 L 6 10 L 6 11 L 5 11 L 5 12 L 4 12 L 4 13 L 4 14 L 5 14 L 5 15 L 6 15 L 7 15 L 7 14 L 8 14 L 8 13 L 9 13 L 9 12 L 10 12 L 10 11 L 11 11 L 11 10 L 12 10 L 12 9 L 13 9 L 13 8 L 13 7 L 12 7 L 12 6 L 11 6 L 11 6.0117188 L 10.988281 6 L 11 6 L 11 5 L 10 5 L 10 5.0234375 L 9.9765625 5 L 10 5 L 10 4 L 9 4 L 9 4.0351562 L 8.9648438 4 L 9 4 L 9 3 L 8 3 L 8 3.046875 L 7.9511719 3 L 8 3 L 8 2 L 7 2 L 7 2.0585938 L 6.9394531 2 L 7 2 L 7 1 L 6 1 L 5 1 z "
       transform="translate(0,1036.3622)"
       id="path10839-9-9-3-0-4-3" />
  </g>
</svg>
