<?xml version="1.0" encoding="UTF-8" standalone="no"?>
<!-- Created with Inkscape (http://www.inkscape.org/) -->

<svg
   xmlns:dc="http://purl.org/dc/elements/1.1/"
   xmlns:cc="http://creativecommons.org/ns#"
   xmlns:rdf="http://www.w3.org/1999/02/22-rdf-syntax-ns#"
   xmlns:svg="http://www.w3.org/2000/svg"
   xmlns="http://www.w3.org/2000/svg"
   xmlns:sodipodi="http://sodipodi.sourceforge.net/DTD/sodipodi-0.dtd"
   xmlns:inkscape="http://www.inkscape.org/namespaces/inkscape"
   width="16"
   height="16"
   id="svg2"
   version="1.1"
   inkscape:version="0.92.1 r15371"
   sodipodi:docname="go-home.svg">
  <defs
     id="defs4" />
  <sodipodi:namedview
     id="base"
     pagecolor="#ffffff"
     bordercolor="#666666"
     borderopacity="1.0"
     inkscape:pageopacity="0.0"
     inkscape:pageshadow="2"
     inkscape:zoom="24.597015"
     inkscape:cx="20.984077"
     inkscape:cy="9.761267"
     inkscape:document-units="px"
     inkscape:current-layer="layer1"
     showgrid="true"
     showguides="true"
     inkscape:guide-bbox="true"
     inkscape:window-width="1914"
     inkscape:window-height="1008"
     inkscape:window-x="0"
     inkscape:window-y="24"
     inkscape:window-maximized="1"
     inkscape:snap-global="false">
    <inkscape:grid
       type="xygrid"
       id="grid816" />
  </sodipodi:namedview>
  <metadata
     id="metadata7">
    <rdf:RDF>
      <cc:Work
         rdf:about="">
        <dc:format>image/svg+xml</dc:format>
        <dc:type
           rdf:resource="http://purl.org/dc/dcmitype/StillImage" />
        <dc:title></dc:title>
      </cc:Work>
    </rdf:RDF>
  </metadata>
  <g
     inkscape:label="Layer 1"
     inkscape:groupmode="layer"
     id="layer1"
     transform="translate(0,-1036.3622)">
    <rect
       style="opacity:1;fill:#dbe3e2;fill-opacity:1;stroke:none;stroke-width:0.1;stroke-linecap:round;stroke-linejoin:round;stroke-miterlimit:4;stroke-dasharray:none;stroke-opacity:1;paint-order:fill markers stroke"
       id="rect1013"
       width="9"
       height="7"
       x="4"
       y="1044.3622" />
    <path
       style="fill:#4ecae9;fill-opacity:1;stroke:none;stroke-width:0.07437383"
       d="M 8.090198,1037.718 2,1043.3622 l 0.7513954,0.7502 v 7.2979 L 4,1051.3622 v -5 h 3 v 5 l 6.589056,0.048 v -7.2979 h 0.660069 l -0.660069,-0.7321 v -0.044 L 13,1042.3622 l -1,-1 v -3 h -1.706633 v 1.3669 z M 9,1045.3622 h 3 c -0.0018,0.8648 0.03154,-0.4218 0,3 H 9 Z"
       id="rect2985"
       inkscape:connector-curvature="0"
       sodipodi:nodetypes="cccccccccccccccccccccccc" />
    <path
       style="opacity:1;fill:#216778;fill-opacity:1;stroke:none;stroke-width:0.1;stroke-linecap:round;stroke-linejoin:round;stroke-miterlimit:4;stroke-dasharray:none;stroke-opacity:1;paint-order:fill markers stroke"
       d="M 7 1 L 7 2 L 6 2 L 6 3 L 5 3 L 5 4 L 4 4 L 4 5 L 3 5 L 3 6 L 2 6 L 2 7 L 1 7 L 1 8 L 2 8 L 3 8 L 3 7 L 4 7 L 4 6 L 5 6 L 5 5 L 6 5 L 6 4 L 7 4 L 7 3 L 8 3 L 9 3 L 9 4 L 10 4 L 10 5 L 11 5 L 11 6 L 12 6 L 12 7 L 13 7 L 13 8 L 14 8 L 15 8 L 15 7 L 14 7 L 14 6 L 13 6 L 13 5 L 12 5 L 12 4 L 11 4 L 11 3 L 10 3 L 10 2 L 9 2 L 9 1 L 8 1 L 7 1 z "
       transform="translate(0,1036.3622)"
       id="rect834" />
    <rect
       style="opacity:1;fill:#9bb4b4;fill-opacity:1;stroke:none;stroke-width:3.64724398;stroke-miterlimit:4;stroke-dasharray:none;stroke-opacity:1"
       id="rect3151-6-6"
       width="1"
       height="1"
       x="9"
       y="1045.3622" />
    <rect
       style="opacity:1;fill:#9bb4b4;fill-opacity:1;stroke:none;stroke-width:3.64724398;stroke-miterlimit:4;stroke-dasharray:none;stroke-opacity:1"
       id="rect3151-6-1"
       width="1"
       height="1"
       x="10"
       y="1045.3622" />
    <rect
       style="opacity:1;fill:#9bb4b4;fill-opacity:1;stroke:none;stroke-width:3.64724398;stroke-miterlimit:4;stroke-dasharray:none;stroke-opacity:1"
       id="rect3151-6-2"
       width="1"
       height="1"
       x="11"
       y="1045.3622" />
    <rect
       style="opacity:1;fill:#9bb4b4;fill-opacity:1;stroke:none;stroke-width:3.64724398;stroke-miterlimit:4;stroke-dasharray:none;stroke-opacity:1"
       id="rect3151-6-9"
       width="1"
       height="1"
       x="4"
       y="1046.3622" />
    <rect
       style="opacity:1;fill:#9bb4b4;fill-opacity:1;stroke:none;stroke-width:3.64724398;stroke-miterlimit:4;stroke-dasharray:none;stroke-opacity:1"
       id="rect3151-6-4"
       width="1"
       height="1"
       x="4"
       y="1047.3622" />
    <rect
       style="opacity:1;fill:#9bb4b4;fill-opacity:1;stroke:none;stroke-width:3.64724398;stroke-miterlimit:4;stroke-dasharray:none;stroke-opacity:1"
       id="rect3151-6-7"
       width="1"
       height="1"
       x="4"
       y="1048.3622" />
    <rect
       style="opacity:1;fill:#9bb4b4;fill-opacity:1;stroke:none;stroke-width:3.64724398;stroke-miterlimit:4;stroke-dasharray:none;stroke-opacity:1"
       id="rect3151-6-8"
       width="1"
       height="1"
       x="4"
       y="1049.3622" />
    <rect
       style="opacity:1;fill:#9bb4b4;fill-opacity:1;stroke:none;stroke-width:3.64724398;stroke-miterlimit:4;stroke-dasharray:none;stroke-opacity:1"
       id="rect3151-6-45"
       width="1"
       height="1"
       x="4"
       y="1050.3622" />
    <path
       style="opacity:1;fill:#216778;fill-opacity:1;stroke:none;stroke-width:3.0634191;stroke-miterlimit:4;stroke-dasharray:none;stroke-opacity:1"
       d="M 10.294922 1 L 10.294922 2 L 11 2 L 12 2 L 12 1 L 11 1 L 10.294922 1 z "
       transform="translate(0,1036.3622)"
       id="rect3151-0" />
    <rect
       style="opacity:1;fill:#21abcd;fill-opacity:1;stroke:none;stroke-width:3.64724398;stroke-miterlimit:4;stroke-dasharray:none;stroke-opacity:1"
       id="rect3151-6-1-6"
       width="1"
       height="1"
       x="7.0023932"
       y="1039.3698" />
    <rect
       style="opacity:1;fill:#21abcd;fill-opacity:1;stroke:none;stroke-width:3.64724398;stroke-miterlimit:4;stroke-dasharray:none;stroke-opacity:1"
       id="rect3151-6-1-6-1"
       width="1"
       height="1"
       x="8.0023928"
       y="1039.3698" />
    <rect
       style="opacity:1;fill:#21abcd;fill-opacity:1;stroke:none;stroke-width:3.64724398;stroke-miterlimit:4;stroke-dasharray:none;stroke-opacity:1"
       id="rect3151-6-1-6-0"
       width="1"
       height="1"
       x="9.0023928"
       y="1040.3698" />
    <rect
       style="opacity:1;fill:#21abcd;fill-opacity:1;stroke:none;stroke-width:3.64724398;stroke-miterlimit:4;stroke-dasharray:none;stroke-opacity:1"
       id="rect3151-6-1-6-6"
       width="1"
       height="1"
       x="10.002393"
       y="1041.3698" />
    <rect
       style="opacity:1;fill:#21abcd;fill-opacity:1;stroke:none;stroke-width:3.64724398;stroke-miterlimit:4;stroke-dasharray:none;stroke-opacity:1"
       id="rect3151-6-1-6-3"
       width="1"
       height="1"
       x="11.002393"
       y="1042.3698" />
    <rect
       style="opacity:1;fill:#21abcd;fill-opacity:1;stroke:none;stroke-width:3.64724398;stroke-miterlimit:4;stroke-dasharray:none;stroke-opacity:1"
       id="rect3151-6-1-6-2"
       width="1"
       height="1"
       x="12.002393"
       y="1043.3698" />
    <rect
       style="opacity:1;fill:#21abcd;fill-opacity:1;stroke:none;stroke-width:3.64724398;stroke-miterlimit:4;stroke-dasharray:none;stroke-opacity:1"
       id="rect3151-6-1-6-06"
       width="1"
       height="1"
       x="6.0023932"
       y="1040.3698" />
    <rect
       style="opacity:1;fill:#21abcd;fill-opacity:1;stroke:none;stroke-width:3.64724398;stroke-miterlimit:4;stroke-dasharray:none;stroke-opacity:1"
       id="rect3151-6-1-6-15"
       width="1"
       height="1"
       x="5.0023932"
       y="1041.3698" />
    <rect
       style="opacity:1;fill:#21abcd;fill-opacity:1;stroke:none;stroke-width:3.64724398;stroke-miterlimit:4;stroke-dasharray:none;stroke-opacity:1"
       id="rect3151-6-1-6-5"
       width="1"
       height="1"
       x="4.0023932"
       y="1042.3698" />
    <rect
       style="opacity:1;fill:#21abcd;fill-opacity:1;stroke:none;stroke-width:3.64724398;stroke-miterlimit:4;stroke-dasharray:none;stroke-opacity:1"
       id="rect3151-6-1-6-4"
       width="1"
       height="1"
       x="3.0023932"
       y="1043.3698" />
    <rect
       style="opacity:1;fill:#21abcd;fill-opacity:1;stroke:none;stroke-width:3.64724398;stroke-miterlimit:4;stroke-dasharray:none;stroke-opacity:1"
       id="rect3151-6-1-6-14"
       width="1"
       height="1"
       x="4.0023932"
       y="1045.3698" />
    <rect
       style="opacity:1;fill:#21abcd;fill-opacity:1;stroke:none;stroke-width:3.64724398;stroke-miterlimit:4;stroke-dasharray:none;stroke-opacity:1"
       id="rect3151-6-1-6-9"
       width="1"
       height="1"
       x="5.0023932"
       y="1045.3698" />
    <rect
       style="opacity:1;fill:#21abcd;fill-opacity:1;stroke:none;stroke-width:3.64724398;stroke-miterlimit:4;stroke-dasharray:none;stroke-opacity:1"
       id="rect3151-6-1-6-20"
       width="1"
       height="1"
       x="6.0023932"
       y="1045.3698" />
    <rect
       style="opacity:1;fill:#21abcd;fill-opacity:1;stroke:none;stroke-width:3.64724398;stroke-miterlimit:4;stroke-dasharray:none;stroke-opacity:1"
       id="rect3151-6-1-6-68"
       width="1"
       height="1"
       x="9.0023928"
       y="1048.3698" />
    <rect
       style="opacity:1;fill:#21abcd;fill-opacity:1;stroke:none;stroke-width:3.64724398;stroke-miterlimit:4;stroke-dasharray:none;stroke-opacity:1"
       id="rect3151-6-1-6-92"
       width="1"
       height="1"
       x="10.002393"
       y="1048.3698" />
    <rect
       style="opacity:1;fill:#21abcd;fill-opacity:1;stroke:none;stroke-width:3.64724398;stroke-miterlimit:4;stroke-dasharray:none;stroke-opacity:1"
       id="rect3151-6-1-6-66"
       width="1"
       height="1"
       x="11.002393"
       y="1048.3698" />
  </g>
</svg>
