<?xml version="1.0" encoding="UTF-8" standalone="no"?>
<svg
   xmlns:dc="http://purl.org/dc/elements/1.1/"
   xmlns:cc="http://creativecommons.org/ns#"
   xmlns:rdf="http://www.w3.org/1999/02/22-rdf-syntax-ns#"
   xmlns:svg="http://www.w3.org/2000/svg"
   xmlns="http://www.w3.org/2000/svg"
   xmlns:xlink="http://www.w3.org/1999/xlink"
   xmlns:sodipodi="http://sodipodi.sourceforge.net/DTD/sodipodi-0.dtd"
   xmlns:inkscape="http://www.inkscape.org/namespaces/inkscape"
   xml:space="preserve"
   width="256"
   height="256"
   style="fill-rule:evenodd"
   viewBox="0 0 256 256"
   id="svg2"
   version="1.1"
   inkscape:version="0.48.3.1 r9886"
   sodipodi:docname="network-transmit-receive.svg"><metadata
   id="metadata113"><rdf:RDF><cc:Work
       rdf:about=""><dc:format>image/svg+xml</dc:format><dc:type
         rdf:resource="http://purl.org/dc/dcmitype/StillImage" /><dc:title /></cc:Work></rdf:RDF></metadata><sodipodi:namedview
   pagecolor="#ffffff"
   bordercolor="#666666"
   borderopacity="1"
   objecttolerance="10"
   gridtolerance="10"
   guidetolerance="10"
   inkscape:pageopacity="0"
   inkscape:pageshadow="2"
   inkscape:window-width="1914"
   inkscape:window-height="1031"
   id="namedview111"
   showgrid="false"
   inkscape:zoom="1.2052242"
   inkscape:cx="296.89452"
   inkscape:cy="158.40173"
   inkscape:window-x="0"
   inkscape:window-y="25"
   inkscape:window-maximized="1"
   inkscape:current-layer="svg2" />
 <defs
   id="defs4"><style
   type="text/css"
   id="style6">
   
    .fil17 {fill:url(#id8)}
    .fil16 {fill:url(#id9)}
    .fil4 {fill:url(#id10)}
    .fil6 {fill:url(#id11)}
    .fil0 {fill:url(#id12)}
    .fil2 {fill:url(#id13)}
    .fil12 {fill:url(#id14)}
    .fil14 {fill:url(#id15)}
    .fil15 {fill:url(#id16)}
    .fil10 {fill:url(#id17)}
    .fil8 {fill:url(#id18)}
    .fil5 {fill:url(#id19);fill-rule:nonzero}
    .fil7 {fill:url(#id20);fill-rule:nonzero}
    .fil1 {fill:url(#id21);fill-rule:nonzero}
    .fil3 {fill:url(#id22);fill-rule:nonzero}
    .fil13 {fill:url(#id23);fill-rule:nonzero}
    .fil11 {fill:url(#id24);fill-rule:nonzero}
    .fil9 {fill:url(#id25);fill-rule:nonzero}
   
  </style><mask
   id="id0">
  <linearGradient
   id="id1"
   gradientUnits="userSpaceOnUse"
   x1="68.707199"
   y1="67.7286"
   x2="86.7808"
   y2="63.479401">
   <stop
   offset="0"
   style="stop-opacity:1; stop-color:white"
   id="stop10" />
   <stop
   offset="1"
   style="stop-opacity:0; stop-color:white"
   id="stop12" />
  </linearGradient>
      <rect
   style="fill:url(#id1)"
   x="63.4268"
   y="49.294998"
   width="28.634399"
   height="32.617901"
   id="rect14" />
     </mask><mask
   id="id2">
  <linearGradient
   id="id3"
   gradientUnits="userSpaceOnUse"
   x1="198.13499"
   y1="205.957"
   x2="216.209"
   y2="201.70799">
   <stop
   offset="0"
   style="stop-opacity:1; stop-color:white"
   id="stop18" />
   <stop
   offset="1"
   style="stop-opacity:0; stop-color:white"
   id="stop20" />
  </linearGradient>
      <rect
   style="fill:url(#id3)"
   x="192.855"
   y="187.52299"
   width="28.634399"
   height="32.617901"
   id="rect22" />
     </mask><mask
   id="id4">
  <linearGradient
   id="id5"
   gradientUnits="userSpaceOnUse"
   x1="154.311"
   y1="181.08701"
   x2="194.09399"
   y2="231.006">
   <stop
   offset="0"
   style="stop-opacity:1; stop-color:white"
   id="stop26" />
   <stop
   offset="0.65098"
   style="stop-opacity:0.501961; stop-color:white"
   id="stop28" />
   <stop
   offset="1"
   style="stop-opacity:0; stop-color:white"
   id="stop30" />
  </linearGradient>
     <rect
   style="fill:url(#id5)"
   x="96.580299"
   y="153.595"
   width="155.244"
   height="104.904"
   id="rect32" />
    </mask><mask
   id="id6">
  <linearGradient
   id="id7"
   gradientUnits="userSpaceOnUse"
   x1="27.614401"
   y1="42.766201"
   x2="67.3964"
   y2="92.685402">
   <stop
   offset="0"
   style="stop-opacity:1; stop-color:white"
   id="stop36" />
   <stop
   offset="0.65098"
   style="stop-opacity:0.501961; stop-color:white"
   id="stop38" />
   <stop
   offset="1"
   style="stop-opacity:0; stop-color:white"
   id="stop40" />
  </linearGradient>
     <rect
   style="fill:url(#id7)"
   x="-30.1154"
   y="15.2736"
   width="155.242"
   height="104.904"
   id="rect42" />
    </mask><linearGradient
   id="id8"
   gradientUnits="userSpaceOnUse"
   x1="44.957199"
   y1="16.549801"
   x2="50.053501"
   y2="118.902">
   <stop
   offset="0"
   style="stop-color:#E7EEFA"
   id="stop45" />
   <stop
   offset="1"
   style="stop-color:#7DA2E3"
   id="stop47" />
  </linearGradient><linearGradient
   id="id9"
   gradientUnits="userSpaceOnUse"
   xlink:href="#id8"
   x1="171.65401"
   y1="154.871"
   x2="176.75101"
   y2="257.22299">
  </linearGradient><linearGradient
   id="id10"
   gradientUnits="userSpaceOnUse"
   x1="30.761801"
   y1="128.526"
   x2="143.509"
   y2="142.256">
   <stop
   offset="0"
   style="stop-color:#94C9E2"
   id="stop51" />
   <stop
   offset="0.490196"
   style="stop-color:#58A6D8"
   id="stop53" />
   <stop
   offset="0.819608"
   style="stop-color:#50719E"
   id="stop55" />
   <stop
   offset="1"
   style="stop-color:#386EAB"
   id="stop57" />
  </linearGradient><linearGradient
   id="id11"
   gradientUnits="userSpaceOnUse"
   xlink:href="#id10"
   x1="156.089"
   y1="267.30301"
   x2="268.84201"
   y2="281.039">
  </linearGradient><linearGradient
   id="id12"
   gradientUnits="userSpaceOnUse"
   xlink:href="#id10"
   x1="26.914"
   y1="35.430401"
   x2="142.625"
   y2="103.169">
  </linearGradient><linearGradient
   id="id13"
   gradientUnits="userSpaceOnUse"
   xlink:href="#id10"
   x1="153.175"
   y1="173.31799"
   x2="268.89899"
   y2="241.062">
  </linearGradient><linearGradient
   id="id14"
   gradientUnits="userSpaceOnUse"
   xlink:href="#id10"
   x1="68.463501"
   y1="56.151901"
   x2="93.060501"
   y2="76.6492">
  </linearGradient><linearGradient
   id="id15"
   gradientUnits="userSpaceOnUse"
   x1="66.727898"
   y1="62.759602"
   x2="88.760101"
   y2="68.448303">
   <stop
   offset="0"
   style="stop-color:#B3D5E1"
   id="stop64" />
   <stop
   offset="1"
   style="stop-color:white"
   id="stop66" />
  </linearGradient><linearGradient
   id="id16"
   gradientUnits="userSpaceOnUse"
   xlink:href="#id15"
   x1="196.15601"
   y1="200.98801"
   x2="218.188"
   y2="206.67599">
  </linearGradient><linearGradient
   id="id17"
   gradientUnits="userSpaceOnUse"
   xlink:href="#id10"
   x1="167.694"
   y1="72.4636"
   x2="210.59399"
   y2="131.978">
  </linearGradient><linearGradient
   id="id18"
   gradientUnits="userSpaceOnUse"
   xlink:href="#id10"
   x1="83.326103"
   y1="166.007"
   x2="126.225"
   y2="225.521">
  </linearGradient><linearGradient
   id="id19"
   gradientUnits="userSpaceOnUse"
   x1="149.04201"
   y1="141.701"
   x2="25.2281"
   y2="129.08299">
   <stop
   offset="0"
   style="stop-color:#82C7E6"
   id="stop72" />
   <stop
   offset="0.741176"
   style="stop-color:#6690C2"
   id="stop74" />
   <stop
   offset="1"
   style="stop-color:#3C599B"
   id="stop76" />
  </linearGradient><linearGradient
   id="id20"
   gradientUnits="userSpaceOnUse"
   xlink:href="#id19"
   x1="274.37701"
   y1="280.48001"
   x2="150.55499"
   y2="267.86401">
  </linearGradient><linearGradient
   id="id21"
   gradientUnits="userSpaceOnUse"
   xlink:href="#id19"
   x1="149.377"
   y1="98.3797"
   x2="20.1609"
   y2="40.219398">
  </linearGradient><linearGradient
   id="id22"
   gradientUnits="userSpaceOnUse"
   xlink:href="#id19"
   x1="275.651"
   y1="236.271"
   x2="146.42101"
   y2="178.11301">
  </linearGradient><linearGradient
   id="id23"
   gradientUnits="userSpaceOnUse"
   xlink:href="#id19"
   x1="94.726997"
   y1="75.287201"
   x2="66.7957"
   y2="57.513901">
  </linearGradient><linearGradient
   id="id24"
   gradientUnits="userSpaceOnUse"
   xlink:href="#id19"
   x1="214.037"
   y1="127.856"
   x2="163.686"
   y2="74.9412">
  </linearGradient><linearGradient
   id="id25"
   gradientUnits="userSpaceOnUse"
   xlink:href="#id19"
   x1="130.23599"
   y1="223.05"
   x2="79.878304"
   y2="170.13499">
  </linearGradient><linearGradient
   inkscape:collect="always"
   xlink:href="#id10"
   id="linearGradient3090"
   gradientUnits="userSpaceOnUse"
   x1="30.761801"
   y1="128.526"
   x2="143.509"
   y2="142.256" /><linearGradient
   inkscape:collect="always"
   xlink:href="#id19"
   id="linearGradient3092"
   gradientUnits="userSpaceOnUse"
   x1="149.04201"
   y1="141.701"
   x2="25.2281"
   y2="129.08299" /><linearGradient
   inkscape:collect="always"
   xlink:href="#id10"
   id="linearGradient3094"
   gradientUnits="userSpaceOnUse"
   x1="68.463501"
   y1="56.151901"
   x2="93.060501"
   y2="76.6492" /><linearGradient
   inkscape:collect="always"
   xlink:href="#id19"
   id="linearGradient3096"
   gradientUnits="userSpaceOnUse"
   x1="94.726997"
   y1="75.287201"
   x2="66.7957"
   y2="57.513901" /><linearGradient
   inkscape:collect="always"
   xlink:href="#id15"
   id="linearGradient3098"
   gradientUnits="userSpaceOnUse"
   x1="66.727898"
   y1="62.759602"
   x2="88.760101"
   y2="68.448303" /><linearGradient
   inkscape:collect="always"
   xlink:href="#id8"
   id="linearGradient3100"
   gradientUnits="userSpaceOnUse"
   x1="44.957199"
   y1="16.549801"
   x2="50.053501"
   y2="118.902" />
  
  
 <linearGradient
   inkscape:collect="always"
   xlink:href="#id10"
   id="linearGradient3106"
   gradientUnits="userSpaceOnUse"
   x1="26.914"
   y1="35.430401"
   x2="142.625"
   y2="103.169" /><linearGradient
   inkscape:collect="always"
   xlink:href="#id19"
   id="linearGradient3108"
   gradientUnits="userSpaceOnUse"
   x1="149.377"
   y1="98.3797"
   x2="20.1609"
   y2="40.219398" /><linearGradient
   inkscape:collect="always"
   xlink:href="#id10"
   id="linearGradient3110"
   gradientUnits="userSpaceOnUse"
   x1="153.175"
   y1="173.31799"
   x2="268.89899"
   y2="241.062" /><linearGradient
   inkscape:collect="always"
   xlink:href="#id19"
   id="linearGradient3112"
   gradientUnits="userSpaceOnUse"
   x1="275.651"
   y1="236.271"
   x2="146.42101"
   y2="178.11301" /><linearGradient
   inkscape:collect="always"
   xlink:href="#id10"
   id="linearGradient3114"
   gradientUnits="userSpaceOnUse"
   x1="30.761801"
   y1="128.526"
   x2="143.509"
   y2="142.256" /><linearGradient
   inkscape:collect="always"
   xlink:href="#id19"
   id="linearGradient3116"
   gradientUnits="userSpaceOnUse"
   x1="149.04201"
   y1="141.701"
   x2="25.2281"
   y2="129.08299" /><linearGradient
   inkscape:collect="always"
   xlink:href="#id10"
   id="linearGradient3118"
   gradientUnits="userSpaceOnUse"
   x1="156.089"
   y1="267.30301"
   x2="268.84201"
   y2="281.039" /><linearGradient
   inkscape:collect="always"
   xlink:href="#id19"
   id="linearGradient3120"
   gradientUnits="userSpaceOnUse"
   x1="274.37701"
   y1="280.48001"
   x2="150.55499"
   y2="267.86401" /><linearGradient
   inkscape:collect="always"
   xlink:href="#id10"
   id="linearGradient3122"
   gradientUnits="userSpaceOnUse"
   x1="83.326103"
   y1="166.007"
   x2="126.225"
   y2="225.521" /><linearGradient
   inkscape:collect="always"
   xlink:href="#id19"
   id="linearGradient3124"
   gradientUnits="userSpaceOnUse"
   x1="130.23599"
   y1="223.05"
   x2="79.878304"
   y2="170.13499" /><linearGradient
   inkscape:collect="always"
   xlink:href="#id10"
   id="linearGradient3126"
   gradientUnits="userSpaceOnUse"
   x1="167.694"
   y1="72.4636"
   x2="210.59399"
   y2="131.978" /><linearGradient
   inkscape:collect="always"
   xlink:href="#id19"
   id="linearGradient3128"
   gradientUnits="userSpaceOnUse"
   x1="214.037"
   y1="127.856"
   x2="163.686"
   y2="74.9412" /><linearGradient
   inkscape:collect="always"
   xlink:href="#id10"
   id="linearGradient3130"
   gradientUnits="userSpaceOnUse"
   x1="68.463501"
   y1="56.151901"
   x2="93.060501"
   y2="76.6492" /><linearGradient
   inkscape:collect="always"
   xlink:href="#id19"
   id="linearGradient3132"
   gradientUnits="userSpaceOnUse"
   x1="94.726997"
   y1="75.287201"
   x2="66.7957"
   y2="57.513901" /><linearGradient
   inkscape:collect="always"
   xlink:href="#id15"
   id="linearGradient3134"
   gradientUnits="userSpaceOnUse"
   x1="66.727898"
   y1="62.759602"
   x2="88.760101"
   y2="68.448303" /><linearGradient
   inkscape:collect="always"
   xlink:href="#id10"
   id="linearGradient3136"
   gradientUnits="userSpaceOnUse"
   x1="68.463501"
   y1="56.151901"
   x2="93.060501"
   y2="76.6492" /><linearGradient
   inkscape:collect="always"
   xlink:href="#id19"
   id="linearGradient3138"
   gradientUnits="userSpaceOnUse"
   x1="94.726997"
   y1="75.287201"
   x2="66.7957"
   y2="57.513901" /><linearGradient
   inkscape:collect="always"
   xlink:href="#id15"
   id="linearGradient3140"
   gradientUnits="userSpaceOnUse"
   x1="196.15601"
   y1="200.98801"
   x2="218.188"
   y2="206.67599" /><linearGradient
   inkscape:collect="always"
   xlink:href="#id8"
   id="linearGradient3142"
   gradientUnits="userSpaceOnUse"
   x1="171.65401"
   y1="154.871"
   x2="176.75101"
   y2="257.22299" /><linearGradient
   inkscape:collect="always"
   xlink:href="#id8"
   id="linearGradient3144"
   gradientUnits="userSpaceOnUse"
   x1="44.957199"
   y1="16.549801"
   x2="50.053501"
   y2="118.902" />
   
   
   
   
   
   
   
   
   
   
   
   
   
   
   
   
  <linearGradient
   inkscape:collect="always"
   xlink:href="#id15"
   id="linearGradient3196"
   gradientUnits="userSpaceOnUse"
   x1="66.727898"
   y1="62.759602"
   x2="88.760101"
   y2="68.448303" /><linearGradient
   inkscape:collect="always"
   xlink:href="#id15"
   id="linearGradient3202"
   gradientUnits="userSpaceOnUse"
   x1="196.15601"
   y1="200.98801"
   x2="218.188"
   y2="206.67599" /></defs>
 
<g
   style="fill:#4ecae9;fill-opacity:1"
   id="g4166-5-5"
   transform="matrix(14.584886,0,0,13.915498,-278.52406,-2991.3229)"><path
     style="font-size:medium;font-style:normal;font-variant:normal;font-weight:normal;font-stretch:normal;text-indent:0;text-align:start;text-decoration:none;line-height:normal;letter-spacing:normal;word-spacing:normal;text-transform:none;direction:ltr;block-progression:tb;writing-mode:lr-tb;text-anchor:start;baseline-shift:baseline;color:#bebebe;fill:#4ecae9;fill-opacity:1;stroke:none;stroke-width:2;marker:none;visibility:visible;display:inline;overflow:visible;enable-background:accumulate;font-family:Sans;-inkscape-font-specification:Sans"
     id="rect12675-3-8-70-9"
     d="m 101.75,-36 c -0.9522,0 -1.75,0.7978 -1.75,1.75 l 0,4.5 c 0,0.9522 0.7978,1.75 1.75,1.75 l 0.125,0 -0.78125,1.5625 -0.71875,1.4375 1.625,0 6,0 1.625,0 -0.71875,-1.4375 L 108.125,-28 l 0.125,0 c 0.9522,0 1.75,-0.7978 1.75,-1.75 l 0,-4.5 c 0,-0.9522 -0.7978,-1.75 -1.75,-1.75 l -6.5,0 z m 0.25,2 6,0 0,4 -6,0 0,-4 z"
     inkscape:connector-curvature="0"
     transform="translate(-79.999996,257)" /></g><path
   style="font-size:medium;font-style:normal;font-variant:normal;font-weight:normal;font-stretch:normal;text-indent:0pt;text-align:start;text-decoration:none;line-height:normal;letter-spacing:normal;word-spacing:normal;text-transform:none;direction:ltr;text-anchor:start;color:#bebebe;fill:#4ecae9;fill-opacity:1;stroke:none;stroke-width:2;marker:none;visibility:visible;display:inline;overflow:visible;font-family:Andale Mono"
   id="rect12675-3-8-5-2-9"
   d="m 126.20369,22.075713 c -13.88774,0 -25.52356,12.155458 -25.52356,26.663409 l 0,3.809058 29.16977,0 3.64622,0 83.86309,0 0,60.94495 -43.75466,0 0,45.70871 52.87021,0 -7.29244,-15.23625 1.82312,0 c 13.88772,0 25.52354,-12.15546 25.52354,-26.6634 l 0,-68.563068 c 0,-14.507951 -11.63582,-26.663409 -25.52354,-26.663409 l -94.80175,0 z"
   inkscape:connector-curvature="0" /><path
   style="fill:#4ecae9;fill-opacity:1;fill-rule:evenodd;stroke:none"
   d="m 152.44424,219.76356 44.76682,0.0591 c 6.06906,0.22608 12.38398,-1.32289 12.38398,-7.58888 l 0.535,-26.6747 13.58576,-9.3e-4 c 3.07033,0.12682 0.66946,-1.50683 0.35155,-1.90188 l -20.44241,-18.69229 c -1.73612,-1.40971 -3.10178,-0.1202 -3.83846,0.44032 l -20.55314,18.49339 c -2.06218,1.64669 -0.79762,1.60884 1.2309,1.66122 l 12.14813,0 -0.0863,17.93893 c 0.35358,4.58742 -4.63484,4.33848 -4.63484,4.33848 l -36.37984,-0.0197 c -3.01346,-0.14852 -2.85331,2.2564 -2.79888,3.73556 l 0.0525,5.62133 c -0.25762,3.04727 1.94882,2.32403 3.68046,2.59754 z"
   id="path3817-0-8-6-5"
   inkscape:connector-curvature="0"
   sodipodi:nodetypes="cccccccccccccccccc" /><path
   style="fill:#4ecae9;fill-opacity:1;fill-rule:evenodd;stroke:none"
   d="m 93.804356,22.260914 -44.766883,-0.05915 c -6.068957,-0.226082 -12.383984,1.322888 -12.383984,7.588877 l -0.534952,26.6747 -13.585648,9.32e-4 c -3.070337,-0.126817 -0.669467,1.506833 -0.351548,1.901882 l 20.442245,18.692286 c 1.736129,1.409715 3.101804,0.120198 3.838527,-0.44032 l 20.553179,-18.49339 c 2.062152,-1.646683 0.797499,-1.608841 -1.231024,-1.661215 l -12.148044,0 0.08644,-17.938937 c -0.353573,-4.587419 4.634811,-4.338473 4.634811,-4.338473 l 36.379845,0.01972 c 3.013477,0.14852 2.853302,-2.256401 2.798875,-3.735561 l -0.05267,-5.621332 C 97.74121,21.803665 95.534684,22.52691 93.803012,22.253397 z"
   id="path3817-0-8-6-5-3"
   inkscape:connector-curvature="0"
   sodipodi:nodetypes="cccccccccccccccccc" /></svg>