<?xml version="1.0" encoding="UTF-8" standalone="no"?>
<!-- Created with Inkscape (http://www.inkscape.org/) -->

<svg
   xmlns:dc="http://purl.org/dc/elements/1.1/"
   xmlns:cc="http://creativecommons.org/ns#"
   xmlns:rdf="http://www.w3.org/1999/02/22-rdf-syntax-ns#"
   xmlns:svg="http://www.w3.org/2000/svg"
   xmlns="http://www.w3.org/2000/svg"
   xmlns:xlink="http://www.w3.org/1999/xlink"
   xmlns:sodipodi="http://sodipodi.sourceforge.net/DTD/sodipodi-0.dtd"
   xmlns:inkscape="http://www.inkscape.org/namespaces/inkscape"
   version="1.0"
   width="96"
   height="96"
   id="svg2408"
   inkscape:version="0.48.3.1 r9886"
   sodipodi:docname="applications-geology.svg">
  <sodipodi:namedview
     pagecolor="#ffffff"
     bordercolor="#666666"
     borderopacity="1"
     objecttolerance="10"
     gridtolerance="10"
     guidetolerance="10"
     inkscape:pageopacity="0"
     inkscape:pageshadow="2"
     inkscape:window-width="1438"
     inkscape:window-height="850"
     id="namedview71"
     showgrid="false"
     inkscape:zoom="4.1817681"
     inkscape:cx="38.123252"
     inkscape:cy="66.479661"
     inkscape:window-x="0"
     inkscape:window-y="26"
     inkscape:window-maximized="1"
     inkscape:current-layer="svg2408"
     showguides="false" />
  <defs
     id="defs2410">
    <linearGradient
       x1="45.447727"
       y1="92.539597"
       x2="45.447727"
       y2="7.0165396"
       id="ButtonShadow"
       gradientUnits="userSpaceOnUse"
       gradientTransform="scale(1.0058652,0.994169)">
      <stop
         id="stop3750"
         style="stop-color:#000000;stop-opacity:1"
         offset="0" />
      <stop
         id="stop3752"
         style="stop-color:#000000;stop-opacity:0.58823532"
         offset="1" />
    </linearGradient>
    <linearGradient
       id="linearGradient3737">
      <stop
         id="stop3739"
         style="stop-color:#ffffff;stop-opacity:1"
         offset="0" />
      <stop
         id="stop3741"
         style="stop-color:#ffffff;stop-opacity:0"
         offset="1" />
    </linearGradient>
    <filter
       color-interpolation-filters="sRGB"
       id="filter3174">
      <feGaussianBlur
         id="feGaussianBlur3176"
         stdDeviation="1.71" />
    </filter>
    <linearGradient
       x1="36.357143"
       y1="6"
       x2="36.357143"
       y2="63.893143"
       id="linearGradient3188"
       xlink:href="#linearGradient3737"
       gradientUnits="userSpaceOnUse" />
    <filter
       x="-0.192"
       y="-0.192"
       width="1.3839999"
       height="1.3839999"
       color-interpolation-filters="sRGB"
       id="filter3794">
      <feGaussianBlur
         id="feGaussianBlur3796"
         stdDeviation="5.28" />
    </filter>
    <linearGradient
       x1="48"
       y1="20.220806"
       x2="48"
       y2="138.66119"
       id="linearGradient3613"
       xlink:href="#linearGradient3737"
       gradientUnits="userSpaceOnUse" />
    <radialGradient
       cx="48"
       cy="90.171875"
       r="42"
       fx="48"
       fy="90.171875"
       id="radialGradient3619"
       xlink:href="#linearGradient3737"
       gradientUnits="userSpaceOnUse"
       gradientTransform="matrix(1.1573129,0,0,0.99590774,-7.5510206,0.19713193)" />
    <clipPath
       id="clipPath3613">
      <rect
         width="84"
         height="84"
         rx="6"
         ry="6"
         x="6"
         y="6"
         id="rect3615"
         style="fill:#ffffff;fill-opacity:1;fill-rule:nonzero;stroke:none" />
    </clipPath>
    <linearGradient
       x1="48"
       y1="90"
       x2="48"
       y2="5.9877172"
       id="linearGradient3617"
       xlink:href="#ButtonColor"
       gradientUnits="userSpaceOnUse" />
    <linearGradient
       x1="58.650177"
       y1="122"
       x2="58.650177"
       y2="5.4252338"
       id="ButtonColor"
       gradientUnits="userSpaceOnUse">
      <stop
         id="stop3189"
         style="stop-color:#d18c1d;stop-opacity:1"
         offset="0" />
      <stop
         id="stop3191"
         style="stop-color:#ffcf0f;stop-opacity:1"
         offset="1" />
    </linearGradient>
    <linearGradient
       x1="56.466431"
       y1="11.349823"
       x2="56.466431"
       y2="36.26585"
       id="linearGradient3198"
       xlink:href="#linearGradient3192"
       gradientUnits="userSpaceOnUse" />
    <linearGradient
       id="linearGradient3192">
      <stop
         id="stop3194"
         style="stop-color:#000000;stop-opacity:1"
         offset="0" />
      <stop
         id="stop3196"
         style="stop-color:#000000;stop-opacity:0"
         offset="1" />
    </linearGradient>
    <linearGradient
       x1="56.466431"
       y1="11.349823"
       x2="56.466431"
       y2="36.26585"
       id="linearGradient3193"
       xlink:href="#linearGradient3192"
       gradientUnits="userSpaceOnUse" />
    <linearGradient
       x1="56.466431"
       y1="11.349823"
       x2="56.466431"
       y2="36.26585"
       id="linearGradient3195"
       xlink:href="#linearGradient3192"
       gradientUnits="userSpaceOnUse" />
    <linearGradient
       x1="56.466431"
       y1="11.349823"
       x2="56.466431"
       y2="36.26585"
       id="linearGradient3197"
       xlink:href="#linearGradient3192"
       gradientUnits="userSpaceOnUse" />
    <linearGradient
       x1="56.466431"
       y1="11.349823"
       x2="56.466431"
       y2="36.26585"
       id="linearGradient3199"
       xlink:href="#linearGradient3192"
       gradientUnits="userSpaceOnUse" />
    <filter
       x="-0.10549754"
       y="-0.13912515"
       width="1.2109951"
       height="1.2782503"
       color-interpolation-filters="sRGB"
       id="filter3861">
      <feGaussianBlur
         id="feGaussianBlur3863"
         stdDeviation="2.9050996" />
    </filter>
    <clipPath
       id="clipPath3865">
      <path
         d="m -88,6 c -3.324,0 -6,2.676 -6,6 l 0,72 c 0,3.324 2.676,6 6,6 l 72,0 c 3.324,0 6,-2.676 6,-6 l 0,-72 c 0,-3.324 -2.676,-6 -6,-6 l -72,0 z m 33.625,22 c 1.880448,-0.06833 3.788449,0.959903 4.75,2.90625 0.579908,1.173833 0.630329,3.073374 0.125,4.40625 -0.761049,2.007369 -2.527947,3.21875 -4.6875,3.21875 -1.137164,0 -1.202239,0.0223 -1.125,0.375 0.04475,0.204342 0.323856,4.66007 0.625,9.90625 0.412151,7.179997 0.511906,9.704677 0.375,10.21875 -0.100033,0.375618 -0.156526,0.731501 -0.125,0.78125 1.574006,0.888629 3.192056,1.799209 4.90625,2.3125 1.336222,-1.877455 3.772107,-4.744143 4.25,-4.96875 3.317966,-0.462086 6.880559,-0.480621 10.1875,0.03125 5.657377,6.560115 11.174834,13.764075 16.1875,20.84375 l -41.25,0.09375 8.71875,-13.75 c -0.03569,-0.02979 -2.808198,-1.483462 -6.1875,-3.25 -5.496689,-2.873399 -6.638586,-3.372067 -6.625,-2.90625 0.0022,0.07386 0.421884,1.875646 0.9375,4 l 1.1875,3.84375 0.03125,5.625 c 0.01843,5.443247 -0.0022,5.661679 -0.34375,6 -0.375441,0.371853 -1.112829,0.396687 -3.3125,0.1875 -0.792649,-0.07539 -1.840876,-0.406019 -2.125,-0.6875 l 0.03125,-11.625 -0.9375,-3.6875 -0.9375,-3.6875 -5.1875,9 c -2.848853,4.962604 -5.472239,9.333029 -5.8125,9.6875 -0.86375,0.899818 -1.354531,0.838846 -2.84375,-0.25 -1.275231,-0.932391 -1.572539,-1.383605 -1.40625,-2.25 0.149834,-0.780644 0.01677,-0.546097 6.09375,-11.125 3.011727,-5.242855 5.523305,-9.703165 5.5625,-9.90625 0.06098,-0.31595 -0.193363,-0.503911 -1.78125,-1.34375 -1.833623,-0.96981 -1.875906,-0.977232 -2.125,-0.625 -0.442438,0.625627 -1.074526,0.451733 -2.3125,-0.65625 -1.698831,-1.520448 -1.745074,-1.297229 2,-8.28125 1.698047,-3.166613 3.271023,-5.951186 3.5,-6.1875 l 0.40625,-0.40625 7.4375,-0.0625 7.4375,-0.0625 L -59,34.9375 c -0.591495,-1.88561 0.02988,-4.22107 1.46875,-5.59375 0.915574,-0.873465 2.027981,-1.302753 3.15625,-1.34375 z m -14.5,13.25 c -0.253538,1.82e-4 -0.598734,0.01989 -1.03125,0.03125 L -71.75,41.34375 -73.71875,45 c -1.084031,2.025217 -1.949573,3.738343 -1.90625,3.78125 0.110518,0.109463 3.300355,1.74815 3.40625,1.75 0.04772,8.18e-4 0.962794,-1.959126 2.03125,-4.34375 1.068455,-2.384626 1.96681,-4.487517 2.03125,-4.65625 0.08147,-0.213327 0.04187,-0.281796 -0.71875,-0.28125 z m 9.4375,7 c -0.147081,-0.02701 -0.580386,0.857379 -1.6875,3.34375 -0.896631,2.013671 -1.656072,3.720382 -1.6875,3.78125 -0.06085,0.117854 3.815701,2.179108 3.9375,2.09375 0.03957,-0.02773 -0.03025,-2.019282 -0.15625,-4.40625 -0.126001,-2.386971 -0.285188,-4.532318 -0.34375,-4.75 -0.01033,-0.0384 -0.04149,-0.05864 -0.0625,-0.0625 z"
         inkscape:connector-curvature="0"
         id="path3867"
         style="fill:#ffffff;fill-opacity:1;fill-rule:nonzero;stroke:none" />
    </clipPath>
    <clipPath
       id="clipPath3873">
      <path
         d="m -55.763593,76.871041 c -0.792649,-0.07539 -1.81409,-0.394056 -2.098214,-0.675537 l 0.0091,-11.629569 -0.938143,-3.695097 -0.938143,-3.695097 -5.179737,9.022914 c -2.848853,4.962604 -5.458134,9.312939 -5.798395,9.66741 -0.86375,0.899818 -1.365788,0.859482 -2.855007,-0.229364 -1.275231,-0.932391 -1.561174,-1.396213 -1.394885,-2.262608 0.149834,-0.780644 0.01978,-0.543388 6.096765,-11.122291 3.011727,-5.242855 5.507937,-9.698625 5.547132,-9.90171 0.06098,-0.31595 -0.196572,-0.510905 -1.784459,-1.350744 -1.833623,-0.96981 -1.858729,-0.977254 -2.107823,-0.625022 -0.442438,0.625627 -1.076735,0.443555 -2.314709,-0.664428 -1.698831,-1.520448 -1.757699,-1.275786 1.987375,-8.259807 1.698047,-3.166613 3.274703,-5.950827 3.50368,-6.187141 l 0.416322,-0.429663 7.438682,-0.04987 7.438685,-0.04987 -0.253918,-0.809459 c -0.591495,-1.88561 0.0095,-4.19663 1.448371,-5.56931 2.441532,-2.329241 6.363975,-1.555682 7.902456,1.558473 0.579908,1.173833 0.635892,3.055549 0.130563,4.388425 -0.761049,2.007369 -2.533852,3.225841 -4.693405,3.225841 -1.137164,0 -1.193753,0.01883 -1.116514,0.371533 0.04475,0.204342 0.327755,4.66386 0.628899,9.91004 0.412151,7.179997 0.502564,9.707373 0.365658,10.221446 -0.100033,0.375618 -0.156083,0.723641 -0.124557,0.77339 1.574006,0.888629 3.190563,1.801476 4.904757,2.314767 1.336222,-1.877455 3.797333,-4.729212 4.275226,-4.953819 3.317966,-0.462086 6.852918,-0.488971 10.159859,0.0229 5.657377,6.560115 11.18443,13.764926 16.197096,20.844601 l -41.233706,0.08249 8.713509,-13.734918 c -0.03569,-0.02979 -2.829765,-1.499502 -6.209067,-3.26604 -5.496689,-2.873399 -6.619512,-3.366421 -6.605926,-2.900604 0.0022,0.07386 0.425783,1.872406 0.941399,3.99676 l 1.19002,3.862467 0.01906,5.627061 c 0.01843,5.443247 0.0075,5.638485 -0.334064,5.976806 -0.375441,0.371853 -1.134271,0.403831 -3.333942,0.194644 z m 6.720887,-24.807932 c -0.126001,-2.386971 -0.277007,-4.518048 -0.335569,-4.73573 -0.08264,-0.307176 -0.471447,0.423869 -1.73672,3.265436 -0.896631,2.013671 -1.655958,3.711021 -1.687386,3.771889 -0.06085,0.117854 3.795022,2.174125 3.916821,2.088767 0.03957,-0.02773 -0.03115,-2.003394 -0.157146,-4.390362 z m -11.15999,-6.878865 c 1.068455,-2.384626 1.995368,-4.473735 2.059808,-4.642468 0.108626,-0.284436 -0.01879,-0.30322 -1.748855,-0.257798 l -1.866016,0.04899 -1.970962,3.682213 c -1.084031,2.025217 -1.935518,3.717322 -1.892195,3.760229 0.110518,0.109463 3.282916,1.741151 3.388811,1.743001 0.04772,8.18e-4 0.960953,-1.949543 2.029409,-4.334167 z"
         inkscape:connector-curvature="0"
         id="path3875"
         style="fill:#ffffff;fill-opacity:1;display:inline" />
    </clipPath>
    <filter
       color-interpolation-filters="sRGB"
       id="filter3881">
      <feGaussianBlur
         id="feGaussianBlur3883"
         stdDeviation="0.58101993" />
    </filter>
    <linearGradient
       x1="45.447727"
       y1="92.539597"
       x2="45.447727"
       y2="7.0165396"
       id="ButtonShadow-0"
       gradientUnits="userSpaceOnUse"
       gradientTransform="matrix(1.0058652,0,0,0.994169,100,0)">
      <stop
         id="stop3750-8"
         style="stop-color:#000000;stop-opacity:1"
         offset="0" />
      <stop
         id="stop3752-5"
         style="stop-color:#000000;stop-opacity:0.58823532"
         offset="1" />
    </linearGradient>
    <linearGradient
       x1="32.251034"
       y1="6.1317081"
       x2="32.251034"
       y2="90.238609"
       id="linearGradient3780"
       xlink:href="#ButtonShadow-0"
       gradientUnits="userSpaceOnUse"
       gradientTransform="matrix(1.0238095,0,0,1.0119048,-1.1428571,-98.071429)" />
    <linearGradient
       x1="32.251034"
       y1="6.1317081"
       x2="32.251034"
       y2="90.238609"
       id="linearGradient3772"
       xlink:href="#ButtonShadow-0"
       gradientUnits="userSpaceOnUse"
       gradientTransform="matrix(1.0238095,0,0,1.0119048,-1.1428571,-98.071429)" />
    <linearGradient
       x1="32.251034"
       y1="6.1317081"
       x2="32.251034"
       y2="90.238609"
       id="linearGradient3725-0"
       xlink:href="#ButtonShadow-0"
       gradientUnits="userSpaceOnUse"
       gradientTransform="matrix(1.0238095,0,0,1.0119048,-1.1428571,-98.071429)" />
    <linearGradient
       x1="32.251034"
       y1="6.1317081"
       x2="32.251034"
       y2="90.238609"
       id="linearGradient3721"
       xlink:href="#ButtonShadow-0"
       gradientUnits="userSpaceOnUse"
       gradientTransform="translate(0,-97)" />
    <linearGradient
       x1="32.251034"
       y1="6.1317081"
       x2="32.251034"
       y2="90.238609"
       id="linearGradient3811"
       xlink:href="#ButtonShadow-0"
       gradientUnits="userSpaceOnUse"
       gradientTransform="matrix(1.0238095,0,0,1.0119048,-1.1428571,-98.071429)" />
  </defs>
  <metadata
     id="metadata2413">
    <rdf:RDF>
      <cc:Work
         rdf:about="">
        <dc:format>image/svg+xml</dc:format>
        <dc:type
           rdf:resource="http://purl.org/dc/dcmitype/StillImage" />
        <dc:title></dc:title>
      </cc:Work>
    </rdf:RDF>
  </metadata>
  <g
     id="layer2"
     style="display:none">
    <rect
       width="86"
       height="85"
       rx="6"
       ry="6"
       x="5"
       y="7"
       id="rect3745"
       style="opacity:0.9;fill:url(#ButtonShadow);fill-opacity:1;fill-rule:nonzero;stroke:none;filter:url(#filter3174)" />
  </g>
  <g
     id="g3368"
     transform="translate(1.1956665,2.6304663)">
    <path
       inkscape:connector-curvature="0"
       id="path3161"
       d="m 43.194185,32.611367 c -0.30057,-0.01 -0.59914,0.0078 -0.90625,0.03125 -4.675027,0.356239 -8.199989,4.449973 -7.84375,9.125 0.02408,0.315991 0.099,0.633127 0.15625,0.9375 1.149768,-0.742959 2.507804,-1.201175 3.96875,-1.3125 1.304799,-0.09943 2.573392,0.08709 3.71875,0.53125 0.493425,-3.40088 3.032358,-6.183843 6.40625,-7 -1.466385,-1.364093 -3.396009,-2.242521 -5.5,-2.3125 z"
       style="fill:#694869;fill-opacity:1;stroke:none" />
    <path
       inkscape:connector-curvature="0"
       id="path3161-1"
       d="m 50.194185,43.517617 c -0.282546,-0.0067 -0.587314,0.0093 -0.875,0.03125 -1.38141,0.105264 -2.642822,0.51286 -3.75,1.1875 1.01892,1.250669 1.674543,2.808422 1.84375,4.53125 l 0.03125,0.1875 c 0.250745,3.290596 -1.42693,6.265425 -4.0625,7.875 1.69568,2.094648 4.35949,3.345258 7.25,3.125 4.675027,-0.356239 8.168739,-4.418723 7.8125,-9.09375 l -0.03125,-0.1875 c -0.423017,-4.30707 -3.980563,-7.555817 -8.21875,-7.65625 z"
       style="fill:#694869;fill-opacity:1;stroke:none" />
    <path
       sodipodi:nodetypes="cccsccssc"
       inkscape:connector-curvature="0"
       id="path3161-1-5-7-8"
       d="m 47.412935,49.017617 0.03125,0.1875 c 0.05476,0.718594 0.02402,1.414689 -0.09375,2.09375 1.154468,0.453961 2.430111,0.663076 3.75,0.5625 4.675027,-0.356239 8.168739,-4.449973 7.8125,-9.125 l 0,-0.1875 c -0.423017,-4.30707 -4.011813,-7.555817 -8.25,-7.65625 -0.282546,-0.0067 -0.556064,0.0093 -0.84375,0.03125 -3.961218,0.301847 -7.075541,3.286092 -7.71875,7.03125"
       style="fill:none;stroke:#694869;stroke-width:0.66982663" />
    <path
       transform="matrix(0.66982665,0,0,0.66982665,8.2245796,16.216828)"
       sodipodi:open="true"
       sodipodi:end="12.46847"
       sodipodi:start="6.2071318"
       d="m 58.551021,49.601696 c 0.531838,6.979459 -4.694991,13.068568 -11.67445,13.600406 -6.979458,0.531839 -13.068568,-4.694991 -13.600406,-11.67445 -0.531838,-6.979458 4.694991,-13.068568 11.67445,-13.600406 6.871881,-0.52364 12.90272,4.539809 13.576354,11.398611"
       sodipodi:ry="12.674065"
       sodipodi:rx="12.674065"
       sodipodi:cy="50.564674"
       sodipodi:cx="45.913593"
       id="path3161-1-5-7-8-1-4-9"
       style="fill:none;stroke:#694869"
       sodipodi:type="arc" />
    <path
       transform="matrix(0.74635354,-0.46595885,0.60789579,1.0100152,-20.747341,2.5000183)"
       sodipodi:open="true"
       sodipodi:end="12.46847"
       sodipodi:start="6.2071318"
       d="M 59.127599,59.06329 C 59.968003,80.660107 51.708627,99.501879 40.679764,101.14757 29.650902,102.79325 20.02896,86.619669 19.188556,65.022853 18.348151,43.426037 26.607528,24.584264 37.63639,22.938577 48.495259,21.318255 58.025122,36.986287 59.089592,58.209749"
       sodipodi:ry="39.217861"
       sodipodi:rx="20.027414"
       sodipodi:cy="62.043072"
       sodipodi:cx="39.158077"
       id="path3294-1-1"
       style="fill:none;stroke:#694869;stroke-width:2.29999995;stroke-linecap:square;stroke-linejoin:round;stroke-miterlimit:4;stroke-opacity:1;stroke-dasharray:none;stroke-dashoffset:9.3"
       sodipodi:type="arc" />
    <path
       transform="matrix(-0.74635354,-0.46595885,-0.60789579,1.0100152,112.37682,0.88492688)"
       sodipodi:open="true"
       sodipodi:end="12.46847"
       sodipodi:start="6.2071318"
       d="M 59.127599,59.06329 C 59.968003,80.660107 51.708627,99.501879 40.679764,101.14757 29.650902,102.79325 20.02896,86.619669 19.188556,65.022853 18.348151,43.426037 26.607528,24.584264 37.63639,22.938577 48.495259,21.318255 58.025122,36.986287 59.089592,58.209749"
       sodipodi:ry="39.217861"
       sodipodi:rx="20.027414"
       sodipodi:cy="62.043072"
       sodipodi:cx="39.158077"
       id="path3294-1-1-7"
       style="fill:none;stroke:#694869;stroke-width:2.29999995;stroke-linecap:square;stroke-linejoin:round;stroke-miterlimit:4;stroke-opacity:1;stroke-dasharray:none;stroke-dashoffset:9.3"
       sodipodi:type="arc" />
    <path
       transform="matrix(0.03035543,-0.87934055,-1.1786467,-0.0214456,118.8087,82.263032)"
       sodipodi:open="true"
       sodipodi:end="12.46847"
       sodipodi:start="6.2071318"
       d="M 59.127599,59.06329 C 59.968003,80.660107 51.708627,99.501879 40.679764,101.14757 29.650902,102.79325 20.02896,86.619669 19.188556,65.022853 18.348151,43.426037 26.607528,24.584264 37.63639,22.938577 48.495259,21.318255 58.025122,36.986287 59.089592,58.209749"
       sodipodi:ry="39.217861"
       sodipodi:rx="20.027414"
       sodipodi:cy="62.043072"
       sodipodi:cx="39.158077"
       id="path3294-1-1-7-2"
       style="fill:none;stroke:#694869;stroke-width:2.29999995;stroke-linecap:square;stroke-linejoin:round;stroke-miterlimit:4;stroke-opacity:1;stroke-dasharray:none;stroke-dashoffset:9.3"
       sodipodi:type="arc" />
  </g>
</svg>
