<?xml version="1.0" encoding="UTF-8" standalone="no"?>
<!-- Created with Inkscape (http://www.inkscape.org/) -->

<svg
   xmlns:dc="http://purl.org/dc/elements/1.1/"
   xmlns:cc="http://creativecommons.org/ns#"
   xmlns:rdf="http://www.w3.org/1999/02/22-rdf-syntax-ns#"
   xmlns:svg="http://www.w3.org/2000/svg"
   xmlns="http://www.w3.org/2000/svg"
   xmlns:xlink="http://www.w3.org/1999/xlink"
   xmlns:sodipodi="http://sodipodi.sourceforge.net/DTD/sodipodi-0.dtd"
   xmlns:inkscape="http://www.inkscape.org/namespaces/inkscape"
   version="1.0"
   width="96"
   height="96"
   id="svg2408"
   inkscape:version="0.48.3.1 r9886"
   sodipodi:docname="applications-geology.svg">
  <sodipodi:namedview
     pagecolor="#ffffff"
     bordercolor="#666666"
     borderopacity="1"
     objecttolerance="10"
     gridtolerance="10"
     guidetolerance="10"
     inkscape:pageopacity="0"
     inkscape:pageshadow="2"
     inkscape:window-width="1918"
     inkscape:window-height="1007"
     id="namedview71"
     showgrid="false"
     inkscape:zoom="2.0908841"
     inkscape:cx="225.99211"
     inkscape:cy="41.295805"
     inkscape:window-x="0"
     inkscape:window-y="25"
     inkscape:window-maximized="1"
     inkscape:current-layer="svg2408" />
  <defs
     id="defs2410">
    <linearGradient
       x1="45.447727"
       y1="92.539597"
       x2="45.447727"
       y2="7.0165396"
       id="ButtonShadow"
       gradientUnits="userSpaceOnUse"
       gradientTransform="scale(1.0058652,0.994169)">
      <stop
         id="stop3750"
         style="stop-color:#000000;stop-opacity:1"
         offset="0" />
      <stop
         id="stop3752"
         style="stop-color:#000000;stop-opacity:0.58823532"
         offset="1" />
    </linearGradient>
    <filter
       color-interpolation-filters="sRGB"
       id="filter3174">
      <feGaussianBlur
         id="feGaussianBlur3176"
         stdDeviation="1.71" />
    </filter>
    <linearGradient
       id="id5"
       gradientUnits="userSpaceOnUse"
       x1="47.634102"
       y1="235.146"
       x2="255.70599"
       y2="260.495">
      <stop
         offset="0"
         style="stop-color:#94C9E2"
         id="stop32" />
      <stop
         offset="0.490196"
         style="stop-color:#58A6D8"
         id="stop34" />
      <stop
         offset="0.819608"
         style="stop-color:#50719E"
         id="stop36" />
      <stop
         offset="1"
         style="stop-color:#386EAB"
         id="stop38" />
    </linearGradient>
    <linearGradient
       id="id9"
       gradientUnits="userSpaceOnUse"
       x1="265.91901"
       y1="259.46201"
       x2="37.4221"
       y2="236.18201">
      <stop
         offset="0"
         style="stop-color:#82C7E6"
         id="stop48" />
      <stop
         offset="0.741176"
         style="stop-color:#6690C2"
         id="stop50" />
      <stop
         offset="1"
         style="stop-color:#3C599B"
         id="stop52" />
    </linearGradient>
    <linearGradient
       id="linearGradient3173"
       gradientUnits="userSpaceOnUse"
       x1="47.634102"
       y1="235.146"
       x2="255.70599"
       y2="260.495">
      <stop
         offset="0"
         style="stop-color:#94C9E2"
         id="stop3175" />
      <stop
         offset="0.0705923"
         style="stop-color:#58A6D8"
         id="stop3177" />
      <stop
         offset="0.47693163"
         style="stop-color:#50719E"
         id="stop3179" />
      <stop
         offset="1"
         style="stop-color:#386EAB"
         id="stop3181" />
    </linearGradient>
    <linearGradient
       id="linearGradient3184"
       gradientUnits="userSpaceOnUse"
       x1="265.91901"
       y1="259.46201"
       x2="37.4221"
       y2="236.18201">
      <stop
         offset="0"
         style="stop-color:#82C7E6"
         id="stop3186" />
      <stop
         offset="0.741176"
         style="stop-color:#6690C2"
         id="stop3188" />
      <stop
         offset="1"
         style="stop-color:#3C599B"
         id="stop3190" />
    </linearGradient>
    <mask
       id="id0">
      <linearGradient
         id="id1"
         gradientUnits="userSpaceOnUse"
         x1="125.223"
         y1="121.94"
         x2="158.58"
         y2="114.1">
        <stop
           offset="0"
           style="stop-opacity:1; stop-color:white"
           id="stop10" />
        <stop
           offset="1"
           style="stop-opacity:0; stop-color:white"
           id="stop12" />
      </linearGradient>
      <rect
         style="fill:url(#id1)"
         x="116.649"
         y="89.0951"
         width="50.5061"
         height="57.850201"
         id="rect14" />
    </mask>
    <mask
       id="id2">
      <linearGradient
         id="id3"
         gradientUnits="userSpaceOnUse"
         x1="44.355099"
         y1="76.0485"
         x2="117.765"
         y2="168.164">
        <stop
           offset="0"
           style="stop-opacity:1; stop-color:white"
           id="stop18" />
        <stop
           offset="0.65098"
           style="stop-opacity:0.501961; stop-color:white"
           id="stop20" />
        <stop
           offset="1"
           style="stop-opacity:0; stop-color:white"
           id="stop22" />
      </linearGradient>
      <rect
         style="fill:url(#id3)"
         x="-61.734001"
         y="25.7596"
         width="285.58899"
         height="192.69299"
         id="rect24" />
    </mask>
    <linearGradient
       inkscape:collect="always"
       xlink:href="#id5"
       id="linearGradient3949"
       x1="9.4784756"
       y1="62.937927"
       x2="40.950012"
       y2="62.937927"
       gradientUnits="userSpaceOnUse" />
    <linearGradient
       inkscape:collect="always"
       xlink:href="#id9"
       id="linearGradient3957"
       x1="30.763588"
       y1="83.660103"
       x2="35.653412"
       y2="83.660103"
       gradientUnits="userSpaceOnUse" />
    <linearGradient
       inkscape:collect="always"
       xlink:href="#id5"
       id="linearGradient3965"
       x1="38.242142"
       y1="73.918633"
       x2="45.14542"
       y2="73.918633"
       gradientUnits="userSpaceOnUse" />
    <linearGradient
       inkscape:collect="always"
       xlink:href="#linearGradient3184"
       id="linearGradient3973"
       x1="19.932203"
       y1="52.624096"
       x2="88.320534"
       y2="52.624096"
       gradientUnits="userSpaceOnUse" />
    <linearGradient
       inkscape:collect="always"
       xlink:href="#linearGradient3173"
       id="linearGradient3981"
       x1="19.932203"
       y1="52.624096"
       x2="88.320534"
       y2="52.624096"
       gradientUnits="userSpaceOnUse" />
  </defs>
  <metadata
     id="metadata2413">
    <rdf:RDF>
      <cc:Work
         rdf:about="">
        <dc:format>image/svg+xml</dc:format>
        <dc:type
           rdf:resource="http://purl.org/dc/dcmitype/StillImage" />
        <dc:title />
      </cc:Work>
    </rdf:RDF>
  </metadata>
  <g
     id="layer2"
     style="display:none">
    <rect
       width="86"
       height="85"
       rx="6"
       ry="6"
       x="5"
       y="7"
       id="rect3745"
       style="opacity:0.9;fill:url(#ButtonShadow);fill-opacity:1;fill-rule:nonzero;stroke:none;filter:url(#filter3174)" />
  </g>
  <g
     id="g3067"
     style="fill:url(#linearGradient3973);fill-opacity:1.0;stroke:url(#linearGradient3981)">
    <path
       sodipodi:nodetypes="ccccccscsccccc"
       inkscape:connector-curvature="0"
       id="path3048"
       d="m 19.932203,26.440678 4.18694,11.965103 c 0,0 15.794614,-4.786887 18.235292,-6.414006 1.721586,1.680704 1.885847,4.404784 1.885847,4.404784 l 15.724822,-5.768942 -1.07652,-3.586991 c 0,0 10.383101,-3.229562 17.179213,-5.074524 6.293391,-1.708487 12.25274,-3.209121 12.25274,-3.209121 0,0 -12.536143,-2.650055 -17.848954,-3.250003 -4.86734,-0.549644 -15.050848,-0.361663 -15.050848,-0.361663 l -1.364157,-2.083249 -16.22607,4.02268 0.669742,3.42273 z"
       style="fill:url(#linearGradient3973);stroke:url(#linearGradient3981);stroke-width:1px;stroke-linecap:butt;stroke-linejoin:miter;stroke-opacity:1;fill-opacity:1.0" />
    <path
       sodipodi:nodetypes="ccsssscccccssccsscccc"
       inkscape:connector-curvature="0"
       id="path3050"
       d="M 57.6875,32.2826 47.75,35.5951 c 0,0 12.30543,44.247951 14.03125,48.5625 1.72582,4.31455 0.433401,9.96373 9.0625,7.375 8.6291,-2.588729 5.048728,-6.9004 3.625,-12.28125 C 73.14441,74.246131 61.832343,40.922423 59.53125,36.0326 57.951382,32.675381 57.709715,32.275129 57.6875,32.2826 z M 53.5,43.81385 63.757278,76.204909 c 0,0 0.810204,0.767595 1.165454,0.340111 L 62.84375,65.37635 c 0,0 1.41837,2.873492 2.437711,8.022046 0.779093,3.935092 1.461832,7.852124 1.86622,10.461895 0.385228,2.486124 0.383569,4.297309 0.383569,4.297309 L 65.1875,76.7826 C 64.593489,78.051516 63.411712,78.507942 62.77376,76.27511 61.9602,73.427652 59.37606,65.870518 58.5625,61.802721 57.748941,57.734925 53.5,43.81385 53.5,43.81385 z m 9.34375,36.40625 c 0,0 2.030721,2.246822 2.4375,4.6875 z"
       style="fill:url(#linearGradient3973);stroke:url(#linearGradient3981);fill-opacity:1.0" />
  </g>
  <path
     style="fill:url(#linearGradient3949);stroke:none;fill-opacity:1.0"
     d="m 22.422125,50.366162 c -1.580546,-0.750376 -4.022197,0.05262 -5.58424,0.252741 -0.489645,2.072175 -0.201883,3.838363 -0.642071,5.244258 -1.547673,-0.252559 -3.289261,0.672492 -5.395304,1.083749 -0.777522,0.848066 -0.9659274,2.901552 -1.3220343,4.061808 1.6022503,3.318662 4.3200923,8.381641 5.8195323,10.642557 0.911016,0.04923 3.355756,-0.22029 5.005972,-0.639079 1.393566,0.591011 2.903001,2.757384 4.182449,3.566292 2.422787,1.531765 8.478054,1.794117 8.478054,1.794117 0,0 1.420015,-1.551702 1.41253,-2.87739 1.416244,-1.427383 4.896455,-3.634086 5.609894,-4.909243 1.035562,-1.647744 -0.192775,-3.64292 -0.841638,-5.329429 0.792081,-2.11956 1.660785,-3.802921 1.804745,-5.330574 -0.749734,-1.182218 -2.0692,-1.532026 -3.858419,-2.95762 -0.779931,-1.980843 -0.66129,-2.676623 -1.523927,-4.955126 -2.125876,-0.189908 -5.857812,-0.222198 -8.511454,-0.509971 -1.709858,0.59077 -2.288519,2.911058 -3.483542,2.876367 -0.74963,-0.18864 -0.452248,-1.681934 -1.150547,-2.013457 z"
     id="path3052"
     inkscape:connector-curvature="0"
     sodipodi:nodetypes="cccccccccccccccccc" />
  <path
     style="fill:url(#linearGradient3957);stroke:none;fill-opacity:1.0"
     d="m 30.763588,82.293831 0.575273,2.876367 c 0,0 4.31455,-1.150547 4.31455,-2.301094 0,-1.150546 -4.889823,-0.575273 -4.889823,-0.575273 z"
     id="path3054"
     inkscape:connector-curvature="0" />
  <path
     style="fill:url(#linearGradient3965);stroke:none;fill-opacity:1.0"
     d="m 39.392688,75.678188 -1.150547,3.164003 3.45164,-2.013456 3.45164,-6.615644 c 0,0 -4.31455,-2.013456 -4.602187,-0.862909 -0.287636,1.150546 -1.150546,6.328006 -1.150546,6.328006 z"
     id="path3056"
     inkscape:connector-curvature="0" />
</svg>
