<?xml version="1.0" encoding="UTF-8"?>
<!DOCTYPE svg PUBLIC "-//W3C//DTD SVG 1.1//EN" "http://www.w3.org/Graphics/SVG/1.1/DTD/svg11.dtd">
<!-- Creator: CorelDRAW -->
<svg xmlns="http://www.w3.org/2000/svg" xml:space="preserve" width="256px" height="256px" style="shape-rendering:geometricPrecision; text-rendering:geometricPrecision; image-rendering:optimizeQuality; fill-rule:evenodd; clip-rule:evenodd"
viewBox="0 0 256 256"
 xmlns:xlink="http://www.w3.org/1999/xlink">
 <defs>
  <style type="text/css">
   <![CDATA[
    .fil0 {fill:#6DA5D7;fill-rule:nonzero}
    .fil2 {fill:url(#id4)}
    .fil1 {fill:url(#id5)}
    .fil3 {fill:url(#id6)}
    .fil5 {fill:url(#id7)}
    .fil4 {fill:url(#id8);fill-rule:nonzero}
   ]]>
  </style>
    <mask id="id0">
  <linearGradient id="id1" gradientUnits="userSpaceOnUse" x1="54.0828" y1="188.952" x2="180.82" y2="172.873">
   <stop offset="0" style="stop-opacity:1; stop-color:white"/>
   <stop offset="0.439216" style="stop-opacity:0.501961; stop-color:white"/>
   <stop offset="1" style="stop-opacity:0; stop-color:white"/>
  </linearGradient>
     <rect style="fill:url(#id1)" x="30.2245" y="111.596" width="174.454" height="138.633"/>
    </mask>
     <mask id="id2">
  <linearGradient id="id3" gradientUnits="userSpaceOnUse" x1="95.7558" y1="51.5246" x2="145.348" y2="39.8671">
   <stop offset="0" style="stop-opacity:1; stop-color:white"/>
   <stop offset="1" style="stop-opacity:0; stop-color:white"/>
  </linearGradient>
      <rect style="fill:url(#id3)" x="83.8845" y="3.5634" width="73.3349" height="84.2648"/>
     </mask>
  <linearGradient id="id4" gradientUnits="userSpaceOnUse" x1="31.4056" y1="180.912" x2="203.497" y2="180.912">
   <stop offset="0" style="stop-color:#B3D5E1"/>
   <stop offset="1" style="stop-color:white"/>
  </linearGradient>
  <linearGradient id="id5" gradientUnits="userSpaceOnUse" x1="50.6364" y1="135.786" x2="205.69" y2="226.705">
   <stop offset="0" style="stop-color:#94C9E2"/>
   <stop offset="0.490196" style="stop-color:#58A6D8"/>
   <stop offset="0.819608" style="stop-color:#50719E"/>
   <stop offset="1" style="stop-color:#386EAB"/>
  </linearGradient>
  <linearGradient id="id6" gradientUnits="userSpaceOnUse" xlink:href="#id5" x1="95.0873" y1="19.7611" x2="162.582" y2="76.0042">
  </linearGradient>
  <linearGradient id="id7" gradientUnits="userSpaceOnUse" xlink:href="#id4" x1="90.3251" y1="37.8899" x2="150.779" y2="53.5017">
  </linearGradient>
  <linearGradient id="id8" gradientUnits="userSpaceOnUse" x1="167.152" y1="72.2695" x2="90.5129" y2="23.4981">
   <stop offset="0" style="stop-color:#82C7E6"/>
   <stop offset="0.741176" style="stop-color:#6690C2"/>
   <stop offset="1" style="stop-color:#3C599B"/>
  </linearGradient>
 </defs>
 <g id="Capa_x0020_1">
  <metadata id="CorelCorpID_0Corel-Layer"/>
  <g id="_141686208">
   <path id="_143662352" class="fil0" d="M227.563 252.996l-50.7946 0 -1.16693 0 0 -1.16693c0,-32.2536 -3.29647,-54.1927 -11.1,-68.1049 -7.68191,-13.6914 -19.8438,-19.5993 -37.6785,-19.9713 -17.7922,-0.363781 -29.5418,5.0575 -36.8174,18.6591 -7.41144,13.8579 -10.3193,36.1855 -10.3193,69.4171l0 1.16693 -1.16693 0 -49.7541 0 -1.16693 0 0 -1.16693c0,-38.497 2.92442,-73.9585 16.7398,-99.8838 13.9016,-26.0859 38.7143,-42.4466 82.4164,-42.4466l0 0.00472442c43.6938,-0.00236221 69.2104,15.8256 83.8184,41.6387 14.5252,25.6666 18.1571,61.14 18.1571,100.687l0 1.16693 -1.16693 0zm-49.6289 -2.33387l48.4596 0c-0.0708664,-38.7296 -3.70985,-73.3951 -17.8453,-98.372 -14.1945,-25.0831 -39.0852,-40.4647 -81.794,-40.4623l0 0.00472442c-42.6864,0 -66.8695,15.8823 -80.3648,41.2076 -13.4433,25.2261 -16.3973,59.8939 -16.4563,97.622l47.4214 0c0.0685041,-32.9647 3.07324,-55.2722 10.6004,-69.3451 7.75278,-14.4934 20.1674,-20.2725 38.9139,-19.8886 18.7253,0.390946 31.5249,6.64845 39.6651,21.1572 7.9205,14.1189 11.3197,36.058 11.4,68.0766z"/>
   <path id="_143529432" class="fil1" d="M227.563 251.83c-20.1886,0 -28.2591,0 -50.7935,0 0,-64.9089 -13.3654,-88.4743 -49.923,-89.2385 -36.5411,-0.74764 -48.3273,22.3973 -48.3273,89.2385 0,0 -31.6218,0 -49.7553,0 0,-76.6786 11.602,-141.163 97.9893,-141.163 86.4062,-0.00472442 100.81,62.4167 100.81,141.163z"/>
   <path id="_141875696" class="fil2" style="mask:url(#id0)" d="M31.4056 249.048c-0.474805,-61.8793 16.6536,-105.457 35.4438,-117.566 28.3312,-25.865 110.229,-26.3292 133.914,17.0375 -37.4883,69.775 -17.8666,27.8103 -51.8293,15.5481 -47.2242,-17.054 -75.9617,10.0618 -72.0333,84.6381l-45.495 0.342521z"/>
   <g>
    <path id="_142168048" class="fil3" d="M171.974 47.8738c0,24.0461 -19.3217,43.545 -43.1482,43.545 -23.8123,0 -43.134,-19.4942 -43.134,-43.545 0,-24.0426 19.3217,-43.5238 43.134,-43.5238 23.8265,0 43.1482,19.4812 43.1482,43.5238z"/>
    <path id="_145563632" class="fil4" d="M173.141 47.8738c0,12.339 -4.96183,23.5158 -12.9815,31.6099 -8.01971,8.09412 -19.0997,13.102 -31.3324,13.102 -12.2292,0 -23.3056,-5.00789 -31.3253,-13.1032 -8.01617,-8.09294 -12.9768,-19.2686 -12.9768,-31.6088 0,-12.3355 4.95946,-23.5064 12.9756,-31.5946 8.01971,-8.09058 19.0973,-13.0961 31.3265,-13.0961 12.2339,0 23.3139,5.00435 31.3347,13.0949 8.01853,8.08821 12.9792,19.2591 12.9792,31.5958zm-14.6304 29.9694c7.59569,-7.66656 12.2965,-18.2634 12.2965,-29.9694 0,-11.7036 -4.69962,-22.2934 -12.2953,-29.9552 -7.59569,-7.66183 -18.0922,-12.4016 -29.6847,-12.4016 -11.5878,0 -22.082,4.73978 -29.6765,12.4028 -7.59333,7.66183 -12.2918,18.2516 -12.2918,29.954 0,11.7071 4.69962,22.3028 12.293,29.9682 7.59451,7.66656 18.0886,12.4099 29.6753,12.4099 11.5914,0 22.0879,-4.74332 29.6836,-12.4087z"/>
    <path id="_141855936" class="fil5" style="mask:url(#id2)" d="M88.3727 47.0588c2.98347,-37.4907 40.2698,-51.0084 64.4754,-28.5084 11.0918,10.3146 -8.94452,49.5698 -24.5292,64.9856 -8.92916,8.83467 -26.1013,-2.74607 -34.4233,-14.726 -6.07325,-8.74373 -4.68899,-16.7989 -5.52285,-21.7512z"/>
   </g>
  </g>
 </g>
</svg>
