<?xml version="1.0" encoding="UTF-8"?>
<!DOCTYPE svg PUBLIC "-//W3C//DTD SVG 1.1//EN" "http://www.w3.org/Graphics/SVG/1.1/DTD/svg11.dtd">
<!-- Creator: CorelDRAW -->
<svg xmlns="http://www.w3.org/2000/svg" xml:space="preserve" width="300px" height="300px" style="shape-rendering:geometricPrecision; text-rendering:geometricPrecision; image-rendering:optimizeQuality; fill-rule:evenodd; clip-rule:evenodd"
viewBox="0 0 300 300"
 xmlns:xlink="http://www.w3.org/1999/xlink">
 <defs>
  <style type="text/css">
   <![CDATA[
    .fil7 {fill:url(#id4)}
    .fil2 {fill:url(#id5)}
    .fil0 {fill:url(#id6)}
    .fil4 {fill:url(#id7)}
    .fil6 {fill:url(#id8)}
    .fil3 {fill:url(#id9);fill-rule:nonzero}
    .fil1 {fill:url(#id10);fill-rule:nonzero}
    .fil5 {fill:url(#id11);fill-rule:nonzero}
   ]]>
  </style>
     <mask id="id0">
  <linearGradient id="id1" gradientUnits="userSpaceOnUse" x1="125.223" y1="121.94" x2="158.58" y2="114.1">
   <stop offset="0" style="stop-opacity:1; stop-color:white"/>
   <stop offset="1" style="stop-opacity:0; stop-color:white"/>
  </linearGradient>
      <rect style="fill:url(#id1)" x="116.649" y="89.0951" width="50.5061" height="57.8502"/>
     </mask>
    <mask id="id2">
  <linearGradient id="id3" gradientUnits="userSpaceOnUse" x1="44.3551" y1="76.0485" x2="117.765" y2="168.164">
   <stop offset="0" style="stop-opacity:1; stop-color:white"/>
   <stop offset="0.65098" style="stop-opacity:0.501961; stop-color:white"/>
   <stop offset="1" style="stop-opacity:0; stop-color:white"/>
  </linearGradient>
     <rect style="fill:url(#id3)" x="-61.734" y="25.7596" width="285.589" height="192.693"/>
    </mask>
  <linearGradient id="id4" gradientUnits="userSpaceOnUse" x1="76.3571" y1="27.6697" x2="85.7635" y2="216.542">
   <stop offset="0" style="stop-color:#E7EEFA"/>
   <stop offset="1" style="stop-color:#7DA2E3"/>
  </linearGradient>
  <linearGradient id="id5" gradientUnits="userSpaceOnUse" x1="47.6341" y1="235.146" x2="255.706" y2="260.495">
   <stop offset="0" style="stop-color:#94C9E2"/>
   <stop offset="0.490196" style="stop-color:#58A6D8"/>
   <stop offset="0.819608" style="stop-color:#50719E"/>
   <stop offset="1" style="stop-color:#386EAB"/>
  </linearGradient>
  <linearGradient id="id6" gradientUnits="userSpaceOnUse" xlink:href="#id5" x1="42.2582" y1="61.7091" x2="255.81" y2="186.723">
  </linearGradient>
  <linearGradient id="id7" gradientUnits="userSpaceOnUse" xlink:href="#id5" x1="124.776" y1="100.578" x2="170.168" y2="138.403">
  </linearGradient>
  <linearGradient id="id8" gradientUnits="userSpaceOnUse" x1="121.57" y1="112.77" x2="162.233" y2="123.27">
   <stop offset="0" style="stop-color:#B3D5E1"/>
   <stop offset="1" style="stop-color:white"/>
  </linearGradient>
  <linearGradient id="id9" gradientUnits="userSpaceOnUse" x1="265.919" y1="259.462" x2="37.4221" y2="236.182">
   <stop offset="0" style="stop-color:#82C7E6"/>
   <stop offset="0.741176" style="stop-color:#6690C2"/>
   <stop offset="1" style="stop-color:#3C599B"/>
  </linearGradient>
  <linearGradient id="id10" gradientUnits="userSpaceOnUse" xlink:href="#id9" x1="268.271" y1="177.881" x2="29.7916" y2="70.5549">
  </linearGradient>
  <linearGradient id="id11" gradientUnits="userSpaceOnUse" xlink:href="#id9" x1="173.242" y1="135.892" x2="121.699" y2="103.091">
  </linearGradient>
 </defs>
 <g id="Capa_x0020_1">
  <metadata id="CorelCorpID_0Corel-Layer"/>
  <g id="_83818088">
   <path id="_82710240" class="fil0" d="M80.3171 50.2473l136.387 0c23.2766,0 41.9703,18.6869 41.9703,41.9689l0 50.3553c0,23.2821 -18.6938,41.9759 -41.9759,41.9759l-136.382 0c-23.2973,0 -41.9703,-18.6938 -41.9703,-41.9759l0 -50.3553c0,-23.2821 18.673,-41.9648 41.9703,-41.9689zm-26.2399 -23.0855c-23.2766,0 -41.9689,18.6979 -41.9689,41.9703l0 109.107c0,23.2973 18.6924,43.0361 41.9689,43.0361l189.908 -0.00415233c23.2558,0 41.9703,-19.7291 41.9703,-43.0264l0 -109.118c0,-23.2669 -18.7145,-41.9648 -41.9759,-41.9648l-189.902 0z"/>
   <path id="_82710032" class="fil1" d="M80.3184 48.0189l136.387 0c12.2535,0 23.3042,4.92189 31.2905,12.9068 7.98354,7.98492 12.9054,19.0343 12.9054,31.2905l0 50.3566c0,12.2563 -4.92189,23.3098 -12.9082,31.2961 -7.98631,7.98631 -19.0384,12.9082 -31.2947,12.9082l-136.38 0c-12.2632,0 -23.3112,-4.92051 -31.2933,-12.904 -7.98631,-7.98769 -12.9054,-19.0426 -12.9054,-31.3002l0 -50.3566c0,-12.2577 4.91774,-23.3084 12.9027,-31.2933 7.97662,-7.97662 19.0287,-12.8944 31.2961,-12.8957l0 -0.00830465zm136.387 4.45683l-136.387 0 0 -0.00830465c-11.0244,0 -20.9623,4.42915 -28.1431,11.6085 -7.1766,7.1766 -11.5988,17.1145 -11.5988,28.1403l0 50.3566c0,11.0258 4.42361,20.9679 11.6016,28.1472 7.17522,7.1766 17.109,11.6002 28.1403,11.6002l136.38 0c11.0244,0 20.9623,-4.425 28.1417,-11.6044 7.17937,-7.17937 11.6044,-17.1187 11.6044,-28.1431l0 -50.3566c0,-11.0244 -4.42638,-20.9609 -11.6016,-28.1375 -7.17937,-7.17799 -17.1159,-11.603 -28.1375,-11.603zm-162.629 -23.0855c-11.0203,0 -20.9596,4.42776 -28.1362,11.6044 -7.17937,7.17937 -11.6044,17.1173 -11.6044,28.1362l0 109.108c0,11.1241 4.48866,21.3928 11.758,28.8462 7.16415,7.34823 17.0384,11.9615 27.9825,11.9615l0 0.00830465 189.909 -0.00415233 0 -0.00830465c10.9358,0 20.8142,-4.61462 27.9811,-11.9629 7.26657,-7.45066 11.758,-17.7152 11.758,-28.8351l0 -109.116c0,-11.0161 -4.42915,-20.9499 -11.6085,-28.1279 -7.18214,-7.18214 -17.1214,-11.6099 -28.1375,-11.6099l-189.902 0zm-31.2892 8.45137c7.98492,-7.98354 19.037,-12.9082 31.2892,-12.9082l189.902 0c12.248,0 23.3015,4.92604 31.2905,12.9137 7.98631,7.98492 12.9123,19.0329 12.9123,31.2809l0 109.116c0,12.3103 -4.97587,23.6779 -13.03,31.9342 -7.98077,8.18285 -18.983,13.3207 -31.166,13.3207l0 -0.00830465 -189.909 0.00415233 0 0.00830465c-12.1912,0 -23.1907,-5.13781 -31.1687,-13.3179 -8.05551,-8.26036 -13.0286,-19.6322 -13.0286,-31.9466l0 -109.108c0,-12.2507 4.92189,-23.3029 12.9082,-31.2892z"/>
   <path id="_82817560" class="fil2" d="M30.013 228.216l243.335 0c6.23126,0 11.2916,5.04508 11.2916,11.2763l0 16.6619c0,6.23126 -5.06584,11.2763 -11.2971,11.2763l-243.329 0c-6.23126,0 -11.3123,-5.04508 -11.3123,-11.2763l0.00553643 -16.6619c0,-6.23126 5.07553,-11.2763 11.3068,-11.2763z"/>
   <path id="_82918664" class="fil3" d="M30.0144 225.986l243.333 0c3.72602,0 7.10601,1.51283 9.55173,3.95578 2.44987,2.44849 3.96824,5.8271 3.96824,9.55035l0 16.6633c0,3.72325 -1.51975,7.10048 -3.96962,9.54758 -2.44849,2.44434 -5.82987,3.95578 -9.5545,3.95578l-243.329 0c-3.7274,0 -7.11293,-1.51421 -9.56419,-3.95855 -2.45541,-2.44434 -3.97654,-5.82018 -3.97654,-9.54481l0.00968876 0 0.00276822 -16.6633 -0.00968876 0c0,-3.72464 1.52114,-7.10186 3.97516,-9.54758 2.45126,-2.44434 5.83817,-3.95855 9.56281,-3.95855zm243.333 4.45683l-243.333 0c-2.508,0 -4.78486,1.01594 -6.4278,2.65472 -1.63602,1.63048 -2.65195,3.89211 -2.65195,6.39458l-0.00968876 0 -0.00276822 16.6633 0.00968876 0c0,2.4997 1.01594,4.76272 2.65334,6.39181 1.64294,1.63878 3.9198,2.65334 6.42918,2.65334l243.329 0c2.508,0 4.77933,-1.01317 6.4195,-2.65057 1.63325,-1.63048 2.6478,-3.89211 2.6478,-6.39458l0 -16.6633c0,-2.50385 -1.01317,-4.76549 -2.64642,-6.39735 -1.63878,-1.6374 -3.91011,-2.65195 -6.41673,-2.65195z"/>
   <g>
    <path id="_83230056" class="fil4" d="M176.485 119.485c0,16.1719 -12.9954,29.285 -29.0192,29.285 -16.0141,0 -29.0095,-13.1103 -29.0095,-29.285 0,-16.1692 12.9954,-29.2711 29.0095,-29.2711 16.0238,0 29.0192,13.102 29.0192,29.2711z"/>
    <path id="_83574768" class="fil5" d="M177.27 119.485c0,8.29912 -3.33709,15.8148 -8.73096,21.2585 -5.39387,5.4437 -12.8445,8.81124 -21.0731,8.81124 -8.22299,0 -15.6736,-3.36754 -21.0661,-8.81262 -5.39249,-5.44231 -8.72819,-12.958 -8.72819,-21.2571 0,-8.29635 3.3357,-15.8093 8.7268,-21.2488 5.39387,-5.44093 12.8431,-8.80708 21.0675,-8.80708 8.22853,0 15.6806,3.36477 21.0744,8.80708 5.39249,5.43955 8.72957,12.9525 8.72957,21.2488zm-9.83963 20.1554c5.10874,-5.1558 8.27005,-12.2826 8.27005,-20.1554 0,-7.87143 -3.1613,-14.994 -8.27005,-20.1457 -5.10736,-5.15304 -12.1677,-8.34064 -19.9644,-8.34064 -7.79253,0 -14.8501,3.1876 -19.9575,8.34064 -5.10736,5.15304 -8.26728,12.2743 -8.26728,20.1457 0,7.87281 3.1613,14.9996 8.26728,20.154 5.10736,5.15719 12.1649,8.34617 19.9575,8.34617 7.79668,0 14.8556,-3.18899 19.9644,-8.34479z"/>
    <path id="_88782848" class="fil6" style="mask:url(#id0)" d="M120.26 118.935c2.00696,-25.2102 27.0829,-34.3051 43.36,-19.1713 7.46173,6.93438 -6.01118,33.3376 -16.493,43.706 -6.00842,5.93921 -17.556,-1.84778 -23.1534,-9.90468 -4.08312,-5.87831 -3.153,-11.2985 -3.71356,-14.63z"/>
   </g>
   <path id="path4267" class="fil7" style="mask:url(#id2)" d="M19.2128 181.534c-3.89765,36.3605 68.6573,53.266 44.1974,13.4535 -5.6001,-9.1102 -27.3057,-5.60702 -27.4676,-21.1464l-1.08929 -103.419c7.08664,-15.9325 25.9714,-25.1894 46.1476,-24.5485l115.191 -0.614544c22.7838,-0.121802 26.6219,-11.4964 27.1368,-12.5815 -9.67769,0 -116.822,-0.0346027 -167.872,0.0941194 -8.24237,0.0166093 -36.2387,5.93921 -36.2387,33.6837 -2.55506,39.0014 -0.424921,75.7121 -0.00553643,115.079z" inkscape:connector-curvature="0" sodipodi:nodetypes="ccsczzcszzc"/>
  </g>
 </g>
</svg>
