<?xml version="1.0" encoding="UTF-8" standalone="no"?>
<!-- Creator: CorelDRAW -->

<svg
   xmlns:dc="http://purl.org/dc/elements/1.1/"
   xmlns:cc="http://creativecommons.org/ns#"
   xmlns:rdf="http://www.w3.org/1999/02/22-rdf-syntax-ns#"
   xmlns:svg="http://www.w3.org/2000/svg"
   xmlns="http://www.w3.org/2000/svg"
   xmlns:xlink="http://www.w3.org/1999/xlink"
   xmlns:sodipodi="http://sodipodi.sourceforge.net/DTD/sodipodi-0.dtd"
   xmlns:inkscape="http://www.inkscape.org/namespaces/inkscape"
   xml:space="preserve"
   width="256"
   height="256"
   style="fill-rule:evenodd"
   viewBox="0 0 256 256"
   id="svg2"
   version="1.1"
   inkscape:version="0.48.3.1 r9886"
   sodipodi:docname="drive-removable-media.svg"><metadata
   id="metadata56"><rdf:RDF><cc:Work
       rdf:about=""><dc:format>image/svg+xml</dc:format><dc:type
         rdf:resource="http://purl.org/dc/dcmitype/StillImage" /></cc:Work></rdf:RDF></metadata><sodipodi:namedview
   pagecolor="#ffffff"
   bordercolor="#666666"
   borderopacity="1"
   objecttolerance="10"
   gridtolerance="10"
   guidetolerance="10"
   inkscape:pageopacity="0"
   inkscape:pageshadow="2"
   inkscape:window-width="640"
   inkscape:window-height="480"
   id="namedview54"
   showgrid="false"
   inkscape:zoom="0.78666667"
   inkscape:cx="150"
   inkscape:cy="150"
   inkscape:window-x="0"
   inkscape:window-y="16"
   inkscape:window-maximized="0"
   inkscape:current-layer="svg2" />
 <defs
   id="defs4">
  <style
   type="text/css"
   id="style6">
   
    .fil5 {fill:white}
    .fil0 {fill:url(#id2)}
    .fil2 {fill:url(#id3)}
    .fil6 {fill:url(#id4)}
    .fil4 {fill:url(#id5)}
    .fil1 {fill:url(#id6);fill-rule:nonzero}
    .fil3 {fill:url(#id7);fill-rule:nonzero}
   
  </style>
    <mask
   id="id0">
  <linearGradient
   id="id1"
   gradientUnits="userSpaceOnUse"
   x1="96.116699"
   y1="28.4877"
   x2="314.59"
   y2="244.672">
   <stop
   offset="0"
   style="stop-opacity:1; stop-color:white"
   id="stop10" />
   <stop
   offset="1"
   style="stop-opacity:0; stop-color:white"
   id="stop12" />
  </linearGradient>
     <rect
   style="fill:url(#id1)"
   x="75.813202"
   y="47.946899"
   width="259.07999"
   height="177.26601"
   id="rect14" />
    </mask>
  <linearGradient
   id="id2"
   gradientUnits="userSpaceOnUse"
   x1="19.488199"
   y1="184.931"
   x2="110.023"
   y2="259.293">
   <stop
   offset="0"
   style="stop-color:#94C9E2"
   id="stop17" />
   <stop
   offset="0.490196"
   style="stop-color:#58A6D8"
   id="stop19" />
   <stop
   offset="0.819608"
   style="stop-color:#50719E"
   id="stop21" />
   <stop
   offset="1"
   style="stop-color:#386EAB"
   id="stop23" />
  </linearGradient>
  <linearGradient
   id="id3"
   gradientUnits="userSpaceOnUse"
   xlink:href="#id2"
   x1="87.4161"
   y1="62.837101"
   x2="266.10999"
   y2="201.79601">
  </linearGradient>
  <linearGradient
   id="id4"
   gradientUnits="userSpaceOnUse"
   xlink:href="#id2"
   x1="201.70799"
   y1="93.773399"
   x2="219.791"
   y2="107.836">
  </linearGradient>
  <linearGradient
   id="id5"
   gradientUnits="userSpaceOnUse"
   x1="148.552"
   y1="80.369598"
   x2="262.15399"
   y2="192.78999">
   <stop
   offset="0"
   style="stop-color:#E7EEFA"
   id="stop28" />
   <stop
   offset="1"
   style="stop-color:#7DA2E3"
   id="stop30" />
  </linearGradient>
  <linearGradient
   id="id6"
   gradientUnits="userSpaceOnUse"
   x1="115.999"
   y1="254.326"
   x2="13.4342"
   y2="189.95799">
   <stop
   offset="0"
   style="stop-color:#82C7E6"
   id="stop33" />
   <stop
   offset="0.741176"
   style="stop-color:#6690C2"
   id="stop35" />
   <stop
   offset="1"
   style="stop-color:#3C599B"
   id="stop37" />
  </linearGradient>
  <linearGradient
   id="id7"
   gradientUnits="userSpaceOnUse"
   xlink:href="#id6"
   x1="273.70999"
   y1="191.377"
   x2="78.085899"
   y2="75.040802">
  </linearGradient>
 <linearGradient
   inkscape:collect="always"
   xlink:href="#id2"
   id="linearGradient3033"
   gradientUnits="userSpaceOnUse"
   x1="19.488199"
   y1="184.931"
   x2="110.023"
   y2="259.293" /><linearGradient
   inkscape:collect="always"
   xlink:href="#id6"
   id="linearGradient3035"
   gradientUnits="userSpaceOnUse"
   x1="115.999"
   y1="254.326"
   x2="13.4342"
   y2="189.95799" /></defs>
 <g
   id="Capa_x0020_1"
   transform="matrix(0.86605182,0,0,0.86605182,0.7144234,-6.3269872)">
  <metadata
   id="CorelCorpID_0Corel-Layer" />
  <g
   id="_141784320">
   <path
   id="_141275600"
   class="fil0"
   d="m 73.4339,228.111 10.3255,12.6701 c 1.18895,1.46854 0.99379,3.39383 -0.492743,4.61877 l -4.04298,3.28034 c -1.48653,1.20971 -3.40214,1.00625 -4.60078,-0.46368 l -10.3075,-12.6674 c -1.20833,-1.4893 -1.01455,-3.38276 0.474749,-4.61047 l 4.05267,-3.29141 c 1.47684,-1.19864 3.38968,-1.00348 4.59109,0.46368 z m -23.098,-28.3756 9.89914,12.1677 c 1.19864,1.47823 0.901055,4.30181 -0.567485,5.51152 l -3.54055,2.88171 c -1.47823,1.20694 -3.81184,0.51212 -5.01878,-0.98549 l -9.89914,-12.14 c -1.19033,-1.47823 -1.00625,-3.40214 0.471981,-4.62708 l 3.54055,-2.87479 c 1.4893,-1.20556 3.91564,-1.40072 5.11428,0.0664 z m 47.3282,-3.96824 -0.51212,0.40831 -64.8746,52.8217 24.3423,29.8926 c 0.696207,0.854 1.09621,0.77233 1.83118,0.18547 l 62.851,-51.1567 c 0.73219,-0.59516 1.4021,-1.38549 0.68513,-2.24918 l -24.322896,-29.9023 z m -24.7506,-30.4227 c -0.707279,-0.86368 -1.6111,-0.37094 -2.3433,0.24222 l -62.8593,51.14 c -0.734962,0.58548 -0.903823,0.97441 -0.196543,1.83118 l 23.9437,29.4082 64.8773,-52.8051 0.492743,-0.40831 -23.9146,-29.4082 z"
   inkscape:connector-curvature="0"
   style="fill:url(#linearGradient3033)" />
   <path
   id="_141429128"
   class="fil1"
   d="m 74.7751,227.021 10.3255,12.6701 0.0069,0.007 c 0.891366,1.10313 1.26092,2.4042 1.12666,3.67066 l -0.0014,0 c -0.132874,1.25677 -0.764028,2.45402 -1.86855,3.36477 l -0.0069,0.007 -4.04437,3.28034 c -1.10867,0.90244 -2.40558,1.27892 -3.66235,1.15296 -1.26784,-0.1301 -2.46787,-0.76126 -3.36892,-1.86855 l -10.3061,-12.666 c -0.905207,-1.11559 -1.28307,-2.40835 -1.15435,-3.67066 0.13149,-1.25539 0.762644,-2.44987 1.8727,-3.36477 l 0.0069,-0.007 4.05129,-3.29141 c 1.10867,-0.8969 2.40143,-1.272 3.65958,-1.14604 l 0.0069,0 c 1.25677,0.12734 2.45402,0.75711 3.35646,1.86163 z M 82.414,241.8642 72.0941,229.201 c -0.296199,-0.36125 -0.662988,-0.56749 -1.02839,-0.60347 -0.366789,-0.0346 -0.769564,0.0927 -1.13358,0.39032 l -4.05267,3.29003 c -0.372325,0.31004 -0.581326,0.67821 -0.620081,1.04362 -0.03599,0.36263 0.0955,0.76541 0.397239,1.13774 l 10.3061,12.6674 c 0.296199,0.36402 0.662988,0.57302 1.02562,0.60901 0.368173,0.036 0.773717,-0.0941 1.14604,-0.39586 l 4.04298,-3.28034 0.0014,0.001 c 0.370941,-0.30866 0.578557,-0.68237 0.617312,-1.05054 l 0,-0.007 c 0.03876,-0.36817 -0.08858,-0.77371 -0.383398,-1.13912 l 0.0014,0 z m -30.7369,-43.2188 9.89776,12.1663 c 0.899671,1.10729 1.24708,2.6561 1.09483,4.11911 -0.1481,1.46162 -0.806935,2.9094 -1.90592,3.81599 l -0.0069,0.007 -3.54055,2.8831 -0.01384,0.007 -0.0097,0.008 0.0028,0.003 c -1.18341,0.95365 -2.65887,1.16542 -4.05544,0.84985 -1.26508,-0.2879 -2.49001,-1.03255 -3.32878,-2.05125 l -0.01661,-0.0194 -0.02768,-0.0346 -9.89776,-12.14 -0.0069,-0.007 c -0.889982,-1.1059 -1.26646,-2.40558 -1.13635,-3.67204 l 0.0014,0 c 0.130106,-1.26231 0.751571,-2.46095 1.84917,-3.3703 l 0.01384,-0.007 3.54193,-2.87618 0,-0.007 c 1.07822,-0.87199 2.52185,-1.36473 3.89488,-1.34812 1.38272,0.018 2.72254,0.5398 3.64989,1.67339 z m 7.21674,14.3463 -9.89914,-12.1677 c -0.220073,-0.2699 -0.597935,-0.39447 -1.00902,-0.40001 -0.581326,-0.007 -1.20279,0.21039 -1.67477,0.5924 l -0.0028,-0.004 -3.52671,2.86234 0.0028,0.003 c -0.373709,0.31004 -0.584094,0.68236 -0.620081,1.04777 l 0,0.007 c -0.03737,0.37371 0.09135,0.78202 0.393087,1.15573 l -0.0014,0 9.86454,12.0985 0.01661,0.0194 0.02768,0.0346 c 0.361252,0.44291 0.889982,0.76956 1.43255,0.89275 0.426305,0.0955 0.84569,0.0581 1.1322,-0.17302 l 0.0069,0 0.0014,-0.001 -0.0014,-0.003 3.54193,-2.8831 c 0.361252,-0.30312 0.58963,-0.87614 0.653299,-1.49345 0.06367,-0.61731 -0.04152,-1.22355 -0.337722,-1.58757 z m 38.5156,-14.7989 -62.7015,51.0515 22.9817,28.222 62.523,-50.8881 0.17024,-0.14256 -22.973395,-28.2427 z m -66.4732,51.893 -1.09068,-1.33843 0.01246,-0.01 -23.6849,-29.0898 0.00138,-0.001 c -0.694823,-0.84292 -0.935657,-1.57788 -0.808319,-2.37651 l 0,-0.0138 c 0.134259,-0.79587 0.574405,-1.3329 1.27061,-1.88377 l 0.00138,0.001 62.8233,-51.1137 -0.0014,-0.001 c 0.539802,-0.45122 1.18203,-0.86922 1.91422,-1.03393 1.02147,-0.22977 2.0291,-0.0152 2.87895,1.02839 l 23.6641,29.1009 0.0055,-0.004 1.08099,1.32736 24.314599,29.8898 0.003,-0.003 c 0.85538,1.03393 0.87337,2.06371 0.44845,3.02566 l 0.003,0.001 c -0.30036,0.6796 -0.83739,1.22632 -1.37996,1.66785 l -62.852402,51.1553 -0.01384,0.007 c -0.69067,0.55226 -1.29414,0.86507 -2.08862,0.82631 -0.813856,-0.0387 -1.47408,-0.42907 -2.15783,-1.26784 l -24.3437,-29.894 z m 26.6579,27.7099 0.0069,0 0.06367,0 m 14.1857,-111.021 -0.168861,0.13841 -0.02076,0.0138 -62.5354001,50.8743 22.5817001,27.7348 62.6946,-51.0293 -22.5513,-27.732 z m -63.0738005,51.0487 -0.00138,0 c -0.011073,0.0678 -0.00969,0.0526 0.00138,0 z"
   inkscape:connector-curvature="0"
   style="fill:url(#linearGradient3035);fill-rule:nonzero" />
   <path
   id="_141788608"
   class="fil2"
   d="M 244.854,38.063 C 235.0116,25.97 217.3988,24.179 205.3156,34.00064 l -137.366,111.789 c -6.2271,5.06584 2.83465,13.83 12.666,25.923 l 37.1246,45.6175 c 9.8424,12.093 16.0889,23.1243 21.2862,18.9138 l 138.891,-113.024 c 12.0722,-9.83271 13.8854,-27.4649 4.07066,-39.5398 l -37.1342,-45.6175 z"
   inkscape:connector-curvature="0"
   style="fill:url(#id3)" />
   <path
   id="_141827920"
   class="fil3"
   d="m 243.515,39.1523 c -4.61739,-5.67208 -11.0576,-8.93027 -17.7567,-9.61817 -6.70601,-0.689286 -13.6805,1.19587 -19.3526,5.80772 l -137.366,111.788 c -3.36062,2.735 -0.04983,7.72748 5.40218,14.4266 0.94673,1.16542 2.15783,2.61043 3.40906,4.10803 1.26923,1.5156 2.58828,3.09348 4.10665,4.95926 l 37.1232,45.6175 c 2.0817,2.55783 3.96824,5.01878 5.71914,7.30394 1.47684,1.92945 2.8651,3.74125 4.11911,5.28868 3.96132,4.88729 6.93854,7.75378 9.01747,6.06932 l 138.893,-113.022 c 5.66377,-4.61323 8.92335,-11.0604 9.61402,-17.7636 0.6879,-6.70601 -1.18895,-13.6791 -5.79388,-19.3457 l -37.1342,-45.6188 z M 226.1112,26.096 c 7.58076,0.777869 14.8639,4.46237 20.0848,10.8777 l 37.1342,45.6175 c 5.20702,6.40565 7.33024,14.2909 6.55099,21.8772 -0.78064,7.58492 -4.4679,14.8764 -10.8722,20.0931 l -138.893,113.024 c -4.34333,3.5184 -8.60223,-0.0609 -13.8785,-6.57175 -1.34259,-1.65816 -2.72116,-3.45612 -4.18693,-5.36896 -1.75782,-2.29624 -3.65266,-4.76687 -5.65132,-7.22505 l -37.1232,-45.6175 c -1.26784,-1.55712 -2.70593,-3.27619 -4.07897,-4.91635 -1.14189,-1.36612 -2.23949,-2.67687 -3.43674,-4.14956 -6.74199,-8.28389 -10.6244,-14.6286 -4.90113,-19.2876 l 137.367,-111.788 c 6.41119,-5.21394 14.2992,-7.34408 21.8841,-6.56483 z"
   inkscape:connector-curvature="0"
   style="fill:url(#id7);fill-rule:nonzero" />
   <path
   id="path4267"
   class="fil4"
   style="fill:url(#id5)"
   d="m 85.5338,168.496 38.9364,49.1829 c 6.37936,8.04721 16.41,9.03408 23.0897,3.63052 l 106.77,-86.3185 c 18.5055,-53.648 -68.076,-74.3488 -74.5799,-74.7156 -18.0322,14.5802 -83.7801,68.4234 -96.7201,78.8845 -12.9456,10.468 -4.28935,20.9208 2.46095,29.2711 l 0.04291,0.0651 z"
   inkscape:connector-curvature="0"
   sodipodi:nodetypes="ccsczzcszzc"
   mask="url(#id0)" />
   <g
   id="g48">
    <path
   id="_53507008"
   class="fil5"
   d="m 224.267,89.3691 c 7.02712,8.65483 7.07418,19.5215 0.20623,25.1147 -3.61529,2.93708 -6.82504,3.47826 -10.9137,2.12045 l 2.47479,3.04919 -7.5946,6.18835 -31.7501,-39.054 7.59322,-6.16344 11.5532,14.1747 c -0.52181,-4.33088 0.32388,-7.84513 3.88381,-10.7448 3.51425,-2.85265 8.57871,-4.08035 12.8279,-2.85265 4.1634,1.19725 8.54964,4.28382 11.7192,8.16762 z"
   inkscape:connector-curvature="0"
   style="fill:#ffffff" />
    <path
   id="_141442968"
   class="fil6"
   d="m 217.158,95.1422 c -4.33088,-5.30667 -9.91991,-6.2271 -13.6003,-3.24297 -3.71772,3.02151 -3.3094,8.35448 0.93843,13.5601 4.45406,5.47553 9.72475,7.23335 13.4978,4.1634 3.66235,-2.98275 3.41183,-9.27491 -0.83601,-14.4805 z"
   inkscape:connector-curvature="0"
   style="fill:url(#id4)" />
    <path
   id="_146874312"
   class="fil5"
   d="m 196.347,121.345 c 2.31285,2.82358 2.96338,6.55237 2.2298,9.98219 -0.73358,3.42013 -3.06718,6.72954 -7.07141,9.95451 -8.6922,7.10048 -15.6833,7.18352 -20.9886,1.1059 l 7.08248,-5.78281 c 1.57235,1.28307 2.71285,1.86024 3.989,1.81595 1.46716,-0.16886 3.46442,-1.14327 5.38972,-2.69901 3.46719,-2.81666 4.0236,-5.42709 2.61043,-7.18214 -0.97303,-1.16127 -1.34812,-1.31213 -3.69834,-0.36264 l -11.5725,4.35717 c -3.51148,1.35919 -4.82362,1.39657 -6.64649,1.19172 -1.91284,-0.28789 -3.68173,-1.41317 -5.25131,-3.3094 -4.76549,-5.90184 -3.42982,-13.1906 3.84921,-19.1201 7.69564,-6.29216 15.4176,-6.61742 20.5042,-0.6879 l -7.60152,6.18004 c -2.15783,-2.54399 -4.40839,-2.30454 -7.95724,0.57025 -2.6132,2.12599 -3.80215,4.65476 -2.4997,6.25479 0.94811,1.16127 1.59588,1.02147 4.16201,-0.0194 l 12.1414,-4.81531 c 4.65476,-1.94329 8.30742,-1.14466 11.3289,2.56614 z"
   inkscape:connector-curvature="0"
   style="fill:#ffffff" />
    <path
   id="_141875696"
   class="fil5"
   d="m 148.424,126.65 23.5243,28.8891 -7.11017,5.77173 -2.88171,-3.54885 c 0.46644,4.91635 -1.04085,8.43061 -4.92743,11.5795 -6.07762,4.98141 -12.2881,4.53572 -17.437,-1.79242 l -16.4972,-20.2633 7.08387,-5.79941 15.2529,18.7644 c 2.82358,3.4575 6.01257,3.54193 9.20017,0.94119 3.62498,-2.93846 4.32119,-7.12124 1.55159,-10.5234 l -14.8515,-18.2453 7.09217,-5.77312 z"
   inkscape:connector-curvature="0"
   style="fill:#ffffff" />
   </g>
  </g>
 </g>
</svg>