<?xml version="1.0" encoding="UTF-8" standalone="no"?>
<!-- Creator: CorelDRAW -->

<svg
   xmlns:dc="http://purl.org/dc/elements/1.1/"
   xmlns:cc="http://creativecommons.org/ns#"
   xmlns:rdf="http://www.w3.org/1999/02/22-rdf-syntax-ns#"
   xmlns:svg="http://www.w3.org/2000/svg"
   xmlns="http://www.w3.org/2000/svg"
   xmlns:xlink="http://www.w3.org/1999/xlink"
   xmlns:sodipodi="http://sodipodi.sourceforge.net/DTD/sodipodi-0.dtd"
   xmlns:inkscape="http://www.inkscape.org/namespaces/inkscape"
   xml:space="preserve"
   width="256"
   height="256"
   style="fill-rule:evenodd"
   viewBox="0 0 256 256"
   id="svg2"
   version="1.1"
   inkscape:version="0.48.3.1 r9886"
   sodipodi:docname="drive-harddisk.svg"><metadata
   id="metadata63"><rdf:RDF><cc:Work
       rdf:about=""><dc:format>image/svg+xml</dc:format><dc:type
         rdf:resource="http://purl.org/dc/dcmitype/StillImage" /></cc:Work></rdf:RDF></metadata><sodipodi:namedview
   pagecolor="#ffffff"
   bordercolor="#666666"
   borderopacity="1"
   objecttolerance="10"
   gridtolerance="10"
   guidetolerance="10"
   inkscape:pageopacity="0"
   inkscape:pageshadow="2"
   inkscape:window-width="640"
   inkscape:window-height="480"
   id="namedview61"
   showgrid="false"
   inkscape:zoom="0.78666667"
   inkscape:cx="150"
   inkscape:cy="150"
   inkscape:window-x="0"
   inkscape:window-y="16"
   inkscape:window-maximized="0"
   inkscape:current-layer="svg2" />
 <defs
   id="defs4">
  <style
   type="text/css"
   id="style6">
   
    .fil3 {fill:white}
    .fil0 {fill:url(#id4)}
    .fil2 {fill:url(#id5)}
    .fil4 {fill:url(#id6)}
    .fil5 {fill:url(#id7)}
    .fil1 {fill:url(#id8);fill-rule:nonzero}
   
  </style>
    <mask
   id="id0">
  <linearGradient
   id="id1"
   gradientUnits="userSpaceOnUse"
   x1="131.011"
   y1="94.517998"
   x2="252.17101"
   y2="154.082">
   <stop
   offset="0"
   style="stop-opacity:1; stop-color:white"
   id="stop10" />
   <stop
   offset="0.439216"
   style="stop-opacity:0.501961; stop-color:white"
   id="stop12" />
   <stop
   offset="1"
   style="stop-opacity:0; stop-color:white"
   id="stop14" />
  </linearGradient>
     <rect
   style="fill:url(#id1)"
   x="79.712196"
   y="15.0508"
   width="223.758"
   height="218.498"
   id="rect16" />
    </mask>
    <mask
   id="id2">
  <linearGradient
   id="id3"
   gradientUnits="userSpaceOnUse"
   x1="98.003197"
   y1="122.477"
   x2="152.44299"
   y2="250.759">
   <stop
   offset="0"
   style="stop-opacity:1; stop-color:white"
   id="stop20" />
   <stop
   offset="0.439216"
   style="stop-opacity:0.501961; stop-color:white"
   id="stop22" />
   <stop
   offset="1"
   style="stop-opacity:0; stop-color:white"
   id="stop24" />
  </linearGradient>
     <rect
   style="fill:url(#id3)"
   x="11.9545"
   y="68.166"
   width="226.537"
   height="236.90401"
   id="rect26" />
    </mask>
  <linearGradient
   id="id4"
   gradientUnits="userSpaceOnUse"
   x1="34.536301"
   y1="62.017799"
   x2="263.04599"
   y2="250.931">
   <stop
   offset="0"
   style="stop-color:#94C9E2"
   id="stop29" />
   <stop
   offset="0.490196"
   style="stop-color:#58A6D8"
   id="stop31" />
   <stop
   offset="0.819608"
   style="stop-color:#50719E"
   id="stop33" />
   <stop
   offset="1"
   style="stop-color:#386EAB"
   id="stop35" />
  </linearGradient>
  <linearGradient
   id="id5"
   gradientUnits="userSpaceOnUse"
   xlink:href="#id4"
   x1="138.53101"
   y1="140.02499"
   x2="160.429"
   y2="158.104">
  </linearGradient>
  <linearGradient
   id="id6"
   gradientUnits="userSpaceOnUse"
   x1="118.179"
   y1="75.8741"
   x2="265.00299"
   y2="172.726">
   <stop
   offset="0"
   style="stop-color:#B3D5E1"
   id="stop39" />
   <stop
   offset="1"
   style="stop-color:white"
   id="stop41" />
  </linearGradient>
  <linearGradient
   id="id7"
   gradientUnits="userSpaceOnUse"
   xlink:href="#id6"
   x1="80.830597"
   y1="110.421"
   x2="169.616"
   y2="262.815">
  </linearGradient>
  <linearGradient
   id="id8"
   gradientUnits="userSpaceOnUse"
   x1="274.13199"
   y1="234.14799"
   x2="23.438499"
   y2="75.857498">
   <stop
   offset="0"
   style="stop-color:#82C7E6"
   id="stop45" />
   <stop
   offset="0.741176"
   style="stop-color:#6690C2"
   id="stop47" />
   <stop
   offset="1"
   style="stop-color:#3C599B"
   id="stop49" />
  </linearGradient>
 <linearGradient
   inkscape:collect="always"
   xlink:href="#id4"
   id="linearGradient3040"
   gradientUnits="userSpaceOnUse"
   x1="34.536301"
   y1="62.017799"
   x2="263.04599"
   y2="250.931" /><linearGradient
   inkscape:collect="always"
   xlink:href="#id6"
   id="linearGradient3042"
   gradientUnits="userSpaceOnUse"
   x1="118.179"
   y1="75.8741"
   x2="265.00299"
   y2="172.726" /></defs>
 <g
   id="Capa_x0020_1"
   transform="matrix(0.86228663,0,0,0.86228663,0.78645557,-3.1016122)">
  <metadata
   id="CorelCorpID_0Corel-Layer" />
  <g
   id="_53507008">
   <path
   id="_141429128"
   class="fil0"
   d="m 143.197,78.2935 c 39.5578,-3.03535 73.8339,26.341 77.726,65.7978 l 0,1.42286 c 3.04642,40.1571 -27.0676,75.3689 -67.2372,78.4153 -40.1682,3.05196 -74.663,-27.051 -77.7094,-67.2206 -3.07964,-40.1738 27.051,-75.3689 67.2206,-78.4153 z m 9.10605,-66.5313 c -4.7378,-0.117649 -9.91852,0.330802 -14.6965,0.694823 -78.2021,5.94198 -136.232,73.7675 -130.267,151.946997 5.96412,78.2035 73.7564,136.898 151.942,130.956 78.18,-5.96412 136.92,-74.4775 130.956,-152.659 l 0,-2.80005 C 283.16337,67.870573 223.17475,13.419973 152.30255,11.761973 z"
   inkscape:connector-curvature="0"
   style="fill:url(#linearGradient3040)" />
   <path
   id="_53608264"
   class="fil1"
   d="m 143.107,77.0893 c 20.0571,-1.53774 38.78,5.11982 53.0017,17.1602 14.2882,12.0943 24.0309,29.6227 26.0129,49.7241 l 0.01,0.0983 0,0.0194 0,1.40349 c 1.52667,20.381 -5.34958,39.5066 -17.7041,53.9263 -12.3712,14.439 -30.2331,24.1624 -50.6487,25.7112 l -0.0111,10e-4 -0.001,0 c -20.4128,1.54882 -39.3862,-5.32743 -53.6439,-17.6958 -14.256298,-12.3642 -23.798398,-30.2192 -25.348598,-50.6279 l 0.0014,0 -0.0028,-0.006 -0.0042,-0.0609 0,-0.004 c -1.54605,-20.3935 5.32605,-39.5232 17.6834,-53.9442 C 104.8101,88.374134 122.6513,78.659034 143.042,77.095034 l 0,0 0.0595,-0.0055 0.006,0 z m 51.4445,19.001 C 180.799,84.4486 162.6907,78.0097 143.291,79.4976 l 0,0 -0.0609,0.0042 -0.004,0 c -19.7263,1.51283 -36.9875,10.9095 -48.942103,24.86 -11.9545,13.9518 -18.6038,32.4601 -17.109,52.1934 l 0,0 0.0055,0.0595 -0.0028,0 0.0028,0.0152 c 1.50176,19.7512 10.7296,37.0263 24.518093,48.9864 13.7885,11.9587 32.1404,18.6066 51.8875,17.1104 l 0,0.003 0.0125,-0.001 0,-0.003 c 19.7498,-1.49761 37.0291,-10.9054 48.9961,-24.871 11.967,-13.9684 18.6218,-32.5016 17.1242,-52.2487 l -0.004,-0.09 0,-0.001 0,-1.39795 c -1.93914,-19.4135 -11.3594,-36.3412 -25.1631,-48.025803 z m -42.2776,-83.124 c -4.21738,-0.103808 -8.87767,0.25606 -13.2681,0.593783 l -1.30937,0.10104 -0.0457,0.0028 c -38.749496,2.95646 -72.499596,21.2378 -95.824596,48.4618 -23.3264,27.2254 -36.2303996,63.400497 -33.2863996,102.142997 l 0.00415,0.0457 c 2.9592206,38.8063 21.2737006,72.7695 48.5476006,96.2758 27.2213,23.462 63.374205,36.51 102.100005,33.566 l 0.003,0 c 38.755,-2.95646 72.6948,-21.4177 96.2039,-48.8286 23.5105,-27.4109 36.5917,-63.7756 33.6352,-102.535 l -0.004,-0.09 0,-0.001 0,-2.77514 c -3.50872,-35.4941 -19.9796,-66.678002 -44.2915,-89.263902 -24.5735,-22.8281 -57.1568,-36.8699 -92.4585,-37.6962 l -0.006,0 z m -13.448,-1.81318 c 4.41669,-0.340491 9.10743,-0.703127 13.5047,-0.593783 35.9162,0.840154 69.0601,15.1214 94.0502,38.3384 24.7465,22.9887 41.5066,54.742903 45.0555,90.886103 l 0.01,0.0983 0,0.0194 0,2.78067 c 2.98691,39.3931 -10.3171,76.3502 -34.2152,104.214 -23.9146,27.8815 -58.4371,46.6611 -97.8579,49.6687 l -0.006,0 c -39.3848,2.99106 -76.159198,-10.2825 -103.853998,-34.1515 -27.7403,-23.9091 -46.3675997,-58.4509 -49.3780997,-97.9188 l -0.00277,-0.0457 C 3.1386541,125.04748 16.264184,88.253681 39.993284,60.557881 c 23.7305,-27.696 58.062,-46.2929 97.477196,-49.3006 l 0.0457,-0.0042 1.30937,-0.09966 z m 20.5457,285.411 -0.004,0 m -0.1744,-2.40835 0.001,0"
   inkscape:connector-curvature="0"
   style="fill:url(#id8);fill-rule:nonzero" />
   <path
   id="_140999768"
   class="fil2"
   d="m 162.955,148.022 c 0.53288,7.43266 -5.01739,13.9131 -12.4279,14.4722 -7.44789,0.58271 -13.9117,-4.97864 -14.4667,-12.4224 -0.58825,-7.40913 4.98002,-13.8951 12.4113,-14.4722 7.30948,-0.54257 13.7331,4.84576 14.4446,12.1372 l 0.0388,0.28513 z"
   inkscape:connector-curvature="0"
   style="fill:url(#id5)" />
   <polygon
   id="_141519832"
   class="fil3"
   points="205.883,203.936 257.947,238.134 222.296,267.509 190.679,217.045 "
   style="fill:#ffffff" />
   <polygon
   id="_145563632"
   class="fil3"
   points="107.425,85.2902 75.7689,37.3626 42.5807,66.2241 91.1726,98.3451 "
   style="fill:#ffffff" />
   <path
   id="_141074280"
   class="fil4"
   style="fill:url(#linearGradient3042)"
   d="m 81.0963,35 c 86.7947,-54.1394 207.187,17.5574 200.997,115.691 -79.088,75.4325 -45.1192,10.7282 -55.0529,-23.0011 -7.45619,-25.307 -42.8658,-75.463 -116.053,-48.4521 L 81.0962,35.0003 z"
   mask="url(#id0)"
   inkscape:connector-curvature="0" />
   <path
   id="_142168048"
   class="fil5"
   style="fill:url(#id7)"
   d="m 40.863,69.5501 c -74.4623,105.915 15.8162,236.784 106.571,212.459 79.7122,-74.7751 10.8653,-43.324 -22.5776,-55.3588 C 97.905,216.95324 42.5421,172.5344 85.5989,101.4093 L 40.8631,69.5499 z"
   mask="url(#id2)"
   inkscape:connector-curvature="0" />
  </g>
 </g>
</svg>