<?xml version="1.0" encoding="UTF-8" standalone="no"?>
<!-- Created with Inkscape (http://www.inkscape.org/) -->

<svg
   xmlns:dc="http://purl.org/dc/elements/1.1/"
   xmlns:cc="http://creativecommons.org/ns#"
   xmlns:rdf="http://www.w3.org/1999/02/22-rdf-syntax-ns#"
   xmlns:svg="http://www.w3.org/2000/svg"
   xmlns="http://www.w3.org/2000/svg"
   xmlns:xlink="http://www.w3.org/1999/xlink"
   xmlns:sodipodi="http://sodipodi.sourceforge.net/DTD/sodipodi-0.dtd"
   xmlns:inkscape="http://www.inkscape.org/namespaces/inkscape"
   width="256"
   height="256"
   id="svg2"
   version="1.1"
   inkscape:version="0.48.3.1 r9886"
   sodipodi:docname="drive-harddisk-system.svg">
  <defs
     id="defs4">
    <linearGradient
       inkscape:collect="always"
       xlink:href="#id9"
       id="linearGradient3764"
       x1="12.86098"
       y1="924.59735"
       x2="245.39223"
       y2="924.59735"
       gradientUnits="userSpaceOnUse"
       gradientTransform="translate(0,-796.3622)" />
    <linearGradient
       id="id9"
       gradientUnits="userSpaceOnUse"
       x1="77.762001"
       y1="75.677498"
       x2="229.189"
       y2="264.96301">
      <stop
         offset="0"
         style="stop-color:#58A6D8"
         id="stop3151" />
      <stop
         id="stop4258"
         style="stop-color:#548bbb;stop-opacity:1;"
         offset="0.470588" />
      <stop
         offset="0.941176"
         style="stop-color:#50719E"
         id="stop3153" />
      <stop
         offset="1"
         style="stop-color:#386EAB"
         id="stop3155" />
    </linearGradient>
  </defs>
  <sodipodi:namedview
     id="base"
     pagecolor="#ffffff"
     bordercolor="#666666"
     borderopacity="1.0"
     inkscape:pageopacity="0.0"
     inkscape:pageshadow="2"
     inkscape:zoom="1.2484714"
     inkscape:cx="-169.63824"
     inkscape:cy="114.15496"
     inkscape:document-units="px"
     inkscape:current-layer="layer1"
     showgrid="false"
     showguides="true"
     inkscape:guide-bbox="true"
     inkscape:window-width="1920"
     inkscape:window-height="1050"
     inkscape:window-x="-4"
     inkscape:window-y="-4"
     inkscape:window-maximized="1" />
  <metadata
     id="metadata7">
    <rdf:RDF>
      <cc:Work
         rdf:about="">
        <dc:format>image/svg+xml</dc:format>
        <dc:type
           rdf:resource="http://purl.org/dc/dcmitype/StillImage" />
        <dc:title />
      </cc:Work>
    </rdf:RDF>
  </metadata>
  <g
     inkscape:label="Layer 1"
     inkscape:groupmode="layer"
     id="layer1"
     transform="translate(0,-796.3622)">
    <g
       id="g3923">
      <path
         id="rect2986"
         transform="translate(0,796.3622)"
         d="M 46.15625 5.34375 C 27.72463 5.34375 12.875 20.19338 12.875 38.625 L 12.875 217.875 C 12.875 236.3066 27.72463 251.15625 46.15625 251.15625 L 212.125 251.15625 C 230.55662 251.15625 245.40625 236.3066 245.40625 217.875 L 245.40625 38.625 C 245.40625 20.19338 230.55662 5.34375 212.125 5.34375 L 46.15625 5.34375 z M 129 22.28125 C 129.90951 22.25765 130.80983 22.26045 131.6875 22.28125 C 184.34781 23.52915 228.90017 63.95257 234.15625 117.46875 L 234.15625 119.5625 C 238.58259 177.65062 194.96312 228.54245 136.875 232.96875 C 114.0779 234.70588 92.450915 229.03348 74.34375 218 L 96.90625 191.125 L 76.90625 178.3125 C 76.90625 178.3125 64.211741 191.86896 54.8125 202.65625 C 37.463933 185.3944 26.008095 162.04025 24 135.6875 C 19.57366 77.59937 62.66187 27.2076 120.75 22.78125 C 123.43091 22.57696 126.27148 22.35203 129 22.28125 z M 130.28125 71.53125 C 129.40839 71.511353 128.53786 71.539736 127.65625 71.5625 C 126.74621 71.586 125.85574 71.6175 124.9375 71.6875 C 95.09394 73.96159 72.69466 100.12519 74.96875 129.96875 C 77.24284 159.81231 102.87519 182.18035 132.71875 179.90625 C 162.56231 177.63215 184.93035 151.46856 182.65625 121.625 L 182.65625 120.59375 C 179.95306 93.070448 157.33986 72.148062 130.28125 71.53125 z M 129.84375 114.25 C 134.84549 114.36853 139.06327 118.19822 139.5625 123.28125 L 139.59375 123.5 C 140.01417 129.01728 135.89228 133.82958 130.375 134.25 C 124.85772 134.67042 120.04542 130.54853 119.625 125.03125 C 119.20458 119.51397 123.32647 114.70167 128.84375 114.28125 C 129.18327 114.25535 129.5103 114.242 129.84375 114.25 z "
         style="fill:url(#linearGradient3764);fill-opacity:1;stroke:none" />
    </g>
  </g>
</svg>
