<?xml version="1.0" encoding="UTF-8"?>
<!DOCTYPE svg PUBLIC "-//W3C//DTD SVG 1.1//EN" "http://www.w3.org/Graphics/SVG/1.1/DTD/svg11.dtd">
<!-- Creator: CorelDRAW -->
<svg xmlns="http://www.w3.org/2000/svg" xml:space="preserve" width="300px" height="300px" style="shape-rendering:geometricPrecision; text-rendering:geometricPrecision; image-rendering:optimizeQuality; fill-rule:evenodd; clip-rule:evenodd"
viewBox="0 0 300 300"
 xmlns:xlink="http://www.w3.org/1999/xlink">
 <defs>
  <style type="text/css">
   <![CDATA[
    .fil3 {fill:white}
    .fil0 {fill:url(#id4)}
    .fil2 {fill:url(#id5)}
    .fil4 {fill:url(#id6)}
    .fil5 {fill:url(#id7)}
    .fil1 {fill:url(#id8);fill-rule:nonzero}
   ]]>
  </style>
    <mask id="id0">
  <linearGradient id="id1" gradientUnits="userSpaceOnUse" x1="131.011" y1="94.518" x2="252.171" y2="154.082">
   <stop offset="0" style="stop-opacity:1; stop-color:white"/>
   <stop offset="0.439216" style="stop-opacity:0.501961; stop-color:white"/>
   <stop offset="1" style="stop-opacity:0; stop-color:white"/>
  </linearGradient>
     <rect style="fill:url(#id1)" x="79.7122" y="15.0508" width="223.758" height="218.498"/>
    </mask>
    <mask id="id2">
  <linearGradient id="id3" gradientUnits="userSpaceOnUse" x1="98.0032" y1="122.477" x2="152.443" y2="250.759">
   <stop offset="0" style="stop-opacity:1; stop-color:white"/>
   <stop offset="0.439216" style="stop-opacity:0.501961; stop-color:white"/>
   <stop offset="1" style="stop-opacity:0; stop-color:white"/>
  </linearGradient>
     <rect style="fill:url(#id3)" x="11.9545" y="68.166" width="226.537" height="236.904"/>
    </mask>
  <linearGradient id="id4" gradientUnits="userSpaceOnUse" x1="34.5363" y1="62.0178" x2="263.046" y2="250.931">
   <stop offset="0" style="stop-color:#94C9E2"/>
   <stop offset="0.490196" style="stop-color:#58A6D8"/>
   <stop offset="0.819608" style="stop-color:#50719E"/>
   <stop offset="1" style="stop-color:#386EAB"/>
  </linearGradient>
  <linearGradient id="id5" gradientUnits="userSpaceOnUse" xlink:href="#id4" x1="138.531" y1="140.025" x2="160.429" y2="158.104">
  </linearGradient>
  <linearGradient id="id6" gradientUnits="userSpaceOnUse" x1="118.179" y1="75.8741" x2="265.003" y2="172.726">
   <stop offset="0" style="stop-color:#B3D5E1"/>
   <stop offset="1" style="stop-color:white"/>
  </linearGradient>
  <linearGradient id="id7" gradientUnits="userSpaceOnUse" xlink:href="#id6" x1="80.8306" y1="110.421" x2="169.616" y2="262.815">
  </linearGradient>
  <linearGradient id="id8" gradientUnits="userSpaceOnUse" x1="274.132" y1="234.148" x2="23.4385" y2="75.8575">
   <stop offset="0" style="stop-color:#82C7E6"/>
   <stop offset="0.741176" style="stop-color:#6690C2"/>
   <stop offset="1" style="stop-color:#3C599B"/>
  </linearGradient>
 </defs>
 <g id="Capa_x0020_1">
  <metadata id="CorelCorpID_0Corel-Layer"/>
  <g id="_53507008">
   <path id="_141429128" class="fil0" d="M143.197 78.2935c39.5578,-3.03535 73.8339,26.341 77.726,65.7978l0 1.42286c3.04642,40.1571 -27.0676,75.3689 -67.2372,78.4153 -40.1682,3.05196 -74.663,-27.051 -77.7094,-67.2206 -3.07964,-40.1738 27.051,-75.3689 67.2206,-78.4153zm9.10605 -66.5313c-4.7378,-0.117649 -9.91852,0.330802 -14.6965,0.694823 -78.2021,5.94198 -136.232,73.7675 -130.267,151.947 5.96412,78.2035 73.7564,136.898 151.942,130.956 78.18,-5.96412 136.92,-74.4775 130.956,-152.659l0 -2.80005c-7.07418,-72.0304 -67.0628,-126.481 -137.935,-128.139z"/>
   <path id="_53608264" class="fil1" d="M143.107 77.0893c20.0571,-1.53774 38.78,5.11982 53.0017,17.1602 14.2882,12.0943 24.0309,29.6227 26.0129,49.7241l0.00968876 0.0982717 0 0.0193775 0 1.40349c1.52667,20.381 -5.34958,39.5066 -17.7041,53.9263 -12.3712,14.439 -30.2331,24.1624 -50.6487,25.7112l-0.0110729 0.00138411 -0.00138411 0c-20.4128,1.54882 -39.3862,-5.32743 -53.6439,-17.6958 -14.2563,-12.3642 -23.7984,-30.2192 -25.3486,-50.6279l0.00138411 0 -0.00276822 -0.00553643 -0.00415233 -0.0609008 0 -0.00415233c-1.54605,-20.3935 5.32605,-39.5232 17.6834,-53.9442 12.3587,-14.421 30.1999,-24.1361 50.5906,-25.7001l0 0 0.0595167 -0.00553643 0.00553643 0zm51.4445 19.001c-13.7525,-11.6417 -31.8608,-18.0806 -51.2605,-16.5927l0 0 -0.0609008 0.00415233 -0.00415233 0c-19.7263,1.51283 -36.9875,10.9095 -48.9421,24.86 -11.9545,13.9518 -18.6038,32.4601 -17.109,52.1934l0 0 0.00553643 0.0595167 -0.00276822 0 0.00276822 0.0152252c1.50176,19.7512 10.7296,37.0263 24.5181,48.9864 13.7885,11.9587 32.1404,18.6066 51.8875,17.1104l0 0.00276822 0.012457 -0.00138411 0 -0.00276822c19.7498,-1.49761 37.0291,-10.9054 48.9961,-24.871 11.967,-13.9684 18.6218,-32.5016 17.1242,-52.2487l-0.00415233 -0.0899671 0 -0.00138411 0 -1.39795c-1.93914,-19.4135 -11.3594,-36.3412 -25.1631,-48.0258zm-42.2776 -83.124c-4.21738,-0.103808 -8.87767,0.25606 -13.2681,0.593783l-1.30937 0.10104 -0.0456756 0.00276822c-38.7495,2.95646 -72.4996,21.2378 -95.8246,48.4618 -23.3264,27.2254 -36.2304,63.4005 -33.2864,102.143l0.00415233 0.0456756c2.95922,38.8063 21.2737,72.7695 48.5476,96.2758 27.2213,23.462 63.3742,36.51 102.1,33.566l0.00276822 0c38.755,-2.95646 72.6948,-21.4177 96.2039,-48.8286 23.5105,-27.4109 36.5917,-63.7756 33.6352,-102.535l-0.00415233 -0.0899671 0 -0.00138411 0 -2.77514c-3.50872,-35.4941 -19.9796,-66.678 -44.2915,-89.2639 -24.5735,-22.8281 -57.1568,-36.8699 -92.4585,-37.6962l-0.00553643 0zm-13.448 -1.81318c4.41669,-0.340491 9.10743,-0.703127 13.5047,-0.593783 35.9162,0.840154 69.0601,15.1214 94.0502,38.3384 24.7465,22.9887 41.5066,54.7429 45.0555,90.8861l0.00968876 0.0982717 0 0.0193775 0 2.78067c2.98691,39.3931 -10.3171,76.3502 -34.2152,104.214 -23.9146,27.8815 -58.4371,46.6611 -97.8579,49.6687l-0.00553643 0c-39.3848,2.99106 -76.1592,-10.2825 -103.854,-34.1515 -27.7403,-23.9091 -46.3676,-58.4509 -49.3781,-97.9188l-0.00276822 -0.0456756c-2.99383,-39.4014 10.1317,-76.1952 33.8608,-103.891 23.7305,-27.696 58.062,-46.2929 97.4772,-49.3006l0.0456756 -0.00415233 1.30937 -0.0996558zm20.5457 285.411l-0.00415233 0m-0.174398 -2.40835l0.00138411 0"/>
   <path id="_140999768" class="fil2" d="M162.955 148.022c0.532882,7.43266 -5.01739,13.9131 -12.4279,14.4722 -7.44789,0.58271 -13.9117,-4.97864 -14.4667,-12.4224 -0.588246,-7.40913 4.98002,-13.8951 12.4113,-14.4722 7.30948,-0.542571 13.7331,4.84576 14.4446,12.1372l0.038755 0.285126z"/>
   <polygon id="_141519832" class="fil3" points="257.947,238.134 222.296,267.509 190.679,217.045 205.883,203.936 "/>
   <polygon id="_145563632" class="fil3" points="75.7689,37.3626 42.5807,66.2241 91.1726,98.3451 107.425,85.2902 "/>
   <path id="_141074280" class="fil4" style="mask:url(#id0)" d="M81.0963 35c86.7947,-54.1394 207.187,17.5574 200.997,115.691 -79.088,75.4325 -45.1192,10.7282 -55.0529,-23.0011 -7.45619,-25.307 -42.8658,-75.463 -116.053,-48.4521l-29.8912 -44.2375z"/>
   <path id="_142168048" class="fil5" style="mask:url(#id2)" d="M40.863 69.5501c-74.4623,105.915 15.8162,236.784 106.571,212.459 79.7122,-74.7751 10.8653,-43.324 -22.5776,-55.3588 -26.9514,-9.69706 -82.3143,-54.1159 -39.2575,-125.241l-44.7358 -31.8594z"/>
  </g>
 </g>
</svg>
