<?xml version="1.0" encoding="UTF-8" standalone="no"?>
<!-- Created with Inkscape (http://www.inkscape.org/) -->

<svg
   xmlns:dc="http://purl.org/dc/elements/1.1/"
   xmlns:cc="http://creativecommons.org/ns#"
   xmlns:rdf="http://www.w3.org/1999/02/22-rdf-syntax-ns#"
   xmlns:svg="http://www.w3.org/2000/svg"
   xmlns="http://www.w3.org/2000/svg"
   xmlns:xlink="http://www.w3.org/1999/xlink"
   xmlns:sodipodi="http://sodipodi.sourceforge.net/DTD/sodipodi-0.dtd"
   xmlns:inkscape="http://www.inkscape.org/namespaces/inkscape"
   width="256"
   height="256"
   id="svg4374"
   version="1.1"
   inkscape:version="0.48.3.1 r9886"
   sodipodi:docname="edit-clear.svg">
  <defs
     id="defs4376">
    <linearGradient
       y2="264.96301"
       x2="229.189"
       y1="75.677498"
       x1="77.762001"
       gradientUnits="userSpaceOnUse"
       id="id9">
      <stop
         id="stop3151"
         style="stop-color:#58A6D8"
         offset="0" />
      <stop
         offset="0.470588"
         style="stop-color:#548bbb;stop-opacity:1;"
         id="stop4258" />
      <stop
         id="stop3153"
         style="stop-color:#50719E"
         offset="0.941176" />
      <stop
         id="stop3155"
         style="stop-color:#386EAB"
         offset="1" />
    </linearGradient>
    <linearGradient
       inkscape:collect="always"
       xlink:href="#id9"
       id="linearGradient5408"
       x1="120"
       y1="546"
       x2="136"
       y2="546"
       gradientUnits="userSpaceOnUse"
       spreadMethod="reflect" />
  </defs>
  <sodipodi:namedview
     id="base"
     pagecolor="#ffffff"
     bordercolor="#666666"
     borderopacity="1.0"
     inkscape:pageopacity="0.0"
     inkscape:pageshadow="2"
     inkscape:zoom="1.7124294"
     inkscape:cx="154.9802"
     inkscape:cy="98.571429"
     inkscape:document-units="px"
     inkscape:current-layer="layer1"
     showgrid="false"
     inkscape:window-width="1920"
     inkscape:window-height="1050"
     inkscape:window-x="-4"
     inkscape:window-y="-4"
     inkscape:window-maximized="1" />
  <metadata
     id="metadata4379">
    <rdf:RDF>
      <cc:Work
         rdf:about="">
        <dc:format>image/svg+xml</dc:format>
        <dc:type
           rdf:resource="http://purl.org/dc/dcmitype/StillImage" />
        <dc:title />
      </cc:Work>
    </rdf:RDF>
  </metadata>
  <g
     inkscape:label="Capa 1"
     inkscape:groupmode="layer"
     id="layer1"
     transform="translate(0,-796.36218)">
    <g
       transform="matrix(15.849678,0,0,17.365611,-1899.9943,-8556.274)"
       id="layer12"
       inkscape:label="actions"
       style="fill:url(#linearGradient5408);fill-opacity:1.0">
      <g
         transform="translate(79,-222)"
         id="g27035"
         style="fill:url(#linearGradient5408);fill-opacity:1.0;display:inline">
        <path
           inkscape:connector-curvature="0"
           transform="translate(-79,222)"
           d="m 126,540 -6,6 6,6 9.0353,0 C 135.56563,551.9779 136,551.50823 136,551 l 0,-10 c 0,-0.53079 -0.34561,-1 -1.0089,-1 L 126,540 z m 1,3 1,0 c 0.0104,-1.2e-4 0.0208,-4.6e-4 0.0313,0 0.25495,0.0112 0.50987,0.12858 0.6875,0.3125 l 1.2812,1.28125 1.3125,-1.28125 C 131.57812,543.082 131.75917,543.007 132,543 l 1,0 0,1 c 0,0.28647 -0.0343,0.55065 -0.25,0.75 l -1.28125,1.28125 1.25,1.25 C 132.90694,547.46942 132.99999,547.7347 133,548 l 0,1 -1,0 c -0.2653,-10e-6 -0.53059,-0.0931 -0.71875,-0.28125 L 130,547.4375 l -1.28125,1.28125 C 128.53059,548.90694 128.26529,549 128,549 l -1,0 0,-1 c 0,-0.26529 0.0931,-0.53058 0.28125,-0.71875 l 1.28125,-1.25 -1.28125,-1.28125 C 127.07051,544.55537 126.97809,544.28075 127,544 l 0,-1 z"
           id="path27041"
           sodipodi:nodetypes="ccccccccccsccccccccccccccccccccccc"
           style="color:#000000;fill:url(#linearGradient5408);fill-opacity:1.0;fill-rule:nonzero;stroke:none;stroke-width:1;marker:none;visibility:visible;display:inline;overflow:visible;enable-background:accumulate" />
      </g>
    </g>
  </g>
</svg>
