<?xml version="1.0" encoding="UTF-8" standalone="no"?>
<!-- Creator: CorelDRAW -->

<svg
   xmlns:dc="http://purl.org/dc/elements/1.1/"
   xmlns:cc="http://creativecommons.org/ns#"
   xmlns:rdf="http://www.w3.org/1999/02/22-rdf-syntax-ns#"
   xmlns:svg="http://www.w3.org/2000/svg"
   xmlns="http://www.w3.org/2000/svg"
   xmlns:xlink="http://www.w3.org/1999/xlink"
   xmlns:sodipodi="http://sodipodi.sourceforge.net/DTD/sodipodi-0.dtd"
   xmlns:inkscape="http://www.inkscape.org/namespaces/inkscape"
   xml:space="preserve"
   width="256"
   height="256"
   style="fill-rule:evenodd"
   viewBox="0 0 256 256"
   id="svg2"
   version="1.1"
   inkscape:version="0.48.3.1 r9886"
   sodipodi:docname="emblem-email.svg"><metadata
   id="metadata70"><rdf:RDF><cc:Work
       rdf:about=""><dc:format>image/svg+xml</dc:format><dc:type
         rdf:resource="http://purl.org/dc/dcmitype/StillImage" /></cc:Work></rdf:RDF></metadata><sodipodi:namedview
   pagecolor="#ffffff"
   bordercolor="#666666"
   borderopacity="1"
   objecttolerance="10"
   gridtolerance="10"
   guidetolerance="10"
   inkscape:pageopacity="0"
   inkscape:pageshadow="2"
   inkscape:window-width="640"
   inkscape:window-height="480"
   id="namedview68"
   showgrid="false"
   inkscape:zoom="0.78666667"
   inkscape:cx="150"
   inkscape:cy="150"
   inkscape:window-x="0"
   inkscape:window-y="16"
   inkscape:window-maximized="0"
   inkscape:current-layer="svg2" />
 <defs
   id="defs4"><style
     type="text/css"
     id="style6">
   
    .fil7 {fill:none}
    .fil0 {fill:url(#id4)}
    .fil8 {fill:url(#id5)}
    .fil2 {fill:url(#id6)}
    .fil4 {fill:url(#id7);fill-rule:nonzero}
    .fil6 {fill:url(#id8);fill-rule:nonzero}
    .fil3 {fill:url(#id9);fill-rule:nonzero}
    .fil5 {fill:url(#id10);fill-rule:nonzero}
    .fil1 {fill:url(#id11);fill-rule:nonzero}
   
  </style><mask
     id="id0">
  <linearGradient
   id="id1"
   gradientUnits="userSpaceOnUse"
   x1="129.35899"
   y1="73.757797"
   x2="223.58099"
   y2="190.62601">
   <stop
   offset="0"
   style="stop-opacity:1; stop-color:white"
   id="stop10" />
   <stop
   offset="1"
   style="stop-opacity:0; stop-color:white"
   id="stop12" />
  </linearGradient>
     <rect
   style="fill:url(#id1)"
   x="63.502899"
   y="29.482901"
   width="225.93401"
   height="205.418"
   id="rect14" />
    </mask><mask
     id="id2">
  <linearGradient
   id="id3"
   gradientUnits="userSpaceOnUse"
   x1="132.004"
   y1="256.59601"
   x2="287.75201"
   y2="63.418499">
   <stop
   offset="0"
   style="stop-opacity:1; stop-color:white"
   id="stop18" />
   <stop
   offset="1"
   style="stop-opacity:0; stop-color:white"
   id="stop20" />
  </linearGradient>
     <rect
   style="fill:url(#id3)"
   x="116.146"
   y="61.392101"
   width="187.464"
   height="197.23"
   id="rect22" />
    </mask><linearGradient
     id="id4"
     gradientUnits="userSpaceOnUse"
     x1="95.0149"
     y1="90.782303"
     x2="273.483"
     y2="206.946">
   <stop
   offset="0"
   style="stop-color:#94C9E2"
   id="stop25" />
   <stop
   offset="0.490196"
   style="stop-color:#58A6D8"
   id="stop27" />
   <stop
   offset="0.819608"
   style="stop-color:#50719E"
   id="stop29" />
   <stop
   offset="1"
   style="stop-color:#386EAB"
   id="stop31" />
  </linearGradient><linearGradient
     id="id5"
     gradientUnits="userSpaceOnUse"
     x1="202.022"
     y1="230.707"
     x2="217.73399"
     y2="89.306801">
   <stop
   offset="0"
   style="stop-color:#E7EEFA"
   id="stop34" />
   <stop
   offset="1"
   style="stop-color:#7DA2E3"
   id="stop36" />
  </linearGradient><linearGradient
     id="id6"
     gradientUnits="userSpaceOnUse"
     xlink:href="#id5"
     x1="168.414"
     y1="59.693802"
     x2="184.52499"
     y2="204.69">
  </linearGradient><linearGradient
     id="id7"
     gradientUnits="userSpaceOnUse"
     x1="85.310898"
     y1="89.989197"
     x2="7.9586201"
     y2="75.701103">
   <stop
   offset="0"
   style="stop-color:#82C7E6"
   id="stop40" />
   <stop
   offset="0.741176"
   style="stop-color:#6690C2"
   id="stop42" />
   <stop
   offset="1"
   style="stop-color:#3C599B"
   id="stop44" />
  </linearGradient><linearGradient
     id="id8"
     gradientUnits="userSpaceOnUse"
     xlink:href="#id7"
     x1="83.731598"
     y1="137.39799"
     x2="6.3793602"
     y2="123.11">
  </linearGradient><linearGradient
     id="id9"
     gradientUnits="userSpaceOnUse"
     xlink:href="#id4"
     x1="11.6971"
     y1="74.787498"
     x2="81.573799"
     y2="90.902702">
  </linearGradient><linearGradient
     id="id10"
     gradientUnits="userSpaceOnUse"
     xlink:href="#id4"
     x1="10.1178"
     y1="122.195"
     x2="79.994598"
     y2="138.311">
  </linearGradient><linearGradient
     id="id11"
     gradientUnits="userSpaceOnUse"
     xlink:href="#id7"
     x1="281.306"
     y1="197.229"
     x2="87.189201"
     y2="100.502">
  </linearGradient><linearGradient
     inkscape:collect="always"
     xlink:href="#id4"
     id="linearGradient3047"
     gradientUnits="userSpaceOnUse"
     x1="95.0149"
     y1="90.782303"
     x2="273.483"
     y2="206.946" /><linearGradient
     inkscape:collect="always"
     xlink:href="#id4"
     id="linearGradient3049"
     gradientUnits="userSpaceOnUse"
     x1="11.6971"
     y1="74.787498"
     x2="81.573799"
     y2="90.902702" /><linearGradient
     inkscape:collect="always"
     xlink:href="#id7"
     id="linearGradient3051"
     gradientUnits="userSpaceOnUse"
     x1="85.310898"
     y1="89.989197"
     x2="7.9586201"
     y2="75.701103" /><linearGradient
     inkscape:collect="always"
     xlink:href="#id4"
     id="linearGradient3053"
     gradientUnits="userSpaceOnUse"
     x1="11.6971"
     y1="74.787498"
     x2="81.573799"
     y2="90.902702" /><linearGradient
     inkscape:collect="always"
     xlink:href="#id7"
     id="linearGradient3055"
     gradientUnits="userSpaceOnUse"
     x1="85.310898"
     y1="89.989197"
     x2="7.9586201"
     y2="75.701103" /><linearGradient
     inkscape:collect="always"
     xlink:href="#id7"
     id="linearGradient3057"
     gradientUnits="userSpaceOnUse"
     x1="85.310898"
     y1="89.989197"
     x2="7.9586201"
     y2="75.701103" /><linearGradient
     inkscape:collect="always"
     xlink:href="#id5"
     id="linearGradient3059"
     gradientUnits="userSpaceOnUse"
     x1="202.022"
     y1="230.707"
     x2="217.73399"
     y2="89.306801" /></defs>
 <g
   id="Capa_x0020_1"
   transform="matrix(0.83286332,0,0,0.83286332,0.33683072,-4.0155457)">
  <metadata
   id="CorelCorpID_0Corel-Layer" />
  <g
   id="_53543664">
   <path
   id="_146613216"
   class="fil0"
   d="m 294.703,238.305 -220.911,0 c -1.66231,0 -3.00628,-1.53636 -3.00628,-3.45474 l 0,-171.97 c 0,-1.91837 1.34397,-3.45335 3.00628,-3.45335 l 13.3068,0 95.0052,112.662 103.065,-112.662 9.53374,0 c 1.66231,0 3.00628,1.53498 3.00628,3.45612 l 0,171.966 c 0,1.91976 -1.34397,3.45612 -3.00628,3.45612 m -110.424,-89.4397 -80.3544,-89.4383 165.188,0 -84.8334,89.4383 z"
   inkscape:connector-curvature="0"
   style="fill:url(#linearGradient3047)" />
   <path
   id="_141975240"
   class="fil1"
   d="m 294.703,239.232 -220.911,0 c -1.11282,0 -2.11215,-0.50658 -2.82773,-1.32874 -0.68375,-0.78479 -1.1059,-1.86301 -1.1059,-3.05334 l 0,-171.97 c 0,-1.18895 0.422153,-2.26717 1.1059,-3.05196 0.715584,-0.822161 1.71491,-1.32874 2.82773,-1.32874 l 13.3068,0 0.429074,0 0.278206,0.329418 94.327,111.861002 102.355,-111.886002 0.27821,-0.304504 0.40277,0 9.53374,0 c 1.11282,0 2.11215,0.506584 2.82773,1.32874 0.68375,0.78479 1.1059,1.86439 1.1059,3.05473 l 0,171.965996 c 0,1.19033 -0.42215,2.26855 -1.1059,3.05473 -0.71558,0.82217 -1.71491,1.32874 -2.82773,1.32874 z m -220.911,-1.85609 220.911,0 c 0.55087,0 1.05746,-0.26298 1.4284,-0.69067 0.40139,-0.46091 0.65053,-1.10867 0.65053,-1.83671 l 0,-171.966 c 0,-0.728041 -0.24914,-1.3758 -0.65053,-1.83671 -0.37094,-0.42769 -0.87753,-0.692054 -1.4284,-0.692054 l -9.13096,0 -102.787,112.359004 -0.71143,0.77648 -0.67683,-0.80278 -94.725601,-112.333002 -12.8791,0 c -0.550875,0 -1.05746,0.264365 -1.42978,0.69067 -0.401391,0.460908 -0.649147,1.10867 -0.649147,1.83533 l 0,171.970002 c 0,0.72665 0.247755,1.37442 0.649147,1.83533 0.372325,0.42769 0.878909,0.69067 1.42978,0.69067 z m 109.799,-87.8923 -80.3544,-89.4369 -1.38965,-1.54743 2.07755,0 165.188,0 2.15506,0 -1.48376,1.56543 -84.8348,89.4369 -0.68929,0.72666 -0.66852,-0.74465 z m -77.5876,-89.1297 78.2949,87.1462 82.659,-87.1462 -160.954,0 z"
   inkscape:connector-curvature="0"
   style="fill:url(#id11);fill-rule:nonzero" />
   <path
   id="path4267"
   class="fil2"
   style="fill:url(#id6)"
   d="m 74.7765,86.8279 0.561948,136.459 c -0.858147,5.75236 2.96338,12.349 13.9836,10.8791 l 65.756202,0.0651 c 17.0439,0.0111 70.465,1.08929 78.6852,-10.814 27.2005,-39.4139 70.2657,-161.137997 49.821,-156.164997 L 182.15745,177.22105 85.578548,62.112053 c -14.9484,0 -10.7947,15.001 -10.7947,24.6441 l -0.0069,0.07197 z"
   inkscape:connector-curvature="0"
   sodipodi:nodetypes="ccsczzcszzc"
   mask="url(#id0)" />
   <g
   id="g56">
    <path
   id="_142200392"
   class="fil3"
   d="m 4.89144,82.3641 c 0.052596,-0.06505 18.1983,-23.0703 44.3551,-2.89971 19.4467,14.9968 32.4324,-1.481 32.4698,-1.52806 l 6.66171,5.38972 c -0.0526,0.06505 -18.1983,23.0703 -44.3538,2.89971 -19.4495,-14.9968 -32.4338,1.481 -32.4712,1.52806 L 4.89134,82.3641 z"
   inkscape:connector-curvature="0"
   style="fill:url(#linearGradient3049);fill-rule:nonzero" />
    <path
   id="_141742016"
   class="fil4"
   d="m 4.16755,81.7856 c 0.203464,-0.254676 18.8709,-23.6987 45.6437,-3.05334 18.6398,14.374 31.0359,-1.19033 31.1798,-1.37027 l 0.0014,0 0.561948,-0.750187 0.746035,0.603471 6.66171,5.38972 0.712816,0.577173 -0.575789,0.719736 m -40.4187,-3.70664 c -22.7312,-17.5284 -39.1909999,-1.58065 -42.4644999,2.04848 l 5.2291599,4.22984 c 2.85542,-3.07826 15.4508,-14.6231 33.1439,-0.978565 22.7312,17.528402 39.191,1.57927 42.4645,-2.04848 l -5.22778,-4.22984 c -2.8568,3.07826 -15.4522,14.6231 -33.1452,0.978565 z m -44.5101999,1.59311 -0.00277,-0.0028 M 89.1019,83.904643 c -0.203464,0.254676 -18.8709,23.698697 -45.6437,3.05334 -18.6398,-14.374 -31.0359,1.18895 -31.1798,1.37027 L 12.277,88.326853 11.715052,89.07704 10.969017,88.474953 4.307307,83.085233 3.594491,82.50806 4.17028,81.788324 m 84.9289,2.11353 0.0028,0.0028"
   inkscape:connector-curvature="0"
   style="fill:url(#linearGradient3051);fill-rule:nonzero" />
   </g>
   <path
   id="_141385632"
   class="fil5"
   d="m 3.31217,129.773 c 0.052596,-0.065 18.1996,-23.0703 44.3551,-2.90109 19.4481,14.9982 32.4324,-1.47961 32.4712,-1.52667 l 6.66171,5.38972 c -0.0526,0.065 -18.1996,23.0703 -44.3551,2.89971 -19.4481,-14.9968 -32.4338,1.481 -32.4712,1.52806 l -6.66171,-5.38972 z"
   inkscape:connector-curvature="0"
   style="fill:url(#id10);fill-rule:nonzero" />
   <path
   id="_53171816"
   class="fil6"
   d="m 2.58967,129.194 c 0.203464,-0.25468 18.8709,-23.6987 45.6424,-3.05473 18.6398,14.3754 31.0359,-1.18895 31.1798,-1.36888 l 0.0014,0 0.563332,-0.75019 0.74465,0.60347 6.66171,5.38972 0.712816,0.57718 -0.575789,0.71973 m -40.4174,-3.70664 c -22.7312,-17.5284 -39.1909999,-1.58065 -42.4657999,2.0471 l 5.22916,4.23122 c 2.8554199,-3.07826 15.4507999,-14.6231 33.1438999,-0.97995 22.7312,17.5297 39.191,1.58204 42.4658,-2.0471 l -5.22916,-4.22984 c -2.8568,3.07687 -15.4508,14.6231 -33.1439,0.97857 z m -44.5114999,1.59311 -0.00138,-0.003 m 84.9330999,2.11769 c -0.203464,0.25606 -18.8709,23.7001 -45.6424,3.05473 -18.6412,-14.374 -31.0373,1.18895 -31.1812,1.37027 l -0.0014,-0.001 -0.561948,0.75019 -0.74465,-0.60209 -6.66171,-5.38972 -0.7142,-0.57717 0.575789,-0.71974 m 84.9289,2.11353 0.0028,0.001"
   inkscape:connector-curvature="0"
   style="fill:url(#id8);fill-rule:nonzero" />
   <path
   id="_146286792"
   class="fil3"
   d="m 5.4174,174.967 c 0.052596,-0.0651 18.1996,-23.0703 44.3551,-2.89971 19.4481,14.9968 32.4324,-1.481 32.4712,-1.52806 l 6.66171,5.38972 c -0.0526,0.0651 -18.1996,23.0703 -44.3551,2.90109 -19.4481,-14.9982 -32.4338,1.47961 -32.4712,1.52667 L 5.4174,174.96699 z"
   inkscape:connector-curvature="0"
   style="fill:url(#linearGradient3053);fill-rule:nonzero" />
   <path
   id="_140720000"
   class="fil4"
   d="m 4.6949,174.389 c 0.203464,-0.25606 18.8709,-23.7001 45.6424,-3.05473 18.6412,14.374 31.0373,-1.18895 31.1812,-1.37027 l 0,0.001 0.563332,-0.75157 0.74465,0.60347 6.66171,5.38972 0.7142,0.57718 -0.575789,0.71973 m -40.4187,-3.70526 c -22.7312,-17.5297 -39.191,-1.58204 -42.4658,2.0471 l 5.22916,4.22984 c 2.85542,-3.07687 15.4508,-14.6231 33.1439,-0.97856 22.7326,17.5284 39.191,1.58065 42.4658,-2.0471 l -5.22916,-4.23122 c -2.8568,3.07826 -15.4508,14.6231 -33.1439,0.97995 z m -44.5115,1.59172 -0.00138,-0.001 m 84.9331,2.11769 c -0.203464,0.25467 -18.8709,23.6987 -45.6424,3.05473 -18.6412,-14.3754 -31.0373,1.18895 -31.1812,1.36888 l 0,0 -0.563332,0.75019 -0.74465,-0.60347 -6.66171,-5.38973 -0.7142,-0.57717 0.575789,-0.71973 m 84.9303,2.11353 0.0014,0.003"
   inkscape:connector-curvature="0"
   style="fill:url(#linearGradient3055);fill-rule:nonzero" />
   <path
   id="path3076-7"
   class="fil7"
   d="m 9.80087,224.077 c 0,0 15.61,-19.7983 38.4118,-2.21457 22.8032,17.5851 38.4132,-2.21319 38.4132,-2.21319"
   sodipodi:nodetypes="czc"
   inkscape:connector-curvature="0"
   style="fill:none" />
   <path
   id="_141643304"
   class="fil3"
   d="m 6.46932,221.383 c 0.052596,-0.0651 18.1996,-23.0703 44.3551,-2.89971 19.4481,14.9968 32.4324,-1.481 32.4712,-1.52806 l 6.66171,5.38972 c -0.0526,0.065 -18.1996,23.0703 -44.3551,2.89971 -19.4481,-14.9968 -32.4338,1.481 -32.4712,1.52806 L 6.46932,221.383 z"
   inkscape:connector-curvature="0"
   style="fill:url(#id9);fill-rule:nonzero" />
   <path
   id="_141447984"
   class="fil4"
   d="m 5.74682,220.804 c 0.203464,-0.25468 18.8709,-23.6987 45.6424,-3.05334 18.6398,14.374 31.0359,-1.19033 31.1798,-1.37027 l 0.0014,0 0.563332,-0.75019 0.74465,0.60347 6.66171,5.38972 0.712816,0.57718 -0.575789,0.71973 m -40.4174,-3.70664 c -22.7312,-17.5284 -39.191,-1.58065 -42.4657999,2.0471 l 5.2291599,4.23122 c 2.85542,-3.07826 15.4508,-14.6231 33.1439,-0.97856 22.7312,17.5284 39.191,1.57927 42.4658,-2.04848 l -5.22916,-4.22984 c -2.8568,3.07687 -15.4508,14.6231 -33.1439,0.97856 z m -44.5114999,1.59311 -0.00138,-0.003 m 84.9330999,2.11769 c -0.203464,0.25606 -18.8709,23.7001 -45.6424,3.05473 -18.6412,-14.374 -31.0373,1.18895 -31.1812,1.37027 l -0.0014,-0.001 -0.561948,0.75019 -0.74465,-0.60209 -6.66171,-5.38972 -0.7142,-0.57717 0.575789,-0.71974 m 84.9289,2.11353 0.0028,0.001"
   inkscape:connector-curvature="0"
   style="fill:url(#linearGradient3057);fill-rule:nonzero" />
   <path
   id="path4267_0"
   class="fil8"
   style="fill:url(#linearGradient3059)"
   d="m 120.534,62.8828 c 10.9746,-0.489974 59.0142,0.05121 90.4653,-0.463676 l 28.2884,-0.470597 c 11.5241,-0.476133 12.039,4.71427 1.54743,15.5823 l -31.0802,34.058803 -26.3424,31.3113 c -1.80488,-14.4487 -85.4729,-83.580803 -62.8787,-80.018103 z"
   inkscape:connector-curvature="0"
   sodipodi:nodetypes="ccsczzcszzc"
   mask="url(#id2)" />
  </g>
 </g>
</svg>