<?xml version="1.0" encoding="UTF-8" standalone="no"?>
<!-- Created with Inkscape (http://www.inkscape.org/) -->

<svg
   xmlns:dc="http://purl.org/dc/elements/1.1/"
   xmlns:cc="http://creativecommons.org/ns#"
   xmlns:rdf="http://www.w3.org/1999/02/22-rdf-syntax-ns#"
   xmlns:svg="http://www.w3.org/2000/svg"
   xmlns="http://www.w3.org/2000/svg"
   xmlns:xlink="http://www.w3.org/1999/xlink"
   xmlns:sodipodi="http://sodipodi.sourceforge.net/DTD/sodipodi-0.dtd"
   xmlns:inkscape="http://www.inkscape.org/namespaces/inkscape"
   width="256"
   height="256"
   id="svg4374"
   version="1.1"
   inkscape:version="0.48.3.1 r9886"
   sodipodi:docname="filesave.svg">
  <defs
     id="defs4376">
    <linearGradient
       y2="264.96301"
       x2="229.189"
       y1="75.677498"
       x1="77.762001"
       gradientUnits="userSpaceOnUse"
       id="id9">
      <stop
         id="stop3151"
         style="stop-color:#58A6D8"
         offset="0" />
      <stop
         offset="0.470588"
         style="stop-color:#548bbb;stop-opacity:1;"
         id="stop4258" />
      <stop
         id="stop3153"
         style="stop-color:#50719E"
         offset="0.941176" />
      <stop
         id="stop3155"
         style="stop-color:#386EAB"
         offset="1" />
    </linearGradient>
    <linearGradient
       inkscape:collect="always"
       xlink:href="#id9"
       id="linearGradient3064"
       gradientUnits="userSpaceOnUse"
       spreadMethod="reflect"
       x1="1.9998"
       y1="7.5"
       x2="13.9998"
       y2="7.5" />
    <linearGradient
       inkscape:collect="always"
       xlink:href="#id9"
       id="linearGradient3066"
       gradientUnits="userSpaceOnUse"
       spreadMethod="reflect"
       x1="1.9998"
       y1="7.5"
       x2="13.9998"
       y2="7.5" />
    <linearGradient
       inkscape:collect="always"
       xlink:href="#id9"
       id="linearGradient3068"
       gradientUnits="userSpaceOnUse"
       spreadMethod="reflect"
       x1="1.9998"
       y1="7.5"
       x2="13.9998"
       y2="7.5" />
    <linearGradient
       inkscape:collect="always"
       xlink:href="#id9"
       id="linearGradient3070"
       gradientUnits="userSpaceOnUse"
       spreadMethod="reflect"
       x1="1.9998"
       y1="7.5"
       x2="13.9998"
       y2="7.5" />
    <linearGradient
       inkscape:collect="always"
       xlink:href="#id9"
       id="linearGradient3072"
       gradientUnits="userSpaceOnUse"
       spreadMethod="reflect"
       x1="1.9998"
       y1="7.5"
       x2="13.9998"
       y2="7.5" />
    <linearGradient
       inkscape:collect="always"
       xlink:href="#id9"
       id="linearGradient3074"
       gradientUnits="userSpaceOnUse"
       spreadMethod="reflect"
       x1="1.9998"
       y1="7.5"
       x2="13.9998"
       y2="7.5" />
    <linearGradient
       inkscape:collect="always"
       xlink:href="#id9"
       id="linearGradient3076"
       gradientUnits="userSpaceOnUse"
       spreadMethod="reflect"
       x1="1.9998"
       y1="7.5"
       x2="13.9998"
       y2="7.5" />
    <linearGradient
       inkscape:collect="always"
       xlink:href="#id9"
       id="linearGradient3078"
       gradientUnits="userSpaceOnUse"
       spreadMethod="reflect"
       x1="1.9998"
       y1="7.5"
       x2="13.9998"
       y2="7.5" />
    <linearGradient
       inkscape:collect="always"
       xlink:href="#id9"
       id="linearGradient3119"
       gradientUnits="userSpaceOnUse"
       spreadMethod="reflect"
       x1="1.9998"
       y1="7.5"
       x2="13.9998"
       y2="7.5"
       gradientTransform="matrix(16.299902,0,0,16.299902,-1652.1878,-9744.1041)" />
    <linearGradient
       inkscape:collect="always"
       xlink:href="#id9"
       id="linearGradient3125"
       gradientUnits="userSpaceOnUse"
       spreadMethod="reflect"
       x1="1.9998"
       y1="7.5"
       x2="13.9998"
       y2="7.5"
       gradientTransform="matrix(16.299902,0,0,16.299902,-1652.1878,-9744.1041)" />
    <linearGradient
       inkscape:collect="always"
       xlink:href="#id9"
       id="linearGradient3128"
       gradientUnits="userSpaceOnUse"
       spreadMethod="reflect"
       x1="1.9998"
       y1="7.5"
       x2="13.9998"
       y2="7.5"
       gradientTransform="matrix(16.299902,0,0,26.214953,-1652.1878,-16238.462)" />
    <linearGradient
       inkscape:collect="always"
       xlink:href="#id9"
       id="linearGradient3131"
       gradientUnits="userSpaceOnUse"
       spreadMethod="reflect"
       x1="1.9998"
       y1="7.5"
       x2="13.9998"
       y2="7.5"
       gradientTransform="matrix(16.299902,0,0,16.299902,-1652.1878,-9744.1041)" />
  </defs>
  <sodipodi:namedview
     id="base"
     pagecolor="#ffffff"
     bordercolor="#666666"
     borderopacity="1.0"
     inkscape:pageopacity="0.0"
     inkscape:pageshadow="2"
     inkscape:zoom="1.7124294"
     inkscape:cx="156.14813"
     inkscape:cy="28.495546"
     inkscape:document-units="px"
     inkscape:current-layer="layer1"
     showgrid="false"
     inkscape:window-width="958"
     inkscape:window-height="1013"
     inkscape:window-x="0"
     inkscape:window-y="26"
     inkscape:window-maximized="0"
     showguides="true"
     inkscape:guide-bbox="true" />
  <metadata
     id="metadata4379">
    <rdf:RDF>
      <cc:Work
         rdf:about="">
        <dc:format>image/svg+xml</dc:format>
        <dc:type
           rdf:resource="http://purl.org/dc/dcmitype/StillImage" />
        <dc:title />
      </cc:Work>
    </rdf:RDF>
  </metadata>
  <g
     inkscape:label="Capa 1"
     inkscape:groupmode="layer"
     id="layer1"
     transform="translate(0,-796.36218)">
    <g
       id="layer9"
       style="fill:url(#linearGradient3064);fill-opacity:1;display:inline"
       inkscape:label="status"
       transform="matrix(16.299902,0,0,16.299902,-1652.1878,-9744.1041)" />
    <g
       style="fill:url(#linearGradient3066);fill-opacity:1"
       id="layer10"
       inkscape:label="devices"
       transform="matrix(16.299902,0,0,16.299902,-1652.1878,-9744.1041)" />
    <g
       style="fill:url(#linearGradient3068);fill-opacity:1"
       id="layer11"
       inkscape:label="apps"
       transform="matrix(16.299902,0,0,16.299902,-1652.1878,-9744.1041)" />
    <g
       style="fill:url(#linearGradient3070);fill-opacity:1"
       id="layer13"
       inkscape:label="places"
       transform="matrix(16.299902,0,0,16.299902,-1652.1878,-9744.1041)" />
    <g
       style="fill:url(#linearGradient3072);fill-opacity:1"
       id="layer14"
       inkscape:label="mimetypes"
       transform="matrix(16.299902,0,0,16.299902,-1652.1878,-9744.1041)" />
    <g
       id="layer15"
       style="fill:url(#linearGradient3074);fill-opacity:1;display:inline"
       inkscape:label="emblems"
       transform="matrix(16.299902,0,0,16.299902,-1652.1878,-9744.1041)" />
    <g
       style="fill:url(#linearGradient3076);fill-opacity:1;display:inline"
       id="g71291"
       inkscape:label="emotes"
       transform="matrix(16.299902,0,0,16.299902,-1652.1878,-9744.1041)" />
    <g
       style="fill:url(#linearGradient3078);fill-opacity:1;display:inline"
       id="g4953"
       inkscape:label="categories"
       transform="matrix(16.299902,0,0,16.299902,-1652.1878,-9744.1041)" />
    <path
       inkscape:connector-curvature="0"
       id="path3613-6"
       d="m 59.30517,883.432 0,16.29991 c 1.63e-4,4.32436 1.517521,8.6484 4.584347,11.71555 l 48.899703,48.89971 4.58435,4.58434 14.26242,0 4.58434,-4.58434 48.89971,-48.89971 c 3.06748,-3.06715 4.58418,-7.39119 4.58435,-11.71555 l 0,-16.29991 -16.29991,0 c -4.32436,1.7e-4 -8.64856,1.51752 -11.71555,4.58435 L 124.50478,925.2005 87.320627,888.01635 c -3.06699,-3.06683 -7.391191,-4.58418 -11.715555,-4.58435 l -16.299902,0 z"
       style="font-size:medium;font-style:normal;font-variant:normal;font-weight:normal;font-stretch:normal;text-indent:0;text-align:start;text-decoration:none;line-height:normal;letter-spacing:normal;word-spacing:normal;text-transform:none;direction:ltr;block-progression:tb;writing-mode:lr-tb;text-anchor:start;color:#000000;fill:url(#linearGradient3131);fill-opacity:1;stroke:none;stroke-width:2;marker:none;visibility:visible;display:inline;overflow:visible;enable-background:accumulate;font-family:Bitstream Vera Sans;-inkscape-font-specification:Bitstream Vera Sans" />
    <path
       inkscape:connector-curvature="0"
       id="path4388-5"
       d="m 108.20162,801.25694 0,131.07477 32.5998,0 0,-131.07477 -32.5998,0 z"
       style="font-size:medium;font-style:normal;font-variant:normal;font-weight:normal;font-stretch:normal;text-indent:0;text-align:start;text-decoration:none;line-height:normal;letter-spacing:normal;word-spacing:normal;text-transform:none;direction:ltr;block-progression:tb;writing-mode:lr-tb;text-anchor:start;baseline-shift:baseline;color:#000000;fill:url(#linearGradient3128);fill-opacity:1;stroke:none;stroke-width:2;marker:none;visibility:visible;display:inline;overflow:visible;enable-background:accumulate;font-family:Sans;-inkscape-font-specification:Sans" />
    <path
       inkscape:connector-curvature="0"
       sodipodi:nodetypes="ccccccsccccsccccccc"
       id="rect11668-7-5-4"
       d="m 43.005268,981.23142 0,65.19958 162.999022,0 0,-65.19958 z m 54.502797,23.43108 c 0.339038,-0.016 0.679706,-0.016 1.018744,0 4.742621,-0.9062 9.763311,3.3224 9.678071,8.15 l 0,1.0187 32.5998,0 0,-1.0187 c -0.0652,-4.3058 3.84384,-8.266 8.14995,-8.266 4.30611,0 8.21075,3.9602 8.14995,8.266 l 0,1.0187 c 0,8.8892 -7.41075,16.2999 -16.2999,16.2999 l -32.5998,0 c -8.889156,0 -16.299906,-7.4107 -16.299906,-16.2999 l 0,-1.0187 c -0.176039,-3.5381 2.236836,-7.0471 5.603091,-8.15 z"
       style="color:#000000;fill:url(#linearGradient3125);fill-opacity:1;fill-rule:evenodd;stroke:none;stroke-width:1;marker:none;visibility:visible;display:inline;overflow:visible;enable-background:accumulate" />
    <path
       inkscape:connector-curvature="0"
       id="rect4390-9-1"
       d="m 65.923745,948.63161 a 8.150766,8.150766 0 0 0 -5.093719,3.56561 l -16.299902,24.44985 a 8.150766,8.150766 0 1 0 13.24367,9.16869 l 16.299902,-24.44985 a 8.150766,8.150766 0 0 0 -8.149951,-12.7343 z m 114.099315,0 a 8.150766,8.150766 0 0 0 -5.09372,12.7343 l 16.2999,24.44985 a 8.150766,8.150766 0 1 0 13.24367,-9.16869 l -16.2999,-24.44985 a 8.150766,8.150766 0 0 0 -8.14995,-3.56561 z"
       style="font-size:medium;font-style:normal;font-variant:normal;font-weight:normal;font-stretch:normal;text-indent:0;text-align:start;text-decoration:none;line-height:normal;letter-spacing:normal;word-spacing:normal;text-transform:none;direction:ltr;block-progression:tb;writing-mode:lr-tb;text-anchor:start;baseline-shift:baseline;color:#bebebe;fill:url(#linearGradient3119);fill-opacity:1;stroke:none;stroke-width:1;marker:none;visibility:visible;display:inline;overflow:visible;enable-background:accumulate;font-family:Sans;-inkscape-font-specification:Sans" />
  </g>
</svg>
