<?xml version="1.0" encoding="UTF-8"?>
<!DOCTYPE svg PUBLIC "-//W3C//DTD SVG 1.1//EN" "http://www.w3.org/Graphics/SVG/1.1/DTD/svg11.dtd">
<!-- Creator: CorelDRAW -->
<svg xmlns="http://www.w3.org/2000/svg" xml:space="preserve" width="300px" height="300px" style="shape-rendering:geometricPrecision; text-rendering:geometricPrecision; image-rendering:optimizeQuality; fill-rule:evenodd; clip-rule:evenodd"
viewBox="0 0 300 300"
 xmlns:xlink="http://www.w3.org/1999/xlink">
 <defs>
  <style type="text/css">
   <![CDATA[
    .fil0 {fill:#94C9E2}
    .fil2 {fill:url(#id6)}
    .fil4 {fill:url(#id7)}
    .fil6 {fill:url(#id8)}
    .fil8 {fill:url(#id9)}
    .fil11 {fill:url(#id10)}
    .fil10 {fill:url(#id11)}
    .fil12 {fill:url(#id12)}
    .fil3 {fill:url(#id13);fill-rule:nonzero}
    .fil5 {fill:url(#id14);fill-rule:nonzero}
    .fil7 {fill:url(#id15);fill-rule:nonzero}
    .fil1 {fill:url(#id16);fill-rule:nonzero}
    .fil9 {fill:url(#id17);fill-rule:nonzero}
   ]]>
  </style>
     <mask id="id0">
  <linearGradient id="id1" gradientUnits="userSpaceOnUse" x1="213.733" y1="39.3544" x2="246.334" y2="31.6919">
   <stop offset="0" style="stop-opacity:1; stop-color:white"/>
   <stop offset="1" style="stop-opacity:0; stop-color:white"/>
  </linearGradient>
      <rect style="fill:url(#id1)" x="205.32" y="7.21951" width="49.4265" height="56.6073"/>
     </mask>
     <mask id="id2">
  <linearGradient id="id3" gradientUnits="userSpaceOnUse" x1="122.674" y1="151.167" x2="155.275" y2="143.504">
   <stop offset="0" style="stop-opacity:1; stop-color:white"/>
   <stop offset="1" style="stop-opacity:0; stop-color:white"/>
  </linearGradient>
      <rect style="fill:url(#id3)" x="114.261" y="119.032" width="49.4265" height="56.6073"/>
     </mask>
     <mask id="id4">
  <linearGradient id="id5" gradientUnits="userSpaceOnUse" x1="52.6584" y1="265.831" x2="85.2597" y2="258.168">
   <stop offset="0" style="stop-opacity:1; stop-color:white"/>
   <stop offset="1" style="stop-opacity:0; stop-color:white"/>
  </linearGradient>
      <rect style="fill:url(#id5)" x="44.2458" y="233.694" width="49.4265" height="56.61"/>
     </mask>
  <linearGradient id="id6" gradientUnits="userSpaceOnUse" x1="67.3189" y1="210.556" x2="221.489" y2="226.882">
   <stop offset="0" style="stop-color:#94C9E2"/>
   <stop offset="0.490196" style="stop-color:#58A6D8"/>
   <stop offset="0.819608" style="stop-color:#50719E"/>
   <stop offset="1" style="stop-color:#386EAB"/>
  </linearGradient>
  <linearGradient id="id7" gradientUnits="userSpaceOnUse" xlink:href="#id6" x1="66.5742" y1="73.8837" x2="220.754" y2="90.1982">
  </linearGradient>
  <linearGradient id="id8" gradientUnits="userSpaceOnUse" xlink:href="#id6" x1="190.203" y1="139.405" x2="236.397" y2="155.64">
  </linearGradient>
  <linearGradient id="id9" gradientUnits="userSpaceOnUse" xlink:href="#id6" x1="213.297" y1="18.4765" x2="257.662" y2="55.446">
  </linearGradient>
  <linearGradient id="id10" gradientUnits="userSpaceOnUse" x1="119.103" y1="142.203" x2="158.846" y2="152.468">
   <stop offset="0" style="stop-color:#B3D5E1"/>
   <stop offset="1" style="stop-color:white"/>
  </linearGradient>
  <linearGradient id="id11" gradientUnits="userSpaceOnUse" xlink:href="#id10" x1="210.162" y1="30.3909" x2="249.905" y2="40.6554">
  </linearGradient>
  <linearGradient id="id12" gradientUnits="userSpaceOnUse" xlink:href="#id10" x1="49.0874" y1="256.867" x2="88.8307" y2="267.132">
  </linearGradient>
  <linearGradient id="id13" gradientUnits="userSpaceOnUse" x1="229.136" y1="226.408" x2="59.6717" y2="211.031">
   <stop offset="0" style="stop-color:#82C7E6"/>
   <stop offset="0.741176" style="stop-color:#6690C2"/>
   <stop offset="1" style="stop-color:#3C599B"/>
  </linearGradient>
  <linearGradient id="id14" gradientUnits="userSpaceOnUse" xlink:href="#id13" x1="228.397" y1="89.7235" x2="58.9284" y2="74.3571">
  </linearGradient>
  <linearGradient id="id15" gradientUnits="userSpaceOnUse" xlink:href="#id13" x1="240.294" y1="155.33" x2="186.308" y2="139.716">
  </linearGradient>
  <linearGradient id="id16" gradientUnits="userSpaceOnUse" xlink:href="#id13" x1="102.503" y1="154.404" x2="48.5172" y2="138.803">
  </linearGradient>
  <linearGradient id="id17" gradientUnits="userSpaceOnUse" xlink:href="#id13" x1="260.666" y1="52.9906" x2="210.289" y2="20.9333">
  </linearGradient>
 </defs>
 <g id="Capa_x0020_1">
  <metadata id="CorelCorpID_0Corel-Layer"/>
  <g id="_146613216">
   <path id="_148712256" class="fil0" d="M97.0039 133.966l-42.9876 0c-4.53296,0 -8.20776,3.67481 -8.20776,8.22022l0 8.85276c0,4.53988 3.67481,8.20084 8.20776,8.20084l42.9876 -0.00138411c4.53157,0 8.20915,-3.65958 8.20915,-8.19808l0 -8.85414c0,-4.54818 -3.67481,-8.22022 -8.20915,-8.22022z"/>
   <path id="_142577328" class="fil1" d="M97.0039 135.762l-42.9876 0c-1.77581,0 -3.38138,0.715584 -4.53711,1.8727 -1.1585,1.16127 -1.87685,2.77099 -1.87685,4.55233l0 8.85276c0,1.77581 0.7142,3.37861 1.86855,4.53157l0.00830465 0c1.1585,1.1585 2.76545,1.87547 4.53711,1.87547l0 0.00692054 42.9876 -0.00276822 0 -0.00692054c1.77581,0 3.38553,-0.715584 4.54541,-1.87408 1.15435,-1.15158 1.86855,-2.75299 1.86855,-4.5288l0 -8.85414c0,-1.78135 -0.716968,-3.39107 -1.87685,-4.55233 -1.15435,-1.15711 -2.7613,-1.8727 -4.53711,-1.8727zm-42.9876 -3.58899l42.9876 0c2.75853,0 5.261,1.12251 7.07556,2.93846 1.80765,1.8118 2.92739,4.3115 2.92739,7.07556l0 8.85414c0,2.75853 -1.12251,5.25684 -2.93431,7.06587 -1.81041,1.80903 -4.3115,2.92601 -7.06864,2.92601l0 -0.00692054 -42.9876 0.00138411 0 0.00830465c-2.7613,0 -5.26515,-1.11836 -7.07556,-2.92739l0.00415233 -0.00415233c-1.81041,-1.81041 -2.93154,-4.30873 -2.93154,-7.06449l0 -8.85276c0,-2.7613 1.11974,-5.26376 2.92877,-7.07556 1.81318,-1.81595 4.31565,-2.93846 7.07418,-2.93846z"/>
   <path id="_142663664" class="fil2" d="M54.0148 206.072l180.791 0c4.53296,0 8.19392,3.68173 8.19392,8.22022l0.00138411 8.85414c0,4.52604 -3.66235,8.22022 -8.19669,8.22022l-180.789 -0.00138411c-4.53157,0 -8.20776,-3.6928 -8.20776,-8.21884l0 -8.85414c0,-4.53849 3.67342,-8.21884 8.20776,-8.22022z"/>
   <path id="_147331392" class="fil3" d="M54.0148 204.278l180.791 0c2.75714,0 5.25408,1.1239 7.06311,2.93846 1.80765,1.81318 2.92462,4.31703 2.92462,7.07556l-0.00692054 0 0.00138411 8.85553 0.00830465 0c0,2.75438 -1.11974,5.25823 -2.92877,7.07279 -1.81041,1.81457 -4.30873,2.93985 -7.06311,2.93985l0 -0.00692054 -180.789 -0.00138411 0 0.00692054c-2.75438,0 -5.25546,-1.12528 -7.06864,-2.94123 -1.8118,-1.81457 -2.93431,-4.31565 -2.93431,-7.07003l0 -8.85553c0,-2.75853 1.12113,-5.261 2.93016,-7.07279 1.80903,-1.8118 4.31288,-2.93431 7.07279,-2.93431l0 -0.00692054zm180.791 3.58899l-180.791 0 0 -0.00692054c-1.76889,0 -3.37446,0.721121 -4.53572,1.88239 -1.1585,1.16127 -1.87824,2.7696 -1.87824,4.54956l0 8.85553c0,1.77443 0.721121,3.38276 1.88239,4.5468 1.15573,1.15711 2.75991,1.87547 4.53157,1.87547l0 0.00692054 180.789 0.00276822 0 -0.00830465c1.77166,0 3.37169,-0.716968 4.52465,-1.87408 1.15988,-1.16265 1.87824,-2.77375 1.87824,-4.54956l0.00692054 0 -0.00276822 -8.85553 -0.00692054 0c0,-1.77996 -0.715584,-3.39107 -1.8727,-4.55233 -1.15296,-1.15573 -2.75299,-1.8727 -4.52604,-1.8727z"/>
   <path id="_53048640" class="fil4" d="M53.2716 69.4047l180.789 0c4.53988,0 8.20084,3.67896 8.20084,8.22022l0.00138411 8.85276c0,4.53988 -3.66235,8.20084 -8.20361,8.20084l-180.788 0c-4.52604,0 -8.20776,-3.66097 -8.20776,-8.19946l0 -8.85414c0,-4.54126 3.68034,-8.22022 8.20776,-8.22022z"/>
   <path id="_141422992" class="fil5" d="M53.2716 67.6096l180.789 0c2.75853,0 5.25823,1.1239 7.06864,2.93846 1.80903,1.8118 2.92601,4.31565 2.92601,7.07556l-0.00692054 0 0.00276822 8.85414 0.00692054 0c0,2.75714 -1.11836,5.25684 -2.92877,7.06726l0.00276822 0.00276822c-1.80765,1.80903 -4.30873,2.92462 -7.07418,2.92462l-180.787 0c-2.75438,0 -5.25546,-1.11836 -7.06726,-2.92739 -1.8118,-1.81041 -2.93569,-4.30873 -2.93569,-7.06587l0 -8.85553c0,-2.75991 1.12113,-5.261 2.93016,-7.07141 1.81318,-1.81733 4.31703,-2.94261 7.07279,-2.94261zm180.789 3.58899l-180.789 0c-1.77166,0 -3.37861,0.718352 -4.53434,1.87685 -1.15988,1.16127 -1.87962,2.7696 -1.87962,4.54818l0 8.85553c0,1.77581 0.715584,3.37446 1.86993,4.52742 1.16127,1.15988 2.7696,1.87685 4.54403,1.87685l180.787 0c1.77581,0 3.37999,-0.715584 4.53711,-1.8727l0.00692054 0c1.15296,-1.15158 1.86716,-2.75438 1.86716,-4.53296l0.00692054 0 -0.00138411 -8.85414 -0.00830465 0c0,-1.78135 -0.715584,-3.39245 -1.87408,-4.55233 -1.15435,-1.15573 -2.75576,-1.8727 -4.53157,-1.8727z"/>
   <path id="_146163080" class="fil6" d="M191.825 134.877l42.9807 0c4.53296,0 8.19392,3.70111 8.19392,8.22022l0.00138411 8.85276c0,4.54541 -3.66235,8.22022 -8.19669,8.22022l-42.9793 0c-4.54264,0 -8.22437,-3.67481 -8.22437,-8.22022l0.00138411 -8.85553c0,-4.51635 3.68034,-8.21745 8.22299,-8.21745z"/>
   <path id="_146283440" class="fil7" d="M191.824 133.082l42.9821 0c2.75438,0 5.24992,1.12666 7.05895,2.94261 1.80903,1.81457 2.92877,4.32119 2.92877,7.07279l-0.00692054 0 0.00138411 8.85276 0.00830465 0c0,2.76268 -1.11836,5.26376 -2.92462,7.07556 -1.81041,1.81595 -4.31011,2.93846 -7.06726,2.93846l-42.9807 0c-2.76545,0 -5.27207,-1.11974 -7.08387,-2.93293l0.00276822 -0.00415233c-1.81457,-1.81318 -2.93708,-4.31703 -2.93708,-7.07695l0.00830465 0 0.00138411 -8.85414 -0.00692054 0c0,-2.75022 1.12666,-5.25961 2.94677,-7.07833 1.8118,-1.81041 4.3115,-2.93569 7.06864,-2.93569zm42.9821 3.58899l-42.9821 0c-1.77581,0 -3.38415,0.722505 -4.54541,1.88516 -1.16127,1.15988 -1.881,2.76822 -1.881,4.53988l-0.00692054 0 -0.00276822 8.85414 0.00830465 0c0,1.77996 0.716968,3.3883 1.87408,4.54403l0.00692054 0c1.16265,1.16265 2.77099,1.881 4.5468,1.881l42.9807 0c1.77443,0 3.37722,-0.715584 4.53019,-1.8727 1.15573,-1.15988 1.8727,-2.7696 1.8727,-4.55233l0.00692054 0 -0.00276822 -8.85276 -0.00692054 0c0,-1.77443 -0.716968,-3.38691 -1.87824,-4.54956 -1.15296,-1.15711 -2.75022,-1.87685 -4.5205,-1.87685z"/>
   <g>
    <path id="_145100000" class="fil8" d="M263.835 36.9557c0,15.8051 -12.7006,28.622 -28.3618,28.622 -15.6515,0 -28.3521,-12.8141 -28.3521,-28.622 0,-15.8038 12.7006,-28.6095 28.3521,-28.6095 15.6612,0 28.3618,12.8058 28.3618,28.6095z"/>
    <path id="_53167808" class="fil9" d="M264.601 36.9557c0,8.11088 -3.26096,15.4563 -8.53165,20.7769 -5.27207,5.32051 -12.5552,8.61192 -20.5955,8.61192 -8.0389,0 -15.3193,-3.29141 -20.5914,-8.61192 -5.2693,-5.32051 -8.52888,-12.666 -8.52888,-20.7769 0,-8.10949 3.25958,-15.4508 8.52888,-20.7672 5.27069,-5.31913 12.5525,-8.60916 20.5914,-8.60916 8.04029,0 15.3235,3.29003 20.5955,8.60777 5.27069,5.31636 8.53165,12.6591 8.53165,20.7685zm-9.61679 19.6986c4.99386,-5.03954 8.08319,-12.0044 8.08319,-19.6986 0,-7.69288 -3.08933,-14.6549 -8.08181,-19.6903 -4.99248,-5.03677 -11.8923,-8.15102 -19.5118,-8.15102 -7.61675,0 -14.5151,3.11424 -19.5062,8.1524 -4.99248,5.03539 -8.08043,11.9961 -8.08043,19.6889 0,7.69426 3.08933,14.6591 8.08043,19.6986 4.99248,5.03954 11.8895,8.15655 19.5062,8.15655 7.61952,0 14.5179,-3.11701 19.5104,-8.15655z"/>
    <path id="_141715168" class="fil10" style="mask:url(#id0)" d="M208.884 36.4187c1.96128,-24.6413 26.4683,-33.5286 42.3786,-18.7381 7.29148,6.77936 -5.87831,32.5833 -16.1221,42.7164 -5.87139,5.80634 -17.1574,-1.80488 -22.6288,-9.68046 -3.99039,-5.74543 -3.07964,-11.0397 -3.62775,-14.2978z"/>
   </g>
   <g>
    <path id="_146283968" class="fil8" d="M172.776 148.768c0,15.8065 -12.702,28.6234 -28.3618,28.6234 -15.6529,0 -28.3535,-12.8141 -28.3535,-28.6234 0,-15.8038 12.7006,-28.6081 28.3535,-28.6081 15.6598,0 28.3618,12.8044 28.3618,28.6081z"/>
    <path id="_52841304" class="fil9" d="M173.542 148.768c0,8.11088 -3.26234,15.4577 -8.53303,20.7769 -5.27207,5.3219 -12.5539,8.61331 -20.5955,8.61331 -8.03752,0 -15.3193,-3.29141 -20.59,-8.61331 -5.2693,-5.31913 -8.53026,-12.666 -8.53026,-20.7769 0,-8.10811 3.26096,-15.4508 8.53026,-20.7672 5.27069,-5.31913 12.5511,-8.60777 20.59,-8.60777 8.04167,0 15.3249,3.28864 20.5969,8.60639 5.27069,5.31636 8.53165,12.6604 8.53165,20.7685zm-9.61679 19.6986c4.99248,-5.03816 8.08181,-12.0044 8.08181,-19.6986 0,-7.69288 -3.08795,-14.6536 -8.08181,-19.6903 -4.99248,-5.03539 -11.8923,-8.15102 -19.5118,-8.15102 -7.61675,0 -14.5151,3.11563 -19.5062,8.1524 -4.9911,5.03677 -8.08043,11.9961 -8.08043,19.6889 0,7.69564 3.08933,14.6605 8.08043,19.6986 4.99248,5.03954 11.8895,8.15655 19.5062,8.15655 7.61952,0 14.5179,-3.11701 19.5118,-8.15655z"/>
    <path id="_141927208" class="fil11" style="mask:url(#id2)" d="M117.824 148.231c1.96128,-24.6399 26.4697,-33.5286 42.38,-18.7367 7.2901,6.77936 -5.87831,32.5819 -16.1235,42.715 -5.87,5.80634 -17.156,-1.80488 -22.6274,-9.68046 -3.99039,-5.74543 -3.08103,-11.0397 -3.62913,-14.2978z"/>
   </g>
   <g>
    <path id="_145032896" class="fil8" d="M102.76 263.433c0,15.8051 -12.7006,28.622 -28.3618,28.622 -15.6515,0 -28.3521,-12.8141 -28.3521,-28.622 0,-15.8038 12.7006,-28.6095 28.3521,-28.6095 15.6612,0 28.3618,12.8058 28.3618,28.6095z"/>
    <path id="_141784256" class="fil9" d="M103.527 263.433c0,8.11088 -3.26096,15.4577 -8.53165,20.7769 -5.27207,5.32051 -12.5552,8.61192 -20.5955,8.61192 -8.0389,0 -15.3193,-3.29141 -20.5914,-8.61192 -5.2693,-5.31913 -8.52888,-12.666 -8.52888,-20.7769 0,-8.10949 3.25958,-15.4508 8.52888,-20.7672 5.27069,-5.31913 12.5525,-8.60916 20.5914,-8.60916 8.04029,0 15.3235,3.29003 20.5955,8.60777 5.27069,5.31636 8.53165,12.6591 8.53165,20.7685zm-9.61679 19.6986c4.99386,-5.03954 8.08319,-12.0044 8.08319,-19.6986 0,-7.69288 -3.08933,-14.6549 -8.08181,-19.6903 -4.99248,-5.03677 -11.8923,-8.15102 -19.5118,-8.15102 -7.61675,0 -14.5151,3.11563 -19.5062,8.1524 -4.99248,5.03539 -8.08043,11.9961 -8.08043,19.6889 0,7.69426 3.08933,14.6591 8.08043,19.6986 4.9911,5.03954 11.8895,8.15655 19.5062,8.15655 7.61813,0 14.5179,-3.11701 19.5104,-8.15655z"/>
    <path id="_141640728" class="fil12" style="mask:url(#id4)" d="M47.8099 262.896c1.96128,-24.6413 26.4683,-33.5286 42.3786,-18.7381 7.29148,6.77936 -5.87831,32.5833 -16.1221,42.7164 -5.87139,5.80634 -17.1574,-1.80488 -22.6288,-9.68046 -3.99039,-5.74543 -3.07964,-11.0397 -3.62775,-14.2978z"/>
   </g>
  </g>
 </g>
</svg>
