<?xml version="1.0" encoding="UTF-8" standalone="no"?>
<!-- Creator: CorelDRAW -->

<svg
   xmlns:dc="http://purl.org/dc/elements/1.1/"
   xmlns:cc="http://creativecommons.org/ns#"
   xmlns:rdf="http://www.w3.org/1999/02/22-rdf-syntax-ns#"
   xmlns:svg="http://www.w3.org/2000/svg"
   xmlns="http://www.w3.org/2000/svg"
   xmlns:xlink="http://www.w3.org/1999/xlink"
   xmlns:sodipodi="http://sodipodi.sourceforge.net/DTD/sodipodi-0.dtd"
   xmlns:inkscape="http://www.inkscape.org/namespaces/inkscape"
   xml:space="preserve"
   width="300px"
   height="300px"
   style="shape-rendering:geometricPrecision; text-rendering:geometricPrecision; image-rendering:optimizeQuality; fill-rule:evenodd; clip-rule:evenodd"
   viewBox="0 0 300 300"
   id="svg2"
   version="1.1"
   inkscape:version="0.48.3.1 r9886"
   sodipodi:docname="folder-movies.svg"><metadata
   id="metadata88"><rdf:RDF><cc:Work
       rdf:about=""><dc:format>image/svg+xml</dc:format><dc:type
         rdf:resource="http://purl.org/dc/dcmitype/StillImage" /></cc:Work></rdf:RDF></metadata><sodipodi:namedview
   pagecolor="#457f80"
   bordercolor="#666666"
   borderopacity="1"
   objecttolerance="10"
   gridtolerance="10"
   guidetolerance="10"
   inkscape:pageopacity="0"
   inkscape:pageshadow="2"
   inkscape:window-width="1022"
   inkscape:window-height="546"
   id="namedview86"
   showgrid="false"
   inkscape:zoom="0.78666667"
   inkscape:cx="150"
   inkscape:cy="150"
   inkscape:window-x="0"
   inkscape:window-y="16"
   inkscape:window-maximized="1"
   inkscape:current-layer="svg2" />
 <defs
   id="defs4">
  <style
   type="text/css"
   id="style6">
   
    .fil1 {fill:white}
    .fil5 {fill:url(#id6)}
    .fil8 {fill:url(#id7)}
    .fil0 {fill:url(#id8)}
    .fil2 {fill:url(#id9)}
    .fil7 {fill:url(#id10)}
    .fil10 {fill:url(#id11)}
    .fil4 {fill:url(#id12)}
    .fil11 {fill:url(#id13);fill-rule:nonzero}
    .fil3 {fill:url(#id14);fill-rule:nonzero}
    .fil6 {fill:url(#id15);fill-rule:nonzero}
    .fil9 {fill:url(#id16);fill-rule:nonzero}
   
  </style>
     <mask
   id="id0">
  <linearGradient
   id="id1"
   gradientUnits="userSpaceOnUse"
   x1="121.963"
   y1="31.7404"
   x2="160.107"
   y2="40.7066">
   <stop
   offset="0"
   style="stop-opacity:1; stop-color:white"
   id="stop10" />
   <stop
   offset="1"
   style="stop-opacity:0; stop-color:white"
   id="stop12" />
  </linearGradient>
      <rect
   style="fill:url(#id1)"
   x="111.206"
   y="8.22714"
   width="59.6578"
   height="55.9927"
   id="rect14" />
     </mask>
     <mask
   id="id2">
  <linearGradient
   id="id3"
   gradientUnits="userSpaceOnUse"
   x1="124.315"
   y1="159.887"
   x2="159.131"
   y2="151.701">
   <stop
   offset="0"
   style="stop-opacity:1; stop-color:white"
   id="stop18" />
   <stop
   offset="1"
   style="stop-opacity:0; stop-color:white"
   id="stop20" />
  </linearGradient>
      <rect
   style="fill:url(#id3)"
   x="115.426"
   y="125.66"
   width="52.5934"
   height="60.2669"
   id="rect22" />
     </mask>
     <mask
   id="id4">
  <linearGradient
   id="id5"
   gradientUnits="userSpaceOnUse"
   x1="121.57"
   y1="280.252"
   x2="159.714"
   y2="271.285">
   <stop
   offset="0"
   style="stop-opacity:1; stop-color:white"
   id="stop26" />
   <stop
   offset="1"
   style="stop-opacity:0; stop-color:white"
   id="stop28" />
  </linearGradient>
      <rect
   style="fill:url(#id5)"
   x="110.815"
   y="247.772"
   width="59.6551"
   height="55.9927"
   id="rect30" />
     </mask>
  <linearGradient
   id="id6"
   gradientUnits="userSpaceOnUse"
   x1="123.846"
   y1="137.587"
   x2="171.229"
   y2="177.072">
   <stop
   offset="0"
   style="stop-color:#94C9E2"
   id="stop33" />
   <stop
   offset="0.490196"
   style="stop-color:#58A6D8"
   id="stop35" />
   <stop
   offset="0.819608"
   style="stop-color:#50719E"
   id="stop37" />
   <stop
   offset="1"
   style="stop-color:#386EAB"
   id="stop39" />
  </linearGradient>
  <linearGradient
   id="id7"
   gradientUnits="userSpaceOnUse"
   xlink:href="#id6"
   x1="128.18"
   y1="246.787"
   x2="164.734"
   y2="277.255">
  </linearGradient>
  <linearGradient
   id="id8"
   gradientUnits="userSpaceOnUse"
   xlink:href="#id6"
   x1="50.2999"
   y1="72.1038"
   x2="250.525"
   y2="237.095">
  </linearGradient>
  <linearGradient
   id="id9"
   gradientUnits="userSpaceOnUse"
   xlink:href="#id6"
   x1="128.568"
   y1="34.7397"
   x2="165.13"
   y2="65.2012">
  </linearGradient>
  <linearGradient
   id="id10"
   gradientUnits="userSpaceOnUse"
   x1="120.503"
   y1="150.314"
   x2="162.943"
   y2="161.274">
   <stop
   offset="0"
   style="stop-color:#B3D5E1"
   id="stop45" />
   <stop
   offset="1"
   style="stop-color:white"
   id="stop47" />
  </linearGradient>
  <linearGradient
   id="id11"
   gradientUnits="userSpaceOnUse"
   xlink:href="#id10"
   x1="119.453"
   y1="270.297"
   x2="161.831"
   y2="281.24">
  </linearGradient>
  <linearGradient
   id="id12"
   gradientUnits="userSpaceOnUse"
   xlink:href="#id10"
   x1="119.846"
   y1="41.6949"
   x2="162.224"
   y2="30.7521">
  </linearGradient>
  <linearGradient
   id="id13"
   gradientUnits="userSpaceOnUse"
   x1="171.969"
   y1="284.016"
   x2="128.964"
   y2="25.4634">
   <stop
   offset="0"
   style="stop-color:#82C7E6"
   id="stop52" />
   <stop
   offset="0.741176"
   style="stop-color:#6690C2"
   id="stop54" />
   <stop
   offset="1"
   style="stop-color:#3C599B"
   id="stop56" />
  </linearGradient>
  <linearGradient
   id="id14"
   gradientUnits="userSpaceOnUse"
   xlink:href="#id13"
   x1="168.489"
   y1="64.152"
   x2="125.206"
   y2="36.6083">
  </linearGradient>
  <linearGradient
   id="id15"
   gradientUnits="userSpaceOnUse"
   xlink:href="#id13"
   x1="174.438"
   y1="174.45"
   x2="120.633"
   y2="140.212">
  </linearGradient>
  <linearGradient
   id="id16"
   gradientUnits="userSpaceOnUse"
   xlink:href="#id13"
   x1="168.096"
   y1="275.384"
   x2="124.813"
   y2="247.838">
  </linearGradient>
 <linearGradient
   inkscape:collect="always"
   xlink:href="#id6"
   id="linearGradient3065"
   gradientUnits="userSpaceOnUse"
   x1="123.846"
   y1="137.587"
   x2="171.229"
   y2="177.072" /><linearGradient
   inkscape:collect="always"
   xlink:href="#id10"
   id="linearGradient3067"
   gradientUnits="userSpaceOnUse"
   x1="120.503"
   y1="150.314"
   x2="162.943"
   y2="161.274" /><linearGradient
   inkscape:collect="always"
   xlink:href="#id13"
   id="linearGradient3069"
   gradientUnits="userSpaceOnUse"
   x1="171.969"
   y1="284.016"
   x2="128.964"
   y2="25.4634" />
  
  
 <linearGradient
   inkscape:collect="always"
   xlink:href="#id6"
   id="linearGradient3090"
   gradientUnits="userSpaceOnUse"
   x1="50.2999"
   y1="72.1038"
   x2="250.525"
   y2="237.095" /><linearGradient
   inkscape:collect="always"
   xlink:href="#id6"
   id="linearGradient3092"
   gradientUnits="userSpaceOnUse"
   x1="128.568"
   y1="34.7397"
   x2="165.13"
   y2="65.2012" /><linearGradient
   inkscape:collect="always"
   xlink:href="#id13"
   id="linearGradient3094"
   gradientUnits="userSpaceOnUse"
   x1="168.489"
   y1="64.152"
   x2="125.206"
   y2="36.6083" /><linearGradient
   inkscape:collect="always"
   xlink:href="#id10"
   id="linearGradient3096"
   gradientUnits="userSpaceOnUse"
   x1="119.846"
   y1="41.6949"
   x2="162.224"
   y2="30.7521" /><linearGradient
   inkscape:collect="always"
   xlink:href="#id6"
   id="linearGradient3098"
   gradientUnits="userSpaceOnUse"
   x1="123.846"
   y1="137.587"
   x2="171.229"
   y2="177.072" /><linearGradient
   inkscape:collect="always"
   xlink:href="#id13"
   id="linearGradient3100"
   gradientUnits="userSpaceOnUse"
   x1="174.438"
   y1="174.45"
   x2="120.633"
   y2="140.212" /><linearGradient
   inkscape:collect="always"
   xlink:href="#id10"
   id="linearGradient3102"
   gradientUnits="userSpaceOnUse"
   x1="120.503"
   y1="150.314"
   x2="162.943"
   y2="161.274" /><linearGradient
   inkscape:collect="always"
   xlink:href="#id6"
   id="linearGradient3104"
   gradientUnits="userSpaceOnUse"
   x1="128.18"
   y1="246.787"
   x2="164.734"
   y2="277.255" /><linearGradient
   inkscape:collect="always"
   xlink:href="#id13"
   id="linearGradient3106"
   gradientUnits="userSpaceOnUse"
   x1="168.096"
   y1="275.384"
   x2="124.813"
   y2="247.838" /><linearGradient
   inkscape:collect="always"
   xlink:href="#id10"
   id="linearGradient3108"
   gradientUnits="userSpaceOnUse"
   x1="119.453"
   y1="270.297"
   x2="161.831"
   y2="281.24" /><linearGradient
   inkscape:collect="always"
   xlink:href="#id13"
   id="linearGradient3110"
   gradientUnits="userSpaceOnUse"
   x1="171.969"
   y1="284.016"
   x2="128.964"
   y2="25.4634" />
   
   
   
   
   
  <linearGradient
   inkscape:collect="always"
   xlink:href="#id13"
   id="linearGradient3113"
   gradientUnits="userSpaceOnUse"
   x1="171.969"
   y1="284.016"
   x2="128.964"
   y2="25.4634" /><linearGradient
   inkscape:collect="always"
   xlink:href="#id6"
   id="linearGradient3134"
   gradientUnits="userSpaceOnUse"
   x1="50.2999"
   y1="72.1038"
   x2="250.525"
   y2="237.095" />
    
    
    
    
   <linearGradient
   inkscape:collect="always"
   xlink:href="#id6"
   id="linearGradient3140"
   gradientUnits="userSpaceOnUse"
   x1="50.2999"
   y1="72.1038"
   x2="250.525"
   y2="237.095" /></defs>
 <g
   id="g3142"><path
     id="_146288008"
     class="fil0"
     d="m 241.614,235.372 15.5117,0 c 4.36825,0 8.00707,3.65681 8.00707,8.00984 l 0.003,8.04029 c 0,4.35164 -3.64159,7.47142 -8.00984,7.47142 l -15.5117,-0.003 c -4.36963,0 -8.02645,-3.11563 -8.02645,-7.46865 l 0,-8.04167 c 0,-4.35164 3.65681,-8.00845 8.02645,-8.00845 z m -206.465,-1.63048 16.0349,0 c 4.36963,0 7.48664,3.67896 7.48664,8.03337 l 0,7.50187 c 0,4.35302 -3.11701,8.01122 -7.48664,8.01122 l -16.0349,0 c -4.36686,0 -8.02368,-3.6582 -8.02368,-8.01122 l 0,-7.50187 c 0,-4.35441 3.65681,-8.03337 8.02368,-8.03337 z m 37.2131,43.3461 0,-18.1969 c 0,-16.792 12.2674,-30.4836 27.2725,-30.4836 l 95.7623,0 c 15.0024,0 26.7327,13.6916 26.7327,30.4864 l 0,18.1941 m 19.4841,-75.9599 16.0515,0 c 4.36686,0 8.00707,3.65681 8.00707,8.01676 l 0,8.0306 c 0,4.35579 -3.64021,7.47972 -8.00707,7.47972 l -16.0515,0 c -4.36963,0 -7.48664,-3.12393 -7.48664,-7.47695 l 0,-8.03337 c 0,-4.36271 3.11701,-8.01676 7.48664,-8.01676 z m -205.933,-1.60557 15.5034,0 c 4.36963,0 8.02368,3.65405 8.02368,8.01676 l 0,7.49356 c 0,4.35025 -3.65405,8.01676 -8.02368,8.01676 l -15.5034,0 c -4.35994,0 -8.02506,-3.66374 -8.02506,-8.01676 l 0,-7.49356 c 0,-4.36271 3.66512,-8.01676 8.02506,-8.01676 z m 206.992,-33.7072 15.5131,0 c 4.38347,0 8.02506,3.65681 8.02506,8.01676 l 0,8.03337 c 0,4.35302 -3.64159,8.01676 -8.02506,8.01676 l -15.5131,0 c -4.35025,0 -8.00707,-3.66374 -8.00707,-8.01676 l 0,-8.03337 c 0,-4.35994 3.65405,-8.01676 8.00707,-8.01676 z m -206.455,-1.60695 16.0418,0 c 4.36271,0 7.48803,3.65543 7.48803,8.01814 l 0,8.0306 c 0,4.35302 -3.12532,7.47972 -7.48803,7.47972 l -16.0418,0 c -4.36686,0 -8.03337,-3.1267 -8.03337,-7.47972 l 0,-8.0306 c 0,-4.36271 3.6665,-8.01814 8.03337,-8.01814 z m 206.995,-34.2304 16.0487,0 c 4.38624,0 7.48664,3.65681 7.48664,8.02645 l 0,8.00845 c 0,4.36963 -3.1004,8.02645 -7.48664,8.02645 l -16.0487,0 c -4.35302,0 -8.00984,-3.65681 -8.00984,-8.02645 l 0,-8.00845 c 0,-4.36963 3.65681,-8.02368 8.00984,-8.02645 z m -206.465,-1.62218 16.0418,0 c 4.36271,0 8.02506,3.6665 8.02506,8.02645 l 0.0014,7.48664 c 0,4.36825 -3.66374,8.02506 -8.02645,8.02506 l -16.0418,0 c -4.35994,0 -7.49218,-3.65681 -7.49218,-8.02506 l 0,-7.48664 c 0,-4.36133 3.13224,-8.02645 7.49218,-8.02645 z m 207.003,-32.6221 15.5103,0 c 4.38624,0 8.02645,3.65681 8.02645,8.02645 l 0,8.02368 c 0,4.36963 -3.64021,8.02645 -8.02645,8.02645 l -15.5103,-0.001 c -4.35302,0 -8.04029,-3.65543 -8.04029,-8.02506 l 0,-8.02368 c 0,-4.369634 3.68727,-8.023684 8.04029,-8.026454 z m -139.604,-0.519041 88.7933,0 c 16.7795,0 30.503,13.698501 30.503,30.483601 l 0,60.9866 c 0,16.7768 -13.7234,30.4933 -30.503,30.4933 l -88.7933,-0.003 c -16.7795,0 -30.4864,-13.7137 -30.4864,-30.4905 l 0,-60.9866 c 0,-16.7851 13.7068,-30.483599 30.4864,-30.483599 z m -66.8677,-1.0713 15.5103,0 c 4.36271,0 8.02506,3.6582 8.02506,8.026451 l 0.0014,7.47834 c 0,4.36963 -3.66374,8.02645 -8.02645,8.02645 l -15.5103,0 c -4.35994,0 -8.02368,-3.65681 -8.02368,-8.02645 l 0,-7.47834 c 0,-4.368251 3.66097,-8.026451 8.02368,-8.026451 z m 207.009,-33.1591 16.0515,0 c 4.36825,0 7.48664,3.12532 7.48664,7.47972 l 0,8.02368 c 0,4.36963 -3.1184,8.02645 -7.48664,8.02645 l -16.0515,0 c -4.35025,0 -8.04029,-3.65681 -8.04029,-8.02645 l 0,-8.02368 c 0,-4.35441 3.69003,-7.47972 8.04029,-7.47972 z m -206.479,-2.13706 16.0584,0 c 4.35994,0 8.02368,3.65681 8.02368,8.01676 l 0,8.02506 c 0,4.35994 -3.66374,7.48803 -8.02368,7.48803 l -16.0584,0 c -4.35994,0 -7.48664,-3.12809 -7.48664,-7.48664 l 0,-8.02645 c 0,-4.35994 3.1267,-8.01676 7.48664,-8.01676 z m 38.9059,-23.5368 148.169,0 0,18.1872 c 0,16.7851 -11.8729,29.9452 -26.7521,29.9452 l -94.6675,0 c -14.8639,0 -26.7493,-13.1601 -26.7493,-29.9452 l 0,-18.1872 z m -23.9257,-8.55518 c -16.7768,0 -30.4933,13.6999 -30.4933,30.4767 l 0,195.256001 c 0,16.7795 13.7165,29.959 30.4933,29.959 l 195.789,-0.003 c 16.7768,0 29.9466,-13.1767 29.9466,-29.9535 l 0,-195.258999 c 0,-16.7782 -13.1698,-30.4767 -29.9466,-30.4767 l -195.789,0 z"
     style="fill:url(#linearGradient3140)"
     inkscape:connector-curvature="0" /><g
     id="g70">
    <path
   inkscape:connector-curvature="0"
   style="fill:url(#linearGradient3092)"
   d="m 177.134,34.6941 -60.5727,0 c 0,16.8778 13.5656,30.5542 30.2815,30.5542 16.727,0 30.2912,-13.6764 30.2912,-30.5542 z"
   class="fil2"
   id="_141295128" />
    <path
   inkscape:connector-curvature="0"
   style="fill:url(#linearGradient3094);fill-rule:nonzero"
   d="m 177.953,34.6941 -62.2115,0 c 0,8.65898 3.48242,16.5013 9.1102,22.179 5.62917,5.68038 13.4065,9.19463 21.9921,9.19463 8.58839,0 16.3671,-3.51287 21.9976,-9.19325 5.62917,-5.67761 9.11159,-13.52 9.11159,-22.1803 z m -1.63878,0 c 0,8.21607 -3.29833,15.6501 -8.6313,21.0288 -5.33159,5.37865 -12.702,8.70604 -20.8391,8.70604 -8.13579,0 -15.502,-3.3274 -20.8336,-8.70743 -5.33159,-5.37865 -8.62992,-12.8127 -8.62992,-21.0274 l 58.934,0 z"
   class="fil3"
   id="_145691696" />
    <path
   inkscape:connector-curvature="0"
   mask="url(#id0)"
   d="m 118.739,34.8256 c 2.09416,26.3174 27.977,36.2498 44.9683,20.4544 4.99802,-4.64784 9.43547,-20.4059 1.1931,-20.4142 L 118.739,34.82566 z"
   style="fill:url(#linearGradient3096)"
   class="fil4"
   id="_141907024" />
   </g><g
     id="g75">
    <path
   inkscape:connector-curvature="0"
   style="fill:url(#linearGradient3098)"
   d="m 177.822,157.323 c 0,16.8806 -13.5643,30.5694 -30.2912,30.5694 -16.7159,0 -30.2815,-13.6847 -30.2815,-30.5694 0,-16.8792 13.5656,-30.5556 30.2815,-30.5556 16.727,0 30.2912,13.6764 30.2912,30.5556 z"
   class="fil5"
   id="_143662352" />
    <path
   inkscape:connector-curvature="0"
   style="fill:url(#linearGradient3100);fill-rule:nonzero"
   d="m 178.641,157.323 c 0,8.66314 -3.4838,16.5083 -9.11297,22.19 -5.63055,5.68315 -13.4092,9.19879 -21.9963,9.19879 -8.58563,0 -16.3615,-3.51564 -21.9921,-9.19879 -5.62779,-5.68177 -9.1102,-13.5269 -9.1102,-22.19 0,-8.66037 3.48242,-16.5027 9.1102,-22.1803 5.62917,-5.68038 13.4065,-9.19325 21.9921,-9.19325 8.58839,0 16.3671,3.51287 21.9976,9.19187 5.62917,5.679 9.11159,13.5214 9.11159,22.1817 z m -10.2715,21.0385 c 5.33297,-5.38141 8.63269,-12.821 8.63269,-21.0385 0,-8.21607 -3.29833,-15.6515 -8.6313,-21.0301 -5.33297,-5.37865 -12.702,-8.70604 -20.8391,-8.70604 -8.13579,0 -15.502,3.3274 -20.8336,8.70743 -5.33159,5.37865 -8.62992,12.8127 -8.62992,21.0288 0,8.21884 3.29971,15.657 8.62992,21.0385 5.33159,5.3828 12.6992,8.71158 20.8336,8.71158 8.13717,0 15.5062,-3.32878 20.8378,-8.71158 z"
   class="fil6"
   id="_141208176" />
    <path
   inkscape:connector-curvature="0"
   mask="url(#id2)"
   d="m 119.132,156.752 c 2.09554,-26.3188 28.2718,-35.811 45.2631,-20.0128 7.78838,7.23889 -6.27693,34.7979 -17.2183,45.6202 -6.27001,6.20219 -18.3256,-1.92806 -24.1679,-10.3379 -4.26305,-6.13714 -3.29141,-11.7926 -3.87689,-15.2695 z"
   style="fill:url(#linearGradient3102)"
   class="fil7"
   id="_145691760" />
   </g><g
     id="g80">
    <path
   inkscape:connector-curvature="0"
   style="fill:url(#linearGradient3104)"
   d="m 176.741,277.298 -60.5727,0 c 0,-16.8778 13.5656,-30.5542 30.2815,-30.5542 16.727,0 30.2912,13.6764 30.2912,30.5542 z"
   class="fil8"
   id="_141458560" />
    <path
   inkscape:connector-curvature="0"
   style="fill:url(#linearGradient3106);fill-rule:nonzero"
   d="m 177.56,277.298 -62.2115,0 c 0,-8.66037 3.48242,-16.5013 9.1102,-22.1803 5.62917,-5.68038 13.4065,-9.19325 21.9921,-9.19325 8.58839,0 16.3671,3.51287 21.9976,9.19325 5.62917,5.67761 9.11159,13.52 9.11159,22.1803 z m -1.63878,0 c 0,-8.21607 -3.29833,-15.6501 -8.6313,-21.0288 -5.33159,-5.38003 -12.702,-8.70604 -20.8391,-8.70604 -8.13579,0 -15.502,3.3274 -20.8336,8.70604 -5.33159,5.38003 -8.62992,12.8127 -8.62992,21.0288 l 58.934,0 z"
   class="fil9"
   id="_141386336" />
    <path
   inkscape:connector-curvature="0"
   mask="url(#id4)"
   d="m 118.345,277.166 c 2.09416,-26.3188 27.977,-36.2512 44.9683,-20.4544 4.99802,4.64645 9.43547,20.4073 1.19172,20.4128 l -46.16,0.0415 z"
   style="fill:url(#linearGradient3108)"
   class="fil10"
   id="_140764760" />
   </g><path
     inkscape:connector-curvature="0"
     style="fill:url(#linearGradient3113);fill-rule:nonzero"
     d="m 52.3885,25.3001 196.156,0 c 8.62576,0 16.4667,3.56685 22.1513,9.3109 5.68315,5.74405 9.21124,13.6639 9.21124,22.3727 l 0,195.514 c 0,8.70743 -3.52809,16.6287 -9.21124,22.3727 -5.68453,5.74405 -13.5255,9.30951 -22.1513,9.30951 l -196.156,0 c -8.62576,0 -16.4667,-3.56546 -22.1513,-9.30951 -5.68315,-5.74405 -9.21124,-13.6653 -9.21124,-22.3727 l 0,-195.514 c 0,-8.70881 3.52809,-16.6287 9.21124,-22.3727 5.68453,-5.74405 13.5255,-9.3109 22.1513,-9.3109 z m 196.156,2.53292 -196.156,0 c -7.92679,0 -15.1352,3.27895 -20.3602,8.55933 -5.22501,5.28037 -8.46936,12.5705 -8.46936,20.5914 l 0,195.514 c 0,8.02091 3.24435,15.3096 8.46936,20.5914 5.22501,5.28037 12.4334,8.55933 20.3602,8.55933 l 196.156,0 c 7.92679,0 15.1352,-3.27895 20.3602,-8.55933 5.22501,-5.28176 8.46936,-12.5705 8.46936,-20.5914 l 0,-195.514 c 0,-8.02091 -3.24435,-15.311 -8.46936,-20.5914 -5.22501,-5.28037 -12.4334,-8.55933 -20.3602,-8.55933 z"
     class="fil11"
     id="_141381208" /></g>
</svg>