<?xml version="1.0" encoding="UTF-8" standalone="no"?>
<!-- Creator: CorelDRAW -->

<svg
   xmlns:dc="http://purl.org/dc/elements/1.1/"
   xmlns:cc="http://creativecommons.org/ns#"
   xmlns:rdf="http://www.w3.org/1999/02/22-rdf-syntax-ns#"
   xmlns:svg="http://www.w3.org/2000/svg"
   xmlns="http://www.w3.org/2000/svg"
   xmlns:xlink="http://www.w3.org/1999/xlink"
   xmlns:sodipodi="http://sodipodi.sourceforge.net/DTD/sodipodi-0.dtd"
   xmlns:inkscape="http://www.inkscape.org/namespaces/inkscape"
   xml:space="preserve"
   width="256"
   height="256"
   style="fill-rule:evenodd"
   viewBox="0 0 256 256"
   id="svg2"
   version="1.1"
   inkscape:version="0.48.3.1 r9886"
   sodipodi:docname="folder-music.svg"><metadata
   id="metadata90"><rdf:RDF><cc:Work
       rdf:about=""><dc:format>image/svg+xml</dc:format><dc:type
         rdf:resource="http://purl.org/dc/dcmitype/StillImage" /></cc:Work></rdf:RDF></metadata><sodipodi:namedview
   pagecolor="#ffffff"
   bordercolor="#666666"
   borderopacity="1"
   objecttolerance="10"
   gridtolerance="10"
   guidetolerance="10"
   inkscape:pageopacity="0"
   inkscape:pageshadow="2"
   inkscape:window-width="1022"
   inkscape:window-height="546"
   id="namedview88"
   showgrid="false"
   inkscape:zoom="1.1125147"
   inkscape:cx="150"
   inkscape:cy="150"
   inkscape:window-x="0"
   inkscape:window-y="16"
   inkscape:window-maximized="1"
   inkscape:current-layer="svg2" />
 <defs
   id="defs4">
  <style
   type="text/css"
   id="style6">
   
    .fil0 {fill:#94C9E2}
    .fil2 {fill:url(#id6)}
    .fil4 {fill:url(#id7)}
    .fil6 {fill:url(#id8)}
    .fil8 {fill:url(#id9)}
    .fil11 {fill:url(#id10)}
    .fil10 {fill:url(#id11)}
    .fil12 {fill:url(#id12)}
    .fil3 {fill:url(#id13);fill-rule:nonzero}
    .fil5 {fill:url(#id14);fill-rule:nonzero}
    .fil7 {fill:url(#id15);fill-rule:nonzero}
    .fil1 {fill:url(#id16);fill-rule:nonzero}
    .fil9 {fill:url(#id17);fill-rule:nonzero}
   
  </style>
     <mask
   id="id0">
  <linearGradient
   id="id1"
   gradientUnits="userSpaceOnUse"
   x1="213.733"
   y1="39.354401"
   x2="246.334"
   y2="31.6919">
   <stop
   offset="0"
   style="stop-opacity:1; stop-color:white"
   id="stop10" />
   <stop
   offset="1"
   style="stop-opacity:0; stop-color:white"
   id="stop12" />
  </linearGradient>
      <rect
   style="fill:url(#id1)"
   x="205.32001"
   y="7.2195101"
   width="49.426498"
   height="56.6073"
   id="rect14" />
     </mask>
     <mask
   id="id2">
  <linearGradient
   id="id3"
   gradientUnits="userSpaceOnUse"
   x1="122.674"
   y1="151.16701"
   x2="155.27499"
   y2="143.504">
   <stop
   offset="0"
   style="stop-opacity:1; stop-color:white"
   id="stop18" />
   <stop
   offset="1"
   style="stop-opacity:0; stop-color:white"
   id="stop20" />
  </linearGradient>
      <rect
   style="fill:url(#id3)"
   x="114.261"
   y="119.032"
   width="49.426498"
   height="56.6073"
   id="rect22" />
     </mask>
     <mask
   id="id4">
  <linearGradient
   id="id5"
   gradientUnits="userSpaceOnUse"
   x1="52.658401"
   y1="265.83099"
   x2="85.259697"
   y2="258.168">
   <stop
   offset="0"
   style="stop-opacity:1; stop-color:white"
   id="stop26" />
   <stop
   offset="1"
   style="stop-opacity:0; stop-color:white"
   id="stop28" />
  </linearGradient>
      <rect
   style="fill:url(#id5)"
   x="44.2458"
   y="233.694"
   width="49.426498"
   height="56.610001"
   id="rect30" />
     </mask>
  <linearGradient
   id="id6"
   gradientUnits="userSpaceOnUse"
   x1="67.318901"
   y1="210.556"
   x2="221.489"
   y2="226.882">
   <stop
   offset="0"
   style="stop-color:#94C9E2"
   id="stop33" />
   <stop
   offset="0.490196"
   style="stop-color:#58A6D8"
   id="stop35" />
   <stop
   offset="0.819608"
   style="stop-color:#50719E"
   id="stop37" />
   <stop
   offset="1"
   style="stop-color:#386EAB"
   id="stop39" />
  </linearGradient>
  <linearGradient
   id="id7"
   gradientUnits="userSpaceOnUse"
   xlink:href="#id6"
   x1="66.574203"
   y1="73.883698"
   x2="220.754"
   y2="90.198196">
  </linearGradient>
  <linearGradient
   id="id8"
   gradientUnits="userSpaceOnUse"
   xlink:href="#id6"
   x1="190.203"
   y1="139.405"
   x2="236.397"
   y2="155.64">
  </linearGradient>
  <linearGradient
   id="id9"
   gradientUnits="userSpaceOnUse"
   xlink:href="#id6"
   x1="213.297"
   y1="18.4765"
   x2="257.66199"
   y2="55.445999">
  </linearGradient>
  <linearGradient
   id="id10"
   gradientUnits="userSpaceOnUse"
   x1="119.103"
   y1="142.203"
   x2="158.84599"
   y2="152.468">
   <stop
   offset="0"
   style="stop-color:#B3D5E1"
   id="stop45" />
   <stop
   offset="1"
   style="stop-color:white"
   id="stop47" />
  </linearGradient>
  <linearGradient
   id="id11"
   gradientUnits="userSpaceOnUse"
   xlink:href="#id10"
   x1="210.162"
   y1="30.3909"
   x2="249.905"
   y2="40.655399">
  </linearGradient>
  <linearGradient
   id="id12"
   gradientUnits="userSpaceOnUse"
   xlink:href="#id10"
   x1="49.087399"
   y1="256.867"
   x2="88.830704"
   y2="267.13199">
  </linearGradient>
  <linearGradient
   id="id13"
   gradientUnits="userSpaceOnUse"
   x1="229.136"
   y1="226.408"
   x2="59.6717"
   y2="211.03101">
   <stop
   offset="0"
   style="stop-color:#82C7E6"
   id="stop52" />
   <stop
   offset="0.741176"
   style="stop-color:#6690C2"
   id="stop54" />
   <stop
   offset="1"
   style="stop-color:#3C599B"
   id="stop56" />
  </linearGradient>
  <linearGradient
   id="id14"
   gradientUnits="userSpaceOnUse"
   xlink:href="#id13"
   x1="228.397"
   y1="89.723503"
   x2="58.928398"
   y2="74.357101">
  </linearGradient>
  <linearGradient
   id="id15"
   gradientUnits="userSpaceOnUse"
   xlink:href="#id13"
   x1="240.29401"
   y1="155.33"
   x2="186.308"
   y2="139.716">
  </linearGradient>
  <linearGradient
   id="id16"
   gradientUnits="userSpaceOnUse"
   xlink:href="#id13"
   x1="102.503"
   y1="154.40401"
   x2="48.5172"
   y2="138.80299">
  </linearGradient>
  <linearGradient
   id="id17"
   gradientUnits="userSpaceOnUse"
   xlink:href="#id13"
   x1="260.66599"
   y1="52.990601"
   x2="210.289"
   y2="20.9333">
  </linearGradient>
 <linearGradient
   inkscape:collect="always"
   xlink:href="#id6"
   id="linearGradient3067"
   gradientUnits="userSpaceOnUse"
   x1="67.318901"
   y1="210.556"
   x2="221.489"
   y2="226.882" /><linearGradient
   inkscape:collect="always"
   xlink:href="#id13"
   id="linearGradient3069"
   gradientUnits="userSpaceOnUse"
   x1="229.136"
   y1="226.408"
   x2="59.6717"
   y2="211.03101" /><linearGradient
   inkscape:collect="always"
   xlink:href="#id6"
   id="linearGradient3071"
   gradientUnits="userSpaceOnUse"
   x1="213.297"
   y1="18.4765"
   x2="257.66199"
   y2="55.445999" /><linearGradient
   inkscape:collect="always"
   xlink:href="#id13"
   id="linearGradient3073"
   gradientUnits="userSpaceOnUse"
   x1="260.66599"
   y1="52.990601"
   x2="210.289"
   y2="20.9333" /><linearGradient
   inkscape:collect="always"
   xlink:href="#id6"
   id="linearGradient3075"
   gradientUnits="userSpaceOnUse"
   x1="213.297"
   y1="18.4765"
   x2="257.66199"
   y2="55.445999" /><linearGradient
   inkscape:collect="always"
   xlink:href="#id13"
   id="linearGradient3077"
   gradientUnits="userSpaceOnUse"
   x1="260.66599"
   y1="52.990601"
   x2="210.289"
   y2="20.9333" /><linearGradient
   inkscape:collect="always"
   xlink:href="#id10"
   id="linearGradient3079"
   gradientUnits="userSpaceOnUse"
   x1="119.103"
   y1="142.203"
   x2="158.84599"
   y2="152.468" />
  
  
 <linearGradient
   inkscape:collect="always"
   xlink:href="#id13"
   id="linearGradient3102"
   gradientUnits="userSpaceOnUse"
   x1="102.503"
   y1="154.40401"
   x2="48.5172"
   y2="138.80299" /><linearGradient
   inkscape:collect="always"
   xlink:href="#id6"
   id="linearGradient3104"
   gradientUnits="userSpaceOnUse"
   x1="67.318901"
   y1="210.556"
   x2="221.489"
   y2="226.882" /><linearGradient
   inkscape:collect="always"
   xlink:href="#id13"
   id="linearGradient3106"
   gradientUnits="userSpaceOnUse"
   x1="229.136"
   y1="226.408"
   x2="59.6717"
   y2="211.03101" /><linearGradient
   inkscape:collect="always"
   xlink:href="#id6"
   id="linearGradient3108"
   gradientUnits="userSpaceOnUse"
   x1="66.574203"
   y1="73.883698"
   x2="220.754"
   y2="90.198196" /><linearGradient
   inkscape:collect="always"
   xlink:href="#id13"
   id="linearGradient3110"
   gradientUnits="userSpaceOnUse"
   x1="228.397"
   y1="89.723503"
   x2="58.928398"
   y2="74.357101" /><linearGradient
   inkscape:collect="always"
   xlink:href="#id6"
   id="linearGradient3112"
   gradientUnits="userSpaceOnUse"
   x1="190.203"
   y1="139.405"
   x2="236.397"
   y2="155.64" /><linearGradient
   inkscape:collect="always"
   xlink:href="#id13"
   id="linearGradient3114"
   gradientUnits="userSpaceOnUse"
   x1="240.29401"
   y1="155.33"
   x2="186.308"
   y2="139.716" /><linearGradient
   inkscape:collect="always"
   xlink:href="#id6"
   id="linearGradient3116"
   gradientUnits="userSpaceOnUse"
   x1="213.297"
   y1="18.4765"
   x2="257.66199"
   y2="55.445999" /><linearGradient
   inkscape:collect="always"
   xlink:href="#id13"
   id="linearGradient3118"
   gradientUnits="userSpaceOnUse"
   x1="260.66599"
   y1="52.990601"
   x2="210.289"
   y2="20.9333" /><linearGradient
   inkscape:collect="always"
   xlink:href="#id10"
   id="linearGradient3120"
   gradientUnits="userSpaceOnUse"
   x1="210.162"
   y1="30.3909"
   x2="249.905"
   y2="40.655399" /><linearGradient
   inkscape:collect="always"
   xlink:href="#id6"
   id="linearGradient3122"
   gradientUnits="userSpaceOnUse"
   x1="213.297"
   y1="18.4765"
   x2="257.66199"
   y2="55.445999" /><linearGradient
   inkscape:collect="always"
   xlink:href="#id13"
   id="linearGradient3124"
   gradientUnits="userSpaceOnUse"
   x1="260.66599"
   y1="52.990601"
   x2="210.289"
   y2="20.9333" /><linearGradient
   inkscape:collect="always"
   xlink:href="#id10"
   id="linearGradient3126"
   gradientUnits="userSpaceOnUse"
   x1="119.103"
   y1="142.203"
   x2="158.84599"
   y2="152.468" /><linearGradient
   inkscape:collect="always"
   xlink:href="#id6"
   id="linearGradient3128"
   gradientUnits="userSpaceOnUse"
   x1="213.297"
   y1="18.4765"
   x2="257.66199"
   y2="55.445999" /><linearGradient
   inkscape:collect="always"
   xlink:href="#id13"
   id="linearGradient3130"
   gradientUnits="userSpaceOnUse"
   x1="260.66599"
   y1="52.990601"
   x2="210.289"
   y2="20.9333" /><linearGradient
   inkscape:collect="always"
   xlink:href="#id10"
   id="linearGradient3132"
   gradientUnits="userSpaceOnUse"
   x1="49.087399"
   y1="256.867"
   x2="88.830704"
   y2="267.13199" />
   
   
   
   
   
   
   
   
   
   
   
  <linearGradient
   inkscape:collect="always"
   xlink:href="#id13"
   id="linearGradient3147"
   gradientUnits="userSpaceOnUse"
   x1="240.29401"
   y1="155.33"
   x2="186.308"
   y2="139.716"
   gradientTransform="matrix(1.2765773,0,0,0.8484786,-71.274845,0.36877117)" /><linearGradient
   inkscape:collect="always"
   xlink:href="#id6"
   id="linearGradient3150"
   gradientUnits="userSpaceOnUse"
   x1="190.203"
   y1="139.405"
   x2="236.397"
   y2="155.64"
   gradientTransform="matrix(1.2765773,0,0,0.8484786,-71.274845,0.36877117)" /><linearGradient
   inkscape:collect="always"
   xlink:href="#id13"
   id="linearGradient3153"
   gradientUnits="userSpaceOnUse"
   x1="228.397"
   y1="89.723503"
   x2="58.928398"
   y2="74.357101"
   gradientTransform="matrix(1.1126009,0,0,0.8484786,-29.141553,0.36877117)" /><linearGradient
   inkscape:collect="always"
   xlink:href="#id6"
   id="linearGradient3156"
   gradientUnits="userSpaceOnUse"
   x1="66.574203"
   y1="73.883698"
   x2="220.754"
   y2="90.198196"
   gradientTransform="matrix(1.1126009,0,0,0.8484786,-29.141553,0.36877117)" /><linearGradient
   inkscape:collect="always"
   xlink:href="#id13"
   id="linearGradient3159"
   gradientUnits="userSpaceOnUse"
   x1="229.136"
   y1="226.408"
   x2="59.6717"
   y2="211.03101"
   gradientTransform="matrix(1.0947014,0,0,0.8484786,-25.853373,0.36877117)" /><linearGradient
   inkscape:collect="always"
   xlink:href="#id6"
   id="linearGradient3162"
   gradientUnits="userSpaceOnUse"
   x1="67.318901"
   y1="210.556"
   x2="221.489"
   y2="226.882"
   gradientTransform="matrix(1.0947014,0,0,0.8484786,-25.853373,0.36877117)" /><linearGradient
   inkscape:collect="always"
   xlink:href="#id13"
   id="linearGradient3165"
   gradientUnits="userSpaceOnUse"
   x1="102.503"
   y1="154.40401"
   x2="48.5172"
   y2="138.80299"
   gradientTransform="matrix(1.2052082,0,0,0.8484786,-31.616433,0.36877117)" /></defs>
 <g
   id="g3168"><path
     style="fill:#94c9e2"
     inkscape:connector-curvature="0"
     d="m 85.293464,114.03606 -51.809007,0 c -5.463162,0 -9.892061,3.11799 -9.892061,6.97468 l 0,7.51137 c 0,3.85199 4.428912,6.95824 9.892061,6.95824 l 51.809007,-8.5e-4 c 5.461487,0 9.893737,-3.10507 9.893737,-6.95589 l 0,-7.51255 c 0,-3.85903 -4.428912,-6.97468 -9.893737,-6.97468 z"
     class="fil0"
     id="_148712256" /><path
     style="fill:url(#linearGradient3165);fill-rule:nonzero"
     inkscape:connector-curvature="0"
     d="m 85.293464,115.55992 -51.809007,0 c -2.140222,0 -4.075268,0.60716 -5.468163,1.58895 -1.396233,0.98531 -2.261995,2.35112 -2.261995,3.86255 l 0,7.51138 c 0,1.50674 0.860759,2.86668 2.251992,3.84494 l 0.0099,0 c 1.396235,0.98296 3.332943,1.5913 5.468163,1.5913 l 0,0.006 51.809008,-0.003 0,-0.006 c 2.140221,0 4.080269,-0.60715 5.478167,-1.59012 1.391218,-0.97709 2.25199,-2.33585 2.25199,-3.84259 l 0,-7.51254 c 0,-1.51144 -0.864085,-2.87725 -2.262006,-3.86256 -1.39122,-0.98178 -3.32793,-1.58894 -5.468151,-1.58894 z m -51.809007,-3.04518 51.809007,0 c 3.324604,0 6.340601,0.95243 8.527525,2.49322 2.178594,1.53728 3.528113,3.65822 3.528113,6.00346 l 0,7.51255 c 0,2.34056 -1.352857,4.46032 -3.536454,5.99524 -2.181921,1.53492 -5.196255,2.48266 -8.519184,2.48266 l 0,-0.006 -51.809007,8.5e-4 0,0.007 c -3.327942,0 -6.345602,-0.9489 -8.527523,-2.48382 l 0.0051,-0.003 c -2.18192,-1.53609 -3.533116,-3.65586 -3.533116,-5.99407 l 0,-7.51137 c 0,-2.34291 1.349521,-4.46619 3.529778,-6.00346 2.185259,-1.5408 5.201258,-2.49322 8.52586,-2.49322 z"
     class="fil1"
     id="_142577328" /><path
     style="fill:url(#linearGradient3162)"
     inkscape:connector-curvature="0"
     d="m 33.276703,175.21645 197.912157,0 c 4.96224,0 8.96988,3.12387 8.96988,6.97468 l 0.001,7.51255 c 0,3.84025 -4.00916,6.97468 -8.97292,6.97468 l -197.909962,-8.5e-4 c -4.960716,0 -8.985046,-3.13326 -8.985046,-6.97351 l 0,-7.51254 c 0,-3.85082 4.021297,-6.97351 8.985046,-6.97468 z"
     class="fil2"
     id="_142663664" /><path
     style="fill:url(#linearGradient3159);fill-rule:nonzero"
     inkscape:connector-curvature="0"
     d="m 33.276703,173.69428 197.912157,0 c 3.01824,0 5.75165,0.95361 7.73199,2.49322 1.97885,1.53845 3.20159,3.66291 3.20159,6.00346 l -0.008,0 0.001,7.51373 0.009,0 c 0,2.33703 -1.22578,4.4615 -3.20614,6.00111 -1.98185,1.53963 -4.71677,2.4944 -7.73199,2.4944 l 0,-0.006 -197.909963,-8.5e-4 0,0.006 c -3.015223,0 -5.753158,-0.95477 -7.738049,-2.49557 -1.98338,-1.53962 -3.212193,-3.66173 -3.212193,-5.99877 l 0,-7.51372 c 0,-2.34056 1.227302,-4.46385 3.20765,-6.00111 1.980347,-1.53728 4.721316,-2.4897 7.742592,-2.4897 l 0,-0.006 z m 197.912157,3.04518 -197.912157,0 0,-0.006 c -1.936407,0 -3.694026,0.61186 -4.965259,1.59717 -1.268213,0.98531 -2.056112,2.34995 -2.056112,3.86021 l 0,7.51372 c 0,1.50557 0.789412,2.8702 2.060656,3.85787 1.265178,0.98178 3.021276,1.59129 4.960715,1.59129 l 0,0.006 197.909967,0.003 0,-0.007 c 1.93944,0 3.69099,-0.60833 4.95314,-1.59012 1.26971,-0.98648 2.0561,-2.35346 2.0561,-3.8602 l 0.008,0 -0.003,-7.51373 -0.008,0 c 0,-1.51026 -0.78334,-2.87725 -2.05005,-3.86255 -1.26215,-0.98062 -3.0137,-1.58895 -4.95465,-1.58895 z"
     class="fil3"
     id="_147331392" /><path
     style="fill:url(#linearGradient3156)"
     inkscape:connector-curvature="0"
     d="m 30.128476,59.257174 201.145994,0 c 5.05108,0 9.12428,3.121519 9.12428,6.974681 l 0.001,7.511377 c 0,3.851991 -4.07474,6.958237 -9.12735,6.958237 l -201.144886,0 c -5.035676,0 -9.131961,-3.106254 -9.131961,-6.957066 l 0,-7.512548 c 0,-3.853162 4.094749,-6.974681 9.131961,-6.974681 z"
     class="fil4"
     id="_53048640" /><path
     style="fill:url(#linearGradient3153);fill-rule:nonzero"
     inkscape:connector-curvature="0"
     d="m 30.128476,57.73407 201.145994,0 c 3.06914,0 5.85032,0.953605 7.86458,2.49322 2.01272,1.537274 3.25548,3.661737 3.25548,6.003462 l -0.008,0 0.003,7.512548 0.008,0 c 0,2.339374 -1.24429,4.460316 -3.25856,5.996419 l 0.003,0.0024 c -2.01119,1.534923 -4.7939,2.481477 -7.87074,2.481477 l -201.143776,0 c -3.064527,0 -5.847229,-0.948905 -7.86304,-2.483828 -2.015811,-1.536094 -3.266251,-3.655865 -3.266251,-5.995239 l 0,-7.513728 c 0,-2.341725 1.247371,-4.463846 3.260099,-5.99994 2.017345,-1.541966 4.80313,-2.496742 7.869192,-2.496742 z m 201.145994,3.045181 -201.145994,0 c -1.971151,0 -3.759044,0.609506 -5.044911,1.592467 -1.290483,0.985313 -2.091267,2.349947 -2.091267,3.859034 l 0,7.513727 c 0,1.506737 0.796161,2.863157 2.080487,3.841419 1.292028,0.984134 3.081459,1.592467 5.055691,1.592467 l 201.143774,0 c 1.97577,0 3.76058,-0.607157 5.04799,-1.588946 l 0.008,0 c 1.2828,-0.977091 2.07742,-2.337032 2.07742,-3.846119 l 0.008,0 -0.001,-7.512548 -0.009,0 c 0,-1.511438 -0.79615,-2.878422 -2.08509,-3.862555 -1.28434,-0.980612 -3.06607,-1.588946 -5.04185,-1.588946 z"
     class="fil5"
     id="_141422992" /><path
     style="fill:url(#linearGradient3150)"
     inkscape:connector-curvature="0"
     d="m 173.60461,114.80902 54.86818,0 c 5.78667,0 10.46018,3.14031 10.46018,6.97468 l 0.001,7.51138 c 0,3.85668 -4.67528,6.97468 -10.46372,6.97468 l -54.8664,0 c -5.79903,0 -10.49905,-3.118 -10.49905,-6.97468 l 0.001,-7.51373 c 0,-3.83203 4.69824,-6.97233 10.49728,-6.97233 z"
     class="fil6"
     id="_146163080" /><path
     style="fill:url(#linearGradient3147);fill-rule:nonzero"
     inkscape:connector-curvature="0"
     d="m 173.60333,113.286 54.86997,0 c 3.51618,0 6.70194,0.95595 9.0113,2.49674 2.30936,1.53963 3.7388,3.66644 3.7388,6.00111 l -0.009,0 0.001,7.51138 0.0105,0 c 0,2.34408 -1.42767,4.46619 -3.7335,6.00346 -2.31113,1.5408 -5.50219,2.49322 -9.0219,2.49322 l -54.8682,0 c -3.5303,0 -6.73019,-0.95007 -9.0431,-2.48853 l 0.005,-0.003 c -2.31645,-1.53844 -3.74941,-3.66291 -3.74941,-6.00464 l 0.0105,0 0.001,-7.51255 -0.009,0 c 0,-2.3335 1.43826,-4.46267 3.76178,-6.00581 2.31289,-1.53609 5.50395,-2.49087 9.02366,-2.49087 z m 54.86997,3.04518 -54.86997,0 c -2.26696,0 -4.32013,0.61303 -5.80256,1.59952 -1.48247,0.98413 -2.40125,2.34877 -2.40125,3.85199 l -0.009,0 -0.005,7.51255 0.0105,0 c 0,1.51026 0.91526,2.8749 2.39242,3.85551 l 0.009,0 c 1.48421,0.98648 3.53738,1.59599 5.80434,1.59599 l 54.86818,0 c 2.26521,0 4.31129,-0.60716 5.78314,-1.58895 1.47539,-0.98413 2.39065,-2.34994 2.39065,-3.86255 l 0.009,0 -0.005,-7.51138 -0.009,0 c 0,-1.50556 -0.91526,-2.87372 -2.39771,-3.8602 -1.47184,-0.98179 -3.51088,-1.59247 -5.77077,-1.59247 z"
     class="fil7"
     id="_146283440" /><g
     transform="matrix(0.8484786,0,0,0.8484786,6.5560802,0.36877117)"
     id="g73">
    <path
   style="fill:url(#linearGradient3116)"
   inkscape:connector-curvature="0"
   d="m 263.835,36.9557 c 0,15.8051 -12.7006,28.622 -28.3618,28.622 -15.6515,0 -28.3521,-12.8141 -28.3521,-28.622 0,-15.8038 12.7006,-28.6095 28.3521,-28.6095 15.6612,0 28.3618,12.8058 28.3618,28.6095 z"
   class="fil8"
   id="_145100000" />
    <path
   style="fill:url(#linearGradient3118);fill-rule:nonzero"
   inkscape:connector-curvature="0"
   d="m 264.601,36.9557 c 0,8.11088 -3.26096,15.4563 -8.53165,20.7769 -5.27207,5.32051 -12.5552,8.61192 -20.5955,8.61192 -8.0389,0 -15.3193,-3.29141 -20.5914,-8.61192 -5.2693,-5.32051 -8.52888,-12.666 -8.52888,-20.7769 0,-8.10949 3.25958,-15.4508 8.52888,-20.7672 5.27069,-5.31913 12.5525,-8.60916 20.5914,-8.60916 8.04029,0 15.3235,3.29003 20.5955,8.60777 5.27069,5.31636 8.53165,12.6591 8.53165,20.7685 z m -9.61679,19.6986 c 4.99386,-5.03954 8.08319,-12.0044 8.08319,-19.6986 0,-7.69288 -3.08933,-14.6549 -8.08181,-19.6903 -4.99248,-5.03677 -11.8923,-8.15102 -19.5118,-8.15102 -7.61675,0 -14.5151,3.11424 -19.5062,8.1524 -4.99248,5.03539 -8.08043,11.9961 -8.08043,19.6889 0,7.69426 3.08933,14.6591 8.08043,19.6986 4.99248,5.03954 11.8895,8.15655 19.5062,8.15655 7.61952,0 14.5179,-3.11701 19.5104,-8.15655 z"
   class="fil9"
   id="_53167808" />
    <path
   inkscape:connector-curvature="0"
   mask="url(#id0)"
   d="m 208.884,36.4187 c 1.96128,-24.6413 26.4683,-33.5286 42.3786,-18.7381 7.29148,6.77936 -5.87831,32.5833 -16.1221,42.7164 -5.87139,5.80634 -17.1574,-1.80488 -22.6288,-9.68046 -3.99039,-5.74543 -3.07964,-11.0397 -3.62775,-14.2978 z"
   style="fill:url(#linearGradient3120)"
   class="fil10"
   id="_141715168" />
   </g><g
     transform="matrix(0.8484786,0,0,0.8484786,6.5560802,0.36877117)"
     id="g78">
    <path
   style="fill:url(#linearGradient3122)"
   inkscape:connector-curvature="0"
   d="m 172.776,148.768 c 0,15.8065 -12.702,28.6234 -28.3618,28.6234 -15.6529,0 -28.3535,-12.8141 -28.3535,-28.6234 0,-15.8038 12.7006,-28.6081 28.3535,-28.6081 15.6598,0 28.3618,12.8044 28.3618,28.6081 z"
   class="fil8"
   id="_146283968" />
    <path
   style="fill:url(#linearGradient3124);fill-rule:nonzero"
   inkscape:connector-curvature="0"
   d="m 173.542,148.768 c 0,8.11088 -3.26234,15.4577 -8.53303,20.7769 -5.27207,5.3219 -12.5539,8.61331 -20.5955,8.61331 -8.03752,0 -15.3193,-3.29141 -20.59,-8.61331 -5.2693,-5.31913 -8.53026,-12.666 -8.53026,-20.7769 0,-8.10811 3.26096,-15.4508 8.53026,-20.7672 5.27069,-5.31913 12.5511,-8.60777 20.59,-8.60777 8.04167,0 15.3249,3.28864 20.5969,8.60639 5.27069,5.31636 8.53165,12.6604 8.53165,20.7685 z m -9.61679,19.6986 c 4.99248,-5.03816 8.08181,-12.0044 8.08181,-19.6986 0,-7.69288 -3.08795,-14.6536 -8.08181,-19.6903 -4.99248,-5.03539 -11.8923,-8.15102 -19.5118,-8.15102 -7.61675,0 -14.5151,3.11563 -19.5062,8.1524 -4.9911,5.03677 -8.08043,11.9961 -8.08043,19.6889 0,7.69564 3.08933,14.6605 8.08043,19.6986 4.99248,5.03954 11.8895,8.15655 19.5062,8.15655 7.61952,0 14.5179,-3.11701 19.5118,-8.15655 z"
   class="fil9"
   id="_52841304" />
    <path
   inkscape:connector-curvature="0"
   mask="url(#id2)"
   d="m 117.824,148.231 c 1.96128,-24.6399 26.4697,-33.5286 42.38,-18.7367 7.2901,6.77936 -5.87831,32.5819 -16.1235,42.715 -5.87,5.80634 -17.156,-1.80488 -22.6274,-9.68046 -3.99039,-5.74543 -3.08103,-11.0397 -3.62913,-14.2978 z"
   style="fill:url(#linearGradient3126)"
   class="fil11"
   id="_141927208" />
   </g><g
     transform="matrix(0.8484786,0,0,0.8484786,6.5560802,0.36877117)"
     id="g83">
    <path
   style="fill:url(#linearGradient3128)"
   inkscape:connector-curvature="0"
   d="m 102.76,263.433 c 0,15.8051 -12.7006,28.622 -28.3618,28.622 -15.6515,0 -28.3521,-12.8141 -28.3521,-28.622 0,-15.8038 12.7006,-28.6095 28.3521,-28.6095 15.6612,0 28.3618,12.8058 28.3618,28.6095 z"
   class="fil8"
   id="_145032896" />
    <path
   style="fill:url(#linearGradient3130);fill-rule:nonzero"
   inkscape:connector-curvature="0"
   d="m 103.527,263.433 c 0,8.11088 -3.26096,15.4577 -8.53165,20.7769 -5.27207,5.32051 -12.5552,8.61192 -20.5955,8.61192 -8.0389,0 -15.3193,-3.29141 -20.5914,-8.61192 -5.2693,-5.31913 -8.52888,-12.666 -8.52888,-20.7769 0,-8.10949 3.25958,-15.4508 8.52888,-20.7672 5.27069,-5.31913 12.5525,-8.60916 20.5914,-8.60916 8.04029,0 15.3235,3.29003 20.5955,8.60777 5.27069,5.31636 8.53165,12.6591 8.53165,20.7685 z m -9.61679,19.6986 c 4.99386,-5.03954 8.08319,-12.0044 8.08319,-19.6986 0,-7.69288 -3.08933,-14.6549 -8.08181,-19.6903 -4.99248,-5.03677 -11.8923,-8.15102 -19.5118,-8.15102 -7.61675,0 -14.5151,3.11563 -19.5062,8.1524 -4.99248,5.03539 -8.08043,11.9961 -8.08043,19.6889 0,7.69426 3.08933,14.6591 8.08043,19.6986 4.9911,5.03954 11.8895,8.15655 19.5062,8.15655 7.61813,0 14.5179,-3.11701 19.5104,-8.15655 z"
   class="fil9"
   id="_141784256" />
    <path
   inkscape:connector-curvature="0"
   mask="url(#id4)"
   d="m 47.8099,262.896 c 1.96128,-24.6413 26.4683,-33.5286 42.3786,-18.7381 7.29148,6.77936 -5.87831,32.5833 -16.1221,42.7164 -5.87139,5.80634 -17.1574,-1.80488 -22.6288,-9.68046 -3.99039,-5.74543 -3.07964,-11.0397 -3.62775,-14.2978 z"
   style="fill:url(#linearGradient3132)"
   class="fil12"
   id="_141640728" />
   </g></g>
</svg>