<?xml version="1.0" encoding="UTF-8" standalone="no"?>
<!-- Creator: CorelDRAW -->

<svg
   xmlns:dc="http://purl.org/dc/elements/1.1/"
   xmlns:cc="http://creativecommons.org/ns#"
   xmlns:rdf="http://www.w3.org/1999/02/22-rdf-syntax-ns#"
   xmlns:svg="http://www.w3.org/2000/svg"
   xmlns="http://www.w3.org/2000/svg"
   xmlns:xlink="http://www.w3.org/1999/xlink"
   xmlns:sodipodi="http://sodipodi.sourceforge.net/DTD/sodipodi-0.dtd"
   xmlns:inkscape="http://www.inkscape.org/namespaces/inkscape"
   xml:space="preserve"
   width="256"
   height="256"
   style="fill-rule:evenodd"
   viewBox="0 0 256 256"
   id="svg2"
   version="1.1"
   inkscape:version="0.48.3.1 r9886"
   sodipodi:docname="folder-download.svg"><metadata
   id="metadata77"><rdf:RDF><cc:Work
       rdf:about=""><dc:format>image/svg+xml</dc:format><dc:type
         rdf:resource="http://purl.org/dc/dcmitype/StillImage" /></cc:Work></rdf:RDF></metadata><sodipodi:namedview
   pagecolor="#ffffff"
   bordercolor="#666666"
   borderopacity="1"
   objecttolerance="10"
   gridtolerance="10"
   guidetolerance="10"
   inkscape:pageopacity="0"
   inkscape:pageshadow="2"
   inkscape:window-width="640"
   inkscape:window-height="480"
   id="namedview75"
   showgrid="false"
   inkscape:zoom="0.78666667"
   inkscape:cx="150"
   inkscape:cy="150"
   inkscape:window-x="0"
   inkscape:window-y="16"
   inkscape:window-maximized="0"
   inkscape:current-layer="svg2" />
 <defs
   id="defs4"><style
     type="text/css"
     id="style6">
   
    .fil8 {fill:url(#id6)}
    .fil7 {fill:url(#id7)}
    .fil0 {fill:url(#id8)}
    .fil4 {fill:url(#id9)}
    .fil6 {fill:url(#id10)}
    .fil2 {fill:url(#id11);fill-rule:nonzero}
    .fil3 {fill:url(#id12);fill-rule:nonzero}
    .fil5 {fill:url(#id13);fill-rule:nonzero}
    .fil1 {fill:url(#id14);fill-rule:nonzero}
   
  </style><mask
     id="id0">
  <linearGradient
   id="id1"
   gradientUnits="userSpaceOnUse"
   x1="122.296"
   y1="208.015"
   x2="156.325"
   y2="200.015">
   <stop
   offset="0"
   style="stop-opacity:1; stop-color:white"
   id="stop10" />
   <stop
   offset="1"
   style="stop-opacity:0; stop-color:white"
   id="stop12" />
  </linearGradient>
      <rect
   style="fill:url(#id1)"
   x="113.574"
   y="174.52901"
   width="51.472198"
   height="58.971298"
   id="rect14" />
     </mask><mask
     id="id2">
  <linearGradient
   id="id3"
   gradientUnits="userSpaceOnUse"
   x1="192.755"
   y1="149.35899"
   x2="135.688"
   y2="38.649799">
   <stop
   offset="0"
   style="stop-opacity:1; stop-color:white"
   id="stop18" />
   <stop
   offset="1"
   style="stop-opacity:0; stop-color:white"
   id="stop20" />
  </linearGradient>
     <rect
   style="fill:url(#id3)"
   x="77.990402"
   y="11.2431"
   width="172.463"
   height="165.52299"
   id="rect22" />
    </mask><mask
     id="id4">
  <linearGradient
   id="id5"
   gradientUnits="userSpaceOnUse"
   x1="244.903"
   y1="230.353"
   x2="131.146"
   y2="244.784">
   <stop
   offset="0"
   style="stop-opacity:1; stop-color:white"
   id="stop26" />
   <stop
   offset="0.439216"
   style="stop-opacity:0.501961; stop-color:white"
   id="stop28" />
   <stop
   offset="1"
   style="stop-opacity:0; stop-color:white"
   id="stop30" />
  </linearGradient>
     <rect
   style="fill:url(#id5)"
   x="97.300102"
   y="181.142"
   width="181.448"
   height="112.852"
   id="rect32" />
    </mask><linearGradient
     id="id6"
     gradientUnits="userSpaceOnUse"
     x1="257.70999"
     y1="237.56799"
     x2="118.339"
     y2="237.56799">
   <stop
   offset="0"
   style="stop-color:#B3D5E1"
   id="stop35" />
   <stop
   offset="1"
   style="stop-color:white"
   id="stop37" />
  </linearGradient><linearGradient
     id="id7"
     gradientUnits="userSpaceOnUse"
     xlink:href="#id6"
     x1="99.737503"
     y1="94.004501"
     x2="228.70599"
     y2="94.004501">
  </linearGradient><linearGradient
     id="id8"
     gradientUnits="userSpaceOnUse"
     x1="214.80499"
     y1="126.001"
     x2="75.006203"
     y2="46.472801">
   <stop
   offset="0"
   style="stop-color:#82C7E6"
   id="stop41" />
   <stop
   offset="0.741176"
   style="stop-color:#6690C2"
   id="stop43" />
   <stop
   offset="1"
   style="stop-color:#3C599B"
   id="stop45" />
  </linearGradient><linearGradient
     id="id9"
     gradientUnits="userSpaceOnUse"
     x1="121.838"
     y1="186.21899"
     x2="168.14999"
     y2="224.812">
   <stop
   offset="0"
   style="stop-color:#94C9E2"
   id="stop48" />
   <stop
   offset="0.490196"
   style="stop-color:#58A6D8"
   id="stop50" />
   <stop
   offset="0.819608"
   style="stop-color:#50719E"
   id="stop52" />
   <stop
   offset="1"
   style="stop-color:#386EAB"
   id="stop54" />
  </linearGradient><linearGradient
     id="id10"
     gradientUnits="userSpaceOnUse"
     xlink:href="#id6"
     x1="118.568"
     y1="198.658"
     x2="160.05299"
     y2="209.371">
  </linearGradient><linearGradient
     id="id11"
     gradientUnits="userSpaceOnUse"
     xlink:href="#id8"
     x1="249.241"
     y1="264.617"
     x2="46.093601"
     y2="208.506">
  </linearGradient><linearGradient
     id="id12"
     gradientUnits="userSpaceOnUse"
     xlink:href="#id9"
     x1="60.715302"
     y1="199.104"
     x2="236.371"
     y2="274.01999">
  </linearGradient><linearGradient
     id="id13"
     gradientUnits="userSpaceOnUse"
     xlink:href="#id8"
     x1="171.286"
     y1="222.25"
     x2="118.698"
     y2="188.784">
  </linearGradient><linearGradient
     id="id14"
     gradientUnits="userSpaceOnUse"
     xlink:href="#id9"
     x1="82.7752"
     y1="33.0816"
     x2="206.964"
     y2="139.98199">
  </linearGradient><linearGradient
     inkscape:collect="always"
     xlink:href="#id8"
     id="linearGradient3054"
     gradientUnits="userSpaceOnUse"
     x1="214.80499"
     y1="126.001"
     x2="75.006203"
     y2="46.472801" /><linearGradient
     inkscape:collect="always"
     xlink:href="#id9"
     id="linearGradient3056"
     gradientUnits="userSpaceOnUse"
     x1="121.838"
     y1="186.21899"
     x2="168.14999"
     y2="224.812" /><linearGradient
     inkscape:collect="always"
     xlink:href="#id6"
     id="linearGradient3058"
     gradientUnits="userSpaceOnUse"
     x1="257.70999"
     y1="237.56799"
     x2="118.339"
     y2="237.56799" /></defs>
 <g
   id="Capa_x0020_1"
   transform="matrix(0.84078752,0,0,0.84078752,5.8580983,2.8075122)">
  <metadata
   id="CorelCorpID_0Corel-Layer" />
  <g
   id="_91194600">
   <polygon
   id="_91035464"
   class="fil0"
   points="97.7111,5.43539 191.467,5.87969 191.563,90.4044 220.677,90.3864 145.994,167.037 69.1348,90.1788 97.7111,90.1788 "
   style="fill:url(#linearGradient3054)" />
   <path
   id="_91231744"
   class="fil1"
   d="m 97.7167,4.03606 93.7554,0.444299 1.39241,0.00554 0.001,1.3938 0.0955,83.124 27.7154,-0.01661 3.32048,-0.0028 -2.317,2.37928 -74.6823,76.650501 -0.99379,1.02009 -1.00348,-1.00348 -76.859502,-76.858201 -2.39866,-2.40004 3.39245,0 27.1701,0 0,-83.3372005 0,-1.40625 1.41179,0.00692 z m 92.3519,3.23605 -90.9525,-0.430458 0,83.3372 0,1.40487 -1.40487,0 -25.1839,0 73.4574,73.457398 71.3702,-73.252598 -25.7915,0.01523 -1.39657,0 -0.003,-1.39933 -0.0955,-83.1322998 z"
   inkscape:connector-curvature="0"
   style="fill:url(#id14);fill-rule:nonzero" />
   <path
   id="path12-8"
   class="fil2"
   d="m 38.1945,179.88 c 16.1096,0 22.5457,0 40.5461,0 0,51.81 -1.48376,71.301 68.8511,71.2331 70.3279,-0.0678 71.6484,-17.8855 71.6484,-71.2331 0,0 25.2378,0 39.7073,0 0,61.2053 0.18409,113.363 -111.281,112.69 C 36.2014,291.89594 38.1944,242.7379 38.1944,179.88 z"
   inkscape:connector-curvature="0"
   sodipodi:nodetypes="cczcczc"
   style="fill:url(#id11);fill-rule:nonzero" />
   <path
   id="_166990672"
   class="fil3"
   d="m 38.1945,178.475 40.5461,0 1.39933,0 0,1.40487 -0.0014,3.14469 c -0.02907,48.4383 -0.03876,66.7542 67.4531,66.6891 34.6871,-0.0332 52.2875,-4.35994 61.1098,-15.1255 8.814,-10.7559 9.13235,-28.3382 9.13235,-54.7083 l 0,-1.40487 1.40625,0 39.7073,0 1.40487,0 0,1.40487 0,0.30174 c 0,61.8364 0,114.469 -112.691,113.788 C 36.734216,293.2983 36.761216,245.2102 36.794216,183.1356 l 0.0014,-3.25542 0.0014,-1.40487 1.39795,0 z m 39.1467,2.80974 -37.7474,0 -0.0014,1.85055 c -0.03184,60.5077 -0.05813,107.381 108.08,108.035 109.199,0.65884 109.866,-50.0508 109.871,-109.886 l -36.8976,0 c -0.0152,26.197 -0.50659,43.7766 -9.77042,55.0806 -9.41747,11.4936 -27.6434,16.1124 -63.2828,16.147 -70.2933,0.0678 -70.2823,-19.0163 -70.2518,-69.4878 l 0.0014,-1.73982 z"
   inkscape:connector-curvature="0"
   style="fill:url(#id12);fill-rule:nonzero" />
   <g
   id="g68">
    <path
   id="_92239552"
   class="fil4"
   d="m 174.594,205.51 c 0,16.5 -13.2584,29.8801 -29.6075,29.8801 -16.3394,0 -29.5964,-13.3774 -29.5964,-29.8801 0,-16.4972 13.257,-29.8635 29.5964,-29.8635 16.3491,0 29.6075,13.3663 29.6075,29.8635 z"
   inkscape:connector-curvature="0"
   style="fill:url(#linearGradient3056)" />
    <path
   id="_91769584"
   class="fil5"
   d="m 175.394,205.51 c 0,8.46659 -3.40352,16.1359 -8.90674,21.6904 -5.50322,5.55443 -13.1061,8.98979 -21.4994,8.98979 -8.39185,0 -15.992,-3.43536 -21.4952,-8.99117 -5.50045,-5.55304 -8.90397,-13.221 -8.90397,-21.689 0,-8.46382 3.40352,-16.129 8.90397,-21.6793 5.50183,-5.55166 13.1034,-8.98563 21.4952,-8.98563 8.39323,0 15.9961,3.43397 21.5007,8.98563 5.50183,5.54889 8.90535,13.2155 8.90535,21.6793 z m -10.0389,20.5637 c 5.21255,-5.25961 8.43753,-12.5317 8.43753,-20.5637 0,-8.0306 -3.22359,-15.2972 -8.43614,-20.554 -5.21255,-5.25684 -12.4155,-8.5095 -20.3685,-8.5095 -7.9517,0 -15.1518,3.25266 -20.363,8.51088 -5.21117,5.25684 -8.43476,12.5234 -8.43476,20.5526 0,8.03337 3.22497,15.3041 8.43476,20.5637 5.21117,5.261 12.4127,8.51504 20.363,8.51504 7.95309,0 15.156,-3.25404 20.3672,-8.51504 z"
   inkscape:connector-curvature="0"
   style="fill:url(#id13);fill-rule:nonzero" />
    <path
   id="_91154232"
   class="fil6"
   style="fill:url(#id10)"
   d="m 117.231,204.95 c 2.0471,-25.7237 27.631,-35 44.2403,-19.5616 7.60983,7.07556 -6.13714,34.0145 -16.8294,44.5918 -6.13022,6.05963 -17.9117,-1.88377 -23.6226,-10.1054 -4.16755,-5.99873 -3.21805,-11.5255 -3.78831,-14.9248 z"
   mask="url(#id0)"
   inkscape:connector-curvature="0" />
   </g>
   <polygon
   id="_90891224"
   class="fil7"
   style="fill:url(#id7)"
   points="103.666,12.7061 184.882,12.6272 184.715,94.046 212.519,94.0557 146.458,161.246 79.3745,94.5692 103.909,94.5706 "
   mask="url(#id2)" />
   <path
   id="_91621744"
   class="fil8"
   style="fill:url(#linearGradient3058)"
   d="m 256.131,182.661 c 2.55922,51.583 -10.1704,81.279 -28.5528,89.592 -19.8786,19.235 -111.659,22.8849 -128.894,9.51159 19.001,-41.0236 31.4636,-21.3111 69.3162,-27.332 39.9551,-6.35167 57.1028,-11.8092 53.9346,-71.9058 l 34.1958,0.13426 z"
   mask="url(#id4)"
   inkscape:connector-curvature="0" />
  </g>
 </g>
</svg>