<?xml version="1.0" encoding="UTF-8"?>
<!DOCTYPE svg PUBLIC "-//W3C//DTD SVG 1.1//EN" "http://www.w3.org/Graphics/SVG/1.1/DTD/svg11.dtd">
<!-- Creator: CorelDRAW -->
<svg xmlns="http://www.w3.org/2000/svg" xml:space="preserve" width="300px" height="300px" style="shape-rendering:geometricPrecision; text-rendering:geometricPrecision; image-rendering:optimizeQuality; fill-rule:evenodd; clip-rule:evenodd"
viewBox="0 0 300 300"
 xmlns:xlink="http://www.w3.org/1999/xlink">
 <defs>
  <style type="text/css">
   <![CDATA[
    .fil4 {fill:url(#id2)}
    .fil2 {fill:url(#id3)}
    .fil0 {fill:url(#id4)}
    .fil3 {fill:url(#id5);fill-rule:nonzero}
    .fil1 {fill:url(#id6);fill-rule:nonzero}
   ]]>
  </style>
    <mask id="id0">
  <linearGradient id="id1" gradientUnits="userSpaceOnUse" x1="108.871" y1="92.1706" x2="262.853" y2="241.754">
   <stop offset="0" style="stop-opacity:1; stop-color:white"/>
   <stop offset="1" style="stop-opacity:0; stop-color:white"/>
  </linearGradient>
     <rect style="fill:url(#id1)" x="42.8423" y="27.8455" width="286.04" height="278.234"/>
    </mask>
  <linearGradient id="id2" gradientUnits="userSpaceOnUse" x1="80.4181" y1="166.962" x2="291.306" y2="166.962">
   <stop offset="0" style="stop-color:#B3D5E1"/>
   <stop offset="1" style="stop-color:white"/>
  </linearGradient>
  <linearGradient id="id3" gradientUnits="userSpaceOnUse" x1="208.174" y1="30.6815" x2="265.684" y2="88.9982">
   <stop offset="0" style="stop-color:#94C9E2"/>
   <stop offset="0.490196" style="stop-color:#58A6D8"/>
   <stop offset="0.819608" style="stop-color:#50719E"/>
   <stop offset="1" style="stop-color:#386EAB"/>
  </linearGradient>
  <linearGradient id="id4" gradientUnits="userSpaceOnUse" xlink:href="#id3" x1="64.7846" y1="58.253" x2="244.359" y2="240.309">
  </linearGradient>
  <linearGradient id="id5" gradientUnits="userSpaceOnUse" x1="272.3" y1="87.6321" x2="198.089" y2="36.665">
   <stop offset="0" style="stop-color:#82C7E6"/>
   <stop offset="0.741176" style="stop-color:#6690C2"/>
   <stop offset="1" style="stop-color:#3C599B"/>
  </linearGradient>
  <linearGradient id="id6" gradientUnits="userSpaceOnUse" xlink:href="#id5" x1="260.189" y1="221.661" x2="48.9532" y2="76.8997">
  </linearGradient>
 </defs>
 <g id="Capa_x0020_1">
  <metadata id="CorelCorpID_0Corel-Layer"/>
  <g id="_83631032">
   <path id="_88387656" class="fil0" d="M72.3778 17.8633l107.805 0 95.1187 102.604 0 117.184c0,23.3278 -16.792,43.0472 -37.9855,43.0472l-164.939 0c-21.1976,0 -38.5377,-19.0896 -38.5377,-42.4243l0 -177.987c0,-23.3361 17.3401,-42.4243 38.5377,-42.4243z"/>
   <path id="_83560232" class="fil1" d="M72.3764 15.0203l107.805 0 1.23047 0 0.84569 0.910743 95.1187 102.605 0.766796 0.824929 0 1.1059 0 117.186c0,12.4487 -4.53434,23.9506 -11.9172,32.3162 -7.35792,8.33925 -17.5394,13.5712 -28.9099,13.5712l-164.94 0c-11.4327,0 -21.8094,-5.12951 -29.314,-13.3926 -7.44235,-8.19392 -12.0639,-19.4786 -12.0639,-31.8733l0 -177.988c0,-12.3947 4.62154,-23.6766 12.0639,-31.8705 7.50464,-8.26313 17.8813,-13.3954 29.314,-13.3954zm106.574 5.68453l-106.574 0c-9.76212,0 -18.655,4.41669 -25.1174,11.5296 -6.52469,7.18352 -10.576,17.1145 -10.576,28.0517l0 177.988c0,10.9386 4.05129,20.8696 10.576,28.0531 6.4624,7.11432 15.3553,11.5296 25.1174,11.5296l164.94 0c9.66938,0 18.3602,-4.48866 24.669,-11.639 6.48732,-7.351 10.4735,-17.5173 10.4735,-28.5652l0 -116.08 -93.509 -100.868z"/>
   <path id="_83588648" class="fil2" d="M198.268 17.7429l77.3218 84.1939 -1.1059 -49.2673c0.181318,-18.5028 -15.7013,-34.5086 -33.1369,-34.9266l-43.079 0z"/>
   <path id="_83733896" class="fil3" d="M204.728 20.5858l67.8615 73.8906 -0.937042 -41.753 0 -0.0775101c0.0802783,-8.38631 -3.45889,-16.2342 -8.99947,-22.0751 -5.63332,-5.93783 -13.3041,-9.78565 -21.3042,-9.99465l0 0.00968876 -36.6207 0zm68.775 83.2721l-77.3232 -84.1939 -4.37655 -4.76272 6.46379 0 43.0818 0 0.0664372 0.0110729c9.58357,0.229762 18.7062,4.75441 25.3444,11.7511 6.48455,6.83473 10.6313,16.057 10.5538,25.959l1.10729 49.259 0.167477 7.51433 -5.08521 -5.53782z"/>
   <path id="path4267" class="fil4" style="mask:url(#id0)" d="M43.371 68.3805c0,17.4135 0,164.187 0,164.187 0,0 -0.766796,37.7848 34.4352,39.1703 26.9403,1.04639 57.4045,0 57.4045,0 37.836,0.766796 56.4177,8.8929 123.216,-52.3248 2.92324,-17.9837 28.1832,-69.038 6.26309,-93.5408l-87.2362 -97.4994 -110.235 0.430458c-24.0669,0 -23.8371,22.0253 -23.8371,39.4499l-0.0110729 0.127338z" inkscape:connector-curvature="0" sodipodi:nodetypes="ccsczzcszzc"/>
  </g>
 </g>
</svg>
