<?xml version="1.0" encoding="UTF-8" standalone="no"?>
<!-- Creator: CorelDRAW -->

<svg
   xmlns:dc="http://purl.org/dc/elements/1.1/"
   xmlns:cc="http://creativecommons.org/ns#"
   xmlns:rdf="http://www.w3.org/1999/02/22-rdf-syntax-ns#"
   xmlns:svg="http://www.w3.org/2000/svg"
   xmlns="http://www.w3.org/2000/svg"
   xmlns:xlink="http://www.w3.org/1999/xlink"
   xmlns:sodipodi="http://sodipodi.sourceforge.net/DTD/sodipodi-0.dtd"
   xmlns:inkscape="http://www.inkscape.org/namespaces/inkscape"
   xml:space="preserve"
   width="256"
   height="256"
   style="fill-rule:evenodd"
   viewBox="0 0 256 256"
   id="svg2"
   version="1.1"
   inkscape:version="0.48.3.1 r9886"
   sodipodi:docname="folder-documents.svg"><metadata
   id="metadata69"><rdf:RDF><cc:Work
       rdf:about=""><dc:format>image/svg+xml</dc:format><dc:type
         rdf:resource="http://purl.org/dc/dcmitype/StillImage" /></cc:Work></rdf:RDF></metadata><sodipodi:namedview
   pagecolor="#ffffff"
   bordercolor="#666666"
   borderopacity="1"
   objecttolerance="10"
   gridtolerance="10"
   guidetolerance="10"
   inkscape:pageopacity="0"
   inkscape:pageshadow="2"
   inkscape:window-width="640"
   inkscape:window-height="480"
   id="namedview67"
   showgrid="false"
   inkscape:zoom="0.78666667"
   inkscape:cx="150"
   inkscape:cy="150"
   inkscape:window-x="0"
   inkscape:window-y="16"
   inkscape:window-maximized="0"
   inkscape:current-layer="svg2" />
 <defs
   id="defs4"><style
     type="text/css"
     id="style6">
   
    .fil0 {fill:url(#id4)}
    .fil4 {fill:url(#id5)}
    .fil5 {fill:url(#id6)}
    .fil1 {fill:url(#id7);fill-rule:nonzero}
    .fil3 {fill:url(#id8);fill-rule:nonzero}
    .fil2 {fill:url(#id9)}
   
  </style><mask
     id="id0">
  <linearGradient
   id="id1"
   gradientUnits="userSpaceOnUse"
   x1="76.389"
   y1="136.073"
   x2="174.47"
   y2="222.10899">
   <stop
   offset="0"
   style="stop-opacity:1; stop-color:white"
   id="stop10" />
   <stop
   offset="1"
   style="stop-opacity:0; stop-color:white"
   id="stop12" />
  </linearGradient>
     <rect
   style="fill:url(#id1)"
   x="-0.37509301"
   y="85.8452"
   width="251.60899"
   height="186.492"
   id="rect14" />
    </mask><mask
     id="id2">
  <linearGradient
   id="id3"
   gradientUnits="userSpaceOnUse"
   x1="28.169399"
   y1="54.180901"
   x2="254.68401"
   y2="91.197502">
   <stop
   offset="0"
   style="stop-opacity:1; stop-color:white"
   id="stop18" />
   <stop
   offset="0.670588"
   style="stop-opacity:0.501961; stop-color:white"
   id="stop20" />
   <stop
   offset="1"
   style="stop-opacity:0; stop-color:white"
   id="stop22" />
  </linearGradient>
     <rect
   style="fill:url(#id3)"
   x="1.16819"
   y="37.770901"
   width="280.517"
   height="69.836601"
   id="rect24" />
    </mask><linearGradient
     id="id4"
     gradientUnits="userSpaceOnUse"
     x1="104.695"
     y1="7.6015201"
     x2="196.92101"
     y2="140.411">
   <stop
   offset="0"
   style="stop-color:#94C9E2"
   id="stop27" />
   <stop
   offset="0.490196"
   style="stop-color:#58A6D8"
   id="stop29" />
   <stop
   offset="0.901961"
   style="stop-color:#50719E"
   id="stop31" />
   <stop
   offset="1"
   style="stop-color:#386EAB"
   id="stop33" />
  </linearGradient><linearGradient
     id="id5"
     gradientUnits="userSpaceOnUse"
     x1="47.757301"
     y1="179.091"
     x2="203.101"
     y2="179.091">
   <stop
   offset="0"
   style="stop-color:#B3D5E1"
   id="stop36" />
   <stop
   offset="1"
   style="stop-color:white"
   id="stop38" />
  </linearGradient><linearGradient
     id="id6"
     gradientUnits="userSpaceOnUse"
     xlink:href="#id5"
     x1="54.794102"
     y1="72.689201"
     x2="228.06"
     y2="72.689201">
  </linearGradient><linearGradient
     id="id7"
     gradientUnits="userSpaceOnUse"
     x1="267.284"
     y1="96.465401"
     x2="34.3563"
     y2="50.777401">
   <stop
   offset="0"
   style="stop-color:#82C7E6"
   id="stop42" />
   <stop
   offset="0.741176"
   style="stop-color:#6690C2"
   id="stop44" />
   <stop
   offset="1"
   style="stop-color:#3C599B"
   id="stop46" />
  </linearGradient><linearGradient
     id="id8"
     gradientUnits="userSpaceOnUse"
     xlink:href="#id7"
     x1="271.022"
     y1="217.636"
     x2="35.931499"
     y2="122.96">
  </linearGradient><linearGradient
     id="id9"
     gradientUnits="userSpaceOnUse"
     x1="77.762001"
     y1="75.677498"
     x2="229.189"
     y2="264.96301">
   <stop
   offset="0"
   style="stop-color:#94C9E2"
   id="stop50" />
   <stop
   offset="0.490196"
   style="stop-color:#58A6D8"
   id="stop52" />
   <stop
   offset="0.941176"
   style="stop-color:#50719E"
   id="stop54" />
   <stop
   offset="1"
   style="stop-color:#386EAB"
   id="stop56" />
  </linearGradient><linearGradient
     inkscape:collect="always"
     xlink:href="#id7"
     id="linearGradient3046"
     gradientUnits="userSpaceOnUse"
     x1="267.284"
     y1="96.465401"
     x2="34.3563"
     y2="50.777401" /><linearGradient
     inkscape:collect="always"
     xlink:href="#id5"
     id="linearGradient3048"
     gradientUnits="userSpaceOnUse"
     x1="47.757301"
     y1="179.091"
     x2="203.101"
     y2="179.091" /></defs>
 <g
   id="Capa_x0020_1"
   transform="matrix(0.84943196,0,0,0.84943196,0.86291556,-2.4217691)">
  <metadata
   id="CorelCorpID_0Corel-Layer" />
  <g
   id="_143292600">
   <path
   id="path3769"
   class="fil0"
   d="m 174.259,70.9577 c 14.594,-0.300352 27.5396,8.8666 29.3902,31.393 17.1906,0 35.1411,0.19516 59.608,0.19516 24.4683,0 22.0226,13.0964 22.0226,13.0964 0,0 -0.3308,-59.112501 -0.33911,-65.464201 -0.007,-6.35998 -2.40835,-17.8066 -19.0938,-17.6571 -16.6854,0.196543 -47.4611,0.422153 -57.7187,0.437378 -10.259,0.02215 -12.9303,11.8383 -12.9303,11.8383 0,0 -143.607997,0.595167 -162.453997,0.595167 -18.846,0 -16.6411,12.2369 -16.2868,39.3848 0.03045,2.51354 3.7108,-12.7117 13.9006,-12.9151 10.1912,-0.195159 95.960197,-0.218689 143.894997,-0.919048 l 0.007,0.01522 z"
   inkscape:connector-curvature="0"
   sodipodi:nodetypes="cczcczzczszcc"
   style="fill:url(#id4)" />
   <path
   id="_120484112"
   class="fil1"
   d="m 174.917,69.8726 c 7.79807,-0.0083 15.1117,2.63119 20.5872,8.48043 4.77379,5.09767 8.12333,12.6161 9.13512,22.9139 6.78628,0.003 14.8335,0.0443 23.5506,0.0886 9.97389,0.0512 20.9097,0.10658 35.0678,0.10658 12.3933,0 18.2052,3.31356 20.9014,6.75583 -0.0886,-16.083301 -0.29205,-53.086101 -0.29758,-58.035701 l 0,-0.195159 c -0.0277,-3.00905 -0.62562,-7.13785 -3.1184,-10.4819 -2.48171,-3.3274 -6.89701,-5.91291 -14.6107,-5.90599 l -0.27267,0.0014 c -8.11503,0.0955 -19.5851,0.197928 -30.4089,0.27959 -11.3898,0.08581 -22.0572,0.149484 -27.3223,0.157788 -9.39256,0.01938 -11.8687,10.9691 -11.8757,11.0009 l -0.19239,0.833233 -0.85815,0.0042 c -0.41523,0.0014 -144.534,0.599319 -162.458,0.599319 -13.5767,0 -15.4619,6.93023 -15.4619,21.9575 0,2.95369 0.05952,5.87969 0.12457,9.06176 l 0.06644,3.3703 c 2.14952,-4.06374 6.1662,-9.95036 12.8639,-10.0832 l 0.0042,0 c 3.60699,-0.0692 16.72,-0.117649 34.2788,-0.179934 31.9605,-0.116265 78.6686,-0.28651 109.62,-0.73773 l 0.66852,-0.01107 0.008,0.01938 z m 19.0135,9.95312 c -5.18072,-5.53367 -12.1857,-7.94202 -19.6488,-7.78838 l -0.67406,0.01384 -0.0111,-0.01938 c -30.9431,0.445683 -77.230504,0.61316 -108.976004,0.728041 -17.527,0.06367 -30.6206,0.112113 -34.2401,0.181318 -6.89424,0.137027 -10.6673,8.13302 -12.1456,11.2666 -0.557796,1.18064 -0.907975,1.91699 -1.68861,1.92806 -0.772333,0.01384 -1.15711,-0.41108 -1.16819,-1.34674 -0.03322,-2.526 -0.08305,-4.95511 -0.130106,-7.25134 -0.06921,-3.40214 -0.132874,-6.52884 -0.132874,-9.10467 0,-16.5096 2.14952,-24.125 17.6294,-24.125 18.9277,0 150.154004,-0.539802 161.631004,-0.586862 0.86368,-2.81943 4.35856,-11.8217 13.7539,-11.8424 5.25823,-0.0069 15.9228,-0.07059 27.314,-0.157788 10.796,-0.08028 22.2565,-0.184086 30.3923,-0.278206 l 0.008,0 0.28236,-0.0014 0.004,0 c 8.54133,-0.0097 13.5047,2.95369 16.3491,6.76829 2.83189,3.79938 3.51148,8.41123 3.54055,11.7608 l 0,0.0042 10e-4,0.199312 0,0.0042 c 0.007,5.64993 0.26713,52.456305 0.32665,63.241305 0.17855,1.4201 10e-4,2.38067 -0.001,2.39174 l -2.14537,-0.16471 -0.0125,-2.11907 c -0.49827,-3.35923 -3.68034,-9.89776 -20.9305,-9.89776 -12.4625,0 -24.2925,-0.0609 -35.0761,-0.11488 -8.25621,-0.0415 -15.8425,-0.0803 -24.5319,-0.0803 l -0.99655,0 -0.0817,-0.99933 c -0.84707,-10.289499 -4.03883,-17.694399 -8.64099,-22.609399 z"
   inkscape:connector-curvature="0"
   style="fill:url(#linearGradient3046);fill-rule:nonzero" />
   <path
   id="path3781"
   class="fil2"
   d="m 165.011,82.677 c 16.0833,0 31.0746,5.36619 31.1051,31.4594 32.7106,0 25.379,0 60.2184,0 19.5229,0 35.2602,15.6778 35.2823,35.1993 l 0.0831,73.3148 c 0.0235,19.5215 -15.6778,35.2602 -35.2006,35.2823 l -205.828003,0.24084 c -19.5229,0 -35.2602,-15.6764 -35.2823,-35.2006 l -0.135643,-112.781 c -0.02353,-19.521505 4.19246,-27.116105 25.4842,-27.296005 21.2904,-0.196543 87.310996,-0.739114 124.279996,-0.218689 l -0.007,0 z"
   sodipodi:nodetypes="cccsssssszcc"
   inkscape:connector-curvature="0"
   style="fill:url(#id9)" />
   <path
   id="_120962456"
   class="fil3"
   d="m 165.011,81.5932 0.007,0 c 8.25344,0 16.2481,1.39657 22.2385,6.18143 5.84509,4.6686 9.70952,12.4957 9.9296,25.278 l 59.1485,0 c 10.0597,0 19.1464,4.04298 25.7209,10.6023 6.57036,6.55375 10.63,15.6238 10.641,25.6821 l 0.0831,73.3135 c 0.0111,10.0583 -4.02776,19.145 -10.5843,25.7167 -6.55791,6.57175 -15.6349,10.6341 -25.696,10.6452 l -205.828003,0.24083 0,0.004 c -10.0597,0 -19.1478,-4.04298 -25.7223,-10.6023 -6.56898,-6.55375 -10.6286,-15.6238 -10.6396,-25.6808 l -0.135643,-112.781 c -0.01107,-10.014 1.09483,-17.003803 5.00632,-21.600403 3.9364,-4.62431 10.5621,-6.68386 21.5478,-6.7766 10.6438,-0.09827 32.4726,-0.282358 56.2668,-0.377862 23.785896,-0.0955 49.531696,-0.10104 68.016496,0.159172 l 0,-0.0042 z m 20.8987,7.87558 c -5.5309,-4.41946 -13.0715,-5.70806 -20.8987,-5.70806 l 0,-0.413848 -0.006,0.409696 c -18.4806,-0.260212 -44.2223,-0.254676 -68.002596,-0.159172 -23.7804,0.09412 -45.6105,0.27959 -56.2571,0.376478 -10.3061,0.0872 -16.4335,1.91561 -19.9229,6.01534 -3.5101,4.12326 -4.50112,10.693596 -4.49005,20.203796 l 0.134259,112.781 c 0.01107,9.45761 3.82844,17.9851 10.0071,24.1485 6.18143,6.1662 14.7297,9.96697 24.197,9.96697 l 0,0.004 205.827997,-0.24084 c 9.46038,-0.01 17.9962,-3.82983 24.1638,-10.0113 6.16759,-6.18281 9.96835,-14.7297 9.95728,-24.1914 l -0.083,-73.3135 c -0.01,-9.45761 -3.82706,-17.9865 -10.0057,-24.1499 -6.18004,-6.1662 -14.7297,-9.96697 -24.197,-9.96697 l -60.2184,0 -1.07822,0 -0.001,-1.08376 c -0.0138,-12.666 -3.60976,-20.260599 -9.12681,-24.667599 z"
   inkscape:connector-curvature="0"
   style="fill:url(#id8);fill-rule:nonzero" />
   <path
   id="path4267"
   class="fil4"
   style="fill:url(#linearGradient3048)"
   d="m 20.1817,113.343 c 0,11.6141 0,109.504 0,109.504 0,0 -0.5661,25.2005 25.4344,26.1237 19.8993,0.69897 40.8603,-0.69897 40.8603,-0.69897 21.7969,-0.88445 47.0625,-3.85059 96.4018,-44.679 49.3379,-40.8271 79.7053,-77.6651 63.3922,-82.8832 l -59.3492,0 c 0,0 6.64787,-34.337005 -15.8522,-34.337005 -24.7617,0 -115.502,0.573021 -133.272,0.573021 -17.7761,0 -17.6072,14.688204 -17.6072,26.311904 l -0.0083,0.0858 z"
   inkscape:connector-curvature="0"
   sodipodi:nodetypes="ccsczzcszzc"
   mask="url(#id0)" />
   <path
   id="path4267-7"
   class="fil5"
   style="fill:url(#id6)"
   d="m 28.9735,49.4182 c -5.98489,4.95926 -5.87139,11.3123 -3.14746,18.6799 25.7403,-1.93498 160.098,-0.217305 160.098,-0.217305 0,0 21.0357,9.35381 20.518,29.9161 9.1365,0.48167 24.9873,1.5502 33.22,0.301736 8.24098,-1.25815 23.0011,-4.41115 29.548,-11.7635 6.5413,-7.36069 13.7068,-15.1062 11.5601,-30.7314 0,0 0.43046,-16.9789 -9.9033,-17.1062 -11.3732,-0.195159 -54.6488,-0.195159 -62.8081,-0.195159 -8.15794,-0.196543 -8.05966,4.6423 -8.12057,10.5663 l -170.965,0.549491 z"
   inkscape:connector-curvature="0"
   sodipodi:nodetypes="cccczzcszzc"
   mask="url(#id2)" />
  </g>
 </g>
</svg>