<?xml version="1.0" encoding="UTF-8" standalone="no"?>
<!-- Creator: CorelDRAW -->

<svg
   xmlns:dc="http://purl.org/dc/elements/1.1/"
   xmlns:cc="http://creativecommons.org/ns#"
   xmlns:rdf="http://www.w3.org/1999/02/22-rdf-syntax-ns#"
   xmlns:svg="http://www.w3.org/2000/svg"
   xmlns="http://www.w3.org/2000/svg"
   xmlns:xlink="http://www.w3.org/1999/xlink"
   xmlns:sodipodi="http://sodipodi.sourceforge.net/DTD/sodipodi-0.dtd"
   xmlns:inkscape="http://www.inkscape.org/namespaces/inkscape"
   xml:space="preserve"
   width="300px"
   height="300px"
   style="shape-rendering:geometricPrecision; text-rendering:geometricPrecision; image-rendering:optimizeQuality; fill-rule:evenodd; clip-rule:evenodd"
   viewBox="0 0 300 300"
   id="svg2"
   version="1.1"
   inkscape:version="0.48.3.1 r9886"
   sodipodi:docname="folder-pictures.svg"><metadata
   id="metadata80"><rdf:RDF><cc:Work
       rdf:about=""><dc:format>image/svg+xml</dc:format><dc:type
         rdf:resource="http://purl.org/dc/dcmitype/StillImage" /></cc:Work></rdf:RDF></metadata><sodipodi:namedview
   pagecolor="#b56a6a"
   bordercolor="#666666"
   borderopacity="1"
   objecttolerance="10"
   gridtolerance="10"
   guidetolerance="10"
   inkscape:pageopacity="0"
   inkscape:pageshadow="2"
   inkscape:window-width="640"
   inkscape:window-height="480"
   id="namedview78"
   showgrid="false"
   inkscape:zoom="0.78666667"
   inkscape:cx="150"
   inkscape:cy="150"
   inkscape:window-x="0"
   inkscape:window-y="16"
   inkscape:window-maximized="0"
   inkscape:current-layer="svg2" />
 <defs
   id="defs4">
  <style
   type="text/css"
   id="style6">
   
    .fil8 {fill:white}
    .fil7 {fill:url(#id6)}
    .fil2 {fill:url(#id7)}
    .fil0 {fill:url(#id8)}
    .fil4 {fill:url(#id9)}
    .fil6 {fill:url(#id10)}
    .fil9 {fill:url(#id11)}
    .fil3 {fill:url(#id12);fill-rule:nonzero}
    .fil1 {fill:url(#id13);fill-rule:nonzero}
    .fil5 {fill:url(#id14);fill-rule:nonzero}
   
  </style>
     <mask
   id="id0">
  <linearGradient
   id="id1"
   gradientUnits="userSpaceOnUse"
   x1="104.456"
   y1="180.932"
   x2="157.614"
   y2="168.436">
   <stop
   offset="0"
   style="stop-opacity:1; stop-color:white"
   id="stop10" />
   <stop
   offset="1"
   style="stop-opacity:0; stop-color:white"
   id="stop12" />
  </linearGradient>
      <rect
   style="fill:url(#id1)"
   x="91.6128"
   y="129.406"
   width="78.8444"
   height="90.5567"
   id="rect14" />
     </mask>
    <mask
   id="id2">
  <linearGradient
   id="id3"
   gradientUnits="userSpaceOnUse"
   x1="62.5202"
   y1="43.7655"
   x2="97.3637"
   y2="49.9442">
   <stop
   offset="0"
   style="stop-opacity:1; stop-color:white"
   id="stop18" />
   <stop
   offset="0.439216"
   style="stop-opacity:0.501961; stop-color:white"
   id="stop20" />
   <stop
   offset="1"
   style="stop-opacity:0; stop-color:white"
   id="stop22" />
  </linearGradient>
     <rect
   style="fill:url(#id3)"
   x="48.2127"
   y="28.9376"
   width="63.4586"
   height="35.8346"
   id="rect24" />
    </mask>
    <mask
   id="id4">
  <linearGradient
   id="id5"
   gradientUnits="userSpaceOnUse"
   x1="13.8895"
   y1="143.377"
   x2="155.232"
   y2="125.445">
   <stop
   offset="0"
   style="stop-opacity:1; stop-color:white"
   id="stop28" />
   <stop
   offset="0.439216"
   style="stop-opacity:0.501961; stop-color:white"
   id="stop30" />
   <stop
   offset="1"
   style="stop-opacity:0; stop-color:white"
   id="stop32" />
  </linearGradient>
     <rect
   style="fill:url(#id5)"
   x="-79.2817"
   y="-1.45885"
   width="327.685"
   height="271.739"
   id="rect34" />
    </mask>
  <linearGradient
   id="id6"
   gradientUnits="userSpaceOnUse"
   x1="53.2384"
   y1="46.8548"
   x2="106.646"
   y2="46.8548">
   <stop
   offset="0"
   style="stop-color:#B3D5E1"
   id="stop37" />
   <stop
   offset="1"
   style="stop-color:white"
   id="stop39" />
  </linearGradient>
  <linearGradient
   id="id7"
   gradientUnits="userSpaceOnUse"
   x1="56.808"
   y1="33.1397"
   x2="122.47"
   y2="53.3034">
   <stop
   offset="0"
   style="stop-color:#94C9E2"
   id="stop42" />
   <stop
   offset="0.490196"
   style="stop-color:#58A6D8"
   id="stop44" />
   <stop
   offset="0.819608"
   style="stop-color:#50719E"
   id="stop46" />
   <stop
   offset="1"
   style="stop-color:#386EAB"
   id="stop48" />
  </linearGradient>
  <linearGradient
   id="id8"
   gradientUnits="userSpaceOnUse"
   xlink:href="#id7"
   x1="38.8602"
   y1="101.264"
   x2="261.415"
   y2="236.166">
  </linearGradient>
  <linearGradient
   id="id9"
   gradientUnits="userSpaceOnUse"
   xlink:href="#id7"
   x1="103.742"
   y1="146.887"
   x2="176.084"
   y2="207.169">
  </linearGradient>
  <linearGradient
   id="id10"
   gradientUnits="userSpaceOnUse"
   xlink:href="#id6"
   x1="98.6371"
   y1="166.324"
   x2="163.433"
   y2="183.044">
  </linearGradient>
  <linearGradient
   id="id11"
   gradientUnits="userSpaceOnUse"
   xlink:href="#id6"
   x1="0.0830465"
   y1="134.411"
   x2="169.038"
   y2="134.411">
  </linearGradient>
  <linearGradient
   id="id12"
   gradientUnits="userSpaceOnUse"
   x1="126.553"
   y1="52.2667"
   x2="52.7248"
   y2="34.1819">
   <stop
   offset="0"
   style="stop-color:#82C7E6"
   id="stop55" />
   <stop
   offset="0.741176"
   style="stop-color:#6690C2"
   id="stop57" />
   <stop
   offset="1"
   style="stop-color:#3C599B"
   id="stop59" />
  </linearGradient>
  <linearGradient
   id="id13"
   gradientUnits="userSpaceOnUse"
   xlink:href="#id12"
   x1="273.651"
   y1="226.071"
   x2="26.6261"
   y2="111.36">
  </linearGradient>
  <linearGradient
   id="id14"
   gradientUnits="userSpaceOnUse"
   xlink:href="#id12"
   x1="180.983"
   y1="203.168"
   x2="98.8392"
   y2="150.894">
  </linearGradient>
 <linearGradient
   inkscape:collect="always"
   xlink:href="#id7"
   id="linearGradient3057"
   gradientUnits="userSpaceOnUse"
   x1="56.808"
   y1="33.1397"
   x2="122.47"
   y2="53.3034" /><linearGradient
   inkscape:collect="always"
   xlink:href="#id12"
   id="linearGradient3059"
   gradientUnits="userSpaceOnUse"
   x1="126.553"
   y1="52.2667"
   x2="52.7248"
   y2="34.1819" /><linearGradient
   inkscape:collect="always"
   xlink:href="#id6"
   id="linearGradient3061"
   gradientUnits="userSpaceOnUse"
   x1="53.2384"
   y1="46.8548"
   x2="106.646"
   y2="46.8548" />
  
  
 <linearGradient
   inkscape:collect="always"
   xlink:href="#id7"
   id="linearGradient3075"
   gradientUnits="userSpaceOnUse"
   x1="38.8602"
   y1="101.264"
   x2="261.415"
   y2="236.166" /><linearGradient
   inkscape:collect="always"
   xlink:href="#id12"
   id="linearGradient3077"
   gradientUnits="userSpaceOnUse"
   x1="273.651"
   y1="226.071"
   x2="26.6261"
   y2="111.36" /><linearGradient
   inkscape:collect="always"
   xlink:href="#id7"
   id="linearGradient3079"
   gradientUnits="userSpaceOnUse"
   x1="56.808"
   y1="33.1397"
   x2="122.47"
   y2="53.3034" /><linearGradient
   inkscape:collect="always"
   xlink:href="#id12"
   id="linearGradient3081"
   gradientUnits="userSpaceOnUse"
   x1="126.553"
   y1="52.2667"
   x2="52.7248"
   y2="34.1819" /><linearGradient
   inkscape:collect="always"
   xlink:href="#id7"
   id="linearGradient3083"
   gradientUnits="userSpaceOnUse"
   x1="103.742"
   y1="146.887"
   x2="176.084"
   y2="207.169" /><linearGradient
   inkscape:collect="always"
   xlink:href="#id12"
   id="linearGradient3085"
   gradientUnits="userSpaceOnUse"
   x1="180.983"
   y1="203.168"
   x2="98.8392"
   y2="150.894" /><linearGradient
   inkscape:collect="always"
   xlink:href="#id6"
   id="linearGradient3087"
   gradientUnits="userSpaceOnUse"
   x1="98.6371"
   y1="166.324"
   x2="163.433"
   y2="183.044" /><linearGradient
   inkscape:collect="always"
   xlink:href="#id6"
   id="linearGradient3089"
   gradientUnits="userSpaceOnUse"
   x1="53.2384"
   y1="46.8548"
   x2="106.646"
   y2="46.8548" /><linearGradient
   inkscape:collect="always"
   xlink:href="#id6"
   id="linearGradient3091"
   gradientUnits="userSpaceOnUse"
   x1="0.0830465"
   y1="134.411"
   x2="169.038"
   y2="134.411" />
   
   
   
   
   
   
   
   
  <linearGradient
   inkscape:collect="always"
   xlink:href="#id12"
   id="linearGradient3101"
   gradientUnits="userSpaceOnUse"
   x1="126.553"
   y1="52.2667"
   x2="52.7248"
   y2="34.1819" /><linearGradient
   inkscape:collect="always"
   xlink:href="#id7"
   id="linearGradient3104"
   gradientUnits="userSpaceOnUse"
   x1="56.808"
   y1="33.1397"
   x2="122.47"
   y2="53.3034" /><linearGradient
   inkscape:collect="always"
   xlink:href="#id12"
   id="linearGradient3107"
   gradientUnits="userSpaceOnUse"
   x1="273.651"
   y1="226.071"
   x2="26.6261"
   y2="111.36" /><linearGradient
   inkscape:collect="always"
   xlink:href="#id7"
   id="linearGradient3110"
   gradientUnits="userSpaceOnUse"
   x1="38.8602"
   y1="101.264"
   x2="261.415"
   y2="236.166" /></defs>
 <path
   id="_52841328"
   class="fil0"
   d="m 229.206,99.8261 27.0247,0 c 7.44789,0 7.21259,6.0098 7.21259,13.4522 l 0,6.74338 c 0,7.4465 0.22976,13.4508 -7.21259,13.4508 l -27.0247,0 c -7.46173,0 -7.58907,-6.00426 -7.58907,-13.4508 l 0,-6.74338 c 0,-7.44789 0.12734,-13.4466 7.58907,-13.4522 z m -17.228,172.846 c 0,0 46.1393,0.50935 60.9063,0.50935 11.6514,0 19.563,-16.2231 19.563,-27.9009 l 0,-117.919 c 0,-38.367498 -9.63893,-63.108398 -43.1385,-63.108398 l -193.698,-0.0055 c -36.899,0 -47.7822,12.05 -47.7822,61.711908 l 0,125.345 c 0,16.6633 22.9278,21.4952 22.9278,21.4952 l 35.2477,-0.12734 0.106576,-88.3449 c -0.106576,-39.1924 27.0053,-75.5253 67.339704,-78.598 2.44572,-0.19378 4.97864,-0.19378 7.41052,-0.13841 36.5571,0.87198 67.4102,28.9376 71.0449,66.0607 l 0.14256,1.54328 -0.0706,99.4773 z"
   style="fill:url(#linearGradient3110)"
   inkscape:connector-curvature="0" /><path
   id="_143790912"
   class="fil1"
   d="m 229.206,98.6828 27.0247,0 c 8.36555,0 8.36002,6.16205 8.3531,13.9324 l 0,0.66299 0.004,0 0,6.74338 -0.004,0 0,0.64776 c 0.007,7.78284 0.0125,13.9477 -8.3531,13.9477 l -27.0247,0 c -4.30319,0 -6.51085,-1.77858 -7.65135,-4.65753 -1.04777,-2.63811 -1.08237,-6.1053 -1.08237,-9.9379 l 0,-6.74338 c 0,-3.8326 0.0346,-7.2984 1.08237,-9.93652 1.14051,-2.87618 3.34677,-4.651989 7.65135,-4.654759 l 0,-0.0042 z m 27.0247,2.28793 -27.0247,0 0,-0.006 c -3.15715,0.003 -4.74611,1.22909 -5.53367,3.21667 -0.88306,2.22288 -0.91213,5.48245 -0.91213,9.09636 l 0,6.74338 c 0,3.61391 0.0291,6.87348 0.91213,9.09775 0.78617,1.98481 2.37513,3.20975 5.53367,3.20975 l 27.0247,0 c 6.08454,0 6.08039,-5.15442 6.07485,-11.6597 l -10e-4,-0.64776 -0.004,0 0,-6.74338 0.004,0 10e-4,-0.66299 c 0.006,-6.49424 0.0111,-11.6445 -6.07485,-11.6445 z m -43.1122,170.575 c 7.11017,0.0775 45.8597,0.49274 59.7658,0.49274 4.90943,0 9.14204,-3.18899 12.3061,-7.6998 3.86028,-5.50737 6.11222,-12.9303 6.11222,-19.0578 l 0,-117.919 c 0,-18.99 -2.36544,-34.576397 -8.84169,-45.357197 -6.38074,-10.623 -16.8543,-16.6079 -33.1522,-16.6079 l 0,-0.0042 -193.698,-0.0055 0,0.0055 c -18.0875,0 -29.7611,2.90524 -36.8339,11.7981 -7.1503,8.99117 -9.80364,24.205297 -9.80364,48.769097 l 0,125.346 c 0,15.1352 20.3132,19.9948 21.916,20.3547 l 33.9757,-0.12319 0.106576,-87.2099 c -0.05536,-20.4184 7.18076,-40.0755 19.7817,-54.7844 11.9379,-13.9338 28.685704,-23.4343 48.607104,-24.9527 l 0,0 c 1.2111,-0.0955 2.48724,-0.14533 3.78692,-0.16332 1.26092,-0.0166 2.51354,-0.003 3.73571,0.0249 l 0.006,0 c 18.6509,0.44569 35.8415,7.85758 48.7967,19.9049 12.8348,11.9338 21.5187,28.4213 23.3554,47.187 l 0,0.004 0.14257,1.54467 0.006,0.0498 -0.001,0.0526 -0.0692,98.3506 z m 59.7658,2.78067 c -14.2189,0 -60.7831,-0.51212 -60.916,-0.5135 l -1.13082,-0.0125 0.001,-1.12666 0.0706,-99.4247 -0.13841,-1.49068 0,0 c -1.77858,-18.183 -10.1967,-34.1612 -22.6412,-45.7309 -12.5594,-11.6791 -29.2213,-18.8654 -47.295,-19.2972 -1.20694,-0.0277 -2.43603,-0.0415 -3.65958,-0.0249 -1.18618,0.0166 -2.40143,0.0651 -3.63605,0.16333 l -0.004,0 c -19.2779,1.46854 -35.4885,10.6659 -47.0472,24.1582 -12.2549,14.3034 -19.2917,33.429 -19.2377,53.3006 l -0.106576,88.3463 -0.0014,1.13497 -1.13774,0.004 -35.2477,0.12596 -0.130106,0.001 -0.106576,-0.0235 c -0.06921,-0.0152 -23.8342998,-5.02155 -23.8342998,-22.6108 l 0,-125.346 c 0,-25.098 2.78898,-40.739899 10.3032998,-50.189199 7.59322,-9.5462 19.8107,-12.666 38.6222,-12.666 l 0,0.0042 193.697998,0.0055 0,-0.0055 c 17.2017,0 28.2981,6.38766 35.1107,17.7263 6.71708,11.1822 9.1711,27.152099 9.1711,46.526799 l 0,117.919 c 0,6.54545 -2.40696,14.4778 -6.53299,20.3616 -3.56685,5.08798 -8.42645,8.6839 -14.1733,8.6839 z"
   style="fill:url(#linearGradient3107);fill-rule:nonzero"
   inkscape:connector-curvature="0" /><path
   id="_141855936"
   class="fil2"
   d="m 60.6613,27.4455 57.9554,0 c 7.4465,0 13.4522,6.00565 13.4522,13.4522 l 0,18.1055 -84.8583,0 0,-18.1055 c 0,-7.4465 6.00426,-13.4522 13.4508,-13.4522 z"
   style="fill:url(#linearGradient3104)"
   inkscape:connector-curvature="0" /><path
   id="_141276024"
   class="fil3"
   d="m 60.6613,26.3022 57.9554,0 c 4.03883,0 7.68872,1.6291 10.3268,4.26721 2.6395,2.6395 4.26859,6.28939 4.26859,10.3282 l 0,18.1055 0,1.14327 -1.14327,0 -84.8597,0 -1.14327,0 0,-1.14327 0,-18.1055 c 0,-4.03883 1.6291,-7.68872 4.26859,-10.3282 2.63811,-2.63811 6.28801,-4.26721 10.3268,-4.26721 z m 57.9554,2.28793 -57.9554,0 c -3.40768,0 -6.48455,1.37304 -8.70881,3.5973 -2.22565,2.22565 -3.59868,5.30252 -3.59868,8.7102 l 0,16.9609 82.5704,0 0,-16.9609 c 0,-3.40768 -1.37304,-6.48455 -3.59868,-8.7102 -2.22426,-2.22426 -5.30114,-3.5973 -8.70881,-3.5973 z"
   style="fill:url(#linearGradient3101);fill-rule:nonzero"
   inkscape:connector-curvature="0" /><g
   id="g70">
    <path
   id="_141641064"
   class="fil4"
   d="m 186.15,177.019 c 0,25.7735 -20.7104,46.6721 -46.2458,46.6721 -25.523,0 -46.2334,-20.8945 -46.2334,-46.6721 0,-25.7693 20.7104,-46.6486 46.2334,-46.6486 25.5354,0 46.2458,20.8793 46.2458,46.6486 z"
   style="fill:url(#linearGradient3083)"
   inkscape:connector-curvature="0" />
    <path
   id="_146159072"
   class="fil5"
   d="m 187.401,177.019 c 0,13.2265 -5.31913,25.206 -13.9144,33.8802 -8.59531,8.67559 -20.471,14.0432 -33.5826,14.0432 -13.1075,0 -24.979,-5.36757 -33.5743,-14.0445 -8.59255,-8.67282 -13.9089,-20.6523 -13.9089,-33.8788 0,-13.221 5.31636,-25.1935 13.9075,-33.8636 8.59531,-8.67144 20.4682,-14.0362 33.5757,-14.0362 13.1117,0 24.9887,5.36342 33.5854,14.0349 8.59393,8.67006 13.9117,20.6426 13.9117,33.865 z m -15.682,32.1224 c 8.14271,-8.21745 13.1795,-19.5754 13.1795,-32.1224 0,-12.5428 -5.03677,-23.8953 -13.1781,-32.1058 -8.13994,-8.2133 -19.3914,-13.293 -31.8165,-13.293 -12.4196,0 -23.6683,5.08106 -31.8068,13.2944 -8.13994,8.21192 -13.1753,19.5616 -13.1753,32.1044 0,12.5483 5.03677,23.9049 13.1753,32.121 8.13994,8.21745 19.3872,13.3013 31.8068,13.3013 12.4238,0 23.6738,-5.08383 31.8151,-13.2999 z"
   style="fill:url(#linearGradient3085);fill-rule:nonzero"
   inkscape:connector-curvature="0" />
    <path
   id="_141826928"
   class="fil6"
   style="fill:url(#linearGradient3087)"
   d="m 96.5457,176.146 c 3.19729,-40.1807 43.1607,-54.6723 69.1044,-30.5556 11.8909,11.0549 -9.58495,53.129 -26.2898,69.6525 -9.57249,9.46869 -27.9756,-2.94261 -36.8962,-15.7816 -6.50946,-9.3718 -5.0257,-18.0073 -5.91845,-23.3153 z"
   mask="url(#id0)"
   inkscape:connector-curvature="0" />
   </g><path
   id="_141728776"
   class="fil7"
   style="fill:url(#linearGradient3089)"
   d="m 49.5968,56.5007 0.651915,-16.4335 c 0.117649,-2.99521 2.73361,-9.72336 13.2515,-9.73028 l 27.0801,-0.01523 c 3.87135,7.73163 -5.48661,5.93644 -9.02716,6.69355 -8.76002,1.87962 -11.6182,5.83402 -11.8023,9.9379 l -0.416617,9.37595 -19.7374,0.171629 z"
   mask="url(#id2)"
   inkscape:connector-curvature="0" /><path
   id="_141467616"
   class="fil9"
   style="fill:url(#linearGradient3091)"
   d="M 12.5096,254.428 12.89715,110.409 C 12.740746,80.2174 24.00875,71.4048 45.63275,69.1972 l 201.386,-0.09273 c -26.1403,33.44839 -43.6576,52.13379 -57.871,47.48599 -6.52054,-2.13429 -30.2691,-16.5761 -52.8757,-15.29989 -51.3227,2.89556 -73.6719,45.89979 -74.0235,70.4221 l -1.39933,97.1838 -23.48,-0.0692 c -16.2134,0.54119 -20.8405,-11.2805 -24.86,-14.39889 z"
   mask="url(#id4)"
   inkscape:connector-curvature="0" />
</svg>