<?xml version="1.0" encoding="UTF-8"?>
<!DOCTYPE svg PUBLIC "-//W3C//DTD SVG 1.1//EN" "http://www.w3.org/Graphics/SVG/1.1/DTD/svg11.dtd">
<!-- Creator: CorelDRAW -->
<svg xmlns="http://www.w3.org/2000/svg" xml:space="preserve" width="300px" height="300px" style="shape-rendering:geometricPrecision; text-rendering:geometricPrecision; image-rendering:optimizeQuality; fill-rule:evenodd; clip-rule:evenodd"
viewBox="0 0 300 300"
 xmlns:xlink="http://www.w3.org/1999/xlink">
 <defs>
  <style type="text/css">
   <![CDATA[
    .fil0 {fill:url(#id4)}
    .fil4 {fill:url(#id5)}
    .fil5 {fill:url(#id6)}
    .fil1 {fill:url(#id7);fill-rule:nonzero}
    .fil3 {fill:url(#id8);fill-rule:nonzero}
    .fil2 {fill:url(#id9)}
   ]]>
  </style>
    <mask id="id0">
  <linearGradient id="id1" gradientUnits="userSpaceOnUse" x1="76.389" y1="136.073" x2="174.47" y2="222.109">
   <stop offset="0" style="stop-opacity:1; stop-color:white"/>
   <stop offset="1" style="stop-opacity:0; stop-color:white"/>
  </linearGradient>
     <rect style="fill:url(#id1)" x="-0.375093" y="85.8452" width="251.609" height="186.492"/>
    </mask>
    <mask id="id2">
  <linearGradient id="id3" gradientUnits="userSpaceOnUse" x1="28.1694" y1="54.1809" x2="254.684" y2="91.1975">
   <stop offset="0" style="stop-opacity:1; stop-color:white"/>
   <stop offset="0.670588" style="stop-opacity:0.501961; stop-color:white"/>
   <stop offset="1" style="stop-opacity:0; stop-color:white"/>
  </linearGradient>
     <rect style="fill:url(#id3)" x="1.16819" y="37.7709" width="280.517" height="69.8366"/>
    </mask>
  <linearGradient id="id4" gradientUnits="userSpaceOnUse" x1="104.695" y1="7.60152" x2="196.921" y2="140.411">
   <stop offset="0" style="stop-color:#94C9E2"/>
   <stop offset="0.490196" style="stop-color:#58A6D8"/>
   <stop offset="0.901961" style="stop-color:#50719E"/>
   <stop offset="1" style="stop-color:#386EAB"/>
  </linearGradient>
  <linearGradient id="id5" gradientUnits="userSpaceOnUse" x1="47.7573" y1="179.091" x2="203.101" y2="179.091">
   <stop offset="0" style="stop-color:#B3D5E1"/>
   <stop offset="1" style="stop-color:white"/>
  </linearGradient>
  <linearGradient id="id6" gradientUnits="userSpaceOnUse" xlink:href="#id5" x1="54.7941" y1="72.6892" x2="228.06" y2="72.6892">
  </linearGradient>
  <linearGradient id="id7" gradientUnits="userSpaceOnUse" x1="267.284" y1="96.4654" x2="34.3563" y2="50.7774">
   <stop offset="0" style="stop-color:#82C7E6"/>
   <stop offset="0.741176" style="stop-color:#6690C2"/>
   <stop offset="1" style="stop-color:#3C599B"/>
  </linearGradient>
  <linearGradient id="id8" gradientUnits="userSpaceOnUse" xlink:href="#id7" x1="271.022" y1="217.636" x2="35.9315" y2="122.96">
  </linearGradient>
  <linearGradient id="id9" gradientUnits="userSpaceOnUse" x1="77.762" y1="75.6775" x2="229.189" y2="264.963">
   <stop offset="0" style="stop-color:#94C9E2"/>
   <stop offset="0.490196" style="stop-color:#58A6D8"/>
   <stop offset="0.941176" style="stop-color:#50719E"/>
   <stop offset="1" style="stop-color:#386EAB"/>
  </linearGradient>
 </defs>
 <g id="Capa_x0020_1">
  <metadata id="CorelCorpID_0Corel-Layer"/>
  <g id="_143292600">
   <path id="path3769" class="fil0" d="M174.259 70.9577c14.594,-0.300352 27.5396,8.8666 29.3902,31.393 17.1906,0 35.1411,0.195159 59.608,0.195159 24.4683,0 22.0226,13.0964 22.0226,13.0964 0,0 -0.330802,-59.1125 -0.339107,-65.4642 -0.00692054,-6.35998 -2.40835,-17.8066 -19.0938,-17.6571 -16.6854,0.196543 -47.4611,0.422153 -57.7187,0.437378 -10.259,0.0221457 -12.9303,11.8383 -12.9303,11.8383 0,0 -143.608,0.595167 -162.454,0.595167 -18.846,0 -16.6411,12.2369 -16.2868,39.3848 0.0304504,2.51354 3.7108,-12.7117 13.9006,-12.9151 10.1912,-0.195159 95.9602,-0.218689 143.895,-0.919048l0.00692054 0.0152252z" inkscape:connector-curvature="0" sodipodi:nodetypes="cczcczzczszcc"/>
   <path id="_120484112" class="fil1" d="M174.917 69.8726c7.79807,-0.00830465 15.1117,2.63119 20.5872,8.48043 4.77379,5.09767 8.12333,12.6161 9.13512,22.9139 6.78628,0.00276822 14.8335,0.0442915 23.5506,0.0885829 9.97389,0.051212 20.9097,0.106576 35.0678,0.106576 12.3933,0 18.2052,3.31356 20.9014,6.75583 -0.0885829,-16.0833 -0.292047,-53.0861 -0.297583,-58.0357l0 -0.195159c-0.0276822,-3.00905 -0.625617,-7.13785 -3.1184,-10.4819 -2.48171,-3.3274 -6.89701,-5.91291 -14.6107,-5.90599l-0.272669 0.00138411c-8.11503,0.0955035 -19.5851,0.197928 -30.4089,0.27959 -11.3898,0.0858147 -22.0572,0.149484 -27.3223,0.157788 -9.39256,0.0193775 -11.8687,10.9691 -11.8757,11.0009l-0.192391 0.833233 -0.858147 0.00415233c-0.415233,0.00138411 -144.534,0.599319 -162.458,0.599319 -13.5767,0 -15.4619,6.93023 -15.4619,21.9575 0,2.95369 0.0595167,5.87969 0.12457,9.06176l0.0664372 3.3703c2.14952,-4.06374 6.1662,-9.95036 12.8639,-10.0832l0.00415233 0c3.60699,-0.0692054 16.72,-0.117649 34.2788,-0.179934 31.9605,-0.116265 78.6686,-0.28651 109.62,-0.73773l0.668524 -0.0110729 0.00830465 0.0193775zm19.0135 9.95312c-5.18072,-5.53367 -12.1857,-7.94202 -19.6488,-7.78838l-0.674061 0.0138411 -0.0110729 -0.0193775c-30.9431,0.445683 -77.2305,0.61316 -108.976,0.728041 -17.527,0.063669 -30.6206,0.112113 -34.2401,0.181318 -6.89424,0.137027 -10.6673,8.13302 -12.1456,11.2666 -0.557796,1.18064 -0.907975,1.91699 -1.68861,1.92806 -0.772333,0.0138411 -1.15711,-0.41108 -1.16819,-1.34674 -0.0332186,-2.526 -0.0830465,-4.95511 -0.130106,-7.25134 -0.0692054,-3.40214 -0.132874,-6.52884 -0.132874,-9.10467 0,-16.5096 2.14952,-24.125 17.6294,-24.125 18.9277,0 150.154,-0.539802 161.631,-0.586862 0.863684,-2.81943 4.35856,-11.8217 13.7539,-11.8424 5.25823,-0.00692054 15.9228,-0.0705895 27.314,-0.157788 10.796,-0.0802783 22.2565,-0.184086 30.3923,-0.278206l0.00830465 0 0.282358 -0.00138411 0.00415233 0c8.54133,-0.00968876 13.5047,2.95369 16.3491,6.76829 2.83189,3.79938 3.51148,8.41123 3.54055,11.7608l0 0.00415233 0.00138411 0.199312 0 0.00415233c0.00692054,5.64993 0.267133,52.4563 0.32665,63.2413 0.17855,1.4201 0.00138411,2.38067 -0.00138411,2.39174l-2.14537 -0.164709 -0.012457 -2.11907c-0.498279,-3.35923 -3.68034,-9.89776 -20.9305,-9.89776 -12.4625,0 -24.2925,-0.0609008 -35.0761,-0.114881 -8.25621,-0.0415233 -15.8425,-0.0802783 -24.5319,-0.0802783l-0.996558 0 -0.0816624 -0.999326c-0.847074,-10.2895 -4.03883,-17.6944 -8.64099,-22.6094z"/>
   <path id="path3781" class="fil2" d="M165.011 82.677c16.0833,0 31.0746,5.36619 31.1051,31.4594 32.7106,0 25.379,0 60.2184,0 19.5229,0 35.2602,15.6778 35.2823,35.1993l0.0830465 73.3148c0.0235298,19.5215 -15.6778,35.2602 -35.2006,35.2823l-205.828 0.240835c-19.5229,0 -35.2602,-15.6764 -35.2823,-35.2006l-0.135643 -112.781c-0.0235298,-19.5215 4.19246,-27.1161 25.4842,-27.296 21.2904,-0.196543 87.311,-0.739114 124.28,-0.218689l-0.00692054 0z" sodipodi:nodetypes="cccsssssszcc" inkscape:connector-curvature="0"/>
   <path id="_120962456" class="fil3" d="M165.011 81.5932l0.00692054 0c8.25344,0 16.2481,1.39657 22.2385,6.18143 5.84509,4.6686 9.70952,12.4957 9.9296,25.278l59.1485 0c10.0597,0 19.1464,4.04298 25.7209,10.6023 6.57036,6.55375 10.63,15.6238 10.641,25.6821l0.0830465 73.3135c0.0110729,10.0583 -4.02776,19.145 -10.5843,25.7167 -6.55791,6.57175 -15.6349,10.6341 -25.696,10.6452l-205.828 0.240835 0 0.00415233c-10.0597,0 -19.1478,-4.04298 -25.7223,-10.6023 -6.56898,-6.55375 -10.6286,-15.6238 -10.6396,-25.6808l-0.135643 -112.781c-0.0110729,-10.014 1.09483,-17.0038 5.00632,-21.6004 3.9364,-4.62431 10.5621,-6.68386 21.5478,-6.7766 10.6438,-0.0982717 32.4726,-0.282358 56.2668,-0.377862 23.7859,-0.0955035 49.5317,-0.10104 68.0165,0.159172l0 -0.00415233zm20.8987 7.87558c-5.5309,-4.41946 -13.0715,-5.70806 -20.8987,-5.70806l0 -0.413848 -0.00553643 0.409696c-18.4806,-0.260212 -44.2223,-0.254676 -68.0026,-0.159172 -23.7804,0.0941194 -45.6105,0.27959 -56.2571,0.376478 -10.3061,0.0871988 -16.4335,1.91561 -19.9229,6.01534 -3.5101,4.12326 -4.50112,10.6936 -4.49005,20.2038l0.134259 112.781c0.0110729,9.45761 3.82844,17.9851 10.0071,24.1485 6.18143,6.1662 14.7297,9.96697 24.197,9.96697l0 0.00415233 205.828 -0.240835c9.46038,-0.00968876 17.9962,-3.82983 24.1638,-10.0113 6.16759,-6.18281 9.96835,-14.7297 9.95728,-24.1914l-0.0830465 -73.3135c-0.00968876,-9.45761 -3.82706,-17.9865 -10.0057,-24.1499 -6.18004,-6.1662 -14.7297,-9.96697 -24.197,-9.96697l-60.2184 0 -1.07822 0 -0.00138411 -1.08376c-0.0138411,-12.666 -3.60976,-20.2606 -9.12681,-24.6676z"/>
   <path id="path4267" class="fil4" style="mask:url(#id0)" d="M20.1817 113.343c0,11.6141 0,109.504 0,109.504 0,0 -0.5661,25.2005 25.4344,26.1237 19.8993,0.698975 40.8603,-0.698975 40.8603,-0.698975 21.7969,-0.884445 47.0625,-3.85059 96.4018,-44.679 49.3379,-40.8271 79.7053,-77.6651 63.3922,-82.8832l-59.3492 0c0,0 6.64787,-34.337 -15.8522,-34.337 -24.7617,0 -115.502,0.573021 -133.272,0.573021 -17.7761,0 -17.6072,14.6882 -17.6072,26.3119l-0.00830465 0.0858147z" inkscape:connector-curvature="0" sodipodi:nodetypes="ccsczzcszzc"/>
   <path id="path4267-7" class="fil5" style="mask:url(#id2)" d="M28.9735 49.4182c-5.98489,4.95926 -5.87139,11.3123 -3.14746,18.6799 25.7403,-1.93498 160.098,-0.217305 160.098,-0.217305 0,0 21.0357,9.35381 20.518,29.9161 9.1365,0.48167 24.9873,1.5502 33.22,0.301736 8.24098,-1.25815 23.0011,-4.41115 29.548,-11.7635 6.5413,-7.36069 13.7068,-15.1062 11.5601,-30.7314 0,0 0.430458,-16.9789 -9.9033,-17.1062 -11.3732,-0.195159 -54.6488,-0.195159 -62.8081,-0.195159 -8.15794,-0.196543 -8.05966,4.6423 -8.12057,10.5663l-170.965 0.549491z" inkscape:connector-curvature="0" sodipodi:nodetypes="cccczzcszzc"/>
  </g>
 </g>
</svg>
