<?xml version="1.0" encoding="UTF-8"?>
<!DOCTYPE svg PUBLIC "-//W3C//DTD SVG 1.1//EN" "http://www.w3.org/Graphics/SVG/1.1/DTD/svg11.dtd">
<!-- Creator: CorelDRAW -->
<svg xmlns="http://www.w3.org/2000/svg" xml:space="preserve" width="300px" height="300px" style="shape-rendering:geometricPrecision; text-rendering:geometricPrecision; image-rendering:optimizeQuality; fill-rule:evenodd; clip-rule:evenodd"
viewBox="0 0 300 300"
 xmlns:xlink="http://www.w3.org/1999/xlink">
 <defs>
  <style type="text/css">
   <![CDATA[
    .fil1 {fill:white}
    .fil5 {fill:url(#id6)}
    .fil8 {fill:url(#id7)}
    .fil0 {fill:url(#id8)}
    .fil2 {fill:url(#id9)}
    .fil7 {fill:url(#id10)}
    .fil10 {fill:url(#id11)}
    .fil4 {fill:url(#id12)}
    .fil11 {fill:url(#id13);fill-rule:nonzero}
    .fil3 {fill:url(#id14);fill-rule:nonzero}
    .fil6 {fill:url(#id15);fill-rule:nonzero}
    .fil9 {fill:url(#id16);fill-rule:nonzero}
   ]]>
  </style>
     <mask id="id0">
  <linearGradient id="id1" gradientUnits="userSpaceOnUse" x1="121.963" y1="31.7404" x2="160.107" y2="40.7066">
   <stop offset="0" style="stop-opacity:1; stop-color:white"/>
   <stop offset="1" style="stop-opacity:0; stop-color:white"/>
  </linearGradient>
      <rect style="fill:url(#id1)" x="111.206" y="8.22714" width="59.6578" height="55.9927"/>
     </mask>
     <mask id="id2">
  <linearGradient id="id3" gradientUnits="userSpaceOnUse" x1="124.315" y1="159.887" x2="159.131" y2="151.701">
   <stop offset="0" style="stop-opacity:1; stop-color:white"/>
   <stop offset="1" style="stop-opacity:0; stop-color:white"/>
  </linearGradient>
      <rect style="fill:url(#id3)" x="115.426" y="125.66" width="52.5934" height="60.2669"/>
     </mask>
     <mask id="id4">
  <linearGradient id="id5" gradientUnits="userSpaceOnUse" x1="121.57" y1="280.252" x2="159.714" y2="271.285">
   <stop offset="0" style="stop-opacity:1; stop-color:white"/>
   <stop offset="1" style="stop-opacity:0; stop-color:white"/>
  </linearGradient>
      <rect style="fill:url(#id5)" x="110.815" y="247.772" width="59.6551" height="55.9927"/>
     </mask>
  <linearGradient id="id6" gradientUnits="userSpaceOnUse" x1="123.846" y1="137.587" x2="171.229" y2="177.072">
   <stop offset="0" style="stop-color:#94C9E2"/>
   <stop offset="0.490196" style="stop-color:#58A6D8"/>
   <stop offset="0.819608" style="stop-color:#50719E"/>
   <stop offset="1" style="stop-color:#386EAB"/>
  </linearGradient>
  <linearGradient id="id7" gradientUnits="userSpaceOnUse" xlink:href="#id6" x1="128.18" y1="246.787" x2="164.734" y2="277.255">
  </linearGradient>
  <linearGradient id="id8" gradientUnits="userSpaceOnUse" xlink:href="#id6" x1="50.2999" y1="72.1038" x2="250.525" y2="237.095">
  </linearGradient>
  <linearGradient id="id9" gradientUnits="userSpaceOnUse" xlink:href="#id6" x1="128.568" y1="34.7397" x2="165.13" y2="65.2012">
  </linearGradient>
  <linearGradient id="id10" gradientUnits="userSpaceOnUse" x1="120.503" y1="150.314" x2="162.943" y2="161.274">
   <stop offset="0" style="stop-color:#B3D5E1"/>
   <stop offset="1" style="stop-color:white"/>
  </linearGradient>
  <linearGradient id="id11" gradientUnits="userSpaceOnUse" xlink:href="#id10" x1="119.453" y1="270.297" x2="161.831" y2="281.24">
  </linearGradient>
  <linearGradient id="id12" gradientUnits="userSpaceOnUse" xlink:href="#id10" x1="119.846" y1="41.6949" x2="162.224" y2="30.7521">
  </linearGradient>
  <linearGradient id="id13" gradientUnits="userSpaceOnUse" x1="171.969" y1="284.016" x2="128.964" y2="25.4634">
   <stop offset="0" style="stop-color:#82C7E6"/>
   <stop offset="0.741176" style="stop-color:#6690C2"/>
   <stop offset="1" style="stop-color:#3C599B"/>
  </linearGradient>
  <linearGradient id="id14" gradientUnits="userSpaceOnUse" xlink:href="#id13" x1="168.489" y1="64.152" x2="125.206" y2="36.6083">
  </linearGradient>
  <linearGradient id="id15" gradientUnits="userSpaceOnUse" xlink:href="#id13" x1="174.438" y1="174.45" x2="120.633" y2="140.212">
  </linearGradient>
  <linearGradient id="id16" gradientUnits="userSpaceOnUse" xlink:href="#id13" x1="168.096" y1="275.384" x2="124.813" y2="247.838">
  </linearGradient>
 </defs>
 <g id="Capa_x0020_1">
  <metadata id="CorelCorpID_0Corel-Layer"/>
  <g id="_142168048">
   <g>
    <path id="_146288008" class="fil0" d="M241.614 235.372l15.5117 0c4.36825,0 8.00707,3.65681 8.00707,8.00984l0.00276822 8.04029c0,4.35164 -3.64159,7.47142 -8.00984,7.47142l-15.5117 -0.00276822c-4.36963,0 -8.02645,-3.11563 -8.02645,-7.46865l0 -8.04167c0,-4.35164 3.65681,-8.00845 8.02645,-8.00845zm-206.465 -1.63048l16.0349 0c4.36963,0 7.48664,3.67896 7.48664,8.03337l0 7.50187c0,4.35302 -3.11701,8.01122 -7.48664,8.01122l-16.0349 0c-4.36686,0 -8.02368,-3.6582 -8.02368,-8.01122l0 -7.50187c0,-4.35441 3.65681,-8.03337 8.02368,-8.03337zm37.2131 43.3461l0 -18.1969c0,-16.792 12.2674,-30.4836 27.2725,-30.4836l95.7623 0c15.0024,0 26.7327,13.6916 26.7327,30.4864l0 18.1941m19.4841 -75.9599l16.0515 0c4.36686,0 8.00707,3.65681 8.00707,8.01676l0 8.0306c0,4.35579 -3.64021,7.47972 -8.00707,7.47972l-16.0515 0c-4.36963,0 -7.48664,-3.12393 -7.48664,-7.47695l0 -8.03337c0,-4.36271 3.11701,-8.01676 7.48664,-8.01676zm-205.933 -1.60557l15.5034 0c4.36963,0 8.02368,3.65405 8.02368,8.01676l0 7.49356c0,4.35025 -3.65405,8.01676 -8.02368,8.01676l-15.5034 0c-4.35994,0 -8.02506,-3.66374 -8.02506,-8.01676l0 -7.49356c0,-4.36271 3.66512,-8.01676 8.02506,-8.01676zm206.992 -33.7072l15.5131 0c4.38347,0 8.02506,3.65681 8.02506,8.01676l0 8.03337c0,4.35302 -3.64159,8.01676 -8.02506,8.01676l-15.5131 0c-4.35025,0 -8.00707,-3.66374 -8.00707,-8.01676l0 -8.03337c0,-4.35994 3.65405,-8.01676 8.00707,-8.01676zm-206.455 -1.60695l16.0418 0c4.36271,0 7.48803,3.65543 7.48803,8.01814l0 8.0306c0,4.35302 -3.12532,7.47972 -7.48803,7.47972l-16.0418 0c-4.36686,0 -8.03337,-3.1267 -8.03337,-7.47972l0 -8.0306c0,-4.36271 3.6665,-8.01814 8.03337,-8.01814zm206.995 -34.2304l16.0487 0c4.38624,0 7.48664,3.65681 7.48664,8.02645l0 8.00845c0,4.36963 -3.1004,8.02645 -7.48664,8.02645l-16.0487 0c-4.35302,0 -8.00984,-3.65681 -8.00984,-8.02645l0 -8.00845c0,-4.36963 3.65681,-8.02368 8.00984,-8.02645zm-206.465 -1.62218l16.0418 0c4.36271,0 8.02506,3.6665 8.02506,8.02645l0.00138411 7.48664c0,4.36825 -3.66374,8.02506 -8.02645,8.02506l-16.0418 0c-4.35994,0 -7.49218,-3.65681 -7.49218,-8.02506l0 -7.48664c0,-4.36133 3.13224,-8.02645 7.49218,-8.02645zm207.003 -32.6221l15.5103 0c4.38624,0 8.02645,3.65681 8.02645,8.02645l0 8.02368c0,4.36963 -3.64021,8.02645 -8.02645,8.02645l-15.5103 -0.00138411c-4.35302,0 -8.04029,-3.65543 -8.04029,-8.02506l0 -8.02368c0,-4.36963 3.68727,-8.02368 8.04029,-8.02645zm-139.604 -0.519041l88.7933 0c16.7795,0 30.503,13.6985 30.503,30.4836l0 60.9866c0,16.7768 -13.7234,30.4933 -30.503,30.4933l-88.7933 -0.00276822c-16.7795,0 -30.4864,-13.7137 -30.4864,-30.4905l0 -60.9866c0,-16.7851 13.7068,-30.4836 30.4864,-30.4836zm-66.8677 -1.0713l15.5103 0c4.36271,0 8.02506,3.6582 8.02506,8.02645l0.00138411 7.47834c0,4.36963 -3.66374,8.02645 -8.02645,8.02645l-15.5103 0c-4.35994,0 -8.02368,-3.65681 -8.02368,-8.02645l0 -7.47834c0,-4.36825 3.66097,-8.02645 8.02368,-8.02645zm207.009 -33.1591l16.0515 0c4.36825,0 7.48664,3.12532 7.48664,7.47972l0 8.02368c0,4.36963 -3.1184,8.02645 -7.48664,8.02645l-16.0515 0c-4.35025,0 -8.04029,-3.65681 -8.04029,-8.02645l0 -8.02368c0,-4.35441 3.69003,-7.47972 8.04029,-7.47972zm-206.479 -2.13706l16.0584 0c4.35994,0 8.02368,3.65681 8.02368,8.01676l0 8.02506c0,4.35994 -3.66374,7.48803 -8.02368,7.48803l-16.0584 0c-4.35994,0 -7.48664,-3.12809 -7.48664,-7.48664l0 -8.02645c0,-4.35994 3.1267,-8.01676 7.48664,-8.01676zm38.9059 -23.5368l148.169 0 0 18.1872c0,16.7851 -11.8729,29.9452 -26.7521,29.9452l-94.6675 0c-14.8639,0 -26.7493,-13.1601 -26.7493,-29.9452l0 -18.1872zm-23.9257 -8.55518c-16.7768,0 -30.4933,13.6999 -30.4933,30.4767l0 195.256c0,16.7795 13.7165,29.959 30.4933,29.959l195.789 -0.00276822c16.7768,0 29.9466,-13.1767 29.9466,-29.9535l0 -195.259c0,-16.7782 -13.1698,-30.4767 -29.9466,-30.4767l-195.789 0z"/>
    <rect id="_141563696" class="fil1" x="74.1036" y="95.0307" width="148.969" height="122.241" rx="61.889" ry="61.889"/>
    <path id="_141157328" class="fil1" d="M225.824 35.2865l-0.393087 20.8308c-0.285126,15.1297 -13.4134,27.5147 -29.8054,27.5147l-89.3594 0c-16.392,0 -29.2338,-12.3919 -29.804,-27.5147l-0.786174 -20.8308 150.148 0z"/>
    <path id="_53172904" class="fil1" d="M223.466 277.41l-0.397239 -21.3402c-0.287895,-15.4992 -13.5532,-28.186 -30.1168,-28.186l-90.2951 0c-16.5636,0 -29.541,12.695 -30.1168,28.186l-0.794478 21.3402 151.72 0z"/>
   </g>
   <g>
    <path id="_141295128" class="fil2" d="M177.134 34.6941l-60.5727 0c0,16.8778 13.5656,30.5542 30.2815,30.5542 16.727,0 30.2912,-13.6764 30.2912,-30.5542z"/>
    <path id="_145691696" class="fil3" d="M177.953 34.6941l-62.2115 0c0,8.65898 3.48242,16.5013 9.1102,22.179 5.62917,5.68038 13.4065,9.19463 21.9921,9.19463 8.58839,0 16.3671,-3.51287 21.9976,-9.19325 5.62917,-5.67761 9.11159,-13.52 9.11159,-22.1803zm-1.63878 0c0,8.21607 -3.29833,15.6501 -8.6313,21.0288 -5.33159,5.37865 -12.702,8.70604 -20.8391,8.70604 -8.13579,0 -15.502,-3.3274 -20.8336,-8.70743 -5.33159,-5.37865 -8.62992,-12.8127 -8.62992,-21.0274l58.934 0z"/>
    <path id="_141907024" class="fil4" style="mask:url(#id0)" d="M118.739 34.8256c2.09416,26.3174 27.977,36.2498 44.9683,20.4544 4.99802,-4.64784 9.43547,-20.4059 1.1931,-20.4142l-46.1614 -0.0401391z"/>
   </g>
   <g>
    <path id="_143662352" class="fil5" d="M177.822 157.323c0,16.8806 -13.5643,30.5694 -30.2912,30.5694 -16.7159,0 -30.2815,-13.6847 -30.2815,-30.5694 0,-16.8792 13.5656,-30.5556 30.2815,-30.5556 16.727,0 30.2912,13.6764 30.2912,30.5556z"/>
    <path id="_141208176" class="fil6" d="M178.641 157.323c0,8.66314 -3.4838,16.5083 -9.11297,22.19 -5.63055,5.68315 -13.4092,9.19879 -21.9963,9.19879 -8.58563,0 -16.3615,-3.51564 -21.9921,-9.19879 -5.62779,-5.68177 -9.1102,-13.5269 -9.1102,-22.19 0,-8.66037 3.48242,-16.5027 9.1102,-22.1803 5.62917,-5.68038 13.4065,-9.19325 21.9921,-9.19325 8.58839,0 16.3671,3.51287 21.9976,9.19187 5.62917,5.679 9.11159,13.5214 9.11159,22.1817zm-10.2715 21.0385c5.33297,-5.38141 8.63269,-12.821 8.63269,-21.0385 0,-8.21607 -3.29833,-15.6515 -8.6313,-21.0301 -5.33297,-5.37865 -12.702,-8.70604 -20.8391,-8.70604 -8.13579,0 -15.502,3.3274 -20.8336,8.70743 -5.33159,5.37865 -8.62992,12.8127 -8.62992,21.0288 0,8.21884 3.29971,15.657 8.62992,21.0385 5.33159,5.3828 12.6992,8.71158 20.8336,8.71158 8.13717,0 15.5062,-3.32878 20.8378,-8.71158z"/>
    <path id="_145691760" class="fil7" style="mask:url(#id2)" d="M119.132 156.752c2.09554,-26.3188 28.2718,-35.811 45.2631,-20.0128 7.78838,7.23889 -6.27693,34.7979 -17.2183,45.6202 -6.27001,6.20219 -18.3256,-1.92806 -24.1679,-10.3379 -4.26305,-6.13714 -3.29141,-11.7926 -3.87689,-15.2695z"/>
   </g>
   <g>
    <path id="_141458560" class="fil8" d="M176.741 277.298l-60.5727 0c0,-16.8778 13.5656,-30.5542 30.2815,-30.5542 16.727,0 30.2912,13.6764 30.2912,30.5542z"/>
    <path id="_141386336" class="fil9" d="M177.56 277.298l-62.2115 0c0,-8.66037 3.48242,-16.5013 9.1102,-22.1803 5.62917,-5.68038 13.4065,-9.19325 21.9921,-9.19325 8.58839,0 16.3671,3.51287 21.9976,9.19325 5.62917,5.67761 9.11159,13.52 9.11159,22.1803zm-1.63878 0c0,-8.21607 -3.29833,-15.6501 -8.6313,-21.0288 -5.33159,-5.38003 -12.702,-8.70604 -20.8391,-8.70604 -8.13579,0 -15.502,3.3274 -20.8336,8.70604 -5.33159,5.38003 -8.62992,12.8127 -8.62992,21.0288l58.934 0z"/>
    <path id="_140764760" class="fil10" style="mask:url(#id4)" d="M118.345 277.166c2.09416,-26.3188 27.977,-36.2512 44.9683,-20.4544 4.99802,4.64645 9.43547,20.4073 1.19172,20.4128l-46.16 0.0415233z"/>
   </g>
   <path id="_141381208" class="fil11" d="M52.3885 25.3001l196.156 0c8.62576,0 16.4667,3.56685 22.1513,9.3109 5.68315,5.74405 9.21124,13.6639 9.21124,22.3727l0 195.514c0,8.70743 -3.52809,16.6287 -9.21124,22.3727 -5.68453,5.74405 -13.5255,9.30951 -22.1513,9.30951l-196.156 0c-8.62576,0 -16.4667,-3.56546 -22.1513,-9.30951 -5.68315,-5.74405 -9.21124,-13.6653 -9.21124,-22.3727l0 -195.514c0,-8.70881 3.52809,-16.6287 9.21124,-22.3727 5.68453,-5.74405 13.5255,-9.3109 22.1513,-9.3109zm196.156 2.53292l-196.156 0c-7.92679,0 -15.1352,3.27895 -20.3602,8.55933 -5.22501,5.28037 -8.46936,12.5705 -8.46936,20.5914l0 195.514c0,8.02091 3.24435,15.3096 8.46936,20.5914 5.22501,5.28037 12.4334,8.55933 20.3602,8.55933l196.156 0c7.92679,0 15.1352,-3.27895 20.3602,-8.55933 5.22501,-5.28176 8.46936,-12.5705 8.46936,-20.5914l0 -195.514c0,-8.02091 -3.24435,-15.311 -8.46936,-20.5914 -5.22501,-5.28037 -12.4334,-8.55933 -20.3602,-8.55933z"/>
  </g>
 </g>
</svg>
