<?xml version="1.0" encoding="UTF-8"?>
<!DOCTYPE svg PUBLIC "-//W3C//DTD SVG 1.1//EN" "http://www.w3.org/Graphics/SVG/1.1/DTD/svg11.dtd">
<!-- Creator: CorelDRAW -->
<svg xmlns="http://www.w3.org/2000/svg" xml:space="preserve" width="300px" height="300px" style="shape-rendering:geometricPrecision; text-rendering:geometricPrecision; image-rendering:optimizeQuality; fill-rule:evenodd; clip-rule:evenodd"
viewBox="0 0 300 300"
 xmlns:xlink="http://www.w3.org/1999/xlink">
 <defs>
  <style type="text/css">
   <![CDATA[
    .fil7 {fill:none}
    .fil0 {fill:url(#id4)}
    .fil8 {fill:url(#id5)}
    .fil2 {fill:url(#id6)}
    .fil4 {fill:url(#id7);fill-rule:nonzero}
    .fil6 {fill:url(#id8);fill-rule:nonzero}
    .fil3 {fill:url(#id9);fill-rule:nonzero}
    .fil5 {fill:url(#id10);fill-rule:nonzero}
    .fil1 {fill:url(#id11);fill-rule:nonzero}
   ]]>
  </style>
    <mask id="id0">
  <linearGradient id="id1" gradientUnits="userSpaceOnUse" x1="129.359" y1="73.7578" x2="223.581" y2="190.626">
   <stop offset="0" style="stop-opacity:1; stop-color:white"/>
   <stop offset="1" style="stop-opacity:0; stop-color:white"/>
  </linearGradient>
     <rect style="fill:url(#id1)" x="63.5029" y="29.4829" width="225.934" height="205.418"/>
    </mask>
    <mask id="id2">
  <linearGradient id="id3" gradientUnits="userSpaceOnUse" x1="132.004" y1="256.596" x2="287.752" y2="63.4185">
   <stop offset="0" style="stop-opacity:1; stop-color:white"/>
   <stop offset="1" style="stop-opacity:0; stop-color:white"/>
  </linearGradient>
     <rect style="fill:url(#id3)" x="116.146" y="61.3921" width="187.464" height="197.23"/>
    </mask>
  <linearGradient id="id4" gradientUnits="userSpaceOnUse" x1="95.0149" y1="90.7823" x2="273.483" y2="206.946">
   <stop offset="0" style="stop-color:#94C9E2"/>
   <stop offset="0.490196" style="stop-color:#58A6D8"/>
   <stop offset="0.819608" style="stop-color:#50719E"/>
   <stop offset="1" style="stop-color:#386EAB"/>
  </linearGradient>
  <linearGradient id="id5" gradientUnits="userSpaceOnUse" x1="202.022" y1="230.707" x2="217.734" y2="89.3068">
   <stop offset="0" style="stop-color:#E7EEFA"/>
   <stop offset="1" style="stop-color:#7DA2E3"/>
  </linearGradient>
  <linearGradient id="id6" gradientUnits="userSpaceOnUse" xlink:href="#id5" x1="168.414" y1="59.6938" x2="184.525" y2="204.69">
  </linearGradient>
  <linearGradient id="id7" gradientUnits="userSpaceOnUse" x1="85.3109" y1="89.9892" x2="7.95862" y2="75.7011">
   <stop offset="0" style="stop-color:#82C7E6"/>
   <stop offset="0.741176" style="stop-color:#6690C2"/>
   <stop offset="1" style="stop-color:#3C599B"/>
  </linearGradient>
  <linearGradient id="id8" gradientUnits="userSpaceOnUse" xlink:href="#id7" x1="83.7316" y1="137.398" x2="6.37936" y2="123.11">
  </linearGradient>
  <linearGradient id="id9" gradientUnits="userSpaceOnUse" xlink:href="#id4" x1="11.6971" y1="74.7875" x2="81.5738" y2="90.9027">
  </linearGradient>
  <linearGradient id="id10" gradientUnits="userSpaceOnUse" xlink:href="#id4" x1="10.1178" y1="122.195" x2="79.9946" y2="138.311">
  </linearGradient>
  <linearGradient id="id11" gradientUnits="userSpaceOnUse" xlink:href="#id7" x1="281.306" y1="197.229" x2="87.1892" y2="100.502">
  </linearGradient>
 </defs>
 <g id="Capa_x0020_1">
  <metadata id="CorelCorpID_0Corel-Layer"/>
  <g id="_53543664">
   <path id="_146613216" class="fil0" d="M294.703 238.305l-220.911 0c-1.66231,0 -3.00628,-1.53636 -3.00628,-3.45474l0 -171.97c0,-1.91837 1.34397,-3.45335 3.00628,-3.45335l13.3068 0 95.0052 112.662 103.065 -112.662 9.53374 0c1.66231,0 3.00628,1.53498 3.00628,3.45612l0 171.966c0,1.91976 -1.34397,3.45612 -3.00628,3.45612m-110.424 -89.4397l-80.3544 -89.4383 165.188 0 -84.8334 89.4383z"/>
   <path id="_141975240" class="fil1" d="M294.703 239.232l-220.911 0c-1.11282,0 -2.11215,-0.506584 -2.82773,-1.32874 -0.68375,-0.78479 -1.1059,-1.86301 -1.1059,-3.05334l0 -171.97c0,-1.18895 0.422153,-2.26717 1.1059,-3.05196 0.715584,-0.822161 1.71491,-1.32874 2.82773,-1.32874l13.3068 0 0.429074 0 0.278206 0.329418 94.327 111.861 102.355 -111.886 0.278206 -0.304504 0.402776 0 9.53374 0c1.11282,0 2.11215,0.506584 2.82773,1.32874 0.68375,0.78479 1.1059,1.86439 1.1059,3.05473l0 171.966c0,1.19033 -0.422153,2.26855 -1.1059,3.05473 -0.715584,0.822161 -1.71491,1.32874 -2.82773,1.32874zm-220.911 -1.85609l220.911 0c0.550875,0 1.05746,-0.262981 1.4284,-0.69067 0.401391,-0.460908 0.650531,-1.10867 0.650531,-1.83671l0 -171.966c0,-0.728041 -0.24914,-1.3758 -0.650531,-1.83671 -0.370941,-0.42769 -0.877525,-0.692054 -1.4284,-0.692054l-9.13096 0 -102.787 112.359 -0.711432 0.776485 -0.676829 -0.802783 -94.7256 -112.333 -12.8791 0c-0.550875,0 -1.05746,0.264365 -1.42978,0.69067 -0.401391,0.460908 -0.649147,1.10867 -0.649147,1.83533l0 171.97c0,0.726657 0.247755,1.37442 0.649147,1.83533 0.372325,0.42769 0.878909,0.69067 1.42978,0.69067zm109.799 -87.8923l-80.3544 -89.4369 -1.38965 -1.54743 2.07755 0 165.188 0 2.15506 0 -1.48376 1.56543 -84.8348 89.4369 -0.689286 0.726657 -0.668524 -0.74465zm-77.5876 -89.1297l78.2949 87.1462 82.659 -87.1462 -160.954 0z"/>
   <path id="path4267" class="fil2" style="mask:url(#id0)" d="M74.7765 86.8279l0.561948 136.459c-0.858147,5.75236 2.96338,12.349 13.9836,10.8791l65.7562 0.0650531c17.0439,0.0110729 70.465,1.08929 78.6852,-10.814 27.2005,-39.4139 70.2657,-161.138 49.821,-156.165l-101.427 109.969 -96.5789 -115.109c-14.9484,0 -10.7947,15.001 -10.7947,24.6441l-0.00692054 0.0719736z" inkscape:connector-curvature="0" sodipodi:nodetypes="ccsczzcszzc"/>
   <g>
    <path id="_142200392" class="fil3" d="M4.89144 82.3641c0.0525961,-0.0650531 18.1983,-23.0703 44.3551,-2.89971 19.4467,14.9968 32.4324,-1.481 32.4698,-1.52806l6.66171 5.38972c-0.0525961,0.0650531 -18.1983,23.0703 -44.3538,2.89971 -19.4495,-14.9968 -32.4338,1.481 -32.4712,1.52806l-6.66171 -5.38972z"/>
    <path id="_141742016" class="fil4" d="M4.16755 81.7856c0.203464,-0.254676 18.8709,-23.6987 45.6437,-3.05334 18.6398,14.374 31.0359,-1.19033 31.1798,-1.37027l0.00138411 0 0.561948 -0.750187 0.746035 0.603471 6.66171 5.38972 0.712816 0.577173 -0.575789 0.719736m-40.4187 -3.70664c-22.7312,-17.5284 -39.191,-1.58065 -42.4645,2.04848l5.22916 4.22984c2.85542,-3.07826 15.4508,-14.6231 33.1439,-0.978565 22.7312,17.5284 39.191,1.57927 42.4645,-2.04848l-5.22778 -4.22984c-2.8568,3.07826 -15.4522,14.6231 -33.1452,0.978565zm-44.5102 1.59311l-0.00276822 -0.00276822m84.9344 2.11907c-0.203464,0.254676 -18.8709,23.6987 -45.6437,3.05334 -18.6398,-14.374 -31.0359,1.18895 -31.1798,1.37027l-0.00138411 -0.00138411 -0.561948 0.750187 -0.746035 -0.602087 -6.66171 -5.38972 -0.712816 -0.577173 0.575789 -0.719736m84.9289 2.11353l0.00276822 0.00276822"/>
   </g>
   <path id="_141385632" class="fil5" d="M3.31217 129.773c0.0525961,-0.0650531 18.1996,-23.0703 44.3551,-2.90109 19.4481,14.9982 32.4324,-1.47961 32.4712,-1.52667l6.66171 5.38972c-0.0525961,0.0650531 -18.1996,23.0703 -44.3551,2.89971 -19.4481,-14.9968 -32.4338,1.481 -32.4712,1.52806l-6.66171 -5.38972z"/>
   <path id="_53171816" class="fil6" d="M2.58967 129.194c0.203464,-0.254676 18.8709,-23.6987 45.6424,-3.05473 18.6398,14.3754 31.0359,-1.18895 31.1798,-1.36888l0.00138411 0 0.563332 -0.750187 0.74465 0.603471 6.66171 5.38972 0.712816 0.577173 -0.575789 0.719736m-40.4174 -3.70664c-22.7312,-17.5284 -39.191,-1.58065 -42.4658,2.0471l5.22916 4.23122c2.85542,-3.07826 15.4508,-14.6231 33.1439,-0.979949 22.7312,17.5297 39.191,1.58204 42.4658,-2.0471l-5.22916 -4.22984c-2.8568,3.07687 -15.4508,14.6231 -33.1439,0.978565zm-44.5115 1.59311l-0.00138411 -0.00276822m84.9331 2.11769c-0.203464,0.25606 -18.8709,23.7001 -45.6424,3.05473 -18.6412,-14.374 -31.0373,1.18895 -31.1812,1.37027l-0.00138411 -0.00138411 -0.561948 0.750187 -0.74465 -0.602087 -6.66171 -5.38972 -0.7142 -0.577173 0.575789 -0.719736m84.9289 2.11353l0.00276822 0.00138411"/>
   <path id="_146286792" class="fil3" d="M5.4174 174.967c0.0525961,-0.0650531 18.1996,-23.0703 44.3551,-2.89971 19.4481,14.9968 32.4324,-1.481 32.4712,-1.52806l6.66171 5.38972c-0.0525961,0.0650531 -18.1996,23.0703 -44.3551,2.90109 -19.4481,-14.9982 -32.4338,1.47961 -32.4712,1.52667l-6.66171 -5.38972z"/>
   <path id="_140720000" class="fil4" d="M4.6949 174.389c0.203464,-0.25606 18.8709,-23.7001 45.6424,-3.05473 18.6412,14.374 31.0373,-1.18895 31.1812,-1.37027l0 0.00138411 0.563332 -0.751571 0.74465 0.603471 6.66171 5.38972 0.7142 0.577173 -0.575789 0.719736m-40.4187 -3.70526c-22.7312,-17.5297 -39.191,-1.58204 -42.4658,2.0471l5.22916 4.22984c2.85542,-3.07687 15.4508,-14.6231 33.1439,-0.978565 22.7326,17.5284 39.191,1.58065 42.4658,-2.0471l-5.22916 -4.23122c-2.8568,3.07826 -15.4508,14.6231 -33.1439,0.979949zm-44.5115 1.59172l-0.00138411 -0.00138411m84.9331 2.11769c-0.203464,0.254676 -18.8709,23.6987 -45.6424,3.05473 -18.6412,-14.3754 -31.0373,1.18895 -31.1812,1.36888l0 0 -0.563332 0.750187 -0.74465 -0.603471 -6.66171 -5.38972 -0.7142 -0.577173 0.575789 -0.719736m84.9303 2.11353l0.00138411 0.00276822"/>
   <path id="path3076-7" class="fil7" d="M9.80087 224.077c0,0 15.61,-19.7983 38.4118,-2.21457 22.8032,17.5851 38.4132,-2.21319 38.4132,-2.21319" sodipodi:nodetypes="czc" inkscape:connector-curvature="0"/>
   <path id="_141643304" class="fil3" d="M6.46932 221.383c0.0525961,-0.0650531 18.1996,-23.0703 44.3551,-2.89971 19.4481,14.9968 32.4324,-1.481 32.4712,-1.52806l6.66171 5.38972c-0.0525961,0.0650531 -18.1996,23.0703 -44.3551,2.89971 -19.4481,-14.9968 -32.4338,1.481 -32.4712,1.52806l-6.66171 -5.38972z"/>
   <path id="_141447984" class="fil4" d="M5.74682 220.804c0.203464,-0.254676 18.8709,-23.6987 45.6424,-3.05334 18.6398,14.374 31.0359,-1.19033 31.1798,-1.37027l0.00138411 0 0.563332 -0.750187 0.74465 0.603471 6.66171 5.38972 0.712816 0.577173 -0.575789 0.719736m-40.4174 -3.70664c-22.7312,-17.5284 -39.191,-1.58065 -42.4658,2.0471l5.22916 4.23122c2.85542,-3.07826 15.4508,-14.6231 33.1439,-0.978565 22.7312,17.5284 39.191,1.57927 42.4658,-2.04848l-5.22916 -4.22984c-2.8568,3.07687 -15.4508,14.6231 -33.1439,0.978565zm-44.5115 1.59311l-0.00138411 -0.00276822m84.9331 2.11769c-0.203464,0.25606 -18.8709,23.7001 -45.6424,3.05473 -18.6412,-14.374 -31.0373,1.18895 -31.1812,1.37027l-0.00138411 -0.00138411 -0.561948 0.750187 -0.74465 -0.602087 -6.66171 -5.38972 -0.7142 -0.577173 0.575789 -0.719736m84.9289 2.11353l0.00276822 0.00138411"/>
   <path id="path4267_0" class="fil8" style="mask:url(#id2)" d="M120.534 62.8828c10.9746,-0.489974 59.0142,0.051212 90.4653,-0.463676l28.2884 -0.470597c11.5241,-0.476133 12.039,4.71427 1.54743,15.5823l-31.0802 34.0588 -26.3424 31.3113c-1.80488,-14.4487 -85.4729,-83.5808 -62.8787,-80.0181z" inkscape:connector-curvature="0" sodipodi:nodetypes="ccsczzcszzc"/>
  </g>
 </g>
</svg>
