<?xml version="1.0" encoding="UTF-8" standalone="no"?>
<!-- Created with Inkscape (http://www.inkscape.org/) -->

<svg
   xmlns:dc="http://purl.org/dc/elements/1.1/"
   xmlns:cc="http://creativecommons.org/ns#"
   xmlns:rdf="http://www.w3.org/1999/02/22-rdf-syntax-ns#"
   xmlns:svg="http://www.w3.org/2000/svg"
   xmlns="http://www.w3.org/2000/svg"
   xmlns:xlink="http://www.w3.org/1999/xlink"
   xmlns:sodipodi="http://sodipodi.sourceforge.net/DTD/sodipodi-0.dtd"
   xmlns:inkscape="http://www.inkscape.org/namespaces/inkscape"
   width="256"
   height="256"
   id="svg4374"
   version="1.1"
   inkscape:version="0.48.3.1 r9886"
   sodipodi:docname="gtk-open.svg">
  <defs
     id="defs4376">
    <linearGradient
       y2="264.96301"
       x2="229.189"
       y1="75.677498"
       x1="77.762001"
       gradientUnits="userSpaceOnUse"
       id="id9">
      <stop
         id="stop3151"
         style="stop-color:#58A6D8"
         offset="0" />
      <stop
         offset="0.470588"
         style="stop-color:#548bbb;stop-opacity:1;"
         id="stop4258" />
      <stop
         id="stop3153"
         style="stop-color:#50719E"
         offset="0.941176" />
      <stop
         id="stop3155"
         style="stop-color:#386EAB"
         offset="1" />
    </linearGradient>
    <linearGradient
       inkscape:collect="always"
       xlink:href="#id9"
       id="linearGradient5815"
       x1="0"
       y1="8.4996252"
       x2="16"
       y2="8.4996252"
       gradientUnits="userSpaceOnUse"
       spreadMethod="reflect" />
  </defs>
  <sodipodi:namedview
     id="base"
     pagecolor="#ffffff"
     bordercolor="#666666"
     borderopacity="1.0"
     inkscape:pageopacity="0.0"
     inkscape:pageshadow="2"
     inkscape:zoom="1.7124294"
     inkscape:cx="154.9802"
     inkscape:cy="98.571429"
     inkscape:document-units="px"
     inkscape:current-layer="layer1"
     showgrid="false"
     inkscape:window-width="1920"
     inkscape:window-height="1050"
     inkscape:window-x="-4"
     inkscape:window-y="-4"
     inkscape:window-maximized="1" />
  <metadata
     id="metadata4379">
    <rdf:RDF>
      <cc:Work
         rdf:about="">
        <dc:format>image/svg+xml</dc:format>
        <dc:type
           rdf:resource="http://purl.org/dc/dcmitype/StillImage" />
        <dc:title />
      </cc:Work>
    </rdf:RDF>
  </metadata>
  <g
     inkscape:label="Capa 1"
     inkscape:groupmode="layer"
     id="layer1"
     transform="translate(0,-796.36218)">
    <g
       id="g5769"
       transform="matrix(15.380155,0,0,15.793058,3.6793131,788.48677)"
       style="fill:url(#linearGradient5815);fill-opacity:1.0">
      <g
         style="display:inline;fill:url(#linearGradient5815);fill-opacity:1.0"
         id="layer9"
         transform="translate(-160.0002,-646)"
         inkscape:label="status" />
      <g
         id="layer10"
         transform="translate(-160.0002,-646)"
         inkscape:label="devices"
         style="fill:url(#linearGradient5815);fill-opacity:1.0" />
      <g
         id="layer11"
         transform="translate(-160.0002,-646)"
         inkscape:label="apps"
         style="fill:url(#linearGradient5815);fill-opacity:1.0" />
      <g
         id="layer12"
         transform="translate(-160.0002,-646)"
         inkscape:label="actions"
         style="fill:url(#linearGradient5815);fill-opacity:1.0">
        <path
           style="fill:url(#linearGradient5815);fill-opacity:1.0;stroke:none;display:inline"
           sodipodi:nodetypes="ccccccccccscccccc"
           id="rect3845-5-8"
           d="m 160.53145,651 c -0.28913,0 -0.53125,0.2421 -0.53125,0.5313 l 0,9.9375 c 0,0.2985 0.23264,0.5312 0.53125,0.5312 l 13.8125,0 c 0.2986,0 0.53125,-0.2326 0.53125,-0.5312 l 1.125,-4.9159 c 0,-0.2891 -0.24212,-0.5312 -0.53125,-0.5312 l -11.59375,0 -0.875,3.4783 c 0,0.277 -0.223,0.5 -0.5,0.5 -0.277,0 -0.5,-0.223 -0.5,-0.5 l 0,-4.9966 c 0,-0.277 0.223,-0.5 0.5,-0.5 l 0.46615,0 0,-3.0034 z"
           inkscape:connector-curvature="0" />
        <path
           style="font-size:medium;font-style:normal;font-variant:normal;font-weight:normal;font-stretch:normal;text-indent:0;text-align:start;text-decoration:none;line-height:normal;letter-spacing:normal;word-spacing:normal;text-transform:none;direction:ltr;block-progression:tb;writing-mode:lr-tb;text-anchor:start;baseline-shift:baseline;color:#000000;fill:url(#linearGradient5815);fill-opacity:1.0;stroke:none;stroke-width:1.99999988000000010;marker:none;visibility:visible;display:inline;overflow:visible;enable-background:accumulate;font-family:Sans;-inkscape-font-specification:Sans"
           sodipodi:nodetypes="cccccccccccccccccc"
           id="path1234-3"
           d="m 164.8127,647 c -0.4584,0.0875 -0.82072,0.5334 -0.8125,1 l 0,7 2,0 0,-6 4,0 0,3 3,0 0,3 2,0 0,-3.4375 c 0.006,-0.2641 -0.0976,-0.529 -0.28125,-0.7188 l -3.5625,-3.56245 c -0.18978,-0.1837 -0.45469,-0.28737 -0.71875,-0.28125 l -5.4375,0 c -0.0312,-10e-4 -0.0625,-10e-4 -0.0937,0 -0.0312,-10e-4 -0.0625,-10e-4 -0.0937,0 z"
           inkscape:connector-curvature="0" />
      </g>
      <g
         id="layer13"
         transform="translate(-160.0002,-646)"
         inkscape:label="places"
         style="fill:url(#linearGradient5815);fill-opacity:1.0" />
      <g
         id="layer14"
         transform="translate(-160.0002,-646)"
         inkscape:label="mimetypes"
         style="fill:url(#linearGradient5815);fill-opacity:1.0" />
      <g
         style="display:inline;fill:url(#linearGradient5815);fill-opacity:1.0"
         id="layer15"
         transform="translate(-160.0002,-646)"
         inkscape:label="emblems" />
      <g
         style="display:inline;fill:url(#linearGradient5815);fill-opacity:1.0"
         id="g4953"
         transform="translate(-160.0002,-646)"
         inkscape:label="categories" />
    </g>
  </g>
</svg>
