<?xml version="1.0" encoding="UTF-8" standalone="no"?>
<!-- Creator: CorelDRAW -->

<svg
   xmlns:dc="http://purl.org/dc/elements/1.1/"
   xmlns:cc="http://creativecommons.org/ns#"
   xmlns:rdf="http://www.w3.org/1999/02/22-rdf-syntax-ns#"
   xmlns:svg="http://www.w3.org/2000/svg"
   xmlns="http://www.w3.org/2000/svg"
   xmlns:xlink="http://www.w3.org/1999/xlink"
   xmlns:sodipodi="http://sodipodi.sourceforge.net/DTD/sodipodi-0.dtd"
   xmlns:inkscape="http://www.inkscape.org/namespaces/inkscape"
   xml:space="preserve"
   width="256"
   height="256"
   style="fill-rule:evenodd"
   viewBox="0 0 256 256"
   id="svg2"
   version="1.1"
   inkscape:version="0.48.3.1 r9886"
   sodipodi:docname="help-browser.svg"><metadata
   id="metadata61"><rdf:RDF><cc:Work
       rdf:about=""><dc:format>image/svg+xml</dc:format><dc:type
         rdf:resource="http://purl.org/dc/dcmitype/StillImage" /></cc:Work></rdf:RDF></metadata><sodipodi:namedview
   pagecolor="#ffffff"
   bordercolor="#666666"
   borderopacity="1"
   objecttolerance="10"
   gridtolerance="10"
   guidetolerance="10"
   inkscape:pageopacity="0"
   inkscape:pageshadow="2"
   inkscape:window-width="640"
   inkscape:window-height="480"
   id="namedview59"
   showgrid="false"
   inkscape:zoom="0.78666667"
   inkscape:cx="150"
   inkscape:cy="150"
   inkscape:window-x="0"
   inkscape:window-y="16"
   inkscape:window-maximized="0"
   inkscape:current-layer="svg2" />
 <defs
   id="defs4">
  <style
   type="text/css"
   id="style6">
   
    .fil1 {fill:url(#id4)}
    .fil0 {fill:url(#id5)}
    .fil3 {fill:url(#id6)}
    .fil4 {fill:url(#id7)}
    .fil2 {fill:url(#id8);fill-rule:nonzero}
   
  </style>
     <mask
   id="id0">
  <linearGradient
   id="id1"
   gradientUnits="userSpaceOnUse"
   x1="113.933"
   y1="258.452"
   x2="159.43401"
   y2="247.755">
   <stop
   offset="0"
   style="stop-opacity:1; stop-color:white"
   id="stop10" />
   <stop
   offset="1"
   style="stop-opacity:0; stop-color:white"
   id="stop12" />
  </linearGradient>
      <rect
   style="fill:url(#id1)"
   x="102.74"
   y="214.147"
   width="67.887802"
   height="77.9142"
   id="rect14" />
     </mask>
    <mask
   id="id2">
  <linearGradient
   id="id3"
   gradientUnits="userSpaceOnUse"
   x1="118.132"
   y1="78.2174"
   x2="238.636"
   y2="54.344299">
   <stop
   offset="0"
   style="stop-opacity:1; stop-color:white"
   id="stop18" />
   <stop
   offset="0.439216"
   style="stop-opacity:0.501961; stop-color:white"
   id="stop20" />
   <stop
   offset="1"
   style="stop-opacity:0; stop-color:white"
   id="stop22" />
  </linearGradient>
     <rect
   style="fill:url(#id3)"
   x="58.413502"
   y="5.0104699"
   width="239.94099"
   height="122.541"
   id="rect24" />
    </mask>
  <linearGradient
   id="id4"
   gradientUnits="userSpaceOnUse"
   x1="113.321"
   y1="229.30901"
   x2="175.246"
   y2="280.91">
   <stop
   offset="0"
   style="stop-color:#94C9E2"
   id="stop27" />
   <stop
   offset="0.490196"
   style="stop-color:#58A6D8"
   id="stop29" />
   <stop
   offset="0.819608"
   style="stop-color:#50719E"
   id="stop31" />
   <stop
   offset="1"
   style="stop-color:#386EAB"
   id="stop33" />
  </linearGradient>
  <linearGradient
   id="id5"
   gradientUnits="userSpaceOnUse"
   xlink:href="#id4"
   x1="78.916298"
   y1="34.988899"
   x2="225.80499"
   y2="148.274">
  </linearGradient>
  <linearGradient
   id="id6"
   gradientUnits="userSpaceOnUse"
   x1="108.95"
   y1="245.94099"
   x2="164.41701"
   y2="260.26599">
   <stop
   offset="0"
   style="stop-color:#B3D5E1"
   id="stop37" />
   <stop
   offset="1"
   style="stop-color:white"
   id="stop39" />
  </linearGradient>
  <linearGradient
   id="id7"
   gradientUnits="userSpaceOnUse"
   xlink:href="#id6"
   x1="102.645"
   y1="71.544601"
   x2="254.12199"
   y2="61.016998">
  </linearGradient>
  <linearGradient
   id="id8"
   gradientUnits="userSpaceOnUse"
   x1="179.439"
   y1="277.48499"
   x2="109.125"
   y2="232.739">
   <stop
   offset="0"
   style="stop-color:#82C7E6"
   id="stop43" />
   <stop
   offset="0.741176"
   style="stop-color:#6690C2"
   id="stop45" />
   <stop
   offset="1"
   style="stop-color:#3C599B"
   id="stop47" />
  </linearGradient>
 <linearGradient
   inkscape:collect="always"
   xlink:href="#id4"
   id="linearGradient3038"
   gradientUnits="userSpaceOnUse"
   x1="113.321"
   y1="229.30901"
   x2="175.246"
   y2="280.91" /><linearGradient
   inkscape:collect="always"
   xlink:href="#id6"
   id="linearGradient3040"
   gradientUnits="userSpaceOnUse"
   x1="108.95"
   y1="245.94099"
   x2="164.41701"
   y2="260.26599" /></defs>
 <g
   id="Capa_x0020_1"
   transform="matrix(0.81761363,0,0,0.81761363,2.8638364,4.9242722)">
  <metadata
   id="CorelCorpID_0Corel-Layer" />
  <g
   id="_140981208">
   <path
   id="_141442704"
   class="fil0"
   d="m 135.281,179.591 c 0,-19.1907 0,-26.8725 0,-48.3082 43.5967,0 61.8475,-23.6516 62.5922,-47.4555 0.78064,-23.7956 -25.4856,-40.9973 -47.4708,-40.8381 -20.918,0.159172 -46.9836,9.22232 -47.6562,39.4914 0,0 -32.3549,-0.390319 -45.2257,-0.74465 0.257444,-40.1654 44.5932,-77.7454 89.1975,-77.8686 63.3534,-0.195159 97.3928,31.7584 98.9555,79.8714 1.52114,48.1088 -54.855,95.8523 -110.392,95.8523 z"
   inkscape:connector-curvature="0"
   style="fill:url(#id5)" />
   <g
   id="g53">
    <path
   id="_141809840"
   class="fil1"
   d="m 183.862,255.102 c 0,22.0613 -17.7277,39.9509 -39.5869,39.9509 -21.8468,0 -39.5744,-17.8855 -39.5744,-39.9509 0,-22.0572 17.7277,-39.9315 39.5744,-39.9315 21.8592,0 39.5869,17.8744 39.5869,39.9315 z"
   inkscape:connector-curvature="0"
   style="fill:url(#linearGradient3038)" />
    <path
   id="_146285624"
   class="fil2"
   d="m 184.932,255.102 c 0,11.3206 -4.55095,21.5755 -11.9089,29.0012 -7.35931,7.42574 -17.5242,12.021 -28.7466,12.021 -11.2196,0 -21.3831,-4.59386 -28.741,-12.0224 -7.35377,-7.42436 -11.9047,-17.6778 -11.9047,-28.9998 0,-11.3179 4.55095,-21.5658 11.9047,-28.986 7.35792,-7.42436 17.52,-12.0154 28.741,-12.0154 11.2237,0 21.3886,4.59109 28.7479,12.0141 7.35654,7.42021 11.9075,17.6695 11.9075,28.9874 z m -13.4231,27.4967 c 6.97037,-7.03404 11.2819,-16.756 11.2819,-27.4967 0,-10.7365 -4.3115,-20.453 -11.2791,-27.4829 -6.96899,-7.02989 -16.5996,-11.3774 -27.2351,-11.3774 -10.6313,0 -20.2592,4.34887 -27.2268,11.3788 -6.9676,7.02989 -11.2777,16.7449 -11.2777,27.4815 0,10.7407 4.3115,20.4627 11.2777,27.4953 6.9676,7.03404 16.5955,11.3857 27.2268,11.3857 10.6341,0 20.2647,-4.35164 27.2323,-11.3843 z"
   inkscape:connector-curvature="0"
   style="fill:url(#id8);fill-rule:nonzero" />
    <path
   id="_144443808"
   class="fil3"
   style="fill:url(#linearGradient3040)"
   d="m 107.16,254.353 c 2.73915,-34.3937 36.9474,-46.7981 59.154,-26.1541 10.1787,9.46315 -8.205,45.479 -22.5028,59.6219 -8.19531,8.10396 -23.9478,-2.51908 -31.584,-13.5089 -5.57104,-8.02229 -4.30181,-15.412 -5.06722,-19.9588 z"
   mask="url(#id0)"
   inkscape:connector-curvature="0" />
   </g>
   <path
   id="_53543664"
   class="fil4"
   style="fill:url(#id7)"
   d="m 59.7976,78.7918 c 18.399,-89.9878 141.652,-91.7636 174.37,-29.3528 4.15509,7.92264 9.67907,16.266 6.08316,17.192 -41.4776,10.6632 -49.5193,-13.7137 -57.7436,-19.3471 -22.9361,-15.7124 -75.4242,-15.1934 -84.1939,31.5715 l -38.5156,-0.06367 z"
   mask="url(#id2)"
   inkscape:connector-curvature="0" />
  </g>
 </g>
</svg>