<?xml version="1.0" encoding="UTF-8" standalone="no"?>
<!-- Created with Inkscape (http://www.inkscape.org/) -->

<svg
   xmlns:dc="http://purl.org/dc/elements/1.1/"
   xmlns:cc="http://creativecommons.org/ns#"
   xmlns:rdf="http://www.w3.org/1999/02/22-rdf-syntax-ns#"
   xmlns:svg="http://www.w3.org/2000/svg"
   xmlns="http://www.w3.org/2000/svg"
   xmlns:sodipodi="http://sodipodi.sourceforge.net/DTD/sodipodi-0.dtd"
   xmlns:inkscape="http://www.inkscape.org/namespaces/inkscape"
   version="1.1"
   width="16"
   height="16"
   id="svg7384"
   inkscape:version="0.48.3.1 r9886"
   sodipodi:docname="huayra-chat-symbolic.svg">
  <sodipodi:namedview
     pagecolor="#ffffff"
     bordercolor="#666666"
     borderopacity="1"
     objecttolerance="10"
     gridtolerance="10"
     guidetolerance="10"
     inkscape:pageopacity="0"
     inkscape:pageshadow="2"
     inkscape:window-width="1438"
     inkscape:window-height="845"
     id="namedview15"
     showgrid="false"
     inkscape:zoom="16"
     inkscape:cx="4.4302799"
     inkscape:cy="15.0642"
     inkscape:window-x="0"
     inkscape:window-y="16"
     inkscape:window-maximized="1"
     inkscape:current-layer="svg7384" />
  <title
     id="title9167">Gnome Symbolic Icon Theme</title>
  <metadata
     id="metadata90">
    <rdf:RDF>
      <cc:Work
         rdf:about="">
        <dc:format>image/svg+xml</dc:format>
        <dc:type
           rdf:resource="http://purl.org/dc/dcmitype/StillImage" />
        <dc:title>Gnome Symbolic Icon Theme</dc:title>
      </cc:Work>
    </rdf:RDF>
  </metadata>
  <defs
     id="defs7386" />
  <path
     style="color:#bebebe;fill:#614869;fill-opacity:1;fill-rule:nonzero;stroke:none;stroke-width:2.40000010000000019;marker:none;visibility:visible;display:inline;overflow:visible;enable-background:accumulate"
     d="M 3.6875 1.0625 C 2.164 1.0625 0.9375 2.289 0.9375 3.8125 L 0.9375 8.25 C 0.9375 9.7735 2.164 11 3.6875 11 L 5.25 11 C 5.25 11 5.1116133 12.375529 7.78125 13.96875 C 7.0271578 12.070445 7.375 11 7.375 11 L 10 11 C 10.971459 11 11.714704 11.242271 12.96875 10.90625 C 14.173282 10.61341 15.0625 9.54714 15.0625 8.25 L 15.0625 3.8125 C 15.0625 2.289 13.836 1.0625 12.3125 1.0625 L 3.6875 1.0625 z M 6.46875 1.5 C 6.534583 1.428974 6.6651887 1.6335603 6.78125 2 C 6.9581645 2.5586757 7.4551717 4.7545806 7.21875 6.125 C 7.3269455 6.13236 7.4559192 6.165974 7.5625 6.1875 C 8.476427 4.9067229 9.3943127 3.4157988 9.65625 2.46875 C 9.9352362 1.4601217 10.002081 2.0487387 9.90625 2.65625 C 9.7388822 3.717242 9.058251 5.3681942 8.375 6.5 C 8.4367283 6.5363802 8.5346544 6.5839313 8.59375 6.625 C 9.7932381 5.7579736 10.776738 4.82822 11.4375 4.125 C 12.157257 3.3589949 12.060814 3.9263914 11.71875 4.4375 C 11.397244 4.9179089 10.256803 6.3502342 9.21875 7.25 C 9.3155615 7.3744844 9.3938201 7.4847231 9.46875 7.625 C 10.585474 7.2061058 11.532231 6.7551283 12.21875 6.34375 C 13.059942 5.839673 12.811513 6.2776664 12.375 6.65625 C 12.001774 6.9799586 10.836843 7.8234955 9.75 8.375 C 9.775272 8.5127547 9.778812 8.6677749 9.78125 8.8125 C 11.131234 9.0426209 11.810445 9.1697501 12.53125 9.25 C 13.27762 9.333068 13.016869 9.42225 12.59375 9.5 C 12.025858 9.6043844 10.653331 9.6312344 9.65625 9.59375 L 9.625 9.5625 L 8.71875 9.5 C 9.2604008 7.3240677 5.8725476 6.3868361 5.3125 8.96875 L 5.21875 9.53125 C 3.8986015 8.9513996 3.4272225 8.5097405 2.84375 8.15625 C 2.2602633 7.8027223 2.6126954 7.8276367 3.15625 8 C 3.5249576 8.1169107 3.9940772 8.2417453 4.53125 8.4375 C 4.5839722 8.2641143 4.6551088 8.1204367 4.71875 7.96875 C 3.8091196 6.8009402 2.9917899 5.8014859 2.53125 5.25 C 2.0633477 4.6897143 2.3801785 4.8432942 2.84375 5.1875 C 3.2826838 5.5134327 4.3504124 6.4974541 5.0625 7.25 C 5.1906741 7.0611925 5.3530589 6.91972 5.5 6.78125 C 5.0396111 5.3451066 4.4961065 3.4963936 4.25 2.8125 C 4.0028107 2.1256404 4.3007713 2.3290646 4.5625 2.84375 C 4.8464856 3.4021772 5.66258 5.1756435 6.15625 6.34375 C 6.2586247 6.2970333 6.3635572 6.2488518 6.46875 6.21875 C 6.6968208 4.6396138 6.4475228 2.7437039 6.40625 1.96875 C 6.3906264 1.6753707 6.4292505 1.5426152 6.46875 1.5 z M 7.09375 8.34375 C 7.4186585 8.3468204 7.7025386 8.5526549 7.84375 8.875 L 7.84375 8.90625 C 8.0253993 9.346845 7.8155958 9.8495931 7.375 10.03125 C 6.9343981 10.212887 6.4629009 9.9718562 6.28125 9.53125 C 6.0996117 9.0906608 6.3094045 8.5879078 6.75 8.40625 C 6.8584519 8.3615374 6.9854472 8.3427265 7.09375 8.34375 z "
     id="rect11261" />
  <g
     transform="translate(-41.000198,-357)"
     id="layer10" />
  <g
     transform="translate(-41.000198,-357)"
     id="layer11" />
  <g
     transform="translate(-41.000198,-357)"
     id="layer12" />
  <g
     transform="translate(-41.000198,-357)"
     id="layer13" />
  <g
     transform="translate(-41.000198,-357)"
     id="layer14" />
  <g
     transform="translate(-41.000198,-357)"
     id="layer15"
     style="display:inline" />
  <g
     transform="translate(-41.000198,-357)"
     id="g4953"
     style="display:inline" />
</svg>
