<?xml version="1.0" encoding="UTF-8" standalone="no"?>
<!-- Creator: CorelDRAW -->

<svg
   xmlns:dc="http://purl.org/dc/elements/1.1/"
   xmlns:cc="http://creativecommons.org/ns#"
   xmlns:rdf="http://www.w3.org/1999/02/22-rdf-syntax-ns#"
   xmlns:svg="http://www.w3.org/2000/svg"
   xmlns="http://www.w3.org/2000/svg"
   xmlns:xlink="http://www.w3.org/1999/xlink"
   xmlns:sodipodi="http://sodipodi.sourceforge.net/DTD/sodipodi-0.dtd"
   xmlns:inkscape="http://www.inkscape.org/namespaces/inkscape"
   xml:space="preserve"
   width="256"
   height="256"
   style="fill-rule:evenodd"
   viewBox="0 0 256 256"
   id="svg2"
   version="1.1"
   inkscape:version="0.48.3.1 r9886"
   sodipodi:docname="network-server.svg"><metadata
   id="metadata113"><rdf:RDF><cc:Work
       rdf:about=""><dc:format>image/svg+xml</dc:format><dc:type
         rdf:resource="http://purl.org/dc/dcmitype/StillImage" /></cc:Work></rdf:RDF></metadata><sodipodi:namedview
   pagecolor="#ffffff"
   bordercolor="#666666"
   borderopacity="1"
   objecttolerance="10"
   gridtolerance="10"
   guidetolerance="10"
   inkscape:pageopacity="0"
   inkscape:pageshadow="2"
   inkscape:window-width="640"
   inkscape:window-height="480"
   id="namedview111"
   showgrid="false"
   inkscape:zoom="0.78666667"
   inkscape:cx="150"
   inkscape:cy="150"
   inkscape:window-x="0"
   inkscape:window-y="16"
   inkscape:window-maximized="0"
   inkscape:current-layer="svg2" />
 <defs
   id="defs4">
  <style
   type="text/css"
   id="style6">
   
    .fil17 {fill:url(#id8)}
    .fil16 {fill:url(#id9)}
    .fil4 {fill:url(#id10)}
    .fil6 {fill:url(#id11)}
    .fil0 {fill:url(#id12)}
    .fil2 {fill:url(#id13)}
    .fil12 {fill:url(#id14)}
    .fil14 {fill:url(#id15)}
    .fil15 {fill:url(#id16)}
    .fil10 {fill:url(#id17)}
    .fil8 {fill:url(#id18)}
    .fil5 {fill:url(#id19);fill-rule:nonzero}
    .fil7 {fill:url(#id20);fill-rule:nonzero}
    .fil1 {fill:url(#id21);fill-rule:nonzero}
    .fil3 {fill:url(#id22);fill-rule:nonzero}
    .fil13 {fill:url(#id23);fill-rule:nonzero}
    .fil11 {fill:url(#id24);fill-rule:nonzero}
    .fil9 {fill:url(#id25);fill-rule:nonzero}
   
  </style>
     <mask
   id="id0">
  <linearGradient
   id="id1"
   gradientUnits="userSpaceOnUse"
   x1="68.707199"
   y1="67.7286"
   x2="86.7808"
   y2="63.479401">
   <stop
   offset="0"
   style="stop-opacity:1; stop-color:white"
   id="stop10" />
   <stop
   offset="1"
   style="stop-opacity:0; stop-color:white"
   id="stop12" />
  </linearGradient>
      <rect
   style="fill:url(#id1)"
   x="63.4268"
   y="49.294998"
   width="28.634399"
   height="32.617901"
   id="rect14" />
     </mask>
     <mask
   id="id2">
  <linearGradient
   id="id3"
   gradientUnits="userSpaceOnUse"
   x1="198.13499"
   y1="205.957"
   x2="216.209"
   y2="201.70799">
   <stop
   offset="0"
   style="stop-opacity:1; stop-color:white"
   id="stop18" />
   <stop
   offset="1"
   style="stop-opacity:0; stop-color:white"
   id="stop20" />
  </linearGradient>
      <rect
   style="fill:url(#id3)"
   x="192.855"
   y="187.52299"
   width="28.634399"
   height="32.617901"
   id="rect22" />
     </mask>
    <mask
   id="id4">
  <linearGradient
   id="id5"
   gradientUnits="userSpaceOnUse"
   x1="154.311"
   y1="181.08701"
   x2="194.09399"
   y2="231.006">
   <stop
   offset="0"
   style="stop-opacity:1; stop-color:white"
   id="stop26" />
   <stop
   offset="0.65098"
   style="stop-opacity:0.501961; stop-color:white"
   id="stop28" />
   <stop
   offset="1"
   style="stop-opacity:0; stop-color:white"
   id="stop30" />
  </linearGradient>
     <rect
   style="fill:url(#id5)"
   x="96.580299"
   y="153.595"
   width="155.244"
   height="104.904"
   id="rect32" />
    </mask>
    <mask
   id="id6">
  <linearGradient
   id="id7"
   gradientUnits="userSpaceOnUse"
   x1="27.614401"
   y1="42.766201"
   x2="67.3964"
   y2="92.685402">
   <stop
   offset="0"
   style="stop-opacity:1; stop-color:white"
   id="stop36" />
   <stop
   offset="0.65098"
   style="stop-opacity:0.501961; stop-color:white"
   id="stop38" />
   <stop
   offset="1"
   style="stop-opacity:0; stop-color:white"
   id="stop40" />
  </linearGradient>
     <rect
   style="fill:url(#id7)"
   x="-30.1154"
   y="15.2736"
   width="155.242"
   height="104.904"
   id="rect42" />
    </mask>
  <linearGradient
   id="id8"
   gradientUnits="userSpaceOnUse"
   x1="44.957199"
   y1="16.549801"
   x2="50.053501"
   y2="118.902">
   <stop
   offset="0"
   style="stop-color:#E7EEFA"
   id="stop45" />
   <stop
   offset="1"
   style="stop-color:#7DA2E3"
   id="stop47" />
  </linearGradient>
  <linearGradient
   id="id9"
   gradientUnits="userSpaceOnUse"
   xlink:href="#id8"
   x1="171.65401"
   y1="154.871"
   x2="176.75101"
   y2="257.22299">
  </linearGradient>
  <linearGradient
   id="id10"
   gradientUnits="userSpaceOnUse"
   x1="30.761801"
   y1="128.526"
   x2="143.509"
   y2="142.256">
   <stop
   offset="0"
   style="stop-color:#94C9E2"
   id="stop51" />
   <stop
   offset="0.490196"
   style="stop-color:#58A6D8"
   id="stop53" />
   <stop
   offset="0.819608"
   style="stop-color:#50719E"
   id="stop55" />
   <stop
   offset="1"
   style="stop-color:#386EAB"
   id="stop57" />
  </linearGradient>
  <linearGradient
   id="id11"
   gradientUnits="userSpaceOnUse"
   xlink:href="#id10"
   x1="156.089"
   y1="267.30301"
   x2="268.84201"
   y2="281.039">
  </linearGradient>
  <linearGradient
   id="id12"
   gradientUnits="userSpaceOnUse"
   xlink:href="#id10"
   x1="26.914"
   y1="35.430401"
   x2="142.625"
   y2="103.169">
  </linearGradient>
  <linearGradient
   id="id13"
   gradientUnits="userSpaceOnUse"
   xlink:href="#id10"
   x1="153.175"
   y1="173.31799"
   x2="268.89899"
   y2="241.062">
  </linearGradient>
  <linearGradient
   id="id14"
   gradientUnits="userSpaceOnUse"
   xlink:href="#id10"
   x1="68.463501"
   y1="56.151901"
   x2="93.060501"
   y2="76.6492">
  </linearGradient>
  <linearGradient
   id="id15"
   gradientUnits="userSpaceOnUse"
   x1="66.727898"
   y1="62.759602"
   x2="88.760101"
   y2="68.448303">
   <stop
   offset="0"
   style="stop-color:#B3D5E1"
   id="stop64" />
   <stop
   offset="1"
   style="stop-color:white"
   id="stop66" />
  </linearGradient>
  <linearGradient
   id="id16"
   gradientUnits="userSpaceOnUse"
   xlink:href="#id15"
   x1="196.15601"
   y1="200.98801"
   x2="218.188"
   y2="206.67599">
  </linearGradient>
  <linearGradient
   id="id17"
   gradientUnits="userSpaceOnUse"
   xlink:href="#id10"
   x1="167.694"
   y1="72.4636"
   x2="210.59399"
   y2="131.978">
  </linearGradient>
  <linearGradient
   id="id18"
   gradientUnits="userSpaceOnUse"
   xlink:href="#id10"
   x1="83.326103"
   y1="166.007"
   x2="126.225"
   y2="225.521">
  </linearGradient>
  <linearGradient
   id="id19"
   gradientUnits="userSpaceOnUse"
   x1="149.04201"
   y1="141.701"
   x2="25.2281"
   y2="129.08299">
   <stop
   offset="0"
   style="stop-color:#82C7E6"
   id="stop72" />
   <stop
   offset="0.741176"
   style="stop-color:#6690C2"
   id="stop74" />
   <stop
   offset="1"
   style="stop-color:#3C599B"
   id="stop76" />
  </linearGradient>
  <linearGradient
   id="id20"
   gradientUnits="userSpaceOnUse"
   xlink:href="#id19"
   x1="274.37701"
   y1="280.48001"
   x2="150.55499"
   y2="267.86401">
  </linearGradient>
  <linearGradient
   id="id21"
   gradientUnits="userSpaceOnUse"
   xlink:href="#id19"
   x1="149.377"
   y1="98.3797"
   x2="20.1609"
   y2="40.219398">
  </linearGradient>
  <linearGradient
   id="id22"
   gradientUnits="userSpaceOnUse"
   xlink:href="#id19"
   x1="275.651"
   y1="236.271"
   x2="146.42101"
   y2="178.11301">
  </linearGradient>
  <linearGradient
   id="id23"
   gradientUnits="userSpaceOnUse"
   xlink:href="#id19"
   x1="94.726997"
   y1="75.287201"
   x2="66.7957"
   y2="57.513901">
  </linearGradient>
  <linearGradient
   id="id24"
   gradientUnits="userSpaceOnUse"
   xlink:href="#id19"
   x1="214.037"
   y1="127.856"
   x2="163.686"
   y2="74.9412">
  </linearGradient>
  <linearGradient
   id="id25"
   gradientUnits="userSpaceOnUse"
   xlink:href="#id19"
   x1="130.23599"
   y1="223.05"
   x2="79.878304"
   y2="170.13499">
  </linearGradient>
 <linearGradient
   inkscape:collect="always"
   xlink:href="#id10"
   id="linearGradient3090"
   gradientUnits="userSpaceOnUse"
   x1="30.761801"
   y1="128.526"
   x2="143.509"
   y2="142.256" /><linearGradient
   inkscape:collect="always"
   xlink:href="#id19"
   id="linearGradient3092"
   gradientUnits="userSpaceOnUse"
   x1="149.04201"
   y1="141.701"
   x2="25.2281"
   y2="129.08299" /><linearGradient
   inkscape:collect="always"
   xlink:href="#id10"
   id="linearGradient3094"
   gradientUnits="userSpaceOnUse"
   x1="68.463501"
   y1="56.151901"
   x2="93.060501"
   y2="76.6492" /><linearGradient
   inkscape:collect="always"
   xlink:href="#id19"
   id="linearGradient3096"
   gradientUnits="userSpaceOnUse"
   x1="94.726997"
   y1="75.287201"
   x2="66.7957"
   y2="57.513901" /><linearGradient
   inkscape:collect="always"
   xlink:href="#id15"
   id="linearGradient3098"
   gradientUnits="userSpaceOnUse"
   x1="66.727898"
   y1="62.759602"
   x2="88.760101"
   y2="68.448303" /><linearGradient
   inkscape:collect="always"
   xlink:href="#id8"
   id="linearGradient3100"
   gradientUnits="userSpaceOnUse"
   x1="44.957199"
   y1="16.549801"
   x2="50.053501"
   y2="118.902" /></defs>
 <g
   id="Capa_x0020_1"
   transform="matrix(0.86372065,0,0,0.86372065,1.2773518,-5.0233587)">
  <metadata
   id="CorelCorpID_0Corel-Layer" />
  <g
   id="_141826976">
   <path
   id="_147992448"
   class="fil0"
   d="m 47.5234,29.2199 73.9169,0 c 12.6051,0 22.7423,10.1261 22.7423,22.7423 l 0.003,27.2877 c 0,12.6106 -10.14,22.7437 -22.7451,22.7437 l -73.916902,0 c -12.6134,0 -22.7437,-10.1331 -22.7437,-22.7437 l 0,-27.2877 c 0,-12.6189 10.1303,-22.7395 22.7437,-22.7423 z M 33.3072,16.7062 c -12.6161,0 -22.7257,10.1358 -22.7257,22.7437 l 0,59.1305 c 0,12.6189 10.1095,23.3125 22.7229,23.3125 l 102.91,0 c 12.6134,0 22.7437,-10.6936 22.7437,-23.3125 l 0,-59.1305 c 0,-12.6078 -10.1303,-22.7409 -22.7437,-22.7409 L 33.3074,16.7062 z"
   inkscape:connector-curvature="0"
   style="fill:url(#id12)" />
   <path
   id="_141786496"
   class="fil1"
   d="m 47.5234,28.0116 73.9156,0 c 6.63818,0 12.6272,2.66718 16.9567,6.99667 4.32672,4.32672 6.99528,10.3144 6.99528,16.9539 l -0.006,0 0.003,27.2877 0.006,0 c 0,6.6368 -2.66995,12.6258 -6.99805,16.9539 -4.32949,4.32811 -10.3199,6.99805 -16.9567,6.99805 l -73.915602,0 c -6.63957,0 -12.6286,-2.66856 -16.9553,-6.99528 -4.32811,-4.32949 -6.99528,-10.3171 -6.99528,-16.9567 l 0,-27.2877 c 0,-6.64234 2.66718,-12.6286 6.99252,-16.9553 4.32396,-4.32396 10.3144,-6.98975 16.9581,-6.99113 l 0,-0.0042 z m 73.9156,2.41527 -73.9156,0 0,-0.0055 c -5.96828,0.0014 -11.3566,2.40143 -15.2487,6.29493 -3.88935,3.88796 -6.28662,9.27214 -6.28662,15.246 l 0,27.2877 c 0,5.97104 2.39866,11.3566 6.28801,15.2473 3.88935,3.88935 9.27491,6.28801 15.2473,6.28801 l 73.9156,0 c 5.96966,0 11.3566,-2.39866 15.2487,-6.28939 3.89073,-3.89073 6.29077,-9.2763 6.29077,-15.246 l 0.004,0 -0.003,-27.2877 -0.006,0 c 0,-5.97243 -2.39866,-11.3566 -6.28801,-15.246 -3.89073,-3.89073 -9.2763,-6.28939 -15.2473,-6.28939 z M 33.3073,17.91457 c -5.9752,0 -11.3538,2.39589 -15.2349,6.28108 -3.88935,3.89073 -6.28385,9.27906 -6.28385,15.2543 l 0,59.1305 c 0,6.02641 2.42911,11.5905 6.36552,15.628 3.87689,3.97793 9.22232,6.47763 15.1505,6.47763 l 102.91,0 c 5.93091,0 11.2819,-2.50108 15.1629,-6.4804 3.94056,-4.03744 6.37244,-9.60018 6.37244,-15.6252 l 0,-59.1305 c 0,-5.97104 -2.39866,-11.3552 -6.28939,-15.2446 -3.88935,-3.88935 -9.27353,-6.28801 -15.246,-6.28801 l 0,-0.0042 -102.907,-0.0028 0,0.0042 z M 16.363,22.49735 C 20.68834,18.16786 26.6718,15.4993 33.3073,15.4993 l 0,0.0042 102.907,0.0042 0,-0.0055 c 6.63957,0 12.6272,2.66718 16.9553,6.99528 4.32672,4.32672 6.99528,10.3144 6.99528,16.9526 l 0,59.1305 c 0,6.67002 -2.69486,12.8307 -7.06172,17.3055 -4.32257,4.43192 -10.2825,7.21536 -16.8889,7.21536 l -102.91,0 c -6.60497,0 -12.5594,-2.78344 -16.8778,-7.21259 -4.36133,-4.47621 -7.05342,-10.6369 -7.05342,-17.3083 l 0,-59.1305 c 0,-6.63542 2.66441,-12.6245 6.98975,-16.9526 z"
   inkscape:connector-curvature="0"
   style="fill:url(#id21);fill-rule:nonzero" />
   <path
   id="_146415520"
   class="fil2"
   d="m 173.8,167.108 73.9072,0 c 12.6134,0 22.7437,10.1261 22.7437,22.7423 l 0,27.2877 c 0,12.6161 -10.1303,22.7464 -22.7464,22.7464 l -73.9045,0 c -12.6245,0 -22.7437,-10.1303 -22.7437,-22.7464 l 0,-27.2877 c 0,-12.6161 10.1192,-22.7395 22.7437,-22.7423 z m -14.2189,-12.5096 c -12.6134,0 -22.7437,10.1317 -22.7437,22.7423 l 0,59.125 c 0,12.6245 10.1303,23.3208 22.7437,23.3208 l 102.91,-0.003 c 12.6023,0 22.7437,-10.6909 22.7437,-23.3153 l 0,-59.1305 c 0,-12.6078 -10.1414,-22.7395 -22.7464,-22.7395 l -102.907,0 z"
   inkscape:connector-curvature="0"
   style="fill:url(#id13)" />
   <path
   id="_146022640"
   class="fil3"
   d="m 173.8,165.899 73.9086,0 c 6.63957,0 12.6286,2.66718 16.9553,6.99528 4.32672,4.32672 6.9939,10.3144 6.9939,16.9553 l 0,27.2877 c 0,6.64234 -2.66718,12.6314 -6.99528,16.9595 -4.32672,4.32811 -10.3158,6.99528 -16.9581,6.99528 l -73.9045,0 c -6.64511,0 -12.6314,-2.66718 -16.9567,-6.99252 -4.32811,-4.32949 -6.9939,-10.3199 -6.9939,-16.9623 l 0,-27.2877 c 0,-6.64234 2.66579,-12.63 6.99252,-16.9581 4.32257,-4.32119 10.3116,-6.98698 16.9581,-6.98698 l 0,-0.006 z m 73.9086,2.41527 -73.9086,0 0,-0.004 c -5.97243,0 -11.358,2.40004 -15.2501,6.29077 -3.88935,3.88796 -6.28524,9.27491 -6.28524,15.2487 l 0,27.2877 c 0,5.9752 2.39728,11.3621 6.28662,15.2529 3.88796,3.88935 9.27214,6.28662 15.2487,6.28662 l 73.9045,0 c 5.9752,0 11.3594,-2.39866 15.2501,-6.28801 3.89073,-3.89073 6.28801,-9.2763 6.28801,-15.2515 l 0,-27.2877 c 0,-5.97381 -2.39866,-11.358 -6.28662,-15.2473 -3.89073,-3.88935 -9.27491,-6.28801 -15.2473,-6.28801 z m -88.1276,-12.5096 c -5.97243,0 -11.358,2.40004 -15.2473,6.28801 -3.88935,3.89073 -6.28801,9.2763 -6.28801,15.2473 l 0,59.125 c 0,6.02779 2.43326,11.5919 6.37105,15.6321 3.88242,3.9807 9.23339,6.48178 15.1643,6.48178 l 0,0.004 102.91,-0.003 0,-0.004 c 5.92675,0 11.2805,-2.4997 15.1629,-6.48316 3.93779,-4.03744 6.37244,-9.59879 6.37244,-15.6252 l 0,-59.1291 c 0,-5.96966 -2.40004,-11.3538 -6.29077,-15.2432 -3.89211,-3.89073 -9.27768,-6.29077 -15.2473,-6.29077 l -102.907,0 z m -16.9553,4.58002 c 4.32672,-4.32672 10.3158,-6.99528 16.9553,-6.99528 l 102.907,0 c 6.6368,0 12.6272,2.66995 16.9553,6.99805 4.32811,4.32672 6.99805,10.3144 6.99805,16.9512 l 0,59.1291 c 0,6.6714 -2.69624,12.8307 -7.06172,17.3055 -4.32396,4.4333 -10.2867,7.21813 -16.8889,7.21813 l 0,-0.006 -102.91,0.003 0,0.006 c -6.60635,0 -12.5677,-2.78483 -16.8903,-7.21813 -4.36548,-4.47621 -7.06034,-10.6383 -7.06034,-17.311 l 0,-59.125 c 0,-6.63818 2.66718,-12.6272 6.99528,-16.9553 z"
   inkscape:connector-curvature="0"
   style="fill:url(#id22);fill-rule:nonzero" />
   <path
   id="_141803472"
   class="fil4"
   d="m 21.2073,124.765 131.87,0 c 3.37722,0 6.10807,2.73915 6.10807,6.11222 l 0,9.01332 c 0,3.39245 -2.73361,6.12883 -6.11084,6.12883 l -131.867,0 c -3.37722,0 -6.12191,-2.73638 -6.12191,-6.12883 l 0,-9.01332 c 0,-3.37307 2.74192,-6.10946 6.12191,-6.11222 z"
   inkscape:connector-curvature="0"
   style="fill:url(#linearGradient3090)" />
   <path
   id="_52905752"
   class="fil5"
   d="m 21.2073,123.557 131.871,0 c 2.01803,0 3.84644,0.82216 5.17241,2.14814 1.32182,1.32459 2.1426,3.15577 2.1426,5.17241 l 0,9.01332 c 0,2.02633 -0.81801,3.85889 -2.14122,5.18487 -1.32598,1.33013 -3.15854,2.15229 -5.17795,2.15229 l -131.867,0 c -2.01941,0 -3.85474,-0.82216 -5.18487,-2.15367 -1.32321,-1.32459 -2.14398,-3.15854 -2.14398,-5.18349 l 0,-9.01332 c 0,-2.01665 0.822161,-3.84782 2.1509,-5.1738 1.32321,-1.32044 3.15577,-2.13983 5.17795,-2.1426 l 0,-0.004 z m 131.871,2.41527 -131.871,0 0,-0.004 c -1.35504,0 -2.5869,0.55364 -3.47965,1.44363 -0.885829,0.88444 -1.43394,2.11077 -1.43394,3.46581 l 0,9.01332 c 0,1.36473 0.550875,2.59659 1.43809,3.48519 0.887214,0.88721 2.11769,1.4367 3.4755,1.4367 l 131.867,0 c 1.35781,0 2.58413,-0.54949 3.46996,-1.43532 0.88444,-0.8886 1.43394,-2.12045 1.43394,-3.48657 l 0,-9.01332 c 0,-1.35643 -0.54949,-2.58551 -1.4367,-3.47411 -0.88306,-0.88306 -2.108,-1.43117 -3.46304,-1.43117 z"
   inkscape:connector-curvature="0"
   style="fill:url(#linearGradient3092);fill-rule:nonzero" />
   <path
   id="_52127880"
   class="fil6"
   d="m 146.541,263.548 131.861,0 c 3.37584,0 6.11914,2.73361 6.11914,6.10946 l 0,9.02992 c 0,3.37584 -2.74607,6.10946 -6.12191,6.10946 l -131.858,0 c -3.37722,0 -6.13022,-2.73361 -6.13022,-6.10946 l 0.003,-9.02992 c 0,-3.37584 2.75022,-6.10946 6.12745,-6.10946 z"
   inkscape:connector-curvature="0"
   style="fill:url(#id11)" />
   <path
   id="_143791936"
   class="fil7"
   d="m 146.541,262.34 131.861,0 c 2.01941,0 3.85059,0.81939 5.17657,2.1426 1.32736,1.32736 2.14952,3.15854 2.14952,5.17518 l 0,9.02992 c 0,2.01803 -0.82355,3.84782 -2.1509,5.1738 -1.32736,1.32459 -3.15992,2.14398 -5.17795,2.14398 l -131.858,0 c -2.01941,0 -3.85474,-0.82078 -5.18349,-2.14537 -1.33013,-1.32459 -2.15367,-3.153 -2.15367,-5.17241 l 0.004,0 0.001,-9.02992 -0.004,0 c 0,-2.01803 0.82493,-3.84782 2.15367,-5.1738 1.32874,-1.32459 3.16407,-2.14398 5.1821,-2.14398 z m 131.861,2.41527 -131.861,0 c -1.35919,0 -2.59244,0.54949 -3.4838,1.43809 -0.88583,0.88306 -1.4367,2.10938 -1.4367,3.46442 l -0.004,0 -0.003,9.02992 0.006,0 c 0,1.35504 0.55087,2.58136 1.43809,3.46442 0.88998,0.8886 2.12322,1.43809 3.4838,1.43809 l 131.858,0 c 1.35919,0 2.58967,-0.54949 3.47965,-1.4367 0.88444,-0.88445 1.43394,-2.10938 1.43394,-3.46581 l 0,-9.02992 c 0,-1.35643 -0.5495,-2.58136 -1.43394,-3.46581 -0.8886,-0.88721 -2.11907,-1.4367 -3.47688,-1.4367 z"
   inkscape:connector-curvature="0"
   style="fill:url(#id20);fill-rule:nonzero" />
   <path
   id="_141127936"
   class="fil8"
   d="m 91.884,149.23 0,66.3445 21.2585,0 0,-10.2992 19.3277,19.3083 c 0,0 -13.5961,11.8134 -19.4952,17.7166 0,-6.74476 -0.14948,-9.99188 -0.14948,-9.99188 0,0 -20.556804,0 -35.744604,0 0,-8.35863 0,-82.4292 0,-82.4292 l 14.803,-0.64915 z"
   inkscape:connector-curvature="0"
   style="fill:url(#id18)" />
   <path
   id="_146808232"
   class="fil9"
   d="m 93.0924,149.23 0,65.1348 18.8419,0 0,-9.08944 0,-2.9094 2.05817,2.0554 19.3277,19.3083 0.92182,0.92182 -0.98826,0.84707 c -0.0387,0.0332 -13.556,11.7801 -19.4246,17.6515 l -2.06232,2.06371 0,-2.91355 c 0,-4.4416 -0.0623,-7.33439 -0.10519,-8.78494 l -34.5792,0 -1.20833,0 0,-1.20833 0,-82.4292 0,-1.15158 1.15573,-0.0512 14.803,-0.64776 1.25954,-0.0554 0,1.25815 z m -2.41527,66.3431 0,-65.0849 -12.3878,0.54257 0,80.0693 34.5363,0 1.11006,0 0.0927,1.10867 c 0,0.007 0.11072,2.38482 0.14394,7.24166 5.3648,-5.12397 13.7013,-12.4501 16.5332,-14.9262 l -16.356,-16.3394 0,7.38837 0,1.20833 -1.20694,0 -21.258498,0 -1.20694,0 0,-1.20833 z"
   inkscape:connector-curvature="0"
   style="fill:url(#id25);fill-rule:nonzero" />
   <path
   id="_52840824"
   class="fil10"
   d="m 202.011,148.757 0,-66.3445 -21.2502,0 0,10.3075 -19.3069,-19.3194 c 0,0 13.5836,-11.8244 19.4869,-17.7138 0,6.73922 0.13703,9.98911 0.13703,9.98911 0,-0.0028 20.5568,0 35.7557,0 0,8.37247 0,82.4237 0,82.4237 l -14.8224,0.65745 z"
   inkscape:connector-curvature="0"
   style="fill:url(#id17)" />
   <path
   id="_141874768"
   class="fil11"
   d="m 200.802,148.756 0,-65.1348 -18.8349,0 0,9.09913 0,2.91216 -2.06094,-2.06232 -19.3069,-19.3208 -0.91905,-0.917664 0.98964,-0.847074 c 0.0388,-0.03322 13.5463,-11.7898 19.4204,-17.6515 l 2.05817,-2.05125 0,2.90663 c 0,4.45821 0.0554,7.32747 0.0955,8.78494 l 4.72535,0 0,-0.0055 12.5027,0 0,0.0055 17.3609,0 1.20833,0.0014 0,1.20141 0,82.423708 0,1.15296 -1.15711,0.0498 -14.8224,0.65607 -1.25954,0.0567 0,-1.25954 z m 2.41527,-66.3431 0,65.0849 12.4085,-0.54949 0,-80.069301 -16.1539,0 0,0.0042 -12.5027,0 0,-0.0042 -5.89215,0 -1.15296,0.0014 -0.0498,-1.15573 c -0.001,-0.03322 -0.10104,-2.41665 -0.13287,-7.19044 -5.36204,5.11567 -13.6958,12.4473 -16.5263,14.9262 l 16.3366,16.3463 0,-7.39391 0,-1.20694 1.20833,0 21.2502,0 1.20694,0 0,1.20694 z"
   inkscape:connector-curvature="0"
   style="fill:url(#id24);fill-rule:nonzero" />
   <g
   id="g99">
    <path
   id="_141672432"
   class="fil12"
   d="m 96.4834,66.3971 c 0,8.76279 -7.04096,15.8702 -15.7249,15.8702 -8.67836,0 -15.7193,-7.10463 -15.7193,-15.8702 0,-8.76279 7.04096,-15.8619 15.7193,-15.8619 8.6839,0 15.7249,7.09909 15.7249,15.8619 z"
   inkscape:connector-curvature="0"
   style="fill:url(#linearGradient3094)" />
    <path
   id="_143659040"
   class="fil13"
   d="m 96.9097,66.3971 c 0,4.49697 -1.80903,8.5704 -4.73088,11.5199 -2.92324,2.94954 -6.96207,4.77517 -11.4203,4.77517 -4.45683,0 -8.49289,-1.82564 -11.4161,-4.77517 -2.92047,-2.94954 -4.7295,-7.02297 -4.7295,-11.5199 0,-4.49558 1.80765,-8.56625 4.7295,-11.5144 2.92324,-2.94954 6.9593,-4.77241 11.4161,-4.77241 4.4596,0 8.49704,1.82287 11.4203,4.77102 2.92185,2.94815 4.73088,7.0202 4.73088,11.5158 z m -5.33297,10.922 c 2.76822,-2.79452 4.48174,-6.65618 4.48174,-10.922 0,-4.26582 -1.71214,-8.12472 -4.48036,-10.9178 -2.76822,-2.79175 -6.59389,-4.51911 -10.8196,-4.51911 -4.22292,0 -8.04721,1.72737 -10.8154,4.5205 -2.76683,2.79175 -4.47898,6.65064 -4.47898,10.9165 0,4.26582 1.71214,8.12749 4.48036,10.922 2.76683,2.79313 6.59113,4.52188 10.814,4.52188 4.22568,0 8.04998,-1.72875 10.8182,-4.52188 z"
   inkscape:connector-curvature="0"
   style="fill:url(#linearGradient3096);fill-rule:nonzero" />
    <path
   id="_141836000"
   class="fil14"
   style="fill:url(#linearGradient3098)"
   d="m 66.0151,66.0995 c 1.08929,-13.6625 14.6771,-18.59 23.4994,-10.3891 4.0416,3.75785 -3.25958,18.0654 -8.93857,23.6835 -3.25681,3.21944 -9.51298,-1.00071 -12.5469,-5.36619 -2.21319,-3.1876 -1.70799,-6.1233 -2.01388,-7.92817 z"
   mask="url(#id0)"
   inkscape:connector-curvature="0" />
   </g>
   <g
   id="g104">
    <path
   id="_141467616"
   class="fil12"
   d="m 225.913,204.627 c 0,8.76418 -7.04234,15.8702 -15.7249,15.8702 -8.67836,0 -15.7207,-7.10463 -15.7207,-15.8702 0,-8.76279 7.04234,-15.8619 15.7207,-15.8619 8.68251,0 15.7249,7.09909 15.7249,15.8619 z"
   inkscape:connector-curvature="0"
   style="fill:url(#id14)" />
    <path
   id="_53172904"
   class="fil13"
   d="m 226.338,204.627 c 0,4.49697 -1.80765,8.5704 -4.73088,11.5199 -2.92324,2.94954 -6.96068,4.77517 -11.4189,4.77517 -4.45683,0 -8.49427,-1.82564 -11.4161,-4.77517 -2.92185,-2.94954 -4.7295,-7.02297 -4.7295,-11.5199 0,-4.49558 1.80765,-8.56625 4.7295,-11.5144 2.92185,-2.94954 6.9593,-4.77241 11.4161,-4.77241 4.45821,0 8.49704,1.82287 11.4189,4.77241 2.92324,2.94677 4.73088,7.01881 4.73088,11.5144 z m -5.33159,10.922 c 2.76822,-2.79452 4.48036,-6.65618 4.48036,-10.922 0,-4.26582 -1.71214,-8.12472 -4.48036,-10.9165 -2.76822,-2.79313 -6.59389,-4.5205 -10.8182,-4.5205 -4.22292,0 -8.04721,1.72737 -10.8154,4.5205 -2.76822,2.79175 -4.48036,6.65203 -4.48036,10.9165 0,4.26582 1.71353,8.12749 4.48036,10.922 2.76822,2.79452 6.59251,4.52188 10.8154,4.52188 4.2243,0 8.04998,-1.72737 10.8182,-4.52188 z"
   inkscape:connector-curvature="0"
   style="fill:url(#id23);fill-rule:nonzero" />
    <path
   id="_141157328"
   class="fil15"
   style="fill:url(#id16)"
   d="m 195.444,204.329 c 1.08791,-13.6625 14.6757,-18.59 23.498,-10.3891 4.04298,3.75785 -3.25958,18.0654 -8.93857,23.6835 -3.25542,3.22082 -9.51298,-1.00071 -12.5469,-5.36619 -2.21319,-3.18622 -1.70799,-6.1233 -2.01249,-7.92817 z"
   mask="url(#id2)"
   inkscape:connector-curvature="0" />
   </g>
   <path
   id="path4267"
   class="fil16"
   style="fill:url(#id9)"
   d="m 140.688,238.252 c -2.11215,19.7028 37.2048,28.8628 23.9506,7.28872 -3.03535,-4.93712 -14.7975,-3.03812 -14.8847,-11.4577 l -0.59101,-56.0439 c 3.84229,-8.63269 14.0736,-13.6487 25.0067,-13.3013 l 62.4233,-0.33357 c 12.3462,-0.065 14.4266,-6.22987 14.7048,-6.81812 -5.24439,0 -63.305,-0.018 -90.9678,0.0512 -4.4679,0.01 -19.6391,3.21805 -19.6391,18.2536 -1.38411,21.134 -0.22977,41.025 -0.003,62.361 z"
   inkscape:connector-curvature="0"
   sodipodi:nodetypes="ccsczzcszzc"
   mask="url(#id4)" />
   <path
   id="path4267_0"
   class="fil17"
   style="fill:url(#linearGradient3100)"
   d="m 13.9906,99.9299 c -2.11353,19.7028 37.2048,28.8642 23.9506,7.2901 -3.03535,-4.93712 -14.7975,-3.0395 -14.8861,-11.459 L 22.46547,39.7184 c 3.8409,-8.63407 14.0736,-13.6501 25.0067,-13.3027 l 62.4219,-0.332186 c 12.3476,-0.06505 14.4279,-6.23126 14.7048,-6.8195 -5.243,0 -63.305,-0.01799 -90.9664,0.05121 -4.4679,0.01107 -19.6405,3.21944 -19.6405,18.255 -1.38411,21.1326 -0.228378,41.025 -0.0014,62.3596 z"
   inkscape:connector-curvature="0"
   sodipodi:nodetypes="ccsczzcszzc"
   mask="url(#id6)" />
  </g>
 </g>
</svg>