<?xml version="1.0" encoding="UTF-8"?>
<!DOCTYPE svg PUBLIC "-//W3C//DTD SVG 1.1//EN" "http://www.w3.org/Graphics/SVG/1.1/DTD/svg11.dtd">
<!-- Creator: CorelDRAW -->
<svg xmlns="http://www.w3.org/2000/svg" xml:space="preserve" width="300px" height="300px" style="shape-rendering:geometricPrecision; text-rendering:geometricPrecision; image-rendering:optimizeQuality; fill-rule:evenodd; clip-rule:evenodd"
viewBox="0 0 300 300"
 xmlns:xlink="http://www.w3.org/1999/xlink">
 <defs>
  <style type="text/css">
   <![CDATA[
    .fil5 {fill:url(#id2)}
    .fil0 {fill:url(#id3)}
    .fil7 {fill:url(#id4)}
    .fil3 {fill:url(#id5);fill-rule:nonzero}
    .fil1 {fill:url(#id6);fill-rule:nonzero}
    .fil4 {fill:url(#id7);fill-rule:nonzero}
    .fil2 {fill:url(#id8);fill-rule:nonzero}
    .fil6 {fill:url(#id9);fill-rule:nonzero}
   ]]>
  </style>
     <mask id="id0">
  <linearGradient id="id1" gradientUnits="userSpaceOnUse" x1="124.548" y1="150.493" x2="159.585" y2="142.257">
   <stop offset="0" style="stop-opacity:1; stop-color:white"/>
   <stop offset="1" style="stop-opacity:0; stop-color:white"/>
  </linearGradient>
      <rect style="fill:url(#id1)" x="115.609" y="116.059" width="52.9145" height="60.6323"/>
     </mask>
  <linearGradient id="id2" gradientUnits="userSpaceOnUse" x1="124.076" y1="128.052" x2="171.758" y2="167.787">
   <stop offset="0" style="stop-color:#94C9E2"/>
   <stop offset="0.490196" style="stop-color:#58A6D8"/>
   <stop offset="0.819608" style="stop-color:#50719E"/>
   <stop offset="1" style="stop-color:#386EAB"/>
  </linearGradient>
  <linearGradient id="id3" gradientUnits="userSpaceOnUse" xlink:href="#id2" x1="42.517" y1="72.8013" x2="259.754" y2="226.246">
  </linearGradient>
  <linearGradient id="id4" gradientUnits="userSpaceOnUse" x1="120.709" y1="140.861" x2="163.423" y2="151.889">
   <stop offset="0" style="stop-color:#B3D5E1"/>
   <stop offset="1" style="stop-color:white"/>
  </linearGradient>
  <linearGradient id="id5" gradientUnits="userSpaceOnUse" x1="74.5301" y1="251.915" x2="14.6425" y2="219.513">
   <stop offset="0" style="stop-color:#82C7E6"/>
   <stop offset="0.741176" style="stop-color:#6690C2"/>
   <stop offset="1" style="stop-color:#3C599B"/>
  </linearGradient>
  <linearGradient id="id6" gradientUnits="userSpaceOnUse" xlink:href="#id5" x1="70.1176" y1="76.2755" x2="15.2307" y2="46.5794">
  </linearGradient>
  <linearGradient id="id7" gradientUnits="userSpaceOnUse" xlink:href="#id5" x1="286.924" y1="251.819" x2="229.722" y2="220.871">
  </linearGradient>
  <linearGradient id="id8" gradientUnits="userSpaceOnUse" xlink:href="#id5" x1="287.096" y1="75.3273" x2="233.368" y2="46.2583">
  </linearGradient>
  <linearGradient id="id9" gradientUnits="userSpaceOnUse" xlink:href="#id5" x1="174.987" y1="165.149" x2="120.844" y2="130.693">
  </linearGradient>
 </defs>
 <g id="Capa_x0020_1">
  <metadata id="CorelCorpID_0Corel-Layer"/>
  <g id="_142318672">
   <path id="_147463264" class="fil0" d="M292.084 199.475l-70.6394 70.638 63.6316 0c3.80907,0 7.00221,-3.20283 7.00221,-7.00082l0.00553643 -63.6372zm-281.903 -1.27061l0 64.9078c0,3.79799 3.21528,7.00082 7.00221,7.00082l64.9175 0 -71.9197 -71.9086zm215.09 -169.265l66.8123 66.8178 0 -59.817c0,-3.79799 -3.20421,-7.00082 -7.00774,-7.00082l-59.8046 0zm-208.083 0c-3.79246,0 -7.00774,3.20283 -7.00774,7.00082l0 61.0862 68.0926 -68.0871 -61.0849 0z"/>
   <path id="_140999920" class="fil1" d="M17.1892 31.1383c-1.29553,0 -2.50108,0.553643 -3.38276,1.43394 -0.874757,0.873373 -1.42563,2.07201 -1.42563,3.36892l0 55.7768 60.5852 -60.5797 -55.7768 0z"/>
   <path id="_147927024" class="fil2" d="M230.581 31.1383l59.3035 59.3091 0 -54.5062c0,-1.29968 -0.550875,-2.49832 -1.42425,-3.37169 -0.878909,-0.878909 -2.08308,-1.43117 -3.38415,-1.43117l-54.4951 0z"/>
   <path id="_53526568" class="fil3" d="M12.3809 203.514l0 59.5983c0,1.29137 0.555028,2.48863 1.43394,3.36754l-0.00415233 0.00553643c0.880293,0.876141 2.08032,1.4284 3.37307,1.4284l59.608 0 -64.4109 -64.3998z"/>
   <path id="_142031944" class="fil4" d="M289.893 204.776l-63.1389 63.1375 58.3222 0c1.30245,0 2.4997,-0.548107 3.37169,-1.41871l0.00830465 -0.00968876c0.873373,-0.873373 1.42148,-2.07339 1.42148,-3.37307l0.00968876 0 0.00553643 -58.336z"/>
   <g>
    <path id="_140991448" class="fil5" d="M178.394 147.913c0,16.9885 -13.6501,30.7646 -30.4822,30.7646 -16.8238,0 -30.4739,-13.7719 -30.4739,-30.7646 0,-16.9844 13.6501,-30.748 30.4739,-30.748 16.8321,0 30.4822,13.7636 30.4822,30.748z"/>
    <path id="_142738912" class="fil6" d="M179.219 147.913c0,8.7185 -3.50595,16.6148 -9.1711,22.3326 -5.66654,5.71775 -13.4937,9.25553 -22.136,9.25553 -8.63961,0 -16.4654,-3.5364 -22.1305,-9.25692 -5.66377,-5.71637 -9.16834,-13.6127 -9.16834,-22.3312 0,-8.71435 3.50456,-16.6052 9.16834,-22.3201 5.66516,-5.71637 13.4909,-9.25138 22.1305,-9.25138 8.64237,0 16.4709,3.53501 22.1374,9.25138 5.66516,5.7136 9.16972,13.6058 9.16972,22.3201zm-10.3365 21.1727c5.36619,-5.41602 8.68667,-12.9013 8.68667,-21.1727 0,-8.26728 -3.31909,-15.7498 -8.68528,-21.1616 -5.36619,-5.41325 -12.7822,-8.76141 -20.972,-8.76141 -8.18562,0 -15.6003,3.34816 -20.9651,8.76279 -5.3648,5.41186 -8.6839,12.893 -8.6839,21.1603 0,8.27143 3.31909,15.7567 8.6839,21.1727 5.36619,5.41602 12.7795,8.76694 20.9651,8.76694 8.18977,0 15.6044,-3.35093 20.9706,-8.76694z"/>
    <path id="_146285312" class="fil7" style="mask:url(#id0)" d="M119.332 147.337c2.108,-26.4849 28.449,-36.0367 45.5496,-20.1388 7.83544,7.28595 -6.31846,35.0193 -17.3277,45.9095 -6.31015,6.24095 -18.4419,-1.93914 -24.3216,-10.403 -4.28935,-6.17589 -3.31217,-11.8673 -3.90042,-15.3678z"/>
   </g>
  </g>
 </g>
</svg>
