<?xml version="1.0" encoding="UTF-8" standalone="no"?>
<!-- Creator: CorelDRAW -->

<svg
   xmlns:dc="http://purl.org/dc/elements/1.1/"
   xmlns:cc="http://creativecommons.org/ns#"
   xmlns:rdf="http://www.w3.org/1999/02/22-rdf-syntax-ns#"
   xmlns:svg="http://www.w3.org/2000/svg"
   xmlns="http://www.w3.org/2000/svg"
   xmlns:xlink="http://www.w3.org/1999/xlink"
   xmlns:sodipodi="http://sodipodi.sourceforge.net/DTD/sodipodi-0.dtd"
   xmlns:inkscape="http://www.inkscape.org/namespaces/inkscape"
   xml:space="preserve"
   width="256"
   height="256"
   style="fill-rule:evenodd"
   viewBox="0 0 256 256"
   id="svg2"
   version="1.1"
   inkscape:version="0.48.3.1 r9886"
   sodipodi:docname="start_here.svg"><metadata
   id="metadata64"><rdf:RDF><cc:Work
       rdf:about=""><dc:format>image/svg+xml</dc:format><dc:type
         rdf:resource="http://purl.org/dc/dcmitype/StillImage" /></cc:Work></rdf:RDF></metadata><sodipodi:namedview
   pagecolor="#ffffff"
   bordercolor="#666666"
   borderopacity="1"
   objecttolerance="10"
   gridtolerance="10"
   guidetolerance="10"
   inkscape:pageopacity="0"
   inkscape:pageshadow="2"
   inkscape:window-width="624"
   inkscape:window-height="480"
   id="namedview62"
   showgrid="false"
   inkscape:zoom="0.44500587"
   inkscape:cx="430.35118"
   inkscape:cy="188.41522"
   inkscape:window-x="16"
   inkscape:window-y="16"
   inkscape:window-maximized="0"
   inkscape:current-layer="svg2" />
 <defs
   id="defs4">
  <style
   type="text/css"
   id="style6">
   
    .fil4 {fill:#94C9E2;fill-rule:nonzero}
    .fil5 {fill:url(#id4)}
    .fil3 {fill:url(#id5)}
    .fil0 {fill:url(#id6)}
    .fil2 {fill:url(#id7)}
    .fil1 {fill:url(#id8);fill-rule:nonzero}
   
  </style>
     <mask
   id="id0">
  <linearGradient
   id="id1"
   gradientUnits="userSpaceOnUse"
   x1="1134.92"
   y1="1979.87"
   x2="1665.39"
   y2="1855.14">
   <stop
   offset="0"
   style="stop-opacity:1; stop-color:white"
   id="stop10" />
   <stop
   offset="1"
   style="stop-opacity:0; stop-color:white"
   id="stop12" />
  </linearGradient>
      <rect
   style="fill:url(#id1)"
   x="1019.39"
   y="1478.3"
   width="761.52399"
   height="878.41602"
   id="rect14" />
     </mask>
    <mask
   id="id2">
  <linearGradient
   id="id3"
   gradientUnits="userSpaceOnUse"
   x1="224.524"
   y1="1728.51"
   x2="1779.1801"
   y2="1531.28">
   <stop
   offset="0"
   style="stop-opacity:1; stop-color:white"
   id="stop18" />
   <stop
   offset="0.439216"
   style="stop-opacity:0.501961; stop-color:white"
   id="stop20" />
   <stop
   offset="1"
   style="stop-opacity:0; stop-color:white"
   id="stop22" />
  </linearGradient>
     <rect
   style="fill:url(#id3)"
   x="-53.0672"
   y="501.72299"
   width="2109.8401"
   height="2256.3501"
   id="rect24" />
    </mask>
  <linearGradient
   id="id4"
   gradientUnits="userSpaceOnUse"
   x1="116.705"
   y1="1629.9"
   x2="1887"
   y2="1629.9">
   <stop
   offset="0"
   style="stop-color:#B3D5E1"
   id="stop27" />
   <stop
   offset="1"
   style="stop-color:white"
   id="stop29" />
  </linearGradient>
  <linearGradient
   id="id5"
   gradientUnits="userSpaceOnUse"
   x1="374.81601"
   y1="825.20697"
   x2="2642.4299"
   y2="2013.64">
   <stop
   offset="0"
   style="stop-color:#94C9E2"
   id="stop32" />
   <stop
   offset="0.490196"
   style="stop-color:#58A6D8"
   id="stop34" />
   <stop
   offset="0.819608"
   style="stop-color:#50719E"
   id="stop36" />
   <stop
   offset="1"
   style="stop-color:#386EAB"
   id="stop38" />
  </linearGradient>
  <linearGradient
   id="id6"
   gradientUnits="userSpaceOnUse"
   xlink:href="#id5"
   x1="1127.78"
   y1="1640.1"
   x2="1849.74"
   y2="2241.7">
  </linearGradient>
  <linearGradient
   id="id7"
   gradientUnits="userSpaceOnUse"
   xlink:href="#id4"
   x1="1076.8199"
   y1="1834.02"
   x2="1723.48"
   y2="2000.98">
  </linearGradient>
  <linearGradient
   id="id8"
   gradientUnits="userSpaceOnUse"
   x1="1898.62"
   y1="2201.76"
   x2="1078.85"
   y2="1680.08">
   <stop
   offset="0"
   style="stop-color:#82C7E6"
   id="stop43" />
   <stop
   offset="0.741176"
   style="stop-color:#6690C2"
   id="stop45" />
   <stop
   offset="1"
   style="stop-color:#3C599B"
   id="stop47" />
  </linearGradient>
 <linearGradient
   inkscape:collect="always"
   xlink:href="#id5"
   id="linearGradient3041"
   gradientUnits="userSpaceOnUse"
   x1="374.81601"
   y1="825.20697"
   x2="2642.4299"
   y2="2013.64" /><linearGradient
   inkscape:collect="always"
   xlink:href="#id4"
   id="linearGradient3043"
   gradientUnits="userSpaceOnUse"
   x1="116.705"
   y1="1629.9"
   x2="1887"
   y2="1629.9" /></defs>
 <g
   id="Capa_x0020_1"
   transform="matrix(0.08095298,0,0,0.08095298,7.4135687,9.5617902)">
  <metadata
   id="CorelCorpID_0Corel-Layer" />
  <g
   id="_48571496">
   <g
   id="g52">
    <path
   id="_81933368"
   class="fil0"
   d="m 1950.19,1940.81 c 0,257.212 -206.678,465.78 -461.527,465.78 -254.707,0 -461.384,-208.521 -461.384,-465.78 0,-257.166 206.677,-465.545 461.384,-465.545 254.849,0 461.527,208.379 461.527,465.545 z"
   inkscape:connector-curvature="0"
   style="fill:url(#id6)" />
    <path
   id="_81941112"
   class="fil1"
   d="m 1962.67,1940.8 c 0,131.991 -53.0707,251.543 -138.851,338.113 -85.7906,86.584 -204.3,140.149 -335.152,140.149 -130.802,0 -249.287,-53.5605 -335.067,-140.16 -85.7449,-86.5594 -138.806,-206.101 -138.806,-338.102 0,-131.945 53.0566,-251.428 138.802,-337.943 85.7754,-86.5488 204.265,-140.084 335.072,-140.084 130.856,0 249.376,53.5254 335.171,140.07 85.7695,86.5137 138.831,206.006 138.831,337.957 z m -156.497,320.568 c 81.2566,-82.0055 131.531,-195.353 131.531,-320.568 0,-125.18 -50.2641,-238.461 -131.511,-320.412 -81.2461,-81.9562 -193.529,-132.65 -317.525,-132.65 -123.942,0 -236.195,50.7 -317.427,132.666 -81.2262,81.9551 -131.481,195.221 -131.481,320.396 0,125.225 50.2652,238.562 131.487,320.557 81.2355,82.0102 193.484,132.739 317.421,132.739 123.991,0 236.259,-50.7293 317.505,-132.729 z"
   inkscape:connector-curvature="0"
   style="fill:url(#id8);fill-rule:nonzero" />
    <path
   id="_81938912"
   class="fil2"
   style="fill:url(#id7)"
   d="m 1055.96,1932.08 c 31.9242,-400.996 430.744,-545.616 689.647,-304.923 118.655,110.306 -95.652,530.214 -262.354,695.105 -95.5324,94.493 -279.205,-29.3672 -368.224,-157.511 -64.957,-93.5168 -50.1504,-179.679 -59.0695,-232.671 z"
   mask="url(#id0)"
   inkscape:connector-curvature="0" />
   </g>
   <g
   id="g57">
    <path
   id="_81932904"
   class="fil3"
   d="m 2945.92,2384.36 c -291.92,0 -207.18,-4.35 -533.034,-4.35 -23.0695,-1094.78 -406.247,-1428.35 -934.871,-1438.8 -528.37,-10.2105 -858.442,272.91 -870.008,1437.78 0,0 -274.473,2.4164 -536.678,2.4164 0,-1048.26 167.752,-1926.85999 1416.91,-1926.85999 1249.41,-0.0598 1457.68,853.28899 1457.68,1929.81999 z"
   inkscape:connector-curvature="0"
   style="fill:url(#linearGradient3041)" />
    <path
   id="_81937664"
   class="fil4"
   d="m 2945.92,2400.26 c -138.997,0 -193.554,-1.0805 -249.523,-2.1457 -55.7836,-1.0805 -113.231,-2.2078 -283.508,-2.2078 l -16.4039,0 -0.3352,-15.573 c -11.4469,-543.926 -111.921,-898.152 -274.835,-1117.22 -161.201,-216.776 -384.571,-300.96201 -643.641,-306.07901 -258.498,-5.00625 -468.321,61.47891 -614.47896,271.08901 -148.242,212.58 -232.699,571.86 -238.447,1150.98 l -0.15117,15.525 -16.4543,0.1746 c -3.19336,0.032 -280.045,2.4785 -536.811998,2.4785 l -16.807,0 0,-15.8895 c 0,-526.288 42.3047,-1010.34 242.043998,-1363.98 201,-355.84798 559.805,-578.77398 1191.66003,-578.77398 l 0,0.0644 c 631.791,-0.0316 1000.75,216.362 1211.95,569.20698 210.008,350.8581 262.548,835.8301 262.548,1376.4501 l 0,15.8906 -16.807,0 z m -248.85,-33.7992 c 50.5559,0.9539 99.8695,1.9395 232.025,2.0191 -1.0242,-529.481 -53.666,-1003.46 -258.061,-1344.92 C 2465.782,680.64694 2105.818,470.35394 1488.224,470.37094 l 0,0.0633 c -617.252,0 -966.981,216.41 -1162.11,561.89796 -194.378,344.168 -237.12,817.397 -237.96,1333.18 223.891,-0.08 442.741,-1.732 503.298,-2.2242 7.17656,-576.596 93.382,-936.878 243.775,-1152.54 153.821,-220.58898 373.26,-290.56998 643.119,-285.35698 269.507,5.32266 502.121,93.19688 670.397,319.49098 165.015,221.876 267.322,577.215 280.516,1119.25 152.242,0.08 210.798,1.2234 267.81,2.3356 z"
   inkscape:connector-curvature="0"
   style="fill:#94c9e2;fill-rule:nonzero" />
   </g>
   <path
   id="_78788280"
   class="fil5"
   style="fill:url(#linearGradient3043)"
   d="m 99.5496,2351.75 c 50.8758,-345.214 -183.339,-2229.13 1956.05,-1781.16 -198.316,365.22 -216.834,362.113 -584.837,319.289 -586.464,-68.2406 -946.934,495.581 -892.548,1458.29 l -478.663,3.5859 z"
   mask="url(#id2)"
   inkscape:connector-curvature="0" />
  </g>
 </g>
</svg>