<?xml version="1.0" encoding="UTF-8" standalone="no"?>
<!-- Creator: CorelDRAW -->

<svg
   xmlns:dc="http://purl.org/dc/elements/1.1/"
   xmlns:cc="http://creativecommons.org/ns#"
   xmlns:rdf="http://www.w3.org/1999/02/22-rdf-syntax-ns#"
   xmlns:svg="http://www.w3.org/2000/svg"
   xmlns="http://www.w3.org/2000/svg"
   xmlns:xlink="http://www.w3.org/1999/xlink"
   xmlns:sodipodi="http://sodipodi.sourceforge.net/DTD/sodipodi-0.dtd"
   xmlns:inkscape="http://www.inkscape.org/namespaces/inkscape"
   xml:space="preserve"
   width="256"
   height="256"
   style="fill-rule:evenodd"
   viewBox="0 0 256 256"
   id="svg2"
   version="1.1"
   inkscape:version="0.48.3.1 r9886"
   sodipodi:docname="text-x-generic-template.svg"><metadata
   id="metadata49"><rdf:RDF><cc:Work
       rdf:about=""><dc:format>image/svg+xml</dc:format><dc:type
         rdf:resource="http://purl.org/dc/dcmitype/StillImage" /></cc:Work></rdf:RDF></metadata><sodipodi:namedview
   pagecolor="#ffffff"
   bordercolor="#666666"
   borderopacity="1"
   objecttolerance="10"
   gridtolerance="10"
   guidetolerance="10"
   inkscape:pageopacity="0"
   inkscape:pageshadow="2"
   inkscape:window-width="640"
   inkscape:window-height="480"
   id="namedview47"
   showgrid="false"
   inkscape:zoom="0.78666667"
   inkscape:cx="150"
   inkscape:cy="150"
   inkscape:window-x="0"
   inkscape:window-y="16"
   inkscape:window-maximized="0"
   inkscape:current-layer="svg2" />
 <defs
   id="defs4"><style
     type="text/css"
     id="style6">
   
    .fil4 {fill:url(#id2)}
    .fil2 {fill:url(#id3)}
    .fil0 {fill:url(#id4)}
    .fil3 {fill:url(#id5);fill-rule:nonzero}
    .fil1 {fill:url(#id6);fill-rule:nonzero}
   
  </style><mask
     id="id0">
  <linearGradient
   id="id1"
   gradientUnits="userSpaceOnUse"
   x1="108.871"
   y1="92.170601"
   x2="262.853"
   y2="241.754">
   <stop
   offset="0"
   style="stop-opacity:1; stop-color:white"
   id="stop10" />
   <stop
   offset="1"
   style="stop-opacity:0; stop-color:white"
   id="stop12" />
  </linearGradient>
     <rect
   style="fill:url(#id1)"
   x="42.8423"
   y="27.845501"
   width="286.04001"
   height="278.23401"
   id="rect14" />
    </mask><linearGradient
     id="id2"
     gradientUnits="userSpaceOnUse"
     x1="80.418098"
     y1="166.96201"
     x2="291.306"
     y2="166.96201">
   <stop
   offset="0"
   style="stop-color:#B3D5E1"
   id="stop17" />
   <stop
   offset="1"
   style="stop-color:white"
   id="stop19" />
  </linearGradient><linearGradient
     id="id3"
     gradientUnits="userSpaceOnUse"
     x1="208.174"
     y1="30.681499"
     x2="265.68399"
     y2="88.998199">
   <stop
   offset="0"
   style="stop-color:#94C9E2"
   id="stop22" />
   <stop
   offset="0.490196"
   style="stop-color:#58A6D8"
   id="stop24" />
   <stop
   offset="0.819608"
   style="stop-color:#50719E"
   id="stop26" />
   <stop
   offset="1"
   style="stop-color:#386EAB"
   id="stop28" />
  </linearGradient><linearGradient
     id="id4"
     gradientUnits="userSpaceOnUse"
     xlink:href="#id3"
     x1="64.784599"
     y1="58.252998"
     x2="244.35899"
     y2="240.30901">
  </linearGradient><linearGradient
     id="id5"
     gradientUnits="userSpaceOnUse"
     x1="272.29999"
     y1="87.632103"
     x2="198.089"
     y2="36.665001">
   <stop
   offset="0"
   style="stop-color:#82C7E6"
   id="stop32" />
   <stop
   offset="0.741176"
   style="stop-color:#6690C2"
   id="stop34" />
   <stop
   offset="1"
   style="stop-color:#3C599B"
   id="stop36" />
  </linearGradient><linearGradient
     id="id6"
     gradientUnits="userSpaceOnUse"
     xlink:href="#id5"
     x1="260.189"
     y1="221.661"
     x2="48.953201"
     y2="76.899696">
  </linearGradient><linearGradient
     inkscape:collect="always"
     xlink:href="#id3"
     id="linearGradient3026"
     gradientUnits="userSpaceOnUse"
     x1="208.174"
     y1="30.681499"
     x2="265.68399"
     y2="88.998199" /><linearGradient
     inkscape:collect="always"
     xlink:href="#id5"
     id="linearGradient3028"
     gradientUnits="userSpaceOnUse"
     x1="272.29999"
     y1="87.632103"
     x2="198.089"
     y2="36.665001" /></defs>
 <g
   id="Capa_x0020_1"
   transform="matrix(0.89218103,0,0,0.89218103,-8.0984994,-4.5306739)">
  <metadata
   id="CorelCorpID_0Corel-Layer" />
  <g
   id="_83631032">
   <path
   id="_88387656"
   class="fil0"
   d="m 72.3778,17.8633 107.805,0 95.1187,102.604 0,117.184 c 0,23.3278 -16.792,43.0472 -37.9855,43.0472 l -164.939,0 c -21.1976,0 -38.5377,-19.0896 -38.5377,-42.4243 l 0,-177.987 c 0,-23.3361 17.3401,-42.4243 38.5377,-42.4243 z"
   inkscape:connector-curvature="0"
   style="fill:url(#id4)" />
   <path
   id="_83560232"
   class="fil1"
   d="m 72.3764,15.0203 107.805,0 1.23047,0 0.84569,0.910743 95.1187,102.604997 0.7668,0.82493 0,1.1059 0,117.186 c 0,12.4487 -4.53434,23.9506 -11.9172,32.3162 -7.35792,8.33925 -17.5394,13.5712 -28.9099,13.5712 l -164.940004,0 c -11.4327,0 -21.8094,-5.12951 -29.314,-13.3926 -7.44235,-8.19392 -12.0639,-19.4786 -12.0639,-31.8733 l 0,-177.987998 c 0,-12.3947 4.62154,-23.6766 12.0639,-31.8705 7.50464,-8.26313 17.8813,-13.3954 29.314,-13.3954 z m 106.574,5.68453 -106.574,0 c -9.76212,0 -18.655,4.41669 -25.1174,11.5296 -6.52469,7.18352 -10.576,17.1145 -10.576,28.0517 l 0,177.988 c 0,10.9386 4.05129,20.8696 10.576,28.0531 6.4624,7.11432 15.3553,11.5296 25.1174,11.5296 l 164.94,0 c 9.66938,0 18.3602,-4.48866 24.669,-11.639 6.48732,-7.351 10.4735,-17.5173 10.4735,-28.5652 l 0,-116.08 -93.509,-100.868 z"
   inkscape:connector-curvature="0"
   style="fill:url(#id6);fill-rule:nonzero" />
   <path
   id="_83588648"
   class="fil2"
   d="m 198.268,17.7429 77.3218,84.1939 -1.1059,-49.2673 C 274.66522,34.1667 258.7826,18.1609 241.347,17.7429 l -43.079,0 z"
   inkscape:connector-curvature="0"
   style="fill:url(#linearGradient3026)" />
   <path
   id="_83733896"
   class="fil3"
   d="m 204.728,20.5858 67.8615,73.8906 -0.93704,-41.753 0,-0.07751 c 0.0803,-8.38631 -3.45889,-16.2342 -8.99947,-22.0751 -5.63332,-5.93783 -13.3041,-9.78565 -21.3042,-9.99465 l 0,0.0097 -36.6207,0 z m 68.775,83.2721 -77.3232,-84.1939 -4.37655,-4.76272 6.46379,0 43.0818,0 0.0664,0.01107 c 9.58357,0.229762 18.7062,4.75441 25.3444,11.7511 6.48455,6.83473 10.6313,16.057 10.5538,25.959 l 1.10729,49.259 0.16747,7.51433 -5.08521,-5.53782 z"
   inkscape:connector-curvature="0"
   style="fill:url(#linearGradient3028);fill-rule:nonzero" />
   <path
   id="path4267"
   class="fil4"
   style="fill:url(#id2)"
   d="m 43.371,68.3805 c 0,17.4135 0,164.187 0,164.187 0,0 -0.766796,37.7848 34.4352,39.1703 26.9403,1.04639 57.4045,0 57.4045,0 37.836,0.7668 56.4177,8.8929 123.216,-52.3248 2.92324,-17.9837 28.1832,-69.038 6.26309,-93.5408 l -87.2362,-97.4994 -110.235,0.430458 c -24.0669,0 -23.8371,22.0253 -23.8371,39.4499 l -0.01107,0.127338 z"
   inkscape:connector-curvature="0"
   sodipodi:nodetypes="ccsczzcszzc"
   mask="url(#id0)" />
  </g>
 </g>
</svg>