<?xml version="1.0" encoding="UTF-8" standalone="no"?>
<!-- Creator: CorelDRAW -->

<svg
   xmlns:dc="http://purl.org/dc/elements/1.1/"
   xmlns:cc="http://creativecommons.org/ns#"
   xmlns:rdf="http://www.w3.org/1999/02/22-rdf-syntax-ns#"
   xmlns:svg="http://www.w3.org/2000/svg"
   xmlns="http://www.w3.org/2000/svg"
   xmlns:xlink="http://www.w3.org/1999/xlink"
   xmlns:sodipodi="http://sodipodi.sourceforge.net/DTD/sodipodi-0.dtd"
   xmlns:inkscape="http://www.inkscape.org/namespaces/inkscape"
   xml:space="preserve"
   width="256"
   height="256"
   style="fill-rule:evenodd"
   viewBox="0 0 256 256"
   id="svg2"
   version="1.1"
   inkscape:version="0.48.3.1 r9886"
   sodipodi:docname="user-trash.svg"><metadata
   id="metadata121"><rdf:RDF><cc:Work
       rdf:about=""><dc:format>image/svg+xml</dc:format><dc:type
         rdf:resource="http://purl.org/dc/dcmitype/StillImage" /><dc:title /></cc:Work></rdf:RDF></metadata><sodipodi:namedview
   pagecolor="#ffffff"
   bordercolor="#666666"
   borderopacity="1"
   objecttolerance="10"
   gridtolerance="10"
   guidetolerance="10"
   inkscape:pageopacity="0"
   inkscape:pageshadow="2"
   inkscape:window-width="640"
   inkscape:window-height="480"
   id="namedview119"
   showgrid="false"
   inkscape:zoom="0.78666667"
   inkscape:cx="150"
   inkscape:cy="150"
   inkscape:window-x="0"
   inkscape:window-y="16"
   inkscape:window-maximized="0"
   inkscape:current-layer="svg2" />
 <defs
   id="defs4"><style
     type="text/css"
     id="style6">
   
    .fil2 {fill:url(#id10)}
    .fil0 {fill:url(#id11)}
    .fil4 {fill:url(#id12)}
    .fil6 {fill:url(#id13)}
    .fil16 {fill:url(#id14)}
    .fil13 {fill:url(#id15)}
    .fil7 {fill:url(#id16)}
    .fil10 {fill:url(#id17)}
    .fil3 {fill:url(#id18)}
    .fil5 {fill:url(#id19)}
    .fil18 {fill:url(#id20)}
    .fil15 {fill:url(#id21)}
    .fil9 {fill:url(#id22)}
    .fil12 {fill:url(#id23)}
    .fil1 {fill:url(#id24);fill-rule:nonzero}
    .fil14 {fill:url(#id25);fill-rule:nonzero}
    .fil17 {fill:url(#id26);fill-rule:nonzero}
    .fil11 {fill:url(#id27);fill-rule:nonzero}
    .fil8 {fill:url(#id28);fill-rule:nonzero}
   
  </style><mask
     id="id0">
  <linearGradient
   id="id1"
   gradientUnits="userSpaceOnUse"
   x1="50.277699"
   y1="75.458801"
   x2="179.39799"
   y2="203.98199">
   <stop
   offset="0"
   style="stop-opacity:1; stop-color:white"
   id="stop10" />
   <stop
   offset="0.439216"
   style="stop-opacity:0.501961; stop-color:white"
   id="stop12" />
   <stop
   offset="1"
   style="stop-opacity:0; stop-color:white"
   id="stop14" />
  </linearGradient>
      <rect
   style="fill:url(#id1)"
   x="6.1163802"
   y="-12.068"
   width="217.44299"
   height="303.577"
   id="rect16" />
     </mask><mask
     id="id2">
  <linearGradient
   id="id3"
   gradientUnits="userSpaceOnUse"
   x1="147.304"
   y1="39.228401"
   x2="185.242"
   y2="30.3092">
   <stop
   offset="0"
   style="stop-opacity:1; stop-color:white"
   id="stop20" />
   <stop
   offset="1"
   style="stop-opacity:0; stop-color:white"
   id="stop22" />
  </linearGradient>
      <rect
   style="fill:url(#id3)"
   x="137.74001"
   y="2.0567901"
   width="57.066799"
   height="65.424004"
   id="rect24" />
     </mask><mask
     id="id4">
  <linearGradient
   id="id5"
   gradientUnits="userSpaceOnUse"
   x1="145.78999"
   y1="109.998"
   x2="188.799"
   y2="99.885597">
   <stop
   offset="0"
   style="stop-opacity:1; stop-color:white"
   id="stop28" />
   <stop
   offset="1"
   style="stop-opacity:0; stop-color:white"
   id="stop30" />
  </linearGradient>
      <rect
   style="fill:url(#id5)"
   x="135.132"
   y="68.042801"
   width="64.325104"
   height="73.797897"
   id="rect32" />
     </mask><mask
     id="id6">
  <linearGradient
   id="id7"
   gradientUnits="userSpaceOnUse"
   x1="137.47501"
   y1="75.438103"
   x2="99.102203"
   y2="66.419197">
   <stop
   offset="0"
   style="stop-opacity:1; stop-color:white"
   id="stop36" />
   <stop
   offset="1"
   style="stop-opacity:0; stop-color:white"
   id="stop38" />
  </linearGradient>
      <rect
   style="fill:url(#id7)"
   x="89.443901"
   y="37.8568"
   width="57.689602"
   height="66.143799"
   id="rect40" />
     </mask><mask
     id="id8">
  <linearGradient
   id="id9"
   gradientUnits="userSpaceOnUse"
   x1="175.409"
   y1="182.85201"
   x2="130.94901"
   y2="172.40199">
   <stop
   offset="0"
   style="stop-opacity:1; stop-color:white"
   id="stop44" />
   <stop
   offset="1"
   style="stop-opacity:0; stop-color:white"
   id="stop46" />
  </linearGradient>
      <rect
   style="fill:url(#id9)"
   x="119.98"
   y="139.53101"
   width="66.398499"
   height="76.192398"
   id="rect48" />
     </mask><linearGradient
     id="id10"
     gradientUnits="userSpaceOnUse"
     x1="16.0875"
     y1="139.72"
     x2="213.589"
     y2="139.72">
   <stop
   offset="0"
   style="stop-color:#B3D5E1"
   id="stop51" />
   <stop
   offset="1"
   style="stop-color:white"
   id="stop53" />
  </linearGradient><linearGradient
     id="id11"
     gradientUnits="userSpaceOnUse"
     x1="34.465698"
     y1="98.998398"
     x2="265.479"
     y2="253.16901">
   <stop
   offset="0"
   style="stop-color:#94C9E2"
   id="stop56" />
   <stop
   offset="0.490196"
   style="stop-color:#58A6D8"
   id="stop58" />
   <stop
   offset="0.819608"
   style="stop-color:#50719E"
   id="stop60" />
   <stop
   offset="1"
   style="stop-color:#386EAB"
   id="stop62" />
  </linearGradient><linearGradient
     id="id24"
     gradientUnits="userSpaceOnUse"
     x1="276.36401"
     y1="240.427"
     x2="23.66"
     y2="111.725">
   <stop
   offset="0"
   style="stop-color:#82C7E6"
   id="stop77" />
   <stop
   offset="0.741176"
   style="stop-color:#6690C2"
   id="stop79" />
   <stop
   offset="1"
   style="stop-color:#3C599B"
   id="stop81" />
  </linearGradient><linearGradient
     inkscape:collect="always"
     xlink:href="#id11"
     id="linearGradient3129"
     gradientUnits="userSpaceOnUse"
     x1="34.465698"
     y1="98.998398"
     x2="265.479"
     y2="253.16901" /><linearGradient
     inkscape:collect="always"
     xlink:href="#id24"
     id="linearGradient3131"
     gradientUnits="userSpaceOnUse"
     x1="276.36401"
     y1="240.427"
     x2="23.66"
     y2="111.725" /><linearGradient
     inkscape:collect="always"
     xlink:href="#id10"
     id="linearGradient3133"
     gradientUnits="userSpaceOnUse"
     x1="16.0875"
     y1="139.72"
     x2="213.589"
     y2="139.72" /></defs>
 <g
   id="g90"
   transform="matrix(0.82864024,0,0,0.82864024,5.367025,6.7001225)">
    <path
   id="_143788544"
   class="fil0"
   d="m 3.41321,58.8246 65.968,-1.19033 c 0,0 34.8851,140.738 41.4873,155.446 6.58836,14.6992 17.7041,27.033 35.4484,26.8711 17.7512,-0.16609 29.3846,-6.04163 35.7751,-24.6482 4.75026,-13.7968 46.9725,-157.669 46.9725,-157.669 l 67.4684,0 c 0,0 -45.032,137.355 -55.9637,182.258 -10.94,44.87 -63.5804,54.6391 -92.0529,54.6391 -28.496,0 -82.8112,-11.7359 -94.7824,-57.1997 -5.06584,-21.2779 -50.3207,-178.507 -50.3207,-178.507 z"
   inkscape:connector-curvature="0"
   style="fill:url(#linearGradient3129)" />
    <path
   id="_140981208"
   class="fil1"
   d="m 3.39107,57.4917 65.9694,-1.19033 1.06161,-0.01938 0.25606,1.032551 c 0.09966,0.404159 34.8574,140.627999 41.407,155.223999 3.47965,7.76208 8.2396,14.8404 14.5913,19.653 5.33297,4.04298 11.812,6.49839 19.6308,6.4278 8.62438,-0.0803 15.7415,-1.53221 21.4371,-5.19871 5.66654,-3.64851 9.99188,-9.54897 13.0826,-18.5498 4.75718,-13.8176 46.8369,-157.2 46.9573,-157.613 l 0.28236,-0.961955 0.99794,0 67.4684,0 1.84363,0 -0.57302,1.7509 c -0.12872,0.394471 -45.0251,137.331005 -55.9374,182.158005 -4.60493,18.8875 -16.4238,31.6795 -30.759,40.1876 -20.3104,12.057 -45.6784,15.4771 -62.5908,15.4771 -16.882,0 -42.7454,-4.08312 -63.709101,-16.7339 -14.8861,-8.98425 -27.3112,-22.2745 -32.3646,-41.4651 l -0.01107,-0.0318 C 47.368506,216.37454 2.2562761,59.640643 2.1275761,59.189643 l -0.480286,-1.66647 1.74398,-0.03184 z m 64.9507,1.49484 -63.1638,1.13912 c 4.83608,16.8169 45.0873,156.864 49.857,176.897 l -0.0014,0 c 4.85407,18.399 16.8155,31.1701 31.1535,39.8222 20.4793,12.3587 45.7932,16.3491 62.3292,16.3491 16.5761,0 41.4153,-3.33847 61.2302,-15.1006 13.7719,-8.17316 25.1188,-20.4391 29.5258,-38.5156 10.2396,-42.0589 50.1726,-164.561 55.4169,-180.605 l -64.6254,0 c -3.67896,12.5276 -42.1849,143.63 -46.7081,156.766 -3.29695,9.60571 -7.98492,15.9477 -14.1691,19.9298 -6.15651,3.9627 -13.7331,5.53228 -22.8586,5.61671 -8.46936,0.0761 -15.4868,-2.58275 -21.2613,-6.96068 -6.74476,-5.11151 -11.7677,-12.5566 -15.4162,-20.6993 -6.32814,-14.0985 -38.1419,-141.885 -41.3087,-154.638 z"
   inkscape:connector-curvature="0"
   style="fill:url(#linearGradient3131);fill-rule:nonzero" />
    <path
   id="_53543664"
   class="fil2"
   style="fill:url(#linearGradient3133)"
   d="m 7.50048,62.2918 c 7.70256,25.2752 34.6498,118.017 54.8052,181.358 12.9054,40.5599 77.1267,55.8972 117.847,40.744 11.7829,-9.73167 -22.1582,-44.07 -28.9791,-41.2534 -53.2148,21.9672 -65.3161,-116.024 -86.3462,-181.628 l -57.327,0.779253 z"
   mask="url(#id0)"
   inkscape:connector-curvature="0" />
   </g>
</svg>