<?xml version="1.0" encoding="UTF-8"?>
<!DOCTYPE svg PUBLIC "-//W3C//DTD SVG 1.1//EN" "http://www.w3.org/Graphics/SVG/1.1/DTD/svg11.dtd">
<!-- Creator: CorelDRAW -->
<svg xmlns="http://www.w3.org/2000/svg" xml:space="preserve" width="300px" height="300px" style="shape-rendering:geometricPrecision; text-rendering:geometricPrecision; image-rendering:optimizeQuality; fill-rule:evenodd; clip-rule:evenodd"
viewBox="0 0 300 300"
 xmlns:xlink="http://www.w3.org/1999/xlink">
 <defs>
  <style type="text/css">
   <![CDATA[
    .fil0 {fill:url(#id4)}
    .fil2 {fill:url(#id5)}
    .fil4 {fill:url(#id6)}
    .fil5 {fill:url(#id7)}
    .fil1 {fill:url(#id8);fill-rule:nonzero}
    .fil3 {fill:url(#id9);fill-rule:nonzero}
   ]]>
  </style>
     <mask id="id0">
  <linearGradient id="id1" gradientUnits="userSpaceOnUse" x1="128.921" y1="208.196" x2="164.759" y2="199.773">
   <stop offset="0" style="stop-opacity:1; stop-color:white"/>
   <stop offset="1" style="stop-opacity:0; stop-color:white"/>
  </linearGradient>
      <rect style="fill:url(#id1)" x="119.811" y="173.008" width="54.0577" height="61.9527"/>
     </mask>
    <mask id="id2">
  <linearGradient id="id3" gradientUnits="userSpaceOnUse" x1="49.439" y1="118.084" x2="178.524" y2="101.707">
   <stop offset="0" style="stop-opacity:1; stop-color:white"/>
   <stop offset="0.439216" style="stop-opacity:0.501961; stop-color:white"/>
   <stop offset="1" style="stop-opacity:0; stop-color:white"/>
  </linearGradient>
     <rect style="fill:url(#id3)" x="-11.1642" y="50.1684" width="250.291" height="119.454"/>
    </mask>
  <linearGradient id="id4" gradientUnits="userSpaceOnUse" x1="36.1861" y1="84.5552" x2="267.177" y2="215.448">
   <stop offset="0" style="stop-color:#94C9E2"/>
   <stop offset="0.490196" style="stop-color:#58A6D8"/>
   <stop offset="0.819608" style="stop-color:#50719E"/>
   <stop offset="1" style="stop-color:#386EAB"/>
  </linearGradient>
  <linearGradient id="id5" gradientUnits="userSpaceOnUse" xlink:href="#id4" x1="128.44" y1="185.245" x2="177.212" y2="225.887">
  </linearGradient>
  <linearGradient id="id6" gradientUnits="userSpaceOnUse" x1="124.997" y1="198.344" x2="168.683" y2="209.625">
   <stop offset="0" style="stop-color:#B3D5E1"/>
   <stop offset="1" style="stop-color:white"/>
  </linearGradient>
  <linearGradient id="id7" gradientUnits="userSpaceOnUse" xlink:href="#id6" x1="37.2491" y1="109.895" x2="190.714" y2="109.895">
  </linearGradient>
  <linearGradient id="id8" gradientUnits="userSpaceOnUse" x1="279.685" y1="205.301" x2="23.6724" y2="94.7076">
   <stop offset="0" style="stop-color:#82C7E6"/>
   <stop offset="0.741176" style="stop-color:#6690C2"/>
   <stop offset="1" style="stop-color:#3C599B"/>
  </linearGradient>
  <linearGradient id="id9" gradientUnits="userSpaceOnUse" xlink:href="#id8" x1="180.514" y1="223.188" x2="125.134" y2="187.945">
  </linearGradient>
 </defs>
 <g id="Capa_x0020_1">
  <metadata id="CorelCorpID_0Corel-Layer"/>
  <g id="_143662352">
   <path id="_141208176" class="fil0" d="M53.5816 251.349l0 -93.4315 -50.3636 0 64.4386 -109.756 168.629 -0.0373709 63.86 109.793 -44.6555 0 0 93.9616 -49.5622 0c0,0 0.786174,-80.2741 0.786174,-93.9616 0,-13.693 -13.9421,-53.9332 -53.4723,-53.201 -39.5246,0.726657 -52.4217,43.1316 -52.4217,53.201 0,10.0694 -0.524577,93.437 -0.524577,93.437l-46.7137 -0.00553643z"/>
   <path id="_145691760" class="fil1" d="M52.5394 251.349l0 -92.3892 -49.3213 0 -1.81595 0 0.920432 -1.5682 64.4386 -109.756 0.300352 -0.51212 0.595167 0 168.629 -0.0373709 0.599319 0 0.300352 0.516273 63.86 109.793 0.909359 1.56404 -1.80903 0 -43.6133 0 0 92.9194 0 1.04362 -1.04223 0 -49.5622 0 -1.04777 0 0.00968876 -1.05192c0.00138411,-0.228378 0.782021,-79.3869 0.782021,-93.9533l0.00415233 0 -0.00415233 -0.375093c-0.125954,-6.81535 -3.58207,-19.7651 -11.7234,-31.0414 -8.10396,-11.2279 -20.8724,-20.7519 -39.6464,-20.7519 -0.48859,0 -0.837386,0.00138411 -1.04362,0.00553643 -14.6286,0.268517 -25.5327,6.3752 -33.4359,14.3947 -13.0549,13.2487 -17.9602,31.6407 -17.9602,37.7682 0,9.73997 -0.527345,93.2003 -0.528729,93.4412l-0.00692054 1.03393 -1.03116 0 -46.7137 -0.00553643 -1.04223 0 0 -1.03808zm2.08585 -93.4315l0 92.3934 44.6375 0.00415233c0.0595167,-9.55865 0.513504,-82.6673 0.513504,-92.3976 0,-6.3932 5.06999,-25.5327 18.5637,-39.2256 8.24237,-8.36555 19.6184,-14.7338 34.8851,-15.0148 0.503816,-0.00830465 0.863684,-0.0138411 1.07684,-0.0138411 19.5782,0 32.8878,9.92406 41.3323,21.6239 8.40984,11.65 11.9836,25.1119 12.1151,32.222l0 0.00830465 0.00276822 0.391703 0.00415233 0.00830465c0,11.9698 -0.687902,83.4175 -0.779253,92.9194l47.4708 0 0 -92.9194 0 -1.04223 1.04223 0 42.8451 0 -62.6489 -107.713 -167.434 0.0373709 -63.2164 107.675 48.5462 0 1.04362 0 0 1.04223z"/>
   <g>
    <path id="_141458560" class="fil2" d="M183.998 205.558c0,17.3775 -13.9615,31.4663 -31.1784,31.4663 -17.2072,0 -31.1687,-14.0861 -31.1687,-31.4663 0,-17.3719 13.9615,-31.4497 31.1687,-31.4497 17.2169,0 31.1784,14.0778 31.1784,31.4497z"/>
    <path id="_141386336" class="fil3" d="M184.842 205.558c0,8.91781 -3.58623,16.9941 -9.3801,22.8419 -5.79665,5.84924 -13.8023,9.46869 -22.6426,9.46869 -8.83615,0 -16.8404,-3.61944 -22.6357,-9.46869 -5.79249,-5.84786 -9.37734,-13.9241 -9.37734,-22.8419 0,-8.91366 3.58484,-16.9844 9.37734,-22.8295 5.79526,-5.84647 13.7996,-9.46315 22.6357,-9.46315 8.8403,0 16.8474,3.61529 22.644,9.46177 5.79388,5.84509 9.37872,13.9172 9.37872,22.8309zm-10.5732 21.6571c5.48937,-5.54059 8.88598,-13.1975 8.88598,-21.6571 0,-8.45552 -3.39522,-16.1096 -8.88459,-21.6447 -5.48799,-5.53782 -13.0743,-8.9621 -21.4509,-8.9621 -8.37247,0 -15.956,3.42567 -21.444,8.9621 -5.48661,5.53643 -8.88182,13.1892 -8.88182,21.6447 0,8.45967 3.39522,16.1166 8.88182,21.6558 5.48937,5.54059 13.0715,8.96764 21.444,8.96764 8.37663,0 15.9615,-3.42705 21.4495,-8.96626z"/>
    <path id="_141421632" class="fil4" style="mask:url(#id0)" d="M123.587 204.97c2.15783,-27.0898 29.0995,-36.8602 46.5905,-20.5997 8.01676,7.45204 -6.4624,35.818 -17.7235,46.9573 -6.4541,6.38489 -18.8626,-1.98343 -24.8752,-10.6383 -4.38901,-6.31846 -3.38968,-12.1386 -3.99177,-15.7193z"/>
   </g>
   <path id="_141686208" class="fil5" style="mask:url(#id2)" d="M10.0071 153.995l60.815 -102.442 164.869 0.726657c10.5774,63.0226 -22.3063,65.3853 -35.9315,65.8656 -8.17316,0.289279 -19.4564,-19.6945 -38.2263,-20.4502 -16.7353,-0.675445 -31.3514,-2.99383 -49.4736,20.7063 -5.78834,7.57107 -12.893,19.0107 -17.3277,35.1799l-84.7254 0.413848z"/>
  </g>
 </g>
</svg>
