<?xml version="1.0" encoding="UTF-8" standalone="no"?>
<!-- Creator: CorelDRAW -->

<svg
   xmlns:dc="http://purl.org/dc/elements/1.1/"
   xmlns:cc="http://creativecommons.org/ns#"
   xmlns:rdf="http://www.w3.org/1999/02/22-rdf-syntax-ns#"
   xmlns:svg="http://www.w3.org/2000/svg"
   xmlns="http://www.w3.org/2000/svg"
   xmlns:xlink="http://www.w3.org/1999/xlink"
   xmlns:sodipodi="http://sodipodi.sourceforge.net/DTD/sodipodi-0.dtd"
   xmlns:inkscape="http://www.inkscape.org/namespaces/inkscape"
   xml:space="preserve"
   width="256"
   height="256"
   style="fill-rule:evenodd"
   viewBox="0 0 256 256"
   id="svg2"
   version="1.1"
   inkscape:version="0.48.3.1 r9886"
   sodipodi:docname="user-trash-full.svg"><metadata
   id="metadata121"><rdf:RDF><cc:Work
       rdf:about=""><dc:format>image/svg+xml</dc:format><dc:type
         rdf:resource="http://purl.org/dc/dcmitype/StillImage" /></cc:Work></rdf:RDF></metadata><sodipodi:namedview
   pagecolor="#ffffff"
   bordercolor="#666666"
   borderopacity="1"
   objecttolerance="10"
   gridtolerance="10"
   guidetolerance="10"
   inkscape:pageopacity="0"
   inkscape:pageshadow="2"
   inkscape:window-width="640"
   inkscape:window-height="480"
   id="namedview119"
   showgrid="false"
   inkscape:zoom="0.78666667"
   inkscape:cx="150"
   inkscape:cy="150"
   inkscape:window-x="0"
   inkscape:window-y="16"
   inkscape:window-maximized="0"
   inkscape:current-layer="svg2" />
 <defs
   id="defs4"><style
     type="text/css"
     id="style6">
   
    .fil2 {fill:url(#id10)}
    .fil0 {fill:url(#id11)}
    .fil4 {fill:url(#id12)}
    .fil6 {fill:url(#id13)}
    .fil16 {fill:url(#id14)}
    .fil13 {fill:url(#id15)}
    .fil7 {fill:url(#id16)}
    .fil10 {fill:url(#id17)}
    .fil3 {fill:url(#id18)}
    .fil5 {fill:url(#id19)}
    .fil18 {fill:url(#id20)}
    .fil15 {fill:url(#id21)}
    .fil9 {fill:url(#id22)}
    .fil12 {fill:url(#id23)}
    .fil1 {fill:url(#id24);fill-rule:nonzero}
    .fil14 {fill:url(#id25);fill-rule:nonzero}
    .fil17 {fill:url(#id26);fill-rule:nonzero}
    .fil11 {fill:url(#id27);fill-rule:nonzero}
    .fil8 {fill:url(#id28);fill-rule:nonzero}
   
  </style><mask
     id="id0">
  <linearGradient
   id="id1"
   gradientUnits="userSpaceOnUse"
   x1="50.277699"
   y1="75.458801"
   x2="179.39799"
   y2="203.98199">
   <stop
   offset="0"
   style="stop-opacity:1; stop-color:white"
   id="stop10" />
   <stop
   offset="0.439216"
   style="stop-opacity:0.501961; stop-color:white"
   id="stop12" />
   <stop
   offset="1"
   style="stop-opacity:0; stop-color:white"
   id="stop14" />
  </linearGradient>
      <rect
   style="fill:url(#id1)"
   x="6.1163802"
   y="-12.068"
   width="217.44299"
   height="303.577"
   id="rect16" />
     </mask><mask
     id="id2">
  <linearGradient
   id="id3"
   gradientUnits="userSpaceOnUse"
   x1="147.304"
   y1="39.228401"
   x2="185.242"
   y2="30.3092">
   <stop
   offset="0"
   style="stop-opacity:1; stop-color:white"
   id="stop20" />
   <stop
   offset="1"
   style="stop-opacity:0; stop-color:white"
   id="stop22" />
  </linearGradient>
      <rect
   style="fill:url(#id3)"
   x="137.74001"
   y="2.0567901"
   width="57.066799"
   height="65.424004"
   id="rect24" />
     </mask><mask
     id="id4">
  <linearGradient
   id="id5"
   gradientUnits="userSpaceOnUse"
   x1="145.78999"
   y1="109.998"
   x2="188.799"
   y2="99.885597">
   <stop
   offset="0"
   style="stop-opacity:1; stop-color:white"
   id="stop28" />
   <stop
   offset="1"
   style="stop-opacity:0; stop-color:white"
   id="stop30" />
  </linearGradient>
      <rect
   style="fill:url(#id5)"
   x="135.132"
   y="68.042801"
   width="64.325104"
   height="73.797897"
   id="rect32" />
     </mask><mask
     id="id6">
  <linearGradient
   id="id7"
   gradientUnits="userSpaceOnUse"
   x1="137.47501"
   y1="75.438103"
   x2="99.102203"
   y2="66.419197">
   <stop
   offset="0"
   style="stop-opacity:1; stop-color:white"
   id="stop36" />
   <stop
   offset="1"
   style="stop-opacity:0; stop-color:white"
   id="stop38" />
  </linearGradient>
      <rect
   style="fill:url(#id7)"
   x="89.443901"
   y="37.8568"
   width="57.689602"
   height="66.143799"
   id="rect40" />
     </mask><mask
     id="id8">
  <linearGradient
   id="id9"
   gradientUnits="userSpaceOnUse"
   x1="175.409"
   y1="182.85201"
   x2="130.94901"
   y2="172.40199">
   <stop
   offset="0"
   style="stop-opacity:1; stop-color:white"
   id="stop44" />
   <stop
   offset="1"
   style="stop-opacity:0; stop-color:white"
   id="stop46" />
  </linearGradient>
      <rect
   style="fill:url(#id9)"
   x="119.98"
   y="139.53101"
   width="66.398499"
   height="76.192398"
   id="rect48" />
     </mask><linearGradient
     id="id10"
     gradientUnits="userSpaceOnUse"
     x1="16.0875"
     y1="139.72"
     x2="213.589"
     y2="139.72">
   <stop
   offset="0"
   style="stop-color:#B3D5E1"
   id="stop51" />
   <stop
   offset="1"
   style="stop-color:white"
   id="stop53" />
  </linearGradient><linearGradient
     id="id11"
     gradientUnits="userSpaceOnUse"
     x1="34.465698"
     y1="98.998398"
     x2="265.479"
     y2="253.16901">
   <stop
   offset="0"
   style="stop-color:#94C9E2"
   id="stop56" />
   <stop
   offset="0.490196"
   style="stop-color:#58A6D8"
   id="stop58" />
   <stop
   offset="0.819608"
   style="stop-color:#50719E"
   id="stop60" />
   <stop
   offset="1"
   style="stop-color:#386EAB"
   id="stop62" />
  </linearGradient><linearGradient
     id="id12"
     gradientUnits="userSpaceOnUse"
     xlink:href="#id11"
     x1="176.33"
     y1="151.899"
     x2="111.465"
     y2="205.461">
  </linearGradient><linearGradient
     id="id13"
     gradientUnits="userSpaceOnUse"
     xlink:href="#id11"
     x1="144.53101"
     y1="14.9788"
     x2="197.724"
     y2="58.899399">
  </linearGradient><linearGradient
     id="id14"
     gradientUnits="userSpaceOnUse"
     xlink:href="#id11"
     x1="115.5"
     y1="154.377"
     x2="176.007"
     y2="204.797">
  </linearGradient><linearGradient
     id="id15"
     gradientUnits="userSpaceOnUse"
     xlink:href="#id11"
     x1="85.766296"
     y1="50.861801"
     x2="137.991"
     y2="94.379601">
  </linearGradient><linearGradient
     id="id16"
     gradientUnits="userSpaceOnUse"
     xlink:href="#id11"
     x1="146.793"
     y1="14.9276"
     x2="198.427"
     y2="57.955399">
  </linearGradient><linearGradient
     id="id17"
     gradientUnits="userSpaceOnUse"
     xlink:href="#id11"
     x1="145.21001"
     y1="82.448601"
     x2="203.746"
     y2="131.22701">
  </linearGradient><linearGradient
     id="id18"
     gradientUnits="userSpaceOnUse"
     xlink:href="#id11"
     x1="82.969002"
     y1="47.710201"
     x2="140.65199"
     y2="95.337402">
  </linearGradient><linearGradient
     id="id19"
     gradientUnits="userSpaceOnUse"
     xlink:href="#id11"
     x1="143.54201"
     y1="81.511497"
     x2="205.745"
     y2="132.877">
  </linearGradient><linearGradient
     id="id20"
     gradientUnits="userSpaceOnUse"
     xlink:href="#id10"
     x1="180.28"
     y1="170.629"
     x2="126.078"
     y2="184.625">
  </linearGradient><linearGradient
     id="id21"
     gradientUnits="userSpaceOnUse"
     xlink:href="#id10"
     x1="141.67999"
     y1="64.888397"
     x2="94.897301"
     y2="76.968903">
  </linearGradient><linearGradient
     id="id22"
     gradientUnits="userSpaceOnUse"
     xlink:href="#id10"
     x1="143.147"
     y1="28.7964"
     x2="189.399"
     y2="40.741199">
  </linearGradient><linearGradient
     id="id23"
     gradientUnits="userSpaceOnUse"
     xlink:href="#id10"
     x1="141.078"
     y1="98.172096"
     x2="193.511"
     y2="111.711">
  </linearGradient><linearGradient
     id="id24"
     gradientUnits="userSpaceOnUse"
     x1="276.36401"
     y1="240.427"
     x2="23.66"
     y2="111.725">
   <stop
   offset="0"
   style="stop-color:#82C7E6"
   id="stop77" />
   <stop
   offset="0.741176"
   style="stop-color:#6690C2"
   id="stop79" />
   <stop
   offset="1"
   style="stop-color:#3C599B"
   id="stop81" />
  </linearGradient><linearGradient
     id="id25"
     gradientUnits="userSpaceOnUse"
     xlink:href="#id24"
     x1="141.53101"
     y1="91.490997"
     x2="82.229897"
     y2="53.753201">
  </linearGradient><linearGradient
     id="id26"
     gradientUnits="userSpaceOnUse"
     xlink:href="#id24"
     x1="180.10899"
     y1="201.45"
     x2="111.403"
     y2="157.72701">
  </linearGradient><linearGradient
     id="id27"
     gradientUnits="userSpaceOnUse"
     xlink:href="#id24"
     x1="207.71001"
     y1="127.989"
     x2="141.243"
     y2="85.690201">
  </linearGradient><linearGradient
     id="id28"
     gradientUnits="userSpaceOnUse"
     xlink:href="#id24"
     x1="201.923"
     y1="55.098598"
     x2="143.293"
     y2="17.787201">
  </linearGradient><linearGradient
     inkscape:collect="always"
     xlink:href="#id11"
     id="linearGradient3098"
     gradientUnits="userSpaceOnUse"
     x1="34.465698"
     y1="98.998398"
     x2="265.479"
     y2="253.16901" /><linearGradient
     inkscape:collect="always"
     xlink:href="#id24"
     id="linearGradient3100"
     gradientUnits="userSpaceOnUse"
     x1="276.36401"
     y1="240.427"
     x2="23.66"
     y2="111.725" /><linearGradient
     inkscape:collect="always"
     xlink:href="#id10"
     id="linearGradient3102"
     gradientUnits="userSpaceOnUse"
     x1="16.0875"
     y1="139.72"
     x2="213.589"
     y2="139.72" /></defs>
 <g
   id="Capa_x0020_1"
   transform="matrix(0.82864024,0,0,0.82864024,5.367025,6.7001225)">
  <metadata
   id="CorelCorpID_0Corel-Layer" />
  <g
   id="_141826928">
   <g
   id="g90">
    <path
   id="_143788544"
   class="fil0"
   d="m 3.41321,58.8246 65.968,-1.19033 c 0,0 34.8851,140.738 41.4873,155.446 6.58836,14.6992 17.7041,27.033 35.4484,26.8711 17.7512,-0.16609 29.3846,-6.04163 35.7751,-24.6482 4.75026,-13.7968 46.9725,-157.669 46.9725,-157.669 l 67.4684,0 c 0,0 -45.032,137.355 -55.9637,182.258 -10.94,44.87 -63.5804,54.6391 -92.0529,54.6391 -28.496,0 -82.8112,-11.7359 -94.7824,-57.1997 -5.06584,-21.2779 -50.3207,-178.507 -50.3207,-178.507 z"
   inkscape:connector-curvature="0"
   style="fill:url(#linearGradient3098)" />
    <path
   id="_140981208"
   class="fil1"
   d="m 3.39107,57.4917 65.9694,-1.19033 1.06161,-0.01938 0.25606,1.032551 c 0.09966,0.404159 34.8574,140.627999 41.407,155.223999 3.47965,7.76208 8.2396,14.8404 14.5913,19.653 5.33297,4.04298 11.812,6.49839 19.6308,6.4278 8.62438,-0.0803 15.7415,-1.53221 21.4371,-5.19871 5.66654,-3.64851 9.99188,-9.54897 13.0826,-18.5498 4.75718,-13.8176 46.8369,-157.2 46.9573,-157.613 l 0.28236,-0.961955 0.99794,0 67.4684,0 1.84363,0 -0.57302,1.7509 c -0.12872,0.394471 -45.0251,137.331005 -55.9374,182.158005 -4.60493,18.8875 -16.4238,31.6795 -30.759,40.1876 -20.3104,12.057 -45.6784,15.4771 -62.5908,15.4771 -16.882,0 -42.7454,-4.08312 -63.709101,-16.7339 -14.8861,-8.98425 -27.3112,-22.2745 -32.3646,-41.4651 l -0.01107,-0.0318 C 47.368506,216.37454 2.2562761,59.640643 2.1275761,59.189643 l -0.480286,-1.66647 1.74398,-0.03184 z m 64.9507,1.49484 -63.1638,1.13912 c 4.83608,16.8169 45.0873,156.864 49.857,176.897 l -0.0014,0 c 4.85407,18.399 16.8155,31.1701 31.1535,39.8222 20.4793,12.3587 45.7932,16.3491 62.3292,16.3491 16.5761,0 41.4153,-3.33847 61.2302,-15.1006 13.7719,-8.17316 25.1188,-20.4391 29.5258,-38.5156 10.2396,-42.0589 50.1726,-164.561 55.4169,-180.605 l -64.6254,0 c -3.67896,12.5276 -42.1849,143.63 -46.7081,156.766 -3.29695,9.60571 -7.98492,15.9477 -14.1691,19.9298 -6.15651,3.9627 -13.7331,5.53228 -22.8586,5.61671 -8.46936,0.0761 -15.4868,-2.58275 -21.2613,-6.96068 -6.74476,-5.11151 -11.7677,-12.5566 -15.4162,-20.6993 -6.32814,-14.0985 -38.1419,-141.885 -41.3087,-154.638 z"
   inkscape:connector-curvature="0"
   style="fill:url(#linearGradient3100);fill-rule:nonzero" />
    <path
   id="_53543664"
   class="fil2"
   style="fill:url(#linearGradient3102)"
   d="m 7.50048,62.2918 c 7.70256,25.2752 34.6498,118.017 54.8052,181.358 12.9054,40.5599 77.1267,55.8972 117.847,40.744 11.7829,-9.73167 -22.1582,-44.07 -28.9791,-41.2534 -53.2148,21.9672 -65.3161,-116.024 -86.3462,-181.628 l -57.327,0.779253 z"
   mask="url(#id0)"
   inkscape:connector-curvature="0" />
   </g>
   <path
   id="_145695992"
   class="fil3"
   d="m 147.228,68.822 c 1.48792,19.5575 -13.1684,36.6166 -32.7231,38.1059 -19.5561,1.48792 -36.6235,-13.1643 -38.1114,-32.7203 -1.48792,-19.5588 13.149,-36.6194 32.7203,-38.1142 19.2626,-1.46162 36.1529,12.7172 38.0422,31.9452 l 0.072,0.783405 z"
   inkscape:connector-curvature="0"
   style="fill:url(#id18)" />
   <path
   id="_144443808"
   class="fil4"
   d="m 183.736,175.623 c 1.65678,22.0059 -14.8003,41.1855 -36.7965,42.8769 -21.9949,1.67477 -41.1842,-14.8155 -42.8589,-36.7938 -1.68169,-22.0032 14.7878,-41.1925 36.7841,-42.8672 21.6668,-1.64847 40.6596,14.3061 42.798,35.9273 l 0.0734,0.85676 z"
   inkscape:connector-curvature="0"
   style="fill:url(#id12)" />
   <path
   id="_146285624"
   class="fil5"
   d="m 212.832,110.106 c 1.6111,-21.0869 -14.201,-39.4914 -35.2795,-41.0942 -21.0966,-1.60418 -39.4928,14.1816 -41.1039,35.274 -1.60418,21.0966 14.1885,39.4983 35.2685,41.1066 20.7782,1.58619 39.0111,-13.7276 41.0333,-34.4532 l 0.0817,-0.83323 z"
   inkscape:connector-curvature="0"
   style="fill:url(#id19)" />
   <path
   id="_141809840"
   class="fil6"
   d="m 138.468,34.4394 c -1.37304,18.0363 12.1414,33.7736 30.1653,35.1467 18.0377,1.37442 33.7806,-12.1359 35.155,-30.1694 C 205.15995,21.3804 191.6538,5.6431 173.6133,4.27 155.8649,2.91773 140.2591,15.9948 138.5206,33.7266 l -0.0526,0.712816 z"
   inkscape:connector-curvature="0"
   style="fill:url(#id13)" />
   <g
   id="g99">
    <path
   id="_141728776"
   class="fil7"
   d="m 205.612,36.4353 c 0,18.3948 -14.7809,33.3127 -33.0082,33.3127 -18.2176,0 -32.9985,-14.9138 -32.9985,-33.3127 0,-18.3934 14.7809,-33.2961 32.9985,-33.2961 18.2273,0 33.0082,14.9027 33.0082,33.2961 z"
   inkscape:connector-curvature="0"
   style="fill:url(#id16)" />
    <path
   id="_143790912"
   class="fil8"
   d="m 206.505,36.4353 c 0,9.43962 -3.79523,17.9906 -9.93098,24.1818 -6.13575,6.1925 -14.6107,10.0237 -23.97,10.0237 -9.35519,0 -17.8287,-3.83121 -23.9645,-10.0251 -6.1316,-6.18973 -9.92683,-14.7408 -9.92683,-24.1804 0,-9.43685 3.79384,-17.9823 9.92683,-24.1707 6.13437,-6.18973 14.6093,-10.0182 23.9645,-10.0182 9.35934,0 17.8356,3.82706 23.9714,10.0168 6.13437,6.18835 9.9296,14.7338 9.9296,24.1721 z m -11.1933,22.9264 c 5.81187,-5.86447 9.40779,-13.9712 9.40779,-22.9264 0,-8.9538 -3.59453,-17.055 -9.40502,-22.9167 -5.81187,-5.8617 -13.8425,-9.48668 -22.7105,-9.48668 -8.86383,0 -16.893,3.62498 -22.7021,9.48806 -5.8091,5.8617 -9.40363,13.9615 -9.40363,22.9153 0,8.95518 3.59453,17.0619 9.40363,22.9264 5.81049,5.86447 13.8383,9.4936 22.7021,9.4936 8.86798,0 16.8972,-3.62913 22.7077,-9.4936 z"
   inkscape:connector-curvature="0"
   style="fill:url(#id28);fill-rule:nonzero" />
    <path
   id="_52841328"
   class="fil9"
   style="fill:url(#id22)"
   d="m 141.657,35.811 c 2.2824,-28.6787 30.8075,-39.0222 49.3255,-21.808 8.48597,7.88803 -6.84303,37.9218 -18.7644,49.7144 -6.83334,6.75722 -19.9699,-2.10108 -26.3368,-11.2666 -4.64507,-6.68663 -3.58623,-12.8514 -4.2243,-16.6398 z"
   mask="url(#id2)"
   inkscape:connector-curvature="0" />
   </g>
   <g
   id="g104">
    <path
   id="_142739248"
   class="fil10"
   d="m 211.892,106.83 c 0,20.8557 -16.7574,37.7668 -37.4208,37.7668 -20.6523,0 -37.4097,-16.9069 -37.4097,-37.7668 0,-20.8502 16.7574,-37.746 37.4097,-37.746 20.6634,0 37.4208,16.8958 37.4208,37.746 z"
   inkscape:connector-curvature="0"
   style="fill:url(#id17)" />
    <path
   id="_141907024"
   class="fil11"
   d="m 212.904,106.83 c 0,10.7019 -4.30319,20.3962 -11.2583,27.415 -6.95515,7.0202 -16.565,11.3635 -27.1742,11.3635 -10.605,0 -20.2121,-4.34333 -27.1673,-11.3649 -6.95238,-7.01743 -11.2556,-16.7103 -11.2556,-27.4137 0,-10.6978 4.30181,-20.3852 11.2542,-27.3998 6.95515,-7.01743 16.5622,-11.358 27.1687,-11.358 10.6106,0 20.2191,4.33918 27.1756,11.3566 6.95515,7.01466 11.257,16.7034 11.257,27.4012 z m -12.6895,25.9922 c 6.58836,-6.64926 10.6659,-15.8384 10.6659,-25.9922 0,-10.1497 -4.0762,-19.3346 -10.6632,-25.9783 -6.58836,-6.64511 -15.6916,-10.7559 -25.7458,-10.7559 -10.05,0 -19.1505,4.1108 -25.7375,10.7573 -6.58559,6.64511 -10.6604,15.8287 -10.6604,25.9769 0,10.1538 4.07482,19.3429 10.6604,25.9922 6.58697,6.64926 15.6889,10.7628 25.7375,10.7628 10.0528,0 19.1561,-4.11357 25.743,-10.7628 z"
   inkscape:connector-curvature="0"
   style="fill:url(#id27);fill-rule:nonzero" />
    <path
   id="_145691696"
   class="fil12"
   style="fill:url(#id23)"
   d="m 139.387,106.124 c 2.58828,-32.5127 34.9252,-44.2389 55.9166,-24.7243 9.62094,8.94411 -7.75378,42.9904 -21.271,56.3609 -7.74686,7.65966 -22.6399,-2.38205 -29.8566,-12.7712 -5.26515,-7.58353 -4.06513,-14.5691 -4.78902,-18.8654 z"
   mask="url(#id4)"
   inkscape:connector-curvature="0" />
   </g>
   <g
   id="g109">
    <path
   id="_141442648"
   class="fil13"
   d="m 78.4997,72.6131 c 0,18.6066 14.9511,33.6947 33.3861,33.6947 18.4253,0 33.375,-15.084 33.375,-33.6947 0,-18.6024 -14.9498,-33.6754 -33.375,-33.6754 -18.4349,0 -33.3861,15.0729 -33.3861,33.6754 z"
   inkscape:connector-curvature="0"
   style="fill:url(#id15)" />
    <path
   id="_53172904"
   class="fil14"
   d="m 77.5973,72.6131 c 0,9.54897 3.83813,18.1969 10.0445,24.4586 6.20496,6.26309 14.7781,10.1386 24.244,10.1386 9.46177,0 18.0322,-3.87412 24.2371,-10.1386 6.20357,-6.26171 10.0417,-14.9096 10.0417,-24.4586 0,-9.54481 -3.83813,-18.1872 -10.0403,-24.4461 -6.20496,-6.26032 -14.7767,-10.1331 -24.2385,-10.1331 -9.46592,0 -18.0405,3.87135 -24.2454,10.1331 -6.20496,6.25755 -10.0431,14.9013 -10.0431,24.4461 z m 11.3206,23.1894 c -5.87831,-5.93229 -9.51436,-14.1317 -9.51436,-23.1894 0,-9.05484 3.63605,-17.2488 9.51298,-23.1769 5.87693,-5.92952 13.9989,-9.59602 22.9693,-9.59602 8.96487,0 17.0854,3.66789 22.961,9.59602 5.87693,5.92952 9.51159,14.1221 9.51159,23.1769 0,9.05899 -3.63605,17.2571 -9.51159,23.1894 -5.87693,5.93229 -13.9961,9.60156 -22.961,9.60156 -8.97041,0 -17.091,-3.66927 -22.9679,-9.60156 z"
   inkscape:connector-curvature="0"
   style="fill:url(#id25);fill-rule:nonzero" />
    <path
   id="_141157328"
   class="fil15"
   style="fill:url(#id21)"
   d="M 143.187,71.982 C 140.87554,42.9766 112.0266,32.5128 93.2996,49.9262 c -8.58424,7.97939 6.91777,38.3536 18.9775,50.2819 6.90947,6.83611 20.1969,-2.12461 26.6372,-11.394 4.69766,-6.76552 3.62775,-12.9982 4.27274,-16.8321 z"
   mask="url(#id6)"
   inkscape:connector-curvature="0" />
   </g>
   <g
   id="g114">
    <path
   id="_146288008"
   class="fil16"
   d="m 107.08,179.578 c 0,21.5575 17.3221,39.0374 38.6803,39.0374 21.3471,0 38.6692,-17.4758 38.6692,-39.0374 0,-21.5533 -17.3221,-39.0166 -38.6692,-39.0166 -21.3582,0 -38.6803,17.4633 -38.6803,39.0166 z"
   inkscape:connector-curvature="0"
   style="fill:url(#id14)" />
    <path
   id="_145460656"
   class="fil17"
   d="m 106.034,179.578 c 0,11.0618 4.44853,21.0827 11.6376,28.3382 7.19044,7.2555 17.1228,11.7455 28.0891,11.7455 10.9621,0 20.8931,-4.48866 28.0822,-11.7469 7.18629,-7.25411 11.6334,-17.2737 11.6334,-28.3369 0,-11.0576 -4.44714,-21.0717 -11.6334,-28.323 -7.18768,-7.25411 -17.1187,-11.74 -28.0822,-11.74 -10.9677,0 -20.9,4.4859 -28.0905,11.7386 -7.18906,7.25134 -11.6362,17.2654 -11.6362,28.3244 z m 13.1158,26.8669 c -6.80981,-6.8721 -11.023,-16.3726 -11.023,-26.8669 0,-10.4915 4.21323,-19.9851 11.0217,-26.8531 6.80981,-6.86933 16.2204,-11.1185 26.6123,-11.1185 10.3877,0 19.7955,4.24921 26.604,11.1185 6.80705,6.86933 11.0189,16.3629 11.0189,26.8531 0,10.4957 -4.21184,19.9948 -11.0189,26.8669 -6.80843,6.8721 -16.2162,11.1241 -26.604,11.1241 -10.3919,0 -19.8011,-4.25198 -26.6109,-11.1241 z"
   inkscape:connector-curvature="0"
   style="fill:url(#id26);fill-rule:nonzero" />
    <path
   id="_141442968"
   class="fil18"
   style="fill:url(#id20)"
   d="m 182.026,178.849 c -2.67548,-33.6103 -36.0989,-45.7282 -57.799,-25.5576 -9.94482,9.24585 8.01676,44.4382 21.9879,58.2571 8.00845,7.91987 23.3997,-2.46095 30.8615,-13.2002 5.4437,-7.83821 4.20354,-15.0591 4.94957,-19.4993 z"
   mask="url(#id8)"
   inkscape:connector-curvature="0" />
   </g>
  </g>
 </g>
</svg>