<?xml version="1.0" encoding="UTF-8"?>
<!DOCTYPE svg PUBLIC "-//W3C//DTD SVG 1.1//EN" "http://www.w3.org/Graphics/SVG/1.1/DTD/svg11.dtd">
<!-- Creator: CorelDRAW -->
<svg xmlns="http://www.w3.org/2000/svg" xml:space="preserve" width="300px" height="300px" style="shape-rendering:geometricPrecision; text-rendering:geometricPrecision; image-rendering:optimizeQuality; fill-rule:evenodd; clip-rule:evenodd"
viewBox="0 0 300 300"
 xmlns:xlink="http://www.w3.org/1999/xlink">
 <defs>
  <style type="text/css">
   <![CDATA[
    .fil2 {fill:url(#id2)}
    .fil0 {fill:url(#id3)}
    .fil1 {fill:url(#id4);fill-rule:nonzero}
   ]]>
  </style>
    <mask id="id0">
  <linearGradient id="id1" gradientUnits="userSpaceOnUse" x1="50.9892" y1="75.5751" x2="181.356" y2="205.338">
   <stop offset="0" style="stop-opacity:1; stop-color:white"/>
   <stop offset="0.439216" style="stop-opacity:0.501961; stop-color:white"/>
   <stop offset="1" style="stop-opacity:0; stop-color:white"/>
  </linearGradient>
     <rect style="fill:url(#id1)" x="6.41396" y="-12.785" width="219.517" height="306.483"/>
    </mask>
  <linearGradient id="id2" gradientUnits="userSpaceOnUse" x1="16.4681" y1="140.457" x2="215.877" y2="140.457">
   <stop offset="0" style="stop-color:#B3D5E1"/>
   <stop offset="1" style="stop-color:white"/>
  </linearGradient>
  <linearGradient id="id3" gradientUnits="userSpaceOnUse" x1="35.0235" y1="99.3402" x2="268.269" y2="255">
   <stop offset="0" style="stop-color:#94C9E2"/>
   <stop offset="0.490196" style="stop-color:#58A6D8"/>
   <stop offset="0.819608" style="stop-color:#50719E"/>
   <stop offset="1" style="stop-color:#386EAB"/>
  </linearGradient>
  <linearGradient id="id4" gradientUnits="userSpaceOnUse" x1="279.259" y1="242.136" x2="24.1126" y2="112.19">
   <stop offset="0" style="stop-color:#82C7E6"/>
   <stop offset="0.741176" style="stop-color:#6690C2"/>
   <stop offset="1" style="stop-color:#3C599B"/>
  </linearGradient>
 </defs>
 <g id="Capa_x0020_1">
  <metadata id="CorelCorpID_0Corel-Layer"/>
  <g id="_141855936">
   <path id="_141276024" class="fil0" d="M3.66927 58.7789l66.6061 -1.20279c0,0 35.2228,142.1 41.8887,156.95 6.65203,14.8418 17.8758,27.2946 35.7917,27.1313 17.9228,-0.167477 29.6684,-6.09977 36.1197,-24.8863 4.79594,-13.9311 47.4279,-159.195 47.4279,-159.195l68.1203 0c0,0 -45.468,138.682 -56.5048,184.02 -11.0466,45.3046 -64.195,55.1678 -92.9429,55.1678 -28.7715,0 -83.6112,-11.8494 -95.6987,-57.7533 -5.11428,-21.4827 -50.8079,-180.232 -50.8079,-180.232z"/>
   <path id="_141641064" class="fil1" d="M3.64851 57.4336l66.6061 -1.20279 1.07268 -0.0179934 0.257444 1.04223c0.10104,0.406928 35.1951,141.986 41.8084,156.723 3.51287,7.83821 8.31849,14.983 14.7311,19.844 5.38557,4.08174 11.9269,6.56067 19.8204,6.4887 8.70881,-0.0802783 15.8937,-1.54743 21.6447,-5.24854 5.7219,-3.6845 10.0888,-9.6417 13.2085,-18.7284 4.80424,-13.9518 47.2895,-158.72 47.4113,-159.137l0.28651 -0.971644 1.00763 0 68.1203 0 1.86024 0 -0.578557 1.76889c-0.130106,0.398623 -45.4597,138.657 -56.4786,183.919 -4.64922,19.0689 -16.5816,31.9854 -31.0552,40.5751 -20.507,12.1732 -46.1199,15.6266 -63.1956,15.6266 -17.0453,0 -43.1593,-4.12188 -64.3251,-16.8958 -15.03,-9.07006 -27.5756,-22.489 -32.6774,-41.8651l-0.0110729 -0.0318345c-5.11151,-21.4703 -50.6598,-179.718 -50.7912,-180.174l-0.483054 -1.68308 1.76059 -0.0318345zm65.5777 1.50868l-63.7742 1.15019c4.88314,16.9789 45.5233,158.379 50.3386,178.607l-0.00138411 0c4.90113,18.5775 16.9789,31.4719 31.4553,40.207 20.6772,12.4791 46.2361,16.5069 62.9313,16.5069 16.7366,0 41.8153,-3.3703 61.8226,-15.246 13.9048,-8.25206 25.361,-20.6357 29.8109,-38.8879 10.3379,-42.4658 50.657,-166.151 55.9526,-182.351l-65.251 0c-3.71495,12.6494 -42.5918,145.019 -47.158,158.281 -3.33017,9.69845 -8.06243,16.1013 -14.3061,20.1222 -6.21742,4.00007 -13.8674,5.58488 -23.08,5.67069 -8.55102,0.0775101 -15.6363,-2.60766 -21.4675,-7.0285 -6.80981,-5.15996 -11.8812,-12.6784 -15.5657,-20.8987 -6.38905,-14.2356 -38.5087,-143.257 -41.7073,-156.133z"/>
   <path id="_146159072" class="fil2" style="mask:url(#id0)" d="M7.79807 62.2794c7.77592,25.5188 34.9847,119.159 55.3353,183.112 13.03,40.9489 77.8713,56.4384 118.984,41.1385 11.8964,-9.82579 -22.3713,-44.4977 -29.2573,-41.6547 -53.7297,22.1803 -65.9472,-117.144 -87.1836,-183.382l-57.8779 0.786174z"/>
  </g>
 </g>
</svg>
