<?xml version="1.0" encoding="UTF-8" standalone="no"?>
<!-- Created with Inkscape (http://www.inkscape.org/) -->

<svg
   xmlns:dc="http://purl.org/dc/elements/1.1/"
   xmlns:cc="http://creativecommons.org/ns#"
   xmlns:rdf="http://www.w3.org/1999/02/22-rdf-syntax-ns#"
   xmlns:svg="http://www.w3.org/2000/svg"
   xmlns="http://www.w3.org/2000/svg"
   xmlns:xlink="http://www.w3.org/1999/xlink"
   xmlns:sodipodi="http://sodipodi.sourceforge.net/DTD/sodipodi-0.dtd"
   xmlns:inkscape="http://www.inkscape.org/namespaces/inkscape"
   width="256"
   height="256"
   id="svg2"
   version="1.1"
   inkscape:version="0.48.3.1 r9886"
   sodipodi:docname="view-refresh.svg">
  <defs
     id="defs4">
    <linearGradient
       id="id9"
       gradientUnits="userSpaceOnUse"
       x1="77.762001"
       y1="75.677498"
       x2="229.189"
       y2="264.96301">
      <stop
         offset="0"
         style="stop-color:#58A6D8"
         id="stop3151" />
      <stop
         id="stop4258"
         style="stop-color:#548bbb;stop-opacity:1;"
         offset="0.470588" />
      <stop
         offset="0.941176"
         style="stop-color:#50719E"
         id="stop3153" />
      <stop
         offset="1"
         style="stop-color:#386EAB"
         id="stop3155" />
    </linearGradient>
    <linearGradient
       inkscape:collect="always"
       xlink:href="#id9"
       id="linearGradient4237"
       x1="0.99973565"
       y1="7.9842663"
       x2="14.004504"
       y2="7.9842663"
       gradientUnits="userSpaceOnUse"
       spreadMethod="reflect" />
  </defs>
  <sodipodi:namedview
     id="base"
     pagecolor="#ffffff"
     bordercolor="#666666"
     borderopacity="1.0"
     inkscape:pageopacity="0.0"
     inkscape:pageshadow="2"
     inkscape:zoom="2.5686441"
     inkscape:cx="74.272517"
     inkscape:cy="111.42857"
     inkscape:document-units="px"
     inkscape:current-layer="layer1"
     showgrid="false"
     inkscape:window-width="1920"
     inkscape:window-height="1050"
     inkscape:window-x="-4"
     inkscape:window-y="-4"
     inkscape:window-maximized="1" />
  <metadata
     id="metadata7">
    <rdf:RDF>
      <cc:Work
         rdf:about="">
        <dc:format>image/svg+xml</dc:format>
        <dc:type
           rdf:resource="http://purl.org/dc/dcmitype/StillImage" />
        <dc:title />
      </cc:Work>
    </rdf:RDF>
  </metadata>
  <g
     inkscape:label="Capa 1"
     inkscape:groupmode="layer"
     id="layer1"
     transform="translate(0,-796.36218)">
    <g
       id="g4219"
       transform="matrix(19.60332,0,0,19.60332,-19.339344,769.4939)"
       style="fill:url(#linearGradient4237);fill-opacity:1.0">
      <g
         style="display:inline;fill:url(#linearGradient4237);fill-opacity:1.0"
         inkscape:label="status"
         transform="translate(-241.0002,-627)"
         id="layer9" />
      <g
         inkscape:label="devices"
         transform="translate(-241.0002,-627)"
         id="layer10"
         style="fill:url(#linearGradient4237);fill-opacity:1.0" />
      <g
         inkscape:label="apps"
         transform="translate(-241.0002,-627)"
         id="layer11"
         style="fill:url(#linearGradient4237);fill-opacity:1.0" />
      <g
         inkscape:label="places"
         transform="translate(-241.0002,-627)"
         id="layer13"
         style="fill:url(#linearGradient4237);fill-opacity:1.0" />
      <g
         inkscape:label="mimetypes"
         transform="translate(-241.0002,-627)"
         id="layer14"
         style="fill:url(#linearGradient4237);fill-opacity:1.0" />
      <g
         style="display:inline;fill:url(#linearGradient4237);fill-opacity:1.0"
         inkscape:label="emblems"
         transform="translate(-241.0002,-627)"
         id="layer15" />
      <g
         style="display:inline;fill:url(#linearGradient4237);fill-opacity:1.0"
         inkscape:label="emotes"
         transform="translate(-241.0002,-627)"
         id="g71291" />
      <g
         style="display:inline;fill:url(#linearGradient4237);fill-opacity:1.0"
         inkscape:label="categories"
         transform="translate(-241.0002,-627)"
         id="g4953" />
      <g
         style="display:inline;fill:url(#linearGradient4237);fill-opacity:1.0"
         inkscape:label="actions"
         transform="translate(-241.0002,-627)"
         id="layer12">
        <path
           inkscape:connector-curvature="0"
           style="font-size:medium;font-style:normal;font-variant:normal;font-weight:normal;font-stretch:normal;text-indent:0;text-align:start;text-decoration:none;line-height:normal;letter-spacing:normal;word-spacing:normal;text-transform:none;direction:ltr;block-progression:tb;writing-mode:lr-tb;text-anchor:start;baseline-shift:baseline;color:#bebebe;fill:url(#linearGradient4237);fill-opacity:1.0;stroke:none;stroke-width:2;marker:none;visibility:visible;display:inline;overflow:visible;enable-background:accumulate;font-family:Sans;-inkscape-font-specification:Sans"
           d="m 253.90645,628.96875 a 1.0001,1.0001 0 0 0 -0.125,0.0312 1.0001,1.0001 0 0 0 -0.78125,1 l 0,1.6875 c -0.38225,-0.57796 -0.84927,-1.08223 -1.40625,-1.5 -1.15563,-0.86677 -2.53199,-1.25227 -3.875,-1.1875 -0.19186,0.009 -0.37223,0.0353 -0.5625,0.0625 -1.52218,0.21741 -2.97815,1.02304 -3.96875,2.34375 -1.98119,2.64144 -1.42267,6.42505 1.21875,8.40625 2.64147,1.98122 6.42504,1.42267 8.40625,-1.21875 a 1.0063276,1.0063276 0 0 0 0.1875,-0.5937 1.0063276,1.0063276 0 0 0 0,-0.15625 l 0,-0.84375 -0.8125,0 -0.0937,0 a 1.0063276,1.0063276 0 0 0 -0.0937,0 1.0063276,1.0063276 0 0 0 -0.8125,0.40625 c -1.33265,1.77674 -3.81702,2.11387 -5.59375,0.78125 -1.77674,-1.33264 -2.1139,-3.81699 -0.78125,-5.59375 1.33265,-1.77674 3.817,-2.11389 5.59375,-0.78125 0.42946,0.32212 0.76954,0.73295 1.03125,1.1875 l -1.4375,0 a 1.0001,1.0001 0 0 0 -1,1 1.0001,1.0001 0 0 0 0,0.21875 l 0,0.78125 0.84375,0 0.15625,0 4,0 1,0 0,-1 0,-4 a 1.0001,1.0001 0 0 0 0,-0.1875 l 0,-0.8125 -0.8125,0 a 1.0001,1.0001 0 0 0 -0.28125,-0.0312 z"
           id="path4597" />
      </g>
    </g>
  </g>
</svg>
