<?xml version="1.0" encoding="UTF-8" standalone="no"?>
<!-- Created with Inkscape (http://www.inkscape.org/) -->

<svg
   xmlns:dc="http://purl.org/dc/elements/1.1/"
   xmlns:cc="http://creativecommons.org/ns#"
   xmlns:rdf="http://www.w3.org/1999/02/22-rdf-syntax-ns#"
   xmlns:svg="http://www.w3.org/2000/svg"
   xmlns="http://www.w3.org/2000/svg"
   xmlns:sodipodi="http://sodipodi.sourceforge.net/DTD/sodipodi-0.dtd"
   xmlns:inkscape="http://www.inkscape.org/namespaces/inkscape"
   sodipodi:docname="accessories-text-editor-symbolic.svg"
   inkscape:version="0.48.5 r10040"
   version="1.1"
   id="svg7384"
   width="16"
   height="16.008873">
  <metadata
     id="metadata90">
    <rdf:RDF>
      <cc:Work
         rdf:about="">
        <dc:format>image/svg+xml</dc:format>
        <dc:type
           rdf:resource="http://purl.org/dc/dcmitype/StillImage" />
        <dc:title>Gnome Symbolic Icon Theme</dc:title>
      </cc:Work>
    </rdf:RDF>
  </metadata>
  <sodipodi:namedview
     inkscape:window-maximized="1"
     inkscape:snap-nodes="true"
     inkscape:snap-others="false"
     inkscape:object-paths="false"
     inkscape:zoom="14.160389"
     showborder="true"
     showgrid="false"
     inkscape:snap-global="true"
     inkscape:current-layer="layer11"
     inkscape:pageopacity="1"
     inkscape:pageshadow="2"
     inkscape:object-nodes="false"
     bordercolor="#666666"
     gridtolerance="10"
     inkscape:snap-bbox-midpoints="false"
     inkscape:window-height="1031"
     pagecolor="#555753"
     id="namedview88"
     showguides="true"
     inkscape:window-x="0"
     inkscape:window-y="25"
     inkscape:snap-bbox="true"
     borderopacity="1"
     inkscape:window-width="1914"
     inkscape:cx="23.403849"
     inkscape:cy="-3.3275615"
     inkscape:bbox-paths="false"
     objecttolerance="10"
     inkscape:guide-bbox="true"
     inkscape:snap-to-guides="true"
     guidetolerance="10"
     inkscape:snap-grids="true"
     borderlayer="true">
    <inkscape:grid
       visible="true"
       spacingx="1px"
       spacingy="1px"
       enabled="true"
       empspacing="2"
       snapvisiblegridlinesonly="true"
       id="grid4866"
       type="xygrid" />
  </sodipodi:namedview>
  <title
     id="title9167">Gnome Symbolic Icon Theme</title>
  <defs
     id="defs7386" />
  <g
     inkscape:groupmode="layer"
     inkscape:label="status"
     transform="translate(-163.0002,-508.99113)"
     id="layer9"
     style="display:inline" />
  <g
     inkscape:groupmode="layer"
     inkscape:label="devices"
     transform="translate(-163.0002,-508.99113)"
     id="layer10" />
  <g
     inkscape:groupmode="layer"
     inkscape:label="apps"
     transform="translate(-163.0002,-508.99113)"
     id="layer11">
    <rect
       style="fill:#ffffff;fill-opacity:1;stroke:none"
       id="rect3001"
       width="13.490147"
       height="15.748157"
       x="164.35133"
       y="509.03998"
       ry="2.8297465" />
    <path
       d="m 168.5519,515.20007 a 0.41172512,0.41172512 0 1 0 0.0768,0.81986 l 4.91911,0 a 0.40996747,0.40996747 0 1 0 0,-0.81986 l -4.91911,0 a 0.40996747,0.40996747 0 0 0 -0.0768,0 z"
       id="path3601-2"
       style="font-size:medium;font-style:normal;font-variant:normal;font-weight:normal;font-stretch:normal;text-indent:0;text-align:start;text-decoration:none;line-height:normal;letter-spacing:normal;word-spacing:normal;text-transform:none;direction:ltr;block-progression:tb;writing-mode:lr-tb;text-anchor:start;baseline-shift:baseline;color:#000000;fill:#000000;fill-opacity:1;stroke:none;stroke-width:1;marker:none;visibility:visible;display:inline;overflow:visible;enable-background:accumulate;font-family:Sans;-inkscape-font-specification:Sans"
       inkscape:connector-curvature="0" />
    <path
       d="m 168.5519,516.83978 a 0.41172398,0.41172398 0 1 0 0.0768,0.81985 l 4.09926,0 a 0.40996747,0.40996747 0 1 0 0,-0.81985 l -4.09926,0 a 0.40996747,0.40996747 0 0 0 -0.0768,0 z"
       id="path3601-2-3"
       style="font-size:medium;font-style:normal;font-variant:normal;font-weight:normal;font-stretch:normal;text-indent:0;text-align:start;text-decoration:none;line-height:normal;letter-spacing:normal;word-spacing:normal;text-transform:none;direction:ltr;block-progression:tb;writing-mode:lr-tb;text-anchor:start;baseline-shift:baseline;color:#000000;fill:#000000;fill-opacity:1;stroke:none;stroke-width:1;marker:none;visibility:visible;display:inline;overflow:visible;enable-background:accumulate;font-family:Sans;-inkscape-font-specification:Sans"
       inkscape:connector-curvature="0" />
    <path
       d="m 168.5519,518.47948 a 0.41172512,0.41172512 0 0 0 0.0768,0.81986 l 4.91911,0 a 0.40996747,0.40996747 0 1 0 0,-0.81986 l -4.91911,0 a 0.40996747,0.40996747 0 0 0 -0.0768,0 z"
       id="path3601-2-3-2"
       style="font-size:medium;font-style:normal;font-variant:normal;font-weight:normal;font-stretch:normal;text-indent:0;text-align:start;text-decoration:none;line-height:normal;letter-spacing:normal;word-spacing:normal;text-transform:none;direction:ltr;block-progression:tb;writing-mode:lr-tb;text-anchor:start;baseline-shift:baseline;color:#000000;fill:#000000;fill-opacity:1;stroke:none;stroke-width:1;marker:none;visibility:visible;display:inline;overflow:visible;enable-background:accumulate;font-family:Sans;-inkscape-font-specification:Sans"
       inkscape:connector-curvature="0" />
    <path
       d="m 168.5519,520.11919 a 0.41172398,0.41172398 0 1 0 0.0768,0.81985 l 2.45955,0 a 0.40996747,0.40996747 0 1 0 0,-0.81985 l -2.45955,0 a 0.40996747,0.40996747 0 0 0 -0.0768,0 z"
       id="path3601-2-3-3"
       style="font-size:medium;font-style:normal;font-variant:normal;font-weight:normal;font-stretch:normal;text-indent:0;text-align:start;text-decoration:none;line-height:normal;letter-spacing:normal;word-spacing:normal;text-transform:none;direction:ltr;block-progression:tb;writing-mode:lr-tb;text-anchor:start;baseline-shift:baseline;color:#000000;fill:#000000;fill-opacity:1;stroke:none;stroke-width:1;marker:none;visibility:visible;display:inline;overflow:visible;enable-background:accumulate;font-family:Sans;-inkscape-font-specification:Sans"
       inkscape:connector-curvature="0" />
    <path
       d="m 167.39914,511.1008 c -0.89421,0 -1.63971,0.74549 -1.63971,1.63971 l 0,9.01838 c 0,0.89421 0.7455,1.63971 1.63971,1.63971 l 7.37868,0 c 0.89421,0 1.6397,-0.7455 1.6397,-1.63971 l 0,-9.01838 c 0,-0.89422 -0.74549,-1.63971 -1.6397,-1.63971 0,3.5527 0,7.1054 0,10.65809 l -7.37868,0 c 0,-3.55269 0,-7.10539 0,-10.65809 z"
       sodipodi:nodetypes="csssssscccc"
       id="rect10788"
       inkscape:connector-curvature="0"
       style="font-size:medium;font-style:normal;font-variant:normal;font-weight:normal;font-stretch:normal;text-indent:0;text-align:start;text-decoration:none;line-height:normal;letter-spacing:normal;word-spacing:normal;text-transform:none;direction:ltr;block-progression:tb;writing-mode:lr-tb;text-anchor:start;color:#000000;fill:#000000;fill-opacity:1;stroke:none;stroke-width:2;marker:none;visibility:visible;display:inline;overflow:visible;enable-background:new;font-family:Sans;-inkscape-font-specification:Sans" />
    <path
       d="m 168.5519,510.28095 a 0.40996747,0.40996747 0 0 0 -0.33307,0.40993 l 0,2.45956 a 0.40996747,0.40996747 0 1 0 0.81985,0 l 0,-2.45956 a 0.40996747,0.40996747 0 0 0 -0.48678,-0.40993 z"
       id="path3601-2-3-3-9"
       style="font-size:medium;font-style:normal;font-variant:normal;font-weight:normal;font-stretch:normal;text-indent:0;text-align:start;text-decoration:none;line-height:normal;letter-spacing:normal;word-spacing:normal;text-transform:none;direction:ltr;block-progression:tb;writing-mode:lr-tb;text-anchor:start;baseline-shift:baseline;color:#000000;fill:#000000;fill-opacity:1;stroke:none;stroke-width:1;marker:none;visibility:visible;display:inline;overflow:visible;enable-background:accumulate;font-family:Sans;-inkscape-font-specification:Sans"
       inkscape:connector-curvature="0" />
    <path
       d="m 170.1916,510.28095 a 0.40996747,0.40996747 0 0 0 -0.33306,0.40993 l 0,2.45956 a 0.40996747,0.40996747 0 1 0 0.81985,0 l 0,-2.45956 a 0.40996747,0.40996747 0 0 0 -0.48679,-0.40993 z"
       id="path3601-2-3-3-9-3"
       style="font-size:medium;font-style:normal;font-variant:normal;font-weight:normal;font-stretch:normal;text-indent:0;text-align:start;text-decoration:none;line-height:normal;letter-spacing:normal;word-spacing:normal;text-transform:none;direction:ltr;block-progression:tb;writing-mode:lr-tb;text-anchor:start;baseline-shift:baseline;color:#000000;fill:#000000;fill-opacity:1;stroke:none;stroke-width:1;marker:none;visibility:visible;display:inline;overflow:visible;enable-background:accumulate;font-family:Sans;-inkscape-font-specification:Sans"
       inkscape:connector-curvature="0" />
    <path
       d="m 171.83131,510.28095 a 0.40996747,0.40996747 0 0 0 -0.33307,0.40993 l 0,2.45956 a 0.40996747,0.40996747 0 1 0 0.81985,0 l 0,-2.45956 a 0.40996747,0.40996747 0 0 0 -0.48678,-0.40993 z"
       id="path3601-2-3-3-9-3-3"
       style="font-size:medium;font-style:normal;font-variant:normal;font-weight:normal;font-stretch:normal;text-indent:0;text-align:start;text-decoration:none;line-height:normal;letter-spacing:normal;word-spacing:normal;text-transform:none;direction:ltr;block-progression:tb;writing-mode:lr-tb;text-anchor:start;baseline-shift:baseline;color:#000000;fill:#000000;fill-opacity:1;stroke:none;stroke-width:1;marker:none;visibility:visible;display:inline;overflow:visible;enable-background:accumulate;font-family:Sans;-inkscape-font-specification:Sans"
       inkscape:connector-curvature="0" />
    <path
       d="m 173.47101,510.28095 a 0.40996747,0.40996747 0 0 0 -0.33306,0.40993 l 0,2.45956 a 0.40996747,0.40996747 0 1 0 0.81985,0 l 0,-2.45956 a 0.40996747,0.40996747 0 0 0 -0.48679,-0.40993 z"
       id="path3601-2-3-3-9-3-3-7"
       style="font-size:medium;font-style:normal;font-variant:normal;font-weight:normal;font-stretch:normal;text-indent:0;text-align:start;text-decoration:none;line-height:normal;letter-spacing:normal;word-spacing:normal;text-transform:none;direction:ltr;block-progression:tb;writing-mode:lr-tb;text-anchor:start;baseline-shift:baseline;color:#000000;fill:#000000;fill-opacity:1;stroke:none;stroke-width:1;marker:none;visibility:visible;display:inline;overflow:visible;enable-background:accumulate;font-family:Sans;-inkscape-font-specification:Sans"
       inkscape:connector-curvature="0" />
  </g>
  <g
     inkscape:groupmode="layer"
     inkscape:label="places"
     transform="translate(-163.0002,-508.99113)"
     id="layer13" />
  <g
     inkscape:groupmode="layer"
     inkscape:label="mimetypes"
     transform="translate(-163.0002,-508.99113)"
     id="layer14" />
  <g
     inkscape:groupmode="layer"
     inkscape:label="emblems"
     transform="translate(-163.0002,-508.99113)"
     id="layer15"
     style="display:inline" />
  <g
     inkscape:groupmode="layer"
     inkscape:label="emotes"
     transform="translate(-163.0002,-508.99113)"
     id="g71291"
     style="display:inline" />
  <g
     inkscape:groupmode="layer"
     inkscape:label="categories"
     transform="translate(-163.0002,-508.99113)"
     id="g4953"
     style="display:inline" />
  <g
     inkscape:groupmode="layer"
     inkscape:label="actions"
     transform="translate(-163.0002,-508.99113)"
     id="layer12"
     style="display:inline" />
</svg>
