<?xml version="1.0" encoding="UTF-8" standalone="no"?>
<!-- Created with Inkscape (http://www.inkscape.org/) -->

<svg
   xmlns:dc="http://purl.org/dc/elements/1.1/"
   xmlns:cc="http://creativecommons.org/ns#"
   xmlns:rdf="http://www.w3.org/1999/02/22-rdf-syntax-ns#"
   xmlns:svg="http://www.w3.org/2000/svg"
   xmlns="http://www.w3.org/2000/svg"
   xmlns:sodipodi="http://sodipodi.sourceforge.net/DTD/sodipodi-0.dtd"
   xmlns:inkscape="http://www.inkscape.org/namespaces/inkscape"
   sodipodi:docname="accessories-character-map-symbolic.svg"
   inkscape:version="0.48.5 r10040"
   version="1.1"
   id="svg7384"
   width="15.999999"
   height="16">
  <metadata
     id="metadata90">
    <rdf:RDF>
      <cc:Work
         rdf:about="">
        <dc:format>image/svg+xml</dc:format>
        <dc:type
           rdf:resource="http://purl.org/dc/dcmitype/StillImage" />
        <dc:title>Gnome Symbolic Icon Theme</dc:title>
      </cc:Work>
    </rdf:RDF>
  </metadata>
  <sodipodi:namedview
     inkscape:guide-bbox="true"
     guidetolerance="10"
     inkscape:snap-to-guides="true"
     inkscape:object-paths="false"
     borderopacity="1"
     inkscape:pageshadow="2"
     inkscape:window-maximized="1"
     inkscape:zoom="18.719438"
     pagecolor="#555753"
     gridtolerance="10"
     inkscape:current-layer="layer11"
     inkscape:window-height="1031"
     inkscape:snap-others="false"
     bordercolor="#666666"
     inkscape:window-x="0"
     inkscape:window-y="25"
     inkscape:window-width="1914"
     inkscape:bbox-paths="false"
     inkscape:snap-global="true"
     inkscape:pageopacity="1"
     showgrid="true"
     id="namedview88"
     showborder="false"
     inkscape:cx="-5.0949247"
     inkscape:cy="11.68194"
     objecttolerance="10"
     inkscape:snap-bbox-midpoints="false"
     inkscape:object-nodes="false"
     showguides="true"
     inkscape:snap-bbox="true"
     inkscape:snap-nodes="true"
     inkscape:snap-grids="true">
    <inkscape:grid
       type="xygrid"
       enabled="true"
       visible="true"
       snapvisiblegridlinesonly="true"
       spacingx="1px"
       spacingy="1px"
       id="grid4866"
       empspacing="2" />
  </sodipodi:namedview>
  <title
     id="title9167">Gnome Symbolic Icon Theme</title>
  <defs
     id="defs7386" />
  <g
     inkscape:label="status"
     id="layer9"
     style="display:inline"
     transform="translate(-223.0002,-509)"
     inkscape:groupmode="layer" />
  <g
     inkscape:label="devices"
     id="layer10"
     transform="translate(-223.0002,-509)"
     inkscape:groupmode="layer" />
  <g
     inkscape:label="apps"
     id="layer11"
     transform="translate(-223.0002,-509)"
     inkscape:groupmode="layer">
    <path
       d="m 234.79144,514.47609 -2.90625,0.0625 0.0312,1 2.84375,-0.0625 c 0.2071,0.0159 0.33933,0.0958 0.40625,0.15625 0.0669,0.0604 0.125,0.10938 0.125,0.28125 l 0,0.59375 -2.46875,0 -0.0312,0 c -0.45298,-0.0248 -0.89083,0.15721 -1.15625,0.4375 -0.27171,0.28694 -0.39313,0.66382 -0.40625,1.03125 -0.0131,0.36743 0.0835,0.75908 0.34375,1.0625 0.25437,0.29652 0.69445,0.4734 1.15625,0.46875 0.0108,-1.1e-4 0.0204,3.2e-4 0.0312,0 l 2.96875,0 0.5,0 0,-0.5 0.0625,-3.09375 c 0,-0.40265 -0.16191,-0.78234 -0.4375,-1.03125 -0.27559,-0.24891 -0.63259,-0.37798 -1,-0.40625 l -0.0312,0 -0.0312,0 z m -2.0625,3.03125 0.0312,0 0.0312,0 2.46875,0 -0.0312,1 -2.5,0 c -0.22008,0.007 -0.30527,-0.0437 -0.375,-0.125 -0.0697,-0.0813 -0.13026,-0.22753 -0.125,-0.375 0.005,-0.14747 0.0777,-0.29202 0.15625,-0.375 0.0786,-0.083 0.14359,-0.1401 0.34375,-0.125 z"
       id="path11643"
       inkscape:connector-curvature="0"
       style="font-size:medium;font-style:normal;font-variant:normal;font-weight:normal;font-stretch:normal;text-indent:0;text-align:start;text-decoration:none;line-height:normal;letter-spacing:normal;word-spacing:normal;text-transform:none;direction:ltr;block-progression:tb;writing-mode:lr-tb;text-anchor:start;baseline-shift:baseline;color:#000000;fill:#bebebe;fill-opacity:1;stroke:none;stroke-width:1;marker:none;visibility:visible;display:inline;overflow:visible;enable-background:accumulate;font-family:Sans;-inkscape-font-specification:Sans" />
    <path
       d="m 235.60394,511.53859 -3,1 0.3125,0.9375 3,-1 -0.3125,-0.9375 z"
       id="path11645"
       inkscape:connector-curvature="0"
       style="font-size:medium;font-style:normal;font-variant:normal;font-weight:normal;font-stretch:normal;text-indent:0;text-align:start;text-decoration:none;line-height:normal;letter-spacing:normal;word-spacing:normal;text-transform:none;direction:ltr;block-progression:tb;writing-mode:lr-tb;text-anchor:start;baseline-shift:baseline;color:#000000;fill:#bebebe;fill-opacity:1;stroke:none;stroke-width:1;marker:none;visibility:visible;display:inline;overflow:visible;enable-background:accumulate;font-family:Sans;-inkscape-font-specification:Sans" />
    <rect
       style="fill:none"
       id="rect2394"
       width="14.333333"
       height="14.333333"
       x="223.65298"
       y="509.86108"
       ry="0" />
    <rect
       ry="2.0881295"
       y="511.05554"
       x="224.84743"
       height="11.944445"
       width="11.944445"
       id="rect3182"
       style="fill:#ffffff;fill-opacity:1;stroke:#ffffff;stroke-width:2.38888884;stroke-linejoin:round;stroke-miterlimit:4;stroke-opacity:1;stroke-dasharray:none" />
    <rect
       style="fill:#000000;fill-opacity:1"
       id="rect2398"
       width="11.944445"
       height="11.944445"
       x="224.84743"
       y="511.05554"
       ry="2.0881295" />
    <rect
       style="fill:#ffffff;fill-opacity:1"
       id="rect3172"
       width="6.5694442"
       height="6.5694442"
       x="227.53493"
       y="513.74304"
       ry="0.54136699" />
    <path
       inkscape:connector-curvature="0"
       style="font-size:21.76926041px;font-style:normal;font-variant:normal;font-weight:bold;font-stretch:normal;text-align:start;line-height:125%;writing-mode:lr-tb;text-anchor:start;fill:#000000;fill-opacity:1;stroke:none;font-family:Bitstream Vera Sans;-inkscape-font-specification:Bitstream Vera Sans Bold"
       d="m 231.49807,517.84059 c -0.24056,10e-6 -0.42205,0.0396 -0.54448,0.11883 -0.12028,0.0792 -0.18042,0.19597 -0.18042,0.35023 0,0.14177 0.0483,0.25331 0.14498,0.33461 0.0988,0.0792 0.23519,0.11883 0.40916,0.11883 0.21694,0 0.3995,-0.075 0.54771,-0.22516 0.1482,-0.15218 0.2223,-0.3419 0.2223,-0.56913 l 0,-0.12821 -0.59925,0 m 1.76232,-0.42216 0,1.99822 -1.16307,0 0,-0.51909 c -0.15465,0.21263 -0.32862,0.36794 -0.52193,0.46593 -0.1933,0.0959 -0.42849,0.14385 -0.70557,0.14385 -0.37372,0 -0.67765,-0.10528 -0.91176,-0.31584 -0.23198,-0.21264 -0.34795,-0.48783 -0.34795,-0.82556 0,-0.41069 0.14498,-0.71193 0.43494,-0.90373 0.29211,-0.19179 0.7496,-0.28769 1.37248,-0.28769 l 0.67979,0 0,-0.0875 c 0,-0.17719 -0.072,-0.30645 -0.21586,-0.38776 -0.14391,-0.0833 -0.36836,-0.12508 -0.67335,-0.12508 -0.247,0 -0.47683,0.024 -0.68946,0.0719 -0.21264,0.0479 -0.41024,0.11986 -0.59281,0.21576 l 0,-0.8537 c 0.247,-0.0584 0.49508,-0.10218 0.74424,-0.13133 0.24914,-0.0312 0.4983,-0.0469 0.74745,-0.0469 0.6508,2e-5 1.1201,0.12509 1.40791,0.37526 0.28997,0.24809 0.43494,0.65253 0.43495,1.21332 m -2.11993,-3.12398 0.90854,1.17579 -0.63147,0 -1.18885,-1.17579 0.91178,0"
       id="text3184" />
    <path
       inkscape:connector-curvature="0"
       style="fill:#ffffff;fill-opacity:1;fill-rule:evenodd;stroke:none"
       d="m 226.04187,512.84721 0.89583,0.89583 0,6.56944 -0.89583,0.89584 0,-8.36111"
       id="path3188" />
    <path
       inkscape:connector-curvature="0"
       id="path3190"
       d="m 235.59743,512.84721 -0.89584,0.89583 0,6.56944 0.89584,0.89584 0,-8.36111"
       style="fill:#ffffff;fill-opacity:1;fill-rule:evenodd;stroke:none" />
    <path
       inkscape:connector-curvature="0"
       style="fill:#ffffff;fill-opacity:1;fill-rule:evenodd;stroke:none"
       d="m 235.0002,521.80554 -0.89583,-0.89583 -6.56944,0 -0.89584,0.89583 8.36111,0"
       id="path3192" />
    <path
       inkscape:connector-curvature="0"
       id="path3194"
       d="m 235.0002,512.24998 -0.89583,0.89584 -6.56944,0 -0.89584,-0.89584 8.36111,0"
       style="fill:#ffffff;fill-opacity:1;fill-rule:evenodd;stroke:none" />
  </g>
  <g
     inkscape:label="places"
     id="layer13"
     transform="translate(-223.0002,-509)"
     inkscape:groupmode="layer" />
  <g
     inkscape:label="mimetypes"
     id="layer14"
     transform="translate(-223.0002,-509)"
     inkscape:groupmode="layer" />
  <g
     inkscape:label="emblems"
     id="layer15"
     style="display:inline"
     transform="translate(-223.0002,-509)"
     inkscape:groupmode="layer" />
  <g
     inkscape:label="emotes"
     id="g71291"
     transform="translate(-223.0002,-509)"
     style="display:inline"
     inkscape:groupmode="layer" />
  <g
     inkscape:label="categories"
     id="g4953"
     style="display:inline"
     transform="translate(-223.0002,-509)"
     inkscape:groupmode="layer" />
  <g
     inkscape:label="actions"
     id="layer12"
     transform="translate(-223.0002,-509)"
     style="display:inline"
     inkscape:groupmode="layer" />
</svg>
