<?xml version="1.0" encoding="UTF-8" standalone="no"?>
<!-- Created with Inkscape (http://www.inkscape.org/) -->

<svg
   xmlns:dc="http://purl.org/dc/elements/1.1/"
   xmlns:cc="http://creativecommons.org/ns#"
   xmlns:rdf="http://www.w3.org/1999/02/22-rdf-syntax-ns#"
   xmlns:svg="http://www.w3.org/2000/svg"
   xmlns="http://www.w3.org/2000/svg"
   xmlns:sodipodi="http://sodipodi.sourceforge.net/DTD/sodipodi-0.dtd"
   xmlns:inkscape="http://www.inkscape.org/namespaces/inkscape"
   sodipodi:docname="applets-screenshooter-symbolic.svg"
   width="16"
   height="16.000002"
   id="svg7384"
   version="1.1"
   inkscape:version="0.48.5 r10040">
  <metadata
     id="metadata90">
    <rdf:RDF>
      <cc:Work
         rdf:about="">
        <dc:format>image/svg+xml</dc:format>
        <dc:type
           rdf:resource="http://purl.org/dc/dcmitype/StillImage" />
        <dc:title>Gnome Symbolic Icon Theme</dc:title>
      </cc:Work>
    </rdf:RDF>
  </metadata>
  <sodipodi:namedview
     inkscape:snap-others="false"
     inkscape:cx="6.5"
     inkscape:cy="9.7727797"
     inkscape:window-x="0"
     inkscape:window-y="25"
     inkscape:zoom="17.34"
     inkscape:window-height="1031"
     bordercolor="#666666"
     pagecolor="#555753"
     guidetolerance="10"
     inkscape:object-nodes="true"
     inkscape:guide-bbox="true"
     inkscape:snap-bbox="true"
     borderopacity="1"
     objecttolerance="10"
     inkscape:pageshadow="2"
     inkscape:object-paths="true"
     inkscape:window-maximized="1"
     gridtolerance="10"
     showgrid="false"
     inkscape:snap-nodes="true"
     inkscape:bbox-paths="false"
     inkscape:snap-to-guides="true"
     id="namedview88"
     showguides="true"
     inkscape:snap-global="true"
     inkscape:snap-bbox-midpoints="false"
     inkscape:snap-grids="true"
     inkscape:pageopacity="1"
     showborder="true"
     inkscape:current-layer="layer11"
     inkscape:window-width="1914"
     borderlayer="true">
    <inkscape:grid
       empspacing="2"
       visible="true"
       type="xygrid"
       enabled="true"
       spacingx="1px"
       spacingy="1px"
       id="grid4866"
       snapvisiblegridlinesonly="true" />
  </sodipodi:namedview>
  <title
     id="title9167">Gnome Symbolic Icon Theme</title>
  <defs
     id="defs7386" />
  <g
     inkscape:label="status"
     transform="translate(-162.0002,-530)"
     style="display:inline"
     inkscape:groupmode="layer"
     id="layer9" />
  <g
     inkscape:label="devices"
     transform="translate(-162.0002,-530)"
     inkscape:groupmode="layer"
     id="layer10" />
  <g
     inkscape:label="apps"
     transform="translate(-162.0002,-530)"
     inkscape:groupmode="layer"
     id="layer11">
    <rect
       style="fill:#ffffff;fill-opacity:1;stroke:none"
       id="rect2995"
       width="15.262923"
       height="15.801615"
       x="162.44649"
       y="530.08307"
       ry="2.725415" />
    <path
       sodipodi:nodetypes="ssccsssccssss"
       d="m 174.60117,531.67938 c 0.93402,0 1.55681,0.62147 1.55681,1.55681 l 0,3.11363 -1.55681,0 0,-2.91903 c 0,-0.0964 -0.044,-0.1946 -0.14596,-0.1946 l -9.04901,0 c -0.10189,0 -0.14595,0.0982 -0.14595,0.1946 l 0,9.14631 c -0.93402,0 -1.55681,-0.71878 -1.55681,-1.65412 l 0,-7.68679 c 0,-0.93534 0.62279,-1.55681 1.55681,-1.55681 z"
       inkscape:connector-curvature="0"
       style="color:#bebebe;fill:#000000;fill-opacity:1;fill-rule:nonzero;stroke:none;stroke-width:3;marker:none;visibility:visible;display:inline;overflow:visible;enable-background:accumulate"
       id="rect5238-9" />
    <path
       sodipodi:nodetypes="scccsssssssccsssssss"
       d="m 169.3469,536.34982 c -0.36694,0 -0.57846,0.42171 -0.58381,0.77842 l 0,0.77841 -1.94602,0 c -0.3648,0.0507 -0.77841,0.42166 -0.77841,0.7784 l 0,4.67046 c 0,0.35675 0.41011,0.77841 0.77841,0.77841 l 7.7841,0 c 0.36829,0 0.7784,-0.42166 0.7784,-0.77841 l 0,-4.67046 c 0,-0.35674 -0.41011,-0.7784 -0.7784,-0.7784 l -1.94603,0 0,-0.77841 c 0,-0.35675 -0.26552,-0.77842 -0.63245,-0.77842 z m 1.36222,2.33523 c 1.28971,0 2.33522,1.04553 2.33522,2.33523 0,1.28971 -1.04551,2.33523 -2.33522,2.33523 -1.28971,0 -2.33523,-1.04552 -2.33523,-2.33523 0,-1.2897 1.04552,-2.33523 2.33523,-2.33523 z"
       inkscape:connector-curvature="0"
       style="color:#bebebe;fill:#000000;fill-opacity:1;fill-rule:nonzero;stroke:none;stroke-width:3;marker:none;visibility:visible;display:inline;overflow:visible;enable-background:accumulate"
       id="rect5238-8" />
    <path
       sodipodi:cx="-4.722775"
       sodipodi:cy="10.335032"
       sodipodi:rx="0.96899819"
       sodipodi:ry="1.335031"
       d="m -3.7537768,10.335032 a 0.96899819,1.335031 0 1 1 -1.9379964,0 0.96899819,1.335031 0 1 1 1.9379964,0 z"
       sodipodi:type="arc"
       transform="matrix(1.6066267,0,0,1.1661288,178.29685,528.96831)"
       style="fill:#000000;fill-opacity:1;fill-rule:nonzero;stroke:none"
       id="path2998" />
  </g>
  <g
     inkscape:label="places"
     transform="translate(-162.0002,-530)"
     inkscape:groupmode="layer"
     id="layer13" />
  <g
     inkscape:label="mimetypes"
     transform="translate(-162.0002,-530)"
     inkscape:groupmode="layer"
     id="layer14" />
  <g
     inkscape:label="emblems"
     transform="translate(-162.0002,-530)"
     style="display:inline"
     inkscape:groupmode="layer"
     id="layer15" />
  <g
     inkscape:label="emotes"
     transform="translate(-162.0002,-530)"
     style="display:inline"
     inkscape:groupmode="layer"
     id="g71291" />
  <g
     inkscape:label="categories"
     transform="translate(-162.0002,-530)"
     style="display:inline"
     inkscape:groupmode="layer"
     id="g4953" />
  <g
     inkscape:label="actions"
     transform="translate(-162.0002,-530)"
     style="display:inline"
     inkscape:groupmode="layer"
     id="layer12" />
</svg>
