<?xml version="1.0" encoding="UTF-8" standalone="no"?>
<!-- Created with Inkscape (http://www.inkscape.org/) -->

<svg
   xmlns:dc="http://purl.org/dc/elements/1.1/"
   xmlns:cc="http://creativecommons.org/ns#"
   xmlns:rdf="http://www.w3.org/1999/02/22-rdf-syntax-ns#"
   xmlns:svg="http://www.w3.org/2000/svg"
   xmlns="http://www.w3.org/2000/svg"
   xmlns:sodipodi="http://sodipodi.sourceforge.net/DTD/sodipodi-0.dtd"
   xmlns:inkscape="http://www.inkscape.org/namespaces/inkscape"
   width="256"
   height="256"
   id="svg3272"
   version="1.1"
   inkscape:version="0.48.5 r10040"
   sodipodi:docname="caripela.svg">
  <defs
     id="defs3274">
    <inkscape:path-effect
       effect="skeletal"
       id="path-effect3199"
       is_visible="true"
       pattern="M 0,5 C 0,2.24 2.24,0 5,0 7.76,0 10,2.24 10,5 10,7.76 7.76,10 5,10 2.24,10 0,7.76 0,5 z"
       copytype="single_stretched"
       prop_scale="1"
       scale_y_rel="false"
       spacing="0"
       normal_offset="0"
       tang_offset="0"
       prop_units="false"
       vertical_pattern="false"
       fuse_tolerance="0" />
    <inkscape:path-effect
       effect="skeletal"
       id="path-effect9230"
       is_visible="true"
       pattern="M 0,5 C 0,2.24 2.24,0 5,0 7.76,0 10,2.24 10,5 10,7.76 7.76,10 5,10 2.24,10 0,7.76 0,5 z"
       copytype="single_stretched"
       prop_scale="1"
       scale_y_rel="false"
       spacing="0"
       normal_offset="0"
       tang_offset="0"
       prop_units="false"
       vertical_pattern="false"
       fuse_tolerance="0" />
    <inkscape:path-effect
       effect="skeletal"
       id="path-effect8934"
       is_visible="true"
       pattern="m 231.32421,416.23945 c 0,-2.76 2.24,-5 5,-5 2.76,0 5,2.24 5,5 0,2.76 -2.24,5 -5,5 -2.76,0 -5,-2.24 -5,-5 z"
       copytype="single_stretched"
       prop_scale="0.2"
       scale_y_rel="false"
       spacing="0"
       normal_offset="0"
       tang_offset="0"
       prop_units="false"
       vertical_pattern="false"
       fuse_tolerance="0" />
    <inkscape:path-effect
       effect="skeletal"
       id="path-effect8938"
       is_visible="true"
       pattern="m 233.09197,430.63412 c 0,-2.76 2.24,-5 5,-5 2.76,0 5,2.24 5,5 0,2.76 -2.24,5 -5,5 -2.76,0 -5,-2.24 -5,-5 z"
       copytype="single_stretched"
       prop_scale="0.3"
       scale_y_rel="false"
       spacing="0"
       normal_offset="0"
       tang_offset="0"
       prop_units="false"
       vertical_pattern="false"
       fuse_tolerance="0" />
    <inkscape:path-effect
       effect="skeletal"
       id="path-effect8942"
       is_visible="true"
       pattern="m 234.85974,425.58336 c 0,-2.76 2.24,-5 5,-5 2.76,0 5,2.24 5,5 0,2.76 -2.24,5 -5,5 -2.76,0 -5,-2.24 -5,-5 z"
       copytype="single_stretched"
       prop_scale="0.3"
       scale_y_rel="false"
       spacing="0"
       normal_offset="0"
       tang_offset="0"
       prop_units="false"
       vertical_pattern="false"
       fuse_tolerance="0" />
    <inkscape:path-effect
       effect="skeletal"
       id="path-effect8942-2"
       is_visible="true"
       pattern="m 230.82246,340.58605 c 0,-2.76 2.24,-5 5,-5 2.76,0 5,2.24 5,5 0,2.76 -2.24,5 -5,5 -2.76,0 -5,-2.24 -5,-5 z"
       copytype="single_stretched"
       prop_scale="0.3"
       scale_y_rel="false"
       spacing="0"
       normal_offset="0"
       tang_offset="0"
       prop_units="false"
       vertical_pattern="false"
       fuse_tolerance="0" />
    <inkscape:path-effect
       effect="skeletal"
       id="path-effect8934-9"
       is_visible="true"
       pattern="m 231.32421,416.23945 c 0,-2.76 2.24,-5 5,-5 2.76,0 5,2.24 5,5 0,2.76 -2.24,5 -5,5 -2.76,0 -5,-2.24 -5,-5 z"
       copytype="single_stretched"
       prop_scale="0.2"
       scale_y_rel="false"
       spacing="0"
       normal_offset="0"
       tang_offset="0"
       prop_units="false"
       vertical_pattern="false"
       fuse_tolerance="0" />
    <inkscape:path-effect
       effect="skeletal"
       id="path-effect8938-6"
       is_visible="true"
       pattern="m 233.09197,430.63412 c 0,-2.76 2.24,-5 5,-5 2.76,0 5,2.24 5,5 0,2.76 -2.24,5 -5,5 -2.76,0 -5,-2.24 -5,-5 z"
       copytype="single_stretched"
       prop_scale="0.3"
       scale_y_rel="false"
       spacing="0"
       normal_offset="0"
       tang_offset="0"
       prop_units="false"
       vertical_pattern="false"
       fuse_tolerance="0" />
    <inkscape:path-effect
       effect="skeletal"
       id="path-effect8942-8"
       is_visible="true"
       pattern="m 234.85974,425.58336 c 0,-2.76 2.24,-5 5,-5 2.76,0 5,2.24 5,5 0,2.76 -2.24,5 -5,5 -2.76,0 -5,-2.24 -5,-5 z"
       copytype="single_stretched"
       prop_scale="0.3"
       scale_y_rel="false"
       spacing="0"
       normal_offset="0"
       tang_offset="0"
       prop_units="false"
       vertical_pattern="false"
       fuse_tolerance="0" />
    <inkscape:path-effect
       effect="skeletal"
       id="path-effect8942-2-6"
       is_visible="true"
       pattern="m 230.82246,340.58605 c 0,-2.76 2.24,-5 5,-5 2.76,0 5,2.24 5,5 0,2.76 -2.24,5 -5,5 -2.76,0 -5,-2.24 -5,-5 z"
       copytype="single_stretched"
       prop_scale="0.3"
       scale_y_rel="false"
       spacing="0"
       normal_offset="0"
       tang_offset="0"
       prop_units="false"
       vertical_pattern="false"
       fuse_tolerance="0" />
  </defs>
  <sodipodi:namedview
     id="base"
     pagecolor="#707070"
     bordercolor="#666666"
     borderopacity="1.0"
     inkscape:pageopacity="0.4"
     inkscape:pageshadow="2"
     inkscape:zoom="1.979899"
     inkscape:cx="17.989569"
     inkscape:cy="97.736804"
     inkscape:document-units="px"
     inkscape:current-layer="layer2"
     showgrid="false"
     inkscape:window-width="1918"
     inkscape:window-height="1037"
     inkscape:window-x="0"
     inkscape:window-y="26"
     inkscape:window-maximized="1" />
  <metadata
     id="metadata3277">
    <rdf:RDF>
      <cc:Work
         rdf:about="">
        <dc:format>image/svg+xml</dc:format>
        <dc:type
           rdf:resource="http://purl.org/dc/dcmitype/StillImage" />
        <dc:title />
      </cc:Work>
    </rdf:RDF>
  </metadata>
  <g
     inkscape:groupmode="layer"
     id="layer2"
     inkscape:label="Capa"
     style="opacity:1;display:inline">
    <path
       style="fill:#ffffff;stroke:none;stroke-width:1px;stroke-linecap:butt;stroke-linejoin:miter;stroke-opacity:1"
       d="M 3.0050762,141.9289 C 1.4660904,60.204805 37.4311,37.296258 66.900304,21.052876 96.369507,4.8094943 158.68061,1.1203104 198.07656,33.950269 237.47251,66.780226 254.55844,97.911127 251.52799,146.39845 246.10671,233.13901 168.65004,251.44737 128.06965,252.13271 82.111487,252.90886 4.5440621,223.653 3.0050762,141.9289 z"
       id="path5476"
       inkscape:connector-curvature="0"
       sodipodi:nodetypes="zzsssz" />
    <path
       style="fill:#000000;stroke:#000000;stroke-width:1px;stroke-linecap:butt;stroke-linejoin:miter;stroke-opacity:1"
       d="m 124.5625,21.4375 c -0.77002,0.016 -1.55304,0.04666 -2.3125,0.09375 -48.605501,3.013615 -87.152616,27.859063 -99.90625,68.25 C 7.6309663,136.37684 21.050762,185.76242 51,210.625 c 36.193544,30.04633 78.27679,30.0134 107.5625,22.15625 29.28572,-7.85714 70.56697,-37.5 76.28125,-72.5 C 241.77438,80.773612 173.07382,20.429167 124.5625,21.4375 z M 87.330357,65.321429 c 9.069957,0.406226 15.450893,7.022321 15.450893,7.022321 0,0 -5.561277,-2.304533 -14.339943,-4.047271 -8.867295,-1.760333 -13.449147,0.699669 -15.592004,1.771097 3.789407,-3.946644 7.709261,-5.082615 14.481054,-4.746147 z m 68.629463,6.464285 c 4.10387,0.949869 10.80633,3.068205 12.91518,7.959822 -4.54107,-2.643768 -8.99527,-4.564583 -14.74554,-4.986607 -8.5863,-0.505076 -14.72321,-0.07143 -14.72321,-0.07143 4.36606,-2.316175 12.9051,-3.079296 16.55357,-2.901786 z M 88.71875,71.03125 c 0.554518,0.01085 1.125802,0.06869 1.6875,0.125 17.97435,1.801994 21.71875,17.666084 21.71875,35.34375 0,17.67767 -8.57661,37.375 -22.71875,37.375 -15.361296,0 -28.151969,-8.93113 -29.8125,-30.8125 -1.608639,-21.197567 11.934955,-42.367695 29.125,-42.03125 z M 154.375,77.125 c 0.90824,-0.01221 1.81908,-6.35e-4 2.71875,0.0625 14.39467,1.010153 18.67655,26.76998 16.65625,43.4375 -2.02031,16.66752 -12.12975,29.82773 -30.3125,28.3125 -18.18275,-1.51523 -24.57679,-25.66083 -20.71875,-44.46875 3.78807,-18.466853 18.0327,-27.160635 31.65625,-27.34375 z m 25.8125,58.21875 c 7.75555,-0.50859 18.58091,57.45019 -1.90625,68.625 -22.22335,12.12183 -48.99222,17.69099 -59.09375,11.125 -10.10153,-6.56599 3.54219,-2.53204 5.5625,-5.5625 2.0203,-3.03045 7.0652,-7.56488 -2.53125,-16.65625 -6.83771,-6.47784 -20.46562,-10.86536 -27.8125,-12.875 5.386166,0.94702 14.81694,1.50682 26.8125,-2.28125 19.19289,-6.06092 49.48636,-28.78442 57.0625,-40.90625 0.59189,-0.94702 1.249,-1.42565 1.90625,-1.46875 z m -76.65625,6.21875 c 0,0 -7.852674,9.52232 -16.78125,10.59375 -8.928571,1.07143 -18.9375,-10.3125 -18.9375,-10.3125 0,0 5.966373,4.68003 17.125,5 11.82904,0.3392 18.59375,-5.28125 18.59375,-5.28125 z m 25.78125,8.375 c 0,0 8.07678,2.77871 12.875,3.03125 4.79823,0.25254 16.15625,-0.25 16.15625,-0.25 0,0 -13.37325,4.53125 -16.65625,4.53125 -3.28299,0 -12.375,-7.3125 -12.375,-7.3125 z m -39.90625,28.78125 c 0,0 2.020207,0.47538 4.96875,1.28125 -3.211121,-0.56724 -4.96875,-1.28125 -4.96875,-1.28125 z"
       id="path5466"
       inkscape:connector-curvature="0"
       sodipodi:nodetypes="ssssscsccscccccccssssssssssssssssscssscscsccscscccc" />
    <path
       style="fill:#000000;fill-opacity:1;stroke:#000000;stroke-width:1px;stroke-linecap:butt;stroke-linejoin:miter;stroke-opacity:1"
       d="m 145.46197,171.65226 7.07106,21.71828 c 0,0 22.22336,-13.63706 21.21321,-17.17259 -1.01015,-3.53553 -11.61676,-15.65737 -11.61676,-15.65737 z"
       id="path5474"
       inkscape:connector-curvature="0" />
    <path
       sodipodi:type="arc"
       style="fill:#000000;fill-opacity:1;stroke:none"
       id="path5481"
       sodipodi:cx="92.14286"
       sodipodi:cy="113.14286"
       sodipodi:rx="6.4285712"
       sodipodi:ry="8.9285717"
       d="m 88.765202,120.73971 a 6.4285712,8.9285717 0 1 1 3.60471,1.32615"
       sodipodi:start="2.1239974"
       sodipodi:end="7.8186551"
       sodipodi:open="true"
       transform="translate(-2.5,-0.71428571)" />
    <path
       sodipodi:type="arc"
       style="fill:#000000;fill-opacity:1;stroke:none"
       id="path5483"
       sodipodi:cx="147.32143"
       sodipodi:cy="116.71429"
       sodipodi:rx="5.5357141"
       sodipodi:ry="8.5714283"
       d="m 144.41289,124.00726 a 5.5357141,8.5714283 0 1 1 3.10405,1.27311"
       sodipodi:start="2.1239974"
       sodipodi:end="7.8186551"
       sodipodi:open="true"
       transform="translate(-2.1428571,0.71428571)" />
  </g>
</svg>
