<?xml version="1.0" encoding="UTF-8" standalone="no"?>
<!-- Created with Inkscape (http://www.inkscape.org/) -->

<svg
   xmlns:dc="http://purl.org/dc/elements/1.1/"
   xmlns:cc="http://creativecommons.org/ns#"
   xmlns:rdf="http://www.w3.org/1999/02/22-rdf-syntax-ns#"
   xmlns:svg="http://www.w3.org/2000/svg"
   xmlns="http://www.w3.org/2000/svg"
   xmlns:sodipodi="http://sodipodi.sourceforge.net/DTD/sodipodi-0.dtd"
   xmlns:inkscape="http://www.inkscape.org/namespaces/inkscape"
   version="1.1"
   width="48"
   height="48"
   id="svg3039"
   inkscape:version="0.48.5 r10040"
   sodipodi:docname="chromium.svg">
  <sodipodi:namedview
     pagecolor="#ffffff"
     bordercolor="#666666"
     borderopacity="1"
     objecttolerance="10"
     gridtolerance="10"
     guidetolerance="10"
     inkscape:pageopacity="0"
     inkscape:pageshadow="2"
     inkscape:window-width="1914"
     inkscape:window-height="1031"
     id="namedview6"
     showgrid="false"
     inkscape:zoom="2.0000001"
     inkscape:cx="244.49326"
     inkscape:cy="109.96226"
     inkscape:window-x="0"
     inkscape:window-y="25"
     inkscape:window-maximized="1"
     inkscape:current-layer="svg3039" />
  <metadata
     id="metadata3045">
    <rdf:RDF>
      <cc:Work
         rdf:about="">
        <dc:format>image/svg+xml</dc:format>
        <dc:type
           rdf:resource="http://purl.org/dc/dcmitype/StillImage" />
        <dc:title />
      </cc:Work>
    </rdf:RDF>
  </metadata>
  <defs
     id="defs3043">
    <linearGradient
       id="linearGradient3803">
      <stop
         style="stop-color:#d7def0;stop-opacity:1;"
         offset="0"
         id="stop3805" />
      <stop
         id="stop3811"
         offset="0.5"
         style="stop-color:#ffffff;stop-opacity:1" />
      <stop
         style="stop-color:#d5def0;stop-opacity:1"
         offset="1"
         id="stop3807" />
    </linearGradient>
    <linearGradient
       id="linearGradient3750">
      <stop
         id="stop3752"
         offset="0"
         style="stop-color:#d0e2f1;stop-opacity:1" />
      <stop
         style="stop-color:#cadef0;stop-opacity:1"
         offset="0.85580856"
         id="stop3756" />
      <stop
         id="stop3754"
         offset="1"
         style="stop-color:#95bee3;stop-opacity:1" />
    </linearGradient>
    <linearGradient
       id="linearGradient3708">
      <stop
         style="stop-color:#658db6;stop-opacity:1"
         offset="0"
         id="stop3710" />
      <stop
         id="stop3716"
         offset="0.76777935"
         style="stop-color:#527fab;stop-opacity:1;" />
      <stop
         style="stop-color:#4071a0;stop-opacity:1"
         offset="1"
         id="stop3712" />
    </linearGradient>
    <linearGradient
       id="linearGradient3698">
      <stop
         id="stop3706"
         offset="0"
         style="stop-color:#89b7e1;stop-opacity:1" />
      <stop
         style="stop-color:#699dd3;stop-opacity:1"
         offset="1"
         id="stop3702" />
    </linearGradient>
  </defs>
  <path
     sodipodi:type="arc"
     style="fill:#ffffff;fill-opacity:1;stroke:none"
     id="path3007"
     sodipodi:cx="140"
     sodipodi:cy="151"
     sodipodi:rx="121.49999"
     sodipodi:ry="121.49999"
     d="m 261.14878,141.7684 a 121.49999,121.49999 0 1 1 -0.23058,-2.64433"
     sodipodi:start="6.2071318"
     sodipodi:end="12.46847"
     sodipodi:open="true"
     transform="matrix(0.18316551,0,0,0.18316551,-1.8932983,-3.4078625)" />
  <path
     style="fill:#ffffff;fill-opacity:1;fill-rule:nonzero;stroke:none"
     d="m 42.045241,16.380397 c 0,2.779424 -3.509557,6.194333 -8.129408,6.194333 -4.619851,0 -10.62591,-2.851654 -10.62591,-5.631071 0,-2.779424 3.745129,-5.032591 8.36498,-5.032591 3.529274,0 8.221135,3.243895 10.011878,3.608992 0.140406,0.303327 0.242694,0.518702 0.37846,0.860337 z"
     id="path3655"
     sodipodi:nodetypes="cssscc"
     inkscape:connector-curvature="0" />
  <path
     style="fill:#ffffff;fill-opacity:1;fill-rule:nonzero;stroke:none"
     d="m 7.7588061,12.452782 c 2.1955811,-1.704296 6.2622459,-0.220828 9.0950649,3.428573 2.832817,3.64941 3.137805,9.055259 0.94223,10.759555 C 15.600522,28.345206 11.735797,25.702575 8.9029797,22.053166 6.7388849,19.265247 8.1846916,14.748872 7.3750415,13.110427 7.484256,12.911451 7.6200543,12.6748 7.7588061,12.452782 z"
     id="path3655-4-8"
     sodipodi:nodetypes="cssscc"
     inkscape:connector-curvature="0" />
  <path
     style="fill:#000000;fill-opacity:1;fill-rule:nonzero;stroke:none"
     d="m 41.667691,15.518821 c -1.242731,-0.0057 -10.829455,0.05134 -19.092122,0.01161 -3.080361,0.905808 -5.622112,2.35116 -6.948019,5.169982 C 14.68126,19.894922 8.4021935,13.214408 7.7529922,12.465186 13.319283,5.0796905 20.968884,4.3862444 22.456175,4.3862444 c 1.487291,0 12.527159,-1.5306626 19.211516,11.1325836 z"
     id="path3596"
     sodipodi:nodetypes="ccccsc"
     inkscape:connector-curvature="0" />
  <path
     style="fill:#ffffff;fill-opacity:1;fill-rule:nonzero;stroke:none"
     d="m 21.644022,44.016538 c -2.216305,-1.67726 -2.584588,-6.550366 0.20328,-10.234224 2.787868,-3.683857 7.276793,-6.197166 9.493098,-4.519913 2.216304,1.677252 1.320724,6.909937 -1.467146,10.593795 -2.129756,2.814229 -6.29356,2.994172 -7.665317,4.201791 -0.219698,-0.008 -0.346717,-0.01075 -0.563915,-0.04144 z"
     id="path3655-4"
     sodipodi:nodetypes="cssscc"
     inkscape:connector-curvature="0" />
  <path
     style="fill:#000000;fill-opacity:1;fill-rule:nonzero;stroke:none"
     d="m 22.207687,44.05783 c 0.635462,-1.067985 5.117431,-9.38048 9.343635,-16.48065 0.782201,-3.114045 0.948107,-5.965636 -0.80833,-8.538323 1.174216,-0.406809 10.32731,-2.478396 11.302315,-2.657734 3.540456,8.543671 0.257111,15.487509 -0.497444,16.769174 -0.754557,1.281672 -5.036428,11.571828 -19.340176,10.907533 z"
     id="path3596-1"
     sodipodi:nodetypes="ccccsc"
     inkscape:connector-curvature="0" />
  <path
     style="fill:#000000;fill-opacity:1;fill-rule:nonzero;stroke:none"
     d="m 7.3819555,13.103748 c 0.6150755,1.079862 5.4480635,9.359403 9.5364275,16.539828 2.321996,2.21753 4.909321,3.455254 8.013753,3.197805 -0.225881,1.221988 -2.948781,10.240746 -3.274145,11.177194 C 12.480169,42.879847 8.0623055,36.596558 7.3201921,35.307644 6.5780801,34.01873 -0.2569817,25.215118 7.3819555,13.103748 z"
     id="path3596-1-7"
     sodipodi:nodetypes="ccccsc"
     inkscape:connector-curvature="0" />
  <path
     style="fill:#000000;fill-opacity:1;stroke:#ffffff;stroke-width:1.38315701;stroke-miterlimit:4;stroke-opacity:1"
     d="m 31.784531,24.161445 c 0,4.494003 -3.627882,8.13711 -8.103102,8.13711 -4.475219,0 -8.103101,-3.643107 -8.103101,-8.13711 0,-4.493995 3.627882,-8.137103 8.103101,-8.137103 4.47522,0 8.103102,3.643108 8.103102,8.137103 z"
     id="path3645"
     inkscape:connector-curvature="0" />
</svg>
