<?xml version="1.0" encoding="UTF-8" standalone="no"?>
<!-- Created with Inkscape (http://www.inkscape.org/) -->

<svg
   xmlns:dc="http://purl.org/dc/elements/1.1/"
   xmlns:cc="http://creativecommons.org/ns#"
   xmlns:rdf="http://www.w3.org/1999/02/22-rdf-syntax-ns#"
   xmlns:svg="http://www.w3.org/2000/svg"
   xmlns="http://www.w3.org/2000/svg"
   xmlns:sodipodi="http://sodipodi.sourceforge.net/DTD/sodipodi-0.dtd"
   xmlns:inkscape="http://www.inkscape.org/namespaces/inkscape"
   version="1.1"
   width="48"
   height="48"
   id="svg1307"
   inkscape:version="0.48.5 r10040"
   sodipodi:docname="gnome-settings.svg">
  <sodipodi:namedview
     pagecolor="#ffffff"
     bordercolor="#666666"
     borderopacity="1"
     objecttolerance="10"
     gridtolerance="10"
     guidetolerance="10"
     inkscape:pageopacity="0"
     inkscape:pageshadow="2"
     inkscape:window-width="1914"
     inkscape:window-height="1031"
     id="namedview8"
     showgrid="false"
     inkscape:zoom="4.9166667"
     inkscape:cx="24.40678"
     inkscape:cy="23.593221"
     inkscape:window-x="0"
     inkscape:window-y="25"
     inkscape:window-maximized="1"
     inkscape:current-layer="svg1307" />
  <defs
     id="defs1309" />
  <metadata
     id="metadata1312">
    <rdf:RDF>
      <cc:Work
         rdf:about="">
        <dc:format>image/svg+xml</dc:format>
        <dc:type
           rdf:resource="http://purl.org/dc/dcmitype/StillImage" />
        <dc:title />
      </cc:Work>
    </rdf:RDF>
  </metadata>
  <rect
     style="fill:#ffffff;fill-opacity:1;stroke:none"
     id="rect3022"
     width="45.966099"
     height="46.169491"
     x="1.3898306"
     y="1.0169491"
     ry="3.2732797" />
  <path
     inkscape:connector-curvature="0"
     style="fill:#000000;fill-opacity:1;fill-rule:evenodd;stroke:none"
     id="rect3938"
     d="m 8.3737292,4.2372884 c -2.3155402,0 -4.1703392,1.8547995 -4.1703392,4.1703392 l 0,31.7949164 c 0,2.31554 1.854799,4.170339 4.1703392,4.170339 l 31.7949168,0 c 2.315541,0 4.170342,-1.854799 4.170342,-4.170339 l 0,-31.7949164 c 0,-2.3155397 -1.854801,-4.1703392 -4.170342,-4.1703392 l -31.7949168,0 z m 22.9525458,4.7661019 3.982198,0 0,3.2923727 -3.982198,0 0,-3.2923727 z m -18.092376,0.1881356 3.982203,0 0,13.0440681 -3.982203,0 0,-13.0440681 z m 14.988135,5.0796611 10.159325,0 c 1.638691,0 2.94746,1.308768 2.94746,2.947458 l 0,4.138983 c 0,1.63869 -1.308769,2.947458 -2.94746,2.947458 l -10.159325,0 c -1.638691,0 -2.94746,-1.308768 -2.94746,-2.947458 l 0,-4.138983 c 0,-1.63869 1.308769,-2.947458 2.94746,-2.947458 z m -18.061017,10.033899 10.159323,0 c 1.63869,0 2.947458,1.308767 2.947458,2.947458 l 0,4.138983 c 0,1.63869 -1.308768,2.947457 -2.947458,2.947457 l -10.159323,0 c -1.6386889,0 -2.9474575,-1.308767 -2.9474575,-2.947457 l 0,-4.138983 c 0,-1.638691 1.3087686,-2.947458 2.9474575,-2.947458 z m 21.165258,2.006779 3.982198,0 0,12.981357 -3.982198,0 0,-12.981357 z m -18.092376,10.065255 3.982203,0 0,3.072881 -3.982203,0 0,-3.072881 z" />
</svg>
