<?xml version="1.0" encoding="UTF-8" standalone="no"?>
<!-- Created with Inkscape (http://www.inkscape.org/) -->

<svg
   xmlns:dc="http://purl.org/dc/elements/1.1/"
   xmlns:cc="http://creativecommons.org/ns#"
   xmlns:rdf="http://www.w3.org/1999/02/22-rdf-syntax-ns#"
   xmlns:svg="http://www.w3.org/2000/svg"
   xmlns="http://www.w3.org/2000/svg"
   xmlns:sodipodi="http://sodipodi.sourceforge.net/DTD/sodipodi-0.dtd"
   xmlns:inkscape="http://www.inkscape.org/namespaces/inkscape"
   width="48"
   height="48"
   id="svg2"
   version="1.1"
   inkscape:version="0.48.5 r10040"
   sodipodi:docname="gtk-media-forward.ltr.svg">
  <defs
     id="defs4" />
  <sodipodi:namedview
     id="base"
     pagecolor="#ffffff"
     bordercolor="#666666"
     borderopacity="1.0"
     inkscape:pageopacity="0.0"
     inkscape:pageshadow="2"
     inkscape:zoom="8.7057523"
     inkscape:cx="37.324644"
     inkscape:cy="14.776118"
     inkscape:document-units="px"
     inkscape:current-layer="layer1"
     showgrid="false"
     inkscape:window-width="1914"
     inkscape:window-height="1031"
     inkscape:window-x="0"
     inkscape:window-y="25"
     inkscape:window-maximized="1" />
  <metadata
     id="metadata7">
    <rdf:RDF>
      <cc:Work
         rdf:about="">
        <dc:format>image/svg+xml</dc:format>
        <dc:type
           rdf:resource="http://purl.org/dc/dcmitype/StillImage" />
        <dc:title />
      </cc:Work>
    </rdf:RDF>
  </metadata>
  <g
     inkscape:label="Capa 1"
     inkscape:groupmode="layer"
     id="layer1"
     transform="translate(0,-1004.3622)">
    <g
       inkscape:label="status"
       transform="matrix(-3.6605983,0,0,3.6605983,270.96128,-1217.4705)"
       id="layer9-1-7"
       style="fill:#ffffff;fill-opacity:1;display:inline" />
    <g
       style="fill:#ffffff;fill-opacity:1"
       inkscape:label="devices"
       transform="matrix(-3.6605983,0,0,3.6605983,270.96128,-1217.4705)"
       id="layer10-7-4" />
    <g
       style="fill:#ffffff;fill-opacity:1"
       inkscape:label="apps"
       transform="matrix(-3.6605983,0,0,3.6605983,270.96128,-1217.4705)"
       id="layer11-4-3" />
    <path
       inkscape:connector-curvature="0"
       d="m 4.5318797,1013.3153 c 0.6607856,0.029 1.3081843,0.2167 1.8625856,0.5719 l 18.6258677,10.9818 c 1.051975,0.6579 1.629764,1.8733 1.629764,3.0887 0,1.2154 -0.577789,2.4308 -1.629764,3.0886 l -18.6258677,10.9818 c -0.5544013,0.3551 -1.2018,0.5427 -1.8625856,0.572 l -0.5820571,0 -3.14311783,0 0,-29.2848 3.14311783,0 z"
       id="path3807-1-1-4-7-2-5"
       sodipodi:nodetypes="cccscccccccc"
       style="font-size:medium;font-style:normal;font-variant:normal;font-weight:normal;font-stretch:normal;text-indent:0;text-align:start;text-decoration:none;line-height:normal;letter-spacing:normal;word-spacing:normal;text-transform:none;direction:ltr;block-progression:tb;writing-mode:lr-tb;text-anchor:start;color:#000000;fill:#ffffff;fill-opacity:1;fill-rule:nonzero;stroke:none;stroke-width:2;marker:none;visibility:visible;display:inline;overflow:visible;enable-background:accumulate;font-family:Bitstream Vera Sans;-inkscape-font-specification:Bitstream Vera Sans" />
    <path
       inkscape:connector-curvature="0"
       d="m 25.701193,1013.4945 c 0.649331,0.029 1.285507,0.2167 1.830299,0.5719 l 18.302992,10.9818 c 1.033738,0.6579 1.601511,1.8733 1.601511,3.0887 0,1.2154 -0.567773,2.4307 -1.601511,3.0886 l -18.302992,10.9818 c -0.544792,0.3551 -1.180968,0.5427 -1.830299,0.572 l -0.571969,0 -3.088629,0 0,-29.2848 3.088629,0 z"
       id="path3807-1-1-4-7-2-0-1"
       sodipodi:nodetypes="cccscccccccc"
       style="font-size:medium;font-style:normal;font-variant:normal;font-weight:normal;font-stretch:normal;text-indent:0;text-align:start;text-decoration:none;line-height:normal;letter-spacing:normal;word-spacing:normal;text-transform:none;direction:ltr;block-progression:tb;writing-mode:lr-tb;text-anchor:start;color:#000000;fill:#ffffff;fill-opacity:1;fill-rule:nonzero;stroke:none;stroke-width:2;marker:none;visibility:visible;display:inline;overflow:visible;enable-background:accumulate;font-family:Bitstream Vera Sans;-inkscape-font-specification:Bitstream Vera Sans" />
    <g
       style="fill:#ffffff;fill-opacity:1"
       inkscape:label="places"
       transform="matrix(-3.6605983,0,0,3.6605983,270.96128,-1217.4705)"
       id="layer13-9-3" />
    <g
       style="fill:#ffffff;fill-opacity:1"
       inkscape:label="mimetypes"
       transform="matrix(-3.6605983,0,0,3.6605983,270.96128,-1217.4705)"
       id="layer14-4-3" />
    <g
       inkscape:label="emblems"
       transform="matrix(-3.6605983,0,0,3.6605983,270.96128,-1217.4705)"
       id="layer15-8-5"
       style="fill:#ffffff;fill-opacity:1;display:inline" />
    <g
       inkscape:label="status"
       transform="matrix(-2.9856003,0,0,2.9856003,226.96594,-803.05508)"
       id="layer9-1"
       style="fill:#000000;fill-opacity:1;display:inline" />
    <g
       style="fill:#000000;fill-opacity:1"
       inkscape:label="devices"
       transform="matrix(-2.9856003,0,0,2.9856003,226.96594,-803.05508)"
       id="layer10-7" />
    <g
       style="fill:#000000;fill-opacity:1"
       inkscape:label="apps"
       transform="matrix(-2.9856003,0,0,2.9856003,226.96594,-803.05508)"
       id="layer11-4" />
    <path
       inkscape:connector-curvature="0"
       d="m 6.0315205,1016.1611 c 0.5295977,0.024 1.0484652,0.1768 1.4928002,0.4665 l 14.9280013,8.9568 c 0.843122,0.5366 1.3062,1.5278 1.3062,2.5191 0,0.9913 -0.463078,1.9826 -1.3062,2.5191 l -14.9280013,8.9568 c -0.444335,0.2896 -0.9632025,0.4426 -1.4928002,0.4665 l -0.4665,0 -2.5191003,0 0,-23.8848 2.5191003,0 z"
       id="path3807-1-1-4-7-2"
       sodipodi:nodetypes="cccscccccccc"
       style="font-size:medium;font-style:normal;font-variant:normal;font-weight:normal;font-stretch:normal;text-indent:0;text-align:start;text-decoration:none;line-height:normal;letter-spacing:normal;word-spacing:normal;text-transform:none;direction:ltr;block-progression:tb;writing-mode:lr-tb;text-anchor:start;color:#000000;fill:#000000;fill-opacity:1;fill-rule:nonzero;stroke:none;stroke-width:2;marker:none;visibility:visible;display:inline;overflow:visible;enable-background:accumulate;font-family:Bitstream Vera Sans;-inkscape-font-specification:Bitstream Vera Sans" />
    <path
       inkscape:connector-curvature="0"
       d="m 26.930723,1016.1611 c 0.529597,0.024 1.048465,0.1768 1.4928,0.4665 l 14.928001,8.9568 c 0.843122,0.5366 1.3062,1.5278 1.3062,2.5191 0,0.9913 -0.463078,1.9826 -1.3062,2.5191 l -14.928001,8.9568 c -0.444335,0.2896 -0.963203,0.4426 -1.4928,0.4665 l -0.4665,0 -2.519101,0 0,-23.8848 2.519101,0 z"
       id="path3807-1-1-4-7-2-0"
       sodipodi:nodetypes="cccscccccccc"
       style="font-size:medium;font-style:normal;font-variant:normal;font-weight:normal;font-stretch:normal;text-indent:0;text-align:start;text-decoration:none;line-height:normal;letter-spacing:normal;word-spacing:normal;text-transform:none;direction:ltr;block-progression:tb;writing-mode:lr-tb;text-anchor:start;color:#000000;fill:#000000;fill-opacity:1;fill-rule:nonzero;stroke:none;stroke-width:2;marker:none;visibility:visible;display:inline;overflow:visible;enable-background:accumulate;font-family:Bitstream Vera Sans;-inkscape-font-specification:Bitstream Vera Sans" />
    <g
       style="fill:#000000;fill-opacity:1"
       inkscape:label="places"
       transform="matrix(-2.9856003,0,0,2.9856003,226.96594,-803.05508)"
       id="layer13-9" />
    <g
       style="fill:#000000;fill-opacity:1"
       inkscape:label="mimetypes"
       transform="matrix(-2.9856003,0,0,2.9856003,226.96594,-803.05508)"
       id="layer14-4" />
    <g
       inkscape:label="emblems"
       transform="matrix(-2.9856003,0,0,2.9856003,226.96594,-803.05508)"
       id="layer15-8"
       style="fill:#000000;fill-opacity:1;display:inline" />
  </g>
</svg>
