<?xml version="1.0" encoding="UTF-8" standalone="no"?>
<!-- Created with Inkscape (http://www.inkscape.org/) -->

<svg
   xmlns:dc="http://purl.org/dc/elements/1.1/"
   xmlns:cc="http://creativecommons.org/ns#"
   xmlns:rdf="http://www.w3.org/1999/02/22-rdf-syntax-ns#"
   xmlns:svg="http://www.w3.org/2000/svg"
   xmlns="http://www.w3.org/2000/svg"
   xmlns:xlink="http://www.w3.org/1999/xlink"
   xmlns:sodipodi="http://sodipodi.sourceforge.net/DTD/sodipodi-0.dtd"
   xmlns:inkscape="http://www.inkscape.org/namespaces/inkscape"
   width="48"
   height="48"
   id="svg3832"
   version="1.1"
   inkscape:version="0.48.5 r10040"
   sodipodi:docname="huayra-2048.svg"
   inkscape:export-filename="/home/alumno/Dropbox/huayra/logos/compartir-web.png"
   inkscape:export-xdpi="5.527988"
   inkscape:export-ydpi="5.527988">
  <defs
     id="defs3834">
    <inkscape:path-effect
       effect="skeletal"
       id="path-effect4354"
       is_visible="true"
       pattern="M 0,5 C 0,2.24 2.24,0 5,0 7.76,0 10,2.24 10,5 10,7.76 7.76,10 5,10 2.24,10 0,7.76 0,5 z"
       copytype="single_stretched"
       prop_scale="0.44"
       scale_y_rel="false"
       spacing="0"
       normal_offset="0"
       tang_offset="0"
       prop_units="false"
       vertical_pattern="false"
       fuse_tolerance="0" />
    <inkscape:path-effect
       effect="skeletal"
       id="path-effect3987"
       is_visible="true"
       pattern="M 0,0 0,10 10,5 z"
       copytype="single_stretched"
       prop_scale="0.69"
       scale_y_rel="false"
       spacing="0"
       normal_offset="0"
       tang_offset="0"
       prop_units="false"
       vertical_pattern="false"
       fuse_tolerance="0" />
    <inkscape:path-effect
       effect="skeletal"
       id="path-effect3983"
       is_visible="true"
       pattern="M 0,0 0,10 10,5 z"
       copytype="single_stretched"
       prop_scale="1"
       scale_y_rel="false"
       spacing="0"
       normal_offset="0"
       tang_offset="0"
       prop_units="false"
       vertical_pattern="false"
       fuse_tolerance="0" />
    <inkscape:path-effect
       effect="skeletal"
       id="path-effect3975"
       is_visible="true"
       pattern="M 0,0 0,10 10,5 z"
       copytype="single_stretched"
       prop_scale="1"
       scale_y_rel="false"
       spacing="0"
       normal_offset="0"
       tang_offset="0"
       prop_units="false"
       vertical_pattern="false"
       fuse_tolerance="0" />
    <linearGradient
       id="linearGradient3958">
      <stop
         style="stop-color:#d7e3f4;stop-opacity:1;"
         offset="0"
         id="stop3960" />
      <stop
         style="stop-color:#7e97bb;stop-opacity:1;"
         offset="1"
         id="stop3962" />
    </linearGradient>
    <inkscape:path-effect
       effect="skeletal"
       id="path-effect3188"
       is_visible="true"
       pattern="M 0,0 0,10 10,5 z"
       copytype="single_stretched"
       prop_scale="1"
       scale_y_rel="false"
       spacing="0"
       normal_offset="0"
       tang_offset="0"
       prop_units="false"
       vertical_pattern="false"
       fuse_tolerance="0" />
    <inkscape:path-effect
       effect="skeletal"
       id="path-effect3184"
       is_visible="true"
       pattern="M 0,0 0,10 10,5 z"
       copytype="single_stretched"
       prop_scale="1"
       scale_y_rel="false"
       spacing="0"
       normal_offset="0"
       tang_offset="0"
       prop_units="false"
       vertical_pattern="false"
       fuse_tolerance="0" />
    <inkscape:path-effect
       effect="skeletal"
       id="path-effect3180"
       is_visible="true"
       pattern="M 0,5 10,10 10,0 z"
       copytype="single_stretched"
       prop_scale="1"
       scale_y_rel="false"
       spacing="0"
       normal_offset="0"
       tang_offset="0"
       prop_units="false"
       vertical_pattern="false"
       fuse_tolerance="0" />
    <inkscape:path-effect
       effect="skeletal"
       id="path-effect3176"
       is_visible="true"
       pattern="M 0,5 10,10 10,0 z"
       copytype="single_stretched"
       prop_scale="1"
       scale_y_rel="false"
       spacing="0"
       normal_offset="0"
       tang_offset="0"
       prop_units="false"
       vertical_pattern="false"
       fuse_tolerance="0" />
    <inkscape:path-effect
       effect="skeletal"
       id="path-effect3122"
       is_visible="true"
       pattern="M 0,5 C 0,2.24 2.24,0 5,0 7.76,0 10,2.24 10,5 10,7.76 7.76,10 5,10 2.24,10 0,7.76 0,5 z"
       copytype="single_stretched"
       prop_scale="0.59"
       scale_y_rel="false"
       spacing="0"
       normal_offset="0"
       tang_offset="0"
       prop_units="false"
       vertical_pattern="false"
       fuse_tolerance="0" />
    <inkscape:path-effect
       effect="skeletal"
       id="path-effect3118"
       is_visible="true"
       pattern="M 0,5 C 0,2.24 2.24,0 5,0 7.76,0 10,2.24 10,5 10,7.76 7.76,10 5,10 2.24,10 0,7.76 0,5 z"
       copytype="single_stretched"
       prop_scale="1"
       scale_y_rel="false"
       spacing="0"
       normal_offset="0"
       tang_offset="0"
       prop_units="false"
       vertical_pattern="false"
       fuse_tolerance="0" />
    <inkscape:path-effect
       effect="skeletal"
       id="path-effect3114"
       is_visible="true"
       pattern="M 0,5 C 0,2.24 2.24,0 5,0 7.76,0 10,2.24 10,5 10,7.76 7.76,10 5,10 2.24,10 0,7.76 0,5 z"
       copytype="single_stretched"
       prop_scale="0.61"
       scale_y_rel="false"
       spacing="0"
       normal_offset="0"
       tang_offset="0"
       prop_units="false"
       vertical_pattern="false"
       fuse_tolerance="0" />
    <inkscape:path-effect
       effect="skeletal"
       id="path-effect3110"
       is_visible="true"
       pattern="m -2.0203051,10.555839 c 0,-2.76 2.24000002,-5 5,-5 2.76,0 5,2.24 5,5 0,2.76 -2.24,5 -5,5 -2.75999998,0 -5,-2.24 -5,-5 z"
       copytype="single_stretched"
       prop_scale="1"
       scale_y_rel="false"
       spacing="0"
       normal_offset="0"
       tang_offset="0"
       prop_units="false"
       vertical_pattern="false"
       fuse_tolerance="0" />
    <inkscape:path-effect
       effect="skeletal"
       id="path-effect3102"
       is_visible="true"
       pattern="m -2.0203051,10.555839 c 0,-2.76 2.24000002,-5 5,-5 2.76,0 5,2.24 5,5 0,2.76 -2.24,5 -5,5 -2.75999998,0 -5,-2.24 -5,-5 z"
       copytype="single_stretched"
       prop_scale="0.6"
       scale_y_rel="false"
       spacing="0"
       normal_offset="0"
       tang_offset="0"
       prop_units="false"
       vertical_pattern="false"
       fuse_tolerance="0" />
    <inkscape:path-effect
       effect="skeletal"
       id="path-effect3098"
       is_visible="true"
       pattern="m -2.0203051,10.555839 c 0,-2.76 2.24000002,-5 5,-5 2.76,0 5,2.24 5,5 0,2.76 -2.24,5 -5,5 -2.75999998,0 -5,-2.24 -5,-5 z"
       copytype="single_stretched"
       prop_scale="0.63"
       scale_y_rel="false"
       spacing="0"
       normal_offset="0"
       tang_offset="0"
       prop_units="false"
       vertical_pattern="false"
       fuse_tolerance="0" />
    <inkscape:path-effect
       effect="skeletal"
       id="path-effect3094"
       is_visible="true"
       pattern="m -2.0203051,10.555839 c 0,-2.76 2.24000002,-5 5,-5 2.76,0 5,2.24 5,5 0,2.76 -2.24,5 -5,5 -2.75999998,0 -5,-2.24 -5,-5 z"
       copytype="single_stretched"
       prop_scale="1"
       scale_y_rel="false"
       spacing="0"
       normal_offset="0"
       tang_offset="0"
       prop_units="false"
       vertical_pattern="false"
       fuse_tolerance="0" />
    <linearGradient
       id="linearGradient5029">
      <stop
         style="stop-color:#7d9c00;stop-opacity:1;"
         offset="0"
         id="stop5031" />
      <stop
         style="stop-color:#ccff00;stop-opacity:1;"
         offset="1"
         id="stop5033" />
    </linearGradient>
    <linearGradient
       id="linearGradient5021">
      <stop
         style="stop-color:#f9ffe0;stop-opacity:1;"
         offset="0"
         id="stop5023" />
      <stop
         style="stop-color:#eeffaa;stop-opacity:0;"
         offset="1"
         id="stop5025" />
    </linearGradient>
    <linearGradient
       id="linearGradient4433">
      <stop
         id="stop4435"
         offset="0"
         style="stop-color:#c663ff;stop-opacity:1;" />
      <stop
         id="stop4437"
         offset="1"
         style="stop-color:#3ad0ff;stop-opacity:1;" />
    </linearGradient>
    <linearGradient
       id="linearGradient4380">
      <stop
         style="stop-color:#e0f9ff;stop-opacity:1;"
         offset="0"
         id="stop4382" />
      <stop
         style="stop-color:#bdf2ff;stop-opacity:0.2392638;"
         offset="1"
         id="stop4384" />
    </linearGradient>
    <linearGradient
       id="linearGradient4299">
      <stop
         style="stop-color:#ffe0fd;stop-opacity:1;"
         offset="0"
         id="stop4301" />
      <stop
         style="stop-color:#ffd5fa;stop-opacity:0.31901839;"
         offset="1"
         id="stop4303" />
    </linearGradient>
    <linearGradient
       id="linearGradient4281">
      <stop
         style="stop-color:#27d4ff;stop-opacity:1;"
         offset="0"
         id="stop4283" />
      <stop
         style="stop-color:#004e61;stop-opacity:1;"
         offset="1"
         id="stop4285" />
    </linearGradient>
    <linearGradient
       id="linearGradient4273">
      <stop
         style="stop-color:#f282ff;stop-opacity:1;"
         offset="0"
         id="stop4275" />
      <stop
         style="stop-color:#400045;stop-opacity:1;"
         offset="1"
         id="stop4277" />
    </linearGradient>
    <linearGradient
       inkscape:collect="always"
       xlink:href="#linearGradient4299"
       id="linearGradient4305"
       x1="29.294424"
       y1="35.424591"
       x2="100.51018"
       y2="117.75202"
       gradientUnits="userSpaceOnUse"
       gradientTransform="translate(261.6295,18.18275)" />
    <linearGradient
       inkscape:collect="always"
       xlink:href="#linearGradient4273-7"
       id="linearGradient4279-2"
       x1="63.556183"
       y1="170.49821"
       x2="69.195587"
       y2="16.212494"
       gradientUnits="userSpaceOnUse"
       gradientTransform="translate(-1563.7749,-344.58422)" />
    <linearGradient
       id="linearGradient4273-7">
      <stop
         style="stop-color:#0eff87;stop-opacity:1;"
         offset="0"
         id="stop4275-4" />
      <stop
         style="stop-color:#004537;stop-opacity:1;"
         offset="1"
         id="stop4277-0" />
    </linearGradient>
    <linearGradient
       y2="16.212494"
       x2="69.195587"
       y1="170.49821"
       x1="63.556183"
       gradientTransform="translate(-1303.3621,-328.95264)"
       gradientUnits="userSpaceOnUse"
       id="linearGradient4322"
       xlink:href="#linearGradient4273-7"
       inkscape:collect="always" />
    <linearGradient
       inkscape:collect="always"
       xlink:href="#linearGradient4299-7"
       id="linearGradient4342-3"
       gradientUnits="userSpaceOnUse"
       gradientTransform="translate(-1562.7648,-342.56391)"
       x1="29.294424"
       y1="35.424591"
       x2="100.51018"
       y2="117.75202" />
    <linearGradient
       id="linearGradient4299-7">
      <stop
         style="stop-color:#d5ffe6;stop-opacity:1;"
         offset="0"
         id="stop4301-0" />
      <stop
         style="stop-color:#d5ffe6;stop-opacity:0;"
         offset="1"
         id="stop4303-8" />
    </linearGradient>
    <linearGradient
       y2="117.75202"
       x2="100.51018"
       y1="35.424591"
       x1="29.294424"
       gradientTransform="translate(-1325.8804,-366.28772)"
       gradientUnits="userSpaceOnUse"
       id="linearGradient4359"
       xlink:href="#linearGradient4299-7"
       inkscape:collect="always" />
    <linearGradient
       inkscape:collect="always"
       xlink:href="#linearGradient4380"
       id="linearGradient4386"
       x1="133.84521"
       y1="135.53931"
       x2="193.95554"
       y2="191.0977"
       gradientUnits="userSpaceOnUse"
       gradientTransform="translate(-270.7209,11.11168)" />
    <linearGradient
       inkscape:collect="always"
       xlink:href="#linearGradient4281-7"
       id="linearGradient4287-5"
       x1="155.90274"
       y1="241.77705"
       x2="172.92517"
       y2="87.491333"
       gradientUnits="userSpaceOnUse" />
    <linearGradient
       id="linearGradient4281-7">
      <stop
         style="stop-color:#27d4ff;stop-opacity:1;"
         offset="0"
         id="stop4283-1" />
      <stop
         style="stop-color:#004e61;stop-opacity:1;"
         offset="1"
         id="stop4285-7" />
    </linearGradient>
    <linearGradient
       gradientTransform="translate(-1834.0307,-335.28585)"
       y2="87.491333"
       x2="172.92517"
       y1="241.77705"
       x1="155.90274"
       gradientUnits="userSpaceOnUse"
       id="linearGradient4403"
       xlink:href="#linearGradient4281-7"
       inkscape:collect="always" />
    <inkscape:path-effect
       effect="skeletal"
       id="path-effect3102-2"
       is_visible="true"
       pattern="m -1518.85,-390.99807 c 0,-2.76 2.24,-5 5,-5 2.76,0 5,2.24 5,5 0,2.76 -2.24,5 -5,5 -2.76,0 -5,-2.24 -5,-5 z"
       copytype="single_stretched"
       prop_scale="1"
       scale_y_rel="false"
       spacing="0"
       normal_offset="0"
       tang_offset="0"
       prop_units="false"
       vertical_pattern="false"
       fuse_tolerance="0" />
    <inkscape:path-effect
       effect="skeletal"
       id="path-effect3094-5"
       is_visible="true"
       pattern="m -1389.7913,-290.51991 c 0,-2.76 2.24,-5 5,-5 2.76,0 5,2.24 5,5 0,2.76 -2.24,5 -5,5 -2.76,0 -5,-2.24 -5,-5 z"
       copytype="single_stretched"
       prop_scale="1"
       scale_y_rel="false"
       spacing="0"
       normal_offset="0"
       tang_offset="0"
       prop_units="false"
       vertical_pattern="false"
       fuse_tolerance="0" />
    <radialGradient
       inkscape:collect="always"
       xlink:href="#linearGradient3958"
       id="radialGradient3964"
       cx="-1452.4288"
       cy="-190.10991"
       fx="-1452.4288"
       fy="-190.10991"
       r="70.648781"
       gradientTransform="matrix(1.1424629,-0.03443283,0.03574553,1.1860173,213.71292,-14.647511)"
       gradientUnits="userSpaceOnUse" />
    <inkscape:path-effect
       effect="skeletal"
       id="path-effect3987-1"
       is_visible="true"
       pattern="m -1569.3569,-336.89671 0,10 10,-5 z"
       copytype="single_stretched"
       prop_scale="0.69"
       scale_y_rel="false"
       spacing="0"
       normal_offset="0"
       tang_offset="0"
       prop_units="false"
       vertical_pattern="false"
       fuse_tolerance="0" />
    <inkscape:path-effect
       effect="skeletal"
       id="path-effect4354-1"
       is_visible="true"
       pattern="m -1604.1029,-348.52981 c 0,-2.76 2.24,-5 5,-5 2.76,0 5,2.24 5,5 0,2.76 -2.24,5 -5,5 -2.76,0 -5,-2.24 -5,-5 z"
       copytype="single_stretched"
       prop_scale="0.44"
       scale_y_rel="false"
       spacing="0"
       normal_offset="0"
       tang_offset="0"
       prop_units="false"
       vertical_pattern="false"
       fuse_tolerance="0" />
  </defs>
  <sodipodi:namedview
     id="base"
     pagecolor="#e6e7e8"
     bordercolor="#666666"
     borderopacity="1.0"
     inkscape:pageopacity="0"
     inkscape:pageshadow="2"
     inkscape:zoom="13.5375"
     inkscape:cx="35.641374"
     inkscape:cy="18.413484"
     inkscape:document-units="px"
     inkscape:current-layer="layer1"
     showgrid="false"
     showguides="false"
     inkscape:window-width="1914"
     inkscape:window-height="1031"
     inkscape:window-x="0"
     inkscape:window-y="25"
     inkscape:window-maximized="1"
     fit-margin-top="0"
     fit-margin-left="0"
     fit-margin-right="0"
     fit-margin-bottom="0" />
  <metadata
     id="metadata3837">
    <rdf:RDF>
      <cc:Work
         rdf:about="">
        <dc:format>image/svg+xml</dc:format>
        <dc:type
           rdf:resource="http://purl.org/dc/dcmitype/StillImage" />
        <dc:title />
      </cc:Work>
    </rdf:RDF>
  </metadata>
  <g
     inkscape:label="Capa 1"
     inkscape:groupmode="layer"
     id="layer1"
     transform="translate(1563.7749,136.58422)">
    <g
       id="g4870"
       transform="translate(-1640,511.42857)">
      <path
         inkscape:transform-center-y="1.4467684"
         inkscape:transform-center-x="-15.417242"
         transform="matrix(-0.07382585,0.66627789,-0.7289839,-0.03741284,-1495.8598,1738.7622)"
         d="m -364.28571,263.79074 c 0,46.54971 -20.46699,84.28571 -45.71429,84.28571 -25.2473,0 -45.71429,-37.736 -45.71429,-84.28571 0,-46.54971 20.46699,-84.28571 45.71429,-84.28571 25.2473,0 45.71429,37.736 45.71429,84.28571 z"
         sodipodi:ry="84.285713"
         sodipodi:rx="45.714287"
         sodipodi:cy="263.79074"
         sodipodi:cx="-410"
         id="path3848-2-9-2-9-8-4-6-3-9"
         style="fill:#cccccc;fill-opacity:0.59215686;stroke:none"
         sodipodi:type="arc" />
      <path
         sodipodi:open="true"
         sodipodi:end="6.0900184"
         sodipodi:start="0"
         d="m -362.85715,420.93362 c 0,34.71505 -28.1421,62.85715 -62.85714,62.85715 -34.71505,0 -62.85715,-28.1421 -62.85715,-62.85715 0,-34.71504 28.1421,-62.85714 62.85715,-62.85714 30.06277,0 55.91699,21.28695 61.68807,50.79059"
         sodipodi:ry="62.857143"
         sodipodi:rx="62.857143"
         sodipodi:cy="420.93362"
         sodipodi:cx="-425.71429"
         id="path3846-7-4-3-2"
         style="fill:#4e4e4e;fill-opacity:0.59215686;stroke:none"
         sodipodi:type="arc"
         transform="matrix(0.66916078,0,0,0.66916078,-1257.8314,1170.2401)" />
      <path
         transform="matrix(0.66916078,0,0,0.66916078,-1270.2586,1166.4163)"
         sodipodi:open="true"
         sodipodi:end="6.0900184"
         sodipodi:start="0"
         d="m -364.28571,263.79074 c 0,46.54971 -20.46699,84.28571 -45.71429,84.28571 -25.2473,0 -45.71429,-37.736 -45.71429,-84.28571 0,-46.54971 20.46699,-84.28571 45.71429,-84.28571 21.86383,0 40.6669,28.54387 44.86406,68.10556"
         sodipodi:ry="84.285713"
         sodipodi:rx="45.714287"
         sodipodi:cy="263.79074"
         sodipodi:cx="-410"
         id="path3848-7-6-4-3"
         style="opacity:0.59080003;fill:#4d4d4d;fill-opacity:1;stroke:none"
         sodipodi:type="arc" />
      <path
         transform="matrix(0.54569345,-0.38729164,0.38729164,0.54569345,-1502.2235,1067.1267)"
         sodipodi:open="true"
         sodipodi:end="6.0900184"
         sodipodi:start="0"
         d="m -364.28571,263.79074 c 0,46.54971 -20.46699,84.28571 -45.71429,84.28571 -25.2473,0 -45.71429,-37.736 -45.71429,-84.28571 0,-46.54971 20.46699,-84.28571 45.71429,-84.28571 21.86383,0 40.6669,28.54387 44.86406,68.10556"
         sodipodi:ry="84.285713"
         sodipodi:rx="45.714287"
         sodipodi:cy="263.79074"
         sodipodi:cx="-410"
         id="path3848-2-6-2-8-5"
         style="opacity:0.59080003;fill:#4d4d4d;stroke:#917c6f"
         sodipodi:type="arc" />
      <path
         inkscape:transform-center-y="8.6079444"
         inkscape:transform-center-x="11.306638"
         transform="matrix(-0.40836126,-0.53079875,0.51145405,-0.43171811,-1927.2952,1429.3614)"
         sodipodi:open="true"
         sodipodi:end="6.0900184"
         sodipodi:start="0"
         d="m -364.28571,263.79074 c 0,46.54971 -20.46699,84.28571 -45.71429,84.28571 -25.2473,0 -45.71429,-37.736 -45.71429,-84.28571 0,-46.54971 20.46699,-84.28571 45.71429,-84.28571 21.86383,0 40.6669,28.54387 44.86406,68.10556"
         sodipodi:ry="84.285713"
         sodipodi:rx="45.714287"
         sodipodi:cy="263.79074"
         sodipodi:cx="-410"
         id="path3848-2-9-2-2-5-3-2"
         style="opacity:0.59080003;fill:#4d4d4d;fill-opacity:1;stroke:none"
         sodipodi:type="arc" />
      <path
         inkscape:transform-center-y="14.211091"
         inkscape:transform-center-x="-0.25261687"
         transform="matrix(-0.66952916,0.01539325,-0.04566812,-0.66774262,-1800.5271,1744.401)"
         sodipodi:open="true"
         sodipodi:end="6.0900184"
         sodipodi:start="0"
         d="m -364.28571,263.79074 c 0,46.54971 -20.46699,84.28571 -45.71429,84.28571 -25.2473,0 -45.71429,-37.736 -45.71429,-84.28571 0,-46.54971 20.46699,-84.28571 45.71429,-84.28571 21.86383,0 40.6669,28.54387 44.86406,68.10556"
         sodipodi:ry="84.285713"
         sodipodi:rx="45.714287"
         sodipodi:cy="263.79074"
         sodipodi:cx="-410"
         id="path3848-2-9-2-9-38-6-9-1"
         style="opacity:0.59080003;fill:#4d4d4d;fill-opacity:1;stroke:none"
         sodipodi:type="arc" />
      <path
         inkscape:transform-center-y="10.433442"
         inkscape:transform-center-x="9.6498688"
         transform="matrix(-0.49396663,-0.45222032,0.42912941,-0.513628,-1775.3756,1315.4436)"
         sodipodi:open="true"
         sodipodi:end="6.0900184"
         sodipodi:start="0"
         d="m -364.28571,263.79074 c 0,46.54971 -20.46699,84.28571 -45.71429,84.28571 -25.2473,0 -45.71429,-37.736 -45.71429,-84.28571 0,-46.54971 20.46699,-84.28571 45.71429,-84.28571 21.86383,0 40.6669,28.54387 44.86406,68.10556"
         sodipodi:ry="84.285713"
         sodipodi:rx="45.714287"
         sodipodi:cy="263.79074"
         sodipodi:cx="-410"
         id="path3848-2-9-2-9-3-5-2-6-5"
         style="opacity:0.59080003;fill:#4d4d4d;fill-opacity:1;stroke:none"
         sodipodi:type="arc" />
      <path
         inkscape:transform-center-y="8.7985371"
         inkscape:transform-center-x="-11.16174"
         transform="matrix(-0.41187846,0.52807421,-0.54585438,-0.38730967,-1479.8009,1841.4917)"
         sodipodi:open="true"
         sodipodi:end="6.0900184"
         sodipodi:start="0"
         d="m -364.28571,263.79074 c 0,46.54971 -20.46699,84.28571 -45.71429,84.28571 -25.2473,0 -45.71429,-37.736 -45.71429,-84.28571 0,-46.54971 20.46699,-84.28571 45.71429,-84.28571 21.86383,0 40.6669,28.54387 44.86406,68.10556"
         sodipodi:ry="84.285713"
         sodipodi:rx="45.714287"
         sodipodi:cy="263.79074"
         sodipodi:cx="-410"
         id="path3848-2-9-2-9-8-7-7-9-5"
         style="opacity:0.59080003;fill:#4d4d4d;fill-opacity:1;stroke:none"
         sodipodi:type="arc" />
      <path
         inkscape:transform-center-y="1.4468098"
         inkscape:transform-center-x="-14.132917"
         transform="matrix(-0.0676758,0.66627789,-0.66825598,-0.03741284,-1279.5174,1732.6787)"
         sodipodi:open="true"
         sodipodi:end="6.0900184"
         sodipodi:start="0"
         d="m -364.28571,263.79074 c 0,46.54971 -20.46699,84.28571 -45.71429,84.28571 -25.2473,0 -45.71429,-37.736 -45.71429,-84.28571 0,-46.54971 20.46699,-84.28571 45.71429,-84.28571 21.86383,0 40.6669,28.54387 44.86406,68.10556"
         sodipodi:ry="84.285713"
         sodipodi:rx="45.714287"
         sodipodi:cy="263.79074"
         sodipodi:cx="-410"
         id="path3848-2-9-2-9-8-4-6-0-4-2"
         style="opacity:0.59080003;fill:#4d4d4d;fill-opacity:1;stroke:none"
         sodipodi:type="arc" />
    </g>
    <g
       id="g4858"
       transform="translate(-1142.8571,897.14286)">
      <g
         id="g4738">
        <path
           sodipodi:type="arc"
           style="opacity:0.59080003;fill:#aad400;fill-opacity:1;stroke:none"
           id="path3848-2-9-2-9-8-4-6-3-9-5"
           sodipodi:cx="-410"
           sodipodi:cy="263.79074"
           sodipodi:rx="45.714287"
           sodipodi:ry="84.285713"
           d="m -364.28571,263.79074 c 0,46.54971 -20.46699,84.28571 -45.71429,84.28571 -25.2473,0 -45.71429,-37.736 -45.71429,-84.28571 0,-46.54971 20.46699,-84.28571 45.71429,-84.28571 25.2473,0 45.71429,37.736 45.71429,84.28571 z"
           transform="matrix(-0.07382585,0.66627789,-0.7289839,-0.03741284,-1502.9512,1365.0058)"
           inkscape:transform-center-x="-15.417242"
           inkscape:transform-center-y="1.4467684" />
        <path
           transform="matrix(0.66916078,0,0,0.66916078,-1264.9228,796.48368)"
           sodipodi:type="arc"
           style="fill:#4d4d4d;fill-opacity:0.59215686;stroke:none"
           id="path3846-7-4-3-2-5"
           sodipodi:cx="-425.71429"
           sodipodi:cy="420.93362"
           sodipodi:rx="62.857143"
           sodipodi:ry="62.857143"
           d="m -362.85715,420.93362 c 0,34.71505 -28.1421,62.85715 -62.85714,62.85715 -34.71505,0 -62.85715,-28.1421 -62.85715,-62.85715 0,-34.71504 28.1421,-62.85714 62.85715,-62.85714 30.06277,0 55.91699,21.28695 61.68807,50.79059"
           sodipodi:start="0"
           sodipodi:end="6.0900184"
           sodipodi:open="true" />
        <path
           sodipodi:type="arc"
           style="opacity:0.59080003;fill:#4d4d4d;fill-opacity:1;stroke:none"
           id="path3848-7-6-4-3-5"
           sodipodi:cx="-410"
           sodipodi:cy="263.79074"
           sodipodi:rx="45.714287"
           sodipodi:ry="84.285713"
           d="m -364.28571,263.79074 c 0,46.54971 -20.46699,84.28571 -45.71429,84.28571 -25.2473,0 -45.71429,-37.736 -45.71429,-84.28571 0,-46.54971 20.46699,-84.28571 45.71429,-84.28571 21.86383,0 40.6669,28.54387 44.86406,68.10556"
           sodipodi:start="0"
           sodipodi:end="6.0900184"
           sodipodi:open="true"
           transform="matrix(0.66916078,0,0,0.66916078,-1277.35,792.65988)" />
        <path
           sodipodi:type="arc"
           style="opacity:0.59080003;fill:#4d4d4d;stroke:#917c6f"
           id="path3848-2-6-2-8-5-3"
           sodipodi:cx="-410"
           sodipodi:cy="263.79074"
           sodipodi:rx="45.714287"
           sodipodi:ry="84.285713"
           d="m -364.28571,263.79074 c 0,46.54971 -20.46699,84.28571 -45.71429,84.28571 -25.2473,0 -45.71429,-37.736 -45.71429,-84.28571 0,-46.54971 20.46699,-84.28571 45.71429,-84.28571 21.86383,0 40.6669,28.54387 44.86406,68.10556"
           sodipodi:start="0"
           sodipodi:end="6.0900184"
           sodipodi:open="true"
           transform="matrix(0.54569345,-0.38729164,0.38729164,0.54569345,-1509.3149,693.37028)" />
        <path
           sodipodi:type="arc"
           style="opacity:0.59080003;fill:#4d4d4d;fill-opacity:1;stroke:none"
           id="path3848-2-9-2-2-5-3-2-2"
           sodipodi:cx="-410"
           sodipodi:cy="263.79074"
           sodipodi:rx="45.714287"
           sodipodi:ry="84.285713"
           d="m -364.28571,263.79074 c 0,46.54971 -20.46699,84.28571 -45.71429,84.28571 -25.2473,0 -45.71429,-37.736 -45.71429,-84.28571 0,-46.54971 20.46699,-84.28571 45.71429,-84.28571 21.86383,0 40.6669,28.54387 44.86406,68.10556"
           sodipodi:start="0"
           sodipodi:end="6.0900184"
           sodipodi:open="true"
           transform="matrix(-0.40836126,-0.53079875,0.51145405,-0.43171811,-1934.3866,1055.605)"
           inkscape:transform-center-x="11.306638"
           inkscape:transform-center-y="8.6079444" />
        <path
           sodipodi:type="arc"
           style="opacity:0.59080003;fill:#4d4d4d;fill-opacity:1;stroke:none"
           id="path3848-2-9-2-9-38-6-9-1-8"
           sodipodi:cx="-410"
           sodipodi:cy="263.79074"
           sodipodi:rx="45.714287"
           sodipodi:ry="84.285713"
           d="m -364.28571,263.79074 c 0,46.54971 -20.46699,84.28571 -45.71429,84.28571 -25.2473,0 -45.71429,-37.736 -45.71429,-84.28571 0,-46.54971 20.46699,-84.28571 45.71429,-84.28571 21.86383,0 40.6669,28.54387 44.86406,68.10556"
           sodipodi:start="0"
           sodipodi:end="6.0900184"
           sodipodi:open="true"
           transform="matrix(-0.66952916,0.01539325,-0.04566812,-0.66774262,-1807.6185,1370.6446)"
           inkscape:transform-center-x="-0.25261687"
           inkscape:transform-center-y="14.211091" />
        <path
           sodipodi:type="arc"
           style="opacity:0.59080003;fill:#4d4d4d;fill-opacity:1;stroke:none"
           id="path3848-2-9-2-9-3-5-2-6-5-6"
           sodipodi:cx="-410"
           sodipodi:cy="263.79074"
           sodipodi:rx="45.714287"
           sodipodi:ry="84.285713"
           d="m -364.28571,263.79074 c 0,46.54971 -20.46699,84.28571 -45.71429,84.28571 -25.2473,0 -45.71429,-37.736 -45.71429,-84.28571 0,-46.54971 20.46699,-84.28571 45.71429,-84.28571 21.86383,0 40.6669,28.54387 44.86406,68.10556"
           sodipodi:start="0"
           sodipodi:end="6.0900184"
           sodipodi:open="true"
           transform="matrix(-0.49396663,-0.45222032,0.42912941,-0.513628,-1782.467,941.68718)"
           inkscape:transform-center-x="9.6498688"
           inkscape:transform-center-y="10.433442" />
        <path
           sodipodi:type="arc"
           style="opacity:0.59080003;fill:#4d4d4d;fill-opacity:1;stroke:none"
           id="path3848-2-9-2-9-8-7-7-9-5-7"
           sodipodi:cx="-410"
           sodipodi:cy="263.79074"
           sodipodi:rx="45.714287"
           sodipodi:ry="84.285713"
           d="m -364.28571,263.79074 c 0,46.54971 -20.46699,84.28571 -45.71429,84.28571 -25.2473,0 -45.71429,-37.736 -45.71429,-84.28571 0,-46.54971 20.46699,-84.28571 45.71429,-84.28571 21.86383,0 40.6669,28.54387 44.86406,68.10556"
           sodipodi:start="0"
           sodipodi:end="6.0900184"
           sodipodi:open="true"
           transform="matrix(-0.41187846,0.52807421,-0.54585438,-0.38730967,-1486.8923,1467.7353)"
           inkscape:transform-center-x="-11.16174"
           inkscape:transform-center-y="8.7985371" />
        <path
           sodipodi:type="arc"
           style="opacity:0.59080003;fill:#4d4d4d;fill-opacity:1;stroke:none"
           id="path3848-2-9-2-9-8-4-6-0-4-2-2"
           sodipodi:cx="-410"
           sodipodi:cy="263.79074"
           sodipodi:rx="45.714287"
           sodipodi:ry="84.285713"
           d="m -364.28571,263.79074 c 0,46.54971 -20.46699,84.28571 -45.71429,84.28571 -25.2473,0 -45.71429,-37.736 -45.71429,-84.28571 0,-46.54971 20.46699,-84.28571 45.71429,-84.28571 21.86383,0 40.6669,28.54387 44.86406,68.10556"
           sodipodi:start="0"
           sodipodi:end="6.0900184"
           sodipodi:open="true"
           transform="matrix(-0.0676758,0.66627789,-0.66825598,-0.03741284,-1286.6088,1358.9223)"
           inkscape:transform-center-x="-14.132917"
           inkscape:transform-center-y="1.4468098" />
      </g>
    </g>
    <path
       sodipodi:type="arc"
       style="opacity:0.59080003;fill:#aad400;fill-opacity:1;stroke:none"
       id="path3848-2-9-2-9-8-4-6-3-9-5-3"
       sodipodi:cx="-410"
       sodipodi:cy="263.79074"
       sodipodi:rx="45.714287"
       sodipodi:ry="84.285713"
       d="m -364.28571,263.79074 c 0,46.54971 -20.46699,84.28571 -45.71429,84.28571 -25.2473,0 -45.71429,-37.736 -45.71429,-84.28571 0,-46.54971 20.46699,-84.28571 45.71429,-84.28571 25.2473,0 45.71429,37.736 45.71429,84.28571 z"
       transform="matrix(-0.07382585,0.66627789,-0.7289839,-0.03741284,-2246.0407,2255.8847)"
       inkscape:transform-center-x="-15.417242"
       inkscape:transform-center-y="1.4467684" />
    <path
       transform="matrix(0.66916078,0,0,0.66916078,-2008.0123,1687.3626)"
       sodipodi:type="arc"
       style="fill:#4d4d4d;fill-opacity:0.59215686;stroke:none"
       id="path3846-7-4-3-2-5-0"
       sodipodi:cx="-425.71429"
       sodipodi:cy="420.93362"
       sodipodi:rx="62.857143"
       sodipodi:ry="62.857143"
       d="m -362.85715,420.93362 c 0,34.71505 -28.1421,62.85715 -62.85714,62.85715 -34.71505,0 -62.85715,-28.1421 -62.85715,-62.85715 0,-34.71504 28.1421,-62.85714 62.85715,-62.85714 30.06277,0 55.91699,21.28695 61.68807,50.79059"
       sodipodi:start="0"
       sodipodi:end="6.0900184"
       sodipodi:open="true" />
    <path
       sodipodi:type="arc"
       style="opacity:0.59080003;fill:#4d4d4d;fill-opacity:1;stroke:none"
       id="path3848-7-6-4-3-5-73"
       sodipodi:cx="-410"
       sodipodi:cy="263.79074"
       sodipodi:rx="45.714287"
       sodipodi:ry="84.285713"
       d="m -364.28571,263.79074 c 0,46.54971 -20.46699,84.28571 -45.71429,84.28571 -25.2473,0 -45.71429,-37.736 -45.71429,-84.28571 0,-46.54971 20.46699,-84.28571 45.71429,-84.28571 21.86383,0 40.6669,28.54387 44.86406,68.10556"
       sodipodi:start="0"
       sodipodi:end="6.0900184"
       sodipodi:open="true"
       transform="matrix(0.66916078,0,0,0.66916078,-2020.4395,1683.5388)" />
    <path
       sodipodi:type="arc"
       style="opacity:0.59080003;fill:#4d4d4d;stroke:#917c6f"
       id="path3848-2-6-2-8-5-3-5"
       sodipodi:cx="-410"
       sodipodi:cy="263.79074"
       sodipodi:rx="45.714287"
       sodipodi:ry="84.285713"
       d="m -364.28571,263.79074 c 0,46.54971 -20.46699,84.28571 -45.71429,84.28571 -25.2473,0 -45.71429,-37.736 -45.71429,-84.28571 0,-46.54971 20.46699,-84.28571 45.71429,-84.28571 21.86383,0 40.6669,28.54387 44.86406,68.10556"
       sodipodi:start="0"
       sodipodi:end="6.0900184"
       sodipodi:open="true"
       transform="matrix(0.54569345,-0.38729164,0.38729164,0.54569345,-2252.4044,1584.2492)" />
    <path
       sodipodi:type="arc"
       style="opacity:0.59080003;fill:#4d4d4d;fill-opacity:1;stroke:none"
       id="path3848-2-9-2-2-5-3-2-2-49"
       sodipodi:cx="-410"
       sodipodi:cy="263.79074"
       sodipodi:rx="45.714287"
       sodipodi:ry="84.285713"
       d="m -364.28571,263.79074 c 0,46.54971 -20.46699,84.28571 -45.71429,84.28571 -25.2473,0 -45.71429,-37.736 -45.71429,-84.28571 0,-46.54971 20.46699,-84.28571 45.71429,-84.28571 21.86383,0 40.6669,28.54387 44.86406,68.10556"
       sodipodi:start="0"
       sodipodi:end="6.0900184"
       sodipodi:open="true"
       transform="matrix(-0.40836126,-0.53079875,0.51145405,-0.43171811,-2677.4761,1946.4839)"
       inkscape:transform-center-x="11.306638"
       inkscape:transform-center-y="8.6079444" />
    <path
       sodipodi:type="arc"
       style="opacity:0.59080003;fill:#4d4d4d;fill-opacity:1;stroke:none"
       id="path3848-2-9-2-9-38-6-9-1-8-41"
       sodipodi:cx="-410"
       sodipodi:cy="263.79074"
       sodipodi:rx="45.714287"
       sodipodi:ry="84.285713"
       d="m -364.28571,263.79074 c 0,46.54971 -20.46699,84.28571 -45.71429,84.28571 -25.2473,0 -45.71429,-37.736 -45.71429,-84.28571 0,-46.54971 20.46699,-84.28571 45.71429,-84.28571 21.86383,0 40.6669,28.54387 44.86406,68.10556"
       sodipodi:start="0"
       sodipodi:end="6.0900184"
       sodipodi:open="true"
       transform="matrix(-0.66952916,0.01539325,-0.04566812,-0.66774262,-2550.708,2261.5235)"
       inkscape:transform-center-x="-0.25261687"
       inkscape:transform-center-y="14.211091" />
    <path
       sodipodi:type="arc"
       style="opacity:0.59080003;fill:#4d4d4d;fill-opacity:1;stroke:none"
       id="path3848-2-9-2-9-3-5-2-6-5-6-8"
       sodipodi:cx="-410"
       sodipodi:cy="263.79074"
       sodipodi:rx="45.714287"
       sodipodi:ry="84.285713"
       d="m -364.28571,263.79074 c 0,46.54971 -20.46699,84.28571 -45.71429,84.28571 -25.2473,0 -45.71429,-37.736 -45.71429,-84.28571 0,-46.54971 20.46699,-84.28571 45.71429,-84.28571 21.86383,0 40.6669,28.54387 44.86406,68.10556"
       sodipodi:start="0"
       sodipodi:end="6.0900184"
       sodipodi:open="true"
       transform="matrix(-0.49396663,-0.45222032,0.42912941,-0.513628,-2525.5565,1832.5661)"
       inkscape:transform-center-x="9.6498688"
       inkscape:transform-center-y="10.433442" />
    <path
       sodipodi:type="arc"
       style="opacity:0.59080003;fill:#4d4d4d;fill-opacity:1;stroke:none"
       id="path3848-2-9-2-9-8-7-7-9-5-7-6"
       sodipodi:cx="-410"
       sodipodi:cy="263.79074"
       sodipodi:rx="45.714287"
       sodipodi:ry="84.285713"
       d="m -364.28571,263.79074 c 0,46.54971 -20.46699,84.28571 -45.71429,84.28571 -25.2473,0 -45.71429,-37.736 -45.71429,-84.28571 0,-46.54971 20.46699,-84.28571 45.71429,-84.28571 21.86383,0 40.6669,28.54387 44.86406,68.10556"
       sodipodi:start="0"
       sodipodi:end="6.0900184"
       sodipodi:open="true"
       transform="matrix(-0.41187846,0.52807421,-0.54585438,-0.38730967,-2229.9818,2358.6142)"
       inkscape:transform-center-x="-11.16174"
       inkscape:transform-center-y="8.7985371" />
    <path
       sodipodi:type="arc"
       style="opacity:0.59080003;fill:#4d4d4d;fill-opacity:1;stroke:none"
       id="path3848-2-9-2-9-8-4-6-0-4-2-2-1"
       sodipodi:cx="-410"
       sodipodi:cy="263.79074"
       sodipodi:rx="45.714287"
       sodipodi:ry="84.285713"
       d="m -364.28571,263.79074 c 0,46.54971 -20.46699,84.28571 -45.71429,84.28571 -25.2473,0 -45.71429,-37.736 -45.71429,-84.28571 0,-46.54971 20.46699,-84.28571 45.71429,-84.28571 21.86383,0 40.6669,28.54387 44.86406,68.10556"
       sodipodi:start="0"
       sodipodi:end="6.0900184"
       sodipodi:open="true"
       transform="matrix(-0.0676758,0.66627789,-0.66825598,-0.03741284,-2029.6983,2249.8012)"
       inkscape:transform-center-x="-14.132917"
       inkscape:transform-center-y="1.4468098" />
    <path
       style="opacity:0.59080003;fill:#4d4d4d;fill-opacity:1;stroke:none"
       d="m -2407.1562,1942.5312 0,61.0313 c 0.1667,0.01 0.3327,0.022 0.5,0.031 l 10.875,0.031 c 26.7213,-1.3164 47.0515,-12.7764 48.5312,-27.3438 1.7086,-16.8217 -22.1116,-31.8521 -53.2188,-33.5937 -2.2539,-0.1262 -4.4886,-0.1731 -6.6874,-0.1563 z"
       id="path3848-2-9-2-9-8-4-6-0-4-2-2-1-8"
       inkscape:connector-curvature="0" />
    <path
       sodipodi:type="arc"
       style="opacity:0.59080003;fill:#aad400;fill-opacity:1;stroke:none"
       id="path3848-2-9-2-9-8-4-6-3-9-5-3-4"
       sodipodi:cx="-410"
       sodipodi:cy="263.79074"
       sodipodi:rx="45.714287"
       sodipodi:ry="84.285713"
       d="m -364.28571,263.79074 c 0,46.54971 -20.46699,84.28571 -45.71429,84.28571 -25.2473,0 -45.71429,-37.736 -45.71429,-84.28571 0,-46.54971 20.46699,-84.28571 45.71429,-84.28571 25.2473,0 45.71429,37.736 45.71429,84.28571 z"
       transform="matrix(-0.07382585,0.66627789,-0.7289839,-0.03741284,-1823.1835,2254.4561)"
       inkscape:transform-center-x="-15.417242"
       inkscape:transform-center-y="1.4467684" />
    <path
       transform="matrix(0.66916078,0,0,0.66916078,-1585.1551,1685.934)"
       sodipodi:type="arc"
       style="fill:#4d4d4d;fill-opacity:0.59215686;stroke:none"
       id="path3846-7-4-3-2-5-0-2"
       sodipodi:cx="-425.71429"
       sodipodi:cy="420.93362"
       sodipodi:rx="62.857143"
       sodipodi:ry="62.857143"
       d="m -362.85715,420.93362 c 0,34.71505 -28.1421,62.85715 -62.85714,62.85715 -34.71505,0 -62.85715,-28.1421 -62.85715,-62.85715 0,-34.71504 28.1421,-62.85714 62.85715,-62.85714 30.06277,0 55.91699,21.28695 61.68807,50.79059"
       sodipodi:start="0"
       sodipodi:end="6.0900184"
       sodipodi:open="true" />
    <path
       sodipodi:type="arc"
       style="opacity:0.59080003;fill:#4d4d4d;fill-opacity:1;stroke:none"
       id="path3848-7-6-4-3-5-73-5"
       sodipodi:cx="-410"
       sodipodi:cy="263.79074"
       sodipodi:rx="45.714287"
       sodipodi:ry="84.285713"
       d="m -364.28571,263.79074 c 0,46.54971 -20.46699,84.28571 -45.71429,84.28571 -25.2473,0 -45.71429,-37.736 -45.71429,-84.28571 0,-46.54971 20.46699,-84.28571 45.71429,-84.28571 21.86383,0 40.6669,28.54387 44.86406,68.10556"
       sodipodi:start="0"
       sodipodi:end="6.0900184"
       sodipodi:open="true"
       transform="matrix(0.66916078,0,0,0.66916078,-1597.5823,1682.1102)" />
    <path
       sodipodi:type="arc"
       style="opacity:0.59080003;fill:#4d4d4d;stroke:#917c6f"
       id="path3848-2-6-2-8-5-3-5-3"
       sodipodi:cx="-410"
       sodipodi:cy="263.79074"
       sodipodi:rx="45.714287"
       sodipodi:ry="84.285713"
       d="m -364.28571,263.79074 c 0,46.54971 -20.46699,84.28571 -45.71429,84.28571 -25.2473,0 -45.71429,-37.736 -45.71429,-84.28571 0,-46.54971 20.46699,-84.28571 45.71429,-84.28571 21.86383,0 40.6669,28.54387 44.86406,68.10556"
       sodipodi:start="0"
       sodipodi:end="6.0900184"
       sodipodi:open="true"
       transform="matrix(0.54569345,-0.38729164,0.38729164,0.54569345,-1829.5472,1582.8206)" />
    <path
       sodipodi:type="arc"
       style="opacity:0.59080003;fill:#4d4d4d;fill-opacity:1;stroke:none"
       id="path3848-2-9-2-2-5-3-2-2-49-0"
       sodipodi:cx="-410"
       sodipodi:cy="263.79074"
       sodipodi:rx="45.714287"
       sodipodi:ry="84.285713"
       d="m -364.28571,263.79074 c 0,46.54971 -20.46699,84.28571 -45.71429,84.28571 -25.2473,0 -45.71429,-37.736 -45.71429,-84.28571 0,-46.54971 20.46699,-84.28571 45.71429,-84.28571 21.86383,0 40.6669,28.54387 44.86406,68.10556"
       sodipodi:start="0"
       sodipodi:end="6.0900184"
       sodipodi:open="true"
       transform="matrix(-0.40836126,-0.53079875,0.51145405,-0.43171811,-2254.6189,1945.0553)"
       inkscape:transform-center-x="11.306638"
       inkscape:transform-center-y="8.6079444" />
    <path
       sodipodi:type="arc"
       style="opacity:0.59080003;fill:#4d4d4d;fill-opacity:1;stroke:none"
       id="path3848-2-9-2-9-38-6-9-1-8-41-2"
       sodipodi:cx="-410"
       sodipodi:cy="263.79074"
       sodipodi:rx="45.714287"
       sodipodi:ry="84.285713"
       d="m -364.28571,263.79074 c 0,46.54971 -20.46699,84.28571 -45.71429,84.28571 -25.2473,0 -45.71429,-37.736 -45.71429,-84.28571 0,-46.54971 20.46699,-84.28571 45.71429,-84.28571 21.86383,0 40.6669,28.54387 44.86406,68.10556"
       sodipodi:start="0"
       sodipodi:end="6.0900184"
       sodipodi:open="true"
       transform="matrix(-0.66952916,0.01539325,-0.04566812,-0.66774262,-2127.8508,2260.0949)"
       inkscape:transform-center-x="-0.25261687"
       inkscape:transform-center-y="14.211091" />
    <path
       sodipodi:type="arc"
       style="opacity:0.59080003;fill:#4d4d4d;fill-opacity:1;stroke:none"
       id="path3848-2-9-2-9-3-5-2-6-5-6-8-8"
       sodipodi:cx="-410"
       sodipodi:cy="263.79074"
       sodipodi:rx="45.714287"
       sodipodi:ry="84.285713"
       d="m -364.28571,263.79074 c 0,46.54971 -20.46699,84.28571 -45.71429,84.28571 -25.2473,0 -45.71429,-37.736 -45.71429,-84.28571 0,-46.54971 20.46699,-84.28571 45.71429,-84.28571 21.86383,0 40.6669,28.54387 44.86406,68.10556"
       sodipodi:start="0"
       sodipodi:end="6.0900184"
       sodipodi:open="true"
       transform="matrix(-0.49396663,-0.45222032,0.42912941,-0.513628,-2102.6993,1831.1375)"
       inkscape:transform-center-x="9.6498688"
       inkscape:transform-center-y="10.433442" />
    <path
       sodipodi:type="arc"
       style="opacity:0.59080003;fill:#4d4d4d;fill-opacity:1;stroke:none"
       id="path3848-2-9-2-9-8-7-7-9-5-7-6-6"
       sodipodi:cx="-410"
       sodipodi:cy="263.79074"
       sodipodi:rx="45.714287"
       sodipodi:ry="84.285713"
       d="m -364.28571,263.79074 c 0,46.54971 -20.46699,84.28571 -45.71429,84.28571 -25.2473,0 -45.71429,-37.736 -45.71429,-84.28571 0,-46.54971 20.46699,-84.28571 45.71429,-84.28571 21.86383,0 40.6669,28.54387 44.86406,68.10556"
       sodipodi:start="0"
       sodipodi:end="6.0900184"
       sodipodi:open="true"
       transform="matrix(-0.41187846,0.52807421,-0.54585438,-0.38730967,-1807.1246,2357.1856)"
       inkscape:transform-center-x="-11.16174"
       inkscape:transform-center-y="8.7985371" />
    <path
       sodipodi:type="arc"
       style="opacity:0.59080003;fill:#4d4d4d;fill-opacity:1;stroke:none"
       id="path3848-2-9-2-9-8-4-6-0-4-2-2-1-6"
       sodipodi:cx="-410"
       sodipodi:cy="263.79074"
       sodipodi:rx="45.714287"
       sodipodi:ry="84.285713"
       d="m -364.28571,263.79074 c 0,46.54971 -20.46699,84.28571 -45.71429,84.28571 -25.2473,0 -45.71429,-37.736 -45.71429,-84.28571 0,-46.54971 20.46699,-84.28571 45.71429,-84.28571 21.86383,0 40.6669,28.54387 44.86406,68.10556"
       sodipodi:start="0"
       sodipodi:end="6.0900184"
       sodipodi:open="true"
       transform="matrix(-0.0676758,0.66627789,-0.66825598,-0.03741284,-1606.8411,2248.3726)"
       inkscape:transform-center-x="-14.132917"
       inkscape:transform-center-y="1.4468098" />
    <path
       style="opacity:0.59080003;fill:#4d4d4d;fill-opacity:1;stroke:none"
       d="m -1952.1562,1946.0938 0,52.75 c 15.9136,-4.6472 26.6864,-13.5297 27.75,-24 1.1977,-11.7926 -10.1404,-22.6793 -27.75,-28.75 z"
       id="path3848-2-9-2-9-8-4-6-0-4-2-2-1-8-2"
       inkscape:connector-curvature="0" />
    <g
       style="font-size:160.8941803px;font-style:normal;font-variant:normal;font-weight:normal;font-stretch:normal;line-height:125%;letter-spacing:0px;word-spacing:0px;fill:#000000;fill-opacity:1;stroke:none;font-family:Nanosecond Thick BRK;-inkscape-font-specification:Nanosecond Thick BRK"
       id="text3978-1-6-2"
       transform="matrix(1.8494298,0,0,1.8494298,-207.45938,-1600.0336)">
      <path
         inkscape:connector-curvature="0"
         d="m -2901.2441,1188.305 c 0,-3.3251 -0.8045,-6.2212 -2.4134,-8.6883 -2.5743,-3.8614 -6.6503,-5.7921 -12.228,-5.7922 -5.4704,10e-5 -9.4391,1.8772 -11.9061,5.6313 -1.7162,2.4671 -2.5744,5.4169 -2.5743,8.8492 l 0,47.4638 c -1e-4,3.5397 0.8044,6.4894 2.4134,8.8491 2.3597,3.8615 6.3821,5.7923 12.067,5.7922 5.5777,10e-5 9.6,-1.877 12.0671,-5.6313 1.7162,-2.467 2.5743,-5.4703 2.5743,-9.01 0,-2.467 0.8581,-4.6123 2.5743,-6.4358 1.7162,-1.8234 3.9151,-2.7352 6.5967,-2.7352 2.467,0 4.6122,0.9118 6.4358,2.7352 1.8234,1.8235 2.7351,4.0224 2.7352,6.5967 -1e-4,8.0447 -2.4135,15.124 -7.2403,21.238 -6.114,7.7229 -14.695,11.5844 -25.7431,11.5844 -10.9408,0 -19.4682,-3.8078 -25.5821,-11.4235 -4.9341,-6.2212 -7.4012,-13.3542 -7.4012,-21.3989 l 0,-47.6247 c 0,-7.9374 2.4671,-15.0167 7.4012,-21.238 6.1139,-7.7229 14.6413,-11.5843 25.5821,-11.5844 11.0481,10e-5 19.5755,3.8079 25.5822,11.4235 4.934,6.2213 7.4011,13.3543 7.4012,21.3989 -1e-4,2.5744 -0.8582,4.7733 -2.5744,6.5966 -1.7162,1.8236 -3.9151,2.7353 -6.5966,2.7352 -2.4671,10e-5 -4.6124,-0.9116 -6.4358,-2.7352 -1.8235,-1.8233 -2.7352,-4.0222 -2.7352,-6.5966"
         id="path4918-4"
         style="fill:#000000" />
      <path
         inkscape:connector-curvature="0"
         d="m -2808.74,1235.9297 c -1e-4,8.0447 -2.4135,15.124 -7.2402,21.238 -6.1141,7.7229 -14.6951,11.5844 -25.7431,11.5844 -10.9408,0 -19.4682,-3.8078 -25.5822,-11.4235 -4.9341,-6.2212 -7.4011,-13.3542 -7.4011,-21.3989 0,-8.0447 2.467,-15.1777 7.4011,-21.399 6.114,-7.7228 14.6414,-11.5843 25.5822,-11.5843 11.048,0 19.5754,3.8078 25.5822,11.4234 4.934,6.2213 7.401,13.4079 7.4011,21.5599 m -18.3419,0 c -10e-5,-3.5397 -0.8045,-6.543 -2.4134,-9.0101 -2.4671,-3.7542 -6.5431,-5.6313 -12.228,-5.6313 -5.4704,0 -9.4391,1.8771 -11.9062,5.6313 -1.7162,2.4671 -2.5743,5.4704 -2.5743,9.0101 0,3.5397 0.8045,6.4894 2.4134,8.8491 2.4671,3.7543 6.4894,5.6314 12.0671,5.6313 5.5776,10e-5 9.6,-1.877 12.0671,-5.6313 1.7161,-2.467 2.5742,-5.4167 2.5743,-8.8491"
         id="path4920-2"
         style="fill:#000000" />
      <path
         inkscape:connector-curvature="0"
         d="m -2702.8817,1259.5811 c -1e-4,2.4671 -0.9118,4.6123 -2.7352,6.4358 -1.8235,1.8234 -3.9688,2.7352 -6.4357,2.7352 -2.5744,0 -4.7733,-0.8581 -6.5967,-2.5743 -1.8235,-1.7162 -2.7353,-3.9151 -2.7352,-6.5967 l 0,-23.6514 c -10e-5,-5.5777 -1.8772,-9.6 -5.6313,-12.0671 -2.4671,-1.7162 -5.4168,-2.5743 -8.8492,-2.5743 l -6.5966,0 0,38.2928 c -10e-5,2.4671 -0.9118,4.6123 -2.7352,6.4358 -1.8236,1.8234 -3.9688,2.7352 -6.4358,2.7352 -2.5744,0 -4.7732,-0.8581 -6.5967,-2.5743 -1.8235,-1.7162 -2.7352,-3.9151 -2.7352,-6.5967 l 0,-38.2928 -6.5966,0 c -5.5777,0 -9.6001,1.8771 -12.0671,5.6313 -1.609,2.4671 -2.4134,5.4704 -2.4134,9.0101 l 0,23.6514 c 0,2.4671 -0.9118,4.6123 -2.7352,6.4358 -1.8235,1.8234 -3.9687,2.7352 -6.4358,2.7352 -2.5743,0 -4.7732,-0.8581 -6.5966,-2.5743 -1.8235,-1.7162 -2.7352,-3.9151 -2.7352,-6.5967 l 0,-23.6514 c 0,-8.0447 2.467,-15.1777 7.4011,-21.399 6.114,-7.7228 14.6413,-11.5843 25.5822,-11.5843 l 7.8838,0 c 2.896,0 5.524,0.59 7.8838,1.7698 2.5743,-1.1798 5.2558,-1.7698 8.0447,-1.7698 l 7.8838,0 c 8.1519,0 15.2849,2.4134 21.399,7.2402 7.7228,6.114 11.5842,14.695 11.5843,25.7431 l 0,23.6514"
         id="path4922-1"
         style="fill:#000000" />
      <path
         inkscape:connector-curvature="0"
         d="m -2628.991,1235.9297 c -1e-4,10.9408 -3.8079,19.4145 -11.4235,25.4212 -6.2213,4.9341 -13.4079,7.4012 -21.5598,7.4012 l -14.4805,0 0,14.6413 c 0,2.4671 -0.8581,4.6123 -2.5743,6.4358 -1.7162,1.8235 -3.9151,2.7352 -6.5967,2.7352 -2.5743,0 -4.7732,-0.9117 -6.5966,-2.7352 -1.8235,-1.8235 -2.7352,-3.9687 -2.7352,-6.4358 l 0,-15.9285 c 0,-2.6815 0.6435,-5.3095 1.9307,-7.8838 -1.2872,-2.5743 -1.9307,-5.2022 -1.9307,-7.8838 l 0,-31.6962 c 0,-4.5049 1.448,-8.3664 4.3441,-11.5843 3.3252,-3.6469 7.6157,-5.4704 12.8716,-5.4704 l 15.7676,0 c 8.1519,0 15.2849,2.4134 21.3989,7.2402 7.7229,6.114 11.5843,14.695 11.5844,25.7431 m -18.3419,0 c -1e-4,-5.5777 -1.8772,-9.6 -5.6313,-12.0671 -2.4671,-1.7162 -5.4705,-2.5743 -9.0101,-2.5743 l -14.4805,0 0,29.1218 14.4805,0 c 3.4323,10e-5 6.3821,-0.8044 8.8492,-2.4134 3.8614,-2.3597 5.7921,-6.3821 5.7922,-12.067"
         id="path4924-0"
         style="fill:#000000" />
      <path
         inkscape:connector-curvature="0"
         d="m -2554.8288,1227.885 c -1e-4,2.7888 -0.5901,5.4704 -1.7699,8.0447 1.1798,2.6816 1.7698,5.3095 1.7699,7.8838 l 0,7.8838 c -1e-4,5.2559 -1.8236,9.4928 -5.4704,12.7106 -3.218,2.8961 -7.0794,4.3442 -11.5844,4.3442 l -23.8124,0 c -8.3665,0 -14.8559,-2.8961 -19.4682,-8.6883 -3.7542,-4.7196 -5.6313,-10.1363 -5.6313,-16.2503 0,-2.5743 0.4827,-4.8804 1.4481,-6.9185 0.9654,-2.1452 2.1989,-3.9687 3.7006,-5.4704 1.6089,-1.6089 3.4324,-2.7888 5.4704,-3.5396 2.1452,-0.8581 4.3441,-1.2872 6.5966,-1.2872 l 30.2481,0 c -0.3218,-2.3597 -1.2872,-3.915 -2.8961,-4.6659 -0.7509,-0.429 -1.9307,-0.6436 -3.5396,-0.6436 l -8.0447,0 c -2.4671,0 -4.6124,-0.8581 -6.4358,-2.5743 -1.8235,-1.7162 -2.7352,-3.9151 -2.7352,-6.5967 0,-2.467 0.9117,-4.6122 2.7352,-6.4357 1.8234,-1.8234 3.9687,-2.7352 6.4358,-2.7352 l 8.0447,0 c 8.1519,0 14.5876,2.8961 19.3073,8.6882 3.7541,4.7197 5.6312,10.1364 5.6313,16.2504 m -18.342,22.5251 0,-5.3095 -28.9609,0 c 0.3217,2.3598 1.2871,3.9151 2.8961,4.666 0.7508,0.429 1.9307,0.6436 3.5396,0.6435 l 22.5252,0"
         id="path4926-4"
         style="fill:#000000" />
      <path
         inkscape:connector-curvature="0"
         d="m -2480.9809,1212.1173 c -1e-4,2.5744 -0.9118,4.7733 -2.7352,6.5967 -1.7163,1.7162 -3.8616,2.5743 -6.4358,2.5743 l -23.8123,0 c -5.4705,0 -9.4392,1.8771 -11.9062,5.6313 -1.7162,2.4671 -2.5743,5.4704 -2.5743,9.0101 l 0,23.6514 c 0,2.5743 -0.9118,4.7732 -2.7352,6.5967 -1.7162,1.7162 -3.8615,2.5743 -6.4358,2.5743 -2.5743,0 -4.7732,-0.8581 -6.5967,-2.5743 -1.8234,-1.7162 -2.7352,-3.9151 -2.7352,-6.5967 l 0,-23.6514 c 0,-8.0447 2.4671,-15.1777 7.4012,-21.399 6.1139,-7.7228 14.6413,-11.5843 25.5822,-11.5843 l 23.8123,0 c 2.5742,0 4.7195,0.9118 6.4358,2.7352 1.8234,1.7162 2.7351,3.8615 2.7352,6.4357"
         id="path4928-9"
         style="fill:#000000" />
      <path
         inkscape:connector-curvature="0"
         d="m -2406.8188,1212.1173 c 0,2.5744 -0.9118,4.7733 -2.7352,6.5967 -1.7162,1.7162 -3.8615,2.5743 -6.4357,2.5743 l -14.4805,0 0,38.2928 c -10e-5,2.4671 -0.9118,4.6123 -2.7352,6.4358 -1.8235,1.8234 -4.0224,2.7352 -6.5967,2.7352 -2.4671,0 -4.6123,-0.8581 -6.4357,-2.5743 -1.8235,-1.7162 -2.7353,-3.9151 -2.7352,-6.5967 l 0,-38.2928 -14.4805,0 c -2.5743,0 -4.7732,-0.8581 -6.5967,-2.5743 -1.8235,-1.7162 -2.7352,-3.9151 -2.7352,-6.5967 0,-2.467 0.9117,-4.6122 2.7352,-6.4357 1.8235,-1.8234 4.0224,-2.7352 6.5967,-2.7352 l 14.4805,0 0,-14.6414 c -1e-4,-2.467 0.9117,-4.6122 2.7352,-6.4358 1.8234,-1.8234 3.9686,-2.7351 6.4357,-2.7352 2.5743,10e-5 4.7732,0.9118 6.5967,2.7352 1.8234,1.8236 2.7351,3.9688 2.7352,6.4358 l 0,14.6414 14.4805,0 c 2.5742,0 4.7195,0.9118 6.4357,2.7352 1.8234,1.7162 2.7352,3.8615 2.7352,6.4357"
         id="path4930-5"
         style="fill:#000000" />
      <path
         inkscape:connector-curvature="0"
         d="m -2380.2813,1259.5811 c 0,2.5743 -0.9117,4.7732 -2.7352,6.5967 -1.7162,1.7162 -3.8615,2.5743 -6.4357,2.5743 -2.5744,0 -4.7732,-0.8581 -6.5967,-2.5743 -1.7162,-1.8235 -2.5743,-4.0224 -2.5743,-6.5967 l 0,-47.4638 c 0,-2.5742 0.8581,-4.7195 2.5743,-6.4357 1.8235,-1.8234 4.0223,-2.7352 6.5967,-2.7352 2.5742,0 4.7195,0.9118 6.4357,2.7352 1.8235,1.7162 2.7352,3.8615 2.7352,6.4357 l 0,47.4638 m 0,-71.2761 c 0,2.5744 -0.8581,4.7733 -2.5743,6.5966 -1.7162,1.8236 -3.9151,2.7353 -6.5966,2.7352 -2.4671,10e-5 -4.6124,-0.9116 -6.4358,-2.7352 -1.8235,-1.8233 -2.7352,-4.0222 -2.7352,-6.5966 0,-2.467 0.8581,-4.6122 2.5743,-6.4358 1.7162,-1.8234 3.9151,-2.7351 6.5967,-2.7352 2.467,10e-5 4.6122,0.9118 6.4357,2.7352 1.8235,1.8236 2.7352,3.9688 2.7352,6.4358"
         id="path4932-9"
         style="fill:#000000" />
      <path
         inkscape:connector-curvature="0"
         d="m -2306.2599,1212.1173 c -1e-4,2.5744 -0.9118,4.7733 -2.7352,6.5967 -1.7163,1.7162 -3.8616,2.5743 -6.4358,2.5743 l -23.8123,0 c -5.4705,0 -9.4392,1.8771 -11.9062,5.6313 -1.7162,2.4671 -2.5743,5.4704 -2.5743,9.0101 l 0,23.6514 c 0,2.5743 -0.9118,4.7732 -2.7352,6.5967 -1.7162,1.7162 -3.8615,2.5743 -6.4358,2.5743 -2.5743,0 -4.7732,-0.8581 -6.5966,-2.5743 -1.8235,-1.7162 -2.7353,-3.9151 -2.7352,-6.5967 l 0,-23.6514 c -10e-5,-8.0447 2.467,-15.1777 7.4011,-21.399 6.1139,-7.7228 14.6413,-11.5843 25.5822,-11.5843 l 23.8123,0 c 2.5742,0 4.7195,0.9118 6.4358,2.7352 1.8234,1.7162 2.7351,3.8615 2.7352,6.4357"
         id="path4934-9"
         style="fill:#000000" />
    </g>
    <rect
       style="fill:#ffffff;fill-opacity:1;stroke:none"
       id="rect3103"
       width="46.905003"
       height="47.276089"
       x="-1563.2578"
       y="-136.08191"
       ry="3.2190435" />
    <path
       style="fill:#000000;fill-opacity:1;stroke:#000000;stroke-width:0.52621204;stroke-miterlimit:4;stroke-opacity:1;stroke-dasharray:none"
       d="m -1560.6088,-133.91312 19.7124,0 c 0.1251,0 0.2249,0.0556 0.2249,0.12473 l 0,19.72341 c 0,0.0691 -0.1003,0.12474 -0.2249,0.12474 l -19.7124,0 c -0.1251,0 -0.2248,-0.0556 -0.2248,-0.12474 l 0,-19.72341 c 0,-0.0691 0.1003,-0.12473 0.2248,-0.12473 z"
       id="rect3170"
       inkscape:connector-curvature="0" />
    <path
       style="fill:#000000;fill-opacity:1;stroke:#000000;stroke-width:0.52621204;stroke-miterlimit:4;stroke-opacity:1;stroke-dasharray:none"
       d="m -1560.5616,-111.05313 19.7126,0 c 0.1251,0 0.2248,0.0556 0.2248,0.12474 l 0,19.723411 c 0,0.06913 -0.1004,0.124741 -0.2248,0.124741 l -19.7126,0 c -0.1249,0 -0.2248,-0.05561 -0.2248,-0.124741 l 0,-19.723411 c 0,-0.0691 0.1003,-0.12474 0.2248,-0.12474 z"
       id="rect3170-7"
       inkscape:connector-curvature="0" />
    <path
       style="fill:#000000;fill-opacity:1;stroke:#000000;stroke-width:0.52621204;stroke-miterlimit:4;stroke-opacity:1;stroke-dasharray:none"
       d="m -1538.719,-133.9368 19.7125,0 c 0.125,0 0.2248,0.0556 0.2248,0.12474 l 0,19.72341 c 0,0.0691 -0.1004,0.12474 -0.2248,0.12474 l -19.7125,0 c -0.1251,0 -0.225,-0.0556 -0.225,-0.12474 l 0,-19.72341 c 0,-0.0691 0.1003,-0.12474 0.225,-0.12474 z"
       id="rect3170-1"
       inkscape:connector-curvature="0" />
    <path
       style="fill:#000000;fill-opacity:1;stroke:#000000;stroke-width:0.52621204;stroke-miterlimit:4;stroke-opacity:1;stroke-dasharray:none"
       d="m -1538.6718,-111.0768 19.7125,0 c 0.1251,0 0.225,0.0556 0.225,0.12475 l 0,19.723403 c 0,0.06913 -0.1003,0.124739 -0.225,0.124739 l -19.7125,0 c -0.125,0 -0.2249,-0.05561 -0.2249,-0.124739 l 0,-19.723403 c 0,-0.0691 0.1004,-0.12475 0.2249,-0.12475 z"
       id="rect3170-7-1"
       inkscape:connector-curvature="0" />
    <g
       style="font-size:86.61260223px;font-style:normal;font-variant:normal;font-weight:bold;font-stretch:normal;line-height:125%;letter-spacing:0px;word-spacing:0px;fill:#ffffff;fill-opacity:1;stroke:none;font-family:Quantum Flat BRK;-inkscape-font-specification:Quantum Flat BRK Bold"
       id="text3254"
       transform="matrix(0.18741401,0,0,0.18741401,-1270.6002,-71.117918)">
      <path
         d="m -1473.4828,-288.83882 c 0,-1.27028 -0.058,-2.42511 -0.1732,-3.46451 -0.058,-1.09704 -0.2599,-2.10752 -0.6063,-3.03144 -0.3465,-0.92382 -0.895,-1.7322 -1.6456,-2.42515 -0.693,-0.75059 -1.7035,-1.41462 -3.0315,-1.99209 -0.1155,-0.0577 -0.4042,-0.1443 -0.8661,-0.25984 -0.4042,-0.11543 -0.6641,-0.20204 -0.7795,-0.25984 -0.3465,-0.11543 -0.8662,-0.23091 -1.559,-0.34645 -0.693,-0.17317 -1.0683,-0.25978 -1.126,-0.25984 l -43.7394,0 0,-14.81075 44.6921,0 c 0.9816,7e-5 1.9921,0.11555 3.0315,0.34645 1.0393,0.17329 2.0498,0.40426 3.0314,0.6929 4.1574,1.21264 7.7662,3.29134 10.8266,6.23611 3.0602,2.94489 5.1389,6.55374 6.2361,10.82657 -10e-5,0.11554 0.058,0.5486 0.1732,1.29919 0.1732,0.75069 0.2887,1.27037 0.3465,1.55903 -10e-5,0.17327 0.029,0.46198 0.087,0.86613 0.058,0.40423 0.086,0.66407 0.087,0.77951 l 0,19.05477 -43.9126,0 c -0.058,3e-5 -0.2887,0.0578 -0.6929,0.17323 -0.4042,0.0578 -0.7218,0.11551 -0.9527,0.17322 -3.1181,0.63519 -5.2257,2.02099 -6.3227,4.15741 -1.0972,2.07872 -1.6457,4.59048 -1.6457,7.53529 l 53.5266,0 0,14.81076 -68.5106,0 0,-17.75559 c 0,-0.11546 0,-0.40417 0,-0.86612 0.058,-0.46192 0.1155,-0.7795 0.1733,-0.95274 0.3464,-2.36739 0.9527,-4.64819 1.8188,-6.8424 0.9239,-2.25189 2.0787,-4.30172 3.4645,-6.14949 1.4436,-1.90544 3.1181,-3.55108 5.0236,-4.93692 1.9632,-1.38576 4.1574,-2.39624 6.5825,-3.03144 0.2887,-0.11544 0.8084,-0.23093 1.559,-0.34645 0.8084,-0.17318 1.2992,-0.28867 1.4725,-0.34645 0.1732,-0.0577 0.4041,-0.0866 0.6929,-0.0866 0.3464,-0.0577 0.6928,-0.11544 1.0393,-0.17323 0.3464,-0.0577 0.664,-0.0866 0.9528,-0.0866 0.2886,-0.0577 0.4619,-0.0866 0.5196,-0.0866 l 30.2278,0 0,0"
         id="path3307"
         inkscape:connector-curvature="0"
         style="fill:#ffffff" />
    </g>
    <path
       inkscape:connector-curvature="0"
       id="path3304"
       style="font-size:86.61260223px;font-style:normal;font-variant:normal;font-weight:bold;font-stretch:normal;line-height:125%;letter-spacing:0px;word-spacing:0px;fill:#ffffff;fill-opacity:1;stroke:none;font-family:Quantum Flat BRK;-inkscape-font-specification:Quantum Flat BRK Bold"
       d="m -1533.3139,-117.68119 c -0.5518,-0.10822 -1.0333,-0.3463 -1.4445,-0.71424 -0.4113,-0.36793 -0.6927,-0.82244 -0.8442,-1.36352 -0.015,-0.0325 -0.027,-0.10274 -0.049,-0.21103 -0.022,-0.11899 -0.038,-0.19478 -0.049,-0.22725 -0.015,-0.0217 -0.022,-0.065 -0.033,-0.1299 0,-0.065 0,-0.10274 0,-0.11369 l 0,-7.28836 c 0,-0.3571 0.081,-0.69799 0.2434,-1.02263 0.1623,-0.33547 0.3734,-0.62765 0.6331,-0.87656 0.2706,-0.2597 0.5735,-0.46532 0.909,-0.61683 0.3463,-0.16231 0.6926,-0.24348 1.0388,-0.24349 l 7.256,0 c 0.3246,1e-5 0.6277,0.065 0.909,0.1948 0.2922,0.11899 0.5519,0.28137 0.7791,0.48697 0.2274,0.19479 0.4221,0.42746 0.5845,0.69799 0.173,0.27055 0.3029,0.55192 0.3894,0.84407 0.022,0.0542 0.043,0.13523 0.065,0.24349 0.022,0.10822 0.033,0.19481 0.033,0.25973 l 0,7.49938 c 0,0.31381 -0.087,0.62765 -0.2597,0.94147 -0.1623,0.31384 -0.3733,0.59518 -0.6331,0.84409 -0.2597,0.24889 -0.5519,0.4491 -0.8765,0.6006 -0.3247,0.1515 -0.6438,0.22726 -0.9578,0.22726 l -7.4506,0 c -0.015,0 -0.049,0 -0.114,0 -0.065,-0.0115 -0.1083,-0.0217 -0.1294,-0.0325 m 0.4383,-2.79198 c 0.015,0.0115 0.033,0.0217 0.065,0.0325 l 6.9313,0 c 0.022,0 0.059,-0.0115 0.1129,-0.0325 0.055,-0.0217 0.081,-0.054 0.081,-0.0974 l 0,-6.89879 c 0,-0.054 -0.016,-0.10275 -0.049,-0.14608 -0.022,-0.054 -0.059,-0.0812 -0.114,-0.0812 l -6.8338,0 c -0.033,2e-5 -0.087,0.0162 -0.1624,0.0487 -0.065,0.0217 -0.098,0.0595 -0.098,0.11369 l 0,6.86631 c 0,0.0115 0,0.0432 0.016,0.0974 0.015,0.0432 0.027,0.0757 0.049,0.0975" />
    <path
       inkscape:connector-curvature="0"
       id="path3298"
       style="font-size:86.61260223px;font-style:normal;font-variant:normal;font-weight:bold;font-stretch:normal;line-height:125%;letter-spacing:0px;word-spacing:0px;fill:#ffffff;fill-opacity:1;stroke:none;font-family:Quantum Flat BRK;-inkscape-font-specification:Quantum Flat BRK Bold"
       d="m -1544.7586,-107.39193 0,12.839834 -2.7595,0 0,-12.839834 2.7595,0 m -10.0641,0 0,4.83725 c 0,0.0217 0.015,0.0974 0.033,0.22725 0.033,0.11899 0.059,0.21104 0.082,0.27595 0.098,0.36795 0.2815,0.68717 0.5519,0.95771 0.2813,0.27055 0.6223,0.40582 1.0227,0.40582 l 5.0157,0 0,2.775742 -5.2754,0 c -0.1193,0 -0.2759,-0.02166 -0.4708,-0.065 -0.1948,-0.04322 -0.3517,-0.07572 -0.4707,-0.09738 -0.3896,-0.108215 -0.7522,-0.265132 -1.0875,-0.470752 -0.3356,-0.216418 -0.6386,-0.465312 -0.9092,-0.746683 -0.2597,-0.29218 -0.4869,-0.61141 -0.6818,-0.957707 -0.1839,-0.35711 -0.3245,-0.73045 -0.4219,-1.12005 0,-0.0216 -0.015,-0.0595 -0.033,-0.11369 -0.015,-0.065 -0.022,-0.13523 -0.033,-0.21102 -0.015,-0.0757 -0.027,-0.14607 -0.049,-0.21103 -0.015,-0.065 -0.016,-0.11368 -0.016,-0.14609 -0.015,-0.0216 -0.022,-0.0703 -0.033,-0.14608 0,-0.0757 0,-0.12445 0,-0.14609 l 0,-5.04829 2.7756,0" />
    <path
       inkscape:connector-curvature="0"
       id="path3301"
       style="font-size:86.61260223px;font-style:normal;font-variant:normal;font-weight:bold;font-stretch:normal;line-height:125%;letter-spacing:0px;word-spacing:0px;fill:#ffffff;fill-opacity:1;stroke:none;font-family:Quantum Flat BRK;-inkscape-font-specification:Quantum Flat BRK Bold"
       d="m -1535.543,-98.431639 c 0,-0.465324 0.059,-0.909013 0.1785,-1.331053 0.1294,-0.422038 0.3409,-0.822448 0.6331,-1.201208 -0.5411,-0.74668 -0.8116,-1.58536 -0.8116,-2.51602 0,-0.80079 0.1785,-1.5042 0.5356,-2.11022 0.3571,-0.61682 0.909,-1.09297 1.6558,-1.42845 0.2164,-0.10822 0.4544,-0.19477 0.7142,-0.25971 0.2597,-0.0757 0.5139,-0.11369 0.7628,-0.11369 l 5.5353,0 c 0.2164,1e-5 0.422,0.027 0.6169,0.0812 0.2056,0.0542 0.4057,0.11899 0.6006,0.19479 0.3894,0.14069 0.7358,0.33548 1.0389,0.58437 0.3029,0.23808 0.5573,0.51404 0.7628,0.82785 0.2057,0.31383 0.3571,0.66013 0.4545,1.03889 0.1083,0.37875 0.1623,0.76832 0.1624,1.16873 -10e-5,0.4545 -0.06,0.89819 -0.1786,1.33105 -0.1193,0.43287 -0.3301,0.83327 -0.6331,1.2012 0.2814,0.37876 0.4869,0.77375 0.6169,1.184958 0.1293,0.4004 0.1947,0.83869 0.1948,1.314824 -10e-5,0.42205 -0.055,0.827861 -0.1624,1.217446 -0.098,0.378741 -0.2488,0.730456 -0.4545,1.055101 -0.2055,0.324656 -0.4654,0.611419 -0.7791,0.860314 -0.3138,0.238072 -0.6764,0.422049 -1.0876,0.551907 -0.1408,0.04322 -0.3138,0.09202 -0.5195,0.146096 -0.1947,0.05405 -0.3679,0.08119 -0.5193,0.08119 l -5.795,0 c -0.1731,0 -0.3518,-0.02167 -0.5358,-0.065 -0.1731,-0.05405 -0.3408,-0.108215 -0.5031,-0.162322 -0.8116,-0.324656 -1.4284,-0.795397 -1.8506,-1.412222 -0.422,-0.616836 -0.6329,-1.363518 -0.6329,-2.240081 m 2.792,-0.01619 c 0,0.28137 0.081,0.535681 0.2433,0.762932 0.1625,0.227251 0.4059,0.340883 0.7305,0.340883 l 5.3081,0 c 0.3247,0 0.5681,-0.113689 0.7304,-0.340883 0.1624,-0.227251 0.2436,-0.481562 0.2436,-0.762932 0,-0.216418 -0.038,-0.411205 -0.1141,-0.58436 -0.065,-0.173142 -0.2056,-0.303002 -0.422,-0.389582 -0.055,-0.0217 -0.1408,-0.0487 -0.2598,-0.0812 -0.1083,-0.0432 -0.1894,-0.065 -0.2433,-0.065 l -5.1457,0 c -0.3356,0 -0.6008,0.10821 -0.7954,0.32464 -0.184,0.216446 -0.276,0.481566 -0.276,0.79539 m 0,-5.048289 c 0,0.29219 0.081,0.55192 0.2435,0.77916 0.1624,0.22726 0.4058,0.3409 0.7305,0.3409 l 5.308,0 c 0.3246,0 0.5681,-0.11369 0.7303,-0.3409 0.1624,-0.22724 0.2436,-0.48697 0.2436,-0.77916 0,-0.21641 -0.038,-0.4112 -0.114,-0.58436 -0.065,-0.17314 -0.2056,-0.303 -0.422,-0.38958 -0.055,-0.0217 -0.1409,-0.0487 -0.2597,-0.0812 -0.1072,-0.0325 -0.1894,-0.0487 -0.2434,-0.0487 l -5.1458,0 c -0.3355,10e-6 -0.6007,0.10821 -0.7953,0.32465 -0.184,0.20562 -0.276,0.46534 -0.276,0.77915" />
  </g>
</svg>
