<?xml version="1.0" encoding="UTF-8" standalone="no"?>
<!-- Generator: Adobe Illustrator 15.0.0, SVG Export Plug-In . SVG Version: 6.00 Build 0)  -->

<svg
   xmlns:dc="http://purl.org/dc/elements/1.1/"
   xmlns:cc="http://creativecommons.org/ns#"
   xmlns:rdf="http://www.w3.org/1999/02/22-rdf-syntax-ns#"
   xmlns:svg="http://www.w3.org/2000/svg"
   xmlns="http://www.w3.org/2000/svg"
   xmlns:sodipodi="http://sodipodi.sourceforge.net/DTD/sodipodi-0.dtd"
   xmlns:inkscape="http://www.inkscape.org/namespaces/inkscape"
   version="1.1"
   id="Capa_1"
   x="0px"
   y="0px"
   width="256"
   height="256"
   viewBox="0 0 256 256"
   enable-background="new 0 0 800 600"
   xml:space="preserve"
   inkscape:version="0.48.5 r10040"
   sodipodi:docname="pilas-icono.svg"><metadata
     id="metadata58"><rdf:RDF><cc:Work
         rdf:about=""><dc:format>image/svg+xml</dc:format><dc:type
           rdf:resource="http://purl.org/dc/dcmitype/StillImage" /><dc:title /></cc:Work></rdf:RDF></metadata><defs
     id="defs56" /><sodipodi:namedview
     pagecolor="#404040"
     bordercolor="#666666"
     borderopacity="1"
     objecttolerance="10"
     gridtolerance="10"
     guidetolerance="10"
     inkscape:pageopacity="0.70196078"
     inkscape:pageshadow="2"
     inkscape:window-width="1913"
     inkscape:window-height="1033"
     id="namedview54"
     showgrid="false"
     inkscape:zoom="1.1125147"
     inkscape:cx="48.585892"
     inkscape:cy="25.924834"
     inkscape:window-x="0"
     inkscape:window-y="26"
     inkscape:window-maximized="1"
     inkscape:current-layer="layer2"
     showborder="false" /><g
     inkscape:groupmode="layer"
     id="layer1"
     inkscape:label="Capa"
     style="display:none"
     transform="translate(0,-344)"><g
       id="g4422"
       transform="translate(-127.63877,254.37867)"><g
         export-filename="/home/hugoruscitti/path3089-3-4.png"
         export-ydpi="86.855568"
         export-xdpi="86.855568"
         connector-curvature="0"
         id="path3087-9_1_"
         transform="translate(16.017494,10.021904)"><path
           id="path4"
           d="m 205.954,126.486 c -0.65,-0.766 -1.229,-1.56 -1.814,-2.352 -0.574,-0.796 -1.118,-1.605 -1.629,-2.427 -0.513,-0.821 -1.365,-1.505 -1.444,-2.502 -0.067,-0.487 -0.078,-0.997 0.013,-1.548 0.079,-0.546 0.229,-1.122 0.582,-1.778 l 0.371,-0.15 c 0.71,0.227 1.218,0.536 1.655,0.874 0.449,0.333 0.796,0.706 1.086,1.103 0.636,0.771 0.5,1.855 0.702,2.802 0.204,0.946 0.376,1.905 0.517,2.877 0.131,0.976 0.267,1.949 0.332,2.952 l -0.371,0.149 z"
           inkscape:connector-curvature="0"
           style="fill:#030104" /></g><g
         export-ydpi="86.855568"
         export-xdpi="86.855568"
         connector-curvature="0"
         id="path3089-3_1_"
         transform="translate(16.017494,10.021904)"><path
           id="path7"
           d="m 224.378,120.568 c 0.064,-2.284 0.234,-4.55 0.348,-6.826 0.148,-2.27 0.33,-4.534 0.544,-6.792 0.105,-1.13 0.138,-2.271 0.194,-3.41 0.063,-1.137 0.245,-2.253 0.548,-3.35 0.308,-1.095 0.676,-2.18 1.153,-3.247 0.464,-1.069 1.003,-2.125 1.758,-3.145 l 0.395,0.067 c 0.375,1.211 0.537,2.386 0.622,3.548 0.098,1.164 0.088,2.31 0.017,3.445 -0.075,1.135 -0.272,2.249 -0.588,3.343 -0.323,1.093 -0.669,2.182 -0.942,3.283 -0.543,2.203 -1.119,4.4 -1.728,6.592 -0.644,2.186 -1.231,4.381 -1.925,6.559 l -0.396,-0.067 z"
           inkscape:connector-curvature="0"
           style="fill:#030104" /></g><path
         id="path3069-83_1_"
         connector-curvature="0"
         export-xdpi="86.855568"
         export-ydpi="86.855568"
         export-filename="/home/hugoruscitti/path3089-3-4.png"
         nodetypes="ccccc"
         d="m 196.39849,187.9509 c 22.729,-5.893 47.981,-15.321 72.731,-34.346 14.478,57.915 23.906,117.851 23.738,176.776 -39.396,-0.674 -78.792,-1.348 -118.187,-2.02 16.33,-45.794 27.106,-93.102 21.718,-140.41 z"
         inkscape:connector-curvature="0"
         style="fill:#b2c64b;stroke:#030104;stroke-width:5" /><path
         id="path3071-6_1_"
         connector-curvature="0"
         export-xdpi="86.855568"
         export-ydpi="86.855568"
         export-filename="/home/hugoruscitti/path3089-3-4.png"
         nodetypes="cc"
         d="m 173.88149,276.5399 c 45.457,32.326 103.541,15.152 125.763,-37.881"
         inkscape:connector-curvature="0"
         style="fill:none;stroke:#030104;stroke-width:5" /><path
         id="path3073-3_1_"
         connector-curvature="0"
         export-xdpi="86.855568"
         export-ydpi="86.855568"
         export-filename="/home/hugoruscitti/path3089-3-4.png"
         nodetypes="ccccc"
         d="m 216.47549,181.8889 c -2.525,-7.239 -4.293,-13.974 -6.818,-21.213 12.543,-6.188 23.064,-10.48 36.365,-13.385 2.188,6.061 5.262,11.112 7.449,17.173 -10.311,6.735 -23.022,12.458 -36.996,17.425 z"
         inkscape:connector-curvature="0"
         style="fill:#b2c64b;stroke:#030104;stroke-width:5" /><path
         id="path3075-4_1_"
         connector-curvature="0"
         export-xdpi="86.855568"
         export-ydpi="86.855568"
         export-filename="/home/hugoruscitti/path3089-3-4.png"
         nodetypes="cscc"
         d="m 255.32549,286.0109 c 2.441,10.691 17.279,20.771 33.335,12.879 22.023,-10.826 15.32,-27.021 -0.758,-39.396 -10.004,12.007 -16.429,18.405 -32.577,26.517 l 0,0 z"
         inkscape:connector-curvature="0"
         style="fill:#ad3937;stroke:#030104;stroke-width:3" /><path
         id="path3079-8_1_"
         connector-curvature="0"
         export-xdpi="86.855568"
         export-ydpi="86.855568"
         export-filename="/home/hugoruscitti/path3089-3-4.png"
         d="m 250.31349,200.8679 21.016,1.715 0.959,7.553 -21.975,-9.268 z"
         inkscape:connector-curvature="0"
         style="fill:#030104;stroke:#030104;stroke-width:4" /><path
         id="path3081-3_1_"
         connector-curvature="0"
         export-xdpi="86.855568"
         export-ydpi="86.855568"
         export-filename="/home/hugoruscitti/path3089-3-4.png"
         d="m 207.17749,218.6859 -22.47,8.71 23.871,-6.119 -1.401,-2.591 z"
         inkscape:connector-curvature="0"
         style="fill:#030104;stroke:#030104;stroke-width:4" /><g
         id="path3083-1_1_"
         connector-curvature="0"
         export-xdpi="86.855568"
         export-ydpi="86.855568"
         export-filename="/home/hugoruscitti/path3089-3-4.png"
         transform="translate(16.017494,10.021904)"><path
           d="m 181.788,146.277 c -0.633,-0.028 -1.224,-0.122 -1.818,-0.209 -0.588,-0.098 -1.158,-0.224 -1.711,-0.377 -0.552,-0.154 -1.301,0.001 -1.603,-0.546 -0.167,-0.249 -0.301,-0.549 -0.376,-0.942 -0.082,-0.382 -0.123,-0.829 -0.046,-1.46 l 0.215,-0.338 c 0.539,-0.336 0.961,-0.488 1.342,-0.576 0.388,-0.099 0.717,-0.104 1.013,-0.059 0.624,0.042 0.801,0.786 1.174,1.221 0.373,0.435 0.729,0.898 1.066,1.39 0.331,0.501 0.666,0.998 0.959,1.559 l -0.215,0.337 z"
           id="path18"
           inkscape:connector-curvature="0"
           style="fill:#030104" /></g><g
         id="path3085-3_1_"
         connector-curvature="0"
         export-xdpi="86.855568"
         export-ydpi="86.855568"
         export-filename="/home/hugoruscitti/path3089-3-4.png"
         transform="translate(16.017494,10.021904)"><path
           d="m 191.086,134.619 c -1.72,-1.585 -3.356,-3.24 -5.037,-4.858 -1.653,-1.64 -3.281,-3.302 -4.882,-4.985 -0.803,-0.84 -1.662,-1.633 -2.503,-2.441 -0.835,-0.813 -1.578,-1.703 -2.225,-2.671 -0.644,-0.971 -1.24,-1.98 -1.751,-3.06 -0.522,-1.071 -0.984,-2.192 -1.278,-3.451 l 0.309,-0.254 c 1.179,0.53 2.19,1.198 3.141,1.916 0.962,0.709 1.839,1.488 2.668,2.306 0.826,0.821 1.556,1.72 2.194,2.696 0.632,0.98 1.246,1.976 1.916,2.925 1.345,1.895 2.664,3.811 3.957,5.748 1.265,1.96 2.575,3.883 3.802,5.875 l -0.311,0.254 z"
           id="path21"
           inkscape:connector-curvature="0"
           style="fill:#030104" /></g><path
         id="path3091-1_1_"
         export-xdpi="86.855568"
         export-ydpi="86.855568"
         export-filename="/home/hugoruscitti/path3089-3-4.png"
         ry="26.642773"
         rx="25.127544"
         cy="364.57455"
         cx="207.46008"
         type="arc"
         d="m 274.18049,247.9289 c 0.008,14.713 -11.236,26.648 -25.113,26.656 -13.879,0.01 -25.135,-11.912 -25.143,-26.627 0,-0.01 0,-0.02 0,-0.029 0,-14.715 11.25,-26.643 25.127,-26.643 13.879,0 25.129,11.928 25.129,26.643 z"
         inkscape:connector-curvature="0"
         style="fill:#ffffff;stroke:#030104;stroke-width:4" /><path
         id="path3861-7_1_"
         export-xdpi="86.855568"
         export-ydpi="86.855568"
         export-filename="/home/hugoruscitti/path3089-3-4.png"
         ry="15.404825"
         rx="15.783633"
         cy="372.78204"
         cx="165.03368"
         type="arc"
         d="m 218.65249,255.6299 c 0,8.508 -7.066,15.406 -15.784,15.406 -8.717,0 -15.783,-6.898 -15.783,-15.406 0,-8.508 7.066,-15.404 15.783,-15.404 8.717,0 15.784,6.896 15.784,15.404 z"
         inkscape:connector-curvature="0"
         style="fill:#ffffff;stroke:#030104;stroke-width:4" /><path
         id="path3863-1_1_"
         export-xdpi="86.855568"
         export-ydpi="86.855568"
         export-filename="/home/hugoruscitti/path3089-3-4.png"
         ry="4.0406103"
         rx="4.0406103"
         cy="370.50922"
         cx="210.36427"
         type="arc"
         d="m 252.40949,250.6009 c 0,1.783 -1.445,3.23 -3.23,3.23 -1.783,0 -3.23,-1.447 -3.23,-3.23 0,-1.785 1.447,-3.23 3.23,-3.23 1.784,-0.001 3.23,1.444 3.23,3.23 z"
         inkscape:connector-curvature="0"
         style="fill:#030104;stroke:#030104;stroke-width:2" /><path
         id="path3865-3_1_"
         export-xdpi="86.855568"
         export-ydpi="86.855568"
         export-filename="/home/hugoruscitti/path3089-3-4.png"
         ry="3.2829957"
         rx="3.2829957"
         cy="375.30743"
         cx="166.42264"
         type="arc"
         d="m 207.48849,256.8119 c 0,2.455 -1.989,4.445 -4.444,4.445 -2.455,0 -4.445,-1.99 -4.445,-4.445 0,-2.455 1.99,-4.445 4.445,-4.445 2.455,0 4.444,1.989 4.444,4.445 z"
         inkscape:connector-curvature="0"
         style="fill:#030104;stroke:#030104;stroke-width:2" /><path
         id="path3867-5_1_"
         connector-curvature="0"
         export-xdpi="86.855568"
         export-ydpi="86.855568"
         export-filename="/home/hugoruscitti/path3089-3-4.png"
         nodetypes="cc"
         d="m 273.94649,274.4229 c 3.916,3.28 7.39,7.803 9.058,12.988"
         inkscape:connector-curvature="0"
         style="fill:none;stroke:#030104;stroke-width:4" /></g><g
       transform="translate(16.017494,10.021904)"
       id="g28"><path
         inkscape:connector-curvature="0"
         id="path30"
         d="m 196.633,382.283 c 0,-8.819 6.301,-15.938 14.995,-15.938 9.198,0 14.617,7.182 14.617,16.317 v 1.197 h -24.572 c 0.379,5.732 4.348,10.521 10.9,10.521 3.528,0 6.993,-1.387 9.45,-3.906 l 2.269,3.086 c -3.088,3.025 -7.183,4.727 -12.097,4.727 -9.073,0 -15.562,-6.49 -15.562,-16.004 z m 14.931,-12.032 c -6.489,0 -9.702,5.48 -9.954,10.079 h 19.972 c -0.062,-4.472 -3.087,-10.079 -10.018,-10.079 z" /><path
         inkscape:connector-curvature="0"
         id="path32"
         d="m 254.468,397.531 v -19.909 c 0,-5.418 -2.771,-7.057 -6.867,-7.057 -3.717,0 -7.183,2.269 -9.01,4.726 v 22.24 h -4.725 V 367.1 h 4.725 v 4.41 c 2.143,-2.583 6.301,-5.166 10.9,-5.166 6.3,0 9.639,3.213 9.639,9.828 v 21.358 h -4.662 z" /><path
         inkscape:connector-curvature="0"
         id="path34"
         d="m 268.578,405.279 2.395,-3.402 c 2.52,2.963 5.543,4.096 9.891,4.096 5.041,0 9.828,-2.457 9.828,-8.883 v -4.6 c -2.268,3.088 -5.984,5.418 -10.27,5.418 -7.938,0 -13.545,-5.922 -13.545,-15.75 0,-9.765 5.545,-15.813 13.545,-15.813 4.096,0 7.812,2.016 10.27,5.355 v -4.6 h 4.727 v 29.989 c 0,9.639 -7.119,12.789 -14.555,12.789 -5.105,0.001 -8.632,-1.007 -12.286,-4.599 z m 22.113,-16.506 v -13.356 c -1.701,-2.583 -5.355,-4.852 -9.072,-4.852 -6.174,0 -9.828,4.852 -9.828,11.593 0,6.678 3.654,11.529 9.828,11.529 3.716,10e-4 7.371,-2.267 9.072,-4.914 z" /><path
         inkscape:connector-curvature="0"
         id="path36"
         d="m 304.046,359.603 c 0,-1.764 1.449,-3.213 3.213,-3.213 1.764,0 3.15,1.449 3.15,3.213 0,1.765 -1.387,3.15 -3.15,3.15 -1.763,0 -3.213,-1.386 -3.213,-3.15 z m 0.819,37.928 V 367.1 h 4.725 v 30.431 h -4.725 z" /><path
         inkscape:connector-curvature="0"
         id="path38"
         d="m 339.642,397.531 v -19.909 c 0,-5.418 -2.771,-7.057 -6.867,-7.057 -3.717,0 -7.184,2.269 -9.01,4.726 v 22.24 H 319.04 V 367.1 h 4.725 v 4.41 c 2.143,-2.583 6.301,-5.166 10.9,-5.166 6.299,0 9.639,3.213 9.639,9.828 v 21.358 h -4.662 z" /><path
         inkscape:connector-curvature="0"
         id="path40"
         d="m 352.05,382.283 c 0,-8.819 6.301,-15.938 14.996,-15.938 9.197,0 14.617,7.182 14.617,16.317 v 1.197 h -24.572 c 0.379,5.732 4.348,10.521 10.9,10.521 3.527,0 6.992,-1.387 9.449,-3.906 l 2.27,3.086 c -3.088,3.025 -7.184,4.727 -12.098,4.727 -9.071,0 -15.562,-6.49 -15.562,-16.004 z m 14.932,-12.032 c -6.488,0 -9.701,5.48 -9.953,10.079 H 377 c -0.063,-4.472 -3.086,-10.079 -10.018,-10.079 z" /></g><g
       transform="translate(16.017494,10.021904)"
       id="g42"><path
         inkscape:connector-curvature="0"
         id="path44"
         d="m 64.643,394.389 v 15.498 h -8.002 v -42.022 h 8.002 v 3.844 c 2.331,-2.962 5.67,-4.6 9.388,-4.6 7.812,0 13.482,5.796 13.482,15.938 0,10.145 -5.67,16.004 -13.482,16.004 -3.593,0 -6.868,-1.512 -9.388,-4.662 z M 79.26,383.047 c 0,-5.228 -3.15,-8.819 -7.75,-8.819 -2.583,0 -5.481,1.449 -6.867,3.465 v 10.71 c 1.323,1.953 4.284,3.529 6.867,3.529 4.599,0 7.75,-3.592 7.75,-8.885 z" /><path
         inkscape:connector-curvature="0"
         id="path46"
         d="m 92.613,359.8 c 0,-2.646 2.143,-4.725 4.726,-4.725 2.646,0 4.788,2.078 4.788,4.725 0,2.647 -2.142,4.788 -4.788,4.788 -2.583,0 -4.726,-2.142 -4.726,-4.788 z m 0.756,38.495 v -30.431 h 8.002 v 30.431 h -8.002 z" /><path
         inkscape:connector-curvature="0"
         id="path48"
         d="m 109.308,398.295 v -42.023 h 8.002 v 42.023 h -8.002 z" /><path
         inkscape:connector-curvature="0"
         id="path50"
         d="m 143.518,398.295 v -3.215 c -2.079,2.521 -5.67,3.971 -9.64,3.971 -4.852,0 -10.521,-3.277 -10.521,-10.082 0,-7.182 5.67,-9.827 10.521,-9.827 4.096,0 7.624,1.323 9.64,3.716 v -3.842 c 0,-3.087 -2.646,-5.103 -6.679,-5.103 -3.213,0 -6.237,1.26 -8.757,3.591 l -3.15,-5.607 c 3.717,-3.339 8.506,-4.788 13.294,-4.788 6.993,0 13.356,2.771 13.356,11.529 v 19.657 h -8.064 z m 0,-7.309 v -3.781 c -1.323,-1.764 -3.843,-2.709 -6.427,-2.709 -3.149,0 -5.733,1.701 -5.733,4.6 0,2.899 2.584,4.537 5.733,4.537 2.584,0 5.103,-0.883 6.427,-2.647 z" /><path
         inkscape:connector-curvature="0"
         id="path52"
         d="m 156.81,394.324 3.465,-5.795 c 2.269,2.141 6.741,4.221 10.521,4.221 3.466,0 5.104,-1.322 5.104,-3.213 0,-4.979 -18.019,-0.883 -18.019,-12.853 0,-5.104 4.41,-9.576 12.475,-9.576 5.103,0 9.198,1.764 12.223,4.158 l -3.214,5.67 c -1.827,-1.891 -5.292,-3.527 -9.009,-3.527 -2.898,0 -4.789,1.26 -4.789,2.961 0,4.472 18.082,0.692 18.082,12.978 0,5.607 -4.788,9.703 -13.23,9.703 -5.293,0 -10.397,-1.764 -13.609,-4.727 z" /></g></g><g
     inkscape:groupmode="layer"
     id="layer2"
     inkscape:label="Capa#1"
     style="opacity:1;display:inline"
     transform="translate(0,-344)"><path
       style="fill:#ffffff;stroke:none;stroke-width:1px;stroke-linecap:butt;stroke-linejoin:miter;stroke-opacity:1"
       d="m 67.231889,15.725924 3.402682,31.202467 -12.378098,4.86003 c 1.4647,37.68919 0.299792,74.351519 -11.703948,108.988269 l -4.262992,-1.08503 -12.005775,20.3643 8.487427,8.33983 -26.694914,62.51946 206.885589,4.13136 c 0,0 -1e-5,-60.06356 -3.81357,-84.2161 -3.81355,-24.15254 -5.26154,-34.89374 -5.26154,-34.89374 l 6.09927,-12.64137 -8.14704,-16.6598 -3.92923,4.16056 c 0,0 -21.34028,-93.143611 -32.12004,-104.9312856 -5.16185,4.1671716 -20.58902,14.4908836 -20.58902,14.4908836 0,0 -5.65646,-10.9593057 -8.19222,-17.9574459 C 136.65254,-0.77965395 121.21214,1.1789109 106.14406,1.7627189 95.164131,8.446157 67.231889,15.725924 67.231889,15.725924 z"
       id="path5052"
       inkscape:connector-curvature="0"
       transform="translate(0,344)"
       sodipodi:nodetypes="cccccccccsccccccccc" /><path
       style="fill:#000000;fill-opacity:1;stroke:#000000;stroke-width:1.14759326000000006px;stroke-linecap:butt;stroke-linejoin:miter;stroke-opacity:1"
       d="m 164.54878,367.06005 c -9.48224,18.96446 -67.299182,39.796 -93.385401,45.22235 0.05267,12.58504 -1.173965,29.0466 -3.478642,47.19477 l 21.015302,-9.28833 10.937999,15.3132 -33.602967,6.02486 c -1.898727,12.89854 -4.287787,26.36047 -7.100733,39.69956 2.091913,0.58028 4.474455,1.09735 6.993147,1.57794 -1.015483,-1.34935 -1.708296,-2.63895 -2.044151,-3.72968 -1.5473,-5.02492 -2.167677,-17.80966 9.252471,-26.17947 7.914985,-5.80087 26.547345,-3.76741 29.873285,11.69111 1.78683,8.30493 -0.91375,20.9774 -11.404205,24.74498 12.618285,7.17054 26.089565,1.27782 34.607115,-1.64967 -0.91933,-0.806 -7.98831,-4.20198 -11.61939,-7.49522 -8.96221,-8.12833 -11.02191,-26.00103 0,-38.69541 13.90095,-16.01023 37.05267,-14.88107 47.19478,5.2359 3.95301,7.84082 3.75995,15.63055 2.15173,22.01944 15.3698,-13.85111 24.2323,-34.63434 26.78914,-41.27749 -7.74997,-39.94166 -17.68661,-76.36294 -26.17948,-90.40884 z m -31.3795,65.62799 37.18919,0 0,24.81671 -39.37679,-16.78355 2.1876,-8.03316 z m 64.80316,65.91489 -3.90899,6.70625 c 0,0 1.30069,0.25876 5.20003,4.3752 -0.63334,-4.84546 -0.55011,-6.13089 -1.29104,-11.08145 z M 51.546706,540.99216 c -4.391748,16.75575 -8.376938,29.62065 -13.914569,42.67613 0,0 135.646983,4.3758 164.823083,2.1876 1.25547,-7.65835 1.52846,-18.27645 1.00415,-30.69813 -3.92322,7.96407 -22.25406,13.13131 -34.85815,11.58352 -12.60407,-1.54778 -22.64491,-6.07929 -28.76155,-13.34077 -7.66395,2.28019 -29.85445,6.13367 -54.654135,1.75725 -11.762315,-2.07569 -25.730121,-8.24388 -33.638829,-14.1656 z"
       id="path3568"
       inkscape:connector-curvature="0" /><path
       style="fill:#000000;fill-opacity:1;stroke:#000000;stroke-width:1.14759326000000006px;stroke-linecap:butt;stroke-linejoin:miter;stroke-opacity:1"
       d="m 79.244433,368.67305 6.093089,25.96395 c 0,0 35.814038,-8.96646 52.826708,-21.55089 -2.58642,-8.45829 -3.5079,-15.75724 -11.20652,-22.68478 -14.40356,11.8979 -47.713277,18.27172 -47.713277,18.27172 z"
       id="path3570"
       inkscape:connector-curvature="0"
       sodipodi:nodetypes="ccccc" /><path
       sodipodi:type="arc"
       style="fill:#000000;fill-opacity:1;stroke:none"
       id="path3581"
       sodipodi:cx="249.09784"
       sodipodi:cy="250.45404"
       sodipodi:rx="5.9549775"
       sodipodi:ry="5.9549775"
       d="m 255.05282,250.45404 a 5.9549775,5.9549775 0 1 1 -11.90996,0 5.9549775,5.9549775 0 1 1 11.90996,0 z"
       transform="matrix(1.1475933,0,0,1.1475933,-149.10281,206.5763)" /><path
       sodipodi:type="arc"
       style="fill:#000000;fill-opacity:1;stroke:none"
       id="path3583"
       sodipodi:cx="201.68274"
       sodipodi:cy="258.54382"
       sodipodi:rx="6.4044099"
       sodipodi:ry="6.4044099"
       d="m 208.08715,258.54382 a 6.4044099,6.4044099 0 1 1 -12.80882,0 6.4044099,6.4044099 0 1 1 12.80882,0 z"
       transform="matrix(1.1475933,0,0,1.1475933,-148.07128,204.77112)" /><path
       style="fill:#000000;fill-opacity:1;stroke:#000000;stroke-width:1.14759326000000006px;stroke-linecap:butt;stroke-linejoin:miter;stroke-opacity:1"
       d="m 159.62171,520.46755 15.1762,23.42845 10.31531,-8.25226 -17.1168,-22.57659 c 0,0 5.13392,-6.01788 11.72986,-14.65239 6.59594,-8.63449 10.57919,-19.8663 12.4983,-23.14465 1.50661,1.18726 4.9104,4.66895 7.50635,6.88814 -1.78805,6.34533 -9.77847,18.49514 -12.79041,22.63264 5.09318,5.60895 14.16143,17.70084 14.16143,23.11638 0,10.83106 -7.35964,23.46167 -21.53701,26.39789 -26.11187,5.40794 -35.59318,-12.3158 -35.59318,-12.3158 0,0 -30.3028,6.2464 -43.7127,5.73062 -13.409905,-0.51576 -38.364172,-11.07062 -53.147538,-19.82345 1.646521,-4.00636 5.892432,-8.79394 5.892432,-8.79394 0,0 24.182018,15.10548 47.007956,18.08845 22.82594,2.98298 45.86289,-7.4825 59.6098,-16.72349 z"
       id="path3585"
       inkscape:connector-curvature="0"
       sodipodi:nodetypes="cccczcccssczcczc" /></g></svg>