<?xml version="1.0" encoding="UTF-8" standalone="no"?>
<!-- Created with Inkscape (http://www.inkscape.org/) -->

<svg
   xmlns:dc="http://purl.org/dc/elements/1.1/"
   xmlns:cc="http://creativecommons.org/ns#"
   xmlns:rdf="http://www.w3.org/1999/02/22-rdf-syntax-ns#"
   xmlns:svg="http://www.w3.org/2000/svg"
   xmlns="http://www.w3.org/2000/svg"
   xmlns:sodipodi="http://sodipodi.sourceforge.net/DTD/sodipodi-0.dtd"
   xmlns:inkscape="http://www.inkscape.org/namespaces/inkscape"
   version="1.1"
   width="48"
   height="48"
   id="svg1307"
   inkscape:version="0.48.5 r10040"
   sodipodi:docname="preferences-desktop-symbolic.svg">
  <sodipodi:namedview
     pagecolor="#ffffff"
     bordercolor="#666666"
     borderopacity="1"
     objecttolerance="10"
     gridtolerance="10"
     guidetolerance="10"
     inkscape:pageopacity="0"
     inkscape:pageshadow="2"
     inkscape:window-width="1914"
     inkscape:window-height="1031"
     id="namedview8"
     showgrid="false"
     inkscape:zoom="4.9166667"
     inkscape:cx="-48.915255"
     inkscape:cy="23.898305"
     inkscape:window-x="0"
     inkscape:window-y="25"
     inkscape:window-maximized="1"
     inkscape:current-layer="svg1307" />
  <defs
     id="defs1309" />
  <metadata
     id="metadata1312">
    <rdf:RDF>
      <cc:Work
         rdf:about="">
        <dc:format>image/svg+xml</dc:format>
        <dc:type
           rdf:resource="http://purl.org/dc/dcmitype/StillImage" />
        <dc:title />
      </cc:Work>
    </rdf:RDF>
  </metadata>
  <rect
     style="fill:#ffffff;fill-opacity:1;stroke:none"
     id="rect2985"
     width="45.35593"
     height="45.152542"
     x="1.4237288"
     y="1.2203389"
     ry="6.7118645" />
  <rect
     style="fill:none;stroke:none"
     id="rect1315"
     y="1.2203389"
     x="0.81355935"
     height="46.169495"
     width="46.169495" />
  <path
     inkscape:connector-curvature="0"
     style="fill:#000000;fill-opacity:1;fill-rule:evenodd;stroke:none"
     id="rect3938"
     d="m 8.6587664,5.0677968 c -2.2197108,0 -3.9977492,1.7780384 -3.9977492,3.9977492 l 0,30.47908 c 0,2.219711 1.7780384,3.997749 3.9977492,3.997749 l 30.4790796,0 c 2.219711,0 3.997749,-1.778038 3.997749,-3.997749 l 0,-30.47908 c 0,-2.2197108 -1.778038,-3.9977492 -3.997749,-3.9977492 l -30.4790796,0 z m 22.0026496,4.5688562 3.8174,0 0,3.156117 -3.8174,0 0,-3.156117 z m -17.343619,0.1803495 3.8174,0 0,12.5042385 -3.8174,0 0,-12.5042385 z m 14.367851,4.8694395 9.738877,0 c 1.570872,0 2.825477,1.254603 2.825477,2.825476 l 0,3.967692 c 0,1.570871 -1.254605,2.825476 -2.825477,2.825476 l -9.738877,0 c -1.570873,0 -2.825477,-1.254605 -2.825477,-2.825476 l 0,-3.967692 c 0,-1.570873 1.254604,-2.825476 2.825477,-2.825476 z m -17.313561,9.618644 9.738878,0 c 1.570873,0 2.825476,1.254604 2.825476,2.825477 l 0,3.967691 c 0,1.570872 -1.254603,2.825477 -2.825476,2.825477 l -9.738878,0 c -1.5708719,0 -2.8254764,-1.254605 -2.8254764,-2.825477 l 0,-3.967691 c 0,-1.570873 1.2546045,-2.825477 2.8254764,-2.825477 z m 20.289329,1.923729 3.8174,0 0,12.444122 -3.8174,0 0,-12.444122 z m -17.343619,9.648703 3.8174,0 0,2.945709 -3.8174,0 0,-2.945709 z" />
</svg>
