<?xml version="1.0" encoding="UTF-8" standalone="no"?>
<!-- Created with Inkscape (http://www.inkscape.org/) -->

<svg
   xmlns:dc="http://purl.org/dc/elements/1.1/"
   xmlns:cc="http://creativecommons.org/ns#"
   xmlns:rdf="http://www.w3.org/1999/02/22-rdf-syntax-ns#"
   xmlns:svg="http://www.w3.org/2000/svg"
   xmlns="http://www.w3.org/2000/svg"
   xmlns:sodipodi="http://sodipodi.sourceforge.net/DTD/sodipodi-0.dtd"
   xmlns:inkscape="http://www.inkscape.org/namespaces/inkscape"
   height="16"
   width="16"
   id="svg7384"
   version="1.1"
   inkscape:version="0.48.5 r10040"
   sodipodi:docname="preferences-system-date-and-time-symbolic.svg">
  <metadata
     id="metadata90">
    <rdf:RDF>
      <cc:Work
         rdf:about="">
        <dc:format>image/svg+xml</dc:format>
        <dc:type
           rdf:resource="http://purl.org/dc/dcmitype/StillImage" />
        <dc:title>Gnome Symbolic Icon Theme</dc:title>
      </cc:Work>
    </rdf:RDF>
  </metadata>
  <sodipodi:namedview
     guidetolerance="10"
     inkscape:window-height="1031"
     inkscape:snap-nodes="true"
     inkscape:guide-bbox="true"
     inkscape:window-width="1914"
     inkscape:zoom="16"
     inkscape:snap-global="false"
     inkscape:snap-bbox-midpoints="false"
     borderopacity="1"
     showguides="true"
     inkscape:snap-to-guides="true"
     inkscape:window-x="0"
     inkscape:window-y="25"
     inkscape:window-maximized="1"
     inkscape:object-nodes="false"
     inkscape:snap-others="false"
     objecttolerance="10"
     id="namedview88"
     showgrid="true"
     showborder="true"
     inkscape:snap-bbox="true"
     inkscape:current-layer="layer11"
     inkscape:snap-grids="true"
     inkscape:object-paths="false"
     inkscape:pageopacity="1"
     bordercolor="#666666"
     gridtolerance="10"
     inkscape:bbox-paths="false"
     inkscape:cx="16.501191"
     inkscape:cy="7.83128"
     pagecolor="#555753"
     inkscape:pageshadow="2"
     borderlayer="true">
    <inkscape:grid
       snapvisiblegridlinesonly="true"
       visible="true"
       enabled="true"
       id="grid4866"
       spacingx="1px"
       spacingy="1px"
       type="xygrid"
       empspacing="2" />
  </sodipodi:namedview>
  <title
     id="title9167">Gnome Symbolic Icon Theme</title>
  <defs
     id="defs7386" />
  <g
     inkscape:label="status"
     style="display:inline"
     transform="translate(-283.0002,-509)"
     id="layer9"
     inkscape:groupmode="layer" />
  <g
     inkscape:label="devices"
     transform="translate(-283.0002,-509)"
     id="layer10"
     inkscape:groupmode="layer" />
  <g
     inkscape:label="apps"
     transform="translate(-283.0002,-509)"
     id="layer11"
     inkscape:groupmode="layer">
    <rect
       style="fill:#ffffff;fill-opacity:1;stroke:none"
       id="rect2994"
       width="16.085176"
       height="15.8125"
       x="283.00021"
       y="509.1875"
       ry="3.5687935" />
    <path
       d="m 286.32628,510.55065 c -0.9181,0 -1.74483,0.73726 -1.74483,1.6903 l 0,9.7056 c 0,0.95304 0.82673,1.6903 1.74483,1.6903 l 9.59655,0 c 0.9181,0 1.74483,-0.73726 1.74483,-1.6903 l 0,-9.7056 c 0,-0.95304 -0.82673,-1.6903 -1.74483,-1.6903 l -9.59655,0 z m 0,4.36207 2.6445,0 0,1.74482 -2.6445,0 0,-1.74482 z m 3.51692,0 2.58998,0 0,1.74482 -2.58998,0 0,-1.74482 z m 3.46239,0 2.61724,0 0,1.74482 -2.61724,0 0,-1.74482 z m -6.97931,2.61724 2.6445,0 0,1.74482 -2.6445,0 0,-1.74482 z m 3.51692,0 2.58998,0 0,1.74482 -2.58998,0 0,-1.74482 z m 3.46239,0 2.61724,0 0,1.74482 -2.61724,0 0,-1.74482 z m -6.97931,2.61724 2.6445,0 0,1.74483 -2.6445,0 0,-1.74483 z m 3.51692,0 2.58998,0 0,1.74483 -2.58998,0 0,-1.74483 z m 3.46239,0 2.61724,0 0,1.74483 -2.61724,0 0,-1.74483 z"
       style="font-size:medium;font-style:normal;font-variant:normal;font-weight:normal;font-stretch:normal;text-indent:0;text-align:start;text-decoration:none;line-height:normal;letter-spacing:normal;word-spacing:normal;text-transform:none;direction:ltr;block-progression:tb;writing-mode:lr-tb;text-anchor:start;baseline-shift:baseline;color:#000000;fill:#000000;fill-opacity:1;stroke:none;stroke-width:2;marker:none;visibility:visible;display:inline;overflow:visible;enable-background:new;font-family:Sans;-inkscape-font-specification:Sans"
       id="rect27790"
       inkscape:connector-curvature="0" />
    <rect
       y="517.52997"
       x="293.3056"
       height="1.7448269"
       style="opacity:0.35;color:#000000;fill:#000000;fill-opacity:1;stroke:none;stroke-width:1;marker:none;visibility:visible;display:inline;overflow:visible;enable-background:accumulate"
       width="2.6172407"
       id="rect27810" />
  </g>
  <g
     inkscape:label="places"
     transform="translate(-283.0002,-509)"
     id="layer13"
     inkscape:groupmode="layer" />
  <g
     inkscape:label="mimetypes"
     transform="translate(-283.0002,-509)"
     id="layer14"
     inkscape:groupmode="layer" />
  <g
     inkscape:label="emblems"
     style="display:inline"
     transform="translate(-283.0002,-509)"
     id="layer15"
     inkscape:groupmode="layer" />
  <g
     inkscape:label="emotes"
     transform="translate(-283.0002,-509)"
     style="display:inline"
     id="g71291"
     inkscape:groupmode="layer" />
  <g
     inkscape:label="categories"
     style="display:inline"
     transform="translate(-283.0002,-509)"
     id="g4953"
     inkscape:groupmode="layer" />
  <g
     inkscape:label="actions"
     transform="translate(-283.0002,-509)"
     style="display:inline"
     id="layer12"
     inkscape:groupmode="layer" />
</svg>
