<?xml version="1.0" encoding="UTF-8" standalone="no"?>
<!-- Created with Inkscape (http://www.inkscape.org/) -->

<svg
   xmlns:dc="http://purl.org/dc/elements/1.1/"
   xmlns:cc="http://creativecommons.org/ns#"
   xmlns:rdf="http://www.w3.org/1999/02/22-rdf-syntax-ns#"
   xmlns:svg="http://www.w3.org/2000/svg"
   xmlns="http://www.w3.org/2000/svg"
   xmlns:sodipodi="http://sodipodi.sourceforge.net/DTD/sodipodi-0.dtd"
   xmlns:inkscape="http://www.inkscape.org/namespaces/inkscape"
   sodipodi:docname="preferences-system-network-proxy-symbolic.svg"
   width="16"
   inkscape:version="0.48.5 r10040"
   version="1.1"
   height="16"
   id="svg7384">
  <metadata
     id="metadata90">
    <rdf:RDF>
      <cc:Work
         rdf:about="">
        <dc:format>image/svg+xml</dc:format>
        <dc:type
           rdf:resource="http://purl.org/dc/dcmitype/StillImage" />
        <dc:title>Gnome Symbolic Icon Theme</dc:title>
      </cc:Work>
    </rdf:RDF>
  </metadata>
  <sodipodi:namedview
     inkscape:pageopacity="1"
     inkscape:snap-to-guides="true"
     borderopacity="1"
     inkscape:window-maximized="1"
     inkscape:snap-bbox="true"
     inkscape:object-nodes="false"
     inkscape:object-paths="false"
     inkscape:window-width="1914"
     pagecolor="#555753"
     gridtolerance="10"
     inkscape:pageshadow="2"
     bordercolor="#666666"
     inkscape:current-layer="layer11"
     showguides="true"
     id="namedview88"
     showborder="true"
     inkscape:bbox-paths="false"
     inkscape:snap-global="true"
     inkscape:window-x="0"
     inkscape:window-y="25"
     inkscape:snap-nodes="true"
     inkscape:guide-bbox="true"
     inkscape:snap-grids="true"
     objecttolerance="10"
     inkscape:cx="10.755268"
     inkscape:cy="4.0820325"
     inkscape:snap-others="false"
     showgrid="false"
     inkscape:snap-bbox-midpoints="false"
     guidetolerance="10"
     inkscape:zoom="31.557277"
     inkscape:window-height="1031"
     borderlayer="true">
    <inkscape:grid
       enabled="true"
       type="xygrid"
       id="grid4866"
       snapvisiblegridlinesonly="true"
       visible="true"
       empspacing="2"
       spacingx="1px"
       spacingy="1px" />
  </sodipodi:namedview>
  <title
     id="title9167">Gnome Symbolic Icon Theme</title>
  <defs
     id="defs7386" />
  <g
     inkscape:label="status"
     id="layer9"
     style="display:inline"
     inkscape:groupmode="layer"
     transform="translate(-123.00039,-529.0264)" />
  <g
     inkscape:label="devices"
     id="layer10"
     inkscape:groupmode="layer"
     transform="translate(-123.00039,-529.0264)" />
  <g
     inkscape:label="apps"
     id="layer11"
     inkscape:groupmode="layer"
     transform="translate(-123.00039,-529.0264)">
    <path
       sodipodi:nodetypes="sssssssssccscccsscc"
       d="m 127.35416,528.96335 c -1.02618,0 -1.94181,0.83962 -1.94181,1.84782 l 0,6.99934 c 0,1.0082 0.91563,1.84782 2.0151,1.84782 l 5.67892,0 c 1.09947,0 2.0151,-0.83962 2.0151,-1.84782 l 0,-6.99934 c 0,-1.0082 -0.91563,-1.84782 -2.0151,-1.84782 z m 0.21577,2.11672 5.39396,0 c 1e-5,0.33509 0,-0.33439 0,0 l 0,6.35014 0,0 -5.39396,0 c 0,0 0,0.0466 0,0 l 0,-6.35014 c 0,-0.0465 0,0 0,0 z"
       id="rect11110-4-2"
       style="font-size:medium;font-style:normal;font-variant:normal;font-weight:normal;font-stretch:normal;text-indent:0;text-align:start;text-decoration:none;line-height:normal;letter-spacing:normal;word-spacing:normal;text-transform:none;direction:ltr;block-progression:tb;writing-mode:lr-tb;text-anchor:start;color:#000000;fill:#ffffff;fill-opacity:1;stroke:none;stroke-width:2;marker:none;visibility:visible;display:inline;overflow:visible;enable-background:accumulate;font-family:Bitstream Vera Sans;-inkscape-font-specification:Bitstream Vera Sans"
       inkscape:connector-curvature="0" />
    <path
       style="fill:#ffffff;fill-opacity:1;stroke:none;display:inline"
       d="m 124.83332,539.58522 c -0.007,0.13936 -0.002,0.31554 -0.002,0.47588 l 0,1.24436 c 0,0.30526 0.16465,0.5317 0.36765,0.53734 l 1.74175,0.0484 c -0.46529,0.33249 -0.81105,0.66405 -1.02673,0.89343 -0.41975,0.36412 -0.33596,0.54964 -0.12112,0.83983 l 0.67875,0.87671 c 0.42593,0.62753 0.47722,0.59577 1.00047,0.22353 1.03018,-0.75667 1.88099,-1.32985 2.83761,-2.02573 0.93997,0.68276 1.77995,1.25865 2.79928,2.01031 0.55578,0.34838 0.49785,0.32616 0.88537,-0.20811 l 0.67875,-0.90499 c 0.17155,-0.22339 0.2372,-0.46543 0.1414,-0.53734 0,0 -0.73289,-0.58281 -1.55156,-1.16765 l 2.00406,-0.0484 c 0.2029,-0.005 0.36765,-0.23208 0.36765,-0.53734 0.0189,-1.07378 0.14634,-2.10334 -0.92438,-2.11858 -1.82328,0.0264 -7.76376,0.12286 -9.40163,0.14499 -0.47697,-0.0309 -0.46933,0.15394 -0.47513,0.25335 z"
       id="path11106-9-9"
       inkscape:connector-curvature="0"
       sodipodi:nodetypes="cssscccccccccccscccc" />
    <path
       sodipodi:nodetypes="ccssssssssccc"
       d="m 128.8667,537.63763 0,2.14134 -3.24977,0 c -0.18699,0 -0.3333,0.18551 -0.3333,0.42268 l 0,0.95792 c 0,0.23708 0.14631,0.42268 0.3333,0.42268 3.0961,0 6.19218,0 9.28828,0 0.18701,0 0.33332,-0.1856 0.33332,-0.42268 l 0,-0.95792 c 0,-0.23708 -0.14631,-0.42268 -0.33332,-0.42268 l -3.30772,0 0,-2.14134 z"
       id="path11106-5"
       style="fill:#000000;fill-opacity:1;stroke:none;display:inline"
       inkscape:connector-curvature="0" />
    <path
       d="m 137.65289,531.88074 c 0.0787,-4.7e-4 0.14248,0.31192 0.14508,0.71226 l 0.0107,1.61635 c 0.003,0.40011 -0.0569,0.71365 -0.13569,0.71416 -1.3041,0.01 -2.60823,0.0181 -3.91232,0.0269 -0.0787,4.8e-4 -0.14247,-0.31207 -0.14511,-0.71223 l -0.0107,-1.61636 c -0.003,-0.4001 0.0569,-0.71363 0.13568,-0.71416 0,0 3.89046,0.0677 3.91234,-0.0269 z"
       id="path11106-9-7-0-9"
       style="fill:#ffffff;fill-opacity:1;stroke:none;display:inline"
       inkscape:connector-curvature="0" />
    <path
       sodipodi:nodetypes="sssssssssccscccsscc"
       d="m 127.81759,529.82339 c -0.86086,0 -1.62897,0.71796 -1.62897,1.58005 l 0,5.98506 c 0,0.8621 0.76811,1.58006 1.69045,1.58006 l 4.76402,0 c 0.92234,0 1.69045,-0.71796 1.69045,-1.58006 l 0,-5.98506 c 0,-0.86209 -0.76811,-1.58005 -1.69045,-1.58005 z m 0.18101,1.80998 4.52495,0 c 1e-5,0.28653 0,-0.28593 0,0 l 0,5.42995 0,0 -4.52495,0 c 0,0 0,0.0398 0,0 l 0,-5.42995 c 0,-0.0397 0,0 0,0 z"
       id="rect11110-4"
       style="font-size:medium;font-style:normal;font-variant:normal;font-weight:normal;font-stretch:normal;text-indent:0;text-align:start;text-decoration:none;line-height:normal;letter-spacing:normal;word-spacing:normal;text-transform:none;direction:ltr;block-progression:tb;writing-mode:lr-tb;text-anchor:start;color:#000000;fill:#000000;fill-opacity:1;stroke:none;stroke-width:2;marker:none;visibility:visible;display:inline;overflow:visible;enable-background:accumulate;font-family:Bitstream Vera Sans;-inkscape-font-specification:Bitstream Vera Sans"
       inkscape:connector-curvature="0" />
    <rect
       y="532.18518"
       x="128.46638"
       width="3.4414401"
       id="rect11880-7-8"
       height="1.5530877"
       style="color:#000000;fill:#ffffff;fill-opacity:1;stroke:none;stroke-width:2;marker:none;visibility:visible;display:inline;overflow:visible;enable-background:accumulate" />
    <rect
       y="532.51245"
       x="128.90361"
       width="2.7149634"
       id="rect11880-7"
       height="0.90697604"
       style="color:#000000;fill:#000000;fill-opacity:1;stroke:none;stroke-width:2;marker:none;visibility:visible;display:inline;overflow:visible;enable-background:accumulate" />
    <rect
       y="534.14441"
       x="130.51849"
       width="1.2432737"
       id="rect11882-6-0"
       height="1.2459985"
       style="color:#000000;fill:#ffffff;fill-opacity:1;stroke:none;stroke-width:2;marker:none;visibility:visible;display:inline;overflow:visible;enable-background:accumulate" />
    <rect
       y="534.32642"
       x="130.71358"
       width="0.90499276"
       id="rect11882-6"
       height="0.90697604"
       style="color:#000000;fill:#000000;fill-opacity:1;stroke:none;stroke-width:2;marker:none;visibility:visible;display:inline;overflow:visible;enable-background:accumulate" />
    <path
       d="m 132.73074,532.53836 c 0.0634,0 0,0.18894 0,0.43061 l 0,0.97582 c 0,0.24157 0.0634,0.43061 0.14458,0.43061 1.34287,0 2.68575,0 4.02863,0 0.0811,0 0.14456,-0.18904 0.14456,-0.43061 l 0,-0.97582 c 0,-0.24157 -0.0634,-0.43061 -0.14456,-0.43061 -0.14459,0 -4.15002,0.0571 -4.17321,0 z"
       id="path11106-9"
       style="fill:#000000;fill-opacity:1;stroke:none;display:inline"
       inkscape:connector-curvature="0" />
    <path
       d="m 129.7845,540.34319 c 0.0717,-0.0538 0.22821,0.0348 0.35663,0.20202 l 0.51858,0.67522 c 0.12836,0.16714 0.1727,0.34007 0.10101,0.39387 -1.18721,0.89105 -2.37443,1.78212 -3.56165,2.67318 -0.0717,0.0538 -0.22826,-0.0348 -0.35663,-0.20202 l -0.51858,-0.67522 c -0.12836,-0.16715 -0.1727,-0.34007 -0.10102,-0.39387 0,0 3.57153,-2.61828 3.56166,-2.67318 z"
       id="path11106-9-7-0"
       style="fill:#000000;fill-opacity:1;stroke:none;display:inline"
       inkscape:connector-curvature="0" />
    <path
       d="m 130.73765,540.34319 c -0.0717,-0.0538 -0.22821,0.0348 -0.35663,0.20202 l -0.51857,0.67522 c -0.12837,0.16714 -0.1727,0.34007 -0.10102,0.39387 1.18721,0.89105 2.37444,1.78212 3.56166,2.67318 0.0717,0.0538 0.22825,-0.0348 0.35663,-0.20202 l 0.51857,-0.67522 c 0.12837,-0.16715 0.1727,-0.34007 0.10102,-0.39387 0,0 -3.57153,-2.61828 -3.56166,-2.67318 z"
       id="path3761-5"
       style="fill:#000000;fill-opacity:1;stroke:none;display:inline"
       inkscape:connector-curvature="0" />
  </g>
  <g
     inkscape:label="places"
     id="layer13"
     inkscape:groupmode="layer"
     transform="translate(-123.00039,-529.0264)" />
  <g
     inkscape:label="mimetypes"
     id="layer14"
     inkscape:groupmode="layer"
     transform="translate(-123.00039,-529.0264)" />
  <g
     inkscape:label="emblems"
     id="layer15"
     style="display:inline"
     inkscape:groupmode="layer"
     transform="translate(-123.00039,-529.0264)" />
  <g
     inkscape:label="emotes"
     id="g71291"
     style="display:inline"
     inkscape:groupmode="layer"
     transform="translate(-123.00039,-529.0264)" />
  <g
     inkscape:label="categories"
     id="g4953"
     style="display:inline"
     inkscape:groupmode="layer"
     transform="translate(-123.00039,-529.0264)" />
  <g
     inkscape:label="actions"
     id="layer12"
     style="display:inline"
     inkscape:groupmode="layer"
     transform="translate(-123.00039,-529.0264)" />
</svg>
