<?xml version="1.0" encoding="UTF-8" standalone="no"?>
<!-- Creator: CorelDRAW -->

<svg
   xmlns:dc="http://purl.org/dc/elements/1.1/"
   xmlns:cc="http://creativecommons.org/ns#"
   xmlns:rdf="http://www.w3.org/1999/02/22-rdf-syntax-ns#"
   xmlns:svg="http://www.w3.org/2000/svg"
   xmlns="http://www.w3.org/2000/svg"
   xmlns:xlink="http://www.w3.org/1999/xlink"
   xmlns:sodipodi="http://sodipodi.sourceforge.net/DTD/sodipodi-0.dtd"
   xmlns:inkscape="http://www.inkscape.org/namespaces/inkscape"
   xml:space="preserve"
   width="300px"
   height="300px"
   style="shape-rendering:geometricPrecision; text-rendering:geometricPrecision; image-rendering:optimizeQuality; fill-rule:evenodd; clip-rule:evenodd"
   viewBox="0 0 300 300"
   id="svg2"
   version="1.1"
   inkscape:version="0.48.5 r10040"
   sodipodi:docname="simulaciones.svg"><metadata
     id="metadata55"><rdf:RDF><cc:Work
         rdf:about=""><dc:format>image/svg+xml</dc:format><dc:type
           rdf:resource="http://purl.org/dc/dcmitype/StillImage" /><dc:title /></cc:Work></rdf:RDF></metadata><sodipodi:namedview
     pagecolor="#020202"
     bordercolor="#666666"
     borderopacity="1"
     objecttolerance="10"
     gridtolerance="10"
     guidetolerance="10"
     inkscape:pageopacity="0.53333333"
     inkscape:pageshadow="2"
     inkscape:window-width="1918"
     inkscape:window-height="1037"
     id="namedview53"
     showgrid="false"
     inkscape:zoom="1.5733333"
     inkscape:cx="328.3764"
     inkscape:cy="93.528853"
     inkscape:window-x="0"
     inkscape:window-y="26"
     inkscape:window-maximized="1"
     inkscape:current-layer="layer2" /><defs
     id="defs4"><style
       type="text/css"
       id="style6">
    .str0 {stroke:#1F1A17;stroke-width:1.35089}
    .fil0 {fill:url(#id0)}
    .fil3 {fill:url(#id1)}
    .fil2 {fill:url(#id2)}
    .fil1 {fill:url(#id3);fill-rule:nonzero}
   </style><linearGradient
       id="id0"
       gradientUnits="userSpaceOnUse"
       x1="39.5025"
       y1="255.343"
       x2="259.255"
       y2="27.4524"><stop
         offset="0"
         style="stop-color:#1E1916"
         id="stop9" /><stop
         offset="0.45098"
         style="stop-color:white"
         id="stop11" /><stop
         offset="0.639216"
         style="stop-color:#DEDEDD"
         id="stop13" /><stop
         offset="1"
         style="stop-color:#C2C1C1"
         id="stop15" /></linearGradient><linearGradient
       id="id1"
       gradientUnits="userSpaceOnUse"
       x1="56.4896"
       y1="297.578"
       x2="224.161"
       y2="1.95713"><stop
         offset="0"
         style="stop-color:#1E1916"
         id="stop18" /><stop
         offset="0.470588"
         style="stop-color:#DEDEDD"
         id="stop20" /><stop
         offset="0.639216"
         style="stop-color:#DEDEDD"
         id="stop22" /><stop
         offset="1"
         style="stop-color:#1F1A17"
         id="stop24" /></linearGradient><linearGradient
       id="id2"
       gradientUnits="userSpaceOnUse"
       x1="227.044"
       y1="148.83"
       x2="56.7305"
       y2="148.83"><stop
         offset="0"
         style="stop-color:#1E1916"
         id="stop27" /><stop
         offset="0.470588"
         style="stop-color:white"
         id="stop29" /><stop
         offset="0.639216"
         style="stop-color:#DEDEDD"
         id="stop31" /><stop
         offset="1"
         style="stop-color:#1F1A17"
         id="stop33" /></linearGradient><linearGradient
       id="id3"
       gradientUnits="userSpaceOnUse"
       x1="36.5917"
       y1="131.315"
       x2="259.668"
       y2="154.047"><stop
         offset="0"
         style="stop-color:#1E1916"
         id="stop36" /><stop
         offset="0.501961"
         style="stop-color:white"
         id="stop38" /><stop
         offset="0.580392"
         style="stop-color:#DEDEDD"
         id="stop40" /><stop
         offset="1"
         style="stop-color:#1F1A17"
         id="stop42" /></linearGradient><linearGradient
       id="id0-8"
       gradientUnits="userSpaceOnUse"
       x1="39.502499"
       y1="255.343"
       x2="259.255"
       y2="27.4524"><stop
         offset="0"
         style="stop-color:#1E1916"
         id="stop9-6" /><stop
         offset="0.45098"
         style="stop-color:white"
         id="stop11-7" /><stop
         offset="0.639216"
         style="stop-color:#DEDEDD"
         id="stop13-7" /><stop
         offset="1"
         style="stop-color:#C2C1C1"
         id="stop15-9" /></linearGradient><linearGradient
       id="id3-7"
       gradientUnits="userSpaceOnUse"
       x1="36.591702"
       y1="131.315"
       x2="259.668"
       y2="154.047"><stop
         offset="0"
         style="stop-color:#1E1916"
         id="stop36-8" /><stop
         offset="0.501961"
         style="stop-color:white"
         id="stop38-2" /><stop
         offset="0.580392"
         style="stop-color:#DEDEDD"
         id="stop40-6" /><stop
         offset="1"
         style="stop-color:#1F1A17"
         id="stop42-7" /></linearGradient><linearGradient
       id="id2-3"
       gradientUnits="userSpaceOnUse"
       x1="227.04401"
       y1="148.83"
       x2="56.730499"
       y2="148.83"><stop
         offset="0"
         style="stop-color:#1E1916"
         id="stop27-1" /><stop
         offset="0.470588"
         style="stop-color:white"
         id="stop29-2" /><stop
         offset="0.639216"
         style="stop-color:#DEDEDD"
         id="stop31-9" /><stop
         offset="1"
         style="stop-color:#1F1A17"
         id="stop33-0" /></linearGradient><linearGradient
       id="id1-8"
       gradientUnits="userSpaceOnUse"
       x1="56.489601"
       y1="297.578"
       x2="224.161"
       y2="1.95713"><stop
         offset="0"
         style="stop-color:#1E1916"
         id="stop18-4" /><stop
         offset="0.470588"
         style="stop-color:#DEDEDD"
         id="stop20-8" /><stop
         offset="0.639216"
         style="stop-color:#DEDEDD"
         id="stop22-2" /><stop
         offset="1"
         style="stop-color:#1F1A17"
         id="stop24-3" /></linearGradient><linearGradient
       inkscape:collect="always"
       xlink:href="#id0"
       id="linearGradient3132"
       gradientUnits="userSpaceOnUse"
       x1="39.5025"
       y1="255.343"
       x2="259.255"
       y2="27.4524" /><linearGradient
       inkscape:collect="always"
       xlink:href="#id3"
       id="linearGradient3134"
       gradientUnits="userSpaceOnUse"
       x1="36.5917"
       y1="131.315"
       x2="259.668"
       y2="154.047" /><linearGradient
       inkscape:collect="always"
       xlink:href="#id2"
       id="linearGradient3136"
       gradientUnits="userSpaceOnUse"
       x1="227.044"
       y1="148.83"
       x2="56.7305"
       y2="148.83" /><linearGradient
       inkscape:collect="always"
       xlink:href="#id1"
       id="linearGradient3138"
       gradientUnits="userSpaceOnUse"
       x1="56.4896"
       y1="297.578"
       x2="224.161"
       y2="1.95713" /><linearGradient
       inkscape:collect="always"
       xlink:href="#id0-7"
       id="linearGradient3132-8"
       gradientUnits="userSpaceOnUse"
       x1="39.502499"
       y1="255.343"
       x2="259.255"
       y2="27.4524" /><linearGradient
       id="id0-7"
       gradientUnits="userSpaceOnUse"
       x1="39.502499"
       y1="255.343"
       x2="259.255"
       y2="27.4524"><stop
         offset="0"
         style="stop-color:#1E1916"
         id="stop9-0" /><stop
         offset="0.45098"
         style="stop-color:white"
         id="stop11-4" /><stop
         offset="0.639216"
         style="stop-color:#DEDEDD"
         id="stop13-9" /><stop
         offset="1"
         style="stop-color:#C2C1C1"
         id="stop15-4" /></linearGradient><linearGradient
       inkscape:collect="always"
       xlink:href="#id3-3"
       id="linearGradient3134-5"
       gradientUnits="userSpaceOnUse"
       x1="36.591702"
       y1="131.315"
       x2="259.668"
       y2="154.047" /><linearGradient
       id="id3-3"
       gradientUnits="userSpaceOnUse"
       x1="36.591702"
       y1="131.315"
       x2="259.668"
       y2="154.047"><stop
         offset="0"
         style="stop-color:#1E1916"
         id="stop36-0" /><stop
         offset="0.501961"
         style="stop-color:white"
         id="stop38-29" /><stop
         offset="0.580392"
         style="stop-color:#DEDEDD"
         id="stop40-0" /><stop
         offset="1"
         style="stop-color:#1F1A17"
         id="stop42-8" /></linearGradient><linearGradient
       inkscape:collect="always"
       xlink:href="#id2-9"
       id="linearGradient3136-8"
       gradientUnits="userSpaceOnUse"
       x1="227.04401"
       y1="148.83"
       x2="56.730499"
       y2="148.83" /><linearGradient
       id="id2-9"
       gradientUnits="userSpaceOnUse"
       x1="227.04401"
       y1="148.83"
       x2="56.730499"
       y2="148.83"><stop
         offset="0"
         style="stop-color:#1E1916"
         id="stop27-9" /><stop
         offset="0.470588"
         style="stop-color:white"
         id="stop29-5" /><stop
         offset="0.639216"
         style="stop-color:#DEDEDD"
         id="stop31-7" /><stop
         offset="1"
         style="stop-color:#1F1A17"
         id="stop33-3" /></linearGradient><linearGradient
       inkscape:collect="always"
       xlink:href="#id1-4"
       id="linearGradient3138-3"
       gradientUnits="userSpaceOnUse"
       x1="56.489601"
       y1="297.578"
       x2="224.161"
       y2="1.95713" /><linearGradient
       id="id1-4"
       gradientUnits="userSpaceOnUse"
       x1="56.489601"
       y1="297.578"
       x2="224.161"
       y2="1.95713"><stop
         offset="0"
         style="stop-color:#1E1916"
         id="stop18-6" /><stop
         offset="0.470588"
         style="stop-color:#DEDEDD"
         id="stop20-7" /><stop
         offset="0.639216"
         style="stop-color:#DEDEDD"
         id="stop22-8" /><stop
         offset="1"
         style="stop-color:#1F1A17"
         id="stop24-7" /></linearGradient><linearGradient
       inkscape:collect="always"
       xlink:href="#id0-7"
       id="linearGradient3258"
       gradientUnits="userSpaceOnUse"
       x1="39.502499"
       y1="255.343"
       x2="259.255"
       y2="27.4524" /><linearGradient
       inkscape:collect="always"
       xlink:href="#id3-3"
       id="linearGradient3260"
       gradientUnits="userSpaceOnUse"
       x1="36.591702"
       y1="131.315"
       x2="259.668"
       y2="154.047" /><linearGradient
       inkscape:collect="always"
       xlink:href="#id2-9"
       id="linearGradient3262"
       gradientUnits="userSpaceOnUse"
       x1="227.04401"
       y1="148.83"
       x2="56.730499"
       y2="148.83" /><linearGradient
       inkscape:collect="always"
       xlink:href="#id1-4"
       id="linearGradient3264"
       gradientUnits="userSpaceOnUse"
       x1="56.489601"
       y1="297.578"
       x2="224.161"
       y2="1.95713" /><linearGradient
       inkscape:collect="always"
       xlink:href="#id3-3"
       id="linearGradient3270"
       gradientUnits="userSpaceOnUse"
       x1="36.591702"
       y1="131.315"
       x2="259.668"
       y2="154.047"
       gradientTransform="translate(8.2483629,0.86803174)" /><linearGradient
       inkscape:collect="always"
       xlink:href="#id0-7"
       id="linearGradient3273"
       gradientUnits="userSpaceOnUse"
       x1="39.502499"
       y1="255.343"
       x2="259.255"
       y2="27.4524"
       gradientTransform="translate(8.2483629,0.86803174)" /></defs><g
     inkscape:groupmode="layer"
     id="layer1"
     inkscape:label="Capa"
     style="display:none"
     sodipodi:insensitive="true"><g
       transform="translate(8.2483632,1.5036207)"
       style="fill-rule:evenodd"
       id="Capa_x0020_1"><metadata
         id="CorelCorpID_0Corel-Layer" /><g
         id="_79832464"><path
           inkscape:connector-curvature="0"
           id="_79321648"
           class="fil0 str0"
           d="m 153.217,48.6403 -10.2355,0 c -4.3378,0 -6.6714,-18.5512 -9.59602,-18.5512 -6.2534,0 -11.5974,1.32459 -15.4716,3.84782 l 0.75849,12.1456 0,5.75651 c 0,2.52046 -9.31367,6.39735 -11.5144,6.39735 -2.76545,0 -12.906798,-13.4342 -14.713098,-13.4342 -2.74607,0 -12.7933,6.84995 -12.7933,8.95657 0,2.30869 5.62363,12.6231 6.82227,15.6169 1.65678,4.13848 -5.39664,10.1206 -8.78078,11.9781 l -17.2322,-7.76485 c -4.92051,2.60351 -7.15169,8.33787 -9.59602,13.4342 2.17305,2.50108 14.0722,12.0224 14.0722,14.0736 l 0,0.63946 c 0,3.30248 -3.29695,11.1421 -6.40704,11.5047 -4.51219,0.52458 -12.9649,0.01 -17.9007,0.01 -1.73982,3.28726 -3.19867,9.03546 -3.19867,14.0736 0,5.34681 19.1907,4.29489 19.1907,11.5144 l 0,8.95657 c 0,4.30319 -18.5512,6.37382 -18.5512,10.2341 0,6.31154 1.30245,10.9262 3.84782,14.828 l 10.8653,-0.75296 7.03681,0 c 2.45264,0 6.39735,9.47976 6.39735,11.5144 0,3.39799 -13.4342,11.8355 -13.4342,15.3525 0,1.98204 6.85411,12.1539 8.95657,12.1539 2.89279,0 15.801,-7.67627 17.2723,-7.67627 1.63325,0 9.59464,7.45619 9.59464,8.95657 l 0,1.27892 c 0,1.7772 -5.97935,14.6342 -7.03681,16.6314 1.62079,3.06303 9.01608,8.95657 13.4342,8.95657 2.59797,0 10.772498,-13.4342 14.073598,-13.4342 l 0.63946,0 c 3.3966,0 11.5144,3.28587 11.5144,7.03681 l 0.1481,8.33233 -0.78756,8.3005 c 3.62775,2.42911 9.39394,3.83813 15.3525,3.83813 3.07964,0 5.56965,-19.1907 9.59602,-19.1907 l 10.2355,0 c 3.7537,0 7.28872,18.5512 9.59602,18.5512 6.2534,0 11.5974,-1.32459 15.4716,-3.84782 l -0.75849,-12.1456 0,-5.75651 c 0,-2.52046 9.31367,-6.39735 11.5144,-6.39735 2.76545,0 12.9068,13.4342 14.7131,13.4342 2.81666,0 12.7933,-6.75307 12.7933,-8.95657 0,-2.81389 -7.67627,-16.093 -7.67627,-17.2723 0,-2.24641 7.6735,-9.21816 9.63201,-10.3185 l 17.2349,7.7607 c 3.06303,-1.62079 8.95657,-9.01608 8.95657,-13.4342 0,-2.4997 -13.4328,-11.0549 -13.4328,-14.0736 l 0,-0.63946 c 0,-3.30248 3.29695,-11.1421 6.40704,-11.5047 4.51219,-0.52457 12.9649,-0.01 18.5014,0.10658 l 2.59797,-15.4702 c -4.65476,-3.11563 -19.192,-4.70874 -19.192,-10.2341 l 0,-8.95657 c 0,-4.30319 18.5526,-6.37382 18.5526,-10.2341 l 0,-0.64084 c 0,-5.69007 -1.52944,-10.6244 -3.84644,-14.1954 l -13.4259,0.76126 -4.47759,0 c -2.45264,0 -6.39735,-9.47976 -6.39735,-11.514402 0,-2.97583 13.4342,-12.6175 13.4342,-14.7131 0,-2.81666 -6.75168,-12.7933 -8.95657,-12.7933 -3.08241,0 -15.4162,7.67627 -17.2723,7.67627 -1.63325,0 -9.59464,-7.45619 -9.59464,-8.95657 l 0,-1.27892 c 0,-3.25127 7.03542,-14.7131 7.03542,-17.2723 0,-1.62771 -10.3988,-8.31572 -13.4328,-8.31572 -2.59797,0 -10.7725,13.4328 -14.0736,13.4328 -3.56685,0 -11.5476,-3.13362 -12.068,-5.84232 -0.6187,-3.22497 -0.0858,-14.4238 -0.0858,-18.4654 -2.32669,-1.23047 -9.97389,-3.19867 -13.4342,-3.19867 -5.97243,0 -5.81879,19.1907 -10.8749,19.1907 z m -79.0631,92.7519 c 0,39.8582 35.0885,76.7018 75.2014,75.2609 41.371,-1.48515 75.2484,-33.1826 75.2484,-75.2609 0,-39.1993 -34.0671,-75.2249 -72.0899,-75.2249 -43.5247,0 -78.3599,32.575 -78.3599,75.2249 z"
           style="fill:url(#linearGradient3132);stroke:#1f1a17;stroke-width:1.35089004" /><path
           inkscape:connector-curvature="0"
           id="_79427320"
           class="fil1"
           d="m 103.31,85.5102 c -0.74327,0.584094 -1.35366,1.07684 -1.83533,1.48238 -14.075,11.8881 -22.763,29.3279 -25.0759,47.4459 -2.30869,18.0806 1.73982,36.8034 13.1241,51.3103 l 0.0083,-0.007 c 0.543955,0.69482 1.00348,1.26369 1.37442,1.70384 13.0978,15.5076 30.9487,24.9181 49.5359,27.159 18.05019,2.17443 36.8048,-2.43049 52.5671,-14.8017 14.929,-11.7165 24.1472,-29.4815 26.77,-47.9358 2.60489,-18.3076 -1.28722,-37.2574 -12.5386,-51.5954 -13.084,-16.668801 -31.1009,-26.743701 -49.8985,-29.398501 -18.5678,-2.62427 -37.9177,1.99035 -54.0314,14.6369 z m -5.15304,-2.44987 c 0.764028,-0.646379 1.42148,-1.18341 1.96405,-1.6111 17.2654,-13.549 38.0145,-18.4903 57.936,-15.675 20.0903,2.83881 39.3184,13.5684 53.2439,31.3113 12.1525,15.484 16.3671,35.8636 13.5767,55.4958 -2.8042,19.7194 -12.6798,38.7246 -28.6815,51.2826 -16.8972,13.2611 -37.0083,18.1969 -56.372,15.8633 -19.837,-2.38759 -38.8824,-12.4251 -52.8522,-28.9652 -0.610392,-0.72389 -1.11144,-1.33428 -1.50176,-1.83256 l 0.0069,-0.007 c -12.2812,-15.6473 -16.6577,-35.7626 -14.1843,-55.1415 2.47063,-19.3374 11.7746,-37.977201 26.8642,-50.720701 z"
           style="fill:url(#linearGradient3134);fill-rule:nonzero" /><g
           id="g49"><path
             inkscape:connector-curvature="0"
             id="_79696504"
             class="fil2"
             d="m 227.044,3.95855 -98.6454,96.053 37.5218,0.4097 -63.6178,82.4624 26.7451,0.99102 -14.7989,22.4738 c 7.10186,4.16478 14.9082,6.68248 23.2143,8.03752 l 40.3177,-39.6104 -36.2858,-1.36473 69.9058,-91.758102 -33.1895,-0.1481 48.8327,-77.5461 z m -134.369,235.156 -35.9439,54.5879 63.6676,-62.5506 c -3.39383,-3.84505 -8.1261,-5.51567 -12.5705,-5.01324 l -10.3504,11.6846 c -1.03947,0.42354 -1.88239,2.51493 -4.80286,1.29137 z"
             style="fill:url(#linearGradient3136)" /><path
             inkscape:connector-curvature="0"
             id="_79675008"
             class="fil3"
             d="m 226.489,3.27757 -106.647,97.9824 39.5634,0.43046 -67.0794,86.9483 28.1998,1.045 -9.2237,14.8127 c 7.142,4.80147 15.0729,7.76208 23.5603,9.42301 l 36.3882,-37.1259 -37.6007,-0.12042 71.73,-93.452199 -33.674,0.502431 54.783,-80.4458 z m -136.012,234.662 -36.3149,58.318 65.0213,-66.3403 c -3.25681,-2.96338 -7.42021,-4.2243 -11.3552,-3.77862 l -10.3504,11.6846 c -1.1668,0.47475 -2.08585,3.05196 -5.97381,0.68237 l -1.02701,-0.5661 z"
             style="fill:url(#linearGradient3138)" /></g></g></g></g><g
     inkscape:groupmode="layer"
     id="layer2"
     inkscape:label="Capa#1"><path
       style="fill:#ffffff;stroke:none"
       d="m 59.110171,50.847452 -27.966103,32.415255 8.898306,10.805085 -13.347458,0.635593 -4.449153,45.127125 9.533899,3.81355 -7.627119,9.5339 9.533898,37.5 8.262712,0 -4.449152,12.07628 23.516949,33.05084 8.262712,-3.81356 -3.177966,12.07628 12.076272,10.16949 -22.881357,45.12712 32.415255,0.63559 31.144064,-31.14407 38.1356,5.08475 5.08474,-9.5339 6.99153,12.07627 41.31356,-8.8983 0,-9.5339 12.07627,3.81356 26.69492,-22.88136 0.63559,-7.62712 12.71187,0 16.52542,-34.95763 -7.62712,-7.62712 13.34746,-1.27118 6.99152,-40.67797 -8.26271,-5.72034 10.16949,-6.35593 -8.26271,-40.677968 -9.5339,-1.906779 3.17797,-12.711865 -21.61017,-30.508475 -12.71186,3.813559 2.54237,-10.805085 -13.98305,-13.983051 2.54237,-26.6949159 -24.15255,0 -25.42372,17.7966109 -26.69492,-5.720339 -3.81356,3.813559 -6.35593,-6.355932 -38.13559,6.991525 -0.6356,13.347458 -12.076269,-8.898305 -27.966102,19.70339 0,13.983051 z"
       id="path4068"
       inkscape:connector-curvature="0"
       sodipodi:nodetypes="ccccccccccccccccccccccccccccccccccccccccccccccccccc" /><path
       style="fill:#000000;fill-rule:evenodd;stroke:#000000;stroke-width:11.75099999999999945;stroke-miterlimit:4;stroke-dasharray:none;stroke-opacity:1"
       d="M 172.34375 30.3125 C 166.37132 30.3125 166.52486 49.5 161.46875 49.5 L 151.21875 49.5 C 146.88095 49.5 144.54962 30.96875 141.625 30.96875 C 135.3716 30.96875 130.03045 32.28927 126.15625 34.8125 L 126.90625 46.9375 L 126.90625 52.71875 C 126.90625 55.23921 117.60698 59.09375 115.40625 59.09375 C 112.6408 59.09375 102.4938 45.65625 100.6875 45.65625 C 97.941435 45.65625 87.90625 52.51838 87.90625 54.625 C 87.90625 56.93369 93.52011 67.2562 94.71875 70.25 C 96.37553 74.38848 89.32164 80.36125 85.9375 82.21875 L 68.71875 74.46875 C 63.79824 77.07226 61.56933 82.80992 59.125 87.90625 C 61.29805 90.40733 73.1875 99.917552 73.1875 101.96875 L 73.1875 102.59375 C 73.1875 105.89623 69.89134 113.73115 66.78125 114.09375 C 62.26906 114.61833 53.8108 114.125 48.875 114.125 C 47.13518 117.41226 45.6875 123.14936 45.6875 128.1875 C 45.6875 133.53431 64.875 132.49924 64.875 139.71875 L 64.875 148.65625 C 64.875 152.95944 46.3125 155.04597 46.3125 158.90625 C 46.3125 165.21779 47.61088 169.81695 50.15625 173.71875 L 61.03125 172.96875 L 68.0625 172.96875 C 70.51514 172.96875 74.46875 182.46536 74.46875 184.5 C 74.46875 187.89799 61.03125 196.32675 61.03125 199.84375 C 61.03125 201.82579 67.89754 212 70 212 C 72.89279 212 85.7787 204.3125 87.25 204.3125 C 88.88325 204.3125 96.84375 211.78087 96.84375 213.28125 L 96.84375 214.5625 C 96.84375 216.3397 90.86996 229.1903 89.8125 231.1875 C 91.43329 234.25053 98.831885 240.125 103.25 240.125 C 105.84797 240.125 114.0114 226.71875 117.3125 226.71875 L 117.96875 226.71875 C 121.36535 226.71875 129.46875 229.99906 129.46875 233.75 L 129.625 242.0625 L 128.84375 250.375 C 132.4715 252.80411 138.22894 254.21875 144.1875 254.21875 C 147.26714 254.21875 149.75488 235.03125 153.78125 235.03125 L 164.03125 235.03125 C 167.78495 235.03125 171.3177 253.5625 173.625 253.5625 C 179.8784 253.5625 185.21955 252.24198 189.09375 249.71875 L 188.34375 237.59375 L 188.34375 231.8125 C 188.34375 229.29204 197.64302 225.4375 199.84375 225.4375 C 202.6092 225.4375 212.7562 238.875 214.5625 238.875 C 217.37916 238.875 227.34375 232.10975 227.34375 229.90625 C 227.34375 227.09236 219.6875 213.8043 219.6875 212.625 C 219.6875 210.37859 227.35399 203.41284 229.3125 202.3125 L 246.53125 210.0625 C 249.59428 208.44171 255.5 201.07437 255.5 196.65625 C 255.5 194.15655 242.0625 185.5812 242.0625 182.5625 L 242.0625 181.9375 C 242.0625 178.63502 245.35866 170.8001 248.46875 170.4375 C 252.98094 169.91293 261.43225 170.41467 266.96875 170.53125 L 269.5625 155.0625 C 264.90774 151.94687 250.375 150.33786 250.375 144.8125 L 250.375 135.875 C 250.375 131.57181 268.9375 129.48528 268.9375 125.625 L 268.9375 125 C 268.9375 119.30993 267.41075 114.3835 265.09375 110.8125 L 251.65625 111.5625 L 247.1875 111.5625 C 244.73486 111.5625 240.78125 102.06589 240.78125 100.03125 C 240.78125 97.05542 254.21875 87.43935 254.21875 85.34375 C 254.21875 82.52709 247.48614 72.53125 245.28125 72.53125 C 242.19884 72.53125 229.8561 80.21875 228 80.21875 C 226.36675 80.21875 218.40625 72.75038 218.40625 71.25 L 218.40625 69.96875 C 218.40625 66.71748 225.4375 55.27795 225.4375 52.71875 C 225.4375 51.09104 215.034 44.40625 212 44.40625 C 209.40203 44.40625 201.2386 57.8125 197.9375 57.8125 C 194.37065 57.8125 186.3954 54.67745 185.875 51.96875 C 185.2563 48.74378 185.78125 37.57285 185.78125 33.53125 C 183.45456 32.30078 175.80406 30.3125 172.34375 30.3125 z M 155.09375 71.03125 C 158.60372 71.009089 162.11229 71.257949 165.59375 71.75 C 184.39135 74.4048 202.416 84.456201 215.5 101.125 C 226.75138 115.463 230.63614 134.4424 228.03125 152.75 C 225.40845 171.2043 216.179 188.93975 201.25 200.65625 C 185.4877 213.02746 166.73769 217.64318 148.6875 215.46875 C 130.1003 213.22785 112.25405 203.8201 99.15625 188.3125 C 98.78531 187.87235 98.325205 187.31982 97.78125 186.625 C 86.39697 172.1181 82.34756 153.3931 84.65625 135.3125 C 86.96915 117.1945 95.643753 99.7631 109.71875 87.875 C 110.20042 87.46946 110.81923 86.959094 111.5625 86.375 C 124.65488 76.099678 139.8839 71.127283 155.09375 71.03125 z "
       id="_79321648-8" /><path
       style="fill:#000000;fill-rule:evenodd"
       d="m 227.12287,3.688976 -29.36175,26.971038 6.1973,7.032896 z"
       id="path4075"
       inkscape:connector-curvature="0" /><path
       style="fill:#000000;fill-rule:evenodd"
       d="m 186.375,48.59375 -24.84375,22.8125 c 5.97234,-0.199497 13.48387,0.07488 20.8125,1.75 1.4747,0.337074 2.9642,0.828568 4.40625,1.46875 l 12.75,-18.75 c -0.82449,0.693115 -1.562,1.256151 -2,1.34375 -1.58898,0.317797 -8.56991,-2.887712 -10,-4 -1.43008,-1.112288 -1.4375,-4.125 -1.4375,-4.125 z"
       id="path4073" /><path
       style="fill:#000000;fill-rule:evenodd"
       d="m 157.76858,87.657562 c -2.80667,0.01892 -5.38056,0.145245 -7.6599,0.282652 l -19.55957,17.976726 35.78385,0.39571 -54.20468,70.33985 c 3.80508,3.86309 9.66929,4.61097 20.13399,11.9452 6.26224,4.38892 18.1743,6.32254 23.44294,7.40071 l 21.34029,-21.76427 -34.00314,-0.11306 52.43211,-68.3172 c -4.47656,-5.963847 -11.15865,-13.44823 -17.77886,-15.715504 -0.0358,-0.01226 -0.0772,-0.01612 -0.11307,-0.02826 l -0.11306,0 0.0283,-0.02827 c -5.71977,-1.913366 -13.15591,-2.418607 -19.72917,-2.374284 z"
       id="path4071"
       inkscape:connector-curvature="0" /><path
       style="fill:#000000;fill-rule:evenodd"
       d="m 213.625,84.09375 -13.5625,0.1875 c 2.79778,2.743102 5.26308,5.579649 7.25,8.0625 z"
       id="path4069" /><path
       style="fill:#000000;fill-rule:evenodd"
       d="m 100.8125,189.1875 -0.25,0.3125 0.5,0.0313 c -0.10764,-0.13489 -0.14907,-0.21581 -0.25,-0.34375 z"
       id="path4067" /><path
       style="fill:#000000;fill-rule:evenodd"
       d="m 128.65625,210.34375 c 4.59426,2.00739 9.43517,3.45246 14.46875,4.4375 l 0.34375,-0.34375 c -4.34741,-1.02875 -9.16737,-2.50655 -14.8125,-4.09375 z"
       id="path4065" /><path
       style="fill:#000000;fill-rule:evenodd"
       d="m 117.5625,226.90625 c -0.49679,0.002 -1.00813,0.038 -1.5,0.0937 l -1.25,1.40625 c 0.63094,-0.55991 1.16369,-0.95364 1.5,-1.03125 2.06568,-0.47669 8.10116,1.13241 9.53125,2.5625 0.41451,0.41451 0.78323,0.85697 1.125,1.3125 l 0.46875,-0.46875 c -2.84971,-2.59296 -6.39744,-3.89171 -9.875,-3.875 z"
       id="path4063" /><path
       style="fill:#000000;fill-rule:evenodd"
       d="m 113.28358,248.77351 c -0.15422,0.005 -0.30657,0.0181 -0.47255,0.0497 -2.65568,0.50584 -3.15774,2.78299 -6.19281,4.42699 -3.03508,1.644 -5.5761,5.05761 -9.749329,3.03423 -0.674314,-0.32694 -1.109718,-0.76458 -1.417632,-1.24354 l -25.417891,40.81288 45.314482,-46.2347 c -0.516,-0.48334 -1.19037,-0.87184 -2.06427,-0.8456 z"
       id="path4061"
       inkscape:connector-curvature="0" /><path
       style="fill:#000000;fill-rule:evenodd"
       d="m 98.71875,238.8125 -0.28125,0.4375 0.09375,0.0625 c 0,0 0.462275,1.95187 3.5625,1.03125 -0.6393,-0.0927 -1.40035,-0.39378 -2.34375,-0.96875 z"
       id="_79675008-8" /></g></svg>