<?xml version="1.0" encoding="UTF-8" standalone="no"?>
<!-- Created with Inkscape (http://www.inkscape.org/) -->

<svg
   xmlns:dc="http://purl.org/dc/elements/1.1/"
   xmlns:cc="http://creativecommons.org/ns#"
   xmlns:rdf="http://www.w3.org/1999/02/22-rdf-syntax-ns#"
   xmlns:svg="http://www.w3.org/2000/svg"
   xmlns="http://www.w3.org/2000/svg"
   xmlns:sodipodi="http://sodipodi.sourceforge.net/DTD/sodipodi-0.dtd"
   xmlns:inkscape="http://www.inkscape.org/namespaces/inkscape"
   sodipodi:docname="appointment-missed-symbolic.svg"
   width="16"
   inkscape:version="0.48.5 r10040"
   version="1.1"
   id="svg7384"
   height="16">
  <metadata
     id="metadata90">
    <rdf:RDF>
      <cc:Work
         rdf:about="">
        <dc:format>image/svg+xml</dc:format>
        <dc:type
           rdf:resource="http://purl.org/dc/dcmitype/StillImage" />
        <dc:title>Gnome Symbolic Icon Theme</dc:title>
      </cc:Work>
    </rdf:RDF>
  </metadata>
  <sodipodi:namedview
     inkscape:window-x="0"
     inkscape:window-y="25"
     borderopacity="1"
     inkscape:window-maximized="1"
     inkscape:snap-nodes="true"
     inkscape:window-height="1031"
     inkscape:guide-bbox="true"
     bordercolor="#666666"
     inkscape:current-layer="layer9"
     inkscape:snap-global="true"
     showgrid="false"
     inkscape:zoom="3.7991055"
     gridtolerance="10"
     id="namedview88"
     inkscape:snap-others="false"
     inkscape:snap-bbox="true"
     pagecolor="#ffffff"
     inkscape:snap-grids="true"
     inkscape:bbox-paths="false"
     inkscape:snap-bbox-midpoints="false"
     inkscape:cx="86.619708"
     inkscape:cy="-41.249115"
     objecttolerance="10"
     showguides="true"
     inkscape:window-width="1914"
     inkscape:snap-to-guides="true"
     inkscape:object-nodes="true"
     guidetolerance="10"
     inkscape:pageopacity="0"
     showborder="false"
     inkscape:object-paths="true"
     inkscape:pageshadow="2">
    <inkscape:grid
       empspacing="2"
       spacingx="1px"
       spacingy="1px"
       type="xygrid"
       id="grid4866"
       visible="true"
       snapvisiblegridlinesonly="true"
       enabled="true" />
  </sodipodi:namedview>
  <title
     id="title9167">Gnome Symbolic Icon Theme</title>
  <defs
     id="defs7386" />
  <g
     inkscape:groupmode="layer"
     id="layer9"
     transform="translate(-181.0002,-397)"
     style="display:inline"
     inkscape:label="status">
    <rect
       style="fill:#ffffff;fill-opacity:1;stroke:none;display:inline"
       id="rect2995-7"
       width="16.240103"
       height="15.459523"
       x="179.50056"
       y="397.86276"
       ry="7.7297616" />
    <path
       d="M 187.40625,402 A 0.50005,0.50005 0 0 0 187,402.5 l 0,2.5 -1.5,0 a 0.50005,0.50005 0 1 0 0,1 l 2,0 a 0.50005,0.50005 0 0 0 0.5,-0.5 l 0,-3 a 0.50005,0.50005 0 0 0 -0.59375,-0.5 z"
       id="path4639-4-4-7"
       inkscape:connector-curvature="0"
       style="font-size:medium;font-style:normal;font-variant:normal;font-weight:normal;font-stretch:normal;text-indent:0;text-align:start;text-decoration:none;line-height:normal;letter-spacing:normal;word-spacing:normal;text-transform:none;direction:ltr;block-progression:tb;writing-mode:lr-tb;text-anchor:start;baseline-shift:baseline;opacity:1;color:#000000;fill:#000000;fill-opacity:1;stroke:none;stroke-width:1;marker:none;visibility:visible;display:inline;overflow:visible;enable-background:accumulate;font-family:Sans;-inkscape-font-specification:Sans" />
    <path
       d="m 192.54759,406.65792 1.66011,1.61401 1.61401,-1.61401 c 1.10675,-1.11865 4.53892,1.22768 3.00577,3.2376 l -1.61401,1.5679 1.61401,1.56789 c 0.84764,0.91223 -1.55503,3.53081 -2.86575,2.40086 l -1.5679,-1.5679 -1.56789,1.5679 c -1.17531,1.03762 -3.73238,-1.38855 -2.40045,-2.68005 l 1.56789,-1.56789 -1.56789,-1.5679 c -1.4753,-1.34329 0.96169,-4.15026 2.1221,-2.95841 z"
       sodipodi:nodetypes="ccccccccccccc"
       id="path3761-2-3-5-4-8-9-8-0-1-6-1"
       inkscape:connector-curvature="0"
       style="color:#bebebe;fill:#ffffff;fill-opacity:1;stroke:none;stroke-width:2;marker:none;visibility:visible;display:inline;overflow:visible" />
    <path
       d="m 192.89051,407.88495 1.46635,1.42562 1.42561,-1.42562 c 0.97757,-0.98808 2.85833,0.71449 1.83293,1.9144 l -1.42561,1.38488 1.42561,1.38488 c 0.9131,0.88796 -0.71593,2.831 -1.87366,1.83293 l -1.38488,-1.38488 -1.38488,1.38488 c -1.03814,0.91652 -2.72133,-0.97988 -1.87367,-1.83293 l 1.38488,-1.38488 -1.38488,-1.38488 c -1.30309,-1.1865 0.76725,-2.96714 1.7922,-1.9144 z"
       sodipodi:nodetypes="ccccccccccccc"
       id="path3761-2-3-5-4-8-9-8-0-1-6"
       inkscape:connector-curvature="0"
       style="color:#bebebe;fill:#000000;fill-opacity:1;stroke:none;stroke-width:2;marker:none;visibility:visible;display:inline;overflow:visible" />
    <path
       d="m 187.5002,399 c -3.57801,0 -6.5,2.92199 -6.5,6.5 0,3.57801 2.92199,6.5 6.5,6.5 1.29116,0 2.48506,-0.37561 3.5,-1.03125 l 0,-2.65625 c -0.82069,1.02721 -2.071,1.6875 -3.5,1.6875 -2.49713,0 -4.5,-2.00287 -4.5,-4.5 0,-2.49712 2.00287,-4.5 4.5,-4.5 2.49712,0 4.5,2.00288 4.5,4.5 0,0.53296 -0.11393,1.02721 -0.28125,1.5 l 2.09375,0 c 0.11483,-0.48186 0.1875,-0.98435 0.1875,-1.5 0,-3.57801 -2.922,-6.5 -6.5,-6.5 z"
       id="path3869-9"
       inkscape:connector-curvature="0"
       style="font-size:medium;font-style:normal;font-variant:normal;font-weight:normal;font-stretch:normal;text-indent:0;text-align:start;text-decoration:none;line-height:normal;letter-spacing:normal;word-spacing:normal;text-transform:none;direction:ltr;block-progression:tb;writing-mode:lr-tb;text-anchor:start;baseline-shift:baseline;opacity:1;color:#000000;fill:#000000;fill-opacity:1;stroke:none;stroke-width:2.54545426000000008;marker:none;visibility:visible;display:inline;overflow:visible;enable-background:accumulate;font-family:Sans;-inkscape-font-specification:Sans" />
  </g>
  <g
     inkscape:groupmode="layer"
     id="layer10"
     transform="translate(-181.0002,-397)"
     inkscape:label="devices" />
  <g
     inkscape:groupmode="layer"
     id="layer11"
     transform="translate(-181.0002,-397)"
     inkscape:label="apps" />
  <g
     inkscape:groupmode="layer"
     id="layer13"
     transform="translate(-181.0002,-397)"
     inkscape:label="places" />
  <g
     inkscape:groupmode="layer"
     id="layer14"
     transform="translate(-181.0002,-397)"
     inkscape:label="mimetypes" />
  <g
     inkscape:groupmode="layer"
     id="layer15"
     transform="translate(-181.0002,-397)"
     style="display:inline"
     inkscape:label="emblems" />
  <g
     inkscape:groupmode="layer"
     id="g71291"
     transform="translate(-181.0002,-397)"
     style="display:inline"
     inkscape:label="emotes" />
  <g
     inkscape:groupmode="layer"
     id="g4953"
     transform="translate(-181.0002,-397)"
     style="display:inline"
     inkscape:label="categories" />
  <g
     inkscape:groupmode="layer"
     id="layer12"
     transform="translate(-181.0002,-397)"
     style="display:inline"
     inkscape:label="actions" />
</svg>
