<?xml version="1.0" encoding="UTF-8" standalone="no"?>
<!-- Created with Inkscape (http://www.inkscape.org/) -->

<svg
   xmlns:dc="http://purl.org/dc/elements/1.1/"
   xmlns:cc="http://creativecommons.org/ns#"
   xmlns:rdf="http://www.w3.org/1999/02/22-rdf-syntax-ns#"
   xmlns:svg="http://www.w3.org/2000/svg"
   xmlns="http://www.w3.org/2000/svg"
   xmlns:sodipodi="http://sodipodi.sourceforge.net/DTD/sodipodi-0.dtd"
   xmlns:inkscape="http://www.inkscape.org/namespaces/inkscape"
   id="svg7384"
   version="1.1"
   inkscape:version="0.48.5 r10040"
   height="16"
   sodipodi:docname="audio-input-microphone-high.svg"
   width="16">
  <metadata
     id="metadata90">
    <rdf:RDF>
      <cc:Work
         rdf:about="">
        <dc:format>image/svg+xml</dc:format>
        <dc:type
           rdf:resource="http://purl.org/dc/dcmitype/StillImage" />
        <dc:title>Gnome Symbolic Icon Theme</dc:title>
      </cc:Work>
    </rdf:RDF>
  </metadata>
  <sodipodi:namedview
     inkscape:object-paths="true"
     inkscape:cy="7.3035262"
     inkscape:current-layer="layer9"
     inkscape:window-width="1914"
     pagecolor="#ffffff"
     showborder="true"
     showguides="true"
     inkscape:snap-nodes="false"
     objecttolerance="10"
     showgrid="true"
     inkscape:object-nodes="true"
     inkscape:pageshadow="2"
     inkscape:guide-bbox="true"
     inkscape:window-x="0"
     inkscape:snap-bbox="true"
     bordercolor="#666666"
     id="namedview88"
     inkscape:window-maximized="1"
     inkscape:snap-global="false"
     inkscape:window-y="25"
     gridtolerance="10"
     inkscape:zoom="35.833448"
     inkscape:window-height="1031"
     borderopacity="1"
     guidetolerance="10"
     inkscape:snap-bbox-midpoints="false"
     inkscape:cx="11.862263"
     inkscape:bbox-paths="false"
     inkscape:snap-grids="true"
     inkscape:pageopacity="0"
     inkscape:snap-to-guides="true">
    <inkscape:grid
       visible="true"
       spacingx="1px"
       type="xygrid"
       spacingy="1px"
       id="grid4866"
       empspacing="2"
       enabled="true"
       snapvisiblegridlinesonly="true" />
  </sodipodi:namedview>
  <title
     id="title9167">Gnome Symbolic Icon Theme</title>
  <defs
     id="defs7386">
    <clipPath
       id="clipPath6810-7-87"
       clipPathUnits="userSpaceOnUse">
      <rect
         x="21"
         y="281"
         id="rect6812-2-4"
         height="11"
         width="14"
         style="color:#bebebe;fill:none;stroke:#ffffff;stroke-width:2;stroke-linecap:round;stroke-linejoin:round;stroke-miterlimit:4;stroke-opacity:1;stroke-dasharray:none;stroke-dashoffset:0;marker:none;visibility:visible;display:inline;overflow:visible" />
    </clipPath>
    <clipPath
       id="clipPath6810-7-87-3"
       clipPathUnits="userSpaceOnUse">
      <rect
         x="21"
         y="281"
         id="rect6812-2-4-9"
         height="11"
         width="14"
         style="color:#bebebe;fill:none;stroke:#ffffff;stroke-width:2;stroke-linecap:round;stroke-linejoin:round;stroke-miterlimit:4;stroke-opacity:1;stroke-dasharray:none;stroke-dashoffset:0;marker:none;visibility:visible;display:inline;overflow:visible" />
    </clipPath>
    <clipPath
       id="clipPath6810-7-87-5"
       clipPathUnits="userSpaceOnUse">
      <rect
         x="21"
         y="281"
         id="rect6812-2-4-1"
         height="11"
         width="14"
         style="color:#bebebe;fill:none;stroke:#ffffff;stroke-width:2;stroke-linecap:round;stroke-linejoin:round;stroke-miterlimit:4;stroke-opacity:1;stroke-dasharray:none;stroke-dashoffset:0;marker:none;visibility:visible;display:inline;overflow:visible" />
    </clipPath>
  </defs>
  <g
     transform="translate(-100,-398)"
     inkscape:groupmode="layer"
     id="layer9"
     inkscape:label="status"
     style="display:inline">
    <rect
       x="102.38605"
       y="399.06824"
       id="rect12327-8"
       rx="3.3092902"
       height="9.9317675"
       ry="2.4797487"
       style="color:#bebebe;fill:#ffffff;fill-opacity:1;fill-rule:nonzero;stroke:none;stroke-width:2;marker:none;visibility:visible;display:inline;overflow:visible"
       width="6.6185803" />
    <rect
       x="103.62423"
       y="400"
       id="rect12327"
       rx="1.9669033"
       height="8.0023899"
       ry="1.9980246"
       style="color:#bebebe;fill:#000000;fill-opacity:1;fill-rule:nonzero;stroke:none;stroke-width:2;marker:none;visibility:visible;display:inline;overflow:visible"
       width="3.9338067" />
    <rect
       x="103.898"
       y="408.48114"
       id="rect12339-3"
       height="3.1968393"
       width="3.4127493"
       style="color:#bebebe;fill:#ffffff;fill-opacity:1;stroke:none;stroke-width:1;marker:none;visibility:visible;display:inline;overflow:visible" />
    <path
       style="fill:#ffffff;fill-opacity:1;stroke:none"
       d="m 103.40127,403.64153 0.14206,3.24174 c 0.0523,1.19203 1.04442,3.2083 0.37545,3.2083 -0.66898,0 -2.79051,-1.20605 -2.79051,-3.2083 l 0,-2.6415 c -0.0241,-2.58165 2.21848,-2.10715 2.273,-0.60024 z"
       id="rect4004"
       inkscape:connector-curvature="0"
       sodipodi:nodetypes="cssscc" />
    <path
       style="fill:#ffffff;fill-opacity:1;stroke:none;display:inline"
       d="m 107.77327,403.5779 -0.13944,3.00792 c -0.0513,1.10605 -1.08094,3.47921 -0.42433,3.47921 0.65662,0 2.79478,-1.06069 2.79478,-3.47921 l 0,-2.45098 c 0.0872,-2.51218 -2.09277,-2.0544 -2.23101,-0.55694 z"
       id="rect4004-2"
       inkscape:connector-curvature="0"
       sodipodi:nodetypes="cssscc" />
    <path
       inkscape:connector-curvature="0"
       transform="matrix(0.78201557,0,0,0.79920984,83.724597,179.03985)"
       clip-path="url(#clipPath6810-7-87)"
       d="m 27.96875,273.625 c -2.502477,0 -4.53125,2.02877 -4.53125,4.53125 l 0,5.8125 c 0,2.50248 2.028773,4.53125 4.53125,4.53125 2.502477,0 4.53125,-2.02877 4.53125,-4.53125 l 0,-5.8125 c 0,-2.50248 -2.028773,-4.53125 -4.53125,-4.53125 z m 0,1 c 1.964148,0 3.53125,1.5671 3.53125,3.53125 l 0,5.8125 c 0,1.96415 -1.567102,3.53125 -3.53125,3.53125 -1.964148,0 -3.53125,-1.5671 -3.53125,-3.53125 l 0,-5.8125 c 0,-1.96415 1.567102,-3.53125 3.53125,-3.53125 z"
       id="rect12329"
       style="font-size:medium;font-style:normal;font-variant:normal;font-weight:normal;font-stretch:normal;text-indent:0;text-align:start;text-decoration:none;line-height:normal;letter-spacing:normal;word-spacing:normal;text-transform:none;direction:ltr;block-progression:tb;writing-mode:lr-tb;text-anchor:start;color:#bebebe;fill:#000000;fill-opacity:1;stroke:none;stroke-width:1.00302994000000001;marker:none;visibility:visible;display:inline;overflow:visible;enable-background:accumulate;font-family:Bitstream Vera Sans;-inkscape-font-specification:Bitstream Vera Sans" />
    <path
       style="color:#bebebe;fill:#000000;fill-opacity:1;stroke:none;stroke-width:2;marker:none;visibility:visible;display:inline;overflow:visible"
       d="m 24,361 c 0,0.55228 -0.447715,1 -1,1 -0.552285,0 -1,-0.44772 -1,-1 0,-0.55228 0.447715,-1 1,-1 0.552285,0 1,0.44772 1,1 z"
       id="path12331"
       transform="matrix(0.39338066,0,0,0.39960492,93.396333,259.34936)" />
    <path
       style="color:#bebebe;fill:#000000;fill-opacity:1;stroke:none;stroke-width:2;marker:none;visibility:visible;display:inline;overflow:visible"
       d="m 24,361 c 0,0.55228 -0.447715,1 -1,1 -0.552285,0 -1,-0.44772 -1,-1 0,-0.55228 0.447715,-1 1,-1 0.552285,0 1,0.44772 1,1 z"
       id="path12333"
       transform="matrix(0.39338066,0,0,0.39960492,99.690423,259.34936)" />
    <path
       inkscape:connector-curvature="0"
       style="font-size:medium;font-style:normal;font-variant:normal;font-weight:normal;font-stretch:normal;text-indent:0;text-align:start;text-decoration:none;line-height:normal;letter-spacing:normal;word-spacing:normal;text-transform:none;direction:ltr;block-progression:tb;writing-mode:lr-tb;text-anchor:start;color:#bebebe;fill:#ffffff;fill-opacity:1;stroke:none;stroke-width:2;marker:none;visibility:visible;display:inline;overflow:visible;enable-background:accumulate;font-family:Bitstream Vera Sans;-inkscape-font-specification:Bitstream Vera Sans"
       d="m 101.86239,409.91525 a 1.0165039,1.5300811 0 0 0 -0.84624,1.49277 1.0165039,1.5300811 0 0 0 0,0.29857 l 0,1.25393 0.84624,0 7.57575,0 0.84625,0 0,-1.5525 -0.0403,0 a 1.0146258,1.5272539 0 0 0 -1.00743,-1.49277 l -7.1325,0 a 1.0146258,1.5272539 0 0 0 -0.12084,0 1.0165039,1.5300811 0 0 0 -0.12082,0 z"
       id="path12335-9" />
    <path
       style="font-size:medium;font-style:normal;font-variant:normal;font-weight:normal;font-stretch:normal;text-indent:0;text-align:start;text-decoration:none;line-height:normal;letter-spacing:normal;word-spacing:normal;text-transform:none;direction:ltr;block-progression:tb;writing-mode:lr-tb;text-anchor:start;color:#bebebe;fill:#000000;fill-opacity:1;stroke:none;stroke-width:2;marker:none;visibility:visible;display:inline;overflow:visible;enable-background:accumulate;font-family:Bitstream Vera Sans;-inkscape-font-specification:Bitstream Vera Sans"
       d="M 2.65625,12.40625 C 2.2955696,12.468483 2.0037518,12.815885 2,13.1875 c -0.00501,0.05192 -0.00501,0.104333 0,0.15625 L 2,14 l 0.65625,0 5.875,0 0.65625,0 0,-0.8125 -0.03125,0 C 9.1977661,12.793807 8.7792684,12.409063 8.375,12.40625 l -5.53125,0 c -0.031213,-0.0019 -0.062537,-0.0019 -0.09375,0 -0.031213,-0.0019 -0.062537,-0.0019 -0.09375,0 z"
       transform="translate(100,398)"
       id="path12335"
       inkscape:connector-curvature="0"
       sodipodi:nodetypes="ccccccccccccc" />
    <rect
       x="104.41099"
       y="408.80161"
       id="rect12339"
       height="3.1968393"
       width="2.3602839"
       style="color:#bebebe;fill:#000000;fill-opacity:1;stroke:none;stroke-width:1;marker:none;visibility:visible;display:inline;overflow:visible" />
    <path
       sodipodi:cy="184.0625"
       transform="matrix(1.3947195,0,0,1.3878748,374.43048,145.95829)"
       sodipodi:type="arc"
       d="m -186.0625,184.0625 a 1.9375,1.9375 0 1 1 -3.875,0 1.9375,1.9375 0 1 1 3.875,0 z"
       id="path12347-4-8-3-7-3"
       sodipodi:rx="1.9375"
       sodipodi:ry="1.9375"
       sodipodi:cx="-188"
       style="color:#000000;fill:#ffffff;fill-opacity:1;stroke:none;stroke-width:1.20870245;marker:none;visibility:visible;display:inline;overflow:visible;enable-background:accumulate" />
    <path
       sodipodi:cy="184.0625"
       transform="matrix(0.69062283,0,0,0.68723358,242.0825,274.75804)"
       sodipodi:type="arc"
       d="m -186.0625,184.0625 c 0,1.07005 -0.86745,1.9375 -1.9375,1.9375 -1.07005,0 -1.9375,-0.86745 -1.9375,-1.9375 0,-1.07005 0.86745,-1.9375 1.9375,-1.9375 1.07005,0 1.9375,0.86745 1.9375,1.9375 z"
       id="path12347"
       sodipodi:rx="1.9375"
       sodipodi:ry="1.9375"
       sodipodi:cx="-188"
       style="color:#000000;fill:#000000;fill-opacity:1;stroke:#000000;stroke-width:1.20916021000000007;stroke-miterlimit:4;stroke-dasharray:none;marker:none;visibility:visible;display:inline;overflow:visible;enable-background:accumulate;stroke-opacity:1" />
    <path
       sodipodi:cy="184.0625"
       transform="matrix(1.3947195,0,0,1.3878748,374.4863,150.31176)"
       sodipodi:type="arc"
       d="m -186.0625,184.0625 a 1.9375,1.9375 0 1 1 -3.875,0 1.9375,1.9375 0 1 1 3.875,0 z"
       id="path12347-4-8-3-7"
       sodipodi:rx="1.9375"
       sodipodi:ry="1.9375"
       sodipodi:cx="-188"
       style="color:#000000;fill:#ffffff;fill-opacity:1;stroke:none;stroke-width:1.20870245;marker:none;visibility:visible;display:inline;overflow:visible;enable-background:accumulate" />
    <path
       sodipodi:cy="184.0625"
       transform="matrix(0.69062283,0,0,0.68723358,242.0825,279.2541)"
       sodipodi:type="arc"
       d="m -186.0625,184.0625 c 0,1.07005 -0.86745,1.9375 -1.9375,1.9375 -1.07005,0 -1.9375,-0.86745 -1.9375,-1.9375 0,-1.07005 0.86745,-1.9375 1.9375,-1.9375 1.07005,0 1.9375,0.86745 1.9375,1.9375 z"
       id="path12347-2"
       sodipodi:rx="1.9375"
       sodipodi:ry="1.9375"
       sodipodi:cx="-188"
       style="color:#000000;fill:#000000;fill-opacity:1;stroke:#000000;stroke-width:1.20916021000000007;stroke-miterlimit:4;stroke-dasharray:none;marker:none;visibility:visible;display:inline;overflow:visible;enable-background:accumulate;stroke-opacity:1" />
    <path
       sodipodi:cy="184.0625"
       transform="matrix(1.3947195,0,0,1.3878748,374.48894,154.79249)"
       sodipodi:type="arc"
       d="m -186.0625,184.0625 a 1.9375,1.9375 0 1 1 -3.875,0 1.9375,1.9375 0 1 1 3.875,0 z"
       id="path12347-4-8-3"
       sodipodi:rx="1.9375"
       sodipodi:ry="1.9375"
       sodipodi:cx="-188"
       style="color:#000000;fill:#ffffff;fill-opacity:1;stroke:none;stroke-width:1.20870245;marker:none;visibility:visible;display:inline;overflow:visible;enable-background:accumulate" />
    <path
       sodipodi:cy="184.0625"
       transform="matrix(0.69062283,0,0,0.68723358,242.0825,283.75804)"
       sodipodi:type="arc"
       d="m -186.0625,184.0625 c 0,1.07005 -0.86745,1.9375 -1.9375,1.9375 -1.07005,0 -1.9375,-0.86745 -1.9375,-1.9375 0,-1.07005 0.86745,-1.9375 1.9375,-1.9375 1.07005,0 1.9375,0.86745 1.9375,1.9375 z"
       id="path12347-7"
       sodipodi:rx="1.9375"
       sodipodi:ry="1.9375"
       sodipodi:cx="-188"
       style="color:#000000;fill:#000000;fill-opacity:1;stroke:#000000;stroke-width:1.20916021000000007;stroke-miterlimit:4;stroke-dasharray:none;marker:none;visibility:visible;display:inline;overflow:visible;enable-background:accumulate;stroke-opacity:1" />
  </g>
  <g
     transform="translate(-100,-398)"
     inkscape:groupmode="layer"
     id="layer10"
     inkscape:label="devices" />
  <g
     transform="translate(-100,-398)"
     inkscape:groupmode="layer"
     id="layer11"
     inkscape:label="apps" />
  <g
     transform="translate(-100,-398)"
     inkscape:groupmode="layer"
     id="layer12"
     inkscape:label="actions" />
  <g
     transform="translate(-100,-398)"
     inkscape:groupmode="layer"
     id="layer13"
     inkscape:label="places" />
  <g
     transform="translate(-100,-398)"
     inkscape:groupmode="layer"
     id="layer14"
     inkscape:label="mimetypes" />
  <g
     transform="translate(-100,-398)"
     inkscape:groupmode="layer"
     id="layer15"
     inkscape:label="emblems"
     style="display:inline" />
  <g
     transform="translate(-100,-398)"
     inkscape:groupmode="layer"
     id="g4953"
     inkscape:label="categories"
     style="display:inline" />
</svg>
