<?xml version="1.0" encoding="UTF-8" standalone="no"?>
<!-- Created with Inkscape (http://www.inkscape.org/) -->

<svg
   xmlns:dc="http://purl.org/dc/elements/1.1/"
   xmlns:cc="http://creativecommons.org/ns#"
   xmlns:rdf="http://www.w3.org/1999/02/22-rdf-syntax-ns#"
   xmlns:svg="http://www.w3.org/2000/svg"
   xmlns="http://www.w3.org/2000/svg"
   xmlns:sodipodi="http://sodipodi.sourceforge.net/DTD/sodipodi-0.dtd"
   xmlns:inkscape="http://www.inkscape.org/namespaces/inkscape"
   id="svg7384"
   version="1.1"
   inkscape:version="0.48.5 r10040"
   height="16"
   sodipodi:docname="audio-input-microphone-low.svg"
   width="16">
  <metadata
     id="metadata90">
    <rdf:RDF>
      <cc:Work
         rdf:about="">
        <dc:format>image/svg+xml</dc:format>
        <dc:type
           rdf:resource="http://purl.org/dc/dcmitype/StillImage" />
        <dc:title>Gnome Symbolic Icon Theme</dc:title>
      </cc:Work>
    </rdf:RDF>
  </metadata>
  <sodipodi:namedview
     inkscape:object-paths="true"
     inkscape:cy="4.2426407"
     inkscape:current-layer="layer9"
     inkscape:window-width="1914"
     pagecolor="#ffffff"
     showborder="true"
     showguides="true"
     inkscape:snap-nodes="false"
     objecttolerance="10"
     showgrid="true"
     inkscape:object-nodes="true"
     inkscape:pageshadow="2"
     inkscape:guide-bbox="true"
     inkscape:window-x="0"
     inkscape:snap-bbox="true"
     bordercolor="#666666"
     id="namedview88"
     inkscape:window-maximized="1"
     inkscape:snap-global="false"
     inkscape:window-y="25"
     gridtolerance="10"
     inkscape:zoom="18.222843"
     inkscape:window-height="1031"
     borderopacity="1"
     guidetolerance="10"
     inkscape:snap-bbox-midpoints="false"
     inkscape:cx="10.583353"
     inkscape:bbox-paths="false"
     inkscape:snap-grids="true"
     inkscape:pageopacity="0"
     inkscape:snap-to-guides="true">
    <inkscape:grid
       visible="true"
       spacingx="1px"
       type="xygrid"
       spacingy="1px"
       id="grid4866"
       empspacing="2"
       enabled="true"
       snapvisiblegridlinesonly="true" />
  </sodipodi:namedview>
  <title
     id="title9167">Gnome Symbolic Icon Theme</title>
  <defs
     id="defs7386">
    <clipPath
       id="clipPath6810-7-87"
       clipPathUnits="userSpaceOnUse">
      <rect
         x="21"
         y="281"
         id="rect6812-2-4"
         height="11"
         width="14"
         style="color:#bebebe;fill:none;stroke:#ffffff;stroke-width:2;stroke-linecap:round;stroke-linejoin:round;stroke-miterlimit:4;stroke-opacity:1;stroke-dasharray:none;stroke-dashoffset:0;marker:none;visibility:visible;display:inline;overflow:visible" />
    </clipPath>
    <clipPath
       id="clipPath6810-7-87-0"
       clipPathUnits="userSpaceOnUse">
      <rect
         x="21"
         y="281"
         id="rect6812-2-4-3"
         height="11"
         width="14"
         style="color:#bebebe;fill:none;stroke:#ffffff;stroke-width:2;stroke-linecap:round;stroke-linejoin:round;stroke-miterlimit:4;stroke-opacity:1;stroke-dasharray:none;stroke-dashoffset:0;marker:none;visibility:visible;display:inline;overflow:visible" />
    </clipPath>
  </defs>
  <g
     transform="translate(-100,-398)"
     inkscape:groupmode="layer"
     id="layer9"
     inkscape:label="status"
     style="display:inline">
    <g
       id="g3048"
       transform="translate(-16.304837,0.04187)">
      <rect
         width="6.6185803"
         style="color:#bebebe;fill:#ffffff;fill-opacity:1;fill-rule:nonzero;stroke:none;stroke-width:2;marker:none;visibility:visible;display:inline;overflow:visible"
         ry="2.4797487"
         height="9.9317675"
         rx="3.3092902"
         id="rect12327-8"
         y="399.06586"
         x="118.76182" />
      <rect
         style="color:#bebebe;fill:#ffffff;fill-opacity:1;stroke:none;stroke-width:1;marker:none;visibility:visible;display:inline;overflow:visible"
         width="3.4127493"
         height="3.1968393"
         id="rect12339-3"
         y="408.47876"
         x="120.27377" />
      <path
         sodipodi:nodetypes="cssscc"
         inkscape:connector-curvature="0"
         id="rect4004"
         d="m 119.77704,403.63914 0.14206,3.24174 c 0.0523,1.19203 1.04442,3.2083 0.37545,3.2083 -0.66898,0 -2.79051,-1.20605 -2.79051,-3.2083 l 0,-2.6415 c -0.0241,-2.58165 2.21848,-2.10715 2.273,-0.60024 z"
         style="fill:#ffffff;fill-opacity:1;stroke:none;display:inline" />
      <path
         sodipodi:nodetypes="cssscc"
         inkscape:connector-curvature="0"
         id="rect4004-2"
         d="m 124.14904,403.57551 -0.13944,3.00792 c -0.0513,1.10605 -1.08094,3.47921 -0.42433,3.47921 0.65662,0 2.79478,-1.06069 2.79478,-3.47921 l 0,-2.45098 c 0.0872,-2.51218 -2.09277,-2.0544 -2.23101,-0.55694 z"
         style="fill:#ffffff;fill-opacity:1;stroke:none;display:inline" />
      <path
         id="path12335-9"
         d="m 118.23816,409.91286 a 1.0165039,1.5300811 0 0 0 -0.84624,1.49277 1.0165039,1.5300811 0 0 0 0,0.29857 l 0,1.25393 0.84624,0 7.57575,0 0.84625,0 0,-1.5525 -0.0403,0 a 1.0146258,1.5272539 0 0 0 -1.00743,-1.49277 l -7.1325,0 a 1.0146258,1.5272539 0 0 0 -0.12084,0 1.0165039,1.5300811 0 0 0 -0.12082,0 z"
         style="font-size:medium;font-style:normal;font-variant:normal;font-weight:normal;font-stretch:normal;text-indent:0;text-align:start;text-decoration:none;line-height:normal;letter-spacing:normal;word-spacing:normal;text-transform:none;direction:ltr;block-progression:tb;writing-mode:lr-tb;text-anchor:start;color:#bebebe;fill:#ffffff;fill-opacity:1;stroke:none;stroke-width:2;marker:none;visibility:visible;display:inline;overflow:visible;enable-background:accumulate;font-family:Bitstream Vera Sans;-inkscape-font-specification:Bitstream Vera Sans"
         inkscape:connector-curvature="0" />
      <path
         style="color:#000000;fill:#ffffff;fill-opacity:1;stroke:none;stroke-width:1.20870245;marker:none;visibility:visible;display:inline;overflow:visible;enable-background:accumulate"
         sodipodi:cx="-188"
         sodipodi:ry="1.9375"
         sodipodi:rx="1.9375"
         id="path12347-4-8-3-7-3"
         d="m -186.0625,184.0625 c 0,1.07005 -0.86745,1.9375 -1.9375,1.9375 -1.07005,0 -1.9375,-0.86745 -1.9375,-1.9375 0,-1.07005 0.86745,-1.9375 1.9375,-1.9375 1.07005,0 1.9375,0.86745 1.9375,1.9375 z"
         sodipodi:type="arc"
         transform="matrix(1.3947195,0,0,1.3878748,390.80625,145.9559)"
         sodipodi:cy="184.0625" />
      <path
         style="color:#000000;fill:#ffffff;fill-opacity:1;stroke:none;stroke-width:1.20870245;marker:none;visibility:visible;display:inline;overflow:visible;enable-background:accumulate"
         sodipodi:cx="-188"
         sodipodi:ry="1.9375"
         sodipodi:rx="1.9375"
         id="path12347-4-8-3-7"
         d="m -186.0625,184.0625 c 0,1.07005 -0.86745,1.9375 -1.9375,1.9375 -1.07005,0 -1.9375,-0.86745 -1.9375,-1.9375 0,-1.07005 0.86745,-1.9375 1.9375,-1.9375 1.07005,0 1.9375,0.86745 1.9375,1.9375 z"
         sodipodi:type="arc"
         transform="matrix(1.3947195,0,0,1.3878748,390.86207,150.30937)"
         sodipodi:cy="184.0625" />
      <path
         style="color:#000000;fill:#ffffff;fill-opacity:1;stroke:none;stroke-width:1.20870245;marker:none;visibility:visible;display:inline;overflow:visible;enable-background:accumulate"
         sodipodi:cx="-188"
         sodipodi:ry="1.9375"
         sodipodi:rx="1.9375"
         id="path12347-4-8-3"
         d="m -186.0625,184.0625 c 0,1.07005 -0.86745,1.9375 -1.9375,1.9375 -1.07005,0 -1.9375,-0.86745 -1.9375,-1.9375 0,-1.07005 0.86745,-1.9375 1.9375,-1.9375 1.07005,0 1.9375,0.86745 1.9375,1.9375 z"
         sodipodi:type="arc"
         transform="matrix(1.3947195,0,0,1.3878748,390.86471,154.7901)"
         sodipodi:cy="184.0625" />
    </g>
    <rect
       x="103.62423"
       y="400"
       id="rect12327"
       rx="1.9669033"
       height="8.0023899"
       ry="1.9980246"
       style="color:#bebebe;fill:#000000;fill-opacity:1;fill-rule:nonzero;stroke:none;stroke-width:2;marker:none;visibility:visible;display:inline;overflow:visible"
       width="3.9338067" />
    <path
       inkscape:connector-curvature="0"
       transform="matrix(0.78201557,0,0,0.79920984,83.724597,179.03985)"
       clip-path="url(#clipPath6810-7-87)"
       d="m 27.96875,273.625 c -2.502477,0 -4.53125,2.02877 -4.53125,4.53125 l 0,5.8125 c 0,2.50248 2.028773,4.53125 4.53125,4.53125 2.502477,0 4.53125,-2.02877 4.53125,-4.53125 l 0,-5.8125 c 0,-2.50248 -2.028773,-4.53125 -4.53125,-4.53125 z m 0,1 c 1.964148,0 3.53125,1.5671 3.53125,3.53125 l 0,5.8125 c 0,1.96415 -1.567102,3.53125 -3.53125,3.53125 -1.964148,0 -3.53125,-1.5671 -3.53125,-3.53125 l 0,-5.8125 c 0,-1.96415 1.567102,-3.53125 3.53125,-3.53125 z"
       id="rect12329"
       style="font-size:medium;font-style:normal;font-variant:normal;font-weight:normal;font-stretch:normal;text-indent:0;text-align:start;text-decoration:none;line-height:normal;letter-spacing:normal;word-spacing:normal;text-transform:none;direction:ltr;block-progression:tb;writing-mode:lr-tb;text-anchor:start;color:#bebebe;fill:#000000;fill-opacity:1;stroke:none;stroke-width:1.00302994000000001;marker:none;visibility:visible;display:inline;overflow:visible;enable-background:accumulate;font-family:Bitstream Vera Sans;-inkscape-font-specification:Bitstream Vera Sans" />
    <path
       sodipodi:cy="361"
       transform="matrix(0.39338066,0,0,0.39960492,93.396333,259.34936)"
       sodipodi:type="arc"
       d="m 24,361 c 0,0.55228 -0.447715,1 -1,1 -0.552285,0 -1,-0.44772 -1,-1 0,-0.55228 0.447715,-1 1,-1 0.552285,0 1,0.44772 1,1 z"
       id="path12331"
       sodipodi:rx="1"
       sodipodi:ry="1"
       style="color:#bebebe;fill:#000000;fill-opacity:1;stroke:none;stroke-width:2;marker:none;visibility:visible;display:inline;overflow:visible"
       sodipodi:cx="23" />
    <path
       sodipodi:cy="361"
       transform="matrix(0.39338066,0,0,0.39960492,99.690423,259.34936)"
       sodipodi:type="arc"
       d="m 24,361 c 0,0.55228 -0.447715,1 -1,1 -0.552285,0 -1,-0.44772 -1,-1 0,-0.55228 0.447715,-1 1,-1 0.552285,0 1,0.44772 1,1 z"
       id="path12333"
       sodipodi:rx="1"
       sodipodi:ry="1"
       sodipodi:cx="23"
       style="color:#bebebe;fill:#000000;fill-opacity:1;stroke:none;stroke-width:2;marker:none;visibility:visible;display:inline;overflow:visible" />
    <path
       inkscape:connector-curvature="0"
       d="m 102.73912,410.40002 a 0.78829646,0.80076928 0 1 0 0.0983,1.59842 l 5.53191,0 a 0.78683999,0.79928976 0 1 0 0,-1.59842 l -5.53191,0 a 0.78683999,0.79928976 0 0 0 -0.0983,0 z"
       id="path12335"
       style="font-size:medium;font-style:normal;font-variant:normal;font-weight:normal;font-stretch:normal;text-indent:0;text-align:start;text-decoration:none;line-height:normal;letter-spacing:normal;word-spacing:normal;text-transform:none;direction:ltr;block-progression:tb;writing-mode:lr-tb;text-anchor:start;color:#bebebe;fill:#000000;fill-opacity:1;stroke:none;stroke-width:2;marker:none;visibility:visible;display:inline;overflow:visible;enable-background:accumulate;font-family:Bitstream Vera Sans;-inkscape-font-specification:Bitstream Vera Sans" />
    <rect
       x="102"
       y="411.19922"
       id="rect12337"
       height="0.79920983"
       style="color:#bebebe;fill:#000000;fill-opacity:1;stroke:none;stroke-width:1;marker:none;visibility:visible;display:inline;overflow:visible"
       width="7.1784239" />
    <rect
       x="104.41099"
       y="408.80161"
       id="rect12339"
       height="3.1968393"
       width="2.3602839"
       style="color:#bebebe;fill:#000000;fill-opacity:1;stroke:none;stroke-width:1;marker:none;visibility:visible;display:inline;overflow:visible" />
    <path
       sodipodi:cy="184.0625"
       transform="matrix(0.69062283,0,0,0.68723358,242.0825,274.75804)"
       sodipodi:type="arc"
       d="m -186.0625,184.0625 c 0,1.07005 -0.86745,1.9375 -1.9375,1.9375 -1.07005,0 -1.9375,-0.86745 -1.9375,-1.9375 0,-1.07005 0.86745,-1.9375 1.9375,-1.9375 1.07005,0 1.9375,0.86745 1.9375,1.9375 z"
       id="path12347"
       sodipodi:rx="1.9375"
       sodipodi:ry="1.9375"
       sodipodi:cx="-188"
       style="color:#000000;fill:none;fill-opacity:1;stroke:#000000;stroke-width:1.20916021000000007;stroke-miterlimit:4;stroke-dasharray:none;marker:none;visibility:visible;display:inline;overflow:visible;enable-background:accumulate;stroke-opacity:1" />
    <path
       sodipodi:cy="184.0625"
       transform="matrix(0.69062283,0,0,0.68723358,242.0825,279.2541)"
       sodipodi:type="arc"
       d="m -186.0625,184.0625 c 0,1.07005 -0.86745,1.9375 -1.9375,1.9375 -1.07005,0 -1.9375,-0.86745 -1.9375,-1.9375 0,-1.07005 0.86745,-1.9375 1.9375,-1.9375 1.07005,0 1.9375,0.86745 1.9375,1.9375 z"
       id="path12347-2"
       sodipodi:rx="1.9375"
       sodipodi:ry="1.9375"
       sodipodi:cx="-188"
       style="color:#000000;fill:none;fill-opacity:1;stroke:#000000;stroke-width:1.20916021000000007;stroke-miterlimit:4;stroke-dasharray:none;marker:none;visibility:visible;display:inline;overflow:visible;enable-background:accumulate;stroke-opacity:1" />
    <path
       sodipodi:cy="184.0625"
       transform="matrix(0.69062283,0,0,0.68723358,242.0825,283.75804)"
       sodipodi:type="arc"
       d="m -186.0625,184.0625 c 0,1.07005 -0.86745,1.9375 -1.9375,1.9375 -1.07005,0 -1.9375,-0.86745 -1.9375,-1.9375 0,-1.07005 0.86745,-1.9375 1.9375,-1.9375 1.07005,0 1.9375,0.86745 1.9375,1.9375 z"
       id="path12347-7"
       sodipodi:rx="1.9375"
       sodipodi:ry="1.9375"
       sodipodi:cx="-188"
       style="color:#000000;fill:#000000;fill-opacity:1;stroke:#000000;stroke-width:1.20916021000000007;stroke-miterlimit:4;stroke-dasharray:none;marker:none;visibility:visible;display:inline;overflow:visible;enable-background:accumulate;stroke-opacity:1" />
  </g>
  <g
     transform="translate(-100,-398)"
     inkscape:groupmode="layer"
     id="layer10"
     inkscape:label="devices" />
  <g
     transform="translate(-100,-398)"
     inkscape:groupmode="layer"
     id="layer11"
     inkscape:label="apps" />
  <g
     transform="translate(-100,-398)"
     inkscape:groupmode="layer"
     id="layer12"
     inkscape:label="actions" />
  <g
     transform="translate(-100,-398)"
     inkscape:groupmode="layer"
     id="layer13"
     inkscape:label="places" />
  <g
     transform="translate(-100,-398)"
     inkscape:groupmode="layer"
     id="layer14"
     inkscape:label="mimetypes" />
  <g
     transform="translate(-100,-398)"
     inkscape:groupmode="layer"
     id="layer15"
     inkscape:label="emblems"
     style="display:inline" />
  <g
     transform="translate(-100,-398)"
     inkscape:groupmode="layer"
     id="g4953"
     inkscape:label="categories"
     style="display:inline" />
</svg>
