<?xml version="1.0" encoding="UTF-8" standalone="no"?>
<!-- Created with Inkscape (http://www.inkscape.org/) -->

<svg
   xmlns:dc="http://purl.org/dc/elements/1.1/"
   xmlns:cc="http://creativecommons.org/ns#"
   xmlns:rdf="http://www.w3.org/1999/02/22-rdf-syntax-ns#"
   xmlns:svg="http://www.w3.org/2000/svg"
   xmlns="http://www.w3.org/2000/svg"
   xmlns:sodipodi="http://sodipodi.sourceforge.net/DTD/sodipodi-0.dtd"
   xmlns:inkscape="http://www.inkscape.org/namespaces/inkscape"
   version="1.1"
   width="16"
   height="16"
   viewBox="0 0 4.5155556 4.5155556"
   id="svg2"
   xml:space="preserve"
   style="fill-rule:evenodd"
   inkscape:version="0.48.5 r10040"
   sodipodi:docname="avatar-default-symbolic.svg"><sodipodi:namedview
     pagecolor="#ffffff"
     bordercolor="#666666"
     borderopacity="1"
     objecttolerance="10"
     gridtolerance="10"
     guidetolerance="10"
     inkscape:pageopacity="0"
     inkscape:pageshadow="2"
     inkscape:window-width="1914"
     inkscape:window-height="1031"
     id="namedview9"
     showgrid="false"
     inkscape:zoom="31.474116"
     inkscape:cx="13.288136"
     inkscape:cy="4.0677966"
     inkscape:window-x="0"
     inkscape:window-y="25"
     inkscape:window-maximized="1"
     inkscape:current-layer="svg2" /><metadata
     id="metadata20"><rdf:RDF><cc:Work
         rdf:about=""><dc:format>image/svg+xml</dc:format><dc:type
           rdf:resource="http://purl.org/dc/dcmitype/StillImage" /><dc:title /></cc:Work></rdf:RDF></metadata><defs
     id="defs4"><style
       type="text/css"
       id="style6" /></defs><path
     inkscape:connector-curvature="0"
     style="fill:#ffffff;fill-opacity:1;fill-rule:nonzero"
     id="path10-3"
     d="m 2.9870915,0.87990437 c 0,0.46943543 -0.3771255,0.85002583 -0.8423205,0.85002583 -0.464923,0 -0.8420593,-0.3805904 -0.8420593,-0.85002583 0,-0.46934468 0.3771363,-0.84958246 0.8420593,-0.84958246 0.465195,0 0.8423205,0.38023778 0.8423205,0.84958246 z" /><path
     inkscape:connector-curvature="0"
     style="fill:#ffffff;fill-opacity:1;fill-rule:nonzero"
     id="path12-7"
     d="m 3.8710934,4.4609874 c -0.3367362,0 -0.6960025,0.016473 -1.1907035,0.016473 L 2.6268332,3.0456024 C 2.6179388,2.8078063 2.3277102,2.8077108 2.1787064,2.7950299 c -0.052172,-0.00444 -0.126183,8.112e-4 -0.1891341,0.012947 -0.1920908,0.019639 -0.2997744,0.13817 -0.29594,0.3054609 l 0.030887,1.3475495 c 0,0 -0.73008499,0 -1.24178729,0 0,-1.6409871 -0.34241558,-2.8919415 1.63508229,-2.8755098 1.9774979,0.016431 1.7196572,1.3605783 1.7532793,2.8755094 z"
     sodipodi:nodetypes="ccsscsccsc" /><g
     transform="matrix(0.95922736,0,0,0.95922736,-0.03257571,0.04479706)"
     id="g2988"
     style="fill:#000000;fill-opacity:1"><path
       d="m 2.9200479,0.86692009 c 0,0.35895511 -0.2883701,0.64997461 -0.6440828,0.64997461 -0.3555048,0 -0.6438831,-0.2910195 -0.6438831,-0.64997461 0,-0.35888579 0.2883783,-0.64963573 0.6438831,-0.64963573 0.3557127,0 0.6440828,0.29074994 0.6440828,0.64963573 z"
       id="path10"
       style="fill:#000000;fill-opacity:1;fill-rule:nonzero"
       inkscape:connector-curvature="0" /><path
       d="m 3.8136003,4.3765119 c -0.3012333,0 -0.2910719,0 -0.7336153,0 0,-1.1186108 0.1349117,-1.8112052 -0.7848669,-1.7971653 -0.9197778,0.01404 -0.7475419,0.4195821 -0.7701617,1.7971653 0,0 -0.284722,0 -0.74247422,0 0,-1.4679736 -0.30631386,-2.5870366 1.46269122,-2.5723374 1.7690051,0.014699 1.5383492,1.217129 1.5684269,2.5723374 z"
       id="path12"
       style="fill:#000000;fill-opacity:1;fill-rule:nonzero"
       inkscape:connector-curvature="0" /></g></svg>