<?xml version="1.0" encoding="UTF-8" standalone="no"?>
<!-- Created with Inkscape (http://www.inkscape.org/) -->

<svg
   xmlns:dc="http://purl.org/dc/elements/1.1/"
   xmlns:cc="http://creativecommons.org/ns#"
   xmlns:rdf="http://www.w3.org/1999/02/22-rdf-syntax-ns#"
   xmlns:svg="http://www.w3.org/2000/svg"
   xmlns="http://www.w3.org/2000/svg"
   xmlns:sodipodi="http://sodipodi.sourceforge.net/DTD/sodipodi-0.dtd"
   xmlns:inkscape="http://www.inkscape.org/namespaces/inkscape"
   id="svg7384"
   version="1.1"
   inkscape:version="0.48.5 r10040"
   height="16"
   sodipodi:docname="battery-empty-symbolic.svg"
   width="16">
  <metadata
     id="metadata90">
    <rdf:RDF>
      <cc:Work
         rdf:about="">
        <dc:format>image/svg+xml</dc:format>
        <dc:type
           rdf:resource="http://purl.org/dc/dcmitype/StillImage" />
        <dc:title>Gnome Symbolic Icon Theme</dc:title>
      </cc:Work>
    </rdf:RDF>
  </metadata>
  <sodipodi:namedview
     inkscape:object-paths="true"
     inkscape:cy="8.91"
     inkscape:current-layer="layer9"
     inkscape:window-width="1914"
     pagecolor="#ffffff"
     showborder="true"
     showguides="true"
     inkscape:snap-nodes="false"
     objecttolerance="10"
     showgrid="true"
     inkscape:object-nodes="true"
     inkscape:pageshadow="2"
     inkscape:guide-bbox="true"
     inkscape:window-x="0"
     inkscape:snap-bbox="true"
     bordercolor="#666666"
     id="namedview88"
     inkscape:window-maximized="1"
     inkscape:snap-global="true"
     inkscape:window-y="25"
     gridtolerance="10"
     inkscape:zoom="26.6"
     inkscape:window-height="1031"
     borderopacity="1"
     guidetolerance="10"
     inkscape:snap-bbox-midpoints="false"
     inkscape:cx="16.893985"
     inkscape:bbox-paths="false"
     inkscape:snap-grids="true"
     inkscape:pageopacity="0"
     inkscape:snap-to-guides="true"
     borderlayer="true">
    <inkscape:grid
       visible="true"
       spacingx="1px"
       type="xygrid"
       spacingy="1px"
       id="grid4866"
       empspacing="2"
       enabled="true"
       snapvisiblegridlinesonly="true" />
  </sodipodi:namedview>
  <title
     id="title9167">Gnome Symbolic Icon Theme</title>
  <defs
     id="defs7386" />
  <g
     transform="translate(-141,-217)"
     inkscape:groupmode="layer"
     id="layer9"
     inkscape:label="status"
     style="display:inline">
    <g
       transform="matrix(0,1,-1,0,393,197)"
       id="g10518"
       inkscape:label="battery-empty"
       style="display:inline">
      <desc
         id="desc10524">Used when multiple batteries are installed and one is completely empty.</desc>
    </g>
    <g
       id="g3016"
       transform="matrix(0.8,0,0,0.8,30.2,45)">
      <path
         style="font-size:medium;font-style:normal;font-variant:normal;font-weight:normal;font-stretch:normal;text-indent:0;text-align:start;text-decoration:none;line-height:normal;letter-spacing:normal;word-spacing:normal;text-transform:none;direction:ltr;block-progression:tb;writing-mode:lr-tb;text-anchor:start;baseline-shift:baseline;color:#bebebe;fill:#ffffff;fill-opacity:1;stroke:none;stroke-width:2.00300002;marker:none;visibility:visible;display:inline;overflow:visible;enable-background:accumulate;font-family:Sans;-inkscape-font-specification:Sans"
         id="path3434-1"
         d="m 143.72727,215 0,1.25 0,1.25 -1.36363,0 -1.36364,0 0,1.25 0,15 0,1.25 1.36364,0 12.27272,0 1.36364,0 0,-1.25 0,-15 0,-1.25 -1.36364,0 -1.36364,0 c 0,0 0,0 0,-1.25 0,0 0,0 0,-1.25 -1.36363,0 -1.36363,0 -1.36363,0 -1.36364,0 -1.36364,0 -1.36364,0 l -5.45454,0 -1.36364,0 z m 2.72727,2.5 4.09091,0 0,1.25 0,1.25 1.36364,0 1.36363,0 0,12.49999 -9.54545,0 0,-12.49999 1.36364,0 1.36363,0 0,-1.25 0,-1.25 z"
         inkscape:connector-curvature="0" />
      <rect
         transform="translate(141,217)"
         y="0.69924814"
         x="2.8195488"
         height="14.097744"
         width="8.9473686"
         id="rect3014"
         style="fill:#ffffff;fill-opacity:1;stroke:none" />
      <path
         style="font-size:medium;font-style:normal;font-variant:normal;font-weight:normal;font-stretch:normal;text-indent:0;text-align:start;text-decoration:none;line-height:normal;letter-spacing:normal;word-spacing:normal;text-transform:none;direction:ltr;block-progression:tb;writing-mode:lr-tb;text-anchor:start;baseline-shift:baseline;color:#bebebe;fill:#000000;fill-opacity:1;stroke:none;stroke-width:2.00300002;marker:none;visibility:visible;display:inline;overflow:visible;enable-background:accumulate;font-family:Sans;-inkscape-font-specification:Sans"
         id="path3434"
         d="m 145,217 0,1 0,1 -1,0 -1,0 0,1 0,12 0,1 1,0 9,0 1,0 0,-1 0,-12 0,-1 -1,0 -1,0 c 0,0 0,0 0,-1 0,0 0,0 0,-1 -1,0 -1,0 -1,0 -1,0 -1,0 -1,0 l -4,0 -1,0 z m 2,2 3,0 0,1 0,1 1,0 1,0 0,10 -7,0 0,-10 1,0 1,0 0,-1 0,-1 z"
         inkscape:connector-curvature="0" />
    </g>
  </g>
  <g
     transform="translate(-141,-217)"
     inkscape:groupmode="layer"
     id="layer10"
     inkscape:label="devices" />
  <g
     transform="translate(-141,-217)"
     inkscape:groupmode="layer"
     id="layer11"
     inkscape:label="apps" />
  <g
     transform="translate(-141,-217)"
     inkscape:groupmode="layer"
     id="layer12"
     inkscape:label="actions" />
  <g
     transform="translate(-141,-217)"
     inkscape:groupmode="layer"
     id="layer13"
     inkscape:label="places" />
  <g
     transform="translate(-141,-217)"
     inkscape:groupmode="layer"
     id="layer14"
     inkscape:label="mimetypes" />
  <g
     transform="translate(-141,-217)"
     inkscape:groupmode="layer"
     id="layer15"
     inkscape:label="emblems"
     style="display:inline" />
  <g
     transform="translate(-141,-217)"
     inkscape:groupmode="layer"
     id="g4953"
     inkscape:label="categories"
     style="display:inline" />
</svg>
