<?xml version="1.0" encoding="UTF-8" standalone="no"?>
<!-- Created with Inkscape (http://www.inkscape.org/) -->

<svg
   xmlns:dc="http://purl.org/dc/elements/1.1/"
   xmlns:cc="http://creativecommons.org/ns#"
   xmlns:rdf="http://www.w3.org/1999/02/22-rdf-syntax-ns#"
   xmlns:svg="http://www.w3.org/2000/svg"
   xmlns="http://www.w3.org/2000/svg"
   xmlns:sodipodi="http://sodipodi.sourceforge.net/DTD/sodipodi-0.dtd"
   xmlns:inkscape="http://www.inkscape.org/namespaces/inkscape"
   id="svg7384"
   sodipodi:docname="battery-good-symbolic.svg"
   version="1.1"
   inkscape:version="0.48.5 r10040"
   height="16"
   width="16">
  <metadata
     id="metadata90">
    <rdf:RDF>
      <cc:Work
         rdf:about="">
        <dc:format>image/svg+xml</dc:format>
        <dc:type
           rdf:resource="http://purl.org/dc/dcmitype/StillImage" />
        <dc:title>Gnome Symbolic Icon Theme</dc:title>
      </cc:Work>
    </rdf:RDF>
  </metadata>
  <sodipodi:namedview
     inkscape:cy="6.0781993"
     pagecolor="#ffffff"
     borderopacity="1"
     showborder="true"
     inkscape:bbox-paths="false"
     guidetolerance="10"
     inkscape:object-paths="true"
     inkscape:window-width="1914"
     showguides="true"
     inkscape:object-nodes="true"
     inkscape:snap-bbox="true"
     inkscape:pageshadow="2"
     inkscape:guide-bbox="true"
     inkscape:snap-nodes="false"
     bordercolor="#666666"
     objecttolerance="10"
     id="namedview88"
     showgrid="true"
     inkscape:window-maximized="1"
     inkscape:window-x="0"
     inkscape:snap-global="true"
     inkscape:window-y="25"
     gridtolerance="10"
     inkscape:window-height="1031"
     inkscape:snap-to-guides="true"
     inkscape:current-layer="layer9"
     inkscape:snap-bbox-midpoints="false"
     inkscape:zoom="27.137746"
     inkscape:cx="14.50237"
     inkscape:snap-grids="true"
     inkscape:pageopacity="0"
     borderlayer="true">
    <inkscape:grid
       spacingx="1px"
       spacingy="1px"
       id="grid4866"
       empspacing="2"
       enabled="true"
       type="xygrid"
       snapvisiblegridlinesonly="true"
       visible="true" />
    <sodipodi:guide
       orientation="1,0"
       position="2,10.538827"
       id="guide3013" />
    <sodipodi:guide
       orientation="0,1"
       position="6,0"
       id="guide3015" />
  </sodipodi:namedview>
  <title
     id="title9167">Gnome Symbolic Icon Theme</title>
  <defs
     id="defs7386" />
  <g
     inkscape:label="status"
     transform="translate(-61.0002,-217)"
     inkscape:groupmode="layer"
     id="layer9"
     style="display:inline">
    <path
       inkscape:connector-curvature="0"
       d="m 66.346061,217.15795 c -0.537499,0 -0.872654,0.22891 -1.130461,0.46967 -0.257808,0.24077 -0.47959,0.5596 -0.47959,1.03327 l 0,0.46966 -1.096204,0 -1.096204,0 0,1.00196 0,12.02348 0,1.00196 1.096204,0 9.865839,0 1.096204,0 0,-1.00196 0,-12.02348 0,-1.00196 -1.096204,0 -1.096203,0 0,-0.34442 0,-0.0313 c -0.02624,-0.43144 -0.186614,-0.75377 -0.445334,-1.03328 -0.245258,-0.26495 -0.686976,-0.53034 -1.267486,-0.53228 l 0,-0.0314 -0.06851,0 -4.282048,0 z m 0.582359,2.00391 3.288612,0 0,0.97065 0,1.00196 1.096204,0 1.096206,0 0,10.01957 -7.673432,0 0,-10.01957 1.096206,0 1.096204,0 0,-1.00196 0,-0.97065 z"
       id="path2930-7"
       style="font-size:medium;font-style:normal;font-variant:normal;font-weight:normal;font-stretch:normal;text-indent:0;text-align:start;text-decoration:none;line-height:normal;letter-spacing:normal;word-spacing:normal;text-transform:none;direction:ltr;block-progression:tb;writing-mode:lr-tb;text-anchor:start;baseline-shift:baseline;color:#bebebe;fill:#ffffff;fill-opacity:1;stroke:none;stroke-width:2;marker:none;visibility:visible;display:inline;overflow:visible;enable-background:accumulate;font-family:Sans;-inkscape-font-specification:Sans" />
    <rect
       style="fill:#ffffff;fill-opacity:1;stroke:none"
       id="rect3032"
       width="7.180738"
       height="11.02616"
       x="64.819466"
       y="219.97385" />
    <path
       inkscape:connector-curvature="0"
       d="m 66.939677,218.79082 c -0.394165,0 -0.639946,0.18365 -0.829004,0.37682 -0.189059,0.19318 -0.351699,0.44898 -0.351699,0.82901 l 0,0.37682 -0.803883,0 -0.803884,0 0,0.80388 0,9.6466 0,0.80388 0.803884,0 7.234948,0 0.803883,0 0,-0.80388 0,-9.6466 0,-0.80388 -0.803883,0 -0.803883,0 0,-0.27634 0,-0.0251 c -0.01924,-0.34615 -0.13685,-0.60475 -0.326578,-0.829 -0.179856,-0.21258 -0.503783,-0.42551 -0.92949,-0.42707 l 0,-0.0251 -0.05024,0 -3.140169,0 z m 0.427063,1.60777 2.411649,0 0,0.77876 0,0.80388 0.803884,0 0.803883,0 0,8.03883 -5.627182,0 0,-8.03883 0.803883,0 0.803883,0 0,-0.80388 0,-0.77876 z"
       id="path2930"
       style="font-size:medium;font-style:normal;font-variant:normal;font-weight:normal;font-stretch:normal;text-indent:0;text-align:start;text-decoration:none;line-height:normal;letter-spacing:normal;word-spacing:normal;text-transform:none;direction:ltr;block-progression:tb;writing-mode:lr-tb;text-anchor:start;baseline-shift:baseline;color:#bebebe;fill:#000000;fill-opacity:1;stroke:none;stroke-width:2;marker:none;visibility:visible;display:inline;overflow:visible;enable-background:accumulate;font-family:Sans;-inkscape-font-specification:Sans" />
    <rect
       transform="matrix(0,1,1,0,0,0)"
       x="225.19678"
       class="success"
       y="66.563019"
       id="rect4227"
       height="4.0194159"
       width="1.6077663"
       style="fill:#000000;fill-opacity:1;stroke:none" />
    <rect
       transform="matrix(0,1,1,0,0,0)"
       class="success"
       x="227.60843"
       y="66.563019"
       id="rect4229"
       height="4.0194159"
       style="fill:#000000;fill-opacity:1;stroke:none"
       width="1.6077663" />
  </g>
  <g
     inkscape:label="devices"
     transform="translate(-61.0002,-217)"
     inkscape:groupmode="layer"
     id="layer10" />
  <g
     inkscape:label="apps"
     transform="translate(-61.0002,-217)"
     inkscape:groupmode="layer"
     id="layer11" />
  <g
     inkscape:label="actions"
     transform="translate(-61.0002,-217)"
     inkscape:groupmode="layer"
     id="layer12" />
  <g
     inkscape:label="places"
     transform="translate(-61.0002,-217)"
     inkscape:groupmode="layer"
     id="layer13" />
  <g
     inkscape:label="mimetypes"
     transform="translate(-61.0002,-217)"
     inkscape:groupmode="layer"
     id="layer14" />
  <g
     inkscape:label="emblems"
     transform="translate(-61.0002,-217)"
     inkscape:groupmode="layer"
     id="layer15"
     style="display:inline" />
  <g
     inkscape:label="categories"
     transform="translate(-61.0002,-217)"
     inkscape:groupmode="layer"
     id="g4953"
     style="display:inline" />
</svg>
