<?xml version="1.0" encoding="UTF-8" standalone="no"?>
<!-- Created with Inkscape (http://www.inkscape.org/) -->

<svg
   xmlns:dc="http://purl.org/dc/elements/1.1/"
   xmlns:cc="http://creativecommons.org/ns#"
   xmlns:rdf="http://www.w3.org/1999/02/22-rdf-syntax-ns#"
   xmlns:svg="http://www.w3.org/2000/svg"
   xmlns="http://www.w3.org/2000/svg"
   xmlns:sodipodi="http://sodipodi.sourceforge.net/DTD/sodipodi-0.dtd"
   xmlns:inkscape="http://www.inkscape.org/namespaces/inkscape"
   id="svg7384"
   version="1.1"
   inkscape:version="0.48.5 r10040"
   height="16"
   sodipodi:docname="battery-empty-charging-symbolic.svg"
   width="16">
  <metadata
     id="metadata90">
    <rdf:RDF>
      <cc:Work
         rdf:about="">
        <dc:format>image/svg+xml</dc:format>
        <dc:type
           rdf:resource="http://purl.org/dc/dcmitype/StillImage" />
        <dc:title>Gnome Symbolic Icon Theme</dc:title>
      </cc:Work>
    </rdf:RDF>
  </metadata>
  <sodipodi:namedview
     inkscape:object-paths="true"
     inkscape:cy="-5.5725731"
     inkscape:current-layer="layer9"
     inkscape:window-width="1914"
     pagecolor="#ffffff"
     showborder="true"
     showguides="true"
     inkscape:snap-nodes="false"
     objecttolerance="10"
     showgrid="true"
     inkscape:object-nodes="true"
     inkscape:pageshadow="2"
     inkscape:guide-bbox="true"
     inkscape:window-x="0"
     inkscape:snap-bbox="true"
     bordercolor="#666666"
     id="namedview88"
     inkscape:window-maximized="1"
     inkscape:snap-global="false"
     inkscape:window-y="25"
     gridtolerance="10"
     inkscape:zoom="10.831108"
     inkscape:window-height="1031"
     borderopacity="1"
     guidetolerance="10"
     inkscape:snap-bbox-midpoints="false"
     inkscape:cx="23.62771"
     inkscape:bbox-paths="false"
     inkscape:snap-grids="true"
     inkscape:pageopacity="0"
     inkscape:snap-to-guides="true">
    <inkscape:grid
       visible="true"
       spacingx="1px"
       type="xygrid"
       spacingy="1px"
       id="grid4866"
       empspacing="2"
       enabled="true"
       snapvisiblegridlinesonly="true" />
  </sodipodi:namedview>
  <title
     id="title9167">Gnome Symbolic Icon Theme</title>
  <defs
     id="defs7386" />
  <g
     transform="translate(-261.0002,-217)"
     inkscape:groupmode="layer"
     id="layer9"
     inkscape:label="status"
     style="display:inline">
    <path
       style="fill:#ffffff;stroke:none;display:inline"
       d="m 263.31888,219.73868 10.42373,-0.0374 0.91218,3.80017 0.0104,2.4824 1.59548,-0.006 0.14178,2.88533 -3.51003,4.16896 -9.46646,-0.26178 z"
       id="path3049"
       inkscape:connector-curvature="0"
       sodipodi:nodetypes="ccccccccc" />
    <path
       inkscape:connector-curvature="0"
       d="m 266.13896,217.08769 c -0.55443,0 -0.90014,0.22808 -1.16608,0.46798 -0.26591,0.23992 -0.49467,0.5576 -0.49467,1.02957 l 0,0.46799 -1.13074,0 -1.13073,0 0,0.99836 0,11.98034 0,0.99837 1.13073,0 7.91511,0 0,-1.99672 -6.78437,0 0,-9.98364 1.13071,0 1.13076,0 0,-0.99835 0,-0.96717 3.39218,0 0,0.96717 0,0.99835 1.13072,0 1.13075,0 0,2.99509 2.26146,0 0,-3.99344 0,-0.99836 -1.13073,0 -1.13073,0 0,-0.3432 0,-0.0311 c -0.0271,-0.4299 -0.19249,-0.75106 -0.45935,-1.02955 -0.25298,-0.26402 -0.70862,-0.52845 -1.30743,-0.53041 l 0,-0.0311 -0.0707,0 -4.41692,0 z"
       id="path6308-5"
       style="font-size:medium;font-style:normal;font-variant:normal;font-weight:normal;font-stretch:normal;text-indent:0;text-align:start;text-decoration:none;line-height:normal;letter-spacing:normal;word-spacing:normal;text-transform:none;direction:ltr;block-progression:tb;writing-mode:lr-tb;text-anchor:start;color:#bebebe;fill:#ffffff;fill-opacity:1;stroke:none;stroke-width:2;marker:none;visibility:visible;display:inline;overflow:visible;enable-background:accumulate;font-family:Bitstream Vera Sans;-inkscape-font-specification:Bitstream Vera Sans" />
    <path
       d="m 267.07354,218.61497 c -0.39045,0 -0.6339,0.18191 -0.82118,0.37326 -0.18726,0.19133 -0.34836,0.44472 -0.34836,0.82115 l 0,0.37326 -0.79627,0 -0.79628,0 0,0.79627 0,9.55529 0,0.79627 0.79628,0 5.57391,0 0,-1.59254 -4.77764,0 0,-7.96274 0.79627,0 0.79628,0 0,-0.79628 0,-0.7714 2.38883,0 0,0.7714 0,0.79628 0.79626,0 0.79628,0 0,2.38883 1.59256,0 0,-3.18511 0,-0.79627 -0.79627,0 -0.79629,0 0,-0.27372 0,-0.0248 c -0.0191,-0.34288 -0.13556,-0.59903 -0.32348,-0.82116 -0.17815,-0.21056 -0.49903,-0.42146 -0.9207,-0.42302 l 0,-0.0248 -0.0498,0 -3.11045,0 z"
       id="path6308"
       style="font-size:medium;font-style:normal;font-variant:normal;font-weight:normal;font-stretch:normal;text-indent:0;text-align:start;text-decoration:none;line-height:normal;letter-spacing:normal;word-spacing:normal;text-transform:none;direction:ltr;block-progression:tb;writing-mode:lr-tb;text-anchor:start;color:#bebebe;fill:#000000;fill-opacity:1;stroke:none;stroke-width:2;marker:none;visibility:visible;display:inline;overflow:visible;enable-background:accumulate;font-family:Bitstream Vera Sans;-inkscape-font-specification:Bitstream Vera Sans"
       inkscape:connector-curvature="0" />
    <g
       id="g3008"
       style="fill:#000000;fill-opacity:1;display:inline"
       transform="matrix(0.7962744,0,0,0.7962744,72.409334,45.798532)">
      <path
         style="font-size:medium;font-style:normal;font-variant:normal;font-weight:normal;font-stretch:normal;text-indent:0;text-align:start;text-decoration:none;line-height:normal;letter-spacing:normal;word-spacing:normal;text-transform:none;direction:ltr;block-progression:tb;writing-mode:lr-tb;text-anchor:start;color:#bebebe;fill:#000000;fill-opacity:1;fill-rule:nonzero;stroke:none;stroke-width:2;marker:none;visibility:visible;display:inline;overflow:visible;enable-background:accumulate;font-family:Bitstream Vera Sans;-inkscape-font-specification:Bitstream Vera Sans"
         id="path6312"
         d="m 251.875,225 a 1.0001,1.0001 0 0 0 -0.59375,0.28125 l -3,3 A 1.0001,1.0001 0 0 0 249,230 l 2.5625,0 -1.28125,1.28125 a 1.016466,1.016466 0 1 0 1.4375,1.4375 l 3,-3 A 1.0001,1.0001 0 0 0 254,228 l -2.5625,0 1.28125,-1.28125 A 1.0001,1.0001 0 0 0 251.875,225 z"
         inkscape:connector-curvature="0" />
      <rect
         style="color:#bebebe;fill:#000000;fill-opacity:1;fill-rule:nonzero;stroke:none;stroke-width:2;marker:none;visibility:visible;display:inline;overflow:visible"
         width="1"
         height="1"
         id="rect6314"
         y="227.99976"
         x="254.00044" />
      <rect
         width="1"
         style="color:#bebebe;fill:#000000;fill-opacity:1;fill-rule:nonzero;stroke:none;stroke-width:2;marker:none;visibility:visible;display:inline;overflow:visible"
         height="1"
         id="rect6316"
         y="228.99976"
         x="248.00044" />
      <rect
         style="color:#bebebe;fill:#000000;fill-opacity:1;fill-rule:nonzero;stroke:none;stroke-width:2;marker:none;visibility:visible;display:inline;overflow:visible"
         width="1"
         height="1"
         id="rect6318"
         y="224.99976"
         x="252.00044" />
      <rect
         width="1"
         style="color:#bebebe;fill:#000000;fill-opacity:1;fill-rule:nonzero;stroke:none;stroke-width:2;marker:none;visibility:visible;display:inline;overflow:visible"
         height="1"
         id="rect6320"
         y="231.99976"
         x="250.00044" />
      <path
         style="font-size:medium;font-style:normal;font-variant:normal;font-weight:normal;font-stretch:normal;text-indent:0;text-align:start;text-decoration:none;line-height:normal;letter-spacing:normal;word-spacing:normal;text-transform:none;direction:ltr;block-progression:tb;writing-mode:lr-tb;text-anchor:start;color:#bebebe;fill:#000000;fill-opacity:1;fill-rule:nonzero;stroke:none;stroke-width:2;marker:none;visibility:visible;display:inline;overflow:visible;enable-background:accumulate;font-family:Bitstream Vera Sans;-inkscape-font-specification:Bitstream Vera Sans"
         id="path6322"
         d="m 251.15625,225.4375 -2,3 1.6875,1.125 2,-3 -1.6875,-1.125 z"
         inkscape:connector-curvature="0" />
      <path
         style="font-size:medium;font-style:normal;font-variant:normal;font-weight:normal;font-stretch:normal;text-indent:0;text-align:start;text-decoration:none;line-height:normal;letter-spacing:normal;word-spacing:normal;text-transform:none;direction:ltr;block-progression:tb;writing-mode:lr-tb;text-anchor:start;color:#bebebe;fill:#000000;fill-opacity:1;fill-rule:nonzero;stroke:none;stroke-width:2;marker:none;visibility:visible;display:inline;overflow:visible;enable-background:accumulate;font-family:Bitstream Vera Sans;-inkscape-font-specification:Bitstream Vera Sans"
         id="path6324"
         d="m 252.15625,228.4375 -2,3 1.6875,1.125 2,-3 -1.6875,-1.125 z"
         inkscape:connector-curvature="0" />
      <path
         style="color:#bebebe;fill:#000000;fill-opacity:1;fill-rule:nonzero;stroke:none;stroke-width:2;marker:none;visibility:visible;display:inline;overflow:visible"
         sodipodi:nodetypes="cccc"
         id="path6326"
         d="m 250.0002,225 2,-2 -2,0 0,2 z"
         inkscape:connector-curvature="0" />
    </g>
  </g>
  <g
     transform="translate(-261.0002,-217)"
     inkscape:groupmode="layer"
     id="layer10"
     inkscape:label="devices" />
  <g
     transform="translate(-261.0002,-217)"
     inkscape:groupmode="layer"
     id="layer11"
     inkscape:label="apps" />
  <g
     transform="translate(-261.0002,-217)"
     inkscape:groupmode="layer"
     id="layer12"
     inkscape:label="actions" />
  <g
     transform="translate(-261.0002,-217)"
     inkscape:groupmode="layer"
     id="layer13"
     inkscape:label="places" />
  <g
     transform="translate(-261.0002,-217)"
     inkscape:groupmode="layer"
     id="layer14"
     inkscape:label="mimetypes" />
  <g
     transform="translate(-261.0002,-217)"
     inkscape:groupmode="layer"
     id="layer15"
     inkscape:label="emblems"
     style="display:inline" />
  <g
     transform="translate(-261.0002,-217)"
     inkscape:groupmode="layer"
     id="g4953"
     inkscape:label="categories"
     style="display:inline" />
</svg>
