<?xml version="1.0" encoding="UTF-8" standalone="no"?>
<!-- Created with Inkscape (http://www.inkscape.org/) -->

<svg
   xmlns:dc="http://purl.org/dc/elements/1.1/"
   xmlns:cc="http://creativecommons.org/ns#"
   xmlns:rdf="http://www.w3.org/1999/02/22-rdf-syntax-ns#"
   xmlns:svg="http://www.w3.org/2000/svg"
   xmlns="http://www.w3.org/2000/svg"
   xmlns:sodipodi="http://sodipodi.sourceforge.net/DTD/sodipodi-0.dtd"
   xmlns:inkscape="http://www.inkscape.org/namespaces/inkscape"
   id="svg7384"
   sodipodi:docname="battery-low-symbolic.svg"
   version="1.1"
   inkscape:version="0.48.5 r10040"
   height="16"
   width="16">
  <metadata
     id="metadata90">
    <rdf:RDF>
      <cc:Work
         rdf:about="">
        <dc:format>image/svg+xml</dc:format>
        <dc:type
           rdf:resource="http://purl.org/dc/dcmitype/StillImage" />
        <dc:title>Gnome Symbolic Icon Theme</dc:title>
      </cc:Work>
    </rdf:RDF>
  </metadata>
  <sodipodi:namedview
     inkscape:cy="4.0371371"
     pagecolor="#ffffff"
     borderopacity="1"
     showborder="true"
     inkscape:bbox-paths="false"
     guidetolerance="10"
     inkscape:object-paths="true"
     inkscape:window-width="1914"
     showguides="true"
     inkscape:object-nodes="true"
     inkscape:snap-bbox="true"
     inkscape:pageshadow="2"
     inkscape:guide-bbox="true"
     inkscape:snap-nodes="false"
     bordercolor="#666666"
     objecttolerance="10"
     id="namedview88"
     showgrid="true"
     inkscape:window-maximized="1"
     inkscape:window-x="0"
     inkscape:snap-global="true"
     inkscape:window-y="25"
     gridtolerance="10"
     inkscape:window-height="1031"
     inkscape:snap-to-guides="true"
     inkscape:current-layer="layer9"
     inkscape:snap-bbox-midpoints="false"
     inkscape:zoom="24.837144"
     inkscape:cx="20.12712"
     inkscape:snap-grids="true"
     inkscape:pageopacity="0"
     borderlayer="true">
    <inkscape:grid
       spacingx="1px"
       spacingy="1px"
       id="grid4866"
       empspacing="2"
       enabled="true"
       type="xygrid"
       snapvisiblegridlinesonly="true"
       visible="true" />
    <sodipodi:guide
       orientation="0,1"
       position="-5,0"
       id="guide3008" />
    <sodipodi:guide
       orientation="1,0"
       position="2,-2"
       id="guide3010" />
  </sodipodi:namedview>
  <title
     id="title9167">Gnome Symbolic Icon Theme</title>
  <defs
     id="defs7386" />
  <g
     inkscape:label="status"
     transform="translate(-81.0002,-217)"
     inkscape:groupmode="layer"
     id="layer9"
     style="display:inline">
    <path
       inkscape:connector-curvature="0"
       d="m 86.813645,217.18814 c -0.53118,0 -0.862395,0.22621 -1.117169,0.46414 -0.254782,0.23794 -0.473957,0.55301 -0.473957,1.02112 l 0,0.46413 -1.08331,0 -1.083318,0 0,0.99019 0,11.8821 0,0.99018 1.083318,0 9.749836,0 1.083311,0 0,-0.99018 0,-11.8821 0,-0.99019 -1.083311,0 -1.083317,0 0,-0.34037 0,-0.031 c -0.02589,-0.42636 -0.18442,-0.7449 -0.440099,-1.02112 -0.242373,-0.26184 -0.678897,-0.52411 -1.25258,-0.52603 l 0,-0.031 -0.06768,0 -4.231703,0 z m 0.57551,1.98034 3.249945,0 0,0.95924 0,0.99018 1.08331,0 1.083318,0 0,9.90175 -7.583209,0 0,-9.90175 1.083318,0 1.083318,0 0,-0.99018 0,-0.95924 z"
       id="path2930-7"
       style="font-size:medium;font-style:normal;font-variant:normal;font-weight:normal;font-stretch:normal;text-indent:0;text-align:start;text-decoration:none;line-height:normal;letter-spacing:normal;word-spacing:normal;text-transform:none;direction:ltr;block-progression:tb;writing-mode:lr-tb;text-anchor:start;baseline-shift:baseline;color:#bebebe;fill:#ffffff;fill-opacity:1;stroke:none;stroke-width:2;marker:none;visibility:visible;display:inline;overflow:visible;enable-background:accumulate;font-family:Sans;-inkscape-font-specification:Sans" />
    <rect
       style="fill:#ffffff;fill-opacity:1;stroke:none;display:inline"
       id="rect3032"
       width="7.0963058"
       height="10.896513"
       x="85.304993"
       y="219.97092" />
    <path
       inkscape:connector-curvature="0"
       d="m 87.400276,218.8018 c -0.389525,0 -0.632422,0.18149 -0.819257,0.37239 -0.186834,0.19091 -0.347563,0.4437 -0.347563,0.81926 l 0,0.37239 -0.794431,0 -0.794431,0 0,0.79443 0,9.53317 0,0.79443 0.794431,0 7.149878,0 0.794432,0 0,-0.79443 0,-9.53317 0,-0.79443 -0.794432,0 -0.79443,0 0,-0.27309 0,-0.0247 c -0.01898,-0.34209 -0.135236,-0.59764 -0.322738,-0.81926 -0.177738,-0.21009 -0.497862,-0.4205 -0.918561,-0.42204 l 0,-0.0248 -0.04965,0 -3.103247,0 z m 0.422042,1.58886 2.383292,0 0,0.76961 0,0.79443 0.794432,0 0.794431,0 0,7.94431 -5.561017,0 0,-7.94431 0.794431,0 0.794431,0 0,-0.79443 0,-0.76961 z"
       id="path2930"
       style="font-size:medium;font-style:normal;font-variant:normal;font-weight:normal;font-stretch:normal;text-indent:0;text-align:start;text-decoration:none;line-height:normal;letter-spacing:normal;word-spacing:normal;text-transform:none;direction:ltr;block-progression:tb;writing-mode:lr-tb;text-anchor:start;baseline-shift:baseline;color:#bebebe;fill:#000000;fill-opacity:1;stroke:none;stroke-width:2;marker:none;visibility:visible;display:inline;overflow:visible;enable-background:accumulate;font-family:Sans;-inkscape-font-specification:Sans" />
    <rect
       transform="matrix(0,1,1,0,0,0)"
       class="success"
       x="227.51572"
       y="87.028046"
       id="rect4229"
       height="3.9721549"
       style="fill:#000000;fill-opacity:1;stroke:none;display:inline"
       width="1.5888618" />
  </g>
  <g
     inkscape:label="devices"
     transform="translate(-81.0002,-217)"
     inkscape:groupmode="layer"
     id="layer10" />
  <g
     inkscape:label="apps"
     transform="translate(-81.0002,-217)"
     inkscape:groupmode="layer"
     id="layer11" />
  <g
     inkscape:label="actions"
     transform="translate(-81.0002,-217)"
     inkscape:groupmode="layer"
     id="layer12" />
  <g
     inkscape:label="places"
     transform="translate(-81.0002,-217)"
     inkscape:groupmode="layer"
     id="layer13" />
  <g
     inkscape:label="mimetypes"
     transform="translate(-81.0002,-217)"
     inkscape:groupmode="layer"
     id="layer14" />
  <g
     inkscape:label="emblems"
     transform="translate(-81.0002,-217)"
     inkscape:groupmode="layer"
     id="layer15"
     style="display:inline" />
  <g
     inkscape:label="categories"
     transform="translate(-81.0002,-217)"
     inkscape:groupmode="layer"
     id="g4953"
     style="display:inline" />
</svg>
