<?xml version="1.0" encoding="UTF-8" standalone="no"?>
<!-- Created with Inkscape (http://www.inkscape.org/) -->

<svg
   xmlns:dc="http://purl.org/dc/elements/1.1/"
   xmlns:cc="http://creativecommons.org/ns#"
   xmlns:rdf="http://www.w3.org/1999/02/22-rdf-syntax-ns#"
   xmlns:svg="http://www.w3.org/2000/svg"
   xmlns="http://www.w3.org/2000/svg"
   xmlns:sodipodi="http://sodipodi.sourceforge.net/DTD/sodipodi-0.dtd"
   xmlns:inkscape="http://www.inkscape.org/namespaces/inkscape"
   id="svg7384"
   sodipodi:docname="battery-missing-symbolic.svg"
   version="1.1"
   inkscape:version="0.48.5 r10040"
   height="16"
   width="16">
  <metadata
     id="metadata90">
    <rdf:RDF>
      <cc:Work
         rdf:about="">
        <dc:format>image/svg+xml</dc:format>
        <dc:type
           rdf:resource="http://purl.org/dc/dcmitype/StillImage" />
        <dc:title>Gnome Symbolic Icon Theme</dc:title>
      </cc:Work>
    </rdf:RDF>
  </metadata>
  <sodipodi:namedview
     inkscape:cy="8.1628023"
     pagecolor="#ffffff"
     borderopacity="1"
     showborder="true"
     inkscape:bbox-paths="false"
     guidetolerance="10"
     inkscape:object-paths="true"
     inkscape:window-width="1914"
     showguides="true"
     inkscape:object-nodes="true"
     inkscape:snap-bbox="true"
     inkscape:pageshadow="2"
     inkscape:guide-bbox="true"
     inkscape:snap-nodes="false"
     bordercolor="#666666"
     objecttolerance="10"
     id="namedview88"
     showgrid="false"
     inkscape:window-maximized="1"
     inkscape:window-x="0"
     inkscape:snap-global="true"
     inkscape:window-y="25"
     gridtolerance="10"
     inkscape:window-height="1031"
     inkscape:snap-to-guides="true"
     inkscape:current-layer="layer9"
     inkscape:snap-bbox-midpoints="false"
     inkscape:zoom="34.731418"
     inkscape:cx="10.53571"
     inkscape:snap-grids="true"
     inkscape:pageopacity="0"
     borderlayer="true">
    <inkscape:grid
       spacingx="1px"
       spacingy="1px"
       id="grid4866"
       empspacing="2"
       enabled="true"
       type="xygrid"
       snapvisiblegridlinesonly="true"
       visible="true" />
    <sodipodi:guide
       orientation="1,0"
       position="16.958664,0.57790982"
       id="guide3799" />
  </sodipodi:namedview>
  <title
     id="title9167">Gnome Symbolic Icon Theme</title>
  <defs
     id="defs7386" />
  <g
     inkscape:label="status"
     transform="translate(-121.0002,-217)"
     inkscape:groupmode="layer"
     id="layer9"
     style="display:inline">
    <path
       inkscape:connector-curvature="0"
       d="m 126.65369,216.98849 c -0.79618,0 -1.21322,0.31242 -1.21322,1.00032 l 0,1.00031 -3.63964,0 0,14.00434 9.70571,0 0,-4.70937 3.63964,0 0,-9.29497 -3.63964,0 0,-1.00031 c 0,-0.57831 -0.32206,-1.00032 -1.17531,-1.00032 z"
       id="path3761-9"
       style="color:#bebebe;fill:#ffffff;fill-opacity:1;stroke:none;stroke-width:2;marker:none;visibility:visible;display:inline;overflow:visible"
       sodipodi:nodetypes="ssccccccccsss" />
    <g
       style="display:inline"
       id="g3016"
       transform="matrix(0.8,0,0,0.8,9.7935049,45.02703)">
      <path
         style="font-size:medium;font-style:normal;font-variant:normal;font-weight:normal;font-stretch:normal;text-indent:0;text-align:start;text-decoration:none;line-height:normal;letter-spacing:normal;word-spacing:normal;text-transform:none;direction:ltr;block-progression:tb;writing-mode:lr-tb;text-anchor:start;baseline-shift:baseline;color:#bebebe;fill:#ffffff;fill-opacity:1;stroke:none;stroke-width:2.00300002;marker:none;visibility:visible;display:inline;overflow:visible;enable-background:accumulate;font-family:Sans;-inkscape-font-specification:Sans"
         id="path3434-1"
         d="m 143.72727,215 0,1.25 0,1.25 -1.36363,0 -1.36364,0 0,1.25 0,15 0,1.25 1.36364,0 12.27272,0 1.36364,0 0,-1.25 0,-15 0,-1.25 -1.36364,0 -1.36364,0 c 0,0 0,0 0,-1.25 0,0 0,0 0,-1.25 -1.36363,0 -1.36363,0 -1.36363,0 -1.36364,0 -1.36364,0 -1.36364,0 l -5.45454,0 -1.36364,0 z m 2.72727,2.5 4.09091,0 0,1.25 0,1.25 1.36364,0 1.36363,0 0,12.49999 -9.54545,0 0,-12.49999 1.36364,0 1.36363,0 0,-1.25 0,-1.25 z"
         inkscape:connector-curvature="0" />
      <rect
         transform="translate(141,217)"
         y="0.69924814"
         x="2.8195488"
         height="14.097744"
         width="8.9473686"
         id="rect3014"
         style="fill:#ffffff;fill-opacity:1;stroke:none" />
      <path
         style="font-size:medium;font-style:normal;font-variant:normal;font-weight:normal;font-stretch:normal;text-indent:0;text-align:start;text-decoration:none;line-height:normal;letter-spacing:normal;word-spacing:normal;text-transform:none;direction:ltr;block-progression:tb;writing-mode:lr-tb;text-anchor:start;baseline-shift:baseline;color:#bebebe;fill:#000000;fill-opacity:1;stroke:none;stroke-width:2.00300002;marker:none;visibility:visible;display:inline;overflow:visible;enable-background:accumulate;font-family:Sans;-inkscape-font-specification:Sans"
         id="path3434"
         d="m 145,217 0,1 0,1 -1,0 -1,0 0,1 0,12 0,1 1,0 9,0 1,0 0,-1 0,-12 0,-1 -1,0 -1,0 c 0,0 0,0 0,-1 0,0 0,0 0,-1 -1,0 -1,0 -1,0 -1,0 -1,0 -1,0 l -4,0 -1,0 z m 2,2 3,0 0,1 0,1 1,0 1,0 0,10 -7,0 0,-10 1,0 1,0 0,-1 0,-1 z"
         inkscape:connector-curvature="0" />
    </g>
    <path
       inkscape:connector-curvature="0"
       d="m 130.32278,226.8256 1.62806,-0.17275 1.23783,1.16418 1.08827,-0.99143 1.54728,0 0,1.67568 -0.77537,1.07928 0.79122,0.87318 -0.0158,2.20345 -1.58167,0 -1.23247,-1.1427 -1.10564,1.1427 -1.58167,0 0,-1.68026 0.90993,-1.12558 -0.90993,-1.4135 z"
       id="path3761-2-3-5-4-8-9-8-9-9-0-9"
       sodipodi:nodetypes="ccccccccccccccccc"
       style="color:#bebebe;fill:#ffffff;fill-opacity:1;stroke:none;stroke-width:2;marker:none;visibility:visible;display:inline;overflow:visible" />
    <path
       inkscape:connector-curvature="0"
       d="m 131.08098,227.53094 1.09392,0 0.89502,0.87017 0.87017,-0.87017 1.11878,0 0,1.16851 -0.87016,0.8453 0.87016,0.8453 0,1.11878 -1.14364,0 -0.84531,-0.8453 -0.8453,0.8453 -1.14364,0 0,-1.11878 0.8453,-0.8453 -0.8453,-0.8453 0,-1.16851 z"
       id="path3761-2-3-5-4-8-9-8-9-9-0"
       sodipodi:nodetypes="ccccccccccccccccc"
       style="color:#bebebe;fill:#000000;fill-opacity:1;stroke:none;stroke-width:2;marker:none;visibility:visible;display:inline;overflow:visible" />
  </g>
  <g
     inkscape:label="devices"
     transform="translate(-121.0002,-217)"
     inkscape:groupmode="layer"
     id="layer10" />
  <g
     inkscape:label="apps"
     transform="translate(-121.0002,-217)"
     inkscape:groupmode="layer"
     id="layer11" />
  <g
     inkscape:label="actions"
     transform="translate(-121.0002,-217)"
     inkscape:groupmode="layer"
     id="layer12" />
  <g
     inkscape:label="places"
     transform="translate(-121.0002,-217)"
     inkscape:groupmode="layer"
     id="layer13" />
  <g
     inkscape:label="mimetypes"
     transform="translate(-121.0002,-217)"
     inkscape:groupmode="layer"
     id="layer14" />
  <g
     inkscape:label="emblems"
     transform="translate(-121.0002,-217)"
     inkscape:groupmode="layer"
     id="layer15"
     style="display:inline" />
  <g
     inkscape:label="categories"
     transform="translate(-121.0002,-217)"
     inkscape:groupmode="layer"
     id="g4953"
     style="display:inline" />
</svg>
