<?xml version="1.0" encoding="UTF-8" standalone="no"?>
<!-- Created with Inkscape (http://www.inkscape.org/) -->

<svg
   xmlns:dc="http://purl.org/dc/elements/1.1/"
   xmlns:cc="http://creativecommons.org/ns#"
   xmlns:rdf="http://www.w3.org/1999/02/22-rdf-syntax-ns#"
   xmlns:svg="http://www.w3.org/2000/svg"
   xmlns="http://www.w3.org/2000/svg"
   xmlns:sodipodi="http://sodipodi.sourceforge.net/DTD/sodipodi-0.dtd"
   xmlns:inkscape="http://www.inkscape.org/namespaces/inkscape"
   id="svg7384"
   sodipodi:docname="battery-full-charging-symbolic.svg"
   version="1.1"
   inkscape:version="0.48.5 r10040"
   height="16"
   width="16">
  <metadata
     id="metadata90">
    <rdf:RDF>
      <cc:Work
         rdf:about="">
        <dc:format>image/svg+xml</dc:format>
        <dc:type
           rdf:resource="http://purl.org/dc/dcmitype/StillImage" />
        <dc:title>Gnome Symbolic Icon Theme</dc:title>
      </cc:Work>
    </rdf:RDF>
  </metadata>
  <sodipodi:namedview
     inkscape:cy="2.4484626"
     pagecolor="#ffffff"
     borderopacity="1"
     showborder="true"
     inkscape:bbox-paths="false"
     guidetolerance="10"
     inkscape:object-paths="true"
     inkscape:window-width="1914"
     showguides="true"
     inkscape:object-nodes="true"
     inkscape:snap-bbox="true"
     inkscape:pageshadow="2"
     inkscape:guide-bbox="true"
     inkscape:snap-nodes="false"
     bordercolor="#666666"
     objecttolerance="10"
     id="namedview88"
     showgrid="true"
     inkscape:window-maximized="1"
     inkscape:window-x="0"
     inkscape:snap-global="false"
     inkscape:window-y="25"
     gridtolerance="10"
     inkscape:window-height="1031"
     inkscape:snap-to-guides="true"
     inkscape:current-layer="layer9"
     inkscape:snap-bbox-midpoints="false"
     inkscape:zoom="11.313708"
     inkscape:cx="46.222506"
     inkscape:snap-grids="true"
     inkscape:pageopacity="0"
     borderlayer="true">
    <inkscape:grid
       spacingx="1px"
       spacingy="1px"
       id="grid4866"
       empspacing="2"
       enabled="true"
       type="xygrid"
       snapvisiblegridlinesonly="true"
       visible="true" />
    <sodipodi:guide
       orientation="0,1"
       position="11,34"
       id="guide2995" />
    <sodipodi:guide
       orientation="1,0"
       position="0,10"
       id="guide2997" />
    <sodipodi:guide
       orientation="0,1"
       position="15,16"
       id="guide3792" />
  </sodipodi:namedview>
  <title
     id="title9167">Gnome Symbolic Icon Theme</title>
  <defs
     id="defs7386" />
  <g
     inkscape:label="status"
     transform="translate(-161.0002,-217)"
     inkscape:groupmode="layer"
     id="layer9"
     style="display:inline">
    <g
       id="g3784"
       transform="matrix(0.81760198,0,0,0.81760198,6.8219418,29.328719)">
      <path
         sodipodi:nodetypes="ccsccccccccccccccccccccccccccccsccccc"
         style="font-size:medium;font-style:normal;font-variant:normal;font-weight:normal;font-stretch:normal;text-indent:0;text-align:start;text-decoration:none;line-height:normal;letter-spacing:normal;word-spacing:normal;text-transform:none;direction:ltr;block-progression:tb;writing-mode:lr-tb;text-anchor:start;baseline-shift:baseline;color:#bebebe;fill:#ffffff;fill-opacity:1;stroke:none;stroke-width:2;marker:none;visibility:visible;display:inline;overflow:visible;enable-background:accumulate;font-family:Sans;-inkscape-font-specification:Sans"
         id="path10743-3"
         d="m 194.58821,229.49289 c -0.64854,0 -1.05294,0.27908 -1.36401,0.57262 -0.31106,0.29354 -0.57867,0.68226 -0.57867,1.25976 l 0,0.57261 -1.32266,0 -1.32267,0 0,1.22158 0,14.65896 0,1.22158 1.32267,0 9.25869,0 0,-2.44316 -7.93603,0 0,-12.21581 1.32268,0 1.32267,0 0,-1.22157 0,-1.18341 3.96801,0 0,1.18341 0,1.22157 1.32267,0 1.32267,0 0,3.66475 2.6876,0.25355 0.0169,-5.12722 0,-1.22158 -1.38189,-0.0127 -1.32266,0 0,-0.41992 0,-0.0381 c -0.0316,-0.52602 -0.22517,-0.91898 -0.53734,-1.25975 -0.29592,-0.32304 -0.82891,-0.6466 -1.52933,-0.64897 l 0,-0.0381 -0.0826,0 -5.16668,0 z"
         inkscape:connector-curvature="0" />
      <path
         sodipodi:nodetypes="cccccccccc"
         inkscape:connector-curvature="0"
         id="rect3015"
         d="m 192.0002,232.25159 12,0 -0.25355,5.78949 0.83741,0.0953 0.05,2.90514 2.43465,0.0503 -0.0276,2.82163 -3.80161,4.10089 -11.23934,-0.16904 z"
         style="fill:#ffffff;fill-opacity:1;stroke:none;display:inline" />
      <path
         style="font-size:medium;font-style:normal;font-variant:normal;font-weight:normal;font-stretch:normal;text-indent:0;text-align:start;text-decoration:none;line-height:normal;letter-spacing:normal;word-spacing:normal;text-transform:none;direction:ltr;block-progression:tb;writing-mode:lr-tb;text-anchor:start;baseline-shift:baseline;color:#bebebe;fill:#000000;fill-opacity:1;stroke:none;stroke-width:2;marker:none;visibility:visible;display:inline;overflow:visible;enable-background:accumulate;font-family:Sans;-inkscape-font-specification:Sans"
         id="path10743"
         d="m 195.46875,231.03125 c -0.49033,0 -0.79607,0.22845 -1.03125,0.46875 -0.23518,0.2403 -0.4375,0.55851 -0.4375,1.03125 l 0,0.46875 -1,0 -1,0 0,1 0,12 0,1 1,0 7,0 0,-2 -6,0 0,-10 1,0 1,0 0,-1 0,-0.96875 3,0 0,0.96875 0,1 1,0 1,0 0,3 2,0 0,-4 0,-1 -1,0 -1,0 0,-0.34375 0,-0.0312 c -0.0239,-0.4306 -0.17024,-0.75229 -0.40625,-1.03125 -0.22373,-0.26444 -0.62669,-0.52931 -1.15625,-0.53125 l 0,-0.0312 -0.0625,0 -3.90625,0 z"
         inkscape:connector-curvature="0" />
      <path
         style="color:#bebebe;fill:#000000;fill-opacity:1;fill-rule:nonzero;stroke:none;stroke-width:2;marker:none;visibility:visible;display:inline;overflow:visible"
         sodipodi:nodetypes="cccc"
         id="path10761"
         d="m 201.0002,239 2,-2 -2,0 0,2 z"
         inkscape:connector-curvature="0" />
      <path
         style="fill:#000000;fill-opacity:1;stroke:none;display:inline"
         id="rect6060-4"
         d="m 195.0002,236 0,2 5,0 0,-2 -5,0 z m 0,3 0,2 4,0 1,-1 0,-1 -5,0 z m 0,3.0625 0,1.9375 3,0 0,-1.9375 -3,0 z"
         inkscape:connector-curvature="0" />
      <path
         style="font-size:medium;font-style:normal;font-variant:normal;font-weight:normal;font-stretch:normal;text-indent:0;text-align:start;text-decoration:none;line-height:normal;letter-spacing:normal;word-spacing:normal;text-transform:none;direction:ltr;block-progression:tb;writing-mode:lr-tb;text-anchor:start;color:#bebebe;fill:#000000;fill-opacity:1;fill-rule:nonzero;stroke:none;stroke-width:2;marker:none;visibility:visible;display:inline;overflow:visible;enable-background:accumulate;font-family:Bitstream Vera Sans;-inkscape-font-specification:Bitstream Vera Sans"
         id="path10747"
         d="m 202.75,238.95891 a 1.016466,1.016466 0 0 0 -0.46875,0.28125 l -3,3 A 1.0001,1.0001 0 0 0 199,243.14641 l 0,0.8125 0.8125,0 0.1875,0 2.5625,0 -1.28125,1.28125 A 1.016466,1.016466 0 0 0 201,246.08391 a 1.016466,1.016466 0 0 0 0,0.0937 l 0,0.78125 0.84375,0 0.15625,0 a 1.016466,1.016466 0 0 0 0.71875,-0.28125 l 3,-3 a 1.0001,1.0001 0 0 0 0.28125,-0.7187 1.0001,1.0001 0 0 0 0,-0.125 l 0,-0.875 -0.84375,0 -0.15625,0 -2.5625,0 1.28125,-1.28125 A 1.016466,1.016466 0 0 0 204,239.83391 a 1.016466,1.016466 0 0 0 0,-0.0937 l 0,-0.7813 -0.84375,0 -0.0937,0 a 1.016466,1.016466 0 0 0 -0.0625,0 1.016466,1.016466 0 0 0 -0.25,0 z"
         inkscape:connector-curvature="0" />
    </g>
  </g>
  <g
     inkscape:label="devices"
     transform="translate(-161.0002,-217)"
     inkscape:groupmode="layer"
     id="layer10" />
  <g
     inkscape:label="apps"
     transform="translate(-161.0002,-217)"
     inkscape:groupmode="layer"
     id="layer11" />
  <g
     inkscape:label="actions"
     transform="translate(-161.0002,-217)"
     inkscape:groupmode="layer"
     id="layer12" />
  <g
     inkscape:label="places"
     transform="translate(-161.0002,-217)"
     inkscape:groupmode="layer"
     id="layer13" />
  <g
     inkscape:label="mimetypes"
     transform="translate(-161.0002,-217)"
     inkscape:groupmode="layer"
     id="layer14" />
  <g
     inkscape:label="emblems"
     transform="translate(-161.0002,-217)"
     inkscape:groupmode="layer"
     id="layer15"
     style="display:inline" />
  <g
     inkscape:label="categories"
     transform="translate(-161.0002,-217)"
     inkscape:groupmode="layer"
     id="g4953"
     style="display:inline" />
</svg>
