<?xml version="1.0" encoding="UTF-8" standalone="no"?>
<!-- Created with Inkscape (http://www.inkscape.org/) -->

<svg
   xmlns:dc="http://purl.org/dc/elements/1.1/"
   xmlns:cc="http://creativecommons.org/ns#"
   xmlns:rdf="http://www.w3.org/1999/02/22-rdf-syntax-ns#"
   xmlns:svg="http://www.w3.org/2000/svg"
   xmlns="http://www.w3.org/2000/svg"
   xmlns:sodipodi="http://sodipodi.sourceforge.net/DTD/sodipodi-0.dtd"
   xmlns:inkscape="http://www.inkscape.org/namespaces/inkscape"
   id="svg7384"
   sodipodi:docname="battery-low-charging-symbolic.svg"
   version="1.1"
   inkscape:version="0.48.5 r10040"
   height="16.016466"
   width="16">
  <metadata
     id="metadata90">
    <rdf:RDF>
      <cc:Work
         rdf:about="">
        <dc:format>image/svg+xml</dc:format>
        <dc:type
           rdf:resource="http://purl.org/dc/dcmitype/StillImage" />
        <dc:title>Gnome Symbolic Icon Theme</dc:title>
      </cc:Work>
    </rdf:RDF>
  </metadata>
  <sodipodi:namedview
     inkscape:cy="2.4649286"
     pagecolor="#ffffff"
     borderopacity="1"
     showborder="true"
     inkscape:bbox-paths="false"
     guidetolerance="10"
     inkscape:object-paths="true"
     inkscape:window-width="1914"
     showguides="true"
     inkscape:object-nodes="true"
     inkscape:snap-bbox="true"
     inkscape:pageshadow="2"
     inkscape:guide-bbox="true"
     inkscape:snap-nodes="false"
     bordercolor="#666666"
     objecttolerance="10"
     id="namedview88"
     showgrid="true"
     inkscape:window-maximized="1"
     inkscape:window-x="0"
     inkscape:snap-global="true"
     inkscape:window-y="25"
     gridtolerance="10"
     inkscape:window-height="1031"
     inkscape:snap-to-guides="true"
     inkscape:current-layer="layer9"
     inkscape:snap-bbox-midpoints="false"
     inkscape:zoom="11.313708"
     inkscape:cx="1.2043316"
     inkscape:snap-grids="true"
     inkscape:pageopacity="0"
     borderlayer="true">
    <inkscape:grid
       spacingx="1px"
       spacingy="1px"
       id="grid4866"
       empspacing="2"
       enabled="true"
       type="xygrid"
       snapvisiblegridlinesonly="true"
       visible="true" />
    <sodipodi:guide
       orientation="1,0"
       position="0,6"
       id="guide3022" />
    <sodipodi:guide
       orientation="0,1"
       position="-0.0002,0.016466141"
       id="guide3024" />
  </sodipodi:namedview>
  <title
     id="title9167">Gnome Symbolic Icon Theme</title>
  <defs
     id="defs7386" />
  <g
     inkscape:label="status"
     transform="translate(-221.0002,-217)"
     inkscape:groupmode="layer"
     id="layer9"
     style="display:inline">
    <path
       inkscape:connector-curvature="0"
       d="m 226.06672,216.82883 c -0.53455,0 -0.86787,0.23003 -1.12427,0.47198 -0.25638,0.24194 -0.47696,0.56234 -0.47696,1.03834 l 0,0.47196 -1.09019,0 -1.09019,0 0,1.00688 0,12.08246 0,1.00688 1.09019,0 7.63137,0 0,-2.01375 -6.54118,0 0,-10.06873 1.0902,0 1.0902,0 0,-1.00686 0,-0.97542 3.27058,0 0,0.97542 0,1.00686 1.0902,0 1.09019,0 0,3.02063 2.21522,0.20898 0.0139,-4.22605 0,-1.00687 -1.139,-0.0105 -1.09019,0 0,-0.34611 0,-0.0314 c -0.026,-0.43356 -0.18559,-0.75745 -0.4429,-1.03833 -0.2439,-0.26626 -0.68322,-0.53295 -1.26053,-0.5349 l 0,-0.0314 -0.0681,0 -4.25857,0 z"
       id="path10743-3"
       style="font-size:medium;font-style:normal;font-variant:normal;font-weight:normal;font-stretch:normal;text-indent:0;text-align:start;text-decoration:none;line-height:normal;letter-spacing:normal;word-spacing:normal;text-transform:none;direction:ltr;block-progression:tb;writing-mode:lr-tb;text-anchor:start;baseline-shift:baseline;color:#bebebe;fill:#ffffff;fill-opacity:1;stroke:none;stroke-width:2;marker:none;visibility:visible;display:inline;overflow:visible;enable-background:accumulate;font-family:Sans;-inkscape-font-specification:Sans"
       sodipodi:nodetypes="ccsccccccccccccccccccccccccccccsccccc" />
    <path
       style="fill:#ffffff;fill-opacity:1;stroke:none;display:inline"
       d="m 223.93359,219.10265 9.89085,0 -0.20899,4.77192 0.69023,0.0785 0.0412,2.39453 2.00673,0.0415 -0.0228,2.32569 -3.13343,3.38011 -9.26389,-0.13933 z"
       id="rect3015"
       inkscape:connector-curvature="0"
       sodipodi:nodetypes="cccccccccc" />
    <path
       inkscape:connector-curvature="0"
       d="m 226.7925,218.0968 c -0.40415,0 -0.65616,0.1883 -0.85,0.38637 -0.19384,0.19806 -0.3606,0.46034 -0.3606,0.84999 l 0,0.38636 -0.82424,0 -0.82424,0 0,0.82424 0,9.89085 0,0.82424 0.82424,0 5.76966,0 0,-1.64847 -4.94542,0 0,-8.24238 0.82423,0 0.82424,0 0,-0.82424 0,-0.79848 2.47271,0 0,0.79848 0,0.82424 0.82424,0 0.82424,0 0,2.47271 1.64848,0 0,-3.29695 0,-0.82424 -0.82424,0 -0.82424,0 0,-0.28333 0,-0.0257 c -0.0197,-0.35491 -0.14032,-0.62006 -0.33485,-0.84999 -0.1844,-0.21796 -0.51654,-0.43628 -0.95302,-0.43788 l 0,-0.0257 -0.0515,0 -3.21967,0 z"
       id="path10743"
       style="font-size:medium;font-style:normal;font-variant:normal;font-weight:normal;font-stretch:normal;text-indent:0;text-align:start;text-decoration:none;line-height:normal;letter-spacing:normal;word-spacing:normal;text-transform:none;direction:ltr;block-progression:tb;writing-mode:lr-tb;text-anchor:start;baseline-shift:baseline;color:#bebebe;fill:#000000;fill-opacity:1;stroke:none;stroke-width:2;marker:none;visibility:visible;display:inline;overflow:visible;enable-background:accumulate;font-family:Sans;-inkscape-font-specification:Sans" />
    <path
       inkscape:connector-curvature="0"
       d="m 231.35173,224.66495 1.64847,-1.64848 -1.64847,0 0,1.64848 z"
       id="path10761"
       sodipodi:nodetypes="cccc"
       style="color:#bebebe;fill:#000000;fill-opacity:1;fill-rule:nonzero;stroke:none;stroke-width:2;marker:none;visibility:visible;display:inline;overflow:visible" />
    <path
       style="fill:#000000;fill-opacity:1;stroke:none;display:inline"
       d="m 226.4063,227.18918 0,1.59696 2.47271,0 0,-1.59696 -2.47271,0 z"
       id="rect6060-4"
       inkscape:connector-curvature="0" />
    <path
       inkscape:connector-curvature="0"
       d="m 232.79398,224.63108 a 0.83780963,0.83780963 0 0 0 -0.38637,0.23182 l -2.47271,2.47271 a 0.82432016,0.82432016 0 0 0 -0.23182,0.74697 l 0,0.66969 0.6697,0 0.15454,0 2.11211,0 -1.05605,1.05605 a 0.83780963,0.83780963 0 0 0 -0.23182,0.69545 0.83780963,0.83780963 0 0 0 0,0.0772 l 0,0.64393 0.69545,0 0.12879,0 a 0.83780963,0.83780963 0 0 0 0.59242,-0.23182 l 2.47271,-2.47271 a 0.82432016,0.82432016 0 0 0 0.23182,-0.59238 0.82432016,0.82432016 0 0 0 0,-0.10303 l 0,-0.72121 -0.69545,0 -0.12879,0 -2.11211,0 1.05606,-1.05605 a 0.83780963,0.83780963 0 0 0 0.23181,-0.69545 0.83780963,0.83780963 0 0 0 0,-0.0772 l 0,-0.64398 -0.69545,0 -0.0772,0 a 0.83780963,0.83780963 0 0 0 -0.0515,0 0.83780963,0.83780963 0 0 0 -0.20606,0 z"
       id="path10747"
       style="font-size:medium;font-style:normal;font-variant:normal;font-weight:normal;font-stretch:normal;text-indent:0;text-align:start;text-decoration:none;line-height:normal;letter-spacing:normal;word-spacing:normal;text-transform:none;direction:ltr;block-progression:tb;writing-mode:lr-tb;text-anchor:start;color:#bebebe;fill:#000000;fill-opacity:1;fill-rule:nonzero;stroke:none;stroke-width:2;marker:none;visibility:visible;display:inline;overflow:visible;enable-background:accumulate;font-family:Bitstream Vera Sans;-inkscape-font-specification:Bitstream Vera Sans" />
  </g>
  <g
     inkscape:label="devices"
     transform="translate(-221.0002,-217)"
     inkscape:groupmode="layer"
     id="layer10" />
  <g
     inkscape:label="apps"
     transform="translate(-221.0002,-217)"
     inkscape:groupmode="layer"
     id="layer11" />
  <g
     inkscape:label="actions"
     transform="translate(-221.0002,-217)"
     inkscape:groupmode="layer"
     id="layer12" />
  <g
     inkscape:label="places"
     transform="translate(-221.0002,-217)"
     inkscape:groupmode="layer"
     id="layer13" />
  <g
     inkscape:label="mimetypes"
     transform="translate(-221.0002,-217)"
     inkscape:groupmode="layer"
     id="layer14" />
  <g
     inkscape:label="emblems"
     transform="translate(-221.0002,-217)"
     inkscape:groupmode="layer"
     id="layer15"
     style="display:inline" />
  <g
     inkscape:label="categories"
     transform="translate(-221.0002,-217)"
     inkscape:groupmode="layer"
     id="g4953"
     style="display:inline" />
</svg>
