<?xml version="1.0" encoding="UTF-8" standalone="no"?>
<!-- Created with Inkscape (http://www.inkscape.org/) -->

<svg
   xmlns:dc="http://purl.org/dc/elements/1.1/"
   xmlns:cc="http://creativecommons.org/ns#"
   xmlns:rdf="http://www.w3.org/1999/02/22-rdf-syntax-ns#"
   xmlns:svg="http://www.w3.org/2000/svg"
   xmlns="http://www.w3.org/2000/svg"
   xmlns:sodipodi="http://sodipodi.sourceforge.net/DTD/sodipodi-0.dtd"
   xmlns:inkscape="http://www.inkscape.org/namespaces/inkscape"
   id="svg7384"
   sodipodi:docname="battery-caution-symbolic.svg"
   version="1.1"
   inkscape:version="0.48.5 r10040"
   height="16"
   width="16">
  <metadata
     id="metadata90">
    <rdf:RDF>
      <cc:Work
         rdf:about="">
        <dc:format>image/svg+xml</dc:format>
        <dc:type
           rdf:resource="http://purl.org/dc/dcmitype/StillImage" />
        <dc:title>Gnome Symbolic Icon Theme</dc:title>
      </cc:Work>
    </rdf:RDF>
  </metadata>
  <sodipodi:namedview
     inkscape:cy="5.1936393"
     pagecolor="#ffffff"
     borderopacity="1"
     showborder="true"
     inkscape:bbox-paths="false"
     guidetolerance="10"
     inkscape:object-paths="true"
     inkscape:window-width="1914"
     showguides="true"
     inkscape:object-nodes="true"
     inkscape:snap-bbox="true"
     inkscape:pageshadow="2"
     inkscape:guide-bbox="true"
     inkscape:snap-nodes="false"
     bordercolor="#666666"
     objecttolerance="10"
     id="namedview88"
     showgrid="true"
     inkscape:window-maximized="1"
     inkscape:window-x="0"
     inkscape:snap-global="false"
     inkscape:window-y="25"
     gridtolerance="10"
     inkscape:window-height="1031"
     inkscape:snap-to-guides="true"
     inkscape:current-layer="layer9"
     inkscape:snap-bbox-midpoints="false"
     inkscape:zoom="29.439735"
     inkscape:cx="22.651776"
     inkscape:snap-grids="true"
     inkscape:pageopacity="0">
    <inkscape:grid
       spacingx="1px"
       spacingy="1px"
       id="grid4866"
       empspacing="2"
       enabled="true"
       type="xygrid"
       snapvisiblegridlinesonly="true"
       visible="true" />
  </sodipodi:namedview>
  <title
     id="title9167">Gnome Symbolic Icon Theme</title>
  <defs
     id="defs7386" />
  <g
     inkscape:label="status"
     transform="translate(-101.0002,-217)"
     inkscape:groupmode="layer"
     id="layer9"
     style="display:inline">
    <path
       style="fill:#ffffff;stroke:none;display:inline"
       d="m 102.83413,219.64044 10.42373,-0.0374 0.91218,3.80017 0.0104,2.4824 1.59548,-0.006 0.14178,2.88533 -3.51003,4.16896 -9.46646,-0.26178 z"
       id="path3049-0"
       inkscape:connector-curvature="0"
       sodipodi:nodetypes="ccccccccc" />
    <path
       inkscape:connector-curvature="0"
       class="error"
       d="m 105.86185,227.11415 0,1.63131 1.63153,0 0,-1.63131 -1.63153,0 z"
       id="rect6060-0"
       sodipodi:nodetypes="ccccc"
       style="fill:#1a1a1a;fill-opacity:1;stroke:none;display:inline" />
    <path
       inkscape:connector-curvature="0"
       d="m 105.65421,216.98945 c -0.55443,0 -0.90014,0.22808 -1.16608,0.46798 -0.26591,0.23992 -0.49467,0.5576 -0.49467,1.02957 l 0,0.46799 -1.13074,0 -1.13073,0 0,0.99836 0,11.98034 0,0.99837 1.13073,0 7.91511,0 0,-1.99672 -6.78437,0 0,-9.98364 1.13071,0 1.13076,0 0,-0.99835 0,-0.96717 3.39218,0 0,0.96717 0,0.99835 1.13072,0 1.13075,0 0,2.99509 2.26146,0 0,-3.99344 0,-0.99836 -1.13073,0 -1.13073,0 0,-0.3432 0,-0.0311 c -0.0271,-0.4299 -0.19249,-0.75106 -0.45935,-1.02955 -0.25298,-0.26402 -0.70862,-0.52845 -1.30743,-0.53041 l 0,-0.0311 -0.0707,0 -4.41692,0 z"
       id="path6308-5-7"
       style="font-size:medium;font-style:normal;font-variant:normal;font-weight:normal;font-stretch:normal;text-indent:0;text-align:start;text-decoration:none;line-height:normal;letter-spacing:normal;word-spacing:normal;text-transform:none;direction:ltr;block-progression:tb;writing-mode:lr-tb;text-anchor:start;color:#bebebe;fill:#ffffff;fill-opacity:1;stroke:none;stroke-width:2;marker:none;visibility:visible;display:inline;overflow:visible;enable-background:accumulate;font-family:Bitstream Vera Sans;-inkscape-font-specification:Bitstream Vera Sans" />
    <path
       inkscape:connector-curvature="0"
       d="m 106.24403,218.16757 c -0.39993,0 -0.64932,0.18635 -0.84113,0.38233 -0.19185,0.19601 -0.35686,0.45556 -0.35686,0.84117 l 0,0.38233 -0.81566,0 -0.81566,0 0,0.81566 0,9.78793 0,0.81567 0.81566,0 3.26264,0 0,-1.63132 -2.44698,0 0,-8.15661 0.81566,0 0.81565,0 0,-0.81567 0,-0.79016 2.44699,0 0,0.79016 0,0.81567 0.81567,0 0.81565,0 0,2.44698 1.63133,0 0,-3.26265 0,-0.81566 -0.81567,0 -0.81566,0 0,-0.28038 0,-0.0255 c -0.0195,-0.35122 -0.13884,-0.61363 -0.33135,-0.84116 -0.18251,-0.21569 -0.51118,-0.43173 -0.94312,-0.43331 l 0,-0.0255 -0.0509,0 -3.18617,0 z"
       id="path6062-4"
       style="font-size:medium;font-style:normal;font-variant:normal;font-weight:normal;font-stretch:normal;text-indent:0;text-align:start;text-decoration:none;line-height:normal;letter-spacing:normal;word-spacing:normal;text-transform:none;direction:ltr;block-progression:tb;writing-mode:lr-tb;text-anchor:start;baseline-shift:baseline;color:#bebebe;fill:#1a1a1a;fill-opacity:1;stroke:none;stroke-width:2;marker:none;visibility:visible;display:inline;overflow:visible;enable-background:accumulate;font-family:Sans;-inkscape-font-specification:Sans" />
    <path
       inkscape:connector-curvature="0"
       class="warning"
       d="m 109.13191,223.60304 c -0.46322,0 -0.82307,0.44753 -0.82307,1.0236 l 0,7.31151 c 0,0.57605 0.35985,1.0236 0.82307,1.0236 l 5.87915,0 c 0.46322,0 0.82307,-0.44755 0.82307,-1.0236 l 0,-7.31151 c 0,-0.57607 -0.35985,-1.0236 -0.82307,-1.0236 l -5.87915,0 z m 1.99891,1.16984 1.88133,0 0,4.67935 -1.88133,0 0,-4.67935 z m 0,5.84919 1.88133,0 0,1.16983 -1.88133,0 0,-1.16983 z"
       id="rect6718-3-5"
       sodipodi:nodetypes="ccccccccccccccccccc"
       style="color:#bebebe;fill:#ffffff;fill-opacity:1;fill-rule:nonzero;stroke:none;stroke-width:2;marker:none;visibility:visible;display:inline;overflow:visible" />
    <path
       inkscape:connector-curvature="0"
       class="warning"
       d="m 109.02254,224.66737 c -0.40167,0 -0.7137,0.31204 -0.7137,0.7137 l 0,5.09789 c 0,0.40165 0.31203,0.7137 0.7137,0.7137 l 5.09789,0 c 0.40167,0 0.7137,-0.31205 0.7137,-0.7137 l 0,-5.09789 c 0,-0.40166 -0.31203,-0.7137 -0.7137,-0.7137 l -5.09789,0 z m 1.73328,0.81566 1.63133,0 0,3.26265 -1.63133,0 0,-3.26265 z m 0,4.07831 1.63133,0 0,0.81565 -1.63133,0 0,-0.81565 z"
       id="rect6718-3"
       sodipodi:nodetypes="ccccccccccccccccccc"
       style="color:#bebebe;fill:#1a1a1a;fill-opacity:1;fill-rule:nonzero;stroke:none;stroke-width:2;marker:none;visibility:visible;display:inline;overflow:visible" />
  </g>
  <g
     inkscape:label="devices"
     transform="translate(-101.0002,-217)"
     inkscape:groupmode="layer"
     id="layer10" />
  <g
     inkscape:label="apps"
     transform="translate(-101.0002,-217)"
     inkscape:groupmode="layer"
     id="layer11" />
  <g
     inkscape:label="actions"
     transform="translate(-101.0002,-217)"
     inkscape:groupmode="layer"
     id="layer12" />
  <g
     inkscape:label="places"
     transform="translate(-101.0002,-217)"
     inkscape:groupmode="layer"
     id="layer13" />
  <g
     inkscape:label="mimetypes"
     transform="translate(-101.0002,-217)"
     inkscape:groupmode="layer"
     id="layer14" />
  <g
     inkscape:label="emblems"
     transform="translate(-101.0002,-217)"
     inkscape:groupmode="layer"
     id="layer15"
     style="display:inline" />
  <g
     inkscape:label="categories"
     transform="translate(-101.0002,-217)"
     inkscape:groupmode="layer"
     id="g4953"
     style="display:inline" />
</svg>
