<?xml version="1.0" encoding="UTF-8" standalone="no"?>
<!-- Created with Inkscape (http://www.inkscape.org/) -->

<svg
   xmlns:dc="http://purl.org/dc/elements/1.1/"
   xmlns:cc="http://creativecommons.org/ns#"
   xmlns:rdf="http://www.w3.org/1999/02/22-rdf-syntax-ns#"
   xmlns:svg="http://www.w3.org/2000/svg"
   xmlns="http://www.w3.org/2000/svg"
   xmlns:sodipodi="http://sodipodi.sourceforge.net/DTD/sodipodi-0.dtd"
   xmlns:inkscape="http://www.inkscape.org/namespaces/inkscape"
   id="svg7384"
   sodipodi:docname="battery-full-symbolic.svg"
   version="1.1"
   inkscape:version="0.48.5 r10040"
   height="16"
   width="16">
  <metadata
     id="metadata90">
    <rdf:RDF>
      <cc:Work
         rdf:about="">
        <dc:format>image/svg+xml</dc:format>
        <dc:type
           rdf:resource="http://purl.org/dc/dcmitype/StillImage" />
        <dc:title>Gnome Symbolic Icon Theme</dc:title>
      </cc:Work>
    </rdf:RDF>
  </metadata>
  <sodipodi:namedview
     inkscape:cy="0.28074875"
     pagecolor="#ffffff"
     borderopacity="1"
     showborder="true"
     inkscape:bbox-paths="false"
     guidetolerance="10"
     inkscape:object-paths="true"
     inkscape:window-width="1914"
     showguides="true"
     inkscape:object-nodes="true"
     inkscape:snap-bbox="true"
     inkscape:pageshadow="2"
     inkscape:guide-bbox="true"
     inkscape:snap-nodes="false"
     bordercolor="#666666"
     objecttolerance="10"
     id="namedview88"
     showgrid="true"
     inkscape:window-maximized="1"
     inkscape:window-x="0"
     inkscape:snap-global="true"
     inkscape:window-y="25"
     gridtolerance="10"
     inkscape:window-height="1031"
     inkscape:snap-to-guides="true"
     inkscape:current-layer="layer9"
     inkscape:snap-bbox-midpoints="false"
     inkscape:zoom="20.486838"
     inkscape:cx="18.573507"
     inkscape:snap-grids="true"
     inkscape:pageopacity="0"
     borderlayer="true">
    <inkscape:grid
       spacingx="1px"
       spacingy="1px"
       id="grid4866"
       empspacing="2"
       enabled="true"
       type="xygrid"
       snapvisiblegridlinesonly="true"
       visible="true" />
  </sodipodi:namedview>
  <title
     id="title9167">Gnome Symbolic Icon Theme</title>
  <defs
     id="defs7386" />
  <g
     inkscape:label="status"
     transform="translate(-41.0002,-217)"
     inkscape:groupmode="layer"
     id="layer9"
     style="display:inline">
    <g
       id="g3034"
       transform="matrix(0.80387908,0,0,0.80387908,9.9828107,44.166063)">
      <path
         style="font-size:medium;font-style:normal;font-variant:normal;font-weight:normal;font-stretch:normal;text-indent:0;text-align:start;text-decoration:none;line-height:normal;letter-spacing:normal;word-spacing:normal;text-transform:none;direction:ltr;block-progression:tb;writing-mode:lr-tb;text-anchor:start;baseline-shift:baseline;color:#bebebe;fill:#ffffff;fill-opacity:1;stroke:none;stroke-width:2;marker:none;visibility:visible;display:inline;overflow:visible;enable-background:accumulate;font-family:Sans;-inkscape-font-specification:Sans"
         id="path2930-7"
         d="m 45.730314,215.00002 c -0.668628,0 -1.085548,0.28475 -1.40625,0.58425 -0.320703,0.29951 -0.596592,0.69612 -0.596592,1.28535 l 0,0.58424 -1.363636,0 -1.363636,0 0,1.2464 0,14.95675 0,1.2464 1.363636,0 12.272728,0 1.363636,0 0,-1.2464 0,-14.95675 0,-1.2464 -1.363636,0 -1.363635,0 0,-0.42845 0,-0.039 c -0.03264,-0.53669 -0.232141,-0.93765 -0.553978,-1.28535 -0.305092,-0.32959 -0.854573,-0.65973 -1.576705,-0.66214 l 0,-0.039 -0.08522,0 -5.326705,0 z m 0.724432,2.49279 4.090909,0 0,1.20745 0,1.2464 1.363636,0 1.363638,0 0,12.46396 -9.545457,0 0,-12.46396 1.363638,0 1.363636,0 0,-1.2464 0,-1.20745 z"
         inkscape:connector-curvature="0" />
      <rect
         transform="translate(41.0002,217)"
         y="1.5028871"
         x="2.8310859"
         height="13.716124"
         width="8.9325647"
         id="rect3032"
         style="fill:#ffffff;fill-opacity:1;stroke:none" />
      <rect
         width="2"
         style="fill:#000000;fill-opacity:1;stroke:none"
         height="5"
         id="rect2928"
         y="46.000198"
         x="222"
         class="success"
         transform="matrix(0,1,1,0,0,0)" />
      <path
         style="font-size:medium;font-style:normal;font-variant:normal;font-weight:normal;font-stretch:normal;text-indent:0;text-align:start;text-decoration:none;line-height:normal;letter-spacing:normal;word-spacing:normal;text-transform:none;direction:ltr;block-progression:tb;writing-mode:lr-tb;text-anchor:start;baseline-shift:baseline;color:#bebebe;fill:#000000;fill-opacity:1;stroke:none;stroke-width:2;marker:none;visibility:visible;display:inline;overflow:visible;enable-background:accumulate;font-family:Sans;-inkscape-font-specification:Sans"
         id="path2930"
         d="m 46.46875,217.03125 c -0.490327,0 -0.796068,0.22845 -1.03125,0.46875 C 45.202318,217.7403 45,218.05851 45,218.53125 L 45,219 l -1,0 -1,0 0,1 0,12 0,1 1,0 9,0 1,0 0,-1 0,-12 0,-1 -1,0 -1,0 0,-0.34375 0,-0.0312 c -0.02393,-0.4306 -0.170236,-0.75229 -0.40625,-1.03125 -0.223734,-0.26444 -0.626687,-0.52931 -1.15625,-0.53125 l 0,-0.0312 -0.0625,0 -3.90625,0 z m 0.53125,2 3,0 0,0.96875 0,1 1,0 1,0 0,10 -7,0 0,-10 1,0 1,0 0,-1 0,-0.96875 z"
         inkscape:connector-curvature="0" />
      <rect
         style="fill:#000000;fill-opacity:1;stroke:none"
         width="2"
         height="5"
         id="rect4227"
         y="46.000198"
         class="success"
         x="225"
         transform="matrix(0,1,1,0,0,0)" />
      <rect
         width="2"
         style="fill:#000000;fill-opacity:1;stroke:none"
         height="5"
         id="rect4229"
         y="46.000198"
         x="228"
         class="success"
         transform="matrix(0,1,1,0,0,0)" />
    </g>
  </g>
  <g
     inkscape:label="devices"
     transform="translate(-41.0002,-217)"
     inkscape:groupmode="layer"
     id="layer10" />
  <g
     inkscape:label="apps"
     transform="translate(-41.0002,-217)"
     inkscape:groupmode="layer"
     id="layer11" />
  <g
     inkscape:label="actions"
     transform="translate(-41.0002,-217)"
     inkscape:groupmode="layer"
     id="layer12" />
  <g
     inkscape:label="places"
     transform="translate(-41.0002,-217)"
     inkscape:groupmode="layer"
     id="layer13" />
  <g
     inkscape:label="mimetypes"
     transform="translate(-41.0002,-217)"
     inkscape:groupmode="layer"
     id="layer14" />
  <g
     inkscape:label="emblems"
     transform="translate(-41.0002,-217)"
     inkscape:groupmode="layer"
     id="layer15"
     style="display:inline" />
  <g
     inkscape:label="categories"
     transform="translate(-41.0002,-217)"
     inkscape:groupmode="layer"
     id="g4953"
     style="display:inline" />
</svg>
