<?xml version="1.0" encoding="UTF-8" standalone="no"?>
<!-- Created with Inkscape (http://www.inkscape.org/) -->

<svg
   xmlns:dc="http://purl.org/dc/elements/1.1/"
   xmlns:cc="http://creativecommons.org/ns#"
   xmlns:rdf="http://www.w3.org/1999/02/22-rdf-syntax-ns#"
   xmlns:svg="http://www.w3.org/2000/svg"
   xmlns="http://www.w3.org/2000/svg"
   xmlns:sodipodi="http://sodipodi.sourceforge.net/DTD/sodipodi-0.dtd"
   xmlns:inkscape="http://www.inkscape.org/namespaces/inkscape"
   id="svg7384"
   version="1.1"
   inkscape:version="0.48.5 r10040"
   height="16"
   sodipodi:docname="bluetooth-active-symbolic.svg"
   width="16">
  <metadata
     id="metadata90">
    <rdf:RDF>
      <cc:Work
         rdf:about="">
        <dc:format>image/svg+xml</dc:format>
        <dc:type
           rdf:resource="http://purl.org/dc/dcmitype/StillImage" />
        <dc:title>Gnome Symbolic Icon Theme</dc:title>
      </cc:Work>
    </rdf:RDF>
  </metadata>
  <sodipodi:namedview
     inkscape:cy="8.2158798"
     inkscape:current-layer="layer9"
     inkscape:window-width="1914"
     pagecolor="#555753"
     showborder="true"
     showguides="true"
     inkscape:snap-nodes="true"
     objecttolerance="10"
     showgrid="true"
     inkscape:object-nodes="true"
     inkscape:pageshadow="2"
     inkscape:guide-bbox="true"
     inkscape:window-x="0"
     inkscape:snap-bbox="true"
     bordercolor="#666666"
     id="namedview88"
     inkscape:window-maximized="1"
     inkscape:snap-global="false"
     inkscape:window-y="25"
     gridtolerance="10"
     inkscape:zoom="22.627417"
     inkscape:window-height="1031"
     borderopacity="1"
     guidetolerance="10"
     inkscape:cx="9.4057449"
     inkscape:bbox-paths="false"
     inkscape:snap-grids="true"
     inkscape:pageopacity="0"
     inkscape:snap-to-guides="true"
     borderlayer="true">
    <inkscape:grid
       visible="true"
       spacingx="1px"
       type="xygrid"
       spacingy="1px"
       id="grid4866"
       empspacing="2"
       enabled="true"
       snapvisiblegridlinesonly="true" />
    <sodipodi:guide
       orientation="1,0"
       position="6.8500969,6.7175144"
       id="guide3024" />
  </sodipodi:namedview>
  <title
     id="title9167">Gnome Symbolic Icon Theme</title>
  <defs
     id="defs7386" />
  <g
     transform="translate(-41.0002,-317)"
     inkscape:groupmode="layer"
     id="layer9"
     inkscape:label="status"
     style="display:inline">
    <path
       d="m 48.120959,317.62142 c -0.492202,0.0541 -0.899909,0.46064 -0.896069,0.89345 l 0.03028,2.48646 -1.372664,-1.0539 c -0.405679,-0.31148 -1.056439,0.2694 -1.441836,0.60565 -0.385398,0.33624 -0.552966,0.96286 -0.181686,1.31463 l 2.723647,2.58049 0.03028,1.00514 -2.572236,2.24741 c -0.38691,0.33595 -0.266621,1.64562 0.119329,1.98237 0.385987,0.33676 1.24076,0.52048 1.867542,-0.0323 l 0.797303,-0.62994 0,2.00193 c -0.01924,0.71359 1.524501,1.18556 2.093238,0.67245 l 3.854052,-3.63438 c 0.393497,-0.33216 0.393497,-0.95219 0,-1.28435 l -1.2763,-1.73539 1.488275,-1.94735 c 0.39349,-0.33216 0.181515,-1.34585 -0.211975,-1.67801 l -4.187156,-3.54356 c -0.223105,-0.19353 -0.552485,-0.28932 -0.864065,-0.25128 z m 1.152086,3.07126 1.600122,1.39603 -1.600122,1.39603 z m 0,5.36075 1.600122,1.39603 -1.600122,1.39603 z"
       id="path3807-5"
       style="font-size:medium;font-style:normal;font-variant:normal;font-weight:normal;font-stretch:normal;text-indent:0;text-align:start;text-decoration:none;line-height:normal;letter-spacing:normal;word-spacing:normal;text-transform:none;direction:ltr;block-progression:tb;writing-mode:lr-tb;text-anchor:start;color:#000000;fill:#ffffff;fill-opacity:1;stroke:none;stroke-width:2;marker:none;visibility:visible;display:inline;overflow:visible;enable-background:accumulate;font-family:Bitstream Vera Sans;-inkscape-font-specification:Bitstream Vera Sans"
       inkscape:connector-curvature="0"
       sodipodi:nodetypes="cccssscccssccccccccccccccccccc" />
    <rect
       x="44.062016"
       y="319.84372"
       id="rect3940-6"
       height="1.4179908"
       width="1.5861574"
       style="opacity:0.98000004;fill:#ffffff;fill-opacity:1;stroke:none;display:inline" />
    <rect
       x="44.183151"
       y="328.61548"
       id="rect3942-9"
       height="1.3779732"
       style="opacity:0.98000004;fill:#ffffff;fill-opacity:1;stroke:none;display:inline"
       width="1.5085921" />
    <rect
       x="47.225094"
       y="331.02332"
       id="rect3944-2"
       height="0.9237408"
       width="1.4783101"
       style="opacity:0.98000004;fill:#ffffff;fill-opacity:1;stroke:none;display:inline" />
    <rect
       x="47.225094"
       y="317.62143"
       id="rect3946-5"
       height="0.89345866"
       style="opacity:0.98000004;fill:#ffffff;fill-opacity:1;stroke:none;display:inline"
       width="1.0240777" />
    <path
       style="fill:#ffffff;stroke:none;display:inline"
       d="m 48.341901,320.17245 0.211975,10.41706 3.119063,-3.30076 -1.551791,-2.21756 0.885584,-2.86984 z"
       id="path3042"
       inkscape:connector-curvature="0"
       sodipodi:nodetypes="cccccc" />
    <g
       transform="translate(-0.01686442,0.07265003)"
       style="display:inline"
       id="g2995">
      <path
         inkscape:connector-curvature="0"
         style="font-size:medium;font-style:normal;font-variant:normal;font-weight:normal;font-stretch:normal;text-indent:0;text-align:start;text-decoration:none;line-height:normal;letter-spacing:normal;word-spacing:normal;text-transform:none;direction:ltr;block-progression:tb;writing-mode:lr-tb;text-anchor:start;color:#000000;fill:#000000;fill-opacity:1;stroke:none;stroke-width:2;marker:none;visibility:visible;display:inline;overflow:visible;enable-background:accumulate;font-family:Bitstream Vera Sans;-inkscape-font-specification:Bitstream Vera Sans"
         id="path3807-4"
         d="m 48.542857,318.98525 a 0.74999186,0.74999186 0 0 0 -0.656178,0.74991 l 0,2.67158 -0.960831,-0.96083 a 0.76226641,0.76226641 0 1 0 -1.078005,1.07801 l 2.038836,2.03883 0,0.84366 -2.038836,2.03884 a 0.762265,0.762265 0 1 0 1.078005,1.078 l 0.960831,-0.96083 0,2.67158 a 0.74999186,0.74999186 0 0 0 1.28892,0.539 l 2.999667,-2.99966 a 0.74999186,0.74999186 0 0 0 0,-1.07801 l -1.710747,-1.71075 1.710747,-1.71075 a 0.74999186,0.74999186 0 0 0 0,-1.078 l -2.999667,-2.99967 a 0.74999186,0.74999186 0 0 0 -0.632742,-0.21091 z m 0.843656,2.57784 1.171745,1.17174 -1.171745,1.17175 0,-2.34349 z m 0,4.4995 1.171745,1.17174 -1.171745,1.17175 0,-2.34349 z" />
      <rect
         style="opacity:0.98000004;fill:#000000;fill-opacity:1;stroke:none"
         width="0.74991685"
         height="0.74991685"
         id="rect3940-7"
         y="321.23502"
         x="45.637081" />
      <rect
         width="0.74991685"
         style="opacity:0.98000004;fill:#000000;fill-opacity:1;stroke:none"
         height="0.74991685"
         id="rect3942-3"
         y="327.98425"
         x="45.637081" />
      <rect
         style="opacity:0.98000004;fill:#000000;fill-opacity:1;stroke:none"
         width="0.74991685"
         height="0.74991685"
         id="rect3944-7"
         y="330.23401"
         x="47.886829" />
      <rect
         width="0.74991685"
         style="opacity:0.98000004;fill:#000000;fill-opacity:1;stroke:none"
         height="0.74991685"
         id="rect3946-8"
         y="318.98526"
         x="47.886829" />
    </g>
  </g>
  <g
     transform="translate(-41.0002,-317)"
     inkscape:groupmode="layer"
     id="layer10"
     inkscape:label="devices" />
  <g
     transform="translate(-41.0002,-317)"
     inkscape:groupmode="layer"
     id="layer11"
     inkscape:label="apps" />
  <g
     transform="translate(-41.0002,-317)"
     inkscape:groupmode="layer"
     id="layer12"
     inkscape:label="actions" />
  <g
     transform="translate(-41.0002,-317)"
     inkscape:groupmode="layer"
     id="layer13"
     inkscape:label="places" />
  <g
     transform="translate(-41.0002,-317)"
     inkscape:groupmode="layer"
     id="layer14"
     inkscape:label="mimetypes" />
  <g
     transform="translate(-41.0002,-317)"
     inkscape:groupmode="layer"
     id="layer15"
     inkscape:label="emblems"
     style="display:inline" />
</svg>
