<?xml version="1.0" encoding="UTF-8" standalone="no"?>
<!-- Created with Inkscape (http://www.inkscape.org/) -->

<svg
   xmlns:dc="http://purl.org/dc/elements/1.1/"
   xmlns:cc="http://creativecommons.org/ns#"
   xmlns:rdf="http://www.w3.org/1999/02/22-rdf-syntax-ns#"
   xmlns:svg="http://www.w3.org/2000/svg"
   xmlns="http://www.w3.org/2000/svg"
   xmlns:sodipodi="http://sodipodi.sourceforge.net/DTD/sodipodi-0.dtd"
   xmlns:inkscape="http://www.inkscape.org/namespaces/inkscape"
   id="svg7384"
   sodipodi:docname="gpm-battery-010.svg"
   version="1.1"
   inkscape:version="0.48.5 r10040"
   height="16"
   width="16">
  <metadata
     id="metadata90">
    <rdf:RDF>
      <cc:Work
         rdf:about="">
        <dc:format>image/svg+xml</dc:format>
        <dc:type
           rdf:resource="http://purl.org/dc/dcmitype/StillImage" />
        <dc:title>Gnome Symbolic Icon Theme</dc:title>
      </cc:Work>
    </rdf:RDF>
  </metadata>
  <sodipodi:namedview
     inkscape:cy="6.0150829"
     pagecolor="#555753"
     borderopacity="1"
     showborder="true"
     inkscape:bbox-paths="false"
     guidetolerance="10"
     inkscape:object-paths="true"
     inkscape:window-width="1914"
     showguides="true"
     inkscape:object-nodes="true"
     inkscape:snap-bbox="true"
     inkscape:pageshadow="2"
     inkscape:guide-bbox="true"
     inkscape:snap-nodes="false"
     bordercolor="#666666"
     objecttolerance="10"
     id="namedview88"
     showgrid="true"
     inkscape:window-maximized="1"
     inkscape:window-x="0"
     inkscape:snap-global="false"
     inkscape:window-y="25"
     gridtolerance="10"
     inkscape:window-height="1031"
     inkscape:snap-to-guides="true"
     inkscape:current-layer="layer9"
     inkscape:snap-bbox-midpoints="false"
     inkscape:zoom="31.999998"
     inkscape:cx="12.605451"
     inkscape:snap-grids="true"
     inkscape:pageopacity="0">
    <inkscape:grid
       spacingx="1px"
       spacingy="1px"
       id="grid4866"
       empspacing="2"
       enabled="true"
       type="xygrid"
       snapvisiblegridlinesonly="true"
       visible="true" />
  </sodipodi:namedview>
  <title
     id="title9167">Gnome Symbolic Icon Theme</title>
  <defs
     id="defs7386" />
  <g
     inkscape:label="status"
     transform="translate(-61.0002,-217)"
     inkscape:groupmode="layer"
     id="layer9"
     style="display:inline">
    <path
       inkscape:connector-curvature="0"
       d="m 66.553714,217.07959 c -0.534256,0 -0.867387,0.22752 -1.123635,0.46683 -0.256258,0.23931 -0.476703,0.55622 -0.476703,1.02703 l 0,0.46683 -1.089581,0 -1.089589,0 0,0.99591 0,11.95088 0,0.99592 1.089589,0 9.80628,0 1.089582,0 0,-0.99592 0,-11.95088 0,-0.99591 -1.089582,0 -1.089589,0 0,-0.34235 0,-0.0312 c -0.02604,-0.42883 -0.185488,-0.74921 -0.442647,-1.02704 -0.243776,-0.26336 -0.682827,-0.52715 -1.25983,-0.52907 l 0,-0.0312 -0.06808,0 -4.256201,0 z m 0.578841,1.99181 3.26876,0 0,0.96479 0,0.99591 1.089581,0 1.08959,0 0,9.95908 -7.62711,0 0,-9.95908 1.089589,0 1.08959,0 0,-0.99591 0,-0.96479 z"
       id="path2930-7"
       style="font-size:medium;font-style:normal;font-variant:normal;font-weight:normal;font-stretch:normal;text-indent:0;text-align:start;text-decoration:none;line-height:normal;letter-spacing:normal;word-spacing:normal;text-transform:none;direction:ltr;block-progression:tb;writing-mode:lr-tb;text-anchor:start;baseline-shift:baseline;color:#bebebe;fill:#ffffff;fill-opacity:1;stroke:none;stroke-width:2;marker:none;visibility:visible;display:inline;overflow:visible;enable-background:accumulate;font-family:Sans;-inkscape-font-specification:Sans" />
    <rect
       style="fill:#ffffff;fill-opacity:1;stroke:none;display:inline"
       id="rect3032"
       width="7.1373873"
       height="10.959594"
       x="65.036324"
       y="219.87848" />
    <path
       inkscape:connector-curvature="0"
       d="m 67.143741,218.7026 c -0.39178,0 -0.636083,0.18254 -0.823999,0.37455 -0.187916,0.192 -0.349576,0.44627 -0.349576,0.82399 l 0,0.37455 -0.799029,0 -0.799031,0 0,0.79903 0,9.58835 0,0.79903 0.799031,0 7.191269,0 0.799029,0 0,-0.79903 0,-9.58835 0,-0.79903 -0.799029,0 -0.79903,0 0,-0.27467 0,-0.0249 c -0.01909,-0.34406 -0.136019,-0.6011 -0.324605,-0.824 -0.178767,-0.2113 -0.500745,-0.42293 -0.92388,-0.42448 l 0,-0.025 -0.04994,0 -3.121212,0 z m 0.424486,1.59806 2.39709,0 0,0.77406 0,0.79903 0.799029,0 0.79903,0 0,7.9903 -5.59321,0 0,-7.9903 0.799031,0 0.79903,0 0,-0.79903 0,-0.77406 z"
       id="path2930"
       style="font-size:medium;font-style:normal;font-variant:normal;font-weight:normal;font-stretch:normal;text-indent:0;text-align:start;text-decoration:none;line-height:normal;letter-spacing:normal;word-spacing:normal;text-transform:none;direction:ltr;block-progression:tb;writing-mode:lr-tb;text-anchor:start;baseline-shift:baseline;color:#bebebe;fill:#000000;fill-opacity:1;stroke:none;stroke-width:2;marker:none;visibility:visible;display:inline;overflow:visible;enable-background:accumulate;font-family:Sans;-inkscape-font-specification:Sans" />
    <rect
       transform="matrix(0,1,1,0,0,0)"
       class="success"
       x="227.46696"
       y="66.769356"
       id="rect4229"
       height="3.9951496"
       style="fill:#000000;fill-opacity:1;stroke:none;display:inline"
       width="1.59806" />
  </g>
  <g
     inkscape:label="devices"
     transform="translate(-61.0002,-217)"
     inkscape:groupmode="layer"
     id="layer10" />
  <g
     inkscape:label="apps"
     transform="translate(-61.0002,-217)"
     inkscape:groupmode="layer"
     id="layer11" />
  <g
     inkscape:label="actions"
     transform="translate(-61.0002,-217)"
     inkscape:groupmode="layer"
     id="layer12" />
  <g
     inkscape:label="places"
     transform="translate(-61.0002,-217)"
     inkscape:groupmode="layer"
     id="layer13" />
  <g
     inkscape:label="mimetypes"
     transform="translate(-61.0002,-217)"
     inkscape:groupmode="layer"
     id="layer14" />
  <g
     inkscape:label="emblems"
     transform="translate(-61.0002,-217)"
     inkscape:groupmode="layer"
     id="layer15"
     style="display:inline" />
  <g
     inkscape:label="categories"
     transform="translate(-61.0002,-217)"
     inkscape:groupmode="layer"
     id="g4953"
     style="display:inline" />
</svg>
