<?xml version="1.0" encoding="UTF-8" standalone="no"?>
<!-- Created with Inkscape (http://www.inkscape.org/) -->

<svg
   xmlns:dc="http://purl.org/dc/elements/1.1/"
   xmlns:cc="http://creativecommons.org/ns#"
   xmlns:rdf="http://www.w3.org/1999/02/22-rdf-syntax-ns#"
   xmlns:svg="http://www.w3.org/2000/svg"
   xmlns="http://www.w3.org/2000/svg"
   xmlns:sodipodi="http://sodipodi.sourceforge.net/DTD/sodipodi-0.dtd"
   xmlns:inkscape="http://www.inkscape.org/namespaces/inkscape"
   id="svg7384"
   sodipodi:docname="gpm-battery-050.svg"
   version="1.1"
   inkscape:version="0.48.5 r10040"
   height="16"
   width="16">
  <metadata
     id="metadata90">
    <rdf:RDF>
      <cc:Work
         rdf:about="">
        <dc:format>image/svg+xml</dc:format>
        <dc:type
           rdf:resource="http://purl.org/dc/dcmitype/StillImage" />
        <dc:title>Gnome Symbolic Icon Theme</dc:title>
      </cc:Work>
    </rdf:RDF>
  </metadata>
  <sodipodi:namedview
     inkscape:cy="10.313397"
     pagecolor="#555753"
     borderopacity="1"
     showborder="true"
     inkscape:bbox-paths="false"
     guidetolerance="10"
     inkscape:object-paths="true"
     inkscape:window-width="1914"
     showguides="true"
     inkscape:object-nodes="true"
     inkscape:snap-bbox="true"
     inkscape:pageshadow="2"
     inkscape:guide-bbox="true"
     inkscape:snap-nodes="false"
     bordercolor="#666666"
     objecttolerance="10"
     id="namedview88"
     showgrid="true"
     inkscape:window-maximized="1"
     inkscape:window-x="0"
     inkscape:snap-global="false"
     inkscape:window-y="25"
     gridtolerance="10"
     inkscape:window-height="1031"
     inkscape:snap-to-guides="true"
     inkscape:current-layer="layer9"
     inkscape:snap-bbox-midpoints="false"
     inkscape:zoom="15.999999"
     inkscape:cx="17.115102"
     inkscape:snap-grids="true"
     inkscape:pageopacity="0">
    <inkscape:grid
       spacingx="1px"
       spacingy="1px"
       id="grid4866"
       empspacing="2"
       enabled="true"
       type="xygrid"
       snapvisiblegridlinesonly="true"
       visible="true" />
  </sodipodi:namedview>
  <title
     id="title9167">Gnome Symbolic Icon Theme</title>
  <defs
     id="defs7386" />
  <g
     inkscape:label="status"
     transform="translate(-61.0002,-217)"
     inkscape:groupmode="layer"
     id="layer9"
     style="display:inline">
    <path
       inkscape:connector-curvature="0"
       d="m 66.552889,216.98977 c -0.541604,0 -0.879318,0.23065 -1.139091,0.47326 -0.259782,0.2426 -0.483259,0.56387 -0.483259,1.04116 l 0,0.47324 -1.104568,0 -1.104577,0 0,1.00961 0,12.11528 0,1.00961 1.104577,0 9.941166,0 1.104568,0 0,-1.00961 0,-12.11528 0,-1.00961 -1.104568,0 -1.104577,0 0,-0.34705 0,-0.0316 c -0.02641,-0.43473 -0.188038,-0.75952 -0.448735,-1.04116 -0.24713,-0.26698 -0.69222,-0.5344 -1.27716,-0.53635 l 0,-0.0316 -0.06901,0 -4.314745,0 z m 0.586804,2.01921 3.313722,0 0,0.97806 0,1.00961 1.104568,0 1.104577,0 0,10.09607 -7.732021,0 0,-10.09607 1.104577,0 1.104577,0 0,-1.00961 0,-0.97806 z"
       id="path2930-7"
       style="font-size:medium;font-style:normal;font-variant:normal;font-weight:normal;font-stretch:normal;text-indent:0;text-align:start;text-decoration:none;line-height:normal;letter-spacing:normal;word-spacing:normal;text-transform:none;direction:ltr;block-progression:tb;writing-mode:lr-tb;text-anchor:start;baseline-shift:baseline;color:#bebebe;fill:#ffffff;fill-opacity:1;stroke:none;stroke-width:2;marker:none;visibility:visible;display:inline;overflow:visible;enable-background:accumulate;font-family:Sans;-inkscape-font-specification:Sans" />
    <rect
       style="fill:#ffffff;fill-opacity:1;stroke:none;display:inline"
       id="rect3032"
       width="7.2355628"
       height="11.110345"
       x="65.014641"
       y="219.82715" />
    <path
       inkscape:connector-curvature="0"
       d="m 67.151033,218.63511 c -0.397169,0 -0.644833,0.18505 -0.835334,0.3797 -0.190501,0.19464 -0.354384,0.4524 -0.354384,0.83533 l 0,0.3797 -0.810021,0 -0.810021,0 0,0.81002 0,9.72025 0,0.81002 0.810021,0 7.290187,0 0.810021,0 0,-0.81002 0,-9.72025 0,-0.81002 -0.810021,0 -0.810021,0 0,-0.27845 0,-0.0253 c -0.01936,-0.34879 -0.13789,-0.60937 -0.329071,-0.83533 -0.181226,-0.21421 -0.507632,-0.42876 -0.936586,-0.43033 l 0,-0.0253 -0.05063,0 -3.164143,0 z m 0.430323,1.62004 2.430063,0 0,0.78471 0,0.81002 0.81002,0 0.810021,0 0,8.10021 -5.670145,0 0,-8.10021 0.810021,0 0.81002,0 0,-0.81002 0,-0.78471 z"
       id="path2930"
       style="font-size:medium;font-style:normal;font-variant:normal;font-weight:normal;font-stretch:normal;text-indent:0;text-align:start;text-decoration:none;line-height:normal;letter-spacing:normal;word-spacing:normal;text-transform:none;direction:ltr;block-progression:tb;writing-mode:lr-tb;text-anchor:start;baseline-shift:baseline;color:#bebebe;fill:#000000;fill-opacity:1;stroke:none;stroke-width:2;marker:none;visibility:visible;display:inline;overflow:visible;enable-background:accumulate;font-family:Sans;-inkscape-font-specification:Sans" />
    <rect
       transform="matrix(0,1,1,0,0,0)"
       x="224.99146"
       y="66.454651"
       id="rect3735-1"
       height="4.5455456"
       width="1.7534209"
       style="fill:#000000;fill-opacity:1;stroke:none;display:inline" />
    <rect
       transform="matrix(0,1,1,0,0,0)"
       x="227.62158"
       y="66.454651"
       id="rect10870-0"
       height="4.5455456"
       style="fill:#000000;fill-opacity:1;stroke:none;display:inline"
       width="1.7534209" />
  </g>
  <g
     inkscape:label="devices"
     transform="translate(-61.0002,-217)"
     inkscape:groupmode="layer"
     id="layer10" />
  <g
     inkscape:label="apps"
     transform="translate(-61.0002,-217)"
     inkscape:groupmode="layer"
     id="layer11" />
  <g
     inkscape:label="actions"
     transform="translate(-61.0002,-217)"
     inkscape:groupmode="layer"
     id="layer12" />
  <g
     inkscape:label="places"
     transform="translate(-61.0002,-217)"
     inkscape:groupmode="layer"
     id="layer13" />
  <g
     inkscape:label="mimetypes"
     transform="translate(-61.0002,-217)"
     inkscape:groupmode="layer"
     id="layer14" />
  <g
     inkscape:label="emblems"
     transform="translate(-61.0002,-217)"
     inkscape:groupmode="layer"
     id="layer15"
     style="display:inline" />
  <g
     inkscape:label="categories"
     transform="translate(-61.0002,-217)"
     inkscape:groupmode="layer"
     id="g4953"
     style="display:inline" />
</svg>
