<?xml version="1.0" encoding="UTF-8" standalone="no"?>
<!-- Created with Inkscape (http://www.inkscape.org/) -->

<svg
   xmlns:dc="http://purl.org/dc/elements/1.1/"
   xmlns:cc="http://creativecommons.org/ns#"
   xmlns:rdf="http://www.w3.org/1999/02/22-rdf-syntax-ns#"
   xmlns:svg="http://www.w3.org/2000/svg"
   xmlns="http://www.w3.org/2000/svg"
   xmlns:sodipodi="http://sodipodi.sourceforge.net/DTD/sodipodi-0.dtd"
   xmlns:inkscape="http://www.inkscape.org/namespaces/inkscape"
   id="svg7384"
   sodipodi:docname="gpm-battery-050-charging.svg"
   version="1.1"
   inkscape:version="0.48.5 r10040"
   height="16"
   width="16">
  <metadata
     id="metadata90">
    <rdf:RDF>
      <cc:Work
         rdf:about="">
        <dc:format>image/svg+xml</dc:format>
        <dc:type
           rdf:resource="http://purl.org/dc/dcmitype/StillImage" />
        <dc:title>Gnome Symbolic Icon Theme</dc:title>
      </cc:Work>
    </rdf:RDF>
  </metadata>
  <sodipodi:namedview
     inkscape:cy="8.097547"
     pagecolor="#555753"
     borderopacity="1"
     showborder="true"
     inkscape:bbox-paths="false"
     guidetolerance="10"
     inkscape:object-paths="true"
     inkscape:window-width="1914"
     showguides="true"
     inkscape:object-nodes="true"
     inkscape:snap-bbox="true"
     inkscape:pageshadow="2"
     inkscape:guide-bbox="true"
     inkscape:snap-nodes="false"
     bordercolor="#666666"
     objecttolerance="10"
     id="namedview88"
     showgrid="true"
     inkscape:window-maximized="1"
     inkscape:window-x="0"
     inkscape:snap-global="false"
     inkscape:window-y="25"
     gridtolerance="10"
     inkscape:window-height="1031"
     inkscape:snap-to-guides="true"
     inkscape:current-layer="layer9"
     inkscape:snap-bbox-midpoints="false"
     inkscape:zoom="22.627416"
     inkscape:cx="8.9751265"
     inkscape:snap-grids="true"
     inkscape:pageopacity="0">
    <inkscape:grid
       spacingx="1px"
       spacingy="1px"
       id="grid4866"
       empspacing="2"
       enabled="true"
       type="xygrid"
       snapvisiblegridlinesonly="true"
       visible="true" />
  </sodipodi:namedview>
  <title
     id="title9167">Gnome Symbolic Icon Theme</title>
  <defs
     id="defs7386" />
  <g
     inkscape:label="status"
     transform="translate(-61.0002,-217)"
     inkscape:groupmode="layer"
     id="layer9"
     style="display:inline">
    <path
       style="fill:#ffffff;stroke:none;display:inline"
       d="m 62.701032,219.67962 10.423731,-0.0374 0.91218,3.80017 0.0104,2.4824 1.59548,-0.006 0.14178,2.88533 -3.51003,4.16896 -9.466461,-0.26178 z"
       id="path3049"
       inkscape:connector-curvature="0"
       sodipodi:nodetypes="ccccccccc" />
    <path
       inkscape:connector-curvature="0"
       d="m 66.489862,217.02863 c -0.55443,0 -0.90014,0.22808 -1.16608,0.46798 -0.26591,0.23992 -0.49467,0.5576 -0.49467,1.02957 l 0,0.46799 -1.13074,0 -1.13073,0 0,0.99836 0,11.98034 0,0.99837 1.13073,0 7.91511,0 0,-1.99672 -6.78437,0 0,-9.98364 1.13071,0 1.13076,0 0,-0.99835 0,-0.96717 3.39218,0 0,0.96717 0,0.99835 1.13072,0 1.130751,0 0,2.99509 2.26146,0 0,-3.99344 0,-0.99836 -1.13073,0 -1.13073,0 0,-0.3432 0,-0.0311 c -0.0271,-0.4299 -0.19249,-0.75106 -0.45935,-1.02955 -0.25298,-0.26402 -0.708621,-0.52845 -1.307431,-0.53041 l 0,-0.0311 -0.0707,0 -4.41692,0 z"
       id="path6308-5"
       style="font-size:medium;font-style:normal;font-variant:normal;font-weight:normal;font-stretch:normal;text-indent:0;text-align:start;text-decoration:none;line-height:normal;letter-spacing:normal;word-spacing:normal;text-transform:none;direction:ltr;block-progression:tb;writing-mode:lr-tb;text-anchor:start;color:#bebebe;fill:#ffffff;fill-opacity:1;stroke:none;stroke-width:2;marker:none;visibility:visible;display:inline;overflow:visible;enable-background:accumulate;font-family:Bitstream Vera Sans;-inkscape-font-specification:Bitstream Vera Sans" />
    <path
       style="font-size:medium;font-style:normal;font-variant:normal;font-weight:normal;font-stretch:normal;text-indent:0;text-align:start;text-decoration:none;line-height:normal;letter-spacing:normal;word-spacing:normal;text-transform:none;direction:ltr;block-progression:tb;writing-mode:lr-tb;text-anchor:start;baseline-shift:baseline;color:#bebebe;fill:#000000;fill-opacity:1;stroke:none;stroke-width:2;marker:none;visibility:visible;display:inline;overflow:visible;enable-background:accumulate;font-family:Sans;-inkscape-font-specification:Sans"
       d="m 66.972997,218.25086 c -0.445743,0 -0.723703,0.19558 -0.9375,0.40625 -0.213798,0.21067 -0.40625,0.4918 -0.40625,0.90625 l 0,0.40625 -0.90625,0 -0.90625,0 0,0.875 0,10.53125 0,0.875 0.90625,0 3.6875,0 0,-0.40625 c -0.07878,-0.39093 0.02424,-0.81817 0.3125,-1.09375 l -0.0625,-0.25 -3.03125,0 0,-8.78125 0.90625,0 0.90625,0 0,-0.875 0,-0.84375 2.75,0 0,0.84375 0,0.875 0.90625,0 0.90625,0 0,1.6875 c 0.637397,-0.042 1.120872,0.0657 1.8125,0.0313 l 0,-2.59375 0,-0.875 -0.90625,0 -0.90625,0 0,-0.28125 0,-0.0313 c -0.02175,-0.3775 -0.160446,-0.66168 -0.375,-0.90625 -0.203391,-0.23184 -0.581088,-0.46705 -1.0625,-0.46875 l 0,-0.0313 -0.03125,0 z"
       id="path3737-8"
       inkscape:connector-curvature="0"
       sodipodi:nodetypes="sssccccccccccccccccccccccccccccccscccs" />
    <path
       inkscape:connector-curvature="0"
       d="m 71.575089,224.22558 a 1.016466,1.016466 0 0 0 -0.46875,0.28125 l -3,3 a 1.0001,1.0001 0 0 0 -0.28125,0.90625 l 0,0.8125 0.999998,0 2.125002,0 -0.843752,1.28125 a 1.016466,1.016466 0 0 0 -0.28125,0.9375 l 0,0.78125 1.000002,0 a 1.016466,1.016466 0 0 0 0.71875,-0.28125 l 3,-3 a 1.0001,1.0001 0 0 0 0.28125,-0.71875 1.0001,1.0001 0 0 0 0,-0.125 l 0,-0.875 -0.84375,0 -0.0937,0 a 1.0001,1.0001 0 0 0 -0.0625,0 l -2.125,0 0.84375,-1.28125 a 1.016466,1.016466 0 0 0 0.28125,-0.9375 l 0,-0.78125 -0.9375,0 a 1.016466,1.016466 0 0 0 -0.3125,0 z"
       id="path6217-8-0"
       style="font-size:medium;font-style:normal;font-variant:normal;font-weight:normal;font-stretch:normal;text-indent:0;text-align:start;text-decoration:none;line-height:normal;letter-spacing:normal;word-spacing:normal;text-transform:none;direction:ltr;block-progression:tb;writing-mode:lr-tb;text-anchor:start;color:#bebebe;fill:#000000;fill-opacity:1;fill-rule:nonzero;stroke:none;stroke-width:2;marker:none;visibility:visible;display:inline;overflow:visible;enable-background:accumulate;font-family:Bitstream Vera Sans;-inkscape-font-specification:Bitstream Vera Sans" />
    <path
       style="fill:#000000;fill-opacity:1;stroke:none;display:inline"
       d="m 66.166465,225.06297 0,1.75343 1.326613,0 1.6875,-1.75343 z"
       id="rect3735-7"
       inkscape:connector-curvature="0"
       sodipodi:nodetypes="ccccc" />
    <rect
       transform="matrix(0,1,1,0,0,0)"
       x="227.69312"
       y="66.166458"
       id="rect10870-7-0"
       height="0.70161319"
       style="fill:#000000;fill-opacity:1;stroke:none;display:inline"
       width="1.7534242" />
  </g>
  <g
     inkscape:label="devices"
     transform="translate(-61.0002,-217)"
     inkscape:groupmode="layer"
     id="layer10" />
  <g
     inkscape:label="apps"
     transform="translate(-61.0002,-217)"
     inkscape:groupmode="layer"
     id="layer11" />
  <g
     inkscape:label="actions"
     transform="translate(-61.0002,-217)"
     inkscape:groupmode="layer"
     id="layer12" />
  <g
     inkscape:label="places"
     transform="translate(-61.0002,-217)"
     inkscape:groupmode="layer"
     id="layer13" />
  <g
     inkscape:label="mimetypes"
     transform="translate(-61.0002,-217)"
     inkscape:groupmode="layer"
     id="layer14" />
  <g
     inkscape:label="emblems"
     transform="translate(-61.0002,-217)"
     inkscape:groupmode="layer"
     id="layer15"
     style="display:inline" />
  <g
     inkscape:label="categories"
     transform="translate(-61.0002,-217)"
     inkscape:groupmode="layer"
     id="g4953"
     style="display:inline" />
</svg>
