<?xml version="1.0" encoding="UTF-8" standalone="no"?>
<!-- Created with Inkscape (http://www.inkscape.org/) -->

<svg
   xmlns:dc="http://purl.org/dc/elements/1.1/"
   xmlns:cc="http://creativecommons.org/ns#"
   xmlns:rdf="http://www.w3.org/1999/02/22-rdf-syntax-ns#"
   xmlns:svg="http://www.w3.org/2000/svg"
   xmlns="http://www.w3.org/2000/svg"
   xmlns:sodipodi="http://sodipodi.sourceforge.net/DTD/sodipodi-0.dtd"
   xmlns:inkscape="http://www.inkscape.org/namespaces/inkscape"
   width="256"
   height="256"
   id="svg3832"
   version="1.1"
   inkscape:version="0.48.5 r10040"
   sodipodi:docname="hcompartir-transfer2.svg"
   inkscape:export-filename="/home/alumno/Dropbox/huayra/logos/compartir-web.png"
   inkscape:export-xdpi="5.527988"
   inkscape:export-ydpi="5.527988">
  <defs
     id="defs3834" />
  <sodipodi:namedview
     id="base"
     pagecolor="#e6e7e8"
     bordercolor="#666666"
     borderopacity="1.0"
     inkscape:pageopacity="0"
     inkscape:pageshadow="2"
     inkscape:zoom="1.8726022"
     inkscape:cx="152.497"
     inkscape:cy="43.810688"
     inkscape:document-units="px"
     inkscape:current-layer="layer1"
     showgrid="false"
     showguides="false"
     inkscape:window-width="1914"
     inkscape:window-height="1031"
     inkscape:window-x="0"
     inkscape:window-y="25"
     inkscape:window-maximized="1"
     fit-margin-top="0"
     fit-margin-left="0"
     fit-margin-right="0"
     fit-margin-bottom="0" />
  <metadata
     id="metadata3837">
    <rdf:RDF>
      <cc:Work
         rdf:about="">
        <dc:format>image/svg+xml</dc:format>
        <dc:type
           rdf:resource="http://purl.org/dc/dcmitype/StillImage" />
        <dc:title />
      </cc:Work>
    </rdf:RDF>
  </metadata>
  <g
     inkscape:label="Capa 1"
     inkscape:groupmode="layer"
     id="layer1"
     transform="translate(1563.7749,344.58422)">
    <g
       style="font-size:160.8941803px;font-style:normal;font-variant:normal;font-weight:normal;font-stretch:normal;line-height:125%;letter-spacing:0px;word-spacing:0px;fill:#000000;fill-opacity:1;stroke:none;font-family:Nanosecond Thick BRK;-inkscape-font-specification:Nanosecond Thick BRK"
       id="text3978-1-6-2"
       transform="matrix(1.8494298,0,0,1.8494298,-207.45938,-1600.0336)">
      <path
         inkscape:connector-curvature="0"
         d="m -2901.2441,1188.305 c 0,-3.3251 -0.8045,-6.2212 -2.4134,-8.6883 -2.5743,-3.8614 -6.6503,-5.7921 -12.228,-5.7922 -5.4704,10e-5 -9.4391,1.8772 -11.9061,5.6313 -1.7162,2.4671 -2.5744,5.4169 -2.5743,8.8492 l 0,47.4638 c -1e-4,3.5397 0.8044,6.4894 2.4134,8.8491 2.3597,3.8615 6.3821,5.7923 12.067,5.7922 5.5777,10e-5 9.6,-1.877 12.0671,-5.6313 1.7162,-2.467 2.5743,-5.4703 2.5743,-9.01 0,-2.467 0.8581,-4.6123 2.5743,-6.4358 1.7162,-1.8234 3.9151,-2.7352 6.5967,-2.7352 2.467,0 4.6122,0.9118 6.4358,2.7352 1.8234,1.8235 2.7351,4.0224 2.7352,6.5967 -1e-4,8.0447 -2.4135,15.124 -7.2403,21.238 -6.114,7.7229 -14.695,11.5844 -25.7431,11.5844 -10.9408,0 -19.4682,-3.8078 -25.5821,-11.4235 -4.9341,-6.2212 -7.4012,-13.3542 -7.4012,-21.3989 l 0,-47.6247 c 0,-7.9374 2.4671,-15.0167 7.4012,-21.238 6.1139,-7.7229 14.6413,-11.5843 25.5821,-11.5844 11.0481,10e-5 19.5755,3.8079 25.5822,11.4235 4.934,6.2213 7.4011,13.3543 7.4012,21.3989 -1e-4,2.5744 -0.8582,4.7733 -2.5744,6.5966 -1.7162,1.8236 -3.9151,2.7353 -6.5966,2.7352 -2.4671,10e-5 -4.6124,-0.9116 -6.4358,-2.7352 -1.8235,-1.8233 -2.7352,-4.0222 -2.7352,-6.5966"
         id="path4918-4"
         style="fill:#000000" />
      <path
         inkscape:connector-curvature="0"
         d="m -2808.74,1235.9297 c -1e-4,8.0447 -2.4135,15.124 -7.2402,21.238 -6.1141,7.7229 -14.6951,11.5844 -25.7431,11.5844 -10.9408,0 -19.4682,-3.8078 -25.5822,-11.4235 -4.9341,-6.2212 -7.4011,-13.3542 -7.4011,-21.3989 0,-8.0447 2.467,-15.1777 7.4011,-21.399 6.114,-7.7228 14.6414,-11.5843 25.5822,-11.5843 11.048,0 19.5754,3.8078 25.5822,11.4234 4.934,6.2213 7.401,13.4079 7.4011,21.5599 m -18.3419,0 c -10e-5,-3.5397 -0.8045,-6.543 -2.4134,-9.0101 -2.4671,-3.7542 -6.5431,-5.6313 -12.228,-5.6313 -5.4704,0 -9.4391,1.8771 -11.9062,5.6313 -1.7162,2.4671 -2.5743,5.4704 -2.5743,9.0101 0,3.5397 0.8045,6.4894 2.4134,8.8491 2.4671,3.7543 6.4894,5.6314 12.0671,5.6313 5.5776,10e-5 9.6,-1.877 12.0671,-5.6313 1.7161,-2.467 2.5742,-5.4167 2.5743,-8.8491"
         id="path4920-2"
         style="fill:#000000" />
      <path
         inkscape:connector-curvature="0"
         d="m -2702.8817,1259.5811 c -1e-4,2.4671 -0.9118,4.6123 -2.7352,6.4358 -1.8235,1.8234 -3.9688,2.7352 -6.4357,2.7352 -2.5744,0 -4.7733,-0.8581 -6.5967,-2.5743 -1.8235,-1.7162 -2.7353,-3.9151 -2.7352,-6.5967 l 0,-23.6514 c -10e-5,-5.5777 -1.8772,-9.6 -5.6313,-12.0671 -2.4671,-1.7162 -5.4168,-2.5743 -8.8492,-2.5743 l -6.5966,0 0,38.2928 c -10e-5,2.4671 -0.9118,4.6123 -2.7352,6.4358 -1.8236,1.8234 -3.9688,2.7352 -6.4358,2.7352 -2.5744,0 -4.7732,-0.8581 -6.5967,-2.5743 -1.8235,-1.7162 -2.7352,-3.9151 -2.7352,-6.5967 l 0,-38.2928 -6.5966,0 c -5.5777,0 -9.6001,1.8771 -12.0671,5.6313 -1.609,2.4671 -2.4134,5.4704 -2.4134,9.0101 l 0,23.6514 c 0,2.4671 -0.9118,4.6123 -2.7352,6.4358 -1.8235,1.8234 -3.9687,2.7352 -6.4358,2.7352 -2.5743,0 -4.7732,-0.8581 -6.5966,-2.5743 -1.8235,-1.7162 -2.7352,-3.9151 -2.7352,-6.5967 l 0,-23.6514 c 0,-8.0447 2.467,-15.1777 7.4011,-21.399 6.114,-7.7228 14.6413,-11.5843 25.5822,-11.5843 l 7.8838,0 c 2.896,0 5.524,0.59 7.8838,1.7698 2.5743,-1.1798 5.2558,-1.7698 8.0447,-1.7698 l 7.8838,0 c 8.1519,0 15.2849,2.4134 21.399,7.2402 7.7228,6.114 11.5842,14.695 11.5843,25.7431 l 0,23.6514"
         id="path4922-1"
         style="fill:#000000" />
      <path
         inkscape:connector-curvature="0"
         d="m -2628.991,1235.9297 c -1e-4,10.9408 -3.8079,19.4145 -11.4235,25.4212 -6.2213,4.9341 -13.4079,7.4012 -21.5598,7.4012 l -14.4805,0 0,14.6413 c 0,2.4671 -0.8581,4.6123 -2.5743,6.4358 -1.7162,1.8235 -3.9151,2.7352 -6.5967,2.7352 -2.5743,0 -4.7732,-0.9117 -6.5966,-2.7352 -1.8235,-1.8235 -2.7352,-3.9687 -2.7352,-6.4358 l 0,-15.9285 c 0,-2.6815 0.6435,-5.3095 1.9307,-7.8838 -1.2872,-2.5743 -1.9307,-5.2022 -1.9307,-7.8838 l 0,-31.6962 c 0,-4.5049 1.448,-8.3664 4.3441,-11.5843 3.3252,-3.6469 7.6157,-5.4704 12.8716,-5.4704 l 15.7676,0 c 8.1519,0 15.2849,2.4134 21.3989,7.2402 7.7229,6.114 11.5843,14.695 11.5844,25.7431 m -18.3419,0 c -1e-4,-5.5777 -1.8772,-9.6 -5.6313,-12.0671 -2.4671,-1.7162 -5.4705,-2.5743 -9.0101,-2.5743 l -14.4805,0 0,29.1218 14.4805,0 c 3.4323,10e-5 6.3821,-0.8044 8.8492,-2.4134 3.8614,-2.3597 5.7921,-6.3821 5.7922,-12.067"
         id="path4924-0"
         style="fill:#000000" />
      <path
         inkscape:connector-curvature="0"
         d="m -2554.8288,1227.885 c -1e-4,2.7888 -0.5901,5.4704 -1.7699,8.0447 1.1798,2.6816 1.7698,5.3095 1.7699,7.8838 l 0,7.8838 c -1e-4,5.2559 -1.8236,9.4928 -5.4704,12.7106 -3.218,2.8961 -7.0794,4.3442 -11.5844,4.3442 l -23.8124,0 c -8.3665,0 -14.8559,-2.8961 -19.4682,-8.6883 -3.7542,-4.7196 -5.6313,-10.1363 -5.6313,-16.2503 0,-2.5743 0.4827,-4.8804 1.4481,-6.9185 0.9654,-2.1452 2.1989,-3.9687 3.7006,-5.4704 1.6089,-1.6089 3.4324,-2.7888 5.4704,-3.5396 2.1452,-0.8581 4.3441,-1.2872 6.5966,-1.2872 l 30.2481,0 c -0.3218,-2.3597 -1.2872,-3.915 -2.8961,-4.6659 -0.7509,-0.429 -1.9307,-0.6436 -3.5396,-0.6436 l -8.0447,0 c -2.4671,0 -4.6124,-0.8581 -6.4358,-2.5743 -1.8235,-1.7162 -2.7352,-3.9151 -2.7352,-6.5967 0,-2.467 0.9117,-4.6122 2.7352,-6.4357 1.8234,-1.8234 3.9687,-2.7352 6.4358,-2.7352 l 8.0447,0 c 8.1519,0 14.5876,2.8961 19.3073,8.6882 3.7541,4.7197 5.6312,10.1364 5.6313,16.2504 m -18.342,22.5251 0,-5.3095 -28.9609,0 c 0.3217,2.3598 1.2871,3.9151 2.8961,4.666 0.7508,0.429 1.9307,0.6436 3.5396,0.6435 l 22.5252,0"
         id="path4926-4"
         style="fill:#000000" />
      <path
         inkscape:connector-curvature="0"
         d="m -2480.9809,1212.1173 c -1e-4,2.5744 -0.9118,4.7733 -2.7352,6.5967 -1.7163,1.7162 -3.8616,2.5743 -6.4358,2.5743 l -23.8123,0 c -5.4705,0 -9.4392,1.8771 -11.9062,5.6313 -1.7162,2.4671 -2.5743,5.4704 -2.5743,9.0101 l 0,23.6514 c 0,2.5743 -0.9118,4.7732 -2.7352,6.5967 -1.7162,1.7162 -3.8615,2.5743 -6.4358,2.5743 -2.5743,0 -4.7732,-0.8581 -6.5967,-2.5743 -1.8234,-1.7162 -2.7352,-3.9151 -2.7352,-6.5967 l 0,-23.6514 c 0,-8.0447 2.4671,-15.1777 7.4012,-21.399 6.1139,-7.7228 14.6413,-11.5843 25.5822,-11.5843 l 23.8123,0 c 2.5742,0 4.7195,0.9118 6.4358,2.7352 1.8234,1.7162 2.7351,3.8615 2.7352,6.4357"
         id="path4928-9"
         style="fill:#000000" />
      <path
         inkscape:connector-curvature="0"
         d="m -2406.8188,1212.1173 c 0,2.5744 -0.9118,4.7733 -2.7352,6.5967 -1.7162,1.7162 -3.8615,2.5743 -6.4357,2.5743 l -14.4805,0 0,38.2928 c -10e-5,2.4671 -0.9118,4.6123 -2.7352,6.4358 -1.8235,1.8234 -4.0224,2.7352 -6.5967,2.7352 -2.4671,0 -4.6123,-0.8581 -6.4357,-2.5743 -1.8235,-1.7162 -2.7353,-3.9151 -2.7352,-6.5967 l 0,-38.2928 -14.4805,0 c -2.5743,0 -4.7732,-0.8581 -6.5967,-2.5743 -1.8235,-1.7162 -2.7352,-3.9151 -2.7352,-6.5967 0,-2.467 0.9117,-4.6122 2.7352,-6.4357 1.8235,-1.8234 4.0224,-2.7352 6.5967,-2.7352 l 14.4805,0 0,-14.6414 c -1e-4,-2.467 0.9117,-4.6122 2.7352,-6.4358 1.8234,-1.8234 3.9686,-2.7351 6.4357,-2.7352 2.5743,10e-5 4.7732,0.9118 6.5967,2.7352 1.8234,1.8236 2.7351,3.9688 2.7352,6.4358 l 0,14.6414 14.4805,0 c 2.5742,0 4.7195,0.9118 6.4357,2.7352 1.8234,1.7162 2.7352,3.8615 2.7352,6.4357"
         id="path4930-5"
         style="fill:#000000" />
      <path
         inkscape:connector-curvature="0"
         d="m -2380.2813,1259.5811 c 0,2.5743 -0.9117,4.7732 -2.7352,6.5967 -1.7162,1.7162 -3.8615,2.5743 -6.4357,2.5743 -2.5744,0 -4.7732,-0.8581 -6.5967,-2.5743 -1.7162,-1.8235 -2.5743,-4.0224 -2.5743,-6.5967 l 0,-47.4638 c 0,-2.5742 0.8581,-4.7195 2.5743,-6.4357 1.8235,-1.8234 4.0223,-2.7352 6.5967,-2.7352 2.5742,0 4.7195,0.9118 6.4357,2.7352 1.8235,1.7162 2.7352,3.8615 2.7352,6.4357 l 0,47.4638 m 0,-71.2761 c 0,2.5744 -0.8581,4.7733 -2.5743,6.5966 -1.7162,1.8236 -3.9151,2.7353 -6.5966,2.7352 -2.4671,10e-5 -4.6124,-0.9116 -6.4358,-2.7352 -1.8235,-1.8233 -2.7352,-4.0222 -2.7352,-6.5966 0,-2.467 0.8581,-4.6122 2.5743,-6.4358 1.7162,-1.8234 3.9151,-2.7351 6.5967,-2.7352 2.467,10e-5 4.6122,0.9118 6.4357,2.7352 1.8235,1.8236 2.7352,3.9688 2.7352,6.4358"
         id="path4932-9"
         style="fill:#000000" />
      <path
         inkscape:connector-curvature="0"
         d="m -2306.2599,1212.1173 c -1e-4,2.5744 -0.9118,4.7733 -2.7352,6.5967 -1.7163,1.7162 -3.8616,2.5743 -6.4358,2.5743 l -23.8123,0 c -5.4705,0 -9.4392,1.8771 -11.9062,5.6313 -1.7162,2.4671 -2.5743,5.4704 -2.5743,9.0101 l 0,23.6514 c 0,2.5743 -0.9118,4.7732 -2.7352,6.5967 -1.7162,1.7162 -3.8615,2.5743 -6.4358,2.5743 -2.5743,0 -4.7732,-0.8581 -6.5966,-2.5743 -1.8235,-1.7162 -2.7353,-3.9151 -2.7352,-6.5967 l 0,-23.6514 c -10e-5,-8.0447 2.467,-15.1777 7.4011,-21.399 6.1139,-7.7228 14.6413,-11.5843 25.5822,-11.5843 l 23.8123,0 c 2.5742,0 4.7195,0.9118 6.4358,2.7352 1.8234,1.7162 2.7351,3.8615 2.7352,6.4357"
         id="path4934-9"
         style="fill:#000000" />
    </g>
    <path
       sodipodi:type="arc"
       style="fill:#ffffff;fill-opacity:1;stroke:none"
       id="path3848-7-6-4-3-0-4-51"
       sodipodi:cx="-410"
       sodipodi:cy="263.79074"
       sodipodi:rx="45.714287"
       sodipodi:ry="84.285713"
       d="m -364.28571,263.79074 a 45.714287,84.285713 0 1 1 -0.85023,-16.18015"
       sodipodi:start="0"
       sodipodi:end="6.0900184"
       sodipodi:open="true"
       transform="matrix(0.41390928,0.44530428,-0.44530428,0.41390928,-1197.8031,-93.99279)" />
    <path
       transform="matrix(0.58564467,0,0,0.58564467,-1183.374,-465.24536)"
       sodipodi:type="arc"
       style="fill:#ffffff;fill-opacity:1;stroke:none"
       id="path3846-7-4-3-2-7"
       sodipodi:cx="-425.71429"
       sodipodi:cy="420.93362"
       sodipodi:rx="62.857143"
       sodipodi:ry="62.857143"
       d="m -362.85715,420.93362 a 62.857143,62.857143 0 1 1 -1.16907,-12.06655"
       sodipodi:start="0"
       sodipodi:end="6.0900184"
       sodipodi:open="true" />
    <path
       sodipodi:type="arc"
       style="fill:#ffffff;fill-opacity:1;stroke:none"
       id="path3848-7-6-4-3-0"
       sodipodi:cx="-410"
       sodipodi:cy="263.79074"
       sodipodi:rx="45.714287"
       sodipodi:ry="84.285713"
       d="m -364.28571,263.79074 a 45.714287,84.285713 0 1 1 -0.85023,-16.18015"
       sodipodi:start="0"
       sodipodi:end="6.0900184"
       sodipodi:open="true"
       transform="matrix(0.60796117,0,0,0.60796117,-1184.5596,-451.31427)" />
    <path
       sodipodi:type="arc"
       style="fill:#ffffff;fill-opacity:1;stroke:none"
       id="path3848-7-6-4-3-0-4"
       sodipodi:cx="-410"
       sodipodi:cy="263.79074"
       sodipodi:rx="45.714287"
       sodipodi:ry="84.285713"
       d="m -364.28571,263.79074 a 45.714287,84.285713 0 1 1 -0.85023,-16.18015"
       sodipodi:start="0"
       sodipodi:end="6.0900184"
       sodipodi:open="true"
       transform="matrix(0.48070811,0.37220492,-0.37220492,0.48070811,-1083.7268,-249.43403)" />
    <path
       sodipodi:type="arc"
       style="fill:#ffffff;fill-opacity:1;stroke:none"
       id="path3848-7-6-4-3-0-1"
       sodipodi:cx="-410"
       sodipodi:cy="263.79074"
       sodipodi:rx="45.714287"
       sodipodi:ry="84.285713"
       d="m -364.28571,263.79074 a 45.714287,84.285713 0 1 1 -0.85023,-16.18015"
       sodipodi:start="0"
       sodipodi:end="6.0900184"
       sodipodi:open="true"
       transform="matrix(0.60796117,0,0,0.60796117,-1179.9102,-310.40725)" />
    <path
       sodipodi:type="arc"
       style="fill:#ffffff;fill-opacity:1;stroke:none"
       id="path3848-7-6-4-3-0-4-5"
       sodipodi:cx="-410"
       sodipodi:cy="263.79074"
       sodipodi:rx="45.714287"
       sodipodi:ry="84.285713"
       d="m -364.28571,263.79074 a 45.714287,84.285713 0 1 1 -0.85023,-16.18015"
       sodipodi:start="0"
       sodipodi:end="6.0900184"
       sodipodi:open="true"
       transform="matrix(0.01027513,0.60787434,-0.60787434,0.01027513,-1193.3337,24.743356)" />
    <path
       sodipodi:type="arc"
       style="fill:#ffffff;fill-opacity:1;stroke:none"
       id="path3848-7-6-4-3-0-4-5-4"
       sodipodi:cx="-410"
       sodipodi:cy="263.79074"
       sodipodi:rx="45.714287"
       sodipodi:ry="84.285713"
       d="m -364.28571,263.79074 a 45.714287,84.285713 0 1 1 -0.85023,-16.18015"
       sodipodi:start="0"
       sodipodi:end="6.0900184"
       sodipodi:open="true"
       transform="matrix(-0.3546885,0.49377409,-0.49377409,-0.3546885,-1391.357,121.59497)" />
    <path
       sodipodi:type="arc"
       style="fill:#ffffff;fill-opacity:1;stroke:none"
       id="path3848-7-6-4-3-0-4-5-4-3"
       sodipodi:cx="-410"
       sodipodi:cy="263.79074"
       sodipodi:rx="45.714287"
       sodipodi:ry="84.285713"
       d="m -364.28571,263.79074 a 45.714287,84.285713 0 1 1 -0.85023,-16.18015"
       sodipodi:start="0"
       sodipodi:end="6.0900184"
       sodipodi:open="true"
       transform="matrix(-0.48557703,0.36583018,-0.36583018,-0.48557703,-1588.0282,4.7263658)" />
    <path
       transform="matrix(0.43271654,0,0,0.43271654,-1248.4481,-402.24752)"
       sodipodi:type="arc"
       style="fill:#000000;fill-opacity:1;stroke:none"
       id="path3846-7-4-3-2"
       sodipodi:cx="-425.71429"
       sodipodi:cy="420.93362"
       sodipodi:rx="62.857143"
       sodipodi:ry="62.857143"
       d="m -362.85715,420.93362 a 62.857143,62.857143 0 1 1 -1.16907,-12.06655"
       sodipodi:start="0"
       sodipodi:end="6.0900184"
       sodipodi:open="true" />
    <path
       sodipodi:type="arc"
       style="fill:#000000;fill-opacity:1;stroke:none"
       id="path3848-7-6-4-3"
       sodipodi:cx="-410"
       sodipodi:cy="263.79074"
       sodipodi:rx="45.714287"
       sodipodi:ry="84.285713"
       d="m -364.28571,263.79074 a 45.714287,84.285713 0 1 1 -0.85023,-16.18015"
       sodipodi:start="0"
       sodipodi:end="6.0900184"
       sodipodi:open="true"
       transform="matrix(0.43271654,0,0,0.43271654,-1256.4841,-404.7202)" />
    <path
       sodipodi:type="arc"
       style="fill:#000000;fill-opacity:1;stroke:none"
       id="path3848-2-6-2-8-5"
       sodipodi:cx="-410"
       sodipodi:cy="263.79074"
       sodipodi:rx="45.714287"
       sodipodi:ry="84.285713"
       d="m -364.28571,263.79074 a 45.714287,84.285713 0 1 1 -0.85023,-16.18015"
       sodipodi:start="0"
       sodipodi:end="6.0900184"
       sodipodi:open="true"
       transform="matrix(0.3528757,-0.25044429,0.25044429,0.3528757,-1406.4855,-468.92638)" />
    <path
       sodipodi:type="arc"
       style="fill:#000000;fill-opacity:1;stroke:none"
       id="path3848-2-9-2-2-5-3-2"
       sodipodi:cx="-410"
       sodipodi:cy="263.79074"
       sodipodi:rx="45.714287"
       sodipodi:ry="84.285713"
       d="m -364.28571,263.79074 a 45.714287,84.285713 0 1 1 -0.85023,-16.18015"
       sodipodi:start="0"
       sodipodi:end="6.0900184"
       sodipodi:open="true"
       transform="matrix(-0.26406908,-0.34324396,0.33073461,-0.27917292,-1681.3605,-234.68529)"
       inkscape:transform-center-x="11.306638"
       inkscape:transform-center-y="8.6079444" />
    <path
       sodipodi:type="arc"
       style="fill:#000000;fill-opacity:1;stroke:none"
       id="path3848-2-9-2-9-38-6-9-1"
       sodipodi:cx="-410"
       sodipodi:cy="263.79074"
       sodipodi:rx="45.714287"
       sodipodi:ry="84.285713"
       d="m -364.28571,263.79074 a 45.714287,84.285713 0 1 1 -0.85023,-16.18015"
       sodipodi:start="0"
       sodipodi:end="6.0900184"
       sodipodi:open="true"
       transform="matrix(-0.43295475,0.00995413,-0.02953154,-0.43179948,-1599.3855,-30.963194)"
       inkscape:transform-center-x="-0.25261687"
       inkscape:transform-center-y="14.211091" />
    <path
       sodipodi:type="arc"
       style="fill:#000000;fill-opacity:1;stroke:none"
       id="path3848-2-9-2-9-3-5-2-6-5"
       sodipodi:cx="-410"
       sodipodi:cy="263.79074"
       sodipodi:rx="45.714287"
       sodipodi:ry="84.285713"
       d="m -364.28571,263.79074 a 45.714287,84.285713 0 1 1 -0.85023,-16.18015"
       sodipodi:start="0"
       sodipodi:end="6.0900184"
       sodipodi:open="true"
       transform="matrix(-0.31942627,-0.29243078,0.27749892,-0.3321404,-1583.1211,-308.35087)"
       inkscape:transform-center-x="9.6498688"
       inkscape:transform-center-y="10.433442" />
    <path
       sodipodi:type="arc"
       style="fill:#000000;fill-opacity:1;stroke:none"
       id="path3848-2-9-2-9-8-7-7-9-5"
       sodipodi:cx="-410"
       sodipodi:cy="263.79074"
       sodipodi:rx="45.714287"
       sodipodi:ry="84.285713"
       d="m -364.28571,263.79074 a 45.714287,84.285713 0 1 1 -0.85023,-16.18015"
       sodipodi:start="0"
       sodipodi:end="6.0900184"
       sodipodi:open="true"
       transform="matrix(-0.2663435,0.34148212,-0.35297977,-0.25045595,-1391.9858,31.821046)"
       inkscape:transform-center-x="-11.16174"
       inkscape:transform-center-y="8.7985371" />
    <path
       sodipodi:type="arc"
       style="fill:#000000;fill-opacity:1;stroke:none"
       id="path3848-2-9-2-9-8-4-6-0-4-2"
       sodipodi:cx="-410"
       sodipodi:cy="263.79074"
       sodipodi:rx="45.714287"
       sodipodi:ry="84.285713"
       d="m -364.28571,263.79074 a 45.714287,84.285713 0 1 1 -0.85023,-16.18015"
       sodipodi:start="0"
       sodipodi:end="6.0900184"
       sodipodi:open="true"
       transform="matrix(-0.04376293,0.4308523,-0.43213144,-0.02419322,-1262.4714,-38.543484)"
       inkscape:transform-center-x="-14.132917"
       inkscape:transform-center-y="1.4468098" />
    <path
       sodipodi:type="arc"
       style="fill:#ffffff;fill-opacity:1;stroke:none"
       id="path3848-7-6-4-3-0-4-5-7"
       sodipodi:cx="-410"
       sodipodi:cy="263.79074"
       sodipodi:rx="45.714287"
       sodipodi:ry="84.285713"
       d="m -364.28571,263.79074 a 45.714287,84.285713 0 1 1 -0.85023,-16.18015"
       sodipodi:start="0"
       sodipodi:end="6.0900184"
       sodipodi:open="true"
       transform="matrix(0.01027513,0.60787434,-0.60787434,0.01027513,-1347.6913,29.023716)" />
    <path
       style="fill:#ffffff;fill-opacity:1;stroke:#000000;stroke-width:10.63323402;stroke-miterlimit:4;stroke-opacity:1"
       inkscape:transform-center-x="-14.028408"
       inkscape:transform-center-y="0.5438859"
       d="m -1513.4197,-204.43934 c -19.9086,0.14611 -35.8125,-5.93049 -35.5223,-13.57246 0.2902,-7.64196 15.4838,-14.54585 35.3925,-14.69195 19.9086,-0.1461 36.9933,6.52091 36.7031,14.16287 -0.2903,7.64197 -16.6647,13.95544 -36.5733,14.10154 z"
       id="path3848-2-9-2-9-8-4-6-0-4-2-8"
       inkscape:connector-curvature="0"
       sodipodi:nodetypes="sssss" />
    <path
       style="fill:#000000;stroke:#000000;stroke-width:0.8299163px;stroke-linecap:butt;stroke-linejoin:miter;stroke-opacity:1"
       d="m -1501.0777,-228.75828 0.568,21.77881 24.4223,-7.53881 c -4.9009,-19.07608 -15.9137,-12.61251 -24.9903,-14.24 z"
       id="path3054"
       inkscape:connector-curvature="0"
       sodipodi:nodetypes="cccc" />
  </g>
</svg>
