<?xml version="1.0" encoding="UTF-8" standalone="no"?>
<!-- Created with Inkscape (http://www.inkscape.org/) -->

<svg
   xmlns:dc="http://purl.org/dc/elements/1.1/"
   xmlns:cc="http://creativecommons.org/ns#"
   xmlns:rdf="http://www.w3.org/1999/02/22-rdf-syntax-ns#"
   xmlns:svg="http://www.w3.org/2000/svg"
   xmlns="http://www.w3.org/2000/svg"
   xmlns:sodipodi="http://sodipodi.sourceforge.net/DTD/sodipodi-0.dtd"
   xmlns:inkscape="http://www.inkscape.org/namespaces/inkscape"
   version="1.1"
   width="16"
   height="16"
   id="svg7384"
   inkscape:version="0.48.5 r10040"
   sodipodi:docname="huayra-chat-symbolic.svg">
  <sodipodi:namedview
     pagecolor="#ffffff"
     bordercolor="#666666"
     borderopacity="1"
     objecttolerance="10"
     gridtolerance="10"
     guidetolerance="10"
     inkscape:pageopacity="0"
     inkscape:pageshadow="2"
     inkscape:window-width="1914"
     inkscape:window-height="1031"
     id="namedview29496"
     showgrid="false"
     inkscape:zoom="37.999238"
     inkscape:cx="7.3220339"
     inkscape:cy="8.7457627"
     inkscape:window-x="0"
     inkscape:window-y="25"
     inkscape:window-maximized="1"
     inkscape:current-layer="svg7384" />
  <title
     id="title9167">Gnome Symbolic Icon Theme</title>
  <metadata
     id="metadata90">
    <rdf:RDF>
      <cc:Work
         rdf:about="">
        <dc:format>image/svg+xml</dc:format>
        <dc:type
           rdf:resource="http://purl.org/dc/dcmitype/StillImage" />
        <dc:title>Gnome Symbolic Icon Theme</dc:title>
      </cc:Work>
    </rdf:RDF>
  </metadata>
  <defs
     id="defs7386" />
  <path
     style="color:#bebebe;fill:#ffffff;fill-opacity:1;fill-rule:nonzero;stroke:none;stroke-width:2.4000001;marker:none;visibility:visible;display:inline;overflow:visible;enable-background:accumulate"
     d="m 3.2549714,-0.0178393 c -1.6977882,0 -3.11589474,1.3668115 -3.11589474,3.0645995 l 0,4.9451493 c 0,1.6977882 1.39251544,3.4867645 3.09024724,3.5006075 l 6.2908701,0.05129 3.993567,4.585837 0.263764,-5.151969 c 1.342329,-0.32634 2.153741,-1.3350585 2.153741,-2.7805912 l 0,-4.9451493 c 0,-1.697788 -1.366811,-3.26977972 -3.0646,-3.26977972 z"
     id="path3013"
     inkscape:connector-curvature="0"
     sodipodi:nodetypes="sssscccssss" />
  <path
     inkscape:connector-curvature="0"
     style="color:#bebebe;fill:#000000;fill-opacity:1;fill-rule:nonzero;stroke:none;stroke-width:2.4000001;marker:none;visibility:visible;display:inline;overflow:visible;enable-background:accumulate"
     id="rect11261"
     d="m 3.9730066,1.0093975 c -1.4847828,0 -2.6801135,1.1953306 -2.6801135,2.6801135 l 0,4.3247286 c 0,1.4847828 1.1953307,2.6801134 2.6801135,2.6801134 l 6.1520794,0 2.954216,3.898347 -0.06091,-3.989714 c 1.173921,-0.285398 2.040541,-1.324571 2.040541,-2.5887464 l 0,-4.3247286 c 0,-1.4847829 -1.195331,-2.6801135 -2.680114,-2.6801135 l -8.4058104,0 z m 3.9897145,0.2131908 c 0.083083,-0.046293 0.1553978,0.2011644 0.1522791,0.5786609 -0.00475,0.5755227 -0.2150152,2.781948 -0.8527634,3.9897144 0.098799,0.039792 0.2115828,0.099749 0.3045584,0.1522792 1.2431282,-0.9179145 2.5432838,-2.0277349 3.0760398,-2.8323927 0.567412,-0.8569736 0.45707,-0.2944909 0.182735,0.2436467 -0.479116,0.9398329 -1.6063503,2.2879593 -2.5887464,3.136951 0.046575,0.052754 0.1095922,0.1264039 0.1522791,0.182735 1.3838957,-0.4446649 2.5800633,-1.0062608 3.4110543,-1.4618801 0.905182,-0.4962985 0.657669,-0.00772 0.182735,0.36547 -0.446397,0.350783 -1.954756,1.3334491 -3.1978634,1.857806 0.052523,0.1457007 0.094535,0.2725919 0.1218233,0.4263817 1.1702571,-0.05138 2.1879731,-0.1902101 2.9542161,-0.36547 0.938883,-0.21476 0.58372,0.1447651 0.06091,0.36547 -0.447015,0.188719 -1.801969,0.6075476 -2.9846722,0.7918517 -0.018309,0.1363252 -0.049607,0.2904951 -0.091368,0.4263817 1.1906012,0.6256457 1.7877942,0.9544322 2.4364662,1.2486892 0.671687,0.304666 0.388309,0.299783 -0.03045,0.243647 -0.562061,-0.07532 -1.8518121,-0.483921 -2.7714837,-0.8223078 l 0,-0.030456 L 7.6277069,9.3847521 C 8.7955288,7.5176681 5.92115,5.621366 4.6125792,7.8619604 L 4.3689325,8.3492537 C 3.3126043,7.4061072 3.0093304,6.8467919 2.5720382,6.3391686 2.1347441,5.8315064 2.4519243,5.9823724 2.9070524,6.3087128 3.21578,6.5300707 3.622323,6.7847789 4.0643741,7.1310203 4.1663568,6.9851539 4.2633506,6.8573759 4.3689325,6.7350945 3.8748443,5.3678175 3.4129526,4.1923392 3.1506991,3.5372318 2.8842481,2.871667 3.1271034,3.105217 3.4552574,3.5676876 3.7659635,4.0055987 4.4811649,5.2674936 4.9171375,6.1868894 5.0942755,6.0495799 5.2859962,5.9669252 5.4653426,5.8823311 5.4724473,4.4011737 5.5175219,2.5147539 5.4957984,1.8012492 5.4739706,1.0846453 5.6821004,1.3628216 5.7699009,1.9230725 5.8651755,2.5309417 6.0907105,4.4281502 6.1962826,5.6691402 6.3060942,5.6566655 6.4239081,5.6347861 6.5312968,5.6386844 7.2247513,4.2334765 7.5827326,2.3851826 7.779986,1.64897 7.8546608,1.3702577 7.9128709,1.250364 7.9627211,1.2225883 z M 6.1353709,7.7705929 C 6.5948798,7.7355759 6.9735448,8.073358 7.0185902,8.5319888 l 0,0.030456 C 7.0541528,9.0291449 6.6934407,9.4405472 6.2267384,9.4761196 5.7600362,9.5116726 5.3790819,9.150978 5.3435192,8.6842679 5.3079556,8.2175773 5.6686686,7.8061653 6.1353709,7.7705929 z" />
  <g
     transform="translate(-41.000198,-357)"
     id="layer10" />
  <g
     transform="translate(-41.000198,-357)"
     id="layer11" />
  <g
     transform="translate(-41.000198,-357)"
     id="layer12" />
  <g
     transform="translate(-41.000198,-357)"
     id="layer13" />
  <g
     transform="translate(-41.000198,-357)"
     id="layer14" />
  <g
     transform="translate(-41.000198,-357)"
     id="layer15"
     style="display:inline" />
  <g
     transform="translate(-41.000198,-357)"
     id="g4953"
     style="display:inline" />
</svg>
