<?xml version="1.0" encoding="UTF-8" standalone="no"?>
<!-- Created with Inkscape (http://www.inkscape.org/) -->

<svg
   xmlns:dc="http://purl.org/dc/elements/1.1/"
   xmlns:cc="http://creativecommons.org/ns#"
   xmlns:rdf="http://www.w3.org/1999/02/22-rdf-syntax-ns#"
   xmlns:svg="http://www.w3.org/2000/svg"
   xmlns="http://www.w3.org/2000/svg"
   xmlns:sodipodi="http://sodipodi.sourceforge.net/DTD/sodipodi-0.dtd"
   xmlns:inkscape="http://www.inkscape.org/namespaces/inkscape"
   sodipodi:docname="media-playlist-shuffle-symbolic.svg"
   width="16"
   id="svg7384"
   height="16"
   inkscape:version="0.48.5 r10040"
   version="1.1">
  <metadata
     id="metadata90">
    <rdf:RDF>
      <cc:Work
         rdf:about="">
        <dc:format>image/svg+xml</dc:format>
        <dc:type
           rdf:resource="http://purl.org/dc/dcmitype/StillImage" />
        <dc:title>Gnome Symbolic Icon Theme</dc:title>
      </cc:Work>
    </rdf:RDF>
  </metadata>
  <sodipodi:namedview
     inkscape:current-layer="layer9"
     pagecolor="#555753"
     guidetolerance="10"
     inkscape:object-paths="false"
     showborder="false"
     inkscape:zoom="11.313708"
     inkscape:snap-global="true"
     inkscape:window-width="1914"
     inkscape:pageshadow="2"
     borderopacity="1"
     objecttolerance="10"
     inkscape:window-height="1031"
     inkscape:snap-bbox-midpoints="false"
     inkscape:snap-to-guides="true"
     id="namedview88"
     showguides="true"
     inkscape:pageopacity="0"
     inkscape:snap-bbox="true"
     inkscape:snap-others="false"
     bordercolor="#666666"
     inkscape:window-maximized="1"
     inkscape:cx="-10.859411"
     inkscape:cy="-11.109093"
     inkscape:snap-nodes="true"
     inkscape:object-nodes="false"
     inkscape:window-x="0"
     inkscape:window-y="25"
     gridtolerance="10"
     showgrid="false"
     inkscape:bbox-paths="false"
     inkscape:snap-grids="true"
     inkscape:guide-bbox="true">
    <inkscape:grid
       spacingx="1px"
       spacingy="1px"
       visible="true"
       id="grid4866"
       enabled="true"
       type="xygrid"
       empspacing="2"
       snapvisiblegridlinesonly="true" />
    <sodipodi:guide
       orientation="0,1"
       position="0.97227187,8.1317283"
       id="guide3019" />
    <sodipodi:guide
       orientation="1,0"
       position="7.6013982,0.97227187"
       id="guide3021" />
  </sodipodi:namedview>
  <title
     id="title9167">Gnome Symbolic Icon Theme</title>
  <defs
     id="defs7386" />
  <g
     style="display:inline"
     transform="translate(-60.999948,-277)"
     id="layer9"
     inkscape:label="status"
     inkscape:groupmode="layer">
    <rect
       style="fill:none;stroke:#ffffff;stroke-width:0;stroke-linecap:round;stroke-linejoin:round;stroke-miterlimit:4;stroke-opacity:1;stroke-dasharray:none"
       id="rect2382"
       width="16.431799"
       height="16.431799"
       x="60.95319"
       y="276.98404" />
    <path
       inkscape:connector-curvature="0"
       style="fill:#ffffff;fill-opacity:1;fill-rule:evenodd;stroke:#ffffff;stroke-width:3.42329121;stroke-linecap:round;stroke-linejoin:round;stroke-miterlimit:4;stroke-opacity:1;stroke-dasharray:none"
       d="m 62.664838,280.74965 0,1.36933 3.080961,0 3.765621,7.53124 3.423292,0 0,1.71163 c 0.342328,0.68467 0.684657,0.34234 1.026986,-0.34232 l 1.711646,-2.05398 -1.711646,-2.05397 c -0.342329,-0.68466 -0.684658,-1.02699 -1.026986,-0.34233 l 0,1.71164 -2.738634,0 -3.76562,-7.53124 -3.76562,0 z"
       id="path3199"
       sodipodi:nodetypes="cccccccccccccc" />
    <g
       transform="matrix(0.34232912,0,0,0.34232912,60.953192,276.98404)"
       id="g3193">
      <path
         inkscape:connector-curvature="0"
         style="fill:#ffffff;fill-opacity:1;fill-rule:evenodd;stroke:#ffffff;stroke-width:10;stroke-linecap:round;stroke-linejoin:round;stroke-miterlimit:4;stroke-opacity:1;stroke-dasharray:none"
         d="m 5,37 0,-4 9,0 11,-22 10,0 0,-5 c 1,-2 2,-1 3,1 l 5,6 -5,6 c -1,2 -2,3 -3,1 l 0,-5 -8,0 -11,22 -11,0 z"
         id="path3191"
         sodipodi:nodetypes="cccccccccccccc" />
      <path
         inkscape:connector-curvature="0"
         sodipodi:nodetypes="cccccccccccccc"
         id="path2385"
         d="m 5,37 0,-4 9,0 11,-22 10,0 0,-5 c 1,-2 2,-1 3,1 l 5,6 -5,6 c -1,2 -2,3 -3,1 l 0,-5 -8,0 -11,22 -11,0 z"
         style="fill:#000000;fill-opacity:1;fill-rule:evenodd;stroke:#000000;stroke-width:2;stroke-linecap:round;stroke-linejoin:round;stroke-miterlimit:4;stroke-opacity:1;stroke-dasharray:none" />
    </g>
    <path
       inkscape:connector-curvature="0"
       style="fill:#ffffff;fill-opacity:1;fill-rule:evenodd;stroke:#ffffff;stroke-width:2.05397487;stroke-linecap:round;stroke-linejoin:round;stroke-miterlimit:4;stroke-opacity:1;stroke-dasharray:none"
       d="m 62.664838,280.74965 0,1.36933 3.080961,0 3.765621,7.53124 3.423292,0 0,1.71163 c 0.342328,0.68467 0.684657,0.34234 1.026986,-0.34232 l 1.711646,-2.05398 -1.711646,-2.05397 c -0.342329,-0.68466 -0.684658,-1.02699 -1.026986,-0.34233 l 0,1.71164 -2.738634,0 -3.76562,-7.53124 -3.76562,0 z"
       id="path3205"
       sodipodi:nodetypes="cccccccccccccc" />
    <path
       inkscape:connector-curvature="0"
       sodipodi:nodetypes="cccccccccccccc"
       id="path3201"
       d="m 62.664838,280.74965 0,1.36933 3.080961,0 3.765621,7.53124 3.423292,0 0,1.71163 c 0.342328,0.68467 0.684657,0.34234 1.026986,-0.34232 l 1.711646,-2.05398 -1.711646,-2.05397 c -0.342329,-0.68466 -0.684658,-1.02699 -1.026986,-0.34233 l 0,1.71164 -2.738634,0 -3.76562,-7.53124 -3.76562,0 z"
       style="fill:#000000;fill-opacity:1;fill-rule:evenodd;stroke:#000000;stroke-width:0.68465823;stroke-linecap:round;stroke-linejoin:round;stroke-miterlimit:4;stroke-opacity:1;stroke-dasharray:none" />
  </g>
  <g
     transform="translate(-60.999948,-277)"
     id="layer10"
     inkscape:label="devices"
     inkscape:groupmode="layer" />
  <g
     transform="translate(-60.999948,-277)"
     id="layer11"
     inkscape:label="apps"
     inkscape:groupmode="layer" />
  <g
     transform="translate(-60.999948,-277)"
     id="layer13"
     inkscape:label="places"
     inkscape:groupmode="layer" />
  <g
     transform="translate(-60.999948,-277)"
     id="layer14"
     inkscape:label="mimetypes"
     inkscape:groupmode="layer" />
  <g
     style="display:inline"
     transform="translate(-60.999948,-277)"
     id="layer15"
     inkscape:label="emblems"
     inkscape:groupmode="layer" />
  <g
     transform="translate(-60.999948,-277)"
     style="display:inline"
     id="g71291"
     inkscape:label="emotes"
     inkscape:groupmode="layer" />
  <g
     style="display:inline"
     transform="translate(-60.999948,-277)"
     id="g4953"
     inkscape:label="categories"
     inkscape:groupmode="layer" />
  <g
     transform="translate(-60.999948,-277)"
     style="display:inline"
     id="layer12"
     inkscape:label="actions"
     inkscape:groupmode="layer" />
</svg>
