<?xml version="1.0" encoding="UTF-8" standalone="no"?>
<!-- Created with Inkscape (http://www.inkscape.org/) -->

<svg
   xmlns:dc="http://purl.org/dc/elements/1.1/"
   xmlns:cc="http://creativecommons.org/ns#"
   xmlns:rdf="http://www.w3.org/1999/02/22-rdf-syntax-ns#"
   xmlns:svg="http://www.w3.org/2000/svg"
   xmlns="http://www.w3.org/2000/svg"
   xmlns:sodipodi="http://sodipodi.sourceforge.net/DTD/sodipodi-0.dtd"
   xmlns:inkscape="http://www.inkscape.org/namespaces/inkscape"
   id="svg7384"
   sodipodi:docname="network-transmit-receive-symbolic.svg"
   version="1.1"
   inkscape:version="0.48.5 r10040"
   height="16"
   width="16">
  <metadata
     id="metadata90">
    <rdf:RDF>
      <cc:Work
         rdf:about="">
        <dc:format>image/svg+xml</dc:format>
        <dc:type
           rdf:resource="http://purl.org/dc/dcmitype/StillImage" />
        <dc:title>Gnome Symbolic Icon Theme</dc:title>
      </cc:Work>
    </rdf:RDF>
  </metadata>
  <sodipodi:namedview
     inkscape:cy="-3.4480917"
     pagecolor="#ffffff"
     borderopacity="1"
     showborder="true"
     inkscape:bbox-paths="false"
     guidetolerance="10"
     inkscape:object-paths="true"
     inkscape:window-width="1914"
     showguides="true"
     inkscape:object-nodes="true"
     inkscape:snap-bbox="true"
     inkscape:pageshadow="2"
     inkscape:guide-bbox="true"
     inkscape:snap-nodes="false"
     bordercolor="#666666"
     objecttolerance="10"
     id="namedview88"
     showgrid="false"
     inkscape:window-maximized="1"
     inkscape:window-x="0"
     inkscape:snap-global="true"
     inkscape:window-y="25"
     gridtolerance="10"
     inkscape:window-height="1031"
     inkscape:snap-to-guides="true"
     inkscape:current-layer="layer9"
     inkscape:snap-bbox-midpoints="false"
     inkscape:zoom="10.982885"
     inkscape:cx="49.381018"
     inkscape:snap-grids="true"
     inkscape:pageopacity="0"
     borderlayer="true">
    <inkscape:grid
       spacingx="1px"
       spacingy="1px"
       id="grid4866"
       empspacing="2"
       enabled="true"
       type="xygrid"
       snapvisiblegridlinesonly="true"
       visible="true" />
  </sodipodi:namedview>
  <title
     id="title9167">Gnome Symbolic Icon Theme</title>
  <defs
     id="defs7386" />
  <g
     inkscape:label="status"
     transform="translate(-241.0002,-177)"
     inkscape:groupmode="layer"
     id="layer9"
     style="display:inline">
    <g
       style="fill:#ffffff;fill-opacity:1;fill-rule:evenodd"
       id="g4166-5-5-3"
       transform="matrix(0.88433973,0,0,0.84375208,224.32493,-4.6966708)">
      <path
         style="font-size:medium;font-style:normal;font-variant:normal;font-weight:normal;font-stretch:normal;text-indent:0;text-align:start;text-decoration:none;line-height:normal;letter-spacing:normal;word-spacing:normal;text-transform:none;direction:ltr;block-progression:tb;writing-mode:lr-tb;text-anchor:start;baseline-shift:baseline;color:#bebebe;fill:#ffffff;fill-opacity:1;stroke:none;stroke-width:2;marker:none;visibility:visible;display:inline;overflow:visible;enable-background:accumulate;font-family:Sans;-inkscape-font-specification:Sans"
         id="rect12675-3-8-70-9-2"
         d="m 101.75,-36.255209 c -0.9522,0 -2.155827,1.053009 -2.155827,2.005209 l 0,4.5 c 0,0.9522 -0.09502,2.260419 1.804107,2.260419 l 0.125,0 -0.78125,1.165507 -1.232795,2.292757 1.949665,0.02836 6,0 3.1942,0.02836 -1.12458,-2.51961 -0.5107,-1.108795 0.50377,-0.05671 c 0.83916,-0.09447 1.04657,-1.138079 1.04657,-2.090279 l 0,-4.5 c 0,-0.9522 -1.36596,-2.005209 -2.31816,-2.005209 z m 1.46027,3.559613 3.89691,0 0,2.270247 -3.89691,0 z"
         inkscape:connector-curvature="0"
         transform="translate(-79.999996,257)"
         sodipodi:nodetypes="ssssccccccccsssssccccc" />
    </g>
    <g
       style="fill:#000000;fill-opacity:1;fill-rule:evenodd"
       id="g4166-5-5"
       transform="matrix(0.84213969,0,0,0.80348883,225.51276,4.6897583)">
      <path
         style="font-size:medium;font-style:normal;font-variant:normal;font-weight:normal;font-stretch:normal;text-indent:0;text-align:start;text-decoration:none;line-height:normal;letter-spacing:normal;word-spacing:normal;text-transform:none;direction:ltr;block-progression:tb;writing-mode:lr-tb;text-anchor:start;baseline-shift:baseline;color:#bebebe;fill:#000000;fill-opacity:1;stroke:none;stroke-width:2;marker:none;visibility:visible;display:inline;overflow:visible;enable-background:accumulate;font-family:Sans;-inkscape-font-specification:Sans"
         id="rect12675-3-8-70-9"
         d="m 101.75,-36 c -0.9522,0 -1.75,0.7978 -1.75,1.75 l 0,4.5 c 0,0.9522 0.7978,1.75 1.75,1.75 l 0.125,0 -0.78125,1.5625 -0.71875,1.4375 1.625,0 6,0 1.625,0 -0.71875,-1.4375 L 108.125,-28 l 0.125,0 c 0.9522,0 1.75,-0.7978 1.75,-1.75 l 0,-4.5 c 0,-0.9522 -0.7978,-1.75 -1.75,-1.75 l -6.5,0 z m 0.25,2 6,0 0,4 -6,0 0,-4 z"
         inkscape:connector-curvature="0"
         transform="translate(-79.999996,257)" />
    </g>
    <path
       style="font-size:medium;font-style:normal;font-variant:normal;font-weight:normal;font-stretch:normal;text-indent:0pt;text-align:start;text-decoration:none;line-height:normal;letter-spacing:normal;word-spacing:normal;text-transform:none;direction:ltr;text-anchor:start;color:#bebebe;fill:#ffffff;fill-opacity:1;fill-rule:evenodd;stroke:none;stroke-width:2;marker:none;visibility:visible;display:inline;overflow:visible;font-family:Andale Mono"
       id="rect12675-3-8-5-2-9-3"
       d="m 248.86519,178.01769 c -1.96659,0 -2.39897,2.79291 -1.81079,3.07965 2.13803,0.006 4.46432,0.0428 6.35694,0.0396 l 0,2.13207 -2.65302,0 0,4.00134 4.56951,0 -0.45034,-1.30014 0.57968,-0.15596 c 0.81314,-0.21879 0.99093,-1.14287 0.99093,-2.02255 l 0,-4.15725 c 0,-0.87968 -0.99264,-1.61671 -1.83471,-1.61671 z"
       inkscape:connector-curvature="0"
       sodipodi:nodetypes="scccccccsssss" />
    <path
       style="font-size:medium;font-style:normal;font-variant:normal;font-weight:normal;font-stretch:normal;text-indent:0pt;text-align:start;text-decoration:none;line-height:normal;letter-spacing:normal;word-spacing:normal;text-transform:none;direction:ltr;text-anchor:start;color:#bebebe;fill:#000000;fill-opacity:1;fill-rule:evenodd;stroke:none;stroke-width:2;marker:none;visibility:visible;display:inline;overflow:visible;font-family:Andale Mono"
       id="rect12675-3-8-5-2-9"
       d="m 248.88198,178.68513 c -0.80189,0 -1.47375,0.70186 -1.47375,1.53956 l 0,0.21994 1.68428,0 0.21054,0 4.8423,0 0,3.51899 -2.52642,0 0,2.63925 3.05276,0 -0.42107,-0.87975 0.10527,0 c 0.80188,0 1.47374,-0.70186 1.47374,-1.53956 l 0,-3.95887 c 0,-0.8377 -0.67186,-1.53956 -1.47374,-1.53956 l -5.47391,0 z"
       inkscape:connector-curvature="0" />
    <path
       style="fill:#ffffff;fill-opacity:1;fill-rule:evenodd;stroke:none"
       d="m 250.57588,190.50673 2.84978,0.0275 c 0.36799,0.0137 0.75089,-0.0802 0.75089,-0.46015 l 0.009,-1.68917 1.03909,-0.024 c 0.18617,0.008 0.0406,-0.0914 0.0213,-0.11532 l -1.68593,-1.56405 c -0.10526,-0.0855 -0.61874,-0.0312 -0.66341,0.003 l -1.70081,1.6477 c -0.12503,0.0998 0.85446,0.0736 0.97746,0.0768 l 0.0427,0.0239 0.0426,0.46564 c -0.0881,0.32887 0.0258,0.2152 0.0258,0.2152 l -2.3388,0.0227 c -0.18272,-0.009 0.35336,0.5914 0.35666,0.68109 l 0.0271,0.67581 c -0.0156,0.18477 0.11817,0.0691 0.22316,0.0857 z"
       id="path3817-0-8-6-5-0"
       inkscape:connector-curvature="0"
       sodipodi:nodetypes="cccccccccccccccccc" />
    <path
       style="fill:#000000;fill-opacity:1;fill-rule:evenodd;stroke:none"
       d="m 250.39712,190.09974 2.58486,0.003 c 0.35044,0.0131 0.71506,-0.0764 0.71506,-0.43818 l 0.0309,-1.54022 0.78445,-5e-5 c 0.17729,0.007 0.0387,-0.087 0.0203,-0.10981 l -1.18036,-1.07931 c -0.10024,-0.0814 -0.1791,-0.007 -0.22163,0.0254 l -1.18675,1.06782 c -0.11908,0.0951 -0.0461,0.0929 0.0711,0.0959 l 0.70144,0 -0.005,1.03581 c 0.0204,0.26488 -0.26761,0.2505 -0.26761,0.2505 l -2.1006,-10e-4 c -0.174,-0.009 -0.16475,0.13028 -0.1616,0.21569 l 0.003,0.32458 c -0.0149,0.17595 0.11252,0.13419 0.21251,0.14999 z"
       id="path3817-0-8-6-5"
       inkscape:connector-curvature="0"
       sodipodi:nodetypes="cccccccccccccccccc" />
    <path
       style="fill:#ffffff;fill-opacity:1;fill-rule:evenodd;stroke:none"
       d="m 247.11071,178.03009 -2.91258,-0.004 c -0.39643,-0.017 -1.00342,0.0996 -1.00342,0.57134 l -0.0349,1.769 -0.88743,6e-5 c -0.20056,-0.01 -0.16336,0.32877 -0.1426,0.35852 l 1.64943,1.43121 c 0.1134,0.10613 0.6572,0.009 0.70533,-0.0332 l 1.24685,-1.32054 c 0.30218,-0.38715 -0.0893,-0.42701 -0.22184,-0.43095 l -0.55639,0.0188 c -0.0262,-0.26087 -0.0381,-0.63136 0.26054,-0.62446 l 2.07762,0.0254 c 0.19685,0.0112 0.18639,-0.16988 0.18283,-0.28124 l 0.0923,-1.02741 c 0.0168,-0.31271 -0.34263,-0.43211 -0.45575,-0.4527 z"
       id="path3817-0-8-6-5-3-2"
       inkscape:connector-curvature="0"
       sodipodi:nodetypes="ccccccccccccccccc" />
    <path
       style="fill:#000000;fill-opacity:1;fill-rule:evenodd;stroke:none"
       d="m 247.01122,178.69582 -2.58486,-0.003 c -0.35043,-0.0131 -0.71506,0.0764 -0.71506,0.43818 l -0.0309,1.54022 -0.78444,5e-5 c -0.17729,-0.007 -0.0387,0.087 -0.0203,0.10982 l 1.18035,1.0793 c 0.10024,0.0814 0.1791,0.007 0.22164,-0.0254 l 1.18675,-1.06782 c 0.11907,-0.0951 0.0461,-0.0929 -0.0711,-0.0959 l -0.70144,0 0.005,-1.0358 c -0.0204,-0.26489 0.26761,-0.25051 0.26761,-0.25051 l 2.1006,0.001 c 0.174,0.009 0.16475,-0.13029 0.16161,-0.2157 l -0.003,-0.32457 c 0.0149,-0.17596 -0.11253,-0.1342 -0.21252,-0.14999 z"
       id="path3817-0-8-6-5-3"
       inkscape:connector-curvature="0"
       sodipodi:nodetypes="cccccccccccccccccc" />
  </g>
  <g
     inkscape:label="devices"
     transform="translate(-241.0002,-177)"
     inkscape:groupmode="layer"
     id="layer10" />
  <g
     inkscape:label="apps"
     transform="translate(-241.0002,-177)"
     inkscape:groupmode="layer"
     id="layer11" />
  <g
     inkscape:label="actions"
     transform="translate(-241.0002,-177)"
     inkscape:groupmode="layer"
     id="layer12" />
  <g
     inkscape:label="places"
     transform="translate(-241.0002,-177)"
     inkscape:groupmode="layer"
     id="layer13" />
  <g
     inkscape:label="mimetypes"
     transform="translate(-241.0002,-177)"
     inkscape:groupmode="layer"
     id="layer14" />
  <g
     inkscape:label="emblems"
     transform="translate(-241.0002,-177)"
     inkscape:groupmode="layer"
     id="layer15"
     style="display:inline" />
  <g
     inkscape:label="categories"
     transform="translate(-241.0002,-177)"
     inkscape:groupmode="layer"
     id="g4953"
     style="display:inline" />
</svg>
