<?xml version="1.0" encoding="UTF-8" standalone="no"?>
<!-- Created with Inkscape (http://www.inkscape.org/) -->

<svg
   xmlns:dc="http://purl.org/dc/elements/1.1/"
   xmlns:cc="http://creativecommons.org/ns#"
   xmlns:rdf="http://www.w3.org/1999/02/22-rdf-syntax-ns#"
   xmlns:svg="http://www.w3.org/2000/svg"
   xmlns="http://www.w3.org/2000/svg"
   xmlns:sodipodi="http://sodipodi.sourceforge.net/DTD/sodipodi-0.dtd"
   xmlns:inkscape="http://www.inkscape.org/namespaces/inkscape"
   id="svg7384"
   sodipodi:docname="network-error-symbolic.svg"
   version="1.1"
   inkscape:version="0.48.5 r10040"
   height="16"
   width="16.000204">
  <metadata
     id="metadata90">
    <rdf:RDF>
      <cc:Work
         rdf:about="">
        <dc:format>image/svg+xml</dc:format>
        <dc:type
           rdf:resource="http://purl.org/dc/dcmitype/StillImage" />
        <dc:title>Gnome Symbolic Icon Theme</dc:title>
      </cc:Work>
    </rdf:RDF>
  </metadata>
  <sodipodi:namedview
     inkscape:cy="2.3929625"
     pagecolor="#ffffff"
     borderopacity="1"
     showborder="false"
     inkscape:bbox-paths="false"
     guidetolerance="10"
     inkscape:object-paths="true"
     inkscape:window-width="1914"
     showguides="true"
     inkscape:object-nodes="true"
     inkscape:snap-bbox="true"
     inkscape:pageshadow="2"
     inkscape:guide-bbox="true"
     inkscape:snap-nodes="false"
     bordercolor="#666666"
     objecttolerance="10"
     id="namedview88"
     showgrid="false"
     inkscape:window-maximized="1"
     inkscape:window-x="0"
     inkscape:snap-global="true"
     inkscape:window-y="25"
     gridtolerance="10"
     inkscape:window-height="1031"
     inkscape:snap-to-guides="true"
     inkscape:current-layer="layer9"
     inkscape:snap-bbox-midpoints="false"
     inkscape:zoom="25.22277"
     inkscape:cx="24.557288"
     inkscape:snap-grids="true"
     inkscape:pageopacity="0">
    <inkscape:grid
       spacingx="1px"
       spacingy="1px"
       id="grid4866"
       empspacing="2"
       enabled="true"
       type="xygrid"
       snapvisiblegridlinesonly="true"
       visible="true" />
    <sodipodi:guide
       orientation="0,1"
       position="6.2641812,8.0879302"
       id="guide3029" />
    <sodipodi:guide
       orientation="1,0"
       position="8,6.4227681"
       id="guide3031" />
  </sodipodi:namedview>
  <title
     id="title9167">Gnome Symbolic Icon Theme</title>
  <defs
     id="defs7386" />
  <g
     inkscape:label="status"
     transform="translate(-321,-177)"
     inkscape:groupmode="layer"
     id="layer9"
     style="display:inline">
    <g
       style="fill:#ffffff;fill-opacity:1;fill-rule:evenodd"
       id="g4166-5-5-3"
       transform="matrix(0.92414193,0,0,0.88172755,303.73064,-12.191509)">
      <path
         style="font-size:medium;font-style:normal;font-variant:normal;font-weight:normal;font-stretch:normal;text-indent:0;text-align:start;text-decoration:none;line-height:normal;letter-spacing:normal;word-spacing:normal;text-transform:none;direction:ltr;block-progression:tb;writing-mode:lr-tb;text-anchor:start;baseline-shift:baseline;color:#bebebe;fill:#ffffff;fill-opacity:1;stroke:none;stroke-width:2;marker:none;visibility:visible;display:inline;overflow:visible;enable-background:accumulate;font-family:Sans;-inkscape-font-specification:Sans"
         id="rect12675-3-8-70-9-2"
         d="m 101.75,-36.255209 c -0.9522,0 -2.155827,1.053009 -2.155827,2.005209 l 0,4.5 c 0,0.9522 -0.09502,2.260419 1.804107,2.260419 l 0.125,0 -0.78125,1.165507 -1.232795,2.292757 1.949665,0.02836 6,0 3.1942,0.02836 -1.12458,-2.51961 -0.5107,-1.108795 0.50377,-0.05671 c 0.83916,-0.09447 1.04657,-1.138079 1.04657,-2.090279 l 0,-4.5 c 0,-0.9522 -1.36596,-2.005209 -2.31816,-2.005209 z m 1.46027,3.559613 3.89691,0 0,2.270247 -3.89691,0 z"
         inkscape:connector-curvature="0"
         transform="translate(-79.999996,257)"
         sodipodi:nodetypes="ssssccccccccsssssccccc" />
    </g>
    <g
       style="fill:#000000;fill-opacity:1;fill-rule:evenodd"
       id="g4166-5-5-9"
       transform="matrix(0.88004259,0,0,0.83965217,304.97195,-2.3826176)">
      <path
         style="font-size:medium;font-style:normal;font-variant:normal;font-weight:normal;font-stretch:normal;text-indent:0;text-align:start;text-decoration:none;line-height:normal;letter-spacing:normal;word-spacing:normal;text-transform:none;direction:ltr;block-progression:tb;writing-mode:lr-tb;text-anchor:start;baseline-shift:baseline;color:#bebebe;fill:#000000;fill-opacity:1;stroke:none;stroke-width:2;marker:none;visibility:visible;display:inline;overflow:visible;enable-background:accumulate;font-family:Sans;-inkscape-font-specification:Sans"
         id="rect12675-3-8-70-9-1"
         d="m 101.75,-36 c -0.9522,0 -1.75,0.7978 -1.75,1.75 l 0,4.5 c 0,0.9522 0.7978,1.75 1.75,1.75 l 0.125,0 -0.78125,1.5625 -0.71875,1.4375 1.625,0 6,0 1.625,0 -0.71875,-1.4375 L 108.125,-28 l 0.125,0 c 0.9522,0 1.75,-0.7978 1.75,-1.75 l 0,-4.5 c 0,-0.9522 -0.7978,-1.75 -1.75,-1.75 l -6.5,0 z m 0.25,2 6,0 0,4 -6,0 0,-4 z"
         inkscape:connector-curvature="0"
         transform="translate(-79.999996,257)" />
    </g>
    <path
       style="font-size:medium;font-style:normal;font-variant:normal;font-weight:normal;font-stretch:normal;text-indent:0pt;text-align:start;text-decoration:none;line-height:normal;letter-spacing:normal;word-spacing:normal;text-transform:none;direction:ltr;text-anchor:start;color:#bebebe;fill:#ffffff;fill-opacity:1;fill-rule:evenodd;stroke:none;stroke-width:2;marker:none;visibility:visible;display:inline;overflow:visible;font-family:Andale Mono"
       id="rect12675-3-8-5-2-9-3"
       d="m 329.3754,178.74643 c -2.05509,0 -2.50693,2.91861 -1.89227,3.21826 2.23425,0.006 4.66524,0.0447 6.64305,0.0413 l 0,2.22803 -2.77243,0 0,4.18144 4.77517,0 -0.47061,-1.35866 0.60577,-0.16299 c 0.84975,-0.22864 1.03553,-1.19431 1.03553,-2.11357 l 0,-4.34436 c 0,-0.91927 -1.03731,-1.68948 -1.91728,-1.68948 z"
       inkscape:connector-curvature="0"
       sodipodi:nodetypes="scccccccsssss" />
    <path
       style="font-size:medium;font-style:normal;font-variant:normal;font-weight:normal;font-stretch:normal;text-indent:0pt;text-align:start;text-decoration:none;line-height:normal;letter-spacing:normal;word-spacing:normal;text-transform:none;direction:ltr;text-anchor:start;color:#bebebe;fill:#000000;fill-opacity:1;fill-rule:evenodd;stroke:none;stroke-width:2;marker:none;visibility:visible;display:inline;overflow:visible;font-family:Andale Mono"
       id="rect12675-3-8-5-2-9-8"
       d="m 329.39295,179.4439 c -0.83797,0 -1.54007,0.73345 -1.54007,1.60886 l 0,0.22983 1.76008,0 0.22001,0 5.06025,0 0,3.67738 -2.64013,0 0,2.75803 3.19016,0 -0.44002,-0.91934 0.11,0 c 0.83798,0 1.54008,-0.73345 1.54008,-1.60885 l 0,-4.13705 c 0,-0.87541 -0.7021,-1.60886 -1.54008,-1.60886 l -5.72028,0 z"
       inkscape:connector-curvature="0" />
    <path
       style="fill:#ffffff;fill-opacity:1;fill-rule:evenodd;stroke:none"
       d="m 331.1631,191.79758 2.97804,0.0288 c 0.38455,0.0143 0.78468,-0.0838 0.78468,-0.48086 l 0.009,-1.76519 1.08586,-0.0251 c 0.19454,0.008 0.0424,-0.0955 0.0223,-0.12051 l -1.76181,-1.63445 c -0.11,-0.0893 -0.64658,-0.0326 -0.69326,0.003 l -1.77736,1.72186 c -0.13067,0.10434 0.89291,0.0769 1.02144,0.0803 l 0.0447,0.025 0.0446,0.48659 c -0.0921,0.34367 0.0269,0.22489 0.0269,0.22489 l -2.44406,0.0238 c -0.19095,-0.009 0.36926,0.61802 0.37271,0.71175 l 0.0283,0.70622 c -0.0163,0.19308 0.12348,0.0722 0.2332,0.0896 z"
       id="path3817-0-8-6-5-0"
       inkscape:connector-curvature="0"
       sodipodi:nodetypes="cccccccccccccccccc" />
    <path
       sodipodi:type="arc"
       style="fill:#ffffff;fill-opacity:1;fill-rule:evenodd;stroke:none"
       id="path3114"
       sodipodi:cx="142.0206"
       sodipodi:cy="126.11407"
       sodipodi:rx="83.594398"
       sodipodi:ry="79.549507"
       d="m 225.615,126.11407 a 83.594398,79.549507 0 1 1 -167.188799,0 83.594398,79.549507 0 1 1 167.188799,0 z"
       transform="matrix(0.04840784,0,0,0.04840784,323.00143,179.03722)" />
    <path
       style="fill:#000000;fill-opacity:1;fill-rule:evenodd;stroke:none"
       d="m 330.9763,191.37226 2.70119,0.004 c 0.36621,0.0136 0.74724,-0.0798 0.74724,-0.45791 l 0.0323,-1.60953 0.81975,-5e-5 c 0.18526,0.008 0.0404,-0.0909 0.0212,-0.11476 l -1.23347,-1.12788 c -0.10476,-0.0851 -0.18717,-0.007 -0.23162,0.0266 l -1.24016,1.11588 c -0.12443,0.0994 -0.0481,0.0971 0.0743,0.10024 l 0.73301,0 -0.005,1.08242 c 0.0213,0.2768 -0.27966,0.26178 -0.27966,0.26178 l -2.19513,-0.001 c -0.18183,-0.009 -0.17217,0.13615 -0.16889,0.2254 l 0.003,0.33919 c -0.0156,0.18387 0.1176,0.14023 0.22208,0.15673 z"
       id="path3817-0-8-6-5-31"
       inkscape:connector-curvature="0"
       sodipodi:nodetypes="cccccccccccccccccc" />
    <g
       style="fill-rule:evenodd"
       id="g3108"
       transform="matrix(0.04840784,0,0,0.04840784,308.07679,166.98437)"
       inkscape:transform-center-x="4.7428169">
      <path
         id="path3064"
         d="m 450.39263,311.05308 c -36.2653,0 -65.6208,29.35544 -65.6208,65.62077 0,36.2653 29.3555,65.62076 65.6208,65.62076 36.2653,0 65.6207,-29.35546 65.6207,-65.62076 0,-36.26533 -29.3554,-65.62077 -65.6207,-65.62077 z"
         style="fill:#000000;fill-opacity:1;fill-rule:nonzero;stroke:none"
         inkscape:connector-curvature="0" />
      <path
         id="path7-4"
         d="m 410.87673,362.84983 75.064,0 c 9.2517,0.26985 9.2078,-0.46191 9.3539,6.37575 l 0,14.14819 c -0.1456,8.27419 0.9551,6.71376 -8.7644,7.10676 l -74.4745,0 c -3.3288,0.0587 -6.4795,0.56152 -6.5652,-4.94522 l 0,-17.09574 c -0.024,-4.45333 -0.05,-5.78623 5.3862,-5.58974 z"
         style="fill:#ffffff;fill-opacity:1;fill-rule:nonzero;stroke:none"
         inkscape:connector-curvature="0" />
    </g>
    <path
       style="fill:#ffffff;fill-opacity:1;fill-rule:evenodd;stroke:none"
       d="m 327.54197,178.75938 -3.04367,-0.004 c -0.41428,-0.0178 -1.04858,0.10408 -1.04858,0.59705 l -0.0365,1.84862 -0.92737,6e-5 c -0.20958,-0.01 -0.17071,0.34358 -0.14901,0.37466 l 1.72367,1.49563 c 0.11851,0.11091 0.68678,0.009 0.73707,-0.0347 l 1.30297,-1.37997 c 0.31578,-0.40458 -0.0934,-0.44623 -0.23182,-0.45035 l -0.58143,0.0196 c -0.0274,-0.2726 -0.0398,-0.65977 0.27227,-0.65256 l 2.17113,0.0266 c 0.2057,0.0117 0.19476,-0.17752 0.19105,-0.29389 l 0.0964,-1.07365 c 0.0176,-0.32679 -0.35806,-0.45155 -0.47627,-0.47308 z"
       id="path3817-0-8-6-5-3-2-9"
       inkscape:connector-curvature="0"
       sodipodi:nodetypes="ccccccccccccccccc" />
    <path
       style="fill:#000000;fill-opacity:1;fill-rule:evenodd;stroke:none"
       d="m 327.438,179.45508 -2.7012,-0.004 c -0.3662,-0.0136 -0.74725,0.0798 -0.74725,0.45791 l -0.0323,1.60953 -0.81975,6e-5 c -0.18526,-0.008 -0.0404,0.0909 -0.0212,0.11476 l 1.23347,1.12788 c 0.10476,0.0851 0.18716,0.007 0.23161,-0.0266 l 1.24017,-1.11589 c 0.12443,-0.0994 0.0481,-0.0971 -0.0743,-0.10023 l -0.73301,0 0.005,-1.08242 c -0.0213,-0.2768 0.27966,-0.26179 0.27966,-0.26179 l 2.19514,10e-4 c 0.18183,0.009 0.17217,-0.13615 0.16888,-0.2254 l -0.003,-0.33919 c 0.0156,-0.18387 -0.11759,-0.14023 -0.22208,-0.15673 z"
       id="path3817-0-8-6-5-3-1"
       inkscape:connector-curvature="0"
       sodipodi:nodetypes="cccccccccccccccccc" />
  </g>
  <g
     inkscape:label="devices"
     transform="translate(-321,-177)"
     inkscape:groupmode="layer"
     id="layer10" />
  <g
     inkscape:label="apps"
     transform="translate(-321,-177)"
     inkscape:groupmode="layer"
     id="layer11" />
  <g
     inkscape:label="actions"
     transform="translate(-321,-177)"
     inkscape:groupmode="layer"
     id="layer12" />
  <g
     inkscape:label="places"
     transform="translate(-321,-177)"
     inkscape:groupmode="layer"
     id="layer13" />
  <g
     inkscape:label="mimetypes"
     transform="translate(-321,-177)"
     inkscape:groupmode="layer"
     id="layer14" />
  <g
     inkscape:label="emblems"
     transform="translate(-321,-177)"
     inkscape:groupmode="layer"
     id="layer15"
     style="display:inline" />
  <g
     inkscape:label="categories"
     transform="translate(-321,-177)"
     inkscape:groupmode="layer"
     id="g4953"
     style="display:inline" />
</svg>
