<?xml version="1.0" encoding="UTF-8" standalone="no"?>
<svg
   xmlns:dc="http://purl.org/dc/elements/1.1/"
   xmlns:cc="http://creativecommons.org/ns#"
   xmlns:rdf="http://www.w3.org/1999/02/22-rdf-syntax-ns#"
   xmlns:svg="http://www.w3.org/2000/svg"
   xmlns="http://www.w3.org/2000/svg"
   xmlns:xlink="http://www.w3.org/1999/xlink"
   xmlns:sodipodi="http://sodipodi.sourceforge.net/DTD/sodipodi-0.dtd"
   xmlns:inkscape="http://www.inkscape.org/namespaces/inkscape"
   xml:space="preserve"
   width="256"
   height="256"
   style="fill-rule:evenodd"
   viewBox="0 0 256 256"
   id="svg2"
   version="1.1"
   inkscape:version="0.48.5 r10040"
   sodipodi:docname="gnome-netstatus-error.svg"><metadata
     id="metadata113"><rdf:RDF><cc:Work
         rdf:about=""><dc:format>image/svg+xml</dc:format><dc:type
           rdf:resource="http://purl.org/dc/dcmitype/StillImage" /><dc:title /></cc:Work></rdf:RDF></metadata><sodipodi:namedview
     pagecolor="#ffffff"
     bordercolor="#666666"
     borderopacity="1"
     objecttolerance="10"
     gridtolerance="10"
     guidetolerance="10"
     inkscape:pageopacity="0"
     inkscape:pageshadow="2"
     inkscape:window-width="1914"
     inkscape:window-height="1031"
     id="namedview111"
     showgrid="false"
     inkscape:zoom="1.1125147"
     inkscape:cx="-9.0990251"
     inkscape:cy="150"
     inkscape:window-x="0"
     inkscape:window-y="25"
     inkscape:window-maximized="1"
     inkscape:current-layer="svg2" /><defs
     id="defs4"><style
       type="text/css"
       id="style6">
   
    .fil17 {fill:url(#id8)}
    .fil16 {fill:url(#id9)}
    .fil4 {fill:url(#id10)}
    .fil6 {fill:url(#id11)}
    .fil0 {fill:url(#id12)}
    .fil2 {fill:url(#id13)}
    .fil12 {fill:url(#id14)}
    .fil14 {fill:url(#id15)}
    .fil15 {fill:url(#id16)}
    .fil10 {fill:url(#id17)}
    .fil8 {fill:url(#id18)}
    .fil5 {fill:url(#id19);fill-rule:nonzero}
    .fil7 {fill:url(#id20);fill-rule:nonzero}
    .fil1 {fill:url(#id21);fill-rule:nonzero}
    .fil3 {fill:url(#id22);fill-rule:nonzero}
    .fil13 {fill:url(#id23);fill-rule:nonzero}
    .fil11 {fill:url(#id24);fill-rule:nonzero}
    .fil9 {fill:url(#id25);fill-rule:nonzero}
   
  </style><mask
       id="id0"><linearGradient
         id="id1"
         gradientUnits="userSpaceOnUse"
         x1="68.707199"
         y1="67.7286"
         x2="86.7808"
         y2="63.479401"><stop
           offset="0"
           style="stop-opacity:1; stop-color:white"
           id="stop10" /><stop
           offset="1"
           style="stop-opacity:0; stop-color:white"
           id="stop12" /></linearGradient><rect
         style="fill:url(#id1)"
         x="63.4268"
         y="49.294998"
         width="28.634399"
         height="32.617901"
         id="rect14" /></mask><mask
       id="id2"><linearGradient
         id="id3"
         gradientUnits="userSpaceOnUse"
         x1="198.13499"
         y1="205.957"
         x2="216.209"
         y2="201.70799"><stop
           offset="0"
           style="stop-opacity:1; stop-color:white"
           id="stop18" /><stop
           offset="1"
           style="stop-opacity:0; stop-color:white"
           id="stop20" /></linearGradient><rect
         style="fill:url(#id3)"
         x="192.855"
         y="187.52299"
         width="28.634399"
         height="32.617901"
         id="rect22" /></mask><mask
       id="id4"><linearGradient
         id="id5"
         gradientUnits="userSpaceOnUse"
         x1="154.311"
         y1="181.08701"
         x2="194.09399"
         y2="231.006"><stop
           offset="0"
           style="stop-opacity:1; stop-color:white"
           id="stop26" /><stop
           offset="0.65098"
           style="stop-opacity:0.501961; stop-color:white"
           id="stop28" /><stop
           offset="1"
           style="stop-opacity:0; stop-color:white"
           id="stop30" /></linearGradient><rect
         style="fill:url(#id5)"
         x="96.580299"
         y="153.595"
         width="155.244"
         height="104.904"
         id="rect32" /></mask><mask
       id="id6"><linearGradient
         id="id7"
         gradientUnits="userSpaceOnUse"
         x1="27.614401"
         y1="42.766201"
         x2="67.3964"
         y2="92.685402"><stop
           offset="0"
           style="stop-opacity:1; stop-color:white"
           id="stop36" /><stop
           offset="0.65098"
           style="stop-opacity:0.501961; stop-color:white"
           id="stop38" /><stop
           offset="1"
           style="stop-opacity:0; stop-color:white"
           id="stop40" /></linearGradient><rect
         style="fill:url(#id7)"
         x="-30.1154"
         y="15.2736"
         width="155.242"
         height="104.904"
         id="rect42" /></mask><linearGradient
       id="id8"
       gradientUnits="userSpaceOnUse"
       x1="44.957199"
       y1="16.549801"
       x2="50.053501"
       y2="118.902"><stop
         offset="0"
         style="stop-color:#E7EEFA"
         id="stop45" /><stop
         offset="1"
         style="stop-color:#7DA2E3"
         id="stop47" /></linearGradient><linearGradient
       id="id9"
       gradientUnits="userSpaceOnUse"
       xlink:href="#id8"
       x1="171.65401"
       y1="154.871"
       x2="176.75101"
       y2="257.22299" /><linearGradient
       id="id10"
       gradientUnits="userSpaceOnUse"
       x1="30.761801"
       y1="128.526"
       x2="143.509"
       y2="142.256"><stop
         offset="0"
         style="stop-color:#94C9E2"
         id="stop51" /><stop
         offset="0.490196"
         style="stop-color:#58A6D8"
         id="stop53" /><stop
         offset="0.819608"
         style="stop-color:#50719E"
         id="stop55" /><stop
         offset="1"
         style="stop-color:#386EAB"
         id="stop57" /></linearGradient><linearGradient
       id="id11"
       gradientUnits="userSpaceOnUse"
       xlink:href="#id10"
       x1="156.089"
       y1="267.30301"
       x2="268.84201"
       y2="281.039" /><linearGradient
       id="id12"
       gradientUnits="userSpaceOnUse"
       xlink:href="#id10"
       x1="26.914"
       y1="35.430401"
       x2="142.625"
       y2="103.169" /><linearGradient
       id="id13"
       gradientUnits="userSpaceOnUse"
       xlink:href="#id10"
       x1="153.175"
       y1="173.31799"
       x2="268.89899"
       y2="241.062" /><linearGradient
       id="id14"
       gradientUnits="userSpaceOnUse"
       xlink:href="#id10"
       x1="68.463501"
       y1="56.151901"
       x2="93.060501"
       y2="76.6492" /><linearGradient
       id="id15"
       gradientUnits="userSpaceOnUse"
       x1="66.727898"
       y1="62.759602"
       x2="88.760101"
       y2="68.448303"><stop
         offset="0"
         style="stop-color:#B3D5E1"
         id="stop64" /><stop
         offset="1"
         style="stop-color:white"
         id="stop66" /></linearGradient><linearGradient
       id="id16"
       gradientUnits="userSpaceOnUse"
       xlink:href="#id15"
       x1="196.15601"
       y1="200.98801"
       x2="218.188"
       y2="206.67599" /><linearGradient
       id="id17"
       gradientUnits="userSpaceOnUse"
       xlink:href="#id10"
       x1="167.694"
       y1="72.4636"
       x2="210.59399"
       y2="131.978" /><linearGradient
       id="id18"
       gradientUnits="userSpaceOnUse"
       xlink:href="#id10"
       x1="83.326103"
       y1="166.007"
       x2="126.225"
       y2="225.521" /><linearGradient
       id="id19"
       gradientUnits="userSpaceOnUse"
       x1="149.04201"
       y1="141.701"
       x2="25.2281"
       y2="129.08299"><stop
         offset="0"
         style="stop-color:#82C7E6"
         id="stop72" /><stop
         offset="0.741176"
         style="stop-color:#6690C2"
         id="stop74" /><stop
         offset="1"
         style="stop-color:#3C599B"
         id="stop76" /></linearGradient><linearGradient
       id="id20"
       gradientUnits="userSpaceOnUse"
       xlink:href="#id19"
       x1="274.37701"
       y1="280.48001"
       x2="150.55499"
       y2="267.86401" /><linearGradient
       id="id21"
       gradientUnits="userSpaceOnUse"
       xlink:href="#id19"
       x1="149.377"
       y1="98.3797"
       x2="20.1609"
       y2="40.219398" /><linearGradient
       id="id22"
       gradientUnits="userSpaceOnUse"
       xlink:href="#id19"
       x1="275.651"
       y1="236.271"
       x2="146.42101"
       y2="178.11301" /><linearGradient
       id="id23"
       gradientUnits="userSpaceOnUse"
       xlink:href="#id19"
       x1="94.726997"
       y1="75.287201"
       x2="66.7957"
       y2="57.513901" /><linearGradient
       id="id24"
       gradientUnits="userSpaceOnUse"
       xlink:href="#id19"
       x1="214.037"
       y1="127.856"
       x2="163.686"
       y2="74.9412" /><linearGradient
       id="id25"
       gradientUnits="userSpaceOnUse"
       xlink:href="#id19"
       x1="130.23599"
       y1="223.05"
       x2="79.878304"
       y2="170.13499" /><linearGradient
       inkscape:collect="always"
       xlink:href="#id10"
       id="linearGradient3090"
       gradientUnits="userSpaceOnUse"
       x1="30.761801"
       y1="128.526"
       x2="143.509"
       y2="142.256" /><linearGradient
       inkscape:collect="always"
       xlink:href="#id19"
       id="linearGradient3092"
       gradientUnits="userSpaceOnUse"
       x1="149.04201"
       y1="141.701"
       x2="25.2281"
       y2="129.08299" /><linearGradient
       inkscape:collect="always"
       xlink:href="#id10"
       id="linearGradient3094"
       gradientUnits="userSpaceOnUse"
       x1="68.463501"
       y1="56.151901"
       x2="93.060501"
       y2="76.6492" /><linearGradient
       inkscape:collect="always"
       xlink:href="#id19"
       id="linearGradient3096"
       gradientUnits="userSpaceOnUse"
       x1="94.726997"
       y1="75.287201"
       x2="66.7957"
       y2="57.513901" /><linearGradient
       inkscape:collect="always"
       xlink:href="#id15"
       id="linearGradient3098"
       gradientUnits="userSpaceOnUse"
       x1="66.727898"
       y1="62.759602"
       x2="88.760101"
       y2="68.448303" /><linearGradient
       inkscape:collect="always"
       xlink:href="#id8"
       id="linearGradient3100"
       gradientUnits="userSpaceOnUse"
       x1="44.957199"
       y1="16.549801"
       x2="50.053501"
       y2="118.902" /><linearGradient
       gradientTransform="translate(361.33618,-22.982513)"
       gradientUnits="userSpaceOnUse"
       y2="1012.1856"
       x2="-253.98442"
       y1="1012.1856"
       x1="-116.0766"
       id="linearGradient3869"
       xlink:href="#linearGradient3871"
       inkscape:collect="always" /><linearGradient
       gradientTransform="translate(361.33618,-22.982513)"
       gradientUnits="userSpaceOnUse"
       y2="1012.1856"
       x2="-253.98442"
       y1="1012.1856"
       x1="-116.0766"
       id="linearGradient3861"
       xlink:href="#id9-0"
       inkscape:collect="always" /><linearGradient
       y2="8"
       x2="12.98246"
       y1="8"
       x1="3.01754"
       spreadMethod="reflect"
       gradientUnits="userSpaceOnUse"
       id="linearGradient3080"
       xlink:href="#id9-0"
       inkscape:collect="always" /><linearGradient
       y2="8"
       x2="12.98246"
       y1="8"
       x1="3.01754"
       spreadMethod="reflect"
       gradientUnits="userSpaceOnUse"
       id="linearGradient3078"
       xlink:href="#id9-0"
       inkscape:collect="always" /><linearGradient
       y2="8"
       x2="12.98246"
       y1="8"
       x1="3.01754"
       spreadMethod="reflect"
       gradientUnits="userSpaceOnUse"
       id="linearGradient3076"
       xlink:href="#id9-0"
       inkscape:collect="always" /><linearGradient
       y2="8"
       x2="12.98246"
       y1="8"
       x1="3.01754"
       spreadMethod="reflect"
       gradientUnits="userSpaceOnUse"
       id="linearGradient3074"
       xlink:href="#id9-0"
       inkscape:collect="always" /><linearGradient
       y2="8"
       x2="12.98246"
       y1="8"
       x1="3.01754"
       spreadMethod="reflect"
       gradientUnits="userSpaceOnUse"
       id="linearGradient3072"
       xlink:href="#id9-0"
       inkscape:collect="always" /><linearGradient
       y2="8"
       x2="12.98246"
       y1="8"
       x1="3.01754"
       spreadMethod="reflect"
       gradientUnits="userSpaceOnUse"
       id="linearGradient3070"
       xlink:href="#id9-0"
       inkscape:collect="always" /><linearGradient
       y2="8"
       x2="12.98246"
       y1="8"
       x1="3.01754"
       spreadMethod="reflect"
       gradientUnits="userSpaceOnUse"
       id="linearGradient3068"
       xlink:href="#id9-0"
       inkscape:collect="always" /><linearGradient
       y2="8"
       x2="12.98246"
       y1="8"
       x1="3.01754"
       spreadMethod="reflect"
       gradientUnits="userSpaceOnUse"
       id="linearGradient3066"
       xlink:href="#id9-0"
       inkscape:collect="always" /><linearGradient
       id="id9-0"
       gradientUnits="userSpaceOnUse"
       x1="77.762001"
       y1="75.677498"
       x2="229.189"
       y2="264.96301"><stop
         offset="0"
         style="stop-color:#58A6D8"
         id="stop3151" /><stop
         id="stop4258"
         style="stop-color:#548bbb;stop-opacity:1;"
         offset="0.470588" /><stop
         offset="0.941176"
         style="stop-color:#50719E"
         id="stop3153" /><stop
         offset="1"
         style="stop-color:#386EAB"
         id="stop3155" /></linearGradient><linearGradient
       inkscape:collect="always"
       xlink:href="#id9-0"
       id="linearGradient4201"
       x1="3.01754"
       y1="8"
       x2="12.98246"
       y2="8"
       gradientUnits="userSpaceOnUse"
       spreadMethod="reflect" /><linearGradient
       spreadMethod="reflect"
       gradientUnits="userSpaceOnUse"
       y2="865.005"
       x2="206.95581"
       y1="865.005"
       x1="174.884"
       id="linearGradient3787"
       xlink:href="#id9-9"
       inkscape:collect="always" /><linearGradient
       spreadMethod="reflect"
       gradientUnits="userSpaceOnUse"
       y2="903.35083"
       x2="253.80396"
       y1="903.35083"
       x1="2.6213412"
       id="linearGradient3785"
       xlink:href="#id9-9"
       inkscape:collect="always" /><linearGradient
       spreadMethod="reflect"
       gradientUnits="userSpaceOnUse"
       y2="864.99664"
       x2="170.7412"
       y1="864.99664"
       x1="138.66939"
       id="linearGradient3783"
       xlink:href="#id9-9"
       inkscape:collect="always" /><linearGradient
       spreadMethod="reflect"
       gradientUnits="userSpaceOnUse"
       y2="984.31909"
       x2="215.34833"
       y1="984.31909"
       x1="46.160713"
       id="linearGradient3781"
       xlink:href="#id9-9"
       inkscape:collect="always" /><linearGradient
       y2="264.96301"
       x2="229.189"
       y1="75.677498"
       x1="77.762001"
       gradientUnits="userSpaceOnUse"
       id="id9-9"><stop
         id="stop3151-8"
         style="stop-color:#58A6D8"
         offset="0" /><stop
         offset="0.470588"
         style="stop-color:#548bbb;stop-opacity:1;"
         id="stop4258-1" /><stop
         id="stop3153-82"
         style="stop-color:#50719E"
         offset="0.941176" /><stop
         id="stop3155-6"
         style="stop-color:#386EAB"
         offset="1" /></linearGradient><linearGradient
       y2="264.96301"
       x2="229.189"
       y1="75.677498"
       x1="77.762001"
       gradientUnits="userSpaceOnUse"
       id="linearGradient3871"><stop
         id="stop3873"
         style="stop-color:#58A6D8"
         offset="0" /><stop
         offset="0.470588"
         style="stop-color:#548bbb;stop-opacity:1;"
         id="stop3875" /><stop
         id="stop3877"
         style="stop-color:#50719E"
         offset="0.7104519" /><stop
         id="stop3879"
         style="stop-color:#386EAB"
         offset="1" /></linearGradient><linearGradient
       inkscape:collect="always"
       xlink:href="#id9-0"
       id="linearGradient3141"
       gradientUnits="userSpaceOnUse"
       gradientTransform="translate(307.49768,-873.97114)"
       x1="-90.908394"
       y1="1034.6572"
       x2="-342.07315"
       y2="960.05145" /><linearGradient
       inkscape:collect="always"
       xlink:href="#id9-9"
       id="linearGradient3146"
       gradientUnits="userSpaceOnUse"
       spreadMethod="reflect"
       x1="46.160713"
       y1="984.31909"
       x2="215.34833"
       y2="984.31909"
       gradientTransform="translate(-309.33385,-837.24744)" /><linearGradient
       inkscape:collect="always"
       xlink:href="#id9-9"
       id="linearGradient3149"
       gradientUnits="userSpaceOnUse"
       spreadMethod="reflect"
       x1="138.66939"
       y1="864.99664"
       x2="170.7412"
       y2="864.99664"
       gradientTransform="translate(-309.33385,-837.24744)" /><linearGradient
       inkscape:collect="always"
       xlink:href="#id9-9"
       id="linearGradient3152"
       gradientUnits="userSpaceOnUse"
       spreadMethod="reflect"
       x1="2.6213412"
       y1="903.35083"
       x2="253.80396"
       y2="903.35083"
       gradientTransform="translate(-309.33385,-837.24744)" /><linearGradient
       inkscape:collect="always"
       xlink:href="#id9-9"
       id="linearGradient3155"
       gradientUnits="userSpaceOnUse"
       spreadMethod="reflect"
       x1="174.884"
       y1="865.005"
       x2="206.95581"
       y2="865.005"
       gradientTransform="translate(-309.33385,-837.24744)" /><linearGradient
       inkscape:collect="always"
       xlink:href="#id9-9"
       id="linearGradient3931"
       x1="100.92754"
       y1="92.045418"
       x2="216.58928"
       y2="160.68608"
       gradientUnits="userSpaceOnUse" /><linearGradient
       inkscape:collect="always"
       xlink:href="#id15"
       id="linearGradient3941"
       x1="76.403488"
       y1="78.474258"
       x2="152.80698"
       y2="157.57434"
       gradientUnits="userSpaceOnUse" /></defs><g
     style="fill:#ffffff;fill-opacity:1;fill-rule:evenodd"
     id="g4166-5-5-3"
     transform="matrix(15.315742,0,0,14.612811,-298.13082,-3158.2153)"><path
       style="font-size:medium;font-style:normal;font-variant:normal;font-weight:normal;font-stretch:normal;text-indent:0;text-align:start;text-decoration:none;line-height:normal;letter-spacing:normal;word-spacing:normal;text-transform:none;direction:ltr;block-progression:tb;writing-mode:lr-tb;text-anchor:start;baseline-shift:baseline;color:#bebebe;fill:#ffffff;fill-opacity:1;stroke:none;stroke-width:2;marker:none;visibility:visible;display:inline;overflow:visible;enable-background:accumulate;font-family:Sans;-inkscape-font-specification:Sans"
       id="rect12675-3-8-70-9-2"
       d="m 101.75,-36.255209 c -0.9522,0 -2.155827,1.053009 -2.155827,2.005209 l 0,4.5 c 0,0.9522 -0.09502,2.260419 1.804107,2.260419 l 0.125,0 -0.78125,1.165507 -1.232795,2.292757 1.949665,0.02836 6,0 3.1942,0.02836 -1.12458,-2.51961 -0.5107,-1.108795 0.50377,-0.05671 c 0.83916,-0.09447 1.04657,-1.138079 1.04657,-2.090279 l 0,-4.5 c 0,-0.9522 -1.36596,-2.005209 -2.31816,-2.005209 z m 1.46027,3.559613 3.89691,0 0,2.270247 -3.89691,0 z"
       inkscape:connector-curvature="0"
       transform="translate(-79.999996,257)"
       sodipodi:nodetypes="ssssccccccccsssssccccc" /></g><g
     style="fill:#000000;fill-opacity:1;fill-rule:evenodd"
     id="g4166-5-5-9"
     transform="matrix(14.584886,0,0,13.915498,-277.55885,-2995.6532)"><path
       style="font-size:medium;font-style:normal;font-variant:normal;font-weight:normal;font-stretch:normal;text-indent:0;text-align:start;text-decoration:none;line-height:normal;letter-spacing:normal;word-spacing:normal;text-transform:none;direction:ltr;block-progression:tb;writing-mode:lr-tb;text-anchor:start;baseline-shift:baseline;color:#bebebe;fill:#000000;fill-opacity:1;stroke:none;stroke-width:2;marker:none;visibility:visible;display:inline;overflow:visible;enable-background:accumulate;font-family:Sans;-inkscape-font-specification:Sans"
       id="rect12675-3-8-70-9-1"
       d="m 101.75,-36 c -0.9522,0 -1.75,0.7978 -1.75,1.75 l 0,4.5 c 0,0.9522 0.7978,1.75 1.75,1.75 l 0.125,0 -0.78125,1.5625 -0.71875,1.4375 1.625,0 6,0 1.625,0 -0.71875,-1.4375 L 108.125,-28 l 0.125,0 c 0.9522,0 1.75,-0.7978 1.75,-1.75 l 0,-4.5 c 0,-0.9522 -0.7978,-1.75 -1.75,-1.75 l -6.5,0 z m 0.25,2 6,0 0,4 -6,0 0,-4 z"
       inkscape:connector-curvature="0"
       transform="translate(-79.999996,257)" /></g><path
     style="font-size:medium;font-style:normal;font-variant:normal;font-weight:normal;font-stretch:normal;text-indent:0pt;text-align:start;text-decoration:none;line-height:normal;letter-spacing:normal;word-spacing:normal;text-transform:none;direction:ltr;text-anchor:start;color:#bebebe;fill:#ffffff;fill-opacity:1;fill-rule:evenodd;stroke:none;stroke-width:2;marker:none;visibility:visible;display:inline;overflow:visible;font-family:Andale Mono"
     id="rect12675-3-8-5-2-9-3"
     d="m 126.87804,6.1861183 c -34.059026,0 -41.547296,48.3700197 -31.360616,53.3360297 37.028166,0.10041 77.316826,0.74151 110.094836,0.68498 l 0,36.925011 -45.94723,0 0,69.298581 79.13862,0 -7.79936,-22.5169 10.03924,-2.70121 c 14.08278,-3.78919 17.1618,-19.79323 17.1618,-35.02816 l 0,-71.998802 c 0,-15.23495 -17.19133,-27.9995297 -31.77498,-27.9995297 z"
     inkscape:connector-curvature="0"
     sodipodi:nodetypes="scccccccsssss" /><path
     style="font-size:medium;font-style:normal;font-variant:normal;font-weight:normal;font-stretch:normal;text-indent:0pt;text-align:start;text-decoration:none;line-height:normal;letter-spacing:normal;word-spacing:normal;text-transform:none;direction:ltr;text-anchor:start;color:#bebebe;fill:#000000;fill-opacity:1;fill-rule:evenodd;stroke:none;stroke-width:2;marker:none;visibility:visible;display:inline;overflow:visible;font-family:Andale Mono"
     id="rect12675-3-8-5-2-9-8"
     d="m 127.16889,17.745388 c -13.88774,0 -25.52356,12.15546 -25.52356,26.66341 l 0,3.80906 29.16977,0 3.64622,0 83.86309,0 0,60.944942 -43.75466,0 0,45.70871 52.87021,0 -7.29244,-15.23625 1.82312,0 c 13.88772,0 25.52354,-12.15546 25.52354,-26.6634 l 0,-68.563062 c 0,-14.50795 -11.63582,-26.66341 -25.52354,-26.66341 l -94.80175,0 z"
     inkscape:connector-curvature="0" /><path
     style="fill:#ffffff;fill-opacity:1;fill-rule:evenodd;stroke:none"
     d="m 156.50537,222.48196 49.35482,0.47647 c 6.37318,0.23741 13.00454,-1.38918 13.00454,-7.96916 l 0.14744,-29.25449 17.99588,-0.41535 c 3.22419,0.13317 0.70301,-1.58234 0.36917,-1.99719 l -29.19831,-27.08766 c -1.82312,-1.48035 -10.71586,-0.54059 -11.48946,0.048 l -29.4561,28.53623 c -2.16551,1.72921 14.79822,1.27509 16.92839,1.3301 l 0.74016,0.41437 0.73814,8.06425 c -1.52614,5.69565 0.4462,3.72714 0.4462,3.72714 l -40.50533,0.39367 c -3.16446,-0.15596 6.11985,10.24249 6.17701,11.79577 l 0.46947,11.7042 c -0.27053,3.19997 2.04648,1.19738 3.86489,1.48459 z"
     id="path3817-0-8-6-5-0"
     inkscape:connector-curvature="0"
     sodipodi:nodetypes="cccccccccccccccccc" /><path
     sodipodi:type="arc"
     style="fill:#ffffff;fill-opacity:1;stroke:none"
     id="path3114"
     sodipodi:cx="142.0206"
     sodipodi:cy="126.11407"
     sodipodi:rx="83.594398"
     sodipodi:ry="79.549507"
     d="m 225.615,126.11407 a 83.594398,79.549507 0 1 1 -167.188799,0 83.594398,79.549507 0 1 1 167.188799,0 z"
     transform="matrix(0.80225988,0,0,0.80225988,21.242657,11.005412)" /><path
     style="fill:#000000;fill-opacity:1;fill-rule:evenodd;stroke:none"
     d="m 153.40944,215.43323 44.76682,0.0591 c 6.06906,0.22608 12.38398,-1.32289 12.38398,-7.58888 l 0.535,-26.6747 13.58576,-9.3e-4 c 3.07033,0.12682 0.66946,-1.50683 0.35155,-1.90188 l -20.44241,-18.69229 c -1.73612,-1.40971 -3.10178,-0.1202 -3.83846,0.44032 l -20.55314,18.49339 c -2.06218,1.64669 -0.79762,1.60884 1.2309,1.66122 l 12.14813,0 -0.0863,17.93893 c 0.35358,4.58742 -4.63484,4.33848 -4.63484,4.33848 l -36.37984,-0.0197 c -3.01346,-0.14852 -2.85331,2.2564 -2.79888,3.73556 l 0.0525,5.62133 c -0.25762,3.04727 1.94882,2.32403 3.68046,2.59754 z"
     id="path3817-0-8-6-5-31"
     inkscape:connector-curvature="0"
     sodipodi:nodetypes="cccccccccccccccccc" /><g
     id="g3108"
     transform="matrix(0.80225988,0,0,0.80225988,-226.10251,-188.74564)"
     inkscape:transform-center-x="78.602399"><path
       id="path3064"
       d="m 450.39263,311.05308 c -36.2653,0 -65.6208,29.35544 -65.6208,65.62077 0,36.2653 29.3555,65.62076 65.6208,65.62076 36.2653,0 65.6207,-29.35546 65.6207,-65.62076 0,-36.26533 -29.3554,-65.62077 -65.6207,-65.62077 z"
       style="fill:#000000;fill-opacity:1;fill-rule:nonzero;stroke:none"
       inkscape:connector-curvature="0" /><path
       id="path7-4"
       d="m 410.87673,362.84983 75.064,0 c 9.2517,0.26985 9.2078,-0.46191 9.3539,6.37575 l 0,14.14819 c -0.1456,8.27419 0.9551,6.71376 -8.7644,7.10676 l -74.4745,0 c -3.3288,0.0587 -6.4795,0.56152 -6.5652,-4.94522 l 0,-17.09574 c -0.024,-4.45333 -0.05,-5.78623 5.3862,-5.58974 z"
       style="fill:#ffffff;fill-opacity:1;fill-rule:nonzero;stroke:none"
       inkscape:connector-curvature="0" /></g><path
     style="fill:#ffffff;fill-opacity:1;fill-rule:evenodd;stroke:none"
     d="m 96.492674,6.4009083 -50.4426,-0.0771 c -6.86573,-0.29479 -17.37809,1.72489 -17.37809,9.8949997 l -0.60518,30.63699 -15.36927,10e-4 c -3.4734301,-0.16534 -2.8292101,5.69407 -2.46955,6.20917 l 28.56614,24.78692 c 1.96406,1.8381 11.38205,0.15673 12.2155,-0.57412 l 21.59405,-22.87011 c 5.23348,-6.70515 -1.54727,-7.39542 -3.84211,-7.46371 l -9.63596,0.32525 c -0.45439,-4.51789 -0.65977,-10.93432 4.51231,-10.81487 l 35.98201,0.44006 c 3.409106,0.19365 3.227896,-2.94209 3.166336,-4.87074 l 1.59786,-17.79356 C 104.67563,8.8153383 98.450094,6.7475283 96.491074,6.3908983 z"
     id="path3817-0-8-6-5-3-2-9"
     inkscape:connector-curvature="0"
     sodipodi:nodetypes="ccccccccccccccccc" /><path
     style="fill:#000000;fill-opacity:1;fill-rule:evenodd;stroke:none"
     d="m 94.769564,17.930588 -44.76688,-0.0592 c -6.06896,-0.22608 -12.38399,1.32289 -12.38399,7.58888 l -0.53495,26.6747 -13.58565,9.3e-4 c -3.07033,-0.12682 -0.66946,1.50683 -0.35155,1.90188 l 20.44225,18.69229 c 1.73613,1.40972 3.1018,0.1202 3.83853,-0.44032 l 20.55318,-18.49339 c 2.06215,-1.64668 0.79749,-1.60884 -1.23103,-1.66122 l -12.14804,0 0.0864,-17.93893 c -0.35358,-4.58742 4.63481,-4.33848 4.63481,-4.33848 l 36.37984,0.0197 c 3.01348,0.14852 2.85331,-2.2564 2.79888,-3.73556 l -0.0527,-5.62133 c 0.25768,-3.04727 -1.94884,-2.32402 -3.68051,-2.59754 z"
     id="path3817-0-8-6-5-3-1"
     inkscape:connector-curvature="0"
     sodipodi:nodetypes="cccccccccccccccccc" /></svg>