<?xml version="1.0" encoding="UTF-8" standalone="no"?>
<!-- Created with Inkscape (http://www.inkscape.org/) -->

<svg
   xmlns:dc="http://purl.org/dc/elements/1.1/"
   xmlns:cc="http://creativecommons.org/ns#"
   xmlns:rdf="http://www.w3.org/1999/02/22-rdf-syntax-ns#"
   xmlns:svg="http://www.w3.org/2000/svg"
   xmlns="http://www.w3.org/2000/svg"
   xmlns:sodipodi="http://sodipodi.sourceforge.net/DTD/sodipodi-0.dtd"
   xmlns:inkscape="http://www.inkscape.org/namespaces/inkscape"
   id="svg7384"
   version="1.1"
   height="16"
   width="16"
   inkscape:version="0.48.5 r10040"
   sodipodi:docname="network-wireless-signal-excellent-symbolic.svg">
  <sodipodi:namedview
     pagecolor="#ffffff"
     bordercolor="#666666"
     borderopacity="1"
     objecttolerance="10"
     gridtolerance="10"
     guidetolerance="10"
     inkscape:pageopacity="0"
     inkscape:pageshadow="2"
     inkscape:window-width="1914"
     inkscape:window-height="1031"
     id="namedview31090"
     showgrid="false"
     inkscape:zoom="14.75"
     inkscape:cx="-3.4915254"
     inkscape:cy="8"
     inkscape:window-x="0"
     inkscape:window-y="25"
     inkscape:window-maximized="1"
     inkscape:current-layer="svg7384"
     inkscape:snap-global="false" />
  <title
     id="title9167">Gnome Symbolic Icon Theme</title>
  <metadata
     id="metadata90">
    <rdf:RDF>
      <cc:Work
         rdf:about="">
        <dc:format>image/svg+xml</dc:format>
        <dc:type
           rdf:resource="http://purl.org/dc/dcmitype/StillImage" />
        <dc:title>Gnome Symbolic Icon Theme</dc:title>
      </cc:Work>
    </rdf:RDF>
  </metadata>
  <defs
     id="defs7386">
    <clipPath
       id="clipPath6279-6-1">
      <rect
         x="26.85"
         y="220.75"
         id="rect6281-3-1"
         height="6.3750005"
         width="3.8250003"
         style="color:#bebebe;fill:#bebebe;fill-opacity:1;fill-rule:nonzero;stroke:none;stroke-width:2;marker:none;visibility:visible;display:inline;overflow:visible" />
    </clipPath>
    <clipPath
       id="clipPath6265-33-4">
      <rect
         x="26.96591"
         y="221.32954"
         id="rect6267-6-5"
         height="5.21591"
         width="2.8977277"
         style="color:#bebebe;fill:#bebebe;fill-opacity:1;fill-rule:nonzero;stroke:none;stroke-width:2;marker:none;visibility:visible;display:inline;overflow:visible" />
    </clipPath>
    <clipPath
       id="clipPath6259-6-4">
      <rect
         x="26.998718"
         y="221.50153"
         id="rect6261-4-9"
         height="4.8734746"
         width="1.8762827"
         style="color:#bebebe;fill:#bebebe;fill-opacity:1;stroke:none;stroke-width:2;marker:none;visibility:visible;display:inline;overflow:visible" />
    </clipPath>
  </defs>
  <path
     style="fill:#ffffff;stroke:none"
     d="M 5.8912354,10.204496 0.0677966,4.8056823 c 1.8957068,-4.116876 10.5549954,-6.6725761 15.8324734,0 L 9.7128671,10.204496 z"
     id="path3002"
     inkscape:connector-curvature="0"
     sodipodi:nodetypes="ccccc" />
  <path
     style="font-size:medium;font-style:normal;font-variant:normal;font-weight:normal;font-stretch:normal;text-indent:0;text-align:start;text-decoration:none;line-height:normal;letter-spacing:normal;word-spacing:normal;text-transform:none;direction:ltr;block-progression:tb;writing-mode:lr-tb;text-anchor:start;color:#000000;fill:#000000;fill-opacity:1;stroke:none;stroke-width:2.54999995;marker:none;visibility:visible;display:inline;overflow:visible;enable-background:accumulate;font-family:Sans;-inkscape-font-specification:Sans"
     id="path2933"
     clip-path="url(#clipPath6279-6-1)"
     d="m 26.9375,220.40625 a 1.2751275,1.2751275 0 0 0 -0.65625,2.1875 c 0.757556,0.75756 0.757556,1.92994 0,2.6875 a 1.281631,1.281631 0 1 0 1.8125,1.8125 c 1.732036,-1.73204 1.732036,-4.58046 0,-6.3125 a 1.2751275,1.2751275 0 0 0 -1.15625,-0.375 z"
     inkscape:connector-curvature="0"
     transform="matrix(0,-0.70176268,0.70176268,0,-149.21974,27.864089)" />
  <path
     style="font-size:medium;font-style:normal;font-variant:normal;font-weight:normal;font-stretch:normal;text-indent:0;text-align:start;text-decoration:none;line-height:normal;letter-spacing:normal;word-spacing:normal;text-transform:none;direction:ltr;block-progression:tb;writing-mode:lr-tb;text-anchor:start;color:#000000;fill:#000000;fill-opacity:1;stroke:none;stroke-width:1.15909004;marker:none;visibility:visible;display:inline;overflow:visible;enable-background:accumulate;font-family:Sans;-inkscape-font-specification:Sans"
     id="path2935"
     clip-path="url(#clipPath6265-33-4)"
     d="m 27.125,221.09375 a 0.57960298,0.57960298 0 0 0 -0.34375,1 c 1.023324,1.02332 1.023324,2.66418 0,3.6875 a 0.57960298,0.57960298 0 1 0 0.8125,0.8125 c 1.466269,-1.46627 1.466269,-3.84623 0,-5.3125 a 0.57960298,0.57960298 0 0 0 -0.46875,-0.1875 z"
     inkscape:connector-curvature="0"
     transform="matrix(0,-1.5438771,1.5438771,0,-337.80112,48.863803)" />
  <path
     style="font-size:medium;font-style:normal;font-variant:normal;font-weight:normal;font-stretch:normal;text-indent:0;text-align:start;text-decoration:none;line-height:normal;letter-spacing:normal;word-spacing:normal;text-transform:none;direction:ltr;block-progression:tb;writing-mode:lr-tb;text-anchor:start;color:#000000;fill:#000000;fill-opacity:1;stroke:none;stroke-width:0.75;marker:none;visibility:visible;display:inline;overflow:visible;enable-background:accumulate;font-family:Sans;-inkscape-font-specification:Sans"
     id="path2937"
     clip-path="url(#clipPath6259-6-4)"
     d="m 27.0625,221.3125 a 0.3750375,0.3750375 0 0 0 -0.125,0.625 c 1.10149,1.10149 1.10149,2.89851 0,4 a 0.37565048,0.37565048 0 1 0 0.53125,0.53125 c 1.388102,-1.3881 1.388102,-3.6744 0,-5.0625 a 0.3750375,0.3750375 0 0 0 -0.40625,-0.0937 z"
     inkscape:connector-curvature="0"
     transform="matrix(0,-2.3859953,2.3859953,0,-526.38159,69.864412)" />
  <path
     sodipodi:type="arc"
     style="fill:#ffffff;fill-opacity:1;stroke:none"
     id="path3000"
     sodipodi:cx="7.7288136"
     sodipodi:cy="12.508474"
     sodipodi:rx="2.1016948"
     sodipodi:ry="2.2711864"
     d="m 9.8305085,12.508474 a 2.1016948,2.2711864 0 1 1 -4.2033897,0 2.1016948,2.2711864 0 1 1 4.2033897,0 z"
     transform="matrix(1.0367705,0,0,0.97487367,-0.11514875,-0.98878397)" />
  <path
     inkscape:connector-curvature="0"
     style="fill:#000000;fill-opacity:1;stroke:none;display:inline"
     id="path2948"
     d="m 9.2730761,11.258477 a 1.3421207,1.3421207 0 0 1 -2.6842413,0 1.3421207,1.3421207 0 1 1 2.6842413,0 z" />
  <g
     transform="translate(-41.0002,-177)"
     id="layer10" />
  <g
     transform="translate(-41.0002,-177)"
     id="layer11" />
  <g
     transform="translate(-41.0002,-177)"
     id="layer12" />
  <g
     transform="translate(-41.0002,-177)"
     id="layer13" />
  <g
     transform="translate(-41.0002,-177)"
     id="layer14" />
  <g
     transform="translate(-41.0002,-177)"
     id="layer15" />
</svg>
