<?xml version="1.0" encoding="UTF-8" standalone="no"?>
<!-- Created with Inkscape (http://www.inkscape.org/) -->

<svg
   xmlns:dc="http://purl.org/dc/elements/1.1/"
   xmlns:cc="http://creativecommons.org/ns#"
   xmlns:rdf="http://www.w3.org/1999/02/22-rdf-syntax-ns#"
   xmlns:svg="http://www.w3.org/2000/svg"
   xmlns="http://www.w3.org/2000/svg"
   xmlns:sodipodi="http://sodipodi.sourceforge.net/DTD/sodipodi-0.dtd"
   xmlns:inkscape="http://www.inkscape.org/namespaces/inkscape"
   id="svg7384"
   sodipodi:docname="network-offline-symbolic.svg"
   version="1.1"
   inkscape:version="0.48.5 r10040"
   height="16"
   width="16">
  <metadata
     id="metadata90">
    <rdf:RDF>
      <cc:Work
         rdf:about="">
        <dc:format>image/svg+xml</dc:format>
        <dc:type
           rdf:resource="http://purl.org/dc/dcmitype/StillImage" />
        <dc:title>Gnome Symbolic Icon Theme</dc:title>
      </cc:Work>
    </rdf:RDF>
  </metadata>
  <sodipodi:namedview
     inkscape:cy="4.2343054"
     pagecolor="#555753"
     borderopacity="1"
     showborder="true"
     inkscape:bbox-paths="false"
     guidetolerance="10"
     inkscape:object-paths="true"
     inkscape:window-width="1914"
     showguides="true"
     inkscape:object-nodes="true"
     inkscape:snap-bbox="true"
     inkscape:pageshadow="2"
     inkscape:guide-bbox="true"
     inkscape:snap-nodes="false"
     bordercolor="#666666"
     objecttolerance="10"
     id="namedview88"
     showgrid="true"
     inkscape:window-maximized="1"
     inkscape:window-x="0"
     inkscape:snap-global="false"
     inkscape:window-y="25"
     gridtolerance="10"
     inkscape:window-height="1031"
     inkscape:snap-to-guides="true"
     inkscape:current-layer="layer9"
     inkscape:snap-bbox-midpoints="false"
     inkscape:zoom="8.9545004"
     inkscape:cx="-23.765602"
     inkscape:snap-grids="true"
     inkscape:pageopacity="0"
     borderlayer="true">
    <inkscape:grid
       spacingx="1px"
       spacingy="1px"
       id="grid4866"
       empspacing="2"
       enabled="true"
       type="xygrid"
       snapvisiblegridlinesonly="true"
       visible="true" />
    <sodipodi:guide
       orientation="0,1"
       position="5.0106211,8.554719"
       id="guide3021" />
    <sodipodi:guide
       orientation="1,0"
       position="7.6992471,4.3384646"
       id="guide3023" />
  </sodipodi:namedview>
  <title
     id="title9167">Gnome Symbolic Icon Theme</title>
  <defs
     id="defs7386" />
  <g
     inkscape:label="status"
     transform="translate(-341.0002,-177)"
     inkscape:groupmode="layer"
     id="layer9"
     style="display:inline">
    <g
       style="fill:#ffffff;fill-opacity:1;fill-rule:evenodd"
       id="g4166-5-5-3"
       transform="matrix(0.815677,0,0,0.77824069,326.22173,10.138833)">
      <path
         style="font-size:medium;font-style:normal;font-variant:normal;font-weight:normal;font-stretch:normal;text-indent:0;text-align:start;text-decoration:none;line-height:normal;letter-spacing:normal;word-spacing:normal;text-transform:none;direction:ltr;block-progression:tb;writing-mode:lr-tb;text-anchor:start;baseline-shift:baseline;color:#bebebe;fill:#ffffff;fill-opacity:1;stroke:none;stroke-width:2;marker:none;visibility:visible;display:inline;overflow:visible;enable-background:accumulate;font-family:Sans;-inkscape-font-specification:Sans"
         id="rect12675-3-8-70-9-2"
         d="m 101.75,-36.255209 c -0.9522,0 -2.155827,1.053009 -2.155827,2.005209 l 0,4.5 c 0,0.9522 -0.09502,2.260419 1.804107,2.260419 l 0.125,0 -0.78125,1.165507 -1.232795,2.292757 1.949665,0.02836 6,0 3.1942,0.02836 -1.12458,-2.51961 -0.5107,-1.108795 0.50377,-0.05671 c 0.83916,-0.09447 1.04657,-1.138079 1.04657,-2.090279 l 0,-4.5 c 0,-0.9522 -1.36596,-2.005209 -2.31816,-2.005209 z m 1.46027,3.559613 3.89691,0 0,2.270247 -3.89691,0 z"
         inkscape:connector-curvature="0"
         transform="translate(-79.999996,257)"
         sodipodi:nodetypes="ssssccccccccsssssccccc" />
    </g>
    <g
       style="fill:#000000;fill-opacity:1;fill-rule:evenodd"
       id="g4166-5-5-0"
       transform="matrix(0.7767535,0,0,0.74110366,327.31734,18.796473)">
      <path
         style="font-size:medium;font-style:normal;font-variant:normal;font-weight:normal;font-stretch:normal;text-indent:0;text-align:start;text-decoration:none;line-height:normal;letter-spacing:normal;word-spacing:normal;text-transform:none;direction:ltr;block-progression:tb;writing-mode:lr-tb;text-anchor:start;baseline-shift:baseline;color:#bebebe;fill:#000000;fill-opacity:1;stroke:none;stroke-width:2;marker:none;visibility:visible;display:inline;overflow:visible;enable-background:accumulate;font-family:Sans;-inkscape-font-specification:Sans"
         id="rect12675-3-8-70-9-8"
         d="m 101.75,-36 c -0.9522,0 -1.75,0.7978 -1.75,1.75 l 0,4.5 c 0,0.9522 0.7978,1.75 1.75,1.75 l 0.125,0 -0.78125,1.5625 -0.71875,1.4375 1.625,0 6,0 1.625,0 -0.71875,-1.4375 L 108.125,-28 l 0.125,0 c 0.9522,0 1.75,-0.7978 1.75,-1.75 l 0,-4.5 c 0,-0.9522 -0.7978,-1.75 -1.75,-1.75 l -6.5,0 z m 0.25,2 6,0 0,4 -6,0 0,-4 z"
         inkscape:connector-curvature="0"
         transform="translate(-79.999996,257)" />
    </g>
    <path
       style="font-size:medium;font-style:normal;font-variant:normal;font-weight:normal;font-stretch:normal;text-indent:0pt;text-align:start;text-decoration:none;line-height:normal;letter-spacing:normal;word-spacing:normal;text-transform:none;direction:ltr;text-anchor:start;color:#bebebe;fill:#ffffff;fill-opacity:1;fill-rule:evenodd;stroke:none;stroke-width:2;marker:none;visibility:visible;display:inline;overflow:visible;font-family:Andale Mono"
       id="rect12675-3-8-5-2-9-3"
       d="m 348.8566,178.66671 c -1.81389,0 -2.2127,2.57606 -1.67018,2.84054 1.97203,0.006 4.1177,0.0395 5.86337,0.0365 l 0,1.96653 -2.44703,0 0,3.69067 4.21471,0 -0.41537,-1.19919 0.53467,-0.14386 c 0.75001,-0.20181 0.91399,-1.05414 0.91399,-1.86551 l 0,-3.83447 c 0,-0.81137 -0.91556,-1.49119 -1.69225,-1.49119 z"
       inkscape:connector-curvature="0"
       sodipodi:nodetypes="scccccccsssss" />
    <path
       style="font-size:medium;font-style:normal;font-variant:normal;font-weight:normal;font-stretch:normal;text-indent:0pt;text-align:start;text-decoration:none;line-height:normal;letter-spacing:normal;word-spacing:normal;text-transform:none;direction:ltr;text-anchor:start;color:#bebebe;fill:#000000;fill-opacity:1;fill-rule:evenodd;stroke:none;stroke-width:2;marker:none;visibility:visible;display:inline;overflow:visible;font-family:Andale Mono"
       id="rect12675-3-8-5-2-9-1"
       d="m 348.8721,179.28233 c -0.73963,0 -1.35933,0.64736 -1.35933,1.42002 l 0,0.20286 1.55352,0 0.19419,0 4.46632,0 0,3.24577 -2.33026,0 0,2.43433 2.81573,0 -0.38837,-0.81144 0.0971,0 c 0.73962,0 1.35933,-0.64737 1.35933,-1.42003 l 0,-3.65149 c 0,-0.77266 -0.61971,-1.42002 -1.35933,-1.42002 l -5.04889,0 z"
       inkscape:connector-curvature="0" />
    <path
       inkscape:connector-curvature="0"
       d="m 349.2671,186.17392 1.4858,0 1.21567,1.18189 1.18188,-1.18189 1.717,0 0,1.58712 -1.06343,1.14813 1.06343,1.14814 0,1.51957 -1.75074,0 -1.14814,-1.14813 -1.14814,1.14813 -1.55333,0 0,-1.51957 0.67431,-1.18762 -0.67431,-1.10865 z"
       id="path3761-2-3-5-4-8-9-8-0-9-1"
       sodipodi:nodetypes="ccccccccccccccccc"
       style="color:#bebebe;fill:#ffffff;fill-opacity:1;stroke:none;stroke-width:2;marker:none;visibility:visible;display:inline;overflow:visible" />
    <path
       inkscape:connector-curvature="0"
       d="m 350.12258,186.96829 1.09931,0 0.89945,0.87446 0.87445,-0.87446 1.12431,0 0,1.17428 -0.87445,0.84948 0.87445,0.84948 0,1.1243 -1.14927,0 -0.84949,-0.84948 -0.84948,0.84948 -1.14928,0 0,-1.1243 0.84946,-0.84948 -0.84946,-0.84948 0,-1.17428 z"
       id="path3761-2-3-5-4-8-9-8-0-9"
       sodipodi:nodetypes="ccccccccccccccccc"
       style="color:#bebebe;fill:#000000;fill-opacity:1;stroke:none;stroke-width:2;marker:none;visibility:visible;display:inline;overflow:visible" />
  </g>
  <g
     inkscape:label="devices"
     transform="translate(-341.0002,-177)"
     inkscape:groupmode="layer"
     id="layer10" />
  <g
     inkscape:label="apps"
     transform="translate(-341.0002,-177)"
     inkscape:groupmode="layer"
     id="layer11" />
  <g
     inkscape:label="actions"
     transform="translate(-341.0002,-177)"
     inkscape:groupmode="layer"
     id="layer12" />
  <g
     inkscape:label="places"
     transform="translate(-341.0002,-177)"
     inkscape:groupmode="layer"
     id="layer13" />
  <g
     inkscape:label="mimetypes"
     transform="translate(-341.0002,-177)"
     inkscape:groupmode="layer"
     id="layer14" />
  <g
     inkscape:label="emblems"
     transform="translate(-341.0002,-177)"
     inkscape:groupmode="layer"
     id="layer15"
     style="display:inline" />
  <g
     inkscape:label="categories"
     transform="translate(-341.0002,-177)"
     inkscape:groupmode="layer"
     id="g4953"
     style="display:inline" />
</svg>
