<?xml version="1.0" encoding="UTF-8" standalone="no"?>
<!-- Created with Inkscape (http://www.inkscape.org/) -->

<svg
   xmlns:dc="http://purl.org/dc/elements/1.1/"
   xmlns:cc="http://creativecommons.org/ns#"
   xmlns:rdf="http://www.w3.org/1999/02/22-rdf-syntax-ns#"
   xmlns:svg="http://www.w3.org/2000/svg"
   xmlns="http://www.w3.org/2000/svg"
   xmlns:sodipodi="http://sodipodi.sourceforge.net/DTD/sodipodi-0.dtd"
   xmlns:inkscape="http://www.inkscape.org/namespaces/inkscape"
   id="svg7384"
   sodipodi:docname="network-idle-symbolic.svg"
   version="1.1"
   inkscape:version="0.48.5 r10040"
   height="16"
   width="16">
  <metadata
     id="metadata90">
    <rdf:RDF>
      <cc:Work
         rdf:about="">
        <dc:format>image/svg+xml</dc:format>
        <dc:type
           rdf:resource="http://purl.org/dc/dcmitype/StillImage" />
        <dc:title>Gnome Symbolic Icon Theme</dc:title>
      </cc:Work>
    </rdf:RDF>
  </metadata>
  <sodipodi:namedview
     inkscape:cy="4.8950198"
     pagecolor="#ffffff"
     borderopacity="1"
     showborder="false"
     inkscape:bbox-paths="false"
     guidetolerance="10"
     inkscape:object-paths="true"
     inkscape:window-width="1914"
     showguides="true"
     inkscape:object-nodes="true"
     inkscape:snap-bbox="true"
     inkscape:pageshadow="2"
     inkscape:guide-bbox="true"
     inkscape:snap-nodes="false"
     bordercolor="#666666"
     objecttolerance="10"
     id="namedview88"
     showgrid="false"
     inkscape:window-maximized="1"
     inkscape:window-x="0"
     inkscape:snap-global="true"
     inkscape:window-y="25"
     gridtolerance="10"
     inkscape:window-height="1031"
     inkscape:snap-to-guides="true"
     inkscape:current-layer="layer9"
     inkscape:snap-bbox-midpoints="false"
     inkscape:zoom="19.94859"
     inkscape:cx="23.505788"
     inkscape:snap-grids="true"
     inkscape:pageopacity="0">
    <inkscape:grid
       spacingx="1px"
       spacingy="1px"
       id="grid4866"
       empspacing="2"
       enabled="true"
       type="xygrid"
       snapvisiblegridlinesonly="true"
       visible="true" />
    <sodipodi:guide
       orientation="0,1"
       position="8.000004,8.5720345"
       id="guide3020" />
    <sodipodi:guide
       orientation="1,0"
       position="7.9203593,5.2635299"
       id="guide3022" />
  </sodipodi:namedview>
  <title
     id="title9167">Gnome Symbolic Icon Theme</title>
  <defs
     id="defs7386" />
  <g
     inkscape:label="status"
     transform="translate(-301.0002,-177)"
     inkscape:groupmode="layer"
     id="layer9"
     style="display:inline">
    <g
       style="fill:#ffffff;fill-opacity:1;fill-rule:evenodd"
       id="g4166-5-5-3"
       transform="matrix(0.95113097,0,0,0.9074779,283.9232,-19.154883)">
      <path
         style="font-size:medium;font-style:normal;font-variant:normal;font-weight:normal;font-stretch:normal;text-indent:0;text-align:start;text-decoration:none;line-height:normal;letter-spacing:normal;word-spacing:normal;text-transform:none;direction:ltr;block-progression:tb;writing-mode:lr-tb;text-anchor:start;baseline-shift:baseline;color:#bebebe;fill:#ffffff;fill-opacity:1;stroke:none;stroke-width:2;marker:none;visibility:visible;display:inline;overflow:visible;enable-background:accumulate;font-family:Sans;-inkscape-font-specification:Sans"
         id="rect12675-3-8-70-9-2"
         d="m 101.75,-36.255209 c -0.9522,0 -2.155827,1.053009 -2.155827,2.005209 l 0,4.5 c 0,0.9522 -0.09502,2.260419 1.804107,2.260419 l 0.125,0 -0.78125,1.165507 -1.232795,2.292757 1.949665,0.02836 6,0 3.1942,0.02836 -1.12458,-2.51961 -0.5107,-1.108795 0.50377,-0.05671 c 0.83916,-0.09447 1.04657,-1.138079 1.04657,-2.090279 l 0,-4.5 c 0,-0.9522 -1.36596,-2.005209 -2.31816,-2.005209 z m 1.46027,3.559613 3.89691,0 0,2.270247 -3.89691,0 z"
         inkscape:connector-curvature="0"
         transform="translate(-79.999996,257)"
         sodipodi:nodetypes="ssssccccccccsssssccccc" />
    </g>
    <g
       style="fill:#000000;fill-opacity:1;fill-rule:evenodd"
       id="g4166-5-5-9"
       transform="matrix(0.90574371,0,0,0.8641737,285.20075,-9.0595269)">
      <path
         style="font-size:medium;font-style:normal;font-variant:normal;font-weight:normal;font-stretch:normal;text-indent:0;text-align:start;text-decoration:none;line-height:normal;letter-spacing:normal;word-spacing:normal;text-transform:none;direction:ltr;block-progression:tb;writing-mode:lr-tb;text-anchor:start;baseline-shift:baseline;color:#bebebe;fill:#000000;fill-opacity:1;stroke:none;stroke-width:2;marker:none;visibility:visible;display:inline;overflow:visible;enable-background:accumulate;font-family:Sans;-inkscape-font-specification:Sans"
         id="rect12675-3-8-70-9-1"
         d="m 101.75,-36 c -0.9522,0 -1.75,0.7978 -1.75,1.75 l 0,4.5 c 0,0.9522 0.7978,1.75 1.75,1.75 l 0.125,0 -0.78125,1.5625 -0.71875,1.4375 1.625,0 6,0 1.625,0 -0.71875,-1.4375 L 108.125,-28 l 0.125,0 c 0.9522,0 1.75,-0.7978 1.75,-1.75 l 0,-4.5 c 0,-0.9522 -0.7978,-1.75 -1.75,-1.75 l -6.5,0 z m 0.25,2 6,0 0,4 -6,0 0,-4 z"
         inkscape:connector-curvature="0"
         transform="translate(-79.999996,257)" />
    </g>
    <path
       style="font-size:medium;font-style:normal;font-variant:normal;font-weight:normal;font-stretch:normal;text-indent:0pt;text-align:start;text-decoration:none;line-height:normal;letter-spacing:normal;word-spacing:normal;text-transform:none;direction:ltr;text-anchor:start;color:#bebebe;fill:#ffffff;fill-opacity:1;fill-rule:evenodd;stroke:none;stroke-width:2;marker:none;visibility:visible;display:inline;overflow:visible;font-family:Andale Mono"
       id="rect12675-3-8-5-2-9-3"
       d="m 310.3169,177.35928 c -2.11512,0 -2.58015,3.00385 -1.94754,3.31225 2.2995,0.006 4.80149,0.0461 6.83705,0.0425 l 0,2.2931 -2.85339,0 0,4.30355 4.91463,0 -0.48435,-1.39834 0.62345,-0.16775 c 0.87456,-0.23531 1.06577,-1.22919 1.06577,-2.1753 l 0,-4.47124 c 0,-0.94611 -1.0676,-1.73881 -1.97327,-1.73881 z"
       inkscape:connector-curvature="0"
       sodipodi:nodetypes="scccccccsssss" />
    <path
       style="font-size:medium;font-style:normal;font-variant:normal;font-weight:normal;font-stretch:normal;text-indent:0pt;text-align:start;text-decoration:none;line-height:normal;letter-spacing:normal;word-spacing:normal;text-transform:none;direction:ltr;text-anchor:start;color:#bebebe;fill:#000000;fill-opacity:1;fill-rule:evenodd;stroke:none;stroke-width:2;marker:none;visibility:visible;display:inline;overflow:visible;font-family:Andale Mono"
       id="rect12675-3-8-5-2-9-8"
       d="m 310.33496,178.07713 c -0.86245,0 -1.58505,0.75487 -1.58505,1.65584 l 0,0.23655 1.81149,0 0.22643,0 5.20803,0 0,3.78477 -2.71723,0 0,2.83858 3.28332,0 -0.45287,-0.9462 0.11322,0 c 0.86244,0 1.58504,-0.75487 1.58504,-1.65583 l 0,-4.25787 c 0,-0.90097 -0.7226,-1.65584 -1.58504,-1.65584 l -5.88734,0 z"
       inkscape:connector-curvature="0" />
    <path
       style="fill:#ffffff;fill-opacity:1;fill-rule:evenodd;stroke:none"
       d="m 312.1568,190.79158 3.06501,0.0296 c 0.39578,0.0147 0.8076,-0.0863 0.8076,-0.4949 l 0.009,-1.81675 1.11758,-0.0258 c 0.20022,0.008 0.0437,-0.0983 0.0229,-0.12403 l -1.81326,-1.68219 c -0.11321,-0.0919 -0.66547,-0.0336 -0.71351,0.003 l -1.82927,1.77215 c -0.13448,0.10738 0.91899,0.0792 1.05128,0.0826 l 0.046,0.0257 0.0458,0.50081 c -0.0948,0.3537 0.0277,0.23146 0.0277,0.23146 l -2.51544,0.0245 c -0.19652,-0.01 0.38005,0.63607 0.3836,0.73253 l 0.0292,0.72685 c -0.0168,0.19873 0.12709,0.0744 0.24002,0.0922 z"
       id="path3817-0-8-6-5-0"
       inkscape:connector-curvature="0"
       sodipodi:nodetypes="cccccccccccccccccc" />
    <path
       style="fill:#000000;fill-opacity:1;fill-rule:evenodd;stroke:none"
       d="m 311.96454,190.35385 2.78009,0.004 c 0.37689,0.014 0.76906,-0.0821 0.76906,-0.47128 l 0.0332,-1.65654 0.8437,-6e-5 c 0.19067,0.008 0.0416,-0.0936 0.0218,-0.11811 l -1.26951,-1.16081 c -0.10781,-0.0875 -0.19262,-0.007 -0.23837,0.0273 l -1.27638,1.14847 c -0.12806,0.10226 -0.0495,0.0999 0.0764,0.10316 l 0.75442,0 -0.005,1.11404 c 0.0219,0.28489 -0.28783,0.26942 -0.28783,0.26942 l -2.25924,-0.001 c -0.18715,-0.009 -0.1772,0.14013 -0.17382,0.23199 l 0.003,0.34909 c -0.016,0.18924 0.12102,0.14432 0.22856,0.16131 z"
       id="path3817-0-8-6-5-31"
       inkscape:connector-curvature="0"
       sodipodi:nodetypes="cccccccccccccccccc" />
    <path
       style="fill:#ffffff;fill-opacity:1;fill-rule:evenodd;stroke:none"
       d="m 308.42992,177.37262 -3.13256,-0.005 c -0.42638,-0.0183 -1.07921,0.10712 -1.07921,0.6145 l -0.0376,1.9026 -0.95445,6e-5 c -0.21571,-0.0103 -0.1757,0.35361 -0.15337,0.3856 l 1.774,1.53931 c 0.12197,0.11414 0.70685,0.01 0.7586,-0.0357 l 1.34103,-1.42027 c 0.32501,-0.4164 -0.0961,-0.45926 -0.2386,-0.4635 l -0.59841,0.0202 c -0.0282,-0.28056 -0.041,-0.67903 0.28022,-0.67161 l 2.23454,0.0273 c 0.21171,0.012 0.20046,-0.18271 0.19663,-0.30248 l 0.0992,-1.10501 c 0.0181,-0.33632 -0.36851,-0.46474 -0.49017,-0.48689 z"
       id="path3817-0-8-6-5-3-2"
       inkscape:connector-curvature="0"
       sodipodi:nodetypes="ccccccccccccccccc" />
    <path
       style="fill:#000000;fill-opacity:1;fill-rule:evenodd;stroke:none"
       d="m 308.32291,178.08863 -2.78009,-0.004 c -0.37689,-0.014 -0.76906,0.0822 -0.76906,0.47128 l -0.0332,1.65654 -0.84369,6e-5 c -0.19067,-0.008 -0.0416,0.0936 -0.0218,0.11811 l 1.26949,1.16082 c 0.10782,0.0875 0.19263,0.007 0.23838,-0.0274 l 1.27638,-1.14847 c 0.12807,-0.10226 0.0495,-0.0999 -0.0764,-0.10316 l -0.75442,0 0.005,-1.11404 c -0.0219,-0.28488 0.28783,-0.26942 0.28783,-0.26942 l 2.25924,0.001 c 0.18715,0.009 0.1772,-0.14013 0.17382,-0.23199 l -0.003,-0.34909 c 0.016,-0.18924 -0.12102,-0.14432 -0.22856,-0.16131 z"
       id="path3817-0-8-6-5-3-1"
       inkscape:connector-curvature="0"
       sodipodi:nodetypes="cccccccccccccccccc" />
  </g>
  <g
     inkscape:label="devices"
     transform="translate(-301.0002,-177)"
     inkscape:groupmode="layer"
     id="layer10" />
  <g
     inkscape:label="apps"
     transform="translate(-301.0002,-177)"
     inkscape:groupmode="layer"
     id="layer11" />
  <g
     inkscape:label="actions"
     transform="translate(-301.0002,-177)"
     inkscape:groupmode="layer"
     id="layer12" />
  <g
     inkscape:label="places"
     transform="translate(-301.0002,-177)"
     inkscape:groupmode="layer"
     id="layer13" />
  <g
     inkscape:label="mimetypes"
     transform="translate(-301.0002,-177)"
     inkscape:groupmode="layer"
     id="layer14" />
  <g
     inkscape:label="emblems"
     transform="translate(-301.0002,-177)"
     inkscape:groupmode="layer"
     id="layer15"
     style="display:inline" />
  <g
     inkscape:label="categories"
     transform="translate(-301.0002,-177)"
     inkscape:groupmode="layer"
     id="g4953"
     style="display:inline" />
</svg>
