<?xml version="1.0" encoding="UTF-8" standalone="no"?>
<!-- Created with Inkscape (http://www.inkscape.org/) -->

<svg
   xmlns:dc="http://purl.org/dc/elements/1.1/"
   xmlns:cc="http://creativecommons.org/ns#"
   xmlns:rdf="http://www.w3.org/1999/02/22-rdf-syntax-ns#"
   xmlns:svg="http://www.w3.org/2000/svg"
   xmlns="http://www.w3.org/2000/svg"
   xmlns:sodipodi="http://sodipodi.sourceforge.net/DTD/sodipodi-0.dtd"
   xmlns:inkscape="http://www.inkscape.org/namespaces/inkscape"
   id="svg7384"
   sodipodi:docname="network-wireless-acquiring-symbolic.svg"
   version="1.1"
   inkscape:version="0.48.5 r10040"
   height="16"
   width="16">
  <metadata
     id="metadata90">
    <rdf:RDF>
      <cc:Work
         rdf:about="">
        <dc:format>image/svg+xml</dc:format>
        <dc:type
           rdf:resource="http://purl.org/dc/dcmitype/StillImage" />
        <dc:title>Gnome Symbolic Icon Theme</dc:title>
      </cc:Work>
    </rdf:RDF>
  </metadata>
  <sodipodi:namedview
     inkscape:cy="1.5196581"
     pagecolor="#ffffff"
     borderopacity="1"
     showborder="true"
     inkscape:bbox-paths="false"
     guidetolerance="10"
     inkscape:object-paths="true"
     inkscape:window-width="1914"
     showguides="true"
     inkscape:object-nodes="true"
     inkscape:snap-bbox="true"
     inkscape:pageshadow="2"
     inkscape:guide-bbox="true"
     inkscape:snap-nodes="false"
     bordercolor="#666666"
     objecttolerance="10"
     id="namedview88"
     showgrid="false"
     inkscape:window-maximized="1"
     inkscape:window-x="0"
     inkscape:snap-global="true"
     inkscape:window-y="25"
     gridtolerance="10"
     inkscape:window-height="1031"
     inkscape:snap-to-guides="true"
     inkscape:current-layer="layer9"
     inkscape:snap-bbox-midpoints="false"
     inkscape:zoom="22.19956"
     inkscape:cx="17.619984"
     inkscape:snap-grids="true"
     inkscape:pageopacity="0"
     borderlayer="true">
    <inkscape:grid
       spacingx="1px"
       spacingy="1px"
       id="grid4866"
       empspacing="2"
       enabled="true"
       type="xygrid"
       snapvisiblegridlinesonly="true"
       visible="true" />
  </sodipodi:namedview>
  <title
     id="title9167">Gnome Symbolic Icon Theme</title>
  <defs
     id="defs7386">
    <clipPath
       id="clipPath6259-6-8-2-1-6-6"
       clipPathUnits="userSpaceOnUse">
      <rect
         x="26.998718"
         y="221.50153"
         id="rect6261-4-9-2-0-9-0"
         height="4.8734746"
         style="color:#bebebe;fill:#bebebe;fill-opacity:1;stroke:none;stroke-width:2;marker:none;visibility:visible;display:inline;overflow:visible"
         width="1.8762827" />
    </clipPath>
    <clipPath
       id="clipPath3157-7-0"
       clipPathUnits="userSpaceOnUse">
      <rect
         x="28.124998"
         y="221.32954"
         id="rect3159-5-5"
         height="5.21591"
         width="1.7386366"
         style="color:#bebebe;fill:#bebebe;fill-opacity:1;fill-rule:nonzero;stroke:none;stroke-width:2;marker:none;visibility:visible;display:inline;overflow:visible" />
    </clipPath>
    <clipPath
       id="clipPath6259-6-8-2-1-6-6-6"
       clipPathUnits="userSpaceOnUse">
      <rect
         x="26.998718"
         y="221.50153"
         id="rect6261-4-9-2-0-9-0-8"
         height="4.8734746"
         style="color:#bebebe;fill:#bebebe;fill-opacity:1;stroke:none;stroke-width:2;marker:none;visibility:visible;display:inline;overflow:visible"
         width="1.8762827" />
    </clipPath>
    <clipPath
       id="clipPath3157-7-0-4"
       clipPathUnits="userSpaceOnUse">
      <rect
         x="28.124998"
         y="221.32954"
         id="rect3159-5-5-6"
         height="5.21591"
         width="1.7386366"
         style="color:#bebebe;fill:#bebebe;fill-opacity:1;fill-rule:nonzero;stroke:none;stroke-width:2;marker:none;visibility:visible;display:inline;overflow:visible" />
    </clipPath>
  </defs>
  <g
     inkscape:label="status"
     transform="translate(-141.0002,-177)"
     inkscape:groupmode="layer"
     id="layer9"
     style="display:inline">
    <path
       sodipodi:type="arc"
       style="fill:#ffffff;fill-opacity:1;stroke:none;display:inline"
       id="path3771-3-7"
       sodipodi:cx="3.4234912"
       sodipodi:cy="8.7025576"
       sodipodi:rx="1.9369754"
       sodipodi:ry="2.0721133"
       d="m 5.3604666,8.7025576 a 1.9369754,2.0721133 0 1 1 -3.8739507,0 1.9369754,2.0721133 0 1 1 3.8739507,0 z"
       transform="matrix(1.1511628,0,0,1.0534325,144.53683,180.31885)" />
    <path
       transform="matrix(0,-4.7606503,2.4854806,0,-408.38476,317.35207)"
       inkscape:connector-curvature="0"
       d="m 27.125,221.09375 a 0.57960298,0.57960298 0 0 0 -0.34375,1 c 1.023324,1.02332 1.023324,2.66418 0,3.6875 a 0.57960298,0.57960298 0 1 0 0.8125,0.8125 c 1.466269,-1.46627 1.466269,-3.84623 0,-5.3125 a 0.57960298,0.57960298 0 0 0 -0.46875,-0.1875 z"
       clip-path="url(#clipPath3157-7-0-4)"
       id="path3745-5-4-5-6-1"
       style="font-size:medium;font-style:normal;font-variant:normal;font-weight:normal;font-stretch:normal;text-indent:0;text-align:start;text-decoration:none;line-height:normal;letter-spacing:normal;word-spacing:normal;text-transform:none;direction:ltr;block-progression:tb;writing-mode:lr-tb;text-anchor:start;baseline-shift:baseline;color:#000000;fill:#ffffff;fill-opacity:1;stroke:none;stroke-width:1.15909004;marker:none;visibility:visible;display:inline;overflow:visible;enable-background:accumulate;font-family:Sans;-inkscape-font-specification:Sans" />
    <path
       transform="matrix(0,-3.2722492,2.9069902,0,-502.37337,272.11403)"
       inkscape:connector-curvature="0"
       d="m 27.0625,221.3125 c -0.237816,0.0889 -0.461741,0.46693 -0.276427,0.6405 1.10149,1.10149 1.115257,2.68157 0.01377,3.78306 -0.278215,0.27815 0.487122,1.13487 0.765272,0.85666 1.567061,-0.89224 1.567061,-4.38721 0.09636,-5.15548 -0.100955,-0.10734 -0.461205,-0.17697 -0.598975,-0.12469 z"
       clip-path="url(#clipPath6259-6-8-2-1-6-6-6)"
       id="path4181-8"
       style="font-size:medium;font-style:normal;font-variant:normal;font-weight:normal;font-stretch:normal;text-indent:0;text-align:start;text-decoration:none;line-height:normal;letter-spacing:normal;word-spacing:normal;text-transform:none;direction:ltr;block-progression:tb;writing-mode:lr-tb;text-anchor:start;baseline-shift:baseline;color:#000000;fill:#ffffff;fill-opacity:1;stroke:none;stroke-width:0.75;marker:none;visibility:visible;display:inline;overflow:visible;enable-background:accumulate;font-family:Sans;-inkscape-font-specification:Sans"
       sodipodi:nodetypes="ccccccc" />
    <path
       sodipodi:cy="209"
       transform="matrix(1.5,0,0,1.5,106.5002,-124)"
       d="m 29,209 c 0,0.55228 -0.447715,1 -1,1 -0.552285,0 -1,-0.44772 -1,-1 0,-0.55228 0.447715,-1 1,-1 0.552285,0 1,0.44772 1,1 z"
       id="path4175"
       sodipodi:type="arc"
       sodipodi:rx="1"
       sodipodi:ry="1"
       style="opacity:1;fill:#000000;fill-opacity:1;stroke:none;display:inline"
       sodipodi:cx="28" />
    <path
       transform="matrix(0,-2.66667,2.66667,0,-448.6658,255)"
       inkscape:connector-curvature="0"
       d="m 27.0625,221.3125 a 0.3750375,0.3750375 0 0 0 -0.125,0.625 c 1.10149,1.10149 1.10149,2.89851 0,4 a 0.37565048,0.37565048 0 1 0 0.53125,0.53125 c 1.388102,-1.3881 1.388102,-3.6744 0,-5.0625 a 0.3750375,0.3750375 0 0 0 -0.40625,-0.0937 z"
       clip-path="url(#clipPath6259-6-8-2-1-6-6)"
       id="path4181"
       style="font-size:medium;font-style:normal;font-variant:normal;font-weight:normal;font-stretch:normal;text-indent:0;text-align:start;text-decoration:none;line-height:normal;letter-spacing:normal;word-spacing:normal;text-transform:none;direction:ltr;block-progression:tb;writing-mode:lr-tb;text-anchor:start;baseline-shift:baseline;opacity:1;color:#000000;fill:#000000;fill-opacity:1;stroke:none;stroke-width:0.75000000000000000;marker:none;visibility:visible;display:inline;overflow:visible;enable-background:accumulate;font-family:Sans;-inkscape-font-specification:Sans" />
    <path
       sodipodi:type="arc"
       style="fill:#ffffff;fill-opacity:1;stroke:none"
       id="path3771"
       sodipodi:cx="3.4234912"
       sodipodi:cy="8.7025576"
       sodipodi:rx="1.9369754"
       sodipodi:ry="2.0721133"
       d="m 5.3604666,8.7025576 a 1.9369754,2.0721133 0 1 1 -3.8739507,0 1.9369754,2.0721133 0 1 1 3.8739507,0 z"
       transform="matrix(1.1511628,0,0,1.0534325,140.5953,176.33039)" />
    <path
       sodipodi:cy="209"
       transform="matrix(1.5,0,0,1.5,102.4999,-128)"
       d="m 29,209 c 0,0.55228 -0.447715,1 -1,1 -0.552285,0 -1,-0.44772 -1,-1 0,-0.55228 0.447715,-1 1,-1 0.552285,0 1,0.44772 1,1 z"
       id="path4955"
       sodipodi:type="arc"
       sodipodi:rx="1"
       sodipodi:ry="1"
       style="fill:#000000;fill-opacity:1;stroke:none;display:inline;opacity:1"
       sodipodi:cx="28" />
    <path
       sodipodi:type="arc"
       style="fill:#ffffff;fill-opacity:1;stroke:none;display:inline"
       id="path3771-3"
       sodipodi:cx="3.4234912"
       sodipodi:cy="8.7025576"
       sodipodi:rx="1.9369754"
       sodipodi:ry="2.0721133"
       d="m 5.3604666,8.7025576 a 1.9369754,2.0721133 0 1 1 -3.8739507,0 1.9369754,2.0721133 0 1 1 3.8739507,0 z"
       transform="matrix(1.1511628,0,0,1.0534325,144.58188,176.35482)" />
    <path
       sodipodi:cy="209"
       transform="matrix(1.5,0,0,1.5,106.4999,-128)"
       d="m 29,209 c 0,0.55228 -0.447715,1 -1,1 -0.552285,0 -1,-0.44772 -1,-1 0,-0.55228 0.447715,-1 1,-1 0.552285,0 1,0.44772 1,1 z"
       id="path4957"
       sodipodi:type="arc"
       sodipodi:rx="1"
       sodipodi:ry="1"
       style="fill:#000000;fill-opacity:1;stroke:none;display:inline;opacity:1"
       sodipodi:cx="28" />
    <path
       sodipodi:type="arc"
       style="fill:#ffffff;fill-opacity:1;stroke:none;display:inline"
       id="path3771-3-1"
       sodipodi:cx="3.4234912"
       sodipodi:cy="8.7025576"
       sodipodi:rx="1.9369754"
       sodipodi:ry="2.0721133"
       d="m 5.3604666,8.7025576 a 1.9369754,2.0721133 0 1 1 -3.8739507,0 1.9369754,2.0721133 0 1 1 3.8739507,0 z"
       transform="matrix(1.1511628,0,0,1.0534325,148.63601,176.44491)" />
    <path
       sodipodi:cy="209"
       transform="matrix(1.5,0,0,1.5,110.4999,-128)"
       d="m 29,209 c 0,0.55228 -0.447715,1 -1,1 -0.552285,0 -1,-0.44772 -1,-1 0,-0.55228 0.447715,-1 1,-1 0.552285,0 1,0.44772 1,1 z"
       id="path4959"
       sodipodi:type="arc"
       sodipodi:rx="1"
       sodipodi:ry="1"
       style="fill:#000000;fill-opacity:1;stroke:none;display:inline;opacity:1"
       sodipodi:cx="28" />
    <path
       transform="matrix(0,-1.72549,1.72549,0,-237.9018,231.529)"
       inkscape:connector-curvature="0"
       d="m 27.125,221.09375 a 0.57960298,0.57960298 0 0 0 -0.34375,1 c 1.023324,1.02332 1.023324,2.66418 0,3.6875 a 0.57960298,0.57960298 0 1 0 0.8125,0.8125 c 1.466269,-1.46627 1.466269,-3.84623 0,-5.3125 a 0.57960298,0.57960298 0 0 0 -0.46875,-0.1875 z"
       clip-path="url(#clipPath3157-7-0)"
       id="path3745-5-4-5-6"
       style="font-size:medium;font-style:normal;font-variant:normal;font-weight:normal;font-stretch:normal;text-indent:0;text-align:start;text-decoration:none;line-height:normal;letter-spacing:normal;word-spacing:normal;text-transform:none;direction:ltr;block-progression:tb;writing-mode:lr-tb;text-anchor:start;baseline-shift:baseline;opacity:1;color:#000000;fill:#000000;fill-opacity:1;stroke:none;stroke-width:1.15909003999999993;marker:none;visibility:visible;display:inline;overflow:visible;enable-background:accumulate;font-family:Sans;-inkscape-font-specification:Sans" />
  </g>
  <g
     inkscape:label="devices"
     transform="translate(-141.0002,-177)"
     inkscape:groupmode="layer"
     id="layer10" />
  <g
     inkscape:label="apps"
     transform="translate(-141.0002,-177)"
     inkscape:groupmode="layer"
     id="layer11" />
  <g
     inkscape:label="actions"
     transform="translate(-141.0002,-177)"
     inkscape:groupmode="layer"
     id="layer12" />
  <g
     inkscape:label="places"
     transform="translate(-141.0002,-177)"
     inkscape:groupmode="layer"
     id="layer13" />
  <g
     inkscape:label="mimetypes"
     transform="translate(-141.0002,-177)"
     inkscape:groupmode="layer"
     id="layer14" />
  <g
     inkscape:label="emblems"
     transform="translate(-141.0002,-177)"
     inkscape:groupmode="layer"
     id="layer15"
     style="display:inline" />
  <g
     inkscape:label="categories"
     transform="translate(-141.0002,-177)"
     inkscape:groupmode="layer"
     id="g4953"
     style="display:inline" />
</svg>
