<?xml version="1.0" encoding="UTF-8" standalone="no"?>
<!-- Created with Inkscape (http://www.inkscape.org/) -->

<svg
   xmlns:dc="http://purl.org/dc/elements/1.1/"
   xmlns:cc="http://creativecommons.org/ns#"
   xmlns:rdf="http://www.w3.org/1999/02/22-rdf-syntax-ns#"
   xmlns:svg="http://www.w3.org/2000/svg"
   xmlns="http://www.w3.org/2000/svg"
   xmlns:sodipodi="http://sodipodi.sourceforge.net/DTD/sodipodi-0.dtd"
   xmlns:inkscape="http://www.inkscape.org/namespaces/inkscape"
   width="256"
   height="256"
   id="svg2"
   version="1.1"
   inkscape:version="0.48.5 r10040"
   sodipodi:docname="owncloud.svg">
  <defs
     id="defs4" />
  <sodipodi:namedview
     id="base"
     pagecolor="#ffffff"
     bordercolor="#666666"
     borderopacity="1.0"
     inkscape:pageopacity="0.0"
     inkscape:pageshadow="2"
     inkscape:zoom="1.9565257"
     inkscape:cx="204.36342"
     inkscape:cy="117.84957"
     inkscape:document-units="px"
     inkscape:current-layer="layer1"
     showgrid="false"
     inkscape:window-width="1914"
     inkscape:window-height="1031"
     inkscape:window-x="0"
     inkscape:window-y="25"
     inkscape:window-maximized="1" />
  <metadata
     id="metadata7">
    <rdf:RDF>
      <cc:Work
         rdf:about="">
        <dc:format>image/svg+xml</dc:format>
        <dc:type
           rdf:resource="http://purl.org/dc/dcmitype/StillImage" />
        <dc:title />
      </cc:Work>
    </rdf:RDF>
  </metadata>
  <g
     inkscape:label="Capa 1"
     inkscape:groupmode="layer"
     id="layer1"
     transform="translate(0,-796.36218)">
    <path
       style="fill:#ffffff;fill-opacity:1;stroke:#ffffff;stroke-width:2.01870346;stroke-opacity:1"
       d="m 152.03434,834.35376 c -29.58858,0 -53.800064,22.27196 -55.598877,50.39418 -1.070673,-0.0884 -2.140973,-0.14067 -3.235356,-0.14067 -19.091623,0 -34.879302,13.72335 -37.312088,31.50955 -6.315019,2.91256 -11.868317,7.11724 -16.317443,12.23808 -1.458137,-0.18945 -2.95429,-0.31651 -4.466196,-0.31651 -18.283483,0 -33.0920576,14.31919 -33.0920576,31.96673 0,17.64752 14.8085746,31.96667 33.0920576,31.96667 2.387601,0 4.718801,-0.27497 6.963046,-0.7385 8.822684,8.71231 21.125914,14.13711 34.744902,14.13711 3.567917,0 7.025133,-0.3857 10.374238,-1.0902 8.911338,10.5002 22.468804,17.1967 37.628584,17.1967 14.52135,0 27.52866,-6.1489 36.43292,-15.8956 5.91618,5.3362 13.84107,8.616 22.57715,8.616 17.29,0 31.49503,-12.8036 32.98656,-29.11821 21.13522,-2.63641 37.45276,-20.06249 37.45276,-41.18042 0,-22.93977 -19.27787,-41.53212 -43.0443,-41.53212 -1.91217,0 -3.78047,0.1535 -5.6267,0.38684 1.36616,-4.66132 2.11001,-9.58107 2.11001,-14.6646 0,-29.68913 -24.91019,-53.73503 -55.66921,-53.73503 z m 13.85576,115.20678 c 0.91752,0.1762 1.83504,0.32068 2.77819,0.422 0.1814,1.19363 0.41908,2.35833 0.70333,3.5167 -0.30212,0.14188 -0.61743,0.27159 -0.91434,0.422 -0.76592,-1.50592 -1.64437,-2.95097 -2.56718,-4.3607 z"
       id="path2988-09"
       inkscape:connector-curvature="0" />
    <g
       id="g3032"
       transform="matrix(0.91774305,0,0,0.91774305,9.4638558,68.548374)">
      <path
         transform="matrix(0.63175047,0,0,0.45241486,62.522709,803.54331)"
         d="m 213.90038,228.07033 c 0,58.31451 -35.07371,105.58777 -78.33931,105.58777 -43.26561,0 -78.339314,-47.27326 -78.339314,-105.58777 0,-58.31452 35.073704,-105.58777 78.339314,-105.58777 43.2656,0 78.33931,47.27325 78.33931,105.58777 z"
         sodipodi:ry="105.58777"
         sodipodi:rx="78.33931"
         sodipodi:cy="228.07033"
         sodipodi:cx="135.56107"
         id="path2988"
         style="fill:#000000;fill-opacity:1;stroke:#ffffff;stroke-width:3.35542226;stroke-opacity:1"
         sodipodi:type="arc" />
      <path
         transform="matrix(0.42673205,0,0,0.30559521,38.03525,866.17782)"
         d="m 213.90038,228.07033 c 0,58.31451 -35.07371,105.58777 -78.33931,105.58777 -43.26561,0 -78.339314,-47.27326 -78.339314,-105.58777 0,-58.31452 35.073704,-105.58777 78.339314,-105.58777 43.2656,0 78.33931,47.27325 78.33931,105.58777 z"
         sodipodi:ry="105.58777"
         sodipodi:rx="78.33931"
         sodipodi:cy="228.07033"
         sodipodi:cx="135.56107"
         id="path2988-0-8-2-9"
         style="fill:#000000;fill-opacity:1;stroke:#ffffff;stroke-width:4.84169483;stroke-opacity:1"
         sodipodi:type="arc" />
      <path
         transform="matrix(0.55119467,0,0,0.39472651,6.6075112,879.229)"
         d="m 213.90038,228.07033 c 0,58.31451 -35.07371,105.58777 -78.33931,105.58777 -43.26561,0 -78.339314,-47.27326 -78.339314,-105.58777 0,-58.31452 35.073704,-105.58777 78.339314,-105.58777 43.2656,0 78.33931,47.27325 78.33931,105.58777 z"
         sodipodi:ry="105.58777"
         sodipodi:rx="78.33931"
         sodipodi:cy="228.07033"
         sodipodi:cx="135.56107"
         id="path2988-0"
         style="fill:#000000;fill-opacity:1;stroke:#ffffff;stroke-width:4.28774881;stroke-opacity:1"
         sodipodi:type="arc" />
      <path
         transform="matrix(0.375519,0,0,0.26892006,-6.6270137,909.28413)"
         d="m 213.90038,228.07033 c 0,58.31451 -35.07371,105.58777 -78.33931,105.58777 -43.26561,0 -78.339314,-47.27326 -78.339314,-105.58777 0,-58.31452 35.073704,-105.58777 78.339314,-105.58777 43.2656,0 78.33931,47.27325 78.33931,105.58777 z"
         sodipodi:ry="105.58777"
         sodipodi:rx="78.33931"
         sodipodi:cy="228.07033"
         sodipodi:cx="135.56107"
         id="path2988-0-8-2-0-7-2"
         style="fill:#000000;fill-opacity:1;stroke:#ffffff;stroke-width:6.29364777;stroke-opacity:1"
         sodipodi:type="arc" />
      <path
         transform="matrix(0.375519,0,0,0.26892006,115.34358,872.1581)"
         d="m 213.90038,228.07033 c 0,58.31451 -35.07371,105.58777 -78.33931,105.58777 -43.26561,0 -78.339314,-47.27326 -78.339314,-105.58777 0,-58.31452 35.073704,-105.58777 78.339314,-105.58777 43.2656,0 78.33931,47.27325 78.33931,105.58777 z"
         sodipodi:ry="105.58777"
         sodipodi:rx="78.33931"
         sodipodi:cy="228.07033"
         sodipodi:cx="135.56107"
         id="path2988-0-8-2-0"
         style="fill:#000000;fill-opacity:1;stroke:#ffffff;stroke-width:6.29364777;stroke-opacity:1"
         sodipodi:type="arc" />
      <path
         transform="matrix(0.55119467,0,0,0.39472651,49.259937,893.53443)"
         d="m 213.90038,228.07033 c 0,58.31451 -35.07371,105.58777 -78.33931,105.58777 -43.26561,0 -78.339314,-47.27326 -78.339314,-105.58777 0,-58.31452 35.073704,-105.58777 78.339314,-105.58777 43.2656,0 78.33931,47.27325 78.33931,105.58777 z"
         sodipodi:ry="105.58777"
         sodipodi:rx="78.33931"
         sodipodi:cy="228.07033"
         sodipodi:cx="135.56107"
         id="path2988-0-8"
         style="fill:#000000;fill-opacity:1;stroke:#ffffff;stroke-width:4.28774881;stroke-opacity:1"
         sodipodi:type="arc" />
      <path
         transform="matrix(0.48813161,0,0,0.34956522,134.61388,876.58592)"
         d="m 213.90038,228.07033 c 0,58.31451 -35.07371,105.58777 -78.33931,105.58777 -43.26561,0 -78.339314,-47.27326 -78.339314,-105.58777 0,-58.31452 35.073704,-105.58777 78.339314,-105.58777 43.2656,0 78.33931,47.27325 78.33931,105.58777 z"
         sodipodi:ry="105.58777"
         sodipodi:rx="78.33931"
         sodipodi:cy="228.07033"
         sodipodi:cx="135.56107"
         id="path2988-0-8-2"
         style="fill:#000000;fill-opacity:1;stroke:#ffffff;stroke-width:4.84169483;stroke-opacity:1"
         sodipodi:type="arc" />
      <path
         transform="matrix(0.375519,0,0,0.26892006,125.52799,929.03926)"
         d="m 213.90038,228.07033 c 0,58.31451 -35.07371,105.58777 -78.33931,105.58777 -43.26561,0 -78.339314,-47.27326 -78.339314,-105.58777 0,-58.31452 35.073704,-105.58777 78.339314,-105.58777 43.2656,0 78.33931,47.27325 78.33931,105.58777 z"
         sodipodi:ry="105.58777"
         sodipodi:rx="78.33931"
         sodipodi:cy="228.07033"
         sodipodi:cx="135.56107"
         id="path2988-0-8-2-0-7"
         style="fill:#000000;fill-opacity:1;stroke:#ffffff;stroke-width:6.29364777;stroke-opacity:1"
         sodipodi:type="arc" />
    </g>
  </g>
</svg>
