<?xml version="1.0" encoding="UTF-8" standalone="no"?>
<!-- Created with Inkscape (http://www.inkscape.org/) -->

<svg
   xmlns:dc="http://purl.org/dc/elements/1.1/"
   xmlns:cc="http://creativecommons.org/ns#"
   xmlns:rdf="http://www.w3.org/1999/02/22-rdf-syntax-ns#"
   xmlns:svg="http://www.w3.org/2000/svg"
   xmlns="http://www.w3.org/2000/svg"
   xmlns:sodipodi="http://sodipodi.sourceforge.net/DTD/sodipodi-0.dtd"
   xmlns:inkscape="http://www.inkscape.org/namespaces/inkscape"
   id="svg7384"
   sodipodi:docname="pidgin-tray-idle.svg"
   version="1.1"
   inkscape:version="0.48.5 r10040"
   height="16"
   width="16">
  <metadata
     id="metadata90">
    <rdf:RDF>
      <cc:Work
         rdf:about="">
        <dc:format>image/svg+xml</dc:format>
        <dc:type
           rdf:resource="http://purl.org/dc/dcmitype/StillImage" />
        <dc:title>Gnome Symbolic Icon Theme</dc:title>
      </cc:Work>
    </rdf:RDF>
  </metadata>
  <sodipodi:namedview
     inkscape:cy="9.598983"
     pagecolor="#ffffff"
     borderopacity="1"
     showborder="true"
     inkscape:bbox-paths="false"
     guidetolerance="10"
     inkscape:object-paths="true"
     inkscape:window-width="1914"
     showguides="true"
     inkscape:object-nodes="true"
     inkscape:snap-bbox="true"
     inkscape:pageshadow="2"
     inkscape:guide-bbox="true"
     inkscape:snap-nodes="false"
     bordercolor="#666666"
     objecttolerance="10"
     id="namedview88"
     showgrid="true"
     inkscape:window-maximized="1"
     inkscape:window-x="0"
     inkscape:snap-global="true"
     inkscape:window-y="25"
     gridtolerance="10"
     inkscape:window-height="1031"
     inkscape:snap-to-guides="true"
     inkscape:current-layer="layer9"
     inkscape:snap-bbox-midpoints="false"
     inkscape:zoom="32"
     inkscape:cx="9.718994"
     inkscape:snap-grids="true"
     inkscape:pageopacity="0">
    <inkscape:grid
       spacingx="1px"
       spacingy="1px"
       id="grid4866"
       empspacing="2"
       enabled="true"
       type="xygrid"
       snapvisiblegridlinesonly="true"
       visible="true" />
  </sodipodi:namedview>
  <title
     id="title9167">Gnome Symbolic Icon Theme</title>
  <defs
     id="defs7386" />
  <g
     inkscape:label="status"
     transform="translate(-81.000198,-357)"
     inkscape:groupmode="layer"
     id="layer9"
     style="display:inline">
    <path
       style="color:#bebebe;fill:#ffffff;fill-opacity:1;fill-rule:nonzero;stroke:none;stroke-width:2.4000001;marker:none;visibility:visible;display:inline;overflow:visible;enable-background:accumulate"
       d="m 84.675593,358 c -1.234029,0 -2.257914,0.86226 -2.602097,2.03207 l -0.0733,5.17604 0.0733,1.07355 c 0.325337,1.20168 1.346475,2.07041 2.602097,2.07041 l 5.360764,0 3.874835,4.17918 0,-4.25586 c 1.199188,-0.305 2.089006,-1.40955 2.089006,-2.76054 l 0,-4.63927 C 96.000198,359.28883 94.768233,358 93.251507,358 z"
       id="path12110-0"
       inkscape:connector-curvature="0"
       sodipodi:nodetypes="scccscccssss" />
    <path
       inkscape:connector-curvature="0"
       d="m 85.344058,359.11555 c -1.052231,0 -1.934859,0.69126 -2.228336,1.64472 l 10.982515,0 0,4.23047 -11.033627,0 0.05111,0.86287 c 0.277407,0.97943 1.157695,1.69778 2.228336,1.69778 l 5.358619,0 2.518714,3.39556 0.0014,-3.47514 c 1.022516,-0.24859 1.777364,-1.15374 1.777364,-2.25487 l 0,-3.76695 c 0,-1.29328 -1.041164,-2.33444 -2.334448,-2.33444 z"
       id="path12110"
       sodipodi:nodetypes="scccccscccssss"
       style="color:#bebebe;fill:#000000;fill-opacity:1;fill-rule:nonzero;stroke:none;stroke-width:2.40000010000000019;marker:none;visibility:visible;display:inline;overflow:visible;enable-background:accumulate;opacity:1" />
    <path
       sodipodi:cy="209"
       transform="matrix(1.2733351,0,0,1.2733351,49.531508,96.755459)"
       d="m 29,209 c 0,0.55228 -0.447715,1 -1,1 -0.552285,0 -1,-0.44772 -1,-1 0,-0.55228 0.447715,-1 1,-1 0.552285,0 1,0.44772 1,1 z"
       id="path4955-3-5"
       sodipodi:type="arc"
       sodipodi:rx="1"
       sodipodi:ry="1"
       style="opacity:1;fill:#000000;fill-opacity:1;stroke:none;display:inline"
       sodipodi:cx="28" />
    <path
       sodipodi:cy="209"
       transform="matrix(1.2733351,0,0,1.2733351,52.927068,96.755459)"
       d="m 29,209 c 0,0.55228 -0.447715,1 -1,1 -0.552285,0 -1,-0.44772 -1,-1 0,-0.55228 0.447715,-1 1,-1 0.552285,0 1,0.44772 1,1 z"
       id="path4957-3-7"
       sodipodi:type="arc"
       sodipodi:rx="1"
       sodipodi:ry="1"
       style="opacity:1;fill:#000000;fill-opacity:1;stroke:none;display:inline"
       sodipodi:cx="28" />
    <path
       sodipodi:cy="209"
       transform="matrix(1.2733351,0,0,1.2733351,56.322586,96.755459)"
       d="m 29,209 c 0,0.55228 -0.447715,1 -1,1 -0.552285,0 -1,-0.44772 -1,-1 0,-0.55228 0.447715,-1 1,-1 0.552285,0 1,0.44772 1,1 z"
       id="path4959-7-4"
       sodipodi:type="arc"
       sodipodi:rx="1"
       sodipodi:ry="1"
       style="opacity:1;fill:#000000;fill-opacity:1;stroke:none;display:inline"
       sodipodi:cx="28" />
  </g>
  <g
     inkscape:label="devices"
     transform="translate(-81.000198,-357)"
     inkscape:groupmode="layer"
     id="layer10" />
  <g
     inkscape:label="apps"
     transform="translate(-81.000198,-357)"
     inkscape:groupmode="layer"
     id="layer11" />
  <g
     inkscape:label="actions"
     transform="translate(-81.000198,-357)"
     inkscape:groupmode="layer"
     id="layer12" />
  <g
     inkscape:label="places"
     transform="translate(-81.000198,-357)"
     inkscape:groupmode="layer"
     id="layer13" />
  <g
     inkscape:label="mimetypes"
     transform="translate(-81.000198,-357)"
     inkscape:groupmode="layer"
     id="layer14" />
  <g
     inkscape:label="emblems"
     transform="translate(-81.000198,-357)"
     inkscape:groupmode="layer"
     id="layer15"
     style="display:inline" />
  <g
     inkscape:label="categories"
     transform="translate(-81.000198,-357)"
     inkscape:groupmode="layer"
     id="g4953"
     style="display:inline" />
</svg>
