<?xml version="1.0" encoding="UTF-8" standalone="no"?>
<!-- Created with Inkscape (http://www.inkscape.org/) -->

<svg
   xmlns:dc="http://purl.org/dc/elements/1.1/"
   xmlns:cc="http://creativecommons.org/ns#"
   xmlns:rdf="http://www.w3.org/1999/02/22-rdf-syntax-ns#"
   xmlns:svg="http://www.w3.org/2000/svg"
   xmlns="http://www.w3.org/2000/svg"
   xmlns:sodipodi="http://sodipodi.sourceforge.net/DTD/sodipodi-0.dtd"
   xmlns:inkscape="http://www.inkscape.org/namespaces/inkscape"
   id="svg7384"
   sodipodi:docname="printer-warning-symbolic.svg"
   version="1.1"
   inkscape:version="0.48.5 r10040"
   height="16"
   width="16">
  <metadata
     id="metadata90">
    <rdf:RDF>
      <cc:Work
         rdf:about="">
        <dc:format>image/svg+xml</dc:format>
        <dc:type
           rdf:resource="http://purl.org/dc/dcmitype/StillImage" />
        <dc:title>Gnome Symbolic Icon Theme</dc:title>
      </cc:Work>
    </rdf:RDF>
  </metadata>
  <sodipodi:namedview
     inkscape:cy="5.5407408"
     pagecolor="#555753"
     borderopacity="1"
     showborder="true"
     inkscape:bbox-paths="false"
     guidetolerance="10"
     inkscape:window-width="1914"
     showguides="true"
     inkscape:snap-bbox="true"
     inkscape:pageshadow="2"
     inkscape:guide-bbox="true"
     inkscape:snap-nodes="false"
     bordercolor="#666666"
     objecttolerance="10"
     id="namedview88"
     showgrid="false"
     inkscape:window-maximized="1"
     inkscape:window-x="0"
     inkscape:snap-global="true"
     inkscape:window-y="25"
     gridtolerance="10"
     inkscape:window-height="1031"
     inkscape:snap-to-guides="true"
     inkscape:current-layer="layer9"
     inkscape:zoom="25.790301"
     inkscape:cx="23.874074"
     inkscape:snap-grids="true"
     inkscape:pageopacity="0"
     borderlayer="true">
    <inkscape:grid
       spacingx="1px"
       spacingy="1px"
       id="grid4866"
       empspacing="2"
       enabled="true"
       type="xygrid"
       snapvisiblegridlinesonly="true"
       visible="true" />
  </sodipodi:namedview>
  <title
     id="title9167">Gnome Symbolic Icon Theme</title>
  <defs
     id="defs7386" />
  <g
     inkscape:label="status"
     transform="translate(-221.0002,-257)"
     inkscape:groupmode="layer"
     id="layer9"
     style="display:inline">
    <rect
       ry="0"
       rx="0"
       y="257.25751"
       x="221.09122"
       height="14.542345"
       width="14.325845"
       id="rect2393"
       style="fill:none;stroke:none;display:inline" />
    <g
       style="fill:#ffffff;fill-opacity:1;stroke:#ffffff;stroke-width:8;stroke-miterlimit:4;stroke-opacity:1;stroke-dasharray:none;display:inline"
       id="g2395"
       transform="matrix(0.29845508,0,0,0.30296547,221.0912,255.43967)">
      <path
         inkscape:connector-curvature="0"
         sodipodi:nodetypes="ccccccccc"
         id="path2397"
         d="m 40.000001,49 c 0,0.4 -0.564706,1 -0.941176,1 L 8.9411765,50 C 8.5647059,50 8,49.4 8,49 L 8,37 c 0,-0.4 0.4705883,-0.7 0.8470589,-0.7 l 30.0235301,0 c 0.376471,0 1.129412,0.3 1.129412,0.7 l 0,12 z"
         style="fill:#ffffff;fill-opacity:1;fill-rule:nonzero;stroke:#ffffff;stroke-width:8;stroke-linejoin:round;stroke-miterlimit:4;stroke-opacity:1;stroke-dasharray:none" />
      <path
         inkscape:connector-curvature="0"
         sodipodi:nodetypes="ccccccccc"
         id="path2399"
         d="m 44,35 c 0,0.4 -0.6,1 -1,1 L 5,36 C 4.6,36 4,35.4 4,35 L 4,21 c 0,-0.4 0.6,-1 1,-1 l 38,0 c 0.4,0 1,0.6 1,1 l 0,14 z"
         style="fill:#ffffff;fill-opacity:1;fill-rule:nonzero;stroke:#ffffff;stroke-width:8;stroke-linejoin:round;stroke-miterlimit:4;stroke-opacity:1;stroke-dasharray:none" />
      <path
         inkscape:connector-curvature="0"
         sodipodi:nodetypes="ccccccc"
         id="path2401"
         d="m 12,10 c -3,0 -4,2 -4,4 l 0,12 32,0 0,-12 c 0,-2 -1,-4 -4,-4 l -24,0 z"
         style="fill:#ffffff;fill-opacity:1;fill-rule:nonzero;stroke:#ffffff;stroke-width:8;stroke-linejoin:round;stroke-miterlimit:4;stroke-opacity:1;stroke-dasharray:none" />
    </g>
    <g
       style="display:inline"
       id="g2403"
       transform="matrix(0.29845508,0,0,0.30296547,221.0912,254.2278)">
      <path
         inkscape:connector-curvature="0"
         style="fill:#000000;fill-rule:nonzero;stroke:none"
         d="m 41,42 c 0,0.4 -0.6,1 -1,1 L 8,43 C 7.6,43 7,42.4 7,42 l 0,-2 c 0,-0.4 0.5,-0.7 0.9,-0.7 l 31.9,0 c 0.4,0 1.2,0.3 1.2,0.7 l 0,2 z"
         id="path2405"
         sodipodi:nodetypes="ccccccccc" />
      <path
         inkscape:connector-curvature="0"
         style="fill:#000000;fill-rule:nonzero;stroke:none"
         d="m 44,39 c 0,0.4 -0.6,1 -1,1 L 5,40 C 4.6,40 4,39.4 4,39 L 4,25 c 0,-0.4 0.6,-1 1,-1 l 38,0 c 0.4,0 1,0.6 1,1 l 0,14 z"
         id="path2407"
         sodipodi:nodetypes="ccccccccc" />
      <path
         inkscape:connector-curvature="0"
         style="fill:#000000;fill-rule:nonzero;stroke:none"
         d="m 12,14 c -3,0 -4,2 -4,4 l 0,18 32,0 0,-18 c 0,-2 -1,-4 -4,-4 l -24,0 z"
         id="path2409"
         sodipodi:nodetypes="ccccccc" />
      <path
         inkscape:connector-curvature="0"
         sodipodi:nodetypes="ccccccc"
         id="path3187"
         d="M 12,54 C 9,54 8,52 8,50 l 0,-18 32,0 0,18 c 0,2 -1,4 -4,4 l -24,0 z"
         style="fill:#000000;fill-rule:nonzero;stroke:none" />
    </g>
    <path
       inkscape:connector-curvature="0"
       sodipodi:nodetypes="ccccccc"
       id="path2411"
       d="m 231.83558,261.80194 -7.16293,0 0,-1.81779 c 0,0 0,-0.30297 0.29844,-0.30297 l 6.56603,0 c 0.29846,0 0.29846,0.30297 0.29846,0.30297 l 0,1.81779 z"
       style="fill:#ffffff;fill-rule:nonzero;stroke:none;display:inline" />
    <path
       inkscape:connector-curvature="0"
       style="fill:#ffffff;fill-rule:nonzero;stroke:none;display:inline"
       d="m 231.83558,266.34641 -7.16293,0 0,2.7267 c 0,0 0,0.30296 0.29844,0.30296 l 6.56603,0 c 0.29846,0 0.29846,-0.30296 0.29846,-0.30296 l 0,-2.7267 z"
       id="path3189"
       sodipodi:nodetypes="ccccccc" />
    <rect
       style="fill:#ffffff;fill-opacity:1;stroke:none"
       id="rect3025"
       width="9.5751791"
       height="9.2536249"
       x="227.5092"
       y="263.18854"
       ry="1.1874119" />
    <path
       inkscape:connector-curvature="0"
       class="warning"
       d="m 229.3629,264.07021 c -0.45376,0 -0.80625,0.35251 -0.80625,0.80626 l 0,5.75902 c 0,0.45376 0.35249,0.80627 0.80625,0.80627 l 5.75903,0 c 0.45376,0 0.80626,-0.35251 0.80626,-0.80627 l 0,-5.75902 c 0,-0.45375 -0.3525,-0.80626 -0.80626,-0.80626 l -5.75903,0 z m 1.95807,0.92145 1.84288,0 0,3.68577 -1.84288,0 0,-3.68577 z m 0,4.6072 1.84288,0 0,0.92145 -1.84288,0 0,-0.92145 z"
       id="path10898"
       sodipodi:nodetypes="ccccccccccccccccccc"
       style="color:#bebebe;fill:#000000;fill-opacity:1;fill-rule:nonzero;stroke:none;stroke-width:2;marker:none;visibility:visible;display:inline;overflow:visible" />
  </g>
  <g
     inkscape:label="devices"
     transform="translate(-221.0002,-257)"
     inkscape:groupmode="layer"
     id="layer10" />
  <g
     inkscape:label="apps"
     transform="translate(-221.0002,-257)"
     inkscape:groupmode="layer"
     id="layer11" />
  <g
     inkscape:label="actions"
     transform="translate(-221.0002,-257)"
     inkscape:groupmode="layer"
     id="layer12" />
  <g
     inkscape:label="places"
     transform="translate(-221.0002,-257)"
     inkscape:groupmode="layer"
     id="layer13" />
  <g
     inkscape:label="mimetypes"
     transform="translate(-221.0002,-257)"
     inkscape:groupmode="layer"
     id="layer14" />
  <g
     inkscape:label="emblems"
     transform="translate(-221.0002,-257)"
     inkscape:groupmode="layer"
     id="layer15" />
</svg>
