<?xml version="1.0" encoding="UTF-8" standalone="no"?>
<!-- Created with Inkscape (http://www.inkscape.org/) -->

<svg
   xmlns:dc="http://purl.org/dc/elements/1.1/"
   xmlns:cc="http://creativecommons.org/ns#"
   xmlns:rdf="http://www.w3.org/1999/02/22-rdf-syntax-ns#"
   xmlns:svg="http://www.w3.org/2000/svg"
   xmlns="http://www.w3.org/2000/svg"
   xmlns:sodipodi="http://sodipodi.sourceforge.net/DTD/sodipodi-0.dtd"
   xmlns:inkscape="http://www.inkscape.org/namespaces/inkscape"
   sodipodi:docname="security-high-symbolic.svg"
   version="1.1"
   inkscape:version="0.48.5 r10040"
   height="16"
   id="svg7384"
   width="16">
  <metadata
     id="metadata90">
    <rdf:RDF>
      <cc:Work
         rdf:about="">
        <dc:format>image/svg+xml</dc:format>
        <dc:type
           rdf:resource="http://purl.org/dc/dcmitype/StillImage" />
        <dc:title>Gnome Symbolic Icon Theme</dc:title>
      </cc:Work>
    </rdf:RDF>
  </metadata>
  <sodipodi:namedview
     inkscape:object-paths="false"
     inkscape:snap-bbox-midpoints="false"
     inkscape:zoom="38.349523"
     bordercolor="#666666"
     gridtolerance="10"
     guidetolerance="10"
     inkscape:guide-bbox="true"
     inkscape:window-maximized="1"
     inkscape:snap-nodes="true"
     pagecolor="#ffffff"
     objecttolerance="10"
     inkscape:snap-to-guides="true"
     inkscape:snap-grids="true"
     inkscape:current-layer="layer9"
     inkscape:pageshadow="2"
     id="namedview88"
     showgrid="false"
     inkscape:window-width="1914"
     inkscape:bbox-paths="false"
     inkscape:cx="12.272829"
     inkscape:cy="8.0742297"
     inkscape:pageopacity="0"
     inkscape:window-height="1031"
     inkscape:snap-others="false"
     inkscape:snap-bbox="true"
     inkscape:object-nodes="false"
     showguides="true"
     showborder="true"
     inkscape:window-x="0"
     inkscape:window-y="25"
     borderopacity="1"
     inkscape:snap-global="true"
     borderlayer="true">
    <inkscape:grid
       snapvisiblegridlinesonly="true"
       type="xygrid"
       visible="true"
       id="grid4866"
       enabled="true"
       empspacing="2"
       spacingx="1px"
       spacingy="1px" />
  </sodipodi:namedview>
  <title
     id="title9167">Gnome Symbolic Icon Theme</title>
  <defs
     id="defs7386" />
  <g
     id="layer9"
     transform="translate(-320.99995,-217)"
     inkscape:groupmode="layer"
     inkscape:label="status"
     style="display:inline">
    <path
       style="fill:#ffffff;fill-opacity:1;stroke:none"
       d="m 322.96289,216.96329 11.82399,0 c 0.69743,0 1.25889,0.56147 1.25889,1.25889 l 0,6.80565 c -0.52728,3.1177 -2.67353,6.08281 -7.28552,7.85661 -2.73292,-1.25296 -6.99635,-4.01279 -7.03078,-7.6931 l -0.0255,-6.96916 c -0.003,-0.69742 0.56146,-1.25889 1.25889,-1.25889 z"
       id="rect2994"
       inkscape:connector-curvature="0"
       sodipodi:nodetypes="ssscccss" />
    <path
       d="m 322.97007,217.97606 0,0.97691 0,5.86146 c 0,2.02383 1.47475,3.59602 2.77809,4.76243 1.30334,1.16641 2.59492,1.95382 2.59492,1.95382 l 0.48845,0.27476 0.51898,-0.30529 c 0,0 1.26441,-0.77915 2.56439,-1.95382 1.29998,-1.17466 2.77809,-2.73481 2.77809,-4.7319 l 0,-5.86146 0,-0.97691 -0.97691,0 -9.7691,0 -0.97691,0 z m 1.95382,1.95382 7.81528,0 0,4.88455 c 0,0.89844 -0.96417,2.26489 -2.10646,3.29707 -0.88497,0.79967 -1.44474,1.1127 -1.80118,1.34325 -0.3456,-0.2173 -0.90715,-0.51264 -1.80118,-1.31272 -1.13893,-1.01926 -2.10646,-2.3712 -2.10646,-3.3276 l 0,-4.88455 z"
       id="rect3259-2-8-6"
       inkscape:connector-curvature="0"
       style="font-size:medium;font-style:normal;font-variant:normal;font-weight:normal;font-stretch:normal;text-indent:0;text-align:start;text-decoration:none;line-height:normal;letter-spacing:normal;word-spacing:normal;text-transform:none;direction:ltr;block-progression:tb;writing-mode:lr-tb;text-anchor:start;baseline-shift:baseline;color:#bebebe;fill:#000000;fill-opacity:1;stroke:none;stroke-width:2;marker:none;visibility:visible;display:inline;overflow:visible;enable-background:accumulate;font-family:Sans;-inkscape-font-specification:Sans" />
    <path
       sodipodi:nodetypes="ccscsccc"
       id="rect4034-7-1-6"
       d="m 325.901,220.90679 0,3.90764 c 0,0.34913 0.73773,1.60346 1.80117,2.56439 0.56201,0.50782 0.71937,0.56711 1.12956,0.85479 0.41018,-0.28768 0.56754,-0.34697 1.12955,-0.85479 1.06344,-0.96093 1.80117,-2.21526 1.80117,-2.56439 l 0,-3.90764 -5.86145,0 z"
       inkscape:connector-curvature="0"
       style="color:#bebebe;fill:#000000;fill-opacity:1;fill-rule:nonzero;stroke:none;stroke-width:2;marker:none;visibility:visible;display:inline;overflow:visible" />
  </g>
  <g
     id="layer10"
     transform="translate(-320.99995,-217)"
     inkscape:groupmode="layer"
     inkscape:label="devices" />
  <g
     id="layer11"
     transform="translate(-320.99995,-217)"
     inkscape:groupmode="layer"
     inkscape:label="apps" />
  <g
     id="layer13"
     transform="translate(-320.99995,-217)"
     inkscape:groupmode="layer"
     inkscape:label="places" />
  <g
     id="layer14"
     transform="translate(-320.99995,-217)"
     inkscape:groupmode="layer"
     inkscape:label="mimetypes" />
  <g
     id="layer15"
     transform="translate(-320.99995,-217)"
     inkscape:groupmode="layer"
     inkscape:label="emblems"
     style="display:inline" />
  <g
     transform="translate(-320.99995,-217)"
     id="g71291"
     inkscape:groupmode="layer"
     inkscape:label="emotes"
     style="display:inline" />
  <g
     id="g4953"
     transform="translate(-320.99995,-217)"
     inkscape:groupmode="layer"
     inkscape:label="categories"
     style="display:inline" />
  <g
     id="layer12"
     transform="translate(-320.99995,-217)"
     inkscape:groupmode="layer"
     inkscape:label="actions"
     style="display:inline" />
</svg>
