<?xml version="1.0" encoding="UTF-8" standalone="no"?>
<!-- Created with Inkscape (http://www.inkscape.org/) -->

<svg
   xmlns:dc="http://purl.org/dc/elements/1.1/"
   xmlns:cc="http://creativecommons.org/ns#"
   xmlns:rdf="http://www.w3.org/1999/02/22-rdf-syntax-ns#"
   xmlns:svg="http://www.w3.org/2000/svg"
   xmlns="http://www.w3.org/2000/svg"
   xmlns:sodipodi="http://sodipodi.sourceforge.net/DTD/sodipodi-0.dtd"
   xmlns:inkscape="http://www.inkscape.org/namespaces/inkscape"
   sodipodi:docname="security-medium-symbolic.svg"
   version="1.1"
   inkscape:version="0.48.5 r10040"
   height="16"
   id="svg7384"
   width="16">
  <metadata
     id="metadata90">
    <rdf:RDF>
      <cc:Work
         rdf:about="">
        <dc:format>image/svg+xml</dc:format>
        <dc:type
           rdf:resource="http://purl.org/dc/dcmitype/StillImage" />
        <dc:title>Gnome Symbolic Icon Theme</dc:title>
      </cc:Work>
    </rdf:RDF>
  </metadata>
  <sodipodi:namedview
     inkscape:object-paths="false"
     inkscape:snap-bbox-midpoints="false"
     inkscape:zoom="32.093085"
     bordercolor="#666666"
     gridtolerance="10"
     guidetolerance="10"
     inkscape:guide-bbox="true"
     inkscape:window-maximized="1"
     inkscape:snap-nodes="true"
     pagecolor="#ffffff"
     objecttolerance="10"
     inkscape:snap-to-guides="true"
     inkscape:snap-grids="true"
     inkscape:current-layer="layer9"
     inkscape:pageshadow="2"
     id="namedview88"
     showgrid="false"
     inkscape:window-width="1914"
     inkscape:bbox-paths="false"
     inkscape:cx="13.988769"
     inkscape:cy="4.5712684"
     inkscape:pageopacity="0"
     inkscape:window-height="1031"
     inkscape:snap-others="false"
     inkscape:snap-bbox="true"
     inkscape:object-nodes="false"
     showguides="true"
     showborder="true"
     inkscape:window-x="0"
     inkscape:window-y="25"
     borderopacity="1"
     inkscape:snap-global="true"
     borderlayer="true">
    <inkscape:grid
       snapvisiblegridlinesonly="true"
       type="xygrid"
       visible="true"
       id="grid4866"
       enabled="true"
       empspacing="2"
       spacingx="1px"
       spacingy="1px" />
  </sodipodi:namedview>
  <title
     id="title9167">Gnome Symbolic Icon Theme</title>
  <defs
     id="defs7386" />
  <g
     id="layer9"
     transform="translate(-300.99995,-217)"
     inkscape:groupmode="layer"
     inkscape:label="status"
     style="display:inline">
    <path
       d="m 301.53033,217.00482 0,1.11102 0,6.85058 c 0,2.30167 1.83076,4.0897 3.44873,5.41624 1.61798,1.32654 3.22135,2.22205 3.22135,2.22205 l 0.60637,0.31246 0.64425,-0.34719 c 0,0 1.56965,-0.88612 3.18346,-2.22204 1.6138,-1.33594 3.44873,-3.11026 3.44873,-5.38152 l 0,-6.85058 0,-1.11102 -1.21275,0 -12.12739,0 z m 2.42548,2.40648 9.70193,0 0,5.55512 c 0,1.02178 -1.19693,2.57583 -2.61498,3.7497 -1.09859,0.90944 -1.79351,1.26545 -2.23598,1.52766 -0.42903,-0.24713 -1.12614,-0.58302 -2.23599,-1.49294 -1.41389,-1.15918 -2.61498,-2.69671 -2.61498,-3.78442 z"
       id="path339"
       inkscape:connector-curvature="0"
       style="font-size:medium;font-style:normal;font-variant:normal;font-weight:normal;font-stretch:normal;text-indent:0;text-align:start;text-decoration:none;line-height:normal;letter-spacing:normal;word-spacing:normal;text-transform:none;direction:ltr;block-progression:tb;writing-mode:lr-tb;text-anchor:start;baseline-shift:baseline;color:#bebebe;fill:#ffffff;fill-opacity:1;stroke:none;stroke-width:2;marker:none;visibility:visible;display:inline;overflow:visible;enable-background:accumulate;font-family:Sans;-inkscape-font-specification:Sans"
       sodipodi:nodetypes="ccsscccsscccccccsccssc" />
    <path
       d="m 302.98013,217.98654 0,0.98648 0,5.91887 c 0,2.04366 1.48918,3.63124 2.80529,4.80908 1.31611,1.17784 2.62034,1.97296 2.62034,1.97296 l 0.49324,0.27744 0.52406,-0.30827 c 0,0 1.27679,-0.78679 2.58951,-1.97296 1.31271,-1.18617 2.80529,-2.76159 2.80529,-4.77825 l 0,-5.91887 0,-0.98648 -0.98647,0 -9.86478,0 -0.98648,0 z m 1.97295,1.97296 7.89183,0 0,4.93239 c 0,0.90724 -0.97362,2.28708 -2.1271,3.32936 -0.89364,0.8075 -1.45889,1.1236 -1.81881,1.35641 -0.34899,-0.21942 -0.91604,-0.51765 -1.81882,-1.32558 -1.15009,-1.02924 -2.1271,-2.39442 -2.1271,-3.36019 l 0,-4.93239 z"
       id="rect3259-2-8"
       inkscape:connector-curvature="0"
       style="font-size:medium;font-style:normal;font-variant:normal;font-weight:normal;font-stretch:normal;text-indent:0;text-align:start;text-decoration:none;line-height:normal;letter-spacing:normal;word-spacing:normal;text-transform:none;direction:ltr;block-progression:tb;writing-mode:lr-tb;text-anchor:start;baseline-shift:baseline;color:#bebebe;fill:#000000;fill-opacity:1;stroke:none;stroke-width:2;marker:none;visibility:visible;display:inline;overflow:visible;enable-background:accumulate;font-family:Sans;-inkscape-font-specification:Sans" />
    <path
       sodipodi:nodetypes="ccsccc"
       d="m 308.89895,220.94598 0,7.39858 c -0.41421,-0.2905 -0.57311,-0.35036 -1.14062,-0.86317 -1.07386,-0.97033 -1.81882,-2.23695 -1.81882,-2.5895 l 0,-3.94591 2.95944,0 z"
       id="rect4034-7-1"
       inkscape:connector-curvature="0"
       style="color:#bebebe;fill:#000000;fill-opacity:1;stroke:none;stroke-width:2;marker:none;visibility:visible;display:inline;overflow:visible" />
  </g>
  <g
     id="layer10"
     transform="translate(-300.99995,-217)"
     inkscape:groupmode="layer"
     inkscape:label="devices" />
  <g
     id="layer11"
     transform="translate(-300.99995,-217)"
     inkscape:groupmode="layer"
     inkscape:label="apps" />
  <g
     id="layer13"
     transform="translate(-300.99995,-217)"
     inkscape:groupmode="layer"
     inkscape:label="places" />
  <g
     id="layer14"
     transform="translate(-300.99995,-217)"
     inkscape:groupmode="layer"
     inkscape:label="mimetypes" />
  <g
     id="layer15"
     transform="translate(-300.99995,-217)"
     inkscape:groupmode="layer"
     inkscape:label="emblems"
     style="display:inline" />
  <g
     transform="translate(-300.99995,-217)"
     id="g71291"
     inkscape:groupmode="layer"
     inkscape:label="emotes"
     style="display:inline" />
  <g
     id="g4953"
     transform="translate(-300.99995,-217)"
     inkscape:groupmode="layer"
     inkscape:label="categories"
     style="display:inline" />
  <g
     id="layer12"
     transform="translate(-300.99995,-217)"
     inkscape:groupmode="layer"
     inkscape:label="actions"
     style="display:inline" />
</svg>
