<?xml version="1.0" encoding="UTF-8" standalone="no"?>
<!-- Created with Inkscape (http://www.inkscape.org/) -->

<svg
   xmlns:dc="http://purl.org/dc/elements/1.1/"
   xmlns:cc="http://creativecommons.org/ns#"
   xmlns:rdf="http://www.w3.org/1999/02/22-rdf-syntax-ns#"
   xmlns:svg="http://www.w3.org/2000/svg"
   xmlns="http://www.w3.org/2000/svg"
   xmlns:sodipodi="http://sodipodi.sourceforge.net/DTD/sodipodi-0.dtd"
   xmlns:inkscape="http://www.inkscape.org/namespaces/inkscape"
   id="svg7384"
   version="1.1"
   inkscape:version="0.48.5 r10040"
   height="16"
   sodipodi:docname="software-update-available-symbolic.svg"
   width="16">
  <metadata
     id="metadata90">
    <rdf:RDF>
      <cc:Work
         rdf:about="">
        <dc:format>image/svg+xml</dc:format>
        <dc:type
           rdf:resource="http://purl.org/dc/dcmitype/StillImage" />
        <dc:title>Gnome Symbolic Icon Theme</dc:title>
      </cc:Work>
    </rdf:RDF>
  </metadata>
  <sodipodi:namedview
     inkscape:object-paths="true"
     inkscape:cy="8.000001"
     inkscape:current-layer="layer9"
     inkscape:window-width="1914"
     pagecolor="#ffffff"
     showborder="true"
     showguides="true"
     inkscape:snap-nodes="false"
     objecttolerance="10"
     showgrid="true"
     inkscape:object-nodes="true"
     inkscape:pageshadow="2"
     inkscape:guide-bbox="true"
     inkscape:window-x="0"
     inkscape:snap-bbox="true"
     bordercolor="#666666"
     id="namedview88"
     inkscape:window-maximized="1"
     inkscape:snap-global="false"
     inkscape:window-y="25"
     gridtolerance="10"
     inkscape:zoom="17.2"
     inkscape:window-height="1031"
     borderopacity="1"
     guidetolerance="10"
     inkscape:snap-bbox-midpoints="false"
     inkscape:cx="12.145349"
     inkscape:bbox-paths="false"
     inkscape:snap-grids="true"
     inkscape:pageopacity="0"
     inkscape:snap-to-guides="true"
     borderlayer="true">
    <inkscape:grid
       visible="true"
       spacingx="1px"
       type="xygrid"
       spacingy="1px"
       id="grid4866"
       empspacing="2"
       enabled="true"
       snapvisiblegridlinesonly="true" />
  </sodipodi:namedview>
  <title
     id="title9167">Gnome Symbolic Icon Theme</title>
  <defs
     id="defs7386" />
  <g
     transform="translate(-161.0002,-257)"
     inkscape:groupmode="layer"
     id="layer9"
     inkscape:label="status"
     style="display:inline">
    <path
       sodipodi:type="star"
       style="fill:#000000;fill-opacity:1;stroke:#ffffff;stroke-width:4.52460814;stroke-linecap:round;stroke-linejoin:round;stroke-miterlimit:4;stroke-opacity:1;stroke-dasharray:none"
       id="path2178"
       sodipodi:sides="8"
       sodipodi:cx="24.479263"
       sodipodi:cy="24.1106"
       sodipodi:r1="24.796349"
       sodipodi:r2="15.026587"
       sodipodi:arg1="-1.9452288"
       sodipodi:arg2="-1.5507025"
       inkscape:flatsided="false"
       inkscape:rounded="-0.02"
       inkscape:randomized="0"
       d="m 15.410138,1.0322575 c -0.230182,0.08997 9.618146,8.0593031 9.371047,8.054789 -0.246255,-0.0045 9.829698,-7.6093327 9.604091,-7.708139 -0.226382,-0.099145 1.102268,12.4998435 0.930734,12.3219265 -0.170947,-0.177309 12.331258,1.570036 12.241595,1.34064 -0.08997,-0.230182 -8.059303,9.618146 -8.054789,9.371047 0.0045,-0.246255 7.609333,9.829699 7.708139,9.604091 0.09915,-0.226382 -12.499844,1.102268 -12.321926,0.930734 0.177309,-0.170947 -1.570036,12.331258 -1.340641,12.241596 0.230183,-0.08997 -9.618145,-8.059304 -9.371046,-8.054789 0.246255,0.0045 -9.829699,7.609332 -9.604091,7.708139 0.226382,0.09915 -1.102268,-12.499844 -0.930735,-12.321927 0.170948,0.17731 -12.3312569,-1.570036 -12.2415947,-1.34064 0.08997,0.230182 8.0593031,-9.618146 8.054789,-9.371047 -0.0045,0.246255 -7.6093327,-9.829699 -7.7081391,-9.604091 C 1.648426,14.430969 14.247415,13.102319 14.069498,13.273853 13.892188,13.4448 15.639534,0.94259532 15.410138,1.0322575 z"
       transform="matrix(0.26923198,0.10891064,-0.10794643,0.26941762,165.0461,255.85356)" />
    <path
       sodipodi:type="star"
       style="fill:#ffffff;fill-opacity:1;stroke:#ffffff;stroke-width:9.9204998;stroke-linecap:round;stroke-linejoin:round;stroke-miterlimit:4;stroke-opacity:1;stroke-dasharray:none"
       id="path3137"
       sodipodi:sides="8"
       sodipodi:cx="24.479263"
       sodipodi:cy="24.1106"
       sodipodi:r1="24.796349"
       sodipodi:r2="17.506222"
       sodipodi:arg1="-1.9452288"
       sodipodi:arg2="-1.5507025"
       inkscape:flatsided="false"
       inkscape:rounded="0.19"
       inkscape:randomized="0"
       d="m 15.410138,1.0322575 c 1.937241,-0.75719565 7.341252,5.5376632 9.420869,5.5756543 2.069055,0.037798 7.65869,-6.05918493 9.554269,-5.2290043 1.905254,0.8344182 1.275329,9.1067685 2.718977,10.6041425 1.436315,1.489771 9.700002,1.131022 10.453352,3.058424 0.757196,1.937242 -5.537663,7.341252 -5.575654,9.420869 -0.0378,2.069055 6.059185,7.65869 5.229004,9.554269 -0.834418,1.905254 -9.106768,1.27533 -10.604143,2.718977 -1.48977,1.436315 -1.131021,9.700002 -3.058424,10.453353 -1.937241,0.757195 -7.341251,-5.537664 -9.420868,-5.575655 -2.069055,-0.0378 -7.65869,6.059185 -9.554269,5.229005 C 12.667997,46.007873 13.297921,37.735523 11.854274,36.238149 10.417958,34.748378 2.1542715,35.107128 1.4009213,33.179725 0.64372564,31.242484 6.9385845,25.838473 6.9765756,23.758856 7.0143738,21.689801 0.91739066,16.100166 1.7475712,14.204587 2.5819895,12.299333 10.854339,12.929258 12.351714,11.48561 13.841485,10.049295 13.482735,1.7856077 15.410138,1.0322575 z"
       transform="matrix(0.24532201,0.09928759,-0.09835992,0.24561266,165.39118,256.65005)" />
    <path
       transform="matrix(0.24532201,0.09928759,-0.09835992,0.24561266,165.39118,256.65005)"
       d="m 15.410138,1.0322575 c 1.937241,-0.75719565 7.341252,5.5376632 9.420869,5.5756543 2.069055,0.037798 7.65869,-6.05918493 9.554269,-5.2290043 1.905254,0.8344182 1.275329,9.1067685 2.718977,10.6041425 1.436315,1.489771 9.700002,1.131022 10.453352,3.058424 0.757196,1.937242 -5.537663,7.341252 -5.575654,9.420869 -0.0378,2.069055 6.059185,7.65869 5.229004,9.554269 -0.834418,1.905254 -9.106768,1.27533 -10.604143,2.718977 -1.48977,1.436315 -1.131021,9.700002 -3.058424,10.453353 -1.937241,0.757195 -7.341251,-5.537664 -9.420868,-5.575655 -2.069055,-0.0378 -7.65869,6.059185 -9.554269,5.229005 C 12.667997,46.007873 13.297921,37.735523 11.854274,36.238149 10.417958,34.748378 2.1542715,35.107128 1.4009213,33.179725 0.64372564,31.242484 6.9385845,25.838473 6.9765756,23.758856 7.0143738,21.689801 0.91739066,16.100166 1.7475712,14.204587 2.5819895,12.299333 10.854339,12.929258 12.351714,11.48561 13.841485,10.049295 13.482735,1.7856077 15.410138,1.0322575 z"
       inkscape:randomized="0"
       inkscape:rounded="0.19"
       inkscape:flatsided="false"
       sodipodi:arg2="-1.5507025"
       sodipodi:arg1="-1.9452288"
       sodipodi:r2="17.506222"
       sodipodi:r1="24.796349"
       sodipodi:cy="24.1106"
       sodipodi:cx="24.479263"
       sodipodi:sides="8"
       id="path2163"
       style="fill:#000000;fill-opacity:1;stroke:none"
       sodipodi:type="star" />
    <path
       style="fill:#ffffff;fill-opacity:1;fill-rule:evenodd;stroke:none;display:inline;enable-background:new"
       d="m 169,261.20349 4.03298,4.00195 -2.01649,0 0,2.91615 -4.00196,0 0,-2.91615 -2.01648,0 L 169,261.20349 z"
       id="rect7040"
       inkscape:connector-curvature="0" />
  </g>
  <g
     transform="translate(-161.0002,-257)"
     inkscape:groupmode="layer"
     id="layer10"
     inkscape:label="devices" />
  <g
     transform="translate(-161.0002,-257)"
     inkscape:groupmode="layer"
     id="layer11"
     inkscape:label="apps" />
  <g
     transform="translate(-161.0002,-257)"
     inkscape:groupmode="layer"
     id="layer12"
     inkscape:label="actions" />
  <g
     transform="translate(-161.0002,-257)"
     inkscape:groupmode="layer"
     id="layer13"
     inkscape:label="places" />
  <g
     transform="translate(-161.0002,-257)"
     inkscape:groupmode="layer"
     id="layer14"
     inkscape:label="mimetypes" />
  <g
     transform="translate(-161.0002,-257)"
     inkscape:groupmode="layer"
     id="layer15"
     inkscape:label="emblems"
     style="display:inline" />
  <g
     transform="translate(-161.0002,-257)"
     inkscape:groupmode="layer"
     id="g4953"
     inkscape:label="categories"
     style="display:inline" />
</svg>
