<?xml version="1.0" encoding="UTF-8" standalone="no"?>
<!-- Created with Inkscape (http://www.inkscape.org/) -->

<svg
   xmlns:dc="http://purl.org/dc/elements/1.1/"
   xmlns:cc="http://creativecommons.org/ns#"
   xmlns:rdf="http://www.w3.org/1999/02/22-rdf-syntax-ns#"
   xmlns:svg="http://www.w3.org/2000/svg"
   xmlns="http://www.w3.org/2000/svg"
   xmlns:sodipodi="http://sodipodi.sourceforge.net/DTD/sodipodi-0.dtd"
   xmlns:inkscape="http://www.inkscape.org/namespaces/inkscape"
   id="svg7384"
   sodipodi:docname="touchpad-disabled-symbolic.svg"
   version="1.1"
   inkscape:version="0.48.5 r10040"
   height="16"
   width="16.0002">
  <metadata
     id="metadata90">
    <rdf:RDF>
      <cc:Work
         rdf:about="">
        <dc:format>image/svg+xml</dc:format>
        <dc:type
           rdf:resource="http://purl.org/dc/dcmitype/StillImage" />
        <dc:title>Gnome Symbolic Icon Theme</dc:title>
      </cc:Work>
    </rdf:RDF>
  </metadata>
  <sodipodi:namedview
     inkscape:cy="5.7147602"
     pagecolor="#555753"
     borderopacity="1"
     showborder="true"
     inkscape:bbox-paths="false"
     guidetolerance="10"
     inkscape:object-paths="true"
     inkscape:window-width="1914"
     showguides="true"
     inkscape:object-nodes="true"
     inkscape:snap-bbox="true"
     inkscape:pageshadow="2"
     inkscape:guide-bbox="true"
     inkscape:snap-nodes="false"
     bordercolor="#666666"
     objecttolerance="10"
     id="namedview88"
     showgrid="false"
     inkscape:window-maximized="1"
     inkscape:window-x="0"
     inkscape:snap-global="true"
     inkscape:window-y="25"
     gridtolerance="10"
     inkscape:window-height="1031"
     inkscape:snap-to-guides="true"
     inkscape:current-layer="layer9"
     inkscape:snap-bbox-midpoints="false"
     inkscape:zoom="32.380408"
     inkscape:cx="6.354727"
     inkscape:snap-grids="true"
     inkscape:pageopacity="0"
     borderlayer="true">
    <inkscape:grid
       spacingx="1px"
       spacingy="1px"
       id="grid4866"
       empspacing="2"
       enabled="true"
       type="xygrid"
       snapvisiblegridlinesonly="true"
       visible="true" />
  </sodipodi:namedview>
  <title
     id="title9167">Gnome Symbolic Icon Theme</title>
  <defs
     id="defs7386" />
  <g
     inkscape:label="status"
     transform="translate(-121,-318)"
     inkscape:groupmode="layer"
     id="layer9"
     style="display:inline">
    <path
       style="fill:#ffffff;fill-opacity:1;stroke:none"
       d="m 123.26694,318.42766 10.84577,0 c 1.68362,0 2.20518,0.95658 2.20518,2.14482 l 0,9.45323 c 0,0.3951 -1.01984,0.36492 -1.2818,0.68215 -0.52585,0.63681 -0.63344,1.46267 -1.75722,1.46267 l -10.04281,0 c -1.68363,0 -2.26696,-0.95659 -2.26696,-2.14482 l 0,-9.45323 c 0,-1.18824 0.61421,-2.14482 2.29784,-2.14482 z"
       id="rect3783"
       inkscape:connector-curvature="0"
       sodipodi:nodetypes="ssssssssss" />
    <path
       inkscape:connector-curvature="0"
       d="m 124.57178,319.16616 c -1.45655,0 -2.64509,1.18854 -2.64509,2.64509 l 0,6.92633 c 0,1.45655 1.18854,2.64509 2.64509,2.64509 l 6.08099,0 0,-1.74521 -1.74521,0 0,-1.74522 6.10825,0 0,-6.08099 c 0,-1.45655 -1.18854,-2.64509 -2.64509,-2.64509 z m 0,1.74522 7.79894,0 c 0.51988,0 0.89988,0.37999 0.89988,0.89987 l 0,5.20838 -9.59869,0 0,-5.20838 c 0,-0.51988 0.37999,-0.89987 0.89987,-0.89987 z m -0.89987,6.98086 4.36304,0 0,1.74522 -3.46317,0 c -0.51988,0 -0.89987,-0.38 -0.89987,-0.89988 z"
       id="rect5837-1"
       sodipodi:nodetypes="sssscccccssssssccsscccssc"
       style="font-size:medium;font-style:normal;font-variant:normal;font-weight:normal;font-stretch:normal;text-indent:0;text-align:start;text-decoration:none;line-height:normal;letter-spacing:normal;word-spacing:normal;text-transform:none;direction:ltr;block-progression:tb;writing-mode:lr-tb;text-anchor:start;baseline-shift:baseline;color:#bebebe;fill:#000000;fill-opacity:1;stroke:none;stroke-width:2;marker:none;visibility:visible;display:inline;overflow:visible;enable-background:accumulate;font-family:Sans;-inkscape-font-specification:Sans" />
    <path
       inkscape:connector-curvature="0"
       d="m 130.89368,328.32133 1.50558,0 1.23183,1.19085 1.19763,-1.19085 1.53978,0 -0.0618,1.8771 -0.82701,0.78625 0.95055,0.90978 -0.0618,1.87081 -1.7593,0 -0.94723,-0.97154 -0.7928,0.94066 -1.97549,0.0309 0,-1.5311 1.1634,-1.15684 -1.1634,-1.15684 z"
       id="path3761-2-3-5-4-8-9-8-0-9-3-0"
       sodipodi:nodetypes="ccccccccccccccccc"
       style="color:#bebebe;fill:#ffffff;fill-opacity:1;stroke:none;stroke-width:2;marker:none;visibility:visible;display:inline;overflow:visible" />
    <path
       inkscape:connector-curvature="0"
       d="m 131.52538,328.76485 1.19984,0 0.98168,0.95441 0.95442,-0.95441 1.2271,0 0,1.28164 -0.95441,0.92715 0.95441,0.92715 0,1.2271 -1.25437,0 -0.92715,-0.92715 -0.92715,0.92715 -1.25437,0 0,-1.2271 0.92715,-0.92715 -0.92715,-0.92715 0,-1.28164 z"
       id="path3761-2-3-5-4-8-9-8-0-9-3"
       sodipodi:nodetypes="ccccccccccccccccc"
       style="color:#bebebe;fill:#000000;fill-opacity:1;stroke:none;stroke-width:2;marker:none;visibility:visible;display:inline;overflow:visible" />
  </g>
  <g
     inkscape:label="devices"
     transform="translate(-121,-318)"
     inkscape:groupmode="layer"
     id="layer10" />
  <g
     inkscape:label="apps"
     transform="translate(-121,-318)"
     inkscape:groupmode="layer"
     id="layer11" />
  <g
     inkscape:label="actions"
     transform="translate(-121,-318)"
     inkscape:groupmode="layer"
     id="layer12"
     style="display:inline" />
  <g
     inkscape:label="places"
     transform="translate(-121,-318)"
     inkscape:groupmode="layer"
     id="layer13" />
  <g
     inkscape:label="mimetypes"
     transform="translate(-121,-318)"
     inkscape:groupmode="layer"
     id="layer14" />
  <g
     inkscape:label="emblems"
     transform="translate(-121,-318)"
     inkscape:groupmode="layer"
     id="layer15"
     style="display:inline" />
  <g
     inkscape:label="categories"
     transform="translate(-121,-318)"
     inkscape:groupmode="layer"
     id="g4953"
     style="display:inline" />
</svg>
