<?xml version="1.0" encoding="UTF-8" standalone="no"?>
<!-- Created with Inkscape (http://www.inkscape.org/) -->

<svg
   xmlns:dc="http://purl.org/dc/elements/1.1/"
   xmlns:cc="http://creativecommons.org/ns#"
   xmlns:rdf="http://www.w3.org/1999/02/22-rdf-syntax-ns#"
   xmlns:svg="http://www.w3.org/2000/svg"
   xmlns="http://www.w3.org/2000/svg"
   xmlns:sodipodi="http://sodipodi.sourceforge.net/DTD/sodipodi-0.dtd"
   xmlns:inkscape="http://www.inkscape.org/namespaces/inkscape"
   id="svg7384"
   sodipodi:docname="user-offline-symbolic.svg"
   version="1.1"
   inkscape:version="0.48.5 r10040"
   height="16"
   width="16">
  <metadata
     id="metadata90">
    <rdf:RDF>
      <cc:Work
         rdf:about="">
        <dc:format>image/svg+xml</dc:format>
        <dc:type
           rdf:resource="http://purl.org/dc/dcmitype/StillImage" />
        <dc:title>Gnome Symbolic Icon Theme</dc:title>
      </cc:Work>
    </rdf:RDF>
  </metadata>
  <sodipodi:namedview
     inkscape:cy="-14.8"
     pagecolor="#ffffff"
     borderopacity="1"
     showborder="true"
     inkscape:bbox-paths="false"
     guidetolerance="10"
     inkscape:object-paths="true"
     inkscape:window-width="1914"
     showguides="true"
     inkscape:object-nodes="true"
     inkscape:snap-bbox="true"
     inkscape:pageshadow="2"
     inkscape:guide-bbox="true"
     inkscape:snap-nodes="true"
     bordercolor="#666666"
     objecttolerance="10"
     id="namedview88"
     showgrid="false"
     inkscape:window-maximized="1"
     inkscape:window-x="0"
     inkscape:snap-global="true"
     inkscape:window-y="25"
     gridtolerance="10"
     inkscape:window-height="1031"
     inkscape:snap-to-guides="true"
     inkscape:current-layer="layer9"
     inkscape:snap-bbox-midpoints="false"
     inkscape:zoom="9.7081961"
     inkscape:cx="35.292308"
     inkscape:snap-grids="true"
     inkscape:pageopacity="0"
     borderlayer="true">
    <inkscape:grid
       spacingx="1px"
       spacingy="1px"
       id="grid4866"
       empspacing="2"
       enabled="true"
       type="xygrid"
       snapvisiblegridlinesonly="true"
       visible="true" />
  </sodipodi:namedview>
  <title
     id="title9167">Gnome Symbolic Icon Theme</title>
  <defs
     id="defs7386" />
  <g
     inkscape:label="status"
     transform="translate(-61.000198,-357)"
     inkscape:groupmode="layer"
     id="layer9"
     style="display:inline">
    <path
       style="color:#bebebe;fill:#ffffff;fill-opacity:1;fill-rule:nonzero;stroke:none;stroke-width:2.4000001;marker:none;visibility:visible;display:inline;overflow:visible;enable-background:accumulate"
       d="m 64.654967,358.37448 c -1.51002,0 -2.72566,1.30897 -2.72566,2.93491 l 0,4.73589 c 0,1.62593 1.21564,2.93491 2.72566,2.93491 l 6.25664,0 2.66068,3.51896 0.2818,-3.61901 c 1.19388,-0.31254 2.07522,-1.4505 2.07522,-2.83486 l 0,-4.73589 c 0,-1.62594 -1.21565,-2.93491 -2.72567,-2.93491 z"
       id="path3781"
       inkscape:connector-curvature="0"
       sodipodi:nodetypes="sssscccssss" />
    <path
       inkscape:connector-curvature="0"
       d="m 65.265597,359.26829 c -1.2943,0 -2.33628,1.04198 -2.33628,2.33628 l 0,3.76991 c 0,1.2943 1.04198,2.33628 2.33628,2.33628 l 5.36283,0 2.57522,3.39823 -0.0531,-3.47787 c 1.02332,-0.24879 1.77876,-1.15464 1.77876,-2.25664 l 0,-3.76991 c 0,-1.2943 -1.04198,-2.33628 -2.33628,-2.33628 l -7.32744,0 z m 1.11504,1.64602 0.84956,0 c 0.2346,0 0.45688,0.0852 0.61062,0.23893 l 1.08849,1.0885 1.0885,-1.0885 c 0.15373,-0.15373 0.37602,-0.23893 0.61062,-0.23893 l 0.84956,0 0,0.84955 c 0,0.2346 -0.0852,0.45689 -0.23894,0.61062 l -1.0885,1.0885 1.0885,1.08849 c 0.15373,0.15374 0.23894,0.37602 0.23894,0.61062 l 0,0.84956 -0.84956,0 c -0.2346,0 -0.45689,-0.0852 -0.61062,-0.23894 l -1.0885,-1.08849 -1.08849,1.08849 c -0.15374,0.15374 -0.37602,0.23894 -0.61062,0.23894 l -0.84956,0 0,-0.84956 c 0,-0.2346 0.0852,-0.45688 0.23894,-0.61062 l 1.08849,-1.08849 -1.08849,-1.0885 c -0.15374,-0.15373 -0.23894,-0.37602 -0.23894,-0.61062 l 0,-0.84955 z"
       id="rect11261-1-9"
       style="color:#bebebe;fill:#000000;fill-opacity:1;fill-rule:nonzero;stroke:none;stroke-width:2.4000001;marker:none;visibility:visible;display:inline;overflow:visible;enable-background:accumulate" />
  </g>
  <g
     inkscape:label="devices"
     transform="translate(-61.000198,-357)"
     inkscape:groupmode="layer"
     id="layer10" />
  <g
     inkscape:label="apps"
     transform="translate(-61.000198,-357)"
     inkscape:groupmode="layer"
     id="layer11" />
  <g
     inkscape:label="actions"
     transform="translate(-61.000198,-357)"
     inkscape:groupmode="layer"
     id="layer12" />
  <g
     inkscape:label="places"
     transform="translate(-61.000198,-357)"
     inkscape:groupmode="layer"
     id="layer13" />
  <g
     inkscape:label="mimetypes"
     transform="translate(-61.000198,-357)"
     inkscape:groupmode="layer"
     id="layer14" />
  <g
     inkscape:label="emblems"
     transform="translate(-61.000198,-357)"
     inkscape:groupmode="layer"
     id="layer15"
     style="display:inline" />
  <g
     inkscape:label="categories"
     transform="translate(-61.000198,-357)"
     inkscape:groupmode="layer"
     id="g4953"
     style="display:inline" />
</svg>
