<?xml version="1.0" encoding="UTF-8" standalone="no"?>
<!-- Created with Inkscape (http://www.inkscape.org/) -->

<svg
   xmlns:dc="http://purl.org/dc/elements/1.1/"
   xmlns:cc="http://creativecommons.org/ns#"
   xmlns:rdf="http://www.w3.org/1999/02/22-rdf-syntax-ns#"
   xmlns:svg="http://www.w3.org/2000/svg"
   xmlns="http://www.w3.org/2000/svg"
   xmlns:sodipodi="http://sodipodi.sourceforge.net/DTD/sodipodi-0.dtd"
   xmlns:inkscape="http://www.inkscape.org/namespaces/inkscape"
   id="svg7384"
   version="1.1"
   inkscape:version="0.48.5 r10040"
   height="16"
   sodipodi:docname="weather-severe-alert-symbolic.svg"
   width="16">
  <metadata
     id="metadata90">
    <rdf:RDF>
      <cc:Work
         rdf:about="">
        <dc:format>image/svg+xml</dc:format>
        <dc:type
           rdf:resource="http://purl.org/dc/dcmitype/StillImage" />
        <dc:title>Gnome Symbolic Icon Theme</dc:title>
      </cc:Work>
    </rdf:RDF>
  </metadata>
  <sodipodi:namedview
     inkscape:object-paths="true"
     inkscape:cy="6.4891639"
     inkscape:current-layer="layer9"
     inkscape:window-width="1914"
     pagecolor="#ffffff"
     showborder="true"
     showguides="true"
     inkscape:snap-nodes="false"
     objecttolerance="10"
     showgrid="true"
     inkscape:object-nodes="true"
     inkscape:pageshadow="2"
     inkscape:guide-bbox="true"
     inkscape:window-x="0"
     inkscape:snap-bbox="true"
     bordercolor="#666666"
     id="namedview88"
     inkscape:window-maximized="1"
     inkscape:snap-global="false"
     inkscape:window-y="25"
     gridtolerance="10"
     inkscape:zoom="39.225405"
     inkscape:window-height="1031"
     borderopacity="1"
     guidetolerance="10"
     inkscape:snap-bbox-midpoints="false"
     inkscape:cx="10.165619"
     inkscape:bbox-paths="false"
     inkscape:snap-grids="true"
     inkscape:pageopacity="0"
     inkscape:snap-to-guides="true"
     borderlayer="true">
    <inkscape:grid
       visible="true"
       spacingx="1px"
       type="xygrid"
       spacingy="1px"
       id="grid4866"
       empspacing="2"
       enabled="true"
       snapvisiblegridlinesonly="true" />
  </sodipodi:namedview>
  <title
     id="title9167">Gnome Symbolic Icon Theme</title>
  <defs
     id="defs7386" />
  <g
     transform="translate(-181,-277)"
     inkscape:groupmode="layer"
     id="layer9"
     inkscape:label="status"
     style="display:inline">
    <rect
       style="fill:none"
       id="rect2395"
       width="26.649986"
       height="26.649986"
       x="155.71545"
       y="269.97449" />
    <g
       id="g3010">
      <path
         style="fill:#ffffff;fill-opacity:1;fill-rule:evenodd;stroke:#ffffff;stroke-width:2.64034915;stroke-linecap:butt;stroke-linejoin:miter;stroke-miterlimit:4;stroke-opacity:1;stroke-dasharray:none"
         d="m 184.70237,288.05929 c 1.58601,0 2.57614,0 4.22636,-0.33004 0.99013,0.33004 2.97039,0.33004 4.05465,0.33004 3.10538,0 3.79546,-5.46072 -0.34505,-4.29057 1.03513,-2.73036 -2.41529,-4.29056 -4.48554,-1.5602 -1.03513,-1.17016 -3.62764,-1.19924 -3.2826,1.53112 -3.45042,-1.17016 -3.2732,4.31965 -0.16782,4.31965 z"
         id="path3253"
         sodipodi:nodetypes="ccccccc"
         inkscape:connector-curvature="0" />
      <path
         sodipodi:nodetypes="ccccccc"
         id="path3247"
         d="m 184.70237,288.05929 c 1.58601,0 2.57614,0 4.22636,-0.33004 0.99013,0.33004 2.97039,0.33004 4.05465,0.33004 3.10538,0 3.79546,-5.46072 -0.34505,-4.29057 1.03513,-2.73036 -2.41529,-4.29056 -4.48554,-1.5602 -1.03513,-1.17016 -3.62764,-1.19924 -3.2826,1.53112 -3.45042,-1.17016 -3.2732,4.31965 -0.16782,4.31965 z"
         style="fill:#000000;fill-opacity:1;fill-rule:evenodd;stroke:none"
         inkscape:connector-curvature="0" />
      <rect
         ry="0.91306978"
         y="284.89301"
         x="189.98738"
         height="5.5321288"
         width="5.8543887"
         id="rect3006"
         style="fill:#ffffff;fill-opacity:1;stroke:none" />
      <path
         sodipodi:nodetypes="cc"
         id="path3257"
         d="m 187.9386,288.38934 c 1.65021,-0.33005 2.75036,-1.10015 3.96052,-1.65022"
         style="fill:none;stroke:#ffffff;stroke-width:0.99013096;stroke-linecap:round;stroke-linejoin:miter;stroke-miterlimit:4;stroke-opacity:1;stroke-dasharray:none"
         inkscape:connector-curvature="0" />
      <path
         style="color:#bebebe;fill:#000000;fill-opacity:1;fill-rule:nonzero;stroke:none;stroke-width:2;marker:none;visibility:visible;display:inline;overflow:visible"
         sodipodi:nodetypes="ccccccccccccccccccc"
         id="path10898-2"
         d="m 191.04477,285.30803 c -0.29274,0 -0.52015,0.22742 -0.52015,0.52015 l 0,3.71531 c 0,0.29273 0.22741,0.52015 0.52015,0.52015 l 3.71531,0 c 0.29274,0 0.52015,-0.22742 0.52015,-0.52015 l 0,-3.71531 c 0,-0.29273 -0.22741,-0.52015 -0.52015,-0.52015 l -3.71531,0 z m 1.2632,0.59445 1.1889,0 0,2.37781 -1.1889,0 0,-2.37781 z m 0,2.97226 1.1889,0 0,0.59445 -1.1889,0 0,-0.59445 z"
         class="warning"
         inkscape:connector-curvature="0" />
    </g>
  </g>
  <g
     transform="translate(-181,-277)"
     inkscape:groupmode="layer"
     id="layer10"
     inkscape:label="devices" />
  <g
     transform="translate(-181,-277)"
     inkscape:groupmode="layer"
     id="layer11"
     inkscape:label="apps" />
  <g
     transform="translate(-181,-277)"
     inkscape:groupmode="layer"
     id="layer12"
     inkscape:label="actions" />
  <g
     transform="translate(-181,-277)"
     inkscape:groupmode="layer"
     id="layer13"
     inkscape:label="places" />
  <g
     transform="translate(-181,-277)"
     inkscape:groupmode="layer"
     id="layer14"
     inkscape:label="mimetypes" />
  <g
     transform="translate(-181,-277)"
     inkscape:groupmode="layer"
     id="layer15"
     inkscape:label="emblems"
     style="display:inline" />
  <g
     transform="translate(-181,-277)"
     inkscape:groupmode="layer"
     id="g4953"
     inkscape:label="categories"
     style="display:inline" />
</svg>
