<?xml version="1.0" encoding="UTF-8" standalone="no"?>
<!-- Created with Inkscape (http://www.inkscape.org/) -->

<svg
   xmlns:dc="http://purl.org/dc/elements/1.1/"
   xmlns:cc="http://creativecommons.org/ns#"
   xmlns:rdf="http://www.w3.org/1999/02/22-rdf-syntax-ns#"
   xmlns:svg="http://www.w3.org/2000/svg"
   xmlns="http://www.w3.org/2000/svg"
   xmlns:sodipodi="http://sodipodi.sourceforge.net/DTD/sodipodi-0.dtd"
   xmlns:inkscape="http://www.inkscape.org/namespaces/inkscape"
   id="svg7384"
   sodipodi:docname="weather-few-clouds-night-symbolic.svg"
   version="1.1"
   inkscape:version="0.48.5 r10040"
   height="16"
   width="16">
  <metadata
     id="metadata90">
    <rdf:RDF>
      <cc:Work
         rdf:about="">
        <dc:format>image/svg+xml</dc:format>
        <dc:type
           rdf:resource="http://purl.org/dc/dcmitype/StillImage" />
        <dc:title>Gnome Symbolic Icon Theme</dc:title>
      </cc:Work>
    </rdf:RDF>
  </metadata>
  <sodipodi:namedview
     inkscape:cy="6.6475457"
     pagecolor="#ffffff"
     borderopacity="1"
     showborder="true"
     inkscape:bbox-paths="false"
     guidetolerance="10"
     inkscape:object-paths="true"
     inkscape:window-width="1914"
     showguides="true"
     inkscape:object-nodes="true"
     inkscape:snap-bbox="true"
     inkscape:pageshadow="2"
     inkscape:guide-bbox="true"
     inkscape:snap-nodes="false"
     bordercolor="#666666"
     objecttolerance="10"
     id="namedview88"
     showgrid="false"
     inkscape:window-maximized="1"
     inkscape:window-x="0"
     inkscape:snap-global="true"
     inkscape:window-y="25"
     gridtolerance="10"
     inkscape:window-height="1031"
     inkscape:snap-to-guides="true"
     inkscape:current-layer="layer9"
     inkscape:snap-bbox-midpoints="false"
     inkscape:zoom="15.482143"
     inkscape:cx="33.691505"
     inkscape:snap-grids="true"
     inkscape:pageopacity="0"
     borderlayer="true">
    <inkscape:grid
       spacingx="1px"
       spacingy="1px"
       id="grid4866"
       empspacing="2"
       enabled="true"
       type="xygrid"
       snapvisiblegridlinesonly="true"
       visible="true" />
  </sodipodi:namedview>
  <title
     id="title9167">Gnome Symbolic Icon Theme</title>
  <defs
     id="defs7386" />
  <g
     inkscape:label="status"
     transform="translate(-141,-277)"
     inkscape:groupmode="layer"
     id="layer9"
     style="display:inline">
    <rect
       style="fill:none;stroke:none"
       id="rect2493"
       width="15.640141"
       height="15.640141"
       x="141.28604"
       y="277.13843" />
    <path
       inkscape:connector-curvature="0"
       sodipodi:nodetypes="ccccs"
       id="path3849"
       d="m 147.01249,291.47521 8.61036,0 0,-6.68039 c -1.32468,-3.00619 -8.61036,-2.00412 -8.27919,1.33607 -3.6863,-1.34274 -5.29868,5.34432 -0.33117,5.34432 z"
       style="fill:#ffffff;fill-opacity:1;fill-rule:evenodd;stroke:#ffffff;stroke-width:2.60669017;stroke-linecap:butt;stroke-linejoin:miter;stroke-miterlimit:4;stroke-opacity:1;stroke-dasharray:none" />
    <g
       id="g3785"
       transform="matrix(0.32583629,0,0,0.32583629,141.28605,277.13841)">
      <path
         inkscape:connector-curvature="0"
         style="fill:#ffffff;fill-opacity:1;fill-rule:nonzero;stroke:#ffffff;stroke-width:17.04613686;stroke-linecap:butt;stroke-linejoin:round;stroke-miterlimit:4;stroke-opacity:1;stroke-dasharray:none;stroke-dashoffset:0"
         d="m 17.114204,9.5545413 c -0.512975,1.9059407 -1.200235,3.8501667 -1.200235,5.9582627 1e-6,8.432382 6.957351,15.268042 15.539848,15.268042 2.506532,0 4.872398,-0.960378 6.948713,-1.613695 -1.038157,5.753309 -7.902745,9.309781 -14.339613,9.309781 -8.582501,0 -15.539849,-6.835662 -15.539849,-15.268042 0,-5.969694 2.887376,-12.768405 8.591136,-13.6543487 z"
         id="path3275"
         sodipodi:nodetypes="csscssc" />
      <path
         inkscape:connector-curvature="0"
         style="fill:#000000;fill-opacity:1;fill-rule:nonzero;stroke:#000000;stroke-width:9;stroke-linecap:round;stroke-linejoin:round;stroke-miterlimit:4;stroke-opacity:1;stroke-dasharray:none;stroke-dashoffset:0"
         d="m 17.14773,9.551622 c -0.513272,1.906703 -1.200929,3.851706 -1.200929,5.960645 10e-7,8.435755 6.961379,15.274149 15.548843,15.274149 2.507983,0 4.875219,-0.960762 6.952734,-1.614341 -1.038757,5.75561 -7.907318,9.313504 -14.347912,9.313504 -8.587469,0 -15.5488439,-6.838396 -15.5488439,-15.274148 0,-5.972081 2.8890469,-12.773511 8.5961079,-13.659809 z"
         id="path3273"
         sodipodi:nodetypes="csscssc" />
      <path
         inkscape:connector-curvature="0"
         sodipodi:nodetypes="csscssc"
         id="path23408"
         d="m 17.155081,9.5437498 c -0.514181,1.9077412 -1.203056,3.8538022 -1.203056,5.9638882 10e-7,8.440345 6.973708,15.282461 15.576378,15.282461 2.512425,0 4.883854,-0.961286 6.965049,-1.61522 -1.040598,5.758743 -7.921323,9.318573 -14.373323,9.318573 -8.602676,0 -15.5763791,-6.842118 -15.5763791,-15.282461 0,-5.975329 2.8941631,-12.780461 8.6113311,-13.6672412 z"
         style="fill:#ffffff;fill-opacity:1;fill-rule:nonzero;stroke:#ffffff;stroke-width:3.01309681;stroke-linecap:butt;stroke-linejoin:round;stroke-miterlimit:4;stroke-opacity:1;stroke-dasharray:none;stroke-dashoffset:0" />
    </g>
    <g
       id="g3781"
       transform="matrix(0.32583629,0,0,0.32583629,141.28605,277.13841)">
      <path
         sodipodi:type="star"
         style="fill:none;stroke:#ffffff;stroke-width:11.01093483;stroke-linecap:round;stroke-linejoin:round;stroke-miterlimit:4;stroke-opacity:1;stroke-dasharray:none"
         id="path3279"
         sodipodi:sides="5"
         sodipodi:cx="7"
         sodipodi:cy="6"
         sodipodi:r1="6.9523058"
         sodipodi:r2="3.1500001"
         sodipodi:arg1="0.65805831"
         sodipodi:arg2="1.2863768"
         inkscape:flatsided="false"
         inkscape:rounded="0.23"
         inkscape:randomized="0"
         d="M 12.500534,10.251904 C 11.828542,11.121235 8.938524,8.7151308 7.8838911,9.0234479 6.8292582,9.3317649 5.690398,12.915693 4.6559579,12.545229 3.6215177,12.174765 5.016794,8.6826674 4.3976676,7.7749272 3.7785411,6.8671869 0.01809597,6.8915612 0.05076848,5.7932704 0.08344099,4.6949798 3.8357873,4.9428488 4.507779,4.0735174 5.1797707,3.204186 3.994548,-0.36467778 5.0491809,-0.67299487 6.1038137,-0.98131195 7.027615,2.6639772 8.0620551,3.0344411 9.0964953,3.4049051 12.124433,1.1748517 12.743559,2.0825919 c 0.619126,0.9077403 -2.562279,2.9127838 -2.594952,4.0110745 -0.03267,1.0982907 3.023919,3.2889057 2.351927,4.1582376 z"
         transform="matrix(1.0180133,0,0,0.9803554,28.445553,6.1778971)" />
      <path
         transform="matrix(1.0180133,0,0,0.9803554,28.447043,6.1764074)"
         d="M 12.500534,10.251904 C 11.828542,11.121235 8.938524,8.7151308 7.8838911,9.0234479 6.8292582,9.3317649 5.690398,12.915693 4.6559579,12.545229 3.6215177,12.174765 5.016794,8.6826674 4.3976676,7.7749272 3.7785411,6.8671869 0.01809597,6.8915612 0.05076848,5.7932704 0.08344099,4.6949798 3.8357873,4.9428488 4.507779,4.0735174 5.1797707,3.204186 3.994548,-0.36467778 5.0491809,-0.67299487 6.1038137,-0.98131195 7.027615,2.6639772 8.0620551,3.0344411 9.0964953,3.4049051 12.124433,1.1748517 12.743559,2.0825919 c 0.619126,0.9077403 -2.562279,2.9127838 -2.594952,4.0110745 -0.03267,1.0982907 3.023919,3.2889057 2.351927,4.1582376 z"
         inkscape:randomized="0"
         inkscape:rounded="0.23"
         inkscape:flatsided="false"
         sodipodi:arg2="1.2863768"
         sodipodi:arg1="0.65805831"
         sodipodi:r2="3.1500001"
         sodipodi:r1="6.9523058"
         sodipodi:cy="6"
         sodipodi:cx="7"
         sodipodi:sides="5"
         id="path3277"
         style="fill:#000000;fill-opacity:1;stroke:#000000;stroke-width:3;stroke-linecap:round;stroke-linejoin:round;stroke-miterlimit:4;stroke-opacity:1;stroke-dasharray:none"
         sodipodi:type="star" />
    </g>
    <path
       inkscape:connector-curvature="0"
       style="fill:#000000;fill-opacity:1;fill-rule:evenodd;stroke:none"
       d="m 147.01249,291.47521 8.61036,0 0,-6.68039 c -1.32468,-3.00619 -8.61036,-2.00412 -8.27919,1.33607 -3.6863,-1.34274 -5.29868,5.34432 -0.33117,5.34432 z"
       id="path3247"
       sodipodi:nodetypes="ccccs" />
  </g>
  <g
     inkscape:label="devices"
     transform="translate(-141,-277)"
     inkscape:groupmode="layer"
     id="layer10" />
  <g
     inkscape:label="apps"
     transform="translate(-141,-277)"
     inkscape:groupmode="layer"
     id="layer11" />
  <g
     inkscape:label="actions"
     transform="translate(-141,-277)"
     inkscape:groupmode="layer"
     id="layer12" />
  <g
     inkscape:label="places"
     transform="translate(-141,-277)"
     inkscape:groupmode="layer"
     id="layer13" />
  <g
     inkscape:label="mimetypes"
     transform="translate(-141,-277)"
     inkscape:groupmode="layer"
     id="layer14" />
  <g
     inkscape:label="emblems"
     transform="translate(-141,-277)"
     inkscape:groupmode="layer"
     id="layer15"
     style="display:inline" />
  <g
     inkscape:label="categories"
     transform="translate(-141,-277)"
     inkscape:groupmode="layer"
     id="g4953"
     style="display:inline" />
</svg>
