<?xml version="1.0" encoding="UTF-8" standalone="no"?>
<!-- Created with Inkscape (http://www.inkscape.org/) -->

<svg
   xmlns:dc="http://purl.org/dc/elements/1.1/"
   xmlns:cc="http://creativecommons.org/ns#"
   xmlns:rdf="http://www.w3.org/1999/02/22-rdf-syntax-ns#"
   xmlns:svg="http://www.w3.org/2000/svg"
   xmlns="http://www.w3.org/2000/svg"
   xmlns:sodipodi="http://sodipodi.sourceforge.net/DTD/sodipodi-0.dtd"
   xmlns:inkscape="http://www.inkscape.org/namespaces/inkscape"
   id="svg7384"
   version="1.1"
   inkscape:version="0.48.5 r10040"
   height="16"
   sodipodi:docname="weather-few-clouds-symbolic.svg"
   width="16">
  <metadata
     id="metadata90">
    <rdf:RDF>
      <cc:Work
         rdf:about="">
        <dc:format>image/svg+xml</dc:format>
        <dc:type
           rdf:resource="http://purl.org/dc/dcmitype/StillImage" />
        <dc:title>Gnome Symbolic Icon Theme</dc:title>
      </cc:Work>
    </rdf:RDF>
  </metadata>
  <sodipodi:namedview
     inkscape:object-paths="true"
     inkscape:cy="-26.93944"
     inkscape:current-layer="layer9"
     inkscape:window-width="1914"
     pagecolor="#ffffff"
     showborder="true"
     showguides="true"
     inkscape:snap-nodes="false"
     objecttolerance="10"
     showgrid="true"
     inkscape:object-nodes="true"
     inkscape:pageshadow="2"
     inkscape:guide-bbox="true"
     inkscape:window-x="0"
     inkscape:snap-bbox="true"
     bordercolor="#666666"
     id="namedview88"
     inkscape:window-maximized="1"
     inkscape:snap-global="false"
     inkscape:window-y="25"
     gridtolerance="10"
     inkscape:zoom="7.981856"
     inkscape:window-height="1031"
     borderopacity="1"
     guidetolerance="10"
     inkscape:snap-bbox-midpoints="false"
     inkscape:cx="26.840522"
     inkscape:bbox-paths="false"
     inkscape:snap-grids="true"
     inkscape:pageopacity="0"
     inkscape:snap-to-guides="true"
     borderlayer="true">
    <inkscape:grid
       visible="true"
       spacingx="1px"
       type="xygrid"
       spacingy="1px"
       id="grid4866"
       empspacing="2"
       enabled="true"
       snapvisiblegridlinesonly="true" />
  </sodipodi:namedview>
  <title
     id="title9167">Gnome Symbolic Icon Theme</title>
  <defs
     id="defs7386" />
  <g
     transform="translate(-121,-277)"
     inkscape:groupmode="layer"
     id="layer9"
     inkscape:label="status"
     style="display:inline">
    <rect
       style="fill:none;stroke:none"
       id="rect2393"
       width="15.801981"
       height="15.801981"
       x="121.05455"
       y="277.14346" />
    <path
       d="m 24.000001,4 c 1.882367,1e-7 3.235804,7.269216 4.974884,7.989566 1.739081,0.720351 7.836217,-3.4627358 9.167251,-2.1317012 C 39.47317,11.188899 35.290083,17.286035 36.010434,19.025116 36.730785,20.764196 44,22.117634 44,24.000001 c 0,1.882367 -7.269216,3.235804 -7.989566,4.974884 -0.720351,1.739081 3.462736,7.836217 2.131701,9.167251 -1.331034,1.331034 -7.42817,-2.852053 -9.167251,-2.131702 C 27.235804,36.730785 25.882366,44 23.999999,44 22.117632,44 20.764195,36.730784 19.025115,36.010434 17.286034,35.290083 11.188898,39.47317 9.857864,38.142135 8.5268295,36.811101 12.709917,30.713965 11.989566,28.974884 11.269215,27.235804 3.9999999,25.882366 4,23.999999 c 1e-7,-1.882367 7.269216,-3.235804 7.989566,-4.974884 C 12.709917,17.286034 8.5268302,11.188898 9.8578648,9.857864 11.188899,8.5268295 17.286035,12.709917 19.025116,11.989566 20.764196,11.269215 22.117634,3.9999999 24.000001,4 z"
       inkscape:randomized="0"
       inkscape:rounded="0.2"
       inkscape:flatsided="false"
       sodipodi:arg2="-1.1780972"
       sodipodi:arg1="-1.5707963"
       sodipodi:r2="13"
       sodipodi:r1="20"
       sodipodi:cy="24"
       sodipodi:cx="24"
       sodipodi:sides="8"
       id="path3183"
       style="fill:#ffffff;fill-opacity:1;stroke:#ffffff;stroke-width:8;stroke-linecap:round;stroke-linejoin:round;stroke-miterlimit:4;stroke-opacity:1;stroke-dasharray:none"
       sodipodi:type="star"
       transform="matrix(0.32920794,0,0,0.32920794,121.05455,277.14346)" />
    <path
       sodipodi:type="arc"
       style="fill:#000000;fill-opacity:1;stroke:none"
       id="path3175"
       sodipodi:cx="24.096386"
       sodipodi:cy="24"
       sodipodi:rx="14.096386"
       sodipodi:ry="14"
       d="M 38.192772,24 A 14.096386,14 0 1 1 10,24 14.096386,14 0 1 1 38.192772,24 z"
       transform="matrix(0.32920794,0,0,0.32920794,121.05455,277.14346)" />
    <path
       inkscape:connector-curvature="0"
       sodipodi:nodetypes="ccccs"
       id="path2387"
       d="m 126.98029,291.62861 8.55941,0 0,-6.58416 c -1.31683,-2.96287 -8.55941,-1.97525 -8.23019,1.31683 -3.66448,-1.32339 -5.26733,5.26733 -0.32922,5.26733 z"
       style="fill:#ffffff;fill-opacity:1;fill-rule:evenodd;stroke:#ffffff;stroke-width:2.63366342;stroke-linecap:round;stroke-linejoin:round;stroke-miterlimit:4;stroke-opacity:1;stroke-dasharray:none" />
    <path
       sodipodi:type="star"
       style="fill:#000000;fill-opacity:1;stroke:none"
       id="path3181"
       sodipodi:sides="8"
       sodipodi:cx="24"
       sodipodi:cy="24"
       sodipodi:r1="20"
       sodipodi:r2="13"
       sodipodi:arg1="-1.5707963"
       sodipodi:arg2="-1.1780972"
       inkscape:flatsided="false"
       inkscape:rounded="0.2"
       inkscape:randomized="0"
       d="m 24.000001,4 c 1.882367,1e-7 3.235804,7.269216 4.974884,7.989566 1.739081,0.720351 7.836217,-3.4627358 9.167251,-2.1317012 C 39.47317,11.188899 35.290083,17.286035 36.010434,19.025116 36.730785,20.764196 44,22.117634 44,24.000001 c 0,1.882367 -7.269216,3.235804 -7.989566,4.974884 -0.720351,1.739081 3.462736,7.836217 2.131701,9.167251 -1.331034,1.331034 -7.42817,-2.852053 -9.167251,-2.131702 C 27.235804,36.730785 25.882366,44 23.999999,44 22.117632,44 20.764195,36.730784 19.025115,36.010434 17.286034,35.290083 11.188898,39.47317 9.857864,38.142135 8.5268295,36.811101 12.709917,30.713965 11.989566,28.974884 11.269215,27.235804 3.9999999,25.882366 4,23.999999 c 1e-7,-1.882367 7.269216,-3.235804 7.989566,-4.974884 C 12.709917,17.286034 8.5268302,11.188898 9.8578648,9.857864 11.188899,8.5268295 17.286035,12.709917 19.025116,11.989566 20.764196,11.269215 22.117634,3.9999999 24.000001,4 z"
       transform="matrix(0.32920794,0,0,0.32920794,121.05455,277.14346)" />
    <path
       sodipodi:type="arc"
       style="fill:#ffffff;fill-opacity:1;stroke:none"
       id="path3187"
       sodipodi:cx="24"
       sodipodi:cy="24"
       sodipodi:rx="11"
       sodipodi:ry="11"
       d="m 35,24 a 11,11 0 1 1 -22,0 11,11 0 1 1 22,0 z"
       transform="matrix(0.32920794,0,0,0.32920794,121.05455,277.14346)" />
    <path
       inkscape:connector-curvature="0"
       style="fill:#000000;fill-opacity:1;fill-rule:evenodd;stroke:none"
       d="m 126.98029,291.62861 8.55941,0 0,-6.58416 c -1.31683,-2.96287 -8.55941,-1.97525 -8.23019,1.31683 -3.66448,-1.32339 -5.26733,5.26733 -0.32922,5.26733 z"
       id="path3247"
       sodipodi:nodetypes="ccccs" />
  </g>
  <g
     transform="translate(-121,-277)"
     inkscape:groupmode="layer"
     id="layer10"
     inkscape:label="devices" />
  <g
     transform="translate(-121,-277)"
     inkscape:groupmode="layer"
     id="layer11"
     inkscape:label="apps" />
  <g
     transform="translate(-121,-277)"
     inkscape:groupmode="layer"
     id="layer12"
     inkscape:label="actions" />
  <g
     transform="translate(-121,-277)"
     inkscape:groupmode="layer"
     id="layer13"
     inkscape:label="places" />
  <g
     transform="translate(-121,-277)"
     inkscape:groupmode="layer"
     id="layer14"
     inkscape:label="mimetypes" />
  <g
     transform="translate(-121,-277)"
     inkscape:groupmode="layer"
     id="layer15"
     inkscape:label="emblems"
     style="display:inline" />
  <g
     transform="translate(-121,-277)"
     inkscape:groupmode="layer"
     id="g4953"
     inkscape:label="categories"
     style="display:inline" />
</svg>
