<?xml version="1.0" encoding="UTF-8" standalone="no"?>
<!-- Created with Inkscape (http://www.inkscape.org/) -->

<svg
   xmlns:dc="http://purl.org/dc/elements/1.1/"
   xmlns:cc="http://creativecommons.org/ns#"
   xmlns:rdf="http://www.w3.org/1999/02/22-rdf-syntax-ns#"
   xmlns:svg="http://www.w3.org/2000/svg"
   xmlns="http://www.w3.org/2000/svg"
   xmlns:xlink="http://www.w3.org/1999/xlink"
   xmlns:sodipodi="http://sodipodi.sourceforge.net/DTD/sodipodi-0.dtd"
   xmlns:inkscape="http://www.inkscape.org/namespaces/inkscape"
   width="256"
   height="256"
   id="svg2"
   version="1.1"
   inkscape:version="0.48.3.1 r9886"
   sodipodi:docname="applications-accessories.svg">
  <defs
     id="defs4">
    <linearGradient
       id="linearGradient39155">
      <stop
         style="stop-color:white;stop-opacity:1;"
         offset="0"
         id="stop39157" />
      <stop
         style="stop-color:#dadada;stop-opacity:1;"
         offset="1"
         id="stop39159" />
    </linearGradient>
    <linearGradient
       inkscape:collect="always"
       xlink:href="#linearGradient39155"
       id="linearGradient3039"
       gradientUnits="userSpaceOnUse"
       x1="31.1875"
       y1="18.875"
       x2="29.875"
       y2="34.375" />
  </defs>
  <sodipodi:namedview
     id="base"
     pagecolor="#ffffff"
     bordercolor="#666666"
     borderopacity="1.0"
     inkscape:pageopacity="0.0"
     inkscape:pageshadow="2"
     inkscape:zoom="1.1394421"
     inkscape:cx="-19.297832"
     inkscape:cy="138.95166"
     inkscape:document-units="px"
     inkscape:current-layer="layer1"
     showgrid="false"
     inkscape:window-width="1918"
     inkscape:window-height="1032"
     inkscape:window-x="0"
     inkscape:window-y="25"
     inkscape:window-maximized="1" />
  <metadata
     id="metadata7">
    <rdf:RDF>
      <cc:Work
         rdf:about="">
        <dc:format>image/svg+xml</dc:format>
        <dc:type
           rdf:resource="http://purl.org/dc/dcmitype/StillImage" />
        <dc:title />
      </cc:Work>
    </rdf:RDF>
  </metadata>
  <g
     inkscape:label="Capa 1"
     inkscape:groupmode="layer"
     id="layer1"
     transform="translate(0,-796.36218)">
    <path
       style="fill:#b8db7c;fill-opacity:1;stroke:#737373;stroke-width:4;stroke-miterlimit:4;stroke-opacity:1;stroke-dasharray:none"
       d="m 22.910338,893.30497 c -11.615782,0.37305 -15.8212378,11.44151 -15.8212378,21.7066 l 0,105.45183 c 0,11.7315 9.4866478,21.17 21.2738528,21.17 l 209.743917,0 c 11.7872,0 17.91037,-21.9346 -2.28491,-32.3349 C 215.62669,998.89826 44.126951,897.15768 28.362953,893.82427 c -1.9705,-0.41667 -3.793218,-0.57259 -5.452615,-0.5193 z m 26.517236,43.14774 c 0.87468,-0.0281 1.839534,0.0563 2.878199,0.276 8.309312,1.75706 98.700187,55.3807 109.345267,60.86273 10.64507,5.48206 7.42222,17.04576 1.2091,17.04576 l -110.554367,0 c -6.213118,0 -11.223661,-4.9742 -11.223661,-11.158 l 0,-55.59255 c 0,-5.4108 2.222701,-11.23731 8.345462,-11.43394 z"
       id="rect3030"
       inkscape:connector-curvature="0"
       sodipodi:nodetypes="ssssssssscssssss" />
    <g
       transform="matrix(-0.37078219,-0.02750896,-0.05299767,0.92763232,274.43632,798.73149)"
       style="fill-rule:evenodd"
       id="_81071816-4-0-0-8-5">
      <path
         style="fill:#1f1a17;fill-rule:nonzero;stroke:#1f1a17;stroke-width:2.76821995"
         inkscape:connector-curvature="0"
         d="m 86.7305,225.68718 c -38.927502,1.81825 -71.848277,24.96779 -28.163614,35.38386 42.693664,6.06077 120.316414,5.27288 172.044464,6.88414 l 43.34371,3.06017 -189.039319,-4.06341 c -4.1716,-0.45049 -11.418591,-0.66119 -14.647965,-0.66399 -13.544945,-0.0115 -19.512826,-1.23741 -26.499286,-5.56625 -46.3888431,-18.36303 4.115142,-39.0996 58.36138,-36.31449 z"
         class="fil1 str1"
         id="_81851448-2-3-0-7-29"
         sodipodi:nodetypes="cccccsccc" />
    </g>
    <g
       style="fill-rule:evenodd;stroke:#000000;stroke-width:225.7623818;stroke-miterlimit:4;stroke-opacity:1;stroke-dasharray:none"
       id="_79162808-4-9-0-1-1-3-7-4"
       transform="matrix(-0.00500635,-0.0100281,0.01454123,-0.00614384,-8.1886335,932.06084)">
      <path
         style="fill:#1f1a17;stroke:#000000;stroke-width:225.7623818;stroke-miterlimit:4;stroke-opacity:1;stroke-dasharray:none"
         inkscape:connector-curvature="0"
         d="m -647.59078,826.47491 c -1771.74852,-709.43038 943.06671,78.52572 1508.08767,403.57539 287.29671,165.2783 628.17261,350.4771 766.03521,449.8051 760.7673,628.1907 665.7488,1285.7832 56.5743,1776.6743 -45.3233,27.7954 -225.3558,181.6028 -445.4222,227.4897 L -30.181921,4238.6852 C 139.93298,3487.299 2387.9469,2962.0049 1828.1677,1976.0856 1515.4052,1530.7405 -334.96008,759.50071 -647.59078,826.47491 z"
         class="fil2 str1"
         id="_79208600-31-6-4-8-6-2-5-8"
         sodipodi:nodetypes="cscccccc" />
    </g>
    <g
       id="layer1-3"
       inkscape:label="Capa 1"
       transform="matrix(-0.74279047,0,0,-0.74279047,236.04026,1584.485)">
      <g
         transform="matrix(1,0,0,-1,0,1845.4436)"
         id="g3023">
        <path
           inkscape:connector-curvature="0"
           d="m 145.2826,905.87071 c 25.58621,-29.78093 31.11406,-51.54676 39.77935,-49.46375 6.77409,1.62815 3.51882,6.52253 21.41957,9.97576 17.18749,3.31566 34.74836,-8.59778 38.39662,-22.9714 4.85933,-14.08816 -3.01687,-31.79573 -20.63817,-36.16707 -17.43831,-5.32829 -38.22384,3.33245 -44.42836,17.99571 -8.99057,16.76312 -13.60057,38.90236 -42.65658,57.9046 l -22.30218,14.58507 -77.180411,91.99434 c -8.62953,11.89383 -13.81104,27.71673 -2.62207,42.77973 L 145.2826,905.87071 z m 82.80014,-55.52615 c -14.86414,12.51956 -41.15969,4.88436 -41.11505,-11.82777 -1.05229,-15.37563 21.08271,-29.37881 37.53625,-20.60224 13.85384,6.15378 13.75425,23.85952 3.5788,32.43001 z"
           id="path48999-9"
           sodipodi:nodetypes="cccccczcccccccc"
           style="fill:#000000;fill-opacity:1;fill-rule:evenodd;stroke:none;stroke-width:60.82713699;marker-start:none" />
        <path
           inkscape:connector-curvature="0"
           d="m 147.50669,909.91991 c 25.58615,-29.78092 31.11407,-51.54676 39.7793,-49.46375 6.77414,1.62814 3.51887,6.52253 21.41951,9.97577 17.18758,3.31565 34.74833,-8.59779 38.39659,-22.97141 4.85943,-14.08816 -3.01675,-31.79572 -20.63817,-36.16708 -17.43828,-5.32828 -38.22369,3.33246 -44.42838,17.99572 -8.99052,16.76312 -13.60057,38.90235 -42.65648,57.90459 l -22.30217,14.58508 -77.180361,91.99433 c -8.62958,11.89384 -13.81114,27.71674 -2.62212,42.77984 L 147.50669,909.91991 z m 82.80001,-55.52615 c -14.86405,12.51955 -41.15962,4.88436 -41.11492,-11.82778 -1.05246,-15.37562 21.08265,-29.3788 37.53622,-20.60224 13.85384,6.15379 13.75426,23.85953 3.5787,32.43002 z"
           id="path48999"
           sodipodi:nodetypes="cccccczcccccccc"
           style="fill:#b8db7c;fill-opacity:1;fill-rule:evenodd;stroke:#737373;stroke-width:4.41913891;stroke-miterlimit:4;stroke-opacity:1;marker-start:none" />
        <path
           inkscape:connector-curvature="0"
           d="M 112.47617,907.72065 C 86.968289,877.89164 81.498489,856.11546 72.827499,858.18216 c -6.77799,1.61544 -3.5353,6.51585 -21.4456,9.93548 -17.1966,3.28335 -34.72546,-8.66316 -38.33607,-23.04361 -4.8217503,-14.09715 3.10111,-31.78996 20.7339,-36.12808 17.45226,-5.2955 38.21483,3.40428 44.38052,18.07927 8.94588,16.77982 13.49793,38.92783 42.503391,57.98452 l 22.2639,14.62722 76.93675,92.13929 c 8.59836,11.91005 13.73841,27.74265 2.50982,42.78465 L 112.47617,907.72065 z M 29.822829,852.03888 c 14.83148,12.54745 41.1467,4.96178 41.14614,-11.7504 1.09314,-15.37358 -21.00493,-29.41839 -37.48206,-20.67288 -13.86965,6.12776 -13.81674,23.83362 -3.66408,32.42328 z"
           id="path49000-2"
           sodipodi:nodetypes="cccccczcccccccc"
           style="fill:#000000;fill-opacity:1;fill-rule:evenodd;stroke:none;stroke-width:60.82713699;marker-start:none" />
        <path
           inkscape:connector-curvature="0"
           d="m 108.08257,910.73184 c -25.507881,-29.82902 -30.977691,-51.6052 -39.648671,-49.53852 -6.77805,1.61547 -3.53535,6.51587 -21.4456,9.93551 -17.1966,3.28334 -34.72546,-8.66317 -38.3360703,-23.04362 -4.82175,-14.09715 3.1010003,-31.78996 20.7337903,-36.12809 17.45237,-5.29549 38.21488,3.4043 44.38063,18.07929 8.94588,16.7798 13.49782,38.92783 42.503391,57.98452 l 22.2639,14.62723 76.93675,92.13929 c 8.59824,11.91005 13.7383,27.74265 2.50971,42.78465 L 108.08257,910.73184 z M 25.429109,855.05005 c 14.83154,12.54745 41.14682,4.9618 41.14626,-11.75038 1.09314,-15.37358 -21.00493,-29.41839 -37.48206,-20.67289 -13.86976,6.12777 -13.81679,23.83362 -3.6642,32.42327 z"
           id="path49000"
           sodipodi:nodetypes="cccccczcccccccc"
           style="fill:#00923f;fill-opacity:1;fill-rule:evenodd;stroke:#737373;stroke-width:4.41916323;stroke-miterlimit:4;stroke-opacity:1;stroke-dasharray:none;marker-start:none" />
        <g
           style="fill-rule:evenodd"
           id="g4651"
           transform="matrix(0.07906768,0,0,0.06675465,1172.1096,506.71666)">
          <path
             class="fil0 str0"
             d="m -13066.036,6085.9625 c 0,75.2935 -60.488,136.3365 -135.102,136.3365 -74.569,0 -135.057,-61.043 -135.057,-136.3365 -4.916,-73.6355 55.572,-134.6266 135.057,-136.264 74.614,0 135.102,60.9869 135.102,136.264 z"
             id="path4782-0-5"
             inkscape:connector-curvature="0"
             style="fill:#b8db7c;fill-opacity:1;fill-rule:nonzero;stroke:#72706f;stroke-width:1.04325426" />
          <g
             transform="matrix(0.29674745,0,0,0.29674745,-13643.991,5496.0286)"
             id="_79162808-7-1"
             style="fill-rule:evenodd">
            <path
               id="_79208600-8-1"
               class="fil2 str1"
               d="m 1174.98,1651.34 c 151.696,-168.739 458.797,-203.52 633.996,-48.7652 159.776,141.131 194.279,398.256 110.052,588.573 -31.009,70.077 -79.3992,135.265 -144.688,177.062 -45.5367,29.1563 -99.7324,38.5992 -151.819,53.1059 l -1.4871,-6.6832 c 91.9078,-46.902 167.68,-86.6402 220.45,-180.292 90.798,-161.13 68.1211,-381.408 -37.834,-530.129 -149.457,-209.774 -430.591,-162.159 -628.67,-52.8715 z"
               inkscape:connector-curvature="0"
               style="fill:#1f1a17;stroke:#1f1a17;stroke-width:2.34375" />
          </g>
          <path
             class="fil3"
             d="m -13295.321,5986.0596 c 19.172,-24.6497 94.297,-39.3446 121.706,-35.4329 126.955,18.1199 141.45,233.8483 10.88,262.9295"
             id="path4788-1-1"
             inkscape:connector-curvature="0"
             style="fill:none" />
        </g>
      </g>
    </g>
  </g>
</svg>
