<?xml version="1.0" encoding="UTF-8" standalone="no"?>
<!-- Created with Inkscape (http://www.inkscape.org/) -->

<svg
   xmlns:dc="http://purl.org/dc/elements/1.1/"
   xmlns:cc="http://creativecommons.org/ns#"
   xmlns:rdf="http://www.w3.org/1999/02/22-rdf-syntax-ns#"
   xmlns:svg="http://www.w3.org/2000/svg"
   xmlns="http://www.w3.org/2000/svg"
   xmlns:sodipodi="http://sodipodi.sourceforge.net/DTD/sodipodi-0.dtd"
   xmlns:inkscape="http://www.inkscape.org/namespaces/inkscape"
   width="256"
   height="256"
   id="svg2"
   version="1.1"
   inkscape:version="0.48.3.1 r9886"
   sodipodi:docname="applications-drawing.svg">
  <defs
     id="defs4" />
  <sodipodi:namedview
     id="base"
     pagecolor="#ffffff"
     bordercolor="#666666"
     borderopacity="1.0"
     inkscape:pageopacity="0.0"
     inkscape:pageshadow="2"
     inkscape:zoom="1.0291439"
     inkscape:cx="275.50308"
     inkscape:cy="37.529831"
     inkscape:document-units="px"
     inkscape:current-layer="layer1"
     showgrid="false"
     inkscape:window-width="1438"
     inkscape:window-height="827"
     inkscape:window-x="0"
     inkscape:window-y="25"
     inkscape:window-maximized="1" />
  <metadata
     id="metadata7">
    <rdf:RDF>
      <cc:Work
         rdf:about="">
        <dc:format>image/svg+xml</dc:format>
        <dc:type
           rdf:resource="http://purl.org/dc/dcmitype/StillImage" />
        <dc:title />
      </cc:Work>
    </rdf:RDF>
  </metadata>
  <g
     inkscape:label="Capa 1"
     inkscape:groupmode="layer"
     id="layer1"
     transform="translate(0,-796.36218)">
    <g
       style="fill-rule:evenodd"
       id="g11708"
       transform="matrix(0.06104282,0,0,0.06104282,1598.0557,265.019)">
      <g
         transform="translate(14.195832,134.86039)"
         style="stroke:#737373;stroke-width:30;stroke-miterlimit:4;stroke-opacity:1;stroke-dasharray:none"
         id="g11453">
        <path
           inkscape:connector-curvature="0"
           style="fill:#b8db7c;fill-opacity:1;stroke:#737373;stroke-width:30;stroke-miterlimit:4;stroke-opacity:1;stroke-dasharray:none"
           d="m -25226.085,9060.4062 c -26.859,-0.018 -51.59,11 -72.313,37.375 -59.751,76.0461 154.794,374.2893 219.438,433.2188 47.617,-88.8909 181.937,-184.0312 181.937,-184.0312 0,0 -192.212,-286.4723 -329.062,-286.5626 z m 2233.5,11.4376 c -93.392,1.4447 -293.688,233.5937 -293.688,233.5937 0,0 92.848,46.5427 163.281,171.125 101.029,-34.1871 273.257,-264.2868 161.25,-392 -7.91,-9.0204 -18.446,-12.9105 -30.843,-12.7187 z m -1070.344,13.75 c -26.709,0.095 -54.018,0.8025 -81.937,2.1874 -1021.049,50.6433 -1126.941,1092.2018 -1136.594,1331.5628 -9.655,239.352 -168.03,761.793 -115.188,806.844 52.841,45.051 67.35,6.76 109.469,-35.563 38.675,-38.856 110.136,-573.007 96.406,-660.875 13.917,73.591 95.968,355.249 543.125,397.25 306.161,28.753 457.943,-329.555 524.125,-387.156 66.188,-57.609 152.649,-37.066 204.907,20.5 52.251,57.567 55.831,322.502 442.343,352.562 310.362,24.128 458.594,-352.468 458.594,-352.468 0,0 161.708,455.468 219.187,515.968 81.584,85.861 154.674,13.239 125.282,-85.562 -38.937,-130.881 -300.296,-325.097 -273.594,-724.625 25.972,-388.6118 -166.047,-1184.0245 -1116.125,-1180.6252 z m 1676.937,588.25 c -74.841,0.3004 -161.268,30.4361 -256.656,95.625 -259.37,177.2531 -303.957,323.7632 -289.875,508.1252 l 20.813,47.312 c 118.454,-321.105 314.337,-510.036 468.406,-328.8748 147.837,173.8228 -264.451,364.1138 -444.094,403.9688 l -20.156,62.031 c 214.326,53.732 857.812,-159.092 810.938,-461.312 -29.298,-188.8861 -121.851,-309.7301 -258,-325.1878 -10.211,-1.1589 -20.684,-1.7304 -31.376,-1.6874 z m -3430.156,19.7812 c -5.234,0.028 -10.404,0.1997 -15.531,0.5312 -136.742,8.846 -235.061,125.068 -273.469,312.3128 -61.45,299.588 570.974,543.343 787.656,500.062 l -17.124,-62.937 c -177.505,-48.509 -580.116,-258.565 -424.032,-425.032 162.666,-173.4782 349.172,24.725 451.938,351.188 l 23.094,-46.25 c 22.995,-183.46 -14.452,-331.9524 -264.938,-521.5625 -98.695,-74.7112 -189.084,-108.7249 -267.594,-108.3125 z m 982.532,294.625 c -99.102,78.343 -155.756,210.51 -137.157,350.438 27.186,204.591 204.926,348.255 396.969,320.874 192.051,-27.382 325.694,-215.441 298.5,-420.031 l -1.156,-8.062 c -10.925,-71.018 -39.985,-134.311 -81.344,-185.25 76.283,67.883 130.794,163.627 148.062,275.093 l 1.626,9.688 c 33.164,248.023 -130.86,476.202 -366.344,509.562 -235.484,33.359 -453.368,-140.569 -486.532,-388.593 -26.137,-195.436 70.162,-378.532 227.376,-463.719 z m 1543.843,71.656 c 83.8,61.431 144.531,155.942 162.188,268.313 l 1.25,8.75 c 30.259,223.394 -121.067,429.209 -338.188,459.562 -217.12,30.352 -417.686,-126.074 -447.937,-349.469 -18.636,-137.579 31.625,-268.476 123.687,-355.843 -44.813,58.828 -66.77,132.52 -55.75,208.906 23.211,160.881 183.835,272.682 358.781,249.687 174.947,-22.994 297.961,-172.056 274.75,-332.937 l -1,-6.375 c -9.839,-58.376 -37.77,-109.925 -77.781,-150.594 z m -391.593,1054.594 c -96.339,0 -188.047,135.24 -393.969,149.5 -112.64,7.8 -268.758,-107.081 -386.094,-139.219 -117.337,-32.138 -175.414,74.115 -251.437,147.063 -76.032,72.948 368.791,-49.022 225.218,193.437 -117.974,199.225 -226.441,-239.304 -301.687,-19.656 -72.77,212.451 5.554,298.792 54.969,370.469 144.164,209.119 368.526,208.2 706.718,169.094 337.905,-39.067 591.255,-89.282 704.906,-354.376 26.159,-61.027 30.542,-222.515 -77.562,-294.874 -135.766,-90.877 -195.363,284.844 -303.406,135.093 -132.565,-183.747 208.641,-112.535 217.281,-208.343 10.814,-119.993 -60.027,-114.07 -167.531,-144.376 -9.238,-2.604 -18.349,-3.812 -27.406,-3.812 z m 189.218,768.906 c -1.971,0.108 -4.198,0.649 -6.687,1.625 -310.695,121.907 -745.608,193.11 -973.875,136.531 -228.257,-56.577 -34.593,290.469 416.656,274.907 437.147,-15.066 625.021,-416.409 563.906,-413.063 z"
           id="path5150" />
      </g>
      <g
         transform="matrix(-0.42945028,0.52640997,-0.5439923,-0.41557005,-21792.713,10455.247)"
         id="_79162808-4-6"
         style="fill-rule:evenodd">
        <path
           sodipodi:nodetypes="cscccccccc"
           id="_79208600-31-68"
           class="fil2 str1"
           d="m 1174.98,1651.34 c 151.696,-168.739 458.797,-203.52 633.996,-48.7652 159.776,141.131 194.279,398.256 110.052,588.573 -31.009,70.077 -79.3992,135.265 -144.688,177.062 -45.5367,29.1563 -99.7324,38.5992 -151.819,53.1059 l -1.4871,-6.6832 c 91.9078,-46.902 167.68,-86.6402 220.45,-180.292 90.798,-161.13 50.8506,-311.9641 -55.1045,-460.6851 -149.457,-209.774 -413.3205,-231.6029 -611.3995,-122.3154 z"
           inkscape:connector-curvature="0"
           style="fill:#1f1a17;stroke:#1f1a17;stroke-width:2.34375" />
      </g>
      <g
         transform="matrix(-0.48774299,0.52640997,-0.61783271,-0.41557005,-22664.176,10507.162)"
         id="_79162808-4-6-2"
         style="fill-rule:evenodd">
        <path
           id="_79208600-31-68-2"
           class="fil2 str1"
           d="m 1174.98,1651.34 c 151.696,-168.739 458.797,-203.52 633.996,-48.7652 159.776,141.131 194.279,398.256 110.052,588.573 -31.009,70.077 -79.3992,135.265 -144.688,177.062 -45.5367,29.1563 -99.7324,38.5992 -151.819,53.1059 l -1.4871,-6.6832 c 91.9078,-46.902 167.68,-86.6402 220.45,-180.292 90.798,-161.13 68.1211,-381.408 -37.834,-530.129 -149.457,-209.774 -430.591,-162.159 -628.67,-52.8715 z"
           inkscape:connector-curvature="0"
           style="fill:#1f1a17;stroke:#1f1a17;stroke-width:2.34375" />
      </g>
      <g
         transform="matrix(-0.48798887,-1.2869536,-1.5234172,-0.15640083,-19920.321,12056.093)"
         id="_79162808-4-6-2-3"
         style="fill-rule:evenodd">
        <path
           sodipodi:nodetypes="ccccccc"
           id="_79208600-31-68-2-5"
           class="fil2 str1"
           d="m 1163.6141,1609.2263 c 189.1944,-109.135 547.5543,-100.6557 645.2966,13.2627 246.7283,208.8418 169.2663,705.9952 -18.3495,908.1239 l -8.0831,-10.5383 c 246.6347,-374.0027 119.0477,-627.7877 16.2344,-775.4093 C 1645.7338,1563.87 1345.6686,1534.9117 1160.6607,1614.151 z"
           inkscape:connector-curvature="0"
           style="fill:#1f1a17;stroke:#1f1a17;stroke-width:2.34375" />
      </g>
      <g
         transform="matrix(-0.48774299,0.41018497,-0.61783271,-0.32381718,-22091.27,11200.729)"
         id="_79162808-4-6-2-8"
         style="fill-rule:evenodd">
        <path
           sodipodi:nodetypes="ccscsccc"
           id="_79208600-31-68-2-7"
           class="fil2 str1"
           d="m 1278.1179,1467.4131 c 52.3257,168.7623 466.4042,52.1681 628.1144,184.1799 37.2654,27.4741 88.9594,86.7389 87.1901,133.5107 -11.6932,309.1126 -30.5855,434.1576 -54.6499,527.2673 -38.1543,-145.1501 -16.7116,-225.1233 -53.9735,-462.9326 -6.4394,-41.0968 -12.0053,-95.4117 -49.6518,-105.3287 -186.6546,-164.2177 -298.4182,-38.4615 -552.3909,-200.7716 z"
           inkscape:connector-curvature="0"
           style="fill:#1f1a17;stroke:#1f1a17;stroke-width:2.34375" />
      </g>
      <g
         transform="matrix(-0.33085033,-0.59335745,0.58694259,-0.35231305,-26463.493,11733.187)"
         id="_79162808-4-6-3"
         style="fill-rule:evenodd">
        <path
           sodipodi:nodetypes="cscccccccc"
           id="_79208600-31-68-5"
           class="fil2 str1"
           d="m 1174.98,1651.34 c 151.696,-168.739 458.797,-203.52 633.996,-48.7652 159.776,141.131 194.279,398.256 110.052,588.573 -31.009,70.077 -79.3992,135.265 -144.688,177.062 -45.5367,29.1563 -99.7324,38.5992 -151.819,53.1059 l -1.4871,-6.6832 c 91.9078,-46.902 167.68,-86.6402 220.45,-180.292 90.8845,-160.3021 71.0179,-353.6745 -66.598,-481.6854 -149.457,-209.774 -401.827,-210.6026 -599.906,-101.3151 z"
           inkscape:connector-curvature="0"
           style="fill:#1f1a17;stroke:#1f1a17;stroke-width:2.34375" />
      </g>
      <g
         transform="matrix(0.67930073,0.00924801,0.01255357,0.68444759,-23436.437,8756.7453)"
         id="_79162808-4-6-3-9"
         style="fill-rule:evenodd">
        <path
           sodipodi:nodetypes="cscccccccc"
           id="_79208600-31-68-5-5"
           class="fil2 str1"
           d="m 1174.98,1651.34 c 151.696,-168.739 458.797,-203.52 633.996,-48.7652 159.776,141.131 194.279,398.256 110.052,588.573 -31.009,70.077 -79.3992,135.265 -144.688,177.062 -45.5367,29.1563 -99.7324,38.5992 -151.819,53.1059 l -1.4871,-6.6832 c 91.9078,-46.902 167.68,-86.6402 220.45,-180.292 90.798,-161.13 23.4167,-380.804 -82.5384,-529.525 -149.457,-209.774 -385.8866,-162.763 -583.9656,-53.4755 z"
           inkscape:connector-curvature="0"
           style="fill:#1f1a17;stroke:#1f1a17;stroke-width:2.34375" />
      </g>
      <g
         transform="matrix(0.58395429,0.40395243,0.73317668,-0.32658322,-26416.568,12257.824)"
         id="_79162808-4-6-2-3-2"
         style="fill-rule:evenodd">
        <path
           sodipodi:nodetypes="ccccccc"
           id="_79208600-31-68-2-5-9"
           class="fil2 str1"
           d="m 1163.6141,1609.2263 c 189.1944,-109.135 547.5543,-100.6557 645.2966,13.2627 246.7283,208.8418 169.2663,705.9952 -18.3495,908.1239 l -8.0831,-10.5383 c 246.6347,-374.0027 78.5954,-611.1608 -24.2179,-758.7824 -152.9787,-180.7953 -412.5916,-226.3805 -597.5995,-147.1412 z"
           inkscape:connector-curvature="0"
           style="fill:#1f1a17;stroke:#1f1a17;stroke-width:2.34375" />
      </g>
      <g
         transform="matrix(-0.63321067,0.46105913,-0.8020992,-0.36397937,-22155.403,10819.231)"
         id="_79162808-4-6-2-0"
         style="fill-rule:evenodd">
        <path
           sodipodi:nodetypes="cscccscc"
           id="_79208600-31-68-2-8"
           class="fil2 str1"
           d="m 1073.0393,1621.6398 c 169.5077,-55.6737 560.7377,-173.8198 735.9367,-19.065 159.776,141.131 154.2429,383.2491 70.0159,573.5661 -41.8269,98.7615 -139.8371,211.615 -209.8127,250.7164 82.6478,-96.8117 169.4269,-243.7398 200.551,-299.5667 35.9101,-147.462 18.3394,-114.4288 -27.0274,-310.9808 -61.7789,-267.6575 -392.9348,-292.4391 -635.5522,-211.5544 z"
           inkscape:connector-curvature="0"
           style="fill:#1f1a17;stroke:#1f1a17;stroke-width:2.34375" />
      </g>
      <g
         transform="matrix(0.55834432,0.46105913,0.70726467,-0.36397937,-25657.215,10807.683)"
         id="_79162808-4-6-2-0-6"
         style="fill-rule:evenodd">
        <path
           sodipodi:nodetypes="cscccscc"
           id="_79208600-31-68-2-8-0"
           class="fil2 str1"
           d="m 1073.0393,1621.6398 c 169.5077,-55.6737 560.7377,-173.8198 735.9367,-19.065 159.776,141.131 154.2429,383.2491 70.0159,573.5661 -41.8269,98.7615 -139.8371,211.615 -209.8127,250.7164 82.6478,-96.8117 169.4269,-243.7398 200.551,-299.5667 50.3225,-158.8398 66.1437,-303.571 -39.8114,-452.292 -149.457,-209.774 -380.1508,-151.1279 -622.7682,-70.2432 z"
           inkscape:connector-curvature="0"
           style="fill:#1f1a17;stroke:#1f1a17;stroke-width:2.34375" />
      </g>
      <g
         transform="matrix(0.31330576,-0.30865749,0.15417761,0.22439954,-23837.73,9407.5673)"
         id="_79162808-4-6-3-9-2"
         style="fill-rule:evenodd">
        <path
           sodipodi:nodetypes="cscccccccc"
           id="_79208600-31-68-5-5-5"
           class="fil2 str1"
           d="m 1133.7551,1532.8818 c 179.7326,-68.4211 490.2816,-29.4784 675.2209,69.693 181.367,97.2558 220.904,344.1512 110.052,588.573 -31.009,70.077 -79.3992,135.265 -144.688,177.062 -45.5367,29.1563 -99.7324,38.5992 -151.819,53.1059 l -1.4871,-6.6832 c 91.9078,-46.902 167.68,-86.6402 220.45,-180.292 187.9304,-311.708 -57.7322,-528.0894 -37.834,-530.129 -149.457,-209.774 -428.5275,-143.8821 -669.8949,-171.3297 z"
           inkscape:connector-curvature="0"
           style="fill:#1f1a17;stroke:#1f1a17;stroke-width:2.34375" />
      </g>
      <g
         transform="matrix(-0.24511925,-0.3651664,0.24912384,-0.10983262,-25262.191,10136.803)"
         id="_79162808-4-6-3-9-2-0"
         style="fill-rule:evenodd">
        <path
           sodipodi:nodetypes="cscccccccc"
           id="_79208600-31-68-5-5-5-0"
           class="fil2 str1"
           d="m 1133.7551,1532.8818 c 179.7326,-68.4211 490.2816,-29.4784 675.2209,69.693 181.367,97.2558 220.904,344.1512 110.052,588.573 -31.009,70.077 -79.3992,135.265 -144.688,177.062 -45.5367,29.1563 -99.7324,38.5992 -151.819,53.1059 l -1.4871,-6.6832 c 91.9078,-46.902 167.68,-86.6402 220.45,-180.292 51.5485,-264.5104 -52.8522,-469.7567 -130.2729,-499.2143 -149.457,-209.774 -336.0886,-174.7968 -577.456,-202.2444 z"
           inkscape:connector-curvature="0"
           style="fill:#1f1a17;stroke:#1f1a17;stroke-width:2.34375" />
      </g>
    </g>
    <g
       style="fill-rule:evenodd"
       id="g11355"
       transform="matrix(0.08969875,0,0,0.08969875,1743.1581,256.21271)">
      <rect
         transform="matrix(-0.63367302,0.773601,-0.77594757,-0.63079741,0,0)"
         class="fil0 str0"
         x="15596.287"
         y="8824.1729"
         width="2022.8688"
         height="174.59529"
         rx="206.40337"
         ry="0"
         id="rect11194-1-9-4-0-3-4"
         style="fill:#00923f;fill-opacity:1;fill-rule:evenodd;stroke:#72706f;stroke-width:29.20458984" />
      <g
         id="_81071816-4-0-1-1-1-1"
         style="fill-rule:evenodd"
         transform="matrix(-6.1155449,7.4659824,-4.7845472,-3.889541,-15305.717,7034.1303)">
        <path
           sodipodi:nodetypes="ccccccscccc"
           id="_81851448-2-3-5-3-8-0"
           class="fil1 str1"
           d="m 67.504541,234.14527 c -10.787269,0.4087 -15.971381,-0.9565 -17.777641,3.11417 -1.563725,10.00963 0.174441,21.83736 8.548473,23.61075 50.943437,1.20416 101.024587,-0.006 152.736577,1.61472 l -0.13967,-0.56411 -131.72055,1.86904 c -4.1716,-0.45049 -8.052946,0.0392 -11.28232,0.0364 -13.544945,-0.0115 -19.060839,2.01145 -20.872965,-3.20321 -3.022259,-11.18618 -3.73704,-22.86538 2.74336,-27.92838 3.489669,-2.46187 22.170705,0.89124 30.772387,1.35516 z"
           inkscape:connector-curvature="0"
           style="fill:#1f1a17;fill-rule:nonzero;stroke:#1f1a17;stroke-width:2.76821995" />
      </g>
      <path
         inkscape:connector-curvature="0"
         id="path4789-2-5"
         d="m -18041.683,8121.5896 -156.43,-124.3344"
         style="fill:none;stroke:#000000;stroke-width:1.5839169px;stroke-linecap:butt;stroke-linejoin:miter;stroke-opacity:1" />
      <path
         sodipodi:nodetypes="ccc"
         inkscape:connector-curvature="0"
         id="path4791-9-8"
         d="m -18025.328,8114.0447 -285.324,180.2461 122.862,-309.5789"
         style="fill:#00923f;fill-opacity:1;fill-rule:evenodd;stroke:#737373;stroke-width:31.67834091;stroke-linecap:butt;stroke-linejoin:miter;stroke-miterlimit:4;stroke-opacity:1;stroke-dasharray:none" />
      <path
         sodipodi:nodetypes="cssssccscssscccsccc"
         inkscape:connector-curvature="0"
         id="path4793-3-4"
         d="m -18329.7,8324.6007 c -1.109,-0.3876 0.969,-8.8278 5.826,-23.8005 4.857,-14.9728 12.494,-36.4786 22.386,-62.9636 9.889,-26.4862 22.036,-57.9492 35.786,-92.8009 13.751,-34.8509 29.105,-73.0894 45.296,-113.0881 8.814,-21.7693 17.42,-42.9427 25.688,-63.2664 l 0,0 c 26.186,20.7324 50.666,40.284 72.52,58.0265 21.854,17.7427 41.083,33.6782 56.872,47.1492 15.791,13.4731 28.143,24.48 36.353,32.3337 8.208,7.8525 12.274,12.5508 11.594,13.3772 -0.679,0.8263 -6.039,-2.292 -15.119,-8.7785 -9.078,-6.4843 -25.316,-20.1875 -40.976,-32.8 -45.989,-31.2791 -75.686,-46.5939 -113.036,-75.6619 -24.546,55.4521 -43.3,94.3198 -63.548,147.5688 -12.972,34.0903 -32.074,66.9389 -42.4,92.6102 -10.326,25.6706 -19.052,46.3795 -25.504,60.5826 -6.453,14.2019 -10.629,21.8991 -11.738,21.5115 z"
         style="fill:#000000;fill-rule:evenodd;stroke:none" />
      <path
         inkscape:connector-curvature="0"
         id="path4800-3-6"
         d="m -18327.598,8327.5247 41.222,-141.1795"
         style="fill:none;stroke:#000000;stroke-width:1.5839169px;stroke-linecap:butt;stroke-linejoin:miter;stroke-opacity:1" />
      <path
         inkscape:connector-curvature="0"
         id="path4808-8-7"
         d="m -18228.244,8263.7323 -59.968,-56.1791 -51.582,119.6075 z"
         style="fill:#000000;fill-rule:evenodd;stroke:#000000;stroke-width:1.5839169px;stroke-linecap:butt;stroke-linejoin:miter;stroke-opacity:1" />
    </g>
  </g>
</svg>
