<?xml version="1.0" encoding="UTF-8" standalone="no"?>
<!-- Created with Inkscape (http://www.inkscape.org/) -->

<svg
   xmlns:dc="http://purl.org/dc/elements/1.1/"
   xmlns:cc="http://creativecommons.org/ns#"
   xmlns:rdf="http://www.w3.org/1999/02/22-rdf-syntax-ns#"
   xmlns:svg="http://www.w3.org/2000/svg"
   xmlns="http://www.w3.org/2000/svg"
   xmlns:sodipodi="http://sodipodi.sourceforge.net/DTD/sodipodi-0.dtd"
   xmlns:inkscape="http://www.inkscape.org/namespaces/inkscape"
   width="256"
   height="256"
   id="svg5274"
   version="1.1"
   inkscape:version="0.48.3.1 r9886"
   sodipodi:docname="applications-haskell.svg">
  <defs
     id="defs5276" />
  <sodipodi:namedview
     id="base"
     pagecolor="#ffffff"
     bordercolor="#666666"
     borderopacity="1.0"
     inkscape:pageopacity="0.0"
     inkscape:pageshadow="2"
     inkscape:zoom="0.75382345"
     inkscape:cx="175.69164"
     inkscape:cy="-15.792507"
     inkscape:document-units="px"
     inkscape:current-layer="layer1"
     showgrid="false"
     inkscape:window-width="1438"
     inkscape:window-height="827"
     inkscape:window-x="0"
     inkscape:window-y="25"
     inkscape:window-maximized="1" />
  <metadata
     id="metadata5279">
    <rdf:RDF>
      <cc:Work
         rdf:about="">
        <dc:format>image/svg+xml</dc:format>
        <dc:type
           rdf:resource="http://purl.org/dc/dcmitype/StillImage" />
        <dc:title />
      </cc:Work>
    </rdf:RDF>
  </metadata>
  <g
     inkscape:label="Capa 1"
     inkscape:groupmode="layer"
     id="layer1"
     transform="translate(0,-796.36218)">
    <g
       transform="matrix(0.1628866,0,0,0.1628866,6880.9709,-742.20478)"
       style="fill-rule:evenodd"
       id="g5725">
      <rect
         style="fill:#b8db7c;fill-rule:evenodd;stroke:#72706f;stroke-width:43.16974258"
         y="-42199.277"
         x="-10768.915"
         class="fil3 str0"
         transform="matrix(-0.00430507,-0.99999073,0.99998792,-0.00491528,0,0)"
         width="1462.0826"
         height="1407.7778"
         rx="232.07611"
         ry="343.16165"
         id="rect7046-0-2-9" />
      <path
         sodipodi:nodetypes="cccccccccc"
         d="m -41647.352,9508.9849 391.882,-20.512 c 174.166,3.87 434.079,-2.041 489.015,143.647 18.613,49.371 28.307,100.213 29.358,151.207 l -12.176,504.3791 -4.58,0.06 c -56.613,-200.406 -40.584,-450.3441 -178.688,-601.1501 -73.802,-79.097 -265.633,-136.606 -374.318,-159.742 l -340.493,-17.887 z"
         class="fil1 str1"
         id="_80379776-7-7-5"
         inkscape:connector-curvature="0"
         style="fill:#1f1a17;fill-rule:evenodd;stroke:#1f1a17;stroke-width:17.35302544" />
      <path
         style="fill:none"
         inkscape:connector-curvature="0"
         class="fil2"
         d="m -41647.351,9508.9949 c 121.752,-20.162 667.543,-9.877 758.928,35.771 84.732,42.321 120.95,129.077 123.794,238.91 l 13.067,504.0621"
         id="path7050-7-1-0" />
      <path
         d="m -42156.069,10328.082 c 9.805,180.879 -26.023,397.679 125.295,557.332 40.063,42.28 123.159,59.829 191.395,64.096 l 313.575,7.234 217.685,15.111 0,2.839 -428.358,6.014 c -107.889,0.914 -226.35,8.331 -311.304,-47.69 -88.988,-58.68 -117.598,-143.468 -129.818,-225.003 -19.256,-128.561 4.331,-252.117 21.528,-379.933 z"
         class="fil1 str1"
         id="_80692792-8-7-7"
         inkscape:connector-curvature="0"
         style="fill:#1f1a17;fill-rule:evenodd;stroke:#1f1a17;stroke-width:17.35302544" />
      <path
         style="fill:none"
         inkscape:connector-curvature="0"
         class="fil2"
         d="m -42156.07,10328.088 c 0,88.718 -15.751,193.803 -8.685,282.277 22.059,276.234 130.107,373.939 426.151,354.852 57.046,-3.673 365.256,8.06 430.485,8.06"
         id="path7054-6-7-2" />
      <path
         inkscape:connector-curvature="0"
         id="path4552"
         d="m -41773.101,9610.4702 c -41.134,-0.067 -68.593,6.375 -68.593,6.375 l 26.781,126.75 c 0,0 69.578,-12.3438 130.812,13.8125 -7.622,-2.9899 8.373,7.7101 20.781,27 14.534,22.593 33.064,55.9934 53.407,95.9063 26.341,51.6827 55.997,114.4997 87,181.906 l -314.781,709.969 118.468,52.5 268.063,-604.594 c 42.691,94.512 85.385,188.998 124.25,269.562 44.999,93.283 79.528,163.854 119.531,209.188 60.814,68.92 122.746,101.872 171.562,114.969 48.818,13.097 91,5 91,5 l -29.124,-126.25 c 0,0 -4.094,2.614 -28.282,-3.875 -24.187,-6.489 -61.973,-23.401 -108,-75.563 -13.417,-15.206 -56.275,-89.109 -100,-179.75 -43.725,-90.64 -93.65,-202.049 -143.094,-311.375 -49.442,-109.325 -98.326,-216.4669 -141.156,-300.4996 -21.415,-42.0162 -41.199,-78.1545 -59.875,-107.1874 -18.676,-29.033 -27.254,-51.8522 -68.125,-71.25 -54.687,-25.9592 -109.49,-32.527 -150.625,-32.5938 z"
         style="font-size:medium;font-style:normal;font-variant:normal;font-weight:normal;font-stretch:normal;text-indent:0;text-align:start;text-decoration:none;line-height:normal;letter-spacing:normal;word-spacing:normal;text-transform:none;direction:ltr;block-progression:tb;writing-mode:lr-tb;text-anchor:start;baseline-shift:baseline;color:#000000;fill:#00923f;fill-opacity:1;stroke:#737373;stroke-width:30;stroke-miterlimit:4;stroke-opacity:1;stroke-dasharray:none;marker:none;visibility:visible;display:inline;overflow:visible;enable-background:accumulate;font-family:Sans;-inkscape-font-specification:Sans" />
      <path
         sodipodi:nodetypes="cccccccccccscccccccccccccccccc"
         inkscape:connector-curvature="0"
         id="path5331-4-0-0-5"
         d="m -41823.179,9673.3908 c -3.219,114.1284 92.954,30.5169 139.266,66.158 44.552,30.6351 203.652,377.8952 136.982,287.0462 0,0 -17.572,-15.602 -28.889,-39.429 -1.033,-11.1196 -12.34,-26.3863 -19.823,-42.9253 -7.484,-16.5381 -15.769,-35.1433 -24.684,-55.2955 -7.837,-17.71 -16.122,-36.6311 -24.948,-56.3165 -2.827,-6.3009 -5.698,-12.6806 -8.71,-19.0806 -1.028,-2.1663 -2.059,-4.3352 -3.126,-6.4927 l 0,0 c -0.717,-1.4192 -1.425,-2.8215 -2.209,-4.1662 l 0,-0.01 c 0,-0.01 0,-0.025 -0.02,-0.034 l 0,0 c -0.03,-0.06 -0.06,-0.1178 -0.09,-0.1763 l 0,0 c -0.09,-0.1823 -0.174,-0.3645 -0.269,-0.5445 l 0,0 0,0 c -0.357,-0.6824 -0.704,-1.3704 -1.062,-2.0553 -1.006,-1.9417 -2.019,-3.8894 -3.049,-5.8356 -0.277,-0.5154 -0.544,-1.0339 -0.829,-1.5437 -4.127,-7.7322 -8.36,-15.293 -12.753,-22.6342 -41.629,-26.0685 -84.514,-20.2167 -105.576,-15.4263 -11.439,2.5479 -22.373,4.0229 -31.991,4.0767 -27.251,3.0244 -29.311,-15.3037 -35.557,-36.2025 -55.73,-187.0675 46.295,-129.1813 133.305,-126.262 22.741,6.1534 126.155,48.6344 95.183,46.6199 -32.381,-9.5742 -185.529,-47.4747 -209.293,-24.9391 z"
         style="fill:#000000;fill-rule:evenodd;stroke:none" />
      <path
         sodipodi:nodetypes="cccccccccccccccccsccccccccc"
         inkscape:connector-curvature="0"
         id="path5715"
         d="m -40942.359,10822.806 c -0.876,0.192 -17.676,-5.047 -22.097,-37.444 -15.092,-107.806 14.593,-73.01 -48.046,-97.465 -5.142,-1.887 -10.12,-4.341 -14.861,-7.131 l 0,0 c -133.884,-60.744 -157.502,-203.671 -200.782,-305.425 -5.509,-12.549 -11.938,-24.311 -16.487,-36.9 -0.681,-1.902 -0.928,-2.938 -0.714,-3.047 l 0,0 0,0 c 10e-4,0 10e-4,0 10e-4,0 0,0 0,0 0,0 l 0,0 -37.234,-77.959 c 0.217,-0.104 35.796,65.884 36.891,67.579 7.1,11.639 16.557,35.447 22.127,45.662 12.073,22.152 28.672,55.321 48.931,91.682 8.59,15.416 17.819,31.831 27.714,48.937 9.895,17.107 20.456,34.904 31.756,53.058 7.004,11.25 14.277,22.627 21.974,33.938 2.175,3.194 4.364,6.356 6.57,9.48 7.984,11.292 16.042,22.102 24.906,31.64 21.842,21.57 59.067,38.208 81.322,37.28 6.855,-1.542 6.357,-1.387 16.817,-5.191 6.784,32.883 17.89,88.644 28.348,111.952 5.172,24.922 5.421,48.504 4.545,48.696 z"
         style="fill:#000000;stroke:none" />
      <path
         sodipodi:nodetypes="ccsscccccscccccscccc"
         inkscape:connector-curvature="0"
         id="path5720"
         d="m -41450.56,10233.768 c 0.633,0.274 -3.296,10.988 -10.997,30.145 -7.701,19.156 -19.175,46.756 -33.589,80.785 -14.414,34.03 -27.911,68.704 -47.326,113.564 -19.415,44.861 -44.747,99.908 -67.359,151.524 -33.017,75.365 -54.247,151.161 -85.853,205.7 -23.272,52.448 -75.917,-7.989 -106.677,-23.794 -23.556,-12.101 -39.52,-20.213 -46.133,-23.574 l 0,0 c 2.804,-0.428 4.176,-0.202 4.176,0.04 0,0.239 -1.367,0.465 -3.86,0.04 l 0,0 c 6.873,3.382 22.929,-2.221 46.163,9.074 42.02,11.645 79.005,49.732 93.174,17.151 24.882,-56.287 53.652,-113.857 86.346,-190.146 22.03,-51.403 45.022,-102.239 64.305,-146.681 19.283,-44.442 32.928,-78.634 47.79,-112.165 14.862,-33.53 36.726,-64.47 45.402,-83.107 8.676,-18.636 13.805,-28.824 14.438,-28.55 z"
         style="fill:#000000;stroke:none" />
    </g>
  </g>
</svg>
