<?xml version="1.0" encoding="UTF-8" standalone="no"?>
<!-- Created with Inkscape (http://www.inkscape.org/) -->

<svg
   xmlns:dc="http://purl.org/dc/elements/1.1/"
   xmlns:cc="http://creativecommons.org/ns#"
   xmlns:rdf="http://www.w3.org/1999/02/22-rdf-syntax-ns#"
   xmlns:svg="http://www.w3.org/2000/svg"
   xmlns="http://www.w3.org/2000/svg"
   xmlns:sodipodi="http://sodipodi.sourceforge.net/DTD/sodipodi-0.dtd"
   xmlns:inkscape="http://www.inkscape.org/namespaces/inkscape"
   width="256"
   height="256"
   id="svg5274"
   version="1.1"
   inkscape:version="0.48.3.1 r9886"
   sodipodi:docname="applications-ocaml.svg">
  <defs
     id="defs5276" />
  <sodipodi:namedview
     id="base"
     pagecolor="#ffffff"
     bordercolor="#666666"
     borderopacity="1.0"
     inkscape:pageopacity="0.0"
     inkscape:pageshadow="2"
     inkscape:zoom="0.68937651"
     inkscape:cx="278.95887"
     inkscape:cy="-27.895887"
     inkscape:document-units="px"
     inkscape:current-layer="layer1"
     showgrid="false"
     inkscape:window-width="1438"
     inkscape:window-height="827"
     inkscape:window-x="0"
     inkscape:window-y="25"
     inkscape:window-maximized="1" />
  <metadata
     id="metadata5279">
    <rdf:RDF>
      <cc:Work
         rdf:about="">
        <dc:format>image/svg+xml</dc:format>
        <dc:type
           rdf:resource="http://purl.org/dc/dcmitype/StillImage" />
        <dc:title />
      </cc:Work>
    </rdf:RDF>
  </metadata>
  <g
     inkscape:label="Capa 1"
     inkscape:groupmode="layer"
     id="layer1"
     transform="translate(0,-796.36218)">
    <rect
       id="rect7046-0-2-9-1-0-8-9-1-3"
       ry="52.160976"
       rx="35.275845"
       height="213.98389"
       width="222.23827"
       transform="matrix(-0.00430507,-0.99999073,0.99998792,-0.00491528,0,0)"
       class="fil3 str0"
       x="-1039.2877"
       y="17.01293"
       style="fill:#b8db7c;fill-rule:evenodd;stroke:#72706f;stroke-width:6.5618515" />
    <path
       style="fill:#1f1a17;fill-rule:evenodd;stroke:#1f1a17;stroke-width:2.63768029"
       inkscape:connector-curvature="0"
       id="_80379776-7-7-5-7-9-6-26-7-4"
       class="fil1 str1"
       d="m 98.255572,816.17056 59.566648,-3.11783 c 26.47344,0.58821 65.98053,-0.31029 74.33079,21.83446 2.82928,7.5045 4.30269,15.23249 4.46247,22.98368 l -1.8507,76.66619 -0.69625,0.008 c -8.60513,-30.46172 -6.16877,-68.45255 -27.16075,-91.37532 -11.218,-12.02287 -40.37654,-20.76422 -56.89679,-24.28095 l -51.755418,-2.71881 z"
       sodipodi:nodetypes="cccccccccc" />
    <path
       id="path7050-7-1-0-9-3-8-09-4-1"
       d="m 98.255812,816.17202 c 18.506438,-3.06461 101.467268,-1.50124 115.357928,5.43725 12.8795,6.43279 18.3845,19.61977 18.81697,36.31458 l 1.98619,76.61797"
       class="fil2"
       inkscape:connector-curvature="0"
       style="fill:none" />
    <path
       id="path7054-6-7-2-3-9-0-5-8-3"
       d="m 20.929874,940.6752 c 0,13.48529 -2.394126,29.45822 -1.320099,42.9064 3.353036,41.9879 19.776616,56.8392 64.775526,53.9378 8.671042,-0.5583 55.519319,1.2253 65.434179,1.2253"
       class="fil2"
       inkscape:connector-curvature="0"
       style="fill:none" />
    <rect
       id="rect7046-0-2-9-5-1-9-7-6-0"
       ry="52.160976"
       rx="35.275845"
       height="213.98389"
       width="222.23827"
       transform="matrix(-0.00430507,-0.99999073,0.99998792,-0.00491528,0,0)"
       class="fil3 str0"
       x="-1039.2877"
       y="17.01293"
       style="fill:#b8db7c;fill-rule:evenodd;stroke:#72706f;stroke-width:6.5618515" />
    <path
       style="fill:#1f1a17;fill-rule:evenodd;stroke:#1f1a17;stroke-width:2.63768029"
       inkscape:connector-curvature="0"
       id="_80379776-7-7-5-5-8-0-2-2-8"
       class="fil1 str1"
       d="m 98.255572,816.17056 59.566648,-3.11783 c 26.47344,0.58821 65.98053,-0.31029 74.33079,21.83446 2.82928,7.5045 4.30269,15.23249 4.46247,22.98368 l -1.8507,76.66619 -0.69625,0.008 c -8.60513,-30.46172 -6.16877,-68.45255 -27.16075,-91.37532 -11.218,-12.02287 -40.37654,-20.76422 -56.89679,-24.28095 l -51.755418,-2.71881 z"
       sodipodi:nodetypes="cccccccccc" />
    <path
       id="path7050-7-1-0-8-5-2-2-0-9"
       d="m 98.255812,816.17202 c 18.506438,-3.06461 101.467268,-1.50124 115.357928,5.43725 12.8795,6.43279 18.3845,19.61977 18.81697,36.31458 l 1.98619,76.61797"
       class="fil2"
       inkscape:connector-curvature="0"
       style="fill:none" />
    <path
       style="fill:#1f1a17;fill-rule:evenodd;stroke:#1f1a17;stroke-width:2.63768029"
       inkscape:connector-curvature="0"
       id="_80692792-8-7-7-6-1-3-6-3-39"
       class="fil1 str1"
       d="m 20.929998,940.67435 c 1.490369,27.49374 -3.955423,60.44755 19.045093,84.71495 6.089551,6.4266 18.720298,9.0941 29.09227,9.7426 l 47.663769,1.0997 33.08835,2.2968 0,0.4316 -65.110964,0.9141 c -16.399158,0.139 -34.405506,1.2663 -47.318574,-7.2489 -13.52618,-8.9195 -17.875009,-21.8074 -19.732428,-34.20076 -2.926925,-19.54137 0.658278,-38.32196 3.27236,-57.75009 z" />
    <path
       style="fill:#00923f;fill-opacity:1;fill-rule:evenodd;stroke:#737373;stroke-width:3.28586745px;stroke-linecap:butt;stroke-linejoin:miter;stroke-opacity:1;display:inline"
       d="m 67.155746,844.07383 c 0,0 -9.065664,0.78851 -16.708583,6.3482 -1.83679,1.33743 3.844474,1.08439 0.959409,4.84671 -2.881635,3.75903 -9.784862,13.12168 -9.784862,13.12168 l 1.407011,4.56084 16.441393,-2.81402 c 0,0 10.35709,19.71522 13.031708,30.4075 2.674743,10.69227 -0.450044,45.84113 6.68351,53.46427 9.69002,10.36039 14.369017,23.72728 14.369017,23.72728 l 2.004389,41.09961 2.004494,0.6704 2.00439,-53.79959 c 0,0 18.985638,52.29449 23.047028,52.41949 2.03062,0.066 -3.51258,-14.1685 -4.49177,-27.43707 -0.97931,-13.26825 -1.98473,-24.7162 0.82807,-23.98029 19.15643,5.01101 29.06994,-3.34169 33.74907,-7.35363 2.33956,-2.00437 14.32642,13.70208 16.45567,29.24094 2.13255,15.53875 -5.59593,30.91015 -2.5893,30.91015 3.00663,0 10.0252,-32.75021 10.0252,-32.75021 l -7.18617,-31.40977 c 0,0 19.02509,14.3954 21.38773,26.39873 2.36251,12.00335 -11.36252,37.76125 -11.36252,37.76125 l 8.02069,0 9.35484,-40.76776 -7.68551,-21.3877 -1.00226,-31.07458 12.69995,18.37805 -15.37139,-30.07573 c 0,0 -8.56949,-48.943 -20.38546,-48.78529 -11.8128,0.16429 -17.74039,31.66594 -26.39531,32.74694 -8.65519,1.08121 -11.55978,-36.79183 -24.72954,-36.42369 -13.16964,0.37131 -22.156581,44.27044 -24.059166,39.09843 -7.209107,-19.59036 -22.721728,-57.14115 -22.721728,-57.14115 z"
       id="path5243"
       inkscape:connector-curvature="0"
       sodipodi:nodetypes="csscccssccccsssccccczccccccczzzsc" />
    <path
       sodipodi:nodetypes="cccccscc"
       id="_81851448-2-3-0-8-1-7-3-6-6-1"
       class="fil1 str1"
       d="m 189.00701,941.07801 c 0.56124,-1.52724 -0.92267,-11.67072 -2.26242,-21.99571 -5.38135,-30.05119 -15.6967,-46.93848 -18.3098,-49.26022 -8.89894,-6.12861 -14.78171,5.82188 -17.839,10.00543 0.44381,-3.83092 7.01271,-15.63554 12.77953,-16.06092 5.05813,-1.28959 8.30083,2.68902 11.89702,9.37302 11.74689,21.83287 20.42721,67.31832 13.79753,84.7882 -0.7137,-5.27075 -0.17442,-13.66264 -0.0629,-16.8498 z"
       inkscape:connector-curvature="0"
       style="fill:#000000;fill-opacity:1;fill-rule:nonzero;stroke:none" />
    <g
       style="fill-rule:evenodd"
       id="_79162808-4-6-3-9-2-0-8-6"
       transform="matrix(-0.00915052,-0.02430047,-0.02280068,0.00880925,172.90178,892.04031)">
      <path
         style="fill:#1f1a17;stroke:#1f1a17;stroke-width:2.34375"
         inkscape:connector-curvature="0"
         d="m 1133.7551,1532.8818 c 179.7326,-68.4211 490.2816,-29.4784 675.2209,69.693 181.367,97.2558 234.5651,329.2228 123.7131,573.6446 -185.937,270.3278 -312.3727,446.7055 -426.0892,482.6282 91.9078,-46.902 246.878,-334.7405 299.648,-428.3923 288.2992,-583.1852 -285.0447,-655.9466 -672.4929,-697.5735 z"
         class="fil2 str1"
         id="_79208600-31-68-5-5-5-0-9-1"
         sodipodi:nodetypes="csccccc" />
    </g>
    <g
       style="fill-rule:evenodd"
       id="_79162808-4-6-2-8-2-9-2"
       transform="matrix(0.03443862,0.02188702,0.03816804,-0.0231542,1.5050411,968.91267)">
      <path
         style="fill:#1f1a17;stroke:#1f1a17;stroke-width:2.4709549"
         inkscape:connector-curvature="0"
         d="m 1473.6548,1654.3078 c 321.8086,-129.5349 455.7877,-56.8629 499.8085,163.7435 48.0088,282.6544 -56.2126,386.2822 -75.9685,483.4646 78.2792,-821.9026 -397.8342,-576.0632 -423.84,-647.2081 z"
         class="fil2 str1"
         id="_79208600-31-68-2-7-1-9-4"
         sodipodi:nodetypes="cccc" />
    </g>
    <g
       style="fill-rule:evenodd"
       id="_79162808-4-6-2-8-2-9-2-3"
       transform="matrix(-0.00253744,0.0202561,0.02894143,-0.00330894,-2.36347,840.6573)">
      <path
         style="fill:#1f1a17;stroke:#1f1a17;stroke-width:2.4709549"
         inkscape:connector-curvature="0"
         d="m 1473.6548,1654.3078 c 321.8086,-129.5349 455.7877,-56.8629 499.8085,163.7435 48.0088,282.6544 -56.2126,386.2822 -75.9685,483.4646 78.2792,-821.9026 -397.8342,-576.0632 -423.84,-647.2081 z"
         class="fil2 str1"
         id="_79208600-31-68-2-7-1-9-4-1"
         sodipodi:nodetypes="cccc" />
    </g>
    <path
       style="fill:#000000;fill-rule:evenodd;stroke:none"
       d="m 67.279281,888.45217 c 7.888252,11.45259 5.904378,38.23423 8.983522,62.21918 -6.897116,-7.3712 -1.292154,-52.09096 -8.983522,-62.21918 z"
       id="path19349"
       inkscape:connector-curvature="0"
       sodipodi:nodetypes="ccc" />
    <g
       style="fill-rule:evenodd"
       id="_79162808-4-6-2-8-2-9-2-3-8"
       transform="matrix(0.01349623,0.00233121,-0.00239784,-0.02890628,101.9958,1066.0788)">
      <path
         style="fill:#1f1a17;stroke:#1f1a17;stroke-width:2.4709549"
         inkscape:connector-curvature="0"
         d="m 1497.5638,1922.2652 c 195.6682,-305.976 275.568,-270.919 475.8995,-104.2139 48.0088,282.6544 -56.2126,386.2822 -75.9685,483.4646 -29.8793,-897.1326 -373.9252,-308.1058 -399.931,-379.2507 z"
         class="fil2 str1"
         id="_79208600-31-68-2-7-1-9-4-1-5"
         sodipodi:nodetypes="cccc" />
    </g>
    <g
       style="fill-rule:evenodd"
       id="_79162808-4-6-2-8-2-9-2-3-8-7"
       transform="matrix(0.02210369,0.01190836,0.0108022,-0.02767434,125.31441,1047.4785)">
      <path
         style="fill:#1f1a17;stroke:#1f1a17;stroke-width:2.4709549"
         inkscape:connector-curvature="0"
         d="m 1561.6324,2023.5257 c 22.1501,-391.6475 -226.2573,-525.4506 411.8309,-205.4744 48.0088,282.6544 -56.2126,386.2822 -75.9685,483.4646 68.4024,-456.0247 -160.0317,-586.0432 -255.0007,-521.4237 -66.6934,45.38 -79.6841,184.4862 -80.8617,243.4335 z"
         class="fil2 str1"
         id="_79208600-31-68-2-7-1-9-4-1-5-9"
         sodipodi:nodetypes="cccsc" />
    </g>
    <g
       style="fill-rule:evenodd"
       id="_79162808-4-6-2-8-2-9-2-3-8-72"
       transform="matrix(0.0112273,0.00784413,0.01010993,-0.02718661,128.2212,1053.6426)">
      <path
         style="fill:#1f1a17;stroke:#1f1a17;stroke-width:2.4709549"
         inkscape:connector-curvature="0"
         d="m 1528.3973,1956.7003 c 52.5977,-330.2301 336.8254,-270.2703 445.066,-138.649 48.0088,282.6544 4.0237,319.3884 -15.7322,416.5708 -29.8793,-897.1326 -403.328,-206.7769 -429.3338,-277.9218 z"
         class="fil2 str1"
         id="_79208600-31-68-2-7-1-9-4-1-5-6"
         sodipodi:nodetypes="cccc" />
    </g>
    <g
       style="fill-rule:evenodd"
       id="_79162808-4-6-2-8-2-9-2-3-8-7-8"
       transform="matrix(-0.02210369,0.01190836,-0.0108022,-0.02767434,156.03023,1047.9935)">
      <path
         style="fill:#1f1a17;stroke:#1f1a17;stroke-width:2.4709549"
         inkscape:connector-curvature="0"
         d="m 1563.5299,2041.068 c 166.2629,-279.4579 -27.2783,-439.8293 383.9796,-234.1847 -158.3669,319.2938 -116.1284,251.7825 -217.7655,430.8118 273.2988,-468.212 63.0035,-506.7962 -31.9655,-442.1767 -66.6934,45.38 3.2583,36.1927 -134.2486,245.5496 z"
         class="fil2 str1"
         id="_79208600-31-68-2-7-1-9-4-1-5-9-3"
         sodipodi:nodetypes="cccsc" />
    </g>
  </g>
</svg>
