<?xml version="1.0" encoding="UTF-8" standalone="no"?>
<!-- Created with Inkscape (http://www.inkscape.org/) -->

<svg
   xmlns:dc="http://purl.org/dc/elements/1.1/"
   xmlns:cc="http://creativecommons.org/ns#"
   xmlns:rdf="http://www.w3.org/1999/02/22-rdf-syntax-ns#"
   xmlns:svg="http://www.w3.org/2000/svg"
   xmlns="http://www.w3.org/2000/svg"
   xmlns:sodipodi="http://sodipodi.sourceforge.net/DTD/sodipodi-0.dtd"
   xmlns:inkscape="http://www.inkscape.org/namespaces/inkscape"
   width="256"
   height="256"
   id="svg4631"
   version="1.1"
   inkscape:version="0.48.3.1 r9886"
   sodipodi:docname="applications-engineering.svg">
  <defs
     id="defs4633" />
  <sodipodi:namedview
     id="base"
     pagecolor="#ffffff"
     bordercolor="#666666"
     borderopacity="1.0"
     inkscape:pageopacity="0.0"
     inkscape:pageshadow="2"
     inkscape:zoom="1.0527411"
     inkscape:cx="225.57019"
     inkscape:cy="140.19814"
     inkscape:document-units="px"
     inkscape:current-layer="layer1"
     showgrid="false"
     inkscape:window-width="1438"
     inkscape:window-height="827"
     inkscape:window-x="0"
     inkscape:window-y="25"
     inkscape:window-maximized="1"
     showguides="true"
     inkscape:guide-bbox="true" />
  <metadata
     id="metadata4636">
    <rdf:RDF>
      <cc:Work
         rdf:about="">
        <dc:format>image/svg+xml</dc:format>
        <dc:type
           rdf:resource="http://purl.org/dc/dcmitype/StillImage" />
        <dc:title />
      </cc:Work>
    </rdf:RDF>
  </metadata>
  <g
     inkscape:label="Capa 1"
     inkscape:groupmode="layer"
     id="layer1"
     transform="translate(0,-796.36218)">
    <g
       transform="matrix(0.08708439,0,0,0.08708439,363.45719,480.40163)"
       style="fill-rule:evenodd"
       id="g13084">
      <g
         transform="matrix(2.0713054,0,0,2.0713054,3367.5009,-10302.388)"
         id="g13068">
        <path
           inkscape:connector-curvature="0"
           style="fill:#b8db7c;fill-opacity:1;stroke:#737373;stroke-width:16.20173645;stroke-miterlimit:4;stroke-opacity:1;stroke-dasharray:none"
           d="m -3239.9062,7059.7188 0,135.9374 c -28.2733,6.9378 -55.0499,17.6093 -79.8126,31.5 l -115.375,-100.0312 -107.5937,124.1562 L -3438,7342 c -16.0426,26.7228 -28.3111,55.9825 -36.0312,87.0312 l -145.9063,0 0,164.25 148.3437,0 c 6.8564,24.4072 16.563,47.6093 28.6876,69.2813 l -118.3438,102.5625 107.5938,124.125 123.0312,-106.625 -5.9688,-6.875 c 24.027,15.4905 50.2598,27.8737 78.125,36.5312 l 0,144.375 162.8126,0 0,-137.2187 c 26.1596,-5.6332 51.1148,-14.4646 74.4687,-26.0625 l 121.2813,105.0625 106.625,-123.0313 -104.3126,-90.4374 c 15.5056,-23.049 28.1119,-48.2266 37.25,-75 l 0,1.8437 162.8126,0 0,-164.2813 -151.1563,0 c -7.1786,-38.5424 -21.2481,-74.6469 -40.9063,-107 l 114.875,-99.5312 -106.625,-123.0625 -124.1562,107.5937 4.2812,4.9376 c -23.5354,-13.8546 -48.9839,-24.7738 -75.875,-32.2813 l 0,-138.4687 -162.8124,0 z m 71.9062,302.25 c 82.3825,0 149.1875,66.8049 149.1875,149.1874 0,82.3826 -66.805,149.1563 -149.1875,149.1563 -82.3826,0 -149.1562,-66.7737 -149.1562,-149.1563 0,-82.3825 66.7736,-149.1874 149.1562,-149.1874 z"
           id="rect12843" />
        <path
           style="fill:#000000;stroke:none"
           d="m -3323.4883,7226.9457 c -0.2959,-0.7586 11.0347,-13.3175 23.3936,-18.6649 12.3589,-5.3474 30.7626,-10.0949 52.3786,-18.433 -0.7672,-33.6035 -5.6015,-76.5082 -5.9949,-121.4902 1.205,-15.8484 12.9898,-22.6578 23.1249,-20.7946 77.3365,0.3258 138.7875,4.232 155.4472,5.2335 l 0,0 c 0.5978,-0.4053 1.1149,-1.4097 0.9964,0.9982 l 0,0 c -14.1424,0.9079 -51.1369,7.6422 -124.6625,8.4773 -42.129,2.6567 -36.1878,8.8196 -35.7937,38.1004 4.8496,44.8737 4.241,63.8228 4.4853,96.7807 -29.0924,9.675 -57.7651,12.5644 -70.9863,17.1937 -13.2212,4.6293 -22.0927,13.3575 -22.3886,12.5989 z"
           id="path13037"
           inkscape:connector-curvature="0"
           sodipodi:nodetypes="ssccccccccccss" />
        <path
           sodipodi:nodetypes="ssccccccccccss"
           inkscape:connector-curvature="0"
           id="path13044"
           d="m -3339.3702,7777.88 c -0.2959,0.7586 11.0347,13.3175 23.3936,18.6649 12.3589,5.3474 30.7626,10.0949 52.3786,18.433 -0.7672,33.6035 -5.6015,76.5082 -5.9949,121.4902 1.205,15.8484 12.9898,22.6578 23.1249,20.7946 77.3365,-0.3258 138.7875,-4.232 155.4472,-5.2335 l 0,0 c 0.5978,0.4053 1.1149,1.4097 0.9964,-0.9982 l 0,0 c -14.1424,-0.9079 -51.1369,-7.6422 -124.6625,-8.4773 -42.129,-2.6567 -36.1878,-8.8196 -35.7937,-38.1004 4.8496,-44.8737 4.241,-63.8228 4.4853,-96.7807 -29.0924,-9.675 -57.7651,-12.5644 -70.9863,-17.1937 -13.2212,-4.6293 -22.0927,-13.3575 -22.3886,-12.5989 z"
           style="fill:#000000;stroke:none" />
        <path
           style="fill:#000000;stroke:none"
           d="m -3442.8553,7356.6069 c -0.7495,-0.318 -13.6363,10.6383 -19.3448,22.8346 -5.7086,12.1962 -10.9953,30.4523 -19.9656,51.8138 -33.5664,-1.7552 -76.3103,-7.8493 -121.2613,-9.5655 -15.877,0.7383 -23.0301,12.3178 -21.4658,22.5033 -1.9489,77.3126 0.1483,138.8519 0.6594,155.5339 l 0,0 c -0.4227,0.5856 -1.4419,1.0729 0.9684,1.0253 l 0,0 c 1.3235,-14.1096 9.1429,-50.89 12.1402,-124.3593 3.8946,-42.0326 9.8801,-35.9127 39.1366,-34.6576 44.7117,6.1673 63.6705,6.1163 96.6069,7.3298 10.5265,-28.7953 14.2579,-57.3706 19.2741,-70.4499 5.0161,-13.0793 14.0015,-21.6903 13.2519,-22.0084 z"
           id="path13046"
           inkscape:connector-curvature="0"
           sodipodi:nodetypes="ssccccccccccss" />
        <path
           sodipodi:nodetypes="ssccccccccccss"
           inkscape:connector-curvature="0"
           id="path13048"
           d="m -2879.2102,7368.5184 c 0.7495,-0.318 13.6363,10.6383 19.3448,22.8346 5.7086,12.1962 10.9953,30.4523 19.9656,51.8138 33.5664,-1.7552 76.3103,-7.8493 121.2613,-9.5655 15.877,0.7383 23.0301,12.3178 21.4658,22.5033 1.9489,77.3126 -0.1483,138.8519 -0.6594,155.5339 l 0,0 c 0.4227,0.5856 1.4419,1.0729 -0.9684,1.0253 l 0,0 c -1.3235,-14.1096 -9.1429,-50.89 -12.1402,-124.3593 -3.8946,-42.0326 -9.8801,-35.9127 -39.1366,-34.6576 -44.7117,6.1673 -63.6705,6.1163 -96.6069,7.3298 -10.5265,-28.7953 -14.2579,-57.3706 -19.2741,-70.4499 -5.0161,-13.0793 -14.0015,-21.6903 -13.2519,-22.0084 z"
           style="fill:#000000;stroke:none" />
        <g
           id="g13050"
           transform="matrix(0.31021114,0,0,0.32611194,-3622.3637,6859.264)">
          <path
             id="path13052"
             class="fil2 str1"
             d="m 1174.98,1651.34 c 151.696,-168.739 458.797,-203.52 633.996,-48.7652 159.776,141.131 194.279,398.256 110.052,588.573 -31.009,70.077 -79.3992,135.265 -144.688,177.062 -45.5367,29.1563 -99.7324,38.5992 -151.819,53.1059 l -1.4871,-6.6832 c 91.9078,-46.902 167.68,-86.6402 220.45,-180.292 90.798,-161.13 68.1211,-381.408 -37.834,-530.129 -149.457,-209.774 -430.591,-162.159 -628.67,-52.8715 z"
             inkscape:connector-curvature="0"
             style="fill:#1f1a17;stroke:#1f1a17;stroke-width:2.34375" />
        </g>
        <path
           id="path13054"
           d="m -2639.6478,6993.972 37.0244,67.5568 c -12.1613,11.1485 -22.5619,23.7449 -31.085,37.3926 l -84.5827,-18.2886 -19.6552,91.0066 76.735,16.5714 c -0.6943,17.6498 1.1778,35.5325 5.7977,53.0655 l -72.511,39.7395 44.7358,81.6273 73.7223,-40.4034 c 10.055,10.2622 21.1983,19.1492 33.1265,26.6172 l -30.879,83.203 87.278,32.3818 32.102,-86.4987 -4.8388,-1.7909 c 16.1598,1.1542 32.5694,0.1634 48.7756,-3.1235 l 39.3224,71.7499 80.913,-44.3442 -37.3734,-68.1935 c 11.4662,-9.9245 21.4629,-21.1103 29.9102,-33.2349 l 88.8884,19.1803 19.4801,-90.1836 -76.472,-16.5337 c 1.4281,-15.6778 0.8356,-31.6238 -1.9152,-47.4182 l 0.5021,0.9163 80.9131,-44.3443 -44.7443,-81.6429 -75.1202,41.1695 c -14.0651,-17.1992 -30.8907,-31.3101 -49.472,-42.0344 l 29.9806,-80.7517 -86.5071,-32.1176 -32.3972,87.2865 3.4724,1.2878 c -15.4699,-0.4752 -31.091,1.0296 -46.4999,4.6227 l -37.7138,-68.8148 -80.9128,44.3442 z m 118.0571,130.6245 c 40.9417,-22.438 92.3369,-7.4333 114.775,33.5084 22.438,40.9416 7.4246,92.3214 -33.5171,114.7594 -40.9416,22.438 -92.3128,7.4403 -114.7508,-33.5014 -22.438,-40.9417 -7.4488,-92.3284 33.4929,-114.7664 z"
           style="fill:#00923f;fill-opacity:1;stroke:#737373;stroke-width:9.18169498;stroke-miterlimit:4;stroke-opacity:1;stroke-dasharray:none"
           inkscape:connector-curvature="0" />
        <path
           sodipodi:nodetypes="ssccccccccccss"
           inkscape:connector-curvature="0"
           id="path13056"
           d="m -2635.639,7099.8435 c -0.3537,-0.2964 1.8567,-9.6239 6.5423,-15.6475 4.6855,-6.0236 12.5386,-13.3955 21.01,-23.4267 -9.5336,-16.4909 -23.6218,-36.4966 -36.0688,-58.7442 -3.7176,-8.2043 0.2844,-14.7982 5.8287,-16.6326 38.5227,-20.9017 70.1259,-35.6975 78.678,-39.7373 l 0,0 c 0.1867,-0.3642 0.1701,-1.0042 0.7671,0.2247 l 0,0 c -6.7811,4.3031 -23.3321,17.7258 -59.6446,38.1666 -20.2133,12.7946 -15.5822,14.2392 -7.4113,28.6836 14.6322,20.98 19.4907,30.5628 28.5886,46.8754 -11.8229,12.7319 -25.2854,21.9773 -30.5951,27.8789 -5.3097,5.9015 -7.3412,12.6555 -7.6949,12.3591 z"
           style="fill:#000000;stroke:none" />
        <path
           style="fill:#000000;stroke:none"
           d="m -2493.4774,7377.9668 c 0.059,0.4576 9.1111,3.6129 16.7095,2.9044 7.5984,-0.7087 18.0376,-3.3618 31.051,-5.1055 8.7712,16.9089 18.0543,39.5479 30.1103,62.0097 4.9154,7.5481 12.6267,7.7223 17.1561,4.0359 38.3451,-21.2255 67.8205,-39.9038 75.8272,-44.939 l 0,0 c 0.4073,0.039 0.938,0.397 0.2232,-0.7674 l 0,0 c -7.2755,3.4007 -27.4949,10.1299 -64.2623,29.7405 -21.6605,10.1541 -20.3864,5.4732 -28.1656,-9.1858 -9.8119,-23.6217 -15.2754,-32.8731 -24.1305,-49.3188 -17.0932,3.1156 -32.1296,9.4891 -39.961,10.7894 -7.8314,1.3003 -14.6175,-0.621 -14.5579,-0.1634 z"
           id="path13058"
           inkscape:connector-curvature="0"
           sodipodi:nodetypes="ssccccccccccss" />
        <path
           sodipodi:nodetypes="ssccccccccccss"
           inkscape:connector-curvature="0"
           id="path13060"
           d="m -2659.6458,7196.7924 c -0.4591,0.046 -3.8794,9.0009 -3.3945,16.6169 0.4848,7.616 2.8298,18.1286 4.1899,31.1878 -17.1595,8.27 -40.0618,16.8832 -62.8685,28.2734 -7.6893,4.6912 -8.0903,12.3942 -4.5387,17.03 20.0885,38.9527 37.8918,68.9647 42.6894,77.116 l 0,0 c -0.051,0.4061 -0.4244,0.9259 0.7605,0.2458 l 0,0 c -3.1852,-7.3725 -9.3169,-27.781 -27.8376,-65.1094 -9.5127,-21.9496 -4.8712,-20.5385 10.0103,-27.8831 23.9,-9.1128 33.3081,-14.302 50.007,-22.6695 -2.6114,-17.1774 -8.5399,-32.3949 -9.6094,-40.2611 -1.0694,-7.8662 1.0507,-14.5929 0.5916,-14.5468 z"
           style="fill:#000000;stroke:none" />
        <path
           style="fill:#000000;stroke:none"
           d="m -2376.287,7049.1956 c 0.2858,-0.3622 9.6743,1.5729 15.8331,6.0793 6.1588,4.5064 13.7584,12.1392 24.0345,20.312 16.2034,-10.0145 35.786,-24.685 57.6578,-37.7809 8.0915,-3.9574 14.8002,-0.151 16.797,5.337 22.0257,37.8911 37.7445,69.0455 42.0341,77.4752 l 0,0 c 0.3695,0.1758 1.0088,0.1405 -0.2021,0.7733 l 0,0 c -4.5006,-6.6516 -18.4042,-22.8007 -39.9041,-58.4963 -13.3838,-19.8281 -14.6915,-15.1565 -28.8893,-6.5644 -20.5406,15.2428 -29.9764,20.3811 -46.0143,29.9549 -13.0742,-11.4434 -22.7114,-24.6281 -28.7667,-29.7619 -6.0551,-5.1339 -12.8659,-6.966 -12.58,-7.3282 z"
           id="path13062"
           inkscape:connector-curvature="0"
           sodipodi:nodetypes="ssccccccccccss" />
        <g
           transform="matrix(0.15416555,-0.08449022,0.08882102,0.16206777,-2884.3142,6998.5196)"
           id="g13064">
          <path
             style="fill:#1f1a17;stroke:#1f1a17;stroke-width:2.34375"
             inkscape:connector-curvature="0"
             d="m 1174.98,1651.34 c 151.696,-168.739 458.797,-203.52 633.996,-48.7652 159.776,141.131 194.279,398.256 110.052,588.573 -31.009,70.077 -79.3992,135.265 -144.688,177.062 -45.5367,29.1563 -99.7324,38.5992 -151.819,53.1059 l -1.4871,-6.6832 c 91.9078,-46.902 167.68,-86.6402 220.45,-180.292 90.798,-161.13 68.1211,-381.408 -37.834,-530.129 -149.457,-209.774 -430.591,-162.159 -628.67,-52.8715 z"
             class="fil2 str1"
             id="path13066" />
        </g>
      </g>
    </g>
  </g>
</svg>
