<?xml version="1.0" encoding="UTF-8" standalone="no"?>
<!-- Created with Inkscape (http://www.inkscape.org/) -->

<svg
   xmlns:dc="http://purl.org/dc/elements/1.1/"
   xmlns:cc="http://creativecommons.org/ns#"
   xmlns:rdf="http://www.w3.org/1999/02/22-rdf-syntax-ns#"
   xmlns:svg="http://www.w3.org/2000/svg"
   xmlns="http://www.w3.org/2000/svg"
   xmlns:sodipodi="http://sodipodi.sourceforge.net/DTD/sodipodi-0.dtd"
   xmlns:inkscape="http://www.inkscape.org/namespaces/inkscape"
   width="256"
   height="256"
   id="svg2"
   version="1.1"
   inkscape:version="0.48.3.1 r9886"
   sodipodi:docname="applications-boardgames.svg">
  <defs
     id="defs4" />
  <sodipodi:namedview
     id="base"
     pagecolor="#ffffff"
     bordercolor="#666666"
     borderopacity="1.0"
     inkscape:pageopacity="0.0"
     inkscape:pageshadow="2"
     inkscape:zoom="0.74570478"
     inkscape:cx="389.48547"
     inkscape:cy="0"
     inkscape:document-units="px"
     inkscape:current-layer="layer1"
     showgrid="false"
     inkscape:window-width="1438"
     inkscape:window-height="827"
     inkscape:window-x="0"
     inkscape:window-y="25"
     inkscape:window-maximized="1" />
  <metadata
     id="metadata7">
    <rdf:RDF>
      <cc:Work
         rdf:about="">
        <dc:format>image/svg+xml</dc:format>
        <dc:type
           rdf:resource="http://purl.org/dc/dcmitype/StillImage" />
        <dc:title />
      </cc:Work>
    </rdf:RDF>
  </metadata>
  <g
     inkscape:label="Capa 1"
     inkscape:groupmode="layer"
     id="layer1"
     transform="translate(0,-796.36218)">
    <g
       style="fill-rule:evenodd"
       id="g6100"
       transform="matrix(0.05406596,0.01815647,-0.01815647,0.05406596,1326.3273,882.64036)"
       inkscape:transform-center-x="77.687447"
       inkscape:transform-center-y="-62.674069">
      <rect
         style="fill:#b8db7c;fill-rule:evenodd;stroke:#72706f;stroke-width:67.91538239"
         y="6065.1084"
         x="-21669.666"
         class="fil3 str0"
         transform="matrix(0.99999063,-0.00432847,0.004823,0.99998837,0,0)"
         width="2264.3796"
         height="2224.1887"
         rx="340.06418"
         ry="398.90723"
         id="rect7046-4-7-2" />
      <path
         inkscape:transform-center-y="392.85785"
         inkscape:transform-center-x="36.207196"
         transform="matrix(-1.8004575,-1.7083186,1.7083186,-1.8004575,-68722.101,-12957.245)"
         d="m -19600.568,7133.7954 a 83.90654,83.90654 0 1 1 -167.813,0 83.90654,83.90654 0 1 1 167.813,0 z"
         sodipodi:ry="83.90654"
         sodipodi:rx="83.90654"
         sodipodi:cy="7133.7954"
         sodipodi:cx="-19684.475"
         id="path5579-2-2"
         style="fill:#00923f;fill-opacity:1;fill-rule:evenodd;stroke:#737373;stroke-width:24.68448067;stroke-linecap:round;stroke-linejoin:bevel;stroke-miterlimit:4;stroke-opacity:1;stroke-dasharray:none"
         sodipodi:type="arc" />
      <path
         inkscape:transform-center-y="-62.919544"
         inkscape:transform-center-x="-396.24608"
         transform="matrix(-1.8004575,-1.7083186,1.7083186,-1.8004575,-68106.873,-13527.257)"
         d="m -19600.568,7133.7954 a 83.90654,83.90654 0 1 1 -167.813,0 83.90654,83.90654 0 1 1 167.813,0 z"
         sodipodi:ry="83.90654"
         sodipodi:rx="83.90654"
         sodipodi:cy="7133.7954"
         sodipodi:cx="-19684.475"
         id="path5579-3-0-4"
         style="fill:#00923f;fill-opacity:1;fill-rule:evenodd;stroke:#737373;stroke-width:24.68448067;stroke-linecap:round;stroke-linejoin:bevel;stroke-miterlimit:4;stroke-opacity:1;stroke-dasharray:none"
         sodipodi:type="arc" />
      <path
         inkscape:transform-center-y="-495.0404"
         inkscape:transform-center-x="-806.25383"
         transform="matrix(-1.8004575,-1.7083186,1.7083186,-1.8004575,-67532.852,-14104.628)"
         d="m -19600.568,7133.7954 a 83.90654,83.90654 0 1 1 -167.813,0 83.90654,83.90654 0 1 1 167.813,0 z"
         sodipodi:ry="83.90654"
         sodipodi:rx="83.90654"
         sodipodi:cy="7133.7954"
         sodipodi:cx="-19684.475"
         id="path5579-3-8-2-5"
         style="fill:#00923f;fill-opacity:1;fill-rule:evenodd;stroke:#737373;stroke-width:24.68448067;stroke-linecap:round;stroke-linejoin:bevel;stroke-miterlimit:4;stroke-opacity:1;stroke-dasharray:none"
         sodipodi:type="arc" />
      <g
         transform="matrix(0.49448315,0,0,0.52633561,-20631.934,5635.4377)"
         id="_79162808-4-9"
         style="fill-rule:evenodd">
        <path
           sodipodi:nodetypes="cscccccccc"
           id="_79208600-31-6"
           class="fil2 str1"
           d="m 1174.98,1651.34 c 151.696,-168.739 458.797,-203.52 633.996,-48.7652 159.776,141.131 194.279,398.256 110.052,588.573 -31.009,70.077 -79.3992,135.265 -144.688,177.062 -45.5367,29.1563 -99.7324,38.5992 -151.819,53.1059 l -80.5637,6.8243 c 91.9078,-46.902 210.8127,-106.9014 263.5827,-200.5532 90.798,-161.13 104.065,-334.1319 -1.8901,-482.8529 -149.457,-209.774 -459.3461,-175.6665 -628.67,-93.3939 z"
           inkscape:connector-curvature="0"
           style="fill:#1f1a17;stroke:#1f1a17;stroke-width:2.34375" />
      </g>
      <g
         transform="matrix(0,14.57963,17.877435,0,-22330.285,6052.8052)"
         id="_81827144-0-5-6-9-7-1"
         style="fill-rule:evenodd">
        <path
           sodipodi:nodetypes="ccccccccccc"
           style="fill:#1f1a17;stroke:#1f1a17;stroke-width:2.57706165"
           inkscape:connector-curvature="0"
           id="_80692792-3-6-2-9-9-7"
           class="fil1 str1"
           d="M 134.19609,39.838008 C 99.348385,40.959586 46.411702,31.453113 15.652602,48.774609 7.507122,53.360493 7.5826221,70.424618 8.2544856,79.04833 l -0.1574588,34.56105 -0.4222212,25.32562 -0.546723,0 -1.15711,-49.036453 C 5.7951906,77.547958 0.02752062,52.835125 10.820801,43.11034 c 11.3054,-10.186627 31.979872,-2.30943 47.688172,-3.708045 24.7686,-2.203577 50.066467,-2.752388 74.691167,-0.782724 z" />
      </g>
      <g
         transform="matrix(0.49448315,0,0,0.52633561,-21818.322,6767.3911)"
         id="_79162808-4-9-2"
         style="fill-rule:evenodd">
        <path
           sodipodi:nodetypes="cscccccccc"
           id="_79208600-31-6-7"
           class="fil2 str1"
           d="m 1174.98,1651.34 c 151.696,-168.739 458.797,-203.52 633.996,-48.7652 159.776,141.131 194.279,398.256 110.052,588.573 -31.009,70.077 -79.3992,135.265 -144.688,177.062 -45.5367,29.1563 -99.7324,38.5992 -151.819,53.1059 l -80.5637,6.8243 c 91.9078,-46.902 210.8127,-106.9014 263.5827,-200.5532 90.798,-161.13 104.065,-334.1319 -1.8901,-482.8529 -149.457,-209.774 -459.3461,-175.6665 -628.67,-93.3939 z"
           inkscape:connector-curvature="0"
           style="fill:#1f1a17;stroke:#1f1a17;stroke-width:2.34375" />
      </g>
      <g
         transform="matrix(0,0.49448315,-0.52633561,0,-19435.828,6527.2627)"
         id="_79162808-4-9-2-8"
         style="fill-rule:evenodd">
        <path
           sodipodi:nodetypes="cscccccccc"
           id="_79208600-31-6-7-2"
           class="fil2 str1"
           d="m 1174.98,1651.34 c 151.696,-168.739 458.797,-203.52 633.996,-48.7652 159.776,141.131 194.279,398.256 110.052,588.573 -31.009,70.077 -79.3992,135.265 -144.688,177.062 -45.5367,29.1563 -99.7324,38.5992 -151.819,53.1059 l -80.5637,6.8243 c 91.9078,-46.902 210.8127,-106.9014 263.5827,-200.5532 90.798,-161.13 104.065,-334.1319 -1.8901,-482.8529 -149.457,-209.774 -459.3461,-175.6665 -628.67,-93.3939 z"
           inkscape:connector-curvature="0"
           style="fill:#1f1a17;stroke:#1f1a17;stroke-width:2.34375" />
      </g>
    </g>
    <rect
       id="rect7046-4-7"
       ry="24.11418"
       rx="20.557081"
       height="134.45352"
       width="136.8831"
       transform="matrix(0.98867447,-0.15007595,0.15056487,0.98860013,0,0)"
       class="fil3 str0"
       x="-47.491871"
       y="904.27759"
       style="fill:#b8db7c;fill-rule:evenodd;stroke:#72706f;stroke-width:4.10552549" />
    <path
       sodipodi:type="arc"
       style="fill:#00923f;fill-opacity:1;fill-rule:evenodd;stroke:#737373;stroke-width:24.68448067;stroke-linecap:round;stroke-linejoin:bevel;stroke-miterlimit:4;stroke-opacity:1;stroke-dasharray:none"
       id="path5579"
       sodipodi:cx="-19684.475"
       sodipodi:cy="7133.7954"
       sodipodi:rx="83.90654"
       sodipodi:ry="83.90654"
       d="m -19600.568,7133.7954 a 83.90654,83.90654 0 1 1 -167.813,0 83.90654,83.90654 0 1 1 167.813,0 z"
       transform="matrix(0.14843129,-0.02187428,0.02187428,0.14843129,2900.3177,-563.90716)" />
    <path
       sodipodi:type="arc"
       style="fill:#00923f;fill-opacity:1;fill-rule:evenodd;stroke:#737373;stroke-width:24.68448067;stroke-linecap:round;stroke-linejoin:bevel;stroke-miterlimit:4;stroke-opacity:1;stroke-dasharray:none"
       id="path5579-3"
       sodipodi:cx="-19684.475"
       sodipodi:cy="7133.7954"
       sodipodi:rx="83.90654"
       sodipodi:ry="83.90654"
       d="m -19600.568,7133.7954 a 83.90654,83.90654 0 1 1 -167.813,0 83.90654,83.90654 0 1 1 167.813,0 z"
       transform="matrix(0.14843129,-0.02187428,0.02187428,0.14843129,2905.8551,-526.33257)" />
    <path
       sodipodi:type="arc"
       style="fill:#00923f;fill-opacity:1;fill-rule:evenodd;stroke:#737373;stroke-width:24.68448067;stroke-linecap:round;stroke-linejoin:bevel;stroke-miterlimit:4;stroke-opacity:1;stroke-dasharray:none"
       id="path5579-3-8"
       sodipodi:cx="-19684.475"
       sodipodi:cy="7133.7954"
       sodipodi:rx="83.90654"
       sodipodi:ry="83.90654"
       d="m -19600.568,7133.7954 a 83.90654,83.90654 0 1 1 -167.813,0 83.90654,83.90654 0 1 1 167.813,0 z"
       transform="matrix(0.14843129,-0.02187428,0.02187428,0.14843129,2911.105,-490.70814)" />
    <path
       sodipodi:type="arc"
       style="fill:#00923f;fill-opacity:1;fill-rule:evenodd;stroke:#737373;stroke-width:24.68448067;stroke-linecap:round;stroke-linejoin:bevel;stroke-miterlimit:4;stroke-opacity:1;stroke-dasharray:none"
       id="path5579-2"
       sodipodi:cx="-19684.475"
       sodipodi:cy="7133.7954"
       sodipodi:rx="83.90654"
       sodipodi:ry="83.90654"
       d="m -19600.568,7133.7954 a 83.90654,83.90654 0 1 1 -167.813,0 83.90654,83.90654 0 1 1 167.813,0 z"
       transform="matrix(0.14843129,-0.02187428,0.02187428,0.14843129,2952.9411,-572.10878)" />
    <path
       sodipodi:type="arc"
       style="fill:#00923f;fill-opacity:1;fill-rule:evenodd;stroke:#737373;stroke-width:24.68448067;stroke-linecap:round;stroke-linejoin:bevel;stroke-miterlimit:4;stroke-opacity:1;stroke-dasharray:none"
       id="path5579-3-0"
       sodipodi:cx="-19684.475"
       sodipodi:cy="7133.7954"
       sodipodi:rx="83.90654"
       sodipodi:ry="83.90654"
       d="m -19600.568,7133.7954 a 83.90654,83.90654 0 1 1 -167.813,0 83.90654,83.90654 0 1 1 167.813,0 z"
       transform="matrix(0.14843129,-0.02187428,0.02187428,0.14843129,2958.4784,-534.53402)" />
    <path
       sodipodi:type="arc"
       style="fill:#00923f;fill-opacity:1;fill-rule:evenodd;stroke:#737373;stroke-width:24.68448067;stroke-linecap:round;stroke-linejoin:bevel;stroke-miterlimit:4;stroke-opacity:1;stroke-dasharray:none"
       id="path5579-3-8-2"
       sodipodi:cx="-19684.475"
       sodipodi:cy="7133.7954"
       sodipodi:rx="83.90654"
       sodipodi:ry="83.90654"
       d="m -19600.568,7133.7954 a 83.90654,83.90654 0 1 1 -167.813,0 83.90654,83.90654 0 1 1 167.813,0 z"
       transform="matrix(0.14843129,-0.02187428,0.02187428,0.14843129,2963.7283,-498.9096)" />
    <g
       style="fill-rule:evenodd"
       id="_81827144-0-5-6-9-7"
       transform="matrix(-0.87192993,0.12849612,-0.15756099,-1.0691541,256.10574,1056.5142)">
      <path
         d="M 131.70615,41.868634 C 96.858446,42.990212 46.411702,31.453113 15.652602,48.774609 7.507122,53.360493 11.068537,71.236869 10.246437,79.04833 l 0.340529,34.96718 -2.9121604,24.91949 -0.546723,0 -1.15711,-49.036453 C 5.7951906,77.547958 0.02752062,52.835125 10.820801,43.11034 c 11.3054,-10.186627 31.979872,-2.30943 47.688172,-3.708045 24.7686,-2.203577 48.572507,0.496614 73.197207,2.466278 z"
         class="fil1 str1"
         id="_80692792-3-6-2-9-9"
         inkscape:connector-curvature="0"
         style="fill:#1f1a17;stroke:#1f1a17;stroke-width:2.57706165"
         sodipodi:nodetypes="ccccccccccc" />
    </g>
    <g
       style="fill-rule:evenodd"
       id="_79162808-4-9-0"
       transform="matrix(0.0295724,-0.00435808,0.0046388,0.03147732,82.382481,869.37)">
      <path
         style="fill:#1f1a17;stroke:#1f1a17;stroke-width:2.34375"
         inkscape:connector-curvature="0"
         d="m 1174.98,1651.34 c 151.696,-168.739 458.797,-203.52 633.996,-48.7652 159.776,141.131 194.279,398.256 110.052,588.573 -31.009,70.077 -79.3992,135.265 -144.688,177.062 -45.5367,29.1563 -99.7324,38.5992 -151.819,53.1059 l -80.5637,6.8243 c 91.9078,-46.902 210.8127,-106.9014 263.5827,-200.5532 90.798,-161.13 104.065,-334.1319 -1.8901,-482.8529 -149.457,-209.774 -459.3461,-175.6665 -628.67,-93.3939 z"
         class="fil2 str1"
         id="_79208600-31-6-4"
         sodipodi:nodetypes="cscccccccc" />
    </g>
    <g
       style="fill-rule:evenodd"
       id="_79162808-4-9-0-4"
       transform="matrix(-0.0295724,0.00435808,0.0046388,0.03147732,226.8184,885.67108)">
      <path
         style="fill:#1f1a17;stroke:#1f1a17;stroke-width:2.34375"
         inkscape:connector-curvature="0"
         d="m 1174.98,1651.34 c 151.696,-168.739 458.797,-203.52 633.996,-48.7652 159.776,141.131 194.279,398.256 110.052,588.573 -31.009,70.077 -79.3992,135.265 -144.688,177.062 -45.5367,29.1563 -99.7324,38.5992 -151.819,53.1059 l -80.5637,6.8243 c 91.9078,-46.902 210.8127,-106.9014 263.5827,-200.5532 90.798,-161.13 104.065,-334.1319 -1.8901,-482.8529 -149.457,-209.774 -459.3461,-175.6665 -628.67,-93.3939 z"
         class="fil2 str1"
         id="_79208600-31-6-4-3"
         sodipodi:nodetypes="cscccccccc" />
    </g>
    <g
       style="fill-rule:evenodd"
       id="_79162808-4-9-0-4-1"
       transform="matrix(-0.00435808,-0.0295724,-0.03147732,0.0046388,256.2301,950.44977)">
      <path
         style="fill:#1f1a17;stroke:#1f1a17;stroke-width:2.34375"
         inkscape:connector-curvature="0"
         d="m 1174.98,1651.34 c 151.696,-168.739 458.797,-203.52 633.996,-48.7652 159.776,141.131 194.279,398.256 110.052,588.573 -31.009,70.077 -79.3992,135.265 -144.688,177.062 -45.5367,29.1563 -99.7324,38.5992 -151.819,53.1059 l -80.5637,6.8243 c 91.9078,-46.902 210.8127,-106.9014 263.5827,-200.5532 90.798,-161.13 104.065,-334.1319 -1.8901,-482.8529 -149.457,-209.774 -459.3461,-175.6665 -628.67,-93.3939 z"
         class="fil2 str1"
         id="_79208600-31-6-4-3-8"
         sodipodi:nodetypes="cscccccccc" />
    </g>
    <g
       style="fill-rule:evenodd"
       id="_79162808-4-9-0-8"
       transform="matrix(0.0061466,0.02925302,-0.03113737,0.00654255,193.49896,907.80213)">
      <path
         style="fill:#1f1a17;stroke:#1f1a17;stroke-width:2.34375"
         inkscape:connector-curvature="0"
         d="m 1174.98,1651.34 c 151.696,-168.739 458.797,-203.52 633.996,-48.7652 159.776,141.131 194.279,398.256 110.052,588.573 -31.009,70.077 -79.3992,135.265 -144.688,177.062 -45.5367,29.1563 -99.7324,38.5992 -151.819,53.1059 l -80.5637,6.8243 c 91.9078,-46.902 210.8127,-106.9014 263.5827,-200.5532 90.798,-161.13 104.065,-334.1319 -1.8901,-482.8529 -149.457,-209.774 -459.3461,-175.6665 -628.67,-93.3939 z"
         class="fil2 str1"
         id="_79208600-31-6-4-4"
         sodipodi:nodetypes="cscccccccc" />
    </g>
    <g
       style="fill-rule:evenodd"
       id="_79162808-4-9-0-1"
       transform="matrix(-0.00435808,-0.0295724,0.03147732,-0.0046388,88.738425,1051.3127)">
      <path
         style="fill:#1f1a17;stroke:#1f1a17;stroke-width:2.34375"
         inkscape:connector-curvature="0"
         d="m 1174.98,1651.34 c 151.696,-168.739 458.797,-203.52 633.996,-48.7652 159.776,141.131 194.279,398.256 110.052,588.573 -31.009,70.077 -79.3992,135.265 -144.688,177.062 -45.5367,29.1563 -99.7324,38.5992 -151.819,53.1059 l -80.5637,6.8243 c 91.9078,-46.902 210.8127,-106.9014 263.5827,-200.5532 90.798,-161.13 104.065,-334.1319 -1.8901,-482.8529 -149.457,-209.774 -459.3461,-175.6665 -628.67,-93.3939 z"
         class="fil2 str1"
         id="_79208600-31-6-4-8"
         sodipodi:nodetypes="cscccccccc" />
    </g>
    <g
       style="fill-rule:evenodd"
       id="_79162808-4-9-0-4-4"
       transform="matrix(0.00435808,0.0295724,-0.03147732,0.0046388,254.33756,937.6079)">
      <path
         style="fill:#1f1a17;stroke:#1f1a17;stroke-width:2.34375"
         inkscape:connector-curvature="0"
         d="m 1174.98,1651.34 c 151.696,-168.739 458.797,-203.52 633.996,-48.7652 159.776,141.131 194.279,398.256 110.052,588.573 -31.009,70.077 -79.3992,135.265 -144.688,177.062 -45.5367,29.1563 -99.7324,38.5992 -151.819,53.1059 l -80.5637,6.8243 c 91.9078,-46.902 210.8127,-106.9014 263.5827,-200.5532 90.798,-161.13 104.065,-334.1319 -1.8901,-482.8529 -149.457,-209.774 -459.3461,-175.6665 -628.67,-93.3939 z"
         class="fil2 str1"
         id="_79208600-31-6-4-3-3"
         sodipodi:nodetypes="cscccccccc" />
    </g>
  </g>
</svg>
