<?xml version="1.0" encoding="UTF-8" standalone="no"?>
<!-- Created with Inkscape (http://www.inkscape.org/) -->

<svg
   xmlns:dc="http://purl.org/dc/elements/1.1/"
   xmlns:cc="http://creativecommons.org/ns#"
   xmlns:rdf="http://www.w3.org/1999/02/22-rdf-syntax-ns#"
   xmlns:svg="http://www.w3.org/2000/svg"
   xmlns="http://www.w3.org/2000/svg"
   xmlns:sodipodi="http://sodipodi.sourceforge.net/DTD/sodipodi-0.dtd"
   xmlns:inkscape="http://www.inkscape.org/namespaces/inkscape"
   width="256"
   height="256"
   id="svg2"
   version="1.1"
   inkscape:version="0.48.3.1 r9886"
   sodipodi:docname="applications-cardgames.svg">
  <defs
     id="defs4" />
  <sodipodi:namedview
     id="base"
     pagecolor="#ffffff"
     bordercolor="#666666"
     borderopacity="1.0"
     inkscape:pageopacity="0.0"
     inkscape:pageshadow="2"
     inkscape:zoom="0.6753239"
     inkscape:cx="322.40146"
     inkscape:cy="144.13242"
     inkscape:document-units="px"
     inkscape:current-layer="layer1"
     showgrid="false"
     inkscape:window-width="1438"
     inkscape:window-height="827"
     inkscape:window-x="0"
     inkscape:window-y="25"
     inkscape:window-maximized="1" />
  <metadata
     id="metadata7">
    <rdf:RDF>
      <cc:Work
         rdf:about="">
        <dc:format>image/svg+xml</dc:format>
        <dc:type
           rdf:resource="http://purl.org/dc/dcmitype/StillImage" />
        <dc:title />
      </cc:Work>
    </rdf:RDF>
  </metadata>
  <g
     inkscape:label="Capa 1"
     inkscape:groupmode="layer"
     id="layer1"
     transform="translate(0,-796.36218)">
    <g
       style="fill-rule:evenodd"
       id="g6495"
       transform="matrix(0.09198662,0.01077126,-0.01077126,0.09198662,2048.204,370.30161)">
      <rect
         style="fill:#b8db7c;fill-rule:evenodd;stroke:#72706f;stroke-width:52.13671875"
         y="-21061.764"
         x="-9274.1123"
         class="fil3 str0"
         transform="matrix(0.00243776,-0.99999703,0.99999842,-0.00177983,0,0)"
         width="2132.5266"
         height="1407.797"
         rx="338.49557"
         ry="343.16632"
         id="rect7046-0-5" />
      <path
         d="m -20567.749,7174.2457 392.037,-27.805 c 174.134,6.5817 434.089,-0.6383 487.879,212.1504 18.225,72.1082 27.519,146.3166 28.168,220.699 l -16.14,735.5908 -4.58,0.06 -34.35,-734.9608 c -5.302,-91.9594 -13.836,-194.6451 -64.627,-275.0076 -73.18,-115.7641 -289.996,-108.177 -398.628,-118.5257 l -389.759,-12.2016 z"
         class="fil1 str1"
         id="_80379776-7-8"
         inkscape:connector-curvature="0"
         style="fill:#1f1a17;fill-rule:evenodd;stroke:#1f1a17;stroke-width:20.957407" />
      <path
         style="fill:none"
         inkscape:connector-curvature="0"
         class="fil2"
         d="m -20567.749,7174.2605 c 121.909,-28.7499 667.612,-10.8081 758.636,56.2629 84.398,62.1834 119.934,188.9157 121.915,349.1277 l 9.105,735.2644"
         id="path7050-7-8" />
      <path
         d="m -21082.898,8366.1902 c 8.383,263.871 -29.149,579.889 120.912,813.565 39.73,61.882 122.687,87.927 190.889,94.517 l 313.514,12.243 217.563,23.213 -0.02,4.14 -428.399,6.463 c -107.895,0.752 -226.412,10.932 -310.924,-71.235 -88.526,-86.067 -116.469,-209.888 -128.048,-328.874 -18.245,-187.617 6.313,-367.701 24.514,-554.0322 z"
         class="fil1 str1"
         id="_80692792-8-2"
         inkscape:connector-curvature="0"
         style="fill:#1f1a17;fill-rule:evenodd;stroke:#1f1a17;stroke-width:20.957407" />
      <path
         style="fill:none"
         inkscape:connector-curvature="0"
         class="fil2"
         d="m -21082.898,8366.1978 c -0.695,129.4004 -17.275,282.5844 -10.904,411.6654 19.887,403.018 127.166,546.107 423.355,519.863 57.074,-5.049 365.187,13.725 430.416,14.075"
         id="path7054-6-8" />
      <path
         style="font-size:12px;fill:#00923f;fill-opacity:1;fill-rule:evenodd;stroke:#737373;stroke-width:21.94346619;stroke-linecap:round;stroke-linejoin:round;stroke-miterlimit:4;stroke-opacity:1;stroke-dasharray:none"
         sodipodi:stroke-cmyk="(0 0 0 0.8)"
         id="path717-2-7"
         d="m -20378.12,7586.6755 c -71.771,-1.7808 -131.385,54.928 -133.195,126.7152 -0.284,12.0075 1.329,23.5652 4.125,34.714 -69.311,1.0904 -126.435,56.2107 -128.188,126.1724 -1.78,71.7708 55.251,131.4029 127.022,133.1836 32.25,0.8029 61.091,-11.3904 84.316,-30.3142 -46.768,88.8198 -108.947,145.3272 -105.212,141.7336 l 278.267,6.9714 c 0,0 -59.05,-59.9759 -97.503,-152.7255 22.71,22.4498 53.18,37.1664 87.579,38.0475 71.771,1.7805 131.414,-54.9443 133.211,-126.6852 1.781,-71.7709 -54.944,-131.4139 -126.715,-133.1944 -0.602,0.3275 -1.066,0.1906 -1.832,0.2174 2.817,-10.1503 4.563,-20.6918 4.824,-31.6715 1.81,-71.7872 -54.899,-131.4002 -126.686,-133.2109 z"
         inkscape:connector-curvature="0" />
      <g
         transform="matrix(-0.20557325,0.11019361,0.10419323,0.2492086,-20442.072,7223.0582)"
         id="_79162808-4-9-0-4-0-3"
         style="fill-rule:evenodd">
        <path
           sodipodi:nodetypes="cscccccccc"
           id="_79208600-31-6-4-3-1-0"
           class="fil2 str1"
           d="m 1174.98,1651.34 c 151.696,-168.739 458.797,-203.52 633.996,-48.7652 159.776,141.131 194.279,398.256 110.052,588.573 -31.009,70.077 -79.3992,135.265 -144.688,177.062 -45.5367,29.1563 -99.7324,38.5992 -151.819,53.1059 l -80.5637,6.8243 c 91.9078,-46.902 210.8127,-106.9014 263.5827,-200.5532 90.798,-161.13 104.065,-334.1319 -1.8901,-482.8529 -149.457,-209.774 -459.3461,-175.6665 -628.67,-93.3939 z"
           inkscape:connector-curvature="0"
           style="fill:#1f1a17;stroke:#1f1a17;stroke-width:2.34375" />
      </g>
      <g
         transform="matrix(0.01954363,-0.21675953,-0.26720849,-0.04496938,-19873.687,8084.434)"
         id="_79162808-4-9-0-4-0-9-7"
         style="fill-rule:evenodd">
        <path
           sodipodi:nodetypes="cscccccccc"
           id="_79208600-31-6-4-3-1-4-29"
           class="fil2 str1"
           d="m 1202.9835,1516.3587 c 151.696,-168.739 430.7935,-68.5387 605.9925,86.2161 159.776,141.131 194.279,398.256 110.052,588.573 -31.009,70.077 -79.3992,135.265 -144.688,177.062 -45.5367,29.1563 -99.7324,38.5992 -151.819,53.1059 l -80.5637,6.8243 c 91.9078,-46.902 210.8127,-106.9014 263.5827,-200.5532 90.798,-161.13 104.065,-334.1319 -1.8901,-482.8529 -149.457,-209.774 -456.9422,-312.5202 -626.2661,-230.2476 z"
           inkscape:connector-curvature="0"
           style="fill:#1f1a17;stroke:#1f1a17;stroke-width:2.34375" />
      </g>
      <g
         transform="matrix(0.15666357,0.12813939,0.15662432,-0.20613389,-20767.147,8125.1486)"
         id="_79162808-4-9-0-4-0-9-4-6"
         style="fill-rule:evenodd">
        <path
           sodipodi:nodetypes="cscccccccc"
           id="_79208600-31-6-4-3-1-4-2-2"
           class="fil2 str1"
           d="m 1199.8552,1505.6559 c 151.696,-168.739 433.9218,-57.8359 609.1208,96.9189 159.776,141.131 194.279,398.256 110.052,588.573 -31.009,70.077 -79.3992,135.265 -144.688,177.062 -45.5367,29.1563 -99.7324,38.5992 -151.819,53.1059 l -80.5637,6.8243 c 91.9078,-46.902 210.8127,-106.9014 263.5827,-200.5532 90.798,-161.13 104.065,-334.1319 -1.8901,-482.8529 -149.457,-209.774 -434.3739,-321.2622 -603.6978,-238.9896 z"
           inkscape:connector-curvature="0"
           style="fill:#1f1a17;stroke:#1f1a17;stroke-width:2.34375" />
      </g>
      <path
         sodipodi:nodetypes="ccsscscsscc"
         inkscape:connector-curvature="0"
         id="path6397-5"
         d="m -20342.819,7974.5251 c 26.701,61.7962 72.804,105.4207 104.894,158.439 -16.748,-0.4118 -34.165,-2.018 -52.008,-1.2895 -66.721,2.7254 -126.504,0.1185 -165.684,-3.1738 -42.86,-3.6024 -67.191,-3.723 -76.659,-4.4165 0.104,1.5778 -0.08,2.536 -0.278,2.536 -0.196,0 -0.382,-0.967 -0.278,-3.0977 3.827,-3.7545 2.2,-1.4636 44.56,-5.6826 35.287,-3.5146 110.813,-3.5775 194.115,3.6309 17.467,1.5112 13.56,-4.813 30.395,-4.2563 1.811,-10.5643 -80.411,-84.1326 -79.057,-142.6895 z"
         style="fill:#1f1a17;fill-opacity:1;fill-rule:evenodd;stroke:none" />
      <path
         style="font-size:12px;fill:#00923f;fill-opacity:1;fill-rule:evenodd;stroke:#737373;stroke-width:21.94346619;stroke-linecap:round;stroke-linejoin:round;stroke-miterlimit:4;stroke-opacity:1;stroke-dasharray:none"
         sodipodi:stroke-cmyk="(0 0 0 0.8)"
         id="path717-2-7-0"
         d="m -20374.231,8326.0881 c -71.771,-1.7808 -131.385,54.928 -133.195,126.7152 -0.284,12.0075 1.329,23.5652 4.125,34.714 -69.311,1.0904 -126.435,56.2107 -128.188,126.1724 -1.78,71.7708 55.251,131.4029 127.022,133.1836 32.25,0.8029 61.091,-11.3904 84.316,-30.3142 -46.768,88.8198 -108.947,145.3272 -105.212,141.7336 l 278.267,6.9714 c 0,0 -59.05,-59.9759 -97.503,-152.7255 22.71,22.4498 53.18,37.1664 87.579,38.0475 71.771,1.7805 131.414,-54.9443 133.211,-126.6852 1.781,-71.7709 -54.944,-131.4139 -126.715,-133.1944 -0.602,0.3275 -1.066,0.1906 -1.832,0.2174 2.817,-10.1503 4.563,-20.6918 4.824,-31.6715 1.81,-71.7872 -54.899,-131.4002 -126.686,-133.2109 z"
         inkscape:connector-curvature="0" />
      <g
         transform="matrix(-0.20557325,0.11019361,0.10419323,0.2492086,-20438.183,7962.4708)"
         id="_79162808-4-9-0-4-0-3-9"
         style="fill-rule:evenodd">
        <path
           sodipodi:nodetypes="cscccccccc"
           id="_79208600-31-6-4-3-1-0-2"
           class="fil2 str1"
           d="m 1174.98,1651.34 c 151.696,-168.739 458.797,-203.52 633.996,-48.7652 159.776,141.131 194.279,398.256 110.052,588.573 -31.009,70.077 -79.3992,135.265 -144.688,177.062 -45.5367,29.1563 -99.7324,38.5992 -151.819,53.1059 l -80.5637,6.8243 c 91.9078,-46.902 210.8127,-106.9014 263.5827,-200.5532 90.798,-161.13 104.065,-334.1319 -1.8901,-482.8529 -149.457,-209.774 -459.3461,-175.6665 -628.67,-93.3939 z"
           inkscape:connector-curvature="0"
           style="fill:#1f1a17;stroke:#1f1a17;stroke-width:2.34375" />
      </g>
      <g
         transform="matrix(0.01954363,-0.21675953,-0.26720849,-0.04496938,-19869.798,8823.8466)"
         id="_79162808-4-9-0-4-0-9-7-7"
         style="fill-rule:evenodd">
        <path
           sodipodi:nodetypes="cscccccccc"
           id="_79208600-31-6-4-3-1-4-29-9"
           class="fil2 str1"
           d="m 1202.9835,1516.3587 c 151.696,-168.739 430.7935,-68.5387 605.9925,86.2161 159.776,141.131 194.279,398.256 110.052,588.573 -31.009,70.077 -79.3992,135.265 -144.688,177.062 -45.5367,29.1563 -99.7324,38.5992 -151.819,53.1059 l -80.5637,6.8243 c 91.9078,-46.902 210.8127,-106.9014 263.5827,-200.5532 90.798,-161.13 104.065,-334.1319 -1.8901,-482.8529 -149.457,-209.774 -456.9422,-312.5202 -626.2661,-230.2476 z"
           inkscape:connector-curvature="0"
           style="fill:#1f1a17;stroke:#1f1a17;stroke-width:2.34375" />
      </g>
      <g
         transform="matrix(0.15666357,0.12813939,0.15662432,-0.20613389,-20763.258,8864.5612)"
         id="_79162808-4-9-0-4-0-9-4-6-4"
         style="fill-rule:evenodd">
        <path
           sodipodi:nodetypes="cscccccccc"
           id="_79208600-31-6-4-3-1-4-2-2-9"
           class="fil2 str1"
           d="m 1199.8552,1505.6559 c 151.696,-168.739 433.9218,-57.8359 609.1208,96.9189 159.776,141.131 194.279,398.256 110.052,588.573 -31.009,70.077 -79.3992,135.265 -144.688,177.062 -45.5367,29.1563 -99.7324,38.5992 -151.819,53.1059 l -80.5637,6.8243 c 91.9078,-46.902 210.8127,-106.9014 263.5827,-200.5532 90.798,-161.13 104.065,-334.1319 -1.8901,-482.8529 -149.457,-209.774 -434.3739,-321.2622 -603.6978,-238.9896 z"
           inkscape:connector-curvature="0"
           style="fill:#1f1a17;stroke:#1f1a17;stroke-width:2.34375" />
      </g>
      <path
         sodipodi:nodetypes="ccsscscsscc"
         inkscape:connector-curvature="0"
         id="path6397-5-2"
         d="m -20338.93,8713.9377 c 26.701,61.7962 72.804,105.4207 104.894,158.439 -16.748,-0.4118 -34.165,-2.018 -52.008,-1.2895 -66.721,2.7254 -126.504,0.1185 -165.684,-3.1738 -42.86,-3.6024 -67.191,-3.723 -76.659,-4.4165 0.104,1.5778 -0.08,2.536 -0.278,2.536 -0.196,0 -0.382,-0.967 -0.278,-3.0977 3.827,-3.7545 2.2,-1.4636 44.56,-5.6826 35.287,-3.5146 110.813,-3.5775 194.115,3.6309 17.467,1.5112 13.56,-4.813 30.395,-4.2563 1.811,-10.5643 -80.411,-84.1326 -79.057,-142.6895 z"
         style="fill:#1f1a17;fill-opacity:1;fill-rule:evenodd;stroke:none" />
    </g>
    <g
       style="fill-rule:evenodd"
       id="g6518"
       transform="matrix(0.09208588,-0.00988686,0.00988686,0.09208588,2158.357,-39.110984)">
      <rect
         style="fill:#b8db7c;fill-rule:evenodd;stroke:#72706f;stroke-width:52.13671875"
         y="-23198.387"
         x="-9272.1641"
         class="fil3 str0"
         transform="matrix(0.00243776,-0.99999703,0.99999842,-0.00177983,0,0)"
         width="2132.5266"
         height="1407.797"
         rx="338.49557"
         ry="343.16632"
         id="rect7046-0" />
      <path
         d="m -22704.366,7176.1021 392.037,-27.805 c 174.134,6.5817 434.089,-0.6383 487.879,212.1504 18.225,72.1082 27.519,146.3166 28.168,220.699 l -16.14,735.5908 -4.58,0.06 -34.35,-734.9608 c -5.302,-91.9594 -13.836,-194.6451 -64.627,-275.0076 -73.18,-115.7641 -289.996,-108.177 -398.628,-118.5257 l -389.759,-12.2016 z"
         class="fil1 str1"
         id="_80379776-7"
         inkscape:connector-curvature="0"
         style="fill:#1f1a17;fill-rule:evenodd;stroke:#1f1a17;stroke-width:20.957407" />
      <path
         style="fill:none"
         inkscape:connector-curvature="0"
         class="fil2"
         d="m -22704.366,7176.1169 c 121.909,-28.7499 667.612,-10.8081 758.636,56.2629 84.398,62.1834 119.934,188.9157 121.915,349.1277 l 9.105,735.2644"
         id="path7050-7" />
      <path
         d="m -23219.515,8368.0466 c 8.383,263.8707 -29.149,579.8893 120.912,813.5653 39.73,61.882 122.687,87.927 190.889,94.517 l 313.514,12.243 217.563,23.213 -0.02,4.14 -428.399,6.463 c -107.895,0.752 -226.412,10.932 -310.924,-71.235 -88.526,-86.067 -116.469,-209.888 -128.048,-328.8748 -18.245,-187.6165 6.313,-367.7001 24.514,-554.0317 z"
         class="fil1 str1"
         id="_80692792-8"
         inkscape:connector-curvature="0"
         style="fill:#1f1a17;fill-rule:evenodd;stroke:#1f1a17;stroke-width:20.957407" />
      <path
         style="fill:none"
         inkscape:connector-curvature="0"
         class="fil2"
         d="m -23219.515,8368.0542 c -0.695,129.4001 -17.275,282.5844 -10.904,411.6655 19.887,403.0182 127.166,546.1072 423.355,519.8632 57.074,-5.049 365.187,13.725 430.416,14.075"
         id="path7054-6" />
      <path
         style="font-size:12px;fill:#00923f;fill-opacity:1;fill-rule:evenodd;stroke:#737373;stroke-width:30;stroke-linecap:round;stroke-linejoin:round;stroke-miterlimit:4;stroke-opacity:1;stroke-dasharray:none"
         sodipodi:stroke-cmyk="(0 0 0 0.8)"
         id="path717-2"
         d="m -22496.291,7856.8464 c -98.122,-2.4346 -179.623,75.0947 -182.098,173.2386 -0.388,16.416 1.818,32.2171 5.64,47.4592 -94.758,1.4908 -172.856,76.8485 -175.252,172.4965 -2.434,98.1214 75.536,179.6474 173.658,182.082 44.091,1.0976 83.52,-15.5725 115.272,-41.4441 -63.939,121.4298 -148.947,198.6837 -143.84,193.7708 l 380.433,9.5309 c 0,0 -80.731,-81.9954 -133.302,-208.7983 31.049,30.6922 72.706,50.812 119.734,52.0166 98.121,2.4342 179.662,-75.1171 182.119,-173.1976 2.435,-98.1215 -75.117,-179.6625 -173.238,-182.0967 -0.823,0.4478 -1.457,0.2606 -2.504,0.2972 3.851,-13.877 6.238,-28.2887 6.594,-43.2997 2.475,-98.1438 -75.054,-179.6436 -173.198,-182.1191 z"
         inkscape:connector-curvature="0" />
      <g
         transform="matrix(-0.28104937,0.15065114,0.14244772,0.34070541,-22583.723,7359.7272)"
         id="_79162808-4-9-0-4-0"
         style="fill-rule:evenodd">
        <path
           sodipodi:nodetypes="cscccccccc"
           id="_79208600-31-6-4-3-1"
           class="fil2 str1"
           d="m 1174.98,1651.34 c 151.696,-168.739 458.797,-203.52 633.996,-48.7652 159.776,141.131 194.279,398.256 110.052,588.573 -31.009,70.077 -79.3992,135.265 -144.688,177.062 -45.5367,29.1563 -99.7324,38.5992 -151.819,53.1059 l -80.5637,6.8243 c 91.9078,-46.902 210.8127,-106.9014 263.5827,-200.5532 90.798,-161.13 104.065,-334.1319 -1.8901,-482.8529 -149.457,-209.774 -459.3461,-175.6665 -628.67,-93.3939 z"
           inkscape:connector-curvature="0"
           style="fill:#1f1a17;stroke:#1f1a17;stroke-width:2.34375" />
      </g>
      <g
         transform="matrix(0.02671906,-0.29634269,-0.36531395,-0.06147986,-21806.656,8537.3566)"
         id="_79162808-4-9-0-4-0-9"
         style="fill-rule:evenodd">
        <path
           sodipodi:nodetypes="cscccccccc"
           id="_79208600-31-6-4-3-1-4"
           class="fil2 str1"
           d="m 1202.9835,1516.3587 c 151.696,-168.739 430.7935,-68.5387 605.9925,86.2161 159.776,141.131 194.279,398.256 110.052,588.573 -31.009,70.077 -79.3992,135.265 -144.688,177.062 -45.5367,29.1563 -99.7324,38.5992 -151.819,53.1059 l -80.5637,6.8243 c 91.9078,-46.902 210.8127,-106.9014 263.5827,-200.5532 90.798,-161.13 104.065,-334.1319 -1.8901,-482.8529 -149.457,-209.774 -456.9422,-312.5202 -626.2661,-230.2476 z"
           inkscape:connector-curvature="0"
           style="fill:#1f1a17;stroke:#1f1a17;stroke-width:2.34375" />
      </g>
      <g
         transform="matrix(0.21418252,0.17518571,0.21412886,-0.28181585,-23028.149,8593.0192)"
         id="_79162808-4-9-0-4-0-9-4"
         style="fill-rule:evenodd">
        <path
           sodipodi:nodetypes="cscccccccc"
           id="_79208600-31-6-4-3-1-4-2"
           class="fil2 str1"
           d="m 1199.8552,1505.6559 c 151.696,-168.739 433.9218,-57.8359 609.1208,96.9189 159.776,141.131 194.279,398.256 110.052,588.573 -31.009,70.077 -79.3992,135.265 -144.688,177.062 -45.5367,29.1563 -99.7324,38.5992 -151.819,53.1059 l -80.5637,6.8243 c 91.9078,-46.902 210.8127,-106.9014 263.5827,-200.5532 90.798,-161.13 104.065,-334.1319 -1.8901,-482.8529 -149.457,-209.774 -434.3739,-321.2622 -603.6978,-238.9896 z"
           inkscape:connector-curvature="0"
           style="fill:#1f1a17;stroke:#1f1a17;stroke-width:2.34375" />
      </g>
      <path
         sodipodi:nodetypes="ccsscscsscc"
         inkscape:connector-curvature="0"
         id="path6397"
         d="m -22448.029,8387.0948 c 36.504,84.4846 99.534,144.1259 143.406,216.6097 -22.898,-0.5625 -46.709,-2.7592 -71.103,-1.7628 -91.218,3.726 -172.95,0.1619 -226.515,-4.3395 -58.596,-4.9243 -91.86,-5.0898 -104.804,-6.0372 0.142,2.1568 -0.113,3.4663 -0.38,3.4663 -0.268,0 -0.523,-1.3215 -0.381,-4.2351 5.232,-5.1327 3.008,-2.0003 60.921,-7.7684 48.243,-4.8048 151.498,-4.8916 265.384,4.9633 23.88,2.0664 18.539,-6.5796 41.554,-5.819 2.476,-14.4426 -109.933,-115.0213 -108.082,-195.0773 z"
         style="fill:#1f1a17;fill-opacity:1;stroke:none" />
    </g>
  </g>
</svg>
