<?xml version="1.0" encoding="UTF-8" standalone="no"?>
<!-- Created with Inkscape (http://www.inkscape.org/) -->

<svg
   xmlns:dc="http://purl.org/dc/elements/1.1/"
   xmlns:cc="http://creativecommons.org/ns#"
   xmlns:rdf="http://www.w3.org/1999/02/22-rdf-syntax-ns#"
   xmlns:svg="http://www.w3.org/2000/svg"
   xmlns="http://www.w3.org/2000/svg"
   xmlns:sodipodi="http://sodipodi.sourceforge.net/DTD/sodipodi-0.dtd"
   xmlns:inkscape="http://www.inkscape.org/namespaces/inkscape"
   width="256"
   height="256"
   id="svg4631"
   version="1.1"
   inkscape:version="0.48.3.1 r9886"
   sodipodi:docname="applications-system.svg">
  <defs
     id="defs4633" />
  <sodipodi:namedview
     id="base"
     pagecolor="#ffffff"
     bordercolor="#666666"
     borderopacity="1.0"
     inkscape:pageopacity="0.0"
     inkscape:pageshadow="2"
     inkscape:zoom="1.0527411"
     inkscape:cx="225.57019"
     inkscape:cy="140.19814"
     inkscape:document-units="px"
     inkscape:current-layer="layer1"
     showgrid="false"
     inkscape:window-width="1918"
     inkscape:window-height="1032"
     inkscape:window-x="0"
     inkscape:window-y="25"
     inkscape:window-maximized="1"
     showguides="true"
     inkscape:guide-bbox="true" />
  <metadata
     id="metadata4636">
    <rdf:RDF>
      <cc:Work
         rdf:about="">
        <dc:format>image/svg+xml</dc:format>
        <dc:type
           rdf:resource="http://purl.org/dc/dcmitype/StillImage" />
        <dc:title />
      </cc:Work>
    </rdf:RDF>
  </metadata>
  <g
     inkscape:label="Capa 1"
     inkscape:groupmode="layer"
     id="layer1"
     transform="translate(0,-796.36218)">
    <path
       inkscape:connector-curvature="0"
       style="fill:#b8db7c;fill-opacity:1;fill-rule:evenodd;stroke:#737373;stroke-width:4.23081589;stroke-miterlimit:4;stroke-opacity:1;stroke-dasharray:none"
       d="m 107.4482,808.25602 0,35.49781 c -7.3831,1.81169 -14.375363,4.59837 -20.841732,8.2257 l -30.128274,-26.1215 -28.096318,32.42134 27.337411,23.68971 c -4.18926,6.97823 -7.392976,14.61891 -9.408952,22.72677 l -38.1010196,0 0,42.89118 38.7375056,0 c 1.790435,6.37353 4.325154,12.43237 7.491294,18.09165 l -30.903528,26.78251 28.096342,32.41311 32.127564,-27.84328 -1.558653,-1.79529 c 6.274254,4.04509 13.124517,7.27877 20.40105,9.53957 l 0,37.701 42.51582,0 0,-35.8323 c 6.83115,-1.471 13.34778,-3.7772 19.44626,-6.80579 l 31.67062,27.43529 27.84335,-32.12754 -27.23952,-23.61623 c 4.04904,-6.01888 7.34096,-12.59359 9.72724,-19.58502 l 0,0.48145 42.51581,0 0,-42.89934 -39.47197,0 c -1.87457,-10.06472 -5.54859,-19.49281 -10.682,-27.94129 l 29.99771,-25.99092 -27.84336,-32.13575 -32.42134,28.09632 1.11796,1.28938 c -6.14587,-3.6179 -12.79133,-6.46927 -19.81349,-8.42973 l 0,-36.15881 -42.51578,0 z m 18.77712,78.92759 c 21.51282,0 38.95785,17.44499 38.95785,38.95782 0,21.51286 -17.44503,38.9497 -38.95785,38.9497 -21.51285,0 -38.949671,-17.43684 -38.949671,-38.9497 0,-21.51283 17.436821,-38.95782 38.949671,-38.95782 z"
       id="rect12843" />
    <path
       style="fill:#000000;fill-rule:evenodd;stroke:none"
       d="m 85.622125,851.92457 c -0.07726,-0.19811 2.88153,-3.47765 6.108852,-4.87404 3.227322,-1.39638 8.033145,-2.63612 13.677803,-4.81347 -0.20034,-8.77501 -1.46274,-19.97886 -1.56547,-31.72517 0.31466,-4.13855 3.39207,-5.9167 6.03868,-5.43015 20.19515,0.0851 36.24207,1.10511 40.59247,1.36664 l 0,0 c 0.15611,-0.10583 0.29114,-0.36812 0.2602,0.26066 l 0,0 c -3.69306,0.23709 -13.35356,1.99563 -32.55356,2.2137 -11.00129,0.69375 -9.44984,2.3031 -9.34693,9.94929 1.26639,11.71802 1.10747,16.66627 1.17126,25.27268 -7.59699,2.52648 -15.084395,3.28099 -18.536892,4.48986 -3.452499,1.20886 -5.769143,3.48808 -5.846413,3.29 z"
       id="path13037"
       inkscape:connector-curvature="0"
       sodipodi:nodetypes="ssccccccccccss" />
    <path
       sodipodi:nodetypes="ssccccccccccss"
       inkscape:connector-curvature="0"
       id="path13044"
       d="m 81.474829,995.79195 c -0.07726,0.19809 2.88153,3.47765 6.108852,4.87405 3.227322,1.3964 8.033145,2.6361 13.677809,4.8135 -0.20035,8.775 -1.462742,19.9788 -1.565472,31.725 0.314662,4.1386 3.392072,5.9168 6.038682,5.4302 20.19515,-0.085 36.24206,-1.105 40.59246,-1.3666 l 0,0 c 0.15611,0.1056 0.29114,0.3681 0.2602,-0.2606 l 0,0 c -3.69306,-0.2372 -13.35356,-1.9957 -32.55355,-2.2137 -11.00129,-0.6939 -9.44985,-2.3031 -9.34694,-9.9493 1.2664,-11.7181 1.10747,-16.6663 1.17127,-25.2727 -7.596998,-2.5265 -15.0844,-3.281 -18.536897,-4.48985 -3.452499,-1.20887 -5.769145,-3.4881 -5.846414,-3.29 z"
       style="fill:#000000;fill-rule:evenodd;stroke:none" />
    <path
       style="fill:#000000;fill-rule:evenodd;stroke:none"
       d="m 54.451406,885.78344 c -0.19572,-0.0831 -3.560895,2.77801 -5.051576,5.96288 -1.490706,3.18483 -2.87124,7.95212 -5.213686,13.53032 -8.765311,-0.45834 -19.927174,-2.04973 -31.665384,-2.49788 -4.1460166,0.19279 -6.0139304,3.21659 -5.6054393,5.87637 -0.508923,20.18891 0.038726,36.25888 0.1721914,40.61511 l 0,0 c -0.1103812,0.15292 -0.3765284,0.28017 0.2528817,0.26773 l 0,0 c 0.3456102,-3.68449 2.3875172,-13.28907 3.1702122,-32.47438 1.017011,-10.97611 2.580025,-9.378 10.219877,-9.05025 11.675721,1.61049 16.626499,1.59717 25.227295,1.91406 2.748822,-7.51942 3.723216,-14.98139 5.033113,-18.39683 1.309872,-3.41544 3.65626,-5.66407 3.460515,-5.74713 z"
       id="path13046"
       inkscape:connector-curvature="0"
       sodipodi:nodetypes="ssccccccccccss" />
    <path
       sodipodi:nodetypes="ssccccccccccss"
       inkscape:connector-curvature="0"
       id="path13048"
       d="m 201.63801,888.89393 c 0.19571,-0.0831 3.56089,2.77802 5.05157,5.96288 1.49071,3.18484 2.87125,7.95211 5.21368,13.53032 8.76532,-0.45835 19.92718,-2.04972 31.66539,-2.49787 4.14602,0.19279 6.01393,3.21658 5.60543,5.87635 0.50892,20.18892 -0.0387,36.25888 -0.17219,40.61512 l 0,0 c 0.11032,0.15292 0.37653,0.28016 -0.25288,0.26774 l 0,0 c -0.34561,-3.68449 -2.38752,-13.28909 -3.1702,-32.47438 -1.01702,-10.97612 -2.58003,-9.378 -10.21988,-9.05026 -11.67572,1.61049 -16.6265,1.59718 -25.22731,1.91406 -2.74881,-7.51942 -3.7232,-14.98139 -5.03311,-18.39683 -1.30986,-3.41545 -3.65625,-5.66406 -3.4605,-5.74713 z"
       style="fill:#000000;fill-rule:evenodd;stroke:none" />
    <g
       style="fill-rule:evenodd"
       id="g13050"
       transform="matrix(0.08100651,0,0,0.08515874,7.5757533,755.91056)">
      <path
         id="path13052"
         class="fil2 str1"
         d="m 1174.98,1651.34 c 151.696,-168.739 458.797,-203.52 633.996,-48.7652 159.776,141.131 194.279,398.256 110.052,588.573 -31.009,70.077 -79.3992,135.265 -144.688,177.062 -45.5367,29.1563 -99.7324,38.5992 -151.819,53.1059 l -1.4871,-6.6832 c 91.9078,-46.902 167.68,-86.6402 220.45,-180.292 90.798,-161.13 68.1211,-381.408 -37.834,-530.129 -149.457,-209.774 -430.591,-162.159 -628.67,-52.8715 z"
         inkscape:connector-curvature="0"
         style="fill:#1f1a17;stroke:#1f1a17;stroke-width:2.34375" />
    </g>
  </g>
</svg>
