<?xml version="1.0" encoding="UTF-8" standalone="no"?>

<svg
   xmlns:dc="http://purl.org/dc/elements/1.1/"
   xmlns:cc="http://creativecommons.org/ns#"
   xmlns:rdf="http://www.w3.org/1999/02/22-rdf-syntax-ns#"
   xmlns:svg="http://www.w3.org/2000/svg"
   xmlns="http://www.w3.org/2000/svg"
   xmlns:sodipodi="http://sodipodi.sourceforge.net/DTD/sodipodi-0.dtd"
   xmlns:inkscape="http://www.inkscape.org/namespaces/inkscape"
   xml:space="preserve"
   width="256"
   height="256"
   style="fill-rule:evenodd"
   viewBox="0 0 256 256"
   id="svg2"
   version="1.1"
   inkscape:version="0.48.3.1 r9886"
   sodipodi:docname="preferences-system.svg"><metadata
   id="metadata18"><rdf:RDF><cc:Work
       rdf:about=""><dc:format>image/svg+xml</dc:format><dc:type
         rdf:resource="http://purl.org/dc/dcmitype/StillImage" /><dc:title /></cc:Work></rdf:RDF></metadata><sodipodi:namedview
   pagecolor="#ffffff"
   bordercolor="#666666"
   borderopacity="1"
   objecttolerance="10"
   gridtolerance="10"
   guidetolerance="10"
   inkscape:pageopacity="0"
   inkscape:pageshadow="2"
   inkscape:window-width="1918"
   inkscape:window-height="1032"
   id="namedview16"
   showgrid="false"
   inkscape:zoom="1.1698775"
   inkscape:cx="87.861879"
   inkscape:cy="98.225472"
   inkscape:window-x="0"
   inkscape:window-y="25"
   inkscape:window-maximized="1"
   inkscape:current-layer="svg2"
   borderlayer="false"
   showborder="true"
   inkscape:showpageshadow="true" />
 <defs
   id="defs4"><style
     type="text/css"
     id="style6">
   
    .str0 {stroke:#1F1A17;stroke-width:2.83465}
    .fil0 {fill:#0093DD}
    .fil1 {fill:#1F1A17}
    .fil2 {fill:#3A2E2A}
   
  </style></defs>
 
<path
   inkscape:connector-curvature="0"
   id="path3784"
   d="m 137.00633,112.58589 -33.3925,61.07984 34.59421,61.35548 69.18205,-1.53052 31.88143,-60.14662 -30.68487,-60.75818 z m 36.72081,33.07798 c 16.32803,0 29.5415,12.611 29.5415,28.18541 0,15.57442 -13.21347,28.21201 -29.5415,28.21201 -16.32804,0 -29.5681,-12.63759 -29.5681,-28.21201 0,-15.57441 13.24006,-28.18541 29.5681,-28.18541 z"
   style="fill:#000000;fill-opacity:1;stroke:#000000;stroke-width:4;stroke-miterlimit:4;stroke-opacity:1;stroke-dasharray:none"
   sodipodi:nodetypes="cccccccsssss" /><path
   style="fill:#00923f;fill-opacity:1;stroke:#737373;stroke-opacity:1;stroke-width:4;stroke-miterlimit:4;stroke-dasharray:none"
   d="m 139.00633,114.58589 -31.88143,60.1732 31.26986,60.14662 70.99533,0.58498 31.88143,-60.14662 -30.68487,-60.75818 -71.58032,0 z m 36.72081,33.07798 c 16.32803,0 29.5415,12.611 29.5415,28.18541 0,15.57442 -13.21347,28.21201 -29.5415,28.21201 -16.32804,0 -29.5681,-12.63759 -29.5681,-28.21201 0,-15.57441 13.24006,-28.18541 29.5681,-28.18541 z"
   id="polygon10"
   inkscape:connector-curvature="0" /><path
   id="path3786"
   d="M 36.625037,23.071567 13.095113,64.966328 38.626167,107.1452 84.568281,105.42816 106.28492,64.458162 85.383331,23.071567 z m 25.013078,22.531694 c 11.122156,0 20.122762,8.590228 20.122762,19.199031 0,10.608812 -9.000606,19.21714 -20.122762,19.21714 -11.122154,0 -20.140871,-8.608328 -20.140871,-19.21714 0,-10.608803 9.018717,-19.199031 20.140871,-19.199031 z"
   style="fill:#000000;fill-opacity:1;fill-rule:evenodd;stroke:#000000;stroke-width:4;stroke-miterlimit:4;stroke-opacity:1;stroke-dasharray:none"
   inkscape:connector-curvature="0"
   sodipodi:nodetypes="cccccccsssss" /><path
   class="fil2"
   d="m 24.3834,232.78838 1.038347,1.82102 c 4.463319,7.82919 15.085515,10.76576 22.692812,6.50624 l 1.800522,-1.00699 C 61.257318,233.75677 136.22329,92.103097 146.25176,86.486435 l 1.80053,-1.006983 c 9.02307,-5.053043 17.04168,-2.338389 24.7008,-6.62684 l 1.79812,-1.006991 c 16.00574,-8.961644 16.79441,-21.181061 15.34238,-35.224673 l -18.24763,13.460427 c -1.15773,1.196329 -1.50506,1.086583 -4.6418,-0.328026 l -17.43241,-7.152646 c -4.35719,-14.468116 -6.07933,-20.262782 -3.76507,-22.403427 l 15.0759,-13.953164 c -7.99562,-5.1736331 -18.27291,-5.379861 -29.23284,0.757354 -24.70685,13.833785 -4.9228,45.062544 -11.87404,59.040979 -7.69292,15.466621 -23.795129,37.425035 -33.986805,52.699955 -11.831829,17.73269 -23.409164,34.80926 -34.999857,52.41049 -7.082695,10.75488 -33.587656,43.0389 -26.406055,55.63533 z"
   id="path3782"
   inkscape:connector-curvature="0"
   style="fill:#000000;fill-opacity:1;stroke:#000000;stroke-width:4;stroke-miterlimit:4;stroke-opacity:1;stroke-dasharray:none"
   sodipodi:nodetypes="ccccccccccccccccsccc" /><path
   style="fill:#b8db7c;fill-opacity:1;stroke:#737373;stroke-opacity:1;stroke-width:4;stroke-miterlimit:4;stroke-dasharray:none"
   inkscape:connector-curvature="0"
   id="path14"
   d="m 26.3834,234.07057 1.038347,1.82102 c 4.463319,7.82919 15.085515,10.76576 22.692812,6.50624 l 1.800522,-1.00699 C 63.257318,235.03896 138.22329,93.385283 148.25176,87.768621 l 1.80053,-1.006983 c 9.02307,-5.053043 17.04168,-2.338389 24.7008,-6.62684 l 1.79812,-1.006991 c 16.00574,-8.961644 14.65743,-22.890642 13.2054,-36.934254 l -16.11065,15.170008 c -1.15773,1.196329 -1.50506,1.086583 -4.6418,-0.328026 l -17.43241,-7.152646 c -4.35719,-14.468116 -6.07933,-20.262782 -3.76507,-22.403427 l 15.0759,-13.953164 c -7.99562,-5.1736336 -18.27291,-5.3798615 -29.23284,0.757354 -24.70685,13.833785 -4.9228,45.062544 -11.87404,59.040979 -7.69292,15.466621 -23.795129,37.425039 -33.986805,52.699959 -11.831829,17.73269 -23.409164,34.80926 -34.999857,52.41049 -7.082695,10.75488 -33.587656,43.0389 -26.406055,55.63533 z"
   class="fil2" /><path
   inkscape:connector-curvature="0"
   style="fill:#00923f;fill-rule:evenodd;fill-opacity:1;stroke:#737373;stroke-opacity:1;stroke-width:4;stroke-miterlimit:4;stroke-dasharray:none"
   d="m 38.625037,25.071567 -21.71664,40.988119 21.300058,40.970014 48.359826,0.39846 21.716639,-40.969998 -20.901589,-41.386595 -48.758294,0 z m 25.013078,22.531694 c 11.122156,0 20.122762,8.590228 20.122762,19.199031 0,10.608812 -9.000606,19.21714 -20.122762,19.21714 -11.122154,0 -20.140871,-8.608328 -20.140871,-19.21714 0,-10.608803 9.018717,-19.199031 20.140871,-19.199031 z"
   id="polygon10-4" /></svg>