<?xml version="1.0" encoding="UTF-8" standalone="no"?>
<!-- Created with Inkscape (http://www.inkscape.org/) -->

<svg
   xmlns:dc="http://purl.org/dc/elements/1.1/"
   xmlns:cc="http://creativecommons.org/ns#"
   xmlns:rdf="http://www.w3.org/1999/02/22-rdf-syntax-ns#"
   xmlns:svg="http://www.w3.org/2000/svg"
   xmlns="http://www.w3.org/2000/svg"
   xmlns:sodipodi="http://sodipodi.sourceforge.net/DTD/sodipodi-0.dtd"
   xmlns:inkscape="http://www.inkscape.org/namespaces/inkscape"
   version="1.1"
   width="256"
   height="256"
   id="svg1307"
   inkscape:version="0.48.3.1 r9886"
   sodipodi:docname="gnome-control-center.svg">
  <sodipodi:namedview
     pagecolor="#ffffff"
     bordercolor="#666666"
     borderopacity="1"
     objecttolerance="10"
     gridtolerance="10"
     guidetolerance="10"
     inkscape:pageopacity="0"
     inkscape:pageshadow="2"
     inkscape:window-width="1918"
     inkscape:window-height="1032"
     id="namedview8"
     showgrid="false"
     inkscape:zoom="1.508138"
     inkscape:cx="218.3912"
     inkscape:cy="128.03852"
     inkscape:window-x="0"
     inkscape:window-y="25"
     inkscape:window-maximized="1"
     inkscape:current-layer="svg1307" />
  <defs
     id="defs1309" />
  <metadata
     id="metadata1312">
    <rdf:RDF>
      <cc:Work
         rdf:about="">
        <dc:format>image/svg+xml</dc:format>
        <dc:type
           rdf:resource="http://purl.org/dc/dcmitype/StillImage" />
        <dc:title />
      </cc:Work>
    </rdf:RDF>
  </metadata>
  <path
     inkscape:connector-curvature="0"
     style="fill:#72706f;fill-opacity:1;fill-rule:evenodd;stroke:none"
     id="path3030"
     d="m 31.135609,6.3429957 c -13.947031,0 -25.1189164,11.1718943 -25.1189164,25.1189323 l 0,191.508112 c 0,13.94704 11.1718854,25.11893 25.1189164,25.11893 l 191.508131,0 c 13.94704,0 25.11892,-11.17189 25.11892,-25.11893 l 0,-191.508112 c 0,-13.947038 -11.17188,-25.1189323 -25.11892,-25.1189323 z m 140.248481,28.7073283 21.98572,0 0,19.830741 -21.98572,0 z m -110.974556,1.133181 21.985732,0 0,76.567435 -21.985732,0 z m 90.277006,30.595982 61.19195,0 c 9.87021,0 17.75322,7.883021 17.75322,17.753233 l 0,24.93003 c 0,9.87021 -7.88301,17.75323 -17.75322,17.75323 l -61.19195,0 c -9.8702,0 -17.75322,-7.88302 -17.75322,-17.75323 l 0,-24.93003 c 0,-9.870212 7.88302,-17.753233 17.75322,-17.753233 z m -108.785681,60.436493 61.191951,0 c 9.8702,0 17.75322,7.88303 17.75322,17.75324 l 0,24.93002 c 0,9.87021 -7.88302,17.75323 -17.75322,17.75323 l -61.191951,0 c -9.870206,0 -17.75322,-7.88302 -17.75322,-17.75323 l 0,-24.93002 c 0,-9.87021 7.883014,-17.75324 17.75322,-17.75324 z m 129.483231,10.08728 21.98572,0 0,74.18972 -21.98572,0 z m -110.974556,62.6254 21.985732,0 0,18.50865 -21.985732,0 z"
     sodipodi:nodetypes="sssssssssccccccccccsssssssssssssssssscccccccccc" />
  <path
     d="m 33.869955,9.7946356 c -13.548761,0 -24.4016226,10.8528704 -24.4016226,24.4016384 l 0,186.039416 c 0,13.54877 10.8528616,24.40164 24.4016226,24.40164 l 186.039435,0 c 13.54877,0 24.40163,-10.85287 24.40163,-24.40164 l 0,-186.039416 c 0,-13.548768 -10.85286,-24.4016384 -24.40163,-24.4016384 l -186.039435,0 z M 168.17062,37.6822 l 23.30079,0 0,19.264455 -23.30079,0 0,-19.264455 z m -105.862684,1.100822 23.300797,0 0,76.323868 -23.300797,0 0,-76.323868 z m 87.699064,29.722285 59.44456,0 c 9.58835,0 17.24626,7.657914 17.24626,17.246273 l 0,24.21813 c 0,9.58836 -7.65791,17.24627 -17.24626,17.24627 l -59.44456,0 c -9.58835,0 -17.24626,-7.65791 -17.24626,-17.24627 l 0,-24.21813 c 0,-9.588359 7.65791,-17.246273 17.24626,-17.246273 z m -105.679207,58.710673 59.444557,0 c 9.58835,0 17.24626,7.65792 17.24626,17.24628 l 0,24.21812 c 0,9.58836 -7.65791,17.24627 -17.24626,17.24627 l -59.444557,0 c -9.588353,0 -17.24626,-7.65791 -17.24626,-17.24627 l 0,-24.21812 c 0,-9.58836 7.657907,-17.24628 17.24626,-17.24628 z m 123.842827,11.74212 23.30079,0 0,75.95694 -23.30079,0 0,-75.95694 z m -105.862684,58.89418 23.300797,0 0,17.98012 -23.300797,0 0,-17.98012 z"
     id="path2987"
     style="fill:#b8db7d;fill-opacity:1;fill-rule:evenodd;stroke:none"
     inkscape:connector-curvature="0" />
  <rect
     style="fill:none;stroke:none"
     id="rect1315"
     y="-13.689597"
     x="-14.015937"
     height="281.81122"
     width="281.81122" />
  <g
     style="fill-rule:evenodd"
     id="g3068"
     transform="matrix(-0.2670858,0,0,0.56676897,199.97544,8.6362455)">
    <path
       d="m 119.26559,51.331289 c -19.8024,1.37996 -56.402121,-3.524988 -75.565121,2.116643 -9.79949,2.88171 -5.9981,22.674218 -10.3553,31.175418 l -0.992406,0 c 1.41871,-10.8486 -8.928268,-29.404897 2.270592,-33.702597 11.3732,-4.36548 36.367181,-3.903218 52.277823,-2.38485 l 32.364502,2.795406 z"
       class="fil1 str1"
       id="path3070"
       inkscape:connector-curvature="0"
       style="fill:#1f1a17;stroke:#1f1a17;stroke-width:1.38410997"
       sodipodi:nodetypes="cccccscc" />
  </g>
  <g
     style="fill-rule:evenodd"
     id="g3082"
     transform="matrix(0.85942278,0,0,0.85942278,-2.1093654,19.97592)">
    <path
       d="m 289.832,146.273 3.90872,51.2328 c -0.73635,22.77 0.39032,56.7498 -27.3901,63.9292 -9.41609,2.43326 -19.1104,3.70111 -28.8351,3.83813 l -96.1762,-1.59449 -0.0111,-0.59794 96.0599,-5.00494 c 12.0182,-0.75849 25.4344,-1.94606 35.9052,-8.64376 15.0854,-9.64724 13.9421,-37.9855 15.2169,-52.1947 l 1.32182,-50.9643 z"
       class="fil1 str2"
       id="path3084"
       inkscape:connector-curvature="0"
       style="fill:#1f1a17;stroke:#1f1a17;stroke-width:2.76821995" />
  </g>
  <g
     style="fill-rule:evenodd"
     id="g3088"
     transform="matrix(0.85942278,0,0,0.85942278,33.55758,-36.400865)">
    <path
       d="m 59.591237,87.327581 c -16.240019,0.96833 -16.883136,0.155286 -23.035064,6.644674 -3.796223,3.95701 -0.934096,20.818275 -1.317324,27.557955 l -0.650408,30.97213 -0.265107,22.86497 -0.255472,0 -1.630073,-43.6737 c -0.08212,-10.65592 -4.913356,-34.828797 0.116558,-43.220647 1.995766,-3.060954 8.790101,-1.794865 16.110789,-3.000605 4.450921,0.280052 -1.913989,-0.663407 9.562027,1.036933 z"
       class="fil1 str2"
       id="path3090"
       inkscape:connector-curvature="0"
       style="fill:#1f1a17;stroke:#1f1a17;stroke-width:1.6510725"
       sodipodi:nodetypes="ccccccccccc" />
  </g>
  <g
     transform="matrix(-0.85942278,0,0,0.85942278,221.20258,63.466486)"
     id="g3108"
     style="fill-rule:evenodd">
    <path
       sodipodi:nodetypes="ccccccccccc"
       style="fill:#1f1a17;stroke:#1f1a17;stroke-width:1.6510725"
       inkscape:connector-curvature="0"
       id="path3110"
       class="fil1 str2"
       d="m 59.591237,87.327581 c -16.240019,0.96833 -16.883136,0.155286 -23.035064,6.644674 -3.796223,3.95701 -0.934096,20.818275 -1.317324,27.557955 l -0.650408,30.97213 -0.265107,22.86497 -0.255472,0 -1.630073,-43.6737 c -0.08212,-10.65592 -4.913356,-34.828797 0.116558,-43.220647 1.995766,-3.060954 8.790101,-1.794865 16.110789,-3.000605 4.450921,0.280052 -1.913989,-0.663407 9.562027,1.036933 z" />
  </g>
  <g
     transform="matrix(0.2670858,0,0,-0.56676897,53.527762,244.95479)"
     id="g3112"
     style="fill-rule:evenodd">
    <path
       sodipodi:nodetypes="cccccscc"
       style="fill:#1f1a17;stroke:#1f1a17;stroke-width:1.38410997"
       inkscape:connector-curvature="0"
       id="path3114"
       class="fil1 str1"
       d="m 119.26559,51.331289 c -19.8024,1.37996 -56.402121,-3.524988 -75.565121,2.116643 -9.79949,2.88171 -5.9981,22.674218 -10.3553,31.175418 l -0.992406,0 c 1.41871,-10.8486 -8.928268,-29.404897 2.270592,-33.702597 11.3732,-4.36548 36.367181,-3.903218 52.277823,-2.38485 l 32.364502,2.795406 z" />
  </g>
  <g
     transform="matrix(-0.85942278,0,0,-0.85942278,257.0878,233.76042)"
     id="g3116"
     style="fill-rule:evenodd">
    <path
       style="fill:#1f1a17;stroke:#1f1a17;stroke-width:2.76821995"
       inkscape:connector-curvature="0"
       id="path3118"
       class="fil1 str2"
       d="m 289.832,146.273 3.90872,51.2328 c -0.73635,22.77 0.39032,56.7498 -27.3901,63.9292 -9.41609,2.43326 -19.1104,3.70111 -28.8351,3.83813 l -96.1762,-1.59449 -0.0111,-0.59794 96.0599,-5.00494 c 12.0182,-0.75849 25.4344,-1.94606 35.9052,-8.64376 15.0854,-9.64724 13.9421,-37.9855 15.2169,-52.1947 l 1.32182,-50.9643 z" />
  </g>
  <path
     style="fill:#00923f;fill-opacity:1;stroke:#72706f;stroke-opacity:1;stroke-width:3.20000019;stroke-miterlimit:4;stroke-dasharray:none"
     d="m 44.322676,127.22842 c -9.58836,0 -17.25,7.63039 -17.25,17.21875 l 0,24.21875 c 0,9.58836 7.66164,17.25 17.25,17.25 l 59.437504,0 c 9.58835,0 17.25,-7.66164 17.25,-17.25 l 0,-24.21875 c 0,-9.58836 -7.66165,-17.21875 -17.25,-17.21875 l -59.437504,0 z"
     id="rect3120"
     inkscape:connector-curvature="0" />
  <path
     inkscape:connector-curvature="0"
     id="path3895"
     d="m 149.75069,68.215252 c -9.58836,0 -17.25,7.63039 -17.25,17.21875 l 0,24.218748 c 0,9.58836 7.66164,17.25 17.25,17.25 l 59.43751,0 c 9.58835,0 17.25,-7.66164 17.25,-17.25 l 0,-24.218748 c 0,-9.58836 -7.66165,-17.21875 -17.25,-17.21875 l -59.43751,0 z"
     style="fill:#00923f;fill-opacity:1;stroke:#72706f;stroke-width:3.20000029;stroke-miterlimit:4;stroke-opacity:1;stroke-dasharray:none" />
  <g
     style="fill-rule:evenodd"
     id="g3897"
     transform="matrix(-0.51448773,0,0,-0.45073947,177.64761,244.7002)">
    <path
       d="m 289.832,146.273 3.90872,51.2328 c -0.73635,22.77 0.39032,56.7498 -27.3901,63.9292 -9.41609,2.43326 -19.1104,3.70111 -28.8351,3.83813 l -96.1762,-1.59449 -0.0111,-0.59794 96.0599,-5.00494 c 12.0182,-0.75849 25.4344,-1.94606 35.9052,-8.64376 15.0854,-9.64724 13.9421,-37.9855 15.2169,-52.1947 l 1.32182,-50.9643 z"
       class="fil1 str2"
       id="path3899"
       inkscape:connector-curvature="0"
       style="fill:#1f1a17;stroke:#1f1a17;stroke-width:2.76821995" />
  </g>
  <g
     transform="matrix(-0.51448773,0,0,-0.45073947,283.07563,186.3501)"
     id="g3901"
     style="fill-rule:evenodd">
    <path
       style="fill:#1f1a17;stroke:#1f1a17;stroke-width:2.76821995"
       inkscape:connector-curvature="0"
       id="path3903"
       class="fil1 str2"
       d="m 289.832,146.273 3.90872,51.2328 c -0.73635,22.77 0.39032,56.7498 -27.3901,63.9292 -9.41609,2.43326 -19.1104,3.70111 -28.8351,3.83813 l -96.1762,-1.59449 -0.0111,-0.59794 96.0599,-5.00494 c 12.0182,-0.75849 25.4344,-1.94606 35.9052,-8.64376 15.0854,-9.64724 13.9421,-37.9855 15.2169,-52.1947 l 1.32182,-50.9643 z" />
  </g>
  <g
     transform="matrix(-0.46230624,0,0,-0.67213552,241.32138,159.38388)"
     id="g3905"
     style="fill-rule:evenodd">
    <path
       sodipodi:nodetypes="cccccscc"
       style="fill:#1f1a17;stroke:#1f1a17;stroke-width:1.38410997"
       inkscape:connector-curvature="0"
       id="path3907"
       class="fil1 str1"
       d="m 119.26559,51.331289 c -19.8024,1.37996 -56.402121,-3.524988 -75.565121,2.116643 -9.79949,2.88171 -5.9981,22.674218 -10.3553,31.175418 l -0.992406,0 c 1.41871,-10.8486 -8.928268,-29.404897 2.270592,-33.702597 11.3732,-4.36548 36.367181,-3.903218 52.277823,-2.38485 l 32.364502,2.795406 z" />
  </g>
  <g
     style="fill-rule:evenodd"
     id="g3909"
     transform="matrix(-0.46230624,0,0,-0.67213552,134.56722,219.06012)">
    <path
       d="m 119.26559,51.331289 c -19.8024,1.37996 -56.402121,-3.524988 -75.565121,2.116643 -9.79949,2.88171 -5.9981,22.674218 -10.3553,31.175418 l -0.992406,0 c 1.41871,-10.8486 -8.928268,-29.404897 2.270592,-33.702597 11.3732,-4.36548 36.367181,-3.903218 52.277823,-2.38485 l 32.364502,2.795406 z"
       class="fil1 str1"
       id="path3911"
       inkscape:connector-curvature="0"
       style="fill:#1f1a17;stroke:#1f1a17;stroke-width:1.38410997"
       sodipodi:nodetypes="cccccscc" />
  </g>
</svg>
