<?xml version="1.0" encoding="UTF-8" standalone="no"?>
<!-- Created with Inkscape (http://www.inkscape.org/) -->

<svg
   xmlns:dc="http://purl.org/dc/elements/1.1/"
   xmlns:cc="http://creativecommons.org/ns#"
   xmlns:rdf="http://www.w3.org/1999/02/22-rdf-syntax-ns#"
   xmlns:svg="http://www.w3.org/2000/svg"
   xmlns="http://www.w3.org/2000/svg"
   xmlns:sodipodi="http://sodipodi.sourceforge.net/DTD/sodipodi-0.dtd"
   xmlns:inkscape="http://www.inkscape.org/namespaces/inkscape"
   version="1.1"
   width="48"
   height="48"
   id="svg1307"
   inkscape:version="0.48.3.1 r9886"
   sodipodi:docname="mate-control-center-symbolic.svg">
  <sodipodi:namedview
     pagecolor="#ffffff"
     bordercolor="#666666"
     borderopacity="1"
     objecttolerance="10"
     gridtolerance="10"
     guidetolerance="10"
     inkscape:pageopacity="0"
     inkscape:pageshadow="2"
     inkscape:window-width="1440"
     inkscape:window-height="829"
     id="namedview8"
     showgrid="false"
     inkscape:zoom="4.9166667"
     inkscape:cx="-13.627118"
     inkscape:cy="24"
     inkscape:window-x="0"
     inkscape:window-y="25"
     inkscape:window-maximized="1"
     inkscape:current-layer="svg1307" />
  <defs
     id="defs1309" />
  <metadata
     id="metadata1312">
    <rdf:RDF>
      <cc:Work
         rdf:about="">
        <dc:format>image/svg+xml</dc:format>
        <dc:type
           rdf:resource="http://purl.org/dc/dcmitype/StillImage" />
        <dc:title />
      </cc:Work>
    </rdf:RDF>
  </metadata>
  <path
     inkscape:connector-curvature="0"
     style="fill:#bebebe;fill-opacity:1;fill-rule:evenodd;stroke:none"
     id="rect3938"
     d="m 5.6051386,0.77966136 c -2.679299,0 -4.82547697,2.14617804 -4.82547697,4.82547704 l 0,36.7897256 c 0,2.679299 2.14617797,4.825477 4.82547697,4.825477 l 36.7897264,0 c 2.679299,0 4.825477,-2.146178 4.825477,-4.825477 l 0,-36.7897256 c 0,-2.679299 -2.146178,-4.82547704 -4.825477,-4.82547704 l -36.7897264,0 z m 26.5582644,5.51483104 4.607786,0 0,3.8095866 -4.607786,0 0,-3.8095866 z m -20.934588,0.21769 4.607786,0 0,15.0932216 -4.607786,0 0,-15.0932216 z m 17.342692,5.8776486 11.755297,0 c 1.896119,0 3.410487,1.514368 3.410487,3.410488 l 0,4.789195 c 0,1.896119 -1.514368,3.410487 -3.410487,3.410487 l -11.755297,0 c -1.89612,0 -3.410488,-1.514368 -3.410488,-3.410487 l 0,-4.789195 c 0,-1.89612 1.514368,-3.410488 3.410488,-3.410488 z m -20.8983074,11.61017 11.7552984,0 c 1.896119,0 3.410487,1.514368 3.410487,3.410488 l 0,4.789195 c 0,1.896119 -1.514368,3.410487 -3.410487,3.410487 l -11.7552984,0 c -1.896119,0 -3.410487,-1.514368 -3.410487,-3.410487 l 0,-4.789195 c 0,-1.89612 1.514368,-3.410488 3.410487,-3.410488 z m 24.4902034,2.322034 4.607786,0 0,15.020658 -4.607786,0 0,-15.020658 z m -20.934588,11.646452 4.607786,0 0,3.555614 -4.607786,0 0,-3.555614 z" />
</svg>
