<?xml version="1.0" encoding="UTF-8" standalone="no"?>
<!-- Created with Inkscape (http://www.inkscape.org/) -->

<svg
   xmlns:dc="http://purl.org/dc/elements/1.1/"
   xmlns:cc="http://creativecommons.org/ns#"
   xmlns:rdf="http://www.w3.org/1999/02/22-rdf-syntax-ns#"
   xmlns:svg="http://www.w3.org/2000/svg"
   xmlns="http://www.w3.org/2000/svg"
   xmlns:sodipodi="http://sodipodi.sourceforge.net/DTD/sodipodi-0.dtd"
   xmlns:inkscape="http://www.inkscape.org/namespaces/inkscape"
   width="256"
   height="256"
   id="svg5121"
   version="1.1"
   inkscape:version="0.48.3.1 r9886"
   sodipodi:docname="document-properties.svg">
  <defs
     id="defs5123" />
  <sodipodi:namedview
     id="base"
     pagecolor="#ffffff"
     bordercolor="#666666"
     borderopacity="1.0"
     inkscape:pageopacity="0.0"
     inkscape:pageshadow="2"
     inkscape:zoom="1.6614269"
     inkscape:cx="-6.8843007"
     inkscape:cy="103.35348"
     inkscape:document-units="px"
     inkscape:current-layer="layer1"
     showgrid="false"
     inkscape:window-width="1434"
     inkscape:window-height="850"
     inkscape:window-x="0"
     inkscape:window-y="26"
     inkscape:window-maximized="1"
     showguides="true"
     inkscape:guide-bbox="true" />
  <metadata
     id="metadata5126">
    <rdf:RDF>
      <cc:Work
         rdf:about="">
        <dc:format>image/svg+xml</dc:format>
        <dc:type
           rdf:resource="http://purl.org/dc/dcmitype/StillImage" />
        <dc:title />
      </cc:Work>
    </rdf:RDF>
  </metadata>
  <g
     inkscape:label="Capa 1"
     inkscape:groupmode="layer"
     id="layer1"
     transform="translate(0,-796.36218)">
    <path
       style="fill:#666666;fill-opacity:1;stroke:none"
       d="M 24.09375 -0.125 L 24.09375 256.53125 L 203.1875 256.53125 C 177.80654 219.73466 155.95335 188.75324 149.75 185.8125 L 146.875 184.4375 C 132.45779 177.60331 119.6422 181.27012 107.40625 175.46875 L 104.53125 174.125 C 78.958542 162.00235 81.117869 143.15239 83.4375 124.15625 L 109.15625 144.6875 C 111.00598 146.30594 111.58123 146.13199 116.59375 144.21875 L 144.4375 134.5625 C 151.39858 114.99186 154.13447 107.1457 150.4375 104.25 L 126.375 85.375 C 139.15004 78.37623 155.55054 78.10407 173.0625 86.40625 C 212.53964 105.12076 180.9247 147.37389 192.03125 166.28125 C 204.32324 187.20283 218.68396 205.5254 234.96875 226.1875 L 234.875 256.53125 L 234.90625 256.53125 L 235.5625 73.03125 L 175.34375 -0.125 L 24.09375 -0.125 z "
       transform="translate(0,796.36218)"
       id="rect4897-1-2" />
  </g>
</svg>
