<?xml version="1.0" encoding="UTF-8" standalone="no"?>
<!-- Created with Inkscape (http://www.inkscape.org/) -->

<svg
   xmlns:dc="http://purl.org/dc/elements/1.1/"
   xmlns:cc="http://creativecommons.org/ns#"
   xmlns:rdf="http://www.w3.org/1999/02/22-rdf-syntax-ns#"
   xmlns:svg="http://www.w3.org/2000/svg"
   xmlns="http://www.w3.org/2000/svg"
   xmlns:sodipodi="http://sodipodi.sourceforge.net/DTD/sodipodi-0.dtd"
   xmlns:inkscape="http://www.inkscape.org/namespaces/inkscape"
   width="256"
   height="256"
   id="svg2"
   version="1.1"
   inkscape:version="0.48.2 r9819"
   sodipodi:docname="drive-harddisk-system.svg">
  <defs
     id="defs4">
    <inkscape:perspective
       sodipodi:type="inkscape:persp3d"
       inkscape:vp_x="0 : 526.18109 : 1"
       inkscape:vp_y="0 : 1000 : 0"
       inkscape:vp_z="744.09448 : 526.18109 : 1"
       inkscape:persp3d-origin="372.04724 : 350.78739 : 1"
       id="perspective4095" />
  </defs>
  <sodipodi:namedview
     id="base"
     pagecolor="#ffffff"
     bordercolor="#666666"
     borderopacity="1.0"
     inkscape:pageopacity="0.0"
     inkscape:pageshadow="2"
     inkscape:zoom="1.2484714"
     inkscape:cx="-31.469279"
     inkscape:cy="114.15496"
     inkscape:document-units="px"
     inkscape:current-layer="layer1"
     showgrid="false"
     showguides="true"
     inkscape:guide-bbox="true"
     inkscape:window-width="1680"
     inkscape:window-height="953"
     inkscape:window-x="0"
     inkscape:window-y="31"
     inkscape:window-maximized="1" />
  <metadata
     id="metadata7">
    <rdf:RDF>
      <cc:Work
         rdf:about="">
        <dc:format>image/svg+xml</dc:format>
        <dc:type
           rdf:resource="http://purl.org/dc/dcmitype/StillImage" />
        <dc:title />
      </cc:Work>
    </rdf:RDF>
  </metadata>
  <g
     inkscape:label="Layer 1"
     inkscape:groupmode="layer"
     id="layer1"
     transform="translate(0,-796.3622)">
    <g
       id="g3762"
       transform="translate(274.73598,3.2039181)">
      <path
         id="rect2986"
         transform="translate(0,796.3622)"
         d="m -228.59375,2.125 c -18.43162,0 -33.28125,14.849632 -33.28125,33.28125 l 0,179.25 c 0,18.43162 14.84963,33.28125 33.28125,33.28125 l 165.96875,0 c 18.431618,0 33.28125,-14.84963 33.28125,-33.28125 l 0,-179.25 C -29.34375,16.974632 -44.193382,2.125 -62.625,2.125 l -165.96875,0 z M -145.75,19.0625 c 0.90951,-0.02359 1.80983,-0.0208 2.6875,0 52.660311,1.2479 97.212672,41.67132 102.46875,95.1875 l 0,2.09375 c 4.426339,58.08812 -39.19313,108.97995 -97.28125,113.40625 -58.08813,4.4263 -108.44865,-39.19313 -112.875,-97.28125 -4.42634,-58.08813 38.66187,-108.4799 96.75,-112.90625 2.68091,-0.204285 5.52148,-0.429224 8.25,-0.5 z m -1.34375,49.28125 c -0.91004,0.0235 -1.80051,0.05503 -2.71875,0.125 -29.84356,2.27409 -52.24284,28.43769 -49.96875,58.28125 2.27409,29.84356 27.90644,52.2116 57.75,49.9375 29.84356,-2.2741 52.211599,-28.43769 49.9375,-58.28125 l 0,-1.03125 c -2.790385,-28.411151 -26.78861,-49.759685 -55,-49.03125 z m 2.1875,42.6875 c 5.00174,0.11853 9.21952,3.94822 9.71875,9.03125 l 0.0312,0.21875 c 0.42042,5.51728 -3.70147,10.32958 -9.21875,10.75 -5.51728,0.42042 -10.32958,-3.70147 -10.75,-9.21875 -0.42042,-5.51728 3.70147,-10.32958 9.21875,-10.75 0.33952,-0.0259 0.66655,-0.0392 1,-0.0312 z"
         style="fill:#6c4477;fill-opacity:1;stroke:none"
         inkscape:connector-curvature="0" />
      <path
         transform="translate(0,796.3622)"
         inkscape:connector-curvature="0"
         id="path2988"
         d="m -228.27917,209.54319 c 6.40784,-8.81078 30.43723,-34.44212 30.43723,-34.44212 l 20.02448,12.81567 -29.63624,35.2431 z"
         style="fill:#6c4477;fill-opacity:1;stroke:none" />
    </g>
  </g>
</svg>
