<?xml version="1.0" encoding="UTF-8" standalone="no"?>
<!-- Created with Inkscape (http://www.inkscape.org/) -->

<svg
   xmlns:dc="http://purl.org/dc/elements/1.1/"
   xmlns:cc="http://creativecommons.org/ns#"
   xmlns:rdf="http://www.w3.org/1999/02/22-rdf-syntax-ns#"
   xmlns:svg="http://www.w3.org/2000/svg"
   xmlns="http://www.w3.org/2000/svg"
   xmlns:sodipodi="http://sodipodi.sourceforge.net/DTD/sodipodi-0.dtd"
   xmlns:inkscape="http://www.inkscape.org/namespaces/inkscape"
   width="256"
   height="256"
   id="svg2"
   version="1.1"
   inkscape:version="0.48.2 r9819"
   sodipodi:docname="navegador.svg">
  <defs
     id="defs4" />
  <sodipodi:namedview
     id="base"
     pagecolor="#ffffff"
     bordercolor="#666666"
     borderopacity="1.0"
     inkscape:pageopacity="0.0"
     inkscape:pageshadow="2"
     inkscape:zoom="0.98994949"
     inkscape:cx="-252.74161"
     inkscape:cy="-28.736591"
     inkscape:document-units="px"
     inkscape:current-layer="layer1"
     showgrid="false"
     inkscape:window-width="1680"
     inkscape:window-height="995"
     inkscape:window-x="-2"
     inkscape:window-y="-3"
     inkscape:window-maximized="1" />
  <metadata
     id="metadata7">
    <rdf:RDF>
      <cc:Work
         rdf:about="">
        <dc:format>image/svg+xml</dc:format>
        <dc:type
           rdf:resource="http://purl.org/dc/dcmitype/StillImage" />
        <dc:title></dc:title>
      </cc:Work>
    </rdf:RDF>
  </metadata>
  <g
     inkscape:label="Layer 1"
     inkscape:groupmode="layer"
     id="layer1"
     transform="translate(0,-796.36218)">
    <g
       id="g3878"
       transform="matrix(0.85595561,0,0,0.99345253,135.89256,-257.3441)">
      <path
         inkscape:connector-curvature="0"
         id="rect3066"
         d="m -89.866072,1117.3577 c -1.65329,0 -3,1.3467 -3,3 l 0,148.3125 c 0,1.6533 1.34671,2.9688 3,2.9688 l 221.156252,0 c 1.65329,0 3,-1.3155 3,-2.9688 l 0,-148.3125 c 0,-1.6533 -1.34671,-3 -3,-3 l -9.5625,0 -103.156252,97.1563 -95.09375,-97.1563 -13.34375,0 z m 30.1875,0 80.40625,77.1563 84.937502,-77.1563 -165.343752,0 z"
         style="opacity:0.95614032;fill:#614868;fill-opacity:1;stroke:none" />
      <path
         sodipodi:nodetypes="czc"
         transform="translate(0,796.36218)"
         inkscape:connector-curvature="0"
         id="path3076"
         d="m -151.42857,358.85714 c 0,0 10.59524,-11.57738 26.07143,-1.29464 15.47619,10.28274 26.071426,-1.29464 26.071426,-1.29464"
         style="fill:none;stroke:#4b7744;stroke-width:10.19999981;stroke-linecap:butt;stroke-linejoin:miter;stroke-miterlimit:4;stroke-opacity:1;stroke-dasharray:none" />
      <path
         sodipodi:nodetypes="czc"
         inkscape:connector-curvature="0"
         id="path3076-3"
         d="m -152.5,1182.9426 c 0,0 10.59524,-11.5774 26.07143,-1.2947 15.47619,10.2828 26.07143,-1.2946 26.07143,-1.2946"
         style="fill:none;stroke:#4b7744;stroke-width:10.19999981;stroke-linecap:butt;stroke-linejoin:miter;stroke-miterlimit:4;stroke-opacity:1;stroke-dasharray:none" />
      <path
         sodipodi:nodetypes="czc"
         inkscape:connector-curvature="0"
         id="path3076-31"
         d="m -151.07142,1209.3711 c 0,0 10.59524,-11.5774 26.07143,-1.2947 15.47618,10.2828 26.071418,-1.2946 26.071418,-1.2946"
         style="fill:none;stroke:#4b7744;stroke-width:10.19999981;stroke-linecap:butt;stroke-linejoin:miter;stroke-miterlimit:4;stroke-opacity:1;stroke-dasharray:none" />
      <path
         sodipodi:nodetypes="czc"
         inkscape:connector-curvature="0"
         id="path3076-7"
         d="m -150.35714,1236.514 c 0,0 10.59524,-11.5774 26.07143,-1.2947 15.47619,10.2828 26.071424,-1.2946 26.071424,-1.2946"
         style="fill:none;stroke:#4b7744;stroke-width:10.19999981;stroke-linecap:butt;stroke-linejoin:miter;stroke-miterlimit:4;stroke-opacity:1;stroke-dasharray:none" />
    </g>
  </g>
</svg>
