<?xml version="1.0" encoding="UTF-8" standalone="no"?>
<!-- Created with Inkscape (http://www.inkscape.org/) -->

<svg
   xmlns:dc="http://purl.org/dc/elements/1.1/"
   xmlns:cc="http://creativecommons.org/ns#"
   xmlns:rdf="http://www.w3.org/1999/02/22-rdf-syntax-ns#"
   xmlns:svg="http://www.w3.org/2000/svg"
   xmlns="http://www.w3.org/2000/svg"
   xmlns:sodipodi="http://sodipodi.sourceforge.net/DTD/sodipodi-0.dtd"
   xmlns:inkscape="http://www.inkscape.org/namespaces/inkscape"
   width="256"
   height="256"
   id="svg4374"
   version="1.1"
   inkscape:version="0.48.3.1 r9886"
   sodipodi:docname="fileopen.svg">
  <defs
     id="defs4376" />
  <sodipodi:namedview
     id="base"
     pagecolor="#ffffff"
     bordercolor="#666666"
     borderopacity="1.0"
     inkscape:pageopacity="0.0"
     inkscape:pageshadow="2"
     inkscape:zoom="1.7124294"
     inkscape:cx="154.9802"
     inkscape:cy="98.571429"
     inkscape:document-units="px"
     inkscape:current-layer="layer1"
     showgrid="false"
     inkscape:window-width="1434"
     inkscape:window-height="850"
     inkscape:window-x="0"
     inkscape:window-y="26"
     inkscape:window-maximized="1" />
  <metadata
     id="metadata4379">
    <rdf:RDF>
      <cc:Work
         rdf:about="">
        <dc:format>image/svg+xml</dc:format>
        <dc:type
           rdf:resource="http://purl.org/dc/dcmitype/StillImage" />
        <dc:title></dc:title>
      </cc:Work>
    </rdf:RDF>
  </metadata>
  <g
     inkscape:label="Capa 1"
     inkscape:groupmode="layer"
     id="layer1"
     transform="translate(0,-796.36218)">
    <g
       inkscape:label="status"
       transform="matrix(15.380155,0,0,15.793058,-2457.1486,-9413.8287)"
       id="layer9"
       style="fill:#666666;fill-opacity:1;display:inline" />
    <g
       style="fill:#666666;fill-opacity:1"
       inkscape:label="devices"
       transform="matrix(15.380155,0,0,15.793058,-2457.1486,-9413.8287)"
       id="layer10" />
    <g
       style="fill:#666666;fill-opacity:1"
       inkscape:label="apps"
       transform="matrix(15.380155,0,0,15.793058,-2457.1486,-9413.8287)"
       id="layer11" />
    <g
       style="fill:#666666;fill-opacity:1"
       inkscape:label="actions"
       transform="matrix(15.380155,0,0,15.793058,-2457.1486,-9413.8287)"
       id="layer12">
      <path
         inkscape:connector-curvature="0"
         d="m 160.53145,651 c -0.28913,0 -0.53125,0.2421 -0.53125,0.5313 l 0,9.9375 c 0,0.2985 0.23264,0.5312 0.53125,0.5312 l 13.8125,0 c 0.2986,0 0.53125,-0.2326 0.53125,-0.5312 l 1.125,-4.9159 c 0,-0.2891 -0.24212,-0.5312 -0.53125,-0.5312 l -11.59375,0 -0.875,3.4783 c 0,0.277 -0.223,0.5 -0.5,0.5 -0.277,0 -0.5,-0.223 -0.5,-0.5 l 0,-4.9966 c 0,-0.277 0.223,-0.5 0.5,-0.5 l 3.04803,0 0,-3.0034 z"
         id="rect3845-5-8"
         sodipodi:nodetypes="ccccccccccscccccc"
         style="fill:#666666;fill-opacity:1;stroke:none;display:inline" />
    </g>
    <g
       style="fill:#666666;fill-opacity:1"
       inkscape:label="places"
       transform="matrix(15.380155,0,0,15.793058,-2457.1486,-9413.8287)"
       id="layer13" />
    <g
       style="fill:#666666;fill-opacity:1"
       inkscape:label="mimetypes"
       transform="matrix(15.380155,0,0,15.793058,-2457.1486,-9413.8287)"
       id="layer14" />
    <g
       inkscape:label="emblems"
       transform="matrix(15.380155,0,0,15.793058,-2457.1486,-9413.8287)"
       id="layer15"
       style="fill:#666666;fill-opacity:1;display:inline" />
    <g
       inkscape:label="categories"
       transform="matrix(15.380155,0,0,15.793058,-2457.1486,-9413.8287)"
       id="g4953"
       style="fill:#666666;fill-opacity:1;display:inline" />
    <rect
       style="fill:#666666;fill-opacity:1;fill-rule:nonzero;stroke:none"
       height="31.12529"
       id="rect3764"
       width="93.375557"
       y="866.86548"
       x="112.15089" />
    <rect
       transform="matrix(0,1,-1,0,0,0)"
       style="fill:#666666;fill-opacity:1;fill-rule:nonzero;stroke:none"
       id="rect3766"
       height="31.12529"
       width="93.37587"
       x="835.74023"
       y="-174.40135" />
  </g>
</svg>
