<?xml version="1.0" encoding="UTF-8" standalone="no"?>
<!-- Created with Inkscape (http://www.inkscape.org/) -->

<svg
   xmlns:dc="http://purl.org/dc/elements/1.1/"
   xmlns:cc="http://creativecommons.org/ns#"
   xmlns:rdf="http://www.w3.org/1999/02/22-rdf-syntax-ns#"
   xmlns:svg="http://www.w3.org/2000/svg"
   xmlns="http://www.w3.org/2000/svg"
   xmlns:xlink="http://www.w3.org/1999/xlink"
   xmlns:sodipodi="http://sodipodi.sourceforge.net/DTD/sodipodi-0.dtd"
   xmlns:inkscape="http://www.inkscape.org/namespaces/inkscape"
   width="256"
   height="256"
   id="svg2"
   version="1.1"
   inkscape:version="0.48.3.1 r9886"
   sodipodi:docname="folder-download2.svg">
  <defs
     id="defs4">
    <linearGradient
       id="linearGradient4195">
      <stop
         id="stop4197"
         offset="0"
         style="stop-color:#737373;stop-opacity:1;" />
      <stop
         id="stop4199"
         offset="1"
         style="stop-color:#cfcfcf;stop-opacity:1;" />
    </linearGradient>
    <linearGradient
       id="linearGradient4110">
      <stop
         style="stop-color:#000000;stop-opacity:1;"
         offset="0"
         id="stop4112" />
      <stop
         style="stop-color:#ffffff;stop-opacity:1;"
         offset="1"
         id="stop4114" />
    </linearGradient>
    <linearGradient
       inkscape:collect="always"
       id="linearGradient4019">
      <stop
         style="stop-color:#ffffff;stop-opacity:1;"
         offset="0"
         id="stop4021" />
      <stop
         style="stop-color:#ffffff;stop-opacity:0;"
         offset="1"
         id="stop4023" />
    </linearGradient>
    <linearGradient
       inkscape:collect="always"
       id="linearGradient3977">
      <stop
         style="stop-color:#000000;stop-opacity:1;"
         offset="0"
         id="stop3979" />
      <stop
         style="stop-color:#000000;stop-opacity:0;"
         offset="1"
         id="stop3981" />
    </linearGradient>
    <linearGradient
       id="linearGradient3864">
      <stop
         style="stop-color:#ffffff;stop-opacity:1;"
         offset="0"
         id="stop3866" />
      <stop
         style="stop-color:#d5d5d5;stop-opacity:0;"
         offset="1"
         id="stop3868" />
    </linearGradient>
    <linearGradient
       id="linearGradient3844">
      <stop
         style="stop-color:#b3cbdb;stop-opacity:1;"
         offset="0"
         id="stop3846" />
      <stop
         style="stop-color:#46aff7;stop-opacity:0;"
         offset="1"
         id="stop3848" />
    </linearGradient>
    <linearGradient
       id="linearGradient3815">
      <stop
         style="stop-color:#e0f2fe;stop-opacity:1;"
         offset="0"
         id="stop3817" />
      <stop
         style="stop-color:#075e99;stop-opacity:1;"
         offset="1"
         id="stop3819" />
    </linearGradient>
    <linearGradient
       id="linearGradient3805">
      <stop
         style="stop-color:#989898;stop-opacity:1;"
         offset="0"
         id="stop3807" />
      <stop
         style="stop-color:#2a2a2a;stop-opacity:0.94968551;"
         offset="1"
         id="stop3809" />
    </linearGradient>
    <linearGradient
       id="linearGradient3797">
      <stop
         style="stop-color:#fafafa;stop-opacity:1;"
         offset="0"
         id="stop3799" />
      <stop
         style="stop-color:#e3e3e3;stop-opacity:0;"
         offset="1"
         id="stop3801" />
    </linearGradient>
    <linearGradient
       id="linearGradient3927">
      <stop
         id="stop3929"
         offset="0"
         style="stop-color:#9d9d9d;stop-opacity:1;" />
      <stop
         id="stop3931"
         offset="1"
         style="stop-color:#ffffff;stop-opacity:1;" />
    </linearGradient>
    <linearGradient
       id="linearGradient3909">
      <stop
         style="stop-color:#909090;stop-opacity:1;"
         offset="0"
         id="stop3911" />
      <stop
         style="stop-color:#cfcfcf;stop-opacity:1;"
         offset="1"
         id="stop3913" />
    </linearGradient>
    <linearGradient
       id="linearGradient3893">
      <stop
         style="stop-color:#c4c4c4;stop-opacity:0;"
         offset="0"
         id="stop3895" />
      <stop
         style="stop-color:#ffffff;stop-opacity:0.7610063;"
         offset="1"
         id="stop3897" />
    </linearGradient>
    <linearGradient
       id="linearGradient3885">
      <stop
         style="stop-color:#5e5e5e;stop-opacity:1;"
         offset="0"
         id="stop3887" />
      <stop
         style="stop-color:#5e5e5e;stop-opacity:0;"
         offset="1"
         id="stop3889" />
    </linearGradient>
    <inkscape:perspective
       sodipodi:type="inkscape:persp3d"
       inkscape:vp_x="0 : 526.18109 : 1"
       inkscape:vp_y="0 : 1000 : 0"
       inkscape:vp_z="744.09448 : 526.18109 : 1"
       inkscape:persp3d-origin="372.04724 : 350.78739 : 1"
       id="perspective4095" />
    <linearGradient
       inkscape:collect="always"
       xlink:href="#linearGradient3909-0"
       id="linearGradient3915-2"
       x1="199.8031"
       y1="836.57288"
       x2="199.41623"
       y2="944.70508"
       gradientUnits="userSpaceOnUse"
       gradientTransform="translate(0.80097946,7.2088156)" />
    <linearGradient
       id="linearGradient3909-0">
      <stop
         style="stop-color:#68a5cd;stop-opacity:1;"
         offset="0"
         id="stop3911-8" />
      <stop
         style="stop-color:#265371;stop-opacity:1;"
         offset="1"
         id="stop3913-1" />
    </linearGradient>
    <linearGradient
       id="linearGradient3893-6">
      <stop
         style="stop-color:#c1b98f;stop-opacity:1;"
         offset="0"
         id="stop3895-8" />
      <stop
         style="stop-color:#f3f3b2;stop-opacity:1;"
         offset="1"
         id="stop3897-5" />
    </linearGradient>
    <linearGradient
       inkscape:collect="always"
       xlink:href="#linearGradient3893-65"
       id="linearGradient3899-1"
       x1="100.63504"
       y1="1028.9939"
       x2="114.60532"
       y2="832.35358"
       gradientUnits="userSpaceOnUse"
       gradientTransform="translate(0.40048975,-2.0122243e-8)" />
    <linearGradient
       id="linearGradient3893-65">
      <stop
         style="stop-color:#d4d4d4;stop-opacity:1;"
         offset="0"
         id="stop3895-3" />
      <stop
         style="stop-color:#f7f7f7;stop-opacity:1;"
         offset="1"
         id="stop3897-4" />
    </linearGradient>
    <linearGradient
       inkscape:collect="always"
       xlink:href="#linearGradient3805"
       id="linearGradient3811"
       x1="141.3316"
       y1="860.94348"
       x2="141.74571"
       y2="895.38562"
       gradientUnits="userSpaceOnUse"
       gradientTransform="translate(-3.964646,-19.823233)" />
    <linearGradient
       inkscape:collect="always"
       xlink:href="#linearGradient3864"
       id="linearGradient3900"
       gradientUnits="userSpaceOnUse"
       gradientTransform="translate(-0.21447544,778.76626)"
       x1="88.986542"
       y1="81.555557"
       x2="88.84317"
       y2="129.87335" />
    <linearGradient
       inkscape:collect="always"
       xlink:href="#linearGradient3909"
       id="linearGradient3903"
       gradientUnits="userSpaceOnUse"
       gradientTransform="translate(0.60330562,-20.850577)"
       x1="107.04288"
       y1="1026.5909"
       x2="113.80436"
       y2="879.61139" />
    <linearGradient
       inkscape:collect="always"
       xlink:href="#linearGradient3815"
       id="linearGradient3922"
       x1="188.3951"
       y1="277.65305"
       x2="179.10686"
       y2="341.3754"
       gradientUnits="userSpaceOnUse"
       gradientTransform="matrix(0.87113587,0,0,0.99710516,-106.28515,599.9485)" />
    <linearGradient
       inkscape:collect="always"
       xlink:href="#linearGradient3815-1"
       id="linearGradient3922-2"
       x1="175.41451"
       y1="274.02203"
       x2="165.80275"
       y2="406.18365"
       gradientUnits="userSpaceOnUse"
       gradientTransform="matrix(0.87113587,0,0,0.99710516,-111.73121,580.88048)" />
    <linearGradient
       id="linearGradient3815-1">
      <stop
         style="stop-color:#e0f2fe;stop-opacity:1;"
         offset="0"
         id="stop3817-9" />
      <stop
         style="stop-color:#01131f;stop-opacity:1;"
         offset="1"
         id="stop3819-2" />
    </linearGradient>
    <linearGradient
       y2="327.96552"
       x2="195.48367"
       y1="272.6918"
       x1="205.841"
       gradientTransform="matrix(0.87113587,0,0,0.99710516,-208.26129,580.02957)"
       gradientUnits="userSpaceOnUse"
       id="linearGradient3939"
       xlink:href="#linearGradient3815-1"
       inkscape:collect="always" />
    <linearGradient
       inkscape:collect="always"
       xlink:href="#linearGradient3977"
       id="linearGradient3983"
       x1="114.40766"
       y1="858.7608"
       x2="252.52723"
       y2="932.05042"
       gradientUnits="userSpaceOnUse" />
    <radialGradient
       inkscape:collect="always"
       xlink:href="#linearGradient4019"
       id="radialGradient4025"
       cx="120.92171"
       cy="141.02525"
       fx="120.92171"
       fy="141.02525"
       r="127.60499"
       gradientTransform="matrix(0.67948535,0.00596595,-0.00506566,0.54621211,39.471564,63.274139)"
       gradientUnits="userSpaceOnUse" />
    <filter
       inkscape:collect="always"
       id="filter4063"
       x="-0.24069887"
       width="1.4813977"
       y="-0.30262623"
       height="1.6052525">
      <feGaussianBlur
         inkscape:collect="always"
         stdDeviation="14.711907"
         id="feGaussianBlur4065" />
    </filter>
    <filter
       inkscape:collect="always"
       id="filter4069">
      <feGaussianBlur
         inkscape:collect="always"
         stdDeviation="2.7220785"
         id="feGaussianBlur4071" />
    </filter>
    <linearGradient
       inkscape:collect="always"
       xlink:href="#linearGradient4110"
       id="linearGradient4116"
       x1="94.708099"
       y1="150.68385"
       x2="94.973137"
       y2="216.26152"
       gradientUnits="userSpaceOnUse"
       gradientTransform="matrix(1.1540455,0,0,1.1540455,-16.091505,764.46222)" />
    <linearGradient
       inkscape:collect="always"
       xlink:href="#linearGradient4110"
       id="linearGradient4142"
       x1="114.25048"
       y1="860.32739"
       x2="116.63186"
       y2="918.79889"
       gradientUnits="userSpaceOnUse"
       gradientTransform="matrix(1.1540455,0,0,1.1540455,-37.12085,-126.15169)" />
  </defs>
  <sodipodi:namedview
     id="base"
     pagecolor="#ffffff"
     bordercolor="#666666"
     borderopacity="1.0"
     inkscape:pageopacity="0.0"
     inkscape:pageshadow="2"
     inkscape:zoom="1.7656052"
     inkscape:cx="6.5985053"
     inkscape:cy="119.30564"
     inkscape:document-units="px"
     inkscape:current-layer="layer1"
     showgrid="false"
     showguides="true"
     inkscape:guide-bbox="true"
     inkscape:window-width="1434"
     inkscape:window-height="850"
     inkscape:window-x="0"
     inkscape:window-y="26"
     inkscape:window-maximized="1" />
  <metadata
     id="metadata7">
    <rdf:RDF>
      <cc:Work
         rdf:about="">
        <dc:format>image/svg+xml</dc:format>
        <dc:type
           rdf:resource="http://purl.org/dc/dcmitype/StillImage" />
        <dc:title></dc:title>
      </cc:Work>
    </rdf:RDF>
  </metadata>
  <g
     inkscape:label="Layer 1"
     inkscape:groupmode="layer"
     id="layer1"
     transform="translate(0,-796.3622)">
    <path
       style="fill:url(#linearGradient3811);fill-opacity:1;stroke:none"
       d="m 236.21884,898.72113 c 0,0 -0.0195,-54.482 -0.0265,-60.1348 -0.007,-5.6527 -2.14009,-15.8354 -16.97977,-15.6991 -14.83967,0.1771 -34.99919,0.3719 -44.11972,0.3896 -9.12056,0.018 -11.50069,10.5263 -11.50069,10.5263 0,0 -112.497246,0.5313 -129.255246,0.5313 -16.758,0 -14.7975,10.884 -14.48406,35.025 0.029,2.2384 -3.49393,21.9838 5.56861,21.8032 47.40723,-4.529 211.173756,0.9778 210.797376,7.5585 z"
       id="path3769"
       inkscape:connector-curvature="0"
       sodipodi:nodetypes="cczzczscc" />
    <rect
       style="opacity:0.26506025000000000;fill:#0d0d0d;fill-opacity:1;stroke:none;filter:url(#filter4069)"
       id="rect4067"
       width="60.473953"
       height="72.889137"
       x="-57.709446"
       y="856.7301"
       transform="matrix(0.96934222,-0.24571459,0.24571459,0.96934222,0,0)" />
    <rect
       style="fill:url(#linearGradient3939);fill-opacity:1;stroke:none"
       id="rect3905-1"
       width="200.95544"
       height="133.37636"
       x="-190.11949"
       y="852.85889"
       transform="matrix(0.9632612,-0.26856631,0.2269135,0.97391492,0,0)" />
    <rect
       style="fill:url(#linearGradient3922);fill-opacity:1;stroke:none"
       id="rect3905"
       width="200.95544"
       height="133.37636"
       x="-88.143364"
       y="872.77789"
       transform="matrix(0.98445161,-0.175656,0.13317822,0.99109211,0,0)" />
    <path
       style="fill:url(#linearGradient3903);fill-opacity:1;stroke:url(#linearGradient3983)"
       d="m 167.1696,882.89394 c 29.09008,0 22.96757,-0.80098 53.95009,-0.80098 17.36451,0 32.12293,13.95823 31.38071,31.30612 l -3.35398,78.39195 c -0.74222,17.34787 -6.11869,18.16527 -23.48317,18.18447 l -192.001174,0.2125 c -17.364483,0.019 -23.278359,-2.7357 -23.771415,-20.09237 L 6.7228456,878.58125 c -0.493058,-17.35677 1.7235216,-22.56386 20.6607814,-22.6772 18.93726,-0.17709 79.863073,0.0598 104.053033,-0.16668 24.18996,-0.22652 35.70565,3.95058 35.73294,27.15657 z"
       id="rect2995-2"
       inkscape:connector-curvature="0"
       sodipodi:nodetypes="ccsssssszcc" />
    <path
       sodipodi:type="arc"
       style="opacity:0.26506025;fill:url(#radialGradient4025);fill-opacity:1;stroke:none;filter:url(#filter4063)"
       id="path3985"
       sodipodi:cx="120.92171"
       sodipodi:cy="141.02525"
       sodipodi:rx="73.345955"
       sodipodi:ry="58.336941"
       d="m 194.26766,141.02525 a 73.345955,58.336941 0 1 1 -7.21304,-25.22788"
       transform="matrix(1.4119049,0,0,1.0506194,-39.629102,794.03941)"
       sodipodi:start="0"
       sodipodi:end="5.8359757"
       sodipodi:open="true" />
    <path
       style="fill:none;stroke:#000000;stroke-width:3;stroke-miterlimit:4;stroke-opacity:1;stroke-dasharray:none"
       d="m 218.66346,822.79243 c -14.83967,0.17709 -35.00447,0.38854 -44.125,0.40625 -9.12056,0.0177 -11.5,10.53125 -11.5,10.53125 0,0 -112.491997,0.53125 -129.249997,0.53125 -13.14408,0 -14.77891,6.71327 -14.71875,21.25 C 4.3245434,856.84954 5.197647,867.8268 5.5656132,883.47582 l 2.3187645,98.61335 c 0.4081716,17.35889 0.4174471,27.93623 18.3483053,28.19743 l 208.273177,0.6309 c 17.36447,-0.022 14.56415,-14.73152 15.45391,-30.80866 l 3.08622,-66.35154 c 1.35661,-10.12593 -6.59189,-24.27061 -17.38253,-30.00365 -0.004,-12.08907 -0.0253,-40.45644 -0.0313,-45.24247 -0.007,-5.65274 -2.12907,-15.85511 -16.96875,-15.71875 z"
       id="path3769-8"
       inkscape:connector-curvature="0"
       sodipodi:nodetypes="cscscsscccccccc" />
    <path
       style="fill:none;stroke:url(#linearGradient3900);stroke-width:5;stroke-linecap:butt;stroke-linejoin:miter;stroke-miterlimit:4;stroke-opacity:1;stroke-dasharray:none"
       d="m 12.265967,963.4858 c 0,0 -3.0479033,-88.14302 -1.931649,-94.73911 0.995518,-5.88266 3.256672,-10.124 14.230247,-10.05321 3.974664,0.0256 113.912775,0.63718 113.912775,0.63718 0,0 17.77658,-1.26515 22.51355,8.70806 4.07469,8.57883 2.33631,17.84093 2.33631,17.84093 0,0 53.94749,-1.20357 59.04489,-0.63719 5.0974,0.56638 17.41614,3.11508 24.21267,14.01785"
       id="path3854"
       inkscape:connector-curvature="0"
       sodipodi:nodetypes="csscscsc" />
    <path
       style="fill:#4d4d4d;fill-opacity:1;stroke:none"
       d="m 116.27522,869.86587 1.11953,41.66738 17.43072,0.26204 c -17.85156,19.10507 -27.85381,28.80174 -40.298529,39.9258 C 75.725075,931.85953 63.677768,921.99818 54.661531,911.4995 l 15.130432,0.61775 0.0739,-42.04231 c 14.311534,-0.18607 28.817943,0.66676 46.409347,-0.20907 z"
       id="path3050-1"
       inkscape:connector-curvature="0"
       sodipodi:nodetypes="cccccccc" />
    <path
       sodipodi:nodetypes="cczcczc"
       class="fil1"
       d="m 38.903324,939.28599 c 8.190941,0 11.463749,0 20.616322,0 0,26.34566 -0.752361,36.25548 35.007295,36.22087 35.759649,-0.0346 36.431909,-9.09278 36.431909,-36.22087 0,0 12.83385,0 20.18887,0 0,31.12055 0.0945,57.64188 -56.582699,57.29882 -56.67726,-0.34308 -55.661697,-25.33843 -55.661697,-57.29882 z"
       id="path12-8"
       inkscape:connector-curvature="0"
       style="fill:#0d0d0d;fill-opacity:1;fill-rule:nonzero" />
    <path
       style="fill:none;stroke:url(#linearGradient4142);stroke-width:4.0391593;stroke-miterlimit:4;stroke-dasharray:none"
       d="m 116.59532,869.68502 1.11953,41.66738 17.43071,0.26204 C 117.294,930.71951 107.29175,940.41618 94.847041,951.54024 76.045174,931.67868 63.997867,921.81733 54.98163,911.31865 l 15.130432,0.61775 0.07391,-42.04231 c 14.311538,-0.18607 28.817939,0.66676 46.409348,-0.20907 z"
       id="path3050-1-8"
       inkscape:connector-curvature="0"
       sodipodi:nodetypes="cccccccc" />
    <path
       style="fill:#4d4d4d;stroke:url(#linearGradient4116);stroke-width:4.61618185;stroke-linecap:butt;stroke-linejoin:miter;stroke-miterlimit:4;stroke-opacity:1;stroke-dasharray:none"
       d="m 38.976486,939.30386 c 0,0 -1.794599,35.35689 9.967797,44.60998 12.255487,9.64099 29.41317,13.56274 48.695138,12.90912 19.281969,-0.65363 35.459209,-3.59495 43.792949,-13.07252 8.55911,-9.73389 10.62141,-26.63526 9.80438,-44.28317 -6.04604,10e-6 -19.77219,0.16341 -19.77219,0.16341 0,0 1.47066,18.13812 -3.75834,25.32801 -5.22902,7.18989 -8.49715,10.94823 -29.086359,10.94823 -20.589221,0 -29.576579,-1.30724 -34.805586,-8.33372 -6.928497,-9.31017 -4.24857,-28.26934 -4.24857,-28.26934 z"
       id="path4108"
       inkscape:connector-curvature="0"
       sodipodi:nodetypes="csssccssscc" />
  </g>
</svg>
