<?xml version="1.0" encoding="UTF-8" standalone="no"?>
<!-- Creator: CorelDRAW -->

<svg
   xmlns:dc="http://purl.org/dc/elements/1.1/"
   xmlns:cc="http://creativecommons.org/ns#"
   xmlns:rdf="http://www.w3.org/1999/02/22-rdf-syntax-ns#"
   xmlns:svg="http://www.w3.org/2000/svg"
   xmlns="http://www.w3.org/2000/svg"
   xmlns:sodipodi="http://sodipodi.sourceforge.net/DTD/sodipodi-0.dtd"
   xmlns:inkscape="http://www.inkscape.org/namespaces/inkscape"
   xml:space="preserve"
   width="256"
   height="256"
   style="fill-rule:evenodd"
   viewBox="0 0 256 256"
   id="svg2"
   version="1.1"
   inkscape:version="0.48.3.1 r9886"
   sodipodi:docname="gnome-tweak-tool.svg"><metadata
   id="metadata18"><rdf:RDF><cc:Work
       rdf:about=""><dc:format>image/svg+xml</dc:format><dc:type
         rdf:resource="http://purl.org/dc/dcmitype/StillImage" /><dc:title /></cc:Work></rdf:RDF></metadata><sodipodi:namedview
   pagecolor="#53978c"
   bordercolor="#666666"
   borderopacity="1"
   objecttolerance="10"
   gridtolerance="10"
   guidetolerance="10"
   inkscape:pageopacity="0.42352941"
   inkscape:pageshadow="2"
   inkscape:window-width="1022"
   inkscape:window-height="746"
   id="namedview16"
   showgrid="false"
   inkscape:zoom="1.1698775"
   inkscape:cx="99.669756"
   inkscape:cy="153.22446"
   inkscape:window-x="1024"
   inkscape:window-y="0"
   inkscape:window-maximized="1"
   inkscape:current-layer="svg2"
   borderlayer="false"
   showborder="true"
   inkscape:showpageshadow="true" />
 <defs
   id="defs4"><style
     type="text/css"
     id="style6">
   
    .str0 {stroke:#1F1A17;stroke-width:2.83465}
    .fil0 {fill:#0093DD}
    .fil1 {fill:#1F1A17}
    .fil2 {fill:#3A2E2A}
   
  </style></defs>
 <path
   style="fill:#333333"
   inkscape:connector-curvature="0"
   id="path14"
   d="m -251.47252,227.99455 1.22032,2.14016 c 5.24553,9.20129 17.7293,12.6525 26.6698,7.64648 l 2.11607,-1.18347 c 13.33,-7.46506 101.43399,-173.944 113.21999,-180.545 l 2.11607,-1.183465 c 10.604405,-5.938602 20.028305,-2.7482 29.029705,-7.788212 l 2.11324,-1.18347 c 18.8108,-10.5322 17.2262,-26.9023 15.5197,-43.4071 l -18.9341,17.8286 c -1.36063,1.40599 -1.76882,1.27701 -5.45529,-0.385513 l -20.487505,-8.40617 c -5.1208,-17.0037 -7.14475,-23.8139 -4.4249,-26.3297 l 17.718005,-16.3985 c -9.396885,-6.08033 -21.475305,-6.3227 -34.356005,0.890082 -29.0368,16.2582 -5.78553,52.9599 -13.955,69.3881 -9.04113,18.177198 -27.9653,43.983898 -39.9431,61.935798 -13.90539,20.8404 -27.51169,40.9097 -41.13369,61.5956 -8.32396,12.6397 -39.474,50.5816 -31.0338,65.3856 z"
   class="fil2" />
<g
   id="g2995"
   transform="matrix(0.86708912,0,0,0.86708912,-6.8145511,38.538937)"><path
     inkscape:connector-curvature="0"
     id="polygon10"
     d="M 162.96875,91.84375 125.5,162.5625 l 36.75,70.6875 83.4375,0.6875 37.46875,-70.6875 -36.0625,-71.40625 -84.125,0 z m 43.15625,38.875 c 19.18958,0 34.71875,14.82112 34.71875,33.125 0,18.30388 -15.52917,33.15625 -34.71875,33.15625 -19.18958,0 -34.75,-14.85237 -34.75,-33.15625 0,-18.30388 15.56042,-33.125 34.75,-33.125 z"
     style="fill:#0074e4" /><g
     style="fill:#3d3d3d"
     transform="translate(-340.93655,-20.920659)"
     id="g3863"><path
       style="fill:#3d3d3d;fill-rule:evenodd"
       d="m 521.03125,-8.84375 c -8.89179,0.022804 -21.71726,4.1956212 -28.9375,17.5 -7.22024,13.304378 -0.6446,34.257732 -8.81407,50.685932 -25.21785,42.611598 -62.66807,91.527228 -80.18711,116.580328 -17.51903,25.05309 -42.19138,55.73989 -31.26368,71.82717 9.41664,15.48286 30.12262,15.45246 38.04689,0.63521 8.42043,-15.74497 98.81933,-162.348256 104.40665,-171.104816 5.58733,-8.756559 18.86858,-5.259035 23.77214,-6.907864 4.90355,-1.64883 6.5337,-2.906189 8.92564,-4.369857 C 537.88649,48.388192 524.25575,22.434227 517.5,9.09375 l 22.65625,-12.125 c -5.48752,-4.1348438 -12.20916,-5.8302368 -19.125,-5.8125 z m -3.3125,32.65625 16.375,29.90625 c 0,0 -13.20442,7.84228 -18.15625,11.25 C 512.99961,60.434857 498.59375,33.6875 498.59375,33.6875 z m -127.875,204.8125 c 5.89765,-0.20179 10.82946,4.41485 11.03125,10.3125 0.20163,5.89296 -4.38852,10.85424 -10.28125,11.0625 l -0.375,-10.6875 L 390.5625,250 c -5.89765,0.20179 -10.82946,-4.41485 -11.03125,-10.3125 -0.20179,-5.89765 4.41485,-10.86071 10.3125,-11.0625 z"
       id="path14-3"
       inkscape:connector-curvature="0"
       sodipodi:nodetypes="ssczcssscccscccccsscccss" /><path
       style="fill:#3d3d3d;fill-opacity:1;stroke:none"
       d="m 532.89828,31.384171 20.27514,-11.607919 c 0,0 -0.54588,18.857554 -10.73821,29.975422 -6.59407,-13.462216 -9.53693,-18.367503 -9.53693,-18.367503 z"
       id="path3077"
       inkscape:connector-curvature="0"
       sodipodi:nodetypes="cccc" /><path
       style="fill:#3d3d3d;fill-opacity:1;stroke:none"
       d="m 513.00914,30.643623 -5.6667,3.390725 1.41949,2.523353 -5.10427,3.792524 c 0,0 0.0593,2.399793 2.24677,3.804123 1.27174,-1.180809 4.71951,-3.670165 4.71951,-3.670165 l 2.09681,3.974465 -4.41512,3.924822 c 0,0 0.22361,2.28798 1.78057,3.079223 0.62083,-0.562078 4.65087,-3.709324 4.65087,-3.709324 l 2.33187,4.176569 -4.5103,3.733465 c 0,0 0.34623,1.524847 0.71077,2.175109 0.36455,0.650255 1.41742,1.662258 1.41742,1.662258 l 4.41772,-3.856261 c 0,0 0.11025,0.633977 1.11998,2.115528 1.20511,-0.515297 6.52711,-3.792027 6.52711,-3.792027 l -1.84671,-3.293174 4.26995,-3.641675 c 0,0 -0.28102,-0.984092 -0.90766,-2.087055 -0.62663,-1.102963 -1.3275,-1.460016 -1.3275,-1.460016 l -4.36824,3.653443 -2.05368,-3.648816 4.3743,-3.728282 c 0,0 -0.15389,-0.96318 -0.78559,-2.127581 -0.6317,-1.164399 -1.21774,-1.327144 -1.21774,-1.327144 l -4.36397,3.865244 -2.1929,-4.090004 c 1.18552,-1.382253 4.39969,-4.127128 4.39969,-4.127128 0,0 0.47708,-1.669253 -1.76445,-3.171214 -0.94868,0.868633 -4.80762,4.113776 -4.80762,4.113776 z"
       id="path3081"
       inkscape:connector-curvature="0"
       sodipodi:nodetypes="cccccccccccczcccccczcccczccccccc" /></g><path
     id="polygon10-4"
     d="m 44.995319,-13.358244 -25.522551,48.171418 25.032961,48.150136 56.835041,0.4683 25.52255,-48.150126 -24.56466,-48.639728 -57.303341,0 z m 29.3967,26.480446 c 13.07135,0 23.64934,10.095692 23.64934,22.563722 0,12.46804 -10.57799,22.585006 -23.64934,22.585006 -13.071347,0 -23.670623,-10.116966 -23.670623,-22.585006 0,-12.46803 10.599276,-22.563722 23.670623,-22.563722 z"
     style="fill:#0044d8;fill-rule:evenodd"
     inkscape:connector-curvature="0" /><g
     style="fill:#3d3d3d;fill-opacity:1;stroke:none"
     transform="translate(-153.52473,81.11661)"
     id="g3925"><rect
       style="fill:#3d3d3d;fill-opacity:1;stroke:none"
       id="rect3905"
       width="9.0664215"
       height="43.518822"
       x="355.40372"
       y="60.042053"
       rx="0.25111356"
       ry="0.33367321" /><rect
       style="fill:#3d3d3d;fill-opacity:1;fill-rule:evenodd;stroke:none"
       id="rect3905-6"
       width="9.0664215"
       height="43.518822"
       x="-86.334671"
       y="338.47971"
       rx="0.25111356"
       ry="0.33367321"
       transform="matrix(0,-1,1,0,0,0)" /></g></g></svg>