<?xml version="1.0" encoding="UTF-8" standalone="no"?>
<!-- Created with Inkscape (http://www.inkscape.org/) -->

<svg
   xmlns:dc="http://purl.org/dc/elements/1.1/"
   xmlns:cc="http://creativecommons.org/ns#"
   xmlns:rdf="http://www.w3.org/1999/02/22-rdf-syntax-ns#"
   xmlns:svg="http://www.w3.org/2000/svg"
   xmlns="http://www.w3.org/2000/svg"
   xmlns:xlink="http://www.w3.org/1999/xlink"
   xmlns:sodipodi="http://sodipodi.sourceforge.net/DTD/sodipodi-0.dtd"
   xmlns:inkscape="http://www.inkscape.org/namespaces/inkscape"
   version="1.1"
   width="48"
   height="48"
   id="svg1307"
   inkscape:version="0.48.3.1 r9886"
   sodipodi:docname="preferences-desktop.svg">
  <sodipodi:namedview
     pagecolor="#ffffff"
     bordercolor="#666666"
     borderopacity="1"
     objecttolerance="10"
     gridtolerance="10"
     guidetolerance="10"
     inkscape:pageopacity="0"
     inkscape:pageshadow="2"
     inkscape:window-width="1438"
     inkscape:window-height="827"
     id="namedview8"
     showgrid="false"
     inkscape:zoom="4.9166667"
     inkscape:cx="-48.915255"
     inkscape:cy="23.898305"
     inkscape:window-x="0"
     inkscape:window-y="25"
     inkscape:window-maximized="1"
     inkscape:current-layer="svg1307" />
  <defs
     id="defs1309">
    <linearGradient
       inkscape:collect="always"
       id="linearGradient3864">
      <stop
         style="stop-color:#000000;stop-opacity:1;"
         offset="0"
         id="stop3866" />
      <stop
         style="stop-color:#000000;stop-opacity:0;"
         offset="1"
         id="stop3868" />
    </linearGradient>
    <linearGradient
       y2="264.96301"
       x2="229.189"
       y1="75.677498"
       x1="77.762001"
       gradientUnits="userSpaceOnUse"
       id="id9-9-9">
      <stop
         id="stop3151-8-7"
         style="stop-color:#58A6D8"
         offset="0" />
      <stop
         offset="0.470588"
         style="stop-color:#548bbb;stop-opacity:1;"
         id="stop4258-1-6" />
      <stop
         id="stop3153-82-29"
         style="stop-color:#50719E"
         offset="0.941176" />
      <stop
         id="stop3155-6-5"
         style="stop-color:#386EAB"
         offset="1" />
    </linearGradient>
    <linearGradient
       inkscape:collect="always"
       xlink:href="#id9-9-9"
       id="linearGradient4155"
       gradientUnits="userSpaceOnUse"
       gradientTransform="matrix(19.320805,0,0,13.301596,-2278.1381,-7659.517)"
       spreadMethod="reflect"
       x1="0.96875"
       y1="8.0000248"
       x2="14"
       y2="8.0000248" />
    <linearGradient
       y2="264.96301"
       x2="229.189"
       y1="75.677498"
       x1="77.762001"
       gradientUnits="userSpaceOnUse"
       id="linearGradient5152">
      <stop
         id="stop5154"
         style="stop-color:#58A6D8"
         offset="0" />
      <stop
         offset="0.470588"
         style="stop-color:#548bbb;stop-opacity:1;"
         id="stop5156" />
      <stop
         id="stop5158"
         style="stop-color:#50719E"
         offset="0.941176" />
      <stop
         id="stop5160"
         style="stop-color:#386EAB"
         offset="1" />
    </linearGradient>
    <linearGradient
       y2="264.96301"
       x2="229.189"
       y1="75.677498"
       x1="77.762001"
       gradientUnits="userSpaceOnUse"
       id="id9-9-2">
      <stop
         id="stop3151-8-5"
         style="stop-color:#58A6D8"
         offset="0" />
      <stop
         offset="0.470588"
         style="stop-color:#548bbb;stop-opacity:1;"
         id="stop4258-1-86" />
      <stop
         id="stop3153-82-2"
         style="stop-color:#50719E"
         offset="0.941176" />
      <stop
         id="stop3155-6-6"
         style="stop-color:#386EAB"
         offset="1" />
    </linearGradient>
    <linearGradient
       y2="264.96301"
       x2="229.189"
       y1="75.677498"
       x1="77.762001"
       gradientUnits="userSpaceOnUse"
       id="id9-9">
      <stop
         id="stop3151-8"
         style="stop-color:#58A6D8"
         offset="0" />
      <stop
         offset="0.470588"
         style="stop-color:#548bbb;stop-opacity:1;"
         id="stop4258-1" />
      <stop
         id="stop3153-82"
         style="stop-color:#50719E"
         offset="0.941176" />
      <stop
         id="stop3155-6"
         style="stop-color:#386EAB"
         offset="1" />
    </linearGradient>
    <linearGradient
       inkscape:collect="always"
       xlink:href="#linearGradient3864"
       id="linearGradient3870"
       x1="2.6213413"
       y1="930.59811"
       x2="253.80395"
       y2="930.59811"
       gradientUnits="userSpaceOnUse" />
  </defs>
  <metadata
     id="metadata1312">
    <rdf:RDF>
      <cc:Work
         rdf:about="">
        <dc:format>image/svg+xml</dc:format>
        <dc:type
           rdf:resource="http://purl.org/dc/dcmitype/StillImage" />
        <dc:title></dc:title>
      </cc:Work>
    </rdf:RDF>
  </metadata>
  <rect
     style="fill:none;stroke:none"
     id="rect1315"
     y="-3.6610169"
     x="-3.6610169"
     height="55.728817"
     width="55.728817" />
  <path
     inkscape:connector-curvature="0"
     style="fill:#bebebe;fill-opacity:1;fill-rule:evenodd;stroke:none"
     id="rect3938"
     d="m 5.808528,0.9830511 c -2.6792985,0 -4.8254769,2.1461784 -4.8254769,4.8254769 l 0,36.789726 c 0,2.679299 2.1461784,4.825477 4.8254769,4.825477 l 36.789726,0 c 2.679299,0 4.825477,-2.146178 4.825477,-4.825477 l 0,-36.789726 c 0,-2.6792985 -2.146178,-4.8254769 -4.825477,-4.8254769 l -36.789726,0 z m 26.558264,5.5148307 4.607786,0 0,3.8095872 -4.607786,0 0,-3.8095872 z m -20.934588,0.2176907 4.607786,0 0,15.0932215 -4.607786,0 0,-15.0932215 z m 17.342692,5.8776485 11.755297,0 c 1.896119,0 3.410487,1.514368 3.410487,3.410488 l 0,4.789195 c 0,1.896119 -1.514368,3.410487 -3.410487,3.410487 l -11.755297,0 c -1.89612,0 -3.410488,-1.514368 -3.410488,-3.410487 l 0,-4.789195 c 0,-1.89612 1.514368,-3.410488 3.410488,-3.410488 z m -20.8983065,11.61017 11.7552975,0 c 1.896119,0 3.410487,1.514368 3.410487,3.410488 l 0,4.789195 c 0,1.896119 -1.514368,3.410487 -3.410487,3.410487 l -11.7552975,0 c -1.8961189,0 -3.4104874,-1.514368 -3.4104874,-3.410487 l 0,-4.789195 c 0,-1.89612 1.5143685,-3.410488 3.4104874,-3.410488 z m 24.4902025,2.322034 4.607786,0 0,15.020658 -4.607786,0 0,-15.020658 z m -20.934588,11.646452 4.607786,0 0,3.555614 -4.607786,0 0,-3.555614 z" />
</svg>
