<?xml version="1.0" encoding="UTF-8" standalone="no"?>
<!-- Created with Inkscape (http://www.inkscape.org/) -->

<svg
   xmlns:dc="http://purl.org/dc/elements/1.1/"
   xmlns:cc="http://creativecommons.org/ns#"
   xmlns:rdf="http://www.w3.org/1999/02/22-rdf-syntax-ns#"
   xmlns:svg="http://www.w3.org/2000/svg"
   xmlns="http://www.w3.org/2000/svg"
   xmlns:sodipodi="http://sodipodi.sourceforge.net/DTD/sodipodi-0.dtd"
   xmlns:inkscape="http://www.inkscape.org/namespaces/inkscape"
   version="1.1"
   width="48"
   height="48"
   id="svg1307"
   inkscape:version="0.48.3.1 r9886"
   sodipodi:docname="preferences-desktop.svg">
  <sodipodi:namedview
     pagecolor="#ffffff"
     bordercolor="#666666"
     borderopacity="1"
     objecttolerance="10"
     gridtolerance="10"
     guidetolerance="10"
     inkscape:pageopacity="0"
     inkscape:pageshadow="2"
     inkscape:window-width="640"
     inkscape:window-height="480"
     id="namedview8"
     showgrid="false"
     inkscape:zoom="4.9166667"
     inkscape:cx="24"
     inkscape:cy="24"
     inkscape:window-x="0"
     inkscape:window-y="26"
     inkscape:window-maximized="0"
     inkscape:current-layer="svg1307" />
  <defs
     id="defs1309" />
  <metadata
     id="metadata1312">
    <rdf:RDF>
      <cc:Work
         rdf:about="">
        <dc:format>image/svg+xml</dc:format>
        <dc:type
           rdf:resource="http://purl.org/dc/dcmitype/StillImage" />
        <dc:title />
      </cc:Work>
    </rdf:RDF>
  </metadata>
  <g
     id="layer1"
     transform="matrix(1.161017,0,0,1.161017,-3.6610169,-3.6610169)">
    <rect
       width="48"
       height="48"
       x="0"
       y="0"
       id="rect1315"
       style="fill:none;stroke:none" />
    <path
       d="M 8.15625,4 C 5.8485331,4 4,5.8485331 4,8.15625 l 0,31.6875 C 4,42.151467 5.8485331,44 8.15625,44 l 31.6875,0 C 42.151467,44 44,42.151467 44,39.84375 L 44,8.15625 C 44,5.8485331 42.151467,4 39.84375,4 L 8.15625,4 z m 22.875,4.75 3.96875,0 0,3.28125 -3.96875,0 0,-3.28125 z M 13,8.9375 l 3.96875,0 0,13 -3.96875,0 0,-13 z M 27.9375,14 38.0625,14 C 39.695654,14 41,15.304346 41,16.9375 l 0,4.125 C 41,22.695654 39.695654,24 38.0625,24 l -10.125,0 C 26.304346,24 25,22.695654 25,21.0625 l 0,-4.125 C 25,15.304346 26.304346,14 27.9375,14 z m -18,10 10.125,0 C 21.695654,24 23,25.304346 23,26.9375 l 0,4.125 C 23,32.695654 21.695654,34 20.0625,34 L 9.9375,34 C 8.3043465,34 7,32.695654 7,31.0625 l 0,-4.125 C 7,25.304346 8.3043465,24 9.9375,24 z M 31.03125,26 35,26 l 0,12.9375 -3.96875,0 0,-12.9375 z M 13,36.03125 l 3.96875,0 0,3.0625 -3.96875,0 0,-3.0625 z"
       id="rect3938"
       style="fill:#694f69;fill-opacity:1;fill-rule:evenodd;stroke:none"
       inkscape:connector-curvature="0" />
  </g>
</svg>
