<?xml version="1.0" encoding="UTF-8" standalone="no"?>
<!-- Created with Inkscape (http://www.inkscape.org/) -->

<svg
   xmlns:dc="http://purl.org/dc/elements/1.1/"
   xmlns:cc="http://creativecommons.org/ns#"
   xmlns:rdf="http://www.w3.org/1999/02/22-rdf-syntax-ns#"
   xmlns:svg="http://www.w3.org/2000/svg"
   xmlns="http://www.w3.org/2000/svg"
   xmlns:sodipodi="http://sodipodi.sourceforge.net/DTD/sodipodi-0.dtd"
   xmlns:inkscape="http://www.inkscape.org/namespaces/inkscape"
   width="256"
   height="256"
   id="svg2"
   version="1.1"
   inkscape:version="0.48.3.1 r9886"
   sodipodi:docname="stock_new-dir.svg">
  <defs
     id="defs4" />
  <sodipodi:namedview
     id="base"
     pagecolor="#ffffff"
     bordercolor="#666666"
     borderopacity="1.0"
     inkscape:pageopacity="0.0"
     inkscape:pageshadow="2"
     inkscape:zoom="1.2484714"
     inkscape:cx="70.716408"
     inkscape:cy="119.23654"
     inkscape:document-units="px"
     inkscape:current-layer="layer1"
     showgrid="false"
     showguides="true"
     inkscape:guide-bbox="true"
     inkscape:window-width="1918"
     inkscape:window-height="1013"
     inkscape:window-x="0"
     inkscape:window-y="26"
     inkscape:window-maximized="1" />
  <metadata
     id="metadata7">
    <rdf:RDF>
      <cc:Work
         rdf:about="">
        <dc:format>image/svg+xml</dc:format>
        <dc:type
           rdf:resource="http://purl.org/dc/dcmitype/StillImage" />
        <dc:title />
      </cc:Work>
    </rdf:RDF>
  </metadata>
  <g
     inkscape:label="Layer 1"
     inkscape:groupmode="layer"
     id="layer1"
     transform="translate(0,-796.3622)">
    <path
       style="fill:#614868;fill-opacity:1;stroke:none"
       d="M 110.84375 78.40625 C 79.574652 78.354778 42.984196 78.648432 28.78125 78.78125 C 9.8439856 78.89459 6.104634 85.69874 6.125 103.0625 L 6.25 203.375 C 6.2704274 220.73866 20.260506 234.6875 37.625 234.6875 L 220.65625 234.46875 C 238.02073 234.44745 251.99005 220.45751 251.96875 203.09375 L 251.90625 137.875 C 251.88584 120.51125 237.89576 106.59375 220.53125 106.59375 L 166.96875 106.59375 C 166.94146 83.38776 153.615 78.57605 139.3125 78.59375 C 131.09351 78.478637 121.26678 78.423407 110.84375 78.40625 z M 181.28125 125.84375 L 206.96875 125.84375 C 207.25958 125.84375 207.5 126.08416 207.5 126.375 L 207.5 151.75 L 234.5625 151.75 C 234.85333 151.75 235.09375 151.95916 235.09375 152.25 L 235.09375 177.96875 C 235.09375 178.25958 234.85333 178.46875 234.5625 178.46875 L 207.5 178.46875 L 207.5 207.8125 C 207.5 208.1033 207.25958 208.34375 206.96875 208.34375 L 181.28125 208.34375 C 180.99041 208.34375 180.75 208.1033 180.75 207.8125 L 180.75 178.46875 L 153.125 178.46875 C 152.83416 178.46875 152.59375 178.25958 152.59375 177.96875 L 152.59375 152.25 C 152.59375 151.95916 152.83416 151.75 153.125 151.75 L 180.75 151.75 L 180.75 126.375 C 180.75 126.08416 180.99041 125.84375 181.28125 125.84375 z "
       transform="translate(0,796.3622)"
       id="rect2995" />
    <path
       style="fill:#4b7744;fill-opacity:1;stroke:none"
       d="m 146.52833,864.87609 c 12.97797,-0.26563 24.49128,7.88408 26.13988,27.91838 15.28963,0 31.25133,0.17709 53.01087,0.17709 21.75955,0 19.31029,13.55807 19.31029,13.55807 0,0 -0.0195,-54.482 -0.0265,-60.13474 -0.007,-5.65274 -2.14009,-15.83547 -16.97977,-15.69911 -14.83967,0.17709 -42.20801,0.37189 -51.32854,0.3896 -9.12056,0.0177 -11.50069,10.52628 -11.50069,10.52628 0,0 -127.715858,0.53127 -144.473859,0.53127 -16.7580033,0 -14.797503,10.88401 -14.4840647,35.02504 0.029043,2.23842 3.3026188,-11.30194 12.3651507,-11.48258 9.062533,-0.17709 85.339243,-0.19479 127.967293,-0.81461 z"
       id="path3769"
       inkscape:connector-curvature="0"
       sodipodi:nodetypes="cczcczzczszcc" />
  </g>
</svg>
