<?xml version="1.0" encoding="UTF-8" standalone="no"?>
<!-- Created with Inkscape (http://www.inkscape.org/) -->

<svg
   xmlns:dc="http://purl.org/dc/elements/1.1/"
   xmlns:cc="http://creativecommons.org/ns#"
   xmlns:rdf="http://www.w3.org/1999/02/22-rdf-syntax-ns#"
   xmlns:svg="http://www.w3.org/2000/svg"
   xmlns="http://www.w3.org/2000/svg"
   xmlns:xlink="http://www.w3.org/1999/xlink"
   xmlns:sodipodi="http://sodipodi.sourceforge.net/DTD/sodipodi-0.dtd"
   xmlns:inkscape="http://www.inkscape.org/namespaces/inkscape"
   width="256"
   height="256"
   id="svg2"
   version="1.1"
   inkscape:version="0.48.3.1 r9886"
   sodipodi:docname="text-x-generic-template.svg">
  <defs
     id="defs4">
    <linearGradient
       inkscape:collect="always"
       id="linearGradient4019">
      <stop
         style="stop-color:#ffffff;stop-opacity:1;"
         offset="0"
         id="stop4021" />
      <stop
         style="stop-color:#ffffff;stop-opacity:0;"
         offset="1"
         id="stop4023" />
    </linearGradient>
    <linearGradient
       inkscape:collect="always"
       id="linearGradient3977">
      <stop
         style="stop-color:#000000;stop-opacity:1;"
         offset="0"
         id="stop3979" />
      <stop
         style="stop-color:#000000;stop-opacity:0;"
         offset="1"
         id="stop3981" />
    </linearGradient>
    <linearGradient
       id="linearGradient3864">
      <stop
         style="stop-color:#ffffff;stop-opacity:1;"
         offset="0"
         id="stop3866" />
      <stop
         style="stop-color:#d5d5d5;stop-opacity:0;"
         offset="1"
         id="stop3868" />
    </linearGradient>
    <linearGradient
       id="linearGradient3815">
      <stop
         style="stop-color:#e0f2fe;stop-opacity:1;"
         offset="0"
         id="stop3817" />
      <stop
         style="stop-color:#075e99;stop-opacity:1;"
         offset="1"
         id="stop3819" />
    </linearGradient>
    <linearGradient
       id="linearGradient3805">
      <stop
         style="stop-color:#989898;stop-opacity:1;"
         offset="0"
         id="stop3807" />
      <stop
         style="stop-color:#2a2a2a;stop-opacity:0.94968551;"
         offset="1"
         id="stop3809" />
    </linearGradient>
    <linearGradient
       id="linearGradient3927">
      <stop
         id="stop3929"
         offset="0"
         style="stop-color:#9d9d9d;stop-opacity:1;" />
      <stop
         id="stop3931"
         offset="1"
         style="stop-color:#ffffff;stop-opacity:1;" />
    </linearGradient>
    <linearGradient
       id="linearGradient3909">
      <stop
         style="stop-color:#909090;stop-opacity:1;"
         offset="0"
         id="stop3911" />
      <stop
         style="stop-color:#cfcfcf;stop-opacity:1;"
         offset="1"
         id="stop3913" />
    </linearGradient>
    <linearGradient
       inkscape:collect="always"
       xlink:href="#linearGradient3805"
       id="linearGradient3811"
       x1="141.3316"
       y1="860.94348"
       x2="141.74571"
       y2="895.38562"
       gradientUnits="userSpaceOnUse"
       gradientTransform="translate(-20.785215,229.28139)" />
    <linearGradient
       inkscape:collect="always"
       xlink:href="#linearGradient3864"
       id="linearGradient3900"
       gradientUnits="userSpaceOnUse"
       gradientTransform="translate(-17.035045,1027.8709)"
       x1="88.986542"
       y1="81.555557"
       x2="88.84317"
       y2="129.87335" />
    <linearGradient
       inkscape:collect="always"
       xlink:href="#linearGradient3909"
       id="linearGradient3903"
       gradientUnits="userSpaceOnUse"
       gradientTransform="translate(-16.217264,228.25405)"
       x1="107.04288"
       y1="1026.5909"
       x2="113.80436"
       y2="879.61139" />
    <linearGradient
       inkscape:collect="always"
       xlink:href="#linearGradient3815"
       id="linearGradient3922"
       x1="188.3951"
       y1="277.65305"
       x2="179.10686"
       y2="341.3754"
       gradientUnits="userSpaceOnUse"
       gradientTransform="matrix(0.87018857,0,0,0.96198742,-161.42822,851.47957)" />
    <linearGradient
       id="linearGradient3815-1">
      <stop
         style="stop-color:#e0f2fe;stop-opacity:1;"
         offset="0"
         id="stop3817-9" />
      <stop
         style="stop-color:#01131f;stop-opacity:1;"
         offset="1"
         id="stop3819-2" />
    </linearGradient>
    <linearGradient
       y2="327.96552"
       x2="195.48367"
       y1="272.6918"
       x1="205.841"
       gradientTransform="matrix(0.87113587,0,0,0.99710516,-281.23574,815.68275)"
       gradientUnits="userSpaceOnUse"
       id="linearGradient3939"
       xlink:href="#linearGradient3815-1"
       inkscape:collect="always" />
    <linearGradient
       inkscape:collect="always"
       xlink:href="#linearGradient3977"
       id="linearGradient3983"
       x1="114.40766"
       y1="858.7608"
       x2="252.52723"
       y2="932.05042"
       gradientUnits="userSpaceOnUse"
       gradientTransform="translate(-16.820569,249.10462)" />
    <radialGradient
       inkscape:collect="always"
       xlink:href="#linearGradient4019"
       id="radialGradient4025"
       cx="120.92171"
       cy="141.02525"
       fx="120.92171"
       fy="141.02525"
       r="127.60499"
       gradientTransform="matrix(0.67948535,0.00596595,-0.00506566,0.54621211,39.471564,63.274139)"
       gradientUnits="userSpaceOnUse" />
    <filter
       inkscape:collect="always"
       id="filter4063"
       x="-0.24069887"
       width="1.4813977"
       y="-0.30262623"
       height="1.6052525">
      <feGaussianBlur
         inkscape:collect="always"
         stdDeviation="14.711907"
         id="feGaussianBlur4065" />
    </filter>
    <filter
       inkscape:collect="always"
       id="filter4069">
      <feGaussianBlur
         inkscape:collect="always"
         stdDeviation="2.7220785"
         id="feGaussianBlur4071" />
    </filter>
    <filter
       inkscape:collect="always"
       id="filter3862"
       x="-0.20169965"
       width="1.4033993"
       y="-0.18064831"
       height="1.3612966">
      <feGaussianBlur
         inkscape:collect="always"
         stdDeviation="3.884344"
         id="feGaussianBlur3864" />
    </filter>
    <filter
       inkscape:collect="always"
       id="filter3880"
       x="-0.84898819"
       width="2.6979764"
       y="-0.63366594"
       height="2.2673319">
      <feGaussianBlur
         inkscape:collect="always"
         stdDeviation="20.637391"
         id="feGaussianBlur3882" />
    </filter>
    <linearGradient
       inkscape:collect="always"
       xlink:href="#linearGradient3815"
       id="linearGradient3995"
       gradientUnits="userSpaceOnUse"
       gradientTransform="translate(14.417631,821.19256)"
       x1="401.29074"
       y1="22.914968"
       x2="335.61041"
       y2="452.23996" />
    <linearGradient
       inkscape:collect="always"
       xlink:href="#linearGradient3927"
       id="linearGradient3997"
       gradientUnits="userSpaceOnUse"
       x1="419.11514"
       y1="-27.717825"
       x2="404.26071"
       y2="81.883369" />
  </defs>
  <sodipodi:namedview
     id="base"
     pagecolor="#ffffff"
     bordercolor="#666666"
     borderopacity="1.0"
     inkscape:pageopacity="0.0"
     inkscape:pageshadow="2"
     inkscape:zoom="1.2484714"
     inkscape:cx="186.68384"
     inkscape:cy="88.061925"
     inkscape:document-units="px"
     inkscape:current-layer="layer1"
     showgrid="false"
     showguides="true"
     inkscape:guide-bbox="true"
     inkscape:window-width="1434"
     inkscape:window-height="850"
     inkscape:window-x="0"
     inkscape:window-y="26"
     inkscape:window-maximized="1" />
  <metadata
     id="metadata7">
    <rdf:RDF>
      <cc:Work
         rdf:about="">
        <dc:format>image/svg+xml</dc:format>
        <dc:type
           rdf:resource="http://purl.org/dc/dcmitype/StillImage" />
        <dc:title />
      </cc:Work>
    </rdf:RDF>
  </metadata>
  <g
     inkscape:label="Layer 1"
     inkscape:groupmode="layer"
     id="layer1"
     transform="translate(0,-796.3622)">
    <path
       style="fill:url(#linearGradient3811);fill-opacity:1;stroke:none"
       d="m 219.39827,1147.8258 c 0,0 -0.0195,-54.482 -0.0265,-60.1348 -0.007,-5.6527 -2.14009,-15.8354 -16.97977,-15.6991 -14.83967,0.1771 -34.99919,0.3719 -44.11972,0.3896 -9.12056,0.018 -11.50069,10.5263 -11.50069,10.5263 0,0 -112.497245,0.5313 -129.255245,0.5313 -16.7580004,0 -14.7975004,10.884 -14.4840604,35.025 0.029,2.2384 -3.49393,21.9838 5.56861,21.8032 47.4072304,-4.529 211.1737554,0.9778 210.7973754,7.5585 z"
       id="path3769"
       inkscape:connector-curvature="0"
       sodipodi:nodetypes="cczzczscc" />
    <rect
       style="opacity:0.26506025;fill:#0d0d0d;fill-opacity:1;stroke:none;filter:url(#filter4069)"
       id="rect4067"
       width="60.473953"
       height="72.889137"
       x="-57.709446"
       y="856.7301"
       transform="matrix(0.96934222,-0.24571459,0.24571459,0.96934222,-16.820569,249.10462)" />
    <rect
       style="fill:url(#linearGradient3939);fill-opacity:1;stroke:none"
       id="rect3905-1"
       width="200.95544"
       height="133.37636"
       x="-263.09393"
       y="1088.5121"
       transform="matrix(0.9632612,-0.26856631,0.2269135,0.97391492,0,0)" />
    <rect
       style="fill:url(#linearGradient3922);fill-opacity:1;stroke:none"
       id="rect3905"
       width="200.73692"
       height="128.67888"
       x="-143.30617"
       y="1114.7"
       transform="matrix(0.9855233,-0.16954003,0.13803994,0.99042666,0,0)" />
    <path
       style="fill:url(#linearGradient3903);fill-opacity:1;stroke:url(#linearGradient3983)"
       d="m 150.34903,1131.9986 c 29.09008,0 22.96757,-0.801 53.95009,-0.801 17.36451,0 32.12293,13.9582 31.38071,31.3061 l -3.35398,78.392 c -0.74222,17.3478 -6.11869,18.1652 -23.48317,18.1844 l -192.001173,0.2125 c -17.3644834,0.019 -23.2783594,-2.7357 -23.7714154,-20.0923 l -3.1678156,-111.5144 c -0.493058,-17.3568 1.7235218,-22.5639 20.660782,-22.6772 18.93726,-0.1771 79.863073,0.06 104.053032,-0.1667 24.18996,-0.2265 35.70565,3.9506 35.73294,27.1566 z"
       id="rect2995-2"
       inkscape:connector-curvature="0"
       sodipodi:nodetypes="ccsssssszcc" />
    <path
       style="fill:none;stroke:#000000;stroke-width:3;stroke-miterlimit:4;stroke-opacity:1;stroke-dasharray:none"
       d="m 201.84289,1071.8971 c -14.83967,0.177 -35.00447,0.3885 -44.125,0.4062 -9.12056,0.018 -11.5,10.5313 -11.5,10.5313 0,0 -112.491996,0.5312 -129.249996,0.5312 -13.1440804,0 -14.7789104,6.7133 -14.7187504,21.25 -14.7451696,1.3384 -13.8720656,12.3156 -13.5040996,27.9646 l 2.3187643,98.6134 c 0.4081716,17.3589 0.4174471,27.9362 18.3483053,28.1974 l 208.2731764,0.6309 c 17.36447,-0.022 14.56415,-14.7315 15.45391,-30.8086 l 3.08622,-66.3516 c 1.35661,-10.1259 -6.59189,-24.2706 -17.38253,-30.0036 -0.004,-12.0891 -0.0253,-40.4565 -0.0313,-45.2425 -0.007,-5.6527 -2.12907,-15.8551 -16.96875,-15.7187 z"
       id="path3769-8"
       inkscape:connector-curvature="0"
       sodipodi:nodetypes="cscscsscccccccc" />
    <path
       style="fill:none;stroke:url(#linearGradient3900);stroke-width:5;stroke-linecap:butt;stroke-linejoin:miter;stroke-miterlimit:4;stroke-opacity:1;stroke-dasharray:none"
       d="m -4.5546024,1212.5904 c 0,0 -3.0479033,-88.143 -1.931649,-94.7391 0.995518,-5.8826 3.256672,-10.124 14.230247,-10.0532 3.9746644,0.026 113.9127744,0.6372 113.9127744,0.6372 0,0 17.77658,-1.2652 22.51355,8.708 4.07469,8.5789 2.33631,17.841 2.33631,17.841 0,0 53.94749,-1.2036 59.04489,-0.6372 5.0974,0.5664 17.41614,3.1151 24.21267,14.0178"
       id="path3854"
       inkscape:connector-curvature="0"
       sodipodi:nodetypes="csscscsc" />
    <path
       sodipodi:type="arc"
       style="opacity:0.26506025;fill:url(#radialGradient4025);fill-opacity:1;stroke:none;filter:url(#filter4063)"
       id="path3985"
       sodipodi:cx="120.92171"
       sodipodi:cy="141.02525"
       sodipodi:rx="73.345955"
       sodipodi:ry="58.336941"
       d="m 194.26766,141.02525 a 73.345955,58.336941 0 1 1 -7.21304,-25.22788"
       transform="matrix(1.4119049,0,0,1.0506194,-56.449671,1043.144)"
       sodipodi:start="0"
       sodipodi:end="5.8359757"
       sodipodi:open="true" />
    <g
       id="g3988"
       transform="matrix(1.2064957,0,0,1.2064957,-344.3351,-215.30963)">
      <path
         id="rect3051"
         d="m 327.07388,855.72381 0,181.81249 138.1875,0 0,-155.46874 c -9.06205,-7.66897 -22.33081,-14.20197 -37.96875,-26.34375 l -100.21875,0 z m 48.65625,23.625 33.59375,24.84375 -13.25,39.65625 -41.8125,-0.375 -12.5625,-39.875 34.03125,-24.25 z m 60.28125,75.90625 -0.28125,22.03125 20.90625,6.90625 -19.1875,10.78125 4.4375,21.59379 -18.9375,-11.25 -16.4375,14.625 0.28125,-22.00004 -20.90625,-6.9375 19.1875,-10.78125 -4.4375,-21.5625 18.9375,11.25 16.4375,-14.65625 z m -77.4375,9.21875 c 0.32507,-0.0114 0.65301,-0.007 0.96875,0 9.47224,0.22446 17.46082,7.4988 18.40625,17.125 l 0.0313,0.40625 c 0.79618,10.44858 -7.02017,19.57884 -17.46875,20.37504 -10.44857,0.7961 -19.57882,-7.02022 -20.375,-17.46879 -0.79619,-10.44858 7.02017,-19.57882 17.46875,-20.375 0.32148,-0.0245 0.64368,-0.0511 0.96875,-0.0625 z m -1.5,42.78129 c 5.37251,0.1273 9.90127,4.2276 10.4375,9.6875 l 0,0.25 c 0.45158,5.9262 -3.97998,11.0796 -9.90625,11.5312 -5.92626,0.4516 -11.07967,-3.98 -11.53125,-9.9062 -0.45159,-5.9263 3.97998,-11.0797 9.90625,-11.5313 0.36468,-0.028 0.73558,-0.04 1.09375,-0.031 z"
         style="fill:url(#linearGradient3995);fill-opacity:1;stroke:none"
         inkscape:connector-curvature="0" />
      <path
         inkscape:transform-center-y="-0.79858784"
         inkscape:transform-center-x="-5.4168637"
         transform="matrix(0.81033598,0,0,0.90536419,111.74123,840.35432)"
         d="m 389.66809,75.325407 3.05554,-51.605384 43.1638,28.448868 z"
         inkscape:randomized="0"
         inkscape:rounded="0"
         inkscape:flatsided="true"
         sodipodi:arg2="3.2007334"
         sodipodi:arg1="2.1535358"
         sodipodi:r2="14.923282"
         sodipodi:r1="29.846563"
         sodipodi:cy="50.404774"
         sodipodi:cx="406.09305"
         sodipodi:sides="3"
         id="path3054-5"
         style="opacity:0.56626503;fill:#626262;fill-opacity:1;stroke:none;filter:url(#filter3862)"
         sodipodi:type="star" />
      <path
         inkscape:transform-center-y="-0.83414663"
         inkscape:transform-center-x="-5.9896366"
         transform="matrix(0.89602023,0,0,0.94567566,76.125818,832.67593)"
         d="m 389.66809,75.325407 3.05554,-51.605384 43.1638,28.448868 z"
         inkscape:randomized="0"
         inkscape:rounded="0"
         inkscape:flatsided="true"
         sodipodi:arg2="3.2007334"
         sodipodi:arg1="2.1535358"
         sodipodi:r2="14.923282"
         sodipodi:r1="29.846563"
         sodipodi:cy="50.404774"
         sodipodi:cx="406.09305"
         sodipodi:sides="3"
         id="path3054"
         style="fill:url(#linearGradient3997);fill-opacity:1;stroke:none"
         sodipodi:type="star" />
      <path
         sodipodi:open="true"
         sodipodi:end="12.46847"
         sodipodi:start="6.2071318"
         transform="translate(17.249521,805.90035)"
         d="m 404.30959,105.20602 c 1.22398,21.52094 -10.8052,40.29652 -26.86793,41.93643 -16.06273,1.63991 -30.07639,-14.47686 -31.30038,-35.99781 -1.22399,-21.520941 10.80519,-40.29652 26.86793,-41.936427 15.81515,-1.614629 29.6947,13.99836 31.24502,35.147267"
         sodipodi:ry="39.080086"
         sodipodi:rx="29.168468"
         sodipodi:cy="108.17533"
         sodipodi:cx="375.22543"
         id="path3866"
         style="opacity:0.46586346;fill:#fcfce3;fill-opacity:1;stroke:none;filter:url(#filter3880)"
         sodipodi:type="arc" />
      <path
         id="rect3051-1"
         d="m 327.3959,854.96877 0,182.33573 138.58511,0 0,-155.91618 c -9.08812,-7.69104 -22.39506,-14.24283 -38.078,-26.41955 l -100.50711,0 z m 48.79625,23.69298 33.69041,24.91523 -13.28813,39.77036 -41.9328,-0.37609 -12.59865,-39.98972 34.12917,-24.31978 z m 60.4547,76.12466 -0.28206,22.09463 20.96641,6.92613 -19.24272,10.81228 4.45027,21.65585 -18.99198,-11.2823 -16.4848,14.667 0.28206,-22.06327 -20.96641,-6.95746 19.24272,-10.81227 -4.45028,-21.62454 18.99199,11.28237 16.4848,-14.69842 z m -77.66031,9.24527 c 0.326,-0.0114 0.65489,-0.007 0.97153,0 9.4995,0.2251 17.51106,7.52038 18.45921,17.17428 l 0.0314,0.40741 c 0.79848,10.47865 -7.04036,19.63513 -17.51901,20.43363 -10.47864,0.7985 -19.63516,-7.04038 -20.43362,-17.51902 -0.79849,-10.47863 7.04036,-19.63515 17.51901,-20.43362 0.3224,-0.0246 0.64553,-0.0513 0.97153,-0.0627 z m -1.50432,42.90432 c 5.38797,0.1277 9.92976,4.2399 10.46753,9.7154 l 0,0.2507 c 0.45288,5.9434 -3.99143,11.1115 -9.93475,11.5644 -5.94332,0.4529 -11.11155,-3.9914 -11.56443,-9.9347 -0.45289,-5.9433 3.99143,-11.1115 9.93475,-11.5644 0.36573,-0.028 0.7377,-0.04 1.0969,-0.031 z"
         style="opacity:0.83999999;fill:none;stroke:#000000;stroke-width:3;stroke-miterlimit:4;stroke-opacity:1;stroke-dasharray:none"
         inkscape:connector-curvature="0" />
    </g>
  </g>
</svg>
