<?xml version="1.0" encoding="UTF-8" standalone="no"?>
<!-- Created with Inkscape (http://www.inkscape.org/) -->

<svg
   xmlns:dc="http://purl.org/dc/elements/1.1/"
   xmlns:cc="http://creativecommons.org/ns#"
   xmlns:rdf="http://www.w3.org/1999/02/22-rdf-syntax-ns#"
   xmlns:svg="http://www.w3.org/2000/svg"
   xmlns="http://www.w3.org/2000/svg"
   xmlns:xlink="http://www.w3.org/1999/xlink"
   xmlns:sodipodi="http://sodipodi.sourceforge.net/DTD/sodipodi-0.dtd"
   xmlns:inkscape="http://www.inkscape.org/namespaces/inkscape"
   width="256"
   height="256"
   id="svg2"
   version="1.1"
   inkscape:version="0.48.3.1 r9886"
   sodipodi:docname="user-home.svg">
  <defs
     id="defs4">
    <linearGradient
       inkscape:collect="always"
       id="linearGradient4011">
      <stop
         style="stop-color:#4d4d4d;stop-opacity:1;"
         offset="0"
         id="stop4013" />
      <stop
         style="stop-color:#4d4d4d;stop-opacity:0;"
         offset="1"
         id="stop4015" />
    </linearGradient>
    <linearGradient
       id="linearGradient4195">
      <stop
         id="stop4197"
         offset="0"
         style="stop-color:#737373;stop-opacity:1;" />
      <stop
         id="stop4199"
         offset="1"
         style="stop-color:#cfcfcf;stop-opacity:1;" />
    </linearGradient>
    <linearGradient
       id="linearGradient4110">
      <stop
         style="stop-color:#000000;stop-opacity:1;"
         offset="0"
         id="stop4112" />
      <stop
         style="stop-color:#ffffff;stop-opacity:1;"
         offset="1"
         id="stop4114" />
    </linearGradient>
    <linearGradient
       inkscape:collect="always"
       id="linearGradient4019">
      <stop
         style="stop-color:#ffffff;stop-opacity:1;"
         offset="0"
         id="stop4021" />
      <stop
         style="stop-color:#ffffff;stop-opacity:0;"
         offset="1"
         id="stop4023" />
    </linearGradient>
    <linearGradient
       inkscape:collect="always"
       id="linearGradient3977">
      <stop
         style="stop-color:#000000;stop-opacity:1;"
         offset="0"
         id="stop3979" />
      <stop
         style="stop-color:#000000;stop-opacity:0;"
         offset="1"
         id="stop3981" />
    </linearGradient>
    <linearGradient
       id="linearGradient3864">
      <stop
         style="stop-color:#ffffff;stop-opacity:1;"
         offset="0"
         id="stop3866" />
      <stop
         style="stop-color:#d5d5d5;stop-opacity:0;"
         offset="1"
         id="stop3868" />
    </linearGradient>
    <linearGradient
       id="linearGradient3844">
      <stop
         style="stop-color:#b3cbdb;stop-opacity:1;"
         offset="0"
         id="stop3846" />
      <stop
         style="stop-color:#46aff7;stop-opacity:0;"
         offset="1"
         id="stop3848" />
    </linearGradient>
    <linearGradient
       id="linearGradient3815">
      <stop
         style="stop-color:#e0f2fe;stop-opacity:1;"
         offset="0"
         id="stop3817" />
      <stop
         style="stop-color:#075e99;stop-opacity:1;"
         offset="1"
         id="stop3819" />
    </linearGradient>
    <linearGradient
       id="linearGradient3805">
      <stop
         style="stop-color:#989898;stop-opacity:1;"
         offset="0"
         id="stop3807" />
      <stop
         style="stop-color:#2a2a2a;stop-opacity:0.94968551;"
         offset="1"
         id="stop3809" />
    </linearGradient>
    <linearGradient
       id="linearGradient3797">
      <stop
         style="stop-color:#fafafa;stop-opacity:1;"
         offset="0"
         id="stop3799" />
      <stop
         style="stop-color:#e3e3e3;stop-opacity:0;"
         offset="1"
         id="stop3801" />
    </linearGradient>
    <linearGradient
       id="linearGradient3927">
      <stop
         id="stop3929"
         offset="0"
         style="stop-color:#9d9d9d;stop-opacity:1;" />
      <stop
         id="stop3931"
         offset="1"
         style="stop-color:#ffffff;stop-opacity:1;" />
    </linearGradient>
    <linearGradient
       id="linearGradient3909">
      <stop
         style="stop-color:#909090;stop-opacity:1;"
         offset="0"
         id="stop3911" />
      <stop
         style="stop-color:#cfcfcf;stop-opacity:1;"
         offset="1"
         id="stop3913" />
    </linearGradient>
    <linearGradient
       id="linearGradient3893">
      <stop
         style="stop-color:#c4c4c4;stop-opacity:0;"
         offset="0"
         id="stop3895" />
      <stop
         style="stop-color:#ffffff;stop-opacity:0.7610063;"
         offset="1"
         id="stop3897" />
    </linearGradient>
    <linearGradient
       id="linearGradient3885">
      <stop
         style="stop-color:#5e5e5e;stop-opacity:1;"
         offset="0"
         id="stop3887" />
      <stop
         style="stop-color:#5e5e5e;stop-opacity:0;"
         offset="1"
         id="stop3889" />
    </linearGradient>
    <inkscape:perspective
       sodipodi:type="inkscape:persp3d"
       inkscape:vp_x="0 : 526.18109 : 1"
       inkscape:vp_y="0 : 1000 : 0"
       inkscape:vp_z="744.09448 : 526.18109 : 1"
       inkscape:persp3d-origin="372.04724 : 350.78739 : 1"
       id="perspective4095" />
    <linearGradient
       inkscape:collect="always"
       xlink:href="#linearGradient3909-0"
       id="linearGradient3915-2"
       x1="199.8031"
       y1="836.57288"
       x2="199.41623"
       y2="944.70508"
       gradientUnits="userSpaceOnUse"
       gradientTransform="translate(0.80097946,7.2088156)" />
    <linearGradient
       id="linearGradient3909-0">
      <stop
         style="stop-color:#68a5cd;stop-opacity:1;"
         offset="0"
         id="stop3911-8" />
      <stop
         style="stop-color:#265371;stop-opacity:1;"
         offset="1"
         id="stop3913-1" />
    </linearGradient>
    <linearGradient
       id="linearGradient3893-6">
      <stop
         style="stop-color:#c1b98f;stop-opacity:1;"
         offset="0"
         id="stop3895-8" />
      <stop
         style="stop-color:#f3f3b2;stop-opacity:1;"
         offset="1"
         id="stop3897-5" />
    </linearGradient>
    <linearGradient
       inkscape:collect="always"
       xlink:href="#linearGradient3893-65"
       id="linearGradient3899-1"
       x1="100.63504"
       y1="1028.9939"
       x2="114.60532"
       y2="832.35358"
       gradientUnits="userSpaceOnUse"
       gradientTransform="translate(0.40048975,-2.0122243e-8)" />
    <linearGradient
       id="linearGradient3893-65">
      <stop
         style="stop-color:#d4d4d4;stop-opacity:1;"
         offset="0"
         id="stop3895-3" />
      <stop
         style="stop-color:#f7f7f7;stop-opacity:1;"
         offset="1"
         id="stop3897-4" />
    </linearGradient>
    <linearGradient
       inkscape:collect="always"
       xlink:href="#linearGradient3815-1"
       id="linearGradient3922-2"
       x1="175.41451"
       y1="274.02203"
       x2="165.80275"
       y2="406.18365"
       gradientUnits="userSpaceOnUse"
       gradientTransform="matrix(0.87113587,0,0,0.99710516,-111.73121,580.88048)" />
    <linearGradient
       id="linearGradient3815-1">
      <stop
         style="stop-color:#e0f2fe;stop-opacity:1;"
         offset="0"
         id="stop3817-9" />
      <stop
         style="stop-color:#01131f;stop-opacity:1;"
         offset="1"
         id="stop3819-2" />
    </linearGradient>
    <radialGradient
       inkscape:collect="always"
       xlink:href="#linearGradient4019"
       id="radialGradient4025"
       cx="120.92171"
       cy="141.02525"
       fx="120.92171"
       fy="141.02525"
       r="127.60499"
       gradientTransform="matrix(0.67948535,0.00596595,-0.00506566,0.54621211,39.471564,63.274139)"
       gradientUnits="userSpaceOnUse" />
    <filter
       inkscape:collect="always"
       id="filter4063"
       x="-0.24069887"
       width="1.4813977"
       y="-0.30262623"
       height="1.6052525">
      <feGaussianBlur
         inkscape:collect="always"
         stdDeviation="14.711907"
         id="feGaussianBlur4065" />
    </filter>
    <filter
       inkscape:collect="always"
       id="filter4069">
      <feGaussianBlur
         inkscape:collect="always"
         stdDeviation="2.7220785"
         id="feGaussianBlur4071" />
    </filter>
    <linearGradient
       inkscape:collect="always"
       xlink:href="#linearGradient4011"
       id="linearGradient4017"
       x1="230.3806"
       y1="351.50919"
       x2="151.03622"
       y2="-65.24015"
       gradientUnits="userSpaceOnUse" />
    <linearGradient
       inkscape:collect="always"
       xlink:href="#linearGradient4011"
       id="linearGradient4071"
       gradientUnits="userSpaceOnUse"
       x1="230.3806"
       y1="351.50919"
       x2="151.03622"
       y2="-65.24015" />
    <linearGradient
       inkscape:collect="always"
       xlink:href="#linearGradient4110"
       id="linearGradient4245"
       x1="84.909195"
       y1="1075.7183"
       x2="73.400383"
       y2="804.9895"
       gradientUnits="userSpaceOnUse"
       gradientTransform="translate(-239.49287,23.228405)" />
    <linearGradient
       inkscape:collect="always"
       xlink:href="#linearGradient4110-8"
       id="linearGradient4498-9"
       gradientUnits="userSpaceOnUse"
       gradientTransform="matrix(0.84451561,0,0,0.84451561,-110.73352,15.12506)"
       x1="107.31195"
       y1="457.55923"
       x2="106.45449"
       y2="230.18813" />
    <linearGradient
       id="linearGradient4110-8">
      <stop
         style="stop-color:#000000;stop-opacity:1;"
         offset="0"
         id="stop4112-0" />
      <stop
         style="stop-color:#ffffff;stop-opacity:1;"
         offset="1"
         id="stop4114-4" />
    </linearGradient>
    <linearGradient
       inkscape:collect="always"
       xlink:href="#linearGradient4110"
       id="linearGradient4541"
       gradientUnits="userSpaceOnUse"
       gradientTransform="matrix(1.1411883,0,0,1.1411883,-375.15116,709.40676)"
       x1="105.41505"
       y1="436.69336"
       x2="103.60915"
       y2="187.98216" />
    <linearGradient
       inkscape:collect="always"
       xlink:href="#linearGradient4110-8-6"
       id="linearGradient4724-8"
       x1="99.453362"
       y1="225.0667"
       x2="70.000031"
       y2="11.345068"
       gradientUnits="userSpaceOnUse"
       gradientTransform="translate(281.68976,799.95361)" />
    <linearGradient
       id="linearGradient4110-8-6">
      <stop
         style="stop-color:#000000;stop-opacity:1;"
         offset="0"
         id="stop4112-0-4" />
      <stop
         style="stop-color:#ffffff;stop-opacity:1;"
         offset="1"
         id="stop4114-4-7" />
    </linearGradient>
    <linearGradient
       inkscape:collect="always"
       xlink:href="#linearGradient4110-8-6-4"
       id="linearGradient3896-8"
       x1="382.36105"
       y1="193.27661"
       x2="400.40265"
       y2="160.18513"
       gradientUnits="userSpaceOnUse"
       gradientTransform="matrix(0,1.2245059,-1,0,558.78699,505.09105)" />
    <linearGradient
       id="linearGradient4110-8-6-4">
      <stop
         style="stop-color:#000000;stop-opacity:1;"
         offset="0"
         id="stop4112-0-4-7" />
      <stop
         style="stop-color:#ffffff;stop-opacity:1;"
         offset="1"
         id="stop4114-4-7-9" />
    </linearGradient>
    <linearGradient
       inkscape:collect="always"
       xlink:href="#linearGradient3805"
       id="linearGradient3987"
       gradientUnits="userSpaceOnUse"
       gradientTransform="translate(-3.964646,-19.823233)"
       x1="141.3316"
       y1="860.94348"
       x2="141.74571"
       y2="895.38562" />
    <linearGradient
       inkscape:collect="always"
       xlink:href="#linearGradient3815-1"
       id="linearGradient3989"
       gradientUnits="userSpaceOnUse"
       gradientTransform="matrix(0.87113587,0,0,0.99710516,-208.26129,580.02957)"
       x1="205.841"
       y1="272.6918"
       x2="195.48367"
       y2="327.96552" />
    <linearGradient
       inkscape:collect="always"
       xlink:href="#linearGradient3815"
       id="linearGradient3991"
       gradientUnits="userSpaceOnUse"
       gradientTransform="matrix(0.87113587,0,0,0.99710516,-106.28515,599.9485)"
       x1="188.3951"
       y1="277.65305"
       x2="179.10686"
       y2="341.3754" />
    <linearGradient
       inkscape:collect="always"
       xlink:href="#linearGradient3909"
       id="linearGradient3993"
       gradientUnits="userSpaceOnUse"
       gradientTransform="translate(0.60330562,-20.850577)"
       x1="107.04288"
       y1="1026.5909"
       x2="113.80436"
       y2="879.61139" />
    <linearGradient
       inkscape:collect="always"
       xlink:href="#linearGradient3977"
       id="linearGradient3995"
       gradientUnits="userSpaceOnUse"
       x1="114.40766"
       y1="858.7608"
       x2="252.52723"
       y2="932.05042" />
    <linearGradient
       inkscape:collect="always"
       xlink:href="#linearGradient3864"
       id="linearGradient3997"
       gradientUnits="userSpaceOnUse"
       gradientTransform="translate(-0.21447544,778.76626)"
       x1="88.986542"
       y1="81.555557"
       x2="88.84317"
       y2="129.87335" />
    <filter
       inkscape:collect="always"
       id="filter4019"
       x="-0.35074476"
       width="1.7014895"
       y="-0.80465087"
       height="2.6093017">
      <feGaussianBlur
         inkscape:collect="always"
         stdDeviation="9.6998207"
         id="feGaussianBlur4021" />
    </filter>
    <linearGradient
       inkscape:collect="always"
       xlink:href="#linearGradient4110-8-6-4"
       id="linearGradient4027"
       gradientUnits="userSpaceOnUse"
       gradientTransform="matrix(0,2.0515912,-1.6754441,0,376.79583,205.44854)"
       x1="382.36105"
       y1="193.27661"
       x2="400.40265"
       y2="160.18513" />
    <linearGradient
       inkscape:collect="always"
       xlink:href="#linearGradient4110-8-6"
       id="linearGradient4030"
       gradientUnits="userSpaceOnUse"
       gradientTransform="matrix(0,2.0515912,-1.6754441,0,422.38516,205.7978)"
       x1="382.36105"
       y1="193.27661"
       x2="400.40265"
       y2="160.18513" />
    <linearGradient
       inkscape:collect="always"
       xlink:href="#linearGradient4110-8-6"
       id="linearGradient4033"
       gradientUnits="userSpaceOnUse"
       x1="385.36938"
       y1="219.29855"
       x2="382.05191"
       y2="88.135986"
       gradientTransform="matrix(1.6754441,0,0,1.6754441,-512.02622,692.00134)" />
    <linearGradient
       inkscape:collect="always"
       xlink:href="#linearGradient4110-8"
       id="linearGradient4037"
       gradientUnits="userSpaceOnUse"
       gradientTransform="matrix(1.6754441,0,0,1.6754441,-40.070774,698.01855)"
       x1="108.83735"
       y1="335.54932"
       x2="91.058243"
       y2="42.029888" />
    <filter
       inkscape:collect="always"
       id="filter4237"
       x="-0.39027757"
       width="1.7805551"
       y="-0.31888576"
       height="1.6377715">
      <feGaussianBlur
         inkscape:collect="always"
         stdDeviation="9.2709938"
         id="feGaussianBlur4239" />
    </filter>
  </defs>
  <sodipodi:namedview
     id="base"
     pagecolor="#ffffff"
     bordercolor="#666666"
     borderopacity="1.0"
     inkscape:pageopacity="0.0"
     inkscape:pageshadow="2"
     inkscape:zoom="0.83102983"
     inkscape:cx="-75.685135"
     inkscape:cy="6.0860278"
     inkscape:document-units="px"
     inkscape:current-layer="layer1"
     showgrid="false"
     showguides="true"
     inkscape:guide-bbox="true"
     inkscape:window-width="1434"
     inkscape:window-height="850"
     inkscape:window-x="0"
     inkscape:window-y="26"
     inkscape:window-maximized="1"
     inkscape:snap-global="false" />
  <metadata
     id="metadata7">
    <rdf:RDF>
      <cc:Work
         rdf:about="">
        <dc:format>image/svg+xml</dc:format>
        <dc:type
           rdf:resource="http://purl.org/dc/dcmitype/StillImage" />
        <dc:title />
      </cc:Work>
    </rdf:RDF>
  </metadata>
  <g
     inkscape:label="Layer 1"
     inkscape:groupmode="layer"
     id="layer1"
     transform="translate(0,-796.3622)">
    <path
       sodipodi:type="arc"
       style="opacity:0.26506025;fill:url(#radialGradient4025);fill-opacity:1;stroke:none;filter:url(#filter4063)"
       id="path3985"
       sodipodi:cx="120.92171"
       sodipodi:cy="141.02525"
       sodipodi:rx="73.345955"
       sodipodi:ry="58.336941"
       d="m 194.26766,141.02525 c 0,32.21861 -32.8381,58.33694 -73.34595,58.33694 -40.507855,0 -73.345958,-26.11833 -73.345958,-58.33694 0,-32.2186 32.838103,-58.336937 73.345958,-58.336937 28.21623,0 53.93077,12.873837 66.13291,33.109057"
       transform="matrix(1.4119049,0,0,1.0506194,-39.629102,794.03941)"
       sodipodi:start="0"
       sodipodi:end="5.8359757"
       sodipodi:open="true" />
    <g
       id="g3978"
       transform="translate(196.55331,242.50084)">
      <path
         sodipodi:nodetypes="cczzczscc"
         inkscape:connector-curvature="0"
         id="path3769"
         d="m 236.21884,898.72113 c 0,0 -0.0195,-54.482 -0.0265,-60.1348 -0.007,-5.6527 -2.14009,-15.8354 -16.97977,-15.6991 -14.83967,0.1771 -34.99919,0.3719 -44.11972,0.3896 -9.12056,0.018 -11.50069,10.5263 -11.50069,10.5263 0,0 -112.497246,0.5313 -129.255246,0.5313 -16.758,0 -14.7975,10.884 -14.48406,35.025 0.029,2.2384 -3.49393,21.9838 5.56861,21.8032 47.40723,-4.529 211.173756,0.9778 210.797376,7.5585 z"
         style="fill:url(#linearGradient3987);fill-opacity:1;stroke:none" />
      <rect
         transform="matrix(0.96934222,-0.24571459,0.24571459,0.96934222,0,0)"
         y="856.7301"
         x="-57.709446"
         height="72.889137"
         width="60.473953"
         id="rect4067"
         style="opacity:0.26506025;fill:#0d0d0d;fill-opacity:1;stroke:none;filter:url(#filter4069)" />
      <rect
         transform="matrix(0.9632612,-0.26856631,0.2269135,0.97391492,0,0)"
         y="852.85889"
         x="-190.11949"
         height="133.37636"
         width="200.95544"
         id="rect3905-1"
         style="fill:url(#linearGradient3989);fill-opacity:1;stroke:none" />
      <rect
         transform="matrix(0.98445161,-0.175656,0.13317822,0.99109211,0,0)"
         y="872.77789"
         x="-88.143364"
         height="133.37636"
         width="200.95544"
         id="rect3905"
         style="fill:url(#linearGradient3991);fill-opacity:1;stroke:none" />
      <path
         sodipodi:nodetypes="ccsssssszcc"
         inkscape:connector-curvature="0"
         id="rect2995-2"
         d="m 167.1696,882.89394 c 29.09008,0 22.96757,-0.80098 53.95009,-0.80098 17.36451,0 32.12293,13.95823 31.38071,31.30612 l -3.35398,78.39195 c -0.74222,17.34787 -6.11869,18.16527 -23.48317,18.18447 l -192.001174,0.2125 c -17.364483,0.019 -23.278359,-2.7357 -23.771415,-20.09237 L 6.7228456,878.58125 c -0.493058,-17.35677 1.7235216,-22.56386 20.6607814,-22.6772 18.93726,-0.17709 79.863073,0.0598 104.053033,-0.16668 24.18996,-0.22652 35.70565,3.95058 35.73294,27.15657 z"
         style="fill:url(#linearGradient3993);fill-opacity:1;stroke:url(#linearGradient3995)" />
      <path
         sodipodi:nodetypes="cscscsscccccccc"
         inkscape:connector-curvature="0"
         id="path3769-8"
         d="m 218.66346,822.79243 c -14.83967,0.17709 -35.00447,0.38854 -44.125,0.40625 -9.12056,0.0177 -11.5,10.53125 -11.5,10.53125 0,0 -112.491997,0.53125 -129.249997,0.53125 -13.14408,0 -14.77891,6.71327 -14.71875,21.25 C 4.3245434,856.84954 5.197647,867.8268 5.5656132,883.47582 l 2.3187645,98.61335 c 0.4081716,17.35889 0.4174471,27.93623 18.3483053,28.19743 l 208.273177,0.6309 c 17.36447,-0.022 14.56415,-14.73152 15.45391,-30.80866 l 3.08622,-66.35154 c 1.35661,-10.12593 -6.59189,-24.27061 -17.38253,-30.00365 -0.004,-12.08907 -0.0253,-40.45644 -0.0313,-45.24247 -0.007,-5.65274 -2.12907,-15.85511 -16.96875,-15.71875 z"
         style="fill:none;stroke:#000000;stroke-width:3;stroke-miterlimit:4;stroke-opacity:1;stroke-dasharray:none" />
      <path
         sodipodi:nodetypes="csscscsc"
         inkscape:connector-curvature="0"
         id="path3854"
         d="m 12.265967,963.4858 c 0,0 -3.0479033,-88.14302 -1.931649,-94.73911 0.995518,-5.88266 3.256672,-10.124 14.230247,-10.05321 3.974664,0.0256 113.912775,0.63718 113.912775,0.63718 0,0 17.77658,-1.26515 22.51355,8.70806 4.07469,8.57883 2.33631,17.84093 2.33631,17.84093 0,0 53.94749,-1.20357 59.04489,-0.63719 5.0974,0.56638 17.41614,3.11508 24.21267,14.01785"
         style="fill:none;stroke:url(#linearGradient3997);stroke-width:5;stroke-linecap:butt;stroke-linejoin:miter;stroke-miterlimit:4;stroke-opacity:1;stroke-dasharray:none" />
    </g>
    <path
       style="fill:url(#linearGradient4245);fill-opacity:1;stroke:none"
       d="m -208.37391,937.43683 c -5.52838,4.00876 -6.7694,11.79662 -2.76068,17.325 l 46.63255,64.30987 c 4.00873,5.5283 11.66914,6.5933 17.19753,2.5846 l 64.485661,-46.76012 c 5.52837,-4.00876 6.72071,-11.49299 2.71198,-17.02137 l -46.632551,-64.30988 c -4.00872,-5.52834 -11.62045,-6.89688 -17.14882,-2.88813 z m 9.92404,-2.89448 48.80473,-35.38943 4.34362,5.9902 c 4.00912,5.52889 3.24256,12.70355 -1.65487,16.25479 l -31.18569,22.61345 c -4.89742,3.55125 -11.95504,2.05005 -15.96417,-3.47882 z m -7.19178,17.04318 5.28571,-3.83276 c 1.43738,-1.0423 3.51691,-0.71103 4.55921,0.72638 l 1.91635,2.64284 c 1.04231,1.43734 0.58347,3.34114 -0.85392,4.38344 l -5.2857,3.83283 c -1.43738,1.04223 -3.2133,0.75894 -4.2556,-0.67847 l -1.91636,-2.64276 c -1.0423,-1.43751 -0.88707,-3.38919 0.55031,-4.4315 z m 68.52073,-48.61013 5.28571,-3.8328 c 1.43737,-1.04229 3.21287,-0.75956 4.25506,0.6777 l 1.91647,2.64295 c 1.04219,1.43727 0.88707,3.38916 -0.55032,4.43143 l -5.28571,3.8328 c -1.43737,1.04227 -3.517,0.71085 -4.55921,-0.72642 l -1.91645,-2.64294 c -1.0422,-1.43726 -0.58293,-3.34046 0.85445,-4.38272 z m -60.26467,60.3666 5.10952,-3.70504 c 1.43738,-1.04222 3.51702,-0.7108 4.55921,0.72646 l 1.78852,2.46643 c 1.04219,1.43727 0.71087,3.51692 -0.72651,4.55921 l -5.10952,3.70504 c -1.43738,1.0423 -3.51701,0.71089 -4.55921,-0.72638 l -1.78851,-2.46651 c -1.04219,-1.43726 -0.71088,-3.51691 0.7265,-4.55921 z m 22.27706,-15.62068 29.24759,-21.2081 c 5.52839,-4.00875 13.31621,-2.76808 17.32495,2.76028 l 14.56485,20.08602 c 4.00873,5.52838 2.76772,13.31626 -2.76066,17.32504 l -29.2476,21.20812 c -5.52838,4.00868 -13.3163,2.76788 -17.32504,-2.76042 l -14.56484,-20.08607 c -4.00874,-5.52829 -2.76764,-13.31611 2.76075,-17.32487 z m 46.11225,-33.1707 5.10952,-3.70503 c 1.43738,-1.04228 3.517,-0.71086 4.5592,0.7264 l 1.91646,2.64295 c 1.04219,1.43727 0.71089,3.51691 -0.72649,4.55919 l -5.10953,3.70502 c -1.43738,1.04229 -3.517,0.71088 -4.5592,-0.72639 l -1.91646,-2.64294 c -1.04221,-1.43728 -0.71088,-3.51692 0.7265,-4.5592 z m -60.39261,60.19024 5.28571,-3.83284 c 1.43737,-1.0423 3.51701,-0.71088 4.55921,0.72638 l 1.78893,2.46714 c 1.04218,1.43719 0.71087,3.51684 -0.72651,4.55914 l -5.28571,3.83283 c -1.43738,1.04222 -3.34083,0.58301 -4.38301,-0.85417 l -1.78893,-2.46706 c -1.0422,-1.43727 -0.88707,-3.38919 0.55031,-4.43142 z m 68.39372,-48.78534 5.28571,-3.8328 c 1.43738,-1.04228 3.34082,-0.5831 4.38301,0.85416 l 1.91646,2.64295 c 1.04218,1.43724 0.88707,3.38914 -0.55032,4.43141 l -5.28571,3.8328 c -1.43737,1.04226 -3.51701,0.71086 -4.55921,-0.7264 l -1.91644,-2.64293 c -1.0422,-1.43727 -0.71088,-3.51692 0.7265,-4.55919 z m -60.00877,60.71955 5.28571,-3.83283 c 1.43737,-1.04231 3.34071,-0.58325 4.38303,0.85417 l 1.91635,2.64284 c 1.04228,1.43734 0.75923,3.21286 -0.67814,4.25509 l -5.28571,3.83284 c -1.43739,1.04222 -3.3891,0.88728 -4.43139,-0.55014 l -1.91634,-2.64275 c -1.04231,-1.43751 -0.7109,-3.517 0.72649,-4.55922 z m 68.39362,-48.78546 5.10952,-3.70504 c 1.43738,-1.04228 3.51702,-0.71085 4.55931,0.72654 l 1.91637,2.64282 c 1.042691,1.43796 0.71087,3.5169 -0.72652,4.55919 l -5.10951,3.70503 c -1.43738,1.04231 -3.5165,0.71159 -4.5592,-0.7264 l -1.91638,-2.64282 c -1.04229,-1.4374 -0.71097,-3.51705 0.72641,-4.55932 z m -60.13671,60.5431 5.10951,-3.70503 c 1.43738,-1.0423 3.51705,-0.7108 4.55924,0.72646 l 1.7889,2.46698 c 1.04232,1.43742 0.7109,3.51698 -0.72648,4.55918 l -5.10952,3.7051 c -1.43738,1.0423 -3.51691,0.711 -4.55923,-0.7265 l -1.78891,-2.467 c -1.04218,-1.4372 -0.71089,-3.51697 0.72649,-4.55919 z m 68.21751,-48.65762 5.285711,-3.83275 c 1.43738,-1.0423 3.51704,-0.71083 4.55922,0.72645 l 1.91648,2.64291 c 1.04218,1.43727 0.58333,3.34098 -0.85405,4.38336 l -5.2857,3.83276 c -1.437391,1.04231 -3.213291,0.75894 -4.255481,-0.67824 l -1.91647,-2.643 c -1.04219,-1.43726 -0.8871,-3.38919 0.55029,-4.43149 z m -37.60877,65.44471 -4.34356,-5.9901 c -4.0093,-5.5291 -3.24402,-12.97093 1.70349,-16.55847 l 31.53806,-22.86898 c 4.94751,-3.58753 12.08245,-1.87437 16.091751,3.65478 l 4.34356,5.99011 m -71.940501,30.39106 5.28571,-3.8328 c 1.43738,-1.0423 3.3408,-0.5831 4.38298,0.8541 l 1.78855,2.4666 c 1.04219,1.4372 0.88704,3.3891 -0.55035,4.4313 l -5.2857,3.8329 c -1.43738,1.0422 -3.51699,0.7108 -4.55918,-0.7264 l -1.78855,-2.4665 c -1.04218,-1.4373 -0.71084,-3.5169 0.72654,-4.5592 z m 68.393731,-48.78528 5.10952,-3.70512 c 1.43738,-1.04222 3.51698,-0.71089 4.55917,0.72638 l 1.91637,2.64284 c 1.04231,1.43742 0.58301,3.34059 -0.85437,4.38281 l -5.10952,3.70503 c -1.43738,1.0423 -3.38902,0.88745 -4.43134,-0.55006 l -1.91637,-2.64275 c -1.04218,-1.43726 -0.71084,-3.51691 0.72654,-4.55913 z"
       id="rect3861"
       inkscape:connector-curvature="0"
       sodipodi:nodetypes="sssssssssccsssscssssssssssssssssssssssssssssssssssssssssssssssssssssssssssssssssssssssssssssssssssssssssssssssssssscsssscssssssssssssssssss" />
    <path
       sodipodi:type="arc"
       style="fill:#4b7744;fill-opacity:1;stroke:none"
       id="path4005"
       sodipodi:cx="7.8584957"
       sodipodi:cy="8.7078829"
       sodipodi:rx="1.7345328"
       sodipodi:ry="1.7345328"
       d="M 9.5880146,8.5760927 C 9.6608003,9.5312796 8.9454728,10.364616 7.9902859,10.437402 7.035099,10.510187 6.2017626,9.7948599 6.1289768,8.8396731 6.0561911,7.8844862 6.7715186,7.0511497 7.7267055,6.978364 8.6671696,6.9067002 9.4925313,7.599668 9.5847228,8.5383422"
       transform="matrix(17.096506,0,0,17.096506,511.61844,1010.7991)"
       sodipodi:start="6.2071318"
       sodipodi:end="12.46847"
       sodipodi:open="true" />
    <path
       inkscape:connector-curvature="0"
       style="fill:#4b7744;fill-opacity:1;stroke:none"
       d="m 677.22689,1046.1376 c 0,13.7695 -13.76,27.7491 -29.66923,27.7578 -15.90922,0 -29.81453,-14.573 -29.81453,-27.6912 10.59548,-0.1709 50.90875,0 59.48376,0 z"
       id="path4005-5-1-6"
       sodipodi:nodetypes="czccc" />
    <path
       inkscape:connector-curvature="0"
       style="fill:#4b7744;fill-opacity:1;stroke:none"
       d="m 615.60026,1272.2046 c 0,-13.7694 13.76,-27.7494 29.66923,-27.7576 15.90921,0 29.81454,14.5728 29.81454,27.691 -10.59548,0.1724 -50.90876,0 -59.48377,0 z"
       id="path4005-5-1-6-6"
       sodipodi:nodetypes="czccc" />
    <path
       style="opacity:0.83999999;fill:url(#linearGradient4541);fill-opacity:1;stroke:none"
       d="m -253.13477,1009.8583 c -0.75649,-0.018 -1.55229,-0.016 -2.32253,0.042 -12.51688,0.9539 -21.8566,11.8908 -20.9028,24.4077 0.53907,7.0745 4.28181,13.1619 9.67019,16.9334 l -4.81398,10.3036 c -4.05083,0.3181 -8.08599,0.6972 -12.03496,1.098 l -3.29378,-4.6029 c 5.97432,-4.5131 9.60528,-11.8745 8.99455,-19.8893 l -0.0423,-0.5068 c -1.13257,-11.5318 -10.69567,-20.2115 -22.04297,-20.4805 -0.75648,-0.017 -1.55229,-0.016 -2.32254,0.042 -12.51688,0.9539 -21.85661,11.8908 -20.90281,24.4077 0.95378,12.5169 11.84862,21.8989 24.3655,20.9451 0.90317,-0.069 1.79253,-0.2105 2.66036,-0.3801 l 1.18238,1.6047 c -5.27449,0.5087 -10.07388,0.9024 -13.89298,0.929 -6.3342,0.043 -13.34402,0.1688 -13.34402,6.5031 l 0,40.4121 c 0,6.3345 5.10941,11.4015 11.44376,11.4015 34.59046,0.3616 44.16902,0.549 79.17731,0.549 4.8566,0.1014 2.18046,-15.1275 3.84275,-19.3826 l 39.27196,15.751 1.14016,-61.5261 -39.82092,14.9909 c -1.08004,-10.6242 -15.26021,-12.944 -32.13544,-12.5416 l 2.61812,-5.7008 c 0.0138,0 0.0284,-10e-4 0.0424,0 1.49767,0.1897 3.03823,0.2037 4.60284,0.085 12.51689,-0.9537 21.89885,-11.8908 20.94504,-24.4077 l -0.0422,-0.5068 c -1.13257,-11.5318 -10.69567,-20.2115 -22.04297,-20.4805 z m 3.04042,4.3072 8.69894,2.3648 -3.08264,7.8122 c -2.09999,-2.1732 -4.97376,-3.5227 -8.14999,-3.6316 z m -12.45723,0.8024 4.89843,6.672 c -2.68474,1.1155 -4.85107,3.1411 -6.12303,5.7007 l -5.70077,-7.6854 z m -34.33129,6.5031 8.69895,2.3647 -3.08264,7.8122 c -2.09999,-2.1731 -4.97377,-3.5226 -8.14998,-3.6316 z m -12.45723,0.8023 4.89843,6.672 c -2.68475,1.1155 -4.85108,3.1412 -6.12304,5.7008 l -5.70077,-7.6855 z m 74.70115,2.7448 1.26684,9.8391 -8.31889,1.478 c 0.46544,-1.4378 0.67088,-2.9606 0.54895,-4.5606 l 0,-0.2956 c -0.17939,-1.8266 -0.8002,-3.5066 -1.68912,-4.9829 z m -30.02402,4.8984 c -0.27881,1.1735 -0.43438,2.4069 -0.33782,3.6739 0.17248,2.2637 1.00524,4.3192 2.23807,6.0386 l -8.36112,1.858 -1.60466,-9.7547 z m -16.76448,2.407 1.26684,9.8391 -8.3189,1.478 c 0.46545,-1.4378 0.67089,-2.9604 0.54896,-4.5606 l 0,-0.2956 c -0.1794,-1.8265 -0.80021,-3.5067 -1.68912,-4.9829 z m -30.02405,4.8985 c -0.27881,1.1735 -0.43437,2.4068 -0.33782,3.6738 0.17249,2.2637 1.00525,4.3192 2.23808,6.0386 l -8.36113,1.858 -1.60466,-9.7546 z m 68.87371,1.1824 6.24972,5.194 -5.70075,6.672 -7.43212,-6.2075 c 2.984,-0.9373 5.42232,-2.9976 6.88315,-5.6585 z m -18.07352,3.5049 c 2.29744,1.886 5.28985,2.904 8.48778,2.6603 0.33992,-0.026 0.68288,-0.03 1.01347,-0.084 l -2.2803,7.6011 -7.98106,-1.5202 -1.43576,-1.1824 z m -28.71499,3.8005 6.24973,5.194 -4.81398,5.6163 -1.0557,-1.5202 -1.56243,1.0979 -5.70077,-4.7295 c 2.98401,-0.9372 5.42232,-2.9976 6.88315,-5.6585 z m -18.07355,3.5049 c 2.29746,1.8861 5.28988,2.904 8.48781,2.6604 0.33992,-0.026 0.68288,-0.031 1.01347,-0.084 l -2.2803,7.601 -9.6702,-1.8158 z"
       id="rect4277"
       inkscape:connector-curvature="0"
       sodipodi:nodetypes="ccsccccccccsccccssccccccccccccccccccccccccccccccccccccccccccsccccccccccccsccccccccccccccccccccccccccccc" />
    <path
       sodipodi:type="arc"
       style="fill:#588a50;fill-opacity:1;stroke:none"
       id="path3828"
       sodipodi:cx="360.44644"
       sodipodi:cy="164.23718"
       sodipodi:rx="10.982142"
       sodipodi:ry="10.982142"
       d="m 371.39684,163.40276 c 0.46084,6.04773 -4.06824,11.32398 -10.11597,11.78482 -6.04774,0.46084 -11.32398,-4.06823 -11.78483,-10.11597 -0.46084,-6.04774 4.06824,-11.32398 10.11598,-11.78482 5.95452,-0.45374 11.18027,3.93376 11.76398,9.87695"
       sodipodi:start="6.2071318"
       sodipodi:end="12.46847"
       transform="matrix(2.3790905,0,0,2.3790905,-1085.0768,802.27146)"
       sodipodi:open="true" />
    <path
       style="fill:url(#linearGradient4037);fill-opacity:1;stroke:none"
       d="m 167.92777,842.92972 0,17.12094 -39.88808,-40.57723 -95.736941,105.44572 23.565205,0 0.504023,99.33975 55.567073,0 0.41886,-58.9298 37.5174,0 -0.57593,59.2963 56.03003,0 -0.50402,-99.70625 20.33228,0 c -14.01581,-19.74129 -14.65058,-19.51227 -28.38085,-39.45217 l 0,-42.53718 -28.84905,0 z"
       id="path3050"
       inkscape:connector-curvature="0"
       sodipodi:nodetypes="ccccccccccccccccc" />
    <path
       style="fill:none;stroke:#000000;stroke-width:3.94430447;stroke-miterlimit:4;stroke-opacity:1;stroke-dasharray:none"
       d="m 168.74686,841.27917 0,17.45056 -40.65607,-41.35848 -97.580206,107.47593 24.018917,0 0.513725,101.25242 56.636924,0 0.42695,-60.06445 38.23973,0 -0.58702,60.43805 57.10881,0 -0.51372,-101.62602 20.72373,0 C 212.79297,904.7258 212.14599,904.95923 198.15137,884.63542 l 0,-43.35617 -29.40451,0 z"
       id="path3050-3"
       inkscape:connector-curvature="0"
       sodipodi:nodetypes="ccccccccccccccccc" />
    <path
       style="fill:none;stroke:url(#linearGradient4033);stroke-width:4;stroke-linecap:butt;stroke-linejoin:miter;stroke-miterlimit:4;stroke-opacity:1;stroke-dasharray:none"
       d="m 37.362623,922.07659 91.732807,-99.0412 43.25656,44.67102 0.40641,-22.39622 21.45408,0 -0.0976,40.4765 26.71342,36.0379"
       id="path3877"
       inkscape:connector-curvature="0"
       sodipodi:nodetypes="ccccccc" />
    <path
       style="fill:none;stroke:url(#linearGradient4030);stroke-width:3;stroke-linecap:butt;stroke-linejoin:miter;stroke-miterlimit:4;stroke-opacity:1;stroke-dasharray:none"
       d="m 154.25584,963.69886 -0.50402,60.48404"
       id="path3888"
       inkscape:connector-curvature="0" />
    <path
       style="fill:none;stroke:url(#linearGradient4027);stroke-width:3;stroke-linecap:butt;stroke-linejoin:miter;stroke-miterlimit:4;stroke-opacity:1;stroke-dasharray:none"
       d="m 108.66652,963.3496 -0.50403,60.4841"
       id="path3888-3"
       inkscape:connector-curvature="0" />
    <path
       style="fill:none;stroke:#525252;stroke-width:2.82603264;stroke-linecap:butt;stroke-linejoin:miter;stroke-miterlimit:4;stroke-opacity:1;stroke-dasharray:none"
       d="m 106.62797,962.78925 49.48851,0"
       id="path3932"
       inkscape:connector-curvature="0" />
    <path
       style="fill:none;stroke:#474747;stroke-width:2.97174573;stroke-linecap:butt;stroke-linejoin:miter;stroke-miterlimit:4;stroke-opacity:1;stroke-dasharray:none"
       d="m 57.081753,1022.7516 52.725717,0"
       id="path3932-3"
       inkscape:connector-curvature="0" />
    <path
       style="fill:none;stroke:#474747;stroke-width:2.97188234;stroke-linecap:butt;stroke-linejoin:miter;stroke-miterlimit:4;stroke-opacity:1;stroke-dasharray:none"
       d="m 151.79292,1022.9834 52.99952,0"
       id="path3932-3-2"
       inkscape:connector-curvature="0" />
    <path
       sodipodi:type="arc"
       style="opacity:0.48192773000000000;fill:#f9fbe5;fill-opacity:1;stroke:none;filter:url(#filter4237)"
       id="path4231"
       sodipodi:cx="135.71538"
       sodipodi:cy="108.79774"
       sodipodi:rx="28.504484"
       sodipodi:ry="34.886086"
       d="m 164.13746,106.14708 a 28.504484,34.886086 0 1 1 -0.0541,-0.75926"
       transform="matrix(1.3855732,0,0,1.2308205,-54.880853,775.92928)"
       sodipodi:start="6.2071318"
       sodipodi:end="12.46847"
       sodipodi:open="true" />
    <g
       id="g2994"
       transform="matrix(22.841144,0,0,22.841144,80.232428,850.77079)"
       style="fill:#666666;fill-rule:evenodd">
      <path
         sodipodi:nodetypes="ccccc"
         style="fill:#666666;fill-opacity:1"
         inkscape:connector-curvature="0"
         d="M 0.67062907,3.1466295 0.96315753,3.436604 C 1.4643536,2.1285285 2.9137173,3.0231678 2.3709066,3.891 L 2.767349,4.0396257 C 3.5316128,2.8534265 1.7399119,1.2088624 0.67062907,3.1466295 z"
         class="fil0"
         id="_121731384" />
      <path
         sodipodi:nodetypes="zsccz"
         style="fill:#666666;fill-opacity:1"
         inkscape:connector-curvature="0"
         d="M 0.1777958,2.5586559 C -0.01275712,2.3374532 0.11748395,2.4022267 0.31580842,2.5444209 0.51413288,2.686615 0.81410198,2.8425452 1.1021572,3.1460838 L 0.96046525,3.4267024 C 0.50016423,3.0157207 0.36834871,2.7798588 0.1777958,2.5586559 z"
         class="fil0"
         id="_121328256" />
      <path
         sodipodi:open="true"
         sodipodi:end="12.46847"
         sodipodi:start="6.2071318"
         transform="matrix(0.13834256,0,0,0.13834256,0.19919495,1.7915877)"
         d="m 13.844562,12.550547 c 0.112017,1.470034 -0.988873,2.752541 -2.458908,2.864558 -1.4700343,0.112018 -2.7525408,-0.988873 -2.8645582,-2.458907 -0.1120173,-1.470035 0.9888732,-2.752542 2.4589082,-2.864559 1.447376,-0.1102906 2.717609,0.956188 2.859492,2.40081"
         sodipodi:ry="2.6694496"
         sodipodi:rx="2.6694496"
         sodipodi:cy="12.753372"
         sodipodi:cx="11.182829"
         id="path3582"
         style="fill:#666666;fill-opacity:1;stroke:none"
         sodipodi:type="arc" />
      <path
         sodipodi:nodetypes="zsccz"
         style="fill:#666666;fill-opacity:1;fill-rule:evenodd"
         inkscape:connector-curvature="0"
         d="M 0.4247675,1.3417552 C 0.30865975,1.051719 0.40976238,1.1514637 0.55275704,1.3529974 0.69575091,1.5545312 1.0526419,2.1606454 1.2359221,2.5639276 L 0.96710859,2.750389 C 0.74796061,2.1419236 0.54087506,1.6317917 0.4247675,1.3417552 z"
         class="fil0"
         id="_121328256-7" />
      <path
         sodipodi:nodetypes="zsccz"
         style="fill:#666666;fill-opacity:1;fill-rule:evenodd"
         inkscape:connector-curvature="0"
         d="M 1.44312,0.58246558 C 1.43361,0.2701971 1.521214,0.39282353 1.5594765,0.63695278 1.6013875,0.90435635 1.7053444,1.7413136 1.7506921,2.2817189 l -0.3164814,0.082874 c 0.003,-0.6467199 0.018418,-1.46985881 0.00891,-1.78212772 z"
         class="fil0"
         id="_121328256-7-9" />
      <path
         sodipodi:nodetypes="zsccz"
         style="fill:#666666;fill-opacity:1;fill-rule:evenodd"
         inkscape:connector-curvature="0"
         d="M 2.4423509,0.52194906 C 2.5291241,0.19808085 2.5810366,0.32015476 2.5788735,0.5833539 2.5767086,0.84655178 2.4931372,1.8976838 2.1801821,2.4013588 L 1.8869765,2.2775017 c 0.307833,-0.6143974 0.4686,-1.43168421 0.5553744,-1.75555264 z"
         class="fil0"
         id="_121328256-7-4" />
      <path
         sodipodi:nodetypes="zsccz"
         style="fill:#666666;fill-opacity:1;fill-rule:evenodd"
         inkscape:connector-curvature="0"
         d="M 3.6839051,1.1452392 C 3.9311577,0.7718015 3.8949861,1.029192 3.7754429,1.2636867 3.5368401,1.7317274 2.9264141,2.4275569 2.4666837,2.7714357 L 2.2400615,2.4692892 C 2.8122122,2.0577751 3.4366526,1.5186768 3.6839051,1.1452392 z"
         class="fil0"
         id="_121328256-7-4-9" />
      <path
         sodipodi:nodetypes="zsccz"
         style="fill:#666666;fill-opacity:1;fill-rule:evenodd"
         inkscape:connector-curvature="0"
         d="m 4.2265513,3.0597007 c 0.4091243,-0.09358 0.2522344,0.074602 0.024419,0.1707759 C 4.0062521,3.3337885 3.127026,3.6011424 2.5719027,3.6165508 l 0.00603,-0.3830989 c 0.653125,-5.32e-4 1.239497,-0.080171 1.6486213,-0.1737512 z"
         class="fil0"
         id="_121328256-7-4-9-1" />
      <path
         sodipodi:nodetypes="zsccz"
         style="fill:#666666;fill-opacity:1;fill-rule:evenodd"
         inkscape:connector-curvature="0"
         d="M 3.9700033,4.2976494 C 4.2626923,4.4304234 4.1316091,4.4287597 3.9491295,4.4043056 3.7042093,4.3714838 3.1539385,4.1823832 2.7531868,4.0349335 L 2.8590012,3.7253663 c 0.5571017,0.2920484 0.8183128,0.4395089 1.1110017,0.572283 z"
         class="fil0"
         id="_121328256-9" />
      <path
         inkscape:transform-center-x="-0.069049672"
         inkscape:transform-center-y="0.95298244"
         sodipodi:nodetypes="zsccz"
         style="fill:#666666;fill-opacity:1;fill-rule:evenodd"
         inkscape:connector-curvature="0"
         d="M 4.1962848,2.076334 C 4.5907234,1.8600715 4.4775437,2.0697011 4.2705883,2.2323244 4.0482794,2.4070154 3.2196806,2.935215 2.6523716,3.1218067 L 2.5483179,2.7530525 C 3.2208399,2.5503733 3.801846,2.2925963 4.1962848,2.076334 z"
         class="fil0"
         id="_121328256-7-4-9-1-7" />
    </g>
  </g>
</svg>
