<?xml version="1.0" encoding="UTF-8" standalone="no"?>
<!-- Created with Inkscape (http://www.inkscape.org/) -->

<svg
   xmlns:dc="http://purl.org/dc/elements/1.1/"
   xmlns:cc="http://creativecommons.org/ns#"
   xmlns:rdf="http://www.w3.org/1999/02/22-rdf-syntax-ns#"
   xmlns:svg="http://www.w3.org/2000/svg"
   xmlns="http://www.w3.org/2000/svg"
   xmlns:xlink="http://www.w3.org/1999/xlink"
   xmlns:sodipodi="http://sodipodi.sourceforge.net/DTD/sodipodi-0.dtd"
   xmlns:inkscape="http://www.inkscape.org/namespaces/inkscape"
   width="256"
   height="256"
   id="svg2"
   version="1.1"
   inkscape:version="0.48.3.1 r9886"
   sodipodi:docname="user-trash-full.svg">
  <defs
     id="defs4">
    <inkscape:path-effect
       effect="skeletal"
       id="path-effect3942"
       is_visible="true"
       pattern="M 0,5 C 0,2.24 2.24,0 5,0 7.76,0 10,2.24 10,5 10,7.76 7.76,10 5,10 2.24,10 0,7.76 0,5 z"
       copytype="single_stretched"
       prop_scale="1"
       scale_y_rel="false"
       spacing="0"
       normal_offset="0"
       tang_offset="0"
       prop_units="false"
       vertical_pattern="false"
       fuse_tolerance="0" />
    <linearGradient
       inkscape:collect="always"
       id="linearGradient3924">
      <stop
         style="stop-color:#ebfafe;stop-opacity:1;"
         offset="0"
         id="stop3926" />
      <stop
         style="stop-color:#ebfafe;stop-opacity:0;"
         offset="1"
         id="stop3928" />
    </linearGradient>
    <inkscape:path-effect
       effect="skeletal"
       id="path-effect3912"
       is_visible="true"
       pattern="m -4.0406102,800.35205 c 0,-2.76 2.24,-5 5.00000005,-5 2.75999995,0 4.99999995,2.24 4.99999995,5 0,2.76 -2.24,5 -4.99999995,5 -2.76000005,0 -5.00000005,-2.24 -5.00000005,-5 z"
       copytype="single_stretched"
       prop_scale="0.4"
       scale_y_rel="false"
       spacing="0"
       normal_offset="0"
       tang_offset="0"
       prop_units="false"
       vertical_pattern="false"
       fuse_tolerance="0" />
    <inkscape:path-effect
       effect="skeletal"
       id="path-effect3880"
       is_visible="true"
       pattern="M 0,5 C 0,2.24 2.24,0 5,0 7.76,0 10,2.24 10,5 10,7.76 7.76,10 5,10 2.24,10 0,7.76 0,5 z"
       copytype="single_stretched"
       prop_scale="0.3"
       scale_y_rel="false"
       spacing="0"
       normal_offset="0"
       tang_offset="0"
       prop_units="false"
       vertical_pattern="false"
       fuse_tolerance="0" />
    <inkscape:path-effect
       effect="skeletal"
       id="path-effect3876"
       is_visible="true"
       pattern="m 203.57143,781.3622 c 0,-2.76 2.24,-5 5,-5 2.76,0 5,2.24 5,5 0,2.76 -2.24,5 -5,5 -2.76,0 -5,-2.24 -5,-5 z"
       copytype="single_stretched"
       prop_scale="1"
       scale_y_rel="false"
       spacing="0"
       normal_offset="0"
       tang_offset="0"
       prop_units="false"
       vertical_pattern="false"
       fuse_tolerance="0" />
    <inkscape:path-effect
       effect="skeletal"
       id="path-effect3872"
       is_visible="true"
       pattern="m 369.71583,908.43837 c 0,-2.76 2.24,-5 5,-5 2.76,0 5,2.24 5,5 0,2.76 -2.24,5 -5,5 -2.76,0 -5,-2.24 -5,-5 z"
       copytype="single_stretched"
       prop_scale="1"
       scale_y_rel="false"
       spacing="0"
       normal_offset="0"
       tang_offset="0"
       prop_units="false"
       vertical_pattern="false"
       fuse_tolerance="0" />
    <inkscape:path-effect
       effect="skeletal"
       id="path-effect3868"
       is_visible="true"
       pattern="m 1.0101525,795.30128 c 0,-2.76 2.24,-5 5,-5 2.76,0 5.0000005,2.24 5.0000005,5 0,2.76 -2.2400005,5 -5.0000005,5 -2.76,0 -5,-2.24 -5,-5 z"
       copytype="single_stretched"
       prop_scale="1"
       scale_y_rel="false"
       spacing="0"
       normal_offset="0"
       tang_offset="0"
       prop_units="false"
       vertical_pattern="false"
       fuse_tolerance="0" />
    <inkscape:path-effect
       effect="skeletal"
       id="path-effect3864"
       is_visible="true"
       pattern="m 4.0406102,804.39266 c 0,-2.76 2.24,-5 5,-5 2.7599998,0 4.9999998,2.24 4.9999998,5 0,2.76 -2.24,5 -4.9999998,5 -2.76,0 -5,-2.24 -5,-5 z"
       copytype="single_stretched"
       prop_scale="0.3"
       scale_y_rel="false"
       spacing="0"
       normal_offset="0"
       tang_offset="0"
       prop_units="false"
       vertical_pattern="false"
       fuse_tolerance="0" />
    <inkscape:path-effect
       effect="skeletal"
       id="path-effect3860"
       is_visible="true"
       pattern="M 0,5 C 0,2.24 2.24,0 5,0 7.76,0 10,2.24 10,5 10,7.76 7.76,10 5,10 2.24,10 0,7.76 0,5 z"
       copytype="single_stretched"
       prop_scale="0.29"
       scale_y_rel="false"
       spacing="0"
       normal_offset="0"
       tang_offset="0"
       prop_units="false"
       vertical_pattern="false"
       fuse_tolerance="0" />
    <inkscape:path-effect
       effect="skeletal"
       id="path-effect3856"
       is_visible="true"
       pattern="M 0,5 C 0,2.24 2.24,0 5,0 7.76,0 10,2.24 10,5 10,7.76 7.76,10 5,10 2.24,10 0,7.76 0,5 z"
       copytype="single_stretched"
       prop_scale="0.3"
       scale_y_rel="false"
       spacing="0"
       normal_offset="0"
       tang_offset="0"
       prop_units="false"
       vertical_pattern="false"
       fuse_tolerance="0" />
    <inkscape:path-effect
       effect="skeletal"
       id="path-effect3852"
       is_visible="true"
       pattern="m 0.59001161,5.8850174 c 0,-2.76 2.23999999,-4.99999998 4.99999999,-4.99999998 2.76,0 5.0000004,2.23999998 5.0000004,4.99999998 0,2.76 -2.2400004,4.9999996 -5.0000004,4.9999996 -2.76,0 -4.99999999,-2.2399996 -4.99999999,-4.9999996 z"
       copytype="single_stretched"
       prop_scale="0.4"
       scale_y_rel="false"
       spacing="0"
       normal_offset="0"
       tang_offset="0"
       prop_units="false"
       vertical_pattern="false"
       fuse_tolerance="0" />
    <linearGradient
       id="linearGradient3844">
      <stop
         id="stop3846"
         offset="0"
         style="stop-color:#4290cc;stop-opacity:1;" />
      <stop
         id="stop3848"
         offset="1"
         style="stop-color:#d0f3fe;stop-opacity:1;" />
    </linearGradient>
    <linearGradient
       id="linearGradient3838">
      <stop
         id="stop3840"
         offset="0"
         style="stop-color:#535353;stop-opacity:0.6226415;" />
      <stop
         id="stop3842"
         offset="1"
         style="stop-color:#666666;stop-opacity:0" />
    </linearGradient>
    <linearGradient
       id="linearGradient3786">
      <stop
         style="stop-color:#0a426c;stop-opacity:1;"
         offset="0"
         id="stop3788" />
      <stop
         style="stop-color:#98e4fc;stop-opacity:1;"
         offset="1"
         id="stop3790" />
    </linearGradient>
    <linearGradient
       id="linearGradient3768">
      <stop
         style="stop-color:#3c7741;stop-opacity:1;"
         offset="0"
         id="stop3770" />
      <stop
         style="stop-color:#a9e955;stop-opacity:1;"
         offset="1"
         id="stop3772" />
    </linearGradient>
    <inkscape:perspective
       sodipodi:type="inkscape:persp3d"
       inkscape:vp_x="0 : 526.18109 : 1"
       inkscape:vp_y="0 : 1000 : 0"
       inkscape:vp_z="744.09448 : 526.18109 : 1"
       inkscape:persp3d-origin="372.04724 : 350.78739 : 1"
       id="perspective4095" />
    <linearGradient
       inkscape:collect="always"
       xlink:href="#linearGradient3768-6"
       id="linearGradient3774-3"
       x1="935.17816"
       y1="578.40179"
       x2="891.46472"
       y2="144.11606"
       gradientUnits="userSpaceOnUse" />
    <linearGradient
       inkscape:collect="always"
       id="linearGradient3768-6">
      <stop
         style="stop-color:#666666;stop-opacity:1;"
         offset="0"
         id="stop3770-2" />
      <stop
         style="stop-color:#666666;stop-opacity:0"
         offset="1"
         id="stop3772-7" />
    </linearGradient>
    <filter
       inkscape:collect="always"
       id="filter3904"
       x="-1.2125035"
       width="3.4250071"
       y="-0.97591886"
       height="2.9518377">
      <feGaussianBlur
         inkscape:collect="always"
         stdDeviation="33.683982"
         id="feGaussianBlur3906" />
    </filter>
    <filter
       inkscape:collect="always"
       id="filter3934"
       x="-0.13966172"
       width="1.2793234"
       y="-0.56434762"
       height="2.1286952">
      <feGaussianBlur
         inkscape:collect="always"
         stdDeviation="23.279255"
         id="feGaussianBlur3936" />
    </filter>
    <linearGradient
       inkscape:collect="always"
       xlink:href="#linearGradient3844-9"
       id="linearGradient3908-4"
       x1="1212.8572"
       y1="193.14285"
       x2="720"
       y2="116"
       gradientUnits="userSpaceOnUse" />
    <linearGradient
       id="linearGradient3844-9">
      <stop
         id="stop3846-1"
         offset="0"
         style="stop-color:#4290cc;stop-opacity:1;" />
      <stop
         id="stop3848-2"
         offset="1"
         style="stop-color:#d0f3fe;stop-opacity:1;" />
    </linearGradient>
    <filter
       inkscape:collect="always"
       id="filter4002">
      <feGaussianBlur
         inkscape:collect="always"
         stdDeviation="6.3353278"
         id="feGaussianBlur4004" />
    </filter>
    <filter
       inkscape:collect="always"
       id="filter4016"
       x="-0.11122332"
       width="1.2224466"
       y="-0.56558261"
       height="2.1311652">
      <feGaussianBlur
         inkscape:collect="always"
         stdDeviation="11.188973"
         id="feGaussianBlur4018" />
    </filter>
    <linearGradient
       inkscape:collect="always"
       xlink:href="#linearGradient3768"
       id="linearGradient4129"
       gradientUnits="userSpaceOnUse"
       x1="935.17816"
       y1="578.40179"
       x2="891.46472"
       y2="144.11606" />
    <linearGradient
       inkscape:collect="always"
       xlink:href="#linearGradient3844"
       id="linearGradient4131"
       gradientUnits="userSpaceOnUse"
       x1="1212.8572"
       y1="193.14285"
       x2="720"
       y2="116" />
    <linearGradient
       inkscape:collect="always"
       xlink:href="#linearGradient3786"
       id="linearGradient4133"
       gradientUnits="userSpaceOnUse"
       x1="918.91028"
       y1="197.96233"
       x2="917.32733"
       y2="-59.626575" />
    <linearGradient
       inkscape:collect="always"
       xlink:href="#linearGradient3838"
       id="linearGradient4135"
       gradientUnits="userSpaceOnUse"
       gradientTransform="translate(3.1276935,800.62776)"
       x1="1100.5612"
       y1="461.56604"
       x2="868.22607"
       y2="322.16501" />
    <linearGradient
       inkscape:collect="always"
       xlink:href="#linearGradient3924"
       id="linearGradient4137"
       gradientUnits="userSpaceOnUse"
       x1="1045.1316"
       y1="210.82205"
       x2="1067.4362"
       y2="226.53633" />
    <linearGradient
       inkscape:collect="always"
       xlink:href="#linearGradient3844"
       id="linearGradient4139"
       gradientUnits="userSpaceOnUse"
       x1="996.00543"
       y1="277.73383"
       x2="908.12628"
       y2="59.540859" />
    <filter
       inkscape:collect="always"
       id="filter4265">
      <feGaussianBlur
         inkscape:collect="always"
         stdDeviation="2.2434717"
         id="feGaussianBlur4267" />
    </filter>
    <linearGradient
       inkscape:collect="always"
       xlink:href="#linearGradient3844"
       id="linearGradient4341"
       gradientUnits="userSpaceOnUse"
       x1="996.00543"
       y1="277.73383"
       x2="908.12628"
       y2="59.540859"
       gradientTransform="matrix(0.41794406,0,0,0.41794406,-252.29485,789.3996)" />
    <linearGradient
       inkscape:collect="always"
       xlink:href="#linearGradient3924"
       id="linearGradient4350"
       gradientUnits="userSpaceOnUse"
       x1="1045.1316"
       y1="210.82205"
       x2="1067.4362"
       y2="226.53633"
       gradientTransform="matrix(0.41794406,0,0,0.41794406,-252.29485,789.3996)" />
    <linearGradient
       inkscape:collect="always"
       xlink:href="#linearGradient3838"
       id="linearGradient4354"
       gradientUnits="userSpaceOnUse"
       gradientTransform="matrix(0.41794406,0,0,0.41794406,-251.57766,791.18237)"
       x1="1100.5612"
       y1="461.56604"
       x2="868.22607"
       y2="322.16501" />
    <linearGradient
       inkscape:collect="always"
       xlink:href="#linearGradient3786"
       id="linearGradient4358"
       gradientUnits="userSpaceOnUse"
       x1="918.91028"
       y1="197.96233"
       x2="917.32733"
       y2="-59.626575"
       gradientTransform="matrix(0.41794406,0,0,0.41794406,-252.29485,789.3996)" />
    <linearGradient
       inkscape:collect="always"
       xlink:href="#linearGradient3844"
       id="linearGradient4361"
       gradientUnits="userSpaceOnUse"
       x1="1212.8572"
       y1="193.14285"
       x2="720"
       y2="116"
       gradientTransform="matrix(0.41794406,0,0,0.41794406,-252.29485,789.3996)" />
    <linearGradient
       inkscape:collect="always"
       xlink:href="#linearGradient3768"
       id="linearGradient4365"
       gradientUnits="userSpaceOnUse"
       x1="935.17816"
       y1="578.40179"
       x2="891.46472"
       y2="144.11606"
       gradientTransform="matrix(0.41794406,0,0,0.41794406,-252.29485,789.3996)" />
    <linearGradient
       inkscape:collect="always"
       xlink:href="#linearGradient3844-9"
       id="linearGradient4384"
       x1="195.66737"
       y1="90.279335"
       x2="44.640526"
       y2="71.088074"
       gradientUnits="userSpaceOnUse" />
    <linearGradient
       inkscape:collect="always"
       xlink:href="#linearGradient3844-9"
       id="linearGradient4553"
       gradientUnits="userSpaceOnUse"
       x1="195.66737"
       y1="90.279335"
       x2="44.640526"
       y2="71.088074" />
    <linearGradient
       inkscape:collect="always"
       xlink:href="#linearGradient3924"
       id="linearGradient4555"
       gradientUnits="userSpaceOnUse"
       gradientTransform="matrix(0.41794406,0,0,0.41794406,-252.29485,789.3996)"
       x1="1045.1316"
       y1="210.82205"
       x2="1067.4362"
       y2="226.53633" />
  </defs>
  <sodipodi:namedview
     id="base"
     pagecolor="#ffffff"
     bordercolor="#666666"
     borderopacity="1.0"
     inkscape:pageopacity="0.0"
     inkscape:pageshadow="2"
     inkscape:zoom="1.6948819"
     inkscape:cx="2.8227538"
     inkscape:cy="151.22955"
     inkscape:document-units="px"
     inkscape:current-layer="layer1"
     showgrid="false"
     showguides="true"
     inkscape:guide-bbox="true"
     inkscape:window-width="1434"
     inkscape:window-height="850"
     inkscape:window-x="0"
     inkscape:window-y="26"
     inkscape:window-maximized="1"
     inkscape:snap-global="false" />
  <metadata
     id="metadata7">
    <rdf:RDF>
      <cc:Work
         rdf:about="">
        <dc:format>image/svg+xml</dc:format>
        <dc:type
           rdf:resource="http://purl.org/dc/dcmitype/StillImage" />
        <dc:title />
      </cc:Work>
    </rdf:RDF>
  </metadata>
  <g
     inkscape:label="Layer 1"
     inkscape:groupmode="layer"
     id="layer1"
     transform="translate(0,-796.3622)">
    <path
       sodipodi:type="arc"
       style="opacity:0.8514056;fill:#253a21;fill-opacity:1;stroke:none;filter:url(#filter3934)"
       id="path3932"
       sodipodi:cx="963.68555"
       sodipodi:cy="560.05591"
       sodipodi:rx="200.01021"
       sodipodi:ry="49.497471"
       d="m 1163.1176,556.29508 c 8.393,27.25768 -74.092,51.03817 -184.23524,53.11522 -110.14327,2.07705 -206.23589,-18.33589 -214.62886,-45.59356 -8.39297,-27.25768 74.09195,-51.03817 184.23523,-53.11522 109.73037,-2.06926 205.60207,18.18769 214.54547,45.33183"
       transform="matrix(0.26878267,0,0,0.41794406,-130.9261,778.42273)"
       sodipodi:start="6.2071318"
       sodipodi:end="12.485013"
       sodipodi:open="true" />
    <path
       style="fill:url(#linearGradient4365);fill-opacity:1;stroke:none"
       d="m 44.080605,852.06362 c 0,0 13.28057,99.45042 17.979172,128.9917 4.698606,29.54128 21.649243,48.78938 71.524523,47.48258 40.45739,-1.0601 53.54669,-11.8419 57.72475,-44.80459 4.17806,-32.96273 16.15801,-129.55875 16.15801,-129.55875"
       id="path2998"
       inkscape:connector-curvature="0"
       sodipodi:nodetypes="czszc" />
    <path
       style="opacity:0.47791168;fill:#1a1a1a;fill-opacity:1;stroke:none;filter:url(#filter4002)"
       d="m 726.54732,911.60425 c -8.86282,6.14099 -31.31472,30.30457 -31.31472,39.39598 0,9.0913 12.12183,56.56847 12.12183,56.56847 0,0 40.4061,21.2132 86.87312,30.3046 46.46701,9.0914 132.34192,47.0521 155.56348,51.5178 26.26395,5.0507 95.30487,-1.823 110.10657,-18.1828 19.193,-21.2132 36.3656,-75.76137 36.3656,-75.76137 0,0 9.0914,-41.4163 11.1117,-49.4975 2.0203,-8.08122 -8.0813,-32.32488 -35.3553,-45.45686 -12.2533,-5.89974 -41.8288,-17.52174 -71.9743,-23.71859 1.3559,-9.88413 -16.71647,-13.05483 -38.0159,-14.27938 -21.29944,-1.22455 -44.39737,3.06849 -67.37833,3.8261 -45.96194,1.51523 -72.33934,2.58799 -98.08624,11.35243 -12.87345,4.38223 -2.55356,-9.84834 -33.37387,7.78935 -30.10602,7.63769 -27.78082,20.00078 -36.64364,26.14177 z"
       id="path3776-3"
       inkscape:connector-curvature="0"
       sodipodi:nodetypes="zscssscsscssscz"
       transform="matrix(0.39878283,0,0,0.39878283,-234.09505,478.56238)" />
    <path
       style="fill:url(#linearGradient4354);fill-opacity:1;stroke:none"
       d="m 44.797801,853.84639 c 0,0 11.03359,81.67155 16.47413,123.80597 5.44054,42.13444 29.10759,48.86694 72.999759,50.02674 55.9905,1.4796 54.45836,-34.38034 54.45836,-34.38034 L 208.18426,855.9573"
       id="path2998-5"
       inkscape:connector-curvature="0"
       sodipodi:nodetypes="czscc" />
    <path
       sodipodi:type="arc"
       style="opacity:0.8514056;fill:#99ff84;fill-opacity:1;stroke:none;filter:url(#filter3904)"
       id="path3882"
       sodipodi:cx="934.39111"
       sodipodi:cy="392.37061"
       sodipodi:rx="33.335033"
       sodipodi:ry="41.416252"
       d="m 967.62979,389.22379 c 1.39882,22.80744 -12.34866,42.70541 -30.70587,44.44335 -18.35722,1.73793 -34.37265,-15.34227 -35.77148,-38.14972 -1.39883,-22.80744 12.34866,-42.70541 30.70587,-44.44335 18.07426,-1.71115 33.93644,14.83517 35.70821,37.24833"
       transform="matrix(0.61457675,0,0,0.8958582,-442.5625,603.64177)"
       sodipodi:start="6.2071318"
       sodipodi:end="12.46847"
       sodipodi:open="true" />
    <path
       style="opacity:0.91800017;fill:#ffffff;fill-opacity:1;stroke:none"
       d="m 145.09148,919.71165 c -0.13363,0.0318 -0.27171,0.0614 -0.40648,0.0991 -4.3293,1.22119 -7.56836,5.66322 -7.23847,9.92466 0.32534,4.20243 4.00084,6.6589 8.25467,5.55469 l -1.14127,0.54767 c -1.14487,0.54998 -1.32761,1.14714 -1.87954,2.20717 -0.46139,0.0188 -0.4509,2.41266 -2.18678,3.73136 l -8.81838,14.30777 c -0.76496,0.90577 -3.2402,3.84204 -2.47014,4.76093 l 1.12563,-0.16137 c 0.77004,0.91889 2.68609,-1.02509 3.55671,-1.82658 l 11.53968,-13.93342 0.76654,11.51151 c 0.18971,0.652 0.47109,2.3728 0.92242,2.77269 -0.3249,0.41848 -0.26677,5.57738 -0.81296,7.83582 l -1.73332,29.68805 c -0.30835,1.62108 -0.93663,2.75689 0.59409,2.8638 l 1.10217,0.17173 c 1.53071,0.10691 3.00607,-1.10927 3.31437,-2.73035 l 8.04736,-31.07637 5.48782,26.11431 c 0.53067,2.57182 2.23317,4.02543 3.81467,3.26386 l 1.50861,-0.80304 c 1.58146,-0.76158 1.24205,-2.60873 0.71138,-5.18054 l -3.28142,-32.60855 c -1.01241,-3.27998 -1.39915,-4.67687 -2.17309,-7.55718 l -2.72528,-10.53875 4.19919,4.88744 c 0.73023,0.81115 2.20156,12.96253 2.95892,12.23147 l 1.82913,-1.14262 c -1.8005,0.43495 0.59043,-13.92715 -0.1398,-14.73825 l -8.16237,-8.47708 c -1.49447,-1.11524 -1.70586,-1.27536 -3.52544,-0.99396 -1.81961,0.28141 -4.13494,-0.11338 -5.85486,0.71289 0.17187,-2.07442 0.94303,-4.22951 0.84423,-5.80984 l 0,-0.0469 c -0.34057,-4.10639 -3.88543,-6.52114 -8.02799,-5.56234 z m -15.18829,42.71167 c -0.0373,0.0117 -0.0679,0.0213 -0.10161,0.0443 l -6.62094,4.48981 c -0.1347,0.0914 -0.17633,0.24617 -0.086,0.34597 l 3.50197,3.86761 c 0.0904,0.0999 0.27176,0.10144 0.40648,0.01 l 6.61312,-4.48036 c 0.13472,-0.0913 0.17632,-0.24612 0.086,-0.34601 l -3.50198,-3.86761 c -0.0678,-0.0749 -0.18503,-0.0958 -0.29707,-0.0639 z m -4.12733,11.55105 c -0.0965,0.0151 -0.18198,0.0937 -0.21105,0.20755 l -1.50085,5.87463 c -0.0387,0.15188 0.0394,0.30698 0.17198,0.34764 l 6.51148,1.99736 c 0.1326,0.0405 0.26612,-0.0439 0.30487,-0.19564 l 1.50085,-5.88248 c 0.0387,-0.15184 -0.0315,-0.30075 -0.16414,-0.34142 l -6.51934,-2.0035 c -0.0331,-0.0104 -0.0616,-0.009 -0.0938,-0.004 z"
       id="path4020"
       inkscape:connector-curvature="0"
       sodipodi:nodetypes="ccsccccccccccccccccccccccccccccccccccccccccccccccccccccccccc" />
    <g
       id="g4386">
      <path
         sodipodi:nodetypes="zscssscsscssscz"
         inkscape:connector-curvature="0"
         id="path3776"
         d="m 52.946532,834.33175 c -3.704163,2.56659 -13.087801,12.66562 -13.087801,16.46531 0,3.79968 5.066246,23.64248 5.066246,23.64248 0,0 19.390697,-13.24573 38.811312,-9.44604 19.420611,3.79969 54.477111,3.81149 64.182421,5.6779 10.97687,2.11093 32.73971,-4.09949 38.92599,-10.93698 8.02156,-8.86594 13.52994,-10.38678 13.52994,-10.38678 0,0 10.89212,2.71598 11.73649,-0.66152 0.84437,-3.3775 -3.37753,-13.50999 -14.77654,-18.99843 -5.12115,-2.46576 -17.48205,-7.32311 -30.08119,-9.91304 0.5667,-4.13101 -6.98656,-5.45619 -15.88853,-5.96798 -8.90198,-0.5118 -18.55562,1.28245 -28.16037,1.59909 -19.20952,0.63328 -30.233802,1.08164 -40.994566,4.74468 -5.380382,1.83153 -1.067245,-4.11605 -13.948411,3.25551 -12.582632,3.19213 -11.610828,8.35921 -15.314991,10.9258 z"
         style="fill:url(#linearGradient4361);fill-opacity:1;stroke:none" />
      <path
         sodipodi:nodetypes="cscssszsssssssssssssssssc"
         inkscape:connector-curvature="0"
         id="path3794"
         d="m 71.628318,841.08675 c 0,0 -4.327418,-0.63328 -7.704916,-5.69953 -3.377498,-5.06625 22.798113,-10.97687 22.798113,-10.97687 0,0 -3.166403,23.74803 0.633286,29.23647 3.799684,5.48843 3.588584,-9.81585 5.699524,-17.83741 2.110935,-8.02156 -5.488438,-11.61015 -0.422191,-14.14327 5.066247,-2.53313 17.175086,-1.29206 23.220296,4.43296 6.04522,5.72502 0.42219,33.98607 6.33281,25.54233 5.91063,-8.44374 5.48844,-32.08623 11.39906,-30.81967 5.91062,1.26656 22.58702,2.74422 14.56546,15.62093 -8.28664,13.30223 -10.76578,20.68717 -4.85515,18.57624 5.91062,-2.11094 13.81228,-35.73477 20.26498,-32.50842 4.64405,2.32203 0.84438,-2.32203 -2.11093,9.49921 -2.95531,11.82125 -4.64406,23.85358 0.42219,23.00921 5.06625,-0.84437 15.19877,-27.44217 27.01998,-24.90905 11.82125,2.53313 11.18798,3.58859 7.59935,3.79968 -14.53267,0.85486 -24.48684,13.51 -20.68714,16.04312 3.79965,2.53313 16.88749,-16.88749 23.64246,-12.24343 6.75502,4.64406 12.66563,-10.97687 -2.53311,4.64406 -15.19875,15.62093 -29.13091,26.17561 -50.24029,26.5978 -21.10936,0.42219 -69.871984,-3.58859 -81.27104,-7.81047 -11.399056,-4.22187 -26.386706,-8.86593 -13.298901,-18.57624 2.444982,-1.81402 2.533126,-8.23265 5.910624,-3.58859 3.377498,4.64406 8.971478,23.32585 14.459911,23.74804 5.488438,0.42218 -0.844376,-21.6371 -0.844376,-21.6371 z"
         style="fill:url(#linearGradient4358);fill-opacity:1;stroke:none" />
      <path
         inkscape:connector-curvature="0"
         inkscape:original-d="m 92.632117,822.9327 c 0,0 5.419782,0 11.441763,6.75499 6.02198,6.755 -9.032971,13.51 -6.021981,18.99843 3.010991,5.48843 15.657151,15.62093 15.657151,15.62093"
         inkscape:path-effect="#path-effect3868"
         id="path3866"
         d="m 92.632271,822.9327 c 0.0049,-0.11603 0.03323,-0.23113 0.08718,-0.34308 0,0 0,0 0,0 0.05145,-0.10634 0.126809,-0.20983 0.223906,-0.30841 0,0 0,0 0,0 0,0 0,0 0,0 0,0 0,0 0,0 0.19686,-0.19474 0.494236,-0.36976 0.870863,-0.50722 0,0 0,0 0,0 0,0 0,0 0,0 0.747562,-0.27245 1.866571,-0.39707 3.203594,-0.23564 0,0 0,0 0,0 1.406403,0.17526 3.090865,0.6561 4.866915,1.5339 1.77606,0.87781 3.63984,2.15679 5.35895,3.78961 0,0 0,0 0,0 1.0895,1.0024 2.05027,2.46593 2.60845,4.45878 0,0 0,0 0,0 0.36624,1.68553 0.32552,3.34032 -0.10766,4.80715 0,0 0,0 0,0 -0.89234,2.85652 -2.37109,5.11208 -3.71872,6.67166 -0.86678,1.13148 -1.70179,2.0812 -2.35051,2.91476 -0.32974,0.4237 -0.60556,0.81151 -0.81308,1.17803 -0.20472,0.43641 -0.35034,0.56889 -0.2853,0.4334 0,0 0,0 0,0 0.0321,-0.33047 -0.0624,-0.61055 -0.25699,-0.98096 0,0 0,0 0,0 0.51353,1.21967 1.60256,2.53179 2.72718,4.02466 0,0 0,0 0,0 0,0 0,0 0,1e-5 0,0 0,0 0,0 1.54483,1.99354 3.06838,3.83185 4.37762,5.50984 0,0 0,0 0,0 1.56694,2.00755 2.81563,3.74727 3.59587,5.14772 0,0 0,0 0,0 0.42473,0.76241 0.7097,1.42201 0.83669,1.96632 0,0 0,0 0,0 0.0656,0.28097 0.0885,0.53075 0.0668,0.74783 0,0 0,0 0,0 -0.0112,0.10987 -0.034,0.21135 -0.0684,0.30423 0,0 0,0 0,0 0,0 0,0 0,0 -0.0765,0.12069 -0.11354,0.18612 -0.13114,0.22125 0,0 0,0 0,0 -0.0172,0.0343 -0.0158,0.0398 -0.0155,0.0405 0,0 0,0 0,0 0,0 0,0 0,0 0,0 0,0 0,0 0,0 0,0 0,0 0,0 0,0 0,0 0,0 0,0 0,0 3e-5,6e-5 2e-5,5e-5 2e-5,5e-5 0,0 10e-6,10e-6 -6e-5,-10e-6 0,0 0,0 0,0 0,0 0,0 0,0 0,0 0,0 0,0 0,0 0,0 0,0 0,0 0,0 0,0 0,0 0,0 0,0 -7.4e-4,-2.2e-4 -0.006,-3.6e-4 -0.0362,0.0238 0,0 0,0 0,0 -0.0305,0.0248 -0.0864,0.075 -0.18775,0.17572 0,0 0,0 0,0 0,0 0,0 0,0 -0.0837,0.0532 -0.17892,0.0962 -0.28521,0.12914 0,0 0,0 0,0 -0.20917,0.0654 -0.46132,0.0917 -0.75279,0.0805 0,0 0,0 0,0 -0.56466,-0.0218 -1.27904,-0.18623 -2.11839,-0.48613 0,0 0,0 0,0 -1.54131,-0.55052 -3.51302,-1.55975 -5.75601,-3.01964 0,0 0,0 0,0 -1.86619,-1.212 -3.94628,-2.74866 -6.092477,-4.70575 0,0 0,0 0,0 0,0 -10e-7,0 -10e-7,0 -1.477495,-1.29227 -3.176993,-2.99139 -4.696259,-5.47711 0,0 0,0 0,0 -0.885974,-1.63069 -1.232002,-3.42134 -0.974457,-5.21108 0,0 0,0 0,0 0.306279,-1.69679 0.847291,-3.04734 1.467192,-4.00451 0.469203,-0.77712 0.957186,-1.48831 1.444393,-2.14006 0.958513,-1.28223 1.879765,-2.2945 2.637214,-3.14762 1.209355,-1.56475 2.185955,-2.48078 2.397345,-3.18378 0,0 0,0 0,0 0.082,-0.19459 0.19624,-0.28565 0.23344,-0.22447 0,0 0,0 0,0 0.16114,0.0329 0.0669,-0.21248 -0.085,-0.60252 0,0 0,0 0,0 -1.049084,-1.47232 -2.057576,-2.76309 -3.016725,-3.83582 -0.959149,-1.07273 -1.870673,-1.93167 -2.676675,-2.64625 0,0 0,0 0,0 -0.763407,-0.68337 -1.386074,-1.23688 -1.845285,-1.72304 0,0 0,0 0,0 0,0 0,0 0,0 -0.231583,-0.24517 -0.407751,-0.47406 -0.534336,-0.69609 0,0 0,0 0,0 0,0 0,0 0,0 0,0 0,0 0,0 -0.06627,-0.11236 -0.11605,-0.22284 -0.149939,-0.33276 0,0 0,0 0,0 -0.03547,-0.11571 -0.05372,-0.23083 -0.04885,-0.34686 0,0 0,0 0,0 z"
         style="fill:#d0f3fe;fill-opacity:1;fill-rule:evenodd;stroke:none" />
      <path
         inkscape:connector-curvature="0"
         inkscape:original-d="m 66.456528,841.08675 c 0,0 4.22187,4.64406 -0.844377,7.59937 -5.066247,2.95531 -10.132494,0.42219 -10.132494,0.42219 0,0 -2.533121,4.22187 7.599373,8.86593"
         inkscape:path-effect="#path-effect3880"
         id="path3878"
         d="m 66.456618,841.08685 c 0.01965,-0.0168 0.044,-0.0281 0.07263,-0.0342 0,0 0,0 0,0 0.02612,-0.005 0.05593,-0.006 0.08928,-0.002 0.06494,0.008 0.143393,0.033 0.233214,0.0765 0,0 0,0 0,0 0,0 0,0 0,0 0.170527,0.0836 0.384827,0.23497 0.624055,0.46074 0,0 0,0 0,0 0.416044,0.39045 0.932275,1.01169 1.314663,1.96965 0,0 0,0 0,0 0.32529,0.80774 0.505883,1.88488 0.152927,3.1 0,0 0,0 0,0 -0.439121,1.2932 -1.423783,2.45589 -2.653383,3.19082 0,0 0,0 0,0 0,0 -10e-7,0 -10e-7,0 -1.049069,0.65259 -2.274654,1.16469 -3.613843,1.45857 -1.33919,0.29389 -2.791275,0.36882 -4.251785,0.17245 -0.0223,-0.003 -0.04458,-0.006 -0.06685,-0.009 -0.825818,-0.44908 -1.629936,-0.89765 -2.419456,-1.332 0.0213,-0.009 0.04286,-0.0175 0.06447,-0.0262 1e-6,0 3e-6,0 4e-6,0 0.05358,-0.0213 0.107205,-0.042 0.160738,-0.0624 1e-6,0 3e-6,0 4e-6,0 0.196611,-0.0747 0.392021,-0.14366 0.585373,-0.20756 -0.03119,0.0641 -0.05584,0.14887 -0.07842,0.24776 -0.09175,0.34743 -0.02305,0.78722 0.10722,1.2214 0.306914,1.12361 1.024758,2.00154 1.807781,2.75031 0.783023,0.74876 1.630528,1.36623 2.343611,1.89219 0.713084,0.52596 1.2957,0.95774 1.669831,1.29617 0.37413,0.33843 0.545476,0.58247 0.480347,0.72457 -0.06513,0.1421 -0.361453,0.17482 -0.867259,0.10073 -0.505806,-0.0741 -1.226308,-0.25269 -2.111541,-0.59349 -0.885233,-0.3408 -1.940372,-0.84367 -3.004687,-1.64631 -1.064314,-0.80264 -2.1394,-1.9079 -2.900687,-3.51327 -0.341309,-0.77059 -0.515876,-1.69534 -0.385534,-2.70165 0.03826,-0.27194 0.108182,-0.55591 0.216127,-0.84655 0.232086,-0.16264 0.469661,-0.32927 0.713615,-0.49934 2e-6,0 4e-6,0 6e-6,0 0.06642,-0.0463 0.133319,-0.0929 0.200815,-0.1396 2e-6,0 4e-6,-10e-6 6e-6,-10e-6 0.02699,-0.0186 0.05413,-0.0373 0.0814,-0.0559 1.265026,0.14603 2.590372,0.29916 3.946952,0.46673 0.01653,0.002 0.03307,0.004 0.04963,0.007 2.168562,0.27973 4.290166,-0.16062 5.916434,-1.028 0,0 1e-6,0 1e-6,0 0,0 0,0 0,0 0.886836,-0.49966 1.600131,-1.03673 1.880053,-1.66392 0,0 0,0 0,0 0.303879,-0.53914 0.330432,-1.23402 0.27027,-1.83664 0,0 0,0 0,0 -0.08328,-0.74592 -0.313531,-1.3857 -0.47115,-1.87093 -10e-7,0 -10e-7,0 -10e-7,0 -0.0914,-0.27892 -0.162701,-0.50534 -0.197243,-0.68043 0,0 0,0 0,0 0,0 0,0 0,0 -0.01889,-0.0935 -0.02683,-0.17172 -0.02211,-0.23482 0.0024,-0.0324 0.0082,-0.0608 0.01763,-0.0851 0,0 0,0 0,0 0.01049,-0.0267 0.02522,-0.0486 0.04487,-0.0653 z"
         style="fill:#bbe5f7;fill-opacity:1;fill-rule:evenodd;stroke:none" />
      <path
         inkscape:connector-curvature="0"
         inkscape:original-d="m 71.522774,825.04363 32.930606,-8.02155 8.86593,2.53312 c 0,0 10.97687,-4.22187 18.15405,-3.3775 7.17719,0.84438 26.17561,4.22187 26.17561,4.22187 l 14.77658,1.68875 c 0,0 2.11091,5.06625 6.33277,4.64406 4.2219,-0.42218 11.82125,2.11094 11.82125,2.11094"
         inkscape:path-effect="#path-effect3942"
         id="path3940"
         d="m 71.522774,825.04363 c -0.230517,-0.94634 2.917963,-2.64531 8.700772,-4.79956 5.782808,-2.15424 14.201722,-4.76371 24.314734,-7.53493 2.75076,0.71846 5.62077,1.49544 8.59083,2.32524 7e-5,-3e-5 7e-5,-3e-5 7e-5,-3e-5 -0.11835,-3e-5 -0.23658,-6e-5 -0.35524,7e-5 -0.33,3.1e-4 -0.66139,0.001 -0.9942,0.002 0.13923,-0.0555 0.27515,-0.10881 0.40754,-0.16013 0,0 0,0 0,0 0.48281,-0.18718 0.9647,-0.36606 1.44452,-0.53816 0,0 0,0 0,0 1.56847,-0.56305 3.18688,-1.08026 4.85132,-1.54055 3.84405,-1.14365 8.4168,-2.09661 13.57445,-1.58612 0.0222,0.003 0.0445,0.005 0.0667,0.008 5.65102,0.67057 10.9642,1.67136 15.92552,2.6187 3.55581,0.69503 6.97936,1.39412 10.24003,2.08918 5.93033,1.19578 11.29247,2.3198 15.90651,3.31733 0,0 0,0 0,0 0.9213,1.12856 1.7878,2.21383 2.59787,3.25395 0,0 0,0 0,0 0.27784,0.35149 0.58277,0.70416 0.87122,0.94652 0.28845,0.24236 0.56076,0.3747 0.79754,0.33311 0,0 0,0 0,0 1.92026,0.009 3.51206,0.33452 4.8563,0.72901 1.34424,0.3945 2.44168,0.86137 3.35395,1.2917 0,0 0,0 0,0 1.2988,0.58784 2.27648,1.15996 2.93248,1.65791 0,0 0,0 0,0 0.36319,0.27563 0.62902,0.52999 0.79368,0.75663 0,0 0,0 0,0 0,0 0,0 0,0 0.0866,0.11841 0.14567,0.22928 0.17648,0.33184 0,0 0,0 0,0 0,0 0,0 0,0 -0.0128,0.13748 -0.0125,0.21187 -0.009,0.25173 0.004,0.0391 0.0111,0.0451 0.0123,0.0458 0,0 0,0 0,0 0,0 0,0 0,0 0,0 0,0 0,0 0,0 0,0 0,0 0,0 0,0 0,0 0,0 0,0 0,0 1.2e-4,7e-5 9e-5,6e-5 9e-5,6e-5 0,0 3e-5,1e-5 -1.1e-4,-10e-6 0,0 0,0 0,0 0,0 0,0 0,0 0,0 0,0 0,0 0,0 0,0 0,0 0,0 0,0 0,0 0,0 0,0 0,0 -0.001,-1.7e-4 -0.0109,2e-4 -0.0371,0.0294 -0.0267,0.0298 -0.0712,0.0895 -0.14258,0.20795 0,0 0,0 0,0 0,0 0,0 0,0 -0.0842,0.0652 -0.19387,0.12163 -0.32857,0.16997 0,0 0,0 0,0 0,0 0,0 0,0 -0.25994,0.0923 -0.6123,0.15442 -1.05373,0.19161 0,0 0,0 0,0 -0.79758,0.0672 -1.88099,0.0515 -3.21671,0.0102 0,0 0,0 0,0 -0.99266,-0.0246 -2.10991,-0.0909 -3.26922,-0.10373 -1.15931,-0.0129 -2.36063,0.0244 -3.47784,0.33739 0,0 0,0 0,0 -1.41771,0.12386 -2.86038,-0.065 -4.20834,-0.57356 -1.34796,-0.50854 -2.6013,-1.33721 -3.60275,-2.45206 0,0 0,0 0,0 -0.21752,-0.56714 -0.4135,-1.14371 -0.58776,-1.72878 -6e-5,-1.4e-4 -6e-5,-1.4e-4 -6e-5,-1.4e-4 -4.18115,-0.008 -8.76401,-0.0202 -13.64669,-0.0602 -3.37273,-0.44975 -6.91187,-0.95229 -10.58193,-1.50432 -5.03758,-0.73458 -10.21868,-1.59859 -15.47498,-2.21635 -0.0207,-0.002 -0.0413,-0.005 -0.062,-0.007 -2.92358,-0.44023 -6.32628,0.35236 -9.93148,1.15002 -1.45002,0.35135 -2.8735,0.74631 -4.2671,1.17558 -10e-6,0 -10e-6,0 -10e-6,0 -0.42601,0.13136 -0.84251,0.26351 -1.24906,0.39825 0,0 0,0 0,0 -0.11155,0.037 -0.21888,0.0728 -0.32193,0.10781 -0.39679,0.0252 -0.79205,0.0501 -1.18582,0.0746 -0.14149,0.009 -0.28303,0.0176 -0.42412,0.0263 -5e-5,0 -5e-5,0 -5e-5,0 -3.17125,-0.9248 -6.22693,-1.84088 -9.1411,-2.74097 -9.420522,1.98695 -17.466911,3.38825 -23.266022,4.05524 -5.799111,0.66699 -9.349167,0.59971 -9.579684,-0.34663 z"
         style="fill:url(#linearGradient4341);fill-opacity:1;fill-rule:evenodd;stroke:none" />
    </g>
    <path
       inkscape:connector-curvature="0"
       style="fill:#f9f9f9;fill-opacity:1;stroke:none"
       d="m 106.78563,798.84189 c -0.27336,0.0281 -0.56207,0.14401 -0.75,0.375 l -43.312498,53.25 c -0.37586,0.46197 -0.30573,1.15538 0.15625,1.53125 l 16.75,13.625 c 6.72998,1.4689 24.757388,6.09209 34.843748,7.28125 l 33.6875,-41.4375 c 0.37586,-0.46199 0.30574,-1.12414 -0.15625,-1.5 l -40.4375,-32.90625 c -0.231,-0.18793 -0.50789,-0.24685 -0.78125,-0.21875 z"
       id="rect4141" />
    <path
       inkscape:connector-curvature="0"
       style="fill:#666666;fill-opacity:1;stroke:none;filter:url(#filter4265)"
       d="m 149.04191,822.21823 c -0.13967,-7.5e-4 -0.26874,0.0367 -0.40625,0.0937 l -43.9375,18.25 -3.4375,-12.40625 c -0.12688,-0.45919 -0.6033,-0.72063 -1.0625,-0.59375 l -40.187499,11.09375 c -0.45918,0.12688 -0.72064,0.6033 -0.59375,1.0625 l 7.125,25.75 c 4.56064,2.5158 9.58893,5.06691 12,5.46875 5.00642,0.8344 34.615379,8.74066 42.124999,7.90625 7.50962,-0.8344 40.06383,1.69392 47.15625,-3.3125 3.5752,-2.52367 12.16126,-7.98602 19.875,-12.8125 l 1.25,-21.375 c 0.0277,-0.47559 -0.3369,-0.87855 -0.8125,-0.90625 l -31.5625,-1.8125 -6.53125,-15.71875 c -0.17129,-0.41255 -0.58099,-0.68526 -1,-0.6875 z"
       id="rect4141-2-75" />
    <path
       inkscape:connector-curvature="0"
       style="fill:#f2f2f2;fill-opacity:1;stroke:none"
       d="m 148.22687,814.95059 c -0.13967,-7.5e-4 -0.29999,0.0367 -0.4375,0.0937 l -48.125,20 c -0.55006,0.2284 -0.82215,0.85622 -0.59375,1.40625 l 14.875,35.8125 c 3.0939,0.45055 5.67322,0.6752 7.25,0.5 7.50962,-0.8344 40.06383,1.66267 47.15625,-3.34375 0.6322,-0.44626 1.58296,-1.0757 2.5,-1.6875 l -21.65625,-52.125 c -0.17129,-0.41255 -0.54974,-0.65401 -0.96875,-0.65625 z"
       id="rect4141-2" />
    <path
       inkscape:connector-curvature="0"
       style="fill:#ffffff;fill-opacity:1;stroke:none"
       d="m 149.64263,830.66588 c -0.46823,-0.0878 -0.91418,0.22277 -1.00197,0.69101 l -7.62197,40.6428 c 10.82702,1.37061 22.38017,2.36504 26.6052,0.12499 3.52648,-1.86969 11.60273,-5.65342 19.25899,-9.19437 l 4.43454,-23.59689 c 0.0878,-0.46824 -0.22277,-0.91419 -0.69102,-1.00198 l -40.98377,-7.66556 z"
       id="rect4141-2-7" />
    <path
       inkscape:connector-curvature="0"
       style="fill:#ececec;fill-opacity:1;stroke:none"
       d="m 97.671879,826.40241 c -0.111713,10e-4 -0.226714,0.0319 -0.335865,0.0796 l -38.209397,16.69858 c -0.436621,0.19057 -0.632452,0.66825 -0.441883,1.10488 l 8.676369,19.84714 c 5.56253,2.26334 14.443108,5.70522 17.841494,5.78407 3.733578,0.0866 21.190443,2.07614 33.075043,2.3759 L 98.471828,826.91949 c -0.142965,-0.32746 -0.464798,-0.52125 -0.799942,-0.51703 z"
       id="rect4141-2-7-2" />
    <path
       sodipodi:type="arc"
       style="opacity:0.42971886;fill:#253a21;fill-opacity:1;stroke:none;filter:url(#filter4016)"
       id="path4006"
       sodipodi:cx="910.14746"
       sodipodi:cy="157.51013"
       sodipodi:rx="120.71323"
       sodipodi:ry="23.738585"
       d="m 1030.5117,155.70647 c 5.0655,13.07256 -44.71706,24.47749 -111.19242,25.47363 -66.47536,0.99613 -124.47065,-8.79375 -129.5361,-21.86631 -5.06546,-13.07256 44.71711,-24.47749 111.19246,-25.47362 66.22618,-0.9924 124.08806,8.72267 129.48576,21.74078"
       transform="matrix(0.51417865,0,0,0.590502,-339.84409,772.97096)"
       sodipodi:start="6.2071318"
       sodipodi:end="12.485013"
       sodipodi:open="true" />
    <g
       id="g4557">
      <g
         transform="translate(-0.29500581,1.7700348)"
         id="g4545">
        <g
           id="g4535">
          <path
             sodipodi:nodetypes="czzzzzzzzsccccsssc"
             transform="translate(0,796.3622)"
             inkscape:connector-curvature="0"
             id="path4368"
             d="m 40.051316,56.16062 c 0,0 4.172012,29.621286 6.67522,31.290091 2.503208,1.668805 6.524127,-2.275437 13.76764,0 7.243513,2.275437 15.85391,4.101446 22.528865,5.840817 6.674955,1.739371 10.719307,2.172051 17.522449,4.589213 6.80314,2.417159 15.90185,7.610909 22.94607,10.430029 7.04422,2.81912 16.68804,5.84082 19.19125,6.67522 2.50321,0.8344 19.29095,0.99424 27.11808,-0.8344 7.82713,-1.82864 13.59042,-3.27677 19.19126,-8.76123 5.60084,-5.484465 10.43003,-21.277259 11.26443,-23.363265 0.8344,-2.086006 3.33761,-7.926823 3.33761,-7.926823 l 5.00642,-8.761226 3.51041,-14.08361 -4.34482,-8.445255 c 0,0 -8.76122,12.933238 -21.69446,20.025658 C 173.1385,69.92826 161.87407,79.106687 128.08077,76.603479 94.287474,74.100272 70.507005,69.511059 59.242572,64.921845 47.978139,60.332632 40.051316,56.16062 40.051316,56.16062 z"
             style="fill:url(#linearGradient4553);fill-opacity:1;stroke:none" />
          <path
             inkscape:connector-curvature="0"
             inkscape:original-d="m 138.22836,897.65984 c 29.13091,4.64406 36.7303,7.17718 43.90749,2.53312 7.17719,-4.64406 13.93216,-10.13249 13.93216,-10.13249"
             inkscape:path-effect="#path-effect3856"
             id="path3854"
             d="m 138.22836,897.65984 c 0.0646,-0.40536 3.50469,-0.23082 8.99893,0.46676 2.74712,0.34879 6.00514,0.82491 9.61197,1.33462 3.60682,0.50972 7.56175,1.05069 11.72231,1.45557 0.14226,0.0134 0.28461,0.0265 0.42701,0.0394 2.53364,0.22918 4.93558,0.34255 7.12882,0.0154 1.93697,-0.27041 3.73528,-0.9561 5.25816,-1.88629 8.33362,-5.75853 14.29765,-9.46894 14.68913,-9.02902 0.003,0.004 0.003,0.004 0.003,0.004 0,0 3e-5,-2e-5 0.003,0.004 0.32323,0.48956 -5.04896,5.02368 -13.17504,11.23584 -1.79074,1.21391 -3.94809,2.13723 -6.32561,2.54668 -2.56027,0.42192 -5.23016,0.3513 -7.86084,0.0988 -0.14786,-0.0142 -0.29512,-0.0289 -0.44176,-0.0439 -4.2538,-0.42276 -8.25716,-1.05841 -11.87095,-1.72425 -3.6138,-0.66584 -6.8393,-1.35977 -9.53732,-1.97523 -5.39606,-1.23092 -8.69592,-2.13742 -8.6313,-2.54278 z"
             style="fill:#308bc9;fill-opacity:1;fill-rule:evenodd;stroke:none" />
          <path
             inkscape:connector-curvature="0"
             inkscape:original-d="m 204.08957,874.43954 c 0,0 3.37749,-10.55468 -9.7103,3.3775 -13.08779,13.93218 -13.08779,18.57624 -19.42061,18.57624"
             inkscape:path-effect="#path-effect3860"
             id="path3858"
             d="m 204.08959,874.43947 c -0.18036,-0.0406 -0.23799,-0.58944 -0.19078,-1.53688 0,0 0,0 0,0 -0.0141,-0.32148 -0.0308,-0.67715 -0.12121,-1.0151 -0.0831,-0.24348 -0.1407,-0.45992 -0.23712,-0.4535 0.0392,0.001 -0.0769,0.0689 -0.21617,0.0794 -0.38136,0.0827 -0.7952,0.40059 -1.35413,0.77993 -1.00148,0.73204 -2.04371,1.65521 -3.12765,2.75572 -1.08394,1.10051 -2.2103,2.37908 -3.44283,3.72658 -1.20502,1.32887 -2.44542,2.7539 -3.71478,4.24355 -3.20833,3.76511 -6.14534,7.32835 -8.66522,10.04978 0,0 0,0 0,0 -0.59499,0.65679 -1.21084,1.2845 -1.84391,1.81554 -0.63308,0.53103 -1.28271,0.96591 -1.92202,1.28556 -1.32088,0.63242 -2.44335,0.67358 -3.18177,0.61296 -0.73843,-0.0606 -1.11334,-0.23357 -1.11334,-0.38973 0,-0.15616 0.37676,-0.29112 1.01541,-0.50283 0.63864,-0.21171 1.5616,-0.49284 2.42079,-1.16059 0.45814,-0.33485 0.91623,-0.76612 1.384,-1.29552 0.46776,-0.52941 0.945,-1.15776 1.47314,-1.84383 0,0 0,0 0,0 2.2073,-2.93063 4.96028,-6.61967 8.22708,-10.45146 1.29249,-1.51603 2.5911,-2.95489 3.87976,-4.28059 1.25852,-1.30426 2.50808,-2.56752 3.76357,-3.65152 1.25549,-1.08401 2.5159,-1.98831 3.72944,-2.66814 0.62607,-0.37598 1.39892,-0.70933 2.21813,-0.79881 0.57257,-0.0916 1.19765,0.14265 1.66704,0.62538 0.37874,0.53846 0.44838,1.02693 0.42001,1.39961 -0.012,0.54489 -0.11658,0.9783 -0.2272,1.32759 0,0 0,0 0,0 -0.37214,0.91461 -0.65987,1.38752 -0.84024,1.3469 z"
             style="fill:url(#linearGradient4555);fill-opacity:1;fill-rule:evenodd;stroke:none" />
          <path
             sodipodi:nodetypes="csssc"
             inkscape:connector-curvature="0"
             inkscape:original-d="m 49.146848,857.97424 c 0,10.97687 5.910623,15.19875 17.731866,16.88748 18.550313,2.65006 21.53155,0.42221 33.352796,-0.84436 11.82124,-1.26656 22.79811,-1.68875 31.24185,-0.84438 8.44375,0.84438 34.61937,-2.11093 34.61937,-2.11093"
             inkscape:path-effect="#path-effect3864"
             id="path3862"
             d="m 49.146848,857.97424 c 0.08586,0 0.165008,0.3056 0.269956,0.88751 0.104947,0.5819 0.235402,1.44441 0.483038,2.53138 0.247636,1.08698 0.610977,2.40419 1.255094,3.79108 0.644117,1.3869 1.567243,2.84888 3.032919,4.03582 1.439709,1.22837 3.272944,2.19924 5.458847,2.90605 2.185904,0.7068 4.727023,1.1473 7.406761,1.5124 2.864356,0.35867 5.902284,0.70684 9.068824,0.90245 3.166539,0.19561 6.461495,0.23811 9.834286,-0.0748 4.443796,-0.40184 9.116421,-1.3978 14.115257,-1.93915 0.81798,-0.0889 1.64106,-0.17576 2.46889,-0.25965 5.18895,-0.52586 10.27467,-0.89983 15.15276,-0.99634 4.87809,-0.0965 9.54804,0.0856 13.91291,0.57167 2.99392,0.3431 5.95647,0.22199 8.77922,0.1525 4.25654,-0.10948 8.11137,-0.32024 11.46452,-0.50149 8.84756,-0.59946 14.18397,-0.78726 14.24235,-0.43377 0,0 0,0 0,0 0,0 0,0 0,0 0,0 0,0 0,0 0,0 0,0 0,0 0,0 0,0 0,0 0,0 0,0 0,0 2.6e-4,0.002 2.5e-4,0.002 2.5e-4,0.002 0,0 1e-5,0 1.9e-4,0.002 0,0 0,0 0,0 0,0 0,0 0,0 0,0 0,0 0,0 0,0 0,0 0,0 0,0 0,0 0,0 0,0 0,0 0,0 0.0162,0.35758 -5.25451,1.19868 -14.07301,2.31284 -3.35089,0.3772 -7.22122,0.76456 -11.52966,1.02713 -2.81272,0.17531 -5.87291,0.38312 -9.14992,0.0991 -4.24706,-0.37515 -8.79522,-0.47084 -13.57162,-0.31812 -4.77639,0.15272 -9.78106,0.55258 -14.92649,1.06968 -0.82088,0.0825 -1.63802,0.16706 -2.45103,0.25288 -4.793259,0.50781 -9.515343,1.47345 -14.190743,1.84268 -3.575602,0.27464 -7.013857,0.1743 -10.274666,-0.0955 -3.26081,-0.26977 -6.344287,-0.70836 -9.221816,-1.16997 -2.747188,-0.41016 -5.436088,-1.00284 -7.786204,-1.9092 -2.350116,-0.90637 -4.363242,-2.12348 -5.945987,-3.59372 -1.60603,-1.55566 -2.535793,-3.27919 -3.121561,-4.85648 -0.585769,-1.57729 -0.826157,-3.01393 -0.930485,-4.17927 -0.104327,-1.16534 -0.07091,-2.06506 -0.0098,-2.66576 0.06111,-0.60069 0.151061,-0.90629 0.236918,-0.90629 z"
             style="fill:#d0f3fe;fill-opacity:1;fill-rule:evenodd;stroke:none" />
        </g>
        <path
           style="fill:#308bc9;fill-opacity:1;fill-rule:evenodd;stroke:none"
           d="m 106.73219,889.25675 c 0.007,-0.026 0.0286,-0.0479 0.0646,-0.066 0,0 0,0 0,0 0.0347,-0.0174 0.0827,-0.0312 0.14393,-0.0416 0,0 0,0 0,0 0,0 0,0 0,0 0.12084,-0.0205 0.2928,-0.0277 0.51439,-0.0226 0,0 0,0 0,0 0,0 0,0 0,0 0.43193,0.01 1.05143,0.0659 1.84631,0.1588 0,0 0,0 0,0 1.49415,0.17452 3.60482,0.4808 6.24725,0.83107 0,0 0,0 0,0 2.18442,0.28849 4.72985,0.6236 7.57466,0.88891 2.8448,0.2653 5.98881,0.46177 9.36225,0.37953 0,0 0,0 0,0 3.69062,-0.0848 7.68429,-0.37358 11.91568,-0.80912 0,0 0,0 0,0 5.07698,-0.52458 10.45855,-1.27482 15.96508,-2.42984 1.04775,-0.2209 2.09956,-0.45443 3.15236,-0.70445 4.39277,-1.0432 8.55726,-2.32745 12.33953,-3.9968 2.17188,-0.98125 4.23776,-2.0495 6.032,-3.27508 1.79425,-1.22558 3.31659,-2.60881 4.47064,-4.18502 0,0 0,0 0,0 5.12572,-6.85145 8.63195,-13.28104 11.04821,-17.96988 0,0 0,0 0,0 1.28413,-2.49286 2.25193,-4.50136 2.95386,-5.88542 0,0 0,0 0,0 0.35983,-0.70953 0.64899,-1.25354 0.87318,-1.61591 0,0 0,0 0,0 0.11336,-0.18323 0.20995,-0.31954 0.29052,-0.40717 0,0 0,0 0,0 0,0 0,0 0,0 0.0404,-0.0439 0.0769,-0.0755 0.10931,-0.0945 0,0 0,0 0,0 0,0 0,0 0,0 0.0793,-0.004 0.0877,-0.017 0.0883,-0.0183 0,0 0,0 0,0 0,0 0,0 0,0 4e-5,-7e-5 3e-5,-5e-5 3e-5,-5e-5 0,0 1e-5,-2e-5 -10e-6,6e-5 0,0 0,0 0,0 0,0 0,0 0,0 -2.4e-4,0.001 -7.3e-4,0.0169 0.0617,0.0657 0,0 0,0 0,0 0,0 0,0 0,0 0.0153,0.0346 0.0263,0.0821 0.0328,0.14233 0,0 0,0 0,0 0,0 0,0 0,0 0.0131,0.11934 0.009,0.28869 -0.0138,0.5053 0,0 0,0 0,0 -0.0445,0.42837 -0.16046,1.04361 -0.35381,1.82608 0,0 0,0 0,0 -0.37719,1.52644 -1.04991,3.69732 -2.07722,6.36245 0,0 0,0 0,0 -1.9315,5.01319 -5.10405,11.84544 -10.15064,19.14677 0,0 0,0 0,0 -1.38964,1.96285 -3.14971,3.68903 -5.16181,5.17527 -2.01211,1.48624 -4.27581,2.73251 -6.60592,3.77716 -4.04312,1.85207 -8.44522,3.25962 -13.01229,4.34291 -1.09457,0.25963 -2.18408,0.49793 -3.26541,0.71891 -5.69617,1.17007 -11.23828,1.86231 -16.43779,2.26699 -4.32033,0.33776 -8.43879,0.48945 -12.25455,0.40467 0,0 0,0 0,0 -3.56637,-0.0822 -6.82007,-0.47002 -9.72077,-0.9468 -2.90071,-0.47678 -5.449,-1.04347 -7.61124,-1.57803 0,0 0,0 0,0 -2.62406,-0.64697 -4.68931,-1.27206 -6.11786,-1.78041 0,0 0,0 0,0 -0.75999,-0.27044 -1.34057,-0.50886 -1.72876,-0.70436 0,0 0,0 0,0 0,0 0,0 0,0 -0.19914,-0.10029 -0.34791,-0.18939 -0.44438,-0.26591 0,0 0,0 0,0 0,0 0,0 0,0 -0.0488,-0.0387 -0.0843,-0.0743 -0.10615,-0.10641 0,0 0,0 0,0 -0.0227,-0.0334 -0.031,-0.0633 -0.0242,-0.0893 0,0 0,0 0,0 z"
           id="path3850"
           inkscape:path-effect="#path-effect3852"
           inkscape:original-d="m 106.73214,889.25674 c 0,0 14.35436,3.79968 25.75342,3.79968 11.39906,0 45.59623,-2.53312 55.30653,-16.04311 9.71031,-13.50999 13.93217,-27.01998 13.93217,-27.01998"
           inkscape:connector-curvature="0" />
      </g>
      <path
         sodipodi:nodetypes="csssc"
         inkscape:connector-curvature="0"
         inkscape:original-d="m 202.82304,836.44269 c 0,0 13.41926,7.01022 -3.37749,17.30968 -5.45714,3.3462 -9.71035,15.19874 -45.17408,18.99843 -35.2644,3.77831 -68.394332,-1.26657 -84.859635,-6.33281 -16.465299,-5.06625 -28.708732,-8.86594 -29.130918,-12.66562"
         inkscape:path-effect="#path-effect3912"
         id="path3910"
         d="m 202.82309,836.44272 c 0.005,-0.01 0.0142,-0.0172 0.0267,-0.0228 0.0116,-0.005 0.0264,-0.009 0.0442,-0.0102 0,0 0,0 0,0 0.035,-0.003 0.0821,5.7e-4 0.14061,0.0116 0,0 0,0 0,0 0.11289,0.0215 0.2693,0.0706 0.46473,0.15108 0,0 0,0 0,0 0.35817,0.14742 0.85252,0.39973 1.44257,0.80102 0,0 0,0 0,0 0,0 0,0 0,0 0.48134,0.3249 1.03374,0.75228 1.59522,1.33128 0.56148,0.57899 1.13412,1.30962 1.58532,2.25888 0,0 0,0 0,0 0.3816,0.841 0.60619,1.82523 0.59719,2.89132 -0.009,1.06609 -0.25224,2.21528 -0.78992,3.31385 0,0 0,0 0,0 0,0 0,0 0,0 -0.7327,1.47563 -1.80008,2.87781 -3.14296,4.16472 -1.34287,1.28691 -2.96335,2.45733 -4.66195,3.5266 0,0 0,0 0,0 -1.35592,0.85841 -2.54775,2.28667 -4.06581,3.77273 0,0 0,0 0,0 -2.03628,2.02379 -4.37368,4.03045 -7.10577,5.79805 0,0 0,0 0,0 0,0 0,0 0,0 0,0 0,0 0,0 -4.51545,2.89431 -9.80547,5.18215 -15.65757,6.84394 -5.85211,1.66178 -12.26477,2.69749 -18.81704,3.40941 -7.20853,0.80843 -14.77327,1.28995 -22.55782,1.38033 -9.50398,0.11034 -18.69044,-0.36879 -27.31292,-1.25431 -6.749168,-0.68925 -13.197001,-1.58657 -19.181968,-2.74907 -5.984967,-1.1625 -11.506804,-2.58955 -16.455282,-4.20935 -4.185534,-1.37196 -8.05816,-2.62406 -11.500773,-3.84813 -3.442613,-1.22407 -6.456291,-2.41648 -8.979817,-3.53878 -1.285658,-0.56903 -2.465714,-1.12722 -3.491907,-1.6921 -1.026194,-0.56489 -1.899822,-1.13454 -2.614423,-1.6804 0,0 -10e-7,0 -2e-6,0 -0.523247,-0.36628 -1.001338,-0.78025 -1.350043,-1.18147 -0.348705,-0.40122 -0.573807,-0.78885 -0.70002,-1.11522 -0.252427,-0.65273 -0.150116,-1.03259 -0.05274,-1.04341 0.09738,-0.0108 0.180857,0.32186 0.541292,0.7719 0.180218,0.22502 0.441014,0.47761 0.809587,0.74664 0.368574,0.26902 0.850574,0.55296 1.375082,0.88046 10e-7,0 10e-7,0 2e-6,0 0.736378,0.41492 1.614286,0.84678 2.642674,1.27835 1.028387,0.43156 2.208542,0.8609 3.520812,1.32574 2.562505,0.90174 5.596119,1.87948 9.062497,2.90594 3.466379,1.02645 7.367091,2.09817 11.620167,3.3227 4.880754,1.40458 10.308997,2.63561 16.199529,3.63509 5.890532,0.99947 12.243684,1.76701 18.923531,2.37271 8.50681,0.76625 17.54946,1.18095 26.89839,1.07293 7.65755,-0.0885 15.09547,-0.5235 22.18983,-1.24751 6.45172,-0.68136 12.66678,-1.5767 18.28505,-3.02857 5.61826,-1.45187 10.63965,-3.46127 14.91936,-6.05663 0,0 0,0 0,0 1e-5,0 1e-5,0 1e-5,0 0,0 0,0 0,0 2.55337,-1.53142 4.80381,-3.33001 6.81618,-5.16856 0,0 0,0 0,0 1.42771,-1.32416 2.87943,-2.84104 4.68137,-3.91897 0,0 0,0 0,0 1.6665,-0.99414 3.2177,-1.97481 4.48618,-3.02524 1.26849,-1.05042 2.2565,-2.16962 2.92932,-3.36895 0,-10e-6 0,-10e-6 0,-10e-6 0,0 0,0 0,0 0.46068,-0.80147 0.72859,-1.66807 0.81487,-2.4827 0.0863,-0.81462 -0.008,-1.57854 -0.24467,-2.24077 0,0 0,0 0,0 -0.26868,-0.8023 -0.68492,-1.48011 -1.11124,-2.05429 -0.42633,-0.57417 -0.86484,-1.04483 -1.24819,-1.43194 0,0 0,0 0,0 0,0 0,0 0,0 -0.47251,-0.47364 -0.86858,-0.8212 -1.1427,-1.07527 0,0 0,0 0,0 -0.14961,-0.13864 -0.26271,-0.24858 -0.33577,-0.33357 0,0 0,0 0,0 -0.0382,-0.0443 -0.0652,-0.0817 -0.0809,-0.11254 0,0 0,0 0,0 -0.008,-0.0157 -0.0129,-0.0298 -0.0148,-0.0422 -0.002,-0.0134 -5.2e-4,-0.0249 0.005,-0.0344 z"
         style="fill:#d0f3fe;fill-opacity:1;fill-rule:evenodd;stroke:none" />
    </g>
    <path
       style="fill:#ffffff;stroke:none;stroke-width:1px;stroke-linecap:butt;stroke-linejoin:miter;stroke-opacity:1;opacity:0.92"
       d="m 156.94309,81.356563 c 0,0 -18.88037,0.295006 -17.40534,2.655052 1.47502,2.360047 7.37514,-0.295005 9.73519,1.180024 2.36004,1.475029 0.295,3.540069 -5.90012,4.720093 -6.19512,1.180023 -0.295,4.720092 5.60511,4.425087 5.90012,-0.295006 10.0302,0 13.27526,-1.475029 3.24507,-1.475029 -2.06504,0 -4.72009,-3.835076 -2.65505,-3.835075 -0.59001,-2.950058 5.90012,-3.54007 6.49012,-0.590011 16.52032,-7.67015 7.08014,-5.60511 -9.44019,2.065041 0.295,0.590012 -3.83508,-0.590011 -4.13008,-1.180024 -12.68525,-0.885018 -15.93031,0 -3.24507,0.885017 6.19512,2.06504 6.19512,2.06504 z"
       id="path4567"
       inkscape:connector-curvature="0"
       transform="translate(0,796.3622)" />
    <path
       style="fill:#ffffff;stroke:none;stroke-width:1px;stroke-linecap:butt;stroke-linejoin:miter;stroke-opacity:1;fill-opacity:1"
       d="m 159.30313,100.53194 c -5.3101,0 -12.39024,-1.770034 -12.39024,0.29501 0,2.06504 0.59001,1.18002 6.19512,2.06504 5.60511,0.88501 12.98026,0 12.98026,0 z"
       id="path4569"
       inkscape:connector-curvature="0"
       transform="translate(0,796.3622)" />
    <path
       style="fill:#ffffff;stroke:none;stroke-width:1px;stroke-linecap:butt;stroke-linejoin:miter;stroke-opacity:1;fill-opacity:1;opacity:0.87"
       d="m 148.97793,107.61208 c 0,0 2.36005,-0.29501 2.06504,1.77003 -0.295,2.06505 -10.3252,0.29501 -10.3252,0.29501 l 8.55517,4.42509 c 0,0 -15.93032,-2.95006 -8.55517,0.295 7.37514,3.24507 19.17538,2.36005 19.17538,2.36005 l -7.37515,-2.65505 8.55517,-2.06504 -7.67015,-1.18003 1.18002,-3.24506 z"
       id="path4571"
       inkscape:connector-curvature="0"
       transform="translate(0,796.3622)" />
    <g
       id="g4770"
       style="stroke:#ffffff;stroke-opacity:1"
       transform="translate(-156.96508,-30.00035)">
      <path
         inkscape:connector-curvature="0"
         id="path4694"
         d="m 266.7664,1000.9469 5.9336,29.7823 c 0,0 8.35811,5.2416 14.18902,0.6273 1.70083,-10.5144 5.6756,-29.8777 5.6756,-29.8777"
         style="fill:none;stroke:#ffffff;stroke-width:1.18726099;stroke-linecap:butt;stroke-linejoin:miter;stroke-miterlimit:4;stroke-opacity:1;stroke-dasharray:none"
         sodipodi:nodetypes="cccc" />
      <path
         inkscape:connector-curvature="0"
         id="path4696"
         d="m 273.14221,1002.2739 2.91155,29.6267"
         style="fill:none;stroke:#ffffff;stroke-width:1.18726099;stroke-linecap:butt;stroke-linejoin:miter;stroke-miterlimit:4;stroke-opacity:1;stroke-dasharray:none"
         sodipodi:nodetypes="cc" />
      <path
         inkscape:connector-curvature="0"
         id="path4698"
         d="m 279.84975,1002.9392 -0.44222,29.6997"
         style="fill:none;stroke:#ffffff;stroke-width:1.18726099;stroke-linecap:butt;stroke-linejoin:miter;stroke-miterlimit:4;stroke-opacity:1;stroke-dasharray:none"
         sodipodi:nodetypes="cc" />
      <path
         inkscape:connector-curvature="0"
         id="path4700"
         d="m 286.37305,1002.6064 -3.72223,30.7687"
         style="fill:none;stroke:#ffffff;stroke-width:1.18726099;stroke-linecap:butt;stroke-linejoin:miter;stroke-miterlimit:4;stroke-opacity:1;stroke-dasharray:none"
         sodipodi:nodetypes="cc" />
      <path
         inkscape:connector-curvature="0"
         id="path4710"
         d="m 266.84015,1000.9468 c -0.30822,1.6463 9.34284,2.062 13.65514,2.1088 4.3123,0.047 11.87041,-0.2153 12.10635,-1.874 0.23594,-1.65857 -5.56099,-3.17422 -12.78863,-3.17422 -7.22764,0 -12.66463,1.2932 -12.97286,2.93942 z"
         style="fill:none;stroke:#ffffff;stroke-width:1.18726099;stroke-linecap:butt;stroke-linejoin:miter;stroke-miterlimit:4;stroke-opacity:1;stroke-dasharray:none"
         sodipodi:nodetypes="zzzsz" />
      <path
         inkscape:connector-curvature="0"
         id="path4710-8"
         d="m 268.29667,1008.089 c 0,0 8.16281,1.5456 12.47511,1.5924 4.3123,0.047 10.41007,-1.0626 10.41007,-1.0626"
         style="fill:none;stroke:#ffffff;stroke-width:1.18726099;stroke-linecap:butt;stroke-linejoin:miter;stroke-miterlimit:4;stroke-opacity:1;stroke-dasharray:none"
         sodipodi:nodetypes="czc" />
      <path
         inkscape:connector-curvature="0"
         id="path4710-5"
         d="m 269.03418,1013.9153 c 0,0 7.7203,1.4719 12.0326,1.5187 4.3123,0.047 9.3038,-0.9151 9.3038,-0.9151"
         style="fill:none;stroke:#ffffff;stroke-width:1.18726099;stroke-linecap:butt;stroke-linejoin:miter;stroke-miterlimit:4;stroke-opacity:1;stroke-dasharray:none"
         sodipodi:nodetypes="czc" />
      <path
         inkscape:connector-curvature="0"
         id="path4710-81"
         d="m 270.43546,1019.5942 c 0,0 6.68778,1.6193 11.00008,1.6661 4.3123,0.047 7.60752,-0.9151 7.60752,-0.9151"
         style="fill:none;stroke:#ffffff;stroke-width:1.18726099;stroke-linecap:butt;stroke-linejoin:miter;stroke-miterlimit:4;stroke-opacity:1;stroke-dasharray:none"
         sodipodi:nodetypes="czc" />
      <path
         inkscape:connector-curvature="0"
         id="path4710-7"
         d="m 271.17297,1025.4205 c 0,0 4.91775,1.3981 9.23005,1.4449 4.3123,0.047 7.75502,-1.2839 7.75502,-1.2839"
         style="fill:none;stroke:#ffffff;stroke-width:1.18726099;stroke-linecap:butt;stroke-linejoin:miter;stroke-miterlimit:4;stroke-opacity:1;stroke-dasharray:none"
         sodipodi:nodetypes="czc" />
    </g>
  </g>
</svg>
