<?xml version="1.0" encoding="UTF-8" standalone="no"?>
<!-- Created with Inkscape (http://www.inkscape.org/) -->

<svg
   xmlns:dc="http://purl.org/dc/elements/1.1/"
   xmlns:cc="http://creativecommons.org/ns#"
   xmlns:rdf="http://www.w3.org/1999/02/22-rdf-syntax-ns#"
   xmlns:svg="http://www.w3.org/2000/svg"
   xmlns="http://www.w3.org/2000/svg"
   xmlns:xlink="http://www.w3.org/1999/xlink"
   xmlns:sodipodi="http://sodipodi.sourceforge.net/DTD/sodipodi-0.dtd"
   xmlns:inkscape="http://www.inkscape.org/namespaces/inkscape"
   width="256"
   height="256"
   id="svg2"
   version="1.1"
   inkscape:version="0.48.3.1 r9886"
   sodipodi:docname="user-home2.svg">
  <defs
     id="defs4">
    <linearGradient
       id="linearGradient4110">
      <stop
         style="stop-color:#000000;stop-opacity:1;"
         offset="0"
         id="stop4112" />
      <stop
         style="stop-color:#ffffff;stop-opacity:1;"
         offset="1"
         id="stop4114" />
    </linearGradient>
    <linearGradient
       inkscape:collect="always"
       id="linearGradient4019">
      <stop
         style="stop-color:#ffffff;stop-opacity:1;"
         offset="0"
         id="stop4021" />
      <stop
         style="stop-color:#ffffff;stop-opacity:0;"
         offset="1"
         id="stop4023" />
    </linearGradient>
    <linearGradient
       inkscape:collect="always"
       id="linearGradient3977">
      <stop
         style="stop-color:#000000;stop-opacity:1;"
         offset="0"
         id="stop3979" />
      <stop
         style="stop-color:#000000;stop-opacity:0;"
         offset="1"
         id="stop3981" />
    </linearGradient>
    <linearGradient
       id="linearGradient3864">
      <stop
         style="stop-color:#ffffff;stop-opacity:1;"
         offset="0"
         id="stop3866" />
      <stop
         style="stop-color:#d5d5d5;stop-opacity:0;"
         offset="1"
         id="stop3868" />
    </linearGradient>
    <linearGradient
       id="linearGradient3815">
      <stop
         style="stop-color:#e0f2fe;stop-opacity:1;"
         offset="0"
         id="stop3817" />
      <stop
         style="stop-color:#075e99;stop-opacity:1;"
         offset="1"
         id="stop3819" />
    </linearGradient>
    <linearGradient
       id="linearGradient3805">
      <stop
         style="stop-color:#989898;stop-opacity:1;"
         offset="0"
         id="stop3807" />
      <stop
         style="stop-color:#2a2a2a;stop-opacity:0.94968551;"
         offset="1"
         id="stop3809" />
    </linearGradient>
    <linearGradient
       id="linearGradient3909">
      <stop
         style="stop-color:#909090;stop-opacity:1;"
         offset="0"
         id="stop3911" />
      <stop
         style="stop-color:#cfcfcf;stop-opacity:1;"
         offset="1"
         id="stop3913" />
    </linearGradient>
    <linearGradient
       inkscape:collect="always"
       xlink:href="#linearGradient3805"
       id="linearGradient3811"
       x1="141.3316"
       y1="860.94348"
       x2="141.74571"
       y2="895.38562"
       gradientUnits="userSpaceOnUse"
       gradientTransform="translate(-3.964646,-19.823233)" />
    <linearGradient
       inkscape:collect="always"
       xlink:href="#linearGradient3864"
       id="linearGradient3900"
       gradientUnits="userSpaceOnUse"
       gradientTransform="translate(-0.21447544,778.76626)"
       x1="88.986542"
       y1="81.555557"
       x2="88.84317"
       y2="129.87335" />
    <linearGradient
       inkscape:collect="always"
       xlink:href="#linearGradient3909"
       id="linearGradient3903"
       gradientUnits="userSpaceOnUse"
       gradientTransform="translate(0.60330562,-20.850577)"
       x1="107.04288"
       y1="1026.5909"
       x2="113.80436"
       y2="879.61139" />
    <linearGradient
       inkscape:collect="always"
       xlink:href="#linearGradient3815"
       id="linearGradient3922"
       x1="188.3951"
       y1="277.65305"
       x2="179.10686"
       y2="341.3754"
       gradientUnits="userSpaceOnUse"
       gradientTransform="matrix(0.87113587,0,0,0.99710516,-106.28515,599.9485)" />
    <linearGradient
       id="linearGradient3815-1">
      <stop
         style="stop-color:#e0f2fe;stop-opacity:1;"
         offset="0"
         id="stop3817-9" />
      <stop
         style="stop-color:#01131f;stop-opacity:1;"
         offset="1"
         id="stop3819-2" />
    </linearGradient>
    <linearGradient
       y2="327.96552"
       x2="195.48367"
       y1="272.6918"
       x1="205.841"
       gradientTransform="matrix(0.87113587,0,0,0.99710516,-208.26129,580.02957)"
       gradientUnits="userSpaceOnUse"
       id="linearGradient3939"
       xlink:href="#linearGradient3815-1"
       inkscape:collect="always" />
    <linearGradient
       inkscape:collect="always"
       xlink:href="#linearGradient3977"
       id="linearGradient3983"
       x1="114.40766"
       y1="858.7608"
       x2="252.52723"
       y2="932.05042"
       gradientUnits="userSpaceOnUse" />
    <radialGradient
       inkscape:collect="always"
       xlink:href="#linearGradient4019"
       id="radialGradient4025"
       cx="120.92171"
       cy="141.02525"
       fx="120.92171"
       fy="141.02525"
       r="127.60499"
       gradientTransform="matrix(0.67948535,0.00596595,-0.00506566,0.54621211,39.471564,63.274139)"
       gradientUnits="userSpaceOnUse" />
    <filter
       inkscape:collect="always"
       id="filter4063"
       x="-0.24069887"
       width="1.4813977"
       y="-0.30262623"
       height="1.6052525">
      <feGaussianBlur
         inkscape:collect="always"
         stdDeviation="14.711907"
         id="feGaussianBlur4065" />
    </filter>
    <filter
       inkscape:collect="always"
       id="filter4069">
      <feGaussianBlur
         inkscape:collect="always"
         stdDeviation="2.7220785"
         id="feGaussianBlur4071" />
    </filter>
    <linearGradient
       inkscape:collect="always"
       xlink:href="#linearGradient4110"
       id="linearGradient4245"
       x1="84.909195"
       y1="1075.7183"
       x2="73.400383"
       y2="804.9895"
       gradientUnits="userSpaceOnUse"
       gradientTransform="translate(-239.49287,23.228405)" />
    <linearGradient
       id="linearGradient4110-8">
      <stop
         style="stop-color:#000000;stop-opacity:1;"
         offset="0"
         id="stop4112-0" />
      <stop
         style="stop-color:#ffffff;stop-opacity:1;"
         offset="1"
         id="stop4114-4" />
    </linearGradient>
    <linearGradient
       inkscape:collect="always"
       xlink:href="#linearGradient4110"
       id="linearGradient4541"
       gradientUnits="userSpaceOnUse"
       gradientTransform="matrix(1.1411883,0,0,1.1411883,-375.15116,709.40676)"
       x1="105.41505"
       y1="436.69336"
       x2="103.60915"
       y2="187.98216" />
    <linearGradient
       inkscape:collect="always"
       xlink:href="#linearGradient4110-8"
       id="linearGradient4724"
       x1="99.453362"
       y1="225.0667"
       x2="70.000031"
       y2="11.345068"
       gradientUnits="userSpaceOnUse"
       gradientTransform="translate(-8.3118669,800.55527)" />
  </defs>
  <sodipodi:namedview
     id="base"
     pagecolor="#ffffff"
     bordercolor="#666666"
     borderopacity="1.0"
     inkscape:pageopacity="0.0"
     inkscape:pageshadow="2"
     inkscape:zoom="1.6620597"
     inkscape:cx="340.30191"
     inkscape:cy="83.620126"
     inkscape:document-units="px"
     inkscape:current-layer="layer1"
     showgrid="false"
     showguides="true"
     inkscape:guide-bbox="true"
     inkscape:window-width="1434"
     inkscape:window-height="850"
     inkscape:window-x="0"
     inkscape:window-y="26"
     inkscape:window-maximized="1" />
  <metadata
     id="metadata7">
    <rdf:RDF>
      <cc:Work
         rdf:about="">
        <dc:format>image/svg+xml</dc:format>
        <dc:type
           rdf:resource="http://purl.org/dc/dcmitype/StillImage" />
        <dc:title />
      </cc:Work>
    </rdf:RDF>
  </metadata>
  <g
     inkscape:label="Layer 1"
     inkscape:groupmode="layer"
     id="layer1"
     transform="translate(0,-796.3622)">
    <path
       style="fill:url(#linearGradient3811);fill-opacity:1;stroke:none"
       d="m 236.21884,898.72113 c 0,0 -0.0195,-54.482 -0.0265,-60.1348 -0.007,-5.6527 -2.14009,-15.8354 -16.97977,-15.6991 -14.83967,0.1771 -34.99919,0.3719 -44.11972,0.3896 -9.12056,0.018 -11.50069,10.5263 -11.50069,10.5263 0,0 -112.497246,0.5313 -129.255246,0.5313 -16.758,0 -14.7975,10.884 -14.48406,35.025 0.029,2.2384 -3.49393,21.9838 5.56861,21.8032 47.40723,-4.529 211.173756,0.9778 210.797376,7.5585 z"
       id="path3769"
       inkscape:connector-curvature="0"
       sodipodi:nodetypes="cczzczscc" />
    <rect
       style="opacity:0.26506025000000000;fill:#0d0d0d;fill-opacity:1;stroke:none;filter:url(#filter4069)"
       id="rect4067"
       width="60.473953"
       height="72.889137"
       x="-57.709446"
       y="856.7301"
       transform="matrix(0.96934222,-0.24571459,0.24571459,0.96934222,0,0)" />
    <rect
       style="fill:url(#linearGradient3939);fill-opacity:1;stroke:none"
       id="rect3905-1"
       width="200.95544"
       height="133.37636"
       x="-190.11949"
       y="852.85889"
       transform="matrix(0.9632612,-0.26856631,0.2269135,0.97391492,0,0)" />
    <rect
       style="fill:url(#linearGradient3922);fill-opacity:1;stroke:none"
       id="rect3905"
       width="200.95544"
       height="133.37636"
       x="-88.143364"
       y="872.77789"
       transform="matrix(0.98445161,-0.175656,0.13317822,0.99109211,0,0)" />
    <path
       style="fill:url(#linearGradient3903);fill-opacity:1;stroke:url(#linearGradient3983)"
       d="m 167.1696,882.89394 c 29.09008,0 22.96757,-0.80098 53.95009,-0.80098 17.36451,0 32.12293,13.95823 31.38071,31.30612 l -3.35398,78.39195 c -0.74222,17.34787 -6.11869,18.16527 -23.48317,18.18447 l -192.001174,0.2125 c -17.364483,0.019 -23.278359,-2.7357 -23.771415,-20.09237 L 6.7228456,878.58125 c -0.493058,-17.35677 1.7235216,-22.56386 20.6607814,-22.6772 18.93726,-0.17709 79.863073,0.0598 104.053033,-0.16668 24.18996,-0.22652 35.70565,3.95058 35.73294,27.15657 z"
       id="rect2995-2"
       inkscape:connector-curvature="0"
       sodipodi:nodetypes="ccsssssszcc" />
    <path
       sodipodi:type="arc"
       style="opacity:0.26506025;fill:url(#radialGradient4025);fill-opacity:1;stroke:none;filter:url(#filter4063)"
       id="path3985"
       sodipodi:cx="120.92171"
       sodipodi:cy="141.02525"
       sodipodi:rx="73.345955"
       sodipodi:ry="58.336941"
       d="m 194.26766,141.02525 c 0,32.21861 -32.8381,58.33694 -73.34595,58.33694 -40.507855,0 -73.345958,-26.11833 -73.345958,-58.33694 0,-32.2186 32.838103,-58.336937 73.345958,-58.336937 28.21623,0 53.93077,12.873837 66.13291,33.109057"
       transform="matrix(1.4119049,0,0,1.0506194,-39.629102,794.03941)"
       sodipodi:start="0"
       sodipodi:end="5.8359757"
       sodipodi:open="true" />
    <path
       style="fill:none;stroke:#000000;stroke-width:3;stroke-miterlimit:4;stroke-opacity:1;stroke-dasharray:none"
       d="m 218.66346,822.79243 c -14.83967,0.17709 -35.00447,0.38854 -44.125,0.40625 -9.12056,0.0177 -11.5,10.53125 -11.5,10.53125 0,0 -112.491997,0.53125 -129.249997,0.53125 -13.14408,0 -14.77891,6.71327 -14.71875,21.25 C 4.3245434,856.84954 5.197647,867.8268 5.5656132,883.47582 l 2.3187645,98.61335 c 0.4081716,17.35889 0.4174471,27.93623 18.3483053,28.19743 l 208.273177,0.6309 c 17.36447,-0.022 14.56415,-14.73152 15.45391,-30.80866 l 3.08622,-66.35154 c 1.35661,-10.12593 -6.59189,-24.27061 -17.38253,-30.00365 -0.004,-12.08907 -0.0253,-40.45644 -0.0313,-45.24247 -0.007,-5.65274 -2.12907,-15.85511 -16.96875,-15.71875 z"
       id="path3769-8"
       inkscape:connector-curvature="0"
       sodipodi:nodetypes="cscscsscccccccc" />
    <path
       style="fill:none;stroke:url(#linearGradient3900);stroke-width:5;stroke-linecap:butt;stroke-linejoin:miter;stroke-miterlimit:4;stroke-opacity:1;stroke-dasharray:none"
       d="m 12.265967,963.4858 c 0,0 -3.0479033,-88.14302 -1.931649,-94.73911 0.995518,-5.88266 3.256672,-10.124 14.230247,-10.05321 3.974664,0.0256 113.912775,0.63718 113.912775,0.63718 0,0 17.77658,-1.26515 22.51355,8.70806 4.07469,8.57883 2.33631,17.84093 2.33631,17.84093 0,0 53.94749,-1.20357 59.04489,-0.63719 5.0974,0.56638 17.41614,3.11508 24.21267,14.01785"
       id="path3854"
       inkscape:connector-curvature="0"
       sodipodi:nodetypes="csscscsc" />
    <path
       style="fill:url(#linearGradient4245);fill-opacity:1;stroke:none"
       d="m -208.37391,937.43683 c -5.52838,4.00876 -6.7694,11.79662 -2.76068,17.325 l 46.63255,64.30987 c 4.00873,5.5283 11.66914,6.5933 17.19753,2.5846 l 64.485661,-46.76012 c 5.52837,-4.00876 6.72071,-11.49299 2.71198,-17.02137 l -46.632551,-64.30988 c -4.00872,-5.52834 -11.62045,-6.89688 -17.14882,-2.88813 z m 9.92404,-2.89448 48.80473,-35.38943 4.34362,5.9902 c 4.00912,5.52889 3.24256,12.70355 -1.65487,16.25479 l -31.18569,22.61345 c -4.89742,3.55125 -11.95504,2.05005 -15.96417,-3.47882 z m -7.19178,17.04318 5.28571,-3.83276 c 1.43738,-1.0423 3.51691,-0.71103 4.55921,0.72638 l 1.91635,2.64284 c 1.04231,1.43734 0.58347,3.34114 -0.85392,4.38344 l -5.2857,3.83283 c -1.43738,1.04223 -3.2133,0.75894 -4.2556,-0.67847 l -1.91636,-2.64276 c -1.0423,-1.43751 -0.88707,-3.38919 0.55031,-4.4315 z m 68.52073,-48.61013 5.28571,-3.8328 c 1.43737,-1.04229 3.21287,-0.75956 4.25506,0.6777 l 1.91647,2.64295 c 1.04219,1.43727 0.88707,3.38916 -0.55032,4.43143 l -5.28571,3.8328 c -1.43737,1.04227 -3.517,0.71085 -4.55921,-0.72642 l -1.91645,-2.64294 c -1.0422,-1.43726 -0.58293,-3.34046 0.85445,-4.38272 z m -60.26467,60.3666 5.10952,-3.70504 c 1.43738,-1.04222 3.51702,-0.7108 4.55921,0.72646 l 1.78852,2.46643 c 1.04219,1.43727 0.71087,3.51692 -0.72651,4.55921 l -5.10952,3.70504 c -1.43738,1.0423 -3.51701,0.71089 -4.55921,-0.72638 l -1.78851,-2.46651 c -1.04219,-1.43726 -0.71088,-3.51691 0.7265,-4.55921 z m 22.27706,-15.62068 29.24759,-21.2081 c 5.52839,-4.00875 13.31621,-2.76808 17.32495,2.76028 l 14.56485,20.08602 c 4.00873,5.52838 2.76772,13.31626 -2.76066,17.32504 l -29.2476,21.20812 c -5.52838,4.00868 -13.3163,2.76788 -17.32504,-2.76042 l -14.56484,-20.08607 c -4.00874,-5.52829 -2.76764,-13.31611 2.76075,-17.32487 z m 46.11225,-33.1707 5.10952,-3.70503 c 1.43738,-1.04228 3.517,-0.71086 4.5592,0.7264 l 1.91646,2.64295 c 1.04219,1.43727 0.71089,3.51691 -0.72649,4.55919 l -5.10953,3.70502 c -1.43738,1.04229 -3.517,0.71088 -4.5592,-0.72639 l -1.91646,-2.64294 c -1.04221,-1.43728 -0.71088,-3.51692 0.7265,-4.5592 z m -60.39261,60.19024 5.28571,-3.83284 c 1.43737,-1.0423 3.51701,-0.71088 4.55921,0.72638 l 1.78893,2.46714 c 1.04218,1.43719 0.71087,3.51684 -0.72651,4.55914 l -5.28571,3.83283 c -1.43738,1.04222 -3.34083,0.58301 -4.38301,-0.85417 l -1.78893,-2.46706 c -1.0422,-1.43727 -0.88707,-3.38919 0.55031,-4.43142 z m 68.39372,-48.78534 5.28571,-3.8328 c 1.43738,-1.04228 3.34082,-0.5831 4.38301,0.85416 l 1.91646,2.64295 c 1.04218,1.43724 0.88707,3.38914 -0.55032,4.43141 l -5.28571,3.8328 c -1.43737,1.04226 -3.51701,0.71086 -4.55921,-0.7264 l -1.91644,-2.64293 c -1.0422,-1.43727 -0.71088,-3.51692 0.7265,-4.55919 z m -60.00877,60.71955 5.28571,-3.83283 c 1.43737,-1.04231 3.34071,-0.58325 4.38303,0.85417 l 1.91635,2.64284 c 1.04228,1.43734 0.75923,3.21286 -0.67814,4.25509 l -5.28571,3.83284 c -1.43739,1.04222 -3.3891,0.88728 -4.43139,-0.55014 l -1.91634,-2.64275 c -1.04231,-1.43751 -0.7109,-3.517 0.72649,-4.55922 z m 68.39362,-48.78546 5.10952,-3.70504 c 1.43738,-1.04228 3.51702,-0.71085 4.55931,0.72654 l 1.91637,2.64282 c 1.042691,1.43796 0.71087,3.5169 -0.72652,4.55919 l -5.10951,3.70503 c -1.43738,1.04231 -3.5165,0.71159 -4.5592,-0.7264 l -1.91638,-2.64282 c -1.04229,-1.4374 -0.71097,-3.51705 0.72641,-4.55932 z m -60.13671,60.5431 5.10951,-3.70503 c 1.43738,-1.0423 3.51705,-0.7108 4.55924,0.72646 l 1.7889,2.46698 c 1.04232,1.43742 0.7109,3.51698 -0.72648,4.55918 l -5.10952,3.7051 c -1.43738,1.0423 -3.51691,0.711 -4.55923,-0.7265 l -1.78891,-2.467 c -1.04218,-1.4372 -0.71089,-3.51697 0.72649,-4.55919 z m 68.21751,-48.65762 5.285711,-3.83275 c 1.43738,-1.0423 3.51704,-0.71083 4.55922,0.72645 l 1.91648,2.64291 c 1.04218,1.43727 0.58333,3.34098 -0.85405,4.38336 l -5.2857,3.83276 c -1.437391,1.04231 -3.213291,0.75894 -4.255481,-0.67824 l -1.91647,-2.643 c -1.04219,-1.43726 -0.8871,-3.38919 0.55029,-4.43149 z m -37.60877,65.44471 -4.34356,-5.9901 c -4.0093,-5.5291 -3.24402,-12.97093 1.70349,-16.55847 l 31.53806,-22.86898 c 4.94751,-3.58753 12.08245,-1.87437 16.091751,3.65478 l 4.34356,5.99011 m -71.940501,30.39106 5.28571,-3.8328 c 1.43738,-1.0423 3.3408,-0.5831 4.38298,0.8541 l 1.78855,2.4666 c 1.04219,1.4372 0.88704,3.3891 -0.55035,4.4313 l -5.2857,3.8329 c -1.43738,1.0422 -3.51699,0.7108 -4.55918,-0.7264 l -1.78855,-2.4665 c -1.04218,-1.4373 -0.71084,-3.5169 0.72654,-4.5592 z m 68.393731,-48.78528 5.10952,-3.70512 c 1.43738,-1.04222 3.51698,-0.71089 4.55917,0.72638 l 1.91637,2.64284 c 1.04231,1.43742 0.58301,3.34059 -0.85437,4.38281 l -5.10952,3.70503 c -1.43738,1.0423 -3.38902,0.88745 -4.43134,-0.55006 l -1.91637,-2.64275 c -1.04218,-1.43726 -0.71084,-3.51691 0.72654,-4.55913 z"
       id="rect3861"
       inkscape:connector-curvature="0"
       sodipodi:nodetypes="sssssssssccsssscssssssssssssssssssssssssssssssssssssssssssssssssssssssssssssssssssssssssssssssssssssssssssssssssssscsssscssssssssssssssssss" />
    <path
       sodipodi:type="arc"
       style="fill:#4b7744;fill-opacity:1;stroke:none"
       id="path4005"
       sodipodi:cx="7.8584957"
       sodipodi:cy="8.7078829"
       sodipodi:rx="1.7345328"
       sodipodi:ry="1.7345328"
       d="M 9.5880146,8.5760927 C 9.6608003,9.5312796 8.9454728,10.364616 7.9902859,10.437402 7.035099,10.510187 6.2017626,9.7948599 6.1289768,8.8396731 6.0561911,7.8844862 6.7715186,7.0511497 7.7267055,6.978364 8.6671696,6.9067002 9.4925313,7.599668 9.5847228,8.5383422"
       transform="matrix(17.096506,0,0,17.096506,511.61844,1010.7991)"
       sodipodi:start="6.2071318"
       sodipodi:end="12.46847"
       sodipodi:open="true" />
    <path
       inkscape:connector-curvature="0"
       style="fill:#4b7744;fill-opacity:1;stroke:none"
       d="m 677.22689,1046.1376 c 0,13.7695 -13.76,27.7491 -29.66923,27.7578 -15.90922,0 -29.81453,-14.573 -29.81453,-27.6912 10.59548,-0.1709 50.90875,0 59.48376,0 z"
       id="path4005-5-1-6"
       sodipodi:nodetypes="czccc" />
    <path
       inkscape:connector-curvature="0"
       style="fill:#4b7744;fill-opacity:1;stroke:none"
       d="m 615.60026,1272.2046 c 0,-13.7694 13.76,-27.7494 29.66923,-27.7576 15.90921,0 29.81454,14.5728 29.81454,27.691 -10.59548,0.1724 -50.90876,0 -59.48377,0 z"
       id="path4005-5-1-6-6"
       sodipodi:nodetypes="czccc" />
    <path
       style="opacity:0.83999999;fill:url(#linearGradient4541);fill-opacity:1;stroke:none"
       d="m -253.13477,1009.8583 c -0.75649,-0.018 -1.55229,-0.016 -2.32253,0.042 -12.51688,0.9539 -21.8566,11.8908 -20.9028,24.4077 0.53907,7.0745 4.28181,13.1619 9.67019,16.9334 l -4.81398,10.3036 c -4.05083,0.3181 -8.08599,0.6972 -12.03496,1.098 l -3.29378,-4.6029 c 5.97432,-4.5131 9.60528,-11.8745 8.99455,-19.8893 l -0.0423,-0.5068 c -1.13257,-11.5318 -10.69567,-20.2115 -22.04297,-20.4805 -0.75648,-0.017 -1.55229,-0.016 -2.32254,0.042 -12.51688,0.9539 -21.85661,11.8908 -20.90281,24.4077 0.95378,12.5169 11.84862,21.8989 24.3655,20.9451 0.90317,-0.069 1.79253,-0.2105 2.66036,-0.3801 l 1.18238,1.6047 c -5.27449,0.5087 -10.07388,0.9024 -13.89298,0.929 -6.3342,0.043 -13.34402,0.1688 -13.34402,6.5031 l 0,40.4121 c 0,6.3345 5.10941,11.4015 11.44376,11.4015 34.59046,0.3616 44.16902,0.549 79.17731,0.549 4.8566,0.1014 2.18046,-15.1275 3.84275,-19.3826 l 39.27196,15.751 1.14016,-61.5261 -39.82092,14.9909 c -1.08004,-10.6242 -15.26021,-12.944 -32.13544,-12.5416 l 2.61812,-5.7008 c 0.0138,0 0.0284,-10e-4 0.0424,0 1.49767,0.1897 3.03823,0.2037 4.60284,0.085 12.51689,-0.9537 21.89885,-11.8908 20.94504,-24.4077 l -0.0422,-0.5068 c -1.13257,-11.5318 -10.69567,-20.2115 -22.04297,-20.4805 z m 3.04042,4.3072 8.69894,2.3648 -3.08264,7.8122 c -2.09999,-2.1732 -4.97376,-3.5227 -8.14999,-3.6316 z m -12.45723,0.8024 4.89843,6.672 c -2.68474,1.1155 -4.85107,3.1411 -6.12303,5.7007 l -5.70077,-7.6854 z m -34.33129,6.5031 8.69895,2.3647 -3.08264,7.8122 c -2.09999,-2.1731 -4.97377,-3.5226 -8.14998,-3.6316 z m -12.45723,0.8023 4.89843,6.672 c -2.68475,1.1155 -4.85108,3.1412 -6.12304,5.7008 l -5.70077,-7.6855 z m 74.70115,2.7448 1.26684,9.8391 -8.31889,1.478 c 0.46544,-1.4378 0.67088,-2.9606 0.54895,-4.5606 l 0,-0.2956 c -0.17939,-1.8266 -0.8002,-3.5066 -1.68912,-4.9829 z m -30.02402,4.8984 c -0.27881,1.1735 -0.43438,2.4069 -0.33782,3.6739 0.17248,2.2637 1.00524,4.3192 2.23807,6.0386 l -8.36112,1.858 -1.60466,-9.7547 z m -16.76448,2.407 1.26684,9.8391 -8.3189,1.478 c 0.46545,-1.4378 0.67089,-2.9604 0.54896,-4.5606 l 0,-0.2956 c -0.1794,-1.8265 -0.80021,-3.5067 -1.68912,-4.9829 z m -30.02405,4.8985 c -0.27881,1.1735 -0.43437,2.4068 -0.33782,3.6738 0.17249,2.2637 1.00525,4.3192 2.23808,6.0386 l -8.36113,1.858 -1.60466,-9.7546 z m 68.87371,1.1824 6.24972,5.194 -5.70075,6.672 -7.43212,-6.2075 c 2.984,-0.9373 5.42232,-2.9976 6.88315,-5.6585 z m -18.07352,3.5049 c 2.29744,1.886 5.28985,2.904 8.48778,2.6603 0.33992,-0.026 0.68288,-0.03 1.01347,-0.084 l -2.2803,7.6011 -7.98106,-1.5202 -1.43576,-1.1824 z m -28.71499,3.8005 6.24973,5.194 -4.81398,5.6163 -1.0557,-1.5202 -1.56243,1.0979 -5.70077,-4.7295 c 2.98401,-0.9372 5.42232,-2.9976 6.88315,-5.6585 z m -18.07355,3.5049 c 2.29746,1.8861 5.28988,2.904 8.48781,2.6604 0.33992,-0.026 0.68288,-0.031 1.01347,-0.084 l -2.2803,7.601 -9.6702,-1.8158 z"
       id="rect4277"
       inkscape:connector-curvature="0"
       sodipodi:nodetypes="ccsccccccccsccccssccccccccccccccccccccccccccccccccccccccccccsccccccccccccsccccccccccccccccccccccccccccc" />
    <path
       style="fill:url(#linearGradient4724);fill-opacity:1;stroke:none"
       d="m 115.83346,887.04647 0,10.21875 -23.807477,-24.21879 -57.14123,62.93598 14.06505,0 0.30083,59.29157 33.16558,0 0.25,-35.17262 22.392517,0 -0.34375,35.39142 33.4419,0 -0.30083,-59.51037 12.13546,0 c -8.36543,-11.78272 -8.7443,-11.64603 -16.9393,-23.54729 l 0,-25.3886 -17.21875,0 z"
       id="path3050"
       inkscape:connector-curvature="0"
       sodipodi:nodetypes="ccccccccccccccccc" />
    <path
       sodipodi:type="arc"
       style="fill:#588a50;fill-opacity:1;stroke:none"
       id="path3828"
       sodipodi:cx="360.44644"
       sodipodi:cy="164.23718"
       sodipodi:rx="10.982142"
       sodipodi:ry="10.982142"
       d="m 371.39684,163.40276 c 0.46084,6.04773 -4.06824,11.32398 -10.11597,11.78482 -6.04774,0.46084 -11.32398,-4.06823 -11.78483,-10.11597 -0.46084,-6.04774 4.06824,-11.32398 10.11598,-11.78482 5.95452,-0.45374 11.18027,3.93376 11.76398,9.87695"
       sodipodi:start="6.2071318"
       sodipodi:end="12.46847"
       transform="matrix(2.3790905,0,0,2.3790905,-1085.0768,802.27146)"
       sodipodi:open="true" />
  </g>
</svg>
