<?xml version="1.0" encoding="UTF-8" standalone="no"?>
<!-- Created with Inkscape (http://www.inkscape.org/) -->

<svg
   xmlns:dc="http://purl.org/dc/elements/1.1/"
   xmlns:cc="http://creativecommons.org/ns#"
   xmlns:rdf="http://www.w3.org/1999/02/22-rdf-syntax-ns#"
   xmlns:svg="http://www.w3.org/2000/svg"
   xmlns="http://www.w3.org/2000/svg"
   xmlns:sodipodi="http://sodipodi.sourceforge.net/DTD/sodipodi-0.dtd"
   xmlns:inkscape="http://www.inkscape.org/namespaces/inkscape"
   version="1.0"
   width="96"
   height="96"
   id="svg2408"
   inkscape:version="0.48.3.1 r9886"
   sodipodi:docname="applications-geography.svg">
  <sodipodi:namedview
     pagecolor="#ffffff"
     bordercolor="#666666"
     borderopacity="1"
     objecttolerance="10"
     gridtolerance="10"
     guidetolerance="10"
     inkscape:pageopacity="0"
     inkscape:pageshadow="2"
     inkscape:window-width="1914"
     inkscape:window-height="1031"
     id="namedview101"
     showgrid="false"
     inkscape:zoom="2.8284271"
     inkscape:cx="109.7899"
     inkscape:cy="53.277823"
     inkscape:window-x="0"
     inkscape:window-y="25"
     inkscape:window-maximized="1"
     inkscape:current-layer="svg2408"
     inkscape:snap-global="false" />
  <defs
     id="defs2410">
    <linearGradient
       x1="45.447727"
       y1="92.539597"
       x2="45.447727"
       y2="7.0165396"
       id="ButtonShadow"
       gradientUnits="userSpaceOnUse"
       gradientTransform="scale(1.0058652,0.994169)">
      <stop
         id="stop3750"
         style="stop-color:#000000;stop-opacity:1"
         offset="0" />
      <stop
         id="stop3752"
         style="stop-color:#000000;stop-opacity:0.58823532"
         offset="1" />
    </linearGradient>
    <filter
       color-interpolation-filters="sRGB"
       id="filter3174">
      <feGaussianBlur
         id="feGaussianBlur3176"
         stdDeviation="1.71" />
    </filter>
  </defs>
  <metadata
     id="metadata2413">
    <rdf:RDF>
      <cc:Work
         rdf:about="">
        <dc:format>image/svg+xml</dc:format>
        <dc:type
           rdf:resource="http://purl.org/dc/dcmitype/StillImage" />
        <dc:title />
      </cc:Work>
    </rdf:RDF>
  </metadata>
  <g
     id="layer2"
     style="display:none">
    <rect
       width="86"
       height="85"
       rx="6"
       ry="6"
       x="5"
       y="7"
       id="rect3745"
       style="opacity:0.9;fill:url(#ButtonShadow);fill-opacity:1;fill-rule:nonzero;stroke:none;filter:url(#filter3174)" />
  </g>
  <rect
     style="fill:#c8aa99;fill-opacity:1;stroke:none"
     id="rect8672-7-4-5-8-1-9-7-1-1-3-3-2-23"
     width="92.053642"
     height="86.102989"
     x="2.3538857"
     y="5.3753748"
     ry="12.097115" />
  <path
     style="fill:#967f72;fill-opacity:1;stroke:none"
     d="M 39.663664,18.408452 2.4930185,41.438159 2.7515527,77.742394 C 2.227208,87.822481 9.0652094,92.737955 21.4116,91.747235 c 8.247337,-0.368361 9.768319,0.20464 17.261713,-0.176085 L 64.56011,78.112424 C 65.520282,74.77588 44.403636,73.621242 47.222914,72.431526 82.107881,57.710521 72.276987,28.08072 53.552104,23.190279 c -1.674896,-1.38216 -3.797643,-2.762184 -5.119795,-3.678584 -4.670053,-3.236869 -6.698222,1.253944 -8.768626,-1.103243 z"
     id="path8889-0-6-5-6-6-4-7-0-2-3-1-1-9"
     inkscape:connector-curvature="0"
     sodipodi:nodetypes="ccccccscscc" />
  <g
     id="g4771"
     transform="matrix(0.42582633,0,0,0.42582633,225.32275,-298.8861)">
    <path
       transform="matrix(0.52184928,0,0,0.52184928,-279.77877,267.53542)"
       d="m -177.6798,1038.462 c 0,52.4027 -43.02192,94.8835 -96.09214,94.8835 -53.07023,0 -96.09214,-42.4808 -96.09214,-94.8835 0,-52.40264 43.02191,-94.88339 96.09214,-94.88339 53.07022,0 96.09214,42.48075 96.09214,94.88339 z"
       sodipodi:ry="94.88343"
       sodipodi:rx="96.09214"
       sodipodi:cy="1038.462"
       sodipodi:cx="-273.77194"
       id="path4764"
       style="fill:#251d1c;fill-opacity:1;stroke:none"
       sodipodi:type="arc" />
    <path
       sodipodi:nodetypes="csscssscsssc"
       inkscape:connector-curvature="0"
       id="rect4766"
       d="m -431.63358,745.286 c 25.07713,-1.33026 45.78545,4.59938 59.15041,17.78341 23.26486,22.94992 24.63032,65.59114 -2.33869,93.26024 -5.40213,5.5424 -13.60941,10.9613 -30.77792,13.7564 -10.52995,1.8544 -5.13276,5.1648 -8.40208,6.1907 -5.56685,1.747 -10.63048,3.6397 -10.70193,-1.1283 -0.0134,-0.8963 -0.29822,-2.7054 -0.35529,-3.9379 -0.40664,-8.7812 5.47884,-8.5972 12.95862,-9.6769 33.52193,-4.9123 47.5814,-31.9866 46.75384,-56.33944 -0.60458,-17.79153 -8.64527,-33.76528 -28.10746,-43.54651 -10.43223,-5.24299 -28.59323,-7.58448 -44.32634,-4.67378 -4.86484,0.90002 -8.70525,-10.96018 6.14684,-11.68792 z"
       style="fill:#251d1c;fill-opacity:1;stroke:none" />
    <rect
       ry="6.3070116"
       y="874.88678"
       x="-462.26199"
       height="12.614023"
       width="86.114967"
       id="rect4769"
       style="fill:#251d1c;fill-opacity:1;stroke:none" />
  </g>
</svg>
