<?xml version="1.0" encoding="UTF-8" standalone="no"?>
<!-- Created with Inkscape (http://www.inkscape.org/) -->

<svg
   xmlns:dc="http://purl.org/dc/elements/1.1/"
   xmlns:cc="http://creativecommons.org/ns#"
   xmlns:rdf="http://www.w3.org/1999/02/22-rdf-syntax-ns#"
   xmlns:svg="http://www.w3.org/2000/svg"
   xmlns="http://www.w3.org/2000/svg"
   xmlns:sodipodi="http://sodipodi.sourceforge.net/DTD/sodipodi-0.dtd"
   xmlns:inkscape="http://www.inkscape.org/namespaces/inkscape"
   version="1.0"
   width="96"
   height="96"
   id="svg2408"
   inkscape:version="0.48.3.1 r9886"
   sodipodi:docname="applications-geology.svg">
  <sodipodi:namedview
     pagecolor="#ffffff"
     bordercolor="#666666"
     borderopacity="1"
     objecttolerance="10"
     gridtolerance="10"
     guidetolerance="10"
     inkscape:pageopacity="0"
     inkscape:pageshadow="2"
     inkscape:window-width="1914"
     inkscape:window-height="1031"
     id="namedview71"
     showgrid="false"
     inkscape:zoom="5.122619"
     inkscape:cx="34.345419"
     inkscape:cy="25.960774"
     inkscape:window-x="0"
     inkscape:window-y="25"
     inkscape:window-maximized="1"
     inkscape:current-layer="svg2408" />
  <defs
     id="defs2410">
    <linearGradient
       x1="45.447727"
       y1="92.539597"
       x2="45.447727"
       y2="7.0165396"
       id="ButtonShadow"
       gradientUnits="userSpaceOnUse"
       gradientTransform="scale(1.0058652,0.994169)">
      <stop
         id="stop3750"
         style="stop-color:#000000;stop-opacity:1"
         offset="0" />
      <stop
         id="stop3752"
         style="stop-color:#000000;stop-opacity:0.58823532"
         offset="1" />
    </linearGradient>
    <filter
       color-interpolation-filters="sRGB"
       id="filter3174">
      <feGaussianBlur
         id="feGaussianBlur3176"
         stdDeviation="1.71" />
    </filter>
  </defs>
  <metadata
     id="metadata2413">
    <rdf:RDF>
      <cc:Work
         rdf:about="">
        <dc:format>image/svg+xml</dc:format>
        <dc:type
           rdf:resource="http://purl.org/dc/dcmitype/StillImage" />
        <dc:title />
      </cc:Work>
    </rdf:RDF>
  </metadata>
  <g
     id="layer2"
     style="display:none">
    <rect
       width="86"
       height="85"
       rx="6"
       ry="6"
       x="5"
       y="7"
       id="rect3745"
       style="opacity:0.9;fill:url(#ButtonShadow);fill-opacity:1;fill-rule:nonzero;stroke:none;filter:url(#filter3174)" />
  </g>
  <rect
     style="fill:#c8aa99;fill-opacity:1;stroke:none"
     id="rect8672-7-4-5-8-1-9-7-1-1-3-3-2-5"
     width="94.071037"
     height="85.644608"
     x="0.91953105"
     y="4.9746981"
     ry="12.032715" />
  <path
     style="fill:#967f72;fill-opacity:1;stroke:none"
     d="M 16.487234,28.893845 0.83336897,36.902775 0.8904151,76.545643 C 0.41725397,85.399302 5.8388027,90.774067 14.077815,90.670469 L 43.958547,90.569271 66.399554,78.977016 C 65.847746,72.628064 45.912246,40.501431 40.98403,29.31788 37.245247,20.833528 24.640598,23.205613 16.487234,28.893698 z"
     id="path8889-0-6-5-6-6-4-7-0-2-3-1-1-2-1"
     inkscape:connector-curvature="0"
     sodipodi:nodetypes="ccccccscc" />
  <g
     id="g4757"
     transform="matrix(0.4920988,-0.09345076,0.09600989,0.47898197,465.66139,-560.73165)">
    <path
       sodipodi:nodetypes="ccccccscsccccc"
       inkscape:connector-curvature="0"
       id="path3048-9"
       d="m -1119.7782,1016.9894 6.0539,17.3004 c 0,0 22.8375,-6.9214 26.3665,-9.2741 2.4892,2.4301 2.7268,6.3689 2.7268,6.3689 l 22.7365,-8.3414 -1.5565,-5.1865 c 0,0 15.0129,-4.6695 24.8395,-7.3372 9.0996,-2.4704 17.7163,-4.6401 17.7163,-4.6401 0,0 -18.1261,-3.8316 -25.8079,-4.6992 -7.0377,-0.7947 -21.7621,-0.5228 -21.7621,-0.5228 l -1.9724,-3.0123 -23.4614,5.8164 0.9684,4.949 z"
       style="fill:#251d1c;fill-opacity:1;stroke:none" />
    <path
       sodipodi:nodetypes="ccsscc"
       inkscape:connector-curvature="0"
       id="path3050-1"
       d="m -1062.1522,1026.0621 -18.4177,6.1393 29.9937,90.0038 c 2.5186,7.5577 8.0155,15.3462 16.8297,12.339 10.3673,-3.5374 5.7143,-11.709 2.696,-21.4321 z"
       style="fill:#251d1c;fill-opacity:1;stroke:none" />
    <path
       sodipodi:nodetypes="cccccccccccccccccc"
       inkscape:connector-curvature="0"
       id="path3052"
       d="m -1019.0751,1054.9412 c -1.9718,-0.9361 -5.0177,0.065 -6.9664,0.3153 -0.6108,2.585 -0.2518,4.7883 -0.8009,6.5421 -1.9308,-0.315 -4.1034,0.8389 -6.7307,1.3521 -0.9699,1.0579 -1.205,3.6196 -1.6492,5.067 1.9988,4.1401 5.3893,10.456 7.2598,13.2766 1.1365,0.061 4.1863,-0.2749 6.245,-0.7973 1.7384,0.7372 3.6215,3.4398 5.2176,4.449 3.0224,1.9108 10.5763,2.2381 10.5763,2.2381 0,0 1.7715,-1.9358 1.7622,-3.5896 1.7667,-1.7805 6.10828,-4.5335 6.9983,-6.1242 1.29185,-2.0556 -0.24049,-4.5445 -1.04995,-6.6484 0.98812,-2.6442 2.07182,-4.7443 2.25141,-6.6499 -0.93528,-1.4749 -2.58133,-1.9112 -4.81336,-3.6896 -0.973,-2.4711 -0.825,-3.3392 -1.9011,-6.1816 -2.652,-0.2368 -7.3076,-0.2772 -10.618,-0.6362 -2.1331,0.7371 -2.8549,3.6316 -4.3457,3.5883 -0.9352,-0.2354 -0.5642,-2.0982 -1.4353,-2.5117 z"
       style="fill:#251d1c;fill-opacity:1;stroke:none" />
    <path
       inkscape:connector-curvature="0"
       id="path3054"
       d="m -1008.6692,1094.7708 0.7177,3.5883 c 0,0 5.3824,-1.4354 5.3824,-2.8706 0,-1.4353 -6.1001,-0.7177 -6.1001,-0.7177 z"
       style="fill:#251d1c;fill-opacity:1;stroke:none" />
    <path
       inkscape:connector-curvature="0"
       id="path3056"
       d="m -997.90439,1086.5178 -1.43532,3.9471 4.30592,-2.5118 4.30591,-8.253 c 0,0 -5.38238,-2.5117 -5.74121,-1.0765 -0.35883,1.4353 -1.4353,7.8942 -1.4353,7.8942 z"
       style="fill:#251d1c;fill-opacity:1;stroke:none" />
  </g>
</svg>
