<?xml version="1.0" encoding="UTF-8" standalone="no"?>
<!-- Created with Inkscape (http://www.inkscape.org/) -->

<svg
   xmlns:dc="http://purl.org/dc/elements/1.1/"
   xmlns:cc="http://creativecommons.org/ns#"
   xmlns:rdf="http://www.w3.org/1999/02/22-rdf-syntax-ns#"
   xmlns:svg="http://www.w3.org/2000/svg"
   xmlns="http://www.w3.org/2000/svg"
   xmlns:sodipodi="http://sodipodi.sourceforge.net/DTD/sodipodi-0.dtd"
   xmlns:inkscape="http://www.inkscape.org/namespaces/inkscape"
   height="60.0000000"
   id="svg1"
   inkscape:version="0.48.3.1 r9886"
   sodipodi:docname="applications-publishing.svg"
   sodipodi:version="0.32"
   version="1.0"
   width="60.0000000"
   x="0"
   y="0">
  <metadata
     id="metadata3">
    <rdf:RDF>
      <cc:Work
         rdf:about="">
        <dc:title>Part of the Flat Icon Collection (Wed Aug 25 23:23:49 2004)</dc:title>
        <dc:description />
        <dc:subject>
          <rdf:Bag>
            <rdf:li>hash</rdf:li>
            <rdf:li />
            <rdf:li>application</rdf:li>
            <rdf:li>computer</rdf:li>
            <rdf:li>icons</rdf:li>
            <rdf:li>theme</rdf:li>
          </rdf:Bag>
        </dc:subject>
        <dc:publisher>
          <cc:Agent
             rdf:about="http://www.openclipart.org">
            <dc:title>Danny Allen</dc:title>
          </cc:Agent>
        </dc:publisher>
        <dc:creator>
          <cc:Agent>
            <dc:title>Danny Allen</dc:title>
          </cc:Agent>
        </dc:creator>
        <dc:rights>
          <cc:Agent>
            <dc:title>Danny Allen</dc:title>
          </cc:Agent>
        </dc:rights>
        <dc:date />
        <dc:format>image/svg+xml</dc:format>
        <dc:type
           rdf:resource="http://purl.org/dc/dcmitype/StillImage" />
        <cc:license
           rdf:resource="http://web.resource.org/cc/PublicDomain" />
        <dc:language>en</dc:language>
      </cc:Work>
      <cc:License
         rdf:about="http://web.resource.org/cc/PublicDomain">
        <cc:permits
           rdf:resource="http://web.resource.org/cc/Reproduction" />
        <cc:permits
           rdf:resource="http://web.resource.org/cc/Distribution" />
        <cc:permits
           rdf:resource="http://web.resource.org/cc/DerivativeWorks" />
      </cc:License>
    </rdf:RDF>
  </metadata>
  <sodipodi:namedview
     bordercolor="#666666"
     borderopacity="1.0"
     id="base"
     inkscape:cx="13.357897"
     inkscape:cy="16.599282"
     inkscape:pageopacity="0.0"
     inkscape:pageshadow="2"
     inkscape:window-height="1031"
     inkscape:window-width="1914"
     inkscape:window-x="0"
     inkscape:window-y="25"
     inkscape:zoom="2.4559705"
     pagecolor="#ffffff"
     showgrid="false"
     inkscape:window-maximized="1"
     inkscape:current-layer="svg1" />
  <defs
     id="defs3" />
  <g
     transform="matrix(0.29391957,0,0,0.29391957,39.281542,-406.37484)"
     id="g4910">
    <g
       style="fill:#c8aa99;fill-opacity:1"
       transform="matrix(3.8818027,0,0,3.8203066,-5868.7137,-1027.7631)"
       id="g4731-2-8-0-6-5-9-5">
      <rect
         style="fill:#c8aa99;fill-opacity:1;stroke:none"
         id="rect8672-0-7-2-8-5-0-6-7-8-2"
         width="49.756138"
         height="47.288887"
         x="1478.9427"
         y="634.25696"
         ry="6.6438928" />
      <path
         style="fill:#c8aa99;fill-opacity:1;stroke:none"
         d="m 1490.7889,641.91531 -11.7628,13.29335 -0.033,19.31158 c -0.2054,3.7099 2.9264,7.89895 8.8682,6.96772 l 21.122,0.12211 7.852,-6.82512 -5.5371,-13.37828 z"
         id="path8893-0-6-8-0-3-0-6-7-4"
         inkscape:connector-curvature="0"
         sodipodi:nodetypes="cccccccc" />
      <g
         style="fill:#c8aa99;fill-opacity:1"
         id="g4705-2-2-3-8-9-2-1"
         transform="matrix(0.50518274,0,0,0.50518274,778.3485,376.87025)">
        <g
           style="fill:#c8aa99;fill-opacity:1"
           id="g4680-9-4-0-2-9-6-5">
          <g
             style="fill:#c8aa99;fill-opacity:1;fill-rule:evenodd"
             id="Capa_x0020_1-3-8-1-9-6-6-6"
             transform="matrix(0.22145581,0,0,0.2292037,1398.8984,523.27852)">
            <metadata
               id="CorelCorpID_0Corel-Layer-4-6-9-8-9-6-6" />
            <path
               class="fil0"
               d="m 90.727395,5.10321 89.656305,0 1.95914,98.22565 102.38286,1.61549 0,181.93783 c 0,4.61482 0.50121,6.54363 -6.71237,6.54363 l -214.617444,0 c -9.905542,0 -14.944291,0.66997 -14.944291,-9.0379 l 0,-259.441915 c 0,-16.6993952 -2.270573,-19.842985 7.317173,-19.842985 z"
               id="path10-6-1-2-7-29-3-9"
               inkscape:connector-curvature="0"
               style="fill:#c8aa99;fill-opacity:1"
               sodipodi:nodetypes="ccccssssscc" />
            <path
               class="fil1"
               d="m 181.11514,5.8507843 103.41052,99.1972757 -0.0497,-9.948156 -95.77075,-89.9957528 -8.34744,0 z"
               id="path12-2-8-7-6-8-3-1"
               inkscape:connector-curvature="0"
               style="fill:#c8aa99;fill-opacity:1"
               sodipodi:nodetypes="cccccc" />
          </g>
          <path
             style="fill:#c8aa99;fill-opacity:1;stroke:none"
             d="m 1438.6861,240.10435 0.6087,22.52322 22.5233,0.36524 z"
             id="path4678-4-9-4-3-6-0-0"
             inkscape:connector-curvature="0"
             transform="translate(0,284.36218)" />
        </g>
      </g>
    </g>
    <path
       sodipodi:nodetypes="ccccccc"
       inkscape:connector-curvature="0"
       id="path8893-0-6-5-3-2-0-4-2-7"
       d="m -85.082879,1418.7063 -42.317451,43.1588 -0.50502,85.8752 c -0.79763,13.8872 10.03118,30.8764 33.760364,28.044 l 76.721948,-0.2876 25.3034859,-22.5081 z"
       style="fill:#967f72;fill-opacity:1;stroke:none" />
    <rect
       ry="12.740221"
       y="1417.2527"
       x="-90.850281"
       height="139.99879"
       width="101.33246"
       id="rect4767"
       style="fill:#251d1c;fill-opacity:1;stroke:none" />
    <rect
       ry="1.6513754"
       y="1445.4331"
       x="-81.098877"
       height="9.6330223"
       width="81.33374"
       id="rect4867"
       style="fill:#64564c;fill-opacity:1;stroke:none" />
    <rect
       inkscape:transform-center-y="-19.988509"
       inkscape:transform-center-x="-7.6592293"
       ry="1.6513754"
       y="1468.6616"
       x="-80.986916"
       height="9.6330223"
       width="81.33374"
       id="rect4867-9"
       style="fill:#64564c;fill-opacity:1;stroke:none" />
    <rect
       ry="1.6513754"
       y="1492.1779"
       x="-80.923126"
       height="9.6330223"
       width="81.33374"
       id="rect4867-4"
       style="fill:#64564c;fill-opacity:1;stroke:none" />
    <rect
       inkscape:transform-center-y="-19.988524"
       inkscape:transform-center-x="-4.4209086"
       ry="1.6513754"
       y="1515.2413"
       x="-81.218903"
       height="9.6330223"
       width="46.945839"
       id="rect4867-9-7"
       style="fill:#64564c;fill-opacity:1;stroke:none" />
    <g
       style="fill:#897468;fill-opacity:1"
       transform="matrix(0.55494741,-0.83188543,0.83188543,0.55494741,-1288.1519,793.24299)"
       id="g4860">
      <path
         style="fill:#897468;fill-opacity:1;stroke:none"
         d="m 111.04757,1436.0509 105.08269,0.7797 c 5.46855,0.041 10.99573,0.4502 11.24771,5.8208 0.19042,4.0583 -3.43697,6.9158 -8.90627,6.9045 l -107.5891,-0.2216 c -1.7657,-0.2883 -3.40351,0.5292 -3.29319,-2.0121 0.10379,-2.3894 -0.0438,-6.055 -0.10385,-8.2774 -0.0569,-2.1146 0.59358,-2.9403 3.56201,-2.9939 z"
         id="rect3888-32-5-8"
         inkscape:connector-curvature="0"
         sodipodi:nodetypes="cssscscc" />
      <path
         style="fill:#897468;fill-opacity:1;stroke:none"
         d="m 91.509548,1440.5577 10.573292,-4.0477 c 1.98094,-0.6219 4.15506,-1.0972 4.44411,0.5461 -0.36149,3.7781 -0.19527,6.4419 -0.12329,10.7341 0.4022,2.7887 -5.26564,0.7647 -11.496358,-1.2844 -1.086691,-0.3574 -2.145066,-0.6953 -3.147382,-1.0084 z"
         id="path3899-53-3-2-7"
         inkscape:connector-curvature="0"
         sodipodi:nodetypes="ccccscc"
         inkscape:transform-center-x="13.16328"
         inkscape:transform-center-y="7.1480781" />
      <path
         style="fill:#897468;fill-opacity:1;stroke:none"
         d="m 91.043501,1445.3181 -6.784479,-2.0763 6.664368,-2.3715 z"
         id="path3899-5-1-4-0-2"
         inkscape:connector-curvature="0"
         sodipodi:nodetypes="cccc" />
    </g>
  </g>
</svg>
