<?xml version="1.0" encoding="UTF-8" standalone="no"?>
<!-- Created with Inkscape (http://www.inkscape.org/) -->

<svg
   xmlns:dc="http://purl.org/dc/elements/1.1/"
   xmlns:cc="http://creativecommons.org/ns#"
   xmlns:rdf="http://www.w3.org/1999/02/22-rdf-syntax-ns#"
   xmlns:svg="http://www.w3.org/2000/svg"
   xmlns="http://www.w3.org/2000/svg"
   xmlns:xlink="http://www.w3.org/1999/xlink"
   xmlns:sodipodi="http://sodipodi.sourceforge.net/DTD/sodipodi-0.dtd"
   xmlns:inkscape="http://www.inkscape.org/namespaces/inkscape"
   width="256"
   height="256"
   id="svg2"
   version="1.1"
   inkscape:version="0.48.3.1 r9886"
   sodipodi:docname="folder-templates.svg">
  <defs
     id="defs4">
    <linearGradient
       inkscape:collect="always"
       id="linearGradient3836">
      <stop
         style="stop-color:#4d4d4d;stop-opacity:1;"
         offset="0"
         id="stop3838" />
      <stop
         style="stop-color:#4d4d4d;stop-opacity:0;"
         offset="1"
         id="stop3840" />
    </linearGradient>
    <linearGradient
       inkscape:collect="always"
       id="linearGradient4019">
      <stop
         style="stop-color:#ffffff;stop-opacity:1;"
         offset="0"
         id="stop4021" />
      <stop
         style="stop-color:#ffffff;stop-opacity:0;"
         offset="1"
         id="stop4023" />
    </linearGradient>
    <linearGradient
       inkscape:collect="always"
       id="linearGradient3977">
      <stop
         style="stop-color:#000000;stop-opacity:1;"
         offset="0"
         id="stop3979" />
      <stop
         style="stop-color:#000000;stop-opacity:0;"
         offset="1"
         id="stop3981" />
    </linearGradient>
    <linearGradient
       id="linearGradient3864">
      <stop
         style="stop-color:#ffffff;stop-opacity:1;"
         offset="0"
         id="stop3866" />
      <stop
         style="stop-color:#d5d5d5;stop-opacity:0;"
         offset="1"
         id="stop3868" />
    </linearGradient>
    <linearGradient
       id="linearGradient3815">
      <stop
         style="stop-color:#e0f2fe;stop-opacity:1;"
         offset="0"
         id="stop3817" />
      <stop
         style="stop-color:#075e99;stop-opacity:1;"
         offset="1"
         id="stop3819" />
    </linearGradient>
    <linearGradient
       id="linearGradient3805">
      <stop
         style="stop-color:#989898;stop-opacity:1;"
         offset="0"
         id="stop3807" />
      <stop
         style="stop-color:#2a2a2a;stop-opacity:0.94968551;"
         offset="1"
         id="stop3809" />
    </linearGradient>
    <linearGradient
       id="linearGradient3909">
      <stop
         style="stop-color:#909090;stop-opacity:1;"
         offset="0"
         id="stop3911" />
      <stop
         style="stop-color:#cfcfcf;stop-opacity:1;"
         offset="1"
         id="stop3913" />
    </linearGradient>
    <linearGradient
       id="linearGradient3815-1">
      <stop
         style="stop-color:#e0f2fe;stop-opacity:1;"
         offset="0"
         id="stop3817-9" />
      <stop
         style="stop-color:#01131f;stop-opacity:1;"
         offset="1"
         id="stop3819-2" />
    </linearGradient>
    <filter
       inkscape:collect="always"
       id="filter4063"
       x="-0.24069887"
       width="1.4813977"
       y="-0.30262623"
       height="1.6052525">
      <feGaussianBlur
         inkscape:collect="always"
         stdDeviation="14.711907"
         id="feGaussianBlur4065" />
    </filter>
    <filter
       inkscape:collect="always"
       id="filter4069">
      <feGaussianBlur
         inkscape:collect="always"
         stdDeviation="2.7220785"
         id="feGaussianBlur4071" />
    </filter>
    <linearGradient
       inkscape:collect="always"
       xlink:href="#linearGradient3805"
       id="linearGradient4037"
       gradientUnits="userSpaceOnUse"
       gradientTransform="translate(-20.785215,229.28139)"
       x1="141.3316"
       y1="860.94348"
       x2="141.74571"
       y2="895.38562" />
    <linearGradient
       inkscape:collect="always"
       xlink:href="#linearGradient3815-1"
       id="linearGradient4039"
       gradientUnits="userSpaceOnUse"
       gradientTransform="matrix(0.87113587,0,0,0.99710516,-281.23574,815.68275)"
       x1="205.841"
       y1="272.6918"
       x2="195.48367"
       y2="327.96552" />
    <linearGradient
       inkscape:collect="always"
       xlink:href="#linearGradient3815"
       id="linearGradient4041"
       gradientUnits="userSpaceOnUse"
       gradientTransform="matrix(0.87018857,0,0,0.96198742,-161.42822,851.47957)"
       x1="188.3951"
       y1="277.65305"
       x2="179.10686"
       y2="341.3754" />
    <linearGradient
       inkscape:collect="always"
       xlink:href="#linearGradient3909"
       id="linearGradient4043"
       gradientUnits="userSpaceOnUse"
       gradientTransform="translate(-16.217264,228.25405)"
       x1="107.04288"
       y1="1026.5909"
       x2="113.80436"
       y2="879.61139" />
    <linearGradient
       inkscape:collect="always"
       xlink:href="#linearGradient3977"
       id="linearGradient4045"
       gradientUnits="userSpaceOnUse"
       gradientTransform="translate(-16.820569,249.10462)"
       x1="114.40766"
       y1="858.7608"
       x2="252.52723"
       y2="932.05042" />
    <linearGradient
       inkscape:collect="always"
       xlink:href="#linearGradient3864"
       id="linearGradient4047"
       gradientUnits="userSpaceOnUse"
       gradientTransform="translate(-17.035045,1027.8709)"
       x1="88.986542"
       y1="81.555557"
       x2="88.84317"
       y2="129.87335" />
    <radialGradient
       inkscape:collect="always"
       xlink:href="#linearGradient4019"
       id="radialGradient4049"
       gradientUnits="userSpaceOnUse"
       gradientTransform="matrix(0.67948535,0.00596595,-0.00506566,0.54621211,39.471564,63.274139)"
       cx="120.92171"
       cy="141.02525"
       fx="120.92171"
       fy="141.02525"
       r="127.60499" />
    <linearGradient
       inkscape:collect="always"
       xlink:href="#linearGradient3836"
       id="linearGradient3842"
       x1="118.18853"
       y1="238.43335"
       x2="92.186333"
       y2="51.805126"
       gradientUnits="userSpaceOnUse" />
  </defs>
  <sodipodi:namedview
     id="base"
     pagecolor="#ffffff"
     bordercolor="#666666"
     borderopacity="1.0"
     inkscape:pageopacity="0.0"
     inkscape:pageshadow="2"
     inkscape:zoom="1.2484714"
     inkscape:cx="-84.288508"
     inkscape:cy="112.7071"
     inkscape:document-units="px"
     inkscape:current-layer="layer1"
     showgrid="false"
     showguides="true"
     inkscape:guide-bbox="true"
     inkscape:window-width="1434"
     inkscape:window-height="850"
     inkscape:window-x="0"
     inkscape:window-y="26"
     inkscape:window-maximized="1" />
  <metadata
     id="metadata7">
    <rdf:RDF>
      <cc:Work
         rdf:about="">
        <dc:format>image/svg+xml</dc:format>
        <dc:type
           rdf:resource="http://purl.org/dc/dcmitype/StillImage" />
        <dc:title />
      </cc:Work>
    </rdf:RDF>
  </metadata>
  <g
     inkscape:label="Layer 1"
     inkscape:groupmode="layer"
     id="layer1"
     transform="translate(0,-796.3622)">
    <g
       id="g4027"
       transform="translate(19.256853,-243.54255)">
      <path
         sodipodi:nodetypes="cczzczscc"
         inkscape:connector-curvature="0"
         id="path3769"
         d="m 219.39827,1147.8258 c 0,0 -0.0195,-54.482 -0.0265,-60.1348 -0.007,-5.6527 -2.14009,-15.8354 -16.97977,-15.6991 -14.83967,0.1771 -34.99919,0.3719 -44.11972,0.3896 -9.12056,0.018 -11.50069,10.5263 -11.50069,10.5263 0,0 -112.497245,0.5313 -129.255245,0.5313 -16.7580004,0 -14.7975004,10.884 -14.4840604,35.025 0.029,2.2384 -3.49393,21.9838 5.56861,21.8032 47.4072304,-4.529 211.1737554,0.9778 210.7973754,7.5585 z"
         style="fill:url(#linearGradient4037);fill-opacity:1;stroke:none" />
      <rect
         transform="matrix(0.96934222,-0.24571459,0.24571459,0.96934222,-16.820569,249.10462)"
         y="856.7301"
         x="-57.709446"
         height="72.889137"
         width="60.473953"
         id="rect4067"
         style="opacity:0.26506025;fill:#0d0d0d;fill-opacity:1;stroke:none;filter:url(#filter4069)" />
      <rect
         transform="matrix(0.9632612,-0.26856631,0.2269135,0.97391492,0,0)"
         y="1088.5121"
         x="-263.09393"
         height="133.37636"
         width="200.95544"
         id="rect3905-1"
         style="fill:url(#linearGradient4039);fill-opacity:1;stroke:none" />
      <rect
         transform="matrix(0.9855233,-0.16954003,0.13803994,0.99042666,0,0)"
         y="1114.7"
         x="-143.30617"
         height="128.67888"
         width="200.73692"
         id="rect3905"
         style="fill:url(#linearGradient4041);fill-opacity:1;stroke:none" />
      <path
         sodipodi:nodetypes="ccsssssszcc"
         inkscape:connector-curvature="0"
         id="rect2995-2"
         d="m 150.34903,1131.9986 c 29.09008,0 22.96757,-0.801 53.95009,-0.801 17.36451,0 32.12293,13.9582 31.38071,31.3061 l -3.35398,78.392 c -0.74222,17.3478 -6.11869,18.1652 -23.48317,18.1844 l -192.001173,0.2125 c -17.3644834,0.019 -23.2783594,-2.7357 -23.7714154,-20.0923 l -3.1678156,-111.5144 c -0.493058,-17.3568 1.7235218,-22.5639 20.660782,-22.6772 18.93726,-0.1771 79.863073,0.06 104.053032,-0.1667 24.18996,-0.2265 35.70565,3.9506 35.73294,27.1566 z"
         style="fill:url(#linearGradient4043);fill-opacity:1;stroke:url(#linearGradient4045)" />
      <path
         sodipodi:nodetypes="cscscsscccccccc"
         inkscape:connector-curvature="0"
         id="path3769-8"
         d="m 201.84289,1071.8971 c -14.83967,0.177 -35.00447,0.3885 -44.125,0.4062 -9.12056,0.018 -11.5,10.5313 -11.5,10.5313 0,0 -112.491996,0.5312 -129.249996,0.5312 -13.1440804,0 -14.7789104,6.7133 -14.7187504,21.25 -14.7451696,1.3384 -13.8720656,12.3156 -13.5040996,27.9646 l 2.3187643,98.6134 c 0.4081716,17.3589 0.4174471,27.9362 18.3483053,28.1974 l 208.2731764,0.6309 c 17.36447,-0.022 14.56415,-14.7315 15.45391,-30.8086 l 3.08622,-66.3516 c 1.35661,-10.1259 -6.59189,-24.2706 -17.38253,-30.0036 -0.004,-12.0891 -0.0253,-40.4565 -0.0313,-45.2425 -0.007,-5.6527 -2.12907,-15.8551 -16.96875,-15.7187 z"
         style="fill:none;stroke:#000000;stroke-width:3;stroke-miterlimit:4;stroke-opacity:1;stroke-dasharray:none" />
      <path
         sodipodi:nodetypes="csscscsc"
         inkscape:connector-curvature="0"
         id="path3854"
         d="m -4.5546024,1212.5904 c 0,0 -3.0479033,-88.143 -1.931649,-94.7391 0.995518,-5.8826 3.256672,-10.124 14.230247,-10.0532 3.9746644,0.026 113.9127744,0.6372 113.9127744,0.6372 0,0 17.77658,-1.2652 22.51355,8.708 4.07469,8.5789 2.33631,17.841 2.33631,17.841 0,0 53.94749,-1.2036 59.04489,-0.6372 5.0974,0.5664 17.41614,3.1151 24.21267,14.0178"
         style="fill:none;stroke:url(#linearGradient4047);stroke-width:5;stroke-linecap:butt;stroke-linejoin:miter;stroke-miterlimit:4;stroke-opacity:1;stroke-dasharray:none" />
      <path
         sodipodi:open="true"
         sodipodi:end="5.8359757"
         sodipodi:start="0"
         transform="matrix(1.4119049,0,0,1.0506194,-56.449671,1043.144)"
         d="m 194.26766,141.02525 c 0,32.21861 -32.8381,58.33694 -73.34595,58.33694 -40.507855,0 -73.345958,-26.11833 -73.345958,-58.33694 0,-32.2186 32.838103,-58.336937 73.345958,-58.336937 28.21623,0 53.93077,12.873837 66.13291,33.109057"
         sodipodi:ry="58.336941"
         sodipodi:rx="73.345955"
         sodipodi:cy="141.02525"
         sodipodi:cx="120.92171"
         id="path3985"
         style="opacity:0.26506025;fill:url(#radialGradient4049);fill-opacity:1;stroke:none;filter:url(#filter4063)"
         sodipodi:type="arc" />
    </g>
    <path
       style="fill:url(#linearGradient3842);fill-opacity:1;stroke:none"
       d="M 50.90625 83.3125 L 50.90625 206.125 L 144.25 206.125 L 144.25 101.125 C 138.12828 95.94435 129.15771 91.51469 118.59375 83.3125 L 50.90625 83.3125 z M 118.9375 87 L 142.1875 102.625 L 119.34375 110.625 L 118.9375 87 z M 83.78125 99.28125 L 106.46875 116.0625 L 97.53125 142.84375 L 69.28125 142.59375 L 60.78125 115.65625 L 83.78125 99.28125 z M 124.5 150.5625 L 124.3125 165.4375 L 138.4375 170.09375 L 125.46875 177.375 L 128.46875 191.96875 L 115.6875 184.375 L 104.5625 194.25 L 104.75 179.40625 L 90.625 174.71875 L 103.59375 167.40625 L 100.59375 152.84375 L 113.40625 160.46875 L 124.5 150.5625 z M 72.1875 156.78125 C 72.407096 156.77325 72.630457 156.77625 72.84375 156.78125 C 79.24257 156.93289 84.64258 161.84093 85.28125 168.34375 L 85.28125 168.625 C 85.819097 175.68337 80.55837 181.83714 73.5 182.375 C 66.441637 182.91279 60.256596 177.65211 59.71875 170.59375 C 59.180896 163.53538 64.47288 157.35034 71.53125 156.8125 C 71.748421 156.7959 71.967904 156.78895 72.1875 156.78125 z M 71.1875 185.6875 C 74.816813 185.7735 77.856509 188.5304 78.21875 192.21875 L 78.21875 192.40625 C 78.523808 196.4096 75.534646 199.88243 71.53125 200.1875 C 67.52786 200.49257 64.055058 197.50335 63.75 193.5 C 63.444936 189.49658 66.434104 186.02382 70.4375 185.71875 C 70.683854 185.69985 70.945544 185.6814 71.1875 185.6875 z "
       transform="translate(0,796.3622)"
       id="rect3051" />
  </g>
</svg>
