<?xml version="1.0" encoding="UTF-8" standalone="no"?>
 

<svg
   xmlns:dc="http://purl.org/dc/elements/1.1/"
   xmlns:cc="http://creativecommons.org/ns#"
   xmlns:rdf="http://www.w3.org/1999/02/22-rdf-syntax-ns#"
   xmlns:svg="http://www.w3.org/2000/svg"
   xmlns="http://www.w3.org/2000/svg"
   xmlns:xlink="http://www.w3.org/1999/xlink"
   xmlns:sodipodi="http://sodipodi.sourceforge.net/DTD/sodipodi-0.dtd"
   xmlns:inkscape="http://www.inkscape.org/namespaces/inkscape"
   xml:space="preserve"
   width="16"
   height="16"
   style="fill-rule:evenodd"
   viewBox="0 0 4.5155556 4.5155557"
   id="svg2"
   version="1.1"
   inkscape:version="0.48.3.1 r9886"
   sodipodi:docname="start-here.svg"><metadata
   id="metadata336"><rdf:RDF><cc:Work
       rdf:about=""><dc:format>image/svg+xml</dc:format><dc:type
         rdf:resource="http://purl.org/dc/dcmitype/StillImage" /><dc:title></dc:title></cc:Work></rdf:RDF></metadata><sodipodi:namedview
   pagecolor="#ffffff"
   bordercolor="#666666"
   borderopacity="1"
   objecttolerance="10"
   gridtolerance="10"
   guidetolerance="10"
   inkscape:pageopacity="0"
   inkscape:pageshadow="2"
   inkscape:window-width="1914"
   inkscape:window-height="1030"
   id="namedview334"
   showgrid="true"
   inkscape:zoom="19.601757"
   inkscape:cx="23.501901"
   inkscape:cy="10.119152"
   inkscape:window-x="0"
   inkscape:window-y="26"
   inkscape:window-maximized="1"
   inkscape:current-layer="svg2"
   inkscape:snap-global="false"
   fit-margin-top="0"
   fit-margin-left="0"
   fit-margin-right="0"
   fit-margin-bottom="0"><inkscape:grid
     type="xygrid"
     id="grid2992"
     empspacing="5"
     visible="true"
     enabled="true"
     snapvisiblegridlinesonly="true"
     originx="0.054872675px"
     originy="0.13902648px" /></sodipodi:namedview>
 <defs
   id="defs4"><linearGradient
     id="linearGradient3836"><stop
       id="stop3838"
       offset="0"
       style="stop-color:#000000;stop-opacity:1;" /><stop
       style="stop-color:#5d5d5d;stop-opacity:1;"
       offset="0.61839557"
       id="stop3842" /><stop
       id="stop3840"
       offset="1"
       style="stop-color:#ffffff;stop-opacity:1;" /></linearGradient><linearGradient
     id="linearGradient3826"><stop
       id="stop3828"
       offset="0"
       style="stop-color:#b8b8b8;stop-opacity:1;" /><stop
       style="stop-color:#dcdcdc;stop-opacity:1;"
       offset="0.06756218"
       id="stop3830" /><stop
       style="stop-color:#f4f4f4;stop-opacity:1;"
       offset="0.26964229"
       id="stop3832" /><stop
       id="stop3834"
       offset="1"
       style="stop-color:#f9f9f9;stop-opacity:1" /></linearGradient><linearGradient
     id="linearGradient3789"><stop
       style="stop-color:#dddddd;stop-opacity:1;"
       offset="0"
       id="stop3791" /><stop
       id="stop3816"
       offset="0.06756218"
       style="stop-color:#dadada;stop-opacity:1;" /><stop
       id="stop3814"
       offset="0.67863703"
       style="stop-color:#efefef;stop-opacity:1;" /><stop
       style="stop-color:#f4f4f4;stop-opacity:1;"
       offset="1"
       id="stop3793" /></linearGradient><linearGradient
     id="linearGradient3829"><stop
       style="stop-color:#000000;stop-opacity:1;"
       offset="0"
       id="stop3831" /><stop
       style="stop-color:#ffffff;stop-opacity:1;"
       offset="1"
       id="stop3833" /></linearGradient><linearGradient
     id="linearGradient3821"><stop
       style="stop-color:#0f6881;stop-opacity:1;"
       offset="0"
       id="stop3823" /><stop
       style="stop-color:#82e5ff;stop-opacity:0.8427673;"
       offset="1"
       id="stop3825" /></linearGradient><linearGradient
     id="linearGradient3811"><stop
       id="stop3813"
       offset="0"
       style="stop-color:#f9fdff;stop-opacity:0.55974841;" /><stop
       id="stop3815"
       offset="1"
       style="stop-color:#05a1ec;stop-opacity:0.62893081;" /></linearGradient><linearGradient
     id="linearGradient3767"><stop
       style="stop-color:#ffffff;stop-opacity:1;"
       offset="0"
       id="stop3769" /><stop
       id="stop3779"
       offset="0.5"
       style="stop-color:#d9f1ff;stop-opacity:1;" /><stop
       style="stop-color:#39b8fe;stop-opacity:1;"
       offset="1"
       id="stop3771" /></linearGradient><style
     type="text/css"
     id="style6">
   
    .fil0 {fill:#99AE6A}
    .fil4 {fill:#73A848}
    .fil8 {fill:#6F448A;fill-rule:nonzero}
    .fil1 {fill:#99AE6A;fill-rule:nonzero}
    .fil3 {fill:#ABA0C0;fill-rule:nonzero}
    .fil2 {fill:#BA8FBA;fill-rule:nonzero}
    .fil5 {fill:#73A848;fill-rule:nonzero}
    .fil6 {fill:#98227A;fill-rule:nonzero}
    .fil9 {fill:#B299BF;fill-rule:nonzero}
    .fil7 {fill:#D189B2;fill-rule:nonzero}
   
  </style><radialGradient
     inkscape:collect="always"
     xlink:href="#linearGradient3767-6"
     id="radialGradient3773-8"
     cx="2.2768211"
     cy="2.2575345"
     fx="2.2768211"
     fy="2.2575345"
     r="2.1157179"
     gradientTransform="matrix(1.6252903,-0.05050598,0.04763614,1.5329383,-1.5312143,-1.0881335)"
     gradientUnits="userSpaceOnUse" /><linearGradient
     id="linearGradient3767-6"><stop
       style="stop-color:#f0fafe;stop-opacity:1;"
       offset="0"
       id="stop3769-2" /><stop
       style="stop-color:#27a0d9;stop-opacity:1;"
       offset="1"
       id="stop3771-1" /></linearGradient><linearGradient
     inkscape:collect="always"
     xlink:href="#linearGradient3836"
     id="linearGradient3835"
     x1="1.1116799"
     y1="0.15302147"
     x2="1.932355"
     y2="4.3859754"
     gradientUnits="userSpaceOnUse"
     gradientTransform="translate(0.02372979,0.00127502)" /><linearGradient
     inkscape:collect="always"
     xlink:href="#linearGradient3789"
     id="linearGradient3795"
     x1="8.6386471"
     y1="4.5066228"
     x2="8.6386471"
     y2="-2.4188545"
     gradientUnits="userSpaceOnUse"
     gradientTransform="matrix(0.36599664,0,0,1.0939636,4.6960518,-0.40683788)" /><filter
     inkscape:collect="always"
     id="filter3805"
     x="-0.15579811"
     width="1.3115962"
     y="-0.93722296"
     height="2.8744459"
     color-interpolation-filters="sRGB"><feGaussianBlur
       inkscape:collect="always"
       stdDeviation="1.275019"
       id="feGaussianBlur3807" /></filter><linearGradient
     inkscape:collect="always"
     xlink:href="#linearGradient3826"
     id="linearGradient3824"
     x1="-5.0906515"
     y1="6.9889865"
     x2="-5.0535569"
     y2="2.8712151"
     gradientUnits="userSpaceOnUse"
     gradientTransform="translate(7.0467363,-2.6017362)" /></defs>
 
<path
   style="fill:#cccccc;fill-opacity:1;fill-rule:evenodd"
   d="M 2.523882,0.51320272 C 2.504696,0.52389372 2.482068,0.57349872 2.453326,0.68077222 2.377492,0.963808 2.2345659,1.6747359 1.9682565,2.2153556 c -0.031776,-0.00133 -0.064813,-0.00251 -0.097014,0 -0.0087,6.773e-4 -0.017731,-9.511e-4 -0.026458,0 C 1.8040727,1.7376804 1.7138366,1.0202573 1.6772153,0.78660552 1.6434193,0.57097392 1.5629819,0.45787202 1.5713819,0.73368882 1.5797419,1.0081541 1.5653019,1.7336172 1.5625619,2.30355 1.4944469,2.335719 1.4271837,2.384194 1.3597146,2.4358417 1.1926303,2.0812752 0.90711799,1.5828522 0.78645129,1.4127861 0.66014869,1.2347778 0.56924419,1.1477868 0.67179849,1.4039666 c 0.102007,0.2548133 0.2838313,0.7010762 0.47625011,1.2347223 -0.038617,0.04458 -0.076463,0.098319 -0.1146528,0.1499306 -0.17323501,-0.136856 -0.33784941,-0.2309166 -0.45861121,-0.3175 -0.1751737,-0.1255956 -0.2917815,-0.1865619 -0.1234722,0.00882 0.126232,0.1465361 0.2288158,0.2994525 0.4409722,0.5203473 0.070719,0.073632 0.15412171,0.1561927 0.25576401,0.2469444 l 0.044097,-0.088194 c 0.01855,-0.039019 0.03236,-0.080863 0.052917,-0.1146528 C 1.7532502,2.2090572 2.8379971,2.9392215 2.3915903,3.6529256 L 2.7267292,3.7763978 C 3.0596834,3.9091605 3.431237,4.027822 3.7850624,4.1115367 3.946241,4.1331357 4.0612242,4.1317977 3.8027014,4.0145227 3.5520053,3.9007977 3.3211046,3.7722034 2.8590209,3.5294528 2.8741059,3.4794538 2.8786209,3.4296558 2.8854789,3.3795222 3.3429833,3.3094722 3.8763083,3.1440188 4.0496455,3.0708417 4.2508677,2.9858937 4.393373,2.8382549 4.0320065,2.9209112 3.7378756,2.9881882 3.334418,3.050918 2.8854788,3.0708417 2.8748528,3.0096017 2.8623788,2.9523118 2.8413818,2.8944528 3.3178541,2.6916492 3.8967034,2.3229404 4.0672845,2.1888972 4.2043824,2.0811672 4.292232,1.9554541 4.1819372,1.9772306 c -0.036765,0.00726 -0.08929,0.03162 -0.1763888,0.079375 C 3.6841932,2.2327978 3.2185056,2.4406109 2.6826318,2.6122306 2.6637488,2.5871176 2.6417578,2.5649976 2.6208958,2.5416746 3.0022277,2.2156575 3.4484187,1.6996648 3.6351319,1.3334107 3.7011249,1.2039595 3.7315459,1.0731076 3.6968679,1.0688273 3.6760629,1.0662573 3.6288339,1.1038853 3.5469373,1.2275773 3.3414437,1.5379442 2.8445389,1.9763215 2.3651318,2.330008 2.3283428,2.309267 2.2899568,2.292796 2.2504791,2.277091 2.4999132,1.8143634 2.5749645,0.9566551 2.5767985,0.73368812 2.5779885,0.58839102 2.5558595,0.49538402 2.5238815,0.51320202 z M 1.8183264,3.0355639 C 1.6386976,3.0492519 1.495958,3.2087129 1.5096458,3.3883417 1.5233338,3.5679705 1.6827948,3.7018906 1.8624236,3.6882028 2.0420524,3.6745148 2.1759725,3.5150538 2.1622847,3.335425 l 0,-0.00882 C 2.1449475,3.150082 1.9951865,3.0220869 1.8183264,3.0355639 z"
   id="_121731384-2"
   inkscape:connector-curvature="0"
   sodipodi:nodetypes="sscscssccssccsssccscccsccssccsssccsssccsssssccs" /><path
   style="fill:#b3b3b3;fill-opacity:1;fill-rule:evenodd"
   d="m 2.3943018,0.49160612 c -0.019186,0.010691 -0.041814,0.060296 -0.070556,0.1675694 C 2.2479118,0.9422113 2.1049857,1.6531391 1.8386763,2.1937588 c -0.031776,-0.00133 -0.064813,-0.00251 -0.097014,0 -0.0087,6.774e-4 -0.017731,-9.511e-4 -0.026458,0 C 1.6744923,1.7160836 1.5842564,0.9986605 1.5476351,0.76500882 1.5138391,0.54937722 1.4334017,0.43627532 1.4418017,0.71209182 1.4501617,0.986557 1.4357217,1.71202 1.4329817,2.2819528 1.3648667,2.3141218 1.2976035,2.3625968 1.2301344,2.4142445 1.0630501,2.0596784 0.77753769,1.5612554 0.65687109,1.3911893 0.53056839,1.213181 0.43966399,1.12619 0.54221829,1.3823698 c 0.102007,0.2548133 0.2838313,0.7010762 0.47625011,1.2347223 -0.038617,0.044581 -0.076464,0.098319 -0.11465291,0.1499306 -0.1732349,-0.136856 -0.3378493,-0.2309166 -0.4586111,-0.3175 -0.1751737,-0.1255956 -0.2917816,-0.1865619 -0.1234722,0.00882 0.126232,0.1465361 0.2288158,0.2994525 0.4409722,0.5203473 0.070719,0.073631 0.1541216,0.1561927 0.25576401,0.2469444 l 0.044097,-0.088194 c 0.01855,-0.039019 0.03236,-0.080863 0.052917,-0.1146528 C 1.62367,2.1874598 2.7084169,2.9176241 2.2620101,3.6313282 L 2.597149,3.7548004 C 2.9301032,3.8875631 3.3016568,4.0062246 3.6554822,4.0899393 3.8166608,4.1115383 3.931644,4.1102003 3.6731212,3.9929253 3.4224251,3.8792009 3.1915244,3.7506066 2.7294407,3.507856 2.7445257,3.457857 2.7490407,3.408059 2.7558987,3.3579254 3.2134031,3.2878754 3.7467281,3.122422 3.9200653,3.0492449 4.1212875,2.9642969 4.2637928,2.8166581 3.9024263,2.8993144 3.6082954,2.9665914 3.2048379,3.0293212 2.7558986,3.0492449 2.7452726,2.9880049 2.7327986,2.930715 2.7118016,2.872856 3.1882739,2.6700524 3.7671233,2.3013436 3.9377043,2.1673004 4.0748022,2.0595704 4.1626518,1.9338573 4.0523571,1.9556338 c -0.036765,0.00726 -0.08929,0.03162 -0.1763889,0.079375 C 3.554613,2.211201 3.0889254,2.4190141 2.5530516,2.5906338 2.5341686,2.5655208 2.5121776,2.5434008 2.4913156,2.5200778 2.8726475,2.1940607 3.3188385,1.678068 3.5055517,1.3118139 3.5715447,1.1823627 3.6019657,1.0515108 3.5672877,1.0472305 3.5464827,1.0446605 3.4992537,1.0822885 3.4173571,1.2059806 3.2118635,1.5163474 2.7149587,1.9547247 2.2355516,2.3084112 2.1987626,2.2876702 2.1603766,2.2711992 2.1208989,2.2554942 2.370333,1.7927666 2.4453843,0.9350584 2.4472183,0.71209152 2.4484083,0.56679432 2.4262793,0.47378742 2.3943013,0.49160542 z M 1.6887462,3.0139671 C 1.5091174,3.0276551 1.3663778,3.1871161 1.3800656,3.3667449 1.3937536,3.5463737 1.5532146,3.6802938 1.7328434,3.666606 1.9124722,3.652918 2.0463923,3.493457 2.0327045,3.3138282 l 0,-0.00882 C 2.0153673,3.1284852 1.8656063,3.0004901 1.6887462,3.0139671 z"
   id="_121731384-2-1"
   inkscape:connector-curvature="0"
   sodipodi:nodetypes="sscscssccssccsssccscccsccssccsssccsssccsssssccs" /><rect
   style="opacity:0.9;fill:url(#linearGradient3824);fill-opacity:1;fill-rule:evenodd;stroke:url(#linearGradient3835);stroke-width:0.04035778;stroke-miterlimit:4;stroke-opacity:1;stroke-dasharray:none"
   id="rect3765-5"
   width="4.2314358"
   height="4.067699"
   x="0.1756659"
   y="0.22252619"
   rx="0.40768653"
   ry="0.40036443" /><path
   style="fill:#333333;fill-opacity:1"
   d="m 2.4537979,0.50342442 c -0.019186,0.010691 -0.041814,0.060296 -0.070556,0.1675696 C 2.3074079,0.9540298 2.1644818,1.6649575 1.8981724,2.2055772 c -0.031776,-0.00133 -0.064813,-0.00251 -0.097014,0 -0.0087,6.773e-4 -0.017731,-9.511e-4 -0.026458,0 C 1.7339887,1.727902 1.6437526,1.0104789 1.6071313,0.77682732 1.5733353,0.56119572 1.4928979,0.44809382 1.5012979,0.72391052 1.5096579,0.9983758 1.4952179,1.7238389 1.4924779,2.2937716 1.4243629,2.3259406 1.3570997,2.3744156 1.2896306,2.4260633 1.1225463,2.0714968 0.83703389,1.5730738 0.71636729,1.4030077 0.59006469,1.2249994 0.49916019,1.1380085 0.60171449,1.3941883 c 0.102007,0.2548132 0.2838313,0.7010761 0.47625011,1.2347222 -0.038617,0.04458 -0.076463,0.098319 -0.11465291,0.1499306 -0.1732349,-0.136856 -0.3378493,-0.2309166 -0.4586111,-0.3175 -0.1751737,-0.1255956 -0.2917815,-0.1865619 -0.1234722,0.00882 0.126232,0.1465362 0.2288158,0.2994525 0.4409722,0.5203473 0.070719,0.073631 0.1541217,0.1561928 0.25576401,0.2469444 l 0.044097,-0.088194 c 0.01855,-0.039019 0.03236,-0.080863 0.052917,-0.1146528 0.5081876,-0.8353278 1.5929345,-0.1051635 1.1465277,0.6085407 l 0.3351389,0.1234722 c 0.3329542,0.1327627 0.7045079,0.2514242 1.0583333,0.3351389 0.1611786,0.021598 0.2761618,0.020261 0.017639,-0.097014 C 3.4819214,3.8910193 3.2510207,3.7624251 2.7889368,3.5196744 2.8040218,3.4696764 2.8085368,3.4198774 2.8153948,3.3697439 3.2728993,3.2996939 3.8062242,3.1342404 3.9795615,3.0610633 4.180784,2.9761153 4.323289,2.8284765 3.9619225,2.9111328 3.6677916,2.9784098 3.264334,3.0411396 2.8153947,3.0610633 2.8047687,2.9998233 2.7922947,2.9425334 2.7712977,2.8846744 3.2477701,2.6818708 3.8266194,2.313162 3.9972005,2.1791189 4.1342984,2.0713888 4.2221481,1.9456757 4.1118532,1.9674522 c -0.036765,0.00726 -0.08929,0.03162 -0.1763888,0.079375 C 3.6141092,2.2230194 3.1484216,2.4308325 2.6125476,2.6024522 2.5936646,2.5773392 2.5716736,2.5552192 2.5508116,2.5318962 2.9321435,2.2058791 3.3783346,1.6898864 3.5650478,1.3236323 3.6310408,1.1941812 3.6614618,1.0633292 3.6267838,1.059049 3.6059768,1.056479 3.5587498,1.094107 3.4768532,1.217799 3.2713596,1.5281659 2.7744546,1.9665431 2.2950476,2.3202296 2.2582586,2.2994886 2.2198726,2.2830186 2.1803949,2.2673126 2.429829,1.804585 2.5048803,0.9468768 2.5067143,0.72390982 c 0.00119,-0.145297 -0.020939,-0.238304 -0.052917,-0.2204861 z M 1.7482424,3.0257855 C 1.5686136,3.0394735 1.425874,3.1989345 1.4395618,3.3785633 1.4532498,3.5581921 1.6127108,3.6921122 1.7923396,3.6784244 1.9719684,3.6647364 2.1058885,3.5052755 2.0922007,3.3256467 l 0,-0.00882 C 2.0748635,3.1403037 1.9251025,3.0123086 1.7482424,3.0257855 z"
   id="_121731384"
   inkscape:connector-curvature="0"
   sodipodi:nodetypes="sscscssccssccsssccscccsccssccsssccsssccsssssccs" /><rect
   style="opacity:0.63999999;fill:none;stroke:none"
   id="rect2986"
   width="4.1177716"
   height="4.0601807"
   x="0.17386203"
   y="0.1569785"
   ry="0.46060488" /><rect
   style="opacity:0.63999999;fill:none;stroke:none"
   id="rect2991"
   width="3.369086"
   height="3.1819146"
   x="7.8478913"
   y="1.2512115"
   ry="0.12999293"
   rx="0.66229898" /><rect
   style="fill:url(#linearGradient3795);fill-opacity:1;stroke:none"
   id="rect3779"
   width="1.6984963"
   height="7.6637077"
   x="6.9690108"
   y="-3.1202731"
   rx="0"
   ry="0"
   inkscape:export-xdpi="82.073402"
   inkscape:export-ydpi="82.073402"
   inkscape:export-filename="/home/alumno/.themes/HuayraLimbo-dev/gtk-2.0/imagenes/panel_bg.png" /><rect
   style="opacity:0.3052209;fill:#ffffff;fill-opacity:1;stroke:none;filter:url(#filter3805)"
   id="rect3797"
   width="19.641096"
   height="3.2650135"
   x="20.508366"
   y="-3.488049"
   transform="matrix(0.28222223,0,0,0.88426637,-14.267134,1.4484833)" /><path
   style="fill:#ffffff;fill-opacity:1;stroke:#f8f8f8;stroke-width:0.30603519px;stroke-linecap:butt;stroke-linejoin:miter;stroke-opacity:1"
   d="m 6.9444772,-3.0051115 c 1.7293147,0 1.7349112,0 1.7349112,0"
   id="path3803"
   inkscape:connector-curvature="0" /></svg>