<?xml version="1.0" encoding="UTF-8" standalone="no"?>
<!-- Created with Inkscape (http://www.inkscape.org/) -->

<svg
   xmlns:dc="http://purl.org/dc/elements/1.1/"
   xmlns:cc="http://creativecommons.org/ns#"
   xmlns:rdf="http://www.w3.org/1999/02/22-rdf-syntax-ns#"
   xmlns:svg="http://www.w3.org/2000/svg"
   xmlns="http://www.w3.org/2000/svg"
   xmlns:sodipodi="http://sodipodi.sourceforge.net/DTD/sodipodi-0.dtd"
   xmlns:inkscape="http://www.inkscape.org/namespaces/inkscape"
   width="256"
   height="256"
   id="svg2"
   version="1.1"
   inkscape:version="0.48.3.1 r9886"
   sodipodi:docname="zoom-in.svg">
  <defs
     id="defs4" />
  <sodipodi:namedview
     id="base"
     pagecolor="#ffffff"
     bordercolor="#666666"
     borderopacity="1.0"
     inkscape:pageopacity="0.0"
     inkscape:pageshadow="2"
     inkscape:zoom="2.5686441"
     inkscape:cx="74.272517"
     inkscape:cy="111.42857"
     inkscape:document-units="px"
     inkscape:current-layer="layer1"
     showgrid="false"
     inkscape:window-width="1914"
     inkscape:window-height="1031"
     inkscape:window-x="0"
     inkscape:window-y="25"
     inkscape:window-maximized="1" />
  <metadata
     id="metadata7">
    <rdf:RDF>
      <cc:Work
         rdf:about="">
        <dc:format>image/svg+xml</dc:format>
        <dc:type
           rdf:resource="http://purl.org/dc/dcmitype/StillImage" />
        <dc:title></dc:title>
      </cc:Work>
    </rdf:RDF>
  </metadata>
  <g
     inkscape:label="Capa 1"
     inkscape:groupmode="layer"
     id="layer1"
     transform="translate(0,-796.36218)">
    <g
       inkscape:label="status"
       id="layer9"
       style="fill:#4ecae9;fill-opacity:1;display:inline"
       transform="matrix(21.341471,0,0,21.341471,-3905.6538,-13481.019)" />
    <g
       style="fill:#4ecae9;fill-opacity:1"
       inkscape:label="devices"
       id="layer10"
       transform="matrix(21.341471,0,0,21.341471,-3905.6538,-13481.019)" />
    <g
       style="fill:#4ecae9;fill-opacity:1"
       inkscape:label="apps"
       id="layer11"
       transform="matrix(21.341471,0,0,21.341471,-3905.6538,-13481.019)" />
    <g
       style="fill:#4ecae9;fill-opacity:1"
       inkscape:label="places"
       id="layer13"
       transform="matrix(21.341471,0,0,21.341471,-3905.6538,-13481.019)" />
    <g
       style="fill:#4ecae9;fill-opacity:1"
       inkscape:label="mimetypes"
       id="layer14"
       transform="matrix(21.341471,0,0,21.341471,-3905.6538,-13481.019)" />
    <g
       inkscape:label="emblems"
       id="layer15"
       style="fill:#4ecae9;fill-opacity:1;display:inline"
       transform="matrix(21.341471,0,0,21.341471,-3905.6538,-13481.019)" />
    <g
       inkscape:label="emotes"
       id="g71291"
       style="fill:#4ecae9;fill-opacity:1;display:inline"
       transform="matrix(21.341471,0,0,21.341471,-3905.6538,-13481.019)" />
    <g
       inkscape:label="categories"
       id="g4953"
       style="fill:#4ecae9;fill-opacity:1;display:inline"
       transform="matrix(21.341471,0,0,21.341471,-3905.6538,-13481.019)" />
    <path
       inkscape:connector-curvature="0"
       style="color:#bebebe;fill:#4ecae9;fill-opacity:1;stroke:none;stroke-width:2;marker:none;visibility:visible;display:inline;overflow:visible"
       id="rect11749-5-0-1-8"
       d="m 25.182658,796.4251 c -14.142993,0 -25.34299671,11.71625 -25.34299671,26.00992 l 0,204.07778 c 0,14.2937 11.20000371,26.01 25.34299671,26.01 l 205.411662,0 c 14.14299,0 25.34299,-11.7163 25.34299,-26.01 l 0,-204.07778 c 0,-14.29367 -11.2,-26.00992 -25.34299,-26.00992 z m 124.047302,106.70735 58.25536,0 0,42.68295 -58.25536,0 -42.68294,0 -54.75157,0 0,-42.68295 54.75157,0 z"
       sodipodi:nodetypes="sssssssssccccccccc" />
  </g>
</svg>
