<?xml version="1.0" encoding="UTF-8" standalone="no"?>
<!-- Created with Inkscape (http://www.inkscape.org/) -->

<svg
   xmlns:dc="http://purl.org/dc/elements/1.1/"
   xmlns:cc="http://creativecommons.org/ns#"
   xmlns:rdf="http://www.w3.org/1999/02/22-rdf-syntax-ns#"
   xmlns:svg="http://www.w3.org/2000/svg"
   xmlns="http://www.w3.org/2000/svg"
   xmlns:xlink="http://www.w3.org/1999/xlink"
   xmlns:sodipodi="http://sodipodi.sourceforge.net/DTD/sodipodi-0.dtd"
   xmlns:inkscape="http://www.inkscape.org/namespaces/inkscape"
   height="60.0000000"
   id="svg1"
   inkscape:version="0.48.3.1 r9886"
   sodipodi:docname="applications-sports.svg"
   sodipodi:version="0.32"
   version="1.0"
   width="60.0000000"
   x="0"
   y="0">
  <metadata
     id="metadata3">
    <rdf:RDF>
      <cc:Work
         rdf:about="">
        <dc:title />
        <dc:description />
        <dc:subject>
          <rdf:Bag>
            <rdf:li>hash</rdf:li>
            <rdf:li />
            <rdf:li>application</rdf:li>
            <rdf:li>computer</rdf:li>
            <rdf:li>icons</rdf:li>
            <rdf:li>theme</rdf:li>
          </rdf:Bag>
        </dc:subject>
        <dc:publisher>
          <cc:Agent
             rdf:about="http://www.openclipart.org">
            <dc:title>Danny Allen</dc:title>
          </cc:Agent>
        </dc:publisher>
        <dc:creator>
          <cc:Agent>
            <dc:title>Danny Allen</dc:title>
          </cc:Agent>
        </dc:creator>
        <dc:rights>
          <cc:Agent>
            <dc:title>Danny Allen</dc:title>
          </cc:Agent>
        </dc:rights>
        <dc:date />
        <dc:format>image/svg+xml</dc:format>
        <dc:type
           rdf:resource="http://purl.org/dc/dcmitype/StillImage" />
        <cc:license
           rdf:resource="http://web.resource.org/cc/PublicDomain" />
        <dc:language>en</dc:language>
      </cc:Work>
      <cc:License
         rdf:about="http://web.resource.org/cc/PublicDomain">
        <cc:permits
           rdf:resource="http://web.resource.org/cc/Reproduction" />
        <cc:permits
           rdf:resource="http://web.resource.org/cc/Distribution" />
        <cc:permits
           rdf:resource="http://web.resource.org/cc/DerivativeWorks" />
      </cc:License>
    </rdf:RDF>
  </metadata>
  <sodipodi:namedview
     bordercolor="#666666"
     borderopacity="1.0"
     id="base"
     inkscape:cx="76.600682"
     inkscape:cy="36.142258"
     inkscape:pageopacity="0.0"
     inkscape:pageshadow="2"
     inkscape:window-height="1007"
     inkscape:window-width="1918"
     inkscape:window-x="0"
     inkscape:window-y="25"
     inkscape:zoom="2.4559706"
     pagecolor="#ffffff"
     showgrid="false"
     inkscape:window-maximized="1"
     inkscape:current-layer="svg1" />
  <defs
     id="defs3">
    <radialGradient
       xlink:href="#linearGradient684"
       id="radialGradient687" />
    <radialGradient
       xlink:href="#linearGradient684"
       r="72.500228"
       id="radialGradient683"
       fy="128.83251"
       fx="494.38647"
       cy="128.83251"
       cx="494.38647"
       gradientTransform="scale(1.9124502,0.52288942)"
       gradientUnits="userSpaceOnUse" />
    <radialGradient
       xlink:href="#linearGradient649"
       r="82.692695"
       id="radialGradient877"
       fy="353.91175"
       fx="248.86224"
       cy="353.91175"
       cx="248.86224"
       gradientTransform="scale(0.55185791,1.8120606)"
       gradientUnits="userSpaceOnUse" />
    <radialGradient
       xlink:href="#linearGradient649"
       r="84.825464"
       id="radialGradient875"
       fy="873.31403"
       fx="636.95266"
       cy="873.31403"
       cx="636.95266"
       gradientTransform="scale(0.92865692,1.0768239)"
       gradientUnits="userSpaceOnUse" />
    <radialGradient
       xlink:href="#linearGradient649"
       r="25.949151"
       id="radialGradient654"
       gradientTransform="scale(3.0056876,0.33270258)"
       fy="2006.779"
       fx="77.703496"
       cy="2006.779"
       cx="77.703496"
       gradientUnits="userSpaceOnUse" />
    <radialGradient
       xlink:href="#linearGradient649"
       r="129.41486"
       id="radialGradient653"
       fy="622.33317"
       fx="314.36708"
       cy="622.33317"
       cx="314.36708"
       gradientTransform="scale(1.1991743,0.8339071)"
       gradientUnits="userSpaceOnUse" />
    <linearGradient
       y2="-99.033174"
       y1="487.91743"
       xlink:href="#linearGradient684"
       x2="757.44848"
       x1="324.95108"
       spreadMethod="pad"
       id="linearGradient652"
       gradientUnits="userSpaceOnUse"
       gradientTransform="scale(1.1398997,0.87727017)" />
    <linearGradient
       id="linearGradient649">
      <stop
         style="stop-color:#ffffff;stop-opacity:1;"
         offset="0"
         id="stop650" />
      <stop
         style="stop-color:#000000;stop-opacity:0.4784;"
         offset="1"
         id="stop651" />
    </linearGradient>
    <linearGradient
       id="linearGradient684">
      <stop
         style="stop-color:#ffe51a;stop-opacity:1;"
         offset="0"
         id="stop685" />
      <stop
         style="stop-color:#e60000;stop-opacity:0;"
         offset="1"
         id="stop686" />
    </linearGradient>
    <radialGradient
       inkscape:collect="always"
       xlink:href="#linearGradient649"
       id="radialGradient3122"
       gradientTransform="scale(2.0126239,0.49686381)"
       cx="254.25939"
       cy="1441.0841"
       fx="254.25939"
       fy="1441.0841"
       r="42.647346"
       gradientUnits="userSpaceOnUse" />
    <radialGradient
       inkscape:collect="always"
       xlink:href="#linearGradient649"
       id="radialGradient3124"
       gradientTransform="scale(0.59821273,1.6716461)"
       cx="769.30894"
       cy="373.53033"
       fx="769.30894"
       fy="373.53033"
       r="57.687708"
       gradientUnits="userSpaceOnUse" />
    <radialGradient
       inkscape:collect="always"
       xlink:href="#linearGradient649"
       id="radialGradient3126"
       gradientTransform="scale(0.97409597,1.0265929)"
       cx="310.91578"
       cy="585.31791"
       fx="310.91578"
       fy="585.31791"
       r="75.70346"
       gradientUnits="userSpaceOnUse" />
    <linearGradient
       inkscape:collect="always"
       xlink:href="#linearGradient684"
       id="linearGradient3180"
       gradientUnits="userSpaceOnUse"
       gradientTransform="matrix(0.08587421,0,0,0.06608904,-1.0064748,3.8045059)"
       spreadMethod="pad"
       x1="324.95108"
       y1="487.91743"
       x2="757.44848"
       y2="-99.033174" />
    <linearGradient
       id="linearGradient2140">
      <stop
         style="stop-color:#ffffea;stop-opacity:1.0000000;"
         offset="0.00000000"
         id="stop2142" />
      <stop
         style="stop-color:#ffffc1;stop-opacity:1.0000000;"
         offset="0.59036142"
         id="stop2148" />
      <stop
         style="stop-color:#bfaa0a;stop-opacity:1.0000000;"
         offset="1.0000000"
         id="stop2144" />
    </linearGradient>
    <style
       type="text/css"
       id="style1350">
   
    .fil0 {fill:#663300}
    .fil1 {fill:url(#id0)}
   
  </style>
    <radialGradient
       r="79.476601"
       id="id0"
       gradientUnits="userSpaceOnUse"
       fy="86.921097"
       fx="70.283798"
       cy="86.921097"
       cx="70.283798">
      <stop
         style="stop-color:#ffffff;stop-opacity:1.0000000;"
         offset="0.00000000"
         id="stop1353" />
      <stop
         style="stop-color:#fdfcc9;stop-opacity:1.0000000;"
         offset="0.36862701"
         id="stop1355" />
      <stop
         style="stop-color:#cc9933;stop-opacity:1.0000000;"
         offset="1.0000000"
         id="stop1357" />
    </radialGradient>
    <radialGradient
       xlink:href="#linearGradient2140"
       r="130.28741"
       id="radialGradient2146"
       gradientUnits="userSpaceOnUse"
       gradientTransform="scale(1.001135,0.998866)"
       fy="101.32678"
       fx="94.342743"
       cy="101.32678"
       cx="94.342743" />
    <radialGradient
       xlink:href="#linearGradient2140"
       r="130.28741"
       id="radialGradient2209"
       gradientUnits="userSpaceOnUse"
       gradientTransform="scale(1.001135,0.998866)"
       fy="101.32678"
       fx="94.342743"
       cy="101.32678"
       cx="94.342743" />
    <linearGradient
       id="linearGradient14293">
      <stop
         style="stop-color:#d9d9d9;stop-opacity:0.00000000;"
         offset="0.00000000"
         id="stop14295" />
      <stop
         style="stop-color:#949495;stop-opacity:0.47843137;"
         offset="1.0000000"
         id="stop14297" />
    </linearGradient>
    <linearGradient
       id="linearGradient13515">
      <stop
         style="stop-color:#a2a2a2;stop-opacity:0.00000000;"
         offset="0.00000000"
         id="stop13517" />
      <stop
         style="stop-color:#000000;stop-opacity:0.47717842;"
         offset="1.0000000"
         id="stop13519" />
    </linearGradient>
    <linearGradient
       id="linearGradient11215">
      <stop
         style="stop-color:#970000;stop-opacity:0.52697098;"
         offset="0.00000000"
         id="stop11217" />
      <stop
         style="stop-color:#890000;stop-opacity:0.00000000;"
         offset="1.0000000"
         id="stop11219" />
    </linearGradient>
    <linearGradient
       id="linearGradient7415">
      <stop
         style="stop-color:#b4b4b4;stop-opacity:1.0000000;"
         offset="0.00000000"
         id="stop7417" />
      <stop
         style="stop-color:#ffffff;stop-opacity:0.00000000;"
         offset="1.0000000"
         id="stop7419" />
    </linearGradient>
    <linearGradient
       id="linearGradient6649">
      <stop
         style="stop-color:#eaeaeb;stop-opacity:1.0000000;"
         offset="0.00000000"
         id="stop6651" />
      <stop
         style="stop-color:#ffffff;stop-opacity:0.00000000;"
         offset="1.0000000"
         id="stop6653" />
    </linearGradient>
    <linearGradient
       id="linearGradient4355">
      <stop
         style="stop-color:#ffffff;stop-opacity:0.00000000;"
         offset="0.00000000"
         id="stop4357" />
      <stop
         style="stop-color:#c5c5c5;stop-opacity:1.0000000;"
         offset="1.0000000"
         id="stop4359" />
    </linearGradient>
    <linearGradient
       id="linearGradient2821">
      <stop
         style="stop-color:#ececec;stop-opacity:1.0000000;"
         offset="0.00000000"
         id="stop2823" />
      <stop
         style="stop-color:#ffffff;stop-opacity:0.00000000;"
         offset="1.0000000"
         id="stop2825" />
    </linearGradient>
    <linearGradient
       id="linearGradient2055">
      <stop
         style="stop-color:#cbcbff;stop-opacity:1.0000000;"
         offset="0.00000000"
         id="stop2057" />
      <stop
         style="stop-color:#a4a4a4;stop-opacity:0.00000000;"
         offset="1.0000000"
         id="stop2059" />
    </linearGradient>
    <linearGradient
       y2="995.98688"
       y1="254.16740"
       xlink:href="#linearGradient4355"
       x2="540.67194"
       x1="192.55212"
       id="linearGradient4361"
       gradientUnits="userSpaceOnUse"
       gradientTransform="scale(1.159037,0.862785)" />
    <linearGradient
       y2="446.76941"
       y1="440.58575"
       xlink:href="#linearGradient2821"
       x2="727.52045"
       x1="520.24847"
       spreadMethod="reflect"
       id="linearGradient5122"
       gradientUnits="userSpaceOnUse"
       gradientTransform="scale(1.159037,0.862785)" />
    <linearGradient
       y2="660.51984"
       y1="608.85907"
       xlink:href="#linearGradient6649"
       x2="241.09036"
       x1="86.527954"
       spreadMethod="pad"
       id="linearGradient6647"
       gradientUnits="userSpaceOnUse"
       gradientTransform="scale(2.459190,0.406638)" />
    <linearGradient
       y2="675.87347"
       y1="508.43573"
       xlink:href="#linearGradient7415"
       x2="262.18460"
       x1="45.213402"
       id="linearGradient7421"
       gradientUnits="userSpaceOnUse"
       gradientTransform="scale(2.397529,0.417096)" />
    <linearGradient
       y2="899.55371"
       y1="899.55371"
       xlink:href="#linearGradient11215"
       x2="244.61548"
       x1="55.235748"
       id="linearGradient11221"
       gradientUnits="userSpaceOnUse"
       gradientTransform="scale(2.366432,0.422577)" />
    <linearGradient
       y2="446.76941"
       y1="440.58575"
       xlink:href="#linearGradient11215"
       x2="727.52045"
       x1="520.24847"
       spreadMethod="reflect"
       id="linearGradient11229"
       gradientUnits="userSpaceOnUse"
       gradientTransform="matrix(0.937448,0.000000,0.000000,0.444873,68.59473,275.8658)" />
    <linearGradient
       y2="210.15947"
       y1="210.15948"
       xlink:href="#linearGradient13515"
       x2="887.40399"
       x1="799.63879"
       spreadMethod="reflect"
       id="linearGradient12755"
       gradientUnits="userSpaceOnUse"
       gradientTransform="scale(0.273551,3.655626)" />
    <radialGradient
       xlink:href="#linearGradient14293"
       r="90.658646"
       id="radialGradient14291"
       gradientUnits="userSpaceOnUse"
       gradientTransform="scale(1.942017,0.514929)"
       fy="1870.1584"
       fx="187.49855"
       cy="1870.1584"
       cx="187.49855" />
  </defs>
  <path
     sodipodi:type="arc"
     style="fill:#8abb22;fill-opacity:1;stroke:none"
     id="path3280"
     sodipodi:cx="17.406561"
     sodipodi:cy="-12.985403"
     sodipodi:rx="24.939224"
     sodipodi:ry="24.939224"
     d="m 42.345785,-12.985403 a 24.939224,24.939224 0 1 1 -49.8784483,0 24.939224,24.939224 0 1 1 49.8784483,0 z"
     transform="matrix(1.1061225,0,0,1.1061225,10.876867,44.232791)" />
  <g
     id="g3276"
     transform="matrix(0.19377172,0,0,0.19377172,-37.534851,-37.282587)"
     style="fill:#492356;fill-opacity:1">
    <path
       style="fill:#492356;fill-opacity:1"
       id="path1458"
       d="m 337.3718,491.22036 c -60.89654,-4.18869 -114.37185,-52.39588 -129.46432,-110.75899 -13.92403,-60.51714 13.72781,-128.66429 67.68081,-160.25865 34.70364,-20.81281 78.2499,-23.41489 116.65645,-12.57385 47.44169,14.63915 83.55397,57.02856 96.23054,104.32247 11.38837,43.58236 3.17457,93.06821 -27.09434,127.41088 -27.41441,34.28749 -71.2356,54.04117 -115.05713,52.27724 -2.98696,-0.0622 -5.97228,-0.2033 -8.95201,-0.4191 z m 36.29688,-6.85895 c 10.92736,-0.95742 9.00668,-4.32212 -0.9325,-5.17607 -17.75675,-3.43155 -36.92973,-3.52104 -54.06707,2.49666 15.08558,7.30376 35.12626,5.42321 52.01419,3.24388 l 2.98537,-0.56444 10e-6,-3e-5 z m -53.80094,-9.6405 c 7.79814,-7.98981 -0.3374,-27.08126 -7.15236,-34.64588 -15.23187,-7.80355 -27.04294,-20.55891 -40.97467,-30.1777 -10.4926,-3.83459 -20.72665,3.45458 -30.86891,5.92416 -0.0453,10.06365 -0.69909,21.42632 8.12118,28.42355 14.52004,14.39052 32.04554,27.00539 51.82501,32.7376 6.35328,0.2972 13.02508,-0.0906 19.04975,-2.26173 z m 83.50406,0.40246 c 25.2731,-10.93528 48.98049,-28.50829 63.2323,-52.42352 5.13135,-6.88218 8.89925,-18.93073 -4.5039,-14.94624 -16.8365,10.62444 -32.04004,23.77389 -49.28802,33.83891 -10.45753,8.30307 -17.99077,19.72916 -25.42508,30.65607 2.59201,6.05314 11.01627,4.60982 15.9847,2.87478 z m 17.13239,-43.94226 c 12.7044,-10.45978 31.08633,-17.19825 37.7558,-33.0647 3.01347,-12.47686 3.2502,-25.38938 4.50677,-38.11675 -12.65901,-11.27445 -28.20607,-18.91974 -43.40605,-26.14359 -15.02198,1.20729 -27.16256,14.59192 -39.04242,23.2659 -6.33008,3.50729 -4.70501,11.38786 -6.42498,17.42952 -2.30162,14.12723 -4.96693,28.21133 -6.50128,42.44908 11.81933,8.77601 25.0137,16.83067 39.3852,20.2164 5.19325,0.0642 9.50804,-3.46642 13.72696,-6.03586 z m -90.61231,2.20203 c 11.50499,-4.40398 26.72917,-7.73003 32.13049,-19.95981 4.00512,-17.1369 6.23275,-34.67423 8.34942,-52.1312 -11.4304,-10.90503 -23.63443,-22.40262 -38.62218,-28.09335 -12.92896,-0.20831 -23.88695,8.96591 -35.39189,13.97725 -15.4786,4.214 -20.85474,18.33837 -21.53182,32.92606 -4.5414,14.43016 0.67048,29.25358 13.72268,37.20722 11.39983,8.43045 26.05135,21.87282 41.3433,16.07383 z M 233.59595,413.1592 c -9.33393,-17.31252 -15.77141,-36.27206 -18.34117,-55.7779 -9.23086,1.86406 -0.84093,24.5857 1.70252,33.85674 4.35238,12.52291 11.01099,24.03493 17.9145,35.29195 1.2625,-4.63161 2.01105,-9.23172 -1.27585,-13.37079 z m -4.02011,-77.06885 c 4.07612,-5.83801 10.56366,-10.44653 13.00862,-17.1162 4.31532,-20.19196 11.35412,-39.68498 21.42169,-57.7371 -0.4253,-11.66345 -13.41464,-18.74931 -19.88183,-5.89725 -18.42823,23.79114 -32.88422,52.78174 -33.52045,83.38008 -2.42306,10.49451 6.68447,18.12925 11.93101,5.70262 2.35073,-2.77421 4.69722,-5.55212 7.04096,-8.33215 z m 237.29596,14.46582 c 7.81119,-10.27829 18.6065,-22.4778 15.79925,-36.39965 -4.88805,-26.39812 -18.4071,-51.46203 -39.17346,-68.66578 -6.16521,-2.62148 -17.43286,-12.26834 -21.73379,-3.15655 -6.35676,12.24228 -22.16707,23.81573 -16.47055,39.06166 4.88321,15.04985 8.44596,30.78002 15.56456,44.95207 13.0946,10.24736 28.26311,18.21172 43.51398,24.93358 l 2.5,-0.72533 1e-5,0 z m -174.23004,-6.84411 c 12.09194,-6.12111 23.83701,-12.88927 35.62824,-19.56275 3.976,-13.92641 8.96642,-27.53221 13.61566,-41.22562 0.65014,-14.80698 -12.52611,-25.44538 -21.34045,-35.83006 -8.65588,-13.89097 -23.30422,-3.23609 -33.9899,1.84401 -23.51763,12.59108 -28.91693,40.30909 -36.90725,63.44609 1.10865,8.66403 9.02228,15.89554 14.79833,22.37251 7.98291,8.03256 16.95796,18.7665 28.19537,8.95582 z m 86.73004,-74.84467 c 6.25549,-0.86019 13.24173,-0.23049 19.0487,-2.00514 8.68662,-9.3757 16.33272,-20.35969 19.95129,-32.68207 -4.3678,-12.42193 -18.83931,-18.08332 -30.4572,-22.31162 -14.80112,-4.41469 -30.64906,-6.5768 -46.01186,-4.83242 -11.08866,5.67662 -30.97917,22.15027 -19.74859,34.91869 8.22602,9.81853 16.98199,19.17505 25.89765,28.36666 10.45927,0.10211 20.89433,-0.71595 31.32001,-1.4541 z"
       inkscape:connector-curvature="0" />
    <g
       transform="matrix(-0.01214889,0.999927,0.999927,0.01214889,15.79501,398.1419)"
       inkscape:label="volley-ball"
       id="volley"
       style="fill:#492356;fill-opacity:1" />
  </g>
</svg>
