<?xml version="1.0" encoding="UTF-8" standalone="no"?>
<!-- Created with Inkscape (http://www.inkscape.org/) -->

<svg
   xmlns:dc="http://purl.org/dc/elements/1.1/"
   xmlns:cc="http://creativecommons.org/ns#"
   xmlns:rdf="http://www.w3.org/1999/02/22-rdf-syntax-ns#"
   xmlns:svg="http://www.w3.org/2000/svg"
   xmlns="http://www.w3.org/2000/svg"
   xmlns:sodipodi="http://sodipodi.sourceforge.net/DTD/sodipodi-0.dtd"
   xmlns:inkscape="http://www.inkscape.org/namespaces/inkscape"
   id="svg7384"
   version="1.1"
   inkscape:version="0.48.3.1 r9886"
   height="16"
   sodipodi:docname="chat-huayra-symbolic.svg"
   width="16">
  <metadata
     id="metadata90">
    <rdf:RDF>
      <cc:Work
         rdf:about="">
        <dc:format>image/svg+xml</dc:format>
        <dc:type
           rdf:resource="http://purl.org/dc/dcmitype/StillImage" />
        <dc:title>Gnome Symbolic Icon Theme</dc:title>
      </cc:Work>
    </rdf:RDF>
  </metadata>
  <sodipodi:namedview
     inkscape:cy="6.0458747"
     inkscape:current-layer="layer9"
     inkscape:window-width="1310"
     pagecolor="#555753"
     showborder="false"
     showguides="true"
     inkscape:snap-nodes="false"
     objecttolerance="10"
     showgrid="false"
     inkscape:object-nodes="true"
     inkscape:pageshadow="2"
     inkscape:guide-bbox="true"
     inkscape:window-x="163"
     inkscape:snap-bbox="true"
     bordercolor="#666666"
     id="namedview88"
     inkscape:window-maximized="0"
     inkscape:snap-global="true"
     inkscape:window-y="52"
     gridtolerance="10"
     inkscape:zoom="16"
     inkscape:window-height="690"
     borderopacity="1"
     guidetolerance="10"
     inkscape:cx="17.113495"
     inkscape:bbox-paths="false"
     inkscape:snap-grids="true"
     inkscape:pageopacity="0"
     inkscape:snap-to-guides="true">
    <inkscape:grid
       visible="true"
       spacingx="1px"
       type="xygrid"
       spacingy="1px"
       id="grid4866"
       empspacing="2"
       enabled="true"
       snapvisiblegridlinesonly="true" />
  </sodipodi:namedview>
  <title
     id="title9167">Gnome Symbolic Icon Theme</title>
  <defs
     id="defs7386" />
  <g
     transform="translate(-41.000198,-357)"
     inkscape:groupmode="layer"
     id="layer9"
     inkscape:label="status"
     style="display:inline">
    <path
       style="color:#bebebe;fill:#694f69;fill-opacity:1;fill-rule:nonzero;stroke:none;stroke-width:2.40000010000000019;marker:none;visibility:visible;display:inline;overflow:visible;enable-background:accumulate"
       d="M 3.6875 1.0625 C 2.164 1.0625 0.9375 2.289 0.9375 3.8125 L 0.9375 8.25 C 0.9375 9.7735 2.164 11 3.6875 11 L 10 11 L 13.03125 15 L 12.96875 10.90625 C 14.173282 10.61341 15.0625 9.54714 15.0625 8.25 L 15.0625 3.8125 C 15.0625 2.289 13.836 1.0625 12.3125 1.0625 L 3.6875 1.0625 z M 6.03125 2.0625 C 6.087975 1.98974 6.235134 2.19284 6.375 2.53125 C 6.588528 3.04786 7.24071 5.08657 7.125 6.40625 C 7.2339 6.40355 7.360224 6.425 7.46875 6.4375 C 8.232413 5.1478 8.953121 3.63886 9.125 2.71875 C 9.308059 1.7388 9.44798 2.29062 9.40625 2.875 C 9.333368 3.8956 8.83804 5.52663 8.28125 6.65625 C 8.342877 6.68585 8.40926 6.7158 8.46875 6.75 C 9.536985 5.82987 10.429821 4.90849 11 4.1875 C 11.621084 3.40212 11.564499 3.92466 11.28125 4.4375 C 11.01502 4.91953 10.037353 6.37438 9.125 7.3125 C 9.22654 7.42258 9.29284 7.52953 9.375 7.65625 C 10.398987 7.1688 11.288906 6.63292 11.90625 6.1875 C 12.66382 5.6409 12.477382 6.10529 12.09375 6.5 C 11.763589 6.83969 10.711056 7.7633 9.71875 8.375 C 9.75109 8.49733 9.76788 8.62009 9.78125 8.75 C 11.080231 8.85901 11.747109 8.9197 12.4375 8.9375 C 13.152662 8.95593 12.895306 9.04818 12.5 9.15625 C 11.97581 9.2996 10.727235 9.42295 9.78125 9.46875 C 9.76984 9.46935 9.73008 9.46813 9.71875 9.46875 L 9.71875 9.4375 L 8.8125 9.5 C 9.150244 7.39085 5.884841 6.75399 5.5625 9.25 L 5.53125 9.78125 C 5.206249 9.67041 4.923921 9.53897 4.6875 9.4375 C 3.978236 9.13309 3.593086 8.87243 3.15625 8.65625 C 2.573788 8.36799 2.907627 8.41172 3.4375 8.53125 C 3.799495 8.61292 4.282091 8.66791 4.8125 8.8125 C 4.848492 8.64365 4.85814 8.46164 4.90625 8.3125 C 3.94824 7.27779 3.106809 6.45488 2.625 5.96875 C 2.135489 5.47488 2.43835 5.55459 2.90625 5.84375 C 3.349268 6.11754 4.481889 6.99967 5.21875 7.65625 C 5.328267 7.46289 5.430152 7.26984 5.5625 7.125 C 5.010529 5.80184 4.350244 4.12642 4.0625 3.5 C 3.772228 2.86801 4.053619 3.06395 4.34375 3.53125 C 4.658545 4.03827 5.593023 5.61877 6.15625 6.6875 C 6.251159 6.63473 6.33841 6.5989 6.4375 6.5625 C 6.529981 5.0414 6.164866 3.2663 6.0625 2.53125 C 6.02392 2.25405 5.99721 2.1061 6.03125 2.0625 z M 7.1875 8.53125 C 7.5038757 8.5068413 7.808598 8.6429825 7.96875 8.9375 L 8 8.96875 C 8.208112 9.37223 8.028476 9.88564 7.625 10.09375 C 7.221527 10.30187 6.708113 10.12222 6.5 9.71875 C 6.291884 9.31528 6.471524 8.83311 6.875 8.625 C 6.974313 8.5737725 7.0820414 8.5393862 7.1875 8.53125 z "
       transform="translate(41.000198,357)"
       id="rect11261" />
  </g>
  <g
     transform="translate(-41.000198,-357)"
     inkscape:groupmode="layer"
     id="layer10"
     inkscape:label="devices" />
  <g
     transform="translate(-41.000198,-357)"
     inkscape:groupmode="layer"
     id="layer11"
     inkscape:label="apps" />
  <g
     transform="translate(-41.000198,-357)"
     inkscape:groupmode="layer"
     id="layer12"
     inkscape:label="actions" />
  <g
     transform="translate(-41.000198,-357)"
     inkscape:groupmode="layer"
     id="layer13"
     inkscape:label="places" />
  <g
     transform="translate(-41.000198,-357)"
     inkscape:groupmode="layer"
     id="layer14"
     inkscape:label="mimetypes" />
  <g
     transform="translate(-41.000198,-357)"
     inkscape:groupmode="layer"
     id="layer15"
     inkscape:label="emblems"
     style="display:inline" />
  <g
     transform="translate(-41.000198,-357)"
     inkscape:groupmode="layer"
     id="g4953"
     inkscape:label="categories"
     style="display:inline" />
</svg>
