<?xml version="1.0" encoding="UTF-8" standalone="no"?>
<!-- Created with Inkscape (http://www.inkscape.org/) -->

<svg
   xmlns:dc="http://purl.org/dc/elements/1.1/"
   xmlns:cc="http://creativecommons.org/ns#"
   xmlns:rdf="http://www.w3.org/1999/02/22-rdf-syntax-ns#"
   xmlns:svg="http://www.w3.org/2000/svg"
   xmlns="http://www.w3.org/2000/svg"
   xmlns:sodipodi="http://sodipodi.sourceforge.net/DTD/sodipodi-0.dtd"
   xmlns:inkscape="http://www.inkscape.org/namespaces/inkscape"
   width="256"
   height="256"
   id="svg2"
   version="1.1"
   inkscape:version="0.48.3.1 r9886"
   sodipodi:docname="folder-download.svg">
  <defs
     id="defs4">
    <inkscape:perspective
       sodipodi:type="inkscape:persp3d"
       inkscape:vp_x="0 : 526.18109 : 1"
       inkscape:vp_y="0 : 1000 : 0"
       inkscape:vp_z="744.09448 : 526.18109 : 1"
       inkscape:persp3d-origin="372.04724 : 350.78739 : 1"
       id="perspective4095" />
  </defs>
  <sodipodi:namedview
     id="base"
     pagecolor="#ffffff"
     bordercolor="#666666"
     borderopacity="1.0"
     inkscape:pageopacity="0.0"
     inkscape:pageshadow="2"
     inkscape:zoom="1.7656051"
     inkscape:cx="78.423403"
     inkscape:cy="211.80379"
     inkscape:document-units="px"
     inkscape:current-layer="layer1"
     showgrid="false"
     showguides="true"
     inkscape:guide-bbox="true"
     inkscape:window-width="1022"
     inkscape:window-height="546"
     inkscape:window-x="0"
     inkscape:window-y="16"
     inkscape:window-maximized="1" />
  <metadata
     id="metadata7">
    <rdf:RDF>
      <cc:Work
         rdf:about="">
        <dc:format>image/svg+xml</dc:format>
        <dc:type
           rdf:resource="http://purl.org/dc/dcmitype/StillImage" />
        <dc:title />
      </cc:Work>
    </rdf:RDF>
  </metadata>
  <g
     inkscape:label="Layer 1"
     inkscape:groupmode="layer"
     id="layer1"
     transform="translate(0,-796.3622)">
    <g
       id="g4135"
       transform="matrix(2.2793167,0,0,2.2793167,411.20865,-492.95248)"
       inkscape:export-filename="/home/malefico/Documentos/proyectos/conectar-linux/iconos/Iconos Huayra/tema_plano.png"
       inkscape:export-xdpi="90"
       inkscape:export-ydpi="90">
      <path
         sodipodi:nodetypes="cccccccc"
         inkscape:connector-curvature="0"
         id="path3050-1"
         d="m -107.60801,568.07039 0.82411,30.67232 12.831154,0.19289 c -13.140944,14.06369 -20.503834,21.20163 -29.664674,29.39031 -13.84049,-14.62055 -22.70879,-21.87972 -29.34585,-29.60804 l 11.13786,0.45474 0.0544,-30.94832 c 10.53505,-0.13697 21.21355,0.49082 34.16299,-0.1539 z"
         style="fill:#614868;fill-opacity:1;stroke:none" />
      <path
         style="fill:#614868;fill-opacity:1;fill-rule:nonzero"
         inkscape:connector-curvature="0"
         id="path12-8"
         d="m -164.56325,633.80177 c 6.02954,0 8.43873,0 15.17615,0 0,19.39365 -0.55383,26.6885 25.76968,26.66302 26.323506,-0.0255 26.818369,-6.69341 26.818369,-26.66302 0,0 9.44729,0 14.86149,0 0,22.90856 0.06961,42.43152 -41.651829,42.17898 -41.72144,-0.25254 -40.97386,-18.6522 -40.97386,-42.17898 z"
         class="fil1"
         sodipodi:nodetypes="cczcczc" />
      <path
         transform="translate(-23.073663,367.44296)"
         sodipodi:open="true"
         sodipodi:end="12.46847"
         sodipodi:start="6.2071318"
         d="m -88.927003,275.17732 c 0.48747,6.39721 -4.303321,11.97835 -10.700531,12.46582 -6.397206,0.48747 -11.978346,-4.30332 -12.465816,-10.70053 -0.48747,-6.39721 4.30332,-11.97835 10.70053,-12.46582 6.298606,-0.47995 11.826333,4.16109 12.443771,10.44771"
         sodipodi:ry="11.616755"
         sodipodi:rx="11.616755"
         sodipodi:cy="276.05997"
         sodipodi:cx="-100.51018"
         id="path4015-5"
         style="fill:#4b7744;fill-opacity:1;stroke:none"
         sodipodi:type="arc" />
    </g>
  </g>
</svg>
