<?xml version="1.0" encoding="UTF-8" standalone="no"?>
<!-- Creator: CorelDRAW -->

<svg
   xmlns:dc="http://purl.org/dc/elements/1.1/"
   xmlns:cc="http://creativecommons.org/ns#"
   xmlns:rdf="http://www.w3.org/1999/02/22-rdf-syntax-ns#"
   xmlns:svg="http://www.w3.org/2000/svg"
   xmlns="http://www.w3.org/2000/svg"
   xmlns:sodipodi="http://sodipodi.sourceforge.net/DTD/sodipodi-0.dtd"
   xmlns:inkscape="http://www.inkscape.org/namespaces/inkscape"
   xml:space="preserve"
   width="16"
   height="16"
   style="fill-rule:evenodd"
   viewBox="0 0 0 72.24889"
   id="svg2"
   version="1.1"
   inkscape:version="0.48.3.1 r9886"
   sodipodi:docname="gnome-logout.svg"><metadata
   id="metadata20"><rdf:RDF><cc:Work
       rdf:about=""><dc:format>image/svg+xml</dc:format><dc:type
         rdf:resource="http://purl.org/dc/dcmitype/StillImage" /><dc:title /></cc:Work></rdf:RDF></metadata><sodipodi:namedview
   pagecolor="#ffffff"
   bordercolor="#666666"
   borderopacity="1"
   objecttolerance="10"
   gridtolerance="10"
   guidetolerance="10"
   inkscape:pageopacity="0"
   inkscape:pageshadow="2"
   inkscape:window-width="1918"
   inkscape:window-height="1008"
   id="namedview18"
   showgrid="true"
   showguides="true"
   inkscape:guide-bbox="true"
   fit-margin-top="0"
   fit-margin-left="0"
   fit-margin-right="0"
   fit-margin-bottom="0"
   inkscape:zoom="28.704947"
   inkscape:cx="13.32379"
   inkscape:cy="9.8585874"
   inkscape:window-x="0"
   inkscape:window-y="24"
   inkscape:window-maximized="1"
   inkscape:current-layer="svg2"><sodipodi:guide
     orientation="0,1"
     position="202.03568,-1.5223364e-06"
     id="guide3001" /><inkscape:grid
     type="xygrid"
     id="grid2985"
     empspacing="5"
     visible="true"
     enabled="true"
     snapvisiblegridlinesonly="true" /></sodipodi:namedview>
 <defs
   id="defs4"><style
     type="text/css"
     id="style6">
   
    .fil2 {fill:#6F448A}
    .fil3 {fill:#73A848}
    .fil1 {fill:#6F448A;fill-rule:nonzero}
    .fil0 {fill:#73A848;fill-rule:nonzero}
   
  </style></defs>
 
<g
   id="g3780"
   style="fill:#bebebe;fill-opacity:1"
   transform="matrix(0.87185404,0,0,0.87185404,1.1533136,1.128146)"><path
     sodipodi:nodetypes="zssszzssszz"
     inkscape:connector-curvature="0"
     id="path10"
     d="M 4,2.4012311 C 2.9680388,2.7381575 1,4.8130771 1,8 1,11.866325 4.1083387,15 7.9375,15 11.768902,15 14.875,11.866325 14.875,8 14.875,4.8592193 13,3 12,2.3832092 11,1.7664184 10.37065,3.4206086 10.763642,3.8047629 11.156634,4.1889172 13,5.9441856 13,8 13,10.762021 10.768324,13 8.03125,13 5.2957777,13 3.09375,10.762021 3.09375,8 3.09375,5.9708461 4.1420453,4.391884 5,4 5.8579546,3.608116 5.0319612,2.0643046 4,2.4012311 z"
     style="fill:#bebebe;fill-opacity:1;fill-rule:nonzero" /><rect
     ry="0.73900861"
     y="1"
     x="7"
     height="7"
     width="2"
     id="rect3778"
     style="fill:#bebebe;fill-opacity:1;stroke:none" /></g></svg>