<?xml version="1.0" encoding="UTF-8" standalone="no"?>
<!-- Created with Inkscape (http://www.inkscape.org/) -->

<svg
   xmlns:dc="http://purl.org/dc/elements/1.1/"
   xmlns:cc="http://creativecommons.org/ns#"
   xmlns:rdf="http://www.w3.org/1999/02/22-rdf-syntax-ns#"
   xmlns:svg="http://www.w3.org/2000/svg"
   xmlns="http://www.w3.org/2000/svg"
   xmlns:sodipodi="http://sodipodi.sourceforge.net/DTD/sodipodi-0.dtd"
   xmlns:inkscape="http://www.inkscape.org/namespaces/inkscape"
   width="256"
   height="256"
   id="svg2"
   version="1.1"
   inkscape:version="0.48.3.1 r9886"
   sodipodi:docname="network-workgroup.svg">
  <defs
     id="defs4" />
  <sodipodi:namedview
     id="base"
     pagecolor="#ffffff"
     bordercolor="#666666"
     borderopacity="1.0"
     inkscape:pageopacity="0.0"
     inkscape:pageshadow="2"
     inkscape:zoom="0.88280258"
     inkscape:cx="113.69585"
     inkscape:cy="119.88996"
     inkscape:document-units="px"
     inkscape:current-layer="layer1"
     showgrid="false"
     showguides="true"
     inkscape:guide-bbox="true"
     inkscape:window-width="1022"
     inkscape:window-height="546"
     inkscape:window-x="0"
     inkscape:window-y="16"
     inkscape:window-maximized="0" />
  <metadata
     id="metadata7">
    <rdf:RDF>
      <cc:Work
         rdf:about="">
        <dc:format>image/svg+xml</dc:format>
        <dc:type
           rdf:resource="http://purl.org/dc/dcmitype/StillImage" />
        <dc:title />
      </cc:Work>
    </rdf:RDF>
  </metadata>
  <g
     inkscape:label="Layer 1"
     inkscape:groupmode="layer"
     id="layer1"
     transform="translate(0,-796.3622)">
    <g
       id="g2991"
       transform="matrix(2.9199918,0,0,2.9199918,4.9347792,-2029.7948)">
      <path
         inkscape:connector-curvature="0"
         id="rect3021"
         d="m 7.2989882,970.56389 c -3.8379846,0 -6.91929841,3.08103 -6.91929841,6.9193 l 0,17.99017 c 0,3.83772 3.08131381,7.09204 6.91929841,7.09204 l 31.3098248,0 c 3.837985,0 6.919299,-3.25432 6.919299,-7.09204 l 0,-17.99017 c 0,-3.83827 -3.081314,-6.9193 -6.919299,-6.9193 l -31.3098248,0 z m 4.3245618,3.80561 22.487719,0 c 3.837985,0 6.919299,3.08103 6.919299,6.9193 l 0,8.30316 c 0,3.83772 -3.081314,6.9193 -6.919299,6.9193 l -22.487719,0 c -3.8379851,0 -6.9192987,-3.08158 -6.9192987,-6.9193 l 0,-8.30316 c 0,-3.83827 3.0813136,-6.9193 6.9192987,-6.9193 z"
         style="fill:#4b7744;fill-opacity:1;stroke:none" />
      <path
         inkscape:connector-curvature="0"
         id="rect3021-8"
         d="m 45.717941,1012.5197 c -3.837985,0 -6.919299,3.0811 -6.919299,6.9193 l 0,17.9902 c 0,3.8377 3.081314,7.092 6.919299,7.092 l 31.309824,0 c 3.837985,0 6.919298,-3.2543 6.919298,-7.092 l 0,-17.9902 c 0,-3.8382 -3.081313,-6.9193 -6.919298,-6.9193 l -31.309824,0 z m 4.324561,3.8057 22.487719,0 c 3.837985,0 6.919298,3.081 6.919298,6.9193 l 0,8.3031 c 0,3.8377 -3.081313,6.9193 -6.919298,6.9193 l -22.487719,0 c -3.837985,0 -6.919298,-3.0816 -6.919298,-6.9193 l 0,-8.3031 c 0,-3.8383 3.081313,-6.9193 6.919298,-6.9193 z"
         style="fill:#614868;fill-opacity:1;stroke:none" />
      <rect
         ry="1.8614959"
         y="1003.4393"
         x="1.7550507"
         height="6.466249"
         width="43.843582"
         id="rect3812"
         style="fill:#4b7744;fill-opacity:1;stroke:none" />
      <rect
         ry="1.8614959"
         y="1045.6659"
         x="39.886417"
         height="6.466249"
         width="43.843582"
         id="rect3812-4"
         style="fill:#614868;fill-opacity:1;stroke:none" />
      <path
         sodipodi:nodetypes="cccccccccc"
         inkscape:connector-curvature="0"
         id="path3832"
         d="m 25.122671,1010.8851 0,20.1828 6.466248,0 0,-3.1353 5.878409,5.8781 c 0,0 -4.134324,3.5958 -5.927395,5.3888 0,-2.0493 -0.04899,-3.0373 -0.04899,-3.0373 0,0 -6.253655,0 -10.875054,0 0,-2.5474 0,-25.0811 0,-25.0811 z"
         style="fill:#4b7744;fill-opacity:1;stroke:none" />
      <path
         sodipodi:nodetypes="cccccccccc"
         inkscape:connector-curvature="0"
         id="path3832-5"
         d="m 58.629876,1010.7379 0,-20.18277 -6.46625,0 0,3.13527 -5.878409,-5.87808 c 0,0 4.134325,-3.59582 5.927398,-5.38875 0,2.04922 0.04871,3.03729 0.04871,3.03729 0,0 6.25365,0 10.875049,0 0,2.54741 0,25.08104 0,25.08104 z"
         style="fill:#614868;fill-opacity:1;stroke:none" />
      <path
         sodipodi:open="true"
         sodipodi:end="12.46847"
         sodipodi:start="6.2071318"
         transform="matrix(5.5354387,0,0,5.5354387,-1.7220598,964.83859)"
         d="M 5.1656417,3.7202336 C 5.2027773,4.2075738 4.8378142,4.6327454 4.350474,4.669881 3.8631338,4.7070166 3.4379621,4.3420536 3.4008265,3.8547133 3.363691,3.3673731 3.728654,2.9422014 4.2159942,2.9050659 4.6958229,2.8685027 5.1169258,3.2220577 5.1639622,3.7009731"
         sodipodi:ry="0.88496572"
         sodipodi:rx="0.88496572"
         sodipodi:cy="3.7874734"
         sodipodi:cx="4.2832341"
         id="path3852"
         style="fill:#614868;fill-opacity:1;stroke:none"
         sodipodi:type="arc" />
      <path
         sodipodi:open="true"
         sodipodi:end="12.46847"
         sodipodi:start="6.2071318"
         d="M 5.1656417,3.7202336 C 5.2027773,4.2075738 4.8378142,4.6327454 4.350474,4.669881 3.8631338,4.7070166 3.4379621,4.3420536 3.4008265,3.8547133 3.363691,3.3673731 3.728654,2.9422014 4.2159942,2.9050659 4.6958229,2.8685027 5.1169258,3.2220577 5.1639622,3.7009731"
         sodipodi:ry="0.88496572"
         sodipodi:rx="0.88496572"
         sodipodi:cy="3.7874734"
         sodipodi:cx="4.2832341"
         id="path3852-5"
         style="fill:#4b7744;fill-opacity:1;stroke:none"
         sodipodi:type="arc"
         transform="matrix(5.5354387,0,0,5.5354387,37.467327,1006.7712)" />
    </g>
  </g>
</svg>
