<?xml version="1.0" encoding="UTF-8" standalone="no"?>
<!-- Created with Inkscape (http://www.inkscape.org/) -->

<svg
   xmlns:dc="http://purl.org/dc/elements/1.1/"
   xmlns:cc="http://creativecommons.org/ns#"
   xmlns:rdf="http://www.w3.org/1999/02/22-rdf-syntax-ns#"
   xmlns:svg="http://www.w3.org/2000/svg"
   xmlns="http://www.w3.org/2000/svg"
   xmlns:sodipodi="http://sodipodi.sourceforge.net/DTD/sodipodi-0.dtd"
   xmlns:inkscape="http://www.inkscape.org/namespaces/inkscape"
   width="256"
   height="256"
   id="svg2"
   version="1.1"
   inkscape:version="0.48.3.1 r9886"
   sodipodi:docname="user-trash-full.svg">
  <defs
     id="defs4" />
  <sodipodi:namedview
     id="base"
     pagecolor="#ffffff"
     bordercolor="#666666"
     borderopacity="1.0"
     inkscape:pageopacity="0.0"
     inkscape:pageshadow="2"
     inkscape:zoom="0.9899495"
     inkscape:cx="12.530168"
     inkscape:cy="132.14609"
     inkscape:document-units="px"
     inkscape:current-layer="layer1"
     showgrid="false"
     showguides="true"
     inkscape:guide-bbox="true"
     inkscape:window-width="1022"
     inkscape:window-height="546"
     inkscape:window-x="0"
     inkscape:window-y="16"
     inkscape:window-maximized="1" />
  <metadata
     id="metadata7">
    <rdf:RDF>
      <cc:Work
         rdf:about="">
        <dc:format>image/svg+xml</dc:format>
        <dc:type
           rdf:resource="http://purl.org/dc/dcmitype/StillImage" />
        <dc:title />
      </cc:Work>
    </rdf:RDF>
  </metadata>
  <g
     inkscape:label="Layer 1"
     inkscape:groupmode="layer"
     id="layer1"
     transform="translate(0,-796.3622)">
    <g
       id="g3189"
       transform="matrix(14.911727,0,0,14.911727,-261.83932,-14652.44)">
      <path
         transform="matrix(0.20064813,0,0,0.20064813,-41.711311,892.00453)"
         sodipodi:open="true"
         sodipodi:end="12.46847"
         sodipodi:start="6.2071318"
         d="m 336.85669,737.94232 c 0.42389,5.56279 -3.74202,10.41596 -9.30481,10.83984 -5.56279,0.42389 -10.41595,-3.74201 -10.83984,-9.30481 -0.42389,-5.56279 3.74202,-10.41595 9.30481,-10.83984 5.47705,-0.41735 10.28377,3.61834 10.82067,9.08496"
         sodipodi:ry="10.101525"
         sodipodi:rx="10.101525"
         sodipodi:cy="738.70984"
         sodipodi:cx="326.78436"
         id="path3923-6"
         style="fill:#4b7744;fill-opacity:1;stroke:none"
         sodipodi:type="arc" />
      <path
         sodipodi:open="true"
         sodipodi:end="12.46847"
         sodipodi:start="6.2071318"
         d="m 336.85669,737.94232 c 0.42389,5.56279 -3.74202,10.41596 -9.30481,10.83984 -5.56279,0.42389 -10.41595,-3.74201 -10.83984,-9.30481 -0.42389,-5.56279 3.74202,-10.41595 9.30481,-10.83984 5.47705,-0.41735 10.28377,3.61834 10.82067,9.08496"
         sodipodi:ry="10.101525"
         sodipodi:rx="10.101525"
         sodipodi:cy="738.70984"
         sodipodi:cx="326.78436"
         id="path3923-8-2"
         style="fill:#4b7744;fill-opacity:1;stroke:none"
         sodipodi:type="arc"
         transform="matrix(0.22564687,0,0,0.22564687,-48.049073,879.65254)" />
      <path
         sodipodi:open="true"
         sodipodi:end="12.46847"
         sodipodi:start="6.2071318"
         d="m 336.85669,737.94232 c 0.42389,5.56279 -3.74202,10.41596 -9.30481,10.83984 -5.56279,0.42389 -10.41595,-3.74201 -10.83984,-9.30481 -0.42389,-5.56279 3.74202,-10.41595 9.30481,-10.83984 5.47705,-0.41735 10.28377,3.61834 10.82067,9.08496"
         sodipodi:ry="10.101525"
         sodipodi:rx="10.101525"
         sodipodi:cy="738.70984"
         sodipodi:cx="326.78436"
         id="path3923-2-5"
         style="fill:#4b7744;fill-opacity:1;stroke:none"
         sodipodi:type="arc"
         transform="matrix(0.21636429,0,0,0.21636429,-43.261697,882.43172)" />
      <path
         sodipodi:nodetypes="cczzscczzcc"
         inkscape:connector-curvature="0"
         id="path3915-2-7-5"
         d="m 17.817291,1039.5612 3.741789,-0.068 c 0,0 1.978883,7.9826 2.352663,8.8171 0.373777,0.8345 1.004856,1.5332 2.011083,1.5239 1.006228,-0.01 1.666798,-0.3426 2.029303,-1.3978 0.268902,-0.7828 2.66494,-8.9432 2.66494,-8.9432 l 3.826516,0 c 0,0 -2.555045,7.791 -3.174874,10.3371 -0.619832,2.5461 -3.606276,3.0993 -5.222114,3.0993 -1.615838,0 -4.695632,-0.6654 -5.374653,-3.2436 -0.287665,-1.2074 -2.854653,-10.1247 -2.854653,-10.1247 z"
         style="fill:#624477;fill-opacity:1;stroke:none" />
      <path
         sodipodi:open="true"
         sodipodi:end="12.46847"
         sodipodi:start="6.2071318"
         d="m 336.85669,737.94232 c 0.42389,5.56279 -3.74202,10.41596 -9.30481,10.83984 -5.56279,0.42389 -10.41595,-3.74201 -10.83984,-9.30481 -0.42389,-5.56279 3.74202,-10.41595 9.30481,-10.83984 5.47705,-0.41735 10.28377,3.61834 10.82067,9.08496"
         sodipodi:ry="10.101525"
         sodipodi:rx="10.101525"
         sodipodi:cy="738.70984"
         sodipodi:cx="326.78436"
         id="path3923-8-2-2"
         style="fill:#4b7744;fill-opacity:1;stroke:none"
         sodipodi:type="arc"
         transform="matrix(0.18502376,0,0,0.18502376,-33.22032,901.57276)" />
    </g>
  </g>
</svg>
