<?xml version="1.0" encoding="UTF-8" standalone="no"?>
<!-- Created with Inkscape (http://www.inkscape.org/) -->

<svg
   xmlns:dc="http://purl.org/dc/elements/1.1/"
   xmlns:cc="http://creativecommons.org/ns#"
   xmlns:rdf="http://www.w3.org/1999/02/22-rdf-syntax-ns#"
   xmlns:svg="http://www.w3.org/2000/svg"
   xmlns="http://www.w3.org/2000/svg"
   xmlns:sodipodi="http://sodipodi.sourceforge.net/DTD/sodipodi-0.dtd"
   xmlns:inkscape="http://www.inkscape.org/namespaces/inkscape"
   width="256"
   height="256"
   id="svg2"
   version="1.1"
   inkscape:version="0.48.3.1 r9886"
   sodipodi:docname="web-browser.svg">
  <defs
     id="defs4" />
  <sodipodi:namedview
     id="base"
     pagecolor="#ffffff"
     bordercolor="#666666"
     borderopacity="1.0"
     inkscape:pageopacity="0.0"
     inkscape:pageshadow="2"
     inkscape:zoom="0.98994949"
     inkscape:cx="319.94477"
     inkscape:cy="150.17745"
     inkscape:document-units="px"
     inkscape:current-layer="layer1"
     showgrid="false"
     inkscape:window-width="1680"
     inkscape:window-height="995"
     inkscape:window-x="-2"
     inkscape:window-y="-3"
     inkscape:window-maximized="1" />
  <metadata
     id="metadata7">
    <rdf:RDF>
      <cc:Work
         rdf:about="">
        <dc:format>image/svg+xml</dc:format>
        <dc:type
           rdf:resource="http://purl.org/dc/dcmitype/StillImage" />
        <dc:title />
      </cc:Work>
    </rdf:RDF>
  </metadata>
  <g
     inkscape:label="Layer 1"
     inkscape:groupmode="layer"
     id="layer1"
     transform="translate(0,-796.36218)">
    <g
       id="g3031"
       transform="matrix(0.33962298,0,0,0.33962298,-0.55183254,749.46969)">
      <path
         inkscape:connector-curvature="0"
         id="path2985-0"
         d="M 141.15355,218.4766 C 88.889993,280.40044 59.068917,361.51588 63.456527,448.82705 72.643095,631.63498 228.26629,772.38238 411.07422,763.19582 c 83.549,-4.19855 158.2945,-39.00574 213.97465,-93.00189 L 555.4242,605.1856 C 516.44858,641.48048 464.95751,664.75464 407.60484,667.63676 278.37726,674.13078 168.35321,574.62749 161.85919,445.39991 158.84368,385.39276 178.6804,329.53235 213.739,286.24986 L 141.15355,218.4766 z"
         style="opacity:0.95614032;fill:#614868;fill-opacity:1;stroke:none" />
      <path
         sodipodi:nodetypes="cccc"
         inkscape:connector-curvature="0"
         id="path3027"
         d="m 381.42857,758.07647 -80,122.85714 161.42857,10e-6 z"
         style="fill:#614868;stroke:#000000;stroke-width:1px;stroke-linecap:butt;stroke-linejoin:miter;stroke-opacity:1" />
      <path
         transform="translate(-24.285714,-42.857143)"
         sodipodi:open="true"
         sodipodi:end="12.46847"
         sodipodi:start="6.2071318"
         d="M 653.69107,432.44626 C 662.3234,545.7307 577.4861,644.56377 464.20166,653.1961 350.91721,661.82843 252.08414,576.99113 243.45182,463.70669 234.81949,350.42225 319.65679,251.58918 432.94123,242.95685 c 111.53833,-8.49927 209.4256,73.68619 220.35944,185.01223"
         sodipodi:ry="205.71428"
         sodipodi:rx="205.71428"
         sodipodi:cy="448.07648"
         sodipodi:cx="448.57144"
         id="path2993"
         style="opacity:0.95614032;fill:#4b7744;fill-opacity:1;stroke:none"
         sodipodi:type="arc" />
      <path
         sodipodi:nodetypes="cccc"
         inkscape:connector-curvature="0"
         id="path3027-5"
         d="m 275.67252,252.67519 -6.57813,-99.46555 -87.82566,65.83215 z"
         style="fill:#614868;stroke:#000000;stroke-width:0.67992812px;stroke-linecap:butt;stroke-linejoin:miter;stroke-opacity:1" />
      <path
         sodipodi:nodetypes="cccc"
         inkscape:connector-curvature="0"
         id="path3027-4"
         d="m 585.71431,534.7971 26.39027,96.27765 72.9803,-82.19765 z"
         style="fill:#614868;stroke:#000000;stroke-width:0.68092519px;stroke-linecap:butt;stroke-linejoin:miter;stroke-opacity:1" />
    </g>
    <path
       inkscape:connector-curvature="0"
       id="path3047"
       style="font-size:20px;font-style:normal;font-variant:normal;font-weight:normal;font-stretch:normal;line-height:125%;letter-spacing:0px;word-spacing:0px;fill:#ffffff;fill-opacity:1;stroke:none;font-family:Cheri;-inkscape-font-specification:Cheri"
       d="m 123.74329,877.43361 -7.40216,26.16485 -5.93756,-0.55417 c -0.55419,-1.74168 -1.87365,-6.10908 -3.95837,-13.10222 l -4.6313,13.10222 -5.620892,0.15834 -4.987551,-26.28361 6.966738,-0.19791 c 0.343048,2.7181 0.923609,7.70565 1.741685,14.96265 l 3.68129,-12.70638 6.37298,1.02918 3.04795,10.2126 3.36462,-13.65639 7.36257,0.87084" />
    <path
       inkscape:connector-curvature="0"
       id="path3049"
       style="font-size:20px;font-style:normal;font-variant:normal;font-weight:normal;font-stretch:normal;line-height:125%;letter-spacing:0px;word-spacing:0px;fill:#ffffff;fill-opacity:1;stroke:none;font-family:Cheri;-inkscape-font-specification:Cheri"
       d="m 156.98746,877.43361 -7.40216,26.16485 -5.93756,-0.55417 c -0.55421,-1.74168 -1.87366,-6.10908 -3.95838,-13.10222 l -4.63131,13.10222 -5.6209,0.15834 -4.98755,-26.28361 6.96674,-0.19791 c 0.34305,2.7181 0.92363,7.70565 1.74171,14.96265 l 3.68128,-12.70638 6.37299,1.02918 3.04792,10.2126 3.36462,-13.65639 7.3626,0.87084" />
    <path
       inkscape:connector-curvature="0"
       id="path3051"
       style="font-size:20px;font-style:normal;font-variant:normal;font-weight:normal;font-stretch:normal;line-height:125%;letter-spacing:0px;word-spacing:0px;fill:#ffffff;fill-opacity:1;stroke:none;font-family:Cheri;-inkscape-font-specification:Cheri"
       d="m 190.2316,877.43361 -7.40216,26.16485 -5.93756,-0.55417 c -0.55419,-1.74168 -1.87365,-6.10908 -3.95837,-13.10222 l -4.6313,13.10222 -5.62089,0.15834 -4.98755,-26.28361 6.96674,-0.19791 c 0.34305,2.7181 0.92361,7.70565 1.74168,14.96265 l 3.68129,-12.70638 6.37298,1.02918 3.04795,10.2126 3.36462,-13.65639 7.36257,0.87084" />
  </g>
</svg>
