<?xml version="1.0" encoding="UTF-8" standalone="no"?>
<!-- Created with Inkscape (http://www.inkscape.org/) -->

<svg
   xmlns:dc="http://purl.org/dc/elements/1.1/"
   xmlns:cc="http://creativecommons.org/ns#"
   xmlns:rdf="http://www.w3.org/1999/02/22-rdf-syntax-ns#"
   xmlns:svg="http://www.w3.org/2000/svg"
   xmlns="http://www.w3.org/2000/svg"
   xmlns:sodipodi="http://sodipodi.sourceforge.net/DTD/sodipodi-0.dtd"
   xmlns:inkscape="http://www.inkscape.org/namespaces/inkscape"
   id="svg7384"
   sodipodi:docname="battery-full-charging-symbolic.svg"
   version="1.1"
   inkscape:version="0.92.1 r15371"
   height="16"
   width="16">
  <metadata
     id="metadata90">
    <rdf:RDF>
      <cc:Work
         rdf:about="">
        <dc:format>image/svg+xml</dc:format>
        <dc:type
           rdf:resource="http://purl.org/dc/dcmitype/StillImage" />
        <dc:title>Gnome Symbolic Icon Theme</dc:title>
      </cc:Work>
    </rdf:RDF>
  </metadata>
  <sodipodi:namedview
     inkscape:cy="6.7392176"
     pagecolor="#ffffff"
     borderopacity="1"
     showborder="true"
     inkscape:bbox-paths="false"
     guidetolerance="10"
     inkscape:object-paths="true"
     inkscape:window-width="1914"
     showguides="true"
     inkscape:object-nodes="true"
     inkscape:snap-bbox="true"
     inkscape:pageshadow="2"
     inkscape:guide-bbox="true"
     inkscape:snap-nodes="false"
     bordercolor="#666666"
     objecttolerance="10"
     id="namedview88"
     showgrid="true"
     inkscape:window-maximized="1"
     inkscape:window-x="0"
     inkscape:snap-global="true"
     inkscape:window-y="24"
     gridtolerance="10"
     inkscape:window-height="1008"
     inkscape:snap-to-guides="true"
     inkscape:current-layer="layer9"
     inkscape:snap-bbox-midpoints="false"
     inkscape:zoom="34.169324"
     inkscape:cx="1.8605143"
     inkscape:snap-grids="true"
     inkscape:pageopacity="0">
    <inkscape:grid
       spacingx="1"
       spacingy="1"
       id="grid4866"
       empspacing="2"
       enabled="true"
       type="xygrid"
       snapvisiblegridlinesonly="true"
       visible="true"
       originx="0"
       originy="0" />
  </sodipodi:namedview>
  <title
     id="title9167">Gnome Symbolic Icon Theme</title>
  <defs
     id="defs7386" />
  <g
     inkscape:label="status"
     transform="translate(-161.0002,-217)"
     inkscape:groupmode="layer"
     id="layer9"
     style="display:inline">
    <path
       style="display:inline;opacity:1;fill:#53676c;fill-opacity:1;stroke:none;stroke-width:0.113;stroke-linecap:round;stroke-linejoin:round;stroke-miterlimit:4;stroke-dasharray:none;stroke-opacity:1;paint-order:fill markers stroke"
       d="M 2.0703125 -0.029296875 L 2.0703125 1.9707031 L 0.0703125 1.9707031 L 0.0703125 3.9707031 L 0.0703125 13.970703 L 0.0703125 15.970703 L 8.0703125 15.970703 L 8.0703125 13.970703 L 2.0703125 13.970703 L 2.0703125 3.9707031 L 4.0703125 3.9707031 L 4.0703125 1.9707031 L 7.0703125 1.9707031 L 7.0703125 3.9707031 L 9.0703125 3.9707031 L 9.0703125 5.9707031 L 9.0703125 6.9707031 L 9.0703125 7.9707031 L 10.070312 7.9707031 L 10.070312 6.9707031 L 11.070312 6.9707031 L 11.070312 5.9707031 L 11.070312 3.9707031 L 11.070312 1.9707031 L 9.0703125 1.9707031 L 9.0703125 -0.029296875 L 2.0703125 -0.029296875 z "
       transform="translate(161.0002,217)"
       id="rect860-0" />
    <path
       style="display:inline;opacity:1;fill:#53676c;fill-opacity:1;stroke:none;stroke-width:0.03995157;stroke-linecap:round;stroke-linejoin:round;stroke-miterlimit:4;stroke-dasharray:none;stroke-opacity:1;paint-order:fill markers stroke"
       d="M 11.070312 7.9707031 L 11.070312 8.9707031 L 10.070312 8.9707031 L 10.070312 9.9707031 L 9.0703125 9.9707031 L 9.0703125 10.970703 L 8.0703125 10.970703 L 8.0703125 11.970703 L 7.0703125 11.970703 L 7.0703125 12.970703 L 8.0703125 12.970703 L 9.0703125 12.970703 L 10.070312 12.970703 L 11.070312 12.970703 L 11.070312 13.970703 L 10.070312 13.970703 L 10.070312 14.970703 L 9.0703125 14.970703 L 9.0703125 15.970703 L 10.070312 15.970703 L 11.070312 15.970703 L 11.070312 14.970703 L 12.070312 14.970703 L 12.070312 13.970703 L 13.070312 13.970703 L 13.070312 12.970703 L 14.070312 12.970703 L 14.070312 11.970703 L 15.070312 11.970703 L 15.070312 10.970703 L 14.070312 10.970703 L 13.070312 10.970703 L 12.070312 10.970703 L 11.070312 10.970703 L 11.070312 9.9707031 L 12.070312 9.9707031 L 12.070312 8.9707031 L 13.070312 8.9707031 L 13.070312 7.9707031 L 12.070312 7.9707031 L 11.070312 7.9707031 z "
       transform="translate(161.0002,217)"
       id="rect860-7-3-5-9-3" />
    <path
       inkscape:connector-curvature="0"
       d="m 163.97706,222.00411 v 2 h 5 v -2 z m 0,3 v 2 l 4.04806,0.024 -0.008,-1.01347 0.95988,-0.0105 v -1 z m 0,3.0625 v 1.9375 h 3 v -1.9375 z"
       id="rect6060-4-3"
       style="display:inline;fill:#98d962;fill-opacity:1;stroke:none"
       sodipodi:nodetypes="ccccccccccccccccc" />
  </g>
  <g
     inkscape:label="devices"
     transform="translate(-161.0002,-217)"
     inkscape:groupmode="layer"
     id="layer10" />
  <g
     inkscape:label="apps"
     transform="translate(-161.0002,-217)"
     inkscape:groupmode="layer"
     id="layer11" />
  <g
     inkscape:label="actions"
     transform="translate(-161.0002,-217)"
     inkscape:groupmode="layer"
     id="layer12" />
  <g
     inkscape:label="places"
     transform="translate(-161.0002,-217)"
     inkscape:groupmode="layer"
     id="layer13" />
  <g
     inkscape:label="mimetypes"
     transform="translate(-161.0002,-217)"
     inkscape:groupmode="layer"
     id="layer14" />
  <g
     inkscape:label="emblems"
     transform="translate(-161.0002,-217)"
     inkscape:groupmode="layer"
     id="layer15"
     style="display:inline" />
  <g
     inkscape:label="categories"
     transform="translate(-161.0002,-217)"
     inkscape:groupmode="layer"
     id="g4953"
     style="display:inline" />
</svg>
