<?xml version="1.0" encoding="UTF-8" standalone="no"?>
<!-- Created with Inkscape (http://www.inkscape.org/) -->

<svg
   xmlns:dc="http://purl.org/dc/elements/1.1/"
   xmlns:cc="http://creativecommons.org/ns#"
   xmlns:rdf="http://www.w3.org/1999/02/22-rdf-syntax-ns#"
   xmlns:svg="http://www.w3.org/2000/svg"
   xmlns="http://www.w3.org/2000/svg"
   xmlns:sodipodi="http://sodipodi.sourceforge.net/DTD/sodipodi-0.dtd"
   xmlns:inkscape="http://www.inkscape.org/namespaces/inkscape"
   id="svg7384"
   version="1.1"
   inkscape:version="0.92.1 r15371"
   height="16"
   sodipodi:docname="blueman-disabled_backup.svg"
   width="16">
  <metadata
     id="metadata90">
    <rdf:RDF>
      <cc:Work
         rdf:about="">
        <dc:format>image/svg+xml</dc:format>
        <dc:type
           rdf:resource="http://purl.org/dc/dcmitype/StillImage" />
        <dc:title>Gnome Symbolic Icon Theme</dc:title>
      </cc:Work>
    </rdf:RDF>
  </metadata>
  <sodipodi:namedview
     inkscape:cy="-40.808651"
     inkscape:current-layer="layer9"
     inkscape:window-width="1914"
     pagecolor="#ffffff"
     showborder="true"
     showguides="true"
     inkscape:snap-nodes="true"
     objecttolerance="10"
     showgrid="true"
     inkscape:object-nodes="true"
     inkscape:pageshadow="2"
     inkscape:guide-bbox="true"
     inkscape:window-x="0"
     inkscape:snap-bbox="true"
     bordercolor="#666666"
     id="namedview88"
     inkscape:window-maximized="1"
     inkscape:snap-global="false"
     inkscape:window-y="24"
     gridtolerance="10"
     inkscape:zoom="2.0163412"
     inkscape:window-height="1008"
     borderopacity="1"
     guidetolerance="10"
     inkscape:cx="-126.57763"
     inkscape:bbox-paths="false"
     inkscape:snap-grids="true"
     inkscape:pageopacity="0"
     inkscape:snap-to-guides="true"
     borderlayer="true">
    <inkscape:grid
       visible="true"
       spacingx="1"
       type="xygrid"
       spacingy="1"
       id="grid4866"
       empspacing="2"
       enabled="true"
       snapvisiblegridlinesonly="true"
       originx="0"
       originy="0" />
  </sodipodi:namedview>
  <title
     id="title9167">Gnome Symbolic Icon Theme</title>
  <defs
     id="defs7386" />
  <g
     transform="translate(-41.0002,-317)"
     inkscape:groupmode="layer"
     id="layer9"
     inkscape:label="status"
     style="display:inline">
    <path
       style="color:#000000;font-style:normal;font-variant:normal;font-weight:normal;font-stretch:normal;font-size:medium;line-height:normal;font-family:'Bitstream Vera Sans';-inkscape-font-specification:'Bitstream Vera Sans';text-indent:0;text-align:start;text-decoration:none;text-decoration-line:none;letter-spacing:normal;word-spacing:normal;text-transform:none;writing-mode:lr-tb;direction:ltr;text-anchor:start;display:inline;overflow:visible;visibility:visible;fill:#4ecae9;fill-opacity:1;stroke:none;stroke-width:2;marker:none;enable-background:accumulate"
       d="m 24.742041,321.09007 a 0.74999186,0.74999186 0 0 0 -0.03125,0.0313 0.74999186,0.74999186 0 0 0 -0.65625,0.75 v 2.65625 l -0.9375,-0.96875 a 0.77339804,0.77339804 0 1 0 -1.09375,1.09375 l 2.03125,2.03125 v 0.84375 l -2.03125,2.03125 a 0.77339804,0.77339804 0 1 0 1.09375,1.09375 l 0.9375,-0.96875 v 2.65625 a 0.74999186,0.74999186 0 0 0 1.3125,0.5625 l 2.0625,-2.03125 v -0.0313 -2.9375 l -0.78125,-0.78125 1.71875,-1.71875 a 0.74999186,0.74999186 0 0 0 0,-1.09375 l -3,-3 a 0.74999186,0.74999186 0 0 0 -0.625,-0.21875 z m 0.8125,2.59375 1.1875,1.1875 -1.1875,1.15625 z m 0,4.5 1.1875,1.15625 -1.1875,1.1875 z"
       id="path3807"
       inkscape:connector-curvature="0" />
    <path
       style="color:#bebebe;display:inline;overflow:visible;visibility:visible;fill:#ff7373;fill-opacity:1;stroke:none;stroke-width:2;marker:none"
       d="m 28.998164,331.14131 v 1.15625 l 0.875,0.875 -0.875,0.84375 v 1.125 h 1.15625 l 0.84375,-0.875 0.875,0.875 h 1.125 v -1.125 l -0.875,-0.84375 0.875,-0.875 v -1.15625 h -1.125 l -0.875,0.875 -0.875,-0.875 z"
       id="path3761-2-3-5-4-8-9-8-0"
       inkscape:connector-curvature="0" />
    <path
       inkscape:connector-curvature="0"
       style="display:inline;opacity:1;fill:#53676c;fill-opacity:1;stroke:none;stroke-width:0.3772811;stroke-linecap:round;stroke-linejoin:round;stroke-miterlimit:4;stroke-dasharray:none;stroke-opacity:1;paint-order:fill markers stroke"
       d="m 46.051075,318.03038 v 5 h -1 v -1 h -1 v -1 h -1 -1 v 1 h 1 v 1 h 1 v 1 h 1 v 1 1 h -1 v 1 h -1 v 1 h -1 v 1 h 1 1 v -1 h 1 v -1 h 1 v 5 h 1 0.04687 0.953125 v -1 h 1 v -1 h 1 v -1 h 1 v -1 h 1 v -1 h -1 v -1 h -1 v -1 -1 h 1 v -1 h 1 v -1 h -1 v -1 h -1 v -1 h -1 v -1 h -1 v -1 h -0.95312 -0.04687 z m 1.046875,2 h 0.953125 v 1 h 1 v 1 h 1 v 1 h -1 v 1 h -1 -0.953125 z m 0,6 h 0.953125 1 v 1 h 1 v 1 h -1 v 1 h -1 v 1 H 47.09795 Z"
       id="rect836" />
    <rect
       style="opacity:1;fill:#ff7373;fill-opacity:1;stroke:none;stroke-width:0.93348604;stroke-opacity:1;paint-order:markers stroke fill"
       id="rect5584-23-9-25-7-9"
       width="0.98901898"
       height="0.99571854"
       x="-53.002636"
       y="328.98697"
       transform="scale(-1,1)" />
    <rect
       style="opacity:1;fill:#ff7373;fill-opacity:1;stroke:none;stroke-width:0.93348604;stroke-opacity:1;paint-order:markers stroke fill"
       id="rect5584-23-9-25-7-9-1"
       width="0.98901898"
       height="0.99571854"
       x="-53.991657"
       y="329.9827"
       transform="scale(-1,1)" />
    <rect
       style="opacity:1;fill:#ff7373;fill-opacity:1;stroke:none;stroke-width:0.93348604;stroke-opacity:1;paint-order:markers stroke fill"
       id="rect5584-23-9-25-7-9-7"
       width="0.98901898"
       height="0.99571854"
       x="-54.994072"
       y="330.97842"
       transform="scale(-1,1)" />
    <rect
       style="opacity:1;fill:#ff7373;fill-opacity:1;stroke:none;stroke-width:0.93348604;stroke-opacity:1;paint-order:markers stroke fill"
       id="rect5584-23-9-25-7-9-71"
       width="0.98901898"
       height="0.99571854"
       x="-54.994072"
       y="328.98697"
       transform="scale(-1,1)" />
    <rect
       style="opacity:1;fill:#ff7373;fill-opacity:1;stroke:none;stroke-width:0.93348604;stroke-opacity:1;paint-order:markers stroke fill"
       id="rect5584-23-9-25-7-9-15"
       width="0.98901898"
       height="0.99571854"
       x="-52.995937"
       y="330.97842"
       transform="scale(-1,1)" />
    <rect
       style="opacity:1;fill:#ff7373;fill-opacity:1;stroke:none;stroke-width:0.93348604;stroke-opacity:1;paint-order:markers stroke fill"
       id="rect5584-23-9-25-7-9-71-63"
       width="0.98901898"
       height="0.99571854"
       x="-44.009762"
       y="338.06516"
       transform="scale(-1,1)" />
  </g>
  <g
     transform="translate(-41.0002,-317)"
     inkscape:groupmode="layer"
     id="layer10"
     inkscape:label="devices" />
  <g
     transform="translate(-41.0002,-317)"
     inkscape:groupmode="layer"
     id="layer11"
     inkscape:label="apps" />
  <g
     transform="translate(-41.0002,-317)"
     inkscape:groupmode="layer"
     id="layer12"
     inkscape:label="actions" />
  <g
     transform="translate(-41.0002,-317)"
     inkscape:groupmode="layer"
     id="layer13"
     inkscape:label="places" />
  <g
     transform="translate(-41.0002,-317)"
     inkscape:groupmode="layer"
     id="layer14"
     inkscape:label="mimetypes" />
  <g
     transform="translate(-41.0002,-317)"
     inkscape:groupmode="layer"
     id="layer15"
     inkscape:label="emblems"
     style="display:inline" />
</svg>
