<?xml version="1.0" encoding="UTF-8" standalone="no"?>
<!-- Created with Inkscape (http://www.inkscape.org/) -->

<svg
   xmlns:dc="http://purl.org/dc/elements/1.1/"
   xmlns:cc="http://creativecommons.org/ns#"
   xmlns:rdf="http://www.w3.org/1999/02/22-rdf-syntax-ns#"
   xmlns:svg="http://www.w3.org/2000/svg"
   xmlns="http://www.w3.org/2000/svg"
   xmlns:sodipodi="http://sodipodi.sourceforge.net/DTD/sodipodi-0.dtd"
   xmlns:inkscape="http://www.inkscape.org/namespaces/inkscape"
   width="256"
   height="256"
   id="svg2"
   version="1.1"
   inkscape:version="0.48.3.1 r9886"
   sodipodi:docname="dropboxstatus-x.svg">
  <defs
     id="defs4" />
  <sodipodi:namedview
     id="base"
     pagecolor="#ffffff"
     bordercolor="#666666"
     borderopacity="1.0"
     inkscape:pageopacity="0.0"
     inkscape:pageshadow="2"
     inkscape:zoom="0.73398655"
     inkscape:cx="-78.581122"
     inkscape:cy="38.560388"
     inkscape:document-units="px"
     inkscape:current-layer="layer1"
     showgrid="false"
     inkscape:window-width="1914"
     inkscape:window-height="1031"
     inkscape:window-x="0"
     inkscape:window-y="25"
     inkscape:window-maximized="1" />
  <metadata
     id="metadata7">
    <rdf:RDF>
      <cc:Work
         rdf:about="">
        <dc:format>image/svg+xml</dc:format>
        <dc:type
           rdf:resource="http://purl.org/dc/dcmitype/StillImage" />
        <dc:title />
      </cc:Work>
    </rdf:RDF>
  </metadata>
  <g
     inkscape:label="Capa 1"
     inkscape:groupmode="layer"
     id="layer1"
     transform="translate(0,-796.36218)">
    <g
       transform="matrix(10.748045,0,0,10.748045,-549.27945,-4688.294)"
       id="layer9-7"
       style="fill:#4ecae9;fill-opacity:1;display:inline" />
    <g
       style="fill:#4ecae9;fill-opacity:1"
       transform="matrix(10.748045,0,0,10.748045,-549.27945,-4688.294)"
       id="layer10-8" />
    <g
       style="fill:#4ecae9;fill-opacity:1"
       transform="matrix(10.748045,0,0,10.748045,-549.27945,-4688.294)"
       id="layer11-2" />
    <g
       style="fill:#4ecae9;fill-opacity:1"
       transform="matrix(10.748045,0,0,10.748045,-549.27945,-4688.294)"
       id="layer13-8" />
    <g
       style="fill:#4ecae9;fill-opacity:1"
       transform="matrix(10.748045,0,0,10.748045,-549.27945,-4688.294)"
       id="layer14-0" />
    <g
       style="fill:#4ecae9;fill-opacity:1"
       transform="matrix(10.748045,0,0,10.748045,-549.27945,-4688.294)"
       id="layer15-2" />
    <g
       transform="matrix(2.810815,0,0,2.810815,-1452.8724,-470.83044)"
       id="g3075"
       style="opacity:0.6;fill:#4ecae9;fill-opacity:1">
      <path
         inkscape:connector-curvature="0"
         id="path3050-8"
         d="m 520,472.71932 25,-17.14285 17.3916,15.35714 -25.01917,16.20538 z"
         style="fill:#4ecae9;fill-opacity:1;stroke:none"
         sodipodi:nodetypes="ccccc" />
      <path
         inkscape:connector-curvature="0"
         id="path3052"
         d="m 519.64286,500.93361 17.5,-13.92857 24.64286,16.30739 -17.5,14.40689 z"
         style="fill:#4ecae9;fill-opacity:1;stroke:none"
         sodipodi:nodetypes="ccccc" />
      <path
         sodipodi:nodetypes="ccccc"
         inkscape:connector-curvature="0"
         id="path3054"
         d="M 561.78572,503.07647 587.5,487.71932 l 16.78572,13.92858 -25.35714,16.25 z"
         style="fill:#4ecae9;fill-opacity:1;stroke:none" />
      <path
         inkscape:connector-curvature="0"
         id="path3056"
         d="M 562.49361,470.92722 580,456.29075 603.92857,472.36218 587.5,487.61092 z"
         style="fill:#4ecae9;fill-opacity:1;stroke:none"
         sodipodi:nodetypes="ccccc" />
      <path
         sodipodi:nodetypes="ccccccccc"
         inkscape:connector-curvature="0"
         id="path3058"
         d="m 537.14286,516.64789 -0.35714,5.71429 26.07142,15.71429 26.60715,-16.96429 -0.53571,-5.17857 -10.53572,6.42857 -16.25,-14.64286 -17.67858,14.28571 z"
         style="fill:#4ecae9;fill-opacity:1;stroke:none" />
    </g>
    <rect
       style="fill:#ffffff;fill-opacity:1;stroke:none"
       id="rect2992-3"
       width="108.83724"
       height="101.42947"
       x="125.44861"
       y="913.73364"
       ry="0" />
    <g
       transform="matrix(16.540361,0,0,16.540361,-25.038178,797.51664)"
       id="g3016">
      <path
         inkscape:connector-curvature="0"
         id="path3123"
         d="m 10.71875,7.9375 a 0.71788986,0.71788986 0 0 0 -0.5,1.25 l 3.59375,3.59375 A 0.72920387,0.72920387 0 1 0 14.84375,11.75 L 11.25,8.15625 A 0.71788986,0.71788986 0 0 0 10.71875,7.9375 z"
         style="font-size:medium;font-style:normal;font-variant:normal;font-weight:normal;font-stretch:normal;text-indent:0;text-align:start;text-decoration:none;line-height:normal;letter-spacing:normal;word-spacing:normal;text-transform:none;direction:ltr;block-progression:tb;writing-mode:lr-tb;text-anchor:start;baseline-shift:baseline;color:#000000;fill:#ff7373;fill-opacity:1;fill-rule:nonzero;stroke:none;stroke-width:1.43563616;marker:none;visibility:visible;display:inline;overflow:visible;enable-background:accumulate;font-family:Sans;-inkscape-font-specification:Sans" />
      <path
         inkscape:connector-curvature="0"
         id="path3125"
         d="M 14.15625,7.96875 A 0.71788986,0.71788986 0 0 0 13.8125,8.15625 L 10.21875,11.75 A 0.72920387,0.72920387 0 1 0 11.25,12.78125 L 14.84375,9.1875 a 0.71788986,0.71788986 0 0 0 -0.6875,-1.21875 z"
         style="font-size:medium;font-style:normal;font-variant:normal;font-weight:normal;font-stretch:normal;text-indent:0;text-align:start;text-decoration:none;line-height:normal;letter-spacing:normal;word-spacing:normal;text-transform:none;direction:ltr;block-progression:tb;writing-mode:lr-tb;text-anchor:start;baseline-shift:baseline;color:#000000;fill:#ff7373;fill-opacity:1;fill-rule:nonzero;stroke:none;stroke-width:1.43563616;marker:none;visibility:visible;display:inline;overflow:visible;enable-background:accumulate;font-family:Sans;-inkscape-font-specification:Sans" />
    </g>
  </g>
</svg>
