<?xml version="1.0" encoding="UTF-8" standalone="no"?>
<!-- Created with Inkscape (http://www.inkscape.org/) -->

<svg
   xmlns:dc="http://purl.org/dc/elements/1.1/"
   xmlns:cc="http://creativecommons.org/ns#"
   xmlns:rdf="http://www.w3.org/1999/02/22-rdf-syntax-ns#"
   xmlns:svg="http://www.w3.org/2000/svg"
   xmlns="http://www.w3.org/2000/svg"
   xmlns:sodipodi="http://sodipodi.sourceforge.net/DTD/sodipodi-0.dtd"
   xmlns:inkscape="http://www.inkscape.org/namespaces/inkscape"
   width="256"
   height="256"
   id="svg3832"
   version="1.1"
   inkscape:version="0.48.3.1 r9886"
   sodipodi:docname="hcompartir-idle.svg"
   inkscape:export-filename="/home/alumno/Dropbox/huayra/logos/compartir-web.png"
   inkscape:export-xdpi="5.527988"
   inkscape:export-ydpi="5.527988">
  <defs
     id="defs3834" />
  <sodipodi:namedview
     id="base"
     pagecolor="#e6e7e8"
     bordercolor="#666666"
     borderopacity="1.0"
     inkscape:pageopacity="0"
     inkscape:pageshadow="2"
     inkscape:zoom="0.7"
     inkscape:cx="152.74338"
     inkscape:cy="36.434251"
     inkscape:document-units="px"
     inkscape:current-layer="layer1"
     showgrid="false"
     showguides="false"
     inkscape:window-width="1914"
     inkscape:window-height="1031"
     inkscape:window-x="0"
     inkscape:window-y="25"
     inkscape:window-maximized="1"
     fit-margin-top="0"
     fit-margin-left="0"
     fit-margin-right="0"
     fit-margin-bottom="0" />
  <metadata
     id="metadata3837">
    <rdf:RDF>
      <cc:Work
         rdf:about="">
        <dc:format>image/svg+xml</dc:format>
        <dc:type
           rdf:resource="http://purl.org/dc/dcmitype/StillImage" />
        <dc:title />
      </cc:Work>
    </rdf:RDF>
  </metadata>
  <g
     inkscape:label="Capa 1"
     inkscape:groupmode="layer"
     id="layer1"
     transform="translate(1563.7749,344.58422)">
    <path
       sodipodi:type="arc"
       style="fill:#4ecae9;fill-opacity:0.30000001;stroke:none"
       id="path3848-2-9-2-9-8-4-6-3-9"
       sodipodi:cx="-410"
       sodipodi:cy="263.79074"
       sodipodi:rx="45.714287"
       sodipodi:ry="84.285713"
       d="m -364.28571,263.79074 c 0,46.54971 -20.46699,84.28571 -45.71429,84.28571 -25.2473,0 -45.71429,-37.736 -45.71429,-84.28571 0,-46.54971 20.46699,-84.28571 45.71429,-84.28571 25.2473,0 45.71429,37.736 45.71429,84.28571 z"
       transform="matrix(-0.0477399,0.4308523,-0.47140149,-0.02419322,-1403.332,-28.961156)"
       inkscape:transform-center-x="-15.417242"
       inkscape:transform-center-y="1.4467684" />
    <path
       transform="matrix(0.43271654,0,0,0.43271654,-1249.4096,-396.59913)"
       sodipodi:type="arc"
       style="fill:#4ecae9;fill-opacity:0.80000001;stroke:none;opacity:1"
       id="path3846-7-4-3-2"
       sodipodi:cx="-425.71429"
       sodipodi:cy="420.93362"
       sodipodi:rx="62.857143"
       sodipodi:ry="62.857143"
       d="m -362.85715,420.93362 c 0,34.71505 -28.1421,62.85715 -62.85714,62.85715 -34.71505,0 -62.85715,-28.1421 -62.85715,-62.85715 0,-34.71504 28.1421,-62.85714 62.85715,-62.85714 30.06277,0 55.91699,21.28695 61.68807,50.79059"
       sodipodi:start="0"
       sodipodi:end="6.0900184"
       sodipodi:open="true" />
    <path
       sodipodi:type="arc"
       style="opacity:1;fill:#4ecae9;fill-opacity:0.80000001;stroke:none"
       id="path3848-7-6-4-3"
       sodipodi:cx="-410"
       sodipodi:cy="263.79074"
       sodipodi:rx="45.714287"
       sodipodi:ry="84.285713"
       d="m -364.28571,263.79074 c 0,46.54971 -20.46699,84.28571 -45.71429,84.28571 -25.2473,0 -45.71429,-37.736 -45.71429,-84.28571 0,-46.54971 20.46699,-84.28571 45.71429,-84.28571 21.86383,0 40.6669,28.54387 44.86406,68.10556"
       sodipodi:start="0"
       sodipodi:end="6.0900184"
       sodipodi:open="true"
       transform="matrix(0.43271654,0,0,0.43271654,-1257.4457,-399.07181)" />
    <path
       sodipodi:type="arc"
       style="opacity:1;fill:#4ecae9;stroke:none;fill-opacity:0.80000001"
       id="path3848-2-6-2-8-5"
       sodipodi:cx="-410"
       sodipodi:cy="263.79074"
       sodipodi:rx="45.714287"
       sodipodi:ry="84.285713"
       d="m -364.28571,263.79074 c 0,46.54971 -20.46699,84.28571 -45.71429,84.28571 -25.2473,0 -45.71429,-37.736 -45.71429,-84.28571 0,-46.54971 20.46699,-84.28571 45.71429,-84.28571 21.86383,0 40.6669,28.54387 44.86406,68.10556"
       sodipodi:start="0"
       sodipodi:end="6.0900184"
       sodipodi:open="true"
       transform="matrix(0.3528757,-0.25044429,0.25044429,0.3528757,-1407.4471,-463.27799)" />
    <path
       sodipodi:type="arc"
       style="opacity:1;fill:#4ecae9;fill-opacity:0.80000001;stroke:none"
       id="path3848-2-9-2-2-5-3-2"
       sodipodi:cx="-410"
       sodipodi:cy="263.79074"
       sodipodi:rx="45.714287"
       sodipodi:ry="84.285713"
       d="m -364.28571,263.79074 c 0,46.54971 -20.46699,84.28571 -45.71429,84.28571 -25.2473,0 -45.71429,-37.736 -45.71429,-84.28571 0,-46.54971 20.46699,-84.28571 45.71429,-84.28571 21.86383,0 40.6669,28.54387 44.86406,68.10556"
       sodipodi:start="0"
       sodipodi:end="6.0900184"
       sodipodi:open="true"
       transform="matrix(-0.26406908,-0.34324396,0.33073461,-0.27917292,-1682.3221,-229.0369)"
       inkscape:transform-center-x="11.306638"
       inkscape:transform-center-y="8.6079444" />
    <path
       sodipodi:type="arc"
       style="opacity:1;fill:#4ecae9;fill-opacity:0.80000001;stroke:none"
       id="path3848-2-9-2-9-38-6-9-1"
       sodipodi:cx="-410"
       sodipodi:cy="263.79074"
       sodipodi:rx="45.714287"
       sodipodi:ry="84.285713"
       d="m -364.28571,263.79074 c 0,46.54971 -20.46699,84.28571 -45.71429,84.28571 -25.2473,0 -45.71429,-37.736 -45.71429,-84.28571 0,-46.54971 20.46699,-84.28571 45.71429,-84.28571 21.86383,0 40.6669,28.54387 44.86406,68.10556"
       sodipodi:start="0"
       sodipodi:end="6.0900184"
       sodipodi:open="true"
       transform="matrix(-0.43295475,0.00995413,-0.02953154,-0.43179948,-1600.3468,-25.314794)"
       inkscape:transform-center-x="-0.25261687"
       inkscape:transform-center-y="14.211091" />
    <path
       sodipodi:type="arc"
       style="opacity:1;fill:#4ecae9;fill-opacity:0.80000001;stroke:none"
       id="path3848-2-9-2-9-3-5-2-6-5"
       sodipodi:cx="-410"
       sodipodi:cy="263.79074"
       sodipodi:rx="45.714287"
       sodipodi:ry="84.285713"
       d="m -364.28571,263.79074 c 0,46.54971 -20.46699,84.28571 -45.71429,84.28571 -25.2473,0 -45.71429,-37.736 -45.71429,-84.28571 0,-46.54971 20.46699,-84.28571 45.71429,-84.28571 21.86383,0 40.6669,28.54387 44.86406,68.10556"
       sodipodi:start="0"
       sodipodi:end="6.0900184"
       sodipodi:open="true"
       transform="matrix(-0.31942627,-0.29243078,0.27749892,-0.3321404,-1584.0824,-302.70248)"
       inkscape:transform-center-x="9.6498688"
       inkscape:transform-center-y="10.433442" />
    <path
       sodipodi:type="arc"
       style="opacity:1;fill:#4ecae9;fill-opacity:0.80000001;stroke:none"
       id="path3848-2-9-2-9-8-7-7-9-5"
       sodipodi:cx="-410"
       sodipodi:cy="263.79074"
       sodipodi:rx="45.714287"
       sodipodi:ry="84.285713"
       d="m -364.28571,263.79074 c 0,46.54971 -20.46699,84.28571 -45.71429,84.28571 -25.2473,0 -45.71429,-37.736 -45.71429,-84.28571 0,-46.54971 20.46699,-84.28571 45.71429,-84.28571 21.86383,0 40.6669,28.54387 44.86406,68.10556"
       sodipodi:start="0"
       sodipodi:end="6.0900184"
       sodipodi:open="true"
       transform="matrix(-0.2663435,0.34148212,-0.35297977,-0.25045595,-1392.9474,37.469446)"
       inkscape:transform-center-x="-11.16174"
       inkscape:transform-center-y="8.7985371" />
    <path
       sodipodi:type="arc"
       style="opacity:1;fill:#4ecae9;fill-opacity:0.80000001;stroke:none"
       id="path3848-2-9-2-9-8-4-6-0-4-2"
       sodipodi:cx="-410"
       sodipodi:cy="263.79074"
       sodipodi:rx="45.714287"
       sodipodi:ry="84.285713"
       d="m -364.28571,263.79074 c 0,46.54971 -20.46699,84.28571 -45.71429,84.28571 -25.2473,0 -45.71429,-37.736 -45.71429,-84.28571 0,-46.54971 20.46699,-84.28571 45.71429,-84.28571 21.86383,0 40.6669,28.54387 44.86406,68.10556"
       sodipodi:start="0"
       sodipodi:end="6.0900184"
       sodipodi:open="true"
       transform="matrix(-0.04376293,0.4308523,-0.43213144,-0.02419322,-1263.433,-32.895085)"
       inkscape:transform-center-x="-14.132917"
       inkscape:transform-center-y="1.4468098" />
    <g
       id="g4858"
       transform="matrix(0.64665556,0,0,0.64665556,-114.54571,-903.91705)">
      <g
         id="g4738">
        <path
           sodipodi:type="arc"
           style="opacity:0.59080003;fill:#aad400;fill-opacity:1;stroke:none"
           id="path3848-2-9-2-9-8-4-6-3-9-5"
           sodipodi:cx="-410"
           sodipodi:cy="263.79074"
           sodipodi:rx="45.714287"
           sodipodi:ry="84.285713"
           d="m -364.28571,263.79074 c 0,46.54971 -20.46699,84.28571 -45.71429,84.28571 -25.2473,0 -45.71429,-37.736 -45.71429,-84.28571 0,-46.54971 20.46699,-84.28571 45.71429,-84.28571 25.2473,0 45.71429,37.736 45.71429,84.28571 z"
           transform="matrix(-0.07382585,0.66627789,-0.7289839,-0.03741284,-1502.9512,1365.0058)"
           inkscape:transform-center-x="-15.417242"
           inkscape:transform-center-y="1.4467684" />
        <path
           transform="matrix(0.66916078,0,0,0.66916078,-1264.9228,796.48368)"
           sodipodi:type="arc"
           style="fill:#4d4d4d;fill-opacity:0.59215686;stroke:none"
           id="path3846-7-4-3-2-5"
           sodipodi:cx="-425.71429"
           sodipodi:cy="420.93362"
           sodipodi:rx="62.857143"
           sodipodi:ry="62.857143"
           d="m -362.85715,420.93362 c 0,34.71505 -28.1421,62.85715 -62.85714,62.85715 -34.71505,0 -62.85715,-28.1421 -62.85715,-62.85715 0,-34.71504 28.1421,-62.85714 62.85715,-62.85714 30.06277,0 55.91699,21.28695 61.68807,50.79059"
           sodipodi:start="0"
           sodipodi:end="6.0900184"
           sodipodi:open="true" />
        <path
           sodipodi:type="arc"
           style="opacity:0.59080003;fill:#4d4d4d;fill-opacity:1;stroke:none"
           id="path3848-7-6-4-3-5"
           sodipodi:cx="-410"
           sodipodi:cy="263.79074"
           sodipodi:rx="45.714287"
           sodipodi:ry="84.285713"
           d="m -364.28571,263.79074 c 0,46.54971 -20.46699,84.28571 -45.71429,84.28571 -25.2473,0 -45.71429,-37.736 -45.71429,-84.28571 0,-46.54971 20.46699,-84.28571 45.71429,-84.28571 21.86383,0 40.6669,28.54387 44.86406,68.10556"
           sodipodi:start="0"
           sodipodi:end="6.0900184"
           sodipodi:open="true"
           transform="matrix(0.66916078,0,0,0.66916078,-1277.35,792.65988)" />
        <path
           sodipodi:type="arc"
           style="opacity:0.59080003;fill:#4d4d4d;stroke:#917c6f"
           id="path3848-2-6-2-8-5-3"
           sodipodi:cx="-410"
           sodipodi:cy="263.79074"
           sodipodi:rx="45.714287"
           sodipodi:ry="84.285713"
           d="m -364.28571,263.79074 c 0,46.54971 -20.46699,84.28571 -45.71429,84.28571 -25.2473,0 -45.71429,-37.736 -45.71429,-84.28571 0,-46.54971 20.46699,-84.28571 45.71429,-84.28571 21.86383,0 40.6669,28.54387 44.86406,68.10556"
           sodipodi:start="0"
           sodipodi:end="6.0900184"
           sodipodi:open="true"
           transform="matrix(0.54569345,-0.38729164,0.38729164,0.54569345,-1509.3149,693.37028)" />
        <path
           sodipodi:type="arc"
           style="opacity:0.59080003;fill:#4d4d4d;fill-opacity:1;stroke:none"
           id="path3848-2-9-2-2-5-3-2-2"
           sodipodi:cx="-410"
           sodipodi:cy="263.79074"
           sodipodi:rx="45.714287"
           sodipodi:ry="84.285713"
           d="m -364.28571,263.79074 c 0,46.54971 -20.46699,84.28571 -45.71429,84.28571 -25.2473,0 -45.71429,-37.736 -45.71429,-84.28571 0,-46.54971 20.46699,-84.28571 45.71429,-84.28571 21.86383,0 40.6669,28.54387 44.86406,68.10556"
           sodipodi:start="0"
           sodipodi:end="6.0900184"
           sodipodi:open="true"
           transform="matrix(-0.40836126,-0.53079875,0.51145405,-0.43171811,-1934.3866,1055.605)"
           inkscape:transform-center-x="11.306638"
           inkscape:transform-center-y="8.6079444" />
        <path
           sodipodi:type="arc"
           style="opacity:0.59080003;fill:#4d4d4d;fill-opacity:1;stroke:none"
           id="path3848-2-9-2-9-38-6-9-1-8"
           sodipodi:cx="-410"
           sodipodi:cy="263.79074"
           sodipodi:rx="45.714287"
           sodipodi:ry="84.285713"
           d="m -364.28571,263.79074 c 0,46.54971 -20.46699,84.28571 -45.71429,84.28571 -25.2473,0 -45.71429,-37.736 -45.71429,-84.28571 0,-46.54971 20.46699,-84.28571 45.71429,-84.28571 21.86383,0 40.6669,28.54387 44.86406,68.10556"
           sodipodi:start="0"
           sodipodi:end="6.0900184"
           sodipodi:open="true"
           transform="matrix(-0.66952916,0.01539325,-0.04566812,-0.66774262,-1807.6185,1370.6446)"
           inkscape:transform-center-x="-0.25261687"
           inkscape:transform-center-y="14.211091" />
        <path
           sodipodi:type="arc"
           style="opacity:0.59080003;fill:#4d4d4d;fill-opacity:1;stroke:none"
           id="path3848-2-9-2-9-3-5-2-6-5-6"
           sodipodi:cx="-410"
           sodipodi:cy="263.79074"
           sodipodi:rx="45.714287"
           sodipodi:ry="84.285713"
           d="m -364.28571,263.79074 c 0,46.54971 -20.46699,84.28571 -45.71429,84.28571 -25.2473,0 -45.71429,-37.736 -45.71429,-84.28571 0,-46.54971 20.46699,-84.28571 45.71429,-84.28571 21.86383,0 40.6669,28.54387 44.86406,68.10556"
           sodipodi:start="0"
           sodipodi:end="6.0900184"
           sodipodi:open="true"
           transform="matrix(-0.49396663,-0.45222032,0.42912941,-0.513628,-1782.467,941.68718)"
           inkscape:transform-center-x="9.6498688"
           inkscape:transform-center-y="10.433442" />
        <path
           sodipodi:type="arc"
           style="opacity:0.59080003;fill:#4d4d4d;fill-opacity:1;stroke:none"
           id="path3848-2-9-2-9-8-7-7-9-5-7"
           sodipodi:cx="-410"
           sodipodi:cy="263.79074"
           sodipodi:rx="45.714287"
           sodipodi:ry="84.285713"
           d="m -364.28571,263.79074 c 0,46.54971 -20.46699,84.28571 -45.71429,84.28571 -25.2473,0 -45.71429,-37.736 -45.71429,-84.28571 0,-46.54971 20.46699,-84.28571 45.71429,-84.28571 21.86383,0 40.6669,28.54387 44.86406,68.10556"
           sodipodi:start="0"
           sodipodi:end="6.0900184"
           sodipodi:open="true"
           transform="matrix(-0.41187846,0.52807421,-0.54585438,-0.38730967,-1486.8923,1467.7353)"
           inkscape:transform-center-x="-11.16174"
           inkscape:transform-center-y="8.7985371" />
        <path
           sodipodi:type="arc"
           style="opacity:0.59080003;fill:#4d4d4d;fill-opacity:1;stroke:none"
           id="path3848-2-9-2-9-8-4-6-0-4-2-2"
           sodipodi:cx="-410"
           sodipodi:cy="263.79074"
           sodipodi:rx="45.714287"
           sodipodi:ry="84.285713"
           d="m -364.28571,263.79074 c 0,46.54971 -20.46699,84.28571 -45.71429,84.28571 -25.2473,0 -45.71429,-37.736 -45.71429,-84.28571 0,-46.54971 20.46699,-84.28571 45.71429,-84.28571 21.86383,0 40.6669,28.54387 44.86406,68.10556"
           sodipodi:start="0"
           sodipodi:end="6.0900184"
           sodipodi:open="true"
           transform="matrix(-0.0676758,0.66627789,-0.66825598,-0.03741284,-1286.6088,1358.9223)"
           inkscape:transform-center-x="-14.132917"
           inkscape:transform-center-y="1.4468098" />
      </g>
    </g>
    <path
       sodipodi:type="arc"
       style="opacity:0.59080003;fill:#aad400;fill-opacity:1;stroke:none"
       id="path3848-2-9-2-9-8-4-6-3-9-5-3"
       sodipodi:cx="-410"
       sodipodi:cy="263.79074"
       sodipodi:rx="45.714287"
       sodipodi:ry="84.285713"
       d="m -364.28571,263.79074 c 0,46.54971 -20.46699,84.28571 -45.71429,84.28571 -25.2473,0 -45.71429,-37.736 -45.71429,-84.28571 0,-46.54971 20.46699,-84.28571 45.71429,-84.28571 25.2473,0 45.71429,37.736 45.71429,84.28571 z"
       transform="matrix(-0.0477399,0.4308523,-0.47140149,-0.02419322,-827.92551,-25.279069)"
       inkscape:transform-center-x="-9.9696493"
       inkscape:transform-center-y="0.9355612" />
    <path
       transform="matrix(0.43271653,0,0,0.43271653,-674.00312,-392.91705)"
       sodipodi:type="arc"
       style="fill:#4d4d4d;fill-opacity:0.59215686;stroke:none"
       id="path3846-7-4-3-2-5-0"
       sodipodi:cx="-425.71429"
       sodipodi:cy="420.93362"
       sodipodi:rx="62.857143"
       sodipodi:ry="62.857143"
       d="m -362.85715,420.93362 c 0,34.71505 -28.1421,62.85715 -62.85714,62.85715 -34.71505,0 -62.85715,-28.1421 -62.85715,-62.85715 0,-34.71504 28.1421,-62.85714 62.85715,-62.85714 30.06277,0 55.91699,21.28695 61.68807,50.79059"
       sodipodi:start="0"
       sodipodi:end="6.0900184"
       sodipodi:open="true" />
    <path
       sodipodi:type="arc"
       style="opacity:0.59080003;fill:#4d4d4d;fill-opacity:1;stroke:none"
       id="path3848-7-6-4-3-5-73"
       sodipodi:cx="-410"
       sodipodi:cy="263.79074"
       sodipodi:rx="45.714287"
       sodipodi:ry="84.285713"
       d="m -364.28571,263.79074 c 0,46.54971 -20.46699,84.28571 -45.71429,84.28571 -25.2473,0 -45.71429,-37.736 -45.71429,-84.28571 0,-46.54971 20.46699,-84.28571 45.71429,-84.28571 21.86383,0 40.6669,28.54387 44.86406,68.10556"
       sodipodi:start="0"
       sodipodi:end="6.0900184"
       sodipodi:open="true"
       transform="matrix(0.43271653,0,0,0.43271653,-682.03924,-395.38973)" />
    <path
       sodipodi:type="arc"
       style="opacity:0.59080003;fill:#4d4d4d;stroke:#917c6f"
       id="path3848-2-6-2-8-5-3-5"
       sodipodi:cx="-410"
       sodipodi:cy="263.79074"
       sodipodi:rx="45.714287"
       sodipodi:ry="84.285713"
       d="m -364.28571,263.79074 c 0,46.54971 -20.46699,84.28571 -45.71429,84.28571 -25.2473,0 -45.71429,-37.736 -45.71429,-84.28571 0,-46.54971 20.46699,-84.28571 45.71429,-84.28571 21.86383,0 40.6669,28.54387 44.86406,68.10556"
       sodipodi:start="0"
       sodipodi:end="6.0900184"
       sodipodi:open="true"
       transform="matrix(0.3528757,-0.25044429,0.25044429,0.3528757,-832.04064,-459.5959)" />
    <path
       sodipodi:type="arc"
       style="opacity:0.59080003;fill:#4d4d4d;fill-opacity:1;stroke:none"
       id="path3848-2-9-2-2-5-3-2-2-49"
       sodipodi:cx="-410"
       sodipodi:cy="263.79074"
       sodipodi:rx="45.714287"
       sodipodi:ry="84.285713"
       d="m -364.28571,263.79074 c 0,46.54971 -20.46699,84.28571 -45.71429,84.28571 -25.2473,0 -45.71429,-37.736 -45.71429,-84.28571 0,-46.54971 20.46699,-84.28571 45.71429,-84.28571 21.86383,0 40.6669,28.54387 44.86406,68.10556"
       sodipodi:start="0"
       sodipodi:end="6.0900184"
       sodipodi:open="true"
       transform="matrix(-0.26406908,-0.34324396,0.33073461,-0.27917291,-1106.9156,-225.35482)"
       inkscape:transform-center-x="7.3114952"
       inkscape:transform-center-y="5.5663744" />
    <path
       sodipodi:type="arc"
       style="opacity:0.59080003;fill:#4d4d4d;fill-opacity:1;stroke:none"
       id="path3848-2-9-2-9-38-6-9-1-8-41"
       sodipodi:cx="-410"
       sodipodi:cy="263.79074"
       sodipodi:rx="45.714287"
       sodipodi:ry="84.285713"
       d="m -364.28571,263.79074 c 0,46.54971 -20.46699,84.28571 -45.71429,84.28571 -25.2473,0 -45.71429,-37.736 -45.71429,-84.28571 0,-46.54971 20.46699,-84.28571 45.71429,-84.28571 21.86383,0 40.6669,28.54387 44.86406,68.10556"
       sodipodi:start="0"
       sodipodi:end="6.0900184"
       sodipodi:open="true"
       transform="matrix(-0.43295476,0.00995413,-0.02953154,-0.43179948,-1024.9403,-21.632708)"
       inkscape:transform-center-x="-0.1633655"
       inkscape:transform-center-y="9.1896798" />
    <path
       sodipodi:type="arc"
       style="opacity:0.59080003;fill:#4d4d4d;fill-opacity:1;stroke:none"
       id="path3848-2-9-2-9-3-5-2-6-5-6-8"
       sodipodi:cx="-410"
       sodipodi:cy="263.79074"
       sodipodi:rx="45.714287"
       sodipodi:ry="84.285713"
       d="m -364.28571,263.79074 c 0,46.54971 -20.46699,84.28571 -45.71429,84.28571 -25.2473,0 -45.71429,-37.736 -45.71429,-84.28571 0,-46.54971 20.46699,-84.28571 45.71429,-84.28571 21.86383,0 40.6669,28.54387 44.86406,68.10556"
       sodipodi:start="0"
       sodipodi:end="6.0900184"
       sodipodi:open="true"
       transform="matrix(-0.31942627,-0.29243078,0.27749892,-0.3321404,-1008.676,-299.02039)"
       inkscape:transform-center-x="6.2401313"
       inkscape:transform-center-y="6.7468493" />
    <path
       sodipodi:type="arc"
       style="opacity:0.59080003;fill:#4d4d4d;fill-opacity:1;stroke:none"
       id="path3848-2-9-2-9-8-7-7-9-5-7-6"
       sodipodi:cx="-410"
       sodipodi:cy="263.79074"
       sodipodi:rx="45.714287"
       sodipodi:ry="84.285713"
       d="m -364.28571,263.79074 c 0,46.54971 -20.46699,84.28571 -45.71429,84.28571 -25.2473,0 -45.71429,-37.736 -45.71429,-84.28571 0,-46.54971 20.46699,-84.28571 45.71429,-84.28571 21.86383,0 40.6669,28.54387 44.86406,68.10556"
       sodipodi:start="0"
       sodipodi:end="6.0900184"
       sodipodi:open="true"
       transform="matrix(-0.2663435,0.34148212,-0.35297977,-0.25045595,-817.54094,41.15153)"
       inkscape:transform-center-x="-7.2177984"
       inkscape:transform-center-y="5.6896216" />
    <path
       sodipodi:type="arc"
       style="opacity:0.59080003;fill:#4d4d4d;fill-opacity:1;stroke:none"
       id="path3848-2-9-2-9-8-4-6-0-4-2-2-1"
       sodipodi:cx="-410"
       sodipodi:cy="263.79074"
       sodipodi:rx="45.714287"
       sodipodi:ry="84.285713"
       d="m -364.28571,263.79074 c 0,46.54971 -20.46699,84.28571 -45.71429,84.28571 -25.2473,0 -45.71429,-37.736 -45.71429,-84.28571 0,-46.54971 20.46699,-84.28571 45.71429,-84.28571 21.86383,0 40.6669,28.54387 44.86406,68.10556"
       sodipodi:start="0"
       sodipodi:end="6.0900184"
       sodipodi:open="true"
       transform="matrix(-0.04376293,0.4308523,-0.43213145,-0.02419322,-688.0265,-29.212995)"
       inkscape:transform-center-x="-9.1391239"
       inkscape:transform-center-y="0.93558861" />
    <path
       style="opacity:0.59080003;fill:#4d4d4d;fill-opacity:1;stroke:none"
       d="m -932.11175,-227.91085 0,39.46622 c 0.1078,0.006 0.21514,0.0143 0.32333,0.02 l 7.03238,0.02 c 17.27948,-0.85125 30.42611,-8.26193 31.38297,-17.68202 1.10488,-10.87784 -14.29858,-20.59734 -34.41424,-21.72355 -1.45749,-0.0816 -2.90257,-0.11193 -4.32444,-0.10107 z"
       id="path3848-2-9-2-9-8-4-6-0-4-2-2-1-8"
       inkscape:connector-curvature="0" />
    <path
       sodipodi:type="arc"
       style="opacity:0.59080003;fill:#aad400;fill-opacity:1;stroke:none"
       id="path3848-2-9-2-9-8-4-6-3-9-5-3-4"
       sodipodi:cx="-410"
       sodipodi:cy="263.79074"
       sodipodi:rx="45.714287"
       sodipodi:ry="84.285713"
       d="m -364.28571,263.79074 c 0,46.54971 -20.46699,84.28571 -45.71429,84.28571 -25.2473,0 -45.71429,-37.736 -45.71429,-84.28571 0,-46.54971 20.46699,-84.28571 45.71429,-84.28571 25.2473,0 45.71429,37.736 45.71429,84.28571 z"
       transform="matrix(-0.0477399,0.4308523,-0.47140149,-0.02419322,-554.48256,-26.202882)"
       inkscape:transform-center-x="-9.9696458"
       inkscape:transform-center-y="0.93556051" />
    <path
       transform="matrix(0.43271653,0,0,0.43271653,-400.56016,-393.84086)"
       sodipodi:type="arc"
       style="fill:#4d4d4d;fill-opacity:0.59215686;stroke:none"
       id="path3846-7-4-3-2-5-0-2"
       sodipodi:cx="-425.71429"
       sodipodi:cy="420.93362"
       sodipodi:rx="62.857143"
       sodipodi:ry="62.857143"
       d="m -362.85715,420.93362 c 0,34.71505 -28.1421,62.85715 -62.85714,62.85715 -34.71505,0 -62.85715,-28.1421 -62.85715,-62.85715 0,-34.71504 28.1421,-62.85714 62.85715,-62.85714 30.06277,0 55.91699,21.28695 61.68807,50.79059"
       sodipodi:start="0"
       sodipodi:end="6.0900184"
       sodipodi:open="true" />
    <path
       sodipodi:type="arc"
       style="opacity:0.59080003;fill:#4d4d4d;fill-opacity:1;stroke:none"
       id="path3848-7-6-4-3-5-73-5"
       sodipodi:cx="-410"
       sodipodi:cy="263.79074"
       sodipodi:rx="45.714287"
       sodipodi:ry="84.285713"
       d="m -364.28571,263.79074 c 0,46.54971 -20.46699,84.28571 -45.71429,84.28571 -25.2473,0 -45.71429,-37.736 -45.71429,-84.28571 0,-46.54971 20.46699,-84.28571 45.71429,-84.28571 21.86383,0 40.6669,28.54387 44.86406,68.10556"
       sodipodi:start="0"
       sodipodi:end="6.0900184"
       sodipodi:open="true"
       transform="matrix(0.43271653,0,0,0.43271653,-408.59629,-396.31354)" />
    <path
       sodipodi:type="arc"
       style="opacity:0.59080003;fill:#4d4d4d;stroke:#917c6f"
       id="path3848-2-6-2-8-5-3-5-3"
       sodipodi:cx="-410"
       sodipodi:cy="263.79074"
       sodipodi:rx="45.714287"
       sodipodi:ry="84.285713"
       d="m -364.28571,263.79074 c 0,46.54971 -20.46699,84.28571 -45.71429,84.28571 -25.2473,0 -45.71429,-37.736 -45.71429,-84.28571 0,-46.54971 20.46699,-84.28571 45.71429,-84.28571 21.86383,0 40.6669,28.54387 44.86406,68.10556"
       sodipodi:start="0"
       sodipodi:end="6.0900184"
       sodipodi:open="true"
       transform="matrix(0.3528757,-0.25044429,0.25044429,0.3528757,-558.59768,-460.51971)" />
    <path
       sodipodi:type="arc"
       style="opacity:0.59080003;fill:#4d4d4d;fill-opacity:1;stroke:none"
       id="path3848-2-9-2-2-5-3-2-2-49-0"
       sodipodi:cx="-410"
       sodipodi:cy="263.79074"
       sodipodi:rx="45.714287"
       sodipodi:ry="84.285713"
       d="m -364.28571,263.79074 c 0,46.54971 -20.46699,84.28571 -45.71429,84.28571 -25.2473,0 -45.71429,-37.736 -45.71429,-84.28571 0,-46.54971 20.46699,-84.28571 45.71429,-84.28571 21.86383,0 40.6669,28.54387 44.86406,68.10556"
       sodipodi:start="0"
       sodipodi:end="6.0900184"
       sodipodi:open="true"
       transform="matrix(-0.26406908,-0.34324396,0.33073461,-0.27917291,-833.47265,-226.27863)"
       inkscape:transform-center-x="7.3114948"
       inkscape:transform-center-y="5.5663765" />
    <path
       sodipodi:type="arc"
       style="opacity:0.59080003;fill:#4d4d4d;fill-opacity:1;stroke:none"
       id="path3848-2-9-2-9-38-6-9-1-8-41-2"
       sodipodi:cx="-410"
       sodipodi:cy="263.79074"
       sodipodi:rx="45.714287"
       sodipodi:ry="84.285713"
       d="m -364.28571,263.79074 c 0,46.54971 -20.46699,84.28571 -45.71429,84.28571 -25.2473,0 -45.71429,-37.736 -45.71429,-84.28571 0,-46.54971 20.46699,-84.28571 45.71429,-84.28571 21.86383,0 40.6669,28.54387 44.86406,68.10556"
       sodipodi:start="0"
       sodipodi:end="6.0900184"
       sodipodi:open="true"
       transform="matrix(-0.43295476,0.00995413,-0.02953154,-0.43179948,-751.49736,-22.556519)"
       inkscape:transform-center-x="-0.16335703"
       inkscape:transform-center-y="9.1896806" />
    <path
       sodipodi:type="arc"
       style="opacity:0.59080003;fill:#4d4d4d;fill-opacity:1;stroke:none"
       id="path3848-2-9-2-9-3-5-2-6-5-6-8-8"
       sodipodi:cx="-410"
       sodipodi:cy="263.79074"
       sodipodi:rx="45.714287"
       sodipodi:ry="84.285713"
       d="m -364.28571,263.79074 c 0,46.54971 -20.46699,84.28571 -45.71429,84.28571 -25.2473,0 -45.71429,-37.736 -45.71429,-84.28571 0,-46.54971 20.46699,-84.28571 45.71429,-84.28571 21.86383,0 40.6669,28.54387 44.86406,68.10556"
       sodipodi:start="0"
       sodipodi:end="6.0900184"
       sodipodi:open="true"
       transform="matrix(-0.31942627,-0.29243078,0.27749892,-0.3321404,-735.233,-299.94421)"
       inkscape:transform-center-x="6.2401398"
       inkscape:transform-center-y="6.7468414" />
    <path
       sodipodi:type="arc"
       style="opacity:0.59080003;fill:#4d4d4d;fill-opacity:1;stroke:none"
       id="path3848-2-9-2-9-8-7-7-9-5-7-6-6"
       sodipodi:cx="-410"
       sodipodi:cy="263.79074"
       sodipodi:rx="45.714287"
       sodipodi:ry="84.285713"
       d="m -364.28571,263.79074 c 0,46.54971 -20.46699,84.28571 -45.71429,84.28571 -25.2473,0 -45.71429,-37.736 -45.71429,-84.28571 0,-46.54971 20.46699,-84.28571 45.71429,-84.28571 21.86383,0 40.6669,28.54387 44.86406,68.10556"
       sodipodi:start="0"
       sodipodi:end="6.0900184"
       sodipodi:open="true"
       transform="matrix(-0.2663435,0.34148212,-0.35297977,-0.25045595,-544.09798,40.227722)"
       inkscape:transform-center-x="-7.2178056"
       inkscape:transform-center-y="5.6896257" />
    <path
       sodipodi:type="arc"
       style="opacity:0.59080003;fill:#4d4d4d;fill-opacity:1;stroke:none"
       id="path3848-2-9-2-9-8-4-6-0-4-2-2-1-6"
       sodipodi:cx="-410"
       sodipodi:cy="263.79074"
       sodipodi:rx="45.714287"
       sodipodi:ry="84.285713"
       d="m -364.28571,263.79074 c 0,46.54971 -20.46699,84.28571 -45.71429,84.28571 -25.2473,0 -45.71429,-37.736 -45.71429,-84.28571 0,-46.54971 20.46699,-84.28571 45.71429,-84.28571 21.86383,0 40.6669,28.54387 44.86406,68.10556"
       sodipodi:start="0"
       sodipodi:end="6.0900184"
       sodipodi:open="true"
       transform="matrix(-0.04376293,0.4308523,-0.43213145,-0.02419322,-414.58354,-30.136808)"
       inkscape:transform-center-x="-9.1391259"
       inkscape:transform-center-y="0.93558781" />
    <path
       style="opacity:0.59080003;fill:#4d4d4d;fill-opacity:1;stroke:none"
       d="m -637.88347,-225.60708 0,34.11108 c 10.29062,-3.00514 17.25691,-8.74906 17.94469,-15.51973 0.7745,-7.62575 -6.55734,-14.6657 -17.94469,-18.59135 z"
       id="path3848-2-9-2-9-8-4-6-0-4-2-2-1-8-2"
       inkscape:connector-curvature="0" />
    <g
       style="font-size:160.8941803px;font-style:normal;font-variant:normal;font-weight:normal;font-stretch:normal;line-height:125%;letter-spacing:0px;word-spacing:0px;fill:#000000;fill-opacity:1;stroke:none;font-family:Nanosecond Thick BRK;-inkscape-font-specification:Nanosecond Thick BRK"
       id="text3978-1-6-2"
       transform="matrix(1.8494298,0,0,1.8494298,-207.45938,-1600.0336)">
      <path
         inkscape:connector-curvature="0"
         d="m -2901.2441,1188.305 c 0,-3.3251 -0.8045,-6.2212 -2.4134,-8.6883 -2.5743,-3.8614 -6.6503,-5.7921 -12.228,-5.7922 -5.4704,10e-5 -9.4391,1.8772 -11.9061,5.6313 -1.7162,2.4671 -2.5744,5.4169 -2.5743,8.8492 l 0,47.4638 c -1e-4,3.5397 0.8044,6.4894 2.4134,8.8491 2.3597,3.8615 6.3821,5.7923 12.067,5.7922 5.5777,10e-5 9.6,-1.877 12.0671,-5.6313 1.7162,-2.467 2.5743,-5.4703 2.5743,-9.01 0,-2.467 0.8581,-4.6123 2.5743,-6.4358 1.7162,-1.8234 3.9151,-2.7352 6.5967,-2.7352 2.467,0 4.6122,0.9118 6.4358,2.7352 1.8234,1.8235 2.7351,4.0224 2.7352,6.5967 -1e-4,8.0447 -2.4135,15.124 -7.2403,21.238 -6.114,7.7229 -14.695,11.5844 -25.7431,11.5844 -10.9408,0 -19.4682,-3.8078 -25.5821,-11.4235 -4.9341,-6.2212 -7.4012,-13.3542 -7.4012,-21.3989 l 0,-47.6247 c 0,-7.9374 2.4671,-15.0167 7.4012,-21.238 6.1139,-7.7229 14.6413,-11.5843 25.5821,-11.5844 11.0481,10e-5 19.5755,3.8079 25.5822,11.4235 4.934,6.2213 7.4011,13.3543 7.4012,21.3989 -1e-4,2.5744 -0.8582,4.7733 -2.5744,6.5966 -1.7162,1.8236 -3.9151,2.7353 -6.5966,2.7352 -2.4671,10e-5 -4.6124,-0.9116 -6.4358,-2.7352 -1.8235,-1.8233 -2.7352,-4.0222 -2.7352,-6.5966"
         id="path4918-4"
         style="fill:#000000" />
      <path
         inkscape:connector-curvature="0"
         d="m -2808.74,1235.9297 c -1e-4,8.0447 -2.4135,15.124 -7.2402,21.238 -6.1141,7.7229 -14.6951,11.5844 -25.7431,11.5844 -10.9408,0 -19.4682,-3.8078 -25.5822,-11.4235 -4.9341,-6.2212 -7.4011,-13.3542 -7.4011,-21.3989 0,-8.0447 2.467,-15.1777 7.4011,-21.399 6.114,-7.7228 14.6414,-11.5843 25.5822,-11.5843 11.048,0 19.5754,3.8078 25.5822,11.4234 4.934,6.2213 7.401,13.4079 7.4011,21.5599 m -18.3419,0 c -10e-5,-3.5397 -0.8045,-6.543 -2.4134,-9.0101 -2.4671,-3.7542 -6.5431,-5.6313 -12.228,-5.6313 -5.4704,0 -9.4391,1.8771 -11.9062,5.6313 -1.7162,2.4671 -2.5743,5.4704 -2.5743,9.0101 0,3.5397 0.8045,6.4894 2.4134,8.8491 2.4671,3.7543 6.4894,5.6314 12.0671,5.6313 5.5776,10e-5 9.6,-1.877 12.0671,-5.6313 1.7161,-2.467 2.5742,-5.4167 2.5743,-8.8491"
         id="path4920-2"
         style="fill:#000000" />
      <path
         inkscape:connector-curvature="0"
         d="m -2702.8817,1259.5811 c -1e-4,2.4671 -0.9118,4.6123 -2.7352,6.4358 -1.8235,1.8234 -3.9688,2.7352 -6.4357,2.7352 -2.5744,0 -4.7733,-0.8581 -6.5967,-2.5743 -1.8235,-1.7162 -2.7353,-3.9151 -2.7352,-6.5967 l 0,-23.6514 c -10e-5,-5.5777 -1.8772,-9.6 -5.6313,-12.0671 -2.4671,-1.7162 -5.4168,-2.5743 -8.8492,-2.5743 l -6.5966,0 0,38.2928 c -10e-5,2.4671 -0.9118,4.6123 -2.7352,6.4358 -1.8236,1.8234 -3.9688,2.7352 -6.4358,2.7352 -2.5744,0 -4.7732,-0.8581 -6.5967,-2.5743 -1.8235,-1.7162 -2.7352,-3.9151 -2.7352,-6.5967 l 0,-38.2928 -6.5966,0 c -5.5777,0 -9.6001,1.8771 -12.0671,5.6313 -1.609,2.4671 -2.4134,5.4704 -2.4134,9.0101 l 0,23.6514 c 0,2.4671 -0.9118,4.6123 -2.7352,6.4358 -1.8235,1.8234 -3.9687,2.7352 -6.4358,2.7352 -2.5743,0 -4.7732,-0.8581 -6.5966,-2.5743 -1.8235,-1.7162 -2.7352,-3.9151 -2.7352,-6.5967 l 0,-23.6514 c 0,-8.0447 2.467,-15.1777 7.4011,-21.399 6.114,-7.7228 14.6413,-11.5843 25.5822,-11.5843 l 7.8838,0 c 2.896,0 5.524,0.59 7.8838,1.7698 2.5743,-1.1798 5.2558,-1.7698 8.0447,-1.7698 l 7.8838,0 c 8.1519,0 15.2849,2.4134 21.399,7.2402 7.7228,6.114 11.5842,14.695 11.5843,25.7431 l 0,23.6514"
         id="path4922-1"
         style="fill:#000000" />
      <path
         inkscape:connector-curvature="0"
         d="m -2628.991,1235.9297 c -1e-4,10.9408 -3.8079,19.4145 -11.4235,25.4212 -6.2213,4.9341 -13.4079,7.4012 -21.5598,7.4012 l -14.4805,0 0,14.6413 c 0,2.4671 -0.8581,4.6123 -2.5743,6.4358 -1.7162,1.8235 -3.9151,2.7352 -6.5967,2.7352 -2.5743,0 -4.7732,-0.9117 -6.5966,-2.7352 -1.8235,-1.8235 -2.7352,-3.9687 -2.7352,-6.4358 l 0,-15.9285 c 0,-2.6815 0.6435,-5.3095 1.9307,-7.8838 -1.2872,-2.5743 -1.9307,-5.2022 -1.9307,-7.8838 l 0,-31.6962 c 0,-4.5049 1.448,-8.3664 4.3441,-11.5843 3.3252,-3.6469 7.6157,-5.4704 12.8716,-5.4704 l 15.7676,0 c 8.1519,0 15.2849,2.4134 21.3989,7.2402 7.7229,6.114 11.5843,14.695 11.5844,25.7431 m -18.3419,0 c -1e-4,-5.5777 -1.8772,-9.6 -5.6313,-12.0671 -2.4671,-1.7162 -5.4705,-2.5743 -9.0101,-2.5743 l -14.4805,0 0,29.1218 14.4805,0 c 3.4323,10e-5 6.3821,-0.8044 8.8492,-2.4134 3.8614,-2.3597 5.7921,-6.3821 5.7922,-12.067"
         id="path4924-0"
         style="fill:#000000" />
      <path
         inkscape:connector-curvature="0"
         d="m -2554.8288,1227.885 c -1e-4,2.7888 -0.5901,5.4704 -1.7699,8.0447 1.1798,2.6816 1.7698,5.3095 1.7699,7.8838 l 0,7.8838 c -1e-4,5.2559 -1.8236,9.4928 -5.4704,12.7106 -3.218,2.8961 -7.0794,4.3442 -11.5844,4.3442 l -23.8124,0 c -8.3665,0 -14.8559,-2.8961 -19.4682,-8.6883 -3.7542,-4.7196 -5.6313,-10.1363 -5.6313,-16.2503 0,-2.5743 0.4827,-4.8804 1.4481,-6.9185 0.9654,-2.1452 2.1989,-3.9687 3.7006,-5.4704 1.6089,-1.6089 3.4324,-2.7888 5.4704,-3.5396 2.1452,-0.8581 4.3441,-1.2872 6.5966,-1.2872 l 30.2481,0 c -0.3218,-2.3597 -1.2872,-3.915 -2.8961,-4.6659 -0.7509,-0.429 -1.9307,-0.6436 -3.5396,-0.6436 l -8.0447,0 c -2.4671,0 -4.6124,-0.8581 -6.4358,-2.5743 -1.8235,-1.7162 -2.7352,-3.9151 -2.7352,-6.5967 0,-2.467 0.9117,-4.6122 2.7352,-6.4357 1.8234,-1.8234 3.9687,-2.7352 6.4358,-2.7352 l 8.0447,0 c 8.1519,0 14.5876,2.8961 19.3073,8.6882 3.7541,4.7197 5.6312,10.1364 5.6313,16.2504 m -18.342,22.5251 0,-5.3095 -28.9609,0 c 0.3217,2.3598 1.2871,3.9151 2.8961,4.666 0.7508,0.429 1.9307,0.6436 3.5396,0.6435 l 22.5252,0"
         id="path4926-4"
         style="fill:#000000" />
      <path
         inkscape:connector-curvature="0"
         d="m -2480.9809,1212.1173 c -1e-4,2.5744 -0.9118,4.7733 -2.7352,6.5967 -1.7163,1.7162 -3.8616,2.5743 -6.4358,2.5743 l -23.8123,0 c -5.4705,0 -9.4392,1.8771 -11.9062,5.6313 -1.7162,2.4671 -2.5743,5.4704 -2.5743,9.0101 l 0,23.6514 c 0,2.5743 -0.9118,4.7732 -2.7352,6.5967 -1.7162,1.7162 -3.8615,2.5743 -6.4358,2.5743 -2.5743,0 -4.7732,-0.8581 -6.5967,-2.5743 -1.8234,-1.7162 -2.7352,-3.9151 -2.7352,-6.5967 l 0,-23.6514 c 0,-8.0447 2.4671,-15.1777 7.4012,-21.399 6.1139,-7.7228 14.6413,-11.5843 25.5822,-11.5843 l 23.8123,0 c 2.5742,0 4.7195,0.9118 6.4358,2.7352 1.8234,1.7162 2.7351,3.8615 2.7352,6.4357"
         id="path4928-9"
         style="fill:#000000" />
      <path
         inkscape:connector-curvature="0"
         d="m -2406.8188,1212.1173 c 0,2.5744 -0.9118,4.7733 -2.7352,6.5967 -1.7162,1.7162 -3.8615,2.5743 -6.4357,2.5743 l -14.4805,0 0,38.2928 c -10e-5,2.4671 -0.9118,4.6123 -2.7352,6.4358 -1.8235,1.8234 -4.0224,2.7352 -6.5967,2.7352 -2.4671,0 -4.6123,-0.8581 -6.4357,-2.5743 -1.8235,-1.7162 -2.7353,-3.9151 -2.7352,-6.5967 l 0,-38.2928 -14.4805,0 c -2.5743,0 -4.7732,-0.8581 -6.5967,-2.5743 -1.8235,-1.7162 -2.7352,-3.9151 -2.7352,-6.5967 0,-2.467 0.9117,-4.6122 2.7352,-6.4357 1.8235,-1.8234 4.0224,-2.7352 6.5967,-2.7352 l 14.4805,0 0,-14.6414 c -1e-4,-2.467 0.9117,-4.6122 2.7352,-6.4358 1.8234,-1.8234 3.9686,-2.7351 6.4357,-2.7352 2.5743,10e-5 4.7732,0.9118 6.5967,2.7352 1.8234,1.8236 2.7351,3.9688 2.7352,6.4358 l 0,14.6414 14.4805,0 c 2.5742,0 4.7195,0.9118 6.4357,2.7352 1.8234,1.7162 2.7352,3.8615 2.7352,6.4357"
         id="path4930-5"
         style="fill:#000000" />
      <path
         inkscape:connector-curvature="0"
         d="m -2380.2813,1259.5811 c 0,2.5743 -0.9117,4.7732 -2.7352,6.5967 -1.7162,1.7162 -3.8615,2.5743 -6.4357,2.5743 -2.5744,0 -4.7732,-0.8581 -6.5967,-2.5743 -1.7162,-1.8235 -2.5743,-4.0224 -2.5743,-6.5967 l 0,-47.4638 c 0,-2.5742 0.8581,-4.7195 2.5743,-6.4357 1.8235,-1.8234 4.0223,-2.7352 6.5967,-2.7352 2.5742,0 4.7195,0.9118 6.4357,2.7352 1.8235,1.7162 2.7352,3.8615 2.7352,6.4357 l 0,47.4638 m 0,-71.2761 c 0,2.5744 -0.8581,4.7733 -2.5743,6.5966 -1.7162,1.8236 -3.9151,2.7353 -6.5966,2.7352 -2.4671,10e-5 -4.6124,-0.9116 -6.4358,-2.7352 -1.8235,-1.8233 -2.7352,-4.0222 -2.7352,-6.5966 0,-2.467 0.8581,-4.6122 2.5743,-6.4358 1.7162,-1.8234 3.9151,-2.7351 6.5967,-2.7352 2.467,10e-5 4.6122,0.9118 6.4357,2.7352 1.8235,1.8236 2.7352,3.9688 2.7352,6.4358"
         id="path4932-9"
         style="fill:#000000" />
      <path
         inkscape:connector-curvature="0"
         d="m -2306.2599,1212.1173 c -1e-4,2.5744 -0.9118,4.7733 -2.7352,6.5967 -1.7163,1.7162 -3.8616,2.5743 -6.4358,2.5743 l -23.8123,0 c -5.4705,0 -9.4392,1.8771 -11.9062,5.6313 -1.7162,2.4671 -2.5743,5.4704 -2.5743,9.0101 l 0,23.6514 c 0,2.5743 -0.9118,4.7732 -2.7352,6.5967 -1.7162,1.7162 -3.8615,2.5743 -6.4358,2.5743 -2.5743,0 -4.7732,-0.8581 -6.5966,-2.5743 -1.8235,-1.7162 -2.7353,-3.9151 -2.7352,-6.5967 l 0,-23.6514 c -10e-5,-8.0447 2.467,-15.1777 7.4011,-21.399 6.1139,-7.7228 14.6413,-11.5843 25.5822,-11.5843 l 23.8123,0 c 2.5742,0 4.7195,0.9118 6.4358,2.7352 1.8234,1.7162 2.7351,3.8615 2.7352,6.4357"
         id="path4934-9"
         style="fill:#000000" />
    </g>
  </g>
</svg>
