<?xml version="1.0" encoding="UTF-8" standalone="no"?>
<!-- Created with Inkscape (http://www.inkscape.org/) -->

<svg
   xmlns:dc="http://purl.org/dc/elements/1.1/"
   xmlns:cc="http://creativecommons.org/ns#"
   xmlns:rdf="http://www.w3.org/1999/02/22-rdf-syntax-ns#"
   xmlns:svg="http://www.w3.org/2000/svg"
   xmlns="http://www.w3.org/2000/svg"
   xmlns:sodipodi="http://sodipodi.sourceforge.net/DTD/sodipodi-0.dtd"
   xmlns:inkscape="http://www.inkscape.org/namespaces/inkscape"
   width="48px"
   height="48px"
   id="svg1307"
   sodipodi:version="0.32"
   inkscape:version="0.92.1 r15371"
   sodipodi:docname="image-missing.svg"
   inkscape:output_extension="org.inkscape.output.svg.inkscape"
   sodipodi:modified="true"
   version="1.1">
  <defs
     id="defs1309" />
  <sodipodi:namedview
     id="base"
     pagecolor="#ffffff"
     bordercolor="#666666"
     borderopacity="1.0"
     inkscape:pageopacity="0.0"
     inkscape:pageshadow="2"
     inkscape:zoom="3.5412705"
     inkscape:cx="-22.993735"
     inkscape:cy="-3.817948"
     inkscape:current-layer="layer1"
     showgrid="true"
     inkscape:grid-bbox="true"
     inkscape:document-units="px"
     inkscape:window-width="1920"
     inkscape:window-height="1027"
     inkscape:window-x="0"
     inkscape:window-y="25"
     inkscape:object-paths="true"
     inkscape:object-nodes="true"
     inkscape:snap-bbox="true"
     inkscape:bbox-paths="true"
     inkscape:bbox-nodes="true"
     inkscape:snap-intersection-line-segments="true"
     inkscape:snap-center="false"
     inkscape:snap-global="true"
     objecttolerance="1"
     inkscape:window-maximized="1">
    <inkscape:grid
       type="xygrid"
       id="grid3634"
       visible="true"
       enabled="true"
       dotted="false"
       empspacing="5"
       snapvisiblegridlinesonly="true"
       spacingx="0px"
       spacingy="0px" />
  </sodipodi:namedview>
  <metadata
     id="metadata1312">
    <rdf:RDF>
      <cc:Work
         rdf:about="">
        <dc:format>image/svg+xml</dc:format>
        <dc:type
           rdf:resource="http://purl.org/dc/dcmitype/StillImage" />
        <cc:license
           rdf:resource="" />
        <dc:title />
        <dc:date>November 2008</dc:date>
        <dc:creator>
          <cc:Agent>
            <dc:title>Luca Ferretti &lt;elle.uca@libero.it&gt;</dc:title>
          </cc:Agent>
        </dc:creator>
        <dc:subject>
          <rdf:Bag>
            <rdf:li>image</rdf:li>
            <rdf:li>picture</rdf:li>
            <rdf:li>missing</rdf:li>
            <rdf:li>not loaded</rdf:li>
          </rdf:Bag>
        </dc:subject>
        <dc:coverage>Placeholder icon for not loaded images and pictures</dc:coverage>
        <dc:description>A photo paper whit a X on it</dc:description>
      </cc:Work>
    </rdf:RDF>
  </metadata>
  <g
     id="layer1"
     inkscape:label="Layer 1"
     inkscape:groupmode="layer">
    <path
       style="display:inline;fill:#ffcc00;fill-opacity:1;stroke:none;stroke-width:1.26491117"
       d="M 8 4 L 8 8 L 2 8 L 2 40 L 8 40 L 8 44 L 40 44 L 40 40 L 46 40 L 46 8 L 40 8 L 40 4 L 8 4 z M 8 10 L 40 10 L 40 38 L 8 38 L 8 10 z "
       id="rect3066-74-2-2-6-663-85-33-10-9-5" />
    <path
       style="fill:#ffcc00;fill-opacity:1;stroke:none;display:inline"
       d="M 14 14 L 14 16 L 14 18 L 16 18 L 16 20 L 18 20 L 18 22 L 20 22 L 20 24 L 20 26 L 18 26 L 18 28 L 16 28 L 16 30 L 14 30 L 14 32 L 14 34 L 16 34 L 18 34 L 18 32 L 20 32 L 20 30 L 22 30 L 22 28 L 24 28 L 26 28 L 26 30 L 28 30 L 28 32 L 30 32 L 30 34 L 32 34 L 34 34 L 34 32 L 34 30 L 32 30 L 32 28 L 30 28 L 30 26 L 28 26 L 28 24 L 28 22 L 30 22 L 30 20 L 32 20 L 32 18 L 34 18 L 34 16 L 34 14 L 32 14 L 30 14 L 30 16 L 28 16 L 28 18 L 26 18 L 26 20 L 24 20 L 22 20 L 22 18 L 20 18 L 20 16 L 18 16 L 18 14 L 16 14 L 14 14 z "
       id="rect3066-74-2-2-6-663-85-33-10-9-5-4-86" />
  </g>
</svg>
