<?xml version="1.0" encoding="UTF-8" standalone="no"?>
<!-- Created with Inkscape (http://www.inkscape.org/) -->

<svg
   xmlns:dc="http://purl.org/dc/elements/1.1/"
   xmlns:cc="http://creativecommons.org/ns#"
   xmlns:rdf="http://www.w3.org/1999/02/22-rdf-syntax-ns#"
   xmlns:svg="http://www.w3.org/2000/svg"
   xmlns="http://www.w3.org/2000/svg"
   xmlns:sodipodi="http://sodipodi.sourceforge.net/DTD/sodipodi-0.dtd"
   xmlns:inkscape="http://www.inkscape.org/namespaces/inkscape"
   width="256"
   height="256"
   id="svg2"
   version="1.1"
   inkscape:version="0.48.3.1 r9886"
   sodipodi:docname="applications-drawing.svg">
  <defs
     id="defs4" />
  <sodipodi:namedview
     id="base"
     pagecolor="#ffffff"
     bordercolor="#666666"
     borderopacity="1.0"
     inkscape:pageopacity="0.0"
     inkscape:pageshadow="2"
     inkscape:zoom="2.0462123"
     inkscape:cx="70.229539"
     inkscape:cy="124.95371"
     inkscape:document-units="px"
     inkscape:current-layer="layer1"
     showgrid="false"
     inkscape:window-width="1438"
     inkscape:window-height="827"
     inkscape:window-x="0"
     inkscape:window-y="25"
     inkscape:window-maximized="1" />
  <metadata
     id="metadata7">
    <rdf:RDF>
      <cc:Work
         rdf:about="">
        <dc:format>image/svg+xml</dc:format>
        <dc:type
           rdf:resource="http://purl.org/dc/dcmitype/StillImage" />
        <dc:title></dc:title>
      </cc:Work>
    </rdf:RDF>
  </metadata>
  <g
     inkscape:label="Capa 1"
     inkscape:groupmode="layer"
     id="layer1"
     transform="translate(0,-796.36218)">
    <g
       id="g11453"
       style="fill:#000000;fill-rule:evenodd;stroke:none"
       transform="matrix(0.06104282,0,0,0.06104282,1598.9223,273.25126)">
      <path
         id="path5150"
         d="m -25226.085,9060.4062 c -26.859,-0.018 -51.59,11 -72.313,37.375 -59.751,76.0461 154.794,374.2893 219.438,433.2188 47.617,-88.8909 181.937,-184.0312 181.937,-184.0312 0,0 -192.212,-286.4723 -329.062,-286.5626 z m 2233.5,11.4376 c -93.392,1.4447 -293.688,233.5937 -293.688,233.5937 0,0 92.848,46.5427 163.281,171.125 101.029,-34.1871 273.257,-264.2868 161.25,-392 -7.91,-9.0204 -18.446,-12.9105 -30.843,-12.7187 z m -1070.344,13.75 c -26.709,0.095 -54.018,0.8025 -81.937,2.1874 -1021.049,50.6433 -1126.941,1092.2018 -1136.594,1331.5628 -9.655,239.352 -168.03,761.793 -115.188,806.844 52.841,45.051 67.35,6.76 109.469,-35.563 38.675,-38.856 110.136,-573.007 96.406,-660.875 13.917,73.591 95.968,355.249 543.125,397.25 306.161,28.753 457.943,-329.555 524.125,-387.156 66.188,-57.609 152.649,-37.066 204.907,20.5 52.251,57.567 55.831,322.502 442.343,352.562 310.362,24.128 458.594,-352.468 458.594,-352.468 0,0 161.708,455.468 219.187,515.968 81.584,85.861 154.674,13.239 125.282,-85.562 -38.937,-130.881 -300.296,-325.097 -273.594,-724.625 25.972,-388.6118 -166.047,-1184.0245 -1116.125,-1180.6252 z m 1676.937,588.25 c -74.841,0.3004 -161.268,30.4361 -256.656,95.625 -259.37,177.2531 -303.957,323.7632 -289.875,508.1252 l 20.813,47.312 c 118.454,-321.105 314.337,-510.036 468.406,-328.8748 147.837,173.8228 -264.451,364.1138 -444.094,403.9688 l -20.156,62.031 c 214.326,53.732 857.812,-159.092 810.938,-461.312 -29.298,-188.8861 -121.851,-309.7301 -258,-325.1878 -10.211,-1.1589 -20.684,-1.7304 -31.376,-1.6874 z m -3430.156,19.7812 c -5.234,0.028 -10.404,0.1997 -15.531,0.5312 -136.742,8.846 -235.061,125.068 -273.469,312.3128 -61.45,299.588 570.974,543.343 787.656,500.062 l -17.124,-62.937 c -177.505,-48.509 -580.116,-258.565 -424.032,-425.032 162.666,-173.4782 349.172,24.725 451.938,351.188 l 23.094,-46.25 c 22.995,-183.46 -14.452,-331.9524 -264.938,-521.5625 -98.695,-74.7112 -189.084,-108.7249 -267.594,-108.3125 z m 982.532,294.625 c -99.102,78.343 -155.756,210.51 -137.157,350.438 27.186,204.591 204.926,348.255 396.969,320.874 192.051,-27.382 325.694,-215.441 298.5,-420.031 l -1.156,-8.062 c -10.925,-71.018 -39.985,-134.311 -81.344,-185.25 76.283,67.883 130.794,163.627 148.062,275.093 l 1.626,9.688 c 33.164,248.023 -130.86,476.202 -366.344,509.562 -235.484,33.359 -453.368,-140.569 -486.532,-388.593 -26.137,-195.436 70.162,-378.532 227.376,-463.719 z m 1543.843,71.656 c 83.8,61.431 144.531,155.942 162.188,268.313 l 1.25,8.75 c 30.259,223.394 -121.067,429.209 -338.188,459.562 -217.12,30.352 -417.686,-126.074 -447.937,-349.469 -18.636,-137.579 31.625,-268.476 123.687,-355.843 -44.813,58.828 -66.77,132.52 -55.75,208.906 23.211,160.881 183.835,272.682 358.781,249.687 174.947,-22.994 297.961,-172.056 274.75,-332.937 l -1,-6.375 c -9.839,-58.376 -37.77,-109.925 -77.781,-150.594 z m -391.593,1054.594 c -96.339,0 -188.047,135.24 -393.969,149.5 -112.64,7.8 -268.758,-107.081 -386.094,-139.219 -117.337,-32.138 -175.414,74.115 -251.437,147.063 -76.032,72.948 368.791,-49.022 225.218,193.437 -117.974,199.225 -226.441,-239.304 -301.687,-19.656 -72.77,212.451 5.554,298.792 54.969,370.469 144.164,209.119 368.526,208.2 706.718,169.094 337.905,-39.067 591.255,-89.282 704.906,-354.376 26.159,-61.027 30.542,-222.515 -77.562,-294.874 -135.766,-90.877 -195.363,284.844 -303.406,135.093 -132.565,-183.747 208.641,-112.535 217.281,-208.343 10.814,-119.993 -60.027,-114.07 -167.531,-144.376 -9.238,-2.604 -18.349,-3.812 -27.406,-3.812 z m 189.218,768.906 c -1.971,0.108 -4.198,0.649 -6.687,1.625 -310.695,121.907 -745.608,193.11 -973.875,136.531 -228.257,-56.577 -34.593,290.469 416.656,274.907 437.147,-15.066 625.021,-416.409 563.906,-413.063 z"
         style="fill:#000000;fill-opacity:1;stroke:none"
         inkscape:connector-curvature="0" />
    </g>
    <rect
       style="fill:#ffffff;fill-opacity:1;fill-rule:evenodd;stroke:#000000;stroke-width:2.61961531999999986;stroke-opacity:1"
       id="rect11194-1-9-4-0-3-4"
       ry="0"
       rx="18.514124"
       height="15.66098"
       width="181.44881"
       y="-719.35699"
       x="498.18927"
       class="fil0 str0"
       transform="matrix(-0.63367305,0.77360097,-0.77594758,-0.6307974,0,0)" />
    <path
       style="fill:none;stroke:#000000;stroke-width:0.14207536px;stroke-linecap:butt;stroke-linejoin:miter;stroke-opacity:1"
       d="M 124.84169,984.70915 110.81011,973.5565"
       id="path4789-2-5"
       inkscape:connector-curvature="0" />
    <path
       style="fill:#ffffff;fill-opacity:1;fill-rule:evenodd;stroke:#000000;stroke-width:2.84150767;stroke-linecap:butt;stroke-linejoin:miter;stroke-miterlimit:4;stroke-opacity:1;stroke-dasharray:none"
       d="m 126.30871,984.03238 -24.61579,15.1904 10.04315,-26.79139"
       id="path4791-9-8"
       inkscape:connector-curvature="0"
       sodipodi:nodetypes="ccc" />
  </g>
</svg>
