<?xml version="1.0" encoding="UTF-8" standalone="no"?>
<!-- Created with Inkscape (http://www.inkscape.org/) -->

<svg
   xmlns:dc="http://purl.org/dc/elements/1.1/"
   xmlns:cc="http://creativecommons.org/ns#"
   xmlns:rdf="http://www.w3.org/1999/02/22-rdf-syntax-ns#"
   xmlns:svg="http://www.w3.org/2000/svg"
   xmlns="http://www.w3.org/2000/svg"
   xmlns:sodipodi="http://sodipodi.sourceforge.net/DTD/sodipodi-0.dtd"
   xmlns:inkscape="http://www.inkscape.org/namespaces/inkscape"
   width="48"
   height="48"
   id="svg4631"
   version="1.1"
   inkscape:version="0.48.5 r10040"
   sodipodi:docname="applications-physics.svg">
  <defs
     id="defs4633" />
  <sodipodi:namedview
     id="base"
     pagecolor="#ffffff"
     bordercolor="#666666"
     borderopacity="1.0"
     inkscape:pageopacity="0.0"
     inkscape:pageshadow="2"
     inkscape:zoom="12.706984"
     inkscape:cx="33.403127"
     inkscape:cy="21.363656"
     inkscape:document-units="px"
     inkscape:current-layer="layer1"
     showgrid="false"
     inkscape:window-width="1914"
     inkscape:window-height="1031"
     inkscape:window-x="0"
     inkscape:window-y="25"
     inkscape:window-maximized="1"
     showguides="true"
     inkscape:guide-bbox="true" />
  <metadata
     id="metadata4636">
    <rdf:RDF>
      <cc:Work
         rdf:about="">
        <dc:format>image/svg+xml</dc:format>
        <dc:type
           rdf:resource="http://purl.org/dc/dcmitype/StillImage" />
        <dc:title />
      </cc:Work>
    </rdf:RDF>
  </metadata>
  <g
     inkscape:label="Capa 1"
     inkscape:groupmode="layer"
     id="layer1"
     transform="translate(0,-1004.3622)">
    <path
       style="fill:#ffffff;fill-opacity:1;stroke:none"
       d="m 23.375699,1005.4508 c 4.204761,-0.1254 4.909601,6.6882 7.950048,6.012 4.815276,-1.071 13.113755,-1.0212 10.261063,9.1816 -0.803664,2.8743 6.026624,4.1585 6.007302,7.9493 -0.01568,3.0782 -7.23295,4.4405 -6.44717,7.2352 2.281349,8.1138 0.512505,10.6567 -9.39001,8.9133 -3.367897,-0.593 -4.718963,6.7305 -8.381232,6.7305 -3.619786,0 -4.599239,-7.3116 -7.926883,-6.6826 -6.1632685,1.1648 -10.9817931,-0.6459 -9.3131921,-5.5806 2.7892217,-5.62 -5.64437128,-6.104 -5.82083741,-10.8798 0,-3.5255 7.27057581,-5.4903 6.05795591,-8.4729 -2.8527669,-7.017 2.0355134,-10.547 9.5379786,-8.8841 2.848222,0.6311 3.120181,-5.392 7.464977,-5.5219 z"
       id="rect2993"
       inkscape:connector-curvature="0"
       sodipodi:nodetypes="ssssssssccsss" />
    <g
       id="g2995"
       transform="matrix(1.1314079,0,0,1.1181527,-1.7330928,-121.09369)">
      <g
         transform="matrix(0.0139915,0,0,0.0139915,-154.18058,890.65128)"
         id="g4536"
         style="fill:#000000;fill-rule:evenodd;stroke:#0a0000;stroke-opacity:1">
        <path
           style="fill:#000000;fill-opacity:1;fill-rule:evenodd;stroke:#0a0000;stroke-width:10;stroke-miterlimit:4;stroke-opacity:1;stroke-dasharray:none"
           d="m 13088.771,9815.8186 c 0,-739.2539 -212.52,-1338.5313 -474.687,-1338.5313 -262.167,0 -474.688,599.2774 -474.688,1338.5313 0,739.2534 212.521,1338.5314 474.688,1338.5314 262.167,0 474.687,-599.278 474.687,-1338.5314 z m -22.093,17.0312 c 0,681.5272 -197.673,1234.0002 -441.532,1234.0002 -243.859,0 -441.562,-552.473 -441.562,-1234.0002 0,-681.5275 197.703,-1234.0312 441.562,-1234.0312 243.859,0 441.532,552.5037 441.532,1234.0312 z"
           id="path3225-9-0-5"
           inkscape:connector-curvature="0" />
        <path
           style="fill:#000000;fill-opacity:1;fill-rule:evenodd;stroke:#0a0000;stroke-opacity:1"
           d="m 13069.836,9824.9148 c 4.933,-689.5965 -189.062,-1250.2669 -433.307,-1252.3 -244.246,-2.0331 -446.266,555.3408 -451.199,1244.9375 -4.933,689.5957 189.091,1250.2667 433.336,1252.3007 244.245,2.034 446.238,-555.342 451.17,-1244.9382 z m -5.699,3.1885 c -4.825,674.5617 -204.429,1219.7627 -445.852,1217.7537 -241.422,-2.01 -433.233,-550.47 -428.408,-1225.0311 4.825,-674.5616 204.459,-1219.7628 445.881,-1217.7532 241.423,2.0097 433.204,550.4689 428.379,1225.0306 z"
           id="path3225-3-7-7-6-0-82"
           inkscape:connector-curvature="0" />
      </g>
      <path
         class="fil0 str0"
         d="m 26.060822,1028.4325 c 0,2.0395 -1.638471,3.693 -3.659578,3.693 -2.019877,0 -3.658367,-1.6535 -3.658367,-3.693 -0.133177,-1.9946 1.505299,-3.6466 3.658367,-3.6911 2.021107,0 3.659578,1.652 3.659578,3.6911 z"
         id="path4782-4-7-0-6"
         inkscape:connector-curvature="0"
         style="fill:#000000;fill-opacity:1;fill-rule:nonzero;stroke:#72706f;stroke-width:0.02825918" />
      <path
         class="fil3"
         d="m 19.850065,1025.7264 c 0.519305,-0.6678 2.554244,-1.0657 3.296714,-0.9599 3.438876,0.4909 3.831522,6.3345 0.294707,7.1222"
         id="path4788-8-2-8-4"
         inkscape:connector-curvature="0"
         style="fill:none" />
      <path
         inkscape:connector-curvature="0"
         id="path3225-9-0-5-0"
         d="m 22.416437,1034.5678 c 10.343266,0 18.72805,-2.9735 18.72805,-6.6416 0,-3.6681 -8.384784,-6.6416 -18.72805,-6.6416 -10.343259,0 -18.7280516,2.9735 -18.7280516,6.6416 0,3.6681 8.3847926,6.6416 18.7280516,6.6416 z m -0.238293,-0.3091 c -9.535582,0 -17.2655039,-2.7657 -17.2655039,-6.1778 0,-3.4118 7.7299219,-6.1781 17.2655039,-6.1781 9.535588,0 17.265939,2.7663 17.265939,6.1781 0,3.4121 -7.730351,6.1778 -17.265939,6.1778 z"
         style="fill:#000000;fill-opacity:1;fill-rule:evenodd;stroke:#070000;stroke-width:0.13991491;stroke-miterlimit:4;stroke-opacity:1;stroke-dasharray:none" />
      <path
         inkscape:connector-curvature="0"
         id="path3225-3-7-7-6-0-82-5"
         d="m 22.289168,1034.3029 c 9.648484,0.069 17.4931,-2.6454 17.521546,-6.0627 0.02844,-3.4174 -7.770048,-6.2439 -17.418534,-6.313 -9.648473,-0.069 -17.4930973,2.6457 -17.5215563,6.0631 -0.028458,3.4173 7.7700633,6.2436 17.4185443,6.3126 z m -0.04461,-0.079 c -9.438126,-0.068 -17.0663026,-2.8603 -17.038193,-6.2382 0.028125,-3.3778 7.701898,-6.0615 17.140014,-5.9941 9.438123,0.068 17.066302,2.8608 17.038185,6.2386 -0.02811,3.3778 -7.701883,6.0611 -17.140006,5.9937 z"
         style="fill:#000000;fill-opacity:1;fill-rule:evenodd;stroke:none" />
      <path
         inkscape:connector-curvature="0"
         id="path3225-9-0-5-0-8"
         d="m 27.136327,1032.5967 c 7.466774,-7.1574 11.462085,-15.1063 8.923753,-17.7542 -2.53833,-2.648 -10.648937,1.0077 -18.115713,8.1652 -7.466769,7.1575 -11.4620758,15.1064 -8.9237438,17.7544 2.5383308,2.6479 10.6489348,-1.0078 18.1157038,-8.1654 z m -0.38593,-0.058 c -6.883711,6.5987 -14.377812,9.9512 -16.738884,7.488 -2.3610708,-2.463 1.304955,-9.8089 8.188665,-16.4076 6.883714,-6.5987 14.378417,-9.9511 16.73949,-7.4881 2.36107,2.4632 -1.305556,9.8092 -8.189271,16.4077 z"
         style="fill:#000000;fill-opacity:1;fill-rule:evenodd;stroke:#140000;stroke-width:0.13991493;stroke-miterlimit:4;stroke-opacity:1;stroke-dasharray:none" />
      <path
         inkscape:connector-curvature="0"
         id="path3225-3-7-7-6-0-82-5-2"
         d="m 26.861121,1032.4937 c 7.012976,-6.627 10.7977,-14.0149 8.453427,-16.5015 -2.344283,-2.4867 -9.929974,0.8693 -16.942953,7.4962 -7.012969,6.627 -10.7974179,14.0151 -8.4531533,16.5018 2.3442643,2.4867 9.9297163,-0.8696 16.9426793,-7.4965 z m -0.08738,-0.026 c -6.860073,6.4824 -14.299421,9.745 -16.616614,7.287 -2.3171745,-2.4579 1.365364,-9.7054 8.225431,-16.1879 6.860073,-6.4824 14.299713,-9.7448 16.616891,-7.2869 2.317187,2.458 -1.365635,9.7053 -8.225708,16.1878 z"
         style="fill:#000000;fill-opacity:1;fill-rule:evenodd;stroke:none" />
      <path
         inkscape:connector-curvature="0"
         id="path3225-9-0-5-0-1"
         d="m 27.01532,1023.0105 c -7.462424,-7.1621 -15.570797,-10.8228 -18.1107375,-8.1763 -2.5399405,2.6465 1.4505295,10.5978 8.9129535,17.7598 7.46242,7.162 15.57081,10.8227 18.11075,8.1763 2.539939,-2.6465 -1.450547,-10.5977 -8.912966,-17.7598 z m -0.04212,0.388 c 6.879702,6.6028 10.541552,13.9507 8.178986,16.4124 -2.362567,2.4617 -9.854922,-0.8952 -16.734623,-7.498 -6.879703,-6.6027 -10.541575,-13.9513 -8.179007,-16.4129 2.362568,-2.4617 9.854942,0.8956 16.734644,7.4985 z"
         style="fill:#000000;fill-opacity:1;fill-rule:evenodd;stroke:#0a0000;stroke-width:0.13991491;stroke-miterlimit:4;stroke-opacity:1;stroke-dasharray:none" />
      <path
         inkscape:connector-curvature="0"
         id="path3225-3-7-7-6-0-82-5-6"
         d="m 26.97892,1023.3449 c -6.913363,-6.7307 -14.452543,-10.2043 -16.839373,-7.7584 -2.3868394,2.4458 1.28237,9.885 8.195736,16.6158 6.913357,6.7308 14.452823,10.2042 16.839661,7.7583 2.38684,-2.4458 -1.282652,-9.8849 -8.196024,-16.6157 z m -0.02303,0.088 c 6.762642,6.5841 10.332378,13.881 7.973131,16.2986 -2.359248,2.4176 -9.754009,-0.9598 -16.516644,-7.5437 -6.762641,-6.5841 -10.3320886,-13.8813 -7.972844,-16.299 2.359252,-2.4175 9.753717,0.9602 16.516357,7.5441 z"
         style="fill:#000000;fill-opacity:1;fill-rule:evenodd;stroke:none" />
    </g>
  </g>
</svg>
