<?xml version="1.0" encoding="UTF-8" standalone="no"?>
<!-- Created with Inkscape (http://www.inkscape.org/) -->

<svg
   xmlns:dc="http://purl.org/dc/elements/1.1/"
   xmlns:cc="http://creativecommons.org/ns#"
   xmlns:rdf="http://www.w3.org/1999/02/22-rdf-syntax-ns#"
   xmlns:svg="http://www.w3.org/2000/svg"
   xmlns="http://www.w3.org/2000/svg"
   xmlns:sodipodi="http://sodipodi.sourceforge.net/DTD/sodipodi-0.dtd"
   xmlns:inkscape="http://www.inkscape.org/namespaces/inkscape"
   width="256"
   height="256"
   id="svg2"
   version="1.1"
   inkscape:version="0.48.3.1 r9886"
   sodipodi:docname="applications-puzzles.svg">
  <defs
     id="defs4" />
  <sodipodi:namedview
     id="base"
     pagecolor="#ffffff"
     bordercolor="#666666"
     borderopacity="1.0"
     inkscape:pageopacity="0.0"
     inkscape:pageshadow="2"
     inkscape:zoom="2.7691829"
     inkscape:cx="95.262872"
     inkscape:cy="122.03893"
     inkscape:document-units="px"
     inkscape:current-layer="layer1"
     showgrid="false"
     inkscape:window-width="1918"
     inkscape:window-height="1007"
     inkscape:window-x="0"
     inkscape:window-y="25"
     inkscape:window-maximized="1" />
  <metadata
     id="metadata7">
    <rdf:RDF>
      <cc:Work
         rdf:about="">
        <dc:format>image/svg+xml</dc:format>
        <dc:type
           rdf:resource="http://purl.org/dc/dcmitype/StillImage" />
        <dc:title></dc:title>
      </cc:Work>
    </rdf:RDF>
  </metadata>
  <g
     inkscape:label="Capa 1"
     inkscape:groupmode="layer"
     id="layer1"
     transform="translate(0,-796.36218)">
    <path
       inkscape:connector-curvature="0"
       d="m 240.0561,846.59377 c -3.11686,-3.7974 -7.75472,-7.17938 -12.33752,-7.38449 -9.82592,2.11621 -0.20007,7.82471 -4.47273,12.60767 -4.27249,4.78781 -8.98537,-0.82555 -8.98537,-0.82555 l 0,0 -19.10668,-25.10528 -25.46537,19.38186 c -0.85556,0.54022 -5.94362,3.49707 -8.55521,-1.77607 -2.84176,-5.75351 7.94977,-8.6853 -0.96058,-13.33816 -3.77234,-0.86553 -8.18003,0.45028 -11.87726,2.56155 -0.05,0 -0.1,0.05 -0.20016,0.10008 -1.3708,0.65036 -2.82165,1.55596 -4.22245,2.70664 -3.7974,3.11686 -7.17938,7.75464 -7.37954,12.33752 2.11126,9.826 7.81976,0.20007 12.60766,4.47265 4.78288,4.27257 -0.83049,8.98545 -0.83049,8.98545 l -24.98022,19.25169 c 0,0 19.37675,25.04024 19.37675,25.04024 0,0 4.70785,5.61839 8.98554,0.8304 4.27257,-4.78278 -5.34833,-10.48625 4.47768,-12.59761 4.57776,0.20017 9.21554,3.57721 12.32746,7.36957 1.15077,1.40081 2.05628,2.85174 2.71167,4.22748 0,0.05 0.05,0.10008 0.1,0.15012 2.1313,3.70226 3.43713,8.11499 2.5716,11.88724 -4.65278,8.91035 -7.59462,-1.89116 -13.3431,0.95563 -5.74849,2.84168 -1.59091,8.88035 -1.59091,8.88035 l 18.98648,24.96521 26.22093,-19.9572 c 1.90112,-0.88556 5.61839,-1.92116 7.6797,2.24136 2.84167,5.75351 -7.95489,8.69032 0.95052,13.34319 3.77234,0.86544 8.19,-0.45037 11.88723,-2.56667 0.05,0 0.10008,-0.05 0.15004,-0.1 1.37088,-0.65539 2.82173,-1.56099 4.22262,-2.71167 3.79228,-3.11183 7.17938,-7.75464 7.37946,-12.33249 -2.11127,-9.82601 -7.81977,-0.20016 -12.60759,-4.47274 -4.78295,-4.27257 0.83049,-8.98545 0.83049,-8.98545 l 25.11023,-19.15161 -19.97221,-26.23593 c -0.87047,-1.93617 -1.77607,-5.52829 2.3064,-7.54459 5.75351,-2.8467 8.6853,7.94483 13.33825,-0.96561 0.86536,-3.7673 -0.45037,-8.17499 -2.56163,-11.87717 0,-0.05 -0.05,-0.10008 -0.10009,-0.15012 -0.65539,-1.37583 -1.5609,-2.82667 -2.71167,-4.22756 z"
       id="path1452"
       sodipodi:nodetypes="cccccccccccccccccccccccccccccccccccccccccc"
       style="fill:#000000;fill-opacity:1;fill-rule:evenodd;stroke:none;stroke-width:1.20082438000000002;stroke-miterlimit:4;stroke-opacity:1;stroke-dasharray:none;display:inline" />
    <path
       inkscape:connector-curvature="0"
       d="m 55.525475,873.06347 c -5.043865,1.54966 -10.303153,4.79257 -12.373364,9.26209 -1.902652,10.63819 7.700448,3.39247 10.722008,9.59112 3.021515,6.20466 -4.487442,8.60393 -4.487442,8.60393 l -32.764294,8.77742 8.903092,33.23694 c 0.179503,1.07702 1.059014,7.34149 -5.253316,7.78423 -6.880741,0.47866 -5.402872,-11.43998 -13.6657149,-4.47546 -2.3932994,3.39848 -2.9019062,8.31071 -2.2916048,12.86397 0,0.0598 0,0.11966 0,0.23935 0.059849,1.6334 0.4188107,3.44635 0.975279,5.30711 1.5556334,5.04391 4.7925707,10.3032 9.2680247,12.37336 10.632257,1.9027 3.386538,-7.70045 9.585185,-10.72196 6.20462,-3.02156 8.603935,4.48744 8.603935,4.48744 l 8.974839,32.70449 34.056689,-9.12453 c 2.183894,-0.11965 6.605515,0.1795 6.970493,5.36103 0.47866,6.8807 -11.445992,5.4029 -4.48147,13.6597 3.404452,2.3993 8.316721,2.9019 12.863967,2.2916 0.05985,0 0.119699,0 0.239352,0 1.627426,-0.06 3.440371,-0.4188 5.307149,-0.9752 5.043868,-1.5497 10.303148,-4.7926 12.367348,-9.2621 1.9027,-10.63821 -7.7004,-3.3865 -10.715991,-9.59114 -3.021516,-6.20467 4.487441,-8.60394 4.487441,-8.60394 l 32.54887,-8.81931 -9.16633,-34.2242 c -0.11965,-2.25569 0.35901,-6.37214 5.36098,-6.72517 6.88075,-0.47866 5.40288,11.45793 13.66576,4.49341 2.3933,-3.40445 2.89589,-8.32866 2.28559,-12.87595 0,-0.0598 0,-0.11966 0,-0.17946 -0.0598,-1.63344 -0.41881,-3.44639 -0.96926,-5.30715 -1.55568,-5.04391 -4.79262,-10.30315 -9.26807,-12.36739 -10.63823,-1.90266 -3.38654,7.70044 -9.59116,10.71599 -6.09093,2.96768 -8.47826,-4.1464 -8.56801,-4.40366 0,0 0,-0.17951 0,-0.17951 0,0 0,0.23935 0,0.29916 l -8.83727,-32.98564 -34.242122,9.17831 c -2.279617,0.0598 -6.22855,-0.47866 -6.569597,-5.37296 -0.47866,-6.88075 11.445947,-5.3969 4.475454,-13.65975 -3.39848,-2.39931 -8.310749,-2.9019 -12.863967,-2.2916 -0.05985,0 -0.119699,0 -0.239353,0 -1.633441,0.0598 -3.446342,0.41881 -5.307148,0.97528 z"
       id="path1532"
       sodipodi:nodetypes="ccccccccccccccccccccccccccccccccccccccccccc"
       style="fill:#000000;fill-opacity:1;fill-rule:evenodd;stroke:none;stroke-width:1.33691430000000011;stroke-miterlimit:4;stroke-opacity:1;stroke-dasharray:none;display:inline" />
  </g>
</svg>
