<?xml version="1.0" encoding="UTF-8" standalone="no"?>
<!-- Created with Inkscape (http://www.inkscape.org/) -->

<svg
   xmlns:dc="http://purl.org/dc/elements/1.1/"
   xmlns:cc="http://creativecommons.org/ns#"
   xmlns:rdf="http://www.w3.org/1999/02/22-rdf-syntax-ns#"
   xmlns:svg="http://www.w3.org/2000/svg"
   xmlns="http://www.w3.org/2000/svg"
   xmlns:sodipodi="http://sodipodi.sourceforge.net/DTD/sodipodi-0.dtd"
   xmlns:inkscape="http://www.inkscape.org/namespaces/inkscape"
   width="48"
   height="48"
   id="svg5274"
   version="1.1"
   inkscape:version="0.48.5 r10040"
   sodipodi:docname="applications-monodevelopment.svg">
  <defs
     id="defs5276" />
  <sodipodi:namedview
     id="base"
     pagecolor="#ffffff"
     bordercolor="#666666"
     borderopacity="1.0"
     inkscape:pageopacity="0.0"
     inkscape:pageshadow="2"
     inkscape:zoom="10.185843"
     inkscape:cx="16.334304"
     inkscape:cy="21.347004"
     inkscape:document-units="px"
     inkscape:current-layer="layer1"
     showgrid="false"
     inkscape:window-width="1914"
     inkscape:window-height="1031"
     inkscape:window-x="0"
     inkscape:window-y="25"
     inkscape:window-maximized="1"
     showguides="true"
     inkscape:guide-bbox="true">
    <sodipodi:guide
       orientation="0,1"
       position="-39.943223,244.26817"
       id="guide3003" />
  </sodipodi:namedview>
  <metadata
     id="metadata5279">
    <rdf:RDF>
      <cc:Work
         rdf:about="">
        <dc:format>image/svg+xml</dc:format>
        <dc:type
           rdf:resource="http://purl.org/dc/dcmitype/StillImage" />
        <dc:title />
      </cc:Work>
    </rdf:RDF>
  </metadata>
  <g
     inkscape:label="Capa 1"
     inkscape:groupmode="layer"
     id="layer1"
     transform="translate(0,-1004.3622)">
    <rect
       id="rect7046-0-2-9-5-1-9-7-8"
       ry="11.113834"
       rx="7.5161529"
       height="45.593117"
       width="47.351856"
       transform="matrix(-0.00430507,-0.99999073,0.99998792,-0.00491528,0,0)"
       class="fil3 str0"
       x="-1052.2515"
       y="-3.9279816"
       style="fill:#ffffff;fill-rule:evenodd;stroke:none" />
    <g
       id="g3786"
       transform="matrix(1.1257311,0,0,1.1257311,45.369253,-128.86897)">
      <g
         transform="matrix(0.1559062,0,0,0.1559062,-39.536733,883.90109)"
         id="g3779">
        <rect
           id="rect7046-0-2-9-5-1-9-7"
           ry="54.018547"
           rx="36.532097"
           height="221.60435"
           width="230.15269"
           transform="matrix(-0.00430507,-0.99999073,0.99998792,-0.00491528,0,0)"
           class="fil3 str0"
           x="-1042.3267"
           y="14.714283"
           style="fill:#000000;fill-rule:evenodd;stroke:#000000;stroke-width:6.79553461;stroke-opacity:1" />
        <path
           style="fill:#ffffff;fill-opacity:1;fill-rule:evenodd;stroke:none;display:inline"
           id="path3607"
           inkscape:connector-curvature="0"
           d="m 60.732917,997.26247 c -8.615871,-20.78812 -20.038334,-39.10816 -20.29226,-73.05855 -0.262267,-35.07649 29.925689,-57.78599 53.784897,-57.7887 28.886696,-0.004 54.302326,24.31077 55.642506,44.45018 1.20946,18.17485 -5.27937,44.60749 -38.77176,44.41102 -15.991953,-0.0926 -32.609022,-13.95894 -32.696568,-34.58909 -0.09471,-22.26189 27.885078,-24.43366 34.940878,-18.76623 2.74073,2.20149 2.65696,6.55783 0.23224,5.7714 -15.065154,-4.88909 -24.372186,4.74656 -23.681026,14.33285 0.93829,13.00706 8.680496,20.74562 22.558936,21.40385 20.01968,0.94781 25.62427,-18.45843 25.11246,-26.33471 -0.62196,-9.57621 -8.99892,-29.27209 -35.05684,-32.8703 -12.303914,-1.69716 -22.501045,1.97605 -29.949599,9.17389 -7.448369,7.19846 -11.635922,14.64207 -12.247692,26.85251 -0.632775,12.62963 2.133719,20.04013 9.712263,36.61024 2.706998,5.91789 10.268429,17.8576 16.12417,29.81349 l -25.412481,10.58815 z" />
        <path
           style="fill:#ffffff;fill-opacity:1;fill-rule:evenodd;stroke:none;display:inline"
           id="path3611"
           inkscape:connector-curvature="0"
           d="m 192.60515,866.41522 c 8.61593,20.78954 20.03833,39.10884 20.29226,73.05997 0.26233,35.07649 -29.92575,57.78593 -53.78484,57.78728 -28.88675,0.005 -54.30245,-24.31009 -55.64251,-44.44746 -1.20939,-18.17689 5.27925,-44.61015 38.77176,-44.41238 15.99196,0.0925 32.60903,13.95894 32.69657,34.58847 0.0947,22.26121 -27.88513,24.43428 -34.94094,18.76624 -2.74067,-2.2015 -2.65701,-6.55722 -0.23218,-5.77141 15.0651,4.88971 24.37201,-4.74724 23.68085,-14.33291 -0.93823,-13.007 -8.68038,-20.74426 -22.55881,-21.40243 -20.01968,-0.94787 -25.62428,18.45905 -25.11253,26.33403 0.62196,9.57615 8.99886,29.27332 35.0569,32.86888 12.30392,1.6979 22.50105,-1.97531 29.94948,-9.17315 7.44849,-7.19914 11.63611,-14.64275 12.24788,-26.85115 0.63271,-12.63031 -2.13385,-20.04012 -9.71239,-36.6103 -2.707,-5.91987 -10.26849,-17.85692 -16.12405,-29.81417 l 25.41236,-10.58951 z" />
      </g>
    </g>
  </g>
</svg>
