<?xml version="1.0" encoding="UTF-8" standalone="no"?>
<!-- Created with Inkscape (http://www.inkscape.org/) -->

<svg
   xmlns:dc="http://purl.org/dc/elements/1.1/"
   xmlns:cc="http://creativecommons.org/ns#"
   xmlns:rdf="http://www.w3.org/1999/02/22-rdf-syntax-ns#"
   xmlns:svg="http://www.w3.org/2000/svg"
   xmlns="http://www.w3.org/2000/svg"
   xmlns:sodipodi="http://sodipodi.sourceforge.net/DTD/sodipodi-0.dtd"
   xmlns:inkscape="http://www.inkscape.org/namespaces/inkscape"
   width="48"
   height="48"
   id="svg5274"
   version="1.1"
   inkscape:version="0.48.5 r10040"
   sodipodi:docname="applications-lisp.svg">
  <defs
     id="defs5276" />
  <sodipodi:namedview
     id="base"
     pagecolor="#ffffff"
     bordercolor="#666666"
     borderopacity="1.0"
     inkscape:pageopacity="0.0"
     inkscape:pageshadow="2"
     inkscape:zoom="5.8024416"
     inkscape:cx="38.258175"
     inkscape:cy="13.137726"
     inkscape:document-units="px"
     inkscape:current-layer="layer1"
     showgrid="false"
     inkscape:window-width="1914"
     inkscape:window-height="1031"
     inkscape:window-x="0"
     inkscape:window-y="25"
     inkscape:window-maximized="1"
     showguides="true"
     inkscape:guide-bbox="true">
    <sodipodi:guide
       orientation="1,0"
       position="-83.068479,45.670429"
       id="guide3010" />
  </sodipodi:namedview>
  <metadata
     id="metadata5279">
    <rdf:RDF>
      <cc:Work
         rdf:about="">
        <dc:format>image/svg+xml</dc:format>
        <dc:type
           rdf:resource="http://purl.org/dc/dcmitype/StillImage" />
        <dc:title />
      </cc:Work>
    </rdf:RDF>
  </metadata>
  <g
     inkscape:label="Capa 1"
     inkscape:groupmode="layer"
     id="layer1"
     transform="translate(0,-1004.3622)">
    <rect
       id="rect7046-0-2-9-1-0-8-5-5"
       ry="11.195549"
       rx="7.5714154"
       height="45.928341"
       width="47.70002"
       transform="matrix(-0.00430507,-0.99999073,0.99998792,-0.00491528,0,0)"
       class="fil3 str0"
       x="-1052.2285"
       y="-4.0389452"
       style="fill:#ffffff;fill-rule:evenodd;stroke:none" />
    <rect
       id="rect7046-0-2-9-1-0-8-5"
       ry="9.2616873"
       rx="6.2635679"
       height="37.994919"
       width="39.460564"
       transform="matrix(-0.00430507,-0.99999073,0.99998792,-0.00491528,0,0)"
       class="fil3 str0"
       x="-1048.2749"
       y="-0.67455703"
       style="fill:#000000;fill-rule:evenodd;stroke:#000000;stroke-width:1.16512048;stroke-opacity:1" />
    <path
       id="path7050-7-1-0-9-3-8-0"
       d="m 17.469458,1008.6687 c 3.286,-0.5442 18.016507,-0.2666 20.482923,0.9654 2.286884,1.1422 3.264355,3.4837 3.34114,6.448 l 0.352669,13.6043"
       class="fil2"
       inkscape:connector-curvature="0"
       style="fill:none" />
    <path
       id="path7054-6-7-2-3-9-0-3"
       d="m 3.7394951,1030.7754 c 0,2.3944 -0.4251081,5.2306 -0.2344014,7.6185 0.5953565,7.4553 3.5115214,10.0923 11.5015103,9.5772 1.539631,-0.099 9.857999,0.2175 11.618483,0.2175"
       class="fil2"
       inkscape:connector-curvature="0"
       style="fill:none" />
    <path
       id="path7050-7-1-0-8-5-2-6"
       d="m 17.469458,1008.6687 c 3.286,-0.5442 18.016507,-0.2666 20.482923,0.9654 2.286884,1.1422 3.264355,3.4837 3.34114,6.448 l 0.352669,13.6043"
       class="fil2"
       inkscape:connector-curvature="0"
       style="fill:none" />
    <path
       inkscape:connector-curvature="0"
       id="path6171"
       style="font-size:633.29187012px;font-style:normal;font-variant:normal;font-weight:normal;font-stretch:normal;line-height:125%;letter-spacing:0px;word-spacing:0px;fill:#ffffff;fill-opacity:1;fill-rule:evenodd;stroke:none;font-family:Visitor TT2 BRK;-inkscape-font-specification:Visitor TT2 BRK"
       d="m 12.7927,1025.7001 8.420279,0 0,2.0781 -10.498346,0 0,-10.4714 2.078067,0 0,8.3933" />
    <path
       inkscape:connector-curvature="0"
       id="path6175"
       style="font-size:633.29187012px;font-style:normal;font-variant:normal;font-weight:normal;font-stretch:normal;line-height:125%;letter-spacing:0px;word-spacing:0px;fill:#ffffff;fill-opacity:1;fill-rule:evenodd;stroke:none;font-family:Visitor TT2 BRK;-inkscape-font-specification:Visitor TT2 BRK"
       d="m 11.204704,1029.7955 10.4984,0 0,2.0781 -8.420278,0 0,2.105 8.420278,0 0,6.2882 -10.4984,0 0,-2.0781 8.393317,0 0,-2.1051 -8.393317,0 0,-6.2881" />
    <path
       inkscape:connector-curvature="0"
       id="path6177"
       style="font-size:633.29187012px;font-style:normal;font-variant:normal;font-weight:normal;font-stretch:normal;line-height:125%;letter-spacing:0px;word-spacing:0px;fill:#ffffff;fill-opacity:1;fill-rule:evenodd;stroke:none;font-family:Visitor TT2 BRK;-inkscape-font-specification:Visitor TT2 BRK"
       d="m 32.195972,1031.8736 2.105083,0 0,4.21 -8.393316,0 0,4.1832 -2.105058,0 0,-10.4713 8.393291,0 0,2.0781 -6.288233,0 0,2.105 6.288233,0 0,-2.105" />
    <path
       inkscape:connector-curvature="0"
       id="path6173"
       style="font-size:633.29187012px;font-style:normal;font-variant:normal;font-weight:normal;font-stretch:normal;line-height:125%;letter-spacing:0px;word-spacing:0px;fill:#ffffff;fill-opacity:1;fill-rule:evenodd;stroke:none;font-family:Visitor TT2 BRK;-inkscape-font-specification:Visitor TT2 BRK"
       d="m 33.810957,1017.3068 0,2.0781 -4.210167,0 0,6.3152 4.210167,0 0,2.0781 -10.4984,0 0,-2.0781 4.183203,0 0,-6.3152 -4.183203,0 0,-2.0781 10.4984,0" />
    <rect
       id="rect7046-0-2-9-1-0-8-5-9"
       ry="55.345139"
       rx="37.429253"
       height="227.04652"
       width="235.80479"
       transform="matrix(-0.00430507,-0.99999073,0.99998792,-0.00491528,0,0)"
       class="fil3 str0"
       x="-1047.1469"
       y="296.65359"
       style="fill:#000000;fill-rule:evenodd;stroke:#000000;stroke-width:6.96241951;stroke-opacity:1" />
  </g>
</svg>
