<?xml version="1.0" encoding="UTF-8" standalone="no"?>
<!-- Created with Inkscape (http://www.inkscape.org/) -->

<svg
   xmlns:dc="http://purl.org/dc/elements/1.1/"
   xmlns:cc="http://creativecommons.org/ns#"
   xmlns:rdf="http://www.w3.org/1999/02/22-rdf-syntax-ns#"
   xmlns:svg="http://www.w3.org/2000/svg"
   xmlns="http://www.w3.org/2000/svg"
   xmlns:sodipodi="http://sodipodi.sourceforge.net/DTD/sodipodi-0.dtd"
   xmlns:inkscape="http://www.inkscape.org/namespaces/inkscape"
   width="256"
   height="256"
   id="svg5274"
   version="1.1"
   inkscape:version="0.48.3.1 r9886"
   sodipodi:docname="applications-ocaml.svg">
  <defs
     id="defs5276" />
  <sodipodi:namedview
     id="base"
     pagecolor="#ffffff"
     bordercolor="#666666"
     borderopacity="1.0"
     inkscape:pageopacity="0.0"
     inkscape:pageshadow="2"
     inkscape:zoom="2.2216235"
     inkscape:cx="196.58668"
     inkscape:cy="116.14292"
     inkscape:document-units="px"
     inkscape:current-layer="layer1"
     showgrid="false"
     inkscape:window-width="1918"
     inkscape:window-height="1007"
     inkscape:window-x="0"
     inkscape:window-y="25"
     inkscape:window-maximized="1"
     showguides="true"
     inkscape:guide-bbox="true">
    <sodipodi:guide
       orientation="0,1"
       position="-73.369767,239.01439"
       id="guide3007" />
    <sodipodi:guide
       orientation="1,0"
       position="17.104608,172.39645"
       id="guide3009" />
  </sodipodi:namedview>
  <metadata
     id="metadata5279">
    <rdf:RDF>
      <cc:Work
         rdf:about="">
        <dc:format>image/svg+xml</dc:format>
        <dc:type
           rdf:resource="http://purl.org/dc/dcmitype/StillImage" />
        <dc:title></dc:title>
      </cc:Work>
    </rdf:RDF>
  </metadata>
  <g
     inkscape:label="Capa 1"
     inkscape:groupmode="layer"
     id="layer1"
     transform="translate(0,-796.36218)">
    <path
       id="path7050-7-1-0-9-3-8-09-4-1"
       d="m 98.255812,816.17202 c 18.506438,-3.06461 101.467268,-1.50124 115.357928,5.43725 12.8795,6.43279 18.3845,19.61977 18.81697,36.31458 l 1.98619,76.61797"
       class="fil2"
       inkscape:connector-curvature="0"
       style="fill:none" />
    <path
       id="path7054-6-7-2-3-9-0-5-8-3"
       d="m 20.929874,940.6752 c 0,13.48529 -2.394126,29.45822 -1.320099,42.9064 3.353036,41.9879 19.776616,56.8392 64.775526,53.9378 8.671042,-0.5583 55.519319,1.2253 65.434179,1.2253"
       class="fil2"
       inkscape:connector-curvature="0"
       style="fill:none" />
    <rect
       id="rect7046-0-2-9-5-1-9-7-6-0"
       ry="52.160976"
       rx="35.275845"
       height="213.98389"
       width="222.23827"
       transform="matrix(-0.00430507,-0.99999073,0.99998792,-0.00491528,0,0)"
       class="fil3 str0"
       x="-1039.6703"
       y="15.585694"
       style="fill:#000000;fill-rule:evenodd;stroke:#040100;stroke-width:6.56185150000000039;stroke-opacity:1" />
    <path
       id="path7050-7-1-0-8-5-2-2-0-9"
       d="m 98.255812,816.17202 c 18.506438,-3.06461 101.467268,-1.50124 115.357928,5.43725 12.8795,6.43279 18.3845,19.61977 18.81697,36.31458 l 1.98619,76.61797"
       class="fil2"
       inkscape:connector-curvature="0"
       style="fill:none" />
    <path
       style="fill:#ffffff;fill-opacity:1;fill-rule:evenodd;stroke:none;stroke-width:3.28600000000000003;stroke-linecap:butt;stroke-linejoin:miter;stroke-opacity:1;display:inline;stroke-miterlimit:4;stroke-dasharray:none"
       d="m 65.730175,844.46337 c 0,0 -9.06567,0.78851 -16.70859,6.3482 -1.83679,1.33743 3.84448,1.08439 0.95941,4.84671 -2.88163,3.75903 -9.78486,13.12168 -9.78486,13.12168 l 1.40701,4.56084 16.4414,-2.81402 c 0,0 10.35709,19.71522 13.0317,30.40754 2.67475,10.6922 -0.45004,45.8411 6.68351,53.4642 9.69002,10.3604 14.36902,23.7273 14.36902,23.7273 l 2.00439,41.09958 2.00449,0.6704 2.004395,-53.79958 c 0,0 18.98563,52.29448 23.04702,52.41948 2.03062,0.066 -3.51258,-14.1685 -4.49177,-27.43698 -0.97931,-13.2683 -1.98473,-24.7162 0.82807,-23.9803 19.15643,5.011 29.06994,-3.3417 33.74907,-7.3537 2.33956,-2.0043 14.32642,13.7021 16.45567,29.241 2.13255,15.53868 -5.59593,30.91008 -2.5893,30.91008 3.00663,0 10.0252,-32.75018 10.0252,-32.75018 l -7.18617,-31.4098 c 0,0 19.02509,14.3954 21.38773,26.3988 2.36251,12.0033 -11.36252,37.76118 -11.36252,37.76118 l 8.02069,0 9.35484,-40.76768 -7.68551,-21.3877 -1.00226,-31.0746 12.69995,18.378 -15.37139,-30.0757 c 0,0 -8.56949,-48.943 -20.38546,-48.78529 -11.8128,0.16429 -17.74039,31.66594 -26.39531,32.74694 -8.65519,1.08121 -11.55978,-36.79183 -24.72954,-36.42369 -13.16963,0.37131 -22.156575,44.27044 -24.059155,39.09844 -7.20911,-19.59037 -22.72173,-57.14116 -22.72173,-57.14116 z"
       id="path5243"
       inkscape:connector-curvature="0"
       sodipodi:nodetypes="csscccssccccsssccccczccccccczzzsc" />
  </g>
</svg>
