<?xml version="1.0" encoding="UTF-8" standalone="no"?>
<!-- Created with Inkscape (http://www.inkscape.org/) -->

<svg
   xmlns:dc="http://purl.org/dc/elements/1.1/"
   xmlns:cc="http://creativecommons.org/ns#"
   xmlns:rdf="http://www.w3.org/1999/02/22-rdf-syntax-ns#"
   xmlns:svg="http://www.w3.org/2000/svg"
   xmlns="http://www.w3.org/2000/svg"
   xmlns:sodipodi="http://sodipodi.sourceforge.net/DTD/sodipodi-0.dtd"
   xmlns:inkscape="http://www.inkscape.org/namespaces/inkscape"
   width="256"
   height="256"
   id="svg5274"
   version="1.1"
   inkscape:version="0.48.3.1 r9886"
   sodipodi:docname="applications-ruby.svg">
  <defs
     id="defs5276" />
  <sodipodi:namedview
     id="base"
     pagecolor="#ffffff"
     bordercolor="#666666"
     borderopacity="1.0"
     inkscape:pageopacity="0.0"
     inkscape:pageshadow="2"
     inkscape:zoom="2.6599484"
     inkscape:cx="90.45996"
     inkscape:cy="113.02201"
     inkscape:document-units="px"
     inkscape:current-layer="layer1"
     showgrid="false"
     inkscape:window-width="1918"
     inkscape:window-height="1007"
     inkscape:window-x="0"
     inkscape:window-y="25"
     inkscape:window-maximized="1" />
  <metadata
     id="metadata5279">
    <rdf:RDF>
      <cc:Work
         rdf:about="">
        <dc:format>image/svg+xml</dc:format>
        <dc:type
           rdf:resource="http://purl.org/dc/dcmitype/StillImage" />
        <dc:title></dc:title>
      </cc:Work>
    </rdf:RDF>
  </metadata>
  <g
     inkscape:label="Capa 1"
     inkscape:groupmode="layer"
     id="layer1"
     transform="translate(0,-796.36218)">
    <rect
       id="rect7046-0-2-9-1-0-8-5-5-4"
       ry="51.247665"
       rx="34.65818"
       height="210.23714"
       width="218.34702"
       transform="matrix(-0.00430507,-0.99999073,0.99998792,-0.00491528,0,0)"
       class="fil3 str0"
       x="-1035.5312"
       y="21.01683"
       style="fill:#000000;fill-rule:evenodd;stroke:#000000;stroke-width:6.44695710999999960;stroke-opacity:1" />
    <path
       id="path7050-7-1-0-9-3-8-0-1-8"
       d="m 100.89981,816.30113 c 18.18241,-3.01098 99.69069,-1.47502 113.3381,5.34203 12.65399,6.32021 18.06263,19.27633 18.4875,35.67876 l 1.95142,75.27647"
       class="fil2"
       inkscape:connector-curvature="0"
       style="fill:none" />
    <path
       id="path7054-6-7-2-3-9-0-3-7-5"
       d="m 24.927856,938.62425 c 0,13.24913 -2.352251,28.94248 -1.297013,42.15517 3.294285,41.25268 19.430287,55.84388 63.64127,52.99338 8.51923,-0.5484 54.547227,1.2037 64.288507,1.2037"
       class="fil2"
       inkscape:connector-curvature="0"
       style="fill:none" />
    <path
       id="path7050-7-1-0-8-5-2-6-8-5"
       d="m 100.89981,816.30113 c 18.18241,-3.01098 99.69069,-1.47502 113.3381,5.34203 12.65399,6.32021 18.06263,19.27633 18.4875,35.67876 l 1.95142,75.27647"
       class="fil2"
       inkscape:connector-curvature="0"
       style="fill:none" />
    <polygon
       points="186.849,187.641 198.13,39.95 153.5,130.41 40.38,197.58 "
       transform="matrix(0.87157312,0,0,0.87157312,41.836691,837.65903)"
       id="polygon16"
       style="fill:#000000;fill-opacity:1;fill-rule:evenodd;stroke:#ffffff;stroke-width:3.2465241;stroke-miterlimit:4;stroke-opacity:1;stroke-dasharray:none" />
    <polygon
       points="140.209,145.93 187.089,187.54 174.5,100.65 "
       transform="matrix(0.87157312,0,0,0.87157312,41.836691,837.65903)"
       id="polygon27"
       style="fill:#000000;fill-opacity:1;fill-rule:evenodd;stroke:#ffffff;stroke-width:3.2465241;stroke-miterlimit:4;stroke-opacity:1;stroke-dasharray:none" />
    <polygon
       points="40.87,197.391 187.259,187.54 95.03,180.3 "
       transform="matrix(0.87157312,0,0,0.87157312,41.836691,837.65903)"
       id="polygon38"
       style="fill:#000000;fill-opacity:1;fill-rule:evenodd;stroke:#ffffff;stroke-width:3.2465241;stroke-miterlimit:4;stroke-opacity:1;stroke-dasharray:none" />
    <polygon
       points="58.33,120.01 140.2,146.18 119,63.14 "
       transform="matrix(0.87157312,0,0,0.87157312,41.836691,837.65903)"
       id="polygon68"
       style="fill:#000000;fill-opacity:1;fill-rule:evenodd;stroke:#ffffff;stroke-width:3.2465241;stroke-miterlimit:4;stroke-opacity:1;stroke-dasharray:none" />
    <polygon
       points="120,69.1 193.32,64.31 135.97,17.47 "
       transform="matrix(0.87157312,0,0,0.87157312,41.836691,837.65903)"
       id="polygon83"
       style="fill:#000000;fill-opacity:1;fill-rule:evenodd;stroke:#ffffff;stroke-width:3.2465241;stroke-miterlimit:4;stroke-opacity:1;stroke-dasharray:none" />
    <polygon
       points="111.49,0.52 166.5,0.77 132.77,19.41 "
       transform="matrix(0.87157312,0,0,0.87157312,41.836691,837.65903)"
       id="polygon96"
       style="fill:#000000;fill-opacity:1;fill-rule:evenodd;stroke:#ffffff;stroke-width:3.2465241;stroke-miterlimit:4;stroke-opacity:1;stroke-dasharray:none" />
    <polygon
       points="2.7,101.62 0,158.09 14.13,132.32 "
       transform="matrix(0.87157312,0,0,0.87157312,41.836691,837.65903)"
       id="polygon109"
       style="fill:#000000;fill-opacity:1;fill-rule:evenodd;stroke:#ffffff;stroke-width:3.2465241;stroke-miterlimit:4;stroke-opacity:1;stroke-dasharray:none" />
    <path
       d="m 43.527418,925.38275 10.023155,28.43074 43.552589,-9.77113 49.723078,-46.21087 14.03231,-44.57123 -22.09517,-15.60123 -37.5649,14.05841 c -11.834934,11.00805 -34.80103,32.78853 -35.628858,33.19815 -0.819256,0.41839 -15.165295,27.53317 -22.042204,40.46716 z"
       inkscape:connector-curvature="0"
       id="path111"
       style="fill:#000000;fill-opacity:1;fill-rule:evenodd;stroke:#ffffff;stroke-width:2.82958317;stroke-miterlimit:4;stroke-opacity:1;stroke-dasharray:none" />
    <path
       d="m 77.571134,1009.6901 19.924117,-65.99544 66.169869,21.25747 c -23.92469,22.43447 -50.53377,41.39977 -86.093986,44.73797 z"
       inkscape:connector-curvature="0"
       id="path147"
       style="fill:#000000;fill-opacity:1;fill-rule:evenodd;stroke:#ffffff;stroke-width:2.82958317;stroke-miterlimit:4;stroke-opacity:1;stroke-dasharray:none" />
    <path
       d="m 146.91357,897.70166 16.98678,67.28553 c 19.98529,-21.01366 37.92228,-43.60482 46.70684,-71.54761 l -63.69362,4.26208 z"
       inkscape:connector-curvature="0"
       id="path158"
       style="fill:#000000;fill-opacity:1;fill-rule:evenodd;stroke:#ffffff;stroke-width:2.82958317;stroke-miterlimit:4;stroke-opacity:1;stroke-dasharray:none" />
    <path
       d="m 210.43373,893.77964 c 6.79836,-20.51692 8.36711,-49.94992 -23.69022,-55.41477 l -26.3041,14.52923 49.99432,40.88554 z"
       inkscape:connector-curvature="0"
       id="path169"
       style="fill:#000000;fill-opacity:1;fill-rule:evenodd;stroke:#ffffff;stroke-width:2.82958317;stroke-miterlimit:4;stroke-opacity:1;stroke-dasharray:none" />
    <path
       d="m 41.836691,975.14967 c 0.941243,33.86143 25.371432,34.36603 35.778097,34.66343 L 53.576683,953.67399 41.836691,975.14967 z"
       inkscape:connector-curvature="0"
       id="path171"
       style="fill:#000000;fill-opacity:1;fill-rule:evenodd;stroke:#ffffff;stroke-width:2.82958317;stroke-miterlimit:4;stroke-opacity:1;stroke-dasharray:none" />
    <path
       d="m 147.0085,897.8063 c 15.35704,9.43912 46.30749,28.39571 46.93517,28.74433 0.9752,0.54915 13.34361,-20.85659 16.1502,-32.95417 l -63.08537,4.20984 z"
       inkscape:connector-curvature="0"
       id="path182"
       style="fill:#000000;fill-opacity:1;fill-rule:evenodd;stroke:#ffffff;stroke-width:2.82958317;stroke-miterlimit:4;stroke-opacity:1;stroke-dasharray:none" />
    <path
       d="m 97.469146,943.69466 26.635194,51.38793 c 15.7495,-8.54155 28.08213,-18.94804 39.3778,-30.0954 L 97.469146,943.69466 z"
       inkscape:connector-curvature="0"
       id="path193"
       style="fill:#000000;fill-opacity:1;fill-rule:evenodd;stroke:#ffffff;stroke-width:2.82958317;stroke-miterlimit:4;stroke-opacity:1;stroke-dasharray:none" />
    <path
       d="m 53.47223,953.74393 -3.773928,44.93817 c 7.1207,9.7267 16.91721,10.5723 27.192925,9.8138 C 69.45678,989.99246 54.605039,952.99426 53.47223,953.74393 z"
       inkscape:connector-curvature="0"
       id="path206"
       style="fill:#000000;fill-opacity:1;fill-rule:evenodd;stroke:#ffffff;stroke-width:2.82958317;stroke-miterlimit:4;stroke-opacity:1;stroke-dasharray:none" />
    <path
       d="m 160.28346,853.00731 52.91319,7.42588 c -2.82392,-11.96665 -11.4962,-19.68891 -26.27798,-22.10301 l -26.63521,14.67713 z"
       inkscape:connector-curvature="0"
       id="path219"
       style="fill:#000000;fill-opacity:1;fill-rule:evenodd;stroke:#ffffff;stroke-width:2.82958317;stroke-miterlimit:4;stroke-opacity:1;stroke-dasharray:none" />
    <path
       style="fill:#ffffff;fill-rule:evenodd;stroke:#ffffff;stroke-width:0.09431945999999999px;stroke-linecap:butt;stroke-linejoin:miter;stroke-opacity:1"
       d="m 137.06537,836.78475 23.20524,16.72937 -13.49136,43.71244 -48.569392,45.33137 -44.2519,11.33279 -10.79334,-28.06216 20.50703,-39.93481 37.776232,-33.99855 z"
       id="path9259"
       inkscape:connector-curvature="0" />
    <path
       d="m 78.721477,874.84843 c 25.650493,-25.43263 58.718083,-40.45839 71.408083,-27.65516 12.68236,12.80344 -0.76702,43.91857 -26.41732,69.34242 -25.650482,25.42384 -58.30826,41.27763 -70.989689,28.47421 -12.690002,-12.79465 0.348633,-44.73782 25.998926,-70.16147 z"
       inkscape:connector-curvature="0"
       id="path134"
       style="fill:#000000;fill-opacity:1;fill-rule:evenodd;stroke:#ffffff;stroke-width:2.82958317;stroke-miterlimit:4;stroke-opacity:1;stroke-dasharray:none" />
  </g>
</svg>
