<?xml version="1.0" encoding="UTF-8" standalone="no"?>
<!-- Created with Inkscape (http://www.inkscape.org/) -->

<svg
   xmlns:dc="http://purl.org/dc/elements/1.1/"
   xmlns:cc="http://creativecommons.org/ns#"
   xmlns:rdf="http://www.w3.org/1999/02/22-rdf-syntax-ns#"
   xmlns:svg="http://www.w3.org/2000/svg"
   xmlns="http://www.w3.org/2000/svg"
   xmlns:sodipodi="http://sodipodi.sourceforge.net/DTD/sodipodi-0.dtd"
   xmlns:inkscape="http://www.inkscape.org/namespaces/inkscape"
   width="48"
   height="48"
   id="svg5274"
   version="1.1"
   inkscape:version="0.48.5 r10040"
   sodipodi:docname="applications-ocaml.svg">
  <defs
     id="defs5276" />
  <sodipodi:namedview
     id="base"
     pagecolor="#ffffff"
     bordercolor="#666666"
     borderopacity="1.0"
     inkscape:pageopacity="0.0"
     inkscape:pageshadow="2"
     inkscape:zoom="6.8017096"
     inkscape:cx="57.451988"
     inkscape:cy="10.802911"
     inkscape:document-units="px"
     inkscape:current-layer="layer1"
     showgrid="false"
     inkscape:window-width="1914"
     inkscape:window-height="1031"
     inkscape:window-x="0"
     inkscape:window-y="25"
     inkscape:window-maximized="1"
     showguides="true"
     inkscape:guide-bbox="true"
     inkscape:snap-global="false">
    <sodipodi:guide
       orientation="0,1"
       position="-73.369767,239.01439"
       id="guide3007" />
  </sodipodi:namedview>
  <metadata
     id="metadata5279">
    <rdf:RDF>
      <cc:Work
         rdf:about="">
        <dc:format>image/svg+xml</dc:format>
        <dc:type
           rdf:resource="http://purl.org/dc/dcmitype/StillImage" />
        <dc:title />
      </cc:Work>
    </rdf:RDF>
  </metadata>
  <g
     inkscape:label="Capa 1"
     inkscape:groupmode="layer"
     id="layer1"
     transform="translate(0,-1004.3622)">
    <rect
       id="rect7046-0-2-9-5-1-9-7-6-0-6"
       ry="11.004055"
       rx="7.4419112"
       height="45.142765"
       width="46.884129"
       transform="matrix(-0.00430507,-0.99999073,0.99998792,-0.00491528,0,0)"
       class="fil3 str0"
       x="-1052.1448"
       y="-3.3523195"
       style="fill:#ffffff;fill-rule:evenodd;stroke:none" />
    <path
       id="path7050-7-1-0-9-3-8-09-4-1"
       d="m 18.844183,1009.032 c 3.206909,-0.5312 17.582875,-0.2603 19.989934,0.9422 2.231839,1.1146 3.18578,3.3998 3.260721,6.2927 l 0.344179,13.2768"
       class="fil2"
       inkscape:connector-curvature="0"
       style="fill:none" />
    <path
       id="path7054-6-7-2-3-9-0-5-8-3"
       d="m 5.4446651,1030.6065 c 0,2.3369 -0.4148695,5.1048 -0.228755,7.4352 0.5810346,7.276 3.4270139,9.8494 11.2247049,9.3466 1.502572,-0.097 9.62073,0.2124 11.338839,0.2124"
       class="fil2"
       inkscape:connector-curvature="0"
       style="fill:none" />
    <rect
       id="rect7046-0-2-9-5-1-9-7-6-0"
       ry="9.0387774"
       rx="6.1128163"
       height="37.080452"
       width="38.510822"
       transform="matrix(-0.00430507,-0.99999073,0.99998792,-0.00491528,0,0)"
       class="fil3 str0"
       x="-1047.7598"
       y="0.78349346"
       style="fill:#000000;fill-rule:evenodd;stroke:#040100;stroke-width:1.13707817;stroke-opacity:1" />
    <path
       id="path7050-7-1-0-8-5-2-2-0-9"
       d="m 18.844183,1009.032 c 3.206909,-0.5312 17.582875,-0.2603 19.989934,0.9422 2.231839,1.1146 3.18578,3.3998 3.260721,6.2927 l 0.344179,13.2768"
       class="fil2"
       inkscape:connector-curvature="0"
       style="fill:none" />
    <path
       style="fill:#ffffff;fill-opacity:1;fill-rule:evenodd;stroke:none;display:inline"
       d="m 13.207937,1013.9344 c 0,0 -1.570954,0.1367 -2.895367,1.1 -0.3182901,0.2318 0.666195,0.188 0.166253,0.8399 -0.4993467,0.6513 -1.6955818,2.2739 -1.6955818,2.2739 l 0.2438155,0.7902 2.8490683,-0.4875 c 0,0 1.79474,3.4163 2.258213,5.2691 0.463497,1.8528 -0.07799,7.9437 1.158159,9.2645 1.679146,1.7955 2.489954,4.1117 2.489954,4.1117 l 0.347333,7.1221 0.34735,0.116 0.347334,-9.3227 c 0,0 3.289947,9.062 3.993731,9.0836 0.351879,0.012 -0.608682,-2.4551 -0.778362,-4.7544 -0.1697,-2.2992 -0.343926,-4.2831 0.143492,-4.1555 3.319546,0.8684 5.03742,-0.579 5.848249,-1.2742 0.405414,-0.3473 2.48257,2.3743 2.85154,5.0669 0.369541,2.6928 -0.969697,5.3563 -0.448691,5.3563 0.521008,0 1.73723,-5.6751 1.73723,-5.6751 l -1.245264,-5.4429 c 0,0 3.296785,2.4945 3.706198,4.5746 0.409389,2.08 -1.968968,6.5434 -1.968968,6.5434 l 1.389874,0 1.621066,-7.0645 -1.331794,-3.706 -0.173677,-5.3848 2.200726,3.1846 -2.663651,-5.2118 c 0,0 -1.484972,-8.481 -3.532518,-8.4537 -2.046995,0.029 -3.074164,5.4873 -4.573941,5.6747 -1.499827,0.1872 -2.003152,-6.3755 -4.285289,-6.3118 -2.282114,0.063 -3.839428,7.6714 -4.169118,6.7752 -1.24924,-3.3948 -3.937364,-9.9018 -3.937364,-9.9018 z"
       id="path5243"
       inkscape:connector-curvature="0"
       sodipodi:nodetypes="csscccssccccsssccccczccccccczzzsc" />
  </g>
</svg>
