<?xml version="1.0" encoding="UTF-8" standalone="no"?>
<!-- Created with Inkscape (http://www.inkscape.org/) -->

<svg
   xmlns:dc="http://purl.org/dc/elements/1.1/"
   xmlns:cc="http://creativecommons.org/ns#"
   xmlns:rdf="http://www.w3.org/1999/02/22-rdf-syntax-ns#"
   xmlns:svg="http://www.w3.org/2000/svg"
   xmlns="http://www.w3.org/2000/svg"
   xmlns:sodipodi="http://sodipodi.sourceforge.net/DTD/sodipodi-0.dtd"
   xmlns:inkscape="http://www.inkscape.org/namespaces/inkscape"
   width="48"
   height="48"
   id="svg2"
   version="1.1"
   inkscape:version="0.48.5 r10040"
   sodipodi:docname="applications-photography.svg">
  <defs
     id="defs4" />
  <sodipodi:namedview
     id="base"
     pagecolor="#ffffff"
     bordercolor="#666666"
     borderopacity="1.0"
     inkscape:pageopacity="0.0"
     inkscape:pageshadow="2"
     inkscape:zoom="9.3665614"
     inkscape:cx="41.671697"
     inkscape:cy="25.66674"
     inkscape:document-units="px"
     inkscape:current-layer="layer1"
     showgrid="false"
     inkscape:window-width="1914"
     inkscape:window-height="1031"
     inkscape:window-x="0"
     inkscape:window-y="25"
     inkscape:window-maximized="1"
     showguides="true"
     inkscape:guide-bbox="true" />
  <metadata
     id="metadata7">
    <rdf:RDF>
      <cc:Work
         rdf:about="">
        <dc:format>image/svg+xml</dc:format>
        <dc:type
           rdf:resource="http://purl.org/dc/dcmitype/StillImage" />
        <dc:title />
      </cc:Work>
    </rdf:RDF>
  </metadata>
  <g
     inkscape:label="Capa 1"
     inkscape:groupmode="layer"
     id="layer1"
     transform="translate(0,-1004.3622)">
    <g
       id="g3781"
       transform="matrix(0.18144108,0,0,0.18144108,0.95787874,861.19219)">
      <rect
         ry="29.503483"
         rx="0"
         y="819.12518"
         x="162.92157"
         height="29.503483"
         width="46.393681"
         id="rect3779"
         style="fill:#ffffff;fill-opacity:1;stroke:none" />
      <rect
         class="fil0 str0"
         transform="matrix(0.99999116,-0.00420361,0.0040646,0.99999174,0,0)"
         width="256.72153"
         height="181.67653"
         rx="42.786861"
         ry="49.203899"
         id="rect5754-8-9"
         x="-4.8839278"
         y="841.22003"
         style="fill:#ffffff;fill-rule:evenodd;stroke:none" />
      <rect
         class="fil0 str0"
         transform="matrix(0.99999146,-0.00413352,0.00413351,0.99999146,0,0)"
         width="226.539"
         height="157.64415"
         rx="37.756443"
         ry="42.695156"
         id="rect5754-8"
         x="8.6778536"
         y="852.62305"
         style="fill:#000000;fill-rule:evenodd;stroke:#000000;stroke-width:4.09791231;stroke-opacity:1" />
      <rect
         class="fil0 str0"
         transform="matrix(0.99999146,-0.00413348,0.00413359,0.99999146,0,0)"
         width="28.104605"
         height="22.80073"
         id="rect5756-0"
         x="169.77626"
         y="829.86835"
         style="fill:#000000;fill-rule:evenodd;stroke:#060200;stroke-width:3.540488;stroke-opacity:1" />
      <g
         id="_68662568-5"
         style="fill:#0c0606;fill-opacity:1;fill-rule:evenodd;stroke:#ffffff;stroke-opacity:1"
         transform="matrix(0.80780007,0.00927768,-0.00927768,0.80780007,6.15943,799.21581)">
        <circle
           id="_67696704-5"
           class="fil1 str0"
           transform="matrix(1.29891,-0.0202882,0.0202882,1.29891,150.834,163.08)"
           r="57.894501"
           cx="0"
           cy="0"
           sodipodi:cx="0"
           sodipodi:cy="0"
           sodipodi:rx="57.894501"
           sodipodi:ry="57.894501"
           style="fill:#0c0606;fill-opacity:1;stroke:#ffffff;stroke-width:4.15232992;stroke-opacity:1"
           d="M 57.894501,0 C 57.894501,31.97425 31.97425,57.894501 0,57.894501 -31.97425,57.894501 -57.894501,31.97425 -57.894501,0 c 0,-31.97425 25.920251,-57.894501 57.894501,-57.894501 31.97425,0 57.894501,25.920251 57.894501,57.894501 z" />
        <circle
           id="_67683808-3"
           class="fil1 str0"
           transform="matrix(0.771358,-0.0120482,0.0120482,0.771358,151.311,162.841)"
           r="57.894501"
           cx="0"
           cy="0"
           sodipodi:cx="0"
           sodipodi:cy="0"
           sodipodi:rx="57.894501"
           sodipodi:ry="57.894501"
           style="fill:#0c0606;fill-opacity:1;stroke:#ffffff;stroke-width:4.15232992;stroke-opacity:1"
           d="M 57.894501,0 C 57.894501,31.97425 31.97425,57.894501 0,57.894501 -31.97425,57.894501 -57.894501,31.97425 -57.894501,0 c 0,-31.97425 25.920251,-57.894501 57.894501,-57.894501 31.97425,0 57.894501,25.920251 57.894501,57.894501 z" />
      </g>
      <path
         class="fil1"
         d="m 116.49741,897.14505 c 7.75396,0.089 16.16329,-2.46904 23.79626,0.46452 10.77692,4.14157 21.15347,15.20263 22.50722,30.52567 1.52491,17.26508 -1.99466,18.76559 -6.43474,25.45086 -3.89034,5.85621 -8.99916,10.48514 -17.66005,12.93639"
         id="path5763-1"
         inkscape:connector-curvature="0"
         style="fill:none" />
      <path
         class="fil1"
         d="m 157.14206,879.8813 c -48.63137,-30.23529 -100.220952,20.6108 -89.828785,68.4383 4.793365,22.06074 23.592163,35.85533 47.006945,42.75987 22.40603,6.60662 44.60675,-6.96873 54.24921,-14.25613"
         id="path5767-2"
         inkscape:connector-curvature="0"
         style="fill:none" />
      <path
         class="fil1"
         d="m 135.00396,852.21363 c 21.10926,3.17781 84.85656,-10.17192 96.72649,20.5502 7.5583,19.56528 5.14471,31.28677 5.806,49.74631 l 1.43432,40.04799"
         id="path5771-1"
         inkscape:connector-curvature="0"
         style="fill:none" />
      <path
         class="fil1"
         d="m 12.450933,918.35734 c -0.270489,23.55132 -1.790173,69.7928 18.195714,83.54936 14.809144,10.195 26.19119,7.8825 43.507776,7.8218 l 34.392547,-0.1204"
         id="path5775-9"
         inkscape:connector-curvature="0"
         style="fill:none" />
      <path
         class="fil1"
         d="m 193.19804,828.73489 c -5.36332,-1.23239 -10.98151,-0.24353 -16.36802,0.0446 -5.374,0.28717 -3.47687,17.75228 -3.52257,21.73149"
         id="path5779-7"
         inkscape:connector-curvature="0"
         style="fill:none" />
      <circle
         d="m 194.1633,163.002 c 0,23.75172 -19.25458,43.0063 -43.0063,43.0063 -23.75173,0 -43.0063,-19.25458 -43.0063,-43.0063 0,-23.75173 19.25457,-43.0063 43.0063,-43.0063 23.75172,0 43.0063,19.25457 43.0063,43.0063 z"
         class="fil3"
         cx="151.157"
         cy="163.002"
         r="43.006302"
         id="circle5781-6"
         sodipodi:cx="151.157"
         sodipodi:cy="163.002"
         sodipodi:rx="43.006302"
         sodipodi:ry="43.006302"
         style="fill:#ffffff;fill-rule:evenodd"
         transform="matrix(0.82616128,0.00948857,-0.00975216,0.84911279,3.0642546,792.64275)" />
    </g>
  </g>
</svg>
