<?xml version="1.0" encoding="UTF-8" standalone="no"?>
<!-- Created with Inkscape (http://www.inkscape.org/) -->

<svg
   xmlns:dc="http://purl.org/dc/elements/1.1/"
   xmlns:cc="http://creativecommons.org/ns#"
   xmlns:rdf="http://www.w3.org/1999/02/22-rdf-syntax-ns#"
   xmlns:svg="http://www.w3.org/2000/svg"
   xmlns="http://www.w3.org/2000/svg"
   xmlns:sodipodi="http://sodipodi.sourceforge.net/DTD/sodipodi-0.dtd"
   xmlns:inkscape="http://www.inkscape.org/namespaces/inkscape"
   width="256"
   height="256"
   id="svg2"
   version="1.1"
   inkscape:version="0.48.3.1 r9886"
   sodipodi:docname="applications-photography.svg">
  <defs
     id="defs4" />
  <sodipodi:namedview
     id="base"
     pagecolor="#ffffff"
     bordercolor="#666666"
     borderopacity="1.0"
     inkscape:pageopacity="0.0"
     inkscape:pageshadow="2"
     inkscape:zoom="2.5081786"
     inkscape:cx="44.441758"
     inkscape:cy="127.09402"
     inkscape:document-units="px"
     inkscape:current-layer="layer1"
     showgrid="false"
     inkscape:window-width="1918"
     inkscape:window-height="1007"
     inkscape:window-x="0"
     inkscape:window-y="25"
     inkscape:window-maximized="1"
     showguides="true"
     inkscape:guide-bbox="true" />
  <metadata
     id="metadata7">
    <rdf:RDF>
      <cc:Work
         rdf:about="">
        <dc:format>image/svg+xml</dc:format>
        <dc:type
           rdf:resource="http://purl.org/dc/dcmitype/StillImage" />
        <dc:title></dc:title>
      </cc:Work>
    </rdf:RDF>
  </metadata>
  <g
     inkscape:label="Capa 1"
     inkscape:groupmode="layer"
     id="layer1"
     transform="translate(0,-796.36218)">
    <rect
       style="fill:#000000;fill-rule:evenodd;stroke:#000000;stroke-width:4.21737528;stroke-opacity:1"
       y="853.36212"
       x="8.9976645"
       id="rect5754-8"
       ry="43.939812"
       rx="38.857124"
       height="162.23982"
       width="233.14311"
       transform="matrix(0.99999146,-0.00413352,0.00413351,0.99999146,0,0)"
       class="fil0 str0" />
    <rect
       style="fill:#000000;fill-rule:evenodd;stroke:#060200;stroke-width:3.64370084;stroke-opacity:1"
       y="829.94409"
       x="174.79243"
       id="rect5756-0"
       height="23.46542"
       width="28.923916"
       transform="matrix(0.99999146,-0.00413348,0.00413359,0.99999146,0,0)"
       class="fil0 str0" />
    <g
       transform="matrix(0.8313492,0.00954814,-0.00954814,0.8313492,6.3061357,798.39788)"
       style="fill:#0c0606;fill-opacity:1;fill-rule:evenodd;stroke:#ffffff;stroke-opacity:1"
       id="_68662568-5">
      <circle
         d="M 57.894501,0 C 57.894501,31.97425 31.97425,57.894501 0,57.894501 -31.97425,57.894501 -57.894501,31.97425 -57.894501,0 c 0,-31.97425 25.920251,-57.894501 57.894501,-57.894501 31.97425,0 57.894501,25.920251 57.894501,57.894501 z"
         style="fill:#0c0606;fill-opacity:1;stroke:#ffffff;stroke-width:4.15232992;stroke-opacity:1"
         sodipodi:ry="57.894501"
         sodipodi:rx="57.894501"
         sodipodi:cy="0"
         sodipodi:cx="0"
         cy="0"
         cx="0"
         r="57.894501"
         transform="matrix(1.29891,-0.0202882,0.0202882,1.29891,150.834,163.08)"
         class="fil1 str0"
         id="_67696704-5" />
      <circle
         d="M 57.894501,0 C 57.894501,31.97425 31.97425,57.894501 0,57.894501 -31.97425,57.894501 -57.894501,31.97425 -57.894501,0 c 0,-31.97425 25.920251,-57.894501 57.894501,-57.894501 31.97425,0 57.894501,25.920251 57.894501,57.894501 z"
         style="fill:#0c0606;fill-opacity:1;stroke:#ffffff;stroke-width:4.15232992;stroke-opacity:1"
         sodipodi:ry="57.894501"
         sodipodi:rx="57.894501"
         sodipodi:cy="0"
         sodipodi:cx="0"
         cy="0"
         cx="0"
         r="57.894501"
         transform="matrix(0.771358,-0.0120482,0.0120482,0.771358,151.311,162.841)"
         class="fil1 str0"
         id="_67683808-3" />
    </g>
    <path
       style="fill:none"
       inkscape:connector-curvature="0"
       id="path5763-1"
       d="m 119.86071,899.18197 c 7.98,0.0916 16.63448,-2.54102 24.48997,0.47806 11.09109,4.26231 21.77014,15.64582 23.16336,31.41556 1.56936,17.7684 -2.05281,19.31265 -6.62233,26.19281 -4.00375,6.02693 -9.26151,10.7908 -18.17488,13.31351"
       class="fil1" />
    <path
       style="fill:none"
       inkscape:connector-curvature="0"
       id="path5767-2"
       d="m 161.69024,881.41494 c -50.04908,-31.11671 -103.142613,21.21165 -92.447492,70.43343 4.933102,22.70386 24.279926,36.90059 48.377302,44.00641 23.05921,6.79922 45.90713,-7.17188 55.83069,-14.67172"
       class="fil1" />
    <path
       style="fill:none"
       inkscape:connector-curvature="0"
       id="path5771-1"
       d="m 138.90676,852.9407 c 21.72465,3.27045 87.33032,-10.46845 99.54628,21.14928 7.77864,20.13565 5.29469,32.19885 5.97526,51.19653 l 1.47613,41.21547"
       class="fil1" />
    <path
       style="fill:none"
       inkscape:connector-curvature="0"
       id="path5775-9"
       d="m 12.78105,921.01264 c -0.278375,24.2379 -1.842361,71.82742 18.726158,85.98506 15.240863,10.4922 26.954721,8.1122 44.776123,8.0498 l 35.395169,-0.1239"
       class="fil1" />
    <path
       style="fill:none"
       inkscape:connector-curvature="0"
       id="path5779-7"
       d="m 198.79733,828.7775 c -5.51967,-1.26831 -11.30165,-0.25063 -16.84518,0.0459 -5.53067,0.29555 -3.57823,18.2698 -3.62527,22.36501"
       class="fil1" />
    <circle
       transform="matrix(0.85024568,0.00976518,-0.01003646,0.87386628,3.1207292,791.6332)"
       style="fill:#ffffff;fill-rule:evenodd"
       sodipodi:ry="43.006302"
       sodipodi:rx="43.006302"
       sodipodi:cy="163.002"
       sodipodi:cx="151.157"
       id="circle5781-6"
       r="43.006302"
       cy="163.002"
       cx="151.157"
       class="fil3"
       d="m 194.1633,163.002 c 0,23.75172 -19.25458,43.0063 -43.0063,43.0063 -23.75173,0 -43.0063,-19.25458 -43.0063,-43.0063 0,-23.75173 19.25457,-43.0063 43.0063,-43.0063 23.75172,0 43.0063,19.25457 43.0063,43.0063 z" />
  </g>
</svg>
