<?xml version="1.0" encoding="UTF-8" standalone="no"?>
<!-- Created with Inkscape (http://www.inkscape.org/) -->

<svg
   xmlns:dc="http://purl.org/dc/elements/1.1/"
   xmlns:cc="http://creativecommons.org/ns#"
   xmlns:rdf="http://www.w3.org/1999/02/22-rdf-syntax-ns#"
   xmlns:svg="http://www.w3.org/2000/svg"
   xmlns="http://www.w3.org/2000/svg"
   xmlns:sodipodi="http://sodipodi.sourceforge.net/DTD/sodipodi-0.dtd"
   xmlns:inkscape="http://www.inkscape.org/namespaces/inkscape"
   width="48"
   height="48"
   id="svg4631"
   version="1.1"
   inkscape:version="0.48.5 r10040"
   sodipodi:docname="applications-engineering.svg">
  <defs
     id="defs4633" />
  <sodipodi:namedview
     id="base"
     pagecolor="#ffffff"
     bordercolor="#666666"
     borderopacity="1.0"
     inkscape:pageopacity="0.0"
     inkscape:pageshadow="2"
     inkscape:zoom="6.8777602"
     inkscape:cx="63.443977"
     inkscape:cy="19.805263"
     inkscape:document-units="px"
     inkscape:current-layer="layer1"
     showgrid="false"
     inkscape:window-width="1914"
     inkscape:window-height="1031"
     inkscape:window-x="0"
     inkscape:window-y="25"
     inkscape:window-maximized="1"
     showguides="true"
     inkscape:guide-bbox="true" />
  <metadata
     id="metadata4636">
    <rdf:RDF>
      <cc:Work
         rdf:about="">
        <dc:format>image/svg+xml</dc:format>
        <dc:type
           rdf:resource="http://purl.org/dc/dcmitype/StillImage" />
        <dc:title />
      </cc:Work>
    </rdf:RDF>
  </metadata>
  <g
     inkscape:label="Capa 1"
     inkscape:groupmode="layer"
     id="layer1"
     transform="translate(0,-1004.3622)">
    <path
       inkscape:connector-curvature="0"
       style="fill:#000000;fill-opacity:1;stroke:#ffffff;stroke-width:2.90561962;stroke-linecap:round;stroke-linejoin:round;stroke-miterlimit:4;stroke-opacity:1;stroke-dasharray:none;stroke-dashoffset:0"
       d="m 14.320561,1016.4913 0,4.2505 c -0.994384,0.2573 -1.803519,0.6304 -2.682251,1.1161 l -2.968227,-2.9683 -4.8441328,4.8442 2.9919673,2.9681 0,0.024 c -0.5822571,1.0758 -1.0223349,1.9636 -1.2585254,3.2037 l -4.0130387,0 0,6.5093 4.4167165,0 c 0.225781,0.6844 0.5167932,1.2027 0.8548476,1.8274 0.00363,0.01 -0.00363,0.018 0,0.024 l -2.9919673,2.9682 4.8441328,4.8443 2.968227,-2.9683 c 0.878732,0.4857 1.687867,0.8588 2.682251,1.116 l 0,4.203 6.509401,0 0,-4.203 c 0.976672,-0.2527 1.625863,-0.6189 2.491271,-1.0923 l 3.015706,3.0157 4.844137,-4.8441 -3.01571,-3.0158 c 0.3494,-0.6387 0.647083,-1.1731 0.878595,-1.8749 l 4.464207,0 0,-6.5093 -4.060531,0 c -0.239678,-1.2583 -0.686729,-2.1623 -1.282271,-3.2511 l 3.01571,-3.0158 -4.844137,-4.8441 -3.015706,3.0157 c -0.865408,-0.4734 -1.514599,-0.8396 -2.491271,-1.0924 l 0,-4.2505 -6.509401,0 z m 3.182953,10.6856 c 2.936121,0 5.319057,2.383 5.319057,5.3191 -9e-6,2.9361 -2.382936,5.319 -5.319057,5.319 -2.936121,0 -5.319056,-2.3829 -5.319056,-5.319 0,-2.9361 2.382935,-5.3191 5.319056,-5.3191 z"
       id="path5498"
       sodipodi:nodetypes="cccccccccccsccccccccccccccccccccccccsssc" />
    <path
       inkscape:connector-curvature="0"
       style="fill:#000000;fill-opacity:1;stroke:#ffffff;stroke-width:1.59531558;stroke-linecap:round;stroke-linejoin:round;stroke-miterlimit:4;stroke-opacity:1;stroke-dasharray:none;stroke-dashoffset:0"
       d="m 35.662985,1008.8228 0,2.3338 c -0.545958,0.1413 -0.990208,0.3461 -1.472675,0.6128 l -1.62969,-1.6297 -2.659648,2.6596 1.642725,1.6297 0,0.013 c -0.319682,0.5906 -0.561306,1.078 -0.690986,1.7589 l -2.20334,0 0,3.5739 2.424975,0 c 0.123966,0.3758 0.283744,0.6604 0.469351,1.0033 0.0019,0 -0.0019,0.01 0,0.013 l -1.642725,1.6297 2.659648,2.6596 1.62969,-1.6297 c 0.482467,0.2667 0.926717,0.4715 1.472675,0.6127 l 0,2.3078 3.573956,0 0,-2.3078 c 0.536237,-0.1387 0.89267,-0.3398 1.36782,-0.5996 l 1.655756,1.6557 2.65965,-2.6596 -1.655763,-1.6558 c 0.191839,-0.3508 0.355281,-0.6441 0.482389,-1.0294 l 2.451051,0 0,-3.5741 -2.229415,0 c -0.131593,-0.6907 -0.377042,-1.1872 -0.704025,-1.7848 l 1.655763,-1.6559 -2.65965,-2.6596 -1.655756,1.6558 c -0.47515,-0.2599 -0.831583,-0.461 -1.36782,-0.5998 l 0,-2.3336 -3.573956,0 z m 1.747586,5.8669 c 1.612061,0 2.920397,1.3084 2.920397,2.9205 -10e-7,1.612 -1.308336,2.9204 -2.920397,2.9204 -1.612061,0 -2.920401,-1.3084 -2.920401,-2.9204 0,-1.6121 1.30834,-2.9205 2.920401,-2.9205 z"
       id="path5498-5"
       sodipodi:nodetypes="cccccccccccsccccccccccccccccccccccccsssc" />
  </g>
</svg>
