<?xml version="1.0" encoding="UTF-8" standalone="no"?>
<!-- Created with Inkscape (http://www.inkscape.org/) -->

<svg
   xmlns:dc="http://purl.org/dc/elements/1.1/"
   xmlns:cc="http://creativecommons.org/ns#"
   xmlns:rdf="http://www.w3.org/1999/02/22-rdf-syntax-ns#"
   xmlns:svg="http://www.w3.org/2000/svg"
   xmlns="http://www.w3.org/2000/svg"
   xmlns:sodipodi="http://sodipodi.sourceforge.net/DTD/sodipodi-0.dtd"
   xmlns:inkscape="http://www.inkscape.org/namespaces/inkscape"
   width="48"
   height="48"
   id="svg2"
   version="1.1"
   inkscape:version="0.48.5 r10040"
   sodipodi:docname="applications-chat.svg">
  <defs
     id="defs4" />
  <sodipodi:namedview
     id="base"
     pagecolor="#ffffff"
     bordercolor="#666666"
     borderopacity="1.0"
     inkscape:pageopacity="0.0"
     inkscape:pageshadow="2"
     inkscape:zoom="4.9697666"
     inkscape:cx="30.206458"
     inkscape:cy="13.390492"
     inkscape:document-units="px"
     inkscape:current-layer="layer1"
     showgrid="false"
     inkscape:window-width="1914"
     inkscape:window-height="1031"
     inkscape:window-x="0"
     inkscape:window-y="25"
     inkscape:window-maximized="1" />
  <metadata
     id="metadata7">
    <rdf:RDF>
      <cc:Work
         rdf:about="">
        <dc:format>image/svg+xml</dc:format>
        <dc:type
           rdf:resource="http://purl.org/dc/dcmitype/StillImage" />
        <dc:title />
      </cc:Work>
    </rdf:RDF>
  </metadata>
  <g
     inkscape:label="Capa 1"
     inkscape:groupmode="layer"
     id="layer1"
     transform="translate(0,-1004.3622)">
    <path
       style="color:#bebebe;fill:#ffffff;fill-opacity:1;fill-rule:nonzero;stroke:none;stroke-width:4.82810688;marker:none;visibility:visible;display:inline;overflow:visible;enable-background:accumulate"
       d="m 8.0251638,1005.3874 c -4.7990912,0 -7.16741139,4.6111 -7.16741139,9.4102 l 0,13.9781 c 0,4.7992 2.36832019,8.6627 7.16741139,8.6627 l 19.8847272,0 9.548455,12.6001 -0.196937,-12.8953 c 3.794363,-0.9226 6.595419,-4.2813 6.595419,-8.3675 l 0,-13.9781 c 0,-4.7991 -3.863508,-9.4102 -8.662601,-9.4102 z"
       id="path3008"
       inkscape:connector-curvature="0"
       sodipodi:nodetypes="sssscccssss" />
    <path
       style="color:#bebebe;fill:#000000;fill-opacity:1;fill-rule:nonzero;stroke:none;stroke-width:4.82810688;marker:none;visibility:visible;display:inline;overflow:visible;enable-background:accumulate"
       d="m 11.578987,1008.4736 c -3.9001767,0 -7.0400143,3.1398 -7.0400143,7.04 l 0,11.36 c 0,3.9002 3.1398376,7.04 7.0400143,7.04 l 16.160133,0 7.759941,10.2401 -0.160049,-10.48 c 3.083644,-0.7498 5.360036,-3.4793 5.360036,-6.8001 l 0,-11.36 c 0,-3.9002 -3.139837,-7.04 -7.040015,-7.04 l -22.080046,0 z m 6.000088,2.56 c 0.14517,-0.1863 0.521889,0.3337 0.880002,1.1999 0.546647,1.3226 2.216172,6.5417 1.919929,9.9202 0.278813,-0.01 0.602213,0.048 0.879976,0.08 1.955091,-3.3016 3.800046,-7.1646 4.240109,-9.5201 0.468548,-2.5086 0.826811,-1.096 0.719952,0.4 -0.186583,2.6128 -1.454658,6.7883 -2.879932,9.68 0.157676,0.076 0.327704,0.1525 0.480001,0.2401 2.734637,-2.3555 5.020255,-4.7143 6.479964,-6.56 1.589976,-2.0107 1.445129,-0.6729 0.719952,0.6399 -0.68149,1.2341 -3.184402,4.9584 -5.519937,7.3601 0.259907,0.2818 0.429636,0.5556 0.639927,0.88 2.621524,-1.248 4.899691,-2.6197 6.480113,-3.76 1.939285,-1.3992 1.462086,-0.2105 0.479876,0.7999 -0.84514,0.8698 -3.539687,3.234 -6.079987,4.8 0.08285,0.3133 0.125764,0.6276 0.160049,0.96 3.325372,0.2791 5.032635,0.4344 6.799916,0.48 1.830949,0.047 1.172093,0.2833 0.160074,0.5601 -1.341996,0.3669 -4.538302,0.6826 -6.95999,0.8 -0.02921,0 -0.130991,0 -0.160049,0 l 0,-0.08 -2.319905,0.16 c 0.864496,-5.3995 -7.494833,-7.0298 -8.320142,-0.6401 l -0.07987,1.3601 c -0.832012,-0.2838 -1.554789,-0.6202 -2.159979,-0.88 -1.815747,-0.7793 -2.801707,-1.4466 -3.920158,-2 -1.4909949,-0.738 -0.6363264,-0.6261 0.720101,-0.3201 0.926641,0.2091 2.16208,0.3499 3.520008,0.7201 0.0921,-0.4323 0.116836,-0.8982 0.239925,-1.28 -2.452521,-2.6489 -4.606549,-4.7556 -5.8398875,-6 -1.2531697,-1.2643 -0.4779255,-1.0602 0.7199511,-0.32 1.1340824,0.7009 4.0336944,2.9592 5.9199134,4.6401 0.280463,-0.4951 0.541269,-0.9893 0.880001,-1.36 -1.412919,-3.3874 -3.103326,-7.6765 -3.839958,-9.2801 -0.743059,-1.6179 -0.02265,-1.1163 0.720102,0.08 0.805778,1.2979 3.198106,5.3439 4.639934,8.0799 0.242902,-0.135 0.466297,-0.2268 0.719952,-0.32 0.2368,-3.8941 -0.697894,-8.4382 -0.959902,-10.3201 -0.09878,-0.7094 -0.167203,-1.0883 -0.08003,-1.1998 z m 2.959981,16.5599 c 0.809954,-0.062 1.589951,0.2862 1.99993,1.04 l 0.08002,0.08 c 0.532768,1.033 0.07288,2.3472 -0.960026,2.88 -1.032749,0.533 -2.347164,0.072 -2.879931,-0.9599 -0.532768,-1.0329 -0.07288,-2.2673 0.960027,-2.8001 0.254229,-0.1311 0.529941,-0.2192 0.799976,-0.24 z"
       id="rect11261"
       inkscape:connector-curvature="0" />
    <path
       sodipodi:type="arc"
       style="fill:#ffffff;fill-opacity:1;fill-rule:evenodd;stroke:none"
       id="path5579-3-8-0"
       sodipodi:cx="-19684.475"
       sodipodi:cy="7133.7954"
       sodipodi:rx="83.90654"
       sodipodi:ry="83.90654"
       d="m -19600.568,7133.7954 a 83.90654,83.90654 0 1 1 -167.813,0 83.90654,83.90654 0 1 1 167.813,0 z"
       transform="matrix(0.02459002,-0.00362382,0.00362382,0.02459002,478.98178,782.9244)" />
  </g>
</svg>
