<?xml version="1.0" encoding="UTF-8" standalone="no"?>
<!-- Created with Inkscape (http://www.inkscape.org/) -->

<svg
   xmlns:dc="http://purl.org/dc/elements/1.1/"
   xmlns:cc="http://creativecommons.org/ns#"
   xmlns:rdf="http://www.w3.org/1999/02/22-rdf-syntax-ns#"
   xmlns:svg="http://www.w3.org/2000/svg"
   xmlns="http://www.w3.org/2000/svg"
   xmlns:sodipodi="http://sodipodi.sourceforge.net/DTD/sodipodi-0.dtd"
   xmlns:inkscape="http://www.inkscape.org/namespaces/inkscape"
   width="256"
   height="256"
   id="svg2"
   version="1.1"
   inkscape:version="0.48.3.1 r9886"
   sodipodi:docname="applications-arcade.svg">
  <defs
     id="defs4" />
  <sodipodi:namedview
     id="base"
     pagecolor="#ffffff"
     bordercolor="#666666"
     borderopacity="1.0"
     inkscape:pageopacity="0.0"
     inkscape:pageshadow="2"
     inkscape:zoom="1.397814"
     inkscape:cx="99.004228"
     inkscape:cy="58.21453"
     inkscape:document-units="px"
     inkscape:current-layer="layer1"
     showgrid="false"
     inkscape:window-width="1438"
     inkscape:window-height="827"
     inkscape:window-x="0"
     inkscape:window-y="25"
     inkscape:window-maximized="1" />
  <metadata
     id="metadata7">
    <rdf:RDF>
      <cc:Work
         rdf:about="">
        <dc:format>image/svg+xml</dc:format>
        <dc:type
           rdf:resource="http://purl.org/dc/dcmitype/StillImage" />
        <dc:title></dc:title>
      </cc:Work>
    </rdf:RDF>
  </metadata>
  <g
     inkscape:label="Capa 1"
     inkscape:groupmode="layer"
     id="layer1"
     transform="translate(0,-796.36218)">
    <path
       style="fill:none"
       inkscape:connector-curvature="0"
       id="path4788-1"
       d="m 213.96026,806.97382 c 7.78794,-1.6227 24.58413,7.10756 29.15873,12.00136 21.1876,22.66749 -12.19076,64.62216 -41.97653,50.10107"
       class="fil3" />
    <path
       inkscape:connector-curvature="0"
       style="fill:#000000;fill-opacity:1;fill-rule:evenodd;stroke:none;stroke-width:0.71157305999999998"
       d="m 140.97421,908.93638 c -5.60261,5.45254 -9.38716,10.68125 -8.56603,11.89914 l 0.93208,1.38232 c 0.76979,1.14179 5.31372,-1.64272 10.57121,-6.37094 l 2.05823,-1.91967 c 5.75842,-5.55066 9.68514,-10.9361 8.85032,-12.17429 l -0.93142,-1.38167 c -0.78308,-1.16195 -5.4756,1.74365 -10.85066,6.62478 z"
       id="rect11194-1-9-4-1-0-1"
       sodipodi:nodetypes="ccccccccc"
       inkscape:transform-center-x="104.86804"
       inkscape:transform-center-y="31.03789" />
    <path
       inkscape:transform-center-y="12.688437"
       inkscape:transform-center-x="-26.006048"
       sodipodi:nodetypes="ccccccccc"
       id="rect11194-1-9-4-1-0-1-0"
       d="m 116.52898,933.17632 c -5.60261,5.45261 -9.38716,10.68125 -8.56603,11.89928 l 0.93224,1.38225 c 0.76955,1.14187 5.31357,-1.64272 10.57105,-6.37087 l 2.05831,-1.91966 c 5.75833,-5.55074 9.68506,-10.93617 8.85032,-12.17436 l -0.9315,-1.38168 c -0.78324,-1.1618 -5.47559,1.7438 -10.85066,6.62493 z"
       style="fill:#000000;fill-opacity:1;fill-rule:evenodd;stroke:none;stroke-width:0.71157300000000001"
       inkscape:connector-curvature="0" />
    <path
       inkscape:transform-center-y="-6.909193"
       inkscape:transform-center-x="5.2151816"
       sodipodi:nodetypes="ccccccccc"
       id="rect11194-1-9-4-1-0-1-0-1"
       d="m 91.796831,957.39863 c -5.602609,5.4526 -9.387159,10.68124 -8.566025,11.8992 l 0.93224,1.38232 c 0.769552,1.1418 5.313568,-1.64278 10.570968,-6.37086 l 2.058396,-1.91974 c 5.75833,-5.55073 9.68506,-10.9361 8.85032,-12.17429 l -0.9315,-1.38167 c -0.78325,-1.16188 -5.4756,1.74364 -10.850746,6.62478 z"
       style="fill:#000000;fill-opacity:1;fill-rule:evenodd;stroke:none;stroke-width:0.71157300000000001"
       inkscape:connector-curvature="0" />
    <path
       style="fill:#000000;fill-opacity:1;fill-rule:evenodd;stroke:none"
       d="M 6.1127778,997.0669 76.012765,980.84181 49.596793,1049.3209 z"
       id="path12086"
       inkscape:connector-curvature="0"
       sodipodi:nodetypes="cccc" />
    <path
       inkscape:transform-center-y="12.688427"
       inkscape:transform-center-x="-26.006047"
       sodipodi:nodetypes="ccccccccc"
       id="rect11194-1-9-4-1-0-1-0-4"
       d="m 194.15892,855.76449 c -5.60261,5.45268 -9.38716,10.68132 -8.56604,11.89928 l 0.93224,1.38225 c 0.76956,1.14186 5.31357,-1.64272 10.57106,-6.37087 l 2.05831,-1.91967 c 5.75833,-5.55073 9.68506,-10.93609 8.85032,-12.17436 l -0.9315,-1.38167 c -0.78325,-1.16181 -5.4756,1.74379 -10.85066,6.62485 z"
       style="fill:#000000;fill-opacity:1;fill-rule:evenodd;stroke:none;stroke-width:0.71157300000000001"
       inkscape:connector-curvature="0" />
    <path
       inkscape:transform-center-y="-6.9092182"
       inkscape:transform-center-x="5.2151786"
       sodipodi:nodetypes="ccccccccc"
       id="rect11194-1-9-4-1-0-1-0-1-3"
       d="m 169.42677,879.98679 c -5.60261,5.45268 -9.38715,10.68125 -8.56602,11.89928 l 0.93224,1.38225 c 0.76955,1.14179 5.31356,-1.64279 10.57096,-6.37087 l 2.0584,-1.91974 c 5.75833,-5.55073 9.68506,-10.93609 8.85032,-12.17428 l -0.9315,-1.38175 c -0.78325,-1.16181 -5.4756,1.74379 -10.85075,6.62486 z"
       style="fill:#000000;fill-opacity:1;fill-rule:evenodd;stroke:none;stroke-width:0.71157300000000001"
       inkscape:connector-curvature="0" />
    <path
       sodipodi:type="arc"
       style="fill:#000000;fill-opacity:1;fill-rule:nonzero;stroke:none"
       id="path2998"
       sodipodi:cx="169.55046"
       sodipodi:cy="5.6090336"
       sodipodi:rx="61.524639"
       sodipodi:ry="61.524639"
       d="m 231.0751,5.6090336 a 61.524639,61.524639 0 1 1 -123.04928,0 61.524639,61.524639 0 1 1 123.04928,0 z"
       transform="matrix(0.52325582,0,0,0.52325582,133.772,829.79857)" />
  </g>
</svg>
