<?xml version="1.0" encoding="UTF-8" standalone="no"?>
<!-- Created with Inkscape (http://www.inkscape.org/) -->

<svg
   xmlns:dc="http://purl.org/dc/elements/1.1/"
   xmlns:cc="http://creativecommons.org/ns#"
   xmlns:rdf="http://www.w3.org/1999/02/22-rdf-syntax-ns#"
   xmlns:svg="http://www.w3.org/2000/svg"
   xmlns="http://www.w3.org/2000/svg"
   xmlns:sodipodi="http://sodipodi.sourceforge.net/DTD/sodipodi-0.dtd"
   xmlns:inkscape="http://www.inkscape.org/namespaces/inkscape"
   width="48"
   height="48"
   id="svg2"
   version="1.1"
   inkscape:version="0.48.5 r10040"
   sodipodi:docname="applications-roleplaying.svg">
  <defs
     id="defs4" />
  <sodipodi:namedview
     id="base"
     pagecolor="#ffffff"
     bordercolor="#666666"
     borderopacity="1.0"
     inkscape:pageopacity="0.0"
     inkscape:pageshadow="2"
     inkscape:zoom="1.9561853"
     inkscape:cx="10.752383"
     inkscape:cy="92.506827"
     inkscape:document-units="px"
     inkscape:current-layer="layer1"
     showgrid="false"
     inkscape:window-width="1914"
     inkscape:window-height="1031"
     inkscape:window-x="0"
     inkscape:window-y="25"
     inkscape:window-maximized="1" />
  <metadata
     id="metadata7">
    <rdf:RDF>
      <cc:Work
         rdf:about="">
        <dc:format>image/svg+xml</dc:format>
        <dc:type
           rdf:resource="http://purl.org/dc/dcmitype/StillImage" />
        <dc:title></dc:title>
      </cc:Work>
    </rdf:RDF>
  </metadata>
  <g
     inkscape:label="Capa 1"
     inkscape:groupmode="layer"
     id="layer1"
     transform="translate(0,-1004.3622)">
    <g
       id="g3826"
       transform="matrix(0.17501414,0,0,0.17501414,2.8840008,865.60868)">
      <path
         class="fil0 str0"
         d="m 154.82135,852.07866 c -12.28047,13.50452 -33.47132,15.48824 -47.33021,4.42975 -13.85004,-11.05169 -15.129685,-30.96518 -2.84943,-44.46966 11.09683,-13.93571 32.27911,-15.91019 47.30983,-4.42346 13.8587,11.05846 15.14701,30.96186 2.86981,44.46337 z"
         id="path4782-4-2-4"
         inkscape:connector-curvature="0"
         style="fill:#ffffff;fill-opacity:1;fill-rule:nonzero;stroke:none" />
      <path
         class="fil0 str0"
         d="m 222.77444,882.93447 c -12.28048,13.50455 -33.47148,15.48826 -47.33002,4.4298 -13.85055,-11.05168 -15.13,-30.9652 -2.84952,-44.46968 11.09672,-13.93571 32.27927,-15.9102 47.30973,-4.42343 13.85856,11.05841 15.14701,30.96182 2.86981,44.46331 z"
         id="path4782-4-2-8-3"
         inkscape:connector-curvature="0"
         style="fill:#ffffff;fill-opacity:1;fill-rule:nonzero;stroke:none" />
      <path
         class="fil0 str0"
         d="m 245.22595,947.99575 c -12.28049,13.50453 -33.47148,15.48827 -47.33003,4.42978 -13.85055,-11.05165 -15.12958,-30.96513 -2.84952,-44.46967 11.0967,-13.93574 32.27927,-15.91016 47.30973,-4.4234 13.85854,11.05838 15.147,30.96184 2.86982,44.46329 z"
         id="path4782-4-2-8-8-9"
         inkscape:connector-curvature="0"
         style="fill:#ffffff;fill-opacity:1;fill-rule:nonzero;stroke:none" />
      <path
         class="fil0 str0"
         d="m 155.9258,1041.376 c -12.2799,13.5044 -33.47105,15.4882 -47.32958,4.4297 -13.850257,-11.0517 -15.129994,-30.965 -2.84953,-44.4697 11.09641,-13.93558 32.27913,-15.91008 47.30972,-4.42328 13.85883,11.05838 15.14714,30.96178 2.86939,44.46328 z"
         id="path4782-4-2-9-9"
         inkscape:connector-curvature="0"
         style="fill:#ffffff;fill-opacity:1;fill-rule:nonzero;stroke:none" />
      <path
         class="fil0 str0"
         d="m 55.913819,944.16862 c -12.28005,13.50456 -33.471064,15.48827 -47.3296042,4.42979 -13.850248,-11.05167 -15.129887,-30.96512 -2.849543,-44.4697 11.0962342,-13.93567 32.2789642,-15.91013 47.3097402,-4.42339 13.858637,11.0584 15.14696,30.96186 2.869407,44.4633 z"
         id="path4782-4-2-8-8-0-5"
         inkscape:connector-curvature="0"
         style="fill:#ffffff;fill-opacity:1;fill-rule:nonzero;stroke:none" />
      <path
         class="fil0 str0"
         d="m 86.019842,877.57832 c -12.28055,13.50456 -33.471064,15.48826 -47.330202,4.4298 -13.850254,-11.0517 -15.129394,-30.96519 -2.848945,-44.46968 11.096234,-13.93569 32.279163,-15.9102 47.309739,-4.42341 13.858543,11.0584 15.146558,30.9618 2.869408,44.46329 z"
         id="path4782-4-2-8-9-4"
         inkscape:connector-curvature="0"
         style="fill:#ffffff;fill-opacity:1;fill-rule:nonzero;stroke:none" />
      <path
         class="fil0 str0"
         d="m 84.486245,1014.8438 c -12.28055,13.5046 -33.471064,15.4885 -47.330202,4.4299 -13.850254,-11.0518 -15.129394,-30.9652 -2.848945,-44.4697 11.096234,-13.9356 32.279163,-15.9101 47.309739,-4.4233 13.858543,11.0583 15.146558,30.9618 2.869408,44.4631 z"
         id="path4782-4-2-8-9-5-5"
         inkscape:connector-curvature="0"
         style="fill:#ffffff;fill-opacity:1;fill-rule:nonzero;stroke:none" />
      <path
         class="fil0 str0"
         d="m 222.77444,1011.0214 c -12.28048,13.5044 -33.47148,15.4883 -47.33002,4.4297 -13.85055,-11.0516 -15.13,-30.96511 -2.84952,-44.46961 11.09672,-13.9357 32.27927,-15.91019 47.30973,-4.4234 13.85856,11.0583 15.14701,30.9618 2.86981,44.46331 z"
         id="path4782-4-2-8-9-5-3-4"
         inkscape:connector-curvature="0"
         style="fill:#ffffff;fill-opacity:1;fill-rule:nonzero;stroke:none" />
      <path
         class="fil0 str0"
         d="M 210.31274,993.84098 C 169.40144,1039.7861 98.80603,1046.535 52.636376,1008.9118 6.4961958,971.3119 2.2331738,903.56233 43.143754,857.61745 80.111852,810.20544 150.67872,803.48786 200.75222,842.56796 c 46.16903,37.62305 50.46091,105.3383 9.56052,151.27302 z"
         id="path4782-4-2-4-6"
         inkscape:connector-curvature="0"
         style="fill:#ffffff;fill-opacity:1;fill-rule:nonzero;stroke:none" />
      <path
         transform="matrix(0.12350191,0,0,0.12350191,3761.5075,637.45201)"
         d="m -28650.645,2343.9565 c 0,435.9196 -353.383,789.3023 -789.302,789.3023 -435.92,0 -789.303,-353.3827 -789.303,-789.3023 0,-435.9196 353.383,-789.3022 789.303,-789.3022 435.919,0 789.302,353.3826 789.302,789.3022 z"
         sodipodi:ry="789.30225"
         sodipodi:rx="789.30225"
         sodipodi:cy="2343.9565"
         sodipodi:cx="-29439.947"
         id="path6523"
         style="fill:none;stroke:#000000;stroke-width:35.52981567;stroke-miterlimit:4;stroke-opacity:1;stroke-dasharray:35.52981488, 35.52981488;stroke-dashoffset:0"
         sodipodi:type="arc" />
      <path
         class="fil0 str0"
         d="m 147.89693,846.25396 c -8.70039,9.5676 -23.71355,10.97301 -33.5322,3.13837 -9.81239,-7.82984 -10.71898,-21.93801 -2.01875,-31.50558 7.86181,-9.87308 22.86889,-11.27195 33.51776,-3.1339 9.81852,7.83462 10.73125,21.93565 2.03319,31.50111 z"
         id="path4782-4-2"
         inkscape:connector-curvature="0"
         style="fill:#000000;fill-opacity:1;fill-rule:nonzero;stroke:#72706f;stroke-width:0.17721319" />
      <path
         class="fil3"
         d="m 129.26859,809.48386 c 5.37105,-1.11913 16.95465,4.9018 20.10971,8.27692 14.61242,15.63297 -8.40735,44.56772 -28.94973,34.553"
         id="path4788-1-0"
         inkscape:connector-curvature="0"
         style="fill:none" />
      <path
         class="fil0 str0"
         d="m 215.23494,877.53094 c -8.70039,9.56761 -23.71365,10.97302 -33.53206,3.13839 -9.81275,-7.82982 -10.7192,-21.93802 -2.01881,-31.50559 7.86173,-9.87308 22.86901,-11.27195 33.51768,-3.13388 9.81842,7.83459 10.73126,21.93563 2.03319,31.50108 z"
         id="path4782-4-2-8"
         inkscape:connector-curvature="0"
         style="fill:#000000;fill-opacity:1;fill-rule:nonzero;stroke:#72706f;stroke-width:0.17721319" />
      <path
         class="fil3"
         d="m 196.6064,840.76085 c 5.37145,-1.11916 16.95505,4.9018 20.10982,8.27694 14.6124,15.63296 -8.40736,44.56772 -28.94974,34.55298"
         id="path4788-1-0-2"
         inkscape:connector-curvature="0"
         style="fill:none" />
      <path
         class="fil0 str0"
         d="m 238.02248,942.09584 c -8.7004,9.5676 -23.71365,10.97303 -33.53206,3.13838 -9.81274,-7.8298 -10.7189,-21.93797 -2.01881,-31.50558 7.86172,-9.8731 22.869,-11.27192 33.51768,-3.13386 9.81841,7.83457 10.73125,21.93564 2.03319,31.50106 z"
         id="path4782-4-2-8-8"
         inkscape:connector-curvature="0"
         style="fill:#000000;fill-opacity:1;fill-rule:nonzero;stroke:#72706f;stroke-width:0.17721319" />
      <path
         class="fil3"
         d="m 219.39394,905.32574 c 5.37145,-1.11913 16.95505,4.9018 20.10981,8.27694 14.61242,15.63296 -8.40736,44.56775 -28.94973,34.55299"
         id="path4788-1-0-2-3"
         inkscape:connector-curvature="0"
         style="fill:none" />
      <path
         class="fil0 str0"
         d="m 149.40374,1035.7783 c -8.69999,9.5675 -23.71335,10.973 -33.53175,3.1383 -9.81254,-7.8298 -10.7192,-21.9379 -2.01882,-31.5056 7.86152,-9.87306 22.86891,-11.27191 33.51768,-3.1338 9.81862,7.8346 10.73135,21.9356 2.03289,31.5011 z"
         id="path4782-4-2-9"
         inkscape:connector-curvature="0"
         style="fill:#000000;fill-opacity:1;fill-rule:nonzero;stroke:#72706f;stroke-width:0.17721319" />
      <path
         class="fil3"
         d="m 130.7757,999.00815 c 5.37095,-1.11917 16.95475,4.90185 20.10982,8.27695 14.61241,15.6329 -8.40736,44.5677 -28.94991,34.553"
         id="path4788-1-0-7"
         inkscape:connector-curvature="0"
         style="fill:none" />
      <path
         class="fil0 str0"
         d="m 48.125548,938.29791 c -8.70009,9.56762 -23.713361,10.97303 -33.531768,3.13839 -9.812537,-7.82982 -10.719127,-21.93797 -2.018826,-31.5056 7.861387,-9.87306 22.868789,-11.27191 33.517695,-3.13386 9.818477,7.83458 10.73122,21.93565 2.032899,31.50107 z"
         id="path4782-4-2-8-8-0"
         inkscape:connector-curvature="0"
         style="fill:#000000;fill-opacity:1;fill-rule:nonzero;stroke:#72706f;stroke-width:0.17721319" />
      <path
         class="fil3"
         d="m 29.497511,901.52781 c 5.370808,-1.11913 16.954592,4.9018 20.109768,8.27693 14.612448,15.63296 -8.407463,44.56775 -28.949948,34.55301"
         id="path4788-1-0-2-3-8"
         inkscape:connector-curvature="0"
         style="fill:none" />
      <path
         class="fil0 str0"
         d="m 78.50914,871.20104 c -8.700444,9.56762 -23.713361,10.97302 -33.532192,3.1384 -9.812537,-7.82984 -10.718774,-21.93801 -2.018402,-31.50559 7.861387,-9.87307 22.86893,-11.27195 33.517694,-3.13387 9.818407,7.83458 10.730938,21.93561 2.0329,31.50106 z"
         id="path4782-4-2-8-9"
         inkscape:connector-curvature="0"
         style="fill:#000000;fill-opacity:1;fill-rule:nonzero;stroke:#72706f;stroke-width:0.17721319" />
      <path
         class="fil3"
         d="m 59.880891,834.43095 c 5.37102,-1.11913 16.954804,4.9018 20.10998,8.27696 14.61202,15.63295 -8.407746,44.56773 -28.949948,34.55296"
         id="path4788-1-0-2-9"
         inkscape:connector-curvature="0"
         style="fill:none" />
      <path
         class="fil0 str0"
         d="m 78.50914,1007.9267 c -8.700444,9.5676 -23.713361,10.9731 -33.532192,3.1384 -9.812537,-7.8299 -10.718774,-21.93801 -2.018402,-31.50561 7.861387,-9.87305 22.86893,-11.27191 33.517694,-3.13385 9.818407,7.83457 10.730938,21.93566 2.0329,31.50106 z"
         id="path4782-4-2-8-9-5"
         inkscape:connector-curvature="0"
         style="fill:#000000;fill-opacity:1;fill-rule:nonzero;stroke:#72706f;stroke-width:0.17721319" />
      <path
         class="fil3"
         d="m 59.880891,971.1566 c 5.37102,-1.11913 16.954804,4.9018 20.10998,8.27695 14.61202,15.63298 -8.407746,44.56775 -28.949948,34.55305"
         id="path4788-1-0-2-9-8"
         inkscape:connector-curvature="0"
         style="fill:none" />
      <path
         class="fil0 str0"
         d="m 215.23494,1004.1528 c -8.70039,9.5676 -23.71365,10.9731 -33.53206,3.1384 -9.81275,-7.82982 -10.7192,-21.93798 -2.01881,-31.50556 7.86173,-9.8731 22.86901,-11.27196 33.51768,-3.1339 9.81842,7.83458 10.73126,21.93562 2.03319,31.50106 z"
         id="path4782-4-2-8-9-5-3"
         inkscape:connector-curvature="0"
         style="fill:#000000;fill-opacity:1;fill-rule:nonzero;stroke:#72706f;stroke-width:0.17721319" />
      <path
         class="fil3"
         d="m 196.6064,964.82671 c 5.37145,-1.11913 16.95505,4.90183 20.10982,8.27694 14.6124,15.63301 -8.40736,44.56775 -28.94974,34.55305"
         id="path4788-1-0-2-9-8-5"
         inkscape:connector-curvature="0"
         style="fill:none" />
    </g>
  </g>
</svg>
