<?xml version="1.0" encoding="UTF-8" standalone="no"?>
<!-- Created with Inkscape (http://www.inkscape.org/) -->

<svg
   xmlns:dc="http://purl.org/dc/elements/1.1/"
   xmlns:cc="http://creativecommons.org/ns#"
   xmlns:rdf="http://www.w3.org/1999/02/22-rdf-syntax-ns#"
   xmlns:svg="http://www.w3.org/2000/svg"
   xmlns="http://www.w3.org/2000/svg"
   xmlns:sodipodi="http://sodipodi.sourceforge.net/DTD/sodipodi-0.dtd"
   xmlns:inkscape="http://www.inkscape.org/namespaces/inkscape"
   width="48"
   height="48"
   id="svg2"
   version="1.1"
   inkscape:version="0.48.5 r10040"
   sodipodi:docname="applications-boardgames.svg">
  <defs
     id="defs4" />
  <sodipodi:namedview
     id="base"
     pagecolor="#ffffff"
     bordercolor="#666666"
     borderopacity="1.0"
     inkscape:pageopacity="0.0"
     inkscape:pageshadow="2"
     inkscape:zoom="1.9310043"
     inkscape:cx="88.139459"
     inkscape:cy="57.551718"
     inkscape:document-units="px"
     inkscape:current-layer="layer1"
     showgrid="false"
     inkscape:window-width="1914"
     inkscape:window-height="1031"
     inkscape:window-x="0"
     inkscape:window-y="25"
     inkscape:window-maximized="1"
     showguides="true"
     inkscape:guide-bbox="true" />
  <metadata
     id="metadata7">
    <rdf:RDF>
      <cc:Work
         rdf:about="">
        <dc:format>image/svg+xml</dc:format>
        <dc:type
           rdf:resource="http://purl.org/dc/dcmitype/StillImage" />
        <dc:title />
      </cc:Work>
    </rdf:RDF>
  </metadata>
  <g
     inkscape:label="Capa 1"
     inkscape:groupmode="layer"
     id="layer1"
     transform="translate(0,-1004.3622)">
    <rect
       id="rect7046-4-7-2-8"
       ry="4.4725842"
       rx="3.8128304"
       height="24.937807"
       width="25.388432"
       transform="matrix(0.94934259,0.31424297,-0.3137734,0.9494979,0,0)"
       class="fil3 str0"
       x="323.85831"
       y="953.61346"
       style="fill:#ffffff;fill-rule:evenodd;stroke:none" />
    <rect
       id="rect7046-4-7-2"
       ry="3.8559597"
       rx="3.2871647"
       height="21.499691"
       width="21.888191"
       transform="matrix(0.94934259,0.31424297,-0.3137734,0.9494979,0,0)"
       class="fil3 str0"
       x="325.90103"
       y="955.383"
       style="fill:#000000;fill-rule:evenodd;stroke:none" />
    <rect
       id="rect7046-4-7-7"
       ry="4.7405796"
       rx="4.0412931"
       height="26.43207"
       width="26.909695"
       transform="matrix(0.98867447,-0.15007595,0.15056487,0.98860013,0,0)"
       class="fil3 str0"
       x="-137.46732"
       y="1013.3797"
       style="fill:#ffffff;fill-rule:evenodd;stroke:none" />
    <path
       sodipodi:type="arc"
       style="fill:#ffffff;fill-opacity:1;fill-rule:evenodd;stroke:none"
       id="path5579-2-2"
       sodipodi:cx="-19684.475"
       sodipodi:cy="7133.7954"
       sodipodi:rx="83.90654"
       sodipodi:ry="83.90654"
       d="m -19600.568,7133.7954 a 83.90654,83.90654 0 1 1 -167.813,0 83.90654,83.90654 0 1 1 167.813,0 z"
       transform="matrix(-0.01124137,-0.02119449,0.02119449,-0.01124137,-362.9872,689.49459)"
       inkscape:transform-center-x="6.1367462"
       inkscape:transform-center-y="66.58381" />
    <path
       sodipodi:type="arc"
       style="fill:#ffffff;fill-opacity:1;fill-rule:evenodd;stroke:none"
       id="path5579-3-0-4"
       sodipodi:cx="-19684.475"
       sodipodi:cy="7133.7954"
       sodipodi:rx="83.90654"
       sodipodi:ry="83.90654"
       d="m -19600.568,7133.7954 a 83.90654,83.90654 0 1 1 -167.813,0 83.90654,83.90654 0 1 1 167.813,0 z"
       transform="matrix(-0.01124137,-0.02119449,0.02119449,-0.01124137,-355.59553,686.16455)"
       inkscape:transform-center-x="-67.157882"
       inkscape:transform-center-y="-10.663913" />
    <path
       sodipodi:type="arc"
       style="fill:#ffffff;fill-opacity:1;fill-rule:evenodd;stroke:none"
       id="path5579-3-8-2-5"
       sodipodi:cx="-19684.475"
       sodipodi:cy="7133.7954"
       sodipodi:rx="83.90654"
       sodipodi:ry="83.90654"
       d="m -19600.568,7133.7954 a 83.90654,83.90654 0 1 1 -167.813,0 83.90654,83.90654 0 1 1 167.813,0 z"
       transform="matrix(-0.01124137,-0.02119449,0.02119449,-0.01124137,-348.55882,682.64029)"
       inkscape:transform-center-x="-136.64831"
       inkscape:transform-center-y="-83.902181" />
    <rect
       id="rect7046-4-7"
       ry="4.087007"
       rx="3.4841299"
       height="22.787941"
       width="23.199718"
       transform="matrix(0.98867447,-0.15007595,0.15056487,0.98860013,0,0)"
       class="fil3 str0"
       x="-135.44205"
       y="1015.2188"
       style="fill:#000000;fill-rule:evenodd;stroke:none" />
    <path
       sodipodi:type="arc"
       style="fill:#ffffff;fill-opacity:1;fill-rule:evenodd;stroke:none"
       id="path5579"
       sodipodi:cx="-19684.475"
       sodipodi:cy="7133.7954"
       sodipodi:rx="83.90654"
       sodipodi:ry="83.90654"
       d="m -19600.568,7133.7954 a 83.90654,83.90654 0 1 1 -167.813,0 83.90654,83.90654 0 1 1 167.813,0 z"
       transform="matrix(0.02515698,-0.00370738,0.00370738,0.02515698,495.39249,775.67488)" />
    <path
       sodipodi:type="arc"
       style="fill:#ffffff;fill-opacity:1;fill-rule:evenodd;stroke:none"
       id="path5579-3"
       sodipodi:cx="-19684.475"
       sodipodi:cy="7133.7954"
       sodipodi:rx="83.90654"
       sodipodi:ry="83.90654"
       d="m -19600.568,7133.7954 a 83.90654,83.90654 0 1 1 -167.813,0 83.90654,83.90654 0 1 1 167.813,0 z"
       transform="matrix(0.02515698,-0.00370738,0.00370738,0.02515698,496.331,782.04323)" />
    <path
       sodipodi:type="arc"
       style="fill:#ffffff;fill-opacity:1;fill-rule:evenodd;stroke:none"
       id="path5579-3-8"
       sodipodi:cx="-19684.475"
       sodipodi:cy="7133.7954"
       sodipodi:rx="83.90654"
       sodipodi:ry="83.90654"
       d="m -19600.568,7133.7954 a 83.90654,83.90654 0 1 1 -167.813,0 83.90654,83.90654 0 1 1 167.813,0 z"
       transform="matrix(0.02515698,-0.00370738,0.00370738,0.02515698,497.22078,788.08106)" />
    <path
       sodipodi:type="arc"
       style="fill:#ffffff;fill-opacity:1;fill-rule:evenodd;stroke:none"
       id="path5579-2"
       sodipodi:cx="-19684.475"
       sodipodi:cy="7133.7954"
       sodipodi:rx="83.90654"
       sodipodi:ry="83.90654"
       d="m -19600.568,7133.7954 a 83.90654,83.90654 0 1 1 -167.813,0 83.90654,83.90654 0 1 1 167.813,0 z"
       transform="matrix(0.02515698,-0.00370738,0.00370738,0.02515698,504.31138,774.28482)" />
    <path
       sodipodi:type="arc"
       style="fill:#ffffff;fill-opacity:1;fill-rule:evenodd;stroke:none"
       id="path5579-3-0"
       sodipodi:cx="-19684.475"
       sodipodi:cy="7133.7954"
       sodipodi:rx="83.90654"
       sodipodi:ry="83.90654"
       d="m -19600.568,7133.7954 a 83.90654,83.90654 0 1 1 -167.813,0 83.90654,83.90654 0 1 1 167.813,0 z"
       transform="matrix(0.02515698,-0.00370738,0.00370738,0.02515698,505.24989,780.65321)" />
    <path
       sodipodi:type="arc"
       style="fill:#ffffff;fill-opacity:1;fill-rule:evenodd;stroke:none"
       id="path5579-3-8-2"
       sodipodi:cx="-19684.475"
       sodipodi:cy="7133.7954"
       sodipodi:rx="83.90654"
       sodipodi:ry="83.90654"
       d="m -19600.568,7133.7954 a 83.90654,83.90654 0 1 1 -167.813,0 83.90654,83.90654 0 1 1 167.813,0 z"
       transform="matrix(0.02515698,-0.00370738,0.00370738,0.02515698,506.13966,786.69103)" />
  </g>
</svg>
