<?xml version="1.0" encoding="UTF-8" standalone="no"?>
<!-- Created with Inkscape (http://www.inkscape.org/) -->

<svg
   xmlns:dc="http://purl.org/dc/elements/1.1/"
   xmlns:cc="http://creativecommons.org/ns#"
   xmlns:rdf="http://www.w3.org/1999/02/22-rdf-syntax-ns#"
   xmlns:svg="http://www.w3.org/2000/svg"
   xmlns="http://www.w3.org/2000/svg"
   xmlns:xlink="http://www.w3.org/1999/xlink"
   xmlns:sodipodi="http://sodipodi.sourceforge.net/DTD/sodipodi-0.dtd"
   xmlns:inkscape="http://www.inkscape.org/namespaces/inkscape"
   version="1.0"
   width="48"
   height="48"
   id="svg2408"
   style="display:inline"
   inkscape:version="0.48.5 r10040"
   sodipodi:docname="applications-fonts.svg">
  <sodipodi:namedview
     pagecolor="#ffffff"
     bordercolor="#666666"
     borderopacity="1"
     objecttolerance="10"
     gridtolerance="10"
     guidetolerance="10"
     inkscape:pageopacity="0"
     inkscape:pageshadow="2"
     inkscape:window-width="1914"
     inkscape:window-height="1031"
     id="namedview2155"
     showgrid="false"
     inkscape:zoom="6.8476574"
     inkscape:cx="36.824396"
     inkscape:cy="40.159243"
     inkscape:window-x="0"
     inkscape:window-y="25"
     inkscape:window-maximized="1"
     inkscape:current-layer="svg2408" />
  <defs
     id="defs2410">
    <linearGradient
       x1="45.447727"
       y1="92.539597"
       x2="45.447727"
       y2="7.0165396"
       id="ButtonShadow"
       gradientUnits="userSpaceOnUse"
       gradientTransform="scale(1.0058652,0.994169)">
      <stop
         id="stop3750"
         style="stop-color:#000000;stop-opacity:1"
         offset="0" />
      <stop
         id="stop3752"
         style="stop-color:#000000;stop-opacity:0.58823532"
         offset="1" />
    </linearGradient>
    <linearGradient
       id="linearGradient3700">
      <stop
         id="stop3702"
         style="stop-color:#ebebeb;stop-opacity:1"
         offset="0" />
      <stop
         id="stop3704"
         style="stop-color:#fafafa;stop-opacity:1"
         offset="1" />
    </linearGradient>
    <linearGradient
       x1="48"
       y1="90"
       x2="48"
       y2="5.9877172"
       id="linearGradient3706"
       xlink:href="#linearGradient3700"
       gradientUnits="userSpaceOnUse" />
    <filter
       color-interpolation-filters="sRGB"
       id="filter3174">
      <feGaussianBlur
         id="feGaussianBlur3176"
         stdDeviation="1.71" />
    </filter>
    <linearGradient
       x1="45.447727"
       y1="92.539597"
       x2="45.447727"
       y2="7.0165396"
       id="ButtonShadow-0"
       gradientUnits="userSpaceOnUse"
       gradientTransform="matrix(1.0058652,0,0,0.994169,100,0)">
      <stop
         id="stop3750-8"
         style="stop-color:#000000;stop-opacity:1"
         offset="0" />
      <stop
         id="stop3752-5"
         style="stop-color:#000000;stop-opacity:0.58823532"
         offset="1" />
    </linearGradient>
    <linearGradient
       x1="32.251034"
       y1="6.1317081"
       x2="32.251034"
       y2="90.238609"
       id="linearGradient3780"
       xlink:href="#ButtonShadow-0"
       gradientUnits="userSpaceOnUse"
       gradientTransform="matrix(1.0238095,0,0,1.0119048,-1.1428571,-98.071429)" />
    <linearGradient
       x1="32.251034"
       y1="6.1317081"
       x2="32.251034"
       y2="90.238609"
       id="linearGradient3772"
       xlink:href="#ButtonShadow-0"
       gradientUnits="userSpaceOnUse"
       gradientTransform="matrix(1.0238095,0,0,1.0119048,-1.1428571,-98.071429)" />
    <linearGradient
       x1="32.251034"
       y1="6.1317081"
       x2="32.251034"
       y2="90.238609"
       id="linearGradient3725"
       xlink:href="#ButtonShadow-0"
       gradientUnits="userSpaceOnUse"
       gradientTransform="matrix(1.0238095,0,0,1.0119048,-1.1428571,-98.071429)" />
    <linearGradient
       x1="32.251034"
       y1="6.1317081"
       x2="32.251034"
       y2="90.238609"
       id="linearGradient3721"
       xlink:href="#ButtonShadow-0"
       gradientUnits="userSpaceOnUse"
       gradientTransform="translate(0,-97)" />
    <linearGradient
       x1="32.251034"
       y1="6.1317081"
       x2="32.251034"
       y2="90.238609"
       id="linearGradient3760"
       xlink:href="#ButtonShadow-0"
       gradientUnits="userSpaceOnUse"
       gradientTransform="matrix(1.0238095,0,0,1.0119048,-1.1428571,-98.071429)" />
    <linearGradient
       id="linearGradient3737-1">
      <stop
         id="stop3739-9"
         style="stop-color:#ffffff;stop-opacity:1"
         offset="0" />
      <stop
         id="stop3741-3"
         style="stop-color:#ffffff;stop-opacity:0"
         offset="1" />
    </linearGradient>
    <radialGradient
       cx="48"
       cy="90.171875"
       r="42"
       fx="48"
       fy="90.171875"
       id="radialGradient2886"
       xlink:href="#linearGradient3737-0"
       gradientUnits="userSpaceOnUse"
       gradientTransform="matrix(1.1573129,0,0,0.99590774,-7.551021,0.1971319)" />
    <linearGradient
       id="linearGradient3737-0">
      <stop
         id="stop3739-6"
         style="stop-color:#ffffff;stop-opacity:1"
         offset="0" />
      <stop
         id="stop3741-0"
         style="stop-color:#ffffff;stop-opacity:0"
         offset="1" />
    </linearGradient>
    <linearGradient
       x1="36.357143"
       y1="6"
       x2="36.357143"
       y2="63.893143"
       id="linearGradient3923"
       xlink:href="#linearGradient3737-1"
       gradientUnits="userSpaceOnUse" />
    <linearGradient
       x1="48"
       y1="72"
       x2="48"
       y2="24"
       id="linearGradient3689-3"
       xlink:href="#linearGradient3710-7"
       gradientUnits="userSpaceOnUse" />
    <linearGradient
       id="linearGradient3710-7">
      <stop
         id="stop3712-2"
         style="stop-color:#2b4777;stop-opacity:1"
         offset="0" />
      <stop
         id="stop3714-0"
         style="stop-color:#5672a0;stop-opacity:1"
         offset="1" />
    </linearGradient>
    <linearGradient
       x1="16"
       y1="71"
       x2="80"
       y2="71"
       id="linearGradient3702-4"
       xlink:href="#linearGradient3676-1"
       gradientUnits="userSpaceOnUse"
       gradientTransform="matrix(1.25,0,0,0.5,-12,-108)" />
    <linearGradient
       id="linearGradient3676-1">
      <stop
         id="stop3678-4"
         style="stop-color:#333333;stop-opacity:0"
         offset="0" />
      <stop
         id="stop3688-5"
         style="stop-color:#000000;stop-opacity:1"
         offset="0.25" />
      <stop
         id="stop3684-4"
         style="stop-color:#000000;stop-opacity:1"
         offset="0.5" />
      <stop
         id="stop3686-9"
         style="stop-color:#000000;stop-opacity:1"
         offset="0.75" />
      <stop
         id="stop3680-3"
         style="stop-color:#333333;stop-opacity:0"
         offset="1" />
    </linearGradient>
    <linearGradient
       x1="16"
       y1="71"
       x2="80"
       y2="71"
       id="linearGradient3696-6"
       xlink:href="#linearGradient3676-1"
       gradientUnits="userSpaceOnUse"
       gradientTransform="matrix(0.5,0,0,0.5,40,-59)" />
    <linearGradient
       x1="16"
       y1="71"
       x2="80"
       y2="71"
       id="linearGradient3692-5"
       xlink:href="#linearGradient3676-1"
       gradientUnits="userSpaceOnUse"
       gradientTransform="matrix(0.875,0,0,0.5,18,-12)" />
    <linearGradient
       x1="16"
       y1="71"
       x2="80"
       y2="71"
       id="linearGradient3682-7"
       xlink:href="#linearGradient3676-1"
       gradientUnits="userSpaceOnUse"
       gradientTransform="matrix(1.125,0,0,0.5,-10,36)" />
    <clipPath
       id="clipPath3729-0">
      <path
         d="m -88,6 c -3.324,0 -6,2.676 -6,6 l 0,72 c 0,3.324 2.676,6 6,6 l 72,0 c 3.324,0 6,-2.676 6,-6 l 0,-72 c 0,-3.324 -2.676,-6 -6,-6 l -72,0 z m 42.03125,18 5.40625,0 8.46875,44.59375 4.71875,0 L -28.03125,72 -45.5,72 l 0.65625,-3.40625 5.34375,0 -1.96875,-10.53125 -20.1875,0 -6.09375,10.53125 5.28125,0 -0.625,3.40625 -13.53125,0 0.65625,-3.40625 4.21875,0 L -45.96875,24 z m -0.46875,7.78125 -13.21875,22.8125 17.59375,0 -4.375,-22.8125 z"
         inkscape:connector-curvature="0"
         id="path3731-0"
         style="fill:#ff00ff;fill-opacity:1;fill-rule:nonzero;stroke:none" />
    </clipPath>
    <filter
       x="-0.14228271"
       y="-0.14575925"
       width="1.2845654"
       height="1.2915184"
       color-interpolation-filters="sRGB"
       id="filter3733-3">
      <feGaussianBlur
         id="feGaussianBlur3735-8"
         stdDeviation="3.0366511" />
    </filter>
    <linearGradient
       id="linearGradient3737-9">
      <stop
         id="stop3739-2"
         style="stop-color:#ffffff;stop-opacity:1"
         offset="0" />
      <stop
         id="stop3741-1"
         style="stop-color:#ffffff;stop-opacity:0"
         offset="1" />
    </linearGradient>
    <clipPath
       id="clipPath3613">
      <rect
         width="84"
         height="84"
         rx="6"
         ry="6"
         x="6"
         y="6"
         id="rect3615"
         style="fill:#ffffff;fill-opacity:1;fill-rule:nonzero;stroke:none" />
    </clipPath>
    <filter
       x="-0.192"
       y="-0.192"
       width="1.3839999"
       height="1.3839999"
       color-interpolation-filters="sRGB"
       id="filter3794">
      <feGaussianBlur
         id="feGaussianBlur3796"
         stdDeviation="5.28" />
    </filter>
    <linearGradient
       x1="48"
       y1="20.220806"
       x2="48"
       y2="138.66119"
       id="linearGradient4140"
       xlink:href="#linearGradient3737-9"
       gradientUnits="userSpaceOnUse" />
  </defs>
  <metadata
     id="metadata2413">
    <rdf:RDF>
      <cc:Work
         rdf:about="">
        <dc:format>image/svg+xml</dc:format>
        <dc:type
           rdf:resource="http://purl.org/dc/dcmitype/StillImage" />
        <dc:title />
      </cc:Work>
    </rdf:RDF>
  </metadata>
  <g
     id="layer2"
     style="display:none"
     transform="translate(0,-48)">
    <rect
       width="86"
       height="85"
       rx="6"
       ry="6"
       x="5"
       y="7"
       id="rect3745"
       style="opacity:0.9;fill:url(#ButtonShadow);fill-opacity:1;fill-rule:nonzero;stroke:none;filter:url(#filter3174)" />
  </g>
  <g
     id="g3072"
     transform="matrix(0.64917963,0,0,0.64917963,-6.7244627,25.448357)">
    <g
       id="text4963-1-0"
       style="font-size:182.94465637px;font-style:normal;font-weight:normal;line-height:125%;letter-spacing:0px;word-spacing:0px;fill:#ffffff;fill-opacity:1;stroke:none;display:inline;font-family:Sans"
       transform="matrix(0.56510304,0,0,0.56510304,-198.88758,-935.99576)">
      <path
         sodipodi:nodetypes="cccccccccccccccccscccc"
         inkscape:connector-curvature="0"
         id="path3296-6-4"
         style="font-variant:normal;font-weight:600;font-stretch:normal;fill:#ffffff;fill-opacity:1;font-family:URW Gothic L;-inkscape-font-specification:URW Gothic L Semi-Bold"
         d="m 374.42673,1711.6312 c -2.86783,6.2541 0.28942,4.4769 2.29981,4.9829 l 25.86924,0.2584 c 3.95951,0.366 4.16249,-0.01 5.62857,-3.4223 l 8.72177,-22.6253 c 0.7496,-2.563 1.53025,-2.1758 4.00477,-2.1758 l 25.23208,-0.2584 c 2.3681,-0.3177 2.62489,0.3083 3.37396,2.1193 3.87281,9.3634 4.38612,11.4909 8.25893,20.8543 1.44973,4.5638 2.12346,4.733 6.85575,4.733 l 27.57677,0 c 4.68695,0.1034 4.97393,0.6259 3.16526,-3.6858 l -50.29822,-120.6772 c -1.11631,-3.5059 -1.45391,-3.5973 -4.89451,-3.5973 l -14.72497,0 c -3.67671,-0.2441 -4.30443,-0.4457 -5.64058,2.7602 m 3.06078,73.7195 c -3.60281,0.2192 -2.99386,-2.0277 -2.67011,-2.9456 4.17933,-11.8503 8.35867,-23.7006 12.53801,-35.5509 1.00136,-3.356 0.98644,-2.5528 2.00195,0.3267 l 12.27636,34.809 c 0.80365,2.3894 0.84722,3.1691 -2.05018,3.1691" />
    </g>
    <path
       inkscape:connector-curvature="0"
       id="path3070"
       d="M 34.318306,5.64975 45.855098,-20.05247 56.077572,5.795786 34.610376,6.233892"
       style="fill:#ffffff;stroke:#000000;stroke-width:1px;stroke-linecap:butt;stroke-linejoin:miter;stroke-opacity:1" />
    <g
       id="text4963-1"
       style="font-size:182.94465637px;font-style:normal;font-weight:normal;line-height:125%;letter-spacing:0px;word-spacing:0px;fill:#000000;fill-opacity:1;stroke:none;font-family:Sans"
       transform="matrix(0.47236938,0,0,0.47236938,-158.77185,-783.14196)">
      <path
         sodipodi:nodetypes="cccccccccccccccccscccc"
         inkscape:connector-curvature="0"
         id="path3296-6"
         style="font-variant:normal;font-weight:600;font-stretch:normal;fill:#000000;fill-opacity:1;font-family:URW Gothic L;-inkscape-font-specification:URW Gothic L Semi-Bold"
         d="m 373.90988,1718.3502 c -2.86783,6.2541 0.28942,4.4769 2.29981,4.9829 l 14.75708,0 c 3.95951,0.366 4.16249,-0.01 5.62857,-3.4223 l 12.5981,-29.3443 c 0.7496,-2.563 1.53025,-2.1758 4.00477,-2.1758 l 42.54639,0 c 2.3681,-0.3177 2.62489,0.3083 3.37396,2.1193 3.87281,9.3634 7.74562,18.7267 11.61843,28.0901 1.44973,4.5638 2.12346,4.733 6.85575,4.733 l 18.01513,0 c 4.68695,0.1034 4.97393,0.6259 3.16526,-3.6858 l -53.65771,-127.913 c -1.11631,-3.5059 -1.45391,-3.5973 -4.89451,-3.5973 l -11.88232,0 c -3.67671,-0.2441 -4.30443,-0.4457 -5.64058,2.7602 m 0.21813,73.7195 c -3.60281,0.2192 -2.99386,-2.0277 -2.67011,-2.9456 4.17933,-11.8503 8.35867,-23.7006 12.53801,-35.5509 1.00136,-3.356 0.98644,-2.5528 2.00195,0.3267 l 12.27636,34.809 c 0.80365,2.3894 0.84722,3.1691 -2.05018,3.1691" />
    </g>
  </g>
</svg>
