<?xml version="1.0" encoding="UTF-8" standalone="no"?>
<!-- Created with Inkscape (http://www.inkscape.org/) -->

<svg
   xmlns:dc="http://purl.org/dc/elements/1.1/"
   xmlns:cc="http://creativecommons.org/ns#"
   xmlns:rdf="http://www.w3.org/1999/02/22-rdf-syntax-ns#"
   xmlns:svg="http://www.w3.org/2000/svg"
   xmlns="http://www.w3.org/2000/svg"
   xmlns:sodipodi="http://sodipodi.sourceforge.net/DTD/sodipodi-0.dtd"
   xmlns:inkscape="http://www.inkscape.org/namespaces/inkscape"
   width="48"
   height="48"
   id="svg5274"
   version="1.1"
   inkscape:version="0.48.5 r10040"
   sodipodi:docname="applications-profiling.svg">
  <defs
     id="defs5276" />
  <sodipodi:namedview
     id="base"
     pagecolor="#ffffff"
     bordercolor="#666666"
     borderopacity="1.0"
     inkscape:pageopacity="0.0"
     inkscape:pageshadow="2"
     inkscape:zoom="2.1411759"
     inkscape:cx="-30.936706"
     inkscape:cy="122.38314"
     inkscape:document-units="px"
     inkscape:current-layer="layer1"
     showgrid="false"
     inkscape:window-width="1914"
     inkscape:window-height="1031"
     inkscape:window-x="0"
     inkscape:window-y="25"
     inkscape:window-maximized="1" />
  <metadata
     id="metadata5279">
    <rdf:RDF>
      <cc:Work
         rdf:about="">
        <dc:format>image/svg+xml</dc:format>
        <dc:type
           rdf:resource="http://purl.org/dc/dcmitype/StillImage" />
        <dc:title />
      </cc:Work>
    </rdf:RDF>
  </metadata>
  <g
     inkscape:label="Capa 1"
     inkscape:groupmode="layer"
     id="layer1"
     transform="translate(0,-1004.3622)">
    <rect
       id="rect7046-0-2-9-1-0-8-5-5-4"
       ry="10.307122"
       rx="7.1092114"
       height="42.283672"
       width="44.788128"
       transform="matrix(-0.00422112,-0.99999109,0.99998743,-0.00501304,0,0)"
       class="fil3 str0"
       x="-1050.3479"
       y="-0.86756438"
       style="fill:#ffffff;fill-rule:evenodd;stroke:none" />
    <rect
       id="rect7046-0-2-9-1-0-8-5-5"
       ry="8.3872318"
       rx="5.672184"
       height="34.40757"
       width="35.734837"
       transform="matrix(-0.00430507,-0.99999073,0.99998792,-0.00491528,0,0)"
       class="fil3 str0"
       x="-1045.5912"
       y="3.0377038"
       style="fill:#000000;fill-rule:evenodd;stroke:#000000;stroke-width:1.05510378;stroke-miterlimit:4;stroke-opacity:1;stroke-dasharray:none" />
    <path
       id="path7050-7-1-0-9-3-8-0-1"
       d="m 19.883183,1009.7057 c 2.975748,-0.4928 16.315452,-0.2414 18.548998,0.8743 2.070965,1.0344 2.956146,3.1548 3.025682,5.8393 l 0.319372,12.3198"
       class="fil2"
       inkscape:connector-curvature="0"
       style="fill:none" />
    <path
       id="path7054-6-7-2-3-9-0-3-7"
       d="m 7.449554,1029.7252 c 0,2.1684 -0.3849691,4.7369 -0.2122714,6.8992 0.5391476,6.7514 3.1799774,9.1394 10.4155814,8.673 1.394264,-0.09 8.927241,0.197 10.521504,0.197"
       class="fil2"
       inkscape:connector-curvature="0"
       style="fill:none" />
    <path
       id="path7050-7-1-0-8-5-2-6-8"
       d="m 19.883183,1009.7057 c 2.975748,-0.4928 16.315452,-0.2414 18.548998,0.8743 2.070965,1.0344 2.956146,3.1548 3.025682,5.8393 l 0.319372,12.3198"
       class="fil2"
       inkscape:connector-curvature="0"
       style="fill:none" />
    <path
       style="fill:#ffffff;fill-opacity:1;fill-rule:evenodd;stroke:none;display:inline"
       d="m 27.212808,1019.9473 c 2.841052,0.6892 5.869814,3.2097 5.949885,7.3097 0.147548,2.6431 -2.502081,6.6187 -4.26538,8.5271 -0.325141,2.1441 0.07235,2.6923 0.07235,2.6923 l 2.365553,6.3037 -12.19682,-0.043 c 0,0 2.878374,-5.1696 2.07864,-6.913 -1.209808,-0.6726 -2.65821,0.8115 -4.146768,-0.2548 -1.485307,-1.8003 0.219041,-3.1853 -0.255994,-3.2458 -0.841628,-0.4157 0.411662,-1.4269 0.06787,-2.5464 -0.197532,-0.6437 -1.347632,0.3994 -1.804361,-0.7677 0.279582,-1.604 2.271258,-3.0864 2.267616,-3.4396 0,-0.3527 -0.52018,-1.4471 -0.650619,-2.1263 0.320641,-5.2696 5.719449,-6.4221 10.518034,-5.4967 z"
       id="rect4632"
       inkscape:connector-curvature="0"
       sodipodi:nodetypes="cccccccccscccc" />
  </g>
</svg>
