<?xml version="1.0" encoding="UTF-8" standalone="no"?>
<!-- Created with Inkscape (http://www.inkscape.org/) -->

<svg
   xmlns:dc="http://purl.org/dc/elements/1.1/"
   xmlns:cc="http://creativecommons.org/ns#"
   xmlns:rdf="http://www.w3.org/1999/02/22-rdf-syntax-ns#"
   xmlns:svg="http://www.w3.org/2000/svg"
   xmlns="http://www.w3.org/2000/svg"
   xmlns:sodipodi="http://sodipodi.sourceforge.net/DTD/sodipodi-0.dtd"
   xmlns:inkscape="http://www.inkscape.org/namespaces/inkscape"
   width="256"
   height="256"
   id="svg5274"
   version="1.1"
   inkscape:version="0.48.3.1 r9886"
   sodipodi:docname="applications-java.svg">
  <defs
     id="defs5276" />
  <sodipodi:namedview
     id="base"
     pagecolor="#ffffff"
     bordercolor="#666666"
     borderopacity="1.0"
     inkscape:pageopacity="0.0"
     inkscape:pageshadow="2"
     inkscape:zoom="1.6895103"
     inkscape:cx="113.69327"
     inkscape:cy="65.598287"
     inkscape:document-units="px"
     inkscape:current-layer="layer1"
     showgrid="false"
     inkscape:window-width="1918"
     inkscape:window-height="1007"
     inkscape:window-x="0"
     inkscape:window-y="25"
     inkscape:window-maximized="1" />
  <metadata
     id="metadata5279">
    <rdf:RDF>
      <cc:Work
         rdf:about="">
        <dc:format>image/svg+xml</dc:format>
        <dc:type
           rdf:resource="http://purl.org/dc/dcmitype/StillImage" />
        <dc:title></dc:title>
      </cc:Work>
    </rdf:RDF>
  </metadata>
  <g
     inkscape:label="Capa 1"
     inkscape:groupmode="layer"
     id="layer1"
     transform="translate(0,-796.36218)">
    <rect
       id="rect7046-0-2-9-5-1-9"
       ry="54.991871"
       rx="37.190342"
       height="225.59729"
       width="234.29965"
       transform="matrix(-0.00430507,-0.99999073,0.99998792,-0.00491528,0,0)"
       class="fil3 str0"
       x="-1042.0851"
       y="10.584255"
       style="fill:#000000;fill-rule:evenodd;stroke:#000000;stroke-width:6.91800063999999981;stroke-miterlimit:4;stroke-dasharray:none;stroke-opacity:1" />
    <path
       style="fill:#ffffff;fill-opacity:1;fill-rule:evenodd;stroke:#ffffff;stroke-width:2.40375948;stroke-miterlimit:4;stroke-opacity:1;stroke-dasharray:none;display:inline"
       id="path3672"
       inkscape:connector-curvature="0"
       d="m 141.24165,838.51258 c 7.16561,28.22766 -25.297,36.81149 -37.00475,54.39178 -7.97327,11.98002 3.91444,24.81176 20.12042,39.43046 -6.32044,-14.28506 -27.76005,-26.80512 0,-48.72996 34.61607,-27.32546 16.88433,-45.09228 16.88433,-45.09228 z m 21.33208,34.98046 c 0,0 -58.48827,14.59692 -30.53286,46.81145 8.25226,9.49918 -2.12285,17.99746 -2.12285,17.99746 0,0 20.93931,-10.72432 11.32363,-24.26518 -8.98332,-12.62342 -15.95792,-18.91726 21.33208,-40.54373 z m 9.50383,57.52901 c -1.7916,0.0878 -3.6401,0.43684 -5.56086,1.11086 -1.79593,0.63651 -2.72891,2.12284 -2.72891,2.12284 0,0 1.10654,-0.48075 3.63994,-1.00974 10.35331,-2.1581 25.20694,13.86564 -6.87587,30.53274 -0.15353,0.3976 -0.60575,0.9111 -0.60575,0.9111 38.82231,-10.2062 29.46144,-34.55703 12.13145,-33.6678 z m -69.35759,1.61805 c -4.08992,0.10961 -13.742782,0.98555 -24.871062,6.36855 -17.55177,8.4873 43.456772,12.3446 75.019412,4.0437 3.28193,-2.239 7.78465,-4.1445 7.78465,-4.1445 0,0 -12.91764,2.2565 -25.78224,3.3367 -15.7427,1.3193 -32.57014,1.64 -41.046272,0.505 -20.0722,-2.6828 11.020592,-10.10945 11.020592,-10.10945 0,0 -0.76183,-0.0439 -2.12508,0 z m -5.15478,19.41115 c -28.954252,9.609 16.14894,20.5307 56.61799,8.6938 -4.30065,-1.515 -7.0778,-4.2462 -7.0778,-4.2462 -19.78678,3.8092 -31.22211,3.618 -45.69835,2.123 -11.191742,-1.157 -3.84184,-6.5706 -3.84184,-6.5706 z m 4.04376,18.7043 c -26.291192,7.3456 16.06561,22.5309 49.5402,8.1887 -5.4817,-2.1294 -9.40271,-4.549 -9.40271,-4.549 -14.92814,2.8212 -21.93574,3.0628 -35.48766,1.5171 -11.18292,-1.2843 -4.64983,-5.1568 -4.64983,-5.1568 z m -16.985122,12.4344 c -11.2996,-0.4346 -36.86197,10.8034 -14.96357,14.3574 68.246582,11.06235 124.364102,-4.9547 106.665072,-12.9414 0,0 4.79918,3.9956 -5.35878,7.0777 -19.31902,5.8508 -80.393422,7.5851 -97.363322,0.1977 -6.09657,-2.6541 5.29724,-6.3007 8.89743,-7.0777 3.75195,-0.8101 5.96486,-0.606 5.96486,-0.606 -0.84741,-0.5972 -2.22829,-0.9483 -3.84169,-1.0121 z m 102.517932,10.1118 c 0,0 -2.18197,5.5257 -25.4768,9.90745 -26.28271,4.9483 -58.62898,4.3863 -77.851362,1.2142 0,0 3.92983,3.2468 24.164192,4.5485 30.7896,1.9694 78.04446,-1.1019 79.16397,-15.67015 z" />
  </g>
</svg>
