<?xml version="1.0" encoding="UTF-8" standalone="no"?>
<!-- Created with Inkscape (http://www.inkscape.org/) -->

<svg
   xmlns:dc="http://purl.org/dc/elements/1.1/"
   xmlns:cc="http://creativecommons.org/ns#"
   xmlns:rdf="http://www.w3.org/1999/02/22-rdf-syntax-ns#"
   xmlns:svg="http://www.w3.org/2000/svg"
   xmlns="http://www.w3.org/2000/svg"
   xmlns:sodipodi="http://sodipodi.sourceforge.net/DTD/sodipodi-0.dtd"
   xmlns:inkscape="http://www.inkscape.org/namespaces/inkscape"
   width="48"
   height="48"
   id="svg2"
   version="1.1"
   inkscape:version="0.48.5 r10040"
   sodipodi:docname="applications-viewers.svg">
  <defs
     id="defs4" />
  <sodipodi:namedview
     id="base"
     pagecolor="#ffffff"
     bordercolor="#666666"
     borderopacity="1.0"
     inkscape:pageopacity="0.0"
     inkscape:pageshadow="2"
     inkscape:zoom="1.9409732"
     inkscape:cx="44.061863"
     inkscape:cy="48.37398"
     inkscape:document-units="px"
     inkscape:current-layer="layer1"
     showgrid="false"
     inkscape:window-width="1914"
     inkscape:window-height="1031"
     inkscape:window-x="0"
     inkscape:window-y="25"
     inkscape:window-maximized="1" />
  <metadata
     id="metadata7">
    <rdf:RDF>
      <cc:Work
         rdf:about="">
        <dc:format>image/svg+xml</dc:format>
        <dc:type
           rdf:resource="http://purl.org/dc/dcmitype/StillImage" />
        <dc:title />
      </cc:Work>
    </rdf:RDF>
  </metadata>
  <g
     inkscape:label="Capa 1"
     inkscape:groupmode="layer"
     id="layer1"
     transform="translate(0,-1004.3622)">
    <path
       style="fill:#ffffff;fill-opacity:1;fill-rule:evenodd;stroke:none"
       d="m 46.634806,1031.5289 c 0.02599,1.5527 -3.499973,10.2881 -22.52274,13.5205 -10.848845,1.8434 -24.60210619,-10.8173 -23.0799313,-12.9466 2.1210025,-2.9672 12.3957903,-13.4631 22.7016193,-11.6361 10.733787,1.9029 22.864197,8.8588 22.901052,11.0622 z"
       id="circle5781-6-9-8-6"
       inkscape:connector-curvature="0"
       sodipodi:nodetypes="sssss" />
    <path
       style="fill:#000000;fill-opacity:1;fill-rule:evenodd;stroke:#000000;stroke-width:0.83625621;stroke-miterlimit:4;stroke-opacity:1;stroke-dasharray:none"
       d="m 44.207934,1031.1579 c 0.02312,1.2321 -3.112818,8.1644 -20.031354,10.7296 -9.648782,1.4628 -21.8807063,-8.5844 -20.5269093,-10.2743 1.8863847,-2.3547 11.0246113,-10.6839 20.1904453,-9.2341 9.546453,1.5102 20.33504,7.0303 20.367818,8.7788 z"
       id="circle5781-6-9-8"
       inkscape:connector-curvature="0"
       sodipodi:nodetypes="sssss" />
    <path
       style="fill:#ffffff;fill-opacity:1;fill-rule:evenodd;stroke:#000000;stroke-width:0.84128183;stroke-miterlimit:4;stroke-opacity:1;stroke-dasharray:none"
       d="m 41.296932,1032.3465 c 0.199561,2.0936 -11.847142,7.336 -17.409907,7.336 -5.562697,0 -18.2324804,-5.7609 -17.722152,-7.6825 0.577448,-2.1743 12.159455,-7.2206 17.722152,-7.2206 5.562765,0 17.132346,4.6553 17.409907,7.5671 z"
       id="circle5781-6-9"
       inkscape:connector-curvature="0"
       sodipodi:nodetypes="sssss" />
    <path
       style="fill:#000000;fill-opacity:1;fill-rule:nonzero;stroke:none"
       inkscape:connector-curvature="0"
       id="path4782-4-8"
       d="m 27.821187,1035.6838 c -2.153454,2.3864 -5.869548,2.7368 -8.29981,0.7829 -2.428783,-1.953 -2.653107,-5.4717 -0.499654,-7.8579 1.945949,-2.4625 5.660474,-2.8114 8.296237,-0.7817 2.430284,1.954 2.656178,5.471 0.503227,7.8567 z"
       class="fil0 str0" />
    <path
       style="fill:none"
       inkscape:connector-curvature="0"
       id="path4788-1-6"
       d="m 23.266286,1026.8772 c 1.347176,-0.2791 4.252668,1.2225 5.044016,2.0643 3.665093,3.899 -2.108795,11.1156 -7.261264,8.6179"
       class="fil3" />
    <g
       transform="matrix(0.12392865,-0.45586071,0.42631491,0.13251756,-63.167785,1088.6772)"
       style="fill:#ffffff;fill-rule:evenodd"
       id="_67899552-2-9-2">
      <path
         style="fill:#ffffff"
         inkscape:connector-curvature="0"
         d="m 173.6687,119.80556 c 2.04035,0.78514 7.34845,-0.0678 9.1975,0.95774 0.55863,0.30985 1.14288,1.79023 -1.24331,2.6093 -3.79521,1.30273 -6.49496,1.07008 -0.54516,2.44318 1.61117,0.37183 7.40217,0.19624 8.34743,0.96968 0.37491,0.30677 -2.804,1.96827 -5.4944,2.49723 -1.75671,0.34539 -1.00027,0.31013 -0.7718,0.52235 1.19755,1.11236 6.06422,-0.76754 9.76684,2.31838 0.27807,0.23176 -2.5878,0.66957 -4.90215,1.25892 -1.95483,0.49779 -2.23911,1.13205 -2.04647,1.36815 0.72867,0.89309 8.05041,1.39286 8.72444,2.31921 0.25154,0.34571 -0.27238,0.97876 -2.30348,1.52243 -1.66164,0.44479 -2.27236,0.91919 -2.089,1.21092 0.71321,1.13474 6.37372,2.33274 7.01385,3.49634 0.17902,0.32542 -1.06334,0.41024 -3.48729,1.07023 -1.85311,0.50455 -1.48689,1.59549 -1.36911,1.84904 0.70546,1.51867 5.73604,2.30875 6.32472,3.83062 0.12195,0.31527 -0.33728,0.7729 -2.47353,1.31305 -2.11014,0.53355 -1.74926,1.26385 -1.6591,1.57662 0.43695,1.51586 6.06535,2.86313 6.40212,4.34802 0.12881,0.56795 0.97426,0.74277 -1.29943,0.83995 -1.93786,0.0828 -3.28964,1.18596 -3.28293,1.67384 0.0228,1.65963 4.20297,4.77493 4.29434,6.3714 -1.25256,0.0384 -2.4282,-1.21553 -3.1797,1.76033 -0.26846,1.34335 2.30249,4.42295 1.09037,4.25038 -1.37987,0.45051 -4.03124,-0.25426 -3.72272,0.53646 1.24737,3.19698 2.63701,6.86883 2.07802,8.815 -1.58005,0.15264 -2.22135,-1.05145 -3.64699,0.38724 -0.91776,1.02424 1.94457,5.35924 1.11979,6.41432 -6.01605,-1.83053 0.22203,-1.32335 -2.03631,5.02987 -0.68336,1.66645 -1.85574,-2.7125 -3.54697,-0.84559 -3.60657,10.57904 -11.56137,6.64547 -4.97295,7.14233 7.6587,-5.02056 7.07411,-19.25231 7.78161,-23.2798 2.31608,-22.02054 -1.20558,-29.81913 -13.44008,-45.65474 -6.43768,-8.33257 -11.55578,-22.92111 -24.27841,-20.6295 11.02322,-3.77786 22.95173,8.09287 24.23258,8.66189 -1.43173,2.78594 -10.77263,-3.77761 -4.58232,1.04521 z"
         class="fil2"
         id="_67839448-9-3-2"
         sodipodi:nodetypes="cssssssssssssssssssssscccscccccccsccc" />
    </g>
    <g
       transform="matrix(0.11529538,-0.34568883,0.39661641,0.10049087,-57.992287,1073.6799)"
       style="fill:#000000;fill-rule:evenodd"
       id="_67899552-2-9">
      <path
         style="fill:#000000"
         inkscape:connector-curvature="0"
         d="m 173.6687,119.80556 c 2.04035,0.78514 9.78233,-0.18868 11.63138,0.83691 0.55863,0.30985 -2.61492,0.17985 -5.02579,0.92207 -3.07565,0.94688 -5.14636,2.87814 0.80344,4.25124 1.61117,0.37183 7.40217,0.19624 8.34743,0.96968 0.37491,0.30677 -3.11852,0.88632 -5.80892,1.41528 -1.75671,0.34539 -0.68575,1.39208 -0.45728,1.6043 1.19755,1.11236 9.88601,1.05494 10.98378,2.25797 0.24599,0.26958 -3.73983,-0.46227 -6.05418,0.12708 -1.95483,0.49779 -2.30402,2.3243 -2.11138,2.5604 0.72867,0.89309 10.68939,1.50575 11.36342,2.4321 0.25154,0.34571 -3.30451,-0.48657 -5.33561,0.0571 -1.66164,0.44479 -1.87921,2.27163 -1.69585,2.56336 0.71321,1.13474 9.93737,2.32351 10.5775,3.48711 0.17902,0.32542 -4.44413,-0.36705 -6.86808,0.29294 -1.85311,0.50455 -1.66975,2.38201 -1.55197,2.63556 0.70546,1.51867 10.27739,3.77538 10.86607,5.29725 0.12195,0.31527 -2.90282,-0.97475 -5.03907,-0.4346 -2.11014,0.53355 -3.33192,2.89731 -3.24176,3.21008 0.43695,1.51586 9.42389,2.62018 9.76066,4.10507 0.12881,0.56795 -2.77743,-0.36672 -5.05112,-0.26954 -1.93786,0.0828 -3.28964,1.18596 -3.28293,1.67384 0.0228,1.65963 6.65909,5.67434 6.75046,7.27081 0.0294,0.51414 -1.82872,-1.1371 -3.29323,-1.41555 -1.08381,-0.20606 -1.86927,0.89678 -1.94609,1.28117 -0.26846,1.34335 3.94506,6.10029 3.92258,7.38724 -0.009,0.51933 -2.3617,-1.93784 -4.05451,-2.32841 -1.10633,-0.25525 -1.72736,1.41705 -1.9334,1.75866 -1.55656,2.58078 5.25925,7.71609 3.15706,10.55936 -0.29555,0.49676 -1.45485,-2.37783 -2.84029,-3.17161 -1.0505,-0.60187 -2.37272,0.78467 -2.73131,1.18487 -0.91776,1.02424 2.33772,6.71168 1.51294,7.76676 -1.05636,1.3513 -1.8448,-1.92872 -3.48491,-0.77579 -0.30194,0.21225 2.45693,4.23067 1.51869,6.51865 -0.68336,1.66645 -1.83867,-3.5975 -3.5299,-1.73059 -4.21184,2.83465 -12.15963,5.05931 -5.57121,5.55617 7.6587,-5.02056 7.07411,-19.25231 7.78161,-23.2798 2.31608,-22.02054 -1.20558,-29.81913 -13.44008,-45.65474 -6.43768,-8.33257 -8.20729,-16.12084 -20.92992,-13.82923 11.02322,-3.77786 18.42043,-0.41698 19.70128,0.15204 -1.64202,0.64697 -9.58982,-2.06803 -3.39951,2.75479 z"
         class="fil2"
         id="_67839448-9-3"
         sodipodi:nodetypes="cssssssssssssssssssssssssssscssssscccsccc" />
    </g>
  </g>
</svg>
