<?xml version="1.0" encoding="UTF-8" standalone="no"?>
<!-- Created with Inkscape (http://www.inkscape.org/) -->

<svg
   xmlns:dc="http://purl.org/dc/elements/1.1/"
   xmlns:cc="http://creativecommons.org/ns#"
   xmlns:rdf="http://www.w3.org/1999/02/22-rdf-syntax-ns#"
   xmlns:svg="http://www.w3.org/2000/svg"
   xmlns="http://www.w3.org/2000/svg"
   xmlns:sodipodi="http://sodipodi.sourceforge.net/DTD/sodipodi-0.dtd"
   xmlns:inkscape="http://www.inkscape.org/namespaces/inkscape"
   width="256"
   height="256"
   id="svg4631"
   version="1.1"
   inkscape:version="0.48.3.1 r9886"
   sodipodi:docname="applications-physics.svg">
  <defs
     id="defs4633" />
  <sodipodi:namedview
     id="base"
     pagecolor="#ffffff"
     bordercolor="#666666"
     borderopacity="1.0"
     inkscape:pageopacity="0.0"
     inkscape:pageshadow="2"
     inkscape:zoom="2.6795493"
     inkscape:cx="56.084154"
     inkscape:cy="108.11425"
     inkscape:document-units="px"
     inkscape:current-layer="layer1"
     showgrid="false"
     inkscape:window-width="1918"
     inkscape:window-height="1007"
     inkscape:window-x="0"
     inkscape:window-y="25"
     inkscape:window-maximized="1"
     showguides="true"
     inkscape:guide-bbox="true" />
  <metadata
     id="metadata4636">
    <rdf:RDF>
      <cc:Work
         rdf:about="">
        <dc:format>image/svg+xml</dc:format>
        <dc:type
           rdf:resource="http://purl.org/dc/dcmitype/StillImage" />
        <dc:title></dc:title>
      </cc:Work>
    </rdf:RDF>
  </metadata>
  <g
     inkscape:label="Capa 1"
     inkscape:groupmode="layer"
     id="layer1"
     transform="translate(0,-796.36218)">
    <g
       style="fill-rule:evenodd;fill:#000000;stroke:#0a0000;stroke-opacity:1"
       id="g4536"
       transform="matrix(0.09455038,0,0,0.09455038,-1065.7326,-4.2221119)">
      <path
         inkscape:connector-curvature="0"
         id="path3225-9-0-5"
         d="m 13088.771,9815.8186 c 0,-739.2539 -212.52,-1338.5313 -474.687,-1338.5313 -262.167,0 -474.688,599.2774 -474.688,1338.5313 0,739.2534 212.521,1338.5314 474.688,1338.5314 262.167,0 474.687,-599.278 474.687,-1338.5314 z m -22.093,17.0312 c 0,681.5272 -197.673,1234.0002 -441.532,1234.0002 -243.859,0 -441.562,-552.473 -441.562,-1234.0002 0,-681.5275 197.703,-1234.0312 441.562,-1234.0312 243.859,0 441.532,552.5037 441.532,1234.0312 z"
         style="fill:#000000;fill-opacity:1;fill-rule:evenodd;stroke:#0a0000;stroke-width:10;stroke-miterlimit:4;stroke-opacity:1;stroke-dasharray:none" />
      <path
         inkscape:connector-curvature="0"
         id="path3225-3-7-7-6-0-82"
         d="m 13069.836,9824.9148 c 4.933,-689.5965 -189.062,-1250.2669 -433.307,-1252.3 -244.246,-2.0331 -446.266,555.3408 -451.199,1244.9375 -4.933,689.5957 189.091,1250.2667 433.336,1252.3007 244.245,2.034 446.238,-555.342 451.17,-1244.9382 z m -5.699,3.1885 c -4.825,674.5617 -204.429,1219.7627 -445.852,1217.7537 -241.422,-2.01 -433.233,-550.47 -428.408,-1225.0311 4.825,-674.5616 204.459,-1219.7628 445.881,-1217.7532 241.423,2.0097 433.204,550.4689 428.379,1225.0306 z"
         style="fill:#000000;fill-opacity:1;fill-rule:evenodd;stroke:#0a0000;stroke-opacity:1" />
    </g>
    <path
       style="fill:#000000;fill-opacity:1;fill-rule:nonzero;stroke:#72706f;stroke-width:0.19096721999999999"
       inkscape:connector-curvature="0"
       id="path4782-4-7-0-6"
       d="m 152.2857,926.86258 c 0,13.78245 -11.0723,24.95628 -24.73035,24.95628 -13.64973,0 -24.72216,-11.17383 -24.72216,-24.95628 -0.89994,-13.47895 10.17237,-24.64335 24.72216,-24.94308 13.65805,0 24.73035,11.16363 24.73035,24.94308 z"
       class="fil0 str0" />
    <path
       style="fill:none"
       inkscape:connector-curvature="0"
       id="path4788-8-2-8-4"
       d="m 110.31523,908.57537 c 3.50932,-4.5121 17.26084,-7.202 22.27823,-6.48596 23.23891,3.31684 25.89229,42.80581 1.99154,48.12919"
       class="fil3" />
    <path
       style="fill:#000000;fill-opacity:1;fill-rule:evenodd;stroke:#070000;stroke-width:0.94550376999999997;stroke-miterlimit:4;stroke-opacity:1;stroke-dasharray:none"
       d="m 127.65802,968.32308 c 69.89674,0 126.55864,-20.09384 126.55864,-44.88183 0,-24.78799 -56.6619,-44.88194 -126.55864,-44.88194 -69.896689,0 -126.5586512,20.09395 -126.5586512,44.88194 0,24.78799 56.6619622,44.88183 126.5586512,44.88183 z m -1.61031,-2.0889 c -64.438651,0 -116.6751829,-18.69006 -116.6751829,-41.74702 0,-23.05696 52.2365319,-41.74985 116.6751829,-41.74985 64.43869,0 116.67812,18.69289 116.67812,41.74985 0,23.05696 -52.23943,41.74702 -116.67812,41.74702 z"
       id="path3225-9-0-5-0"
       inkscape:connector-curvature="0" />
    <path
       style="fill:#000000;fill-opacity:1;fill-rule:evenodd;stroke:none"
       d="m 126.79797,966.53277 c 65.20161,0.46642 118.21321,-17.87588 118.40544,-40.96934 C 245.39564,902.46988 192.69573,883.36881 127.4941,882.90239 62.292564,882.43597 9.2809078,900.78102 9.0885923,923.87448 8.8962768,946.96793 61.596389,966.06645 126.79797,966.53277 z m -0.30147,-0.53884 C 62.716433,965.53772 11.167472,946.66509 11.357423,923.83845 c 0.190046,-22.82654 52.047148,-40.96234 115.827157,-40.50614 63.78005,0.45621 115.32904,19.33168 115.13903,42.15822 -0.19002,22.82664 -52.04705,40.9596 -115.82711,40.5034 z"
       id="path3225-3-7-7-6-0-82-5"
       inkscape:connector-curvature="0" />
    <path
       style="fill:#000000;fill-opacity:1;fill-rule:evenodd;stroke:#140000;stroke-width:0.94550383000000005;stroke-miterlimit:4;stroke-opacity:1;stroke-dasharray:none"
       d="m 159.55365,955.00384 c 50.45826,-48.36856 77.45739,-102.08431 60.30409,-119.97869 -17.15329,-17.89438 -71.96238,6.80991 -122.420644,55.17847 -50.458229,48.36853 -77.457331,102.08439 -60.304036,119.97878 17.153296,17.8944 71.96236,-6.81 122.42059,-55.17856 z m -2.608,-0.39364 c -46.51809,44.59157 -97.161021,67.247 -113.116445,50.6022 -15.955424,-16.64475 8.818498,-66.2868 55.336587,-110.87836 46.518108,-44.59159 97.165098,-67.24695 113.120528,-50.60219 15.95542,16.64476 -8.82256,66.28676 -55.34067,110.87835 z"
       id="path3225-9-0-5-0-8"
       inkscape:connector-curvature="0" />
    <path
       style="fill:#000000;fill-opacity:1;fill-rule:evenodd;stroke:none"
       d="m 157.69388,954.30657 c 47.39163,-44.78283 72.96768,-94.70813 57.12577,-111.51225 -15.84197,-16.8042 -67.10384,5.87515 -114.49548,50.65799 -47.391569,44.78278 -72.965763,94.71009 -57.123916,111.51429 15.841847,16.8042 67.102096,-5.87715 114.493626,-50.66003 z m -0.59051,-0.18037 c -46.35835,43.80649 -96.631268,65.8543 -112.290182,49.2444 -15.658779,-16.60998 9.226739,-65.58729 55.585042,-109.39374 46.35835,-43.80649 96.63325,-65.85224 112.29205,-49.24234 15.65887,16.60998 -9.22856,65.58519 -55.58691,109.39168 z"
       id="path3225-3-7-7-6-0-82-5-2"
       inkscape:connector-curvature="0" />
    <path
       style="fill:#000000;fill-opacity:1;fill-rule:evenodd;stroke:#0a0000;stroke-width:0.94550376999999997;stroke-miterlimit:4;stroke-opacity:1;stroke-dasharray:none"
       d="M 158.73592,890.22242 C 108.30706,841.8232 53.513058,817.08554 36.348892,834.9695 c -17.164165,17.88396 9.802252,71.61617 60.231115,120.01538 50.428833,48.39922 105.222933,73.13682 122.387103,55.25282 17.16416,-17.88392 -9.80236,-71.6161 -60.23119,-120.01528 z m -0.28464,2.62213 c 46.49099,44.61982 71.2367,94.27486 55.27117,110.90995 -15.96553,16.635 -66.59666,-6.04908 -113.08764,-50.66891 -46.491006,-44.61984 -71.236853,-94.27894 -55.271319,-110.914 15.965534,-16.63506 66.596789,6.05311 113.087789,50.67296 z"
       id="path3225-9-0-5-0-1"
       inkscape:connector-curvature="0" />
    <path
       style="fill:#000000;fill-opacity:1;fill-rule:evenodd;stroke:none"
       d="m 158.48994,892.48282 c -46.71847,-45.48464 -97.666023,-68.95838 -113.795518,-52.4301 -16.129561,16.52835 8.665875,66.80079 55.384368,112.28543 46.71842,45.48459 97.66791,68.95635 113.79746,52.42815 16.12956,-16.5282 -8.66779,-66.79894 -55.38631,-112.28348 z m -0.1556,0.59751 c 45.69993,44.49293 69.82316,93.8036 53.88006,110.14097 -15.9431,16.3372 -65.91472,-6.48611 -111.61461,-50.979 -45.699926,-44.49293 -69.821203,-93.80565 -53.878133,-110.1429 15.943142,-16.33731 65.912743,6.488 111.612683,50.98093 z"
       id="path3225-3-7-7-6-0-82-5-6"
       inkscape:connector-curvature="0" />
  </g>
</svg>
