<?xml version="1.0" encoding="UTF-8" standalone="no"?>
<!-- Created with Inkscape (http://www.inkscape.org/) -->

<svg
   xmlns:dc="http://purl.org/dc/elements/1.1/"
   xmlns:cc="http://creativecommons.org/ns#"
   xmlns:rdf="http://www.w3.org/1999/02/22-rdf-syntax-ns#"
   xmlns:svg="http://www.w3.org/2000/svg"
   xmlns="http://www.w3.org/2000/svg"
   xmlns:sodipodi="http://sodipodi.sourceforge.net/DTD/sodipodi-0.dtd"
   xmlns:inkscape="http://www.inkscape.org/namespaces/inkscape"
   width="256"
   height="256"
   id="svg2"
   version="1.1"
   inkscape:version="0.48.3.1 r9886"
   sodipodi:docname="applications-viewers.svg">
  <defs
     id="defs4" />
  <sodipodi:namedview
     id="base"
     pagecolor="#ffffff"
     bordercolor="#666666"
     borderopacity="1.0"
     inkscape:pageopacity="0.0"
     inkscape:pageshadow="2"
     inkscape:zoom="2.7449506"
     inkscape:cx="116.06064"
     inkscape:cy="89.157381"
     inkscape:document-units="px"
     inkscape:current-layer="layer1"
     showgrid="false"
     inkscape:window-width="1918"
     inkscape:window-height="1007"
     inkscape:window-x="0"
     inkscape:window-y="25"
     inkscape:window-maximized="1" />
  <metadata
     id="metadata7">
    <rdf:RDF>
      <cc:Work
         rdf:about="">
        <dc:format>image/svg+xml</dc:format>
        <dc:type
           rdf:resource="http://purl.org/dc/dcmitype/StillImage" />
        <dc:title></dc:title>
      </cc:Work>
    </rdf:RDF>
  </metadata>
  <g
     inkscape:label="Capa 1"
     inkscape:groupmode="layer"
     id="layer1"
     transform="translate(0,-796.36218)">
    <path
       style="fill:#000000;fill-opacity:1;fill-rule:evenodd;stroke:#000000;stroke-width:4.87218808999999986;stroke-miterlimit:4;stroke-opacity:1;stroke-dasharray:none"
       d="m 246.44529,923.45079 c 0.13472,7.17863 -18.13586,47.56727 -116.70648,62.51209 C 73.523168,994.48602 2.2576499,935.949 10.145129,926.10356 c 10.990437,-13.7186 64.231485,-62.24705 117.633381,-53.79978 55.61945,8.79803 118.47582,40.95927 118.66678,51.14701 z"
       id="circle5781-6-9-8"
       inkscape:connector-curvature="0"
       sodipodi:nodetypes="sssss" />
    <path
       style="fill:#ffffff;fill-opacity:1;fill-rule:evenodd;stroke:#000000;stroke-width:4.90146827999999957;stroke-miterlimit:4;stroke-opacity:1;stroke-dasharray:none"
       d="m 229.48524,930.3759 c 1.16268,12.19764 -69.0237,42.74121 -101.43343,42.74121 -32.409329,0 -106.225903,-33.56454 -103.252633,-44.75998 3.364322,-12.66791 70.843304,-42.0683 103.252633,-42.0683 32.40973,0 99.81631,27.12241 101.43343,44.08707 z"
       id="circle5781-6-9"
       inkscape:connector-curvature="0"
       sodipodi:nodetypes="sssss" />
    <path
       style="fill:#000000;fill-opacity:1;fill-rule:nonzero;stroke:none"
       inkscape:connector-curvature="0"
       id="path4782-4-8"
       d="m 150.97299,949.81984 c -12.54643,13.90278 -34.19711,15.94499 -48.35628,4.56041 -14.150548,-11.37776 -15.457503,-31.87862 -2.911079,-45.78141 11.337469,-14.34674 32.978999,-16.37943 48.335459,-4.5539 14.1593,11.38459 15.4754,31.87507 2.9319,45.7749 z"
       class="fil0 str0" />
    <path
       style="fill:none"
       inkscape:connector-curvature="0"
       id="path4788-1-6"
       d="m 124.43527,898.51014 c 7.8489,-1.62625 24.77685,7.12287 29.3874,12.02736 21.35352,22.71654 -12.28625,64.76217 -42.30551,50.20956"
       class="fil3" />
    <g
       transform="matrix(0.67173282,-2.0140489,2.3107627,0.58547893,-348.99265,1171.1919)"
       style="fill:#000000;fill-rule:evenodd"
       id="_67899552-2-9">
      <path
         style="fill:#000000"
         inkscape:connector-curvature="0"
         d="m 173.6687,119.80556 c 2.04035,0.78514 9.78233,-0.18868 11.63138,0.83691 0.55863,0.30985 -2.61492,0.17985 -5.02579,0.92207 -3.07565,0.94688 -5.14636,2.87814 0.80344,4.25124 1.61117,0.37183 7.40217,0.19624 8.34743,0.96968 0.37491,0.30677 -3.11852,0.88632 -5.80892,1.41528 -1.75671,0.34539 -0.68575,1.39208 -0.45728,1.6043 1.19755,1.11236 9.88601,1.05494 10.98378,2.25797 0.24599,0.26958 -3.73983,-0.46227 -6.05418,0.12708 -1.95483,0.49779 -2.30402,2.3243 -2.11138,2.5604 0.72867,0.89309 10.68939,1.50575 11.36342,2.4321 0.25154,0.34571 -3.30451,-0.48657 -5.33561,0.0571 -1.66164,0.44479 -1.87921,2.27163 -1.69585,2.56336 0.71321,1.13474 9.93737,2.32351 10.5775,3.48711 0.17902,0.32542 -4.44413,-0.36705 -6.86808,0.29294 -1.85311,0.50455 -1.66975,2.38201 -1.55197,2.63556 0.70546,1.51867 10.27739,3.77538 10.86607,5.29725 0.12195,0.31527 -2.90282,-0.97475 -5.03907,-0.4346 -2.11014,0.53355 -3.33192,2.89731 -3.24176,3.21008 0.43695,1.51586 9.42389,2.62018 9.76066,4.10507 0.12881,0.56795 -2.77743,-0.36672 -5.05112,-0.26954 -1.93786,0.0828 -3.28964,1.18596 -3.28293,1.67384 0.0228,1.65963 6.65909,5.67434 6.75046,7.27081 0.0294,0.51414 -1.82872,-1.1371 -3.29323,-1.41555 -1.08381,-0.20606 -1.86927,0.89678 -1.94609,1.28117 -0.26846,1.34335 3.94506,6.10029 3.92258,7.38724 -0.009,0.51933 -2.3617,-1.93784 -4.05451,-2.32841 -1.10633,-0.25525 -1.72736,1.41705 -1.9334,1.75866 -1.55656,2.58078 5.25925,7.71609 3.15706,10.55936 -0.29555,0.49676 -1.45485,-2.37783 -2.84029,-3.17161 -1.0505,-0.60187 -2.37272,0.78467 -2.73131,1.18487 -0.91776,1.02424 2.33772,6.71168 1.51294,7.76676 -1.05636,1.3513 -1.8448,-1.92872 -3.48491,-0.77579 -0.30194,0.21225 2.45693,4.23067 1.51869,6.51865 -0.68336,1.66645 -1.83867,-3.5975 -3.5299,-1.73059 -4.21184,2.83465 -12.15963,5.05931 -5.57121,5.55617 7.6587,-5.02056 7.07411,-19.25231 7.78161,-23.2798 2.31608,-22.02054 -1.20558,-29.81913 -13.44008,-45.65474 -6.43768,-8.33257 -8.20729,-16.12084 -20.92992,-13.82923 11.02322,-3.77786 18.42043,-0.41698 19.70128,0.15204 -1.64202,0.64697 -9.58982,-2.06803 -3.39951,2.75479 z"
         class="fil2"
         id="_67839448-9-3"
         sodipodi:nodetypes="cssssssssssssssssssssssssssscssssscccsccc" />
    </g>
  </g>
</svg>
