<?xml version="1.0" encoding="UTF-8" standalone="no"?>
<!-- Created with Inkscape (http://www.inkscape.org/) -->

<svg
   xmlns:dc="http://purl.org/dc/elements/1.1/"
   xmlns:cc="http://creativecommons.org/ns#"
   xmlns:rdf="http://www.w3.org/1999/02/22-rdf-syntax-ns#"
   xmlns:svg="http://www.w3.org/2000/svg"
   xmlns="http://www.w3.org/2000/svg"
   xmlns:sodipodi="http://sodipodi.sourceforge.net/DTD/sodipodi-0.dtd"
   xmlns:inkscape="http://www.inkscape.org/namespaces/inkscape"
   width="256"
   height="256"
   id="svg2"
   version="1.1"
   inkscape:version="0.48.3.1 r9886"
   sodipodi:docname="applications-painting.svg">
  <defs
     id="defs4" />
  <sodipodi:namedview
     id="base"
     pagecolor="#ffffff"
     bordercolor="#666666"
     borderopacity="1.0"
     inkscape:pageopacity="0.0"
     inkscape:pageshadow="2"
     inkscape:zoom="2.4691308"
     inkscape:cx="64.160326"
     inkscape:cy="106.56092"
     inkscape:document-units="px"
     inkscape:current-layer="layer1"
     showgrid="false"
     inkscape:window-width="1918"
     inkscape:window-height="1007"
     inkscape:window-x="0"
     inkscape:window-y="25"
     inkscape:window-maximized="1" />
  <metadata
     id="metadata7">
    <rdf:RDF>
      <cc:Work
         rdf:about="">
        <dc:format>image/svg+xml</dc:format>
        <dc:type
           rdf:resource="http://purl.org/dc/dcmitype/StillImage" />
        <dc:title></dc:title>
      </cc:Work>
    </rdf:RDF>
  </metadata>
  <g
     inkscape:label="Capa 1"
     inkscape:groupmode="layer"
     id="layer1"
     transform="translate(0,-796.36218)">
    <path
       style="fill:#000000;fill-opacity:1;fill-rule:evenodd;stroke:#070000;stroke-width:3.389925;stroke-linecap:butt;stroke-linejoin:miter;stroke-miterlimit:4;stroke-opacity:1;stroke-dasharray:none"
       d="m 54.996814,997.7335 c 5.500984,-28.23323 34.046167,5.7855 32.098312,27.1836 -1.791252,19.6764 42.077444,42.1744 40.683394,-2.5277 -0.68813,-22.0642 23.69245,-24.06812 28.43085,-33.4444 10.31014,-27.58216 -16.30134,-27.0042 -23.82085,-14.06244 -13.49118,17.38191 -6.93874,-29.36724 -37.193744,-10.27349 -15.672536,-4.73866 1.624656,-13.44788 3.004637,-17.93222 0.105048,-0.54833 3.276577,-6.37735 2.652267,-6.83565 -25.004662,-17.04842 -58.950379,-26.02933 -47.074312,-8.60716 1.968117,2.88709 28.266509,25.6308 5.980725,28.91219 -61.4610061,9.13631 -18.182112,76.79517 -4.761279,37.58727 z"
       id="path5807"
       inkscape:connector-curvature="0"
       sodipodi:nodetypes="csscccccscc" />
    <rect
       style="fill:#000000;fill-opacity:1;fill-rule:evenodd;stroke:#000000;stroke-width:2.47076248999999981;stroke-opacity:1"
       id="rect11194-1-9-4-1-4-2"
       ry="5.2206173"
       rx="92.901337"
       height="13.605301"
       width="185.80267"
       y="-689.73785"
       x="529.85419"
       class="fil0 str0"
       transform="matrix(-0.63942215,0.76885585,-0.80954031,-0.58706429,0,0)" />
    <path
       style="fill:none"
       inkscape:connector-curvature="0"
       id="path11198-0-0-4-1-1-9"
       d="m 180.90303,859.3126 c 7.73506,-12.47978 -4.09893,-16.98188 -10.64651,-18.68232 -11.38207,-2.95996 -35.18014,27.71355 -43.9165,38.24901 -17.47419,21.07267 -36.688617,44.24406 -54.704188,64.9203"
       class="fil2" />
    <path
       style="fill:#000000;fill-opacity:1;fill-rule:evenodd;stroke:#fffefe;stroke-width:4.74;stroke-linecap:butt;stroke-linejoin:miter;stroke-miterlimit:4;stroke-opacity:1;stroke-dasharray:none"
       d="m 113.27571,951.5252 c -2.4438,11.04011 -30.358579,3.42453 -24.653991,33.70733 -31.91805,-61.0529 27.652041,-62.52777 24.653991,-33.70733 z"
       id="path4752-2-1"
       inkscape:connector-curvature="0"
       sodipodi:nodetypes="ccc" />
  </g>
</svg>
