<?xml version="1.0" encoding="UTF-8" standalone="no"?>
<!-- Created with Inkscape (http://www.inkscape.org/) -->

<svg
   xmlns:dc="http://purl.org/dc/elements/1.1/"
   xmlns:cc="http://creativecommons.org/ns#"
   xmlns:rdf="http://www.w3.org/1999/02/22-rdf-syntax-ns#"
   xmlns:svg="http://www.w3.org/2000/svg"
   xmlns="http://www.w3.org/2000/svg"
   xmlns:sodipodi="http://sodipodi.sourceforge.net/DTD/sodipodi-0.dtd"
   xmlns:inkscape="http://www.inkscape.org/namespaces/inkscape"
   width="256"
   height="256"
   id="svg2"
   version="1.1"
   inkscape:version="0.48.3.1 r9886"
   sodipodi:docname="applications-boardgames.svg">
  <defs
     id="defs4" />
  <sodipodi:namedview
     id="base"
     pagecolor="#ffffff"
     bordercolor="#666666"
     borderopacity="1.0"
     inkscape:pageopacity="0.0"
     inkscape:pageshadow="2"
     inkscape:zoom="1.9310043"
     inkscape:cx="88.139459"
     inkscape:cy="103.12142"
     inkscape:document-units="px"
     inkscape:current-layer="layer1"
     showgrid="false"
     inkscape:window-width="1438"
     inkscape:window-height="827"
     inkscape:window-x="0"
     inkscape:window-y="25"
     inkscape:window-maximized="1"
     showguides="true"
     inkscape:guide-bbox="true" />
  <metadata
     id="metadata7">
    <rdf:RDF>
      <cc:Work
         rdf:about="">
        <dc:format>image/svg+xml</dc:format>
        <dc:type
           rdf:resource="http://purl.org/dc/dcmitype/StillImage" />
        <dc:title></dc:title>
      </cc:Work>
    </rdf:RDF>
  </metadata>
  <g
     inkscape:label="Capa 1"
     inkscape:groupmode="layer"
     id="layer1"
     transform="translate(0,-796.36218)">
    <rect
       id="rect7046-4-7-2"
       ry="22.750954"
       rx="19.394947"
       height="126.85259"
       width="129.14481"
       transform="matrix(0.94934259,0.31424297,-0.3137734,0.9494979,0,0)"
       class="fil3 str0"
       x="300.40396"
       y="767.05164"
       style="fill:#000000;fill-rule:evenodd;stroke:none;stroke-width:3.87343121000000012" />
    <path
       sodipodi:type="arc"
       style="fill:#ffffff;fill-opacity:1;fill-rule:evenodd;stroke:none;stroke-width:24.68448066999999924;stroke-linecap:round;stroke-linejoin:bevel;stroke-miterlimit:4;stroke-opacity:1;stroke-dasharray:none"
       id="path5579-2-2"
       sodipodi:cx="-19684.475"
       sodipodi:cy="7133.7954"
       sodipodi:rx="83.90654"
       sodipodi:ry="83.90654"
       d="m -19600.568,7133.7954 a 83.90654,83.90654 0 1 1 -167.813,0 83.90654,83.90654 0 1 1 167.813,0 z"
       transform="matrix(-0.06632643,-0.12505184,0.12505184,-0.06632643,-2153.9412,-1065.6563)"
       inkscape:transform-center-x="36.207196"
       inkscape:transform-center-y="392.85785" />
    <path
       sodipodi:type="arc"
       style="fill:#ffffff;fill-opacity:1;fill-rule:evenodd;stroke:none;stroke-width:24.68448066999999924;stroke-linecap:round;stroke-linejoin:bevel;stroke-miterlimit:4;stroke-opacity:1;stroke-dasharray:none"
       id="path5579-3-0-4"
       sodipodi:cx="-19684.475"
       sodipodi:cy="7133.7954"
       sodipodi:rx="83.90654"
       sodipodi:ry="83.90654"
       d="m -19600.568,7133.7954 a 83.90654,83.90654 0 1 1 -167.813,0 83.90654,83.90654 0 1 1 167.813,0 z"
       transform="matrix(-0.06632643,-0.12505184,0.12505184,-0.06632643,-2110.3289,-1085.3042)"
       inkscape:transform-center-x="-396.24608"
       inkscape:transform-center-y="-62.919544" />
    <path
       sodipodi:type="arc"
       style="fill:#ffffff;fill-opacity:1;fill-rule:evenodd;stroke:none;stroke-width:24.68448066999999924;stroke-linecap:round;stroke-linejoin:bevel;stroke-miterlimit:4;stroke-opacity:1;stroke-dasharray:none"
       id="path5579-3-8-2-5"
       sodipodi:cx="-19684.475"
       sodipodi:cy="7133.7954"
       sodipodi:rx="83.90654"
       sodipodi:ry="83.90654"
       d="m -19600.568,7133.7954 a 83.90654,83.90654 0 1 1 -167.813,0 83.90654,83.90654 0 1 1 167.813,0 z"
       transform="matrix(-0.06632643,-0.12505184,0.12505184,-0.06632643,-2068.8109,-1106.0981)"
       inkscape:transform-center-x="-806.25383"
       inkscape:transform-center-y="-495.0404" />
    <rect
       id="rect7046-4-7"
       ry="24.11418"
       rx="20.557081"
       height="134.45352"
       width="136.8831"
       transform="matrix(0.98867447,-0.15007595,0.15056487,0.98860013,0,0)"
       class="fil3 str0"
       x="-47.491871"
       y="904.27759"
       style="fill:#000000;fill-rule:evenodd;stroke:none;stroke-width:4.10552548999999978" />
    <path
       sodipodi:type="arc"
       style="fill:#ffffff;fill-opacity:1;fill-rule:evenodd;stroke:none;stroke-width:24.68448066999999924;stroke-linecap:round;stroke-linejoin:bevel;stroke-miterlimit:4;stroke-opacity:1;stroke-dasharray:none"
       id="path5579"
       sodipodi:cx="-19684.475"
       sodipodi:cy="7133.7954"
       sodipodi:rx="83.90654"
       sodipodi:ry="83.90654"
       d="m -19600.568,7133.7954 c 0,46.3403 -37.566,83.9066 -83.907,83.9066 -46.34,0 -83.906,-37.5663 -83.906,-83.9066 0,-46.3403 37.566,-83.9065 83.906,-83.9065 46.341,0 83.907,37.5662 83.907,83.9065 z"
       transform="matrix(0.14843129,-0.02187428,0.02187428,0.14843129,2900.3177,-563.90716)" />
    <path
       sodipodi:type="arc"
       style="fill:#ffffff;fill-opacity:1;fill-rule:evenodd;stroke:none;stroke-width:24.68448066999999924;stroke-linecap:round;stroke-linejoin:bevel;stroke-miterlimit:4;stroke-opacity:1;stroke-dasharray:none"
       id="path5579-3"
       sodipodi:cx="-19684.475"
       sodipodi:cy="7133.7954"
       sodipodi:rx="83.90654"
       sodipodi:ry="83.90654"
       d="m -19600.568,7133.7954 c 0,46.3403 -37.566,83.9066 -83.907,83.9066 -46.34,0 -83.906,-37.5663 -83.906,-83.9066 0,-46.3403 37.566,-83.9065 83.906,-83.9065 46.341,0 83.907,37.5662 83.907,83.9065 z"
       transform="matrix(0.14843129,-0.02187428,0.02187428,0.14843129,2905.8551,-526.33257)" />
    <path
       sodipodi:type="arc"
       style="fill:#ffffff;fill-opacity:1;fill-rule:evenodd;stroke:none;stroke-width:24.68448066999999924;stroke-linecap:round;stroke-linejoin:bevel;stroke-miterlimit:4;stroke-opacity:1;stroke-dasharray:none"
       id="path5579-3-8"
       sodipodi:cx="-19684.475"
       sodipodi:cy="7133.7954"
       sodipodi:rx="83.90654"
       sodipodi:ry="83.90654"
       d="m -19600.568,7133.7954 c 0,46.3403 -37.566,83.9066 -83.907,83.9066 -46.34,0 -83.906,-37.5663 -83.906,-83.9066 0,-46.3403 37.566,-83.9065 83.906,-83.9065 46.341,0 83.907,37.5662 83.907,83.9065 z"
       transform="matrix(0.14843129,-0.02187428,0.02187428,0.14843129,2911.105,-490.70814)" />
    <path
       sodipodi:type="arc"
       style="fill:#ffffff;fill-opacity:1;fill-rule:evenodd;stroke:none;stroke-width:24.68448066999999924;stroke-linecap:round;stroke-linejoin:bevel;stroke-miterlimit:4;stroke-opacity:1;stroke-dasharray:none"
       id="path5579-2"
       sodipodi:cx="-19684.475"
       sodipodi:cy="7133.7954"
       sodipodi:rx="83.90654"
       sodipodi:ry="83.90654"
       d="m -19600.568,7133.7954 c 0,46.3403 -37.566,83.9066 -83.907,83.9066 -46.34,0 -83.906,-37.5663 -83.906,-83.9066 0,-46.3403 37.566,-83.9065 83.906,-83.9065 46.341,0 83.907,37.5662 83.907,83.9065 z"
       transform="matrix(0.14843129,-0.02187428,0.02187428,0.14843129,2952.9411,-572.10878)" />
    <path
       sodipodi:type="arc"
       style="fill:#ffffff;fill-opacity:1;fill-rule:evenodd;stroke:none;stroke-width:24.68448066999999924;stroke-linecap:round;stroke-linejoin:bevel;stroke-miterlimit:4;stroke-opacity:1;stroke-dasharray:none"
       id="path5579-3-0"
       sodipodi:cx="-19684.475"
       sodipodi:cy="7133.7954"
       sodipodi:rx="83.90654"
       sodipodi:ry="83.90654"
       d="m -19600.568,7133.7954 c 0,46.3403 -37.566,83.9066 -83.907,83.9066 -46.34,0 -83.906,-37.5663 -83.906,-83.9066 0,-46.3403 37.566,-83.9065 83.906,-83.9065 46.341,0 83.907,37.5662 83.907,83.9065 z"
       transform="matrix(0.14843129,-0.02187428,0.02187428,0.14843129,2958.4784,-534.53402)" />
    <path
       sodipodi:type="arc"
       style="fill:#ffffff;fill-opacity:1;fill-rule:evenodd;stroke:none;stroke-width:24.68448066999999924;stroke-linecap:round;stroke-linejoin:bevel;stroke-miterlimit:4;stroke-opacity:1;stroke-dasharray:none"
       id="path5579-3-8-2"
       sodipodi:cx="-19684.475"
       sodipodi:cy="7133.7954"
       sodipodi:rx="83.90654"
       sodipodi:ry="83.90654"
       d="m -19600.568,7133.7954 c 0,46.3403 -37.566,83.9066 -83.907,83.9066 -46.34,0 -83.906,-37.5663 -83.906,-83.9066 0,-46.3403 37.566,-83.9065 83.906,-83.9065 46.341,0 83.907,37.5662 83.907,83.9065 z"
       transform="matrix(0.14843129,-0.02187428,0.02187428,0.14843129,2963.7283,-498.9096)" />
  </g>
</svg>
