<?xml version="1.0" encoding="UTF-8" standalone="no"?>
<!-- Created with Inkscape (http://www.inkscape.org/) -->

<svg
   xmlns:dc="http://purl.org/dc/elements/1.1/"
   xmlns:cc="http://creativecommons.org/ns#"
   xmlns:rdf="http://www.w3.org/1999/02/22-rdf-syntax-ns#"
   xmlns:svg="http://www.w3.org/2000/svg"
   xmlns="http://www.w3.org/2000/svg"
   xmlns:sodipodi="http://sodipodi.sourceforge.net/DTD/sodipodi-0.dtd"
   xmlns:inkscape="http://www.inkscape.org/namespaces/inkscape"
   width="256"
   height="256"
   id="svg5274"
   version="1.1"
   inkscape:version="0.48.3.1 r9886"
   sodipodi:docname="applications-lisp.svg">
  <defs
     id="defs5276" />
  <sodipodi:namedview
     id="base"
     pagecolor="#ffffff"
     bordercolor="#666666"
     borderopacity="1.0"
     inkscape:pageopacity="0.0"
     inkscape:pageshadow="2"
     inkscape:zoom="2.2454419"
     inkscape:cx="182.95559"
     inkscape:cy="97.839636"
     inkscape:document-units="px"
     inkscape:current-layer="layer1"
     showgrid="false"
     inkscape:window-width="1918"
     inkscape:window-height="1007"
     inkscape:window-x="0"
     inkscape:window-y="25"
     inkscape:window-maximized="1" />
  <metadata
     id="metadata5279">
    <rdf:RDF>
      <cc:Work
         rdf:about="">
        <dc:format>image/svg+xml</dc:format>
        <dc:type
           rdf:resource="http://purl.org/dc/dcmitype/StillImage" />
        <dc:title></dc:title>
      </cc:Work>
    </rdf:RDF>
  </metadata>
  <g
     inkscape:label="Capa 1"
     inkscape:groupmode="layer"
     id="layer1"
     transform="translate(0,-796.36218)">
    <rect
       id="rect7046-0-2-9-1-0-8-5"
       ry="55.345139"
       rx="37.429253"
       height="227.04652"
       width="235.80479"
       transform="matrix(-0.00430507,-0.99999073,0.99998792,-0.00491528,0,0)"
       class="fil3 str0"
       x="-1044.552"
       y="9.7224045"
       style="fill:#000000;fill-rule:evenodd;stroke:#000000;stroke-width:6.96241951000000014;stroke-opacity:1" />
    <path
       id="path7050-7-1-0-9-3-8-0"
       d="m 95.674685,807.85777 c 19.636175,-3.25173 107.661385,-1.59297 122.399965,5.76915 13.66575,6.82553 19.50683,20.81754 19.96567,38.53142 l 2.10745,81.29516"
       class="fil2"
       inkscape:connector-curvature="0"
       style="fill:none" />
    <path
       id="path7054-6-7-2-3-9-0-3"
       d="m 13.628444,939.96115 c 0,14.30845 -2.540322,31.25656 -1.400717,45.52566 3.557677,44.55099 20.983828,60.30889 68.729667,57.23059 9.200383,-0.5924 58.908516,1.2999 69.428656,1.2999"
       class="fil2"
       inkscape:connector-curvature="0"
       style="fill:none" />
    <path
       id="path7050-7-1-0-8-5-2-6"
       d="m 95.674685,807.85777 c 19.636175,-3.25173 107.661385,-1.59297 122.399965,5.76915 13.66575,6.82553 19.50683,20.81754 19.96567,38.53142 l 2.10745,81.29516"
       class="fil2"
       inkscape:connector-curvature="0"
       style="fill:none" />
    <path
       inkscape:connector-curvature="0"
       id="path6171"
       style="font-size:633.29187011999999868px;font-style:normal;font-variant:normal;font-weight:normal;font-stretch:normal;line-height:125%;letter-spacing:0px;word-spacing:0px;fill:#ffffff;fill-opacity:1;fill-rule:evenodd;stroke:none;font-family:Visitor TT2 BRK;-inkscape-font-specification:Visitor TT2 BRK"
       d="m 67.72775,909.63243 50.31713,0 0,12.41824 -62.735051,0 0,-62.57425 12.417921,0 0,50.15601" />
    <path
       inkscape:connector-curvature="0"
       id="path6175"
       style="font-size:633.29187011999999868px;font-style:normal;font-variant:normal;font-weight:normal;font-stretch:normal;line-height:125%;letter-spacing:0px;word-spacing:0px;fill:#ffffff;fill-opacity:1;fill-rule:evenodd;stroke:none;font-family:Visitor TT2 BRK;-inkscape-font-specification:Visitor TT2 BRK"
       d="m 58.238353,934.10507 62.735367,0 0,12.41808 -50.317123,0 0,12.57937 50.317123,0 0,37.57664 -62.735367,0 0,-12.41824 50.156007,0 0,-12.57936 -50.156007,0 0,-37.57649" />
    <path
       inkscape:connector-curvature="0"
       id="path6177"
       style="font-size:633.29187011999999868px;font-style:normal;font-variant:normal;font-weight:normal;font-stretch:normal;line-height:125%;letter-spacing:0px;word-spacing:0px;fill:#ffffff;fill-opacity:1;fill-rule:evenodd;stroke:none;font-family:Visitor TT2 BRK;-inkscape-font-specification:Visitor TT2 BRK"
       d="m 183.67603,946.52315 12.57936,0 0,25.15841 -50.156,0 0,24.9976 -12.57921,0 0,-62.57409 50.15585,0 0,12.41808 -37.57664,0 0,12.57937 37.57664,0 0,-12.57937" />
    <path
       inkscape:connector-curvature="0"
       id="path6173"
       style="font-size:633.29187011999999868px;font-style:normal;font-variant:normal;font-weight:normal;font-stretch:normal;line-height:125%;letter-spacing:0px;word-spacing:0px;fill:#ffffff;fill-opacity:1;fill-rule:evenodd;stroke:none;font-family:Visitor TT2 BRK;-inkscape-font-specification:Visitor TT2 BRK"
       d="m 193.32671,859.47642 0,12.41825 -25.15873,0 0,37.73776 25.15873,0 0,12.41824 -62.73537,0 0,-12.41824 24.9976,0 0,-37.73776 -24.9976,0 0,-12.41825 62.73537,0" />
  </g>
</svg>
