<?xml version="1.0" encoding="UTF-8" standalone="no"?>
<!-- Created with Inkscape (http://www.inkscape.org/) -->

<svg
   xmlns:dc="http://purl.org/dc/elements/1.1/"
   xmlns:cc="http://creativecommons.org/ns#"
   xmlns:rdf="http://www.w3.org/1999/02/22-rdf-syntax-ns#"
   xmlns:svg="http://www.w3.org/2000/svg"
   xmlns="http://www.w3.org/2000/svg"
   xmlns:sodipodi="http://sodipodi.sourceforge.net/DTD/sodipodi-0.dtd"
   xmlns:inkscape="http://www.inkscape.org/namespaces/inkscape"
   width="256"
   height="256"
   id="svg2"
   version="1.1"
   inkscape:version="0.48.3.1 r9886"
   sodipodi:docname="applications-roleplaying.svg">
  <defs
     id="defs4" />
  <sodipodi:namedview
     id="base"
     pagecolor="#ffffff"
     bordercolor="#666666"
     borderopacity="1.0"
     inkscape:pageopacity="0.0"
     inkscape:pageshadow="2"
     inkscape:zoom="1.9561853"
     inkscape:cx="69.038334"
     inkscape:cy="92.506827"
     inkscape:document-units="px"
     inkscape:current-layer="layer1"
     showgrid="false"
     inkscape:window-width="1918"
     inkscape:window-height="1007"
     inkscape:window-x="0"
     inkscape:window-y="25"
     inkscape:window-maximized="1" />
  <metadata
     id="metadata7">
    <rdf:RDF>
      <cc:Work
         rdf:about="">
        <dc:format>image/svg+xml</dc:format>
        <dc:type
           rdf:resource="http://purl.org/dc/dcmitype/StillImage" />
        <dc:title />
      </cc:Work>
    </rdf:RDF>
  </metadata>
  <g
     inkscape:label="Capa 1"
     inkscape:groupmode="layer"
     id="layer1"
     transform="translate(0,-796.36218)">
    <path
       sodipodi:type="arc"
       style="fill:none;stroke:#000000;stroke-width:35.52981488;stroke-miterlimit:4;stroke-opacity:1;stroke-dasharray:35.52981488,35.52981488;stroke-dashoffset:0"
       id="path6523"
       sodipodi:cx="-29439.947"
       sodipodi:cy="2343.9565"
       sodipodi:rx="789.30225"
       sodipodi:ry="789.30225"
       d="m -28650.645,2343.9565 c 0,435.9196 -353.383,789.3023 -789.302,789.3023 -435.92,0 -789.303,-353.3827 -789.303,-789.3023 0,-435.9196 353.383,-789.3022 789.303,-789.3022 435.919,0 789.302,353.3826 789.302,789.3022 z"
       transform="matrix(0.12350191,0,0,0.12350191,3761.5075,637.45201)" />
    <path
       style="fill:#000000;fill-opacity:1;fill-rule:nonzero;stroke:#72706f;stroke-width:0.17721318999999999"
       inkscape:connector-curvature="0"
       id="path4782-4-2"
       d="m 147.89693,846.25396 c -8.70039,9.5676 -23.71355,10.97301 -33.5322,3.13837 -9.81239,-7.82984 -10.71898,-21.93801 -2.01875,-31.50558 7.86181,-9.87308 22.86889,-11.27195 33.51776,-3.1339 9.81852,7.83462 10.73125,21.93565 2.03319,31.50111 z"
       class="fil0 str0" />
    <path
       style="fill:none"
       inkscape:connector-curvature="0"
       id="path4788-1-0"
       d="m 129.26859,809.48386 c 5.37105,-1.11913 16.95465,4.9018 20.10971,8.27692 14.61242,15.63297 -8.40735,44.56772 -28.94973,34.553"
       class="fil3" />
    <path
       style="fill:#000000;fill-opacity:1;fill-rule:nonzero;stroke:#72706f;stroke-width:0.17721318999999999"
       inkscape:connector-curvature="0"
       id="path4782-4-2-8"
       d="m 215.23494,877.53094 c -8.70039,9.56761 -23.71365,10.97302 -33.53206,3.13839 -9.81275,-7.82982 -10.7192,-21.93802 -2.01881,-31.50559 7.86173,-9.87308 22.86901,-11.27195 33.51768,-3.13388 9.81842,7.83459 10.73126,21.93563 2.03319,31.50108 z"
       class="fil0 str0" />
    <path
       style="fill:none"
       inkscape:connector-curvature="0"
       id="path4788-1-0-2"
       d="m 196.6064,840.76085 c 5.37145,-1.11916 16.95505,4.9018 20.10982,8.27694 14.6124,15.63296 -8.40736,44.56772 -28.94974,34.55298"
       class="fil3" />
    <path
       style="fill:#000000;fill-opacity:1;fill-rule:nonzero;stroke:#72706f;stroke-width:0.17721318999999999"
       inkscape:connector-curvature="0"
       id="path4782-4-2-8-8"
       d="m 238.02248,942.09584 c -8.7004,9.5676 -23.71365,10.97303 -33.53206,3.13838 -9.81274,-7.8298 -10.7189,-21.93797 -2.01881,-31.50558 7.86172,-9.8731 22.869,-11.27192 33.51768,-3.13386 9.81841,7.83457 10.73125,21.93564 2.03319,31.50106 z"
       class="fil0 str0" />
    <path
       style="fill:none"
       inkscape:connector-curvature="0"
       id="path4788-1-0-2-3"
       d="m 219.39394,905.32574 c 5.37145,-1.11913 16.95505,4.9018 20.10981,8.27694 14.61242,15.63296 -8.40736,44.56775 -28.94973,34.55299"
       class="fil3" />
    <path
       style="fill:#000000;fill-opacity:1;fill-rule:nonzero;stroke:#72706f;stroke-width:0.17721318999999999"
       inkscape:connector-curvature="0"
       id="path4782-4-2-9"
       d="m 149.40374,1035.7783 c -8.69999,9.5675 -23.71335,10.973 -33.53175,3.1383 -9.81254,-7.8298 -10.7192,-21.9379 -2.01882,-31.5056 7.86152,-9.87306 22.86891,-11.27191 33.51768,-3.1338 9.81862,7.8346 10.73135,21.9356 2.03289,31.5011 z"
       class="fil0 str0" />
    <path
       style="fill:none"
       inkscape:connector-curvature="0"
       id="path4788-1-0-7"
       d="m 130.7757,999.00815 c 5.37095,-1.11917 16.95475,4.90185 20.10982,8.27695 14.61241,15.6329 -8.40736,44.5677 -28.94991,34.553"
       class="fil3" />
    <path
       style="fill:#000000;fill-opacity:1;fill-rule:nonzero;stroke:#72706f;stroke-width:0.17721318999999999"
       inkscape:connector-curvature="0"
       id="path4782-4-2-8-8-0"
       d="m 48.125548,938.29791 c -8.70009,9.56762 -23.713361,10.97303 -33.531768,3.13839 -9.812537,-7.82982 -10.719127,-21.93797 -2.018826,-31.5056 7.861387,-9.87306 22.868789,-11.27191 33.517695,-3.13386 9.818477,7.83458 10.73122,21.93565 2.032899,31.50107 z"
       class="fil0 str0" />
    <path
       style="fill:none"
       inkscape:connector-curvature="0"
       id="path4788-1-0-2-3-8"
       d="m 29.497511,901.52781 c 5.370808,-1.11913 16.954592,4.9018 20.109768,8.27693 14.612448,15.63296 -8.407463,44.56775 -28.949948,34.55301"
       class="fil3" />
    <path
       style="fill:#000000;fill-opacity:1;fill-rule:nonzero;stroke:#72706f;stroke-width:0.17721318999999999"
       inkscape:connector-curvature="0"
       id="path4782-4-2-8-9"
       d="m 78.50914,871.20104 c -8.700444,9.56762 -23.713361,10.97302 -33.532192,3.1384 -9.812537,-7.82984 -10.718774,-21.93801 -2.018402,-31.50559 7.861387,-9.87307 22.86893,-11.27195 33.517694,-3.13387 9.818407,7.83458 10.730938,21.93561 2.0329,31.50106 z"
       class="fil0 str0" />
    <path
       style="fill:none"
       inkscape:connector-curvature="0"
       id="path4788-1-0-2-9"
       d="m 59.880891,834.43095 c 5.37102,-1.11913 16.954804,4.9018 20.10998,8.27696 14.61202,15.63295 -8.407746,44.56773 -28.949948,34.55296"
       class="fil3" />
    <path
       style="fill:#000000;fill-opacity:1;fill-rule:nonzero;stroke:#72706f;stroke-width:0.17721318999999999"
       inkscape:connector-curvature="0"
       id="path4782-4-2-8-9-5"
       d="m 78.50914,1007.9267 c -8.700444,9.5676 -23.713361,10.9731 -33.532192,3.1384 -9.812537,-7.8299 -10.718774,-21.93801 -2.018402,-31.50561 7.861387,-9.87305 22.86893,-11.27191 33.517694,-3.13385 9.818407,7.83457 10.730938,21.93566 2.0329,31.50106 z"
       class="fil0 str0" />
    <path
       style="fill:none"
       inkscape:connector-curvature="0"
       id="path4788-1-0-2-9-8"
       d="m 59.880891,971.1566 c 5.37102,-1.11913 16.954804,4.9018 20.10998,8.27695 14.61202,15.63298 -8.407746,44.56775 -28.949948,34.55305"
       class="fil3" />
    <path
       style="fill:#000000;fill-opacity:1;fill-rule:nonzero;stroke:#72706f;stroke-width:0.17721318999999999"
       inkscape:connector-curvature="0"
       id="path4782-4-2-8-9-5-3"
       d="m 215.23494,1001.5968 c -8.70039,9.5676 -23.71365,10.9731 -33.53206,3.1384 -9.81275,-7.82982 -10.7192,-21.93798 -2.01881,-31.50556 7.86173,-9.8731 22.86901,-11.27196 33.51768,-3.1339 9.81842,7.83458 10.73126,21.93562 2.03319,31.50106 z"
       class="fil0 str0" />
    <path
       style="fill:none"
       inkscape:connector-curvature="0"
       id="path4788-1-0-2-9-8-5"
       d="m 196.6064,964.82671 c 5.37145,-1.11913 16.95505,4.90183 20.10982,8.27694 14.6124,15.63301 -8.40736,44.56775 -28.94974,34.55305"
       class="fil3" />
  </g>
</svg>
