<?xml version="1.0" encoding="UTF-8" standalone="no"?>
<!-- Created with Inkscape (http://www.inkscape.org/) -->

<svg
   xmlns:dc="http://purl.org/dc/elements/1.1/"
   xmlns:cc="http://creativecommons.org/ns#"
   xmlns:rdf="http://www.w3.org/1999/02/22-rdf-syntax-ns#"
   xmlns:svg="http://www.w3.org/2000/svg"
   xmlns="http://www.w3.org/2000/svg"
   xmlns:sodipodi="http://sodipodi.sourceforge.net/DTD/sodipodi-0.dtd"
   xmlns:inkscape="http://www.inkscape.org/namespaces/inkscape"
   width="256"
   height="256"
   id="svg5274"
   version="1.1"
   inkscape:version="0.48.3.1 r9886"
   sodipodi:docname="applications-haskell.svg">
  <defs
     id="defs5276" />
  <sodipodi:namedview
     id="base"
     pagecolor="#ffffff"
     bordercolor="#666666"
     borderopacity="1.0"
     inkscape:pageopacity="0.0"
     inkscape:pageshadow="2"
     inkscape:zoom="2.4293139"
     inkscape:cx="100.36173"
     inkscape:cy="99.466376"
     inkscape:document-units="px"
     inkscape:current-layer="layer1"
     showgrid="false"
     inkscape:window-width="1918"
     inkscape:window-height="1007"
     inkscape:window-x="0"
     inkscape:window-y="25"
     inkscape:window-maximized="1" />
  <metadata
     id="metadata5279">
    <rdf:RDF>
      <cc:Work
         rdf:about="">
        <dc:format>image/svg+xml</dc:format>
        <dc:type
           rdf:resource="http://purl.org/dc/dcmitype/StillImage" />
        <dc:title></dc:title>
      </cc:Work>
    </rdf:RDF>
  </metadata>
  <g
     inkscape:label="Capa 1"
     inkscape:groupmode="layer"
     id="layer1"
     transform="translate(0,-796.36218)">
    <rect
       id="rect7046-0-2-9"
       ry="55.896435"
       rx="37.80209"
       height="229.30814"
       width="238.15367"
       transform="matrix(-0.00430507,-0.99999073,0.99998792,-0.00491528,0,0)"
       class="fil3 str0"
       x="-1045.7379"
       y="10.406949"
       style="fill:#000000;fill-rule:evenodd;stroke:none;stroke-width:7.03177260999999998" />
    <path
       id="path7050-7-1-0"
       d="m 97.175497,806.68307 c 19.831773,-3.28412 108.733813,-1.60883 123.619203,5.82662 13.80171,6.89352 19.70113,21.02491 20.16438,38.91523 l 2.12844,82.10496"
       class="fil2"
       inkscape:connector-curvature="0"
       style="fill:none" />
    <path
       id="path7054-6-7-2"
       d="m 14.311988,940.10236 c 0,14.45097 -2.565626,31.56791 -1.41467,45.97914 3.593116,44.9948 21.192687,60.9097 69.414288,57.8006 9.292029,-0.5982 59.495304,1.3129 70.120234,1.3129"
       class="fil2"
       inkscape:connector-curvature="0"
       style="fill:none" />
    <path
       style="font-size:medium;font-style:normal;font-variant:normal;font-weight:normal;font-stretch:normal;text-indent:0;text-align:start;text-decoration:none;line-height:normal;letter-spacing:normal;word-spacing:normal;text-transform:none;direction:ltr;block-progression:tb;writing-mode:lr-tb;text-anchor:start;baseline-shift:baseline;color:#000000;fill:#ffffff;fill-opacity:1;fill-rule:evenodd;stroke:none;stroke-width:4.88659811000000044;stroke-miterlimit:4;stroke-opacity:1;stroke-dasharray:none;marker:none;visibility:visible;display:inline;overflow:visible;enable-background:accumulate;font-family:Sans;-inkscape-font-specification:Sans"
       d="m 76.692507,823.21204 c -6.700178,-0.0109 -11.172881,1.0384 -11.172881,1.0384 l 4.362266,20.64587 c 0,0 11.333324,-2.01064 21.307522,2.24988 -1.241522,-0.48702 1.36385,1.25587 3.384946,4.39793 2.367394,3.6801 5.385683,9.12058 8.69929,15.62185 4.29059,8.41842 9.12116,18.65047 14.17113,29.63005 l -51.273608,115.64448 19.29685,8.5515 43.663868,-98.48025 c 6.95379,15.39473 13.90808,30.78524 20.23866,43.90803 7.32974,15.19455 12.95405,26.68962 19.47,34.07392 9.90579,11.2262 19.99368,16.5936 27.94515,18.7269 7.9518,2.1333 14.82268,0.8144 14.82268,0.8144 l -4.74391,-20.56438 c 0,0 -0.66685,0.42578 -4.60676,-0.63119 -3.93973,-1.05697 -10.09457,-3.81171 -17.59175,-12.3082 -2.18545,-2.47685 -9.16644,-14.51466 -16.28866,-29.27887 -7.12221,-14.76404 -15.25433,-32.91107 -23.30809,-50.71881 -8.05344,-17.80758 -16.01599,-35.25956 -22.99242,-48.94736 -3.48822,-6.84388 -6.71077,-12.73032 -9.75284,-17.45939 -3.04207,-4.72909 -4.43931,-8.44603 -11.09665,-11.60567 -8.907779,-4.22841 -17.834453,-5.29821 -24.534793,-5.30909 z"
       id="path4552"
       inkscape:connector-curvature="0" />
  </g>
</svg>
