<?xml version="1.0" encoding="UTF-8" standalone="no"?>
<!-- Created with Inkscape (http://www.inkscape.org/) -->

<svg
   xmlns:dc="http://purl.org/dc/elements/1.1/"
   xmlns:cc="http://creativecommons.org/ns#"
   xmlns:rdf="http://www.w3.org/1999/02/22-rdf-syntax-ns#"
   xmlns:svg="http://www.w3.org/2000/svg"
   xmlns="http://www.w3.org/2000/svg"
   xmlns:sodipodi="http://sodipodi.sourceforge.net/DTD/sodipodi-0.dtd"
   xmlns:inkscape="http://www.inkscape.org/namespaces/inkscape"
   width="256"
   height="256"
   id="svg5274"
   version="1.1"
   inkscape:version="0.48.3.1 r9886"
   sodipodi:docname="applications-ide.svg">
  <defs
     id="defs5276" />
  <sodipodi:namedview
     id="base"
     pagecolor="#ffffff"
     bordercolor="#666666"
     borderopacity="1.0"
     inkscape:pageopacity="0.0"
     inkscape:pageshadow="2"
     inkscape:zoom="2.8436023"
     inkscape:cx="73.312854"
     inkscape:cy="122.15597"
     inkscape:document-units="px"
     inkscape:current-layer="layer1"
     showgrid="false"
     inkscape:window-width="1918"
     inkscape:window-height="1007"
     inkscape:window-x="0"
     inkscape:window-y="25"
     inkscape:window-maximized="1" />
  <metadata
     id="metadata5279">
    <rdf:RDF>
      <cc:Work
         rdf:about="">
        <dc:format>image/svg+xml</dc:format>
        <dc:type
           rdf:resource="http://purl.org/dc/dcmitype/StillImage" />
        <dc:title></dc:title>
      </cc:Work>
    </rdf:RDF>
  </metadata>
  <g
     inkscape:label="Capa 1"
     inkscape:groupmode="layer"
     id="layer1"
     transform="translate(0,-796.36218)">
    <rect
       id="rect7046-0-2-9-1"
       ry="54.856739"
       rx="37.098949"
       height="225.04291"
       width="233.72391"
       transform="matrix(-0.00430507,-0.99999073,0.99998792,-0.00491528,0,0)"
       class="fil3 str0"
       x="-1042.8566"
       y="13.011858"
       style="fill:#000000;fill-rule:evenodd;stroke:#000000;stroke-width:6.90097808999999973;stroke-opacity:1" />
    <path
       id="path7050-7-1-0-9"
       d="m 98.23791,808.23433 c 19.46288,-3.22302 106.71132,-1.57889 121.31984,5.71825 13.54499,6.76529 19.33469,20.63384 19.78932,38.19141 l 2.08884,80.57775"
       class="fil2"
       inkscape:connector-curvature="0"
       style="fill:none" />
    <path
       id="path7054-6-7-2-3"
       d="m 16.915696,939.17197 c 0,14.18218 -2.517902,30.98072 -1.388356,45.1239 3.526281,44.15793 20.798497,59.77683 68.123153,56.72563 9.119194,-0.5872 58.388667,1.2884 68.815967,1.2884"
       class="fil2"
       inkscape:connector-curvature="0"
       style="fill:none" />
    <path
       id="path7050-7-1-0-8"
       d="m 98.23791,808.23433 c 19.46288,-3.22302 106.71132,-1.57889 121.31984,5.71825 13.54499,6.76529 19.33469,20.63384 19.78932,38.19141 l 2.08884,80.57775"
       class="fil2"
       inkscape:connector-curvature="0"
       style="fill:none" />
    <path
       inkscape:connector-curvature="0"
       d="m 201.87758,875.95818 c -2.09413,-2.55117 -5.2099,-4.82304 -8.28874,-4.961 -6.60129,1.42176 -0.13443,5.25673 -3.00482,8.47017 -2.87039,3.21648 -6.03652,-0.5547 -6.03652,-0.5547 l 0,0 -12.83634,-16.86617 -17.10804,13.02114 c -0.57486,0.36286 -3.99308,2.34942 -5.7475,-1.19334 -1.90917,-3.86519 5.34081,-5.83478 -0.6455,-8.96078 -2.53421,-0.5814 -5.4954,0.30262 -7.97925,1.72102 -0.0336,0 -0.0672,0.0336 -0.13444,0.0671 -0.92093,0.43688 -1.89575,1.0453 -2.83682,1.81836 -2.55116,2.09396 -4.82321,5.20974 -4.95764,8.28857 1.41841,6.6013 5.25337,0.13445 8.47002,3.00483 3.21327,2.8704 -0.55807,6.03652 -0.55807,6.03652 l -16.78208,12.9337 c 0,0 13.01762,16.82254 13.01762,16.82254 0,0 3.16292,3.77453 6.03667,0.5579 2.87039,-3.21313 -3.5931,-7.04489 3.00834,-8.46329 3.07533,0.13442 6.1911,2.40327 8.28187,4.95091 0.77307,0.94109 1.38133,1.91589 1.82156,2.84018 0,0.0336 0.0337,0.0673 0.0671,0.10094 1.432,2.48737 2.3093,5.45177 1.72773,7.98613 -3.12584,5.98616 -5.10215,-1.27054 -8.96413,0.64199 -3.86183,1.909 -1.06879,5.96586 -1.06879,5.96586 l 12.75544,16.77217 17.61575,-13.40766 c 1.27726,-0.59484 3.77454,-1.29069 5.15938,1.50584 1.90901,3.86534 -5.34417,5.8383 0.63846,8.96413 2.53439,0.58157 5.50228,-0.30245 7.98614,-1.72438 0.0336,0 0.0673,-0.0336 0.10063,-0.0671 0.9211,-0.44025 1.89575,-1.04867 2.83698,-1.82173 2.54779,-2.0906 4.8232,-5.20973 4.95763,-8.28522 -1.41841,-6.60128 -5.25353,-0.13443 -8.47001,-3.00482 -3.21327,-2.8704 0.55806,-6.03652 0.55806,-6.03652 L 208.36765,910.2149 194.9499,892.58909 c -0.58475,-1.30058 -1.19302,-3.7138 1.54964,-5.06858 3.86519,-1.91236 5.83478,5.33746 8.96078,-0.6487 0.5814,-2.53101 -0.30261,-5.4922 -1.72101,-7.97925 0,-0.0336 -0.0336,-0.0671 -0.0671,-0.10094 -0.44042,-0.92428 -1.04867,-1.89894 -1.82174,-2.84017 z"
       id="path1452-4"
       sodipodi:nodetypes="cccccccccccccccccccccccccccccccccccccccccc"
       style="fill:#ffffff;fill-opacity:1;fill-rule:evenodd;stroke:#ffffff;stroke-width:2.39785265999999986;stroke-miterlimit:4;stroke-opacity:1;stroke-dasharray:none;display:inline" />
    <path
       inkscape:connector-curvature="0"
       d="m 77.906193,893.74129 c -3.388486,1.04099 -6.921953,3.21967 -8.312715,6.22243 -1.278213,7.14688 5.173294,2.27908 7.20331,6.44351 2.029862,4.16827 -3.014743,5.78025 -3.014743,5.78025 l -22.011638,5.89681 5.981202,22.32912 c 0.12069,0.72368 0.71136,4.93222 -3.529326,5.22956 -4.622581,0.32164 -3.629703,-7.68545 -9.180742,-3.00659 -1.607827,2.28308 -1.949605,5.58331 -1.53958,8.64218 0,0.0402 0,0.0804 0,0.16082 0.04011,1.09758 0.281357,2.31537 0.655252,3.56544 1.044985,3.38865 3.219689,6.92197 6.226431,8.31272 7.142878,1.27822 2.27508,-5.17328 6.439356,-7.20331 4.168417,-2.02986 5.780257,3.01474 5.780257,3.01474 l 6.029645,21.97153 22.879829,-6.12987 c 1.467172,-0.0804 4.437784,0.12052 4.683012,3.60158 0.321464,4.62258 -7.689603,3.62971 -3.010753,9.1769 2.28708,1.61184 5.587157,1.94945 8.64219,1.53942 0.0401,0 0.0804,0 0.16081,0 1.09327,-0.0401 2.31137,-0.28135 3.56545,-0.65509 3.38864,-1.04116 6.9218,-3.21968 8.30872,-6.22243 1.27822,-7.14688 -5.17344,-2.27524 -7.19932,-6.44352 -2.02987,-4.16842 3.01475,-5.78042 3.01475,-5.78042 l 21.86698,-5.92494 -6.15801,-22.99236 c -0.0804,-1.51544 0.24122,-4.28113 3.60141,-4.5182 4.62274,-0.32147 3.62988,7.69775 9.18106,3.01873 1.60784,-2.28706 1.94546,-5.59545 1.53543,-8.65017 0,-0.0402 0,-0.0804 0,-0.12069 -0.0401,-1.09741 -0.28136,-2.3152 -0.6511,-3.56543 -1.04515,-3.38849 -3.21984,-6.92181 -6.22642,-8.30874 -7.14704,-1.2782 -2.27524,5.17329 -6.44367,7.19933 -4.09187,1.99373 -5.69588,-2.78568 -5.75613,-2.95865 0,0 0,-0.12053 0,-0.12053 0,0 0,0.16098 0,0.20096 l -5.93709,-22.16033 -23.004512,6.16633 c -1.53143,0.0401 -4.184418,-0.32164 -4.413656,-3.60973 -0.321464,-4.62275 7.689766,-3.62572 3.006754,-9.17691 -2.283081,-1.612 -5.583158,-1.94962 -8.64218,-1.53958 -0.04011,0 -0.08043,0 -0.160818,0 -1.097417,0.0402 -2.315209,0.28135 -3.565445,0.65525 z"
       id="path1532-8"
       sodipodi:nodetypes="ccccccccccccccccccccccccccccccccccccccccccc"
       style="fill:#ffffff;fill-opacity:1;fill-rule:evenodd;stroke:#ffffff;stroke-width:2.39785265999999986;stroke-miterlimit:4;stroke-opacity:1;stroke-dasharray:none;display:inline" />
  </g>
</svg>
