<?xml version="1.0" encoding="UTF-8" standalone="no"?>
<!-- Created with Inkscape (http://www.inkscape.org/) -->

<svg
   xmlns:dc="http://purl.org/dc/elements/1.1/"
   xmlns:cc="http://creativecommons.org/ns#"
   xmlns:rdf="http://www.w3.org/1999/02/22-rdf-syntax-ns#"
   xmlns:svg="http://www.w3.org/2000/svg"
   xmlns="http://www.w3.org/2000/svg"
   xmlns:sodipodi="http://sodipodi.sourceforge.net/DTD/sodipodi-0.dtd"
   xmlns:inkscape="http://www.inkscape.org/namespaces/inkscape"
   width="48"
   height="48"
   id="svg2"
   version="1.1"
   inkscape:version="0.48.5 r10040"
   sodipodi:docname="applications-puzzles.svg">
  <defs
     id="defs4" />
  <sodipodi:namedview
     id="base"
     pagecolor="#ffffff"
     bordercolor="#666666"
     borderopacity="1.0"
     inkscape:pageopacity="0.0"
     inkscape:pageshadow="2"
     inkscape:zoom="2.7691829"
     inkscape:cx="95.262872"
     inkscape:cy="122.03893"
     inkscape:document-units="px"
     inkscape:current-layer="layer1"
     showgrid="false"
     inkscape:window-width="1914"
     inkscape:window-height="1031"
     inkscape:window-x="0"
     inkscape:window-y="25"
     inkscape:window-maximized="1" />
  <metadata
     id="metadata7">
    <rdf:RDF>
      <cc:Work
         rdf:about="">
        <dc:format>image/svg+xml</dc:format>
        <dc:type
           rdf:resource="http://purl.org/dc/dcmitype/StillImage" />
        <dc:title />
      </cc:Work>
    </rdf:RDF>
  </metadata>
  <g
     inkscape:label="Capa 1"
     inkscape:groupmode="layer"
     id="layer1"
     transform="translate(0,-1004.3622)">
    <g
       id="g3018"
       transform="matrix(0.18007694,0,0,0.18007694,1.2474354,864.15024)">
      <path
         style="fill:#ffffff;fill-opacity:1;fill-rule:evenodd;stroke:none;display:inline"
         sodipodi:nodetypes="cccccccccccccccc"
         id="path1452-2"
         d="m 210.48646,845.41045 -6.64365,-7.97239 -15.80602,-20.00743 -23.48358,17.21347 c -6.1622,-26.14782 -59.47773,6.65155 -32.51,23.33041 l -24.52192,17.95688 21.4148,26.24815 c 0,0 17.08088,9.10265 21.73516,3.89314 0.0909,-26.33689 25.2582,9.38081 3.64473,4.74363 -6.25457,3.09185 -8.7068,15.30925 -8.7068,15.30925 l 22.65107,29.48837 28.52932,-21.71415 c -0.15916,35.35281 53.51257,-15.44182 25.95056,-16.95651 l 27.32082,-20.83765 -22.39485,-27.21691 c 34.241,0.0789 -13.0031,-57.51876 -17.17964,-23.47826 z"
         inkscape:connector-curvature="0" />
      <path
         style="fill:#000000;fill-opacity:1;fill-rule:evenodd;stroke:none;display:inline"
         sodipodi:nodetypes="cccccccccccccccccccccccccccccccccccccccccc"
         id="path1452"
         d="m 228.90116,847.57888 c -2.86712,-3.49313 -7.13337,-6.60413 -11.34897,-6.79281 -9.03861,1.94665 -0.18404,7.19775 -4.11435,11.59748 -3.93015,4.40418 -8.26541,-0.75941 -8.26541,-0.75941 l 0,0 -17.57575,-23.0937 -23.42494,17.82888 c -0.787,0.49693 -5.46738,3.21686 -7.86971,-1.63376 -2.61407,-5.29251 7.31279,-7.98939 -0.88362,-12.26944 -3.47008,-0.79617 -7.5246,0.41421 -10.92558,2.35631 -0.046,0 -0.092,0.046 -0.18413,0.0921 -1.26096,0.59825 -2.59556,1.43129 -3.88412,2.48977 -3.49313,2.86712 -6.60413,7.13329 -6.78825,11.34897 1.9421,9.03868 7.1932,0.18404 11.59746,4.11427 4.39965,3.93023 -0.76394,8.26549 -0.76394,8.26549 l -22.97867,17.70913 c 0,0 17.82418,23.03388 17.82418,23.03388 0,0 4.33063,5.16821 8.26557,0.76386 3.93022,-4.39956 -4.91979,-9.64603 4.1189,-11.58822 4.21096,0.18413 8.47714,3.29059 11.33971,6.77908 1.05857,1.28857 1.89152,2.62324 2.4944,3.88875 0,0.046 0.046,0.0921 0.092,0.13809 1.96053,3.40562 3.16173,7.46477 2.36555,10.93477 -4.27998,8.1964 -6.9861,-1.73963 -12.27398,0.87906 -5.28789,2.61399 -1.46344,8.16881 -1.46344,8.16881 l 17.46518,22.96485 24.11996,-18.35811 c 1.74879,-0.81461 5.16821,-1.76723 7.06436,2.06177 2.61398,5.2925 -7.3175,7.994 0.87436,12.27405 3.47008,0.7961 7.53377,-0.41428 10.93476,-2.36101 0.046,0 0.0921,-0.046 0.13801,-0.092 1.26104,-0.60287 2.59564,-1.43591 3.88428,-2.49439 3.48843,-2.8625 6.60413,-7.1333 6.78818,-11.34434 -1.9421,-9.0387 -7.19321,-0.18413 -11.5974,-4.11436 -4.39971,-3.93023 0.76395,-8.26549 0.76395,-8.26549 l 23.09825,-17.61707 -18.37192,-24.13376 c -0.80072,-1.78104 -1.63376,-5.08533 2.1216,-6.94008 5.29251,-2.6186 7.98938,7.30825 12.26951,-0.88824 0.79603,-3.46544 -0.41428,-7.51996 -2.35637,-10.9255 0,-0.046 -0.046,-0.0921 -0.0921,-0.13809 -0.60287,-1.26559 -1.43583,-2.60018 -2.49439,-3.88883 z"
         inkscape:connector-curvature="0" />
      <path
         style="fill:#ffffff;fill-opacity:1;fill-rule:evenodd;stroke:none;display:inline"
         sodipodi:nodetypes="cccccccccccccccccc"
         id="path1532-1"
         d="m 55.050528,861.78547 c -17.86819,6.58524 -17.301834,21.16473 -10.00106,30.53874 l -32.326909,8.88577 9.686885,32.84121 C 13.456603,927.81594 2.3558368,933.45629 6.3073415,955.96603 6.9105989,968.45887 24.286124,980.9076 30.26701,967.68351 l 10.429314,32.92629 33.012665,-8.74548 c -2.749432,30.08258 54.204531,12.87258 35.886401,-6.87591 l 32.32446,-9.98819 -10.63765,-32.58661 c 40.06501,3.34286 12.11321,-59.00912 -8.01883,-35.49835 l -9.96865,-35.2358 -25.962459,7.66106 c -0.33972,-14.5212 -13.844879,-20.09036 -26.240442,-18.55107 -0.06512,0 -0.130237,0 -0.260425,0 -1.777243,0.065 -3.749744,0.45568 -5.774369,1.06114 z"
         inkscape:connector-curvature="0" />
      <path
         style="fill:#000000;fill-opacity:1;fill-rule:evenodd;stroke:none;display:inline"
         sodipodi:nodetypes="ccccccccccccccccccccccccccccccccccccccccccc"
         id="path1532"
         d="m 59.15617,871.92767 c -4.639722,1.4255 -9.477607,4.40857 -11.381941,8.51996 -1.7502,9.7858 7.083445,3.12065 9.862901,8.82263 2.779414,5.70751 -4.127883,7.91453 -4.127883,7.91453 l -30.139034,8.07413 8.189726,30.57381 c 0.16512,0.99072 0.97416,6.75324 -4.83239,7.16051 -6.329418,0.44031 -4.969964,-10.52334 -12.570741,-4.11686 -2.201535,3.12617 -2.669389,7.64481 -2.107988,11.83323 0,0.055 0,0.11008 0,0.22018 0.05505,1.50252 0.385253,3.17021 0.897134,4.88187 1.430987,4.63976 4.408563,9.47765 8.525418,11.38194 9.78034,1.75024 3.115189,-7.08345 8.817166,-9.86286 5.70747,-2.77945 7.914539,4.12788 7.914539,4.12788 l 8.255724,30.08402 31.327874,-8.39342 c 2.008908,-0.11006 6.076244,0.16512 6.411978,4.93148 0.440307,6.32938 -10.528874,4.96999 -4.122389,12.5652 3.131668,2.2071 7.650338,2.6694 11.833233,2.108 0.05505,0 0.110108,0 0.220174,0 1.497027,-0.055 3.164709,-0.3853 4.88191,-0.8971 4.639729,-1.4255 9.477599,-4.40856 11.376409,-8.51994 1.75024,-9.78582 -7.0834,-3.11516 -9.857368,-8.82265 -2.779415,-5.70751 4.127878,-7.91454 4.127878,-7.91454 l 29.94088,-8.11266 -8.43188,-31.48196 c -0.11006,-2.07495 0.33025,-5.86157 4.93143,-6.18631 6.32943,-0.44031 4.96997,10.53985 12.57078,4.13337 2.20154,-3.13166 2.66386,-7.66132 2.10246,-11.84425 0,-0.055 0,-0.11008 0,-0.16509 -0.055,-1.50255 -0.38525,-3.17024 -0.8916,-4.88191 -1.43103,-4.63976 -4.40861,-9.4776 -8.52546,-11.37644 -9.78583,-1.75021 -3.11519,7.08344 -8.82266,9.85736 -5.60289,2.7299 -7.79893,-3.81416 -7.88149,-4.05081 0,0 0,-0.16513 0,-0.16513 0,0 0,0.22017 0,0.27519 l -8.12918,-30.34264 -31.498451,8.44289 c -2.096961,0.055 -5.729484,-0.44031 -6.043204,-4.94245 -0.440307,-6.32942 10.528833,-4.96447 4.116855,-12.56525 -3.126174,-2.20707 -7.644845,-2.66938 -11.833233,-2.10799 -0.05505,0 -0.110108,0 -0.220175,0 -1.50256,0.055 -3.170201,0.38526 -4.881909,0.89714 z"
         inkscape:connector-curvature="0" />
    </g>
  </g>
</svg>
