<?xml version="1.0" encoding="UTF-8" standalone="no"?>
<!-- Created with Inkscape (http://www.inkscape.org/) -->

<svg
   xmlns:dc="http://purl.org/dc/elements/1.1/"
   xmlns:cc="http://creativecommons.org/ns#"
   xmlns:rdf="http://www.w3.org/1999/02/22-rdf-syntax-ns#"
   xmlns:svg="http://www.w3.org/2000/svg"
   xmlns="http://www.w3.org/2000/svg"
   xmlns:sodipodi="http://sodipodi.sourceforge.net/DTD/sodipodi-0.dtd"
   xmlns:inkscape="http://www.inkscape.org/namespaces/inkscape"
   width="48"
   height="48"
   id="svg5274"
   version="1.1"
   inkscape:version="0.48.5 r10040"
   sodipodi:docname="applications-java.svg">
  <defs
     id="defs5276" />
  <sodipodi:namedview
     id="base"
     pagecolor="#ffffff"
     bordercolor="#666666"
     borderopacity="1.0"
     inkscape:pageopacity="0.0"
     inkscape:pageshadow="2"
     inkscape:zoom="8.1115693"
     inkscape:cx="48.058812"
     inkscape:cy="15.389075"
     inkscape:document-units="px"
     inkscape:current-layer="layer1"
     showgrid="false"
     inkscape:window-width="1914"
     inkscape:window-height="1031"
     inkscape:window-x="0"
     inkscape:window-y="25"
     inkscape:window-maximized="1" />
  <metadata
     id="metadata5279">
    <rdf:RDF>
      <cc:Work
         rdf:about="">
        <dc:format>image/svg+xml</dc:format>
        <dc:type
           rdf:resource="http://purl.org/dc/dcmitype/StillImage" />
        <dc:title />
      </cc:Work>
    </rdf:RDF>
  </metadata>
  <g
     inkscape:label="Capa 1"
     inkscape:groupmode="layer"
     id="layer1"
     transform="translate(0,-1004.3622)">
    <rect
       id="rect7046-0-2-9-5-1-9-0"
       ry="11.126438"
       rx="7.5246768"
       height="45.644825"
       width="47.405563"
       transform="matrix(-0.00430507,-0.99999073,0.99998792,-0.00491528,0,0)"
       class="fil3 str0"
       x="-1052.255"
       y="-3.1125567"
       style="fill:#ffffff;fill-rule:evenodd;stroke:none" />
    <rect
       id="rect7046-0-2-9-5-1-9"
       ry="9.2213545"
       rx="6.2362914"
       height="37.829456"
       width="39.288719"
       transform="matrix(-0.00430507,-0.99999073,0.99998792,-0.00491528,0,0)"
       class="fil3 str0"
       x="-1047.7974"
       y="0.4633269"
       style="fill:#000000;fill-rule:evenodd;stroke:#000000;stroke-width:1.16005027;stroke-miterlimit:4;stroke-opacity:1;stroke-dasharray:none" />
    <path
       style="fill:#ffffff;fill-opacity:1;fill-rule:evenodd;stroke:#ffffff;stroke-width:0.40307626;stroke-miterlimit:4;stroke-opacity:1;stroke-dasharray:none;display:inline"
       id="path3672"
       inkscape:connector-curvature="0"
       d="m 26.131291,1013.6596 c 1.20157,4.7334 -4.241947,6.1728 -6.205171,9.1208 -1.337003,2.0088 0.656396,4.1605 3.373909,6.6119 -1.059848,-2.3954 -4.654966,-4.4949 0,-8.1713 5.804622,-4.5821 2.831262,-7.5614 2.831262,-7.5614 z m 3.577086,5.8657 c 0,0 -9.807651,2.4477 -5.119926,7.8497 1.383786,1.5928 -0.355972,3.0179 -0.355972,3.0179 0,0 3.511224,-1.7983 1.898812,-4.0689 -1.506375,-2.1168 -2.675917,-3.1722 3.577086,-6.7987 z m 1.593657,9.6468 c -0.300426,0.015 -0.610393,0.073 -0.932477,0.1863 -0.301152,0.1068 -0.4576,0.356 -0.4576,0.356 0,0 0.185552,-0.081 0.610367,-0.1693 1.736102,-0.3619 4.226845,2.325 -1.152986,5.1199 -0.02575,0.067 -0.101576,0.1528 -0.101576,0.1528 6.509949,-1.7115 4.940265,-5.7948 2.034272,-5.6457 z m -11.630281,0.2714 c -0.685821,0.018 -2.304469,0.1652 -4.170523,1.0679 -2.943182,1.4232 7.287082,2.07 12.579688,0.6781 0.550333,-0.3755 1.305375,-0.695 1.305375,-0.695 0,0 -2.166105,0.3784 -4.323315,0.5595 -2.639827,0.2212 -5.461549,0.275 -6.882876,0.085 -3.365822,-0.4499 1.847997,-1.6952 1.847997,-1.6952 0,0 -0.127748,-0.01 -0.356346,0 z m -0.864383,3.2549 c -4.855216,1.6113 2.707947,3.4427 9.494031,1.4579 -0.721158,-0.2541 -1.186846,-0.7121 -1.186846,-0.7121 -3.317962,0.6388 -5.235504,0.6067 -7.662963,0.356 -1.876696,-0.194 -0.644222,-1.1018 -0.644222,-1.1018 z m 0.678081,3.1365 c -4.408659,1.2317 2.693974,3.7781 8.307186,1.3731 -0.919203,-0.3571 -1.5767,-0.7628 -1.5767,-0.7628 -2.503237,0.4731 -3.678312,0.5136 -5.950776,0.2544 -1.875217,-0.2153 -0.77971,-0.8647 -0.77971,-0.8647 z m -2.848164,2.0851 c -1.894782,-0.073 -6.181228,1.8115 -2.509177,2.4075 11.44398,1.855 20.85409,-0.8308 17.886215,-2.1701 0,0 0.804754,0.67 -0.898592,1.1868 -3.239524,0.9811 -13.480833,1.2719 -16.326443,0.033 -1.022309,-0.445 0.888271,-1.0565 1.491972,-1.1868 0.629149,-0.1358 1.000222,-0.1016 1.000222,-0.1016 -0.142098,-0.1002 -0.373652,-0.159 -0.644197,-0.1697 z m 17.190799,1.6956 c 0,0 -0.365885,0.9265 -4.272097,1.6613 -4.407236,0.8298 -9.831246,0.7355 -13.054566,0.2036 0,0 0.658977,0.5444 4.051992,0.7627 5.162977,0.3303 13.086945,-0.1847 13.274671,-2.6276 z" />
  </g>
</svg>
