<?xml version="1.0" encoding="UTF-8" standalone="no"?>
<!-- Created with Inkscape (http://www.inkscape.org/) -->

<svg
   xmlns:dc="http://purl.org/dc/elements/1.1/"
   xmlns:cc="http://creativecommons.org/ns#"
   xmlns:rdf="http://www.w3.org/1999/02/22-rdf-syntax-ns#"
   xmlns:svg="http://www.w3.org/2000/svg"
   xmlns="http://www.w3.org/2000/svg"
   xmlns:sodipodi="http://sodipodi.sourceforge.net/DTD/sodipodi-0.dtd"
   xmlns:inkscape="http://www.inkscape.org/namespaces/inkscape"
   width="256"
   height="256"
   id="svg4631"
   version="1.1"
   inkscape:version="0.48.3.1 r9886"
   sodipodi:docname="applications-biology.svg">
  <defs
     id="defs4633" />
  <sodipodi:namedview
     id="base"
     pagecolor="#ffffff"
     bordercolor="#666666"
     borderopacity="1.0"
     inkscape:pageopacity="0.0"
     inkscape:pageshadow="2"
     inkscape:zoom="1.9267419"
     inkscape:cx="40.437108"
     inkscape:cy="117.76048"
     inkscape:document-units="px"
     inkscape:current-layer="layer1"
     showgrid="false"
     inkscape:window-width="1438"
     inkscape:window-height="827"
     inkscape:window-x="0"
     inkscape:window-y="25"
     inkscape:window-maximized="1" />
  <metadata
     id="metadata4636">
    <rdf:RDF>
      <cc:Work
         rdf:about="">
        <dc:format>image/svg+xml</dc:format>
        <dc:type
           rdf:resource="http://purl.org/dc/dcmitype/StillImage" />
        <dc:title></dc:title>
      </cc:Work>
    </rdf:RDF>
  </metadata>
  <g
     inkscape:label="Capa 1"
     inkscape:groupmode="layer"
     id="layer1"
     transform="translate(0,-796.36218)">
    <rect
       style="fill:#000000;fill-opacity:1;fill-rule:evenodd;stroke:none"
       id="rect11194-2-1-1-8-0-7"
       ry="3.5154467"
       rx="4.5440903"
       height="7.0308933"
       width="44.534634"
       y="878.96552"
       x="64.78035"
       class="fil0 str0"
       transform="matrix(0.9110879,0.41221212,0.00775526,0.99996993,0,0)" />
    <path
       style="fill:#000000;stroke:none"
       inkscape:connector-curvature="0"
       id="path11198-8-2-3-6-9-5"
       d="m 68.219572,906.65639 c -3.227294,-0.97708 -2.463393,2.24609 -1.90093,3.97142 0.977097,2.99966 9.540372,6.57135 12.555743,7.93562 6.031263,2.72878 12.663203,5.72933 18.695721,8.61951"
       class="fil2" />
    <path
       style="fill:#000000;fill-rule:nonzero;stroke:none"
       inkscape:connector-curvature="0"
       id="path4782-5-0-7-7-8-2"
       d="m 73.201778,902.13632 c 0,11.69254 -10.455019,21.17208 -23.351579,21.17208 -12.888814,0 -23.343883,-9.47954 -23.343883,-21.17208 -0.849738,-11.43506 9.605281,-20.90652 23.343883,-21.1608 12.89656,0 23.351579,9.47082 23.351579,21.1608 z"
       class="fil0 str0" />
    <path
       style="fill:#000000;stroke:none"
       inkscape:connector-curvature="0"
       id="path4788-3-1-7-5-3-3"
       d="m 33.571143,886.62212 c 3.313774,-3.8279 16.298656,-6.10991 21.036249,-5.50246 21.9434,2.81388 24.448812,36.31493 1.880501,40.83104"
       class="fil3" />
    <rect
       style="fill:#000000;fill-opacity:1;fill-rule:evenodd;stroke:none;stroke-width:1.24292611999999991"
       id="rect11194-2-1-4"
       ry="5.1476598"
       rx="6.3401241"
       height="10.29532"
       width="62.136776"
       y="-137.52589"
       x="850.39459"
       class="fil0 str0"
       transform="matrix(0,1,-1,0,0,0)" />
    <path
       style="fill:#000000;stroke:none"
       inkscape:connector-curvature="0"
       id="path11198-8-2-6"
       d="m 137.61966,854.04372 c -0.70988,-4.94806 -4.93843,-3.81251 -7.09984,-2.96868 -3.75837,1.46585 -3.31358,14.58331 -3.31358,19.20107 0,9.23632 0,19.39252 -0.23634,28.62884"
       class="fil2" />
    <path
       style="fill:#000000;fill-rule:nonzero;stroke:none;stroke-width:0.22917715999999999"
       inkscape:connector-curvature="0"
       id="path4782-5-0-7-4"
       d="m 161.68772,827.25321 c 0,15.67785 -14.01854,28.38842 -31.31079,28.38842 -17.28187,0 -31.300491,-12.71057 -31.300491,-28.38842 -1.139369,-15.33262 12.879171,-28.03236 31.300491,-28.37331 17.29225,0 31.31079,12.69888 31.31079,28.37331 z"
       class="fil0 str0" />
    <path
       style="fill:#000000;stroke:none"
       inkscape:connector-curvature="0"
       id="path4788-3-1-7-0"
       d="m 108.54928,806.4511 c 4.44323,-5.13262 21.85392,-8.19243 28.20629,-7.37793 29.42265,3.77296 32.78201,48.69261 2.52148,54.74801"
       class="fil3" />
    <rect
       style="fill:#000000;fill-opacity:1;fill-rule:evenodd;stroke:none;stroke-width:1.38389563999999998"
       id="rect11194-2-1-1-4"
       ry="4.9656281"
       rx="8.1479712"
       height="9.9312563"
       width="79.854698"
       y="494.17905"
       x="871.94495"
       class="fil0 str0"
       transform="matrix(0.64113981,0.76742409,-0.82908497,0.55912263,0,0)" />
    <path
       style="fill:#000000;stroke:none"
       inkscape:connector-curvature="0"
       id="path11198-8-2-3-2"
       d="m 152.40395,949.00665 c -4.64473,-4.49715 -7.09094,-1.09655 -8.12428,0.90144 -1.79802,3.47277 9.36593,16.16998 13.17076,20.72425 7.61033,9.10932 15.9786,19.12587 23.39991,28.36267"
       class="fil2" />
    <rect
       style="fill:#000000;fill-opacity:1;fill-rule:evenodd;stroke:none;stroke-width:1.38404846000000004"
       id="rect11194-2-1-1-8-6"
       ry="4.944694"
       rx="8.1842737"
       height="9.8893881"
       width="80.210472"
       y="729.3269"
       x="-774.64215"
       class="fil0 str0"
       transform="matrix(0.67330224,-0.73936736,0.8057295,0.59228369,0,0)" />
    <path
       style="fill:#000000;stroke:none"
       inkscape:connector-curvature="0"
       id="path11198-8-2-3-6-1"
       d="m 69.170984,1001.1774 c -3.751161,5.1264 0.508526,6.4484 2.914782,6.8727 4.182865,0.7392 15.2396,-12.03352 19.253104,-16.44084 8.027702,-8.81538 16.85491,-18.50873 25.06554,-27.18966"
       class="fil2" />
    <path
       style="fill:#000000;fill-rule:nonzero;stroke:none;stroke-width:0.22917715999999999"
       inkscape:connector-curvature="0"
       id="path4782-5-0-7-7-5"
       d="m 28.510667,1037.7971 c -10.499028,-12.5226 -7.813704,-30.2531 5.998409,-39.60084 13.803797,-9.34209 33.513018,-6.76764 44.012046,5.75494 11.177905,11.631 8.485328,29.3528 -6.000268,39.5832 -13.812113,9.3477 -33.513443,6.7826 -44.010187,-5.7373 z"
       class="fil0 str0" />
    <path
       style="fill:#000000;stroke:none"
       inkscape:connector-curvature="0"
       id="path4788-3-1-7-5-2"
       d="m 84.885337,1025.6876 c -0.111822,6.5015 -11.969453,18.3572 -17.588825,21.1406 -26.027846,12.8914 -58.7925934,-21.172 -38.677264,-42.3667"
       class="fil3" />
    <path
       style="fill:#000000;fill-rule:nonzero;stroke:none;stroke-width:0.22917715999999999"
       inkscape:connector-curvature="0"
       id="path4782-5-0-5"
       d="m 238.87223,1022.282 c 0,15.6778 -14.01854,28.3884 -31.31079,28.3884 -17.28187,0 -31.30049,-12.7106 -31.30049,-28.3884 -1.13937,-15.3327 12.87918,-28.03239 31.30049,-28.37335 17.29225,0 31.31079,12.69885 31.31079,28.37335 z"
       class="fil0 str0" />
    <path
       style="fill:#000000;stroke:none"
       inkscape:connector-curvature="0"
       id="path4788-3-1-77"
       d="m 185.73379,1001.4799 c 4.44323,-5.13266 21.85392,-8.19248 28.20629,-7.37797 29.42265,3.77296 32.78202,48.69257 2.52148,54.74797"
       class="fil3" />
    <path
       style="fill:#000000;fill-rule:nonzero;stroke:none;stroke-width:0.22917715999999999"
       inkscape:connector-curvature="0"
       id="path4782-5-0-7-4-8"
       d="m 163.85614,935.69788 c 0,15.67785 -14.01854,28.38842 -31.31079,28.38842 -17.28187,0 -31.30049,-12.71057 -31.30049,-28.38842 -1.13937,-15.33262 12.87917,-28.03236 31.30049,-28.37331 17.29225,0 31.31079,12.69888 31.31079,28.37331 z"
       class="fil0 str0" />
    <path
       style="fill:#000000;stroke:none"
       inkscape:connector-curvature="0"
       id="path4788-3-1-7-0-4"
       d="m 110.7177,914.89577 c 4.44323,-5.13262 21.85392,-8.19243 28.20629,-7.37793 29.42265,3.77296 32.78201,48.69261 2.52148,54.74801"
       class="fil3" />
  </g>
</svg>
