<?xml version="1.0" encoding="UTF-8" standalone="no"?>
<!-- Created with Inkscape (http://www.inkscape.org/) -->

<svg
   xmlns:dc="http://purl.org/dc/elements/1.1/"
   xmlns:cc="http://creativecommons.org/ns#"
   xmlns:rdf="http://www.w3.org/1999/02/22-rdf-syntax-ns#"
   xmlns:svg="http://www.w3.org/2000/svg"
   xmlns="http://www.w3.org/2000/svg"
   xmlns:sodipodi="http://sodipodi.sourceforge.net/DTD/sodipodi-0.dtd"
   xmlns:inkscape="http://www.inkscape.org/namespaces/inkscape"
   width="256"
   height="256"
   id="svg4631"
   version="1.1"
   inkscape:version="0.48.3.1 r9886"
   sodipodi:docname="applications-chemistry.svg">
  <defs
     id="defs4633" />
  <sodipodi:namedview
     id="base"
     pagecolor="#ffffff"
     bordercolor="#666666"
     borderopacity="1.0"
     inkscape:pageopacity="0.0"
     inkscape:pageshadow="2"
     inkscape:zoom="1.9783624"
     inkscape:cx="43.181921"
     inkscape:cy="128.59477"
     inkscape:document-units="px"
     inkscape:current-layer="layer1"
     showgrid="false"
     inkscape:window-width="1438"
     inkscape:window-height="827"
     inkscape:window-x="0"
     inkscape:window-y="25"
     inkscape:window-maximized="1"
     showguides="true"
     inkscape:guide-bbox="true" />
  <metadata
     id="metadata4636">
    <rdf:RDF>
      <cc:Work
         rdf:about="">
        <dc:format>image/svg+xml</dc:format>
        <dc:type
           rdf:resource="http://purl.org/dc/dcmitype/StillImage" />
        <dc:title />
      </cc:Work>
    </rdf:RDF>
  </metadata>
  <g
     inkscape:label="Capa 1"
     inkscape:groupmode="layer"
     id="layer1"
     transform="translate(0,-796.36218)">
    <path
       style="fill:#ffffff;fill-opacity:1;fill-rule:evenodd;stroke:#000000;stroke-width:3.701;stroke-linecap:butt;stroke-linejoin:miter;stroke-miterlimit:4;stroke-opacity:1;stroke-dasharray:none"
       d="m 90.421142,801.29613 63.788948,-0.5499 c 1.53908,8.74807 -1.60439,16.016 -8.24857,17.59695 l 0,118.2295 c 0,0 26.30699,44.81407 47.05941,74.06912 3.743,5.2765 5.02904,6.2369 6.83126,11.1661 1.89478,5.1824 3.73112,11.3574 2.81461,15.8483 -0.9165,4.4909 -8.31366,11.097 -8.31366,11.097 l -144.07505,0 c 0,0 -5.454121,-5.4652 -6.256511,-8.7477 -1.213921,-4.966 -1.307378,-10.8846 0.20756,-15.998 1.865227,-6.2958 10.515144,-16.6577 10.515144,-16.6577 l 45.025238,-71.32699 -2.19961,-118.77944 c -7.103922,-1.57592 -8.242665,-7.17213 -7.148769,-15.94724 z"
       id="path9596"
       inkscape:connector-curvature="0"
       sodipodi:nodetypes="ccccsszccsscccc" />
    <path
       style="fill:#000000;fill-opacity:1;fill-rule:evenodd;stroke:#000000;stroke-width:1.85417330000000002;stroke-linecap:butt;stroke-linejoin:miter;stroke-miterlimit:4;stroke-opacity:1;stroke-dasharray:none"
       d="m 140.2864,878.75633 1.42078,60.82644 c 0,0 26.71815,42.12754 45.67474,69.62863 3.4191,4.9604 4.59384,5.8631 6.24012,10.4968 1.73081,4.8719 3.40824,10.6765 2.57103,14.8982 -0.83718,4.2217 -7.59422,10.4319 -7.59422,10.4319 l -131.607379,0 c 0,0 -4.982147,-5.1376 -5.715095,-8.2233 -1.108873,-4.6684 -1.194241,-10.2322 0.189601,-15.039 1.703821,-5.9184 9.6052,-15.6591 9.6052,-15.6591 l 43.279073,-67.05105 -1.08489,-60.29048 z"
       id="path9596-8"
       inkscape:connector-curvature="0"
       sodipodi:nodetypes="ccsszccsscccc" />
    <path
       sodipodi:type="arc"
       style="fill:#ffffff;fill-opacity:1;fill-rule:evenodd;stroke:#000000;stroke-width:48.47368201;stroke-miterlimit:4;stroke-opacity:1;stroke-dasharray:none"
       id="path9631"
       sodipodi:cx="169.77667"
       sodipodi:cy="6538.5029"
       sodipodi:rx="134.03421"
       sodipodi:ry="134.03421"
       d="m 303.81088,6538.5029 c 0,74.0251 -60.00916,134.0342 -134.03421,134.0342 -74.025048,0 -134.034208,-60.0091 -134.034208,-134.0342 0,-74.025 60.00916,-134.0342 134.034208,-134.0342 74.02505,0 134.03421,60.0092 134.03421,134.0342 z"
       transform="matrix(0.0597025,0,0,0.0597025,117.49365,489.21922)" />
    <path
       sodipodi:type="arc"
       style="fill:#ffffff;fill-opacity:1;fill-rule:evenodd;stroke:#000000;stroke-width:20;stroke-miterlimit:4;stroke-opacity:1;stroke-dasharray:none"
       id="path9631-1"
       sodipodi:cx="169.77667"
       sodipodi:cy="6538.5029"
       sodipodi:rx="134.03421"
       sodipodi:ry="134.03421"
       d="m 303.81088,6538.5029 c 0,74.0251 -60.00916,134.0342 -134.03421,134.0342 -74.025048,0 -134.034208,-60.0091 -134.034208,-134.0342 0,-74.025 60.00916,-134.0342 134.034208,-134.0342 74.02505,0 134.03421,60.0092 134.03421,134.0342 z"
       transform="matrix(0.0597025,0,0,0.0597025,106.31901,507.54563)" />
    <path
       sodipodi:type="arc"
       style="fill:#ffffff;fill-opacity:1;fill-rule:evenodd;stroke:#000000;stroke-width:20;stroke-miterlimit:4;stroke-opacity:1;stroke-dasharray:none"
       id="path9631-1-7"
       sodipodi:cx="169.77667"
       sodipodi:cy="6538.5029"
       sodipodi:rx="134.03421"
       sodipodi:ry="134.03421"
       d="m 303.81088,6538.5029 c 0,74.0251 -60.00916,134.0342 -134.03421,134.0342 -74.025048,0 -134.034208,-60.0091 -134.034208,-134.0342 0,-74.025 60.00916,-134.0342 134.034208,-134.0342 74.02505,0 134.03421,60.0092 134.03421,134.0342 z"
       transform="matrix(0.04418589,0,0,0.04418589,121.91594,623.75167)" />
  </g>
</svg>
