<?xml version="1.0" encoding="UTF-8" standalone="no"?>
<!-- Created with Inkscape (http://www.inkscape.org/) -->

<svg
   xmlns:dc="http://purl.org/dc/elements/1.1/"
   xmlns:cc="http://creativecommons.org/ns#"
   xmlns:rdf="http://www.w3.org/1999/02/22-rdf-syntax-ns#"
   xmlns:svg="http://www.w3.org/2000/svg"
   xmlns="http://www.w3.org/2000/svg"
   xmlns:sodipodi="http://sodipodi.sourceforge.net/DTD/sodipodi-0.dtd"
   xmlns:inkscape="http://www.inkscape.org/namespaces/inkscape"
   width="256"
   height="256"
   id="svg4631"
   version="1.1"
   inkscape:version="0.48.3.1 r9886"
   sodipodi:docname="applications-mathematics.svg">
  <defs
     id="defs4633" />
  <sodipodi:namedview
     id="base"
     pagecolor="#ffffff"
     bordercolor="#666666"
     borderopacity="1.0"
     inkscape:pageopacity="0.0"
     inkscape:pageshadow="2"
     inkscape:zoom="2.500936"
     inkscape:cx="96.004215"
     inkscape:cy="101.37937"
     inkscape:document-units="px"
     inkscape:current-layer="layer1"
     showgrid="false"
     inkscape:window-width="1918"
     inkscape:window-height="1007"
     inkscape:window-x="0"
     inkscape:window-y="25"
     inkscape:window-maximized="1"
     showguides="true"
     inkscape:guide-bbox="true" />
  <metadata
     id="metadata4636">
    <rdf:RDF>
      <cc:Work
         rdf:about="">
        <dc:format>image/svg+xml</dc:format>
        <dc:type
           rdf:resource="http://purl.org/dc/dcmitype/StillImage" />
        <dc:title></dc:title>
      </cc:Work>
    </rdf:RDF>
  </metadata>
  <g
     inkscape:label="Capa 1"
     inkscape:groupmode="layer"
     id="layer1"
     transform="translate(0,-796.36218)">
    <circle
       d="M 57.894501,0 C 57.894501,31.97425 31.97425,57.894501 0,57.894501 -31.97425,57.894501 -57.894501,31.97425 -57.894501,0 c 0,-31.97425 25.920251,-57.894501 57.894501,-57.894501 31.97425,0 57.894501,25.920251 57.894501,57.894501 z"
       sodipodi:ry="57.894501"
       sodipodi:rx="57.894501"
       sodipodi:cy="0"
       sodipodi:cx="0"
       cy="0"
       cx="0"
       id="_67621792-4-0-3-9"
       class="fil0 str0"
       transform="matrix(2.0392752,-0.03185219,0.03185219,2.0392752,128.8806,927.03515)"
       r="57.894501"
       style="fill:#000000;fill-opacity:1;fill-rule:nonzero;stroke:#000000;stroke-width:3.51563001000000019;stroke-opacity:1" />
    <path
       inkscape:connector-curvature="0"
       id="rect11194-1-5-0-2-7"
       d="m 134.53858,862.4557 -21.60671,0.23138 1.56504,58.42177 -58.206432,-0.39109 -0.488225,21.59833 59.275757,0.39451 1.67045,62.3666 21.59905,-0.2311 -1.65637,-61.98638 61.54557,0.41044 0.4919,-21.60241 -62.61891,-0.41748 -1.57112,-58.79457 z"
       style="fill:#ffffff;fill-opacity:1;fill-rule:evenodd;stroke:#ffffff;stroke-width:2.72584915000000017;stroke-opacity:1" />
    <path
       class="fil2"
       d="m 89.46384,926.13763 c -7.737441,1.6918 -6.130674,12.26874 -4.898955,17.67946 2.139516,9.40823 22.596435,8.51178 29.791915,8.58715 14.39213,0.15084 30.21769,0.31654 44.60077,1.05745"
       id="path11198-0-2-5-1-6"
       inkscape:connector-curvature="0"
       style="fill:none" />
    <path
       class="fil2"
       d="m 130.22799,895.78921 c -1.94971,-7.6765 -12.467,-5.71676 -17.83344,-4.30474 -9.33146,2.45308 -7.75113,22.86857 -7.58576,30.06255 0.33081,14.38911 0.69455,30.21132 0.43527,44.61118"
       id="path11198-0-2-5-1-2-5"
       inkscape:connector-curvature="0"
       style="fill:none" />
    <path
       inkscape:connector-curvature="0"
       id="rect11194-1-5-0-2-74"
       d="m 48.115959,846.95012 -7.259653,7.11656 19.561132,19.32319 -19.887268,18.82691 6.869538,7.49123 20.2514,-19.17409 20.881859,20.62801 7.257175,-7.11391 -20.753258,-20.50359 21.027145,-19.90801 -6.869601,-7.4938 -21.393816,20.25527 -19.684653,-19.44777 z"
       style="fill:#ffffff;fill-opacity:1;fill-rule:evenodd;stroke:#ffffff;stroke-width:1.28244638000000011;stroke-opacity:1" />
    <path
       class="fil2"
       d="m 53.557261,883.25109 c -2.075631,3.09464 1.915073,6.16192 4.095674,7.59752 3.790911,2.49705 10.443611,-4.47076 12.910878,-6.78897 4.934927,-4.63679 10.361379,-9.7354 15.485484,-14.16892"
       id="path11198-0-2-5-1-9"
       inkscape:connector-curvature="0"
       style="fill:none" />
    <path
       class="fil2"
       d="m 57.510393,859.67025 c -3.162364,-1.97093 -6.094436,2.12016 -7.456279,4.34756 -2.368774,3.87233 4.817664,10.28816 7.217142,12.67654 4.799301,4.77705 10.076595,10.02988 14.679051,15.00278"
       id="path11198-0-2-5-1-2-3"
       inkscape:connector-curvature="0"
       style="fill:none" />
    <rect
       style="fill:#ffffff;fill-opacity:1;fill-rule:evenodd;stroke:#ffffff;stroke-width:1.26068032000000008;stroke-opacity:1"
       id="rect11194-1-5-0-6"
       ry="0"
       rx="5.6571426"
       height="11.870255"
       width="55.443172"
       y="-983.14062"
       x="-218.49269"
       class="fil0 str0"
       transform="matrix(-0.99999916,-0.00129769,0.0017575,-0.99999846,0,0)" />
    <path
       style="fill:none"
       inkscape:connector-curvature="0"
       id="path11198-0-2-5-7"
       d="m 190.82628,980.55941 c 3.33723,-0.96352 2.57975,-6.73645 2.01501,-9.68754 -0.98107,-5.13151 -9.8254,-4.53881 -12.93857,-4.54387 -6.2269,-0.0102 -13.07395,-0.0213 -19.3004,-0.35402"
       class="fil2" />
  </g>
</svg>
