<?xml version="1.0" encoding="UTF-8" standalone="no"?>
<!-- Created with Inkscape (http://www.inkscape.org/) -->

<svg
   xmlns:dc="http://purl.org/dc/elements/1.1/"
   xmlns:cc="http://creativecommons.org/ns#"
   xmlns:rdf="http://www.w3.org/1999/02/22-rdf-syntax-ns#"
   xmlns:svg="http://www.w3.org/2000/svg"
   xmlns="http://www.w3.org/2000/svg"
   xmlns:xlink="http://www.w3.org/1999/xlink"
   xmlns:sodipodi="http://sodipodi.sourceforge.net/DTD/sodipodi-0.dtd"
   xmlns:inkscape="http://www.inkscape.org/namespaces/inkscape"
   version="1.0"
   width="48"
   height="48"
   id="svg2408"
   style="display:inline"
   inkscape:version="0.48.5 r10040"
   sodipodi:docname="applications-other.svg">
  <sodipodi:namedview
     pagecolor="#ffffff"
     bordercolor="#666666"
     borderopacity="1"
     objecttolerance="10"
     gridtolerance="10"
     guidetolerance="10"
     inkscape:pageopacity="0"
     inkscape:pageshadow="2"
     inkscape:window-width="1914"
     inkscape:window-height="1031"
     id="namedview10150"
     showgrid="false"
     inkscape:zoom="4.9637161"
     inkscape:cx="76.677966"
     inkscape:cy="31.728814"
     inkscape:window-x="0"
     inkscape:window-y="25"
     inkscape:window-maximized="1"
     inkscape:current-layer="svg2408" />
  <defs
     id="defs2410">
    <linearGradient
       id="linearGradient3778">
      <stop
         id="stop3780"
         style="stop-color:#499119;stop-opacity:1"
         offset="0" />
      <stop
         id="stop3782"
         style="stop-color:#8fd625;stop-opacity:1"
         offset="1" />
    </linearGradient>
    <linearGradient
       id="linearGradient4426">
      <stop
         id="stop4428"
         style="stop-color:#71461e;stop-opacity:1"
         offset="0" />
      <stop
         id="stop4430"
         style="stop-color:#71461e;stop-opacity:0"
         offset="1" />
    </linearGradient>
    <linearGradient
       id="linearGradient4414">
      <stop
         id="stop4416"
         style="stop-color:#dac3a2;stop-opacity:1"
         offset="0" />
      <stop
         id="stop4418"
         style="stop-color:#dac3a2;stop-opacity:0"
         offset="1" />
    </linearGradient>
    <linearGradient
       id="linearGradient4370">
      <stop
         id="stop4372"
         style="stop-color:#8a5b30;stop-opacity:1"
         offset="0" />
      <stop
         id="stop4374"
         style="stop-color:#8a5b30;stop-opacity:0"
         offset="1" />
    </linearGradient>
    <linearGradient
       id="linearGradient4295">
      <stop
         id="stop4297"
         style="stop-color:#b88f56;stop-opacity:1"
         offset="0" />
      <stop
         id="stop4299"
         style="stop-color:#d9bd98;stop-opacity:1"
         offset="1" />
    </linearGradient>
    <linearGradient
       id="linearGradient4289">
      <stop
         id="stop4291"
         style="stop-color:#996c3b;stop-opacity:1"
         offset="0" />
      <stop
         id="stop4293"
         style="stop-color:#c19e6d;stop-opacity:1"
         offset="1" />
    </linearGradient>
    <linearGradient
       id="linearGradient5092">
      <stop
         id="stop5094"
         style="stop-color:#be9f6a;stop-opacity:1"
         offset="0" />
      <stop
         id="stop5096"
         style="stop-color:#e5d2b2;stop-opacity:1"
         offset="1" />
    </linearGradient>
    <linearGradient
       id="linearGradient5010">
      <stop
         id="stop5012"
         style="stop-color:#000000;stop-opacity:1"
         offset="0" />
      <stop
         id="stop5014"
         style="stop-color:#000000;stop-opacity:0"
         offset="1" />
    </linearGradient>
    <linearGradient
       x1="45.447727"
       y1="92.539597"
       x2="45.447727"
       y2="7.0165396"
       id="ButtonShadow"
       gradientUnits="userSpaceOnUse"
       gradientTransform="scale(1.0058652,0.994169)">
      <stop
         id="stop3750"
         style="stop-color:#000000;stop-opacity:1"
         offset="0" />
      <stop
         id="stop3752"
         style="stop-color:#000000;stop-opacity:0.58823532"
         offset="1" />
    </linearGradient>
    <linearGradient
       id="linearGradient3737">
      <stop
         id="stop3739"
         style="stop-color:#ffffff;stop-opacity:1"
         offset="0" />
      <stop
         id="stop3741"
         style="stop-color:#ffffff;stop-opacity:0"
         offset="1" />
    </linearGradient>
    <linearGradient
       x1="54.187183"
       y1="90"
       x2="54.187183"
       y2="39.852562"
       id="linearGradient3706"
       xlink:href="#linearGradient4289"
       gradientUnits="userSpaceOnUse" />
    <filter
       color-interpolation-filters="sRGB"
       id="filter3174">
      <feGaussianBlur
         id="feGaussianBlur3176"
         stdDeviation="1.71" />
    </filter>
    <filter
       x="-0.31155673"
       y="-0.42628157"
       width="1.6231135"
       height="1.8525631"
       color-interpolation-filters="sRGB"
       id="filter4362">
      <feGaussianBlur
         id="feGaussianBlur4364"
         stdDeviation="6.2124381" />
    </filter>
    <linearGradient
       x1="47.079498"
       y1="32.782871"
       x2="6.5962563"
       y2="9.4098616"
       id="linearGradient5100"
       xlink:href="#linearGradient5092"
       gradientUnits="userSpaceOnUse" />
    <linearGradient
       x1="48"
       y1="42"
       x2="6.7812738"
       y2="18.202358"
       id="linearGradient2489"
       xlink:href="#linearGradient4295"
       gradientUnits="userSpaceOnUse" />
    <linearGradient
       x1="47.226776"
       y1="29.039698"
       x2="6.3304405"
       y2="18.081558"
       id="linearGradient3264"
       xlink:href="#linearGradient4295"
       gradientUnits="userSpaceOnUse"
       gradientTransform="matrix(-1,0,0,1,96,0)" />
    <linearGradient
       x1="23.142857"
       y1="42"
       x2="66.964287"
       y2="6"
       id="linearGradient3285"
       xlink:href="#linearGradient3737"
       gradientUnits="userSpaceOnUse" />
    <linearGradient
       x1="8"
       y1="38.127232"
       x2="8"
       y2="71.877235"
       id="linearGradient4376"
       xlink:href="#linearGradient4370"
       gradientUnits="userSpaceOnUse" />
    <linearGradient
       x1="10"
       y1="40.263424"
       x2="10"
       y2="89.666374"
       id="linearGradient4394"
       xlink:href="#linearGradient3737"
       gradientUnits="userSpaceOnUse" />
    <linearGradient
       x1="8"
       y1="38.127232"
       x2="8"
       y2="87.029526"
       id="linearGradient4400"
       xlink:href="#linearGradient4370"
       gradientUnits="userSpaceOnUse"
       gradientTransform="matrix(-1,0,0,1,96,0)" />
    <linearGradient
       x1="10"
       y1="40.263424"
       x2="10"
       y2="89.666374"
       id="linearGradient4402"
       xlink:href="#linearGradient3737"
       gradientUnits="userSpaceOnUse"
       gradientTransform="matrix(-1,0,0,1,96,0)" />
    <linearGradient
       x1="8.9651041"
       y1="44.040279"
       x2="8.9651041"
       y2="52.263294"
       id="linearGradient4420"
       xlink:href="#linearGradient4414"
       gradientUnits="userSpaceOnUse" />
    <linearGradient
       x1="8.9651041"
       y1="44.040279"
       x2="8.9651041"
       y2="52.263294"
       id="linearGradient4424"
       xlink:href="#linearGradient4414"
       gradientUnits="userSpaceOnUse"
       gradientTransform="matrix(-1,0,0,1,96.086934,0)" />
    <radialGradient
       cx="48"
       cy="73.14563"
       r="42"
       fx="48"
       fy="73.14563"
       id="radialGradient4432"
       xlink:href="#linearGradient4426"
       gradientUnits="userSpaceOnUse"
       gradientTransform="matrix(0.867765,0,0,0.09523809,6.3472804,36.190476)" />
    <linearGradient
       x1="65.262688"
       y1="64.205269"
       x2="65.262688"
       y2="50.068527"
       id="linearGradient3832"
       xlink:href="#linearGradient3737"
       gradientUnits="userSpaceOnUse"
       gradientTransform="matrix(0.625,0,0,0.625,28.5,31.25)" />
    <linearGradient
       id="linearGradient3737-4">
      <stop
         id="stop3739-1"
         style="stop-color:#ffffff;stop-opacity:1"
         offset="0" />
      <stop
         id="stop3741-8"
         style="stop-color:#ffffff;stop-opacity:0"
         offset="1" />
    </linearGradient>
    <radialGradient
       cx="48"
       cy="90.171875"
       r="42"
       fx="48"
       fy="90.171875"
       id="radialGradient2858"
       xlink:href="#linearGradient3737-4"
       gradientUnits="userSpaceOnUse"
       gradientTransform="matrix(1.1573129,0,0,0.99590774,-7.551021,0.1971319)" />
    <linearGradient
       x1="56"
       y1="72"
       x2="88"
       y2="72"
       id="linearGradient3773"
       xlink:href="#linearGradient3778"
       gradientUnits="userSpaceOnUse"
       gradientTransform="matrix(0.9375,0,0,0.9375,-140.5,3.5)" />
    <linearGradient
       x1="70"
       y1="54"
       x2="70"
       y2="75.095024"
       id="linearGradient3788"
       xlink:href="#linearGradient3737"
       gradientUnits="userSpaceOnUse"
       gradientTransform="translate(0,4)" />
    <filter
       color-interpolation-filters="sRGB"
       id="filter3806">
      <feGaussianBlur
         id="feGaussianBlur3808"
         stdDeviation="1.2" />
    </filter>
    <linearGradient
       x1="65.262688"
       y1="64.205269"
       x2="65.262688"
       y2="50.068527"
       id="linearGradient3812"
       xlink:href="#linearGradient5010"
       gradientUnits="userSpaceOnUse"
       gradientTransform="matrix(0.625,0,0,0.625,78.5,32.25)" />
    <clipPath
       id="clipPath3823">
      <path
         d="M 108.8125,58 C 107.25437,58 106,59.254375 106,60.8125 l 0,24.375 C 106,86.745625 107.25437,88 108.8125,88 l 24.375,0 C 134.74562,88 136,86.745625 136,85.1875 l 0,-24.375 C 136,59.254375 134.74562,58 133.1875,58 l -24.375,0 z m 7.1875,4.5 10,0 0,8.75 5,0 -10,13.75 -10,-13.75 5,0 0,-8.75 z"
         inkscape:connector-curvature="0"
         id="path3825"
         style="fill:#ffffff;fill-opacity:1;stroke:none" />
    </clipPath>
    <filter
       color-interpolation-filters="sRGB"
       id="filter3831">
      <feGaussianBlur
         id="feGaussianBlur3833"
         stdDeviation="0.6375" />
    </filter>
    <linearGradient
       x1="50.499405"
       y1="19.881863"
       x2="50.499405"
       y2="47.295406"
       id="linearGradient3277-5"
       xlink:href="#linearGradient4309-1"
       gradientUnits="userSpaceOnUse"
       gradientTransform="matrix(1.0200612,0,0,1.0200612,-5.2981966,5.7562054)" />
    <linearGradient
       x1="52.25"
       y1="47.247101"
       x2="52.25"
       y2="0.2393"
       id="linearGradient4309-1"
       gradientUnits="userSpaceOnUse">
      <stop
         id="stop4311-3"
         style="stop-color:#d8cab2;stop-opacity:1"
         offset="0" />
      <stop
         id="stop4321-4"
         style="stop-color:#d2b98c;stop-opacity:1"
         offset="0.45710954" />
      <stop
         id="stop4323-7"
         style="stop-color:#f9f7ef;stop-opacity:1"
         offset="0.48590001" />
      <stop
         id="stop4325-1"
         style="stop-color:#ffffff;stop-opacity:1"
         offset="0.49110001" />
      <stop
         id="stop4327-9"
         style="stop-color:#fbf9f4;stop-opacity:1"
         offset="0.49180001" />
      <stop
         id="stop4329-7"
         style="stop-color:#efe7d0;stop-opacity:1"
         offset="0.4946" />
      <stop
         id="stop4331-9"
         style="stop-color:#e4d6b0;stop-opacity:1"
         offset="0.49770001" />
      <stop
         id="stop4333-5"
         style="stop-color:#dac894;stop-opacity:1"
         offset="0.5011" />
      <stop
         id="stop4335-2"
         style="stop-color:#c7a572;stop-opacity:1"
         offset="0.50489998" />
      <stop
         id="stop4347-5"
         style="stop-color:#d7c198;stop-opacity:1"
         offset="1" />
    </linearGradient>
    <linearGradient
       x1="46.795631"
       y1="60.307007"
       x2="46.795631"
       y2="6.0179305"
       id="linearGradient3942"
       xlink:href="#linearGradient3928"
       gradientUnits="userSpaceOnUse" />
    <linearGradient
       id="linearGradient3928">
      <stop
         id="stop3930"
         style="stop-color:#3a240f;stop-opacity:1"
         offset="0" />
      <stop
         id="stop3932"
         style="stop-color:#3a240f;stop-opacity:0"
         offset="1" />
    </linearGradient>
    <linearGradient
       x1="48.40115"
       y1="61.990967"
       x2="48.40115"
       y2="4.6666145"
       id="linearGradient3934"
       xlink:href="#linearGradient3928"
       gradientUnits="userSpaceOnUse" />
    <linearGradient
       x1="45.447727"
       y1="92.539597"
       x2="45.447727"
       y2="7.0165396"
       id="ButtonShadow-0"
       gradientUnits="userSpaceOnUse"
       gradientTransform="matrix(1.0058652,0,0,0.994169,100,0)">
      <stop
         id="stop3750-8"
         style="stop-color:#000000;stop-opacity:1"
         offset="0" />
      <stop
         id="stop3752-5"
         style="stop-color:#000000;stop-opacity:0.58823532"
         offset="1" />
    </linearGradient>
    <linearGradient
       x1="32.251034"
       y1="6.1317081"
       x2="32.251034"
       y2="90.238609"
       id="linearGradient3780"
       xlink:href="#ButtonShadow-0"
       gradientUnits="userSpaceOnUse"
       gradientTransform="matrix(1.0238095,0,0,1.0119048,-1.1428571,-98.071429)" />
    <linearGradient
       x1="32.251034"
       y1="6.1317081"
       x2="32.251034"
       y2="90.238609"
       id="linearGradient3772"
       xlink:href="#ButtonShadow-0"
       gradientUnits="userSpaceOnUse"
       gradientTransform="matrix(1.0238095,0,0,1.0119048,-1.1428571,-98.071429)" />
    <linearGradient
       x1="32.251034"
       y1="6.1317081"
       x2="32.251034"
       y2="90.238609"
       id="linearGradient3725"
       xlink:href="#ButtonShadow-0"
       gradientUnits="userSpaceOnUse"
       gradientTransform="matrix(1.0238095,0,0,1.0119048,-1.1428571,-98.071429)" />
    <linearGradient
       x1="32.251034"
       y1="6.1317081"
       x2="32.251034"
       y2="90.238609"
       id="linearGradient3721"
       xlink:href="#ButtonShadow-0"
       gradientUnits="userSpaceOnUse"
       gradientTransform="translate(0,-97)" />
    <linearGradient
       x1="32.251034"
       y1="6.1317081"
       x2="32.251034"
       y2="90.238609"
       id="linearGradient2969"
       xlink:href="#ButtonShadow-0"
       gradientUnits="userSpaceOnUse"
       gradientTransform="matrix(1.0238095,0,0,1.0119048,-1.1428571,-98.071429)" />
    <linearGradient
       id="linearGradient4071-3">
      <stop
         id="stop4073-8"
         style="stop-color:#000000;stop-opacity:1"
         offset="0" />
      <stop
         id="stop4075-4"
         style="stop-color:#000000;stop-opacity:0"
         offset="1" />
    </linearGradient>
    <linearGradient
       id="linearGradient4047-2">
      <stop
         id="stop4049-0"
         style="stop-color:#000000;stop-opacity:1"
         offset="0" />
      <stop
         id="stop4051-5"
         style="stop-color:#000000;stop-opacity:0"
         offset="1" />
    </linearGradient>
    <linearGradient
       id="linearGradient4115-2">
      <stop
         id="stop4117-3"
         style="stop-color:#ffffff;stop-opacity:1"
         offset="0" />
      <stop
         id="stop4119-6"
         style="stop-color:#ffffff;stop-opacity:0"
         offset="1" />
    </linearGradient>
    <linearGradient
       x1="63.9995"
       y1="3.1001"
       x2="63.9995"
       y2="122.8994"
       id="linearGradient3309"
       gradientUnits="userSpaceOnUse">
      <stop
         id="stop3311"
         style="stop-color:#f0f0f0;stop-opacity:1"
         offset="0" />
      <stop
         id="stop3313"
         style="stop-color:#aaaaaa;stop-opacity:1"
         offset="1" />
    </linearGradient>
    <clipPath
       id="clipPath3770">
      <path
         d="m 30.916246,135.97101 c -0.937265,0.54113 -1.228304,1.74751 -0.677924,2.7008 l 1.9375,3.35585 c -1.418089,1.4141 -2.622271,3.01197 -3.595452,4.70999 l -3.783633,-0.99094 c -0.53163,-0.14245 -1.03793,-0.11751 -1.476222,0.13061 -0.438156,0.24835 -0.796545,0.66758 -0.936598,1.19026 l -1.978825,7.38508 c -0.280099,1.04537 0.36595,2.06538 1.429127,2.35032 l 3.772195,1.03363 c -0.0062,1.95711 0.237711,3.94301 0.758754,5.8767 l -3.355848,1.9375 c -0.953277,0.55038 -1.304431,1.74066 -0.763301,2.67793 l 3.8125,6.60344 c 0.54113,0.93726 1.747524,1.2283 2.700801,0.67792 l 3.355849,-1.9375 c 1.414106,1.41809 3.011987,2.62228 4.709995,3.59545 l -0.990945,3.78364 c -0.284896,1.06324 0.275435,2.13274 1.320874,2.41282 l 7.385074,1.97882 c 1.04537,0.28012 2.065424,-0.36588 2.35032,-1.42912 l 1.033633,-3.7722 c 1.957121,0.006 3.943013,-0.2377 5.876702,-0.75875 l 1.9375,3.35585 c 0.550375,0.95327 1.740659,1.30443 2.677924,0.7633 l 6.603444,-3.8125 c 0.937256,-0.54113 1.228299,-1.74753 0.677924,-2.70081 l -1.9375,-3.35584 c 1.418089,-1.4141 2.622271,-3.01198 3.595451,-4.71 l 3.783634,0.99095 c 1.063246,0.28489 2.132711,-0.2755 2.41282,-1.32088 l 1.978824,-7.38507 c 0.2801,-1.04538 -0.36595,-2.06539 -1.429126,-2.35032 l -3.772195,-1.03364 c 0.0062,-1.9571 -0.237702,-3.94301 -0.758755,-5.8767 l 3.355849,-1.9375 c 0.953269,-0.55037 1.304431,-1.74066 0.763301,-2.67792 l -3.8125,-6.60344 c -0.54113,-0.93727 -1.747532,-1.2283 -2.700801,-0.67793 l -3.355849,1.9375 c -1.414097,-1.41809 -3.011987,-2.62227 -4.709995,-3.59545 l 0.990945,-3.78363 c 0.284896,-1.06325 -0.275418,-2.13276 -1.320874,-2.41282 l -7.385075,-1.97883 c -1.045378,-0.28011 -2.065424,0.36588 -2.35032,1.42913 l -1.033633,3.77219 c -1.95712,-0.006 -3.943012,0.23771 -5.876701,0.75876 l -1.9375,-3.35585 c -0.55038,-0.95329 -1.740668,-1.30443 -2.677924,-0.7633 l -6.603444,3.8125 z m 13.051722,14.98124 c 3.826343,-2.20914 8.719063,-0.89814 10.928203,2.92821 2.20914,3.82634 0.89814,8.71906 -2.928203,10.9282 -3.826343,2.20914 -8.719063,0.89814 -10.928203,-2.9282 -2.20914,-3.82635 -0.89814,-8.71907 2.928203,-10.92821 z"
         inkscape:connector-curvature="0"
         id="path3772"
         style="fill:url(#linearGradient3774);fill-opacity:1;fill-rule:nonzero;stroke:none;stroke-width:1;marker:none;visibility:visible;display:block;overflow:visible;enable-background:accumulate" />
    </clipPath>
    <linearGradient
       x1="20.758585"
       y1="1"
       x2="20.758585"
       y2="45.017357"
       id="linearGradient3774"
       xlink:href="#linearGradient3309"
       gradientUnits="userSpaceOnUse"
       gradientTransform="matrix(1.107703,-0.6395326,0.6395326,1.107703,6.6738423,147.75207)" />
    <linearGradient
       x1="20.758585"
       y1="1"
       x2="20.758585"
       y2="45.017357"
       id="linearGradient4615"
       xlink:href="#linearGradient3309"
       gradientUnits="userSpaceOnUse"
       gradientTransform="matrix(0.83720627,0,0,0.83720627,107.90704,38.744258)" />
    <linearGradient
       x1="48.233639"
       y1="48.047016"
       x2="126.13924"
       y2="66.232674"
       id="linearGradient4617"
       xlink:href="#linearGradient4071-3"
       gradientUnits="userSpaceOnUse" />
    <linearGradient
       x1="48.055065"
       y1="48.031517"
       x2="126.67282"
       y2="62.838562"
       id="linearGradient4619"
       xlink:href="#linearGradient4047-2"
       gradientUnits="userSpaceOnUse" />
    <linearGradient
       x1="47.997307"
       y1="48.028725"
       x2="127.05216"
       y2="60.289631"
       id="linearGradient4621"
       xlink:href="#linearGradient4047-2"
       gradientUnits="userSpaceOnUse" />
    <linearGradient
       x1="47.99826"
       y1="48.028797"
       x2="127.41583"
       y2="57.664623"
       id="linearGradient4623"
       xlink:href="#linearGradient4047-2"
       gradientUnits="userSpaceOnUse" />
    <linearGradient
       x1="48.233643"
       y1="48.04702"
       x2="126.13924"
       y2="66.232674"
       id="linearGradient4625"
       xlink:href="#linearGradient4115-2"
       gradientUnits="userSpaceOnUse" />
    <linearGradient
       x1="48.055069"
       y1="48.031521"
       x2="126.67282"
       y2="62.838566"
       id="linearGradient4627"
       xlink:href="#linearGradient4115-2"
       gradientUnits="userSpaceOnUse" />
    <linearGradient
       x1="47.997311"
       y1="48.028728"
       x2="127.05216"
       y2="60.289635"
       id="linearGradient4629"
       xlink:href="#linearGradient4115-2"
       gradientUnits="userSpaceOnUse" />
    <linearGradient
       x1="47.998264"
       y1="48.028801"
       x2="127.41583"
       y2="57.664627"
       id="linearGradient4631"
       xlink:href="#linearGradient4115-2"
       gradientUnits="userSpaceOnUse" />
    <linearGradient
       x1="48.233639"
       y1="48.047016"
       x2="126.13924"
       y2="66.232674"
       id="linearGradient4633"
       xlink:href="#linearGradient4071-3"
       gradientUnits="userSpaceOnUse" />
    <linearGradient
       x1="48.055065"
       y1="48.031517"
       x2="126.67282"
       y2="62.838562"
       id="linearGradient4635"
       xlink:href="#linearGradient4047-2"
       gradientUnits="userSpaceOnUse" />
    <linearGradient
       x1="47.997307"
       y1="48.028725"
       x2="127.05216"
       y2="60.289631"
       id="linearGradient4637"
       xlink:href="#linearGradient4047-2"
       gradientUnits="userSpaceOnUse" />
    <linearGradient
       x1="47.99826"
       y1="48.028797"
       x2="127.41583"
       y2="57.664623"
       id="linearGradient4639"
       xlink:href="#linearGradient4047-2"
       gradientUnits="userSpaceOnUse" />
    <linearGradient
       x1="48.233639"
       y1="48.047016"
       x2="126.13924"
       y2="66.232674"
       id="linearGradient4641"
       xlink:href="#linearGradient4071-3"
       gradientUnits="userSpaceOnUse" />
    <linearGradient
       x1="48.055065"
       y1="48.031517"
       x2="126.67282"
       y2="62.838562"
       id="linearGradient4643"
       xlink:href="#linearGradient4047-2"
       gradientUnits="userSpaceOnUse" />
    <linearGradient
       x1="47.997307"
       y1="48.028725"
       x2="127.05216"
       y2="60.289631"
       id="linearGradient4645"
       xlink:href="#linearGradient4047-2"
       gradientUnits="userSpaceOnUse" />
    <linearGradient
       x1="47.99826"
       y1="48.028797"
       x2="127.41583"
       y2="57.664623"
       id="linearGradient4647"
       xlink:href="#linearGradient4047-2"
       gradientUnits="userSpaceOnUse" />
    <linearGradient
       x1="48.233643"
       y1="48.04702"
       x2="126.13924"
       y2="66.232674"
       id="linearGradient4649"
       xlink:href="#linearGradient4115-2"
       gradientUnits="userSpaceOnUse" />
    <linearGradient
       x1="48.055069"
       y1="48.031521"
       x2="126.67282"
       y2="62.838566"
       id="linearGradient4651"
       xlink:href="#linearGradient4115-2"
       gradientUnits="userSpaceOnUse" />
    <linearGradient
       x1="47.997311"
       y1="48.028728"
       x2="127.05216"
       y2="60.289635"
       id="linearGradient4653"
       xlink:href="#linearGradient4115-2"
       gradientUnits="userSpaceOnUse" />
    <linearGradient
       x1="47.998264"
       y1="48.028801"
       x2="127.41583"
       y2="57.664627"
       id="linearGradient4655"
       xlink:href="#linearGradient4115-2"
       gradientUnits="userSpaceOnUse" />
  </defs>
  <metadata
     id="metadata2413">
    <rdf:RDF>
      <cc:Work
         rdf:about="">
        <dc:format>image/svg+xml</dc:format>
        <dc:type
           rdf:resource="http://purl.org/dc/dcmitype/StillImage" />
        <dc:title />
      </cc:Work>
    </rdf:RDF>
  </metadata>
  <g
     id="layer2"
     style="display:none"
     transform="translate(0,-48)">
    <path
       d="M 11,7 48,5 85,7 c 3.324,0 6,2.676 6,6 l 0,73 c 0,3.324 -2.676,6 -6,6 L 11,92 C 7.676,92 5,89.324 5,86 L 5,13 C 5,9.676 7.676,7 11,7 z"
       inkscape:connector-curvature="0"
       id="rect3745"
       style="opacity:0.9;fill:url(#ButtonShadow);fill-opacity:1;fill-rule:nonzero;stroke:none;filter:url(#filter3174)" />
  </g>
  <g
     id="layer4"
     style="display:none"
     transform="translate(0,-48)">
    <rect
       width="30"
       height="30"
       rx="2.8125"
       ry="2.8125"
       x="-86"
       y="56"
       transform="matrix(0,-1,1,0,0,4)"
       id="rect3790"
       style="opacity:0.6;fill:#000000;fill-opacity:1;stroke:none;filter:url(#filter3806)" />
    <rect
       width="30"
       height="30"
       rx="2.8125"
       ry="2.8125"
       x="-88"
       y="56"
       transform="matrix(0,-1,1,0,0,0)"
       id="rect2993"
       style="fill:url(#linearGradient3773);fill-opacity:1;stroke:none" />
    <path
       d="M 58.8125,58 C 57.254375,58 56,59.254375 56,60.8125 l 0,24.375 c 0,0.873066 0.410816,1.641163 1.03125,2.15625 C 57.02841,87.289908 57,87.242129 57,87.1875 l 0,-24.375 C 57,61.254375 58.17075,60 59.625,60 l 22.75,0 C 83.82925,60 85,61.254375 85,62.8125 l 0,24.375 c 0,0.05463 -0.02841,0.102408 -0.03125,0.15625 C 85.589184,86.828663 86,86.060566 86,85.1875 l 0,-24.375 C 86,59.254375 84.745625,58 83.1875,58 l -24.375,0 z"
       inkscape:connector-curvature="0"
       id="rect3775"
       style="opacity:0.5;fill:url(#linearGradient3788);fill-opacity:1;stroke:none" />
    <path
       d="m 116,63.5 0,8.75 -5,0 10,13.75 10,-13.75 -5,0 0,-8.75 -10,0 z"
       inkscape:connector-curvature="0"
       transform="translate(-50,0)"
       clip-path="url(#clipPath3823)"
       id="path3810"
       style="opacity:0.6;fill:url(#linearGradient3812);fill-opacity:1;fill-rule:nonzero;stroke:none;display:inline;filter:url(#filter3831)" />
    <path
       d="m 66,62.5 0,8.75 -5,0 10,13.75 10,-13.75 -5,0 0,-8.75 -10,0 z"
       inkscape:connector-curvature="0"
       id="path4278"
       style="fill:url(#linearGradient3832);fill-opacity:1;fill-rule:nonzero;stroke:none;display:inline" />
  </g>
  <g
     id="g3172"
     transform="matrix(0.61772591,0,0,0.61772591,-6.5879526,24.062128)">
    <path
       sodipodi:nodetypes="sssssssss"
       inkscape:connector-curvature="0"
       id="rect5162-7-4"
       d="m 54.791061,-34.562228 -7.712134,25.732525 c -0.423867,1.414293 0.377753,2.777211 1.825959,3.064586 l 27.244281,5.40622 c 1.448206,0.287375 3.040336,-0.595724 3.402221,-2.027131 l 6.3019,-24.926677 c 0.361884,-1.431406 -0.390435,-2.719398 -1.82596,-3.064585 l -25.834047,-6.212069 c -1.435525,-0.345187 -2.978352,0.61284 -3.40222,2.027131 z"
       style="fill:#ffffff;fill-opacity:1;stroke:none;display:inline" />
    <path
       sodipodi:nodetypes="sssssssss"
       inkscape:connector-curvature="0"
       id="rect5162-7-9-5"
       d="M 67.185134,-24.428178 61.778711,3.474725 C 61.551487,4.647462 60.339987,5.346673 59.178484,5.067651 L 37.327779,-0.181436 c -1.161503,-0.279022 -1.932154,-1.454858 -1.592926,-2.600226 l 8.025429,-27.097056 c 0.339229,-1.145367 1.436339,-1.861827 2.600227,-1.592925 l 19.231698,4.443239 c 1.163888,0.268901 1.820155,1.42749 1.592927,2.600226 z"
       style="fill:#ffffff;fill-opacity:1;stroke:none;display:inline" />
    <rect
       transform="matrix(-0.24057219,0.97063125,0.97063125,0.24057219,0,0)"
       ry="2.1562223"
       y="46.80304"
       x="-45.53648"
       height="26.784788"
       width="36.945843"
       id="rect5162-7"
       style="fill:#000000;fill-opacity:1;stroke:none" />
    <rect
       transform="matrix(-0.23357988,0.97233762,-0.97233762,-0.23357988,0,0)"
       ry="2.1562223"
       y="-64.092522"
       x="-37.145779"
       height="26.784788"
       width="36.945843"
       id="rect5162-7-9"
       style="fill:#000000;fill-opacity:1;stroke:none" />
    <path
       sodipodi:nodetypes="sssssssss"
       inkscape:connector-curvature="0"
       id="rect5162-7-9-3-8"
       d="m 42.26376,-34.152479 7.310195,21.763861 c 0.406908,1.211431 -0.16733,2.405798 -1.405885,2.720624 l -23.300243,5.922657 c -1.238555,0.314826 -5.200192,-0.539266 -5.482977,-1.785529 l -4.892651,-21.562399 c -0.282785,-1.246261 0.16733,-2.405797 1.405885,-2.720624 l 23.300243,-5.922656 c 1.238554,-0.314827 2.658531,0.372636 3.065433,1.584066 z"
       style="fill:#ffffff;fill-opacity:1;stroke:none;display:inline" />
    <rect
       transform="matrix(0.29874588,0.9543327,-0.9543327,0.29874588,0,0)"
       ry="1.9022157"
       y="-47.999146"
       x="-18.648434"
       height="23.388752"
       width="31.824516"
       id="rect5162-7-9-3"
       style="fill:#000000;fill-opacity:1;stroke:none" />
    <rect
       ry="4.0956755"
       y="-14.809616"
       x="14.346029"
       height="50.876846"
       width="70.746979"
       id="rect5162-5"
       style="fill:#ffffff;fill-opacity:1;stroke:none;display:inline" />
    <rect
       ry="3.5929158"
       y="-12.857746"
       x="19.034859"
       height="44.631523"
       width="61.562901"
       id="rect5162"
       style="fill:#000000;fill-opacity:1;stroke:none" />
    <g
       id="g2992-6-6-8-0-2-7-4-5"
       style="fill:#ffffff;fill-opacity:1;fill-rule:evenodd"
       transform="matrix(9.5290649,0,0,8.6391904,28.665757,-10.15896)">
      <path
         id="_121731384-7-2-4-3-0-7-7-5-5"
         class="fil0"
         d="M 0.67062907,3.1466295 0.96315753,3.436604 C 1.4643536,2.1285285 2.9137173,3.0231678 2.3709066,3.891 L 2.767349,4.0396257 C 3.5316128,2.8534265 1.7399119,1.2088624 0.67062907,3.1466295 z"
         inkscape:connector-curvature="0"
         style="fill:#ffffff;fill-opacity:1"
         sodipodi:nodetypes="ccccc" />
      <path
         id="_121328256-76-9-9-5-8-5-1-4-5"
         class="fil0"
         d="M 0.1777958,2.5586559 C -0.01275712,2.3374532 0.11748395,2.4022267 0.31580842,2.5444209 0.51413288,2.686615 0.81410198,2.8425452 1.1021572,3.1460838 L 0.96046525,3.4267024 C 0.50016423,3.0157207 0.36834871,2.7798588 0.1777958,2.5586559 z"
         inkscape:connector-curvature="0"
         style="fill:#ffffff;fill-opacity:1"
         sodipodi:nodetypes="zsccz" />
      <path
         sodipodi:type="arc"
         style="fill:#ffffff;fill-opacity:1;stroke:none"
         id="path3582-4-5-6-5-0-1-4-2-2"
         sodipodi:cx="11.182829"
         sodipodi:cy="12.753372"
         sodipodi:rx="2.6694496"
         sodipodi:ry="2.6694496"
         d="m 13.844562,12.550547 c 0.112017,1.470034 -0.988873,2.752541 -2.458908,2.864558 -1.4700343,0.112018 -2.7525408,-0.988873 -2.8645582,-2.458907 -0.1120173,-1.470035 0.9888732,-2.752542 2.4589082,-2.864559 1.447376,-0.1102906 2.717609,0.956188 2.859492,2.40081"
         transform="matrix(0.13834256,0,0,0.13834256,0.19919495,1.7915877)"
         sodipodi:start="6.2071318"
         sodipodi:end="12.46847"
         sodipodi:open="true" />
      <path
         id="_121328256-7-8-4-5-2-3-9-3-0-5"
         class="fil0"
         d="M 0.4247675,1.3417552 C 0.30865975,1.051719 0.40976238,1.1514637 0.55275704,1.3529974 0.69575091,1.5545312 1.0526419,2.1606454 1.2359221,2.5639276 L 0.96710859,2.750389 C 0.74796061,2.1419236 0.54087506,1.6317917 0.4247675,1.3417552 z"
         inkscape:connector-curvature="0"
         style="fill:#ffffff;fill-opacity:1;fill-rule:evenodd"
         sodipodi:nodetypes="zsccz" />
      <path
         id="_121328256-7-9-5-0-5-8-1-9-0-9-0-6"
         class="fil0"
         d="M 1.44312,0.58246558 C 1.43361,0.2701971 1.521214,0.39282353 1.5594765,0.63695278 1.6013875,0.90435635 1.7053444,1.7413136 1.7506921,2.2817189 l -0.3164814,0.082874 c 0.003,-0.6467199 0.018418,-1.46985881 0.00891,-1.78212772 z"
         inkscape:connector-curvature="0"
         style="fill:#ffffff;fill-opacity:1;fill-rule:evenodd"
         sodipodi:nodetypes="zsccz" />
      <path
         id="_121328256-7-4-0-9-2-3-6-2-1-8-9-2"
         class="fil0"
         d="M 2.4423509,0.52194906 C 2.5291241,0.19808085 2.5810366,0.32015476 2.5788735,0.5833539 2.5767086,0.84655178 2.4931372,1.8976838 2.1801821,2.4013588 L 1.8869765,2.2775017 c 0.307833,-0.6143974 0.4686,-1.43168421 0.5553744,-1.75555264 z"
         inkscape:connector-curvature="0"
         style="fill:#ffffff;fill-opacity:1;fill-rule:evenodd"
         sodipodi:nodetypes="zsccz" />
      <path
         id="_121328256-7-4-9-4-8-5-4-4-9-6-7-6"
         class="fil0"
         d="M 3.6839051,1.1452392 C 3.9311577,0.7718015 3.8949861,1.029192 3.7754429,1.2636867 3.5368401,1.7317274 2.9264141,2.4275569 2.4666837,2.7714357 L 2.2400615,2.4692892 C 2.8122122,2.0577751 3.4366526,1.5186768 3.6839051,1.1452392 z"
         inkscape:connector-curvature="0"
         style="fill:#ffffff;fill-opacity:1;fill-rule:evenodd"
         sodipodi:nodetypes="zsccz" />
      <path
         id="_121328256-7-4-9-1-6-1-3-1-3-4-9-6-7"
         class="fil0"
         d="m 4.2265513,3.0597007 c 0.4091243,-0.09358 0.2522344,0.074602 0.024419,0.1707759 C 4.0062521,3.3337885 3.127026,3.6011424 2.5719027,3.6165508 l 0.00603,-0.3830989 c 0.653125,-5.32e-4 1.239497,-0.080171 1.6486213,-0.1737512 z"
         inkscape:connector-curvature="0"
         style="fill:#ffffff;fill-opacity:1;fill-rule:evenodd"
         sodipodi:nodetypes="zsccz" />
      <path
         id="_121328256-9-1-9-8-5-01-7-6-8-0"
         class="fil0"
         d="M 3.9700033,4.2976494 C 4.2626923,4.4304234 4.1316091,4.4287597 3.9491295,4.4043056 3.7042093,4.3714838 3.1539385,4.1823832 2.7531868,4.0349335 L 2.8590012,3.7253663 c 0.5571017,0.2920484 0.8183128,0.4395089 1.1110017,0.572283 z"
         inkscape:connector-curvature="0"
         style="fill:#ffffff;fill-opacity:1;fill-rule:evenodd"
         sodipodi:nodetypes="zsccz" />
      <path
         id="_121328256-7-4-9-1-7-6-6-7-8-3-7-0-3-7"
         class="fil0"
         d="M 4.1962848,2.076334 C 4.5907234,1.8600715 4.4775437,2.0697011 4.2705883,2.2323244 4.0482794,2.4070154 3.2196806,2.935215 2.6523716,3.1218067 L 2.5483179,2.7530525 C 3.2208399,2.5503733 3.801846,2.2925963 4.1962848,2.076334 z"
         inkscape:connector-curvature="0"
         style="fill:#ffffff;fill-opacity:1;fill-rule:evenodd"
         sodipodi:nodetypes="zsccz"
         inkscape:transform-center-y="0.95298244"
         inkscape:transform-center-x="-0.069049672" />
    </g>
  </g>
</svg>
