<?xml version="1.0" encoding="UTF-8" standalone="no"?>
<!-- Created with Inkscape (http://www.inkscape.org/) -->

<svg
   xmlns:dc="http://purl.org/dc/elements/1.1/"
   xmlns:cc="http://creativecommons.org/ns#"
   xmlns:rdf="http://www.w3.org/1999/02/22-rdf-syntax-ns#"
   xmlns:svg="http://www.w3.org/2000/svg"
   xmlns="http://www.w3.org/2000/svg"
   xmlns:sodipodi="http://sodipodi.sourceforge.net/DTD/sodipodi-0.dtd"
   xmlns:inkscape="http://www.inkscape.org/namespaces/inkscape"
   width="256"
   height="256"
   id="svg5274"
   version="1.1"
   inkscape:version="0.48.3.1 r9886"
   sodipodi:docname="applications-interfacedesign.svg">
  <defs
     id="defs5276" />
  <sodipodi:namedview
     id="base"
     pagecolor="#ffffff"
     bordercolor="#666666"
     borderopacity="1.0"
     inkscape:pageopacity="0.0"
     inkscape:pageshadow="2"
     inkscape:zoom="2.1067569"
     inkscape:cx="91.520376"
     inkscape:cy="111.9973"
     inkscape:document-units="px"
     inkscape:current-layer="layer1"
     showgrid="false"
     inkscape:window-width="1918"
     inkscape:window-height="1007"
     inkscape:window-x="0"
     inkscape:window-y="25"
     inkscape:window-maximized="1" />
  <metadata
     id="metadata5279">
    <rdf:RDF>
      <cc:Work
         rdf:about="">
        <dc:format>image/svg+xml</dc:format>
        <dc:type
           rdf:resource="http://purl.org/dc/dcmitype/StillImage" />
        <dc:title></dc:title>
      </cc:Work>
    </rdf:RDF>
  </metadata>
  <g
     inkscape:label="Capa 1"
     inkscape:groupmode="layer"
     id="layer1"
     transform="translate(0,-796.36218)">
    <rect
       id="rect7046-0-2-9-1-0-8-5-5-4-7"
       ry="55.985016"
       rx="37.861996"
       height="229.67154"
       width="238.53108"
       transform="matrix(-0.00430507,-0.99999073,0.99998792,-0.00491528,0,0)"
       class="fil3 str0"
       x="-1045.8262"
       y="11.714752"
       style="fill:#000000;fill-rule:evenodd;stroke:#000000;stroke-width:7.04291582000000016;stroke-opacity:1" />
    <path
       id="path7050-7-1-0-9-3-8-0-1-8-5"
       d="m 98.614724,806.38662 c 19.863196,-3.28932 108.906126,-1.61138 123.815106,5.83585 13.82374,6.90445 19.73235,21.05824 20.1965,38.97691 l 2.13181,82.23506"
       class="fil2"
       inkscape:connector-curvature="0"
       style="fill:none" />
    <path
       id="path7054-6-7-2-3-9-0-3-7-5-4"
       d="m 15.6199,940.01733 c 0,14.47387 -2.569693,31.61794 -1.416912,46.052 3.598809,45.06617 21.226434,61.00617 69.52429,57.89227 9.306754,-0.5993 59.589592,1.3149 70.231362,1.3149"
       class="fil2"
       inkscape:connector-curvature="0"
       style="fill:none" />
    <path
       id="path7050-7-1-0-8-5-2-6-8-5-7"
       d="m 98.614724,806.38662 c 19.863196,-3.28932 108.906126,-1.61138 123.815106,5.83585 13.82374,6.90445 19.73235,21.05824 20.1965,38.97691 l 2.13181,82.23506"
       class="fil2"
       inkscape:connector-curvature="0"
       style="fill:none" />
    <rect
       style="fill:#ffffff;fill-opacity:1;fill-rule:evenodd;stroke:#fffcfa;stroke-width:2.36294769999999987;stroke-opacity:1"
       id="rect11194-1-9-4-1-4-8"
       ry="4.9553108"
       rx="89.519806"
       height="12.913892"
       width="179.03961"
       y="-554.5567"
       x="-861.85535"
       class="fil0 str0"
       transform="matrix(-0.68917536,-0.72459459,0.71957008,-0.69441983,0,0)" />
    <path
       style="fill:none"
       inkscape:connector-curvature="0"
       id="path11198-0-0-4-1-1-4"
       d="m 154.26404,967.29382 c 11.13773,8.90428 17.13819,-1.31886 19.68619,-7.08896 4.43346,-10.03014 -22.29259,-36.31324 -31.3959,-45.85737 -18.20809,-19.08973 -38.2297,-40.08075 -55.977403,-59.61097"
       class="fil2" />
    <path
       style="fill:#ffffff;fill-opacity:1;fill-rule:evenodd;stroke:#fffcfa;stroke-width:2.24038171999999980;stroke-linecap:butt;stroke-linejoin:miter;stroke-miterlimit:4;stroke-opacity:1;stroke-dasharray:none"
       d="m 73.388143,891.87773 c -10.449256,-3.83586 0.771512,-28.38376 -29.572429,-27.50637 63.943926,-20.52573 57.308506,34.41342 29.572429,27.50637 z"
       id="path4752-2-4"
       inkscape:connector-curvature="0"
       sodipodi:nodetypes="ccc" />
    <path
       style="fill:none"
       inkscape:connector-curvature="0"
       id="path11198-0-0-4-2-88-5"
       d="m 104.49511,977.70964 c -5.981536,14.89364 1.45232,12.95189 5.62279,11.17916 7.24966,-3.07789 25.09051,-42.07829 31.5871,-55.75504 12.99448,-27.35594 27.28334,-57.43624 40.60395,-84.71257"
       class="fil2" />
    <rect
       style="fill:#ffffff;fill-opacity:1;fill-rule:evenodd;stroke:#fffcfa;stroke-width:2.46256446999999978;stroke-opacity:1"
       id="rect11194-1-9-4-0-3-1"
       ry="0"
       rx="17.404169"
       height="14.722075"
       width="170.57062"
       y="704.81464"
       x="-711.55023"
       class="fil0 str0"
       transform="matrix(0.66805966,-0.74410772,0.74658213,0.66529326,0,0)" />
    <path
       style="fill:none;stroke:#000000;stroke-width:0.13355769px;stroke-linecap:butt;stroke-linejoin:miter;stroke-opacity:1"
       d="m 167.52592,866.71281 12.70212,11.07068"
       id="path4789-2-3"
       inkscape:connector-curvature="0" />
    <path
       style="fill:#ffffff;fill-opacity:1;fill-rule:evenodd;stroke:#fffcfa;stroke-width:2.67115401999999991;stroke-linecap:butt;stroke-linejoin:miter;stroke-miterlimit:4;stroke-opacity:1;stroke-dasharray:none"
       d="m 166.11944,867.28594 24.72247,-14.09342 -11.5314,25.60818"
       id="path4791-9-4"
       inkscape:connector-curvature="0"
       sodipodi:nodetypes="ccc" />
    <path
       style="fill:none;stroke:#000000;stroke-width:0.13355769px;stroke-linecap:butt;stroke-linejoin:miter;stroke-opacity:1"
       d="m 192.39635,850.45789 -4.01157,11.73467"
       id="path4800-3-9"
       inkscape:connector-curvature="0" />
  </g>
</svg>
