<?xml version="1.0" encoding="UTF-8" standalone="no"?>
<!-- Created with Inkscape (http://www.inkscape.org/) -->

<svg
   xmlns:dc="http://purl.org/dc/elements/1.1/"
   xmlns:cc="http://creativecommons.org/ns#"
   xmlns:rdf="http://www.w3.org/1999/02/22-rdf-syntax-ns#"
   xmlns:svg="http://www.w3.org/2000/svg"
   xmlns="http://www.w3.org/2000/svg"
   xmlns:xlink="http://www.w3.org/1999/xlink"
   xmlns:sodipodi="http://sodipodi.sourceforge.net/DTD/sodipodi-0.dtd"
   xmlns:inkscape="http://www.inkscape.org/namespaces/inkscape"
   width="48"
   height="48"
   id="svg5274"
   version="1.1"
   inkscape:version="0.48.5 r10040"
   sodipodi:docname="applications-python.svg">
  <defs
     id="defs5276">
    <linearGradient
       inkscape:collect="always"
       xlink:href="#linearGradient4092"
       id="linearGradient18220"
       gradientUnits="userSpaceOnUse"
       gradientTransform="matrix(12.301069,0,0,12.131585,-48672.843,15598.621)"
       x1="116.53692"
       y1="58.201862"
       x2="77.087646"
       y2="118.20246" />
    <linearGradient
       id="linearGradient4092">
      <stop
         id="stop4094"
         style="stop-color:#2b5d87;stop-opacity:1"
         offset="0" />
      <stop
         id="stop4096"
         style="stop-color:#4182b8;stop-opacity:1"
         offset="1" />
    </linearGradient>
    <linearGradient
       inkscape:collect="always"
       xlink:href="#linearGradient4092"
       id="linearGradient3820"
       gradientUnits="userSpaceOnUse"
       gradientTransform="matrix(1.5485255,0,0,1.5271899,-54.298257,746.96787)"
       x1="116.53692"
       y1="58.201862"
       x2="77.087646"
       y2="118.20246" />
  </defs>
  <sodipodi:namedview
     id="base"
     pagecolor="#ffffff"
     bordercolor="#666666"
     borderopacity="1.0"
     inkscape:pageopacity="0.0"
     inkscape:pageshadow="2"
     inkscape:zoom="2.4076493"
     inkscape:cx="130.40239"
     inkscape:cy="110.43242"
     inkscape:document-units="px"
     inkscape:current-layer="layer1"
     showgrid="false"
     inkscape:window-width="1914"
     inkscape:window-height="1031"
     inkscape:window-x="0"
     inkscape:window-y="25"
     inkscape:window-maximized="1" />
  <metadata
     id="metadata5279">
    <rdf:RDF>
      <cc:Work
         rdf:about="">
        <dc:format>image/svg+xml</dc:format>
        <dc:type
           rdf:resource="http://purl.org/dc/dcmitype/StillImage" />
        <dc:title />
      </cc:Work>
    </rdf:RDF>
  </metadata>
  <g
     inkscape:label="Capa 1"
     inkscape:groupmode="layer"
     id="layer1"
     transform="translate(0,-1004.3622)">
    <g
       id="g3803"
       transform="matrix(0.18353332,0,0,0.18353332,1.0005212,858.39974)">
      <rect
         style="fill:#ffffff;fill-rule:evenodd;stroke:none"
         y="1.1762954"
         x="-1051.6658"
         class="fil3 str0"
         transform="matrix(-0.00430507,-0.99999073,0.99998792,-0.00491528,0,0)"
         width="253.23111"
         height="243.82559"
         rx="40.195328"
         ry="59.435226"
         id="rect7046-0-2-9-5-1-9-7-6-7" />
      <g
         transform="matrix(0.90133518,0,0,0.90133518,9.8504908,90.391627)"
         id="g3786">
        <rect
           id="rect7046-0-2-9-1-0-8-9-1"
           ry="53.794827"
           rx="36.380795"
           height="220.68657"
           width="229.19949"
           transform="matrix(-0.00430507,-0.99999073,0.99998792,-0.00491528,0,0)"
           class="fil3 str0"
           x="-1041.6218"
           y="14.857241"
           style="fill:#b8db7c;fill-rule:evenodd;stroke:#72706f;stroke-width:6.76739025" />
        <path
           id="path7050-7-1-0-9-3-8-09-4"
           d="m 98.514708,811.53086 c 19.086122,-3.16061 104.645542,-1.54827 118.971312,5.60757 13.28292,6.63428 18.96036,20.23432 19.40637,37.45205 l 2.04841,79.01791"
           class="fil2"
           inkscape:connector-curvature="0"
           style="fill:none" />
        <path
           id="path7054-6-7-2-3-9-0-5-8"
           d="m 18.766659,939.93388 c 0,13.9077 -2.469117,30.38094 -1.361451,44.25037 3.458073,43.30305 20.396085,58.61955 66.804508,55.62735 8.94265,-0.5758 57.258364,1.2637 67.483784,1.2637"
           class="fil2"
           inkscape:connector-curvature="0"
           style="fill:none" />
        <path
           style="font-size:medium;font-style:normal;font-variant:normal;font-weight:normal;font-stretch:normal;text-indent:0;text-align:start;text-decoration:none;line-height:normal;letter-spacing:normal;word-spacing:normal;text-transform:none;direction:ltr;block-progression:tb;writing-mode:lr-tb;text-anchor:start;baseline-shift:baseline;color:#000000;fill:#00923f;fill-opacity:1;fill-rule:evenodd;stroke:#737373;stroke-width:4.70287037;stroke-miterlimit:4;stroke-opacity:1;stroke-dasharray:none;marker:none;visibility:visible;display:inline;overflow:visible;enable-background:accumulate;font-family:Sans;-inkscape-font-specification:Sans"
           d="m 78.801803,827.43837 c -6.448104,-0.0113 -10.752756,0.99928 -10.752756,0.99928 l 4.198405,19.86963 c 0,0 10.907218,-1.93498 20.506235,2.16536 -1.194779,-0.46867 1.312607,1.20863 3.257915,4.23265 2.2784,3.54166 5.183078,8.77761 8.372138,15.03449 4.12929,8.10186 8.77824,17.94925 13.6383,28.51595 l -49.345958,111.29647 18.571376,8.23 42.022322,-94.77752 c 6.6922,14.81584 13.38515,29.62764 19.47762,42.2571 7.05425,14.62323 12.46694,25.68604 18.73805,32.79278 9.53331,10.80414 19.24197,15.96974 26.89442,18.02294 7.65295,2.053 14.26546,0.7837 14.26546,0.7837 l -4.56574,-19.79119 c 0,0 -0.64163,0.40976 -4.43355,-0.60752 -3.79142,-1.01716 -9.71496,-3.66843 -16.93034,-11.84544 -2.10329,-2.38377 -8.8218,-13.96901 -15.67626,-28.17795 -6.85421,-14.20907 -14.68089,-31.67378 -22.43165,-48.81195 -7.75077,-17.13805 -15.41367,-33.93381 -22.12802,-47.10709 -3.35711,-6.58645 -6.45843,-12.25155 -9.38614,-16.80294 -2.92772,-4.55126 -4.27243,-8.12842 -10.67949,-11.16931 -8.572677,-4.06937 -17.163729,-5.09899 -23.612337,-5.10944 z"
           id="path4552-0-2-4-0-9"
           inkscape:connector-curvature="0" />
        <path
           style="fill:#000000;fill-rule:evenodd;stroke:none"
           d="m 209.03092,1017.487 c -0.13709,0.03 -2.77086,-0.7912 -3.46399,-5.8698 -2.36589,-16.89999 2.28759,-11.4452 -7.53185,-15.27884 -0.80605,-0.29583 -1.58641,-0.68053 -2.32964,-1.11786 l 0,0 c -20.98787,-9.52235 -24.69041,-31.92794 -31.47501,-47.87914 -0.8637,-1.96721 -1.87141,-3.81106 -2.58455,-5.78456 -0.10675,-0.2981 -0.14553,-0.46062 -0.11191,-0.47761 l 0,0 0,0 c 0,0 0,0 0,0 0,0 0,0 0,0 l 0,0 -5.83693,-12.22109 c 0.034,-0.0162 5.61172,10.32802 5.7833,10.59389 1.11295,1.82446 2.59551,5.55671 3.46865,7.1581 1.89256,3.47255 4.49474,8.67225 7.67057,14.37222 1.34647,2.41674 2.7934,4.98984 4.34444,7.67158 1.55103,2.68161 3.20668,5.47161 4.97826,8.31738 1.09797,1.76365 2.23812,3.54707 3.44473,5.32017 0.3409,0.50077 0.68406,0.99651 1.02987,1.48608 1.25143,1.77032 2.51481,3.46487 3.90434,4.96013 3.42396,3.38129 9.2595,5.98951 12.74829,5.84398 1.07456,-0.2417 0.99638,-0.2174 2.63617,-0.81372 1.06348,5.15488 2.80447,13.89599 4.44388,17.54979 0.81083,3.9069 0.84985,7.6036 0.71251,7.6337 z"
           id="path5715-4-6-2-1-6"
           inkscape:connector-curvature="0"
           sodipodi:nodetypes="cccccccccccccccccsccccccccc" />
        <rect
           id="rect7046-0-2-9-5-1-9-7-6"
           ry="53.794827"
           rx="36.380795"
           height="220.68657"
           width="229.19949"
           transform="matrix(-0.00430507,-0.99999073,0.99998792,-0.00491528,0,0)"
           class="fil3 str0"
           x="-1041.6218"
           y="14.857241"
           style="fill:#000000;fill-rule:evenodd;stroke:#000000;stroke-width:6.76739025;stroke-opacity:1" />
        <path
           id="path7050-7-1-0-8-5-2-2-0"
           d="m 98.514708,811.53086 c 19.086122,-3.16061 104.645542,-1.54827 118.971312,5.60757 13.28292,6.63428 18.96036,20.23432 19.40637,37.45205 l 2.04841,79.01791"
           class="fil2"
           inkscape:connector-curvature="0"
           style="fill:none" />
        <path
           style="fill:#ffffff;fill-opacity:1;fill-rule:evenodd;stroke:#737373;stroke-width:0.07579628;stroke-opacity:1"
           id="path2732"
           inkscape:connector-curvature="0"
           d="m 169.66591,992.15242 c 0,11.78988 -10.3751,17.76118 -20.90504,20.73928 -15.84142,4.4899 -28.55484,3.8027 -41.79472,0 -11.056515,-3.1766 -20.905163,-9.6672 -20.905163,-20.73928 l 0,-38.89747 c 0,-11.19436 9.46155,-20.7546 20.905163,-20.7546 l 41.12627,-2.63705 c 13.92117,0 23.01954,-8.5699 23.01954,-22.63534 l 3.78802,-18.80225 15.6711,0 c 12.17136,0 17.90091,8.91874 20.90504,20.73925 4.18103,16.41723 4.36684,28.69584 0,41.49373 -4.22749,12.43132 -8.74916,20.73925 -20.90504,20.73925 l -20.90517,0 -41.79459,0 0,-0.0816 41.79459,0 0,20.83605 z" />
        <path
           style="fill:none;stroke:#000000;stroke-width:6.22130585;stroke-opacity:1"
           id="path2744"
           inkscape:connector-curvature="0"
           d="m 171.76115,992.15242 c 0,11.78988 -12.47034,17.76118 -23.00028,20.73928 -15.84142,4.4899 -28.55484,3.8027 -41.79472,0 -11.056515,-3.1766 -20.905163,-9.6672 -20.905163,-20.73928 l 0,-40.96388 c 0,-13.26392 9.760905,-20.45928 20.905163,-20.45928 l 37.17133,-0.21979 c 13.92129,0 28.01115,-14.05058 28.01115,-28.11601 l 0,-13.96775 18.42245,0 c 12.17136,0 17.90091,8.91874 20.90504,20.73925 4.18103,16.41723 4.36684,28.69584 0,41.49373 -4.22749,12.43132 -8.74916,22.21513 -20.90504,22.21513 l -18.80993,0 -43.88983,0 0,-0.0815 43.88983,0.14754 0,19.21251 z" />
        <path
           style="fill:url(#linearGradient3820);fill-opacity:1;fill-rule:evenodd;stroke:none"
           id="path2730"
           inkscape:connector-curvature="0"
           d="m 82.947589,862.3318 c 0,-11.78992 3.205421,-18.20404 20.905161,-21.25852 12.01652,-2.07699 27.42427,-2.33656 41.7946,0 11.35071,1.848 20.90504,10.18639 20.90504,21.25852 l 0,38.8976 c 0,11.40799 -9.27562,20.75448 -20.90504,20.75448 l -37.9036,2.06628 c -14.184522,0 -28.83293,12.2226 -28.83293,25.7077 l -1.197296,16.30078 -14.370327,0 c -12.155876,0 -19.232651,-8.64393 -22.205814,-20.73925 -4.01071,-16.2493 -3.840387,-25.93177 0,-41.49386 3.329292,-13.57662 13.967745,-20.73912 26.123621,-20.73912 l 15.686585,0 41.810201,0 0,-0.13822 -41.810201,0 0,-20.61639 0,0 z" />
        <path
           style="fill:#ffffff;fill-opacity:1;fill-rule:evenodd;stroke:#000000;stroke-width:6.22128344;stroke-miterlimit:4;stroke-opacity:1;stroke-dasharray:none"
           id="path3530"
           inkscape:connector-curvature="0"
           d="m 80.563192,863.42499 c 0,-11.78992 12.470338,-17.76117 23.000408,-20.73925 15.84129,-4.48995 28.55472,-3.80274 41.79459,0 11.05639,3.17647 20.90504,9.66712 20.90504,20.73925 l 0,38.89747 c 0,11.19436 -9.46142,22.52569 -20.90504,22.52569 l -38.94052,0 c -10.932269,0 -26.241827,11.86634 -26.241827,25.93177 l 0,16.37178 -18.422579,0 c -12.17136,0 -17.900909,-8.91873 -20.90504,-20.73925 -4.181033,-16.41722 -4.36684,-28.69596 0,-41.49373 4.227485,-12.43131 8.749164,-22.21525 20.90504,-22.21525 l 18.809928,0 43.889838,0 0,0.0817 -43.889838,-0.14767 0,-19.21251 z" />
        <path
           style="fill:#000000;fill-opacity:1;fill-rule:evenodd"
           id="path2734"
           inkscape:connector-curvature="0"
           d="m 95.733521,858.75615 c 0,-4.08208 3.395508,-7.38255 7.602219,-7.38255 4.19174,0 7.60222,3.30047 7.60222,7.38255 0,4.06761 -3.41048,7.36808 -7.60222,7.36808 -4.206711,0 -7.602219,-3.30047 -7.602219,-7.36808 z" />
        <path
           style="fill:#000000;fill-opacity:1;fill-rule:evenodd"
           id="path2736"
           inkscape:connector-curvature="0"
           d="m 141.44215,992.86657 c 0,-4.29131 3.51522,-7.7733 7.83561,-7.7733 4.33587,0 7.83561,3.48199 7.83561,7.7733 0,4.30667 -3.49974,7.78863 -7.83561,7.78863 -4.32039,0 -7.83561,-3.48196 -7.83561,-7.78863 z" />
      </g>
    </g>
  </g>
</svg>
