<?xml version="1.0" encoding="UTF-8" standalone="no"?>
<!-- Created with Inkscape (http://www.inkscape.org/) -->

<svg
   xmlns:dc="http://purl.org/dc/elements/1.1/"
   xmlns:cc="http://creativecommons.org/ns#"
   xmlns:rdf="http://www.w3.org/1999/02/22-rdf-syntax-ns#"
   xmlns:svg="http://www.w3.org/2000/svg"
   xmlns="http://www.w3.org/2000/svg"
   xmlns:xlink="http://www.w3.org/1999/xlink"
   xmlns:sodipodi="http://sodipodi.sourceforge.net/DTD/sodipodi-0.dtd"
   xmlns:inkscape="http://www.inkscape.org/namespaces/inkscape"
   width="48"
   height="48"
   id="svg2"
   version="1.1"
   inkscape:version="0.48.5 r10040"
   sodipodi:docname="applications-3D.svg">
  <defs
     id="defs4">
    <linearGradient
       id="linearGradient39155">
      <stop
         style="stop-color:white;stop-opacity:1;"
         offset="0"
         id="stop39157" />
      <stop
         style="stop-color:#dadada;stop-opacity:1;"
         offset="1"
         id="stop39159" />
    </linearGradient>
    <linearGradient
       inkscape:collect="always"
       xlink:href="#linearGradient39155"
       id="linearGradient3039"
       gradientUnits="userSpaceOnUse"
       x1="31.1875"
       y1="18.875"
       x2="29.875"
       y2="34.375" />
  </defs>
  <sodipodi:namedview
     id="base"
     pagecolor="#ffffff"
     bordercolor="#666666"
     borderopacity="1.0"
     inkscape:pageopacity="0.0"
     inkscape:pageshadow="2"
     inkscape:zoom="2.0300045"
     inkscape:cx="185.43575"
     inkscape:cy="136.79972"
     inkscape:document-units="px"
     inkscape:current-layer="layer1"
     showgrid="false"
     inkscape:window-width="1914"
     inkscape:window-height="1031"
     inkscape:window-x="0"
     inkscape:window-y="25"
     inkscape:window-maximized="1" />
  <metadata
     id="metadata7">
    <rdf:RDF>
      <cc:Work
         rdf:about="">
        <dc:format>image/svg+xml</dc:format>
        <dc:type
           rdf:resource="http://purl.org/dc/dcmitype/StillImage" />
        <dc:title />
      </cc:Work>
    </rdf:RDF>
  </metadata>
  <g
     inkscape:label="Capa 1"
     inkscape:groupmode="layer"
     id="layer1"
     transform="translate(0,-1004.3622)">
    <path
       style="fill:#ffffff;fill-opacity:1;fill-rule:evenodd;stroke:none"
       id="path2482-6"
       d="m 14.921359,1035.4691 c 0.01026,0.6054 -0.701102,0.5451 -0.41279,1.4685 0.610538,1.9465 1.644872,3.7505 3.085488,5.3397 1.477576,1.6304 3.294804,2.9429 5.395228,3.8736 2.210212,0.9779 4.603157,1.4775 7.086284,1.4736 2.483125,-0.011 4.875884,-0.513 7.08503,-1.4981 2.099625,-0.9398 3.916836,-2.2553 5.393386,-3.89 1.437385,-1.5956 2.469721,-3.4025 3.080189,-5.35 0.308919,-0.9852 0.500671,-1.9835 0.580796,-2.9871 0.07697,-0.986 0.04412,-1.9773 -0.09641,-2.9644 -0.27292,-1.927 -0.94092,-3.7339 -1.9659,-5.3829 -0.940132,-1.5135 -2.149785,-2.8392 -3.587442,-3.9546 l 0.0021,0 -14.517071,-11.1486 c -0.01234,-0.011 -0.02365,-0.02 -0.03706,-0.03 -0.95426,-0.7305 -2.556018,-0.7285 -3.602615,0 -3.40507,2.3857 -2.101552,4.8562 1.326772,7.5527 l -13.9714027,-0.095 c -4.9884342,0.161 -4.0270144,7.7408 -1.4768705,7.634 3.1038052,0 3.6809092,-0.09 6.7957612,-0.096 l -13.6415254,10.1228 c -2.4669939,2.2761 -0.2248192,9.0912 5.4803312,6.1018 l 8.1198692,-6.2184 c 0.04777,-0.3567 -0.05263,-0.8227 -0.122134,0.045 z"
       sodipodi:nodetypes="csssssssssscccsccccccccc"
       inkscape:connector-curvature="0" />
    <path
       style="fill:#000000;fill-opacity:1;fill-rule:evenodd;stroke:none"
       id="path2482"
       d="m 15.516647,1033.9143 c 0.0091,0.5377 0.183191,1.5831 0.439266,2.4033 0.54227,1.7287 1.460951,3.3311 2.740486,4.7426 1.312362,1.4481 2.926397,2.6137 4.791966,3.4404 1.963074,0.8686 4.088454,1.3124 6.293932,1.3088 2.205475,-0.011 4.33069,-0.4557 6.29282,-1.3305 1.864858,-0.8348 3.478878,-2.0033 4.790329,-3.4552 1.276663,-1.417 2.193568,-3.022 2.735777,-4.7517 0.274379,-0.8749 0.444688,-1.7617 0.515854,-2.6531 0.06836,-0.8758 0.0392,-1.7562 -0.08563,-2.6329 -0.242401,-1.7115 -0.835712,-3.3165 -1.746084,-4.7811 -0.835012,-1.3442 -1.909407,-2.5217 -3.186314,-3.5123 l 0.0018,0 -12.893854,-9.9021 c -0.01096,-0.011 -0.021,-0.018 -0.03291,-0.026 -0.847561,-0.6489 -2.270217,-0.6471 -3.199788,0.011 -0.942362,0.658 -1.018026,1.687 -0.182311,2.376 1.771374,1.3983 3.535779,2.8607 5.316965,4.2589 l -16.365434,-0.011 c -1.8598729,0 -2.9541355,0.8838 -3.1845687,2.176 -0.2033345,1.1402 0.697376,2.5531 2.3124157,2.5531 2.756755,0 5.540503,-0.011 8.30707,-0.012 l -14.8269675,10.9688 c -0.01914,0.014 -0.038279,0.028 -0.057419,0.042 -1.396226,1.0708 -1.8491635,2.8525 -0.9697039,3.9799 0.8949689,1.1465 2.795171,1.1474 4.2096097,0.011 l 8.0911137,-6.6221 c 0,0 -0.11666,0.8949 -0.108472,1.4317 z"
       sodipodi:nodetypes="csssssssssscccsscccscccsscccc"
       inkscape:connector-curvature="0" />
    <path
       sodipodi:type="arc"
       style="color:#000000;fill:url(#linearGradient3039);fill-opacity:1;fill-rule:nonzero;stroke:none;stroke-width:0.58847016;marker:none;visibility:visible;display:inline;overflow:visible;enable-background:accumulate"
       id="path39153"
       sodipodi:cx="31.1875"
       sodipodi:cy="25.75"
       sodipodi:rx="11.5625"
       sodipodi:ry="10.125"
       d="m 42.75,25.75 a 11.5625,10.125 0 1 1 -23.125,0 11.5625,10.125 0 1 1 23.125,0 z"
       transform="matrix(0.76609133,0,0,0.78276754,6.0313723,1011.3398)" />
    <path
       style="fill:#000000;fill-opacity:1;fill-rule:evenodd;stroke:none"
       id="path2478"
       d="m 24.884658,1031.213 c 0.06943,-1.2692 0.689325,-2.3895 1.62119,-3.1826 0.917053,-0.7797 2.148485,-1.2557 3.49364,-1.2557 1.344307,0 2.575751,0.476 3.492577,1.2557 0.932899,0.7931 1.552047,1.9125 1.622285,3.1817 0.07197,1.3062 -0.450173,2.5191 -1.365283,3.4172 -0.932898,0.9152 -2.263062,1.4896 -3.749579,1.4896 -1.48735,0 -2.81753,-0.5744 -3.750367,-1.4896 -0.916069,-0.8981 -1.436403,-2.111 -1.364463,-3.4163 z"
       inkscape:connector-curvature="0" />
  </g>
</svg>
