<?xml version="1.0" encoding="UTF-8" standalone="no"?>
<!-- Created with Inkscape (http://www.inkscape.org/) -->

<svg
   xmlns:dc="http://purl.org/dc/elements/1.1/"
   xmlns:cc="http://creativecommons.org/ns#"
   xmlns:rdf="http://www.w3.org/1999/02/22-rdf-syntax-ns#"
   xmlns:svg="http://www.w3.org/2000/svg"
   xmlns="http://www.w3.org/2000/svg"
   xmlns:sodipodi="http://sodipodi.sourceforge.net/DTD/sodipodi-0.dtd"
   xmlns:inkscape="http://www.inkscape.org/namespaces/inkscape"
   width="256"
   height="256"
   id="svg2"
   version="1.1"
   inkscape:version="0.48.3.1 r9886"
   sodipodi:docname="applications-science.svg">
  <defs
     id="defs4" />
  <sodipodi:namedview
     id="base"
     pagecolor="#ffffff"
     bordercolor="#666666"
     borderopacity="1.0"
     inkscape:pageopacity="0.0"
     inkscape:pageshadow="2"
     inkscape:zoom="2.3179502"
     inkscape:cx="83.103025"
     inkscape:cy="95.077083"
     inkscape:document-units="px"
     inkscape:current-layer="layer1"
     showgrid="false"
     inkscape:window-width="1918"
     inkscape:window-height="1007"
     inkscape:window-x="0"
     inkscape:window-y="25"
     inkscape:window-maximized="1" />
  <metadata
     id="metadata7">
    <rdf:RDF>
      <cc:Work
         rdf:about="">
        <dc:format>image/svg+xml</dc:format>
        <dc:type
           rdf:resource="http://purl.org/dc/dcmitype/StillImage" />
        <dc:title></dc:title>
      </cc:Work>
    </rdf:RDF>
  </metadata>
  <g
     inkscape:label="Capa 1"
     inkscape:groupmode="layer"
     id="layer1"
     transform="translate(0,-796.36218)">
    <path
       style="fill:#000000;fill-opacity:1;fill-rule:evenodd;stroke:#000000;stroke-width:0.75728458;stroke-miterlimit:4;stroke-opacity:1;stroke-dasharray:none"
       d="m 124.05587,800.04491 c -6.457,0.018 -9.48009,5.48137 -9.48009,5.48137 l -28.293971,130.143 21.184071,4.60905 13.28001,-59.96972 c 1.89432,0.77148 11.1617,4.71033 19.53437,11.20513 17.03914,14.01849 35.11605,55.17298 15.47447,81.11461 -2.02375,2.10802 -6.68495,6.91899 -12.62084,9.74923 -6.97346,3.32499 -15.18199,4.53284 -15.18199,4.53284 L 69.050375,986.795 c 0,0 -2.020955,0.74277 -2.016427,3.61494 0.0051,3.22527 2.016427,3.87475 2.016427,3.87475 0,0 26.068914,0.77743 35.454555,4.49708 3.96852,1.57273 10.30476,6.07693 13.03844,11.74023 2.40546,4.9833 1.46004,11.2959 1.46004,11.2959 l 0.12226,18.099 17.37648,0.3984 c 0.15324,-5.4623 -0.50197,-12.1794 0.27595,-17.6823 17.52089,-7.8982 30.82464,-23.11401 37.47098,-38.57669 8.91819,-20.74819 7.83923,-41.50925 7.83923,-41.50925 0,0 -0.39006,-9.48442 -3.16377,-19.35871 -2.50534,-8.91893 -7.26027,-18.10612 -9.98414,-21.79836 -3.56401,-4.83092 -8.78378,-11.82121 -15.3719,-17.68117 -11.51293,-10.2405 -25.09387,-19.35365 -28.75678,-21.76026 l 11.48761,-51.88076 c 0,0 -0.8829,-7.08702 -8.38165,-9.42018 -1.37612,-0.42817 -2.6661,-0.60603 -3.86181,-0.60271 z"
       id="path8926"
       inkscape:connector-curvature="0"
       sodipodi:nodetypes="sccccccsccscssccccscscsccss" />
    <rect
       style="fill:#000000;fill-opacity:1;fill-rule:evenodd;stroke:#000000;stroke-opacity:1;stroke-width:1.02894537;stroke-miterlimit:4;stroke-dasharray:none"
       id="rect8938"
       width="28.289936"
       height="12.148919"
       x="368.89886"
       y="873.16211"
       rx="9.4302893"
       transform="matrix(0.96381914,0.26655707,-0.31018628,0.9506758,0,0)" />
    <rect
       style="fill:#000000;fill-opacity:1;fill-rule:evenodd;stroke:#000000;stroke-opacity:1;stroke-width:1.01474411;stroke-miterlimit:4;stroke-dasharray:none"
       id="rect8940"
       width="6.1878543"
       height="10.54124"
       x="309.52026"
       y="893.53918"
       rx="0"
       transform="matrix(0.97341121,0.22906465,-0.23838486,0.97117077,0,0)"
       inkscape:transform-center-x="116.16137"
       inkscape:transform-center-y="52.60417" />
    <rect
       style="fill:#000000;fill-opacity:1;fill-rule:evenodd;stroke:#000000;stroke-opacity:1;stroke-width:1.0147509;stroke-miterlimit:4;stroke-dasharray:none"
       id="rect8940-5"
       width="6.1877761"
       height="10.541378"
       x="319.35089"
       y="893.10718"
       rx="0"
       transform="matrix(0.97310833,0.23034796,-0.23971396,0.97084356,0,0)"
       inkscape:transform-center-x="116.23117"
       inkscape:transform-center-y="52.447765" />
    <rect
       style="fill:#000000;fill-opacity:1;fill-rule:evenodd;stroke:#000000;stroke-opacity:1;stroke-width:1.13848541;stroke-miterlimit:4;stroke-dasharray:none"
       id="rect8938-0"
       width="117.62526"
       height="12.218413"
       x="201.38483"
       y="1045.8845"
       rx="7.7882233"
       transform="matrix(0.99999962,-8.7387231e-4,-0.12717055,0.99188086,0,0)" />
    <path
       style="fill:#ffffff;fill-opacity:1;fill-rule:evenodd;stroke:#000000;stroke-width:2.383;stroke-miterlimit:4;stroke-opacity:1;stroke-dasharray:none"
       id="path2478-5"
       d="m 115.36314,862.28277 c 0.1189,-2.12862 1.18077,-4.00757 2.77703,-5.33782 1.57086,-1.30768 3.68027,-2.10613 5.98445,-2.10613 2.30275,0 4.41216,0.79845 5.98264,2.10613 1.59804,1.33025 2.65859,3.20779 2.77892,5.33642 0.12328,2.19074 -0.77113,4.22485 -2.33867,5.73145 -1.59804,1.53479 -3.87656,2.49824 -6.42289,2.49824 -2.54776,0 -4.82632,-0.96345 -6.42424,-2.49824 -1.56917,-1.5066 -2.46048,-3.54071 -2.33724,-5.73005 z"
       inkscape:connector-curvature="0" />
  </g>
</svg>
