<?xml version="1.0" encoding="UTF-8" standalone="no"?>
<!-- Created with Inkscape (http://www.inkscape.org/) -->

<svg
   xmlns:dc="http://purl.org/dc/elements/1.1/"
   xmlns:cc="http://creativecommons.org/ns#"
   xmlns:rdf="http://www.w3.org/1999/02/22-rdf-syntax-ns#"
   xmlns:svg="http://www.w3.org/2000/svg"
   xmlns="http://www.w3.org/2000/svg"
   xmlns:sodipodi="http://sodipodi.sourceforge.net/DTD/sodipodi-0.dtd"
   xmlns:inkscape="http://www.inkscape.org/namespaces/inkscape"
   width="256"
   height="256"
   id="svg4631"
   version="1.1"
   inkscape:version="0.48.3.1 r9886"
   sodipodi:docname="applications-geography.svg">
  <defs
     id="defs4633" />
  <sodipodi:namedview
     id="base"
     pagecolor="#ffffff"
     bordercolor="#666666"
     borderopacity="1.0"
     inkscape:pageopacity="0.0"
     inkscape:pageshadow="2"
     inkscape:zoom="2.5730033"
     inkscape:cx="84.301255"
     inkscape:cy="115.11983"
     inkscape:document-units="px"
     inkscape:current-layer="layer1"
     showgrid="false"
     inkscape:window-width="1918"
     inkscape:window-height="1007"
     inkscape:window-x="0"
     inkscape:window-y="25"
     inkscape:window-maximized="1" />
  <metadata
     id="metadata4636">
    <rdf:RDF>
      <cc:Work
         rdf:about="">
        <dc:format>image/svg+xml</dc:format>
        <dc:type
           rdf:resource="http://purl.org/dc/dcmitype/StillImage" />
        <dc:title></dc:title>
      </cc:Work>
    </rdf:RDF>
  </metadata>
  <g
     inkscape:label="Capa 1"
     inkscape:groupmode="layer"
     id="layer1"
     transform="translate(0,-796.36218)">
    <circle
       d="M 57.894501,0 C 57.894501,31.97425 31.97425,57.894501 0,57.894501 -31.97425,57.894501 -57.894501,31.97425 -57.894501,0 c 0,-31.97425 25.920251,-57.894501 57.894501,-57.894501 31.97425,0 57.894501,25.920251 57.894501,57.894501 z"
       sodipodi:ry="57.894501"
       sodipodi:rx="57.894501"
       sodipodi:cy="0"
       sodipodi:cx="0"
       cy="0"
       cx="0"
       id="_67621792-4"
       class="fil0 str0"
       transform="matrix(2.1175519,-0.03307482,0.03307482,2.1175519,128.6734,926.23389)"
       r="57.894501"
       style="fill:#000000;fill-opacity:1;fill-rule:nonzero;stroke:none;stroke-width:3.51563001000000019" />
    <path
       inkscape:connector-curvature="0"
       id="_67742368-0"
       class="fil1 str1"
       d="m 52.898789,841.1286 -2.051994,0.0949 c 0.708959,2.72574 4.119891,4.38868 6.390128,5.6215 0,4.60775 1.075401,6.92633 5.475676,7.02774 0,-6.81356 -8.555226,-15.267 -8.671509,-20.61222 3.049266,2.09614 1.843284,2.42322 3.245237,5.57078 0.399839,0.89933 3.036535,3.63978 4.073669,5.20783 l -0.471553,2.33823 c 2.133257,0.18151 9.175015,10.40417 9.243483,10.79005 l -0.571936,4.66827 c 2.442293,3.74274 7.259982,4.88567 11.410203,7.02607 2.773566,1.43074 3.065151,1.92451 7.30294,1.87381 3.312099,-0.0392 6.13834,0.19297 6.388616,3.27843 0.480966,0.0409 6.970041,2.65539 7.921101,3.11324 2.97117,1.43069 1.85277,3.87688 5.31471,6.2559 l 0,2.34318 c 1.38618,0.95156 8.44844,5.15219 10.04166,5.15219 l 1.37006,0 -0.36946,-0.4431 2.70985,-2.37584 0.39678,0.47583 c 0.75031,2.88107 1.82564,4.87759 1.82564,8.90153 l 0,0.4677 c 0,1.67107 -2.65735,2.40194 -2.73855,6.08916 -1.95168,1.06113 -3.36969,3.16227 -3.94779,5.78665 -0.18483,0.84205 -1.07236,8.70204 -1.07236,8.73476 0,1.2541 0.65966,1.38657 1.37025,1.87385 -0.25657,0.37767 -0.9129,1.15762 -0.9129,1.40618 0,1.53535 2.16833,2.2891 3.17996,3.2931 1.07059,1.06117 1.54054,2.59005 2.12055,4.3821 1.02737,3.18517 3.24822,5.53479 4.61058,8.38315 1.17248,2.45106 -0.13074,2.56555 1.97703,4.5293 1.14851,1.07097 2.259,1.91797 3.55435,2.91046 1.54525,1.18548 5.89768,5.13917 7.63755,5.53486 l 0.19586,14.06191 c 0.24064,0.35482 0.93042,1.1822 0.48429,1.3735 l -0.48429,11.74337 c -0.0685,0.94673 -0.91274,0.327 -0.91274,1.8738 0,2.55734 0.91274,2.59492 0.91274,5.15224 l 0,2.81076 c 0,1.62695 -0.91274,0.71455 -0.91274,2.34312 l 0,0.46763 c 0,1.42745 0.20863,1.71363 0.45717,2.81075 -0.5816,0.89116 -1.49275,1.74142 -1.27294,3.27022 l 0.36002,8.44041 0,0.4693 c 0,2.1272 0.97505,2.4429 1.71906,3.7509 l 0.54484,9.2647 -3.1768,0.5689 0,1.4045 c 0,0.1717 2.80243,4.0829 3.1719,4.67 l -1.80325,3.293 c 1.02266,4.5047 4.95467,12.5315 10.04149,12.6476 l 0,-1.4046 0.79339,0.065 1.03244,2.2762 c -1.00689,0.025 -2.28299,-0.1423 -2.28299,0.9368 0,1.3146 3.18313,3.7477 3.65147,3.7477 2.4104,0 4.36206,-0.551 5.93445,-1.4046 -1.63294,-2.5033 -6.6004,-5.8536 -6.85679,-8.8753 l 1.49904,0.4169 -1.03227,-5.5953 c 1.00689,-0.5462 1.82565,-0.4089 1.82565,-1.8738 l 0,-2.8108 c 1.37812,-0.3287 2.73874,-0.2698 2.73874,-1.8722 l 0,-0.4693 c 0,-2.9841 -2.23522,-3.6676 -4.10882,-4.6845 1.6601,-2.5426 4.00518,-1.3147 4.10882,-6.0893 1.40347,-0.3843 1.82563,-0.9107 1.82563,-2.8107 l -0.005,-1.8575 -2.27824,-0.4856 0,-1.8722 c 1.25385,0.2993 1.8561,0.9369 2.73855,0.9369 1.04524,0 0.53066,-0.1602 1.82582,-0.4692 l 0,-1.4046 c 0,-6.88215 1.60758,-3.8556 4.3876,-4.3624 2.0966,-0.3843 5.19674,-2.52307 5.19674,-5.00678 l 0,-0.93691 c 0,-2.04716 -0.91272,-1.70052 -0.91272,-3.74769 l 0.0248,-1.30971 2.25913,-0.56411 0,1.40619 1.36832,0 c 3.22319,0 3.84417,-3.79675 5.56953,-6.4636 1.45005,-2.24174 3.45737,-5.39584 5.05671,-7.45772 2.60658,-3.36015 0.0384,-7.78477 2.49494,-10.08701 0.86687,-0.81265 2.56493,-1.51576 3.64988,-2.34475 0.52734,-0.40551 3.27412,-3.15904 3.31245,-3.15904 1.16932,0 1.10229,0.11282 1.93383,0.62628 l 3.9987,-2.96775 0,-2.34311 c 5.26708,-3.62012 2.07433,-7.81909 4.56454,-12.6476 -0.34391,-1.51412 -0.91273,-2.90397 -0.91273,-4.68458 0,-4.49981 7.75869,-7.24193 7.75869,-18.26907 l 0,-0.46754 c 0,-1.04982 -0.36195,-1.02852 -0.9131,-1.87393 -8.64271,0 -4.71891,-2.74042 -7.78581,-4.18751 -0.0747,-0.0359 -10.03344,-1.43398 -10.5403,-1.39966 l -0.84273,-2.37579 c -1.65657,-0.14226 -4.87504,-1.4062 -5.02171,-1.4062 l -2.5791,-0.10124 -1.07218,-1.77251 -3.19431,0 c 0.16889,-0.36132 0.49409,-1.24919 0.73281,-1.58931 0.38224,-0.53957 1.09301,-0.49209 1.09301,-1.22141 0,-1.5811 -1.38144,-1.02521 -1.82582,-4.21534 -0.3392,-2.44278 -0.56707,-3.21952 -3.19432,-3.2784 -0.66281,-2.54258 -3.63851,-3.74762 -6.84732,-3.74762 l -3.64989,0 c -0.41585,-1.59751 -9.85841,-11.24309 -11.41173,-11.24309 -1.96268,0 -2.4741,0.5461 -4.10704,0.93692 -0.32186,-0.17494 -2.24168,-1.40456 -2.28141,-1.40456 -1.19819,0 -1.18227,0.76521 -3.19588,0.93689 -0.11325,-1.39799 -0.32817,-2.34309 -1.82582,-2.34309 -2.52031,0 -3.05238,0.93526 -4.9356,1.37186 l -0.55115,-1.39802 1.62823,-0.73578 -2.07434,-1.57952 c -0.84606,0.45948 -6.26752,3.74766 -6.84579,3.74766 l -1.37006,0 c 0,2.43795 -0.39678,5.15225 -2.73875,5.15225 -0.89995,0 -1.12939,-1.87385 -2.73854,-1.87385 l -1.3685,0 c -1.58517,0 -0.69623,0.93695 -2.2814,0.93695 l -1.37006,0 c -2.57946,0 -2.88523,-1.87381 -3.89212,-3.7788 l -1.12801,-6.05804 c 0.71056,-0.4889 1.36866,-0.62132 1.36866,-1.8738 l 0,-0.937 c 0,-0.5951 -2.02973,-3.74758 -3.19432,-3.74758 l -6.76298,-0.13253 4.01796,-12.43172 -7.75222,-0.55272 c -0.290013,3.56129 -2.689369,7.49541 -6.3902,7.49541 -4.400378,0 -7.758681,-5.39097 -7.758681,-9.36759 l 0,-0.93687 c 0,-3.69209 1.60914,-5.77038 1.836841,-8.5206 l -3.662492,-0.38099 c -1.649047,-2.52625 -2.719653,-8.43059 -5.934534,-8.43059 -1.572505,0 -1.766816,0.34664 -3.17357,0.44641 l -6.068279,-6.40966 -0.342573,0.34168 c -0.729656,0.50202 -3.524101,2.34154 -4.564387,2.34154 l -0.912867,0 c -3.708834,0 -7.862207,-3.74769 -9.127161,-3.74769 l -5.263757,0.103 4.577117,11.5128 z"
       style="fill:#ffffff;fill-opacity:1;fill-rule:nonzero;stroke:none" />
  </g>
</svg>
