<?xml version="1.0" encoding="UTF-8" standalone="no"?>
<!-- Created with Inkscape (http://www.inkscape.org/) -->

<svg
   xmlns:dc="http://purl.org/dc/elements/1.1/"
   xmlns:cc="http://creativecommons.org/ns#"
   xmlns:rdf="http://www.w3.org/1999/02/22-rdf-syntax-ns#"
   xmlns:svg="http://www.w3.org/2000/svg"
   xmlns="http://www.w3.org/2000/svg"
   xmlns:sodipodi="http://sodipodi.sourceforge.net/DTD/sodipodi-0.dtd"
   xmlns:inkscape="http://www.inkscape.org/namespaces/inkscape"
   width="48"
   height="48"
   id="svg2"
   version="1.1"
   inkscape:version="0.48.5 r10040"
   sodipodi:docname="applications-drawing.svg">
  <defs
     id="defs4" />
  <sodipodi:namedview
     id="base"
     pagecolor="#ffffff"
     bordercolor="#666666"
     borderopacity="1.0"
     inkscape:pageopacity="0.0"
     inkscape:pageshadow="2"
     inkscape:zoom="2.0462123"
     inkscape:cx="19.344834"
     inkscape:cy="124.95371"
     inkscape:document-units="px"
     inkscape:current-layer="layer1"
     showgrid="false"
     inkscape:window-width="1914"
     inkscape:window-height="1031"
     inkscape:window-x="0"
     inkscape:window-y="25"
     inkscape:window-maximized="1" />
  <metadata
     id="metadata7">
    <rdf:RDF>
      <cc:Work
         rdf:about="">
        <dc:format>image/svg+xml</dc:format>
        <dc:type
           rdf:resource="http://purl.org/dc/dcmitype/StillImage" />
        <dc:title />
      </cc:Work>
    </rdf:RDF>
  </metadata>
  <g
     inkscape:label="Capa 1"
     inkscape:groupmode="layer"
     id="layer1"
     transform="translate(0,-1004.3622)">
    <g
       id="g3797"
       transform="matrix(0.16781093,0,0,0.16781093,1.9847009,874.93994)">
      <path
         sodipodi:nodetypes="cccc"
         inkscape:connector-curvature="0"
         id="path3027"
         d="m 46.556986,823.72844 c -8.051573,7.71502 11.70766,32.78747 16.18875,36.87243 C 66.046524,854.439 86.5978,836.11493 86.5978,836.11493 74.969806,830.08589 65.959896,805.36583 46.556986,823.72844 z"
         style="fill:#ffffff;fill-opacity:1;fill-rule:evenodd;stroke:none" />
      <path
         sodipodi:nodetypes="cccc"
         inkscape:connector-curvature="0"
         id="path3025"
         d="m 175.77364,832.25859 c 0,0 14.2555,9.57951 19.13788,18.2155 7.00329,-2.36983 18.94205,-18.32023 11.17778,-27.17325 -16.67547,-11.00123 -22.67947,0.84803 -30.31566,8.95775 z"
         style="fill:#ffffff;fill-opacity:1;fill-rule:evenodd;stroke:none" />
      <path
         sodipodi:nodetypes="ccsscccccccccsc"
         inkscape:connector-curvature="0"
         id="path3023"
         d="m 131.9211,817.99655 c -1.90786,0.007 -3.8586,0.0563 -5.8529,0.15365 -72.935361,3.55711 -80.499415,79.15835 -81.188947,95.97075 -0.689674,16.81176 -4.95229,49.05064 -1.177691,52.21495 3.774527,3.16433 8.336128,4.93152 11.344764,1.9588 2.762625,-2.7292 9.807152,-25.93864 8.826393,-32.11037 0.994116,5.16893 1.89363,8.16767 26.280861,13.5937 21.86963,2.01957 31.2009,-19.68119 35.9284,-23.72701 4.72793,-4.04639 6.87518,-3.09866 10.60806,0.94471 3.73238,4.04343 3.98812,18.6906 31.59736,20.80199 22.16971,1.69471 24.28635,-13.39997 24.28635,-13.39997 0,0 14.48334,24.59605 18.58917,28.8455 5.82769,6.03076 14.57383,-9.96426 12.47431,-16.90392 -2.78134,-9.1929 -13.89669,-14.91136 -11.98931,-42.97369 1.85522,-27.29558 -11.86104,-85.60786 -79.72682,-85.36909 z"
         style="fill:#ffffff;fill-opacity:1;fill-rule:evenodd;stroke:none" />
      <path
         sodipodi:nodetypes="cscccccccc"
         inkscape:connector-curvature="0"
         id="path3021"
         d="m 235.73714,858.28504 c -5.18794,0.0208 -11.17902,2.10982 -17.79126,6.62868 -17.97941,12.2871 -10.80729,25.37535 -9.83114,38.15523 l -1.4895,-0.63002 c 8.21117,-22.25884 12.99295,-19.22808 17.80843,-14.48941 0.96254,6.18483 -6.60261,9.11283 -19.05537,15.78523 l 0.55762,12.60799 c 14.85697,3.72468 60.44052,-11.51689 57.19124,-32.46663 -0.13734,-15.93388 -15.22632,-25.229 -25.21505,-25.4741 -0.70782,-0.0803 -1.4338,-0.11995 -2.17497,-0.11697 z"
         style="fill:#ffffff;fill-opacity:1;fill-rule:evenodd;stroke:none" />
      <path
         sodipodi:nodetypes="ccccccc"
         inkscape:connector-curvature="0"
         id="path3019"
         d="m -4.9681582,887.69564 c -4.259684,20.76729 41.0457612,32.28848 56.0660512,29.28826 l -1.187027,-4.36276 c -5.951358,-6.78357 -19.19892,-14.50264 -18.642119,-19.68885 11.275928,-12.02543 8.565782,-3.66187 20.576549,15.54744 l 5.02182,-20.31081 C 46.220417,851.53143 0.82233444,838.66957 -4.9681582,887.69564 z"
         style="fill:#ffffff;fill-opacity:1;fill-rule:evenodd;stroke:none" />
      <path
         inkscape:connector-curvature="0"
         id="path3017"
         d="m 76.331907,885.94402 c -6.869702,5.43069 -10.796929,14.59245 -9.507656,24.29219 1.884521,14.18214 14.20537,24.14086 27.517697,22.24282 13.312882,-1.8981 22.576952,-14.93426 20.691872,-29.11634 l -0.0801,-0.55885 c -0.75732,-4.92294 -2.77174,-9.31038 -5.63873,-12.84144 5.2879,4.70561 9.06658,11.34254 10.26359,19.06931 l 0.11271,0.67157 c 2.29891,17.19283 -9.07115,33.01009 -25.394786,35.32259 -16.323635,2.31243 -31.427247,-9.74418 -33.72616,-26.93708 -1.811804,-13.54753 4.863596,-26.23965 15.761593,-32.14477 z"
         style="fill:#ffffff;fill-opacity:1;fill-rule:evenodd;stroke:none" />
      <path
         inkscape:connector-curvature="0"
         id="path3015"
         d="m 183.35035,890.91117 c 5.80897,4.25837 10.01882,10.80983 11.24279,18.59933 l 0.0866,0.60655 c 2.09754,15.48556 -8.39231,29.75255 -23.44303,31.85661 -15.05065,2.10398 -28.95379,-8.73939 -31.05077,-24.22502 -1.29184,-9.53691 2.19223,-18.61063 8.57392,-24.66686 -3.10641,4.07792 -4.62846,9.18622 -3.86456,14.48126 1.60897,11.15219 12.74335,18.90218 24.87052,17.30818 12.12724,-1.59393 20.65451,-11.92684 19.04554,-23.07903 l -0.0693,-0.44191 c -0.68204,-4.0466 -2.6182,-7.61995 -5.39174,-10.43911 z"
         style="fill:#ffffff;fill-opacity:1;fill-rule:evenodd;stroke:none" />
      <path
         sodipodi:nodetypes="csscscccccscc"
         inkscape:connector-curvature="0"
         id="path3013"
         d="m 154.76929,947.49847 c -6.89716,0 -16.79218,9.14358 -26.18635,6.41525 -9.22135,-2.67817 -17.7269,-5.23446 -26.12729,-7.59788 -8.400481,-2.36343 -12.558368,3.32862 -18.001056,8.69319 -5.443333,5.36457 18.800166,7.48687 16.123956,14.2253 -2.725247,6.86192 -16.211514,-17.59834 -21.598574,-1.44549 -5.209798,15.62359 0.397625,21.97307 3.935376,27.24418 10.321084,15.37848 26.888498,21.01398 51.100558,18.13818 24.19152,-2.873 41.82478,-12.2688 49.96136,-31.76376 1.87279,-4.48791 -0.33708,-14.80831 -8.07654,-20.12957 -9.71984,-6.68307 -14.54096,13.55967 -19.19797,8.37932 -4.91956,-5.47243 4.33776,2.61188 17.57466,-14.80303 -4.6139,-5.14859 -8.48798,-11.55552 -19.50813,-7.35569 z"
         style="fill:#ffffff;fill-opacity:1;fill-rule:evenodd;stroke:none" />
      <path
         inkscape:connector-curvature="0"
         id="path5150-3"
         d="m 169.32181,997.36075 c -0.13663,0.008 -0.291,0.0534 -0.46354,0.13377 -21.53722,10.03508 -51.68518,15.89628 -67.50854,11.23888 -15.822659,-4.6573 -2.397965,23.9107 28.88239,22.6296 30.30282,-1.2401 43.32615,-34.27768 39.08969,-34.00225 z"
         style="fill:#ffffff;fill-opacity:1;fill-rule:evenodd;stroke:none" />
      <g
         transform="matrix(0.06104282,0,0,0.06104282,1598.9223,273.25126)"
         style="fill:#000000;fill-rule:evenodd;stroke:none"
         id="g11453">
        <path
           sodipodi:nodetypes="cscccscccscssscccccccccscsscccccccsccscccccccccscccccscccccsccsscccssscsccccccccsccscc"
           inkscape:connector-curvature="0"
           style="fill:#000000;fill-opacity:1;stroke:none"
           d="m -25226.085,9060.4062 c -26.859,-0.018 -51.59,11 -72.313,37.375 -59.751,76.0461 154.794,374.2893 219.438,433.2188 47.617,-88.8909 181.937,-184.0312 181.937,-184.0312 0,0 -192.212,-286.4723 -329.062,-286.5626 z m 2233.5,11.4376 c -93.392,1.4447 -293.688,233.5937 -293.688,233.5937 0,0 92.848,46.5427 163.281,171.125 101.029,-34.1871 273.257,-264.2868 161.25,-392 -7.91,-9.0204 -18.446,-12.9105 -30.843,-12.7187 z m -1070.344,13.75 c -26.709,0.095 -54.018,0.8025 -81.937,2.1874 -1021.049,50.6433 -1126.941,1092.2018 -1136.594,1331.5628 -9.655,239.352 -168.03,761.793 -115.188,806.844 52.841,45.051 67.35,6.76 109.469,-35.563 38.675,-38.856 110.136,-573.007 96.406,-660.875 13.917,73.591 95.968,355.249 543.125,397.25 306.161,28.753 457.943,-329.555 524.125,-387.156 66.188,-57.609 152.649,-37.066 204.907,20.5 52.251,57.567 55.831,322.502 442.343,352.562 310.362,24.128 458.594,-352.468 458.594,-352.468 0,0 161.708,455.468 219.187,515.968 81.584,85.861 154.674,13.239 125.282,-85.562 -38.937,-130.881 -300.296,-325.097 -273.594,-724.625 25.972,-388.6118 -166.047,-1184.0245 -1116.125,-1180.6252 z m 1676.937,588.25 c -74.841,0.3004 -161.268,30.4361 -256.656,95.625 -259.37,177.2531 -303.957,323.7632 -289.875,508.1252 l 20.813,47.312 c 118.454,-321.105 314.337,-510.036 468.406,-328.8748 147.837,173.8228 -264.451,364.1138 -444.094,403.9688 l -20.156,62.031 c 214.326,53.732 857.812,-159.092 810.938,-461.312 -29.298,-188.8861 -121.851,-309.7301 -258,-325.1878 -10.211,-1.1589 -20.684,-1.7304 -31.376,-1.6874 z m -3430.156,19.7812 c -5.234,0.028 -10.404,0.1997 -15.531,0.5312 -136.742,8.846 -235.061,125.068 -273.469,312.3128 -61.45,299.588 570.974,543.343 787.656,500.062 l -81.172,-54.931 c -177.505,-48.509 -516.068,-266.571 -359.984,-433.038 162.666,-173.4782 349.172,24.725 451.938,351.188 l 23.094,-46.25 c 22.995,-183.46 -14.452,-331.9524 -264.938,-521.5625 -98.695,-74.7112 -189.084,-108.7249 -267.594,-108.3125 z m 982.532,294.625 c -99.102,78.343 -155.756,210.51 -137.157,350.438 27.186,204.591 204.926,348.255 396.969,320.874 192.051,-27.382 325.694,-215.441 298.5,-420.031 l -1.156,-8.062 c -10.925,-71.018 -39.985,-134.311 -81.344,-185.25 76.283,67.883 130.794,163.627 148.062,275.093 l 1.626,9.688 c 33.164,248.023 -130.86,476.202 -366.344,509.562 -235.484,33.359 -453.368,-140.569 -486.532,-388.593 -26.137,-195.436 70.162,-378.532 227.376,-463.719 z m 1543.843,71.656 c 83.8,61.431 144.531,155.942 162.188,268.313 l 1.25,8.75 c 30.259,223.394 -121.067,429.209 -338.188,459.562 -217.12,30.352 -417.686,-126.074 -447.937,-349.469 -18.636,-137.579 31.625,-268.476 123.687,-355.843 -44.813,58.828 -66.77,132.52 -55.75,208.906 23.211,160.881 183.835,272.682 358.781,249.687 174.947,-22.994 297.961,-172.056 274.75,-332.937 l -1,-6.375 c -9.839,-58.376 -37.77,-109.925 -77.781,-150.594 z m -391.593,1054.594 c -96.339,0 -188.047,135.24 -393.969,149.5 -112.64,7.8 -268.758,-107.081 -386.094,-139.219 -117.337,-32.138 -175.414,74.115 -251.437,147.063 -76.032,72.948 368.791,-49.022 225.218,193.437 -117.974,199.225 -226.441,-239.304 -301.687,-19.656 -72.77,212.451 5.554,298.792 54.969,370.469 144.164,209.119 368.526,208.2 706.718,169.094 337.905,-39.067 591.255,-89.282 704.906,-354.376 26.159,-61.027 30.542,-222.515 -77.562,-294.874 -135.766,-90.877 -195.363,284.844 -303.406,135.093 -132.565,-183.747 208.641,-112.535 217.281,-208.343 10.814,-119.993 -60.027,-114.07 -167.531,-144.376 -9.238,-2.604 -18.349,-3.812 -27.406,-3.812 z m 189.218,768.906 c -1.971,0.108 -4.198,0.649 -6.687,1.625 -310.695,121.907 -745.608,193.11 -973.875,136.531 -228.257,-56.577 -34.593,290.469 416.656,274.907 437.147,-15.066 625.021,-416.409 563.906,-413.063 z"
           id="path5150" />
      </g>
      <rect
         transform="matrix(-0.63367305,0.77360097,-0.77594758,-0.6307974,0,0)"
         class="fil0 str0"
         x="498.18927"
         y="-719.35699"
         width="181.44881"
         height="15.66098"
         rx="18.514124"
         ry="0"
         id="rect11194-1-9-4-0-3-4"
         style="fill:#000000;fill-opacity:1;fill-rule:evenodd;stroke:#ffffff;stroke-width:4.56501579;stroke-linecap:round;stroke-linejoin:round;stroke-miterlimit:4;stroke-opacity:1;stroke-dasharray:none" />
      <path
         inkscape:connector-curvature="0"
         id="path4789-2-5"
         d="M 124.84169,984.70915 110.81011,973.5565"
         style="fill:none;stroke:#000000;stroke-width:0.14207536px;stroke-linecap:butt;stroke-linejoin:miter;stroke-opacity:1" />
      <path
         sodipodi:nodetypes="ccc"
         inkscape:connector-curvature="0"
         id="path4791-9-8"
         d="m 126.30871,984.03238 -24.61579,15.1904 10.04315,-26.79139"
         style="fill:#000000;fill-opacity:1;fill-rule:evenodd;stroke:#ffffff;stroke-width:4.56500006;stroke-linecap:round;stroke-linejoin:round;stroke-miterlimit:4;stroke-opacity:1;stroke-dasharray:none" />
    </g>
  </g>
</svg>
