<?xml version="1.0" encoding="UTF-8" standalone="no"?>
<!-- Created with Inkscape (http://www.inkscape.org/) -->

<svg
   xmlns:dc="http://purl.org/dc/elements/1.1/"
   xmlns:cc="http://creativecommons.org/ns#"
   xmlns:rdf="http://www.w3.org/1999/02/22-rdf-syntax-ns#"
   xmlns:svg="http://www.w3.org/2000/svg"
   xmlns="http://www.w3.org/2000/svg"
   xmlns:sodipodi="http://sodipodi.sourceforge.net/DTD/sodipodi-0.dtd"
   xmlns:inkscape="http://www.inkscape.org/namespaces/inkscape"
   width="48"
   height="48"
   id="svg8370"
   version="1.1"
   inkscape:version="0.48.5 r10040"
   sodipodi:docname="huayra-menu-other.svg">
  <defs
     id="defs8372" />
  <sodipodi:namedview
     id="base"
     pagecolor="#ffffff"
     bordercolor="#666666"
     borderopacity="1.0"
     inkscape:pageopacity="0.0"
     inkscape:pageshadow="2"
     inkscape:zoom="7.2794569"
     inkscape:cx="66.617391"
     inkscape:cy="20.871543"
     inkscape:document-units="px"
     inkscape:current-layer="layer1"
     showgrid="false"
     inkscape:window-width="1914"
     inkscape:window-height="1031"
     inkscape:window-x="0"
     inkscape:window-y="25"
     inkscape:window-maximized="1" />
  <metadata
     id="metadata8375">
    <rdf:RDF>
      <cc:Work
         rdf:about="">
        <dc:format>image/svg+xml</dc:format>
        <dc:type
           rdf:resource="http://purl.org/dc/dcmitype/StillImage" />
        <dc:title />
      </cc:Work>
    </rdf:RDF>
  </metadata>
  <g
     inkscape:label="Capa 1"
     inkscape:groupmode="layer"
     id="layer1"
     transform="translate(0,-1004.3622)">
    <path
       style="fill:#ffffff;stroke:none"
       d="m 1.0617523,1031.2695 5.2857155,-11.3192 4.6374672,-2.294 c 0.224765,-0.6814 0.04868,-1.363 0.997306,-2.0445 l 11.670884,-5.6222 c 1.654875,-0.6797 2.942968,-2.2808 4.335858,0.088 1.522775,-0.4927 1.95576,-0.246 3.374277,0.3147 l 6.897963,2.727 3.740287,0.192 c 2.196934,0.1088 2.050524,0.8296 2.672808,1.5301 l 2.669816,6.5619 c 0.758976,1.9241 1.068561,1.9325 -0.561061,4.2635 l -2.488156,3.5591 0.15771,3.4379 c 0.172199,1.8462 -0.198774,2.1988 -0.824883,3.1395 l -6.998785,8.7222 c -1.822422,2.9687 -2.799547,2.3725 -6.004147,1.847 l -21.6887994,-3.5566 c -2.970406,-0.3677 -1.6966596,-2.9149 -2.0864257,-3.6235 l -0.1031977,-3.5346 -4.4171185,-0.9641 c -2.56647074,-0.4417 -2.56006702,-0.7927 -1.2675188,-3.4239 z"
       id="path3007"
       inkscape:connector-curvature="0"
       sodipodi:nodetypes="cccccccccccccccccccccc" />
    <path
       d="m 8.9723371,1022.041 c 0.4705097,-0.3135 16.3617159,-7.6107 16.3617159,-7.6107 l 0.802599,18.2845 c 0,0 -16.8921929,6.6565 -16.8921929,6.3429 0,-0.3137 -0.272122,-17.0167 -0.272122,-17.0167 z"
       id="path3628"
       sodipodi:nodetypes="ccccc"
       style="fill:#000000;fill-opacity:1;fill-rule:evenodd;stroke:none"
       inkscape:connector-curvature="0" />
    <path
       d="m 40.995867,1016.7762 -15.662037,-2.3346 0.78154,18.2866 14.922057,0.2621 -0.04156,-16.2141 z"
       id="path3626"
       sodipodi:nodetypes="ccccc"
       style="fill:#000000;fill-opacity:1;fill-rule:evenodd;stroke:none"
       inkscape:connector-curvature="0" />
    <path
       d="m 25.343377,1014.3303 -16.7478836,7.5753 c -0.9634876,2.3534 -1.7756484,4.0349 -2.4739079,5.4545 -2.8552522,5.8053 -3.5625757,6.3821 2.6102504,6.9136 l 0.3197724,4.2811 c -0.2030489,1.4365 1.2894847,1.2859 1.8333537,1.4546 l 20.658085,3.5594 c 1.488112,0.4453 1.968723,-0.094 2.504295,-0.9365 l 6.788457,-8.7886 c 0.312316,-0.3598 0.505542,-1.2269 0.522295,-2.0422 l -0.05311,-2.5635 2.75403,-3.8425 c 0.329766,-0.4132 0.294288,-1.506 -0.154229,-2.5209 l -2.609088,-6.358 z"
       id="path5973"
       sodipodi:nodetypes="ccscccccccccccc"
       style="fill:#000000;fill-opacity:1;fill-rule:nonzero;stroke:none"
       inkscape:connector-curvature="0" />
    <rect
       id="rect7040-3"
       ry="1.1593871"
       rx="1.175048"
       height="1.8076924"
       width="11.516128"
       y="921.94189"
       x="457.37653"
       class="fil0 str0"
       style="fill:#ffffff;fill-rule:evenodd;stroke:#72706f;stroke-width:0.22421598"
       transform="matrix(0.91211482,0.40993483,-0.42410843,0.90561142,0,0)" />
    <g
       style="fill:#ffffff;fill-rule:evenodd"
       id="_81071816-2"
       transform="matrix(0.04958358,0.02228451,-0.02274773,0.04857392,29.195082,1010.2276)">
      <path
         d="m 59.6039,230.051 c -3.74401,1.73014 -8.07074,3.13777 -9.877,7.20844 -3.85197,8.67559 2.12045,18.4086 10.7005,20.3021 17.8536,3.94194 35.764,2.04433 53.8654,2.48586 l 96.4558,4.68936 -0.008,0.3571 -133.057005,1.50314 c -8.38908,-0.80002 -26.4005,-2.19796 -30.2248,-12.4431 -2.49555,-6.68248 -4.19939,-16.3962 2.28101,-21.4592 3.09902,-2.42357 6.12191,-2.57444 9.86454,-2.64365 z"
         class="fil1 str1"
         id="_81851448-1"
         inkscape:connector-curvature="0"
         style="fill:#ffffff;stroke:#1f1a17;stroke-width:2.76821995" />
    </g>
    <path
       id="path7044-2"
       d="m 26.917271,1022.7305 c -0.879428,-0.2585 -1.004624,0.499 -1.024616,0.9061 -0.035,0.7077 2.189374,1.6217 2.960766,1.9684 1.54292,0.6934 3.239492,1.456 4.764812,2.187"
       class="fil2"
       inkscape:connector-curvature="0"
       style="fill:#ffffff" />
    <rect
       id="rect7046-3"
       ry="1.5342668"
       rx="2.4306576"
       height="9.9727631"
       width="15.313176"
       transform="matrix(0.91329323,0.40730268,-0.417543,0.90865717,0,0)"
       class="fil3 str0"
       x="448.77203"
       y="913.1192"
       style="fill:#000000;fill-rule:evenodd;stroke:#000000;stroke-width:0.37184918;stroke-opacity:1" />
    <g
       style="fill-rule:evenodd"
       id="_45158744-8"
       transform="matrix(0.04958358,0.02228451,-0.02274773,0.04857392,29.195082,1010.2276)">
      <path
         d="m 290.378,109.933 3.95025,51.7629 c -0.74604,23.0053 0.3917,57.3367 -27.6766,64.5922 -9.51159,2.45818 -19.3069,3.73848 -29.1313,3.87689 l -97.1727,-1.6111 -0.0111,-0.60486 97.0537,-5.05753 c 12.1428,-0.76541 25.7001,-1.96543 36.2789,-8.73096 15.239,-9.74828 14.0833,-38.3813 15.3733,-52.7373 l 1.33566,-51.4902 z"
         class="fil1 str1"
         id="_80379776-4"
         inkscape:connector-curvature="0"
         style="fill:#1f1a17;stroke:#1f1a17;stroke-width:2.76821995" />
    </g>
    <path
       id="path7050-0"
       d="m 41.092235,1022.0385 c -0.17326,0.8677 -1.91154,4.3254 -2.622188,4.7157 -0.658882,0.3618 -1.596462,0.2218 -2.654195,-0.2317 l -4.85435,-2.0804"
       class="fil2"
       inkscape:connector-curvature="0"
       style="fill:none" />
    <rect
       id="rect7056-5"
       ry="0.87491798"
       rx="1.3856422"
       height="5.6869836"
       width="8.7295656"
       transform="matrix(-0.91092864,-0.41256394,-0.43065,0.90251902,0,0)"
       class="fil0 str0"
       x="-473.95389"
       y="912.7536"
       style="fill:#ffffff;fill-rule:evenodd;stroke:#ffffff;stroke-width:0.2120136;stroke-opacity:1" />
    <path
       id="path7060-6"
       d="m 29.791469,1017.6394 c -0.318398,0.396 -1.197284,2.4177 -1.105254,2.8637 0.08538,0.4135 0.495857,0.7584 1.089152,1.0376 l 2.722907,1.2814"
       class="fil2"
       inkscape:connector-curvature="0"
       style="fill:#ffffff" />
    <path
       id="path7064-2"
       d="m 35.12386,1017.7833 c 0.483149,0.217 1.08243,0.4167 1.552251,0.6591 1.466662,0.7568 1.813712,1.3911 1.202606,2.4273 -0.117701,0.1998 -0.58179,1.3557 -0.693532,1.5944"
       class="fil2"
       inkscape:connector-curvature="0"
       style="fill:#ffffff" />
    <path
       style="fill:#000000;fill-opacity:1;fill-rule:evenodd;stroke:#000000;stroke-width:0.20611244;stroke-miterlimit:4;stroke-opacity:1;stroke-dasharray:none"
       d="m 41.004603,1016.8314 c 0,0 -7.548877,7.5451 -8.131451,8.2806 l -24.0098404,-3.0403 c 0.1179198,5.1651 0.2356881,9.0595 0.3535988,15.4956 -0.011284,0.7449 0.4713225,1.7611 1.2250906,1.8869 l 21.557982,3.7958 c 0.56916,0.1515 0.896817,-0.1533 1.297958,-0.5019 l 7.009431,-8.9273 c 0.632704,-0.8058 0.827716,-1.573 0.684032,-2.3274 z"
       id="path2085"
       inkscape:connector-curvature="0"
       sodipodi:nodetypes="cccccccccc" />
    <rect
       id="rect7040-3-0"
       ry="1.1593871"
       rx="1.1750479"
       height="1.8076924"
       width="11.516128"
       y="923.66797"
       x="-434.23627"
       class="fil0 str0"
       style="fill:#000000;fill-rule:evenodd;stroke:#000000;stroke-width:0.22421598;stroke-opacity:1"
       transform="matrix(0.89134947,-0.4533168,0.43936218,0.89831001,0,0)" />
    <rect
       id="rect7046-3-1"
       ry="1.5342667"
       rx="2.4306576"
       height="9.9727621"
       width="15.313178"
       transform="matrix(0.89003844,-0.45588549,0.44585202,0.89510668,0,0)"
       class="fil3 str0"
       x="-442.8783"
       y="912.27362"
       style="fill:#000000;fill-rule:evenodd;stroke:#000000;stroke-width:0.37184921;stroke-opacity:1" />
    <path
       id="path7054-0-2"
       d="m 18.599652,1015.3837 c -0.828203,0.4212 -1.858239,0.8197 -2.662185,1.2848 -2.510086,1.4517 -3.085869,2.6032 -1.986227,4.3966 0.211845,0.3458 1.061646,2.3631 1.264689,2.7782"
       class="fil2"
       inkscape:connector-curvature="0"
       style="fill:none" />
    <rect
       id="rect7056-5-6"
       ry="0.8749181"
       rx="1.3856424"
       height="5.6869841"
       width="8.7295666"
       transform="matrix(-0.89265323,0.45074407,0.43285068,0.90146563,0,0)"
       class="fil0 str0"
       x="417.59125"
       y="917.05206"
       style="fill:#ffffff;fill-rule:evenodd;stroke:#ffffff;stroke-width:0.21201363;stroke-opacity:1" />
    <path
       id="path7060-6-0"
       d="m 17.315632,1020.7757 c 0.108785,0.4963 1.132162,2.4487 1.537255,2.6569 0.375644,0.1928 0.901649,0.09 1.491262,-0.1976 l 2.70586,-1.3172"
       class="fil2"
       inkscape:connector-curvature="0"
       style="fill:none" />
    <path
       id="path7064-2-1"
       d="m 20.772075,1016.7126 c 0.472149,-0.2401 1.003466,-0.5816 1.486931,-0.7955 1.509273,-0.6678 2.22107,-0.5402 2.64484,0.5856 0.08172,0.2169 0.691133,1.3034 0.806893,1.5402"
       class="fil2"
       inkscape:connector-curvature="0"
       style="fill:#ffffff" />
    <path
       style="fill:none"
       inkscape:connector-curvature="0"
       id="path11198-0-0-4-1-7-7-0"
       d="m 23.045359,1020.2639 c 0.739949,-0.042 0.664478,-0.7884 0.58732,-1.1736 -0.133931,-0.6697 -2.064685,-0.8026 -2.741005,-0.8761 -1.352759,-0.1474 -2.84025,-0.3095 -4.187928,-0.4974"
       class="fil2" />
    <path
       d="m 9.1858671,1022.4633 -4.160484,8.9604 c -0.4996376,1.4434 0.300291,1.7047 1.2367926,1.9643 4.2705143,0.6958 15.7875793,2.7031 20.8926013,3.387 1.363859,0.1828 2.120153,0.064 2.544806,-0.5649 1.742717,-3.6481 1.972463,-6.6673 3.021081,-10.679 z"
       id="path3630"
       sodipodi:nodetypes="cccsccc"
       style="fill:#ffffff;fill-opacity:1;fill-rule:evenodd;stroke:#000000;stroke-width:0.20611244;stroke-miterlimit:4;stroke-opacity:1;stroke-dasharray:none"
       inkscape:connector-curvature="0" />
    <path
       d="m 32.877344,1025.7668 3.064881,8.93 c 0.627364,0.6599 1.356619,0.1595 1.670999,-0.1461 l 3.556931,-5.2676 -0.234269,-12.5437 z"
       id="path5969"
       sodipodi:nodetypes="cccccc"
       style="fill:#000000;fill-opacity:1;fill-rule:evenodd;stroke:none"
       inkscape:connector-curvature="0" />
    <path
       d="m 32.955625,1025.4295 2.957466,8.157 c 0.447775,0.9672 0.868583,0.7328 1.485801,-0.1351 l 5.776664,-7.5705 c 0.57674,-0.6395 0.81895,-1.6309 0.361094,-2.3664 l -2.692936,-5.8994 z"
       id="path3632"
       sodipodi:nodetypes="ccccccc"
       style="fill:#ffffff;fill-opacity:1;fill-rule:evenodd;stroke:#000000;stroke-width:0.20611244;stroke-miterlimit:4;stroke-opacity:1;stroke-dasharray:none"
       inkscape:connector-curvature="0" />
  </g>
</svg>
