<?xml version="1.0" encoding="UTF-8" standalone="no"?>
<!-- Created with Inkscape (http://www.inkscape.org/) -->

<svg
   xmlns:dc="http://purl.org/dc/elements/1.1/"
   xmlns:cc="http://creativecommons.org/ns#"
   xmlns:rdf="http://www.w3.org/1999/02/22-rdf-syntax-ns#"
   xmlns:svg="http://www.w3.org/2000/svg"
   xmlns="http://www.w3.org/2000/svg"
   xmlns:sodipodi="http://sodipodi.sourceforge.net/DTD/sodipodi-0.dtd"
   xmlns:inkscape="http://www.inkscape.org/namespaces/inkscape"
   width="256"
   height="256"
   id="svg8370"
   version="1.1"
   inkscape:version="0.48.3.1 r9886"
   sodipodi:docname="huayra-menu-other.svg">
  <defs
     id="defs8372" />
  <sodipodi:namedview
     id="base"
     pagecolor="#ffffff"
     bordercolor="#666666"
     borderopacity="1.0"
     inkscape:pageopacity="0.0"
     inkscape:pageshadow="2"
     inkscape:zoom="3.4975852"
     inkscape:cx="137.56618"
     inkscape:cy="139.55031"
     inkscape:document-units="px"
     inkscape:current-layer="layer1"
     showgrid="false"
     inkscape:window-width="1918"
     inkscape:window-height="1007"
     inkscape:window-x="0"
     inkscape:window-y="25"
     inkscape:window-maximized="1" />
  <metadata
     id="metadata8375">
    <rdf:RDF>
      <cc:Work
         rdf:about="">
        <dc:format>image/svg+xml</dc:format>
        <dc:type
           rdf:resource="http://purl.org/dc/dcmitype/StillImage" />
        <dc:title />
      </cc:Work>
    </rdf:RDF>
  </metadata>
  <g
     inkscape:label="Capa 1"
     inkscape:groupmode="layer"
     id="layer1"
     transform="translate(0,-796.36218)">
    <path
       d="M 33.564072,883.55758 C 36.483074,881.6116 135.0707,836.34068 135.0707,836.34068 l 4.97924,113.43612 c 0,0 -104.797646,41.29583 -104.797646,39.3498 0,-1.94595 -1.688222,-105.56902 -1.688222,-105.56902 z"
       id="path3628"
       sodipodi:nodetypes="ccccc"
       style="fill:#000000;fill-opacity:1;fill-rule:evenodd;stroke:none"
       inkscape:connector-curvature="0" />
    <path
       d="m 232.23519,850.89499 -97.16588,-14.48335 4.84861,113.44716 92.57511,1.62595 -0.25784,-100.58976 z"
       id="path3626"
       sodipodi:nodetypes="ccccc"
       style="fill:#000000;fill-opacity:1;fill-rule:evenodd;stroke:none"
       inkscape:connector-curvature="0" />
    <path
       d="M 135.12854,835.72032 31.226167,882.7176 c -5.977391,14.59906 -11.015965,25.0309 -15.347904,33.83868 -17.71373,36.0161 -22.1019001,39.59392 16.19376,42.89053 l 1.98384,26.55983 c -1.259698,8.91272 7.999846,7.97774 11.373964,9.02462 l 128.160903,22.08214 c 9.23212,2.7633 12.21379,-0.5888 15.53643,-5.8098 l 42.11498,-54.52355 c 1.93758,-2.23237 3.13634,-7.61187 3.24027,-12.67039 l -0.32946,-15.9033 17.08575,-23.83869 c 2.04584,-2.56273 1.82574,-9.34292 -0.95682,-15.63963 l -16.18655,-39.44359 z"
       id="path5973"
       sodipodi:nodetypes="ccscccccccccccc"
       style="fill:#000000;fill-opacity:1;fill-rule:nonzero;stroke:none"
       inkscape:connector-curvature="0" />
    <rect
       id="rect7040-3"
       ry="7.1927338"
       rx="7.2898927"
       height="11.214763"
       width="71.44503"
       y="750.60382"
       x="502.82584"
       class="fil0 str0"
       style="fill:#ffffff;fill-rule:evenodd;stroke:#72706f;stroke-width:1.39101600999999997"
       transform="matrix(0.91211482,0.40993483,-0.42410843,0.90561142,0,0)" />
    <g
       style="fill-rule:evenodd;fill:#ffffff"
       id="_81071816-2"
       transform="matrix(0.30761205,0.13825112,-0.14112488,0.30134819,159.02417,810.26819)">
      <path
         d="m 59.6039,230.051 c -3.74401,1.73014 -8.07074,3.13777 -9.877,7.20844 -3.85197,8.67559 2.12045,18.4086 10.7005,20.3021 17.8536,3.94194 35.764,2.04433 53.8654,2.48586 l 96.4558,4.68936 -0.008,0.3571 -133.057005,1.50314 c -8.38908,-0.80002 -26.4005,-2.19796 -30.2248,-12.4431 -2.49555,-6.68248 -4.19939,-16.3962 2.28101,-21.4592 3.09902,-2.42357 6.12191,-2.57444 9.86454,-2.64365 z"
         class="fil1 str1"
         id="_81851448-1"
         inkscape:connector-curvature="0"
         style="fill:#ffffff;stroke:#1f1a17;stroke-width:2.76821995000000021" />
    </g>
    <path
       id="path7044-2"
       d="m 144.89284,887.83454 c -5.4559,-1.60436 -6.23261,3.09597 -6.35663,5.62121 -0.21716,4.39035 13.58268,10.06132 18.36833,12.21216 9.57213,4.30203 20.09752,9.03249 29.56046,13.56768"
       class="fil2"
       inkscape:connector-curvature="0"
       style="fill:#ffffff" />
    <rect
       id="rect7046-3"
       ry="9.5184536"
       rx="15.079584"
       height="61.870132"
       width="95.001579"
       transform="matrix(0.91329323,0.40730268,-0.417543,0.90865717,0,0)"
       class="fil3 str0"
       x="485.34421"
       y="689.66931"
       style="fill:#000000;fill-rule:evenodd;stroke:#000000;stroke-width:2.30691910000000000;stroke-opacity:1" />
    <g
       style="fill-rule:evenodd"
       id="_45158744-8"
       transform="matrix(0.30761205,0.13825112,-0.14112488,0.30134819,159.02417,810.26819)">
      <path
         d="m 290.378,109.933 3.95025,51.7629 c -0.74604,23.0053 0.3917,57.3367 -27.6766,64.5922 -9.51159,2.45818 -19.3069,3.73848 -29.1313,3.87689 l -97.1727,-1.6111 -0.0111,-0.60486 97.0537,-5.05753 c 12.1428,-0.76541 25.7001,-1.96543 36.2789,-8.73096 15.239,-9.74828 14.0833,-38.3813 15.3733,-52.7373 l 1.33566,-51.4902 z"
         class="fil1 str1"
         id="_80379776-4"
         inkscape:connector-curvature="0"
         style="fill:#1f1a17;stroke:#1f1a17;stroke-width:2.76821995" />
    </g>
    <path
       id="path7050-0"
       d="m 232.83304,883.5411 c -1.07488,5.38322 -11.85902,26.834 -16.26781,29.25552 -4.08765,2.24539 -9.90432,1.37608 -16.46639,-1.4363 l -30.11596,-12.90653"
       class="fil2"
       inkscape:connector-curvature="0"
       style="fill:none" />
    <rect
       id="rect7056-5"
       ry="5.4279132"
       rx="8.5964012"
       height="35.281536"
       width="54.15744"
       transform="matrix(-0.91092864,-0.41256394,-0.43065,0.90251902,0,0)"
       class="fil0 str0"
       x="-569.85321"
       y="699.7486"
       style="fill:#ffffff;fill-rule:evenodd;stroke:#ffffff;stroke-width:1.31531346000000005;stroke-opacity:1" />
    <path
       id="path7060-6"
       d="m 162.7241,856.24969 c -1.97531,2.45711 -7.42784,14.99919 -6.8569,17.76609 0.52968,2.56558 3.07626,4.70473 6.75701,6.43724 l 16.89267,7.9501"
       class="fil2"
       inkscape:connector-curvature="0"
       style="fill:#ffffff" />
    <path
       id="path7064-2"
       d="m 195.80578,857.14228 c 2.99741,1.34714 6.7153,2.58539 9.63002,4.08924 9.09905,4.69478 11.25211,8.63067 7.46086,15.059 -0.7302,1.23899 -3.60936,8.41146 -4.3026,9.89174"
       class="fil2"
       inkscape:connector-curvature="0"
       style="fill:#ffffff" />
    <path
       style="fill:#000000;fill-opacity:1;fill-rule:evenodd;stroke:#000000;stroke-width:1.27870320999999998;stroke-miterlimit:4;stroke-opacity:1;stroke-dasharray:none"
       d="m 232.28938,851.23711 c 0,0 -46.83256,46.80874 -50.44679,51.3719 L 32.887686,883.74814 c 0.731565,32.04378 1.462188,56.20376 2.193697,96.13254 -0.07003,4.62115 2.924044,10.92541 7.600353,11.70611 l 133.743794,23.54891 c 3.53101,0.9402 5.56377,-0.9511 8.05242,-3.1137 l 43.48587,-55.38377 c 3.92524,-4.99908 5.13508,-9.7596 4.24368,-14.43939 z"
       id="path2085"
       inkscape:connector-curvature="0"
       sodipodi:nodetypes="cccccccccc" />
    <rect
       id="rect7040-3-0"
       ry="7.1927338"
       rx="7.2898927"
       height="11.214763"
       width="71.44503"
       y="855.56482"
       x="-315.88519"
       class="fil0 str0"
       style="fill:#000000;fill-rule:evenodd;stroke:#000000;stroke-width:1.39101600999999997;stroke-opacity:1"
       transform="matrix(0.89134947,-0.4533168,0.43936218,0.89831001,0,0)" />
    <rect
       id="rect7046-3-1"
       ry="9.5184536"
       rx="15.079585"
       height="61.870132"
       width="95.001587"
       transform="matrix(0.89003844,-0.45588549,0.44585202,0.89510668,0,0)"
       class="fil3 str0"
       x="-334.14966"
       y="792.25781"
       style="fill:#000000;fill-rule:evenodd;stroke:#000000;stroke-width:2.30691933999999987;stroke-opacity:1" />
    <path
       id="path7054-0-2"
       d="m 93.291073,842.25537 c -5.138099,2.61311 -11.528347,5.08597 -16.51596,7.97077 -15.572349,9.00671 -19.144456,16.15056 -12.322376,27.2774 1.314267,2.14424 6.586355,14.65922 7.846018,17.2347"
       class="fil2"
       inkscape:connector-curvature="0"
       style="fill:none" />
    <rect
       id="rect7056-5-6"
       ry="5.4279137"
       rx="8.5964022"
       height="35.28154"
       width="54.157448"
       transform="matrix(-0.89265323,0.45074407,0.43285068,0.90146563,0,0)"
       class="fil0 str0"
       x="248.0477"
       y="807.08398"
       style="fill:#ffffff;fill-rule:evenodd;stroke:#ffffff;stroke-width:1.31531357999999998;stroke-opacity:1" />
    <path
       id="path7060-6-0"
       d="m 85.325128,875.7067 c 0.674894,3.07956 7.023831,15.19257 9.536986,16.48322 2.330467,1.19654 5.593756,0.55472 9.251666,-1.22551 l 16.7869,-8.17107"
       class="fil2"
       inkscape:connector-curvature="0"
       style="fill:none" />
    <path
       id="path7064-2-1"
       d="m 106.76859,850.50012 c 2.92917,-1.4897 6.22541,-3.60885 9.22478,-4.93586 9.3634,-4.14251 13.77932,-3.35095 16.40835,3.63369 0.50706,1.3458 4.28773,8.08675 5.0059,9.55509"
       class="fil2"
       inkscape:connector-curvature="0"
       style="fill:#ffffff" />
    <path
       style="fill:none"
       inkscape:connector-curvature="0"
       id="path11198-0-0-4-1-7-7-0"
       d="m 120.87184,872.53196 c 4.59058,-0.26767 4.12236,-4.89119 3.64368,-7.28067 -0.8309,-4.1548 -12.80912,-4.97854 -17.00495,-5.43559 -8.392402,-0.91418 -17.620658,-1.91936 -25.981528,-3.08568"
       class="fil2" />
    <path
       d="M 34.88879,886.17757 9.077521,941.76688 c -3.0997064,8.95393 1.862978,10.57484 7.672951,12.18556 26.493892,4.31682 97.944738,16.77014 129.615828,21.01327 8.46126,1.13357 13.15324,0.3985 15.78775,-3.50445 10.81166,-22.63319 12.23699,-41.36404 18.74252,-66.25234 z"
       id="path3630"
       sodipodi:nodetypes="cccsccc"
       style="fill:#ffffff;fill-opacity:1;fill-rule:evenodd;stroke:#000000;stroke-width:1.27870321;stroke-miterlimit:4;stroke-opacity:1;stroke-dasharray:none"
       inkscape:connector-curvature="0" />
    <path
       d="m 181.86859,906.67119 19.01425,55.40156 c 3.89211,4.09377 8.41635,0.98939 10.36673,-0.90691 l 22.06688,-32.67959 -1.45338,-77.81997 z"
       id="path5969"
       sodipodi:nodetypes="cccccc"
       style="fill:#000000;fill-opacity:1;fill-rule:evenodd;stroke:none"
       inkscape:connector-curvature="0" />
    <path
       d="m 182.35424,904.57898 18.34786,50.60477 c 2.77796,6.00049 5.38861,4.54711 9.21778,-0.83733 l 35.8379,-46.96753 c 3.57805,-3.96625 5.0807,-10.11763 2.2402,-14.68063 L 231.29124,856.0986 z"
       id="path3632"
       sodipodi:nodetypes="ccccccc"
       style="fill:#ffffff;fill-opacity:1;fill-rule:evenodd;stroke:#000000;stroke-width:1.27870321;stroke-miterlimit:4;stroke-opacity:1;stroke-dasharray:none"
       inkscape:connector-curvature="0" />
  </g>
</svg>
