<?xml version="1.0" encoding="UTF-8" standalone="no"?>
<!-- Created with Inkscape (http://www.inkscape.org/) -->

<svg
   xmlns:dc="http://purl.org/dc/elements/1.1/"
   xmlns:cc="http://creativecommons.org/ns#"
   xmlns:rdf="http://www.w3.org/1999/02/22-rdf-syntax-ns#"
   xmlns:svg="http://www.w3.org/2000/svg"
   xmlns="http://www.w3.org/2000/svg"
   xmlns:sodipodi="http://sodipodi.sourceforge.net/DTD/sodipodi-0.dtd"
   xmlns:inkscape="http://www.inkscape.org/namespaces/inkscape"
   width="48"
   height="48"
   id="svg8370"
   version="1.1"
   inkscape:version="0.48.5 r10040"
   sodipodi:docname="huayra-menu-accesibility.svg">
  <defs
     id="defs8372" />
  <sodipodi:namedview
     id="base"
     pagecolor="#ffffff"
     bordercolor="#666666"
     borderopacity="1.0"
     inkscape:pageopacity="0.0"
     inkscape:pageshadow="2"
     inkscape:zoom="2.2873633"
     inkscape:cx="152.18263"
     inkscape:cy="94.189234"
     inkscape:document-units="px"
     inkscape:current-layer="layer1"
     showgrid="false"
     inkscape:window-width="1914"
     inkscape:window-height="1031"
     inkscape:window-x="0"
     inkscape:window-y="25"
     inkscape:window-maximized="1" />
  <metadata
     id="metadata8375">
    <rdf:RDF>
      <cc:Work
         rdf:about="">
        <dc:format>image/svg+xml</dc:format>
        <dc:type
           rdf:resource="http://purl.org/dc/dcmitype/StillImage" />
        <dc:title />
      </cc:Work>
    </rdf:RDF>
  </metadata>
  <g
     inkscape:label="Capa 1"
     inkscape:groupmode="layer"
     id="layer1"
     transform="translate(0,-1004.3622)">
    <g
       id="g3781">
      <g
         transform="matrix(0.18190669,0,0,0.18190669,0.7038843,860.22639)"
         id="g3774">
        <path
           sodipodi:type="arc"
           style="fill:#ffffff;fill-opacity:1;fill-rule:evenodd;stroke:none"
           id="path5865-0"
           sodipodi:cx="-17455.107"
           sodipodi:cy="9922.3213"
           sodipodi:rx="559.21497"
           sodipodi:ry="559.21497"
           d="m -16897.509,9879.832 c 23.466,307.953 -207.156,576.622 -515.109,600.088 -307.953,23.466 -576.622,-207.156 -600.088,-515.1094 -23.466,-307.9532 207.156,-576.6216 515.109,-600.0878 303.207,-23.1044 569.304,200.309 599.027,502.9384"
           sodipodi:start="6.2071318"
           sodipodi:end="12.46847"
           sodipodi:open="true"
           transform="matrix(0.22599259,0,0,0.22599259,4073.0386,-1318.3228)" />
        <path
           sodipodi:type="arc"
           style="fill:#000000;fill-opacity:1;fill-rule:evenodd;stroke:#030000;stroke-width:20;stroke-linecap:round;stroke-linejoin:bevel;stroke-miterlimit:4;stroke-opacity:1;stroke-dasharray:none"
           id="path5865"
           sodipodi:cx="-17455.107"
           sodipodi:cy="9922.3213"
           sodipodi:rx="559.21497"
           sodipodi:ry="559.21497"
           d="m -16897.509,9879.832 c 23.466,307.953 -207.156,576.622 -515.109,600.088 -307.953,23.466 -576.622,-207.156 -600.088,-515.1094 -23.466,-307.9532 207.156,-576.6216 515.109,-600.0878 303.207,-23.1044 569.304,200.309 599.027,502.9384"
           sodipodi:start="6.2071318"
           sodipodi:end="12.46847"
           sodipodi:open="true"
           transform="matrix(0.19713716,0,0,0.19713716,3569.3264,-1031.699)" />
        <path
           style="fill:none"
           inkscape:connector-curvature="0"
           id="path4788-1-9"
           d="m 41.654092,848.2119 c 16.924226,-19.35162 83.242148,-30.88819 107.438578,-27.81729 112.07149,14.22544 124.86727,183.58789 9.60413,206.41869"
           class="fil3" />
        <path
           style="fill:#ffffff;fill-opacity:1;fill-rule:evenodd;stroke:none"
           d="m 123.43895,826.07599 c -14.54982,0.2665 -25.623112,10.19596 -24.723311,22.18319 0,9.99095 7.356651,18.43658 17.469161,21.21956 l -46.123383,-0.12048 c -14.297326,-0.0376 -25.787702,2.25374 -25.76583,5.14033 l 0.03155,4.18226 c 0.02187,2.88659 11.550349,5.24001 25.847675,5.27756 l 23.557805,0.0617 c 14.496603,12.20757 11.012403,46.59967 -2.009558,72.7991 l -28.210223,34.81126 c -6.022325,7.43165 -8.425893,14.34023 -5.38933,15.49083 l 4.397201,1.6668 c 3.036462,1.1506 10.328506,-3.905 16.350932,-11.33665 l 30.232271,-37.30434 c 0.1893,-0.0752 0.37688,-0.14809 0.56385,-0.21576 5.52481,-7.81368 13.44824,-9.34554 21.37177,-6.35604 l 43.82393,45.54284 c 6.66248,6.92395 14.35185,11.35135 17.23913,9.92485 l 4.17989,-2.0645 c 2.88739,-1.4265 -0.15068,-8.14965 -6.81306,-15.07355 l -33.09557,-34.3939 c -17.02677,-23.93663 -13.49771,-55.89249 1.51193,-73.32287 l 21.923,0.0588 c 14.29733,0.0377 25.79083,-2.25651 25.76896,-5.14311 l -0.0315,-4.17948 c -0.022,-2.8866 -11.55035,-5.23992 -25.84777,-5.27757 L 130.55445,869.518 c 10.1885,-2.74352 17.61399,-11.22215 17.61399,-21.25881 0,-12.25436 -11.07156,-22.18318 -24.72954,-22.18318 z"
           id="rect11194-1-9-4-0-6-5"
           inkscape:connector-curvature="0" />
        <path
           style="fill:none"
           inkscape:connector-curvature="0"
           id="path4788-1-3-5"
           d="m 106.19728,831.99467 c 3.50949,-4.01284 17.26101,-6.40498 22.27831,-5.76826 23.23888,2.94979 25.89223,38.06852 1.99152,42.8026"
           class="fil3" />
      </g>
    </g>
  </g>
</svg>
