<?xml version="1.0" encoding="UTF-8" standalone="no"?>
<!-- Created with Inkscape (http://www.inkscape.org/) -->

<svg
   xmlns:dc="http://purl.org/dc/elements/1.1/"
   xmlns:cc="http://creativecommons.org/ns#"
   xmlns:rdf="http://www.w3.org/1999/02/22-rdf-syntax-ns#"
   xmlns:svg="http://www.w3.org/2000/svg"
   xmlns="http://www.w3.org/2000/svg"
   xmlns:sodipodi="http://sodipodi.sourceforge.net/DTD/sodipodi-0.dtd"
   xmlns:inkscape="http://www.inkscape.org/namespaces/inkscape"
   width="256"
   height="256"
   id="svg8370"
   version="1.1"
   inkscape:version="0.48.3.1 r9886"
   sodipodi:docname="huayra-menu-games.svg">
  <defs
     id="defs8372" />
  <sodipodi:namedview
     id="base"
     pagecolor="#ffffff"
     bordercolor="#666666"
     borderopacity="1.0"
     inkscape:pageopacity="0.0"
     inkscape:pageshadow="2"
     inkscape:zoom="3.4556669"
     inkscape:cx="74.186366"
     inkscape:cy="124.83457"
     inkscape:document-units="px"
     inkscape:current-layer="layer1"
     showgrid="false"
     inkscape:window-width="1918"
     inkscape:window-height="1007"
     inkscape:window-x="0"
     inkscape:window-y="25"
     inkscape:window-maximized="1" />
  <metadata
     id="metadata8375">
    <rdf:RDF>
      <cc:Work
         rdf:about="">
        <dc:format>image/svg+xml</dc:format>
        <dc:type
           rdf:resource="http://purl.org/dc/dcmitype/StillImage" />
        <dc:title></dc:title>
      </cc:Work>
    </rdf:RDF>
  </metadata>
  <g
     inkscape:label="Capa 1"
     inkscape:groupmode="layer"
     id="layer1"
     transform="translate(0,-796.36218)">
    <path
       style="fill:#000000;fill-opacity:1;fill-rule:evenodd;stroke:#000000;stroke-width:3.27272701000000010;stroke-linecap:butt;stroke-linejoin:miter;stroke-miterlimit:4;stroke-opacity:1;stroke-dasharray:none"
       d="m 128.54437,863.97908 c -13.65022,-1.60996 -39.674535,-21.06764 -45.810225,-20.3227 -89.0048926,10.80611 -96.655824,103.16221 -53.200011,153.85891 4.075308,4.06041 7.125846,7.25681 12.712075,5.85061 13.449225,-3.45068 30.523866,-20.62732 37.797764,-26.79556 35.830287,-33.72933 57.364507,-35.34636 98.366807,-0.12477 10.08159,6.76505 24.28663,21.64501 35.34017,25.94693 5.07245,1.974 9.44375,1.6909 12.52332,-2.56668 60.97523,-84.30085 -12.84067,-143.78356 -47.20106,-154.5844 -8.19304,-2.57538 -36.22844,18.89757 -50.52884,18.73766 z"
       id="path7421"
       inkscape:connector-curvature="0"
       sodipodi:nodetypes="csccccsssc" />
    <path
       style="fill:#ffffff;fill-opacity:1;fill-rule:nonzero;stroke:#72706f;stroke-width:0.22523992000000001"
       inkscape:connector-curvature="0"
       id="path4782-0-5-4-5"
       d="m 89.588808,907.95655 c 0,16.25594 -13.05937,29.43521 -29.168694,29.43521 -16.099527,0 -29.158906,-13.17927 -29.158906,-29.43521 -1.061493,-15.89801 11.997884,-29.06608 29.158906,-29.4196 16.109324,0 29.168694,13.16713 29.168694,29.4196 z"
       class="fil0 str0" />
    <path
       style="fill:#ffffff;fill-opacity:1;fill-rule:nonzero;stroke:#72706f;stroke-width:0.09017012000000001"
       inkscape:connector-curvature="0"
       id="path4782-0-5-4-5-2"
       d="m 200.14363,896.53903 c 0,6.50774 -5.22797,11.78377 -11.67691,11.78377 -6.44522,0 -11.6732,-5.27603 -11.6732,-11.78377 -0.42494,-6.36443 4.80302,-11.636 11.6732,-11.77751 6.44894,0 11.67691,5.27119 11.67691,11.77751 z"
       class="fil0 str0" />
    <path
       style="fill:#ffffff;fill-opacity:1;fill-rule:nonzero;stroke:#72706f;stroke-width:0.09017012000000001"
       inkscape:connector-curvature="0"
       id="path4782-0-5-4-5-2-2"
       d="m 202.21136,929.67194 c 0,6.50773 -5.22796,11.78376 -11.67692,11.78376 -6.44521,0 -11.67319,-5.27603 -11.67319,-11.78376 -0.42494,-6.36443 4.80303,-11.63599 11.67319,-11.77751 6.44896,0 11.67692,5.27118 11.67692,11.77751 z"
       class="fil0 str0" />
  </g>
</svg>
