<?xml version="1.0" encoding="UTF-8" standalone="no"?>
<!-- Created with Inkscape (http://www.inkscape.org/) -->

<svg
   xmlns:dc="http://purl.org/dc/elements/1.1/"
   xmlns:cc="http://creativecommons.org/ns#"
   xmlns:rdf="http://www.w3.org/1999/02/22-rdf-syntax-ns#"
   xmlns:svg="http://www.w3.org/2000/svg"
   xmlns="http://www.w3.org/2000/svg"
   xmlns:sodipodi="http://sodipodi.sourceforge.net/DTD/sodipodi-0.dtd"
   xmlns:inkscape="http://www.inkscape.org/namespaces/inkscape"
   width="48"
   height="48"
   id="svg8370"
   version="1.1"
   inkscape:version="0.48.5 r10040"
   sodipodi:docname="huayra-menu-huayra.svg">
  <defs
     id="defs8372" />
  <sodipodi:namedview
     id="base"
     pagecolor="#ffffff"
     bordercolor="#666666"
     borderopacity="1.0"
     inkscape:pageopacity="0.0"
     inkscape:pageshadow="2"
     inkscape:zoom="10.500508"
     inkscape:cx="19.736514"
     inkscape:cy="30.419581"
     inkscape:document-units="px"
     inkscape:current-layer="layer1"
     showgrid="false"
     inkscape:window-width="1914"
     inkscape:window-height="1031"
     inkscape:window-x="0"
     inkscape:window-y="25"
     inkscape:window-maximized="1" />
  <metadata
     id="metadata8375">
    <rdf:RDF>
      <cc:Work
         rdf:about="">
        <dc:format>image/svg+xml</dc:format>
        <dc:type
           rdf:resource="http://purl.org/dc/dcmitype/StillImage" />
        <dc:title />
      </cc:Work>
    </rdf:RDF>
  </metadata>
  <g
     inkscape:label="Capa 1"
     inkscape:groupmode="layer"
     id="layer1"
     transform="translate(0,-1004.3622)">
    <g
       transform="matrix(12.290442,0,0,11.321195,0.21151862,999.94758)"
       style="fill:#ffffff;fill-opacity:1;fill-rule:evenodd"
       id="g2992-6-6-8-0-2-7-4-6">
      <path
         sodipodi:nodetypes="ccccc"
         style="fill:#ffffff;fill-opacity:1"
         inkscape:connector-curvature="0"
         d="M 0.67062907,3.1466295 0.96315753,3.436604 C 1.4643536,2.1285285 2.398514,2.6652083 2.0308724,3.5442268 L 2.4273148,3.6928525 C 3.098842,2.8086816 1.7399119,1.2088624 0.67062907,3.1466295 z"
         class="fil0"
         id="_121731384-7-2-4-3-0-7-7-5-3" />
      <path
         sodipodi:nodetypes="zsccz"
         style="fill:#ffffff;fill-opacity:1"
         inkscape:connector-curvature="0"
         d="M 0.1777958,2.5586559 C -0.01275712,2.3374532 0.24113274,2.2791781 0.43945721,2.4213723 0.63778167,2.5635664 0.93775077,2.7194966 1.225806,3.0230352 L 0.95271667,3.4519383 C 0.49241565,3.0409566 0.36834871,2.7798588 0.1777958,2.5586559 z"
         class="fil0"
         id="_121328256-76-9-9-5-8-5-1-4-0" />
      <path
         sodipodi:open="true"
         sodipodi:end="12.46847"
         sodipodi:start="6.2071318"
         transform="matrix(0.13834256,0,0,0.13834256,0.05493803,1.6573529)"
         d="m 13.844562,12.550547 c 0.112017,1.470034 -0.988873,2.752541 -2.458908,2.864558 -1.4700343,0.112018 -2.7525408,-0.988873 -2.8645582,-2.458907 -0.1120173,-1.470035 0.9888732,-2.752542 2.4589082,-2.864559 1.447376,-0.1102906 2.717609,0.956188 2.859492,2.40081"
         sodipodi:ry="2.6694496"
         sodipodi:rx="2.6694496"
         sodipodi:cy="12.753372"
         sodipodi:cx="11.182829"
         id="path3582-4-5-6-5-0-1-4-2-6"
         style="fill:#ffffff;fill-opacity:1;stroke:none"
         sodipodi:type="arc" />
      <path
         sodipodi:nodetypes="zsccz"
         style="fill:#ffffff;fill-opacity:1;fill-rule:evenodd"
         inkscape:connector-curvature="0"
         d="M 0.41446344,1.6325973 C 0.29835569,1.3425611 0.58493151,1.3528159 0.72792617,1.5543496 0.87092004,1.7558834 1.1144663,2.1270867 1.2977465,2.5303689 L 0.8434598,2.8063202 C 0.62431182,2.1978548 0.530571,1.9226338 0.41446344,1.6325973 z"
         class="fil0"
         id="_121328256-7-8-4-5-2-3-9-3-0-9" />
      <path
         sodipodi:nodetypes="ccccc"
         style="fill:#ffffff;fill-opacity:1;fill-rule:evenodd"
         inkscape:connector-curvature="0"
         d="m 1.5285643,1.0508434 c 0.047624,0.2662739 0.1767801,0.6904702 0.2221278,1.2308755 L 1.2487375,2.4988277 c 0.003,-0.6467199 0.028722,-1.1454581 0.019214,-1.4577269 -0.031366,-0.195269 0.1703022,-0.40451134 0.2606128,0.00974 z"
         class="fil0"
         id="_121328256-7-9-5-0-5-8-1-9-0-9-0-9" />
      <path
         sodipodi:nodetypes="zsccz"
         style="fill:#ffffff;fill-opacity:1;fill-rule:evenodd"
         inkscape:connector-curvature="0"
         d="m 2.0094159,1.0112799 c 0.086773,-0.32386821 0.3786453,-0.16814644 0.3764823,0.095053 -0.00216,0.2631979 0.0042,0.8137237 -0.3087567,1.3173987 L 1.6396789,2.3446191 C 1.8753834,1.6854767 1.9226415,1.3351483 2.0094159,1.0112799 z"
         class="fil0"
         id="_121328256-7-4-0-9-2-3-6-2-1-8-9-7" />
      <path
         sodipodi:nodetypes="zsccz"
         style="fill:#ffffff;fill-opacity:1;fill-rule:evenodd"
         inkscape:connector-curvature="0"
         d="M 2.970287,1.4163939 C 3.2175396,1.0429562 3.4366605,1.4345815 3.3171173,1.6690762 3.0785145,2.1371169 2.8130694,2.3939982 2.353339,2.737877 L 2.0958046,2.3462406 C 2.6679553,1.9347265 2.7230345,1.7898315 2.970287,1.4163939 z"
         class="fil0"
         id="_121328256-7-4-9-4-8-5-4-4-9-6-7-5" />
      <path
         sodipodi:nodetypes="ccccc"
         style="fill:#ffffff;fill-opacity:1;fill-rule:evenodd"
         inkscape:connector-curvature="0"
         d="M 3.4884694,3.2864078 C 3.2437512,3.3897197 2.9621609,3.5116525 2.4070376,3.5270609 L 2.5367164,3.0209135 c 0.653125,-5.32e-4 0.4769962,-0.02424 0.8861205,-0.1178201 0.2936094,-0.069022 0.5931588,0.1247672 0.065632,0.3833144 z"
         class="fil0"
         id="_121328256-7-4-9-1-6-1-3-1-3-4-9-6-5" />
      <path
         sodipodi:nodetypes="zsccsz"
         style="fill:#ffffff;fill-opacity:1;fill-rule:evenodd"
         inkscape:connector-curvature="0"
         d="M 3.5372326,3.9732486 C 3.7532833,4.0712568 3.4464299,4.2415462 3.2639503,4.2170921 3.0190301,4.1842703 2.4532621,3.936286 2.0525104,3.7888363 L 2.4262305,3.4009655 c 0.1458732,0.076471 0.2714596,0.1430284 0.3826362,0.2020049 0.3134163,0.1662596 0.5123152,0.27227 0.7283659,0.3702782 z"
         class="fil0"
         id="_121328256-9-1-9-8-5-01-7-6-8-9" />
      <path
         inkscape:transform-center-x="-0.069049672"
         inkscape:transform-center-y="0.95298244"
         sodipodi:nodetypes="zsccz"
         style="fill:#ffffff;fill-opacity:1;fill-rule:evenodd"
         inkscape:connector-curvature="0"
         d="M 3.4131758,2.1770101 C 3.8076144,1.9607476 3.9033179,2.304612 3.6963625,2.4672353 3.4740536,2.6419263 3.2196806,2.935215 2.6523716,3.1218067 L 2.4246691,2.6188177 C 3.0971911,2.4161385 3.018737,2.3932724 3.4131758,2.1770101 z"
         class="fil0"
         id="_121328256-7-4-9-1-7-6-6-7-8-3-7-0-3-1" />
    </g>
    <path
       id="_121731384-7-2-4-3-0-7-7-5-9"
       class="fil0"
       d="m 11.720088,1038.8407 4.894476,2.5917 c -1.371313,-7.895 8.687344,-6.374 4.762766,1.2914 l 6.821737,0.8329 c 6.23894,-8.9197 -10.035671,-21.668 -16.478979,-4.716 z"
       inkscape:connector-curvature="0"
       style="fill:#ffffff;fill-opacity:1;fill-rule:evenodd"
       sodipodi:nodetypes="ccccc" />
    <g
       transform="matrix(8.9961225,0,0,8.2866714,4.2090306,1009.159)"
       style="fill:#000000;fill-opacity:1;fill-rule:evenodd"
       id="g2992-6-6-8-0-2-7-4">
      <path
         sodipodi:nodetypes="ccccc"
         style="fill:#000000;fill-opacity:1"
         inkscape:connector-curvature="0"
         d="M 0.67062907,3.1466295 0.96315753,3.436604 C 1.4643536,2.1285285 2.9137173,3.0231678 2.3709066,3.891 L 2.767349,4.0396257 C 3.5316128,2.8534265 1.7399119,1.2088624 0.67062907,3.1466295 z"
         class="fil0"
         id="_121731384-7-2-4-3-0-7-7-5" />
      <path
         sodipodi:nodetypes="zsccz"
         style="fill:#000000;fill-opacity:1"
         inkscape:connector-curvature="0"
         d="M 0.1777958,2.5586559 C -0.01275712,2.3374532 0.11748395,2.4022267 0.31580842,2.5444209 0.51413288,2.686615 0.81410198,2.8425452 1.1021572,3.1460838 L 0.96046525,3.4267024 C 0.50016423,3.0157207 0.36834871,2.7798588 0.1777958,2.5586559 z"
         class="fil0"
         id="_121328256-76-9-9-5-8-5-1-4" />
      <path
         sodipodi:open="true"
         sodipodi:end="12.46847"
         sodipodi:start="6.2071318"
         transform="matrix(0.13834256,0,0,0.13834256,0.19919495,1.7915877)"
         d="m 13.844562,12.550547 c 0.112017,1.470034 -0.988873,2.752541 -2.458908,2.864558 -1.4700343,0.112018 -2.7525408,-0.988873 -2.8645582,-2.458907 -0.1120173,-1.470035 0.9888732,-2.752542 2.4589082,-2.864559 1.447376,-0.1102906 2.717609,0.956188 2.859492,2.40081"
         sodipodi:ry="2.6694496"
         sodipodi:rx="2.6694496"
         sodipodi:cy="12.753372"
         sodipodi:cx="11.182829"
         id="path3582-4-5-6-5-0-1-4-2"
         style="fill:#000000;fill-opacity:1;stroke:none"
         sodipodi:type="arc" />
      <path
         sodipodi:nodetypes="zsccz"
         style="fill:#000000;fill-opacity:1;fill-rule:evenodd"
         inkscape:connector-curvature="0"
         d="M 0.4247675,1.3417552 C 0.30865975,1.051719 0.40976238,1.1514637 0.55275704,1.3529974 0.69575091,1.5545312 1.0526419,2.1606454 1.2359221,2.5639276 L 0.96710859,2.750389 C 0.74796061,2.1419236 0.54087506,1.6317917 0.4247675,1.3417552 z"
         class="fil0"
         id="_121328256-7-8-4-5-2-3-9-3-0" />
      <path
         sodipodi:nodetypes="zsccz"
         style="fill:#000000;fill-opacity:1;fill-rule:evenodd"
         inkscape:connector-curvature="0"
         d="M 1.44312,0.58246558 C 1.43361,0.2701971 1.521214,0.39282353 1.5594765,0.63695278 1.6013875,0.90435635 1.7053444,1.7413136 1.7506921,2.2817189 l -0.3164814,0.082874 c 0.003,-0.6467199 0.018418,-1.46985881 0.00891,-1.78212772 z"
         class="fil0"
         id="_121328256-7-9-5-0-5-8-1-9-0-9-0" />
      <path
         sodipodi:nodetypes="zsccz"
         style="fill:#000000;fill-opacity:1;fill-rule:evenodd"
         inkscape:connector-curvature="0"
         d="M 2.4423509,0.52194906 C 2.5291241,0.19808085 2.5810366,0.32015476 2.5788735,0.5833539 2.5767086,0.84655178 2.4931372,1.8976838 2.1801821,2.4013588 L 1.8869765,2.2775017 c 0.307833,-0.6143974 0.4686,-1.43168421 0.5553744,-1.75555264 z"
         class="fil0"
         id="_121328256-7-4-0-9-2-3-6-2-1-8-9" />
      <path
         sodipodi:nodetypes="zsccz"
         style="fill:#000000;fill-opacity:1;fill-rule:evenodd"
         inkscape:connector-curvature="0"
         d="M 3.6839051,1.1452392 C 3.9311577,0.7718015 3.8949861,1.029192 3.7754429,1.2636867 3.5368401,1.7317274 2.9264141,2.4275569 2.4666837,2.7714357 L 2.2400615,2.4692892 C 2.8122122,2.0577751 3.4366526,1.5186768 3.6839051,1.1452392 z"
         class="fil0"
         id="_121328256-7-4-9-4-8-5-4-4-9-6-7" />
      <path
         sodipodi:nodetypes="zsccz"
         style="fill:#000000;fill-opacity:1;fill-rule:evenodd"
         inkscape:connector-curvature="0"
         d="m 4.2265513,3.0597007 c 0.4091243,-0.09358 0.2522344,0.074602 0.024419,0.1707759 C 4.0062521,3.3337885 3.127026,3.6011424 2.5719027,3.6165508 l 0.00603,-0.3830989 c 0.653125,-5.32e-4 1.239497,-0.080171 1.6486213,-0.1737512 z"
         class="fil0"
         id="_121328256-7-4-9-1-6-1-3-1-3-4-9-6" />
      <path
         sodipodi:nodetypes="zsccz"
         style="fill:#000000;fill-opacity:1;fill-rule:evenodd"
         inkscape:connector-curvature="0"
         d="M 3.9700033,4.2976494 C 4.2626923,4.4304234 4.1316091,4.4287597 3.9491295,4.4043056 3.7042093,4.3714838 3.1539385,4.1823832 2.7531868,4.0349335 L 2.8590012,3.7253663 c 0.5571017,0.2920484 0.8183128,0.4395089 1.1110017,0.572283 z"
         class="fil0"
         id="_121328256-9-1-9-8-5-01-7-6-8" />
      <path
         inkscape:transform-center-x="-0.069049672"
         inkscape:transform-center-y="0.95298244"
         sodipodi:nodetypes="zsccz"
         style="fill:#000000;fill-opacity:1;fill-rule:evenodd"
         inkscape:connector-curvature="0"
         d="M 4.1962848,2.076334 C 4.5907234,1.8600715 4.4775437,2.0697011 4.2705883,2.2323244 4.0482794,2.4070154 3.2196806,2.935215 2.6523716,3.1218067 L 2.5483179,2.7530525 C 3.2208399,2.5503733 3.801846,2.2925963 4.1962848,2.076334 z"
         class="fil0"
         id="_121328256-7-4-9-1-7-6-6-7-8-3-7-0-3" />
    </g>
  </g>
</svg>
