<?xml version="1.0" encoding="UTF-8" standalone="no"?>
<!-- Created with Inkscape (http://www.inkscape.org/) -->

<svg
   xmlns:dc="http://purl.org/dc/elements/1.1/"
   xmlns:cc="http://creativecommons.org/ns#"
   xmlns:rdf="http://www.w3.org/1999/02/22-rdf-syntax-ns#"
   xmlns:svg="http://www.w3.org/2000/svg"
   xmlns="http://www.w3.org/2000/svg"
   xmlns:sodipodi="http://sodipodi.sourceforge.net/DTD/sodipodi-0.dtd"
   xmlns:inkscape="http://www.inkscape.org/namespaces/inkscape"
   width="48"
   height="48"
   id="svg8370"
   version="1.1"
   inkscape:version="0.48.5 r10040"
   sodipodi:docname="huayra-menu-block-screen.svg">
  <defs
     id="defs8372" />
  <sodipodi:namedview
     id="base"
     pagecolor="#ffffff"
     bordercolor="#666666"
     borderopacity="1.0"
     inkscape:pageopacity="0.0"
     inkscape:pageshadow="2"
     inkscape:zoom="5.1692354"
     inkscape:cx="51.632219"
     inkscape:cy="-10.140075"
     inkscape:document-units="px"
     inkscape:current-layer="layer1"
     showgrid="false"
     inkscape:window-width="1914"
     inkscape:window-height="1031"
     inkscape:window-x="0"
     inkscape:window-y="25"
     inkscape:window-maximized="1" />
  <metadata
     id="metadata8375">
    <rdf:RDF>
      <cc:Work
         rdf:about="">
        <dc:format>image/svg+xml</dc:format>
        <dc:type
           rdf:resource="http://purl.org/dc/dcmitype/StillImage" />
        <dc:title />
      </cc:Work>
    </rdf:RDF>
  </metadata>
  <g
     inkscape:label="Capa 1"
     inkscape:groupmode="layer"
     id="layer1"
     transform="translate(0,-1004.3622)">
    <rect
       id="rect7046-1"
       ry="4.6887808"
       rx="7.2246008"
       height="30.477163"
       width="45.515079"
       transform="matrix(0.9999956,-0.00296529,0.00704017,0.99997522,0,0)"
       class="fil3 str0"
       x="-5.4066362"
       y="1010.257"
       style="fill:#ffffff;fill-rule:evenodd;stroke:none" />
    <path
       style="fill:#ffffff;fill-rule:evenodd;stroke:none"
       d="m 13.108298,1038.1035 23.18332,-0.024 c 2.986866,0 5.40244,0.5471 5.416089,1.2338 2.177175,5.3844 -1.413503,6.7904 -5.255966,6.8234 l -23.18332,0.024 c -5.308648,0.3787 -6.571423,-2.2693 -5.5269418,-6.8119 0.1520869,-0.6668 2.3799538,-1.2422 5.3668188,-1.2454 z"
       id="rect7046-1-4"
       inkscape:connector-curvature="0"
       sodipodi:nodetypes="ssccccs" />
    <rect
       id="rect7040"
       ry="3.008848"
       rx="3.008848"
       height="4.6913338"
       width="29.488396"
       y="1039.2367"
       x="9.942647"
       class="fil0 str0"
       style="fill:#000000;fill-rule:evenodd;stroke:#000000;stroke-width:0.57799602;stroke-opacity:1" />
    <path
       id="path7044"
       d="m 12.002504,1039.194 c -2.3204585,0.3235 -1.787939,2.2503 -1.392209,3.2353 0.687436,1.7126 6.83904,1.5099 9.004595,1.5099 4.331498,0 9.094371,0 13.42587,0.1077"
       class="fil2"
       inkscape:connector-curvature="0"
       style="fill:none" />
    <rect
       id="rect7046"
       ry="3.9821846"
       rx="6.2237043"
       height="25.884275"
       width="39.209423"
       transform="matrix(0.99999573,-0.00292343,0.00714097,0.9999745,0,0)"
       class="fil3 str0"
       x="-2.4574268"
       y="1013.205"
       style="fill:#000000;fill-rule:evenodd;stroke:#000000;stroke-width:0.95860505;stroke-opacity:1" />
    <path
       id="path7050"
       d="m 44.125513,1022.4735 c 0.540616,2.2386 0.264535,12.2738 -0.959664,13.9539 -1.134993,1.5579 -3.461613,2.2239 -6.407082,2.276 l -13.517763,0.2399"
       class="fil2"
       inkscape:connector-curvature="0"
       style="fill:none" />
    <path
       id="path7054"
       d="m 22.159646,1013.1194 c -2.379224,0 -5.197322,-0.2898 -7.569994,-0.1598 -7.4079823,0.4053 -10.0282291,2.3919 -9.5165091,7.8351 0.098446,1.0488 -0.216369,6.7156 -0.216369,7.915"
       class="fil2"
       inkscape:connector-curvature="0"
       style="fill:none" />
    <rect
       id="rect7056"
       ry="2.2703345"
       rx="3.5482593"
       height="14.757218"
       width="22.354082"
       transform="matrix(-0.99999573,-0.00292344,-0.00714095,0.9999745,0,0)"
       class="fil0 str0"
       x="-42.80061"
       y="1018.511"
       style="fill:#ffffff;fill-rule:evenodd;stroke:#ffffff;stroke-width:0.54652131;stroke-opacity:1" />
    <path
       id="path7060"
       d="m 13.13883,1024.0831 c -0.308262,1.2764 -0.150855,6.9976 0.546975,7.9555 0.647158,0.8882 1.973657,1.2678 3.652924,1.2976 l 7.706797,0.1367"
       class="fil2"
       inkscape:connector-curvature="0"
       style="fill:none" />
    <path
       id="path7064"
       d="m 25.662008,1018.7501 c 1.356369,0 2.962999,-0.1652 4.31589,-0.091 4.223412,0.2311 5.717334,1.3637 5.425447,4.467 -0.05606,0.598 0.123307,3.8289 0.123307,4.5126"
       class="fil2"
       inkscape:connector-curvature="0"
       style="fill:none" />
    <path
       inkscape:connector-curvature="0"
       style="fill:#000000;fill-opacity:1;fill-rule:evenodd;stroke:#000000;stroke-width:0.35077506;stroke-opacity:1"
       d="m 33.609619,1020.021 c -0.736116,0.011 -4.810802,2.1715 -9.648846,5.135 -5.480319,-3.0861 -9.960585,-5.225 -10.173156,-4.8437 l -0.241301,0.4331 c -0.199242,0.3575 3.420557,2.8026 8.367563,5.685 -4.448128,2.8147 -7.658769,5.1579 -7.458456,5.4798 l 0.24738,0.3974 c 0.213754,0.3436 4.232135,-1.7414 9.182326,-4.7464 5.605729,3.17 10.234401,5.3881 10.450548,5.0004 l 0.2413,-0.4327 c 0.202748,-0.3638 -3.550486,-2.89 -8.631917,-5.8385 4.737483,-2.9703 8.230163,-5.4992 8.021501,-5.8346 l -0.247394,-0.3974 c -0.01588,-0.025 -0.0528,-0.038 -0.109548,-0.037 z"
       id="rect11194-1-9-4-1-0" />
    <path
       style="fill:none"
       inkscape:connector-curvature="0"
       id="path11198-0-0-4-1-7"
       d="m 26.895903,1029.6408 c 1.750793,0.7708 2.415732,-1.0423 2.671599,-2.0241 0.445413,-1.707 -3.846894,-4.2858 -5.319877,-5.252 -2.946235,-1.9325 -6.185913,-4.0576 -9.074729,-6.0782"
       class="fil2" />
  </g>
</svg>
