<?xml version="1.0" encoding="UTF-8" standalone="no"?>
<!-- Created with Inkscape (http://www.inkscape.org/) -->

<svg
   xmlns:dc="http://purl.org/dc/elements/1.1/"
   xmlns:cc="http://creativecommons.org/ns#"
   xmlns:rdf="http://www.w3.org/1999/02/22-rdf-syntax-ns#"
   xmlns:svg="http://www.w3.org/2000/svg"
   xmlns="http://www.w3.org/2000/svg"
   xmlns:sodipodi="http://sodipodi.sourceforge.net/DTD/sodipodi-0.dtd"
   xmlns:inkscape="http://www.inkscape.org/namespaces/inkscape"
   width="256"
   height="256"
   id="svg8370"
   version="1.1"
   inkscape:version="0.48.3.1 r9886"
   sodipodi:docname="huayra-menu-block-screen.svg">
  <defs
     id="defs8372" />
  <sodipodi:namedview
     id="base"
     pagecolor="#ffffff"
     bordercolor="#666666"
     borderopacity="1.0"
     inkscape:pageopacity="0.0"
     inkscape:pageshadow="2"
     inkscape:zoom="1.8142158"
     inkscape:cx="99.193159"
     inkscape:cy="149.34294"
     inkscape:document-units="px"
     inkscape:current-layer="layer1"
     showgrid="false"
     inkscape:window-width="1918"
     inkscape:window-height="1007"
     inkscape:window-x="0"
     inkscape:window-y="25"
     inkscape:window-maximized="1" />
  <metadata
     id="metadata8375">
    <rdf:RDF>
      <cc:Work
         rdf:about="">
        <dc:format>image/svg+xml</dc:format>
        <dc:type
           rdf:resource="http://purl.org/dc/dcmitype/StillImage" />
        <dc:title></dc:title>
      </cc:Work>
    </rdf:RDF>
  </metadata>
  <g
     inkscape:label="Capa 1"
     inkscape:groupmode="layer"
     id="layer1"
     transform="translate(0,-796.36218)">
    <rect
       id="rect7040"
       ry="18.547808"
       rx="18.547808"
       height="28.919361"
       width="181.77892"
       y="996.82874"
       x="38.819675"
       class="fil0 str0"
       style="fill:#000000;fill-rule:evenodd;stroke:#000000;stroke-width:3.56301116999999978;stroke-opacity:1" />
    <path
       id="path7044"
       d="m 51.517499,996.56534 c -14.304279,1.99408 -11.021606,13.87206 -8.582156,19.94336 4.237647,10.5572 42.158722,9.3078 55.508113,9.3078 26.701184,0 56.061544,0 82.762724,0.6639"
       class="fil2"
       inkscape:connector-curvature="0"
       style="fill:none" />
    <rect
       id="rect7046"
       ry="24.547865"
       rx="38.36554"
       height="159.56158"
       width="241.70341"
       transform="matrix(0.99999573,-0.00292343,0.00714097,0.9999745,0,0)"
       class="fil3 str0"
       x="1.0099374"
       y="836.26654"
       style="fill:#000000;fill-rule:evenodd;stroke:#000000;stroke-width:5.90924548999999999;stroke-opacity:1" />
    <path
       id="path7050"
       d="m 249.53727,893.49337 c 3.33259,13.79957 1.63071,75.66043 -5.91577,86.01774 -6.99657,9.60349 -21.33884,13.70809 -39.49595,14.02996 l -83.32919,1.47865"
       class="fil2"
       inkscape:connector-curvature="0"
       style="fill:none" />
    <path
       id="path7054"
       d="m 114.13041,835.83073 c -14.666543,0 -32.038488,-1.78626 -46.664636,-0.98577 -45.665924,2.49885 -61.8182295,14.74491 -58.6637718,48.2989 0.6068607,6.46567 -1.3337899,41.39861 -1.3337899,48.79178"
       class="fil2"
       inkscape:connector-curvature="0"
       style="fill:none" />
    <rect
       id="rect7056"
       ry="13.995299"
       rx="21.872967"
       height="90.969711"
       width="137.79999"
       transform="matrix(-0.99999573,-0.00292344,-0.00714095,0.9999745,0,0)"
       class="fil0 str0"
       x="-202.74132"
       y="869.10669"
       style="fill:#ffffff;fill-rule:evenodd;stroke:#ffffff;stroke-width:3.36898780000000020;stroke-opacity:1" />
    <path
       id="path7060"
       d="m 58.522297,903.4153 c -1.900256,7.8683 -0.929931,43.13612 3.371782,49.04122 3.989363,5.47515 12.166459,7.81486 22.518168,7.99895 l 47.507943,0.84206"
       class="fil2"
       inkscape:connector-curvature="0"
       style="fill:none" />
    <path
       id="path7064"
       d="m 135.72045,870.54029 c 8.36123,0 18.26517,-1.01783 26.60496,-0.56176 26.03489,1.42402 35.24406,8.40632 33.44474,27.53615 -0.34554,3.68651 0.76012,23.60255 0.76012,27.81759"
       class="fil2"
       inkscape:connector-curvature="0"
       style="fill:none" />
    <path
       inkscape:connector-curvature="0"
       style="fill:#000000;fill-opacity:1;fill-rule:evenodd;stroke:#000000;stroke-width:2.16232537999999996;stroke-opacity:1"
       d="m 184.71287,878.37489 c -4.53773,0.0539 -29.65581,13.3854 -59.47955,31.65468 -33.782999,-19.0242 -61.401249,-32.20986 -62.711626,-29.85901 l -1.487477,2.66938 c -1.228216,2.20334 21.08575,17.2771 51.581183,35.04501 -27.420135,17.35061 -47.211889,31.79519 -45.97707,33.77999 l 1.524956,2.44961 c 1.317667,2.11804 26.088663,-10.73418 56.603734,-29.25866 34.55607,19.54103 63.08916,33.21421 64.42158,30.82384 l 1.48747,-2.66669 c 1.24983,-2.24229 -21.88669,-17.81534 -53.21077,-35.99109 29.20384,-18.31005 50.73419,-33.89933 49.44791,-35.96696 l -1.52504,-2.44961 c -0.0979,-0.15744 -0.32547,-0.23464 -0.6753,-0.23049 z"
       id="rect11194-1-9-4-1-0" />
    <path
       style="fill:none"
       inkscape:connector-curvature="0"
       id="path11198-0-0-4-1-7"
       d="m 143.3267,937.67505 c 10.79262,4.75157 14.89159,-6.42434 16.46886,-12.47689 2.74571,-10.52242 -23.71388,-26.41981 -32.79397,-32.37584 -18.16183,-11.91311 -38.132571,-25.01259 -55.94045,-37.46845"
       class="fil2" />
  </g>
</svg>
