<?xml version="1.0" encoding="UTF-8" standalone="no"?>
<!-- Created with Inkscape (http://www.inkscape.org/) -->

<svg
   xmlns:dc="http://purl.org/dc/elements/1.1/"
   xmlns:cc="http://creativecommons.org/ns#"
   xmlns:rdf="http://www.w3.org/1999/02/22-rdf-syntax-ns#"
   xmlns:svg="http://www.w3.org/2000/svg"
   xmlns="http://www.w3.org/2000/svg"
   xmlns:sodipodi="http://sodipodi.sourceforge.net/DTD/sodipodi-0.dtd"
   xmlns:inkscape="http://www.inkscape.org/namespaces/inkscape"
   width="256"
   height="256"
   id="svg8370"
   version="1.1"
   inkscape:version="0.48.3.1 r9886"
   sodipodi:docname="huayra-menu-accesories.svg">
  <defs
     id="defs8372" />
  <sodipodi:namedview
     id="base"
     pagecolor="#ffffff"
     bordercolor="#666666"
     borderopacity="1.0"
     inkscape:pageopacity="0.0"
     inkscape:pageshadow="2"
     inkscape:zoom="2.1279971"
     inkscape:cx="113.42826"
     inkscape:cy="83.264916"
     inkscape:document-units="px"
     inkscape:current-layer="layer1"
     showgrid="false"
     inkscape:window-width="1918"
     inkscape:window-height="1007"
     inkscape:window-x="0"
     inkscape:window-y="25"
     inkscape:window-maximized="1" />
  <metadata
     id="metadata8375">
    <rdf:RDF>
      <cc:Work
         rdf:about="">
        <dc:format>image/svg+xml</dc:format>
        <dc:type
           rdf:resource="http://purl.org/dc/dcmitype/StillImage" />
        <dc:title></dc:title>
      </cc:Work>
    </rdf:RDF>
  </metadata>
  <g
     inkscape:label="Capa 1"
     inkscape:groupmode="layer"
     id="layer1"
     transform="translate(0,-796.36218)">
    <path
       inkscape:connector-curvature="0"
       d="m 147.15193,912.97498 c 25.58615,-29.78092 31.11407,-51.54676 39.7793,-49.46375 6.77414,1.62814 3.51887,6.52253 21.41951,9.97577 17.18758,3.31565 34.74833,-8.59779 38.39659,-22.97141 4.85943,-14.08816 -3.01675,-31.79572 -20.63817,-36.16708 -17.43828,-5.32828 -38.22369,3.33246 -44.42838,17.99572 -8.99052,16.76312 -13.60057,38.90235 -42.65648,57.90459 L 116.72213,904.8339 39.541777,996.82823 C 30.912192,1008.7221 25.73063,1024.545 36.919652,1039.6081 L 147.15193,912.97498 z m 82.80001,-55.52615 c -14.86405,12.51955 -41.15962,4.88436 -41.11492,-11.82778 -1.05246,-15.37562 21.08265,-29.3788 37.53622,-20.60224 13.85384,6.15379 13.75426,23.85953 3.5787,32.43002 z"
       id="path48999"
       sodipodi:nodetypes="cccccczcccccccc"
       style="fill:#000000;fill-opacity:1;fill-rule:evenodd;stroke:#000000;stroke-width:4.41913891000000003;stroke-miterlimit:4;stroke-opacity:1;marker-start:none" />
    <path
       inkscape:connector-curvature="0"
       d="M 107.72781,913.78691 C 82.219937,883.95789 76.750128,862.18171 68.079141,864.24839 61.301095,865.86386 64.54379,870.76426 46.633543,874.1839 29.436949,877.46724 11.908085,865.52073 8.2974742,851.14028 3.475727,837.04313 11.398477,819.35032 29.031264,815.01219 c 17.452375,-5.29549 38.214883,3.4043 44.380628,18.07929 8.945882,16.7798 13.49782,38.92783 42.503388,57.98452 l 22.2639,14.62723 76.93675,92.13929 c 8.59824,11.91008 13.7383,27.74268 2.50971,42.78468 L 107.72781,913.78691 z M 25.074358,858.10512 c 14.831536,12.54745 41.146818,4.9618 41.146259,-11.75038 1.093135,-15.37358 -21.004936,-29.41839 -37.482066,-20.67289 -13.869757,6.12777 -13.81679,23.83362 -3.664193,32.42327 z"
       id="path49000"
       sodipodi:nodetypes="cccccczcccccccc"
       style="fill:#000000;fill-opacity:1;fill-rule:evenodd;stroke:#000000;stroke-width:4.41916322999999966;stroke-miterlimit:4;stroke-opacity:1;stroke-dasharray:none;marker-start:none" />
    <path
       style="fill:#ffffff;fill-opacity:1;fill-rule:nonzero;stroke:#72706f;stroke-width:0.07579323000000000"
       inkscape:connector-curvature="0"
       id="path4782-0-5"
       d="m 138.65365,916.03803 c 0,5.02619 -4.78265,9.10109 -10.68221,9.10109 -5.89599,0 -10.67864,-4.0749 -10.67864,-9.10109 -0.3887,-4.91552 4.39395,-8.98695 10.67864,-9.09626 5.89956,0 10.68221,4.07116 10.68221,9.09626 z"
       class="fil0 str0" />
    <path
       style="fill:none"
       inkscape:connector-curvature="0"
       id="path4788-1-1"
       d="m 120.52461,909.36904 c 1.51589,-1.64548 7.45585,-2.62643 9.62301,-2.36531 10.03804,1.20959 11.18413,15.61046 0.86026,17.55177"
       class="fil3" />
  </g>
</svg>
