<?xml version="1.0" encoding="UTF-8" standalone="no"?>
<!-- Created with Inkscape (http://www.inkscape.org/) -->

<svg
   xmlns:dc="http://purl.org/dc/elements/1.1/"
   xmlns:cc="http://creativecommons.org/ns#"
   xmlns:rdf="http://www.w3.org/1999/02/22-rdf-syntax-ns#"
   xmlns:svg="http://www.w3.org/2000/svg"
   xmlns="http://www.w3.org/2000/svg"
   xmlns:sodipodi="http://sodipodi.sourceforge.net/DTD/sodipodi-0.dtd"
   xmlns:inkscape="http://www.inkscape.org/namespaces/inkscape"
   width="48"
   height="48"
   id="svg8370"
   version="1.1"
   inkscape:version="0.48.5 r10040"
   sodipodi:docname="huayra-menu-system-tools.svg">
  <defs
     id="defs8372" />
  <sodipodi:namedview
     id="base"
     pagecolor="#ffffff"
     bordercolor="#666666"
     borderopacity="1.0"
     inkscape:pageopacity="0.0"
     inkscape:pageshadow="2"
     inkscape:zoom="6.8236509"
     inkscape:cx="79.73972"
     inkscape:cy="24.164195"
     inkscape:document-units="px"
     inkscape:current-layer="layer1"
     showgrid="false"
     inkscape:window-width="1914"
     inkscape:window-height="1031"
     inkscape:window-x="0"
     inkscape:window-y="25"
     inkscape:window-maximized="1" />
  <metadata
     id="metadata8375">
    <rdf:RDF>
      <cc:Work
         rdf:about="">
        <dc:format>image/svg+xml</dc:format>
        <dc:type
           rdf:resource="http://purl.org/dc/dcmitype/StillImage" />
        <dc:title />
      </cc:Work>
    </rdf:RDF>
  </metadata>
  <g
     inkscape:label="Capa 1"
     inkscape:groupmode="layer"
     id="layer1"
     transform="translate(0,-1004.3622)">
    <path
       style="fill:none"
       inkscape:connector-curvature="0"
       id="path11198-0-0-4-2-8"
       d="m 24.396228,1032.2653 c -1.701986,3.1786 0.04468,3.2856 1.039778,3.1784 1.729755,-0.1857 6.68561,-8.3383 8.478594,-11.1784 3.586261,-5.6808 7.529729,-11.9274 11.188959,-17.5632"
       class="fil2" />
    <path
       style="fill:#ffffff;fill-opacity:1;fill-rule:evenodd;stroke:none"
       inkscape:connector-curvature="0"
       id="path6168-0"
       d="m 4.8170898,1048.4348 0.2041392,0.3581 c 0.877732,1.5395 5.955439,3.5048 7.451421,2.6671 l 0.354023,-0.198 c 2.230332,-1.2489 16.117545,-27.3956 18.089541,-28.4999 l 0.354022,-0.1982 c 1.774222,-0.9935 3.351025,-0.4598 4.857205,-1.3031 l 0.353527,-0.198 c 3.147397,-1.7621 1.707916,-8.2374 1.422482,-10.9991 l -4.205169,3.6237 -2.205621,-0.2973 c -0.85684,-2.845 -0.798793,-2.7033 -0.343707,-3.1243 l 3.071259,-3.3843 c -1.572274,-1.0172 -6.688964,-2.0186 -8.844167,-0.8118 -4.858349,2.7204 -2.462648,9.7151 -3.829442,12.4639 l -13.6722734,20.135 c -1.3927257,2.1148 -4.4695541,7.2888 -3.0573977,9.7658 z"
       class="fil2"
       sodipodi:nodetypes="cccccccccccccscccc" />
    <path
       style="fill:#000000;fill-opacity:1;fill-rule:evenodd;stroke:#000000;stroke-width:0.86529917;stroke-miterlimit:4;stroke-opacity:1;stroke-dasharray:none"
       inkscape:connector-curvature="0"
       id="path6168"
       d="m 7.2696734,1047.4705 0.1856323,0.3256 c 0.7981586,1.4 2.6974203,1.9251 4.0577793,1.1634 l 0.321928,-0.1801 c 2.028135,-1.1357 15.432964,-26.4652 17.226183,-27.4694 l 0.321927,-0.1802 c 1.613374,-0.9035 3.047228,-0.4181 4.41686,-1.185 l 0.321477,-0.18 c 2.862061,-1.6024 2.620909,-4.093 2.361352,-6.6043 l -2.880754,2.7127 c -0.207095,0.2138 -0.269157,0.1942 -0.830135,-0.059 l -3.117037,-1.2791 c -0.779161,-2.587 -1.087106,-3.6231 -0.673277,-4.006 l 2.69575,-2.495 c -1.429735,-0.925 -3.267369,-0.9619 -5.227186,0.1355 -4.417901,2.4737 -0.880334,8.0577 -2.123217,10.5573 -1.375562,2.7656 -4.254808,6.692 -6.077234,9.4233 -2.115775,3.1708 -4.185898,6.2244 -6.258464,9.3717 -1.266464,1.9231 -6.0058613,7.6959 -4.7217282,9.9483 z"
       class="fil2" />
    <path
       style="fill:#ffffff;fill-opacity:1;fill-rule:nonzero;stroke:#72706f;stroke-width:0.01496239"
       inkscape:connector-curvature="0"
       id="path4782-0-5-4"
       d="m 12.811794,1045.1892 c 0,1.08 -0.867519,1.9555 -1.93764,1.9555 -1.0694698,0 -1.9369875,-0.8755 -1.9369875,-1.9555 -0.070517,-1.056 0.797006,-1.9308 1.9369875,-1.9542 1.070121,0 1.93764,0.8747 1.93764,1.9542 z"
       class="fil0 str0" />
    <path
       style="fill:none"
       inkscape:connector-curvature="0"
       id="path4788-1-1-9"
       d="m 9.5233767,1043.7564 c 0.2749626,-0.3535 1.3524143,-0.5642 1.7455173,-0.5081 1.820792,0.2599 2.028674,3.3539 0.156048,3.771"
       class="fil3" />
  </g>
</svg>
