<?xml version="1.0" encoding="UTF-8" standalone="no"?>
<!-- Created with Inkscape (http://www.inkscape.org/) -->

<svg
   xmlns:dc="http://purl.org/dc/elements/1.1/"
   xmlns:cc="http://creativecommons.org/ns#"
   xmlns:rdf="http://www.w3.org/1999/02/22-rdf-syntax-ns#"
   xmlns:svg="http://www.w3.org/2000/svg"
   xmlns="http://www.w3.org/2000/svg"
   xmlns:sodipodi="http://sodipodi.sourceforge.net/DTD/sodipodi-0.dtd"
   xmlns:inkscape="http://www.inkscape.org/namespaces/inkscape"
   width="48"
   height="48"
   id="svg8370"
   version="1.1"
   inkscape:version="0.48.5 r10040"
   sodipodi:docname="huayra-menu-graphics.svg">
  <defs
     id="defs8372" />
  <sodipodi:namedview
     id="base"
     pagecolor="#ffffff"
     bordercolor="#666666"
     borderopacity="1.0"
     inkscape:pageopacity="0.0"
     inkscape:pageshadow="2"
     inkscape:zoom="10.539519"
     inkscape:cx="23.725089"
     inkscape:cy="18.115216"
     inkscape:document-units="px"
     inkscape:current-layer="layer1"
     showgrid="false"
     inkscape:window-width="1914"
     inkscape:window-height="1031"
     inkscape:window-x="0"
     inkscape:window-y="25"
     inkscape:window-maximized="1" />
  <metadata
     id="metadata8375">
    <rdf:RDF>
      <cc:Work
         rdf:about="">
        <dc:format>image/svg+xml</dc:format>
        <dc:type
           rdf:resource="http://purl.org/dc/dcmitype/StillImage" />
        <dc:title />
      </cc:Work>
    </rdf:RDF>
  </metadata>
  <g
     inkscape:label="Capa 1"
     inkscape:groupmode="layer"
     id="layer1"
     transform="translate(0,-1004.3622)">
    <path
       style="fill:#ffffff;fill-opacity:1;fill-rule:evenodd;stroke:none"
       d="m 26.701271,1033.9247 c -9.811919,-10.4 -14.502244,-16.3177 -13.862728,-16.7818 l 3.031714,-2.2011 c 0.639515,-0.4642 5.477995,3.7651 15.289913,14.1649 9.811917,10.4 17.326939,19.3042 16.687421,19.7684 l -3.031712,2.2012 c -0.639516,0.4641 -8.302689,-6.7516 -18.114608,-17.1516 z"
       id="rect11194-1-9-4-1-4-7"
       inkscape:connector-curvature="0"
       sodipodi:nodetypes="sssssss" />
    <rect
       style="fill:#000000;fill-opacity:1;fill-rule:evenodd;stroke:#000000;stroke-width:0.64341021;stroke-opacity:1"
       id="rect11194-1-9-4-1-4"
       ry="1.3490546"
       rx="24.379692"
       height="3.5157325"
       width="48.759384"
       y="-688.52808"
       x="-783.26306"
       class="fil0 str0"
       transform="matrix(-0.6862438,-0.7273716,0.71675742,-0.6973226,0,0)" />
    <path
       style="fill:none"
       inkscape:connector-curvature="0"
       id="path11198-0-0-4-1-1"
       d="m 32.974856,1038.2863 c 3.020315,2.4343 4.647529,-0.3605 5.338513,-1.938 1.202237,-2.7421 -6.0453,-9.9275 -8.513944,-12.5365 -4.937691,-5.219 -10.367156,-10.9576 -15.179973,-16.2967"
       class="fil2" />
    <path
       style="fill:#ffffff;fill-opacity:1;fill-rule:evenodd;stroke:none"
       d="m 10.271297,1018.6687 c -4.5296013,-0.9908 0.942017,-8.2742 -9.0106535,-7.9841 0.4166862,-0.172 1.4432099,-1.3055 1.8415316,-1.4511 18.6176949,-6.8059 18.9606369,12.4434 7.1691219,9.4352 z"
       id="path4752-2-8"
       inkscape:connector-curvature="0"
       sodipodi:nodetypes="ccsc" />
    <path
       style="fill:#000000;fill-opacity:1;fill-rule:evenodd;stroke:#000000;stroke-width:0.61000872;stroke-linecap:butt;stroke-linejoin:miter;stroke-miterlimit:4;stroke-opacity:1;stroke-dasharray:none"
       d="m 11.04291,1017.6688 c -2.8336053,-1.0486 0.209231,-7.7596 -8.0194339,-7.5198 17.3403259,-5.6113 15.5409339,9.408 8.0194339,7.5198 z"
       id="path4752-2"
       inkscape:connector-curvature="0"
       sodipodi:nodetypes="ccc" />
    <path
       style="fill:none"
       inkscape:connector-curvature="0"
       id="path11198-0-0-4-2-88"
       d="m 19.478486,1041.1337 c -1.622058,4.0718 0.39385,3.5408 1.524781,3.0562 1.965961,-0.8413 6.804047,-11.5035 8.565826,-15.2423 3.523842,-7.4788 7.398685,-15.7022 11.010975,-23.159"
       class="fil2" />
    <path
       style="fill:#ffffff;fill-opacity:1;fill-rule:evenodd;stroke:none"
       d="m 2.5662668,1047.2136 32.7614992,-36.921 5.52972,4.6917 -33.1059741,37.06 z"
       id="rect11194-1-9-4-0-3-8"
       inkscape:connector-curvature="0"
       sodipodi:nodetypes="ccccc" />
    <rect
       style="fill:#000000;fill-opacity:1;fill-rule:evenodd;stroke:#000000;stroke-width:0.67050529;stroke-opacity:1"
       id="rect11194-1-9-4-0-3"
       ry="0"
       rx="4.7409234"
       height="4.0067158"
       width="46.463711"
       y="699.86621"
       x="-775.41827"
       class="fil0 str0"
       transform="matrix(0.66506384,-0.7467865,0.74390225,0.66828844,0,0)" />
    <path
       style="fill:none;stroke:#000000;stroke-width:0.03636495px;stroke-linecap:butt;stroke-linejoin:miter;stroke-opacity:1"
       d="m 36.57121,1010.7893 3.444529,3.0264"
       id="path4789-2"
       inkscape:connector-curvature="0" />
    <path
       style="fill:#ffffff;fill-opacity:1;fill-rule:evenodd;stroke:none"
       d="m 35.170145,1010.1754 9.816041,-5.3231 -4.289094,10.404"
       id="path4791-9-2"
       inkscape:connector-curvature="0"
       sodipodi:nodetypes="ccc" />
    <path
       style="fill:#000000;fill-opacity:1;fill-rule:evenodd;stroke:#030000;stroke-width:0.72729892;stroke-linecap:butt;stroke-linejoin:miter;stroke-miterlimit:4;stroke-opacity:1;stroke-dasharray:none"
       d="m 36.189794,1010.9458 6.704245,-3.8529 -3.127094,7.0009"
       id="path4791-9"
       inkscape:connector-curvature="0"
       sodipodi:nodetypes="ccc" />
    <path
       style="fill:#ffffff;fill-rule:evenodd;stroke:#000000;stroke-width:0.02804136px;stroke-linecap:butt;stroke-linejoin:miter;stroke-opacity:1"
       d="m 40.839731,1008.2567 1.09634,0.9513 0.926945,-2.0746 z"
       id="path4808-8"
       inkscape:connector-curvature="0" />
  </g>
</svg>
