<?xml version="1.0" encoding="UTF-8" standalone="no"?>
<!-- Created with Inkscape (http://www.inkscape.org/) -->

<svg
   xmlns:dc="http://purl.org/dc/elements/1.1/"
   xmlns:cc="http://creativecommons.org/ns#"
   xmlns:rdf="http://www.w3.org/1999/02/22-rdf-syntax-ns#"
   xmlns:svg="http://www.w3.org/2000/svg"
   xmlns="http://www.w3.org/2000/svg"
   xmlns:sodipodi="http://sodipodi.sourceforge.net/DTD/sodipodi-0.dtd"
   xmlns:inkscape="http://www.inkscape.org/namespaces/inkscape"
   width="256"
   height="256"
   id="svg8370"
   version="1.1"
   inkscape:version="0.48.3.1 r9886"
   sodipodi:docname="huayra-menu-accesibility.svg">
  <defs
     id="defs8372" />
  <sodipodi:namedview
     id="base"
     pagecolor="#ffffff"
     bordercolor="#666666"
     borderopacity="1.0"
     inkscape:pageopacity="0.0"
     inkscape:pageshadow="2"
     inkscape:zoom="2.2873633"
     inkscape:cx="152.18263"
     inkscape:cy="94.189234"
     inkscape:document-units="px"
     inkscape:current-layer="layer1"
     showgrid="false"
     inkscape:window-width="1918"
     inkscape:window-height="1007"
     inkscape:window-x="0"
     inkscape:window-y="25"
     inkscape:window-maximized="1" />
  <metadata
     id="metadata8375">
    <rdf:RDF>
      <cc:Work
         rdf:about="">
        <dc:format>image/svg+xml</dc:format>
        <dc:type
           rdf:resource="http://purl.org/dc/dcmitype/StillImage" />
        <dc:title></dc:title>
      </cc:Work>
    </rdf:RDF>
  </metadata>
  <g
     inkscape:label="Capa 1"
     inkscape:groupmode="layer"
     id="layer1"
     transform="translate(0,-796.36218)">
    <path
       sodipodi:type="arc"
       style="fill:#000000;fill-opacity:1;fill-rule:evenodd;stroke:#030000;stroke-width:20;stroke-linecap:round;stroke-linejoin:bevel;stroke-miterlimit:4;stroke-opacity:1;stroke-dasharray:none"
       id="path5865"
       sodipodi:cx="-17455.107"
       sodipodi:cy="9922.3213"
       sodipodi:rx="559.21497"
       sodipodi:ry="559.21497"
       d="m -16897.509,9879.832 c 23.466,307.953 -207.156,576.622 -515.109,600.088 -307.953,23.466 -576.622,-207.156 -600.088,-515.1094 -23.466,-307.9532 207.156,-576.6216 515.109,-600.0878 303.207,-23.1044 569.304,200.309 599.027,502.9384"
       sodipodi:start="6.2071318"
       sodipodi:end="12.46847"
       sodipodi:open="true"
       transform="matrix(0.20865736,0,0,0.20865736,3766.9153,-1144.2574)" />
    <path
       style="fill:none"
       inkscape:connector-curvature="0"
       id="path4788-1-9"
       d="m 33.09465,845.51077 c 17.913235,-20.48248 88.10661,-32.69322 113.71701,-29.44286 118.62067,15.05674 132.1642,194.31629 10.16537,218.48129"
       class="fil3" />
    <path
       style="fill:#ffffff;fill-opacity:1;fill-rule:evenodd;stroke:none;stroke-width:2.01218151999999995;stroke-miterlimit:4;stroke-opacity:1;stroke-dasharray:none"
       d="m 119.6588,822.0813 c -15.40007,0.28207 -27.120453,10.79178 -26.16807,23.47951 0,10.5748 7.78656,19.51397 18.49001,22.45958 l -48.818713,-0.12752 c -15.132826,-0.0398 -27.29467,2.38544 -27.27152,5.44072 l 0.03339,4.42666 c 0.02315,3.05528 12.225322,5.54622 27.358148,5.58597 l 24.934463,0.0653 c 15.343752,12.92095 11.655941,49.32284 -2.126991,77.0533 l -29.858753,36.84554 c -6.374255,7.86594 -8.918281,15.17824 -5.704269,16.39614 l 4.654162,1.7642 c 3.213905,1.2178 10.932078,-4.1332 17.306439,-11.9992 l 31.998974,-39.48431 c 0.20036,-0.0796 0.3989,-0.15674 0.5968,-0.22837 5.84766,-8.27029 14.23411,-9.89167 22.62067,-6.72747 l 46.38489,48.20425 c 7.05182,7.3286 15.19054,12.0147 18.24655,10.5049 l 4.42415,-2.1852 c 3.05612,-1.5098 -0.15949,-8.6259 -7.2112,-15.95442 l -35.02959,-36.40379 c -18.02177,-25.33543 -14.28649,-59.15871 1.60028,-77.60767 l 23.20413,0.0622 c 15.13283,0.0399 27.29798,-2.38838 27.27483,-5.44366 l -0.0333,-4.42372 c -0.0233,-3.05528 -12.22532,-5.54613 -27.35825,-5.58598 l -52.01587,-0.13634 c 10.78389,-2.90385 18.64331,-11.87795 18.64331,-22.50113 0,-12.97047 -11.71856,-23.47951 -26.17468,-23.47951 z"
       id="rect11194-1-9-4-0-6-5"
       inkscape:connector-curvature="0" />
    <path
       style="fill:none"
       inkscape:connector-curvature="0"
       id="path4788-1-3-5"
       d="m 101.40958,828.34585 c 3.71458,-4.24734 18.2697,-6.77927 23.58019,-6.10535 24.59691,3.12217 27.40531,40.29315 2.1079,45.30388"
       class="fil3" />
  </g>
</svg>
