<?xml version="1.0" encoding="UTF-8" standalone="no"?>
<!-- Created with Inkscape (http://www.inkscape.org/) -->

<svg
   xmlns:dc="http://purl.org/dc/elements/1.1/"
   xmlns:cc="http://creativecommons.org/ns#"
   xmlns:rdf="http://www.w3.org/1999/02/22-rdf-syntax-ns#"
   xmlns:svg="http://www.w3.org/2000/svg"
   xmlns="http://www.w3.org/2000/svg"
   xmlns:sodipodi="http://sodipodi.sourceforge.net/DTD/sodipodi-0.dtd"
   xmlns:inkscape="http://www.inkscape.org/namespaces/inkscape"
   width="48"
   height="48"
   id="svg8370"
   version="1.1"
   inkscape:version="0.48.5 r10040"
   sodipodi:docname="biblioteca-huayra.svg">
  <defs
     id="defs8372" />
  <sodipodi:namedview
     id="base"
     pagecolor="#ffffff"
     bordercolor="#666666"
     borderopacity="1.0"
     inkscape:pageopacity="0.0"
     inkscape:pageshadow="2"
     inkscape:zoom="10.537263"
     inkscape:cx="20.45123"
     inkscape:cy="19.217513"
     inkscape:document-units="px"
     inkscape:current-layer="layer1"
     showgrid="false"
     inkscape:window-width="1914"
     inkscape:window-height="1031"
     inkscape:window-x="0"
     inkscape:window-y="25"
     inkscape:window-maximized="1" />
  <metadata
     id="metadata8375">
    <rdf:RDF>
      <cc:Work
         rdf:about="">
        <dc:format>image/svg+xml</dc:format>
        <dc:type
           rdf:resource="http://purl.org/dc/dcmitype/StillImage" />
        <dc:title />
      </cc:Work>
    </rdf:RDF>
  </metadata>
  <g
     inkscape:label="Capa 1"
     inkscape:groupmode="layer"
     id="layer1"
     transform="translate(0,-1004.3622)">
    <rect
       style="fill:#ffffff;fill-opacity:1;fill-rule:evenodd;stroke:none"
       id="rect11194-1-9-8-4"
       ry="2.4644909"
       rx="2.9230807"
       height="11.719262"
       width="46.177704"
       y="-27.56687"
       x="1005.4581"
       class="fil0 str0"
       transform="matrix(-0.00602595,0.99998184,-0.99999601,-0.0028257,0,0)" />
    <rect
       style="fill:#000000;fill-opacity:1;fill-rule:evenodd;stroke:#000000;stroke-width:0.86679685;stroke-opacity:1"
       id="rect11194-1-9-8"
       ry="1.546335"
       rx="2.6783333"
       height="7.3532033"
       width="42.311275"
       y="-23.660097"
       x="1007.2414"
       class="fil0 str0"
       transform="matrix(-0.00412645,0.99999149,-0.99999149,-0.00412645,0,0)" />
    <rect
       style="fill:#ffffff;fill-opacity:1;fill-rule:evenodd;stroke:none"
       id="rect11194-1-9-8-5-3"
       ry="1.8814981"
       rx="4.1095948"
       height="10.91896"
       width="40.276329"
       y="146.43454"
       x="1008.2838"
       class="fil0 str0"
       transform="matrix(0.17397604,0.98474989,-0.99241937,0.12289747,0,0)" />
    <path
       style="fill:none"
       inkscape:connector-curvature="0"
       id="path11198-0-0-9"
       d="m 17.720129,1021.2362 c -0.59025,-3.2135 -4.18801,-2.4914 -6.027679,-1.9514 -3.1989237,0.9382 -2.8559597,9.4526 -2.8683161,12.4493 -0.024727,5.9941 -0.05194,12.5851 -0.2775761,18.5784"
       class="fil2" />
    <rect
       style="fill:#000000;fill-opacity:1;fill-rule:evenodd;stroke:#000000;stroke-width:0.79599208;stroke-opacity:1"
       id="rect11194-1-9-8-5"
       ry="1.2670623"
       rx="3.6407354"
       height="7.3531847"
       width="35.681244"
       y="134.03105"
       x="1004.6541"
       class="fil0 str0"
       transform="matrix(0.16064996,0.98701144,-0.9867834,0.16204481,0,0)" />
    <path
       style="fill:none"
       inkscape:connector-curvature="0"
       id="path11198-0-0-9-8"
       d="m 30.348429,1021.0017 c -0.59027,-3.2137 -4.188009,-2.4916 -6.027699,-1.9515 -3.198924,0.9381 -2.85594,9.4524 -2.868295,12.4491 -0.02475,5.9943 -0.05194,12.5852 -0.277597,18.5785"
       class="fil2" />
    <rect
       style="fill:#ffffff;fill-opacity:1;fill-rule:evenodd;stroke:none"
       id="rect11194-1-9-8-5-8"
       ry="0.22349037"
       rx="0.56842071"
       height="1.2969891"
       width="5.5708413"
       y="1014.2146"
       x="17.65941"
       class="fil0 str0"
       transform="matrix(0.99997263,0.00739817,-0.00454541,0.99998967,0,0)" />
    <rect
       style="fill:#ffffff;fill-opacity:1;fill-rule:evenodd;stroke:none"
       id="rect11194-1-9-8-5-8-8"
       ry="0.22349037"
       rx="0.56842071"
       height="1.2969891"
       width="5.5708413"
       y="1016.059"
       x="17.662502"
       class="fil0 str0"
       transform="matrix(0.99997263,0.00739817,-0.00454541,0.99998967,0,0)" />
    <rect
       style="fill:#ffffff;fill-opacity:1;fill-rule:evenodd;stroke:none"
       id="rect11194-1-9-8-5-8-84"
       ry="0.22349037"
       rx="0.56842071"
       height="1.2969891"
       width="5.5708413"
       y="1003.4456"
       x="-174.28751"
       class="fil0 str0"
       transform="matrix(0.98159331,-0.19098318,0.19378271,0.98104447,0,0)" />
    <rect
       style="fill:#ffffff;fill-opacity:1;fill-rule:evenodd;stroke:none"
       id="rect11194-1-9-8-5-8-8-1"
       ry="0.22349037"
       rx="0.56842071"
       height="1.2969891"
       width="5.5708413"
       y="1005.29"
       x="-174.28442"
       class="fil0 str0"
       transform="matrix(0.98159331,-0.19098318,0.19378271,0.98104447,0,0)" />
  </g>
</svg>
