<?xml version="1.0" encoding="UTF-8" standalone="no"?>
<!-- Created with Inkscape (http://www.inkscape.org/) -->

<svg
   xmlns:dc="http://purl.org/dc/elements/1.1/"
   xmlns:cc="http://creativecommons.org/ns#"
   xmlns:rdf="http://www.w3.org/1999/02/22-rdf-syntax-ns#"
   xmlns:svg="http://www.w3.org/2000/svg"
   xmlns="http://www.w3.org/2000/svg"
   xmlns:sodipodi="http://sodipodi.sourceforge.net/DTD/sodipodi-0.dtd"
   xmlns:inkscape="http://www.inkscape.org/namespaces/inkscape"
   width="256"
   height="256"
   id="svg2"
   version="1.1"
   inkscape:version="0.48.3.1 r9886"
   sodipodi:docname="computer.svg">
  <defs
     id="defs4">
    <linearGradient
       id="linearGradient4501">
      <stop
         style="stop-color:#323232;stop-opacity:1;"
         offset="0"
         id="stop4503" />
      <stop
         style="stop-color:#575757;stop-opacity:1;"
         offset="1"
         id="stop4505" />
    </linearGradient>
    <linearGradient
       id="linearGradient4491">
      <stop
         style="stop-color:#262626;stop-opacity:1;"
         offset="0"
         id="stop4493" />
      <stop
         style="stop-color:#cfcfcf;stop-opacity:1;"
         offset="1"
         id="stop4495" />
    </linearGradient>
    <linearGradient
       id="linearGradient4441">
      <stop
         style="stop-color:#f7f7f7;stop-opacity:1;"
         offset="0"
         id="stop4443" />
      <stop
         style="stop-color:#02090b;stop-opacity:0;"
         offset="1"
         id="stop4445" />
    </linearGradient>
    <linearGradient
       id="linearGradient4429">
      <stop
         style="stop-color:#15526b;stop-opacity:1;"
         offset="0"
         id="stop4431" />
      <stop
         style="stop-color:#000000;stop-opacity:1;"
         offset="1"
         id="stop4433" />
    </linearGradient>
    <linearGradient
       id="linearGradient4419">
      <stop
         style="stop-color:#585858;stop-opacity:1;"
         offset="0"
         id="stop4421" />
      <stop
         style="stop-color:#d7d7d7;stop-opacity:1;"
         offset="1"
         id="stop4423" />
    </linearGradient>
  </defs>
  <sodipodi:namedview
     id="base"
     pagecolor="#ffffff"
     bordercolor="#666666"
     borderopacity="1.0"
     inkscape:pageopacity="0.0"
     inkscape:pageshadow="2"
     inkscape:zoom="1.2484714"
     inkscape:cx="152.2526"
     inkscape:cy="91.171714"
     inkscape:document-units="px"
     inkscape:current-layer="layer1"
     showgrid="false"
     showguides="true"
     inkscape:guide-bbox="true"
     inkscape:window-width="593"
     inkscape:window-height="812"
     inkscape:window-x="304"
     inkscape:window-y="140"
     inkscape:window-maximized="0"
     inkscape:snap-global="false" />
  <metadata
     id="metadata7">
    <rdf:RDF>
      <cc:Work
         rdf:about="">
        <dc:format>image/svg+xml</dc:format>
        <dc:type
           rdf:resource="http://purl.org/dc/dcmitype/StillImage" />
        <dc:title />
      </cc:Work>
    </rdf:RDF>
  </metadata>
  <g
     inkscape:label="Layer 1"
     inkscape:groupmode="layer"
     id="layer1"
     transform="translate(0,-796.3622)">
    <rect
       style="fill:#ffb380;fill-opacity:1;stroke:none"
       id="rect8672-7-4-5-8-16"
       width="250.07727"
       height="233.91142"
       x="2.9336271"
       y="806.33093"
       ry="32.86359" />
    <path
       style="fill:#cd9067;fill-opacity:1;stroke:none"
       d="M 53.874084,864.65966 2.9787912,901.19721 2.8740624,991.57003 c -3.0836817,40.06747 13.0608466,50.57527 45.3464116,49.17537 20.462265,-0.9082 40.997258,0.1455 59.588946,-0.793 l 92.50696,-43.35131 -25.96751,-17.95518 z"
       id="path8889-0-6-5-6-5"
       inkscape:connector-curvature="0"
       sodipodi:nodetypes="cccccccc" />
    <path
       style="fill:#ffeddf;fill-opacity:1;stroke:none"
       d="m 62.713778,863.112 c -11.129182,0 -20.086405,8.81584 -20.086405,19.76814 l 0,75.41231 c 0,10.95289 8.957223,19.76815 20.086405,19.76815 l 7.154142,0 c 4.777961,-0.41892 8.193866,-0.0582 5.120657,2.24759 l -18.050011,10.64452 c -12.384182,6.88127 1.394057,6.59094 6.085326,6.09988 l 131.954228,-0.11055 c 5.16837,0 14.88604,0.46546 4.81753,-4.85185 l -18.44042,-10.81675 c -5.57913,-2.8492 -3.70042,-3.01677 1.89792,-3.21226 l 11.13384,0 c 11.12918,0 20.08582,-8.81584 20.08582,-19.76815 l 0,-75.41231 c 0,-10.95288 -8.95664,-19.76814 -20.08582,-19.76814 z"
       id="rect3406-3-4-7-3-4"
       inkscape:connector-curvature="0"
       sodipodi:nodetypes="ssssccccccccsssss" />
    <rect
       style="fill:#cd9067;fill-opacity:1;stroke:none"
       id="rect3406-1-0-1-9-6-3"
       width="139.62457"
       height="89.311241"
       x="58.763996"
       y="875.62811"
       ry="15.359735" />
    <g
       transform="matrix(20.575837,0,0,18.841895,81.293833,872.85701)"
       style="fill:#ffeddf;fill-opacity:1;fill-rule:evenodd"
       id="g2992-46-9-5-6-35">
      <path
         sodipodi:nodetypes="ccccc"
         style="fill:#ffeddf;fill-opacity:1"
         inkscape:connector-curvature="0"
         d="M 0.67062907,3.1466295 0.96315753,3.436604 C 1.4643536,2.1285285 2.9137173,3.0231678 2.3709066,3.891 L 2.767349,4.0396257 C 3.5316128,2.8534265 1.7399119,1.2088624 0.67062907,3.1466295 z"
         class="fil0"
         id="_121731384-7-1-1-3-9-24" />
      <path
         sodipodi:nodetypes="zsccz"
         style="fill:#ffeddf;fill-opacity:1"
         inkscape:connector-curvature="0"
         d="M 0.1777958,2.5586559 C -0.01275712,2.3374532 0.11748395,2.4022267 0.31580842,2.5444209 0.51413288,2.686615 0.81410198,2.8425452 1.1021572,3.1460838 L 0.96046525,3.4267024 C 0.50016423,3.0157207 0.36834871,2.7798588 0.1777958,2.5586559 z"
         class="fil0"
         id="_121328256-76-0-5-9-7-9" />
      <path
         sodipodi:open="true"
         sodipodi:end="12.46847"
         sodipodi:start="6.2071318"
         transform="matrix(0.13834256,0,0,0.13834256,0.19919495,1.7915877)"
         d="m 13.844562,12.550547 c 0.112017,1.470034 -0.988873,2.752541 -2.458908,2.864558 -1.4700343,0.112018 -2.7525408,-0.988873 -2.8645582,-2.458907 -0.1120173,-1.470035 0.9888732,-2.752542 2.4589082,-2.864559 1.447376,-0.1102906 2.717609,0.956188 2.859492,2.40081"
         sodipodi:ry="2.6694496"
         sodipodi:rx="2.6694496"
         sodipodi:cy="12.753372"
         sodipodi:cx="11.182829"
         id="path3582-4-4-1-7-9-6"
         style="fill:#ffeddf;fill-opacity:1;stroke:none"
         sodipodi:type="arc" />
      <path
         sodipodi:nodetypes="zsccz"
         style="fill:#ffeddf;fill-opacity:1;fill-rule:evenodd"
         inkscape:connector-curvature="0"
         d="M 0.4247675,1.3417552 C 0.30865975,1.051719 0.40976238,1.1514637 0.55275704,1.3529974 0.69575091,1.5545312 1.0526419,2.1606454 1.2359221,2.5639276 L 0.96710859,2.750389 C 0.74796061,2.1419236 0.54087506,1.6317917 0.4247675,1.3417552 z"
         class="fil0"
         id="_121328256-7-8-7-8-8-2-9" />
      <path
         sodipodi:nodetypes="zsccz"
         style="fill:#ffeddf;fill-opacity:1;fill-rule:evenodd"
         inkscape:connector-curvature="0"
         d="M 1.44312,0.58246558 C 1.43361,0.2701971 1.521214,0.39282353 1.5594765,0.63695278 1.6013875,0.90435635 1.7053444,1.7413136 1.7506921,2.2817189 l -0.3164814,0.082874 c 0.003,-0.6467199 0.018418,-1.46985881 0.00891,-1.78212772 z"
         class="fil0"
         id="_121328256-7-9-5-0-47-9-6-8-1" />
      <path
         sodipodi:nodetypes="zsccz"
         style="fill:#ffeddf;fill-opacity:1;fill-rule:evenodd"
         inkscape:connector-curvature="0"
         d="M 2.4423509,0.52194906 C 2.5291241,0.19808085 2.5810366,0.32015476 2.5788735,0.5833539 2.5767086,0.84655178 2.4931372,1.8976838 2.1801821,2.4013588 L 1.8869765,2.2775017 c 0.307833,-0.6143974 0.4686,-1.43168421 0.5553744,-1.75555264 z"
         class="fil0"
         id="_121328256-7-4-0-9-5-9-7-0-8" />
      <path
         sodipodi:nodetypes="zsccz"
         style="fill:#ffeddf;fill-opacity:1;fill-rule:evenodd"
         inkscape:connector-curvature="0"
         d="M 3.6839051,1.1452392 C 3.9311577,0.7718015 3.8949861,1.029192 3.7754429,1.2636867 3.5368401,1.7317274 2.9264141,2.4275569 2.4666837,2.7714357 L 2.2400615,2.4692892 C 2.8122122,2.0577751 3.4366526,1.5186768 3.6839051,1.1452392 z"
         class="fil0"
         id="_121328256-7-4-9-4-2-0-3-6-5" />
      <path
         sodipodi:nodetypes="zsccz"
         style="fill:#ffeddf;fill-opacity:1;fill-rule:evenodd"
         inkscape:connector-curvature="0"
         d="m 4.2265513,3.0597007 c 0.4091243,-0.09358 0.2522344,0.074602 0.024419,0.1707759 C 4.0062521,3.3337885 3.127026,3.6011424 2.5719027,3.6165508 l 0.00603,-0.3830989 c 0.653125,-5.32e-4 1.239497,-0.080171 1.6486213,-0.1737512 z"
         class="fil0"
         id="_121328256-7-4-9-1-6-5-5-8-7-8" />
      <path
         sodipodi:nodetypes="zsccz"
         style="fill:#ffeddf;fill-opacity:1;fill-rule:evenodd"
         inkscape:connector-curvature="0"
         d="M 3.9700033,4.2976494 C 4.2626923,4.4304234 4.1316091,4.4287597 3.9491295,4.4043056 3.7042093,4.3714838 3.1539385,4.1823832 2.7531868,4.0349335 L 2.8590012,3.7253663 c 0.5571017,0.2920484 0.8183128,0.4395089 1.1110017,0.572283 z"
         class="fil0"
         id="_121328256-9-1-0-9-3-6-5" />
      <path
         inkscape:transform-center-x="-0.069049672"
         inkscape:transform-center-y="0.95298244"
         sodipodi:nodetypes="zsccz"
         style="fill:#ffeddf;fill-opacity:1;fill-rule:evenodd"
         inkscape:connector-curvature="0"
         d="M 4.1962848,2.076334 C 4.5907234,1.8600715 4.4775437,2.0697011 4.2705883,2.2323244 4.0482794,2.4070154 3.2196806,2.935215 2.6523716,3.1218067 L 2.5483179,2.7530525 C 3.2208399,2.5503733 3.801846,2.2925963 4.1962848,2.076334 z"
         class="fil0"
         id="_121328256-7-4-9-1-7-6-07-9-1-6-34" />
    </g>
  </g>
</svg>
