<?xml version="1.0" encoding="UTF-8" standalone="no"?>
<!-- Created with Inkscape (http://www.inkscape.org/) -->

<svg
   xmlns:dc="http://purl.org/dc/elements/1.1/"
   xmlns:cc="http://creativecommons.org/ns#"
   xmlns:rdf="http://www.w3.org/1999/02/22-rdf-syntax-ns#"
   xmlns:svg="http://www.w3.org/2000/svg"
   xmlns="http://www.w3.org/2000/svg"
   xmlns:sodipodi="http://sodipodi.sourceforge.net/DTD/sodipodi-0.dtd"
   xmlns:inkscape="http://www.inkscape.org/namespaces/inkscape"
   width="256"
   height="256"
   id="svg2"
   version="1.1"
   inkscape:version="0.48.3.1 r9886"
   sodipodi:docname="folder-publicshare.svg">
  <defs
     id="defs4">
    <linearGradient
       id="linearGradient4297">
      <stop
         id="stop4299"
         offset="0"
         style="stop-color:#f9fcff;stop-opacity:1;" />
      <stop
         id="stop4301"
         offset="1"
         style="stop-color:#a9d5f1;stop-opacity:1;" />
    </linearGradient>
    <linearGradient
       id="linearGradient3864">
      <stop
         style="stop-color:#ffffff;stop-opacity:1;"
         offset="0"
         id="stop3866" />
      <stop
         style="stop-color:#d5d5d5;stop-opacity:0;"
         offset="1"
         id="stop3868" />
    </linearGradient>
    <linearGradient
       id="linearGradient3815">
      <stop
         style="stop-color:#e0f2fe;stop-opacity:1;"
         offset="0"
         id="stop3817" />
      <stop
         style="stop-color:#075e99;stop-opacity:1;"
         offset="1"
         id="stop3819" />
    </linearGradient>
    <linearGradient
       id="linearGradient3805">
      <stop
         style="stop-color:#989898;stop-opacity:1;"
         offset="0"
         id="stop3807" />
      <stop
         style="stop-color:#2a2a2a;stop-opacity:0.94968551;"
         offset="1"
         id="stop3809" />
    </linearGradient>
    <linearGradient
       id="linearGradient3909">
      <stop
         style="stop-color:#909090;stop-opacity:1;"
         offset="0"
         id="stop3911" />
      <stop
         style="stop-color:#cfcfcf;stop-opacity:1;"
         offset="1"
         id="stop3913" />
    </linearGradient>
    <linearGradient
       id="linearGradient3815-1">
      <stop
         style="stop-color:#e0f2fe;stop-opacity:1;"
         offset="0"
         id="stop3817-9" />
      <stop
         style="stop-color:#486578;stop-opacity:1;"
         offset="1"
         id="stop3819-2" />
    </linearGradient>
    <linearGradient
       id="linearGradient3805-4">
      <stop
         style="stop-color:#989898;stop-opacity:1;"
         offset="0"
         id="stop3807-0" />
      <stop
         style="stop-color:#2a2a2a;stop-opacity:0.94968551;"
         offset="1"
         id="stop3809-2" />
    </linearGradient>
    <linearGradient
       id="linearGradient3805-6">
      <stop
         style="stop-color:#989898;stop-opacity:1;"
         offset="0"
         id="stop3807-4" />
      <stop
         style="stop-color:#2a2a2a;stop-opacity:0.94968551;"
         offset="1"
         id="stop3809-8" />
    </linearGradient>
  </defs>
  <sodipodi:namedview
     id="base"
     pagecolor="#ffffff"
     bordercolor="#666666"
     borderopacity="1.0"
     inkscape:pageopacity="0.0"
     inkscape:pageshadow="2"
     inkscape:zoom="1.7656052"
     inkscape:cx="125.82894"
     inkscape:cy="113.82662"
     inkscape:document-units="px"
     inkscape:current-layer="layer1"
     showgrid="false"
     showguides="true"
     inkscape:guide-bbox="true"
     inkscape:window-width="1914"
     inkscape:window-height="1031"
     inkscape:window-x="0"
     inkscape:window-y="25"
     inkscape:window-maximized="1" />
  <metadata
     id="metadata7">
    <rdf:RDF>
      <cc:Work
         rdf:about="">
        <dc:format>image/svg+xml</dc:format>
        <dc:type
           rdf:resource="http://purl.org/dc/dcmitype/StillImage" />
        <dc:title />
      </cc:Work>
    </rdf:RDF>
  </metadata>
  <g
     inkscape:label="Layer 1"
     inkscape:groupmode="layer"
     id="layer1"
     transform="translate(0,-796.3622)">
    <rect
       style="fill:#ffb380;fill-opacity:1;stroke:none"
       id="rect8672-0-7-7-1-3-9-1-7-1-4-1-2"
       width="248.44052"
       height="232.38046"
       x="4.1374059"
       y="807.93176"
       ry="32.648499" />
    <path
       style="fill:#cd9067;fill-opacity:1;stroke:none"
       d="m 62.60044,844.19222 -58.1388131,62.23302 -0.333756,95.28856 c -1.4311719,18.7877 8.1131211,41.2254 41.6624311,37.9027 l 140.047878,0.8558 37.67256,-39.4397 -32.32344,-2.42657 28.21854,-26.09354 -35.25057,-2.97233 -100.923899,-14.32419 14.032421,-76.69024 z"
       id="path8893-0-6-5-3-3-6-9-9-1-3-8-2-5-8"
       inkscape:connector-curvature="0"
       sodipodi:nodetypes="cccccccccccc" />
    <path
       style="fill:#c6e9af;fill-opacity:1;stroke:none"
       d="m 58.818011,857.58818 c -1.465379,-10.43136 2.050758,-14.60034 11.566902,-14.67279 10.462538,-0.0772 25.116624,-0.39789 34.990577,0 11.02464,0.42165 6.82923,10.49966 7.17623,14.69417 l 94.77411,0 c 8.78966,0 15.86576,7.59384 15.86576,17.0275 l 0,86.33531 c 0,9.43366 -7.0761,17.02809 -15.86576,17.02809 l -148.507819,0 c -8.789601,0 -15.865763,-7.59443 -15.865763,-17.02809 l 0,-86.33531 c 0,-7.04213 2.422879,-11.80321 14.784678,-11.97959 1.8103,-0.0594 1.954492,-2.8482 1.081085,-5.04791 z"
       id="rect10188-9-3-1-4"
       inkscape:connector-curvature="0"
       sodipodi:nodetypes="csscsssssssssc" />
    <path
       style="fill:#656e6e;fill-opacity:1;stroke:none"
       d="M 205.66899,887.2117 55.8711,867.26236 c -12.133456,-1.61593 -13.098023,8.14436 -12.981327,14.99407 l 1.028467,60.33976 c 0.116993,6.84972 5.216333,12.3662 11.695772,12.3662 l 150.054978,0 c 6.47944,0 11.69571,-5.51529 11.69571,-12.3662 l 0,-43.0177 c 0,-6.8515 -5.26746,-11.51042 -11.69571,-12.36679 z"
       id="rect10188-3-4-2-8-3"
       inkscape:connector-curvature="0"
       sodipodi:nodetypes="sssssssss" />
    <path
       style="fill:#a2aeae;fill-opacity:1;stroke:none"
       d="M 59.709887,889.14654 209.7648,869.29874 c 8.5849,-1.13548 13.12659,7.17398 12.98127,14.36755 l -1.28555,63.64703 c -0.1455,7.19357 -5.21634,12.98798 -11.69572,12.98798 l -150.054913,0 c -6.479498,0 -11.695831,-5.79263 -11.695831,-12.98798 l 0,-45.17881 c 0,-7.19535 5.261823,-12.13696 11.695831,-12.98797 z"
       id="rect10188-3-6-5-9"
       inkscape:connector-curvature="0"
       sodipodi:nodetypes="sssssssss" />
    <rect
       style="fill:#c6e9af;fill-opacity:1;stroke:none"
       id="rect10188-6-7-0"
       width="180.23943"
       height="91.829315"
       x="43.424328"
       y="884.26227"
       ry="12.987953" />
    <rect
       style="fill:#c6e9af;fill-opacity:1;stroke:none"
       id="rect4054-0"
       width="180.44904"
       height="6.5532179"
       x="42.580856"
       y="997.51624"
       ry="3.2766089" />
    <rect
       style="fill:#c6e9af;fill-opacity:1;stroke:none"
       id="rect4054-3-4"
       width="54.610153"
       height="6.5532179"
       x="949.73242"
       y="126.36477"
       ry="3.2766089"
       transform="matrix(0,1,1,0,0,0)" />
    <path
       sodipodi:type="arc"
       style="fill:#c6e9af;fill-opacity:1;stroke:none"
       id="path4052-1"
       sodipodi:cx="66.801697"
       sodipodi:cy="585.80646"
       sodipodi:rx="1.4522109"
       sodipodi:ry="1.1881726"
       d="m 68.19464,585.47048 a 1.4522109,1.1881726 0 1 1 -0.101724,-0.20777"
       sodipodi:start="5.9965056"
       sodipodi:end="12.091037"
       sodipodi:open="true"
       transform="matrix(8.3228853,0,0,9.8129556,-426.17958,-4748.5995)" />
  </g>
</svg>
