<?xml version="1.0" encoding="UTF-8" standalone="no"?>
<!-- Created with Inkscape (http://www.inkscape.org/) -->

<svg
   xmlns:dc="http://purl.org/dc/elements/1.1/"
   xmlns:cc="http://creativecommons.org/ns#"
   xmlns:rdf="http://www.w3.org/1999/02/22-rdf-syntax-ns#"
   xmlns:svg="http://www.w3.org/2000/svg"
   xmlns="http://www.w3.org/2000/svg"
   xmlns:sodipodi="http://sodipodi.sourceforge.net/DTD/sodipodi-0.dtd"
   xmlns:inkscape="http://www.inkscape.org/namespaces/inkscape"
   width="256"
   height="256"
   id="svg2"
   version="1.1"
   inkscape:version="0.48.3.1 r9886"
   sodipodi:docname="folder-pictures.svg">
  <defs
     id="defs4">
    <linearGradient
       id="linearGradient4195">
      <stop
         id="stop4197"
         offset="0"
         style="stop-color:#737373;stop-opacity:1;" />
      <stop
         id="stop4199"
         offset="1"
         style="stop-color:#cfcfcf;stop-opacity:1;" />
    </linearGradient>
    <linearGradient
       id="linearGradient4110">
      <stop
         style="stop-color:#000000;stop-opacity:1;"
         offset="0"
         id="stop4112" />
      <stop
         style="stop-color:#ffffff;stop-opacity:1;"
         offset="1"
         id="stop4114" />
    </linearGradient>
    <linearGradient
       id="linearGradient3864">
      <stop
         style="stop-color:#ffffff;stop-opacity:1;"
         offset="0"
         id="stop3866" />
      <stop
         style="stop-color:#d5d5d5;stop-opacity:0;"
         offset="1"
         id="stop3868" />
    </linearGradient>
    <linearGradient
       id="linearGradient3815">
      <stop
         style="stop-color:#e0f2fe;stop-opacity:1;"
         offset="0"
         id="stop3817" />
      <stop
         style="stop-color:#075e99;stop-opacity:1;"
         offset="1"
         id="stop3819" />
    </linearGradient>
    <linearGradient
       id="linearGradient3805">
      <stop
         style="stop-color:#989898;stop-opacity:1;"
         offset="0"
         id="stop3807" />
      <stop
         style="stop-color:#2a2a2a;stop-opacity:0.94968551;"
         offset="1"
         id="stop3809" />
    </linearGradient>
    <linearGradient
       id="linearGradient3909">
      <stop
         style="stop-color:#909090;stop-opacity:1;"
         offset="0"
         id="stop3911" />
      <stop
         style="stop-color:#cfcfcf;stop-opacity:1;"
         offset="1"
         id="stop3913" />
    </linearGradient>
    <linearGradient
       id="linearGradient3815-1">
      <stop
         style="stop-color:#e0f2fe;stop-opacity:1;"
         offset="0"
         id="stop3817-9" />
      <stop
         style="stop-color:#01131f;stop-opacity:1;"
         offset="1"
         id="stop3819-2" />
    </linearGradient>
  </defs>
  <sodipodi:namedview
     id="base"
     pagecolor="#ffffff"
     bordercolor="#666666"
     borderopacity="1.0"
     inkscape:pageopacity="0.0"
     inkscape:pageshadow="2"
     inkscape:zoom="1.7144195"
     inkscape:cx="228.19928"
     inkscape:cy="124.92543"
     inkscape:document-units="px"
     inkscape:current-layer="layer1"
     showgrid="false"
     showguides="true"
     inkscape:guide-bbox="true"
     inkscape:window-width="1914"
     inkscape:window-height="1031"
     inkscape:window-x="0"
     inkscape:window-y="25"
     inkscape:window-maximized="1" />
  <metadata
     id="metadata7">
    <rdf:RDF>
      <cc:Work
         rdf:about="">
        <dc:format>image/svg+xml</dc:format>
        <dc:type
           rdf:resource="http://purl.org/dc/dcmitype/StillImage" />
        <dc:title />
      </cc:Work>
    </rdf:RDF>
  </metadata>
  <g
     inkscape:label="Layer 1"
     inkscape:groupmode="layer"
     id="layer1"
     transform="translate(0,-796.3622)">
    <g
       id="g4731-2-8-0-6-5-9-2"
       transform="matrix(4.9744105,0,0,4.8956052,-7352.4646,-2296.8247)"
       style="fill:#c9ab35;fill-opacity:1">
      <rect
         ry="6.6438928"
         y="634.25696"
         x="1478.9427"
         height="47.288887"
         width="49.756138"
         id="rect8672-0-7-2-8-5-0-6-7-8-6"
         style="fill:#c9ab35;fill-opacity:1;stroke:none" />
      <path
         sodipodi:nodetypes="cccccccc"
         inkscape:connector-curvature="0"
         id="path8893-0-6-8-0-3-0-6-7-2"
         d="m 1490.7889,641.91531 -11.7628,13.29335 -0.033,19.31158 c -0.2054,3.7099 2.9264,7.89895 8.8682,6.96772 l 21.122,0.12211 7.852,-6.82512 -5.5371,-13.37828 z"
         style="fill:#c9ab35;fill-opacity:1;stroke:none" />
      <g
         transform="matrix(0.50518274,0,0,0.50518274,778.3485,376.87025)"
         id="g4705-2-2-3-8-9-2-8"
         style="fill:#c9ab35;fill-opacity:1">
        <g
           id="g4680-9-4-0-2-9-6-6"
           style="fill:#c9ab35;fill-opacity:1">
          <g
             transform="matrix(0.22145581,0,0,0.2292037,1398.8984,523.27852)"
             id="Capa_x0020_1-3-8-1-9-6-6-1"
             style="fill:#c9ab35;fill-opacity:1;fill-rule:evenodd">
            <metadata
               id="CorelCorpID_0Corel-Layer-4-6-9-8-9-6-2" />
            <path
               sodipodi:nodetypes="ccccssssscc"
               style="fill:#c9ab35;fill-opacity:1"
               inkscape:connector-curvature="0"
               id="path10-6-1-2-7-29-3-2"
               d="m 90.727395,5.10321 89.656305,0 1.95914,98.22565 102.38286,1.61549 0,181.93783 c 0,4.61482 0.50121,6.54363 -6.71237,6.54363 l -214.617444,0 c -9.905542,0 -14.944291,0.66997 -14.944291,-9.0379 l 0,-259.441915 c 0,-16.6993952 -2.270573,-19.842985 7.317173,-19.842985 z"
               class="fil0" />
            <path
               sodipodi:nodetypes="cccccc"
               style="fill:#c9ab35;fill-opacity:1"
               inkscape:connector-curvature="0"
               id="path12-2-8-7-6-8-3-7"
               d="m 181.11514,5.8507843 103.41052,99.1972757 -0.0497,-9.948156 -95.77075,-89.9957528 -8.34744,0 z"
               class="fil1" />
          </g>
          <path
             transform="translate(0,284.36218)"
             inkscape:connector-curvature="0"
             id="path4678-4-9-4-3-6-0-1"
             d="m 1438.6861,240.10435 0.6087,22.52322 22.5233,0.36524 z"
             style="fill:#c9ab35;fill-opacity:1;stroke:none" />
        </g>
      </g>
    </g>
    <path
       style="fill:#95790e;fill-opacity:0.99607843;stroke:none"
       d="M 42.273919,877.62523 4.3716151,921.88794 4.2046193,1003.6034 c -1.0221299,17.7959 12.8546507,39.567 43.2628707,35.9374 l 113.20247,-0.3674 59.79603,-49.01047 -55.5624,-49.46653 z"
       id="path8893-0-6-5-3-2-0-4-2-2"
       inkscape:connector-curvature="0"
       sodipodi:nodetypes="cccccccc" />
    <path
       inkscape:connector-curvature="0"
       style="fill:#ebdba9;fill-opacity:1;stroke:none"
       d="m 141.53223,850.64071 c -9.45888,0.0657 -20.87909,0.67881 -31.87951,0.61023 -12.572487,-0.072 -14.551676,24.35583 -14.551676,24.35583 l -17.855312,0.14453 0,-3.95676 c 0,-1.32353 -1.096415,-2.40232 -2.441595,-2.40232 l -18.66841,0 c -1.344605,0 -2.441595,1.07879 -2.441595,2.40232 l 0,4.14564 -0.14972,0 c -14.382375,0 -24.269106,11.42563 -24.269106,25.5802 l 0,71.0887 c 0,14.15526 11.561872,25.53355 25.944247,25.53355 l 145.614637,0 c 14.38237,0 25.99204,-11.37829 25.99204,-25.53355 l 0,-71.0887 c 0,-14.15457 -11.60967,-25.5802 -25.99204,-25.5802 l -40.87944,-1.13062 c 0,0 -4.42136,-23.92359 -14.55167,-24.12036 -1.26629,0 -2.52567,-0.0657 -3.87718,-0.0657 z m -10.48331,38.11162 c 25.56937,-0.65784 47.54257,18.25116 50.06997,43.57688 l 0.0921,1.03693 c 2.05981,26.60273 -18.15533,49.79299 -45.1862,51.8202 -27.03202,2.02722 -50.643511,-17.86867 -52.703318,-44.4714 -2.059808,-26.60336 18.203698,-49.79362 45.235148,-51.82089 0.83153,-0.0657 1.6642,-0.12438 2.48939,-0.14454 z m 0.47795,16.53605 c -0.54705,0 -1.12175,0.0657 -1.67514,0.0921 -17.98948,1.34967 -31.479291,16.77991 -30.109351,34.48401 1.371671,17.70536 17.097501,30.98188 35.088131,29.63215 17.98949,-1.34852 31.4315,-16.77877 30.06099,-34.48413 l -0.0691,-0.70633 c -1.68205,-16.85484 -16.29994,-29.45761 -33.31567,-29.01951 z"
       id="rect4184-7-2-7-2-5-1" />
    <path
       sodipodi:type="arc"
       style="fill:#95790e;fill-opacity:0.99607843;stroke:none"
       id="path4783-8-1-1-6-1-4"
       sodipodi:cx="1562.9642"
       sodipodi:cy="476.29611"
       sodipodi:rx="32.754883"
       sodipodi:ry="32.754883"
       d="m 1595.6244,473.80739 a 32.754883,32.754883 0 1 1 -0.062,-0.71288"
       transform="matrix(1.5869007,0,0,1.4788314,-2347.9437,232.89013)"
       sodipodi:start="6.2071318"
       sodipodi:end="12.46847"
       sodipodi:open="true" />
    <path
       sodipodi:type="arc"
       style="fill:#ead9a3;fill-opacity:1;stroke:none"
       id="path4783-1-0-5-4-7-2-2"
       sodipodi:cx="1562.9642"
       sodipodi:cy="476.29611"
       sodipodi:rx="32.754883"
       sodipodi:ry="32.754883"
       d="m 1595.6244,473.80739 a 32.754883,32.754883 0 1 1 -0.062,-0.71288"
       transform="matrix(1.049819,0,0,1.0160665,-1508.5038,453.30337)"
       sodipodi:start="6.2071318"
       sodipodi:end="12.46847"
       sodipodi:open="true" />
  </g>
</svg>
