<?xml version="1.0" encoding="UTF-8" standalone="no"?>
<!-- Created with Inkscape (http://www.inkscape.org/) -->

<svg
   xmlns:dc="http://purl.org/dc/elements/1.1/"
   xmlns:cc="http://creativecommons.org/ns#"
   xmlns:rdf="http://www.w3.org/1999/02/22-rdf-syntax-ns#"
   xmlns:svg="http://www.w3.org/2000/svg"
   xmlns="http://www.w3.org/2000/svg"
   xmlns:xlink="http://www.w3.org/1999/xlink"
   xmlns:sodipodi="http://sodipodi.sourceforge.net/DTD/sodipodi-0.dtd"
   xmlns:inkscape="http://www.inkscape.org/namespaces/inkscape"
   width="256"
   height="256"
   id="svg2"
   version="1.1"
   inkscape:version="0.48.3.1 r9886"
   sodipodi:docname="empty.svg">
  <defs
     id="defs4">
    <linearGradient
       inkscape:collect="always"
       id="linearGradient4019">
      <stop
         style="stop-color:#ffffff;stop-opacity:1;"
         offset="0"
         id="stop4021" />
      <stop
         style="stop-color:#ffffff;stop-opacity:0;"
         offset="1"
         id="stop4023" />
    </linearGradient>
    <linearGradient
       id="linearGradient3864">
      <stop
         style="stop-color:#ffffff;stop-opacity:1;"
         offset="0"
         id="stop3866" />
      <stop
         style="stop-color:#d5d5d5;stop-opacity:0;"
         offset="1"
         id="stop3868" />
    </linearGradient>
    <linearGradient
       id="linearGradient3815">
      <stop
         style="stop-color:#e0f2fe;stop-opacity:1;"
         offset="0"
         id="stop3817" />
      <stop
         style="stop-color:#075e99;stop-opacity:1;"
         offset="1"
         id="stop3819" />
    </linearGradient>
    <linearGradient
       id="linearGradient3805">
      <stop
         style="stop-color:#989898;stop-opacity:1;"
         offset="0"
         id="stop3807" />
      <stop
         style="stop-color:#2a2a2a;stop-opacity:0.94968551;"
         offset="1"
         id="stop3809" />
    </linearGradient>
    <linearGradient
       id="linearGradient3927">
      <stop
         id="stop3929"
         offset="0"
         style="stop-color:#9d9d9d;stop-opacity:1;" />
      <stop
         id="stop3931"
         offset="1"
         style="stop-color:#ffffff;stop-opacity:1;" />
    </linearGradient>
    <linearGradient
       id="linearGradient3909">
      <stop
         style="stop-color:#909090;stop-opacity:1;"
         offset="0"
         id="stop3911" />
      <stop
         style="stop-color:#cfcfcf;stop-opacity:1;"
         offset="1"
         id="stop3913" />
    </linearGradient>
    <linearGradient
       id="linearGradient3815-1">
      <stop
         style="stop-color:#e0f2fe;stop-opacity:1;"
         offset="0"
         id="stop3817-9" />
      <stop
         style="stop-color:#01131f;stop-opacity:1;"
         offset="1"
         id="stop3819-2" />
    </linearGradient>
    <radialGradient
       inkscape:collect="always"
       xlink:href="#linearGradient4019"
       id="radialGradient4025"
       cx="120.92171"
       cy="141.02525"
       fx="120.92171"
       fy="141.02525"
       r="127.60499"
       gradientTransform="matrix(0.67948535,0.00596595,-0.00506566,0.54621211,39.471564,63.274139)"
       gradientUnits="userSpaceOnUse" />
    <filter
       inkscape:collect="always"
       id="filter4063"
       x="-0.24069887"
       width="1.4813977"
       y="-0.30262623"
       height="1.6052525">
      <feGaussianBlur
         inkscape:collect="always"
         stdDeviation="14.711907"
         id="feGaussianBlur4065" />
    </filter>
  </defs>
  <sodipodi:namedview
     id="base"
     pagecolor="#ffffff"
     bordercolor="#666666"
     borderopacity="1.0"
     inkscape:pageopacity="0.0"
     inkscape:pageshadow="2"
     inkscape:zoom="2.4969428"
     inkscape:cx="98.460183"
     inkscape:cy="136.43074"
     inkscape:document-units="px"
     inkscape:current-layer="layer1"
     showgrid="false"
     showguides="true"
     inkscape:guide-bbox="true"
     inkscape:window-width="1913"
     inkscape:window-height="1026"
     inkscape:window-x="0"
     inkscape:window-y="26"
     inkscape:window-maximized="1" />
  <metadata
     id="metadata7">
    <rdf:RDF>
      <cc:Work
         rdf:about="">
        <dc:format>image/svg+xml</dc:format>
        <dc:type
           rdf:resource="http://purl.org/dc/dcmitype/StillImage" />
        <dc:title></dc:title>
      </cc:Work>
    </rdf:RDF>
  </metadata>
  <g
     inkscape:label="Layer 1"
     inkscape:groupmode="layer"
     id="layer1"
     transform="translate(0,-796.3622)">
    <path
       sodipodi:type="arc"
       style="opacity:0.26506025;fill:url(#radialGradient4025);fill-opacity:1;stroke:none;filter:url(#filter4063)"
       id="path3985"
       sodipodi:cx="120.92171"
       sodipodi:cy="141.02525"
       sodipodi:rx="73.345955"
       sodipodi:ry="58.336941"
       d="m 194.26766,141.02525 c 0,32.21861 -32.8381,58.33694 -73.34595,58.33694 -40.507855,0 -73.345958,-26.11833 -73.345958,-58.33694 0,-32.2186 32.838103,-58.336937 73.345958,-58.336937 28.21623,0 53.93077,12.873837 66.13291,33.109057"
       transform="matrix(1.4119049,0,0,1.0506194,-56.449671,1043.144)"
       sodipodi:start="0"
       sodipodi:end="5.8359757"
       sodipodi:open="true" />
    <path
       inkscape:connector-curvature="0"
       style="fill:#dbe3e2;fill-opacity:1;stroke:none"
       d="m 50.27813,817.11747 0,219.35603 166.72262,0 0,-187.57241 c -10.93332,-9.25258 -26.94202,-17.13462 -45.80913,-31.78362 z"
       id="rect3051"
       sodipodi:nodetypes="cccccc" />
    <path
       transform="matrix(1.0810446,0,0,1.1409536,-253.29061,789.71079)"
       style="fill:#f4f4f6;fill-opacity:1;stroke:none"
       inkscape:transform-center-x="-5.9896366"
       inkscape:transform-center-y="-0.83414663"
       d="m 398.55926,61.28488 -5.83563,-37.564857 43.1638,28.448868 z"
       id="path3054"
       inkscape:connector-curvature="0"
       sodipodi:nodetypes="cccc" />
    <g
       transform="matrix(1.9206744,0,0,1.9206744,64.016237,870.11262)"
       style="fill-rule:evenodd"
       id="g3050">
      <path
         sodipodi:nodetypes="csscczccc"
         inkscape:connector-curvature="0"
         id="path5408-0-1-7-3"
         d="m 23.327825,44.487108 c -3.184879,-0.819596 -6.609597,1.203007 -7.429267,4.388176 -0.819595,3.184878 1.275737,6.328271 4.460587,7.147859 0.188212,0.04843 0.376709,0.114383 0.562756,0.14482 0.02328,0.0038 0.04867,-0.283405 0.07224,-0.280729 0.385751,-0.798408 0.57286,-2.581395 1.825551,-3.984376 1.25266,-1.402986 2.398627,-2.551223 3.897969,-2.731575 0.172142,-2.786488 -0.602895,-3.96615 -3.389927,-4.683363 z"
         style="fill:#5999a8;fill-opacity:1;fill-rule:evenodd;stroke:none" />
      <path
         inkscape:connector-curvature="0"
         id="path5408-06-0-4"
         d="m 28.481031,51.73669 c -1.281419,0.575218 -2.634972,1.735215 -3.650233,3.485981 -2.030049,3.502042 -2.081087,7.85588 -0.200865,9.602434 1.88019,1.746409 4.980358,0.414026 7.0105,-3.088037 1.411039,-2.434371 1.938454,-5.340557 1.473889,-7.407019 -1.720451,-0.137203 -3.271782,-1.253128 -4.371617,-2.647656 -0.09188,0.03488 -0.170709,0.01323 -0.261383,0.05402 z"
         style="fill:#5999a8;fill-opacity:1;fill-rule:evenodd;stroke:none" />
      <path
         inkscape:connector-curvature="0"
         id="path5408-06-7-1-5"
         d="m 35.415568,37.149485 c -0.825444,0.269223 -1.549517,0.68934 -2.306751,1.293722 -3.028297,2.419269 -3.991014,6.785986 -2.146912,9.552742 1.844263,2.766643 5.78724,2.877802 8.815537,0.458537 2.603572,-2.080112 3.459303,-5.329424 2.537571,-8.000261 -2.086153,-0.105703 -4.093662,-1.467802 -5.241769,-3.45484 -0.54563,0.03309 -1.107867,-0.03079 -1.657915,0.149504 z"
         style="fill:#59bad2;fill-opacity:1;fill-rule:evenodd;stroke:none" />
      <path
         inkscape:connector-curvature="0"
         id="path5428-82-1-7"
         d="m 41.354246,24.212119 c -2.960803,3.142654 -2.624764,8.315435 0.330428,11.088758 3.148448,2.954669 8.127952,2.812239 11.088755,-0.330412 1.328497,-1.410109 1.819423,-3.195132 1.906532,-4.989632 -2.317605,0.156453 -4.942575,-0.665083 -7.067364,-2.666915 -1.559946,-1.469684 -2.398751,-3.29185 -2.822428,-5.054233 -1.288188,0.377693 -2.448871,0.904467 -3.435893,1.952108 z"
         style="fill:#59bad2;fill-opacity:1;fill-rule:evenodd;stroke:none"
         sodipodi:nodetypes="csscsccc" />
      <path
         transform="matrix(2.3034733,0,0,2.3034733,-87.985326,-44.772225)"
         d="m 41.743708,34.569763 c 0,0.521243 -0.42255,0.943793 -0.943793,0.943793 -0.521242,0 -0.943793,-0.42255 -0.943793,-0.943793 0,-0.521242 0.422551,-0.943793 0.943793,-0.943793 0.521243,0 0.943793,0.422551 0.943793,0.943793 z"
         sodipodi:ry="0.94379294"
         sodipodi:rx="0.94379294"
         sodipodi:cy="34.569763"
         sodipodi:cx="40.799915"
         id="path5428-8-1-8-5-0-2"
         style="fill:#5999a8;fill-opacity:1;fill-rule:evenodd;stroke:none"
         sodipodi:type="arc" />
      <path
         transform="matrix(4.3392341,0,0,4.3392341,-162.77842,-110.27356)"
         d="m 41.743708,34.569763 c 0,0.521243 -0.42255,0.943793 -0.943793,0.943793 -0.521242,0 -0.943793,-0.42255 -0.943793,-0.943793 0,-0.521242 0.422551,-0.943793 0.943793,-0.943793 0.521243,0 0.943793,0.422551 0.943793,0.943793 z"
         sodipodi:ry="0.94379294"
         sodipodi:rx="0.94379294"
         sodipodi:cy="34.569763"
         sodipodi:cx="40.799915"
         id="path5428-8-1-6-2-8"
         style="fill:#5999a8;fill-opacity:1;fill-rule:evenodd;stroke:none"
         sodipodi:type="arc" />
      <path
         transform="matrix(0.58873455,0,0,0.58873455,-29.0013,-176.1307)"
         d="m 168.96444,326.60593 c 0,11.0447 -8.9535,19.9982 -19.99821,19.9982 -11.0447,0 -19.9982,-8.9535 -19.9982,-19.9982 0,-11.04471 8.9535,-19.99821 19.9982,-19.99821 11.04471,0 19.99821,8.9535 19.99821,19.99821 z"
         sodipodi:ry="19.998207"
         sodipodi:rx="19.998207"
         sodipodi:cy="326.60593"
         sodipodi:cx="148.96623"
         id="path4457-3-3"
         style="fill:#59bad2;fill-opacity:1;fill-rule:evenodd;stroke:none"
         sodipodi:type="arc" />
      <path
         sodipodi:nodetypes="scccczccs"
         inkscape:connector-curvature="0"
         id="path5408-0-1-4-4-4"
         d="m 20.845387,63.225818 c -3.939512,0.423991 -6.632377,1.371722 -6.682263,2.614972 -0.06593,1.657669 4.705103,3.16247 10.74975,3.195742 9.387584,0.137304 15.46584,-1.352323 15.532325,-3.009655 0.03928,-1.017926 -3.433514,-2.435256 -8.095929,-2.406042 -1.787106,2.279768 -4.998307,3.131743 -6.835534,2.737034 -1.837255,-0.394709 -2.749949,-2.049564 -3.215785,-3.132051 -0.46187,0.03167 -1.01693,-0.04631 -1.452741,0 z"
         style="fill:#5999a8;fill-opacity:1;fill-rule:evenodd;stroke:none" />
    </g>
  </g>
</svg>
