<?xml version="1.0" encoding="UTF-8" standalone="no"?>
<!-- Created with Inkscape (http://www.inkscape.org/) -->

<svg
   xmlns:dc="http://purl.org/dc/elements/1.1/"
   xmlns:cc="http://creativecommons.org/ns#"
   xmlns:rdf="http://www.w3.org/1999/02/22-rdf-syntax-ns#"
   xmlns:svg="http://www.w3.org/2000/svg"
   xmlns="http://www.w3.org/2000/svg"
   xmlns:xlink="http://www.w3.org/1999/xlink"
   xmlns:sodipodi="http://sodipodi.sourceforge.net/DTD/sodipodi-0.dtd"
   xmlns:inkscape="http://www.inkscape.org/namespaces/inkscape"
   width="256"
   height="256"
   id="svg2"
   version="1.1"
   inkscape:version="0.48.3.1 r9886"
   sodipodi:docname="text-html.svg">
  <defs
     id="defs4">
    <linearGradient
       inkscape:collect="always"
       id="linearGradient4019">
      <stop
         style="stop-color:#ffffff;stop-opacity:1;"
         offset="0"
         id="stop4021" />
      <stop
         style="stop-color:#ffffff;stop-opacity:0;"
         offset="1"
         id="stop4023" />
    </linearGradient>
    <linearGradient
       id="linearGradient3864">
      <stop
         style="stop-color:#ffffff;stop-opacity:1;"
         offset="0"
         id="stop3866" />
      <stop
         style="stop-color:#d5d5d5;stop-opacity:0;"
         offset="1"
         id="stop3868" />
    </linearGradient>
    <linearGradient
       id="linearGradient3815">
      <stop
         style="stop-color:#e0f2fe;stop-opacity:1;"
         offset="0"
         id="stop3817" />
      <stop
         style="stop-color:#075e99;stop-opacity:1;"
         offset="1"
         id="stop3819" />
    </linearGradient>
    <linearGradient
       id="linearGradient3805">
      <stop
         style="stop-color:#989898;stop-opacity:1;"
         offset="0"
         id="stop3807" />
      <stop
         style="stop-color:#2a2a2a;stop-opacity:0.94968551;"
         offset="1"
         id="stop3809" />
    </linearGradient>
    <linearGradient
       id="linearGradient3927">
      <stop
         id="stop3929"
         offset="0"
         style="stop-color:#9d9d9d;stop-opacity:1;" />
      <stop
         id="stop3931"
         offset="1"
         style="stop-color:#ffffff;stop-opacity:1;" />
    </linearGradient>
    <linearGradient
       id="linearGradient3909">
      <stop
         style="stop-color:#909090;stop-opacity:1;"
         offset="0"
         id="stop3911" />
      <stop
         style="stop-color:#cfcfcf;stop-opacity:1;"
         offset="1"
         id="stop3913" />
    </linearGradient>
    <linearGradient
       id="linearGradient3815-1">
      <stop
         style="stop-color:#e0f2fe;stop-opacity:1;"
         offset="0"
         id="stop3817-9" />
      <stop
         style="stop-color:#01131f;stop-opacity:1;"
         offset="1"
         id="stop3819-2" />
    </linearGradient>
    <radialGradient
       inkscape:collect="always"
       xlink:href="#linearGradient4019"
       id="radialGradient4025"
       cx="120.92171"
       cy="141.02525"
       fx="120.92171"
       fy="141.02525"
       r="127.60499"
       gradientTransform="matrix(0.67948535,0.00596595,-0.00506566,0.54621211,39.471564,63.274139)"
       gradientUnits="userSpaceOnUse" />
    <filter
       inkscape:collect="always"
       id="filter4063"
       x="-0.24069887"
       width="1.4813977"
       y="-0.30262623"
       height="1.6052525">
      <feGaussianBlur
         inkscape:collect="always"
         stdDeviation="14.711907"
         id="feGaussianBlur4065" />
    </filter>
  </defs>
  <sodipodi:namedview
     id="base"
     pagecolor="#ffffff"
     bordercolor="#666666"
     borderopacity="1.0"
     inkscape:pageopacity="0.0"
     inkscape:pageshadow="2"
     inkscape:zoom="2.4969428"
     inkscape:cx="168.1454"
     inkscape:cy="136.43074"
     inkscape:document-units="px"
     inkscape:current-layer="layer1"
     showgrid="false"
     showguides="true"
     inkscape:guide-bbox="true"
     inkscape:window-width="1913"
     inkscape:window-height="1026"
     inkscape:window-x="0"
     inkscape:window-y="26"
     inkscape:window-maximized="1" />
  <metadata
     id="metadata7">
    <rdf:RDF>
      <cc:Work
         rdf:about="">
        <dc:format>image/svg+xml</dc:format>
        <dc:type
           rdf:resource="http://purl.org/dc/dcmitype/StillImage" />
        <dc:title></dc:title>
      </cc:Work>
    </rdf:RDF>
  </metadata>
  <g
     inkscape:label="Layer 1"
     inkscape:groupmode="layer"
     id="layer1"
     transform="translate(0,-796.3622)">
    <path
       sodipodi:type="arc"
       style="opacity:0.26506025;fill:url(#radialGradient4025);fill-opacity:1;stroke:none;filter:url(#filter4063)"
       id="path3985"
       sodipodi:cx="120.92171"
       sodipodi:cy="141.02525"
       sodipodi:rx="73.345955"
       sodipodi:ry="58.336941"
       d="m 194.26766,141.02525 c 0,32.21861 -32.8381,58.33694 -73.34595,58.33694 -40.507855,0 -73.345958,-26.11833 -73.345958,-58.33694 0,-32.2186 32.838103,-58.336937 73.345958,-58.336937 28.21623,0 53.93077,12.873837 66.13291,33.109057"
       transform="matrix(1.4119049,0,0,1.0506194,-56.449671,1043.144)"
       sodipodi:start="0"
       sodipodi:end="5.8359757"
       sodipodi:open="true" />
    <path
       inkscape:connector-curvature="0"
       style="fill:#afdde9;fill-opacity:1;stroke:none"
       d="m 50.27813,817.11747 0,219.35603 166.72262,0 0,-187.57241 c -10.93332,-9.25258 -26.94202,-17.13462 -45.80913,-31.78362 z"
       id="rect3051"
       sodipodi:nodetypes="cccccc" />
    <path
       transform="matrix(1.0810446,0,0,1.1409536,-253.29061,789.71079)"
       style="fill:#d7eef4;fill-opacity:1;stroke:none"
       inkscape:transform-center-x="-5.9896366"
       inkscape:transform-center-y="-0.83414663"
       d="m 398.55926,61.28488 -5.83563,-37.564857 43.1638,28.448868 z"
       id="path3054"
       inkscape:connector-curvature="0"
       sodipodi:nodetypes="cccc" />
    <g
       id="g3231"
       transform="translate(0.8009795,3.6044077)"
       style="opacity:0.65979997">
      <path
         transform="translate(0,796.3622)"
         inkscape:connector-curvature="0"
         id="path3813"
         d="m 81.699909,94.202141 101.724401,0"
         style="fill:#c0e5f4;fill-opacity:1;stroke:#64a7bc;stroke-width:3;stroke-linecap:butt;stroke-linejoin:miter;stroke-miterlimit:4;stroke-opacity:1;stroke-dasharray:none" />
      <path
         inkscape:connector-curvature="0"
         id="path3813-1"
         d="m 81.699908,906.18344 101.724392,0"
         style="fill:#c0e5f4;fill-opacity:1;stroke:#64a7bc;stroke-width:3;stroke-linecap:butt;stroke-linejoin:miter;stroke-miterlimit:4;stroke-opacity:1;stroke-dasharray:none" />
      <path
         inkscape:connector-curvature="0"
         id="path3813-13"
         d="m 81.299414,921.6023 101.724396,0"
         style="fill:#c0e5f4;fill-opacity:1;stroke:#64a7bc;stroke-width:3;stroke-linecap:butt;stroke-linejoin:miter;stroke-miterlimit:4;stroke-opacity:1;stroke-dasharray:none" />
      <path
         inkscape:connector-curvature="0"
         id="path3813-1-9"
         d="m 81.299414,937.2214 101.724386,0"
         style="fill:#c0e5f4;fill-opacity:1;stroke:#64a7bc;stroke-width:3;stroke-linecap:butt;stroke-linejoin:miter;stroke-miterlimit:4;stroke-opacity:1;stroke-dasharray:none" />
      <path
         inkscape:connector-curvature="0"
         id="path3813-7"
         d="m 81.299418,952.8405 101.724402,0"
         style="fill:#c0e5f4;fill-opacity:1;stroke:#64a7bc;stroke-width:3;stroke-linecap:butt;stroke-linejoin:miter;stroke-miterlimit:4;stroke-opacity:1;stroke-dasharray:none" />
      <path
         inkscape:connector-curvature="0"
         id="path3813-1-2"
         d="m 81.299417,968.4596 101.724393,0"
         style="fill:#c0e5f4;fill-opacity:1;stroke:#64a7bc;stroke-width:3;stroke-linecap:butt;stroke-linejoin:miter;stroke-miterlimit:4;stroke-opacity:1;stroke-dasharray:none" />
    </g>
    <g
       transform="matrix(1.1352689,0,0,1.1352689,-9.2332606,762.03356)"
       style="font-size:40px;font-style:normal;font-variant:normal;font-weight:normal;font-stretch:normal;line-height:125%;letter-spacing:0px;word-spacing:0px;fill:#2d89cb;fill-opacity:1;stroke:none;font-family:Asap;-inkscape-font-specification:Asap"
       id="flowRoot3015">
      <path
         d="m 74.18,219.45044 0,-28.4 c -4e-6,-0.58664 0.533329,-0.87997 1.6,-0.88 l 0.16,0 c 1.06666,3e-5 1.599993,0.29336 1.6,0.88 l 0,10.8 c 1.839991,-1.83998 3.879989,-2.75998 6.12,-2.76 1.519985,2e-5 2.893317,0.38668 4.12,1.16 0.666649,0.45335 1.199982,1.13335 1.6,2.04 0.426647,0.90668 0.63998,2.00001 0.64,3.28 l 0,13.88 c -2e-5,0.58666 -0.533352,0.88 -1.6,0.88 l -0.16,0 c -1.066683,0 -1.600016,-0.29334 -1.6,-0.88 l 0,-13.56 c -1.6e-5,-1.19999 -0.346682,-2.14665 -1.04,-2.84 -0.693348,-0.69332 -1.600014,-1.03999 -2.72,-1.04 -1.093345,1e-5 -2.066677,0.24001 -2.92,0.72 -0.826675,0.45335 -1.440008,0.90668 -1.84,1.36 l -0.6,0.72 0,14.64 c -7e-6,0.58666 -0.53334,0.88 -1.6,0.88 l -0.16,0 c -1.066671,0 -1.600004,-0.29334 -1.6,-0.88"
         style=""
         id="path4118" />
      <path
         d="m 97.358125,214.97044 0,-12.76 -2,0 c -0.533335,1e-5 -0.800001,-0.39999 -0.8,-1.2 l 0,-0.48 c -10e-7,-0.79998 0.266665,-1.19998 0.8,-1.2 l 2,0 0.48,-4.2 c 0.05333,-0.58664 0.479995,-0.87998 1.28,-0.88 l 0.4,0 c 0.799995,2e-5 1.199995,0.29336 1.200005,0.88 l 0,4.2 3.36,0 c 0.53332,2e-5 0.79998,0.40002 0.79999,1.2 l 0,0.48 c -10e-6,0.80001 -0.26667,1.20001 -0.79999,1.2 l -3.36,0 0,12.44 c -1e-5,1.97333 0.71999,2.96 2.15999,2.96 0.45333,0 0.83999,-0.0267 1.16001,-0.08 0.31998,-0.08 0.50665,-0.12 0.55999,-0.12 0.23999,0 0.43999,0.25333 0.60001,0.76 0.15998,0.48 0.23998,0.85333 0.24,1.12 -2e-5,0.8 -0.97335,1.2 -2.92001,1.2 -1.33334,0 -2.533335,-0.4 -3.599995,-1.2 -1.040005,-0.82667 -1.560004,-2.26667 -1.56,-4.32"
         style=""
         id="path4120" />
      <path
         d="m 111.03,214.97044 0,-12.76 -2,0 c -0.53334,1e-5 -0.8,-0.39999 -0.8,-1.2 l 0,-0.48 c 0,-0.79998 0.26666,-1.19998 0.8,-1.2 l 2,0 0.48,-4.2 c 0.0533,-0.58664 0.47999,-0.87998 1.28,-0.88 l 0.4,0 c 0.79999,2e-5 1.19999,0.29336 1.2,0.88 l 0,4.2 3.36,0 c 0.53332,2e-5 0.79999,0.40002 0.8,1.2 l 0,0.48 c -1e-5,0.80001 -0.26668,1.20001 -0.8,1.2 l -3.36,0 0,12.44 c -1e-5,1.97333 0.71999,2.96 2.16,2.96 0.45332,0 0.83999,-0.0267 1.16,-0.08 0.31999,-0.08 0.50666,-0.12 0.56,-0.12 0.23999,0 0.43999,0.25333 0.6,0.76 0.15999,0.48 0.23999,0.85333 0.24,1.12 -1e-5,0.8 -0.97334,1.2 -2.92,1.2 -1.33334,0 -2.53334,-0.4 -3.6,-1.2 -1.04,-0.82667 -1.56,-2.26667 -1.56,-4.32"
         style=""
         id="path4122" />
      <path
         d="m 127.22187,227.69044 c 0,0.58665 -0.53333,0.87999 -1.59999,0.88 l -0.16,0 c -1.06668,-1e-5 -1.60001,-0.29335 -1.60001,-0.88 l 0,-22.28 c 0,-1.62665 -0.0667,-2.78665 -0.2,-3.48 -0.18666,-0.95998 -0.28,-1.47998 -0.28,-1.56 0,-0.31998 0.25334,-0.54665 0.76001,-0.68 0.50666,-0.15998 0.89332,-0.23998 1.15999,-0.24 0.29333,2e-5 0.49333,0.0267 0.60001,0.08 0.10666,0.0533 0.19999,0.14668 0.28,0.28 0.10666,0.10668 0.18666,0.22668 0.24,0.36 0.0533,0.10668 0.10666,0.26668 0.15999,0.48 0.0533,0.18668 0.0933,0.34668 0.12001,0.48 0.0533,0.10668 0.0933,0.28002 0.12,0.52 0.0533,0.21335 0.0933,0.36001 0.11999,0.44 1.92,-1.99998 4.05333,-2.99998 6.4,-3 2.34666,2e-5 4.21332,0.98668 5.6,2.96 1.41332,1.97335 2.11998,4.50668 2.12,7.6 l 0,0.36 c -2e-5,3.28 -0.74668,5.85333 -2.24,7.72 -1.49335,1.84 -3.36001,2.76 -5.6,2.76 -2.24001,0 -4.24,-0.68 -6,-2.04 l 0,9.24 m 4.84,-10.16 0.24,0 c 1.70666,-0.0267 2.99999,-0.68 3.88,-1.96 0.90665,-1.28 1.35999,-3.16 1.36,-5.64 -10e-6,-2.47999 -0.42668,-4.41332 -1.28,-5.8 -0.85334,-1.41332 -2.16001,-2.11999 -3.92,-2.12 -1.73334,1e-5 -3.44,0.92001 -5.12,2.76 l 0,10.96 c 1.44,1.2 3.05333,1.8 4.84,1.8"
         style=""
         id="path4124" />
      <path
         d="m 146.9525,203.65044 c -1.06667,1e-5 -1.6,-0.29332 -1.6,-0.88 l 0,-2.64 c 0,-0.58665 0.53333,-0.87998 1.6,-0.88 l 0.68,0 c 1.06666,2e-5 1.59999,0.29335 1.6,0.88 l 0,2.64 c -10e-6,0.58668 -0.53334,0.88001 -1.6,0.88 l -0.68,0 m -1.6,15.8 0,-2.64 c 0,-0.58667 0.53333,-0.88 1.6,-0.88 l 0.68,0 c 1.06666,0 1.59999,0.29333 1.6,0.88 l 0,2.64 c -10e-6,0.58666 -0.53334,0.88 -1.6,0.88 l -0.68,0 c -1.06667,0 -1.6,-0.29334 -1.6,-0.88"
         style=""
         id="path4126" />
      <path
         d="m 164.80125,192.13044 0.16,0 c 0.63999,2e-5 0.95999,0.26669 0.96,0.8 -10e-6,0.18669 -0.04,0.38669 -0.12,0.6 l -12.4,28.84 c -0.26667,0.61333 -0.70667,0.91999 -1.32,0.92 l -0.16,0 c -0.69333,-1e-5 -1.04,-0.26667 -1.04,-0.8 0,-0.21334 0.04,-0.41334 0.12,-0.6 l 12.4,-28.84 c 0.26665,-0.61331 0.73332,-0.91998 1.4,-0.92"
         style=""
         id="path4128" />
      <path
         d="m 179.645,192.13044 0.16,0 c 0.63999,2e-5 0.95999,0.26669 0.96,0.8 -10e-6,0.18669 -0.04,0.38669 -0.12,0.6 l -12.4,28.84 c -0.26667,0.61333 -0.70667,0.91999 -1.32,0.92 l -0.16,0 c -0.69333,-1e-5 -1.04,-0.26667 -1.04,-0.8 0,-0.21334 0.04,-0.41334 0.12,-0.6 l 12.4,-28.84 c 0.26665,-0.61331 0.73332,-0.91998 1.4,-0.92"
         style=""
         id="path4130" />
    </g>
    <g
       id="g3807"
       transform="matrix(0.37911505,0,0,0.37911505,67.580814,540.58189)">
      <path
         sodipodi:open="true"
         sodipodi:end="12.46847"
         sodipodi:start="6.2071318"
         transform="translate(-316.07622,753.50504)"
         d="m 563.93471,163.2024 c 5.09547,66.8693 -44.9821,125.20826 -111.85139,130.30374 -66.8693,5.09547 -125.20826,-44.98211 -130.30374,-111.8514 -5.09547,-66.86929 44.98211,-125.208257 111.8514,-130.30373 65.8386,-5.016933 123.61928,43.49532 130.07329,109.20861"
         sodipodi:ry="121.42857"
         sodipodi:rx="121.42857"
         sodipodi:cy="172.42857"
         sodipodi:cx="442.85715"
         id="path3202"
         style="fill:#2a87ca;fill-opacity:0.98039216;stroke:none"
         sodipodi:type="arc" />
      <path
         sodipodi:nodetypes="zsszz"
         inkscape:connector-curvature="0"
         id="path3985-5"
         d="m 51.423778,840.21932 c 0.54383,6.77209 17.30004,17.39258 47.85714,6.07143 26.244442,-9.72334 25.071002,-29.45973 18.928582,-33.21428 -6.66383,-4.07327 -26.459752,-0.92892 -38.571432,3.57142 -12.11169,4.50035 -28.75812,16.79935 -28.21429,23.57143 z"
         style="fill:none;stroke:#2ad4ff;stroke-width:3;stroke-linecap:butt;stroke-linejoin:miter;stroke-miterlimit:4;stroke-opacity:1;stroke-dasharray:none" />
      <path
         sodipodi:nodetypes="cssc"
         inkscape:connector-curvature="0"
         id="path3987"
         d="m 29.638068,855.93361 c 0,0 -13.51828,25.89188 8.57143,37.85714 17.14285,9.28571 63.280842,11.42097 100.000002,-7.85714 33.83673,-17.76479 54.28571,-57.5 38.57143,-68.21429"
         style="fill:none;stroke:#2ad4ff;stroke-width:3;stroke-linecap:butt;stroke-linejoin:miter;stroke-miterlimit:4;stroke-opacity:1;stroke-dasharray:none" />
      <path
         sodipodi:nodetypes="cssc"
         inkscape:connector-curvature="0"
         id="path3989"
         d="m 7.4952079,933.07647 c 0,0 -1.78572,18.92857 27.5000001,27.5 29.28571,8.57143 76.944832,9.98102 127.857142,-15 47.18547,-23.15238 68.21429,-81.07143 58.21429,-93.21429"
         style="fill:none;stroke:#2ad4ff;stroke-width:3;stroke-linecap:butt;stroke-linejoin:miter;stroke-miterlimit:4;stroke-opacity:1;stroke-dasharray:none" />
      <path
         sodipodi:nodetypes="csc"
         inkscape:connector-curvature="0"
         id="path3991"
         d="m 29.638058,998.4336 c 0,0 52.05887,32.6728 115.714292,16.0714 58.17002,-15.17076 102.14286,-66.07139 100.00001,-104.64282"
         style="fill:none;stroke:#2ad4ff;stroke-width:3;stroke-linecap:butt;stroke-linejoin:miter;stroke-miterlimit:4;stroke-opacity:1;stroke-dasharray:none" />
      <path
         sodipodi:nodetypes="csc"
         inkscape:connector-curvature="0"
         id="path3993"
         d="m 90.352348,1039.8622 c 0,0 29.061372,7.1191 71.428572,-5.3572 40.45084,-11.9119 62.14286,-38.21425 62.14286,-38.21425"
         style="fill:none;stroke:#2ad4ff;stroke-width:3;stroke-linecap:butt;stroke-linejoin:miter;stroke-miterlimit:4;stroke-opacity:1;stroke-dasharray:none" />
      <path
         sodipodi:nodetypes="cscsc"
         inkscape:connector-curvature="0"
         id="path3995"
         d="M 188.92379,1030.9336 C 238.78021,987.03042 249.24313,916.62067 204.63807,863.79075 170.44379,823.29128 91.066638,825.21932 91.066638,825.21932 c 0,0 56.204722,30.09336 73.571432,71.42857 17.11139,40.72752 25.71428,84.28571 -0.71429,144.28571"
         style="fill:none;stroke:#2ad4ff;stroke-width:3;stroke-linecap:butt;stroke-linejoin:miter;stroke-miterlimit:4;stroke-opacity:1;stroke-dasharray:none" />
      <path
         sodipodi:nodetypes="cscssc"
         inkscape:connector-curvature="0"
         id="path3997"
         d="M 131.06664,1045.9336 C 99.638068,1033.0765 69.157998,972.6852 66.780918,921.6479 c -2.62617,-56.38553 23.57143,-95.00001 23.57143,-95.00001 0,0 -12.78142,-3.68706 -35,17.14286 -22.85714,21.42857 -37.45963,78.09937 -32.14286,110.00001 7.14286,42.85713 52.2006,88.57144 102.142862,92.14284"
         style="fill:none;stroke:#2ad4ff;stroke-width:3;stroke-linecap:butt;stroke-linejoin:miter;stroke-miterlimit:4;stroke-opacity:1;stroke-dasharray:none" />
      <path
         sodipodi:nodetypes="cc"
         inkscape:connector-curvature="0"
         id="path3999"
         d="m 89.638068,825.21932 c 0,0 24.748742,-14.58158 59.034452,-16.72444"
         style="fill:none;stroke:#2ad4ff;stroke-width:3;stroke-linecap:butt;stroke-linejoin:miter;stroke-miterlimit:4;stroke-opacity:1;stroke-dasharray:none" />
      <path
         sodipodi:nodetypes="cc"
         inkscape:connector-curvature="0"
         id="path3999-4"
         d="m 113.92444,805.66088 c 0,0 -30.809662,2.59101 -23.798062,20.14613"
         style="fill:none;stroke:#2ad4ff;stroke-width:3;stroke-linecap:butt;stroke-linejoin:miter;stroke-miterlimit:4;stroke-opacity:1;stroke-dasharray:none" />
      <path
         sodipodi:nodetypes="cc"
         inkscape:connector-curvature="0"
         id="path3999-4-7"
         d="m 57.295108,827.84186 c 0,0 24.12294,-19.33992 31.12935,-1.78272"
         style="fill:none;stroke:#2ad4ff;stroke-width:3;stroke-linecap:butt;stroke-linejoin:miter;stroke-miterlimit:4;stroke-opacity:1;stroke-dasharray:none" />
      <path
         sodipodi:open="true"
         sodipodi:end="12.46847"
         sodipodi:start="6.2071318"
         transform="translate(-306.07622,796.36218)"
         d="m 394.25784,172.43732 c 0.40464,5.11354 -3.57211,9.57475 -8.88232,9.9644 -5.31021,0.38966 -9.94301,-3.4398 -10.34765,-8.55334 -0.40464,-5.11353 3.57211,-9.57475 8.88232,-9.9644 5.22836,-0.38365 9.81682,3.32611 10.32935,8.35125"
         sodipodi:ry="9.2857141"
         sodipodi:rx="9.6428576"
         sodipodi:cy="173.14285"
         sodipodi:cx="384.64285"
         id="path4037"
         style="fill:#2ad4ff;stroke:none"
         sodipodi:type="arc" />
      <path
         sodipodi:open="true"
         sodipodi:end="12.46847"
         sodipodi:start="6.2071318"
         d="m 394.25784,172.43732 c 0.40464,5.11354 -3.57211,9.57475 -8.88232,9.9644 -5.31021,0.38966 -9.94301,-3.4398 -10.34765,-8.55334 -0.40464,-5.11353 3.57211,-9.57475 8.88232,-9.9644 5.22836,-0.38365 9.81682,3.32611 10.32935,8.35125"
         sodipodi:ry="9.2857141"
         sodipodi:rx="9.6428576"
         sodipodi:cy="173.14285"
         sodipodi:cx="384.64285"
         id="path4037-7"
         style="fill:#2ad4ff;fill-opacity:1;stroke:none"
         sodipodi:type="arc"
         transform="translate(-209.2905,829.21932)" />
      <path
         sodipodi:open="true"
         sodipodi:end="12.46847"
         sodipodi:start="6.2071318"
         d="m 394.25784,172.43732 c 0.40464,5.11354 -3.57211,9.57475 -8.88232,9.9644 -5.31021,0.38966 -9.94301,-3.4398 -10.34765,-8.55334 -0.40464,-5.11353 3.57211,-9.57475 8.88232,-9.9644 5.22836,-0.38365 9.81682,3.32611 10.32935,8.35125"
         sodipodi:ry="9.2857141"
         sodipodi:rx="9.6428576"
         sodipodi:cy="173.14285"
         sodipodi:cx="384.64285"
         id="path4037-7-5"
         style="fill:#2ad4ff;fill-opacity:1;stroke:none"
         sodipodi:type="arc"
         transform="matrix(0.73812113,0,0,0.73812113,-106.08605,714.98707)" />
    </g>
  </g>
</svg>
