<?xml version="1.0" encoding="UTF-8" standalone="no"?>
<!-- Created with Inkscape (http://www.inkscape.org/) -->

<svg
   xmlns:dc="http://purl.org/dc/elements/1.1/"
   xmlns:cc="http://creativecommons.org/ns#"
   xmlns:rdf="http://www.w3.org/1999/02/22-rdf-syntax-ns#"
   xmlns:svg="http://www.w3.org/2000/svg"
   xmlns="http://www.w3.org/2000/svg"
   xmlns:xlink="http://www.w3.org/1999/xlink"
   xmlns:sodipodi="http://sodipodi.sourceforge.net/DTD/sodipodi-0.dtd"
   xmlns:inkscape="http://www.inkscape.org/namespaces/inkscape"
   width="256"
   height="256"
   id="svg2"
   version="1.1"
   inkscape:version="0.48.3.1 r9886"
   sodipodi:docname="text-x-generic.svg">
  <defs
     id="defs4">
    <linearGradient
       inkscape:collect="always"
       id="linearGradient4019">
      <stop
         style="stop-color:#ffffff;stop-opacity:1;"
         offset="0"
         id="stop4021" />
      <stop
         style="stop-color:#ffffff;stop-opacity:0;"
         offset="1"
         id="stop4023" />
    </linearGradient>
    <linearGradient
       id="linearGradient3864">
      <stop
         style="stop-color:#ffffff;stop-opacity:1;"
         offset="0"
         id="stop3866" />
      <stop
         style="stop-color:#d5d5d5;stop-opacity:0;"
         offset="1"
         id="stop3868" />
    </linearGradient>
    <linearGradient
       id="linearGradient3815">
      <stop
         style="stop-color:#e0f2fe;stop-opacity:1;"
         offset="0"
         id="stop3817" />
      <stop
         style="stop-color:#075e99;stop-opacity:1;"
         offset="1"
         id="stop3819" />
    </linearGradient>
    <linearGradient
       id="linearGradient3805">
      <stop
         style="stop-color:#989898;stop-opacity:1;"
         offset="0"
         id="stop3807" />
      <stop
         style="stop-color:#2a2a2a;stop-opacity:0.94968551;"
         offset="1"
         id="stop3809" />
    </linearGradient>
    <linearGradient
       id="linearGradient3927">
      <stop
         id="stop3929"
         offset="0"
         style="stop-color:#9d9d9d;stop-opacity:1;" />
      <stop
         id="stop3931"
         offset="1"
         style="stop-color:#ffffff;stop-opacity:1;" />
    </linearGradient>
    <linearGradient
       id="linearGradient3909">
      <stop
         style="stop-color:#909090;stop-opacity:1;"
         offset="0"
         id="stop3911" />
      <stop
         style="stop-color:#cfcfcf;stop-opacity:1;"
         offset="1"
         id="stop3913" />
    </linearGradient>
    <linearGradient
       id="linearGradient3815-1">
      <stop
         style="stop-color:#e0f2fe;stop-opacity:1;"
         offset="0"
         id="stop3817-9" />
      <stop
         style="stop-color:#01131f;stop-opacity:1;"
         offset="1"
         id="stop3819-2" />
    </linearGradient>
    <radialGradient
       inkscape:collect="always"
       xlink:href="#linearGradient4019"
       id="radialGradient4025"
       cx="120.92171"
       cy="141.02525"
       fx="120.92171"
       fy="141.02525"
       r="127.60499"
       gradientTransform="matrix(0.67948535,0.00596595,-0.00506566,0.54621211,39.471564,63.274139)"
       gradientUnits="userSpaceOnUse" />
    <filter
       inkscape:collect="always"
       id="filter4063"
       x="-0.24069887"
       width="1.4813977"
       y="-0.30262623"
       height="1.6052525">
      <feGaussianBlur
         inkscape:collect="always"
         stdDeviation="14.711907"
         id="feGaussianBlur4065" />
    </filter>
  </defs>
  <sodipodi:namedview
     id="base"
     pagecolor="#ffffff"
     bordercolor="#666666"
     borderopacity="1.0"
     inkscape:pageopacity="0.0"
     inkscape:pageshadow="2"
     inkscape:zoom="1.2484714"
     inkscape:cx="276.47372"
     inkscape:cy="79.068821"
     inkscape:document-units="px"
     inkscape:current-layer="layer1"
     showgrid="false"
     showguides="true"
     inkscape:guide-bbox="true"
     inkscape:window-width="1913"
     inkscape:window-height="1026"
     inkscape:window-x="0"
     inkscape:window-y="26"
     inkscape:window-maximized="1" />
  <metadata
     id="metadata7">
    <rdf:RDF>
      <cc:Work
         rdf:about="">
        <dc:format>image/svg+xml</dc:format>
        <dc:type
           rdf:resource="http://purl.org/dc/dcmitype/StillImage" />
        <dc:title></dc:title>
      </cc:Work>
    </rdf:RDF>
  </metadata>
  <g
     inkscape:label="Layer 1"
     inkscape:groupmode="layer"
     id="layer1"
     transform="translate(0,-796.3622)">
    <path
       sodipodi:type="arc"
       style="opacity:0.26506025;fill:url(#radialGradient4025);fill-opacity:1;stroke:none;filter:url(#filter4063)"
       id="path3985"
       sodipodi:cx="120.92171"
       sodipodi:cy="141.02525"
       sodipodi:rx="73.345955"
       sodipodi:ry="58.336941"
       d="m 194.26766,141.02525 c 0,32.21861 -32.8381,58.33694 -73.34595,58.33694 -40.507855,0 -73.345958,-26.11833 -73.345958,-58.33694 0,-32.2186 32.838103,-58.336937 73.345958,-58.336937 28.21623,0 53.93077,12.873837 66.13291,33.109057"
       transform="matrix(1.4119049,0,0,1.0506194,-56.449671,1043.144)"
       sodipodi:start="0"
       sodipodi:end="5.8359757"
       sodipodi:open="true" />
    <g
       id="g3956">
      <path
         sodipodi:nodetypes="cccccc"
         id="rect3051"
         d="m 50.27813,817.11747 0,219.35603 166.72262,0 0,-187.57241 c -10.93332,-9.25258 -26.94202,-17.13462 -45.80913,-31.78362 z"
         style="fill:#dbe3e2;fill-opacity:1;stroke:none"
         inkscape:connector-curvature="0" />
      <path
         sodipodi:nodetypes="cccc"
         inkscape:connector-curvature="0"
         id="path3054"
         d="m 398.55926,61.28488 -5.83563,-37.564857 43.1638,28.448868 z"
         inkscape:transform-center-y="-0.83414663"
         inkscape:transform-center-x="-5.9896366"
         style="fill:#f4f4f6;fill-opacity:1;stroke:none"
         transform="matrix(1.0810446,0,0,1.1409536,-253.29061,789.71079)" />
      <path
         sodipodi:nodetypes="cc"
         inkscape:connector-curvature="0"
         id="path3813"
         d="m 71.930011,867.33593 112.695769,0"
         style="fill:#6f7c91;fill-opacity:1;stroke:#939dac;stroke-width:3;stroke-linecap:butt;stroke-linejoin:miter;stroke-miterlimit:4;stroke-opacity:1;stroke-dasharray:none" />
      <path
         sodipodi:nodetypes="cc"
         inkscape:connector-curvature="0"
         id="path3813-1"
         d="m 71.930011,882.95503 112.695769,0"
         style="fill:#6f7c91;fill-opacity:1;stroke:#939dac;stroke-width:3;stroke-linecap:butt;stroke-linejoin:miter;stroke-miterlimit:4;stroke-opacity:1;stroke-dasharray:none" />
      <path
         sodipodi:nodetypes="cc"
         inkscape:connector-curvature="0"
         id="path3813-13"
         d="m 71.930011,898.37389 112.695769,0"
         style="fill:#6f7c91;fill-opacity:1;stroke:#939dac;stroke-width:3;stroke-linecap:butt;stroke-linejoin:miter;stroke-miterlimit:4;stroke-opacity:1;stroke-dasharray:none" />
      <path
         sodipodi:nodetypes="cc"
         inkscape:connector-curvature="0"
         id="path3813-1-9"
         d="m 151.38512,978.87233 33.24066,0"
         style="fill:#6f7c91;fill-opacity:1;stroke:#939dac;stroke-width:3;stroke-linecap:butt;stroke-linejoin:miter;stroke-miterlimit:4;stroke-opacity:1;stroke-dasharray:none" />
      <path
         sodipodi:nodetypes="cc"
         inkscape:connector-curvature="0"
         id="path3813-7"
         d="m 71.930011,995.6929 112.695769,0"
         style="fill:#6f7c91;fill-opacity:1;stroke:#939dac;stroke-width:3;stroke-linecap:butt;stroke-linejoin:miter;stroke-miterlimit:4;stroke-opacity:1;stroke-dasharray:none" />
      <path
         sodipodi:nodetypes="cc"
         inkscape:connector-curvature="0"
         id="path3813-1-2"
         d="m 71.930011,1012.1129 112.695769,0"
         style="fill:#6f7c91;fill-opacity:1;stroke:#939dac;stroke-width:3;stroke-linecap:butt;stroke-linejoin:miter;stroke-miterlimit:4;stroke-opacity:1;stroke-dasharray:none" />
      <path
         sodipodi:nodetypes="cc"
         inkscape:connector-curvature="0"
         id="path3813-1-9-8"
         d="m 149.38267,914.99424 35.24311,0"
         style="fill:#6f7c91;fill-opacity:1;stroke:#939dac;stroke-width:3;stroke-linecap:butt;stroke-linejoin:miter;stroke-miterlimit:4;stroke-opacity:1;stroke-dasharray:none" />
      <path
         sodipodi:nodetypes="cc"
         inkscape:connector-curvature="0"
         id="path3813-1-9-8-2"
         d="m 151.38513,933.01626 33.24065,0"
         style="fill:#6f7c91;fill-opacity:1;stroke:#939dac;stroke-width:3;stroke-linecap:butt;stroke-linejoin:miter;stroke-miterlimit:4;stroke-opacity:1;stroke-dasharray:none" />
      <path
         sodipodi:nodetypes="cc"
         inkscape:connector-curvature="0"
         id="path3813-1-9-8-6"
         d="m 151.38513,964.25445 33.24065,0"
         style="fill:#6f7c91;fill-opacity:1;stroke:#939dac;stroke-width:3;stroke-linecap:butt;stroke-linejoin:miter;stroke-miterlimit:4;stroke-opacity:1;stroke-dasharray:none" />
      <g
         id="g3114"
         transform="matrix(0.34466606,0,0,0.34466606,61.986196,628.54275)">
        <path
           style="opacity:0.98999999;fill:#41707b;fill-opacity:1;stroke:none"
           d="m 29.25482,827.43726 193.95078,0.54763 -0.55235,195.62361 -193.950784,-0.5476 z"
           id="rect3777"
           inkscape:connector-curvature="0"
           sodipodi:nodetypes="ccccc" />
        <path
           style="fill:#d3bc5f;fill-opacity:0.54901961;stroke:none"
           d="m 86.102043,941.80541 c 0,0 -4.235332,18.80801 -14.726194,31.32504 -5.667053,6.76153 0.346349,4.02472 -32.337227,26.09802 -6.474679,4.37283 -4.324192,-0.23676 -10.177825,-0.77025 -0.0268,-56.07002 -0.125104,-112.36326 -0.0047,-171.54718 l 194.902773,-0.0842 -0.91766,171.20108 c 0,0 -3.97611,1.34804 -3.58126,-7.37872 -3.29792,-9.37801 -14.05314,-17.55913 -16.55532,-20.0755 -2.50224,-2.51639 -19.17193,-23.47455 -19.1672,-25.1474 0.005,-1.67287 -2.89211,-12.55481 -2.88738,-14.22769 0.005,-1.67288 -6.92666,-64.84388 -9.0036,-69.8684 -2.07691,-5.02452 -13.72798,-25.96849 -21.25591,-25.98975 -7.52793,-0.0213 -27.17472,-3.42251 -27.17472,-3.42251 l -19.69404,13.32748 -11.340305,17.11505 c 0,0 -5.879826,8.76606 -5.488785,18.38626 0.391065,9.62019 -3.877332,40.1383 -1.39281,48.92795 2.484524,8.78968 0.802203,12.13071 0.802203,12.13071 z"
           id="path4353"
           inkscape:connector-curvature="0"
           sodipodi:nodetypes="csscccccssssscccsscc" />
        <g
           id="g4383"
           transform="matrix(1.8015961,0.00508692,-0.00508692,1.8015961,-87.534305,-686.83623)">
          <g
             id="g4377">
            <path
               style="fill:#d3bc5f;fill-opacity:1;stroke:none;display:inline"
               d="m 117.03761,901.16654 0.69641,6.03557 c 0,0 -6.96413,2.78565 -8.35695,4.41062 -1.39282,1.62496 -8.35695,9.51764 -9.05336,12.30328 -0.696415,2.78565 1.85709,7.89268 6.96413,8.82123 5.10702,0.92854 19.73168,3.24992 19.73168,3.24992 0,0 14.62467,-9.51764 16.48177,-11.37474 1.85711,-1.85709 -9.28551,-12.07115 -8.5891,-16.7139 0.69642,-4.64275 -5.33915,-2.55351 -10.21404,-4.17847 -4.87489,-1.62496 -7.66054,-2.55351 -7.66054,-2.55351 z"
               id="path4349"
               inkscape:connector-curvature="0" />
            <path
               style="fill:#d3bc5f;fill-opacity:1;stroke:none"
               d="m 117.07953,846.488 -3.76562,5.9174 c 0,0 -7.39271,1.96474 -7.55685,4.09863 -0.16415,2.13391 -2.78376,12.4695 -1.30644,12.96193 1.47731,0.49244 4.14025,-1.37795 7.18621,-0.27701 1.03555,0.37429 3.38211,2.60833 0.75577,4.74222 -2.62632,2.13391 -7.78828,-0.85329 -7.78828,-0.85329 0,0 0.18403,5.92955 0.51233,8.55589 0.32829,2.62634 -0.34075,5.25309 1.79315,8.04357 2.1339,2.79048 5.59183,8.20199 7.88986,8.53028 2.29806,0.3283 10.34804,-3.79495 11.16878,-4.94397 0.82073,-1.14902 4.32544,-5.64768 5.63862,-8.93061 1.31316,-3.28292 2.55964,-6.14775 1.73891,-9.92311 -0.82072,-3.77535 -0.81971,-5.91739 -0.81971,-5.91739 0,0 4.9291,-2.1326 0.333,-5.25138 -4.59609,-3.11877 -2.46832,-8.69814 -7.55684,-9.68301 -5.08854,-0.98488 -10.51892,0.49443 -9.86235,-1.63946 0.65659,-2.1339 1.63946,-5.43069 1.63946,-5.43069 z m 3.12521,21.82522 c 0,0 9.35372,1.17163 10.50275,2.48479 1.14902,1.31318 -3.34609,2.77923 -6.62901,3.27167 -3.28292,0.49243 -4.42064,-2.3766 -5.25137,-0.40421 -0.99655,2.36603 -0.42073,2.59173 -2.22634,2.92002 -1.8056,0.32828 -0.1721,-4.00276 -0.008,-5.48007 0.16414,-1.47732 3.61192,-2.7922 3.61192,-2.7922 z m -1.33408,13.9603 c 0,0 0.27746,0.54104 0.11332,1.19761 -0.54137,1.55613 -1.88533,2.27174 -3.08033,2.27647 -2.54526,0.01 -1.84875,-1.4058 -3.2025,-2.30186 0.27941,0.0802 1.25226,0.17484 1.6118,0.13488 1.47732,-0.16414 2.07008,0.527 2.95451,-0.42209 0.29578,-0.31741 1.6032,-0.88501 1.6032,-0.88501 z m -6.86319,0.33368 c 0,0 0.78808,0.3604 1.19038,0.80953 -0.85407,-0.25391 -1.19038,-0.80953 -1.19038,-0.80953 z m 6.39054,5.24231 c 0.54886,-0.0206 3.96527,-0.65978 3.62549,-0.47765 -1.594,0.85448 -4.76465,1.30644 -4.76465,1.30644 l -6.62275,-0.2967 c 0.46166,0.0693 1.57828,-0.57986 1.98864,-0.53883 1.2311,0.12311 4.12668,0.0683 5.77327,0.007 z m -1.65709,2.58204 c 0.50013,-0.008 1.30668,-0.45688 1.51187,-0.2517 0.82073,0.82073 -0.79921,2.71585 -3.09725,1.89511 -2.29805,-0.82073 -1.84163,-1.7572 -1.84163,-1.7572 0,0 1.9266,0.13687 3.42701,0.11379 z"
               id="path4335"
               inkscape:connector-curvature="0"
               sodipodi:nodetypes="ccsssscsssssscsssccssssscccscssccscssccssscscsc" />
            <path
               style="fill:#d3bc5f;fill-opacity:1;stroke:none"
               d="m 107.75211,869.94403 c 0,0 -1.62497,0.34821 -1.39282,1.04463 0.23213,0.6964 1.85709,-0.34822 3.36599,0 1.50889,0.3482 2.32137,0.3482 2.32137,0.3482 z"
               id="path4355"
               inkscape:connector-curvature="0" />
            <path
               style="fill:#d3bc5f;fill-opacity:1;stroke:none"
               d="m 122.02856,869.7119 -2.55351,1.39282 c 0,0 2.20531,-0.34821 3.01779,-0.34821 0.81248,0 2.43744,0.69642 3.59813,0.92855 1.16069,0.23214 -0.23213,-1.50889 -0.23213,-1.50889 l -3.366,-0.58034 z"
               id="path4357"
               inkscape:connector-curvature="0" />
          </g>
        </g>
      </g>
      <path
         sodipodi:nodetypes="cc"
         inkscape:connector-curvature="0"
         id="path3813-1-9-8-6-0"
         d="m 151.18489,949.03585 33.44089,0"
         style="fill:#6f7c91;fill-opacity:1;stroke:#939dac;stroke-width:3;stroke-linecap:butt;stroke-linejoin:miter;stroke-miterlimit:4;stroke-opacity:1;stroke-dasharray:none" />
    </g>
  </g>
</svg>
