<?xml version="1.0" encoding="UTF-8" standalone="no"?>
<!-- Created with Inkscape (http://www.inkscape.org/) -->

<svg
   xmlns:dc="http://purl.org/dc/elements/1.1/"
   xmlns:cc="http://creativecommons.org/ns#"
   xmlns:rdf="http://www.w3.org/1999/02/22-rdf-syntax-ns#"
   xmlns:svg="http://www.w3.org/2000/svg"
   xmlns="http://www.w3.org/2000/svg"
   xmlns:sodipodi="http://sodipodi.sourceforge.net/DTD/sodipodi-0.dtd"
   xmlns:inkscape="http://www.inkscape.org/namespaces/inkscape"
   width="16"
   height="16"
   id="svg2"
   version="1.1"
   inkscape:version="0.48.3.1 r9886"
   sodipodi:docname="network.svg">
  <defs
     id="defs4">
    <inkscape:perspective
       sodipodi:type="inkscape:persp3d"
       inkscape:vp_x="0 : 526.18109 : 1"
       inkscape:vp_y="0 : 1000 : 0"
       inkscape:vp_z="744.09448 : 526.18109 : 1"
       inkscape:persp3d-origin="372.04724 : 350.78739 : 1"
       id="perspective4095" />
  </defs>
  <sodipodi:namedview
     id="base"
     pagecolor="#ffffff"
     bordercolor="#666666"
     borderopacity="1.0"
     inkscape:pageopacity="0.0"
     inkscape:pageshadow="2"
     inkscape:zoom="9.987771"
     inkscape:cx="16.576074"
     inkscape:cy="2.0530159"
     inkscape:document-units="px"
     inkscape:current-layer="layer1"
     showgrid="false"
     showguides="true"
     inkscape:guide-bbox="true"
     inkscape:window-width="1022"
     inkscape:window-height="546"
     inkscape:window-x="0"
     inkscape:window-y="16"
     inkscape:window-maximized="0" />
  <metadata
     id="metadata7">
    <rdf:RDF>
      <cc:Work
         rdf:about="">
        <dc:format>image/svg+xml</dc:format>
        <dc:type
           rdf:resource="http://purl.org/dc/dcmitype/StillImage" />
        <dc:title></dc:title>
      </cc:Work>
    </rdf:RDF>
  </metadata>
  <g
     inkscape:label="Layer 1"
     inkscape:groupmode="layer"
     id="layer1"
     transform="translate(0,-1036.3622)">
    <g
       id="g2991"
       transform="matrix(1.8114847,0,0,1.8114847,-12.55893,-854.99063)">
      <path
         inkscape:connector-curvature="0"
         id="rect3021-8"
         d="m 8.5702332,1044.976 c -0.6933479,0 -1.25,0.5566 -1.25,1.25 l 0,3.25 c 0,0.6933 0.5566521,1.2812 1.25,1.2812 l 5.6562498,0 c 0.693348,0 1.25,-0.5879 1.25,-1.2812 l 0,-3.25 c 0,-0.6934 -0.556652,-1.25 -1.25,-1.25 l -5.6562498,0 z m 0.78125,0.6875 4.0624998,0 c 0.693348,0 1.25,0.5566 1.25,1.25 l 0,1.5 c 0,0.6933 -0.556652,1.25 -1.25,1.25 l -4.0624998,0 c -0.6933479,0 -1.25,-0.5567 -1.25,-1.25 l 0,-1.5 c 0,-0.6934 0.5566521,-1.25 1.25,-1.25 z"
         style="fill:#614868;fill-opacity:1;stroke:none" />
      <rect
         ry="0.33628696"
         y="1050.964"
         x="7.5167446"
         height="1.1681547"
         width="7.9205251"
         id="rect3812-4"
         style="fill:#614868;fill-opacity:1;stroke:none" />
      <path
         sodipodi:open="true"
         sodipodi:end="12.46847"
         sodipodi:start="6.2071318"
         d="M 5.1656417,3.7202336 C 5.2027773,4.2075738 4.8378142,4.6327454 4.350474,4.669881 3.8631338,4.7070166 3.4379621,4.3420536 3.4008265,3.8547133 3.363691,3.3673731 3.728654,2.9422014 4.2159942,2.9050659 4.6958229,2.8685027 5.1169258,3.2220577 5.1639622,3.7009731"
         sodipodi:ry="0.88496572"
         sodipodi:rx="0.88496572"
         sodipodi:cy="3.7874734"
         sodipodi:cx="4.2832341"
         id="path3852-5"
         style="fill:#4b7744;fill-opacity:1;stroke:none"
         sodipodi:type="arc"
         transform="translate(7.0797255,1043.9375)" />
    </g>
  </g>
</svg>
