<?xml version="1.0" encoding="UTF-8" standalone="no"?>
<!-- Created with Inkscape (http://www.inkscape.org/) -->

<svg
   xmlns:dc="http://purl.org/dc/elements/1.1/"
   xmlns:cc="http://creativecommons.org/ns#"
   xmlns:rdf="http://www.w3.org/1999/02/22-rdf-syntax-ns#"
   xmlns:svg="http://www.w3.org/2000/svg"
   xmlns="http://www.w3.org/2000/svg"
   xmlns:sodipodi="http://sodipodi.sourceforge.net/DTD/sodipodi-0.dtd"
   xmlns:inkscape="http://www.inkscape.org/namespaces/inkscape"
   width="16"
   height="16"
   id="svg2"
   version="1.1"
   inkscape:version="0.48.2 r9819"
   sodipodi:docname="pendrive.svg">
  <defs
     id="defs4">
    <inkscape:perspective
       sodipodi:type="inkscape:persp3d"
       inkscape:vp_x="0 : 526.18109 : 1"
       inkscape:vp_y="0 : 1000 : 0"
       inkscape:vp_z="744.09448 : 526.18109 : 1"
       inkscape:persp3d-origin="372.04724 : 350.78739 : 1"
       id="perspective4095" />
  </defs>
  <sodipodi:namedview
     id="base"
     pagecolor="#ffffff"
     bordercolor="#666666"
     borderopacity="1.0"
     inkscape:pageopacity="0.0"
     inkscape:pageshadow="2"
     inkscape:zoom="16"
     inkscape:cx="25.186947"
     inkscape:cy="-2.8849229"
     inkscape:document-units="px"
     inkscape:current-layer="layer1"
     showgrid="false"
     showguides="true"
     inkscape:guide-bbox="true"
     inkscape:window-width="1680"
     inkscape:window-height="995"
     inkscape:window-x="-2"
     inkscape:window-y="-3"
     inkscape:window-maximized="1" />
  <metadata
     id="metadata7">
    <rdf:RDF>
      <cc:Work
         rdf:about="">
        <dc:format>image/svg+xml</dc:format>
        <dc:type
           rdf:resource="http://purl.org/dc/dcmitype/StillImage" />
        <dc:title></dc:title>
      </cc:Work>
    </rdf:RDF>
  </metadata>
  <g
     inkscape:label="Layer 1"
     inkscape:groupmode="layer"
     id="layer1"
     transform="translate(0,-1036.3622)">
    <g
       id="g4381"
       transform="matrix(0.63120558,0.77561557,-0.77561557,0.63120558,812.7836,379.03783)">
      <path
         id="rect4183"
         transform="translate(0,1036.3622)"
         d="m 5.9375,10.9375 c -0.053412,0 -0.0625,0.04875 -0.0625,0.09375 l 0,3.875 c 0,0.045 0.00909,0.0625 0.0625,0.0625 l 1.8125,0 0,-4 c 0,-0.0099 -0.00378,-0.02385 0,-0.03125 l -1.8125,0 z m 1.875,0 c 0.00378,0.0074 0,0.02134 0,0.03125 l 0,4 1.84375,0 c 0.05341,0 0.0625,-0.0175 0.0625,-0.0625 l 0,-3.875 c 0,-0.045 -0.0091,-0.09375 -0.0625,-0.09375 l -1.84375,0 z m -1.28125,1.875 0.75,0 c 0.090917,0 0.1875,0.097 0.1875,0.1875 l 0,0.21875 c 0,0.091 -0.096583,0.15625 -0.1875,0.15625 l -0.75,0 C 6.440333,13.375 6.375,13.30995 6.375,13.21875 L 6.375,13 c 0,-0.091 0.065333,-0.1875 0.15625,-0.1875 z m 1.75,0 0.78125,0 c 0.090917,0 0.15625,0.06495 0.15625,0.15625 l 0,0.25 c 0,0.091 -0.065333,0.15625 -0.15625,0.15625 l -0.78125,0 C 8.190333,13.375 8.125,13.30995 8.125,13.21875 l 0,-0.25 c 0,-0.091 0.065333,-0.15625 0.15625,-0.15625 z"
         style="fill:#614868;fill-opacity:1;stroke:none"
         inkscape:connector-curvature="0" />
      <path
         id="rect4203"
         transform="translate(0,1036.3622)"
         d="M 6.40625,0.71875 C 5.6615166,0.71875 5.0625,1.3177 5.0625,2.0625 l 0,8.46875 c 0,0.3836 0.5990166,0.3125 1.34375,0.3125 l 2.8125,0 c 0.7447331,0 1.34375,0.10115 1.34375,-0.21875 l 0,-8.5625 c 0,-0.7448 -0.5990169,-1.34375 -1.34375,-1.34375 z m 1.28125,2.3125 c 0.5338374,0 0.9375,0.3275 0.9375,0.75 0,0.2227 -0.076421,0.35745 -0.25,0.46875 l 0.1875,0 0,0.46875 -2.40625,0 0,-0.46875 0.875,0 C 6.8543957,4.1387 6.75,4.00065 6.75,3.78125 c 0,-0.2162 0.1076711,-0.4414 0.28125,-0.5625 0.1703039,-0.118 0.4171695,-0.1875 0.65625,-0.1875 z m 0,0.4375 C 7.3599923,3.46875 7.15625,3.649 7.15625,3.875 7.15625,4.1042 7.3665425,4.25 7.6875,4.25 8.0248329,4.25 8.25,4.1075 8.25,3.875 8.25,3.649 8.0084575,3.46875 7.6875,3.46875 z m 0.34375,1.5625 C 8.204829,5.03125 8.3639474,5.119 8.46875,5.25 8.5735528,5.381 8.625,5.5669 8.625,5.8125 8.625,6.3496 8.4177091,6.612 8.03125,6.625 l 0,-0.4375 C 8.126227,6.1685 8.182724,6.14275 8.21875,6.09375 8.258051,6.03485 8.28125,5.9304 8.28125,5.8125 8.28125,5.5996 8.2018276,5.5 8.09375,5.5 8.0216985,5.5 8.004776,5.5104 7.96875,5.625 L 7.78125,6.1875 C 7.7255734,6.3578 7.687226,6.40675 7.625,6.46875 7.5562233,6.53075 7.4616529,6.5625 7.34375,6.5625 6.9802165,6.5625 6.75,6.29235 6.75,5.84375 6.75,5.36885 6.9703913,5.0725 7.34375,5.0625 l 0,0.46875 C 7.1832712,5.53455 7.125,5.62435 7.125,5.84375 c 0,0.1605 0.057998,0.28125 0.15625,0.28125 0.072051,0 0.085699,-0.02845 0.125,-0.15625 L 7.59375,5.375 C 7.6625267,5.1425 7.8019947,5.03125 8.03125,5.03125 z m -1.25,1.9375 1.78125,0 0,0.4375 -0.21875,0 C 8.5402549,7.53725 8.625,7.6984 8.625,7.9375 c 0,0.3767 -0.2040158,0.59375 -0.59375,0.59375 l -1.25,0 0,-0.4375 1.15625,0 c 0.2128799,0 0.3125,-0.1159 0.3125,-0.3125 0,-0.2227 -0.1341452,-0.375 -0.34375,-0.375 l -1.125,0 z"
         style="fill:#614868;fill-opacity:1;stroke:none"
         inkscape:connector-curvature="0"
         sodipodi:nodetypes="sssssssssssccccccscssssssssscccsscccssccssccsccccssccssscc" />
    </g>
  </g>
</svg>
