<?xml version="1.0" encoding="UTF-8" standalone="no"?>
<!-- Created with Inkscape (http://www.inkscape.org/) -->

<svg
   xmlns:dc="http://purl.org/dc/elements/1.1/"
   xmlns:cc="http://creativecommons.org/ns#"
   xmlns:rdf="http://www.w3.org/1999/02/22-rdf-syntax-ns#"
   xmlns:svg="http://www.w3.org/2000/svg"
   xmlns="http://www.w3.org/2000/svg"
   xmlns:sodipodi="http://sodipodi.sourceforge.net/DTD/sodipodi-0.dtd"
   xmlns:inkscape="http://www.inkscape.org/namespaces/inkscape"
   width="16"
   height="16"
   id="svg2"
   version="1.1"
   inkscape:version="0.48.2 r9819"
   sodipodi:docname="video.svg">
  <defs
     id="defs4">
    <inkscape:perspective
       sodipodi:type="inkscape:persp3d"
       inkscape:vp_x="0 : 526.18109 : 1"
       inkscape:vp_y="0 : 1000 : 0"
       inkscape:vp_z="744.09448 : 526.18109 : 1"
       inkscape:persp3d-origin="372.04724 : 350.78739 : 1"
       id="perspective4095" />
  </defs>
  <sodipodi:namedview
     id="base"
     pagecolor="#ffffff"
     bordercolor="#666666"
     borderopacity="1.0"
     inkscape:pageopacity="0.0"
     inkscape:pageshadow="2"
     inkscape:zoom="14.124841"
     inkscape:cx="10.948178"
     inkscape:cy="2.6796812"
     inkscape:document-units="px"
     inkscape:current-layer="layer1"
     showgrid="false"
     showguides="true"
     inkscape:guide-bbox="true"
     inkscape:window-width="993"
     inkscape:window-height="673"
     inkscape:window-x="562"
     inkscape:window-y="135"
     inkscape:window-maximized="0" />
  <metadata
     id="metadata7">
    <rdf:RDF>
      <cc:Work
         rdf:about="">
        <dc:format>image/svg+xml</dc:format>
        <dc:type
           rdf:resource="http://purl.org/dc/dcmitype/StillImage" />
        <dc:title></dc:title>
      </cc:Work>
    </rdf:RDF>
  </metadata>
  <g
     inkscape:label="Layer 1"
     inkscape:groupmode="layer"
     id="layer1"
     transform="translate(0,-1036.3622)">
    <g
       id="g4160"
       transform="matrix(1.1341119,0,0,1.1341119,-1.1390065,-140.12668)">
      <path
         id="path4131"
         transform="translate(0,1036.3622)"
         d="M 8.125,1.625 C 7.9141148,1.62 7.6834714,1.639888 7.46875,1.65625 3.9794246,1.9221383 1.3903617,4.9481746 1.65625,8.4375 c 0.2658883,3.489325 3.2919246,6.109638 6.78125,5.84375 3.489325,-0.265888 6.109638,-3.323175 5.84375,-6.8125 l 0,-0.125 C 13.96552,4.1290589 11.288279,1.6999605 8.125,1.625 z m -3,0.96875 L 6.5625,4.625 5.59375,5.3125 3.40625,3.90625 5.125,2.59375 z m 2.59375,2 c 1.7650562,-0.1344981 3.295726,1.1758031 3.46875,2.9375 l 0,0.0625 c 0.136604,1.7926879 -1.2073121,3.363396 -3,3.5 -1.7926879,0.136604 -3.3321463,-1.2073121 -3.46875,-3 -0.1366037,-1.7926879 1.2073121,-3.3633963 3,-3.5 z m 2.75,5.625 c 0,0 2.143804,1.358405 2.25,1.5 0.106196,0.141594 -1.53125,1.34375 -1.53125,1.34375 L 9.75,10.78125 l 0.71875,-0.5625 z"
         style="fill:#6c4477;fill-opacity:1;stroke:none"
         inkscape:connector-curvature="0" />
      <path
         sodipodi:open="true"
         sodipodi:end="12.46847"
         sodipodi:start="6.2071318"
         transform="matrix(0.34696911,0,0,0.34696911,5.2120224,1041.4001)"
         d="M 9.7650079,7.6911268 C 9.8377936,8.6463137 9.1224661,9.4796501 8.1672793,9.5524358 7.2120924,9.6252215 6.3787559,8.909894 6.3059702,7.9547072 6.2331845,6.9995203 6.948512,6.1661838 7.9036989,6.0933981 8.844163,6.0217343 9.6695247,6.7147021 9.7617162,7.6533763"
         sodipodi:ry="1.7345328"
         sodipodi:rx="1.7345328"
         sodipodi:cy="7.822917"
         sodipodi:cx="8.0354891"
         id="path4152"
         style="fill:#6c4477;fill-opacity:1;stroke:none"
         sodipodi:type="arc" />
    </g>
  </g>
</svg>
