<?xml version="1.0" encoding="UTF-8" standalone="no"?>
<!-- Created with Inkscape (http://www.inkscape.org/) -->

<svg
   xmlns:dc="http://purl.org/dc/elements/1.1/"
   xmlns:cc="http://creativecommons.org/ns#"
   xmlns:rdf="http://www.w3.org/1999/02/22-rdf-syntax-ns#"
   xmlns:svg="http://www.w3.org/2000/svg"
   xmlns="http://www.w3.org/2000/svg"
   xmlns:sodipodi="http://sodipodi.sourceforge.net/DTD/sodipodi-0.dtd"
   xmlns:inkscape="http://www.inkscape.org/namespaces/inkscape"
   width="256"
   height="256"
   id="svg2"
   version="1.1"
   inkscape:version="0.48.3.1 r9886"
   sodipodi:docname="folder-movies.svg">
  <defs
     id="defs4">
    <inkscape:perspective
       sodipodi:type="inkscape:persp3d"
       inkscape:vp_x="0 : 526.18109 : 1"
       inkscape:vp_y="0 : 1000 : 0"
       inkscape:vp_z="744.09448 : 526.18109 : 1"
       inkscape:persp3d-origin="372.04724 : 350.78739 : 1"
       id="perspective4095" />
  </defs>
  <sodipodi:namedview
     id="base"
     pagecolor="#ffffff"
     bordercolor="#666666"
     borderopacity="1.0"
     inkscape:pageopacity="0.0"
     inkscape:pageshadow="2"
     inkscape:zoom="0.88280258"
     inkscape:cx="97.894413"
     inkscape:cy="191.24579"
     inkscape:document-units="px"
     inkscape:current-layer="layer1"
     showgrid="false"
     showguides="true"
     inkscape:guide-bbox="true"
     inkscape:window-width="993"
     inkscape:window-height="546"
     inkscape:window-x="29"
     inkscape:window-y="16"
     inkscape:window-maximized="0" />
  <metadata
     id="metadata7">
    <rdf:RDF>
      <cc:Work
         rdf:about="">
        <dc:format>image/svg+xml</dc:format>
        <dc:type
           rdf:resource="http://purl.org/dc/dcmitype/StillImage" />
        <dc:title />
      </cc:Work>
    </rdf:RDF>
  </metadata>
  <g
     inkscape:label="Layer 1"
     inkscape:groupmode="layer"
     id="layer1"
     transform="translate(0,-796.3622)">
    <g
       id="g2987"
       transform="matrix(1.0242607,0,0,1.0242607,8.5244988,-32.327662)">
      <path
         sodipodi:nodetypes="sssssssssccsssscssssssssssssssssssssssssssssssssssssssssssssssssssssssssssssssssssssssssssssssssssssssssssssssssssscsssscssssssssssssssssss"
         inkscape:connector-curvature="0"
         id="rect3861"
         d="m 28.795397,817.93812 c -15.324598,0 -27.83862662,12.51366 -27.83862662,27.83813 l 0,178.26595 c 0,15.3245 12.51402862,27.3507 27.83862662,27.3507 l 178.753283,0 c 15.3246,0 27.35023,-12.0262 27.35023,-27.3507 l 0,-178.26595 c 0,-15.32447 -12.02563,-27.83813 -27.35023,-27.83813 z m 21.842451,7.81499 135.285962,0 0,16.60473 c 0,15.32601 -10.84426,27.35064 -24.41985,27.35064 l -86.446263,0 c -13.575598,0 -24.419849,-12.02463 -24.419849,-27.35064 z m -35.517566,21.48887 14.651908,0 c 3.984396,0 7.325955,3.34131 7.325955,7.32579 l 0,7.32581 c 0,3.98448 -3.341559,6.8387 -7.325955,6.8387 l -14.651908,0 c -3.984395,0 -6.8375567,-2.85422 -6.8375567,-6.8387 l 0,-7.32581 c 0,-3.98448 2.8531617,-7.32579 6.8375567,-7.32579 z m 188.521208,1.95444 14.65192,0 c 3.98439,0 6.83756,2.8526 6.83756,6.83668 l 0,7.32619 c 0,3.98408 -2.85317,7.32581 -6.83756,7.32581 l -14.65192,0 c -3.98439,0 -7.32593,-3.34173 -7.32593,-7.32581 l 0,-7.32619 c 0,-3.98408 3.34154,-6.83668 7.32593,-6.83668 z m -189.009605,30.28018 14.163512,0 c 3.984396,0 7.325955,3.34173 7.325955,7.32581 l 0,6.83709 c 0,3.98408 -3.341559,7.32579 -7.325955,7.32579 l -14.163512,0 c -3.984395,0 -7.3259546,-3.34171 -7.3259546,-7.32579 l 0,-6.83709 c 0,-3.98408 3.3415596,-7.32581 7.3259546,-7.32581 z m 61.04962,0.96817 81.073885,0 c 15.32461,0 27.83864,12.51335 27.83864,27.83788 l 0,55.67816 c 0,15.32449 -12.51403,27.83817 -27.83864,27.83817 l -81.073885,0 c -15.324597,0 -27.838625,-12.51368 -27.838625,-27.83817 l 0,-55.67816 c 0,-15.32453 12.514028,-27.83788 27.838625,-27.83788 z m 127.471595,0.48389 14.16353,0 c 3.98439,0 7.32593,3.34171 7.32593,7.32579 l 0,7.32621 c 0,3.98408 -3.34154,7.32579 -7.32593,7.32579 l -14.16353,0 c -3.9844,0 -7.32595,-3.34171 -7.32595,-7.32579 l 0,-7.32621 c 0,-3.98408 3.34155,-7.32579 7.32595,-7.32579 z m -189.009612,29.79109 14.651909,0 c 3.984396,0 7.325955,3.34172 7.325955,7.3258 l 0,6.83869 c 0,3.98408 -3.341559,7.3258 -7.325955,7.3258 l -14.651909,0 c -3.984395,0 -6.8375576,-3.34172 -6.8375576,-7.3258 l 0,-6.83869 c 0,-3.98408 2.8531626,-7.3258 6.8375576,-7.3258 z m 188.521212,1.46894 14.65193,0 c 3.98439,0 6.83753,3.34171 6.83753,7.32579 l 0,7.32621 c 0,3.98407 -2.85314,7.32579 -6.83753,7.32579 l -14.65193,0 c -3.98438,0 -7.32595,-3.34172 -7.32595,-7.32579 l 0,-7.32621 c 0,-3.98408 3.34157,-7.32579 7.32595,-7.32579 z m -189.009608,31.25842 14.651909,0 c 3.984396,0 6.837556,3.34131 6.837556,7.32579 l 0,7.3258 c 0,3.98448 -2.85316,6.83717 -6.837556,6.83717 l -14.651909,0 c -3.984395,0 -7.3259549,-2.85269 -7.3259549,-6.83717 l 0,-7.3258 c 0,-3.98448 3.3415599,-7.32579 7.3259549,-7.32579 z m 188.521208,1.46854 14.16352,0 c 3.98441,0 7.32595,3.34171 7.32595,7.32619 l 0,7.32581 c 0,3.98606 -3.34154,7.32579 -7.32595,7.32579 l -14.16352,0 c -3.98439,0 -7.32595,-3.33973 -7.32595,-7.32579 l 0,-7.32581 c 0,-3.98448 3.34156,-7.32619 7.32595,-7.32619 z m -189.009605,30.76928 14.163511,0 c 3.984396,0 7.325955,3.34181 7.325955,7.32586 l 0,6.83859 c 0,3.98457 -3.341559,7.32586 -7.325955,7.32586 l -14.163511,0 c -3.9843965,0 -7.3259545,-3.34129 -7.3259545,-7.32586 l 0,-6.83859 c 0,-3.98405 3.341558,-7.32586 7.3259545,-7.32586 z m 188.032835,1.46892 14.65189,0 c 3.98441,0 7.32595,3.34181 7.32595,7.32586 l 0,7.32621 c 0,3.98404 -3.34154,6.83824 -7.32595,6.83824 l -14.65189,0 c -3.98441,0 -6.83757,-2.8542 -6.83757,-6.83824 l 0,-7.32621 c 0,-3.98405 2.85316,-7.32586 6.83757,-7.32586 z m -154.539453,69.35165 0,-16.6045 c 0,-15.3266 11.193835,-27.8383 24.908243,-27.8383 l 87.42306,0 c 13.7144,0 24.41986,12.5117 24.41986,27.8383 l 0,16.6045 m -170.732941,-39.5589 14.651907,0 c 3.984396,0 6.837558,3.3417 6.837558,7.3257 l 0,6.8372 c 0,3.9841 -2.853162,7.3257 -6.837558,7.3257 l -14.651907,0 c -3.984397,0 -7.3259569,-3.3416 -7.3259569,-7.3257 l 0,-6.8372 c 0,-3.984 3.3415599,-7.3257 7.3259569,-7.3257 z m 188.521231,1.469 14.1635,0 c 3.98439,0 7.32594,3.3416 7.32594,7.3257 l 0,7.3258 c 0,3.9846 -3.34155,6.837 -7.32594,6.837 l -14.1635,0 c -3.98441,0 -7.32597,-2.8524 -7.32597,-6.837 l 0,-7.3258 c 0,-3.9841 3.34156,-7.3257 7.32597,-7.3257 z"
         style="fill:#614868;fill-opacity:1;stroke:none" />
      <path
         sodipodi:open="true"
         sodipodi:end="12.46847"
         sodipodi:start="6.2071318"
         transform="matrix(16.691557,0,0,16.691557,-15.215968,791.64389)"
         d="M 9.5880146,8.5760927 C 9.6608003,9.5312796 8.9454728,10.364616 7.9902859,10.437402 7.035099,10.510187 6.2017626,9.7948599 6.1289768,8.8396731 6.0561911,7.8844862 6.7715186,7.0511497 7.7267055,6.978364 8.6671696,6.9067002 9.4925313,7.599668 9.5847228,8.5383422"
         sodipodi:ry="1.7345328"
         sodipodi:rx="1.7345328"
         sodipodi:cy="8.7078829"
         sodipodi:cx="7.8584957"
         id="path4005"
         style="fill:#4b7744;fill-opacity:1;stroke:none"
         sodipodi:type="arc" />
      <path
         sodipodi:nodetypes="czccc"
         id="path4005-5-1-6"
         d="m 146.46987,826.14535 c 0,13.44337 -13.43408,27.09186 -28.96648,27.10031 -15.5324,0 -29.108347,-14.22781 -29.108347,-27.03522 10.344513,-0.16693 49.702927,0 58.074827,0 z"
         style="fill:#4b7744;fill-opacity:1;stroke:none"
         inkscape:connector-curvature="0" />
      <path
         sodipodi:nodetypes="czccc"
         id="path4005-5-1-6-6"
         d="m 86.302928,1046.8577 c 0,-13.4432 13.434083,-27.0921 28.966482,-27.1001 15.53239,0 29.10835,14.2276 29.10835,27.0351 -10.34451,0.1683 -49.702929,0 -58.074832,0 z"
         style="fill:#4b7744;fill-opacity:1;stroke:none"
         inkscape:connector-curvature="0" />
    </g>
  </g>
</svg>
