<?xml version="1.0" encoding="UTF-8" standalone="no"?>
<!-- Created with Inkscape (http://www.inkscape.org/) -->

<svg
   xmlns:dc="http://purl.org/dc/elements/1.1/"
   xmlns:cc="http://creativecommons.org/ns#"
   xmlns:rdf="http://www.w3.org/1999/02/22-rdf-syntax-ns#"
   xmlns:svg="http://www.w3.org/2000/svg"
   xmlns="http://www.w3.org/2000/svg"
   xmlns:sodipodi="http://sodipodi.sourceforge.net/DTD/sodipodi-0.dtd"
   xmlns:inkscape="http://www.inkscape.org/namespaces/inkscape"
   width="16"
   height="16"
   id="svg2"
   version="1.1"
   inkscape:version="0.48.2 r9819"
   sodipodi:docname="folder.svg">
  <defs
     id="defs4">
    <inkscape:perspective
       sodipodi:type="inkscape:persp3d"
       inkscape:vp_x="0 : 526.18109 : 1"
       inkscape:vp_y="0 : 1000 : 0"
       inkscape:vp_z="744.09448 : 526.18109 : 1"
       inkscape:persp3d-origin="372.04724 : 350.78739 : 1"
       id="perspective4095" />
  </defs>
  <sodipodi:namedview
     id="base"
     pagecolor="#ffffff"
     bordercolor="#666666"
     borderopacity="1.0"
     inkscape:pageopacity="0.0"
     inkscape:pageshadow="2"
     inkscape:zoom="19.975542"
     inkscape:cx="16.657903"
     inkscape:cy="4.1142922"
     inkscape:document-units="px"
     inkscape:current-layer="layer1"
     showgrid="false"
     showguides="true"
     inkscape:guide-bbox="true"
     inkscape:window-width="1680"
     inkscape:window-height="995"
     inkscape:window-x="-2"
     inkscape:window-y="-3"
     inkscape:window-maximized="1" />
  <metadata
     id="metadata7">
    <rdf:RDF>
      <cc:Work
         rdf:about="">
        <dc:format>image/svg+xml</dc:format>
        <dc:type
           rdf:resource="http://purl.org/dc/dcmitype/StillImage" />
        <dc:title></dc:title>
      </cc:Work>
    </rdf:RDF>
  </metadata>
  <g
     inkscape:label="Layer 1"
     inkscape:groupmode="layer"
     id="layer1"
     transform="translate(0,-1036.3622)">
    <path
       style="fill:#614868;fill-opacity:1;stroke:none"
       d="m 8.6895205,1040.6479 c 0.8076364,-10e-4 1.5604775,0.2696 1.5620185,1.58 1.642664,0 1.274322,0 3.023849,0 0.980542,0 1.770859,0.7873 1.772012,1.7678 l 0.0043,3.6815 c 0.0012,0.9805 -0.787306,1.7708 -1.767847,1.772 l -10.3363937,0.012 c -0.9805415,0 -1.770859,-0.7873 -1.7720125,-1.7678 l -0.00666,-5.6638 c -0.00115,-0.9805 0.2103985,-1.3646 1.2797515,-1.371 1.0693529,-0.01 4.3845359,-0.037 6.2409822,-0.011 z"
       id="rect2995"
       inkscape:connector-curvature="0"
       sodipodi:nodetypes="cccsssssszc" />
    <path
       style="fill:#4b7744;fill-opacity:1;stroke:none"
       d="m 9.0974166,1040.0783 c 0.7328428,-0.015 1.3829784,0.4452 1.4760714,1.5765 0.863378,0 1.764706,0.01 2.993428,0.01 1.228723,0 1.090417,0.7656 1.090417,0.7656 0,0 -0.0011,-3.0765 -0.0015,-3.3957 -3.75e-4,-0.3192 -0.120847,-0.8942 -0.958817,-0.8865 -0.837969,0.01 -2.38341,0.021 -2.89843,0.022 -0.515021,10e-4 -0.649423,0.5944 -0.649423,0.5944 0,0 -7.2118828,0.03 -8.1581768,0.03 -0.9462941,0 -0.8355882,0.6146 -0.8178889,1.9778 0.00164,0.1264 0.1864929,-0.6382 0.6982377,-0.6484 0.5117448,-0.01 4.8189524,-0.011 7.2260816,-0.046 z"
       id="path3769"
       inkscape:connector-curvature="0"
       sodipodi:nodetypes="cczcczzczszcc" />
  </g>
</svg>
