<?xml version="1.0" encoding="UTF-8" standalone="no"?>
<!-- Created with Inkscape (http://www.inkscape.org/) -->

<svg
   xmlns:dc="http://purl.org/dc/elements/1.1/"
   xmlns:cc="http://creativecommons.org/ns#"
   xmlns:rdf="http://www.w3.org/1999/02/22-rdf-syntax-ns#"
   xmlns:svg="http://www.w3.org/2000/svg"
   xmlns="http://www.w3.org/2000/svg"
   xmlns:sodipodi="http://sodipodi.sourceforge.net/DTD/sodipodi-0.dtd"
   xmlns:inkscape="http://www.inkscape.org/namespaces/inkscape"
   width="16"
   height="16"
   id="svg2"
   version="1.1"
   inkscape:version="0.48.2 r9819"
   sodipodi:docname="folder.svg">
  <defs
     id="defs4">
    <inkscape:perspective
       sodipodi:type="inkscape:persp3d"
       inkscape:vp_x="0 : 526.18109 : 1"
       inkscape:vp_y="0 : 1000 : 0"
       inkscape:vp_z="744.09448 : 526.18109 : 1"
       inkscape:persp3d-origin="372.04724 : 350.78739 : 1"
       id="perspective4095" />
  </defs>
  <sodipodi:namedview
     id="base"
     pagecolor="#ffffff"
     bordercolor="#666666"
     borderopacity="1.0"
     inkscape:pageopacity="0.0"
     inkscape:pageshadow="2"
     inkscape:zoom="9.987771"
     inkscape:cx="16.576074"
     inkscape:cy="2.0530159"
     inkscape:document-units="px"
     inkscape:current-layer="layer1"
     showgrid="false"
     showguides="true"
     inkscape:guide-bbox="true"
     inkscape:window-width="1587"
     inkscape:window-height="906"
     inkscape:window-x="63"
     inkscape:window-y="46"
     inkscape:window-maximized="0" />
  <metadata
     id="metadata7">
    <rdf:RDF>
      <cc:Work
         rdf:about="">
        <dc:format>image/svg+xml</dc:format>
        <dc:type
           rdf:resource="http://purl.org/dc/dcmitype/StillImage" />
        <dc:title></dc:title>
      </cc:Work>
    </rdf:RDF>
  </metadata>
  <g
     inkscape:label="Layer 1"
     inkscape:groupmode="layer"
     id="layer1"
     transform="translate(0,-1036.3622)">
    <path
       style="fill:#4b7744;fill-opacity:1;stroke:none"
       d="m 1.6296898,1037.3965 c -0.69334786,0 -1.25000001,0.5566 -1.25000001,1.25 l 0,3.25 c 0,0.6933 0.55665215,1.2812 1.25000001,1.2812 l 5.65625,0 c 0.6933479,0 1.25,-0.5879 1.25,-1.2812 l 0,-3.25 c 0,-0.6934 -0.5566521,-1.25 -1.25,-1.25 l -5.65625,0 z m 0.78125,0.6875 4.0625,0 c 0.6933479,0 1.25,0.5566 1.25,1.25 l 0,1.5 c 0,0.6933 -0.5566521,1.25 -1.25,1.25 l -4.0625,0 c -0.6933479,0 -1.25,-0.5567 -1.25,-1.25 l 0,-1.5 c 0,-0.6934 0.5566521,-1.25 1.25,-1.25 z"
       id="rect3021"
       inkscape:connector-curvature="0" />
    <path
       style="fill:#614868;fill-opacity:1;stroke:none"
       d="m 8.5702332,1044.976 c -0.6933479,0 -1.25,0.5566 -1.25,1.25 l 0,3.25 c 0,0.6933 0.5566521,1.2812 1.25,1.2812 l 5.6562498,0 c 0.693348,0 1.25,-0.5879 1.25,-1.2812 l 0,-3.25 c 0,-0.6934 -0.556652,-1.25 -1.25,-1.25 l -5.6562498,0 z m 0.78125,0.6875 4.0624998,0 c 0.693348,0 1.25,0.5566 1.25,1.25 l 0,1.5 c 0,0.6933 -0.556652,1.25 -1.25,1.25 l -4.0624998,0 c -0.6933479,0 -1.25,-0.5567 -1.25,-1.25 l 0,-1.5 c 0,-0.6934 0.5566521,-1.25 1.25,-1.25 z"
       id="rect3021-8"
       inkscape:connector-curvature="0" />
    <rect
       style="fill:#4b7744;fill-opacity:1;stroke:none"
       id="rect3812"
       width="7.9205251"
       height="1.1681547"
       x="0.62815446"
       y="1043.3356"
       ry="0.33628696" />
    <rect
       style="fill:#614868;fill-opacity:1;stroke:none"
       id="rect3812-4"
       width="7.9205251"
       height="1.1681547"
       x="7.5167446"
       y="1050.964"
       ry="0.33628696" />
    <path
       style="fill:#4b7744;fill-opacity:1;stroke:none"
       d="m 4.8496121,1044.6807 0,3.6461 1.1681547,0 0,-0.5664 1.0619589,1.0619 c 0,0 -0.7468828,0.6496 -1.0708085,0.9735 0,-0.3702 -0.00885,-0.5487 -0.00885,-0.5487 0,0 -1.1297488,0 -1.9646238,0 0,-0.4602 0,-4.531 0,-4.531 z"
       id="path3832"
       inkscape:connector-curvature="0"
       sodipodi:nodetypes="cccccccccc" />
    <path
       style="fill:#614868;fill-opacity:1;stroke:none"
       d="m 10.902828,1044.6541 0,-3.6461 -1.1681549,0 0,0.5664 -1.061959,-1.0619 c 0,0 0.746883,-0.6496 1.070809,-0.9735 0,0.3702 0.0088,0.5487 0.0088,0.5487 0,0 1.1297479,0 1.9646229,0 0,0.4602 0,4.531 0,4.531 z"
       id="path3832-5"
       inkscape:connector-curvature="0"
       sodipodi:nodetypes="cccccccccc" />
    <path
       sodipodi:type="arc"
       style="fill:#614868;fill-opacity:1;stroke:none"
       id="path3852"
       sodipodi:cx="4.2832341"
       sodipodi:cy="3.7874734"
       sodipodi:rx="0.88496572"
       sodipodi:ry="0.88496572"
       d="m 5.1656417,3.7202336 a 0.88496572,0.88496572 0 1 1 -0.00168,-0.01926"
       transform="translate(0,1036.3622)"
       sodipodi:start="6.2071318"
       sodipodi:end="12.46847"
       sodipodi:open="true" />
    <path
       transform="translate(7.0797255,1043.9375)"
       sodipodi:type="arc"
       style="fill:#4b7744;fill-opacity:1;stroke:none"
       id="path3852-5"
       sodipodi:cx="4.2832341"
       sodipodi:cy="3.7874734"
       sodipodi:rx="0.88496572"
       sodipodi:ry="0.88496572"
       d="m 5.1656417,3.7202336 a 0.88496572,0.88496572 0 1 1 -0.00168,-0.01926"
       sodipodi:start="6.2071318"
       sodipodi:end="12.46847"
       sodipodi:open="true" />
  </g>
</svg>
