<?xml version="1.0" encoding="UTF-8" standalone="no"?>
<!-- Created with Inkscape (http://www.inkscape.org/) -->

<svg
   xmlns:dc="http://purl.org/dc/elements/1.1/"
   xmlns:cc="http://creativecommons.org/ns#"
   xmlns:rdf="http://www.w3.org/1999/02/22-rdf-syntax-ns#"
   xmlns:svg="http://www.w3.org/2000/svg"
   xmlns="http://www.w3.org/2000/svg"
   xmlns:sodipodi="http://sodipodi.sourceforge.net/DTD/sodipodi-0.dtd"
   xmlns:inkscape="http://www.inkscape.org/namespaces/inkscape"
   width="16"
   height="16"
   id="svg2"
   version="1.1"
   inkscape:version="0.48.2 r9819"
   sodipodi:docname="papelera_llena.svg">
  <defs
     id="defs4">
    <inkscape:perspective
       sodipodi:type="inkscape:persp3d"
       inkscape:vp_x="0 : 526.18109 : 1"
       inkscape:vp_y="0 : 1000 : 0"
       inkscape:vp_z="744.09448 : 526.18109 : 1"
       inkscape:persp3d-origin="372.04724 : 350.78739 : 1"
       id="perspective4095" />
  </defs>
  <sodipodi:namedview
     id="base"
     pagecolor="#ffffff"
     bordercolor="#666666"
     borderopacity="1.0"
     inkscape:pageopacity="0.0"
     inkscape:pageshadow="2"
     inkscape:zoom="22.4"
     inkscape:cx="12.530168"
     inkscape:cy="15.413925"
     inkscape:document-units="px"
     inkscape:current-layer="layer1"
     showgrid="false"
     showguides="true"
     inkscape:guide-bbox="true"
     inkscape:window-width="1680"
     inkscape:window-height="995"
     inkscape:window-x="-2"
     inkscape:window-y="-3"
     inkscape:window-maximized="1" />
  <metadata
     id="metadata7">
    <rdf:RDF>
      <cc:Work
         rdf:about="">
        <dc:format>image/svg+xml</dc:format>
        <dc:type
           rdf:resource="http://purl.org/dc/dcmitype/StillImage" />
        <dc:title />
      </cc:Work>
    </rdf:RDF>
  </metadata>
  <g
     inkscape:label="Layer 1"
     inkscape:groupmode="layer"
     id="layer1"
     transform="translate(0,-1036.3622)">
    <g
       id="g4153"
       transform="matrix(0.20978339,0,0,0.20978339,33.896943,865.57543)"
       inkscape:export-filename="/home/malefico/Documentos/proyectos/conectar-linux/iconos/Iconos Huayra/tema_plano.png"
       inkscape:export-xdpi="90"
       inkscape:export-ydpi="90">
      <path
         sodipodi:nodetypes="cczzscczzcc"
         inkscape:connector-curvature="0"
         id="path3915-2-7"
         d="m -160.22518,831.6716 16.5359,-0.30066 c 0,0 8.74516,35.27687 10.39699,38.9647 1.65181,3.68782 4.44071,6.77563 8.88747,6.73446 4.44678,-0.0412 7.366,-1.51396 8.968,-6.17718 1.18834,-3.45918 11.77703,-39.52198 11.77703,-39.52198 l 16.91032,0 c 0,0 -11.29138,34.43043 -14.03055,45.68221 -2.73919,11.2518 -15.93703,13.69663 -23.07781,13.69663 -7.1408,0 -20.75118,-2.94093 -23.75193,-14.33441 -1.27126,-5.33562 -12.61542,-44.74377 -12.61542,-44.74377 z"
         style="fill:#624477;fill-opacity:1;stroke:none" />
    </g>
    <g
       id="g3189"
       transform="matrix(0.92565488,0,0,0.92565488,-16.216841,77.776024)">
      <path
         transform="matrix(0.20064813,0,0,0.20064813,-41.711311,892.00453)"
         sodipodi:open="true"
         sodipodi:end="12.46847"
         sodipodi:start="6.2071318"
         d="m 336.85669,737.94232 c 0.42389,5.56279 -3.74202,10.41596 -9.30481,10.83984 -5.56279,0.42389 -10.41595,-3.74201 -10.83984,-9.30481 -0.42389,-5.56279 3.74202,-10.41595 9.30481,-10.83984 5.47705,-0.41735 10.28377,3.61834 10.82067,9.08496"
         sodipodi:ry="10.101525"
         sodipodi:rx="10.101525"
         sodipodi:cy="738.70984"
         sodipodi:cx="326.78436"
         id="path3923-6"
         style="fill:#4b7744;fill-opacity:1;stroke:none"
         sodipodi:type="arc" />
      <path
         sodipodi:open="true"
         sodipodi:end="12.46847"
         sodipodi:start="6.2071318"
         d="m 336.85669,737.94232 c 0.42389,5.56279 -3.74202,10.41596 -9.30481,10.83984 -5.56279,0.42389 -10.41595,-3.74201 -10.83984,-9.30481 -0.42389,-5.56279 3.74202,-10.41595 9.30481,-10.83984 5.47705,-0.41735 10.28377,3.61834 10.82067,9.08496"
         sodipodi:ry="10.101525"
         sodipodi:rx="10.101525"
         sodipodi:cy="738.70984"
         sodipodi:cx="326.78436"
         id="path3923-8-2"
         style="fill:#4b7744;fill-opacity:1;stroke:none"
         sodipodi:type="arc"
         transform="matrix(0.22564687,0,0,0.22564687,-48.049073,879.65254)" />
      <path
         sodipodi:open="true"
         sodipodi:end="12.46847"
         sodipodi:start="6.2071318"
         d="m 336.85669,737.94232 c 0.42389,5.56279 -3.74202,10.41596 -9.30481,10.83984 -5.56279,0.42389 -10.41595,-3.74201 -10.83984,-9.30481 -0.42389,-5.56279 3.74202,-10.41595 9.30481,-10.83984 5.47705,-0.41735 10.28377,3.61834 10.82067,9.08496"
         sodipodi:ry="10.101525"
         sodipodi:rx="10.101525"
         sodipodi:cy="738.70984"
         sodipodi:cx="326.78436"
         id="path3923-2-5"
         style="fill:#4b7744;fill-opacity:1;stroke:none"
         sodipodi:type="arc"
         transform="matrix(0.21636429,0,0,0.21636429,-43.261697,882.43172)" />
      <path
         sodipodi:nodetypes="cczzscczzcc"
         inkscape:connector-curvature="0"
         id="path3915-2-7-5"
         d="m 17.817291,1039.5612 3.741789,-0.068 c 0,0 1.978883,7.9826 2.352663,8.8171 0.373777,0.8345 1.004856,1.5332 2.011083,1.5239 1.006228,-0.01 1.666798,-0.3426 2.029303,-1.3978 0.268902,-0.7828 2.66494,-8.9432 2.66494,-8.9432 l 3.826516,0 c 0,0 -2.555045,7.791 -3.174874,10.3371 -0.619832,2.5461 -3.606276,3.0993 -5.222114,3.0993 -1.615838,0 -4.695632,-0.6654 -5.374653,-3.2436 -0.287665,-1.2074 -2.854653,-10.1247 -2.854653,-10.1247 z"
         style="fill:#624477;fill-opacity:1;stroke:none" />
      <path
         sodipodi:open="true"
         sodipodi:end="12.46847"
         sodipodi:start="6.2071318"
         d="m 336.85669,737.94232 c 0.42389,5.56279 -3.74202,10.41596 -9.30481,10.83984 -5.56279,0.42389 -10.41595,-3.74201 -10.83984,-9.30481 -0.42389,-5.56279 3.74202,-10.41595 9.30481,-10.83984 5.47705,-0.41735 10.28377,3.61834 10.82067,9.08496"
         sodipodi:ry="10.101525"
         sodipodi:rx="10.101525"
         sodipodi:cy="738.70984"
         sodipodi:cx="326.78436"
         id="path3923-8-2-2"
         style="fill:#4b7744;fill-opacity:1;stroke:none"
         sodipodi:type="arc"
         transform="matrix(0.18502376,0,0,0.18502376,-33.22032,901.57276)" />
    </g>
  </g>
</svg>
