<?xml version="1.0" encoding="UTF-8" standalone="no"?>
<!-- Created with Inkscape (http://www.inkscape.org/) -->

<svg
   xmlns:dc="http://purl.org/dc/elements/1.1/"
   xmlns:cc="http://creativecommons.org/ns#"
   xmlns:rdf="http://www.w3.org/1999/02/22-rdf-syntax-ns#"
   xmlns:svg="http://www.w3.org/2000/svg"
   xmlns="http://www.w3.org/2000/svg"
   xmlns:sodipodi="http://sodipodi.sourceforge.net/DTD/sodipodi-0.dtd"
   xmlns:inkscape="http://www.inkscape.org/namespaces/inkscape"
   id="svg7384"
   sodipodi:docname="pidgin-tray-idle.svg"
   version="1.1"
   inkscape:version="0.48.3.1 r9886"
   height="16"
   width="16">
  <metadata
     id="metadata90">
    <rdf:RDF>
      <cc:Work
         rdf:about="">
        <dc:format>image/svg+xml</dc:format>
        <dc:type
           rdf:resource="http://purl.org/dc/dcmitype/StillImage" />
        <dc:title>Gnome Symbolic Icon Theme</dc:title>
      </cc:Work>
    </rdf:RDF>
  </metadata>
  <sodipodi:namedview
     inkscape:cy="6.5929814"
     pagecolor="#ffffff"
     borderopacity="1"
     showborder="true"
     inkscape:bbox-paths="false"
     guidetolerance="10"
     inkscape:object-paths="true"
     inkscape:window-width="1918"
     showguides="true"
     inkscape:object-nodes="true"
     inkscape:snap-bbox="true"
     inkscape:pageshadow="2"
     inkscape:guide-bbox="true"
     inkscape:snap-nodes="false"
     bordercolor="#666666"
     objecttolerance="10"
     id="namedview88"
     showgrid="true"
     inkscape:window-maximized="1"
     inkscape:window-x="0"
     inkscape:snap-global="true"
     inkscape:window-y="25"
     gridtolerance="10"
     inkscape:window-height="1007"
     inkscape:snap-to-guides="true"
     inkscape:current-layer="layer9"
     inkscape:snap-bbox-midpoints="false"
     inkscape:zoom="36.460193"
     inkscape:cx="10.835325"
     inkscape:snap-grids="true"
     inkscape:pageopacity="0">
    <inkscape:grid
       spacingx="1px"
       spacingy="1px"
       id="grid4866"
       empspacing="2"
       enabled="true"
       type="xygrid"
       snapvisiblegridlinesonly="true"
       visible="true" />
  </sodipodi:namedview>
  <title
     id="title9167">Gnome Symbolic Icon Theme</title>
  <defs
     id="defs7386" />
  <g
     inkscape:label="status"
     transform="translate(-81.000198,-357)"
     inkscape:groupmode="layer"
     id="layer9"
     style="display:inline">
    <path
       inkscape:connector-curvature="0"
       d="m 83.586044,361.40031 c 3.240388,0.29233 7.157687,-0.61103 10.247419,0.38542 0.326702,0.71097 0.08303,2.07813 0.05438,2.5832 -0.02106,0.37118 -0.314228,0.29902 -0.756059,0.39047 -2.985907,0.61803 -8.906646,-0.40253 -9.550655,0.16589 -0.988413,0.87236 0.830428,2.16397 2.123028,2.4231 1.624505,0.32565 3.935585,-0.10635 5.630375,0.20338 0.58863,1.20784 1.28806,2.39353 2.64214,3.44828 -0.85347,-1.315 -0.59578,-2.4448 -0.0669,-3.5294 1.0423,-0.2534 2.04282,-1.20012 1.81177,-2.29852 0.16303,-2.99083 1.25183,-6.41462 -2.37964,-6.51008 -2.27271,-0.19681 -10.979713,-2.34559 -9.810779,2.38176 z"
       id="rect11261-4"
       sodipodi:nodetypes="ccssssccccccc"
       style="color:#bebebe;fill:#2ad4ff;fill-opacity:1;fill-rule:nonzero;stroke:none;stroke-width:2.4000001;marker:none;visibility:visible;display:inline;overflow:visible;enable-background:accumulate" />
    <path
       inkscape:connector-curvature="0"
       style="fill:#2ad4ff;fill-opacity:1;fill-rule:nonzero"
       id="path10"
       d="m 86.000198,363.30709 c 0,0.70601 -0.589528,0.96529 -1.289141,0.96529 -0.699204,0 -1.288748,-0.32637 -1.288748,-1.03237 0,-0.70585 0.567181,-1.2777 1.266384,-1.2777 0.699614,0 1.311505,0.63894 1.311505,1.34478 z"
       sodipodi:nodetypes="sssss" />
    <path
       inkscape:connector-curvature="0"
       style="fill:#2ad4ff;fill-opacity:1;fill-rule:nonzero;display:inline"
       id="path10-0"
       d="m 89.164761,363.31735 c 0,0.70601 -0.589528,0.96529 -1.289141,0.96529 -0.699204,0 -1.288748,-0.32637 -1.288748,-1.03237 0,-0.70585 0.567181,-1.2777 1.266384,-1.2777 0.699614,0 1.311505,0.63894 1.311505,1.34478 z"
       sodipodi:nodetypes="sssss" />
    <path
       inkscape:connector-curvature="0"
       style="fill:#2ad4ff;fill-opacity:1;fill-rule:nonzero;display:inline"
       id="path10-0-2"
       d="m 92.247043,363.34478 c 0,0.70601 -0.589528,0.96529 -1.289141,0.96529 -0.699204,0 -1.288748,-0.32637 -1.288748,-1.03237 0,-0.70585 0.567181,-1.2777 1.266384,-1.2777 0.699614,0 1.311505,0.63894 1.311505,1.34478 z"
       sodipodi:nodetypes="sssss" />
  </g>
  <g
     inkscape:label="devices"
     transform="translate(-81.000198,-357)"
     inkscape:groupmode="layer"
     id="layer10" />
  <g
     inkscape:label="apps"
     transform="translate(-81.000198,-357)"
     inkscape:groupmode="layer"
     id="layer11" />
  <g
     inkscape:label="actions"
     transform="translate(-81.000198,-357)"
     inkscape:groupmode="layer"
     id="layer12" />
  <g
     inkscape:label="places"
     transform="translate(-81.000198,-357)"
     inkscape:groupmode="layer"
     id="layer13" />
  <g
     inkscape:label="mimetypes"
     transform="translate(-81.000198,-357)"
     inkscape:groupmode="layer"
     id="layer14" />
  <g
     inkscape:label="emblems"
     transform="translate(-81.000198,-357)"
     inkscape:groupmode="layer"
     id="layer15"
     style="display:inline" />
  <g
     inkscape:label="categories"
     transform="translate(-81.000198,-357)"
     inkscape:groupmode="layer"
     id="g4953"
     style="display:inline" />
</svg>
