<?xml version="1.0" encoding="UTF-8" standalone="no"?>
<!-- Created with Inkscape (http://www.inkscape.org/) -->

<svg
   xmlns:dc="http://purl.org/dc/elements/1.1/"
   xmlns:cc="http://creativecommons.org/ns#"
   xmlns:rdf="http://www.w3.org/1999/02/22-rdf-syntax-ns#"
   xmlns:svg="http://www.w3.org/2000/svg"
   xmlns="http://www.w3.org/2000/svg"
   xmlns:xlink="http://www.w3.org/1999/xlink"
   xmlns:sodipodi="http://sodipodi.sourceforge.net/DTD/sodipodi-0.dtd"
   xmlns:inkscape="http://www.inkscape.org/namespaces/inkscape"
   width="256"
   height="256"
   id="svg2"
   version="1.1"
   inkscape:version="0.92.1 r15371"
   sodipodi:docname="desktop.svg">
  <defs
     id="defs4">
    <linearGradient
       id="linearGradient3820">
      <stop
         style="stop-color:#ffffff;stop-opacity:1;"
         offset="0"
         id="stop3822" />
      <stop
         id="stop3824"
         offset="0.24187069"
         style="stop-color:#f1f1f1;stop-opacity:1;" />
      <stop
         style="stop-color:#7d7d7d;stop-opacity:1;"
         offset="0.44867313"
         id="stop3826" />
      <stop
         style="stop-color:#2f2f2f;stop-opacity:1;"
         offset="0.71069998"
         id="stop3828" />
      <stop
         id="stop3830"
         offset="1"
         style="stop-color:#9a9a9a;stop-opacity:1;" />
    </linearGradient>
    <linearGradient
       id="linearGradient3796">
      <stop
         id="stop3804"
         offset="0"
         style="stop-color:#ffffff;stop-opacity:1;" />
      <stop
         style="stop-color:#f1f1f1;stop-opacity:1;"
         offset="0.24649662"
         id="stop3806" />
      <stop
         id="stop3810"
         offset="0.44683689"
         style="stop-color:#7d7d7d;stop-opacity:1;" />
      <stop
         id="stop3808"
         offset="0.68910587"
         style="stop-color:#2f2f2f;stop-opacity:1;" />
      <stop
         style="stop-color:#9a9a9a;stop-opacity:1;"
         offset="1"
         id="stop3800" />
    </linearGradient>
    <linearGradient
       id="linearGradient3790">
      <stop
         id="stop3792"
         offset="0"
         style="stop-color:#e8b465;stop-opacity:1;" />
      <stop
         id="stop3794"
         offset="1"
         style="stop-color:#673e1d;stop-opacity:1;" />
    </linearGradient>
    <linearGradient
       inkscape:collect="always"
       xlink:href="#linearGradient3790"
       id="linearGradient3788"
       x1="326.61865"
       y1="958.93542"
       x2="421.90439"
       y2="958.93542"
       gradientUnits="userSpaceOnUse" />
    <linearGradient
       inkscape:collect="always"
       xlink:href="#linearGradient3796"
       id="linearGradient3802"
       x1="340.71429"
       y1="900.57648"
       x2="392.14285"
       y2="899.50507"
       gradientUnits="userSpaceOnUse" />
    <linearGradient
       inkscape:collect="always"
       xlink:href="#linearGradient3820"
       id="linearGradient3818"
       x1="379.4758"
       y1="861.78735"
       x2="394.04724"
       y2="868.93018"
       gradientUnits="userSpaceOnUse" />
    <linearGradient
       inkscape:collect="always"
       xlink:href="#linearGradient3790"
       id="linearGradient3848"
       gradientUnits="userSpaceOnUse"
       x1="326.61865"
       y1="958.93542"
       x2="421.90439"
       y2="958.93542" />
    <linearGradient
       inkscape:collect="always"
       xlink:href="#linearGradient3796"
       id="linearGradient3850"
       gradientUnits="userSpaceOnUse"
       x1="340.71429"
       y1="900.57648"
       x2="392.14285"
       y2="899.50507" />
    <linearGradient
       inkscape:collect="always"
       xlink:href="#linearGradient3820"
       id="linearGradient3852"
       gradientUnits="userSpaceOnUse"
       x1="379.4758"
       y1="861.78735"
       x2="394.04724"
       y2="868.93018" />
  </defs>
  <sodipodi:namedview
     id="base"
     pagecolor="#ffffff"
     bordercolor="#666666"
     borderopacity="1.0"
     inkscape:pageopacity="0.0"
     inkscape:pageshadow="2"
     inkscape:zoom="0.70000001"
     inkscape:cx="-606.73353"
     inkscape:cy="102.87562"
     inkscape:document-units="px"
     inkscape:current-layer="layer1"
     showgrid="false"
     showguides="true"
     inkscape:guide-bbox="true"
     inkscape:window-width="1914"
     inkscape:window-height="1008"
     inkscape:window-x="0"
     inkscape:window-y="24"
     inkscape:window-maximized="1" />
  <metadata
     id="metadata7">
    <rdf:RDF>
      <cc:Work
         rdf:about="">
        <dc:format>image/svg+xml</dc:format>
        <dc:type
           rdf:resource="http://purl.org/dc/dcmitype/StillImage" />
        <dc:title />
      </cc:Work>
    </rdf:RDF>
  </metadata>
  <g
     inkscape:label="Layer 1"
     inkscape:groupmode="layer"
     id="layer1"
     transform="translate(0,-796.3622)">
    <g
       id="g4568"
       transform="translate(315.71428,-202.85714)">
      <rect
         ry="8.3960285"
         y="1046.256"
         x="-308.10123"
         height="166.49806"
         width="241.91673"
         id="rect4503-3"
         style="opacity:1;fill:#ee3d8f;fill-opacity:1;fill-rule:nonzero;stroke:#ffffff;stroke-width:5.14382744;stroke-linecap:round;stroke-linejoin:miter;stroke-miterlimit:4;stroke-dasharray:none;stroke-dashoffset:0;stroke-opacity:1;paint-order:fill markers stroke" />
      <g
         style="fill:#d6e031;fill-opacity:1;stroke:#ffffff;stroke-width:0.9898088;stroke-miterlimit:4;stroke-dasharray:none"
         transform="matrix(5.1967888,0,0,-5.1967888,-260.93466,1065.7845)"
         id="g88-2-2-0-2-6">
        <path
           inkscape:connector-curvature="0"
           id="path90-0-6-6-8-7"
           style="fill:#d6e031;fill-opacity:1;fill-rule:nonzero;stroke:#ffffff;stroke-width:0.9898088;stroke-miterlimit:4;stroke-dasharray:none"
           d="M 0,0 C -2.315,0 -4.193,-1.877 -4.193,-4.193 V -21.96 c 0.006,-1.413 1.15,-2.556 2.562,-2.563 h 31.659 c 1.413,0.007 2.557,1.15 2.564,2.563 V -4.193 C 32.592,-1.877 30.714,0 28.397,0 Z" />
      </g>
      <g
         transform="matrix(5.1967888,0,0,-5.1967888,-220.10151,1119.4652)"
         id="g92-2-9-8-9-5"
         style="fill:#50b8b1;fill-opacity:1;stroke-width:0.9898088;stroke-miterlimit:4;stroke-dasharray:none">
        <path
           inkscape:connector-curvature="0"
           id="path94-3-4-9-7-3"
           style="fill:#50b8b1;fill-opacity:1;fill-rule:nonzero;stroke:none;stroke-width:0.9898088;stroke-miterlimit:4;stroke-dasharray:none"
           d="m 0,0 h -0.666 c -0.811,0 -1.473,0.663 -1.473,1.473 v 0.666 c 0,0.81 0.662,1.473 1.473,1.473 H 0 c 0.811,0 1.474,-0.663 1.474,-1.473 V 1.473 C 1.474,0.663 0.811,0 0,0" />
      </g>
      <g
         transform="matrix(5.1967888,0,0,-5.1967888,-181.54179,1119.4652)"
         id="g96-7-8-2-3-5"
         style="fill:#50b8b1;fill-opacity:1;stroke-width:0.9898088;stroke-miterlimit:4;stroke-dasharray:none">
        <path
           inkscape:connector-curvature="0"
           id="path98-5-2-6-6-6"
           style="fill:#50b8b1;fill-opacity:1;fill-rule:nonzero;stroke:none;stroke-width:0.9898088;stroke-miterlimit:4;stroke-dasharray:none"
           d="m 0,0 h -0.666 c -0.811,0 -1.473,0.663 -1.473,1.473 v 0.666 c 0,0.81 0.662,1.473 1.473,1.473 H 0 c 0.811,0 1.473,-0.663 1.473,-1.473 V 1.473 C 1.473,0.663 0.811,0 0,0" />
      </g>
      <g
         transform="matrix(5.1967888,0,0,-5.1967888,-142.98218,1119.4652)"
         id="g100-9-8-6-1-2"
         style="fill:#50b8b1;fill-opacity:1;stroke-width:0.9898088;stroke-miterlimit:4;stroke-dasharray:none">
        <path
           inkscape:connector-curvature="0"
           id="path102-2-2-4-2-9"
           style="fill:#50b8b1;fill-opacity:1;fill-rule:nonzero;stroke:none;stroke-width:0.9898088;stroke-miterlimit:4;stroke-dasharray:none"
           d="M 0,0 H -0.666 C -1.477,0 -2.14,0.663 -2.14,1.473 v 0.666 c 0,0.81 0.663,1.473 1.474,1.473 H 0 c 0.81,0 1.473,-0.663 1.473,-1.473 V 1.473 C 1.473,0.663 0.81,0 0,0" />
      </g>
      <g
         transform="matrix(5.1967888,0,0,-5.1967888,-220.10151,1158.3142)"
         id="g104-2-7-9-9-1"
         style="fill:#50b8b1;fill-opacity:1;stroke-width:0.9898088;stroke-miterlimit:4;stroke-dasharray:none">
        <path
           inkscape:connector-curvature="0"
           id="path106-8-8-5-3-2"
           style="fill:#50b8b1;fill-opacity:1;fill-rule:nonzero;stroke:none;stroke-width:0.9898088;stroke-miterlimit:4;stroke-dasharray:none"
           d="m 0,0 h -0.666 c -0.811,0 -1.473,0.663 -1.473,1.473 v 0.666 c 0,0.81 0.662,1.473 1.473,1.473 H 0 c 0.811,0 1.474,-0.663 1.474,-1.473 V 1.473 C 1.474,0.663 0.811,0 0,0" />
      </g>
      <g
         transform="matrix(5.1967888,0,0,-5.1967888,-142.98218,1158.3142)"
         id="g108-9-6-0-1-7"
         style="fill:#50b8b1;fill-opacity:1;stroke-width:0.9898088;stroke-miterlimit:4;stroke-dasharray:none">
        <path
           inkscape:connector-curvature="0"
           id="path110-7-7-4-9-0"
           style="fill:#50b8b1;fill-opacity:1;fill-rule:nonzero;stroke:none;stroke-width:0.9898088;stroke-miterlimit:4;stroke-dasharray:none"
           d="M 0,0 H -0.666 C -1.477,0 -2.14,0.663 -2.14,1.473 v 0.666 c 0,0.81 0.663,1.473 1.474,1.473 H 0 c 0.81,0 1.473,-0.663 1.473,-1.473 V 1.473 C 1.473,0.663 0.81,0 0,0" />
      </g>
      <g
         transform="matrix(5.1967888,0,0,-5.1967888,-145.28067,1149.4329)"
         id="g112-3-7-8-4-9"
         style="fill:#50b8b1;fill-opacity:1;stroke-width:0.9898088;stroke-miterlimit:4;stroke-dasharray:none">
        <path
           inkscape:connector-curvature="0"
           id="path114-6-0-7-7-3"
           style="fill:#50b8b1;fill-opacity:1;fill-rule:nonzero;stroke:none;stroke-width:0.9898088;stroke-miterlimit:4;stroke-dasharray:none"
           d="M 0,0 -7.333,7.112 -7.146,7.305 0.187,0.193 Z" />
      </g>
    </g>
  </g>
</svg>
