<?xml version="1.0" encoding="UTF-8" standalone="no"?>
<!-- Created with Inkscape (http://www.inkscape.org/) -->

<svg
   xmlns:dc="http://purl.org/dc/elements/1.1/"
   xmlns:cc="http://creativecommons.org/ns#"
   xmlns:rdf="http://www.w3.org/1999/02/22-rdf-syntax-ns#"
   xmlns:svg="http://www.w3.org/2000/svg"
   xmlns="http://www.w3.org/2000/svg"
   xmlns:sodipodi="http://sodipodi.sourceforge.net/DTD/sodipodi-0.dtd"
   xmlns:inkscape="http://www.inkscape.org/namespaces/inkscape"
   width="256"
   height="256"
   id="svg4374"
   version="1.1"
   inkscape:version="0.92.1 r15371"
   sodipodi:docname="dialog-text-and-font.svg">
  <defs
     id="defs4376" />
  <sodipodi:namedview
     id="base"
     pagecolor="#ffffff"
     bordercolor="#666666"
     borderopacity="1.0"
     inkscape:pageopacity="0.0"
     inkscape:pageshadow="2"
     inkscape:zoom="1.375987"
     inkscape:cx="374.00267"
     inkscape:cy="106.96628"
     inkscape:document-units="px"
     inkscape:current-layer="layer1"
     showgrid="false"
     inkscape:window-width="1918"
     inkscape:window-height="1023"
     inkscape:window-x="0"
     inkscape:window-y="26"
     inkscape:window-maximized="1" />
  <metadata
     id="metadata4379">
    <rdf:RDF>
      <cc:Work
         rdf:about="">
        <dc:format>image/svg+xml</dc:format>
        <dc:type
           rdf:resource="http://purl.org/dc/dcmitype/StillImage" />
        <dc:title />
      </cc:Work>
    </rdf:RDF>
  </metadata>
  <g
     inkscape:label="Capa 1"
     inkscape:groupmode="layer"
     id="layer1"
     transform="translate(0,-796.36218)">
    <path
       style="fill:#9283be;stroke:none;stroke-width:1.23067093px;stroke-linecap:butt;stroke-linejoin:miter;stroke-opacity:1;fill-opacity:1"
       d="m 38.701342,825.76526 0,41.39209 c 0,0 13.21258,-16.54873 21.343398,-17.56509 8.130819,-1.01635 45.58516,0 45.58516,0 l 0,157.43024 c 0,0 -8.764885,18.3465 -15.879351,23.4283 25.893951,0.4606 43.099351,-0.3301 70.927911,-0.3301 -11.10752,-11.1075 -15.70586,-14.863 -16.72221,-22.9938 -1.01635,-8.13083 0,-157.15235 0,-157.15235 l 46.18158,0 c 0,0 19.3107,8.13082 19.3107,16.26163 0,8.13082 0,-40.02002 0,-40.02002 z"
       id="path3958"
       inkscape:connector-curvature="0"
       sodipodi:nodetypes="ccsccccsccscc" />
  </g>
</svg>
