<?xml version="1.0" encoding="UTF-8" standalone="no"?>
<!-- Created with Inkscape (http://www.inkscape.org/) -->

<svg
   xmlns:dc="http://purl.org/dc/elements/1.1/"
   xmlns:cc="http://creativecommons.org/ns#"
   xmlns:rdf="http://www.w3.org/1999/02/22-rdf-syntax-ns#"
   xmlns:svg="http://www.w3.org/2000/svg"
   xmlns="http://www.w3.org/2000/svg"
   xmlns:sodipodi="http://sodipodi.sourceforge.net/DTD/sodipodi-0.dtd"
   xmlns:inkscape="http://www.inkscape.org/namespaces/inkscape"
   width="256"
   height="256"
   id="svg4374"
   version="1.1"
   inkscape:version="0.92.1 r15371"
   sodipodi:docname="document-open.svg">
  <defs
     id="defs4376" />
  <sodipodi:namedview
     id="base"
     pagecolor="#ffffff"
     bordercolor="#666666"
     borderopacity="1.0"
     inkscape:pageopacity="0.0"
     inkscape:pageshadow="2"
     inkscape:zoom="1.7124294"
     inkscape:cx="169.54742"
     inkscape:cy="98.571429"
     inkscape:document-units="px"
     inkscape:current-layer="layer1"
     showgrid="false"
     inkscape:window-width="1918"
     inkscape:window-height="1023"
     inkscape:window-x="0"
     inkscape:window-y="26"
     inkscape:window-maximized="1" />
  <metadata
     id="metadata4379">
    <rdf:RDF>
      <cc:Work
         rdf:about="">
        <dc:format>image/svg+xml</dc:format>
        <dc:type
           rdf:resource="http://purl.org/dc/dcmitype/StillImage" />
        <dc:title />
      </cc:Work>
    </rdf:RDF>
  </metadata>
  <g
     inkscape:label="Capa 1"
     inkscape:groupmode="layer"
     id="layer1"
     transform="translate(0,-796.36218)">
    <path
       style="display:inline;fill:#9283be;fill-opacity:1;stroke:none;stroke-width:15.58523941"
       sodipodi:nodetypes="ccccccccccscccccc"
       id="rect3845-5-8"
       d="m 11.849983,867.45206 c -4.4468638,0 -8.170707,3.8235 -8.170707,8.39085 v 156.94349 c 0,4.7143 3.5780393,8.3893 8.170707,8.3893 H 224.28837 c 4.59252,0 8.17071,-3.6735 8.17071,-8.3893 l 17.30268,-77.63707 c 0,-4.56577 -3.72385,-8.38927 -8.17071,-8.38927 H 63.277377 l -13.457636,54.93304 c 0,4.3746 -3.429775,7.8965 -7.690077,7.8965 -4.260303,0 -7.690078,-3.5219 -7.690078,-7.8965 v -78.91164 c 0,-4.37468 3.429775,-7.89653 7.690078,-7.89653 h 7.169459 v -47.43287 z"
       inkscape:connector-curvature="0" />
    <path
       style="color:#000000;font-style:normal;font-variant:normal;font-weight:normal;font-stretch:normal;font-size:medium;line-height:normal;font-family:Sans;-inkscape-font-specification:Sans;text-indent:0;text-align:start;text-decoration:none;text-decoration-line:none;letter-spacing:normal;word-spacing:normal;text-transform:none;writing-mode:lr-tb;direction:ltr;baseline-shift:baseline;text-anchor:start;display:inline;overflow:visible;visibility:visible;fill:#f79420;fill-opacity:1;stroke:none;stroke-width:31.17047691;marker:none;enable-background:accumulate"
       sodipodi:nodetypes="cccccccccccccccccc"
       id="path1234-3"
       d="m 77.696272,804.27983 c -7.050263,1.38189 -12.622801,8.42401 -12.496376,15.79305 v 110.55141 h 30.76031 v -94.75835 h 61.520624 v 47.37918 h 46.14046 v 47.37917 h 30.76031 v -54.28864 c 0.0923,-4.17094 -1.5011,-8.35452 -4.32567,-11.35205 l -54.7918,-56.26198 c -2.91885,-2.90118 -6.9932,-4.53845 -11.05449,-4.44179 H 80.580051 c -0.479861,-0.0158 -0.96126,-0.0158 -1.44112,0 -0.479861,-0.0158 -0.96126,-0.0158 -1.441121,0 z"
       inkscape:connector-curvature="0" />
  </g>
</svg>
