<?xml version="1.0" encoding="UTF-8" standalone="no"?>
<!-- Created with Inkscape (http://www.inkscape.org/) -->

<svg
   xmlns:dc="http://purl.org/dc/elements/1.1/"
   xmlns:cc="http://creativecommons.org/ns#"
   xmlns:rdf="http://www.w3.org/1999/02/22-rdf-syntax-ns#"
   xmlns:svg="http://www.w3.org/2000/svg"
   xmlns="http://www.w3.org/2000/svg"
   xmlns:sodipodi="http://sodipodi.sourceforge.net/DTD/sodipodi-0.dtd"
   xmlns:inkscape="http://www.inkscape.org/namespaces/inkscape"
   width="256"
   height="256"
   id="svg4374"
   version="1.1"
   inkscape:version="0.92.1 r15371"
   sodipodi:docname="edit-clone.svg">
  <defs
     id="defs4376" />
  <sodipodi:namedview
     id="base"
     pagecolor="#ffffff"
     bordercolor="#666666"
     borderopacity="1.0"
     inkscape:pageopacity="0.0"
     inkscape:pageshadow="2"
     inkscape:zoom="1.7124294"
     inkscape:cx="-96.47631"
     inkscape:cy="124.39832"
     inkscape:document-units="px"
     inkscape:current-layer="layer1"
     showgrid="false"
     inkscape:window-width="1918"
     inkscape:window-height="1023"
     inkscape:window-x="0"
     inkscape:window-y="26"
     inkscape:window-maximized="1" />
  <metadata
     id="metadata4379">
    <rdf:RDF>
      <cc:Work
         rdf:about="">
        <dc:format>image/svg+xml</dc:format>
        <dc:type
           rdf:resource="http://purl.org/dc/dcmitype/StillImage" />
        <dc:title />
      </cc:Work>
    </rdf:RDF>
  </metadata>
  <g
     inkscape:label="Capa 1"
     inkscape:groupmode="layer"
     id="layer1"
     transform="translate(0,-796.36218)">
    <path
       style="fill:#9283be;fill-opacity:1;stroke:none"
       d="M 89.28125 87.375 L 89.28125 231.03125 C 137.43249 231.04225 185.59891 231.0605 233.75 230.9375 L 233.375 87.375 L 89.28125 87.375 z M 186.59375 134.25 C 200.89973 133.905 206.72949 144.17517 206.4375 155.5625 C 206.25495 162.68199 206.24975 167.0746 206.28125 170.15625 L 212.28125 170.15625 L 212.28125 210.15625 L 160.875 210.15625 L 160.875 170.15625 L 167.03125 170.15625 C 167.0233 168.95586 166.9442 162.01463 166.71875 153.21875 C 166.47311 143.63362 173.73844 134.56002 186.59375 134.25 z M 186.59375 145.0625 C 174.7596 144.88818 176.44877 160.7146 176.625 170.15625 L 196.59375 170.15625 C 196.98813 155.53362 197.62124 145.22493 186.59375 145.0625 z "
       transform="translate(0,796.36218)"
       id="path41071" />
    <path
       style="fill:#9283be;fill-opacity:1;stroke:none"
       sodipodi:nodetypes="cccccccc"
       id="path41077"
       d="m 19.115204,818.63109 0,117.04733 59.179055,0.9218 0,-62.7383 73.167321,0 -0.76217,-55.22936 -131.584279,0 z"
       inkscape:connector-curvature="0" />
  </g>
</svg>
