<?xml version="1.0" encoding="UTF-8" standalone="no"?>
<!-- Created with Inkscape (http://www.inkscape.org/) -->

<svg
   xmlns:dc="http://purl.org/dc/elements/1.1/"
   xmlns:cc="http://creativecommons.org/ns#"
   xmlns:rdf="http://www.w3.org/1999/02/22-rdf-syntax-ns#"
   xmlns:svg="http://www.w3.org/2000/svg"
   xmlns="http://www.w3.org/2000/svg"
   xmlns:sodipodi="http://sodipodi.sourceforge.net/DTD/sodipodi-0.dtd"
   xmlns:inkscape="http://www.inkscape.org/namespaces/inkscape"
   width="256"
   height="256"
   id="svg4374"
   version="1.1"
   inkscape:version="0.92.1 r15371"
   sodipodi:docname="document-save.svg">
  <defs
     id="defs4376" />
  <sodipodi:namedview
     id="base"
     pagecolor="#ffffff"
     bordercolor="#666666"
     borderopacity="1.0"
     inkscape:pageopacity="0.0"
     inkscape:pageshadow="2"
     inkscape:zoom="1.7124294"
     inkscape:cx="25.339819"
     inkscape:cy="28.495546"
     inkscape:document-units="px"
     inkscape:current-layer="layer1"
     showgrid="false"
     inkscape:window-width="1918"
     inkscape:window-height="1023"
     inkscape:window-x="0"
     inkscape:window-y="26"
     inkscape:window-maximized="1" />
  <metadata
     id="metadata4379">
    <rdf:RDF>
      <cc:Work
         rdf:about="">
        <dc:format>image/svg+xml</dc:format>
        <dc:type
           rdf:resource="http://purl.org/dc/dcmitype/StillImage" />
        <dc:title />
      </cc:Work>
    </rdf:RDF>
  </metadata>
  <g
     inkscape:label="Capa 1"
     inkscape:groupmode="layer"
     id="layer1"
     transform="translate(0,-796.36218)">
    <g
       inkscape:label="status"
       transform="matrix(17.559598,0,0,17.559598,-1424.9314,-10594.331)"
       id="layer9-3"
       style="display:inline;fill:#666666;fill-opacity:1" />
    <g
       style="fill:#666666;fill-opacity:1"
       inkscape:label="devices"
       transform="matrix(17.559598,0,0,17.559598,-1424.9314,-10594.331)"
       id="layer10-8" />
    <g
       style="fill:#666666;fill-opacity:1"
       inkscape:label="apps"
       transform="matrix(17.559598,0,0,17.559598,-1424.9314,-10594.331)"
       id="layer11-3" />
    <path
       style="color:#bebebe;font-style:normal;font-variant:normal;font-weight:normal;font-stretch:normal;font-size:medium;line-height:normal;font-family:Sans;-inkscape-font-specification:Sans;text-indent:0;text-align:start;text-decoration:none;text-decoration-line:none;letter-spacing:normal;word-spacing:normal;text-transform:none;writing-mode:lr-tb;direction:ltr;baseline-shift:baseline;text-anchor:start;display:inline;overflow:visible;visibility:visible;fill:#9283be;fill-opacity:1;stroke:none;stroke-width:17.55959892;marker:none;enable-background:accumulate"
       id="rect4390-9"
       d="m 57.208419,942.32489 a 8.780677,8.780677 0 0 0 -5.487375,3.84116 l -17.559598,26.3394 a 8.780677,8.780677 0 1 0 14.267174,9.87727 l 17.559598,-26.3394 a 8.780677,8.780677 0 0 0 -8.779799,-13.71843 z m 122.917181,0 a 8.780677,8.780677 0 0 0 -5.48737,13.71843 l 17.5596,26.3394 a 8.780677,8.780677 0 1 0 14.26717,-9.87727 l -17.5596,-26.3394 a 8.780677,8.780677 0 0 0 -8.7798,-3.84116 z"
       inkscape:connector-curvature="0" />
    <path
       inkscape:connector-curvature="0"
       d="m 102.75367,801.84812 v 97.67527 L 80.255431,877.02515 c -3.304014,-3.30384 -7.9624,-4.93846 -12.620961,-4.93864 H 50.074872 v 17.5596 c 1.76e-4,4.65856 1.634799,9.31677 4.938637,12.62096 l 52.678791,52.6788 4.93864,4.93863 h 15.36465 l 4.93864,-4.93863 52.67879,-52.6788 c 3.30454,-3.30419 4.93846,-7.9624 4.93864,-12.62096 v -17.5596 h -17.5596 c -4.65856,1.8e-4 -9.31695,1.6348 -12.62096,4.93864 l -22.49824,22.49824 v -97.67527 z"
       id="path3613"
       sodipodi:nodetypes="ccccccccccccccccccc"
       style="color:#000000;font-style:normal;font-variant:normal;font-weight:normal;font-stretch:normal;font-size:medium;line-height:normal;font-family:'Bitstream Vera Sans';-inkscape-font-specification:'Bitstream Vera Sans';text-indent:0;text-align:start;text-decoration:none;text-decoration-line:none;letter-spacing:normal;word-spacing:normal;text-transform:none;writing-mode:lr-tb;direction:ltr;text-anchor:start;display:inline;overflow:visible;visibility:visible;fill:#f79420;fill-opacity:1;stroke:none;stroke-width:35.11919785;marker:none;enable-background:accumulate" />
    <path
       inkscape:connector-curvature="0"
       d="m 32.515274,977.4441 v 70.2384 H 208.11125 v -70.2384 z m 58.714906,25.2419 c 0.365239,-0.018 0.732235,-0.018 1.097475,0 5.10914,-0.9763 10.517845,3.5792 10.426015,8.7798 v 1.0975 h 35.11919 v -1.0975 c -0.0702,-4.6385 4.14091,-8.9048 8.7798,-8.9048 4.6389,0 8.8453,4.2663 8.7798,8.9048 v 1.0975 c 0,9.5761 -7.98347,17.5596 -17.5596,17.5596 h -35.11919 c -9.576131,0 -17.559602,-7.9835 -17.559602,-17.5596 v -1.0975 c -0.189644,-3.8115 2.409704,-7.5917 6.036112,-8.7798 z"
       id="rect11668-7-5"
       sodipodi:nodetypes="ccccccsccccsccccccc"
       style="color:#000000;display:inline;overflow:visible;visibility:visible;fill:#9283be;fill-opacity:1;fill-rule:evenodd;stroke:none;stroke-width:17.55959892;marker:none;enable-background:accumulate" />
    <g
       style="fill:#666666;fill-opacity:1"
       inkscape:label="places"
       transform="matrix(17.559598,0,0,17.559598,-1424.9314,-10594.331)"
       id="layer13-8" />
    <g
       style="fill:#666666;fill-opacity:1"
       inkscape:label="mimetypes"
       transform="matrix(17.559598,0,0,17.559598,-1424.9314,-10594.331)"
       id="layer14-6" />
    <g
       inkscape:label="emblems"
       transform="matrix(17.559598,0,0,17.559598,-1424.9314,-10594.331)"
       id="layer15-0"
       style="display:inline;fill:#666666;fill-opacity:1" />
  </g>
</svg>
