<?xml version="1.0" encoding="UTF-8" standalone="no"?>
<!-- Generator: Adobe Illustrator 9.0, SVG Export Plug-In  -->

<svg
   xmlns:dc="http://purl.org/dc/elements/1.1/"
   xmlns:cc="http://creativecommons.org/ns#"
   xmlns:rdf="http://www.w3.org/1999/02/22-rdf-syntax-ns#"
   xmlns:svg="http://www.w3.org/2000/svg"
   xmlns="http://www.w3.org/2000/svg"
   xmlns:sodipodi="http://sodipodi.sourceforge.net/DTD/sodipodi-0.dtd"
   xmlns:inkscape="http://www.inkscape.org/namespaces/inkscape"
   width="48"
   height="48"
   viewBox="0 0 48 48"
   xml:space="preserve"
   id="svg2"
   sodipodi:version="0.32"
   inkscape:version="0.48.3.1 r9886"
   sodipodi:docname="help-contents.svg"
   inkscape:output_extension="org.inkscape.output.svg.inkscape"
   version="1.0"><metadata
   id="metadata35"><rdf:RDF><cc:Work
       rdf:about=""><dc:format>image/svg+xml</dc:format><dc:type
         rdf:resource="http://purl.org/dc/dcmitype/StillImage" /></cc:Work></rdf:RDF></metadata><defs
   id="defs33"><inkscape:path-effect
     effect="skeletal"
     id="path-effect3052"
     is_visible="true"
     pattern="M 0,5 C 0,2.24 2.24,0 5,0 7.76,0 10,2.24 10,5 10,7.76 7.76,10 5,10 2.24,10 0,7.76 0,5 z"
     copytype="single_stretched"
     prop_scale="1"
     scale_y_rel="false"
     spacing="0"
     normal_offset="0"
     tang_offset="0"
     prop_units="false"
     vertical_pattern="false"
     fuse_tolerance="0" /></defs><sodipodi:namedview
   inkscape:window-height="1031"
   inkscape:window-width="1914"
   inkscape:pageshadow="2"
   inkscape:pageopacity="0"
   guidetolerance="10.0"
   gridtolerance="10.0"
   objecttolerance="10.0"
   borderopacity="1.0"
   bordercolor="#666666"
   pagecolor="#ffffff"
   id="base"
   showgrid="true"
   inkscape:object-paths="true"
   inkscape:object-nodes="true"
   inkscape:zoom="9.4315565"
   inkscape:cx="39.795032"
   inkscape:cy="30.260826"
   inkscape:window-x="0"
   inkscape:window-y="25"
   inkscape:current-layer="svg2"
   inkscape:window-maximized="1"
   inkscape:snap-global="false"><inkscape:grid
     type="xygrid"
     id="grid2394"
     visible="true"
     enabled="true"
     empspacing="5"
     snapvisiblegridlinesonly="true" /></sodipodi:namedview>
	
	<g
   id="crop_x0020_marks"
   style="fill-rule:nonzero;stroke:#000000;stroke-miterlimit:4">
		<path
   style="fill:none;stroke:none"
   d="M 48,48 L 0,48 L 0,0 L 48,0 L 48,48 z"
   id="path30" />
	</g>
<path
   style="fill:#4ecae9;fill-opacity:1;stroke:none"
   d="m 1.1948419,38.040208 3.704254,-3.515472 c 0,0 -0.1028679,-1.649927 -0.2937499,-5.419686 C 4.4144722,25.335291 4.7514612,21.222421 6.5964458,17.905808 7.806546,15.911175 6.7898859,10.769998 6.9183023,8.930899 7.0267441,7.3778129 10.696446,8.0465723 11.266332,9.9507858 c 0.569884,1.9042152 0.170642,6.3401662 3.035868,8.0219342 1.273855,0.747699 3.989197,2.197172 4.27414,4.101385 0.284941,1.904214 0.712356,6.884466 0.142466,7.909812 -3.3228,5.650433 -11.4320937,4.200124 -5.128967,12.743587 -0.997299,0 -3.9891949,3.66195 -3.9891949,3.66195 z"
   id="path2999"
   inkscape:connector-curvature="0"
   sodipodi:nodetypes="cczcsssscccc" /><path
   style="fill:#4ecae9;fill-opacity:1;stroke:none"
   d="m 15.021168,17.15943 c 0,0 18.289458,-14.2455429 20.255622,-15.2309266 1.966163,-0.9853836 3.840115,2.3391922 2.397312,3.6591628 -1.442803,1.3199706 -11.581901,8.9514048 -11.581901,8.9514048 l 1.822619,1.997826 c 0,0 10.35365,-8.1405584 12.69365,-9.7449132 2.339999,-1.6043548 4.961212,1.317837 2.735847,3.1410217 C 41.118952,11.75619 30.418191,19.864067 30.418191,19.864067 l 1.593113,1.956002 c 0,0 9.612222,-7.29535 11.813508,-8.834631 2.201286,-1.539282 5.11374,1.373929 2.421869,3.402117 -2.69187,2.028187 -12.64439,9.022362 -12.64439,9.022362 l 1.085471,2.085517 c 3.590907,-2.245713 7.317708,-4.417556 8.719064,-5.198772 1.401355,-0.781216 3.701771,2.041455 0.930595,3.74004 -2.771175,1.698584 -18.061022,12.94795 -18.061022,12.94795 0,0 -1.709655,-6.445032 -3.276839,-8.349247 -1.567185,-1.904214 -1.282242,-4.687296 -2.422012,-8.349246 -1.139769,-3.66195 -5.55638,-5.126729 -5.55638,-5.126729 z"
   id="path3001"
   inkscape:connector-curvature="0"
   sodipodi:nodetypes="czzcczzcczzcczzcssc" /><path
   style="fill:#4ecae9;fill-opacity:1;stroke:none"
   d="m 12.371802,36.378781 c 0,0 0.40297,4.350175 1.914108,4.764477 1.511136,0.414303 3.223756,2.382239 6.548256,0.517879 3.324499,-1.864362 3.928954,-2.278664 3.928954,-2.278664 0,0 -1.108166,-5.800233 -2.619302,-7.561018 C 20.63268,30.060669 19.726,28.196309 19.726,28.196309 c 0,0 -0.201486,3.210843 -1.309652,4.557327 -1.108166,1.346481 -6.044546,3.625145 -6.044546,3.625145 z"
   id="path3003"
   inkscape:connector-curvature="0" /></svg>