<?xml version="1.0" encoding="UTF-8" standalone="no"?>
<!-- Generator: Adobe Illustrator 15.0.0, SVG Export Plug-In . SVG Version: 6.00 Build 0)  -->

<svg
   xmlns:dc="http://purl.org/dc/elements/1.1/"
   xmlns:cc="http://creativecommons.org/ns#"
   xmlns:rdf="http://www.w3.org/1999/02/22-rdf-syntax-ns#"
   xmlns:svg="http://www.w3.org/2000/svg"
   xmlns="http://www.w3.org/2000/svg"
   xmlns:sodipodi="http://sodipodi.sourceforge.net/DTD/sodipodi-0.dtd"
   xmlns:inkscape="http://www.inkscape.org/namespaces/inkscape"
   version="1.1"
   id="Capa_1"
   x="0px"
   y="0px"
   width="256"
   height="256"
   viewBox="0 0 256 256"
   enable-background="new 0 0 800 600"
   xml:space="preserve"
   inkscape:version="0.91 r13725"
   sodipodi:docname="pilas-bloques.svg"><metadata
     id="metadata58"><rdf:RDF><cc:Work
         rdf:about=""><dc:format>image/svg+xml</dc:format><dc:type
           rdf:resource="http://purl.org/dc/dcmitype/StillImage" /><dc:title></dc:title></cc:Work></rdf:RDF></metadata><defs
     id="defs56"><clipPath
       clipPathUnits="userSpaceOnUse"
       id="clipPath4697"><path
         style="display:inline;fill:#b2c64b;fill-opacity:1;fill-rule:evenodd;stroke:#75832a;stroke-width:7;stroke-linecap:butt;stroke-linejoin:miter;stroke-miterlimit:4;stroke-dasharray:none;stroke-opacity:1"
         d="m 38.477126,383.58043 0,70.11143 c 0,0 3.14603,9.88751 11.23581,11.23581 8.08978,1.34829 24.01249,-0.30878 33.70742,0 9.69493,0.30878 2.28621,22.92104 19.775024,22.92104 19.10088,0 10.57649,-22.24575 24.98917,-22.65383 14.41268,-0.40808 89.61607,0 89.61607,0 0,0 15.55875,1.62711 15.55875,-8.98285 0,-5.30498 0.51542,-48.77517 -0.12574,-70.426 -0.63337,-21.38786 -13.00997,-19.34773 -20.77286,-19.73346 -12.66868,-0.62949 -148.406114,-0.56174 -160.051244,-0.44943 -11.64513,0.11232 -13.9324,14.38183 -13.9324,17.97729 z"
         id="path4699"
         inkscape:connector-curvature="0"
         sodipodi:nodetypes="scszszcssszs" /></clipPath><clipPath
       clipPathUnits="userSpaceOnUse"
       id="clipPath4701"><path
         style="display:inline;fill:#b2c64b;fill-opacity:1;fill-rule:evenodd;stroke:#75832a;stroke-width:7;stroke-linecap:butt;stroke-linejoin:miter;stroke-miterlimit:4;stroke-dasharray:none;stroke-opacity:1"
         d="m 38.477126,383.58043 0,70.11143 c 0,0 3.14603,9.88751 11.23581,11.23581 8.08978,1.34829 24.01249,-0.30878 33.70742,0 9.69493,0.30878 2.28621,22.92104 19.775024,22.92104 19.10088,0 10.57649,-22.24575 24.98917,-22.65383 14.41268,-0.40808 89.61607,0 89.61607,0 0,0 15.55875,1.62711 15.55875,-8.98285 0,-5.30498 0.51542,-48.77517 -0.12574,-70.426 -0.63337,-21.38786 -13.00997,-19.34773 -20.77286,-19.73346 -12.66868,-0.62949 -148.406114,-0.56174 -160.051244,-0.44943 -11.64513,0.11232 -13.9324,14.38183 -13.9324,17.97729 z"
         id="path4703"
         inkscape:connector-curvature="0"
         sodipodi:nodetypes="scszszcssszs" /></clipPath><clipPath
       clipPathUnits="userSpaceOnUse"
       id="clipPath4705"><path
         style="display:inline;fill:#b2c64b;fill-opacity:1;fill-rule:evenodd;stroke:#75832a;stroke-width:7;stroke-linecap:butt;stroke-linejoin:miter;stroke-miterlimit:4;stroke-dasharray:none;stroke-opacity:1"
         d="m 38.477126,383.58043 0,70.11143 c 0,0 3.14603,9.88751 11.23581,11.23581 8.08978,1.34829 24.01249,-0.30878 33.70742,0 9.69493,0.30878 2.28621,22.92104 19.775024,22.92104 19.10088,0 10.57649,-22.24575 24.98917,-22.65383 14.41268,-0.40808 89.61607,0 89.61607,0 0,0 15.55875,1.62711 15.55875,-8.98285 0,-5.30498 0.51542,-48.77517 -0.12574,-70.426 -0.63337,-21.38786 -13.00997,-19.34773 -20.77286,-19.73346 -12.66868,-0.62949 -148.406114,-0.56174 -160.051244,-0.44943 -11.64513,0.11232 -13.9324,14.38183 -13.9324,17.97729 z"
         id="path4707"
         inkscape:connector-curvature="0"
         sodipodi:nodetypes="scszszcssszs" /></clipPath><clipPath
       clipPathUnits="userSpaceOnUse"
       id="clipPath4709"><path
         style="display:inline;fill:#b2c64b;fill-opacity:1;fill-rule:evenodd;stroke:#75832a;stroke-width:7;stroke-linecap:butt;stroke-linejoin:miter;stroke-miterlimit:4;stroke-dasharray:none;stroke-opacity:1"
         d="m 38.477126,383.58043 0,70.11143 c 0,0 3.14603,9.88751 11.23581,11.23581 8.08978,1.34829 24.01249,-0.30878 33.70742,0 9.69493,0.30878 2.28621,22.92104 19.775024,22.92104 19.10088,0 10.57649,-22.24575 24.98917,-22.65383 14.41268,-0.40808 89.61607,0 89.61607,0 0,0 15.55875,1.62711 15.55875,-8.98285 0,-5.30498 0.51542,-48.77517 -0.12574,-70.426 -0.63337,-21.38786 -13.00997,-19.34773 -20.77286,-19.73346 -12.66868,-0.62949 -148.406114,-0.56174 -160.051244,-0.44943 -11.64513,0.11232 -13.9324,14.38183 -13.9324,17.97729 z"
         id="path4711"
         inkscape:connector-curvature="0"
         sodipodi:nodetypes="scszszcssszs" /></clipPath><clipPath
       clipPathUnits="userSpaceOnUse"
       id="clipPath4713"><path
         style="display:inline;fill:#b2c64b;fill-opacity:1;fill-rule:evenodd;stroke:#75832a;stroke-width:7;stroke-linecap:butt;stroke-linejoin:miter;stroke-miterlimit:4;stroke-dasharray:none;stroke-opacity:1"
         d="m 38.477126,383.58043 0,70.11143 c 0,0 3.14603,9.88751 11.23581,11.23581 8.08978,1.34829 24.01249,-0.30878 33.70742,0 9.69493,0.30878 2.28621,22.92104 19.775024,22.92104 19.10088,0 10.57649,-22.24575 24.98917,-22.65383 14.41268,-0.40808 89.61607,0 89.61607,0 0,0 15.55875,1.62711 15.55875,-8.98285 0,-5.30498 0.51542,-48.77517 -0.12574,-70.426 -0.63337,-21.38786 -13.00997,-19.34773 -20.77286,-19.73346 -12.66868,-0.62949 -148.406114,-0.56174 -160.051244,-0.44943 -11.64513,0.11232 -13.9324,14.38183 -13.9324,17.97729 z"
         id="path4715"
         inkscape:connector-curvature="0"
         sodipodi:nodetypes="scszszcssszs" /></clipPath><clipPath
       clipPathUnits="userSpaceOnUse"
       id="clipPath4717"><path
         style="display:inline;fill:#b2c64b;fill-opacity:1;fill-rule:evenodd;stroke:#75832a;stroke-width:7.40277004;stroke-linecap:butt;stroke-linejoin:miter;stroke-miterlimit:4;stroke-dasharray:none;stroke-opacity:1"
         d="m 134.76722,155.40995 0,74.14554 c 0,0 3.32705,10.45643 11.88231,11.8823 8.55525,1.42587 25.39413,-0.32654 35.64689,0 10.25277,0.32655 2.41776,24.23989 20.91286,24.23989 20.19991,0 11.18504,-23.52574 26.42701,-23.9573 15.24196,-0.43156 94.77245,0 94.77245,0 0,0 16.45398,1.72073 16.45398,-9.49971 0,-5.61022 0.54507,-51.58163 -0.13298,-74.47821 -0.66981,-22.61849 -13.75854,-20.46097 -21.9681,-20.8689 -13.39762,-0.66571 -156.94519,-0.59406 -169.26037,-0.47529 -12.31517,0.11878 -14.73405,15.20934 -14.73405,19.01168 z"
         id="path4719"
         inkscape:connector-curvature="0"
         sodipodi:nodetypes="scszszcssszs" /></clipPath><clipPath
       clipPathUnits="userSpaceOnUse"
       id="clipPath4721"><path
         style="display:inline;fill:#b2c64b;fill-opacity:1;fill-rule:evenodd;stroke:#75832a;stroke-width:7.40277004;stroke-linecap:butt;stroke-linejoin:miter;stroke-miterlimit:4;stroke-dasharray:none;stroke-opacity:1"
         d="m 134.76722,155.40995 0,74.14554 c 0,0 3.32705,10.45643 11.88231,11.8823 8.55525,1.42587 25.39413,-0.32654 35.64689,0 10.25277,0.32655 2.41776,24.23989 20.91286,24.23989 20.19991,0 11.18504,-23.52574 26.42701,-23.9573 15.24196,-0.43156 94.77245,0 94.77245,0 0,0 16.45398,1.72073 16.45398,-9.49971 0,-5.61022 0.54507,-51.58163 -0.13298,-74.47821 -0.66981,-22.61849 -13.75854,-20.46097 -21.9681,-20.8689 -13.39762,-0.66571 -156.94519,-0.59406 -169.26037,-0.47529 -12.31517,0.11878 -14.73405,15.20934 -14.73405,19.01168 z"
         id="path4723"
         inkscape:connector-curvature="0"
         sodipodi:nodetypes="scszszcssszs" /></clipPath><clipPath
       clipPathUnits="userSpaceOnUse"
       id="clipPath4725"><path
         style="display:inline;fill:#b2c64b;fill-opacity:1;fill-rule:evenodd;stroke:#75832a;stroke-width:7;stroke-linecap:butt;stroke-linejoin:miter;stroke-miterlimit:4;stroke-dasharray:none;stroke-opacity:1"
         d="m 38.477126,383.58043 0,70.11143 c 0,0 3.14603,9.88751 11.23581,11.23581 8.08978,1.34829 24.01249,-0.30878 33.70742,0 9.69493,0.30878 2.28621,22.92104 19.775024,22.92104 19.10088,0 10.57649,-22.24575 24.98917,-22.65383 14.41268,-0.40808 89.61607,0 89.61607,0 0,0 15.55875,1.62711 15.55875,-8.98285 0,-5.30498 0.51542,-48.77517 -0.12574,-70.426 -0.63337,-21.38786 -13.00997,-19.34773 -20.77286,-19.73346 -12.66868,-0.62949 -148.406114,-0.56174 -160.051244,-0.44943 -11.64513,0.11232 -13.9324,14.38183 -13.9324,17.97729 z"
         id="path4727"
         inkscape:connector-curvature="0"
         sodipodi:nodetypes="scszszcssszs" /></clipPath><clipPath
       clipPathUnits="userSpaceOnUse"
       id="clipPath4729"><path
         style="display:inline;fill:#b2c64b;fill-opacity:1;fill-rule:evenodd;stroke:#75832a;stroke-width:7;stroke-linecap:butt;stroke-linejoin:miter;stroke-miterlimit:4;stroke-dasharray:none;stroke-opacity:1"
         d="m 38.477126,383.58043 0,70.11143 c 0,0 3.14603,9.88751 11.23581,11.23581 8.08978,1.34829 24.01249,-0.30878 33.70742,0 9.69493,0.30878 2.28621,22.92104 19.775024,22.92104 19.10088,0 10.57649,-22.24575 24.98917,-22.65383 14.41268,-0.40808 89.61607,0 89.61607,0 0,0 15.55875,1.62711 15.55875,-8.98285 0,-5.30498 0.51542,-48.77517 -0.12574,-70.426 -0.63337,-21.38786 -13.00997,-19.34773 -20.77286,-19.73346 -12.66868,-0.62949 -148.406114,-0.56174 -160.051244,-0.44943 -11.64513,0.11232 -13.9324,14.38183 -13.9324,17.97729 z"
         id="path4731"
         inkscape:connector-curvature="0"
         sodipodi:nodetypes="scszszcssszs" /></clipPath><clipPath
       clipPathUnits="userSpaceOnUse"
       id="clipPath4733"><path
         style="display:inline;fill:#b2c64b;fill-opacity:1;fill-rule:evenodd;stroke:#75832a;stroke-width:7;stroke-linecap:butt;stroke-linejoin:miter;stroke-miterlimit:4;stroke-dasharray:none;stroke-opacity:1"
         d="m 38.477126,383.58043 0,70.11143 c 0,0 3.14603,9.88751 11.23581,11.23581 8.08978,1.34829 24.01249,-0.30878 33.70742,0 9.69493,0.30878 2.28621,22.92104 19.775024,22.92104 19.10088,0 10.57649,-22.24575 24.98917,-22.65383 14.41268,-0.40808 89.61607,0 89.61607,0 0,0 15.55875,1.62711 15.55875,-8.98285 0,-5.30498 0.51542,-48.77517 -0.12574,-70.426 -0.63337,-21.38786 -13.00997,-19.34773 -20.77286,-19.73346 -12.66868,-0.62949 -148.406114,-0.56174 -160.051244,-0.44943 -11.64513,0.11232 -13.9324,14.38183 -13.9324,17.97729 z"
         id="path4735"
         inkscape:connector-curvature="0"
         sodipodi:nodetypes="scszszcssszs" /></clipPath><clipPath
       clipPathUnits="userSpaceOnUse"
       id="clipPath4737"><path
         style="display:inline;fill:#b2c64b;fill-opacity:1;fill-rule:evenodd;stroke:#75832a;stroke-width:7;stroke-linecap:butt;stroke-linejoin:miter;stroke-miterlimit:4;stroke-dasharray:none;stroke-opacity:1"
         d="m 38.477126,383.58043 0,70.11143 c 0,0 3.14603,9.88751 11.23581,11.23581 8.08978,1.34829 24.01249,-0.30878 33.70742,0 9.69493,0.30878 2.28621,22.92104 19.775024,22.92104 19.10088,0 10.57649,-22.24575 24.98917,-22.65383 14.41268,-0.40808 89.61607,0 89.61607,0 0,0 15.55875,1.62711 15.55875,-8.98285 0,-5.30498 0.51542,-48.77517 -0.12574,-70.426 -0.63337,-21.38786 -13.00997,-19.34773 -20.77286,-19.73346 -12.66868,-0.62949 -148.406114,-0.56174 -160.051244,-0.44943 -11.64513,0.11232 -13.9324,14.38183 -13.9324,17.97729 z"
         id="path4739"
         inkscape:connector-curvature="0"
         sodipodi:nodetypes="scszszcssszs" /></clipPath><clipPath
       clipPathUnits="userSpaceOnUse"
       id="clipPath4741"><path
         style="display:inline;fill:#b2c64b;fill-opacity:1;fill-rule:evenodd;stroke:#75832a;stroke-width:7;stroke-linecap:butt;stroke-linejoin:miter;stroke-miterlimit:4;stroke-dasharray:none;stroke-opacity:1"
         d="m 38.477126,383.58043 0,70.11143 c 0,0 3.14603,9.88751 11.23581,11.23581 8.08978,1.34829 24.01249,-0.30878 33.70742,0 9.69493,0.30878 2.28621,22.92104 19.775024,22.92104 19.10088,0 10.57649,-22.24575 24.98917,-22.65383 14.41268,-0.40808 89.61607,0 89.61607,0 0,0 15.55875,1.62711 15.55875,-8.98285 0,-5.30498 0.51542,-48.77517 -0.12574,-70.426 -0.63337,-21.38786 -13.00997,-19.34773 -20.77286,-19.73346 -12.66868,-0.62949 -148.406114,-0.56174 -160.051244,-0.44943 -11.64513,0.11232 -13.9324,14.38183 -13.9324,17.97729 z"
         id="path4743"
         inkscape:connector-curvature="0"
         sodipodi:nodetypes="scszszcssszs" /></clipPath><clipPath
       clipPathUnits="userSpaceOnUse"
       id="clipPath4745"><path
         style="display:inline;fill:#b2c64b;fill-opacity:1;fill-rule:evenodd;stroke:#75832a;stroke-width:7;stroke-linecap:butt;stroke-linejoin:miter;stroke-miterlimit:4;stroke-dasharray:none;stroke-opacity:1"
         d="m 38.477126,383.58043 0,70.11143 c 0,0 3.14603,9.88751 11.23581,11.23581 8.08978,1.34829 24.01249,-0.30878 33.70742,0 9.69493,0.30878 2.28621,22.92104 19.775024,22.92104 19.10088,0 10.57649,-22.24575 24.98917,-22.65383 14.41268,-0.40808 89.61607,0 89.61607,0 0,0 15.55875,1.62711 15.55875,-8.98285 0,-5.30498 0.51542,-48.77517 -0.12574,-70.426 -0.63337,-21.38786 -13.00997,-19.34773 -20.77286,-19.73346 -12.66868,-0.62949 -148.406114,-0.56174 -160.051244,-0.44943 -11.64513,0.11232 -13.9324,14.38183 -13.9324,17.97729 z"
         id="path4747"
         inkscape:connector-curvature="0"
         sodipodi:nodetypes="scszszcssszs" /></clipPath><clipPath
       clipPathUnits="userSpaceOnUse"
       id="clipPath4749"><path
         style="display:inline;fill:#b2c64b;fill-opacity:1;fill-rule:evenodd;stroke:#75832a;stroke-width:7.40277004;stroke-linecap:butt;stroke-linejoin:miter;stroke-miterlimit:4;stroke-dasharray:none;stroke-opacity:1"
         d="m 134.76722,155.40995 0,74.14554 c 0,0 3.32705,10.45643 11.88231,11.8823 8.55525,1.42587 25.39413,-0.32654 35.64689,0 10.25277,0.32655 2.41776,24.23989 20.91286,24.23989 20.19991,0 11.18504,-23.52574 26.42701,-23.9573 15.24196,-0.43156 94.77245,0 94.77245,0 0,0 16.45398,1.72073 16.45398,-9.49971 0,-5.61022 0.54507,-51.58163 -0.13298,-74.47821 -0.66981,-22.61849 -13.75854,-20.46097 -21.9681,-20.8689 -13.39762,-0.66571 -156.94519,-0.59406 -169.26037,-0.47529 -12.31517,0.11878 -14.73405,15.20934 -14.73405,19.01168 z"
         id="path4751"
         inkscape:connector-curvature="0"
         sodipodi:nodetypes="scszszcssszs" /></clipPath><clipPath
       clipPathUnits="userSpaceOnUse"
       id="clipPath4753"><path
         style="display:inline;fill:#b2c64b;fill-opacity:1;fill-rule:evenodd;stroke:#75832a;stroke-width:7.40277004;stroke-linecap:butt;stroke-linejoin:miter;stroke-miterlimit:4;stroke-dasharray:none;stroke-opacity:1"
         d="m 134.76722,155.40995 0,74.14554 c 0,0 3.32705,10.45643 11.88231,11.8823 8.55525,1.42587 25.39413,-0.32654 35.64689,0 10.25277,0.32655 2.41776,24.23989 20.91286,24.23989 20.19991,0 11.18504,-23.52574 26.42701,-23.9573 15.24196,-0.43156 94.77245,0 94.77245,0 0,0 16.45398,1.72073 16.45398,-9.49971 0,-5.61022 0.54507,-51.58163 -0.13298,-74.47821 -0.66981,-22.61849 -13.75854,-20.46097 -21.9681,-20.8689 -13.39762,-0.66571 -156.94519,-0.59406 -169.26037,-0.47529 -12.31517,0.11878 -14.73405,15.20934 -14.73405,19.01168 z"
         id="path4755"
         inkscape:connector-curvature="0"
         sodipodi:nodetypes="scszszcssszs" /></clipPath><clipPath
       clipPathUnits="userSpaceOnUse"
       id="clipPath4776"><path
         style="display:inline;fill:#5fbcd3;fill-rule:evenodd;stroke:#164450;stroke-width:7;stroke-linecap:butt;stroke-linejoin:miter;stroke-miterlimit:4;stroke-dasharray:none;stroke-opacity:1"
         d="m -283.13303,510.96573 0,70.11143 c 0,0 3.14602,9.88751 11.2358,11.23581 8.08978,1.34829 22.73534,0.0354 33.70742,0.13361 10.97207,0.0982 4.51079,22.46963 21.99959,22.46963 19.10088,0 11.00964,-22.75365 22.76459,-22.46963 11.75495,0.28401 89.61607,0.1336 89.61607,0.1336 0,0 15.558751,1.62711 15.558751,-8.98285 0,-5.30498 0.51542,-48.77517 -0.12574,-70.426 -0.63337,-21.38786 -13.009971,-19.34773 -20.772861,-19.73346 -3.16717,-0.15737 -14.02614,-0.27117 -28.71501,-0.35158 -14.68887,-0.0804 -35.43221,-0.12746 -53.919,-0.15131 -9.2434,-0.0119 -3.2743,23.40032 -25.95229,23.4918 -21.32834,0.086 -16.99859,-24.14577 -24.27905,-24.13961 -14.56093,0.0123 -24.27459,0.67319 -27.18587,0.70129 -11.64513,0.11232 -13.9324,14.38183 -13.9324,17.97729 z"
         id="path4778"
         inkscape:connector-curvature="0"
         sodipodi:nodetypes="ccszszcsssssssssc" /></clipPath><clipPath
       clipPathUnits="userSpaceOnUse"
       id="clipPath4780"><path
         style="display:inline;fill:#5fbcd3;fill-rule:evenodd;stroke:#164450;stroke-width:7;stroke-linecap:butt;stroke-linejoin:miter;stroke-miterlimit:4;stroke-dasharray:none;stroke-opacity:1"
         d="m -283.13303,510.96573 0,70.11143 c 0,0 3.14602,9.88751 11.2358,11.23581 8.08978,1.34829 22.73534,0.0354 33.70742,0.13361 10.97207,0.0982 4.51079,22.46963 21.99959,22.46963 19.10088,0 11.00964,-22.75365 22.76459,-22.46963 11.75495,0.28401 89.61607,0.1336 89.61607,0.1336 0,0 15.558751,1.62711 15.558751,-8.98285 0,-5.30498 0.51542,-48.77517 -0.12574,-70.426 -0.63337,-21.38786 -13.009971,-19.34773 -20.772861,-19.73346 -3.16717,-0.15737 -14.02614,-0.27117 -28.71501,-0.35158 -14.68887,-0.0804 -35.43221,-0.12746 -53.919,-0.15131 -9.2434,-0.0119 -3.2743,23.40032 -25.95229,23.4918 -21.32834,0.086 -16.99859,-24.14577 -24.27905,-24.13961 -14.56093,0.0123 -24.27459,0.67319 -27.18587,0.70129 -11.64513,0.11232 -13.9324,14.38183 -13.9324,17.97729 z"
         id="path4782"
         inkscape:connector-curvature="0"
         sodipodi:nodetypes="ccszszcsssssssssc" /></clipPath><clipPath
       clipPathUnits="userSpaceOnUse"
       id="clipPath4784"><path
         style="display:inline;fill:#5fbcd3;fill-rule:evenodd;stroke:#164450;stroke-width:7;stroke-linecap:butt;stroke-linejoin:miter;stroke-miterlimit:4;stroke-dasharray:none;stroke-opacity:1"
         d="m -283.13303,510.96573 0,70.11143 c 0,0 3.14602,9.88751 11.2358,11.23581 8.08978,1.34829 22.73534,0.0354 33.70742,0.13361 10.97207,0.0982 4.51079,22.46963 21.99959,22.46963 19.10088,0 11.00964,-22.75365 22.76459,-22.46963 11.75495,0.28401 89.61607,0.1336 89.61607,0.1336 0,0 15.558751,1.62711 15.558751,-8.98285 0,-5.30498 0.51542,-48.77517 -0.12574,-70.426 -0.63337,-21.38786 -13.009971,-19.34773 -20.772861,-19.73346 -3.16717,-0.15737 -14.02614,-0.27117 -28.71501,-0.35158 -14.68887,-0.0804 -35.43221,-0.12746 -53.919,-0.15131 -9.2434,-0.0119 -3.2743,23.40032 -25.95229,23.4918 -21.32834,0.086 -16.99859,-24.14577 -24.27905,-24.13961 -14.56093,0.0123 -24.27459,0.67319 -27.18587,0.70129 -11.64513,0.11232 -13.9324,14.38183 -13.9324,17.97729 z"
         id="path4786"
         inkscape:connector-curvature="0"
         sodipodi:nodetypes="ccszszcsssssssssc" /></clipPath><clipPath
       clipPathUnits="userSpaceOnUse"
       id="clipPath4788"><path
         style="display:inline;fill:#5fbcd3;fill-rule:evenodd;stroke:#164450;stroke-width:7;stroke-linecap:butt;stroke-linejoin:miter;stroke-miterlimit:4;stroke-dasharray:none;stroke-opacity:1"
         d="m -283.13303,510.96573 0,70.11143 c 0,0 3.14602,9.88751 11.2358,11.23581 8.08978,1.34829 22.73534,0.0354 33.70742,0.13361 10.97207,0.0982 4.51079,22.46963 21.99959,22.46963 19.10088,0 11.00964,-22.75365 22.76459,-22.46963 11.75495,0.28401 89.61607,0.1336 89.61607,0.1336 0,0 15.558751,1.62711 15.558751,-8.98285 0,-5.30498 0.51542,-48.77517 -0.12574,-70.426 -0.63337,-21.38786 -13.009971,-19.34773 -20.772861,-19.73346 -3.16717,-0.15737 -14.02614,-0.27117 -28.71501,-0.35158 -14.68887,-0.0804 -35.43221,-0.12746 -53.919,-0.15131 -9.2434,-0.0119 -3.2743,23.40032 -25.95229,23.4918 -21.32834,0.086 -16.99859,-24.14577 -24.27905,-24.13961 -14.56093,0.0123 -24.27459,0.67319 -27.18587,0.70129 -11.64513,0.11232 -13.9324,14.38183 -13.9324,17.97729 z"
         id="path4790"
         inkscape:connector-curvature="0"
         sodipodi:nodetypes="ccszszcsssssssssc" /></clipPath><clipPath
       clipPathUnits="userSpaceOnUse"
       id="clipPath4792"><path
         style="display:inline;fill:#5fbcd3;fill-rule:evenodd;stroke:#164450;stroke-width:7;stroke-linecap:butt;stroke-linejoin:miter;stroke-miterlimit:4;stroke-dasharray:none;stroke-opacity:1"
         d="m -283.13303,510.96573 0,70.11143 c 0,0 3.14602,9.88751 11.2358,11.23581 8.08978,1.34829 22.73534,0.0354 33.70742,0.13361 10.97207,0.0982 4.51079,22.46963 21.99959,22.46963 19.10088,0 11.00964,-22.75365 22.76459,-22.46963 11.75495,0.28401 89.61607,0.1336 89.61607,0.1336 0,0 15.558751,1.62711 15.558751,-8.98285 0,-5.30498 0.51542,-48.77517 -0.12574,-70.426 -0.63337,-21.38786 -13.009971,-19.34773 -20.772861,-19.73346 -3.16717,-0.15737 -14.02614,-0.27117 -28.71501,-0.35158 -14.68887,-0.0804 -35.43221,-0.12746 -53.919,-0.15131 -9.2434,-0.0119 -3.2743,23.40032 -25.95229,23.4918 -21.32834,0.086 -16.99859,-24.14577 -24.27905,-24.13961 -14.56093,0.0123 -24.27459,0.67319 -27.18587,0.70129 -11.64513,0.11232 -13.9324,14.38183 -13.9324,17.97729 z"
         id="path4794"
         inkscape:connector-curvature="0"
         sodipodi:nodetypes="ccszszcsssssssssc" /></clipPath><clipPath
       clipPathUnits="userSpaceOnUse"
       id="clipPath4796"><path
         style="display:inline;fill:#5fbcd3;fill-rule:evenodd;stroke:#164450;stroke-width:7.40277004;stroke-linecap:butt;stroke-linejoin:miter;stroke-miterlimit:4;stroke-dasharray:none;stroke-opacity:1"
         d="m 133.96864,266.10197 0,74.14555 c 0,0 3.32704,10.45642 11.88229,11.8823 8.55526,1.42587 24.0435,0.0374 35.6469,0.1413 11.60339,0.10385 4.77033,23.7625 23.26541,23.7625 20.19992,0 11.64312,-24.06286 24.07444,-23.7625 12.43131,0.30035 94.77245,0.14128 94.77245,0.14128 0,0 16.45398,1.72074 16.45398,-9.49971 0,-5.61022 0.54508,-51.58162 -0.13298,-74.47821 -0.66981,-22.61849 -13.75854,-20.46097 -21.9681,-20.86889 -3.3494,-0.16643 -14.83318,-0.28678 -30.36723,-0.37181 -15.53405,-0.085 -37.47093,-0.1348 -57.02142,-0.16002 -9.77525,-0.0126 -3.4627,24.74674 -27.44555,24.84349 -22.55554,0.0909 -17.97667,-25.53509 -25.67603,-25.52857 -15.39875,0.013 -25.67132,0.71192 -28.75011,0.74164 -12.31517,0.11878 -14.73405,15.20934 -14.73405,19.01168 z"
         id="path4798"
         inkscape:connector-curvature="0"
         sodipodi:nodetypes="ccszszcsssssssssc" /></clipPath><clipPath
       clipPathUnits="userSpaceOnUse"
       id="clipPath4800"><path
         style="display:inline;fill:#5fbcd3;fill-rule:evenodd;stroke:#164450;stroke-width:7.40277004;stroke-linecap:butt;stroke-linejoin:miter;stroke-miterlimit:4;stroke-dasharray:none;stroke-opacity:1"
         d="m 133.96864,266.10197 0,74.14555 c 0,0 3.32704,10.45642 11.88229,11.8823 8.55526,1.42587 24.0435,0.0374 35.6469,0.1413 11.60339,0.10385 4.77033,23.7625 23.26541,23.7625 20.19992,0 11.64312,-24.06286 24.07444,-23.7625 12.43131,0.30035 94.77245,0.14128 94.77245,0.14128 0,0 16.45398,1.72074 16.45398,-9.49971 0,-5.61022 0.54508,-51.58162 -0.13298,-74.47821 -0.66981,-22.61849 -13.75854,-20.46097 -21.9681,-20.86889 -3.3494,-0.16643 -14.83318,-0.28678 -30.36723,-0.37181 -15.53405,-0.085 -37.47093,-0.1348 -57.02142,-0.16002 -9.77525,-0.0126 -3.4627,24.74674 -27.44555,24.84349 -22.55554,0.0909 -17.97667,-25.53509 -25.67603,-25.52857 -15.39875,0.013 -25.67132,0.71192 -28.75011,0.74164 -12.31517,0.11878 -14.73405,15.20934 -14.73405,19.01168 z"
         id="path4802"
         inkscape:connector-curvature="0"
         sodipodi:nodetypes="ccszszcsssssssssc" /></clipPath><clipPath
       clipPathUnits="userSpaceOnUse"
       id="clipPath4804"><path
         style="display:inline;fill:#5fbcd3;fill-rule:evenodd;stroke:#164450;stroke-width:7;stroke-linecap:butt;stroke-linejoin:miter;stroke-miterlimit:4;stroke-dasharray:none;stroke-opacity:1"
         d="m -283.13303,510.96573 0,70.11143 c 0,0 3.14602,9.88751 11.2358,11.23581 8.08978,1.34829 22.73534,0.0354 33.70742,0.13361 10.97207,0.0982 4.51079,22.46963 21.99959,22.46963 19.10088,0 11.00964,-22.75365 22.76459,-22.46963 11.75495,0.28401 89.61607,0.1336 89.61607,0.1336 0,0 15.558751,1.62711 15.558751,-8.98285 0,-5.30498 0.51542,-48.77517 -0.12574,-70.426 -0.63337,-21.38786 -13.009971,-19.34773 -20.772861,-19.73346 -3.16717,-0.15737 -14.02614,-0.27117 -28.71501,-0.35158 -14.68887,-0.0804 -35.43221,-0.12746 -53.919,-0.15131 -9.2434,-0.0119 -3.2743,23.40032 -25.95229,23.4918 -21.32834,0.086 -16.99859,-24.14577 -24.27905,-24.13961 -14.56093,0.0123 -24.27459,0.67319 -27.18587,0.70129 -11.64513,0.11232 -13.9324,14.38183 -13.9324,17.97729 z"
         id="path4806"
         inkscape:connector-curvature="0"
         sodipodi:nodetypes="ccszszcsssssssssc" /></clipPath><clipPath
       clipPathUnits="userSpaceOnUse"
       id="clipPath4808"><path
         style="display:inline;fill:#5fbcd3;fill-rule:evenodd;stroke:#164450;stroke-width:7;stroke-linecap:butt;stroke-linejoin:miter;stroke-miterlimit:4;stroke-dasharray:none;stroke-opacity:1"
         d="m -283.13303,510.96573 0,70.11143 c 0,0 3.14602,9.88751 11.2358,11.23581 8.08978,1.34829 22.73534,0.0354 33.70742,0.13361 10.97207,0.0982 4.51079,22.46963 21.99959,22.46963 19.10088,0 11.00964,-22.75365 22.76459,-22.46963 11.75495,0.28401 89.61607,0.1336 89.61607,0.1336 0,0 15.558751,1.62711 15.558751,-8.98285 0,-5.30498 0.51542,-48.77517 -0.12574,-70.426 -0.63337,-21.38786 -13.009971,-19.34773 -20.772861,-19.73346 -3.16717,-0.15737 -14.02614,-0.27117 -28.71501,-0.35158 -14.68887,-0.0804 -35.43221,-0.12746 -53.919,-0.15131 -9.2434,-0.0119 -3.2743,23.40032 -25.95229,23.4918 -21.32834,0.086 -16.99859,-24.14577 -24.27905,-24.13961 -14.56093,0.0123 -24.27459,0.67319 -27.18587,0.70129 -11.64513,0.11232 -13.9324,14.38183 -13.9324,17.97729 z"
         id="path4810"
         inkscape:connector-curvature="0"
         sodipodi:nodetypes="ccszszcsssssssssc" /></clipPath><clipPath
       clipPathUnits="userSpaceOnUse"
       id="clipPath4812"><path
         style="display:inline;fill:#5fbcd3;fill-rule:evenodd;stroke:#164450;stroke-width:7;stroke-linecap:butt;stroke-linejoin:miter;stroke-miterlimit:4;stroke-dasharray:none;stroke-opacity:1"
         d="m -283.13303,510.96573 0,70.11143 c 0,0 3.14602,9.88751 11.2358,11.23581 8.08978,1.34829 22.73534,0.0354 33.70742,0.13361 10.97207,0.0982 4.51079,22.46963 21.99959,22.46963 19.10088,0 11.00964,-22.75365 22.76459,-22.46963 11.75495,0.28401 89.61607,0.1336 89.61607,0.1336 0,0 15.558751,1.62711 15.558751,-8.98285 0,-5.30498 0.51542,-48.77517 -0.12574,-70.426 -0.63337,-21.38786 -13.009971,-19.34773 -20.772861,-19.73346 -3.16717,-0.15737 -14.02614,-0.27117 -28.71501,-0.35158 -14.68887,-0.0804 -35.43221,-0.12746 -53.919,-0.15131 -9.2434,-0.0119 -3.2743,23.40032 -25.95229,23.4918 -21.32834,0.086 -16.99859,-24.14577 -24.27905,-24.13961 -14.56093,0.0123 -24.27459,0.67319 -27.18587,0.70129 -11.64513,0.11232 -13.9324,14.38183 -13.9324,17.97729 z"
         id="path4814"
         inkscape:connector-curvature="0"
         sodipodi:nodetypes="ccszszcsssssssssc" /></clipPath><clipPath
       clipPathUnits="userSpaceOnUse"
       id="clipPath4816"><path
         style="display:inline;fill:#5fbcd3;fill-rule:evenodd;stroke:#164450;stroke-width:7;stroke-linecap:butt;stroke-linejoin:miter;stroke-miterlimit:4;stroke-dasharray:none;stroke-opacity:1"
         d="m -283.13303,510.96573 0,70.11143 c 0,0 3.14602,9.88751 11.2358,11.23581 8.08978,1.34829 22.73534,0.0354 33.70742,0.13361 10.97207,0.0982 4.51079,22.46963 21.99959,22.46963 19.10088,0 11.00964,-22.75365 22.76459,-22.46963 11.75495,0.28401 89.61607,0.1336 89.61607,0.1336 0,0 15.558751,1.62711 15.558751,-8.98285 0,-5.30498 0.51542,-48.77517 -0.12574,-70.426 -0.63337,-21.38786 -13.009971,-19.34773 -20.772861,-19.73346 -3.16717,-0.15737 -14.02614,-0.27117 -28.71501,-0.35158 -14.68887,-0.0804 -35.43221,-0.12746 -53.919,-0.15131 -9.2434,-0.0119 -3.2743,23.40032 -25.95229,23.4918 -21.32834,0.086 -16.99859,-24.14577 -24.27905,-24.13961 -14.56093,0.0123 -24.27459,0.67319 -27.18587,0.70129 -11.64513,0.11232 -13.9324,14.38183 -13.9324,17.97729 z"
         id="path4818"
         inkscape:connector-curvature="0"
         sodipodi:nodetypes="ccszszcsssssssssc" /></clipPath><clipPath
       clipPathUnits="userSpaceOnUse"
       id="clipPath4820"><path
         style="display:inline;fill:#5fbcd3;fill-rule:evenodd;stroke:#164450;stroke-width:7;stroke-linecap:butt;stroke-linejoin:miter;stroke-miterlimit:4;stroke-dasharray:none;stroke-opacity:1"
         d="m -283.13303,510.96573 0,70.11143 c 0,0 3.14602,9.88751 11.2358,11.23581 8.08978,1.34829 22.73534,0.0354 33.70742,0.13361 10.97207,0.0982 4.51079,22.46963 21.99959,22.46963 19.10088,0 11.00964,-22.75365 22.76459,-22.46963 11.75495,0.28401 89.61607,0.1336 89.61607,0.1336 0,0 15.558751,1.62711 15.558751,-8.98285 0,-5.30498 0.51542,-48.77517 -0.12574,-70.426 -0.63337,-21.38786 -13.009971,-19.34773 -20.772861,-19.73346 -3.16717,-0.15737 -14.02614,-0.27117 -28.71501,-0.35158 -14.68887,-0.0804 -35.43221,-0.12746 -53.919,-0.15131 -9.2434,-0.0119 -3.2743,23.40032 -25.95229,23.4918 -21.32834,0.086 -16.99859,-24.14577 -24.27905,-24.13961 -14.56093,0.0123 -24.27459,0.67319 -27.18587,0.70129 -11.64513,0.11232 -13.9324,14.38183 -13.9324,17.97729 z"
         id="path4822"
         inkscape:connector-curvature="0"
         sodipodi:nodetypes="ccszszcsssssssssc" /></clipPath><clipPath
       clipPathUnits="userSpaceOnUse"
       id="clipPath4824"><path
         style="display:inline;fill:#5fbcd3;fill-rule:evenodd;stroke:#164450;stroke-width:7;stroke-linecap:butt;stroke-linejoin:miter;stroke-miterlimit:4;stroke-dasharray:none;stroke-opacity:1"
         d="m -283.13303,510.96573 0,70.11143 c 0,0 3.14602,9.88751 11.2358,11.23581 8.08978,1.34829 22.73534,0.0354 33.70742,0.13361 10.97207,0.0982 4.51079,22.46963 21.99959,22.46963 19.10088,0 11.00964,-22.75365 22.76459,-22.46963 11.75495,0.28401 89.61607,0.1336 89.61607,0.1336 0,0 15.558751,1.62711 15.558751,-8.98285 0,-5.30498 0.51542,-48.77517 -0.12574,-70.426 -0.63337,-21.38786 -13.009971,-19.34773 -20.772861,-19.73346 -3.16717,-0.15737 -14.02614,-0.27117 -28.71501,-0.35158 -14.68887,-0.0804 -35.43221,-0.12746 -53.919,-0.15131 -9.2434,-0.0119 -3.2743,23.40032 -25.95229,23.4918 -21.32834,0.086 -16.99859,-24.14577 -24.27905,-24.13961 -14.56093,0.0123 -24.27459,0.67319 -27.18587,0.70129 -11.64513,0.11232 -13.9324,14.38183 -13.9324,17.97729 z"
         id="path4826"
         inkscape:connector-curvature="0"
         sodipodi:nodetypes="ccszszcsssssssssc" /></clipPath><clipPath
       clipPathUnits="userSpaceOnUse"
       id="clipPath4828"><path
         style="display:inline;fill:#5fbcd3;fill-rule:evenodd;stroke:#164450;stroke-width:7.40277004;stroke-linecap:butt;stroke-linejoin:miter;stroke-miterlimit:4;stroke-dasharray:none;stroke-opacity:1"
         d="m 133.96864,266.10197 0,74.14555 c 0,0 3.32704,10.45642 11.88229,11.8823 8.55526,1.42587 24.0435,0.0374 35.6469,0.1413 11.60339,0.10385 4.77033,23.7625 23.26541,23.7625 20.19992,0 11.64312,-24.06286 24.07444,-23.7625 12.43131,0.30035 94.77245,0.14128 94.77245,0.14128 0,0 16.45398,1.72074 16.45398,-9.49971 0,-5.61022 0.54508,-51.58162 -0.13298,-74.47821 -0.66981,-22.61849 -13.75854,-20.46097 -21.9681,-20.86889 -3.3494,-0.16643 -14.83318,-0.28678 -30.36723,-0.37181 -15.53405,-0.085 -37.47093,-0.1348 -57.02142,-0.16002 -9.77525,-0.0126 -3.4627,24.74674 -27.44555,24.84349 -22.55554,0.0909 -17.97667,-25.53509 -25.67603,-25.52857 -15.39875,0.013 -25.67132,0.71192 -28.75011,0.74164 -12.31517,0.11878 -14.73405,15.20934 -14.73405,19.01168 z"
         id="path4830"
         inkscape:connector-curvature="0"
         sodipodi:nodetypes="ccszszcsssssssssc" /></clipPath><clipPath
       clipPathUnits="userSpaceOnUse"
       id="clipPath4832"><path
         style="display:inline;fill:#5fbcd3;fill-rule:evenodd;stroke:#164450;stroke-width:7.40277004;stroke-linecap:butt;stroke-linejoin:miter;stroke-miterlimit:4;stroke-dasharray:none;stroke-opacity:1"
         d="m 133.96864,266.10197 0,74.14555 c 0,0 3.32704,10.45642 11.88229,11.8823 8.55526,1.42587 24.0435,0.0374 35.6469,0.1413 11.60339,0.10385 4.77033,23.7625 23.26541,23.7625 20.19992,0 11.64312,-24.06286 24.07444,-23.7625 12.43131,0.30035 94.77245,0.14128 94.77245,0.14128 0,0 16.45398,1.72074 16.45398,-9.49971 0,-5.61022 0.54508,-51.58162 -0.13298,-74.47821 -0.66981,-22.61849 -13.75854,-20.46097 -21.9681,-20.86889 -3.3494,-0.16643 -14.83318,-0.28678 -30.36723,-0.37181 -15.53405,-0.085 -37.47093,-0.1348 -57.02142,-0.16002 -9.77525,-0.0126 -3.4627,24.74674 -27.44555,24.84349 -22.55554,0.0909 -17.97667,-25.53509 -25.67603,-25.52857 -15.39875,0.013 -25.67132,0.71192 -28.75011,0.74164 -12.31517,0.11878 -14.73405,15.20934 -14.73405,19.01168 z"
         id="path4834"
         inkscape:connector-curvature="0"
         sodipodi:nodetypes="ccszszcsssssssssc" /></clipPath></defs><sodipodi:namedview
     pagecolor="#ffffff"
     bordercolor="#666666"
     borderopacity="1"
     objecttolerance="10"
     gridtolerance="10"
     guidetolerance="10"
     inkscape:pageopacity="0"
     inkscape:pageshadow="2"
     inkscape:window-width="1920"
     inkscape:window-height="1026"
     id="namedview54"
     showgrid="false"
     inkscape:zoom="1.5733334"
     inkscape:cx="-53.867775"
     inkscape:cy="66.143059"
     inkscape:window-x="0"
     inkscape:window-y="29"
     inkscape:window-maximized="1"
     inkscape:current-layer="layer1" /><g
     inkscape:groupmode="layer"
     id="layer4"
     inkscape:label="Capa 2"><path
       style="display:inline;fill:#eeffaa;fill-opacity:1;fill-rule:evenodd;stroke:none;stroke-width:6.60745049;stroke-linecap:butt;stroke-linejoin:miter;stroke-miterlimit:4;stroke-dasharray:none;stroke-opacity:1"
       d="m 37.274338,36.413611 0,66.179699 c 0,0 2.969605,9.33304 10.605723,10.60573 7.636117,1.27268 22.665906,-0.29147 31.817163,0 9.15125,0.29146 2.158,21.63566 18.66607,21.63566 18.029736,0 9.983376,-20.99824 23.587816,-21.38344 13.60443,-0.38519 84.59053,0 84.59053,0 0,0 14.68624,1.53587 14.68624,-8.4791 0,-5.007505 0.48651,-46.039949 -0.11869,-66.476639 -0.59785,-20.18846 -12.28039,-18.26274 -19.60795,-18.62684 -11.95824,-0.59418 -140.083721,-0.53023 -151.07581,-0.42422 -10.992089,0.10602 -13.151092,13.57532 -13.151092,16.96915 z"
       id="path4326-6-8"
       inkscape:connector-curvature="0"
       sodipodi:nodetypes="scszszcssszs" /><path
       style="display:inline;fill:#5fbcd3;fill-rule:evenodd;stroke:none;stroke-width:6.60745049;stroke-linecap:butt;stroke-linejoin:miter;stroke-miterlimit:4;stroke-dasharray:none;stroke-opacity:1"
       d="m 38.434365,149.46031 0,66.17969 c 0,0 2.9696,9.33303 10.60572,10.60572 7.63611,1.27268 21.46037,0.0334 31.81716,0.12612 10.35677,0.0927 4.25783,21.20956 20.765895,21.20956 18.02973,0 10.39223,-21.47765 21.48798,-21.20956 11.09575,0.26808 84.59054,0.12611 84.59054,0.12611 0,0 14.68624,1.53586 14.68624,-8.47911 0,-5.00748 0.48651,-46.03993 -0.11869,-66.47662 -0.59786,-20.18846 -12.28039,-18.26273 -19.60795,-18.62683 -2.98956,-0.14855 -13.23958,-0.25597 -27.10472,-0.33187 -13.86514,-0.0759 -33.44522,-0.12031 -50.8953,-0.14282 -8.72505,-0.0112 -3.09068,22.08806 -24.49692,22.17441 -20.132295,0.0812 -16.045345,-22.79171 -22.917535,-22.78589 -13.74437,0.0116 -22.9133,0.63543 -25.66132,0.66196 -10.99209,0.10602 -13.1511,13.57532 -13.1511,16.96915 z"
       id="path4326-2-3"
       inkscape:connector-curvature="0"
       sodipodi:nodetypes="ccszszcsssssssssc" /></g><g
     inkscape:groupmode="layer"
     id="layer1"
     inkscape:label="Capa"
     style="display:inline"
     transform="translate(0,-344)"><g
       transform="matrix(0.94559197,0,0,0.94559197,-88.957679,236.62603)"
       id="path3087-9_1_"
       connector-curvature="0"
       export-xdpi="86.855568"
       export-ydpi="86.855568"
       export-filename="/home/hugoruscitti/path3089-3-4.png"
       clip-path="url(#clipPath4753)"><path
         style="fill:#030104"
         inkscape:connector-curvature="0"
         d="m 205.954,126.486 c -0.65,-0.766 -1.229,-1.56 -1.814,-2.352 -0.574,-0.796 -1.118,-1.605 -1.629,-2.427 -0.513,-0.821 -1.365,-1.505 -1.444,-2.502 -0.067,-0.487 -0.078,-0.997 0.013,-1.548 0.079,-0.546 0.229,-1.122 0.582,-1.778 l 0.371,-0.15 c 0.71,0.227 1.218,0.536 1.655,0.874 0.449,0.333 0.796,0.706 1.086,1.103 0.636,0.771 0.5,1.855 0.702,2.802 0.204,0.946 0.376,1.905 0.517,2.877 0.131,0.976 0.267,1.949 0.332,2.952 l -0.371,0.149 z"
         id="path4" /></g><g
       transform="matrix(0.94559197,0,0,0.94559197,-88.957679,236.62603)"
       id="path3089-3_1_"
       connector-curvature="0"
       export-xdpi="86.855568"
       export-ydpi="86.855568"
       clip-path="url(#clipPath4749)"><path
         style="fill:#030104"
         inkscape:connector-curvature="0"
         d="m 224.378,120.568 c 0.064,-2.284 0.234,-4.55 0.348,-6.826 0.148,-2.27 0.33,-4.534 0.544,-6.792 0.105,-1.13 0.138,-2.271 0.194,-3.41 0.063,-1.137 0.245,-2.253 0.548,-3.35 0.308,-1.095 0.676,-2.18 1.153,-3.247 0.464,-1.069 1.003,-2.125 1.758,-3.145 l 0.395,0.067 c 0.375,1.211 0.537,2.386 0.622,3.548 0.098,1.164 0.088,2.31 0.017,3.445 -0.075,1.135 -0.272,2.249 -0.588,3.343 -0.323,1.093 -0.669,2.182 -0.942,3.283 -0.543,2.203 -1.119,4.4 -1.728,6.592 -0.644,2.186 -1.231,4.381 -1.925,6.559 l -0.396,-0.067 z"
         id="path7" /></g><path
       style="fill:#b2c64b;stroke:#030104;stroke-width:4.72795963"
       inkscape:connector-curvature="0"
       d="m 81.609142,404.87426 c 21.492358,-5.57237 45.370448,-14.48741 68.773848,-32.4773 13.69029,54.76396 22.60533,111.43896 22.44647,167.15797 -37.25254,-0.63733 -74.505093,-1.27466 -111.756684,-1.9101 15.441517,-43.30244 25.631216,-88.0365 20.536366,-132.77057 z"
       nodetypes="ccccc"
       export-filename="/home/hugoruscitti/path3089-3-4.png"
       export-ydpi="86.855568"
       export-xdpi="86.855568"
       connector-curvature="0"
       id="path3069-83_1_"
       clip-path="url(#clipPath4745)"
       transform="matrix(0.94392151,0,0,0.94392151,-0.3155153,15.150329)" /><path
       style="fill:none;stroke:#030104;stroke-width:4.72795963"
       inkscape:connector-curvature="0"
       d="m 60.317248,488.64331 c 42.983772,30.5672 97.907542,14.32761 118.920482,-35.81997"
       nodetypes="cc"
       export-filename="/home/hugoruscitti/path3089-3-4.png"
       export-ydpi="86.855568"
       export-xdpi="86.855568"
       connector-curvature="0"
       id="path3071-6_1_"
       clip-path="url(#clipPath4741)"
       transform="matrix(0.94392151,0,0,0.94392151,-0.3155153,15.150329)" /><path
       style="fill:#b2c64b;stroke:#030104;stroke-width:4.72795963"
       inkscape:connector-curvature="0"
       d="m 100.5938,399.14208 c -2.387623,-6.84514 -4.059434,-13.2137 -6.447054,-20.05884 11.860564,-5.85132 21.809134,-9.9098 34.386454,-12.65675 2.06896,5.73124 4.97571,10.50742 7.04372,16.23865 -9.75,6.36857 -21.76942,11.78019 -34.98312,16.47694 z"
       nodetypes="ccccc"
       export-filename="/home/hugoruscitti/path3089-3-4.png"
       export-ydpi="86.855568"
       export-xdpi="86.855568"
       connector-curvature="0"
       id="path3073-3_1_"
       clip-path="url(#clipPath4737)"
       transform="matrix(0.94392151,0,0,0.94392151,-0.3155153,15.150329)" /><path
       style="fill:#ad3937;stroke:#030104;stroke-width:2.83677602"
       inkscape:connector-curvature="0"
       d="m 137.33004,497.59901 c 2.30819,10.10932 16.33889,19.64089 31.52131,12.17828 20.82477,-10.23698 14.48647,-25.55084 -0.71676,-37.25254 -9.4597,11.35372 -15.53513,17.40362 -30.80455,25.07426 l 0,0 z"
       nodetypes="cscc"
       export-filename="/home/hugoruscitti/path3089-3-4.png"
       export-ydpi="86.855568"
       export-xdpi="86.855568"
       connector-curvature="0"
       id="path3075-4_1_"
       clip-path="url(#clipPath4733)"
       transform="matrix(0.94392151,0,0,0.94392151,-0.3155153,15.150329)" /><path
       style="fill:#030104;stroke:#030104;stroke-width:3.78236794"
       inkscape:connector-curvature="0"
       d="m 132.59074,417.08847 19.87256,1.62169 0.90682,7.14206 -20.77938,-8.76375 z"
       export-filename="/home/hugoruscitti/path3089-3-4.png"
       export-ydpi="86.855568"
       export-xdpi="86.855568"
       connector-curvature="0"
       id="path3079-8_1_"
       clip-path="url(#clipPath4729)"
       transform="matrix(0.94392151,0,0,0.94392151,-0.3155153,15.150329)" /><path
       style="fill:#030104;stroke:#030104;stroke-width:3.78236794"
       inkscape:connector-curvature="0"
       d="m 91.801678,433.93703 -21.247452,8.23611 22.572226,-5.78608 -1.324774,-2.45003 z"
       export-filename="/home/hugoruscitti/path3089-3-4.png"
       export-ydpi="86.855568"
       export-xdpi="86.855568"
       connector-curvature="0"
       id="path3081-3_1_"
       clip-path="url(#clipPath4725)"
       transform="matrix(0.94392151,0,0,0.94392151,-0.3155153,15.150329)" /><g
       transform="matrix(0.8925646,0,0,0.8925646,-84.284582,238.50674)"
       export-filename="/home/hugoruscitti/path3089-3-4.png"
       export-ydpi="86.855568"
       export-xdpi="86.855568"
       connector-curvature="0"
       id="path3083-1_1_"
       clip-path="url(#clipPath4721)"><path
         style="fill:#030104"
         inkscape:connector-curvature="0"
         id="path18"
         d="m 181.788,146.277 c -0.633,-0.028 -1.224,-0.122 -1.818,-0.209 -0.588,-0.098 -1.158,-0.224 -1.711,-0.377 -0.552,-0.154 -1.301,0.001 -1.603,-0.546 -0.167,-0.249 -0.301,-0.549 -0.376,-0.942 -0.082,-0.382 -0.123,-0.829 -0.046,-1.46 l 0.215,-0.338 c 0.539,-0.336 0.961,-0.488 1.342,-0.576 0.388,-0.099 0.717,-0.104 1.013,-0.059 0.624,0.042 0.801,0.786 1.174,1.221 0.373,0.435 0.729,0.898 1.066,1.39 0.331,0.501 0.666,0.998 0.959,1.559 l -0.215,0.337 z" /></g><g
       transform="matrix(0.94559197,0,0,0.94559197,-88.957679,236.62603)"
       export-filename="/home/hugoruscitti/path3089-3-4.png"
       export-ydpi="86.855568"
       export-xdpi="86.855568"
       connector-curvature="0"
       id="path3085-3_1_"
       clip-path="url(#clipPath4717)"><path
         style="fill:#030104"
         inkscape:connector-curvature="0"
         id="path21"
         d="m 191.086,134.619 c -1.72,-1.585 -3.356,-3.24 -5.037,-4.858 -1.653,-1.64 -3.281,-3.302 -4.882,-4.985 -0.803,-0.84 -1.662,-1.633 -2.503,-2.441 -0.835,-0.813 -1.578,-1.703 -2.225,-2.671 -0.644,-0.971 -1.24,-1.98 -1.751,-3.06 -0.522,-1.071 -0.984,-2.192 -1.278,-3.451 l 0.309,-0.254 c 1.179,0.53 2.19,1.198 3.141,1.916 0.962,0.709 1.839,1.488 2.668,2.306 0.826,0.821 1.556,1.72 2.194,2.696 0.632,0.98 1.246,1.976 1.916,2.925 1.345,1.895 2.664,3.811 3.957,5.748 1.265,1.96 2.575,3.883 3.802,5.875 l -0.311,0.254 z" /></g><path
       style="fill:#ffffff;stroke:#030104;stroke-width:3.78236794"
       inkscape:connector-curvature="0"
       d="m 155.15918,461.58898 c 0.008,13.91249 -10.62467,25.19813 -23.74665,25.2057 -13.12387,0.009 -23.76746,-11.2639 -23.77502,-25.17828 0,-0.009 0,-0.0189 0,-0.0274 0,-13.91439 10.63791,-25.19341 23.75989,-25.19341 13.12387,0 23.76178,11.27902 23.76178,25.19341 z"
       type="arc"
       cx="207.46008"
       cy="364.57455"
       rx="25.127544"
       ry="26.642773"
       export-filename="/home/hugoruscitti/path3089-3-4.png"
       export-ydpi="86.855568"
       export-xdpi="86.855568"
       id="path3091-1_1_"
       clip-path="url(#clipPath4713)"
       transform="matrix(0.94392151,0,0,0.94392151,-0.3155153,15.150329)" /><path
       style="fill:#ffffff;stroke:#030104;stroke-width:3.78236794"
       inkscape:connector-curvature="0"
       d="m 102.65235,468.87098 c 0,8.0451 -6.681557,14.56779 -14.925228,14.56779 -8.242725,0 -14.924278,-6.52269 -14.924278,-14.56779 0,-8.0451 6.681553,-14.5659 14.924278,-14.5659 8.242725,0 14.925228,6.5208 14.925228,14.5659 z"
       type="arc"
       cx="165.03368"
       cy="372.78204"
       rx="15.783633"
       ry="15.404825"
       export-filename="/home/hugoruscitti/path3089-3-4.png"
       export-ydpi="86.855568"
       export-xdpi="86.855568"
       id="path3861-7_1_"
       clip-path="url(#clipPath4709)"
       transform="matrix(0.94392151,0,0,0.94392151,-0.3155153,15.150329)" /><path
       style="fill:#030104;stroke:#030104;stroke-width:1.89118397"
       inkscape:connector-curvature="0"
       d="m 134.5727,464.1156 c 0,1.68599 -1.36638,3.05426 -3.05427,3.05426 -1.68599,0 -3.05426,-1.36827 -3.05426,-3.05426 0,-1.68788 1.36827,-3.05426 3.05426,-3.05426 1.68694,-9.5e-4 3.05427,1.36543 3.05427,3.05426 z"
       type="arc"
       cx="210.36427"
       cy="370.50922"
       rx="4.0406103"
       ry="4.0406103"
       export-filename="/home/hugoruscitti/path3089-3-4.png"
       export-ydpi="86.855568"
       export-xdpi="86.855568"
       id="path3863-1_1_"
       clip-path="url(#clipPath4705)"
       transform="matrix(0.94392151,0,0,0.94392151,-0.3155153,15.150329)" /><path
       style="fill:#030104;stroke:#030104;stroke-width:1.89118397"
       inkscape:connector-curvature="0"
       d="m 92.095757,469.98867 c 0,2.32143 -1.880782,4.20316 -4.202211,4.20316 -2.321428,0 -4.203156,-1.88173 -4.203156,-4.20316 0,-2.32143 1.881728,-4.20316 4.203156,-4.20316 2.321429,0 4.202211,1.88079 4.202211,4.20316 z"
       type="arc"
       cx="166.42264"
       cy="375.30743"
       rx="3.2829957"
       ry="3.2829957"
       export-filename="/home/hugoruscitti/path3089-3-4.png"
       export-ydpi="86.855568"
       export-xdpi="86.855568"
       id="path3865-3_1_"
       clip-path="url(#clipPath4701)"
       transform="matrix(0.94392151,0,0,0.94392151,-0.3155153,15.150329)" /><path
       style="fill:none;stroke:#030104;stroke-width:3.78236794"
       inkscape:connector-curvature="0"
       d="m 154.93791,486.64149 c 3.70294,3.10154 6.98793,7.37845 8.56517,12.28135"
       nodetypes="cc"
       export-filename="/home/hugoruscitti/path3089-3-4.png"
       export-ydpi="86.855568"
       export-xdpi="86.855568"
       connector-curvature="0"
       id="path3867-5_1_"
       clip-path="url(#clipPath4697)"
       transform="matrix(0.94392151,0,0,0.94392151,3.2799428,14.700897)" /><g
       id="g4836"
       transform="matrix(0.94392151,0,0,0.94392151,304.51232,14.626699)"><g
         clip-path="url(#clipPath4832)"
         export-filename="/home/hugoruscitti/path3089-3-4.png"
         export-ydpi="86.855568"
         export-xdpi="86.855568"
         connector-curvature="0"
         id="path3087-9_1_-3"
         transform="matrix(0.94559197,0,0,0.94559197,-409.8127,259.34184)"><path
           id="path4-8"
           d="m 205.954,126.486 c -0.65,-0.766 -1.229,-1.56 -1.814,-2.352 -0.574,-0.796 -1.118,-1.605 -1.629,-2.427 -0.513,-0.821 -1.365,-1.505 -1.444,-2.502 -0.067,-0.487 -0.078,-0.997 0.013,-1.548 0.079,-0.546 0.229,-1.122 0.582,-1.778 l 0.371,-0.15 c 0.71,0.227 1.218,0.536 1.655,0.874 0.449,0.333 0.796,0.706 1.086,1.103 0.636,0.771 0.5,1.855 0.702,2.802 0.204,0.946 0.376,1.905 0.517,2.877 0.131,0.976 0.267,1.949 0.332,2.952 l -0.371,0.149 z"
           inkscape:connector-curvature="0"
           style="fill:#030104" /></g><g
         clip-path="url(#clipPath4828)"
         export-ydpi="86.855568"
         export-xdpi="86.855568"
         connector-curvature="0"
         id="path3089-3_1_-4"
         transform="matrix(0.94559197,0,0,0.94559197,-409.8127,259.34184)"><path
           id="path7-2"
           d="m 224.378,120.568 c 0.064,-2.284 0.234,-4.55 0.348,-6.826 0.148,-2.27 0.33,-4.534 0.544,-6.792 0.105,-1.13 0.138,-2.271 0.194,-3.41 0.063,-1.137 0.245,-2.253 0.548,-3.35 0.308,-1.095 0.676,-2.18 1.153,-3.247 0.464,-1.069 1.003,-2.125 1.758,-3.145 l 0.395,0.067 c 0.375,1.211 0.537,2.386 0.622,3.548 0.098,1.164 0.088,2.31 0.017,3.445 -0.075,1.135 -0.272,2.249 -0.588,3.343 -0.323,1.093 -0.669,2.182 -0.942,3.283 -0.543,2.203 -1.119,4.4 -1.728,6.592 -0.644,2.186 -1.231,4.381 -1.925,6.559 l -0.396,-0.067 z"
           inkscape:connector-curvature="0"
           style="fill:#030104" /></g><path
         clip-path="url(#clipPath4824)"
         id="path3069-83_1_-2"
         connector-curvature="0"
         export-xdpi="86.855568"
         export-ydpi="86.855568"
         export-filename="/home/hugoruscitti/path3089-3-4.png"
         nodetypes="ccccc"
         d="m -239.24587,427.59007 c 21.49235,-5.57237 45.37044,-14.48741 68.77384,-32.4773 13.69029,54.76396 22.60533,111.43896 22.44647,167.15797 -37.25254,-0.63733 -74.50509,-1.27466 -111.75668,-1.9101 15.44152,-43.30244 25.63121,-88.0365 20.53637,-132.77057 z"
         inkscape:connector-curvature="0"
         style="fill:#b2c64b;stroke:#030104;stroke-width:4.72795963" /><path
         clip-path="url(#clipPath4820)"
         id="path3071-6_1_-6"
         connector-curvature="0"
         export-xdpi="86.855568"
         export-ydpi="86.855568"
         export-filename="/home/hugoruscitti/path3089-3-4.png"
         nodetypes="cc"
         d="m -260.53777,511.35912 c 42.98377,30.5672 97.90754,14.32761 118.92048,-35.81997"
         inkscape:connector-curvature="0"
         style="fill:none;stroke:#030104;stroke-width:4.72795963" /><path
         clip-path="url(#clipPath4816)"
         id="path3073-3_1_-0"
         connector-curvature="0"
         export-xdpi="86.855568"
         export-ydpi="86.855568"
         export-filename="/home/hugoruscitti/path3089-3-4.png"
         nodetypes="ccccc"
         d="m -220.26122,421.85789 c -2.38762,-6.84514 -4.05943,-13.2137 -6.44705,-20.05884 11.86056,-5.85132 21.80913,-9.9098 34.38645,-12.65675 2.06896,5.73124 4.97571,10.50742 7.04372,16.23865 -9.75,6.36857 -21.76942,11.78019 -34.98312,16.47694 z"
         inkscape:connector-curvature="0"
         style="fill:#b2c64b;stroke:#030104;stroke-width:4.72795963" /><path
         clip-path="url(#clipPath4812)"
         id="path3075-4_1_-0"
         connector-curvature="0"
         export-xdpi="86.855568"
         export-ydpi="86.855568"
         export-filename="/home/hugoruscitti/path3089-3-4.png"
         nodetypes="cscc"
         d="m -183.52498,520.31482 c 2.30819,10.10932 16.33889,19.64089 31.52131,12.17828 20.82477,-10.23698 14.48647,-25.55084 -0.71676,-37.25254 -9.4597,11.35372 -15.53513,17.40362 -30.80455,25.07426 l 0,0 z"
         inkscape:connector-curvature="0"
         style="fill:#ad3937;stroke:#030104;stroke-width:2.83677602" /><path
         clip-path="url(#clipPath4808)"
         id="path3079-8_1_-6"
         connector-curvature="0"
         export-xdpi="86.855568"
         export-ydpi="86.855568"
         export-filename="/home/hugoruscitti/path3089-3-4.png"
         d="m -188.26428,439.80428 19.87256,1.62169 0.90682,7.14206 -20.77938,-8.76375 z"
         inkscape:connector-curvature="0"
         style="fill:#030104;stroke:#030104;stroke-width:3.78236794" /><path
         clip-path="url(#clipPath4804)"
         id="path3081-3_1_-4"
         connector-curvature="0"
         export-xdpi="86.855568"
         export-ydpi="86.855568"
         export-filename="/home/hugoruscitti/path3089-3-4.png"
         d="m -229.05334,456.65284 -21.24745,8.23611 22.57223,-5.78608 -1.32478,-2.45003 z"
         inkscape:connector-curvature="0"
         style="fill:#030104;stroke:#030104;stroke-width:3.78236794" /><g
         clip-path="url(#clipPath4800)"
         id="path3083-1_1_-3"
         connector-curvature="0"
         export-xdpi="86.855568"
         export-ydpi="86.855568"
         export-filename="/home/hugoruscitti/path3089-3-4.png"
         transform="matrix(0.94559197,0,0,0.94559197,-409.8127,259.34184)"><path
           d="m 181.788,146.277 c -0.633,-0.028 -1.224,-0.122 -1.818,-0.209 -0.588,-0.098 -1.158,-0.224 -1.711,-0.377 -0.552,-0.154 -1.301,0.001 -1.603,-0.546 -0.167,-0.249 -0.301,-0.549 -0.376,-0.942 -0.082,-0.382 -0.123,-0.829 -0.046,-1.46 l 0.215,-0.338 c 0.539,-0.336 0.961,-0.488 1.342,-0.576 0.388,-0.099 0.717,-0.104 1.013,-0.059 0.624,0.042 0.801,0.786 1.174,1.221 0.373,0.435 0.729,0.898 1.066,1.39 0.331,0.501 0.666,0.998 0.959,1.559 l -0.215,0.337 z"
           id="path18-9"
           inkscape:connector-curvature="0"
           style="fill:#030104" /></g><g
         clip-path="url(#clipPath4796)"
         id="path3085-3_1_-5"
         connector-curvature="0"
         export-xdpi="86.855568"
         export-ydpi="86.855568"
         export-filename="/home/hugoruscitti/path3089-3-4.png"
         transform="matrix(0.94559197,0,0,0.94559197,-409.8127,259.34184)"><path
           d="m 191.086,134.619 c -1.72,-1.585 -3.356,-3.24 -5.037,-4.858 -1.653,-1.64 -3.281,-3.302 -4.882,-4.985 -0.803,-0.84 -1.662,-1.633 -2.503,-2.441 -0.835,-0.813 -1.578,-1.703 -2.225,-2.671 -0.644,-0.971 -1.24,-1.98 -1.751,-3.06 -0.522,-1.071 -0.984,-2.192 -1.278,-3.451 l 0.309,-0.254 c 1.179,0.53 2.19,1.198 3.141,1.916 0.962,0.709 1.839,1.488 2.668,2.306 0.826,0.821 1.556,1.72 2.194,2.696 0.632,0.98 1.246,1.976 1.916,2.925 1.345,1.895 2.664,3.811 3.957,5.748 1.265,1.96 2.575,3.883 3.802,5.875 l -0.311,0.254 z"
           id="path21-2"
           inkscape:connector-curvature="0"
           style="fill:#030104" /></g><path
         clip-path="url(#clipPath4792)"
         id="path3091-1_1_-7"
         export-xdpi="86.855568"
         export-ydpi="86.855568"
         export-filename="/home/hugoruscitti/path3089-3-4.png"
         ry="26.642773"
         rx="25.127544"
         cy="364.57455"
         cx="207.46008"
         type="arc"
         d="m -165.69584,484.30479 c 0.008,13.91249 -10.62467,25.19813 -23.74665,25.2057 -13.12387,0.009 -23.76746,-11.2639 -23.77502,-25.17828 0,-0.009 0,-0.0189 0,-0.0274 0,-13.91439 10.63791,-25.19341 23.75989,-25.19341 13.12387,0 23.76178,11.27902 23.76178,25.19341 z"
         inkscape:connector-curvature="0"
         style="fill:#ffffff;stroke:#030104;stroke-width:3.78236794" /><path
         clip-path="url(#clipPath4788)"
         id="path3861-7_1_-6"
         export-xdpi="86.855568"
         export-ydpi="86.855568"
         export-filename="/home/hugoruscitti/path3089-3-4.png"
         ry="15.404825"
         rx="15.783633"
         cy="372.78204"
         cx="165.03368"
         type="arc"
         d="m -218.20267,491.58679 c 0,8.0451 -6.68155,14.56779 -14.92522,14.56779 -8.24273,0 -14.92428,-6.52269 -14.92428,-14.56779 0,-8.0451 6.68155,-14.5659 14.92428,-14.5659 8.24272,0 14.92522,6.5208 14.92522,14.5659 z"
         inkscape:connector-curvature="0"
         style="fill:#ffffff;stroke:#030104;stroke-width:3.78236794" /><path
         clip-path="url(#clipPath4784)"
         id="path3863-1_1_-6"
         export-xdpi="86.855568"
         export-ydpi="86.855568"
         export-filename="/home/hugoruscitti/path3089-3-4.png"
         ry="4.0406103"
         rx="4.0406103"
         cy="370.50922"
         cx="210.36427"
         type="arc"
         d="m -186.28232,486.83141 c 0,1.68599 -1.36638,3.05426 -3.05427,3.05426 -1.68599,0 -3.05426,-1.36827 -3.05426,-3.05426 0,-1.68788 1.36827,-3.05426 3.05426,-3.05426 1.68694,-9.5e-4 3.05427,1.36543 3.05427,3.05426 z"
         inkscape:connector-curvature="0"
         style="fill:#030104;stroke:#030104;stroke-width:1.89118397" /><path
         clip-path="url(#clipPath4780)"
         id="path3865-3_1_-1"
         export-xdpi="86.855568"
         export-ydpi="86.855568"
         export-filename="/home/hugoruscitti/path3089-3-4.png"
         ry="3.2829957"
         rx="3.2829957"
         cy="375.30743"
         cx="166.42264"
         type="arc"
         d="m -228.75926,492.70448 c 0,2.32143 -1.88078,4.20316 -4.20221,4.20316 -2.32143,0 -4.20316,-1.88173 -4.20316,-4.20316 0,-2.32143 1.88173,-4.20316 4.20316,-4.20316 2.32143,0 4.20221,1.88079 4.20221,4.20316 z"
         inkscape:connector-curvature="0"
         style="fill:#030104;stroke:#030104;stroke-width:1.89118397" /><path
         clip-path="url(#clipPath4776)"
         id="path3867-5_1_-7"
         connector-curvature="0"
         export-xdpi="86.855568"
         export-ydpi="86.855568"
         export-filename="/home/hugoruscitti/path3089-3-4.png"
         nodetypes="cc"
         d="m -165.91711,509.3573 c 3.70294,3.10154 6.98793,7.37845 8.56517,12.28135"
         inkscape:connector-curvature="0"
         style="fill:none;stroke:#030104;stroke-width:3.78236794" /></g></g><g
     inkscape:groupmode="layer"
     id="layer3"
     inkscape:label="Capa 1"
     style="display:inline"><path
       style="display:inline;fill:none;fill-opacity:1;fill-rule:evenodd;stroke:#75832a;stroke-width:6.60745049;stroke-linecap:butt;stroke-linejoin:miter;stroke-miterlimit:4;stroke-dasharray:none;stroke-opacity:1"
       d="m 36.824905,33.004316 0,69.325724 c 0,0 2.969605,9.33304 10.605723,10.60573 7.636117,1.27268 22.665906,-0.29147 31.817159,0 9.151256,0.29146 2.158002,21.63566 18.666076,21.63566 18.029737,0 9.983377,-20.99824 23.587817,-21.38344 13.60443,-0.38519 84.59053,0 84.59053,0 0,0 14.68624,1.53587 14.68624,-8.4791 0,-5.007505 0.48651,-49.185974 -0.11869,-69.622664 -0.59785,-20.18846 -12.28039,-18.26274 -19.60795,-18.62684 -11.95824,-0.59418 -140.083724,-0.53023 -151.075813,-0.42422 -10.992089,0.10602 -13.151092,13.57532 -13.151092,16.96915 z"
       id="path4326-6"
       inkscape:connector-curvature="0"
       sodipodi:nodetypes="scszszcssszs" /><path
       style="display:inline;fill:none;fill-rule:evenodd;stroke:#164450;stroke-width:6.60745049;stroke-linecap:butt;stroke-linejoin:miter;stroke-miterlimit:4;stroke-dasharray:none;stroke-opacity:1"
       d="m 38.434367,215.64 c 0,0 2.969596,9.33303 10.605714,10.60572 7.636117,1.27268 21.460376,0.0334 31.817158,0.12612 10.356771,0.0927 4.257831,21.20956 20.765891,21.20956 18.02974,0 10.39224,-21.47765 21.48799,-21.20956 11.09575,0.26808 84.59054,0.12611 84.59054,0.12611 0,0 14.68624,1.53586 14.68624,-8.47911 0,-5.00748 0.48651,-45.5905 -0.11869,-66.02719 -0.59786,-20.18846 -12.28039,-18.26273 -19.60795,-18.62683 -2.98956,-0.14855 -13.23958,-0.25597 -27.10472,-0.33187 -13.86514,-0.0759 -39.28453,0.77856 -53.59189,0.75605 -7.1537,-0.0112 -6.94589,22.08806 -24.496934,22.17441 -16.506515,0.0812 -17.283002,-22.79171 -22.917524,-22.78589 -11.269049,0.0116 -20.216713,-0.26344 -22.964733,-0.23691 -10.992088,0.10602 -13.151092,19.51452 -13.151092,18.66605 0,-0.84846 0,64.03334 0,64.03334 z"
       id="path4326-2"
       inkscape:connector-curvature="0"
       sodipodi:nodetypes="cszszcsssssssszc" /></g><g
     inkscape:groupmode="layer"
     id="layer2"
     inkscape:label="Capa#1"
     style="display:none;opacity:0.72666668"
     transform="translate(0,-344)"><g
       id="g4415"
       transform="matrix(1.1475933,0,0,1.1475933,-149.10281,206.5763)"><path
         inkscape:connector-curvature="0"
         id="path3568"
         d="m 273.3125,139.84375 c -8.26272,16.52542 -58.64376,34.67779 -81.375,39.40625 0.0459,10.96646 -1.02298,25.31088 -3.03125,41.125 l 18.3125,-8.09375 9.53125,13.34375 -29.28125,5.25 c -1.65453,11.23964 -3.73633,22.97022 -6.1875,34.59375 1.82287,0.50565 3.89899,0.95622 6.09375,1.375 -0.88488,-1.17581 -1.48859,-2.29955 -1.78125,-3.25 -1.3483,-4.37866 -1.88889,-15.51914 8.0625,-22.8125 6.89703,-5.05481 23.13306,-3.28288 26.03125,10.1875 1.55702,7.23683 -0.79623,18.27948 -9.9375,21.5625 10.99543,6.24833 22.73416,1.11348 30.15625,-1.4375 -0.80109,-0.70234 -6.96092,-3.66156 -10.125,-6.53125 -7.80957,-7.08294 -9.60437,-22.65701 0,-33.71875 12.11313,-13.95114 32.28728,-12.9672 41.125,4.5625 3.44461,6.83241 3.27638,13.62029 1.875,19.1875 13.39307,-12.0697 21.11575,-30.17998 23.34375,-35.96875 -6.75323,-34.80471 -15.41191,-66.54181 -22.8125,-78.78125 z m -27.34375,57.1875 32.40625,0 0,21.625 -34.3125,-14.625 1.90625,-7 z m 56.46875,57.4375 -3.40625,5.84375 c 0,0 1.13341,0.22548 4.53125,3.8125 -0.55189,-4.22228 -0.47936,-5.34239 -1.125,-9.65625 z m -127.59375,36.9375 c -3.82692,14.60077 -7.29957,25.8111 -12.125,37.1875 0,0 118.20127,3.81303 143.625,1.90625 1.094,-6.6734 1.33188,-15.92589 0.875,-26.75 -3.41865,6.9398 -19.39194,11.44247 -30.375,10.09375 -10.98305,-1.34872 -19.73252,-5.29743 -25.0625,-11.625 -6.67828,1.98693 -26.01483,5.34481 -47.625,1.53125 -10.24955,-1.80874 -22.42094,-7.18363 -29.3125,-12.34375 z"
         style="fill:#000000;stroke:#000000;stroke-width:1px;stroke-linecap:butt;stroke-linejoin:miter;stroke-opacity:1" /><path
         sodipodi:nodetypes="ccccc"
         inkscape:connector-curvature="0"
         id="path3570"
         d="m 198.97924,141.2493 5.30945,22.6247 c 0,0 31.20795,-7.81328 46.0326,-18.77921 -2.25377,-7.37046 -3.05674,-13.73068 -9.76523,-19.76726 -12.5511,10.36769 -41.57682,15.92177 -41.57682,15.92177 z"
         style="fill:#000000;fill-opacity:1;stroke:#000000;stroke-width:1px;stroke-linecap:butt;stroke-linejoin:miter;stroke-opacity:1" /><circle
         id="path3581"
         style="fill:#000000;fill-opacity:1;stroke:none"
         cx="249.09784"
         cy="250.45404"
         r="5.9549775" /><circle
         transform="translate(0.89886456,-1.573013)"
         id="path3583"
         style="fill:#000000;fill-opacity:1;stroke:none"
         cx="201.68274"
         cy="258.54382"
         r="6.4044099" /><path
         sodipodi:nodetypes="cccczcccssczcczc"
         inkscape:connector-curvature="0"
         id="path3585"
         d="m 269.0191,273.52133 13.22437,20.41529 8.98865,-7.19092 -14.91539,-19.67299 c 0,0 4.47364,-5.24392 10.22127,-12.76793 5.74763,-7.524 9.21859,-17.31127 10.89088,-20.16799 1.31284,1.03456 4.27887,4.06847 6.54095,6.00225 -1.55809,5.52925 -8.52085,16.11646 -11.14542,19.72183 4.43814,4.88757 12.34011,15.42431 12.34011,20.14335 0,9.43807 -6.41311,20.44424 -18.76711,23.00283 -22.75359,4.71242 -31.0155,-10.73185 -31.0155,-10.73185 0,0 -26.40552,5.44304 -38.09076,4.9936 -11.68524,-0.44943 -33.43011,-9.64682 -46.31217,-17.27394 1.43476,-3.49109 5.1346,-7.66294 5.1346,-7.66294 0,0 21.07194,13.16275 40.96221,15.76208 19.89027,2.59933 39.96441,-6.52017 51.94331,-14.57267 z"
         style="fill:#000000;stroke:#000000;stroke-width:1px;stroke-linecap:butt;stroke-linejoin:miter;stroke-opacity:1" /></g></g></svg>