<?xml version="1.0" encoding="UTF-8" standalone="no"?>
<!-- Created with Inkscape (http://www.inkscape.org/) -->

<svg
   xmlns:dc="http://purl.org/dc/elements/1.1/"
   xmlns:cc="http://creativecommons.org/ns#"
   xmlns:rdf="http://www.w3.org/1999/02/22-rdf-syntax-ns#"
   xmlns:svg="http://www.w3.org/2000/svg"
   xmlns="http://www.w3.org/2000/svg"
   xmlns:sodipodi="http://sodipodi.sourceforge.net/DTD/sodipodi-0.dtd"
   xmlns:inkscape="http://www.inkscape.org/namespaces/inkscape"
   width="256"
   height="256"
   id="svg2"
   version="1.1"
   inkscape:version="0.48.3.1 r9886"
   sodipodi:docname="network-server.svg">
  <defs
     id="defs4">
    <style
       id="style2991"
       type="text/css">
   
    .str3 {stroke:#1F1A17;stroke-width:1.05469}
    .str1 {stroke:#72706F;stroke-width:2.44157}
    .str2 {stroke:#1F1A17;stroke-width:2.76822}
    .str0 {stroke:#72706F;stroke-width:4.15233}
    .fil3 {fill:none}
    .fil1 {fill:#00923F}
    .fil2 {fill:#1F1A17}
    .fil0 {fill:#B8DB7C}
   
  </style>
    <style
       id="style3081"
       type="text/css">
   
    .str1 {stroke:#1F1A17;stroke-width:2.76822}
    .str0 {stroke:#72706F;stroke-width:4.15233}
    .fil1 {fill:none}
    .fil3 {fill:#00923F}
    .fil2 {fill:#1F1A17}
    .fil0 {fill:#B8DB7C}
   
  </style>
    <style
       id="style3135"
       type="text/css">
   
    .str1 {stroke:#1F1A17;stroke-width:2.76822}
    .str0 {stroke:#72706F;stroke-width:4.15233}
    .fil1 {fill:none}
    .fil3 {fill:#00923F}
    .fil2 {fill:#1F1A17}
    .fil0 {fill:#B8DB7C}
   
  </style>
    <style
       id="style3203"
       type="text/css">
   
    .str1 {stroke:#1F1A17;stroke-width:1.38411}
    .str2 {stroke:#1F1A17;stroke-width:2.76822}
    .str0 {stroke:#72706F;stroke-width:4.15233}
    .str4 {stroke:#1F1A17;stroke-width:0.895518}
    .str3 {stroke:#72706F;stroke-width:1.34259}
    .fil2 {fill:none}
    .fil0 {fill:#00923F}
    .fil1 {fill:#1F1A17}
    .fil3 {fill:#B8DB7C}
    .fil5 {fill:#1F1A17;fill-rule:nonzero}
    .fil4 {fill:#72706F;fill-rule:nonzero}
    .fil6 {fill:#B8DB7C;fill-rule:nonzero}
   
  </style>
    <style
       id="style3319"
       type="text/css">
   
    .str1 {stroke:#1F1A17;stroke-width:1.38411}
    .str2 {stroke:#1F1A17;stroke-width:2.76822}
    .str0 {stroke:#72706F;stroke-width:4.15233}
    .str4 {stroke:#1F1A17;stroke-width:0.895518}
    .str3 {stroke:#72706F;stroke-width:1.34259}
    .fil2 {fill:none}
    .fil0 {fill:#00923F}
    .fil1 {fill:#1F1A17}
    .fil3 {fill:#B8DB7C}
    .fil5 {fill:#1F1A17;fill-rule:nonzero}
    .fil4 {fill:#72706F;fill-rule:nonzero}
    .fil6 {fill:#B8DB7C;fill-rule:nonzero}
   
  </style>
    <style
       id="style3435"
       type="text/css">
   
    .str1 {stroke:#1F1A17;stroke-width:2.76822}
    .str0 {stroke:#72706F;stroke-width:4.15233}
    .fil1 {fill:none}
    .fil3 {fill:#00923F}
    .fil2 {fill:#1F1A17}
    .fil0 {fill:#B8DB7C}
   
  </style>
    <style
       id="style3502"
       type="text/css">
   
    .str3 {stroke:#1F1A17;stroke-width:1.05469}
    .str1 {stroke:#72706F;stroke-width:2.44157}
    .str2 {stroke:#1F1A17;stroke-width:2.76822}
    .str0 {stroke:#72706F;stroke-width:4.15233}
    .fil3 {fill:none}
    .fil1 {fill:#00923F}
    .fil2 {fill:#1F1A17}
    .fil0 {fill:#B8DB7C}
   
  </style>
    <style
       id="style3592"
       type="text/css">
   
    .str1 {stroke:#1F1A17;stroke-width:2.76822}
    .str0 {stroke:#72706F;stroke-width:4.15233}
    .fil1 {fill:none}
    .fil3 {fill:#00923F}
    .fil2 {fill:#1F1A17}
    .fil0 {fill:#B8DB7C}
   
  </style>
    <style
       id="style3646"
       type="text/css">
   
    .str1 {stroke:#1F1A17;stroke-width:2.76822}
    .str0 {stroke:#72706F;stroke-width:4.15233}
    .fil1 {fill:none}
    .fil3 {fill:#00923F}
    .fil2 {fill:#1F1A17}
    .fil0 {fill:#B8DB7C}
   
  </style>
    <style
       id="style3714"
       type="text/css">
   
    .str3 {stroke:#1F1A17;stroke-width:1.05469}
    .str1 {stroke:#72706F;stroke-width:2.44157}
    .str2 {stroke:#1F1A17;stroke-width:2.76822}
    .str0 {stroke:#72706F;stroke-width:4.15233}
    .fil3 {fill:none}
    .fil1 {fill:#00923F}
    .fil2 {fill:#1F1A17}
    .fil0 {fill:#B8DB7C}
   
  </style>
    <style
       id="style3804"
       type="text/css">
   
    .str1 {stroke:#1F1A17;stroke-width:2.76822}
    .str0 {stroke:#72706F;stroke-width:4.15233}
    .fil1 {fill:none}
    .fil3 {fill:#00923F}
    .fil2 {fill:#1F1A17}
    .fil0 {fill:#B8DB7C}
   
  </style>
    <style
       id="style3858"
       type="text/css">
   
    .str1 {stroke:#1F1A17;stroke-width:2.76822}
    .str0 {stroke:#72706F;stroke-width:4.15233}
    .fil1 {fill:none}
    .fil3 {fill:#00923F}
    .fil2 {fill:#1F1A17}
    .fil0 {fill:#B8DB7C}
   
  </style>
    <style
       id="style3926"
       type="text/css">
   
    .str2 {stroke:#1F1A17;stroke-width:1.05469}
    .str3 {stroke:#1F1A17;stroke-width:1.38411}
    .str1 {stroke:#1F1A17;stroke-width:2.76822}
    .str0 {stroke:#72706F;stroke-width:4.15233}
    .fil0 {fill:none}
    .fil3 {fill:#00923F}
    .fil1 {fill:#1F1A17}
    .fil2 {fill:#B8DB7C}
   
  </style>
    <style
       id="style3998"
       type="text/css">
   
    .str1 {stroke:#1F1A17;stroke-width:2.76822}
    .str0 {stroke:#72706F;stroke-width:4.15233}
    .fil2 {fill:none}
    .fil3 {fill:#00923F}
    .fil1 {fill:#1F1A17}
    .fil0 {fill:#B8DB7C}
   
  </style>
    <style
       id="style4042"
       type="text/css">
   
    .str1 {stroke:#1F1A17;stroke-width:2.76822}
    .str0 {stroke:#72706F;stroke-width:4.15233}
    .fil2 {fill:none}
    .fil3 {fill:#00923F}
    .fil1 {fill:#1F1A17}
    .fil0 {fill:#B8DB7C}
   
  </style>
    <style
       id="style4086"
       type="text/css">
   
    .str1 {stroke:#1F1A17;stroke-width:2.34375}
    .str0 {stroke:#72706F;stroke-width:3.51563}
    .fil3 {fill:none}
    .fil2 {fill:#1F1A17}
    .fil0 {fill:#00923F;fill-rule:nonzero}
    .fil1 {fill:#B8DB7C;fill-rule:nonzero}
   
  </style>
    <style
       id="style4130"
       type="text/css">
   
    .str1 {stroke:#1F1A17;stroke-width:2.76822}
    .str0 {stroke:#72706F;stroke-width:4.15233}
    .fil2 {fill:none}
    .fil3 {fill:#00923F}
    .fil1 {fill:#1F1A17}
    .fil0 {fill:#B8DB7C}
   
  </style>
    <style
       id="style4181"
       type="text/css">
   
    .str1 {stroke:#1F1A17;stroke-width:2.76822}
    .str0 {stroke:#72706F;stroke-width:4.15233}
    .fil2 {fill:none}
    .fil3 {fill:#00923F}
    .fil1 {fill:#1F1A17}
    .fil0 {fill:#B8DB7C}
   
  </style>
    <style
       id="style4232"
       type="text/css">
   
    .str0 {stroke:#1F1A17;stroke-width:1.84225}
    .str1 {stroke:#72706F;stroke-width:2.76406}
    .fil3 {fill:none}
    .fil4 {fill:#00923F}
    .fil2 {fill:#1F1A17}
    .fil0 {fill:#B8DB7C}
    .fil1 {fill:#72706F;fill-rule:nonzero}
   
  </style>
    <style
       id="style4418"
       type="text/css">
   
    .str0 {stroke:#1F1A17;stroke-width:1.84225}
    .str1 {stroke:#72706F;stroke-width:2.76406}
    .fil3 {fill:none}
    .fil4 {fill:#00923F}
    .fil2 {fill:#1F1A17}
    .fil0 {fill:#B8DB7C}
    .fil1 {fill:#72706F;fill-rule:nonzero}
   
  </style>
    <style
       id="style4604"
       type="text/css">
   
    .str0 {stroke:#1F1A17;stroke-width:1.84225}
    .str1 {stroke:#72706F;stroke-width:2.76406}
    .fil3 {fill:none}
    .fil4 {fill:#00923F}
    .fil2 {fill:#1F1A17}
    .fil0 {fill:#B8DB7C}
    .fil1 {fill:#72706F;fill-rule:nonzero}
   
  </style>
    <style
       id="style4790"
       type="text/css">
   
    .str0 {stroke:#1F1A17;stroke-width:1.84225}
    .str1 {stroke:#72706F;stroke-width:2.76406}
    .fil3 {fill:none}
    .fil4 {fill:#00923F}
    .fil2 {fill:#1F1A17}
    .fil0 {fill:#B8DB7C}
    .fil1 {fill:#72706F;fill-rule:nonzero}
   
  </style>
  </defs>
  <sodipodi:namedview
     id="base"
     pagecolor="#ffffff"
     bordercolor="#666666"
     borderopacity="1.0"
     inkscape:pageopacity="0.0"
     inkscape:pageshadow="2"
     inkscape:zoom="1.283147"
     inkscape:cx="410.35056"
     inkscape:cy="-1.1757896"
     inkscape:document-units="px"
     inkscape:current-layer="layer1"
     showgrid="false"
     showguides="true"
     inkscape:guide-bbox="true"
     inkscape:window-width="1920"
     inkscape:window-height="1050"
     inkscape:window-x="-4"
     inkscape:window-y="-4"
     inkscape:window-maximized="1" />
  <metadata
     id="metadata7">
    <rdf:RDF>
      <cc:Work
         rdf:about="">
        <dc:format>image/svg+xml</dc:format>
        <dc:type
           rdf:resource="http://purl.org/dc/dcmitype/StillImage" />
        <dc:title />
      </cc:Work>
    </rdf:RDF>
  </metadata>
  <g
     inkscape:label="Capa 1"
     inkscape:groupmode="layer"
     id="layer1"
     transform="translate(0,-796.36218)">
    <g
       style="fill-rule:evenodd"
       id="g4351"
       transform="matrix(0.88716097,0,0,0.88716097,-3.9704036,784.25254)">
      <g
         id="Capa_x0020_1">
        <metadata
           id="CorelCorpID_0Corel-Layer" />
        <g
           id="_67733472">
          <g
             id="g4237">
            <path
               d="m 31.3584,32.0504 96.8668,-0.283742 c 12.3892,-0.03599 22.572,6.42088 22.6288,14.3463 l 0.46368,64.860702 c 0.0567,7.92956 -10.0334,14.4446 -22.4239,14.4805 l -96.865504,0.28236 c -12.3892,0.0374 -22.5734,-6.4195 -22.6302,-14.3477 L 8.935784,46.529516 c -0.056748,-7.92679 10.0334,-14.4432 22.4226,-14.4792 z"
               class="fil0"
               id="_67754416"
               inkscape:connector-curvature="0"
               style="fill:#b8db7c" />
            <path
               d="m 128.225,30.3909 0,2.75161 -96.8668,0.283742 0,-2.75161 96.8668,-0.283742 0,0 z m 24.006,15.7166 -2.75438,0.01107 0,0 -0.0346,-0.625617 -0.0761,-0.620081 -0.12734,-0.615928 -0.17716,-0.610392 -0.22008,-0.599319 -0.27128,-0.593783 -0.31696,-0.586862 -0.36125,-0.577173 -0.40832,-0.567485 -0.44983,-0.555028 -0.49966,-0.546723 -0.53842,-0.53565 -0.58548,-0.514888 -0.62008,-0.498279 -0.66299,-0.489974 -0.70174,-0.460908 -0.73358,-0.448451 -0.77233,-0.424921 -0.80694,-0.398623 -0.83738,-0.38063 -0.87476,-0.355716 -0.8969,-0.323881 -0.92459,-0.305888 -0.95503,-0.271285 -0.9758,-0.244987 -1.00348,-0.213153 -1.02562,-0.185471 -1.03947,-0.153636 -1.06438,-0.120417 -1.07684,-0.08305 -1.09621,-0.0526 -1.11698,-0.01523 0,-2.75161 1.19172,0.01523 1.1848,0.0526 1.17372,0.09412 1.15019,0.128722 1.13635,0.164709 1.11144,0.196543 1.08929,0.235298 1.07268,0.267133 1.04362,0.304504 1.02147,0.325266 0.99379,0.368173 0.96057,0.388935 0.93427,0.422153 0.90383,0.453988 0.86922,0.477517 0.84154,0.503816 0.79863,0.53565 0.76264,0.553643 0.72804,0.586862 0.68237,0.611776 0.64638,0.632538 0.59655,0.654683 0.55779,0.685134 0.5052,0.705895 0.45814,0.729425 0.40278,0.747419 0.34879,0.76818 0.29482,0.793094 0.22976,0.804167 0.17163,0.820776 0.10935,0.836002 0.0346,0.852611 0,0 z m -2.2907,64.8718 0,0 -0.46368,-64.8607 2.75438,-0.01107 0.46368,64.8607 -2.75438,0.0111 z m -21.0468,15.8508 0,-2.75161 0,0 1.1059,-0.0221 1.0976,-0.0595 1.07822,-0.09 1.05746,-0.12595 1.04362,-0.15918 1.01732,-0.18685 1.00071,-0.22007 0.97718,-0.25053 0.94673,-0.28097 0.91905,-0.30727 0.8969,-0.33496 0.86369,-0.35571 0.83184,-0.38479 0.80002,-0.40416 0.7668,-0.42907 0.73219,-0.4526 0.68928,-0.46645 0.65746,-0.48859 0.61177,-0.50381 0.57718,-0.5232 0.53011,-0.53288 0.48997,-0.54672 0.44015,-0.56333 0.40001,-0.56887 0.3571,-0.57856 0.30727,-0.58409 0.26298,-0.59794 0.209,-0.59932 0.16748,-0.60624 0.11626,-0.61731 0.072,-0.62147 0.0235,-0.63669 2.75438,-0.0111 -0.0235,0.84154 -0.0941,0.83739 -0.16056,0.82216 -0.22007,0.81108 -0.28651,0.79587 -0.33773,0.76956 -0.39308,0.75572 -0.44292,0.73081 -0.49689,0.71005 -0.54811,0.68237 -0.58963,0.66298 -0.63807,0.64085 -0.67406,0.61177 -0.71974,0.58963 -0.75434,0.56333 -0.79725,0.54119 -0.82908,0.50797 -0.86368,0.48167 -0.8969,0.45952 -0.92874,0.42631 -0.96057,0.4 -0.98272,0.36818 -1.0187,0.33772 -1.04362,0.30312 -1.063,0.27267 -1.08653,0.24222 -1.11421,0.209 -1.12943,0.17024 -1.15435,0.13426 -1.1668,0.10104 -1.18341,0.0595 -1.20279,0.0221 0,0 z m -96.8655,-2.46925 0,0 96.8655,-0.28236 0,2.75161 -96.8655,0.28236 0,-2.75161 z m -24.0074,-12.9663 2.75438,-0.0111 0,0 0.0346,0.62561 0.07613,0.62147 0.127338,0.61593 0.177166,0.61039 0.220073,0.59793 0.271285,0.59517 0.316961,0.58686 0.361252,0.57718 0.409696,0.56748 0.453988,0.55503 0.495511,0.54811 0.537034,0.53426 0.585478,0.51489 0.620081,0.5052 0.662988,0.48444 0.703127,0.46091 0.732193,0.44845 0.773717,0.42492 0.805551,0.39862 0.83877,0.37925 0.873373,0.3571 0.898286,0.32249 0.924585,0.30728 0.955035,0.2699 0.975797,0.24498 1.00348,0.21316 1.02562,0.18685 1.03947,0.15225 1.06438,0.12042 1.07684,0.0831 1.09621,0.0526 1.11698,0.0152 0,2.75161 -1.19172,-0.0152 -1.1848,-0.0526 -1.17372,-0.0941 -1.15019,-0.12872 -1.13635,-0.16333 -1.11144,-0.19793 -1.08929,-0.23529 -1.07268,-0.26714 -1.04362,-0.30312 -1.02147,-0.32665 -0.995174,-0.36679 -0.959187,-0.39032 -0.935657,-0.42076 -0.902439,-0.45399 -0.870604,-0.47752 -0.840154,-0.50382 -0.800015,-0.53565 -0.762644,-0.55918 -0.728041,-0.58271 -0.682366,-0.61177 -0.644995,-0.63116 -0.603471,-0.65606 -0.550875,-0.68514 -0.506584,-0.70589 -0.4581403,-0.72943 -0.402776,-0.74742 -0.348795,-0.76956 -0.294815,-0.79171 -0.229762,-0.80417 -0.171629,-0.82077 -0.109345,-0.83739 -0.034603,-0.85261 0,0 z m 2.29208,-64.8704 0,0 0.462292,64.8593 -2.75438,0.0111 L 7.5583,46.535223 10.31268,46.52415 z m 21.0454,-15.8494 0,2.75161 0,0 -1.1059,0.02215 -1.09621,0.05952 -1.0796,0.08997 -1.05746,0.125954 -1.04223,0.159172 -1.01732,0.186855 -1.00071,0.220073 -0.977181,0.250524 -0.94673,0.282358 -0.919048,0.305888 -0.898286,0.334954 -0.8623,0.355716 -0.831849,0.384782 -0.801399,0.40416 -0.765412,0.430458 -0.732193,0.452604 -0.689286,0.46506 -0.657452,0.488591 -0.611776,0.503816 -0.577173,0.523192 -0.530114,0.532883 -0.489974,0.546723 -0.440147,0.563332 -0.400007,0.568869 -0.3571,0.578557 -0.307272,0.584094 -0.262981,0.597935 -0.209,0.597935 -0.167477,0.60624 -0.116265,0.617312 -0.07197,0.621465 -0.02353,0.63669 -2.7543804,0.01107 0.02353,-0.841538 0.094119,-0.837386 0.160557,-0.822161 0.220073,-0.811088 0.28651,-0.794478 0.337722,-0.769564 0.393087,-0.755723 0.442915,-0.730809 0.4968954,-0.710048 0.548107,-0.682366 0.58963,-0.662988 0.638074,-0.640842 0.674061,-0.611776 0.719736,-0.58963 0.754339,-0.563332 0.797247,-0.539802 0.829081,-0.507968 0.8623,-0.483054 0.898286,-0.459524 0.928737,-0.426305 0.959187,-0.400007 0.984101,-0.368173 1.0187,-0.336338 1.04362,-0.304504 1.063,-0.272669 1.08653,-0.242219 1.11421,-0.209 1.12805,-0.170245 1.15435,-0.134259 1.16819,-0.10104 1.18203,-0.05952 1.20279,-0.02215 0,0 z"
               class="fil1"
               id="_677544161"
               inkscape:connector-curvature="0"
               style="fill:#72706f;fill-rule:nonzero" />
          </g>
          <g
             id="_67755776">
            <path
               d="m 151.254,65.7313 1.99035,26.0808 c -0.37509,11.5919 0.19793,28.8877 -13.9435,32.5445 -4.79317,1.23878 -9.7289,1.88239 -14.6785,1.95298 l -48.9573,-0.81386 -0.0069,-0.30173 48.8992,-2.54953 c 6.11776,-0.38617 12.9483,-0.98964 18.2785,-4.3987 7.67627,-4.91359 7.09632,-19.337402 7.74547,-26.570702 l 0.67268,-25.9437 z"
               class="fil2 str0"
               id="_68398000"
               inkscape:connector-curvature="0"
               style="fill:#1f1a17;stroke:#1f1a17;stroke-width:1.84224999" />
          </g>
          <path
             id="path4243"
             d="m 151.253,65.7327 c 1.95713,8.10257 0.9578,44.4243 -3.47273,50.5061 -4.10803,5.63886 -12.529,8.04859 -23.1907,8.23821 l -48.9282,0.86784"
             class="fil3"
             inkscape:connector-curvature="0"
             style="fill:none" />
          <g
             id="_68352328">
            <path
               d="m 71.7467,31.8733 c -17.5574,0.653299 -38.6014,-1.7329 -54.0979,8.33925 -4.10527,2.66441 -5.8091,8.19392 -6.22295,12.7366 l -0.703127,20.8682 -1.46716,14.4861 -0.275438,0 -0.58271,-28.5071 c -0.089967,-7.17937 -0.809704,-15.0646 4.62846,-20.7173 5.69699,-5.9226 13.9269,-7.82575 21.8426,-8.63822 12.4777,-1.28307 24.4724,0.287895 36.8782,1.43255 z"
               class="fil2 str0"
               id="_68228656"
               inkscape:connector-curvature="0"
               style="fill:#1f1a17;stroke:#1f1a17;stroke-width:1.84224999" />
          </g>
          <path
             id="path4247"
             d="m 71.7467,31.8746 c -8.61192,0 -18.8128,-1.04915 -27.4012,-0.578557 -26.813,1.46577 -36.2969,8.6576 -34.4449,28.359 0.3571,3.79661 -0.783405,24.3077 -0.783405,28.6483"
             class="fil3"
             inkscape:connector-curvature="0"
             style="fill:none" />
          <g
             id="g4249">
            <path
               id="path4251"
               d="M 106.158,56.8398 53.4636,56.686164 c -6.74061,-0.01938 -12.2798,3.49072 -12.3116,7.8036 l -0.251908,35.2837 c -0.02907,4.311496 5.45892,7.857576 12.1995,7.878346 l 52.694398,0.15226 c 6.74061,0.0208 12.2798,-3.49349 12.3089,-7.804994 l 0.25329,-35.2823 c 0.0305,-4.31288 -5.45892,-7.85758 -12.1981,-7.87696 z"
               class="fil4"
               inkscape:connector-curvature="0"
               style="fill:#00923f" />
            <path
               d="m 53.464,55.309 0,0 52.6944,0.153636 0,2.75438 -52.6944,-0.153636 0,-2.75438 z m -13.6888,9.17526 0,0 0.01938,-0.514888 0.06644,-0.5052 0.103808,-0.492743 0.137027,-0.48167 0.177166,-0.476133 0.207616,-0.463676 0.239451,-0.442915 0.271285,-0.424921 0.296199,-0.418001 0.328034,-0.400007 0.347411,-0.382014 0.375093,-0.370941 0.394471,-0.350179 0.419385,-0.33357 0.437378,-0.32665 0.45814,-0.30312 0.48167,-0.28651 0.495511,-0.271285 0.513504,-0.260212 0.530114,-0.239451 0.542571,-0.218689 0.563332,-0.209 0.577173,-0.184086 0.588246,-0.170245 0.604855,-0.150868 0.61316,-0.132874 0.624233,-0.109345 0.640842,-0.09273 0.644995,-0.07197 0.656067,-0.05398 0.668524,-0.02907 0.665756,-0.0083 0,2.75438 -0.591014,0.0083 -0.571637,0.02907 -0.567485,0.04291 -0.55918,0.0609 -0.543955,0.08166 -0.538418,0.09827 -0.527345,0.110729 -0.507968,0.128722 -0.499663,0.139795 -0.480286,0.161941 -0.466445,0.164709 -0.456756,0.188239 -0.433226,0.195159 -0.416617,0.204848 -0.398623,0.218689 -0.373709,0.231146 -0.358484,0.239451 -0.340491,0.240835 -0.311424,0.258828 -0.297583,0.261597 -0.267133,0.262981 -0.250524,0.274054 -0.220073,0.272669 -0.199312,0.276822 -0.174398,0.283742 -0.153636,0.282358 -0.130106,0.278206 -0.102424,0.282358 -0.08443,0.287895 -0.05952,0.287895 -0.03322,0.289279 -0.01938,0.287895 0,0 -2.75438,-0.01107 z m -0.251908,35.2837 0,0 0.251908,-35.2837 2.75438,0.01107 -0.251908,35.2837 -2.75438,-0.01107 z m 13.5767,9.26107 0,0 -0.676829,-0.0125 -0.662988,-0.0318 -0.654683,-0.0581 -0.650531,-0.0761 -0.633922,-0.0955 -0.628385,-0.11904 -0.610392,-0.13702 -0.597935,-0.15364 -0.58963,-0.16886 -0.575789,-0.19101 -0.555028,-0.20761 -0.543955,-0.227 -0.528729,-0.2436 -0.509352,-0.26021 -0.492743,-0.27682 -0.471981,-0.2879 -0.45814,-0.31142 -0.433226,-0.32388 -0.418001,-0.3405 -0.388935,-0.35156 -0.370941,-0.37371 -0.341875,-0.38893 -0.322497,-0.39724 -0.293431,-0.41939 -0.260212,-0.43184 -0.233914,-0.4443 -0.206232,-0.46367 -0.167477,-0.47752 -0.13149,-0.48167 -0.09827,-0.49966 -0.05536,-0.5052 -0.01384,-0.503821 2.75438,0.01107 0.01384,0.298971 0.03322,0.28928 0.05398,0.28374 0.07889,0.2879 0.10104,0.28097 0.120417,0.28097 0.1481,0.28375 0.174398,0.27959 0.196543,0.2782 0.214537,0.27821 0.244987,0.2699 0.262981,0.26575 0.292047,0.26575 0.307272,0.25467 0.336338,0.24914 0.350179,0.23392 0.375093,0.23529 0.395855,0.22146 0.412464,0.20762 0.431842,0.19931 0.447067,0.18547 0.469213,0.1744 0.476133,0.15779 0.492743,0.14948 0.51212,0.13149 0.524577,0.11488 0.531498,0.0969 0.548107,0.0844 0.553643,0.065 0.5661,0.0471 0.577173,0.0318 0.579941,0.0124 0,0 0,2.75438 z m 52.694398,-2.60212 0,2.75438 -52.694398,-0.15225 0,-2.75438 52.694398,0.15225 0,0 z m 13.6861,-6.42226 0,0 -0.0194,0.51489 -0.0664,0.49966 -0.10243,0.49828 -0.13702,0.48721 -0.17855,0.46921 -0.20624,0.45814 -0.23945,0.44983 -0.27128,0.42492 -0.2962,0.41801 -0.3225,0.39447 -0.35156,0.38755 -0.37648,0.3654 -0.39309,0.3571 -0.42077,0.33772 -0.43599,0.31558 -0.45814,0.30866 -0.47613,0.28651 -0.50105,0.27267 -0.5135,0.25882 -0.5315,0.24084 -0.54119,0.2173 -0.56333,0.20485 -0.57717,0.18962 -0.58825,0.17025 -0.60485,0.15087 -0.61316,0.13287 -0.62424,0.11073 -0.64084,0.0914 -0.64499,0.0734 -0.66022,0.0526 -0.66438,0.0291 -0.66575,0.008 0,-2.75438 0.59101,-0.008 0.57579,-0.0291 0.56333,-0.0415 0.55918,-0.0623 0.54396,-0.0803 0.53842,-0.0997 0.52734,-0.11073 0.50797,-0.12872 0.49966,-0.13979 0.48029,-0.15641 0.46644,-0.17163 0.45538,-0.18685 0.43461,-0.19654 0.41661,-0.20347 0.39309,-0.22007 0.37925,-0.23115 0.35848,-0.23391 0.33911,-0.25191 0.31281,-0.25191 0.29619,-0.25744 0.26852,-0.26852 0.2436,-0.26851 0.22561,-0.27821 0.19932,-0.27682 0.17439,-0.28374 0.15364,-0.27821 0.12872,-0.28374 0.10381,-0.28651 0.0844,-0.28236 0.0581,-0.28236 0.0332,-0.29481 0.0194,-0.287898 0,0 2.75438,0.01107 z m 0.25329,-35.2823 0,0 -0.25329,35.2823 -2.75438,-0.01107 0.25329,-35.2823 2.75438,0.01107 z m -13.5753,-9.25969 0,0 0.67683,0.01246 0.66299,0.03184 0.65468,0.05675 0.65054,0.07751 0.63253,0.0955 0.62285,0.117649 0.61593,0.137027 0.59794,0.153636 0.58963,0.168861 0.57163,0.192391 0.56057,0.206232 0.54395,0.226994 0.52735,0.243603 0.51073,0.260212 0.49136,0.275438 0.47337,0.287895 0.45814,0.312809 0.43184,0.323881 0.418,0.340491 0.38893,0.351564 0.37095,0.372325 0.34187,0.388935 0.32388,0.398623 0.29205,0.418001 0.26021,0.433226 0.23391,0.444299 0.20208,0.463676 0.17163,0.476133 0.13288,0.483054 0.0969,0.499663 0.0554,0.5052 0.0138,0.503816 -2.75438,-0.01107 -0.0138,-0.298967 -0.0332,-0.289279 -0.0526,-0.283742 -0.0803,-0.289279 -0.0969,-0.27959 -0.12457,-0.280974 -0.1481,-0.283742 -0.1744,-0.280974 -0.19516,-0.276822 -0.21592,-0.27959 -0.24499,-0.269901 -0.26298,-0.264365 -0.29204,-0.265749 -0.30728,-0.254676 -0.33495,-0.24914 -0.35018,-0.235298 -0.37648,-0.235298 -0.39447,-0.220073 -0.41385,-0.207616 -0.43045,-0.199312 -0.44707,-0.185471 -0.46368,-0.173014 -0.48305,-0.159172 -0.49274,-0.149484 -0.51212,-0.13149 -0.51905,-0.114881 -0.53703,-0.0955 -0.54672,-0.08443 -0.55365,-0.06644 -0.5661,-0.04567 -0.57717,-0.03184 -0.57994,-0.01246 0,0 0,-2.75438 z"
               class="fil1"
               id="1"
               inkscape:connector-curvature="0"
               style="fill:#72706f;fill-rule:nonzero" />
          </g>
          <g
             id="g4254">
            <path
               id="path4256"
               d="m 40.9364,75.1626 -1.08237,14.1871 c 0.20208,6.306 -0.10796,15.7152 7.5863,17.7027 2.60489,0.67268 5.29006,1.02424 7.98215,1.063 l 26.633,-0.44153 0.0028,-0.16609 -26.5998,-1.38549 c -3.3274,-0.21039 -7.04373,-0.53981 -9.94344,-2.39451 -4.17724,-2.66995 -3.86028,-10.519204 -4.21323,-14.454204 l -0.365405,-14.111 z"
               class="fil2 str0"
               inkscape:connector-curvature="0"
               style="fill:#1f1a17;stroke:#1f1a17;stroke-width:1.84224999" />
          </g>
          <path
             id="path4258"
             d="m 40.9364,75.1626 c -1.06438,4.407 -0.520425,24.1665 1.88931,27.4746 2.23534,3.06857 6.81673,4.37932 12.6161,4.48174 l 26.6164,0.47198"
             class="fil3"
             inkscape:connector-curvature="0"
             style="fill:none" />
          <g
             id="g4260">
            <path
               id="path4262"
               d="m 84.187,56.7443 c 9.55173,0.354332 20.9997,-0.943962 29.4289,4.53434 2.23257,1.45193 3.15992,4.4596 3.38415,6.93023 l 0.3834,11.3525 0.79863,7.88111 0.14948,0 0.31696,-15.5089 c 0.0484,-3.90457 0.43877,-8.19392 -2.51908,-11.2694 -3.09902,-3.2222 -7.57523,-4.25752 -11.8798,-4.69905 -6.789046,-0.697591 -13.313696,0.15502 -20.062696,0.779253 z"
               class="fil2 str0"
               inkscape:connector-curvature="0"
               style="fill:#1f1a17;stroke:#1f1a17;stroke-width:1.84224999" />
          </g>
          <path
             id="path4264"
             d="m 84.187,56.7443 c 4.68521,0 10.2341,-0.570253 14.9055,-0.315577 14.5857,0.798631 19.7457,4.71012 18.7381,15.4273 -0.19377,2.06647 0.42631,13.2238 0.42631,15.5851"
             class="fil3"
             inkscape:connector-curvature="0"
             style="fill:none" />
          <rect
             id="rect4266"
             ry="21.615601"
             rx="21.615601"
             height="16.9806"
             width="106.735"
             y="126.531"
             x="25.298201"
             class="fil4 str1"
             style="fill:#00923f;stroke:#72706f;stroke-width:2.76406002" />
          <g
             id="g4268">
            <path
               id="path4270"
               d="m 32.7549,126.375 c -1.88654,0.87199 -4.06651,1.58204 -4.97725,3.63329 -1.94052,4.37101 1.06853,9.27491 5.3911,10.2286 8.99532,1.98481 18.0197,1.03116 27.1396,1.25262 l 48.5974,2.36129 -0.004,0.17993 -67.037902,0.7585 c -4.22707,-0.4014 -13.3027,-1.10729 -15.2293,-6.26724 -1.25677,-3.36892 -2.11492,-8.26313 1.14881,-10.814 1.56404,-1.22217 3.08656,-1.29829 4.97172,-1.3329 z"
               class="fil2 str0"
               inkscape:connector-curvature="0"
               style="fill:#1f1a17;stroke:#1f1a17;stroke-width:1.84224999" />
          </g>
          <path
             id="path4272"
             d="m 32.7535,126.376 c -8.39877,1.17096 -6.47071,8.14548 -5.03954,11.7109 2.48863,6.19804 24.7548,5.46446 32.5944,5.46446 15.6778,0 32.9169,0 48.5947,0.39032"
             class="fil3"
             inkscape:connector-curvature="0"
             style="fill:none" />
          <g
             id="g4274">
            <path
               id="path4276"
               d="m 167.759,173.614 96.8668,-0.28097 c 12.3892,-0.0374 22.5734,6.41811 22.6302,14.3463 l 0.46229,64.8607 c 0.0581,7.92679 -10.0334,14.4432 -22.4239,14.4792 l -96.8655,0.28235 c -12.3905,0.0374 -22.572,-6.4195 -22.6288,-14.3477 l -0.46367,-64.8607 c -0.0567,-7.92679 10.0334,-14.4418 22.4226,-14.4792 z"
               class="fil0"
               inkscape:connector-curvature="0"
               style="fill:#b8db7c" />
            <path
               d="m 264.626,174.709 0,0 -96.8668,0.28097 0,-2.75161 96.8668,-0.28097 0,2.75161 z m 24.0074,12.9649 -2.75438,0.0111 0,0 -0.0346,-0.62561 -0.0761,-0.62147 -0.12734,-0.61593 -0.17716,-0.61039 -0.22008,-0.59793 -0.27128,-0.59517 -0.31696,-0.58686 -0.36125,-0.57718 -0.4097,-0.56748 -0.44845,-0.55503 -0.50105,-0.54672 -0.53703,-0.53565 -0.58548,-0.51489 -0.62008,-0.49828 -0.66299,-0.48997 -0.70313,-0.4623 -0.73219,-0.44706 -0.77372,-0.42631 -0.80555,-0.39724 -0.83877,-0.38063 -0.87337,-0.35571 -0.89829,-0.32388 -0.92458,-0.30589 -0.95504,-0.2699 -0.97579,-0.24499 -1.00348,-0.21315 -1.02562,-0.18686 -1.03947,-0.15225 -1.06438,-0.12042 -1.07684,-0.083 -1.09621,-0.0526 -1.11698,-0.0152 0,-2.75161 1.19172,0.0152 1.1848,0.0526 1.17372,0.0941 1.15019,0.12872 1.13635,0.16332 1.11144,0.19793 1.08929,0.2353 1.07268,0.26713 1.04362,0.30312 1.02147,0.32527 0.99517,0.36817 0.95919,0.38894 0.93566,0.42215 0.90243,0.4526 0.87061,0.47891 0.84015,0.50243 0.80002,0.53703 0.76264,0.55364 0.72804,0.58687 0.68237,0.61177 0.64499,0.63254 0.59794,0.65468 0.55641,0.68514 0.50658,0.70589 0.45814,0.72943 0.40278,0.74742 0.3488,0.76956 0.29481,0.79171 0.22976,0.80417 0.17163,0.82077 0.10935,0.83739 0.0346,0.85261 0,0 z m -2.29208,64.8718 0,0 -0.46229,-64.8607 2.75438,-0.0111 0.46229,64.8607 -2.75438,0.0111 z m -21.0468,15.8494 0,-2.75161 0,0 1.1059,-0.0222 1.0976,-0.0595 1.07822,-0.09 1.05746,-0.12595 1.04362,-0.15918 1.01732,-0.18685 1.00071,-0.22007 0.97718,-0.25053 0.94673,-0.28236 0.91905,-0.30588 0.89828,-0.33496 0.8623,-0.35571 0.83324,-0.38479 0.80001,-0.40416 0.7668,-0.43045 0.73081,-0.45261 0.68928,-0.46506 0.65746,-0.48859 0.61316,-0.50381 0.57717,-0.5232 0.52873,-0.53288 0.48997,-0.54672 0.44015,-0.56333 0.40001,-0.56887 0.3571,-0.57856 0.30865,-0.58409 0.25606,-0.59794 0.21454,-0.59793 0.16748,-0.60624 0.11626,-0.61732 0.072,-0.62146 0.0235,-0.63669 2.75438,-0.0111 -0.0235,0.84153 -0.0941,0.83739 -0.16056,0.82216 -0.22007,0.81109 -0.28098,0.79448 -0.34187,0.76956 -0.39447,0.75572 -0.44292,0.73081 -0.49689,0.71005 -0.54811,0.68237 -0.58963,0.66299 -0.63669,0.64084 -0.67406,0.61177 -0.72112,0.58963 -0.75434,0.56334 -0.79725,0.5398 -0.8277,0.50797 -0.86368,0.48305 -0.8969,0.45952 -0.93012,0.42631 -0.95919,0.40001 -0.9841,0.36817 -1.0187,0.33634 -1.04362,0.3045 -1.063,0.27267 -1.08653,0.24222 -1.11421,0.209 -1.12943,0.17024 -1.15435,0.13426 -1.1668,0.10104 -1.18341,0.0595 -1.20279,0.0222 0,0 z m -96.8655,-2.46925 0,0 96.8655,-0.28236 0,2.75161 -96.8655,0.28236 0,-2.75161 z m -24.006,-12.9663 2.75438,-0.0111 0,0 0.0346,0.62561 0.0761,0.62147 0.12734,0.61593 0.17716,0.61039 0.22008,0.59793 0.27128,0.59517 0.31696,0.58686 0.36125,0.57718 0.40832,0.56748 0.45537,0.55503 0.49412,0.54811 0.53842,0.53426 0.5841,0.51489 0.62008,0.49966 0.66437,0.48998 0.70174,0.46091 0.7322,0.44845 0.77371,0.42492 0.80555,0.39862 0.83877,0.37925 0.87338,0.3571 0.89828,0.32249 0.92459,0.30728 0.95503,0.2699 0.97441,0.24498 1.00486,0.21316 1.02424,0.18685 1.04085,0.15225 1.06438,0.12042 1.07684,0.0831 1.09621,0.0526 1.11698,0.0152 0,2.75161 -1.19172,-0.0152 -1.1848,-0.0526 -1.17372,-0.0941 -1.15019,-0.12872 -1.13774,-0.16333 -1.11006,-0.19793 -1.09068,-0.2353 -1.0713,-0.26713 -1.04362,-0.30312 -1.02147,-0.32665 -0.99517,-0.36679 -0.95919,-0.39032 -0.93565,-0.42077 -0.90244,-0.45398 -0.87061,-0.47752 -0.84015,-0.50382 -0.79863,-0.53565 -0.76403,-0.55364 -0.72804,-0.58825 -0.68098,-0.61177 -0.64638,-0.63116 -0.60209,-0.65606 -0.55226,-0.68514 -0.5052,-0.70589 -0.45814,-0.72943 -0.40277,-0.74742 -0.3488,-0.76956 -0.29481,-0.79171 -0.22976,-0.80417 -0.17163,-0.82077 -0.10935,-0.83739 -0.0346,-0.85261 0,0 z m 2.2907,-64.8718 0,0 0.46368,64.8607 -2.75438,0.0111 -0.46368,-64.8607 2.75438,-0.0111 z m 21.0454,-15.8494 0,2.75161 0,0 -1.1059,0.0222 -1.09621,0.0595 -1.0796,0.09 -1.05746,0.12595 -1.04223,0.15918 -1.01732,0.18823 -1.00071,0.21869 -0.97718,0.25191 -0.94673,0.28098 -0.91905,0.30727 -0.89829,0.33357 -0.8623,0.3571 -0.83184,0.38478 -0.8014,0.40278 -0.76542,0.43045 -0.73219,0.45261 -0.68928,0.46644 -0.65746,0.48859 -0.61177,0.50382 -0.57718,0.52181 -0.53011,0.53288 -0.48997,0.54672 -0.44015,0.56333 -0.40001,0.56887 -0.3571,0.57856 -0.30727,0.58409 -0.26298,0.59794 -0.209,0.59793 -0.16748,0.60624 -0.11626,0.61732 -0.072,0.62146 -0.0235,0.63669 -2.75438,0.0111 0.0235,-0.84153 0.0941,-0.83739 0.16056,-0.82216 0.22007,-0.81109 0.28651,-0.79448 0.33773,-0.76956 0.39308,-0.75572 0.44292,-0.73081 0.49689,-0.71005 0.54811,-0.68237 0.58963,-0.66298 0.63807,-0.64085 0.67406,-0.61039 0.71974,-0.58963 0.75434,-0.56333 0.79725,-0.54119 0.82908,-0.50796 0.8623,-0.48306 0.89828,-0.45814 0.92874,-0.4263 0.95919,-0.40139 0.9841,-0.36679 1.0187,-0.33773 1.04362,-0.30312 1.063,-0.27405 1.08653,-0.24083 1.11421,-0.21039 1.12805,-0.17024 1.15435,-0.13426 1.16819,-0.10104 1.18203,-0.0595 1.20279,-0.0222 0,0 z"
               class="fil1"
               id="path4278"
               inkscape:connector-curvature="0"
               style="fill:#72706f;fill-rule:nonzero" />
          </g>
          <g
             id="g4280">
            <path
               id="path4282"
               d="m 287.657,207.297 1.98896,26.0808 c -0.37371,11.5919 0.19793,28.8877 -13.9435,32.5445 -4.79317,1.23739 -9.7289,1.881 -14.6785,1.95159 l -48.9573,-0.8097 -0.006,-0.30589 48.8978,-2.54814 c 6.11776,-0.38478 12.9483,-0.99102 18.2785,-4.3987 7.67765,-4.9122 7.09494,-19.3374 7.74547,-26.5693 l 0.67406,-25.9451 z"
               class="fil2 str0"
               inkscape:connector-curvature="0"
               style="fill:#1f1a17;stroke:#1f1a17;stroke-width:1.84224999" />
          </g>
          <path
             id="path4284"
             d="m 287.655,207.298 c 1.95713,8.10257 0.9578,44.4243 -3.47411,50.5061 -4.10803,5.63886 -12.529,8.04859 -23.1907,8.23821 l -48.9282,0.86784"
             class="fil3"
             inkscape:connector-curvature="0"
             style="fill:none" />
          <g
             id="g4286">
            <path
               id="path4288"
               d="m 208.148,173.44 c -17.5574,0.65191 -38.6014,-1.73429 -54.0979,8.33649 -4.10388,2.66579 -5.8091,8.19669 -6.22295,12.7366 l -0.70313,20.8696 -1.46716,14.4861 -0.27544,0 -0.58271,-28.5071 c -0.0886,-7.17937 -0.80831,-15.0633 4.62984,-20.7173 5.69561,-5.92122 13.9269,-7.82575 21.8412,-8.63961 12.4777,-1.28168 24.4724,0.28928 36.8782,1.43532 z"
               class="fil2 str0"
               inkscape:connector-curvature="0"
               style="fill:#1f1a17;stroke:#1f1a17;stroke-width:1.84224999" />
          </g>
          <path
             id="path4290"
             d="m 208.148,173.44 c -8.61192,0 -18.8114,-1.04915 -27.3998,-0.57856 -26.813,1.46577 -36.2982,8.6576 -34.4463,28.359 0.3571,3.79661 -0.78202,24.3077 -0.78202,28.6483"
             class="fil3"
             inkscape:connector-curvature="0"
             style="fill:none" />
          <g
             id="g4292">
            <path
               id="path4294"
               d="m 242.559,198.405 -52.6944,-0.15502 c -6.73922,-0.018 -12.2784,3.49349 -12.3116,7.80637 l -0.25052,35.2823 c -0.0305,4.31288 5.45754,7.8562 12.1981,7.87696 l 52.6944,0.15502 c 6.74061,0.018 12.2798,-3.49349 12.3103,-7.80637 l 0.2519,-35.2823 c 0.0305,-4.31288 -5.45892,-7.8562 -12.1981,-7.87696 z"
               class="fil4"
               inkscape:connector-curvature="0"
               style="fill:#00923f" />
            <path
               d="m 189.865,196.873 0,0 52.6944,0.15502 0,2.75438 -52.6944,-0.15502 0,-2.75438 z m -13.6888,9.17802 0,0 0.0194,-0.51489 0.0664,-0.5052 0.10381,-0.49274 0.13703,-0.48859 0.17855,-0.46921 0.20762,-0.45814 0.23806,-0.44292 0.27129,-0.43184 0.29758,-0.41662 0.32803,-0.4 0.34742,-0.38202 0.36955,-0.3654 0.39863,-0.3571 0.42076,-0.33773 0.43738,-0.32111 0.45814,-0.30312 0.47614,-0.28651 0.50104,-0.27267 0.51351,-0.25883 0.52457,-0.24083 0.54811,-0.21869 0.56195,-0.209 0.57856,-0.18409 0.58686,-0.17024 0.60624,-0.15087 0.61177,-0.13287 0.62424,-0.11073 0.64084,-0.0914 0.64499,-0.0734 0.65607,-0.054 0.66852,-0.0291 0.66576,-0.008 0,2.75438 -0.59101,0.008 -0.57164,0.0291 -0.56749,0.0429 -0.55918,0.0623 -0.54395,0.0803 -0.53842,0.0997 -0.52596,0.11072 -0.50935,0.12873 -0.49828,0.13979 -0.48167,0.16194 -0.46506,0.16471 -0.45122,0.18824 -0.43876,0.19654 -0.41662,0.20347 -0.39309,0.22007 -0.37924,0.23115 -0.35849,0.23945 -0.34049,0.24637 -0.31281,0.25191 -0.29066,0.25744 -0.27267,0.26852 -0.25052,0.27405 -0.22007,0.27267 -0.2007,0.27544 -0.1744,0.27959 -0.15225,0.28236 -0.13011,0.28374 -0.1038,0.28651 -0.0844,0.28374 -0.0595,0.2879 -0.0332,0.28927 -0.0194,0.2879 0,0 -2.75438,-0.0111 z m -0.25052,35.2823 0,0 0.25052,-35.2823 2.75438,0.0111 -0.25052,35.2823 -2.75438,-0.0111 z m 13.5753,9.25969 0,0 -0.67683,-0.0125 -0.66299,-0.0318 -0.65468,-0.0581 -0.65054,-0.0761 -0.63392,-0.0955 -0.62285,-0.11904 -0.61592,-0.1301 -0.59794,-0.15917 -0.58963,-0.16887 -0.57579,-0.19239 -0.55503,-0.20761 -0.54395,-0.227 -0.52873,-0.24222 -0.50935,-0.26159 -0.49136,-0.27544 -0.47337,-0.2879 -0.45814,-0.31142 -0.43322,-0.32388 -0.41662,-0.34049 -0.38893,-0.35157 -0.37233,-0.3737 -0.34187,-0.38755 -0.3225,-0.39863 -0.29205,-0.418 -0.26021,-0.43322 -0.23391,-0.4443 -0.20208,-0.46368 -0.17163,-0.47613 -0.13288,-0.48306 -0.0969,-0.49966 -0.0554,-0.5052 -0.0138,-0.50382 2.75438,0.0111 0.0138,0.29896 0.0332,0.28928 0.0526,0.28375 0.0803,0.28927 0.0969,0.27959 0.12457,0.28098 0.1481,0.28374 0.1744,0.28097 0.19516,0.27683 0.21454,0.27959 0.24498,0.26851 0.26437,0.26575 0.29204,0.26575 0.30589,0.25468 0.33634,0.24914 0.35018,0.23391 0.37648,0.2353 0.39447,0.22007 0.41246,0.209 0.43184,0.19793 0.44707,0.18547 0.46921,0.1744 0.47614,0.15917 0.49274,0.14949 0.51212,0.12595 0.51904,0.11903 0.53704,0.0969 0.5481,0.0844 0.55365,0.065 0.5661,0.0471 0.57717,0.0318 0.57994,0.0125 0,0 0,2.75438 z m 52.6944,0.15502 0,0 -52.6944,-0.15502 0,-2.75438 52.6944,0.15502 0,2.75438 z m 13.6874,-9.17802 0,0 -0.0194,0.51489 -0.0664,0.5052 -0.10381,0.49274 -0.13702,0.48305 -0.17717,0.47475 -0.20762,0.45814 -0.23806,0.44292 -0.27129,0.43184 -0.29758,0.41662 -0.3225,0.39447 -0.35156,0.38755 -0.37648,0.3654 -0.39309,0.3571 -0.42077,0.33773 -0.43599,0.31557 -0.45814,0.30866 -0.47613,0.28651 -0.50105,0.27267 -0.5135,0.25883 -0.52596,0.24083 -0.54673,0.21869 -0.56333,0.209 -0.57717,0.18409 -0.58825,0.17024 -0.60485,0.15087 -0.61316,0.13287 -0.62424,0.11073 -0.64084,0.0913 -0.64499,0.0734 -0.65607,0.054 -0.66852,0.0291 -0.66576,0.008 0,-2.75438 0.59101,-0.008 0.57164,-0.0291 0.56749,-0.0429 0.55918,-0.0623 0.54395,-0.0803 0.53842,-0.0997 0.52734,-0.11072 0.50797,-0.12873 0.49966,-0.13979 0.48029,-0.16194 0.46645,-0.16471 0.44983,-0.18824 0.44015,-0.19654 0.41661,-0.20347 0.39309,-0.22007 0.37925,-0.23115 0.35848,-0.23391 0.33911,-0.25191 0.31281,-0.25191 0.2962,-0.25744 0.26851,-0.26852 0.24361,-0.26851 0.22561,-0.27821 0.20069,-0.27544 0.1744,-0.27959 0.15225,-0.28236 0.13011,-0.28374 0.10242,-0.28097 0.0844,-0.28928 0.0595,-0.2879 0.0332,-0.28928 0.0194,-0.28789 0,0 2.75438,0.0111 z m 0.2519,-35.2823 0,0 -0.2519,35.2823 -2.75438,-0.0111 0.2519,-35.2823 2.75438,0.0111 z m -13.5753,-9.25969 0,0 0.67683,0.0125 0.66299,0.0318 0.65468,0.0581 0.65053,0.0761 0.63254,0.0955 0.62285,0.11904 0.61593,0.1301 0.59794,0.15917 0.58963,0.16887 0.57717,0.19239 0.55503,0.20761 0.54395,0.227 0.52735,0.24222 0.51073,0.26159 0.49136,0.27544 0.47337,0.2879 0.45814,0.31142 0.43184,0.32388 0.418,0.34049 0.38893,0.35157 0.37094,0.3737 0.34188,0.38202 0.32388,0.40416 0.29205,0.418 0.26021,0.43323 0.23391,0.44429 0.20208,0.46368 0.17163,0.47613 0.13288,0.48306 0.0969,0.49966 0.0554,0.5052 0.0138,0.50382 -2.75438,-0.0111 -0.0138,-0.29896 -0.0332,-0.28928 -0.0526,-0.28374 -0.0803,-0.28928 -0.0969,-0.27959 -0.12457,-0.28098 -0.1481,-0.28374 -0.1744,-0.28097 -0.19516,-0.27683 -0.21592,-0.27405 -0.24499,-0.27405 -0.26298,-0.26575 -0.29204,-0.26575 -0.30728,-0.25468 -0.33495,-0.24914 -0.35018,-0.23391 -0.37648,-0.2353 -0.39447,-0.22007 -0.41385,-0.209 -0.43045,-0.19793 -0.44707,-0.18547 -0.46921,-0.1744 -0.47752,-0.15917 -0.49274,-0.14949 -0.51212,-0.12595 -0.51905,-0.11903 -0.53703,-0.0969 -0.54672,-0.0844 -0.55365,-0.065 -0.5661,-0.0471 -0.57717,-0.0318 -0.57994,-0.0125 0,0 0,-2.75438 z"
               class="fil1"
               id="path4296"
               inkscape:connector-curvature="0"
               style="fill:#72706f;fill-rule:nonzero" />
          </g>
          <g
             id="g4298">
            <path
               id="path4300"
               d="m 177.338,216.728 -1.08237,14.1871 c 0.20485,6.30461 -0.10796,15.7138 7.58492,17.7027 2.60766,0.67406 5.29145,1.02424 7.98492,1.063 l 26.633,-0.44153 0.003,-0.16609 -26.5984,-1.38549 c -3.32878,-0.21039 -7.04511,-0.53981 -9.94482,-2.39312 -4.17724,-2.67133 -3.86028,-10.5206 -4.21461,-14.4542 l -0.36541,-14.1124 z"
               class="fil2 str0"
               inkscape:connector-curvature="0"
               style="fill:#1f1a17;stroke:#1f1a17;stroke-width:1.84224999" />
          </g>
          <path
             id="path4302"
             d="m 177.339,216.728 c -1.06576,4.407 -0.52181,24.1665 1.88931,27.4746 2.23395,3.06857 6.81535,4.37932 12.6148,4.48174 l 26.6164,0.47198"
             class="fil3"
             inkscape:connector-curvature="0"
             style="fill:none" />
          <g
             id="g4304">
            <path
               id="path4306"
               d="m 220.59,198.308 c 9.55035,0.35572 20.9983,-0.94119 29.4275,4.53572 2.23257,1.45055 3.1613,4.4596 3.38553,6.92885 l 0.38201,11.3538 0.79863,7.87973 0.15087,0 0.31558,-15.5076 c 0.0498,-3.90595 0.44015,-8.19392 -2.51908,-11.2694 -3.09625,-3.22082 -7.57523,-4.25752 -11.8798,-4.69905 -6.78905,-0.69897 -13.3137,0.1564 -20.0613,0.77787 z"
               class="fil2 str0"
               inkscape:connector-curvature="0"
               style="fill:#1f1a17;stroke:#1f1a17;stroke-width:1.84224999" />
          </g>
          <path
             id="path4308"
             d="m 220.59,198.31 c 4.68382,0 10.2327,-0.57025 14.9055,-0.31558 14.5857,0.79863 19.7457,4.71012 18.7381,15.4273 -0.19516,2.06647 0.42492,13.2238 0.42492,15.5851"
             class="fil3"
             inkscape:connector-curvature="0"
             style="fill:none" />
          <rect
             id="rect4310"
             ry="21.615601"
             rx="21.615601"
             height="16.9806"
             width="106.735"
             y="268.09698"
             x="161.7"
             class="fil4 str1"
             style="fill:#00923f;stroke:#72706f;stroke-width:2.76406002" />
          <g
             id="g4312">
            <path
               id="path4314"
               d="m 169.156,267.941 c -1.88654,0.87199 -4.06651,1.58065 -4.97725,3.6319 -1.94052,4.3724 1.06715,9.27491 5.39249,10.2286 8.99532,1.98481 18.0183,1.03116 27.1368,1.25262 l 48.6002,2.36267 -0.006,0.17993 -67.0379,0.75711 c -4.22707,-0.40278 -13.3027,-1.10867 -15.228,-6.26863 -1.25677,-3.36754 -2.1163,-8.26174 1.14881,-10.814 1.56266,-1.22078 3.08518,-1.29553 4.97033,-1.33013 z"
               class="fil2 str0"
               inkscape:connector-curvature="0"
               style="fill:#1f1a17;stroke:#1f1a17;stroke-width:1.84224999" />
          </g>
          <path
             id="path4316"
             d="m 169.156,267.941 c -8.39877,1.17096 -6.47209,8.14548 -5.03954,11.7109 2.48863,6.19804 24.7534,5.46446 32.593,5.46446 15.6778,0 32.9183,0 48.5961,0.39032"
             class="fil3"
             inkscape:connector-curvature="0"
             style="fill:none" />
          <path
             id="path4318"
             d="m 125.912,227.067 -17.5242,17.7374 -0.054,-11.5795 C 60.1322,231.41033 38.0723,205.0112 30.4057,157.1321 l 10.7213,-0.10796 c 0.532882,36.7785 17.9436,69.4919 66.4095,67.5528 l 0.63669,-15.0342 17.7387,17.5242 z"
             class="fil4 str1"
             inkscape:connector-curvature="0"
             style="fill:#00923f;stroke:#72706f;stroke-width:2.76406002" />
          <g
             id="g4320">
            <path
               id="path4322"
               d="m 30.3756,165.455 c 6.47209,19.9076 12.0805,39.0443 29.8469,51.947 13.34,9.68876 29.4331,11.7179 45.1455,14.9193 l 0,0.57856 c -10.3877,-0.22284 -20.7713,-0.12873 -30.9224,-2.34191 -16.3588,-3.56408 -28.5943,-14.5774 -36.092,-29.1549 -6.2797,-12.2092 -6.42088,-22.298 -7.978,-35.9481 z"
               class="fil2 str0"
               inkscape:connector-curvature="0"
               style="fill:#1f1a17;stroke:#1f1a17;stroke-width:1.84224999" />
          </g>
          <path
             id="path4324"
             d="m 30.3743,165.456 c 4.39178,28.1514 8.60362,31.4082 14.5041,40.9004 14.2563,22.9319 46.531,26.2538 60.4897,26.2552"
             class="fil3"
             inkscape:connector-curvature="0"
             style="fill:none" />
          <g
             id="g4326">
            <path
               id="path4328"
               d="m 106.1,224.442 -0.004,-0.0291 -0.25053,-1.93637 -1.29829,-10.331 c -0.17301,-1.75782 -2.40558,-12.1234 3.86305,-9.55589 3.19175,1.3066 5.89907,6.98836 7.69011,9.90053 l 10.6992,14.1594 -0.28651,0.36818 c -6.54407,-3.80353 -11.7248,-7.5254 -16.8321,-12.8044 l -0.48859,5.29698 -0.50935,3.08933 c -0.0581,0.31973 -0.77372,4.39039 -2.36129,3.30525 -0.54534,-0.3751 -0.40969,-0.94673 -0.22146,-1.463 z"
               class="fil2"
               inkscape:connector-curvature="0"
               style="fill:#1f1a17" />
          </g>
          <path
             id="path4330"
             d="m 106.214,224.141 c 1.71214,5.69699 0.95919,-11.848 0.84569,-18.6329 0.84707,1.69415 2.96199,3.81045 3.80768,5.08245 0.84569,1.27061 2.53846,2.54122 2.96061,3.81045 0,0 1.85609,2.20765 2.11492,2.54122 2.75991,3.55162 6.9067,6.92885 10.713,9.89222"
             class="fil3"
             inkscape:connector-curvature="0"
             style="fill:none" />
          <path
             id="path4332"
             d="m 173.607,90.0446 17.5228,-17.7374 0.054,11.5795 c 48.2016,1.81457 70.2615,28.2137 77.9281,76.0928 l -10.7199,0.10658 c -0.53427,-36.7771 -17.945,-69.490604 -66.4109,-67.551404 l -0.63669,15.034204 -17.7374,-17.524204 z"
             class="fil4 str1"
             inkscape:connector-curvature="0"
             style="fill:#00923f;stroke:#72706f;stroke-width:2.76406002" />
          <g
             id="g4334">
            <path
               id="path4336"
               d="M 269.144,151.657 C 262.67052,131.748 257.0621,112.6113 239.2985,99.7114 225.9557,90.02126 209.8627,87.9922 194.1503,84.7893 l 0,-0.578557 c 10.3877,0.221457 20.7699,0.13149 30.9238,2.34191 16.356,3.56546 28.5915,14.580197 36.0906,29.154897 6.2797,12.2106 6.42088,22.2994 7.97939,35.9495 z"
               class="fil2 str0"
               inkscape:connector-curvature="0"
               style="fill:#1f1a17;stroke:#1f1a17;stroke-width:1.84224999" />
          </g>
          <path
             id="path4338"
             d="M 269.144,151.655 C 264.75361,123.5036 260.54038,120.2468 254.6399,110.7546 240.385,87.8227 208.1089,84.5008 194.1502,84.4994"
             class="fil3"
             inkscape:connector-curvature="0"
             style="fill:none" />
          <g
             id="g4340">
            <path
               id="path4342"
               d="m 193.421,92.6675 0.004,0.03184 0.25053,1.93637 1.29553,10.3296 c 0.17301,1.75781 2.40558,12.12479 -3.86305,9.55727 -3.19037,-1.30798 -5.90045,-6.98975 -7.69149,-9.90053 l -10.6992,-14.159401 0.28928,-0.369557 c 6.54268,3.80353 11.7234,7.5254 16.8294,12.804398 l 0.49135,-5.295597 0.50936,-3.089331 c 0.0567,-0.319728 0.77371,-4.390389 2.35991,-3.30525 0.54672,0.37371 0.41246,0.945346 0.22422,1.46023 z"
               class="fil2"
               inkscape:connector-curvature="0"
               style="fill:#1f1a17" />
          </g>
          <path
             id="path4344"
             d="m 193.305,92.9692 c -1.71214,-5.69699 -0.95919,11.8494 -0.84569,18.6343 -0.84707,-1.69415 -2.96061,-3.81184 -3.80768,-5.08245 -0.84569,-1.27061 -2.53846,-2.54122 -2.96061,-3.81184 0,0 -1.85609,-2.20765 -2.11492,-2.53984 -2.75853,-3.55162 -6.9067,-6.92885 -10.713,-9.89222"
             class="fil3"
             inkscape:connector-curvature="0"
             style="fill:none" />
        </g>
      </g>
    </g>
  </g>
</svg>
