<?xml version="1.0" encoding="UTF-8" standalone="no"?>
<!-- Created with Inkscape (http://www.inkscape.org/) -->

<svg
   xmlns:dc="http://purl.org/dc/elements/1.1/"
   xmlns:cc="http://creativecommons.org/ns#"
   xmlns:rdf="http://www.w3.org/1999/02/22-rdf-syntax-ns#"
   xmlns:svg="http://www.w3.org/2000/svg"
   xmlns="http://www.w3.org/2000/svg"
   xmlns:sodipodi="http://sodipodi.sourceforge.net/DTD/sodipodi-0.dtd"
   xmlns:inkscape="http://www.inkscape.org/namespaces/inkscape"
   width="256"
   height="256"
   id="svg8370"
   version="1.1"
   inkscape:version="0.48.3.1 r9886"
   sodipodi:docname="huayra-menu-huayra.svg">
  <defs
     id="defs8372" />
  <sodipodi:namedview
     id="base"
     pagecolor="#ffffff"
     bordercolor="#666666"
     borderopacity="1.0"
     inkscape:pageopacity="0.0"
     inkscape:pageshadow="2"
     inkscape:zoom="1.5053282"
     inkscape:cx="258.89143"
     inkscape:cy="94.142338"
     inkscape:document-units="px"
     inkscape:current-layer="layer1"
     showgrid="false"
     inkscape:window-width="1438"
     inkscape:window-height="827"
     inkscape:window-x="0"
     inkscape:window-y="25"
     inkscape:window-maximized="1" />
  <metadata
     id="metadata8375">
    <rdf:RDF>
      <cc:Work
         rdf:about="">
        <dc:format>image/svg+xml</dc:format>
        <dc:type
           rdf:resource="http://purl.org/dc/dcmitype/StillImage" />
        <dc:title />
      </cc:Work>
    </rdf:RDF>
  </metadata>
  <g
     inkscape:label="Capa 1"
     inkscape:groupmode="layer"
     id="layer1"
     transform="translate(0,-796.36218)">
    <path
       style="fill:#000000;fill-opacity:1;fill-rule:evenodd;stroke:none"
       d="m 119.13352,981.71672 c 0.86178,11.30927 -6.11641,24.75448 -17.42573,25.61628 -11.30923,0.8618 -21.175791,-7.6076 -22.037557,-18.9168 -0.861775,-11.30927 7.575545,-22.16412 18.916907,-22.0376 6.23728,0.0692 16.94883,4.33335 20.35226,15.09142"
       id="path3582-0"
       inkscape:connector-curvature="0"
       sodipodi:nodetypes="csssc" />
    <path
       inkscape:connector-curvature="0"
       style="fill:#000000;fill-opacity:1;fill-rule:evenodd"
       d="m 143.9874,810.84099 c -1.26544,0.0435 -2.95728,3.23019 -4.99309,10.82829 -4.76483,17.78358 -13.54255,62.31756 -30.2425,96.32839 -2.73971,-0.11721 -5.51968,-0.0182 -8.32511,0.30712 -2.573364,-30.07655 -9.689136,-76.18069 -11.988807,-90.85226 -2.127325,-13.57612 -5.540276,-19.78333 -5.01159,-2.4182 0.52478,17.24005 -0.316389,62.46998 -0.492022,98.31309 -4.310223,2.01672 -8.616547,4.63419 -12.87573,7.90574 -10.58515,-22.25478 -28.64895,-52.80739 -36.14377,-63.37136 -7.952169,-11.20715 -13.573077,-16.75295 -7.116399,-0.62413 6.370134,15.91271 17.665831,43.74272 29.671238,76.98017 -2.4882,2.8854 -7.012838,3.96111 -9.418615,7.3868 -10.752428,-8.43724 -18.288038,-14.69189 -25.794585,-20.07403 -11.028764,-7.90757 -18.7888282,-8.92297 -8.192369,3.37802 9.877659,11.46669 16.917018,23.64429 38.561056,43.7556 l 3.162293,6.14516 c 0.628754,-1.64098 3.629051,-5.08978 5.5296,-9.65764 29.900231,-58.67442 96.39335,-9.05643 68.88536,32.31615 l 27.08613,9.5064 -0.01,0.03 c 22.28643,8.1997 52.09083,20.2685 65.71061,22.0937 10.14733,1.3598 18.23373,-0.1005 1.95698,-7.4843 -15.83059,-7.1816 -32.58985,-16.5692 -61.86059,-31.9431 0.9535,-3.12239 0.55849,-4.84938 1.00073,-7.98184 28.70041,-4.45073 65.63125,-14.83833 76.4865,-19.42087 12.66861,-5.3484 21.39052,-14.69809 -1.36066,-9.49414 -18.52622,4.23768 -46.17657,7.43971 -74.45692,8.69241 -0.64091,-3.6381 -2.10671,-7.20009 -3.33127,-10.65326 30.03888,-12.74873 68.86328,-33.76123 79.6285,-42.22016 11.50821,-9.04161 18.41348,-22.53159 -3.52117,-10.50525 -20.19724,11.07369 -49.19111,24.1081 -82.85493,34.90213 -1.09627,-1.45881 -2.30358,-2.6879 -3.5072,-4.04904 23.81626,-20.57106 51.34169,-53.25628 62.95874,-76.04522 6.64826,-13.0401 8.65734,-27.35158 -5.09221,-6.58479 -12.86085,19.42462 -44.0744,46.90811 -74.09395,69.10744 -2.29817,-1.31484 -2.84652,-1.256 -5.29299,-2.24737 15.43084,-29.27856 15.2346,-86.23969 15.34873,-100.17756 0.0698,-8.46157 1.72396,-12.23154 -0.0109,-12.17184 z"
       id="_121731384-7"
       sodipodi:nodetypes="cscccscccsccsscccccccccccscccscccsccccc" />
    <path
       inkscape:connector-curvature="0"
       style="fill:#b8db7c;fill-opacity:1;fill-rule:evenodd;stroke:#737373;stroke-width:2.1134789;stroke-miterlimit:4;stroke-opacity:1;stroke-dasharray:none"
       d="m 140.44331,809.2624 c -1.26544,0.0436 -2.95729,3.23019 -4.99309,10.82829 -4.76483,17.78358 -13.54254,62.31758 -30.24252,96.32839 -2.73969,-0.11722 -5.51965,-0.0182 -8.325082,0.30712 -2.573375,-30.07655 -8.228203,-75.57067 -10.527877,-90.24224 -2.127326,-13.57611 -7.00122,-20.39334 -6.472534,-3.02822 0.52478,17.24006 -0.316389,62.46998 -0.492013,98.31309 -4.310232,2.01673 -8.616548,4.63417 -12.875736,7.90573 -10.585151,-22.25477 -28.648945,-52.80738 -36.143764,-63.37135 -7.952176,-11.20715 -13.573078,-16.75294 -7.116401,-0.62412 6.370129,15.9127 17.665832,43.74272 29.671232,76.98016 -2.488193,2.88539 -4.941839,6.03213 -7.347615,9.45782 -10.752429,-8.43726 -20.876838,-14.17415 -28.383387,-19.55629 -11.0287621,-7.90759 -18.2710186,-11.51173 -7.674568,0.78925 9.877659,11.4667 16.917027,23.6443 38.561056,43.75562 l 5.111978,5.06574 c 0.628762,-1.64097 1.284359,-3.21778 1.964898,-4.73551 l 3.378185,-6.69709 c 31.495492,-55.54711 101.378078,-8.76189 72.941438,36.70191 l 21.26688,7.9751 -0.01,0.03 c 22.28642,8.1998 52.88537,18.7153 66.50514,20.5405 10.14735,1.3598 17.43918,1.4523 1.16242,-5.9311 -15.83058,-7.1816 -30.05186,-15.1592 -59.32259,-30.5331 0.95349,-3.12244 1.64481,-6.25935 2.08705,-9.39181 28.70042,-4.45076 62.00693,-14.83837 72.86219,-19.42088 12.66861,-5.3484 21.39052,-14.6981 -1.36067,-9.49415 -18.52622,4.23768 -43.58774,7.95746 -71.8681,9.21015 -0.64091,-3.63809 -1.58902,-7.20008 -2.81356,-10.65327 30.03887,-12.74871 66.36682,-36.10901 77.13203,-44.56797 11.50822,-9.04159 17.80342,-20.70151 -4.13122,-8.67516 -20.19724,11.07369 -49.19111,24.10809 -82.85492,34.90211 -1.09625,-1.45882 -2.24725,-2.87242 -3.45089,-4.23356 23.81626,-20.57106 51.28536,-53.07175 62.90242,-75.86069 6.64826,-13.04009 8.65734,-27.35157 -5.09222,-6.58479 -12.86082,19.42462 -44.07438,46.90811 -74.09391,69.10745 -2.29819,-1.31487 -4.67661,-2.47606 -7.12307,-3.46742 15.43083,-29.27856 19.65346,-82.94863 19.76759,-96.8865 0.0699,-8.46158 -0.86484,-14.30256 -2.59894,-14.24286 z"
       id="_121731384" />
    <path
       sodipodi:type="arc"
       style="fill:#00923f;fill-opacity:1;fill-rule:evenodd;stroke:none"
       id="path3582"
       sodipodi:cx="11.182829"
       sodipodi:cy="12.753372"
       sodipodi:rx="2.6694496"
       sodipodi:ry="2.6694496"
       d="m 13.844562,12.550547 a 2.6694496,2.6694496 0 1 1 -0.0051,-0.0581"
       transform="matrix(7.6931858,0,0,7.6931858,10.708895,890.69414)"
       sodipodi:start="6.2071318"
       sodipodi:end="12.46847"
       sodipodi:open="true" />
  </g>
</svg>
