<?xml version="1.0" encoding="UTF-8" standalone="no"?>
<!-- Created with Inkscape (http://www.inkscape.org/) -->

<svg
   xmlns:dc="http://purl.org/dc/elements/1.1/"
   xmlns:cc="http://creativecommons.org/ns#"
   xmlns:rdf="http://www.w3.org/1999/02/22-rdf-syntax-ns#"
   xmlns:svg="http://www.w3.org/2000/svg"
   xmlns="http://www.w3.org/2000/svg"
   xmlns:sodipodi="http://sodipodi.sourceforge.net/DTD/sodipodi-0.dtd"
   xmlns:inkscape="http://www.inkscape.org/namespaces/inkscape"
   width="256"
   height="256"
   id="svg4374"
   version="1.1"
   inkscape:version="0.48.3.1 r9886"
   sodipodi:docname="document-save-as.svg">
  <defs
     id="defs4376" />
  <sodipodi:namedview
     id="base"
     pagecolor="#ffffff"
     bordercolor="#666666"
     borderopacity="1.0"
     inkscape:pageopacity="0.0"
     inkscape:pageshadow="2"
     inkscape:zoom="1.7124294"
     inkscape:cx="154.9802"
     inkscape:cy="121.93005"
     inkscape:document-units="px"
     inkscape:current-layer="layer1"
     showgrid="false"
     inkscape:window-width="1434"
     inkscape:window-height="850"
     inkscape:window-x="0"
     inkscape:window-y="26"
     inkscape:window-maximized="1" />
  <metadata
     id="metadata4379">
    <rdf:RDF>
      <cc:Work
         rdf:about="">
        <dc:format>image/svg+xml</dc:format>
        <dc:type
           rdf:resource="http://purl.org/dc/dcmitype/StillImage" />
        <dc:title />
      </cc:Work>
    </rdf:RDF>
  </metadata>
  <g
     inkscape:label="Capa 1"
     inkscape:groupmode="layer"
     id="layer1"
     transform="translate(0,-796.36218)">
    <g
       id="g5837"
       transform="matrix(16.299902,0,0,16.299902,-5.8944639,801.93245)"
       style="fill:#666666;fill-opacity:1">
      <g
         transform="translate(-101.0002,-647)"
         inkscape:label="status"
         style="display:inline;fill:#666666;fill-opacity:1"
         id="layer9" />
      <g
         transform="translate(-101.0002,-647)"
         inkscape:label="devices"
         id="layer10"
         style="fill:#666666;fill-opacity:1" />
      <g
         transform="translate(-101.0002,-647)"
         inkscape:label="apps"
         id="layer11"
         style="fill:#666666;fill-opacity:1" />
      <g
         transform="translate(-101.0002,-647)"
         inkscape:label="places"
         id="layer13"
         style="fill:#666666;fill-opacity:1" />
      <g
         transform="translate(-101.0002,-647)"
         inkscape:label="mimetypes"
         id="layer14"
         style="fill:#666666;fill-opacity:1" />
      <g
         transform="translate(-101.0002,-647)"
         inkscape:label="emblems"
         style="display:inline;fill:#666666;fill-opacity:1"
         id="layer15" />
      <g
         transform="translate(-101.0002,-647)"
         inkscape:label="emotes"
         id="g71291"
         style="display:inline;fill:#666666;fill-opacity:1" />
      <g
         transform="translate(-101.0002,-647)"
         inkscape:label="categories"
         id="g4953"
         style="display:inline;fill:#666666;fill-opacity:1" />
      <g
         transform="translate(-101.0002,-647)"
         inkscape:label="actions"
         style="display:inline;fill:#666666;fill-opacity:1"
         id="layer12">
        <path
           inkscape:connector-curvature="0"
           id="path3613-6"
           d="m 105.0002,652 0,1 c 10e-6,0.2653 0.0931,0.53058 0.28125,0.71875 l 3,3 0.28125,0.28125 0.875,0 0.28125,-0.28125 3,-3 c 0.18819,-0.18817 0.28124,-0.45345 0.28125,-0.71875 l 0,-1 -1,0 c -0.2653,10e-6 -0.53059,0.0931 -0.71875,0.28125 l -2.28125,2.28125 -2.28125,-2.28125 C 106.53079,652.0931 106.2655,652.00001 106.0002,652 l -1,0 z"
           style="font-size:medium;font-style:normal;font-variant:normal;font-weight:normal;font-stretch:normal;text-indent:0;text-align:start;text-decoration:none;line-height:normal;letter-spacing:normal;word-spacing:normal;text-transform:none;direction:ltr;block-progression:tb;writing-mode:lr-tb;text-anchor:start;color:#000000;fill:#666666;fill-opacity:1;stroke:none;stroke-width:2;marker:none;visibility:visible;display:inline;overflow:visible;enable-background:accumulate;font-family:Bitstream Vera Sans;-inkscape-font-specification:Bitstream Vera Sans" />
        <path
           inkscape:connector-curvature="0"
           id="path4388-5"
           d="m 108,650 0,5 2,0 0,-5 -2,0 z"
           style="font-size:medium;font-style:normal;font-variant:normal;font-weight:normal;font-stretch:normal;text-indent:0;text-align:start;text-decoration:none;line-height:normal;letter-spacing:normal;word-spacing:normal;text-transform:none;direction:ltr;block-progression:tb;writing-mode:lr-tb;text-anchor:start;baseline-shift:baseline;color:#000000;fill:#666666;fill-opacity:1;stroke:none;stroke-width:2;marker:none;visibility:visible;display:inline;overflow:visible;enable-background:accumulate;font-family:Sans;-inkscape-font-specification:Sans" />
        <path
           inkscape:connector-curvature="0"
           sodipodi:nodetypes="ccccccsccccsccccccc"
           id="rect11668-7-5-4"
           d="m 104.0002,658 0,4 10,0 0,-4 z m 3.34375,1.4375 c 0.0208,-10e-4 0.0417,-10e-4 0.0625,0 0.29096,-0.0556 0.59898,0.20383 0.59375,0.5 l 0,0.0625 2,0 0,-0.0625 c -0.004,-0.26416 0.23582,-0.50712 0.5,-0.50712 0.26418,0 0.50373,0.24296 0.5,0.50712 l 0,0.0625 c 0,0.54535 -0.45465,1 -1,1 l -2,0 c -0.54535,0 -1,-0.45465 -1,-1 l 0,-0.0625 c -0.0108,-0.21706 0.13723,-0.43234 0.34375,-0.5 z"
           style="color:#000000;fill:#666666;fill-opacity:1;fill-rule:evenodd;stroke:none;stroke-width:1;marker:none;visibility:visible;display:inline;overflow:visible;enable-background:accumulate" />
        <path
           inkscape:connector-curvature="0"
           id="rect4390"
           d="m 104,647 c -0.54535,0 -1,0.45465 -1,1 l 0,2 c 0,0.54535 0.45465,1 1,1 l 10,0 c 0.54535,0 1,-0.45465 1,-1 l 0,-2 c 0,-0.54535 -0.45465,-1 -1,-1 l -10,0 z m 0,1 10,0 0,2 -10,0 0,-2 z"
           style="font-size:medium;font-style:normal;font-variant:normal;font-weight:normal;font-stretch:normal;text-indent:0;text-align:start;text-decoration:none;line-height:normal;letter-spacing:normal;word-spacing:normal;text-transform:none;direction:ltr;block-progression:tb;writing-mode:lr-tb;text-anchor:start;baseline-shift:baseline;color:#bebebe;fill:#666666;fill-opacity:1;stroke:none;stroke-width:1;marker:none;visibility:visible;display:inline;overflow:visible;enable-background:accumulate;font-family:Sans;-inkscape-font-specification:Sans" />
        <path
           inkscape:connector-curvature="0"
           id="rect4390-9-1"
           d="m 105.40625,656 a 0.50005,0.50005 0 0 0 -0.3125,0.21875 l -1,1.5 a 0.50005,0.50005 0 1 0 0.8125,0.5625 l 1,-1.5 a 0.50005,0.50005 0 0 0 -0.5,-0.78125 z m 7,0 a 0.50005,0.50005 0 0 0 -0.3125,0.78125 l 1,1.5 a 0.50005,0.50005 0 1 0 0.8125,-0.5625 l -1,-1.5 a 0.50005,0.50005 0 0 0 -0.5,-0.21875 z"
           style="font-size:medium;font-style:normal;font-variant:normal;font-weight:normal;font-stretch:normal;text-indent:0;text-align:start;text-decoration:none;line-height:normal;letter-spacing:normal;word-spacing:normal;text-transform:none;direction:ltr;block-progression:tb;writing-mode:lr-tb;text-anchor:start;baseline-shift:baseline;color:#bebebe;fill:#666666;fill-opacity:1;stroke:none;stroke-width:1;marker:none;visibility:visible;display:inline;overflow:visible;enable-background:accumulate;font-family:Sans;-inkscape-font-specification:Sans" />
      </g>
    </g>
  </g>
</svg>
