<?xml version="1.0" encoding="UTF-8" standalone="no"?>
<!-- Created with Inkscape (http://www.inkscape.org/) -->

<svg
   xmlns:dc="http://purl.org/dc/elements/1.1/"
   xmlns:cc="http://creativecommons.org/ns#"
   xmlns:rdf="http://www.w3.org/1999/02/22-rdf-syntax-ns#"
   xmlns:svg="http://www.w3.org/2000/svg"
   xmlns="http://www.w3.org/2000/svg"
   xmlns:sodipodi="http://sodipodi.sourceforge.net/DTD/sodipodi-0.dtd"
   xmlns:inkscape="http://www.inkscape.org/namespaces/inkscape"
   width="256"
   height="256"
   id="svg2"
   version="1.1"
   inkscape:version="0.48.3.1 r9886"
   sodipodi:docname="desktop.svg">
  <defs
     id="defs4" />
  <sodipodi:namedview
     id="base"
     pagecolor="#ffffff"
     bordercolor="#666666"
     borderopacity="1.0"
     inkscape:pageopacity="0.0"
     inkscape:pageshadow="2"
     inkscape:zoom="1.4"
     inkscape:cx="72.924229"
     inkscape:cy="165.3148"
     inkscape:document-units="px"
     inkscape:current-layer="layer1"
     showgrid="false"
     showguides="true"
     inkscape:guide-bbox="true"
     inkscape:window-width="1022"
     inkscape:window-height="546"
     inkscape:window-x="0"
     inkscape:window-y="16"
     inkscape:window-maximized="1" />
  <metadata
     id="metadata7">
    <rdf:RDF>
      <cc:Work
         rdf:about="">
        <dc:format>image/svg+xml</dc:format>
        <dc:type
           rdf:resource="http://purl.org/dc/dcmitype/StillImage" />
        <dc:title />
      </cc:Work>
    </rdf:RDF>
  </metadata>
  <g
     inkscape:label="Layer 1"
     inkscape:groupmode="layer"
     id="layer1"
     transform="translate(0,-796.3622)">
    <path
       sodipodi:type="arc"
       style="fill:#588a50;fill-opacity:1;stroke:none"
       id="path3828"
       sodipodi:cx="360.44644"
       sodipodi:cy="164.23718"
       sodipodi:rx="10.982142"
       sodipodi:ry="10.982142"
       d="m 371.39684,163.40276 a 10.982142,10.982142 0 1 1 -0.0208,-0.23902"
       sodipodi:start="6.2071318"
       sodipodi:end="12.46847"
       transform="matrix(2.6937351,0,0,2.6937351,-847.09966,476.55613)"
       sodipodi:open="true" />
    <path
       style="fill:#614868;fill-opacity:1;stroke:none"
       d="m 13.647113,817.80416 c -3.231195,0 -5.9619177,2.73072 -5.9619177,5.96191 l 0,52.0313 57.9932007,-57.99321 -52.031283,0 z m 177.231567,0 56.90922,56.90922 0,-50.94731 c 0,-3.23119 -2.73073,-5.96191 -5.96191,-5.96191 l -50.94731,0 z M 7.6851953,961.9741 l 0,55.2835 c 0,3.2311 2.7307227,5.9618 5.9619177,5.9618 l 55.283238,0 -61.2451557,-61.2453 z m 240.1027047,1.08415 -60.16117,60.16115 54.19926,0 c 3.23118,0 5.96191,-2.7307 5.96191,-5.9618 l 0,-54.19935 z"
       id="rect4430"
       inkscape:connector-curvature="0" />
  </g>
</svg>
