<?xml version="1.0" encoding="UTF-8" standalone="no"?>
 

<svg
   xmlns:dc="http://purl.org/dc/elements/1.1/"
   xmlns:cc="http://creativecommons.org/ns#"
   xmlns:rdf="http://www.w3.org/1999/02/22-rdf-syntax-ns#"
   xmlns:svg="http://www.w3.org/2000/svg"
   xmlns="http://www.w3.org/2000/svg"
   xmlns:sodipodi="http://sodipodi.sourceforge.net/DTD/sodipodi-0.dtd"
   xmlns:inkscape="http://www.inkscape.org/namespaces/inkscape"
   xml:space="preserve"
   width="16"
   height="16"
   style="fill-rule:evenodd"
   viewBox="0 0 4.5155556 4.5155557"
   id="svg2"
   version="1.1"
   inkscape:version="0.48.3.1 r9886"
   sodipodi:docname="start-here.svg"><metadata
   id="metadata336"><rdf:RDF><cc:Work
       rdf:about=""><dc:format>image/svg+xml</dc:format><dc:type
         rdf:resource="http://purl.org/dc/dcmitype/StillImage" /><dc:title /></cc:Work></rdf:RDF></metadata><sodipodi:namedview
   pagecolor="#ffffff"
   bordercolor="#666666"
   borderopacity="1"
   objecttolerance="10"
   gridtolerance="10"
   guidetolerance="10"
   inkscape:pageopacity="0"
   inkscape:pageshadow="2"
   inkscape:window-width="1918"
   inkscape:window-height="1013"
   id="namedview334"
   showgrid="false"
   inkscape:zoom="27.721071"
   inkscape:cx="3.2896882"
   inkscape:cy="5.1959924"
   inkscape:window-x="0"
   inkscape:window-y="26"
   inkscape:window-maximized="1"
   inkscape:current-layer="svg2" />
 <defs
   id="defs4"><style
     type="text/css"
     id="style6">
   
    .fil0 {fill:#99AE6A}
    .fil4 {fill:#73A848}
    .fil8 {fill:#6F448A;fill-rule:nonzero}
    .fil1 {fill:#99AE6A;fill-rule:nonzero}
    .fil3 {fill:#ABA0C0;fill-rule:nonzero}
    .fil2 {fill:#BA8FBA;fill-rule:nonzero}
    .fil5 {fill:#73A848;fill-rule:nonzero}
    .fil6 {fill:#98227A;fill-rule:nonzero}
    .fil9 {fill:#B299BF;fill-rule:nonzero}
    .fil7 {fill:#D189B2;fill-rule:nonzero}
   
  </style></defs>
 
<path
   id="_121731384"
   class="fil0"
   d="M 0.67062907,3.1466295 0.96315753,3.436604 C 1.4643536,2.1285285 2.9137173,3.0231678 2.3709066,3.891 L 2.767349,4.0396257 C 3.5316128,2.8534265 1.7399119,1.2088624 0.67062907,3.1466295 z"
   inkscape:connector-curvature="0"
   style="fill:#bebebe;fill-opacity:1"
   sodipodi:nodetypes="ccccc" /><path
   id="_121328256"
   class="fil0"
   d="M 0.1777958,2.5586559 C -0.01275712,2.3374532 0.11748395,2.4022267 0.31580842,2.5444209 0.51413288,2.686615 0.81410198,2.8425452 1.1021572,3.1460838 L 0.96046525,3.4267024 C 0.50016423,3.0157207 0.36834871,2.7798588 0.1777958,2.5586559 z"
   inkscape:connector-curvature="0"
   style="fill:#bebebe;fill-opacity:1"
   sodipodi:nodetypes="zsccz" /><path
   sodipodi:type="arc"
   style="fill:#bebebe;fill-opacity:1;stroke:none"
   id="path3582"
   sodipodi:cx="11.182829"
   sodipodi:cy="12.753372"
   sodipodi:rx="2.6694496"
   sodipodi:ry="2.6694496"
   d="m 13.844562,12.550547 a 2.6694496,2.6694496 0 1 1 -0.0051,-0.0581"
   transform="matrix(0.13834256,0,0,0.13834256,0.19919495,1.7915877)"
   sodipodi:start="6.2071318"
   sodipodi:end="12.46847"
   sodipodi:open="true" /><path
   id="_121328256-7"
   class="fil0"
   d="M 0.4247675,1.3417552 C 0.30865975,1.051719 0.40976238,1.1514637 0.55275704,1.3529974 0.69575091,1.5545312 1.0526419,2.1606454 1.2359221,2.5639276 L 0.96710859,2.750389 C 0.74796061,2.1419236 0.54087506,1.6317917 0.4247675,1.3417552 z"
   inkscape:connector-curvature="0"
   style="fill:#bebebe;fill-opacity:1;fill-rule:evenodd"
   sodipodi:nodetypes="zsccz" /><path
   id="_121328256-7-9"
   class="fil0"
   d="M 1.44312,0.58246558 C 1.43361,0.2701971 1.521214,0.39282353 1.5594765,0.63695278 1.6013875,0.90435635 1.7053444,1.7413136 1.7506921,2.2817189 l -0.3164814,0.082874 c 0.003,-0.6467199 0.018418,-1.46985881 0.00891,-1.78212772 z"
   inkscape:connector-curvature="0"
   style="fill:#bebebe;fill-opacity:1;fill-rule:evenodd"
   sodipodi:nodetypes="zsccz" /><path
   id="_121328256-7-4"
   class="fil0"
   d="M 2.4423509,0.52194906 C 2.5291241,0.19808085 2.5810366,0.32015476 2.5788735,0.5833539 2.5767086,0.84655178 2.4931372,1.8976838 2.1801821,2.4013588 L 1.8869765,2.2775017 c 0.307833,-0.6143974 0.4686,-1.43168421 0.5553744,-1.75555264 z"
   inkscape:connector-curvature="0"
   style="fill:#bebebe;fill-opacity:1;fill-rule:evenodd"
   sodipodi:nodetypes="zsccz" /><path
   id="_121328256-7-4-9"
   class="fil0"
   d="M 3.6839051,1.1452392 C 3.9311577,0.7718015 3.8949861,1.029192 3.7754429,1.2636867 3.5368401,1.7317274 2.9264141,2.4275569 2.4666837,2.7714357 L 2.2400615,2.4692892 C 2.8122122,2.0577751 3.4366526,1.5186768 3.6839051,1.1452392 z"
   inkscape:connector-curvature="0"
   style="fill:#bebebe;fill-opacity:1;fill-rule:evenodd"
   sodipodi:nodetypes="zsccz" /><path
   id="_121328256-7-4-9-1"
   class="fil0"
   d="m 4.2265513,3.0597007 c 0.4091243,-0.09358 0.2522344,0.074602 0.024419,0.1707759 C 4.0062521,3.3337885 3.127026,3.6011424 2.5719027,3.6165508 l 0.00603,-0.3830989 C 3.2310577,3.2329199 3.8174297,3.1532809 4.226554,3.0597007 z"
   inkscape:connector-curvature="0"
   style="fill:#bebebe;fill-opacity:1;fill-rule:evenodd"
   sodipodi:nodetypes="zsccz" /><path
   id="_121328256-9"
   class="fil0"
   d="M 3.9700033,4.2976494 C 4.2626923,4.4304234 4.1316091,4.4287597 3.9491295,4.4043056 3.7042093,4.3714838 3.1539385,4.1823832 2.7531868,4.0349335 L 2.8590012,3.7253663 c 0.5571017,0.2920484 0.8183128,0.4395089 1.1110017,0.572283 z"
   inkscape:connector-curvature="0"
   style="fill:#bebebe;fill-opacity:1;fill-rule:evenodd"
   sodipodi:nodetypes="zsccz" /><path
   id="_121328256-7-4-9-1-7"
   class="fil0"
   d="M 4.1962848,2.076334 C 4.5907234,1.8600715 4.4775437,2.0697011 4.2705883,2.2323244 4.0482794,2.4070154 3.2196806,2.935215 2.6523716,3.1218067 L 2.5483179,2.7530525 C 3.2208399,2.5503733 3.801846,2.2925963 4.1962848,2.076334 z"
   inkscape:connector-curvature="0"
   style="fill:#bebebe;fill-opacity:1;fill-rule:evenodd"
   sodipodi:nodetypes="zsccz"
   inkscape:transform-center-y="0.95298244"
   inkscape:transform-center-x="-0.069049672" /></svg>