<?xml version="1.0" encoding="UTF-8" standalone="no"?>
<!-- Created with Inkscape (http://www.inkscape.org/) -->

<svg
   xmlns:dc="http://purl.org/dc/elements/1.1/"
   xmlns:cc="http://creativecommons.org/ns#"
   xmlns:rdf="http://www.w3.org/1999/02/22-rdf-syntax-ns#"
   xmlns:svg="http://www.w3.org/2000/svg"
   xmlns="http://www.w3.org/2000/svg"
   xmlns:sodipodi="http://sodipodi.sourceforge.net/DTD/sodipodi-0.dtd"
   xmlns:inkscape="http://www.inkscape.org/namespaces/inkscape"
   width="256"
   height="256"
   id="svg5121"
   version="1.1"
   inkscape:version="0.48.3.1 r9886"
   sodipodi:docname="application-exit.svg">
  <defs
     id="defs5123" />
  <sodipodi:namedview
     id="base"
     pagecolor="#ffffff"
     bordercolor="#666666"
     borderopacity="1.0"
     inkscape:pageopacity="0.0"
     inkscape:pageshadow="2"
     inkscape:zoom="1.1748062"
     inkscape:cx="-46.454343"
     inkscape:cy="147.87668"
     inkscape:document-units="px"
     inkscape:current-layer="layer1"
     showgrid="false"
     inkscape:window-width="1085"
     inkscape:window-height="680"
     inkscape:window-x="232"
     inkscape:window-y="64"
     inkscape:window-maximized="0"
     showguides="true"
     inkscape:guide-bbox="true" />
  <metadata
     id="metadata5126">
    <rdf:RDF>
      <cc:Work
         rdf:about="">
        <dc:format>image/svg+xml</dc:format>
        <dc:type
           rdf:resource="http://purl.org/dc/dcmitype/StillImage" />
        <dc:title />
      </cc:Work>
    </rdf:RDF>
  </metadata>
  <g
     inkscape:label="Capa 1"
     inkscape:groupmode="layer"
     id="layer1"
     transform="translate(0,-796.36218)">
    <g
       inkscape:label="status"
       transform="translate(-189.44005,322.89394)"
       id="layer9"
       style="display:inline" />
    <g
       inkscape:label="devices"
       transform="translate(-189.44005,322.89394)"
       id="layer10" />
    <g
       inkscape:label="apps"
       transform="translate(-189.44005,322.89394)"
       id="layer11" />
    <g
       inkscape:label="places"
       transform="translate(-189.44005,322.89394)"
       id="layer13" />
    <g
       inkscape:label="mimetypes"
       transform="translate(-189.44005,322.89394)"
       id="layer14" />
    <g
       inkscape:label="emblems"
       transform="translate(-189.44005,322.89394)"
       id="layer15"
       style="display:inline" />
    <g
       inkscape:label="emotes"
       transform="translate(-189.44005,322.89394)"
       id="g71291"
       style="display:inline" />
    <g
       inkscape:label="categories"
       transform="translate(-189.44005,322.89394)"
       id="g4953"
       style="display:inline" />
    <path
       inkscape:connector-curvature="0"
       style="font-size:medium;font-style:normal;font-variant:normal;font-weight:normal;font-stretch:normal;text-indent:0;text-align:start;text-decoration:none;line-height:normal;letter-spacing:normal;word-spacing:normal;text-transform:none;direction:ltr;block-progression:tb;writing-mode:lr-tb;text-anchor:start;baseline-shift:baseline;color:#000000;fill:#492356;fill-opacity:1;stroke:none;stroke-width:1.74643361999999991;stroke-miterlimit:4;stroke-opacity:1;stroke-dasharray:none;marker:none;visibility:visible;display:inline;overflow:visible;enable-background:new;font-family:Sans;-inkscape-font-specification:Sans"
       d="m 191.46433,849.18402 -10.52105,11.09713 a 16.296555,16.815887 0 0 0 -0.87928,0.9096 l -43.47892,45.78324 -0.0909,0.0606 a 16.563239,17.091068 0 0 0 -4.00225,4.2448 l -9.45985,9.94497 9.73273,9.85401 a 16.563239,17.091068 0 0 0 3.94161,3.97193 l 44.47948,45.02524 11.64289,11.76417 10.58169,-11.15777 a 16.300556,16.820015 0 0 0 0.48512,-0.51544 l 0.33352,-0.33352 a 16.300556,16.820015 0 0 0 -0.21224,-23.77091 l -18.19202,-18.37393 52.57493,-0.54576 a 16.296555,16.815887 0 0 0 9.79337,-30.56259 16.296555,16.815887 0 0 0 -10.12689,-3.6384 l -52.57493,0.54576 17.82818,-18.7681 a 16.296555,16.815887 0 0 0 -2.75917,-26.34811 l -9.09601,-9.18696 z"
       id="path12113-8" />
    <path
       style="fill:#492356;fill-opacity:1;stroke:none;stroke-width:1.74643361999999991;stroke-miterlimit:4;stroke-opacity:1;stroke-dasharray:none"
       sodipodi:nodetypes="ccccc"
       id="rect4897-1-2-6"
       d="m 3.9274928,1033.9991 -0.6978555,-220.26926 116.1012127,0 0.0101,183.66713 z"
       inkscape:connector-curvature="0" />
  </g>
</svg>
