<?xml version="1.0" encoding="UTF-8" standalone="no"?>
<!-- Created with Inkscape (http://www.inkscape.org/) -->

<svg
   xmlns:dc="http://purl.org/dc/elements/1.1/"
   xmlns:cc="http://creativecommons.org/ns#"
   xmlns:rdf="http://www.w3.org/1999/02/22-rdf-syntax-ns#"
   xmlns:svg="http://www.w3.org/2000/svg"
   xmlns="http://www.w3.org/2000/svg"
   xmlns:sodipodi="http://sodipodi.sourceforge.net/DTD/sodipodi-0.dtd"
   xmlns:inkscape="http://www.inkscape.org/namespaces/inkscape"
   version="1.0"
   width="96"
   height="96"
   id="svg2408"
   inkscape:version="0.48.3.1 r9886"
   sodipodi:docname="applications-science.svg">
  <sodipodi:namedview
     pagecolor="#ffffff"
     bordercolor="#666666"
     borderopacity="1"
     objecttolerance="10"
     gridtolerance="10"
     guidetolerance="10"
     inkscape:pageopacity="0"
     inkscape:pageshadow="2"
     inkscape:window-width="1438"
     inkscape:window-height="850"
     id="namedview101"
     showgrid="false"
     inkscape:zoom="3.55434"
     inkscape:cx="39.686687"
     inkscape:cy="42.776694"
     inkscape:window-x="0"
     inkscape:window-y="26"
     inkscape:window-maximized="1"
     inkscape:current-layer="svg2408"
     inkscape:snap-global="false" />
  <defs
     id="defs2410">
    <linearGradient
       x1="45.447727"
       y1="92.539597"
       x2="45.447727"
       y2="7.0165396"
       id="ButtonShadow"
       gradientUnits="userSpaceOnUse"
       gradientTransform="scale(1.0058652,0.994169)">
      <stop
         id="stop3750"
         style="stop-color:#000000;stop-opacity:1"
         offset="0" />
      <stop
         id="stop3752"
         style="stop-color:#000000;stop-opacity:0.58823532"
         offset="1" />
    </linearGradient>
    <filter
       color-interpolation-filters="sRGB"
       id="filter3174">
      <feGaussianBlur
         id="feGaussianBlur3176"
         stdDeviation="1.71" />
    </filter>
  </defs>
  <metadata
     id="metadata2413">
    <rdf:RDF>
      <cc:Work
         rdf:about="">
        <dc:format>image/svg+xml</dc:format>
        <dc:type
           rdf:resource="http://purl.org/dc/dcmitype/StillImage" />
        <dc:title />
      </cc:Work>
    </rdf:RDF>
  </metadata>
  <g
     id="layer2"
     style="display:none">
    <rect
       width="86"
       height="85"
       rx="6"
       ry="6"
       x="5"
       y="7"
       id="rect3745"
       style="opacity:0.9;fill:url(#ButtonShadow);fill-opacity:1;fill-rule:nonzero;stroke:none;filter:url(#filter3174)" />
  </g>
  <path
     style="fill:#694869;fill-opacity:1;stroke:none"
     d="m 30.5,12.375 c -0.733675,-0.0041 -1.730375,0.170177 -1.75,1.1875 -0.0314,1.627715 2.46875,1.53125 2.46875,1.53125 l 0,20.125 c 0,0 -23.90625,50.093077 -23.90625,52.0625 0,1.969423 1.96875,3.375 1.96875,3.375 0,0 54.873269,1.406731 59.9375,0 5.064232,-1.406731 3.937692,-5.343173 3.375,-7.03125 -0.562693,-1.688077 -24.75,-48.6875 -24.75,-48.6875 l 0,-19.8125 c 0,0 2.0625,-0.09327 2.0625,-1.5 0,-1.406731 -2.625,-1.1875 -2.625,-1.1875 l -16,0 c 0,0 -0.341045,-0.06004 -0.78125,-0.0625 z m 4.291832,2.832308 c 0.720335,0.03482 1.588256,0.948504 2.377646,2.037401 1.842888,2.542113 -0.471973,13.273752 1.216104,17.212599 1.688077,3.938846 5.91086,1.761057 7.176918,2.886442 C 46.828557,38.469134 50.655961,46.905191 51.5,50 52.344038,53.094808 47.687789,56.187211 46.84375,57.03125 45.999712,57.875288 44.156731,56.750962 42.75,53.9375 41.343269,51.124038 39.516058,39.719423 38.25,37.75 c -1.266058,-1.969423 -3.801918,-1.886442 -3.801918,-1.886442 0,0 -1.968846,0.142693 -1.6875,-5.90625 0.281347,-6.048943 0.28125,-14.34375 0.28125,-14.34375 0,0 0.337632,-0.287079 1.09375,-0.375 0.18903,-0.02198 0.416138,-0.04285 0.65625,-0.03125 z m 1.988841,50.965673 c 1.636331,-0.0066 3.761893,0.07027 5.547019,0.21875 -0.93804,3.873578 -0.514771,0.02172 -0.765192,4.920769 -0.202131,3.954353 1.230056,8.729049 2.40625,11.125 1.899086,3.868511 4.71875,6.65625 4.71875,6.65625 0,0 -33.905577,-0.265481 -35.875,-0.6875 -1.969424,-0.422019 -2.125,-2.96875 -2.125,-2.96875 L 19.46875,66.375 c 0,0 5.857608,-0.155594 17.311923,-0.202019 z"
     id="path7475"
     inkscape:connector-curvature="0"
     sodipodi:nodetypes="ssccscssccsccssssssssscscssscsscsccs" />
  <path
     style="fill:#694869;fill-opacity:1;stroke:none"
     d="m 57.3125,10.46875 c 0,0 -0.596825,0.744485 -0.596825,1.1875 0,0.443015 0.596825,1.1875 0.596825,1.1875 l 2.28125,0 0,37.40625 C 49.695274,53.231041 42.869698,62.767754 43.6875,73.5 c 0.944484,12.394723 11.730277,21.694483 24.125,20.75 12.394724,-0.944484 21.694484,-11.761526 20.75,-24.15625 l -0.03125,-0.5 C 87.591188,60.022238 80.766595,52.429013 71.96875,50.0625 l 0,-37.21875 1.9375,0 c 0,0 0.646561,-0.244577 0.646561,-1.1875 0,-0.942923 -0.646561,-1.1875 -0.646561,-1.1875 z M 67.625,18 c 0.986759,-0.176574 2.29835,0.915501 2.3125,1.625 0.153257,7.684239 -0.0039,22.958722 0.03125,29.65625 0.0066,1.266599 1.898865,1.933171 2.59375,2.375 0.0073,0.0046 0.02424,-0.0046 0.03125,0 1.977219,0.118867 4.096473,1.207513 6.09375,2.65625 3.195643,2.317978 6.647884,6.171264 6.25,11.34375 -0.397884,5.172487 -11.015873,4.677777 -14,0.5 -2.984127,-4.177778 -4.901819,-11.143948 -1.71875,-13.53125 0.01909,-0.01388 0.04334,-0.01769 0.0625,-0.03125 -1.195943,-0.09152 -2.192594,-0.64283 -2.625,-2.15625 C 65.860487,47.652315 66.57457,23.682539 66.5625,20.03125 66.558055,18.686329 67.032944,18.105944 67.625,18 z m 1.37625,58.002212 c 5.493156,0 11.286664,0.252418 17.8425,-0.09596 C 82.70843,87.37441 73.152004,92.495829 66.0625,92.8125 56.192788,93.035199 46.901628,84.17882 45.34375,74.21875 c 2.044424,-4.032021 18.164344,1.783461 23.6575,1.783462 z"
     id="path7477"
     inkscape:connector-curvature="0"
     sodipodi:nodetypes="czcccssccccczccsssccsssccsssscccs" />
</svg>
