<?xml version="1.0" encoding="UTF-8" standalone="no"?>
<!-- Created with Inkscape (http://www.inkscape.org/) -->

<svg
   xmlns:dc="http://purl.org/dc/elements/1.1/"
   xmlns:cc="http://creativecommons.org/ns#"
   xmlns:rdf="http://www.w3.org/1999/02/22-rdf-syntax-ns#"
   xmlns:svg="http://www.w3.org/2000/svg"
   xmlns="http://www.w3.org/2000/svg"
   xmlns:sodipodi="http://sodipodi.sourceforge.net/DTD/sodipodi-0.dtd"
   xmlns:inkscape="http://www.inkscape.org/namespaces/inkscape"
   width="256"
   height="256"
   id="svg2"
   version="1.1"
   inkscape:version="0.48.3.1 r9886"
   sodipodi:docname="computer.svg">
  <defs
     id="defs4" />
  <sodipodi:namedview
     id="base"
     pagecolor="#ffffff"
     bordercolor="#666666"
     borderopacity="1.0"
     inkscape:pageopacity="0.0"
     inkscape:pageshadow="2"
     inkscape:zoom="0.62423569"
     inkscape:cx="-276.58243"
     inkscape:cy="2.0530159"
     inkscape:document-units="px"
     inkscape:current-layer="layer1"
     showgrid="false"
     showguides="true"
     inkscape:guide-bbox="true"
     inkscape:window-width="1180"
     inkscape:window-height="748"
     inkscape:window-x="187"
     inkscape:window-y="212"
     inkscape:window-maximized="0" />
  <metadata
     id="metadata7">
    <rdf:RDF>
      <cc:Work
         rdf:about="">
        <dc:format>image/svg+xml</dc:format>
        <dc:type
           rdf:resource="http://purl.org/dc/dcmitype/StillImage" />
        <dc:title />
      </cc:Work>
    </rdf:RDF>
  </metadata>
  <g
     inkscape:label="Layer 1"
     inkscape:groupmode="layer"
     id="layer1"
     transform="translate(0,-796.3622)">
    <path
       style="fill:#492356;fill-opacity:1;stroke:#a6f488;stroke-opacity:1;stroke-width:1.8;stroke-miterlimit:4;stroke-dasharray:none"
       d="m 44.351544,818.49817 c -20.65741,0 -37.242145,16.58318 -37.242145,37.24215 l 0,96.82957 c 0,20.65599 16.584735,38.17171 37.242145,38.17171 l 168.520696,0 c 20.65742,0 37.24215,-17.51572 37.24215,-38.17171 l 0,-96.82957 c 0,-20.65897 -16.58473,-37.24215 -37.24215,-37.24215 l -168.520696,0 z m 23.276341,20.48318 121.036965,0 c 20.65741,0 37.24214,16.58318 37.24214,37.24215 l 0,44.69057 c 0,20.65598 -16.58473,37.24214 -37.24214,37.24214 l -121.036965,0 c -20.657411,0 -37.242145,-16.58616 -37.242145,-37.24214 l 0,-44.69057 c 0,-20.65897 16.584734,-37.24215 37.242145,-37.24215 z"
       id="rect3021-8"
       inkscape:connector-curvature="0" />
    <rect
       style="fill:#492356;fill-opacity:1;stroke:#a6f488;stroke-opacity:1;stroke-width:1.8;stroke-miterlimit:4;stroke-dasharray:none"
       id="rect3812-4"
       width="235.98187"
       height="34.803669"
       x="12.964204"
       y="996.90265"
       ry="10.019238" />
    <path
       transform="matrix(29.793716,0,0,29.793716,-0.0562191,787.5574)"
       sodipodi:type="arc"
       style="fill:#8abb22;fill-opacity:1;stroke:none"
       id="path3852-5"
       sodipodi:cx="4.2832341"
       sodipodi:cy="3.7874734"
       sodipodi:rx="0.88496572"
       sodipodi:ry="0.88496572"
       d="m 5.1656417,3.7202336 a 0.88496572,0.88496572 0 1 1 -0.00168,-0.01926"
       sodipodi:start="6.2071318"
       sodipodi:end="12.46847"
       sodipodi:open="true" />
  </g>
</svg>
