<?xml version="1.0" encoding="UTF-8" standalone="no"?>
<!-- Created with Inkscape (http://www.inkscape.org/) -->

<svg
   xmlns:dc="http://purl.org/dc/elements/1.1/"
   xmlns:cc="http://creativecommons.org/ns#"
   xmlns:rdf="http://www.w3.org/1999/02/22-rdf-syntax-ns#"
   xmlns:svg="http://www.w3.org/2000/svg"
   xmlns="http://www.w3.org/2000/svg"
   xmlns:sodipodi="http://sodipodi.sourceforge.net/DTD/sodipodi-0.dtd"
   xmlns:inkscape="http://www.inkscape.org/namespaces/inkscape"
   width="256"
   height="256"
   id="svg2"
   version="1.1"
   inkscape:version="0.48.3.1 r9886"
   sodipodi:docname="drive-harddisk.svg">
  <defs
     id="defs4" />
  <sodipodi:namedview
     id="base"
     pagecolor="#ffffff"
     bordercolor="#666666"
     borderopacity="1.0"
     inkscape:pageopacity="0.0"
     inkscape:pageshadow="2"
     inkscape:zoom="1.7656052"
     inkscape:cx="38.218112"
     inkscape:cy="120.68536"
     inkscape:document-units="px"
     inkscape:current-layer="layer1"
     showgrid="false"
     showguides="true"
     inkscape:guide-bbox="true"
     inkscape:window-width="1438"
     inkscape:window-height="852"
     inkscape:window-x="0"
     inkscape:window-y="25"
     inkscape:window-maximized="1" />
  <metadata
     id="metadata7">
    <rdf:RDF>
      <cc:Work
         rdf:about="">
        <dc:format>image/svg+xml</dc:format>
        <dc:type
           rdf:resource="http://purl.org/dc/dcmitype/StillImage" />
        <dc:title />
      </cc:Work>
    </rdf:RDF>
  </metadata>
  <g
     inkscape:label="Layer 1"
     inkscape:groupmode="layer"
     id="layer1"
     transform="translate(0,-796.3622)">
    <g
       id="g3769">
      <path
         sodipodi:nodetypes="sssssssssssccssss"
         id="rect2986"
         d="m 46.14223,801.69112 c -18.43162,0 -33.28125,14.84963 -33.28125,33.28125 l 0,179.25003 c 0,18.4316 14.84963,33.2812 33.28125,33.2812 l 165.96875,0 c 18.43162,0 33.28125,-14.8496 33.28125,-33.2812 l 0,-179.25003 c 0,-18.43162 -14.84963,-33.28125 -33.28125,-33.28125 z m 82.84375,16.9375 c 0.90951,-0.0236 1.80983,-0.0208 2.6875,0 52.66031,1.2479 97.21267,41.67132 102.46875,95.1875 l 0,2.09375 c 4.42634,58.08812 -39.19313,108.97993 -97.28125,113.40623 -58.08813,4.4263 -108.44865,-39.19311 -112.875,-97.28123 -4.42634,-58.08813 38.66187,-108.4799 96.75,-112.90625 2.68091,-0.20429 5.52148,-0.42922 8.25,-0.5 z"
         style="fill:#492356;fill-opacity:1;stroke:#a6f488;stroke-width:1.79999995;stroke-miterlimit:4;stroke-opacity:1;stroke-dasharray:none"
         inkscape:connector-curvature="0" />
      <path
         inkscape:connector-curvature="0"
         id="path2988"
         d="m 46.45681,1009.1093 c 6.40784,-8.8108 30.43723,-34.44211 30.43723,-34.44211 l 20.02448,12.81567 -29.63624,35.24314 z"
         style="fill:#492356;fill-opacity:1;stroke:none" />
      <path
         inkscape:connector-curvature="0"
         id="path3764"
         d="m 127.625,869.58482 c -0.89728,0.0235 -1.78271,0.0561 -2.6875,0.125 -29.406381,2.24078 -51.428281,27.90612 -49.187501,57.3125 2.24078,29.40638 27.874871,51.42828 57.281251,49.1875 29.40638,-2.24078 51.42828,-27.90612 49.1875,-57.3125 l -0.0937,-1.15625 c -2.74951,-27.99495 -26.68422,-48.88339 -54.5,-48.15625 z m 3.8125,40.0625 c 6.36196,0.15076 11.74001,5.03464 12.375,11.5 l 0,0.25 c 0.53475,7.0177 -4.70105,13.15275 -11.71875,13.6875 -7.0177,0.53475 -13.15275,-4.7323 -13.6875,-11.75 -0.53475,-7.0177 4.7323,-13.1215 11.75,-13.65625 0.43185,-0.0329 0.85712,-0.0413 1.28125,-0.0313 z"
         style="fill:#8abb22;fill-opacity:1;stroke:#a6f488;stroke-width:1.92002451;stroke-miterlimit:4;stroke-opacity:1;stroke-dasharray:none;stroke-dashoffset:1.50000006" />
    </g>
  </g>
</svg>
