<?xml version="1.0" encoding="UTF-8" standalone="no"?>
<!-- Created with Inkscape (http://www.inkscape.org/) -->

<svg
   xmlns:dc="http://purl.org/dc/elements/1.1/"
   xmlns:cc="http://creativecommons.org/ns#"
   xmlns:rdf="http://www.w3.org/1999/02/22-rdf-syntax-ns#"
   xmlns:svg="http://www.w3.org/2000/svg"
   xmlns="http://www.w3.org/2000/svg"
   xmlns:sodipodi="http://sodipodi.sourceforge.net/DTD/sodipodi-0.dtd"
   xmlns:inkscape="http://www.inkscape.org/namespaces/inkscape"
   width="256"
   height="256"
   id="svg2"
   version="1.1"
   inkscape:version="0.48.3.1 r9886"
   sodipodi:docname="drive-removable-media.svg">
  <defs
     id="defs4" />
  <sodipodi:namedview
     id="base"
     pagecolor="#ffffff"
     bordercolor="#666666"
     borderopacity="1.0"
     inkscape:pageopacity="0.0"
     inkscape:pageshadow="2"
     inkscape:zoom="2.8284271"
     inkscape:cx="195.51566"
     inkscape:cy="125.19513"
     inkscape:document-units="px"
     inkscape:current-layer="layer1"
     showgrid="false"
     showguides="true"
     inkscape:guide-bbox="true"
     inkscape:window-width="1438"
     inkscape:window-height="852"
     inkscape:window-x="0"
     inkscape:window-y="25"
     inkscape:window-maximized="1" />
  <metadata
     id="metadata7">
    <rdf:RDF>
      <cc:Work
         rdf:about="">
        <dc:format>image/svg+xml</dc:format>
        <dc:type
           rdf:resource="http://purl.org/dc/dcmitype/StillImage" />
        <dc:title />
      </cc:Work>
    </rdf:RDF>
  </metadata>
  <g
     inkscape:label="Layer 1"
     inkscape:groupmode="layer"
     id="layer1"
     transform="translate(0,-796.3622)">
    <path
       inkscape:connector-curvature="0"
       style="fill:#8abb22;fill-opacity:1;"
       d="m 62.118139,933.88558 c -0.616143,-0.75711 -1.412003,-0.32356 -2.049871,0.19554 l -54.9275204,44.7007 c -0.637868,0.5191 -0.7810685,0.84983 -0.1649487,1.60691 L 25.88419,1006.0806 82.583566,959.93798 c 0.140331,-0.11421 0.294465,-0.32871 0.442964,-0.36049 L 62.118139,933.88558 z m 21.62937,26.57783 c -0.06129,0.13895 -0.302491,0.24617 -0.442964,0.36049 l -56.699376,46.1427 21.26888,26.1348 c 0.61612,0.7571 0.969039,0.6841 1.606907,0.165 l 54.927524,-44.70072 c 0.63786,-0.51911 1.22391,-1.21046 0.60791,-1.9674 L 83.747509,960.46341 z m -41.357902,3.46785 8.651748,10.63114 c 1.048788,1.28873 0.787977,3.77674 -0.494847,4.82072 l -3.100747,2.52342 c -1.28991,1.04975 -3.328968,0.4334 -4.377756,-0.85533 l -8.651748,-10.63113 c -1.048788,-1.28874 -0.880374,-2.96522 0.412372,-4.01727 l 3.100747,-2.52343 c 1.289911,-1.04974 3.411443,-1.23685 4.460231,0.0519 z m 20.187412,24.80598 9.012237,11.0741 c 1.048788,1.28876 0.881792,2.96406 -0.412372,4.01726 l -3.543711,2.8839 c -1.28991,1.0498 -2.968479,0.8764 -4.017267,-0.4124 l -9.012237,-11.07405 c -1.048788,-1.28873 -0.880374,-2.96521 0.412372,-4.01726 l 3.543711,-2.88392 c 1.289911,-1.04975 2.968479,-0.87636 4.017267,0.41237 z"
       id="rect4183" />
    <path
       sodipodi:nodetypes="sssssssss"
       inkscape:connector-curvature="0"
       style="fill:#492356;fill-opacity:1;stroke:#a6f488;stroke-width:1.79999995;stroke-miterlimit:4;stroke-dasharray:none"
       d="m 212.37467,822.64997 c -8.591,-10.55648 -23.99107,-12.13816 -34.5485,-3.5464 L 57.782963,916.79623 c -5.43747,4.42508 2.480416,12.09586 11.07141,22.65234 l 32.444057,39.86675 c 8.59099,10.55648 14.06726,20.21428 18.60179,16.52402 l 121.37211,-98.77412 c 10.55742,-8.59177 12.13738,-23.99202 3.54639,-34.5485 z"
       id="rect4203" />
    <path
       inkscape:connector-curvature="0"
       d="m 221.61381,845.09183 -21.02873,3.16542 4.72949,5.93164 -76.61125,61.0845 -1.51035,-23.56041 c 0.44013,-1.9499 1.48901,-3.90789 3.10012,-5.25462 6.64011,-5.29437 10.58183,-8.44029 12.0313,-9.60011 3.21885,2.01864 7.47485,1.9347 10.61664,-0.57035 3.97459,-3.16906 4.62853,-8.9661 1.45833,-12.94211 -3.17157,-3.97775 -8.96748,-4.63025 -12.94235,-1.46098 -3.14179,2.50505 -4.17231,6.63434 -2.92301,10.21959 l -11.8958,9.48079 c -3.22351,2.5702 -5.19111,7.03197 -5.68785,10.81947 0.01,-0.10843 0.0183,-0.22263 -0.003,0.004 -0.005,0.0875 1.37137,25.17841 1.37137,25.17841 -0.43868,1.94639 -1.49012,3.89937 -3.09917,5.24632 l -5.05919,4.03385 c -5.48892,-4.62006 -13.64976,-4.89132 -19.475689,-0.24612 -6.642434,5.29622 -7.73366,14.97361 -2.439059,21.61403 5.296202,6.64241 14.973838,7.73395 21.616268,2.43774 5.82719,-4.64619 7.37727,-12.66591 4.09189,-19.05046 l 4.91322,-3.91747 c 0.0213,-0.0169 0.0429,-0.0322 0.0633,-0.0505 l 14.32296,-11.42013 c 1.67034,-1.26357 3.80711,-1.85124 5.8021,-1.84338 0,0 27.91903,3.92546 28.00723,3.93987 0.224,0.0318 0.11017,0.0129 0.002,2.5e-4 3.80278,0.35889 8.5912,-0.56801 11.81529,-3.13867 l 18.24374,-14.55143 3.84935,4.82778 14.40251,-11.48356 -11.48242,-14.40107 -14.40252,11.48356 3.84432,4.82147 c 0,0 -9.80751,7.81059 -18.39119,14.65461 -1.67169,1.27132 -3.81517,1.86003 -5.81355,1.85442 l -26.40685,-3.71438 62.38239,-49.73939 4.73706,5.94115 7.76973,-19.79462 z"
       id="path1334-4"
       sodipodi:nodetypes="cccccccssscccccccssscsccccccccccccccccccc"
       style="fill:#8abb22;fill-opacity:1" />
  </g>
</svg>
