<?xml version="1.0" encoding="UTF-8" standalone="no"?>
<!-- Created with Inkscape (http://www.inkscape.org/) -->

<svg
   xmlns:dc="http://purl.org/dc/elements/1.1/"
   xmlns:cc="http://creativecommons.org/ns#"
   xmlns:rdf="http://www.w3.org/1999/02/22-rdf-syntax-ns#"
   xmlns:svg="http://www.w3.org/2000/svg"
   xmlns="http://www.w3.org/2000/svg"
   xmlns:sodipodi="http://sodipodi.sourceforge.net/DTD/sodipodi-0.dtd"
   xmlns:inkscape="http://www.inkscape.org/namespaces/inkscape"
   width="256"
   height="256"
   id="svg4374"
   version="1.1"
   inkscape:version="0.48.3.1 r9886"
   sodipodi:docname="edit-cut.svg">
  <defs
     id="defs4376" />
  <sodipodi:namedview
     id="base"
     pagecolor="#ffffff"
     bordercolor="#666666"
     borderopacity="1.0"
     inkscape:pageopacity="0.0"
     inkscape:pageshadow="2"
     inkscape:zoom="1.7124294"
     inkscape:cx="154.9802"
     inkscape:cy="98.571429"
     inkscape:document-units="px"
     inkscape:current-layer="layer1"
     showgrid="false"
     inkscape:window-width="1918"
     inkscape:window-height="1034"
     inkscape:window-x="0"
     inkscape:window-y="22"
     inkscape:window-maximized="1" />
  <metadata
     id="metadata4379">
    <rdf:RDF>
      <cc:Work
         rdf:about="">
        <dc:format>image/svg+xml</dc:format>
        <dc:type
           rdf:resource="http://purl.org/dc/dcmitype/StillImage" />
        <dc:title />
      </cc:Work>
    </rdf:RDF>
  </metadata>
  <g
     inkscape:label="Capa 1"
     inkscape:groupmode="layer"
     id="layer1"
     transform="translate(0,-796.36218)">
    <g
       id="g4314"
       transform="matrix(15.581067,0,0,15.393474,3.2399488,802.14444)"
       style="fill:#492356;fill-opacity:1">
      <g
         style="fill:#492356;fill-opacity:1;display:inline"
         inkscape:label="status"
         id="layer9-6"
         transform="translate(-40,-668)" />
      <g
         inkscape:label="devices"
         id="layer10-2"
         transform="translate(-40,-668)"
         style="fill:#492356;fill-opacity:1" />
      <g
         inkscape:label="apps"
         id="layer11-3"
         transform="translate(-40,-668)"
         style="fill:#492356;fill-opacity:1" />
      <g
         inkscape:label="actions"
         id="layer12-8"
         transform="translate(-40,-668)"
         style="fill:#492356;fill-opacity:1">
        <path
           style="font-size:medium;font-style:normal;font-variant:normal;font-weight:normal;font-stretch:normal;text-indent:0;text-align:start;text-decoration:none;line-height:normal;letter-spacing:normal;word-spacing:normal;text-transform:none;direction:ltr;block-progression:tb;writing-mode:lr-tb;text-anchor:start;color:#000000;fill:#492356;fill-opacity:1;stroke:none;stroke-width:4.79973983999999998;marker:none;visibility:visible;display:inline;overflow:visible;enable-background:accumulate;font-family:Bitstream Vera Sans;-inkscape-font-specification:Bitstream Vera Sans"
           id="path3940"
           d="m 43.5,676.98684 c -1.904524,0 -3.492268,1.57485 -3.492268,3.51316 0,1.93831 1.587744,3.51316 3.492268,3.51316 1.904524,0 3.492268,-1.57485 3.492268,-3.51316 0,-1.93831 -1.587744,-3.51316 -3.492268,-3.51316 z m 0,2.02632 c 0.8569,0 1.507732,0.66373 1.507732,1.48684 0,0.82312 -0.650832,1.48684 -1.507732,1.48684 -0.8569,0 -1.507732,-0.66372 -1.507732,-1.48684 0,-0.82311 0.650832,-1.48684 1.507732,-1.48684 z"
           inkscape:connector-curvature="0" />
        <path
           style="font-size:medium;font-style:normal;font-variant:normal;font-weight:normal;font-stretch:normal;text-indent:0;text-align:start;text-decoration:none;line-height:normal;letter-spacing:normal;word-spacing:normal;text-transform:none;direction:ltr;block-progression:tb;writing-mode:lr-tb;text-anchor:start;color:#000000;fill:#492356;fill-opacity:1;stroke:none;stroke-width:4.79973983999999998;marker:none;visibility:visible;display:inline;overflow:visible;enable-background:accumulate;font-family:Bitstream Vera Sans;-inkscape-font-specification:Bitstream Vera Sans"
           id="path3942"
           d="m 52.499999,676.98685 c -1.904524,0 -3.492268,1.57485 -3.492268,3.51315 0,1.93831 1.587744,3.51316 3.492268,3.51316 1.904525,0 3.492269,-1.57485 3.492269,-3.51316 0,-1.9383 -1.587744,-3.51315 -3.492269,-3.51315 z m 0,2.02631 c 0.8569,0 1.507733,0.66373 1.507733,1.48684 0,0.82312 -0.650833,1.48685 -1.507733,1.48685 -0.8569,0 -1.507732,-0.66373 -1.507732,-1.48685 0,-0.82311 0.650832,-1.48684 1.507732,-1.48684 z"
           inkscape:connector-curvature="0" />
        <path
           style="fill:#492356;fill-opacity:1;stroke:none"
           sodipodi:nodetypes="ccccccccccccc"
           id="rect4875"
           d="m 43.096112,668 c -1.060411,0.554 -1.406518,1.7592 -0.794292,2.71875 L 46.722226,678 l -1.746288,2.36796 1.414082,2.08517 1.60998,-2.48438 1.57873,2.48438 1.401138,-1.99679 L 49.277774,678 53.69818,670.71875 C 54.310406,669.7592 53.964299,668.554 52.903888,668 L 48,676 43.096112,668 z"
           inkscape:connector-curvature="0" />
      </g>
      <g
         inkscape:label="places"
         id="layer13-2"
         transform="translate(-40,-668)"
         style="fill:#492356;fill-opacity:1" />
      <g
         inkscape:label="mimetypes"
         id="layer14-6"
         transform="translate(-40,-668)"
         style="fill:#492356;fill-opacity:1" />
      <g
         style="fill:#492356;fill-opacity:1;display:inline"
         inkscape:label="emblems"
         id="layer15-2"
         transform="translate(-40,-668)" />
    </g>
  </g>
</svg>
