<?xml version="1.0" encoding="UTF-8" standalone="no"?>
<!-- Created with Inkscape (http://www.inkscape.org/) -->

<svg
   xmlns:dc="http://purl.org/dc/elements/1.1/"
   xmlns:cc="http://creativecommons.org/ns#"
   xmlns:rdf="http://www.w3.org/1999/02/22-rdf-syntax-ns#"
   xmlns:svg="http://www.w3.org/2000/svg"
   xmlns="http://www.w3.org/2000/svg"
   xmlns:sodipodi="http://sodipodi.sourceforge.net/DTD/sodipodi-0.dtd"
   xmlns:inkscape="http://www.inkscape.org/namespaces/inkscape"
   width="256"
   height="256"
   id="svg5121"
   version="1.1"
   inkscape:version="0.48.3.1 r9886"
   sodipodi:docname="filequickprint.svg">
  <defs
     id="defs5123" />
  <sodipodi:namedview
     id="base"
     pagecolor="#ffffff"
     bordercolor="#666666"
     borderopacity="1.0"
     inkscape:pageopacity="0.0"
     inkscape:pageshadow="2"
     inkscape:zoom="1.1748062"
     inkscape:cx="217.93213"
     inkscape:cy="-15.737589"
     inkscape:document-units="px"
     inkscape:current-layer="layer1"
     showgrid="false"
     inkscape:window-width="1918"
     inkscape:window-height="1034"
     inkscape:window-x="0"
     inkscape:window-y="22"
     inkscape:window-maximized="1" />
  <metadata
     id="metadata5126">
    <rdf:RDF>
      <cc:Work
         rdf:about="">
        <dc:format>image/svg+xml</dc:format>
        <dc:type
           rdf:resource="http://purl.org/dc/dcmitype/StillImage" />
        <dc:title />
      </cc:Work>
    </rdf:RDF>
  </metadata>
  <g
     inkscape:label="Capa 1"
     inkscape:groupmode="layer"
     id="layer1"
     transform="translate(0,-796.36218)">
    <rect
       style="fill:#492356;fill-opacity:1;stroke:none"
       width="32.071808"
       height="20.70857"
       ry="2.7455945"
       rx="3.3597281"
       id="rect4899"
       y="854.6507"
       x="174.884" />
    <path
       style="font-size:medium;font-style:normal;font-variant:normal;font-weight:normal;font-stretch:normal;text-indent:0;text-align:start;text-decoration:none;line-height:normal;letter-spacing:normal;word-spacing:normal;text-transform:none;direction:ltr;block-progression:tb;writing-mode:lr-tb;text-anchor:start;color:#000000;fill:#492356;fill-opacity:1;stroke:none;stroke-width:2;marker:none;visibility:visible;display:inline;overflow:visible;enable-background:accumulate;font-family:Bitstream Vera Sans;-inkscape-font-specification:Bitstream Vera Sans"
       id="path41043-9"
       d="M 30.529114,992.98702 C 14.464724,993.47821 2.6213413,983.67746 2.6213413,962.90651 l 0,-116.65968 C 5.1920646,834.52147 17.126528,814.00536 30.529114,813.94407 l 0,-0.24703 1.839316,0 193.74054,0 c 14.59492,0.21665 27.35388,22.84278 27.69498,32.54979 0,0 0,104.25115 0,117.15294 -0.55827,17.72233 -10.18773,29.50625 -24.62947,29.58725 l -14.15609,-10.53311 5.41703,-23.08397 c 6.85056,-0.41996 6.64019,-5.30074 7.01013,-19.5615 0,-13.56262 0,-58.05637 0,-67.29114 0,-9.23477 -1.95,-23.88256 -29.27481,-23.88256 -27.99688,0 -110.866195,-1.01591 -135.006536,-1.44147 -21.224034,-0.37415 -28.855586,9.32598 -28.855586,34.05147 0,24.72549 0,40.37955 0,54.6514 0,14.27185 8.227546,22.09985 17.82989,22.13984 10.419676,0.0434 17.82989,0.43112 17.82989,0.43112 l 0,34.51992 z"
       inkscape:connector-curvature="0"
       sodipodi:nodetypes="ccccccccccccczsszzsccc" />
    <rect
       style="fill:#492356;fill-opacity:1;stroke:none"
       width="32.071808"
       height="20.70857"
       ry="2.7455945"
       rx="3.3597281"
       id="rect4899-2"
       y="854.64233"
       x="138.66939" />
    <path
       style="font-size:medium;font-style:normal;font-variant:normal;font-weight:normal;font-stretch:normal;text-indent:0;text-align:start;text-decoration:none;line-height:normal;letter-spacing:normal;word-spacing:normal;text-transform:none;direction:ltr;block-progression:tb;writing-mode:lr-tb;text-anchor:start;baseline-shift:baseline;color:#000000;fill:#492356;fill-opacity:1;stroke:none;stroke-width:1.99999988000000006;marker:none;visibility:visible;display:inline;overflow:visible;enable-background:accumulate;font-family:Sans;-inkscape-font-specification:Sans"
       d="m 46.15625,124.78125 0,110.5625 c -0.12643,7.369 5.44974,14.39945 12.5,15.78125 0.47986,0.016 0.95764,0.016 1.4375,0 0.47986,0.016 0.95764,0.016 1.4375,0 l 83.65625,0 c 4.06129,0.0967 8.1124,-1.5364 11.03125,-4.4375 l 33.40548,-32.6195 c 0,0 2.39659,-7.31668 -4.17898,-5.65326 -6.57558,1.66342 -17.19577,10.10379 -27.61646,10.91009 -10.4207,0.80629 -8.59558,0.8579 -13.2689,0.63269 -4.67333,-0.2252 -8.62239,-0.42627 -8.62239,-0.42627 l -59,0 0,-70.25 4.905204,0.0625 c 0,0 0.981502,-16.73832 6.033615,-24.5625 -3.227435,0 -10.938819,0 -10.938819,0 z m 81.73371,0.0313 c -12.18241,6.53004 -13.95169,25.09375 -13.95169,25.09375 0,0 32.09686,0.1876 45.35706,0.375 3.31504,0.0469 8.84429,-0.20206 12.49174,-0.20206 0,3.43112 -0.004,23.59601 -0.004,28.59833 4.39846,-1.17856 6.50046,-4.67242 8.69104,-8.47735 4.57305,-7.94319 4.30161,-16.27622 4.30161,-19.54392 0,-14.44341 -9.73057,-25.8125 -9.73057,-25.8125 0,0 -30.15696,-0.0313 -39.78152,-0.0313 z m 10.54754,47.34375 0,13.25605 c 0,0 8.50833,2.83491 16.05281,2.17825 7.54448,-0.65665 17.2566,-6.54918 17.2566,-6.54918 l 2.31195,-8.88512 z"
       transform="translate(0,796.36218)"
       id="path1234-3"
       inkscape:connector-curvature="0"
       sodipodi:nodetypes="ccccccccszscccccccccsccscccccczccc" />
    <g
       inkscape:label="status"
       transform="matrix(11.500581,0,0,11.615595,-1535.0553,-6631.0867)"
       id="layer9-5"
       style="fill:#694f69;fill-opacity:1;display:inline" />
    <g
       style="fill:#694f69;fill-opacity:1"
       inkscape:label="devices"
       transform="matrix(11.500581,0,0,11.615595,-1535.0553,-6631.0867)"
       id="layer10-8" />
    <g
       style="fill:#694f69;fill-opacity:1"
       inkscape:label="apps"
       transform="matrix(11.500581,0,0,11.615595,-1535.0553,-6631.0867)"
       id="layer11-9" />
    <g
       style="fill:#492356;fill-opacity:1;stroke:none"
       inkscape:label="actions"
       transform="matrix(11.500581,0,0,11.615595,-1535.1067,-6631.1545)"
       id="layer12-0">
      <path
         inkscape:connector-curvature="0"
         d="m 146.50761,646.99554 c -3.02886,0 -5.51073,2.47905 -5.51073,5.50447 0,3.02541 2.48187,5.50446 5.51073,5.50446 3.02885,0 5.51072,-2.47905 5.51072,-5.50446 0,-3.02542 -2.48187,-5.50447 -5.51072,-5.50447 z m 0,2.00893 c 1.94735,0 3.49951,1.55039 3.49951,3.49554 0,1.94514 -1.55216,3.49553 -3.49951,3.49553 -1.94736,0 -3.49952,-1.55039 -3.49952,-3.49553 0,-1.94515 1.55216,-3.49554 3.49952,-3.49554 z"
         id="path27918"
         style="font-size:medium;font-style:normal;font-variant:normal;font-weight:normal;font-stretch:normal;text-indent:0;text-align:start;text-decoration:none;line-height:normal;letter-spacing:normal;word-spacing:normal;text-transform:none;direction:ltr;block-progression:tb;writing-mode:lr-tb;text-anchor:start;baseline-shift:baseline;color:#000000;fill:#492356;fill-opacity:1;stroke:none;stroke-width:1.55467153000000002;marker:none;visibility:visible;display:inline;overflow:visible;enable-background:new;font-family:Sans;-inkscape-font-specification:Sans" />
      <path
         inkscape:connector-curvature="0"
         d="m 149.8125,655 a 1.0001,1.0001 0 0 0 -0.5,1.71875 l 4,4 a 1.0054782,1.0054782 0 1 0 1.40625,-1.4375 l -4,-4 A 1.0001,1.0001 0 0 0 149.8125,655 z"
         id="path27941"
         style="font-size:medium;font-style:normal;font-variant:normal;font-weight:normal;font-stretch:normal;text-indent:0;text-align:start;text-decoration:none;line-height:normal;letter-spacing:normal;word-spacing:normal;text-transform:none;direction:ltr;block-progression:tb;writing-mode:lr-tb;text-anchor:start;baseline-shift:baseline;color:#000000;fill:#492356;fill-opacity:1;stroke:none;stroke-width:2;marker:none;visibility:visible;display:inline;overflow:visible;enable-background:new;font-family:Sans;-inkscape-font-specification:Sans" />
    </g>
    <g
       style="fill:#694f69;fill-opacity:1"
       inkscape:label="places"
       transform="matrix(11.500581,0,0,11.615595,-1535.0553,-6631.0867)"
       id="layer13-0" />
    <g
       style="fill:#694f69;fill-opacity:1"
       inkscape:label="mimetypes"
       transform="matrix(11.500581,0,0,11.615595,-1535.0553,-6631.0867)"
       id="layer14-0" />
    <g
       inkscape:label="emblems"
       transform="matrix(11.500581,0,0,11.615595,-1535.0553,-6631.0867)"
       id="layer15-7"
       style="fill:#694f69;fill-opacity:1;display:inline" />
    <g
       inkscape:label="categories"
       transform="matrix(11.500581,0,0,11.615595,-1535.0553,-6631.0867)"
       id="g4953"
       style="fill:#694f69;fill-opacity:1;display:inline" />
  </g>
</svg>
