<?xml version="1.0" encoding="UTF-8" standalone="no"?>
<!-- Created with Inkscape (http://www.inkscape.org/) -->

<svg
   xmlns:dc="http://purl.org/dc/elements/1.1/"
   xmlns:cc="http://creativecommons.org/ns#"
   xmlns:rdf="http://www.w3.org/1999/02/22-rdf-syntax-ns#"
   xmlns:svg="http://www.w3.org/2000/svg"
   xmlns="http://www.w3.org/2000/svg"
   xmlns:sodipodi="http://sodipodi.sourceforge.net/DTD/sodipodi-0.dtd"
   xmlns:inkscape="http://www.inkscape.org/namespaces/inkscape"
   width="256"
   height="256"
   id="svg2"
   version="1.1"
   inkscape:version="0.48.3.1 r9886"
   sodipodi:docname="folder-videos.svg">
  <defs
     id="defs4" />
  <sodipodi:namedview
     id="base"
     pagecolor="#ffffff"
     bordercolor="#666666"
     borderopacity="1.0"
     inkscape:pageopacity="0.0"
     inkscape:pageshadow="2"
     inkscape:zoom="0.88280258"
     inkscape:cx="-109.39995"
     inkscape:cy="191.24579"
     inkscape:document-units="px"
     inkscape:current-layer="layer1"
     showgrid="false"
     showguides="true"
     inkscape:guide-bbox="true"
     inkscape:window-width="993"
     inkscape:window-height="546"
     inkscape:window-x="29"
     inkscape:window-y="22"
     inkscape:window-maximized="0" />
  <metadata
     id="metadata7">
    <rdf:RDF>
      <cc:Work
         rdf:about="">
        <dc:format>image/svg+xml</dc:format>
        <dc:type
           rdf:resource="http://purl.org/dc/dcmitype/StillImage" />
        <dc:title />
      </cc:Work>
    </rdf:RDF>
  </metadata>
  <g
     inkscape:label="Layer 1"
     inkscape:groupmode="layer"
     id="layer1"
     transform="translate(0,-796.3622)">
    <path
       style="fill:#492356;fill-opacity:1;stroke:#a6f488;stroke-opacity:1;stroke-width:1.80000000000000004;stroke-miterlimit:4;stroke-dasharray:none"
       d="m 38.018492,805.45421 c -15.696383,0 -28.5140109,12.81725 -28.5140109,28.5135 l 0,182.59079 c 0,15.6963 12.8176279,28.0143 28.5140109,28.0143 l 183.089968,0 c 15.69638,0 28.01376,-12.318 28.01376,-28.0143 l 0,-182.59079 c 0,-15.69625 -12.31738,-28.5135 -28.01376,-28.5135 z m 22.372364,8.00459 138.568094,0 0,17.00757 c 0,15.69783 -11.10735,28.01418 -25.01229,28.01418 l -88.543512,0 c -13.904951,0 -25.012292,-12.31635 -25.012292,-28.01418 z m -36.379247,22.0102 15.007374,0 c 4.08106,0 7.503688,3.42237 7.503688,7.50352 l 0,7.50354 c 0,4.08115 -3.422628,7.00461 -7.503688,7.00461 l -15.007374,0 c -4.081059,0 -7.00344,-2.92346 -7.00344,-7.00461 l 0,-7.50354 c 0,-4.08115 2.922381,-7.50352 7.00344,-7.50352 z m 193.094861,2.00186 15.00739,0 c 4.08105,0 7.00344,2.9218 7.00344,7.00254 l 0,7.50393 c 0,4.08074 -2.92239,7.50354 -7.00344,7.50354 l -15.00739,0 c -4.08105,0 -7.50366,-3.4228 -7.50366,-7.50354 l 0,-7.50393 c 0,-4.08074 3.42261,-7.00254 7.50366,-7.00254 z m -193.595106,31.0148 14.507128,0 c 4.081061,0 7.503688,3.4228 7.503688,7.50354 l 0,7.00296 c 0,4.08073 -3.422627,7.50352 -7.503688,7.50352 l -14.507128,0 c -4.08106,0 -7.503688,-3.42279 -7.503688,-7.50352 l 0,-7.00296 c 0,-4.08074 3.422628,-7.50354 7.503688,-7.50354 z m 62.530726,0.99165 83.04079,0 c 15.6964,0 28.51403,12.81694 28.51403,28.51325 l 0,57.02895 c 0,15.69627 -12.81763,28.51355 -28.51403,28.51355 l -83.04079,0 c -15.696382,0 -28.514009,-12.81728 -28.514009,-28.51355 l 0,-57.02895 c 0,-15.69631 12.817627,-28.51325 28.514009,-28.51325 z m 130.56415,0.49563 14.50714,0 c 4.08106,0 7.50366,3.42279 7.50366,7.50352 l 0,7.50395 c 0,4.08074 -3.4226,7.50352 -7.50366,7.50352 l -14.50714,0 c -4.08107,0 -7.50369,-3.42278 -7.50369,-7.50352 l 0,-7.50395 c 0,-4.08073 3.42262,-7.50352 7.50369,-7.50352 z m -193.595122,30.51385 15.007374,0 c 4.081061,0 7.503688,3.42279 7.503688,7.50353 l 0,7.0046 c 0,4.08073 -3.422627,7.50353 -7.503688,7.50353 l -15.007374,0 c -4.081059,0 -7.003442,-3.4228 -7.003442,-7.50353 l 0,-7.0046 c 0,-4.08074 2.922383,-7.50353 7.003442,-7.50353 z m 193.094872,1.50457 15.00739,0 c 4.08106,0 7.00342,3.42279 7.00342,7.50352 l 0,7.50395 c 0,4.08073 -2.92236,7.50352 -7.00342,7.50352 l -15.00739,0 c -4.08105,0 -7.50369,-3.42279 -7.50369,-7.50352 l 0,-7.50395 c 0,-4.08073 3.42264,-7.50352 7.50369,-7.50352 z m -193.595117,32.01678 15.007374,0 c 4.081061,0 7.00344,3.42237 7.00344,7.50351 l 0,7.50353 c 0,4.08115 -2.922379,7.00305 -7.00344,7.00305 l -15.007374,0 c -4.081059,0 -7.503688,-2.9219 -7.503688,-7.00305 l 0,-7.50353 c 0,-4.08114 3.422629,-7.50351 7.503688,-7.50351 z m 193.094867,1.50416 14.50713,0 c 4.08108,0 7.50369,3.42279 7.50369,7.50393 l 0,7.50354 c 0,4.08277 -3.42261,7.50352 -7.50369,7.50352 l -14.50713,0 c -4.08106,0 -7.50369,-3.42075 -7.50369,-7.50352 l 0,-7.50354 c 0,-4.08114 3.42263,-7.50393 7.50369,-7.50393 z m -193.595113,31.51577 14.507128,0 c 4.08106,0 7.503688,3.42288 7.503688,7.50359 l 0,7.0045 c 0,4.08124 -3.422628,7.50359 -7.503688,7.50359 l -14.507128,0 c -4.081061,0 -7.503687,-3.42235 -7.503687,-7.50359 l 0,-7.0045 c 0,-4.08071 3.422626,-7.50359 7.503687,-7.50359 z m 192.594643,1.50455 15.00736,0 c 4.08107,0 7.50368,3.42289 7.50368,7.50359 l 0,7.50395 c 0,4.0807 -3.42261,7.00414 -7.50368,7.00414 l -15.00736,0 c -4.08107,0 -7.00345,-2.92344 -7.00345,-7.00414 l 0,-7.50395 c 0,-4.0807 2.92238,-7.50359 7.00345,-7.50359 z m -158.288688,71.03418 0,-17.0073 c 0,-15.6985 11.465405,-28.51372 25.512534,-28.51372 l 89.544004,0 c 14.04712,0 25.0123,12.81522 25.0123,28.51372 l 0,17.0073 m -174.875038,-40.51863 15.007373,0 c 4.08106,0 7.003442,3.42273 7.003442,7.50343 l 0,7.0031 c 0,4.0807 -2.922382,7.5034 -7.003442,7.5034 l -15.007373,0 c -4.081061,0 -7.50369,-3.4227 -7.50369,-7.5034 l 0,-7.0031 c 0,-4.0807 3.422629,-7.50343 7.50369,-7.50343 z m 193.094888,1.50463 14.50712,0 c 4.08105,0 7.50367,3.4227 7.50367,7.5034 l 0,7.5036 c 0,4.0812 -3.42262,7.0028 -7.50367,7.0028 l -14.50712,0 c -4.08107,0 -7.5037,-2.9216 -7.5037,-7.0028 l 0,-7.5036 c 0,-4.0807 3.42263,-7.5034 7.5037,-7.5034 z"
       id="rect3861"
       inkscape:connector-curvature="0"
       sodipodi:nodetypes="sssssssssccsssscssssssssssssssssssssssssssssssssssssssssssssssssssssssssssssssssssssssssssssssssssssssssssssssssssscsssscssssssssssssssssss" />
    <path
       sodipodi:type="arc"
       style="fill:#8abb22;fill-opacity:1;stroke:none"
       id="path4005"
       sodipodi:cx="7.8584957"
       sodipodi:cy="8.7078829"
       sodipodi:rx="1.7345328"
       sodipodi:ry="1.7345328"
       d="m 9.5880146,8.5760927 a 1.7345328,1.7345328 0 1 1 -0.00329,-0.03775"
       transform="matrix(17.096506,0,0,17.096506,-7.0606192,778.52206)"
       sodipodi:start="6.2071318"
       sodipodi:end="12.46847"
       sodipodi:open="true" />
    <path
       inkscape:connector-curvature="0"
       style="fill:#8abb22;fill-opacity:1;stroke:none"
       d="m 158.54783,813.86055 c 0,13.76952 -13.76,27.74913 -29.66923,27.75778 -15.90922,0 -29.814533,-14.57298 -29.814533,-27.69111 10.595483,-0.17098 50.908753,0 59.483763,0 z"
       id="path4005-5-1-6"
       sodipodi:nodetypes="czccc" />
    <path
       inkscape:connector-curvature="0"
       style="fill:#8abb22;fill-opacity:1;stroke:none"
       d="m 96.921196,1039.9275 c 0,-13.7693 13.760004,-27.7493 29.669234,-27.7575 15.90921,0 29.81453,14.5727 29.81453,27.691 -10.59547,0.1723 -50.90875,0 -59.483764,0 z"
       id="path4005-5-1-6-6"
       sodipodi:nodetypes="czccc" />
  </g>
</svg>
