<?xml version="1.0" encoding="UTF-8" standalone="no"?>
<!-- Created with Inkscape (http://www.inkscape.org/) -->

<svg
   xmlns:dc="http://purl.org/dc/elements/1.1/"
   xmlns:cc="http://creativecommons.org/ns#"
   xmlns:rdf="http://www.w3.org/1999/02/22-rdf-syntax-ns#"
   xmlns:svg="http://www.w3.org/2000/svg"
   xmlns="http://www.w3.org/2000/svg"
   xmlns:sodipodi="http://sodipodi.sourceforge.net/DTD/sodipodi-0.dtd"
   xmlns:inkscape="http://www.inkscape.org/namespaces/inkscape"
   width="256"
   height="256"
   id="svg2"
   version="1.1"
   inkscape:version="0.48.3.1 r9886"
   sodipodi:docname="gtk-directory.svg">
  <defs
     id="defs4" />
  <sodipodi:namedview
     id="base"
     pagecolor="#ffffff"
     bordercolor="#666666"
     borderopacity="1.0"
     inkscape:pageopacity="0.0"
     inkscape:pageshadow="2"
     inkscape:zoom="1.7656052"
     inkscape:cx="78.38057"
     inkscape:cy="99.174791"
     inkscape:document-units="px"
     inkscape:current-layer="layer1"
     showgrid="false"
     showguides="true"
     inkscape:guide-bbox="true"
     inkscape:window-width="1918"
     inkscape:window-height="1034"
     inkscape:window-x="0"
     inkscape:window-y="22"
     inkscape:window-maximized="1" />
  <metadata
     id="metadata7">
    <rdf:RDF>
      <cc:Work
         rdf:about="">
        <dc:format>image/svg+xml</dc:format>
        <dc:type
           rdf:resource="http://purl.org/dc/dcmitype/StillImage" />
        <dc:title />
      </cc:Work>
    </rdf:RDF>
  </metadata>
  <g
     inkscape:label="Layer 1"
     inkscape:groupmode="layer"
     id="layer1"
     transform="translate(0,-796.3622)">
    <path
       style="fill:#492356;fill-opacity:1;stroke:#a6f488;stroke-opacity:1;stroke-width:1.80000000000000004;stroke-miterlimit:4;stroke-dasharray:none"
       d="m 139.30486,874.96318 c 14.3025,-0.0177 27.63463,4.77437 27.66192,27.98036 29.09008,0 22.56708,0 53.5496,0 17.36451,0 31.3603,13.94237 31.38071,31.30612 l 0.0762,65.19598 c 0.0213,17.36376 -13.94247,31.35916 -31.30695,31.38046 l -183.048084,0.2125 c -17.364494,0 -31.360294,-13.9424 -31.3807214,-31.30606 L 6.1195425,899.43183 c -0.020366,-17.36376 3.7259651,-24.16582 22.6632295,-24.27916 18.937262,-0.17709 77.646128,-0.65524 110.522088,-0.19479 z"
       id="rect2995"
       inkscape:connector-curvature="0"
       sodipodi:nodetypes="cccsssssszc" />
    <path
       style="fill:#8abb22;fill-opacity:1;stroke:none;stroke-opacity:1;stroke-width:1;stroke-miterlimit:4;stroke-dasharray:none;marker-start:none"
       d="m 146.52833,864.87609 c 12.97797,-0.26563 24.49128,7.88408 26.13988,27.91838 15.28963,0 31.25133,0.17709 53.01087,0.17709 21.75955,0 19.31029,13.55807 19.31029,13.55807 0,0 -0.0195,-54.482 -0.0265,-60.13474 -0.007,-5.65274 -2.14009,-15.83547 -16.97977,-15.69911 -14.83967,0.17709 -42.20801,0.37189 -51.32854,0.3896 -9.12056,0.0177 -11.50069,10.52628 -11.50069,10.52628 0,0 -127.715858,0.53127 -144.473859,0.53127 -16.7580033,0 -14.797503,10.88401 -14.4840647,35.02504 0.029043,2.23842 3.3026188,-11.30194 12.3651507,-11.48258 9.062533,-0.17709 85.339243,-0.19479 127.967293,-0.81461 z"
       id="path3769"
       inkscape:connector-curvature="0"
       sodipodi:nodetypes="cczcczzczszcc" />
  </g>
</svg>
