<?xml version="1.0" encoding="UTF-8" standalone="no"?>
<!-- Created with Inkscape (http://www.inkscape.org/) -->

<svg
   xmlns:dc="http://purl.org/dc/elements/1.1/"
   xmlns:cc="http://creativecommons.org/ns#"
   xmlns:rdf="http://www.w3.org/1999/02/22-rdf-syntax-ns#"
   xmlns:svg="http://www.w3.org/2000/svg"
   xmlns="http://www.w3.org/2000/svg"
   xmlns:sodipodi="http://sodipodi.sourceforge.net/DTD/sodipodi-0.dtd"
   xmlns:inkscape="http://www.inkscape.org/namespaces/inkscape"
   width="256"
   height="256"
   id="svg2"
   version="1.1"
   inkscape:version="0.48.3.1 r9886"
   sodipodi:docname="help-browser.svg">
  <defs
     id="defs4" />
  <sodipodi:namedview
     id="base"
     pagecolor="#ffffff"
     bordercolor="#666666"
     borderopacity="1.0"
     inkscape:pageopacity="0.0"
     inkscape:pageshadow="2"
     inkscape:zoom="0.62423567"
     inkscape:cx="144.15666"
     inkscape:cy="160.44018"
     inkscape:document-units="px"
     inkscape:current-layer="layer1"
     showgrid="false"
     showguides="true"
     inkscape:guide-bbox="true"
     inkscape:window-width="790"
     inkscape:window-height="491"
     inkscape:window-x="516"
     inkscape:window-y="53"
     inkscape:window-maximized="0" />
  <metadata
     id="metadata7">
    <rdf:RDF>
      <cc:Work
         rdf:about="">
        <dc:format>image/svg+xml</dc:format>
        <dc:type
           rdf:resource="http://purl.org/dc/dcmitype/StillImage" />
        <dc:title />
      </cc:Work>
    </rdf:RDF>
  </metadata>
  <g
     inkscape:label="Layer 1"
     inkscape:groupmode="layer"
     id="layer1"
     transform="translate(0,-796.3622)">
    <path
       style="fill:#8abb22;fill-opacity:1;fill-rule:nonzero"
       inkscape:connector-curvature="0"
       id="path10-6"
       d="m 159.83633,1010.9928 c 0,19.2026 -15.42657,34.771 -34.45572,34.771 -19.018,0 -34.445002,-15.5684 -34.445002,-34.771 0,-19.19881 15.427002,-34.75271 34.445002,-34.75271 19.02915,0 34.45572,15.5539 34.45572,34.75271 z"
       class="fil0" />
    <path
       style="fill:#492356;fill-opacity:1;fill-rule:nonzero;stroke:#a6f488;stroke-opacity:1;stroke-width:1.8;stroke-miterlimit:4;stroke-dasharray:none"
       inkscape:connector-curvature="0"
       id="path12-0"
       d="m 119.0769,950.59937 c 0,-16.11473 0,-22.5536 0,-40.56022 36.60967,0 51.92464,-19.86002 52.56553,-39.85035 0.64087,-19.99033 -21.41086,-34.42077 -39.88452,-34.29156 -17.5491,0.12274 -39.443814,7.73117 -40.01442,33.15555 0,0 -27.169627,-0.31603 -37.968679,-0.61242 0.211138,-33.73684 37.436986,-65.29189 74.892199,-65.39845 53.21012,-0.15138 81.80196,26.66895 83.09394,67.07197 1.29198,40.40302 -46.03238,80.48548 -92.68405,80.48548 z"
       class="fil1"
       sodipodi:nodetypes="cczsccszc" />
  </g>
</svg>
