<?xml version="1.0" encoding="UTF-8" standalone="no"?>
<!-- Creator: CorelDRAW -->

<svg
   xmlns:dc="http://purl.org/dc/elements/1.1/"
   xmlns:cc="http://creativecommons.org/ns#"
   xmlns:rdf="http://www.w3.org/1999/02/22-rdf-syntax-ns#"
   xmlns:svg="http://www.w3.org/2000/svg"
   xmlns="http://www.w3.org/2000/svg"
   xmlns:sodipodi="http://sodipodi.sourceforge.net/DTD/sodipodi-0.dtd"
   xmlns:inkscape="http://www.inkscape.org/namespaces/inkscape"
   xml:space="preserve"
   width="256"
   height="256"
   style="fill-rule:evenodd"
   viewBox="0 0 72.24889 72.248891"
   id="svg2"
   version="1.1"
   inkscape:version="0.48.3.1 r9886"
   sodipodi:docname="huayra-menu-huayra.svg"><metadata
   id="metadata336"><rdf:RDF><cc:Work
       rdf:about=""><dc:format>image/svg+xml</dc:format><dc:type
         rdf:resource="http://purl.org/dc/dcmitype/StillImage" /><dc:title /></cc:Work></rdf:RDF></metadata><sodipodi:namedview
   pagecolor="#ffffff"
   bordercolor="#666666"
   borderopacity="1"
   objecttolerance="10"
   gridtolerance="10"
   guidetolerance="10"
   inkscape:pageopacity="0"
   inkscape:pageshadow="2"
   inkscape:window-width="1918"
   inkscape:window-height="1007"
   id="namedview334"
   showgrid="false"
   inkscape:zoom="1.7325669"
   inkscape:cx="204.36329"
   inkscape:cy="134.40266"
   inkscape:window-x="0"
   inkscape:window-y="25"
   inkscape:window-maximized="1"
   inkscape:current-layer="svg2" />
 <defs
   id="defs4">
  <style
   type="text/css"
   id="style6">
   
    .fil0 {fill:#99AE6A}
    .fil4 {fill:#73A848}
    .fil8 {fill:#6F448A;fill-rule:nonzero}
    .fil1 {fill:#99AE6A;fill-rule:nonzero}
    .fil3 {fill:#ABA0C0;fill-rule:nonzero}
    .fil2 {fill:#BA8FBA;fill-rule:nonzero}
    .fil5 {fill:#73A848;fill-rule:nonzero}
    .fil6 {fill:#98227A;fill-rule:nonzero}
    .fil9 {fill:#B299BF;fill-rule:nonzero}
    .fil7 {fill:#D189B2;fill-rule:nonzero}
   
  </style>
 
  
  
  
  
  
  
  
  
  
  
  
  
  
  
  
  
  
  
  
  
  
  
  
  
  
  
  
  
  
  
  
  
  
  
  
  
  
  
  
  
  
  
  
  
  
  
  
  
  
  
  
  
  
  
  
  
  
  
  
  
  
  
  
  
  
  
  
  
  
  
  
  
  
  
  
  
  
  
  
  
  
  
  
  
  
  
  
  
  
  
  
  
  
 
   
   
   
   
   
   
   
   
   
   
   
   
   
   
   
   
   
   
   
   
   
   
   
  </defs>
 
<path
   id="_121731384"
   class="fil0"
   d="m 10.419994,48.273804 4.67232,4.631536 c 8.005198,-20.892838 31.15471,-6.603494 22.484835,7.257699 l 6.332053,2.373867 C 56.116168,43.59071 27.498782,17.323422 10.419994,48.273804 z"
   inkscape:connector-curvature="0"
   style="fill:#8abb22;fill-opacity:1"
   sodipodi:nodetypes="ccccc" /><path
   id="_121328256"
   class="fil0"
   d="m 2.5483676,38.882572 c -3.04354736,-3.53308 -0.9633131,-2.498514 2.2043637,-0.227284 3.1676759,2.271165 7.9588387,4.761709 12.5597117,9.609875 l -2.263131,4.48202 C 7.6972972,46.182901 5.5919148,42.415668 2.5483676,38.882572 z"
   inkscape:connector-curvature="0"
   style="fill:#8abb22;fill-opacity:1"
   sodipodi:nodetypes="zsccz" /><path
   sodipodi:type="arc"
   style="fill:#8abb22;fill-opacity:1;stroke:none"
   id="path3582"
   sodipodi:cx="11.182829"
   sodipodi:cy="12.753372"
   sodipodi:rx="2.6694496"
   sodipodi:ry="2.6694496"
   d="m 13.844562,12.550547 a 2.6694496,2.6694496 0 1 1 -0.0051,-0.0581"
   transform="matrix(2.2096336,0,0,2.2096336,2.8901588,26.630817)"
   sodipodi:start="6.2071318"
   sodipodi:end="12.46847"
   sodipodi:open="true" /><path
   id="_121328256-7"
   class="fil0"
   d="m 6.4930464,19.446015 c -1.854495,-4.63251 -0.2396643,-3.03938 2.0442732,0.179527 2.2839254,3.218939 7.9842554,12.899907 10.9116414,19.341203 l -4.29354,2.978239 C 11.655148,32.22645 8.3475383,24.078525 6.4930464,19.446015 z"
   inkscape:connector-curvature="0"
   style="fill:#8abb22;fill-opacity:1;fill-rule:evenodd"
   sodipodi:nodetypes="zsccz" /><path
   id="_121328256-7-9"
   class="fil0"
   d="m 22.758365,7.3184911 c -0.151895,-4.9876039 1.247333,-3.0289982 1.858468,0.870324 0.669411,4.2710279 2.32983,17.6390639 3.054132,26.2705149 l -5.054901,1.323615 C 22.663984,25.453427 22.91024,12.306094 22.758377,7.3184751 z"
   inkscape:connector-curvature="0"
   style="fill:#8abb22;fill-opacity:1;fill-rule:evenodd"
   sodipodi:nodetypes="zsccz" /><path
   id="_121328256-7-4"
   class="fil0"
   d="m 38.718271,6.3519178 c 1.385954,-5.172897 2.215114,-3.223108 2.180565,0.9806923 -0.0345,4.2038489 -1.369392,20.9927279 -6.367975,29.0375209 l -4.683136,-1.978204 c 4.916768,-9.813265 7.484569,-22.867128 8.870546,-28.0400092 z"
   inkscape:connector-curvature="0"
   style="fill:#8abb22;fill-opacity:1;fill-rule:evenodd"
   sodipodi:nodetypes="zsccz" /><path
   id="_121328256-7-4-9"
   class="fil0"
   d="m 58.54861,16.307224 c 3.949165,-5.964623 3.371425,-1.853525 1.462062,1.891858 -3.811009,7.475639 -13.560849,18.589552 -20.90375,24.082053 L 35.487266,37.455201 C 44.625765,30.882422 54.599446,22.27183 58.54861,16.307224 z"
   inkscape:connector-curvature="0"
   style="fill:#8abb22;fill-opacity:1;fill-rule:evenodd"
   sodipodi:nodetypes="zsccz" /><path
   id="_121328256-7-4-9-1"
   class="fil0"
   d="m 67.215858,46.885358 c 6.534611,-1.494678 4.028735,1.191525 0.390025,2.727666 -3.908686,1.650119 -17.951852,5.920348 -26.818386,6.166448 l 0.09631,-6.11893 c 10.431836,-0.0085 19.797481,-1.280491 26.332092,-2.775184 z"
   inkscape:connector-curvature="0"
   style="fill:#8abb22;fill-opacity:1;fill-rule:evenodd"
   sodipodi:nodetypes="zsccz" /><path
   id="_121328256-9"
   class="fil0"
   d="m 63.118224,66.658114 c 4.674885,2.120691 2.581199,2.094114 -0.333403,1.70353 -3.911912,-0.524208 -12.700941,-3.544581 -19.101824,-5.89968 l 1.690088,-4.944463 c 8.898134,4.664646 13.070247,7.019921 17.74513,9.140613 z"
   inkscape:connector-curvature="0"
   style="fill:#8abb22;fill-opacity:1;fill-rule:evenodd"
   sodipodi:nodetypes="zsccz" /><path
   id="_121328256-7-4-9-1-7"
   class="fil0"
   d="m 66.732435,31.17885 c 6.300049,-3.454194 4.492321,-0.105417 1.186798,2.491501 -3.55076,2.790198 -16.785297,11.226709 -25.846464,14.206976 L 40.410796,41.987518 C 51.152445,38.75029 60.432384,34.633027 66.732435,31.17885 z"
   inkscape:connector-curvature="0"
   style="fill:#8abb22;fill-opacity:1;fill-rule:evenodd"
   sodipodi:nodetypes="zsccz"
   inkscape:transform-center-y="15.221217"
   inkscape:transform-center-x="-1.1028753" /></svg>