<?xml version="1.0" encoding="UTF-8" standalone="no"?>
<!-- Created with Inkscape (http://www.inkscape.org/) -->

<svg
   xmlns:dc="http://purl.org/dc/elements/1.1/"
   xmlns:cc="http://creativecommons.org/ns#"
   xmlns:rdf="http://www.w3.org/1999/02/22-rdf-syntax-ns#"
   xmlns:svg="http://www.w3.org/2000/svg"
   xmlns="http://www.w3.org/2000/svg"
   xmlns:xlink="http://www.w3.org/1999/xlink"
   xmlns:sodipodi="http://sodipodi.sourceforge.net/DTD/sodipodi-0.dtd"
   xmlns:inkscape="http://www.inkscape.org/namespaces/inkscape"
   height="256"
   id="svg2"
   inkscape:export-filename="/home/nicu/Desktop/out_of_the_box.png"
   inkscape:export-xdpi="90.000000"
   inkscape:export-ydpi="90.000000"
   inkscape:version="0.48.3.1 r9886"
   sodipodi:docname="huayra-menu-other.svg"
   sodipodi:version="0.32"
   width="256"
   version="1.1">
  <metadata
     id="metadata3">
    <rdf:RDF>
      <cc:Work
         rdf:about="">
        <dc:title />
        <dc:description />
        <dc:subject>
          <rdf:Bag>
            <rdf:li>office</rdf:li>
            <rdf:li>work</rdf:li>
          </rdf:Bag>
        </dc:subject>
        <dc:publisher>
          <cc:Agent
             rdf:about="http://www.openclipart.org/">
            <dc:title>Open Clip Art Library</dc:title>
          </cc:Agent>
        </dc:publisher>
        <dc:creator>
          <cc:Agent>
            <dc:title>Nicu Buculei</dc:title>
          </cc:Agent>
        </dc:creator>
        <dc:rights>
          <cc:Agent>
            <dc:title>Nicu Buculei</dc:title>
          </cc:Agent>
        </dc:rights>
        <dc:date />
        <dc:format>image/svg+xml</dc:format>
        <dc:type
           rdf:resource="http://purl.org/dc/dcmitype/StillImage" />
        <cc:license
           rdf:resource="http://web.resource.org/cc/PublicDomain" />
        <dc:language>en</dc:language>
      </cc:Work>
      <cc:License
         rdf:about="http://web.resource.org/cc/PublicDomain">
        <cc:permits
           rdf:resource="http://web.resource.org/cc/Reproduction" />
        <cc:permits
           rdf:resource="http://web.resource.org/cc/Distribution" />
        <cc:permits
           rdf:resource="http://web.resource.org/cc/DerivativeWorks" />
      </cc:License>
    </rdf:RDF>
  </metadata>
  <defs
     id="defs3">
    <defs
       id="defs877">
      <linearGradient
         gradientUnits="objectBoundingBox"
         id="linearGradient585"
         spreadMethod="pad"
         x1="0"
         x2="1"
         xlink:href="#linearGradient1017"
         y1="0.5"
         y2="0.5" />
      <linearGradient
         gradientUnits="objectBoundingBox"
         id="linearGradient579"
         spreadMethod="pad"
         x1="0"
         x2="1"
         xlink:href="#linearGradient1022"
         y1="0.5"
         y2="0.5" />
      <linearGradient
         id="linearGradient582"
         x1="0.4852941"
         x2="0.41176471"
         xlink:href="#linearGradient579"
         y1="0.51136363"
         y2="0.60227275" />
      <linearGradient
         id="linearGradient584"
         x1="0.50735295"
         x2="0.3272059"
         xlink:href="#linearGradient585"
         y1="0.12280702"
         y2="1.0964912" />
      <linearGradient
         id="linearGradient589"
         xlink:href="#linearGradient585" />
    </defs>
    <linearGradient
       id="linearGradient1017">
      <stop
         id="stop1019"
         offset="0.0000000"
         style="stop-color:#ffffff;stop-opacity:0.17500000;" />
      <stop
         id="stop1018"
         offset="1.0000000"
         style="stop-color:#ffffff;stop-opacity:0.37500000;" />
    </linearGradient>
    <linearGradient
       id="linearGradient1022">
      <stop
         id="stop1024"
         offset="0.0000000"
         style="stop-color:#000000;stop-opacity:0.40833300;" />
      <stop
         id="stop1023"
         offset="1.0000000"
         style="stop-color:#000000;stop-opacity:0.0000000;" />
    </linearGradient>
  </defs>
  <sodipodi:namedview
     bordercolor="#666666"
     borderopacity="1.0"
     id="base"
     inkscape:current-layer="layer1"
     inkscape:cx="129.29027"
     inkscape:cy="129.14066"
     inkscape:document-units="px"
     inkscape:guide-bbox="true"
     inkscape:pageopacity="0.0"
     inkscape:pageshadow="2"
     inkscape:window-height="847"
     inkscape:window-width="1510"
     inkscape:window-x="251"
     inkscape:window-y="42"
     inkscape:zoom="1.4142136"
     pagecolor="#ffffff"
     showguides="true"
     showgrid="false"
     inkscape:window-maximized="0" />
  <g
     id="layer1"
     inkscape:groupmode="layer"
     inkscape:label="Layer 1"
     transform="translate(0,128)">
    <g
       id="g6343"
       inkscape:groupmode="layer"
       inkscape:label="Layer 1"
       transform="translate(518.515,247.1309)" />
    <g
       id="g9086"
       inkscape:groupmode="layer"
       inkscape:label="Layer 1"
       transform="translate(434.515,108.7687)" />
    <g
       id="g5177"
       transform="translate(-0.18639175,-14.741535)">
      <path
         inkscape:connector-curvature="0"
         style="fill:#492356;fill-opacity:1;fill-rule:nonzero;stroke:none"
         sodipodi:nodetypes="ccccccccccc"
         id="path5973"
         d="M 136.42713,-55.930321 34.303991,-9.7378062 1.4312535,62.878602 c 0,0 23.8612365,3.037232 34.6520115,4.788636 L 37.036146,98.441968 183.68664,124.13 235.12838,57.920326 235.65859,32.11789 254.94153,5.4717671 233.69922,-42.598449 136.42713,-55.930321 z" />
      <path
         inkscape:connector-curvature="0"
         style="fill:#492356;fill-opacity:1;fill-rule:evenodd;stroke:none"
         sodipodi:nodetypes="ccccc"
         id="path3628"
         d="M 37.008454,-8.5056505 C 39.877423,-10.418298 136.77685,-54.914016 136.77685,-54.914016 l 4.89402,111.493681 c 0,0 -103.003145,40.588626 -103.003145,38.675958 0,-1.912647 -1.659271,-103.7612735 -1.659271,-103.7612735 z" />
      <path
         inkscape:connector-curvature="0"
         style="fill:#492356;fill-opacity:1;fill-rule:evenodd;stroke:none"
         sodipodi:nodetypes="ccccc"
         id="path3626"
         d="m 232.27756,-40.608934 -95.50204,-14.235338 4.76556,111.504523 90.98988,1.598077 -0.2534,-98.867262 z" />
      <g
         id="g5169"
         transform="matrix(1.5986903,1.629766,-1.629766,1.5986903,-45.837616,-355.22015)">
        <path
           sodipodi:nodetypes="csccscc"
           id="path5171"
           d="m 167.23713,50.182547 c 0,0 4.75036,6.074252 -3.79238,11.213624 -2.67308,1.608147 0.35898,5.808528 0.35898,5.808528 l 32.01412,-19.456663 c 0,0 -1.95044,-4.673039 -4.63985,-3.066248 -8.54925,5.10775 -11.17136,-2.259945 -11.17136,-2.259945 l -12.76951,7.760704 z"
           style="fill:#492356;fill-opacity:1;fill-rule:evenodd;stroke:#8abb22;stroke-width:1.26068449;stroke-opacity:1"
           inkscape:connector-curvature="0" />
        <path
           style="fill:#492356;fill-opacity:1;fill-rule:evenodd;stroke:#8abb22;stroke-width:1.26068449"
           d="M 138.45985,25.197872 173.59178,3.5659336 c 2.15498,-1.3096909 4.6026,-0.6649635 5.95328,1.7976986 L 194.90441,33.367682 152.33937,59.236708 136.98003,31.232659 c -1.08981,-1.986974 -0.47435,-4.847133 1.47982,-6.034787 z"
           id="path5173"
           sodipodi:nodetypes="ccccccc"
           inkscape:connector-curvature="0" />
        <rect
           transform="matrix(0.85455621,-0.51935891,0.48088758,0.87678226,0,0)"
           y="99.206093"
           x="110.16702"
           height="22.99649"
           width="39.847637"
           id="rect5175"
           style="fill:#a6f488;fill-opacity:1;fill-rule:evenodd;stroke:none" />
      </g>
      <path
         inkscape:connector-curvature="0"
         style="fill:#8abb22;fill-opacity:1;fill-rule:evenodd;stroke:none"
         sodipodi:nodetypes="ccccc"
         id="path2085"
         d="m 182.66107,10.329672 c 2.86897,-3.8252946 49.67032,-50.603035 49.67032,-50.603035 l -0.0898,98.296438 -49.82912,63.460375 0.24859,-111.153778 z" />
      <path
         inkscape:connector-curvature="0"
         style="fill:#8abb22;fill-opacity:1;fill-rule:evenodd;stroke:none"
         id="path2083"
         d="M 36.343313,-8.3186652 183.6174,10.329672 182.66107,121.74156 38.734129,96.398947 36.343313,-8.3186652 z" />
      <g
         transform="matrix(2.2829691,0,0,2.2829691,-267.6312,-99.834131)"
         id="g5164">
        <path
           inkscape:connector-curvature="0"
           style="fill:#492356;fill-opacity:1;fill-rule:evenodd;stroke:#8abb22;stroke-width:1.26068449;stroke-opacity:1"
           d="m 167.23713,50.182547 c 0,0 4.75036,6.074252 -3.79238,11.213624 -2.67308,1.608147 0.35898,5.808528 0.35898,5.808528 l 32.01412,-19.456663 c 0,0 -1.95044,-4.673039 -4.63985,-3.066248 -8.54925,5.10775 -11.17136,-2.259945 -11.17136,-2.259945 l -12.76951,7.760704 z"
           id="path9222"
           sodipodi:nodetypes="csccscc" />
        <path
           inkscape:connector-curvature="0"
           sodipodi:nodetypes="ccccccc"
           id="path2175"
           d="M 138.45985,25.197872 173.59178,3.5659336 c 2.15498,-1.3096909 4.6026,-0.6649635 5.95328,1.7976986 L 194.90441,33.367682 152.33937,59.236708 136.98003,31.232659 c -1.08981,-1.986974 -0.47435,-4.847133 1.47982,-6.034787 z"
           style="fill:#492356;fill-opacity:1;fill-rule:evenodd;stroke:#8abb22;stroke-width:1.26068449" />
        <rect
           style="fill:#a6f488;fill-opacity:1;fill-rule:evenodd;stroke:none"
           id="rect4355"
           width="39.847637"
           height="22.99649"
           x="110.16702"
           y="99.206093"
           transform="matrix(0.85455621,-0.51935891,0.48088758,0.87678226,0,0)" />
      </g>
      <path
         inkscape:connector-curvature="0"
         style="fill:#492356;fill-opacity:1;fill-rule:evenodd;stroke:none"
         sodipodi:nodetypes="ccccc"
         id="path5971"
         d="M 36.343313,-8.4596592 37.816399,67.008231 C 55.739204,71.763271 163.0012,88.693132 163.95752,86.780485 164.91386,84.867837 183.75837,10.0763 183.75837,11.905148 L 36.343313,-8.4596592 z" />
      <path
         inkscape:connector-curvature="0"
         style="fill:#8abb22;fill-opacity:1;fill-rule:evenodd;stroke:none"
         sodipodi:nodetypes="ccccc"
         id="path3630"
         d="M 36.343313,-8.4596592 5.2627437,60.058581 c 0,0 154.4465263,25.342612 155.4028463,23.429965 0.95632,-1.912668 21.99548,-72.680712 21.99548,-72.680712 L 36.343313,-8.4596592 z" />
      <path
         inkscape:connector-curvature="0"
         style="fill:#492356;fill-opacity:1;fill-rule:evenodd;stroke:none"
         sodipodi:nodetypes="ccccc"
         id="path5969"
         d="m 182.77345,14.212174 20.05422,65.847438 30.51261,-44.405922 -1.42849,-76.487414 -49.13834,55.045898 z" />
      <path
         inkscape:connector-curvature="0"
         style="fill:#8abb22;fill-opacity:1;fill-rule:evenodd;stroke:none"
         sodipodi:nodetypes="ccccc"
         id="path3632"
         d="M 182.40769,10.188678 204.65653,72.012644 251.99465,6.0262013 231.91179,-40.833724 182.40769,10.188678 z" />
      <rect
         y="-71.179718"
         x="95.523445"
         height="97.490791"
         width="97.490791"
         id="rect5087"
         style="fill:none;stroke:none" />
      <rect
         y="-71.179718"
         x="95.523445"
         height="97.490791"
         width="97.490791"
         id="rect4784"
         style="fill:none;stroke:none" />
    </g>
  </g>
</svg>
