<?xml version="1.0" encoding="UTF-8" standalone="no"?>
<!-- Created with Inkscape (http://www.inkscape.org/) -->

<svg
   xmlns:dc="http://purl.org/dc/elements/1.1/"
   xmlns:cc="http://creativecommons.org/ns#"
   xmlns:rdf="http://www.w3.org/1999/02/22-rdf-syntax-ns#"
   xmlns:svg="http://www.w3.org/2000/svg"
   xmlns="http://www.w3.org/2000/svg"
   xmlns:sodipodi="http://sodipodi.sourceforge.net/DTD/sodipodi-0.dtd"
   xmlns:inkscape="http://www.inkscape.org/namespaces/inkscape"
   height="256"
   id="svg1"
   inkscape:version="0.48.3.1 r9886"
   sodipodi:docname="huayra-menu-games.svg"
   sodipodi:version="0.32"
   version="1.0"
   width="256"
   x="0"
   y="0">
  <metadata
     id="metadata3">
    <rdf:RDF>
      <cc:Work
         rdf:about="">
        <dc:title>Part of the Flat Icon Collection (Wed Aug 25 23:23:49 2004)</dc:title>
        <dc:description />
        <dc:subject>
          <rdf:Bag>
            <rdf:li>hash</rdf:li>
            <rdf:li />
            <rdf:li>application</rdf:li>
            <rdf:li>computer</rdf:li>
            <rdf:li>icons</rdf:li>
            <rdf:li>theme</rdf:li>
          </rdf:Bag>
        </dc:subject>
        <dc:publisher>
          <cc:Agent
             rdf:about="http://www.openclipart.org">
            <dc:title>Danny Allen</dc:title>
          </cc:Agent>
        </dc:publisher>
        <dc:creator>
          <cc:Agent>
            <dc:title>Danny Allen</dc:title>
          </cc:Agent>
        </dc:creator>
        <dc:rights>
          <cc:Agent>
            <dc:title>Danny Allen</dc:title>
          </cc:Agent>
        </dc:rights>
        <dc:date />
        <dc:format>image/svg+xml</dc:format>
        <dc:type
           rdf:resource="http://purl.org/dc/dcmitype/StillImage" />
        <cc:license
           rdf:resource="http://web.resource.org/cc/PublicDomain" />
        <dc:language>en</dc:language>
      </cc:Work>
      <cc:License
         rdf:about="http://web.resource.org/cc/PublicDomain">
        <cc:permits
           rdf:resource="http://web.resource.org/cc/Reproduction" />
        <cc:permits
           rdf:resource="http://web.resource.org/cc/Distribution" />
        <cc:permits
           rdf:resource="http://web.resource.org/cc/DerivativeWorks" />
      </cc:License>
    </rdf:RDF>
  </metadata>
  <sodipodi:namedview
     bordercolor="#666666"
     borderopacity="1.0"
     id="base"
     inkscape:cx="131.38175"
     inkscape:cy="118.06478"
     inkscape:pageopacity="0.0"
     inkscape:pageshadow="2"
     inkscape:window-height="920"
     inkscape:window-width="1384"
     inkscape:window-x="394"
     inkscape:window-y="68"
     inkscape:zoom="1.7366335"
     pagecolor="#ffffff"
     showgrid="false"
     inkscape:window-maximized="0"
     inkscape:current-layer="svg1" />
  <defs
     id="defs3" />
  <path
     inkscape:connector-curvature="0"
     style="font-size:medium;font-style:normal;font-variant:normal;font-weight:normal;font-stretch:normal;text-indent:0;text-align:start;text-decoration:none;line-height:normal;letter-spacing:normal;word-spacing:normal;text-transform:none;direction:ltr;block-progression:tb;writing-mode:lr-tb;text-anchor:start;baseline-shift:baseline;color:#000000;fill:#8abb22;fill-opacity:1;stroke:#492356;stroke-width:1.45472050000000008;marker:none;visibility:visible;display:inline;overflow:visible;enable-background:accumulate;font-family:Sans;-inkscape-font-specification:Sans"
     d="M 63.007772,1.8708701 C 48.058627,1.6579521 33.046156,7.1512415 21.477891,18.394605 -1.658636,40.881331 -2.1963719,77.87675 20.290356,101.01328 c 13.633984,14.02797 32.613751,19.71807 50.589093,17.03268 l 65.450281,67.31641 c -3.20874,17.90124 1.96511,37.02734 15.60764,51.0641 22.48673,23.13653 59.4482,23.67428 82.58473,1.18755 23.13653,-22.48674 23.67428,-59.48215 1.18755,-82.61867 -6.99254,-7.1946 -15.38353,-12.22101 -24.32756,-15.03084 l -43.12457,-44.379975 2.30721,-1.425036 0.0678,-0.03402 5.12338,-3.12153 0.0678,-0.03402 1.73042,-1.017878 2.95188,-3.325115 0.50895,-4.444775 -2.13756,-3.901908 -4.03764,-1.933992 -4.41086,0.746454 -0.37322,0.203577 -1.79828,1.051819 -0.0678,0.03394 -5.25909,3.223317 -0.0678,0.03393 -5.12338,3.155456 -39.3584,-40.512 C 115.82481,35.274102 111.04702,26.768363 104.06263,19.582142 92.819274,8.0138789 77.956919,2.0837871 63.007772,1.8708701 z m 178.978858,44.3121109 -0.44109,0.03393 -1.01788,0.06786 -0.4411,0.06786 -0.50894,0.06786 -4.00371,1.933989 -2.17148,3.901909 0.50894,4.410853 2.95189,3.359034 4.34299,0.983959 0.44108,-0.03393 0.44108,-0.06786 0.0678,0 0.57681,-0.03393 4.13942,-1.696482 2.37507,-3.76619 -0.20359,-4.444783 -2.78222,-3.528684 -4.27514,-1.255395 z m -17.57556,4.275134 -0.40715,0.135718 -2.30722,0.814312 -0.23751,0.101792 -5.12337,2.00185 -0.23751,0.06786 -5.8359,2.510794 -0.20357,0.101792 -0.33931,0.135719 -3.29117,3.019739 -0.95002,4.342993 1.7304,4.105486 3.80014,2.341146 4.44476,-0.271437 0.4411,-0.169649 0.13571,-0.06786 0.20357,-0.101792 5.46268,-2.307215 0.20357,-0.101793 4.6823,-1.8322 0.23751,-0.101792 2.06971,-0.712522 3.5626,-2.714371 1.3572,-4.241205 -1.3572,-4.241204 -3.5626,-2.680443 -4.47872,-0.135718 z m -23.3436,11.705727 -4.44477,0.441084 -0.40716,0.169648 -0.37323,0.203578 -0.10183,0.06786 -4.0037,2.06971 -0.0678,0.03392 -4.20728,2.239357 -0.0678,0.03393 -4.37694,2.409004 -3.08759,3.223315 -0.64466,4.410854 2.03578,3.969769 3.93583,2.103638 4.44479,-0.610735 0.37323,-0.203578 4.30906,-2.375074 0.0678,-0.03393 4.07156,-2.171496 0,0.03393 3.9019,-2.035779 0.10173,-0.03393 0.30536,-0.169649 3.18939,-3.121526 0.81431,-4.376925 -1.90006,-4.037626 -3.86793,-2.239356 z"
     id="path3760" />
  <path
     d="m -55.063433,4.216783 a 3.0590796,3.0590796 0 1 1 -6.118159,0 3.0590796,3.0590796 0 1 1 6.118159,0 z"
     id="path1052"
     sodipodi:cx="-58.122513"
     sodipodi:cy="4.216783"
     sodipodi:rx="3.0590796"
     sodipodi:ry="3.0590796"
     sodipodi:stroke-cmyk="(0 0 0 0.8)"
     sodipodi:type="arc"
     style="font-size:12px;fill:#492356;fill-opacity:1;fill-rule:evenodd;stroke:#492356;stroke-width:0.48976466000000002;stroke-miterlimit:4;stroke-opacity:1;stroke-dasharray:none"
     transform="matrix(2.7811543,2.8615236,-2.8615236,2.7811543,349.57479,329.33446)" />
  <path
     d="m -55.063433,4.216783 a 3.0590796,3.0590796 0 1 1 -6.118159,0 3.0590796,3.0590796 0 1 1 6.118159,0 z"
     id="path1053"
     sodipodi:cx="-58.122513"
     sodipodi:cy="4.216783"
     sodipodi:rx="3.0590796"
     sodipodi:ry="3.0590796"
     sodipodi:stroke-cmyk="(0 0 0 0.8)"
     sodipodi:type="arc"
     style="font-size:12px;fill:#492356;fill-opacity:1;fill-rule:evenodd;stroke:#492356;stroke-width:0.48976466000000002;stroke-miterlimit:4;stroke-opacity:1;stroke-dasharray:none"
     transform="matrix(2.7811543,2.8615236,-2.8615236,2.7811543,389.07518,369.97621)" />
  <path
     d="m -55.063433,4.216783 a 3.0590796,3.0590796 0 1 1 -6.118159,0 3.0590796,3.0590796 0 1 1 6.118159,0 z"
     id="path1054"
     sodipodi:cx="-58.122513"
     sodipodi:cy="4.216783"
     sodipodi:rx="3.0590796"
     sodipodi:ry="3.0590796"
     sodipodi:stroke-cmyk="(0 0 0 0.8)"
     sodipodi:type="arc"
     style="font-size:12px;fill:#492356;fill-opacity:1;fill-rule:evenodd;stroke:#492356;stroke-width:0.48976466000000002;stroke-miterlimit:4;stroke-opacity:1;stroke-dasharray:none"
     transform="matrix(2.7811543,2.8615236,-2.8615236,2.7811543,347.1195,371.84519)" />
  <path
     d="m -55.063433,4.216783 a 3.0590796,3.0590796 0 1 1 -6.118159,0 3.0590796,3.0590796 0 1 1 6.118159,0 z"
     id="path1055"
     sodipodi:cx="-58.122513"
     sodipodi:cy="4.216783"
     sodipodi:rx="3.0590796"
     sodipodi:ry="3.0590796"
     sodipodi:stroke-cmyk="(0 0 0 0.8)"
     sodipodi:type="arc"
     style="font-size:12px;fill:#492356;fill-opacity:1;fill-rule:evenodd;stroke:#492356;stroke-width:0.48976466000000002;stroke-miterlimit:4;stroke-opacity:1;stroke-dasharray:none"
     transform="matrix(2.7811543,2.8615236,-2.8615236,2.7811543,390.26239,329.91389)" />
  <path
     d="M 86.407745,28.819494 C 84.536816,26.894498 81.4809,26.850954 79.555913,28.722044 L 64.028302,43.813546 48.936797,28.285958 c -1.870926,-1.924997 -4.926842,-1.968539 -6.851828,-0.09744 l -9.881206,9.603656 c -1.92499,1.870908 -1.968513,4.926857 -0.09759,6.851854 L 47.197679,60.171612 31.670073,75.263107 c -1.924992,1.870955 -1.968513,4.926855 -0.09759,6.851852 l 9.603685,9.8812 c 1.870931,1.924999 4.926841,1.968493 6.851828,0.09738 L 63.555608,77.002113 78.647112,92.529704 c 1.870932,1.924988 4.926843,1.968493 6.851828,0.09738 l 9.881202,-9.603701 c 1.92501,-1.870909 1.968526,-4.926811 0.0976,-6.851807 L 80.386228,60.644047 95.913829,45.552505 c 1.924998,-1.870908 1.96853,-4.926809 0.0976,-6.851806 l -9.60367,-9.881205 z"
     id="path1058"
     sodipodi:stroke-cmyk="(0 0 0 0.8)"
     style="font-size:12px;fill:#492356;fill-opacity:1;fill-rule:evenodd;stroke:#492356;stroke-width:1.95434725000000009;stroke-miterlimit:4;stroke-opacity:1;stroke-dasharray:none"
     inkscape:connector-curvature="0" />
</svg>
