<?xml version="1.0" encoding="UTF-8" standalone="no"?>
<!-- Created with Inkscape (http://www.inkscape.org/) -->

<svg
   xmlns:dc="http://purl.org/dc/elements/1.1/"
   xmlns:cc="http://creativecommons.org/ns#"
   xmlns:rdf="http://www.w3.org/1999/02/22-rdf-syntax-ns#"
   xmlns:svg="http://www.w3.org/2000/svg"
   xmlns="http://www.w3.org/2000/svg"
   xmlns:sodipodi="http://sodipodi.sourceforge.net/DTD/sodipodi-0.dtd"
   xmlns:inkscape="http://www.inkscape.org/namespaces/inkscape"
   width="256"
   height="256"
   id="svg2"
   version="1.1"
   inkscape:version="0.48.3.1 r9886"
   sodipodi:docname="network-workgroup.svg">
  <defs
     id="defs4" />
  <sodipodi:namedview
     id="base"
     pagecolor="#ffffff"
     bordercolor="#666666"
     borderopacity="1.0"
     inkscape:pageopacity="0.0"
     inkscape:pageshadow="2"
     inkscape:zoom="0.88280258"
     inkscape:cx="113.69585"
     inkscape:cy="116.49169"
     inkscape:document-units="px"
     inkscape:current-layer="layer1"
     showgrid="false"
     showguides="true"
     inkscape:guide-bbox="true"
     inkscape:window-width="1022"
     inkscape:window-height="546"
     inkscape:window-x="0"
     inkscape:window-y="25"
     inkscape:window-maximized="0" />
  <metadata
     id="metadata7">
    <rdf:RDF>
      <cc:Work
         rdf:about="">
        <dc:format>image/svg+xml</dc:format>
        <dc:type
           rdf:resource="http://purl.org/dc/dcmitype/StillImage" />
        <dc:title />
      </cc:Work>
    </rdf:RDF>
  </metadata>
  <g
     inkscape:label="Layer 1"
     inkscape:groupmode="layer"
     id="layer1"
     transform="translate(0,-796.3622)">
    <path
       style="fill:#8abb22;fill-opacity:1;stroke:none"
       d="m 26.247765,804.2438 c -11.206884,0 -20.2042947,8.99658 -20.2042947,20.2043 l 0,52.53115 c 0,11.20611 8.9974107,20.7087 20.2042947,20.7087 l 91.424435,0 c 11.20688,0 20.20429,-9.50259 20.20429,-20.7087 l 0,-52.53115 c 0,-11.20772 -8.99741,-20.2043 -20.20429,-20.2043 l -91.424435,0 z m 12.627685,11.11235 65.66395,0 c 11.20689,0 20.2043,8.99658 20.2043,20.2043 l 0,24.24516 c 0,11.20611 -8.99741,20.2043 -20.2043,20.2043 l -65.66395,0 c -11.206885,0 -20.204296,-8.99819 -20.204296,-20.2043 l 0,-24.24516 c 0,-11.20772 8.997411,-20.2043 20.204296,-20.2043 z"
       id="rect3021"
       inkscape:connector-curvature="0" />
    <path
       style="fill:#492356;fill-opacity:1;stroke:none"
       d="m 138.43079,926.75442 c -11.20688,0 -20.20429,8.99679 -20.20429,20.2043 l 0,52.53124 c 0,11.20604 8.99741,20.70854 20.20429,20.70854 l 91.42443,0 c 11.20689,0 20.20429,-9.5025 20.20429,-20.70854 l 0,-52.53124 c 0,-11.20751 -8.9974,-20.2043 -20.20429,-20.2043 l -91.42443,0 z m 12.62768,11.11261 65.66396,0 c 11.20688,0 20.20429,8.9965 20.20429,20.2043 l 0,24.24499 c 0,11.20605 -8.99741,20.20428 -20.20429,20.20428 l -65.66396,0 c -11.20688,0 -20.20429,-8.99823 -20.20429,-20.20428 l 0,-24.24499 c 0,-11.2078 8.99741,-20.2043 20.20429,-20.2043 z"
       id="rect3021-8"
       inkscape:connector-curvature="0" />
    <rect
       style="fill:#8abb22;fill-opacity:1;stroke:none"
       id="rect3812"
       width="128.0229"
       height="18.881393"
       x="10.059513"
       y="900.23962"
       ry="5.4355526" />
    <rect
       style="fill:#492356;fill-opacity:1;stroke:none"
       id="rect3812-4"
       width="128.0229"
       height="18.881393"
       x="121.40279"
       y="1023.541"
       ry="5.4355526" />
    <path
       style="fill:#8abb22;fill-opacity:1;stroke:none"
       d="m 78.292773,921.9814 0,58.93361 18.881391,0 0,-9.15505 17.164906,17.16401 c 0,0 -12.07219,10.4997 -17.307945,15.73523 0,-5.98392 -0.14305,-8.86887 -0.14305,-8.86887 0,0 -18.260622,0 -31.755069,0 0,-7.43839 0,-73.23661 0,-73.23661 z"
       id="path3832"
       inkscape:connector-curvature="0"
       sodipodi:nodetypes="cccccccccc" />
    <path
       style="fill:#492356;fill-opacity:1;stroke:none"
       d="m 176.13354,921.55158 0,-58.93352 -18.8814,0 0,9.15496 -17.16491,-17.16395 c 0,0 12.0722,-10.49976 17.30796,-15.7351 0,5.9837 0.14223,8.86886 0.14223,8.86886 0,0 18.26061,0 31.75505,0 0,7.43842 0,73.23643 0,73.23643 z"
       id="path3832-5"
       inkscape:connector-curvature="0"
       sodipodi:nodetypes="cccccccccc" />
    <path
       sodipodi:type="arc"
       style="fill:#492356;fill-opacity:1;stroke:none"
       id="path3852"
       sodipodi:cx="4.2832341"
       sodipodi:cy="3.7874734"
       sodipodi:rx="0.88496572"
       sodipodi:ry="0.88496572"
       d="m 5.1656417,3.7202336 a 0.88496572,0.88496572 0 1 1 -0.00168,-0.01926"
       transform="matrix(16.163436,0,0,16.163436,-0.0936213,787.52597)"
       sodipodi:start="6.2071318"
       sodipodi:end="12.46847"
       sodipodi:open="true" />
    <path
       transform="matrix(16.163436,0,0,16.163436,114.33907,909.96885)"
       sodipodi:type="arc"
       style="fill:#8abb22;fill-opacity:1;stroke:none"
       id="path3852-5"
       sodipodi:cx="4.2832341"
       sodipodi:cy="3.7874734"
       sodipodi:rx="0.88496572"
       sodipodi:ry="0.88496572"
       d="m 5.1656417,3.7202336 a 0.88496572,0.88496572 0 1 1 -0.00168,-0.01926"
       sodipodi:start="6.2071318"
       sodipodi:end="12.46847"
       sodipodi:open="true" />
  </g>
</svg>
