<?xml version="1.0" encoding="UTF-8" standalone="no"?>
<!-- Created with Inkscape (http://www.inkscape.org/) -->

<svg
   xmlns:dc="http://purl.org/dc/elements/1.1/"
   xmlns:cc="http://creativecommons.org/ns#"
   xmlns:rdf="http://www.w3.org/1999/02/22-rdf-syntax-ns#"
   xmlns:svg="http://www.w3.org/2000/svg"
   xmlns="http://www.w3.org/2000/svg"
   xmlns:sodipodi="http://sodipodi.sourceforge.net/DTD/sodipodi-0.dtd"
   xmlns:inkscape="http://www.inkscape.org/namespaces/inkscape"
   width="256"
   height="256"
   id="svg5121"
   version="1.1"
   inkscape:version="0.48.3.1 r9886"
   sodipodi:docname="application-exit.svg">
  <defs
     id="defs5123" />
  <sodipodi:namedview
     id="base"
     pagecolor="#ffffff"
     bordercolor="#666666"
     borderopacity="1.0"
     inkscape:pageopacity="0.0"
     inkscape:pageshadow="2"
     inkscape:zoom="2.3496124"
     inkscape:cx="210.06928"
     inkscape:cy="133.77106"
     inkscape:document-units="px"
     inkscape:current-layer="layer1"
     showgrid="false"
     inkscape:window-width="1918"
     inkscape:window-height="1032"
     inkscape:window-x="0"
     inkscape:window-y="25"
     inkscape:window-maximized="1"
     showguides="true"
     inkscape:guide-bbox="true" />
  <metadata
     id="metadata5126">
    <rdf:RDF>
      <cc:Work
         rdf:about="">
        <dc:format>image/svg+xml</dc:format>
        <dc:type
           rdf:resource="http://purl.org/dc/dcmitype/StillImage" />
        <dc:title />
      </cc:Work>
    </rdf:RDF>
  </metadata>
  <g
     inkscape:label="Capa 1"
     inkscape:groupmode="layer"
     id="layer1"
     transform="translate(0,-796.36218)">
    <g
       inkscape:label="status"
       transform="translate(-189.44005,322.89394)"
       id="layer9"
       style="display:inline" />
    <g
       inkscape:label="devices"
       transform="translate(-189.44005,322.89394)"
       id="layer10" />
    <g
       inkscape:label="apps"
       transform="translate(-189.44005,322.89394)"
       id="layer11" />
    <g
       inkscape:label="places"
       transform="translate(-189.44005,322.89394)"
       id="layer13" />
    <g
       inkscape:label="mimetypes"
       transform="translate(-189.44005,322.89394)"
       id="layer14" />
    <g
       inkscape:label="emblems"
       transform="translate(-189.44005,322.89394)"
       id="layer15"
       style="display:inline" />
    <g
       inkscape:label="emotes"
       transform="translate(-189.44005,322.89394)"
       id="g71291"
       style="display:inline" />
    <g
       inkscape:label="categories"
       transform="translate(-189.44005,322.89394)"
       id="g4953"
       style="display:inline" />
    <path
       style="font-size:medium;font-style:normal;font-variant:normal;font-weight:normal;font-stretch:normal;text-indent:0;text-align:start;text-decoration:none;line-height:normal;letter-spacing:normal;word-spacing:normal;text-transform:none;direction:ltr;block-progression:tb;writing-mode:lr-tb;text-anchor:start;baseline-shift:baseline;color:#000000;fill:#b8db7d;fill-opacity:1;stroke:#737373;stroke-width:3.74945641;stroke-miterlimit:4;stroke-dasharray:none;marker:none;visibility:visible;display:inline;overflow:visible;enable-background:new;font-family:Sans;-inkscape-font-specification:Sans"
       d="m 191.16558,855.9706 c -4.40665,0.22955 -7.30824,3.5103 -11.01403,7.34386 -14.13684,14.39798 -32.55098,34.12792 -45.96006,48.39144 0,0 -5.07421,5.7732 -5.07653,9.30703 -0.002,3.72634 5.34017,9.82106 5.34017,9.82106 15.16543,15.57144 31.22811,31.59384 46.78033,47.33689 0,0 7.0745,6.54378 11.46117,6.47112 4.08947,-0.0677 6.98584,-2.68244 10.47901,-6.38325 2.87328,-3.51251 4.80165,-8.06232 4.82494,-11.8487 -0.038,-4.25063 -1.76996,-8.45905 -4.70777,-11.43894 l -17.57558,-17.75133 50.79342,-0.52727 c 6.69926,0.17602 13.24536,-4.57524 15.34916,-11.14065 1.0519,-3.2827 1.05226,-6.91428 10e-4,-10.1972 -1.05125,-3.28293 -3.1484,-6.19936 -5.88864,-8.18912 -2.75747,-2.25564 -6.26492,-3.5158 -9.78374,-3.51511 l -50.79342,0.52727 17.22407,-18.13214 c 3.41632,-3.42442 5.19456,-8.51221 4.68287,-13.39841 -0.51168,-4.88619 -3.90404,-8.26078 -7.34855,-12.05689 -3.01333,-2.93425 -5.48294,-4.79182 -8.78782,-4.61966 z"
       id="path12113-8"
       inkscape:connector-curvature="0"
       sodipodi:nodetypes="accaccacccccssccccsca" />
    <path
       style="fill:#00923f;fill-opacity:1;stroke:#737373;stroke-width:3.74945641;stroke-miterlimit:4;stroke-dasharray:none"
       sodipodi:nodetypes="szzcs"
       id="rect4897-1-2-6"
       d="M 5.2104822,1025.1599 C 5.6560766,987.84028 0.77226705,835.39198 3.6850695,825.12261 6.597872,814.85323 103.95291,816.83121 115.85217,817.46177 c 11.89926,0.63056 1.32716,136.14392 0.01,177.44354 C 79.645635,1008.1152 5.1057617,1033.9305 5.2104822,1025.1599 z"
       inkscape:connector-curvature="0" />
    <path
       style="fill:#1f1a17;fill-rule:evenodd;stroke:none"
       inkscape:connector-curvature="0"
       id="path3001"
       class="fil1 str1"
       d="m 66.239074,1012.6996 c 34.023346,-9.0257 32.268699,-10.7611 48.389176,-12.81895 7.96474,-5.221 4.0453,-18.64764 5.08558,-28.11404 1.5759,-14.3405 1.72853,-43.24606 1.72853,-43.24606 0,0 -3.70254,10.85351 -5.2845,16.3624 -4.33044,15.07998 -1.53729,33.52318 -11.50297,45.6411 -5.434847,6.60857 -15.864897,6.57416 -23.211018,10.96115 -5.406961,3.2289 -15.204798,11.2144 -15.204798,11.2144 z"
       sodipodi:nodetypes="ccacaaac" />
    <path
       sodipodi:nodetypes="ccacccac"
       d="m 1.5319395,868.89366 c 1.7732,-28.9082 -8.08968,-36.93137 4.07953,-49.64593 7.3285405,-6.96411 21.3198705,-3.632 32.0939105,-3.95393 12.77732,-0.3818 38.27338,2.40818 38.27338,2.40818 l 0.11269,0.34777 c -43.34897,4.24502 -48.98206,-3.55199 -62.89712,9.60733 -8.0786005,13.30051 -4.2128505,20.49192 -7.3765205,30.44211 -1.17304,3.6894 -4.28587,10.79447 -4.28587,10.79447 z"
       class="fil1 str1"
       id="path3826"
       inkscape:connector-curvature="0"
       style="fill:#1f1a17;fill-rule:evenodd;stroke:none" />
    <path
       style="fill:#1f1a17;fill-rule:evenodd;stroke:none"
       inkscape:connector-curvature="0"
       id="path3002"
       class="fil1 str1"
       d="m 147.71569,943.83484 c -15.69676,-11.39954 -16.78541,-9.3662 -19.33857,-20.55146 -1.14513,-6.48579 1.84642,-8.43091 4.01173,-12.07954 2.88852,-4.86727 11.58064,-12.41747 11.58064,-12.41747 l 11.52107,-6.94281 c -6.77636,4.98955 -20.07364,22.25169 -17.93547,34.54356 4.44765,9.18029 9.26709,9.94975 13.17478,15.4876 1.57479,2.23176 4.10077,7.09438 4.10077,7.09438 z"
       sodipodi:nodetypes="ccacccacc" />
  </g>
</svg>
