<?xml version="1.0" encoding="UTF-8" standalone="no"?>
<!-- Created with Inkscape (http://www.inkscape.org/) -->

<svg
   xmlns:dc="http://purl.org/dc/elements/1.1/"
   xmlns:cc="http://creativecommons.org/ns#"
   xmlns:rdf="http://www.w3.org/1999/02/22-rdf-syntax-ns#"
   xmlns:svg="http://www.w3.org/2000/svg"
   xmlns="http://www.w3.org/2000/svg"
   xmlns:sodipodi="http://sodipodi.sourceforge.net/DTD/sodipodi-0.dtd"
   xmlns:inkscape="http://www.inkscape.org/namespaces/inkscape"
   width="256"
   height="256"
   id="svg5121"
   version="1.1"
   inkscape:version="0.48.3.1 r9886"
   sodipodi:docname="gtk-properties.svg">
  <defs
     id="defs5123" />
  <sodipodi:namedview
     id="base"
     pagecolor="#ffffff"
     bordercolor="#666666"
     borderopacity="1.0"
     inkscape:pageopacity="0.0"
     inkscape:pageshadow="2"
     inkscape:zoom="1.6614269"
     inkscape:cx="-255.05973"
     inkscape:cy="91.315635"
     inkscape:document-units="px"
     inkscape:current-layer="layer1"
     showgrid="false"
     inkscape:window-width="1918"
     inkscape:window-height="1032"
     inkscape:window-x="0"
     inkscape:window-y="25"
     inkscape:window-maximized="1"
     showguides="true"
     inkscape:guide-bbox="true" />
  <metadata
     id="metadata5126">
    <rdf:RDF>
      <cc:Work
         rdf:about="">
        <dc:format>image/svg+xml</dc:format>
        <dc:type
           rdf:resource="http://purl.org/dc/dcmitype/StillImage" />
        <dc:title />
      </cc:Work>
    </rdf:RDF>
  </metadata>
  <g
     inkscape:label="Capa 1"
     inkscape:groupmode="layer"
     id="layer1"
     transform="translate(0,-796.36218)">
    <path
       style="fill:#b8db7d;fill-opacity:1;stroke:#6d7570;stroke-width:3.83792615;stroke-miterlimit:4;stroke-opacity:1;stroke-dasharray:none"
       d="m 29.897468,803.38665 c -7.217678,20.02899 -1.075061,81.92448 0,122.86573 1.061385,40.4204 -7.326928,116.14642 6.366134,121.13692 13.693062,4.9907 53.152718,1.4407 79.736168,1.7288 28.69905,0.3111 86.10229,0 86.10229,0 -24.40463,-35.2302 -45.4172,-64.89297 -51.38193,-67.70853 l -2.76441,-1.31647 c -13.86263,-6.5433 -26.18524,-3.03256 -37.95052,-8.587 l -2.7644,-1.28655 C 82.65179,958.61291 84.728055,940.56532 86.958458,922.37776 l 24.729432,19.65732 c 1.77857,1.54956 2.3317,1.38301 7.1514,-0.44879 l 26.77269,-9.24522 c 6.69331,-18.7376 9.32396,-26.24978 5.7692,-29.02223 l -23.13689,-18.07157 c 12.28362,-6.70086 28.05325,-6.96144 44.89158,0.98735 37.95859,17.91792 7.55977,58.3725 18.23909,76.47506 11.81915,20.03104 25.62746,37.57372 41.28583,57.35632 l -0.0901,29.0521 0.0301,0 0.63101,-175.68916 c 0,0 -27.53584,-69.62384 -57.90233,-70.04229 -38.03434,-3.50968 -142.821404,-7.24439 -145.432002,0 z"
       id="rect4897-1-2"
       inkscape:connector-curvature="0"
       sodipodi:nodetypes="sazaccccccccccccccccccs" />
    <path
       style="fill:#00923f;fill-opacity:1;stroke:#6d7570;stroke-width:3.84613299;stroke-miterlimit:4;stroke-opacity:1;stroke-dasharray:none"
       d="m 149.55609,881.15848 c -7.58265,-0.0913 -14.59125,1.65322 -20.73306,5.018 l 23.13689,18.14894 c 3.55476,2.78431 0.92411,10.32866 -5.7692,29.14648 l -26.77269,9.2848 c -4.81971,1.83965 -5.37283,2.0069 -7.1514,0.45072 L 87.537199,923.46594 c -2.230402,18.26542 -4.306669,36.39028 20.282331,48.04662 l 2.76441,1.29206 c 11.76527,5.57821 24.08789,2.05245 37.95052,8.62375 l 2.76441,1.32211 c 5.835,2.76613 26.09527,31.38092 49.81944,65.74482 l 30.1681,0 0,-29.4169 c -14.8468,-18.8539 -28.01294,-35.84104 -39.33272,-55.10787 -10.67931,-18.18006 19.7195,-58.80785 -18.23908,-76.80247 -8.41917,-3.99141 -16.57587,-5.91834 -24.15852,-6.00958 z"
       id="rect3020"
       inkscape:connector-curvature="0" />
    <path
       style="fill:#1f1a17;fill-rule:evenodd;stroke:none"
       inkscape:connector-curvature="0"
       id="path3794"
       class="fil1 str1"
       d="m 27.692327,997.4903 c 1.7732,28.9082 -8.08968,36.9314 4.07953,49.6459 7.32854,6.9641 21.31987,3.632 32.09392,3.954 12.77732,0.3818 38.273373,-2.4082 38.273373,-2.4082 l 0.1127,-0.3478 c -43.348973,-4.245 -48.982073,3.552 -62.897133,-9.6073 -8.0786,-13.3005 -4.21284,-20.4919 -7.37651,-30.4421 -1.17305,-3.6894 -4.28588,-10.7945 -4.28588,-10.7945 z"
       sodipodi:nodetypes="ccacccac" />
    <path
       sodipodi:nodetypes="caaccsac"
       d="m 130.79872,802.2929 c 22.5561,-3.02577 37.33864,-6.27101 54.48165,-0.27675 7.63268,2.66885 13.5681,9.12879 18.89506,15.21189 8.67819,9.91003 20.50309,33.78314 20.50309,33.78314 l -3.84275,-1.22168 c -27.03914,-34.14729 -22.73825,-37.85838 -42.13133,-43.16494 -6.06534,-1.65967 -14.08336,-1.99498 -21.16152,-2.66041 -8.89291,-0.83604 -26.7442,-1.67125 -26.7442,-1.67125 z"
       class="fil1 str1"
       id="path3796"
       inkscape:connector-curvature="0"
       style="fill:#1f1a17;fill-rule:evenodd;stroke:none" />
    <path
       sodipodi:nodetypes="ccacaccc"
       d="m 113.8336,940.27796 c 14.06046,2.87142 21.91709,2.97349 32.64005,-5.25065 5.87697,-4.86616 10.1319,-15.25444 9.58751,-23.78543 -0.35883,-5.62304 -8.26095,-14.74729 -8.26095,-14.74729 0,0 3.02716,6.45916 3.01933,9.91352 -0.019,8.38548 -4.75949,18.71235 -7.43843,24.03164 -11.19106,6.06714 -15.66748,7.92781 -27.35741,9.93372 z"
       class="fil1 str1"
       id="path3811"
       inkscape:connector-curvature="0"
       style="fill:#1f1a17;fill-rule:evenodd;stroke:none" />
    <path
       style="fill:#1f1a17;fill-rule:evenodd;stroke:none"
       inkscape:connector-curvature="0"
       id="path3813"
       class="fil1 str1"
       d="m 113.94574,976.23976 c 16.91615,-3.02577 27.58664,-0.51758 39.65522,5.14028 4.34689,2.03786 7.53734,6.06432 10.55916,9.79486 8.2576,10.1943 20.19162,33.7831 20.19162,33.7831 l -5.89136,-5.4348 c -20.27825,-34.14738 -18.25655,-25.21873 -29.18921,-34.73853 -3.65168,-3.17977 -9.86474,-5.47619 -15.26838,-6.87366 -6.49516,-1.67976 -20.05705,-1.67125 -20.05705,-1.67125 z"
       sodipodi:nodetypes="caaccsac" />
  </g>
</svg>
