<?xml version="1.0" encoding="UTF-8" standalone="no"?>
<!-- Created with Inkscape (http://www.inkscape.org/) -->

<svg
   xmlns:dc="http://purl.org/dc/elements/1.1/"
   xmlns:cc="http://creativecommons.org/ns#"
   xmlns:rdf="http://www.w3.org/1999/02/22-rdf-syntax-ns#"
   xmlns:svg="http://www.w3.org/2000/svg"
   xmlns="http://www.w3.org/2000/svg"
   xmlns:sodipodi="http://sodipodi.sourceforge.net/DTD/sodipodi-0.dtd"
   xmlns:inkscape="http://www.inkscape.org/namespaces/inkscape"
   width="256"
   height="256"
   id="svg4374"
   version="1.1"
   inkscape:version="0.48.3.1 r9886"
   sodipodi:docname="document-open.svg">
  <defs
     id="defs4376" />
  <sodipodi:namedview
     id="base"
     pagecolor="#ffffff"
     bordercolor="#666666"
     borderopacity="1.0"
     inkscape:pageopacity="0.0"
     inkscape:pageshadow="2"
     inkscape:zoom="1.7124294"
     inkscape:cx="180.67469"
     inkscape:cy="98.571429"
     inkscape:document-units="px"
     inkscape:current-layer="layer1"
     showgrid="false"
     inkscape:window-width="1918"
     inkscape:window-height="1032"
     inkscape:window-x="0"
     inkscape:window-y="25"
     inkscape:window-maximized="1" />
  <metadata
     id="metadata4379">
    <rdf:RDF>
      <cc:Work
         rdf:about="">
        <dc:format>image/svg+xml</dc:format>
        <dc:type
           rdf:resource="http://purl.org/dc/dcmitype/StillImage" />
        <dc:title />
      </cc:Work>
    </rdf:RDF>
  </metadata>
  <g
     inkscape:label="Capa 1"
     inkscape:groupmode="layer"
     id="layer1"
     transform="translate(0,-796.36218)">
    <path
       style="font-size:medium;font-style:normal;font-variant:normal;font-weight:normal;font-stretch:normal;text-indent:0;text-align:start;text-decoration:none;line-height:normal;letter-spacing:normal;word-spacing:normal;text-transform:none;direction:ltr;block-progression:tb;writing-mode:lr-tb;text-anchor:start;baseline-shift:baseline;color:#000000;fill:#b8db7d;fill-opacity:1;stroke:#737373;stroke-width:4;stroke-miterlimit:4;stroke-opacity:1;stroke-dasharray:none;marker:none;visibility:visible;display:inline;overflow:visible;enable-background:accumulate;font-family:Sans;-inkscape-font-specification:Sans"
       d="m 68.943928,922.49334 c -0.949223,-33.2951 -2.355962,-75.3482 0,-108.5625 0.362884,-5.116 5.44974,-7.5899 12.500002,-8.9717 0.47986,-0.016 0.95764,-0.016 1.4375,0 0.47986,-0.016 0.95764,-0.016 1.4375,0 l 83.65625,0 c 4.06129,-0.097 8.1124,1.5364 11.03125,4.4375 l 54.8125,56.2813 c 2.82457,2.9976 4.4048,7.1727 4.3125,11.3437 0,0 0.96833,31.8552 0,45.4717 -0.7447,10.4719 -30.75,8.8096 -30.75,8.8096 l 0,-0.9375 -0.0937,0.8437 -107.5625,0.094 c 0,0 -30.488903,1.4465 -30.781302,-8.8098 z"
       id="path1234-3-1"
       inkscape:connector-curvature="0"
       sodipodi:nodetypes="sscccccccsccccs" />
    <path
       style="fill:#1f1a17;fill-rule:evenodd;stroke:none"
       inkscape:connector-curvature="0"
       id="path2993"
       class="fil1 str1"
       d="m 236.13873,885.8993 c -42.7835,-2.1975 -52.25967,3.0946 -70.90573,-9.5127 -10.20306,-7.5832 -7.10499,-18.4525 -7.92699,-28.1737 -1.1039,-13.0551 4.14125,-39.0863 4.14125,-39.0863 l 0.51676,-0.1106 c 5.63526,44.3627 -5.996,50.0163 13.28265,64.414 19.57526,8.4342 30.28329,4.5789 44.97093,7.945 5.446,1.2481 15.92113,4.5243 15.92113,4.5243 z"
       sodipodi:nodetypes="ccacccac" />
    <path
       style="font-size:medium;font-style:normal;font-variant:normal;font-weight:normal;font-stretch:normal;text-indent:0;text-align:start;text-decoration:none;line-height:normal;letter-spacing:normal;word-spacing:normal;text-transform:none;direction:ltr;block-progression:tb;writing-mode:lr-tb;text-anchor:start;baseline-shift:baseline;color:#000000;fill:#00923f;fill-opacity:1;stroke:#737373;stroke-width:4;stroke-miterlimit:4;stroke-opacity:1;stroke-dasharray:none;marker:none;visibility:visible;display:inline;overflow:visible;enable-background:accumulate;font-family:Sans;-inkscape-font-specification:Sans"
       d="m 237.67615,883.70034 c 0,0 -50.26723,6.6358 -68.39421,-11.4912 -11.15902,-11.159 -8.51204,-35.8525 -8.51204,-35.8525 l -0.125,0 0,-30.9375 11.3125,0 c 2.453,0.7064 4.75756,1.9562 6.59375,3.7812 l 54.8125,56.2813 c 2.82457,2.9976 4.4048,7.1727 4.3125,11.3437 z"
       id="path3801"
       inkscape:connector-curvature="0"
       sodipodi:nodetypes="cscccccccc" />
    <path
       sodipodi:nodetypes="ccacccac"
       d="m 67.539522,863.61324 c 1.7732,-32.773 -8.08968,-41.8689 4.07953,-56.2832 7.328538,-7.89507 21.319869,-4.1175 32.093908,-4.4826 12.77733,-0.4328 38.27338,2.7302 38.27338,2.7302 l 0.1127,0.3943 c -43.348979,4.8125 -48.982069,-4.0269 -62.89713,10.8917 -8.078598,15.0786 -4.212839,23.2316 -7.376508,34.512 -1.17305,4.1827 -4.28588,12.2376 -4.28588,12.2376 z"
       class="fil1 str1"
       id="path3805"
       inkscape:connector-curvature="0"
       style="fill:#1f1a17;fill-rule:evenodd;stroke:none" />
    <g
       style="fill:#b8db7d;fill-opacity:1;display:inline"
       id="g3006"
       transform="matrix(15.380155,0,0,15.793058,-2149.9826,-9413.8287)"
       inkscape:label="status" />
    <g
       id="g3008"
       transform="matrix(15.380155,0,0,15.793058,-2149.9826,-9413.8287)"
       inkscape:label="devices"
       style="fill:#b8db7d;fill-opacity:1" />
    <g
       id="g3010"
       transform="matrix(15.380155,0,0,15.793058,-2149.9826,-9413.8287)"
       inkscape:label="apps"
       style="fill:#b8db7d;fill-opacity:1" />
    <path
       inkscape:connector-curvature="0"
       d="m 13.601929,867.45206 c -4.4468599,0 -8.1706999,3.8235 -8.1706999,8.39085 l 0,156.94349 c 0,4.7143 3.57804,8.3893 8.1706999,8.3893 l 212.438391,0 c 4.59252,0 8.17071,-3.6735 8.17071,-8.3893 l 17.30268,-77.63707 c 0,-4.56577 -3.72385,-8.38927 -8.17071,-8.38927 0,0 -166.203155,-7.81226 -175.977808,3.50379 -9.774654,11.31606 -15.793503,51.42925 -15.793503,51.42925 0,4.3746 -3.42977,7.8965 -7.69008,7.8965 -4.2603,0 -7.69007,-3.5219 -7.69007,-7.8965 l 0,-78.91164 c 0,-4.37468 3.42977,-7.89653 7.69007,-7.89653 0,0 6.530577,2.30284 7.16946,0 3.416091,-12.31322 4.771319,-37.38846 -0.583966,-44.51304 -4.761833,-6.33506 -36.865174,-2.91983 -36.865174,-2.91983 z"
       id="path3014"
       sodipodi:nodetypes="cccccccczcscccssc"
       style="fill:#00923f;fill-opacity:1;stroke:#737373;stroke-width:4;stroke-miterlimit:4;stroke-opacity:1;stroke-dasharray:none;display:inline" />
    <g
       id="g3018"
       transform="matrix(15.380155,0,0,15.793058,-2149.9826,-9413.8287)"
       inkscape:label="places"
       style="fill:#b8db7d;fill-opacity:1" />
    <g
       id="g3020"
       transform="matrix(15.380155,0,0,15.793058,-2149.9826,-9413.8287)"
       inkscape:label="mimetypes"
       style="fill:#b8db7d;fill-opacity:1" />
    <g
       style="fill:#b8db7d;fill-opacity:1;display:inline"
       id="g3022"
       transform="matrix(15.380155,0,0,15.793058,-2149.9826,-9413.8287)"
       inkscape:label="emblems" />
    <g
       style="fill:#b8db7d;fill-opacity:1;display:inline"
       id="g3024"
       transform="matrix(15.380155,0,0,15.793058,-2149.9826,-9413.8287)"
       inkscape:label="categories" />
    <path
       style="fill:#1f1a17;fill-rule:evenodd;stroke:none"
       inkscape:connector-curvature="0"
       id="path3806"
       class="fil1 str1"
       d="m 50.312534,1000.5532 c 1.7732,-32.773 -0.790109,-40.40899 11.379101,-54.82329 7.32854,-7.89507 21.31987,-4.1175 32.093908,-4.4826 12.777327,-0.4328 38.273377,2.7302 38.273377,2.7302 l 0.1127,0.3943 c -43.348975,4.8125 -59.201464,0.64483 -66.108936,10.30773 -8.0786,15.0786 -7.405594,14.14688 -10.004356,21.66476 -2.709655,7.83868 -5.745794,24.2089 -5.745794,24.2089 z"
       sodipodi:nodetypes="ccacccac" />
    <path
       sodipodi:nodetypes="ccacccac"
       d="m 3.8872624,924.92963 c 1.0649083,-32.77299 -4.85831682,-41.86889 2.4499917,-56.28319 4.4012089,-7.89507 12.8038049,-4.1175 19.2742319,-4.4826 7.673518,-0.4328 22.985358,2.7302 22.985358,2.7302 l 0.06768,0.3943 c -26.033545,4.8125 -29.416539,-4.0269 -37.773331,10.8917 -4.8516622,15.0786 -2.5300518,23.2316 -4.4300168,34.512 -0.7044838,4.1827 -2.5739168,12.23759 -2.5739168,12.23759 z"
       class="fil1 str1"
       id="path3808"
       inkscape:connector-curvature="0"
       style="fill:#1f1a17;fill-rule:evenodd;stroke:none" />
    <path
       sodipodi:nodetypes="ccacccsc"
       d="m 246.56947,982.70398 c -4.69303,32.48102 0.20614,43.03682 -11.96307,57.45112 -7.32854,7.8951 -20.14893,3.6103 -30.34201,3.8987 -12.78509,0.3618 -38.27337,-2.7303 -38.27337,-2.7303 l -0.1127,-0.3943 c 43.34897,-4.8125 48.98206,4.027 62.89712,-10.8917 8.0786,-15.0786 9.98197,-15.44 11.46427,-23.7086 2.09959,-11.71205 6.32976,-23.62492 6.32976,-23.62492 z"
       class="fil1 str1"
       id="path3810"
       inkscape:connector-curvature="0"
       style="fill:#1f1a17;fill-rule:evenodd;stroke:none" />
  </g>
</svg>
