<?xml version="1.0" encoding="UTF-8" standalone="no"?>
<!-- Created with Inkscape (http://www.inkscape.org/) -->

<svg
   xmlns:dc="http://purl.org/dc/elements/1.1/"
   xmlns:cc="http://creativecommons.org/ns#"
   xmlns:rdf="http://www.w3.org/1999/02/22-rdf-syntax-ns#"
   xmlns:svg="http://www.w3.org/2000/svg"
   xmlns="http://www.w3.org/2000/svg"
   xmlns:sodipodi="http://sodipodi.sourceforge.net/DTD/sodipodi-0.dtd"
   xmlns:inkscape="http://www.inkscape.org/namespaces/inkscape"
   width="256"
   height="256"
   id="svg5121"
   version="1.1"
   inkscape:version="0.48.3.1 r9886"
   sodipodi:docname="document-print-preview.svg">
  <defs
     id="defs5123" />
  <sodipodi:namedview
     id="base"
     pagecolor="#ffffff"
     bordercolor="#666666"
     borderopacity="1.0"
     inkscape:pageopacity="0.0"
     inkscape:pageshadow="2"
     inkscape:zoom="2.3496124"
     inkscape:cx="65.992171"
     inkscape:cy="154.50326"
     inkscape:document-units="px"
     inkscape:current-layer="layer1"
     showgrid="false"
     inkscape:window-width="1918"
     inkscape:window-height="1032"
     inkscape:window-x="0"
     inkscape:window-y="25"
     inkscape:window-maximized="1" />
  <metadata
     id="metadata5126">
    <rdf:RDF>
      <cc:Work
         rdf:about="">
        <dc:format>image/svg+xml</dc:format>
        <dc:type
           rdf:resource="http://purl.org/dc/dcmitype/StillImage" />
        <dc:title />
      </cc:Work>
    </rdf:RDF>
  </metadata>
  <g
     inkscape:label="Capa 1"
     inkscape:groupmode="layer"
     id="layer1"
     transform="translate(0,-796.36218)">
    <g
       inkscape:label="status"
       transform="matrix(11.500581,0,0,11.615595,-1535.0553,-6631.0867)"
       id="layer9-5"
       style="fill:#694f69;fill-opacity:1;display:inline" />
    <g
       style="fill:#694f69;fill-opacity:1"
       inkscape:label="devices"
       transform="matrix(11.500581,0,0,11.615595,-1535.0553,-6631.0867)"
       id="layer10-8" />
    <g
       style="fill:#694f69;fill-opacity:1"
       inkscape:label="apps"
       transform="matrix(11.500581,0,0,11.615595,-1535.0553,-6631.0867)"
       id="layer11-9" />
    <g
       style="fill:#694f69;fill-opacity:1"
       inkscape:label="places"
       transform="matrix(11.500581,0,0,11.615595,-1535.0553,-6631.0867)"
       id="layer13-0" />
    <g
       style="fill:#694f69;fill-opacity:1"
       inkscape:label="mimetypes"
       transform="matrix(11.500581,0,0,11.615595,-1535.0553,-6631.0867)"
       id="layer14-0" />
    <g
       inkscape:label="emblems"
       transform="matrix(11.500581,0,0,11.615595,-1535.0553,-6631.0867)"
       id="layer15-7"
       style="fill:#694f69;fill-opacity:1;display:inline" />
    <g
       inkscape:label="categories"
       transform="matrix(11.500581,0,0,11.615595,-1535.0553,-6631.0867)"
       id="g4953"
       style="fill:#694f69;fill-opacity:1;display:inline" />
    <rect
       style="fill:#b8db7d;fill-opacity:1;stroke:#737373;stroke-width:4;stroke-miterlimit:4;stroke-opacity:1;stroke-dasharray:none"
       id="rect3791"
       width="218.75948"
       height="135.34146"
       x="25.548563"
       y="834.74713" />
    <rect
       style="fill:#00923f;fill-opacity:1;stroke:#737373;stroke-width:4;stroke-miterlimit:4;stroke-opacity:1;stroke-dasharray:none"
       width="32.071808"
       height="20.70857"
       ry="2.7455945"
       rx="3.3597281"
       id="rect4899-0"
       y="851.53912"
       x="170.47086" />
    <path
       style="font-size:medium;font-style:normal;font-variant:normal;font-weight:normal;font-stretch:normal;text-indent:0;text-align:start;text-decoration:none;line-height:normal;letter-spacing:normal;word-spacing:normal;text-transform:none;direction:ltr;block-progression:tb;writing-mode:lr-tb;text-anchor:start;color:#000000;fill:#00923f;fill-opacity:1;stroke:#737373;stroke-width:4;stroke-miterlimit:4;stroke-opacity:1;stroke-dasharray:none;marker:none;visibility:visible;display:inline;overflow:visible;enable-background:accumulate;font-family:Bitstream Vera Sans;-inkscape-font-specification:Bitstream Vera Sans"
       id="path41043-9-4"
       d="m 30.115969,989.87531 c -16.06439,0.4912 -27.9077699,-9.3095 -27.9077699,-30.0805 l 0,-116.6596 c 2.57072,-11.7254 14.5051799,-32.2415 27.9077699,-32.3028 l 0,-0.247 1.83931,0 193.740551,0 c 14.59492,0.2166 27.35388,22.8427 27.69498,32.5498 0,0 0,104.2511 0,117.1529 -0.55827,17.7223 -10.18773,29.5062 -24.62947,29.5872 l -44.55165,0 0,-34.5199 c 0,0 4.75104,0 14.4896,0 9.73856,0 28.33312,-5.096 28.33312,-18.6586 0,-13.5627 0,-58.0564 0,-67.2912 0,-9.2347 -1.95,-23.8825 -29.27481,-23.8825 -27.99688,0 -110.866201,-1.0159 -135.006541,-1.4415 -21.22404,-0.3742 -28.85559,9.326 -28.85559,34.0515 0,24.7255 0,40.3795 0,54.6514 0,14.2718 8.22755,22.0998 17.82989,22.1398 10.41968,0.043 17.82989,0.4311 17.82989,0.4311 l 0,34.5199 z"
       inkscape:connector-curvature="0"
       sodipodi:nodetypes="cccccccccccczzzsszzsccc" />
    <rect
       style="fill:#00923f;fill-opacity:1;stroke:#737373;stroke-width:4;stroke-miterlimit:4;stroke-opacity:1;stroke-dasharray:none"
       width="32.071808"
       height="20.70857"
       ry="2.7455945"
       rx="3.3597281"
       id="rect4899-2-2"
       y="851.5307"
       x="130.25624" />
    <path
       style="font-size:medium;font-style:normal;font-variant:normal;font-weight:normal;font-stretch:normal;text-indent:0;text-align:start;text-decoration:none;line-height:normal;letter-spacing:normal;word-spacing:normal;text-transform:none;direction:ltr;block-progression:tb;writing-mode:lr-tb;text-anchor:start;baseline-shift:baseline;color:#000000;fill:#b8db7d;fill-opacity:1;stroke:#737373;stroke-width:4;stroke-miterlimit:4;stroke-opacity:1;stroke-dasharray:none;marker:none;visibility:visible;display:inline;overflow:visible;enable-background:accumulate;font-family:Sans;-inkscape-font-specification:Sans"
       d="m 45.743099,926.84141 c -0.94922,33.2951 -2.35596,75.34809 0,108.56249 0.36289,5.116 5.44974,7.5899 12.5,8.9717 0.47986,0.016 0.95764,0.016 1.4375,0 0.47986,0.016 0.95764,0.016 1.4375,0 l 83.656261,0 c 4.06129,0.097 8.1124,-1.5364 11.03125,-4.4375 l 54.8125,-56.28139 c 2.82457,-2.9976 4.4048,-7.1727 4.3125,-11.3437 0,0 0.96833,-31.8552 0,-45.4716 -0.7447,-10.4719 -30.75,-8.8097 -30.75,-8.8097 l 0,0.9375 -0.0937,-0.8437 -107.562511,-0.094 c 0,0 -30.4889,-1.4464 -30.7813,8.8099 z"
       id="path1234-3-1"
       inkscape:connector-curvature="0"
       sodipodi:nodetypes="sscccccccsccccs" />
    <path
       sodipodi:nodetypes="ccacccac"
       d="m 254.2644,937.62841 c -1.7732,28.9083 8.08968,36.9315 -4.07953,49.646 -7.32854,6.9641 -21.31987,3.632 -32.09391,3.954 -12.77733,0.3818 -38.27338,-2.4082 -38.27338,-2.4082 l -0.1127,-0.3478 c 43.34898,-4.245 48.98207,3.552 62.89713,-9.6073 8.0786,-13.3005 4.21284,-20.492 7.37651,-30.4422 1.17305,-3.6894 4.28588,-10.7945 4.28588,-10.7945 z"
       class="fil1 str1"
       id="path3826"
       inkscape:connector-curvature="0"
       style="fill:#1f1a17;fill-rule:evenodd;stroke:none" />
    <path
       style="fill:#1f1a17;fill-rule:evenodd;stroke:none"
       inkscape:connector-curvature="0"
       id="path2993"
       class="fil1 str1"
       d="m 212.532,965.5188 c -42.7835,2.19752 -52.25967,-3.09461 -70.90573,9.51272 -10.20306,7.58314 -7.10499,18.4525 -7.92699,28.17368 -1.1039,13.0551 4.14125,39.0863 4.14125,39.0863 l 0.51676,0.1106 c 5.63526,-44.36272 -5.996,-50.0163 13.28265,-64.41396 19.57526,-8.4342 30.28329,-4.5789 44.97093,-7.94501 5.446,-1.2481 15.92113,-4.52433 15.92113,-4.52433 z"
       sodipodi:nodetypes="ccacccac" />
    <path
       style="font-size:medium;font-style:normal;font-variant:normal;font-weight:normal;font-stretch:normal;text-indent:0;text-align:start;text-decoration:none;line-height:normal;letter-spacing:normal;word-spacing:normal;text-transform:none;direction:ltr;block-progression:tb;writing-mode:lr-tb;text-anchor:start;baseline-shift:baseline;color:#000000;fill:#00923f;fill-opacity:1;stroke:#737373;stroke-width:4;stroke-miterlimit:4;stroke-opacity:1;stroke-dasharray:none;marker:none;visibility:visible;display:inline;overflow:visible;enable-background:accumulate;font-family:Sans;-inkscape-font-specification:Sans"
       d="m 214.47533,965.63431 c 0,0 -50.26723,-6.6357 -68.39421,11.4913 -11.15902,11.159 -8.51204,35.85249 -8.51204,35.85249 l -0.125,0 0,30.9375 11.3125,0 c 2.453,-0.7064 4.75756,-1.9562 6.59375,-3.7812 l 54.8125,-56.28139 c 2.82457,-2.9976 4.4048,-7.1727 4.3125,-11.3437 z"
       id="path3801"
       inkscape:connector-curvature="0"
       sodipodi:nodetypes="cscccccccc" />
    <path
       style="fill:#1f1a17;fill-rule:evenodd;stroke:none"
       inkscape:connector-curvature="0"
       id="path3803"
       class="fil1 str1"
       d="m 2.2040891,868.74881 c 1.7732,-32.773 -8.08968,-41.8689 4.07953,-56.2832 7.3285399,-7.8951 21.3198699,-4.1175 32.0939099,-4.4826 12.77733,-0.4328 38.27338,2.7302 38.27338,2.7302 l 0.1127,0.3943 c -43.34898,4.8125 -48.98207,-4.0269 -62.89713,10.8917 -8.0785999,15.0786 -4.21284,23.2316 -7.3765099,34.512 -1.17305,4.1827 -4.28588,12.2376 -4.28588,12.2376 z"
       sodipodi:nodetypes="ccacccac" />
    <path
       sodipodi:nodetypes="ccacccac"
       d="m 44.338699,985.72141 c 1.7732,32.77309 -8.08968,41.86899 4.07953,56.28329 7.32854,7.8951 21.31987,4.1175 32.09391,4.4826 12.77733,0.4328 38.273381,-2.7302 38.273381,-2.7302 l 0.1127,-0.3943 c -43.348981,-4.8125 -48.982071,4.0269 -62.897131,-10.8917 -8.0786,-15.0786 -4.21284,-23.2317 -7.37651,-34.51213 -1.17305,-4.18256 -4.28588,-12.23756 -4.28588,-12.23756 z"
       class="fil1 str1"
       id="path3805"
       inkscape:connector-curvature="0"
       style="fill:#1f1a17;fill-rule:evenodd;stroke:none" />
    <path
       sodipodi:nodetypes="ccaccacc"
       d="m 174.55223,851.33481 c 9.34858,-3.1684 18.1701,-3.7661 26.4083,-0.8829 4.5533,1.7628 2.87738,5.6316 3.4172,8.7307 0.68072,3.9079 -0.31542,11.918 -0.31542,11.918 l -0.19775,0.044 c -5.18184,-11.8359 -0.91989,-12.2073 -4.87315,-15.8484 -5.86638,-5.4032 -14.7052,-4.6748 -22.94538,-4.2763 z"
       class="fil1 str1"
       id="path2999"
       inkscape:connector-curvature="0"
       style="fill:#1f1a17;fill-rule:evenodd;stroke:none" />
    <path
       style="fill:#1f1a17;fill-rule:evenodd;stroke:none"
       inkscape:connector-curvature="0"
       id="path3814"
       class="fil1 str1"
       d="m 134.12003,850.90921 c 9.34858,-3.1684 18.1701,-3.7661 26.4083,-0.8829 4.5533,1.7628 2.87738,5.6316 3.4172,8.7307 0.68072,3.9079 -0.31542,11.918 -0.31542,11.918 l -0.19775,0.044 c -5.18184,-11.8359 -0.91989,-12.2073 -4.87315,-15.8484 -5.86638,-5.4032 -14.7052,-4.6748 -22.94538,-4.2763 z"
       sodipodi:nodetypes="ccaccacc" />
    <path
       inkscape:connector-curvature="0"
       d="m 188.96454,972.43394 a 11.888522,12.007414 0 0 0 -5.94366,20.6357 l 47.54933,48.02486 a 11.952454,12.071987 0 1 0 16.71656,-17.2589 l -47.54933,-48.02491 a 11.888522,12.007414 0 0 0 -10.7729,-3.37675 z"
       id="path3810"
       style="font-size:medium;font-style:normal;font-variant:normal;font-weight:normal;font-stretch:normal;text-indent:0;text-align:start;text-decoration:none;line-height:normal;letter-spacing:normal;word-spacing:normal;text-transform:none;direction:ltr;block-progression:tb;writing-mode:lr-tb;text-anchor:start;baseline-shift:baseline;color:#000000;fill:#1f1a17;fill-opacity:1;stroke:#1f1a17;stroke-width:2.67192912;stroke-miterlimit:4;stroke-opacity:1;stroke-dasharray:none;marker:none;visibility:visible;display:inline;overflow:visible;enable-background:new;font-family:Sans;-inkscape-font-specification:Sans" />
    <path
       inkscape:connector-curvature="0"
       d="m 149.67822,876.33068 c -36.00507,0 -65.507888,29.76401 -65.507888,66.08785 0,36.32374 29.502818,66.08777 65.507888,66.08777 36.00494,0 65.50776,-29.76403 65.50776,-66.08777 0,-36.32384 -29.50282,-66.08785 -65.50776,-66.08785 z m 0,24.11964 c 23.14879,0 41.59984,18.61432 41.59984,41.96821 0,23.35377 -18.45105,41.96806 -41.59984,41.96806 -23.14892,0 -41.59996,-18.61429 -41.59996,-41.96806 0,-23.35389 18.45104,-41.96821 41.59996,-41.96821 z"
       id="path3812"
       style="font-size:medium;font-style:normal;font-variant:normal;font-weight:normal;font-stretch:normal;text-indent:0;text-align:start;text-decoration:none;line-height:normal;letter-spacing:normal;word-spacing:normal;text-transform:none;direction:ltr;block-progression:tb;writing-mode:lr-tb;text-anchor:start;baseline-shift:baseline;color:#000000;fill:#1f1a17;fill-opacity:1;stroke:#1f1a17;stroke-width:2.67192912;stroke-miterlimit:4;stroke-opacity:1;stroke-dasharray:none;marker:none;visibility:visible;display:inline;overflow:visible;enable-background:new;font-family:Sans;-inkscape-font-specification:Sans" />
    <path
       style="font-size:medium;font-style:normal;font-variant:normal;font-weight:normal;font-stretch:normal;text-indent:0;text-align:start;text-decoration:none;line-height:normal;letter-spacing:normal;word-spacing:normal;text-transform:none;direction:ltr;block-progression:tb;writing-mode:lr-tb;text-anchor:start;baseline-shift:baseline;color:#000000;fill:#00923f;fill-opacity:1;stroke:#737373;stroke-width:2.67192912;stroke-miterlimit:4;stroke-dasharray:none;marker:none;visibility:visible;display:inline;overflow:visible;enable-background:new;font-family:Sans;-inkscape-font-specification:Sans"
       id="path27941"
       d="m 186.29261,973.76991 a 11.888522,12.007414 0 0 0 -5.94366,20.63565 l 47.54933,48.02494 a 11.952458,12.071991 0 1 0 16.71656,-17.2589 l -47.54933,-48.02491 a 11.888522,12.007414 0 0 0 -10.7729,-3.37678 z"
       inkscape:connector-curvature="0" />
    <path
       style="font-size:medium;font-style:normal;font-variant:normal;font-weight:normal;font-stretch:normal;text-indent:0;text-align:start;text-decoration:none;line-height:normal;letter-spacing:normal;word-spacing:normal;text-transform:none;direction:ltr;block-progression:tb;writing-mode:lr-tb;text-anchor:start;baseline-shift:baseline;color:#000000;fill:#b8db7d;fill-opacity:1;stroke:#737373;stroke-width:2.67192912;stroke-miterlimit:4;stroke-dasharray:none;marker:none;visibility:visible;display:inline;overflow:visible;enable-background:new;font-family:Sans;-inkscape-font-specification:Sans"
       id="path27918"
       d="m 147.00629,877.66665 c -36.00507,0 -65.507884,29.764 -65.507884,66.08784 0,36.3237 29.502814,66.08771 65.507884,66.08771 36.00495,0 65.50776,-29.76401 65.50776,-66.08771 0,-36.32384 -29.50281,-66.08784 -65.50776,-66.08784 z m 0,24.11964 c 23.1488,0 41.59984,18.61432 41.59984,41.9682 0,23.35377 -18.45104,41.96809 -41.59984,41.96809 -23.14892,0 -41.59996,-18.61432 -41.59996,-41.96809 0,-23.35388 18.45104,-41.9682 41.59996,-41.9682 z"
       inkscape:connector-curvature="0" />
  </g>
</svg>
