<?xml version="1.0" encoding="UTF-8" standalone="no"?>
<!-- Created with Inkscape (http://www.inkscape.org/) -->

<svg
   xmlns:dc="http://purl.org/dc/elements/1.1/"
   xmlns:cc="http://creativecommons.org/ns#"
   xmlns:rdf="http://www.w3.org/1999/02/22-rdf-syntax-ns#"
   xmlns:svg="http://www.w3.org/2000/svg"
   xmlns="http://www.w3.org/2000/svg"
   xmlns:sodipodi="http://sodipodi.sourceforge.net/DTD/sodipodi-0.dtd"
   xmlns:inkscape="http://www.inkscape.org/namespaces/inkscape"
   width="256"
   height="256"
   id="svg4374"
   version="1.1"
   inkscape:version="0.48.3.1 r9886"
   sodipodi:docname="edit-copy.svg">
  <defs
     id="defs4376" />
  <sodipodi:namedview
     id="base"
     pagecolor="#ffffff"
     bordercolor="#666666"
     borderopacity="1.0"
     inkscape:pageopacity="0.0"
     inkscape:pageshadow="2"
     inkscape:zoom="0.8562147"
     inkscape:cx="154.9802"
     inkscape:cy="127.59781"
     inkscape:document-units="px"
     inkscape:current-layer="layer1"
     showgrid="false"
     inkscape:window-width="1918"
     inkscape:window-height="1032"
     inkscape:window-x="0"
     inkscape:window-y="25"
     inkscape:window-maximized="1" />
  <metadata
     id="metadata4379">
    <rdf:RDF>
      <cc:Work
         rdf:about="">
        <dc:format>image/svg+xml</dc:format>
        <dc:type
           rdf:resource="http://purl.org/dc/dcmitype/StillImage" />
        <dc:title />
      </cc:Work>
    </rdf:RDF>
  </metadata>
  <g
     inkscape:label="Capa 1"
     inkscape:groupmode="layer"
     id="layer1"
     transform="translate(0,-796.36218)">
    <g
       style="fill:#b8db7d;fill-opacity:1;stroke:#737373;stroke-width:0.24351016;stroke-miterlimit:4;stroke-opacity:1;stroke-dasharray:none"
       transform="matrix(10.271402,0,0,-10.271402,11.009611,971.10008)"
       id="g3029">
      <g
         id="g3031"
         style="fill:#b8db7d;fill-opacity:1;stroke:#737373;stroke-width:0.24351016;stroke-miterlimit:4;stroke-opacity:1;stroke-dasharray:none;display:inline"
         transform="translate(-241.0002,-647)"
         inkscape:label="status" />
      <g
         style="fill:#b8db7d;fill-opacity:1;stroke:#737373;stroke-width:0.24351016;stroke-miterlimit:4;stroke-opacity:1;stroke-dasharray:none"
         id="g3033"
         transform="translate(-241.0002,-647)"
         inkscape:label="devices" />
      <g
         style="fill:#b8db7d;fill-opacity:1;stroke:#737373;stroke-width:0.24351016;stroke-miterlimit:4;stroke-opacity:1;stroke-dasharray:none"
         id="g3035"
         transform="translate(-241.0002,-647)"
         inkscape:label="apps" />
      <g
         style="fill:#b8db7d;fill-opacity:1;stroke:#737373;stroke-width:0.24351016;stroke-miterlimit:4;stroke-opacity:1;stroke-dasharray:none"
         id="g3037"
         transform="translate(-241.0002,-647)"
         inkscape:label="places" />
      <g
         style="fill:#b8db7d;fill-opacity:1;stroke:#737373;stroke-width:0.24351016;stroke-miterlimit:4;stroke-opacity:1;stroke-dasharray:none"
         id="g3039"
         transform="translate(-241.0002,-647)"
         inkscape:label="mimetypes" />
      <g
         id="g3041"
         style="fill:#b8db7d;fill-opacity:1;stroke:#737373;stroke-width:0.24351016;stroke-miterlimit:4;stroke-opacity:1;stroke-dasharray:none;display:inline"
         transform="translate(-241.0002,-647)"
         inkscape:label="emblems" />
      <g
         id="g3043"
         style="fill:#b8db7d;fill-opacity:1;stroke:#737373;stroke-width:0.24351016;stroke-miterlimit:4;stroke-opacity:1;stroke-dasharray:none;display:inline"
         transform="translate(-241.0002,-647)"
         inkscape:label="emotes" />
      <g
         id="g3045"
         style="fill:#b8db7d;fill-opacity:1;stroke:#737373;stroke-width:0.24351016;stroke-miterlimit:4;stroke-opacity:1;stroke-dasharray:none;display:inline"
         transform="translate(-241.0002,-647)"
         inkscape:label="categories" />
      <g
         id="g3047"
         style="fill:#b8db7d;fill-opacity:1;stroke:#737373;stroke-width:0.24351016;stroke-miterlimit:4;stroke-opacity:1;stroke-dasharray:none;display:inline"
         transform="translate(-241.0002,-647)"
         inkscape:label="actions">
        <path
           sodipodi:nodetypes="ccccccccccccc"
           inkscape:connector-curvature="0"
           d="m 243.93296,648.00074 c -0.50766,0.0395 -0.94152,0.51729 -0.93263,1.02692 l 0,12.94533 c -0.008,0.5398 0.48663,1.03477 1.02589,1.02691 l 9.948,0 c 0.53926,0.008 1.03373,-0.48711 1.02589,-1.02691 l 0,-9.95795 c -0.004,-0.26704 -0.1184,-0.53079 -0.31088,-0.71573 l -2.9844,-2.98738 c -0.18475,-0.19267 -0.44824,-0.30734 -0.71501,-0.31119 l -6.9636,0 c -0.0311,-9.9e-4 -0.0622,-9.9e-4 -0.0933,0 z"
           id="path3049"
           style="color:#bebebe;fill:#b8db7d;fill-opacity:1;fill-rule:nonzero;stroke:#737373;stroke-width:0.24351016;stroke-miterlimit:4;stroke-opacity:1;stroke-dasharray:none;marker:none;visibility:visible;display:inline;overflow:visible;enable-background:accumulate" />
      </g>
    </g>
    <path
       sodipodi:nodetypes="ccacccac"
       d="m 155.42774,912.79367 c -26.75242,1.37411 -32.67785,-1.93505 -44.33719,5.94831 -6.37995,4.7417 -4.44273,11.5383 -4.95673,17.6168 -0.69027,8.1634 2.58951,24.4406 2.58951,24.4406 l 0.32313,0.069 c 3.52372,-27.7399 -3.74928,-31.2751 8.30561,-40.2779 12.24037,-5.2739 18.93608,-2.8632 28.12022,-4.968 3.40538,-0.7804 9.95545,-2.82901 9.95545,-2.82901 z"
       class="fil1 str1"
       id="path3051"
       inkscape:connector-curvature="0"
       style="fill:#1f1a17;fill-rule:evenodd;stroke:none" />
    <path
       sodipodi:nodetypes="cscccccccc"
       inkscape:connector-curvature="0"
       id="path3053"
       d="m 154.47643,914.34898 c 0,0 -29.89261,-3.9462 -40.67225,6.8335 -6.63598,6.636 -5.06189,21.3205 -5.06189,21.3205 l -0.0743,0 0,18.3977 6.72725,0 c 1.45873,-0.4201 2.82919,-1.1633 3.92113,-2.2486 l 32.59556,-33.469 c 1.6797,-1.7826 2.61942,-4.2654 2.56453,-6.7457 z"
       style="font-size:medium;font-style:normal;font-variant:normal;font-weight:normal;font-stretch:normal;text-indent:0;text-align:start;text-decoration:none;line-height:normal;letter-spacing:normal;word-spacing:normal;text-transform:none;direction:ltr;block-progression:tb;writing-mode:lr-tb;text-anchor:start;baseline-shift:baseline;color:#000000;fill:#00923f;fill-opacity:1;stroke:#737373;stroke-width:2.37869573;stroke-miterlimit:4;stroke-opacity:1;stroke-dasharray:none;marker:none;visibility:visible;display:inline;overflow:visible;enable-background:accumulate;font-family:Sans;-inkscape-font-specification:Sans" />
    <path
       style="fill:#1f1a17;fill-rule:evenodd;stroke:none"
       inkscape:connector-curvature="0"
       id="path3055"
       class="fil1 str1"
       d="m 30.431812,924.08568 c 1.10878,20.4928 -5.05846,26.1805 2.55092,35.1937 4.58252,4.9368 13.33126,2.5747 20.06825,2.8029 7.98963,0.2707 23.93225,-1.7071 23.93225,-1.7071 l 0.0705,-0.2466 c -27.10602,-3.0092 -30.62838,2.518 -39.32944,-6.8106 -5.05153,-9.4286 -2.63428,-14.5266 -4.61251,-21.5802 -0.73351,-2.6154 -2.67995,-7.6521 -2.67995,-7.6521 z"
       sodipodi:nodetypes="ccacccac" />
    <path
       sodipodi:nodetypes="ccacccac"
       d="m 156.4372,843.04571 c -1.10878,-20.49282 5.05846,-26.18046 -2.55092,-35.19371 -4.58252,-4.93679 -13.33127,-2.57466 -20.06825,-2.80296 -7.98964,-0.27063 -23.93225,1.70719 -23.93225,1.70719 l -0.0705,0.24655 c 27.10602,3.00927 30.62838,-2.51801 39.32943,6.81058 5.05154,9.42861 2.63428,14.52666 4.61252,21.58027 0.73351,2.61537 2.67995,7.65208 2.67995,7.65208 z"
       class="fil1 str1"
       id="path3057"
       inkscape:connector-curvature="0"
       style="fill:#1f1a17;fill-rule:evenodd;stroke:none" />
    <path
       style="fill:#1f1a17;fill-rule:evenodd;stroke:none"
       inkscape:connector-curvature="0"
       id="path3059"
       class="fil1 str1"
       d="m 114.86495,965.67307 c -2.64731,-21.98544 -6.48181,-59.97172 0.10606,-70.09098 6.58787,-10.11925 15.45991,-4.92143 24.34492,-4.99762 15.93704,-0.13665 34.87742,2.03783 34.87742,2.03783 l 0.0942,0.29437 c -13.51795,1.94049 -40.93674,-3.00583 -52.56625,8.13006 -6.75169,11.25526 -5.05235,17.00196 -6.16491,25.76107 -1.63267,12.85387 -0.69144,38.86527 -0.69144,38.86527 z"
       sodipodi:nodetypes="czscccac" />
    <g
       id="g6121"
       transform="matrix(10.271402,0,0,-10.271402,95.100669,1057.527)"
       style="fill:#b8db7d;fill-opacity:1;stroke:#737373;stroke-width:0.24351016;stroke-miterlimit:4;stroke-opacity:1;stroke-dasharray:none">
      <g
         inkscape:label="status"
         transform="translate(-241.0002,-647)"
         style="fill:#b8db7d;fill-opacity:1;stroke:#737373;stroke-width:0.24351016;stroke-miterlimit:4;stroke-opacity:1;stroke-dasharray:none;display:inline"
         id="layer9-9" />
      <g
         inkscape:label="devices"
         transform="translate(-241.0002,-647)"
         id="layer10-8"
         style="fill:#b8db7d;fill-opacity:1;stroke:#737373;stroke-width:0.24351016;stroke-miterlimit:4;stroke-opacity:1;stroke-dasharray:none" />
      <g
         inkscape:label="apps"
         transform="translate(-241.0002,-647)"
         id="layer11-5"
         style="fill:#b8db7d;fill-opacity:1;stroke:#737373;stroke-width:0.24351016;stroke-miterlimit:4;stroke-opacity:1;stroke-dasharray:none" />
      <g
         inkscape:label="places"
         transform="translate(-241.0002,-647)"
         id="layer13-6"
         style="fill:#b8db7d;fill-opacity:1;stroke:#737373;stroke-width:0.24351016;stroke-miterlimit:4;stroke-opacity:1;stroke-dasharray:none" />
      <g
         inkscape:label="mimetypes"
         transform="translate(-241.0002,-647)"
         id="layer14-6"
         style="fill:#b8db7d;fill-opacity:1;stroke:#737373;stroke-width:0.24351016;stroke-miterlimit:4;stroke-opacity:1;stroke-dasharray:none" />
      <g
         inkscape:label="emblems"
         transform="translate(-241.0002,-647)"
         style="fill:#b8db7d;fill-opacity:1;stroke:#737373;stroke-width:0.24351016;stroke-miterlimit:4;stroke-opacity:1;stroke-dasharray:none;display:inline"
         id="layer15-0-6" />
      <g
         inkscape:label="emotes"
         transform="translate(-241.0002,-647)"
         style="fill:#b8db7d;fill-opacity:1;stroke:#737373;stroke-width:0.24351016;stroke-miterlimit:4;stroke-opacity:1;stroke-dasharray:none;display:inline"
         id="g71291" />
      <g
         inkscape:label="categories"
         transform="translate(-241.0002,-647)"
         style="fill:#b8db7d;fill-opacity:1;stroke:#737373;stroke-width:0.24351016;stroke-miterlimit:4;stroke-opacity:1;stroke-dasharray:none;display:inline"
         id="g4953" />
      <g
         inkscape:label="actions"
         transform="translate(-241.0002,-647)"
         style="fill:#b8db7d;fill-opacity:1;stroke:#737373;stroke-width:0.24351016;stroke-miterlimit:4;stroke-opacity:1;stroke-dasharray:none;display:inline"
         id="layer12-7">
        <path
           style="color:#bebebe;fill:#b8db7d;fill-opacity:1;fill-rule:nonzero;stroke:#737373;stroke-width:0.24351016;stroke-miterlimit:4;stroke-opacity:1;stroke-dasharray:none;marker:none;visibility:visible;display:inline;overflow:visible;enable-background:accumulate"
           id="path4387-5"
           d="m 243.93296,648.00074 c -0.50766,0.0395 -0.94152,0.51729 -0.93263,1.02692 l 0,12.94533 c -0.008,0.5398 0.48663,1.03477 1.02589,1.02691 l 9.948,0 c 0.53926,0.008 1.03373,-0.48711 1.02589,-1.02691 l 0,-9.95795 c -0.004,-0.26704 -0.1184,-0.53079 -0.31088,-0.71573 l -2.9844,-2.98738 c -0.18475,-0.19267 -0.44824,-0.30734 -0.71501,-0.31119 l -6.9636,0 c -0.0311,-9.9e-4 -0.0622,-9.9e-4 -0.0933,0 z"
           inkscape:connector-curvature="0"
           sodipodi:nodetypes="ccccccccccccc" />
      </g>
    </g>
    <path
       style="fill:#1f1a17;fill-rule:evenodd;stroke:none"
       inkscape:connector-curvature="0"
       id="path2993"
       class="fil1 str1"
       d="m 239.5188,999.22059 c -26.75242,1.37411 -32.67785,-1.93505 -44.33719,5.94831 -6.37995,4.7417 -4.44273,11.5383 -4.95673,17.6168 -0.69027,8.1634 2.58951,24.4406 2.58951,24.4406 l 0.32313,0.069 c 3.52372,-27.7399 -3.74928,-31.2751 8.30561,-40.2779 12.24037,-5.2739 18.93608,-2.8632 28.12022,-4.968 3.40538,-0.7804 9.95545,-2.82901 9.95545,-2.82901 z"
       sodipodi:nodetypes="ccacccac" />
    <path
       style="font-size:medium;font-style:normal;font-variant:normal;font-weight:normal;font-stretch:normal;text-indent:0;text-align:start;text-decoration:none;line-height:normal;letter-spacing:normal;word-spacing:normal;text-transform:none;direction:ltr;block-progression:tb;writing-mode:lr-tb;text-anchor:start;baseline-shift:baseline;color:#000000;fill:#00923f;fill-opacity:1;stroke:#737373;stroke-width:2.37869573;stroke-miterlimit:4;stroke-opacity:1;stroke-dasharray:none;marker:none;visibility:visible;display:inline;overflow:visible;enable-background:accumulate;font-family:Sans;-inkscape-font-specification:Sans"
       d="m 238.56749,1000.7759 c 0,0 -29.89261,-3.9462 -40.67225,6.8335 -6.63598,6.636 -5.06189,21.3205 -5.06189,21.3205 l -0.0743,0 0,18.3977 6.72725,0 c 1.45873,-0.4201 2.82919,-1.1633 3.92113,-2.2486 l 32.59556,-33.469 c 1.6797,-1.7826 2.61942,-4.2654 2.56453,-6.7457 z"
       id="path3801"
       inkscape:connector-curvature="0"
       sodipodi:nodetypes="cscccccccc" />
    <path
       sodipodi:nodetypes="ccacccac"
       d="m 114.52287,1010.5126 c 1.10878,20.4928 -5.05846,26.1805 2.55092,35.1937 4.58252,4.9368 13.33126,2.5747 20.06825,2.8029 7.98963,0.2707 23.93225,-1.7071 23.93225,-1.7071 l 0.0705,-0.2466 c -27.10602,-3.0092 -30.62838,2.518 -39.32944,-6.8106 -5.05153,-9.4286 -2.63428,-14.5266 -4.61251,-21.5802 -0.73351,-2.6154 -2.67995,-7.6521 -2.67995,-7.6521 z"
       class="fil1 str1"
       id="path3805"
       inkscape:connector-curvature="0"
       style="fill:#1f1a17;fill-rule:evenodd;stroke:none" />
    <path
       style="fill:#1f1a17;fill-rule:evenodd;stroke:none"
       inkscape:connector-curvature="0"
       id="path3776"
       class="fil1 str1"
       d="m 240.52826,929.47263 c -1.10878,-20.49282 5.05846,-26.18046 -2.55092,-35.19371 -4.58252,-4.93679 -13.33127,-2.57466 -20.06825,-2.80296 -7.98964,-0.27063 -23.93225,1.70719 -23.93225,1.70719 l -0.0705,0.24655 c 27.10602,3.00927 30.62838,-2.51801 39.32943,6.81058 5.05154,9.42861 2.63428,14.52666 4.61252,21.58027 0.73351,2.61537 2.67995,7.65208 2.67995,7.65208 z"
       sodipodi:nodetypes="ccacccac" />
  </g>
</svg>
