<?xml version="1.0" encoding="UTF-8" standalone="no"?>
<!-- Created with Inkscape (http://www.inkscape.org/) -->

<svg
   xmlns:dc="http://purl.org/dc/elements/1.1/"
   xmlns:cc="http://creativecommons.org/ns#"
   xmlns:rdf="http://www.w3.org/1999/02/22-rdf-syntax-ns#"
   xmlns:svg="http://www.w3.org/2000/svg"
   xmlns="http://www.w3.org/2000/svg"
   xmlns:sodipodi="http://sodipodi.sourceforge.net/DTD/sodipodi-0.dtd"
   xmlns:inkscape="http://www.inkscape.org/namespaces/inkscape"
   width="256"
   height="256"
   id="svg4374"
   version="1.1"
   inkscape:version="0.48.3.1 r9886"
   sodipodi:docname="edit-redo.svg">
  <defs
     id="defs4376" />
  <sodipodi:namedview
     id="base"
     pagecolor="#ffffff"
     bordercolor="#666666"
     borderopacity="1.0"
     inkscape:pageopacity="0.0"
     inkscape:pageshadow="2"
     inkscape:zoom="1.7124294"
     inkscape:cx="248.41471"
     inkscape:cy="28.495546"
     inkscape:document-units="px"
     inkscape:current-layer="layer1"
     showgrid="false"
     inkscape:window-width="1918"
     inkscape:window-height="1032"
     inkscape:window-x="0"
     inkscape:window-y="25"
     inkscape:window-maximized="1" />
  <metadata
     id="metadata4379">
    <rdf:RDF>
      <cc:Work
         rdf:about="">
        <dc:format>image/svg+xml</dc:format>
        <dc:type
           rdf:resource="http://purl.org/dc/dcmitype/StillImage" />
        <dc:title />
      </cc:Work>
    </rdf:RDF>
  </metadata>
  <g
     inkscape:label="Capa 1"
     inkscape:groupmode="layer"
     id="layer1"
     transform="translate(0,-796.36218)">
    <path
       style="font-size:medium;font-style:normal;font-variant:normal;font-weight:normal;font-stretch:normal;text-indent:0;text-align:start;text-decoration:none;line-height:normal;letter-spacing:normal;word-spacing:normal;text-transform:none;direction:ltr;block-progression:tb;writing-mode:lr-tb;text-anchor:start;baseline-shift:baseline;color:#000000;fill:#b8db7d;fill-opacity:1;stroke:#737373;stroke-width:6.47128963;stroke-miterlimit:4;stroke-opacity:1;stroke-dasharray:none;marker:none;visibility:visible;display:inline;overflow:visible;enable-background:accumulate;font-family:Sans;-inkscape-font-specification:Sans"
       d="m 179.90899,827.65273 c 20.72132,21.33982 59.13475,62.7431 59.10107,80.33499 -0.9374,20.03277 -40.38203,62.77198 -59.10107,80.33499 -8.42376,7.997 -21.51266,7.0709 -29.17138,-0.1011 -7.50931,-8.9187 -5.12571,-23.31181 1.31449,-30.99142 l 25.22792,-28.10966 -99.142176,0 c -16.29088,0 -29.07025,14.20616 -29.07025,32.35644 0,18.15024 6.66197,32.40704 22.95286,32.40704 0,0 13.9945,0.1 16.27933,2.3761 10.182586,10.18249 9.728366,28.29139 -0.45501,38.47399 -2.28484,2.2849 -18.2005,2.3761 -18.2005,2.3761 -37.24663,0 -59.35386,-34.1354 -59.35386,-75.63323 0,-41.49787 30.6008,-75.58264 67.84743,-75.58264 l 98.333266,0 -24.41901,-27.19964 c -6.9039,-8.99676 -8.24415,-24.43285 -1.31449,-31.95199 8.49955,-7.3348 22.64482,-5.91405 29.17138,0.91003 z"
       id="path4762-3"
       inkscape:connector-curvature="0"
       sodipodi:nodetypes="ccccccssccccsscccc" />
    <path
       style="fill:#1f1a17;fill-rule:evenodd;stroke:none"
       inkscape:connector-curvature="0"
       id="path3002"
       class="fil1 str1"
       d="m 223.90921,944.61522 c 8.69356,-14.43429 15.79912,-17.15697 19.92968,-35.2528 1.85262,-10.49288 -3.37924,-13.42397 -6.49027,-19.54249 -4.34958,-8.55445 -16.73129,-23.42951 -16.73129,-23.42951 l -14.63081,-10.56417 c 10.96295,8.07212 26.46322,38.67145 23.00404,58.5574 -7.1955,14.8521 -5.17944,15.60529 -8.62166,23.05206 -4.40399,9.52738 -15.31886,27.51047 -15.31886,27.51047 z"
       sodipodi:nodetypes="ccacccacc" />
    <path
       style="fill:#1f1a17;fill-rule:evenodd;stroke:#000000;stroke-width:1.28795218;stroke-opacity:1"
       inkscape:connector-curvature="0"
       id="path3815"
       class="fil1 str1"
       d="m 96.85376,1027.0566 c 4.74332,-14.633 3.01264,-22.6754 -2.065196,-33.05929 -3.05879,-5.6877 -10.98008,-4.4447 -16.32789,-4.8126 -5.55516,-0.3821 -13.61006,2.2401 -13.61006,2.2401 13.23573,0.9352 18.78001,0.3403 25.25055,6.0936 5.32484,4.73479 7.209196,6.00139 7.410186,20.05069 z"
       sodipodi:nodetypes="ccscacc" />
  </g>
</svg>
