<?xml version="1.0" encoding="UTF-8" standalone="no"?>
<!-- Created with Inkscape (http://www.inkscape.org/) -->

<svg
   xmlns:dc="http://purl.org/dc/elements/1.1/"
   xmlns:cc="http://creativecommons.org/ns#"
   xmlns:rdf="http://www.w3.org/1999/02/22-rdf-syntax-ns#"
   xmlns:svg="http://www.w3.org/2000/svg"
   xmlns="http://www.w3.org/2000/svg"
   xmlns:sodipodi="http://sodipodi.sourceforge.net/DTD/sodipodi-0.dtd"
   xmlns:inkscape="http://www.inkscape.org/namespaces/inkscape"
   width="256"
   height="256"
   id="svg4374"
   version="1.1"
   inkscape:version="0.48.3.1 r9886"
   sodipodi:docname="edit-paste.svg">
  <defs
     id="defs4376" />
  <sodipodi:namedview
     id="base"
     pagecolor="#ffffff"
     bordercolor="#666666"
     borderopacity="1.0"
     inkscape:pageopacity="0.0"
     inkscape:pageshadow="2"
     inkscape:zoom="2.4217409"
     inkscape:cx="59.875061"
     inkscape:cy="145.28868"
     inkscape:document-units="px"
     inkscape:current-layer="layer1"
     showgrid="false"
     inkscape:window-width="1918"
     inkscape:window-height="1032"
     inkscape:window-x="0"
     inkscape:window-y="25"
     inkscape:window-maximized="1" />
  <metadata
     id="metadata4379">
    <rdf:RDF>
      <cc:Work
         rdf:about="">
        <dc:format>image/svg+xml</dc:format>
        <dc:type
           rdf:resource="http://purl.org/dc/dcmitype/StillImage" />
        <dc:title />
      </cc:Work>
    </rdf:RDF>
  </metadata>
  <g
     inkscape:label="Capa 1"
     inkscape:groupmode="layer"
     id="layer1"
     transform="translate(0,-796.36218)">
    <g
       transform="matrix(19.320805,0,0,13.301596,-1175.672,-8068.5735)"
       id="layer9-64"
       inkscape:label="status"
       style="fill:#b8db7d;fill-opacity:1;display:inline" />
    <g
       style="fill:#b8db7d;fill-opacity:1"
       transform="matrix(19.320805,0,0,13.301596,-1175.672,-8068.5735)"
       id="layer10-4"
       inkscape:label="devices" />
    <g
       style="fill:#b8db7d;fill-opacity:1"
       transform="matrix(19.320805,0,0,13.301596,-1175.672,-8068.5735)"
       id="layer11-1"
       inkscape:label="apps" />
    <path
       style="font-size:medium;font-style:normal;font-variant:normal;font-weight:normal;font-stretch:normal;text-indent:0;text-align:start;text-decoration:none;line-height:normal;letter-spacing:normal;word-spacing:normal;text-transform:none;direction:ltr;block-progression:tb;writing-mode:lr-tb;text-anchor:start;color:#000000;fill:#00923f;fill-opacity:1;stroke:#737373;stroke-width:3.86730599;stroke-miterlimit:4;stroke-opacity:1;stroke-dasharray:none;marker:none;visibility:visible;display:inline;overflow:visible;enable-background:accumulate;font-family:Bitstream Vera Sans;-inkscape-font-specification:Bitstream Vera Sans"
       id="path41043"
       d="m 35.072991,833.3757 c -5.474825,0 -12.080848,0.46298 -18.679866,4.01886 -6.5990171,3.55549 -9.9236784,9.88638 -9.9236784,14.46788 l 0,154.72596 c 0,4.9383 2.3852135,10.4834 8.1724414,14.4678 5.331571,3.6709 13.246565,4.9644 20.431103,4.8227 l 0,0.4025 1.751238,0 184.463681,0 c 6.77793,0 14.19524,-1.6446 19.84735,-5.2245 5.65212,-3.5806 8.75619,-9.1406 8.75619,-14.4685 l 0,-155.52973 c 0,-4.28674 -2.22167,-9.38277 -7.5887,-12.86034 -5.36701,-3.47756 -12.49493,-4.82263 -18.09612,-4.82263 l -30.93852,0 0,25.72068 c 0,0 23.22897,-1.12654 23.93534,5.25569 3.56106,32.17539 10.85895,136.44443 -6.42363,137.37593 -17.28257,0.9316 -149.668064,0.3476 -166.950641,-1.1679 -17.282577,-1.5155 -14.284992,-118.63178 -7.220129,-137.37596 2.127438,-5.64442 25.31625,-4.08776 25.31625,-4.08776 l 0,-25.72068 z"
       inkscape:connector-curvature="0"
       sodipodi:nodetypes="scssccccscssssccszzsccs" />
    <g
       style="fill:#b8db7d;fill-opacity:1"
       transform="matrix(19.320805,0,0,13.301596,-1175.672,-8068.5735)"
       id="layer13-5"
       inkscape:label="places" />
    <g
       style="fill:#b8db7d;fill-opacity:1"
       transform="matrix(19.320805,0,0,13.301596,-1175.672,-8068.5735)"
       id="layer14-5"
       inkscape:label="mimetypes" />
    <g
       transform="matrix(19.320805,0,0,13.301596,-1175.672,-8068.5735)"
       id="layer15-74"
       inkscape:label="emblems"
       style="fill:#b8db7d;fill-opacity:1;display:inline" />
    <g
       id="g6121"
       transform="matrix(9.9306636,0,0,-9.9306636,48.772188,984.88063)"
       style="fill:#b8db7d;fill-opacity:1;stroke:#737373;stroke-width:0.38943076;stroke-miterlimit:4;stroke-opacity:1;stroke-dasharray:none">
      <g
         inkscape:label="status"
         transform="translate(-241.0002,-647)"
         style="fill:#b8db7d;fill-opacity:1;stroke:#737373;stroke-width:0.38943076;stroke-miterlimit:4;stroke-opacity:1;stroke-dasharray:none;display:inline"
         id="layer9-9" />
      <g
         inkscape:label="devices"
         transform="translate(-241.0002,-647)"
         id="layer10-8"
         style="fill:#b8db7d;fill-opacity:1;stroke:#737373;stroke-width:0.38943076;stroke-miterlimit:4;stroke-opacity:1;stroke-dasharray:none" />
      <g
         inkscape:label="apps"
         transform="translate(-241.0002,-647)"
         id="layer11-5"
         style="fill:#b8db7d;fill-opacity:1;stroke:#737373;stroke-width:0.38943076;stroke-miterlimit:4;stroke-opacity:1;stroke-dasharray:none" />
      <g
         inkscape:label="places"
         transform="translate(-241.0002,-647)"
         id="layer13-6"
         style="fill:#b8db7d;fill-opacity:1;stroke:#737373;stroke-width:0.38943076;stroke-miterlimit:4;stroke-opacity:1;stroke-dasharray:none" />
      <g
         inkscape:label="mimetypes"
         transform="translate(-241.0002,-647)"
         id="layer14-6"
         style="fill:#b8db7d;fill-opacity:1;stroke:#737373;stroke-width:0.38943076;stroke-miterlimit:4;stroke-opacity:1;stroke-dasharray:none" />
      <g
         inkscape:label="emblems"
         transform="translate(-241.0002,-647)"
         style="fill:#b8db7d;fill-opacity:1;stroke:#737373;stroke-width:0.38943076;stroke-miterlimit:4;stroke-opacity:1;stroke-dasharray:none;display:inline"
         id="layer15-0-6" />
      <g
         inkscape:label="emotes"
         transform="translate(-241.0002,-647)"
         style="fill:#b8db7d;fill-opacity:1;stroke:#737373;stroke-width:0.38943076;stroke-miterlimit:4;stroke-opacity:1;stroke-dasharray:none;display:inline"
         id="g71291" />
      <g
         inkscape:label="categories"
         transform="translate(-241.0002,-647)"
         style="fill:#b8db7d;fill-opacity:1;stroke:#737373;stroke-width:0.38943076;stroke-miterlimit:4;stroke-opacity:1;stroke-dasharray:none;display:inline"
         id="g4953" />
      <g
         inkscape:label="actions"
         transform="translate(-241.0002,-647)"
         style="fill:#b8db7d;fill-opacity:1;stroke:#737373;stroke-width:0.38943076;stroke-miterlimit:4;stroke-opacity:1;stroke-dasharray:none;display:inline"
         id="layer12-7">
        <path
           style="color:#bebebe;fill:#b8db7d;fill-opacity:1;fill-rule:nonzero;stroke:#737373;stroke-width:0.38943076;stroke-miterlimit:4;stroke-opacity:1;stroke-dasharray:none;marker:none;visibility:visible;display:inline;overflow:visible;enable-background:accumulate"
           id="path4387-5"
           d="m 243.93296,648.00074 c -0.50766,0.0395 -0.94152,0.51729 -0.93263,1.02692 l 0,12.94533 c -0.008,0.5398 0.48663,1.03477 1.02589,1.02691 l 9.948,0 c 0.53926,0.008 1.03373,-0.48711 1.02589,-1.02691 l 0,-9.95795 c -0.004,-0.26704 -0.1184,-0.53079 -0.31088,-0.71573 l -2.9844,-2.98738 c -0.18475,-0.19267 -0.44824,-0.30734 -0.71501,-0.31119 l -6.9636,0 c -0.0311,-9.9e-4 -0.0622,-9.9e-4 -0.0933,0 z"
           inkscape:connector-curvature="0"
           sodipodi:nodetypes="ccccccccccccc" />
      </g>
    </g>
    <path
       style="fill:#1f1a17;fill-rule:evenodd;stroke:none"
       inkscape:connector-curvature="0"
       id="path2993"
       class="fil1 str1"
       d="m 188.39946,928.50846 c -25.86495,1.32852 -31.59381,-1.8709 -42.86637,5.75098 -6.1683,4.5844 -4.29535,11.15553 -4.7923,17.03238 -0.66737,7.8926 2.50361,23.62982 2.50361,23.62982 l 0.31241,0.0667 c 3.40683,-26.81968 -3.6249,-30.2377 8.03008,-38.94175 11.83432,-5.09894 18.30791,-2.76821 27.18738,-4.80319 3.29241,-0.75451 9.62519,-2.73515 9.62519,-2.73515 z"
       sodipodi:nodetypes="ccacccac" />
    <path
       style="font-size:medium;font-style:normal;font-variant:normal;font-weight:normal;font-stretch:normal;text-indent:0;text-align:start;text-decoration:none;line-height:normal;letter-spacing:normal;word-spacing:normal;text-transform:none;direction:ltr;block-progression:tb;writing-mode:lr-tb;text-anchor:start;baseline-shift:baseline;color:#000000;fill:#00923f;fill-opacity:1;stroke:#737373;stroke-width:2.29978609;stroke-miterlimit:4;stroke-opacity:1;stroke-dasharray:none;marker:none;visibility:visible;display:inline;overflow:visible;enable-background:accumulate;font-family:Sans;-inkscape-font-specification:Sans"
       d="m 187.47971,930.01217 c 0,0 -28.90097,-3.81529 -39.32301,6.60681 -6.41584,6.41586 -4.89397,20.61322 -4.89397,20.61322 l -0.0718,0 0,17.78738 6.50408,0 c 1.41034,-0.40616 2.73533,-1.12471 3.79105,-2.174 l 31.51425,-32.35872 c 1.62398,-1.72346 2.53253,-4.1239 2.47946,-6.52192 z"
       id="path3801"
       inkscape:connector-curvature="0"
       sodipodi:nodetypes="cscccccccc" />
    <path
       sodipodi:nodetypes="ccacccac"
       d="m 67.550086,939.42587 c 1.071997,19.81298 -4.890654,25.312 2.466297,34.0262 4.430501,4.77303 12.889015,2.48929 19.402515,2.70992 7.724586,0.26172 23.138332,-1.65047 23.138332,-1.65047 l 0.0682,-0.23842 c -26.206815,-2.90938 -29.612326,2.43447 -38.024742,-6.58467 -4.883953,-9.11582 -2.546891,-14.0447 -4.459496,-20.86431 -0.709177,-2.52864 -2.591047,-7.39825 -2.591047,-7.39825 z"
       class="fil1 str1"
       id="path3805"
       inkscape:connector-curvature="0"
       style="fill:#1f1a17;fill-rule:evenodd;stroke:none" />
    <path
       style="fill:#1f1a17;fill-rule:evenodd;stroke:none"
       inkscape:connector-curvature="0"
       id="path3776"
       class="fil1 str1"
       d="m 189.37543,861.07426 c -1.07199,-19.813 4.89066,-25.31197 -2.46629,-34.02621 -4.43051,-4.77302 -12.88903,-2.48925 -19.40252,-2.70998 -7.7246,-0.26165 -23.13833,1.65056 -23.13833,1.65056 l -0.0682,0.23837 c 26.20681,2.90944 29.61233,-2.43448 38.02473,6.58465 4.88396,9.11583 2.54689,14.04476 4.45951,20.86437 0.70917,2.52861 2.59104,7.39824 2.59104,7.39824 z"
       sodipodi:nodetypes="ccacccac" />
    <path
       style="fill:#1f1a17;fill-rule:evenodd;stroke:#1f1a17;stroke-opacity:1"
       inkscape:connector-curvature="0"
       id="path3841"
       class="fil1 str1"
       d="m 220.67342,896.21697 c -0.7338,-20.49282 3.34774,-26.18046 -1.68822,-35.19371 -3.03276,-4.93679 -8.76746,-2.49146 -13.28137,-2.80296 -4.17877,-0.28837 -12.53519,0.88134 -12.53519,0.88134 l -0.0467,0.65947 c 17.93903,3.00927 16.96676,-2.10508 22.7252,7.22351 3.34316,9.42861 1.74339,14.52666 3.05261,21.58027 0.48544,2.61537 1.77362,7.65208 1.77362,7.65208 z"
       sodipodi:nodetypes="ccacccacc" />
    <path
       sodipodi:nodetypes="ccacccac"
       d="m 5.9052508,970.83332 c 1.5254227,30.88618 -6.9592614,39.45858 3.5094708,53.04298 6.3044794,7.4407 18.3407054,3.8806 27.6092324,4.2245 10.991868,0.408 32.925196,-2.5729 32.925196,-2.5729 l 0.09699,-0.3717 c -37.291561,-4.5354 -42.137507,3.7951 -54.108137,-10.2647 C 8.9882756,1000.6809 12.313848,992.99738 9.5922646,982.36636 8.5831259,978.4245 5.9052783,970.83332 5.9052783,970.83332 z"
       class="fil1 str1"
       id="path3843"
       inkscape:connector-curvature="0"
       style="fill:#1f1a17;fill-rule:evenodd;stroke:none" />
    <path
       style="fill:#1f1a17;fill-rule:evenodd;stroke:none"
       inkscape:connector-curvature="0"
       id="path3845"
       class="fil1 str1"
       d="m 220.08946,964.71781 c -1.10878,20.49282 5.05846,26.18046 -2.55092,35.19371 -4.58252,4.93678 -13.33127,2.57468 -20.06825,2.80298 -7.98964,0.2706 -23.93225,-1.7072 -23.93225,-1.7072 l -0.0705,-0.2466 c 27.10602,-3.00923 30.62838,2.518 39.32943,-6.81054 5.05154,-9.42861 2.63428,-14.52666 4.61252,-21.58027 0.73351,-2.61537 2.67995,-7.65208 2.67995,-7.65208 z"
       sodipodi:nodetypes="ccacccac" />
    <path
       sodipodi:nodetypes="ccacccac"
       d="m 34.800785,964.71781 c 1.10878,20.49282 -5.05846,26.18046 2.55092,35.19371 4.58252,4.93678 13.33127,2.57468 20.06825,2.80298 7.98964,0.2706 23.93225,-1.7072 23.93225,-1.7072 l 0.0705,-0.2466 c -27.10602,-3.00923 -30.62838,2.518 -39.32943,-6.81054 -5.05154,-9.42861 -2.63428,-14.52666 -4.61252,-21.58027 -0.73351,-2.61537 -2.67995,-7.65208 -2.67995,-7.65208 z"
       class="fil1 str1"
       id="path3847"
       inkscape:connector-curvature="0"
       style="fill:#1f1a17;fill-rule:evenodd;stroke:none" />
    <path
       sodipodi:nodetypes="ccacccac"
       d="m 32.538246,896.21697 c 0.7338,-20.49282 -3.34774,-26.18046 1.68822,-35.19371 3.03276,-4.93679 8.82277,-2.57466 13.28137,-2.80296 5.28762,-0.27063 15.8386,1.70719 15.8386,1.70719 l 0.0467,0.24655 c -17.93903,3.00927 -20.27017,-2.51801 -26.02861,6.81058 -3.34316,9.42861 -1.74339,14.52666 -3.05261,21.58027 -0.48544,2.61537 -1.77362,7.65208 -1.77362,7.65208 z"
       class="fil1 str1"
       id="path3849"
       inkscape:connector-curvature="0"
       style="fill:#1f1a17;fill-rule:evenodd;stroke:#1f1a17;stroke-opacity:1" />
  </g>
</svg>
