<?xml version="1.0" encoding="UTF-8" standalone="no"?>
<!-- Created with Inkscape (http://www.inkscape.org/) -->

<svg
   xmlns:dc="http://purl.org/dc/elements/1.1/"
   xmlns:cc="http://creativecommons.org/ns#"
   xmlns:rdf="http://www.w3.org/1999/02/22-rdf-syntax-ns#"
   xmlns:svg="http://www.w3.org/2000/svg"
   xmlns="http://www.w3.org/2000/svg"
   xmlns:sodipodi="http://sodipodi.sourceforge.net/DTD/sodipodi-0.dtd"
   xmlns:inkscape="http://www.inkscape.org/namespaces/inkscape"
   width="256"
   height="256"
   id="svg4374"
   version="1.1"
   inkscape:version="0.48.3.1 r9886"
   sodipodi:docname="edit-select-all.svg">
  <defs
     id="defs4376" />
  <sodipodi:namedview
     id="base"
     pagecolor="#ffffff"
     bordercolor="#666666"
     borderopacity="1.0"
     inkscape:pageopacity="0.0"
     inkscape:pageshadow="2"
     inkscape:zoom="1.7124294"
     inkscape:cx="332.50577"
     inkscape:cy="28.495546"
     inkscape:document-units="px"
     inkscape:current-layer="layer1"
     showgrid="false"
     inkscape:window-width="1918"
     inkscape:window-height="1032"
     inkscape:window-x="0"
     inkscape:window-y="25"
     inkscape:window-maximized="1" />
  <metadata
     id="metadata4379">
    <rdf:RDF>
      <cc:Work
         rdf:about="">
        <dc:format>image/svg+xml</dc:format>
        <dc:type
           rdf:resource="http://purl.org/dc/dcmitype/StillImage" />
        <dc:title />
      </cc:Work>
    </rdf:RDF>
  </metadata>
  <g
     inkscape:label="Capa 1"
     inkscape:groupmode="layer"
     id="layer1"
     transform="translate(0,-796.36218)">
    <rect
       style="fill:#00923f;fill-opacity:1;stroke:#00923f;stroke-width:4;stroke-miterlimit:4;stroke-opacity:1;stroke-dasharray:none"
       id="rect3774"
       width="155.33487"
       height="186.28505"
       x="55.476738"
       y="28.253384"
       transform="translate(0,796.36218)"
       rx="38.032158"
       ry="24.334551" />
    <g
       id="g6121"
       transform="matrix(16.426419,0,0,16.426419,0.85689545,784.92214)"
       style="fill:#b8db7d;fill-opacity:1;stroke:#737373;stroke-opacity:1;stroke-width:0.24351016;stroke-miterlimit:4;stroke-dasharray:none">
      <g
         inkscape:label="status"
         transform="translate(-241.0002,-647)"
         style="display:inline;fill:#b8db7d;fill-opacity:1;stroke:#737373;stroke-opacity:1;stroke-width:0.24351016;stroke-miterlimit:4;stroke-dasharray:none"
         id="layer9-9" />
      <g
         inkscape:label="devices"
         transform="translate(-241.0002,-647)"
         id="layer10-8"
         style="fill:#b8db7d;fill-opacity:1;stroke:#737373;stroke-opacity:1;stroke-width:0.24351016;stroke-miterlimit:4;stroke-dasharray:none" />
      <g
         inkscape:label="apps"
         transform="translate(-241.0002,-647)"
         id="layer11-5"
         style="fill:#b8db7d;fill-opacity:1;stroke:#737373;stroke-opacity:1;stroke-width:0.24351016;stroke-miterlimit:4;stroke-dasharray:none" />
      <g
         inkscape:label="places"
         transform="translate(-241.0002,-647)"
         id="layer13-6"
         style="fill:#b8db7d;fill-opacity:1;stroke:#737373;stroke-opacity:1;stroke-width:0.24351016;stroke-miterlimit:4;stroke-dasharray:none" />
      <g
         inkscape:label="mimetypes"
         transform="translate(-241.0002,-647)"
         id="layer14-6"
         style="fill:#b8db7d;fill-opacity:1;stroke:#737373;stroke-opacity:1;stroke-width:0.24351016;stroke-miterlimit:4;stroke-dasharray:none" />
      <g
         inkscape:label="emblems"
         transform="translate(-241.0002,-647)"
         style="display:inline;fill:#b8db7d;fill-opacity:1;stroke:#737373;stroke-opacity:1;stroke-width:0.24351016;stroke-miterlimit:4;stroke-dasharray:none"
         id="layer15-0" />
      <g
         inkscape:label="emotes"
         transform="translate(-241.0002,-647)"
         style="display:inline;fill:#b8db7d;fill-opacity:1;stroke:#737373;stroke-opacity:1;stroke-width:0.24351016;stroke-miterlimit:4;stroke-dasharray:none"
         id="g71291" />
      <g
         inkscape:label="categories"
         transform="translate(-241.0002,-647)"
         style="display:inline;fill:#b8db7d;fill-opacity:1;stroke:#737373;stroke-opacity:1;stroke-width:0.24351016;stroke-miterlimit:4;stroke-dasharray:none"
         id="g4953" />
      <g
         inkscape:label="actions"
         transform="translate(-241.0002,-647)"
         style="display:inline;fill:#b8db7d;fill-opacity:1;stroke:#737373;stroke-opacity:1;stroke-width:0.24351016;stroke-miterlimit:4;stroke-dasharray:none"
         id="layer12-7">
        <path
           style="color:#bebebe;fill:#b8db7d;fill-opacity:1;fill-rule:nonzero;stroke:#737373;stroke-width:0.24351016;stroke-miterlimit:4;stroke-opacity:1;stroke-dasharray:none;marker:none;visibility:visible;display:inline;overflow:visible;enable-background:accumulate"
           id="path4387-5"
           d="m 243.93296,648.00074 c -0.50766,0.0395 -0.94152,0.51729 -0.93263,1.02692 l 0,12.94533 c -0.008,0.5398 0.48663,1.03477 1.02589,1.02691 l 9.948,0 c 0.53926,0.008 1.03373,-0.48711 1.02589,-1.02691 l 0,-9.95795 c -0.004,-0.26704 -0.1184,-0.53079 -0.31088,-0.71573 l -2.9844,-2.98738 c -0.18475,-0.19267 -0.44824,-0.30734 -0.71501,-0.31119 l -6.9636,0 c -0.0311,-9.9e-4 -0.0622,-9.9e-4 -0.0933,0 z m 1.08806,2.05393 c 0.59678,-0.0991 1.9896,0 2.9844,0 0.9948,0 2.42317,-0.20572 2.9844,0 0.31165,0.11424 0,0.9958 0,0.9958 0,0 0.23471,0.76108 0,0.99579 -1.71308,-0.047 -5.17185,-0.0774 -5.71995,-0.0711 -0.54809,0.006 -0.59372,-1.82296 -0.24885,-1.92049 z m 0,3.98318 c 0.62527,-0.12618 2.6528,0 3.9792,0 1.3264,0 3.61299,-0.16243 3.9792,0 0.36621,0.16243 0.0218,1.96742 0,1.99159 -1.73595,0.28167 -7.68262,-0.0843 -7.9584,0 -0.27578,0.0843 -0.62527,-1.86541 0,-1.99159 z m 0,3.98317 c 0.46466,-0.12624 2.6528,0 3.9792,0 1.3264,0 3.52827,-0.23329 3.9792,0 0.45093,0.23329 0.0218,1.96742 0,1.99159 -1.73595,0.28167 -6.31766,0.40925 -7.9584,0 -0.2709,-0.0676 -0.46466,-1.86535 0,-1.99159 z"
           inkscape:connector-curvature="0"
           sodipodi:nodetypes="ccccccccccccccascczczczczzzczccz" />
      </g>
    </g>
    <path
       style="fill:#1f1a17;fill-rule:evenodd;stroke:none"
       inkscape:connector-curvature="0"
       id="path2993"
       class="fil1 str1"
       d="m 231.81588,878.16796 c -42.7835,-2.1975 -52.25967,3.0946 -70.90573,-9.5127 -10.20306,-7.58308 -7.10499,-18.4525 -7.92699,-28.1736 -1.1039,-13.0551 4.14125,-39.0863 4.14125,-39.0863 l 0.51676,-0.1106 c 5.63526,44.3627 -5.996,50.0163 13.28265,64.41392 19.57526,8.43418 30.28329,4.57888 44.97093,7.94498 5.446,1.2481 15.92113,4.5243 15.92113,4.5243 z"
       sodipodi:nodetypes="ccacccac" />
    <path
       style="font-size:medium;font-style:normal;font-variant:normal;font-weight:normal;font-stretch:normal;text-indent:0;text-align:start;text-decoration:none;line-height:normal;letter-spacing:normal;word-spacing:normal;text-transform:none;direction:ltr;block-progression:tb;writing-mode:lr-tb;text-anchor:start;baseline-shift:baseline;color:#000000;fill:#00923f;fill-opacity:1;stroke:#737373;stroke-width:3.80410099;stroke-miterlimit:4;stroke-opacity:1;stroke-dasharray:none;marker:none;visibility:visible;display:inline;overflow:visible;enable-background:accumulate;font-family:Sans;-inkscape-font-specification:Sans"
       d="m 230.29451,875.68073 c 0,0 -47.8054,6.31082 -65.04462,-10.9284 -10.61251,-10.61251 -8.09516,-34.09656 -8.09516,-34.09656 l -0.11888,0 0,-29.42234 10.75847,0 c 2.33287,0.6718 4.52456,1.8604 6.27083,3.59602 l 52.12807,53.52495 c 2.68623,2.8508 4.18907,6.82133 4.10129,10.78803 z"
       id="path3801"
       inkscape:connector-curvature="0"
       sodipodi:nodetypes="cscccccccc" />
    <path
       sodipodi:nodetypes="ccacccac"
       d="m 31.917618,860.10935 c 1.7732,-32.7729 -8.08968,-41.8688 4.07953,-56.2831 7.32854,-7.8951 21.31987,-4.1175 32.09391,-4.4826 12.77733,-0.4328 38.273372,2.7302 38.273372,2.7302 l 0.1127,0.3943 c -43.348972,4.8125 -48.982062,-4.0269 -62.897122,10.8917 -8.0786,15.0786 -4.21284,23.2316 -7.37651,34.512 -1.17305,4.1826 -4.28588,12.2375 -4.28588,12.2375 z"
       class="fil1 str1"
       id="path3805"
       inkscape:connector-curvature="0"
       style="fill:#1f1a17;fill-rule:evenodd;stroke:none" />
    <path
       style="fill:#1f1a17;fill-rule:evenodd;stroke:none"
       inkscape:connector-curvature="0"
       id="path3776"
       class="fil1 str1"
       d="m 233.43025,989.71157 c -1.7732,32.77293 8.08968,41.86883 -4.07953,56.28313 -7.32855,7.8951 -21.31988,4.1175 -32.09392,4.4826 -12.77733,0.4328 -38.27337,-2.7302 -38.27337,-2.7302 l -0.1127,-0.3943 c 43.34897,-4.8125 48.98206,4.0269 62.89712,-10.8917 8.07861,-15.0786 4.21284,-23.2316 7.37652,-34.512 1.17305,-4.18263 4.28588,-12.23753 4.28588,-12.23753 z"
       sodipodi:nodetypes="ccacccac" />
  </g>
</svg>
