<?xml version="1.0" encoding="UTF-8" standalone="no"?>
<!-- Created with Inkscape (http://www.inkscape.org/) -->

<svg
   xmlns:dc="http://purl.org/dc/elements/1.1/"
   xmlns:cc="http://creativecommons.org/ns#"
   xmlns:rdf="http://www.w3.org/1999/02/22-rdf-syntax-ns#"
   xmlns:svg="http://www.w3.org/2000/svg"
   xmlns="http://www.w3.org/2000/svg"
   xmlns:sodipodi="http://sodipodi.sourceforge.net/DTD/sodipodi-0.dtd"
   xmlns:inkscape="http://www.inkscape.org/namespaces/inkscape"
   width="256"
   height="256"
   id="svg2"
   version="1.1"
   inkscape:version="0.48.3.1 r9886"
   sodipodi:docname="folder-new.svg">
  <defs
     id="defs4" />
  <sodipodi:namedview
     id="base"
     pagecolor="#ffffff"
     bordercolor="#666666"
     borderopacity="1.0"
     inkscape:pageopacity="0.0"
     inkscape:pageshadow="2"
     inkscape:zoom="1.2484714"
     inkscape:cx="-208.42495"
     inkscape:cy="119.23654"
     inkscape:document-units="px"
     inkscape:current-layer="layer1"
     showgrid="false"
     showguides="true"
     inkscape:guide-bbox="true"
     inkscape:window-width="1918"
     inkscape:window-height="1032"
     inkscape:window-x="0"
     inkscape:window-y="25"
     inkscape:window-maximized="1" />
  <metadata
     id="metadata7">
    <rdf:RDF>
      <cc:Work
         rdf:about="">
        <dc:format>image/svg+xml</dc:format>
        <dc:type
           rdf:resource="http://purl.org/dc/dcmitype/StillImage" />
        <dc:title />
      </cc:Work>
    </rdf:RDF>
  </metadata>
  <g
     inkscape:label="Layer 1"
     inkscape:groupmode="layer"
     id="layer1"
     transform="translate(0,-796.3622)">
    <g
       style="fill-rule:evenodd"
       id="g5697"
       transform="matrix(0.85942278,0,0,0.85942278,-0.80282564,792.2486)">
      <g
         id="Capa_x0020_1-2">
        <metadata
           id="CorelCorpID_0Corel-Layer-8" />
        <g
           id="_64178408">
          <path
             d="m 112.138,57.709 60.1423,-0.20208 0.2007,-22.3008 60.8731,3.01182 -0.92182,18.2785 c 21.6239,2.48171 29.8801,4.97449 37.3183,28.3548 l -1.13635,54.5948 -239.992,1.13774 2.27547,-60.2821 c 6.54822,-21.4357 33.6297,-28.9652 81.2403,-22.5928 z"
             class="fil0 str0"
             id="_67805984"
             inkscape:connector-curvature="0"
             style="fill:#00923f;stroke:#72706f;stroke-width:4.15232992" />
          <g
             id="g5675">
            <path
               d="m 109.987,57.7658 c -19.8024,1.37996 -41.2935,0.575789 -60.4565,6.21742 -9.79949,2.88171 -13.5836,10.0708 -17.9408,18.572 l -0.992406,0 c 1.41871,-10.8486 5.24024,-20.3173 16.4391,-24.615 11.3732,-4.36548 23.689,-5.34958 35.8526,-4.62431 l 27.098096,4.44991 z"
               class="fil1 str1"
               id="_67632960"
               inkscape:connector-curvature="0"
               style="fill:#1f1a17;stroke:#1f1a17;stroke-width:1.38410997" />
          </g>
          <path
             d="m 109.985,57.7658 c -14.594,0 -40.1779,-3.63467 -53.5249,0.305888 -4.51219,1.3329 -12.0127,4.06651 -15.8577,6.90947 -3.84505,2.84296 -9.51021,13.5947 -9.51021,17.574"
             class="fil2"
             id="_67676584"
             inkscape:connector-curvature="0"
             style="fill:none" />
          <rect
             ry="21.5644"
             rx="21.5644"
             height="140.16901"
             width="135.856"
             transform="matrix(2.05213,-0.00599929,0.00937639,1.31301,10.0528,80.2359)"
             class="fil3 str0"
             id="_67274400"
             x="0"
             y="0"
             style="fill:#b8db7c;stroke:#72706f;stroke-width:4.15232992" />
          <g
             id="g5680">
            <path
               d="m 176.622,34.4076 56.2156,-1.64709 c 5.99734,0.477517 3.52809,9.36488 3.25266,12.5566 l -0.97026,7.15723 -0.004,0.51212 0.0775,0.01246 2.99106,0.0028 4.13295,0.13149 6.35721,1.45193 5.69561,2.8914 4.92881,3.91287 c 7.05895,6.51362 10.4583,14.4252 11.5615,23.6669 l -0.70175,0.07751 c -5.83125,-12.803 -13.8106,-22.8973 -28.2843,-25.3458 -4.97725,-0.840154 -13.4674,2.48309 -14.2522,-5.70806 l -0.14394,-1.60557 0.56748,-8.33372 0.5661,-4.32119 -6.81673,-0.8623 -9.42993,-1.10729 -16.7948,-0.776485 -18.9484,-2.66579 z m 58.1782,18.5152 -0.09,-0.05398 -0.0554,-0.0028 0.14533,0.05675 z m 7.51709,0.210385 0.15502,0.0055 -0.21731,-0.02076 0.0623,0.01523 z"
               class="fil1 str1"
               id="_67772936"
               inkscape:connector-curvature="0"
               style="fill:#1f1a17;stroke:#1f1a17;stroke-width:1.38410997" />
          </g>
          <path
             d="m 176.622,34.4076 c 9.9905,0 28.8822,1.08099 35.4539,0.444299 3.88658,-0.376478 16.147,1.70522 20.7616,1.70522 0,5.68453 -1.53774,10.8016 -1.53774,15.9172 0,6.2534 6.15098,3.41044 10.7642,3.97931 15.5186,0.881677 27.3735,18.9609 28.4448,28.6414"
             class="fil2"
             id="_67778800"
             inkscape:connector-curvature="0"
             style="fill:none" />
          <g
             id="g5684">
            <path
               d="m 289.832,146.273 3.90872,51.2328 c -0.73635,22.77 0.39032,56.7498 -27.3901,63.9292 -9.41609,2.43326 -19.1104,3.70111 -28.8351,3.83813 l -96.1762,-1.59449 -0.0111,-0.59794 96.0599,-5.00494 c 12.0182,-0.75849 25.4344,-1.94606 35.9052,-8.64376 15.0854,-9.64724 13.9421,-37.9855 15.2169,-52.1947 l 1.32182,-50.9643 z"
               class="fil1 str2"
               id="_67687976"
               inkscape:connector-curvature="0"
               style="fill:#1f1a17;stroke:#1f1a17;stroke-width:2.76821995" />
          </g>
          <path
             d="m 289.831,146.273 c 3.84505,15.9172 1.881,87.2708 -6.82366,99.2184 -8.07074,11.077 -24.6122,15.8121 -45.5566,16.183 l -96.1167,1.70522"
             class="fil2"
             id="_67623888"
             inkscape:connector-curvature="0"
             style="fill:none" />
          <g
             id="g5688">
            <path
               d="M 133.645,79.762 C 99.1544,81.04368 57.8152,76.35709 27.37,96.1388 c -8.06243,5.23747 -11.4092,16.1013 -12.2231,25.0219 l -1.38134,40.9945 -2.88033,28.4587 -0.542571,0 -1.14466,-56.001 c -0.174398,-14.1041 -1.58896,-29.5909 9.09359,-40.6983 11.1905,-11.6334 27.3583,-15.3733 42.906,-16.9692 24.5153,-2.51769 48.074201,0.5661 72.447001,2.81666 z"
               class="fil1 str2"
               id="_68286920"
               inkscape:connector-curvature="0"
               style="fill:#1f1a17;stroke:#1f1a17;stroke-width:2.76821995" />
          </g>
          <path
             d="m 133.644,79.762 c -16.9166,0 -36.9543,-2.06094 -53.8252,-1.13774 -52.6736,2.88171 -71.3051,17.0079 -67.6663,55.7104 0.700359,7.45896 -1.53913,47.7517 -1.53913,56.2792"
             class="fil2"
             id="_67551400"
             inkscape:connector-curvature="0"
             style="fill:none" />
        </g>
      </g>
    </g>
    <g
       id="g6270"
       transform="matrix(9.0922036,0,0,9.0922036,109.49447,868.49703)"
       style="fill:#00923f;fill-opacity:1;stroke:#737373;stroke-width:0.43993735;stroke-miterlimit:4;stroke-dasharray:none">
      <g
         style="fill:#00923f;fill-opacity:1;stroke:#737373;stroke-width:0.43993735;stroke-miterlimit:4;stroke-dasharray:none;display:inline"
         inkscape:label="status"
         id="layer9"
         transform="translate(-60.0002,-726)" />
      <g
         inkscape:label="devices"
         id="layer10"
         transform="translate(-60.0002,-726)"
         style="fill:#00923f;fill-opacity:1;stroke:#737373;stroke-width:0.43993735;stroke-miterlimit:4;stroke-dasharray:none" />
      <g
         inkscape:label="apps"
         id="layer11"
         transform="translate(-60.0002,-726)"
         style="fill:#00923f;fill-opacity:1;stroke:#737373;stroke-width:0.43993735;stroke-miterlimit:4;stroke-dasharray:none" />
      <g
         inkscape:label="actions"
         id="layer12"
         transform="translate(-60.0002,-726)"
         style="fill:#00923f;fill-opacity:1;stroke:#737373;stroke-width:0.43993735;stroke-miterlimit:4;stroke-dasharray:none">
        <path
           style="color:#bebebe;fill:#00923f;fill-opacity:1;stroke:#737373;stroke-width:0.43993735;stroke-miterlimit:4;stroke-dasharray:none;marker:none;visibility:visible;display:inline;overflow:visible"
           id="rect31992"
           d="m 67.0002,729 c -0.716733,1.1636 0.468144,3.39899 -0.330092,3.97642 -0.523508,0.18631 -2.940113,-0.57595 -3.669908,0.0236 -0.156586,0.41081 -0.137924,1.84709 0,2 1.331646,0.0479 3.002795,-0.0236 3.669908,-0.0236 0.763083,0.59624 -0.163687,3.99815 0.330092,4.02358 0.493779,0.0254 1.991875,0.22018 2.023578,-0.33009 0,-0.66667 -0.238562,-2.95823 0.188622,-3.66991 0.427184,-0.71168 3.058003,0.59953 3.787798,0 0.156586,-0.41081 0.232236,-2.03571 -0.212202,-2.07073 C 71.445059,732.69966 69.813202,733 69.2124,733 68.719241,732.21641 69.161075,730.31377 69.024327,729.19303 68.968982,728.73944 67.153108,728.86208 67.0002,729 z"
           inkscape:connector-curvature="0"
           sodipodi:nodetypes="ccccczczcccsc" />
      </g>
      <g
         inkscape:label="places"
         id="layer13"
         transform="translate(-60.0002,-726)"
         style="fill:#00923f;fill-opacity:1;stroke:#737373;stroke-width:0.43993735;stroke-miterlimit:4;stroke-dasharray:none" />
      <g
         inkscape:label="mimetypes"
         id="layer14"
         transform="translate(-60.0002,-726)"
         style="fill:#00923f;fill-opacity:1;stroke:#737373;stroke-width:0.43993735;stroke-miterlimit:4;stroke-dasharray:none" />
      <g
         style="fill:#00923f;fill-opacity:1;stroke:#737373;stroke-width:0.43993735;stroke-miterlimit:4;stroke-dasharray:none;display:inline"
         inkscape:label="emblems"
         id="layer15"
         transform="translate(-60.0002,-726)" />
      <g
         style="fill:#00923f;fill-opacity:1;stroke:#737373;stroke-width:0.43993735;stroke-miterlimit:4;stroke-dasharray:none;display:inline"
         inkscape:label="categories"
         id="g4953"
         transform="translate(-60.0002,-726)" />
    </g>
    <path
       style="fill:#1f1a17;fill-rule:evenodd;stroke:#1f1a17;stroke-opacity:1"
       inkscape:connector-curvature="0"
       id="_80379776-7-7-5-5-8-0-9-9-8-7-3"
       class="fil1 str1"
       d="m 191.56895,916.16173 c -3.01559,6.36922 -4.3448,10.87629 -0.32428,15.6853 2.42124,2.63402 7.16069,0.38572 10.73198,0.17025 4.03078,-0.24319 12.00184,-1.64708 12.00184,-1.64708 l 0.0372,-0.13154 c -14.32186,-1.60559 -15.66846,3.40494 -20.26579,-1.57229 -2.66905,-5.03063 -2.27799,-6.23906 -2.43709,-11.51407 z"
       sodipodi:nodetypes="ccaccccc" />
    <path
       sodipodi:nodetypes="ccaccccc"
       d="m 136.94202,935.46764 c -3.01559,6.36921 -4.3448,10.87628 -0.32427,15.68529 2.42124,2.63402 7.16069,0.38572 10.73197,0.17025 4.03079,-0.24319 12.00185,-1.64708 12.00185,-1.64708 l 0.0372,-0.13154 c -14.32186,-1.60559 -15.66846,3.40494 -20.26579,-1.57229 -2.66905,-5.03063 -2.27799,-6.23906 -2.43709,-11.51407 z"
       class="fil1 str1"
       id="path2999"
       inkscape:connector-curvature="0"
       style="fill:#1f1a17;fill-rule:evenodd;stroke:#1f1a17;stroke-opacity:1" />
    <path
       style="fill:#1f1a17;fill-rule:evenodd;stroke:#1f1a17;stroke-opacity:1"
       inkscape:connector-curvature="0"
       id="path3001"
       class="fil1 str1"
       d="m 174.52464,985.59003 c 5.79504,4.00977 10.02648,2.32363 16.08265,1.55052 2.99221,-1.96144 1.76893,-6.98693 1.91056,-10.56192 0.16059,-4.05364 -1.21217,-12.11001 -1.21217,-12.11001 l -0.12375,-0.0581 c -3.90974,13.8711 2.35134,16.01339 -3.30631,19.74154 -5.39725,1.81684 -7.1843,2.55103 -12.41515,1.85151 z"
       sodipodi:nodetypes="ccaccccc" />
  </g>
</svg>
