<?xml version="1.0" encoding="UTF-8" standalone="no"?>
<!-- Created with Inkscape (http://www.inkscape.org/) -->

<svg
   xmlns:dc="http://purl.org/dc/elements/1.1/"
   xmlns:cc="http://creativecommons.org/ns#"
   xmlns:rdf="http://www.w3.org/1999/02/22-rdf-syntax-ns#"
   xmlns:svg="http://www.w3.org/2000/svg"
   xmlns="http://www.w3.org/2000/svg"
   xmlns:sodipodi="http://sodipodi.sourceforge.net/DTD/sodipodi-0.dtd"
   xmlns:inkscape="http://www.inkscape.org/namespaces/inkscape"
   width="256"
   height="256"
   id="svg2"
   version="1.1"
   inkscape:version="0.48.3.1 r9886"
   sodipodi:docname="format-justify-left.svg">
  <defs
     id="defs4" />
  <sodipodi:namedview
     id="base"
     pagecolor="#ffffff"
     bordercolor="#666666"
     borderopacity="1.0"
     inkscape:pageopacity="0.0"
     inkscape:pageshadow="2"
     inkscape:zoom="2.0760274"
     inkscape:cx="61.194325"
     inkscape:cy="74.285714"
     inkscape:document-units="px"
     inkscape:current-layer="layer1"
     showgrid="false"
     inkscape:window-width="1918"
     inkscape:window-height="1032"
     inkscape:window-x="0"
     inkscape:window-y="25"
     inkscape:window-maximized="1" />
  <metadata
     id="metadata7">
    <rdf:RDF>
      <cc:Work
         rdf:about="">
        <dc:format>image/svg+xml</dc:format>
        <dc:type
           rdf:resource="http://purl.org/dc/dcmitype/StillImage" />
        <dc:title />
      </cc:Work>
    </rdf:RDF>
  </metadata>
  <g
     inkscape:label="Capa 1"
     inkscape:groupmode="layer"
     id="layer1"
     transform="translate(0,-796.36218)">
    <path
       style="color:#bebebe;fill:#b8db7d;fill-opacity:1;fill-rule:nonzero;stroke:#737373;stroke-width:4.66703844;stroke-miterlimit:4;stroke-dasharray:none;marker:none;visibility:visible;display:inline;overflow:visible;enable-background:accumulate"
       d="m 4.8656938,816.0379 -0.4398546,7.5669 C 3.1774279,845.0815 24.828159,843.53 51.560893,844.3685 l 51.764517,1.6236 53.80415,-0.7229 c 26.78564,-0.36 49.21973,-5.1203 47.33339,-15.3899 l -2.02399,-11.0191 c -1.88633,-10.26962 -17.93848,-16.47281 -44.67122,-17.31132 0,0 -34.47317,-1.963 -51.76452,-1.62367 -17.350244,0.34039 -52.072233,3.67011 -52.072233,3.67011 -26.804421,1.88912 -48.4453798,1.77814 -49.0652932,12.44258 z"
       id="rect4317-8-6"
       inkscape:connector-curvature="0"
       sodipodi:nodetypes="ssscssssass" />
    <path
       sodipodi:nodetypes="cscaccsacc"
       d="m 181.06208,802.76847 c 0,0 17.08781,0.90606 26.12516,15.10913 5.0693,7.9669 5.73628,21.3052 -9.45374,25.4522 -5.14764,1.4052 -19.49697,3.7792 -29.4879,4.504 -15.51117,1.1252 -46.7583,-0.2796 -46.7583,-0.2796 l -0.0328,-0.2076 c 31.46171,-0.7155 44.86195,-1.6032 70.21619,-10.4622 7.65966,-2.6763 9.56881,-11.5426 8.20895,-17.6927 -1.23418,-5.5817 -13.98574,-13.49988 -13.98574,-13.49988 z"
       class="fil1 str1"
       id="path3022"
       inkscape:connector-curvature="0"
       style="fill:#1f1a17;fill-rule:evenodd;stroke:none" />
    <path
       sodipodi:nodetypes="ssscssssass"
       inkscape:connector-curvature="0"
       id="path3003"
       d="m 4.9609918,916.22926 -0.5351526,7.5669 c -1.5188896,21.4767 24.8226448,19.9252 57.3472398,20.7637 l 62.979721,1.6236 65.46124,-0.7229 c 32.58896,-0.36 59.88358,-5.1203 57.58855,-15.3899 l -2.46251,-11.0191 c -2.29501,-10.26962 -21.82498,-16.47281 -54.34959,-17.31132 0,0 -41.94205,-1.963 -62.97972,-1.62367 -21.10931,0.34039 -63.354097,3.67011 -63.354097,3.67011 -32.611813,1.88912 -58.9414586,1.77814 -59.6956812,12.44258 z"
       style="color:#bebebe;fill:#b8db7d;fill-opacity:1;fill-rule:nonzero;stroke:#737373;stroke-width:5.1478467;stroke-miterlimit:4;stroke-dasharray:none;marker:none;visibility:visible;display:inline;overflow:visible;enable-background:accumulate" />
    <path
       style="fill:#1f1a17;fill-rule:evenodd;stroke:none"
       inkscape:connector-curvature="0"
       id="path3005"
       class="fil1 str1"
       d="m 219.33173,902.95983 c 0,0 20.79003,0.90606 31.78539,15.10913 6.1676,7.9669 6.9791,21.3052 -11.50197,25.4522 -6.26291,1.4052 -23.72114,3.7792 -35.87668,4.504 -18.87179,1.1252 -56.88886,-0.2796 -56.88886,-0.2796 l -0.0399,-0.2076 c 38.27814,-0.7155 54.58164,-1.6032 85.42908,-10.4622 9.31919,-2.6763 11.64198,-11.5426 9.98749,-17.6927 -1.50157,-5.5817 -17.01586,-13.49988 -17.01586,-13.49988 z"
       sodipodi:nodetypes="cscaccsacc" />
    <path
       style="color:#bebebe;fill:#b8db7d;fill-opacity:1;fill-rule:nonzero;stroke:#737373;stroke-width:3.31368279;stroke-miterlimit:4;stroke-dasharray:none;marker:none;visibility:visible;display:inline;overflow:visible;enable-background:accumulate"
       d="m 4.6475814,1019.3108 -0.2217422,7.5669 c -0.6293567,21.4767 10.2853418,19.9252 23.7620098,20.7637 l 26.095847,1.6236 27.124071,-0.7229 c 13.503339,-0.36 24.812953,-5.1203 23.862003,-15.3899 l -1.02035,-11.0191 c -0.95095,-10.2697 -9.043253,-16.4729 -22.519928,-17.3114 0,0 -17.378821,-1.963 -26.095846,-1.6236 -8.746709,0.3404 -26.25097,3.6701 -26.25097,3.6701 -13.512808,1.8891 -24.4225801,1.7781 -24.7350946,12.4426 z"
       id="path3007"
       inkscape:connector-curvature="0"
       sodipodi:nodetypes="ssscssssass" />
    <path
       sodipodi:nodetypes="cscaccsacc"
       d="m 93.472774,1006.0413 c 0,0 8.614416,0.9061 13.170376,15.1092 2.55557,7.9669 2.89181,21.3052 -4.76588,25.4522 -2.595053,1.4052 -9.828926,3.7792 -14.865612,4.504 -7.819586,1.1252 -23.572079,-0.2796 -23.572079,-0.2796 l -0.01653,-0.2076 c 15.860668,-0.7155 22.616075,-1.6032 35.397809,-10.4622 3.861435,-2.6763 4.823895,-11.5426 4.138345,-17.6927 -0.62218,-5.5817 -7.050572,-13.4999 -7.050572,-13.4999 z"
       class="fil1 str1"
       id="path3009"
       inkscape:connector-curvature="0"
       style="fill:#1f1a17;fill-rule:evenodd;stroke:none" />
  </g>
</svg>
