<?xml version="1.0" encoding="UTF-8" standalone="no"?>
<!-- Created with Inkscape (http://www.inkscape.org/) -->

<svg
   xmlns:dc="http://purl.org/dc/elements/1.1/"
   xmlns:cc="http://creativecommons.org/ns#"
   xmlns:rdf="http://www.w3.org/1999/02/22-rdf-syntax-ns#"
   xmlns:svg="http://www.w3.org/2000/svg"
   xmlns="http://www.w3.org/2000/svg"
   xmlns:sodipodi="http://sodipodi.sourceforge.net/DTD/sodipodi-0.dtd"
   xmlns:inkscape="http://www.inkscape.org/namespaces/inkscape"
   width="256"
   height="256"
   id="svg2"
   version="1.1"
   inkscape:version="0.48.3.1 r9886"
   sodipodi:docname="go-jump.svg">
  <defs
     id="defs4" />
  <sodipodi:namedview
     id="base"
     pagecolor="#ffffff"
     bordercolor="#666666"
     borderopacity="1.0"
     inkscape:pageopacity="0.0"
     inkscape:pageshadow="2"
     inkscape:zoom="2.0760274"
     inkscape:cx="61.194325"
     inkscape:cy="74.285714"
     inkscape:document-units="px"
     inkscape:current-layer="layer1"
     showgrid="false"
     inkscape:window-width="1918"
     inkscape:window-height="1032"
     inkscape:window-x="0"
     inkscape:window-y="25"
     inkscape:window-maximized="1" />
  <metadata
     id="metadata7">
    <rdf:RDF>
      <cc:Work
         rdf:about="">
        <dc:format>image/svg+xml</dc:format>
        <dc:type
           rdf:resource="http://purl.org/dc/dcmitype/StillImage" />
        <dc:title />
      </cc:Work>
    </rdf:RDF>
  </metadata>
  <g
     inkscape:label="Capa 1"
     inkscape:groupmode="layer"
     id="layer1"
     transform="translate(0,-796.36218)">
    <path
       style="font-size:medium;font-style:normal;font-variant:normal;font-weight:normal;font-stretch:normal;text-indent:0;text-align:start;text-decoration:none;line-height:normal;letter-spacing:normal;word-spacing:normal;text-transform:none;direction:ltr;block-progression:tb;writing-mode:lr-tb;text-anchor:start;baseline-shift:baseline;color:#000000;fill:#b8db7d;fill-opacity:1;stroke:#737373;stroke-width:6.8126111;stroke-miterlimit:4;stroke-opacity:1;stroke-dasharray:none;marker:none;visibility:visible;display:inline;overflow:visible;enable-background:accumulate;font-family:Sans;-inkscape-font-specification:Sans"
       d="m 230.97665,980.39985 c -22.46537,21.81435 -66.05244,62.25385 -84.5722,62.21835 -21.08937,-0.9869 -66.08285,-42.512 -84.572097,-62.21835 -8.418854,-8.86798 -7.4438,-22.64726 0.107298,-30.70982 9.388971,-7.90546 24.541231,-5.39613 32.625927,1.38381 l 29.592292,26.55839 0,-104.37125 c 0,-17.15012 -14.95545,-30.60352 -34.063068,-30.60352 -19.107492,0 -34.116185,7.01334 -34.116185,24.16348 0,0 -0.105596,14.73263 -2.501591,17.13797 -10.719473,10.71966 -29.783373,10.24148 -40.503016,-0.47901 -2.405363,-2.40535 -2.501591,-19.16047 -2.501591,-19.16047 0,-39.21116 35.935842,-62.48442 79.622383,-62.48442 43.686648,0 79.569188,32.21481 79.569188,71.42597 l 0,103.51967 28.63425,-25.70681 c 9.4713,-7.2681 25.72156,-8.67904 33.63729,-1.38381 7.72166,8.94785 6.22597,23.83913 -0.95803,30.70982 z"
       id="path4762"
       inkscape:connector-curvature="0"
       sodipodi:nodetypes="ccccccssccccsscccc" />
    <path
       style="fill:#1f1a17;fill-rule:evenodd;stroke:none"
       inkscape:connector-curvature="0"
       id="path3002"
       class="fil1 str1"
       d="m 107.84508,1026.7208 c 15.19561,9.1521 18.0619,16.6325 37.11217,20.9808 11.04631,1.9505 14.132,-3.5573 20.57324,-6.8325 9.00564,-4.5789 24.66527,-17.6138 24.66527,-17.6138 l 11.12137,-15.4025 c -8.49788,11.5412 -40.71114,27.859 -61.64595,24.2175 -15.63546,-7.5751 -16.42838,-5.4527 -24.26792,-9.0765 -10.02988,-4.6363 -28.961551,-16.1268 -28.961551,-16.1268 z"
       sodipodi:nodetypes="ccacccacc" />
    <path
       style="fill:#1f1a17;fill-rule:evenodd;stroke:#000000;stroke-width:1.35588384;stroke-opacity:1"
       inkscape:connector-curvature="0"
       id="path3815"
       class="fil1 str1"
       d="m 21.05547,892.96406 c 15.404676,4.99351 23.871218,3.17154 34.802904,-2.17413 5.987604,-3.22011 4.679072,-11.55921 5.066369,-17.18908 0.402284,-5.84817 -2.358186,-14.32791 -2.358186,-14.32791 -0.984592,13.93383 -0.358343,19.77054 -6.415095,26.58236 -4.984447,5.60569 -6.317845,7.58944 -21.108194,7.80104 z"
       sodipodi:nodetypes="ccscacc" />
  </g>
</svg>
