<?xml version="1.0" encoding="UTF-8" standalone="no"?>
<!-- Created with Inkscape (http://www.inkscape.org/) -->

<svg
   xmlns:dc="http://purl.org/dc/elements/1.1/"
   xmlns:cc="http://creativecommons.org/ns#"
   xmlns:rdf="http://www.w3.org/1999/02/22-rdf-syntax-ns#"
   xmlns:svg="http://www.w3.org/2000/svg"
   xmlns="http://www.w3.org/2000/svg"
   xmlns:sodipodi="http://sodipodi.sourceforge.net/DTD/sodipodi-0.dtd"
   xmlns:inkscape="http://www.inkscape.org/namespaces/inkscape"
   width="256"
   height="256"
   id="svg2"
   version="1.1"
   inkscape:version="0.48.3.1 r9886"
   sodipodi:docname="document-close.svg">
  <defs
     id="defs4" />
  <sodipodi:namedview
     id="base"
     pagecolor="#ffffff"
     bordercolor="#666666"
     borderopacity="1.0"
     inkscape:pageopacity="0.0"
     inkscape:pageshadow="2"
     inkscape:zoom="2.0760274"
     inkscape:cx="-23.582976"
     inkscape:cy="74.285714"
     inkscape:document-units="px"
     inkscape:current-layer="layer1"
     showgrid="false"
     inkscape:window-width="1918"
     inkscape:window-height="1032"
     inkscape:window-x="0"
     inkscape:window-y="25"
     inkscape:window-maximized="1" />
  <metadata
     id="metadata7">
    <rdf:RDF>
      <cc:Work
         rdf:about="">
        <dc:format>image/svg+xml</dc:format>
        <dc:type
           rdf:resource="http://purl.org/dc/dcmitype/StillImage" />
        <dc:title />
      </cc:Work>
    </rdf:RDF>
  </metadata>
  <g
     inkscape:label="Capa 1"
     inkscape:groupmode="layer"
     id="layer1"
     transform="translate(0,-796.36218)">
    <g
       id="g4296"
       transform="matrix(31.163044,0,0,31.163044,-121.36684,675.62566)"
       style="fill:#b8db7d;fill-opacity:1;stroke:#737373;stroke-width:0.12596121;stroke-miterlimit:4;stroke-dasharray:none">
      <g
         style="fill:#b8db7d;fill-opacity:1;stroke:#737373;stroke-width:0.12596121;stroke-miterlimit:4;stroke-dasharray:none;display:inline"
         id="layer9-7"
         transform="translate(-60,-518)" />
      <g
         id="layer10-8"
         transform="translate(-60,-518)"
         style="fill:#b8db7d;fill-opacity:1;stroke:#737373;stroke-width:0.12596121;stroke-miterlimit:4;stroke-dasharray:none" />
      <g
         id="layer11-2"
         transform="translate(-60,-518)"
         style="fill:#b8db7d;fill-opacity:1;stroke:#737373;stroke-width:0.12596121;stroke-miterlimit:4;stroke-dasharray:none" />
      <g
         id="layer12-7"
         transform="translate(-60,-518)"
         style="fill:#b8db7d;fill-opacity:1;stroke:#737373;stroke-width:0.12596121;stroke-miterlimit:4;stroke-dasharray:none">
        <g
           style="fill:#b8db7d;fill-opacity:1;stroke:#737373;stroke-width:0.12596121;stroke-miterlimit:4;stroke-dasharray:none;display:inline"
           id="layer4-4-1"
           transform="translate(19,-242)">
          <path
             style="font-size:medium;font-style:normal;font-variant:normal;font-weight:normal;font-stretch:normal;text-indent:0;text-align:start;text-decoration:none;line-height:normal;letter-spacing:normal;word-spacing:normal;text-transform:none;direction:ltr;block-progression:tb;writing-mode:lr-tb;text-anchor:start;color:#bebebe;fill:#b8db7d;fill-opacity:1;fill-rule:nonzero;stroke:#737373;stroke-width:0.12596121;stroke-miterlimit:4;stroke-dasharray:none;marker:none;visibility:visible;display:inline;overflow:visible;enable-background:new;font-family:Andale Mono;-inkscape-font-specification:Andale Mono"
             id="path10839-9"
             d="M 45.257865,764.25787 C 45.443047,764.07268 45.738997,763.98866 46,764 c 0.255552,0.0111 0.568417,0.16146 0.71875,0.3125 0.184297,0.18516 1.201311,2.30871 2.284675,2.31159 1.089097,0.003 2.309075,-2.31159 2.309075,-2.31159 C 51.578125,764.082 51.759172,764.007 52,764 c 0,0 0.556953,0.0727 0.742135,0.25787 C 52.927316,764.44305 53,765 53,765 c 0,0.28647 -0.03434,0.55065 -0.25,0.75 -0.193513,0.17888 -2.600191,1.12807 -2.599789,2.28092 3.96e-4,1.13829 2.386611,2.06842 2.568539,2.25033 0.188188,0.18817 0.281242,0.45345 0.28125,0.71875 8e-6,0.25727 -0.103597,0.54149 -0.288779,0.72667 C 52.526036,771.91186 52.257273,772.00001 52,772 c -0.265301,-10e-6 -0.530586,-0.0931 -0.71875,-0.28125 -0.181926,-0.18191 -1.196061,-2.31078 -2.277825,-2.31159 -1.083368,-8.1e-4 -2.284675,2.31159 -2.284675,2.31159 C 46.530586,771.90694 46.26529,772 46,772 c 0,0 -0.556953,-0.0727 -0.742135,-0.25787 C 45.072684,771.55695 45,771 45,771 c -3e-6,-0.26529 0.09306,-0.53058 0.28125,-0.71875 0.181929,-0.18191 2.595958,-1.10419 2.599789,-2.25033 0.0039,-1.15284 -2.403642,-2.09977 -2.599789,-2.28092 C 45.070508,765.55537 44.97809,765.28075 45,765 c 0.02077,-0.26619 0.07268,-0.55695 0.257865,-0.74213 z"
             inkscape:connector-curvature="0"
             sodipodi:nodetypes="assaccassasssssacsacsassa" />
        </g>
      </g>
      <g
         id="layer13-8"
         transform="translate(-60,-518)"
         style="fill:#b8db7d;fill-opacity:1;stroke:#737373;stroke-width:0.12596121;stroke-miterlimit:4;stroke-dasharray:none" />
      <g
         id="layer14-0"
         transform="translate(-60,-518)"
         style="fill:#b8db7d;fill-opacity:1;stroke:#737373;stroke-width:0.12596121;stroke-miterlimit:4;stroke-dasharray:none" />
      <g
         id="layer15-2"
         transform="translate(-60,-518)"
         style="fill:#b8db7d;fill-opacity:1;stroke:#737373;stroke-width:0.12596121;stroke-miterlimit:4;stroke-dasharray:none" />
    </g>
    <path
       sodipodi:nodetypes="ccscsccc"
       d="m 4.3304113,1005.7021 c -6.03409,12.7445 -3.58471437,28.9157 4.4602256,38.5384 4.8448201,5.2706 14.7513551,7.843 22.6785351,7.3252 17.935217,-1.1715 23.292757,-8.8352 23.292757,-8.8352 0,0 -4.937441,1.2814 -13.171953,4.072 -8.158179,2.7647 -18.587299,1.0329 -27.786399,-8.9264 -5.3406801,-10.0661 -9.6672657,-19.6368 -9.9856257,-30.1919 z"
       class="fil1 str1"
       id="path2999"
       inkscape:connector-curvature="0"
       style="fill:#1f1a17;fill-rule:evenodd;stroke:none" />
    <path
       sodipodi:nodetypes="ccacccac"
       d="m 71.454708,886.80994 c 19.347637,21.55219 31.984992,20.1576 32.501032,37.74975 -0.18276,10.10806 -12.376074,17.73586 -19.708472,25.63647 -8.69573,9.36962 -28.57742,25.57307 -28.57742,25.57307 l -0.32682,-0.16381 c 27.40044,-33.85808 36.908037,-32.3984 37.300495,-51.54631 -3.804409,-15.08953 -11.640225,-17.38309 -16.507625,-26.62017 -1.80477,-3.42498 -4.68119,-10.629 -4.68119,-10.629 z"
       class="fil1 str1"
       id="path3826"
       inkscape:connector-curvature="0"
       style="fill:#1f1a17;fill-rule:evenodd;stroke:none" />
    <path
       style="fill:#1f1a17;fill-rule:evenodd;stroke:none"
       inkscape:connector-curvature="0"
       id="path3771"
       class="fil1 str1"
       d="m 249.85559,844.98633 c 6.03409,-12.7445 3.58472,-28.9157 -4.46022,-38.5384 -4.84482,-5.2706 -14.75136,-7.843 -22.67854,-7.3252 -17.93522,1.1715 -23.29276,8.8352 -23.29276,8.8352 0,0 4.93745,-1.2814 13.17196,-4.072 8.15818,-2.7647 18.5873,-1.0329 27.7864,8.9264 5.34068,10.0661 9.66726,19.6368 9.98562,30.1919 z"
       sodipodi:nodetypes="ccscsccc" />
  </g>
</svg>
