<?xml version="1.0" encoding="UTF-8" standalone="no"?>
<!-- Created with Inkscape (http://www.inkscape.org/) -->

<svg
   xmlns:dc="http://purl.org/dc/elements/1.1/"
   xmlns:cc="http://creativecommons.org/ns#"
   xmlns:rdf="http://www.w3.org/1999/02/22-rdf-syntax-ns#"
   xmlns:svg="http://www.w3.org/2000/svg"
   xmlns="http://www.w3.org/2000/svg"
   xmlns:sodipodi="http://sodipodi.sourceforge.net/DTD/sodipodi-0.dtd"
   xmlns:inkscape="http://www.inkscape.org/namespaces/inkscape"
   width="256"
   height="256"
   id="svg2"
   version="1.1"
   inkscape:version="0.48.3.1 r9886"
   sodipodi:docname="gtk-justify-right.svg">
  <defs
     id="defs4" />
  <sodipodi:namedview
     id="base"
     pagecolor="#ffffff"
     bordercolor="#666666"
     borderopacity="1.0"
     inkscape:pageopacity="0.0"
     inkscape:pageshadow="2"
     inkscape:zoom="2.0760274"
     inkscape:cx="61.194325"
     inkscape:cy="74.285714"
     inkscape:document-units="px"
     inkscape:current-layer="layer1"
     showgrid="false"
     inkscape:window-width="1918"
     inkscape:window-height="1032"
     inkscape:window-x="0"
     inkscape:window-y="25"
     inkscape:window-maximized="1" />
  <metadata
     id="metadata7">
    <rdf:RDF>
      <cc:Work
         rdf:about="">
        <dc:format>image/svg+xml</dc:format>
        <dc:type
           rdf:resource="http://purl.org/dc/dcmitype/StillImage" />
        <dc:title />
      </cc:Work>
    </rdf:RDF>
  </metadata>
  <g
     inkscape:label="Capa 1"
     inkscape:groupmode="layer"
     id="layer1"
     transform="translate(0,-796.36218)">
    <path
       style="color:#bebebe;fill:#b8db7d;fill-opacity:1;fill-rule:nonzero;stroke:#737373;stroke-width:4.60699368;stroke-miterlimit:4;stroke-dasharray:none;marker:none;visibility:visible;display:inline;overflow:visible;enable-background:accumulate"
       d="m 54.012401,815.55622 -0.428613,7.5669 c -1.216489,21.4767 19.880716,19.9252 45.930006,20.7637 l 50.441116,1.6236 52.4286,-0.7229 c 26.10085,-0.36 47.96139,-5.1203 46.12328,-15.3899 l -1.97226,-11.0191 c -1.8381,-10.26962 -17.47986,-16.47281 -43.52915,-17.31132 0,0 -33.59184,-1.963 -50.44112,-1.62367 -16.90668,0.34039 -50.74097,3.67011 -50.74097,3.67011 -26.119135,1.88912 -47.206829,1.77814 -47.810889,12.44258 z"
       id="rect4317-8-6"
       inkscape:connector-curvature="0"
       sodipodi:nodetypes="ssscssssass" />
    <path
       sodipodi:nodetypes="cscaccsacc"
       d="m 225.70417,802.28679 c 0,0 16.65095,0.90606 25.45726,15.10913 4.93969,7.9669 5.58962,21.3052 -9.21205,25.4522 -5.01604,1.4052 -18.99851,3.7792 -28.73403,4.504 -15.1146,1.1252 -45.56289,-0.2796 -45.56289,-0.2796 l -0.032,-0.2076 c 30.65738,-0.7155 43.71504,-1.6032 68.42106,-10.4622 7.46384,-2.6763 9.32419,-11.5426 7.9991,-17.6927 -1.20263,-5.5817 -13.62819,-13.49988 -13.62819,-13.49988 z"
       class="fil1 str1"
       id="path3022"
       inkscape:connector-curvature="0"
       style="fill:#1f1a17;fill-rule:evenodd;stroke:none" />
    <path
       sodipodi:nodetypes="ssscssssass"
       inkscape:connector-curvature="0"
       id="path3004"
       d="m 4.120279,917.19264 -0.5370808,7.5669 c -1.5243439,21.4767 24.9118888,19.9252 57.5534238,20.7637 l 63.206148,1.6236 65.69662,-0.7229 c 32.70612,-0.36 60.09887,-5.1203 57.79559,-15.3899 l -2.47136,-11.0191 c -2.30327,-10.26962 -21.90346,-16.47281 -54.545,-17.31132 0,0 -42.09286,-1.963 -63.20615,-1.62367 -21.18523,0.34039 -63.581889,3.67011 -63.581889,3.67011 -32.729059,1.88912 -59.1533738,1.77814 -59.910302,12.44258 z"
       style="color:#bebebe;fill:#b8db7d;fill-opacity:1;fill-rule:nonzero;stroke:#737373;stroke-width:5.15709305;stroke-miterlimit:4;stroke-dasharray:none;marker:none;visibility:visible;display:inline;overflow:visible;enable-background:accumulate" />
    <path
       style="fill:#1f1a17;fill-rule:evenodd;stroke:none"
       inkscape:connector-curvature="0"
       id="path3006"
       class="fil1 str1"
       d="m 219.26176,903.92321 c 0,0 20.86477,0.90606 31.89967,15.10913 6.18977,7.9669 7.00418,21.3052 -11.54333,25.4522 -6.28544,1.4052 -23.80643,3.7792 -36.00568,4.504 -18.93964,1.1252 -57.09341,-0.2796 -57.09341,-0.2796 l -0.0401,-0.2076 c 38.41578,-0.7155 54.77791,-1.6032 85.73623,-10.4622 9.3527,-2.6763 11.68385,-11.5426 10.02342,-17.6927 -1.50698,-5.5817 -17.07705,-13.49988 -17.07705,-13.49988 z"
       sodipodi:nodetypes="cscaccsacc" />
    <path
       style="color:#bebebe;fill:#b8db7d;fill-opacity:1;fill-rule:nonzero;stroke:#737373;stroke-width:3.29107952;stroke-miterlimit:4;stroke-dasharray:none;marker:none;visibility:visible;display:inline;overflow:visible;enable-background:accumulate"
       d="m 152.87894,1019.3108 -0.21873,7.5669 c -0.62079,21.4767 10.1455,19.9252 23.43894,20.7637 l 25.74105,1.6236 26.7553,-0.7229 c 13.31975,-0.36 24.47559,-5.1203 23.53757,-15.3899 l -1.00648,-11.0191 c -0.93802,-10.2697 -8.9203,-16.4729 -22.21374,-17.3114 0,0 -17.14255,-1.963 -25.74105,-1.6236 -8.6278,0.3404 -25.89406,3.6701 -25.89406,3.6701 -13.32909,1.8891 -24.09053,1.7781 -24.3988,12.4426 z"
       id="path3008"
       inkscape:connector-curvature="0"
       sodipodi:nodetypes="ssscssssass" />
    <path
       sodipodi:nodetypes="cscaccsacc"
       d="m 240.49647,1006.0413 c 0,0 8.49729,0.9061 12.99131,15.1092 2.52082,7.9669 2.85249,21.3052 -4.70108,25.4522 -2.55978,1.4052 -9.6953,3.7792 -14.66351,4.504 -7.71327,1.1252 -23.2516,-0.2796 -23.2516,-0.2796 l -0.0163,-0.2076 c 15.64504,-0.7155 22.3086,-1.6032 34.91655,-10.4622 3.80893,-2.6763 4.7583,-11.5426 4.08209,-17.6927 -0.61373,-5.5817 -6.95472,-13.4999 -6.95472,-13.4999 z"
       class="fil1 str1"
       id="path3010"
       inkscape:connector-curvature="0"
       style="fill:#1f1a17;fill-rule:evenodd;stroke:none" />
  </g>
</svg>
