<?xml version="1.0" encoding="UTF-8" standalone="no"?>
<!-- Created with Inkscape (http://www.inkscape.org/) -->

<svg
   xmlns:dc="http://purl.org/dc/elements/1.1/"
   xmlns:cc="http://creativecommons.org/ns#"
   xmlns:rdf="http://www.w3.org/1999/02/22-rdf-syntax-ns#"
   xmlns:svg="http://www.w3.org/2000/svg"
   xmlns="http://www.w3.org/2000/svg"
   xmlns:sodipodi="http://sodipodi.sourceforge.net/DTD/sodipodi-0.dtd"
   xmlns:inkscape="http://www.inkscape.org/namespaces/inkscape"
   width="256"
   height="256"
   id="svg2"
   version="1.1"
   inkscape:version="0.48.3.1 r9886"
   sodipodi:docname="gtk-media-next-rtl.svg">
  <defs
     id="defs4" />
  <sodipodi:namedview
     id="base"
     pagecolor="#ffffff"
     bordercolor="#666666"
     borderopacity="1.0"
     inkscape:pageopacity="0.0"
     inkscape:pageshadow="2"
     inkscape:zoom="2.5686441"
     inkscape:cx="74.272517"
     inkscape:cy="111.42857"
     inkscape:document-units="px"
     inkscape:current-layer="layer1"
     showgrid="false"
     inkscape:window-width="1918"
     inkscape:window-height="1032"
     inkscape:window-x="0"
     inkscape:window-y="25"
     inkscape:window-maximized="1" />
  <metadata
     id="metadata7">
    <rdf:RDF>
      <cc:Work
         rdf:about="">
        <dc:format>image/svg+xml</dc:format>
        <dc:type
           rdf:resource="http://purl.org/dc/dcmitype/StillImage" />
        <dc:title />
      </cc:Work>
    </rdf:RDF>
  </metadata>
  <g
     inkscape:label="Capa 1"
     inkscape:groupmode="layer"
     id="layer1"
     transform="translate(0,-796.36218)">
    <g
       id="layer1-5"
       inkscape:label="Capa 1"
       transform="matrix(-1,0,0,1,256.61935,-1.038705)">
      <g
         transform="matrix(0.86863561,0,0,0.86863561,-2.3834591,125.77261)"
         inkscape:label="Capa 1"
         id="layer1-4">
        <g
           inkscape:label="status"
           transform="matrix(-18.346138,0,0,18.346138,1376.3885,-10338.376)"
           id="layer9-1"
           style="fill:#b8db7d;fill-opacity:1;display:inline" />
        <g
           style="fill:#b8db7d;fill-opacity:1"
           inkscape:label="devices"
           transform="matrix(-18.346138,0,0,18.346138,1376.3885,-10338.376)"
           id="layer10-7" />
        <g
           style="fill:#b8db7d;fill-opacity:1"
           inkscape:label="apps"
           transform="matrix(-18.346138,0,0,18.346138,1376.3885,-10338.376)"
           id="layer11-4" />
        <path
           inkscape:connector-curvature="0"
           d="m 26.134557,842.83848 c 3.471522,0.15656 6.872707,1.15858 9.785331,3.05791 l 97.853312,58.71199 c 5.52668,3.51704 8.56217,10.0149 8.56217,16.51274 0,6.49785 -3.03549,12.99571 -8.56217,16.51275 l -97.853312,58.71199 c -2.912624,1.89835 -6.313809,2.90134 -9.785331,3.05791 l -3.057915,0 c 0,0 -16.4647698,-4.67508 -16.5127467,-21.33491 -0.047977,-16.65978 -0.047977,-97.65098 0,-113.89547 0.047977,-16.24449 16.5127467,-21.33491 16.5127467,-21.33491 z"
           id="path3807-1-1-4-7-2"
           sodipodi:nodetypes="cccscccczzcc"
           style="font-size:medium;font-style:normal;font-variant:normal;font-weight:normal;font-stretch:normal;text-indent:0;text-align:start;text-decoration:none;line-height:normal;letter-spacing:normal;word-spacing:normal;text-transform:none;direction:ltr;block-progression:tb;writing-mode:lr-tb;text-anchor:start;color:#000000;fill:#00923f;fill-opacity:1;fill-rule:nonzero;stroke:#737373;stroke-width:4.26698256;stroke-miterlimit:4;stroke-opacity:1;stroke-dasharray:none;marker:none;visibility:visible;display:inline;overflow:visible;enable-background:accumulate;font-family:Bitstream Vera Sans;-inkscape-font-specification:Bitstream Vera Sans" />
        <g
           style="fill:#b8db7d;fill-opacity:1"
           inkscape:label="places"
           transform="matrix(-18.346138,0,0,18.346138,1376.3885,-10338.376)"
           id="layer13-9" />
        <g
           style="fill:#b8db7d;fill-opacity:1"
           inkscape:label="mimetypes"
           transform="matrix(-18.346138,0,0,18.346138,1376.3885,-10338.376)"
           id="layer14-4" />
        <g
           inkscape:label="emblems"
           transform="matrix(-18.346138,0,0,18.346138,1376.3885,-10338.376)"
           id="layer15-8"
           style="fill:#b8db7d;fill-opacity:1;display:inline" />
        <path
           style="font-size:medium;font-style:normal;font-variant:normal;font-weight:normal;font-stretch:normal;text-indent:0;text-align:start;text-decoration:none;line-height:normal;letter-spacing:normal;word-spacing:normal;text-transform:none;direction:ltr;block-progression:tb;writing-mode:lr-tb;text-anchor:start;color:#000000;fill:#b8db7d;fill-opacity:1;fill-rule:nonzero;stroke:#737373;stroke-width:4.26698256;stroke-miterlimit:4;stroke-opacity:1;stroke-dasharray:none;marker:none;visibility:visible;display:inline;overflow:visible;enable-background:accumulate;font-family:Bitstream Vera Sans;-inkscape-font-specification:Bitstream Vera Sans"
           sodipodi:nodetypes="cccscccczzcc"
           id="path3798"
           d="m 134.94261,842.83848 c 3.47152,0.15656 6.87271,1.15858 9.78533,3.05791 l 97.85331,58.71199 c 5.52668,3.51704 8.56217,10.0149 8.56217,16.51274 0,6.49785 -3.03549,12.99571 -8.56217,16.51275 l -97.85331,58.71199 c -2.91262,1.89835 -6.31381,2.90134 -9.78533,3.05791 l -3.05792,0 c 0,0 -16.46477,-4.67508 -16.51275,-21.33491 -0.048,-16.65978 -0.048,-97.65098 0,-113.89547 0.048,-16.24449 16.51275,-21.33491 16.51275,-21.33491 z"
           inkscape:connector-curvature="0" />
        <path
           style="fill:#1f1a17;fill-rule:evenodd;stroke:none"
           inkscape:connector-curvature="0"
           id="_80379776-7-7-5-5-8-0-9-9-8-7-3"
           class="fil1 str1"
           d="m 216.28162,887.14687 c 0,0 15.63386,4.909 21.29667,9.90452 8.73918,7.70937 21.85182,19.91345 17.21348,28.89321 -1.57204,3.04291 -6.10039,10.42466 -10.8302,14.4157 -7.28695,6.14879 -25.96286,13.7775 -25.96286,13.7775 l -0.23731,-0.20219 c 17.86926,-10.54427 28.7154,-18.63345 30.57791,-32.60167 1.09942,-8.24531 -6.24038,-16.13558 -12.50117,-22.36861 -4.69529,-4.67446 -17.80344,-10.28281 -17.80344,-10.28281 z"
           sodipodi:nodetypes="cacaccaacc" />
        <path
           sodipodi:nodetypes="cscaccsacc"
           d="m 57.749085,985.44895 c 0,0 -10.23266,10.96262 -24.626659,17.17645 -8.073998,3.4855 -21.420966,3.579 -25.2346859,-7.6975 -1.292258,-3.82142 -3.352105,-14.42796 -3.858581,-21.78536 -0.786247,-11.42254 1.299752,-34.32411 1.299752,-34.32411 l 0.208225,-0.0179 c 0.02868,23.1221 0.623595,32.98764 8.9254509,51.8672 2.507984,5.70362 8.431537,5.35982 13.223357,5.77438 5.648307,0.48866 16.524268,-4.0284 16.524268,-4.0284 z"
           class="fil1 str1"
           id="path3808"
           inkscape:connector-curvature="0"
           style="fill:#1f1a17;fill-rule:evenodd;stroke:none" />
        <path
           style="fill:#1f1a17;fill-rule:evenodd;stroke:none"
           inkscape:connector-curvature="0"
           id="path3810"
           class="fil1 str1"
           d="m 165.58808,984.28102 c 0,0 -10.23266,10.96262 -24.62666,17.17648 -8.074,3.4855 -21.42096,3.579 -25.23468,-7.69753 -1.29226,-3.82142 -3.35211,-14.42796 -3.85859,-21.78536 -0.78624,-11.42254 1.29976,-34.32411 1.29976,-34.32411 l 0.20822,-0.0179 c 0.0287,23.1221 0.6236,32.98764 8.92545,51.8672 2.50799,5.70362 8.43154,5.35982 13.22336,5.77438 5.64831,0.48866 16.52427,-4.0284 16.52427,-4.0284 z"
           sodipodi:nodetypes="cscaccsacc" />
      </g>
      <path
         sodipodi:nodetypes="ssscssssass"
         inkscape:connector-curvature="0"
         id="rect4317-8-6"
         d="m 235.19155,864.28767 5.12252,0 c 14.53889,0 13.03158,13.6295 13.03158,30.55939 l 0,32.7826 -1.62891,33.9857 c -0.81101,16.91932 -4.50319,30.92614 -11.40267,29.35634 l -7.40303,-1.6844 c -6.89955,-1.56984 -10.75102,-11.94513 -10.75102,-28.87508 0,0 -0.59576,-21.86432 0,-32.7826 0.59779,-10.95545 3.58368,-32.78256 3.58368,-32.78256 1.84469,-16.87499 2.22838,-30.55939 9.44785,-30.55939 z"
         style="color:#bebebe;fill:#00923f;fill-opacity:1;fill-rule:nonzero;stroke:#737373;stroke-width:2.32504821;stroke-miterlimit:4;stroke-dasharray:none;marker:none;visibility:visible;display:inline;overflow:visible;enable-background:accumulate" />
      <path
         style="fill:#1f1a17;fill-rule:evenodd;stroke:none"
         inkscape:connector-curvature="0"
         id="path3022"
         class="fil1 str1"
         d="m 223.17046,980.13589 c 0,0 0.61282,6.41671 10.21902,9.81031 5.38839,1.9036 14.40971,2.154 17.21452,-3.54997 0.95041,-1.93303 2.55606,-7.32136 3.04627,-11.07307 0.76103,-5.82459 -0.1891,-17.55821 -0.1891,-17.55821 l -0.14041,-0.0122 c -0.48393,11.81418 -1.08432,16.84611 -7.07608,26.36695 -1.81011,2.87628 -7.80681,3.59317 -11.96641,3.08255 -3.77517,-0.46346 -9.13061,-5.25181 -9.13061,-5.25181 z"
         sodipodi:nodetypes="cscaccsacc" />
    </g>
  </g>
</svg>
