<?xml version="1.0" encoding="UTF-8" standalone="no"?>
<!-- Created with Inkscape (http://www.inkscape.org/) -->

<svg
   xmlns:dc="http://purl.org/dc/elements/1.1/"
   xmlns:cc="http://creativecommons.org/ns#"
   xmlns:rdf="http://www.w3.org/1999/02/22-rdf-syntax-ns#"
   xmlns:svg="http://www.w3.org/2000/svg"
   xmlns="http://www.w3.org/2000/svg"
   xmlns:sodipodi="http://sodipodi.sourceforge.net/DTD/sodipodi-0.dtd"
   xmlns:inkscape="http://www.inkscape.org/namespaces/inkscape"
   width="256"
   height="256"
   id="svg4374"
   version="1.1"
   inkscape:version="0.48.3.1 r9886"
   sodipodi:docname="gtk-cancel.svg">
  <defs
     id="defs4376" />
  <sodipodi:namedview
     id="base"
     pagecolor="#ffffff"
     bordercolor="#666666"
     borderopacity="1.0"
     inkscape:pageopacity="0.0"
     inkscape:pageshadow="2"
     inkscape:zoom="1.7124294"
     inkscape:cx="154.9802"
     inkscape:cy="28.495546"
     inkscape:document-units="px"
     inkscape:current-layer="layer1"
     showgrid="false"
     inkscape:window-width="1918"
     inkscape:window-height="1032"
     inkscape:window-x="0"
     inkscape:window-y="25"
     inkscape:window-maximized="1" />
  <metadata
     id="metadata4379">
    <rdf:RDF>
      <cc:Work
         rdf:about="">
        <dc:format>image/svg+xml</dc:format>
        <dc:type
           rdf:resource="http://purl.org/dc/dcmitype/StillImage" />
        <dc:title />
      </cc:Work>
    </rdf:RDF>
  </metadata>
  <g
     inkscape:label="Capa 1"
     inkscape:groupmode="layer"
     id="layer1"
     transform="translate(0,-796.36218)">
    <g
       inkscape:label="status"
       transform="matrix(23.054453,0,0,23.054453,-4112.4892,-13578.33)"
       id="layer9"
       style="fill:#b8db7d;fill-opacity:1;display:inline" />
    <g
       style="fill:#b8db7d;fill-opacity:1"
       inkscape:label="devices"
       transform="matrix(23.054453,0,0,23.054453,-4112.4892,-13578.33)"
       id="layer10" />
    <g
       style="fill:#b8db7d;fill-opacity:1"
       inkscape:label="apps"
       transform="matrix(23.054453,0,0,23.054453,-4112.4892,-13578.33)"
       id="layer11" />
    <path
       style="color:#bebebe;fill:#b8db7d;fill-opacity:1;fill-rule:nonzero;stroke:#737373;stroke-width:3.95416093000000002;stroke-miterlimit:4;stroke-dasharray:none;marker:none;visibility:visible;display:inline;overflow:visible;enable-background:accumulate"
       d="m 4.040501,916.39465 0,7.5738 c 0,21.4962 26.66209,19.2676 59.78046,19.2676 l 64.129489,0 66.48304,-2.4084 c 33.09764,-1.1991 60.49778,-6.6581 57.4269,-16.8592 l -3.29498,-10.9456 c -3.07088,-10.2012 -23.36711,-15.8957 -56.48549,-15.8957 0,0 -42.77114,-0.8809 -64.12947,0 -21.43112,0.8838 -64.129489,5.2986 -64.129489,5.2986 -33.01095,2.7274 -59.78046,3.2947 -59.78046,13.9689 z"
       id="rect4317-8-6"
       inkscape:connector-curvature="0"
       sodipodi:nodetypes="ssscssssass" />
    <g
       style="fill:#b8db7d;fill-opacity:1"
       inkscape:label="places"
       transform="matrix(23.054453,0,0,23.054453,-4112.4892,-13578.33)"
       id="layer13" />
    <g
       style="fill:#b8db7d;fill-opacity:1"
       inkscape:label="mimetypes"
       transform="matrix(23.054453,0,0,23.054453,-4112.4892,-13578.33)"
       id="layer14" />
    <g
       inkscape:label="emblems"
       transform="matrix(23.054453,0,0,23.054453,-4112.4892,-13578.33)"
       id="layer15"
       style="fill:#b8db7d;fill-opacity:1;display:inline" />
    <g
       inkscape:label="categories"
       transform="matrix(23.054453,0,0,23.054453,-4112.4892,-13578.33)"
       id="g4953"
       style="fill:#b8db7d;fill-opacity:1;display:inline" />
    <path
       sodipodi:nodetypes="cscaccsacc"
       d="m 234.76515,900.55483 c 0,0 12.55231,0.8473 19.19094,14.13016 3.72379,7.45072 4.21374,19.92482 -6.9445,23.80313 -3.78134,1.31415 -14.32202,3.53434 -21.66113,4.21218 -11.39414,1.0523 -34.34756,-0.26148 -34.34756,-0.26148 l -0.0241,-0.19415 c 23.11104,-0.66915 32.95455,-1.49933 51.57918,-9.78435 5.62661,-2.5029 7.02903,-10.79474 6.03011,-16.54637 -0.9066,-5.22005 -10.2736,-12.62523 -10.2736,-12.62523 z"
       class="fil1 str1"
       id="path3022"
       inkscape:connector-curvature="0"
       style="fill:#1f1a17;fill-rule:evenodd;stroke:none" />
  </g>
</svg>
