<?xml version="1.0" encoding="UTF-8" standalone="no"?>
<!-- Created with Inkscape (http://www.inkscape.org/) -->

<svg
   xmlns:dc="http://purl.org/dc/elements/1.1/"
   xmlns:cc="http://creativecommons.org/ns#"
   xmlns:rdf="http://www.w3.org/1999/02/22-rdf-syntax-ns#"
   xmlns:svg="http://www.w3.org/2000/svg"
   xmlns="http://www.w3.org/2000/svg"
   xmlns:sodipodi="http://sodipodi.sourceforge.net/DTD/sodipodi-0.dtd"
   xmlns:inkscape="http://www.inkscape.org/namespaces/inkscape"
   width="256"
   height="256"
   id="svg2"
   version="1.1"
   inkscape:version="0.48.3.1 r9886"
   sodipodi:docname="gtk-undelete.svg">
  <defs
     id="defs4">
    <inkscape:path-effect
       effect="skeletal"
       id="path-effect3828"
       is_visible="true"
       pattern="M 0,5 C 0,2.24 2.24,0 5,0 7.76,0 10,2.24 10,5 10,7.76 7.76,10 5,10 2.24,10 0,7.76 0,5 z"
       copytype="single_stretched"
       prop_scale="1"
       scale_y_rel="false"
       spacing="0"
       normal_offset="0"
       tang_offset="0"
       prop_units="false"
       vertical_pattern="false"
       fuse_tolerance="0" />
    <inkscape:path-effect
       effect="skeletal"
       id="path-effect3820"
       is_visible="true"
       pattern="M 0,5 C 0,2.24 2.24,0 5,0 7.76,0 10,2.24 10,5 10,7.76 7.76,10 5,10 2.24,10 0,7.76 0,5 z"
       copytype="single_stretched"
       prop_scale="1"
       scale_y_rel="false"
       spacing="0"
       normal_offset="0"
       tang_offset="0"
       prop_units="false"
       vertical_pattern="false"
       fuse_tolerance="0" />
    <inkscape:path-effect
       effect="skeletal"
       id="path-effect3816"
       is_visible="true"
       pattern="M 0,5 C 0,2.24 2.24,0 5,0 7.76,0 10,2.24 10,5 10,7.76 7.76,10 5,10 2.24,10 0,7.76 0,5 z"
       copytype="single_stretched"
       prop_scale="1"
       scale_y_rel="false"
       spacing="0"
       normal_offset="0"
       tang_offset="0"
       prop_units="false"
       vertical_pattern="false"
       fuse_tolerance="0" />
    <style
       id="style19857"
       type="text/css">
   
    .str1 {stroke:#1F1A17;stroke-width:2.76822}
    .str0 {stroke:#72706F;stroke-width:4.15233}
    .fil1 {fill:none}
    .fil3 {fill:#00923F}
    .fil2 {fill:#1F1A17}
    .fil0 {fill:#B8DB7C}
   
  </style>
  </defs>
  <sodipodi:namedview
     id="base"
     pagecolor="#ffffff"
     bordercolor="#666666"
     borderopacity="1.0"
     inkscape:pageopacity="0.0"
     inkscape:pageshadow="2"
     inkscape:zoom="1.979899"
     inkscape:cx="-15.737131"
     inkscape:cy="99.657594"
     inkscape:document-units="px"
     inkscape:current-layer="layer1"
     showgrid="false"
     showguides="true"
     inkscape:guide-bbox="true"
     inkscape:window-width="1918"
     inkscape:window-height="1032"
     inkscape:window-x="0"
     inkscape:window-y="25"
     inkscape:window-maximized="1" />
  <metadata
     id="metadata7">
    <rdf:RDF>
      <cc:Work
         rdf:about="">
        <dc:format>image/svg+xml</dc:format>
        <dc:type
           rdf:resource="http://purl.org/dc/dcmitype/StillImage" />
        <dc:title />
      </cc:Work>
    </rdf:RDF>
  </metadata>
  <g
     inkscape:label="Layer 1"
     inkscape:groupmode="layer"
     id="layer1"
     transform="translate(0,-796.3622)">
    <g
       style="fill-rule:evenodd"
       id="g3019"
       transform="matrix(0.95357425,0,0,0.95357425,-10.012006,775.74386)">
      <g
         id="Capa_x0020_1">
  <metadata
   id="CorelCorpID_0Corel-Layer" />

  <g
   id="_67754416">
   <path
   d="m 272.437,52.5338 -37.2699,168.111 c -5.888,34.528 -18.4294,48.441 -45.9413,50.1809 -26.9638,1.70384 -52.2501,3.59315 -77.643,-0.69759 -35.2269,-5.95028 -41.9385,-17.8744 -52.8965,-52.6529 L 20.8157,52.534209 c 81.614,27.3015 165.622,25.6461 251.621,0 z"
   class="fil0 str0"
   id="_67735456"
   inkscape:connector-curvature="0"
   style="fill:#b8db7c;stroke:#72706f;stroke-width:4.15232992" />

   <path
   d="m 21.3485,51.9968 c 86.4971,-28.1292 170.33,-24.8185 252.341,0"
   class="fil1 str0"
   id="_67698672"
   inkscape:connector-curvature="0"
   style="fill:none;stroke:#72706f;stroke-width:4.15232992" />

   <g
   id="g19864">
    <path
   d="m 271.105,51.2674 -36.2138,182.69 c -3.76478,15.9159 -13.7608,33.1369 -29.5922,39.5288 -5.70945,2.30316 -11.9698,3.06995 -18.1221,2.83881 l -50.4148,-4.75718 0.0318,-0.64776 58.8994,-0.56749 c 14.929,-2.48447 25.4787,-17.4176 29.5286,-30.9639 L 271.1051,51.267682 z"
   class="fil2 str1"
   id="_68295704"
   inkscape:connector-curvature="0"
   style="fill:#1f1a17;stroke:#1f1a17;stroke-width:2.76821995" />

   </g>

   <path
   d="m 271.104,51.2688 c -6.32399,64.2406 -24.9873,118.768 -40.052,181.774 -4.84023,20.2467 -18.5913,41.8956 -43.7475,40.6679 l -50.5269,-2.4651"
   class="fil1"
   id="_67777800"
   inkscape:connector-curvature="0"
   style="fill:none" />

   <g
   id="g19868">
    <path
   d="m 23.8523,65.1375 c 7.34962,16.9609 15.0148,33.656 18.8446,51.7407 l 10.5358,76.5578 -0.836002,0.0872 -17.8121,-75.7301 -10.7324,-52.655601 z"
   class="fil2 str1"
   id="_67760800"
   inkscape:connector-curvature="0"
   style="fill:#1f1a17;stroke:#1f1a17;stroke-width:2.76821995" />

   </g>

   <path
   d="m 23.8523,65.1389 c 8.00984,13.556 13.1172,37.3903 14.7878,52.1975 2.64088,23.3942 11.7082,52.7304 14.1733,76.1453"
   class="fil1"
   id="_48938776"
   inkscape:connector-curvature="0"
   style="fill:none" />

   <g
   id="g19872">
    <path
   d="m 116.667,33.0691 c 27.7652,-1.75367 55.6855,-6.40842 83.279,-2.85818 23.6475,3.04365 45.6354,13.7221 68.2919,21.1547 l -0.01,0.0346 -69.3812,-12.947 -82.1801,-5.38418 z"
   class="fil2 str1"
   id="_67775256"
   inkscape:connector-curvature="0"
   style="fill:#1f1a17;stroke:#1f1a17;stroke-width:2.76821995" />

   </g>

   <path
   d="m 116.665,33.0705 c 17.682,-3.15854 65.7272,-1.00209 82.7296,1.26231 20.8917,2.78206 46.733,10.7365 68.8359,17.0508"
   class="fil1"
   id="_48609976"
   inkscape:connector-curvature="0"
   style="fill:none" />

   <path
   d="m 22.1084,52.848 c 88.0335,-28.3216 155.667,-28.9514 245.981,0 -83.715,28.0351 -159.772,22.4669 -245.981,0 z"
   class="fil3"
   id="_67273272"
   inkscape:connector-curvature="0"
   style="fill:#00923f" />

   <path
   d="m 44.769,60.3319 c -1.90869,12.7559 42.8049,14.6023 51.6494,26.5043 7.04511,9.48114 -16.1152,38.2111 -4.88867,61.6773 5.11151,10.6853 3.63467,20.554 16.4418,20.554 28.9113,0 1.57512,-36.6443 6.11638,-50.2902 l 1.35919,0 c 1.04362,-3.13777 13.2085,2.33499 14.9511,4.07758 23.5686,23.5686 -11.9282,72.5522 29.9023,89.7068 34.9031,14.3145 23.2766,-36.3868 16.3103,-53.0086 -7.00221,-16.7048 -25.8247,-28.694 -25.8247,-48.2514 0,-35.3709 30.2663,2.03879 38.0574,2.03879 27.4483,0 -10.4265,-40.0962 16.3103,-40.0962 9.29706,0.766796 33.328,-17.0024 -0.6796,-18.3491 -16.0141,-0.633922 -35.3529,4.87068 -50.9698,6.11638 -22.2343,1.77304 -44.9766,-5.888 -67.280097,-4.17862 -4.1108,0.314193 -11.1587,1.38134 -14.2715,-1.87962 -3.45889,-3.6236 -19.437,-4.6769 -27.1839,5.37865 z"
   class="fil3"
   id="_67475288"
   inkscape:connector-curvature="0"
   style="fill:#00923f" />

   <path
   d="m 119.634,159.117 c 2.44295,26.9085 -35.3737,3.74263 -30.4047,-16.5858 4.77241,24.3658 28.1265,38.1613 30.4047,16.5858 z"
   class="fil2 str1"
   id="_67642680"
   inkscape:connector-curvature="0"
   style="fill:#1f1a17;stroke:#1f1a17;stroke-width:2.76821995" />

   <path
   d="m 182.585,201.564 c -0.66576,24.8558 -38.7758,7.98492 -40.9918,-7.66658 10.9289,20.399 35.155,25.5257 40.9918,7.66658 z"
   class="fil2 str1"
   id="_68173672"
   inkscape:connector-curvature="0"
   style="fill:#1f1a17;stroke:#1f1a17;stroke-width:2.76821995" />

   <path
   d="m 199.148,99.3375 c 8.89567,19.0232 -18.5125,17.4882 -22.2551,7.9697 10.2978,10.1884 27.0372,9.55727 22.2551,-7.9697 z"
   class="fil2 str1"
   id="_68405712"
   inkscape:connector-curvature="0"
   style="fill:#1f1a17;stroke:#1f1a17;stroke-width:2.76821995" />

   <g
   id="g19881">
    <path
   d="m 28.6704,49.0279 c -1.04915,0.928737 -3.76616,1.96267 -1.77996,3.06718 18.6329,10.3573 45.3545,11.8632 63.3327,23.6087 6.36136,4.15648 7.92679,8.20776 6.56206,13.0798 l -1.13358,-0.03875 c -4.33364,-4.81393 -8.34894,-8.49427 -16.7449,-11.2487 -18.4931,-6.06378 -47.4472,-11.1421 -57.6218,-23.8814 -2.89971,-3.63329 2.40558,-5.3828 7.3856,-4.58694 z"
   class="fil2 str1"
   id="_67632664"
   inkscape:connector-curvature="0"
   style="fill:#1f1a17;stroke:#1f1a17;stroke-width:2.76821995" />

   </g>

   <path
   d="M 28.6677,49.0293 C 8.0763,51.80305 54.7222,65.9625 56.8412,66.6061 71.6429,71.54322 95.163,76.46372 96.2163,88.7643"
   class="fil1"
   id="_67679968"
   inkscape:connector-curvature="0"
   style="fill:none" />

   <g
   id="g19885">
    <path
   d="m 270.982,51.6051 c -1.8118,6.27832 -10.7614,9.65969 -16.1982,12.0985 -6.62158,2.9703 -13.1795,6.32122 -20.2357,8.02091 -14.0708,3.38968 -27.5479,0.830465 -39.0402,10.5801 l -0.58133,-0.221457 c 1.50729,-8.27005 8.01814,-12.3213 15.9062,-14.9608 l 53.0349,-13.4079 7.11432,-2.10938 z"
   class="fil2 str1"
   id="_67725168"
   inkscape:connector-curvature="0"
   style="fill:#1f1a17;stroke:#1f1a17;stroke-width:2.76821995" />

   </g>

   <path
   d="m 270.982,51.6065 c -2.82358,4.70597 -31.0968,13.4868 -37.6478,15.0591 -11.4424,2.7433 -33.3266,2.94954 -38.1184,15.5297"
   class="fil1"
   id="_67733472"
   inkscape:connector-curvature="0"
   style="fill:none" />

  </g>

 </g>
    </g>
    <path
       sodipodi:nodetypes="zcccccccscz"
       id="path2385"
       d="M 143.58774,900.56 C 97.094526,884.9499 60.869469,894.92497 60.869469,894.92497 l 0,-37.8656 C 54.558541,844.4375 48.247597,850.74845 41.936672,863.37031 L 10.382,913.85775 l 31.554672,50.4875 c 6.310925,12.62185 12.621869,18.93278 18.932797,6.31093 l 0,-37.86562 c 0,0 54.320211,-13.29713 76.632771,9.01581 25.28752,25.28732 32.68159,74.60403 32.68159,74.60403 0,0 19.89711,-100.24031 -26.59609,-115.8504 z"
       style="fill:#00923f;fill-opacity:1;fill-rule:evenodd;stroke:#72706f;stroke-width:4;stroke-linecap:round;stroke-linejoin:round;stroke-miterlimit:4;stroke-opacity:1;stroke-dasharray:none"
       inkscape:connector-curvature="0" />
    <path
       style="fill:#000000;fill-rule:evenodd;stroke:none"
       d="m 61.619293,78.71827 c 1.089738,0.243667 1.29915,4.033146 0.778656,10.165834 0,0 0,1e-6 0,2e-6 -0.01158,1.924096 -0.101286,3.939238 0.355477,5.64253 0.205892,0.542961 0.231728,0.790159 0.233767,0.473649 -0.325876,-0.594423 -0.858346,-0.931571 -1.872964,-1.126956 0.54601,-0.05283 1.259132,-0.220939 2.191773,-0.388847 1.253857,-0.246241 2.57207,-0.53115 3.966735,-0.825615 3.360591,-0.711267 6.982425,-1.466878 10.850962,-2.147656 3.673532,-0.648554 7.582487,-1.244075 11.698508,-1.601233 0.117887,-0.01023 0.235761,-0.02024 0.353618,-0.03004 3.257696,-0.308939 6.867657,-0.458324 10.594115,0.146604 8.45586,1.506926 15.98176,3.358088 22.10983,5.077719 4.42752,1.241137 8.14887,2.45726 10.92812,3.573317 1.55094,0.623043 2.82188,1.21846 3.75452,1.768348 0,10e-7 0,10e-7 0,10e-7 0.63763,0.383285 1.17416,0.756384 1.49247,1.101954 0.31832,0.34558 0.42789,0.65361 0.34617,0.89878 -0.0817,0.24517 -0.3419,0.42192 -0.7517,0.56589 -0.4098,0.14398 -0.96706,0.26883 -1.74818,0.32802 0,0 0,0 0,0 -1.05401,0.0961 -2.41855,0.12311 -4.07615,0.0815 -2.96383,-0.0737 -6.82131,-0.35764 -11.37415,-0.83031 -6.32663,-0.65722 -13.92794,-1.741237 -22.210607,-2.877235 -2.30694,-0.347714 -5.062453,-0.09502 -8.235761,0.13082 -0.107465,0.0089 -0.215057,0.01803 -0.322776,0.02726 -3.760961,0.322426 -7.475197,0.801348 -11.095361,1.261432 -3.776862,0.48133 -7.437354,0.96669 -10.914667,1.34053 -1.435477,0.15465 -2.871143,0.2957 -4.294024,0.3917 -0.92146,0.0691 -2.02713,0.13552 -3.263445,0.0827 -2.186056,-0.19539 -3.797216,-1.22264 -4.728141,-2.773721 -0.830306,-1.632557 -1.064284,-2.940608 -1.013851,-3.868359 -0.02775,-1.571466 0.124954,-2.966992 0.349653,-4.213901 0.224699,-1.246909 0.521687,-2.345439 0.82183,-3.323662 0,-1e-6 10e-7,-1e-6 10e-7,-2e-6 2.178565,-5.938152 3.985835,-9.294682 5.075572,-9.051015 z"
       id="path3814"
       inkscape:path-effect="#path-effect3816"
       inkscape:original-d="m 61.619305,78.71823 c 0,0 -5.555839,19.192898 -0.505076,19.192898 5.050762,0 29.294423,-5.555839 38.890871,-4.04061 9.59645,1.515228 36.36549,6.565992 39.39595,7.576142"
       inkscape:connector-curvature="0"
       transform="translate(0,796.3622)" />
    <path
       style="fill:#000000;fill-rule:evenodd;stroke:none"
       d="m 31.819817,154.47969 c 0.0618,-0.0365 0.127783,-0.0651 0.197685,-0.0863 0.06771,-0.0205 0.139179,-0.034 0.214293,-0.0406 0.149167,-0.0131 0.312705,0.001 0.490014,0.0414 0,0 0,0 0,0 0,0 0,0 0,0 0.349492,0.0792 0.751895,0.25944 1.202699,0.53324 0,0 0,0 10e-7,0 0.872155,0.52969 1.923168,1.40636 3.119725,2.57027 0,0 0,0 0,0 2.167722,2.10876 4.793445,5.15579 7.73393,8.6999 0,0 0,0 0,0 0,0 1e-6,0 1e-6,0 2.282988,2.73895 4.59841,5.73252 7.19305,8.39356 0.02002,0.0205 0.04004,0.041 0.06006,0.0615 0.939356,0.90733 1.583643,1.61164 2.110526,1.90638 0.184247,0.0683 0.08325,0.092 -0.275133,-0.012 -1e-6,0 -1e-6,0 -2e-6,0 -0.411373,-0.14674 -1.05605,-0.001 -1.996546,0.35568 1.221338,-0.59889 2.324991,-1.11572 3.232765,-1.63931 0.907774,-0.52359 1.619903,-1.05493 2.120732,-1.65911 1.019487,-0.96909 1.721996,-2.21369 2.311051,-3.46169 0.589056,-1.24799 1.061691,-2.49807 1.510469,-3.56651 0.448778,-1.06844 0.870223,-1.95702 1.296166,-2.56645 0.425943,-0.60942 0.854826,-0.94359 1.298306,-0.94359 0.44348,0 0.877538,0.33218 1.283883,0.98372 0.406346,0.65154 0.788387,1.62414 1.049664,2.91754 0.261277,1.29341 0.403745,2.91153 0.210332,4.8223 -0.193413,1.91076 -0.723787,4.11822 -1.936265,6.49708 -0.955194,1.57986 -2.169151,3.02224 -3.54842,4.25665 -1.379269,1.23441 -2.923086,2.25999 -4.482603,3.05153 -1.596029,0.68482 -3.017077,0.87098 -4.159191,0.58699 -2e-6,0 -5e-6,0 -7e-6,0 -1.290702,-0.27918 -2.271828,-0.67215 -2.919739,-1.09204 -1.831953,-1.08907 -3.239308,-2.33788 -4.281762,-3.47242 -0.02514,-0.0261 -0.05025,-0.0522 -0.07533,-0.0783 -3.250226,-3.3884 -5.60593,-6.93338 -7.468936,-10.0935 0,0 -10e-7,0 -10e-7,0 0,0 0,0 0,0 -2.484577,-4.17485 -4.203982,-7.96023 -5.176655,-10.88429 0,0 0,0 0,0 -0.537918,-1.61578 -0.847011,-2.97547 -0.91408,-4.00519 0,0 0,0 0,0 -0.03466,-0.53223 -0.0051,-0.97731 0.09111,-1.32459 0,0 0,0 0,0 0,0 0,0 0,0 0.0489,-0.17593 0.1148,-0.32699 0.19804,-0.45183 0.04191,-0.0629 0.08822,-0.11907 0.138946,-0.16851 0.05239,-0.051 0.109415,-0.0949 0.171219,-0.13139 z"
       id="path3818"
       inkscape:path-effect="#path-effect3820"
       inkscape:original-d="m 31.819805,154.47967 c 0,0 17.172593,29.29442 22.223356,26.76904 5.050762,-2.52538 9.596449,-5.55584 9.596449,-18.18274"
       inkscape:connector-curvature="0"
       transform="translate(0,796.3622)" />
    <path
       style="fill:#000000;fill-rule:evenodd;stroke:none"
       d="m 120.20818,135.79186 c 0.70193,-1.38427 6.64108,0.0724 15.46476,3.52307 0,0 0,0 0,0 3.65105,1.7744 7.79437,4.21872 11.86373,7.73683 3.29457,2.79362 6.61028,6.59713 8.6599,11.71605 0.12113,0.31726 0.24131,0.63574 0.36053,0.9554 1.78336,4.78141 3.20955,9.43421 4.36775,13.76943 1.15819,4.33523 2.0506,8.35361 2.72907,11.90414 1.70528,9.39587 2.00929,15.61422 0.5042,16.05265 0,0 0,0 0,0 0,0 0,0 0,0 0,0 -1e-5,0 -1e-5,0 -0.008,0.002 -0.008,0.002 -0.008,0.002 0,0 0,1e-5 -0.008,0.002 0,0 0,0 0,0 0,0 0,0 0,0 0,0 0,0 0,0 -1.5172,0.39563 -4.51505,-5.06529 -7.96488,-13.90394 -1.34263,-3.34141 -2.7546,-7.15614 -4.24138,-11.26991 -1.48679,-4.11376 -3.04954,-8.5246 -4.7458,-13.06037 -0.1134,-0.30324 -0.2268,-0.6054 -0.3402,-0.90644 -1.04028,-3.0272 -3.37283,-5.77268 -5.80214,-8.36565 -2.96068,-3.09768 -6.20403,-5.65663 -9.13005,-7.89987 0,0 0,0 0,0 -7.7673,-4.96218 -12.41075,-8.87172 -11.70882,-10.25599 z"
       id="path3826"
       inkscape:path-effect="#path-effect3828"
       inkscape:original-d="m 120.20815,135.79185 c 0,0 25.75889,10.10152 31.31473,24.74874 5.55584,14.64721 12.62691,40.91117 12.62691,40.91117"
       inkscape:connector-curvature="0"
       transform="translate(0,796.3622)" />
  </g>
</svg>
