<?xml version="1.0" encoding="UTF-8" standalone="no"?>
<!-- Created with Inkscape (http://www.inkscape.org/) -->

<svg
   xmlns:dc="http://purl.org/dc/elements/1.1/"
   xmlns:cc="http://creativecommons.org/ns#"
   xmlns:rdf="http://www.w3.org/1999/02/22-rdf-syntax-ns#"
   xmlns:svg="http://www.w3.org/2000/svg"
   xmlns="http://www.w3.org/2000/svg"
   xmlns:sodipodi="http://sodipodi.sourceforge.net/DTD/sodipodi-0.dtd"
   xmlns:inkscape="http://www.inkscape.org/namespaces/inkscape"
   width="256"
   height="256"
   id="svg2"
   version="1.1"
   inkscape:version="0.48.3.1 r9886"
   sodipodi:docname="gtk-fullscreen.svg">
  <defs
     id="defs4" />
  <sodipodi:namedview
     id="base"
     pagecolor="#ffffff"
     bordercolor="#666666"
     borderopacity="1.0"
     inkscape:pageopacity="0.0"
     inkscape:pageshadow="2"
     inkscape:zoom="2.0760274"
     inkscape:cx="61.194325"
     inkscape:cy="141.5686"
     inkscape:document-units="px"
     inkscape:current-layer="layer1"
     showgrid="false"
     inkscape:window-width="1918"
     inkscape:window-height="1032"
     inkscape:window-x="0"
     inkscape:window-y="25"
     inkscape:window-maximized="1" />
  <metadata
     id="metadata7">
    <rdf:RDF>
      <cc:Work
         rdf:about="">
        <dc:format>image/svg+xml</dc:format>
        <dc:type
           rdf:resource="http://purl.org/dc/dcmitype/StillImage" />
        <dc:title />
      </cc:Work>
    </rdf:RDF>
  </metadata>
  <g
     inkscape:label="Capa 1"
     inkscape:groupmode="layer"
     id="layer1"
     transform="translate(0,-796.36218)">
    <path
       style="font-size:medium;font-style:normal;font-variant:normal;font-weight:normal;font-stretch:normal;text-indent:0;text-align:start;text-decoration:none;line-height:normal;letter-spacing:normal;word-spacing:normal;text-transform:none;direction:ltr;block-progression:tb;writing-mode:lr-tb;text-anchor:start;baseline-shift:baseline;color:#000000;fill:#b8db7d;fill-opacity:1;stroke:#737373;stroke-width:3.74945641;stroke-miterlimit:4;stroke-dasharray:none;marker:none;visibility:visible;display:inline;overflow:visible;enable-background:new;font-family:Sans;-inkscape-font-specification:Sans"
       d="m 5.2893778,956.09576 c -2.953654,3.27828 -2.685547,7.64986 -2.5952,12.98098 0.184654,20.17717 1.115065,47.14906 1.719245,66.71656 0,0 0.49426,7.6703 2.991415,10.1707 2.6335062,2.6364 10.7206082,3.1685 10.7206082,3.1685 21.73425,0.2871 44.421831,0.2586 66.550921,0.3936 0,0 9.62958,-0.3753 12.68005,-3.5285 2.843823,-2.9396 3.042963,-6.8366 2.896143,-11.9235 -0.452013,-4.5154 -2.305653,-9.0962 -4.966553,-11.79 -3.03252,-2.9788 -7.233,-4.7299 -11.41745,-4.7597 l -24.9799,-0.1242 47.543543,-48.28924 c 4.86155,-4.61263 6.1307,-12.60107 2.97586,-18.73112 -1.57741,-3.06503 -4.14507,-5.6332 -7.2098,-7.21122 -3.064733,-1.57804 -6.609863,-2.15735 -9.954483,-1.62669 -3.5448,0.35485 -6.91601,1.94393 -9.40371,4.4326 l -47.543529,48.2892 -0.642104,-25.00061 c -0.0057,-4.83714 -2.345933,-9.69215 -6.162818,-12.7854 -3.81687,-3.09324 -8.601826,-3.08068 -13.721718,-3.3293 -4.205574,0.0559 -7.2653522,0.4887 -9.4805202,2.94734 z"
       id="path12113-8"
       inkscape:connector-curvature="0"
       sodipodi:nodetypes="accaccacccccssccccsca" />
    <path
       style="fill:#1f1a17;fill-rule:evenodd;stroke:none"
       inkscape:connector-curvature="0"
       id="path3002"
       class="fil1 str1"
       d="m 36.695068,1048.9489 c -19.159978,3.0386 -18.491981,5.2461 -28.2065112,-0.8577 -5.395875,-3.7764 -4.655938,-7.2672 -5.704803,-11.3782 -1.399188,-5.4842 -0.591728,-16.9693 -0.591728,-16.9693 l 3.237319,-13.0559 c -1.263466,8.3198 1.540113,29.9285 11.7436932,37.1083 9.636409,3.3465 13.588358,0.4827 20.267363,1.6354 2.691638,0.4645 7.916167,2.1168 7.916167,2.1168 z"
       sodipodi:nodetypes="ccacccacc" />
    <path
       sodipodi:nodetypes="accaccacccccssccccsca"
       inkscape:connector-curvature="0"
       id="path3011"
       d="m 249.55236,893.24808 c 2.95366,-3.2783 2.68555,-7.6499 2.5952,-12.981 -0.18465,-20.1772 -1.11506,-47.14905 -1.71924,-66.71655 0,0 -0.49426,-7.6703 -2.99142,-10.1707 -2.6335,-2.6364 -10.72061,-3.1685 -10.72061,-3.1685 -21.73425,-0.2871 -44.42183,-0.2586 -66.55092,-0.3936 0,0 -9.62958,0.3753 -12.68005,3.5285 -2.84382,2.9396 -3.04296,6.8366 -2.89614,11.9235 0.45201,4.5154 2.30565,9.0962 4.96655,11.79 3.03252,2.9788 7.233,4.7299 11.41745,4.7597 l 24.9799,0.1242 -47.54354,48.28925 c -4.86155,4.6126 -6.1307,12.6011 -2.97586,18.7311 1.57741,3.065 4.14507,5.6332 7.2098,7.2112 3.06473,1.5781 6.60986,2.1574 9.95448,1.6267 3.5448,-0.3548 6.91601,-1.9439 9.40371,-4.4326 l 47.54353,-48.28918 0.6421,25.00058 c 0.006,4.8372 2.34594,9.6922 6.16282,12.7854 3.81687,3.0933 8.60183,3.0807 13.72172,3.3293 4.20558,-0.056 7.26536,-0.4887 9.48052,-2.9473 z"
       style="font-size:medium;font-style:normal;font-variant:normal;font-weight:normal;font-stretch:normal;text-indent:0;text-align:start;text-decoration:none;line-height:normal;letter-spacing:normal;word-spacing:normal;text-transform:none;direction:ltr;block-progression:tb;writing-mode:lr-tb;text-anchor:start;baseline-shift:baseline;color:#000000;fill:#b8db7d;fill-opacity:1;stroke:#737373;stroke-width:3.74945641;stroke-miterlimit:4;stroke-dasharray:none;marker:none;visibility:visible;display:inline;overflow:visible;enable-background:new;font-family:Sans;-inkscape-font-specification:Sans" />
    <path
       sodipodi:nodetypes="ccacccacc"
       d="m 218.14667,800.39493 c 19.15998,-3.0386 18.49198,-5.2461 28.20652,0.8577 5.39587,3.7764 4.65593,7.2672 5.7048,11.3782 1.39919,5.4842 0.59173,16.9693 0.59173,16.9693 l -3.23732,13.0559 c 1.26346,-8.3198 -1.54012,-29.9285 -11.7437,-37.1083 -9.63641,-3.3465 -13.58836,-0.4827 -20.26736,-1.6354 -2.69164,-0.4645 -7.91617,-2.1168 -7.91617,-2.1168 z"
       class="fil1 str1"
       id="path3013"
       inkscape:connector-curvature="0"
       style="fill:#1f1a17;fill-rule:evenodd;stroke:none" />
  </g>
</svg>
