<?xml version="1.0" encoding="UTF-8" standalone="no"?>
<!-- Created with Inkscape (http://www.inkscape.org/) -->

<svg
   xmlns:dc="http://purl.org/dc/elements/1.1/"
   xmlns:cc="http://creativecommons.org/ns#"
   xmlns:rdf="http://www.w3.org/1999/02/22-rdf-syntax-ns#"
   xmlns:svg="http://www.w3.org/2000/svg"
   xmlns="http://www.w3.org/2000/svg"
   xmlns:sodipodi="http://sodipodi.sourceforge.net/DTD/sodipodi-0.dtd"
   xmlns:inkscape="http://www.inkscape.org/namespaces/inkscape"
   width="256"
   height="256"
   id="svg2"
   version="1.1"
   inkscape:version="0.48.3.1 r9886"
   sodipodi:docname="execute.svg">
  <defs
     id="defs4" />
  <sodipodi:namedview
     id="base"
     pagecolor="#ffffff"
     bordercolor="#666666"
     borderopacity="1.0"
     inkscape:pageopacity="0.0"
     inkscape:pageshadow="2"
     inkscape:zoom="1.4679731"
     inkscape:cx="102.27746"
     inkscape:cy="55.018146"
     inkscape:document-units="px"
     inkscape:current-layer="layer1"
     showgrid="false"
     inkscape:window-width="1918"
     inkscape:window-height="1032"
     inkscape:window-x="0"
     inkscape:window-y="25"
     inkscape:window-maximized="1" />
  <metadata
     id="metadata7">
    <rdf:RDF>
      <cc:Work
         rdf:about="">
        <dc:format>image/svg+xml</dc:format>
        <dc:type
           rdf:resource="http://purl.org/dc/dcmitype/StillImage" />
        <dc:title />
      </cc:Work>
    </rdf:RDF>
  </metadata>
  <g
     inkscape:label="Capa 1"
     inkscape:groupmode="layer"
     id="layer1"
     transform="translate(0,-796.36218)">
    <g
       transform="matrix(16.81246,0,0,16.81246,-1039.7937,-10754.09)"
       id="layer9"
       inkscape:label="status"
       style="fill:#b8db7d;fill-opacity:1;display:inline" />
    <g
       style="fill:#b8db7d;fill-opacity:1"
       transform="matrix(16.81246,0,0,16.81246,-1039.7937,-10754.09)"
       id="layer10"
       inkscape:label="devices" />
    <g
       style="fill:#b8db7d;fill-opacity:1"
       transform="matrix(16.81246,0,0,16.81246,-1039.7937,-10754.09)"
       id="layer11"
       inkscape:label="apps" />
    <path
       inkscape:connector-curvature="0"
       d="m 49.762306,924.36659 c -3.869202,0.79186 -9.871631,3.88766 -13.441623,5.36363 -0.280936,10.49652 3.869954,22.55379 -0.2185,26.15973 -4.01759,3.54356 -18.661576,0.095 -29.0498604,-1.00792 -2.2089555,3.97598 -2.7510595,8.6396 -4.0496707,13.09103 8.0379191,6.65538 19.1747451,14.10582 19.4394071,19.43941 0.26799,5.39999 -10.531628,13.53223 -17.863239,21.01553 1.7381898,4.3348 4.205536,8.2977 6.830062,12.084 10.227406,-2.1253 22.972411,-6.2801 27.320247,-3.1523 4.426856,3.1846 4.458867,16.9024 5.779284,27.3202 4.195515,1.2609 8.616537,4.1653 13.134734,4.51 4.730219,-9.3246 9.539608,-24.5975 14.710902,-26.051 5.308568,-1.4912 16.199562,7.7023 25.21869,13.1348 3.677051,-2.5488 5.738171,-3.9809 8.778181,-7.2457 -4.26764,-9.6221 -10.918978,-23.4063 -8.778181,-28.4808 2.142799,-5.07921 15.194721,-6.20972 25.065251,-9.87265 0.074,-1.23572 1.72961,-4.10926 1.72961,-5.36364 0,-3.2174 -0.57835,-6.37175 -1.05078,-9.45701 -10.18998,-2.70378 -24.66736,-4.05684 -27.320249,-8.93162 -2.635117,-4.84215 4.065019,-17.84474 7.355449,-27.84563 -3.382009,-3.00237 -7.29214,-4.94596 -11.274019,-7.15831 -3.295093,5.57455 -17.989393,15.9951 -23.401677,15.03915 -5.32765,-0.9415 -11.144778,-13.77865 -16.81246,-22.59175 -0.675693,0.11769 -1.433599,-0.1345 -2.101558,0 z m 10.507788,31.52336 c 15.668893,0 28.371026,12.70215 28.371026,28.37102 0,15.66893 -12.702133,28.37103 -28.371026,28.37103 -15.668894,0 -28.371026,-12.7021 -28.371026,-28.37103 0,-15.66887 12.702132,-28.37102 28.371026,-28.37102 z"
       id="path3852"
       style="color:#000000;fill:#1f1a17;fill-opacity:1;fill-rule:nonzero;stroke:#1f1a17;stroke-width:4;stroke-miterlimit:4;stroke-opacity:1;stroke-dasharray:none;marker:none;visibility:visible;display:inline;overflow:visible;enable-background:accumulate"
       sodipodi:nodetypes="cccccsccscccccscscsccccccsssss" />
    <path
       inkscape:connector-curvature="0"
       d="m 176.11795,798.75483 c -4.03401,7.31762 -4.97177,16.42777 -9.19381,23.68622 -1.57819,-0.11769 -3.12223,-0.52623 -4.72851,-0.52623 -5.58602,0 -11.0977,0.81876 -16.28707,2.10155 -5.12822,-6.43581 -10.5976,-15.09977 -15.76168,-21.54096 -4.78476,1.76598 -11.21174,5.97529 -15.58688,8.47227 1.61282,8.11403 6.58206,15.83939 8.23143,24.10187 -5.76674,4.18328 -10.52769,8.94423 -14.7109,14.7109 -8.262537,-1.6493 -19.841388,-6.37776 -27.955384,-7.99058 -2.497003,4.37511 -2.85283,10.56121 -4.61876,15.34603 6.441156,5.16412 15.105087,10.63355 21.540964,15.76169 -1.283631,5.18933 -2.101557,10.70113 -2.101557,16.28707 0,1.60559 0.414595,3.15032 0.525389,4.7285 -7.258528,4.22211 -19.258734,8.04997 -26.576357,12.08396 0.86147,4.61939 4.565535,9.30973 6.086171,13.66012 8.261626,-0.16812 18.485182,-1.59046 26.794854,-1.57533 3.14604,6.58645 7.07018,12.6734 12.08396,17.86324 -2.89245,7.86537 -7.53405,16.95705 -10.50779,24.6933 3.57934,2.95395 7.55715,5.48473 11.55857,7.88084 6.20726,-5.38183 13.03675,-12.97031 19.43941,-18.38863 6.35586,2.90116 13.25865,4.46018 20.49018,5.2539 2.76636,8.01551 5.11576,18.2933 7.88084,26.26947 5.06963,-0.0336 9.38388,2.41223 14.22921,1.59851 1.35425,-8.28703 2.33725,-21.45487 3.63403,-29.96954 6.89457,-1.96437 13.64066,-4.48859 19.43941,-8.40623 7.13405,4.44622 15.11218,10.57319 22.06635,14.7109 3.76157,-3.20563 7.30216,-6.74616 10.50779,-10.50778 -4.13768,-6.95414 -12.4323,-12.52388 -16.8785,-19.65791 3.91757,-5.79878 10.53625,-14.95323 12.50059,-21.84785 8.51465,-1.29625 15.17961,0.12866 23.46672,-1.22558 0.81289,-4.84535 2.46744,-12.29056 2.49585,-17.36019 -7.97622,-2.76515 -17.77223,-4.39199 -25.78778,-7.15831 -0.79368,-7.23155 -2.35282,-14.13424 -5.25389,-20.49019 5.41832,-6.40269 13.48846,-10.82363 18.87032,-17.03096 -2.39613,-4.00136 -7.33536,-8.70173 -10.28929,-12.2811 -7.73624,2.97378 -14.90124,5.92946 -22.76654,8.82187 -5.18982,-5.01381 -13.44433,-6.77024 -20.03084,-9.91635 -0.0149,-8.30973 3.57917,-20.70082 3.74377,-28.96246 -4.35043,-1.51985 -11.93083,-2.33456 -16.55027,-3.19603 z m -13.92232,56.78575 c 18.57052,0 33.62492,15.05438 33.62492,33.62492 0,18.57054 -15.0544,33.62492 -33.62492,33.62492 -18.57052,0 -33.62492,-15.05438 -33.62492,-33.62492 0,-18.57054 15.0544,-33.62492 33.62492,-33.62492 z"
       id="path3846"
       style="color:#000000;fill:#1f1a17;fill-opacity:1;fill-rule:nonzero;stroke:#1f1a17;stroke-width:4;stroke-miterlimit:4;stroke-opacity:1;stroke-dasharray:none;marker:none;visibility:visible;display:inline;overflow:visible;enable-background:accumulate"
       sodipodi:nodetypes="ccsccccccccscccccccccccccccccccccccccccsssss" />
    <path
       style="color:#000000;fill:#b8db7d;fill-opacity:1;fill-rule:nonzero;stroke:#72706f;stroke-width:4;marker:none;visibility:visible;display:inline;overflow:visible;enable-background:accumulate;stroke-opacity:1;stroke-miterlimit:4;stroke-dasharray:none"
       id="path42961"
       d="m 177.00809,800.27314 c -4.03401,7.31762 -7.86191,16.90946 -12.08395,24.16791 -1.57819,-0.11769 -3.12223,-0.52623 -4.72851,-0.52623 -5.58602,0 -11.0977,0.81876 -16.28707,2.10155 -5.12822,-6.43581 -10.5976,-15.09977 -15.76168,-21.54096 -4.78476,1.76598 -9.28498,3.80769 -13.66012,6.30467 1.61282,8.11403 4.6553,18.00699 6.30467,26.26947 -5.76674,4.18328 -10.52769,8.94423 -14.7109,14.7109 -8.262537,-1.6493 -18.155476,-4.69185 -26.269472,-6.30467 -2.497003,4.37511 -4.538742,8.8753 -6.304672,13.66012 6.441156,5.16412 15.105087,10.63355 21.540964,15.76169 -1.283631,5.18933 -2.101557,10.70113 -2.101557,16.28707 0,1.60559 0.414595,3.15032 0.525389,4.7285 -7.258528,4.22211 -16.850288,8.04997 -24.167911,12.08396 0.86147,4.61939 2.157089,9.30973 3.677725,13.66012 8.261626,-0.16812 18.485182,-1.59046 26.794858,-1.57533 3.146036,6.58645 7.070176,12.6734 12.083956,17.86324 -2.89245,7.86537 -7.53405,16.95705 -10.50779,24.6933 3.57934,2.95395 7.55715,5.48473 11.55857,7.88084 6.20726,-5.38183 13.03675,-12.97031 19.43941,-18.38863 6.35586,2.90116 13.25865,4.46018 20.49018,5.2539 2.76636,8.01551 5.11576,18.2933 7.88084,26.26947 5.06963,-0.0336 9.86557,-0.23706 14.7109,-1.05078 1.35425,-8.28703 1.85556,-18.80558 3.15234,-27.32025 6.89457,-1.96437 13.64066,-4.48859 19.43941,-8.40623 7.13405,4.44622 15.11218,10.57319 22.06635,14.7109 3.76157,-3.20563 7.30216,-6.74616 10.50779,-10.50778 -4.13768,-6.95414 -10.2647,-14.93233 -14.7109,-22.06636 3.91757,-5.79878 6.44189,-12.54478 8.40623,-19.4394 8.51465,-1.29625 19.03313,-1.7981 27.32024,-3.15234 0.81289,-4.84535 1.02237,-9.64127 1.05078,-14.7109 -7.97622,-2.76515 -18.25392,-5.11452 -26.26947,-7.88084 -0.79368,-7.23155 -2.35282,-14.13424 -5.25389,-20.49019 5.41832,-6.40269 13.00677,-13.23208 18.38863,-19.43941 -2.39613,-4.00136 -4.92691,-7.97919 -7.88084,-11.55856 -7.73624,2.97378 -16.828,7.61537 -24.6933,10.50778 -5.18982,-5.01381 -11.27673,-8.93784 -17.86324,-12.08395 -0.0149,-8.30973 1.41157,-18.53322 1.57617,-26.79486 -4.35043,-1.51985 -9.04069,-2.81625 -13.66013,-3.67772 z m -16.81246,57.26744 c 18.57052,0 33.62492,15.05438 33.62492,33.62492 0,18.57054 -15.0544,33.62492 -33.62492,33.62492 -18.57052,0 -33.62492,-15.05438 -33.62492,-33.62492 0,-18.57054 15.0544,-33.62492 33.62492,-33.62492 z"
       inkscape:connector-curvature="0" />
    <path
       style="color:#000000;fill:#00923f;fill-opacity:1;fill-rule:nonzero;stroke:#72706f;stroke-width:4;marker:none;visibility:visible;display:inline;overflow:visible;enable-background:accumulate;stroke-opacity:1;stroke-miterlimit:4;stroke-dasharray:none"
       id="path42972"
       d="m 47.762306,926.36659 c -3.869202,0.79186 -7.463185,2.20175 -11.033177,3.67772 -0.280936,10.49652 1.461508,24.2397 -2.626946,27.84564 -4.01759,3.54356 -17.457353,0.57666 -27.8456374,-0.52623 -2.2089555,3.97598 -3.9552825,8.15791 -5.2538937,12.60934 8.0379194,6.65538 19.1747451,14.10582 19.4394071,19.43941 0.26799,5.39999 -10.5316278,13.53223 -17.863239,21.01553 1.7381898,4.3348 4.205536,8.2977 6.8300619,12.084 10.2274061,-2.1253 22.9724111,-6.2801 27.3202471,-3.1523 4.426856,3.1846 4.458867,16.9024 5.779284,27.3202 4.195515,1.2609 8.616537,1.7569 13.134734,2.1016 4.730219,-9.3246 9.539608,-22.1891 14.710902,-23.6426 5.308568,-1.4912 16.199562,7.7023 25.21869,13.1348 3.677054,-2.5488 6.942391,-5.6668 9.982401,-8.9316 -4.26764,-9.6221 -12.123198,-21.7204 -9.982401,-26.7949 2.142799,-5.07921 16.398941,-7.89563 26.269471,-11.55856 0.074,-1.23572 0.52539,-2.42335 0.52539,-3.67773 0,-3.2174 -0.57835,-6.37175 -1.05078,-9.45701 -10.18998,-2.70378 -24.66736,-4.05684 -27.320249,-8.93162 -2.635117,-4.84215 4.065018,-17.84474 7.355449,-27.84563 -3.382009,-3.00237 -7.051295,-5.66849 -11.033174,-7.88084 -8.421244,6.30685 -18.230238,16.71763 -23.642522,15.76168 -5.32765,-0.9415 -11.144778,-13.77865 -16.81246,-22.59175 -0.675693,0.11769 -1.433599,-0.1345 -2.101558,0 z m 10.507788,31.52336 c 15.668893,0 28.371026,12.70215 28.371026,28.37102 0,15.66893 -12.702133,28.37103 -28.371026,28.37103 -15.668894,0 -28.371026,-12.7021 -28.371026,-28.37103 0,-15.66887 12.702132,-28.37102 28.371026,-28.37102 z"
       inkscape:connector-curvature="0" />
    <g
       style="fill:#b8db7d;fill-opacity:1"
       transform="matrix(16.81246,0,0,16.81246,-1039.7937,-10754.09)"
       id="layer13"
       inkscape:label="places" />
    <g
       style="fill:#b8db7d;fill-opacity:1"
       transform="matrix(16.81246,0,0,16.81246,-1039.7937,-10754.09)"
       id="layer14"
       inkscape:label="mimetypes" />
    <g
       transform="matrix(16.81246,0,0,16.81246,-1039.7937,-10754.09)"
       id="layer15"
       inkscape:label="emblems"
       style="fill:#b8db7d;fill-opacity:1;display:inline" />
    <g
       transform="matrix(16.81246,0,0,16.81246,-1039.7937,-10754.09)"
       id="g4953"
       inkscape:label="categories"
       style="fill:#b8db7d;fill-opacity:1;display:inline" />
    <path
       sodipodi:nodetypes="ccaccccc"
       d="m 59.943337,936.59932 c 1.661787,6.8483 3.463325,11.18823 9.613745,12.39797 3.539075,0.52481 5.670919,-4.36502 8.450299,-6.61791 4.431294,-3.59189 13.111323,-10.99707 13.111323,-10.99707 l 0.427869,-0.60735 c -12.143938,7.76005 -15.337831,15.1516 -22.042481,14.17388 -5.239161,-2.23209 -5.695232,-3.41752 -9.13683,-7.41832 z"
       class="fil1 str1"
       id="path3840"
       inkscape:connector-curvature="0"
       style="fill:#1f1a17;fill-rule:evenodd;stroke:#1f1a17;stroke-opacity:1" />
    <path
       style="fill:#1f1a17;fill-rule:evenodd;stroke:#1f1a17;stroke-width:1;stroke-opacity:1"
       inkscape:connector-curvature="0"
       id="path3842"
       class="fil1 str1"
       d="m 82.630599,1031.3604 c -4.596151,-5.3419 -8.175269,-8.3866 -14.20246,-6.665 -3.390222,1.1432 -3.259959,6.3873 -4.513105,9.7384 -1.414362,3.7823 -3.367896,11.6368 -3.367896,11.6368 l 0.10508,0.087 c 7.282417,-12.4362 3.250239,-15.7012 9.665376,-17.8817 5.681006,-0.3965 6.626549,0.4515 11.511764,2.4479 z"
       sodipodi:nodetypes="ccaccccc" />
    <path
       style="fill:#1f1a17;fill-rule:evenodd;stroke:#1f1a17;stroke-opacity:1"
       inkscape:connector-curvature="0"
       id="path3848"
       class="fil1 str1"
       d="m 11.86928,1000.16 c 6.590713,-2.49466 10.674994,-4.81827 11.116073,-11.071 0.08382,-3.57679 -4.889245,-5.2459 -7.610645,-7.56851 -3.071548,-2.62144 -9.7860383,-7.14077 -9.7860383,-7.14077 l -0.118053,0.0689 c 9.2001073,11.09287 13.6462093,8.41875 13.5038073,15.19281 -1.56812,5.47468 -2.688168,6.07362 -6.233413,9.98287 z"
       sodipodi:nodetypes="ccaccccc" />
    <path
       sodipodi:nodetypes="ccaccccc"
       d="m 112.49649,995.71691 c -6.86043,-1.61106 -11.54612,-1.96436 -15.403777,2.97624 -2.06695,2.92035 1.12631,7.08215 2.0868,10.52855 1.084047,3.8899 4.130237,11.3885 4.130237,11.3885 l 0.13641,0.01 c -1.43717,-14.3398 -6.618797,-14.6043 -2.71772,-20.1442 4.35813,-3.66585 5.6217,-3.53719 10.74576,-4.80031 z"
       class="fil1 str1"
       id="path3850"
       inkscape:connector-curvature="0"
       style="fill:#1f1a17;fill-rule:evenodd;stroke:#1f1a17;stroke-opacity:1" />
  </g>
</svg>
