<?xml version="1.0" encoding="UTF-8" standalone="no"?>
<!-- Created with Inkscape (http://www.inkscape.org/) -->

<svg
   xmlns:dc="http://purl.org/dc/elements/1.1/"
   xmlns:cc="http://creativecommons.org/ns#"
   xmlns:rdf="http://www.w3.org/1999/02/22-rdf-syntax-ns#"
   xmlns:svg="http://www.w3.org/2000/svg"
   xmlns="http://www.w3.org/2000/svg"
   xmlns:sodipodi="http://sodipodi.sourceforge.net/DTD/sodipodi-0.dtd"
   xmlns:inkscape="http://www.inkscape.org/namespaces/inkscape"
   width="256"
   height="256"
   id="svg4374"
   version="1.1"
   inkscape:version="0.48.3.1 r9886"
   sodipodi:docname="gtk-bold.svg">
  <defs
     id="defs4376" />
  <sodipodi:namedview
     id="base"
     pagecolor="#ffffff"
     bordercolor="#666666"
     borderopacity="1.0"
     inkscape:pageopacity="0.0"
     inkscape:pageshadow="2"
     inkscape:zoom="3.4248588"
     inkscape:cx="98.919495"
     inkscape:cy="98.571428"
     inkscape:document-units="px"
     inkscape:current-layer="layer1"
     showgrid="false"
     inkscape:window-width="1918"
     inkscape:window-height="1032"
     inkscape:window-x="0"
     inkscape:window-y="25"
     inkscape:window-maximized="1" />
  <metadata
     id="metadata4379">
    <rdf:RDF>
      <cc:Work
         rdf:about="">
        <dc:format>image/svg+xml</dc:format>
        <dc:type
           rdf:resource="http://purl.org/dc/dcmitype/StillImage" />
        <dc:title />
      </cc:Work>
    </rdf:RDF>
  </metadata>
  <g
     inkscape:label="Capa 1"
     inkscape:groupmode="layer"
     id="layer1"
     transform="translate(0,-796.36218)">
    <g
       inkscape:label="status"
       transform="matrix(20.56274,0,0,20.56274,-3328.4019,-13757.615)"
       id="layer9"
       style="fill:#b8db7d;fill-opacity:1;stroke:#737373;stroke-width:0.1945266;stroke-miterlimit:4;stroke-dasharray:none;display:inline" />
    <g
       style="fill:#b8db7d;fill-opacity:1;stroke:#737373;stroke-width:0.1945266;stroke-miterlimit:4;stroke-dasharray:none"
       inkscape:label="devices"
       transform="matrix(20.56274,0,0,20.56274,-3328.4019,-13757.615)"
       id="layer10" />
    <g
       style="fill:#b8db7d;fill-opacity:1;stroke:#737373;stroke-width:0.1945266;stroke-miterlimit:4;stroke-dasharray:none"
       inkscape:label="apps"
       transform="matrix(20.56274,0,0,20.56274,-3328.4019,-13757.615)"
       id="layer11" />
    <path
       style="font-size:medium;font-style:normal;font-variant:normal;font-weight:normal;font-stretch:normal;text-indent:0;text-align:start;text-decoration:none;line-height:normal;letter-spacing:normal;word-spacing:normal;text-transform:none;direction:ltr;block-progression:tb;writing-mode:lr-tb;text-anchor:start;baseline-shift:baseline;color:#000000;fill:#b8db7d;fill-opacity:1;stroke:#737373;stroke-width:3.99999976;stroke-miterlimit:4;stroke-dasharray:none;marker:none;visibility:visible;display:inline;overflow:visible;enable-background:accumulate;font-family:Sans;-inkscape-font-specification:Sans"
       d="M 71.53125,24.75 C 60.604589,24.778724 50.743675,24.846808 43.875,25 c -27.474699,0.61277 -15.211493,41.09662 0,41.125 3.042299,0.0041 13.008888,-0.0013 20.5625,0 30.214449,0.0053 82.25,0 82.25,0 8.80414,0 20.5625,12.62816 20.5625,20.5625 0,0 6.18946,20.50468 0,20.5625 -6.18946,0.0578 -61.6875,0 -61.6875,0 l -41.125,0 c -18.90271,0 -35.672527,7.91262 -46.25,19.9375 -10.5774735,12.02489 -15.5688959,26.93208 -15.4375,41.75 0.1233764,14.81792 5.5277967,29.88489 16.0625,41.78125 10.534703,11.8964 26.948275,19.90625 45.625,19.90625 l 41.125,0 82.25,0 20.5625,0 20.5625,0 c 0,0 9.90336,-0.4035 14.75,-5.25 4.84664,-4.8468 5.8125,-15.3125 5.8125,-15.3125 l 0,-123.375 C 249.5,53.08099 222.36202,25 187.8125,25 l -41.125,0 c 0,0 -42.37627,-0.336171 -75.15625,-0.25 z m 34.03125,123.625 61.6875,0 c 16.85382,16.85382 16.04085,41.125 -2.19509,41.125 l -59.49241,0 c -8.181297,0 -11.659004,-2.25556 -14.78125,-5.78125 C 87.659003,180.19306 85.050996,174.68232 85,168.9375 c -0.04112,-5.74482 2.167867,-11.38408 5.15625,-14.78125 2.988383,-3.39717 6.721371,-5.78125 15.40625,-5.78125 z"
       transform="translate(0,796.36218)"
       id="path11643-3-1"
       inkscape:connector-curvature="0"
       sodipodi:nodetypes="sscscszcsscssccccccsscsscssscss" />
    <g
       style="fill:#b8db7d;fill-opacity:1;stroke:#737373;stroke-width:0.1945266;stroke-miterlimit:4;stroke-dasharray:none"
       inkscape:label="places"
       transform="matrix(20.56274,0,0,20.56274,-3328.4019,-13757.615)"
       id="layer13" />
    <g
       style="fill:#b8db7d;fill-opacity:1;stroke:#737373;stroke-width:0.1945266;stroke-miterlimit:4;stroke-dasharray:none"
       inkscape:label="mimetypes"
       transform="matrix(20.56274,0,0,20.56274,-3328.4019,-13757.615)"
       id="layer14" />
    <g
       inkscape:label="emblems"
       transform="matrix(20.56274,0,0,20.56274,-3328.4019,-13757.615)"
       id="layer15"
       style="fill:#b8db7d;fill-opacity:1;stroke:#737373;stroke-width:0.1945266;stroke-miterlimit:4;stroke-dasharray:none;display:inline" />
    <g
       inkscape:label="categories"
       transform="matrix(20.56274,0,0,20.56274,-3328.4019,-13757.615)"
       id="g4953"
       style="fill:#b8db7d;fill-opacity:1;stroke:#737373;stroke-width:0.1945266;stroke-miterlimit:4;stroke-dasharray:none;display:inline" />
    <path
       sodipodi:nodetypes="cszacczacc"
       d="m 165.02832,904.1319 c 0,0 8.44734,-1.93134 7.40562,-21.15218 -0.5843,-10.78148 -7.40542,-19.78648 -13.33459,-22.03489 -5.92917,-2.24841 -16.69706,-2.09576 -25.08212,-1.95916 -11.1208,0.18117 -33.16321,3.68055 -33.16321,3.68055 l 0.0819,0.25217 c 21.88166,-0.70509 33.34663,0.40642 47.38477,2.35472 14.03814,1.9483 15.08365,10.3251 18.52129,18.29234 1.54019,3.56963 0.26895,11.66009 0.26895,11.66009 z"
       class="fil1 str1"
       id="path3022"
       inkscape:connector-curvature="0"
       style="fill:#1f1a17;fill-rule:evenodd;stroke:#1f1a17;stroke-opacity:1" />
    <path
       style="fill:#1f1a17;fill-rule:evenodd;stroke:#1f1a17;stroke-opacity:1"
       inkscape:connector-curvature="0"
       id="path3000"
       class="fil1 str1"
       d="m 173.49582,986.17907 c 0,0 8.44734,-1.93134 7.40562,-21.15218 -0.5843,-10.78148 -5.38714,-19.02112 -13.33459,-22.03489 -3.91088,-1.48305 -16.69706,-2.09576 -25.08212,-1.95916 -11.1208,0.18117 -33.16321,3.68055 -33.16321,3.68055 l 0.0819,0.25217 c 21.88166,-0.70509 33.34663,0.40642 47.38477,2.35472 14.03814,1.9483 15.08365,10.3251 18.52129,18.29234 1.54019,3.56963 0.26895,11.66009 0.26895,11.66009 z"
       sodipodi:nodetypes="cssacczacc" />
    <path
       style="fill:#1f1a17;fill-rule:evenodd;stroke:#1f1a17;stroke-opacity:1"
       inkscape:connector-curvature="0"
       id="path3002"
       class="fil1 str1"
       d="m 201.15125,1028.2222 c 0,0 7.11726,2.0394 26.34604,1.1563 10.78593,-0.4953 19.84692,-7.2418 22.14418,-13.1522 2.29727,-5.9105 2.23348,-16.67923 2.16609,-25.06513 -0.0894,-11.12192 -3.40675,-33.19245 -3.40675,-33.19245 l -0.25283,0.0798 c 0.52448,21.88674 -0.6816,33.34214 -2.74569,47.36368 -2.06408,14.0216 -10.92328,14.0425 -18.44456,18.3697 -3.13812,1.8054 -10.49399,2.8005 -10.49399,2.8005 z"
       sodipodi:nodetypes="cszacczacc" />
  </g>
</svg>
