<?xml version="1.0" encoding="UTF-8" standalone="no"?>
<!-- Created with Inkscape (http://www.inkscape.org/) -->

<svg
   xmlns:dc="http://purl.org/dc/elements/1.1/"
   xmlns:cc="http://creativecommons.org/ns#"
   xmlns:rdf="http://www.w3.org/1999/02/22-rdf-syntax-ns#"
   xmlns:svg="http://www.w3.org/2000/svg"
   xmlns="http://www.w3.org/2000/svg"
   xmlns:sodipodi="http://sodipodi.sourceforge.net/DTD/sodipodi-0.dtd"
   xmlns:inkscape="http://www.inkscape.org/namespaces/inkscape"
   width="256"
   height="256"
   id="svg4374"
   version="1.1"
   inkscape:version="0.48.3.1 r9886"
   sodipodi:docname="add.svg">
  <defs
     id="defs4376" />
  <sodipodi:namedview
     id="base"
     pagecolor="#ffffff"
     bordercolor="#666666"
     borderopacity="1.0"
     inkscape:pageopacity="0.0"
     inkscape:pageshadow="2"
     inkscape:zoom="1.7124294"
     inkscape:cx="-27.509075"
     inkscape:cy="121.93005"
     inkscape:document-units="px"
     inkscape:current-layer="layer1"
     showgrid="false"
     inkscape:window-width="1918"
     inkscape:window-height="1032"
     inkscape:window-x="0"
     inkscape:window-y="25"
     inkscape:window-maximized="1" />
  <metadata
     id="metadata4379">
    <rdf:RDF>
      <cc:Work
         rdf:about="">
        <dc:format>image/svg+xml</dc:format>
        <dc:type
           rdf:resource="http://purl.org/dc/dcmitype/StillImage" />
        <dc:title />
      </cc:Work>
    </rdf:RDF>
  </metadata>
  <g
     inkscape:label="Capa 1"
     inkscape:groupmode="layer"
     id="layer1"
     transform="translate(0,-796.36218)">
    <g
       id="g6270"
       transform="matrix(24.201878,0,0,24.201878,-63.67935,729.96681)"
       style="fill:#b8db7d;fill-opacity:1;stroke:#737373;stroke-width:0.1615026;stroke-miterlimit:4;stroke-dasharray:none">
      <g
         style="fill:#b8db7d;fill-opacity:1;stroke:#737373;stroke-width:0.1615026;stroke-miterlimit:4;stroke-dasharray:none;display:inline"
         inkscape:label="status"
         id="layer9"
         transform="translate(-60.0002,-726)" />
      <g
         inkscape:label="devices"
         id="layer10"
         transform="translate(-60.0002,-726)"
         style="fill:#b8db7d;fill-opacity:1;stroke:#737373;stroke-width:0.1615026;stroke-miterlimit:4;stroke-dasharray:none" />
      <g
         inkscape:label="apps"
         id="layer11"
         transform="translate(-60.0002,-726)"
         style="fill:#b8db7d;fill-opacity:1;stroke:#737373;stroke-width:0.1615026;stroke-miterlimit:4;stroke-dasharray:none" />
      <g
         inkscape:label="actions"
         id="layer12"
         transform="translate(-60.0002,-726)"
         style="fill:#b8db7d;fill-opacity:1;stroke:#737373;stroke-width:0.1615026;stroke-miterlimit:4;stroke-dasharray:none">
        <path
           style="color:#bebebe;fill:#b8db7d;fill-opacity:1;stroke:#737373;stroke-width:0.1615026;stroke-miterlimit:4;stroke-dasharray:none;marker:none;visibility:visible;display:inline;overflow:visible"
           id="rect31992"
           d="m 67.0002,729 c -0.716733,1.1636 0.468144,3.39899 -0.330092,3.97642 -0.523508,0.18631 -2.940113,-0.57595 -3.669908,0.0236 -0.156586,0.41081 -0.137924,1.84709 0,2 1.331646,0.0479 3.002795,-0.0236 3.669908,-0.0236 0.763083,0.59624 -0.163687,3.99815 0.330092,4.02358 0.493779,0.0254 1.991875,0.22018 2.023578,-0.33009 0,-0.66667 -0.238562,-2.95823 0.188622,-3.66991 0.427184,-0.71168 3.058003,0.59953 3.787798,0 0.156586,-0.41081 0.232236,-2.03571 -0.212202,-2.07073 C 71.445059,732.69966 69.813202,733 69.2124,733 68.719241,732.21641 69.161075,730.31377 69.024327,729.19303 68.968982,728.73944 67.153108,728.86208 67.0002,729 z"
           inkscape:connector-curvature="0"
           sodipodi:nodetypes="ccccczczcccsc" />
      </g>
      <g
         inkscape:label="places"
         id="layer13"
         transform="translate(-60.0002,-726)"
         style="fill:#b8db7d;fill-opacity:1;stroke:#737373;stroke-width:0.1615026;stroke-miterlimit:4;stroke-dasharray:none" />
      <g
         inkscape:label="mimetypes"
         id="layer14"
         transform="translate(-60.0002,-726)"
         style="fill:#b8db7d;fill-opacity:1;stroke:#737373;stroke-width:0.1615026;stroke-miterlimit:4;stroke-dasharray:none" />
      <g
         style="fill:#b8db7d;fill-opacity:1;stroke:#737373;stroke-width:0.1615026;stroke-miterlimit:4;stroke-dasharray:none;display:inline"
         inkscape:label="emblems"
         id="layer15"
         transform="translate(-60.0002,-726)" />
      <g
         style="fill:#b8db7d;fill-opacity:1;stroke:#737373;stroke-width:0.1615026;stroke-miterlimit:4;stroke-dasharray:none;display:inline"
         inkscape:label="categories"
         id="g4953"
         transform="translate(-60.0002,-726)" />
    </g>
    <path
       style="fill:#1f1a17;fill-rule:evenodd;stroke:none"
       inkscape:connector-curvature="0"
       id="_80379776-7-7-5-5-8-0-9-9-8-7-3"
       class="fil1 str1"
       d="m 154.78875,856.84204 c -8.02698,16.95374 -11.56511,28.95079 -0.86316,41.75155 6.44492,7.01131 19.06052,1.02672 28.56666,0.45318 10.72925,-0.64733 31.94685,-4.38425 31.94685,-4.38425 l 0.0991,-0.35013 c -38.12233,-4.27381 -41.70674,9.06336 -53.94404,-4.18517 -7.10456,-13.39067 -6.06362,-16.60729 -6.48712,-30.64847 z"
       sodipodi:nodetypes="ccaccccc" />
    <path
       sodipodi:nodetypes="ccaccccc"
       d="m 9.3812955,908.23102 c -8.02698,16.95374 -11.56511,28.95079 -0.86316,41.75155 6.4449205,7.01131 19.0605205,1.02672 28.5666605,0.45318 10.72925,-0.64733 31.94685,-4.38425 31.94685,-4.38425 l 0.0991,-0.35013 c -38.12233,-4.27381 -41.70674,9.06336 -53.94404,-4.18517 C 8.0821455,928.12553 9.1230855,924.90891 8.6995855,910.86773 z"
       class="fil1 str1"
       id="path2999"
       inkscape:connector-curvature="0"
       style="fill:#1f1a17;fill-rule:evenodd;stroke:none" />
    <path
       style="fill:#1f1a17;fill-rule:evenodd;stroke:none"
       inkscape:connector-curvature="0"
       id="path3001"
       class="fil1 str1"
       d="m 109.41974,1041.6482 c 15.42541,10.6733 26.68876,6.1851 42.80924,4.1272 7.96474,-5.221 4.70859,-18.598 5.08558,-28.114 0.42747,-10.7901 -3.22658,-32.23476 -3.22658,-32.23476 l -0.32939,-0.15464 c -10.40707,36.9225 6.25886,42.6249 -8.80084,52.5486 -14.36655,4.8361 -19.12337,6.7904 -33.04698,4.9284 z"
       sodipodi:nodetypes="ccaccccc" />
  </g>
</svg>
