<?xml version="1.0" encoding="UTF-8" standalone="no"?>
<!-- Generator: Adobe Illustrator 9.0, SVG Export Plug-In  -->

<svg
   xmlns:dc="http://purl.org/dc/elements/1.1/"
   xmlns:cc="http://creativecommons.org/ns#"
   xmlns:rdf="http://www.w3.org/1999/02/22-rdf-syntax-ns#"
   xmlns:svg="http://www.w3.org/2000/svg"
   xmlns="http://www.w3.org/2000/svg"
   xmlns:sodipodi="http://sodipodi.sourceforge.net/DTD/sodipodi-0.dtd"
   xmlns:inkscape="http://www.inkscape.org/namespaces/inkscape"
   width="256"
   height="256"
   viewBox="0 0 256 256"
   xml:space="preserve"
   id="svg2"
   sodipodi:version="0.32"
   inkscape:version="0.48.3.1 r9886"
   sodipodi:docname="help.svg"
   inkscape:output_extension="org.inkscape.output.svg.inkscape"
   version="1.0"><metadata
   id="metadata35"><rdf:RDF><cc:Work
       rdf:about=""><dc:format>image/svg+xml</dc:format><dc:type
         rdf:resource="http://purl.org/dc/dcmitype/StillImage" /></cc:Work></rdf:RDF></metadata><defs
   id="defs33" /><sodipodi:namedview
   inkscape:window-height="1032"
   inkscape:window-width="1918"
   inkscape:pageshadow="2"
   inkscape:pageopacity="0"
   guidetolerance="10.0"
   gridtolerance="10.0"
   objecttolerance="10.0"
   borderopacity="1.0"
   bordercolor="#666666"
   pagecolor="#ffffff"
   id="base"
   showgrid="true"
   inkscape:object-paths="true"
   inkscape:object-nodes="true"
   inkscape:zoom="2.910923"
   inkscape:cx="99.291497"
   inkscape:cy="88.127828"
   inkscape:window-x="0"
   inkscape:window-y="25"
   inkscape:current-layer="svg2"
   inkscape:window-maximized="1"
   showguides="true"
   inkscape:snap-from-guide="true"><inkscape:grid
     type="xygrid"
     id="grid2394"
     visible="true"
     enabled="false"
     empspacing="5"
     snapvisiblegridlinesonly="true" /></sodipodi:namedview>
	<path
   inkscape:connector-curvature="0"
   id="path3890"
   d="m 58.29871,7.1567875 c -26.245872,0 -47.40625,21.3216415 -47.40625,47.5674955 0,13.329528 5.518807,25.239372 14.350872,33.861607 -4.458364,12.00917 -6.933568,25.0144 -6.933568,38.53773 0,13.52447 2.47243,26.52568 6.933568,38.53774 -8.832065,8.62223 -14.350872,20.69332 -14.350872,34.02285 0,26.24585 21.160378,47.40625 47.40625,47.40625 13.656772,0 26.007175,-5.77967 34.667836,-14.99585 11.470144,4.01984 23.796464,6.28858 36.602784,6.28858 12.68097,0 24.90607,-2.18242 36.28029,-6.12734 8.65208,9.11965 20.77039,14.83461 34.34535,14.83461 26.24587,0 47.56749,-21.1604 47.56749,-47.40625 0,-13.12293 -5.27473,-25.10795 -13.86713,-33.70036 4.52888,-12.09194 6.93357,-25.22838 6.93357,-38.86023 0,-13.63189 -2.40469,-26.76829 -6.93357,-38.860221 8.5924,-8.592412 13.86713,-20.416189 13.86713,-33.539116 0,-26.245854 -21.32162,-47.5674955 -47.56749,-47.5674955 -13.57496,0 -25.69327,5.7149625 -34.34535,14.8346085 -11.37422,-3.944922 -23.59932,-6.127338 -36.28029,-6.127338 -12.85981,0 -25.09372,2.238504 -36.602784,6.288584 C 84.305885,12.936454 71.955482,7.1567875 58.29871,7.1567875 z M 57.814973,27.15126 c 5.4922,0 10.503852,1.653788 14.834609,4.514881 C 57.190118,40.941874 44.178197,53.874196 34.756831,69.236401 32.01008,64.965684 30.24195,60.095495 30.24195,54.724283 c 0,-14.99766 12.575381,-27.573023 27.573023,-27.573023 z m 142.379997,0 c 15.62254,0 27.57302,12.575363 27.57302,27.573023 0,4.96446 -1.49368,9.49059 -3.8699,13.544643 -9.54185,-15.198895 -22.73074,-27.971777 -38.21524,-37.086522 4.22926,-2.597837 9.22214,-4.031144 14.51212,-4.031144 z m -71.27062,6.933567 c 13.39025,0 26.03094,2.931371 37.57026,8.062288 l -19.99448,43.21386 c -5.21557,-2.096039 -10.93142,-3.224915 -16.9308,-3.224915 -5.83627,0 -11.34678,1.235478 -16.44707,3.224915 L 88.612911,43.437081 c 12.207959,-5.989725 25.784349,-9.352254 40.311439,-9.352254 z m 84.00903,53.211097 c 5.79392,12.099206 9.19101,25.568626 9.19101,39.827696 0,12.75694 -2.61926,24.85584 -7.25606,35.95781 l -43.21386,-20.15572 c 1.83373,-4.9238 2.90242,-10.20936 2.90242,-15.80209 0,-5.64504 -1.03581,-11.00139 -2.90242,-15.96333 l 41.27891,-23.864366 z m -168.824296,3.06367 43.858844,19.833226 c -2.107454,5.22761 -3.386161,10.91497 -3.386161,16.9308 0,5.82224 1.083819,11.35728 3.063669,16.44707 l -41.923894,23.54188 c -5.824981,-12.15901 -9.191008,-25.66553 -9.191008,-39.98895 0,-13.06451 2.734446,-25.45665 7.57855,-36.764026 z m 85.460246,6.772317 c 16.24744,0 29.99171,13.119369 29.99171,29.991709 0,16.87235 -13.11937,29.99171 -29.99171,29.99171 -16.24745,0 -29.991708,-13.11936 -29.991708,-29.99171 0,-16.24743 13.119358,-29.991709 29.991708,-29.991709 z m -16.60831,71.754359 c 5.14149,2.02705 10.71362,3.22492 16.60831,3.22492 5.89469,0 11.46682,-1.19787 16.60831,-3.22492 l 23.86437,41.9239 c -12.22471,6.01072 -25.93178,9.5135 -40.47268,9.5135 -13.19153,0 -25.69886,-2.89711 -37.086521,-7.90105 L 112.96102,168.88627 z M 34.595585,184.8496 c 9.430634,15.41685 22.551908,28.42863 38.053997,37.73151 -4.331794,2.8631 -9.340283,4.51488 -14.834609,4.51488 -14.997642,0 -27.573023,-12.41412 -27.573023,-27.41178 0,-5.51651 1.677119,-10.6108 4.353635,-14.83461 z m 189.302505,0.96748 c 2.37461,4.09672 3.8699,8.82574 3.8699,13.86713 0,14.99766 -12.57538,27.41178 -27.57302,27.41178 -5.24473,0 -10.1451,-1.56313 -14.35087,-4.19239 15.44076,-9.13012 28.54509,-21.89924 38.05399,-37.08652 z"
   style="fill:#1f1a17;fill-opacity:1;fill-rule:nonzero;stroke:#1f1a17;stroke-width:4;stroke-miterlimit:4;stroke-opacity:1;stroke-dasharray:none" /><path
   style="fill:#00923f;fill-opacity:1;stroke:#b8db7c;stroke-width:4;stroke-miterlimit:4;stroke-opacity:1;stroke-dasharray:none"
   d="M 127.34375,17.875 C 69.86181,17.875 23.25,64.486813 23.25,121.96875 c 0,57.48194 46.61181,104.0625 104.09375,104.0625 57.48194,0 104.0625,-46.58056 104.0625,-104.0625 0,-57.481937 -46.58056,-104.09375 -104.0625,-104.09375 z m -1.78125,81.25 c 16.36731,0 35.48621,12.80311 35.48621,29.17042 0,16.36731 -19.11868,30.81991 -35.48599,30.81991 -16.36731,0 -32.898297,-14.1951 -32.898297,-30.56241 0,-16.36731 16.530767,-29.42792 32.898077,-29.42792 z"
   id="path3885"
   inkscape:connector-curvature="0"
   sodipodi:nodetypes="ssssssssss" /><path
   style="fill:#b8db7c;fill-opacity:1;fill-rule:nonzero;stroke:#72706f;stroke-width:4;stroke-miterlimit:4;stroke-opacity:1;stroke-dasharray:none"
   d="m 54.29871,9.1567875 c -26.245872,0 -47.4062505,21.3216415 -47.4062505,47.5674955 0,13.329528 5.5188075,25.239372 14.3508725,33.861607 -4.458364,12.00917 -6.933568,25.0144 -6.933568,38.53773 0,13.52447 2.47243,26.52568 6.933568,38.53774 -8.832065,8.62223 -14.3508725,20.69332 -14.3508725,34.02285 0,26.24585 21.1603785,47.40625 47.4062505,47.40625 13.656772,0 26.007175,-5.77967 34.667836,-14.99585 11.470144,4.01984 23.796464,6.28858 36.602784,6.28858 12.68097,0 24.90607,-2.18242 36.28029,-6.12734 8.65208,9.11965 20.77039,14.83461 34.34535,14.83461 26.24587,0 47.56749,-21.1604 47.56749,-47.40625 0,-13.12293 -5.27473,-25.10795 -13.86713,-33.70036 4.52888,-12.09194 6.93357,-25.22838 6.93357,-38.86023 0,-13.63189 -2.40469,-26.76829 -6.93357,-38.860221 8.5924,-8.592412 13.86713,-20.416189 13.86713,-33.539116 0,-26.245854 -21.32162,-47.5674955 -47.56749,-47.5674955 -13.57496,0 -25.69327,5.7149625 -34.34535,14.8346085 -11.37422,-3.944922 -23.59932,-6.127338 -36.28029,-6.127338 -12.85981,0 -25.09372,2.238504 -36.602784,6.288584 C 80.305885,14.936454 67.955482,9.1567875 54.29871,9.1567875 z M 53.814973,29.15126 c 5.4922,0 10.503852,1.653788 14.834609,4.514881 C 53.190118,42.941874 40.178197,55.874196 30.756831,71.236401 28.01008,66.965684 26.24195,62.095495 26.24195,56.724283 c 0,-14.99766 12.575381,-27.573023 27.573023,-27.573023 z m 142.379997,0 c 15.62254,0 27.57302,12.575363 27.57302,27.573023 0,4.96446 -1.49368,9.49059 -3.8699,13.544643 -9.54185,-15.198895 -22.73074,-27.971777 -38.21524,-37.086522 4.22926,-2.597837 9.22214,-4.031144 14.51212,-4.031144 z m -71.27062,6.933567 c 13.39025,0 29.95464,3.813883 34.29453,15.598618 4.53861,12.324373 -5.53735,28.788017 -16.71875,35.67753 -4.80666,2.961665 -11.29792,-0.476646 -16.9308,-0.476646 -5.47974,0 -11.63037,3.099787 -16.44707,0.476646 C 97.315062,80.930858 84.273799,65.708164 88.231206,52.859224 92.189781,40.006493 110.39726,36.084827 124.92435,36.084827 z m 76.62257,56.750888 c 12.70032,3.943233 16.57747,22.028835 16.57747,36.287905 0,12.75694 -3.55134,28.66617 -14.8138,32.78913 -12.3629,4.5258 -28.68277,-5.82027 -35.65612,-16.98704 -2.79014,-4.46798 0.15415,-10.55102 0.15415,-15.80209 0,-5.30019 -2.75414,-11.32039 -0.15415,-15.96333 6.43633,-11.49371 21.31174,-24.230671 33.89245,-20.324575 z M 47.666824,95.628192 c 12.452027,-4.674758 29.32045,5.243108 36.301104,16.564628 2.964072,4.80726 -0.637892,11.28247 -0.637892,16.9308 0,5.46656 3.006627,11.66956 0.3154,16.44707 -6.526612,11.58614 -21.84043,24.05932 -34.508887,20.01636 -12.723356,-4.06048 -16.606015,-22.14001 -16.606015,-36.46343 0,-13.06451 3.665774,-29.189151 15.13629,-33.495428 z m 77.902506,3.503719 c 16.24744,0 29.99171,13.119369 29.99171,29.991709 0,16.87235 -13.11937,29.99171 -29.99171,29.99171 -16.24745,0 -29.991708,-13.11936 -29.991708,-29.99171 0,-16.24743 13.119358,-29.991709 29.991708,-29.991709 z m -16.60831,71.754359 c 4.7269,-2.88619 11.07372,0.47665 16.60831,0.47665 5.53459,0 11.76285,-3.15903 16.60831,-0.47665 11.67757,6.46453 24.28316,21.79895 20.27462,34.5303 -4.06168,12.90015 -22.34203,16.9071 -36.88293,16.9071 -13.19153,0 -29.581602,-3.79212 -33.810787,-15.43738 -4.539892,-12.5008 5.851483,-29.06924 17.202477,-36.00002 z M 30.595585,186.8496 c 9.430634,15.41685 22.551908,28.42863 38.053997,37.73151 -4.331794,2.8631 -9.340283,4.51488 -14.834609,4.51488 -14.997642,0 -27.573023,-12.41412 -27.573023,-27.41178 0,-5.51651 1.677119,-10.6108 4.353635,-14.83461 z m 189.302505,0.96748 c 2.37461,4.09672 3.8699,8.82574 3.8699,13.86713 0,14.99766 -12.57538,27.41178 -27.57302,27.41178 -5.24473,0 -10.1451,-1.56313 -14.35087,-4.19239 15.44076,-9.13012 28.54509,-21.89924 38.05399,-37.08652 z"
   id="path9"
   inkscape:connector-curvature="0"
   sodipodi:nodetypes="sscscsscscsscscsscscssccssssccssaasaasasaasaaaasaasasssssasaasaaccssccsscc" />
	<g
   id="crop_x0020_marks"
   style="fill-rule:nonzero;stroke:#000000;stroke-miterlimit:4"
   transform="translate(0,208)">
		<path
   style="fill:none;stroke:none"
   d="M 48,48 0,48 0,0 48,0 48,48 z"
   id="path30"
   inkscape:connector-curvature="0" />
	</g>
</svg>