<?xml version="1.0" encoding="UTF-8" standalone="no"?>
<!-- Created with Inkscape (http://www.inkscape.org/) -->

<svg
   xmlns:dc="http://purl.org/dc/elements/1.1/"
   xmlns:cc="http://creativecommons.org/ns#"
   xmlns:rdf="http://www.w3.org/1999/02/22-rdf-syntax-ns#"
   xmlns:svg="http://www.w3.org/2000/svg"
   xmlns="http://www.w3.org/2000/svg"
   xmlns:sodipodi="http://sodipodi.sourceforge.net/DTD/sodipodi-0.dtd"
   xmlns:inkscape="http://www.inkscape.org/namespaces/inkscape"
   width="256"
   height="256"
   id="svg4374"
   version="1.1"
   inkscape:version="0.48.3.1 r9886"
   sodipodi:docname="edit-find.svg">
  <defs
     id="defs4376" />
  <sodipodi:namedview
     id="base"
     pagecolor="#ffffff"
     bordercolor="#666666"
     borderopacity="1.0"
     inkscape:pageopacity="0.0"
     inkscape:pageshadow="2"
     inkscape:zoom="1.7124294"
     inkscape:cx="46.472883"
     inkscape:cy="123.42683"
     inkscape:document-units="px"
     inkscape:current-layer="layer1"
     showgrid="false"
     inkscape:window-width="1918"
     inkscape:window-height="1032"
     inkscape:window-x="0"
     inkscape:window-y="25"
     inkscape:window-maximized="1" />
  <metadata
     id="metadata4379">
    <rdf:RDF>
      <cc:Work
         rdf:about="">
        <dc:format>image/svg+xml</dc:format>
        <dc:type
           rdf:resource="http://purl.org/dc/dcmitype/StillImage" />
        <dc:title />
      </cc:Work>
    </rdf:RDF>
  </metadata>
  <g
     inkscape:label="Capa 1"
     inkscape:groupmode="layer"
     id="layer1"
     transform="translate(0,-796.36218)">
    <g
       inkscape:label="status"
       transform="matrix(17.79588,0,0,17.973851,-2507.2315,-10829.56)"
       id="layer9-5"
       style="fill:#b8db7d;fill-opacity:1;display:inline" />
    <g
       style="fill:#b8db7d;fill-opacity:1"
       inkscape:label="devices"
       transform="matrix(17.79588,0,0,17.973851,-2507.2315,-10829.56)"
       id="layer10-8" />
    <g
       style="fill:#b8db7d;fill-opacity:1"
       inkscape:label="apps"
       transform="matrix(17.79588,0,0,17.973851,-2507.2315,-10829.56)"
       id="layer11-9" />
    <path
       inkscape:connector-curvature="0"
       d="m 161.57714,940.69716 a 17.15207,17.323601 0 0 0 -8.57517,29.77196 l 68.60141,69.28748 a 17.244307,17.416762 0 1 0 24.11769,-24.9001 l -68.60141,-69.28756 a 17.15207,17.323601 0 0 0 -15.54252,-4.87178 z"
       id="path3810"
       style="font-size:medium;font-style:normal;font-variant:normal;font-weight:normal;font-stretch:normal;text-indent:0;text-align:start;text-decoration:none;line-height:normal;letter-spacing:normal;word-spacing:normal;text-transform:none;direction:ltr;block-progression:tb;writing-mode:lr-tb;text-anchor:start;baseline-shift:baseline;color:#000000;fill:#1f1a17;fill-opacity:1;stroke:#1f1a17;stroke-width:3.85490441;stroke-miterlimit:4;stroke-opacity:1;stroke-dasharray:none;marker:none;visibility:visible;display:inline;overflow:visible;enable-background:new;font-family:Sans;-inkscape-font-specification:Sans" />
    <path
       inkscape:connector-curvature="0"
       d="m 104.89711,802.04494 c -51.946021,0 -94.510971,42.94179 -94.510971,95.34772 0,52.40576 42.56495,95.34754 94.510971,95.34754 51.94585,0 94.5108,-42.94178 94.5108,-95.34754 0,-52.40593 -42.56495,-95.34772 -94.5108,-95.34772 z m 0,34.79843 c 33.39774,0 60.01784,26.85565 60.01784,60.54929 0,33.69346 -26.6201,60.54911 -60.01784,60.54911 -33.397913,0 -60.018007,-26.85565 -60.018007,-60.54911 0,-33.69364 26.620094,-60.54929 60.018007,-60.54929 z"
       id="path3812"
       style="font-size:medium;font-style:normal;font-variant:normal;font-weight:normal;font-stretch:normal;text-indent:0;text-align:start;text-decoration:none;line-height:normal;letter-spacing:normal;word-spacing:normal;text-transform:none;direction:ltr;block-progression:tb;writing-mode:lr-tb;text-anchor:start;baseline-shift:baseline;color:#000000;fill:#1f1a17;fill-opacity:1;stroke:#1f1a17;stroke-width:3.85490441;stroke-miterlimit:4;stroke-opacity:1;stroke-dasharray:none;marker:none;visibility:visible;display:inline;overflow:visible;enable-background:new;font-family:Sans;-inkscape-font-specification:Sans" />
    <path
       style="font-size:medium;font-style:normal;font-variant:normal;font-weight:normal;font-stretch:normal;text-indent:0;text-align:start;text-decoration:none;line-height:normal;letter-spacing:normal;word-spacing:normal;text-transform:none;direction:ltr;block-progression:tb;writing-mode:lr-tb;text-anchor:start;baseline-shift:baseline;color:#000000;fill:#00923f;fill-opacity:1;stroke:#737373;stroke-width:3.85490441;stroke-miterlimit:4;stroke-dasharray:none;marker:none;visibility:visible;display:inline;overflow:visible;enable-background:new;font-family:Sans;-inkscape-font-specification:Sans"
       id="path27941"
       d="m 157.72224,942.62462 a 17.15207,17.323601 0 0 0 -8.57518,29.77195 l 68.60142,69.28753 a 17.244313,17.416768 0 1 0 24.11769,-24.9002 l -68.60142,-69.28751 a 17.15207,17.323601 0 0 0 -15.54251,-4.87177 z"
       inkscape:connector-curvature="0" />
    <path
       style="font-size:medium;font-style:normal;font-variant:normal;font-weight:normal;font-stretch:normal;text-indent:0;text-align:start;text-decoration:none;line-height:normal;letter-spacing:normal;word-spacing:normal;text-transform:none;direction:ltr;block-progression:tb;writing-mode:lr-tb;text-anchor:start;baseline-shift:baseline;color:#000000;fill:#b8db7d;fill-opacity:1;stroke:#737373;stroke-width:3.85490441;stroke-miterlimit:4;stroke-dasharray:none;marker:none;visibility:visible;display:inline;overflow:visible;enable-background:new;font-family:Sans;-inkscape-font-specification:Sans"
       id="path27918"
       d="m 101.04221,803.9724 c -51.946025,0 -94.5109754,42.94178 -94.5109754,95.34771 0,52.40576 42.5649504,95.34754 94.5109754,95.34754 51.94585,0 94.5108,-42.94178 94.5108,-95.34754 0,-52.40593 -42.56495,-95.34771 -94.5108,-95.34771 z m 0,34.79842 c 33.39774,0 60.01784,26.85566 60.01784,60.54929 0,33.69346 -26.6201,60.54911 -60.01784,60.54911 -33.397917,0 -60.018011,-26.85565 -60.018011,-60.54911 0,-33.69363 26.620094,-60.54929 60.018011,-60.54929 z"
       inkscape:connector-curvature="0" />
    <g
       style="fill:#b8db7d;fill-opacity:1"
       inkscape:label="places"
       transform="matrix(17.79588,0,0,17.973851,-2507.2315,-10829.56)"
       id="layer13-0" />
    <g
       style="fill:#b8db7d;fill-opacity:1"
       inkscape:label="mimetypes"
       transform="matrix(17.79588,0,0,17.973851,-2507.2315,-10829.56)"
       id="layer14-0" />
    <g
       inkscape:label="emblems"
       transform="matrix(17.79588,0,0,17.973851,-2507.2315,-10829.56)"
       id="layer15-7"
       style="fill:#b8db7d;fill-opacity:1;display:inline" />
    <g
       inkscape:label="categories"
       transform="matrix(17.79588,0,0,17.973851,-2507.2315,-10829.56)"
       id="g4953"
       style="fill:#b8db7d;fill-opacity:1;display:inline" />
  </g>
</svg>
