<?xml version="1.0" encoding="UTF-8" standalone="no"?>
<!-- Created with Inkscape (http://www.inkscape.org/) -->

<svg
   xmlns:dc="http://purl.org/dc/elements/1.1/"
   xmlns:cc="http://creativecommons.org/ns#"
   xmlns:rdf="http://www.w3.org/1999/02/22-rdf-syntax-ns#"
   xmlns:svg="http://www.w3.org/2000/svg"
   xmlns="http://www.w3.org/2000/svg"
   xmlns:sodipodi="http://sodipodi.sourceforge.net/DTD/sodipodi-0.dtd"
   xmlns:inkscape="http://www.inkscape.org/namespaces/inkscape"
   width="256"
   height="256"
   id="svg5121"
   version="1.1"
   inkscape:version="0.48.3.1 r9886"
   sodipodi:docname="gtk-spell-check.svg">
  <defs
     id="defs5123" />
  <sodipodi:namedview
     id="base"
     pagecolor="#ffffff"
     bordercolor="#666666"
     borderopacity="1.0"
     inkscape:pageopacity="0.0"
     inkscape:pageshadow="2"
     inkscape:zoom="1.6614269"
     inkscape:cx="197.01325"
     inkscape:cy="124.28605"
     inkscape:document-units="px"
     inkscape:current-layer="layer1"
     showgrid="false"
     inkscape:window-width="1918"
     inkscape:window-height="1032"
     inkscape:window-x="0"
     inkscape:window-y="25"
     inkscape:window-maximized="1"
     showguides="true"
     inkscape:guide-bbox="true" />
  <metadata
     id="metadata5126">
    <rdf:RDF>
      <cc:Work
         rdf:about="">
        <dc:format>image/svg+xml</dc:format>
        <dc:type
           rdf:resource="http://purl.org/dc/dcmitype/StillImage" />
        <dc:title />
      </cc:Work>
    </rdf:RDF>
  </metadata>
  <g
     inkscape:label="Capa 1"
     inkscape:groupmode="layer"
     id="layer1"
     transform="translate(0,-796.36218)">
    <g
       inkscape:label="status"
       transform="translate(-189.44005,322.89394)"
       id="layer9"
       style="display:inline" />
    <g
       inkscape:label="devices"
       transform="translate(-189.44005,322.89394)"
       id="layer10" />
    <g
       inkscape:label="apps"
       transform="translate(-189.44005,322.89394)"
       id="layer11" />
    <g
       inkscape:label="places"
       transform="translate(-189.44005,322.89394)"
       id="layer13" />
    <g
       inkscape:label="mimetypes"
       transform="translate(-189.44005,322.89394)"
       id="layer14" />
    <g
       inkscape:label="emblems"
       transform="translate(-189.44005,322.89394)"
       id="layer15"
       style="display:inline" />
    <g
       inkscape:label="emotes"
       transform="translate(-189.44005,322.89394)"
       id="g71291"
       style="display:inline" />
    <g
       inkscape:label="categories"
       transform="translate(-189.44005,322.89394)"
       id="g4953"
       style="display:inline" />
    <path
       style="font-size:medium;font-style:normal;font-variant:normal;font-weight:normal;font-stretch:normal;text-indent:0;text-align:start;text-decoration:none;line-height:normal;letter-spacing:normal;word-spacing:normal;text-transform:none;direction:ltr;block-progression:tb;writing-mode:lr-tb;text-anchor:start;baseline-shift:baseline;color:#000000;fill:#00923f;fill-opacity:1;stroke:#737373;stroke-width:3.6769104;stroke-miterlimit:4;stroke-opacity:1;stroke-dasharray:none;marker:none;visibility:visible;display:inline;overflow:visible;enable-background:new;font-family:Sans;-inkscape-font-specification:Sans"
       d="m 167.93573,955.51202 a 5.339311,5.2450128 1.5300344 0 0 -3.70563,1.69483 l -10.7722,11.6627 -11.46162,-10.97328 a 5.339311,5.2450128 1.5300344 0 0 -4.02162,-1.37884 5.339311,5.2450128 1.5300344 0 0 -5.94626,1.26394 l -10.7722,11.6627 -11.46162,-10.97328 a 5.339311,5.2450128 1.5300344 0 0 -1.95335,-1.12031 5.339311,5.2450128 1.5300344 0 0 -7.29637,0.45961 l -10.772203,11.6627 -11.461619,-10.97328 a 5.339311,5.2450128 1.5300344 0 0 -2.183166,-1.20648 5.339311,5.2450128 1.5300344 0 0 -7.382547,0.45961 l -10.743473,11.6627 -11.490345,-10.97328 a 5.339311,5.2450128 1.5300344 0 0 -1.924633,-1.12031 5.339311,5.2450128 1.5300344 0 0 -7.325095,0.45962 l -10.743473,11.6627 -11.490345,-10.97328 a 5.339311,5.2450128 1.5300344 0 0 -8.1294194,1.0054 l -2.8725864,3.10239 3.3896519,3.2173 a 5.339311,5.2450128 1.5300344 0 0 0.430888,0.43089 L 23.15738,980.87696 a 5.339311,5.2450128 1.5300344 0 0 7.411273,-0.22981 l 11.203087,-12.12231 12.869186,12.32339 a 5.339311,5.2450128 1.5300344 0 0 7.411273,-0.2298 l 11.289264,-12.23722 13.070268,12.52448 a 5.339311,5.2450128 1.5300344 0 0 7.411273,-0.22981 l 11.203086,-12.12232 12.86919,12.3234 a 5.339311,5.2450128 1.5300344 0 0 7.41127,-0.22981 l 11.80633,-12.78301 12.98409,12.4383 a 5.339311,5.2450128 1.5300344 0 0 7.44,-0.2298 l 11.26054,-12.2085 13.09899,12.52448 a 5.339311,5.2450128 1.5300344 0 0 7.41127,-0.22981 l 11.20309,-12.12231 12.86919,12.29467 a 5.339311,5.2450128 1.5300344 0 0 7.41127,-0.22981 l 14.36293,-15.54069 3.56201,-3.87799 -2.98749,-2.87259 a 5.339311,5.2450128 1.5300344 0 0 -8.24432,-0.57452 l -10.7722,11.6627 -11.46162,-10.97327 a 5.339311,5.2450128 1.5300344 0 0 -1.95336,-1.14904 5.339311,5.2450128 1.5300344 0 0 -7.29637,0.51707 l -10.7722,11.6627 -11.46162,-11.00201 a 5.339311,5.2450128 1.5300344 0 0 -2.21189,-1.20649 5.339311,5.2450128 1.5300344 0 0 -3.61946,-1.23521 z"
       id="path12113-8-8"
       inkscape:connector-curvature="0" />
    <g
       style="font-size:134.65608215px;font-style:normal;font-weight:normal;line-height:125%;letter-spacing:0px;word-spacing:0px;fill:#b8db7d;fill-opacity:1;stroke:#737373;stroke-width:4;stroke-miterlimit:4;stroke-opacity:1;stroke-dasharray:none;font-family:Sans"
       id="text8230"
       transform="matrix(0.91922763,0,0,0.91922763,3.8536001,68.555325)">
      <path
         style="font-variant:normal;font-weight:bold;font-stretch:normal;fill:#b8db7d;stroke:#737373;stroke-width:4;stroke-miterlimit:4;stroke-opacity:1;stroke-dasharray:none;font-family:Arial Rounded MT Bold;-inkscape-font-specification:Arial Rounded MT Bold"
         d="m 48.59375,63.71875 c -1.24879,0.0074 -6.741312,0.382474 -14.8125,6 -9.224215,6.42003 -13.073994,28.36935 -18.1875,43.09375 -5.12406,14.75479 -15.95490156,40.77002 -12.46875,45.15625 2.746784,3.31828 13.310019,6.76472 19.71875,3.90625 2.459653,-1.94886 -0.277634,-11.73089 6.25,-17.875 l 19.8125,0 18.4375,-0.15625 c 4.146276,3.94583 4.363293,12.8896 7.53125,18.03125 3.83266,2.34931 18.128609,0.64917 21.0625,-5.25 3.034732,-6.04143 -8.527048,-29.43934 -13.8125,-43.8125 -5.379628,-14.62927 -8.963285,-36.67372 -18.1875,-43.09375 -9.224215,-6.42003 -15.09375,-6 -15.09375,-6 0,0 -0.0716,-0.0011 -0.25,0 z M 49.625,92.8125 c 5.912079,0.222473 11.369104,23.54864 11.78125,29.96875 0.488468,7.60902 -29.475264,5.81161 -26,-0.90625 l 10.9375,-26.5625 c 1.098288,-1.798219 2.186421,-2.541199 3.28125,-2.5 z"
         transform="translate(0,796.36218)"
         id="path3021"
         inkscape:connector-curvature="0" />
      <path
         d="m 151.39645,943.05844 c 5.04078,2e-5 8.87619,-1.84098 11.50625,-5.523 2.67377,-3.68198 4.01069,-9.02964 4.01076,-16.04301 -7e-5,-7.01329 -1.33699,-12.36096 -4.01076,-16.04301 -2.63006,-3.68194 -6.46547,-5.52294 -11.50625,-5.523 -5.04088,6e-5 -8.92013,1.86297 -11.63776,5.58875 -2.67387,3.68205 -4.01079,9.0078 -4.01075,15.97726 -4e-5,6.96954 1.33688,12.3172 4.01075,16.04301 2.71763,3.68202 6.59688,5.52302 11.63776,5.523 m -15.64851,-47.66877 c 3.24363,-4.29561 6.83796,-7.45161 10.783,-9.46801 3.94496,-2.06009 8.48171,-3.09018 13.61026,-3.09025 9.07344,7e-5 16.5251,3.61632 22.35502,10.84875 5.82975,7.18873 8.74466,16.45948 8.74475,27.81227 -9e-5,11.35287 -2.915,20.64553 -8.74475,27.87802 -5.82992,7.18867 -13.28158,10.783 -22.35502,10.78301 -5.12855,-10e-6 -9.6653,-1.00817 -13.61026,-3.02451 -3.94504,-2.06016 -6.40892,-11.50499 -10.783,-9.53375 -3.23697,1.45878 6.13596,10.38399 0,10.6515 -6.13596,0.26751 -12.31883,0.83705 -23.53852,0 -11.21969,-0.83705 -3.24462,-95.90251 0,-102.30706 3.24462,-6.40455 16.11525,-7.42327 23.53852,0 7.42327,7.42327 0,39.45003 0,39.45003"
         style="font-variant:normal;font-weight:bold;font-stretch:normal;fill:#b8db7d;stroke:#737373;stroke-width:4;stroke-miterlimit:4;stroke-opacity:1;stroke-dasharray:none;font-family:Arial Rounded MT Bold;-inkscape-font-specification:Arial Rounded MT Bold"
         id="path3023"
         inkscape:connector-curvature="0"
         sodipodi:nodetypes="cccccccccccccccscazzzzc" />
      <path
         style="font-variant:normal;font-weight:bold;font-stretch:normal;fill:#b8db7d;stroke:#737373;stroke-width:4;stroke-miterlimit:4;stroke-opacity:1;stroke-dasharray:none;font-family:Arial Rounded MT Bold;-inkscape-font-specification:Arial Rounded MT Bold"
         d="m 245.625,86.46875 c -13.28154,7e-5 -23.69202,3.41207 -31.1875,10.25 -7.49551,6.79423 -11.21875,16.26446 -11.21875,28.40625 0,12.14187 3.72324,21.63076 11.21875,28.46875 7.49548,6.79417 17.90596,10.18749 31.1875,10.1875 3.81345,-1e-5 7.60527,-0.32991 11.375,-1.03125 3.81344,-0.6575 7.72252,-0.24521 11.21875,-3.03125 3.49623,-2.78604 4.58574,-12.53085 0.625,-15.21875 -3.96074,-2.68789 -6.48123,-0.28331 -9.8125,0.8125 -3.28756,1.09585 -6.7868,1.65627 -10.46875,1.65625 -6.57505,2e-5 -11.69303,-1.90523 -15.375,-5.71875 -3.6382,-3.85731 -5.46878,-9.24313 -5.46875,-16.125 -3e-5,-6.88179 1.83055,-12.2177 5.46875,-16.03125 3.68197,-3.85728 8.79995,-5.78119 15.375,-5.78125 3.46278,6e-5 6.8001,0.51056 10,1.5625 3.2436,1.05206 6.72278,3.32805 11.03125,0.8125 l 0.75,-6.40625 C 272.63678,87.69032 260.7696,88.18882 257,87.53125 c -3.72589,-0.70126 -7.51772,-1.06243 -11.375,-1.0625 z"
         transform="translate(0,796.36218)"
         id="path3025"
         inkscape:connector-curvature="0" />
    </g>
    <path
       sodipodi:nodetypes="cssacczacc"
       d="m 41.430178,918.99206 c 0,0 1.878964,3.22935 11.61058,0.88219 5.45874,-1.31658 9.17152,-4.08789 9.877243,-7.60998 0.347286,-1.7332 -0.686192,-6.97543 -1.639621,-10.35932 -1.264451,-4.48793 -5.378699,-13.06886 -5.378699,-13.06886 l -0.120491,0.0585 c 2.66656,8.79566 3.305434,13.5525 3.786983,19.43579 0.48156,5.88329 -3.697349,7.14589 -7.4145,9.33677 -1.665419,0.98158 -5.941831,1.27679 -5.941831,1.27679 z"
       class="fil1 str1"
       id="path3839"
       inkscape:connector-curvature="0"
       style="fill:#1f1a17;fill-rule:evenodd;stroke:#1f1a17;stroke-width:0.46692416;stroke-opacity:1" />
    <path
       style="fill:#1f1a17;fill-rule:evenodd;stroke:#1f1a17;stroke-width:0.46692416;stroke-opacity:1"
       inkscape:connector-curvature="0"
       id="path3841"
       class="fil1 str1"
       d="m 72.96691,950.80543 c 0,0 1.878965,3.22936 11.610581,0.88219 5.45874,-1.31658 9.17152,-4.08789 9.877243,-7.60998 0.347286,-1.73319 -0.686192,-6.97543 -1.639622,-10.35932 -1.264451,-4.48793 -5.378698,-13.06886 -5.378698,-13.06886 l -0.120491,0.0585 c 2.66656,8.79567 3.305434,13.55251 3.786983,19.43579 0.48156,5.88329 -3.697349,7.1459 -7.414501,9.33677 -1.665418,0.98158 -5.94183,1.27679 -5.94183,1.27679 z"
       sodipodi:nodetypes="cssacczacc" />
    <path
       sodipodi:nodetypes="cssacczacc"
       d="m 139.18222,949.21939 c 0,0 -1.19401,4.17929 11.37319,4.32346 7.0493,0.0809 13.68811,-1.9788 17.89485,-5.74703 2.0701,-1.85432 6.39573,-7.6654 8.45612,-12.14853 2.14139,-4.65937 3.85842,-14.89194 3.85842,-14.89194 l -0.1845,0.0314 c -5.83618,10.68021 -6.51965,14.84274 -11.79609,21.61325 -5.27643,6.77049 -10.92341,6.99572 -16.99618,8.3998 -2.72081,0.62908 -7.51947,-0.26425 -7.51947,-0.26425 z"
       class="fil1 str1"
       id="path3843"
       inkscape:connector-curvature="0"
       style="fill:#1f1a17;fill-rule:evenodd;stroke:#1f1a17;stroke-width:0.56618899;stroke-opacity:1" />
    <path
       style="fill:#1f1a17;fill-rule:evenodd;stroke:#1f1a17;stroke-width:0.47079635;stroke-opacity:1"
       inkscape:connector-curvature="0"
       id="path3845"
       class="fil1 str1"
       d="m 130.70778,931.17256 c 0,0 -2.72965,0.32869 -3.51869,-12.92382 -0.4426,-7.43373 0.56922,-13.96065 2.85787,-17.54991 1.12624,-1.76625 4.77475,-5.02728 7.65987,-6.19998 2.99854,-1.21881 9.74824,-0.7545 9.74824,-0.7545 l -0.0108,0.18707 c -6.82213,3.76965 -9.56868,3.56501 -13.80652,7.61339 -4.23785,4.04837 -4.0773,9.93893 -4.6818,16.01585 -0.27081,2.72266 0.59116,7.96903 0.59116,7.96903 z"
       sodipodi:nodetypes="cssacczacc" />
    <path
       sodipodi:nodetypes="cssacczacc"
       d="m 6.5314464,945.91704 c 0,0 0.2704669,3.22601 9.1674876,5.65522 4.990588,1.36262 9.122212,0.88504 11.084803,-1.44823 0.965785,-1.14818 2.124523,-5.55978 2.727963,-8.46098 0.504414,-2.42511 0.728934,-7.3952 0.728934,-7.3952 l -0.121722,-0.008 c -1.271876,7.73211 -2.617943,6.86537 -4.535659,11.47714 -1.917704,4.61175 -5.83833,3.7593 -9.74541,3.80045 -1.750507,0.0184 -5.370811,-1.60023 -5.370811,-1.60023 z"
       class="fil1 str1"
       id="path3847"
       inkscape:connector-curvature="0"
       style="fill:#1f1a17;fill-rule:evenodd;stroke:#1f1a17;stroke-width:0.41305381;stroke-opacity:1" />
    <path
       sodipodi:nodetypes="cssacczacc"
       d="m 213.61577,927.22201 c 0,0 -4.36187,-6.0406 -1.12693,-18.91642 1.81457,-7.22243 5.29661,-8.71626 8.55914,-11.45059 1.60547,-1.34554 6.06611,-3.3577 9.17037,-3.60798 3.22631,-0.26013 9.52355,2.21352 9.52355,2.21352 l -0.0666,0.17516 c -7.64021,1.54233 -10.19793,0.52079 -15.45747,3.10649 -5.25955,2.58569 -7.83868,5.35746 -9.83698,9.43884 -1.79864,3.67359 -1.28068,12.20383 -1.28068,12.20383 z"
       class="fil1 str1"
       id="path3849"
       inkscape:connector-curvature="0"
       style="fill:#1f1a17;fill-rule:evenodd;stroke:#1f1a17;stroke-width:0.47079635;stroke-opacity:1" />
    <path
       style="fill:#1f1a17;fill-rule:evenodd;stroke:#1f1a17;stroke-width:0.41305381;stroke-opacity:1"
       inkscape:connector-curvature="0"
       id="path3851"
       class="fil1 str1"
       d="m 233.01373,952.70502 c 0,0 2.40278,0.50775 11.60148,-0.15697 5.15982,-0.37286 8.89808,-2.19599 9.97399,-5.04877 0.52944,-1.40383 0.58801,-5.94251 0.25095,-8.88669 -0.20619,-1.80113 -1.37821,-5.26117 -1.37821,-5.26117 0.94232,7.01359 -1.44677,10.18477 -1.46268,10.40861 -1.84147,4.40008 -4.86299,5.16226 -7.92916,6.82237 -1.32018,0.71477 -4.32591,1.25313 -4.32591,1.25313 z"
       sodipodi:nodetypes="cssaccacc" />
    <path
       style="fill:#1f1a17;fill-rule:evenodd;stroke:#1f1a17;stroke-width:0.41305381;stroke-opacity:1"
       inkscape:connector-curvature="0"
       id="path3853"
       class="fil1 str1"
       d="m 44.810499,973.04403 c 0,0 -1.040626,3.06551 6.145512,8.8463 4.030904,3.2426 8.00938,4.4551 10.740594,3.09997 1.344018,-0.66684 4.168452,-4.24838 5.880502,-6.66706 1.431099,-2.02177 3.622155,-6.48847 3.622155,-6.48847 l -0.108285,-0.0562 c -4.254479,6.58047 -5.142296,5.24821 -8.742483,8.7101 -3.600173,3.46188 -6.853952,1.11435 -10.452252,-0.40854 -1.61214,-0.6824 -4.284567,-3.61236 -4.284567,-3.61236 z"
       sodipodi:nodetypes="cssacczacc" />
    <path
       sodipodi:nodetypes="cssacczacc"
       d="m 109.75389,972.6528 c 0,0 -1.04063,3.06552 6.14551,8.8463 4.0309,3.24261 8.00937,4.4551 10.74059,3.09998 1.34402,-0.66685 4.16845,-4.24839 5.8805,-6.66707 1.4311,-2.02177 3.62215,-6.48847 3.62215,-6.48847 l -0.10828,-0.0562 c -4.25448,6.58046 -5.14229,5.24821 -8.74248,8.71009 -3.60017,3.46189 -6.85395,1.11436 -10.45225,-0.40854 -1.61214,-0.6824 -4.28457,-3.61235 -4.28457,-3.61235 z"
       class="fil1 str1"
       id="path3855"
       inkscape:connector-curvature="0"
       style="fill:#1f1a17;fill-rule:evenodd;stroke:#1f1a17;stroke-width:0.41305381;stroke-opacity:1" />
    <path
       style="fill:#1f1a17;fill-rule:evenodd;stroke:#1f1a17;stroke-width:0.41305381;stroke-opacity:1"
       inkscape:connector-curvature="0"
       id="path3857"
       class="fil1 str1"
       d="m 172.74115,971.47913 c 0,0 -1.04063,3.06551 6.14551,8.84629 4.0309,3.24261 8.00937,4.4551 10.74059,3.09998 1.34402,-0.66685 4.16845,-4.24839 5.8805,-6.66707 1.4311,-2.02176 3.62215,-6.48847 3.62215,-6.48847 l -0.10828,-0.0562 c -4.25448,6.58046 -5.14229,5.24821 -8.74248,8.71009 -3.60017,3.46189 -6.85395,1.11436 -10.45225,-0.40854 -1.61214,-0.6824 -4.28457,-3.61235 -4.28457,-3.61235 z"
       sodipodi:nodetypes="cssacczacc" />
    <path
       sodipodi:nodetypes="cssacczacc"
       d="m 28.37904,966.27522 c 0,0 -1.040626,-3.06551 6.145512,-8.8463 4.030903,-3.2426 8.009379,-4.4551 10.740594,-3.09997 1.344017,0.66684 4.168452,4.24838 5.880502,6.66707 1.431099,2.02176 3.622155,6.48846 3.622155,6.48846 l -0.108285,0.0562 c -4.25448,-6.58047 -5.142296,-5.24821 -8.742484,-8.7101 -3.600172,-3.46188 -6.853951,-1.11435 -10.452251,0.40855 -1.612141,0.68239 -4.284568,3.61235 -4.284568,3.61235 z"
       class="fil1 str1"
       id="path3859"
       inkscape:connector-curvature="0"
       style="fill:#1f1a17;fill-rule:evenodd;stroke:#1f1a17;stroke-width:0.41305381;stroke-opacity:1" />
    <path
       style="fill:#1f1a17;fill-rule:evenodd;stroke:#1f1a17;stroke-width:0.41305381;stroke-opacity:1"
       inkscape:connector-curvature="0"
       id="path3861"
       class="fil1 str1"
       d="m 93.32243,966.66645 c 0,0 -1.04063,-3.06552 6.145505,-8.8463 4.030905,-3.24261 8.009375,-4.4551 10.740595,-3.09998 1.34402,0.66685 4.16845,4.24839 5.8805,6.66707 1.4311,2.02177 3.62215,6.48847 3.62215,6.48847 l -0.10828,0.0562 c -4.25448,-6.58046 -5.14229,-5.24821 -8.74248,-8.71009 -3.60017,-3.46189 -6.85395,-1.11435 -10.45225,0.40854 -1.612144,0.6824 -4.284569,3.61235 -4.284569,3.61235 z"
       sodipodi:nodetypes="cssacczacc" />
    <path
       sodipodi:nodetypes="cssacczacc"
       d="m 155.91847,966.27522 c 0,0 -1.04063,-3.06551 6.1455,-8.8463 4.03091,-3.2426 8.00938,-4.4551 10.7406,-3.09997 1.34402,0.66684 4.16845,4.24838 5.8805,6.66707 1.4311,2.02176 3.62215,6.48846 3.62215,6.48846 l -0.10828,0.0562 c -4.25448,-6.58047 -5.14229,-5.24821 -8.74248,-8.7101 -3.60018,-3.46188 -6.85396,-1.11435 -10.45226,0.40855 -1.61214,0.68239 -4.28456,3.61235 -4.28456,3.61235 z"
       class="fil1 str1"
       id="path3863"
       inkscape:connector-curvature="0"
       style="fill:#1f1a17;fill-rule:evenodd;stroke:#1f1a17;stroke-width:0.41305381;stroke-opacity:1" />
    <path
       sodipodi:nodetypes="cssacczacc"
       d="m 219.26151,967.01988 c 0,0 -1.09748,-1.0699 3.57369,-7.02709 2.6202,-3.34158 5.42079,-5.65526 7.57939,-6.16037 1.06224,-0.24856 3.58371,-0.0125 5.05213,0.76914 1.52614,0.81235 3.76263,3.99834 3.76263,3.99834 l -0.0737,0.0744 c -3.84471,-1.42648 -4.7489,-2.72955 -7.77506,-2.89348 -3.02614,-0.16395 -5.17031,2.39971 -7.6573,4.70339 -1.11424,1.03214 -2.76721,3.63388 -2.76721,3.63388 z"
       class="fil1 str1"
       id="path3865"
       inkscape:connector-curvature="0"
       style="fill:#1f1a17;fill-rule:evenodd;stroke:#1f1a17;stroke-width:0.26491064;stroke-opacity:1" />
  </g>
</svg>
