<?xml version="1.0" encoding="UTF-8" standalone="no"?>
<!-- Generator: Adobe Illustrator 9.0, SVG Export Plug-In  -->

<svg
   xmlns:dc="http://purl.org/dc/elements/1.1/"
   xmlns:cc="http://creativecommons.org/ns#"
   xmlns:rdf="http://www.w3.org/1999/02/22-rdf-syntax-ns#"
   xmlns:svg="http://www.w3.org/2000/svg"
   xmlns="http://www.w3.org/2000/svg"
   xmlns:sodipodi="http://sodipodi.sourceforge.net/DTD/sodipodi-0.dtd"
   xmlns:inkscape="http://www.inkscape.org/namespaces/inkscape"
   width="256"
   height="256"
   viewBox="0 0 256 256"
   xml:space="preserve"
   id="svg2"
   sodipodi:version="0.32"
   inkscape:version="0.48.3.1 r9886"
   sodipodi:docname="view-sort-descending.svg"
   inkscape:output_extension="org.inkscape.output.svg.inkscape"
   version="1.0"><metadata
   id="metadata45"><rdf:RDF><cc:Work
       rdf:about=""><dc:format>image/svg+xml</dc:format><dc:type
         rdf:resource="http://purl.org/dc/dcmitype/StillImage" /><dc:title></dc:title></cc:Work></rdf:RDF></metadata><defs
   id="defs43"><inkscape:path-effect
   effect="skeletal"
   id="path-effect3846"
   is_visible="true"
   pattern="M 0,5 C 0,2.24 2.24,0 5,0 7.76,0 10,2.24 10,5 10,7.76 7.76,10 5,10 2.24,10 0,7.76 0,5 z"
   copytype="single_stretched"
   prop_scale="1"
   scale_y_rel="false"
   spacing="0"
   normal_offset="0"
   tang_offset="0"
   prop_units="false"
   vertical_pattern="false"
   fuse_tolerance="0" /><inkscape:path-effect
   effect="skeletal"
   id="path-effect3842"
   is_visible="true"
   pattern="M 0,5 C 0,2.24 2.24,0 5,0 7.76,0 10,2.24 10,5 10,7.76 7.76,10 5,10 2.24,10 0,7.76 0,5 z"
   copytype="single_stretched"
   prop_scale="1"
   scale_y_rel="false"
   spacing="0"
   normal_offset="0"
   tang_offset="0"
   prop_units="false"
   vertical_pattern="false"
   fuse_tolerance="0" /><inkscape:path-effect
   effect="skeletal"
   id="path-effect3834"
   is_visible="true"
   pattern="M 0,5 C 0,2.24 2.24,0 5,0 7.76,0 10,2.24 10,5 10,7.76 7.76,10 5,10 2.24,10 0,7.76 0,5 z"
   copytype="single_stretched"
   prop_scale="1"
   scale_y_rel="false"
   spacing="0"
   normal_offset="0"
   tang_offset="0"
   prop_units="false"
   vertical_pattern="false"
   fuse_tolerance="0" /><inkscape:path-effect
   effect="skeletal"
   id="path-effect3830"
   is_visible="true"
   pattern="M 0,5 C 0,2.24 2.24,0 5,0 7.76,0 10,2.24 10,5 10,7.76 7.76,10 5,10 2.24,10 0,7.76 0,5 z"
   copytype="single_stretched"
   prop_scale="1"
   scale_y_rel="false"
   spacing="0"
   normal_offset="0"
   tang_offset="0"
   prop_units="false"
   vertical_pattern="false"
   fuse_tolerance="0" /><inkscape:path-effect
   effect="skeletal"
   id="path-effect3826"
   is_visible="true"
   pattern="M 0,5 C 0,2.24 2.24,0 5,0 7.76,0 10,2.24 10,5 10,7.76 7.76,10 5,10 2.24,10 0,7.76 0,5 z"
   copytype="single_stretched"
   prop_scale="1"
   scale_y_rel="false"
   spacing="0"
   normal_offset="0"
   tang_offset="0"
   prop_units="false"
   vertical_pattern="false"
   fuse_tolerance="0" /><inkscape:path-effect
   effect="skeletal"
   id="path-effect3822"
   is_visible="true"
   pattern="M 0,5 C 0,2.24 2.24,0 5,0 7.76,0 10,2.24 10,5 10,7.76 7.76,10 5,10 2.24,10 0,7.76 0,5 z"
   copytype="single_stretched"
   prop_scale="1"
   scale_y_rel="false"
   spacing="0"
   normal_offset="0"
   tang_offset="0"
   prop_units="false"
   vertical_pattern="false"
   fuse_tolerance="0" /><inkscape:path-effect
   effect="skeletal"
   id="path-effect3818"
   is_visible="true"
   pattern="M 0,5 C 0,2.24 2.24,0 5,0 7.76,0 10,2.24 10,5 10,7.76 7.76,10 5,10 2.24,10 0,7.76 0,5 z"
   copytype="single_stretched"
   prop_scale="1"
   scale_y_rel="false"
   spacing="0"
   normal_offset="0"
   tang_offset="0"
   prop_units="false"
   vertical_pattern="false"
   fuse_tolerance="0" /><inkscape:path-effect
   effect="skeletal"
   id="path-effect3814"
   is_visible="true"
   pattern="M 0,5 C 0,2.24 2.24,0 5,0 7.76,0 10,2.24 10,5 10,7.76 7.76,10 5,10 2.24,10 0,7.76 0,5 z"
   copytype="single_stretched"
   prop_scale="1"
   scale_y_rel="false"
   spacing="0"
   normal_offset="0"
   tang_offset="0"
   prop_units="false"
   vertical_pattern="false"
   fuse_tolerance="0" />
		
	
			
			
			
			
			
			
			
			
		
				
				
			</defs><sodipodi:namedview
   inkscape:window-height="1032"
   inkscape:window-width="1918"
   inkscape:pageshadow="2"
   inkscape:pageopacity="0.0"
   guidetolerance="10.0"
   gridtolerance="10.0"
   objecttolerance="10.0"
   borderopacity="1.0"
   bordercolor="#666666"
   pagecolor="#ffffff"
   id="base"
   showgrid="true"
   inkscape:object-paths="false"
   inkscape:object-nodes="false"
   inkscape:zoom="1.7383042"
   inkscape:cx="69.361925"
   inkscape:cy="64.677966"
   inkscape:window-x="0"
   inkscape:window-y="25"
   inkscape:window-maximized="1"
   inkscape:current-layer="svg2"
   inkscape:snap-grids="false"
   inkscape:snap-page="false"
   showguides="true"
   inkscape:guide-bbox="true"
   inkscape:snap-to-guides="false"
   inkscape:snap-nodes="false"
   inkscape:snap-global="false"><inkscape:grid
     type="xygrid"
     id="grid2399"
     visible="true"
     enabled="false"
     empspacing="5"
     snapvisiblegridlinesonly="true" /><sodipodi:guide
     orientation="0,1"
     position="269.80318,-52.349871"
     id="guide3824" /></sodipodi:namedview>
	<path
   style="fill:#b8db7d;fill-opacity:1;fill-rule:nonzero;stroke:#737373;stroke-opacity:1;stroke-width:4;stroke-miterlimit:4;stroke-dasharray:none"
   inkscape:connector-curvature="0"
   id="path29"
   d="m 204.54357,39.017064 0,0 c 0,0 -7.24088,7.192427 -10.92952,5.46476 -3.20102,-1.499279 -3.95382,-7.133498 -2.42878,-10.322325 2.42156,-5.063424 9.70713,-6.040907 15.17989,-7.286347 3.55235,-0.808411 8.35341,-2.576113 10.92952,0 13.59615,13.59615 13.59615,44.08743 0,57.68358 -3.00547,3.005465 -9.74564,3.005465 -12.75111,0 -10.7338,-10.733803 0,-45.539668 0,-45.539668 z"
   sodipodi:nodetypes="aaaaaaaaa" /><path
   style="fill:#b8db7d;fill-opacity:1;fill-rule:nonzero;stroke:#737373;stroke-opacity:1;stroke-width:4;stroke-miterlimit:4;stroke-dasharray:none"
   inkscape:connector-curvature="0"
   id="path31"
   d="m 191.18527,216.31817 c 0,-2.02399 4.0716,0.30834 6.07196,0 3.98569,-0.61437 8.28052,-1.26401 11.53671,-3.64317 3.40062,-2.48469 7.28635,-10.32233 7.28635,-10.32233 l 0,0 c 0,0 -7.54147,5.16343 -11.53672,4.25037 -8.23288,-1.88151 -17.80083,-9.77291 -17.60867,-18.21586 0.22804,-10.01971 11.84766,-21.11256 21.85904,-20.64465 11.0312,0.51557 19.85843,14.0345 21.85904,24.89502 1.68228,9.13245 -3.11716,19.57501 -9.71513,26.10941 -5.50431,5.45128 -14.22817,6.55795 -21.85904,7.89354 -1.99368,0.34894 -4.64078,1.43117 -6.07195,0 -2.433,-2.433 2.433,-7.88933 0,-10.32233 -0.42935,-0.42935 -1.82159,0.6072 -1.82159,0 z m 15.78709,-38.86051 c 0,0 -8.02617,5.99283 -7.89355,10.32232 0.123,4.01561 3.96612,8.262 7.89355,9.10793 2.83294,0.61019 6.13569,-1.3393 7.89354,-3.64317 0.7468,-0.97877 0.87921,-2.44246 0.60719,-3.64317 -1.09176,-4.81905 -8.50073,-12.14391 -8.50073,-12.14391 z"
   sodipodi:nodetypes="aaaaaaaaaaaaaaaaaaaaa" /><path
   style="fill-rule:nonzero;stroke:#737373;fill:#b8db7d;fill-opacity:1;stroke-opacity:1;stroke-width:4;stroke-miterlimit:4;stroke-dasharray:none"
   d="m 220.93785,144.0619 c 0,6.07195 -4.85756,10.32232 -10.32232,10.32232 -6.07196,0 -10.32233,-4.85756 -10.32233,-10.32232 0,-6.07196 4.85757,-10.32233 10.32233,-10.32233 6.07195,0 10.32232,4.85757 10.32232,10.32233 z"
   id="path33"
   inkscape:connector-curvature="0" /><path
   style="fill-rule:nonzero;stroke:#737373;fill:#b8db7d;fill-opacity:1;stroke-opacity:1;stroke-width:4;stroke-miterlimit:4;stroke-dasharray:none"
   d="m 220.93785,111.88053 c 0,6.07196 -4.85756,10.32233 -10.32232,10.32233 -6.07196,0 -10.32233,-4.85757 -10.32233,-10.32233 0,-6.07195 4.85757,-10.32232 10.32233,-10.32232 6.07195,0 10.32232,4.85756 10.32232,10.32232 z"
   id="path35"
   inkscape:connector-curvature="0" />
	<g
   id="crop_x0020_marks"
   style="fill-rule:nonzero;stroke:#000000;stroke-miterlimit:4"
   transform="scale(5.3333333,5.3333333)">
		<path
   style="fill:none;stroke:none"
   d="M 48,48 0,48 0,0 48,0 48,48 z"
   id="path40"
   inkscape:connector-curvature="0" />
	</g>
<path
   sodipodi:nodetypes="accaccacccccssccccsca"
   inkscape:connector-curvature="0"
   id="path3011"
   d="m 157.06732,171.74416 c -0.22956,4.40666 -3.51033,7.30827 -7.34387,11.01404 -14.398,14.13686 -34.12788,32.55094 -48.39141,45.96003 0,0 -5.77322,5.07423 -9.30703,5.07652 -3.72638,0.002 -9.82108,-5.34015 -9.82108,-5.34015 C 66.63248,213.28918 50.61009,197.22648 34.867,181.67431 c 0,0 -6.54376,-7.07451 -6.47112,-11.46117 0.0677,-4.0895 2.68251,-6.98591 6.38331,-10.47907 3.51249,-2.87325 8.06232,-4.80164 11.84867,-4.82491 4.25064,0.038 8.45905,1.76996 11.43897,4.70774 l 17.75128,17.57564 0.5273,-127.764019 c -0.17604,-6.69924 4.57526,-13.24538 11.14063,-15.34913 3.28268,-1.05189 6.91429,-1.05227 10.19719,-9.9e-4 3.28298,1.0512 6.19939,3.14836 8.18913,5.88863 2.25567,2.75743 3.51582,6.26489 3.51511,9.78374 l -0.52726,127.763959 18.13212,-17.22405 c 3.42466,-3.41617 8.51225,-5.19459 13.39841,-4.68287 4.88623,0.51164 8.2608,3.90403 12.05689,7.34855 2.9342,3.01339 4.79183,5.48295 4.61969,8.7878 z"
   style="font-size:medium;font-style:normal;font-variant:normal;font-weight:normal;font-stretch:normal;text-indent:0;text-align:start;text-decoration:none;line-height:normal;letter-spacing:normal;word-spacing:normal;text-transform:none;direction:ltr;block-progression:tb;writing-mode:lr-tb;text-anchor:start;baseline-shift:baseline;color:#000000;fill:#b8db7d;fill-opacity:1;stroke:#737373;stroke-width:4;stroke-miterlimit:4;stroke-dasharray:none;marker:none;visibility:visible;display:inline;overflow:visible;enable-background:new;font-family:Sans;-inkscape-font-specification:Sans" /><path
   sodipodi:nodetypes="ccacccacc"
   d="m 69.20305,215.19408 c 11.39954,15.69676 9.36625,16.78535 20.55151,19.33853 6.48577,1.14514 8.43092,-1.84645 12.0795,-4.0117 4.86729,-2.88854 12.41752,-11.58069 12.41752,-11.58069 l 6.94279,-11.52105 c -4.98959,6.77639 -22.25168,20.07362 -34.54358,17.93549 -9.1803,-4.44764 -9.94974,-9.26711 -15.48759,-13.17479 -2.23173,-1.57483 -7.09438,-4.10077 -7.09438,-4.10077 z"
   class="fil1 str1"
   id="path3013"
   inkscape:connector-curvature="0"
   style="fill:#1f1a17;fill-rule:evenodd;stroke:none" /><path
   style="fill:#000000;fill-rule:evenodd;stroke:none"
   d="m 201.21214,215.64631 c -0.0274,0.0662 -0.0581,0.13058 -0.0917,0.19338 0,0 0,0 0,0 -0.0308,0.0575 -0.0642,0.11357 -0.1,0.16831 0,0 0,0 0,0 -0.0709,0.10845 -0.15129,0.2116 -0.2409,0.3095 0,0 0,0 0,0 0,0 0,0 0,0 -0.17479,0.1921 -0.38269,0.365 -0.62201,0.5192 0,0 0,0 0,0 0,0 0,0 0,0 -0.45522,0.29336 -1.0171,0.52165 -1.66269,0.69582 0,0 0,0 0,0 0,0 0,0 0,0 -1.11872,0.29931 -2.45675,0.42631 -3.76697,0.57811 0,0 0,0 0,0 -0.55383,0.1171 -0.98386,0.16661 -1.17725,0.19514 -0.19339,0.0285 -0.14859,0.036 0.22692,0.11252 0,0 0,0 0,0 0.67183,-0.11903 1.28719,-0.72343 1.98174,-1.91382 0.17204,-0.92387 0.30411,-1.46121 0.2881,-1.60856 -0.006,-0.052 -0.0298,-0.0554 -0.0761,-0.0132 0.83272,2.93823 1.15159,5.73916 0.96918,7.95344 0,0 0,0 0,0 -0.0965,1.16984 -0.33318,2.17357 -0.70672,2.94413 0,0 0,0 0,0 -0.19003,0.39203 -0.41561,0.7233 -0.67618,0.98522 0,0 0,0 0,0 0,0 0,0 0,0 -0.13142,0.13186 -0.27173,0.2461 -0.42085,0.34164 0,0 0,0 0,0 0,0 0,0 0,0 -0.46631,0.19836 -0.49528,0.23359 -0.49643,0.23698 0,0 0,0 0,0 0,0 0,0 0,0 0,0 0,0 0,0 -7e-5,2.3e-4 -9e-5,1.8e-4 -9e-5,1.8e-4 0,0 2e-5,5e-5 -1.8e-4,-9e-5 0,0 0,0 0,0 0,0 0,0 0,0 0,0 0,0 0,0 -0.003,-0.002 -0.0471,-0.0134 -0.54056,0.10186 0,0 0,0 0,0 0,0 0,0 0,0 -0.17684,0.0106 -0.35775,3e-4 -0.54189,-0.0299 0,0 0,0 0,0 0,0 0,0 0,0 -0.36516,-0.0596 -0.74307,-0.19748 -1.12739,-0.4066 0,0 0,0 0,0 -0.75542,-0.41104 -1.53616,-1.09866 -2.29432,-2.01028 0,0 0,0 0,0 -1.43449,-1.7244 -2.79218,-4.25814 -3.73673,-7.24563 -0.12987,-0.23664 -0.22949,-0.52753 -0.29347,-0.87148 -0.18109,-0.97359 -0.0696,-2.35064 0.39941,-4.02745 1.0102,-1.99075 2.34567,-3.16474 3.79425,-3.57928 0,0 0,0 0,0 1.56453,-0.37576 2.84064,-0.44179 3.84221,-0.33789 1.00157,0.10391 1.72993,0.37688 2.24415,0.70304 0,0 0,0 0,0 1.84446,0.76926 3.11166,1.77135 3.91161,2.74223 0,0 0,0 0,0 0,0 0,0 0,0 0.47067,0.56488 0.79149,1.12927 0.95217,1.66366 0,0 0,0 0,0 0,0 0,0 0,0 0.0845,0.28091 0.12656,0.55447 0.12293,0.81633 0,0 0,0 0,0 0,0 0,0 0,0 -0.002,0.13351 -0.0158,0.26423 -0.0411,0.3916 0,0 0,0 0,0 -0.0128,0.0643 -0.0285,0.12771 -0.0473,0.19026 0,0 0,0 0,0 -0.0205,0.0683 -0.0445,0.1355 -0.0719,0.20165 z"
   id="path3812"
   inkscape:path-effect="#path-effect3814"
   inkscape:original-d="m 201.2122,215.64634 c 0,0 -11.71015,-4.94031 -10.02693,0.67183 1.68322,5.61214 3.45499,11.02612 3.45499,11.02612"
   inkscape:connector-curvature="0" /><path
   style="fill:#000000;fill-rule:evenodd;stroke:none"
   d="m 199.04456,63.858754 c 1.94964,-0.312568 4.36604,3.971912 6.21593,10.395381 0.80802,2.219736 1.50716,4.517705 2.46972,6.492627 0.10061,0.186035 0.18705,0.355919 0.26163,0.50635 0.20747,0.41851 0.31811,0.674264 0.39956,0.730991 0.0998,-0.210776 -0.542,-0.282551 -1.86828,-0.576549 0,0 0,0 0,0 0.77902,0.138995 1.9194,-0.05925 3.24377,-0.227949 0,0 0,0 0,0 1.67687,-0.246606 3.29839,-0.554197 4.77922,-0.774292 0,0 0,0 0,0 1.7351,-0.258774 3.23482,-0.399908 4.40548,-0.336263 0,0 0,0 0,0 0.63294,0.03443 1.16642,0.129323 1.58867,0.292684 0,0 0,0 0,0 0,0 0,0 0,0 0.21603,0.08497 0.4027,0.188001 0.55847,0.310019 0,0 0,0 0,0 0,1e-6 0,1e-6 0,1e-6 0.16507,0.224089 0.26041,0.336643 0.31418,0.392022 0.0529,0.05447 0.0658,0.05354 0.0672,0.05315 0,0 0,0 0,0 1e-4,-2.7e-5 8e-5,-1.5e-5 8e-5,-1.5e-5 0,0 2e-5,-1.2e-5 -6e-5,5.5e-5 0,0 0,0 0,0 -0.001,9.53e-4 -0.009,0.01113 0.006,0.0856 0.015,0.07571 0.0534,0.218059 0.14377,0.480998 0,0 0,10e-7 10e-6,10e-7 0,0 0,0 0,0 0.008,0.198633 -0.0213,0.413526 -0.0877,0.642473 0,0 0,0 0,0 0,0 0,0 0,0 -0.12581,0.442812 -0.38871,0.938363 -0.77808,1.46989 0,0 0,0 0,0 -0.71961,0.982787 -1.88052,2.097489 -3.45144,3.221756 0,0 0,0 0,0 -1.32987,0.955733 -2.98342,1.934034 -5.0053,2.77789 0,0 0,0 0,0 -1.44764,0.648547 -3.33646,1.246622 -5.78392,1.385617 0,0 0,0 0,0 -2.70733,-0.293998 -4.61864,-1.234376 -5.48149,-2.501892 -0.88702,-1.00644 -1.54647,-2.00103 -2.00737,-2.907431 -0.16566,-0.325802 -0.30442,-0.637255 -0.41957,-0.931697 -1.39885,-3.283624 -1.94846,-6.346364 -2.18517,-8.916331 -0.28151,-6.871068 0.66541,-11.752523 2.61504,-12.065091 z"
   id="path3816"
   inkscape:path-effect="#path-effect3818"
   inkscape:original-d="m 199.04456,63.858717 c 0,0 2.3011,22.435658 7.47856,22.435658 5.17746,0 14.9571,-5.177459 14.9571,-5.177459"
   inkscape:connector-curvature="0" /><path
   style="fill:#000000;fill-rule:evenodd;stroke:none"
   d="m 201.92102,25.890641 c -0.0386,-0.0931 -0.0681,-0.189359 -0.0887,-0.288451 -0.0192,-0.09301 -0.0304,-0.188603 -0.0335,-0.286609 -0.006,-0.193632 0.0193,-0.396759 0.0749,-0.607231 0,0 0,0 0,0 0,0 0,0 0,0 0.11059,-0.410986 0.34191,-0.852646 0.68383,-1.307783 0,0 0,0 0,0 0.63941,-0.851704 1.68343,-1.762216 3.10795,-2.597211 0,0 0,0 0,0 1.08743,-0.693236 2.47692,-1.365129 4.23269,-1.797348 1.75578,-0.432219 3.88508,-0.620339 6.32746,-0.247114 1.56449,0.453929 2.90822,1.095509 3.98379,1.832925 1.16126,0.796156 1.968,1.670243 2.47499,2.491277 1.68904,2.161679 2.71392,4.301089 3.34609,6.157631 0.61786,2.30754 0.9027,4.315752 0.82503,5.828244 -0.0777,1.512493 -0.51767,2.529655 -1.3307,2.894664 -0.0177,0.0078 -0.0178,0.0078 -0.0178,0.0078 0,0 -1e-5,2.4e-5 -0.0178,0.0077 -0.82235,0.345544 -1.91409,0.0017 -3.12598,-0.854289 -1.21189,-0.85602 -2.54376,-2.223859 -3.86516,-3.965936 -1.10303,-1.226148 -2.16741,-2.531505 -3.28239,-3.607572 -0.54478,-0.393412 -0.90698,-0.763189 -1.08252,-0.985709 -0.16259,-0.206102 -0.16118,-0.27527 -0.0546,-0.14531 -0.80529,-0.34848 -1.84276,-0.427239 -2.98456,-0.471946 -1.14179,-0.04471 -2.38012,-0.05546 -3.53926,-0.142547 0,0 0,0 0,0 -1.38621,-0.07662 -2.60403,-0.21024 -3.56331,-0.478171 0,0 0,0 0,0 -0.51255,-0.143122 -0.94614,-0.325803 -1.29263,-0.554146 0,0 0,0 0,0 0,0 0,-10e-7 0,-10e-7 -0.179,-0.116732 -0.33336,-0.246168 -0.46208,-0.388995 -0.0651,-0.07229 -0.12369,-0.148033 -0.17526,-0.227402 -0.0549,-0.08465 -0.10202,-0.173324 -0.14061,-0.266427 z"
   id="path3820"
   inkscape:path-effect="#path-effect3822"
   inkscape:original-d="m 201.92093,25.890679 c 0,0 8.05383,-3.45164 13.23129,-2.301094 5.17746,1.150547 10.35492,14.381833 10.35492,14.381833"
   inkscape:connector-curvature="0" /><path
   style="fill:#000000;fill-rule:evenodd;stroke:none"
   d="m 63.280063,166.14908 c 0.461192,-0.39531 1.23319,-0.40272 2.227029,0.0124 0.993839,0.41515 2.190455,1.27259 3.422626,2.31941 0,0 0,0 1e-6,0 1.307297,1.11892 2.696895,2.53704 4.163262,3.93983 1.139677,0.96623 1.744723,1.78485 1.864946,1.48834 -0.184871,-0.44343 -1.112469,-0.40825 -3.029071,-0.0519 -3e-6,0 -5e-6,0 -8e-6,0 -1.453705,1.15166 -2.142994,1.62296 -1.806558,1.66767 0.270901,-0.93753 0.472349,-2.03888 0.700556,-3.30371 0.127363,-0.70591 0.261008,-1.44501 0.417321,-2.20651 0.591793,-3.00646 1.22018,-5.85729 1.909566,-8.38994 0,0 0,0 0,0 0.827583,-3.03925 1.72798,-5.59447 2.647737,-7.41662 0,0 0,0 0,0 0.496675,-0.98389 0.998303,-1.75289 1.494508,-2.26942 0,0 0,0 0,0 0.254899,-0.26535 0.508318,-0.46374 0.758814,-0.59031 0,0 0,0 0,0 0,0 0,0 0,0 0.12669,-0.0639 0.252634,-0.1094 0.377641,-0.13592 0,0 0,0 0,0 10e-7,0 10e-7,0 10e-7,0 0.184445,1.7e-4 0.280854,-0.005 0.330691,-0.01 0,0 10e-7,0 10e-7,0 0.04887,-0.005 0.05299,-0.0101 0.0533,-0.0108 0,0 0,0 0,0 0,0 0,0 0,0 0,0 0,0 0,0 0,0 0,0 0,0 0,0 0,0 0,0 0,0 0,0 0,0 0,0 0,0 0,0 0,0 0,0 0,0 0,0 0,0 0,0 0,0 0,0 0,0 0,0 0,0 0,0 0,0 0,0 0,0 0,0 0,0 0,0 0,0 0,0 0,0 0,0 0,0 0,0 0,0 0,0 0,0 0,0 0,0 0,0 0,0 0,0 0,0 2.3e-5,-5e-5 2.2e-5,-4e-5 2.2e-5,-4e-5 0,0 10e-7,-1e-5 1.3e-5,4e-5 0,0 0,0 0,0 0,0 0,0 0,0 0,0 0,0 0,0 0,0 0,0 0,0 0,0 0,0 0,0 0,0 0,0 0,0 0,0 0,0 0,0 0,0 0,0 0,0 0,0 0,0 0,0 0,0 0,0 0,0 0,0 0,0 0,0 0,0 0,0 0,0 0,0 0,0 0,0 0,0 0,0 0,0 0,0 0,0 0,0 0,0 0,0 0,0 0,0 0,0 0,0 0,0 0,0 0,0 1.52e-4,7.4e-4 0.003,0.007 0.04961,0.0223 0,0 0,0 0,0 0.04751,0.0159 0.140488,0.0418 0.320414,0.0823 0,0 0,0 0,0 0,0 10e-7,0 10e-7,0 0.11602,0.0537 0.228668,0.12654 0.337833,0.21779 0,0 0,0 0,0 0,0 0,0 0,0 0.21585,0.18012 0.418095,0.43213 0.605867,0.75033 0,0 0,0 0,0 0.36553,0.61943 0.67612,1.49094 0.924711,2.57395 0,0 0,0 0,0 0.460369,2.00521 0.709587,4.74002 0.687911,7.95278 0,0 0,0 0,0 -0.01702,2.66774 -0.21766,5.68592 -0.695543,8.90704 -0.09965,0.7287 -0.21646,1.50712 -0.369963,2.3311 -0.275045,1.47639 -0.660265,3.03615 -1.22453,4.60412 0.0173,1.00211 -1.154206,2.47176 -3.503164,4.03168 -4e-6,0 -8e-6,0 -1.1e-5,0 -2.680332,0.70464 -4.503074,0.4939 -5.413306,-0.33054 -2.591106,-1.72064 -3.732172,-3.43169 -4.26531,-4.62393 -1.268693,-2.12632 -2.064344,-4.02526 -2.614177,-5.62409 0,0 0,0 0,0 -0.570378,-1.59106 -0.822572,-2.84818 -0.894271,-3.83237 -0.0717,-0.9842 0.06034,-1.71004 0.521534,-2.10535 z"
   id="path3824"
   inkscape:path-effect="#path-effect3826"
   inkscape:original-d="m 63.280063,166.14908 c 3.45164,4.02691 9.779647,16.10765 11.505466,10.93019 1.72582,-5.17746 4.026914,-25.8873 4.026914,-25.8873"
   inkscape:connector-curvature="0" /><path
   style="fill:#000000;fill-rule:evenodd;stroke:none"
   d="m 90.893243,32.110412 c 0.326739,-1.306242 3.271395,-1.829673 7.866708,-1.604455 10e-7,0 10e-7,0 2e-6,0 1.809737,0.213568 3.962097,0.664514 6.370757,1.693308 1.63494,0.525408 3.70361,1.835323 5.5381,4.692792 0.77244,1.570358 1.14819,2.926293 1.28576,3.863785 0.30673,1.494671 0.49157,2.973533 0.60881,4.390744 0.0418,0.49331 0.0776,0.989105 0.10755,1.486823 0.19406,3.225746 0.13113,6.260283 -0.0403,9.016243 -0.24445,3.997032 -0.73531,7.473017 -1.32891,10.21204 -0.33818,1.564592 -0.71198,2.867479 -1.10467,3.89615 -0.30635,0.83923 -0.63931,1.434556 -0.97378,1.868983 -0.33448,0.434428 -0.682,0.703972 -1.07188,0.752706 -0.38988,0.04873 -0.80271,-0.139668 -1.20471,-0.576197 -0.402,-0.43653 -0.78283,-1.127616 -1.13084,-1.934632 -0.4454,-1.05441 -0.84467,-2.413578 -1.1923,-3.986895 -0.61018,-2.764559 -1.05961,-6.256419 -1.38284,-10.138255 -0.22612,-2.710722 -0.37346,-5.585596 -0.55026,-8.508112 -0.0273,-0.450931 -0.055,-0.897358 -0.0836,-1.339112 -0.086,-1.282265 -0.15979,-2.445328 -0.28781,-3.492296 -0.16909,-0.85534 -0.1305,-1.281827 -0.13669,-1.268727 0.39219,-0.02715 -0.3401,-0.46364 -1.24566,-1.341147 -1.252939,-0.993218 -2.717811,-1.817586 -4.076874,-2.619094 0,0 -10e-7,0 -10e-7,0 -3.968422,-1.916885 -6.293271,-3.75841 -5.966532,-5.064652 z"
   id="path3828"
   inkscape:path-effect="#path-effect3830"
   inkscape:original-d="m 90.893182,32.110401 c 0,0 13.231288,2.30109 15.532378,6.90328 2.30109,4.60218 1.15055,28.76366 1.72582,33.36585"
   inkscape:connector-curvature="0" /><path
   style="fill:#000000;fill-rule:evenodd;stroke:none"
   d="m 201.92093,182.94029 c -0.79461,-0.59596 -1.22283,-1.5757 -1.28582,-2.83724 -0.063,-1.26153 0.23841,-2.86616 1.54835,-4.81024 0.31178,-0.87612 1.5684,-1.98974 4.34319,-2.85668 3.66344,0.21811 6.14799,1.57895 6.75378,3.61087 0.005,0.0183 0.0108,0.0367 0.0159,0.055 0.37739,0.79463 0.77883,1.62682 1.14092,2.49854 0.36209,0.87172 0.68229,1.78007 0.89743,2.66708 0.60026,2.17584 0.41771,4.10219 -0.72925,5.10002 0,0 0,0 0,0 0,0 0,0 0,0 0,0 -10e-6,0 -10e-6,0 0,0 0,0 0,0 0,0 0,1e-5 0,1e-5 0,0 0,0 0,0 0,0 0,0 0,0 0,0 -1e-5,0 -1e-5,0 0,0 0,0 0,0 -0.0284,0.0242 -0.0285,0.0242 -0.0285,0.0242 0,0 -2e-5,9e-5 -0.0287,0.024 0,0 0,0 0,0 0,0 -1e-5,0 -1e-5,0 0,10e-6 0,10e-6 0,10e-6 0,0 0,0 0,0 0,0 0,0 0,0 0,0 0,0 0,0 0,0 -1e-5,0 -1e-5,0 0,0 0,0 0,1e-5 0,0 0,0 0,0 -1.175,0.96344 -3.0921,0.76304 -5.20748,-0.39082 -0.83864,-0.47743 -1.719,-1.14348 -2.57937,-2.04185 -0.86038,-0.89838 -1.70134,-2.03301 -2.40933,-3.40915 -4.2e-4,0.007 -7.3e-4,0.0145 -9.4e-4,0.0216 -0.0236,0.79652 1.26851,1.10949 3.64258,1.52296 1.19905,-0.62819 1.267,-0.58242 0.56796,-0.44772 -1.05025,0.41612 -2.29924,1.19265 -3.51342,1.5569 -1.21417,0.36425 -2.33272,0.30832 -3.12733,-0.28764 z"
   id="path3832"
   inkscape:path-effect="#path-effect3834"
   inkscape:original-d="m 201.92093,182.94029 c 1.72582,-2.30109 5.17746,-8.05383 6.90328,-4.60219 1.72582,3.45164 5.75273,8.05383 5.75273,8.05383"
   inkscape:connector-curvature="0" /><path
   style="fill:#000000;fill-rule:evenodd;stroke:none"
   d="m 200.77036,148.42383 c -1.65458,0.26585 -3.52195,-2.01391 -5.04816,-5.85732 -0.45571,-1.65877 -0.66453,-3.89343 0.0237,-6.67625 0.62109,-2.39567 2.49314,-4.6935 5.67055,-5.97622 0.0722,-0.0292 0.145,-0.0577 0.21831,-0.0857 2.2919,-0.63947 4.45123,-0.82724 6.34581,-0.75852 1.89459,0.0687 3.52924,0.38929 4.88348,0.80512 3.32221,1.13871 5.2896,2.63162 5.16678,4.14268 0,0 0,0 0,0 -0.002,0.0245 -0.002,0.0245 -0.002,0.0245 0,0 2e-5,3e-5 -0.002,0.0245 0,0 0,0 0,0 -0.16708,1.50807 -2.33577,2.72207 -5.50821,3.42283 -1.26438,0.35421 -2.65456,0.64307 -4.03005,0.9279 -1.37549,0.28483 -2.73007,0.56613 -3.97969,0.98911 0.012,-0.01 0.0237,-0.019 0.0352,-0.0281 0.50681,-0.40037 0.52826,-0.32232 0.28454,-0.27416 -0.45459,0.44667 -0.69189,1.47851 -1.02398,2.63912 -0.30701,3.74445 -1.37903,6.41469 -3.03361,6.68055 z"
   id="path3840"
   inkscape:path-effect="#path-effect3842"
   inkscape:original-d="m 200.77038,148.42389 c 0,0 -3.45164,-12.08074 2.3011,-13.80656 5.75273,-1.72582 14.9571,-0.57527 14.9571,-0.57527"
   inkscape:connector-curvature="0" /><path
   style="fill:#000000;fill-rule:evenodd;stroke:none"
   d="m 199.04454,114.48266 c -0.10324,0.0205 -0.20765,0.0326 -0.31294,0.0358 -0.0977,0.003 -0.19622,-0.002 -0.29527,-0.0151 -0.19478,-0.0257 -0.39179,-0.0833 -0.5878,-0.17075 0,0 0,0 0,0 0,0 0,0 0,0 -0.37929,-0.17539 -0.75877,-0.47953 -1.10853,-0.90071 0,0 0,0 0,0 -0.64601,-0.77523 -1.21192,-1.99841 -1.38301,-3.6513 0,0 0,0 0,0 -0.0633,-1.61963 0.34086,-3.56759 1.44453,-5.45363 1.10367,-1.88604 2.91868,-3.69891 5.38799,-4.910163 0.22377,-0.04285 0.44958,-0.08411 0.67722,-0.123696 3.79271,-0.659561 7.35474,-0.726474 9.88881,-0.273459 2.53407,0.453015 4.04012,1.425968 4.12103,2.776618 0.002,0.0304 0.001,0.0304 0.001,0.0304 0,0 3e-5,5e-5 0.001,0.0304 0.039,1.35793 -1.29258,2.8244 -3.31946,4.07064 -2.02687,1.24623 -4.7491,2.27225 -7.89153,2.81882 -0.18861,0.0328 -0.37673,0.0635 -0.56429,0.0922 -0.38883,0.0879 -0.8029,0.38142 -1.23331,0.76019 -0.43041,0.37877 -0.86734,0.84653 -1.27765,1.3591 0,0 0,0 0,0 -0.55597,0.71238 -1.05938,1.48155 -1.58793,2.11923 0,0 0,0 0,0 -0.28594,0.34644 -0.5803,0.64292 -0.8913,0.88227 0,0 0,0 0,0 0,0 0,0 0,0 -0.16061,0.12744 -0.32656,0.23491 -0.49888,0.32209 -0.0876,0.0443 -0.17695,0.0833 -0.2682,0.11629 -0.0984,0.0354 -0.19895,0.0641 -0.30218,0.0846 z"
   id="path3844"
   inkscape:path-effect="#path-effect3846"
   inkscape:original-d="m 199.04456,114.48277 c 0,0 -1.72582,-7.47856 4.60219,-10.35492 6.32801,-2.87637 13.23129,-2.3011 13.23129,-2.3011"
   inkscape:connector-curvature="0" /></svg>