<?xml version="1.0" encoding="UTF-8" standalone="no"?>
<!-- Created with Inkscape (http://www.inkscape.org/) -->

<svg
   xmlns:dc="http://purl.org/dc/elements/1.1/"
   xmlns:cc="http://creativecommons.org/ns#"
   xmlns:rdf="http://www.w3.org/1999/02/22-rdf-syntax-ns#"
   xmlns:svg="http://www.w3.org/2000/svg"
   xmlns="http://www.w3.org/2000/svg"
   xmlns:sodipodi="http://sodipodi.sourceforge.net/DTD/sodipodi-0.dtd"
   xmlns:inkscape="http://www.inkscape.org/namespaces/inkscape"
   width="256"
   height="256"
   id="svg2"
   version="1.1"
   inkscape:version="0.48.3.1 r9886"
   sodipodi:docname="gtk-refresh.svg">
  <defs
     id="defs4" />
  <sodipodi:namedview
     id="base"
     pagecolor="#ffffff"
     bordercolor="#666666"
     borderopacity="1.0"
     inkscape:pageopacity="0.0"
     inkscape:pageshadow="2"
     inkscape:zoom="2.5686441"
     inkscape:cx="5.7538771"
     inkscape:cy="111.42857"
     inkscape:document-units="px"
     inkscape:current-layer="layer1"
     showgrid="false"
     inkscape:window-width="1918"
     inkscape:window-height="1032"
     inkscape:window-x="0"
     inkscape:window-y="25"
     inkscape:window-maximized="1" />
  <metadata
     id="metadata7">
    <rdf:RDF>
      <cc:Work
         rdf:about="">
        <dc:format>image/svg+xml</dc:format>
        <dc:type
           rdf:resource="http://purl.org/dc/dcmitype/StillImage" />
        <dc:title />
      </cc:Work>
    </rdf:RDF>
  </metadata>
  <g
     inkscape:label="Capa 1"
     inkscape:groupmode="layer"
     id="layer1"
     transform="translate(0,-796.36218)">
    <g
       id="layer9"
       transform="matrix(19.60332,0,0,19.60332,-4743.7434,-11521.788)"
       inkscape:label="status"
       style="fill:#b8db7d;fill-opacity:1;display:inline" />
    <g
       style="fill:#b8db7d;fill-opacity:1"
       id="layer10"
       transform="matrix(19.60332,0,0,19.60332,-4743.7434,-11521.788)"
       inkscape:label="devices" />
    <g
       style="fill:#b8db7d;fill-opacity:1"
       id="layer11"
       transform="matrix(19.60332,0,0,19.60332,-4743.7434,-11521.788)"
       inkscape:label="apps" />
    <g
       style="fill:#b8db7d;fill-opacity:1"
       id="layer13"
       transform="matrix(19.60332,0,0,19.60332,-4743.7434,-11521.788)"
       inkscape:label="places" />
    <g
       style="fill:#b8db7d;fill-opacity:1"
       id="layer14"
       transform="matrix(19.60332,0,0,19.60332,-4743.7434,-11521.788)"
       inkscape:label="mimetypes" />
    <g
       id="layer15"
       transform="matrix(19.60332,0,0,19.60332,-4743.7434,-11521.788)"
       inkscape:label="emblems"
       style="fill:#b8db7d;fill-opacity:1;display:inline" />
    <g
       id="g71291"
       transform="matrix(19.60332,0,0,19.60332,-4743.7434,-11521.788)"
       inkscape:label="emotes"
       style="fill:#b8db7d;fill-opacity:1;display:inline" />
    <g
       id="g4953"
       transform="matrix(19.60332,0,0,19.60332,-4743.7434,-11521.788)"
       inkscape:label="categories"
       style="fill:#b8db7d;fill-opacity:1;display:inline" />
    <path
       inkscape:connector-curvature="0"
       style="font-size:medium;font-style:normal;font-variant:normal;font-weight:normal;font-stretch:normal;text-indent:0;text-align:start;text-decoration:none;line-height:normal;letter-spacing:normal;word-spacing:normal;text-transform:none;direction:ltr;block-progression:tb;writing-mode:lr-tb;text-anchor:start;baseline-shift:baseline;color:#bebebe;fill:#b8db7d;fill-opacity:1;stroke:#737373;stroke-width:3.88314152;stroke-miterlimit:4;stroke-opacity:1;stroke-dasharray:none;marker:none;visibility:visible;display:inline;overflow:visible;enable-background:accumulate;font-family:Sans;-inkscape-font-specification:Sans"
       d="m 230.57102,811.53279 c -0.8046,0.14653 -1.59975,0.345 -2.37883,0.59375 -4.25481,0.95288 -8.15442,3.41927 -10.83875,6.85522 -2.68434,3.43594 -4.13388,7.81646 -4.02892,12.1754 l 0,32.11416 c -7.27445,-10.99893 -16.16212,-20.5955 -26.7618,-28.54592 -21.99235,-16.49517 -48.18533,-23.83147 -73.74363,-22.59886 -3.65122,0.17128 -7.08377,0.67179 -10.70473,1.18942 -28.968019,4.13745 -56.676025,19.46908 -75.527754,44.603 -37.703265,50.26823 -27.07428597,122.27266 23.193563,159.97614 50.268801,37.7038 122.272461,27.0743 159.976121,-23.19359 2.33441,-3.26708 3.60277,-7.28324 3.56823,-11.29847 0.077,-0.98918 0.077,-1.98436 0,-2.97354 0,0 -2.81652,-7.88284 -5.66904,-10.76597 -2.60964,-2.63762 -9.79333,-5.29111 -9.79333,-5.29111 l -1.78317,0 c -0.59396,-0.0277 -1.18921,-0.0277 -1.78317,0 -5.97854,-0.0277 -11.89737,2.93177 -15.46238,7.73119 C 153.47229,1005.9161 106.1932,1012.3319 72.380929,986.97128 38.568472,961.61031 32.15211,914.33161 57.51326,880.51877 c 25.361151,-33.81245 72.63986,-40.22863 106.45251,-14.86767 8.17289,6.13014 14.64482,13.94849 19.62532,22.59886 l -27.35651,0 c -4.98207,4.9e-4 -9.93327,2.05164 -13.45612,5.57449 -3.52286,3.52285 -5.574,8.47405 -5.5745,13.45612 -0.15206,1.38209 -0.15206,2.78087 0,4.16296 0,0 1.26866,7.06584 4.91319,10.71036 3.64451,3.64451 11.14389,4.1573 11.14389,4.1573 l 2.97354,0 76.12246,0 c 0,0 10.38776,-0.0497 14.87332,-4.53525 4.48555,-4.48555 4.1573,-14.49537 4.1573,-14.49537 l 0,-76.12246 c 0.11166,-1.18592 0.11166,-2.38232 0,-3.56824 0,0 -0.51279,-6.90468 -4.1573,-10.54919 -3.64452,-3.64452 -11.30508,-4.91319 -11.30508,-4.91319 -1.74402,-0.44984 -3.55214,-0.65041 -5.35236,-0.59375 z"
       id="path4597"
       sodipodi:nodetypes="ccscccccsscccaccccsssccscczcccsccczccc" />
    <path
       sodipodi:nodetypes="ccscacc"
       d="m 213.92418,986.73992 c -4.79049,-15.43745 0.31632,-16.96552 -15.07609,-23.90359 -5.43463,-2.53815 -13.2318,0.96836 -17.33631,4.44121 -4.2636,3.60755 -8.65566,11.46217 -8.65566,11.46217 10.17247,-8.57486 13.40417,-13.10194 21.8354,-12.79891 6.4353,0.2313 7.85736,-0.52317 15.92197,10.94031 z"
       class="fil1 str1"
       id="path3787"
       inkscape:connector-curvature="0"
       style="fill:#1f1a17;fill-rule:evenodd;stroke:#000000;stroke-width:1.28795218;stroke-opacity:1" />
    <path
       style="fill:#1f1a17;fill-rule:evenodd;stroke:#000000;stroke-width:1.28795218;stroke-opacity:1"
       inkscape:connector-curvature="0"
       id="path3789"
       class="fil1 str1"
       d="m 215.54163,925.70916 c 14.27233,4.80401 22.23386,3.03659 32.59028,-2.13467 5.68016,-3.11443 4.67122,-11.1624 5.17798,-16.59707 0.52634,-5.64535 -1.83627,-13.82759 -1.83627,-13.82759 -1.27848,13.45069 -0.84303,19.08394 -6.68009,25.66535 -4.80368,5.41607 -6.10116,7.33228 -19.93283,7.55185 z"
       sodipodi:nodetypes="ccscacc" />
  </g>
</svg>
