<?xml version="1.0" encoding="UTF-8" standalone="no"?>
<!-- Created with Inkscape (http://www.inkscape.org/) -->

<svg
   xmlns:dc="http://purl.org/dc/elements/1.1/"
   xmlns:cc="http://creativecommons.org/ns#"
   xmlns:rdf="http://www.w3.org/1999/02/22-rdf-syntax-ns#"
   xmlns:svg="http://www.w3.org/2000/svg"
   xmlns="http://www.w3.org/2000/svg"
   xmlns:sodipodi="http://sodipodi.sourceforge.net/DTD/sodipodi-0.dtd"
   xmlns:inkscape="http://www.inkscape.org/namespaces/inkscape"
   width="256"
   height="256"
   id="svg2"
   version="1.1"
   inkscape:version="0.48.3.1 r9886"
   sodipodi:docname="system-lock-screen.svg">
  <defs
     id="defs4"><style
   id="style2991"
   type="text/css">
   
    .str3 {stroke:#1F1A17;stroke-width:1.05469}
    .str1 {stroke:#72706F;stroke-width:2.44157}
    .str2 {stroke:#1F1A17;stroke-width:2.76822}
    .str0 {stroke:#72706F;stroke-width:4.15233}
    .fil3 {fill:none}
    .fil1 {fill:#00923F}
    .fil2 {fill:#1F1A17}
    .fil0 {fill:#B8DB7C}
   
  </style>
<style
   id="style3081"
   type="text/css">
   
    .str1 {stroke:#1F1A17;stroke-width:2.76822}
    .str0 {stroke:#72706F;stroke-width:4.15233}
    .fil1 {fill:none}
    .fil3 {fill:#00923F}
    .fil2 {fill:#1F1A17}
    .fil0 {fill:#B8DB7C}
   
  </style>
<style
   id="style3135"
   type="text/css">
   
    .str1 {stroke:#1F1A17;stroke-width:2.76822}
    .str0 {stroke:#72706F;stroke-width:4.15233}
    .fil1 {fill:none}
    .fil3 {fill:#00923F}
    .fil2 {fill:#1F1A17}
    .fil0 {fill:#B8DB7C}
   
  </style>
<style
   id="style3203"
   type="text/css">
   
    .str1 {stroke:#1F1A17;stroke-width:1.38411}
    .str2 {stroke:#1F1A17;stroke-width:2.76822}
    .str0 {stroke:#72706F;stroke-width:4.15233}
    .str4 {stroke:#1F1A17;stroke-width:0.895518}
    .str3 {stroke:#72706F;stroke-width:1.34259}
    .fil2 {fill:none}
    .fil0 {fill:#00923F}
    .fil1 {fill:#1F1A17}
    .fil3 {fill:#B8DB7C}
    .fil5 {fill:#1F1A17;fill-rule:nonzero}
    .fil4 {fill:#72706F;fill-rule:nonzero}
    .fil6 {fill:#B8DB7C;fill-rule:nonzero}
   
  </style>
<style
   id="style3319"
   type="text/css">
   
    .str1 {stroke:#1F1A17;stroke-width:1.38411}
    .str2 {stroke:#1F1A17;stroke-width:2.76822}
    .str0 {stroke:#72706F;stroke-width:4.15233}
    .str4 {stroke:#1F1A17;stroke-width:0.895518}
    .str3 {stroke:#72706F;stroke-width:1.34259}
    .fil2 {fill:none}
    .fil0 {fill:#00923F}
    .fil1 {fill:#1F1A17}
    .fil3 {fill:#B8DB7C}
    .fil5 {fill:#1F1A17;fill-rule:nonzero}
    .fil4 {fill:#72706F;fill-rule:nonzero}
    .fil6 {fill:#B8DB7C;fill-rule:nonzero}
   
  </style>
<style
   id="style3435"
   type="text/css">
   
    .str1 {stroke:#1F1A17;stroke-width:2.76822}
    .str0 {stroke:#72706F;stroke-width:4.15233}
    .fil1 {fill:none}
    .fil3 {fill:#00923F}
    .fil2 {fill:#1F1A17}
    .fil0 {fill:#B8DB7C}
   
  </style>
<style
   id="style3502"
   type="text/css">
   
    .str3 {stroke:#1F1A17;stroke-width:1.05469}
    .str1 {stroke:#72706F;stroke-width:2.44157}
    .str2 {stroke:#1F1A17;stroke-width:2.76822}
    .str0 {stroke:#72706F;stroke-width:4.15233}
    .fil3 {fill:none}
    .fil1 {fill:#00923F}
    .fil2 {fill:#1F1A17}
    .fil0 {fill:#B8DB7C}
   
  </style>
<style
   id="style3592"
   type="text/css">
   
    .str1 {stroke:#1F1A17;stroke-width:2.76822}
    .str0 {stroke:#72706F;stroke-width:4.15233}
    .fil1 {fill:none}
    .fil3 {fill:#00923F}
    .fil2 {fill:#1F1A17}
    .fil0 {fill:#B8DB7C}
   
  </style>
<style
   id="style3646"
   type="text/css">
   
    .str1 {stroke:#1F1A17;stroke-width:2.76822}
    .str0 {stroke:#72706F;stroke-width:4.15233}
    .fil1 {fill:none}
    .fil3 {fill:#00923F}
    .fil2 {fill:#1F1A17}
    .fil0 {fill:#B8DB7C}
   
  </style>
<style
   id="style3714"
   type="text/css">
   
    .str3 {stroke:#1F1A17;stroke-width:1.05469}
    .str1 {stroke:#72706F;stroke-width:2.44157}
    .str2 {stroke:#1F1A17;stroke-width:2.76822}
    .str0 {stroke:#72706F;stroke-width:4.15233}
    .fil3 {fill:none}
    .fil1 {fill:#00923F}
    .fil2 {fill:#1F1A17}
    .fil0 {fill:#B8DB7C}
   
  </style>
<style
   id="style3804"
   type="text/css">
   
    .str1 {stroke:#1F1A17;stroke-width:2.76822}
    .str0 {stroke:#72706F;stroke-width:4.15233}
    .fil1 {fill:none}
    .fil3 {fill:#00923F}
    .fil2 {fill:#1F1A17}
    .fil0 {fill:#B8DB7C}
   
  </style>
<style
   id="style3858"
   type="text/css">
   
    .str1 {stroke:#1F1A17;stroke-width:2.76822}
    .str0 {stroke:#72706F;stroke-width:4.15233}
    .fil1 {fill:none}
    .fil3 {fill:#00923F}
    .fil2 {fill:#1F1A17}
    .fil0 {fill:#B8DB7C}
   
  </style>
<style
   id="style3926"
   type="text/css">
   
    .str2 {stroke:#1F1A17;stroke-width:1.05469}
    .str3 {stroke:#1F1A17;stroke-width:1.38411}
    .str1 {stroke:#1F1A17;stroke-width:2.76822}
    .str0 {stroke:#72706F;stroke-width:4.15233}
    .fil0 {fill:none}
    .fil3 {fill:#00923F}
    .fil1 {fill:#1F1A17}
    .fil2 {fill:#B8DB7C}
   
  </style>
<style
   id="style3998"
   type="text/css">
   
    .str1 {stroke:#1F1A17;stroke-width:2.76822}
    .str0 {stroke:#72706F;stroke-width:4.15233}
    .fil2 {fill:none}
    .fil3 {fill:#00923F}
    .fil1 {fill:#1F1A17}
    .fil0 {fill:#B8DB7C}
   
  </style>
<style
   id="style4042"
   type="text/css">
   
    .str1 {stroke:#1F1A17;stroke-width:2.76822}
    .str0 {stroke:#72706F;stroke-width:4.15233}
    .fil2 {fill:none}
    .fil3 {fill:#00923F}
    .fil1 {fill:#1F1A17}
    .fil0 {fill:#B8DB7C}
   
  </style>
<style
   id="style4086"
   type="text/css">
   
    .str1 {stroke:#1F1A17;stroke-width:2.34375}
    .str0 {stroke:#72706F;stroke-width:3.51563}
    .fil3 {fill:none}
    .fil2 {fill:#1F1A17}
    .fil0 {fill:#00923F;fill-rule:nonzero}
    .fil1 {fill:#B8DB7C;fill-rule:nonzero}
   
  </style>
<style
   id="style4130"
   type="text/css">
   
    .str1 {stroke:#1F1A17;stroke-width:2.76822}
    .str0 {stroke:#72706F;stroke-width:4.15233}
    .fil2 {fill:none}
    .fil3 {fill:#00923F}
    .fil1 {fill:#1F1A17}
    .fil0 {fill:#B8DB7C}
   
  </style>
<style
   id="style4181"
   type="text/css">
   
    .str1 {stroke:#1F1A17;stroke-width:2.76822}
    .str0 {stroke:#72706F;stroke-width:4.15233}
    .fil2 {fill:none}
    .fil3 {fill:#00923F}
    .fil1 {fill:#1F1A17}
    .fil0 {fill:#B8DB7C}
   
  </style>
<style
   id="style4232"
   type="text/css">
   
    .str0 {stroke:#1F1A17;stroke-width:1.84225}
    .str1 {stroke:#72706F;stroke-width:2.76406}
    .fil3 {fill:none}
    .fil4 {fill:#00923F}
    .fil2 {fill:#1F1A17}
    .fil0 {fill:#B8DB7C}
    .fil1 {fill:#72706F;fill-rule:nonzero}
   
  </style>
<style
   id="style4418"
   type="text/css">
   
    .str0 {stroke:#1F1A17;stroke-width:1.84225}
    .str1 {stroke:#72706F;stroke-width:2.76406}
    .fil3 {fill:none}
    .fil4 {fill:#00923F}
    .fil2 {fill:#1F1A17}
    .fil0 {fill:#B8DB7C}
    .fil1 {fill:#72706F;fill-rule:nonzero}
   
  </style>
<style
   id="style4604"
   type="text/css">
   
    .str0 {stroke:#1F1A17;stroke-width:1.84225}
    .str1 {stroke:#72706F;stroke-width:2.76406}
    .fil3 {fill:none}
    .fil4 {fill:#00923F}
    .fil2 {fill:#1F1A17}
    .fil0 {fill:#B8DB7C}
    .fil1 {fill:#72706F;fill-rule:nonzero}
   
  </style>
<style
   id="style4790"
   type="text/css">
   
    .str0 {stroke:#1F1A17;stroke-width:1.84225}
    .str1 {stroke:#72706F;stroke-width:2.76406}
    .fil3 {fill:none}
    .fil4 {fill:#00923F}
    .fil2 {fill:#1F1A17}
    .fil0 {fill:#B8DB7C}
    .fil1 {fill:#72706F;fill-rule:nonzero}
   
  </style>

  
  
 
   
   
   
   
   
   
   
   
   
   
   
   
   
   
   
   
   
   
   
   
   
   
  <style
   id="style20268"
   type="text/css">
   
    .str3 {stroke:#1F1A17;stroke-width:1.05469}
    .str1 {stroke:#72706F;stroke-width:2.44157}
    .str2 {stroke:#1F1A17;stroke-width:2.76822}
    .str0 {stroke:#72706F;stroke-width:4.15233}
    .fil3 {fill:none}
    .fil1 {fill:#00923F}
    .fil2 {fill:#1F1A17}
    .fil0 {fill:#B8DB7C}
   
  </style>
</defs>
  <sodipodi:namedview
     id="base"
     pagecolor="#ffffff"
     bordercolor="#666666"
     borderopacity="1.0"
     inkscape:pageopacity="0.0"
     inkscape:pageshadow="2"
     inkscape:zoom="0.6415735"
     inkscape:cx="223.99161"
     inkscape:cy="123.12797"
     inkscape:document-units="px"
     inkscape:current-layer="layer1"
     showgrid="false"
     showguides="true"
     inkscape:guide-bbox="true"
     inkscape:window-width="1918"
     inkscape:window-height="1032"
     inkscape:window-x="0"
     inkscape:window-y="25"
     inkscape:window-maximized="1" />
  <metadata
     id="metadata7">
    <rdf:RDF>
      <cc:Work
         rdf:about="">
        <dc:format>image/svg+xml</dc:format>
        <dc:type
           rdf:resource="http://purl.org/dc/dcmitype/StillImage" />
        <dc:title />
      </cc:Work>
    </rdf:RDF>
  </metadata>
  <g
     inkscape:label="Capa 1"
     inkscape:groupmode="layer"
     id="layer1"
     transform="translate(0,-796.36218)">
    <g
       style="fill-rule:evenodd"
       id="g4274"
       transform="matrix(1.7048938,0,0,1.7048938,-241.57666,537.33836)">
      <path
         style="fill:#b8db7c"
         inkscape:connector-curvature="0"
         class="fil0"
         d="m 167.759,173.614 96.8668,-0.28097 c 12.3892,-0.0374 22.5734,6.41811 22.6302,14.3463 l 0.46229,64.8607 c 0.0581,7.92679 -10.0334,14.4432 -22.4239,14.4792 l -96.8655,0.28235 c -12.3905,0.0374 -22.572,-6.4195 -22.6288,-14.3477 l -0.46367,-64.8607 c -0.0567,-7.92679 10.0334,-14.4418 22.4226,-14.4792 z"
         id="path4276" />
      <path
         style="fill:#72706f;fill-rule:nonzero"
         inkscape:connector-curvature="0"
         id="path4278"
         class="fil1"
         d="m 264.626,174.709 0,0 -96.8668,0.28097 0,-2.75161 96.8668,-0.28097 0,2.75161 z m 24.0074,12.9649 -2.75438,0.0111 0,0 -0.0346,-0.62561 -0.0761,-0.62147 -0.12734,-0.61593 -0.17716,-0.61039 -0.22008,-0.59793 -0.27128,-0.59517 -0.31696,-0.58686 -0.36125,-0.57718 -0.4097,-0.56748 -0.44845,-0.55503 -0.50105,-0.54672 -0.53703,-0.53565 -0.58548,-0.51489 -0.62008,-0.49828 -0.66299,-0.48997 -0.70313,-0.4623 -0.73219,-0.44706 -0.77372,-0.42631 -0.80555,-0.39724 -0.83877,-0.38063 -0.87337,-0.35571 -0.89829,-0.32388 -0.92458,-0.30589 -0.95504,-0.2699 -0.97579,-0.24499 -1.00348,-0.21315 -1.02562,-0.18686 -1.03947,-0.15225 -1.06438,-0.12042 -1.07684,-0.083 -1.09621,-0.0526 -1.11698,-0.0152 0,-2.75161 1.19172,0.0152 1.1848,0.0526 1.17372,0.0941 1.15019,0.12872 1.13635,0.16332 1.11144,0.19793 1.08929,0.2353 1.07268,0.26713 1.04362,0.30312 1.02147,0.32527 0.99517,0.36817 0.95919,0.38894 0.93566,0.42215 0.90243,0.4526 0.87061,0.47891 0.84015,0.50243 0.80002,0.53703 0.76264,0.55364 0.72804,0.58687 0.68237,0.61177 0.64499,0.63254 0.59794,0.65468 0.55641,0.68514 0.50658,0.70589 0.45814,0.72943 0.40278,0.74742 0.3488,0.76956 0.29481,0.79171 0.22976,0.80417 0.17163,0.82077 0.10935,0.83739 0.0346,0.85261 0,0 z m -2.29208,64.8718 0,0 -0.46229,-64.8607 2.75438,-0.0111 0.46229,64.8607 -2.75438,0.0111 z m -21.0468,15.8494 0,-2.75161 0,0 1.1059,-0.0222 1.0976,-0.0595 1.07822,-0.09 1.05746,-0.12595 1.04362,-0.15918 1.01732,-0.18685 1.00071,-0.22007 0.97718,-0.25053 0.94673,-0.28236 0.91905,-0.30588 0.89828,-0.33496 0.8623,-0.35571 0.83324,-0.38479 0.80001,-0.40416 0.7668,-0.43045 0.73081,-0.45261 0.68928,-0.46506 0.65746,-0.48859 0.61316,-0.50381 0.57717,-0.5232 0.52873,-0.53288 0.48997,-0.54672 0.44015,-0.56333 0.40001,-0.56887 0.3571,-0.57856 0.30865,-0.58409 0.25606,-0.59794 0.21454,-0.59793 0.16748,-0.60624 0.11626,-0.61732 0.072,-0.62146 0.0235,-0.63669 2.75438,-0.0111 -0.0235,0.84153 -0.0941,0.83739 -0.16056,0.82216 -0.22007,0.81109 -0.28098,0.79448 -0.34187,0.76956 -0.39447,0.75572 -0.44292,0.73081 -0.49689,0.71005 -0.54811,0.68237 -0.58963,0.66299 -0.63669,0.64084 -0.67406,0.61177 -0.72112,0.58963 -0.75434,0.56334 -0.79725,0.5398 -0.8277,0.50797 -0.86368,0.48305 -0.8969,0.45952 -0.93012,0.42631 -0.95919,0.40001 -0.9841,0.36817 -1.0187,0.33634 -1.04362,0.3045 -1.063,0.27267 -1.08653,0.24222 -1.11421,0.209 -1.12943,0.17024 -1.15435,0.13426 -1.1668,0.10104 -1.18341,0.0595 -1.20279,0.0222 0,0 z m -96.8655,-2.46925 0,0 96.8655,-0.28236 0,2.75161 -96.8655,0.28236 0,-2.75161 z m -24.006,-12.9663 2.75438,-0.0111 0,0 0.0346,0.62561 0.0761,0.62147 0.12734,0.61593 0.17716,0.61039 0.22008,0.59793 0.27128,0.59517 0.31696,0.58686 0.36125,0.57718 0.40832,0.56748 0.45537,0.55503 0.49412,0.54811 0.53842,0.53426 0.5841,0.51489 0.62008,0.49966 0.66437,0.48998 0.70174,0.46091 0.7322,0.44845 0.77371,0.42492 0.80555,0.39862 0.83877,0.37925 0.87338,0.3571 0.89828,0.32249 0.92459,0.30728 0.95503,0.2699 0.97441,0.24498 1.00486,0.21316 1.02424,0.18685 1.04085,0.15225 1.06438,0.12042 1.07684,0.0831 1.09621,0.0526 1.11698,0.0152 0,2.75161 -1.19172,-0.0152 -1.1848,-0.0526 -1.17372,-0.0941 -1.15019,-0.12872 -1.13774,-0.16333 -1.11006,-0.19793 -1.09068,-0.2353 -1.0713,-0.26713 -1.04362,-0.30312 -1.02147,-0.32665 -0.99517,-0.36679 -0.95919,-0.39032 -0.93565,-0.42077 -0.90244,-0.45398 -0.87061,-0.47752 -0.84015,-0.50382 -0.79863,-0.53565 -0.76403,-0.55364 -0.72804,-0.58825 -0.68098,-0.61177 -0.64638,-0.63116 -0.60209,-0.65606 -0.55226,-0.68514 -0.5052,-0.70589 -0.45814,-0.72943 -0.40277,-0.74742 -0.3488,-0.76956 -0.29481,-0.79171 -0.22976,-0.80417 -0.17163,-0.82077 -0.10935,-0.83739 -0.0346,-0.85261 0,0 z m 2.2907,-64.8718 0,0 0.46368,64.8607 -2.75438,0.0111 -0.46368,-64.8607 2.75438,-0.0111 z m 21.0454,-15.8494 0,2.75161 0,0 -1.1059,0.0222 -1.09621,0.0595 -1.0796,0.09 -1.05746,0.12595 -1.04223,0.15918 -1.01732,0.18823 -1.00071,0.21869 -0.97718,0.25191 -0.94673,0.28098 -0.91905,0.30727 -0.89829,0.33357 -0.8623,0.3571 -0.83184,0.38478 -0.8014,0.40278 -0.76542,0.43045 -0.73219,0.45261 -0.68928,0.46644 -0.65746,0.48859 -0.61177,0.50382 -0.57718,0.52181 -0.53011,0.53288 -0.48997,0.54672 -0.44015,0.56333 -0.40001,0.56887 -0.3571,0.57856 -0.30727,0.58409 -0.26298,0.59794 -0.209,0.59793 -0.16748,0.60624 -0.11626,0.61732 -0.072,0.62146 -0.0235,0.63669 -2.75438,0.0111 0.0235,-0.84153 0.0941,-0.83739 0.16056,-0.82216 0.22007,-0.81109 0.28651,-0.79448 0.33773,-0.76956 0.39308,-0.75572 0.44292,-0.73081 0.49689,-0.71005 0.54811,-0.68237 0.58963,-0.66298 0.63807,-0.64085 0.67406,-0.61039 0.71974,-0.58963 0.75434,-0.56333 0.79725,-0.54119 0.82908,-0.50796 0.8623,-0.48306 0.89828,-0.45814 0.92874,-0.4263 0.95919,-0.40139 0.9841,-0.36679 1.0187,-0.33773 1.04362,-0.30312 1.063,-0.27405 1.08653,-0.24083 1.11421,-0.21039 1.12805,-0.17024 1.15435,-0.13426 1.16819,-0.10104 1.18203,-0.0595 1.20279,-0.0222 0,0 z" />
    </g>
    <g
       style="fill-rule:evenodd"
       id="g4280"
       transform="matrix(1.7048938,0,0,1.7048938,-241.57666,537.33836)">
      <path
         style="fill:#1f1a17;stroke:#1f1a17;stroke-width:1.84224999"
         inkscape:connector-curvature="0"
         class="fil2 str0"
         d="m 287.657,207.297 1.98896,26.0808 c -0.37371,11.5919 0.19793,28.8877 -13.9435,32.5445 -4.79317,1.23739 -9.7289,1.881 -14.6785,1.95159 l -48.9573,-0.8097 -0.006,-0.30589 48.8978,-2.54814 c 6.11776,-0.38478 12.9483,-0.99102 18.2785,-4.3987 7.67765,-4.9122 7.09494,-19.3374 7.74547,-26.5693 l 0.67406,-25.9451 z"
         id="path4282" />
    </g>
    <path
       style="fill:none"
       inkscape:connector-curvature="0"
       class="fil3"
       d="m 248.84459,890.75944 c 3.33668,13.81403 1.63294,75.73865 -5.923,86.1076 -7.00375,9.6137 -21.36062,13.72196 -39.53768,14.04526 l -83.41738,1.4795"
       id="path4284" />
    <g
       style="fill-rule:evenodd"
       id="g4286"
       transform="matrix(1.7048938,0,0,1.7048938,-241.57666,537.33836)">
      <path
         style="fill:#1f1a17;stroke:#1f1a17;stroke-width:1.84224999"
         inkscape:connector-curvature="0"
         class="fil2 str0"
         d="m 208.148,173.44 c -17.5574,0.65191 -38.6014,-1.73429 -54.0979,8.33649 -4.10388,2.66579 -5.8091,8.19669 -6.22295,12.7366 l -0.70313,20.8696 -1.46716,14.4861 -0.27544,0 -0.58271,-28.5071 c -0.0886,-7.17937 -0.80831,-15.0633 4.62984,-20.7173 5.69561,-5.92122 13.9269,-7.82575 21.8412,-8.63961 12.4777,-1.28168 24.4724,0.28928 36.8782,1.43532 z"
         id="path4288" />
    </g>
    <path
       style="fill:none"
       inkscape:connector-curvature="0"
       class="fil3"
       d="m 113.29359,833.03516 c -14.682415,0 -32.071444,-1.7887 -46.713768,-0.9864 -45.713305,2.499 -61.8845653,14.7603 -58.7272789,48.34909 0.6088268,6.47281 -1.3332657,41.44205 -1.3332657,48.84231"
       id="path4290" />
    <path
       id="path4294"
       d="M 191.95408,852.91229 64.371167,852.53696 c -16.316901,-0.0436 -29.728282,8.45838 -29.808666,18.90067 l -0.606555,85.42499 c -0.07385,10.44228 13.213716,19.02131 29.533862,19.07158 l 127.582912,0.37533 c 16.32027,0.0436 29.73167,-8.45839 29.80552,-18.90067 l 0.60989,-85.42499 c 0.0738,-10.44228 -13.21705,-19.02132 -29.53386,-19.07158 z"
       class="fil4"
       inkscape:connector-curvature="0"
       style="fill:#00923f;fill-rule:evenodd" />
    <path
       d="m 64.372136,849.20303 0,0 127.582914,0.37534 0,6.66886 -127.582914,-0.37533 0,-6.66887 z m -33.143123,22.22169 0,0 0.04697,-1.24664 0.160767,-1.22319 0.251343,-1.19301 0.331775,-1.18297 0.432303,-1.13604 0.502686,-1.10924 0.576388,-1.0724 0.656843,-1.04556 0.720497,-1.00871 0.794221,-0.96848 0.841168,-0.92494 0.894749,-0.8847 0.965157,-0.86461 1.018738,-0.8177 1.058978,-0.77747 1.109242,-0.73391 1.152824,-0.69369 1.21311,-0.66019 1.243303,-0.62667 1.270081,-0.5831 1.327076,-0.52949 1.360586,-0.50602 1.400801,-0.44572 1.420896,-0.41218 1.46782,-0.36529 1.481208,-0.3217 1.511401,-0.2681 1.551593,-0.22129 1.56164,-0.17772 1.588467,-0.13074 1.618611,-0.0705 1.611928,-0.0194 0,6.66887 -1.430944,0.0194 -1.384047,0.0705 -1.373998,0.10387 -1.353879,0.15084 -1.317004,0.19442 -1.303614,0.24139 -1.273447,0.26808 -1.233231,0.31168 -1.206428,0.33845 -1.166212,0.39209 -1.125997,0.39879 -1.092487,0.45577 -1.062319,0.47586 -1.008715,0.49264 -0.951743,0.53283 -0.918211,0.55965 -0.86797,0.57976 -0.82439,0.5965 -0.757371,0.60992 -0.703742,0.62331 -0.660184,0.65014 -0.606556,0.66353 -0.53283,0.66018 -0.485932,0.66689 -0.422255,0.67694 -0.368625,0.68365 -0.31502,0.68699 -0.25132,0.69369 -0.204348,0.68699 -0.14406,0.69706 -0.08038,0.70037 -0.04697,0.69706 0,0 -6.668865,-0.0269 z m -0.606555,85.42499 0,0 0.606555,-85.42499 6.668865,0.0269 -0.606555,85.42499 -6.668865,-0.0269 z m 32.868318,22.41943 0,0 -1.638731,-0.0303 -1.605222,-0.077 -1.585101,-0.14067 -1.575078,-0.18425 -1.534838,-0.23123 -1.508035,-0.28822 -1.491257,-0.31499 -1.447723,-0.38538 -1.427604,-0.40887 -1.394094,-0.46581 -1.343831,-0.50266 -1.317004,-0.54961 -1.280153,-0.58646 -1.233231,-0.63336 -1.189673,-0.66689 -1.146117,-0.69706 -1.109242,-0.754 -1.048906,-0.78418 -1.008714,-0.82439 -0.941672,-0.85121 -0.90148,-0.9048 -0.82773,-0.93833 -0.780833,-0.96516 -0.707107,-1.01205 -0.630016,-1.04891 -0.56634,-1.07573 -0.489273,-1.12266 -0.415548,-1.1528 -0.321727,-1.16957 -0.234613,-1.20977 -0.134134,-1.22319 -0.03341,-1.21984 6.668864,0.0269 0.03341,0.72383 0.08038,0.70041 0.127355,0.68701 0.194421,0.70037 0.234613,0.67694 0.301607,0.68031 0.358577,0.68698 0.422255,0.68028 0.472519,0.67026 0.519441,0.67694 0.593142,0.65011 0.640088,0.64343 0.707083,0.64343 0.740617,0.61663 0.814341,0.60321 0.847851,0.56634 0.911528,0.56971 0.955085,0.53283 0.998642,0.50603 1.045565,0.47922 1.082439,0.44906 1.136044,0.42225 1.152824,0.38538 1.193015,0.36195 1.239937,0.30495 1.256692,0.28819 1.300274,0.23461 1.327051,0.20435 1.34049,0.15738 1.370633,0.11404 1.397435,0.077 1.404142,0.0303 0,0 0,6.66887 z m 127.582914,0.37533 0,0 -127.582914,-0.37533 0,-6.66887 127.582914,0.37533 0,6.66887 z m 33.13973,-22.22169 0,0 -0.047,1.24665 -0.16077,1.22318 -0.25134,1.19301 -0.33175,1.16956 -0.42896,1.14945 -0.50269,1.10925 -0.57639,1.07239 -0.65684,1.04556 -0.7205,1.00872 -0.78083,0.95508 -0.85119,0.93833 -0.91153,0.8847 -0.95174,0.86461 -1.01876,0.81771 -1.05562,0.76405 -1.10924,0.74732 -1.1528,0.6937 -1.21313,0.66018 -1.24328,0.62668 -1.27345,0.58309 -1.32373,0.52949 -1.36393,0.50603 -1.39743,0.44571 -1.42427,0.41219 -1.46445,0.36528 -1.48457,0.3217 -1.51141,0.2681 -1.55159,0.22105 -1.56164,0.17772 -1.58847,0.13074 -1.61861,0.0705 -1.61192,0.0194 0,-6.66886 1.43094,-0.0194 1.38405,-0.0705 1.374,-0.10387 1.35387,-0.15084 1.31701,-0.19442 1.30361,-0.24139 1.27679,-0.26808 1.22989,-0.31168 1.20977,-0.33845 1.16287,-0.39209 1.12936,-0.39879 1.08912,-0.45577 1.06569,-0.47586 1.00869,-0.49264 0.95174,-0.53283 0.91824,-0.55965 0.86794,-0.56634 0.82105,-0.60992 0.75737,-0.60992 0.71716,-0.62331 0.65011,-0.65014 0.58983,-0.65011 0.54624,-0.6736 0.48591,-0.66689 0.42225,-0.67694 0.36863,-0.68365 0.31502,-0.68698 0.24798,-0.68029 0.20434,-0.7004 0.14406,-0.69706 0.0804,-0.7004 0.047,-0.69703 0,0 6.66886,0.0269 z m 0.6099,-85.42499 0,0 -0.6099,85.42499 -6.66886,-0.0269 0.60989,-85.42499 6.66887,0.0269 z m -32.86832,-22.41942 0,0 1.63873,0.0303 1.60522,0.077 1.5851,0.14067 1.57506,0.18426 1.53149,0.23122 1.50804,0.28822 1.49128,0.31499 1.44772,0.38538 1.42761,0.40887 1.39743,0.46581 1.34383,0.50266 1.31701,0.54961 1.27681,0.58646 1.23657,0.63336 1.18968,0.66689 1.14611,0.69706 1.10924,0.75401 1.04557,0.78417 1.01205,0.82439 0.94168,0.85122 0.89811,0.90479 0.82775,0.92494 0.78418,0.97855 0.70711,1.01206 0.63001,1.04893 0.56634,1.0757 0.48927,1.12266 0.41555,1.1528 0.32173,1.16958 0.23461,1.20977 0.13414,1.22318 0.0334,1.21984 -6.66887,-0.0269 -0.0334,-0.72384 -0.0804,-0.7004 -0.12736,-0.68699 -0.19442,-0.7004 -0.23461,-0.67694 -0.30161,-0.6803 -0.35857,-0.68699 -0.42226,-0.68028 -0.47252,-0.67026 -0.52278,-0.66352 -0.59317,-0.66353 -0.63672,-0.64343 -0.70708,-0.64343 -0.74398,-0.61663 -0.81098,-0.60321 -0.84785,-0.56634 -0.91153,-0.56971 -0.95508,-0.53283 -1.00201,-0.50602 -1.0422,-0.47923 -1.08244,-0.44906 -1.13604,-0.42225 -1.15617,-0.38538 -1.19301,-0.36194 -1.23994,-0.30495 -1.25672,-0.2882 -1.30025,-0.23461 -1.32371,-0.20435 -1.34049,-0.15737 -1.37063,-0.11404 -1.39744,-0.077 -1.40414,-0.0303 0,0 0,-6.66887 z"
       class="fil1"
       id="path4296"
       inkscape:connector-curvature="0"
       style="fill:#72706f;fill-rule:nonzero" />
    <g
       style="fill-rule:evenodd"
       id="g4298"
       transform="matrix(2.4211854,0,0,2.4211854,-395.32623,372.537)">
      <path
         style="fill:#1f1a17;stroke:#1f1a17;stroke-width:1.84224999"
         inkscape:connector-curvature="0"
         class="fil2 str0"
         d="m 177.338,216.728 -1.08237,14.1871 c 0.20485,6.30461 -0.10796,15.7138 7.58492,17.7027 2.60766,0.67406 5.29145,1.02424 7.98492,1.063 l 26.633,-0.44153 0.003,-0.16609 -26.5984,-1.38549 c -3.32878,-0.21039 -7.04511,-0.53981 -9.94482,-2.39312 -4.17724,-2.67133 -3.86028,-10.5206 -4.21461,-14.4542 l -0.36541,-14.1124 z"
         id="path4300" />
    </g>
    <path
       style="fill:none"
       inkscape:connector-curvature="0"
       class="fil3"
       d="m 60.767516,906.83659 c -1.817026,7.51347 -0.889632,41.20133 3.221069,46.84137 3.808641,5.23156 11.619443,7.46616 21.506898,7.64084 l 45.378137,0.80464"
       id="path4302" />
    <g
       style="fill-rule:evenodd"
       id="g4304"
       transform="matrix(2.4211854,0,0,2.4211854,-395.32623,372.537)">
      <path
         style="fill:#1f1a17;stroke:#1f1a17;stroke-width:1.84224999"
         inkscape:connector-curvature="0"
         class="fil2 str0"
         d="m 220.59,198.308 c 9.55035,0.35572 20.9983,-0.94119 29.4275,4.53572 2.23257,1.45055 3.1613,4.4596 3.38553,6.92885 l 0.38201,11.3538 0.79863,7.87973 0.15087,0 0.31558,-15.5076 c 0.0498,-3.90595 0.44015,-8.19392 -2.51908,-11.2694 -3.09625,-3.22082 -7.57523,-4.25752 -11.8798,-4.69905 -6.78905,-0.69897 -13.3137,0.1564 -20.0613,0.77787 z"
         id="path4306" />
    </g>
    <path
       style="fill:none"
       inkscape:connector-curvature="0"
       class="fil3"
       d="m 134.50586,875.43586 c 7.98543,0 17.44568,-0.97221 25.4123,-0.53803 24.86708,1.36159 33.66434,8.03026 31.94647,26.30191 -0.33271,3.52311 0.72446,22.54518 0.72446,26.57094"
       id="path4308" />
    <rect
       style="fill:#00923f;fill-rule:evenodd;stroke:#72706f;stroke-width:4.71242857"
       class="fil4 str1"
       x="34.104664"
       y="994.41528"
       width="181.97185"
       height="28.950121"
       rx="36.852306"
       ry="36.852306"
       id="rect4310" />
    <g
       style="fill-rule:evenodd"
       id="g4312"
       transform="matrix(1.7048938,0,0,1.7048938,-241.57666,537.33836)">
      <path
         style="fill:#1f1a17;stroke:#1f1a17;stroke-width:1.84224999"
         inkscape:connector-curvature="0"
         class="fil2 str0"
         d="m 169.156,267.941 c -1.88654,0.87199 -4.06651,1.58065 -4.97725,3.6319 -1.94052,4.3724 1.06715,9.27491 5.39249,10.2286 8.99532,1.98481 18.0183,1.03116 27.1368,1.25262 l 48.6002,2.36267 -0.006,0.17993 -67.0379,0.75711 c -4.22707,-0.40278 -13.3027,-1.10867 -15.228,-6.26863 -1.25677,-3.36754 -2.1163,-8.26174 1.14881,-10.814 1.56266,-1.22078 3.08518,-1.29553 4.97033,-1.33013 z"
         id="path4314" />
    </g>
    <path
       style="fill:none"
       inkscape:connector-curvature="0"
       class="fil3"
       d="m 46.816366,994.1493 c -14.319009,1.9965 -11.034235,13.8872 -8.591894,19.9659 4.242859,10.5671 42.201919,9.3162 55.56761,9.3162 26.728978,0 56.122208,0 82.851188,0.6655"
       id="path4316" />
    <g
       id="g4224"
       transform="matrix(0.68441592,0,0,0.68441592,-110.33098,257.06719)">
      <path
         inkscape:connector-curvature="0"
         d="m 347.58294,898.81237 c -20.0719,0 -36.23087,16.15897 -36.23087,36.23087 l 0,40.25651 10.06413,0 0,-40.25651 c 0,-14.49638 11.67036,-26.16674 26.16674,-26.16674 14.49637,0 26.16673,11.67036 26.16673,26.16674 l 0,40.25651 10.06413,0 0,-40.25651 c 0,-20.0719 -16.15896,-36.23087 -36.23086,-36.23087 z"
         id="rect2723"
         style="fill:#b8db7c;fill-opacity:1;fill-rule:evenodd;stroke:#72706f;stroke-width:4;stroke-miterlimit:4;stroke-opacity:1;stroke-dasharray:none" />
      <rect
         height="70.949966"
         id="rect1941"
         rx="13.239528"
         ry="13.053009"
         style="fill:#b8db7c;fill-opacity:1;fill-rule:evenodd;stroke:#72706f;stroke-width:4.38431978;stroke-miterlimit:4;stroke-opacity:1;stroke-dasharray:none"
         width="96.0429"
         x="301.14496"
         y="954.17151" />
      <path
         style="fill:#000000;fill-opacity:1;fill-rule:evenodd;stroke:#000000;stroke-width:1.07497847;stroke-linecap:butt;stroke-linejoin:miter;stroke-opacity:1;stroke-dasharray:none"
         sodipodi:nodetypes="cccccc"
         id="path570"
         d="m 334.4488,1010.7483 29.70953,0.2267 -10.20541,-26.08094 c 4.30909,0.68025 11.56619,-17.00903 -4.53583,-18.8233 -16.55553,2.04102 -10.88567,18.14305 -5.21609,19.27708 l -9.7522,25.40046 z"
         inkscape:connector-curvature="0" />
      <g
         style="fill-rule:evenodd"
         id="g4070"
         transform="matrix(-0.99529167,0,0,-0.99529167,553.44368,1223.1625)">
        <path
           style="fill:#1f1a17;stroke:#1f1a17;stroke-width:1.84224999"
           inkscape:connector-curvature="0"
           class="fil2 str0"
           d="m 220.59,198.308 c 9.55035,0.35572 20.9983,-0.94119 29.4275,4.53572 2.23257,1.45055 3.1613,4.4596 3.38553,6.92885 l 0.38201,11.3538 0.79863,7.87973 0.15087,0 0.31558,-15.5076 c 0.0498,-3.90595 0.44015,-8.19392 -2.51908,-11.2694 -3.09625,-3.22082 -7.57523,-4.25752 -11.8798,-4.69905 -6.78905,-0.69897 -13.3137,0.1564 -20.0613,0.77787 z"
           id="path4072" />
      </g>
      <g
         transform="matrix(0.99529167,0,0,0.99529167,145.07399,755.64186)"
         id="g4074"
         style="fill-rule:evenodd">
        <path
           id="path4076"
           d="m 220.59,198.308 c 9.55035,0.35572 20.9983,-0.94119 29.4275,4.53572 2.23257,1.45055 3.1613,4.4596 3.38553,6.92885 l 0.38201,11.3538 0.79863,7.87973 0.15087,0 0.31558,-15.5076 c 0.0498,-3.90595 0.44015,-8.19392 -2.51908,-11.2694 -3.09625,-3.22082 -7.57523,-4.25752 -11.8798,-4.69905 -6.78905,-0.69897 -13.3137,0.1564 -20.0613,0.77787 z"
           class="fil2 str0"
           inkscape:connector-curvature="0"
           style="fill:#1f1a17;stroke:#1f1a17;stroke-width:1.84224999" />
      </g>
      <g
         transform="matrix(-0.03912103,0.31490384,-0.31490384,-0.03912103,402.81856,892.98265)"
         id="g20305"
         style="fill-rule:evenodd;stroke:#000000;stroke-width:5.09572887;stroke-miterlimit:4;stroke-opacity:1;stroke-dasharray:none">
    <path
   sodipodi:nodetypes="ccsccccccc"
   style="fill:#1f1a17;stroke:#000000;stroke-width:5.09572887;stroke-miterlimit:4;stroke-opacity:1;stroke-dasharray:none"
   inkscape:connector-curvature="0"
   d="M 199.08467,38.765094 C 181.97987,32.306844 172.4014,36.4879 153.7076,36.301 87.0129,35.632476 31.9516,102.2884 36.4516,166.864 c 2.61043,37.4651 26.201388,69.58253 59.184688,87.03063 33.377802,17.6557 65.917002,17.97713 105.500952,11.11867 -62.53428,15.84136 -141.810778,21.72365 -169.935254,-79.99271 -13.0867,-56.9353 21.5879,-118.438004 73.820004,-142.285004 20.3838,-9.30536 43.7157,-12.9262 65.7604,-7.90741 11.866,2.7004 21.05309,-1.916785 31.95849,3.482625 z"
   class="fil2"
   id="_67468136" />

   </g>
    </g>
    <g
       inkscape:label="status"
       transform="matrix(6.4960329,0.10542871,-0.10542871,6.4960329,-283.93786,-3283.7388)"
       id="layer9"
       style="fill:#b8db7d;fill-opacity:1;fill-rule:evenodd;display:inline" />
    <g
       style="fill:#b8db7d;fill-opacity:1;fill-rule:evenodd"
       inkscape:label="devices"
       transform="matrix(6.4960329,0.10542871,-0.10542871,6.4960329,-283.93786,-3283.7388)"
       id="layer10" />
    <g
       style="fill:#b8db7d;fill-opacity:1;fill-rule:evenodd"
       inkscape:label="apps"
       transform="matrix(6.4960329,0.10542871,-0.10542871,6.4960329,-283.93786,-3283.7388)"
       id="layer11" />
    <g
       style="fill:#b8db7d;fill-opacity:1;fill-rule:evenodd"
       inkscape:label="places"
       transform="matrix(6.4960329,0.10542871,-0.10542871,6.4960329,-283.93786,-3283.7388)"
       id="layer13" />
    <g
       style="fill:#b8db7d;fill-opacity:1;fill-rule:evenodd"
       inkscape:label="mimetypes"
       transform="matrix(6.4960329,0.10542871,-0.10542871,6.4960329,-283.93786,-3283.7388)"
       id="layer14" />
    <g
       inkscape:label="emblems"
       transform="matrix(6.4960329,0.10542871,-0.10542871,6.4960329,-283.93786,-3283.7388)"
       id="layer15"
       style="fill:#b8db7d;fill-opacity:1;fill-rule:evenodd;display:inline" />
    <g
       inkscape:label="categories"
       transform="matrix(6.4960329,0.10542871,-0.10542871,6.4960329,-283.93786,-3283.7388)"
       id="g4953"
       style="fill:#b8db7d;fill-opacity:1;fill-rule:evenodd;display:inline" />
  </g>
</svg>
