<?xml version="1.0" encoding="UTF-8" standalone="no"?>
<!-- Created with Inkscape (http://www.inkscape.org/) -->

<svg
   xmlns:dc="http://purl.org/dc/elements/1.1/"
   xmlns:cc="http://creativecommons.org/ns#"
   xmlns:rdf="http://www.w3.org/1999/02/22-rdf-syntax-ns#"
   xmlns:svg="http://www.w3.org/2000/svg"
   xmlns="http://www.w3.org/2000/svg"
   xmlns:sodipodi="http://sodipodi.sourceforge.net/DTD/sodipodi-0.dtd"
   xmlns:inkscape="http://www.inkscape.org/namespaces/inkscape"
   width="256"
   height="256"
   id="svg3069"
   version="1.1"
   inkscape:version="0.48.3.1 r9886"
   sodipodi:docname="Documento nuevo 3">
  <defs
     id="defs3071" />
  <sodipodi:namedview
     id="base"
     pagecolor="#ffffff"
     bordercolor="#666666"
     borderopacity="1.0"
     inkscape:pageopacity="0.0"
     inkscape:pageshadow="2"
     inkscape:zoom="0.7"
     inkscape:cx="111.69428"
     inkscape:cy="91.738032"
     inkscape:document-units="px"
     inkscape:current-layer="layer1"
     showgrid="false"
     fit-margin-top="0"
     fit-margin-left="0"
     fit-margin-right="0"
     fit-margin-bottom="0"
     inkscape:window-width="560"
     inkscape:window-height="450"
     inkscape:window-x="0"
     inkscape:window-y="26"
     inkscape:window-maximized="0" />
  <metadata
     id="metadata3074">
    <rdf:RDF>
      <cc:Work
         rdf:about="">
        <dc:format>image/svg+xml</dc:format>
        <dc:type
           rdf:resource="http://purl.org/dc/dcmitype/StillImage" />
        <dc:title></dc:title>
      </cc:Work>
    </rdf:RDF>
  </metadata>
  <g
     inkscape:label="Capa 1"
     inkscape:groupmode="layer"
     id="layer1"
     transform="translate(-275.72833,-303.62056)">
    <g
       transform="matrix(1.1341664,0,0,1.1341664,248.42426,204.54952)"
       id="g3052"
       inkscape:export-filename="/home/alumno/Dropbox/huayra/Huayra_3.0/conectar_educativo.png"
       inkscape:export-xdpi="90"
       inkscape:export-ydpi="90">
      <path
         inkscape:connector-curvature="0"
         id="path3832-1-4"
         d="m 231.83209,269.72198 c -8e-5,3.97134 -0.77713,7.68367 -2.33098,11.13694 -1.38134,3.28071 -3.36704,6.21601 -5.95703,8.80605 -2.59024,2.58996 -5.61168,4.66201 -9.06498,6.21593 -3.45353,1.38132 -7.07951,2.07201 -10.87784,2.07201 l -67.59897,0 c -26.41789,0 -48.950908,-9.32397 -67.598847,-27.97193 -18.647955,-18.64788 -27.971831,-41.26717 -27.971831,-67.85786 0,-26.41784 9.323876,-48.95079 27.971831,-67.59887 18.820737,-18.82043 41.353437,-28.23076 67.598847,-28.23096 l 67.59897,0 c 3.79833,2e-4 7.42431,0.77722 10.87784,2.33102 3.4533,1.38151 6.47474,3.36718 9.06498,5.95696 2.58999,2.5902 4.57569,5.61186 5.95703,9.06499 1.55385,3.45351 2.3309,7.07951 2.33098,10.87799 -8e-5,3.97148 -0.77713,7.68381 -2.33098,11.13695 -1.38134,3.28084 -3.36704,6.21614 -5.95703,8.80605 -2.59024,2.59008 -5.61168,4.66209 -9.06498,6.21596 -3.45353,1.38144 -7.07951,2.07214 -10.87784,2.07201 l -67.59897,0 c -10.878,1.3e-4 -20.20193,3.88507 -27.97195,11.65495 -7.59727,7.59741 -11.396004,16.83508 -11.395826,27.71295 -1.78e-4,10.70545 3.798556,20.02939 11.395826,27.97194 7.94263,7.59735 17.2665,11.39608 27.97195,11.39595 l 67.59897,0 c 3.79833,1.3e-4 7.42431,0.77709 10.87784,2.33103 3.4533,1.38138 6.47474,3.36704 9.06498,5.95701 2.58999,2.59002 4.57569,5.61167 5.95703,9.06493 1.55385,3.45339 2.3309,7.07938 2.33098,10.878"
         style="font-size:40px;font-style:normal;font-variant:normal;font-weight:normal;font-stretch:normal;line-height:125%;letter-spacing:0px;word-spacing:0px;fill:#ff9955;fill-opacity:1;stroke:none;font-family:Technique BRK;-inkscape-font-specification:Technique BRK" />
      <path
         inkscape:connector-curvature="0"
         id="path3822-2-7"
         d="m 231.83209,202.12312 c -8e-5,3.97147 -0.77713,7.68374 -2.33098,11.137 -1.38134,3.28072 -3.36704,6.21602 -5.95703,8.80599 -2.59024,2.59002 -5.61168,4.66203 -9.06498,6.21596 -3.45353,1.38137 -7.07951,2.07207 -10.87784,2.072 l -67.59897,0 c -7.59741,7e-5 -14.15865,-2.76264 -19.68397,-8.28796 -5.52527,-5.52527 -8.28798,-12.17298 -8.28798,-19.94299 0,-3.79855 0.6907,-7.42455 2.07214,-10.87799 1.5538,-3.45321 3.53948,-6.47486 5.95701,-9.06494 2.58984,-2.5899 5.52514,-4.57557 8.80592,-5.95701 3.45314,-1.55387 7.16541,-2.33089 11.13688,-2.33102 l 67.59897,0 c 3.79833,1.3e-4 7.42431,0.77715 10.87784,2.33102 3.4533,1.38144 6.47474,3.36711 9.06498,5.95701 2.58999,2.59008 4.57569,5.61173 5.95703,9.06494 1.55385,3.45344 2.3309,7.07944 2.33098,10.87799"
         style="font-size:40px;font-style:normal;font-variant:normal;font-weight:normal;font-stretch:normal;line-height:125%;letter-spacing:0px;word-spacing:0px;fill:#aa4400;fill-opacity:1;stroke:none;font-family:Technique BRK;-inkscape-font-specification:Technique BRK" />
    </g>
  </g>
</svg>
