<?xml version="1.0" encoding="UTF-8" standalone="no"?>
<!-- Created with Inkscape (http://www.inkscape.org/) -->

<svg
   xmlns:dc="http://purl.org/dc/elements/1.1/"
   xmlns:cc="http://creativecommons.org/ns#"
   xmlns:rdf="http://www.w3.org/1999/02/22-rdf-syntax-ns#"
   xmlns:svg="http://www.w3.org/2000/svg"
   xmlns="http://www.w3.org/2000/svg"
   xmlns:xlink="http://www.w3.org/1999/xlink"
   xmlns:sodipodi="http://sodipodi.sourceforge.net/DTD/sodipodi-0.dtd"
   xmlns:inkscape="http://www.inkscape.org/namespaces/inkscape"
   id="svg7384"
   sodipodi:docname="nm-stage03-connecting06.svg"
   version="1.1"
   inkscape:version="0.48.3.1 r9886"
   height="16"
   width="16">
  <metadata
     id="metadata90">
    <rdf:RDF>
      <cc:Work
         rdf:about="">
        <dc:format>image/svg+xml</dc:format>
        <dc:type
           rdf:resource="http://purl.org/dc/dcmitype/StillImage" />
        <dc:title>Gnome Symbolic Icon Theme</dc:title>
      </cc:Work>
    </rdf:RDF>
  </metadata>
  <sodipodi:namedview
     inkscape:cy="8.6712612"
     pagecolor="#555753"
     borderopacity="1"
     showborder="true"
     inkscape:bbox-paths="false"
     guidetolerance="10"
     inkscape:object-paths="true"
     inkscape:window-width="1434"
     showguides="true"
     inkscape:object-nodes="true"
     inkscape:snap-bbox="true"
     inkscape:pageshadow="2"
     inkscape:guide-bbox="true"
     inkscape:snap-nodes="false"
     bordercolor="#666666"
     objecttolerance="10"
     id="namedview88"
     showgrid="true"
     inkscape:window-maximized="1"
     inkscape:window-x="0"
     inkscape:snap-global="false"
     inkscape:window-y="26"
     gridtolerance="10"
     inkscape:window-height="850"
     inkscape:snap-to-guides="true"
     inkscape:current-layer="layer9"
     inkscape:snap-bbox-midpoints="false"
     inkscape:zoom="32"
     inkscape:cx="10.17425"
     inkscape:snap-grids="true"
     inkscape:pageopacity="0"
     borderlayer="true">
    <inkscape:grid
       spacingx="1px"
       spacingy="1px"
       id="grid4866"
       empspacing="2"
       enabled="true"
       type="xygrid"
       snapvisiblegridlinesonly="true"
       visible="true" />
  </sodipodi:namedview>
  <title
     id="title9167">Gnome Symbolic Icon Theme</title>
  <defs
     id="defs7386">
    <linearGradient
       inkscape:collect="always"
       id="linearGradient4467">
      <stop
         style="stop-color:#808080;stop-opacity:1;"
         offset="0"
         id="stop4469" />
      <stop
         style="stop-color:#808080;stop-opacity:0;"
         offset="1"
         id="stop4471" />
    </linearGradient>
    <radialGradient
       inkscape:collect="always"
       xlink:href="#linearGradient4467"
       id="radialGradient4473"
       cx="1.7449667"
       cy="3.5274408"
       fx="1.7449667"
       fy="3.5274408"
       r="2.1976941"
       gradientTransform="matrix(1,0,0,0.93049596,0,0.16487803)"
       gradientUnits="userSpaceOnUse" />
    <radialGradient
       inkscape:collect="always"
       xlink:href="#linearGradient4467"
       id="radialGradient4535"
       gradientUnits="userSpaceOnUse"
       gradientTransform="matrix(3.0234266,0,0,2.8132862,1.08581,1.26086)"
       cx="1.7449667"
       cy="3.5274408"
       fx="1.7449667"
       fy="3.5274408"
       r="2.1976941" />
    <radialGradient
       inkscape:collect="always"
       xlink:href="#linearGradient4467"
       id="radialGradient4553"
       gradientUnits="userSpaceOnUse"
       gradientTransform="matrix(3.0234266,0,0,2.8132862,1.08581,1.26086)"
       cx="1.7449667"
       cy="3.5274408"
       fx="1.7449667"
       fy="3.5274408"
       r="2.1976941" />
    <radialGradient
       inkscape:collect="always"
       xlink:href="#linearGradient4467"
       id="radialGradient4560"
       gradientUnits="userSpaceOnUse"
       gradientTransform="matrix(0.96179895,0.09725891,-0.09485007,0.93797777,5.0178598,7.7061853)"
       cx="1.7449667"
       cy="3.5274408"
       fx="1.7449667"
       fy="3.5274408"
       r="2.1976941" />
    <radialGradient
       inkscape:collect="always"
       xlink:href="#linearGradient4467"
       id="radialGradient4568"
       gradientUnits="userSpaceOnUse"
       gradientTransform="matrix(6.5492238,-0.27482946,0.20503611,4.8860387,-5.7898415,-5.5710837)"
       cx="1.7449667"
       cy="3.5274408"
       fx="1.7449667"
       fy="3.5274408"
       r="2.1976941" />
    <radialGradient
       inkscape:collect="always"
       xlink:href="#linearGradient4467"
       id="radialGradient4574"
       gradientUnits="userSpaceOnUse"
       gradientTransform="matrix(1.6060873,-0.18178462,0.1796269,1.5870237,2.9253968,5.9036359)"
       cx="1.7449667"
       cy="3.5274408"
       fx="1.7449667"
       fy="3.5274408"
       r="2.1976941" />
  </defs>
  <g
     inkscape:label="01"
     transform="translate(-341.0002,-177)"
     inkscape:groupmode="layer"
     id="layer9"
     style="display:inline">
    <g
       id="g2994"
       transform="matrix(3.0234266,0,0,3.0234266,342.08601,177.76236)"
       style="fill:#808080;fill-rule:evenodd;opacity:0.35">
      <path
         sodipodi:nodetypes="ccccc"
         style="fill:#808080;fill-opacity:1"
         inkscape:connector-curvature="0"
         d="M 0.67062907,3.1466295 0.96315753,3.436604 C 1.4643536,2.1285285 2.9137173,3.0231678 2.3709066,3.891 L 2.767349,4.0396257 C 3.5316128,2.8534265 1.7399119,1.2088624 0.67062907,3.1466295 z"
         class="fil0"
         id="_121731384" />
      <path
         sodipodi:nodetypes="zsccz"
         style="fill:#808080;fill-opacity:1"
         inkscape:connector-curvature="0"
         d="M 0.1777958,2.5586559 C -0.01275712,2.3374532 0.11748395,2.4022267 0.31580842,2.5444209 0.51413288,2.686615 0.81410198,2.8425452 1.1021572,3.1460838 L 0.96046525,3.4267024 C 0.50016423,3.0157207 0.36834871,2.7798588 0.1777958,2.5586559 z"
         class="fil0"
         id="_121328256" />
      <path
         sodipodi:open="true"
         sodipodi:end="12.46847"
         sodipodi:start="6.2071318"
         transform="matrix(0.13834256,0,0,0.13834256,0.19919495,1.7915877)"
         d="m 13.844562,12.550547 c 0.112017,1.470034 -0.988873,2.752541 -2.458908,2.864558 -1.4700343,0.112018 -2.7525408,-0.988873 -2.8645582,-2.458907 -0.1120173,-1.470035 0.9888732,-2.752542 2.4589082,-2.864559 1.447376,-0.1102906 2.717609,0.956188 2.859492,2.40081"
         sodipodi:ry="2.6694496"
         sodipodi:rx="2.6694496"
         sodipodi:cy="12.753372"
         sodipodi:cx="11.182829"
         id="path3582"
         style="fill:#808080;fill-opacity:1;stroke:none"
         sodipodi:type="arc" />
      <path
         sodipodi:nodetypes="zsccz"
         style="fill:#808080;fill-opacity:1;fill-rule:evenodd"
         inkscape:connector-curvature="0"
         d="M 0.4247675,1.3417552 C 0.30865975,1.051719 0.40976238,1.1514637 0.55275704,1.3529974 0.69575091,1.5545312 1.0526419,2.1606454 1.2359221,2.5639276 L 0.96710859,2.750389 C 0.74796061,2.1419236 0.54087506,1.6317917 0.4247675,1.3417552 z"
         class="fil0"
         id="_121328256-7" />
      <path
         sodipodi:nodetypes="zsccz"
         style="fill:#808080;fill-opacity:1;fill-rule:evenodd"
         inkscape:connector-curvature="0"
         d="M 1.44312,0.58246558 C 1.43361,0.2701971 1.521214,0.39282353 1.5594765,0.63695278 1.6013875,0.90435635 1.7053444,1.7413136 1.7506921,2.2817189 l -0.3164814,0.082874 c 0.003,-0.6467199 0.018418,-1.46985881 0.00891,-1.78212772 z"
         class="fil0"
         id="_121328256-7-9" />
      <path
         sodipodi:nodetypes="zsccz"
         style="fill:#808080;fill-opacity:1;fill-rule:evenodd"
         inkscape:connector-curvature="0"
         d="M 2.4423509,0.52194906 C 2.5291241,0.19808085 2.5810366,0.32015476 2.5788735,0.5833539 2.5767086,0.84655178 2.4931372,1.8976838 2.1801821,2.4013588 L 1.8869765,2.2775017 c 0.307833,-0.6143974 0.4686,-1.43168421 0.5553744,-1.75555264 z"
         class="fil0"
         id="_121328256-7-4" />
      <path
         sodipodi:nodetypes="zsccz"
         style="fill:#808080;fill-opacity:1;fill-rule:evenodd"
         inkscape:connector-curvature="0"
         d="M 3.6839051,1.1452392 C 3.9311577,0.7718015 3.8949861,1.029192 3.7754429,1.2636867 3.5368401,1.7317274 2.9264141,2.4275569 2.4666837,2.7714357 L 2.2400615,2.4692892 C 2.8122122,2.0577751 3.4366526,1.5186768 3.6839051,1.1452392 z"
         class="fil0"
         id="_121328256-7-4-9" />
      <path
         sodipodi:nodetypes="zsccz"
         style="fill:#808080;fill-opacity:1;fill-rule:evenodd"
         inkscape:connector-curvature="0"
         d="m 4.2265513,3.0597007 c 0.4091243,-0.09358 0.2522344,0.074602 0.024419,0.1707759 C 4.0062521,3.3337885 3.127026,3.6011424 2.5719027,3.6165508 l 0.00603,-0.3830989 c 0.653125,-5.32e-4 1.239497,-0.080171 1.6486213,-0.1737512 z"
         class="fil0"
         id="_121328256-7-4-9-1" />
      <path
         sodipodi:nodetypes="zsccz"
         style="fill:#808080;fill-opacity:1;fill-rule:evenodd"
         inkscape:connector-curvature="0"
         d="M 3.9700033,4.2976494 C 4.2626923,4.4304234 4.1316091,4.4287597 3.9491295,4.4043056 3.7042093,4.3714838 3.1539385,4.1823832 2.7531868,4.0349335 L 2.8590012,3.7253663 c 0.5571017,0.2920484 0.8183128,0.4395089 1.1110017,0.572283 z"
         class="fil0"
         id="_121328256-9" />
      <path
         inkscape:transform-center-x="-0.069049672"
         inkscape:transform-center-y="0.95298244"
         sodipodi:nodetypes="zsccz"
         style="fill:#808080;fill-opacity:1;fill-rule:evenodd"
         inkscape:connector-curvature="0"
         d="M 4.1962848,2.076334 C 4.5907234,1.8600715 4.4775437,2.0697011 4.2705883,2.2323244 4.0482794,2.4070154 3.2196806,2.935215 2.6523716,3.1218067 L 2.5483179,2.7530525 C 3.2208399,2.5503733 3.801846,2.2925963 4.1962848,2.076334 z"
         class="fil0"
         id="_121328256-7-4-9-1-7" />
    </g>
  </g>
  <g
     style="display:none"
     id="g3351"
     inkscape:groupmode="layer"
     transform="translate(-341.0002,-177)"
     inkscape:label="02">
    <path
       sodipodi:nodetypes="ccccc"
       style="fill:#808080;fill-opacity:1;fill-rule:evenodd"
       inkscape:connector-curvature="0"
       d="m 343.97717,187.77768 1.0066,0.73323 c 0.90127,-4.13823 5.64126,-2.12548 4.41478,0.71593 l 1.25269,0.26336 c 1.74313,-3.89397 -4.36214,-7.99193 -6.67407,-1.71252 z"
       class="fil0"
       id="path3355" />
    <path
       sodipodi:nodetypes="zsccz"
       style="fill:#808080;fill-opacity:1;fill-rule:evenodd"
       inkscape:connector-curvature="0"
       d="m 342.34646,186.11257 c -0.2285,-0.79518 0.23451,-0.52841 0.60487,-0.0171 0.43282,0.59752 1.11707,0.97309 2.31535,1.48373 l -0.29548,0.90336 c -1.89469,-0.62062 -2.39625,-1.5748 -2.62474,-2.36998 z"
       class="fil0"
       id="path3357" />
    <path
       sodipodi:open="true"
       sodipodi:end="12.46847"
       sodipodi:start="6.2071318"
       transform="matrix(0.41348024,-0.06310861,0.06310861,0.41348024,341.95001,183.94277)"
       d="m 13.844562,12.550547 c 0.112017,1.470034 -0.988873,2.752541 -2.458908,2.864558 -1.4700343,0.112018 -2.7525408,-0.988873 -2.8645582,-2.458907 -0.1120173,-1.470035 0.9888732,-2.752542 2.4589082,-2.864559 1.447376,-0.1102906 2.717609,0.956188 2.859492,2.40081"
       sodipodi:ry="2.6694496"
       sodipodi:rx="2.6694496"
       sodipodi:cy="12.753372"
       sodipodi:cx="11.182829"
       id="path3359"
       style="fill:#808080;fill-opacity:1;fill-rule:evenodd;stroke:none"
       sodipodi:type="arc" />
    <path
       sodipodi:nodetypes="zsccz"
       style="fill:#808080;fill-opacity:1;fill-rule:evenodd"
       inkscape:connector-curvature="0"
       d="m 349.5999,179.61091 c 1.12808,-0.54352 0.88673,-0.20884 0.43606,0.12125 -1.4869,1.08907 -1.57914,3.41497 -1.88699,5.12942 l -0.93283,-0.23643 c 0.0432,-2.15353 1.25568,-4.47072 2.38376,-5.01424 z"
       class="fil0"
       id="path3365" />
    <path
       sodipodi:nodetypes="scczs"
       style="fill:#808080;fill-opacity:1;fill-rule:evenodd"
       inkscape:connector-curvature="0"
       d="m 353.62056,190.85865 c -0.51168,-0.54441 -1.83711,-0.74248 -3.01375,-1.37601 l 0.17504,-0.97351 c 1.7983,0.61874 2.40428,1.13151 3.07339,1.94389 0.66912,0.81237 0.23345,0.90372 -0.23468,0.40563 z"
       class="fil0"
       id="path3371" />
    <path
       sodipodi:nodetypes="zsccz"
       style="fill:#808080;fill-opacity:1;fill-rule:evenodd;display:inline"
       inkscape:connector-curvature="0"
       d="m 352.95728,181.55787 c 1.88968,-0.0525 0.70428,0.34183 0.15145,0.42212 -1.78364,0.25907 -2.74266,1.7469 -3.67491,3.5123 l -0.71292,-0.64638 c 0.71889,-1.79921 2.3467,-3.23554 4.23638,-3.28804 z"
       class="fil0"
       id="path3365-8"
       inkscape:transform-center-x="-2.404496"
       inkscape:transform-center-y="-1.4267128" />
    <path
       sodipodi:nodetypes="zsccz"
       style="fill:#808080;fill-opacity:1;fill-rule:evenodd;display:inline"
       inkscape:connector-curvature="0"
       d="m 354.69169,184.32404 c 1.19102,0.54114 0.0867,0.39294 -0.4442,0.30753 -1.16613,-0.1876 -2.61665,1.27698 -4.09175,1.91032 l -0.39039,-0.87958 c 2.07691,-1.5132 3.73532,-1.87941 4.92634,-1.33827 z"
       class="fil0"
       id="path3365-8-4"
       inkscape:transform-center-x="-2.7403347"
       inkscape:transform-center-y="-0.64770315" />
    <path
       sodipodi:nodetypes="zsccz"
       style="fill:#808080;fill-opacity:1;fill-rule:evenodd;display:inline"
       inkscape:connector-curvature="0"
       d="m 354.78008,187.67284 c 1.46827,1.52858 0.49205,0.74727 0.0434,0.45091 -2.07012,-1.36755 -3.00764,0.0239 -4.73373,0.015 l -0.11347,-0.95561 c 1.99812,-0.18035 3.33552,-1.03886 4.8038,0.4897 z"
       class="fil0"
       id="path3365-8-4-3"
       inkscape:transform-center-x="-2.7962904"
       inkscape:transform-center-y="-0.039009584" />
    <path
       sodipodi:nodetypes="cscczc"
       style="fill:#808080;fill-opacity:1;fill-rule:evenodd;display:inline"
       inkscape:connector-curvature="0"
       d="m 345.99298,180.07183 c 0.47264,-0.73342 0.71759,-0.56729 0.4456,-0.0793 -1.25507,2.25146 -8.7e-4,3.53922 0.38543,4.93266 l -0.94329,0.19044 c -0.76459,-1.7496 -1.33263,-3.40435 0.11228,-5.04375 z"
       class="fil0"
       id="path3365-1"
       inkscape:transform-center-x="0.3567379"
       inkscape:transform-center-y="-2.9007143" />
    <path
       sodipodi:nodetypes="cscczc"
       style="fill:#808080;fill-opacity:1;fill-rule:evenodd;display:inline"
       inkscape:connector-curvature="0"
       d="m 343.21269,181.83371 c 0.20861,-0.81393 0.49422,-0.74057 0.3956,-0.21242 -0.45519,2.43687 1.14931,3.20875 1.96744,4.35016 l -0.83012,0.47012 c -1.29159,-1.34499 -2.36649,-2.66595 -1.53288,-4.60782 z"
       class="fil0"
       id="path3365-1-1"
       inkscape:transform-center-x="0.95455639"
       inkscape:transform-center-y="-2.5888237" />
  </g>
  <g
     inkscape:label="02 copia"
     transform="translate(-341.0002,-177)"
     inkscape:groupmode="layer"
     id="g3499"
     style="display:none">
    <path
       id="path3501"
       class="fil0"
       d="m 343.92737,188.72356 1.16717,0.43427 c -0.24934,-4.22789 4.85802,-3.56947 4.44414,-0.50245 l 1.27728,-0.0846 c 0.6272,-4.21997 -6.35767,-6.51762 -6.88859,0.15277 z"
       inkscape:connector-curvature="0"
       style="fill:#808080;fill-opacity:1;fill-rule:evenodd"
       sodipodi:nodetypes="ccccc" />
    <path
       id="path3503"
       class="fil0"
       d="m 341.9077,187.5605 c -0.43468,-0.70397 0.0832,-0.5721 0.57779,-0.17976 0.57806,0.4585 1.33829,0.6354 2.62994,0.8036 l -0.0407,0.94959 c -1.99188,-0.0861 -2.73241,-0.86945 -3.16708,-1.57342 z"
       inkscape:connector-curvature="0"
       style="fill:#808080;fill-opacity:1;fill-rule:evenodd"
       sodipodi:nodetypes="zsccz" />
    <path
       sodipodi:type="arc"
       style="fill:#808080;fill-opacity:1;fill-rule:evenodd;stroke:none"
       id="path3505"
       sodipodi:cx="11.182829"
       sodipodi:cy="12.753372"
       sodipodi:rx="2.6694496"
       sodipodi:ry="2.6694496"
       d="m 13.844562,12.550547 c 0.112017,1.470034 -0.988873,2.752541 -2.458908,2.864558 -1.4700343,0.112018 -2.7525408,-0.988873 -2.8645582,-2.458907 -0.1120173,-1.470035 0.9888732,-2.752542 2.4589082,-2.864559 1.447376,-0.1102906 2.717609,0.956188 2.859492,2.40081"
       transform="matrix(0.38109197,-0.17238768,0.17238768,0.38109197,340.94021,185.57828)"
       sodipodi:start="6.2071318"
       sodipodi:end="12.46847"
       sodipodi:open="true" />
    <path
       id="path3507"
       class="fil0"
       d="m 347.13666,179.34211 c 0.93947,-0.82787 0.79743,-0.44047 0.4526,-9.7e-4 -1.13769,1.45004 -0.59861,3.71448 -0.4322,5.44838 l -0.96202,0.0242 c -0.53977,-2.08524 0.002,-4.64372 0.94162,-5.47159 z"
       inkscape:connector-curvature="0"
       style="fill:#808080;fill-opacity:1;fill-rule:evenodd"
       sodipodi:nodetypes="zsccz" />
    <path
       id="path3509"
       class="fil0"
       d="m 354.04446,189.08684 c -0.63965,-0.38607 -1.96934,-0.21897 -3.27332,-0.51134 l -0.0943,-0.98462 c 1.89857,0.1103 2.62047,0.44045 3.48405,1.04203 0.86358,0.60158 0.46875,0.80715 -0.11646,0.45393 z"
       inkscape:connector-curvature="0"
       style="fill:#808080;fill-opacity:1;fill-rule:evenodd"
       sodipodi:nodetypes="scczs" />
    <path
       inkscape:transform-center-y="-1.4267128"
       inkscape:transform-center-x="-2.404496"
       id="path3511"
       class="fil0"
       d="m 350.89499,180.31043 c 1.80534,-0.56068 0.77041,0.13902 0.25978,0.36557 -1.64748,0.73095 -2.16924,2.42244 -2.5903,4.37396 l -0.86094,-0.42992 c 0.20648,-1.92648 1.38611,-3.74892 3.19146,-4.30961 z"
       inkscape:connector-curvature="0"
       style="fill:#808080;fill-opacity:1;fill-rule:evenodd;display:inline"
       sodipodi:nodetypes="zsccz" />
    <path
       inkscape:transform-center-y="-0.64770315"
       inkscape:transform-center-x="-2.7403347"
       id="path3513"
       class="fil0"
       d="m 353.31175,182.50568 c 1.29288,0.19953 0.18956,0.35495 -0.34469,0.41603 -1.17348,0.13417 -2.17477,1.93595 -3.42412,2.94399 l -0.61335,-0.74153 c 1.5913,-2.0177 3.08927,-2.81801 4.38216,-2.61849 z"
       inkscape:connector-curvature="0"
       style="fill:#808080;fill-opacity:1;fill-rule:evenodd;display:inline"
       sodipodi:nodetypes="zsccz" />
    <path
       inkscape:transform-center-y="-0.039009584"
       inkscape:transform-center-x="-2.7962904"
       id="path3515"
       class="fil0"
       d="m 354.30089,185.70629 c 1.82641,1.07545 0.67551,0.58669 0.16352,0.42245 -2.36244,-0.75793 -2.88952,0.83495 -4.55393,1.29235 l -0.36723,-0.8895 c 1.87525,-0.71306 2.93123,-1.90074 4.75764,-0.8253 z"
       inkscape:connector-curvature="0"
       style="fill:#808080;fill-opacity:1;fill-rule:evenodd;display:inline"
       sodipodi:nodetypes="zsccz" />
    <path
       inkscape:transform-center-y="-2.9007143"
       inkscape:transform-center-x="0.3567379"
       id="path3517"
       class="fil0"
       d="m 343.78809,180.75963 c 0.2571,-0.83378 0.5378,-0.73994 0.40765,-0.19665 -0.60068,2.50669 0.9546,3.40805 1.70272,4.64547 l -0.85685,0.43802 c -1.20852,-1.47823 -2.20219,-2.9182 -1.25349,-4.8868 z"
       inkscape:connector-curvature="0"
       style="fill:#808080;fill-opacity:1;fill-rule:evenodd;display:inline"
       sodipodi:nodetypes="cscczc" />
    <path
       inkscape:transform-center-y="-2.5888237"
       inkscape:transform-center-x="0.95455639"
       id="path3519"
       class="fil0"
       d="m 341.58666,183.20666 c -0.0189,-0.84003 0.27594,-0.84649 0.32356,-0.31133 0.21957,2.46928 1.97287,2.77935 3.06876,3.65752 l -0.67239,0.67676 c -1.60673,-0.94637 -2.99832,-1.92811 -2.71988,-4.02292 z"
       inkscape:connector-curvature="0"
       style="fill:#808080;fill-opacity:1;fill-rule:evenodd;display:inline"
       sodipodi:nodetypes="cscczc" />
  </g>
  <g
     inkscape:label="02 copia copia copia"
     transform="translate(-341.0002,-177)"
     inkscape:groupmode="layer"
     id="g3557"
     style="display:none">
    <path
       id="path3561"
       class="fil0"
       d="m 343.94688,188.90063 1.18788,0.3739 c -0.4656,-4.20957 4.66878,-3.81365 4.41256,-0.72946 l 1.27127,-0.14991 c 0.4102,-4.24656 -6.68321,-6.18337 -6.87171,0.50547 z"
       inkscape:connector-curvature="0"
       style="fill:#808080;fill-opacity:1;fill-rule:evenodd"
       sodipodi:nodetypes="ccccc" />
    <path
       id="path3563"
       class="fil0"
       d="m 341.87027,187.84255 c -0.47017,-0.68077 0.0537,-0.5756 0.56783,-0.20911 0.60078,0.42827 1.36908,0.566 2.66764,0.66781 l 0.008,0.95042 c -1.99368,0.0161 -2.77336,-0.72832 -3.24353,-1.40911 z"
       inkscape:connector-curvature="0"
       style="fill:#808080;fill-opacity:1;fill-rule:evenodd"
       sodipodi:nodetypes="zsccz" />
    <path
       sodipodi:type="arc"
       style="fill:#808080;fill-opacity:1;fill-rule:evenodd;stroke:none"
       id="path3565"
       sodipodi:cx="11.182829"
       sodipodi:cy="12.753372"
       sodipodi:rx="2.6694496"
       sodipodi:ry="2.6694496"
       d="m 13.844562,12.550547 c 0.112017,1.470034 -0.988873,2.752541 -2.458908,2.864558 -1.4700343,0.112018 -2.7525408,-0.988873 -2.8645582,-2.458907 -0.1120173,-1.470035 0.9888732,-2.752542 2.4589082,-2.864559 1.447376,-0.1102906 2.717609,0.956188 2.859492,2.40081"
       transform="matrix(0.37176037,-0.1916842,0.1916842,0.37176037,340.80251,185.9125)"
       sodipodi:start="6.2071318"
       sodipodi:end="12.46847"
       sodipodi:open="true" />
    <path
       id="path3567"
       class="fil0"
       d="m 346.67135,179.36708 c 0.89582,-0.87491 0.77382,-0.48074 0.45196,-0.0241 -1.06192,1.50641 -0.40754,3.74027 -0.15252,5.46337 l -0.95952,0.0734 c -0.64589,-2.05484 -0.23574,-4.63772 0.66008,-5.51264 z"
       inkscape:connector-curvature="0"
       style="fill:#808080;fill-opacity:1;fill-rule:evenodd"
       sodipodi:nodetypes="zsccz" />
    <path
       id="path3569"
       class="fil0"
       d="m 354.06929,188.74514 c -0.65859,-0.35279 -1.97798,-0.1178 -3.29522,-0.34298 l -0.14458,-0.9785 c 1.90172,0.0129 2.63959,0.30563 3.53285,0.86218 0.89327,0.55655 0.50948,0.78208 -0.093,0.4593 z"
       inkscape:connector-curvature="0"
       style="fill:#808080;fill-opacity:1;fill-rule:evenodd"
       sodipodi:nodetypes="scczs" />
    <path
       inkscape:transform-center-y="-1.4267128"
       inkscape:transform-center-x="-2.404496"
       id="path3571"
       class="fil0"
       d="m 350.47435,180.1416 c 1.77425,-0.65243 0.77652,0.0994 0.27816,0.35177 -1.60787,0.8144 -2.04229,2.53039 -2.36282,4.50092 l -0.88184,-0.38525 c 0.10753,-1.93453 1.19224,-3.81501 2.9665,-4.46744 z"
       inkscape:connector-curvature="0"
       style="fill:#808080;fill-opacity:1;fill-rule:evenodd;display:inline"
       sodipodi:nodetypes="zsccz" />
    <path
       inkscape:transform-center-y="-0.64770315"
       inkscape:transform-center-x="-2.7403347"
       id="path3573"
       class="fil0"
       d="m 353.0004,182.21016 c 1.3014,0.13303 0.20749,0.34477 -0.32293,0.43314 -1.16506,0.19411 -2.07273,2.04482 -3.26881,3.11554 l -0.65053,-0.70914 c 1.48585,-2.09657 2.94086,-2.97257 4.24227,-2.83954 z"
       inkscape:connector-curvature="0"
       style="fill:#808080;fill-opacity:1;fill-rule:evenodd;display:inline"
       sodipodi:nodetypes="zsccz" />
    <path
       inkscape:transform-center-y="-0.039009584"
       inkscape:transform-center-x="-2.7962904"
       id="path3575"
       class="fil0"
       d="m 354.1522,185.35589 c 1.87911,0.98048 0.70468,0.55132 0.18495,0.41352 -2.39817,-0.63591 -2.84296,0.98188 -4.48175,1.52395 l -0.41231,-0.86952 c 1.83625,-0.80819 2.83001,-2.04841 4.70911,-1.06795 z"
       inkscape:connector-curvature="0"
       style="fill:#808080;fill-opacity:1;fill-rule:evenodd;display:inline"
       sodipodi:nodetypes="zsccz" />
    <path
       inkscape:transform-center-y="-2.9007143"
       inkscape:transform-center-x="0.3567379"
       id="path3577"
       class="fil0"
       d="m 343.39979,180.95429 c 0.21405,-0.84586 0.49919,-0.76653 0.39704,-0.21728 -0.47147,2.53417 1.12794,3.35468 1.93847,4.55215 l -0.83329,0.48133 c -1.28266,-1.41438 -2.34878,-2.80155 -1.50218,-4.81616 z"
       inkscape:connector-curvature="0"
       style="fill:#808080;fill-opacity:1;fill-rule:evenodd;display:inline"
       sodipodi:nodetypes="cscczc" />
    <path
       inkscape:transform-center-y="-2.5888237"
       inkscape:transform-center-x="0.95455639"
       id="path3579"
       class="fil0"
       d="m 341.8266,184.19838 c -0.0619,-0.83796 0.23222,-0.85952 0.3072,-0.3275 0.34577,2.45479 1.61266,1.98714 2.7521,2.80801 l -0.63684,0.71032 c -1.6531,-0.86282 -2.59316,-1.08448 -2.42241,-3.19081 z"
       inkscape:connector-curvature="0"
       style="fill:#808080;fill-opacity:1;fill-rule:evenodd;display:inline"
       sodipodi:nodetypes="cscczc" />
  </g>
  <g
     style="display:none"
     id="g3533"
     inkscape:groupmode="layer"
     transform="translate(-341.0002,-177)"
     inkscape:label="02 copia copia">
    <g
       id="g3591"
       inkscape:transform-center-x="-0.24299783"
       inkscape:transform-center-y="-4.2325559"
       transform="matrix(0.99989193,0.01470114,-0.01470114,0.99989193,2.8092791,-5.0862653)">
      <path
         id="path3537"
         class="fil0"
         d="m 343.91788,188.29255 1.10443,0.57541 c 0.27596,-4.22623 5.26253,-2.94063 4.47216,0.0516 l 1.27792,0.0742 c 1.14478,-4.10987 -5.50194,-7.25451 -6.85451,-0.70115 z"
         inkscape:connector-curvature="0"
         style="fill:#808080;fill-opacity:1;fill-rule:evenodd"
         sodipodi:nodetypes="ccccc" />
      <path
         id="path3539"
         class="fil0"
         d="m 341.89925,187.79519 c -0.68397,0.4655 -0.15738,0.55627 0.45426,0.39975 0.71478,-0.1829 1.04316,-0.0592 2.29111,0.31394 l 0.35014,-0.8836 c -1.85384,-0.7337 -2.41154,-0.29562 -3.09551,0.16991 z"
         inkscape:connector-curvature="0"
         style="fill:#808080;fill-opacity:1;fill-rule:evenodd"
         sodipodi:nodetypes="zsccz" />
      <path
         sodipodi:type="arc"
         style="fill:#808080;fill-opacity:1;fill-rule:evenodd;stroke:none"
         id="path3541"
         sodipodi:cx="11.182829"
         sodipodi:cy="12.753372"
         sodipodi:rx="2.6694496"
         sodipodi:ry="2.6694496"
         d="m 13.844562,12.550547 c 0.112017,1.470034 -0.988873,2.752541 -2.458908,2.864558 -1.4700343,0.112018 -2.7525408,-0.988873 -2.8645582,-2.458907 -0.1120173,-1.470035 0.9888732,-2.752542 2.4589082,-2.864559 1.447376,-0.1102906 2.717609,0.956188 2.859492,2.40081"
         transform="matrix(0.39950084,-0.12388577,0.12388577,0.39950084,341.34306,184.80168)"
         sodipodi:start="6.2071318"
         sodipodi:end="12.46847"
         sodipodi:open="true" />
      <path
         id="path3543"
         class="fil0"
         d="m 346.11509,179.41179 c -1.03472,-0.70521 -0.84582,-0.33836 -0.44924,0.0551 1.30844,1.29804 1.05383,3.6118 1.10334,5.35297 l 0.95762,-0.0951 c 0.27748,-2.13601 -0.57699,-4.60772 -1.61172,-5.31293 z"
         inkscape:connector-curvature="0"
         style="fill:#808080;fill-opacity:1;fill-rule:evenodd"
         sodipodi:nodetypes="zsccz" />
      <path
         id="path3545"
         class="fil0"
         d="m 354.13875,188.3772 c -0.71806,0.20633 -1.95849,-0.30091 -3.29363,-0.35785 l -0.34722,0.92618 c 1.86189,0.38743 2.64482,0.25644 3.63517,-0.0998 0.99035,-0.3562 0.66259,-0.65741 0.006,-0.46859 z"
         inkscape:connector-curvature="0"
         style="fill:#808080;fill-opacity:1;fill-rule:evenodd"
         sodipodi:nodetypes="scczs" />
      <path
         inkscape:transform-center-y="-2.9227897"
         inkscape:transform-center-x="0.087153873"
         id="path3547"
         class="fil0"
         d="m 349.61227,179.99032 c -0.87661,-1.67488 -0.64213,-0.44781 -0.44236,0.0738 0.64455,1.68316 -0.18586,3.24642 -1.27157,4.92181 l 0.91214,0.30669 c 1.21938,-1.50568 1.67837,-3.62749 0.80178,-5.30238 z"
         inkscape:connector-curvature="0"
         style="fill:#808080;fill-opacity:1;fill-rule:evenodd;display:inline"
         sodipodi:nodetypes="zsccz" />
      <path
         inkscape:transform-center-y="-2.1945273"
         inkscape:transform-center-x="-1.3805545"
         id="path3549"
         class="fil0"
         d="m 352.98403,181.83154 c -0.15444,-1.29905 -0.34814,-0.20179 -0.42777,0.33001 -0.17494,1.16809 -2.01044,2.10611 -3.06133,3.31964 l 0.71976,0.63877 c 2.07182,-1.52015 2.92376,-2.98937 2.76934,-4.28842 z"
         inkscape:connector-curvature="0"
         style="fill:#808080;fill-opacity:1;fill-rule:evenodd;display:inline"
         sodipodi:nodetypes="zsccz" />
      <path
         inkscape:transform-center-y="-1.2552512"
         inkscape:transform-center-x="-1.9652722"
         id="path3551"
         class="fil0"
         d="m 354.48026,185.12192 c 0.69166,-2.0035 0.13321,-0.88476 -0.14972,-0.42753 -1.30554,2.10977 -2.74027,1.23991 -4.30343,1.97204 l 0.29785,0.91506 c 1.88949,-0.67443 3.46365,-0.4561 4.15533,-2.45958 z"
         inkscape:connector-curvature="0"
         style="fill:#808080;fill-opacity:1;fill-rule:evenodd;display:inline"
         sodipodi:nodetypes="zsccz" />
      <path
         inkscape:transform-center-y="-1.7087728"
         inkscape:transform-center-x="2.1780394"
         id="path3553"
         class="fil0"
         d="m 342.41533,181.50252 c -0.85457,-0.17608 -0.90748,0.11513 -0.36862,0.26262 2.48623,0.68038 2.52746,2.4775 3.25184,3.72897 l 0.79645,-0.54013 c -0.71379,-1.77093 -1.49748,-3.33512 -3.67965,-3.4514 z"
         inkscape:connector-curvature="0"
         style="fill:#808080;fill-opacity:1;fill-rule:evenodd;display:inline"
         sodipodi:nodetypes="cscczc" />
      <path
         inkscape:transform-center-y="-0.51735161"
         inkscape:transform-center-x="2.7751037"
         id="path3555"
         class="fil0"
         d="m 341.56987,185.77732 c 2.09237,-0.36183 2.40002,0.72728 3.59336,1.46764 l 0.41382,-0.85958 c -1.42799,-1.1992 -1.65181,-1.54459 -3.06,-1.30696 -1.40818,0.23763 -1.47663,0.79046 -0.94718,0.6989 z"
         inkscape:connector-curvature="0"
         style="fill:#808080;fill-opacity:1;fill-rule:evenodd;display:inline"
         sodipodi:nodetypes="scczs" />
    </g>
  </g>
  <g
     inkscape:label="02 copia copia copia#1"
     transform="translate(-341.0002,-177)"
     inkscape:groupmode="layer"
     id="g3603"
     style="display:none">
    <g
       transform="matrix(0.97958954,0.20100828,-0.20100828,0.97958954,44.987806,-65.97476)"
       inkscape:transform-center-y="-3.9987642"
       inkscape:transform-center-x="-0.943221"
       id="g3605">
      <path
         sodipodi:nodetypes="ccccc"
         style="fill:#808080;fill-opacity:1;fill-rule:evenodd"
         inkscape:connector-curvature="0"
         d="m 343.91788,188.29255 1.10443,0.57541 c 0.27596,-4.22623 5.26253,-2.94063 4.47216,0.0516 l 1.27792,0.0742 c 1.14478,-4.10987 -5.50194,-7.25451 -6.85451,-0.70115 z"
         class="fil0"
         id="path3607" />
      <path
         sodipodi:nodetypes="zsccz"
         style="fill:#808080;fill-opacity:1;fill-rule:evenodd"
         inkscape:connector-curvature="0"
         d="m 341.46134,187.77038 c -0.68397,0.4655 -0.15738,0.55627 0.45426,0.39975 0.71478,-0.1829 1.48107,-0.0344 2.72902,0.33875 l 0.35014,-0.8836 c -1.85384,-0.7337 -2.84945,-0.32043 -3.53342,0.14509 z"
         class="fil0"
         id="path3609" />
      <path
         sodipodi:open="true"
         sodipodi:end="12.46847"
         sodipodi:start="6.2071318"
         transform="matrix(0.39950084,-0.12388577,0.12388577,0.39950084,341.34306,184.80168)"
         d="m 13.844562,12.550547 c 0.112017,1.470034 -0.988873,2.752541 -2.458908,2.864558 -1.4700343,0.112018 -2.7525408,-0.988873 -2.8645582,-2.458907 -0.1120173,-1.470035 0.9888732,-2.752542 2.4589082,-2.864559 1.447376,-0.1102906 2.717609,0.956188 2.859492,2.40081"
         sodipodi:ry="2.6694496"
         sodipodi:rx="2.6694496"
         sodipodi:cy="12.753372"
         sodipodi:cx="11.182829"
         id="path3611"
         style="fill:#808080;fill-opacity:1;fill-rule:evenodd;stroke:none"
         sodipodi:type="arc" />
      <path
         sodipodi:nodetypes="zsccz"
         style="fill:#808080;fill-opacity:1;fill-rule:evenodd"
         inkscape:connector-curvature="0"
         d="m 346.11509,179.41179 c -1.03472,-0.70521 -0.84582,-0.33836 -0.44924,0.0551 1.30844,1.29804 1.05383,3.6118 1.10334,5.35297 l 0.95762,-0.0951 c 0.27748,-2.13601 -0.57699,-4.60772 -1.61172,-5.31293 z"
         class="fil0"
         id="path3613" />
      <path
         sodipodi:nodetypes="scczs"
         style="fill:#808080;fill-opacity:1;fill-rule:evenodd"
         inkscape:connector-curvature="0"
         d="m 354.13875,188.3772 c -0.71806,0.20633 -1.95849,-0.30091 -3.29363,-0.35785 l -0.34722,0.92618 c 1.86189,0.38743 2.64482,0.25644 3.63517,-0.0998 0.99035,-0.3562 0.66259,-0.65741 0.006,-0.46859 z"
         class="fil0"
         id="path3615" />
      <path
         sodipodi:nodetypes="zsccz"
         style="fill:#808080;fill-opacity:1;fill-rule:evenodd;display:inline"
         inkscape:connector-curvature="0"
         d="m 349.61227,179.99032 c -0.87661,-1.67488 -0.64213,-0.44781 -0.44236,0.0738 0.64455,1.68316 -0.18586,3.24642 -1.27157,4.92181 l 0.91214,0.30669 c 1.21938,-1.50568 1.67837,-3.62749 0.80178,-5.30238 z"
         class="fil0"
         id="path3617"
         inkscape:transform-center-x="0.087153873"
         inkscape:transform-center-y="-2.9227897" />
      <path
         sodipodi:nodetypes="zsccz"
         style="fill:#808080;fill-opacity:1;fill-rule:evenodd;display:inline"
         inkscape:connector-curvature="0"
         d="m 352.98403,181.83154 c -0.15444,-1.29905 -0.34814,-0.20179 -0.42777,0.33001 -0.17494,1.16809 -2.01044,2.10611 -3.06133,3.31964 l 0.71976,0.63877 c 2.07182,-1.52015 2.92376,-2.98937 2.76934,-4.28842 z"
         class="fil0"
         id="path3619"
         inkscape:transform-center-x="-1.3805545"
         inkscape:transform-center-y="-2.1945273" />
      <path
         sodipodi:nodetypes="zsccz"
         style="fill:#808080;fill-opacity:1;fill-rule:evenodd;display:inline"
         inkscape:connector-curvature="0"
         d="m 354.48026,185.12192 c 0.69166,-2.0035 0.13321,-0.88476 -0.14972,-0.42753 -1.30554,2.10977 -2.74027,1.23991 -4.30343,1.97204 l 0.29785,0.91506 c 1.88949,-0.67443 3.46365,-0.4561 4.15533,-2.45958 z"
         class="fil0"
         id="path3621"
         inkscape:transform-center-x="-1.9652722"
         inkscape:transform-center-y="-1.2552512" />
      <path
         sodipodi:nodetypes="cscczc"
         style="fill:#808080;fill-opacity:1;fill-rule:evenodd;display:inline"
         inkscape:connector-curvature="0"
         d="m 342.41533,181.50252 c -0.85457,-0.17608 -0.90748,0.11513 -0.36862,0.26262 2.48623,0.68038 2.52746,2.4775 3.25184,3.72897 l 0.79645,-0.54013 c -0.71379,-1.77093 -1.49748,-3.33512 -3.67965,-3.4514 z"
         class="fil0"
         id="path3623"
         inkscape:transform-center-x="2.1780394"
         inkscape:transform-center-y="-1.7087728" />
      <path
         sodipodi:nodetypes="cscczc"
         style="fill:#808080;fill-opacity:1;fill-rule:evenodd;display:inline"
         inkscape:connector-curvature="0"
         d="m 340.87734,185.16259 c -0.79823,0.26236 -0.70603,0.54243 -0.18559,0.40887 2.40116,-0.6164 3.27814,0.93314 4.47148,1.6735 l 0.41382,-0.85958 c -1.42799,-1.1992 -2.81758,-2.18377 -4.69959,-1.22297 z"
         class="fil0"
         id="path3625"
         inkscape:transform-center-x="2.7751037"
         inkscape:transform-center-y="-0.51735161" />
    </g>
  </g>
  <g
     style="display:none"
     id="g3627"
     inkscape:groupmode="layer"
     transform="translate(-341.0002,-177)"
     inkscape:label="02 copia copia copia#2">
    <g
       id="g3629"
       inkscape:transform-center-x="-1.1121048"
       inkscape:transform-center-y="-3.8607725"
       transform="matrix(0.9692168,0.24620882,-0.24620882,0.9692168,57.112992,-79.720107)">
      <path
         id="path3631"
         class="fil0"
         d="m 343.91788,188.29255 1.10443,0.57541 c 0.27596,-4.22623 5.26253,-2.94063 4.47216,0.0516 l 1.27792,0.0742 c 1.14478,-4.10987 -5.50194,-7.25451 -6.85451,-0.70115 z"
         inkscape:connector-curvature="0"
         style="fill:#808080;fill-opacity:1;fill-rule:evenodd"
         sodipodi:nodetypes="ccccc" />
      <path
         id="path3633"
         class="fil0"
         d="m 341.46134,187.77038 c -0.68397,0.4655 -0.15738,0.55627 0.45426,0.39975 0.71478,-0.1829 1.48107,-0.0344 2.72902,0.33875 l 0.35014,-0.8836 c -1.85384,-0.7337 -2.84945,-0.32043 -3.53342,0.14509 z"
         inkscape:connector-curvature="0"
         style="fill:#808080;fill-opacity:1;fill-rule:evenodd"
         sodipodi:nodetypes="zsccz" />
      <path
         sodipodi:type="arc"
         style="fill:#808080;fill-opacity:1;fill-rule:evenodd;stroke:none"
         id="path3635"
         sodipodi:cx="11.182829"
         sodipodi:cy="12.753372"
         sodipodi:rx="2.6694496"
         sodipodi:ry="2.6694496"
         d="m 13.844562,12.550547 c 0.112017,1.470034 -0.988873,2.752541 -2.458908,2.864558 -1.4700343,0.112018 -2.7525408,-0.988873 -2.8645582,-2.458907 -0.1120173,-1.470035 0.9888732,-2.752542 2.4589082,-2.864559 1.447376,-0.1102906 2.717609,0.956188 2.859492,2.40081"
         transform="matrix(0.39950084,-0.12388577,0.12388577,0.39950084,341.34306,184.80168)"
         sodipodi:start="6.2071318"
         sodipodi:end="12.46847"
         sodipodi:open="true" />
      <path
         id="path3637"
         class="fil0"
         d="m 346.11509,179.41179 c -1.03472,-0.70521 -0.84582,-0.33836 -0.44924,0.0551 1.30844,1.29804 1.05383,3.6118 1.10334,5.35297 l 0.95762,-0.0951 c 0.27748,-2.13601 -0.57699,-4.60772 -1.61172,-5.31293 z"
         inkscape:connector-curvature="0"
         style="fill:#808080;fill-opacity:1;fill-rule:evenodd"
         sodipodi:nodetypes="zsccz" />
      <path
         id="path3639"
         class="fil0"
         d="m 354.13875,188.3772 c -0.71806,0.20633 -1.95849,-0.30091 -3.29363,-0.35785 l -0.34722,0.92618 c 1.86189,0.38743 2.64482,0.25644 3.63517,-0.0998 0.99035,-0.3562 0.66259,-0.65741 0.006,-0.46859 z"
         inkscape:connector-curvature="0"
         style="fill:#808080;fill-opacity:1;fill-rule:evenodd"
         sodipodi:nodetypes="scczs" />
      <path
         inkscape:transform-center-y="-2.9227897"
         inkscape:transform-center-x="0.087153873"
         id="path3641"
         class="fil0"
         d="m 349.61227,179.99032 c -0.87661,-1.67488 -0.64213,-0.44781 -0.44236,0.0738 0.64455,1.68316 -0.18586,3.24642 -1.27157,4.92181 l 0.91214,0.30669 c 1.21938,-1.50568 1.67837,-3.62749 0.80178,-5.30238 z"
         inkscape:connector-curvature="0"
         style="fill:#808080;fill-opacity:1;fill-rule:evenodd;display:inline"
         sodipodi:nodetypes="zsccz" />
      <path
         inkscape:transform-center-y="-2.1945273"
         inkscape:transform-center-x="-1.3805545"
         id="path3643"
         class="fil0"
         d="m 352.98403,181.83154 c -0.15444,-1.29905 -0.34814,-0.20179 -0.42777,0.33001 -0.17494,1.16809 -2.01044,2.10611 -3.06133,3.31964 l 0.71976,0.63877 c 2.07182,-1.52015 2.92376,-2.98937 2.76934,-4.28842 z"
         inkscape:connector-curvature="0"
         style="fill:#808080;fill-opacity:1;fill-rule:evenodd;display:inline"
         sodipodi:nodetypes="zsccz" />
      <path
         inkscape:transform-center-y="-1.2552512"
         inkscape:transform-center-x="-1.9652722"
         id="path3645"
         class="fil0"
         d="m 354.48026,185.12192 c 0.69166,-2.0035 0.13321,-0.88476 -0.14972,-0.42753 -1.30554,2.10977 -2.74027,1.23991 -4.30343,1.97204 l 0.29785,0.91506 c 1.88949,-0.67443 3.46365,-0.4561 4.15533,-2.45958 z"
         inkscape:connector-curvature="0"
         style="fill:#808080;fill-opacity:1;fill-rule:evenodd;display:inline"
         sodipodi:nodetypes="zsccz" />
      <path
         inkscape:transform-center-y="-1.7087728"
         inkscape:transform-center-x="2.1780394"
         id="path3647"
         class="fil0"
         d="m 342.41533,181.50252 c -0.85457,-0.17608 -0.90748,0.11513 -0.36862,0.26262 2.48623,0.68038 2.52746,2.4775 3.25184,3.72897 l 0.79645,-0.54013 c -0.71379,-1.77093 -1.49748,-3.33512 -3.67965,-3.4514 z"
         inkscape:connector-curvature="0"
         style="fill:#808080;fill-opacity:1;fill-rule:evenodd;display:inline"
         sodipodi:nodetypes="cscczc" />
      <path
         inkscape:transform-center-y="-0.51735161"
         inkscape:transform-center-x="2.7751037"
         id="path3649"
         class="fil0"
         d="m 340.87734,185.16259 c -0.79823,0.26236 -0.70603,0.54243 -0.18559,0.40887 2.40116,-0.6164 3.27814,0.93314 4.47148,1.6735 l 0.41382,-0.85958 c -1.42799,-1.1992 -2.81758,-2.18377 -4.69959,-1.22297 z"
         inkscape:connector-curvature="0"
         style="fill:#808080;fill-opacity:1;fill-rule:evenodd;display:inline"
         sodipodi:nodetypes="cscczc" />
    </g>
  </g>
  <g
     inkscape:label="02 copia copia copia#3"
     transform="translate(-341.0002,-177)"
     inkscape:groupmode="layer"
     id="g3651"
     style="display:none">
    <g
       transform="matrix(0.93308179,0.35966424,-0.35966424,0.93308179,91.055781,-112.31751)"
       inkscape:transform-center-y="-3.4409294"
       inkscape:transform-center-x="-1.4634395"
       id="g3653">
      <path
         sodipodi:nodetypes="ccccc"
         style="fill:#808080;fill-opacity:1;fill-rule:evenodd"
         inkscape:connector-curvature="0"
         d="m 343.91788,188.29255 1.10443,0.57541 c 0.27596,-4.22623 5.26253,-2.94063 4.47216,0.0516 l 1.27792,0.0742 c 1.14478,-4.10987 -5.50194,-7.25451 -6.85451,-0.70115 z"
         class="fil0"
         id="path3655" />
      <path
         sodipodi:nodetypes="zsccz"
         style="fill:#808080;fill-opacity:1;fill-rule:evenodd"
         inkscape:connector-curvature="0"
         d="m 341.46134,187.77038 c -0.68397,0.4655 -0.15738,0.55627 0.45426,0.39975 0.71478,-0.1829 1.48107,-0.0344 2.72902,0.33875 l 0.35014,-0.8836 c -1.85384,-0.7337 -2.84945,-0.32043 -3.53342,0.14509 z"
         class="fil0"
         id="path3657" />
      <path
         sodipodi:open="true"
         sodipodi:end="12.46847"
         sodipodi:start="6.2071318"
         transform="matrix(0.39950084,-0.12388577,0.12388577,0.39950084,341.34306,184.80168)"
         d="m 13.844562,12.550547 c 0.112017,1.470034 -0.988873,2.752541 -2.458908,2.864558 -1.4700343,0.112018 -2.7525408,-0.988873 -2.8645582,-2.458907 -0.1120173,-1.470035 0.9888732,-2.752542 2.4589082,-2.864559 1.447376,-0.1102906 2.717609,0.956188 2.859492,2.40081"
         sodipodi:ry="2.6694496"
         sodipodi:rx="2.6694496"
         sodipodi:cy="12.753372"
         sodipodi:cx="11.182829"
         id="path3659"
         style="fill:#808080;fill-opacity:1;fill-rule:evenodd;stroke:none"
         sodipodi:type="arc" />
      <path
         sodipodi:nodetypes="zsccz"
         style="fill:#808080;fill-opacity:1;fill-rule:evenodd"
         inkscape:connector-curvature="0"
         d="m 346.11509,179.41179 c -1.03472,-0.70521 -0.84582,-0.33836 -0.44924,0.0551 1.30844,1.29804 1.05383,3.6118 1.10334,5.35297 l 0.95762,-0.0951 c 0.27748,-2.13601 -0.57699,-4.60772 -1.61172,-5.31293 z"
         class="fil0"
         id="path3661" />
      <path
         sodipodi:nodetypes="scczs"
         style="fill:#808080;fill-opacity:1;fill-rule:evenodd"
         inkscape:connector-curvature="0"
         d="m 354.13875,188.3772 c -0.71806,0.20633 -1.95849,-0.30091 -3.29363,-0.35785 l -0.34722,0.92618 c 1.86189,0.38743 2.64482,0.25644 3.63517,-0.0998 0.99035,-0.3562 0.66259,-0.65741 0.006,-0.46859 z"
         class="fil0"
         id="path3663" />
      <path
         sodipodi:nodetypes="zsccz"
         style="fill:#808080;fill-opacity:1;fill-rule:evenodd;display:inline"
         inkscape:connector-curvature="0"
         d="m 349.61227,179.99032 c -0.87661,-1.67488 -0.64213,-0.44781 -0.44236,0.0738 0.64455,1.68316 -0.18586,3.24642 -1.27157,4.92181 l 0.91214,0.30669 c 1.21938,-1.50568 1.67837,-3.62749 0.80178,-5.30238 z"
         class="fil0"
         id="path3665"
         inkscape:transform-center-x="0.087153873"
         inkscape:transform-center-y="-2.9227897" />
      <path
         sodipodi:nodetypes="zsccz"
         style="fill:#808080;fill-opacity:1;fill-rule:evenodd;display:inline"
         inkscape:connector-curvature="0"
         d="m 352.98403,181.83154 c -0.15444,-1.29905 -0.34814,-0.20179 -0.42777,0.33001 -0.17494,1.16809 -2.01044,2.10611 -3.06133,3.31964 l 0.71976,0.63877 c 2.07182,-1.52015 2.92376,-2.98937 2.76934,-4.28842 z"
         class="fil0"
         id="path3667"
         inkscape:transform-center-x="-1.3805545"
         inkscape:transform-center-y="-2.1945273" />
      <path
         sodipodi:nodetypes="zsccz"
         style="fill:#808080;fill-opacity:1;fill-rule:evenodd;display:inline"
         inkscape:connector-curvature="0"
         d="m 354.48026,185.12192 c 0.69166,-2.0035 0.13321,-0.88476 -0.14972,-0.42753 -1.30554,2.10977 -2.74027,1.23991 -4.30343,1.97204 l 0.29785,0.91506 c 1.88949,-0.67443 3.46365,-0.4561 4.15533,-2.45958 z"
         class="fil0"
         id="path3669"
         inkscape:transform-center-x="-1.9652722"
         inkscape:transform-center-y="-1.2552512" />
      <path
         sodipodi:nodetypes="cscczc"
         style="fill:#808080;fill-opacity:1;fill-rule:evenodd;display:inline"
         inkscape:connector-curvature="0"
         d="m 342.41533,181.50252 c -0.85457,-0.17608 -0.90748,0.11513 -0.36862,0.26262 2.48623,0.68038 2.52746,2.4775 3.25184,3.72897 l 0.79645,-0.54013 c -0.71379,-1.77093 -1.49748,-3.33512 -3.67965,-3.4514 z"
         class="fil0"
         id="path3671"
         inkscape:transform-center-x="2.1780394"
         inkscape:transform-center-y="-1.7087728" />
      <path
         sodipodi:nodetypes="cscczc"
         style="fill:#808080;fill-opacity:1;fill-rule:evenodd;display:inline"
         inkscape:connector-curvature="0"
         d="m 340.87734,185.16259 c -0.79823,0.26236 -0.70603,0.54243 -0.18559,0.40887 2.40116,-0.6164 3.27814,0.93314 4.47148,1.6735 l 0.41382,-0.85958 c -1.42799,-1.1992 -2.81758,-2.18377 -4.69959,-1.22297 z"
         class="fil0"
         id="path3673"
         inkscape:transform-center-x="2.7751037"
         inkscape:transform-center-y="-0.51735161" />
    </g>
  </g>
  <g
     style="display:none"
     id="g3675"
     inkscape:groupmode="layer"
     transform="translate(-341.0002,-177)"
     inkscape:label="01 copia">
    <path
       style="fill:url(#radialGradient4560);fill-opacity:1;fill-rule:evenodd;stroke:none"
       d="M 8.71875,1.75 C 8.653076,1.786594 8.5671313,1.9765538 8.46875,2.34375 8.2092659,3.3122165 7.7234027,5.7434718 6.8125,7.59375 6.6960432,7.58726 6.5885075,7.58443 6.46875,7.59375 6.438972,7.59607 6.404862,7.59049 6.375,7.59375 6.2355619,5.9586404 5.9378106,3.4869879 5.8125,2.6875 5.69682,1.94939 5.4087,1.58713 5.4375,2.53125 5.466153,3.4705531 5.44683,5.9243049 5.4375,7.875 5.1980928,7.986645 4.9563937,8.1287003 4.71875,8.3125 4.146145,7.0994044 3.1620645,5.4245081 2.75,4.84375 2.31763,4.23442 2.02396,3.9356 2.375,4.8125 2.7241082,5.6845495 3.3414936,7.2050579 4,9.03125 3.8632733,9.1892988 3.7265314,9.3482763 3.59375,9.53125 3.0040068,9.0665761 2.4425893,8.7636683 2.03125,8.46875 1.43163,8.0388 1.04888,7.83121 1.625,8.5 2.0570975,9.0015925 2.3987881,9.5251291 3.125,10.28125 3.3670706,10.53329 3.6520775,10.814357 4,11.125 L 4.3125,10.5 C 6.0358253,7.5481918 9.7885781,10.071419 8.25,12.53125 l 1.15625,0.4375 0.03125,0 c 1.209381,0.444404 2.858424,1.026493 3.59375,1.125 0.55171,0.07394 0.94743,0.05768 0.0625,-0.34375 -0.857442,-0.388975 -1.670849,-0.826616 -3.25,-1.65625 0.050155,-0.163062 0.06926,-0.336544 0.09375,-0.5 1.569483,-0.238375 3.404694,-0.811187 4,-1.0625 C 14.62631,10.24047 15.11195,9.71707 13.875,10 12.866647,10.230641 11.477117,10.431992 9.9375,10.5 9.9041621,10.311038 9.843706,10.117028 9.78125,9.9375 11.419016,9.2466774 13.411886,7.96214 14,7.5 c 0.469283,-0.3687225 0.783787,-0.7932775 0.40625,-0.71875 -0.125846,0.024843 -0.32686,0.086538 -0.625,0.25 C 12.683635,7.6330532 11.079212,8.3507962 9.25,8.9375 9.1881838,8.8553768 9.0993363,8.7950907 9.03125,8.71875 10.338688,7.6034035 11.859315,5.850528 12.5,4.59375 12.725894,4.1506437 12.868699,3.6709007 12.75,3.65625 12.678781,3.6474596 12.499081,3.7953525 12.21875,4.21875 11.514887,5.2818273 9.7982386,6.7889306 8.15625,8 8.0407745,7.9348604 7.9026456,7.895384 7.78125,7.84375 8.6456813,6.2658551 8.8682523,3.2983273 8.875,2.53125 8.8790875,2.0338937 8.8282069,1.6890096 8.71875,1.75 z m -2.4375,8.65625 C 5.6663807,10.4531 5.2031467,10.978881 5.25,11.59375 5.296853,12.208619 5.8226307,12.671853 6.4375,12.625 7.0523693,12.57815 7.5156033,12.052369 7.46875,11.4375 l 0,-0.03125 c -0.059345,-0.60424 -0.582108,-1.046131 -1.1875,-1 z"
       transform="translate(341.0002,177)"
       id="path3679"
       inkscape:connector-curvature="0" />
  </g>
  <g
     inkscape:label="01 copia copia#1"
     transform="translate(-341.0002,-177)"
     inkscape:groupmode="layer"
     id="g4570"
     style="display:none">
    <path
       inkscape:connector-curvature="0"
       id="path4572"
       transform="translate(341.0002,177)"
       d="M 8.71875,1.75 C 8.653076,1.786594 8.5671313,1.9765538 8.46875,2.34375 8.2092659,3.3122165 7.7234027,5.7434718 6.8125,7.59375 6.6960432,7.58726 6.5885075,7.58443 6.46875,7.59375 6.438972,7.59607 6.404862,7.59049 6.375,7.59375 6.2355619,5.9586404 5.9378106,3.4869879 5.8125,2.6875 5.69682,1.94939 5.4087,1.58713 5.4375,2.53125 5.466153,3.4705531 5.44683,5.9243049 5.4375,7.875 5.1980928,7.986645 4.9563937,8.1287003 4.71875,8.3125 4.146145,7.0994044 3.1620645,5.4245081 2.75,4.84375 2.31763,4.23442 2.02396,3.9356 2.375,4.8125 2.7241082,5.6845495 3.3414936,7.2050579 4,9.03125 3.8632733,9.1892988 3.7265314,9.3482763 3.59375,9.53125 3.0040068,9.0665761 2.4425893,8.7636683 2.03125,8.46875 1.43163,8.0388 1.04888,7.83121 1.625,8.5 2.0570975,9.0015925 2.3987881,9.5251291 3.125,10.28125 3.3670706,10.53329 3.6520775,10.814357 4,11.125 L 4.3125,10.5 C 6.0358253,7.5481918 9.7885781,10.071419 8.25,12.53125 l 1.15625,0.4375 0.03125,0 c 1.209381,0.444404 2.858424,1.026493 3.59375,1.125 0.55171,0.07394 0.94743,0.05768 0.0625,-0.34375 -0.857442,-0.388975 -1.670849,-0.826616 -3.25,-1.65625 0.050155,-0.163062 0.06926,-0.336544 0.09375,-0.5 1.569483,-0.238375 3.404694,-0.811187 4,-1.0625 C 14.62631,10.24047 15.11195,9.71707 13.875,10 12.866647,10.230641 11.477117,10.431992 9.9375,10.5 9.9041621,10.311038 9.843706,10.117028 9.78125,9.9375 11.419016,9.2466774 13.411886,7.96214 14,7.5 c 0.469283,-0.3687225 0.783787,-0.7932775 0.40625,-0.71875 -0.125846,0.024843 -0.32686,0.086538 -0.625,0.25 C 12.683635,7.6330532 11.079212,8.3507962 9.25,8.9375 9.1881838,8.8553768 9.0993363,8.7950907 9.03125,8.71875 10.338688,7.6034035 11.859315,5.850528 12.5,4.59375 12.725894,4.1506437 12.868699,3.6709007 12.75,3.65625 12.678781,3.6474596 12.499081,3.7953525 12.21875,4.21875 11.514887,5.2818273 9.7982386,6.7889306 8.15625,8 8.0407745,7.9348604 7.9026456,7.895384 7.78125,7.84375 8.6456813,6.2658551 8.8682523,3.2983273 8.875,2.53125 8.8790875,2.0338937 8.8282069,1.6890096 8.71875,1.75 z m -2.4375,8.65625 C 5.6663807,10.4531 5.2031467,10.978881 5.25,11.59375 5.296853,12.208619 5.8226307,12.671853 6.4375,12.625 7.0523693,12.57815 7.5156033,12.052369 7.46875,11.4375 l 0,-0.03125 c -0.059345,-0.60424 -0.582108,-1.046131 -1.1875,-1 z"
       style="fill:url(#radialGradient4574);fill-opacity:1;fill-rule:evenodd;stroke:none" />
  </g>
  <g
     inkscape:label="01 copia copia"
     transform="translate(-341.0002,-177)"
     inkscape:groupmode="layer"
     id="g4556"
     style="display:none">
    <path
       id="path4558"
       transform="translate(341.0002,177)"
       d="M 8.71875,1.75 C 8.653076,1.786594 8.5671313,1.9765538 8.46875,2.34375 8.2092659,3.3122165 7.7234027,5.7434718 6.8125,7.59375 6.6960432,7.58726 6.5885075,7.58443 6.46875,7.59375 6.438972,7.59607 6.404862,7.59049 6.375,7.59375 6.2355619,5.9586404 5.9378106,3.4869879 5.8125,2.6875 5.69682,1.94939 5.4087,1.58713 5.4375,2.53125 5.466153,3.4705531 5.44683,5.9243049 5.4375,7.875 5.1980928,7.986645 4.9563937,8.1287003 4.71875,8.3125 4.146145,7.0994044 3.1620645,5.4245081 2.75,4.84375 2.31763,4.23442 2.02396,3.9356 2.375,4.8125 2.7241082,5.6845495 3.3414936,7.2050579 4,9.03125 3.8632733,9.1892988 3.7265314,9.3482763 3.59375,9.53125 3.0040068,9.0665761 2.4425893,8.7636683 2.03125,8.46875 1.43163,8.0388 1.04888,7.83121 1.625,8.5 2.0570975,9.0015925 2.3987881,9.5251291 3.125,10.28125 3.3670706,10.53329 3.6520775,10.814357 4,11.125 L 4.3125,10.5 C 6.0358253,7.5481918 9.7885781,10.071419 8.25,12.53125 l 1.15625,0.4375 0.03125,0 c 1.209381,0.444404 2.858424,1.026493 3.59375,1.125 0.55171,0.07394 0.94743,0.05768 0.0625,-0.34375 -0.857442,-0.388975 -1.670849,-0.826616 -3.25,-1.65625 0.050155,-0.163062 0.06926,-0.336544 0.09375,-0.5 1.569483,-0.238375 3.404694,-0.811187 4,-1.0625 C 14.62631,10.24047 15.11195,9.71707 13.875,10 12.866647,10.230641 11.477117,10.431992 9.9375,10.5 9.9041621,10.311038 9.843706,10.117028 9.78125,9.9375 11.419016,9.2466774 13.411886,7.96214 14,7.5 c 0.469283,-0.3687225 0.783787,-0.7932775 0.40625,-0.71875 -0.125846,0.024843 -0.32686,0.086538 -0.625,0.25 C 12.683635,7.6330532 11.079212,8.3507962 9.25,8.9375 9.1881838,8.8553768 9.0993363,8.7950907 9.03125,8.71875 10.338688,7.6034035 11.859315,5.850528 12.5,4.59375 12.725894,4.1506437 12.868699,3.6709007 12.75,3.65625 12.678781,3.6474596 12.499081,3.7953525 12.21875,4.21875 11.514887,5.2818273 9.7982386,6.7889306 8.15625,8 8.0407745,7.9348604 7.9026456,7.895384 7.78125,7.84375 8.6456813,6.2658551 8.8682523,3.2983273 8.875,2.53125 8.8790875,2.0338937 8.8282069,1.6890096 8.71875,1.75 z m -2.4375,8.65625 C 5.6663807,10.4531 5.2031467,10.978881 5.25,11.59375 5.296853,12.208619 5.8226307,12.671853 6.4375,12.625 7.0523693,12.57815 7.5156033,12.052369 7.46875,11.4375 l 0,-0.03125 c -0.059345,-0.60424 -0.582108,-1.046131 -1.1875,-1 z"
       style="fill:url(#radialGradient4553);fill-opacity:1;fill-rule:evenodd;stroke:none"
       inkscape:connector-curvature="0" />
  </g>
  <g
     style="display:none"
     id="g4564"
     inkscape:groupmode="layer"
     transform="translate(-341.0002,-177)"
     inkscape:label="01 copia copia copia">
    <path
       inkscape:connector-curvature="0"
       style="fill:url(#radialGradient4568);fill-opacity:1;fill-rule:evenodd;stroke:none"
       d="M 8.71875,1.75 C 8.653076,1.786594 8.5671313,1.9765538 8.46875,2.34375 8.2092659,3.3122165 7.7234027,5.7434718 6.8125,7.59375 6.6960432,7.58726 6.5885075,7.58443 6.46875,7.59375 6.438972,7.59607 6.404862,7.59049 6.375,7.59375 6.2355619,5.9586404 5.9378106,3.4869879 5.8125,2.6875 5.69682,1.94939 5.4087,1.58713 5.4375,2.53125 5.466153,3.4705531 5.44683,5.9243049 5.4375,7.875 5.1980928,7.986645 4.9563937,8.1287003 4.71875,8.3125 4.146145,7.0994044 3.1620645,5.4245081 2.75,4.84375 2.31763,4.23442 2.02396,3.9356 2.375,4.8125 2.7241082,5.6845495 3.3414936,7.2050579 4,9.03125 3.8632733,9.1892988 3.7265314,9.3482763 3.59375,9.53125 3.0040068,9.0665761 2.4425893,8.7636683 2.03125,8.46875 1.43163,8.0388 1.04888,7.83121 1.625,8.5 2.0570975,9.0015925 2.3987881,9.5251291 3.125,10.28125 3.3670706,10.53329 3.6520775,10.814357 4,11.125 L 4.3125,10.5 C 6.0358253,7.5481918 9.7885781,10.071419 8.25,12.53125 l 1.15625,0.4375 0.03125,0 c 1.209381,0.444404 2.858424,1.026493 3.59375,1.125 0.55171,0.07394 0.94743,0.05768 0.0625,-0.34375 -0.857442,-0.388975 -1.670849,-0.826616 -3.25,-1.65625 0.050155,-0.163062 0.06926,-0.336544 0.09375,-0.5 1.569483,-0.238375 3.404694,-0.811187 4,-1.0625 C 14.62631,10.24047 15.11195,9.71707 13.875,10 12.866647,10.230641 11.477117,10.431992 9.9375,10.5 9.9041621,10.311038 9.843706,10.117028 9.78125,9.9375 11.419016,9.2466774 13.411886,7.96214 14,7.5 c 0.469283,-0.3687225 0.783787,-0.7932775 0.40625,-0.71875 -0.125846,0.024843 -0.32686,0.086538 -0.625,0.25 C 12.683635,7.6330532 11.079212,8.3507962 9.25,8.9375 9.1881838,8.8553768 9.0993363,8.7950907 9.03125,8.71875 10.338688,7.6034035 11.859315,5.850528 12.5,4.59375 12.725894,4.1506437 12.868699,3.6709007 12.75,3.65625 12.678781,3.6474596 12.499081,3.7953525 12.21875,4.21875 11.514887,5.2818273 9.7982386,6.7889306 8.15625,8 8.0407745,7.9348604 7.9026456,7.895384 7.78125,7.84375 8.6456813,6.2658551 8.8682523,3.2983273 8.875,2.53125 8.8790875,2.0338937 8.8282069,1.6890096 8.71875,1.75 z m -2.4375,8.65625 C 5.6663807,10.4531 5.2031467,10.978881 5.25,11.59375 5.296853,12.208619 5.8226307,12.671853 6.4375,12.625 7.0523693,12.57815 7.5156033,12.052369 7.46875,11.4375 l 0,-0.03125 c -0.059345,-0.60424 -0.582108,-1.046131 -1.1875,-1 z"
       transform="translate(341.0002,177)"
       id="path4566" />
  </g>
</svg>
