<?xml version="1.0" encoding="UTF-8" standalone="no"?>
<!-- Created with Inkscape (http://www.inkscape.org/) -->

<svg
   xmlns:dc="http://purl.org/dc/elements/1.1/"
   xmlns:cc="http://creativecommons.org/ns#"
   xmlns:rdf="http://www.w3.org/1999/02/22-rdf-syntax-ns#"
   xmlns:svg="http://www.w3.org/2000/svg"
   xmlns="http://www.w3.org/2000/svg"
   xmlns:xlink="http://www.w3.org/1999/xlink"
   xmlns:sodipodi="http://sodipodi.sourceforge.net/DTD/sodipodi-0.dtd"
   xmlns:inkscape="http://www.inkscape.org/namespaces/inkscape"
   id="svg7384"
   version="1.1"
   inkscape:version="0.48.3.1 r9886"
   height="256"
   sodipodi:docname="applications-chat.svg"
   width="256">
  <metadata
     id="metadata90">
    <rdf:RDF>
      <cc:Work
         rdf:about="">
        <dc:format>image/svg+xml</dc:format>
        <dc:type
           rdf:resource="http://purl.org/dc/dcmitype/StillImage" />
        <dc:title>Gnome Symbolic Icon Theme</dc:title>
      </cc:Work>
    </rdf:RDF>
  </metadata>
  <sodipodi:namedview
     inkscape:cy="143.26234"
     inkscape:current-layer="layer9"
     inkscape:window-width="1918"
     pagecolor="#555753"
     showborder="true"
     showguides="true"
     inkscape:snap-nodes="false"
     objecttolerance="10"
     showgrid="false"
     inkscape:object-nodes="true"
     inkscape:pageshadow="2"
     inkscape:guide-bbox="true"
     inkscape:window-x="0"
     inkscape:snap-bbox="true"
     bordercolor="#666666"
     id="namedview88"
     inkscape:window-maximized="1"
     inkscape:snap-global="true"
     inkscape:window-y="25"
     gridtolerance="10"
     inkscape:zoom="1.4142136"
     inkscape:window-height="1007"
     borderopacity="1"
     guidetolerance="10"
     inkscape:cx="177.22182"
     inkscape:bbox-paths="false"
     inkscape:snap-grids="true"
     inkscape:pageopacity="0"
     inkscape:snap-to-guides="true">
    <inkscape:grid
       visible="true"
       spacingx="1px"
       type="xygrid"
       spacingy="1px"
       id="grid4866"
       empspacing="2"
       enabled="true"
       snapvisiblegridlinesonly="true" />
  </sodipodi:namedview>
  <title
     id="title9167">Gnome Symbolic Icon Theme</title>
  <defs
     id="defs7386">
    <linearGradient
       id="id9"
       gradientUnits="userSpaceOnUse"
       x1="265.91901"
       y1="259.46201"
       x2="37.4221"
       y2="236.18201">
      <stop
         offset="0"
         style="stop-color:#82C7E6"
         id="stop48" />
      <stop
         offset="0.741176"
         style="stop-color:#6690C2"
         id="stop50" />
      <stop
         offset="1"
         style="stop-color:#3C599B"
         id="stop52" />
    </linearGradient>
    <mask
       id="id0">
      <linearGradient
         id="id1"
         gradientUnits="userSpaceOnUse"
         x1="125.223"
         y1="121.94"
         x2="158.58"
         y2="114.1">
        <stop
           offset="0"
           style="stop-opacity:1; stop-color:white"
           id="stop10" />
        <stop
           offset="1"
           style="stop-opacity:0; stop-color:white"
           id="stop12" />
      </linearGradient>
      <rect
         style="fill:url(#id1)"
         x="116.649"
         y="89.0951"
         width="50.5061"
         height="57.850201"
         id="rect14" />
    </mask>
    <linearGradient
       id="id4"
       gradientUnits="userSpaceOnUse"
       x1="76.357101"
       y1="27.669701"
       x2="85.763496"
       y2="216.54201">
      <stop
         offset="0"
         style="stop-color:#E7EEFA"
         id="stop27" />
      <stop
         offset="1"
         style="stop-color:#7DA2E3"
         id="stop29" />
    </linearGradient>
    <mask
       id="id2">
      <linearGradient
         id="id3"
         gradientUnits="userSpaceOnUse"
         x1="44.355099"
         y1="76.0485"
         x2="117.765"
         y2="168.164">
        <stop
           offset="0"
           style="stop-opacity:1; stop-color:white"
           id="stop18" />
        <stop
           offset="0.65098"
           style="stop-opacity:0.501961; stop-color:white"
           id="stop20" />
        <stop
           offset="1"
           style="stop-opacity:0; stop-color:white"
           id="stop22" />
      </linearGradient>
      <rect
         style="fill:url(#id3)"
         x="-61.734001"
         y="25.7596"
         width="285.58899"
         height="192.69299"
         id="rect24" />
    </mask>
    <linearGradient
       inkscape:collect="always"
       xlink:href="#id4"
       id="linearGradient3909"
       x1="46.133247"
       y1="245.00002"
       x2="291.86716"
       y2="245.00002"
       gradientUnits="userSpaceOnUse" />
    <linearGradient
       inkscape:collect="always"
       xlink:href="#id9"
       id="linearGradient3917"
       x1="46.133247"
       y1="245.00002"
       x2="291.86716"
       y2="245.00002"
       gradientUnits="userSpaceOnUse"
       spreadMethod="reflect" />
  </defs>
  <g
     transform="translate(-41.000198,-117)"
     inkscape:groupmode="layer"
     id="layer9"
     inkscape:label="status"
     style="display:inline">
    <path
       style="color:#bebebe;fill:url(#linearGradient3909);fill-opacity:1.0;fill-rule:nonzero;stroke:url(#linearGradient3917);stroke-width:3.09207295999999987;stroke-miterlimit:4;stroke-dasharray:none;marker:none;visibility:visible;display:inline;overflow:visible;enable-background:accumulate"
       d="m 94.919287,125.28955 c -26.170961,0 -47.240002,21.06904 -47.240002,47.24 l 0,76.22818 c 0,26.17096 21.069041,47.24 47.240002,47.24 l 108.437273,0 52.07137,68.71273 -1.07364,-70.32318 c 20.69167,-5.03046 35.96682,-23.34704 35.96682,-45.62955 l 0,-76.22818 c 0,-26.17096 -21.06904,-47.24 -47.24,-47.24 l -148.161823,0 z m 40.261363,17.17818 c 0.97443,-1.24989 3.50236,2.239 5.905,8.05227 3.66802,8.87442 14.87133,43.89576 12.88364,66.56546 1.8707,-0.0464 4.04072,0.32209 5.905,0.53682 13.11834,-22.1547 25.49879,-48.07555 28.45136,-63.88137 3.14462,-16.83376 5.54821,-7.35449 4.83137,2.68409 -1.25198,17.53206 -9.76082,45.55019 -19.32546,64.955 1.05864,0.50848 2.19898,1.02297 3.22091,1.61046 18.35034,-15.80616 33.68764,-31.6338 43.48227,-44.01909 10.6691,-13.4914 9.69707,-4.51512 4.83137,4.29454 -4.57335,8.2804 -21.36789,33.27208 -37.04046,49.38728 1.74428,1.89097 2.88319,3.72818 4.29455,5.905 17.59023,-8.37351 32.87742,-17.57895 43.48227,-25.23046 13.01368,-9.38959 9.81101,-1.41222 3.22091,5.36818 -5.67156,5.83526 -23.75217,21.7012 -40.79818,32.2091 0.55554,2.1014 0.84396,4.2102 1.07363,6.44181 22.31414,1.8726 33.76989,2.91514 45.62955,3.22091 12.28519,0.3166 7.86428,1.90128 1.07364,3.75773 -9.00463,2.46249 -30.45288,4.58142 -46.70319,5.36818 -0.196,0.0103 -0.879,-0.0106 -1.07363,0 l 0,-0.53682 -15.56773,1.07364 C 188.7593,233.9991 132.66561,223.059 127.12838,265.93591 l -0.53682,9.12591 c -5.58293,-1.90403 -10.43281,-4.16193 -14.49409,-5.905 -12.183867,-5.22921 -18.800044,-9.70687 -26.304092,-13.42045 -10.005639,-4.95178 -4.270892,-4.20058 4.831363,-2.14727 6.218417,1.40294 14.508539,2.34757 23.619999,4.83136 0.61828,-2.90054 0.78401,-6.02714 1.61046,-8.58909 C 99.398326,232.05693 84.944071,217.92083 76.667468,209.57 c -8.408909,-8.48378 -3.206308,-7.11451 4.831364,-2.14727 7.610244,4.70322 27.066618,19.85661 39.724548,31.13546 1.8813,-3.32158 3.6315,-6.63782 5.905,-9.12591 -9.48186,-22.72949 -20.82436,-51.51016 -25.76728,-62.27091 -4.98634,-10.85644 -0.15255,-7.49055 4.83137,0.53681 5.4076,8.70969 21.46024,35.8598 31.13545,54.21864 1.63037,-0.90649 3.12918,-1.52198 4.83137,-2.14727 1.58865,-26.12973 -4.68336,-56.62273 -6.44182,-69.24955 -0.66274,-4.76179 -1.12156,-7.3033 -0.53682,-8.05227 z m 19.86227,111.12137 c 5.43476,-0.4193 10.66934,1.91936 13.42046,6.97863 l 0.53682,0.53682 c 3.57498,6.93105 0.48916,15.7505 -6.44182,19.32546 -6.93093,3.57512 -15.75045,0.48906 -19.32546,-6.44182 -3.57505,-6.93088 -0.48916,-15.21369 6.44182,-18.78864 1.70602,-0.87999 3.5566,-1.47069 5.36818,-1.61045 z"
       id="rect11261"
       inkscape:connector-curvature="0" />
  </g>
  <g
     transform="translate(-41.000198,-117)"
     inkscape:groupmode="layer"
     id="layer10"
     inkscape:label="devices" />
  <g
     transform="translate(-41.000198,-117)"
     inkscape:groupmode="layer"
     id="layer11"
     inkscape:label="apps" />
  <g
     transform="translate(-41.000198,-117)"
     inkscape:groupmode="layer"
     id="layer12"
     inkscape:label="actions" />
  <g
     transform="translate(-41.000198,-117)"
     inkscape:groupmode="layer"
     id="layer13"
     inkscape:label="places" />
  <g
     transform="translate(-41.000198,-117)"
     inkscape:groupmode="layer"
     id="layer14"
     inkscape:label="mimetypes" />
  <g
     transform="translate(-41.000198,-117)"
     inkscape:groupmode="layer"
     id="layer15"
     inkscape:label="emblems"
     style="display:inline" />
  <g
     transform="translate(-41.000198,-117)"
     inkscape:groupmode="layer"
     id="g4953"
     inkscape:label="categories"
     style="display:inline" />
</svg>
