<?xml version="1.0" encoding="UTF-8" standalone="no"?>
<!-- Created with Inkscape (http://www.inkscape.org/) -->

<svg
   xmlns:dc="http://purl.org/dc/elements/1.1/"
   xmlns:cc="http://creativecommons.org/ns#"
   xmlns:rdf="http://www.w3.org/1999/02/22-rdf-syntax-ns#"
   xmlns:svg="http://www.w3.org/2000/svg"
   xmlns="http://www.w3.org/2000/svg"
   xmlns:xlink="http://www.w3.org/1999/xlink"
   xmlns:sodipodi="http://sodipodi.sourceforge.net/DTD/sodipodi-0.dtd"
   xmlns:inkscape="http://www.inkscape.org/namespaces/inkscape"
   version="1.0"
   width="96"
   height="96"
   id="svg2408"
   inkscape:version="0.48.3.1 r9886"
   sodipodi:docname="applications-engineering.svg">
  <sodipodi:namedview
     pagecolor="#ffffff"
     bordercolor="#666666"
     borderopacity="1"
     objecttolerance="10"
     gridtolerance="10"
     guidetolerance="10"
     inkscape:pageopacity="0"
     inkscape:pageshadow="2"
     inkscape:window-width="1918"
     inkscape:window-height="1007"
     id="namedview101"
     showgrid="false"
     inkscape:zoom="3.55434"
     inkscape:cx="112.97943"
     inkscape:cy="43.930905"
     inkscape:window-x="0"
     inkscape:window-y="25"
     inkscape:window-maximized="1"
     inkscape:current-layer="svg2408"
     inkscape:snap-global="false" />
  <defs
     id="defs2410">
    <linearGradient
       y2="236.18201"
       x2="37.4221"
       y1="259.46201"
       x1="265.91901"
       gradientUnits="userSpaceOnUse"
       id="linearGradient3980">
      <stop
         id="stop3982"
         style="stop-color:#82C7E6"
         offset="0" />
      <stop
         id="stop3984"
         style="stop-color:#6690C2"
         offset="0.70946211" />
      <stop
         id="stop3986"
         style="stop-color:#3C599B"
         offset="1" />
    </linearGradient>
    <linearGradient
       x1="45.447727"
       y1="92.539597"
       x2="45.447727"
       y2="7.0165396"
       id="ButtonShadow"
       gradientUnits="userSpaceOnUse"
       gradientTransform="scale(1.0058652,0.994169)">
      <stop
         id="stop3750"
         style="stop-color:#000000;stop-opacity:1"
         offset="0" />
      <stop
         id="stop3752"
         style="stop-color:#000000;stop-opacity:0.58823532"
         offset="1" />
    </linearGradient>
    <filter
       color-interpolation-filters="sRGB"
       id="filter3174">
      <feGaussianBlur
         id="feGaussianBlur3176"
         stdDeviation="1.71" />
    </filter>
    <linearGradient
       id="id9"
       gradientUnits="userSpaceOnUse"
       x1="265.91901"
       y1="259.46201"
       x2="37.4221"
       y2="236.18201">
      <stop
         offset="0"
         style="stop-color:#82C7E6"
         id="stop48" />
      <stop
         offset="0.741176"
         style="stop-color:#6690C2"
         id="stop50" />
      <stop
         offset="1"
         style="stop-color:#3C599B"
         id="stop52" />
    </linearGradient>
    <linearGradient
       id="linearGradient3049"
       gradientUnits="userSpaceOnUse"
       x1="47.634102"
       y1="235.146"
       x2="255.70599"
       y2="260.495">
      <stop
         offset="0"
         style="stop-color:#94C9E2"
         id="stop3051" />
      <stop
         offset="0.06382006"
         style="stop-color:#58A6D8"
         id="stop3053" />
      <stop
         offset="0.29104277"
         style="stop-color:#50719E"
         id="stop3055" />
      <stop
         offset="1"
         style="stop-color:#386EAB"
         id="stop3057" />
    </linearGradient>
    <mask
       id="id0">
      <linearGradient
         id="id1"
         gradientUnits="userSpaceOnUse"
         x1="125.223"
         y1="121.94"
         x2="158.58"
         y2="114.1">
        <stop
           offset="0"
           style="stop-opacity:1; stop-color:white"
           id="stop10" />
        <stop
           offset="1"
           style="stop-opacity:0; stop-color:white"
           id="stop12" />
      </linearGradient>
      <rect
         style="fill:url(#id1)"
         x="116.649"
         y="89.0951"
         width="50.5061"
         height="57.850201"
         id="rect14" />
    </mask>
    <mask
       id="id2">
      <linearGradient
         id="id3"
         gradientUnits="userSpaceOnUse"
         x1="44.355099"
         y1="76.0485"
         x2="117.765"
         y2="168.164">
        <stop
           offset="0"
           style="stop-opacity:1; stop-color:white"
           id="stop18" />
        <stop
           offset="0.65098"
           style="stop-opacity:0.501961; stop-color:white"
           id="stop20" />
        <stop
           offset="1"
           style="stop-opacity:0; stop-color:white"
           id="stop22" />
      </linearGradient>
      <rect
         style="fill:url(#id3)"
         x="-61.734001"
         y="25.7596"
         width="285.58899"
         height="192.69299"
         id="rect24" />
    </mask>
    <linearGradient
       inkscape:collect="always"
       xlink:href="#linearGradient3980"
       id="linearGradient3962"
       x1="7.4283581"
       y1="47.447998"
       x2="87.270782"
       y2="47.447998"
       gradientUnits="userSpaceOnUse" />
    <linearGradient
       inkscape:collect="always"
       xlink:href="#id9"
       id="linearGradient3970"
       x1="76.948181"
       y1="42.227711"
       x2="83.841164"
       y2="42.227711"
       gradientUnits="userSpaceOnUse" />
    <linearGradient
       inkscape:collect="always"
       xlink:href="#linearGradient3049"
       id="linearGradient3978"
       x1="7.4283581"
       y1="47.447998"
       x2="87.270782"
       y2="47.447998"
       gradientUnits="userSpaceOnUse"
       spreadMethod="pad" />
  </defs>
  <metadata
     id="metadata2413">
    <rdf:RDF>
      <cc:Work
         rdf:about="">
        <dc:format>image/svg+xml</dc:format>
        <dc:type
           rdf:resource="http://purl.org/dc/dcmitype/StillImage" />
        <dc:title />
      </cc:Work>
    </rdf:RDF>
  </metadata>
  <g
     id="layer2"
     style="display:none">
    <rect
       width="86"
       height="85"
       rx="6"
       ry="6"
       x="5"
       y="7"
       id="rect3745"
       style="opacity:0.9;fill:url(#ButtonShadow);fill-opacity:1;fill-rule:nonzero;stroke:none;filter:url(#filter3174)" />
  </g>
  <path
     style="fill:url(#linearGradient3962);fill-opacity:1;stroke:url(#linearGradient3978)"
     d="m 56.280662,10.559037 -3.65625,1.1875 c -5.78284,0.171291 -12.43374,1.674555 -20,5.125 -21.39652,9.757465 -19.09375,46.6875 -19.09375,46.6875 0,0 -3.4877,6.613558 -5.8750005,10.0625 -1.849706,2.67228 8.0411005,4.878277 13.3125005,6.21875 6.43732,1.636958 13.34447,5.364688 21.90625,4.3125 4.04122,-0.49664 4.34294,-3.385695 9.625,-5.5625 6.04554,-2.491444 11.11883,-3.370884 15.375,-6 6.90187,-4.26341 17.27152,-16.002884 18.46875,-21.59375 1.08183,-5.051957 1.78125,-9.375 -1.21875,-10.625 -3,-1.25 -0.5,-5.5 -6.25,-15.25 -2.29102,-3.884766 -6.09951,-7.81554 -11.4375,-10.40625 l -1.59375,-2.75 -9.5625,-1.40625 z m 5.8125,2.21875 c 3.35168,0.375385 3.63076,-0.06225 5.5,2.5 -22,1.75 -27.21653,22.108333 -29.125,29.875 -1.61005,0.803704 -2.64696,0.487452 -4.84375,1.125 2.37878,-10.430681 6.29462,-29.481886 28.46875,-33.5 z m 5.25,8.625 c 3.52425,-0.116028 7.4495,1.880206 9.28125,3.75 2.44233,2.493058 4.21875,8.71875 4.46875,9.96875 0.13882,0.694085 0.55904,2.442582 0.5,4.84375 l 2.03125,0.03125 c 0.08814,0.946022 0.1618,1.914263 0.25,2.875 0.28979,-0.752737 0.6875,-1.71875 0.6875,-1.71875 0,0 2.09385,-0.618936 1.8125,6.1875 -0.10681,2.584036 -2.46875,6.5625 -2.46875,6.5625 0,0 -4.11263,7.047846 -14.5,15.84375 -5.73782,4.858719 -14.72626,6.817791 -17.3125,7.8125 -2.58625,0.994709 -7.73781,5.447499 -10,5.28125 -14.84893,-1.091251 -25.8125,-6.53125 -25.8125,-6.53125 l 15.53125,-2.96875 c 0,0 8.14838,0.991634 13.71875,0.59375 1.93865,-0.138475 4.9808,-1.085877 8.375,-2.4375 l -1.4375,-11.3125 -4.71875,-0.75 5.3125,-2.53125 4.3125,0.25 c 0,0 0.9147,6.597642 1.375,12.25 5.06623,-2.340501 10.20876,-5.155915 13.4375,-7.40625 2.02841,-1.413741 3.98578,-3.959151 5.71875,-6.78125 l -0.0625,0 -0.5,-5.40625 c -3.1078,2.184083 -7.94743,3.936293 -10.8125,4.46875 -7.40686,1.376524 -13.1875,-7.25 -12.6875,-11.25 0.5,-4 -0.2246,-14.541895 10.1875,-20.71875 0.99115,-0.587992 2.13775,-0.867574 3.3125,-0.90625 z m -21.53125,26.59375 c 0,0 2.0949,4.781442 -2.125,8.9375 0.14096,5.281442 -1.25,9.9375 -1.125,10.8125 0.25,1.75 -2.21875,2.75 -2.21875,2.75 l -1.53125,-18.75 7,-3.75 z"
     id="path7428"
     inkscape:connector-curvature="0" />
  <path
     style="fill:url(#linearGradient3970);fill-opacity:1.0;stroke:none"
     d="m 80.816692,39.801099 -3.86851,4.923558 4.00918,0 2.8838,-4.993895 z"
     id="path7444"
     inkscape:connector-curvature="0" />
</svg>
