<?xml version="1.0" encoding="UTF-8" standalone="no"?>
<!-- Created with Inkscape (http://www.inkscape.org/) -->

<svg
   xmlns:dc="http://purl.org/dc/elements/1.1/"
   xmlns:cc="http://creativecommons.org/ns#"
   xmlns:rdf="http://www.w3.org/1999/02/22-rdf-syntax-ns#"
   xmlns:svg="http://www.w3.org/2000/svg"
   xmlns="http://www.w3.org/2000/svg"
   xmlns:xlink="http://www.w3.org/1999/xlink"
   xmlns:sodipodi="http://sodipodi.sourceforge.net/DTD/sodipodi-0.dtd"
   xmlns:inkscape="http://www.inkscape.org/namespaces/inkscape"
   height="60.0000000"
   id="svg1"
   inkscape:version="0.48.3.1 r9886"
   sodipodi:docname="applications-sports.svg"
   sodipodi:version="0.32"
   version="1.0"
   width="60.0000000"
   x="0"
   y="0">
  <metadata
     id="metadata3">
    <rdf:RDF>
      <cc:Work
         rdf:about="">
        <dc:title />
        <dc:description />
        <dc:subject>
          <rdf:Bag>
            <rdf:li>hash</rdf:li>
            <rdf:li />
            <rdf:li>application</rdf:li>
            <rdf:li>computer</rdf:li>
            <rdf:li>icons</rdf:li>
            <rdf:li>theme</rdf:li>
          </rdf:Bag>
        </dc:subject>
        <dc:publisher>
          <cc:Agent
             rdf:about="http://www.openclipart.org">
            <dc:title>Danny Allen</dc:title>
          </cc:Agent>
        </dc:publisher>
        <dc:creator>
          <cc:Agent>
            <dc:title>Danny Allen</dc:title>
          </cc:Agent>
        </dc:creator>
        <dc:rights>
          <cc:Agent>
            <dc:title>Danny Allen</dc:title>
          </cc:Agent>
        </dc:rights>
        <dc:date />
        <dc:format>image/svg+xml</dc:format>
        <dc:type
           rdf:resource="http://purl.org/dc/dcmitype/StillImage" />
        <cc:license
           rdf:resource="http://web.resource.org/cc/PublicDomain" />
        <dc:language>en</dc:language>
      </cc:Work>
      <cc:License
         rdf:about="http://web.resource.org/cc/PublicDomain">
        <cc:permits
           rdf:resource="http://web.resource.org/cc/Reproduction" />
        <cc:permits
           rdf:resource="http://web.resource.org/cc/Distribution" />
        <cc:permits
           rdf:resource="http://web.resource.org/cc/DerivativeWorks" />
      </cc:License>
    </rdf:RDF>
  </metadata>
  <sodipodi:namedview
     bordercolor="#666666"
     borderopacity="1.0"
     id="base"
     inkscape:cx="-64.280483"
     inkscape:cy="-38.414257"
     inkscape:pageopacity="0.0"
     inkscape:pageshadow="2"
     inkscape:window-height="1007"
     inkscape:window-width="1918"
     inkscape:window-x="0"
     inkscape:window-y="25"
     inkscape:zoom="2.4559706"
     pagecolor="#ffffff"
     showgrid="false"
     inkscape:window-maximized="1"
     inkscape:current-layer="svg1" />
  <defs
     id="defs3">
    <style
       type="text/css"
       id="style1350">
   
    .fil0 {fill:#663300}
    .fil1 {fill:url(#id0)}
   
  </style>
    <linearGradient
       id="id4"
       gradientUnits="userSpaceOnUse"
       x1="76.357101"
       y1="27.669701"
       x2="85.763496"
       y2="216.54201">
      <stop
         offset="0"
         style="stop-color:#E7EEFA"
         id="stop27" />
      <stop
         offset="1"
         style="stop-color:#7DA2E3"
         id="stop29" />
    </linearGradient>
    <linearGradient
       inkscape:collect="always"
       xlink:href="#linearGradient8384-2"
       id="linearGradient3906"
       x1="204.33479"
       y1="346.55173"
       x2="493.379"
       y2="346.55173"
       gradientUnits="userSpaceOnUse" />
    <linearGradient
       inkscape:collect="always"
       xlink:href="#id4"
       id="linearGradient3914"
       x1="-7.5326633"
       y1="-12.985403"
       x2="42.345783"
       y2="-12.985403"
       gradientUnits="userSpaceOnUse" />
    <linearGradient
       id="linearGradient8384-2">
      <stop
         id="stop8386-1"
         style="stop-color:#1e3b55;stop-opacity:1"
         offset="0" />
      <stop
         id="stop8388-4"
         style="stop-color:#2e5c84;stop-opacity:1"
         offset="1" />
    </linearGradient>
  </defs>
  <path
     sodipodi:type="arc"
     style="fill:url(#linearGradient3914);fill-opacity:1.0;stroke:none"
     id="path3280"
     sodipodi:cx="17.406561"
     sodipodi:cy="-12.985403"
     sodipodi:rx="24.939224"
     sodipodi:ry="24.939224"
     d="m 42.345785,-12.985403 a 24.939224,24.939224 0 1 1 -49.8784483,0 24.939224,24.939224 0 1 1 49.8784483,0 z"
     transform="matrix(1.1061225,0,0,1.1061225,10.876867,44.232791)" />
  <g
     id="g3276"
     transform="matrix(0.19377172,0,0,0.19377172,-37.534851,-37.282587)"
     style="fill:url(#linearGradient3906);fill-opacity:1.0">
    <path
       style="fill:url(#linearGradient3906);fill-opacity:1.0"
       id="path1458"
       d="m 337.3718,491.22036 c -60.89654,-4.18869 -114.37185,-52.39588 -129.46432,-110.75899 -13.92403,-60.51714 13.72781,-128.66429 67.68081,-160.25865 34.70364,-20.81281 78.2499,-23.41489 116.65645,-12.57385 47.44169,14.63915 83.55397,57.02856 96.23054,104.32247 11.38837,43.58236 3.17457,93.06821 -27.09434,127.41088 -27.41441,34.28749 -71.2356,54.04117 -115.05713,52.27724 -2.98696,-0.0622 -5.97228,-0.2033 -8.95201,-0.4191 z m 36.29688,-6.85895 c 10.92736,-0.95742 9.00668,-4.32212 -0.9325,-5.17607 -17.75675,-3.43155 -36.92973,-3.52104 -54.06707,2.49666 15.08558,7.30376 35.12626,5.42321 52.01419,3.24388 l 2.98537,-0.56444 10e-6,-3e-5 z m -53.80094,-9.6405 c 7.79814,-7.98981 -0.3374,-27.08126 -7.15236,-34.64588 -15.23187,-7.80355 -27.04294,-20.55891 -40.97467,-30.1777 -10.4926,-3.83459 -20.72665,3.45458 -30.86891,5.92416 -0.0453,10.06365 -0.69909,21.42632 8.12118,28.42355 14.52004,14.39052 32.04554,27.00539 51.82501,32.7376 6.35328,0.2972 13.02508,-0.0906 19.04975,-2.26173 z m 83.50406,0.40246 c 25.2731,-10.93528 48.98049,-28.50829 63.2323,-52.42352 5.13135,-6.88218 8.89925,-18.93073 -4.5039,-14.94624 -16.8365,10.62444 -32.04004,23.77389 -49.28802,33.83891 -10.45753,8.30307 -17.99077,19.72916 -25.42508,30.65607 2.59201,6.05314 11.01627,4.60982 15.9847,2.87478 z m 17.13239,-43.94226 c 12.7044,-10.45978 31.08633,-17.19825 37.7558,-33.0647 3.01347,-12.47686 3.2502,-25.38938 4.50677,-38.11675 -12.65901,-11.27445 -28.20607,-18.91974 -43.40605,-26.14359 -15.02198,1.20729 -27.16256,14.59192 -39.04242,23.2659 -6.33008,3.50729 -4.70501,11.38786 -6.42498,17.42952 -2.30162,14.12723 -4.96693,28.21133 -6.50128,42.44908 11.81933,8.77601 25.0137,16.83067 39.3852,20.2164 5.19325,0.0642 9.50804,-3.46642 13.72696,-6.03586 z m -90.61231,2.20203 c 11.50499,-4.40398 26.72917,-7.73003 32.13049,-19.95981 4.00512,-17.1369 6.23275,-34.67423 8.34942,-52.1312 -11.4304,-10.90503 -23.63443,-22.40262 -38.62218,-28.09335 -12.92896,-0.20831 -23.88695,8.96591 -35.39189,13.97725 -15.4786,4.214 -20.85474,18.33837 -21.53182,32.92606 -4.5414,14.43016 0.67048,29.25358 13.72268,37.20722 11.39983,8.43045 26.05135,21.87282 41.3433,16.07383 z M 233.59595,413.1592 c -9.33393,-17.31252 -15.77141,-36.27206 -18.34117,-55.7779 -9.23086,1.86406 -0.84093,24.5857 1.70252,33.85674 4.35238,12.52291 11.01099,24.03493 17.9145,35.29195 1.2625,-4.63161 2.01105,-9.23172 -1.27585,-13.37079 z m -4.02011,-77.06885 c 4.07612,-5.83801 10.56366,-10.44653 13.00862,-17.1162 4.31532,-20.19196 11.35412,-39.68498 21.42169,-57.7371 -0.4253,-11.66345 -13.41464,-18.74931 -19.88183,-5.89725 -18.42823,23.79114 -32.88422,52.78174 -33.52045,83.38008 -2.42306,10.49451 6.68447,18.12925 11.93101,5.70262 2.35073,-2.77421 4.69722,-5.55212 7.04096,-8.33215 z m 237.29596,14.46582 c 7.81119,-10.27829 18.6065,-22.4778 15.79925,-36.39965 -4.88805,-26.39812 -18.4071,-51.46203 -39.17346,-68.66578 -6.16521,-2.62148 -17.43286,-12.26834 -21.73379,-3.15655 -6.35676,12.24228 -22.16707,23.81573 -16.47055,39.06166 4.88321,15.04985 8.44596,30.78002 15.56456,44.95207 13.0946,10.24736 28.26311,18.21172 43.51398,24.93358 l 2.5,-0.72533 1e-5,0 z m -174.23004,-6.84411 c 12.09194,-6.12111 23.83701,-12.88927 35.62824,-19.56275 3.976,-13.92641 8.96642,-27.53221 13.61566,-41.22562 0.65014,-14.80698 -12.52611,-25.44538 -21.34045,-35.83006 -8.65588,-13.89097 -23.30422,-3.23609 -33.9899,1.84401 -23.51763,12.59108 -28.91693,40.30909 -36.90725,63.44609 1.10865,8.66403 9.02228,15.89554 14.79833,22.37251 7.98291,8.03256 16.95796,18.7665 28.19537,8.95582 z m 86.73004,-74.84467 c 6.25549,-0.86019 13.24173,-0.23049 19.0487,-2.00514 8.68662,-9.3757 16.33272,-20.35969 19.95129,-32.68207 -4.3678,-12.42193 -18.83931,-18.08332 -30.4572,-22.31162 -14.80112,-4.41469 -30.64906,-6.5768 -46.01186,-4.83242 -11.08866,5.67662 -30.97917,22.15027 -19.74859,34.91869 8.22602,9.81853 16.98199,19.17505 25.89765,28.36666 10.45927,0.10211 20.89433,-0.71595 31.32001,-1.4541 z"
       inkscape:connector-curvature="0" />
    <g
       transform="matrix(-0.01214889,0.999927,0.999927,0.01214889,15.79501,398.1419)"
       inkscape:label="volley-ball"
       id="volley"
       style="fill:url(#linearGradient3906);fill-opacity:1.0" />
  </g>
</svg>
