<?xml version="1.0" encoding="UTF-8" standalone="no"?>
<!-- Created with Inkscape (http://www.inkscape.org/) -->

<svg
   xmlns:dc="http://purl.org/dc/elements/1.1/"
   xmlns:cc="http://creativecommons.org/ns#"
   xmlns:rdf="http://www.w3.org/1999/02/22-rdf-syntax-ns#"
   xmlns:svg="http://www.w3.org/2000/svg"
   xmlns="http://www.w3.org/2000/svg"
   xmlns:xlink="http://www.w3.org/1999/xlink"
   xmlns:sodipodi="http://sodipodi.sourceforge.net/DTD/sodipodi-0.dtd"
   xmlns:inkscape="http://www.inkscape.org/namespaces/inkscape"
   height="60.0000000"
   id="svg1"
   inkscape:version="0.48.3.1 r9886"
   sodipodi:docname="applications-cardgames.svg"
   sodipodi:version="0.32"
   version="1.0"
   width="60.0000000"
   x="0"
   y="0">
  <metadata
     id="metadata3">
    <rdf:RDF>
      <cc:Work
         rdf:about="">
        <dc:title>Part of the Flat Icon Collection (Wed Aug 25 23:23:49 2004)</dc:title>
        <dc:description />
        <dc:subject>
          <rdf:Bag>
            <rdf:li>hash</rdf:li>
            <rdf:li />
            <rdf:li>application</rdf:li>
            <rdf:li>computer</rdf:li>
            <rdf:li>icons</rdf:li>
            <rdf:li>theme</rdf:li>
          </rdf:Bag>
        </dc:subject>
        <dc:publisher>
          <cc:Agent
             rdf:about="http://www.openclipart.org">
            <dc:title>Danny Allen</dc:title>
          </cc:Agent>
        </dc:publisher>
        <dc:creator>
          <cc:Agent>
            <dc:title>Danny Allen</dc:title>
          </cc:Agent>
        </dc:creator>
        <dc:rights>
          <cc:Agent>
            <dc:title>Danny Allen</dc:title>
          </cc:Agent>
        </dc:rights>
        <dc:date />
        <dc:format>image/svg+xml</dc:format>
        <dc:type
           rdf:resource="http://purl.org/dc/dcmitype/StillImage" />
        <cc:license
           rdf:resource="http://web.resource.org/cc/PublicDomain" />
        <dc:language>en</dc:language>
      </cc:Work>
      <cc:License
         rdf:about="http://web.resource.org/cc/PublicDomain">
        <cc:permits
           rdf:resource="http://web.resource.org/cc/Reproduction" />
        <cc:permits
           rdf:resource="http://web.resource.org/cc/Distribution" />
        <cc:permits
           rdf:resource="http://web.resource.org/cc/DerivativeWorks" />
      </cc:License>
    </rdf:RDF>
  </metadata>
  <sodipodi:namedview
     bordercolor="#666666"
     borderopacity="1.0"
     id="base"
     inkscape:cx="246.31845"
     inkscape:cy="64.749311"
     inkscape:pageopacity="0.0"
     inkscape:pageshadow="2"
     inkscape:window-height="1007"
     inkscape:window-width="1918"
     inkscape:window-x="0"
     inkscape:window-y="25"
     inkscape:zoom="1.7366334"
     pagecolor="#ffffff"
     showgrid="false"
     inkscape:window-maximized="1"
     inkscape:current-layer="svg1" />
  <defs
     id="defs3">
    <linearGradient
       id="id9"
       gradientUnits="userSpaceOnUse"
       x1="265.91901"
       y1="259.46201"
       x2="37.4221"
       y2="236.18201">
      <stop
         offset="0"
         style="stop-color:#82C7E6"
         id="stop48" />
      <stop
         offset="0.741176"
         style="stop-color:#6690C2"
         id="stop50" />
      <stop
         offset="1"
         style="stop-color:#3C599B"
         id="stop52" />
    </linearGradient>
    <linearGradient
       id="linearGradient3080"
       gradientUnits="userSpaceOnUse"
       x1="265.91901"
       y1="259.46201"
       x2="37.4221"
       y2="236.18201">
      <stop
         offset="0"
         style="stop-color:#82C7E6"
         id="stop3082" />
      <stop
         offset="0.741176"
         style="stop-color:#6690C2"
         id="stop3084" />
      <stop
         offset="1"
         style="stop-color:#3C599B"
         id="stop3086" />
    </linearGradient>
    <mask
       id="id0">
      <linearGradient
         id="id1"
         gradientUnits="userSpaceOnUse"
         x1="125.223"
         y1="121.94"
         x2="158.58"
         y2="114.1">
        <stop
           offset="0"
           style="stop-opacity:1; stop-color:white"
           id="stop10" />
        <stop
           offset="1"
           style="stop-opacity:0; stop-color:white"
           id="stop12" />
      </linearGradient>
      <rect
         style="fill:url(#id1)"
         x="116.649"
         y="89.0951"
         width="50.5061"
         height="57.850201"
         id="rect14" />
    </mask>
    <linearGradient
       id="id4"
       gradientUnits="userSpaceOnUse"
       x1="76.357101"
       y1="27.669701"
       x2="85.763496"
       y2="216.54201">
      <stop
         offset="0"
         style="stop-color:#E7EEFA"
         id="stop27" />
      <stop
         offset="1"
         style="stop-color:#7DA2E3"
         id="stop29" />
    </linearGradient>
    <mask
       id="id2">
      <linearGradient
         id="id3"
         gradientUnits="userSpaceOnUse"
         x1="44.355099"
         y1="76.0485"
         x2="117.765"
         y2="168.164">
        <stop
           offset="0"
           style="stop-opacity:1; stop-color:white"
           id="stop18" />
        <stop
           offset="0.65098"
           style="stop-opacity:0.501961; stop-color:white"
           id="stop20" />
        <stop
           offset="1"
           style="stop-opacity:0; stop-color:white"
           id="stop22" />
      </linearGradient>
      <rect
         style="fill:url(#id3)"
         x="-61.734001"
         y="25.7596"
         width="285.58899"
         height="192.69299"
         id="rect24" />
    </mask>
    <linearGradient
       inkscape:collect="always"
       xlink:href="#id9"
       id="linearGradient3959"
       x1="2.166945"
       y1="30.367645"
       x2="57.364304"
       y2="30.367645"
       gradientUnits="userSpaceOnUse" />
    <linearGradient
       inkscape:collect="always"
       xlink:href="#id9"
       id="linearGradient3967"
       x1="2.166945"
       y1="30.367645"
       x2="57.364304"
       y2="30.367645"
       gradientUnits="userSpaceOnUse" />
    <linearGradient
       inkscape:collect="always"
       xlink:href="#id9"
       id="linearGradient3975"
       x1="2.166945"
       y1="30.367645"
       x2="57.364304"
       y2="30.367645"
       gradientUnits="userSpaceOnUse" />
    <linearGradient
       inkscape:collect="always"
       xlink:href="#id9"
       id="linearGradient3983"
       x1="2.166945"
       y1="30.367645"
       x2="57.364304"
       y2="30.367645"
       gradientUnits="userSpaceOnUse" />
    <linearGradient
       inkscape:collect="always"
       xlink:href="#id4"
       id="linearGradient3991"
       x1="3.2726555"
       y1="28.82597"
       x2="37.18996"
       y2="28.82597"
       gradientUnits="userSpaceOnUse" />
    <linearGradient
       inkscape:collect="always"
       xlink:href="#linearGradient3080"
       id="linearGradient3999"
       x1="3.2726555"
       y1="28.82597"
       x2="37.18996"
       y2="28.82597"
       gradientUnits="userSpaceOnUse" />
    <linearGradient
       inkscape:collect="always"
       xlink:href="#linearGradient3080"
       id="linearGradient4007"
       x1="3.2726555"
       y1="28.82597"
       x2="37.18996"
       y2="28.82597"
       gradientUnits="userSpaceOnUse" />
    <linearGradient
       inkscape:collect="always"
       xlink:href="#id4"
       id="linearGradient4015"
       x1="3.2726555"
       y1="28.82597"
       x2="37.18996"
       y2="28.82597"
       gradientUnits="userSpaceOnUse" />
    <linearGradient
       inkscape:collect="always"
       xlink:href="#id9"
       id="linearGradient4023"
       x1="2.6760299"
       y1="30.367645"
       x2="56.855221"
       y2="30.367645"
       gradientUnits="userSpaceOnUse" />
    <linearGradient
       inkscape:collect="always"
       xlink:href="#id9"
       id="linearGradient4031"
       x1="2.6760299"
       y1="30.367645"
       x2="56.855221"
       y2="30.367645"
       gradientUnits="userSpaceOnUse" />
  </defs>
  <rect
     height="43.5163994"
     id="rect1107"
     rx="2"
     sodipodi:stroke-cmyk="(0.0000000 0.0000000 0.0000000 0.69999999)"
     style="font-size:12;fill:url(#linearGradient4015);fill-opacity:1.0;fill-rule:evenodd;stroke:url(#linearGradient4007);stroke-width:3.12500000000000000;stroke-dasharray:none;stroke-opacity:1;stroke-linejoin:round;opacity:0.80000000000000004"
     transform="translate(-0.508964,0.254482)"
     width="30.7923069"
     x="4.83515549"
     y="7.06776953" />
  <path
     d="M 29.375000 3.500000 C 22.177450 3.500000 16.343750 9.333699 16.343750 16.531250 C 16.343750 17.736651 16.537141 18.891736 16.843750 20.000000 C 9.898488 20.285859 4.312500 25.953664 4.312500 32.968750 C 4.312500 40.166300 10.177449 45.999999 17.375000 46.000000 C 20.610186 46.000000 23.470092 44.703053 25.750000 42.750000 C 21.286401 51.767725 15.193984 57.587266 15.562500 57.218750 L 43.468750 57.218750 C 43.468751 57.218750 37.400656 51.357290 33.312500 42.156250 C 35.645855 44.349010 38.735290 45.750000 42.187500 45.750000 C 49.385050 45.750000 55.218752 39.916299 55.218750 32.718750 C 55.218750 25.521200 49.385051 19.687500 42.187500 19.687500 C 42.122803 19.687500 42.064475 19.717809 42.000000 19.718750 C 42.258319 18.695414 42.406250 17.634454 42.406250 16.531250 C 42.406250 9.333700 36.572551 3.500000 29.375000 3.500000 z "
     id="path642"
     sodipodi:stroke-cmyk="(0.0000000 0.0000000 0.0000000 0.69999999)"
     style="font-size:12;fill:url(#linearGradient4023);fill-opacity:1;fill-rule:evenodd;stroke:url(#linearGradient4031);stroke-width:3.27294000000000018;stroke-linejoin:round;stroke-linecap:round;stroke-dasharray:none;stroke-opacity:1;opacity:0.80000000000000004"
     transform="matrix(0.420112,0.000000,0.000000,0.420112,7.081438,16.39423)" />
  <rect
     height="43.5163994"
     id="rect715"
     rx="2"
     sodipodi:stroke-cmyk="(0 0 0 0.8)"
     style="font-size:12;fill:url(#linearGradient3991);fill-opacity:1;fill-rule:evenodd;stroke:url(#linearGradient3999);stroke-width:3.12500000000000000;stroke-dasharray:none;stroke-opacity:1;stroke-linejoin:round"
     transform="matrix(0.866025,0.500000,-0.500000,0.866025,30.10205,-4.726816)"
     width="30.7923069"
     x="4.83515549"
     y="7.06776953" />
  <path
     d="M 29.375000 3.500000 C 22.177450 3.500000 16.343750 9.333699 16.343750 16.531250 C 16.343750 17.736651 16.537141 18.891736 16.843750 20.000000 C 9.898488 20.285859 4.312500 25.953664 4.312500 32.968750 C 4.312500 40.166300 10.177449 45.999999 17.375000 46.000000 C 20.610186 46.000000 23.470092 44.703053 25.750000 42.750000 C 21.286401 51.767725 15.193984 57.587266 15.562500 57.218750 L 43.468750 57.218750 C 43.468751 57.218750 37.400656 51.357290 33.312500 42.156250 C 35.645855 44.349010 38.735290 45.750000 42.187500 45.750000 C 49.385050 45.750000 55.218752 39.916299 55.218750 32.718750 C 55.218750 25.521200 49.385051 19.687500 42.187500 19.687500 C 42.122803 19.687500 42.064475 19.717809 42.000000 19.718750 C 42.258319 18.695414 42.406250 17.634454 42.406250 16.531250 C 42.406250 9.333700 36.572551 3.500000 29.375000 3.500000 z "
     id="path716"
     sodipodi:stroke-cmyk="(0 0 0 0.8)"
     style="font-size:12;fill:url(#linearGradient3967);fill-opacity:1.0;fill-rule:evenodd;stroke:url(#linearGradient3975);stroke-width:4.29110999999999976;stroke-linejoin:round;stroke-linecap:round;stroke-dasharray:none;stroke-opacity:1"
     transform="matrix(0.252273,0.145650,-0.145650,0.252273,29.45294,13.06713)" />
  <path
     d="M 29.375000 3.500000 C 22.177450 3.500000 16.343750 9.333699 16.343750 16.531250 C 16.343750 17.736651 16.537141 18.891736 16.843750 20.000000 C 9.898488 20.285859 4.312500 25.953664 4.312500 32.968750 C 4.312500 40.166300 10.177449 45.999999 17.375000 46.000000 C 20.610186 46.000000 23.470092 44.703053 25.750000 42.750000 C 21.286401 51.767725 15.193984 57.587266 15.562500 57.218750 L 43.468750 57.218750 C 43.468751 57.218750 37.400656 51.357290 33.312500 42.156250 C 35.645855 44.349010 38.735290 45.750000 42.187500 45.750000 C 49.385050 45.750000 55.218752 39.916299 55.218750 32.718750 C 55.218750 25.521200 49.385051 19.687500 42.187500 19.687500 C 42.122803 19.687500 42.064475 19.717809 42.000000 19.718750 C 42.258319 18.695414 42.406250 17.634454 42.406250 16.531250 C 42.406250 9.333700 36.572551 3.500000 29.375000 3.500000 z "
     id="path717"
     sodipodi:stroke-cmyk="(0 0 0 0.8)"
     style="font-size:12;fill:url(#linearGradient3959);fill-opacity:1.0;fill-rule:evenodd;stroke:url(#linearGradient3983);stroke-width:4.29110999999999976;stroke-linejoin:round;stroke-linecap:round;stroke-dasharray:none;stroke-opacity:1"
     transform="matrix(0.252273,0.145650,-0.145650,0.252273,31.23431,22.99192)" />
</svg>
