<?xml version="1.0" encoding="UTF-8" standalone="no"?>
<!-- Created with Inkscape (http://www.inkscape.org/) -->

<svg
   xmlns:dc="http://purl.org/dc/elements/1.1/"
   xmlns:cc="http://creativecommons.org/ns#"
   xmlns:rdf="http://www.w3.org/1999/02/22-rdf-syntax-ns#"
   xmlns:svg="http://www.w3.org/2000/svg"
   xmlns="http://www.w3.org/2000/svg"
   xmlns:xlink="http://www.w3.org/1999/xlink"
   xmlns:sodipodi="http://sodipodi.sourceforge.net/DTD/sodipodi-0.dtd"
   xmlns:inkscape="http://www.inkscape.org/namespaces/inkscape"
   height="60.0000000"
   id="svg1"
   inkscape:version="0.48.3.1 r9886"
   sodipodi:docname="applications-puzzles.svg"
   sodipodi:version="0.32"
   version="1.0"
   width="60.0000000"
   x="0"
   y="0">
  <metadata
     id="metadata3">
    <rdf:RDF>
      <cc:Work
         rdf:about="">
        <dc:title />
        <dc:description />
        <dc:subject>
          <rdf:Bag>
            <rdf:li>hash</rdf:li>
            <rdf:li />
            <rdf:li>application</rdf:li>
            <rdf:li>computer</rdf:li>
            <rdf:li>icons</rdf:li>
            <rdf:li>theme</rdf:li>
          </rdf:Bag>
        </dc:subject>
        <dc:publisher>
          <cc:Agent
             rdf:about="http://www.openclipart.org">
            <dc:title>Danny Allen</dc:title>
          </cc:Agent>
        </dc:publisher>
        <dc:creator>
          <cc:Agent>
            <dc:title>Danny Allen</dc:title>
          </cc:Agent>
        </dc:creator>
        <dc:rights>
          <cc:Agent>
            <dc:title>Danny Allen</dc:title>
          </cc:Agent>
        </dc:rights>
        <dc:date />
        <dc:format>image/svg+xml</dc:format>
        <dc:type
           rdf:resource="http://purl.org/dc/dcmitype/StillImage" />
        <cc:license
           rdf:resource="http://web.resource.org/cc/PublicDomain" />
        <dc:language>en</dc:language>
      </cc:Work>
      <cc:License
         rdf:about="http://web.resource.org/cc/PublicDomain">
        <cc:permits
           rdf:resource="http://web.resource.org/cc/Reproduction" />
        <cc:permits
           rdf:resource="http://web.resource.org/cc/Distribution" />
        <cc:permits
           rdf:resource="http://web.resource.org/cc/DerivativeWorks" />
      </cc:License>
    </rdf:RDF>
  </metadata>
  <sodipodi:namedview
     bordercolor="#666666"
     borderopacity="1.0"
     id="base"
     inkscape:cx="62.456656"
     inkscape:cy="47.762092"
     inkscape:pageopacity="0.0"
     inkscape:pageshadow="2"
     inkscape:window-height="693"
     inkscape:window-width="1016"
     inkscape:window-x="749"
     inkscape:window-y="241"
     inkscape:zoom="4.9119411"
     pagecolor="#ffffff"
     showgrid="false"
     inkscape:window-maximized="0"
     inkscape:current-layer="svg1" />
  <defs
     id="defs3">
    <linearGradient
       gradientTransform="matrix(0.70139832,0,0,0.70139832,-5.0221068,-3.1916094)"
       inkscape:collect="always"
       xlink:href="#linearGradient11778-4"
       id="linearGradient11776-6"
       x1="40.563522"
       y1="63.001892"
       x2="88.257416"
       y2="62.138981"
       gradientUnits="userSpaceOnUse" />
    <linearGradient
       y2="236.18201"
       x2="37.4221"
       y1="259.46201"
       x1="265.91901"
       gradientUnits="userSpaceOnUse"
       id="linearGradient11778-4">
      <stop
         id="stop11781-8"
         style="stop-color:#82C7E6"
         offset="0" />
      <stop
         id="stop11783-2"
         style="stop-color:#6690C2"
         offset="0.52413499" />
      <stop
         id="stop11786-8"
         style="stop-color:#3C599B"
         offset="1" />
    </linearGradient>
    <linearGradient
       gradientTransform="matrix(0.70139832,0,0,0.70139832,-5.0221068,-3.1916095)"
       inkscape:collect="always"
       xlink:href="#id4-3"
       id="linearGradient11794-7"
       x1="11.89623"
       y1="67.203064"
       x2="49.768024"
       y2="67.203064"
       gradientUnits="userSpaceOnUse" />
    <linearGradient
       id="id4-3"
       gradientUnits="userSpaceOnUse"
       x1="76.357101"
       y1="27.669701"
       x2="85.763496"
       y2="216.54201">
      <stop
         offset="0"
         style="stop-color:#E7EEFA"
         id="stop27-5" />
      <stop
         offset="1"
         style="stop-color:#7DA2E3"
         id="stop29-2" />
    </linearGradient>
    <linearGradient
       gradientTransform="matrix(0.70139832,0,0,0.70139832,-5.0221068,-3.1916095)"
       inkscape:collect="always"
       xlink:href="#linearGradient11778-4"
       id="linearGradient11803-2"
       x1="11.89623"
       y1="67.203064"
       x2="49.768024"
       y2="67.203064"
       gradientUnits="userSpaceOnUse" />
    <linearGradient
       id="id9-8"
       gradientUnits="userSpaceOnUse"
       x1="265.91901"
       y1="259.46201"
       x2="37.4221"
       y2="236.18201">
      <stop
         offset="0"
         style="stop-color:#82C7E6"
         id="stop48-1" />
      <stop
         offset="0.741176"
         style="stop-color:#6690C2"
         id="stop50-9" />
      <stop
         offset="1"
         style="stop-color:#3C599B"
         id="stop52-6" />
    </linearGradient>
    <linearGradient
       y2="26.927134"
       x2="51.786076"
       y1="26.927134"
       x1="14.029887"
       gradientTransform="matrix(0.70139832,0,0,0.70139832,-5.0221068,-3.1916094)"
       gradientUnits="userSpaceOnUse"
       id="linearGradient3077"
       xlink:href="#id9-8"
       inkscape:collect="always" />
  </defs>
  <path
     inkscape:connector-curvature="0"
     d="M 29.268788,6.7936652 C 28.616424,5.999065 27.644454,5.2906037 26.685349,5.2480428 24.62765,5.690506 26.643331,6.8861867 25.748491,7.8884147 24.853633,8.8906358 23.866821,7.7146362 23.866821,7.7146362 l 0,0 -4.001898,-5.2575274 -5.333166,4.0594619 C 14.35229,6.630057 13.286781,7.2488868 12.74035,6.144016 12.144723,4.939673 14.404376,4.3252691 12.538825,3.3507814 c -0.789789,-0.1809467 -1.712801,0.091118 -2.487524,0.5369204 -0.01206,0.00701 -0.02539,0.013537 -0.03745,0.020551 C 9.7262138,4.0450746 9.4223329,4.2347678 9.1290005,4.4755859 8.3344004,5.1279564 7.6259397,6.0999122 7.5833718,7.0590253 8.0258411,9.1167245 9.2215151,7.1010389 10.223743,7.995883 11.225979,8.8907411 10.049972,9.877552 10.049972,9.877552 l -5.2315589,4.032543 c 0,0 4.0579828,5.24404 4.0579828,5.24404 0,0 0.9868035,1.175999 1.8816761,0.173771 0.894858,-1.002228 -1.1195646,-2.196219 0.938135,-2.638689 0.959113,0.04257 1.929799,0.749339 2.582162,1.543946 0.240825,0.293333 0.430505,0.59722 0.567334,0.884849 0.007,0.01206 0.01361,0.02532 0.02055,0.03745 0.445795,0.774715 0.719144,1.699403 0.538197,2.489193 -0.974488,1.86555 -1.590168,-0.395786 -2.794518,0.199848 -1.204343,0.595635 -0.333621,1.859997 -0.333621,1.859997 l 3.977301,5.228468 5.49117,-4.17973 c 0.398409,-0.185493 1.17647,-0.402568 1.607893,0.469761 0.595634,1.204343 -1.665702,1.82003 0.199856,2.794518 0.789782,0.18094 1.71447,-0.09241 2.489186,-0.538196 0.01227,-0.007 0.02384,-0.01199 0.03619,-0.01873 0.287616,-0.136865 0.591518,-0.326523 0.88485,-0.567348 0.794565,-0.652398 1.503061,-1.624326 1.545629,-2.583433 -0.44247,-2.057699 -1.638143,-0.04202 -2.640365,-0.93685 -1.002227,-0.894858 0.173772,-1.88167 0.173772,-1.88167 l 5.258752,-4.01075 -4.182284,-5.494523 c -0.182539,-0.405198 -0.372239,-1.157742 0.482633,-1.580531 1.204343,-0.595635 1.818747,1.664018 2.793227,-0.201533 0.180947,-0.7897886 -0.09111,-1.7127936 -0.536913,-2.4875091 -0.007,-0.012065 -0.01353,-0.02539 -0.02055,-0.037455 C 29.699834,7.3913596 29.51014,7.0874717 29.269322,6.7941399 z"
     id="path1452"
     sodipodi:nodetypes="cccccccccccccccccccccccccccccccccccccccccc"
     style="fill:url(#linearGradient3077);fill-opacity:1;fill-rule:evenodd;stroke-width:2.8679966pt;display:inline" />
  <path
     inkscape:connector-curvature="0"
     d="m 56.878421,40.103948 c -0.03718,-1.009936 -0.375641,-2.142779 -1.100508,-2.747117 -1.872958,-0.879028 -1.008176,1.256338 -2.304837,1.507487 -1.296661,0.25115 -1.368365,-1.256239 -1.368365,-1.256239 l 0,0 0,-6.495068 c 0,0 -6.441088,0.0083 -6.441088,0.0083 0,0 -1.507389,0.07171 -1.25624,1.368365 0.204065,1.053543 1.653042,0.679922 1.717206,1.507487 0.0148,0.190977 -0.04489,0.446174 -0.209718,0.79735 -0.604325,0.724874 -1.737174,1.063327 -2.747111,1.100508 -0.372829,0.01374 -0.723457,-0.01879 -1.029912,-0.08306 -0.01361,-0.0014 -0.02792,-0.0042 -0.04153,-0.0063 -0.871396,-0.112553 -1.755347,-0.449288 -2.265383,-1.061055 -0.879028,-1.872951 1.256338,-1.008175 1.507487,-2.304837 0.182989,-0.944734 -0.563349,-1.236579 -0.984223,-1.326835 l -6.837679,0 c 0,0 0.0519,6.517912 0.0519,6.517906 0,0 0.07171,1.507396 1.368365,1.256239 1.296661,-0.251149 0.431886,-2.384432 2.304837,-1.505405 0.724867,0.604326 1.063327,1.735099 1.100508,2.745035 0.01374,0.372821 -0.01887,0.723458 -0.08306,1.029912 -0.0014,0.01361 -0.0042,0.02792 -0.0063,0.04152 -0.112553,0.871397 -0.449287,1.757424 -1.061053,2.267459 -1.872959,0.879029 -1.008177,-1.256337 -2.304837,-1.507487 -1.296662,-0.25115 -1.368366,1.25624 -1.368366,1.25624 l -0.0021,6.45769 c 0,0 6.528293,-0.04152 6.528293,-0.04152 0,0 1.507389,-0.07171 1.25624,-1.368364 -0.25115,-1.296662 -2.386516,-0.431886 -1.507488,-2.304837 0.604331,-0.724868 1.737174,-1.063328 2.74711,-1.100509 0.372829,-0.01374 0.723458,0.01887 1.029913,0.08306 0.01361,0.0014 0.02792,0.0042 0.04152,0.0063 0.871397,0.112553 1.755355,0.449288 2.265384,1.061054 0.164821,0.351176 0.224532,0.606373 0.209718,0.79735 -0.06418,0.827558 -1.511065,0.453952 -1.715122,1.507487 -0.234337,1.209835 1.019258,1.346271 1.193941,1.36006 l 6.538674,0 0,-6.787845 c 0.09847,-0.425623 0.398142,-1.127203 1.318538,-0.948928 1.29666,0.251149 0.431878,2.384438 2.304829,1.50541 0.611767,-0.510035 0.948502,-1.393987 1.061055,-2.265383 0.0021,-0.01361 0.0042,-0.02792 0.0063,-0.04152 0.06424,-0.306448 0.09679,-0.657084 0.08306,-1.029906 z"
     id="path1352"
     sodipodi:nodetypes="cccccccccccccccccccccccccccccccccccccccccccc"
     style="fill:url(#linearGradient11776-6);fill-opacity:1;fill-rule:evenodd;stroke-width:2.8679966pt;display:inline" />
  <path
     inkscape:connector-curvature="0"
     d="m 13.032287,31.580795 c -0.883426,0.271911 -1.804117,0.839097 -2.166424,1.622537 -0.333206,1.862739 1.348565,0.593271 1.877392,1.679351 0.528818,1.086081 -0.785904,1.506253 -0.785904,1.506253 l -5.7380627,1.537507 1.5596293,5.820604 c 0.03325,0.187989 0.1849241,1.285368 -0.9205221,1.363406 C 5.653414,45.195523 5.912412,43.106158 4.4658347,44.3261 4.046111,44.921503 3.9578676,45.78214 4.0647051,46.578613 c 0.00137,0.01241 0.00283,0.02574 0.0042,0.03815 0.01578,0.285946 0.070071,0.603412 0.1704258,0.929535 0.2719183,0.883432 0.8390967,1.804116 1.6225373,2.166423 1.8627395,0.333214 0.5932709,-1.348558 1.6793441,-1.877384 1.0860804,-0.528826 1.5062598,0.785903 1.5062598,0.785903 l 1.5718699,5.726875 5.963688,-1.597961 c 0.383181,-0.02602 1.157111,0.03528 1.22091,0.93904 0.08507,1.204988 -2.004288,0.945982 -0.784353,2.392553 0.595403,0.419731 1.456047,0.507975 2.25252,0.401131 0.01241,-0.0014 0.02574,-0.0028 0.03815,-0.0042 0.285939,-0.01578 0.603413,-0.07007 0.929535,-0.170411 0.883433,-0.271911 1.804116,-0.839097 2.166424,-1.622539 0.333206,-1.862738 -1.348566,-0.59327 -1.877384,-1.67935 -0.528827,-1.08608 0.785902,-1.506253 0.785902,-1.506253 l 5.700615,-1.545152 -1.60583,-5.993036 c -0.01852,-0.394683 0.06607,-1.115987 0.938842,-1.177605 1.204989,-0.08507 0.946481,2.006125 2.393052,0.78619 0.419731,-0.59541 0.507483,-1.457877 0.40064,-2.254357 -0.0014,-0.01242 -0.0021,-0.02392 -0.0035,-0.03634 -0.01578,-0.28594 -0.07007,-0.603413 -0.170426,-0.929528 -0.271917,-0.883433 -0.839096,-1.804123 -1.62253,-2.166423 -1.862745,-0.333214 -0.59327,1.348557 -1.679351,1.877384 -1.066539,0.519308 -1.485569,-0.726278 -1.500495,-0.771722 -2.8e-4,-7.01e-4 -0.0098,-0.03668 -0.0098,-0.03668 0,0 0.0056,0.04566 0.0074,0.05702 l -1.547825,-5.776576 -5.99671,1.606812 c -0.39932,0.01374 -1.090064,-0.08489 -1.150447,-0.940225 -0.08507,-1.204987 2.004295,-0.945982 0.784352,-2.39256 -0.595402,-0.419724 -1.456039,-0.507967 -2.252519,-0.401124 -0.01241,0.0014 -0.02574,0.0028 -0.03815,0.0042 -0.285931,0.01578 -0.603406,0.07007 -0.929534,0.170411 z"
     id="path1532"
     sodipodi:nodetypes="ccccccccccccccccccccccccccccccccccccccccccc"
     style="fill:url(#linearGradient11794-7);fill-opacity:1;stroke:url(#linearGradient11803-2);stroke-width:1.40279663;stroke-miterlimit:4;stroke-dasharray:none;display:inline" />
</svg>
