<?xml version="1.0" encoding="UTF-8" standalone="no"?>
<!-- Created with Inkscape (http://www.inkscape.org/) -->

<svg
   xmlns:dc="http://purl.org/dc/elements/1.1/"
   xmlns:cc="http://creativecommons.org/ns#"
   xmlns:rdf="http://www.w3.org/1999/02/22-rdf-syntax-ns#"
   xmlns:svg="http://www.w3.org/2000/svg"
   xmlns="http://www.w3.org/2000/svg"
   xmlns:xlink="http://www.w3.org/1999/xlink"
   xmlns:sodipodi="http://sodipodi.sourceforge.net/DTD/sodipodi-0.dtd"
   xmlns:inkscape="http://www.inkscape.org/namespaces/inkscape"
   version="1.0"
   width="96"
   height="96"
   id="svg2408"
   style="display:inline"
   inkscape:version="0.48.3.1 r9886"
   sodipodi:docname="applications-webbrowsers.svg">
  <sodipodi:namedview
     pagecolor="#ffffff"
     bordercolor="#666666"
     borderopacity="1"
     objecttolerance="10"
     gridtolerance="10"
     guidetolerance="10"
     inkscape:pageopacity="0"
     inkscape:pageshadow="2"
     inkscape:window-width="1918"
     inkscape:window-height="1007"
     id="namedview698"
     showgrid="false"
     inkscape:zoom="3.4766083"
     inkscape:cx="45.894706"
     inkscape:cy="52.860125"
     inkscape:window-x="0"
     inkscape:window-y="25"
     inkscape:window-maximized="1"
     inkscape:current-layer="svg2408" />
  <defs
     id="defs2410">
    <linearGradient
       id="linearGradient8384">
      <stop
         id="stop8386"
         style="stop-color:#1e3b55;stop-opacity:1"
         offset="0" />
      <stop
         id="stop8388"
         style="stop-color:#2e5c84;stop-opacity:1"
         offset="1" />
    </linearGradient>
    <linearGradient
       x1="45.447727"
       y1="92.539597"
       x2="45.447727"
       y2="7.0165396"
       id="ButtonShadow"
       gradientUnits="userSpaceOnUse"
       gradientTransform="scale(1.0058652,0.994169)">
      <stop
         id="stop3750"
         style="stop-color:#000000;stop-opacity:1"
         offset="0" />
      <stop
         id="stop3752"
         style="stop-color:#000000;stop-opacity:0.58823532"
         offset="1" />
    </linearGradient>
    <filter
       color-interpolation-filters="sRGB"
       id="filter3174">
      <feGaussianBlur
         id="feGaussianBlur3176"
         stdDeviation="1.71" />
    </filter>
    <linearGradient
       id="id4"
       gradientUnits="userSpaceOnUse"
       x1="76.357101"
       y1="27.669701"
       x2="85.763496"
       y2="216.54201">
      <stop
         offset="0"
         style="stop-color:#E7EEFA"
         id="stop27" />
      <stop
         offset="1"
         style="stop-color:#7DA2E3"
         id="stop29" />
    </linearGradient>
    <linearGradient
       id="id9"
       gradientUnits="userSpaceOnUse"
       x1="265.91901"
       y1="259.46201"
       x2="37.4221"
       y2="236.18201">
      <stop
         offset="0"
         style="stop-color:#82C7E6"
         id="stop48" />
      <stop
         offset="0.741176"
         style="stop-color:#6690C2"
         id="stop50" />
      <stop
         offset="1"
         style="stop-color:#3C599B"
         id="stop52" />
    </linearGradient>
    <linearGradient
       inkscape:collect="always"
       xlink:href="#linearGradient8384"
       id="linearGradient4322"
       x1="6.1368432"
       y1="45.921394"
       x2="91.002403"
       y2="45.921394"
       gradientUnits="userSpaceOnUse" />
    <linearGradient
       inkscape:collect="always"
       xlink:href="#id9"
       id="linearGradient4330"
       x1="4.8790822"
       y1="47.775909"
       x2="92.75251"
       y2="47.775909"
       gradientUnits="userSpaceOnUse" />
    <linearGradient
       inkscape:collect="always"
       xlink:href="#id4"
       id="linearGradient4340"
       x1="-132.88814"
       y1="-15.171569"
       x2="-65.581161"
       y2="-15.171569"
       gradientUnits="userSpaceOnUse" />
    <linearGradient
       inkscape:collect="always"
       xlink:href="#id9"
       id="linearGradient4348"
       x1="62.471546"
       y1="71.007759"
       x2="79.774284"
       y2="71.007759"
       gradientUnits="userSpaceOnUse" />
    <linearGradient
       inkscape:collect="always"
       xlink:href="#linearGradient8384"
       id="linearGradient4356"
       x1="60.548645"
       y1="70.047157"
       x2="83.620094"
       y2="70.047157"
       gradientUnits="userSpaceOnUse" />
  </defs>
  <metadata
     id="metadata2413">
    <rdf:RDF>
      <cc:Work
         rdf:about="">
        <dc:format>image/svg+xml</dc:format>
        <dc:type
           rdf:resource="http://purl.org/dc/dcmitype/StillImage" />
        <dc:title />
      </cc:Work>
    </rdf:RDF>
  </metadata>
  <path
     sodipodi:type="arc"
     style="fill:url(#linearGradient4340);fill-opacity:1;stroke:none"
     id="path4332"
     sodipodi:cx="-99.23465"
     sodipodi:cy="-15.171569"
     sodipodi:rx="33.653488"
     sodipodi:ry="30.345667"
     d="m -65.581161,-15.171569 a 33.653488,30.345667 0 1 1 -67.306979,0 33.653488,30.345667 0 1 1 67.306979,0 z"
     transform="matrix(1.2905984,0,0,1.4265403,176.9703,68.600804)" />
  <g
     id="layer2"
     style="display:none">
    <rect
       width="86"
       height="85"
       rx="6"
       ry="6"
       x="5"
       y="7"
       id="rect3745"
       style="opacity:0.9;fill:url(#ButtonShadow);fill-opacity:1;fill-rule:nonzero;stroke:none;filter:url(#filter3174)" />
  </g>
  <path
     style="fill:url(#linearGradient4322);fill-opacity:1.0;fill-rule:nonzero;stroke-miterlimit:4;display:inline"
     id="path4144"
     inkscape:connector-curvature="0"
     d="m 48.534555,6.0479872 -4.851487,0.5624896 -5.976454,1.652314 -1.124981,1.0898254 3.726505,2.5663608 0,1.476537 -1.47654,1.476537 1.933565,3.831961 1.300734,-0.703111 1.617171,-2.601514 c 2.499263,-0.774171 4.761071,-1.641312 7.136596,-2.742142 L 52.753229,7.7003012 48.534555,6.0479872 z M 37.179286,6.6456327 c -1.068715,0.3021972 -2.131017,0.6379881 -3.164015,1.0195126 l -0.03527,0.035144 c -0.02043,0.0076 -0.04987,-0.0076 -0.07037,0 -1.425972,0.5309242 -2.7989,1.1539179 -4.148369,1.8280923 L 31.870596,9.9150964 32.67918,9.1768265 34.296331,8.825271 C 35.404659,8.2852251 36.530478,7.9055791 37.70644,7.5245125 L 37.179092,6.6456212 z m -9.667817,4.1835203 -0.316396,0.738269 0.140547,1.828092 -1.265593,1.089822 -0.808601,2.039027 1.617169,0 0.808567,-1.828093 c 0.697703,-0.494333 1.363592,-1.000706 2.074194,-1.476536 l 1.617148,0.562491 c 1.078048,0.73381 2.155401,1.446953 3.23432,2.179651 l 1.652331,-1.47654 -1.792939,-0.703111 -0.808586,-1.652316 -3.093691,-0.386709 -0.140714,-0.914047 -1.476542,0.351557 -0.632796,1.300757 -0.808583,-1.652314 z m 41.448499,1.476536 -3.093692,0.738267 -1.933565,1.265603 0,1.089828 -3.058532,2.039023 0.632796,2.917917 1.792939,-1.2656 1.124983,1.2656 1.300752,0.73827 0.808584,-2.17965 -0.492186,-1.300757 0.492186,-0.914049 1.757778,-1.652312 0.808584,0 -0.808584,1.828092 0,1.652314 c 0.743339,-0.202676 1.524438,-0.256791 2.285125,-0.351555 l -2.109335,1.441383 -0.175817,0.949199 -2.425734,2.003871 -2.425736,-0.562492 0,-1.441379 -1.124981,0.703113 0.492168,1.300758 -1.792938,0 -0.949195,1.652315 -1.230449,1.371071 -2.17964,0.457023 1.300751,1.300757 0.316398,1.265602 -1.617149,0 -2.109338,1.124982 0,3.269473 0.984355,0 0.878888,1.019515 2.039033,-1.019515 0.808565,-2.003871 1.441381,-0.914047 0.3164,-0.738269 2.425751,-0.562489 1.300752,1.476536 1.44138,0.738269 -0.808564,1.652315 1.300751,-0.351555 0.667958,-1.652317 -1.617168,-1.863248 0.632794,0 1.617171,1.300758 0.316396,1.828095 1.476542,1.652312 0.316416,-2.390581 0.808565,-0.351556 c 0.799856,0.831922 1.435681,1.805863 2.109339,2.742137 l 2.425734,0.175768 1.441381,0.914045 -0.632796,0.914047 -1.476542,1.300759 -2.074175,0 -2.777295,-0.914044 -1.441381,0.175768 -1.054676,1.195293 -2.988227,-3.023386 -2.109336,-0.562489 -3.058551,0.386712 -2.777274,0.738267 c -1.543196,1.752809 -3.039311,3.488129 -4.499929,5.308504 l -1.792941,4.218674 0.808586,0.914047 -1.44138,2.214803 1.617151,3.831965 c 1.375597,1.559044 2.73962,3.115541 4.113209,4.675697 l 2.003869,-1.722624 0.91405,1.019513 2.179643,-1.406225 0.738279,0.843734 2.179643,0 1.230446,1.406227 -0.773422,2.531205 1.546846,1.75778 -0.07034,3.023384 1.125,2.179653 -0.808603,1.863244 c -0.08051,1.349899 -0.140548,2.657633 -0.140548,4.007742 0.662989,1.829076 1.307522,3.677215 1.933567,5.519433 l 0.457026,2.91792 0,1.476539 1.160125,0 1.757779,-1.089821 2.109334,0 3.164017,-3.585875 -0.421865,-1.195302 2.109338,-1.828087 -1.546846,-1.757785 1.863243,-1.546844 1.792939,-1.08982 0.808586,-0.914055 -0.492187,-2.039019 c 0,-1.711331 0,-3.421166 0,-5.132725 l 1.476542,-3.128852 1.757777,-2.003869 1.933565,-4.781168 0,-1.265604 c -0.959256,0.12105 -1.874089,0.213198 -2.812453,0.281246 l -0.07037,0.0703 -0.07035,-0.0703 c -0.568014,0.03859 -1.138573,0.0703 -1.722633,0.0703 -1.030186,-2.168882 -1.817024,-4.340264 -2.601507,-6.609258 l -1.371075,-1.546849 -0.703118,-2.671827 0.457024,-0.527333 1.863242,2.109335 2.179663,4.6757 1.300751,1.441383 -0.632796,1.652312 1.230449,1.406227 c 0.04631,-0.0033 0.0944,0.0033 0.140548,0 l 1.933565,-1.93356 2.67183,-1.828092 1.476541,-1.652317 0,-1.863246 C 88.217689,42.490154 87.883191,41.88575 87.55714,41.273905 l -1.300751,1.476536 -0.984357,-1.089824 -1.441378,-1.124979 0,-2.355428 1.687473,1.898404 1.863243,-0.246089 c 0.847486,0.770825 1.682415,1.4778 2.425752,2.355425 l 1.195283,-1.335901 C 89.291993,30.374083 83.75048,21.183999 75.885419,14.731415 l -0.316398,0.492177 -1.617169,1.828092 -2.074175,-2.179648 2.074175,0 0.878908,-0.984359 c -0.07251,-0.05581 -0.138055,-0.120432 -0.210942,-0.175769 l -3.550726,-0.667959 -2.109338,-0.738267 z m -44.225775,0.14062 c -0.57202,0.390544 -1.100704,0.813312 -1.652329,1.230444 l -0.246094,0.632811 c 0,0 -0.443363,0.07424 -0.773404,0.14062 -9.152865,7.359807 -15.22121,18.427304 -15.9255229,30.901798 0.4394801,0.754619 0.9843736,1.617161 0.9843736,1.617161 l 3.4100893,2.00387 3.37493,0.949203 1.476541,1.828092 2.249964,1.652315 1.300752,-0.210941 0.984357,0.457024 0,0.281243 -1.300754,3.480409 -0.984355,1.476537 0.316398,0.73827 -0.808584,2.742136 2.917922,5.343653 2.917922,2.566368 1.300752,1.828091 -0.175816,3.867117 0.984354,2.179653 -0.984354,4.218674 c 0,0 -0.02304,0.03114 0.0351,0.281246 1.359783,0.964115 2.783048,1.86905 4.253837,2.671827 0.02304,0.01258 0.04719,0.02256 0.07037,0.03518 0.06322,0.02971 0.151236,0.07838 0.210941,0.105447 0.521398,0.236685 0.903952,0.376271 0.984355,0.316399 0.320477,-0.243933 0.597652,-0.457022 0.597652,-0.457022 l -0.316397,-0.914045 1.300755,-1.30076 0.492167,-1.265599 2.074194,-0.738266 1.617152,-4.042909 -0.457026,-1.08982 1.12498,-1.652312 2.425754,-0.562494 1.300752,-2.953075 -0.316414,-3.656178 1.933585,-2.742147 0.316396,-2.742134 c -2.655958,-1.319573 -5.309046,-2.68431 -7.945179,-4.042899 l -1.26561,-2.566361 -2.425736,-0.56249 -1.30077,-3.480409 -3.2343,0.351557 -2.742151,-2.003871 -2.917923,2.566362 0,0.386712 C 19.03653,52.057934 17.960425,52.02278 17.175692,51.539366 l -0.667957,-1.82809 0,-2.003872 -1.933568,0.175768 c 0.162089,-1.284783 0.329046,-2.547403 0.492187,-3.831965 l -1.160126,0 -1.125,1.441383 -1.124963,0.56249 -1.617169,-0.914047 -0.1758154,-2.039029 0.3515774,-2.179647 2.425734,-1.828095 1.933549,0 0.316397,-1.124979 2.425755,0.56249 1.792938,2.214805 0.316398,-3.69134 3.058548,-2.566364 1.160125,-2.742137 2.249964,-0.914048 1.300755,-1.828092 2.917921,-0.562492 1.441379,-2.214805 c -1.456162,0 -2.903135,0 -4.3593,0 l 2.742151,-1.265601 1.933549,0 2.742132,-0.914045 0.351557,-1.124981 -0.984354,-0.914049 -1.124964,-0.351556 0.316399,-1.089823 -0.808584,-1.652314 -1.933567,0.703113 0.316397,-1.441383 -2.249964,-1.300756 -1.792939,3.128851 0.175816,1.089823 -1.792939,0.73827 -1.124984,2.390583 -0.492186,-2.214808 -3.05853,-1.265601 -0.492187,-1.652315 4.042903,-2.390584 1.757779,-1.652314 0.175815,-2.003872 -0.984354,-0.562487 -0.175816,-0.03518 z m 28.159662,2.249957 -1.265608,0.703115 -0.667957,-0.175791 -0.140548,1.124981 1.124981,0.703113 1.933567,-1.265603 -0.984355,-1.089827 z m -21.339482,0.351558 -1.300752,0.914047 1.617151,1.089825 1.300752,0 0,-1.265602 -1.617151,-0.73827 z m 25.558158,4.218676 0,1.089825 0.667939,0.738267 0,1.652314 -0.351542,2.214807 1.792939,-0.386712 1.300753,-1.265603 -1.124983,-1.089825 C 59.017295,21.204813 58.572916,20.239788 58.096886,19.2665 l -0.984355,0 z m -0.632797,2.214803 -1.160144,0.351559 0.351542,2.003872 1.441399,-0.703116 -0.632797,-1.652315 z m -22.323837,3.304632 0.457008,2.56636 0.984373,-1.476537 -1.441381,-1.089823 z" />
  <path
     style="fill:none;fill-opacity:1;fill-rule:evenodd;stroke:url(#linearGradient4330);stroke-width:2.37492609000000021;display:inline"
     id="path5993"
     d="m 91.565047,47.780043 a 42.749251,42.746921 0 0 1 -85.4985016,0 42.749251,42.746921 0 1 1 85.4985016,0 z"
     inkscape:connector-curvature="0" />
  <path
     style="fill:url(#linearGradient4356);fill-opacity:1.0;fill-rule:evenodd;stroke:none"
     id="rect1430"
     d="m 60.548644,49.859215 0,32.684269 1.922903,0 0,-1.922904 1.922904,0 0,-1.921207 -1.922904,0 0,-24.996047 1.922904,0 0,-1.921207 -1.922904,0 0,-1.922904 -1.922903,0 z m 3.845807,3.844111 0,1.922903 1.921207,0 0,-1.922903 -1.921207,0 z m 1.921207,1.922903 0,1.922904 1.922904,0 0,-1.922904 -1.922904,0 z m 1.922904,1.922904 0,1.922903 1.922903,0 0,-1.922903 -1.922903,0 z m 1.922903,1.922903 0,1.922903 1.922903,0 0,-1.922903 -1.922903,0 z m 1.922903,1.922903 0,1.922903 1.922903,0 0,-1.922903 -1.922903,0 z m 1.922903,1.922903 0,1.922904 1.922904,0 0,-1.922904 -1.922904,0 z m 1.922904,1.922904 0,1.921207 1.922903,0 0,-1.921207 -1.922903,0 z m 1.922903,1.921207 0,1.922904 1.921207,0 0,-1.922904 -1.921207,0 z m 1.921207,1.922904 0,1.922903 -5.767014,0 0,1.922903 0,3.845806 1.922904,0 0,-3.845806 7.689917,0 0,-1.922903 -1.922903,0 0,-1.922903 -1.922904,0 z m -3.84411,7.691612 0,3.844111 1.922903,0 0,-3.844111 -1.922903,0 z m 1.922903,3.844111 0,3.845807 1.921207,0 0,-3.845807 -1.921207,0 z m 1.921207,3.845807 0,3.845806 1.922904,0 0,-3.845806 -1.922904,0 z m 0,3.845806 -3.84411,0 0,1.922904 3.84411,0 0,-1.922904 z m -3.84411,0 0,-3.845806 -1.922904,0 0,3.845806 1.922904,0 z m -1.922904,-3.845806 0,-3.845807 -1.922903,0 0,3.845807 1.922903,0 z m -1.922903,-3.845807 0,-3.844111 -1.922903,0 0,3.844111 1.922903,0 z m -1.922903,-3.844111 0,-3.845806 -1.922903,0 0,1.922903 -1.922904,0 0,1.922903 1.922904,0 1.922903,0 z m -3.845807,0 -1.921207,0 0,1.922904 1.921207,0 0,-1.922904 z"
     inkscape:connector-curvature="0" />
  <path
     style="fill:url(#linearGradient4348);fill-opacity:1.0;stroke:none"
     id="rect3779"
     d="m 62.471547,53.703326 0,24.996047 1.922904,0 0,-1.922904 1.921207,0 0,-1.922903 1.922904,0 0,-1.922903 1.922903,0 0,3.845806 1.922903,0 0,3.844111 1.922903,0 0,3.845807 1.922904,0 0,3.845806 1.922903,0 1.921207,0 0,-3.845806 -1.921207,0 0,-3.845807 -1.922903,0 0,-3.844111 -1.922904,0 0,-5.768709 1.922904,0 1.922903,0 1.921207,0 0,-1.922903 -1.921207,0 0,-1.922904 -1.922903,0 0,-1.921207 -1.922904,0 0,-1.922904 -1.922903,0 0,-1.922903 -1.922903,0 0,-1.922903 -1.922903,0 0,-1.922903 -1.922904,0 0,-1.922904 -1.921207,0 0,-1.922903 -1.922904,0 z"
     inkscape:connector-curvature="0" />
</svg>
