<?xml version="1.0" encoding="UTF-8" standalone="no"?>
<!-- Created with Inkscape (http://www.inkscape.org/) -->

<svg
   xmlns:dc="http://purl.org/dc/elements/1.1/"
   xmlns:cc="http://creativecommons.org/ns#"
   xmlns:rdf="http://www.w3.org/1999/02/22-rdf-syntax-ns#"
   xmlns:svg="http://www.w3.org/2000/svg"
   xmlns="http://www.w3.org/2000/svg"
   xmlns:xlink="http://www.w3.org/1999/xlink"
   xmlns:sodipodi="http://sodipodi.sourceforge.net/DTD/sodipodi-0.dtd"
   xmlns:inkscape="http://www.inkscape.org/namespaces/inkscape"
   height="256"
   id="svg1"
   inkscape:version="0.48.3.1 r9886"
   sodipodi:docname="huayra-menu-development.svg"
   sodipodi:version="0.32"
   version="1.0"
   width="256"
   x="0"
   y="0">
  <metadata
     id="metadata3">
    <rdf:RDF>
      <cc:Work
         rdf:about="">
        <dc:title>Part of the Flat Icon Collection (Wed Aug 25 23:23:49 2004)</dc:title>
        <dc:description />
        <dc:subject>
          <rdf:Bag>
            <rdf:li>hash</rdf:li>
            <rdf:li />
            <rdf:li>application</rdf:li>
            <rdf:li>computer</rdf:li>
            <rdf:li>icons</rdf:li>
            <rdf:li>theme</rdf:li>
          </rdf:Bag>
        </dc:subject>
        <dc:publisher>
          <cc:Agent
             rdf:about="http://www.openclipart.org">
            <dc:title>Danny Allen</dc:title>
          </cc:Agent>
        </dc:publisher>
        <dc:creator>
          <cc:Agent>
            <dc:title>Danny Allen</dc:title>
          </cc:Agent>
        </dc:creator>
        <dc:rights>
          <cc:Agent>
            <dc:title>Danny Allen</dc:title>
          </cc:Agent>
        </dc:rights>
        <dc:date />
        <dc:format>image/svg+xml</dc:format>
        <dc:type
           rdf:resource="http://purl.org/dc/dcmitype/StillImage" />
        <cc:license
           rdf:resource="http://web.resource.org/cc/PublicDomain" />
        <dc:language>en</dc:language>
      </cc:Work>
      <cc:License
         rdf:about="http://web.resource.org/cc/PublicDomain">
        <cc:permits
           rdf:resource="http://web.resource.org/cc/Reproduction" />
        <cc:permits
           rdf:resource="http://web.resource.org/cc/Distribution" />
        <cc:permits
           rdf:resource="http://web.resource.org/cc/DerivativeWorks" />
      </cc:License>
    </rdf:RDF>
  </metadata>
  <sodipodi:namedview
     bordercolor="#666666"
     borderopacity="1.0"
     id="base"
     inkscape:cx="5.6818938"
     inkscape:cy="125.08392"
     inkscape:pageopacity="0.0"
     inkscape:pageshadow="2"
     inkscape:window-height="1032"
     inkscape:window-width="1918"
     inkscape:window-x="0"
     inkscape:window-y="25"
     inkscape:zoom="1.3828125"
     pagecolor="#ffffff"
     showgrid="false"
     inkscape:window-maximized="1"
     inkscape:current-layer="svg1" />
  <defs
     id="defs3">
    <linearGradient
       y2="139.72"
       x2="213.589"
       y1="139.72"
       x1="16.0875"
       gradientUnits="userSpaceOnUse"
       id="linearGradient3102"
       xlink:href="#id10"
       inkscape:collect="always" />
    <linearGradient
       y2="111.725"
       x2="23.66"
       y1="240.427"
       x1="276.36401"
       gradientUnits="userSpaceOnUse"
       id="linearGradient3100"
       xlink:href="#id24"
       inkscape:collect="always" />
    <linearGradient
       y2="253.16901"
       x2="265.479"
       y1="98.998398"
       x1="34.465698"
       gradientUnits="userSpaceOnUse"
       id="linearGradient3098"
       xlink:href="#id11"
       inkscape:collect="always" />
    <linearGradient
       y2="17.787201"
       x2="143.293"
       y1="55.098598"
       x1="201.923"
       xlink:href="#id24"
       gradientUnits="userSpaceOnUse"
       id="id28">
  </linearGradient>
    <linearGradient
       y2="85.690201"
       x2="141.243"
       y1="127.989"
       x1="207.71001"
       xlink:href="#id24"
       gradientUnits="userSpaceOnUse"
       id="id27">
  </linearGradient>
    <linearGradient
       y2="157.72701"
       x2="111.403"
       y1="201.45"
       x1="180.10899"
       xlink:href="#id24"
       gradientUnits="userSpaceOnUse"
       id="id26">
  </linearGradient>
    <linearGradient
       y2="53.753201"
       x2="82.229897"
       y1="91.490997"
       x1="141.53101"
       xlink:href="#id24"
       gradientUnits="userSpaceOnUse"
       id="id25">
  </linearGradient>
    <linearGradient
       y2="111.725"
       x2="23.66"
       y1="240.427"
       x1="276.36401"
       gradientUnits="userSpaceOnUse"
       id="id24">
   <stop
   id="stop77"
   style="stop-color:#82C7E6"
   offset="0" />

   <stop
   id="stop79"
   style="stop-color:#6690C2"
   offset="0.741176" />

   <stop
   id="stop81"
   style="stop-color:#3C599B"
   offset="1" />

  </linearGradient>
    <linearGradient
       y2="111.711"
       x2="193.511"
       y1="98.172096"
       x1="141.078"
       xlink:href="#id10"
       gradientUnits="userSpaceOnUse"
       id="id23">
  </linearGradient>
    <linearGradient
       y2="40.741199"
       x2="189.399"
       y1="28.7964"
       x1="143.147"
       xlink:href="#id10"
       gradientUnits="userSpaceOnUse"
       id="id22">
  </linearGradient>
    <linearGradient
       y2="76.968903"
       x2="94.897301"
       y1="64.888397"
       x1="141.67999"
       xlink:href="#id10"
       gradientUnits="userSpaceOnUse"
       id="id21">
  </linearGradient>
    <linearGradient
       y2="184.625"
       x2="126.078"
       y1="170.629"
       x1="180.28"
       xlink:href="#id10"
       gradientUnits="userSpaceOnUse"
       id="id20">
  </linearGradient>
    <linearGradient
       y2="132.877"
       x2="205.745"
       y1="81.511497"
       x1="143.54201"
       xlink:href="#id11"
       gradientUnits="userSpaceOnUse"
       id="id19">
  </linearGradient>
    <linearGradient
       y2="95.337402"
       x2="140.65199"
       y1="47.710201"
       x1="82.969002"
       xlink:href="#id11"
       gradientUnits="userSpaceOnUse"
       id="id18">
  </linearGradient>
    <linearGradient
       y2="131.22701"
       x2="203.746"
       y1="82.448601"
       x1="145.21001"
       xlink:href="#id11"
       gradientUnits="userSpaceOnUse"
       id="id17">
  </linearGradient>
    <linearGradient
       y2="57.955399"
       x2="198.427"
       y1="14.9276"
       x1="146.793"
       xlink:href="#id11"
       gradientUnits="userSpaceOnUse"
       id="id16">
  </linearGradient>
    <linearGradient
       y2="94.379601"
       x2="137.991"
       y1="50.861801"
       x1="85.766296"
       xlink:href="#id11"
       gradientUnits="userSpaceOnUse"
       id="id15">
  </linearGradient>
    <linearGradient
       y2="204.797"
       x2="176.007"
       y1="154.377"
       x1="115.5"
       xlink:href="#id11"
       gradientUnits="userSpaceOnUse"
       id="id14">
  </linearGradient>
    <linearGradient
       y2="58.899399"
       x2="197.724"
       y1="14.9788"
       x1="144.53101"
       xlink:href="#id11"
       gradientUnits="userSpaceOnUse"
       id="id13">
  </linearGradient>
    <linearGradient
       y2="205.461"
       x2="111.465"
       y1="151.899"
       x1="176.33"
       xlink:href="#id11"
       gradientUnits="userSpaceOnUse"
       id="id12">
  </linearGradient>
    <linearGradient
       y2="253.16901"
       x2="265.479"
       y1="98.998398"
       x1="34.465698"
       gradientUnits="userSpaceOnUse"
       id="id11">
   <stop
   id="stop56"
   style="stop-color:#94C9E2"
   offset="0" />

   <stop
   id="stop58"
   style="stop-color:#58A6D8"
   offset="0.490196" />

   <stop
   id="stop60"
   style="stop-color:#50719E"
   offset="0.819608" />

   <stop
   id="stop62"
   style="stop-color:#386EAB"
   offset="1" />

  </linearGradient>
    <linearGradient
       y2="139.72"
       x2="213.589"
       y1="139.72"
       x1="16.0875"
       gradientUnits="userSpaceOnUse"
       id="id10">
   <stop
   id="stop51"
   style="stop-color:#B3D5E1"
   offset="0" />

   <stop
   id="stop53"
   style="stop-color:white"
   offset="1" />

  </linearGradient>
    <mask
       id="id8">
  <linearGradient
   y2="172.40199"
   x2="130.94901"
   y1="182.85201"
   x1="175.409"
   gradientUnits="userSpaceOnUse"
   id="id9">
   <stop
   id="stop44"
   style="stop-opacity:1; stop-color:white"
   offset="0" />

   <stop
   id="stop46"
   style="stop-opacity:0; stop-color:white"
   offset="1" />

  </linearGradient>

      <rect
   id="rect48"
   height="76.192398"
   width="66.398499"
   y="139.53101"
   x="119.98"
   style="fill:url(#id9)" />

     </mask>
    <mask
       id="id6">
  <linearGradient
   y2="66.419197"
   x2="99.102203"
   y1="75.438103"
   x1="137.47501"
   gradientUnits="userSpaceOnUse"
   id="id7">
   <stop
   id="stop36"
   style="stop-opacity:1; stop-color:white"
   offset="0" />

   <stop
   id="stop38"
   style="stop-opacity:0; stop-color:white"
   offset="1" />

  </linearGradient>

      <rect
   id="rect40"
   height="66.143799"
   width="57.689602"
   y="37.8568"
   x="89.443901"
   style="fill:url(#id7)" />

     </mask>
    <mask
       id="id4">
  <linearGradient
   y2="99.885597"
   x2="188.799"
   y1="109.998"
   x1="145.78999"
   gradientUnits="userSpaceOnUse"
   id="id5">
   <stop
   id="stop28"
   style="stop-opacity:1; stop-color:white"
   offset="0" />

   <stop
   id="stop30"
   style="stop-opacity:0; stop-color:white"
   offset="1" />

  </linearGradient>

      <rect
   id="rect32"
   height="73.797897"
   width="64.325104"
   y="68.042801"
   x="135.132"
   style="fill:url(#id5)" />

     </mask>
    <mask
       id="id2">
  <linearGradient
   y2="30.3092"
   x2="185.242"
   y1="39.228401"
   x1="147.304"
   gradientUnits="userSpaceOnUse"
   id="id3">
   <stop
   id="stop20"
   style="stop-opacity:1; stop-color:white"
   offset="0" />

   <stop
   id="stop22"
   style="stop-opacity:0; stop-color:white"
   offset="1" />

  </linearGradient>

      <rect
   id="rect24"
   height="65.424004"
   width="57.066799"
   y="2.0567901"
   x="137.74001"
   style="fill:url(#id3)" />

     </mask>
    <mask
       id="id0">
  <linearGradient
   y2="203.98199"
   x2="179.39799"
   y1="75.458801"
   x1="50.277699"
   gradientUnits="userSpaceOnUse"
   id="id1">
   <stop
   id="stop10"
   style="stop-opacity:1; stop-color:white"
   offset="0" />

   <stop
   id="stop12"
   style="stop-opacity:0.501961; stop-color:white"
   offset="0.439216" />

   <stop
   id="stop14"
   style="stop-opacity:0; stop-color:white"
   offset="1" />

  </linearGradient>

      <rect
   id="rect16"
   height="303.577"
   width="217.44299"
   y="-12.068"
   x="6.1163802"
   style="fill:url(#id1)" />

     </mask>
    <style
       id="style6"
       type="text/css">
   
    .fil2 {fill:url(#id10)}
    .fil0 {fill:url(#id11)}
    .fil4 {fill:url(#id12)}
    .fil6 {fill:url(#id13)}
    .fil16 {fill:url(#id14)}
    .fil13 {fill:url(#id15)}
    .fil7 {fill:url(#id16)}
    .fil10 {fill:url(#id17)}
    .fil3 {fill:url(#id18)}
    .fil5 {fill:url(#id19)}
    .fil18 {fill:url(#id20)}
    .fil15 {fill:url(#id21)}
    .fil9 {fill:url(#id22)}
    .fil12 {fill:url(#id23)}
    .fil1 {fill:url(#id24);fill-rule:nonzero}
    .fil14 {fill:url(#id25);fill-rule:nonzero}
    .fil17 {fill:url(#id26);fill-rule:nonzero}
    .fil11 {fill:url(#id27);fill-rule:nonzero}
    .fil8 {fill:url(#id28);fill-rule:nonzero}
   
  </style>
    <linearGradient
       inkscape:collect="always"
       xlink:href="#id24"
       id="linearGradient3937"
       x1="87.311295"
       y1="-0.72316742"
       x2="257.54575"
       y2="258.89264"
       gradientUnits="userSpaceOnUse" />
    <linearGradient
       inkscape:collect="always"
       xlink:href="#id24"
       id="linearGradient3945"
       x1="256.53165"
       y1="286.37286"
       x2="67.353653"
       y2="75.209038"
       gradientUnits="userSpaceOnUse" />
    <linearGradient
       inkscape:collect="always"
       xlink:href="#id24"
       id="linearGradient3953"
       x1="-108.11332"
       y1="205.92657"
       x2="22.074627"
       y2="191.4633"
       gradientUnits="userSpaceOnUse" />
    <linearGradient
       inkscape:collect="always"
       xlink:href="#id24"
       id="linearGradient3966"
       x1="212.75928"
       y1="181.48889"
       x2="161.64592"
       y2="140.26857"
       gradientUnits="userSpaceOnUse" />
    <linearGradient
       inkscape:collect="always"
       xlink:href="#id24"
       id="linearGradient3974"
       x1="157.07567"
       y1="163.40981"
       x2="188.40297"
       y2="214.03128"
       gradientUnits="userSpaceOnUse" />
  </defs>
  <rect
     height="239.27901"
     id="rect812"
     rx="9.4980545"
     sodipodi:fill-cmyk="(0.0000000 0.0000000 0.0000000 0.20000000)"
     sodipodi:stroke-cmyk="(0.0000000 0.0000000 0.0000000 0.69999999)"
     style="font-size:12px;fill:url(#linearGradient3937);fill-opacity:1;fill-rule:evenodd;stroke:url(#linearGradient3945);stroke-width:2.28585934999999996;stroke-linejoin:round;stroke-miterlimit:4;stroke-opacity:1;stroke-dasharray:none"
     width="240.98813"
     x="8.1830378"
     y="7.6373253" />
  <path
     d="m 210.2668,71.828594 c 2.23793,0 3.95211,-0.964199 5.14251,-2.892655 1.19039,-1.952225 1.95224,-4.213993 2.28556,-6.785247 0.35714,-2.571254 0.53568,-5.071079 0.53568,-7.499475 0,-2.523654 -0.17854,-5.059222 -0.53568,-7.606648 -0.33332,-2.547481 -1.09517,-4.773507 -2.28556,-6.678134 -1.16658,-1.904625 -2.88077,-2.856967 -5.14251,-2.856967 -2.26175,0 -3.98783,0.952342 -5.17823,2.856967 -1.16659,1.904627 -1.92844,4.130653 -2.28556,6.678134 -0.33333,2.547426 -0.49996,5.082994 -0.49996,7.606648 0,4.285422 0.52378,8.225616 1.57133,11.820639 1.04755,3.57114 3.17837,5.356738 6.39243,5.356738 z m 0,10.035043 c -4.61874,0 -8.38038,-1.357027 -11.28497,-4.071138 -2.90457,-2.714109 -4.98776,-6.130535 -6.24957,-10.249329 -1.23803,-4.118738 -1.85703,-8.416074 -1.85703,-12.891953 0,-3.261711 0.33332,-6.451992 0.99992,-9.570789 0.66664,-3.14268 1.76181,-6.047248 3.28551,-8.713702 1.52371,-2.690338 3.53548,-4.833022 6.03532,-6.428161 2.52364,-1.61897 5.54725,-2.428399 9.07082,-2.428399 3.54737,0 6.55907,0.809429 9.03509,2.428399 2.49985,1.595139 4.49972,3.725909 5.9996,6.392419 1.52371,2.66651 2.61889,5.582991 3.28551,8.749444 0.69043,3.166453 1.03565,6.35668 1.03565,9.570789 0,3.214052 -0.34523,6.416191 -1.03565,9.606472 -0.66662,3.166453 -1.74987,6.082934 -3.24978,8.749445 -1.4999,2.666454 -3.51168,4.809193 -6.03533,6.428106 -2.52362,1.618969 -5.53533,2.428397 -9.03509,2.428397 z M 168.26959,71.828594 c 2.23795,0 3.95213,-0.964199 5.14253,-2.892655 1.19039,-1.952225 1.95224,-4.213993 2.28556,-6.785247 0.35709,-2.571254 0.53568,-5.071079 0.53568,-7.499475 0,-2.523654 -0.17854,-5.059222 -0.53568,-7.606648 -0.33331,-2.547481 -1.09517,-4.773507 -2.28556,-6.678134 -1.16658,-1.904625 -2.88077,-2.856967 -5.14253,-2.856967 -2.26173,0 -3.98781,0.952342 -5.17821,2.856967 -1.16659,1.904627 -1.92844,4.130653 -2.28558,6.678134 -0.33329,2.547426 -0.49994,5.082994 -0.49994,7.606648 0,4.285422 0.52378,8.225616 1.57133,11.820639 1.04755,3.57114 3.17837,5.356738 6.39243,5.356738 z m 0,10.035043 c -4.61872,0 -8.38038,-1.357027 -11.28495,-4.071138 -2.90457,-2.714109 -4.98776,-6.130535 -6.24957,-10.249329 -1.23803,-4.118738 -1.85703,-8.416074 -1.85703,-12.891953 0,-3.261711 0.33332,-6.451992 0.99992,-9.570789 0.66664,-3.14268 1.76181,-6.047248 3.28551,-8.713702 1.5237,-2.690338 3.53548,-4.833022 6.03531,-6.428161 2.52364,-1.61897 5.54725,-2.428399 9.07081,-2.428399 3.54739,0 6.55909,0.809429 9.03512,2.428399 2.49984,1.595139 4.49971,3.725909 5.99959,6.392419 1.52371,2.66651 2.61889,5.582991 3.28551,8.749444 0.69043,3.166453 1.03565,6.35668 1.03565,9.570789 0,3.214052 -0.34523,6.416191 -1.03565,9.606472 -0.66662,3.166453 -1.7499,6.082934 -3.24978,8.749445 -1.49991,2.666454 -3.51168,4.809193 -6.03532,6.428106 -2.52364,1.618969 -5.53534,2.428397 -9.03512,2.428397 z m -36.96181,-6.249563 0,-37.068923 -4.32114,0 c -1.64274,0 -2.88076,-0.488251 -3.71403,-1.464198 -0.83328,-0.976112 -1.24992,-2.166511 -1.24992,-3.571194 0,-1.380857 0.44043,-2.583168 1.32134,-3.606882 0.90469,-1.023769 2.11891,-1.535626 3.64261,-1.535626 l 10.39217,0 c 1.02375,0 1.90464,0.23828 2.64269,0.714227 0.73803,0.452622 1.29753,1.07137 1.67845,1.857027 0.38091,0.761828 0.57139,1.666569 0.57139,2.714109 l 0,41.96146 c 0,1.857025 -0.5,3.285482 -1.49989,4.285422 -0.99995,0.999941 -2.32128,1.499885 -3.96403,1.499885 -1.61894,0 -2.94029,-0.511635 -3.96402,-1.535572 -1.02374,-1.023768 -1.53562,-2.440309 -1.53562,-4.249735 z m -27.06961,0 0,-37.068923 -4.321141,0 c -1.642739,0 -2.880754,-0.488251 -3.714045,-1.464198 -0.833277,-0.976112 -1.249915,-2.166511 -1.249915,-3.571194 0,-1.380857 0.440438,-2.583168 1.321343,-3.606882 0.904704,-1.023769 2.118905,-1.535626 3.642617,-1.535626 l 10.392161,0 c 1.02374,0 1.90464,0.23828 2.64268,0.714227 0.73804,0.452622 1.29753,1.07137 1.67846,1.857027 0.38091,0.761828 0.57138,1.666569 0.57138,2.714109 l 0,41.96146 c 0,1.857025 -0.49994,3.285482 -1.49989,4.285422 -0.99994,0.999941 -2.32129,1.499885 -3.96402,1.499885 -1.61894,0 -2.94029,-0.511635 -3.96402,-1.535572 -1.02375,-1.023768 -1.53561,-2.440309 -1.53561,-4.249735 z m -32.104998,-3.78548 c 2.237946,0 3.952113,-0.964199 5.142513,-2.892655 1.190398,-1.952225 1.952253,-4.213993 2.285555,-6.785247 0.357143,-2.571254 0.535686,-5.071079 0.535686,-7.499475 0,-2.523654 -0.178543,-5.059222 -0.535686,-7.606648 -0.333312,-2.547481 -1.095157,-4.773507 -2.285555,-6.678134 -1.166593,-1.904625 -2.880762,-2.856967 -5.142513,-2.856967 -2.261759,0 -3.98783,0.952342 -5.178227,2.856967 -1.166593,1.904627 -1.928449,4.130653 -2.285559,6.678134 -0.333313,2.547426 -0.499998,5.082994 -0.499998,7.606648 0,4.285422 0.523772,8.225616 1.571329,11.820639 1.047547,3.57114 3.178357,5.356738 6.392432,5.356738 z m 0,10.035043 c -4.618738,0 -8.380394,-1.357027 -11.284957,-4.071138 -2.904573,-2.714109 -4.987765,-6.130535 -6.249591,-10.249329 -1.238006,-4.118738 -1.85702,-8.416074 -1.85702,-12.891953 0,-3.261711 0.333313,-6.451992 0.999936,-9.570789 0.666621,-3.14268 1.761785,-6.047248 3.285492,-8.713702 1.523706,-2.690338 3.535486,-4.833022 6.035317,-6.428161 2.523638,-1.61897 5.547251,-2.428399 9.070823,-2.428399 3.547377,0 6.559082,0.809429 9.035107,2.428399 2.499831,1.595139 4.499702,3.725909 5.999598,6.392419 1.523706,2.66651 2.618876,5.582991 3.285497,8.749444 0.690436,3.166453 1.035646,6.35668 1.035646,9.570789 0,3.214052 -0.345239,6.416191 -1.035646,9.606472 -0.666621,3.166453 -1.749882,6.082934 -3.249789,8.749445 -1.499894,2.666454 -3.511669,4.809193 -6.035306,6.428106 -2.523642,1.618969 -5.535341,2.428397 -9.035107,2.428397 z m -36.961819,-6.249563 0,-37.068923 -4.321139,0 c -1.642747,0 -2.880761,-0.488251 -3.714037,-1.464198 -0.833277,-0.976112 -1.249917,-2.166511 -1.249917,-3.571194 0,-1.380857 0.440445,-2.583168 1.32134,-3.606882 0.904702,-1.023769 2.118907,-1.535626 3.642614,-1.535626 l 10.392165,0 c 1.02374,0 1.904631,0.23828 2.642677,0.714227 0.738044,0.452622 1.297529,1.07137 1.678459,1.857027 0.380926,0.761828 0.571388,1.666569 0.571388,2.714109 l 0,41.96146 c 0,1.857025 -0.499959,3.285482 -1.499901,4.285422 -0.999929,0.999941 -2.32127,1.499885 -3.964017,1.499885 -1.618941,0 -2.940277,-0.511635 -3.96402,-1.535572 -1.023738,-1.023768 -1.535612,-2.440309 -1.535612,-4.249735 z m 138.133627,73.137956 0,-37.06892 -4.32114,0 c -1.64275,0 -2.88075,-0.48825 -3.71404,-1.46419 -0.83328,-0.97612 -1.24992,-2.16652 -1.24992,-3.57121 0,-1.38084 0.44048,-2.58316 1.32136,-3.60687 0.90469,-1.02378 2.11889,-1.53563 3.6426,-1.53563 l 10.39216,0 c 1.02375,0 1.90464,0.23828 2.64269,0.71423 0.73803,0.45262 1.29753,1.07136 1.67845,1.85703 0.38091,0.76182 0.57139,1.66656 0.57139,2.71411 l 0,41.96145 c 0,1.85702 -0.49995,3.28553 -1.49989,4.28542 -0.99994,0.99995 -2.32128,1.49994 -3.96402,1.49994 -1.61895,0 -2.94029,-0.51162 -3.96403,-1.53562 -1.02373,-1.02376 -1.53561,-2.44032 -1.53561,-4.24974 z m -27.06962,0 0,-37.06892 -4.32114,0 c -1.64274,0 -2.88076,-0.48825 -3.71403,-1.46419 -0.83329,-0.97612 -1.24993,-2.16652 -1.24993,-3.57121 0,-1.38084 0.44044,-2.58316 1.32134,-3.60687 0.90471,-1.02378 2.11892,-1.53563 3.64262,-1.53563 l 10.39216,0 c 1.02375,0 1.90464,0.23828 2.64268,0.71423 0.73805,0.45262 1.29753,1.07136 1.67846,1.85703 0.38092,0.76182 0.57139,1.66656 0.57139,2.71411 l 0,41.96145 c 0,1.85702 -0.49999,3.28553 -1.4999,4.28542 -0.99993,0.99995 -2.32127,1.49994 -3.96402,1.49994 -1.61894,0 -2.94029,-0.51162 -3.96403,-1.53562 -1.02372,-1.02376 -1.5356,-2.44032 -1.5356,-4.24974 z m -32.105,-3.78542 c 2.23795,0 3.95212,-0.96426 5.14252,-2.89271 1.1904,-1.95224 1.95225,-4.214 2.28556,-6.78524 0.35714,-2.57127 0.53568,-5.07109 0.53568,-7.49948 0,-2.52366 -0.17854,-5.05923 -0.53568,-7.60666 -0.33331,-2.54741 -1.09516,-4.7735 -2.28556,-6.67813 -1.16659,-1.90462 -2.88076,-2.85696 -5.14252,-2.85696 -2.26176,0 -3.98783,0.95234 -5.17821,2.85696 -1.16661,1.90463 -1.92845,4.13072 -2.28558,6.67813 -0.33331,2.54743 -0.49999,5.083 -0.49999,7.60666 0,4.28541 0.52376,8.22561 1.57132,11.82063 1.04755,3.57121 3.17837,5.3568 6.39243,5.3568 z m 0,10.03504 c -4.61873,0 -8.38039,-1.35707 -11.28496,-4.07119 -2.904557,-2.71411 -4.987763,-6.13053 -6.249578,-10.24927 -1.238015,-4.11879 -1.857023,-8.41613 -1.857023,-12.89201 0,-3.26172 0.333311,-6.45194 0.999933,-9.57079 0.666621,-3.14268 1.761795,-6.04725 3.285493,-8.71371 1.523715,-2.69033 3.535475,-4.83302 6.035325,-6.42816 2.52363,-1.61891 5.54724,-2.42839 9.07081,-2.42839 3.54738,0 6.55909,0.80948 9.03512,2.42839 2.49983,1.59514 4.49969,3.72597 5.99959,6.39242 1.52371,2.66651 2.61887,5.58299 3.28549,8.74945 0.69044,3.16645 1.03566,6.35668 1.03566,9.57079 0,3.21404 -0.34523,6.41625 -1.03566,9.60646 -0.66662,3.16646 -1.74988,6.08295 -3.24977,8.74944 -1.4999,2.66646 -3.51168,4.8092 -6.03531,6.42812 -2.52365,1.61897 -5.53534,2.42845 -9.03512,2.42845 z m -36.961813,-6.24962 0,-37.06892 -4.321137,0 c -1.642753,0 -2.880768,-0.48825 -3.71404,-1.46419 -0.833278,-0.97612 -1.249918,-2.16652 -1.249918,-3.57121 0,-1.38084 0.440427,-2.58316 1.32134,-3.60687 0.904702,-1.02378 2.118913,-1.53563 3.642618,-1.53563 l 10.392163,0 c 1.023737,0 1.904633,0.23828 2.642672,0.71423 0.738051,0.45262 1.297535,1.07136 1.678465,1.85703 0.380914,0.76182 0.571388,1.66656 0.571388,2.71411 l 0,41.96145 c 0,1.85702 -0.499942,3.28553 -1.4999,4.28542 -0.99993,0.99995 -2.321272,1.49994 -3.964018,1.49994 -1.618942,0 -2.940282,-0.51162 -3.964023,-1.53562 -1.023742,-1.02376 -1.53561,-2.44032 -1.53561,-4.24974 z m -32.104996,-3.78542 c 2.237945,0 3.952116,-0.96426 5.142513,-2.89271 1.190393,-1.95224 1.952249,-4.214 2.285562,-6.78524 0.357142,-2.57127 0.535686,-5.07109 0.535686,-7.49948 0,-2.52366 -0.178544,-5.05923 -0.535686,-7.60666 -0.333313,-2.54741 -1.095169,-4.7735 -2.285562,-6.67813 -1.166586,-1.90462 -2.880756,-2.85696 -5.142513,-2.85696 -2.261756,0 -3.987829,0.95234 -5.178227,2.85696 -1.166591,1.90463 -1.928443,4.13072 -2.28556,6.67813 -0.333309,2.54743 -0.499972,5.083 -0.499972,7.60666 0,4.28541 0.523776,8.22561 1.571326,11.82063 1.047553,3.57121 3.178354,5.3568 6.39243,5.3568 z m 0,10.03504 c -4.618743,0 -8.380393,-1.35707 -11.28496,-4.07119 -2.904569,-2.71411 -4.987762,-6.13053 -6.249584,-10.24927 -1.238013,-4.11879 -1.857019,-8.41613 -1.857019,-12.89201 0,-3.26172 0.333315,-6.45194 0.999934,-9.57079 0.666622,-3.14268 1.761788,-6.04725 3.285494,-8.71371 1.523708,-2.69033 3.535478,-4.83302 6.03531,-6.42816 2.523642,-1.61891 5.547247,-2.42839 9.070825,-2.42839 3.547379,0 6.559089,0.80948 9.035114,2.42839 2.499831,1.59514 4.499697,3.72597 5.999598,6.39242 1.523705,2.66651 2.618869,5.58299 3.285492,8.74945 0.690426,3.16645 1.035644,6.35668 1.035644,9.57079 0,3.21404 -0.345229,6.41625 -1.035644,9.60646 -0.666623,3.16646 -1.749884,6.08295 -3.249785,8.74944 -1.4999,2.66646 -3.51167,4.8092 -6.035305,6.42812 -2.523649,1.61897 -5.535348,2.42845 -9.035114,2.42845 z m 27.069621,63.10292 c 2.237946,0 3.952113,-0.96425 5.142513,-2.89266 1.190398,-1.95229 1.952253,-4.21404 2.285555,-6.78531 0.357143,-2.57124 0.535686,-5.07107 0.535686,-7.49946 0,-2.52366 -0.178543,-5.05918 -0.535686,-7.60665 -0.333312,-2.54743 -1.095157,-4.77346 -2.285555,-6.67814 -1.166593,-1.90462 -2.880762,-2.85691 -5.142513,-2.85691 -2.261759,0 -3.98783,0.95229 -5.178227,2.85691 -1.166593,1.90468 -1.928449,4.13071 -2.285559,6.67814 -0.333313,2.54747 -0.499998,5.08299 -0.499998,7.60665 0,4.28542 0.523772,8.22561 1.571329,11.82063 1.047547,3.5712 3.178357,5.3568 6.392432,5.3568 z m 0,10.03503 c -4.618738,0 -8.380394,-1.35707 -11.284957,-4.07113 -2.904573,-2.71411 -4.987765,-6.13059 -6.249591,-10.24933 -1.238006,-4.11878 -1.85702,-8.41612 -1.85702,-12.892 0,-3.26171 0.333313,-6.45195 0.999936,-9.5708 0.666621,-3.14262 1.761785,-6.04719 3.285492,-8.71369 1.523706,-2.69029 3.535486,-4.83302 6.035317,-6.42817 2.523638,-1.61892 5.547251,-2.42839 9.070823,-2.42839 3.547377,0 6.559082,0.80947 9.035107,2.42839 2.499831,1.59515 4.499702,3.72596 5.999598,6.39248 1.523706,2.66646 2.618876,5.58293 3.285497,8.74938 0.690436,3.16647 1.035646,6.35673 1.035646,9.5708 0,3.21405 -0.345239,6.41624 -1.035646,9.60652 -0.666621,3.16645 -1.749882,6.08288 -3.249789,8.74939 -1.499894,2.66646 -3.511669,4.8092 -6.035306,6.42816 -2.523642,1.61893 -5.535341,2.42839 -9.035107,2.42839 z m -36.961819,-6.24962 0,-37.06891 -4.321139,0 c -1.642747,0 -2.880761,-0.48825 -3.714037,-1.4642 -0.833277,-0.9761 -1.249917,-2.16651 -1.249917,-3.57119 0,-1.38086 0.440445,-2.58317 1.32134,-3.60689 0.904702,-1.02377 2.118907,-1.53563 3.642614,-1.53563 l 10.392165,0 c 1.02374,0 1.904631,0.2383 2.642677,0.71424 0.738044,0.45262 1.297529,1.07136 1.678459,1.85702 0.380926,0.76188 0.571388,1.66658 0.571388,2.71412 l 0,41.96144 c 0,1.85704 -0.499959,3.28555 -1.499901,4.28548 -0.999929,0.99989 -2.32127,1.4999 -3.964017,1.4999 -1.618941,0 -2.940277,-0.51164 -3.96402,-1.53562 -1.023738,-1.02373 -1.535612,-2.44033 -1.535612,-4.24976 z"
     id="path843"
     sodipodi:nodetypes="cccccccccccccccccccccccccccccccccccccccccccccccccccccccccccccccccccccccccccccccccccccccccccccccccccccccccccccccccccccccccccccccccccccccccccccccccccccccccccccccccccccccccccccccccccccccccccccccccccccccccccccccccccccccccccccccccccccccccccccccccccccccccccccccccccccccccccccccccccccccc"
     style="font-size:12px;fill:url(#linearGradient3953);fill-opacity:1;stroke-width:1pt;font-family:VAG Rounded Black SSi"
     inkscape:connector-curvature="0" />
  <path
     style="font-size:12px;fill:url(#linearGradient3966);fill-opacity:1;fill-rule:evenodd;stroke:url(#linearGradient3974);stroke-width:1.46660327999999995;stroke-miterlimit:4"
     d="M 221.53125 97.71875 C 218.55885 97.727553 215.55162 98.192217 212.5625 99.125 C 196.45785 104.15065 187.50563 121.33287 192.53125 137.4375 C 193.37517 140.14185 194.56875 142.63721 196.03125 144.90625 L 151.625 193.125 C 144.72868 189.53707 136.45627 188.56015 128.4375 191.0625 C 116.19286 194.88357 108.17375 205.66858 107.1875 217.71875 L 137.34375 208.3125 L 144.375 230.90625 L 114.5 240.21875 C 122.21933 249.11472 134.69977 253.13738 146.65625 249.40625 C 162.7609 244.3806 171.68188 227.19838 166.65625 211.09375 C 165.89414 208.65155 164.86521 206.37101 163.59375 204.28125 L 208.3125 155.78125 C 215.05934 159.06826 223.00922 159.88433 230.75 157.46875 C 242.99463 153.64767 251.045 142.83142 252.03125 130.78125 L 221.875 140.1875 L 214.84375 117.625 L 244.71875 108.3125 C 238.92925 101.64051 230.44845 97.692342 221.53125 97.71875 z "
     id="rect587" />
</svg>
