<?xml version="1.0" encoding="UTF-8" standalone="no"?>
<!-- Created with Inkscape (http://www.inkscape.org/) -->

<svg
   xmlns:dc="http://purl.org/dc/elements/1.1/"
   xmlns:cc="http://creativecommons.org/ns#"
   xmlns:rdf="http://www.w3.org/1999/02/22-rdf-syntax-ns#"
   xmlns:svg="http://www.w3.org/2000/svg"
   xmlns="http://www.w3.org/2000/svg"
   xmlns:xlink="http://www.w3.org/1999/xlink"
   xmlns:sodipodi="http://sodipodi.sourceforge.net/DTD/sodipodi-0.dtd"
   xmlns:inkscape="http://www.inkscape.org/namespaces/inkscape"
   version="1.0"
   width="256"
   height="256"
   id="svg2408"
   style="display:inline"
   inkscape:version="0.48.3.1 r9886"
   sodipodi:docname="huayra-menu-internet.svg">
  <sodipodi:namedview
     pagecolor="#ffffff"
     bordercolor="#666666"
     borderopacity="1"
     objecttolerance="10"
     gridtolerance="10"
     guidetolerance="10"
     inkscape:pageopacity="0"
     inkscape:pageshadow="2"
     inkscape:window-width="1918"
     inkscape:window-height="1032"
     id="namedview698"
     showgrid="false"
     inkscape:zoom="2.4583333"
     inkscape:cx="91.710161"
     inkscape:cy="111.95848"
     inkscape:window-x="0"
     inkscape:window-y="25"
     inkscape:window-maximized="1"
     inkscape:current-layer="svg2408" />
  <defs
     id="defs2410">
    <linearGradient
       x1="45.447727"
       y1="92.539597"
       x2="45.447727"
       y2="7.0165396"
       id="ButtonShadow"
       gradientUnits="userSpaceOnUse"
       gradientTransform="scale(1.0058652,0.994169)">
      <stop
         id="stop3750"
         style="stop-color:#000000;stop-opacity:1"
         offset="0" />
      <stop
         id="stop3752"
         style="stop-color:#000000;stop-opacity:0.58823532"
         offset="1" />
    </linearGradient>
    <filter
       color-interpolation-filters="sRGB"
       id="filter3174">
      <feGaussianBlur
         id="feGaussianBlur3176"
         stdDeviation="1.71" />
    </filter>
    <linearGradient
       gradientUnits="userSpaceOnUse"
       y2="70.047157"
       x2="83.620094"
       y1="70.047157"
       x1="60.548645"
       id="linearGradient4356"
       xlink:href="#linearGradient8384"
       inkscape:collect="always" />
    <linearGradient
       gradientUnits="userSpaceOnUse"
       y2="71.007759"
       x2="79.774284"
       y1="71.007759"
       x1="62.471546"
       id="linearGradient4348"
       xlink:href="#id9"
       inkscape:collect="always" />
    <linearGradient
       gradientUnits="userSpaceOnUse"
       y2="-15.171569"
       x2="-65.581161"
       y1="-15.171569"
       x1="-132.88814"
       id="linearGradient4340"
       xlink:href="#id4"
       inkscape:collect="always" />
    <linearGradient
       gradientUnits="userSpaceOnUse"
       y2="47.775909"
       x2="92.75251"
       y1="47.775909"
       x1="4.8790822"
       id="linearGradient4330"
       xlink:href="#id9"
       inkscape:collect="always" />
    <linearGradient
       gradientUnits="userSpaceOnUse"
       y2="45.921394"
       x2="91.002403"
       y1="45.921394"
       x1="6.1368432"
       id="linearGradient4322"
       xlink:href="#linearGradient8384"
       inkscape:collect="always" />
    <linearGradient
       y2="236.18201"
       x2="37.4221"
       y1="259.46201"
       x1="265.91901"
       gradientUnits="userSpaceOnUse"
       id="id9">
      <stop
         id="stop48"
         style="stop-color:#82C7E6"
         offset="0" />
      <stop
         id="stop50"
         style="stop-color:#6690C2"
         offset="0.741176" />
      <stop
         id="stop52"
         style="stop-color:#3C599B"
         offset="1" />
    </linearGradient>
    <linearGradient
       y2="216.54201"
       x2="85.763496"
       y1="27.669701"
       x1="76.357101"
       gradientUnits="userSpaceOnUse"
       id="id4">
      <stop
         id="stop27"
         style="stop-color:#E7EEFA"
         offset="0" />
      <stop
         id="stop29"
         style="stop-color:#7DA2E3"
         offset="1" />
    </linearGradient>
    <filter
       id="filter3174-9"
       color-interpolation-filters="sRGB">
      <feGaussianBlur
         stdDeviation="1.71"
         id="feGaussianBlur3176-8" />
    </filter>
    <linearGradient
       gradientTransform="scale(1.0058652,0.994169)"
       gradientUnits="userSpaceOnUse"
       id="ButtonShadow-4"
       y2="7.0165396"
       x2="45.447727"
       y1="92.539597"
       x1="45.447727">
      <stop
         offset="0"
         style="stop-color:#000000;stop-opacity:1"
         id="stop3750-8" />
      <stop
         offset="1"
         style="stop-color:#000000;stop-opacity:0.58823532"
         id="stop3752-5" />
    </linearGradient>
    <linearGradient
       id="linearGradient8384">
      <stop
         offset="0"
         style="stop-color:#1e3b55;stop-opacity:1"
         id="stop8386" />
      <stop
         offset="1"
         style="stop-color:#2e5c84;stop-opacity:1"
         id="stop8388" />
    </linearGradient>
    <linearGradient
       inkscape:collect="always"
       xlink:href="#id9"
       id="linearGradient3053"
       gradientUnits="userSpaceOnUse"
       x1="62.471546"
       y1="71.007759"
       x2="79.774284"
       y2="71.007759"
       gradientTransform="translate(-150.10393,109.46308)" />
    <linearGradient
       inkscape:collect="always"
       xlink:href="#linearGradient8384"
       id="linearGradient3056"
       gradientUnits="userSpaceOnUse"
       x1="60.548645"
       y1="70.047157"
       x2="83.620094"
       y2="70.047157"
       gradientTransform="translate(-150.10393,109.46308)" />
    <linearGradient
       inkscape:collect="always"
       xlink:href="#id9"
       id="linearGradient3059"
       gradientUnits="userSpaceOnUse"
       x1="4.8790822"
       y1="47.775909"
       x2="92.75251"
       y2="47.775909"
       gradientTransform="translate(-150.10393,109.46308)" />
    <linearGradient
       inkscape:collect="always"
       xlink:href="#linearGradient8384"
       id="linearGradient3062"
       gradientUnits="userSpaceOnUse"
       x1="6.1368432"
       y1="45.921394"
       x2="91.002403"
       y2="45.921394"
       gradientTransform="translate(-150.10393,109.46308)" />
    <linearGradient
       inkscape:collect="always"
       xlink:href="#id4"
       id="linearGradient3072"
       gradientUnits="userSpaceOnUse"
       x1="-132.88814"
       y1="-15.171569"
       x2="-65.581161"
       y2="-15.171569" />
    <linearGradient
       inkscape:collect="always"
       xlink:href="#linearGradient8384"
       id="linearGradient3074"
       gradientUnits="userSpaceOnUse"
       gradientTransform="translate(-150.10393,109.46308)"
       x1="6.1368432"
       y1="45.921394"
       x2="91.002403"
       y2="45.921394" />
    <linearGradient
       inkscape:collect="always"
       xlink:href="#id9"
       id="linearGradient3076"
       gradientUnits="userSpaceOnUse"
       gradientTransform="translate(-150.10393,109.46308)"
       x1="4.8790822"
       y1="47.775909"
       x2="92.75251"
       y2="47.775909" />
    <linearGradient
       inkscape:collect="always"
       xlink:href="#id9"
       id="linearGradient3852"
       x1="205.53249"
       y1="128.00336"
       x2="254.87134"
       y2="128.00336"
       gradientUnits="userSpaceOnUse" />
    <linearGradient
       inkscape:collect="always"
       xlink:href="#id9"
       id="linearGradient3860"
       x1="50.755775"
       y1="128.41013"
       x2="1.2471744"
       y2="128.41014"
       gradientUnits="userSpaceOnUse" />
  </defs>
  <metadata
     id="metadata2413">
    <rdf:RDF>
      <cc:Work
         rdf:about="">
        <dc:format>image/svg+xml</dc:format>
        <dc:type
           rdf:resource="http://purl.org/dc/dcmitype/StillImage" />
        <dc:title />
      </cc:Work>
    </rdf:RDF>
  </metadata>
  <g
     id="layer2"
     style="display:none"
     transform="translate(0,160)">
    <rect
       width="86"
       height="85"
       rx="6"
       ry="6"
       x="5"
       y="7"
       id="rect3745"
       style="opacity:0.9;fill:url(#ButtonShadow);fill-opacity:1;fill-rule:nonzero;stroke:none;filter:url(#filter3174)" />
  </g>
  <path
     style="fill:#492356;fill-opacity:1;fill-rule:nonzero;stroke-miterlimit:4;display:inline"
     id="path4144"
     inkscape:connector-curvature="0"
     d="m 127.67811,55.085359 -8.47936,0.98313 -10.44558,2.887884 -1.96622,1.90479 6.51314,4.485423 0,2.580681 -2.58068,2.58068 3.37946,6.697463 2.2734,-1.228911 2.82648,-4.546906 c 4.36817,-1.353047 8.32133,-2.868658 12.47324,-4.792661 l 3.37946,-8.663689 -7.37334,-2.887884 z m -19.84659,1.044566 c -1.86789,0.528152 -3.72458,1.115043 -5.53003,1.781882 l -0.0617,0.06142 c -0.0357,0.0124 -0.0872,-0.0124 -0.12299,0 -2.492293,0.92792 -4.891888,2.01682 -7.250467,3.195124 l 3.686679,0.675891 1.41322,-1.290346 2.826438,-0.614444 c 1.93713,-0.943866 3.90482,-1.607426 5.96015,-2.273429 l -0.92169,-1.536114 z m -16.897286,7.311918 -0.553,1.290335 0.245653,3.195089 -2.211989,1.904789 -1.413262,3.563763 2.826462,0 1.41321,-3.195088 c 1.219435,-0.864004 2.38326,-1.749047 3.625249,-2.580669 l 2.82642,0.983084 c 1.884199,1.28258 3.767193,2.528999 5.652903,3.80959 l 2.88793,-2.58068 -3.13368,-1.22891 -1.41324,-2.887873 -5.407104,-0.675891 -0.245935,-1.597539 -2.580679,0.614408 -1.106,2.273465 -1.41323,-2.887873 z m 72.443146,2.580633 -5.40711,1.290335 -3.37946,2.21204 0,1.904742 -5.34566,3.563812 1.106,5.099877 3.13367,-2.211994 1.96623,2.211994 2.27345,1.290346 1.41322,-3.809542 -0.86024,-2.273478 0.86024,-1.597537 3.07221,-2.887885 1.41324,0 -1.41324,3.195087 0,2.887922 c 1.29921,-0.354067 2.6644,-0.448826 3.99392,-0.614444 l -3.68667,2.519196 -0.30728,1.659022 -4.23968,3.502328 -4.23967,-0.983082 0,-2.519246 -1.96622,1.228899 0.86019,2.273429 -3.13367,0 -1.65899,2.887884 -2.15055,2.396373 -3.80956,0.798751 2.27344,2.273477 0.55299,2.211994 -2.82643,0 -3.68667,1.966222 0,5.714332 1.72045,0 1.53611,1.78191 3.56379,-1.78191 1.4132,-3.502333 2.51922,-1.597543 0.553,-1.290346 4.2397,-0.983129 2.27345,2.580684 2.51922,1.290334 -1.41319,2.887873 2.27343,-0.61441 1.16744,-2.887919 -2.82646,-3.256562 1.10599,0 2.82648,2.273475 0.55299,3.195116 2.58067,2.88789 0.55302,-4.178218 1.41321,-0.614455 c 1.39798,1.454014 2.50926,3.156233 3.68667,4.792673 l 4.23967,0.30716 2.51923,1.59755 -1.10601,1.59754 -2.58067,2.27347 -3.62522,0 -4.85412,-1.59755 -2.51922,0.30717 -1.84335,2.08908 -5.22278,-5.2842 -3.68667,-0.98313 -5.3457,0.67593 -4.85409,1.29029 c -2.69717,3.06353 -5.31207,6.09653 -7.86493,9.27812 l -3.13367,7.37335 1.41325,1.59759 -2.51923,3.87098 2.82643,6.69746 c 2.40425,2.72488 4.78827,5.4453 7.18901,8.17214 l 3.50235,-3.01079 1.59755,1.78188 3.80956,-2.45777 1.29035,1.47468 3.80957,0 2.15055,2.45777 -1.35178,4.42403 2.70356,3.07223 -0.12295,5.2842 1.96626,3.80958 -1.41327,3.25658 c -0.14071,2.3593 -0.24564,4.64493 -0.24564,7.00467 1.15876,3.19683 2.28527,6.42698 3.37945,9.64677 l 0.79879,5.09993 0,2.58066 2.02766,0 3.07221,-1.90478 3.68668,0 5.53002,-6.26736 -0.73732,-2.08913 3.68666,-3.19508 -2.70355,-3.07227 3.25654,-2.70353 3.13368,-1.90476 1.41325,-1.59759 -0.86024,-3.56375 c 0,-2.99107 0,-5.9795 0,-8.97095 l 2.58069,-5.46855 3.07222,-3.50234 3.37945,-8.35647 0,-2.21201 c -1.67657,0.21171 -3.27551,0.37276 -4.91557,0.49155 l -0.12299,0.12287 -0.12296,-0.12287 c -0.99276,0.0676 -1.98998,0.12287 -3.01079,0.12287 -1.80054,-3.79073 -3.17577,-7.58583 -4.54688,-11.55158 l -2.39635,-2.70353 -1.22889,-4.66981 0.79878,-0.92165 3.25654,3.68667 3.80959,8.17214 2.27344,2.51919 -1.106,2.88794 2.15056,2.45776 c 0.081,-0.004 0.16501,0.004 0.24566,0 l 3.37945,-3.37946 4.66979,-3.1951 2.58068,-2.88791 0,-3.25657 c -0.56597,-1.06935 -1.15061,-2.12573 -1.72047,-3.19509 l -2.27344,2.58068 -1.72044,-1.90479 -2.51922,-1.96622 0,-4.1168 2.94933,3.318 3.25656,-0.43011 c 1.48122,1.34725 2.9405,2.58288 4.2397,4.11679 l 2.0891,-2.33486 C 198.91344,97.602212 189.22806,81.539907 175.48159,70.262131 l -0.553,0.860223 -2.82646,3.195124 -3.62521,-3.809531 3.62521,0 1.53614,-1.720458 c -0.12672,-0.09756 -0.24128,-0.210452 -0.36868,-0.307168 l -6.20591,-1.167462 -3.68667,-1.290347 z m -77.297237,0.245732 c -0.999769,0.682571 -1.923796,1.421459 -2.887918,2.150522 l -0.430122,1.106038 c 0,0 -0.774904,0.129921 -1.351746,0.245732 -15.99726,12.863364 -26.603434,32.20698 -27.834424,54.00976 0.768118,1.3189 1.720476,2.82645 1.720476,2.82645 l 5.960112,3.50234 5.898657,1.65901 2.580679,3.19509 3.93246,2.88794 2.273438,-0.36861 1.720445,0.79875 0,0.49155 -2.27344,6.08305 -1.720443,2.58063 0.552995,1.29033 -1.413232,4.79268 5.099906,9.33957 5.099908,4.48548 2.273436,3.19512 -0.307289,6.7589 1.720443,3.80957 -1.720443,7.37335 c 0,0 -0.04027,0.0544 0.06135,0.49154 2.376611,1.68509 4.864172,3.26671 7.434804,4.66976 0.04023,0.0207 0.0825,0.0415 0.122987,0.0615 0.110491,0.0518 0.264329,0.13699 0.368679,0.18431 0.911292,0.41384 1.579914,0.65765 1.72044,0.55302 0.560123,-0.42633 1.04457,-0.7988 1.04457,-0.7988 l -0.552991,-1.59754 2.27344,-2.27347 0.86021,-2.212 3.625247,-1.29029 2.82643,-7.06614 -0.79879,-1.9048 1.96623,-2.88787 4.2397,-0.98313 2.27345,-5.16136 -0.55304,-6.39021 3.37951,-4.79268 0.55299,-4.79267 c -4.64206,-2.30634 -9.27909,-4.6916 -13.88648,-7.06614 l -2.212027,-4.48548 -4.239669,-0.98308 -2.273459,-6.08301 -5.65287,0.61446 -4.792699,-3.50233 -5.099907,4.48541 0,0.67589 c -1.540314,-0.44543 -3.421117,-0.50687 -4.792662,-1.35178 l -1.167449,-3.19512 0,-3.50234 -3.379464,0.30717 c 0.283296,-2.24553 0.575102,-4.4523 0.860238,-6.69747 l -2.027652,0 -1.96626,2.51925 -1.9662,0.98314 -2.826465,-1.5976 -0.307289,-3.56376 0.614483,-3.80958 4.239668,-3.19513 3.379432,0 0.552994,-1.96622 4.239702,0.98313 3.133675,3.87102 0.552995,-6.4517 5.345692,-4.48545 2.027652,-4.79267 3.932458,-1.597552 2.27344,-3.195122 5.099908,-0.983096 2.51922,-3.871015 c -2.545067,0 -5.074062,0 -7.619128,0 l 4.792698,-2.211992 3.37942,0 4.792665,-1.597587 0.61445,-1.966225 -1.72045,-1.597537 -1.96619,-0.614455 0.553,-1.90479 -1.413226,-2.887885 -3.379469,1.22891 0.553,-2.519244 -3.932459,-2.27343 -3.133679,5.468554 0.307288,1.904753 -3.13367,1.290335 -1.966232,4.178266 -0.860238,-3.871014 -5.345658,-2.212006 -0.860238,-2.887919 7.066134,-4.17822 3.072223,-2.887884 0.307288,-3.502328 -1.720443,-0.98313 -0.307289,-0.06142 z m 49.217087,3.932404 -2.212,1.22891 -1.16745,-0.307168 -0.24566,1.966225 1.96624,1.228899 3.37946,-2.211994 -1.72045,-1.904789 z m -37.296858,0.614455 -2.27345,1.597585 2.82644,1.90479 2.273428,0 0,-2.212041 -2.826418,-1.290334 z m 44.670218,7.373342 0,1.904789 1.16741,1.290347 0,2.887873 -0.61442,3.871014 3.13368,-0.67588 2.27344,-2.211993 -1.96623,-1.904801 c -0.66477,-1.77358 -1.44145,-3.460237 -2.27344,-5.161349 l -1.72044,0 z m -1.106,3.871015 -2.02768,0.614454 0.61442,3.502329 2.51926,-1.228899 -1.106,-2.887884 z m -39.01731,5.775804 0.79875,4.485423 1.72047,-2.580634 -2.51922,-1.904789 z" />
  <path
     style="fill:url(#linearGradient3860);fill-opacity:1;stroke:none;display:inline"
     id="path4464"
     inkscape:connector-curvature="0"
     d="M 50.467513,78.664498 1.1286592,128.00334 50.467513,177.3422 l 0,-21.14522 -28.193629,-28.19364 28.193629,-28.193614 0,-21.145228 z" />
  <path
     style="fill:url(#linearGradient3852);fill-opacity:1.0;stroke:none;display:inline"
     id="path3722"
     inkscape:connector-curvature="0"
     d="m 205.53249,78.664498 0,21.145228 28.19362,28.193614 -28.19362,28.19364 0,21.14522 49.33885,-49.33886 -49.33885,-49.338842 z" />
  <g
     id="layer2-2"
     style="display:none"
     transform="translate(-150.10393,109.46308)">
    <rect
       width="86"
       height="85"
       rx="6"
       ry="6"
       x="5"
       y="7"
       id="rect3745-5"
       style="opacity:0.9;fill:url(#ButtonShadow-4);fill-opacity:1;fill-rule:nonzero;stroke:none;filter:url(#filter3174-9)" />
  </g>
  <g
     id="g3067"
     transform="matrix(1.7591813,0,0,1.7591813,305.91301,-148.18465)">
    <path
       transform="matrix(1.2905984,0,0,1.4265403,26.86637,178.06388)"
       d="m -65.581161,-15.171569 c 0,16.7594492 -15.06718,30.345667 -33.653489,30.345667 -18.58631,0 -33.65349,-13.5862178 -33.65349,-30.345667 0,-16.759449 15.06718,-30.345667 33.65349,-30.345667 18.586309,0 33.653489,13.586218 33.653489,30.345667 z"
       sodipodi:ry="30.345667"
       sodipodi:rx="33.653488"
       sodipodi:cy="-15.171569"
       sodipodi:cx="-99.23465"
       id="path4332"
       style="fill:url(#linearGradient3072);fill-opacity:1;stroke:none"
       sodipodi:type="arc" />
    <path
       d="m -101.56937,115.51107 -4.85149,0.56249 -5.97646,1.65231 -1.12498,1.08983 3.72651,2.56636 0,1.47653 -1.47654,1.47654 1.93356,3.83196 1.30074,-0.70311 1.61717,-2.60151 c 2.49926,-0.77417 4.76107,-1.64131 7.136594,-2.74214 l 1.933565,-4.95695 -4.218669,-1.65231 z m -11.35527,0.59764 c -1.06872,0.3022 -2.13102,0.63799 -3.16402,1.01952 l -0.0353,0.0351 c -0.0204,0.008 -0.0499,-0.008 -0.0704,0 -1.42597,0.53092 -2.7989,1.15392 -4.14837,1.82809 l 2.10934,0.38672 0.80858,-0.73827 1.61715,-0.35156 c 1.10833,-0.54004 2.23415,-0.91969 3.41011,-1.30076 l -0.52735,-0.87889 z m -9.66782,4.18352 -0.3164,0.73827 0.14055,1.82809 -1.26559,1.08983 -0.8086,2.03902 1.61717,0 0.80856,-1.82809 c 0.69771,-0.49433 1.36359,-1.00071 2.0742,-1.47654 l 1.61714,0.5625 c 1.07805,0.73381 2.15541,1.44695 3.23432,2.17965 l 1.65234,-1.47654 -1.79294,-0.70311 -0.80859,-1.65232 -3.09369,-0.38671 -0.14071,-0.91405 -1.47655,0.35156 -0.63279,1.30076 -0.80859,-1.65232 z m 41.448498,1.47654 -3.093692,0.73827 -1.933565,1.2656 0,1.08983 -3.058532,2.03902 0.632796,2.91792 1.792939,-1.2656 1.124983,1.2656 1.300752,0.73827 0.808584,-2.17965 -0.492186,-1.30076 0.492186,-0.91405 1.757778,-1.65231 0.808584,0 -0.808584,1.82809 0,1.65232 c 0.743339,-0.20268 1.524438,-0.2568 2.285125,-0.35156 l -2.109335,1.44138 -0.175817,0.9492 -2.425734,2.00387 -2.425736,-0.56249 0,-1.44138 -1.124981,0.70311 0.492168,1.30076 -1.792938,0 -0.949195,1.65232 -1.230449,1.37107 -2.17964,0.45702 1.300751,1.30076 0.316398,1.2656 -1.617149,0 -2.109338,1.12498 0,3.26948 0.984355,0 0.878888,1.01951 2.039033,-1.01951 0.808565,-2.00388 1.441381,-0.91404 0.3164,-0.73827 2.425751,-0.56249 1.300752,1.47654 1.44138,0.73826 -0.808564,1.65232 1.300751,-0.35156 0.667958,-1.65231 -1.617168,-1.86325 0.632794,0 1.617171,1.30076 0.316396,1.82809 1.476542,1.65231 0.316416,-2.39058 0.808565,-0.35155 c 0.799856,0.83192 1.435681,1.80586 2.109339,2.74213 l 2.425734,0.17577 1.441381,0.91405 -0.632796,0.91404 -1.476542,1.30076 -2.074175,0 -2.777295,-0.91404 -1.441381,0.17577 -1.054676,1.19529 -2.988227,-3.02339 -2.109336,-0.56248 -3.058551,0.38671 -2.777274,0.73826 c -1.543196,1.75281 -3.039311,3.48813 -4.499929,5.30851 l -1.792941,4.21867 0.808586,0.91405 -1.441384,2.2148 1.617155,3.83197 c 1.375597,1.55904 2.73962,3.11554 4.113209,4.6757 l 2.003869,-1.72263 0.91405,1.01951 2.179643,-1.40622 0.738279,0.84373 2.179643,0 1.230446,1.40623 -0.773422,2.5312 1.546846,1.75778 -0.07034,3.02339 1.125,2.17965 -0.808603,1.86325 c -0.08051,1.34989 -0.140548,2.65763 -0.140548,4.00774 0.662989,1.82907 1.307522,3.67721 1.933567,5.51943 l 0.457026,2.91792 0,1.47654 1.160125,0 1.757779,-1.08982 2.109334,0 3.164017,-3.58588 -0.421865,-1.1953 2.109338,-1.82809 -1.546846,-1.75778 1.863243,-1.54684 1.792939,-1.08982 0.808586,-0.91406 -0.492187,-2.03902 c 0,-1.71133 0,-3.42116 0,-5.13272 l 1.476542,-3.12886 1.757777,-2.00386 1.933565,-4.78117 0,-1.26561 c -0.959256,0.12105 -1.874089,0.2132 -2.812453,0.28125 l -0.07037,0.0703 -0.07035,-0.0703 c -0.568014,0.0386 -1.138573,0.0703 -1.722633,0.0703 -1.030186,-2.16888 -1.817024,-4.34026 -2.601507,-6.60926 l -1.371075,-1.54685 -0.703118,-2.67182 0.457024,-0.52734 1.863242,2.10934 2.179663,4.6757 1.300751,1.44138 -0.632796,1.65231 1.230449,1.40623 c 0.04631,-0.003 0.0944,0.003 0.140548,0 l 1.933565,-1.93356 2.67183,-1.82809 1.476541,-1.65232 0,-1.86325 c -0.323829,-0.61184 -0.658327,-1.21624 -0.984378,-1.82809 l -1.300751,1.47654 -0.984357,-1.08982 -1.441378,-1.12498 0,-2.35543 1.687473,1.8984 1.863243,-0.24608 c 0.847486,0.77082 1.682415,1.4778 2.425752,2.35542 l 1.195283,-1.3359 c -1.710412,-10.47797 -7.251925,-19.66805 -15.116986,-26.12063 l -0.316398,0.49217 -1.617169,1.82809 -2.074175,-2.17964 2.074175,0 0.878908,-0.98436 c -0.07251,-0.0558 -0.138055,-0.12043 -0.210942,-0.17577 l -3.550726,-0.66796 -2.109338,-0.73827 z m -44.225778,0.14062 c -0.57202,0.39054 -1.1007,0.81331 -1.65233,1.23044 l -0.24609,0.63281 c 0,0 -0.44336,0.0742 -0.7734,0.14062 -9.15287,7.35981 -15.22121,18.42731 -15.92553,30.9018 0.43948,0.75462 0.98438,1.61716 0.98438,1.61716 l 3.41009,2.00387 3.37493,0.94921 1.47654,1.82809 2.24996,1.65231 1.30075,-0.21094 0.98436,0.45703 0,0.28124 -1.30075,3.48041 -0.98436,1.47653 0.3164,0.73827 -0.80858,2.74214 2.91792,5.34365 2.91792,2.56637 1.30075,1.82809 -0.17581,3.86712 0.98435,2.17965 -0.98435,4.21868 c 0,0 -0.023,0.0311 0.0351,0.28124 1.35978,0.96412 2.78304,1.86905 4.25383,2.67183 0.023,0.0126 0.0472,0.0226 0.0704,0.0352 0.0632,0.0297 0.15124,0.0784 0.21094,0.10545 0.5214,0.23668 0.90396,0.37627 0.98436,0.3164 0.32048,-0.24394 0.59765,-0.45703 0.59765,-0.45703 l -0.3164,-0.91404 1.30076,-1.30076 0.49217,-1.2656 2.07419,-0.73827 1.61715,-4.0429 -0.45702,-1.08982 1.12498,-1.65232 2.42575,-0.56249 1.30075,-2.95308 -0.31641,-3.65617 1.93358,-2.74215 0.3164,-2.74213 c -2.65596,-1.31958 -5.30905,-2.68431 -7.94518,-4.0429 l -1.26561,-2.56636 -2.42574,-0.56249 -1.30077,-3.48041 -3.2343,0.35155 -2.74215,-2.00387 -2.91792,2.56636 0,0.38672 c -0.88129,-0.25487 -1.95739,-0.29002 -2.74213,-0.77343 l -0.66795,-1.82809 0,-2.00388 -1.93357,0.17577 c 0.16209,-1.28478 0.32904,-2.5474 0.49218,-3.83196 l -1.16012,0 -1.125,1.44138 -1.12496,0.56249 -1.61717,-0.91405 -0.17582,-2.03903 0.35158,-2.17964 2.42573,-1.8281 1.93355,0 0.3164,-1.12498 2.42575,0.56249 1.79294,2.21481 0.3164,-3.69134 3.05855,-2.56637 1.16012,-2.74213 2.24997,-0.91405 1.30075,-1.82809 2.91792,-0.5625 1.44138,-2.2148 c -1.45616,0 -2.90313,0 -4.3593,0 l 2.74215,-1.2656 1.93355,0 2.74213,-0.91405 0.35156,-1.12498 -0.98435,-0.91405 -1.12497,-0.35155 0.3164,-1.08983 -0.80858,-1.65231 -1.93357,0.70311 0.3164,-1.44138 -2.24997,-1.30076 -1.79294,3.12886 0.17582,1.08982 -1.79294,0.73827 -1.12498,2.39058 -0.49219,-2.21481 -3.05853,-1.2656 -0.49219,-1.65231 4.04291,-2.39059 1.75778,-1.65231 0.17581,-2.00387 -0.98435,-0.56249 -0.17582,-0.0352 z m 28.159665,2.24996 -1.265608,0.70311 -0.667957,-0.17579 -0.140548,1.12498 1.124981,0.70311 1.933567,-1.2656 -0.984355,-1.08983 z m -21.339485,0.35155 -1.30075,0.91405 1.61715,1.08983 1.30075,0 0,-1.26561 -1.61715,-0.73827 z m 25.558161,4.21868 0,1.08983 0.667939,0.73826 0,1.65232 -0.351542,2.2148 1.792939,-0.38671 1.300753,-1.2656 -1.124983,-1.08983 c -0.380342,-1.01476 -0.824721,-1.97978 -1.300751,-2.95307 l -0.984355,0 z m -0.632797,2.2148 -1.160144,0.35156 0.351542,2.00387 1.441399,-0.70311 -0.632797,-1.65232 z m -22.323834,3.30464 0.45701,2.56636 0.98437,-1.47654 -1.44138,-1.08982 z"
       inkscape:connector-curvature="0"
       id="path4144-9"
       style="fill:url(#linearGradient3074);fill-opacity:1;fill-rule:nonzero;stroke-miterlimit:4;display:inline" />
    <path
       inkscape:connector-curvature="0"
       d="m -58.538883,157.24312 a 42.749251,42.746921 0 0 1 -85.498497,0 42.749251,42.746921 0 1 1 85.498497,0 z"
       id="path5993-4"
       style="fill:none;stroke:url(#linearGradient3076);stroke-width:2.37492609;display:inline" />
  </g>
</svg>
