<?xml version="1.0" encoding="UTF-8" standalone="no"?>
<!-- Generator: Adobe Illustrator 12.0.0, SVG Export Plug-In . SVG Version: 6.00 Build 51448)  -->

<svg
   xmlns:dc="http://purl.org/dc/elements/1.1/"
   xmlns:cc="http://creativecommons.org/ns#"
   xmlns:rdf="http://www.w3.org/1999/02/22-rdf-syntax-ns#"
   xmlns:svg="http://www.w3.org/2000/svg"
   xmlns="http://www.w3.org/2000/svg"
   xmlns:xlink="http://www.w3.org/1999/xlink"
   xmlns:sodipodi="http://sodipodi.sourceforge.net/DTD/sodipodi-0.dtd"
   xmlns:inkscape="http://www.inkscape.org/namespaces/inkscape"
   height="256"
   id="Layer_1"
   inkscape:version="0.48.3.1 r9886"
   sodipodi:docname="huayra-menu-office.svg"
   sodipodi:version="0.32"
   space="preserve"
   style="overflow:visible"
   version="1.1"
   viewBox="0 0 255.99999 255.99999"
   width="256">
  <metadata
     id="metadata3">
    <rdf:RDF>
      <cc:Work
         rdf:about="">
        <dc:title>Tabella</dc:title>
        <dc:description />
        <dc:subject>
          <rdf:Bag>
            <rdf:li>unsorted</rdf:li>
          </rdf:Bag>
        </dc:subject>
        <dc:publisher>
          <cc:Agent
             rdf:about="http://www.openclipart.org/">
            <dc:title>Open Clip Art Library</dc:title>
          </cc:Agent>
        </dc:publisher>
        <dc:creator>
          <cc:Agent>
            <dc:title>Architetto Francesco Rollandin</dc:title>
          </cc:Agent>
        </dc:creator>
        <dc:rights>
          <cc:Agent>
            <dc:title>Architetto Francesco Rollandin</dc:title>
          </cc:Agent>
        </dc:rights>
        <dc:date />
        <dc:format>image/svg+xml</dc:format>
        <dc:type
           rdf:resource="http://purl.org/dc/dcmitype/StillImage" />
        <cc:license
           rdf:resource="http://web.resource.org/cc/PublicDomain" />
        <dc:language>en</dc:language>
      </cc:Work>
      <cc:License
         rdf:about="http://web.resource.org/cc/PublicDomain">
        <cc:permits
           rdf:resource="http://web.resource.org/cc/Reproduction" />
        <cc:permits
           rdf:resource="http://web.resource.org/cc/Distribution" />
        <cc:permits
           rdf:resource="http://web.resource.org/cc/DerivativeWorks" />
      </cc:License>
    </rdf:RDF>
  </metadata>
  <defs
     id="defs111">
    <linearGradient
       id="linearGradient4043"
       gradientUnits="userSpaceOnUse"
       x1="276.36401"
       y1="240.427"
       x2="23.66"
       y2="111.725">
      <stop
         offset="0"
         style="stop-color:#82C7E6"
         id="stop4045" />
      <stop
         offset="0.38290662"
         style="stop-color:#6690C2"
         id="stop4047" />
      <stop
         offset="1"
         style="stop-color:#3C599B"
         id="stop4049" />
    </linearGradient>
    <linearGradient
       y2="463.69629"
       y1="463.69629"
       x2="-246.8481"
       x1="-248.5981"
       id="XMLID_8_"
       gradientUnits="userSpaceOnUse"
       gradientTransform="matrix(181.3333,0,0,-181.3333,45159.266,84188.594)">
      <stop
         style="stop-color:#FFFFFF"
         offset="0"
         id="stop32" />
      <stop
         style="stop-color:#737373"
         offset="1"
         id="stop34" />
    </linearGradient>
    <linearGradient
       inkscape:collect="always"
       xlink:href="#XMLID_8_"
       id="linearGradient3089"
       gradientUnits="userSpaceOnUse"
       gradientTransform="matrix(330.92589,0,0,-330.92589,82413.823,153644.57)"
       x1="-248.5981"
       y1="463.69629"
       x2="-246.8481"
       y2="463.69629" />
    <linearGradient
       gradientUnits="userSpaceOnUse"
       y2="54.813271"
       x2="196.4482"
       y1="54.813271"
       x1="161.7128"
       id="linearGradient4124"
       xlink:href="#id11"
       inkscape:collect="always" />
    <linearGradient
       gradientUnits="userSpaceOnUse"
       y2="54.813271"
       x2="196.4482"
       y1="54.813271"
       x1="161.7128"
       id="linearGradient4116"
       xlink:href="#id11"
       inkscape:collect="always" />
    <linearGradient
       gradientUnits="userSpaceOnUse"
       y2="54.813271"
       x2="196.4482"
       y1="54.813271"
       x1="161.7128"
       id="linearGradient4108"
       xlink:href="#id11"
       inkscape:collect="always" />
    <linearGradient
       gradientUnits="userSpaceOnUse"
       y2="54.813271"
       x2="196.4482"
       y1="54.813271"
       x1="161.7128"
       id="linearGradient4100"
       xlink:href="#id11"
       inkscape:collect="always" />
    <linearGradient
       gradientUnits="userSpaceOnUse"
       y2="-13.034507"
       x2="194.16081"
       y1="-10.206079"
       x1="270.2323"
       id="linearGradient4092"
       xlink:href="#linearGradient3965"
       inkscape:collect="always" />
    <linearGradient
       gradientUnits="userSpaceOnUse"
       y2="3.3407159"
       x2="107.54336"
       y1="13.947317"
       x1="-10.55409"
       id="linearGradient4084"
       xlink:href="#linearGradient3965"
       inkscape:collect="always" />
    <linearGradient
       gradientUnits="userSpaceOnUse"
       y2="17.586504"
       x2="162.77051"
       y1="31.06959"
       x1="135.81471"
       id="linearGradient4068"
       xlink:href="#id11"
       inkscape:collect="always" />
    <linearGradient
       gradientUnits="userSpaceOnUse"
       y2="24.682669"
       x2="199.19667"
       y1="31.06959"
       x1="135.81471"
       id="linearGradient4060"
       xlink:href="#id11"
       inkscape:collect="always" />
    <linearGradient
       gradientUnits="userSpaceOnUse"
       y2="110.70434"
       x2="150.01466"
       y1="110.70434"
       x1="110.16702"
       id="linearGradient4052"
       xlink:href="#id10"
       inkscape:collect="always" />
    <linearGradient
       gradientUnits="userSpaceOnUse"
       y2="110.70434"
       x2="150.01466"
       y1="110.70434"
       x1="110.16702"
       id="linearGradient4044"
       xlink:href="#id10"
       inkscape:collect="always" />
    <linearGradient
       gradientUnits="userSpaceOnUse"
       y2="31.06959"
       x2="195.53474"
       y1="31.06959"
       x1="94.620461"
       id="linearGradient4036"
       xlink:href="#id11"
       inkscape:collect="always" />
    <linearGradient
       gradientUnits="userSpaceOnUse"
       y2="55.538353"
       x2="153.10156"
       y1="-3.3105738"
       x1="191.56633"
       id="linearGradient4028"
       xlink:href="#id11"
       inkscape:collect="always" />
    <linearGradient
       gradientUnits="userSpaceOnUse"
       y2="24.493851"
       x2="183.57198"
       y1="24.493851"
       x1="36.156921"
       id="linearGradient4020"
       xlink:href="#id11"
       inkscape:collect="always" />
    <linearGradient
       gradientUnits="userSpaceOnUse"
       y2="4.8714089"
       x2="233.15388"
       y1="-31.191036"
       x1="208.75002"
       id="linearGradient4012"
       xlink:href="#id11"
       inkscape:collect="always" />
    <linearGradient
       gradientUnits="userSpaceOnUse"
       y2="21.354021"
       x2="258.17221"
       y1="-32.386093"
       x1="201.31319"
       id="linearGradient4004"
       xlink:href="#id11"
       inkscape:collect="always" />
    <linearGradient
       gradientUnits="userSpaceOnUse"
       y2="84.342728"
       x2="37.517799"
       y1="-33.036995"
       x1="77.908348"
       id="linearGradient3996"
       xlink:href="#id11"
       inkscape:collect="always" />
    <linearGradient
       gradientUnits="userSpaceOnUse"
       y2="19.358301"
       x2="254.75514"
       y1="19.358301"
       x1="1.2448617"
       id="linearGradient3988"
       xlink:href="#id11"
       inkscape:collect="always" />
    <linearGradient
       gradientUnits="userSpaceOnUse"
       y2="60.354691"
       x2="17.260925"
       y1="70.254181"
       x1="182.52802"
       id="linearGradient3972"
       xlink:href="#id11"
       inkscape:collect="always" />
    <linearGradient
       gradientUnits="userSpaceOnUse"
       y2="25.86351"
       x2="232.145"
       y1="32.934578"
       x1="175.86211"
       id="linearGradient3964"
       xlink:href="#id11"
       inkscape:collect="always" />
    <linearGradient
       id="linearGradient3965"
       gradientUnits="userSpaceOnUse"
       x1="276.36401"
       y1="240.427"
       x2="23.66"
       y2="111.725">
      <stop
         offset="0"
         style="stop-color:#82C7E6"
         id="stop3967" />
      <stop
         offset="0.65789741"
         style="stop-color:#6690C2"
         id="stop3969" />
      <stop
         offset="1"
         style="stop-color:#3C599B"
         id="stop3971" />
    </linearGradient>
    <style
       type="text/css"
       id="style6">
   
    .str0 {stroke:#1F1A17;stroke-width:2.83465}
    .fil0 {fill:#0093DD}
    .fil1 {fill:#1F1A17}
    .fil2 {fill:#3A2E2A}
   
  </style>
    <linearGradient
       y2="253.16901"
       x2="265.479"
       y1="98.998398"
       x1="34.465698"
       gradientUnits="userSpaceOnUse"
       id="id11">
      <stop
         id="stop56"
         style="stop-color:#94C9E2"
         offset="0" />
      <stop
         id="stop58"
         style="stop-color:#58A6D8"
         offset="0.490196" />
      <stop
         id="stop60"
         style="stop-color:#50719E"
         offset="0.819608" />
      <stop
         id="stop62"
         style="stop-color:#386EAB"
         offset="1" />
    </linearGradient>
    <linearGradient
       y2="139.72"
       x2="213.589"
       y1="139.72"
       x1="16.0875"
       gradientUnits="userSpaceOnUse"
       id="id10">
      <stop
         id="stop51"
         style="stop-color:#B3D5E1"
         offset="0" />
      <stop
         id="stop53"
         style="stop-color:white"
         offset="1" />
    </linearGradient>
    <mask
       id="id8">
      <linearGradient
         y2="172.40199"
         x2="130.94901"
         y1="182.85201"
         x1="175.409"
         gradientUnits="userSpaceOnUse"
         id="id9">
        <stop
           id="stop44"
           style="stop-opacity:1; stop-color:white"
           offset="0" />
        <stop
           id="stop46"
           style="stop-opacity:0; stop-color:white"
           offset="1" />
      </linearGradient>
      <rect
         id="rect48"
         height="76.192398"
         width="66.398499"
         y="139.53101"
         x="119.98"
         style="fill:url(#id9)" />
    </mask>
    <mask
       id="id6">
      <linearGradient
         y2="66.419197"
         x2="99.102203"
         y1="75.438103"
         x1="137.47501"
         gradientUnits="userSpaceOnUse"
         id="id7">
        <stop
           id="stop36"
           style="stop-opacity:1; stop-color:white"
           offset="0" />
        <stop
           id="stop38"
           style="stop-opacity:0; stop-color:white"
           offset="1" />
      </linearGradient>
      <rect
         id="rect40"
         height="66.143799"
         width="57.689602"
         y="37.8568"
         x="89.443901"
         style="fill:url(#id7)" />
    </mask>
    <mask
       id="id4">
      <linearGradient
         y2="99.885597"
         x2="188.799"
         y1="109.998"
         x1="145.78999"
         gradientUnits="userSpaceOnUse"
         id="id5">
        <stop
           id="stop28"
           style="stop-opacity:1; stop-color:white"
           offset="0" />
        <stop
           id="stop30"
           style="stop-opacity:0; stop-color:white"
           offset="1" />
      </linearGradient>
      <rect
         id="rect32"
         height="73.797897"
         width="64.325104"
         y="68.042801"
         x="135.132"
         style="fill:url(#id5)" />
    </mask>
    <mask
       id="id2">
      <linearGradient
         y2="30.3092"
         x2="185.242"
         y1="39.228401"
         x1="147.304"
         gradientUnits="userSpaceOnUse"
         id="id3">
        <stop
           id="stop20"
           style="stop-opacity:1; stop-color:white"
           offset="0" />
        <stop
           id="stop22"
           style="stop-opacity:0; stop-color:white"
           offset="1" />
      </linearGradient>
      <rect
         id="rect24"
         height="65.424004"
         width="57.066799"
         y="2.0567901"
         x="137.74001"
         style="fill:url(#id3)" />
    </mask>
    <mask
       id="id0">
      <linearGradient
         y2="203.98199"
         x2="179.39799"
         y1="75.458801"
         x1="50.277699"
         gradientUnits="userSpaceOnUse"
         id="id1">
        <stop
           id="stop10"
           style="stop-opacity:1; stop-color:white"
           offset="0" />
        <stop
           id="stop12"
           style="stop-opacity:0.501961; stop-color:white"
           offset="0.439216" />
        <stop
           id="stop14"
           style="stop-opacity:0; stop-color:white"
           offset="1" />
      </linearGradient>
      <rect
         id="rect16"
         height="303.577"
         width="217.44299"
         y="-12.068"
         x="6.1163802"
         style="fill:url(#id1)" />
    </mask>
    <style
       id="style6-9"
       type="text/css">
   
    .fil2 {fill:url(#id10)}
    .fil0 {fill:url(#id11)}
    .fil4 {fill:url(#id12)}
    .fil6 {fill:url(#id13)}
    .fil16 {fill:url(#id14)}
    .fil13 {fill:url(#id15)}
    .fil7 {fill:url(#id16)}
    .fil10 {fill:url(#id17)}
    .fil3 {fill:url(#id18)}
    .fil5 {fill:url(#id19)}
    .fil18 {fill:url(#id20)}
    .fil15 {fill:url(#id21)}
    .fil9 {fill:url(#id22)}
    .fil12 {fill:url(#id23)}
    .fil1 {fill:url(#id24);fill-rule:nonzero}
    .fil14 {fill:url(#id25);fill-rule:nonzero}
    .fil17 {fill:url(#id26);fill-rule:nonzero}
    .fil11 {fill:url(#id27);fill-rule:nonzero}
    .fil8 {fill:url(#id28);fill-rule:nonzero}
   
  </style>
    <linearGradient
       id="linearGradient1022">
      <stop
         style="stop-color:#000000;stop-opacity:0.40833300;"
         offset="0.0000000"
         id="stop1024" />
      <stop
         style="stop-color:#000000;stop-opacity:0.0000000;"
         offset="1.0000000"
         id="stop1023" />
    </linearGradient>
    <linearGradient
       id="linearGradient1017">
      <stop
         style="stop-color:#ffffff;stop-opacity:0.17500000;"
         offset="0.0000000"
         id="stop1019" />
      <stop
         style="stop-color:#ffffff;stop-opacity:0.37500000;"
         offset="1.0000000"
         id="stop1018" />
    </linearGradient>
    <defs
       id="defs877">
      <linearGradient
         y2="0.5"
         y1="0.5"
         xlink:href="#linearGradient1017"
         x2="1"
         x1="0"
         spreadMethod="pad"
         id="linearGradient585"
         gradientUnits="objectBoundingBox" />
      <linearGradient
         y2="0.5"
         y1="0.5"
         xlink:href="#linearGradient1022"
         x2="1"
         x1="0"
         spreadMethod="pad"
         id="linearGradient579"
         gradientUnits="objectBoundingBox" />
      <linearGradient
         y2="0.60227275"
         y1="0.51136363"
         xlink:href="#linearGradient579"
         x2="0.41176471"
         x1="0.4852941"
         id="linearGradient582" />
      <linearGradient
         y2="1.0964912"
         y1="0.12280702"
         xlink:href="#linearGradient585"
         x2="0.3272059"
         x1="0.50735295"
         id="linearGradient584" />
      <linearGradient
         xlink:href="#linearGradient585"
         id="linearGradient589" />
    </defs>
    <linearGradient
       inkscape:collect="always"
       xlink:href="#id11"
       id="linearGradient4033"
       x1="67.892479"
       y1="241.88805"
       x2="242.96185"
       y2="4.7083311"
       gradientUnits="userSpaceOnUse" />
    <linearGradient
       inkscape:collect="always"
       xlink:href="#linearGradient4043"
       id="linearGradient4041"
       x1="270.06992"
       y1="-25.069738"
       x2="-66.834572"
       y2="204.27365"
       gradientUnits="userSpaceOnUse" />
    <linearGradient
       inkscape:collect="always"
       xlink:href="#linearGradient4043"
       id="linearGradient4057"
       x1="115.15365"
       y1="-11.973155"
       x2="116.29249"
       y2="65.867767"
       gradientUnits="userSpaceOnUse" />
    <linearGradient
       inkscape:collect="always"
       xlink:href="#id10"
       id="linearGradient4065"
       x1="183.37498"
       y1="144.41524"
       x2="212.37236"
       y2="144.41524"
       gradientUnits="userSpaceOnUse" />
    <linearGradient
       inkscape:collect="always"
       xlink:href="#id10"
       id="linearGradient4073"
       x1="41.104645"
       y1="171.38997"
       x2="68.788597"
       y2="171.38997"
       gradientUnits="userSpaceOnUse" />
    <linearGradient
       inkscape:collect="always"
       xlink:href="#linearGradient3965"
       id="linearGradient4082"
       x1="-178.26773"
       y1="13.623947"
       x2="215.03125"
       y2="157.8125"
       gradientUnits="userSpaceOnUse" />
    <linearGradient
       inkscape:collect="always"
       xlink:href="#linearGradient4043"
       id="linearGradient4091"
       x1="55.315353"
       y1="159.09619"
       x2="127.46629"
       y2="157.52893"
       gradientUnits="userSpaceOnUse" />
  </defs>
  <sodipodi:namedview
     bordercolor="#666666"
     borderopacity="1.0"
     id="base"
     inkscape:current-layer="Layer_1"
     inkscape:cx="220.64646"
     inkscape:cy="126.36433"
     inkscape:pageopacity="0.0"
     inkscape:pageshadow="2"
     inkscape:window-height="1032"
     inkscape:window-width="1918"
     inkscape:window-x="0"
     inkscape:window-y="25"
     inkscape:zoom="1.9141602"
     pagecolor="#ffffff"
     showgrid="false"
     inkscape:window-maximized="1" />
  <rect
     style="fill:url(#linearGradient4033);fill-opacity:1;stroke:url(#linearGradient4041);stroke-width:2.57602428999999988;stroke-miterlimit:0;stroke-opacity:1;stroke-dasharray:none"
     id="rect3103"
     width="252.42397"
     height="252.42397"
     x="1.7880123"
     y="1.7880123"
     ry="15.914649" />
  <path
     inkscape:connector-curvature="0"
     style="fill:url(#linearGradient4073);fill-opacity:1.0"
     id="path22"
     d="m 68.788596,118.12086 c -8.708706,0 -16.374392,0 -25.083097,0 -4.465676,0 -1.826301,8.21693 -1.826301,11.96539 0,23.80112 0,46.03681 0,69.83975 0,7.11187 0,16.31707 0,23.43076 0,3.05864 15.724222,-0.22957 18.771904,-0.22957 0.868681,0 8.135669,0.43617 8.135669,-0.35769 0,-5.70665 0,-11.40965 0,-17.1163 0,-8.51161 0.155122,-7.15384 -9.139396,-7.38378 -0.91978,-0.0219 -17.713055,-0.16607 -17.713055,-0.9946 0,-1.99833 26.852451,0.77195 26.852451,-2.2155 0,-8.29809 0,-16.59436 0,-24.89245 0.0018,-17.34806 0.0018,-34.6943 0.0018,-52.04601"
     sodipodi:nodetypes="cssssssscsscc" />
  <path
     inkscape:connector-curvature="0"
     style="fill:url(#linearGradient4065);fill-opacity:1.0"
     id="path29"
     d="m 212.03037,91.475241 c -9.06274,0 -18.91095,1.306056 -27.97187,1.306056 -0.76367,32.901333 -0.91307,70.942223 -0.31802,102.815133 9.14852,-0.2336 15.9954,2.39846 28.63188,1.61139 -0.31936,-9.92413 -2.00707,-34.21851 -2.06182,-44.14629 -0.11862,-20.04901 0.13553,-41.04406 1.45862,-61.063866"
     sodipodi:nodetypes="cccccc" />
  <path
     inkscape:connector-curvature="0"
     style="fill:url(#linearGradient3089)"
     id="path36"
     d="m 194.63414,195.45716 c -1.90343,-0.0128 -3.80322,0.062 -5.69752,0.22264 5.25953,0 10.52454,0 15.78589,0 -3.3634,-0.0803 -6.7268,-0.22264 -10.08837,-0.22264" />
  <path
     inkscape:connector-curvature="0"
     style="fill:url(#linearGradient4091);fill-opacity:1"
     id="path38"
     d="m 127.39716,171.93343 c -9.96792,0 -19.9322,0 -29.901954,0 0.799332,0 -2.151627,-25.58045 -0.268269,-27.33606 3.558673,-3.31413 24.562123,0 29.901963,0 0.54201,0.002 0.26826,24.47818 0.26826,27.33606" />
  <path
     style="fill:url(#linearGradient4082);fill-opacity:1"
     d="M 96.3125 88.03125 C 96.094908 88.03125 95.89762 89.157222 95.71875 91.125 C 94.275332 91.294203 93.4375 91.491347 93.4375 91.71875 C 93.4375 91.909658 94.256666 92.088922 95.625 92.25 C 95.259087 97.075732 94.972211 105.83047 94.78125 116.53125 C 70.60787 116.63281 41.9375 116.9522 41.9375 118.09375 C 39.493879 118.09375 39.493879 227.59375 41.9375 227.59375 C 42.21627 227.59375 42.432245 226.39157 42.625 224.5 C 45.170758 225.09739 55.173011 225.53394 68.34375 225.78125 C 68.49967 226.92499 68.66025 227.59375 68.84375 227.59375 C 69.056038 227.59375 69.244915 226.92136 69.40625 225.78125 C 103.37839 226.38819 156.78125 225.88548 156.78125 224.21875 C 156.78125 224.02708 156.20511 223.83733 155.21875 223.6875 C 155.81169 220.91374 156.1354 210.63176 156.3125 199 C 187.36708 198.78118 212.65625 198.22755 212.65625 197.28125 C 212.65625 197.20196 212.45655 197.10316 212.1875 197.03125 C 213.75974 191.99008 213.53125 145.8795 213.53125 142.78125 C 213.53125 140.0808 213.71736 104.63493 212.71875 92.28125 C 214.17006 92.1161 215.03125 91.915622 215.03125 91.71875 C 215.03125 91.482307 214.14323 91.267468 212.59375 91.09375 C 212.40203 89.21375 212.18246 88.03125 211.90625 88.03125 C 211.66634 88.03125 211.44305 89.084042 211.25 90.96875 C 205.73033 90.493234 194.9127 90.264021 184.03125 90.15625 C 183.86032 88.805639 183.63706 88.03125 183.40625 88.03125 C 183.20515 88.03125 183.01195 88.810733 182.84375 90.15625 C 169.96314 90.038949 158.24663 90.087823 155.4375 90.09375 C 155.28133 88.789442 155.10907 88.03125 154.90625 88.03125 C 154.73122 88.03125 154.55624 88.798095 154.40625 90.09375 C 154.39205 90.093757 154.26285 90.09375 154.25 90.09375 C 152.66933 90.09375 140.78938 90.027176 128 90.125 C 127.84295 88.801348 127.64191 88.03125 127.4375 88.03125 C 127.26009 88.03125 127.12042 88.824517 126.96875 90.15625 C 115.10323 90.254389 102.78093 90.470444 96.9375 91 C 96.759054 89.124058 96.558791 88.03125 96.3125 88.03125 z M 97.0625 92.40625 C 102.45056 92.873795 113.49102 93.159376 126.6875 93.34375 C 126.36061 98.325478 126.11445 106.59726 125.9375 116.5 C 122.99144 116.49588 111.88998 116.45147 97.78125 116.5 C 97.655184 106.66802 97.447104 97.540131 97.0625 92.40625 z M 211.125 92.40625 C 210.71315 97.513191 210.4226 106.73817 210.25 117.59375 C 205.96505 117.16437 196.25918 116.88338 184.96875 116.71875 C 184.87493 107.81822 184.66126 98.822325 184.28125 93.3125 C 196.15983 93.126322 205.99752 92.832378 211.125 92.40625 z M 182.5625 93.34375 C 182.19644 98.430041 181.94581 106.81694 181.78125 116.6875 C 173.44731 116.58185 164.5961 116.52741 156.34375 116.5 C 156.22718 107.40881 156.05203 98.854524 155.71875 93.5625 C 165.04006 93.556418 174.21116 93.464776 182.5625 93.34375 z M 128.28125 93.375 C 136.4093 93.480167 145.22751 93.562007 154.125 93.5625 C 153.80535 98.564443 153.54929 106.75327 153.375 116.5 C 141.01515 116.46834 131.73005 116.49576 128.90625 116.5 C 128.78815 107.28934 128.62251 98.64995 128.28125 93.375 z M 42.09375 118.25 C 43.429318 118.79681 53.631136 119.1842 68.40625 119.46875 C 67.903668 122.62768 67.541497 131.17049 67.3125 142.09375 C 56.120437 142.27478 46.888273 142.57014 43.4375 143.03125 C 43.272353 131.0366 42.895963 119.66316 42.09375 118.25 z M 210.25 118.5625 C 210.13479 126.18779 210.06178 134.49707 210.0625 142.90625 C 205.69869 142.48787 196.13984 142.22517 185.03125 142.0625 C 185.03494 139.99853 185.06057 130.39883 184.96875 119.5 C 197.00263 119.27746 206.1657 118.95351 210.25 118.5625 z M 69.34375 119.46875 C 76.853553 119.60889 85.47077 119.73843 94.71875 119.8125 C 94.613085 126.60683 94.540141 134.10802 94.5 141.84375 C 86.474578 141.87824 78.130191 141.95231 70.34375 142.0625 C 70.197625 132.17073 69.907829 122.85534 69.34375 119.46875 z M 181.71875 119.53125 C 181.61696 126.62592 181.56557 134.27474 181.5625 142.03125 C 173.35647 141.92804 164.65753 141.87132 156.53125 141.84375 C 156.52442 135.35505 156.4884 127.58003 156.40625 119.8125 C 165.56669 119.74815 174.07551 119.65852 181.71875 119.53125 z M 97.84375 119.8125 C 106.85844 119.87661 116.3366 119.93448 125.875 119.9375 C 125.77048 126.69066 125.69619 134.13337 125.65625 141.8125 C 122.53122 141.80776 111.80039 141.79629 97.9375 141.84375 C 97.930672 135.35506 97.925898 127.58001 97.84375 119.8125 z M 153.3125 119.84375 C 153.20701 126.63014 153.13386 134.11934 153.09375 141.84375 C 140.98418 141.8133 132.00435 141.80794 129.09375 141.8125 C 129.08691 135.36503 129.04973 127.65227 128.96875 119.9375 C 137.23274 119.93437 145.40087 119.89274 153.3125 119.84375 z M 43.46875 143.8125 C 46.756425 144.22243 55.471026 144.54417 67.25 144.78125 C 67.103011 152.81597 67.039916 161.91563 67.03125 171.125 C 56.103304 171.3039 47.077828 171.61499 43.5625 172.0625 C 43.567474 169.56773 43.636318 156.70651 43.46875 143.8125 z M 210.0625 143.9375 C 210.06889 153.74409 210.14838 163.52394 210.3125 171.96875 C 206.05368 171.53553 196.29246 171.25909 184.9375 171.09375 C 185.08541 159.28877 185.04064 148.40388 185.03125 144.84375 C 196.87083 144.62436 205.90427 144.32022 210.0625 143.9375 z M 70.375 144.84375 C 77.592562 144.97403 85.734296 145.08546 94.5 145.15625 C 94.466321 153.69372 94.455202 162.4161 94.5 170.875 C 86.51639 170.90914 78.222117 170.9848 70.46875 171.09375 C 70.47784 167.8078 70.518385 156.75969 70.375 144.84375 z M 181.5625 144.875 C 181.57319 154.02845 181.66416 163.0942 181.8125 171.0625 C 173.53678 170.95744 164.7394 170.90267 156.53125 170.875 C 156.53988 163.21624 156.53125 157.33361 156.53125 156.21875 C 156.53125 155.31307 156.5305 150.70012 156.53125 145.15625 C 165.58512 145.09234 173.99113 145.00043 181.5625 144.875 z M 97.9375 145.15625 C 106.85559 145.21944 116.22399 145.2778 125.65625 145.28125 C 125.62315 153.76896 125.61182 162.43563 125.65625 170.84375 C 122.53122 170.83898 111.80039 170.82785 97.9375 170.875 C 97.946135 163.21624 97.9375 157.33361 97.9375 156.21875 C 97.9375 155.31307 97.93675 150.70012 97.9375 145.15625 z M 153.09375 145.1875 C 153.06018 153.7152 153.04897 162.42635 153.09375 170.875 C 140.98418 170.84481 132.00435 170.83916 129.09375 170.84375 C 129.1023 163.19991 129.0625 157.33217 129.0625 156.21875 C 129.0625 155.32331 129.09271 150.72611 129.09375 145.28125 C 137.23995 145.27793 145.28872 145.23538 153.09375 145.1875 z M 43.5625 172.875 C 46.910871 173.27538 55.505326 173.57853 67.03125 173.8125 C 67.035276 181.42842 67.088934 188.96163 67.1875 195.9375 C 56.117895 196.11882 46.984821 196.42223 43.5 196.875 C 43.601953 185.2333 43.562697 174.35262 43.5625 172.875 z M 210.34375 172.9375 C 210.59725 185.33715 211.02264 194.7029 211.625 196.9375 C 208.30874 196.39554 197.08463 196.09143 183.9375 195.90625 C 184.4709 192.40101 184.72852 183.44837 184.875 173.875 C 197.03414 173.65087 206.29121 173.33348 210.34375 172.9375 z M 70.46875 173.875 C 77.673706 174.00469 85.789509 174.11691 94.53125 174.1875 C 94.581781 181.84674 94.664932 189.10768 94.78125 195.6875 C 86.705409 195.723 78.289803 195.79464 70.4375 195.90625 C 70.522918 185.30123 70.474037 176.17825 70.46875 173.875 z M 181.875 173.90625 C 182.10013 184.36595 182.42581 192.5764 182.90625 195.875 C 174.26732 195.75862 164.96247 195.6866 156.34375 195.65625 C 156.43709 188.25923 156.48536 180.85856 156.5 174.1875 C 165.68738 174.12281 174.21992 174.03432 181.875 173.90625 z M 97.90625 174.1875 C 106.84334 174.25099 116.23391 174.30901 125.6875 174.3125 C 125.73803 181.91395 125.82211 189.1206 125.9375 195.65625 C 122.99195 195.65244 111.89095 195.60492 97.78125 195.65625 C 97.874588 188.25926 97.891615 180.85853 97.90625 174.1875 z M 153.125 174.21875 C 153.17551 181.85419 153.25905 189.09367 153.375 195.65625 C 141.01729 195.62209 131.73034 195.65233 128.90625 195.65625 C 128.999 188.30573 129.04764 180.95506 129.0625 174.3125 C 137.23004 174.30932 145.30043 174.26674 153.125 174.21875 z M 43.5 197.65625 C 46.81112 198.06643 55.499952 198.38725 67.21875 198.625 C 67.385837 208.87792 67.680821 217.62393 68.0625 222.71875 C 56.539469 222.86993 45.573194 223.17386 42.6875 223.84375 C 43.173748 218.40615 43.404435 207.87905 43.5 197.65625 z M 70.40625 198.6875 C 77.713894 198.82017 85.957191 198.92869 94.84375 199 C 95.071761 210.26462 95.405906 219.0224 95.84375 222.59375 C 91.223888 222.58111 81.179642 222.55378 69.71875 222.6875 C 70.120502 217.17702 70.313055 207.85792 70.40625 198.6875 z M 97.71875 199 C 106.80881 199.06539 116.37681 199.12221 126 199.125 C 126.22911 210.38651 126.56045 219.13144 127 222.65625 C 113.85934 222.52377 100.99127 222.59375 99.375 222.59375 C 99.164645 222.59375 97.37968 222.59534 96.8125 222.59375 C 97.297766 218.81017 97.559614 209.45194 97.71875 199 z M 153.4375 199.03125 C 153.69343 211.64985 154.07409 221.04147 154.59375 223.625 C 150.04961 223.06396 139.02565 222.80727 127.96875 222.6875 C 128.45877 218.9728 128.71435 209.6036 128.875 199.125 C 137.21336 199.12199 145.45834 199.08126 153.4375 199.03125 z "
     id="path40" />
  <path
     inkscape:connector-curvature="0"
     style="fill:#dbdbdb"
     id="path72"
     d="m 182.98907,195.6871 c -1.26287,0.69166 0.0675,0.55114 0,0" />
  <path
     inkscape:connector-curvature="0"
     style="fill:#dbdbdb"
     id="path76"
     d="m 211.30697,194.25633 c 0.0566,0.98366 0.15877,2.79949 0,0" />
  <path
     inkscape:connector-curvature="0"
     style="fill:#d2d2d2"
     id="path78"
     d="m 211.30697,193.5957 c 0.0401,1.02015 0.0602,0.74276 0,0" />
  <rect
     ry="14.439755"
     y="1.7880124"
     x="1.7880123"
     height="55.02039"
     width="252.42397"
     id="rect3873"
     style="fill:url(#linearGradient4057);fill-opacity:1;stroke:none"
     rx="16.717514" />
</svg>
