<?xml version="1.0" encoding="UTF-8" standalone="no"?>
<!-- Created with Inkscape (http://www.inkscape.org/) -->

<svg
   xmlns:dc="http://purl.org/dc/elements/1.1/"
   xmlns:cc="http://creativecommons.org/ns#"
   xmlns:rdf="http://www.w3.org/1999/02/22-rdf-syntax-ns#"
   xmlns:svg="http://www.w3.org/2000/svg"
   xmlns="http://www.w3.org/2000/svg"
   xmlns:xlink="http://www.w3.org/1999/xlink"
   xmlns:sodipodi="http://sodipodi.sourceforge.net/DTD/sodipodi-0.dtd"
   xmlns:inkscape="http://www.inkscape.org/namespaces/inkscape"
   id="svg7384"
   version="1.1"
   height="256"
   width="256"
   inkscape:version="0.48.3.1 r9886"
   sodipodi:docname="huayra-menu-accesibility.svg">
  <sodipodi:namedview
     pagecolor="#ffffff"
     bordercolor="#666666"
     borderopacity="1"
     objecttolerance="10"
     gridtolerance="10"
     guidetolerance="10"
     inkscape:pageopacity="0"
     inkscape:pageshadow="2"
     inkscape:window-width="1918"
     inkscape:window-height="1032"
     id="namedview14"
     showgrid="false"
     inkscape:zoom="2.6074563"
     inkscape:cx="83.36477"
     inkscape:cy="135.3737"
     inkscape:window-x="0"
     inkscape:window-y="25"
     inkscape:window-maximized="1"
     inkscape:current-layer="svg7384" />
  <title
     id="title9167">Gnome Symbolic Icon Theme</title>
  <metadata
     id="metadata90">
    <rdf:RDF>
      <cc:Work
         rdf:about="">
        <dc:format>image/svg+xml</dc:format>
        <dc:type
           rdf:resource="http://purl.org/dc/dcmitype/StillImage" />
        <dc:title>Gnome Symbolic Icon Theme</dc:title>
      </cc:Work>
    </rdf:RDF>
  </metadata>
  <defs
     id="defs7386">
    <linearGradient
       id="linearGradient3845"
       gradientUnits="userSpaceOnUse"
       x1="77.762001"
       y1="75.677498"
       x2="229.189"
       y2="264.96301">
      <stop
         offset="0"
         style="stop-color:#58A6D8"
         id="stop3847" />
      <stop
         id="stop3849"
         style="stop-color:#548bbb;stop-opacity:1;"
         offset="0.6769461" />
      <stop
         offset="0.941176"
         style="stop-color:#50719E"
         id="stop3851" />
      <stop
         offset="1"
         style="stop-color:#386EAB"
         id="stop3853" />
    </linearGradient>
    <linearGradient
       id="linearGradient3835"
       gradientUnits="userSpaceOnUse"
       x1="77.762001"
       y1="75.677498"
       x2="229.189"
       y2="264.96301">
      <stop
         offset="0"
         style="stop-color:#58A6D8"
         id="stop3837" />
      <stop
         id="stop3839"
         style="stop-color:#548bbb;stop-opacity:1;"
         offset="0.470588" />
      <stop
         offset="0.470588"
         style="stop-color:#50719E"
         id="stop3841" />
      <stop
         offset="1"
         style="stop-color:#386EAB"
         id="stop3843" />
    </linearGradient>
    <linearGradient
       spreadMethod="reflect"
       gradientUnits="userSpaceOnUse"
       y2="8"
       x2="12.98246"
       y1="8"
       x1="3.01754"
       id="linearGradient4201"
       xlink:href="#id9"
       inkscape:collect="always" />
    <linearGradient
       y2="264.96301"
       x2="229.189"
       y1="75.677498"
       x1="77.762001"
       gradientUnits="userSpaceOnUse"
       id="id9">
      <stop
         id="stop3151"
         style="stop-color:#58A6D8"
         offset="0" />
      <stop
         offset="0.470588"
         style="stop-color:#548bbb;stop-opacity:1;"
         id="stop4258" />
      <stop
         id="stop3153"
         style="stop-color:#50719E"
         offset="0.941176" />
      <stop
         id="stop3155"
         style="stop-color:#386EAB"
         offset="1" />
    </linearGradient>
    <linearGradient
       inkscape:collect="always"
       xlink:href="#id9"
       id="linearGradient3026"
       gradientUnits="userSpaceOnUse"
       spreadMethod="reflect"
       x1="3.01754"
       y1="8"
       x2="12.98246"
       y2="8" />
    <linearGradient
       inkscape:collect="always"
       xlink:href="#id9"
       id="linearGradient3028"
       gradientUnits="userSpaceOnUse"
       spreadMethod="reflect"
       x1="3.01754"
       y1="8"
       x2="12.98246"
       y2="8" />
    <linearGradient
       inkscape:collect="always"
       xlink:href="#id9"
       id="linearGradient3030"
       gradientUnits="userSpaceOnUse"
       spreadMethod="reflect"
       x1="3.01754"
       y1="8"
       x2="12.98246"
       y2="8" />
    <linearGradient
       inkscape:collect="always"
       xlink:href="#id9"
       id="linearGradient3032"
       gradientUnits="userSpaceOnUse"
       spreadMethod="reflect"
       x1="3.01754"
       y1="8"
       x2="12.98246"
       y2="8" />
    <linearGradient
       inkscape:collect="always"
       xlink:href="#id9"
       id="linearGradient3034"
       gradientUnits="userSpaceOnUse"
       spreadMethod="reflect"
       x1="3.01754"
       y1="8"
       x2="12.98246"
       y2="8" />
    <linearGradient
       inkscape:collect="always"
       xlink:href="#id9"
       id="linearGradient3036"
       gradientUnits="userSpaceOnUse"
       spreadMethod="reflect"
       x1="3.01754"
       y1="8"
       x2="12.98246"
       y2="8" />
    <linearGradient
       inkscape:collect="always"
       xlink:href="#id9"
       id="linearGradient3038"
       gradientUnits="userSpaceOnUse"
       spreadMethod="reflect"
       x1="3.01754"
       y1="8"
       x2="12.98246"
       y2="8" />
    <linearGradient
       inkscape:collect="always"
       xlink:href="#id9"
       id="linearGradient3040"
       gradientUnits="userSpaceOnUse"
       spreadMethod="reflect"
       x1="3.01754"
       y1="8"
       x2="12.98246"
       y2="8" />
    <linearGradient
       inkscape:collect="always"
       xlink:href="#linearGradient3845"
       id="linearGradient3825"
       x1="205.14044"
       y1="153.31201"
       x2="-18.556747"
       y2="72.006721"
       gradientUnits="userSpaceOnUse" />
    <linearGradient
       inkscape:collect="always"
       xlink:href="#linearGradient3835"
       id="linearGradient3833"
       x1="219.3709"
       y1="204.22539"
       x2="166.82927"
       y2="179.6804"
       gradientUnits="userSpaceOnUse" />
  </defs>
  <g
     transform="translate(-41.982553,-141.00459)"
     id="layer9"
     style="display:inline" />
  <g
     transform="translate(-41.982553,-141.00459)"
     id="layer10" />
  <rect
     style="fill:url(#linearGradient3833);fill-opacity:1;stroke:none"
     id="rect2992"
     width="194.44238"
     height="204.03027"
     x="31.448275"
     y="31.643408"
     ry="79.27803" />
  <path
     style="fill:url(#linearGradient3825);fill-opacity:1;stroke:none;stroke-width:2;marker:none;visibility:visible;display:inline;overflow:visible;stroke-opacity:1"
     id="path3850"
     d="M 128,0.72665008 C 57.708912,0.72665008 0.72666676,57.708832 0.72666676,127.99999 0.72666676,198.29114 57.708912,255.27332 128,255.27332 c 70.29109,0 127.27334,-56.98218 127.27334,-127.27333 C 255.27334,57.708832 198.29109,0.72665008 128,0.72665008 z m 0,30.91485192 c 17.83881,0 32.29709,14.458251 32.29709,32.297041 0,17.838631 -14.45828,32.296882 -32.29709,32.296882 -17.8388,0 -32.297086,-14.458251 -32.297086,-32.296882 0,-17.83879 14.458286,-32.297041 32.297086,-32.297041 z M 51.677556,97.189975 c 51.015304,-0.72864 102.024474,-0.245001 153.038664,0.179774 0,0 6.85553,-0.127274 6.85553,6.746761 l 0,3.31881 c 0,3.59261 -3.74835,4.58248 -3.74835,4.58248 l -47.49169,9.1982 0,33.58266 21.55201,62.14773 c 2.17635,3.59102 -2.51983,4.61684 -2.51983,4.61684 l -8.37611,0.0795 c -4.02774,0 -5.53776,-3.38912 -5.53776,-3.38912 l -32.96028,-57.13873 c -3.53627,-8.01981 -3.75725,-6.99701 -7.10407,0.0122 l -34.506145,57.05377 c -1.154051,3.46247 -5.657236,3.53804 -5.657236,3.53804 l -9.072982,-0.14318 c 0,0 -3.316679,-0.0955 -2.55576,-3.32788 l 22.074749,-63.45849 0,-33.58266 -46.008452,-8.8264 c -3.698054,-1.25206 -5.231586,-4.68271 -5.231586,-4.68271 l 0,-3.46247 c 0,0 -0.154319,-7.054601 7.249298,-7.054601 z"
     inkscape:connector-curvature="0" />
  <g
     transform="translate(-41.982553,-141.00459)"
     id="layer12" />
  <g
     transform="translate(-41.982553,-141.00459)"
     id="layer13" />
  <g
     transform="translate(-41.982553,-141.00459)"
     id="layer14" />
  <g
     transform="translate(-41.982553,-141.00459)"
     id="layer15" />
</svg>
