<?xml version="1.0" encoding="UTF-8" standalone="no"?>
<!-- Created with Inkscape (http://www.inkscape.org/) -->

<svg
   xmlns:dc="http://purl.org/dc/elements/1.1/"
   xmlns:cc="http://creativecommons.org/ns#"
   xmlns:rdf="http://www.w3.org/1999/02/22-rdf-syntax-ns#"
   xmlns:svg="http://www.w3.org/2000/svg"
   xmlns="http://www.w3.org/2000/svg"
   xmlns:sodipodi="http://sodipodi.sourceforge.net/DTD/sodipodi-0.dtd"
   xmlns:inkscape="http://www.inkscape.org/namespaces/inkscape"
   id="svg7384"
   version="1.1"
   inkscape:version="0.48.3.1 r9886"
   height="256"
   sodipodi:docname="chat-huayra.svg"
   width="256">
  <metadata
     id="metadata90">
    <rdf:RDF>
      <cc:Work
         rdf:about="">
        <dc:format>image/svg+xml</dc:format>
        <dc:type
           rdf:resource="http://purl.org/dc/dcmitype/StillImage" />
        <dc:title>Gnome Symbolic Icon Theme</dc:title>
      </cc:Work>
    </rdf:RDF>
  </metadata>
  <sodipodi:namedview
     inkscape:cy="125.92087"
     inkscape:current-layer="layer9"
     inkscape:window-width="1914"
     pagecolor="#ffffff"
     showborder="true"
     showguides="true"
     inkscape:snap-nodes="false"
     objecttolerance="10"
     showgrid="false"
     inkscape:object-nodes="true"
     inkscape:pageshadow="2"
     inkscape:guide-bbox="true"
     inkscape:window-x="0"
     inkscape:snap-bbox="true"
     bordercolor="#666666"
     id="namedview88"
     inkscape:window-maximized="1"
     inkscape:snap-global="true"
     inkscape:window-y="25"
     gridtolerance="10"
     inkscape:zoom="2"
     inkscape:window-height="1031"
     borderopacity="1"
     guidetolerance="10"
     inkscape:cx="-59.261505"
     inkscape:bbox-paths="false"
     inkscape:snap-grids="true"
     inkscape:pageopacity="0"
     inkscape:snap-to-guides="true">
    <inkscape:grid
       visible="true"
       spacingx="1px"
       type="xygrid"
       spacingy="1px"
       id="grid4866"
       empspacing="2"
       enabled="true"
       snapvisiblegridlinesonly="true" />
  </sodipodi:namedview>
  <title
     id="title9167">Gnome Symbolic Icon Theme</title>
  <defs
     id="defs7386" />
  <g
     transform="translate(-41.000198,-117)"
     inkscape:groupmode="layer"
     id="layer9"
     inkscape:label="status"
     style="display:inline">
    <path
       style="color:#bebebe;fill:#4ecae9;fill-opacity:1;fill-rule:nonzero;stroke:none;stroke-width:2.40000010000000019;marker:none;visibility:visible;display:inline;overflow:visible;enable-background:accumulate"
       d="m 91.510569,119.78125 c -27.375177,0 -49.413677,22.0385 -49.413677,49.41368 l 0,79.7357 c 0,27.37518 22.0385,49.41368 49.413677,49.41368 l 113.426841,0 54.46735,71.87444 -1.12304,-73.55899 c 21.64376,-5.26194 37.62178,-24.42132 37.62178,-47.72913 l 0,-79.7357 c 0,-27.37518 -22.0385,-49.41368 -49.41368,-49.41368 l -154.979251,0 z m 42.113921,17.96862 c 1.01928,-1.3074 3.66352,2.34202 6.17671,8.42278 3.83681,9.28276 15.55561,45.91555 13.47646,69.62836 1.95678,-0.0485 4.22665,0.33692 6.17671,0.56152 13.72197,-23.17412 26.67209,-50.28768 29.76051,-66.82077 3.28932,-17.60834 5.8035,-7.6929 5.05367,2.80759 -1.30958,18.33877 -10.20994,47.64611 -20.21468,67.94381 1.10734,0.53188 2.30015,1.07003 3.36911,1.68456 19.1947,-16.53346 35.23772,-33.08937 45.48305,-46.04457 11.16001,-14.11218 10.14325,-4.72287 5.05366,4.49216 -4.78378,8.66141 -22.35109,34.80304 -38.74481,51.65975 1.82453,1.97799 3.01585,3.89972 4.49216,6.17671 18.39961,-8.7588 34.39022,-18.38782 45.48304,-26.3914 13.61248,-9.82164 10.26245,-1.4772 3.36911,5.61519 -5.93254,6.10376 -24.84509,22.69975 -42.67545,33.69115 0.58111,2.1981 0.8828,4.40393 1.12304,6.73823 23.34089,1.95876 35.32375,3.04927 47.72912,3.36911 12.85047,0.33117 8.22614,1.98877 1.12304,3.93063 -9.41897,2.57581 -31.85412,4.79224 -48.85216,5.61519 -0.20502,0.0104 -0.91945,-0.0117 -1.12304,0 l 0,-0.56151 -16.28405,1.12304 c 6.06879,-37.89849 -52.60596,-49.34198 -58.39798,-4.49216 l -0.56152,9.54583 c -5.83982,-1.99164 -10.91286,-4.35344 -15.16101,-6.17671 -12.744489,-5.46982 -19.6651,-10.15352 -27.514435,-14.03798 -10.466032,-5.17963 -4.46741,-4.39386 5.053671,-2.24607 6.504547,1.46749 15.176124,2.45559 24.706834,5.05367 0.64673,-3.03401 0.82009,-6.30447 1.68456,-8.98431 -17.214105,-18.59229 -32.333451,-33.37885 -40.990888,-42.11393 -8.795833,-8.87416 -3.353842,-7.44188 5.053671,-2.24607 7.960418,4.91962 28.312037,20.77027 41.552407,32.5681 1.96787,-3.47441 3.7986,-6.94325 6.17671,-9.54582 -9.91815,-23.77534 -21.78256,-53.88032 -26.952913,-65.13621 -5.215784,-11.35599 -0.159578,-7.83522 5.053663,0.56151 5.65643,9.11045 22.44771,37.50984 32.56811,56.71343 1.70539,-0.94821 3.27317,-1.59202 5.05367,-2.24608 1.66176,-27.33205 -4.89886,-59.22813 -6.73823,-72.43595 -0.69322,-4.9809 -1.17317,-7.63936 -0.56152,-8.42278 z m 20.77621,116.23444 c 5.68484,-0.4386 11.16027,2.00768 14.03798,7.29974 l 0.56151,0.56153 c 3.73949,7.24997 0.51167,16.47523 -6.73822,20.21468 -7.24985,3.73963 -16.47519,0.51157 -20.21469,-6.73823 -3.73956,-7.24979 -0.51167,-15.91372 6.73823,-19.65317 1.78451,-0.92049 3.72025,-1.53835 5.61519,-1.68455 z"
       id="rect11261"
       inkscape:connector-curvature="0" />
  </g>
  <g
     transform="translate(-41.000198,-117)"
     inkscape:groupmode="layer"
     id="layer10"
     inkscape:label="devices" />
  <g
     transform="translate(-41.000198,-117)"
     inkscape:groupmode="layer"
     id="layer11"
     inkscape:label="apps" />
  <g
     transform="translate(-41.000198,-117)"
     inkscape:groupmode="layer"
     id="layer12"
     inkscape:label="actions" />
  <g
     transform="translate(-41.000198,-117)"
     inkscape:groupmode="layer"
     id="layer13"
     inkscape:label="places" />
  <g
     transform="translate(-41.000198,-117)"
     inkscape:groupmode="layer"
     id="layer14"
     inkscape:label="mimetypes" />
  <g
     transform="translate(-41.000198,-117)"
     inkscape:groupmode="layer"
     id="layer15"
     inkscape:label="emblems"
     style="display:inline" />
  <g
     transform="translate(-41.000198,-117)"
     inkscape:groupmode="layer"
     id="g4953"
     inkscape:label="categories"
     style="display:inline" />
</svg>
