<?xml version="1.0" encoding="UTF-8" standalone="no"?>
<!-- Created with Inkscape (http://www.inkscape.org/) -->

<svg
   xmlns:dc="http://purl.org/dc/elements/1.1/"
   xmlns:cc="http://creativecommons.org/ns#"
   xmlns:rdf="http://www.w3.org/1999/02/22-rdf-syntax-ns#"
   xmlns:svg="http://www.w3.org/2000/svg"
   xmlns="http://www.w3.org/2000/svg"
   xmlns:xlink="http://www.w3.org/1999/xlink"
   xmlns:sodipodi="http://sodipodi.sourceforge.net/DTD/sodipodi-0.dtd"
   xmlns:inkscape="http://www.inkscape.org/namespaces/inkscape"
   width="256"
   height="256"
   id="svg3832"
   version="1.1"
   inkscape:version="0.48.3.1 r9886"
   sodipodi:docname="huayra-compartir.svg"
   inkscape:export-filename="/home/alumno/Dropbox/huayra/logos/compartir-web.png"
   inkscape:export-xdpi="5.527988"
   inkscape:export-ydpi="5.527988">
  <defs
     id="defs3834">
    <linearGradient
       id="linearGradient5029">
      <stop
         style="stop-color:#7d9c00;stop-opacity:1;"
         offset="0"
         id="stop5031" />
      <stop
         style="stop-color:#ccff00;stop-opacity:1;"
         offset="1"
         id="stop5033" />
    </linearGradient>
    <linearGradient
       id="linearGradient5021">
      <stop
         style="stop-color:#f9ffe0;stop-opacity:1;"
         offset="0"
         id="stop5023" />
      <stop
         style="stop-color:#eeffaa;stop-opacity:0;"
         offset="1"
         id="stop5025" />
    </linearGradient>
    <linearGradient
       id="linearGradient4433">
      <stop
         id="stop4435"
         offset="0"
         style="stop-color:#c663ff;stop-opacity:1;" />
      <stop
         id="stop4437"
         offset="1"
         style="stop-color:#3ad0ff;stop-opacity:1;" />
    </linearGradient>
    <linearGradient
       id="linearGradient4380">
      <stop
         style="stop-color:#e0f9ff;stop-opacity:1;"
         offset="0"
         id="stop4382" />
      <stop
         style="stop-color:#bdf2ff;stop-opacity:0.2392638;"
         offset="1"
         id="stop4384" />
    </linearGradient>
    <linearGradient
       id="linearGradient4299">
      <stop
         style="stop-color:#ffe0fd;stop-opacity:1;"
         offset="0"
         id="stop4301" />
      <stop
         style="stop-color:#ffd5fa;stop-opacity:0.31901839;"
         offset="1"
         id="stop4303" />
    </linearGradient>
    <linearGradient
       id="linearGradient4281">
      <stop
         style="stop-color:#27d4ff;stop-opacity:1;"
         offset="0"
         id="stop4283" />
      <stop
         style="stop-color:#004e61;stop-opacity:1;"
         offset="1"
         id="stop4285" />
    </linearGradient>
    <linearGradient
       id="linearGradient4273">
      <stop
         style="stop-color:#f282ff;stop-opacity:1;"
         offset="0"
         id="stop4275" />
      <stop
         style="stop-color:#400045;stop-opacity:1;"
         offset="1"
         id="stop4277" />
    </linearGradient>
    <linearGradient
       inkscape:collect="always"
       xlink:href="#linearGradient4299"
       id="linearGradient4305"
       x1="29.294424"
       y1="35.424591"
       x2="100.51018"
       y2="117.75202"
       gradientUnits="userSpaceOnUse"
       gradientTransform="translate(261.6295,18.18275)" />
    <linearGradient
       inkscape:collect="always"
       xlink:href="#linearGradient4273-7"
       id="linearGradient4279-2"
       x1="63.556183"
       y1="170.49821"
       x2="69.195587"
       y2="16.212494"
       gradientUnits="userSpaceOnUse"
       gradientTransform="translate(-1563.7749,-344.58422)" />
    <linearGradient
       id="linearGradient4273-7">
      <stop
         style="stop-color:#0eff87;stop-opacity:1;"
         offset="0"
         id="stop4275-4" />
      <stop
         style="stop-color:#004537;stop-opacity:1;"
         offset="1"
         id="stop4277-0" />
    </linearGradient>
    <linearGradient
       y2="16.212494"
       x2="69.195587"
       y1="170.49821"
       x1="63.556183"
       gradientTransform="translate(-1303.3621,-328.95264)"
       gradientUnits="userSpaceOnUse"
       id="linearGradient4322"
       xlink:href="#linearGradient4273-7"
       inkscape:collect="always" />
    <linearGradient
       inkscape:collect="always"
       xlink:href="#linearGradient4299-7"
       id="linearGradient4342-3"
       gradientUnits="userSpaceOnUse"
       gradientTransform="translate(-1562.7648,-342.56391)"
       x1="29.294424"
       y1="35.424591"
       x2="100.51018"
       y2="117.75202" />
    <linearGradient
       id="linearGradient4299-7">
      <stop
         style="stop-color:#d5ffe6;stop-opacity:1;"
         offset="0"
         id="stop4301-0" />
      <stop
         style="stop-color:#d5ffe6;stop-opacity:0;"
         offset="1"
         id="stop4303-8" />
    </linearGradient>
    <linearGradient
       y2="117.75202"
       x2="100.51018"
       y1="35.424591"
       x1="29.294424"
       gradientTransform="translate(-1325.8804,-366.28772)"
       gradientUnits="userSpaceOnUse"
       id="linearGradient4359"
       xlink:href="#linearGradient4299-7"
       inkscape:collect="always" />
    <linearGradient
       inkscape:collect="always"
       xlink:href="#linearGradient4380"
       id="linearGradient4386"
       x1="133.84521"
       y1="135.53931"
       x2="193.95554"
       y2="191.0977"
       gradientUnits="userSpaceOnUse"
       gradientTransform="translate(-270.7209,11.11168)" />
    <linearGradient
       inkscape:collect="always"
       xlink:href="#linearGradient4281-7"
       id="linearGradient4287-5"
       x1="155.90274"
       y1="241.77705"
       x2="172.92517"
       y2="87.491333"
       gradientUnits="userSpaceOnUse" />
    <linearGradient
       id="linearGradient4281-7">
      <stop
         style="stop-color:#27d4ff;stop-opacity:1;"
         offset="0"
         id="stop4283-1" />
      <stop
         style="stop-color:#004e61;stop-opacity:1;"
         offset="1"
         id="stop4285-7" />
    </linearGradient>
    <linearGradient
       gradientTransform="translate(-1834.0307,-335.28585)"
       y2="87.491333"
       x2="172.92517"
       y1="241.77705"
       x1="155.90274"
       gradientUnits="userSpaceOnUse"
       id="linearGradient4403"
       xlink:href="#linearGradient4281-7"
       inkscape:collect="always" />
  </defs>
  <sodipodi:namedview
     id="base"
     pagecolor="#e6e7e8"
     bordercolor="#666666"
     borderopacity="1.0"
     inkscape:pageopacity="0"
     inkscape:pageshadow="2"
     inkscape:zoom="0.9899495"
     inkscape:cx="388.82391"
     inkscape:cy="-60.990776"
     inkscape:document-units="px"
     inkscape:current-layer="layer1"
     showgrid="false"
     showguides="true"
     inkscape:window-width="1914"
     inkscape:window-height="1031"
     inkscape:window-x="0"
     inkscape:window-y="25"
     inkscape:window-maximized="1"
     fit-margin-top="0"
     fit-margin-left="0"
     fit-margin-right="0"
     fit-margin-bottom="0"
     inkscape:guide-bbox="true" />
  <metadata
     id="metadata3837">
    <rdf:RDF>
      <cc:Work
         rdf:about="">
        <dc:format>image/svg+xml</dc:format>
        <dc:type
           rdf:resource="http://purl.org/dc/dcmitype/StillImage" />
        <dc:title />
      </cc:Work>
    </rdf:RDF>
  </metadata>
  <g
     inkscape:label="Capa 1"
     inkscape:groupmode="layer"
     id="layer1"
     transform="translate(1563.7749,344.58422)">
    <g
       id="g4870"
       transform="translate(-1640,511.42857)">
      <path
         inkscape:transform-center-y="1.4467684"
         inkscape:transform-center-x="-15.417242"
         transform="matrix(-0.07382585,0.66627789,-0.7289839,-0.03741284,-1495.8598,1738.7622)"
         d="m -364.28571,263.79074 c 0,46.54971 -20.46699,84.28571 -45.71429,84.28571 -25.2473,0 -45.71429,-37.736 -45.71429,-84.28571 0,-46.54971 20.46699,-84.28571 45.71429,-84.28571 25.2473,0 45.71429,37.736 45.71429,84.28571 z"
         sodipodi:ry="84.285713"
         sodipodi:rx="45.714287"
         sodipodi:cy="263.79074"
         sodipodi:cx="-410"
         id="path3848-2-9-2-9-8-4-6-3-9"
         style="fill:#cccccc;fill-opacity:0.59215686;stroke:none"
         sodipodi:type="arc" />
      <path
         sodipodi:open="true"
         sodipodi:end="6.0900184"
         sodipodi:start="0"
         d="m -362.85715,420.93362 c 0,34.71505 -28.1421,62.85715 -62.85714,62.85715 -34.71505,0 -62.85715,-28.1421 -62.85715,-62.85715 0,-34.71504 28.1421,-62.85714 62.85715,-62.85714 30.06277,0 55.91699,21.28695 61.68807,50.79059"
         sodipodi:ry="62.857143"
         sodipodi:rx="62.857143"
         sodipodi:cy="420.93362"
         sodipodi:cx="-425.71429"
         id="path3846-7-4-3-2"
         style="fill:#4e4e4e;fill-opacity:0.59215686;stroke:none"
         sodipodi:type="arc"
         transform="matrix(0.66916078,0,0,0.66916078,-1257.8314,1170.2401)" />
      <path
         transform="matrix(0.66916078,0,0,0.66916078,-1270.2586,1166.4163)"
         sodipodi:open="true"
         sodipodi:end="6.0900184"
         sodipodi:start="0"
         d="m -364.28571,263.79074 c 0,46.54971 -20.46699,84.28571 -45.71429,84.28571 -25.2473,0 -45.71429,-37.736 -45.71429,-84.28571 0,-46.54971 20.46699,-84.28571 45.71429,-84.28571 21.86383,0 40.6669,28.54387 44.86406,68.10556"
         sodipodi:ry="84.285713"
         sodipodi:rx="45.714287"
         sodipodi:cy="263.79074"
         sodipodi:cx="-410"
         id="path3848-7-6-4-3"
         style="opacity:0.59080003;fill:#4d4d4d;fill-opacity:1;stroke:none"
         sodipodi:type="arc" />
      <path
         transform="matrix(0.54569345,-0.38729164,0.38729164,0.54569345,-1502.2235,1067.1267)"
         sodipodi:open="true"
         sodipodi:end="6.0900184"
         sodipodi:start="0"
         d="m -364.28571,263.79074 c 0,46.54971 -20.46699,84.28571 -45.71429,84.28571 -25.2473,0 -45.71429,-37.736 -45.71429,-84.28571 0,-46.54971 20.46699,-84.28571 45.71429,-84.28571 21.86383,0 40.6669,28.54387 44.86406,68.10556"
         sodipodi:ry="84.285713"
         sodipodi:rx="45.714287"
         sodipodi:cy="263.79074"
         sodipodi:cx="-410"
         id="path3848-2-6-2-8-5"
         style="opacity:0.59080003;fill:#4d4d4d;stroke:#917c6f"
         sodipodi:type="arc" />
      <path
         inkscape:transform-center-y="8.6079444"
         inkscape:transform-center-x="11.306638"
         transform="matrix(-0.40836126,-0.53079875,0.51145405,-0.43171811,-1927.2952,1429.3614)"
         sodipodi:open="true"
         sodipodi:end="6.0900184"
         sodipodi:start="0"
         d="m -364.28571,263.79074 c 0,46.54971 -20.46699,84.28571 -45.71429,84.28571 -25.2473,0 -45.71429,-37.736 -45.71429,-84.28571 0,-46.54971 20.46699,-84.28571 45.71429,-84.28571 21.86383,0 40.6669,28.54387 44.86406,68.10556"
         sodipodi:ry="84.285713"
         sodipodi:rx="45.714287"
         sodipodi:cy="263.79074"
         sodipodi:cx="-410"
         id="path3848-2-9-2-2-5-3-2"
         style="opacity:0.59080003;fill:#4d4d4d;fill-opacity:1;stroke:none"
         sodipodi:type="arc" />
      <path
         inkscape:transform-center-y="14.211091"
         inkscape:transform-center-x="-0.25261687"
         transform="matrix(-0.66952916,0.01539325,-0.04566812,-0.66774262,-1800.5271,1744.401)"
         sodipodi:open="true"
         sodipodi:end="6.0900184"
         sodipodi:start="0"
         d="m -364.28571,263.79074 c 0,46.54971 -20.46699,84.28571 -45.71429,84.28571 -25.2473,0 -45.71429,-37.736 -45.71429,-84.28571 0,-46.54971 20.46699,-84.28571 45.71429,-84.28571 21.86383,0 40.6669,28.54387 44.86406,68.10556"
         sodipodi:ry="84.285713"
         sodipodi:rx="45.714287"
         sodipodi:cy="263.79074"
         sodipodi:cx="-410"
         id="path3848-2-9-2-9-38-6-9-1"
         style="opacity:0.59080003;fill:#4d4d4d;fill-opacity:1;stroke:none"
         sodipodi:type="arc" />
      <path
         inkscape:transform-center-y="10.433442"
         inkscape:transform-center-x="9.6498688"
         transform="matrix(-0.49396663,-0.45222032,0.42912941,-0.513628,-1775.3756,1315.4436)"
         sodipodi:open="true"
         sodipodi:end="6.0900184"
         sodipodi:start="0"
         d="m -364.28571,263.79074 c 0,46.54971 -20.46699,84.28571 -45.71429,84.28571 -25.2473,0 -45.71429,-37.736 -45.71429,-84.28571 0,-46.54971 20.46699,-84.28571 45.71429,-84.28571 21.86383,0 40.6669,28.54387 44.86406,68.10556"
         sodipodi:ry="84.285713"
         sodipodi:rx="45.714287"
         sodipodi:cy="263.79074"
         sodipodi:cx="-410"
         id="path3848-2-9-2-9-3-5-2-6-5"
         style="opacity:0.59080003;fill:#4d4d4d;fill-opacity:1;stroke:none"
         sodipodi:type="arc" />
      <path
         inkscape:transform-center-y="8.7985371"
         inkscape:transform-center-x="-11.16174"
         transform="matrix(-0.41187846,0.52807421,-0.54585438,-0.38730967,-1479.8009,1841.4917)"
         sodipodi:open="true"
         sodipodi:end="6.0900184"
         sodipodi:start="0"
         d="m -364.28571,263.79074 c 0,46.54971 -20.46699,84.28571 -45.71429,84.28571 -25.2473,0 -45.71429,-37.736 -45.71429,-84.28571 0,-46.54971 20.46699,-84.28571 45.71429,-84.28571 21.86383,0 40.6669,28.54387 44.86406,68.10556"
         sodipodi:ry="84.285713"
         sodipodi:rx="45.714287"
         sodipodi:cy="263.79074"
         sodipodi:cx="-410"
         id="path3848-2-9-2-9-8-7-7-9-5"
         style="opacity:0.59080003;fill:#4d4d4d;fill-opacity:1;stroke:none"
         sodipodi:type="arc" />
      <path
         inkscape:transform-center-y="1.4468098"
         inkscape:transform-center-x="-14.132917"
         transform="matrix(-0.0676758,0.66627789,-0.66825598,-0.03741284,-1279.5174,1732.6787)"
         sodipodi:open="true"
         sodipodi:end="6.0900184"
         sodipodi:start="0"
         d="m -364.28571,263.79074 c 0,46.54971 -20.46699,84.28571 -45.71429,84.28571 -25.2473,0 -45.71429,-37.736 -45.71429,-84.28571 0,-46.54971 20.46699,-84.28571 45.71429,-84.28571 21.86383,0 40.6669,28.54387 44.86406,68.10556"
         sodipodi:ry="84.285713"
         sodipodi:rx="45.714287"
         sodipodi:cy="263.79074"
         sodipodi:cx="-410"
         id="path3848-2-9-2-9-8-4-6-0-4-2"
         style="opacity:0.59080003;fill:#4d4d4d;fill-opacity:1;stroke:none"
         sodipodi:type="arc" />
    </g>
    <g
       id="g4858"
       transform="translate(-1142.8571,897.14286)">
      <g
         id="g4738">
        <path
           sodipodi:type="arc"
           style="opacity:0.59080003;fill:#aad400;fill-opacity:1;stroke:none"
           id="path3848-2-9-2-9-8-4-6-3-9-5"
           sodipodi:cx="-410"
           sodipodi:cy="263.79074"
           sodipodi:rx="45.714287"
           sodipodi:ry="84.285713"
           d="m -364.28571,263.79074 c 0,46.54971 -20.46699,84.28571 -45.71429,84.28571 -25.2473,0 -45.71429,-37.736 -45.71429,-84.28571 0,-46.54971 20.46699,-84.28571 45.71429,-84.28571 25.2473,0 45.71429,37.736 45.71429,84.28571 z"
           transform="matrix(-0.07382585,0.66627789,-0.7289839,-0.03741284,-1502.9512,1365.0058)"
           inkscape:transform-center-x="-15.417242"
           inkscape:transform-center-y="1.4467684" />
        <path
           transform="matrix(0.66916078,0,0,0.66916078,-1264.9228,796.48368)"
           sodipodi:type="arc"
           style="fill:#4d4d4d;fill-opacity:0.59215686;stroke:none"
           id="path3846-7-4-3-2-5"
           sodipodi:cx="-425.71429"
           sodipodi:cy="420.93362"
           sodipodi:rx="62.857143"
           sodipodi:ry="62.857143"
           d="m -362.85715,420.93362 c 0,34.71505 -28.1421,62.85715 -62.85714,62.85715 -34.71505,0 -62.85715,-28.1421 -62.85715,-62.85715 0,-34.71504 28.1421,-62.85714 62.85715,-62.85714 30.06277,0 55.91699,21.28695 61.68807,50.79059"
           sodipodi:start="0"
           sodipodi:end="6.0900184"
           sodipodi:open="true" />
        <path
           sodipodi:type="arc"
           style="opacity:0.59080003;fill:#4d4d4d;fill-opacity:1;stroke:none"
           id="path3848-7-6-4-3-5"
           sodipodi:cx="-410"
           sodipodi:cy="263.79074"
           sodipodi:rx="45.714287"
           sodipodi:ry="84.285713"
           d="m -364.28571,263.79074 c 0,46.54971 -20.46699,84.28571 -45.71429,84.28571 -25.2473,0 -45.71429,-37.736 -45.71429,-84.28571 0,-46.54971 20.46699,-84.28571 45.71429,-84.28571 21.86383,0 40.6669,28.54387 44.86406,68.10556"
           sodipodi:start="0"
           sodipodi:end="6.0900184"
           sodipodi:open="true"
           transform="matrix(0.66916078,0,0,0.66916078,-1277.35,792.65988)" />
        <path
           sodipodi:type="arc"
           style="opacity:0.59080003;fill:#4d4d4d;stroke:#917c6f"
           id="path3848-2-6-2-8-5-3"
           sodipodi:cx="-410"
           sodipodi:cy="263.79074"
           sodipodi:rx="45.714287"
           sodipodi:ry="84.285713"
           d="m -364.28571,263.79074 c 0,46.54971 -20.46699,84.28571 -45.71429,84.28571 -25.2473,0 -45.71429,-37.736 -45.71429,-84.28571 0,-46.54971 20.46699,-84.28571 45.71429,-84.28571 21.86383,0 40.6669,28.54387 44.86406,68.10556"
           sodipodi:start="0"
           sodipodi:end="6.0900184"
           sodipodi:open="true"
           transform="matrix(0.54569345,-0.38729164,0.38729164,0.54569345,-1509.3149,693.37028)" />
        <path
           sodipodi:type="arc"
           style="opacity:0.59080003;fill:#4d4d4d;fill-opacity:1;stroke:none"
           id="path3848-2-9-2-2-5-3-2-2"
           sodipodi:cx="-410"
           sodipodi:cy="263.79074"
           sodipodi:rx="45.714287"
           sodipodi:ry="84.285713"
           d="m -364.28571,263.79074 c 0,46.54971 -20.46699,84.28571 -45.71429,84.28571 -25.2473,0 -45.71429,-37.736 -45.71429,-84.28571 0,-46.54971 20.46699,-84.28571 45.71429,-84.28571 21.86383,0 40.6669,28.54387 44.86406,68.10556"
           sodipodi:start="0"
           sodipodi:end="6.0900184"
           sodipodi:open="true"
           transform="matrix(-0.40836126,-0.53079875,0.51145405,-0.43171811,-1934.3866,1055.605)"
           inkscape:transform-center-x="11.306638"
           inkscape:transform-center-y="8.6079444" />
        <path
           sodipodi:type="arc"
           style="opacity:0.59080003;fill:#4d4d4d;fill-opacity:1;stroke:none"
           id="path3848-2-9-2-9-38-6-9-1-8"
           sodipodi:cx="-410"
           sodipodi:cy="263.79074"
           sodipodi:rx="45.714287"
           sodipodi:ry="84.285713"
           d="m -364.28571,263.79074 c 0,46.54971 -20.46699,84.28571 -45.71429,84.28571 -25.2473,0 -45.71429,-37.736 -45.71429,-84.28571 0,-46.54971 20.46699,-84.28571 45.71429,-84.28571 21.86383,0 40.6669,28.54387 44.86406,68.10556"
           sodipodi:start="0"
           sodipodi:end="6.0900184"
           sodipodi:open="true"
           transform="matrix(-0.66952916,0.01539325,-0.04566812,-0.66774262,-1807.6185,1370.6446)"
           inkscape:transform-center-x="-0.25261687"
           inkscape:transform-center-y="14.211091" />
        <path
           sodipodi:type="arc"
           style="opacity:0.59080003;fill:#4d4d4d;fill-opacity:1;stroke:none"
           id="path3848-2-9-2-9-3-5-2-6-5-6"
           sodipodi:cx="-410"
           sodipodi:cy="263.79074"
           sodipodi:rx="45.714287"
           sodipodi:ry="84.285713"
           d="m -364.28571,263.79074 c 0,46.54971 -20.46699,84.28571 -45.71429,84.28571 -25.2473,0 -45.71429,-37.736 -45.71429,-84.28571 0,-46.54971 20.46699,-84.28571 45.71429,-84.28571 21.86383,0 40.6669,28.54387 44.86406,68.10556"
           sodipodi:start="0"
           sodipodi:end="6.0900184"
           sodipodi:open="true"
           transform="matrix(-0.49396663,-0.45222032,0.42912941,-0.513628,-1782.467,941.68718)"
           inkscape:transform-center-x="9.6498688"
           inkscape:transform-center-y="10.433442" />
        <path
           sodipodi:type="arc"
           style="opacity:0.59080003;fill:#4d4d4d;fill-opacity:1;stroke:none"
           id="path3848-2-9-2-9-8-7-7-9-5-7"
           sodipodi:cx="-410"
           sodipodi:cy="263.79074"
           sodipodi:rx="45.714287"
           sodipodi:ry="84.285713"
           d="m -364.28571,263.79074 c 0,46.54971 -20.46699,84.28571 -45.71429,84.28571 -25.2473,0 -45.71429,-37.736 -45.71429,-84.28571 0,-46.54971 20.46699,-84.28571 45.71429,-84.28571 21.86383,0 40.6669,28.54387 44.86406,68.10556"
           sodipodi:start="0"
           sodipodi:end="6.0900184"
           sodipodi:open="true"
           transform="matrix(-0.41187846,0.52807421,-0.54585438,-0.38730967,-1486.8923,1467.7353)"
           inkscape:transform-center-x="-11.16174"
           inkscape:transform-center-y="8.7985371" />
        <path
           sodipodi:type="arc"
           style="opacity:0.59080003;fill:#4d4d4d;fill-opacity:1;stroke:none"
           id="path3848-2-9-2-9-8-4-6-0-4-2-2"
           sodipodi:cx="-410"
           sodipodi:cy="263.79074"
           sodipodi:rx="45.714287"
           sodipodi:ry="84.285713"
           d="m -364.28571,263.79074 c 0,46.54971 -20.46699,84.28571 -45.71429,84.28571 -25.2473,0 -45.71429,-37.736 -45.71429,-84.28571 0,-46.54971 20.46699,-84.28571 45.71429,-84.28571 21.86383,0 40.6669,28.54387 44.86406,68.10556"
           sodipodi:start="0"
           sodipodi:end="6.0900184"
           sodipodi:open="true"
           transform="matrix(-0.0676758,0.66627789,-0.66825598,-0.03741284,-1286.6088,1358.9223)"
           inkscape:transform-center-x="-14.132917"
           inkscape:transform-center-y="1.4468098" />
      </g>
    </g>
    <path
       sodipodi:type="arc"
       style="opacity:0.59080003;fill:#aad400;fill-opacity:1;stroke:none"
       id="path3848-2-9-2-9-8-4-6-3-9-5-3"
       sodipodi:cx="-410"
       sodipodi:cy="263.79074"
       sodipodi:rx="45.714287"
       sodipodi:ry="84.285713"
       d="m -364.28571,263.79074 c 0,46.54971 -20.46699,84.28571 -45.71429,84.28571 -25.2473,0 -45.71429,-37.736 -45.71429,-84.28571 0,-46.54971 20.46699,-84.28571 45.71429,-84.28571 25.2473,0 45.71429,37.736 45.71429,84.28571 z"
       transform="matrix(-0.07382585,0.66627789,-0.7289839,-0.03741284,-2246.0407,2255.8847)"
       inkscape:transform-center-x="-15.417242"
       inkscape:transform-center-y="1.4467684" />
    <path
       transform="matrix(0.66916078,0,0,0.66916078,-2008.0123,1687.3626)"
       sodipodi:type="arc"
       style="fill:#4d4d4d;fill-opacity:0.59215686;stroke:none"
       id="path3846-7-4-3-2-5-0"
       sodipodi:cx="-425.71429"
       sodipodi:cy="420.93362"
       sodipodi:rx="62.857143"
       sodipodi:ry="62.857143"
       d="m -362.85715,420.93362 c 0,34.71505 -28.1421,62.85715 -62.85714,62.85715 -34.71505,0 -62.85715,-28.1421 -62.85715,-62.85715 0,-34.71504 28.1421,-62.85714 62.85715,-62.85714 30.06277,0 55.91699,21.28695 61.68807,50.79059"
       sodipodi:start="0"
       sodipodi:end="6.0900184"
       sodipodi:open="true" />
    <path
       sodipodi:type="arc"
       style="opacity:0.59080003;fill:#4d4d4d;fill-opacity:1;stroke:none"
       id="path3848-7-6-4-3-5-73"
       sodipodi:cx="-410"
       sodipodi:cy="263.79074"
       sodipodi:rx="45.714287"
       sodipodi:ry="84.285713"
       d="m -364.28571,263.79074 c 0,46.54971 -20.46699,84.28571 -45.71429,84.28571 -25.2473,0 -45.71429,-37.736 -45.71429,-84.28571 0,-46.54971 20.46699,-84.28571 45.71429,-84.28571 21.86383,0 40.6669,28.54387 44.86406,68.10556"
       sodipodi:start="0"
       sodipodi:end="6.0900184"
       sodipodi:open="true"
       transform="matrix(0.66916078,0,0,0.66916078,-2020.4395,1683.5388)" />
    <path
       sodipodi:type="arc"
       style="opacity:0.59080003;fill:#4d4d4d;stroke:#917c6f"
       id="path3848-2-6-2-8-5-3-5"
       sodipodi:cx="-410"
       sodipodi:cy="263.79074"
       sodipodi:rx="45.714287"
       sodipodi:ry="84.285713"
       d="m -364.28571,263.79074 c 0,46.54971 -20.46699,84.28571 -45.71429,84.28571 -25.2473,0 -45.71429,-37.736 -45.71429,-84.28571 0,-46.54971 20.46699,-84.28571 45.71429,-84.28571 21.86383,0 40.6669,28.54387 44.86406,68.10556"
       sodipodi:start="0"
       sodipodi:end="6.0900184"
       sodipodi:open="true"
       transform="matrix(0.54569345,-0.38729164,0.38729164,0.54569345,-2252.4044,1584.2492)" />
    <path
       sodipodi:type="arc"
       style="opacity:0.59080003;fill:#4d4d4d;fill-opacity:1;stroke:none"
       id="path3848-2-9-2-2-5-3-2-2-49"
       sodipodi:cx="-410"
       sodipodi:cy="263.79074"
       sodipodi:rx="45.714287"
       sodipodi:ry="84.285713"
       d="m -364.28571,263.79074 c 0,46.54971 -20.46699,84.28571 -45.71429,84.28571 -25.2473,0 -45.71429,-37.736 -45.71429,-84.28571 0,-46.54971 20.46699,-84.28571 45.71429,-84.28571 21.86383,0 40.6669,28.54387 44.86406,68.10556"
       sodipodi:start="0"
       sodipodi:end="6.0900184"
       sodipodi:open="true"
       transform="matrix(-0.40836126,-0.53079875,0.51145405,-0.43171811,-2677.4761,1946.4839)"
       inkscape:transform-center-x="11.306638"
       inkscape:transform-center-y="8.6079444" />
    <path
       sodipodi:type="arc"
       style="opacity:0.59080003;fill:#4d4d4d;fill-opacity:1;stroke:none"
       id="path3848-2-9-2-9-38-6-9-1-8-41"
       sodipodi:cx="-410"
       sodipodi:cy="263.79074"
       sodipodi:rx="45.714287"
       sodipodi:ry="84.285713"
       d="m -364.28571,263.79074 c 0,46.54971 -20.46699,84.28571 -45.71429,84.28571 -25.2473,0 -45.71429,-37.736 -45.71429,-84.28571 0,-46.54971 20.46699,-84.28571 45.71429,-84.28571 21.86383,0 40.6669,28.54387 44.86406,68.10556"
       sodipodi:start="0"
       sodipodi:end="6.0900184"
       sodipodi:open="true"
       transform="matrix(-0.66952916,0.01539325,-0.04566812,-0.66774262,-2550.708,2261.5235)"
       inkscape:transform-center-x="-0.25261687"
       inkscape:transform-center-y="14.211091" />
    <path
       sodipodi:type="arc"
       style="opacity:0.59080003;fill:#4d4d4d;fill-opacity:1;stroke:none"
       id="path3848-2-9-2-9-3-5-2-6-5-6-8"
       sodipodi:cx="-410"
       sodipodi:cy="263.79074"
       sodipodi:rx="45.714287"
       sodipodi:ry="84.285713"
       d="m -364.28571,263.79074 c 0,46.54971 -20.46699,84.28571 -45.71429,84.28571 -25.2473,0 -45.71429,-37.736 -45.71429,-84.28571 0,-46.54971 20.46699,-84.28571 45.71429,-84.28571 21.86383,0 40.6669,28.54387 44.86406,68.10556"
       sodipodi:start="0"
       sodipodi:end="6.0900184"
       sodipodi:open="true"
       transform="matrix(-0.49396663,-0.45222032,0.42912941,-0.513628,-2525.5565,1832.5661)"
       inkscape:transform-center-x="9.6498688"
       inkscape:transform-center-y="10.433442" />
    <path
       sodipodi:type="arc"
       style="opacity:0.59080003;fill:#4d4d4d;fill-opacity:1;stroke:none"
       id="path3848-2-9-2-9-8-7-7-9-5-7-6"
       sodipodi:cx="-410"
       sodipodi:cy="263.79074"
       sodipodi:rx="45.714287"
       sodipodi:ry="84.285713"
       d="m -364.28571,263.79074 c 0,46.54971 -20.46699,84.28571 -45.71429,84.28571 -25.2473,0 -45.71429,-37.736 -45.71429,-84.28571 0,-46.54971 20.46699,-84.28571 45.71429,-84.28571 21.86383,0 40.6669,28.54387 44.86406,68.10556"
       sodipodi:start="0"
       sodipodi:end="6.0900184"
       sodipodi:open="true"
       transform="matrix(-0.41187846,0.52807421,-0.54585438,-0.38730967,-2229.9818,2358.6142)"
       inkscape:transform-center-x="-11.16174"
       inkscape:transform-center-y="8.7985371" />
    <path
       sodipodi:type="arc"
       style="opacity:0.59080003;fill:#4d4d4d;fill-opacity:1;stroke:none"
       id="path3848-2-9-2-9-8-4-6-0-4-2-2-1"
       sodipodi:cx="-410"
       sodipodi:cy="263.79074"
       sodipodi:rx="45.714287"
       sodipodi:ry="84.285713"
       d="m -364.28571,263.79074 c 0,46.54971 -20.46699,84.28571 -45.71429,84.28571 -25.2473,0 -45.71429,-37.736 -45.71429,-84.28571 0,-46.54971 20.46699,-84.28571 45.71429,-84.28571 21.86383,0 40.6669,28.54387 44.86406,68.10556"
       sodipodi:start="0"
       sodipodi:end="6.0900184"
       sodipodi:open="true"
       transform="matrix(-0.0676758,0.66627789,-0.66825598,-0.03741284,-2029.6983,2249.8012)"
       inkscape:transform-center-x="-14.132917"
       inkscape:transform-center-y="1.4468098" />
    <path
       style="opacity:0.59080003;fill:#4d4d4d;fill-opacity:1;stroke:none"
       d="m -2407.1562,1942.5312 0,61.0313 c 0.1667,0.01 0.3327,0.022 0.5,0.031 l 10.875,0.031 c 26.7213,-1.3164 47.0515,-12.7764 48.5312,-27.3438 1.7086,-16.8217 -22.1116,-31.8521 -53.2188,-33.5937 -2.2539,-0.1262 -4.4886,-0.1731 -6.6874,-0.1563 z"
       id="path3848-2-9-2-9-8-4-6-0-4-2-2-1-8"
       inkscape:connector-curvature="0" />
    <path
       sodipodi:type="arc"
       style="opacity:0.59080003;fill:#aad400;fill-opacity:1;stroke:none"
       id="path3848-2-9-2-9-8-4-6-3-9-5-3-4"
       sodipodi:cx="-410"
       sodipodi:cy="263.79074"
       sodipodi:rx="45.714287"
       sodipodi:ry="84.285713"
       d="m -364.28571,263.79074 c 0,46.54971 -20.46699,84.28571 -45.71429,84.28571 -25.2473,0 -45.71429,-37.736 -45.71429,-84.28571 0,-46.54971 20.46699,-84.28571 45.71429,-84.28571 25.2473,0 45.71429,37.736 45.71429,84.28571 z"
       transform="matrix(-0.07382585,0.66627789,-0.7289839,-0.03741284,-1823.1835,2254.4561)"
       inkscape:transform-center-x="-15.417242"
       inkscape:transform-center-y="1.4467684" />
    <path
       transform="matrix(0.66916078,0,0,0.66916078,-1585.1551,1685.934)"
       sodipodi:type="arc"
       style="fill:#4d4d4d;fill-opacity:0.59215686;stroke:none"
       id="path3846-7-4-3-2-5-0-2"
       sodipodi:cx="-425.71429"
       sodipodi:cy="420.93362"
       sodipodi:rx="62.857143"
       sodipodi:ry="62.857143"
       d="m -362.85715,420.93362 c 0,34.71505 -28.1421,62.85715 -62.85714,62.85715 -34.71505,0 -62.85715,-28.1421 -62.85715,-62.85715 0,-34.71504 28.1421,-62.85714 62.85715,-62.85714 30.06277,0 55.91699,21.28695 61.68807,50.79059"
       sodipodi:start="0"
       sodipodi:end="6.0900184"
       sodipodi:open="true" />
    <path
       sodipodi:type="arc"
       style="opacity:0.59080003;fill:#4d4d4d;fill-opacity:1;stroke:none"
       id="path3848-7-6-4-3-5-73-5"
       sodipodi:cx="-410"
       sodipodi:cy="263.79074"
       sodipodi:rx="45.714287"
       sodipodi:ry="84.285713"
       d="m -364.28571,263.79074 c 0,46.54971 -20.46699,84.28571 -45.71429,84.28571 -25.2473,0 -45.71429,-37.736 -45.71429,-84.28571 0,-46.54971 20.46699,-84.28571 45.71429,-84.28571 21.86383,0 40.6669,28.54387 44.86406,68.10556"
       sodipodi:start="0"
       sodipodi:end="6.0900184"
       sodipodi:open="true"
       transform="matrix(0.66916078,0,0,0.66916078,-1597.5823,1682.1102)" />
    <path
       sodipodi:type="arc"
       style="opacity:0.59080003;fill:#4d4d4d;stroke:#917c6f"
       id="path3848-2-6-2-8-5-3-5-3"
       sodipodi:cx="-410"
       sodipodi:cy="263.79074"
       sodipodi:rx="45.714287"
       sodipodi:ry="84.285713"
       d="m -364.28571,263.79074 c 0,46.54971 -20.46699,84.28571 -45.71429,84.28571 -25.2473,0 -45.71429,-37.736 -45.71429,-84.28571 0,-46.54971 20.46699,-84.28571 45.71429,-84.28571 21.86383,0 40.6669,28.54387 44.86406,68.10556"
       sodipodi:start="0"
       sodipodi:end="6.0900184"
       sodipodi:open="true"
       transform="matrix(0.54569345,-0.38729164,0.38729164,0.54569345,-1829.5472,1582.8206)" />
    <path
       sodipodi:type="arc"
       style="opacity:0.59080003;fill:#4d4d4d;fill-opacity:1;stroke:none"
       id="path3848-2-9-2-2-5-3-2-2-49-0"
       sodipodi:cx="-410"
       sodipodi:cy="263.79074"
       sodipodi:rx="45.714287"
       sodipodi:ry="84.285713"
       d="m -364.28571,263.79074 c 0,46.54971 -20.46699,84.28571 -45.71429,84.28571 -25.2473,0 -45.71429,-37.736 -45.71429,-84.28571 0,-46.54971 20.46699,-84.28571 45.71429,-84.28571 21.86383,0 40.6669,28.54387 44.86406,68.10556"
       sodipodi:start="0"
       sodipodi:end="6.0900184"
       sodipodi:open="true"
       transform="matrix(-0.40836126,-0.53079875,0.51145405,-0.43171811,-2254.6189,1945.0553)"
       inkscape:transform-center-x="11.306638"
       inkscape:transform-center-y="8.6079444" />
    <path
       sodipodi:type="arc"
       style="opacity:0.59080003;fill:#4d4d4d;fill-opacity:1;stroke:none"
       id="path3848-2-9-2-9-38-6-9-1-8-41-2"
       sodipodi:cx="-410"
       sodipodi:cy="263.79074"
       sodipodi:rx="45.714287"
       sodipodi:ry="84.285713"
       d="m -364.28571,263.79074 c 0,46.54971 -20.46699,84.28571 -45.71429,84.28571 -25.2473,0 -45.71429,-37.736 -45.71429,-84.28571 0,-46.54971 20.46699,-84.28571 45.71429,-84.28571 21.86383,0 40.6669,28.54387 44.86406,68.10556"
       sodipodi:start="0"
       sodipodi:end="6.0900184"
       sodipodi:open="true"
       transform="matrix(-0.66952916,0.01539325,-0.04566812,-0.66774262,-2127.8508,2260.0949)"
       inkscape:transform-center-x="-0.25261687"
       inkscape:transform-center-y="14.211091" />
    <path
       sodipodi:type="arc"
       style="opacity:0.59080003;fill:#4d4d4d;fill-opacity:1;stroke:none"
       id="path3848-2-9-2-9-3-5-2-6-5-6-8-8"
       sodipodi:cx="-410"
       sodipodi:cy="263.79074"
       sodipodi:rx="45.714287"
       sodipodi:ry="84.285713"
       d="m -364.28571,263.79074 c 0,46.54971 -20.46699,84.28571 -45.71429,84.28571 -25.2473,0 -45.71429,-37.736 -45.71429,-84.28571 0,-46.54971 20.46699,-84.28571 45.71429,-84.28571 21.86383,0 40.6669,28.54387 44.86406,68.10556"
       sodipodi:start="0"
       sodipodi:end="6.0900184"
       sodipodi:open="true"
       transform="matrix(-0.49396663,-0.45222032,0.42912941,-0.513628,-2102.6993,1831.1375)"
       inkscape:transform-center-x="9.6498688"
       inkscape:transform-center-y="10.433442" />
    <path
       sodipodi:type="arc"
       style="opacity:0.59080003;fill:#4d4d4d;fill-opacity:1;stroke:none"
       id="path3848-2-9-2-9-8-7-7-9-5-7-6-6"
       sodipodi:cx="-410"
       sodipodi:cy="263.79074"
       sodipodi:rx="45.714287"
       sodipodi:ry="84.285713"
       d="m -364.28571,263.79074 c 0,46.54971 -20.46699,84.28571 -45.71429,84.28571 -25.2473,0 -45.71429,-37.736 -45.71429,-84.28571 0,-46.54971 20.46699,-84.28571 45.71429,-84.28571 21.86383,0 40.6669,28.54387 44.86406,68.10556"
       sodipodi:start="0"
       sodipodi:end="6.0900184"
       sodipodi:open="true"
       transform="matrix(-0.41187846,0.52807421,-0.54585438,-0.38730967,-1807.1246,2357.1856)"
       inkscape:transform-center-x="-11.16174"
       inkscape:transform-center-y="8.7985371" />
    <path
       sodipodi:type="arc"
       style="opacity:0.59080003;fill:#4d4d4d;fill-opacity:1;stroke:none"
       id="path3848-2-9-2-9-8-4-6-0-4-2-2-1-6"
       sodipodi:cx="-410"
       sodipodi:cy="263.79074"
       sodipodi:rx="45.714287"
       sodipodi:ry="84.285713"
       d="m -364.28571,263.79074 c 0,46.54971 -20.46699,84.28571 -45.71429,84.28571 -25.2473,0 -45.71429,-37.736 -45.71429,-84.28571 0,-46.54971 20.46699,-84.28571 45.71429,-84.28571 21.86383,0 40.6669,28.54387 44.86406,68.10556"
       sodipodi:start="0"
       sodipodi:end="6.0900184"
       sodipodi:open="true"
       transform="matrix(-0.0676758,0.66627789,-0.66825598,-0.03741284,-1606.8411,2248.3726)"
       inkscape:transform-center-x="-14.132917"
       inkscape:transform-center-y="1.4468098" />
    <path
       style="opacity:0.59080003;fill:#4d4d4d;fill-opacity:1;stroke:none"
       d="m -1952.1562,1946.0938 0,52.75 c 15.9136,-4.6472 26.6864,-13.5297 27.75,-24 1.1977,-11.7926 -10.1404,-22.6793 -27.75,-28.75 z"
       id="path3848-2-9-2-9-8-4-6-0-4-2-2-1-8-2"
       inkscape:connector-curvature="0" />
    <g
       style="font-size:160.8941803px;font-style:normal;font-variant:normal;font-weight:normal;font-stretch:normal;line-height:125%;letter-spacing:0px;word-spacing:0px;fill:#000000;fill-opacity:1;stroke:none;font-family:Nanosecond Thick BRK;-inkscape-font-specification:Nanosecond Thick BRK"
       id="text3978-1-6-2"
       transform="matrix(1.8494298,0,0,1.8494298,-207.45938,-1600.0336)">
      <path
         inkscape:connector-curvature="0"
         d="m -2901.2441,1188.305 c 0,-3.3251 -0.8045,-6.2212 -2.4134,-8.6883 -2.5743,-3.8614 -6.6503,-5.7921 -12.228,-5.7922 -5.4704,10e-5 -9.4391,1.8772 -11.9061,5.6313 -1.7162,2.4671 -2.5744,5.4169 -2.5743,8.8492 l 0,47.4638 c -1e-4,3.5397 0.8044,6.4894 2.4134,8.8491 2.3597,3.8615 6.3821,5.7923 12.067,5.7922 5.5777,10e-5 9.6,-1.877 12.0671,-5.6313 1.7162,-2.467 2.5743,-5.4703 2.5743,-9.01 0,-2.467 0.8581,-4.6123 2.5743,-6.4358 1.7162,-1.8234 3.9151,-2.7352 6.5967,-2.7352 2.467,0 4.6122,0.9118 6.4358,2.7352 1.8234,1.8235 2.7351,4.0224 2.7352,6.5967 -1e-4,8.0447 -2.4135,15.124 -7.2403,21.238 -6.114,7.7229 -14.695,11.5844 -25.7431,11.5844 -10.9408,0 -19.4682,-3.8078 -25.5821,-11.4235 -4.9341,-6.2212 -7.4012,-13.3542 -7.4012,-21.3989 l 0,-47.6247 c 0,-7.9374 2.4671,-15.0167 7.4012,-21.238 6.1139,-7.7229 14.6413,-11.5843 25.5821,-11.5844 11.0481,10e-5 19.5755,3.8079 25.5822,11.4235 4.934,6.2213 7.4011,13.3543 7.4012,21.3989 -1e-4,2.5744 -0.8582,4.7733 -2.5744,6.5966 -1.7162,1.8236 -3.9151,2.7353 -6.5966,2.7352 -2.4671,10e-5 -4.6124,-0.9116 -6.4358,-2.7352 -1.8235,-1.8233 -2.7352,-4.0222 -2.7352,-6.5966"
         id="path4918-4"
         style="fill:#000000" />
      <path
         inkscape:connector-curvature="0"
         d="m -2808.74,1235.9297 c -1e-4,8.0447 -2.4135,15.124 -7.2402,21.238 -6.1141,7.7229 -14.6951,11.5844 -25.7431,11.5844 -10.9408,0 -19.4682,-3.8078 -25.5822,-11.4235 -4.9341,-6.2212 -7.4011,-13.3542 -7.4011,-21.3989 0,-8.0447 2.467,-15.1777 7.4011,-21.399 6.114,-7.7228 14.6414,-11.5843 25.5822,-11.5843 11.048,0 19.5754,3.8078 25.5822,11.4234 4.934,6.2213 7.401,13.4079 7.4011,21.5599 m -18.3419,0 c -10e-5,-3.5397 -0.8045,-6.543 -2.4134,-9.0101 -2.4671,-3.7542 -6.5431,-5.6313 -12.228,-5.6313 -5.4704,0 -9.4391,1.8771 -11.9062,5.6313 -1.7162,2.4671 -2.5743,5.4704 -2.5743,9.0101 0,3.5397 0.8045,6.4894 2.4134,8.8491 2.4671,3.7543 6.4894,5.6314 12.0671,5.6313 5.5776,10e-5 9.6,-1.877 12.0671,-5.6313 1.7161,-2.467 2.5742,-5.4167 2.5743,-8.8491"
         id="path4920-2"
         style="fill:#000000" />
      <path
         inkscape:connector-curvature="0"
         d="m -2702.8817,1259.5811 c -1e-4,2.4671 -0.9118,4.6123 -2.7352,6.4358 -1.8235,1.8234 -3.9688,2.7352 -6.4357,2.7352 -2.5744,0 -4.7733,-0.8581 -6.5967,-2.5743 -1.8235,-1.7162 -2.7353,-3.9151 -2.7352,-6.5967 l 0,-23.6514 c -10e-5,-5.5777 -1.8772,-9.6 -5.6313,-12.0671 -2.4671,-1.7162 -5.4168,-2.5743 -8.8492,-2.5743 l -6.5966,0 0,38.2928 c -10e-5,2.4671 -0.9118,4.6123 -2.7352,6.4358 -1.8236,1.8234 -3.9688,2.7352 -6.4358,2.7352 -2.5744,0 -4.7732,-0.8581 -6.5967,-2.5743 -1.8235,-1.7162 -2.7352,-3.9151 -2.7352,-6.5967 l 0,-38.2928 -6.5966,0 c -5.5777,0 -9.6001,1.8771 -12.0671,5.6313 -1.609,2.4671 -2.4134,5.4704 -2.4134,9.0101 l 0,23.6514 c 0,2.4671 -0.9118,4.6123 -2.7352,6.4358 -1.8235,1.8234 -3.9687,2.7352 -6.4358,2.7352 -2.5743,0 -4.7732,-0.8581 -6.5966,-2.5743 -1.8235,-1.7162 -2.7352,-3.9151 -2.7352,-6.5967 l 0,-23.6514 c 0,-8.0447 2.467,-15.1777 7.4011,-21.399 6.114,-7.7228 14.6413,-11.5843 25.5822,-11.5843 l 7.8838,0 c 2.896,0 5.524,0.59 7.8838,1.7698 2.5743,-1.1798 5.2558,-1.7698 8.0447,-1.7698 l 7.8838,0 c 8.1519,0 15.2849,2.4134 21.399,7.2402 7.7228,6.114 11.5842,14.695 11.5843,25.7431 l 0,23.6514"
         id="path4922-1"
         style="fill:#000000" />
      <path
         inkscape:connector-curvature="0"
         d="m -2628.991,1235.9297 c -1e-4,10.9408 -3.8079,19.4145 -11.4235,25.4212 -6.2213,4.9341 -13.4079,7.4012 -21.5598,7.4012 l -14.4805,0 0,14.6413 c 0,2.4671 -0.8581,4.6123 -2.5743,6.4358 -1.7162,1.8235 -3.9151,2.7352 -6.5967,2.7352 -2.5743,0 -4.7732,-0.9117 -6.5966,-2.7352 -1.8235,-1.8235 -2.7352,-3.9687 -2.7352,-6.4358 l 0,-15.9285 c 0,-2.6815 0.6435,-5.3095 1.9307,-7.8838 -1.2872,-2.5743 -1.9307,-5.2022 -1.9307,-7.8838 l 0,-31.6962 c 0,-4.5049 1.448,-8.3664 4.3441,-11.5843 3.3252,-3.6469 7.6157,-5.4704 12.8716,-5.4704 l 15.7676,0 c 8.1519,0 15.2849,2.4134 21.3989,7.2402 7.7229,6.114 11.5843,14.695 11.5844,25.7431 m -18.3419,0 c -1e-4,-5.5777 -1.8772,-9.6 -5.6313,-12.0671 -2.4671,-1.7162 -5.4705,-2.5743 -9.0101,-2.5743 l -14.4805,0 0,29.1218 14.4805,0 c 3.4323,10e-5 6.3821,-0.8044 8.8492,-2.4134 3.8614,-2.3597 5.7921,-6.3821 5.7922,-12.067"
         id="path4924-0"
         style="fill:#000000" />
      <path
         inkscape:connector-curvature="0"
         d="m -2554.8288,1227.885 c -1e-4,2.7888 -0.5901,5.4704 -1.7699,8.0447 1.1798,2.6816 1.7698,5.3095 1.7699,7.8838 l 0,7.8838 c -1e-4,5.2559 -1.8236,9.4928 -5.4704,12.7106 -3.218,2.8961 -7.0794,4.3442 -11.5844,4.3442 l -23.8124,0 c -8.3665,0 -14.8559,-2.8961 -19.4682,-8.6883 -3.7542,-4.7196 -5.6313,-10.1363 -5.6313,-16.2503 0,-2.5743 0.4827,-4.8804 1.4481,-6.9185 0.9654,-2.1452 2.1989,-3.9687 3.7006,-5.4704 1.6089,-1.6089 3.4324,-2.7888 5.4704,-3.5396 2.1452,-0.8581 4.3441,-1.2872 6.5966,-1.2872 l 30.2481,0 c -0.3218,-2.3597 -1.2872,-3.915 -2.8961,-4.6659 -0.7509,-0.429 -1.9307,-0.6436 -3.5396,-0.6436 l -8.0447,0 c -2.4671,0 -4.6124,-0.8581 -6.4358,-2.5743 -1.8235,-1.7162 -2.7352,-3.9151 -2.7352,-6.5967 0,-2.467 0.9117,-4.6122 2.7352,-6.4357 1.8234,-1.8234 3.9687,-2.7352 6.4358,-2.7352 l 8.0447,0 c 8.1519,0 14.5876,2.8961 19.3073,8.6882 3.7541,4.7197 5.6312,10.1364 5.6313,16.2504 m -18.342,22.5251 0,-5.3095 -28.9609,0 c 0.3217,2.3598 1.2871,3.9151 2.8961,4.666 0.7508,0.429 1.9307,0.6436 3.5396,0.6435 l 22.5252,0"
         id="path4926-4"
         style="fill:#000000" />
      <path
         inkscape:connector-curvature="0"
         d="m -2480.9809,1212.1173 c -1e-4,2.5744 -0.9118,4.7733 -2.7352,6.5967 -1.7163,1.7162 -3.8616,2.5743 -6.4358,2.5743 l -23.8123,0 c -5.4705,0 -9.4392,1.8771 -11.9062,5.6313 -1.7162,2.4671 -2.5743,5.4704 -2.5743,9.0101 l 0,23.6514 c 0,2.5743 -0.9118,4.7732 -2.7352,6.5967 -1.7162,1.7162 -3.8615,2.5743 -6.4358,2.5743 -2.5743,0 -4.7732,-0.8581 -6.5967,-2.5743 -1.8234,-1.7162 -2.7352,-3.9151 -2.7352,-6.5967 l 0,-23.6514 c 0,-8.0447 2.4671,-15.1777 7.4012,-21.399 6.1139,-7.7228 14.6413,-11.5843 25.5822,-11.5843 l 23.8123,0 c 2.5742,0 4.7195,0.9118 6.4358,2.7352 1.8234,1.7162 2.7351,3.8615 2.7352,6.4357"
         id="path4928-9"
         style="fill:#000000" />
      <path
         inkscape:connector-curvature="0"
         d="m -2406.8188,1212.1173 c 0,2.5744 -0.9118,4.7733 -2.7352,6.5967 -1.7162,1.7162 -3.8615,2.5743 -6.4357,2.5743 l -14.4805,0 0,38.2928 c -10e-5,2.4671 -0.9118,4.6123 -2.7352,6.4358 -1.8235,1.8234 -4.0224,2.7352 -6.5967,2.7352 -2.4671,0 -4.6123,-0.8581 -6.4357,-2.5743 -1.8235,-1.7162 -2.7353,-3.9151 -2.7352,-6.5967 l 0,-38.2928 -14.4805,0 c -2.5743,0 -4.7732,-0.8581 -6.5967,-2.5743 -1.8235,-1.7162 -2.7352,-3.9151 -2.7352,-6.5967 0,-2.467 0.9117,-4.6122 2.7352,-6.4357 1.8235,-1.8234 4.0224,-2.7352 6.5967,-2.7352 l 14.4805,0 0,-14.6414 c -1e-4,-2.467 0.9117,-4.6122 2.7352,-6.4358 1.8234,-1.8234 3.9686,-2.7351 6.4357,-2.7352 2.5743,10e-5 4.7732,0.9118 6.5967,2.7352 1.8234,1.8236 2.7351,3.9688 2.7352,6.4358 l 0,14.6414 14.4805,0 c 2.5742,0 4.7195,0.9118 6.4357,2.7352 1.8234,1.7162 2.7352,3.8615 2.7352,6.4357"
         id="path4930-5"
         style="fill:#000000" />
      <path
         inkscape:connector-curvature="0"
         d="m -2380.2813,1259.5811 c 0,2.5743 -0.9117,4.7732 -2.7352,6.5967 -1.7162,1.7162 -3.8615,2.5743 -6.4357,2.5743 -2.5744,0 -4.7732,-0.8581 -6.5967,-2.5743 -1.7162,-1.8235 -2.5743,-4.0224 -2.5743,-6.5967 l 0,-47.4638 c 0,-2.5742 0.8581,-4.7195 2.5743,-6.4357 1.8235,-1.8234 4.0223,-2.7352 6.5967,-2.7352 2.5742,0 4.7195,0.9118 6.4357,2.7352 1.8235,1.7162 2.7352,3.8615 2.7352,6.4357 l 0,47.4638 m 0,-71.2761 c 0,2.5744 -0.8581,4.7733 -2.5743,6.5966 -1.7162,1.8236 -3.9151,2.7353 -6.5966,2.7352 -2.4671,10e-5 -4.6124,-0.9116 -6.4358,-2.7352 -1.8235,-1.8233 -2.7352,-4.0222 -2.7352,-6.5966 0,-2.467 0.8581,-4.6122 2.5743,-6.4358 1.7162,-1.8234 3.9151,-2.7351 6.5967,-2.7352 2.467,10e-5 4.6122,0.9118 6.4357,2.7352 1.8235,1.8236 2.7352,3.9688 2.7352,6.4358"
         id="path4932-9"
         style="fill:#000000" />
      <path
         inkscape:connector-curvature="0"
         d="m -2306.2599,1212.1173 c -1e-4,2.5744 -0.9118,4.7733 -2.7352,6.5967 -1.7163,1.7162 -3.8616,2.5743 -6.4358,2.5743 l -23.8123,0 c -5.4705,0 -9.4392,1.8771 -11.9062,5.6313 -1.7162,2.4671 -2.5743,5.4704 -2.5743,9.0101 l 0,23.6514 c 0,2.5743 -0.9118,4.7732 -2.7352,6.5967 -1.7162,1.7162 -3.8615,2.5743 -6.4358,2.5743 -2.5743,0 -4.7732,-0.8581 -6.5966,-2.5743 -1.8235,-1.7162 -2.7353,-3.9151 -2.7352,-6.5967 l 0,-23.6514 c -10e-5,-8.0447 2.467,-15.1777 7.4011,-21.399 6.1139,-7.7228 14.6413,-11.5843 25.5822,-11.5843 l 23.8123,0 c 2.5742,0 4.7195,0.9118 6.4358,2.7352 1.8234,1.7162 2.7351,3.8615 2.7352,6.4357"
         id="path4934-9"
         style="fill:#000000" />
    </g>
    <g
       transform="matrix(1.3484692,0,0,1.3484692,-313.17104,16.333003)"
       id="g5533">
      <path
         inkscape:transform-center-y="0.40804511"
         inkscape:transform-center-x="-4.3482126"
         transform="matrix(-0.15557379,0.15208589,-0.17531776,-0.15932956,-851.95869,-66.487157)"
         d="m -364.28571,263.79074 c 0,46.54971 -20.46699,84.28571 -45.71429,84.28571 -25.2473,0 -45.71429,-37.736 -45.71429,-84.28571 0,-46.54971 20.46699,-84.28571 45.71429,-84.28571 25.2473,0 45.71429,37.736 45.71429,84.28571 z"
         sodipodi:ry="84.285713"
         sodipodi:rx="45.714287"
         sodipodi:cy="263.79074"
         sodipodi:cx="-410"
         id="path3848-2-9-2-9-8-4-6-3-9-5-0-8-7-0-1"
         style="fill:#c3f400;fill-opacity:1;stroke:none"
         sodipodi:type="arc" />
      <path
         id="path3846-7-4-3-2-5-5-1-0-9-6"
         d="m -802.59529,-200.13534 c -5.2669,0.12659 -9.9894,7.8154 -10.6662,17.58548 -0.6985,10.08524 3.1735,18.58583 8.6433,18.96473 5.47,0.37891 10.4735,-7.50024 11.172,-17.58548 l 0.069,-3.51709 c -0.3157,-8.63425 -3.9754,-15.09653 -8.7123,-15.42465 -0.1709,-0.0118 -0.3359,-0.0271 -0.5058,-0.023 z m 32.3665,12.29834 c -4.5174,-0.10868 -10.5735,3.35296 -15.3786,9.21801 -6.4068,7.82008 -8.1723,16.96109 -3.9309,20.43594 4.2415,3.47485 12.8798,-0.0416 19.2866,-7.86174 l 2.0918,-2.82747 c 4.7399,-7.2238 5.5121,-14.59929 1.839,-17.60847 -1.0603,-0.86872 -2.402,-1.32004 -3.9079,-1.35627 z m 13.011,28.20573 c -1.7309,0.0348 -3.5397,0.2196 -5.4021,0.57469 l -3.4251,0.82755 c -8.3115,2.51247 -13.8266,7.73272 -13.1489,12.43627 0.7826,5.43144 9.4689,8.28438 19.4015,6.39054 9.9326,-1.89383 17.3566,-7.83238 16.574,-13.26382 -0.6359,-4.41304 -6.4989,-7.11594 -13.9994,-6.96523 z m -42.6879,1.40224 c -3.9335,0.014 -7.8408,1.70785 -10.5283,4.9883 -4.7779,5.83193 -3.9009,14.43968 1.931,19.2176 5.8318,4.77793 14.4166,3.92396 19.1945,-1.90797 l 1.4713,-2.18381 c 3.0911,-5.75073 1.6712,-12.89616 -3.3792,-17.03378 -2.5515,-2.09034 -5.6298,-3.0913 -8.6893,-3.08034 z m -37.01,7.19511 -3.5171,0.22987 c -8.6206,1.03796 -14.9343,5.20371 -15.0798,9.95362 -0.168,5.48496 7.8889,9.82616 17.9993,9.67776 10.1104,-0.14841 18.4518,-4.72151 18.6199,-10.20648 0.1681,-5.48496 -7.9119,-9.80318 -18.0223,-9.65477 z m 57.7908,15.24075 c -2.0362,0.0407 -3.773,0.6291 -4.9884,1.839 -3.8887,3.8717 -0.9917,12.56618 6.4596,19.40149 l 2.7125,2.22979 c 6.9792,5.16557 14.4477,6.47914 17.8153,3.12631 3.8889,-3.87169 1.0149,-12.54319 -6.4365,-19.3785 -5.1226,-4.69928 -11.0829,-7.30757 -15.5625,-7.21809 z m -35.4699,3.65502 c -4.4203,0.0692 -10.1795,3.84201 -14.5741,10.02257 l -1.885,2.96539 c -4.261,7.56541 -4.6407,15.14187 -0.8964,18.06822 4.3236,3.3792 12.5995,-0.56349 18.4589,-8.80424 5.8596,-8.24075 7.0823,-17.6544 2.7585,-21.0336 -1.0808,-0.8448 -2.3884,-1.24138 -3.8619,-1.21834 z m 18.3671,5.63195 c -0.3423,0.0132 -0.6768,0.0394 -1.0114,0.11494 -5.3528,1.20831 -7.5213,10.1088 -4.8504,19.86123 l 1.1034,3.3332 c 3.1597,8.08754 8.7892,13.18382 13.4247,12.13744 5.3529,-1.20832 7.5213,-10.10882 4.8504,-19.86126 -2.5038,-9.1429 -8.3817,-15.7845 -13.5167,-15.58555 z"
         style="fill:#1babcf;fill-opacity:1;stroke:none"
         inkscape:connector-curvature="0" />
      <path
         inkscape:connector-curvature="0"
         id="path3848-2-9-2-9-8-4-6-3-9-5-0-6-4-3-6-0"
         d="m -866.13289,-253.46646 c -5.0892,0.20433 -10.0787,7.35679 -11.4478,16.73493 -1.4604,10.00336 1.7695,18.74731 7.1951,19.53943 5.4256,0.79211 10.9988,-6.66262 12.4593,-16.66598 l 0.3218,-3.5171 c 0.3392,-8.63334 -2.7955,-15.35935 -7.494,-16.0453 -0.3391,-0.0495 -0.6951,-0.0596 -1.0344,-0.046 z m 30.6885,14.68904 c -4.3789,0.1051 -10.0738,3.01839 -14.873,8.04565 -6.9808,7.31236 -9.4141,16.30501 -5.4481,20.09112 3.9661,3.78611 12.8348,0.94481 19.8154,-6.36755 l 2.2987,-2.68955 c 5.2734,-6.84404 6.6067,-14.14584 3.1723,-17.42457 -1.2395,-1.18316 -2.9749,-1.70287 -4.9653,-1.6551 z m -69.2156,0.13793 c -1.6056,0.0307 -2.994,0.47345 -4.0458,1.35626 -4.2075,3.53124 -1.4842,12.88214 6.0916,20.89569 7.5759,8.01355 17.1251,11.64584 21.3325,8.11461 4.2073,-3.53124 1.4841,-12.88214 -6.0917,-20.89569 -5.6818,-6.01017 -12.47,-9.56302 -17.2866,-9.47087 z m 37.2398,27.12531 c -3.4927,0.0811 -6.9599,1.50306 -9.5628,4.22971 -5.2059,5.4533 -4.9936,14.08066 0.4598,19.28656 5.4532,5.20591 14.0806,5.01653 19.2865,-0.43676 l 1.6321,-2.06888 c 3.5178,-5.50009 2.6536,-12.73242 -2.0688,-17.24067 -2.7267,-2.60296 -6.2541,-3.85102 -9.7468,-3.76996 z m 42.2283,1.81602 c -1.1933,0.002 -2.4222,0.0649 -3.678,0.20689 l -3.4941,0.59767 c -8.4778,1.87575 -14.3652,6.63746 -14.0456,11.37884 0.3692,5.47512 8.8253,8.99785 18.8729,7.86175 10.0475,-1.13611 17.8854,-6.50141 17.5166,-11.97652 -0.323,-4.79072 -6.8194,-8.08162 -15.1718,-8.06863 z m -81.8818,2.55162 c -8.6745,0.38205 -15.3106,4.07899 -15.8155,8.80423 -0.583,5.45649 7.148,10.37026 17.2407,10.98805 10.0927,0.61779 18.7266,-3.30177 19.3095,-8.75826 0.583,-5.45648 -7.125,-10.39325 -17.2176,-11.01104 l -3.5171,-0.023 z m 23.7691,20.57386 c -4.3521,0.0295 -10.064,3.30914 -14.712,8.89618 l -2.1149,2.80448 c -4.8219,7.22095 -5.7646,14.75176 -2.2528,17.95329 4.0553,3.69696 12.5899,0.39427 19.0567,-7.37901 6.4668,-7.77328 8.423,-17.08378 4.3677,-20.78075 -1.1407,-1.03977 -2.6417,-1.50573 -4.3447,-1.49419 z m 17.9533,6.98822 c -0.1677,0.0126 -0.3361,0.044 -0.5057,0.0689 -5.4291,0.79942 -8.2691,9.49777 -6.3446,19.42449 l 0.8505,3.42514 c 2.5381,8.30363 7.7578,13.7952 12.4593,13.10291 5.4289,-0.79942 8.2692,-9.49777 6.3445,-19.42449 -1.8042,-9.30629 -7.163,-16.40647 -12.2983,-16.59701 -0.1712,-0.007 -0.338,-0.0126 -0.5057,0 z"
         style="fill:#a449ad;fill-opacity:1;stroke:none" />
      <path
         sodipodi:nodetypes="ccc"
         inkscape:connector-curvature="0"
         id="path4946-3-8-4-08"
         d="m -887.46039,-198.50553 c -7.54431,-0.4492 -19.55963,1.1483 -35.0016,-0.35244 4.533,-10.44185 30.0155,-11.52255 35.0016,0.35244 z"
         style="fill:#86338d;fill-opacity:1;stroke:none" />
      <path
         sodipodi:nodetypes="ccc"
         inkscape:connector-curvature="0"
         id="path4946-3-8-4-0-3"
         d="m -880.17299,-211.43192 c -11.17468,-5.91916 -19.30057,-18.83724 -29.0188,-25.69015 11.3674,-5.44441 33.4645,12.14047 29.0188,25.69015 z"
         style="fill:#86338d;fill-opacity:1;stroke:none" />
      <path
         sodipodi:nodetypes="ccc"
         inkscape:connector-curvature="0"
         id="path4946-3-8-4-0-6-0"
         d="m -871.04539,-217.35601 c 0.78371,-10.06091 4.12245,-25.01798 7.6259,-35.8489 10.4198,6.69002 6.3225,33.05049 -7.6259,35.8489 z"
         style="fill:#86338d;fill-opacity:1;stroke:none" />
      <path
         sodipodi:nodetypes="ccc"
         inkscape:connector-curvature="0"
         id="path4946-3-8-4-0-6-6-6"
         d="m -855.67739,-210.36967 c 10.22428,-13.423 21.46754,-19.16353 26.2298,-25.59877 4.9592,11.34613 -13.0715,31.00716 -26.2298,25.59877 z"
         style="fill:#86338d;fill-opacity:1;stroke:none" />
      <path
         sodipodi:nodetypes="ccc"
         inkscape:connector-curvature="0"
         id="path4946-3-8-4-0-6-6-3-5"
         d="m -846.45739,-196.63272 c 8.87499,-3.23313 23.91764,-3.46782 36.4561,-3.77546 -3.1591,11.97284 -29.5012,16.186 -36.4561,3.77546 z"
         style="fill:#86338d;fill-opacity:1;stroke:none" />
      <path
         sodipodi:nodetypes="ccc"
         inkscape:connector-curvature="0"
         id="path4946-3-8-4-0-6-6-3-2-6"
         d="m -866.99939,-179.41883 c 1.53271,8.88987 5.91481,22.91184 7.4971,35.87606 -12.2339,-1.91355 -19.1284,-27.68425 -7.4971,-35.87606 z"
         style="fill:#86338d;fill-opacity:1;stroke:none" />
      <path
         sodipodi:nodetypes="ccc"
         inkscape:connector-curvature="0"
         id="path4946-3-8-4-0-6-6-3-2-8-1"
         d="m -881.32079,-186.40393 c -6.46372,11.29274 -16.49369,21.45778 -20.3908,30.4551 -7.1911,-10.08049 6.4004,-33.03555 20.3908,-30.4551 z"
         style="fill:#86338d;fill-opacity:1;stroke:none" />
      <path
         sodipodi:nodetypes="ccc"
         inkscape:connector-curvature="0"
         id="path4946-3-8-4-0-6-6-3-2-3-0"
         d="m -849.73819,-183.08104 c 8.35873,7.06483 20.65178,18.29027 29.1179,26.1571 -12.0676,5.73274 -34.3246,-12.14758 -29.1179,-26.1571 z"
         style="fill:#a1c900;fill-opacity:1;stroke:none" />
      <path
         inkscape:transform-center-y="-1.2907239"
         inkscape:transform-center-x="-0.57861796"
         sodipodi:nodetypes="ccc"
         inkscape:connector-curvature="0"
         id="path4946-3-8-4-0-6-6-3-2-3-1-1"
         d="m -801.26119,-199.41889 c -0.5986,9.24372 -1.90196,24.08064 -2.5174,35.98431 12.5852,-3.57442 15.9813,-29.63389 2.5174,-35.98431 z"
         style="fill:#1190b0;fill-opacity:1;stroke:none" />
      <path
         inkscape:transform-center-y="-2.8870841"
         inkscape:transform-center-x="1.4462864"
         sodipodi:nodetypes="ccc"
         inkscape:connector-curvature="0"
         id="path4946-3-8-4-0-6-6-3-2-3-1-6-9"
         d="m -765.84249,-186.28522 c -7.59782,6.72811 -14.42666,19.89283 -22.156,28.46609 12.44,4.05098 29.7909,-15.68666 22.156,-28.46609 z"
         style="fill:#1190b0;fill-opacity:1;stroke:none" />
      <path
         inkscape:transform-center-y="-1.2962693"
         inkscape:transform-center-x="0.10561994"
         sodipodi:nodetypes="ccc"
         inkscape:connector-curvature="0"
         id="path4946-3-8-4-0-6-6-3-2-3-1-6-7-1"
         d="m -743.38669,-153.22657 c -9.79826,2.63035 -23.43075,8.6035 -34.5732,10.2909 7.7698,10.52588 33.3602,4.54602 34.5732,-10.2909 z"
         style="fill:#1190b0;fill-opacity:1;stroke:none" />
      <path
         inkscape:transform-center-y="-1.3978874"
         inkscape:transform-center-x="-2.8807969"
         sodipodi:nodetypes="ccc"
         inkscape:connector-curvature="0"
         id="path4946-3-8-4-0-6-6-3-2-3-1-6-7-2-5"
         d="m -759.37569,-108.02863 c -5.34784,-7.0301 -16.30771,-16.85592 -24.8723,-26.12612 -5.8481,11.70319 11.1034,31.78493 24.8723,26.12612 z"
         style="fill:#1190b0;fill-opacity:1;stroke:none" />
      <path
         inkscape:transform-center-y="-0.066894923"
         inkscape:transform-center-x="-1.2511666"
         sodipodi:nodetypes="ccc"
         inkscape:connector-curvature="0"
         id="path4946-3-8-4-0-6-6-3-2-3-1-6-7-2-8-1"
         d="m -787.50349,-90.83893 c -0.72385,-8.80854 -6.75022,-22.72569 -10.0944,-35.39235 -10.7687,7.82107 -4.9597,34.00087 10.0944,35.39235 z"
         style="fill:#1190b0;fill-opacity:1;stroke:none" />
      <path
         inkscape:transform-center-y="6.8076817"
         inkscape:transform-center-x="-7.406722"
         sodipodi:nodetypes="ccc"
         inkscape:connector-curvature="0"
         id="path4946-3-8-4-0-6-6-3-2-3-1-6-7-2-8-0-7"
         d="m -833.31199,-103.49134 c 6.45531,-7.06946 13.35187,-19.89774 22.5642,-27.66764 -12.6763,-3.85946 -30.3476,15.33444 -22.5642,27.66764 z"
         style="fill:#1190b0;fill-opacity:1;stroke:none" />
      <path
         inkscape:transform-center-y="6.626032"
         inkscape:transform-center-x="-0.53947241"
         sodipodi:nodetypes="ccc"
         inkscape:connector-curvature="0"
         id="path4946-3-8-4-0-6-6-3-2-3-1-6-7-2-8-0-6-4"
         d="m -855.74359,-140.29294 c 11.17794,-0.81621 28.35732,-1.11482 36.3427,-2.32929 -5.9268,-11.9091 -32.5412,-11.77043 -36.3427,2.32929 z"
         style="fill:#1190b0;fill-opacity:1;stroke:none" />
      <path
         sodipodi:nodetypes="ccc"
         inkscape:connector-curvature="0"
         id="path4946-3-8-4-0-6-6-3-2-8-1-5"
         d="m -859.39828,-208.89448 c -4.96871,6.8438 -14.16595,13.89643 -17.16169,19.34913 -9.8573,-6.9173 -0.37376,-28.95624 17.16169,-19.34913 z"
         style="fill:#86338d;fill-opacity:1;stroke:none" />
      <path
         inkscape:transform-center-y="-7.1379473"
         inkscape:transform-center-x="7.1379473"
         sodipodi:nodetypes="ccc"
         inkscape:connector-curvature="0"
         id="path4946-3-8-4-0-6-6-3-2-8-1-5-1"
         d="m -790.4242,-153.90529 c -5.96632,5.99404 -11.46621,16.19597 -16.37297,20.02096 8.39718,8.6315 28.64702,-4.23696 16.37297,-20.02096 z"
         style="fill:#1190b0;fill-opacity:1;stroke:none" />
    </g>
  </g>
</svg>
