<?xml version="1.0" encoding="UTF-8" standalone="no"?>
<!-- Creator: CorelDRAW -->

<svg
   xmlns:dc="http://purl.org/dc/elements/1.1/"
   xmlns:cc="http://creativecommons.org/ns#"
   xmlns:rdf="http://www.w3.org/1999/02/22-rdf-syntax-ns#"
   xmlns:svg="http://www.w3.org/2000/svg"
   xmlns="http://www.w3.org/2000/svg"
   xmlns:xlink="http://www.w3.org/1999/xlink"
   xmlns:sodipodi="http://sodipodi.sourceforge.net/DTD/sodipodi-0.dtd"
   xmlns:inkscape="http://www.inkscape.org/namespaces/inkscape"
   xml:space="preserve"
   width="300px"
   height="300px"
   style="shape-rendering:geometricPrecision; text-rendering:geometricPrecision; image-rendering:optimizeQuality; fill-rule:evenodd; clip-rule:evenodd"
   viewBox="0 0 300 300"
   id="svg2"
   version="1.1"
   inkscape:version="0.48.5 r10040"
   sodipodi:docname="simulaciones.svg"><metadata
     id="metadata55"><rdf:RDF><cc:Work
         rdf:about=""><dc:format>image/svg+xml</dc:format><dc:type
           rdf:resource="http://purl.org/dc/dcmitype/StillImage" /><dc:title></dc:title></cc:Work></rdf:RDF></metadata><sodipodi:namedview
     pagecolor="#ffffff"
     bordercolor="#666666"
     borderopacity="1"
     objecttolerance="10"
     gridtolerance="10"
     guidetolerance="10"
     inkscape:pageopacity="0"
     inkscape:pageshadow="2"
     inkscape:window-width="1913"
     inkscape:window-height="1033"
     id="namedview53"
     showgrid="false"
     inkscape:zoom="1.5733333"
     inkscape:cx="328.3764"
     inkscape:cy="93.528853"
     inkscape:window-x="0"
     inkscape:window-y="26"
     inkscape:window-maximized="1"
     inkscape:current-layer="layer1" /><defs
     id="defs4"><style
       type="text/css"
       id="style6">
    .str0 {stroke:#1F1A17;stroke-width:1.35089}
    .fil0 {fill:url(#id0)}
    .fil3 {fill:url(#id1)}
    .fil2 {fill:url(#id2)}
    .fil1 {fill:url(#id3);fill-rule:nonzero}
   </style><linearGradient
       id="id0"
       gradientUnits="userSpaceOnUse"
       x1="39.5025"
       y1="255.343"
       x2="259.255"
       y2="27.4524"><stop
         offset="0"
         style="stop-color:#1E1916"
         id="stop9" /><stop
         offset="0.45098"
         style="stop-color:white"
         id="stop11" /><stop
         offset="0.639216"
         style="stop-color:#DEDEDD"
         id="stop13" /><stop
         offset="1"
         style="stop-color:#C2C1C1"
         id="stop15" /></linearGradient><linearGradient
       id="id1"
       gradientUnits="userSpaceOnUse"
       x1="56.4896"
       y1="297.578"
       x2="224.161"
       y2="1.95713"><stop
         offset="0"
         style="stop-color:#1E1916"
         id="stop18" /><stop
         offset="0.470588"
         style="stop-color:#DEDEDD"
         id="stop20" /><stop
         offset="0.639216"
         style="stop-color:#DEDEDD"
         id="stop22" /><stop
         offset="1"
         style="stop-color:#1F1A17"
         id="stop24" /></linearGradient><linearGradient
       id="id2"
       gradientUnits="userSpaceOnUse"
       x1="227.044"
       y1="148.83"
       x2="56.7305"
       y2="148.83"><stop
         offset="0"
         style="stop-color:#1E1916"
         id="stop27" /><stop
         offset="0.470588"
         style="stop-color:white"
         id="stop29" /><stop
         offset="0.639216"
         style="stop-color:#DEDEDD"
         id="stop31" /><stop
         offset="1"
         style="stop-color:#1F1A17"
         id="stop33" /></linearGradient><linearGradient
       id="id3"
       gradientUnits="userSpaceOnUse"
       x1="36.5917"
       y1="131.315"
       x2="259.668"
       y2="154.047"><stop
         offset="0"
         style="stop-color:#1E1916"
         id="stop36" /><stop
         offset="0.501961"
         style="stop-color:white"
         id="stop38" /><stop
         offset="0.580392"
         style="stop-color:#DEDEDD"
         id="stop40" /><stop
         offset="1"
         style="stop-color:#1F1A17"
         id="stop42" /></linearGradient><linearGradient
       id="id0-8"
       gradientUnits="userSpaceOnUse"
       x1="39.502499"
       y1="255.343"
       x2="259.255"
       y2="27.4524"><stop
         offset="0"
         style="stop-color:#1E1916"
         id="stop9-6" /><stop
         offset="0.45098"
         style="stop-color:white"
         id="stop11-7" /><stop
         offset="0.639216"
         style="stop-color:#DEDEDD"
         id="stop13-7" /><stop
         offset="1"
         style="stop-color:#C2C1C1"
         id="stop15-9" /></linearGradient><linearGradient
       id="id3-7"
       gradientUnits="userSpaceOnUse"
       x1="36.591702"
       y1="131.315"
       x2="259.668"
       y2="154.047"><stop
         offset="0"
         style="stop-color:#1E1916"
         id="stop36-8" /><stop
         offset="0.501961"
         style="stop-color:white"
         id="stop38-2" /><stop
         offset="0.580392"
         style="stop-color:#DEDEDD"
         id="stop40-6" /><stop
         offset="1"
         style="stop-color:#1F1A17"
         id="stop42-7" /></linearGradient><linearGradient
       id="id2-3"
       gradientUnits="userSpaceOnUse"
       x1="227.04401"
       y1="148.83"
       x2="56.730499"
       y2="148.83"><stop
         offset="0"
         style="stop-color:#1E1916"
         id="stop27-1" /><stop
         offset="0.470588"
         style="stop-color:white"
         id="stop29-2" /><stop
         offset="0.639216"
         style="stop-color:#DEDEDD"
         id="stop31-9" /><stop
         offset="1"
         style="stop-color:#1F1A17"
         id="stop33-0" /></linearGradient><linearGradient
       id="id1-8"
       gradientUnits="userSpaceOnUse"
       x1="56.489601"
       y1="297.578"
       x2="224.161"
       y2="1.95713"><stop
         offset="0"
         style="stop-color:#1E1916"
         id="stop18-4" /><stop
         offset="0.470588"
         style="stop-color:#DEDEDD"
         id="stop20-8" /><stop
         offset="0.639216"
         style="stop-color:#DEDEDD"
         id="stop22-2" /><stop
         offset="1"
         style="stop-color:#1F1A17"
         id="stop24-3" /></linearGradient><linearGradient
       id="id0-7"
       gradientUnits="userSpaceOnUse"
       x1="39.502499"
       y1="255.343"
       x2="259.255"
       y2="27.4524"><stop
         offset="0"
         style="stop-color:#1E1916"
         id="stop9-0" /><stop
         offset="0.45098"
         style="stop-color:white"
         id="stop11-4" /><stop
         offset="0.639216"
         style="stop-color:#DEDEDD"
         id="stop13-9" /><stop
         offset="1"
         style="stop-color:#C2C1C1"
         id="stop15-4" /></linearGradient><linearGradient
       id="id3-3"
       gradientUnits="userSpaceOnUse"
       x1="36.591702"
       y1="131.315"
       x2="259.668"
       y2="154.047"><stop
         offset="0"
         style="stop-color:#1E1916"
         id="stop36-0" /><stop
         offset="0.501961"
         style="stop-color:white"
         id="stop38-29" /><stop
         offset="0.580392"
         style="stop-color:#DEDEDD"
         id="stop40-0" /><stop
         offset="1"
         style="stop-color:#1F1A17"
         id="stop42-8" /></linearGradient><linearGradient
       id="id2-9"
       gradientUnits="userSpaceOnUse"
       x1="227.04401"
       y1="148.83"
       x2="56.730499"
       y2="148.83"><stop
         offset="0"
         style="stop-color:#1E1916"
         id="stop27-9" /><stop
         offset="0.470588"
         style="stop-color:white"
         id="stop29-5" /><stop
         offset="0.639216"
         style="stop-color:#DEDEDD"
         id="stop31-7" /><stop
         offset="1"
         style="stop-color:#1F1A17"
         id="stop33-3" /></linearGradient><linearGradient
       id="id1-4"
       gradientUnits="userSpaceOnUse"
       x1="56.489601"
       y1="297.578"
       x2="224.161"
       y2="1.95713"><stop
         offset="0"
         style="stop-color:#1E1916"
         id="stop18-6" /><stop
         offset="0.470588"
         style="stop-color:#DEDEDD"
         id="stop20-7" /><stop
         offset="0.639216"
         style="stop-color:#DEDEDD"
         id="stop22-8" /><stop
         offset="1"
         style="stop-color:#1F1A17"
         id="stop24-7" /></linearGradient><linearGradient
       inkscape:collect="always"
       xlink:href="#id0-7"
       id="linearGradient3258"
       gradientUnits="userSpaceOnUse"
       x1="39.502499"
       y1="255.343"
       x2="259.255"
       y2="27.4524" /></defs><g
     inkscape:groupmode="layer"
     id="layer1"
     inkscape:label="Capa"
     style="display:inline"><path
       inkscape:connector-curvature="0"
       id="_79321648"
       class="fil0 str0"
       d="m 161.46536,50.143921 -10.2355,0 c -4.3378,0 -6.6714,-18.5512 -9.59602,-18.5512 -6.2534,0 -11.5974,1.32459 -15.4716,3.84782 l 0.75849,12.1456 0,5.75651 c 0,2.52046 -9.31367,6.39735 -11.5144,6.39735 -2.76545,0 -12.90679,-13.4342 -14.71309,-13.4342 -2.746075,0 -12.793305,6.84995 -12.793305,8.95657 0,2.30869 5.62363,12.6231 6.82227,15.6169 1.65678,4.13848 -5.39664,10.1206 -8.78078,11.9781 l -17.2322,-7.76485 c -4.92051,2.60351 -7.15169,8.33787 -9.59602,13.4342 2.17305,2.50108 14.0722,12.022399 14.0722,14.073599 l 0,0.63946 c 0,3.30248 -3.29695,11.1421 -6.40704,11.5047 -4.51219,0.52458 -12.9649,0.01 -17.9007,0.01 -1.73982,3.28726 -3.19867,9.03546 -3.19867,14.0736 0,5.34681 19.1907,4.29489 19.1907,11.5144 l 0,8.95657 c 0,4.30319 -18.5512,6.37382 -18.5512,10.2341 0,6.31154 1.30245,10.9262 3.84782,14.828 l 10.8653,-0.75296 7.03681,0 c 2.45264,0 6.39735,9.47976 6.39735,11.5144 0,3.39799 -13.4342,11.8355 -13.4342,15.3525 0,1.98204 6.85411,12.1539 8.95657,12.1539 2.89279,0 15.801,-7.67627 17.2723,-7.67627 1.63325,0 9.59464,7.45619 9.59464,8.95657 l 0,1.27892 c 0,1.7772 -5.97935,14.6342 -7.03681,16.6314 1.62079,3.06303 9.01608,8.95657 13.434205,8.95657 2.59797,0 10.77249,-13.4342 14.07359,-13.4342 l 0.63946,0 c 3.3966,0 11.5144,3.28587 11.5144,7.03681 l 0.1481,8.33233 -0.78756,8.3005 c 3.62775,2.42911 9.39394,3.83813 15.3525,3.83813 3.07964,0 5.56965,-19.1907 9.59602,-19.1907 l 10.2355,0 c 3.7537,0 7.28872,18.5512 9.59602,18.5512 6.2534,0 11.5974,-1.32459 15.4716,-3.84782 l -0.75849,-12.1456 0,-5.75651 c 0,-2.52046 9.31367,-6.39735 11.5144,-6.39735 2.76545,0 12.9068,13.4342 14.7131,13.4342 2.81666,0 12.7933,-6.75307 12.7933,-8.95657 0,-2.81389 -7.67627,-16.093 -7.67627,-17.2723 0,-2.24641 7.6735,-9.21816 9.63201,-10.3185 l 17.2349,7.7607 c 3.06303,-1.62079 8.95657,-9.01608 8.95657,-13.4342 0,-2.4997 -13.4328,-11.0549 -13.4328,-14.0736 l 0,-0.63946 c 0,-3.30248 3.29695,-11.1421 6.40704,-11.5047 4.51219,-0.52457 12.9649,-0.01 18.5014,0.10658 l 2.59797,-15.4702 c -4.65476,-3.11563 -19.192,-4.70874 -19.192,-10.2341 l 0,-8.95657 c 0,-4.30319 18.5526,-6.37382 18.5526,-10.2341 l 0,-0.64084 c 0,-5.69007 -1.52944,-10.6244 -3.84644,-14.1954 l -13.4259,0.76126 -4.47759,0 c -2.45264,0 -6.39735,-9.47976 -6.39735,-11.5144 0,-2.975831 13.4342,-12.617501 13.4342,-14.713101 0,-2.81666 -6.75168,-12.7933 -8.95657,-12.7933 -3.08241,0 -15.4162,7.67627 -17.2723,7.67627 -1.63325,0 -9.59464,-7.45619 -9.59464,-8.95657 l 0,-1.27892 c 0,-3.25127 7.03542,-14.7131 7.03542,-17.2723 0,-1.62771 -10.3988,-8.31572 -13.4328,-8.31572 -2.59797,0 -10.7725,13.4328 -14.0736,13.4328 -3.56685,0 -11.5476,-3.13362 -12.068,-5.84232 -0.6187,-3.22497 -0.0858,-14.4238 -0.0858,-18.4654 -2.32669,-1.23047 -9.97389,-3.19867 -13.4342,-3.19867 -5.97243,0 -5.81879,19.1907 -10.8749,19.1907 z M 82.402263,142.89582 c 0,39.8582 35.088497,76.7018 75.201397,75.2609 41.371,-1.48515 75.2484,-33.1826 75.2484,-75.2609 0,-39.1993 -34.0671,-75.224899 -72.0899,-75.224899 -43.5247,0 -78.359897,32.574999 -78.359897,75.224899 z"
       style="fill:#ff9955;fill-rule:evenodd;stroke:none;stroke-width:1.35089003999999990" /><path
       inkscape:connector-curvature="0"
       id="_79427320"
       class="fil1"
       d="m 111.55836,87.013821 c -0.74327,0.584094 -1.35366,1.07684 -1.83533,1.48238 C 95.648033,100.3843 86.960033,117.8241 84.647133,135.9421 c -2.30869,18.0806 1.73982,36.8034 13.1241,51.3103 l 0.0083,-0.007 c 0.543955,0.69482 1.00348,1.26369 1.37442,1.70384 13.097797,15.5076 30.948697,24.9181 49.535897,27.159 18.05019,2.17443 36.8048,-2.43049 52.5671,-14.8017 14.929,-11.7165 24.1472,-29.4815 26.77,-47.9358 2.60489,-18.3076 -1.28722,-37.2574 -12.5386,-51.5954 -13.084,-16.6688 -31.1009,-26.7437 -49.8985,-29.3985 -18.5678,-2.62427 -37.9177,1.99035 -54.0314,14.6369 z m -5.15304,-2.44987 c 0.76403,-0.646379 1.42148,-1.18341 1.96405,-1.6111 17.2654,-13.549 38.0145,-18.4903 57.936,-15.675 20.0903,2.83881 39.3184,13.5684 53.2439,31.3113 12.1525,15.483999 16.3671,35.863599 13.5767,55.495799 -2.8042,19.7194 -12.6798,38.7246 -28.6815,51.2826 -16.8972,13.2611 -37.0083,18.1969 -56.372,15.8633 -19.837,-2.38759 -38.8824,-12.4251 -52.852197,-28.9652 -0.610392,-0.72389 -1.11144,-1.33428 -1.50176,-1.83256 l 0.0069,-0.007 c -12.2812,-15.6473 -16.6577,-35.7626 -14.1843,-55.1415 2.47063,-19.3374 11.7746,-37.9772 26.864197,-50.7207 z"
       style="fill:#ff9955;fill-rule:nonzero" /><g
       id="g49"
       style="fill:#37abc8;fill-rule:evenodd"
       transform="translate(8.2483632,1.5036207)"><path
         inkscape:connector-curvature="0"
         id="_79696504"
         class="fil2"
         d="m 227.044,3.95855 -98.6454,96.053 37.5218,0.4097 -63.6178,82.4624 26.7451,0.99102 -14.7989,22.4738 c 7.10186,4.16478 14.9082,6.68248 23.2143,8.03752 l 40.3177,-39.6104 -36.2858,-1.36473 69.9058,-91.758102 -33.1895,-0.1481 48.8327,-77.5461 z m -134.369,235.156 -35.9439,54.5879 63.6676,-62.5506 c -3.39383,-3.84505 -8.1261,-5.51567 -12.5705,-5.01324 l -10.3504,11.6846 c -1.03947,0.42354 -1.88239,2.51493 -4.80286,1.29137 z"
         style="fill:#37abc8" /><path
         inkscape:connector-curvature="0"
         id="_79675008"
         class="fil3"
         d="m 226.489,3.27757 -106.647,97.9824 39.5634,0.43046 -67.0794,86.9483 28.1998,1.045 -9.2237,14.8127 c 7.142,4.80147 15.0729,7.76208 23.5603,9.42301 l 36.3882,-37.1259 -37.6007,-0.12042 71.73,-93.452199 -33.674,0.502431 54.783,-80.4458 z m -136.012,234.662 -36.3149,58.318 65.0213,-66.3403 c -3.25681,-2.96338 -7.42021,-4.2243 -11.3552,-3.77862 l -10.3504,11.6846 c -1.1668,0.47475 -2.08585,3.05196 -5.97381,0.68237 l -1.02701,-0.5661 z"
         style="fill:#37abc8" /></g></g><g
     inkscape:groupmode="layer"
     id="layer2"
     inkscape:label="Capa#1"
     style="display:none"
     sodipodi:insensitive="true"><path
       style="fill:#000000;fill-rule:evenodd;stroke:#000000;stroke-width:11.7510004;stroke-miterlimit:4;stroke-opacity:1;stroke-dasharray:none"
       d="m 172.34375,30.3125 c -5.97243,0 -5.81889,19.1875 -10.875,19.1875 l -10.25,0 c -4.3378,0 -6.66913,-18.53125 -9.59375,-18.53125 -6.2534,0 -11.59455,1.32052 -15.46875,3.84375 l 0.75,12.125 0,5.78125 c 0,2.52046 -9.29927,6.375 -11.5,6.375 -2.76545,0 -12.91245,-13.4375 -14.71875,-13.4375 -2.746065,0 -12.78125,6.86213 -12.78125,8.96875 0,2.30869 5.61386,12.6312 6.8125,15.625 1.65678,4.13848 -5.39711,10.11125 -8.78125,11.96875 l -17.21875,-7.75 c -4.92051,2.60351 -7.14942,8.34117 -9.59375,13.4375 2.17305,2.50108 14.0625,12.011302 14.0625,14.0625 l 0,0.625 c 0,3.30248 -3.29616,11.1374 -6.40625,11.5 -4.51219,0.52458 -12.97045,0.0313 -17.90625,0.0313 -1.73982,3.28726 -3.1875,9.02436 -3.1875,14.0625 0,5.34681 19.1875,4.31174 19.1875,11.53125 l 0,8.9375 c 0,4.30319 -18.5625,6.38972 -18.5625,10.25 0,6.31154 1.29838,10.9107 3.84375,14.8125 l 10.875,-0.75 7.03125,0 c 2.45264,0 6.40625,9.49661 6.40625,11.53125 0,3.39799 -13.4375,11.82675 -13.4375,15.34375 0,1.98199 6.86629,12.1562 8.96875,12.1562 2.89279,0 15.7787,-7.6875 17.25,-7.6875 1.63325,0 9.59375,7.46837 9.59375,8.96875 l 0,1.28125 c 0,1.7772 -5.97379,14.6278 -7.03125,16.625 1.62079,3.06303 9.019385,8.9375 13.4375,8.9375 2.59797,0 10.7614,-13.40625 14.0625,-13.40625 l 0.65625,0 c 3.3966,0 11.5,3.28031 11.5,7.03125 l 0.15625,8.3125 -0.78125,8.3125 c 3.62775,2.42911 9.38519,3.84375 15.34375,3.84375 3.07964,0 5.56738,-19.1875 9.59375,-19.1875 l 10.25,0 c 3.7537,0 7.28645,18.53125 9.59375,18.53125 6.2534,0 11.59455,-1.32052 15.46875,-3.84375 l -0.75,-12.125 0,-5.78125 c 0,-2.52046 9.29927,-6.375 11.5,-6.375 2.76545,0 12.91245,13.4375 14.71875,13.4375 2.81666,0 12.78125,-6.76525 12.78125,-8.96875 0,-2.81389 -7.65625,-16.10195 -7.65625,-17.28125 0,-2.24641 7.66649,-9.21216 9.625,-10.3125 l 17.21875,7.75 c 3.06303,-1.62079 8.96875,-8.98813 8.96875,-13.40625 0,-2.4997 -13.4375,-11.07505 -13.4375,-14.09375 l 0,-0.625 c 0,-3.30248 3.29616,-11.1374 6.40625,-11.5 4.51219,-0.52457 12.9635,-0.0228 18.5,0.0937 l 2.59375,-15.46875 c -4.65476,-3.11563 -19.1875,-4.72464 -19.1875,-10.25 l 0,-8.9375 c 0,-4.30319 18.5625,-6.38972 18.5625,-10.25 l 0,-0.625 c 0,-5.69007 -1.52675,-10.6165 -3.84375,-14.1875 l -13.4375,0.75 -4.46875,0 c -2.45264,0 -6.40625,-9.49661 -6.40625,-11.53125 0,-2.97583 13.4375,-12.5919 13.4375,-14.6875 0,-2.81666 -6.73261,-12.8125 -8.9375,-12.8125 -3.08241,0 -15.42515,7.6875 -17.28125,7.6875 -1.63325,0 -9.59375,-7.46837 -9.59375,-8.96875 l 0,-1.28125 c 0,-3.25127 7.03125,-14.6908 7.03125,-17.25 0,-1.62771 -10.4035,-8.3125 -13.4375,-8.3125 -2.59797,0 -10.7614,13.40625 -14.0625,13.40625 -3.56685,0 -11.5421,-3.13505 -12.0625,-5.84375 -0.6187,-3.22497 -0.0937,-14.3959 -0.0937,-18.4375 -2.32669,-1.23047 -9.97719,-3.21875 -13.4375,-3.21875 z m -17.25,40.71875 c 3.50997,-0.02216 7.01854,0.226699 10.5,0.71875 18.7976,2.6548 36.82225,12.706201 49.90625,29.375 11.25138,14.338 15.13614,33.3174 12.53125,51.625 -2.6228,18.4543 -11.85225,36.18975 -26.78125,47.90625 -15.7623,12.37121 -34.51231,16.98693 -52.5625,14.8125 -18.5872,-2.2409 -36.43345,-11.64865 -49.53125,-27.15625 -0.37094,-0.44015 -0.831045,-0.99268 -1.375,-1.6875 -11.38428,-14.5069 -15.43369,-33.2319 -13.125,-51.3125 2.3129,-18.118 10.987503,-35.5494 25.0625,-47.4375 0.48167,-0.40554 1.10048,-0.915906 1.84375,-1.5 13.09238,-10.275322 28.3214,-15.247717 43.53125,-15.34375 z"
       id="_79321648-8"
       inkscape:connector-curvature="0" /><path
       style="fill:#000000;fill-rule:evenodd"
       d="m 227.12287,3.688976 -29.36175,26.971038 6.1973,7.032896 z"
       id="path4075"
       inkscape:connector-curvature="0" /><path
       style="fill:#000000;fill-rule:evenodd"
       d="m 186.375,48.59375 -24.84375,22.8125 c 5.97234,-0.199497 13.48387,0.07488 20.8125,1.75 1.4747,0.337074 2.9642,0.828568 4.40625,1.46875 l 12.75,-18.75 c -0.82449,0.693115 -1.562,1.256151 -2,1.34375 -1.58898,0.317797 -8.56991,-2.887712 -10,-4 -1.43008,-1.112288 -1.4375,-4.125 -1.4375,-4.125 z"
       id="path4073"
       inkscape:connector-curvature="0" /><path
       style="fill:#000000;fill-rule:evenodd"
       d="m 157.76858,87.657562 c -2.80667,0.01892 -5.38056,0.145245 -7.6599,0.282652 l -19.55957,17.976726 35.78385,0.39571 -54.20468,70.33985 c 3.80508,3.86309 9.66929,4.61097 20.13399,11.9452 6.26224,4.38892 18.1743,6.32254 23.44294,7.40071 l 21.34029,-21.76427 -34.00314,-0.11306 52.43211,-68.3172 c -4.47656,-5.963847 -11.15865,-13.44823 -17.77886,-15.715504 -0.0358,-0.01226 -0.0772,-0.01612 -0.11307,-0.02826 l -0.11306,0 0.0283,-0.02827 c -5.71977,-1.913366 -13.15591,-2.418607 -19.72917,-2.374284 z"
       id="path4071"
       inkscape:connector-curvature="0" /><path
       style="fill:#000000;fill-rule:evenodd"
       d="m 213.625,84.09375 -13.5625,0.1875 c 2.79778,2.743102 5.26308,5.579649 7.25,8.0625 z"
       id="path4069"
       inkscape:connector-curvature="0" /><path
       style="fill:#000000;fill-rule:evenodd"
       d="m 100.8125,189.1875 -0.25,0.3125 0.5,0.0313 c -0.10764,-0.13489 -0.14907,-0.21581 -0.25,-0.34375 z"
       id="path4067"
       inkscape:connector-curvature="0" /><path
       style="fill:#000000;fill-rule:evenodd"
       d="m 128.65625,210.34375 c 4.59426,2.00739 9.43517,3.45246 14.46875,4.4375 l 0.34375,-0.34375 c -4.34741,-1.02875 -9.16737,-2.50655 -14.8125,-4.09375 z"
       id="path4065"
       inkscape:connector-curvature="0" /><path
       style="fill:#000000;fill-rule:evenodd"
       d="m 117.5625,226.90625 c -0.49679,0.002 -1.00813,0.038 -1.5,0.0937 l -1.25,1.40625 c 0.63094,-0.55991 1.16369,-0.95364 1.5,-1.03125 2.06568,-0.47669 8.10116,1.13241 9.53125,2.5625 0.41451,0.41451 0.78323,0.85697 1.125,1.3125 l 0.46875,-0.46875 c -2.84971,-2.59296 -6.39744,-3.89171 -9.875,-3.875 z"
       id="path4063"
       inkscape:connector-curvature="0" /><path
       style="fill:#000000;fill-rule:evenodd"
       d="m 113.28358,248.77351 c -0.15422,0.005 -0.30657,0.0181 -0.47255,0.0497 -2.65568,0.50584 -3.15774,2.78299 -6.19281,4.42699 -3.03508,1.644 -5.5761,5.05761 -9.749329,3.03423 -0.674314,-0.32694 -1.109718,-0.76458 -1.417632,-1.24354 l -25.417891,40.81288 45.314482,-46.2347 c -0.516,-0.48334 -1.19037,-0.87184 -2.06427,-0.8456 z"
       id="path4061"
       inkscape:connector-curvature="0" /><path
       style="fill:#000000;fill-rule:evenodd"
       d="m 98.71875,238.8125 -0.28125,0.4375 0.09375,0.0625 c 0,0 0.462275,1.95187 3.5625,1.03125 -0.6393,-0.0927 -1.40035,-0.39378 -2.34375,-0.96875 z"
       id="_79675008-8"
       inkscape:connector-curvature="0" /></g></svg>