<?xml version="1.0" encoding="UTF-8" standalone="no"?>
<!-- Created with Inkscape (http://www.inkscape.org/) -->

<svg
   xmlns:dc="http://purl.org/dc/elements/1.1/"
   xmlns:cc="http://creativecommons.org/ns#"
   xmlns:rdf="http://www.w3.org/1999/02/22-rdf-syntax-ns#"
   xmlns:svg="http://www.w3.org/2000/svg"
   xmlns="http://www.w3.org/2000/svg"
   xmlns:xlink="http://www.w3.org/1999/xlink"
   xmlns:sodipodi="http://sodipodi.sourceforge.net/DTD/sodipodi-0.dtd"
   xmlns:inkscape="http://www.inkscape.org/namespaces/inkscape"
   width="256"
   height="256"
   id="svg2"
   version="1.1"
   inkscape:version="0.48.3.1 r9886"
   sodipodi:docname="web-browser.svg">
  <defs
     id="defs4">
    <linearGradient
       id="linearGradient4119">
      <stop
         id="stop4121"
         offset="0"
         style="stop-color:#edfafe;stop-opacity:1;" />
      <stop
         id="stop4123"
         offset="1"
         style="stop-color:#86c0f4;stop-opacity:0;" />
    </linearGradient>
    <linearGradient
       id="linearGradient3972">
      <stop
         style="stop-color:#78def9;stop-opacity:1;"
         offset="0"
         id="stop3974" />
      <stop
         style="stop-color:#116bbb;stop-opacity:0.97484279;"
         offset="1"
         id="stop3976" />
    </linearGradient>
    <linearGradient
       inkscape:collect="always"
       xlink:href="#linearGradient4119"
       id="linearGradient4117"
       x1="348.56787"
       y1="127.42867"
       x2="471.33572"
       y2="116.79466"
       gradientUnits="userSpaceOnUse" />
  </defs>
  <sodipodi:namedview
     id="base"
     pagecolor="#ffffff"
     bordercolor="#666666"
     borderopacity="1.0"
     inkscape:pageopacity="0.0"
     inkscape:pageshadow="2"
     inkscape:zoom="0.98994949"
     inkscape:cx="101.81788"
     inkscape:cy="121.35882"
     inkscape:document-units="px"
     inkscape:current-layer="layer1"
     showgrid="false"
     inkscape:window-width="1914"
     inkscape:window-height="1031"
     inkscape:window-x="0"
     inkscape:window-y="25"
     inkscape:window-maximized="1"
     inkscape:snap-global="false" />
  <metadata
     id="metadata7">
    <rdf:RDF>
      <cc:Work
         rdf:about="">
        <dc:format>image/svg+xml</dc:format>
        <dc:type
           rdf:resource="http://purl.org/dc/dcmitype/StillImage" />
        <dc:title />
      </cc:Work>
    </rdf:RDF>
  </metadata>
  <g
     inkscape:label="Layer 1"
     inkscape:groupmode="layer"
     id="layer1"
     transform="translate(0,-796.36218)">
    <path
       style="opacity:0.95614032;fill:#614868;fill-opacity:1;stroke:none"
       d="m 687.38717,679.38364 c -17.74991,21.03076 -27.87783,48.57943 -26.3877,78.23231 3.11997,62.08577 55.97319,109.88683 118.05896,106.76686 28.37516,-1.42593 53.76045,-13.24725 72.67071,-31.58558 L 828.083,810.71891 c -13.23701,12.32657 -30.72456,20.23101 -50.20285,21.20985 -43.88866,2.20551 -81.25535,-31.58809 -83.46087,-75.47675 -1.02414,-20.3798 5.71287,-39.35128 17.61958,-54.05101 l -24.65169,-23.01736 z"
       id="path2985-0"
       inkscape:connector-curvature="0" />
    <path
       style="fill:#614868;stroke:#000000;stroke-width:0.33962297px;stroke-linecap:butt;stroke-linejoin:miter;stroke-opacity:1"
       d="m 773.2758,935.5013 -27.16984,41.72511 54.82485,0 z"
       id="path3027"
       inkscape:connector-curvature="0"
       sodipodi:nodetypes="cccc" />
    <path
       inkscape:connector-curvature="0"
       id="path3047"
       style="font-size:20px;font-style:normal;font-variant:normal;font-weight:normal;font-stretch:normal;line-height:125%;letter-spacing:0px;word-spacing:0px;fill:#ffffff;fill-opacity:1;stroke:none;font-family:Cheri;-inkscape-font-specification:Cheri"
       d="m 790.88615,908.86218 -7.40216,26.16485 -5.93756,-0.55417 c -0.55419,-1.74168 -1.87365,-6.10908 -3.95837,-13.10222 l -4.6313,13.10222 -5.62089,0.15834 -4.98755,-26.28361 6.96673,-0.19791 c 0.34305,2.7181 0.92361,7.70565 1.74169,14.96265 l 3.68129,-12.70638 6.37298,1.02918 3.04795,10.2126 3.36462,-13.65639 7.36257,0.87084" />
    <path
       inkscape:connector-curvature="0"
       id="path3049"
       style="font-size:20px;font-style:normal;font-variant:normal;font-weight:normal;font-stretch:normal;line-height:125%;letter-spacing:0px;word-spacing:0px;fill:#ffffff;fill-opacity:1;stroke:none;font-family:Cheri;-inkscape-font-specification:Cheri"
       d="m 824.13032,908.86218 -7.40216,26.16485 -5.93756,-0.55417 c -0.55421,-1.74168 -1.87366,-6.10908 -3.95838,-13.10222 l -4.63131,13.10222 -5.6209,0.15834 -4.98755,-26.28361 6.96674,-0.19791 c 0.34305,2.7181 0.92363,7.70565 1.74171,14.96265 l 3.68128,-12.70638 6.37299,1.02918 3.04792,10.2126 3.36462,-13.65639 7.3626,0.87084" />
    <path
       inkscape:connector-curvature="0"
       id="path3051"
       style="font-size:20px;font-style:normal;font-variant:normal;font-weight:normal;font-stretch:normal;line-height:125%;letter-spacing:0px;word-spacing:0px;fill:#ffffff;fill-opacity:1;stroke:none;font-family:Cheri;-inkscape-font-specification:Cheri"
       d="m 857.37446,908.86218 -7.40216,26.16485 -5.93756,-0.55417 c -0.55419,-1.74168 -1.87365,-6.10908 -3.95837,-13.10222 l -4.6313,13.10222 -5.62089,0.15834 -4.98755,-26.28361 6.96674,-0.19791 c 0.34305,2.7181 0.92361,7.70565 1.74168,14.96265 l 3.68129,-12.70638 6.37298,1.02918 3.04795,10.2126 3.36462,-13.65639 7.36257,0.87084" />
    <g
       id="g3807"
       transform="matrix(0.89439392,0,0,0.89439392,5.6153908,96.035959)">
      <path
         sodipodi:open="true"
         sodipodi:end="12.46847"
         sodipodi:start="6.2071318"
         transform="translate(-316.07622,753.50504)"
         d="m 563.93471,163.2024 c 5.09547,66.8693 -44.9821,125.20826 -111.85139,130.30374 -66.8693,5.09547 -125.20826,-44.98211 -130.30374,-111.8514 -5.09547,-66.86929 44.98211,-125.208257 111.8514,-130.30373 65.8386,-5.016933 123.61928,43.49532 130.07329,109.20861"
         sodipodi:ry="121.42857"
         sodipodi:rx="121.42857"
         sodipodi:cy="172.42857"
         sodipodi:cx="442.85715"
         id="path3202"
         style="fill:#2a87ca;fill-opacity:0.98039216;stroke:none"
         sodipodi:type="arc" />
      <path
         sodipodi:nodetypes="zsszz"
         inkscape:connector-curvature="0"
         id="path3985"
         d="m 51.423778,840.21932 c 0.54383,6.77209 17.30004,17.39258 47.85714,6.07143 26.244442,-9.72334 25.071002,-29.45973 18.928582,-33.21428 -6.66383,-4.07327 -26.459752,-0.92892 -38.571432,3.57142 -12.11169,4.50035 -28.75812,16.79935 -28.21429,23.57143 z"
         style="fill:none;stroke:#2ad4ff;stroke-width:3;stroke-linecap:butt;stroke-linejoin:miter;stroke-miterlimit:4;stroke-opacity:1;stroke-dasharray:none" />
      <path
         sodipodi:nodetypes="cssc"
         inkscape:connector-curvature="0"
         id="path3987"
         d="m 29.638068,855.93361 c 0,0 -13.51828,25.89188 8.57143,37.85714 17.14285,9.28571 63.280842,11.42097 100.000002,-7.85714 33.83673,-17.76479 54.28571,-57.5 38.57143,-68.21429"
         style="fill:none;stroke:#2ad4ff;stroke-width:3;stroke-linecap:butt;stroke-linejoin:miter;stroke-miterlimit:4;stroke-opacity:1;stroke-dasharray:none" />
      <path
         sodipodi:nodetypes="cssc"
         inkscape:connector-curvature="0"
         id="path3989"
         d="m 7.4952079,933.07647 c 0,0 -1.78572,18.92857 27.5000001,27.5 29.28571,8.57143 76.944832,9.98102 127.857142,-15 47.18547,-23.15238 68.21429,-81.07143 58.21429,-93.21429"
         style="fill:none;stroke:#2ad4ff;stroke-width:3;stroke-linecap:butt;stroke-linejoin:miter;stroke-miterlimit:4;stroke-opacity:1;stroke-dasharray:none" />
      <path
         sodipodi:nodetypes="csc"
         inkscape:connector-curvature="0"
         id="path3991"
         d="m 29.638058,998.4336 c 0,0 52.05887,32.6728 115.714292,16.0714 58.17002,-15.17076 102.14286,-66.07139 100.00001,-104.64282"
         style="fill:none;stroke:#2ad4ff;stroke-width:3;stroke-linecap:butt;stroke-linejoin:miter;stroke-miterlimit:4;stroke-opacity:1;stroke-dasharray:none" />
      <path
         sodipodi:nodetypes="csc"
         inkscape:connector-curvature="0"
         id="path3993"
         d="m 90.352348,1039.8622 c 0,0 29.061372,7.1191 71.428572,-5.3572 40.45084,-11.9119 62.14286,-38.21425 62.14286,-38.21425"
         style="fill:none;stroke:#2ad4ff;stroke-width:3;stroke-linecap:butt;stroke-linejoin:miter;stroke-miterlimit:4;stroke-opacity:1;stroke-dasharray:none" />
      <path
         sodipodi:nodetypes="cscsc"
         inkscape:connector-curvature="0"
         id="path3995"
         d="M 188.92379,1030.9336 C 238.78021,987.03042 249.24313,916.62067 204.63807,863.79075 170.44379,823.29128 91.066638,825.21932 91.066638,825.21932 c 0,0 56.204722,30.09336 73.571432,71.42857 17.11139,40.72752 25.71428,84.28571 -0.71429,144.28571"
         style="fill:none;stroke:#2ad4ff;stroke-width:3;stroke-linecap:butt;stroke-linejoin:miter;stroke-miterlimit:4;stroke-opacity:1;stroke-dasharray:none" />
      <path
         sodipodi:nodetypes="cscssc"
         inkscape:connector-curvature="0"
         id="path3997"
         d="M 131.06664,1045.9336 C 99.638068,1033.0765 69.157998,972.6852 66.780918,921.6479 c -2.62617,-56.38553 23.57143,-95.00001 23.57143,-95.00001 0,0 -12.78142,-3.68706 -35,17.14286 -22.85714,21.42857 -37.45963,78.09937 -32.14286,110.00001 7.14286,42.85713 52.2006,88.57144 102.142862,92.14284"
         style="fill:none;stroke:#2ad4ff;stroke-width:3;stroke-linecap:butt;stroke-linejoin:miter;stroke-miterlimit:4;stroke-opacity:1;stroke-dasharray:none" />
      <path
         sodipodi:nodetypes="cc"
         inkscape:connector-curvature="0"
         id="path3999"
         d="m 89.638068,825.21932 c 0,0 24.748742,-14.58158 59.034452,-16.72444"
         style="fill:none;stroke:#2ad4ff;stroke-width:3;stroke-linecap:butt;stroke-linejoin:miter;stroke-miterlimit:4;stroke-opacity:1;stroke-dasharray:none" />
      <path
         sodipodi:nodetypes="cc"
         inkscape:connector-curvature="0"
         id="path3999-4"
         d="m 113.92444,805.66088 c 0,0 -30.809662,2.59101 -23.798062,20.14613"
         style="fill:none;stroke:#2ad4ff;stroke-width:3;stroke-linecap:butt;stroke-linejoin:miter;stroke-miterlimit:4;stroke-opacity:1;stroke-dasharray:none" />
      <path
         sodipodi:nodetypes="cc"
         inkscape:connector-curvature="0"
         id="path3999-4-7"
         d="m 57.295108,827.84186 c 0,0 24.12294,-19.33992 31.12935,-1.78272"
         style="fill:none;stroke:#2ad4ff;stroke-width:3;stroke-linecap:butt;stroke-linejoin:miter;stroke-miterlimit:4;stroke-opacity:1;stroke-dasharray:none" />
      <path
         sodipodi:open="true"
         sodipodi:end="12.46847"
         sodipodi:start="6.2071318"
         transform="translate(-306.07622,796.36218)"
         d="m 394.25784,172.43732 c 0.40464,5.11354 -3.57211,9.57475 -8.88232,9.9644 -5.31021,0.38966 -9.94301,-3.4398 -10.34765,-8.55334 -0.40464,-5.11353 3.57211,-9.57475 8.88232,-9.9644 5.22836,-0.38365 9.81682,3.32611 10.32935,8.35125"
         sodipodi:ry="9.2857141"
         sodipodi:rx="9.6428576"
         sodipodi:cy="173.14285"
         sodipodi:cx="384.64285"
         id="path4037"
         style="fill:#2ad4ff;stroke:none"
         sodipodi:type="arc" />
      <path
         sodipodi:open="true"
         sodipodi:end="12.46847"
         sodipodi:start="6.2071318"
         d="m 394.25784,172.43732 c 0.40464,5.11354 -3.57211,9.57475 -8.88232,9.9644 -5.31021,0.38966 -9.94301,-3.4398 -10.34765,-8.55334 -0.40464,-5.11353 3.57211,-9.57475 8.88232,-9.9644 5.22836,-0.38365 9.81682,3.32611 10.32935,8.35125"
         sodipodi:ry="9.2857141"
         sodipodi:rx="9.6428576"
         sodipodi:cy="173.14285"
         sodipodi:cx="384.64285"
         id="path4037-7"
         style="fill:#2ad4ff;fill-opacity:1;stroke:none"
         sodipodi:type="arc"
         transform="translate(-209.2905,829.21932)" />
      <path
         sodipodi:open="true"
         sodipodi:end="12.46847"
         sodipodi:start="6.2071318"
         d="m 394.25784,172.43732 c 0.40464,5.11354 -3.57211,9.57475 -8.88232,9.9644 -5.31021,0.38966 -9.94301,-3.4398 -10.34765,-8.55334 -0.40464,-5.11353 3.57211,-9.57475 8.88232,-9.9644 5.22836,-0.38365 9.81682,3.32611 10.32935,8.35125"
         sodipodi:ry="9.2857141"
         sodipodi:rx="9.6428576"
         sodipodi:cy="173.14285"
         sodipodi:cx="384.64285"
         id="path4037-7-5"
         style="fill:#2ad4ff;fill-opacity:1;stroke:none"
         sodipodi:type="arc"
         transform="matrix(0.73812113,0,0,0.73812113,-106.08605,714.98707)" />
    </g>
    <path
       style="fill:#194d74;fill-opacity:0.98039216;stroke:none"
       d="m 118.54025,919.8169 c -0.58217,0.62397 -1.14128,1.26522 -1.69792,1.92428 -18.090694,21.42086 -15.51536,53.30039 5.74374,71.20578 18.17817,15.31064 44.11119,15.43044 62.56133,1.75521 l 47.24523,46.43063 c 1.88785,1.8553 4.6279,2.0917 6.14248,0.5504 l 5.13746,-5.2275 c 1.51456,-1.5411 1.21121,-4.257 -0.67665,-6.1123 l -47.16655,-46.35336 c 15.82025,-21.33236 12.67524,-51.41523 -7.74765,-68.61639 l -0.82437,-0.69432 c -20.64942,-16.62816 -50.66896,-14.20489 -68.71707,5.13754 z m 8.70412,8.32225 c 13.22779,-14.1953 35.48502,-15.7144 50.98355,-3.17124 l 0.64748,0.52048 c 15.96353,13.49748 18.16227,37.1978 4.92238,52.93627 -13.23991,15.73853 -36.92193,17.54265 -52.88545,4.04513 -15.96351,-13.49748 -18.16224,-37.19785 -4.92236,-52.93628 0.40737,-0.48424 0.82767,-0.93642 1.25441,-1.3943 z"
       id="path3783"
       inkscape:connector-curvature="0" />
  </g>
</svg>
