<?xml version="1.0" encoding="UTF-8" standalone="no"?>
<!-- Created with Inkscape (http://www.inkscape.org/) -->

<svg
   xmlns:dc="http://purl.org/dc/elements/1.1/"
   xmlns:cc="http://creativecommons.org/ns#"
   xmlns:rdf="http://www.w3.org/1999/02/22-rdf-syntax-ns#"
   xmlns:svg="http://www.w3.org/2000/svg"
   xmlns="http://www.w3.org/2000/svg"
   xmlns:xlink="http://www.w3.org/1999/xlink"
   xmlns:sodipodi="http://sodipodi.sourceforge.net/DTD/sodipodi-0.dtd"
   xmlns:inkscape="http://www.inkscape.org/namespaces/inkscape"
   width="256"
   height="256"
   id="svg2"
   version="1.1"
   inkscape:version="0.48.3.1 r9886"
   sodipodi:docname="shellscript.svg">
  <defs
     id="defs4">
    <linearGradient
       id="linearGradient3864">
      <stop
         style="stop-color:#ffffff;stop-opacity:1;"
         offset="0"
         id="stop3866" />
      <stop
         style="stop-color:#d5d5d5;stop-opacity:0;"
         offset="1"
         id="stop3868" />
    </linearGradient>
    <linearGradient
       id="linearGradient3815">
      <stop
         style="stop-color:#ffffff;stop-opacity:1;"
         offset="0"
         id="stop3817" />
      <stop
         style="stop-color:#a5a5a5;stop-opacity:1;"
         offset="1"
         id="stop3819" />
    </linearGradient>
    <linearGradient
       id="linearGradient3805">
      <stop
         style="stop-color:#989898;stop-opacity:1;"
         offset="0"
         id="stop3807" />
      <stop
         style="stop-color:#2a2a2a;stop-opacity:0.94968551;"
         offset="1"
         id="stop3809" />
    </linearGradient>
    <linearGradient
       id="linearGradient3927">
      <stop
         id="stop3929"
         offset="0"
         style="stop-color:#9d9d9d;stop-opacity:1;" />
      <stop
         id="stop3931"
         offset="1"
         style="stop-color:#ffffff;stop-opacity:1;" />
    </linearGradient>
    <linearGradient
       id="linearGradient3909">
      <stop
         style="stop-color:#909090;stop-opacity:1;"
         offset="0"
         id="stop3911" />
      <stop
         style="stop-color:#cfcfcf;stop-opacity:1;"
         offset="1"
         id="stop3913" />
    </linearGradient>
    <linearGradient
       id="linearGradient3815-1">
      <stop
         style="stop-color:#e0f2fe;stop-opacity:1;"
         offset="0"
         id="stop3817-9" />
      <stop
         style="stop-color:#01131f;stop-opacity:1;"
         offset="1"
         id="stop3819-2" />
    </linearGradient>
    <filter
       inkscape:collect="always"
       id="filter3862"
       x="-0.20169965"
       width="1.4033993"
       y="-0.18064831"
       height="1.3612966">
      <feGaussianBlur
         inkscape:collect="always"
         stdDeviation="3.884344"
         id="feGaussianBlur3864" />
    </filter>
    <filter
       inkscape:collect="always"
       id="filter3880"
       x="-0.84898819"
       width="2.6979764"
       y="-0.63366594"
       height="2.2673319">
      <feGaussianBlur
         inkscape:collect="always"
         stdDeviation="20.637391"
         id="feGaussianBlur3882" />
    </filter>
    <linearGradient
       id="linearGradient4010-7">
      <stop
         id="stop4012"
         style="stop-color:#e3e3e3;stop-opacity:1"
         offset="0" />
      <stop
         id="stop4014"
         style="stop-color:#939393;stop-opacity:1"
         offset="1" />
    </linearGradient>
    <linearGradient
       id="linearGradient4010-7-0">
      <stop
         id="stop4012-5"
         style="stop-color:#e3e3e3;stop-opacity:1"
         offset="0" />
      <stop
         id="stop4014-9"
         style="stop-color:#939393;stop-opacity:1"
         offset="1" />
    </linearGradient>
    <filter
       color-interpolation-filters="sRGB"
       inkscape:collect="always"
       id="filter17196">
      <feGaussianBlur
         inkscape:collect="always"
         stdDeviation="1.73125"
         id="feGaussianBlur17198" />
    </filter>
    <radialGradient
       inkscape:collect="always"
       xlink:href="#linearGradient6170"
       id="radialGradient3913"
       gradientUnits="userSpaceOnUse"
       gradientTransform="matrix(1.9184,0,0,1.0049,4299.0328,3355.0188)"
       cx="207.25999"
       cy="183.8"
       r="105" />
    <linearGradient
       id="linearGradient6170">
      <stop
         offset="0"
         stop-color="#fefdfc"
         id="stop6172" />
      <stop
         offset="1"
         stop-color="#dba932"
         id="stop6174" />
    </linearGradient>
    <filter
       color-interpolation-filters="sRGB"
       id="filter7251">
      <feGaussianBlur
         stdDeviation="2.245614"
         id="feGaussianBlur7253" />
    </filter>
    <linearGradient
       inkscape:collect="always"
       xlink:href="#linearGradient8046"
       id="linearGradient4082"
       gradientUnits="userSpaceOnUse"
       gradientTransform="matrix(0.25070385,0,0,0.25070385,-5.2394417,-7.5377202)"
       spreadMethod="repeat"
       x1="60.895"
       y1="195.46001"
       x2="61.276001"
       y2="198.83" />
    <linearGradient
       id="linearGradient8046">
      <stop
         offset="0"
         stop-color="#d2b77b"
         id="stop8048" />
      <stop
         offset=".5"
         stop-color="#ceb476"
         id="stop8050" />
      <stop
         offset="1"
         stop-color="#926b32"
         id="stop8052" />
    </linearGradient>
    <linearGradient
       inkscape:collect="always"
       xlink:href="#linearGradient8046"
       id="linearGradient4079"
       gradientUnits="userSpaceOnUse"
       gradientTransform="matrix(0.25070385,0,0,0.25070385,-5.2394417,-7.5377202)"
       spreadMethod="repeat"
       x1="331.57001"
       y1="194.61"
       x2="331.57999"
       y2="192.09" />
    <linearGradient
       id="linearGradient4152">
      <stop
         offset="0"
         stop-color="#d2b77b"
         id="stop4154" />
      <stop
         offset=".5"
         stop-color="#ceb476"
         id="stop4156" />
      <stop
         offset="1"
         stop-color="#926b32"
         id="stop4158" />
    </linearGradient>
    <linearGradient
       inkscape:collect="always"
       xlink:href="#linearGradient8046"
       id="linearGradient4076"
       gradientUnits="userSpaceOnUse"
       gradientTransform="matrix(0.25070385,0,0,0.25070385,-4.9708185,-8.2547275)"
       x1="235.78999"
       y1="204.42999"
       x2="159.86"
       y2="122" />
    <linearGradient
       id="linearGradient4161">
      <stop
         offset="0"
         stop-color="#d2b77b"
         id="stop4163" />
      <stop
         offset=".5"
         stop-color="#ceb476"
         id="stop4165" />
      <stop
         offset="1"
         stop-color="#926b32"
         id="stop4167" />
    </linearGradient>
    <radialGradient
       inkscape:collect="always"
       xlink:href="#linearGradient14419"
       id="radialGradient3921"
       gradientUnits="userSpaceOnUse"
       gradientTransform="matrix(1,0,0,0.58716,4489.6228,3425.9206)"
       cx="257.5"
       cy="165"
       r="54.5" />
    <linearGradient
       id="linearGradient14419">
      <stop
         offset="0"
         stop-color="#fff"
         id="stop14421" />
      <stop
         offset="1"
         stop-opacity="0"
         stop-color="#fff"
         id="stop14423" />
    </linearGradient>
    <filter
       color-interpolation-filters="sRGB"
       id="filter8114">
      <feGaussianBlur
         stdDeviation="1.0131579"
         id="feGaussianBlur8116" />
    </filter>
    <radialGradient
       inkscape:collect="always"
       xlink:href="#linearGradient7771"
       id="radialGradient4072"
       gradientUnits="userSpaceOnUse"
       gradientTransform="matrix(0.16801671,0.07616132,-0.00717916,0.01583746,17.536589,11.999921)"
       cx="259.51001"
       cy="112.05"
       r="77.5" />
    <linearGradient
       id="linearGradient7771">
      <stop
         offset="0"
         stop-color="#fff"
         id="stop7773" />
      <stop
         offset="1"
         stop-opacity="0"
         stop-color="#ffef85"
         id="stop7775" />
    </linearGradient>
    <radialGradient
       inkscape:collect="always"
       xlink:href="#linearGradient14419"
       id="radialGradient3925"
       gradientUnits="userSpaceOnUse"
       gradientTransform="matrix(0.61773,-0.3828,0.09216,0.14872,4551.2388,3547.2616)"
       cx="116.36"
       cy="160.08"
       r="75" />
    <linearGradient
       id="linearGradient4180">
      <stop
         offset="0"
         stop-color="#fff"
         id="stop4182" />
      <stop
         offset="1"
         stop-opacity="0"
         stop-color="#fff"
         id="stop4184" />
    </linearGradient>
    <radialGradient
       inkscape:collect="always"
       xlink:href="#linearGradient14419"
       id="radialGradient3927"
       gradientUnits="userSpaceOnUse"
       gradientTransform="matrix(1,0,0,0.57143,4489.6228,3428.5156)"
       cx="152.5"
       cy="165"
       r="52.5" />
    <linearGradient
       id="linearGradient4187">
      <stop
         offset="0"
         stop-color="#fff"
         id="stop4189" />
      <stop
         offset="1"
         stop-opacity="0"
         stop-color="#fff"
         id="stop4191" />
    </linearGradient>
    <filter
       color-interpolation-filters="sRGB"
       id="filter8074">
      <feGaussianBlur
         stdDeviation="2.0263158"
         id="feGaussianBlur8076" />
    </filter>
    <radialGradient
       inkscape:collect="always"
       xlink:href="#linearGradient7771"
       id="radialGradient4030"
       gradientUnits="userSpaceOnUse"
       gradientTransform="matrix(0.15778298,-0.09109575,0.0061643,0.01067698,12.848915,42.936505)"
       cx="116.36"
       cy="160.08"
       r="75" />
    <linearGradient
       id="linearGradient4196">
      <stop
         offset="0"
         stop-color="#fff"
         id="stop4198" />
      <stop
         offset="1"
         stop-opacity="0"
         stop-color="#ffef85"
         id="stop4200" />
    </linearGradient>
    <radialGradient
       inkscape:collect="always"
       xlink:href="#linearGradient6117"
       id="radialGradient4027"
       gradientUnits="userSpaceOnUse"
       gradientTransform="matrix(0.42790133,0,0,0.62239739,-29.519008,-114.10187)"
       cx="195.53999"
       cy="293.53"
       r="55" />
    <linearGradient
       id="linearGradient6117">
      <stop
         offset="0"
         stop-color="#ede2ca"
         id="stop6119" />
      <stop
         offset=".5"
         stop-color="#ceb476"
         id="stop6139" />
      <stop
         offset="1"
         stop-color="#926b32"
         id="stop6121" />
    </linearGradient>
    <linearGradient
       inkscape:collect="always"
       xlink:href="#linearGradient8144"
       id="linearGradient3956"
       gradientUnits="userSpaceOnUse"
       x1="212.5"
       y1="284"
       x2="244"
       y2="246" />
    <linearGradient
       id="linearGradient8144">
      <stop
         offset="0"
         id="stop8146" />
      <stop
         offset="1"
         stop-opacity="0"
         id="stop8148" />
    </linearGradient>
    <mask
       maskUnits="userSpaceOnUse"
       id="mask14451">
      <path
         style="fill:url(#linearGradient14455);filter:url(#filter14443)"
         inkscape:connector-curvature="0"
         d="m 204,250 3,37 66,-19 -69,-18 z"
         id="path14453" />
    </mask>
    <linearGradient
       x1="209"
       y1="279.5"
       x2="247"
       gradientUnits="userSpaceOnUse"
       xlink:href="#linearGradient14419"
       y2="270"
       id="linearGradient14455" />
    <linearGradient
       id="linearGradient4214">
      <stop
         offset="0"
         stop-color="#fff"
         id="stop4216" />
      <stop
         offset="1"
         stop-opacity="0"
         stop-color="#fff"
         id="stop4218" />
    </linearGradient>
    <filter
       color-interpolation-filters="sRGB"
       x="-0.1151"
       height="1.8480999"
       width="1.2302001"
       y="-0.42403999"
       id="filter14443">
      <feGaussianBlur
         stdDeviation="3.3570175"
         id="feGaussianBlur14445" />
    </filter>
    <filter
       color-interpolation-filters="sRGB"
       x="-0.12514"
       height="1.4775"
       width="1.2503"
       y="-0.23874"
       id="filter14465">
      <feGaussianBlur
         stdDeviation="3.2328947"
         id="feGaussianBlur14467" />
    </filter>
    <radialGradient
       inkscape:collect="always"
       xlink:href="#linearGradient14419"
       id="radialGradient3958"
       gradientUnits="userSpaceOnUse"
       gradientTransform="matrix(2.6944,-1.6238,0.54787,0.9091,-669.67,518.92)"
       cx="303.73001"
       cy="282.97"
       r="13.108" />
    <linearGradient
       id="linearGradient4225">
      <stop
         offset="0"
         stop-color="#fff"
         id="stop4227" />
      <stop
         offset="1"
         stop-opacity="0"
         stop-color="#fff"
         id="stop4229" />
    </linearGradient>
    <mask
       maskUnits="userSpaceOnUse"
       id="mask8359">
      <path
         style="fill:#ffffff"
         inkscape:connector-curvature="0"
         transform="translate(0,652.36)"
         d="m 100,195 v 96.875 c 0.45119,4.0533 0.79854,3.649 3.2812,5 l 95.361,54.492 c 3.782,1.9859 7.7909,2.8376 12.51,0.13916 l 92.285,-52.405 c 6.3295,-3.5457 6.6848,-6.7851 6.5625,-10 v -94.1 l -105,50 -105,-50 z"
         id="path8361" />
    </mask>
    <radialGradient
       inkscape:collect="always"
       xlink:href="#linearGradient6170"
       id="radialGradient3960"
       gradientUnits="userSpaceOnUse"
       gradientTransform="matrix(1.7068,0,0,2.4826,-97.917,-422.2)"
       cx="177.48"
       cy="292.04999"
       r="55" />
    <linearGradient
       id="linearGradient4234">
      <stop
         offset="0"
         stop-color="#fefdfc"
         id="stop4236" />
      <stop
         offset="1"
         stop-color="#dba932"
         id="stop4238" />
    </linearGradient>
    <filter
       color-interpolation-filters="sRGB"
       id="filter7300">
      <feGaussianBlur
         stdDeviation="1.7142857"
         id="feGaussianBlur7302" />
    </filter>
    <linearGradient
       inkscape:collect="always"
       xlink:href="#linearGradient14419"
       id="linearGradient3962"
       gradientUnits="userSpaceOnUse"
       x1="223"
       y1="281.5"
       x2="210"
       y2="249.5" />
    <linearGradient
       id="linearGradient4243">
      <stop
         offset="0"
         stop-color="#fff"
         id="stop4245" />
      <stop
         offset="1"
         stop-opacity="0"
         stop-color="#fff"
         id="stop4247" />
    </linearGradient>
    <mask
       maskUnits="userSpaceOnUse"
       id="mask4249">
      <path
         style="fill:url(#linearGradient14455);filter:url(#filter14443)"
         inkscape:connector-curvature="0"
         d="m 204,250 3,37 66,-19 -69,-18 z"
         id="path4251" />
    </mask>
    <linearGradient
       x1="209"
       y1="279.5"
       x2="247"
       gradientUnits="userSpaceOnUse"
       xlink:href="#linearGradient14419"
       y2="270"
       id="linearGradient4253" />
    <linearGradient
       id="linearGradient4255">
      <stop
         offset="0"
         stop-color="#fff"
         id="stop4257" />
      <stop
         offset="1"
         stop-opacity="0"
         stop-color="#fff"
         id="stop4259" />
    </linearGradient>
    <filter
       color-interpolation-filters="sRGB"
       x="-0.1151"
       height="1.8480999"
       width="1.2302001"
       y="-0.42403999"
       id="filter4261">
      <feGaussianBlur
         stdDeviation="3.3570175"
         id="feGaussianBlur4263" />
    </filter>
    <filter
       color-interpolation-filters="sRGB"
       x="-0.1151"
       height="1.8480999"
       width="1.2302001"
       y="-0.42403999"
       id="filter4265">
      <feGaussianBlur
         stdDeviation="3.3570175"
         id="feGaussianBlur4267" />
    </filter>
    <linearGradient
       inkscape:collect="always"
       xlink:href="#linearGradient8403"
       id="linearGradient3964"
       gradientUnits="userSpaceOnUse"
       x1="89.285004"
       y1="276.16"
       x2="320.73001"
       y2="276.16" />
    <linearGradient
       x1="89.285004"
       y1="276.16"
       x2="320.73001"
       gradientUnits="userSpaceOnUse"
       y2="276.16"
       id="linearGradient8403">
      <stop
         offset="0"
         stop-opacity=".75285"
         id="stop8190" />
      <stop
         offset="1"
         stop-color="#fff"
         id="stop8192" />
    </linearGradient>
    <mask
       maskUnits="userSpaceOnUse"
       id="mask8351">
      <path
         style="fill:#ffffff"
         inkscape:connector-curvature="0"
         d="m 100,195 v 96.875 c 0.45119,4.0533 0.79854,3.649 3.2812,5 l 95.361,54.492 c 3.782,1.9859 7.7909,2.8376 12.51,0.13916 l 92.285,-52.405 c 6.3295,-3.5457 6.6848,-6.7851 6.5625,-10 v -94.1 l -105,50 -105,-50 z"
         id="path8353" />
    </mask>
    <filter
       color-interpolation-filters="sRGB"
       id="filter8178">
      <feGaussianBlur
         stdDeviation="3.6312357"
         id="feGaussianBlur8180" />
    </filter>
    <radialGradient
       inkscape:collect="always"
       xlink:href="#linearGradient14419"
       id="radialGradient3968"
       gradientUnits="userSpaceOnUse"
       gradientTransform="matrix(2.6944,-1.6238,0.54787,0.9091,-669.67,518.92)"
       cx="303.73001"
       cy="282.97"
       r="13.108" />
    <linearGradient
       id="linearGradient4278">
      <stop
         offset="0"
         stop-color="#fff"
         id="stop4280" />
      <stop
         offset="1"
         stop-opacity="0"
         stop-color="#fff"
         id="stop4282" />
    </linearGradient>
    <radialGradient
       inkscape:collect="always"
       xlink:href="#linearGradient6117"
       id="radialGradient4001"
       gradientUnits="userSpaceOnUse"
       gradientTransform="matrix(0.43988497,0.11787092,-0.08250914,0.30793954,-9.1448382,-37.739992)"
       cx="148.11"
       cy="254.41"
       r="75" />
    <linearGradient
       id="linearGradient4285">
      <stop
         offset="0"
         stop-color="#ede2ca"
         id="stop4287" />
      <stop
         offset=".5"
         stop-color="#ceb476"
         id="stop4289" />
      <stop
         offset="1"
         stop-color="#926b32"
         id="stop4291" />
    </linearGradient>
    <linearGradient
       inkscape:collect="always"
       xlink:href="#linearGradient6117"
       id="linearGradient3997-1"
       gradientUnits="userSpaceOnUse"
       gradientTransform="matrix(0.25070385,0,0,0.25070385,-4.9708185,-8.2547275)"
       x1="323.09"
       y1="267.44"
       x2="-20.423"
       y2="94.901001" />
    <linearGradient
       id="linearGradient4294">
      <stop
         offset="0"
         stop-color="#ede2ca"
         id="stop4296" />
      <stop
         offset=".5"
         stop-color="#ceb476"
         id="stop4298" />
      <stop
         offset="1"
         stop-color="#926b32"
         id="stop4300" />
    </linearGradient>
    <radialGradient
       inkscape:collect="always"
       xlink:href="#linearGradient7771"
       id="radialGradient3994"
       gradientUnits="userSpaceOnUse"
       gradientTransform="matrix(0.25070385,0,0,0.16112235,-4.9708185,13.675613)"
       cx="251"
       cy="198.91"
       r="77.5" />
    <linearGradient
       id="linearGradient4303">
      <stop
         offset="0"
         stop-color="#fff"
         id="stop4305" />
      <stop
         offset="1"
         stop-opacity="0"
         stop-color="#ffef85"
         id="stop4307" />
    </linearGradient>
    <radialGradient
       inkscape:collect="always"
       xlink:href="#linearGradient7771"
       id="radialGradient3991"
       gradientUnits="userSpaceOnUse"
       gradientTransform="matrix(0.25930299,0.06948257,-0.04863655,0.18151711,9.8076521,-3.0967539)"
       cx="138.82001"
       cy="224.37"
       r="75" />
    <linearGradient
       id="linearGradient4310">
      <stop
         offset="0"
         stop-color="#fff"
         id="stop4312" />
      <stop
         offset="1"
         stop-opacity="0"
         stop-color="#ffef85"
         id="stop4314" />
    </linearGradient>
    <radialGradient
       inkscape:collect="always"
       xlink:href="#linearGradient7771"
       id="radialGradient3978"
       gradientUnits="userSpaceOnUse"
       gradientTransform="matrix(1.9368,0,0,1.4626,-241.23,-101.78)"
       cx="257.5"
       cy="220"
       r="55.132" />
    <linearGradient
       id="linearGradient4317">
      <stop
         offset="0"
         stop-color="#fff"
         id="stop4319" />
      <stop
         offset="1"
         stop-opacity="0"
         stop-color="#ffef85"
         id="stop4321" />
    </linearGradient>
    <mask
       maskUnits="userSpaceOnUse"
       id="mask7935">
      <path
         style="fill:#ffffff"
         inkscape:connector-curvature="0"
         d="M 255,294.62 205,245 l 105,-50 50,40 -105,59.615 z"
         id="path7937-1" />
    </mask>
    <filter
       color-interpolation-filters="sRGB"
       id="filter7863">
      <feGaussianBlur
         stdDeviation="0.95175439"
         id="feGaussianBlur7865" />
    </filter>
    <radialGradient
       inkscape:collect="always"
       xlink:href="#linearGradient7771"
       id="radialGradient3980"
       gradientUnits="userSpaceOnUse"
       gradientTransform="matrix(2.0585,0,0,1.5293,-161.42,-116.44)"
       cx="152.5"
       cy="220"
       r="52.5" />
    <linearGradient
       id="linearGradient4328">
      <stop
         offset="0"
         stop-color="#fff"
         id="stop4330" />
      <stop
         offset="1"
         stop-opacity="0"
         stop-color="#ffef85"
         id="stop4332" />
    </linearGradient>
    <mask
       maskUnits="userSpaceOnUse"
       id="mask7941">
      <path
         style="fill:#ffffff"
         inkscape:connector-curvature="0"
         d="m 160,300 45,-55 -105,-50 -45,45 105,60 z"
         id="path7943-6" />
    </mask>
    <filter
       color-interpolation-filters="sRGB"
       id="filter7881">
      <feGaussianBlur
         stdDeviation="1.3596491"
         id="feGaussianBlur7883" />
    </filter>
    <linearGradient
       inkscape:collect="always"
       xlink:href="#linearGradient8046"
       id="linearGradient3986"
       gradientUnits="userSpaceOnUse"
       gradientTransform="matrix(-0.25070385,0.00119237,0,0.25070385,98.717758,-7.3170611)"
       x1="254.46001"
       y1="266.13"
       x2="359.59"
       y2="266.13" />
    <linearGradient
       id="linearGradient4339">
      <stop
         offset="0"
         stop-color="#d2b77b"
         id="stop4341" />
      <stop
         offset=".5"
         stop-color="#ceb476"
         id="stop4343" />
      <stop
         offset="1"
         stop-color="#926b32"
         id="stop4345" />
    </linearGradient>
    <linearGradient
       inkscape:collect="always"
       xlink:href="#linearGradient3815"
       id="linearGradient4999"
       gradientUnits="userSpaceOnUse"
       gradientTransform="matrix(1.2064957,0,0,1.2064957,-326.94029,775.45566)"
       x1="401.29074"
       y1="22.914968"
       x2="335.61041"
       y2="452.23996" />
    <linearGradient
       inkscape:collect="always"
       xlink:href="#linearGradient3927"
       id="linearGradient5001"
       gradientUnits="userSpaceOnUse"
       x1="419.11514"
       y1="-27.717825"
       x2="404.26071"
       y2="81.883369" />
    <linearGradient
       inkscape:collect="always"
       xlink:href="#linearGradient3815-9"
       id="linearGradient4999-6"
       gradientUnits="userSpaceOnUse"
       gradientTransform="matrix(1.2064957,0,0,1.2064957,-326.94029,775.45566)"
       x1="401.29074"
       y1="22.914968"
       x2="335.61041"
       y2="452.23996" />
    <linearGradient
       id="linearGradient3815-9">
      <stop
         style="stop-color:#ffffff;stop-opacity:1;"
         offset="0"
         id="stop3817-2" />
      <stop
         style="stop-color:#a5a5a5;stop-opacity:1;"
         offset="1"
         id="stop3819-3" />
    </linearGradient>
    <filter
       color-interpolation-filters="sRGB"
       inkscape:collect="always"
       id="filter3880-9"
       x="-0.84898818"
       width="2.6979764"
       y="-0.63366592"
       height="2.2673318">
      <feGaussianBlur
         inkscape:collect="always"
         stdDeviation="20.637391"
         id="feGaussianBlur3882-7" />
    </filter>
    <filter
       color-interpolation-filters="sRGB"
       inkscape:collect="always"
       id="filter3862-9"
       x="-0.20169964"
       width="1.4033993"
       y="-0.18064831"
       height="1.3612967">
      <feGaussianBlur
         inkscape:collect="always"
         stdDeviation="3.884344"
         id="feGaussianBlur3864-9" />
    </filter>
    <linearGradient
       inkscape:collect="always"
       xlink:href="#linearGradient3927-5"
       id="linearGradient5001-5"
       gradientUnits="userSpaceOnUse"
       x1="419.11514"
       y1="-27.717825"
       x2="404.26071"
       y2="81.883369" />
    <linearGradient
       id="linearGradient3927-5">
      <stop
         id="stop3929-7"
         offset="0"
         style="stop-color:#9d9d9d;stop-opacity:1;" />
      <stop
         id="stop3931-7"
         offset="1"
         style="stop-color:#ffffff;stop-opacity:1;" />
    </linearGradient>
    <linearGradient
       inkscape:collect="always"
       xlink:href="#linearGradient3927-5"
       id="linearGradient5076"
       gradientUnits="userSpaceOnUse"
       x1="419.11514"
       y1="-27.717825"
       x2="404.26071"
       y2="81.883369"
       gradientTransform="matrix(0.60498917,-0.04565713,0.04818734,0.63851628,-79.286533,852.29411)" />
    <linearGradient
       inkscape:collect="always"
       xlink:href="#linearGradient3815-9"
       id="linearGradient5081"
       gradientUnits="userSpaceOnUse"
       gradientTransform="matrix(0.67519586,-0.05095547,0.05095547,0.67519586,-124.65186,49.62363)"
       x1="401.29074"
       y1="22.914968"
       x2="335.61041"
       y2="452.23996" />
    <linearGradient
       inkscape:collect="always"
       xlink:href="#linearGradient3927"
       id="linearGradient5085"
       gradientUnits="userSpaceOnUse"
       x1="419.11514"
       y1="-27.717825"
       x2="404.26071"
       y2="81.883369"
       gradientTransform="matrix(0.56169301,-0.22934131,0.24205088,0.59282074,-128.27808,907.04083)" />
    <linearGradient
       inkscape:collect="always"
       xlink:href="#linearGradient3815"
       id="linearGradient5090"
       gradientUnits="userSpaceOnUse"
       gradientTransform="matrix(0.62687534,-0.25595549,0.25595549,0.62687534,-173.01574,117.57541)"
       x1="401.29074"
       y1="22.914968"
       x2="335.61041"
       y2="452.23996" />
    <filter
       inkscape:collect="always"
       id="filter5156"
       x="-0.19428026"
       width="1.3885605"
       y="-0.11903085"
       height="1.2380617">
      <feGaussianBlur
         inkscape:collect="always"
         stdDeviation="3.9888072"
         id="feGaussianBlur5158" />
    </filter>
    <linearGradient
       inkscape:collect="always"
       xlink:href="#linearGradient3815-9"
       id="linearGradient5160"
       gradientUnits="userSpaceOnUse"
       gradientTransform="matrix(0.67519586,-0.05095547,0.05095547,0.67519586,-121.53678,847.68496)"
       x1="401.29074"
       y1="22.914968"
       x2="335.61041"
       y2="452.23996" />
    <linearGradient
       inkscape:collect="always"
       xlink:href="#linearGradient3815"
       id="linearGradient5162"
       gradientUnits="userSpaceOnUse"
       gradientTransform="matrix(0.62687534,-0.25595549,0.25595549,0.62687534,-169.90066,915.63674)"
       x1="401.29074"
       y1="22.914968"
       x2="335.61041"
       y2="452.23996" />
    <radialGradient
       inkscape:collect="always"
       xlink:href="#linearGradient6170"
       id="radialGradient5222"
       gradientUnits="userSpaceOnUse"
       gradientTransform="matrix(1.9184,0,0,1.0049,4299.0328,3355.0188)"
       cx="207.25999"
       cy="183.8"
       r="105" />
    <linearGradient
       inkscape:collect="always"
       xlink:href="#linearGradient8046"
       id="linearGradient5224"
       gradientUnits="userSpaceOnUse"
       gradientTransform="matrix(0.25070385,0,0,0.25070385,-5.2394417,-7.5377202)"
       spreadMethod="repeat"
       x1="60.895"
       y1="195.46001"
       x2="61.276001"
       y2="198.83" />
    <linearGradient
       inkscape:collect="always"
       xlink:href="#linearGradient8046"
       id="linearGradient5226"
       gradientUnits="userSpaceOnUse"
       gradientTransform="matrix(0.25070385,0,0,0.25070385,-5.2394417,-7.5377202)"
       spreadMethod="repeat"
       x1="331.57001"
       y1="194.61"
       x2="331.57999"
       y2="192.09" />
    <linearGradient
       inkscape:collect="always"
       xlink:href="#linearGradient8046"
       id="linearGradient5228"
       gradientUnits="userSpaceOnUse"
       gradientTransform="matrix(0.25070385,0,0,0.25070385,-4.9708185,-8.2547275)"
       x1="235.78999"
       y1="204.42999"
       x2="159.86"
       y2="122" />
    <radialGradient
       inkscape:collect="always"
       xlink:href="#linearGradient14419"
       id="radialGradient5230"
       gradientUnits="userSpaceOnUse"
       gradientTransform="matrix(1,0,0,0.58716,4489.6228,3425.9206)"
       cx="257.5"
       cy="165"
       r="54.5" />
    <radialGradient
       inkscape:collect="always"
       xlink:href="#linearGradient7771"
       id="radialGradient5232"
       gradientUnits="userSpaceOnUse"
       gradientTransform="matrix(0.16801671,0.07616132,-0.00717916,0.01583746,17.536589,11.999921)"
       cx="259.51001"
       cy="112.05"
       r="77.5" />
    <radialGradient
       inkscape:collect="always"
       xlink:href="#linearGradient14419"
       id="radialGradient5234"
       gradientUnits="userSpaceOnUse"
       gradientTransform="matrix(0.61773,-0.3828,0.09216,0.14872,4551.2388,3547.2616)"
       cx="116.36"
       cy="160.08"
       r="75" />
    <radialGradient
       inkscape:collect="always"
       xlink:href="#linearGradient14419"
       id="radialGradient5236"
       gradientUnits="userSpaceOnUse"
       gradientTransform="matrix(1,0,0,0.57143,4489.6228,3428.5156)"
       cx="152.5"
       cy="165"
       r="52.5" />
    <radialGradient
       inkscape:collect="always"
       xlink:href="#linearGradient7771"
       id="radialGradient5238"
       gradientUnits="userSpaceOnUse"
       gradientTransform="matrix(0.15778298,-0.09109575,0.0061643,0.01067698,12.848915,42.936505)"
       cx="116.36"
       cy="160.08"
       r="75" />
    <radialGradient
       inkscape:collect="always"
       xlink:href="#linearGradient6117"
       id="radialGradient5240"
       gradientUnits="userSpaceOnUse"
       gradientTransform="matrix(0.42790133,0,0,0.62239739,-29.519008,-114.10187)"
       cx="195.53999"
       cy="293.53"
       r="55" />
    <linearGradient
       inkscape:collect="always"
       xlink:href="#linearGradient8144"
       id="linearGradient5242"
       gradientUnits="userSpaceOnUse"
       x1="212.5"
       y1="284"
       x2="244"
       y2="246" />
    <radialGradient
       inkscape:collect="always"
       xlink:href="#linearGradient14419"
       id="radialGradient5244"
       gradientUnits="userSpaceOnUse"
       gradientTransform="matrix(2.6944,-1.6238,0.54787,0.9091,-669.67,518.92)"
       cx="303.73001"
       cy="282.97"
       r="13.108" />
    <radialGradient
       inkscape:collect="always"
       xlink:href="#linearGradient6170"
       id="radialGradient5246"
       gradientUnits="userSpaceOnUse"
       gradientTransform="matrix(1.7068,0,0,2.4826,-97.917,-422.2)"
       cx="177.48"
       cy="292.04999"
       r="55" />
    <linearGradient
       inkscape:collect="always"
       xlink:href="#linearGradient14419"
       id="linearGradient5248"
       gradientUnits="userSpaceOnUse"
       x1="223"
       y1="281.5"
       x2="210"
       y2="249.5" />
    <linearGradient
       inkscape:collect="always"
       xlink:href="#linearGradient8403"
       id="linearGradient5250"
       gradientUnits="userSpaceOnUse"
       x1="89.285004"
       y1="276.16"
       x2="320.73001"
       y2="276.16" />
    <radialGradient
       inkscape:collect="always"
       xlink:href="#linearGradient14419"
       id="radialGradient5252"
       gradientUnits="userSpaceOnUse"
       gradientTransform="matrix(2.6944,-1.6238,0.54787,0.9091,-669.67,518.92)"
       cx="303.73001"
       cy="282.97"
       r="13.108" />
    <radialGradient
       inkscape:collect="always"
       xlink:href="#linearGradient6117"
       id="radialGradient5254"
       gradientUnits="userSpaceOnUse"
       gradientTransform="matrix(0.43988497,0.11787092,-0.08250914,0.30793954,-9.1448382,-37.739992)"
       cx="148.11"
       cy="254.41"
       r="75" />
    <linearGradient
       inkscape:collect="always"
       xlink:href="#linearGradient6117"
       id="linearGradient5256"
       gradientUnits="userSpaceOnUse"
       gradientTransform="matrix(0.25070385,0,0,0.25070385,-4.9708185,-8.2547275)"
       x1="323.09"
       y1="267.44"
       x2="-20.423"
       y2="94.901001" />
    <radialGradient
       inkscape:collect="always"
       xlink:href="#linearGradient7771"
       id="radialGradient5258"
       gradientUnits="userSpaceOnUse"
       gradientTransform="matrix(0.25070385,0,0,0.16112235,-4.9708185,13.675613)"
       cx="251"
       cy="198.91"
       r="77.5" />
    <radialGradient
       inkscape:collect="always"
       xlink:href="#linearGradient7771"
       id="radialGradient5260"
       gradientUnits="userSpaceOnUse"
       gradientTransform="matrix(0.25930299,0.06948257,-0.04863655,0.18151711,9.8076521,-3.0967539)"
       cx="138.82001"
       cy="224.37"
       r="75" />
    <radialGradient
       inkscape:collect="always"
       xlink:href="#linearGradient7771"
       id="radialGradient5262"
       gradientUnits="userSpaceOnUse"
       gradientTransform="matrix(1.9368,0,0,1.4626,-241.23,-101.78)"
       cx="257.5"
       cy="220"
       r="55.132" />
    <radialGradient
       inkscape:collect="always"
       xlink:href="#linearGradient7771"
       id="radialGradient5264"
       gradientUnits="userSpaceOnUse"
       gradientTransform="matrix(2.0585,0,0,1.5293,-161.42,-116.44)"
       cx="152.5"
       cy="220"
       r="52.5" />
    <linearGradient
       inkscape:collect="always"
       xlink:href="#linearGradient8046"
       id="linearGradient5266"
       gradientUnits="userSpaceOnUse"
       gradientTransform="matrix(-0.25070385,0.00119237,0,0.25070385,98.717758,-7.3170611)"
       x1="254.46001"
       y1="266.13"
       x2="359.59"
       y2="266.13" />
    <linearGradient
       inkscape:collect="always"
       xlink:href="#linearGradient3815"
       id="linearGradient5268"
       gradientUnits="userSpaceOnUse"
       gradientTransform="matrix(0.62687534,-0.25595549,0.25595549,0.62687534,-169.90066,915.63674)"
       x1="401.29074"
       y1="22.914968"
       x2="335.61041"
       y2="452.23996" />
    <linearGradient
       inkscape:collect="always"
       xlink:href="#linearGradient3927"
       id="linearGradient5270"
       gradientUnits="userSpaceOnUse"
       gradientTransform="matrix(0.56169301,-0.22934131,0.24205088,0.59282074,-128.27808,907.04083)"
       x1="419.11514"
       y1="-27.717825"
       x2="404.26071"
       y2="81.883369" />
    <linearGradient
       inkscape:collect="always"
       xlink:href="#linearGradient3815-9"
       id="linearGradient5272"
       gradientUnits="userSpaceOnUse"
       gradientTransform="matrix(0.67519586,-0.05095547,0.05095547,0.67519586,-121.53678,847.68496)"
       x1="401.29074"
       y1="22.914968"
       x2="335.61041"
       y2="452.23996" />
    <linearGradient
       inkscape:collect="always"
       xlink:href="#linearGradient3927-5"
       id="linearGradient5274"
       gradientUnits="userSpaceOnUse"
       gradientTransform="matrix(0.60498917,-0.04565713,0.04818734,0.63851628,-79.286533,852.29411)"
       x1="419.11514"
       y1="-27.717825"
       x2="404.26071"
       y2="81.883369" />
  </defs>
  <sodipodi:namedview
     id="base"
     pagecolor="#ffffff"
     bordercolor="#666666"
     borderopacity="1.0"
     inkscape:pageopacity="0.0"
     inkscape:pageshadow="2"
     inkscape:zoom="1.7656052"
     inkscape:cx="218.55232"
     inkscape:cy="99.904245"
     inkscape:document-units="px"
     inkscape:current-layer="layer1"
     showgrid="false"
     showguides="true"
     inkscape:guide-bbox="true"
     inkscape:window-width="1913"
     inkscape:window-height="1026"
     inkscape:window-x="0"
     inkscape:window-y="26"
     inkscape:window-maximized="1" />
  <metadata
     id="metadata7">
    <rdf:RDF>
      <cc:Work
         rdf:about="">
        <dc:format>image/svg+xml</dc:format>
        <dc:type
           rdf:resource="http://purl.org/dc/dcmitype/StillImage" />
        <dc:title></dc:title>
      </cc:Work>
    </rdf:RDF>
  </metadata>
  <g
     inkscape:label="Layer 1"
     inkscape:groupmode="layer"
     id="layer1"
     transform="translate(0,-796.3622)">
    <g
       id="g5166"
       transform="matrix(0.94695117,0,0,0.94695117,5.1877932,46.222793)">
      <g
         id="g4085"
         transform="matrix(3.2951286,0,0,3.2951286,-23.960459,775.80199)">
        <path
           sodipodi:nodetypes="ccccc"
           inkscape:connector-curvature="0"
           id="path9507"
           d="m 4219.1227,3686.3016 43.5,-20 48,19.5 -44.5,25.5 z"
           style="opacity:0.8033473;fill:#000000;fill-opacity:1;fill-rule:evenodd;stroke:none;filter:url(#filter17196)"
           transform="matrix(0.59880351,0,0,0.59880351,-2507.3941,-2140.7575)" />
        <path
           transform="matrix(0.25070385,0,0,0.25070385,-1130.5366,-850.06851)"
           style="fill:url(#radialGradient5222);filter:url(#filter7251)"
           inkscape:connector-curvature="0"
           id="path9511"
           d="m 4694.6228,3492.8016 -105,60 102.53,-51.523 2.8902,37.503 3.1428,13.006 -4.6859,16.794 1.13,34.22 0.6174,-33.368 6.4258,-15.943 -1.4029,-12.155 -1.1504,-36.651 100.51,48.12 -105,-60 z" />
        <path
           style="fill:url(#linearGradient5224)"
           inkscape:connector-curvature="0"
           id="path9513"
           d="m 34.873148,28.814324 11.281698,-2.507011 -26.323882,15.042243 -9.38361,1.10132 -0.376049,-0.564073 24.801843,-13.071701 z" />
        <path
           style="fill:url(#linearGradient5226)"
           inkscape:connector-curvature="0"
           id="path9515"
           d="m 54.929473,28.719054 -8.774627,-2.411741 26.323881,15.042243 h 8.774627 L 81.521977,40.633268 54.929832,28.719832 z" />
        <path
           style="fill:url(#linearGradient5228)"
           inkscape:connector-curvature="0"
           id="path9517"
           d="M 46.423469,25.590306 35.141771,28.097316 10.071365,41.886024 20.099528,40.632549 20.276833,65.503374 46.42269,53.16874 72.503457,65.35541 72.746632,40.633507 h 8.774627 L 55.197377,28.003065 46.42269,25.591324 z" />
        <path
           transform="matrix(0.25070385,0,0,0.25070385,-1130.5366,-850.06851)"
           style="fill:none;stroke:url(#radialGradient5230);stroke-width:4;filter:url(#filter8114)"
           inkscape:connector-curvature="0"
           id="path9519"
           d="m 4799.6228,3552.8016 -105,-60" />
        <path
           style="fill:url(#radialGradient5232)"
           inkscape:connector-curvature="0"
           id="path9521"
           d="m 55.198096,28.002047 -8.774627,-2.411741 0.105449,11.527326 20.146565,6.863786 6.072047,-3.349408 h 8.774627 L 55.198276,28.002825 z" />
        <path
           transform="matrix(0.25070385,0,0,0.25070385,-1130.5366,-850.06851)"
           style="fill:url(#radialGradient5234);stroke:url(#radialGradient5236);stroke-width:4;filter:url(#filter8074)"
           inkscape:connector-curvature="0"
           id="path9523"
           d="m 4589.6228,3552.8016 105,-60" />
        <path
           style="fill:url(#radialGradient5238)"
           inkscape:connector-curvature="0"
           id="path9601"
           d="M 10.071365,41.886024 20.099528,40.632549 27.829722,43.58986 44.856819,34.447927 46.423708,25.58803 35.142011,28.095101 10.071665,41.883809 z" />
        <path
           style="fill:url(#radialGradient5240)"
           inkscape:connector-curvature="0"
           id="path9603"
           d="m 20.099528,40.632549 v 24.286932 c 0.113114,1.016169 0.20018,0.914792 0.822636,1.253475 l 23.90735,13.661403 c 0.948145,0.497845 1.953237,0.711378 3.136293,0.03473 L 71.102018,66.730981 C 72.688847,65.842057 72.777949,65.02996 72.74729,64.22397 V 40.632729 L 46.423349,53.167902 20.099468,40.632729 z" />
        <path
           style="fill:url(#linearGradient5242);filter:url(#filter14465)"
           inkscape:connector-curvature="0"
           id="path9605"
           d="M 236.5,237.5 211,286.5 273,268 236.5,237.5 z"
           mask="url(#mask14451)"
           transform="matrix(-0.25070385,0,0,-0.25070385,98.820572,125.00438)" />
        <g
           id="g9607"
           transform="matrix(0.25070385,0,0,0.25070385,-11.08077,-197.83197)">
          <path
             style="opacity:0.20284998;fill:#ffffff"
             inkscape:connector-curvature="0"
             id="path9609"
             d="m 304,261.34 c 6.9351,14.997 15.638,21.145 10.964,35.08 l -14.622,7.1492 -0.37163,0.6492 15.757,-7.4516 c 4.6459,-18.236 -6.502,-23.837 -10.253,-35.355 l -0.0992,-1.6967 -1.375,1.625 z"
             transform="translate(62,734.36)" />
          <path
             style="opacity:0.20284998;fill:#ffffff"
             inkscape:connector-curvature="0"
             id="path9611"
             d="m 290.62,266.71 c 10.685,12.997 16.888,25.77 8.8388,37.83 l 16.263,-7.7782 c 4.6459,-18.236 -6.502,-23.837 -10.253,-35.355 l -14.849,5.3033 z"
             transform="translate(62,734.36)" />
          <path
             style="fill:url(#radialGradient5244)"
             inkscape:connector-curvature="0"
             id="path9613"
             d="m 290.62,266.71 c 10.685,12.997 16.888,25.77 8.8388,37.83 l 16.263,-7.7782 c 4.6459,-18.236 -6.502,-23.837 -10.253,-35.355 l -14.849,5.3033 z"
             transform="translate(62,734.36)" />
        </g>
        <g
           id="g9615"
           mask="url(#mask8359)"
           transform="matrix(0.25070385,0,0,0.25070385,-4.9708185,-171.80389)">
          <g
             id="g9617">
            <path
               style="fill:url(#radialGradient5246);filter:url(#filter7300)"
               inkscape:connector-curvature="0"
               id="path9619"
               d="m 203.57,351.29 1.0714,9.4286 105.36,-65.34 -101.54,50.72 -3.82,-33.87 6.65,-18.05 -4.86,-16.41 -1.43,-32.77 -0.71429,32.857 3.2143,17.5 -6.7857,16.429 2.8571,39.5 z"
               transform="translate(0,652.36)" />
          </g>
        </g>
        <path
           style="fill:url(#linearGradient5248);filter:url(#filter14443)"
           inkscape:connector-curvature="0"
           id="path9621"
           d="m 204,250 3,37 66,-19 -69,-18 z"
           mask="url(#mask14451)"
           transform="matrix(0.25070385,0,0,0.25070385,-4.9708185,-5.747657)" />
        <path
           inkscape:connector-curvature="0"
           id="path9623"
           style="text-indent:0;text-transform:none;block-progression:tb;color:#000000;fill:url(#linearGradient5250);filter:url(#filter8178)"
           d="m 98,195 v 97.094 c 0.23265,2.09 0.39766,3.3726 1.3125,4.5312 0.90752,1.1494 1.847,1.3943 2.9688,2 0.009,0.005 0.0222,-0.005 0.0312,0 l 101.69,58.13 1,0.5625 1,-0.5625 98.406,-55.906 c 0.0146,-0.008 0.0167,-0.0231 0.0312,-0.0312 3.3512,-1.8844 5.3787,-3.8201 6.4688,-5.9062 1.0825,-2.0717 1.1551,-4.117 1.0938,-5.8125 -7e-4,-0.0192 7.3e-4,-0.0434 0,-0.0625 v -94.03 h -4 v 94.188 c 0.0574,1.5084 0.01,2.6603 -0.625,3.875 -0.63468,1.2147 -1.9541,2.6275 -4.9062,4.2812 v 0.0312 h -0.0312 l -97.44,58.81 -100.72,-61.07 h -0.0312 c -1.3493,-0.73422 -1.8202,-0.97849 -1.8125,-0.96875 0.008,0.01 -0.21896,-0.53672 -0.4375,-2.5 v -96.65 h -4 z"
           mask="url(#mask8351)"
           transform="matrix(0.25070385,0,0,0.25070385,-4.9708185,-8.2547275)" />
        <g
           style="opacity:0.70107003"
           id="g9625"
           transform="matrix(0.03272187,0.01874463,0,0.04991764,50.133835,27.653603)">
          <path
             inkscape:connector-curvature="0"
             id="path9627"
             d="m -375,260 c -33.137,0 -60,26.863 -60,60 0,-8.2843 6.7157,-15 15,-15 8.2843,0 15,6.7157 15,15 0,-8.2843 6.7157,-15 15,-15 3.8234,0 7.2883,1.4575 9.9375,3.8125 v 65.938 H -380 c 0,8.2843 -6.7157,15 -15,15 -8.2843,0 -15,-6.7157 -15,-15 h -10 c 0,13.807 11.193,25 25,25 13.807,0 25,-11.193 25,-25 v -65.875 c 2.6571,-2.3901 6.1448,-3.875 10,-3.875 8.2843,0 15,6.7157 15,15 0,-8.2843 6.7157,-15 15,-15 8.2843,0 15,6.7157 15,15 0,-33.137 -26.863,-60 -60,-60 z"
             transform="translate(0,652.36)" />
          <rect
             id="rect9629"
             transform="matrix(1,0,0,0.66667,5,785.7)"
             height="15"
             width="95"
             y="385"
             x="-310" />
          <path
             inkscape:connector-curvature="0"
             id="path9631"
             d="m -285,260 -20,40 h 15 v 80 h 10 v -80 h 15 l -20,-40 z"
             transform="translate(0,652.36)" />
          <path
             inkscape:connector-curvature="0"
             id="path9633"
             d="m -285,260 -20,40 h 15 v 80 h 10 v -80 h 15 l -20,-40 z"
             transform="translate(55,652.36)" />
          <path
             inkscape:connector-curvature="0"
             id="path9635"
             d="m -740,260 v 16.625 l 7.22,-16.62 H -740 z m 18.125,0 -13,30 h 41.469 l 6.5938,-15.125 -4.0312,-14.875 h -31.031 z m 52.469,0 -2.9375,6.7188 15.812,23.281 h 2.625 l 2.4062,-30 h -17.906 z m 27.938,0 -2.4688,30 h 18.062 l -6.75,-30 h -8.8438 z m 19.094,0 6.75,30 h 11.375 l 8.1875,-30 h -26.312 z m 36.625,0 -3.5625,13.094 6.7812,-11 -0.125,-2.0938 h -3.0938 z m 16.219,0 -0.625,1.0312 c 0.25722,-0.31309 0.56571,-0.69021 0.84375,-1.0312 H -569.53 z m 13.094,0 c -0.28333,0.34348 -0.52746,0.65421 -0.8125,1 -4.2338,5.1361 -9.6977,11.955 -14.281,17.562 l 0.1875,3.5 25.625,-22.062 h -10.719 z m 26.031,0 -34.844,30 h 48.375 l 8.25,-20.969 c -0.10518,-2.848 -0.18448,-5.9693 -0.28125,-9.0312 h -21.5 z m 36.094,0 -4.25,10.781 c 0.22309,6.1866 0.42437,12.655 0.625,19.219 h 37.938 v -30 h -34.312 z m -180.59,20.688 2.5,9.3125 h 3.8125 l -6.3125,-9.3125 z m 31.875,29.312 14.469,21.344 4.5,-3.875 c 1.6916,-2.1038 3.4801,-4.3556 5.1562,-6.4375 l -2.47,-11.02 h -21.656 z m 54.531,0 -14.219,12.25 -3.0938,11.375 1.4375,6.375 h 26.406 l -1.75,-30 h -8.7812 z m 18.812,0 1.7812,30 h 31.312 l 11.812,-30 h -44.906 z m 55.688,0 -11.812,30 h 19.125 c -0.20096,-10.186 -0.44144,-20.224 -0.6875,-30 h -6.625 z m 16.625,0 c 0.25215,9.7769 0.48554,19.73 0.6875,30 h 36.688 v -30 h -37.375 z m -149.19,12.562 -1.4062,17.438 h 9.375 l 2.4375,-2.0938 -10.406,-15.344 z m 29.344,14.938 -1.5312,2.5 h 0.84375 l 0.6875,-2.5 z m -202.77,32.5 v 30 h 26.531 l 13,-30 h -39.53 z m 50.438,0 -13,30 h 41.188 l 13.094,-30 h -41.281 z m 52.219,0 -13.094,30 h 9.25 l 8.25,-30 h -4.4062 z m 14.75,0 -8.25,30 h 2.5625 l 34.844,-30 h -29.156 z m 65.375,0 -9.4062,15.312 3.9688,14.688 h 8.375 l 8.2188,-30 h -11.156 z m 21.469,0 -8.1875,30 h 22.812 l -3.5,-15.531 L -614.423,370 h -1.3125 z m 18.125,0 2.3438,10.438 13.25,19.562 h 7.5938 l -1.7812,-30 h -21.406 z m 31.469,0 1.7812,30 h 4.1562 l 11.812,-30 h -17.75 z m 28.5,0 -11.812,30 h 43.688 c -0.11226,-9.7187 -0.25558,-19.688 -0.40625,-30 h -31.469 z m 41.469,0 c 0.14683,10.098 0.26259,20.106 0.375,30 h 35.812 v -30 h -36.188 z m -164.38,2.0625 -32.44,27.94 h 10.938 c 4.6546,-5.8647 9.4119,-11.861 14.406,-18.125 2.3686,-2.9707 4.6312,-5.7511 7,-8.7188 l 0.0937,-1.0938 z m -1.5312,18.906 c -2.4664,3.0946 -4.778,6.0034 -7.1875,9.0312 h 1.875 l 5.25,-8.5312 0.0625,-0.5 z"
             transform="translate(0,652.36)" />
        </g>
        <path
           style="fill:#726038"
           inkscape:connector-curvature="0"
           id="path9637"
           d="M 34.873148,67.673438 46.154846,53.884729 19.830964,41.349556 8.5492666,52.631194 34.873148,67.673438 z" />
        <g
           id="g9641"
           transform="matrix(0.25070385,0,0,0.25070385,-27.168405,-188.25907)">
          <path
             style="opacity:0.20284998;fill:#ffffff"
             inkscape:connector-curvature="0"
             id="path9643"
             d="m 304,261.34 c 6.9351,14.997 15.638,21.145 10.964,35.08 l -14.622,7.1492 -0.37163,0.6492 15.757,-7.4516 c 4.6459,-18.236 -6.502,-23.837 -10.253,-35.355 l -0.0992,-1.6967 -1.375,1.625 z"
             transform="translate(62,734.36)" />
          <path
             style="opacity:0.20284998;fill:#ffffff"
             inkscape:connector-curvature="0"
             id="path9645"
             d="m 290.62,266.71 c 10.685,12.997 16.888,25.77 8.8388,37.83 l 16.263,-7.7782 c 4.6459,-18.236 -6.502,-23.837 -10.253,-35.355 l -14.849,5.3033 z"
             transform="translate(62,734.36)" />
          <path
             style="fill:url(#radialGradient5252)"
             inkscape:connector-curvature="0"
             id="path9647"
             d="m 290.62,266.71 c 10.685,12.997 16.888,25.77 8.8388,37.83 l 16.263,-7.7782 c 4.6459,-18.236 -6.502,-23.837 -10.253,-35.355 l -14.849,5.3033 z"
             transform="translate(62,734.36)" />
        </g>
        <path
           style="fill:#a38a50"
           inkscape:connector-curvature="0"
           id="path9649"
           d="M 58.690019,66.324633 46.154846,53.884729 46.42311,53.167722 72.478727,41.349556 85.01396,51.377719 58.690019,66.323435 z" />
        <path
           style="fill:url(#radialGradient5254)"
           inkscape:connector-curvature="0"
           id="path9651"
           d="M 35.141771,66.95643 46.423469,53.167722 20.099528,40.632549 8.5044761,51.976882 35.141771,66.95643 z" />
        <path
           style="fill:#decca2"
           inkscape:connector-curvature="0"
           id="path9653"
           d="m 59.094031,66.094034 c -0.222755,0.126407 -0.328803,0.03054 -0.236228,-0.214312 l 0.134671,-0.07617 c -0.06162,0.163174 0.009,0.227126 0.157246,0.142994 0.148024,-0.08389 0.317546,-0.283533 0.378983,-0.446048 0.0921,-0.243773 0.345569,-0.541977 0.56557,-0.66581 0.219341,-0.123413 0.322396,-0.02695 0.230898,0.215629 -0.06102,0.161557 0.0078,0.225569 0.153174,0.143054 0.14515,-0.08227 0.311857,-0.279342 0.372636,-0.4403 0.0912,-0.241378 0.340479,-0.535749 0.556288,-0.657187 0.21509,-0.121018 0.31551,-0.02455 0.224911,0.215629 -0.06036,0.160001 0.0066,0.224013 0.149281,0.143114 0.142396,-0.08078 0.306408,-0.27527 0.366588,-0.434671 0.09024,-0.239042 0.33551,-0.529702 0.547187,-0.648804 0.211018,-0.118742 0.308922,-0.02215 0.219222,0.21557 -0.05988,0.158503 0.006,0.222455 0.145449,0.143114 0.139701,-0.07922 0.301078,-0.271318 0.360659,-0.429163 0.08934,-0.236767 0.3306,-0.523713 0.538325,-0.6406 0.207066,-0.116527 0.302455,-0.01976 0.213653,0.215569 -0.05928,0.156947 0.006,0.220899 0.141737,0.142995 0.137126,-0.07773 0.295868,-0.267366 0.354851,-0.423714 0.0885,-0.234491 0.325928,-0.517905 0.529761,-0.632576 0.203234,-0.114371 0.296168,-0.01796 0.208264,0.21545 -0.05868,0.155449 0.006,0.219401 0.138204,0.142994 0.134551,-0.07635 0.290779,-0.263593 0.349222,-0.418504 0.0876,-0.232335 0.321258,-0.512156 0.521378,-0.624731 0.199462,-0.112276 0.29012,-0.01557 0.203054,0.215269 -0.05808,0.154013 0,0.217965 0.134731,0.142875 0.132096,-0.07485 0.285869,-0.259881 0.343713,-0.413294 0.08677,-0.23018 0.316767,-0.506588 0.513175,-0.617127 0.195869,-0.11018 0.284252,-0.01377 0.197964,0.21515 -0.05748,0.152575 0,0.216467 0.131378,0.142755 0.129761,-0.07353 0.281138,-0.256288 0.338444,-0.408324 0.08593,-0.228025 0.312336,-0.501079 0.50521,-0.609642 0.192276,-0.108144 0.278444,-0.01198 0.193054,0.21497 -0.05689,0.151198 0,0.215031 0.128085,0.142695 0.127365,-0.07222 0.276407,-0.252755 0.333174,-0.403414 0.08515,-0.225988 0.308084,-0.495749 0.497486,-0.602336 0.188862,-0.106228 0.272875,-0.01018 0.188264,0.214731 -0.05629,0.14982 0,0.213593 0.12497,0.142515 0.12509,-0.0709 0.271857,-0.249342 0.328084,-0.398624 0.08431,-0.223892 0.303893,-0.49048 0.489941,-0.59521 0.18545,-0.104372 0.267486,-0.0084 0.183593,0.214491 -0.05569,0.148503 0,0.212156 0.121917,0.142396 0.122874,-0.0697 0.267426,-0.245989 0.323174,-0.393893 0.08353,-0.221917 0.299761,-0.48539 0.482516,-0.588205 0.182216,-0.102575 0.262216,-0.0066 0.179102,0.214192 -0.05509,0.147126 0,0.210779 0.118923,0.142156 0.120718,-0.06838 0.263114,-0.242635 0.318323,-0.389282 0.08276,-0.219941 0.295809,-0.48036 0.475391,-0.581379 0.179042,-0.100718 0.257006,-0.006 0.17473,0.213893 -0.05509,0.145869 0,0.209402 0.115989,0.142036 0.118623,-0.06724 0.258922,-0.239521 0.313593,-0.384851 0.08204,-0.217964 0.291917,-0.47539 0.468384,-0.574671 0.175929,-0.09904 0.252037,-0.006 0.17048,0.213593 -0.05449,0.144551 -0.006,0.208024 0.113173,0.141796 0.116587,-0.06611 0.254851,-0.236347 0.309043,-0.380419 0.08126,-0.216109 0.288024,-0.4706 0.461438,-0.568145 0.172934,-0.09731 0.247246,0 0.166407,0.213234 -0.05389,0.143293 -0.006,0.206647 0.11042,0.141557 0.114551,-0.06491 0.250839,-0.233294 0.304551,-0.376109 0.08054,-0.214192 0.284372,-0.465809 0.454851,-0.561737 0.169941,-0.09563 0.242456,-2.4e-4 0.162336,0.212874 -0.05329,0.142097 -0.006,0.20533 0.107785,0.141378 0.112635,-0.06389 0.246886,-0.23036 0.30012,-0.371977 0.07988,-0.212395 0.280779,-0.461198 0.448324,-0.55545 0.167126,-0.09407 0.237845,0 0.158444,0.212515 -0.05269,0.140839 -0.006,0.204013 0.105209,0.141079 0.110719,-0.06276 0.243115,-0.227426 0.295869,-0.367786 0.07916,-0.210599 0.277186,-0.456647 0.441977,-0.549342 0.164252,-0.09246 0.233354,0 0.154611,0.212156 -0.05269,0.139641 -0.0066,0.202695 0.102695,0.140839 0.108862,-0.0618 0.239402,-0.224611 0.291677,-0.363773 0.07844,-0.208803 0.273713,-0.452217 0.435749,-0.543355 0.161558,-0.0909 0.228983,0.006 0.150959,0.211737 -0.0521,0.138504 -0.0072,0.201378 0.100239,0.140539 0.107067,-0.06072 0.235809,-0.221736 0.287666,-0.359761 0.07772,-0.207066 0.2703,-0.447785 0.429641,-0.537486 0.158923,-0.0894 0.224671,0.006 0.147366,0.211318 -0.0515,0.137366 -0.0078,0.20012 0.09778,0.1403 0.10539,-0.05988 0.232276,-0.219043 0.283713,-0.355989 0.07707,-0.20533 0.266947,-0.443474 0.423714,-0.531678 0.156347,-0.0879 0.220539,0.0066 0.143832,0.210899 -0.0509,0.136228 -0.0084,0.198863 0.09557,0.14 0.103593,-0.05868 0.228803,-0.216347 0.279761,-0.352156 0.07647,-0.203653 0.263713,-0.439223 0.417905,-0.525989 0.153833,-0.08653 0.216528,0.0078 0.14048,0.21036 -0.0509,0.135149 -0.009,0.197665 0.09323,0.13976 0.101977,-0.05808 0.22545,-0.213773 0.275989,-0.348443 0.07581,-0.201977 0.260539,-0.435151 0.412276,-0.52048 0.151318,-0.08521 0.212575,0.009 0.137126,0.20994 -0.0503,0.134012 -0.0096,0.196348 0.09108,0.139401 0.1003,-0.05689 0.222156,-0.211198 0.272276,-0.344791 0.07515,-0.200359 0.257426,-0.431018 0.406767,-0.51503 0.148863,-0.08383 0.208683,0.01018 0.133893,0.209461 -0.0497,0.132934 -0.01018,0.19515 0.08892,0.139102 0.09874,-0.05569 0.218983,-0.208743 0.268623,-0.341258 0.07455,-0.198683 0.254372,-0.427007 0.401378,-0.509702 0.146528,-0.08245 0.204911,0.01138 0.130779,0.208983 l -0.08838,0.0497 c 0.0497,-0.131976 0.01078,-0.194371 -0.08731,-0.139281 -0.09796,0.05509 -0.217725,0.207365 -0.267366,0.339761 -0.07449,0.198623 -0.254671,0.427605 -0.402755,0.511678 -0.148503,0.08431 -0.208443,-0.009 -0.133653,-0.208504 0.0497,-0.133054 0.01018,-0.195569 -0.0894,-0.139581 -0.09952,0.05629 -0.220959,0.209821 -0.271019,0.343294 -0.07509,0.20018 -0.257665,0.431618 -0.408144,0.517067 -0.150899,0.08569 -0.212336,-0.0078 -0.136827,-0.208983 0.0503,-0.134132 0.0096,-0.196826 -0.09156,-0.13988 -0.101198,0.05689 -0.224252,0.212336 -0.274731,0.346887 -0.07575,0.201857 -0.260779,0.435689 -0.413773,0.522516 -0.153354,0.08707 -0.216228,-0.0066 -0.14012,-0.209402 0.0509,-0.13527 0.009,-0.198024 -0.09377,-0.14018 -0.102814,0.05808 -0.227545,0.214911 -0.278503,0.3506 -0.07635,0.203473 -0.264013,0.439821 -0.419402,0.528085 -0.155869,0.0885 -0.2203,-0.006 -0.143533,-0.209941 0.0515,-0.136288 0.0084,-0.199222 -0.09605,-0.140479 -0.104552,0.05868 -0.230959,0.217605 -0.282336,0.354372 -0.07707,0.20521 -0.267306,0.444072 -0.425271,0.533773 -0.158443,0.09 -0.224431,-0.006 -0.147006,-0.2103 0.0515,-0.137485 0.0072,-0.200539 -0.09838,-0.140778 -0.106288,0.05988 -0.234492,0.220299 -0.286288,0.358204 -0.07773,0.206887 -0.2706,0.448384 -0.431259,0.539582 -0.161078,0.0915 -0.228683,0 -0.150539,-0.210719 0.0521,-0.138623 0.0072,-0.201797 -0.100838,-0.141078 -0.107965,0.0609 -0.238085,0.223054 -0.2903,0.362156 -0.07838,0.208623 -0.274013,0.452755 -0.437366,0.54557 -0.163773,0.09293 -0.232995,0 -0.154252,-0.211198 0.05269,-0.139761 0.0066,-0.203114 -0.103234,-0.141318 -0.10988,0.06192 -0.241737,0.225869 -0.294431,0.366169 -0.0791,0.210419 -0.277486,0.457246 -0.443594,0.551558 -0.166647,0.09455 -0.237545,0 -0.158084,-0.211498 0.05269,-0.141018 0.006,-0.204431 -0.105809,-0.141617 -0.111677,0.06293 -0.245509,0.228743 -0.298683,0.37024 -0.07976,0.212216 -0.281018,0.461798 -0.449941,0.557786 -0.169461,0.09617 -0.242156,0 -0.161976,-0.211917 0.05329,-0.142156 0.006,-0.205749 -0.108384,-0.141796 -0.113593,0.06401 -0.249401,0.231677 -0.303054,0.374372 -0.08048,0.214072 -0.284671,0.466467 -0.456528,0.564072 -0.172336,0.09784 -0.246827,0.006 -0.165928,-0.212216 0.05389,-0.143473 0.006,-0.207126 -0.111078,-0.142096 -0.115629,0.06515 -0.253354,0.234731 -0.307486,0.378684 -0.0812,0.215928 -0.288444,0.471258 -0.463294,0.57048 -0.17533,0.09958 -0.251677,0.006 -0.170061,-0.212516 0.05449,-0.14473 0.006,-0.208503 -0.113832,-0.142335 -0.117605,0.06629 -0.257426,0.237845 -0.312037,0.383054 -0.08198,0.217845 -0.292216,0.476049 -0.47012,0.577067 -0.178444,0.101318 -0.256707,0.006 -0.174312,-0.212814 0.05509,-0.145989 0,-0.209821 -0.116647,-0.142516 -0.119701,0.06743 -0.261617,0.240959 -0.316767,0.387486 -0.08264,0.219761 -0.296108,0.481019 -0.477186,0.583834 -0.181618,0.103114 -0.261797,0.0078 -0.178624,-0.213115 0.05569,-0.147305 0,-0.211257 -0.119581,-0.142754 -0.121856,0.06868 -0.265868,0.244252 -0.321497,0.392036 -0.08353,0.221737 -0.30018,0.486049 -0.484432,0.59072 -0.184851,0.10497 -0.267067,0.0096 -0.183174,-0.213354 0.05569,-0.148623 0,-0.212635 -0.122575,-0.142874 -0.124013,0.06982 -0.27024,0.247545 -0.326408,0.396647 -0.08425,0.223773 -0.304252,0.491259 -0.491857,0.597786 -0.188204,0.106826 -0.272456,0.01138 -0.187785,-0.213653 0.05629,-0.149941 2.39e-4,-0.214013 -0.125689,-0.143054 -0.126228,0.07114 -0.274731,0.250958 -0.331438,0.401437 -0.08503,0.225809 -0.308443,0.496528 -0.499462,0.604972 -0.191617,0.108802 -0.278024,0.01317 -0.192455,-0.213833 0.05689,-0.151318 0,-0.21551 -0.128923,-0.143174 -0.128563,0.07245 -0.279401,0.254432 -0.336587,0.406348 -0.08587,0.227845 -0.312755,0.501857 -0.507306,0.612277 -0.195091,0.110778 -0.283713,0.01497 -0.197366,-0.214013 0.05748,-0.152695 0,-0.216946 -0.132216,-0.143293 -0.130898,0.07377 -0.284072,0.258024 -0.341857,0.411258 -0.08671,0.23 -0.317186,0.507366 -0.51527,0.619881 -0.198803,0.112815 -0.289641,0.01677 -0.202456,-0.214192 0.05808,-0.154132 0,-0.218443 -0.135569,-0.143413 -0.133413,0.07515 -0.289042,0.261617 -0.347366,0.416348 -0.08755,0.232156 -0.321677,0.512995 -0.523534,0.627546 -0.202455,0.11497 -0.295629,0.01916 -0.207605,-0.214252 0.05868,-0.155629 -0.006,-0.219941 -0.139102,-0.143533 -0.135868,0.07659 -0.294012,0.265389 -0.352935,0.421617 -0.08838,0.234312 -0.326288,0.518624 -0.531917,0.635451 -0.206288,0.117126 -0.301916,0.02096 -0.212994,-0.214372 0.05928,-0.157126 -0.006,-0.221438 -0.142695,-0.143533 -0.138443,0.07796 -0.299162,0.269222 -0.358683,0.426887 -0.08922,0.236527 -0.331019,0.524552 -0.5406,0.643534 -0.21024,0.119341 -0.308324,0.02335 -0.218563,-0.214432 0.05988,-0.158623 -0.006,-0.222994 -0.146348,-0.143593 -0.141078,0.07952 -0.304432,0.273174 -0.364552,0.432396 -0.09012,0.238803 -0.335868,0.53048 -0.549462,0.651738 -0.214311,0.121677 -0.31497,0.02575 -0.224311,-0.214432 0.06048,-0.16012 -0.0066,-0.224491 -0.15018,-0.143593 -0.143833,0.08108 -0.309881,0.277246 -0.3706,0.438025 -0.09102,0.241138 -0.340899,0.536588 -0.558624,0.660241 -0.218443,0.124012 -0.321737,0.02814 -0.23018,-0.214432 0.06108,-0.161677 -0.0078,-0.226048 -0.154132,-0.143593 -0.146647,0.08264 -0.315509,0.281378 -0.376827,0.443714 -0.09198,0.243533 -0.345988,0.542875 -0.568025,0.668923" />
        <path
           style="fill:url(#linearGradient5256)"
           inkscape:connector-curvature="0"
           id="path9655"
           d="M 58.958642,65.607626 46.423469,53.167722 72.74735,40.632549 85.282523,50.660711 58.958642,65.606368 z" />
        <path
           style="fill:url(#radialGradient5258)"
           inkscape:connector-curvature="0"
           id="path9657"
           d="M 58.958642,65.607626 46.423469,53.167722 72.74735,40.632549 85.282523,50.660711 58.958642,65.606368 z" />
        <path
           style="fill:url(#radialGradient5260)"
           inkscape:connector-curvature="0"
           id="path9659"
           d="M 35.141771,66.95643 46.423469,53.167722 20.099528,40.632549 8.8178898,51.914187 35.141771,66.95643 z" />
        <path
           style="fill:none;stroke:url(#radialGradient5262);stroke-width:3;stroke-linecap:round;filter:url(#filter7863)"
           inkscape:connector-curvature="0"
           id="path9661"
           d="M 205,245 310,195 205,245 z"
           mask="url(#mask7935)"
           transform="matrix(0.25070385,0,0,0.25070385,-4.9708185,-8.2547275)" />
        <path
           style="fill:none;stroke:url(#radialGradient5264);stroke-width:4;filter:url(#filter7881)"
           inkscape:connector-curvature="0"
           id="path9663"
           d="M 205,245 100,195 205,245 z"
           mask="url(#mask7941)"
           transform="matrix(0.25070385,0,0,0.25070385,-4.9708185,-8.2547275)" />
        <path
           style="fill:url(#linearGradient5266)"
           inkscape:connector-curvature="0"
           id="path9665"
           d="m 34.652908,67.336371 c 0.222695,0.12539 0.328743,0.02934 0.236228,-0.215449 l -0.134731,-0.07551 c 0.06168,0.162874 -0.009,0.227186 -0.157186,0.143772 -0.148024,-0.08323 -0.317605,-0.282036 -0.378982,-0.444312 -0.0921,-0.243294 -0.34563,-0.5403 -0.56563,-0.663055 -0.219282,-0.122395 -0.322396,-0.02515 -0.230839,0.216707 0.06102,0.161258 -0.0078,0.225569 -0.153174,0.143773 -0.14521,-0.08162 -0.311917,-0.277905 -0.372695,-0.438504 -0.09114,-0.240959 -0.34048,-0.534133 -0.556229,-0.654552 -0.21515,-0.12006 -0.315569,-0.02276 -0.22497,0.216707 0.06042,0.159701 -0.0066,0.224012 -0.149222,0.143773 -0.142456,-0.08006 -0.306408,-0.273833 -0.366588,-0.432876 -0.0903,-0.238623 -0.335509,-0.528144 -0.547186,-0.646228 -0.211079,-0.117725 -0.308923,-0.02036 -0.219222,0.216647 0.05988,0.158144 -0.006,0.222455 -0.14545,0.143773 -0.13976,-0.07856 -0.301078,-0.269881 -0.360659,-0.427426 -0.08934,-0.236348 -0.330599,-0.522157 -0.538324,-0.638026 -0.207067,-0.115569 -0.302456,-0.01856 -0.213653,0.216528 0.05928,0.156707 -0.006,0.220958 -0.141797,0.143713 -0.137126,-0.07707 -0.295869,-0.265989 -0.354851,-0.422037 -0.08844,-0.234132 -0.325869,-0.516348 -0.529702,-0.630061 -0.203234,-0.113413 -0.296228,-0.01617 -0.208264,0.216407 0.05868,0.15521 -0.006,0.219462 -0.138203,0.143653 -0.134611,-0.07569 -0.290839,-0.262216 -0.349223,-0.416827 -0.0876,-0.231916 -0.321318,-0.510659 -0.521378,-0.622276 -0.199521,-0.111318 -0.29012,-0.01437 -0.203054,0.216288 0.05808,0.153712 0,0.217904 -0.134731,0.143533 -0.132096,-0.07425 -0.285929,-0.258564 -0.343713,-0.411738 -0.08677,-0.22976 -0.316767,-0.50503 -0.513235,-0.614611 -0.195808,-0.109282 -0.284192,-0.01257 -0.197964,0.216048 0.05748,0.152335 0,0.216467 -0.131378,0.143413 -0.1297,-0.07293 -0.281078,-0.25497 -0.338383,-0.406707 -0.08593,-0.227605 -0.312336,-0.499642 -0.505211,-0.607247 -0.192276,-0.107245 -0.278503,-0.01078 -0.193054,0.215869 0.05689,0.150958 0,0.21503 -0.128084,0.143294 -0.127426,-0.07162 -0.276468,-0.251438 -0.333234,-0.401857 -0.08509,-0.22551 -0.308025,-0.494253 -0.497426,-0.599942 -0.188863,-0.105389 -0.272935,-0.009 -0.188324,0.21563 0.05629,0.149581 0,0.213533 -0.124911,0.143114 -0.12509,-0.0703 -0.271916,-0.248025 -0.328144,-0.397067 -0.08431,-0.223533 -0.303833,-0.489043 -0.489881,-0.592875 -0.185509,-0.103474 -0.267486,-0.0072 -0.183653,0.215389 0.05569,0.148204 0,0.212156 -0.121857,0.142935 -0.122874,-0.0691 -0.267485,-0.244671 -0.323174,-0.392396 -0.08353,-0.221498 -0.299761,-0.483893 -0.482576,-0.58587 -0.182216,-0.101677 -0.262156,-0.006 -0.179102,0.215031 0.05569,0.146946 0,0.210779 -0.118862,0.142814 -0.120719,-0.0679 -0.263174,-0.241497 -0.318384,-0.387845 -0.08275,-0.219521 -0.295809,-0.478923 -0.47533,-0.579103 -0.179043,-0.09988 -0.257067,-0.006 -0.174731,0.214731 0.05509,0.145629 0,0.209342 -0.115988,0.142575 -0.118623,-0.06671 -0.258983,-0.238263 -0.313654,-0.383354 -0.08204,-0.217605 -0.291856,-0.474012 -0.468324,-0.572456 -0.175928,-0.09814 -0.252036,0 -0.170479,0.214432 0.05449,0.144252 0.006,0.207964 -0.113174,0.142276 -0.116587,-0.06551 -0.254851,-0.235151 -0.309043,-0.378923 -0.08126,-0.215749 -0.288084,-0.469223 -0.461497,-0.565989 -0.172875,-0.09647 -0.247187,0 -0.166348,0.214072 0.05389,0.143054 0.006,0.206647 -0.110419,0.142096 -0.114611,-0.06443 -0.250899,-0.232096 -0.304612,-0.374671 -0.08054,-0.213833 -0.284372,-0.464492 -0.454791,-0.559582 -0.17,-0.09485 -0.242456,0 -0.162336,0.213653 0.05329,0.141856 0.006,0.20533 -0.107784,0.141856 -0.112635,-0.06329 -0.246947,-0.229162 -0.300181,-0.370479 -0.07982,-0.212037 -0.280719,-0.459881 -0.448264,-0.553355 -0.167126,-0.09329 -0.237904,0 -0.158443,0.213294 0.05269,0.140599 0.006,0.203953 -0.10521,0.141557 -0.110779,-0.06227 -0.243174,-0.226228 -0.295929,-0.366408 -0.0791,-0.21018 -0.277186,-0.45533 -0.441917,-0.547186 -0.164311,-0.09174 -0.233353,0.006 -0.154671,0.212814 0.05269,0.139462 0.0066,0.202695 -0.102635,0.141378 -0.108922,-0.06126 -0.239461,-0.223473 -0.291737,-0.362396 -0.07844,-0.208443 -0.273653,-0.450899 -0.435689,-0.541258 -0.161617,-0.09018 -0.229042,0.006 -0.150958,0.212455 0.05209,0.138264 0.0072,0.201318 -0.10024,0.141018 -0.107126,-0.06024 -0.235809,-0.220659 -0.287665,-0.358443 -0.07778,-0.206707 -0.2703,-0.446468 -0.429642,-0.535391 -0.158922,-0.08868 -0.224731,0.006 -0.147365,0.211977 0.0515,0.137126 0.0078,0.20006 -0.09785,0.140778 -0.105329,-0.05928 -0.232276,-0.217964 -0.283653,-0.354611 -0.07713,-0.20497 -0.267007,-0.442216 -0.423713,-0.529642 -0.156348,-0.08725 -0.2206,0.0072 -0.143893,0.211558 0.0509,0.135928 0.0084,0.198802 -0.09551,0.140419 -0.103593,-0.05808 -0.228803,-0.21527 -0.279821,-0.350779 -0.07641,-0.203294 -0.263713,-0.438025 -0.417905,-0.524073 -0.153773,-0.08581 -0.216467,0.009 -0.140419,0.211078 0.0509,0.134911 0.009,0.197606 -0.09329,0.14018 -0.101916,-0.05748 -0.22545,-0.212695 -0.275989,-0.347126 -0.07581,-0.201617 -0.260539,-0.433893 -0.412276,-0.518504 -0.151258,-0.08449 -0.212515,0.01018 -0.137126,0.210539 0.0503,0.133773 0.0096,0.196408 -0.09108,0.139881 -0.100299,-0.05629 -0.222156,-0.21018 -0.272276,-0.343474 -0.07515,-0.2 -0.2574254,-0.429821 -0.4067071,-0.513115 -0.1489224,-0.08311 -0.2087429,0.01078 -0.1339523,0.210061 0.049701,0.132694 0.01018,0.19515 -0.088922,0.139521 C 9.3005254,52.968081 9.1802857,52.816105 9.130585,52.683889 9.056034,52.485505 8.8762133,52.25802 8.7292669,52.176044 8.5826798,52.094247 8.5242965,52.18802 8.5984882,52.385625 l 0.088323,0.0497 c -0.049701,-0.131737 -0.010778,-0.194312 0.087306,-0.139701 0.097964,0.05449 0.2177848,0.206347 0.2674256,0.338503 0.074491,0.198264 0.2546113,0.426408 0.4027553,0.509762 0.1484434,0.08365 0.2084435,-0.01018 0.133593,-0.209162 -0.049701,-0.132755 -0.01018,-0.19551 0.089461,-0.139941 0.099521,0.05569 0.2208986,0.208743 0.2709586,0.341977 0.07509,0.199881 0.2577253,0.43036 0.4082043,0.515151 0.150839,0.08491 0.212276,-0.009 0.136827,-0.209641 -0.0503,-0.133893 -0.0096,-0.196767 0.09156,-0.14036 0.101138,0.05629 0.224192,0.211318 0.274671,0.345629 0.07575,0.201498 0.260839,0.434432 0.413773,0.52054 0.153354,0.08635 0.216288,-0.0078 0.14012,-0.21012 -0.0509,-0.13497 -0.009,-0.197964 0.09377,-0.140599 0.102815,0.05748 0.227605,0.213833 0.278504,0.349282 0.07641,0.203114 0.264012,0.438564 0.419461,0.526049 0.155869,0.08778 0.2203,-0.0066 0.143534,-0.210539 -0.0515,-0.136108 -0.0084,-0.199222 0.09605,-0.140959 0.104491,0.05868 0.230958,0.216468 0.282336,0.352995 0.07701,0.204851 0.267246,0.442815 0.42527,0.531797 0.158443,0.08916 0.224431,-0.006 0.147006,-0.211018 -0.0515,-0.137246 -0.0078,-0.200539 0.09838,-0.141258 0.106227,0.05928 0.234491,0.219162 0.286288,0.356827 0.07766,0.206528 0.270539,0.447127 0.431198,0.537546 0.161138,0.09072 0.228683,-0.006 0.150599,-0.211437 -0.0521,-0.138384 -0.0072,-0.201797 0.100779,-0.141557 0.108024,0.06036 0.238084,0.221916 0.290359,0.360779 0.07832,0.208264 0.273953,0.451498 0.437307,0.543474 0.163832,0.09222 0.233054,0 0.154311,-0.211917 -0.05269,-0.139521 -0.0066,-0.203054 0.103234,-0.141796 0.109821,0.06138 0.241737,0.224731 0.294432,0.364731 0.07904,0.21006 0.277485,0.455929 0.443593,0.549462 0.166588,0.09377 0.237546,0 0.158025,-0.212276 -0.05269,-0.140719 -0.006,-0.204372 0.105808,-0.142096 0.111737,0.0624 0.24551,0.227605 0.298683,0.368863 0.07976,0.211797 0.281079,0.46042 0.450001,0.55557 0.169402,0.09539 0.242096,0 0.161917,-0.212635 -0.05329,-0.141977 -0.006,-0.205749 0.108383,-0.142336 0.113653,0.06347 0.249402,0.23048 0.303114,0.372935 0.08042,0.213653 0.284672,0.46515 0.456528,0.561917 0.172336,0.09701 0.246827,0 0.165929,-0.212994 -0.05389,-0.143234 -0.006,-0.207126 0.111078,-0.142635 0.115569,0.06461 0.253354,0.233533 0.307485,0.377186 0.0812,0.215569 0.288384,0.469881 0.463295,0.568324 0.175329,0.09868 0.251677,0.006 0.17,-0.213353 -0.05449,-0.144432 -0.006,-0.208444 0.113833,-0.142875 0.117664,0.06575 0.257425,0.236647 0.312096,0.381558 0.08192,0.217425 0.292216,0.474731 0.470121,0.574851 0.178443,0.100479 0.256647,0.006 0.174251,-0.213653 -0.05509,-0.145689 0,-0.209821 0.116707,-0.143114 0.119701,0.06689 0.261558,0.239761 0.316707,0.385989 0.0827,0.219401 0.296109,0.479641 0.477187,0.581618 0.181617,0.102215 0.261797,0.0066 0.178683,-0.214013 -0.05569,-0.147006 0,-0.211198 0.119581,-0.143233 0.121856,0.06802 0.265869,0.242934 0.321497,0.390479 0.08347,0.221318 0.300121,0.484612 0.484433,0.588385 0.18485,0.104072 0.267066,0.0084 0.183114,-0.214252 -0.05569,-0.148324 0,-0.212635 0.122635,-0.143474 0.124012,0.06928 0.27024,0.246288 0.326407,0.395151 0.08425,0.223294 0.304193,0.489821 0.491858,0.59539 0.188144,0.105988 0.272455,0.01018 0.187725,-0.214491 -0.05629,-0.149701 0,-0.214073 0.125748,-0.143653 0.126228,0.07054 0.274731,0.249641 0.331378,0.399881 0.08509,0.225389 0.308444,0.495031 0.499462,0.602576 0.191617,0.107904 0.278025,0.01198 0.192515,-0.214731 -0.05689,-0.151078 0,-0.21551 0.128923,-0.143833 0.128563,0.07186 0.279342,0.253114 0.336587,0.404731 0.08581,0.227426 0.312695,0.500361 0.507247,0.609942 0.19515,0.10982 0.283773,0.01377 0.197365,-0.214971 -0.05748,-0.152455 0,-0.216946 0.132216,-0.143952 0.130959,0.07317 0.284132,0.256647 0.341917,0.409641 0.08665,0.229582 0.317126,0.50587 0.51527,0.617427 0.198743,0.111856 0.289642,0.01557 0.202456,-0.21515 -0.05808,-0.153893 0,-0.218444 0.135569,-0.144073 0.133354,0.07455 0.289042,0.2603 0.347366,0.414732 0.08748,0.231737 0.321617,0.511438 0.523474,0.625091 0.202455,0.113952 0.295689,0.01796 0.207665,-0.21527 -0.05868,-0.15533 0.006,-0.219941 0.139042,-0.144192 0.135929,0.07593 0.294013,0.264012 0.352935,0.419881 0.08838,0.233953 0.326288,0.517127 0.531977,0.632935 0.206288,0.116168 0.301917,0.01976 0.212994,-0.215389 -0.05928,-0.156767 0.006,-0.221438 0.142695,-0.144252 0.138444,0.07737 0.299163,0.267845 0.358624,0.42521 0.08928,0.236168 0.331018,0.522995 0.5406,0.64096 0.210239,0.118383 0.308323,0.02215 0.218563,-0.21545 -0.05988,-0.158324 0.006,-0.222934 0.146347,-0.144312 0.141138,0.07886 0.304492,0.271797 0.364552,0.43066 0.09018,0.238444 0.335929,0.528923 0.549522,0.649163 0.214252,0.120659 0.314971,0.02455 0.224252,-0.21545 -0.06048,-0.15988 0.0066,-0.224551 0.15024,-0.144371 0.143832,0.08042 0.30988,0.275749 0.370539,0.436288 0.09108,0.240719 0.340959,0.534971 0.558684,0.657546 0.218443,0.122994 0.321737,0.02635 0.23012,-0.215449 -0.06108,-0.161438 0.0078,-0.226109 0.154192,-0.144372 0.146647,0.08198 0.31545,0.279881 0.376767,0.441917 0.09204,0.243114 0.346049,0.541259 0.568085,0.666229" />
        <path
           style="fill:#ceb476"
           inkscape:connector-curvature="0"
           id="path9667"
           d="M 46.308139,53.486106 58.857863,65.88044 58.992534,65.80427 46.363828,53.338498 46.308138,53.485983" />
      </g>
      <path
         inkscape:connector-curvature="0"
         id="rect3051"
         d="m 97.771329,831.59258 -62.84375,25.65625 24.9375,61.09375 68.437501,30.9375 38.59375,-16.3125 -38.59375,-94.5625 c -7.64369,-2.48801 -17.62045,-3.20373 -30.531251,-6.8125 z"
         style="fill:url(#linearGradient5268);fill-opacity:1;stroke:none" />
      <path
         sodipodi:open="true"
         sodipodi:end="12.46847"
         sodipodi:start="6.2071318"
         transform="matrix(0.62687534,-0.25595549,0.25595549,0.62687534,-172.03954,905.32559)"
         d="m 404.30959,105.20602 c 1.22398,21.52094 -10.8052,40.29652 -26.86793,41.93643 -16.06273,1.63991 -30.07639,-14.47686 -31.30038,-35.99781 -1.22399,-21.520941 10.80519,-40.29652 26.86793,-41.936427 15.81515,-1.614629 29.6947,13.99836 31.24502,35.147267"
         sodipodi:ry="39.080086"
         sodipodi:rx="29.168468"
         sodipodi:cy="108.17533"
         sodipodi:cx="375.22543"
         id="path3866"
         style="opacity:0.46586346;fill:#fcfce3;fill-opacity:1;stroke:none;filter:url(#filter3880)"
         sodipodi:type="arc" />
      <path
         transform="translate(0,796.3622)"
         inkscape:connector-curvature="0"
         id="path5150"
         d="m 82.124815,129.98089 c 0,-1.69914 -5.66378,-55.221862 -5.66378,-55.221862 l 43.327915,-2.265512 5.94697,80.425684 z"
         style="fill:#cccccc;stroke:none;filter:url(#filter5156)" />
      <path
         sodipodi:nodetypes="cccc"
         inkscape:connector-curvature="0"
         id="path3054-5"
         d="M 407.69217,61.026367 392.4689,18.875528 436.5518,46.747407 z"
         inkscape:transform-center-y="-0.79858784"
         inkscape:transform-center-x="-5.4168637"
         style="opacity:0.56626503;fill:#626262;fill-opacity:1;stroke:none;filter:url(#filter3862)"
         transform="matrix(0.50797965,-0.20740995,0.23173294,0.56755049,-103.98634,902.73826)" />
      <path
         sodipodi:nodetypes="cccc"
         inkscape:connector-curvature="0"
         id="path3054"
         d="m 110.7465,850.3773 -12.693011,-19.3425 31.130881,6.96584 z"
         inkscape:transform-center-y="-0.83414663"
         inkscape:transform-center-x="-5.9896366"
         style="fill:url(#linearGradient5270);fill-opacity:1;stroke:none" />
      <path
         sodipodi:nodetypes="ccccccc"
         inkscape:connector-curvature="0"
         id="rect3051-1"
         d="m 97.958829,830.96758 -63.03125,25.71875 24.84375,60.8125 69.093751,31.21875 34.97673,-19.90021 -35.25798,-91.03729 c -7.66568,-2.49517 -17.67706,-3.19334 -30.625001,-6.8125 z"
         style="opacity:0.83999999;fill:none;stroke:#000000;stroke-width:2.03134751;stroke-miterlimit:4;stroke-opacity:1;stroke-dasharray:none" />
      <path
         inkscape:connector-curvature="0"
         id="rect3051-12"
         d="m 158.99008,849.96758 -67.656251,5.09375 6.03125,80.1875 29.781251,13.46875 63.0625,-26.65625 -4.25,-56.25 c -6.50943,-4.71629 -15.79139,-8.44251 -26.96875,-15.84375 z"
         style="fill:url(#linearGradient5272);fill-opacity:1;stroke:none" />
      <path
         sodipodi:open="true"
         sodipodi:end="12.46847"
         sodipodi:start="6.2071318"
         transform="matrix(0.67519586,-0.05095547,0.05095547,0.67519586,-120.40393,837.21542)"
         d="m 404.30959,105.20602 c 1.22398,21.52094 -10.8052,40.29652 -26.86793,41.93643 -16.06273,1.63991 -30.07639,-14.47686 -31.30038,-35.99781 -1.22399,-21.520941 10.80519,-40.29652 26.86793,-41.936427 15.81515,-1.614629 29.6947,13.99836 31.24502,35.147267"
         sodipodi:ry="39.080086"
         sodipodi:rx="29.168468"
         sodipodi:cy="108.17533"
         sodipodi:cx="375.22543"
         id="path3866-6"
         style="opacity:0.46586346;fill:#fcfce3;fill-opacity:1;stroke:none;filter:url(#filter3880-9)"
         sodipodi:type="arc" />
      <path
         sodipodi:nodetypes="cccc"
         inkscape:connector-curvature="0"
         id="path3054-5-7"
         d="M 407.69217,61.026367 392.4689,18.875528 436.5518,46.747407 z"
         inkscape:transform-center-y="-0.79858784"
         inkscape:transform-center-x="-5.4168637"
         style="opacity:0.56626503;fill:#626262;fill-opacity:1;stroke:none;filter:url(#filter3862-9)"
         transform="matrix(0.5471355,-0.04129105,0.04613325,0.61129815,-54.8479,855.66373)" />
      <path
         sodipodi:nodetypes="cccc"
         inkscape:connector-curvature="0"
         id="path3054-1"
         d="m 165.58568,871.81601 -6.13566,-22.30691 27.4845,16.19433 z"
         inkscape:transform-center-y="-0.83414663"
         inkscape:transform-center-x="-5.9896366"
         style="fill:url(#linearGradient5274);fill-opacity:1;stroke:none" />
      <path
         sodipodi:nodetypes="ccccccc"
         inkscape:connector-curvature="0"
         id="rect3051-1-1"
         d="m 159.36508,848.63535 -67.843751,5.09375 6.125,81.1875 31.218751,14.125 61.96875,-28.42176 -4.40625,-56.10949 c -6.52816,-4.72987 -15.85297,-8.45246 -27.0625,-15.875 z"
         style="opacity:0.83999999;fill:none;stroke:#000000;stroke-width:2.03134751;stroke-miterlimit:4;stroke-opacity:1;stroke-dasharray:none" />
      <path
         transform="translate(0,796.3622)"
         inkscape:connector-curvature="0"
         id="path5164"
         d="m 49.660729,95.00312 -40.4494647,22.42743 2.0024487,2.80342 26.432324,-4.00489 -34.442119,34.44212 0.8009795,2.80342 38.0465265,21.22596 0.40049,20.82547 84.903826,50.06122 6.00735,-0.40049 83.70236,-49.26024 -0.80098,-23.6289 40.84995,-23.62889 0.40049,-4.40539 -37.64604,-28.43477 24.42988,0.80098 0.40049,-4.0049 -56.46906,-26.832814"
         style="fill:none;stroke:#000000;stroke-width:3;stroke-linecap:butt;stroke-linejoin:miter;stroke-miterlimit:4;stroke-opacity:1;stroke-dasharray:none" />
    </g>
  </g>
</svg>
