<?xml version="1.0" encoding="UTF-8" standalone="no"?>
<!-- Created with Inkscape (http://www.inkscape.org/) -->

<svg
   xmlns:dc="http://purl.org/dc/elements/1.1/"
   xmlns:cc="http://creativecommons.org/ns#"
   xmlns:rdf="http://www.w3.org/1999/02/22-rdf-syntax-ns#"
   xmlns:svg="http://www.w3.org/2000/svg"
   xmlns="http://www.w3.org/2000/svg"
   xmlns:xlink="http://www.w3.org/1999/xlink"
   xmlns:sodipodi="http://sodipodi.sourceforge.net/DTD/sodipodi-0.dtd"
   xmlns:inkscape="http://www.inkscape.org/namespaces/inkscape"
   width="256"
   height="256"
   id="svg2"
   version="1.1"
   inkscape:version="0.48.3.1 r9886"
   sodipodi:docname="binary.svg">
  <defs
     id="defs4">
    <linearGradient
       inkscape:collect="always"
       id="linearGradient4019">
      <stop
         style="stop-color:#ffffff;stop-opacity:1;"
         offset="0"
         id="stop4021" />
      <stop
         style="stop-color:#ffffff;stop-opacity:0;"
         offset="1"
         id="stop4023" />
    </linearGradient>
    <linearGradient
       inkscape:collect="always"
       id="linearGradient3977">
      <stop
         style="stop-color:#000000;stop-opacity:1;"
         offset="0"
         id="stop3979" />
      <stop
         style="stop-color:#000000;stop-opacity:0;"
         offset="1"
         id="stop3981" />
    </linearGradient>
    <linearGradient
       id="linearGradient3864">
      <stop
         style="stop-color:#ffffff;stop-opacity:1;"
         offset="0"
         id="stop3866" />
      <stop
         style="stop-color:#d5d5d5;stop-opacity:0;"
         offset="1"
         id="stop3868" />
    </linearGradient>
    <linearGradient
       id="linearGradient3815">
      <stop
         style="stop-color:#ffffff;stop-opacity:1;"
         offset="0"
         id="stop3817" />
      <stop
         style="stop-color:#a5a5a5;stop-opacity:1;"
         offset="1"
         id="stop3819" />
    </linearGradient>
    <linearGradient
       id="linearGradient3805">
      <stop
         style="stop-color:#989898;stop-opacity:1;"
         offset="0"
         id="stop3807" />
      <stop
         style="stop-color:#2a2a2a;stop-opacity:0.94968551;"
         offset="1"
         id="stop3809" />
    </linearGradient>
    <linearGradient
       id="linearGradient3927">
      <stop
         id="stop3929"
         offset="0"
         style="stop-color:#9d9d9d;stop-opacity:1;" />
      <stop
         id="stop3931"
         offset="1"
         style="stop-color:#ffffff;stop-opacity:1;" />
    </linearGradient>
    <linearGradient
       id="linearGradient3909">
      <stop
         style="stop-color:#909090;stop-opacity:1;"
         offset="0"
         id="stop3911" />
      <stop
         style="stop-color:#cfcfcf;stop-opacity:1;"
         offset="1"
         id="stop3913" />
    </linearGradient>
    <linearGradient
       inkscape:collect="always"
       xlink:href="#linearGradient3805"
       id="linearGradient3811"
       x1="141.3316"
       y1="860.94348"
       x2="141.74571"
       y2="895.38562"
       gradientUnits="userSpaceOnUse"
       gradientTransform="translate(-20.785215,229.28139)" />
    <linearGradient
       inkscape:collect="always"
       xlink:href="#linearGradient3864"
       id="linearGradient3900"
       gradientUnits="userSpaceOnUse"
       gradientTransform="translate(-17.035045,1027.8709)"
       x1="88.986542"
       y1="81.555557"
       x2="88.84317"
       y2="129.87335" />
    <linearGradient
       inkscape:collect="always"
       xlink:href="#linearGradient3909"
       id="linearGradient3903"
       gradientUnits="userSpaceOnUse"
       gradientTransform="translate(-16.217264,228.25405)"
       x1="107.04288"
       y1="1026.5909"
       x2="113.80436"
       y2="879.61139" />
    <linearGradient
       inkscape:collect="always"
       xlink:href="#linearGradient3815"
       id="linearGradient3922"
       x1="188.3951"
       y1="277.65305"
       x2="179.10686"
       y2="341.3754"
       gradientUnits="userSpaceOnUse"
       gradientTransform="matrix(0.87018857,0,0,0.96198742,147.71417,785.5161)" />
    <linearGradient
       id="linearGradient3815-1">
      <stop
         style="stop-color:#e0f2fe;stop-opacity:1;"
         offset="0"
         id="stop3817-9" />
      <stop
         style="stop-color:#01131f;stop-opacity:1;"
         offset="1"
         id="stop3819-2" />
    </linearGradient>
    <linearGradient
       y2="327.96552"
       x2="195.48367"
       y1="272.6918"
       x1="205.841"
       gradientTransform="matrix(0.87113587,0,0,0.99710516,81.361656,886.06486)"
       gradientUnits="userSpaceOnUse"
       id="linearGradient3939"
       xlink:href="#linearGradient3815-1"
       inkscape:collect="always" />
    <linearGradient
       inkscape:collect="always"
       xlink:href="#linearGradient3977"
       id="linearGradient3983"
       x1="114.40766"
       y1="858.7608"
       x2="252.52723"
       y2="932.05042"
       gradientUnits="userSpaceOnUse"
       gradientTransform="translate(-16.820569,249.10462)" />
    <radialGradient
       inkscape:collect="always"
       xlink:href="#linearGradient4019"
       id="radialGradient4025"
       cx="120.92171"
       cy="141.02525"
       fx="120.92171"
       fy="141.02525"
       r="127.60499"
       gradientTransform="matrix(0.67948535,0.00596595,-0.00506566,0.54621211,39.471564,63.274139)"
       gradientUnits="userSpaceOnUse" />
    <filter
       inkscape:collect="always"
       id="filter3862"
       x="-0.20169965"
       width="1.4033993"
       y="-0.18064831"
       height="1.3612966">
      <feGaussianBlur
         inkscape:collect="always"
         stdDeviation="3.884344"
         id="feGaussianBlur3864" />
    </filter>
    <filter
       inkscape:collect="always"
       id="filter3880"
       x="-0.84898819"
       width="2.6979764"
       y="-0.63366594"
       height="2.2673319">
      <feGaussianBlur
         inkscape:collect="always"
         stdDeviation="20.637391"
         id="feGaussianBlur3882" />
    </filter>
    <linearGradient
       inkscape:collect="always"
       xlink:href="#linearGradient3815"
       id="linearGradient3995"
       gradientUnits="userSpaceOnUse"
       gradientTransform="translate(14.417631,821.19256)"
       x1="401.29074"
       y1="22.914968"
       x2="335.61041"
       y2="452.23996" />
    <linearGradient
       inkscape:collect="always"
       xlink:href="#linearGradient3927"
       id="linearGradient3997"
       gradientUnits="userSpaceOnUse"
       x1="419.11514"
       y1="-27.717825"
       x2="404.26071"
       y2="81.883369" />
    <linearGradient
       inkscape:collect="always"
       xlink:href="#linearGradient3815"
       id="linearGradient3042"
       gradientUnits="userSpaceOnUse"
       gradientTransform="matrix(1.2064957,0,0,1.2064957,-326.94029,775.45566)"
       x1="401.29074"
       y1="22.914968"
       x2="335.61041"
       y2="452.23996" />
    <radialGradient
       inkscape:collect="always"
       xlink:href="#linearGradient3972"
       id="radialGradient3978"
       cx="417.1163"
       cy="91.481796"
       fx="417.1163"
       fy="91.481796"
       r="122.93438"
       gradientTransform="matrix(1.6153806,-0.74881169,0.635066,1.3700017,-329.24446,294.51187)"
       gradientUnits="userSpaceOnUse" />
    <linearGradient
       id="linearGradient3972">
      <stop
         style="stop-color:#78def9;stop-opacity:1;"
         offset="0"
         id="stop3974" />
      <stop
         style="stop-color:#116bbb;stop-opacity:0.97484279;"
         offset="1"
         id="stop3976" />
    </linearGradient>
    <linearGradient
       inkscape:collect="always"
       xlink:href="#linearGradient4119"
       id="linearGradient4117"
       x1="348.56787"
       y1="127.42867"
       x2="471.33572"
       y2="116.79466"
       gradientUnits="userSpaceOnUse" />
    <linearGradient
       id="linearGradient4119">
      <stop
         id="stop4121"
         offset="0"
         style="stop-color:#edfafe;stop-opacity:1;" />
      <stop
         id="stop4123"
         offset="1"
         style="stop-color:#86c0f4;stop-opacity:0;" />
    </linearGradient>
    <linearGradient
       y2="116.79466"
       x2="471.33572"
       y1="127.42867"
       x1="348.56787"
       gradientUnits="userSpaceOnUse"
       id="linearGradient3373"
       xlink:href="#linearGradient4119"
       inkscape:collect="always" />
  </defs>
  <sodipodi:namedview
     id="base"
     pagecolor="#ffffff"
     bordercolor="#666666"
     borderopacity="1.0"
     inkscape:pageopacity="0.0"
     inkscape:pageshadow="2"
     inkscape:zoom="0.88280259"
     inkscape:cx="-129.0419"
     inkscape:cy="27.683595"
     inkscape:document-units="px"
     inkscape:current-layer="layer1"
     showgrid="false"
     showguides="true"
     inkscape:guide-bbox="true"
     inkscape:window-width="1913"
     inkscape:window-height="1026"
     inkscape:window-x="0"
     inkscape:window-y="26"
     inkscape:window-maximized="1" />
  <metadata
     id="metadata7">
    <rdf:RDF>
      <cc:Work
         rdf:about="">
        <dc:format>image/svg+xml</dc:format>
        <dc:type
           rdf:resource="http://purl.org/dc/dcmitype/StillImage" />
        <dc:title></dc:title>
      </cc:Work>
    </rdf:RDF>
  </metadata>
  <g
     inkscape:label="Layer 1"
     inkscape:groupmode="layer"
     id="layer1"
     transform="translate(0,-796.3622)">
    <g
       id="g3465">
      <path
         sodipodi:nodetypes="cccccc"
         id="rect3051"
         d="m 50.27813,817.11747 0,219.35603 166.72262,0 0,-187.57241 c -10.93332,-9.25258 -26.94202,-17.13462 -45.80913,-31.78362 z"
         style="fill:url(#linearGradient3042);fill-opacity:1;stroke:none"
         inkscape:connector-curvature="0" />
      <path
         sodipodi:nodetypes="cccc"
         inkscape:connector-curvature="0"
         id="path3054-5"
         d="M 407.69217,61.026367 392.4689,18.875528 436.5518,46.747407 z"
         inkscape:transform-center-y="-0.79858784"
         inkscape:transform-center-x="-5.4168637"
         style="opacity:0.56626503;fill:#626262;fill-opacity:1;stroke:none;filter:url(#filter3862)"
         transform="matrix(0.97766688,0,0,1.092318,-209.51979,798.57424)" />
      <path
         sodipodi:nodetypes="cccc"
         inkscape:connector-curvature="0"
         id="path3054"
         d="m 400.04112,59.178801 -7.31749,-35.458778 43.1638,28.448868 z"
         inkscape:transform-center-y="-0.83414663"
         inkscape:transform-center-x="-5.9896366"
         style="fill:url(#linearGradient3997);fill-opacity:1;stroke:none"
         transform="matrix(1.0810446,0,0,1.1409536,-252.48963,789.3103)" />
      <path
         sodipodi:open="true"
         sodipodi:end="12.46847"
         sodipodi:start="6.2071318"
         transform="matrix(1.2064957,0,0,1.2064957,-323.52363,757.00568)"
         d="m 404.30959,105.20602 c 1.22398,21.52094 -10.8052,40.29652 -26.86793,41.93643 -16.06273,1.63991 -30.07639,-14.47686 -31.30038,-35.99781 -1.22399,-21.520941 10.80519,-40.29652 26.86793,-41.936427 15.81515,-1.614629 29.6947,13.99836 31.24502,35.147267"
         sodipodi:ry="39.080086"
         sodipodi:rx="29.168468"
         sodipodi:cy="108.17533"
         sodipodi:cx="375.22543"
         id="path3866"
         style="opacity:0.46586346;fill:#fcfce3;fill-opacity:1;stroke:none;filter:url(#filter3880)"
         sodipodi:type="arc" />
      <path
         sodipodi:nodetypes="cccccc"
         id="rect3051-1"
         d="m 50.666646,816.20651 0,219.98729 167.202334,0 0,-188.11221 c -10.96477,-9.27921 -27.01954,-17.18392 -45.94094,-31.87508 z"
         style="opacity:0.83999999;fill:none;stroke:#000000;stroke-width:3.61948705;stroke-miterlimit:4;stroke-opacity:1;stroke-dasharray:none"
         inkscape:connector-curvature="0" />
      <g
         id="g3312"
         transform="matrix(0.4886176,0,0,0.4886176,68.148812,450.26028)">
        <path
           sodipodi:type="arc"
           style="fill:url(#radialGradient3978);fill-opacity:1;stroke:none"
           id="path3202"
           sodipodi:cx="442.85715"
           sodipodi:cy="172.42857"
           sodipodi:rx="121.42857"
           sodipodi:ry="121.42857"
           d="m 563.93471,163.2024 c 5.09547,66.8693 -44.9821,125.20826 -111.85139,130.30374 -66.8693,5.09547 -125.20826,-44.98211 -130.30374,-111.8514 -5.09547,-66.86929 44.98211,-125.208257 111.8514,-130.30373 65.8386,-5.016933 123.61928,43.49532 130.07329,109.20861"
           transform="translate(-316.07622,753.50504)"
           sodipodi:start="6.2071318"
           sodipodi:end="12.46847"
           sodipodi:open="true" />
        <path
           style="fill:#03ccff;fill-opacity:0.77625571;stroke:none"
           d="m 110.10663,838.20984 33.33504,13.13198 6.06091,24.24366 -29.29442,31.31473 -3.03046,36.36549 32.32488,17.1726 17.1726,31.31472 -12.12183,24.24368 11.11167,22.2233 6.06092,-12.1218 18.18274,-10.1015 c 0,0 8.08123,-17.17261 10.10153,-21.21322 2.02031,-4.04061 6.06092,-31.31473 6.06092,-31.31473 l 21.2132,-26.26396 -3.03046,-55.55839 -52.52793,-14.14214 -10.10153,1.01016 -13.13198,-20.20305 -25.25381,-11.11168 1.01015,-21.21321 c 0,0 -60.609152,6.06092 -60.609152,23.23351 0,17.1726 6.06091,40.4061 6.06091,40.4061 z"
           id="path4125"
           inkscape:connector-curvature="0" />
        <path
           style="fill:none;stroke:#2ad4ff;stroke-width:3;stroke-linecap:butt;stroke-linejoin:miter;stroke-miterlimit:4;stroke-opacity:1;stroke-dasharray:none"
           d="m 51.423778,840.21932 c 0.54383,6.77209 17.30004,17.39258 47.85714,6.07143 26.244442,-9.72334 25.071002,-29.45973 18.928582,-33.21428 -6.66383,-4.07327 -26.459752,-0.92892 -38.571432,3.57142 -12.11169,4.50035 -28.75812,16.79935 -28.21429,23.57143 z"
           id="path3985"
           inkscape:connector-curvature="0"
           sodipodi:nodetypes="zsszz" />
        <path
           style="fill:none;stroke:#2ad4ff;stroke-width:3;stroke-linecap:butt;stroke-linejoin:miter;stroke-miterlimit:4;stroke-opacity:1;stroke-dasharray:none"
           d="m 29.638068,855.93361 c 0,0 -13.51828,25.89188 8.57143,37.85714 17.14285,9.28571 63.280842,11.42097 100.000002,-7.85714 33.83673,-17.76479 54.28571,-57.5 38.57143,-68.21429"
           id="path3987"
           inkscape:connector-curvature="0"
           sodipodi:nodetypes="cssc" />
        <path
           style="fill:none;stroke:#2ad4ff;stroke-width:3;stroke-linecap:butt;stroke-linejoin:miter;stroke-miterlimit:4;stroke-opacity:1;stroke-dasharray:none"
           d="m 7.4952079,933.07647 c 0,0 -1.78572,18.92857 27.5000001,27.5 29.28571,8.57143 76.944832,9.98102 127.857142,-15 47.18547,-23.15238 68.21429,-81.07143 58.21429,-93.21429"
           id="path3989"
           inkscape:connector-curvature="0"
           sodipodi:nodetypes="cssc" />
        <path
           style="fill:none;stroke:#2ad4ff;stroke-width:3;stroke-linecap:butt;stroke-linejoin:miter;stroke-miterlimit:4;stroke-opacity:1;stroke-dasharray:none"
           d="m 29.638058,998.4336 c 0,0 52.05887,32.6728 115.714292,16.0714 58.17002,-15.17076 102.14286,-66.07139 100.00001,-104.64282"
           id="path3991"
           inkscape:connector-curvature="0"
           sodipodi:nodetypes="csc" />
        <path
           style="fill:none;stroke:#2ad4ff;stroke-width:3;stroke-linecap:butt;stroke-linejoin:miter;stroke-miterlimit:4;stroke-opacity:1;stroke-dasharray:none"
           d="m 90.352348,1039.8622 c 0,0 29.061372,7.1191 71.428572,-5.3572 40.45084,-11.9119 62.14286,-38.21425 62.14286,-38.21425"
           id="path3993"
           inkscape:connector-curvature="0"
           sodipodi:nodetypes="csc" />
        <path
           style="fill:none;stroke:#2ad4ff;stroke-width:3;stroke-linecap:butt;stroke-linejoin:miter;stroke-miterlimit:4;stroke-opacity:1;stroke-dasharray:none"
           d="M 188.92379,1030.9336 C 238.78021,987.03042 249.24313,916.62067 204.63807,863.79075 170.44379,823.29128 91.066638,825.21932 91.066638,825.21932 c 0,0 56.204722,30.09336 73.571432,71.42857 17.11139,40.72752 25.71428,84.28571 -0.71429,144.28571"
           id="path3995"
           inkscape:connector-curvature="0"
           sodipodi:nodetypes="cscsc" />
        <path
           style="fill:none;stroke:#96d2f2;stroke-width:2;stroke-linecap:butt;stroke-linejoin:miter;stroke-miterlimit:4;stroke-opacity:1;stroke-dasharray:none"
           d="m 176.7767,842.25045 c 0,0 -97.984802,33.33503 -100.005102,125.25892 0,0 -55.05332,-26.76904 -59.59901,-86.87313"
           id="path4132"
           inkscape:connector-curvature="0"
           sodipodi:nodetypes="ccc" />
        <path
           style="fill:none;stroke:#2ad4ff;stroke-width:3;stroke-linecap:butt;stroke-linejoin:miter;stroke-miterlimit:4;stroke-opacity:1;stroke-dasharray:none"
           d="M 131.06664,1045.9336 C 99.638068,1033.0765 69.157998,972.6852 66.780918,921.6479 c -2.62617,-56.38553 23.57143,-95.00001 23.57143,-95.00001 0,0 -12.78142,-3.68706 -35,17.14286 -22.85714,21.42857 -37.45963,78.09937 -32.14286,110.00001 7.14286,42.85713 52.2006,88.57144 102.142862,92.14284"
           id="path3997"
           inkscape:connector-curvature="0"
           sodipodi:nodetypes="cscssc" />
        <path
           style="fill:none;stroke:#2ad4ff;stroke-width:3;stroke-linecap:butt;stroke-linejoin:miter;stroke-miterlimit:4;stroke-opacity:1;stroke-dasharray:none"
           d="m 89.638068,825.21932 c 0,0 24.748742,-14.58158 59.034452,-16.72444"
           id="path3999"
           inkscape:connector-curvature="0"
           sodipodi:nodetypes="cc" />
        <path
           style="fill:none;stroke:#2ad4ff;stroke-width:3;stroke-linecap:butt;stroke-linejoin:miter;stroke-miterlimit:4;stroke-opacity:1;stroke-dasharray:none"
           d="m 113.92444,805.66088 c 0,0 -30.809662,2.59101 -23.798062,20.14613"
           id="path3999-4"
           inkscape:connector-curvature="0"
           sodipodi:nodetypes="cc" />
        <path
           style="fill:none;stroke:#2ad4ff;stroke-width:3;stroke-linecap:butt;stroke-linejoin:miter;stroke-miterlimit:4;stroke-opacity:1;stroke-dasharray:none"
           d="m 57.295108,827.84186 c 0,0 24.12294,-19.33992 31.12935,-1.78272"
           id="path3999-4-7"
           inkscape:connector-curvature="0"
           sodipodi:nodetypes="cc" />
        <path
           style="fill:none;stroke:#96d2f2;stroke-width:2;stroke-linecap:butt;stroke-linejoin:miter;stroke-miterlimit:4;stroke-opacity:1;stroke-dasharray:none"
           d="m 75.761438,965.48906 c 0,0 61.619312,-9.09137 84.852822,16.16244 23.23351,25.2538 13.13198,21.2132 13.13198,21.2132 0,0 56.56854,-34.34518 55.55839,-90.91372 -1.01015,-56.56855 -2.0203,-56.56855 -2.0203,-56.56855"
           id="path4134"
           inkscape:connector-curvature="0"
           sodipodi:nodetypes="cscsc" />
        <path
           sodipodi:type="arc"
           style="fill:#2ad4ff;stroke:none"
           id="path4037"
           sodipodi:cx="384.64285"
           sodipodi:cy="173.14285"
           sodipodi:rx="9.6428576"
           sodipodi:ry="9.2857141"
           d="m 394.25784,172.43732 c 0.40464,5.11354 -3.57211,9.57475 -8.88232,9.9644 -5.31021,0.38966 -9.94301,-3.4398 -10.34765,-8.55334 -0.40464,-5.11353 3.57211,-9.57475 8.88232,-9.9644 5.22836,-0.38365 9.81682,3.32611 10.32935,8.35125"
           transform="translate(-306.07622,796.36218)"
           sodipodi:start="6.2071318"
           sodipodi:end="12.46847"
           sodipodi:open="true" />
        <path
           style="fill:none;stroke:#96d2f2;stroke-width:2;stroke-linecap:butt;stroke-linejoin:miter;stroke-miterlimit:4;stroke-opacity:1;stroke-dasharray:none"
           d="m 46.066638,833.07647 c 0,0 6.73376,-4.4377 31.42857,3.57142 26.428582,8.57143 67.142862,43.57143 87.142862,80.71429 20,37.14286 10,84.28572 10,84.28572 0,0 -13.57143,23.5714 -39.28572,34.2857 -25.71428,10.7143 -35.714282,7.8572 -35.714282,7.8572"
           id="path4136"
           inkscape:connector-curvature="0"
           sodipodi:nodetypes="csscsc" />
        <path
           transform="translate(-209.2905,829.21932)"
           sodipodi:type="arc"
           style="fill:#aaeeff;stroke:none"
           id="path4037-7"
           sodipodi:cx="384.64285"
           sodipodi:cy="173.14285"
           sodipodi:rx="9.6428576"
           sodipodi:ry="9.2857141"
           d="m 394.25784,172.43732 c 0.40464,5.11354 -3.57211,9.57475 -8.88232,9.9644 -5.31021,0.38966 -9.94301,-3.4398 -10.34765,-8.55334 -0.40464,-5.11353 3.57211,-9.57475 8.88232,-9.9644 5.22836,-0.38365 9.81682,3.32611 10.32935,8.35125"
           sodipodi:start="6.2071318"
           sodipodi:end="12.46847"
           sodipodi:open="true" />
        <path
           transform="matrix(0.73812113,0,0,0.73812113,-106.08605,714.98707)"
           sodipodi:type="arc"
           style="fill:#d5f6ff;stroke:none"
           id="path4037-7-5"
           sodipodi:cx="384.64285"
           sodipodi:cy="173.14285"
           sodipodi:rx="9.6428576"
           sodipodi:ry="9.2857141"
           d="m 394.25784,172.43732 c 0.40464,5.11354 -3.57211,9.57475 -8.88232,9.9644 -5.31021,0.38966 -9.94301,-3.4398 -10.34765,-8.55334 -0.40464,-5.11353 3.57211,-9.57475 8.88232,-9.9644 5.22836,-0.38365 9.81682,3.32611 10.32935,8.35125"
           sodipodi:start="6.2071318"
           sodipodi:end="12.46847"
           sodipodi:open="true" />
        <path
           sodipodi:type="arc"
           style="fill:none;stroke:#000000;stroke-width:3;stroke-miterlimit:4;stroke-opacity:1;stroke-dasharray:none"
           id="path3202-9"
           sodipodi:cx="442.85715"
           sodipodi:cy="172.42857"
           sodipodi:rx="121.42857"
           sodipodi:ry="121.42857"
           d="M 563.71305,160.6494 C 570.21851,227.39628 521.38319,286.77902 454.63632,293.28448 387.88944,299.78993 328.5067,250.95462 322.00124,184.20774 315.49579,117.46087 364.3311,58.078125 431.07798,51.572669 497.78979,45.070631 557.15267,93.852659 563.70427,160.55962"
           transform="translate(-314.56777,752.65422)"
           sodipodi:start="6.1860276"
           sodipodi:end="12.46847"
           sodipodi:open="true" />
        <path
           sodipodi:type="arc"
           style="fill:url(#linearGradient3373);fill-opacity:1;stroke:none"
           id="path4109"
           sodipodi:cx="423.57144"
           sodipodi:cy="127.42857"
           sodipodi:rx="75"
           sodipodi:ry="84.228134"
           d="m 498.35464,121.0289 c 3.1472,46.38345 -27.78306,86.84989 -69.08468,90.38433 -41.30162,3.53444 -77.33451,-31.20154 -80.48172,-77.58498 -3.1472,-46.383451 27.78307,-86.849894 69.08469,-90.384334 27.86848,-2.384883 54.60594,12.831066 69.3739,39.479818"
           transform="matrix(0.29843344,0.93628271,-0.95443045,0.35647236,107.74503,443.71704)"
           sodipodi:start="6.2071318"
           sodipodi:end="12.009674"
           sodipodi:open="true" />
      </g>
      <g
         id="text3440"
         style="font-size:27.020504px;font-style:normal;font-variant:normal;font-weight:normal;font-stretch:normal;line-height:125%;letter-spacing:0px;word-spacing:0px;fill:#808080;fill-opacity:1;stroke:none;font-family:'A.C.M.E. Secret Agent';-inkscape-font-specification:'A.C.M.E. Secret Agent'">
        <path
           id="path3445"
           style="fill:#808080;font-family:Asap;-inkscape-font-specification:Asap"
           d="m 70.512612,999.01647 0,-19.18455 c -2e-6,-0.39628 0.360271,-0.59443 1.08082,-0.59445 l 0.108082,0 c 0.720543,2e-5 1.080816,0.19817 1.08082,0.59445 l 0,7.29553 c 1.242938,-1.24293 2.620982,-1.8644 4.134138,-1.86441 1.026769,10e-6 1.954472,0.26121 2.783111,0.78359 0.45033,0.30625 0.810603,0.7656 1.080821,1.37805 0.288205,0.61247 0.432315,1.35103 0.432328,2.21568 l 0,9.37611 c -1.3e-5,0.39631 -0.360286,0.59446 -1.08082,0.59446 l -0.108082,0 c -0.720559,0 -1.080832,-0.19815 -1.080821,-0.59446 l 0,-9.15995 c -1.1e-5,-0.8106 -0.234188,-1.45009 -0.702533,-1.91845 -0.468365,-0.46835 -1.080829,-0.70252 -1.837394,-0.70254 -0.738568,2e-5 -1.396066,0.16214 -1.972497,0.48637 -0.558429,0.30625 -0.972743,0.61248 -1.242943,0.9187 l -0.405308,0.48637 0,9.8895 c -4e-6,0.39631 -0.360277,0.59446 -1.08082,0.59446 l -0.108082,0 c -0.720549,0 -1.080822,-0.19815 -1.08082,-0.59446" />
        <path
           id="path3447"
           style="fill:#808080;font-family:Asap;-inkscape-font-specification:Asap"
           d="m 86.169728,995.99018 0,-8.61954 -1.351025,0 c -0.360275,10e-6 -0.540411,-0.2702 -0.54041,-0.81062 l 0,-0.32424 c -1e-6,-0.5404 0.180135,-0.8106 0.54041,-0.81062 l 1.351025,0 0.324246,-2.83715 c 0.03602,-0.39629 0.324242,-0.59444 0.864656,-0.59445 l 0.270205,0 c 0.540405,10e-6 0.81061,0.19816 0.810615,0.59445 l 0,2.83715 2.269723,0 c 0.360265,2e-5 0.540402,0.27022 0.54041,0.81062 l 0,0.32424 c -8e-6,0.54042 -0.180145,0.81063 -0.54041,0.81062 l -2.269723,0 0,8.40337 c -5e-6,1.33302 0.486364,1.99952 1.459107,1.99952 0.306226,0 0.567424,-0.018 0.783595,-0.054 0.216156,-0.054 0.342252,-0.0811 0.378287,-0.0811 0.162115,0 0.297218,0.17113 0.405308,0.51339 0.108073,0.32425 0.162114,0.57644 0.162123,0.75657 -9e-6,0.54041 -0.657507,0.81062 -1.972497,0.81062 -0.900689,0 -1.711303,-0.27021 -2.431845,-0.81062 -0.702537,-0.55842 -1.053803,-1.53116 -1.0538,-2.91821" />
        <path
           id="path3449"
           style="fill:#808080;font-family:Asap;-inkscape-font-specification:Asap"
           d="m 95.405251,995.99018 0,-8.61954 -1.351025,0 c -0.360275,10e-6 -0.540411,-0.2702 -0.54041,-0.81062 l 0,-0.32424 c -1e-6,-0.5404 0.180135,-0.8106 0.54041,-0.81062 l 1.351025,0 0.324246,-2.83715 c 0.03602,-0.39629 0.324243,-0.59444 0.864656,-0.59445 l 0.270205,0 c 0.540405,10e-6 0.81061,0.19816 0.810615,0.59445 l 0,2.83715 2.269723,0 c 0.360264,2e-5 0.540404,0.27022 0.540414,0.81062 l 0,0.32424 c -1e-5,0.54042 -0.18015,0.81063 -0.540414,0.81062 l -2.269723,0 0,8.40337 c -5e-6,1.33302 0.486364,1.99952 1.459108,1.99952 0.306225,0 0.567423,-0.018 0.783594,-0.054 0.216155,-0.054 0.342255,-0.0811 0.378285,-0.0811 0.16212,0 0.29722,0.17113 0.40531,0.51339 0.10807,0.32425 0.16211,0.57644 0.16212,0.75657 -10e-6,0.54041 -0.6575,0.81062 -1.972494,0.81062 -0.900689,0 -1.711303,-0.27021 -2.431845,-0.81062 -0.702537,-0.55842 -1.053803,-1.53116 -1.0538,-2.91821" />
        <path
           id="path3451"
           style="fill:#808080;font-family:Asap;-inkscape-font-specification:Asap"
           d="m 106.34307,1004.5827 c -1e-5,0.3963 -0.36028,0.5944 -1.08082,0.5944 l -0.10809,0 c -0.72055,0 -1.08082,-0.1981 -1.08082,-0.5944 l 0,-15.05042 c 0,-1.09882 -0.045,-1.88242 -0.1351,-2.35079 -0.1261,-0.64848 -0.18914,-0.99974 -0.18914,-1.0538 0,-0.21615 0.17113,-0.36926 0.51339,-0.45934 0.34225,-0.10807 0.60345,-0.16211 0.78359,-0.16213 0.19815,2e-5 0.33325,0.018 0.40531,0.054 0.072,0.036 0.1351,0.0991 0.18914,0.18915 0.0721,0.0721 0.12609,0.15313 0.16213,0.24318 0.036,0.0721 0.072,0.18015 0.10808,0.32425 0.036,0.12611 0.063,0.23419 0.0811,0.32424 0.036,0.0721 0.063,0.18916 0.0811,0.35127 0.036,0.14412 0.063,0.2432 0.0811,0.29723 1.29698,-1.35102 2.73807,-2.02653 4.32328,-2.02654 1.5852,10e-6 2.84615,0.66652 3.78287,1.99952 0.95471,1.33302 1.43208,3.04431 1.43209,5.13389 l 0,0.24319 c -1e-5,2.21568 -0.5044,3.954 -1.51315,5.21495 -1.00877,1.24295 -2.26973,1.86442 -3.78287,1.86442 -1.51315,0 -2.86418,-0.45935 -4.05307,-1.37805 l 0,6.24174 m 3.26948,-6.86321 0.16212,0 c 1.15287,-0.018 2.02653,-0.45935 2.62099,-1.324 0.61245,-0.86466 0.91868,-2.13462 0.9187,-3.8099 -2e-5,-1.67526 -0.28823,-2.98125 -0.86466,-3.91797 -0.57645,-0.95471 -1.45912,-1.43207 -2.64801,-1.43209 -1.17089,2e-5 -2.32377,0.62149 -3.45862,1.86442 l 0,7.40362 c 0.97273,0.81062 2.06255,1.21592 3.26948,1.21592" />
        <path
           id="path3453"
           style="fill:#808080;font-family:Asap;-inkscape-font-specification:Asap"
           d="m 119.67135,988.34338 c -0.72055,10e-6 -1.08082,-0.19814 -1.08082,-0.59446 l 0,-1.78335 c 0,-0.39629 0.36027,-0.59444 1.08082,-0.59445 l 0.45935,0 c 0.72054,10e-6 1.08082,0.19816 1.08082,0.59445 l 0,1.78335 c 0,0.39632 -0.36028,0.59447 -1.08082,0.59446 l -0.45935,0 m -1.08082,10.67309 0,-1.78335 c 0,-0.3963 0.36027,-0.59445 1.08082,-0.59445 l 0.45935,0 c 0.72054,0 1.08082,0.19815 1.08082,0.59445 l 0,1.78335 c 0,0.39631 -0.36028,0.59446 -1.08082,0.59446 l -0.45935,0 c -0.72055,0 -1.08082,-0.19815 -1.08082,-0.59446" />
        <path
           id="path3455"
           style="fill:#808080;font-family:Asap;-inkscape-font-specification:Asap"
           d="m 131.72841,980.56147 0.10808,0 c 0.43232,2e-5 0.64848,0.18016 0.64849,0.54041 -1e-5,0.12611 -0.027,0.26122 -0.0811,0.40531 l -8.37636,19.48181 c -0.18013,0.4143 -0.47736,0.6214 -0.89167,0.6214 l -0.10808,0 c -0.46836,0 -0.70254,-0.1801 -0.70254,-0.5404 0,-0.1441 0.027,-0.2792 0.0811,-0.4053 l 8.37636,-19.48176 c 0.18013,-0.41429 0.49537,-0.62145 0.94572,-0.62147" />
        <path
           id="path3457"
           style="fill:#808080;font-family:Asap;-inkscape-font-specification:Asap"
           d="m 141.75555,980.56147 0.10808,0 c 0.43232,2e-5 0.64848,0.18016 0.64849,0.54041 -1e-5,0.12611 -0.027,0.26122 -0.0811,0.40531 l -8.37635,19.48181 c -0.18014,0.4143 -0.47737,0.6214 -0.89168,0.6214 l -0.10808,0 c -0.46836,0 -0.70254,-0.1801 -0.70254,-0.5404 0,-0.1441 0.027,-0.2792 0.0811,-0.4053 l 8.37635,-19.48176 c 0.18013,-0.41429 0.49537,-0.62145 0.94572,-0.62147" />
        <path
           id="path3459"
           style="fill:#808080;font-family:Asap;-inkscape-font-specification:Asap"
           d="m 143.46037,985.83047 c 0,-0.30622 0.3873,-0.45934 1.16188,-0.45935 l 0.24319,0 c 0.64849,10e-6 1.00876,0.14412 1.08082,0.43233 l 2.83715,10.78118 2.81013,-10.75416 c 0.0721,-0.30622 0.42332,-0.45934 1.0538,-0.45935 l 0.29723,0 c 0.61245,10e-6 0.96372,0.15313 1.0538,0.45935 l 2.83715,10.75416 2.81013,-10.78118 c 0.072,-0.28821 0.47735,-0.43232 1.21593,-0.43233 0.73854,10e-6 1.10782,0.15313 1.10784,0.45935 -2e-5,0.0901 -0.027,0.21618 -0.0811,0.37829 l -3.62075,12.96984 c -0.0721,0.28822 -0.43234,0.43233 -1.08082,0.43233 l -0.89168,0 c -0.63049,0 -0.98176,-0.14411 -1.0538,-0.43233 l -2.48588,-9.83547 -2.53993,9.83547 c -0.0721,0.28822 -0.43234,0.43233 -1.08082,0.43233 l -0.89168,0 c -0.6485,0 -1.00877,-0.14411 -1.08082,-0.43233 l -3.62075,-12.99686 c -0.054,-0.16211 -0.0811,-0.2792 -0.0811,-0.35127" />
        <path
           id="path3461"
           style="fill:#808080;font-family:Asap;-inkscape-font-specification:Asap"
           d="m 163.62021,985.83047 c 0,-0.30622 0.38729,-0.45934 1.16188,-0.45935 l 0.24318,0 c 0.64849,10e-6 1.00877,0.14412 1.08082,0.43233 l 2.83716,10.78118 2.81013,-10.75416 c 0.0721,-0.30622 0.42331,-0.45934 1.0538,-0.45935 l 0.29723,0 c 0.61245,10e-6 0.96372,0.15313 1.05379,0.45935 l 2.83716,10.75416 2.81013,-10.78118 c 0.072,-0.28821 0.47734,-0.43232 1.21592,-0.43233 0.73854,10e-6 1.10782,0.15313 1.10784,0.45935 -2e-5,0.0901 -0.027,0.21618 -0.0811,0.37829 l -3.62075,12.96984 c -0.0721,0.28822 -0.43234,0.43233 -1.08082,0.43233 l -0.89167,0 c -0.63049,0 -0.98176,-0.14411 -1.0538,-0.43233 l -2.48589,-9.83547 -2.53993,9.83547 c -0.0721,0.28822 -0.43233,0.43233 -1.08082,0.43233 l -0.89167,0 c -0.6485,0 -1.00877,-0.14411 -1.08082,-0.43233 l -3.62075,-12.99686 c -0.054,-0.16211 -0.0811,-0.2792 -0.0811,-0.35127" />
        <path
           id="path3463"
           style="fill:#808080;font-family:Asap;-inkscape-font-specification:Asap"
           d="m 183.78004,985.83047 c 0,-0.30622 0.38729,-0.45934 1.16188,-0.45935 l 0.24318,0 c 0.64849,10e-6 1.00876,0.14412 1.08082,0.43233 l 2.83716,10.78118 2.81013,-10.75416 c 0.072,-0.30622 0.42331,-0.45934 1.0538,-0.45935 l 0.29722,0 c 0.61246,10e-6 0.96372,0.15313 1.0538,0.45935 l 2.83716,10.75416 2.81013,-10.78118 c 0.072,-0.28821 0.47734,-0.43232 1.21592,-0.43233 0.73854,10e-6 1.10782,0.15313 1.10784,0.45935 -2e-5,0.0901 -0.027,0.21618 -0.0811,0.37829 l -3.62075,12.96984 c -0.0721,0.28822 -0.43234,0.43233 -1.08082,0.43233 l -0.89167,0 c -0.6305,0 -0.98176,-0.14411 -1.0538,-0.43233 l -2.48589,-9.83547 -2.53993,9.83547 c -0.0721,0.28822 -0.43233,0.43233 -1.08082,0.43233 l -0.89167,0 c -0.6485,0 -1.00877,-0.14411 -1.08082,-0.43233 l -3.62075,-12.99686 c -0.054,-0.16211 -0.0811,-0.2792 -0.0811,-0.35127" />
      </g>
    </g>
  </g>
</svg>
