<?xml version="1.0" encoding="UTF-8" standalone="no"?>
<!-- Created with Inkscape (http://www.inkscape.org/) -->

<svg
   xmlns:dc="http://purl.org/dc/elements/1.1/"
   xmlns:cc="http://creativecommons.org/ns#"
   xmlns:rdf="http://www.w3.org/1999/02/22-rdf-syntax-ns#"
   xmlns:svg="http://www.w3.org/2000/svg"
   xmlns="http://www.w3.org/2000/svg"
   xmlns:sodipodi="http://sodipodi.sourceforge.net/DTD/sodipodi-0.dtd"
   xmlns:inkscape="http://www.inkscape.org/namespaces/inkscape"
   width="256"
   height="256"
   id="svg2"
   version="1.1"
   inkscape:version="0.48.3.1 r9886"
   sodipodi:docname="gtk-select-color.svg">
  <defs
     id="defs4">
    <inkscape:path-effect
       fuse_tolerance="0"
       vertical_pattern="false"
       prop_units="false"
       tang_offset="0"
       normal_offset="0"
       spacing="0"
       scale_y_rel="false"
       prop_scale="1"
       copytype="single_stretched"
       pattern="M 0,5 C 0,2.24 2.24,0 5,0 7.76,0 10,2.24 10,5 10,7.76 7.76,10 5,10 2.24,10 0,7.76 0,5 z"
       is_visible="true"
       id="path-effect3052"
       effect="skeletal" />
  </defs>
  <sodipodi:namedview
     id="base"
     pagecolor="#ffffff"
     bordercolor="#666666"
     borderopacity="1.0"
     inkscape:pageopacity="0.0"
     inkscape:pageshadow="2"
     inkscape:zoom="0.7633658"
     inkscape:cx="311.80708"
     inkscape:cy="222.31426"
     inkscape:document-units="px"
     inkscape:current-layer="layer1"
     showgrid="false"
     showguides="true"
     inkscape:guide-bbox="true"
     inkscape:window-width="1913"
     inkscape:window-height="1026"
     inkscape:window-x="0"
     inkscape:window-y="26"
     inkscape:window-maximized="1" />
  <metadata
     id="metadata7">
    <rdf:RDF>
      <cc:Work
         rdf:about="">
        <dc:format>image/svg+xml</dc:format>
        <dc:type
           rdf:resource="http://purl.org/dc/dcmitype/StillImage" />
        <dc:title />
      </cc:Work>
    </rdf:RDF>
  </metadata>
  <g
     inkscape:label="Layer 1"
     inkscape:groupmode="layer"
     id="layer1"
     transform="translate(0,-796.3622)">
    <g
       id="g3255"
       transform="matrix(0.87885088,0,0,0.87885088,36.285768,92.47638)">
      <path
         sodipodi:nodetypes="ccccsc"
         inkscape:connector-curvature="0"
         id="path3088"
         d="m 104.76116,824.98332 -24.556627,95.92355 c -6.028256,-0.59165 -10.182302,-0.18153 -16.75289,0.3837 l -0.46315,-100.04055 c 0,0 4.657741,-0.15871 18.526027,0.69473 15.052397,0.9263 23.24664,3.03858 23.24664,3.03857 z"
         style="fill:#666666;stroke:#000000;stroke-width:1px;stroke-linecap:butt;stroke-linejoin:miter;stroke-opacity:1" />
      <path
         inkscape:transform-center-y="-45.950004"
         inkscape:transform-center-x="-28.405336"
         sodipodi:nodetypes="ccccc"
         inkscape:connector-curvature="0"
         id="path3088-5"
         d="m 145.12439,839.09512 -48.293563,86.32885 c -5.780766,-2.12833 -9.601224,-3.6196 -16.225322,-4.10401 l 24.133945,-96.24463 c 16.84949,3.21776 21.65638,4.50713 40.38494,14.01979 z"
         style="fill:#999999;stroke:#000000;stroke-width:1px;stroke-linecap:butt;stroke-linejoin:miter;stroke-opacity:1" />
      <path
         inkscape:transform-center-y="-37.500774"
         inkscape:transform-center-x="-40.571592"
         sodipodi:nodetypes="ccccc"
         inkscape:connector-curvature="0"
         id="path3088-5-0"
         d="m 180.1698,863.212 -68.9439,71.13426 c -4.18785,-3.38119 -8.13489,-6.08511 -14.563011,-8.79186 l 48.494161,-86.39066 c 11.04176,5.94856 23.52934,13.16706 35.01275,24.04826 z"
         style="fill:#cccccc;stroke:#000000;stroke-width:1px;stroke-linecap:butt;stroke-linejoin:miter;stroke-opacity:1" />
      <path
         inkscape:transform-center-y="-26.601059"
         inkscape:transform-center-x="-47.924241"
         sodipodi:nodetypes="ccccc"
         inkscape:connector-curvature="0"
         id="path3088-5-6"
         d="m 207.33786,897.2869 -83.99827,50.57767 c -3.1477,-3.81188 -8.41851,-9.54516 -11.9572,-13.38525 l 68.81297,-71.00356 c 9.74298,10.65622 17.88723,19.24045 27.1425,33.81114 z"
         style="fill:#e6e6e6;stroke:#000000;stroke-width:1px;stroke-linecap:butt;stroke-linejoin:miter;stroke-opacity:1" />
      <path
         inkscape:transform-center-y="-13.271289"
         inkscape:transform-center-x="-51.305201"
         sodipodi:nodetypes="ccccc"
         inkscape:connector-curvature="0"
         id="path3088-5-6-5"
         d="m 224.71496,936.86428 -96.12455,26.75847 c -0.90237,-4.54037 -2.48346,-10.89281 -5.51153,-16.21484 l 84.51357,-49.91602 c 7.24692,12.04252 13.56159,22.56599 17.12251,39.37239 z"
         style="fill:#f2f2f2;stroke:#000000;stroke-width:1px;stroke-linecap:butt;stroke-linejoin:miter;stroke-opacity:1" />
      <path
         inkscape:transform-center-y="0.323286"
         inkscape:transform-center-x="-50.561738"
         sodipodi:nodetypes="cccccc"
         inkscape:connector-curvature="0"
         id="path3088-5-6-1"
         d="m 230.12487,980.67001 -99.55261,-0.0462 c 0.75122,-5.83234 -0.57159,-10.46169 -1.87286,-16.5991 l 96.1595,-27.02377 c 2.60261,13.12233 5.87862,30.43163 5.26592,43.66908 z"
         style="fill:none;stroke:#000000;stroke-width:1px;stroke-linecap:butt;stroke-linejoin:miter;stroke-opacity:1" />
    </g>
    <path
       style="fill:#666666;fill-opacity:1;fill-rule:evenodd;stroke:none"
       d="m 9.7296393,984.20507 c 0.26701,-25.54143 -3.5076803,-41.58515 10.5004797,-41.90373 14.00816,-0.31858 12.70922,23.56186 12.70922,23.56186 l -1.13283,-95.1582 c 0,0 3.60081,-11.70596 10.19552,-11.70596 9.07054,0 13.21641,3.77611 12.8388,11.32835 -0.37761,7.55224 0.75522,64.57161 0.75522,64.57161 0,0 0.18881,-18.88058 12.46119,-18.88058 12.27238,0 13.21641,17.93655 13.21641,17.93655 0,0 -0.1194,-14.67604 12.962817,-14.72685 13.082224,-0.0508 13.908484,16.55961 13.908484,16.55961 0,0 2.32489,-9.00738 13.46445,-8.81857 11.13954,0.18881 13.31408,11.38173 13.47394,22.27906 0.25997,17.72306 0.0513,37.87825 0.0324,54.42518 -0.019,16.5469 -20.34522,24.0265 -20.34522,24.0265 l -0.26701,9.1543 -70.613401,0.3776 -0.42343,-8.8036 C 17.908979,1006.1328 9.8913093,1001.6759 9.7296693,984.20507 z"
       id="path2995"
       inkscape:connector-curvature="0"
       sodipodi:nodetypes="czccssczczczszccccc" />
  </g>
</svg>
