<?xml version="1.0" encoding="UTF-8" standalone="no"?>
<!-- Created with Inkscape (http://www.inkscape.org/) -->

<svg
   xmlns:dc="http://purl.org/dc/elements/1.1/"
   xmlns:cc="http://creativecommons.org/ns#"
   xmlns:rdf="http://www.w3.org/1999/02/22-rdf-syntax-ns#"
   xmlns:svg="http://www.w3.org/2000/svg"
   xmlns="http://www.w3.org/2000/svg"
   xmlns:sodipodi="http://sodipodi.sourceforge.net/DTD/sodipodi-0.dtd"
   xmlns:inkscape="http://www.inkscape.org/namespaces/inkscape"
   width="256"
   height="256"
   id="svg5121"
   version="1.1"
   inkscape:version="0.48.3.1 r9886"
   sodipodi:docname="document-print.svg">
  <defs
     id="defs5123" />
  <sodipodi:namedview
     id="base"
     pagecolor="#ffffff"
     bordercolor="#666666"
     borderopacity="1.0"
     inkscape:pageopacity="0.0"
     inkscape:pageshadow="2"
     inkscape:zoom="1.6614269"
     inkscape:cx="125.93222"
     inkscape:cy="198.28696"
     inkscape:document-units="px"
     inkscape:current-layer="layer1"
     showgrid="false"
     inkscape:window-width="1913"
     inkscape:window-height="1026"
     inkscape:window-x="0"
     inkscape:window-y="26"
     inkscape:window-maximized="1" />
  <metadata
     id="metadata5126">
    <rdf:RDF>
      <cc:Work
         rdf:about="">
        <dc:format>image/svg+xml</dc:format>
        <dc:type
           rdf:resource="http://purl.org/dc/dcmitype/StillImage" />
        <dc:title></dc:title>
      </cc:Work>
    </rdf:RDF>
  </metadata>
  <g
     inkscape:label="Capa 1"
     inkscape:groupmode="layer"
     id="layer1"
     transform="translate(0,-796.36218)">
    <rect
       style="fill:#666666;fill-opacity:1;stroke:none"
       width="32.071808"
       height="20.70857"
       ry="2.7455945"
       rx="3.3597281"
       id="rect4899"
       y="854.6507"
       x="174.884" />
    <path
       style="font-size:medium;font-style:normal;font-variant:normal;font-weight:normal;font-stretch:normal;text-indent:0;text-align:start;text-decoration:none;line-height:normal;letter-spacing:normal;word-spacing:normal;text-transform:none;direction:ltr;block-progression:tb;writing-mode:lr-tb;text-anchor:start;color:#000000;fill:#666666;fill-opacity:1;stroke:none;stroke-width:2;marker:none;visibility:visible;display:inline;overflow:visible;enable-background:accumulate;font-family:Bitstream Vera Sans;-inkscape-font-specification:Bitstream Vera Sans"
       id="path41043-9"
       d="M 30.529114,992.98702 C 14.464724,993.47821 2.6213413,983.67746 2.6213413,962.90651 l 0,-116.65968 C 5.1920646,834.52147 17.126528,814.00536 30.529114,813.94407 l 0,-0.24703 1.839316,0 193.74054,0 c 14.59492,0.21665 27.35388,22.84278 27.69498,32.54979 0,0 0,104.25115 0,117.15294 -0.55827,17.72233 -10.18773,29.50625 -24.62947,29.58725 l -44.55165,0 0,-34.51992 c 0,0 4.75104,0 14.4896,0 9.73856,0 28.33312,-5.09604 28.33312,-18.65866 0,-13.56262 0,-58.05637 0,-67.29114 0,-9.23477 -1.95,-23.88256 -29.27481,-23.88256 -27.99688,0 -110.866195,-1.01591 -135.006536,-1.44147 -21.224034,-0.37415 -28.855586,9.32598 -28.855586,34.05147 0,24.72549 0,40.37955 0,54.6514 0,14.27185 8.227546,22.09985 17.82989,22.13984 10.419676,0.0434 17.82989,0.43112 17.82989,0.43112 l 0,34.51992 z"
       inkscape:connector-curvature="0"
       sodipodi:nodetypes="cccccccccccczzzsszzsccc" />
    <rect
       style="fill:#666666;fill-opacity:1;stroke:none"
       width="32.071808"
       height="20.70857"
       ry="2.7455945"
       rx="3.3597281"
       id="rect4899-2"
       y="854.64233"
       x="138.66939" />
    <path
       style="font-size:medium;font-style:normal;font-variant:normal;font-weight:normal;font-stretch:normal;text-indent:0;text-align:start;text-decoration:none;line-height:normal;letter-spacing:normal;word-spacing:normal;text-transform:none;direction:ltr;block-progression:tb;writing-mode:lr-tb;text-anchor:start;baseline-shift:baseline;color:#000000;fill:#666666;fill-opacity:1;stroke:none;stroke-width:1.99999988000000006;marker:none;visibility:visible;display:inline;overflow:visible;enable-background:accumulate;font-family:Sans;-inkscape-font-specification:Sans"
       sodipodi:nodetypes="ccccccccccccccccccccc"
       id="path1234-3"
       d="m 58.659194,1047.4853 c -7.05026,-1.3818 -12.6228,-8.424 -12.49637,-15.793 l 0,-110.55145 30.76031,0 107.588246,0.1079 2.85899,25.98926 -110.447236,-1.58989 0,70.25108 61.520616,0 0,-47.37916 46.14047,0 0,-47.37919 30.76031,0 0,54.28866 c 0.0923,4.17094 -1.5011,8.35452 -4.32567,11.35205 l -54.7918,56.26204 c -2.91885,2.9011 -6.9932,4.5384 -11.05449,4.4417 l -83.629596,0 c -0.47986,0.016 -0.96126,0.016 -1.44112,0 -0.47986,0.016 -0.96126,0.016 -1.44112,0 z"
       inkscape:connector-curvature="0" />
    <g
       id="g3764"
       transform="translate(-336.45777,-64.402471)">
      <path
         transform="matrix(1.1304348,0,0,1.1304348,297.38711,786.36616)"
         d="m 142.64846,125.08843 c 0,26.75948 -21.69284,48.45233 -48.452324,48.45233 -26.759481,0 -48.452327,-21.69285 -48.452327,-48.45233 0,-26.759479 21.692846,-48.452325 48.452327,-48.452325 26.759484,0 48.452324,21.692846 48.452324,48.452325 z"
         sodipodi:ry="48.452328"
         sodipodi:rx="48.452328"
         sodipodi:cy="125.08843"
         sodipodi:cx="94.196136"
         id="path2986"
         style="fill:#ff0000;fill-opacity:1;stroke:none"
         sodipodi:type="arc" />
      <g
         transform="translate(-1.2037843,-2.106633)"
         style="fill:#ffffff;stroke:#ffffff"
         id="g3760">
        <path
           style="fill:#ffffff;stroke:#ffffff;stroke-width:18;stroke-linecap:butt;stroke-linejoin:miter;stroke-miterlimit:4;stroke-opacity:1;stroke-dasharray:none"
           d="m 382.20158,113.35154 45.74381,39.12299"
           id="path2988"
           inkscape:connector-curvature="0"
           transform="translate(0,796.36218)" />
        <path
           style="fill:#ffffff;stroke:#ffffff;stroke-width:18;stroke-linecap:butt;stroke-linejoin:miter;stroke-miterlimit:4;stroke-opacity:1;stroke-dasharray:none"
           d="m 382.20158,153.67832 44.54003,-39.72489"
           id="path2990"
           inkscape:connector-curvature="0"
           transform="translate(0,796.36218)" />
      </g>
    </g>
  </g>
</svg>
