<?xml version="1.0" encoding="UTF-8" standalone="no"?>
<!-- Created with Inkscape (http://www.inkscape.org/) -->

<svg
   xmlns:dc="http://purl.org/dc/elements/1.1/"
   xmlns:cc="http://creativecommons.org/ns#"
   xmlns:rdf="http://www.w3.org/1999/02/22-rdf-syntax-ns#"
   xmlns:svg="http://www.w3.org/2000/svg"
   xmlns="http://www.w3.org/2000/svg"
   xmlns:sodipodi="http://sodipodi.sourceforge.net/DTD/sodipodi-0.dtd"
   xmlns:inkscape="http://www.inkscape.org/namespaces/inkscape"
   width="256"
   height="256"
   id="svg5121"
   version="1.1"
   inkscape:version="0.48.3.1 r9886"
   sodipodi:docname="gtk-quit.svg">
  <defs
     id="defs5123" />
  <sodipodi:namedview
     id="base"
     pagecolor="#ffffff"
     bordercolor="#666666"
     borderopacity="1.0"
     inkscape:pageopacity="0.0"
     inkscape:pageshadow="2"
     inkscape:zoom="1.1748062"
     inkscape:cx="-19.957662"
     inkscape:cy="64.140265"
     inkscape:document-units="px"
     inkscape:current-layer="layer1"
     showgrid="false"
     inkscape:window-width="1434"
     inkscape:window-height="850"
     inkscape:window-x="0"
     inkscape:window-y="26"
     inkscape:window-maximized="1"
     showguides="true"
     inkscape:guide-bbox="true" />
  <metadata
     id="metadata5126">
    <rdf:RDF>
      <cc:Work
         rdf:about="">
        <dc:format>image/svg+xml</dc:format>
        <dc:type
           rdf:resource="http://purl.org/dc/dcmitype/StillImage" />
        <dc:title />
      </cc:Work>
    </rdf:RDF>
  </metadata>
  <g
     inkscape:label="Capa 1"
     inkscape:groupmode="layer"
     id="layer1"
     transform="translate(0,-796.36218)">
    <g
       inkscape:label="status"
       transform="translate(-189.44005,322.89394)"
       id="layer9"
       style="display:inline" />
    <g
       inkscape:label="devices"
       transform="translate(-189.44005,322.89394)"
       id="layer10" />
    <g
       inkscape:label="apps"
       transform="translate(-189.44005,322.89394)"
       id="layer11" />
    <g
       inkscape:label="places"
       transform="translate(-189.44005,322.89394)"
       id="layer13" />
    <g
       inkscape:label="mimetypes"
       transform="translate(-189.44005,322.89394)"
       id="layer14" />
    <g
       inkscape:label="emblems"
       transform="translate(-189.44005,322.89394)"
       id="layer15"
       style="display:inline" />
    <g
       inkscape:label="emotes"
       transform="translate(-189.44005,322.89394)"
       id="g71291"
       style="display:inline" />
    <g
       inkscape:label="categories"
       transform="translate(-189.44005,322.89394)"
       id="g4953"
       style="display:inline" />
    <path
       style="font-size:medium;font-style:normal;font-variant:normal;font-weight:normal;font-stretch:normal;text-indent:0;text-align:start;text-decoration:none;line-height:normal;letter-spacing:normal;word-spacing:normal;text-transform:none;direction:ltr;block-progression:tb;writing-mode:lr-tb;text-anchor:start;baseline-shift:baseline;color:#000000;fill:#666666;fill-opacity:1;stroke:none;stroke-width:2;marker:none;visibility:visible;display:inline;overflow:visible;enable-background:new;font-family:Sans;-inkscape-font-specification:Sans"
       d="M -0.625 14 L 0.09375 241 L 119.03125 203.28125 L 119.03125 14 L -0.625 14 z M 193.375 50.53125 L 182.5 62 L 181.625 62.90625 L 136.8125 110.09375 L 136.71875 110.15625 A 17.071264 17.615283 0 0 0 132.46875 114.625 L 122.84375 124.78125 L 132.6875 134.78125 A 17.071264 17.615283 0 0 0 136.9375 139.03125 L 182.78125 185.4375 L 194.78125 197.5625 L 204.5625 187.25 A 16.796401 17.331662 0 0 0 206.3125 160.6875 L 187.5625 141.75 L 241.75 141.1875 A 16.796401 17.331662 0 0 0 251.84375 109.6875 A 16.796401 17.331662 0 0 0 241.40625 105.9375 L 187.21875 106.5 L 205.59375 87.15625 A 16.796401 17.331662 0 0 0 202.75 60 L 193.375 50.53125 z "
       transform="translate(0,796.36218)"
       id="path12113-8" />
  </g>
</svg>
