<?xml version="1.0" encoding="UTF-8" standalone="no"?>
<!-- Created with Inkscape (http://www.inkscape.org/) -->

<svg
   xmlns:dc="http://purl.org/dc/elements/1.1/"
   xmlns:cc="http://creativecommons.org/ns#"
   xmlns:rdf="http://www.w3.org/1999/02/22-rdf-syntax-ns#"
   xmlns:svg="http://www.w3.org/2000/svg"
   xmlns="http://www.w3.org/2000/svg"
   xmlns:xlink="http://www.w3.org/1999/xlink"
   xmlns:sodipodi="http://sodipodi.sourceforge.net/DTD/sodipodi-0.dtd"
   xmlns:inkscape="http://www.inkscape.org/namespaces/inkscape"
   width="256"
   height="256"
   id="svg2"
   version="1.1"
   inkscape:version="0.48.3.1 r9886"
   sodipodi:docname="folder-desktop.svg">
  <defs
     id="defs4">
    <linearGradient
       inkscape:collect="always"
       xlink:href="#id9"
       id="linearGradient3759"
       x1="5.9660635"
       y1="868.612"
       x2="245.07207"
       y2="868.612"
       gradientUnits="userSpaceOnUse" />
    <linearGradient
       inkscape:collect="always"
       xlink:href="#id9"
       id="linearGradient3767"
       x1="6.1249175"
       y1="156.54388"
       x2="251.96877"
       y2="156.54388"
       gradientUnits="userSpaceOnUse" />
    <linearGradient
       id="id9"
       gradientUnits="userSpaceOnUse"
       x1="77.762001"
       y1="75.677498"
       x2="229.189"
       y2="264.96301">
      <stop
         offset="0"
         style="stop-color:#58A6D8"
         id="stop3151" />
      <stop
         id="stop4258"
         style="stop-color:#548bbb;stop-opacity:1;"
         offset="0.470588" />
      <stop
         offset="0.941176"
         style="stop-color:#50719E"
         id="stop3153" />
      <stop
         offset="1"
         style="stop-color:#386EAB"
         id="stop3155" />
    </linearGradient>
  </defs>
  <sodipodi:namedview
     id="base"
     pagecolor="#ffffff"
     bordercolor="#666666"
     borderopacity="1.0"
     inkscape:pageopacity="0.0"
     inkscape:pageshadow="2"
     inkscape:zoom="1.2484714"
     inkscape:cx="-67.452556"
     inkscape:cy="119.63703"
     inkscape:document-units="px"
     inkscape:current-layer="layer1"
     showgrid="false"
     showguides="true"
     inkscape:guide-bbox="true"
     inkscape:window-width="1920"
     inkscape:window-height="1050"
     inkscape:window-x="-4"
     inkscape:window-y="-4"
     inkscape:window-maximized="1" />
  <metadata
     id="metadata7">
    <rdf:RDF>
      <cc:Work
         rdf:about="">
        <dc:format>image/svg+xml</dc:format>
        <dc:type
           rdf:resource="http://purl.org/dc/dcmitype/StillImage" />
        <dc:title />
      </cc:Work>
    </rdf:RDF>
  </metadata>
  <g
     inkscape:label="Layer 1"
     inkscape:groupmode="layer"
     id="layer1"
     transform="translate(0,-796.3622)">
    <g
       id="g3923">
      <path
         id="rect2995"
         transform="translate(0,796.3622)"
         d="M 110.84375 78.40625 C 79.574652 78.354778 42.984196 78.648432 28.78125 78.78125 C 9.8439856 78.89459 6.104634 85.69874 6.125 103.0625 L 6.25 203.375 C 6.2704274 220.73866 20.260506 234.6875 37.625 234.6875 L 220.65625 234.46875 C 238.02073 234.44745 251.99005 220.45751 251.96875 203.09375 L 251.90625 137.875 C 251.88584 120.51125 237.89576 106.59375 220.53125 106.59375 L 166.96875 106.59375 C 166.94146 83.38776 153.615 78.57605 139.3125 78.59375 C 131.09351 78.478637 121.26678 78.423407 110.84375 78.40625 z M 73.34375 121.25 L 108.59375 121.25 L 70.59375 159.25 L 70.59375 124 C 70.59375 122.50754 71.85128 121.25 73.34375 121.25 z M 147.625 121.25 L 178.71875 121.25 C 180.21121 121.25 181.46875 122.50754 181.46875 124 L 181.46875 158.75 L 147.625 121.25 z M 96.25 145.125 L 157.25 145.125 C 157.35566 145.125 157.4375 145.20684 157.4375 145.3125 L 157.4375 190.8125 C 157.4375 190.91816 157.35566 191 157.25 191 L 96.25 191 C 96.144338 191 96.0625 190.91816 96.0625 190.8125 L 96.0625 145.3125 C 96.0625 145.20684 96.144338 145.125 96.25 145.125 z M 70.59375 175.625 L 110.09375 216.125 L 73.34375 216.125 C 71.85128 216.125 70.59375 214.8674 70.59375 213.375 L 70.59375 175.625 z M 181.46875 176.125 L 181.46875 213.375 C 181.46875 214.8674 180.21121 216.125 178.71875 216.125 L 146.09375 216.125 L 181.46875 176.125 z "
         style="fill:url(#linearGradient3767);fill-opacity:1.0;stroke:none" />
      <path
         sodipodi:nodetypes="cczcczzczszcc"
         inkscape:connector-curvature="0"
         id="path3769"
         d="m 146.52833,864.87609 c 12.97797,-0.26563 24.49128,7.88408 26.13988,27.91838 15.28963,0 31.25133,0.17709 53.01087,0.17709 21.75955,0 19.31029,13.55807 19.31029,13.55807 0,0 -0.0195,-54.482 -0.0265,-60.13474 -0.007,-5.65274 -2.14009,-15.83547 -16.97977,-15.69911 -14.83967,0.17709 -42.20801,0.37189 -51.32854,0.3896 -9.12056,0.0177 -11.50069,10.52628 -11.50069,10.52628 0,0 -127.715858,0.53127 -144.473859,0.53127 -16.7580033,0 -14.797503,10.88401 -14.4840647,35.02504 0.029043,2.23842 3.3026188,-11.30194 12.3651507,-11.48258 9.062533,-0.17709 85.339243,-0.19479 127.967293,-0.81461 z"
         style="fill:url(#linearGradient3759);fill-opacity:1.0;stroke:none" />
    </g>
  </g>
</svg>
