<?xml version="1.0" encoding="UTF-8" standalone="no"?>
 

<svg
   xmlns:dc="http://purl.org/dc/elements/1.1/"
   xmlns:cc="http://creativecommons.org/ns#"
   xmlns:rdf="http://www.w3.org/1999/02/22-rdf-syntax-ns#"
   xmlns:svg="http://www.w3.org/2000/svg"
   xmlns="http://www.w3.org/2000/svg"
   xmlns:xlink="http://www.w3.org/1999/xlink"
   xmlns:sodipodi="http://sodipodi.sourceforge.net/DTD/sodipodi-0.dtd"
   xmlns:inkscape="http://www.inkscape.org/namespaces/inkscape"
   xml:space="preserve"
   width="256"
   height="256"
   style="fill-rule:evenodd"
   viewBox="0 0 256 256"
   id="svg2"
   version="1.1"
   inkscape:version="0.48.3.1 r9886"
   sodipodi:docname="go-home.svg"><metadata
   id="metadata63"><rdf:RDF><cc:Work
       rdf:about=""><dc:format>image/svg+xml</dc:format><dc:type
         rdf:resource="http://purl.org/dc/dcmitype/StillImage" /></cc:Work></rdf:RDF></metadata><sodipodi:namedview
   pagecolor="#ffffff"
   bordercolor="#666666"
   borderopacity="1"
   objecttolerance="10"
   gridtolerance="10"
   guidetolerance="10"
   inkscape:pageopacity="0"
   inkscape:pageshadow="2"
   inkscape:window-width="640"
   inkscape:window-height="480"
   id="namedview61"
   showgrid="false"
   inkscape:zoom="0.78666667"
   inkscape:cx="150"
   inkscape:cy="150"
   inkscape:window-x="0"
   inkscape:window-y="16"
   inkscape:window-maximized="0"
   inkscape:current-layer="svg2" />
 <defs
   id="defs4"><style
     type="text/css"
     id="style6">
   
    .fil0 {fill:url(#id4)}
    .fil2 {fill:url(#id5)}
    .fil4 {fill:url(#id6)}
    .fil5 {fill:url(#id7)}
    .fil1 {fill:url(#id8);fill-rule:nonzero}
    .fil3 {fill:url(#id9);fill-rule:nonzero}
   
  </style><mask
     id="id0">
  <linearGradient
   id="id1"
   gradientUnits="userSpaceOnUse"
   x1="128.92101"
   y1="208.196"
   x2="164.759"
   y2="199.77299">
   <stop
   offset="0"
   style="stop-opacity:1; stop-color:white"
   id="stop10" />
   <stop
   offset="1"
   style="stop-opacity:0; stop-color:white"
   id="stop12" />
  </linearGradient>
      <rect
   style="fill:url(#id1)"
   x="119.811"
   y="173.008"
   width="54.057701"
   height="61.952702"
   id="rect14" />
     </mask><mask
     id="id2">
  <linearGradient
   id="id3"
   gradientUnits="userSpaceOnUse"
   x1="49.438999"
   y1="118.084"
   x2="178.524"
   y2="101.707">
   <stop
   offset="0"
   style="stop-opacity:1; stop-color:white"
   id="stop18" />
   <stop
   offset="0.439216"
   style="stop-opacity:0.501961; stop-color:white"
   id="stop20" />
   <stop
   offset="1"
   style="stop-opacity:0; stop-color:white"
   id="stop22" />
  </linearGradient>
     <rect
   style="fill:url(#id3)"
   x="-11.1642"
   y="50.1684"
   width="250.291"
   height="119.454"
   id="rect24" />
    </mask><linearGradient
     id="id4"
     gradientUnits="userSpaceOnUse"
     x1="36.1861"
     y1="84.555199"
     x2="267.177"
     y2="215.448">
   <stop
   offset="0"
   style="stop-color:#94C9E2"
   id="stop27" />
   <stop
   offset="0.490196"
   style="stop-color:#58A6D8"
   id="stop29" />
   <stop
   offset="0.819608"
   style="stop-color:#50719E"
   id="stop31" />
   <stop
   offset="1"
   style="stop-color:#386EAB"
   id="stop33" />
  </linearGradient><linearGradient
     id="id5"
     gradientUnits="userSpaceOnUse"
     xlink:href="#id4"
     x1="128.44"
     y1="185.245"
     x2="177.21201"
     y2="225.88699">
  </linearGradient><linearGradient
     id="id6"
     gradientUnits="userSpaceOnUse"
     x1="124.997"
     y1="198.34399"
     x2="168.683"
     y2="209.625">
   <stop
   offset="0"
   style="stop-color:#B3D5E1"
   id="stop37" />
   <stop
   offset="1"
   style="stop-color:white"
   id="stop39" />
  </linearGradient><linearGradient
     id="id7"
     gradientUnits="userSpaceOnUse"
     xlink:href="#id6"
     x1="37.2491"
     y1="109.895"
     x2="190.714"
     y2="109.895">
  </linearGradient><linearGradient
     id="id8"
     gradientUnits="userSpaceOnUse"
     x1="279.685"
     y1="205.30099"
     x2="23.6724"
     y2="94.707603">
   <stop
   offset="0"
   style="stop-color:#82C7E6"
   id="stop43" />
   <stop
   offset="0.741176"
   style="stop-color:#6690C2"
   id="stop45" />
   <stop
   offset="1"
   style="stop-color:#3C599B"
   id="stop47" />
  </linearGradient><linearGradient
     id="id9"
     gradientUnits="userSpaceOnUse"
     xlink:href="#id8"
     x1="180.51401"
     y1="223.188"
     x2="125.134"
     y2="187.94501">
  </linearGradient><linearGradient
     inkscape:collect="always"
     xlink:href="#id4"
     id="linearGradient3040"
     gradientUnits="userSpaceOnUse"
     x1="36.1861"
     y1="84.555199"
     x2="267.177"
     y2="215.448" /><linearGradient
     inkscape:collect="always"
     xlink:href="#id8"
     id="linearGradient3042"
     gradientUnits="userSpaceOnUse"
     x1="279.685"
     y1="205.30099"
     x2="23.6724"
     y2="94.707603" /><linearGradient
     inkscape:collect="always"
     xlink:href="#id6"
     id="linearGradient3044"
     gradientUnits="userSpaceOnUse"
     x1="124.997"
     y1="198.34399"
     x2="168.683"
     y2="209.625" /></defs>
 <g
   id="Capa_x0020_1"
   transform="matrix(0.8223611,0,0,0.8223611,4.0626357,3.4712376)">
  <metadata
   id="CorelCorpID_0Corel-Layer" />
  <g
   id="_143662352">
   <path
   id="_141208176"
   class="fil0"
   d="m 53.5816,251.349 0,-93.4315 -50.3636,0 64.4386,-109.756 168.629,-0.03737 63.86,109.793 -44.6555,0 0,93.9616 -49.5622,0 c 0,0 0.78617,-80.2741 0.78617,-93.9616 0,-13.693 -13.9421,-53.9332 -53.4723,-53.201 -39.5246,0.72666 -52.4217,43.1316 -52.4217,53.201 0,10.0694 -0.52457,93.437 -0.52457,93.437 l -46.713703,-0.006 z"
   inkscape:connector-curvature="0"
   style="fill:url(#linearGradient3040)" />
   <path
   id="_145691760"
   class="fil1"
   d="m 52.5394,251.349 0,-92.3892 -49.3213,0 -1.81595,0 0.920432,-1.5682 64.4386,-109.756 0.300352,-0.51212 0.595167,0 168.628999,-0.03737 0.59932,0 0.30035,0.516273 63.86,109.792997 0.90936,1.56404 -1.80903,0 -43.6133,0 0,92.9194 0,1.04362 -1.04223,0 -49.5622,0 -1.04777,0 0.01,-1.05192 c 0.001,-0.22838 0.78202,-79.3869 0.78202,-93.9533 l 0.004,0 -0.004,-0.37509 c -0.12595,-6.81535 -3.58207,-19.7651 -11.7234,-31.0414 -8.10396,-11.2279 -20.8724,-20.7519 -39.6464,-20.7519 -0.48859,0 -0.83739,0.001 -1.04362,0.006 -14.6286,0.26851 -25.5327,6.3752 -33.4359,14.3947 -13.0549,13.2487 -17.9602,31.6407 -17.9602,37.7682 0,9.73997 -0.52734,93.2003 -0.52873,93.4412 l -0.007,1.03393 -1.03116,0 -46.713699,-0.006 -1.04223,0 0,-1.03808 z m 2.08585,-93.4315 0,92.3934 44.6375,0.004 c 0.05952,-9.55865 0.513504,-82.6673 0.513504,-92.3976 0,-6.3932 5.069986,-25.5327 18.563696,-39.2256 8.24237,-8.36555 19.6184,-14.7338 34.8851,-15.0148 0.50382,-0.008 0.86369,-0.0138 1.07684,-0.0138 19.5782,0 32.8878,9.92406 41.3323,21.6239 8.40984,11.65 11.9836,25.1119 12.1151,32.222 l 0,0.008 0.003,0.3917 0.004,0.008 c 0,11.9698 -0.6879,83.4175 -0.77925,92.9194 l 47.4708,0 0,-92.9194 0,-1.04223 1.04223,0 42.8451,0 -62.6489,-107.712996 -167.433998,0.03737 -63.2164004,107.674996 48.5462004,0 1.04362,0 0,1.04223 z"
   inkscape:connector-curvature="0"
   style="fill:url(#linearGradient3042);fill-rule:nonzero" />
   <g
   id="g55">
    <path
   id="_141458560"
   class="fil2"
   d="m 183.998,205.558 c 0,17.3775 -13.9615,31.4663 -31.1784,31.4663 -17.2072,0 -31.1687,-14.0861 -31.1687,-31.4663 0,-17.3719 13.9615,-31.4497 31.1687,-31.4497 17.2169,0 31.1784,14.0778 31.1784,31.4497 z"
   inkscape:connector-curvature="0"
   style="fill:url(#id5)" />
    <path
   id="_141386336"
   class="fil3"
   d="m 184.842,205.558 c 0,8.91781 -3.58623,16.9941 -9.3801,22.8419 -5.79665,5.84924 -13.8023,9.46869 -22.6426,9.46869 -8.83615,0 -16.8404,-3.61944 -22.6357,-9.46869 -5.79249,-5.84786 -9.37734,-13.9241 -9.37734,-22.8419 0,-8.91366 3.58484,-16.9844 9.37734,-22.8295 5.79526,-5.84647 13.7996,-9.46315 22.6357,-9.46315 8.8403,0 16.8474,3.61529 22.644,9.46177 5.79388,5.84509 9.37872,13.9172 9.37872,22.8309 z m -10.5732,21.6571 c 5.48937,-5.54059 8.88598,-13.1975 8.88598,-21.6571 0,-8.45552 -3.39522,-16.1096 -8.88459,-21.6447 -5.48799,-5.53782 -13.0743,-8.9621 -21.4509,-8.9621 -8.37247,0 -15.956,3.42567 -21.444,8.9621 -5.48661,5.53643 -8.88182,13.1892 -8.88182,21.6447 0,8.45967 3.39522,16.1166 8.88182,21.6558 5.48937,5.54059 13.0715,8.96764 21.444,8.96764 8.37663,0 15.9615,-3.42705 21.4495,-8.96626 z"
   inkscape:connector-curvature="0"
   style="fill:url(#id9);fill-rule:nonzero" />
    <path
   id="_141421632"
   class="fil4"
   style="fill:url(#linearGradient3044)"
   d="m 123.587,204.97 c 2.15783,-27.0898 29.0995,-36.8602 46.5905,-20.5997 8.01676,7.45204 -6.4624,35.818 -17.7235,46.9573 -6.4541,6.38489 -18.8626,-1.98343 -24.8752,-10.6383 -4.38901,-6.31846 -3.38968,-12.1386 -3.99177,-15.7193 z"
   mask="url(#id0)"
   inkscape:connector-curvature="0" />
   </g>
   <path
   id="_141686208"
   class="fil5"
   style="fill:url(#id7)"
   d="m 10.0071,153.995 60.815,-102.442 164.869,0.726657 c 10.5774,63.022603 -22.3063,65.385303 -35.9315,65.865603 -8.17316,0.28928 -19.4564,-19.694503 -38.2263,-20.450203 -16.7353,-0.675445 -31.3514,-2.99383 -49.4736,20.706303 -5.78834,7.57107 -12.893,19.0107 -17.3277,35.1799 l -84.7254,0.41385 z"
   mask="url(#id2)"
   inkscape:connector-curvature="0" />
  </g>
 </g>
</svg>