<?xml version="1.0" encoding="UTF-8" standalone="no"?>
<!-- Created with Inkscape (http://www.inkscape.org/) -->

<svg
   xmlns:dc="http://purl.org/dc/elements/1.1/"
   xmlns:cc="http://creativecommons.org/ns#"
   xmlns:rdf="http://www.w3.org/1999/02/22-rdf-syntax-ns#"
   xmlns:svg="http://www.w3.org/2000/svg"
   xmlns="http://www.w3.org/2000/svg"
   xmlns:sodipodi="http://sodipodi.sourceforge.net/DTD/sodipodi-0.dtd"
   xmlns:inkscape="http://www.inkscape.org/namespaces/inkscape"
   version="1.0"
   width="96"
   height="96"
   id="svg2408"
   inkscape:version="0.48.3.1 r9886"
   sodipodi:docname="applications-geology.svg">
  <sodipodi:namedview
     pagecolor="#ffffff"
     bordercolor="#666666"
     borderopacity="1"
     objecttolerance="10"
     gridtolerance="10"
     guidetolerance="10"
     inkscape:pageopacity="0"
     inkscape:pageshadow="2"
     inkscape:window-width="1914"
     inkscape:window-height="1031"
     id="namedview71"
     showgrid="false"
     inkscape:zoom="2.5613095"
     inkscape:cx="24.550611"
     inkscape:cy="6.0660273"
     inkscape:window-x="0"
     inkscape:window-y="25"
     inkscape:window-maximized="1"
     inkscape:current-layer="svg2408" />
  <defs
     id="defs2410">
    <linearGradient
       x1="45.447727"
       y1="92.539597"
       x2="45.447727"
       y2="7.0165396"
       id="ButtonShadow"
       gradientUnits="userSpaceOnUse"
       gradientTransform="scale(1.0058652,0.994169)">
      <stop
         id="stop3750"
         style="stop-color:#000000;stop-opacity:1"
         offset="0" />
      <stop
         id="stop3752"
         style="stop-color:#000000;stop-opacity:0.58823532"
         offset="1" />
    </linearGradient>
    <filter
       color-interpolation-filters="sRGB"
       id="filter3174">
      <feGaussianBlur
         id="feGaussianBlur3176"
         stdDeviation="1.71" />
    </filter>
  </defs>
  <metadata
     id="metadata2413">
    <rdf:RDF>
      <cc:Work
         rdf:about="">
        <dc:format>image/svg+xml</dc:format>
        <dc:type
           rdf:resource="http://purl.org/dc/dcmitype/StillImage" />
        <dc:title />
      </cc:Work>
    </rdf:RDF>
  </metadata>
  <g
     id="layer2"
     style="display:none">
    <rect
       width="86"
       height="85"
       rx="6"
       ry="6"
       x="5"
       y="7"
       id="rect3745"
       style="opacity:0.9;fill:url(#ButtonShadow);fill-opacity:1;fill-rule:nonzero;stroke:none;filter:url(#filter3174)" />
  </g>
  <rect
     style="fill:#ffb380;fill-opacity:1;stroke:none"
     id="rect8672-7-4-5-8-1-9-7-1-1-3-3-2-5-6"
     width="91.555542"
     height="85.637085"
     x="2.6224084"
     y="6.0256071"
     ry="12.031657" />
  <path
     style="fill:#cd9067;fill-opacity:1;stroke:none"
     d="M 17.77384,29.942645 2.7966661,39.757985 2.952477,77.753917 c -0.5214906,10.025543 5.8674026,15.146498 17.597574,14.023777 8.20268,-0.366369 16.348369,0.418336 23.801182,0.03954 L 66.351467,80.02142 C 65.81441,73.673026 46.411985,41.549215 41.615577,30.366645 37.976786,21.883039 25.709161,24.254917 17.77384,29.942501 z"
     id="path8889-0-6-5-6-6-4-7-0-2-3-1-1-2-1-2"
     inkscape:connector-curvature="0"
     sodipodi:nodetypes="ccccccscc" />
  <path
     style="fill:#ffee86;fill-opacity:1;stroke:none"
     d="m 13.660495,32.080677 4.516065,7.720163 c 0,0 10.291055,-5.448931 11.761405,-6.905491 1.419213,0.931275 1.901082,2.795523 1.901082,2.795523 l 10.109959,-6.119587 -1.23007,-2.338577 c 0,0 6.753897,-3.639258 11.210966,-5.835148 4.127346,-2.03346 8.051456,-3.877782 8.051456,-3.877782 0,0 -9.039299,-0.141361 -12.799503,0.160917 -3.444922,0.277012 -10.471597,1.783117 -10.471597,1.783117 l -1.226122,-1.258402 -10.693138,4.977999 0.926265,2.279781 z"
     id="path3048-9-9"
     inkscape:connector-curvature="0"
     sodipodi:nodetypes="ccccccscsccccc" />
  <path
     style="fill:#ffee86;fill-opacity:1;stroke:none"
     d="m 42.107694,31.041237 -8.247332,4.66135 22.775375,40.303724 c 1.912496,3.384336 5.272959,6.60092 9.213411,4.337029 4.634789,-2.66295 1.642705,-6.141864 -0.711457,-10.51661 z"
     id="path3050-1-8"
     inkscape:connector-curvature="0"
     sodipodi:nodetypes="ccsscc" />
  <path
     style="fill:#ffee86;fill-opacity:1;stroke:none"
     d="m 65.437549,40.847355 c -1.031818,-0.264086 -2.397103,0.499998 -3.307025,0.801969 -0.05095,1.295131 0.326845,2.316834 0.227738,3.208112 -0.954177,0.02957 -1.886888,0.785211 -3.097249,1.276504 -0.36568,0.597302 -0.238909,1.846174 -0.316394,2.580895 1.344161,1.796086 3.558179,4.504204 4.71759,5.68032 0.550041,-0.07699 1.979308,-0.522841 2.916504,-0.96541 0.901478,0.190635 2.055868,1.309058 2.914645,1.64326 1.626067,0.632737 5.274523,0.08364 5.274523,0.08364 0,0 0.667542,-1.092662 0.50856,-1.883867 0.679799,-1.017837 2.501871,-2.742046 2.779532,-3.58706 0.426628,-1.105224 -0.53984,-2.154072 -1.124138,-3.086074 0.226175,-1.358743 0.548968,-2.465831 0.456937,-3.395283 -0.58576,-0.61899 -1.414923,-0.67414 -2.650071,-1.317324 -0.696918,-1.092584 -0.707166,-1.522184 -1.488162,-2.782967 -1.292295,0.134396 -3.525781,0.550078 -5.14482,0.687472 -0.952762,0.552348 -1.028007,2.006084 -1.746058,2.124651 -0.469865,-0.02537 -0.466249,-0.952191 -0.922112,-1.068834 z"
     id="path3052-9"
     inkscape:connector-curvature="0"
     sodipodi:nodetypes="cccccccccccccccccc" />
  <path
     style="fill:#ffee9a;fill-opacity:1;stroke:none"
     d="m 74.143129,58.950987 0.679068,1.651516 c 0,0 2.443698,-1.190418 2.309612,-1.877793 -0.134151,-0.687423 -2.98868,0.226277 -2.98868,0.226277 z"
     id="path3054-2"
     inkscape:connector-curvature="0" />
  <path
     style="fill:#ffee9a;fill-opacity:1;stroke:none"
     d="m 78.527641,53.992403 -0.318594,2.024545 1.827593,-1.605358 1.291075,-4.355047 c 0,0 -2.812568,-0.700012 -2.850283,0.02088 -0.03755,0.720952 0.05022,3.914965 0.05022,3.914965 z"
     id="path3056-5"
     inkscape:connector-curvature="0" />
</svg>
