<?xml version="1.0" encoding="UTF-8" standalone="no"?>
<!-- Created with Inkscape (http://www.inkscape.org/) -->

<svg
   xmlns:dc="http://purl.org/dc/elements/1.1/"
   xmlns:cc="http://creativecommons.org/ns#"
   xmlns:rdf="http://www.w3.org/1999/02/22-rdf-syntax-ns#"
   xmlns:svg="http://www.w3.org/2000/svg"
   xmlns="http://www.w3.org/2000/svg"
   xmlns:xlink="http://www.w3.org/1999/xlink"
   xmlns:sodipodi="http://sodipodi.sourceforge.net/DTD/sodipodi-0.dtd"
   xmlns:inkscape="http://www.inkscape.org/namespaces/inkscape"
   width="256"
   height="256"
   id="svg5121"
   version="1.1"
   inkscape:version="0.48.3.1 r9886"
   sodipodi:docname="fileprint.svg">
  <defs
     id="defs5123">
    <linearGradient
       id="id9-9"
       gradientUnits="userSpaceOnUse"
       x1="77.762001"
       y1="75.677498"
       x2="229.189"
       y2="264.96301">
      <stop
         offset="0"
         style="stop-color:#58A6D8"
         id="stop3151-8" />
      <stop
         id="stop4258-1"
         style="stop-color:#548bbb;stop-opacity:1;"
         offset="0.470588" />
      <stop
         offset="0.941176"
         style="stop-color:#50719E"
         id="stop3153-82" />
      <stop
         offset="1"
         style="stop-color:#386EAB"
         id="stop3155-6" />
    </linearGradient>
    <linearGradient
       id="id9-9-2"
       gradientUnits="userSpaceOnUse"
       x1="77.762001"
       y1="75.677498"
       x2="229.189"
       y2="264.96301">
      <stop
         offset="0"
         style="stop-color:#58A6D8"
         id="stop3151-8-5" />
      <stop
         id="stop4258-1-86"
         style="stop-color:#548bbb;stop-opacity:1;"
         offset="0.470588" />
      <stop
         offset="0.941176"
         style="stop-color:#50719E"
         id="stop3153-82-2" />
      <stop
         offset="1"
         style="stop-color:#386EAB"
         id="stop3155-6-6" />
    </linearGradient>
    <linearGradient
       id="linearGradient5152"
       gradientUnits="userSpaceOnUse"
       x1="77.762001"
       y1="75.677498"
       x2="229.189"
       y2="264.96301">
      <stop
         offset="0"
         style="stop-color:#58A6D8"
         id="stop5154" />
      <stop
         id="stop5156"
         style="stop-color:#548bbb;stop-opacity:1;"
         offset="0.470588" />
      <stop
         offset="0.941176"
         style="stop-color:#50719E"
         id="stop5158" />
      <stop
         offset="1"
         style="stop-color:#386EAB"
         id="stop5160" />
    </linearGradient>
    <linearGradient
       y2="8.0000248"
       x2="14"
       y1="8.0000248"
       x1="0.96875"
       spreadMethod="reflect"
       gradientTransform="matrix(19.320805,0,0,13.301596,-2278.1381,-7659.517)"
       gradientUnits="userSpaceOnUse"
       id="linearGradient4155"
       xlink:href="#id9-9-9"
       inkscape:collect="always" />
    <linearGradient
       id="id9-9-9"
       gradientUnits="userSpaceOnUse"
       x1="77.762001"
       y1="75.677498"
       x2="229.189"
       y2="264.96301">
      <stop
         offset="0"
         style="stop-color:#58A6D8"
         id="stop3151-8-7" />
      <stop
         id="stop4258-1-6"
         style="stop-color:#548bbb;stop-opacity:1;"
         offset="0.470588" />
      <stop
         offset="0.941176"
         style="stop-color:#50719E"
         id="stop3153-82-29" />
      <stop
         offset="1"
         style="stop-color:#386EAB"
         id="stop3155-6-5" />
    </linearGradient>
  </defs>
  <sodipodi:namedview
     id="base"
     pagecolor="#ffffff"
     bordercolor="#666666"
     borderopacity="1.0"
     inkscape:pageopacity="0.0"
     inkscape:pageshadow="2"
     inkscape:zoom="1.3385519"
     inkscape:cx="-145.06805"
     inkscape:cy="44.243631"
     inkscape:document-units="px"
     inkscape:current-layer="layer1"
     showgrid="false"
     inkscape:window-width="1918"
     inkscape:window-height="1007"
     inkscape:window-x="0"
     inkscape:window-y="25"
     inkscape:window-maximized="1" />
  <metadata
     id="metadata5126">
    <rdf:RDF>
      <cc:Work
         rdf:about="">
        <dc:format>image/svg+xml</dc:format>
        <dc:type
           rdf:resource="http://purl.org/dc/dcmitype/StillImage" />
        <dc:title />
      </cc:Work>
    </rdf:RDF>
  </metadata>
  <g
     inkscape:label="Capa 1"
     inkscape:groupmode="layer"
     id="layer1"
     transform="translate(0,-796.36218)">
    <path
       style="fill:#55ddff;fill-opacity:1;stroke:#000000;stroke-width:2;stroke-miterlimit:4;stroke-opacity:1"
       d="m 180.05301,864.25159 c 8.24554,1.21688 11.69161,1.02159 19.09543,0 1.35957,-0.34204 2.53056,0.54857 2.53056,1.22999 l 0,6.81722 c 0,0.68141 -1.12863,1.22999 -2.53056,1.22999 -6.56105,-1.2091 -12.33225,-1.08138 -19.09543,0 -1.38434,0.22135 -2.53055,-0.54858 -2.53055,-1.22999 l 0,-6.81722 c 0,-0.68142 1.12863,-1.22999 2.53055,-1.22999 z"
       id="rect4899"
       inkscape:connector-curvature="0"
       sodipodi:nodetypes="ccssccssc" />
    <path
       style="font-size:medium;font-style:normal;font-variant:normal;font-weight:normal;font-stretch:normal;text-indent:0;text-align:start;text-decoration:none;line-height:normal;letter-spacing:normal;word-spacing:normal;text-transform:none;direction:ltr;block-progression:tb;writing-mode:lr-tb;text-anchor:start;color:#000000;fill:#50dafd;fill-opacity:1;stroke:#000000;stroke-width:5.93710947;stroke-linecap:round;stroke-linejoin:round;stroke-miterlimit:4;stroke-opacity:1;stroke-dasharray:none;marker:none;visibility:visible;display:inline;overflow:visible;enable-background:accumulate;font-family:Bitstream Vera Sans;-inkscape-font-specification:Bitstream Vera Sans"
       id="path41043-9"
       d="M 33.561048,962.57033 C 27.984829,963.34839 21.13724,962.2862 14.350895,960.10398 7.564527,957.92201 3.3984075,946.56604 3.3984075,943.75441 l 1.86769,-46.4105 -0.373538,-50.03761 C 18.777803,811.10456 177.87794,833.77841 224.31527,836.715 c 6.95673,0.4357 14.59823,1.00925 20.4108,3.20624 5.81257,2.19736 9.00477,5.60943 9.00477,8.87921 -4.94011,31.91961 -2.09186,63.4728 0,95.44723 0.17174,2.62512 -6.02012,14.72303 -11.53951,16.85719 -5.51938,2.13415 -12.95805,4.07179 -18.60986,2.95961 l -45.55744,-8.96491 0,-15.78457 37.2865,0 c -5.6776,-30.8674 -2.75843,-56.06902 0,-86.81505 -61.58506,6.71062 -109.45203,3.0273 -173.491805,0 4.023789,28.93835 4.741855,57.8767 0,86.81505 l 45.283754,0 0,15.78457 z"
       inkscape:connector-curvature="0"
       sodipodi:nodetypes="scsccccccssccccccccs" />
    <path
       style="fill:#55ddff;fill-opacity:1;stroke:#000000;stroke-width:2;stroke-miterlimit:4;stroke-opacity:1"
       d="m 152.77611,864.24786 c 6.36514,0.38902 12.73029,0.59754 19.09543,0 1.39579,-0.13103 2.53055,0.54858 2.53055,1.23 l 0,6.81721 c 0,0.68142 -1.12862,1.23 -2.53055,1.23 -8.22493,-1.31851 -11.11164,-0.85645 -19.09543,0 -1.33141,-0.43902 -2.53055,-0.54858 -2.53055,-1.23 l 0,-6.81721 c 0,-0.68142 1.13124,-1.31552 2.53055,-1.23 z"
       id="rect4899-2"
       inkscape:connector-curvature="0"
       sodipodi:nodetypes="ssssccsss" />
    <path
       style="fill:#55ddff;fill-opacity:1;stroke:#000000;stroke-width:8;stroke-linecap:round;stroke-linejoin:round;stroke-miterlimit:4;stroke-opacity:1;stroke-dasharray:none"
       sodipodi:nodetypes="cccccc"
       id="rect4897-3"
       d="m 65.493657,1032.4354 c 41.554913,-14.252 73.296043,-24.2146 130.459963,-20.9182 -1.07724,-28.77236 -1.39207,-50.074 -11.33922,-78.8464 -4.74776,-9.99809 -8.78794,-16.42381 -22.31835,-17.11034 -35.72523,3.4637 -56.19313,-0.8163 -73.058508,1.28009 -24.656177,15.35197 -21.315895,92.16085 -23.743885,115.59485 z"
       inkscape:connector-curvature="0" />
  </g>
</svg>
