<?xml version="1.0" encoding="UTF-8" standalone="no"?>
<!-- Created with Inkscape (http://www.inkscape.org/) -->

<svg
   xmlns:dc="http://purl.org/dc/elements/1.1/"
   xmlns:cc="http://creativecommons.org/ns#"
   xmlns:rdf="http://www.w3.org/1999/02/22-rdf-syntax-ns#"
   xmlns:svg="http://www.w3.org/2000/svg"
   xmlns="http://www.w3.org/2000/svg"
   xmlns:xlink="http://www.w3.org/1999/xlink"
   xmlns:sodipodi="http://sodipodi.sourceforge.net/DTD/sodipodi-0.dtd"
   xmlns:inkscape="http://www.inkscape.org/namespaces/inkscape"
   width="256"
   height="256"
   id="svg5121"
   version="1.1"
   inkscape:version="0.48.3.1 r9886"
   sodipodi:docname="filequickprint.svg">
  <defs
     id="defs5123">
    <linearGradient
       id="id9-9"
       gradientUnits="userSpaceOnUse"
       x1="77.762001"
       y1="75.677498"
       x2="229.189"
       y2="264.96301">
      <stop
         offset="0"
         style="stop-color:#58A6D8"
         id="stop3151-8" />
      <stop
         id="stop4258-1"
         style="stop-color:#548bbb;stop-opacity:1;"
         offset="0.470588" />
      <stop
         offset="0.941176"
         style="stop-color:#50719E"
         id="stop3153-82" />
      <stop
         offset="1"
         style="stop-color:#386EAB"
         id="stop3155-6" />
    </linearGradient>
    <linearGradient
       id="id9-9-2"
       gradientUnits="userSpaceOnUse"
       x1="77.762001"
       y1="75.677498"
       x2="229.189"
       y2="264.96301">
      <stop
         offset="0"
         style="stop-color:#58A6D8"
         id="stop3151-8-5" />
      <stop
         id="stop4258-1-86"
         style="stop-color:#548bbb;stop-opacity:1;"
         offset="0.470588" />
      <stop
         offset="0.941176"
         style="stop-color:#50719E"
         id="stop3153-82-2" />
      <stop
         offset="1"
         style="stop-color:#386EAB"
         id="stop3155-6-6" />
    </linearGradient>
    <linearGradient
       id="linearGradient5152"
       gradientUnits="userSpaceOnUse"
       x1="77.762001"
       y1="75.677498"
       x2="229.189"
       y2="264.96301">
      <stop
         offset="0"
         style="stop-color:#58A6D8"
         id="stop5154" />
      <stop
         id="stop5156"
         style="stop-color:#548bbb;stop-opacity:1;"
         offset="0.470588" />
      <stop
         offset="0.941176"
         style="stop-color:#50719E"
         id="stop5158" />
      <stop
         offset="1"
         style="stop-color:#386EAB"
         id="stop5160" />
    </linearGradient>
    <linearGradient
       y2="8.0000248"
       x2="14"
       y1="8.0000248"
       x1="0.96875"
       spreadMethod="reflect"
       gradientTransform="matrix(19.320805,0,0,13.301596,-2278.1381,-7659.517)"
       gradientUnits="userSpaceOnUse"
       id="linearGradient4155"
       xlink:href="#id9-9-9"
       inkscape:collect="always" />
    <linearGradient
       id="id9-9-9"
       gradientUnits="userSpaceOnUse"
       x1="77.762001"
       y1="75.677498"
       x2="229.189"
       y2="264.96301">
      <stop
         offset="0"
         style="stop-color:#58A6D8"
         id="stop3151-8-7" />
      <stop
         id="stop4258-1-6"
         style="stop-color:#548bbb;stop-opacity:1;"
         offset="0.470588" />
      <stop
         offset="0.941176"
         style="stop-color:#50719E"
         id="stop3153-82-29" />
      <stop
         offset="1"
         style="stop-color:#386EAB"
         id="stop3155-6-5" />
    </linearGradient>
    <linearGradient
       id="id9-9-0"
       gradientUnits="userSpaceOnUse"
       x1="77.762001"
       y1="75.677498"
       x2="229.189"
       y2="264.96301">
      <stop
         offset="0"
         style="stop-color:#58A6D8"
         id="stop3151-8-3" />
      <stop
         id="stop4258-1-9"
         style="stop-color:#548bbb;stop-opacity:1;"
         offset="0.470588" />
      <stop
         offset="0.941176"
         style="stop-color:#50719E"
         id="stop3153-82-1" />
      <stop
         offset="1"
         style="stop-color:#386EAB"
         id="stop3155-6-8" />
    </linearGradient>
    <linearGradient
       id="id9-9-2-9"
       gradientUnits="userSpaceOnUse"
       x1="77.762001"
       y1="75.677498"
       x2="229.189"
       y2="264.96301">
      <stop
         offset="0"
         style="stop-color:#58A6D8"
         id="stop3151-8-5-5" />
      <stop
         id="stop4258-1-86-3"
         style="stop-color:#548bbb;stop-opacity:1;"
         offset="0.470588" />
      <stop
         offset="0.941176"
         style="stop-color:#50719E"
         id="stop3153-82-2-2" />
      <stop
         offset="1"
         style="stop-color:#386EAB"
         id="stop3155-6-6-5" />
    </linearGradient>
    <linearGradient
       id="linearGradient5771"
       gradientUnits="userSpaceOnUse"
       x1="77.762001"
       y1="75.677498"
       x2="229.189"
       y2="264.96301">
      <stop
         offset="0"
         style="stop-color:#58A6D8"
         id="stop5773" />
      <stop
         id="stop5775"
         style="stop-color:#548bbb;stop-opacity:1;"
         offset="0.470588" />
      <stop
         offset="0.941176"
         style="stop-color:#50719E"
         id="stop5777" />
      <stop
         offset="1"
         style="stop-color:#386EAB"
         id="stop5779" />
    </linearGradient>
    <linearGradient
       y2="8.0000248"
       x2="14"
       y1="8.0000248"
       x1="0.96875"
       spreadMethod="reflect"
       gradientTransform="matrix(19.320805,0,0,13.301596,-1987.3155,-7655.4946)"
       gradientUnits="userSpaceOnUse"
       id="linearGradient4228"
       xlink:href="#id9-9-9-6"
       inkscape:collect="always" />
    <linearGradient
       id="id9-9-9-6"
       gradientUnits="userSpaceOnUse"
       x1="77.762001"
       y1="75.677498"
       x2="229.189"
       y2="264.96301">
      <stop
         offset="0"
         style="stop-color:#68c4ff;stop-opacity:1;"
         id="stop3151-8-7-7" />
      <stop
         id="stop4258-1-6-7"
         style="stop-color:#548bbb;stop-opacity:1;"
         offset="0.470588" />
      <stop
         offset="0.941176"
         style="stop-color:#50719E"
         id="stop3153-82-29-2" />
      <stop
         offset="1"
         style="stop-color:#386EAB"
         id="stop3155-6-5-2" />
    </linearGradient>
  </defs>
  <sodipodi:namedview
     id="base"
     pagecolor="#ffffff"
     bordercolor="#666666"
     borderopacity="1.0"
     inkscape:pageopacity="0.0"
     inkscape:pageshadow="2"
     inkscape:zoom="2.1568464"
     inkscape:cx="38.140332"
     inkscape:cy="107.30477"
     inkscape:document-units="px"
     inkscape:current-layer="layer1"
     showgrid="false"
     inkscape:window-width="1918"
     inkscape:window-height="1007"
     inkscape:window-x="0"
     inkscape:window-y="25"
     inkscape:window-maximized="1" />
  <metadata
     id="metadata5126">
    <rdf:RDF>
      <cc:Work
         rdf:about="">
        <dc:format>image/svg+xml</dc:format>
        <dc:type
           rdf:resource="http://purl.org/dc/dcmitype/StillImage" />
        <dc:title />
      </cc:Work>
    </rdf:RDF>
  </metadata>
  <g
     inkscape:label="Capa 1"
     inkscape:groupmode="layer"
     id="layer1"
     transform="translate(0,-796.36218)">
    <path
       style="fill:#55ddff;fill-opacity:1;stroke:#000000;stroke-width:2;stroke-miterlimit:4;stroke-opacity:1"
       d="m 179.85443,861.17526 c 8.24554,1.21688 11.69161,1.02159 19.09543,0 1.35957,-0.34204 2.53056,0.54857 2.53056,1.22999 l 0,6.8172 c 0,0.6814 -1.12863,1.23 -2.53056,1.23 -6.56105,-1.2091 -12.33225,-1.0814 -19.09543,0 -1.38434,0.2214 -2.53055,-0.5486 -2.53055,-1.23 l 0,-6.8172 c 0,-0.68142 1.12863,-1.22999 2.53055,-1.22999 z"
       id="rect4899"
       inkscape:connector-curvature="0"
       sodipodi:nodetypes="ccssccssc" />
    <path
       style="font-size:medium;font-style:normal;font-variant:normal;font-weight:normal;font-stretch:normal;text-indent:0;text-align:start;text-decoration:none;line-height:normal;letter-spacing:normal;word-spacing:normal;text-transform:none;direction:ltr;block-progression:tb;writing-mode:lr-tb;text-anchor:start;color:#000000;fill:#50dafd;fill-opacity:1;stroke:#000000;stroke-width:5.93710947;stroke-linecap:round;stroke-linejoin:round;stroke-miterlimit:4;stroke-opacity:1;stroke-dasharray:none;marker:none;visibility:visible;display:inline;overflow:visible;enable-background:accumulate;font-family:Bitstream Vera Sans;-inkscape-font-specification:Bitstream Vera Sans"
       id="path41043-9"
       d="m 33.362463,959.49395 c -5.576219,0.7781 -12.423806,-0.2841 -19.210156,-2.4663 -6.7863596,-2.182 -10.9524796,-13.5379 -10.9524796,-16.3496 l 1.86769,-46.4105 -0.37354,-50.03758 C 18.579217,808.02823 177.67936,830.70208 224.11669,833.63867 c 6.95673,0.4357 14.59823,1.00925 20.4108,3.20624 5.81257,2.19736 9.00477,5.60943 9.00477,8.87921 -4.94011,31.91963 -2.09186,63.47283 0,95.44723 0.17174,2.6251 -6.02012,14.723 -11.53951,16.8572 -5.51938,2.1341 -12.95805,4.0718 -18.60986,2.9596 l -45.55744,-8.9649 0,-15.7846 37.2865,0 c -5.6776,-30.8674 -2.75843,-56.069 0,-86.81503 -61.58506,6.71062 -109.45203,3.0273 -173.49181,0 4.023789,28.93833 4.741855,57.87673 0,86.81503 l 45.283754,0 0,15.7846 z"
       inkscape:connector-curvature="0"
       sodipodi:nodetypes="scsccccccssccccccccs" />
    <path
       style="fill:#55ddff;fill-opacity:1;stroke:#000000;stroke-width:2;stroke-miterlimit:4;stroke-opacity:1"
       d="m 152.57753,861.17153 c 6.36514,0.38902 12.73029,0.59754 19.09543,0 1.39579,-0.13103 2.53055,0.54858 2.53055,1.23 l 0,6.81722 c 0,0.6814 -1.12862,1.23 -2.53055,1.23 -8.22493,-1.3185 -11.11164,-0.8565 -19.09543,0 -1.33141,-0.439 -2.53055,-0.5486 -2.53055,-1.23 l 0,-6.81722 c 0,-0.68142 1.13124,-1.31552 2.53055,-1.23 z"
       id="rect4899-2"
       inkscape:connector-curvature="0"
       sodipodi:nodetypes="ssssccsss" />
    <path
       style="fill:#55ddff;fill-opacity:1;stroke:#000000;stroke-width:8;stroke-linecap:round;stroke-linejoin:round;stroke-miterlimit:4;stroke-opacity:1;stroke-dasharray:none"
       sodipodi:nodetypes="cccccc"
       id="rect4897-3"
       d="m 65.295072,1029.3591 c 41.554918,-14.252 73.296048,-24.2146 130.459968,-20.9182 -1.07724,-28.77235 -1.39207,-50.07405 -11.33922,-78.84645 -4.74776,-9.9981 -8.78794,-16.4238 -22.31835,-17.1103 -35.72523,3.4637 -56.19313,-0.8163 -73.058513,1.2801 -24.656177,15.3519 -21.315895,92.16085 -23.743885,115.59485 z"
       inkscape:connector-curvature="0" />
    <path
       style="font-size:medium;font-style:normal;font-variant:normal;font-weight:normal;font-stretch:normal;text-indent:0;text-align:start;text-decoration:none;line-height:normal;letter-spacing:normal;word-spacing:normal;text-transform:none;direction:ltr;block-progression:tb;writing-mode:lr-tb;text-anchor:start;baseline-shift:baseline;color:#000000;fill:#ffffff;fill-opacity:1;stroke:#000000;stroke-width:5.64007998000000033;stroke-miterlimit:4;stroke-opacity:1;stroke-dasharray:none;marker:none;visibility:visible;display:inline;overflow:visible;enable-background:new;font-family:Sans;-inkscape-font-specification:Sans"
       d="m 160.03389,877.28797 c -30.40072,0 -55.30802,25.13175 -55.30802,55.8016 0,30.66969 23.46194,54.04944 53.86267,54.04944 11.584,0 28.26321,-5.48524 37.17848,-11.69917 l 27.14928,27.80836 c 1.88911,1.8665 12.47987,13.0536 15.12242,13.0242 3.25863,-0.9578 5.94785,-3.5324 6.77797,-6.596 0.67602,-2.495 0.11914,-5.3141 -2.36713,-7.8484 l -36.85439,-37.22446 c 6.14192,-8.9861 9.74676,-19.84563 9.74676,-31.51397 0,-30.66985 -24.90741,-55.8016 -55.30804,-55.8016 z m 2.431,20.00983 c 19.54558,0 36.33147,14.26213 39.34474,31.16664 4.33765,24.33435 -10.07113,48.81494 -44.84325,48.03364 -26.19202,-0.58861 -39.62327,-21.40637 -38.27153,-42.28764 1.47429,-22.77451 24.22435,-36.91264 43.77004,-36.91264 z"
       id="path27918"
       inkscape:connector-curvature="0"
       sodipodi:nodetypes="ssscccsccsssssss" />
  </g>
</svg>
