<?xml version="1.0" encoding="UTF-8" standalone="no"?>
<!-- Created with Inkscape (http://www.inkscape.org/) -->

<svg
   xmlns:dc="http://purl.org/dc/elements/1.1/"
   xmlns:cc="http://creativecommons.org/ns#"
   xmlns:rdf="http://www.w3.org/1999/02/22-rdf-syntax-ns#"
   xmlns:svg="http://www.w3.org/2000/svg"
   xmlns="http://www.w3.org/2000/svg"
   xmlns:sodipodi="http://sodipodi.sourceforge.net/DTD/sodipodi-0.dtd"
   xmlns:inkscape="http://www.inkscape.org/namespaces/inkscape"
   width="256"
   height="256"
   id="svg4374"
   version="1.1"
   inkscape:version="0.48.3.1 r9886"
   sodipodi:docname="edit-clear.svg">
  <defs
     id="defs4376" />
  <sodipodi:namedview
     id="base"
     pagecolor="#ffffff"
     bordercolor="#666666"
     borderopacity="1.0"
     inkscape:pageopacity="0.0"
     inkscape:pageshadow="2"
     inkscape:zoom="1.0146274"
     inkscape:cx="183.67617"
     inkscape:cy="33.15822"
     inkscape:document-units="px"
     inkscape:current-layer="layer1"
     showgrid="false"
     inkscape:window-width="1918"
     inkscape:window-height="1007"
     inkscape:window-x="0"
     inkscape:window-y="25"
     inkscape:window-maximized="1" />
  <metadata
     id="metadata4379">
    <rdf:RDF>
      <cc:Work
         rdf:about="">
        <dc:format>image/svg+xml</dc:format>
        <dc:type
           rdf:resource="http://purl.org/dc/dcmitype/StillImage" />
        <dc:title />
      </cc:Work>
    </rdf:RDF>
  </metadata>
  <g
     inkscape:label="Capa 1"
     inkscape:groupmode="layer"
     id="layer1"
     transform="translate(0,-796.36218)">
    <path
       style="color:#000000;fill:#51d9fb;fill-opacity:1;fill-rule:nonzero;stroke:#000000;stroke-width:9.90902615;stroke-linecap:round;stroke-linejoin:round;stroke-miterlimit:4;stroke-opacity:1;stroke-dasharray:none;marker:none;visibility:visible;display:inline;overflow:visible;enable-background:accumulate"
       d="M 96.11016,821.15554 C 71.190526,866.80916 40.352986,891.0284 2.734515,925.34921 c 29.493991,39.50875 55.723043,67.28735 93.375645,104.19369 50.49864,-8.8642 91.95467,-7.0316 140.61284,0 8.25331,-0.3838 15.01325,-8.5399 15.01325,-17.3656 -10.77022,-60.72753 -12.64979,-141.08976 0,-173.65615 0.67591,-9.19175 -5.3786,-17.36561 -15.70112,-17.36561 -47.7941,7.53486 -91.78632,7.10376 -139.92497,0 z"
       id="path3773"
       inkscape:connector-curvature="0"
       sodipodi:nodetypes="cccccccc" />
    <path
       style="color:#000000;fill:#ffffff;fill-opacity:1;fill-rule:nonzero;stroke:#000000;stroke-width:6;stroke-linecap:round;stroke-linejoin:round;stroke-miterlimit:4;stroke-opacity:1;stroke-dasharray:none;marker:none;visibility:visible;display:inline;overflow:visible;enable-background:accumulate"
       d="m 161.44941,912.75582 c 17.98101,-14.86556 31.39368,-36.87961 45.82462,-53.12512 6.41065,-0.0864 16.64604,12.01456 20.85821,11.0486 -23.6548,24.20865 -34.63119,33.70068 -50.30268,55.21259 2.04732,9.5924 36.69115,36.54802 49.56074,55.68607 2.64152,3.92812 -10.08486,14.25905 -12.3485,16.29777 -29.80816,-28.49255 -37.55068,-41.58785 -51.12842,-51.99859 -9.29212,11.03032 -27.38838,33.37407 -44.21659,55.12416 -3.57171,4.6163 -14.86908,-10.55961 -23.308124,-17.49315 17.751224,-20.92296 30.858084,-34.20366 49.175914,-55.6451 -8.00544,-9.3916 -29.65533,-34.16825 -45.43206,-54.82067 -3.508088,-4.59224 9.4304,-7.09342 16.38638,-13.37171 21.25234,25.58956 30.92902,41.90848 44.93051,53.08515 z"
       id="path27041"
       inkscape:connector-curvature="0"
       sodipodi:nodetypes="ccccsccsccscc" />
  </g>
</svg>
