<?xml version="1.0" encoding="UTF-8" standalone="no"?>
<!-- Created with Inkscape (http://www.inkscape.org/) -->

<svg
   xmlns:dc="http://purl.org/dc/elements/1.1/"
   xmlns:cc="http://creativecommons.org/ns#"
   xmlns:rdf="http://www.w3.org/1999/02/22-rdf-syntax-ns#"
   xmlns:svg="http://www.w3.org/2000/svg"
   xmlns="http://www.w3.org/2000/svg"
   xmlns:sodipodi="http://sodipodi.sourceforge.net/DTD/sodipodi-0.dtd"
   xmlns:inkscape="http://www.inkscape.org/namespaces/inkscape"
   version="1.1"
   width="48"
   height="48"
   id="svg1307"
   inkscape:version="0.48.3.1 r9886"
   sodipodi:docname="gtk-preferences.svg">
  <sodipodi:namedview
     pagecolor="#ffffff"
     bordercolor="#666666"
     borderopacity="1"
     objecttolerance="10"
     gridtolerance="10"
     guidetolerance="10"
     inkscape:pageopacity="0"
     inkscape:pageshadow="2"
     inkscape:window-width="1918"
     inkscape:window-height="1007"
     id="namedview8"
     showgrid="false"
     inkscape:zoom="7.1698361"
     inkscape:cx="16.511166"
     inkscape:cy="13.716968"
     inkscape:window-x="0"
     inkscape:window-y="25"
     inkscape:window-maximized="1"
     inkscape:current-layer="svg1307" />
  <defs
     id="defs1309" />
  <metadata
     id="metadata1312">
    <rdf:RDF>
      <cc:Work
         rdf:about="">
        <dc:format>image/svg+xml</dc:format>
        <dc:type
           rdf:resource="http://purl.org/dc/dcmitype/StillImage" />
        <dc:title />
      </cc:Work>
    </rdf:RDF>
  </metadata>
  <rect
     style="fill:none;stroke:none;stroke-width:1.5;stroke-miterlimit:4;stroke-dasharray:none"
     id="rect1315"
     y="-3.6610169"
     x="-3.6610169"
     height="55.728817"
     width="55.728817" />
  <path
     style="fill:#51dafd;fill-opacity:1;fill-rule:evenodd;stroke:#000000;stroke-width:1.5;stroke-linecap:round;stroke-linejoin:round;stroke-miterlimit:4;stroke-opacity:1;stroke-dasharray:none"
     d="M 5.808528,0.9830511 C 3.1410792,0.73134185 0.81344086,3.1346034 0.9830511,5.808528 c 0.7981224,12.582491 1.0540012,24.948084 0,36.789726 -0.23754004,2.668748 2.1517407,4.998032 4.8254769,4.825477 12.263242,-0.791433 24.526484,-0.694977 36.789726,0 2.675007,0.151597 5.00439,-2.152158 4.825477,-4.825477 -0.738363,-11.032636 -0.345982,-23.949847 0,-36.789726 0.07217,-2.6783263 -2.149682,-4.96245519 -4.825477,-4.8254769 -12.017171,0.6151784 -24.045447,1.2025921 -36.789726,0 z"
     id="path3788"
     inkscape:connector-curvature="0"
     sodipodi:nodetypes="sssssssss" />
  <path
     style="fill:#ffffff;fill-opacity:1;fill-rule:evenodd;stroke:#000000;stroke-width:1.5;stroke-linecap:round;stroke-linejoin:round;stroke-miterlimit:4;stroke-opacity:1;stroke-dasharray:none"
     d="m 32.366792,6.4978818 c 1.129237,-0.6778186 2.379036,-1.1547028 4.607786,0 l 0,3.8095872 -4.607786,0 c -0.205404,-0.9617565 -0.509705,-1.7751666 0,-3.8095872 z"
     id="path3786"
     inkscape:connector-curvature="0"
     sodipodi:nodetypes="ccccc" />
  <path
     style="fill:#ffffff;fill-opacity:1;fill-rule:evenodd;stroke:#000000;stroke-width:1.5;stroke-linecap:round;stroke-linejoin:round;stroke-miterlimit:4;stroke-opacity:1;stroke-dasharray:none"
     d="m 11.571677,6.0182065 4.468313,0.697366 c -0.613236,5.6443105 -0.865265,10.9274125 0,15.0932215 l -4.607786,0 c 0.46574,-4.332463 0.405677,-10.360208 0.139473,-15.7905875 z"
     id="path3784"
     inkscape:connector-curvature="0"
     sodipodi:nodetypes="ccccc" />
  <path
     style="fill:#ffffff;fill-opacity:1;fill-rule:evenodd;stroke:#000000;stroke-width:1.5;stroke-linecap:round;stroke-linejoin:round;stroke-miterlimit:4;stroke-opacity:1;stroke-dasharray:none"
     d="m 28.774896,12.593221 c 4.327677,0 9.364507,-0.41842 12.592136,-0.41842 1.896119,0 2.573648,1.932788 2.573648,3.828908 l 0,4.789195 c 0,1.896119 -1.528058,3.637928 -3.410487,3.410487 -4.082867,-0.493305 -8.043351,-0.619459 -11.755297,0 -1.870256,0.312113 -3.598147,-0.817614 -3.549961,-2.713121 l 0.139473,-5.486561 c 0.04819,-1.895508 1.514368,-3.410488 3.410488,-3.410488 z"
     id="path3782"
     inkscape:connector-curvature="0"
     sodipodi:nodetypes="sssssssss" />
  <path
     style="fill:#ffffff;fill-opacity:1;fill-rule:evenodd;stroke:#000000;stroke-width:1.5;stroke-linecap:round;stroke-linejoin:round;stroke-miterlimit:4;stroke-opacity:1;stroke-dasharray:none"
     d="m 7.8765895,24.203391 11.7552975,0 c 1.896119,0 3.258628,1.520459 3.410487,3.410488 l 0.41842,5.207615 c 0.151859,1.890028 -1.097807,3.633885 -2.992068,3.54996 L 7.8765895,35.813561 C 5.9823288,35.729636 4.4661021,34.299193 4.4661021,32.403074 l 0,-4.789195 c 0,-1.89612 1.5143685,-3.410488 3.4104874,-3.410488 z"
     id="path3780"
     inkscape:connector-curvature="0"
     sodipodi:nodetypes="sssssssss" />
  <path
     style="fill:#ffffff;fill-opacity:1;fill-rule:evenodd;stroke:#000000;stroke-width:1.5;stroke-linecap:round;stroke-linejoin:round;stroke-miterlimit:4;stroke-opacity:1;stroke-dasharray:none"
     d="m 32.366792,26.525425 4.607786,0 c -0.274633,5.590021 -0.536695,11.163282 0.278946,15.299604 -1.628911,0.725563 -3.257821,0.479897 -4.886732,-0.278946 0.423407,-5.112738 1.010895,-10.266496 0,-15.020658 z"
     id="path3778"
     inkscape:connector-curvature="0"
     sodipodi:nodetypes="ccccc" />
  <path
     style="fill:#ffffff;fill-opacity:1;fill-rule:evenodd;stroke:#000000;stroke-width:1.5;stroke-linecap:round;stroke-linejoin:round;stroke-miterlimit:4;stroke-opacity:1;stroke-dasharray:none"
     d="m 11.432204,38.171877 4.607786,0 0,3.555614 c -1.806455,0.541053 -3.149952,0.156189 -4.607786,0 z"
     id="rect3938"
     inkscape:connector-curvature="0"
     sodipodi:nodetypes="ccccc" />
</svg>
