<?xml version="1.0" encoding="UTF-8" standalone="no"?>
<!-- Created with Inkscape (http://www.inkscape.org/) -->

<svg
   xmlns:dc="http://purl.org/dc/elements/1.1/"
   xmlns:cc="http://creativecommons.org/ns#"
   xmlns:rdf="http://www.w3.org/1999/02/22-rdf-syntax-ns#"
   xmlns:svg="http://www.w3.org/2000/svg"
   xmlns="http://www.w3.org/2000/svg"
   xmlns:xlink="http://www.w3.org/1999/xlink"
   xmlns:sodipodi="http://sodipodi.sourceforge.net/DTD/sodipodi-0.dtd"
   xmlns:inkscape="http://www.inkscape.org/namespaces/inkscape"
   width="256"
   height="256"
   id="svg2"
   version="1.1"
   inkscape:version="0.48.3.1 r9886"
   sodipodi:docname="gtk-execute.svg">
  <defs
     id="defs4">
    <linearGradient
       spreadMethod="reflect"
       gradientUnits="userSpaceOnUse"
       y2="8"
       x2="13.9998"
       y1="8"
       x1="1.9996768"
       id="linearGradient5931"
       xlink:href="#id9"
       inkscape:collect="always" />
    <linearGradient
       spreadMethod="reflect"
       gradientUnits="userSpaceOnUse"
       y2="7.4181089"
       x2="15.020449"
       y1="7.4181089"
       x1="0.94721806"
       id="linearGradient5895"
       xlink:href="#id9"
       inkscape:collect="always" />
    <linearGradient
       spreadMethod="reflect"
       gradientUnits="userSpaceOnUse"
       y2="8.4996252"
       x2="16"
       y1="8.4996252"
       x1="0"
       id="linearGradient5815"
       xlink:href="#id9"
       inkscape:collect="always" />
    <linearGradient
       spreadMethod="reflect"
       gradientUnits="userSpaceOnUse"
       y2="8.0110502"
       x2="13.99985"
       y1="8.0110502"
       x1="1.5936"
       id="linearGradient5693"
       xlink:href="#id9"
       inkscape:collect="always" />
    <linearGradient
       spreadMethod="reflect"
       gradientUnits="userSpaceOnUse"
       y2="8.0000248"
       x2="14"
       y1="8.0000248"
       x1="0.96875"
       id="linearGradient5604"
       xlink:href="#id9"
       inkscape:collect="always" />
    <linearGradient
       spreadMethod="reflect"
       gradientUnits="userSpaceOnUse"
       y2="8.0318594"
       x2="15.021109"
       y1="8.0318594"
       x1="0.99668002"
       id="linearGradient5520"
       xlink:href="#id9"
       inkscape:collect="always" />
    <linearGradient
       spreadMethod="reflect"
       gradientUnits="userSpaceOnUse"
       y2="8.0065804"
       x2="15.992268"
       y1="8.0065804"
       x1="0.0077320002"
       id="linearGradient5464"
       xlink:href="#id9"
       inkscape:collect="always" />
    <linearGradient
       spreadMethod="reflect"
       gradientUnits="userSpaceOnUse"
       y2="546"
       x2="136"
       y1="546"
       x1="120"
       id="linearGradient5408"
       xlink:href="#id9"
       inkscape:collect="always" />
    <linearGradient
       inkscape:collect="always"
       xlink:href="#id9"
       id="linearGradient5253"
       gradientUnits="userSpaceOnUse"
       x1="0"
       y1="8"
       x2="16"
       y2="8" />
    <linearGradient
       id="linearGradient5233"
       gradientUnits="userSpaceOnUse"
       x1="77.762001"
       y1="75.677498"
       x2="229.189"
       y2="264.96301">
      <stop
         offset="0"
         style="stop-color:#58A6D8"
         id="stop5235" />
      <stop
         id="stop5237"
         style="stop-color:#548bbb;stop-opacity:1;"
         offset="0.470588" />
      <stop
         offset="0.941176"
         style="stop-color:#50719E"
         id="stop5239" />
      <stop
         offset="1"
         style="stop-color:#386EAB"
         id="stop5241" />
    </linearGradient>
    <linearGradient
       y2="8"
       x2="16"
       y1="8"
       x1="0"
       gradientUnits="userSpaceOnUse"
       id="linearGradient4254"
       xlink:href="#id9"
       inkscape:collect="always" />
    <linearGradient
       id="linearGradient5222"
       gradientUnits="userSpaceOnUse"
       x1="77.762001"
       y1="75.677498"
       x2="229.189"
       y2="264.96301">
      <stop
         offset="0"
         style="stop-color:#58A6D8"
         id="stop5224" />
      <stop
         id="stop5226"
         style="stop-color:#548bbb;stop-opacity:1;"
         offset="0.470588" />
      <stop
         offset="0.941176"
         style="stop-color:#50719E"
         id="stop5228" />
      <stop
         offset="1"
         style="stop-color:#386EAB"
         id="stop5230" />
    </linearGradient>
    <linearGradient
       y2="8"
       x2="16"
       y1="8"
       x1="0"
       gradientUnits="userSpaceOnUse"
       id="linearGradient4252"
       xlink:href="#id9"
       inkscape:collect="always" />
    <linearGradient
       id="linearGradient5211"
       gradientUnits="userSpaceOnUse"
       x1="77.762001"
       y1="75.677498"
       x2="229.189"
       y2="264.96301">
      <stop
         offset="0"
         style="stop-color:#58A6D8"
         id="stop5213" />
      <stop
         id="stop5215"
         style="stop-color:#548bbb;stop-opacity:1;"
         offset="0.470588" />
      <stop
         offset="0.941176"
         style="stop-color:#50719E"
         id="stop5217" />
      <stop
         offset="1"
         style="stop-color:#386EAB"
         id="stop5219" />
    </linearGradient>
    <linearGradient
       y2="8"
       x2="16"
       y1="8"
       x1="0"
       gradientUnits="userSpaceOnUse"
       id="linearGradient4250"
       xlink:href="#id9"
       inkscape:collect="always" />
    <linearGradient
       id="linearGradient5200"
       gradientUnits="userSpaceOnUse"
       x1="77.762001"
       y1="75.677498"
       x2="229.189"
       y2="264.96301">
      <stop
         offset="0"
         style="stop-color:#58A6D8"
         id="stop5202" />
      <stop
         id="stop5204"
         style="stop-color:#548bbb;stop-opacity:1;"
         offset="0.470588" />
      <stop
         offset="0.941176"
         style="stop-color:#50719E"
         id="stop5206" />
      <stop
         offset="1"
         style="stop-color:#386EAB"
         id="stop5208" />
    </linearGradient>
    <linearGradient
       id="linearGradient5189"
       gradientUnits="userSpaceOnUse"
       x1="77.762001"
       y1="75.677498"
       x2="229.189"
       y2="264.96301">
      <stop
         offset="0"
         style="stop-color:#58A6D8"
         id="stop5191" />
      <stop
         id="stop5193"
         style="stop-color:#548bbb;stop-opacity:1;"
         offset="0.470588" />
      <stop
         offset="0.941176"
         style="stop-color:#50719E"
         id="stop5195" />
      <stop
         offset="1"
         style="stop-color:#386EAB"
         id="stop5197" />
    </linearGradient>
    <linearGradient
       y2="546"
       x2="136"
       y1="546"
       x1="120"
       gradientUnits="userSpaceOnUse"
       id="linearGradient4268"
       xlink:href="#id9"
       inkscape:collect="always" />
    <linearGradient
       id="linearGradient5178"
       gradientUnits="userSpaceOnUse"
       x1="77.762001"
       y1="75.677498"
       x2="229.189"
       y2="264.96301">
      <stop
         offset="0"
         style="stop-color:#58A6D8"
         id="stop5180" />
      <stop
         id="stop5182"
         style="stop-color:#548bbb;stop-opacity:1;"
         offset="0.470588" />
      <stop
         offset="0.941176"
         style="stop-color:#50719E"
         id="stop5184" />
      <stop
         offset="1"
         style="stop-color:#386EAB"
         id="stop5186" />
    </linearGradient>
    <linearGradient
       gradientUnits="userSpaceOnUse"
       y2="546"
       x2="136"
       y1="546"
       x1="120"
       id="linearGradient4264"
       xlink:href="#id9"
       inkscape:collect="always" />
    <linearGradient
       id="linearGradient5167"
       gradientUnits="userSpaceOnUse"
       x1="77.762001"
       y1="75.677498"
       x2="229.189"
       y2="264.96301">
      <stop
         offset="0"
         style="stop-color:#58A6D8"
         id="stop5169" />
      <stop
         id="stop5171"
         style="stop-color:#548bbb;stop-opacity:1;"
         offset="0.470588" />
      <stop
         offset="0.941176"
         style="stop-color:#50719E"
         id="stop5173" />
      <stop
         offset="1"
         style="stop-color:#386EAB"
         id="stop5175" />
    </linearGradient>
    <linearGradient
       y2="8"
       x2="16"
       y1="8"
       x1="0"
       gradientUnits="userSpaceOnUse"
       id="linearGradient4242"
       xlink:href="#id9"
       inkscape:collect="always" />
    <linearGradient
       id="linearGradient5156"
       gradientUnits="userSpaceOnUse"
       x1="77.762001"
       y1="75.677498"
       x2="229.189"
       y2="264.96301">
      <stop
         offset="0"
         style="stop-color:#58A6D8"
         id="stop5158" />
      <stop
         id="stop5160"
         style="stop-color:#548bbb;stop-opacity:1;"
         offset="0.470588" />
      <stop
         offset="0.941176"
         style="stop-color:#50719E"
         id="stop5162" />
      <stop
         offset="1"
         style="stop-color:#386EAB"
         id="stop5164" />
    </linearGradient>
    <linearGradient
       y2="8"
       x2="16"
       y1="8"
       x1="0"
       gradientUnits="userSpaceOnUse"
       id="linearGradient4240"
       xlink:href="#id9"
       inkscape:collect="always" />
    <linearGradient
       id="linearGradient5145"
       gradientUnits="userSpaceOnUse"
       x1="77.762001"
       y1="75.677498"
       x2="229.189"
       y2="264.96301">
      <stop
         offset="0"
         style="stop-color:#58A6D8"
         id="stop5147" />
      <stop
         id="stop5149"
         style="stop-color:#548bbb;stop-opacity:1;"
         offset="0.470588" />
      <stop
         offset="0.941176"
         style="stop-color:#50719E"
         id="stop5151" />
      <stop
         offset="1"
         style="stop-color:#386EAB"
         id="stop5153" />
    </linearGradient>
    <linearGradient
       y2="8"
       x2="16"
       y1="8"
       x1="0"
       gradientUnits="userSpaceOnUse"
       id="linearGradient4238"
       xlink:href="#id9"
       inkscape:collect="always" />
    <linearGradient
       id="id9"
       gradientUnits="userSpaceOnUse"
       x1="77.762001"
       y1="75.677498"
       x2="229.189"
       y2="264.96301">
      <stop
         offset="0"
         style="stop-color:#58A6D8"
         id="stop3151" />
      <stop
         id="stop4258"
         style="stop-color:#548bbb;stop-opacity:1;"
         offset="0.470588" />
      <stop
         offset="0.941176"
         style="stop-color:#50719E"
         id="stop3153" />
      <stop
         offset="1"
         style="stop-color:#386EAB"
         id="stop3155" />
    </linearGradient>
    <linearGradient
       gradientUnits="userSpaceOnUse"
       y2="8"
       x2="16"
       y1="8"
       x1="0"
       id="linearGradient4236"
       xlink:href="#id9"
       inkscape:collect="always" />
    <linearGradient
       inkscape:collect="always"
       xlink:href="#id9"
       id="linearGradient3969"
       x1="-0.00024558508"
       y1="8.0148773"
       x2="16.053543"
       y2="8.0148773"
       gradientUnits="userSpaceOnUse"
       spreadMethod="reflect" />
    <linearGradient
       inkscape:collect="always"
       xlink:href="#id9"
       id="linearGradient4005"
       x1="5.0281043"
       y1="7.4998832"
       x2="12.0313"
       y2="7.4998832"
       gradientUnits="userSpaceOnUse"
       spreadMethod="reflect" />
    <linearGradient
       inkscape:collect="always"
       xlink:href="#id9"
       id="linearGradient4041"
       x1="1.9997662"
       y1="7.9983716"
       x2="13"
       y2="7.9983716"
       gradientUnits="userSpaceOnUse"
       spreadMethod="reflect" />
    <linearGradient
       inkscape:collect="always"
       xlink:href="#id9"
       id="linearGradient4201"
       x1="1.9997662"
       y1="7.4983978"
       x2="13"
       y2="7.4983978"
       gradientUnits="userSpaceOnUse"
       spreadMethod="reflect" />
    <linearGradient
       inkscape:collect="always"
       xlink:href="#id9"
       id="linearGradient4241"
       x1="1.9998"
       y1="7.9998932"
       x2="13.999798"
       y2="7.9998932"
       gradientUnits="userSpaceOnUse"
       spreadMethod="reflect" />
  </defs>
  <sodipodi:namedview
     id="base"
     pagecolor="#ffffff"
     bordercolor="#666666"
     borderopacity="1.0"
     inkscape:pageopacity="0.0"
     inkscape:pageshadow="2"
     inkscape:zoom="1.2443877"
     inkscape:cx="212.81432"
     inkscape:cy="42.327638"
     inkscape:document-units="px"
     inkscape:current-layer="layer1"
     showgrid="false"
     inkscape:window-width="1918"
     inkscape:window-height="1007"
     inkscape:window-x="0"
     inkscape:window-y="25"
     inkscape:window-maximized="1" />
  <metadata
     id="metadata7">
    <rdf:RDF>
      <cc:Work
         rdf:about="">
        <dc:format>image/svg+xml</dc:format>
        <dc:type
           rdf:resource="http://purl.org/dc/dcmitype/StillImage" />
        <dc:title />
      </cc:Work>
    </rdf:RDF>
  </metadata>
  <g
     inkscape:label="Capa 1"
     inkscape:groupmode="layer"
     id="layer1"
     transform="translate(0,-796.36218)">
    <g
       transform="matrix(16.81246,0,0,16.81246,-1039.7937,-10754.09)"
       id="layer9"
       inkscape:label="status"
       style="fill:#694f69;fill-opacity:1;display:inline" />
    <g
       style="fill:#694f69;fill-opacity:1"
       transform="matrix(16.81246,0,0,16.81246,-1039.7937,-10754.09)"
       id="layer10"
       inkscape:label="devices" />
    <g
       style="fill:#694f69;fill-opacity:1"
       transform="matrix(16.81246,0,0,16.81246,-1039.7937,-10754.09)"
       id="layer11"
       inkscape:label="apps" />
    <path
       style="color:#000000;fill:#51dafd;fill-opacity:1;fill-rule:nonzero;stroke:#000000;stroke-width:6;stroke-linecap:round;stroke-linejoin:round;stroke-miterlimit:4;stroke-opacity:1;stroke-dasharray:none;marker:none;visibility:visible;display:inline;overflow:visible;enable-background:accumulate"
       id="path42961"
       d="m 168.5702,800.27314 c -4.03401,7.31762 0.57598,16.90946 -3.64606,24.16791 -1.57819,-0.11769 -3.12223,-0.52623 -4.72851,-0.52623 -5.58602,0 -11.0977,0.81876 -16.28707,2.10155 -5.12822,-6.43581 -4.16874,-17.9124 -9.33282,-24.35359 -4.78476,1.76598 -22.1427,8.62934 -26.51784,11.12632 1.61282,8.11403 11.08416,15.99797 12.73353,24.26045 -5.76674,4.18328 -10.52769,8.94423 -14.7109,14.7109 -8.262537,-1.6493 -18.155476,-9.9153 -26.269472,-11.52812 -2.497003,4.37511 -7.753174,20.52761 -9.519104,25.31243 6.441156,5.16412 18.319519,4.20469 24.755396,9.33283 -1.283631,5.18933 -1.297949,7.08489 -1.297949,12.67083 0,1.60559 -0.389013,6.76656 -0.278219,8.34474 -7.258528,4.22211 -18.457504,0.8175 -25.775127,4.85149 0.86147,4.61939 5.773325,18.95302 7.293961,23.30341 8.261626,-0.16812 16.476162,-4.00128 24.785838,-3.98615 3.146036,6.58645 7.070176,12.6734 12.083956,17.86324 -2.89245,7.86537 -7.53405,16.95705 -10.50779,24.6933 3.57934,2.95395 18.40586,7.49375 22.40728,9.88986 4.19824,-6.18544 6.20608,-12.56851 8.5907,-20.39765 6.35586,2.90116 13.25865,4.46018 20.49018,5.2539 2.76636,8.01551 -0.9113,19.49871 1.85378,27.47488 5.06963,-0.0336 24.33052,0.96835 29.17585,0.15463 1.35425,-8.28703 -2.96609,-20.01099 -5.28555,-29.73107 6.89457,-1.96437 13.64066,-4.48859 19.43941,-8.40623 7.13405,4.44622 12.29955,20.21649 19.25372,24.3542 3.76157,-3.20563 16.54365,-12.77322 19.74928,-16.53484 -4.13768,-6.95414 -16.69356,-18.54857 -21.13976,-25.6826 3.91757,-5.79878 6.44189,-12.54478 8.40623,-19.4394 8.51465,-1.29625 19.43493,2.62174 27.72204,1.2675 0.81289,-4.84535 1.02237,-20.08817 1.05078,-25.1578 -7.97622,-2.76515 -18.65572,0.91254 -26.67127,-1.85378 -0.79368,-7.23155 -2.35282,-14.13424 -5.25389,-20.49019 5.41832,-6.40269 18.63203,-8.41043 24.01389,-14.61776 -2.39613,-4.00136 -13.7666,-16.01527 -16.72053,-19.59464 -7.73624,2.97378 -13.61357,10.8298 -21.47887,13.72221 -5.18982,-5.01381 -11.27673,-8.93784 -17.86324,-12.08395 -0.0149,-8.30973 8.64404,-16.5242 8.80864,-24.78584 -4.35043,-1.51985 -24.71105,-4.82527 -29.33049,-5.68674 z m -10.78539,47.22234 c 23.32534,0.95121 50.46326,15.45861 50.09888,42.86641 -0.4018,30.22286 -27.12755,38.0079 -45.67904,38.84837 -26.6066,1.20541 -42.50333,-23.4383 -44.47363,-39.25017 -3.35277,-26.90642 17.22067,-43.39574 40.05379,-42.46461 z"
       inkscape:connector-curvature="0"
       sodipodi:nodetypes="ccsccccccccscccccccccccccccccccccccccccsssss" />
    <path
       style="color:#000000;fill:#51dafd;fill-opacity:1;fill-rule:nonzero;stroke:#000000;stroke-width:6;stroke-linecap:round;stroke-linejoin:round;stroke-miterlimit:4;stroke-opacity:1;stroke-dasharray:none;marker:none;visibility:visible;display:inline;overflow:visible;enable-background:accumulate"
       id="path42972"
       d="m 47.762306,926.36659 c -3.869202,0.79186 -14.695658,5.01438 -18.26565,6.49035 -0.280936,10.49652 9.095785,23.03429 5.007331,26.64023 -4.01759,3.54356 -15.448333,0.57665 -25.8366171,-3.74067 -2.2089555,3.97598 -5.9643028,14.98858 -7.262914,19.44001 10.8505481,3.84275 18.7729411,8.88237 19.0376031,14.21596 0.26799,5.39999 -9.326216,15.54123 -17.863239,21.01553 1.7381898,4.3348 7.0181644,13.5212 9.64269,17.3075 10.227406,-2.1253 20.159783,-11.5036 24.507619,-8.3758 4.426856,3.1846 2.851651,15.2952 4.172068,25.713 4.195515,1.2609 17.054422,3.3641 21.572619,3.7088 1.515787,-10.53 3.914351,-24.1981 9.085645,-25.6516 5.308568,-1.4912 17.806778,11.3185 25.21869,19.5636 3.677059,-2.5488 13.773059,-12.8992 16.813069,-16.164 -10.2947,-7.2113 -19.757474,-16.0952 -17.616677,-21.1697 2.142799,-5.0792 13.586317,-3.4758 23.858647,-3.5225 0.074,-1.2357 2.53441,-13.27201 2.53441,-14.52639 0,-3.2174 -0.17655,-3.96093 -0.64898,-7.04619 -10.18998,-1.00931 -25.06916,-6.24068 -27.722049,-11.34244 -2.543295,-4.891 4.065018,-17.84474 7.355449,-27.84563 -3.382009,-3.00237 -12.274748,-8.88292 -16.256627,-11.09527 -8.421244,6.30685 -15.819413,19.12845 -21.231697,18.1725 -5.32765,-0.9415 -8.733954,-13.37684 -14.401636,-22.18994 -0.675693,0.11769 -1.031795,0.2673 -1.699754,0.4018 z m 10.909592,33.93418 c 15.668893,0 28.77283,13.90757 28.77283,29.57644 0,15.66889 -13.103937,22.74579 -28.77283,22.74579 -15.668894,0 -25.558398,-9.8895 -25.558398,-25.55842 0,-15.66887 9.889504,-26.76381 25.558398,-26.76381 z"
       inkscape:connector-curvature="0"
       sodipodi:nodetypes="cccccsccscccccscscsccccccsssss" />
    <g
       style="fill:#694f69;fill-opacity:1"
       transform="matrix(16.81246,0,0,16.81246,-1039.7937,-10754.09)"
       id="layer13"
       inkscape:label="places" />
    <g
       style="fill:#694f69;fill-opacity:1"
       transform="matrix(16.81246,0,0,16.81246,-1039.7937,-10754.09)"
       id="layer14"
       inkscape:label="mimetypes" />
    <g
       transform="matrix(16.81246,0,0,16.81246,-1039.7937,-10754.09)"
       id="layer15"
       inkscape:label="emblems"
       style="fill:#694f69;fill-opacity:1;display:inline" />
    <g
       transform="matrix(16.81246,0,0,16.81246,-1039.7937,-10754.09)"
       id="g4953"
       inkscape:label="categories"
       style="fill:#694f69;fill-opacity:1;display:inline" />
  </g>
</svg>
