<?xml version="1.0" encoding="UTF-8" standalone="no"?>
<!-- Created with Inkscape (http://www.inkscape.org/) -->

<svg
   xmlns:dc="http://purl.org/dc/elements/1.1/"
   xmlns:cc="http://creativecommons.org/ns#"
   xmlns:rdf="http://www.w3.org/1999/02/22-rdf-syntax-ns#"
   xmlns:svg="http://www.w3.org/2000/svg"
   xmlns="http://www.w3.org/2000/svg"
   xmlns:xlink="http://www.w3.org/1999/xlink"
   xmlns:sodipodi="http://sodipodi.sourceforge.net/DTD/sodipodi-0.dtd"
   xmlns:inkscape="http://www.inkscape.org/namespaces/inkscape"
   width="256"
   height="256"
   id="svg2"
   version="1.1"
   inkscape:version="0.48.3.1 r9886"
   sodipodi:docname="unknown.svg">
  <defs
     id="defs4">
    <linearGradient
       id="linearGradient3864">
      <stop
         style="stop-color:#ffffff;stop-opacity:1;"
         offset="0"
         id="stop3866" />
      <stop
         style="stop-color:#d5d5d5;stop-opacity:0;"
         offset="1"
         id="stop3868" />
    </linearGradient>
    <linearGradient
       id="linearGradient3815">
      <stop
         style="stop-color:#ffffff;stop-opacity:1;"
         offset="0"
         id="stop3817" />
      <stop
         style="stop-color:#a5a5a5;stop-opacity:1;"
         offset="1"
         id="stop3819" />
    </linearGradient>
    <linearGradient
       id="linearGradient3805">
      <stop
         style="stop-color:#989898;stop-opacity:1;"
         offset="0"
         id="stop3807" />
      <stop
         style="stop-color:#2a2a2a;stop-opacity:0.94968551;"
         offset="1"
         id="stop3809" />
    </linearGradient>
    <linearGradient
       id="linearGradient3927">
      <stop
         id="stop3929"
         offset="0"
         style="stop-color:#9d9d9d;stop-opacity:1;" />
      <stop
         id="stop3931"
         offset="1"
         style="stop-color:#ffffff;stop-opacity:1;" />
    </linearGradient>
    <linearGradient
       id="linearGradient3909">
      <stop
         style="stop-color:#909090;stop-opacity:1;"
         offset="0"
         id="stop3911" />
      <stop
         style="stop-color:#cfcfcf;stop-opacity:1;"
         offset="1"
         id="stop3913" />
    </linearGradient>
    <linearGradient
       id="linearGradient3815-1">
      <stop
         style="stop-color:#e0f2fe;stop-opacity:1;"
         offset="0"
         id="stop3817-9" />
      <stop
         style="stop-color:#01131f;stop-opacity:1;"
         offset="1"
         id="stop3819-2" />
    </linearGradient>
    <filter
       inkscape:collect="always"
       id="filter3862"
       x="-0.20169965"
       width="1.4033993"
       y="-0.18064831"
       height="1.3612966">
      <feGaussianBlur
         inkscape:collect="always"
         stdDeviation="3.884344"
         id="feGaussianBlur3864" />
    </filter>
    <filter
       inkscape:collect="always"
       id="filter3880"
       x="-0.84898819"
       width="2.6979764"
       y="-0.63366594"
       height="2.2673319">
      <feGaussianBlur
         inkscape:collect="always"
         stdDeviation="20.637391"
         id="feGaussianBlur3882" />
    </filter>
    <linearGradient
       inkscape:collect="always"
       xlink:href="#linearGradient3927"
       id="linearGradient3997"
       gradientUnits="userSpaceOnUse"
       x1="419.11514"
       y1="-27.717825"
       x2="404.26071"
       y2="81.883369" />
    <linearGradient
       inkscape:collect="always"
       xlink:href="#linearGradient3815"
       id="linearGradient3042"
       gradientUnits="userSpaceOnUse"
       gradientTransform="matrix(1.2064957,0,0,1.2064957,-326.94029,775.45566)"
       x1="401.29074"
       y1="22.914968"
       x2="335.61041"
       y2="452.23996" />
  </defs>
  <sodipodi:namedview
     id="base"
     pagecolor="#ffffff"
     bordercolor="#666666"
     borderopacity="1.0"
     inkscape:pageopacity="0.0"
     inkscape:pageshadow="2"
     inkscape:zoom="1.2484714"
     inkscape:cx="168.27598"
     inkscape:cy="19.634348"
     inkscape:document-units="px"
     inkscape:current-layer="layer1"
     showgrid="false"
     showguides="true"
     inkscape:guide-bbox="true"
     inkscape:window-width="1913"
     inkscape:window-height="1026"
     inkscape:window-x="0"
     inkscape:window-y="26"
     inkscape:window-maximized="1" />
  <metadata
     id="metadata7">
    <rdf:RDF>
      <cc:Work
         rdf:about="">
        <dc:format>image/svg+xml</dc:format>
        <dc:type
           rdf:resource="http://purl.org/dc/dcmitype/StillImage" />
        <dc:title></dc:title>
      </cc:Work>
    </rdf:RDF>
  </metadata>
  <g
     inkscape:label="Layer 1"
     inkscape:groupmode="layer"
     id="layer1"
     transform="translate(0,-796.3622)">
    <path
       inkscape:connector-curvature="0"
       style="fill:url(#linearGradient3042);fill-opacity:1;stroke:none"
       d="m 50.27813,817.11747 0,219.35603 166.72262,0 0,-187.57241 c -10.93332,-9.25258 -26.94202,-17.13462 -45.80913,-31.78362 z"
       id="rect3051"
       sodipodi:nodetypes="cccccc" />
    <path
       sodipodi:type="arc"
       style="opacity:0.46586346;fill:#fcfce3;fill-opacity:1;stroke:none;filter:url(#filter3880)"
       id="path3866"
       sodipodi:cx="375.22543"
       sodipodi:cy="108.17533"
       sodipodi:rx="29.168468"
       sodipodi:ry="39.080086"
       d="m 404.30959,105.20602 c 1.22398,21.52094 -10.8052,40.29652 -26.86793,41.93643 -16.06273,1.63991 -30.07639,-14.47686 -31.30038,-35.99781 -1.22399,-21.520941 10.80519,-40.29652 26.86793,-41.936427 15.81515,-1.614629 29.6947,13.99836 31.24502,35.147267"
       transform="matrix(1.2064957,0,0,1.2064957,-323.52363,757.00568)"
       sodipodi:start="6.2071318"
       sodipodi:end="12.46847"
       sodipodi:open="true" />
    <path
       transform="matrix(0.97766688,0,0,1.092318,-209.51979,798.57424)"
       style="opacity:0.56626503;fill:#626262;fill-opacity:1;stroke:none;filter:url(#filter3862)"
       inkscape:transform-center-x="-5.4168637"
       inkscape:transform-center-y="-0.79858784"
       d="M 407.69217,61.026367 392.4689,18.875528 436.5518,46.747407 z"
       id="path3054-5"
       inkscape:connector-curvature="0"
       sodipodi:nodetypes="cccc" />
    <path
       transform="matrix(1.0810446,0,0,1.1409536,-252.48963,789.3103)"
       style="fill:url(#linearGradient3997);fill-opacity:1;stroke:none"
       inkscape:transform-center-x="-5.9896366"
       inkscape:transform-center-y="-0.83414663"
       d="m 400.04112,59.178801 -7.31749,-35.458778 43.1638,28.448868 z"
       id="path3054"
       inkscape:connector-curvature="0"
       sodipodi:nodetypes="cccc" />
    <path
       inkscape:connector-curvature="0"
       style="opacity:0.83999999;fill:none;stroke:#000000;stroke-width:3.61948705;stroke-miterlimit:4;stroke-opacity:1;stroke-dasharray:none"
       d="m 50.666646,816.20651 0,219.98729 167.202334,0 0,-188.11221 c -10.96477,-9.27921 -27.01954,-17.18392 -45.94094,-31.87508 z"
       id="rect3051-1"
       sodipodi:nodetypes="cccccc" />
    <path
       style="fill:#ff0000;stroke:none"
       d="m 93.985945,911.65755 c -1.39481,9.36691 -27.347687,14.19975 -27.347687,18.93302 0,4.73325 30.503197,-2.62959 32.080947,2.10366 1.577755,4.73325 -3.15551,16.30343 -2.62959,18.93302 0.52592,2.62958 4.733255,-11.57018 14.725675,-6.83693 9.99244,4.73326 14.19977,5.78509 14.19977,5.78509 0,0 3.21304,11.10671 11.57018,9.99242 7.88876,-1.05182 2.10367,-7.88875 8.41468,-8.94058 6.311,-1.05184 10.51834,-9.99242 15.25159,-4.73325 4.73325,5.25917 0.52592,-10.51835 5.25917,-14.72569 4.73325,-4.20733 27.34769,-5.25917 13.14793,-9.99242 -14.19977,-4.73325 -6.83693,-4.73325 -14.19977,-17.88118 -3.68142,-6.57397 -7.23135,-15.909 0.13149,-29.38563 -11.57018,11.7674 -20.64225,6.77119 -20.64225,6.77119 l 5.25917,-42.59929 c 0,0 -14.72569,39.9697 -19.45893,40.49562 -8.90128,0.98903 -39.443793,-64.68781 -39.443793,-64.68781 0,0 22.088523,59.42864 12.096093,68.36923 -5.570455,4.98407 -19.458931,7.88875 -24.192186,5.78509 -4.733254,-2.10367 17.172331,13.24752 15.777511,22.61444 z"
       id="path3013"
       inkscape:connector-curvature="0"
       sodipodi:nodetypes="zsssscsssssscccscssz" />
    <path
       style="fill:#0088aa;stroke:none"
       d="m 149.47992,952.76831 c -8.43381,4.41697 -27.73559,-13.79741 -31.57973,-10.99301 -3.84414,2.80439 20.2084,23.21535 17.29905,27.30112 -2.90931,4.08575 -15.11047,7.09679 -16.93451,9.08192 -1.82404,1.98512 12.20117,-3.01104 14.27741,7.90875 2.07626,10.91981 3.71476,14.96001 3.71476,14.96001 0,0 -7.11661,9.1901 -1.26015,15.3172 5.5282,5.7838 7.65325,-2.9654 12.24673,1.5369 4.5934,4.5023 14.34733,2.6222 12.88051,9.5822 -1.46688,6.9602 8.85409,-5.8048 15.07551,-4.4534 6.2214,1.3513 20.47444,19.0946 15.90538,4.7578 -4.56905,-14.3369 -0.20665,-8.3571 6.10912,-22.1269 3.15789,-6.88491 8.6361,-15.29889 23.9436,-17.30386 -16.41214,-2.42475 -17.72952,-12.75288 -17.72952,-12.75288 l 37.71324,-20.96828 c 0,0 -41.18641,11.722 -44.41792,8.18947 -6.07715,-6.64323 29.16661,-70.36122 29.16661,-70.36122 0,0 -35.17813,53.15005 -48.35967,50.33182 -7.34827,-1.57107 -17.93607,-11.12968 -19.03196,-16.22022 -1.09589,-5.09054 -0.58467,21.7956 -9.01846,26.21258 z"
       id="path3013-9"
       inkscape:connector-curvature="0"
       sodipodi:nodetypes="zsssscsssssscccscssz" />
    <path
       style="fill:#37c837;stroke:none"
       d="m 63.456836,984.71415 c 4.665163,9.06926 -14.998474,29.60235 -12.024538,33.74235 2.973844,4.14 25.027845,-21.46489 29.381724,-18.3162 4.35387,3.1487 7.48321,16.2426 9.59539,18.2122 2.11218,1.9696 -3.12944,-13.0939 8.58449,-15.232 11.713838,-2.1382 16.054718,-3.86157 16.054718,-3.86157 0,0 9.78845,7.69587 16.3981,1.47047 6.23926,-5.87634 -3.11636,-8.22163 1.74278,-13.10682 4.85915,-4.8851 2.92191,-15.34852 10.36615,-13.72243 7.44434,1.62616 -6.14851,-9.53041 -4.65196,-16.18428 1.49655,-6.65386 20.61576,-21.78231 5.2219,-17.00073 -15.39396,4.78157 -8.95389,0.15556 -23.65466,-6.71846 -7.35029,-3.43701 -16.3204,-9.37164 -18.34761,-25.78516 -2.726758,17.56195 -13.800838,18.89184 -13.800838,18.89184 L 66.157741,886.53901 c 0,0 12.232561,44.21208 8.423012,47.64593 -7.164261,6.45766 -75.14281535,-31.79796 -75.14281535,-31.79796 0,0 56.65848235,38.1021 53.53576535,52.20026 -1.740815,7.85926 -12.063607,19.12588 -17.525288,20.25974 -5.461754,1.13385 23.34326,0.79792 28.008421,9.86717 z"
       id="path3013-9-8"
       inkscape:connector-curvature="0"
       sodipodi:nodetypes="zsssscsssssscccscssz"
       inkscape:transform-center-x="35.431301"
       inkscape:transform-center-y="-6.6943849" />
    <path
       style="fill:#ffcc00;stroke:none"
       d="m 171.38017,933.45266 c -2.87107,-9.07722 18.44324,-24.88933 16.3557,-29.16534 -2.08753,-4.276 -26.39676,15.82855 -29.90962,12.24838 -3.51285,-3.58013 -4.3397,-16.12011 -5.97455,-18.26373 -1.63485,-2.14362 0.82684,12.53999 -10.28781,12.67098 -11.11467,0.13102 -15.37948,1.03633 -15.37948,1.03633 0,0 -7.80107,-8.61662 -14.85944,-3.9242 -6.66291,4.42938 1.57869,8.05441 -3.65877,11.78805 -5.23743,3.73355 -5.09528,13.66601 -11.690645,11.0025 -6.595552,-2.66361 4.163795,9.73414 1.743313,15.62257 -2.42038,5.88842 -22.386358,16.81242 -7.470811,14.82581 14.915673,-1.98657 8.264047,1.2607 20.714393,9.89124 6.22512,4.31526 13.54919,11.18286 12.8413,26.60487 5.26263,-15.73349 15.66182,-15.22102 15.66182,-15.22102 l 14.03666,40.8035 c 0,0 -4.3249,-42.60301 -0.28085,-45.16565 7.60519,-4.81927 64.16301,41.04265 64.16301,41.04265 0,0 -46.16483,-43.94582 -41.08081,-56.42973 2.83418,-6.95937 14.09991,-15.70875 19.30372,-15.89584 5.2038,-0.18708 -21.35606,-4.39418 -24.22713,-13.47137 z"
       id="path3013-9-85"
       inkscape:connector-curvature="0"
       sodipodi:nodetypes="zsssscsssssscccscssz" />
  </g>
</svg>
