<?xml version="1.0" encoding="UTF-8" standalone="no"?>
<!-- Created with Inkscape (http://www.inkscape.org/) -->

<svg
   xmlns:dc="http://purl.org/dc/elements/1.1/"
   xmlns:cc="http://creativecommons.org/ns#"
   xmlns:rdf="http://www.w3.org/1999/02/22-rdf-syntax-ns#"
   xmlns:svg="http://www.w3.org/2000/svg"
   xmlns="http://www.w3.org/2000/svg"
   xmlns:sodipodi="http://sodipodi.sourceforge.net/DTD/sodipodi-0.dtd"
   xmlns:inkscape="http://www.inkscape.org/namespaces/inkscape"
   width="256"
   height="256"
   id="svg2"
   version="1.1"
   inkscape:version="0.92.1 r15371"
   sodipodi:docname="folder-publicshare.svg">
  <defs
     id="defs4">
    <linearGradient
       id="linearGradient4297">
      <stop
         id="stop4299"
         offset="0"
         style="stop-color:#f9fcff;stop-opacity:1;" />
      <stop
         id="stop4301"
         offset="1"
         style="stop-color:#a9d5f1;stop-opacity:1;" />
    </linearGradient>
    <linearGradient
       id="linearGradient3864">
      <stop
         style="stop-color:#ffffff;stop-opacity:1;"
         offset="0"
         id="stop3866" />
      <stop
         style="stop-color:#d5d5d5;stop-opacity:0;"
         offset="1"
         id="stop3868" />
    </linearGradient>
    <linearGradient
       id="linearGradient3815">
      <stop
         style="stop-color:#e0f2fe;stop-opacity:1;"
         offset="0"
         id="stop3817" />
      <stop
         style="stop-color:#075e99;stop-opacity:1;"
         offset="1"
         id="stop3819" />
    </linearGradient>
    <linearGradient
       id="linearGradient3805">
      <stop
         style="stop-color:#989898;stop-opacity:1;"
         offset="0"
         id="stop3807" />
      <stop
         style="stop-color:#2a2a2a;stop-opacity:0.94968551;"
         offset="1"
         id="stop3809" />
    </linearGradient>
    <linearGradient
       id="linearGradient3909">
      <stop
         style="stop-color:#909090;stop-opacity:1;"
         offset="0"
         id="stop3911" />
      <stop
         style="stop-color:#cfcfcf;stop-opacity:1;"
         offset="1"
         id="stop3913" />
    </linearGradient>
    <linearGradient
       id="linearGradient3815-1">
      <stop
         style="stop-color:#e0f2fe;stop-opacity:1;"
         offset="0"
         id="stop3817-9" />
      <stop
         style="stop-color:#486578;stop-opacity:1;"
         offset="1"
         id="stop3819-2" />
    </linearGradient>
    <linearGradient
       id="linearGradient3805-4">
      <stop
         style="stop-color:#989898;stop-opacity:1;"
         offset="0"
         id="stop3807-0" />
      <stop
         style="stop-color:#2a2a2a;stop-opacity:0.94968551;"
         offset="1"
         id="stop3809-2" />
    </linearGradient>
    <linearGradient
       id="linearGradient3805-6">
      <stop
         style="stop-color:#989898;stop-opacity:1;"
         offset="0"
         id="stop3807-4" />
      <stop
         style="stop-color:#2a2a2a;stop-opacity:0.94968551;"
         offset="1"
         id="stop3809-8" />
    </linearGradient>
  </defs>
  <sodipodi:namedview
     id="base"
     pagecolor="#ffffff"
     bordercolor="#666666"
     borderopacity="1.0"
     inkscape:pageopacity="0.0"
     inkscape:pageshadow="2"
     inkscape:zoom="1.8992933"
     inkscape:cx="130.08625"
     inkscape:cy="51.042958"
     inkscape:document-units="px"
     inkscape:current-layer="layer1"
     showgrid="false"
     showguides="true"
     inkscape:guide-bbox="true"
     inkscape:window-width="1914"
     inkscape:window-height="1008"
     inkscape:window-x="0"
     inkscape:window-y="24"
     inkscape:window-maximized="1"
     inkscape:snap-global="false">
    <sodipodi:guide
       position="153.21488,42.647441"
       orientation="1,0"
       id="guide277"
       inkscape:locked="false" />
    <sodipodi:guide
       position="219.02883,150.05581"
       orientation="0,1"
       id="guide279"
       inkscape:locked="false" />
  </sodipodi:namedview>
  <metadata
     id="metadata7">
    <rdf:RDF>
      <cc:Work
         rdf:about="">
        <dc:format>image/svg+xml</dc:format>
        <dc:type
           rdf:resource="http://purl.org/dc/dcmitype/StillImage" />
        <dc:title />
      </cc:Work>
    </rdf:RDF>
  </metadata>
  <g
     inkscape:label="Layer 1"
     inkscape:groupmode="layer"
     id="layer1"
     transform="translate(0,-796.3622)">
    <rect
       style="opacity:1;fill:#9283be;fill-opacity:1;fill-rule:nonzero;stroke:#ffffff;stroke-width:0.57506412;stroke-linecap:round;stroke-linejoin:miter;stroke-miterlimit:4;stroke-dasharray:none;stroke-dashoffset:0;stroke-opacity:1;paint-order:fill markers stroke"
       id="rect1029-3"
       width="41.527779"
       height="9.2891092"
       x="990.17358"
       y="-119.58755"
       ry="4.6445546"
       transform="rotate(90)" />
    <path
       style="opacity:1;fill:#50b8b1;fill-opacity:1;fill-rule:nonzero;stroke:#ffffff;stroke-width:5.74494886;stroke-linecap:round;stroke-linejoin:miter;stroke-miterlimit:4;stroke-dasharray:none;stroke-dashoffset:0;stroke-opacity:1;paint-order:fill markers stroke"
       d="m 217.08588,817.82839 -45.82954,0.006 c -14.52327,0.002 -14.87333,6.47437 -15.45332,8.81419 l -120.587509,0.42876 c -9.071197,0.0326 -11.03461,4.27486 -11.03461,10.71696 v 84.02079 c 0,4.27476 3.441416,7.71619 7.716194,7.71619 H 217.08588 c 4.27482,0 7.71619,-3.44143 7.71619,-7.71619 v -96.26996 c 0,-4.27476 -3.44149,-7.73831 -7.71619,-7.7162 z"
       id="rect4636-6-5"
       inkscape:connector-curvature="0"
       sodipodi:nodetypes="cscsssssssc" />
    <path
       style="fill:#d6e031;fill-opacity:1;fill-rule:evenodd;stroke:#ffffff;stroke-width:1.91498291;stroke-linecap:butt;stroke-linejoin:miter;stroke-miterlimit:4;stroke-dasharray:none;stroke-opacity:1"
       d="m 72.959211,850.90891 123.331099,-23.99958 -1e-5,79.99855 -116.664535,-1.3334 z"
       id="path4708-3"
       inkscape:connector-curvature="0" />
    <path
       style="fill:#d6e031;fill-opacity:1;fill-rule:evenodd;stroke:#ffffff;stroke-width:1.91498291;stroke-linecap:butt;stroke-linejoin:miter;stroke-miterlimit:4;stroke-dasharray:none;stroke-opacity:1"
       d="M 94.593348,871.51363 217.92443,847.51405 v 79.99854 l -116.66455,-1.3334 z"
       id="path4708"
       inkscape:connector-curvature="0" />
    <path
       style="opacity:1;fill:#50b8b1;fill-opacity:1;fill-rule:nonzero;stroke:#ffffff;stroke-width:5.74494886;stroke-linecap:round;stroke-linejoin:miter;stroke-miterlimit:4;stroke-dasharray:none;stroke-dashoffset:0;stroke-opacity:1;paint-order:fill markers stroke"
       d="M 17.794644,848.24008 H 135.20743 c 25.38272,0.34718 22.24741,12.84963 22.89606,25.71435 l 65.53175,0.48526 c 10.26655,0.0766 12.48896,4.83828 12.48896,12.12942 v 95.09464 c 0,4.83819 -3.895,8.73319 -8.73318,8.73319 H 17.794644 c -4.838185,0 -8.7331648,-3.895 -8.7331648,-8.73319 V 856.97334 c 0,-4.83819 3.8949798,-8.73319 8.7331648,-8.73319 z"
       id="rect4636-7"
       inkscape:connector-curvature="0"
       sodipodi:nodetypes="sccssssssss" />
    <rect
       style="opacity:1;fill:#9283be;fill-opacity:1;fill-rule:nonzero;stroke:#ffffff;stroke-width:1.33567691;stroke-linecap:round;stroke-linejoin:miter;stroke-miterlimit:4;stroke-dasharray:none;stroke-dashoffset:0;stroke-opacity:1;paint-order:fill markers stroke"
       id="rect1029"
       width="224.03146"
       height="9.2891092"
       x="6.2057691"
       y="1016.6749"
       ry="4.6445546" />
    <path
       sodipodi:type="arc"
       style="fill:#2a9f6a;fill-opacity:1;stroke:#ffffff;stroke-width:0.41180012;stroke-miterlimit:4;stroke-dasharray:none;stroke-opacity:1"
       id="path4243-2-0-6"
       sodipodi:cx="114.66978"
       sodipodi:cy="1021.3194"
       sodipodi:rx="12.38977"
       sodipodi:ry="12.38977"
       d="m 127.05955,1021.3194 a 12.38977,12.38977 0 0 1 -12.37914,12.3898 12.38977,12.38977 0 0 1 -12.40038,-12.3685 12.38977,12.38977 0 0 1 12.35784,-12.411 12.38977,12.38977 0 0 1 12.4216,12.3472"
       sodipodi:start="0"
       sodipodi:end="6.279752"
       sodipodi:open="true" />
    <g
       id="g425"
       transform="matrix(1.0427284,0,0,1.0427284,125.28882,-25.284847)">
      <path
         sodipodi:open="true"
         sodipodi:end="6.1852847"
         sodipodi:start="6.2071318"
         d="M 94.605374,934.69168 A 21.343424,21.343424 0 0 1 75.061536,957.58591 21.343424,21.343424 0 0 1 52.060903,938.1674 21.343424,21.343424 0 0 1 71.353494,915.06105 21.343424,21.343424 0 0 1 94.564869,934.22716"
         sodipodi:ry="21.343424"
         sodipodi:rx="21.343424"
         sodipodi:cy="936.31335"
         sodipodi:cx="73.323647"
         id="path3852-5-1-3"
         style="fill:#4b7744;fill-opacity:1;stroke:none;stroke-width:24.11779785"
         sodipodi:type="arc" />
      <path
         sodipodi:open="true"
         sodipodi:end="6.279752"
         sodipodi:start="0"
         d="M 122.90763,936.78223 A 48.483459,48.483459 0 0 1 74.465786,985.26567 48.483459,48.483459 0 0 1 25.940783,936.86546 48.483459,48.483459 0 0 1 74.299328,888.29893 48.483459,48.483459 0 0 1 122.90735,936.61577"
         sodipodi:ry="48.483459"
         sodipodi:rx="48.483459"
         sodipodi:cy="936.78223"
         sodipodi:cx="74.424171"
         id="path4243-2-0-67"
         style="fill:#ffd100;fill-opacity:1;stroke:#ffffff;stroke-width:1.61144984;stroke-miterlimit:4;stroke-dasharray:none;stroke-opacity:1"
         sodipodi:type="arc" />
      <g
         style="fill:#bc9fbd;fill-opacity:1;fill-rule:evenodd"
         transform="matrix(9.4501528,0,0,9.4501528,34.384231,899.38362)"
         id="g2994-2-2-1-3-5">
        <path
           id="_121731384-6-3-6-6-3"
           class="fil0"
           d="M 0.67062907,3.1466295 0.96315753,3.436604 C 1.4643536,2.1285285 2.9137173,3.0231678 2.3709066,3.891 L 2.767349,4.0396257 C 3.5316128,2.8534265 1.7399119,1.2088624 0.67062907,3.1466295 Z"
           inkscape:connector-curvature="0"
           style="fill:#bc9fbd;fill-opacity:1"
           sodipodi:nodetypes="ccccc" />
        <path
           id="_121328256-5-8-3-0-5"
           class="fil0"
           d="M 0.1777958,2.5586559 C -0.01275712,2.3374532 0.11748395,2.4022267 0.31580842,2.5444209 0.51413288,2.686615 0.81410198,2.8425452 1.1021572,3.1460838 L 0.96046525,3.4267024 C 0.50016423,3.0157207 0.36834871,2.7798588 0.1777958,2.5586559 Z"
           inkscape:connector-curvature="0"
           style="fill:#bc9fbd;fill-opacity:1"
           sodipodi:nodetypes="zsccz" />
        <path
           sodipodi:type="arc"
           style="fill:#bc9fbd;fill-opacity:1;stroke:none"
           id="path3582-0-3-2-6-6"
           sodipodi:cx="11.182829"
           sodipodi:cy="12.753372"
           sodipodi:rx="2.6694496"
           sodipodi:ry="2.6694496"
           d="m 13.844562,12.550547 a 2.6694496,2.6694496 0 0 1 -2.444373,2.863411 2.6694496,2.6694496 0 0 1 -2.8767188,-2.428698 2.6694496,2.6694496 0 0 1 2.4129488,-2.88994 2.6694496,2.6694496 0 0 1 2.903077,2.397129"
           transform="matrix(0.13834256,0,0,0.13834256,0.19919495,1.7915877)"
           sodipodi:start="6.2071318"
           sodipodi:end="6.1852847"
           sodipodi:open="true" />
        <path
           id="_121328256-7-3-0-1-26-2"
           class="fil0"
           d="M 0.4247675,1.3417552 C 0.30865975,1.051719 0.40976238,1.1514637 0.55275704,1.3529974 0.69575091,1.5545312 1.0526419,2.1606454 1.2359221,2.5639276 L 0.96710859,2.750389 C 0.74796061,2.1419236 0.54087506,1.6317917 0.4247675,1.3417552 Z"
           inkscape:connector-curvature="0"
           style="fill:#bc9fbd;fill-opacity:1;fill-rule:evenodd"
           sodipodi:nodetypes="zsccz" />
        <path
           id="_121328256-7-9-4-6-2-1-9"
           class="fil0"
           d="M 1.44312,0.58246558 C 1.43361,0.2701971 1.521214,0.39282353 1.5594765,0.63695278 1.6013875,0.90435635 1.7053444,1.7413136 1.7506921,2.2817189 l -0.3164814,0.082874 c 0.003,-0.6467199 0.018418,-1.46985881 0.00891,-1.78212732 z"
           inkscape:connector-curvature="0"
           style="fill:#bc9fbd;fill-opacity:1;fill-rule:evenodd"
           sodipodi:nodetypes="zsccz" />
        <path
           id="_121328256-7-4-0-7-9-8-1"
           class="fil0"
           d="M 2.4423509,0.52194906 C 2.5291241,0.19808085 2.5810366,0.32015476 2.5788735,0.5833539 2.5767086,0.84655178 2.4931372,1.8976838 2.1801821,2.4013588 L 1.8869765,2.2775017 c 0.307833,-0.6143974 0.4686,-1.43168421 0.5553744,-1.75555264 z"
           inkscape:connector-curvature="0"
           style="fill:#bc9fbd;fill-opacity:1;fill-rule:evenodd"
           sodipodi:nodetypes="zsccz" />
        <path
           id="_121328256-7-4-9-8-3-3-7-2"
           class="fil0"
           d="M 3.6839051,1.1452392 C 3.9311577,0.7718015 3.8949861,1.029192 3.7754429,1.2636867 3.5368401,1.7317274 2.9264141,2.4275569 2.4666837,2.7714357 L 2.2400615,2.4692892 C 2.8122122,2.0577751 3.4366526,1.5186768 3.6839051,1.1452392 Z"
           inkscape:connector-curvature="0"
           style="fill:#bc9fbd;fill-opacity:1;fill-rule:evenodd"
           sodipodi:nodetypes="zsccz" />
        <path
           id="_121328256-7-4-9-1-6-3-4-9-7"
           class="fil0"
           d="m 4.2265513,3.0597007 c 0.4091243,-0.09358 0.2522344,0.074602 0.024419,0.1707759 C 4.0062521,3.3337885 3.127026,3.6011424 2.5719027,3.6165508 l 0.00603,-0.3830989 c 0.653125,-5.32e-4 1.239497,-0.080171 1.6486213,-0.1737512 z"
           inkscape:connector-curvature="0"
           style="fill:#bc9fbd;fill-opacity:1;fill-rule:evenodd"
           sodipodi:nodetypes="zsccz" />
        <path
           id="_121328256-9-3-8-2-2-0"
           class="fil0"
           d="M 3.9700033,4.2976494 C 4.2626923,4.4304234 4.1316091,4.4287597 3.9491295,4.4043056 3.7042093,4.3714838 3.1539385,4.1823832 2.7531868,4.0349335 L 2.8590012,3.7253663 C 3.4161029,4.0174147 3.677314,4.1648752 3.9700033,4.2976494 Z"
           inkscape:connector-curvature="0"
           style="fill:#bc9fbd;fill-opacity:1;fill-rule:evenodd"
           sodipodi:nodetypes="zsccz" />
        <path
           id="_121328256-7-4-9-1-7-7-5-0-0-9"
           class="fil0"
           d="M 4.1962848,2.076334 C 4.5907234,1.8600715 4.4775437,2.0697011 4.2705883,2.2323244 4.0482794,2.4070154 3.2196806,2.935215 2.6523716,3.1218067 L 2.5483179,2.7530525 C 3.2208399,2.5503733 3.801846,2.2925963 4.1962848,2.076334 Z"
           inkscape:connector-curvature="0"
           style="fill:#bc9fbd;fill-opacity:1;fill-rule:evenodd"
           sodipodi:nodetypes="zsccz"
           inkscape:transform-center-y="0.95298244"
           inkscape:transform-center-x="-0.069049672" />
      </g>
      <g
         style="fill:#d079d4;fill-opacity:1;fill-rule:evenodd"
         transform="matrix(10.039482,4.7786764,-4.7786764,10.039482,86.569061,898.69452)"
         id="g2994-2-2-1-0-2-3">
        <path
           id="_121731384-6-3-6-5-3-6"
           class="fil0"
           d="M 0.67062907,3.1466295 0.96315753,3.436604 C 1.4643536,2.1285285 2.9137173,3.0231678 2.3709066,3.891 L 2.767349,4.0396257 C 3.5316128,2.8534265 1.7399119,1.2088624 0.67062907,3.1466295 Z"
           inkscape:connector-curvature="0"
           style="fill:#d079d4;fill-opacity:1"
           sodipodi:nodetypes="ccccc" />
        <path
           id="_121328256-5-8-3-8-7-0"
           class="fil0"
           d="M 0.1777958,2.5586559 C -0.01275712,2.3374532 0.11748395,2.4022267 0.31580842,2.5444209 0.51413288,2.686615 0.81410198,2.8425452 1.1021572,3.1460838 L 0.96046525,3.4267024 C 0.50016423,3.0157207 0.36834871,2.7798588 0.1777958,2.5586559 Z"
           inkscape:connector-curvature="0"
           style="fill:#d079d4;fill-opacity:1"
           sodipodi:nodetypes="zsccz" />
        <path
           sodipodi:type="arc"
           style="fill:#d079d4;fill-opacity:1;stroke:none"
           id="path3582-0-3-2-9-5-6"
           sodipodi:cx="11.182829"
           sodipodi:cy="12.753372"
           sodipodi:rx="2.6694496"
           sodipodi:ry="2.6694496"
           d="m 13.844562,12.550547 a 2.6694496,2.6694496 0 0 1 -2.444373,2.863411 2.6694496,2.6694496 0 0 1 -2.8767188,-2.428698 2.6694496,2.6694496 0 0 1 2.4129488,-2.88994 2.6694496,2.6694496 0 0 1 2.903077,2.397129"
           transform="matrix(0.13834256,0,0,0.13834256,0.19919495,1.7915877)"
           sodipodi:start="6.2071318"
           sodipodi:end="6.1852847"
           sodipodi:open="true" />
        <path
           id="_121328256-7-3-0-1-2-9-2"
           class="fil0"
           d="M 0.4247675,1.3417552 C 0.30865975,1.051719 0.40976238,1.1514637 0.55275704,1.3529974 0.69575091,1.5545312 1.0526419,2.1606454 1.2359221,2.5639276 L 0.96710859,2.750389 C 0.74796061,2.1419236 0.54087506,1.6317917 0.4247675,1.3417552 Z"
           inkscape:connector-curvature="0"
           style="fill:#d079d4;fill-opacity:1;fill-rule:evenodd"
           sodipodi:nodetypes="zsccz" />
        <path
           id="_121328256-7-9-4-6-2-8-2-6"
           class="fil0"
           d="M 1.44312,0.58246558 C 1.43361,0.2701971 1.521214,0.39282353 1.5594765,0.63695278 1.6013875,0.90435635 1.7053444,1.7413136 1.7506921,2.2817189 l -0.3164814,0.082874 c 0.003,-0.6467199 0.018418,-1.46985881 0.00891,-1.78212732 z"
           inkscape:connector-curvature="0"
           style="fill:#d079d4;fill-opacity:1;fill-rule:evenodd"
           sodipodi:nodetypes="zsccz" />
        <path
           id="_121328256-7-4-0-7-9-5-2-1"
           class="fil0"
           d="M 2.4423509,0.52194906 C 2.5291241,0.19808085 2.5810366,0.32015476 2.5788735,0.5833539 2.5767086,0.84655178 2.4931372,1.8976838 2.1801821,2.4013588 L 1.8869765,2.2775017 c 0.307833,-0.6143974 0.4686,-1.43168421 0.5553744,-1.75555264 z"
           inkscape:connector-curvature="0"
           style="fill:#d079d4;fill-opacity:1;fill-rule:evenodd"
           sodipodi:nodetypes="zsccz" />
        <path
           id="_121328256-7-4-9-8-3-3-2-8-8"
           class="fil0"
           d="M 3.6839051,1.1452392 C 3.9311577,0.7718015 3.8949861,1.029192 3.7754429,1.2636867 3.5368401,1.7317274 2.9264141,2.4275569 2.4666837,2.7714357 L 2.2400615,2.4692892 C 2.8122122,2.0577751 3.4366526,1.5186768 3.6839051,1.1452392 Z"
           inkscape:connector-curvature="0"
           style="fill:#d079d4;fill-opacity:1;fill-rule:evenodd"
           sodipodi:nodetypes="zsccz" />
        <path
           id="_121328256-7-4-9-1-6-3-4-7-9-7"
           class="fil0"
           d="m 4.2265513,3.0597007 c 0.4091243,-0.09358 0.2522344,0.074602 0.024419,0.1707759 C 4.0062521,3.3337885 3.127026,3.6011424 2.5719027,3.6165508 l 0.00603,-0.3830989 c 0.653125,-5.32e-4 1.239497,-0.080171 1.6486213,-0.1737512 z"
           inkscape:connector-curvature="0"
           style="fill:#d079d4;fill-opacity:1;fill-rule:evenodd"
           sodipodi:nodetypes="zsccz" />
        <path
           id="_121328256-9-3-8-2-9-7-9"
           class="fil0"
           d="M 3.9700033,4.2976494 C 4.2626923,4.4304234 4.1316091,4.4287597 3.9491295,4.4043056 3.7042093,4.3714838 3.1539385,4.1823832 2.7531868,4.0349335 L 2.8590012,3.7253663 C 3.4161029,4.0174147 3.677314,4.1648752 3.9700033,4.2976494 Z"
           inkscape:connector-curvature="0"
           style="fill:#d079d4;fill-opacity:1;fill-rule:evenodd"
           sodipodi:nodetypes="zsccz" />
        <path
           id="_121328256-7-4-9-1-7-7-5-0-5-3-2"
           class="fil0"
           d="M 4.1962848,2.076334 C 4.5907234,1.8600715 4.4775437,2.0697011 4.2705883,2.2323244 4.0482794,2.4070154 3.2196806,2.935215 2.6523716,3.1218067 L 2.5483179,2.7530525 C 3.2208399,2.5503733 3.801846,2.2925963 4.1962848,2.076334 Z"
           inkscape:connector-curvature="0"
           style="fill:#d079d4;fill-opacity:1;fill-rule:evenodd"
           sodipodi:nodetypes="zsccz"
           inkscape:transform-center-y="0.95298244"
           inkscape:transform-center-x="-0.069049672" />
      </g>
      <g
         style="fill:#822b86;fill-opacity:1;fill-rule:evenodd"
         transform="matrix(14.050055,0,0,14.050055,37.826741,913.55572)"
         id="g2994-2-2-6-0">
        <path
           id="_121731384-6-3-1-2"
           class="fil0"
           d="M 0.67062907,3.1466295 0.96315753,3.436604 C 1.4643536,2.1285285 2.9137173,3.0231678 2.3709066,3.891 L 2.767349,4.0396257 C 3.5316128,2.8534265 1.7399119,1.2088624 0.67062907,3.1466295 Z"
           inkscape:connector-curvature="0"
           style="fill:#822b86;fill-opacity:1"
           sodipodi:nodetypes="ccccc" />
        <path
           id="_121328256-5-8-2-3"
           class="fil0"
           d="M 0.1777958,2.5586559 C -0.01275712,2.3374532 0.11748395,2.4022267 0.31580842,2.5444209 0.51413288,2.686615 0.81410198,2.8425452 1.1021572,3.1460838 L 0.96046525,3.4267024 C 0.50016423,3.0157207 0.36834871,2.7798588 0.1777958,2.5586559 Z"
           inkscape:connector-curvature="0"
           style="fill:#822b86;fill-opacity:1"
           sodipodi:nodetypes="zsccz" />
        <path
           sodipodi:type="arc"
           style="fill:#822b86;fill-opacity:1;stroke:none"
           id="path3582-0-3-9-7"
           sodipodi:cx="11.182829"
           sodipodi:cy="12.753372"
           sodipodi:rx="2.6694496"
           sodipodi:ry="2.6694496"
           d="m 13.844562,12.550547 a 2.6694496,2.6694496 0 0 1 -2.444373,2.863411 2.6694496,2.6694496 0 0 1 -2.8767188,-2.428698 2.6694496,2.6694496 0 0 1 2.4129488,-2.88994 2.6694496,2.6694496 0 0 1 2.903077,2.397129"
           transform="matrix(0.13834256,0,0,0.13834256,0.19919495,1.7915877)"
           sodipodi:start="6.2071318"
           sodipodi:end="6.1852847"
           sodipodi:open="true" />
        <path
           id="_121328256-7-3-0-3-5"
           class="fil0"
           d="M 0.4247675,1.3417552 C 0.30865975,1.051719 0.40976238,1.1514637 0.55275704,1.3529974 0.69575091,1.5545312 1.0526419,2.1606454 1.2359221,2.5639276 L 0.96710859,2.750389 C 0.74796061,2.1419236 0.54087506,1.6317917 0.4247675,1.3417552 Z"
           inkscape:connector-curvature="0"
           style="fill:#822b86;fill-opacity:1;fill-rule:evenodd"
           sodipodi:nodetypes="zsccz" />
        <path
           id="_121328256-7-9-4-6-1-9"
           class="fil0"
           d="M 1.44312,0.58246558 C 1.43361,0.2701971 1.521214,0.39282353 1.5594765,0.63695278 1.6013875,0.90435635 1.7053444,1.7413136 1.7506921,2.2817189 l -0.3164814,0.082874 c 0.003,-0.6467199 0.018418,-1.46985881 0.00891,-1.78212732 z"
           inkscape:connector-curvature="0"
           style="fill:#822b86;fill-opacity:1;fill-rule:evenodd"
           sodipodi:nodetypes="zsccz" />
        <path
           id="_121328256-7-4-0-7-94-2"
           class="fil0"
           d="M 2.4423509,0.52194906 C 2.5291241,0.19808085 2.5810366,0.32015476 2.5788735,0.5833539 2.5767086,0.84655178 2.4931372,1.8976838 2.1801821,2.4013588 L 1.8869765,2.2775017 c 0.307833,-0.6143974 0.4686,-1.43168421 0.5553744,-1.75555264 z"
           inkscape:connector-curvature="0"
           style="fill:#822b86;fill-opacity:1;fill-rule:evenodd"
           sodipodi:nodetypes="zsccz" />
        <path
           id="_121328256-7-4-9-8-3-7-2"
           class="fil0"
           d="M 3.6839051,1.1452392 C 3.9311577,0.7718015 3.8949861,1.029192 3.7754429,1.2636867 3.5368401,1.7317274 2.9264141,2.4275569 2.4666837,2.7714357 L 2.2400615,2.4692892 C 2.8122122,2.0577751 3.4366526,1.5186768 3.6839051,1.1452392 Z"
           inkscape:connector-curvature="0"
           style="fill:#822b86;fill-opacity:1;fill-rule:evenodd"
           sodipodi:nodetypes="zsccz" />
        <path
           id="_121328256-7-4-9-1-6-3-8-8"
           class="fil0"
           d="m 4.2265513,3.0597007 c 0.4091243,-0.09358 0.2522344,0.074602 0.024419,0.1707759 C 4.0062521,3.3337885 3.127026,3.6011424 2.5719027,3.6165508 l 0.00603,-0.3830989 c 0.653125,-5.32e-4 1.239497,-0.080171 1.6486213,-0.1737512 z"
           inkscape:connector-curvature="0"
           style="fill:#822b86;fill-opacity:1;fill-rule:evenodd"
           sodipodi:nodetypes="zsccz" />
        <path
           id="_121328256-9-3-8-4-9"
           class="fil0"
           d="M 3.9700033,4.2976494 C 4.2626923,4.4304234 4.1316091,4.4287597 3.9491295,4.4043056 3.7042093,4.3714838 3.1539385,4.1823832 2.7531868,4.0349335 L 2.8590012,3.7253663 C 3.4161029,4.0174147 3.677314,4.1648752 3.9700033,4.2976494 Z"
           inkscape:connector-curvature="0"
           style="fill:#822b86;fill-opacity:1;fill-rule:evenodd"
           sodipodi:nodetypes="zsccz" />
        <path
           id="_121328256-7-4-9-1-7-7-5-5-7"
           class="fil0"
           d="M 4.1962848,2.076334 C 4.5907234,1.8600715 4.4775437,2.0697011 4.2705883,2.2323244 4.0482794,2.4070154 3.2196806,2.935215 2.6523716,3.1218067 L 2.5483179,2.7530525 C 3.2208399,2.5503733 3.801846,2.2925963 4.1962848,2.076334 Z"
           inkscape:connector-curvature="0"
           style="fill:#822b86;fill-opacity:1;fill-rule:evenodd"
           sodipodi:nodetypes="zsccz"
           inkscape:transform-center-y="0.95298244"
           inkscape:transform-center-x="-0.069049672" />
      </g>
    </g>
  </g>
</svg>
