<?xml version="1.0" encoding="UTF-8" standalone="no"?>
<!-- Created with Inkscape (http://www.inkscape.org/) -->

<svg
   xmlns:dc="http://purl.org/dc/elements/1.1/"
   xmlns:cc="http://creativecommons.org/ns#"
   xmlns:rdf="http://www.w3.org/1999/02/22-rdf-syntax-ns#"
   xmlns:svg="http://www.w3.org/2000/svg"
   xmlns="http://www.w3.org/2000/svg"
   xmlns:sodipodi="http://sodipodi.sourceforge.net/DTD/sodipodi-0.dtd"
   xmlns:inkscape="http://www.inkscape.org/namespaces/inkscape"
   width="256"
   height="256"
   viewBox="0 0 67.733332 67.733335"
   version="1.1"
   id="svg18205"
   inkscape:version="0.92.1 r15371"
   sodipodi:docname="folder-desktop.svg">
  <defs
     id="defs18199" />
  <sodipodi:namedview
     id="base"
     pagecolor="#ffffff"
     bordercolor="#666666"
     borderopacity="1.0"
     inkscape:pageopacity="0.0"
     inkscape:pageshadow="2"
     inkscape:zoom="2.8646557"
     inkscape:cx="178.16226"
     inkscape:cy="134.3017"
     inkscape:document-units="mm"
     inkscape:current-layer="layer1"
     showgrid="false"
     units="px"
     inkscape:window-width="1914"
     inkscape:window-height="1008"
     inkscape:window-x="0"
     inkscape:window-y="24"
     inkscape:window-maximized="1"
     inkscape:snap-global="false"
     showguides="true"
     inkscape:guide-bbox="true"
     inkscape:snap-bbox="false">
    <sodipodi:guide
       position="-7.2064694,8.3553269"
       orientation="0,1"
       id="guide4507"
       inkscape:locked="false" />
    <sodipodi:guide
       position="2.2977149,62.873835"
       orientation="1,0"
       id="guide4509"
       inkscape:locked="false" />
  </sodipodi:namedview>
  <metadata
     id="metadata18202">
    <rdf:RDF>
      <cc:Work
         rdf:about="">
        <dc:format>image/svg+xml</dc:format>
        <dc:type
           rdf:resource="http://purl.org/dc/dcmitype/StillImage" />
        <dc:title />
      </cc:Work>
    </rdf:RDF>
  </metadata>
  <g
     inkscape:label="Capa 1"
     inkscape:groupmode="layer"
     id="layer1"
     transform="translate(0,-229.26665)">
    <g
       id="g65">
      <g
         transform="translate(-66.210175,3.598379)"
         id="g98">
        <path
           style="opacity:1;fill:#50b8b1;fill-opacity:1;fill-rule:nonzero;stroke:#ffffff;stroke-width:1.57554173;stroke-linecap:round;stroke-linejoin:miter;stroke-miterlimit:4;stroke-dasharray:none;stroke-dashoffset:0;stroke-opacity:1;paint-order:fill markers stroke"
           d="m 126.30932,236.90316 -12.56867,0.002 c -3.98298,4.8e-4 -4.07898,1.77558 -4.23804,2.41727 l -33.070907,0.11759 c -2.487759,0.009 -3.026221,1.17237 -3.026221,2.93911 v 23.04255 c 0,1.17234 0.943802,2.11615 2.116152,2.11615 h 50.787686 c 1.17236,0 2.11615,-0.94381 2.11615,-2.11615 v -26.40187 c 0,-1.17234 -0.94382,-2.12221 -2.11615,-2.11615 z"
           id="rect4636-6-5-3"
           inkscape:connector-curvature="0"
           sodipodi:nodetypes="cscsssssssc" />
        <path
           style="fill:#d6e031;fill-opacity:1;fill-rule:evenodd;stroke:#ffffff;stroke-width:0.52518058;stroke-linecap:butt;stroke-linejoin:miter;stroke-miterlimit:4;stroke-dasharray:none;stroke-opacity:1"
           d="m 86.782844,245.97543 33.823336,-6.58184 -10e-6,21.93946 -31.995036,-0.36569 z"
           id="path4708-3-6"
           inkscape:connector-curvature="0" />
        <path
           style="fill:#d6e031;fill-opacity:1;fill-rule:evenodd;stroke:#ffffff;stroke-width:0.52518058;stroke-linecap:butt;stroke-linejoin:miter;stroke-miterlimit:4;stroke-dasharray:none;stroke-opacity:1"
           d="m 92.715966,251.62624 33.823324,-6.58184 v 21.93945 l -31.995039,-0.36568 z"
           id="path4708-7"
           inkscape:connector-curvature="0" />
        <path
           style="opacity:1;fill:#50b8b1;fill-opacity:1;fill-rule:nonzero;stroke:#ffffff;stroke-width:1.57554173;stroke-linecap:round;stroke-linejoin:miter;stroke-miterlimit:4;stroke-dasharray:none;stroke-dashoffset:0;stroke-opacity:1;paint-order:fill markers stroke"
           d="M 71.654062,245.24351 H 103.8543 c 6.96117,0.0952 6.10131,3.52399 6.27921,7.05212 l 17.97196,0.13308 c 2.81558,0.021 3.42508,1.32689 3.42508,3.32647 v 26.07953 c 0,1.32686 -1.0682,2.39506 -2.39507,2.39506 H 71.654062 c -1.326863,0 -2.395054,-1.0682 -2.395054,-2.39506 v -34.19612 c 0,-1.32686 1.068191,-2.39506 2.395054,-2.39506 z"
           id="rect4636-7-5"
           inkscape:connector-curvature="0"
           sodipodi:nodetypes="sccssssssss" />
      </g>
      <rect
         ry="1.0729306"
         y="262.11749"
         x="8.5761786"
         height="21.276829"
         width="30.914598"
         id="rect4503-3"
         style="opacity:1;fill:#ee3d8f;fill-opacity:1;fill-rule:nonzero;stroke:#ffffff;stroke-width:0.65733099;stroke-linecap:round;stroke-linejoin:miter;stroke-miterlimit:4;stroke-dasharray:none;stroke-dashoffset:0;stroke-opacity:1;paint-order:fill markers stroke" />
      <g
         style="fill:#d6e031;fill-opacity:1;stroke:#ffffff;stroke-width:0.9898088;stroke-miterlimit:4;stroke-dasharray:none"
         transform="matrix(0.66409894,0,0,-0.66409894,14.603606,264.61305)"
         id="g88-2-2-0-2-5">
        <path
           inkscape:connector-curvature="0"
           id="path90-0-6-6-8-6"
           style="fill:#d6e031;fill-opacity:1;fill-rule:nonzero;stroke:#ffffff;stroke-width:0.9898088;stroke-miterlimit:4;stroke-dasharray:none"
           d="M 0,0 C -2.315,0 -4.193,-1.877 -4.193,-4.193 V -21.96 c 0.006,-1.413 1.15,-2.556 2.562,-2.563 h 31.659 c 1.413,0.007 2.557,1.15 2.564,2.563 V -4.193 C 32.592,-1.877 30.714,0 28.397,0 Z" />
      </g>
      <g
         transform="matrix(0.66409894,0,0,-0.66409894,19.821684,271.47291)"
         id="g92-2-9-8-9-2"
         style="fill:#50b8b1;fill-opacity:1;stroke-width:0.9898088;stroke-miterlimit:4;stroke-dasharray:none">
        <path
           inkscape:connector-curvature="0"
           id="path94-3-4-9-7-9"
           style="fill:#50b8b1;fill-opacity:1;fill-rule:nonzero;stroke:none;stroke-width:0.9898088;stroke-miterlimit:4;stroke-dasharray:none"
           d="m 0,0 h -0.666 c -0.811,0 -1.473,0.663 -1.473,1.473 v 0.666 c 0,0.81 0.662,1.473 1.473,1.473 H 0 c 0.811,0 1.474,-0.663 1.474,-1.473 V 1.473 C 1.474,0.663 0.811,0 0,0" />
      </g>
      <g
         transform="matrix(0.66409894,0,0,-0.66409894,24.749239,271.47291)"
         id="g96-7-8-2-3-1"
         style="fill:#50b8b1;fill-opacity:1;stroke-width:0.9898088;stroke-miterlimit:4;stroke-dasharray:none">
        <path
           inkscape:connector-curvature="0"
           id="path98-5-2-6-6-2"
           style="fill:#50b8b1;fill-opacity:1;fill-rule:nonzero;stroke:none;stroke-width:0.9898088;stroke-miterlimit:4;stroke-dasharray:none"
           d="m 0,0 h -0.666 c -0.811,0 -1.473,0.663 -1.473,1.473 v 0.666 c 0,0.81 0.662,1.473 1.473,1.473 H 0 c 0.811,0 1.473,-0.663 1.473,-1.473 V 1.473 C 1.473,0.663 0.811,0 0,0" />
      </g>
      <g
         transform="matrix(0.66409894,0,0,-0.66409894,29.676782,271.47291)"
         id="g100-9-8-6-1-7"
         style="fill:#50b8b1;fill-opacity:1;stroke-width:0.9898088;stroke-miterlimit:4;stroke-dasharray:none">
        <path
           inkscape:connector-curvature="0"
           id="path102-2-2-4-2-0"
           style="fill:#50b8b1;fill-opacity:1;fill-rule:nonzero;stroke:none;stroke-width:0.9898088;stroke-miterlimit:4;stroke-dasharray:none"
           d="M 0,0 H -0.666 C -1.477,0 -2.14,0.663 -2.14,1.473 v 0.666 c 0,0.81 0.663,1.473 1.474,1.473 H 0 c 0.81,0 1.473,-0.663 1.473,-1.473 V 1.473 C 1.473,0.663 0.81,0 0,0" />
      </g>
      <g
         transform="matrix(0.66409894,0,0,-0.66409894,19.821684,276.43744)"
         id="g104-2-7-9-9-9"
         style="fill:#50b8b1;fill-opacity:1;stroke-width:0.9898088;stroke-miterlimit:4;stroke-dasharray:none">
        <path
           inkscape:connector-curvature="0"
           id="path106-8-8-5-3-3"
           style="fill:#50b8b1;fill-opacity:1;fill-rule:nonzero;stroke:none;stroke-width:0.9898088;stroke-miterlimit:4;stroke-dasharray:none"
           d="m 0,0 h -0.666 c -0.811,0 -1.473,0.663 -1.473,1.473 v 0.666 c 0,0.81 0.662,1.473 1.473,1.473 H 0 c 0.811,0 1.474,-0.663 1.474,-1.473 V 1.473 C 1.474,0.663 0.811,0 0,0" />
      </g>
      <g
         transform="matrix(0.66409894,0,0,-0.66409894,29.676782,276.43744)"
         id="g108-9-6-0-1-6"
         style="fill:#50b8b1;fill-opacity:1;stroke-width:0.9898088;stroke-miterlimit:4;stroke-dasharray:none">
        <path
           inkscape:connector-curvature="0"
           id="path110-7-7-4-9-0"
           style="fill:#50b8b1;fill-opacity:1;fill-rule:nonzero;stroke:none;stroke-width:0.9898088;stroke-miterlimit:4;stroke-dasharray:none"
           d="M 0,0 H -0.666 C -1.477,0 -2.14,0.663 -2.14,1.473 v 0.666 c 0,0.81 0.663,1.473 1.474,1.473 H 0 c 0.81,0 1.473,-0.663 1.473,-1.473 V 1.473 C 1.473,0.663 0.81,0 0,0" />
      </g>
      <g
         transform="matrix(0.66409894,0,0,-0.66409894,29.383057,275.3025)"
         id="g112-3-7-8-4-6"
         style="fill:#50b8b1;fill-opacity:1;stroke-width:0.9898088;stroke-miterlimit:4;stroke-dasharray:none">
        <path
           inkscape:connector-curvature="0"
           id="path114-6-0-7-7-2"
           style="fill:#50b8b1;fill-opacity:1;fill-rule:nonzero;stroke:none;stroke-width:0.9898088;stroke-miterlimit:4;stroke-dasharray:none"
           d="M 0,0 -7.333,7.112 -7.146,7.305 0.187,0.193 Z" />
      </g>
    </g>
  </g>
</svg>
