<?xml version="1.0" encoding="UTF-8" standalone="no"?>
<!-- Created with Inkscape (http://www.inkscape.org/) -->

<svg
   xmlns:dc="http://purl.org/dc/elements/1.1/"
   xmlns:cc="http://creativecommons.org/ns#"
   xmlns:rdf="http://www.w3.org/1999/02/22-rdf-syntax-ns#"
   xmlns:svg="http://www.w3.org/2000/svg"
   xmlns="http://www.w3.org/2000/svg"
   xmlns:sodipodi="http://sodipodi.sourceforge.net/DTD/sodipodi-0.dtd"
   xmlns:inkscape="http://www.inkscape.org/namespaces/inkscape"
   width="256"
   height="256"
   viewBox="0 0 67.733332 67.733335"
   version="1.1"
   id="svg18205"
   inkscape:version="0.92.1 r15371"
   sodipodi:docname="folder-pictures.svg">
  <defs
     id="defs18199" />
  <sodipodi:namedview
     id="base"
     pagecolor="#ffffff"
     bordercolor="#666666"
     borderopacity="1.0"
     inkscape:pageopacity="0.0"
     inkscape:pageshadow="2"
     inkscape:zoom="2.533314"
     inkscape:cx="132.63561"
     inkscape:cy="114.46449"
     inkscape:document-units="mm"
     inkscape:current-layer="layer1"
     showgrid="false"
     units="px"
     inkscape:window-width="1914"
     inkscape:window-height="1008"
     inkscape:window-x="0"
     inkscape:window-y="24"
     inkscape:window-maximized="1"
     inkscape:snap-global="true"
     showguides="true"
     inkscape:guide-bbox="true"
     inkscape:snap-bbox="false">
    <sodipodi:guide
       position="-7.2064694,8.3553269"
       orientation="0,1"
       id="guide4507"
       inkscape:locked="false" />
    <sodipodi:guide
       position="2.2977149,62.873835"
       orientation="1,0"
       id="guide4509"
       inkscape:locked="false" />
  </sodipodi:namedview>
  <metadata
     id="metadata18202">
    <rdf:RDF>
      <cc:Work
         rdf:about="">
        <dc:format>image/svg+xml</dc:format>
        <dc:type
           rdf:resource="http://purl.org/dc/dcmitype/StillImage" />
        <dc:title />
      </cc:Work>
    </rdf:RDF>
  </metadata>
  <g
     inkscape:label="Capa 1"
     inkscape:groupmode="layer"
     id="layer1"
     transform="translate(0,-229.26665)">
    <path
       style="opacity:1;fill:#f79420;fill-opacity:1;fill-rule:nonzero;stroke:#ffffff;stroke-width:1.57554173;stroke-linecap:round;stroke-linejoin:miter;stroke-miterlimit:4;stroke-dasharray:none;stroke-dashoffset:0;stroke-opacity:1;paint-order:fill markers stroke"
       d="m 60.171385,240.64654 -12.568666,0.002 c -3.982982,4.8e-4 -4.078986,1.77558 -4.238048,2.41727 l -33.070903,0.11759 c -2.4877588,0.009 -3.0262218,1.17237 -3.0262218,2.93911 v 23.04255 c 0,1.17234 0.943802,2.11615 2.1161525,2.11615 H 60.171385 c 1.172361,0 2.116154,-0.94381 2.116154,-2.11615 v -26.40187 c 0,-1.17234 -0.943825,-2.12221 -2.116154,-2.11615 z"
       id="rect4636-6-5-3"
       inkscape:connector-curvature="0"
       sodipodi:nodetypes="cscsssssssc"
       inkscape:export-filename="/home/alumno/Escritorio/folders.png"
       inkscape:export-xdpi="90"
       inkscape:export-ydpi="90" />
    <path
       style="fill:#d6e031;fill-opacity:1;fill-rule:evenodd;stroke:#ffffff;stroke-width:0.52518058;stroke-linecap:butt;stroke-linejoin:miter;stroke-miterlimit:4;stroke-dasharray:none;stroke-opacity:1"
       d="m 20.64491,249.71881 33.823331,-6.58184 -8e-6,21.93946 -31.995033,-0.36569 z"
       id="path4708-3-6"
       inkscape:connector-curvature="0"
       inkscape:export-filename="/home/alumno/Escritorio/folders.png"
       inkscape:export-xdpi="90"
       inkscape:export-ydpi="90" />
    <path
       style="fill:#d6e031;fill-opacity:1;fill-rule:evenodd;stroke:#ffffff;stroke-width:0.52518058;stroke-linecap:butt;stroke-linejoin:miter;stroke-miterlimit:4;stroke-dasharray:none;stroke-opacity:1"
       d="m 26.578032,255.36962 33.823327,-6.58184 v 21.93945 l -31.995042,-0.36568 z"
       id="path4708-0"
       inkscape:connector-curvature="0"
       inkscape:export-filename="/home/alumno/Escritorio/folders.png"
       inkscape:export-xdpi="90"
       inkscape:export-ydpi="90" />
    <path
       style="opacity:1;fill:#f79420;fill-opacity:1;fill-rule:nonzero;stroke:#ffffff;stroke-width:1.57554173;stroke-linecap:round;stroke-linejoin:miter;stroke-miterlimit:4;stroke-dasharray:none;stroke-dashoffset:0;stroke-opacity:1;paint-order:fill markers stroke"
       d="M 5.5161272,248.98689 H 37.71637 c 6.961166,0.0952 6.10131,3.52399 6.279205,7.05212 l 17.971958,0.13308 c 2.815582,0.021 3.425076,1.32689 3.425076,3.32647 v 26.07953 c 0,1.32686 -1.068197,2.39506 -2.395061,2.39506 H 5.5161272 c -1.326864,0 -2.3950551,-1.0682 -2.3950551,-2.39506 v -34.19612 c 0,-1.32686 1.0681911,-2.39506 2.3950551,-2.39506 z"
       id="rect4636-7-6"
       inkscape:connector-curvature="0"
       sodipodi:nodetypes="sccssssssss"
       inkscape:export-filename="/home/alumno/Escritorio/folders.png"
       inkscape:export-xdpi="90"
       inkscape:export-ydpi="90" />
    <path
       inkscape:connector-curvature="0"
       style="fill:#38b7e9;fill-opacity:1;stroke:#ffffff;stroke-width:0.82795751;stroke-miterlimit:4;stroke-dasharray:none;stroke-opacity:1"
       d="m 25.731737,258.36051 c -1.454227,0.008 -3.20999,0.1043 -4.901256,0.0938 -1.932935,-0.008 -2.237233,3.74455 -2.237233,3.74455 l -2.745128,0.0224 v -0.60833 c 0,-0.20342 -0.16864,-0.36932 -0.375392,-0.36932 h -2.870135 c -0.20678,0 -0.375367,0.16593 -0.375367,0.36932 v 0.63741 h -0.0235 c -2.2111963,-3e-5 -3.7312406,1.75656 -3.7312406,3.93275 v 10.92943 c 0,2.17627 1.7775746,3.92559 3.9887916,3.92559 h 22.387287 c 2.211216,0 3.996104,-1.74932 3.996104,-3.92559 v -10.92943 c 0,-2.17619 -1.784888,-3.93278 -3.996104,-3.93278 l -6.284916,-0.17405 c 0,0 -0.67977,-3.6781 -2.237233,-3.70834 -0.194692,0 -0.388309,-0.008 -0.596107,-0.008 z"
       id="path6027-4-1-7-0-6" />
    <path
       inkscape:connector-curvature="0"
       style="fill:#38b7e9;fill-opacity:1;stroke:#ffffff;stroke-width:0.82795751;stroke-miterlimit:4;stroke-dasharray:none;stroke-opacity:1"
       d="m 24.152158,265.49985 c 3.253018,-0.0837 6.048519,2.32197 6.370046,5.54398 l 0.01204,0.13183 c 0.26193,3.38444 -2.309785,6.33476 -5.748723,6.59269 -3.439077,0.25771 -6.442995,-2.27329 -6.705033,-5.65778 -0.261958,-3.38455 2.315915,-6.33486 5.75491,-6.59279 0.105768,-0.008 0.211818,-0.0167 0.316704,-0.0197 z"
       id="path4755-1" />
    <path
       style="opacity:1;fill:#f79420;fill-opacity:1;fill-rule:nonzero;stroke:#ffffff;stroke-width:0.82795751;stroke-linecap:round;stroke-linejoin:miter;stroke-miterlimit:4;stroke-dasharray:none;stroke-dashoffset:0;stroke-opacity:1;paint-order:fill markers stroke"
       id="path8479-1-6-9-8"
       sodipodi:type="arc"
       sodipodi:cx="24.385658"
       sodipodi:cy="271.78714"
       sodipodi:rx="3.8911579"
       sodipodi:ry="3.8911579"
       sodipodi:start="6.2071239"
       sodipodi:end="6.1852898"
       sodipodi:open="true"
       d="m 28.265566,271.49146 a 3.8911579,3.8911579 0 0 1 -3.563052,4.17392 3.8911579,3.8911579 0 0 1 -4.193304,-3.54022 3.8911579,3.8911579 0 0 1 3.517273,-4.21257 3.8911579,3.8911579 0 0 1 4.231703,3.49423" />
  </g>
</svg>
