<?xml version="1.0" encoding="UTF-8" standalone="no"?>
<!-- Created with Inkscape (http://www.inkscape.org/) -->

<svg
   xmlns:dc="http://purl.org/dc/elements/1.1/"
   xmlns:cc="http://creativecommons.org/ns#"
   xmlns:rdf="http://www.w3.org/1999/02/22-rdf-syntax-ns#"
   xmlns:svg="http://www.w3.org/2000/svg"
   xmlns="http://www.w3.org/2000/svg"
   xmlns:sodipodi="http://sodipodi.sourceforge.net/DTD/sodipodi-0.dtd"
   xmlns:inkscape="http://www.inkscape.org/namespaces/inkscape"
   width="256"
   height="256"
   id="svg2"
   version="1.1"
   inkscape:version="0.92.1 r15371"
   sodipodi:docname="network-workgroup.svg">
  <defs
     id="defs4">
    <linearGradient
       id="linearGradient4501">
      <stop
         style="stop-color:#323232;stop-opacity:1;"
         offset="0"
         id="stop4503" />
      <stop
         style="stop-color:#575757;stop-opacity:1;"
         offset="1"
         id="stop4505" />
    </linearGradient>
    <linearGradient
       id="linearGradient4491">
      <stop
         style="stop-color:#262626;stop-opacity:1;"
         offset="0"
         id="stop4493" />
      <stop
         style="stop-color:#cfcfcf;stop-opacity:1;"
         offset="1"
         id="stop4495" />
    </linearGradient>
    <linearGradient
       id="linearGradient4441">
      <stop
         style="stop-color:#f7f7f7;stop-opacity:1;"
         offset="0"
         id="stop4443" />
      <stop
         style="stop-color:#02090b;stop-opacity:0;"
         offset="1"
         id="stop4445" />
    </linearGradient>
    <linearGradient
       id="linearGradient4429">
      <stop
         style="stop-color:#15526b;stop-opacity:1;"
         offset="0"
         id="stop4431" />
      <stop
         style="stop-color:#000000;stop-opacity:1;"
         offset="1"
         id="stop4433" />
    </linearGradient>
    <linearGradient
       id="linearGradient4419">
      <stop
         style="stop-color:#585858;stop-opacity:1;"
         offset="0"
         id="stop4421" />
      <stop
         style="stop-color:#d7d7d7;stop-opacity:1;"
         offset="1"
         id="stop4423" />
    </linearGradient>
    <linearGradient
       id="linearGradient3815-1">
      <stop
         style="stop-color:#e0f2fe;stop-opacity:1;"
         offset="0"
         id="stop3817-9" />
      <stop
         style="stop-color:#486578;stop-opacity:1;"
         offset="1"
         id="stop3819-2" />
    </linearGradient>
    <linearGradient
       id="linearGradient4297">
      <stop
         id="stop4299"
         offset="0"
         style="stop-color:#f9fcff;stop-opacity:1;" />
      <stop
         id="stop4301"
         offset="1"
         style="stop-color:#a9d5f1;stop-opacity:1;" />
    </linearGradient>
  </defs>
  <sodipodi:namedview
     id="base"
     pagecolor="#ffffff"
     bordercolor="#666666"
     borderopacity="1.0"
     inkscape:pageopacity="0.0"
     inkscape:pageshadow="2"
     inkscape:zoom="1.2484714"
     inkscape:cx="105.79579"
     inkscape:cy="91.171714"
     inkscape:document-units="px"
     inkscape:current-layer="layer1"
     showgrid="false"
     showguides="true"
     inkscape:guide-bbox="true"
     inkscape:window-width="1914"
     inkscape:window-height="1008"
     inkscape:window-x="0"
     inkscape:window-y="24"
     inkscape:window-maximized="1"
     inkscape:snap-global="false" />
  <metadata
     id="metadata7">
    <rdf:RDF>
      <cc:Work
         rdf:about="">
        <dc:format>image/svg+xml</dc:format>
        <dc:type
           rdf:resource="http://purl.org/dc/dcmitype/StillImage" />
        <dc:title />
      </cc:Work>
    </rdf:RDF>
  </metadata>
  <g
     inkscape:label="Layer 1"
     inkscape:groupmode="layer"
     id="layer1"
     transform="translate(0,-796.3622)">
    <g
       id="g58-4-4-3"
       transform="matrix(3.542011,0,0,-3.542011,8.4656148,999.08472)"
       style="fill:#38b7e9;fill-opacity:1">
      <path
         d="m 0,0 -0.512,-3.985 h 67.95 v 2.694 z"
         style="fill:#38b7e9;fill-opacity:1;fill-rule:nonzero;stroke:none"
         id="path60-2-4-6"
         inkscape:connector-curvature="0" />
    </g>
    <g
       id="g62-7-3-7"
       transform="matrix(3.542011,0,0,-3.542011,41.035805,943.34809)"
       style="fill:#38b7e9;fill-opacity:1">
      <path
         d="M 0,0 -9.195,-15.736 58.753,-15.327 49.148,0 Z"
         style="fill:#38b7e9;fill-opacity:1;fill-rule:nonzero;stroke:none"
         id="path64-5-0-5"
         inkscape:connector-curvature="0" />
    </g>
    <path
       d="M 45.647435,938.51212 H 210.6839 V 825.59287 H 45.647435 Z"
       style="fill:#ffffff;fill-opacity:1;fill-rule:nonzero;stroke:none;stroke-width:3.54201102"
       id="path66-3-7-7-3"
       inkscape:connector-curvature="0" />
    <path
       d="M 45.647435,938.51212 H 210.6839 V 825.59287 H 45.647435 Z"
       style="fill:#38b7e9;fill-opacity:1;fill-rule:nonzero;stroke:none;stroke-width:3.54201102"
       id="path68-5-8-5"
       inkscape:connector-curvature="0" />
    <path
       d="M 45.647435,938.51212 H 210.6839 V 825.59287 H 45.647435 Z m 169.375495,8.68497 H 41.301475 c -2.39794,0 -4.33905,-1.9445 -4.33905,-4.3424 V 821.25031 c 0,-2.39792 1.94111,-4.34254 4.33905,-4.34254 H 215.02293 c 2.40145,0 4.34598,1.94462 4.34598,4.34254 v 121.60438 c 0,2.3979 -1.94453,4.3424 -4.34598,4.3424"
       style="fill:#ffffff;fill-opacity:1;fill-rule:nonzero;stroke:none;stroke-width:3.54201102"
       id="path70-6-2-6-6"
       inkscape:connector-curvature="0" />
    <g
       id="g72-0-2-8-2"
       transform="matrix(3.542011,0,0,-3.542011,77.870615,838.62354)"
       style="fill:#ffffff">
      <path
         d="M 0,0 C -2.315,0 -4.193,-1.877 -4.193,-4.193 V -21.96 c 0.006,-1.413 1.15,-2.556 2.562,-2.563 h 31.659 c 1.413,0.007 2.557,1.15 2.564,2.563 V -4.193 C 32.592,-1.877 30.714,0 28.397,0 Z M 30.028,-26.975 H -1.631 c -2.766,0.007 -5.008,2.248 -5.015,5.015 v 17.767 c 0,3.67 2.976,6.646 6.646,6.646 h 28.397 c 3.671,0 6.647,-2.976 6.647,-6.646 V -21.96 c -0.007,-2.767 -2.248,-5.008 -5.016,-5.015"
         style="fill:#ffffff;fill-opacity:1;fill-rule:nonzero;stroke:none"
         id="path74-6-8-8-9"
         inkscape:connector-curvature="0" />
    </g>
    <g
       id="g76-2-6-4-1"
       transform="matrix(3.542011,0,0,-3.542011,249.76857,1003.6575)"
       style="fill:#ffffff">
      <path
         d="m 0,0 h -68.664 c -0.442,0 -0.851,0.239 -1.067,0.625 -0.219,0.379 -0.219,0.847 0,1.226 l 9.809,15.94 c 0.242,0.633 0.95,0.95 1.583,0.708 0.633,-0.242 0.949,-0.951 0.708,-1.583 -0.049,-0.128 -0.119,-0.247 -0.207,-0.351 L -66.47,2.452 h 64.276 l -8.658,14.076 c -0.241,0.633 0.076,1.342 0.708,1.583 0.489,0.187 1.041,0.044 1.377,-0.357 L 1.042,1.814 c 0.22,-0.379 0.22,-0.846 0,-1.226 C 0.82,0.225 0.426,0.001 0,0"
         style="fill:#ffffff;fill-opacity:1;fill-rule:nonzero;stroke:none"
         id="path78-6-6-3-2"
         inkscape:connector-curvature="0" />
    </g>
    <g
       id="g80-1-0-1-7"
       transform="matrix(3.542011,0,0,-3.542011,249.76857,1018.6875)"
       style="fill:#ffffff">
      <path
         d="m 0,0 h -68.664 c -0.678,0 -1.227,0.549 -1.227,1.226 v 3.679 c 0,0.677 0.549,1.226 1.227,1.226 0.677,0 1.226,-0.549 1.226,-1.226 V 2.452 h 66.211 v 2.453 c 0,0.677 0.55,1.226 1.227,1.226 0.678,0 1.227,-0.549 1.227,-1.226 V 1.226 C 1.227,0.549 0.678,0 0,0"
         style="fill:#ffffff;fill-opacity:1;fill-rule:nonzero;stroke:none"
         id="path82-8-0-4-0"
         inkscape:connector-curvature="0" />
    </g>
    <g
       id="g84-7-9-9-9"
       transform="matrix(3.542011,0,0,-3.542011,118.26121,984.11413)"
       style="fill:#ffffff">
      <path
         d="M 0,0 H 5.592 L 4.537,1.839 H 1.055 Z m 7.7,-2.453 h -9.808 c -0.436,0.003 -0.837,0.237 -1.055,0.614 -0.219,0.379 -0.219,0.846 0,1.226 l 2.452,4.291 c 0.218,0.377 0.619,0.611 1.055,0.614 H 5.248 C 5.687,4.293 6.095,4.059 6.314,3.678 l 2.454,-4.291 c 0.218,-0.38 0.218,-0.847 0,-1.226 C 8.547,-2.22 8.141,-2.454 7.7,-2.453"
         style="fill:#ffffff;fill-opacity:1;fill-rule:nonzero;stroke:none"
         id="path86-9-1-2-3"
         inkscape:connector-curvature="0" />
    </g>
    <g
       id="g88-2-2-0-6"
       transform="matrix(3.542011,0,0,-3.542011,77.870615,838.62354)"
       style="fill:#9283be;fill-opacity:1">
      <path
         d="M 0,0 C -2.315,0 -4.193,-1.877 -4.193,-4.193 V -21.96 c 0.006,-1.413 1.15,-2.556 2.562,-2.563 h 31.659 c 1.413,0.007 2.557,1.15 2.564,2.563 V -4.193 C 32.592,-1.877 30.714,0 28.397,0 Z"
         style="fill:#9283be;fill-opacity:1;fill-rule:nonzero;stroke:none"
         id="path90-0-6-6-0"
         inkscape:connector-curvature="0" />
    </g>
    <path
       sodipodi:type="arc"
       style="fill:#4b7744;fill-opacity:1;stroke:none;stroke-width:19.67988968"
       id="path3852-5-1-6"
       sodipodi:cx="128.81975"
       sodipodi:cy="880.37347"
       sodipodi:rx="17.416027"
       sodipodi:ry="17.416027"
       d="m 146.18543,879.0502 a 17.416027,17.416027 0 0 1 -15.94758,18.68147 17.416027,17.416027 0 0 1 -18.76829,-15.84531 17.416027,17.416027 0 0 1 15.74256,-18.85456 17.416027,17.416027 0 0 1 18.94026,15.63936"
       sodipodi:start="6.2071318"
       sodipodi:end="6.1852847"
       sodipodi:open="true" />
    <path
       sodipodi:type="arc"
       style="fill:#ffd100;fill-opacity:1;stroke:none;stroke-width:1.31492746;stroke-miterlimit:4;stroke-dasharray:none;stroke-opacity:1"
       id="path4243-2-0-2"
       sodipodi:cx="129.71776"
       sodipodi:cy="880.75604"
       sodipodi:rx="39.562035"
       sodipodi:ry="39.562035"
       d="m 169.27979,880.75604 a 39.562035,39.562035 0 0 1 -39.52807,39.56202 39.562035,39.562035 0 0 1 -39.595938,-39.4941 39.562035,39.562035 0 0 1 39.460108,-39.62982 39.562035,39.562035 0 0 1 39.66367,39.42607"
       sodipodi:start="0"
       sodipodi:end="6.279752"
       sodipodi:open="true" />
    <g
       id="g2994-2-2-1-3-6"
       transform="matrix(7.7112334,0,0,7.7112334,97.045535,850.23916)"
       style="fill:#bc9fbd;fill-opacity:1;fill-rule:evenodd">
      <path
         sodipodi:nodetypes="ccccc"
         style="fill:#bc9fbd;fill-opacity:1"
         inkscape:connector-curvature="0"
         d="M 0.67062907,3.1466295 0.96315753,3.436604 C 1.4643536,2.1285285 2.9137173,3.0231678 2.3709066,3.891 L 2.767349,4.0396257 C 3.5316128,2.8534265 1.7399119,1.2088624 0.67062907,3.1466295 Z"
         class="fil0"
         id="_121731384-6-3-6-6-1" />
      <path
         sodipodi:nodetypes="zsccz"
         style="fill:#bc9fbd;fill-opacity:1"
         inkscape:connector-curvature="0"
         d="M 0.1777958,2.5586559 C -0.01275712,2.3374532 0.11748395,2.4022267 0.31580842,2.5444209 0.51413288,2.686615 0.81410198,2.8425452 1.1021572,3.1460838 L 0.96046525,3.4267024 C 0.50016423,3.0157207 0.36834871,2.7798588 0.1777958,2.5586559 Z"
         class="fil0"
         id="_121328256-5-8-3-0-8" />
      <path
         sodipodi:open="true"
         sodipodi:end="6.1852847"
         sodipodi:start="6.2071318"
         transform="matrix(0.13834256,0,0,0.13834256,0.19919495,1.7915877)"
         d="m 13.844562,12.550547 a 2.6694496,2.6694496 0 0 1 -2.444373,2.863411 2.6694496,2.6694496 0 0 1 -2.8767188,-2.428698 2.6694496,2.6694496 0 0 1 2.4129488,-2.88994 2.6694496,2.6694496 0 0 1 2.903077,2.397129"
         sodipodi:ry="2.6694496"
         sodipodi:rx="2.6694496"
         sodipodi:cy="12.753372"
         sodipodi:cx="11.182829"
         id="path3582-0-3-2-6-7"
         style="fill:#bc9fbd;fill-opacity:1;stroke:none"
         sodipodi:type="arc" />
      <path
         sodipodi:nodetypes="zsccz"
         style="fill:#bc9fbd;fill-opacity:1;fill-rule:evenodd"
         inkscape:connector-curvature="0"
         d="M 0.4247675,1.3417552 C 0.30865975,1.051719 0.40976238,1.1514637 0.55275704,1.3529974 0.69575091,1.5545312 1.0526419,2.1606454 1.2359221,2.5639276 L 0.96710859,2.750389 C 0.74796061,2.1419236 0.54087506,1.6317917 0.4247675,1.3417552 Z"
         class="fil0"
         id="_121328256-7-3-0-1-26-9" />
      <path
         sodipodi:nodetypes="zsccz"
         style="fill:#bc9fbd;fill-opacity:1;fill-rule:evenodd"
         inkscape:connector-curvature="0"
         d="M 1.44312,0.58246558 C 1.43361,0.2701971 1.521214,0.39282353 1.5594765,0.63695278 1.6013875,0.90435635 1.7053444,1.7413136 1.7506921,2.2817189 l -0.3164814,0.082874 c 0.003,-0.6467199 0.018418,-1.46985881 0.00891,-1.78212732 z"
         class="fil0"
         id="_121328256-7-9-4-6-2-1-2" />
      <path
         sodipodi:nodetypes="zsccz"
         style="fill:#bc9fbd;fill-opacity:1;fill-rule:evenodd"
         inkscape:connector-curvature="0"
         d="M 2.4423509,0.52194906 C 2.5291241,0.19808085 2.5810366,0.32015476 2.5788735,0.5833539 2.5767086,0.84655178 2.4931372,1.8976838 2.1801821,2.4013588 L 1.8869765,2.2775017 c 0.307833,-0.6143974 0.4686,-1.43168421 0.5553744,-1.75555264 z"
         class="fil0"
         id="_121328256-7-4-0-7-9-8-0" />
      <path
         sodipodi:nodetypes="zsccz"
         style="fill:#bc9fbd;fill-opacity:1;fill-rule:evenodd"
         inkscape:connector-curvature="0"
         d="M 3.6839051,1.1452392 C 3.9311577,0.7718015 3.8949861,1.029192 3.7754429,1.2636867 3.5368401,1.7317274 2.9264141,2.4275569 2.4666837,2.7714357 L 2.2400615,2.4692892 C 2.8122122,2.0577751 3.4366526,1.5186768 3.6839051,1.1452392 Z"
         class="fil0"
         id="_121328256-7-4-9-8-3-3-7-2" />
      <path
         sodipodi:nodetypes="zsccz"
         style="fill:#bc9fbd;fill-opacity:1;fill-rule:evenodd"
         inkscape:connector-curvature="0"
         d="m 4.2265513,3.0597007 c 0.4091243,-0.09358 0.2522344,0.074602 0.024419,0.1707759 C 4.0062521,3.3337885 3.127026,3.6011424 2.5719027,3.6165508 l 0.00603,-0.3830989 c 0.653125,-5.32e-4 1.239497,-0.080171 1.6486213,-0.1737512 z"
         class="fil0"
         id="_121328256-7-4-9-1-6-3-4-9-3" />
      <path
         sodipodi:nodetypes="zsccz"
         style="fill:#bc9fbd;fill-opacity:1;fill-rule:evenodd"
         inkscape:connector-curvature="0"
         d="M 3.9700033,4.2976494 C 4.2626923,4.4304234 4.1316091,4.4287597 3.9491295,4.4043056 3.7042093,4.3714838 3.1539385,4.1823832 2.7531868,4.0349335 L 2.8590012,3.7253663 C 3.4161029,4.0174147 3.677314,4.1648752 3.9700033,4.2976494 Z"
         class="fil0"
         id="_121328256-9-3-8-2-2-7" />
      <path
         inkscape:transform-center-x="-0.069049672"
         inkscape:transform-center-y="0.95298244"
         sodipodi:nodetypes="zsccz"
         style="fill:#bc9fbd;fill-opacity:1;fill-rule:evenodd"
         inkscape:connector-curvature="0"
         d="M 4.1962848,2.076334 C 4.5907234,1.8600715 4.4775437,2.0697011 4.2705883,2.2323244 4.0482794,2.4070154 3.2196806,2.935215 2.6523716,3.1218067 L 2.5483179,2.7530525 C 3.2208399,2.5503733 3.801846,2.2925963 4.1962848,2.076334 Z"
         class="fil0"
         id="_121328256-7-4-9-1-7-7-5-0-0-5" />
    </g>
    <g
       id="g2994-2-2-1-0-2-9"
       transform="matrix(8.1921205,3.8993538,-3.8993538,8.1921205,139.62784,849.67691)"
       style="fill:#d079d4;fill-opacity:1;fill-rule:evenodd">
      <path
         sodipodi:nodetypes="ccccc"
         style="fill:#d079d4;fill-opacity:1"
         inkscape:connector-curvature="0"
         d="M 0.67062907,3.1466295 0.96315753,3.436604 C 1.4643536,2.1285285 2.9137173,3.0231678 2.3709066,3.891 L 2.767349,4.0396257 C 3.5316128,2.8534265 1.7399119,1.2088624 0.67062907,3.1466295 Z"
         class="fil0"
         id="_121731384-6-3-6-5-3-2" />
      <path
         sodipodi:nodetypes="zsccz"
         style="fill:#d079d4;fill-opacity:1"
         inkscape:connector-curvature="0"
         d="M 0.1777958,2.5586559 C -0.01275712,2.3374532 0.11748395,2.4022267 0.31580842,2.5444209 0.51413288,2.686615 0.81410198,2.8425452 1.1021572,3.1460838 L 0.96046525,3.4267024 C 0.50016423,3.0157207 0.36834871,2.7798588 0.1777958,2.5586559 Z"
         class="fil0"
         id="_121328256-5-8-3-8-7-2" />
      <path
         sodipodi:open="true"
         sodipodi:end="6.1852847"
         sodipodi:start="6.2071318"
         transform="matrix(0.13834256,0,0,0.13834256,0.19919495,1.7915877)"
         d="m 13.844562,12.550547 a 2.6694496,2.6694496 0 0 1 -2.444373,2.863411 2.6694496,2.6694496 0 0 1 -2.8767188,-2.428698 2.6694496,2.6694496 0 0 1 2.4129488,-2.88994 2.6694496,2.6694496 0 0 1 2.903077,2.397129"
         sodipodi:ry="2.6694496"
         sodipodi:rx="2.6694496"
         sodipodi:cy="12.753372"
         sodipodi:cx="11.182829"
         id="path3582-0-3-2-9-5-8"
         style="fill:#d079d4;fill-opacity:1;stroke:none"
         sodipodi:type="arc" />
      <path
         sodipodi:nodetypes="zsccz"
         style="fill:#d079d4;fill-opacity:1;fill-rule:evenodd"
         inkscape:connector-curvature="0"
         d="M 0.4247675,1.3417552 C 0.30865975,1.051719 0.40976238,1.1514637 0.55275704,1.3529974 0.69575091,1.5545312 1.0526419,2.1606454 1.2359221,2.5639276 L 0.96710859,2.750389 C 0.74796061,2.1419236 0.54087506,1.6317917 0.4247675,1.3417552 Z"
         class="fil0"
         id="_121328256-7-3-0-1-2-9-9" />
      <path
         sodipodi:nodetypes="zsccz"
         style="fill:#d079d4;fill-opacity:1;fill-rule:evenodd"
         inkscape:connector-curvature="0"
         d="M 1.44312,0.58246558 C 1.43361,0.2701971 1.521214,0.39282353 1.5594765,0.63695278 1.6013875,0.90435635 1.7053444,1.7413136 1.7506921,2.2817189 l -0.3164814,0.082874 c 0.003,-0.6467199 0.018418,-1.46985881 0.00891,-1.78212732 z"
         class="fil0"
         id="_121328256-7-9-4-6-2-8-2-7" />
      <path
         sodipodi:nodetypes="zsccz"
         style="fill:#d079d4;fill-opacity:1;fill-rule:evenodd"
         inkscape:connector-curvature="0"
         d="M 2.4423509,0.52194906 C 2.5291241,0.19808085 2.5810366,0.32015476 2.5788735,0.5833539 2.5767086,0.84655178 2.4931372,1.8976838 2.1801821,2.4013588 L 1.8869765,2.2775017 c 0.307833,-0.6143974 0.4686,-1.43168421 0.5553744,-1.75555264 z"
         class="fil0"
         id="_121328256-7-4-0-7-9-5-2-3" />
      <path
         sodipodi:nodetypes="zsccz"
         style="fill:#d079d4;fill-opacity:1;fill-rule:evenodd"
         inkscape:connector-curvature="0"
         d="M 3.6839051,1.1452392 C 3.9311577,0.7718015 3.8949861,1.029192 3.7754429,1.2636867 3.5368401,1.7317274 2.9264141,2.4275569 2.4666837,2.7714357 L 2.2400615,2.4692892 C 2.8122122,2.0577751 3.4366526,1.5186768 3.6839051,1.1452392 Z"
         class="fil0"
         id="_121328256-7-4-9-8-3-3-2-8-6" />
      <path
         sodipodi:nodetypes="zsccz"
         style="fill:#d079d4;fill-opacity:1;fill-rule:evenodd"
         inkscape:connector-curvature="0"
         d="m 4.2265513,3.0597007 c 0.4091243,-0.09358 0.2522344,0.074602 0.024419,0.1707759 C 4.0062521,3.3337885 3.127026,3.6011424 2.5719027,3.6165508 l 0.00603,-0.3830989 c 0.653125,-5.32e-4 1.239497,-0.080171 1.6486213,-0.1737512 z"
         class="fil0"
         id="_121328256-7-4-9-1-6-3-4-7-9-1" />
      <path
         sodipodi:nodetypes="zsccz"
         style="fill:#d079d4;fill-opacity:1;fill-rule:evenodd"
         inkscape:connector-curvature="0"
         d="M 3.9700033,4.2976494 C 4.2626923,4.4304234 4.1316091,4.4287597 3.9491295,4.4043056 3.7042093,4.3714838 3.1539385,4.1823832 2.7531868,4.0349335 L 2.8590012,3.7253663 C 3.4161029,4.0174147 3.677314,4.1648752 3.9700033,4.2976494 Z"
         class="fil0"
         id="_121328256-9-3-8-2-9-7-2" />
      <path
         inkscape:transform-center-x="-0.069049672"
         inkscape:transform-center-y="0.95298244"
         sodipodi:nodetypes="zsccz"
         style="fill:#d079d4;fill-opacity:1;fill-rule:evenodd"
         inkscape:connector-curvature="0"
         d="M 4.1962848,2.076334 C 4.5907234,1.8600715 4.4775437,2.0697011 4.2705883,2.2323244 4.0482794,2.4070154 3.2196806,2.935215 2.6523716,3.1218067 L 2.5483179,2.7530525 C 3.2208399,2.5503733 3.801846,2.2925963 4.1962848,2.076334 Z"
         class="fil0"
         id="_121328256-7-4-9-1-7-7-5-0-5-3-9" />
    </g>
    <g
       id="g2994-2-2-6-3"
       transform="matrix(11.464709,0,0,11.464709,99.854585,861.80354)"
       style="fill:#822b86;fill-opacity:1;fill-rule:evenodd">
      <path
         sodipodi:nodetypes="ccccc"
         style="fill:#822b86;fill-opacity:1"
         inkscape:connector-curvature="0"
         d="M 0.67062907,3.1466295 0.96315753,3.436604 C 1.4643536,2.1285285 2.9137173,3.0231678 2.3709066,3.891 L 2.767349,4.0396257 C 3.5316128,2.8534265 1.7399119,1.2088624 0.67062907,3.1466295 Z"
         class="fil0"
         id="_121731384-6-3-1-1" />
      <path
         sodipodi:nodetypes="zsccz"
         style="fill:#822b86;fill-opacity:1"
         inkscape:connector-curvature="0"
         d="M 0.1777958,2.5586559 C -0.01275712,2.3374532 0.11748395,2.4022267 0.31580842,2.5444209 0.51413288,2.686615 0.81410198,2.8425452 1.1021572,3.1460838 L 0.96046525,3.4267024 C 0.50016423,3.0157207 0.36834871,2.7798588 0.1777958,2.5586559 Z"
         class="fil0"
         id="_121328256-5-8-2-9" />
      <path
         sodipodi:open="true"
         sodipodi:end="6.1852847"
         sodipodi:start="6.2071318"
         transform="matrix(0.13834256,0,0,0.13834256,0.19919495,1.7915877)"
         d="m 13.844562,12.550547 a 2.6694496,2.6694496 0 0 1 -2.444373,2.863411 2.6694496,2.6694496 0 0 1 -2.8767188,-2.428698 2.6694496,2.6694496 0 0 1 2.4129488,-2.88994 2.6694496,2.6694496 0 0 1 2.903077,2.397129"
         sodipodi:ry="2.6694496"
         sodipodi:rx="2.6694496"
         sodipodi:cy="12.753372"
         sodipodi:cx="11.182829"
         id="path3582-0-3-9-4"
         style="fill:#822b86;fill-opacity:1;stroke:none"
         sodipodi:type="arc" />
      <path
         sodipodi:nodetypes="zsccz"
         style="fill:#822b86;fill-opacity:1;fill-rule:evenodd"
         inkscape:connector-curvature="0"
         d="M 0.4247675,1.3417552 C 0.30865975,1.051719 0.40976238,1.1514637 0.55275704,1.3529974 0.69575091,1.5545312 1.0526419,2.1606454 1.2359221,2.5639276 L 0.96710859,2.750389 C 0.74796061,2.1419236 0.54087506,1.6317917 0.4247675,1.3417552 Z"
         class="fil0"
         id="_121328256-7-3-0-3-7" />
      <path
         sodipodi:nodetypes="zsccz"
         style="fill:#822b86;fill-opacity:1;fill-rule:evenodd"
         inkscape:connector-curvature="0"
         d="M 1.44312,0.58246558 C 1.43361,0.2701971 1.521214,0.39282353 1.5594765,0.63695278 1.6013875,0.90435635 1.7053444,1.7413136 1.7506921,2.2817189 l -0.3164814,0.082874 c 0.003,-0.6467199 0.018418,-1.46985881 0.00891,-1.78212732 z"
         class="fil0"
         id="_121328256-7-9-4-6-1-8" />
      <path
         sodipodi:nodetypes="zsccz"
         style="fill:#822b86;fill-opacity:1;fill-rule:evenodd"
         inkscape:connector-curvature="0"
         d="M 2.4423509,0.52194906 C 2.5291241,0.19808085 2.5810366,0.32015476 2.5788735,0.5833539 2.5767086,0.84655178 2.4931372,1.8976838 2.1801821,2.4013588 L 1.8869765,2.2775017 c 0.307833,-0.6143974 0.4686,-1.43168421 0.5553744,-1.75555264 z"
         class="fil0"
         id="_121328256-7-4-0-7-94-4" />
      <path
         sodipodi:nodetypes="zsccz"
         style="fill:#822b86;fill-opacity:1;fill-rule:evenodd"
         inkscape:connector-curvature="0"
         d="M 3.6839051,1.1452392 C 3.9311577,0.7718015 3.8949861,1.029192 3.7754429,1.2636867 3.5368401,1.7317274 2.9264141,2.4275569 2.4666837,2.7714357 L 2.2400615,2.4692892 C 2.8122122,2.0577751 3.4366526,1.5186768 3.6839051,1.1452392 Z"
         class="fil0"
         id="_121328256-7-4-9-8-3-7-5" />
      <path
         sodipodi:nodetypes="zsccz"
         style="fill:#822b86;fill-opacity:1;fill-rule:evenodd"
         inkscape:connector-curvature="0"
         d="m 4.2265513,3.0597007 c 0.4091243,-0.09358 0.2522344,0.074602 0.024419,0.1707759 C 4.0062521,3.3337885 3.127026,3.6011424 2.5719027,3.6165508 l 0.00603,-0.3830989 c 0.653125,-5.32e-4 1.239497,-0.080171 1.6486213,-0.1737512 z"
         class="fil0"
         id="_121328256-7-4-9-1-6-3-8-0" />
      <path
         sodipodi:nodetypes="zsccz"
         style="fill:#822b86;fill-opacity:1;fill-rule:evenodd"
         inkscape:connector-curvature="0"
         d="M 3.9700033,4.2976494 C 4.2626923,4.4304234 4.1316091,4.4287597 3.9491295,4.4043056 3.7042093,4.3714838 3.1539385,4.1823832 2.7531868,4.0349335 L 2.8590012,3.7253663 C 3.4161029,4.0174147 3.677314,4.1648752 3.9700033,4.2976494 Z"
         class="fil0"
         id="_121328256-9-3-8-4-3" />
      <path
         inkscape:transform-center-x="-0.069049672"
         inkscape:transform-center-y="0.95298244"
         sodipodi:nodetypes="zsccz"
         style="fill:#822b86;fill-opacity:1;fill-rule:evenodd"
         inkscape:connector-curvature="0"
         d="M 4.1962848,2.076334 C 4.5907234,1.8600715 4.4775437,2.0697011 4.2705883,2.2323244 4.0482794,2.4070154 3.2196806,2.935215 2.6523716,3.1218067 L 2.5483179,2.7530525 C 3.2208399,2.5503733 3.801846,2.2925963 4.1962848,2.076334 Z"
         class="fil0"
         id="_121328256-7-4-9-1-7-7-5-5-6" />
    </g>
  </g>
</svg>
