<?xml version="1.0" encoding="UTF-8" standalone="no"?>
<!-- Created with Inkscape (http://www.inkscape.org/) -->

<svg
   xmlns:dc="http://purl.org/dc/elements/1.1/"
   xmlns:cc="http://creativecommons.org/ns#"
   xmlns:rdf="http://www.w3.org/1999/02/22-rdf-syntax-ns#"
   xmlns:svg="http://www.w3.org/2000/svg"
   xmlns="http://www.w3.org/2000/svg"
   xmlns:sodipodi="http://sodipodi.sourceforge.net/DTD/sodipodi-0.dtd"
   xmlns:inkscape="http://www.inkscape.org/namespaces/inkscape"
   width="256"
   height="256"
   id="svg5266"
   version="1.1"
   inkscape:version="0.48.3.1 r9886"
   sodipodi:docname="scanner.svg">
  <defs
     id="defs5268">
    <inkscape:path-effect
       effect="skeletal"
       id="path-effect5141"
       is_visible="true"
       pattern="M 0,5 C 0,2.24 2.24,0 5,0 7.76,0 10,2.24 10,5 10,7.76 7.76,10 5,10 2.24,10 0,7.76 0,5 z"
       copytype="single_stretched"
       prop_scale="1"
       scale_y_rel="false"
       spacing="0"
       normal_offset="0"
       tang_offset="0"
       prop_units="false"
       vertical_pattern="false"
       fuse_tolerance="0" />
  </defs>
  <sodipodi:namedview
     id="base"
     pagecolor="#ffffff"
     bordercolor="#666666"
     borderopacity="1.0"
     inkscape:pageopacity="0.0"
     inkscape:pageshadow="2"
     inkscape:zoom="1.0521419"
     inkscape:cx="250.31298"
     inkscape:cy="24.284095"
     inkscape:document-units="px"
     inkscape:current-layer="layer1"
     showgrid="false"
     inkscape:window-width="1438"
     inkscape:window-height="827"
     inkscape:window-x="0"
     inkscape:window-y="25"
     inkscape:window-maximized="1" />
  <metadata
     id="metadata5271">
    <rdf:RDF>
      <cc:Work
         rdf:about="">
        <dc:format>image/svg+xml</dc:format>
        <dc:type
           rdf:resource="http://purl.org/dc/dcmitype/StillImage" />
        <dc:title />
      </cc:Work>
    </rdf:RDF>
  </metadata>
  <g
     inkscape:label="Capa 1"
     inkscape:groupmode="layer"
     id="layer1"
     transform="translate(0,-796.36218)">
    <g
       transform="matrix(0.19521524,0,0,0.19521524,9529.8686,-1132.4721)"
       style="fill-rule:evenodd"
       id="g5222">
      <path
         sodipodi:nodetypes="cccccccccc"
         inkscape:connector-curvature="0"
         id="path21955"
         d="m -48173.649,10455.179 -515.578,-508.4171 m 7.16,0 744.725,-7.1609 214.825,544.221 -451.132,-28.643 -451.131,458.292 759.047,143.216 136.054,-580.025 -443.97,-21.483"
         style="fill:#00923f;fill-opacity:1;stroke:#737373;stroke-width:21.74934578;stroke-linecap:butt;stroke-linejoin:miter;stroke-miterlimit:4;stroke-opacity:1;stroke-dasharray:none" />
      <path
         sodipodi:nodetypes="cccccccc"
         inkscape:connector-curvature="0"
         id="path21965"
         d="m -48617.619,11042.366 773.368,128.894 -14.322,-128.894 121.734,-572.865 28.642,186.181 -128.894,515.578 m -780.528,-128.894 -7.161,-121.733 766.207,128.893 21.482,121.734"
         style="fill:#00923f;fill-opacity:1;stroke:#737373;stroke-width:21.74934578;stroke-linecap:butt;stroke-linejoin:miter;stroke-miterlimit:4;stroke-opacity:1;stroke-dasharray:none" />
      <path
         inkscape:connector-curvature="0"
         id="path22008"
         d="m -47965.985,10963.597 7.161,0"
         style="fill:none;stroke:#000000;stroke-width:0.72497821px;stroke-linecap:butt;stroke-linejoin:miter;stroke-opacity:1" />
      <path
         inkscape:connector-curvature="0"
         id="path22018"
         d="m -48143.768,10512.102 -337.795,371.151 m 0,0 562.993,94.946 96.512,-431.572 -321.71,-34.525"
         style="fill:#b8db7c;fill-opacity:1;stroke:none" />
      <rect
         inkscape:transform-center-y="34.261923"
         inkscape:transform-center-x="-50.125843"
         transform="matrix(0.98623637,0.16534156,-0.16534156,0.98623637,0,0)"
         ry="36.959808"
         rx="26.894033"
         y="18856.504"
         x="-45642.211"
         height="36.959808"
         width="186.56584"
         id="rect22022"
         style="fill:#b8db7c;fill-opacity:1;stroke:#737373;stroke-width:9.03062057;stroke-linecap:round;stroke-linejoin:bevel;stroke-miterlimit:4;stroke-opacity:1;stroke-dasharray:none;stroke-dashoffset:0" />
      <path
         sodipodi:nodetypes="ssscccccccccccsscs"
         inkscape:connector-curvature="0"
         id="path22052"
         d="m -48170.883,10461.969 c 0.04,-0.499 8.309,-0.376 23.266,0.313 14.957,0.69 36.599,1.947 63.348,3.685 26.75,1.738 58.608,3.956 93.972,6.535 35.365,2.579 74.236,5.518 114.989,8.667 39.872,3.091 77.749,6.065 114.017,8.937 9.932,0.182 13.007,9.169 12.388,19.414 -7.439,34.919 -14.036,57.108 -19.377,80.741 -6.246,27.634 -10.773,54.274 -12.757,60.72 0.378,1.523 -55.444,231.431 -55.598,231.482 -0.154,0.05 25.689,-177.97 33.079,-205.9 0.827,-6.371 13.08,-48.887 18.87,-76.115 4.706,-22.124 0.483,-18.708 4.928,-49.442 -7.952,-46.24 -85.665,-55.049 -99.964,-56.16 -40.439,-2.728 -80.514,-0.203 -115.532,-2.718 -35.017,-2.515 -66.389,-16.534 -92.886,-18.65 -26.496,-2.117 -44.922,-7.009 -59.75,-8.475 -14.828,-1.466 -23.029,-2.536 -22.993,-3.034 z"
         style="fill:#000000;stroke:none" />
      <path
         sodipodi:nodetypes="cccccccccsc"
         inkscape:connector-curvature="0"
         id="path22052-9"
         d="m -48219.991,10393.348 c -118.632,-119.54 -311.732,-282.974 -437.017,-422.5609 -11.821,-11.3225 -13.271,-17.9717 16.025,-16.5409 35.693,-0.8356 58.806,0.4531 83.033,0.1853 28.33,-0.3122 55.295,-2.0678 62.025,-1.6269 1.395,-0.7195 404.679,-1.7292 404.765,-1.5913 0.09,0.1378 -357.458,16.7458 -386.34,16.0137 -6.39,0.6685 -38.916,0.1486 -66.745,0.8105 -41.178,-1.07 -65.226,21.4157 -51.696,38.8375 47.195,54.079 117.826,94.241 183.94,158.274 79.976,77.456 148.734,172.91 192.01,228.199 z"
         style="fill:#000000;fill-rule:evenodd;stroke:none" />
      <path
         sodipodi:nodetypes="cssc"
         inkscape:connector-curvature="0"
         inkscape:original-d="m -48025.937,11101.082 c 0,0 -73.136,-11.867 -95.206,-17.869 -7.725,-2.101 -9.38,-24.157 5.46,-23.389 35.034,1.811 134.322,20.493 134.322,20.493"
         inkscape:path-effect="#path-effect5141"
         id="path5139"
         d="m -48025.937,11101.082 c -0,0.02 -0.01,0.05 -0.03,0.07 -0.01,0.02 -0.03,0.04 -0.05,0.06 0,0 0,0 0,0 -0.04,0.04 -0.104,0.08 -0.182,0.114 0,0 0,0 0,0 0,0 0,0 0,0 -0.154,0.07 -0.376,0.128 -0.664,0.175 0,0 0,0 0,0 0,0 0,0 0,0 -0.566,0.09 -1.388,0.138 -2.45,0.141 0,0 0,0 0,0 -2.054,0 -5.007,-0.153 -8.756,-0.468 0,0 0,0 0,0 -6.836,-0.574 -16.322,-1.664 -27.833,-3.263 0,0 0,0 0,0 -9.399,-1.306 -20.158,-2.937 -31.921,-5.013 0,0 0,0 0,0 0,0 0,0 0,0 0,0 0,0 0,0 -4.485,-0.791 -9.126,-1.65 -13.898,-2.623 0,0 0,0 0,0 -3.458,-0.704 -7.032,-1.466 -10.688,-2.419 0,0 0,0 0,0 -4.178,-1.535 -6.763,-4.449 -7.713,-7.371 0,0 0,0 0,0 0,0 0,0 0,0 0,0 0,0 0,0 -1.432,-3.332 -1.979,-6.939 -1.677,-10.459 0,0 0,0 0,0 0.184,-3.521 1.471,-7.285 4.23,-10.52 0,0 0,0 0,0 3.392,-3.449 7.861,-4.993 12.142,-4.679 1.149,0.06 2.298,0.13 3.446,0.211 4.325,0.307 8.553,0.753 12.681,1.235 6.884,0.8 13.578,1.736 20.052,2.711 16.355,2.464 31.396,5.192 44.535,7.766 32.588,6.694 53.628,11.918 53.35,13.56 0,0 0,0 0,0 0,0 0,0 0,0 0,0 0,0 0,0 0,0 0,0 0,0 0,0 0,0 0,0 0,0 0,0 0,0 0,0 0,0 0,0 0,0 0,0 0,0 0,0 0,0 0,0 0,0 0,0 0,0 0,0 0,0 0,0 0,0 0,0 0,0 0,0 0,0 0,0 0,0 0,0 0,0 0,0 0,0 0,0 0,0 0,0 0,0 0,0 0,0 0,0 0,0 0,0 0,0 0,0 0,0 0,0 0,0 0,0 0,0 0,0 0,0 0,0 0,0 0,0 0,0 0,0 0,0 0,0 0,0 0,0 0,0 -0.321,1.634 -21.878,-0.685 -54.726,-5.58 -13.219,-1.846 -28.262,-4.02 -44.512,-6.15 -6.439,-0.845 -13.056,-1.681 -19.814,-2.418 -4.073,-0.443 -8.166,-0.863 -12.273,-1.154 -1.09,-0.08 -2.175,-0.145 -3.255,-0.201 -1.799,0 -3.629,0.415 -4.258,1.391 0,0 0,0 0,0 -0.997,0.898 -1.481,2.709 -1.754,4.648 0,0 0,0 0,0 -0.164,2.049 0.08,4.091 0.801,5.784 0,0 0,0 0,0 0.826,1.212 1.195,2.304 1.273,1.926 0,0 0,0 0,0 3.365,0.957 6.77,1.769 10.161,2.562 0,0 0,0 0,0 4.647,1.085 9.196,2.084 13.613,3.042 0,0 0,0 0,0 0,0 0,0 0,0 0,0 0,0 0,0 11.583,2.51 22.192,4.717 31.449,6.707 0,0 0,0 0,0 11.332,2.436 20.633,4.524 27.275,6.208 0,0 0,0 0,0 3.643,0.923 6.486,1.724 8.428,2.387 0,0 0,0 0,0 1.004,0.343 1.767,0.649 2.275,0.916 0,0 0,0 0,0 0,0 0,0 0,0 0.258,0.136 0.45,0.261 0.574,0.376 0,0 0,0 0,0 0,0 0,0 0,0 0.06,0.06 0.108,0.114 0.136,0.166 0,0 0,0 0,0 0.01,0.03 0.02,0.05 0.03,0.08 0,0.02 0,0.05 0,0.08 z"
         style="fill:#000000;fill-rule:evenodd;stroke:none" />
      <path
         sodipodi:nodetypes="cccccsccccc"
         inkscape:connector-curvature="0"
         id="path22052-4"
         d="m -48478.051,10903.259 c -8.644,-4.895 -7.064,-14.261 -1.636,-22.971 23.185,-27.151 39.561,-43.512 55.522,-61.742 18.663,-21.315 35.341,-42.576 40.159,-47.297 0.393,-1.519 154.828,-166.872 154.988,-166.844 0.09,0.01 -20.535,37.46 -54.904,80.153 -27.162,33.741 -68.305,73.3 -77.05,82.584 -3.765,5.206 -25.847,29.094 -43.915,50.269 -14.683,17.207 -9.342,16.216 -27.9,41.115 -37.922,41.553 152.767,20.365 253.032,77.765 -141.227,-23.534 -218.914,-36.595 -298.296,-33.032 z"
         style="fill:#000000;fill-rule:evenodd;stroke:none" />
      <g
         transform="matrix(0.7249782,0,0,0.7249782,-13393.59,2730.6161)"
         id="g5216">
        <path
           style="fill:#000000;fill-opacity:1;fill-rule:evenodd;stroke:none"
           d="m -47895.163,11123.803 c -3.7,18.107 -20.638,36.061 -38.745,32.361 -18.108,-3.698 -29.788,-21.376 -26.089,-39.483 3.7,-18.108 21.769,-31.351 39.485,-26.089 9.742,2.899 24.625,14.359 25.155,32.738"
           id="path3582-0-2"
           inkscape:connector-curvature="0"
           sodipodi:nodetypes="csssc" />
        <path
           inkscape:connector-curvature="0"
           style="fill:#000000;fill-opacity:1;fill-rule:evenodd"
           d="m -47779.916,10867.124 c -2.003,-0.497 -6.077,3.741 -12.66,14.739 -15.408,25.741 -49.048,91.61 -90.404,137.45 -4.241,-1.407 -8.643,-2.487 -13.183,-3.235 9.396,-48.282 18.831,-123.708 21.779,-147.726 2.727,-22.225 0.151,-33.476 -6.774,-6.028 -6.877,27.251 -28.39,97.755 -44.67,153.846 -7.654,1.236 -15.571,3.415 -23.707,6.639 -6.65,-39.601 -21.316,-95.546 -28.344,-115.447 -7.458,-21.113 -13.79,-32.313 -10.874,-4.155 2.878,27.781 8.153,76.436 12.125,133.883 -5.187,3.41 -12.758,3.075 -18.057,7.37 -13.084,-18.023 -22.1,-31.19 -31.46,-42.976 -13.752,-17.316 -25.459,-22.371 -14.346,1.636 10.359,22.38 15.953,44.607 40.891,85.787 l 2.212,11.041 c 1.717,-2.29 7.959,-6.354 12.977,-12.665 73.056,-78.597 155.1,28.849 93.52,81.401 l 38.201,26.992 -0.02,0.04 c 31.264,22.801 72.581,55.022 93.109,63.963 15.294,6.662 28.619,7.984 6.408,-10.855 -21.6,-18.322 -43.672,-40.516 -82.677,-77.679 2.888,-4.467 3.04,-7.35 5.133,-12.061 46.963,5.84 109.474,6.052 128.532,3.718 22.24,-2.725 40.083,-13.482 2.107,-15.486 -30.925,-1.631 -75.684,-8.96 -120.562,-19.624 0.62,-5.987 -0.09,-12.224 -0.463,-18.183 52.766,-6.565 122.989,-22.157 143.636,-30.607 22.071,-9.03 38.916,-27.086 -0.826,-18.034 -36.596,8.335 -87.852,15.815 -145.426,17.698 -1.067,-2.775 -2.409,-5.24 -3.688,-7.911 46.507,-21.602 104.236,-60.532 132.617,-91.057 16.241,-17.466 25.779,-38.996 -5.039,-12.592 -28.829,24.697 -90.015,53.828 -146.969,75.213 -3.015,-3.087 -3.9,-3.24 -7.292,-5.885 37.255,-38.992 62.382,-128.343 68.783,-150.134 3.892,-13.227 8.163,-18.398 5.424,-19.077 z"
           id="_121731384-7-7"
           sodipodi:nodetypes="cscccscccsccsscccccccccccscccscccsccccc" />
        <path
           style="fill:#00923f;fill-opacity:1;fill-rule:evenodd;stroke:#737373;stroke-width:3.44381857;stroke-miterlimit:4;stroke-opacity:1;stroke-dasharray:none"
           d="m -47784.765,10863.067 c -2.003,-0.497 -6.077,3.742 -12.661,14.739 -15.406,25.741 -49.047,91.611 -90.403,137.451 -4.242,-1.407 -14.046,-0.686 -18.587,-1.434 9.397,-48.282 26.252,-123.901 29.199,-147.919 2.728,-22.225 -1.865,-35.085 -8.79,-7.636 -6.876,27.251 -28.389,97.755 -44.669,153.846 -7.656,1.234 -19.174,7.017 -27.31,10.241 -6.65,-39.601 -17.714,-99.148 -24.742,-119.049 -7.457,-21.113 -13.79,-32.314 -10.874,-4.156 2.878,27.781 8.153,76.437 12.125,133.883 -5.187,3.411 -17.641,14.451 -22.941,18.744 -13.082,-18.022 -19.183,-38.737 -28.544,-50.523 -13.751,-17.316 -23.492,-26.198 -12.378,-2.19 10.359,22.38 15.953,44.607 40.89,85.786 l 5.75,10.222 c 1.717,-2.291 3.449,-4.47 5.193,-6.544 l 8.285,-8.987 c 74.158,-72.983 171.785,18.928 106.922,77.477 l 20.761,34.601 -0.02,0.04 c 31.264,22.801 74.518,52.943 95.047,61.884 15.295,6.662 26.68,10.063 4.47,-8.775 -21.601,-18.323 -40.325,-37.175 -79.329,-74.336 2.888,-4.468 5.371,-9.074 7.464,-13.787 46.963,5.841 103.795,0.833 122.852,-1.501 22.24,-2.725 40.084,-9.88 2.107,-11.884 -30.925,-1.631 -71.859,-6.992 -116.736,-17.657 0.62,-5.988 0.725,-11.993 0.348,-17.951 52.766,-6.565 116.524,-26.953 137.17,-35.401 22.072,-9.03 40.746,-24.492 1.002,-15.44 -36.595,8.336 -87.851,15.815 -145.424,17.699 -1.068,-2.776 -2.24,-5.505 -3.519,-8.175 48.979,-31.485 106.399,-69.594 132.447,-90.793 16.241,-17.467 25.779,-38.997 -5.04,-12.593 -28.827,24.697 -90.013,53.829 -146.968,75.213 -3.014,-3.087 -6.223,-5.968 -9.615,-8.614 16.965,-21.764 67.837,-120.551 74.239,-143.003 3.892,-13.227 5.031,-22.799 2.287,-23.48 z"
           id="_121731384-6"
           inkscape:connector-curvature="0"
           sodipodi:nodetypes="ccccccccccccccccccccccccccccccccccsccccc" />
        <path
           sodipodi:type="arc"
           style="fill:#00923f;fill-opacity:1;fill-rule:evenodd;stroke:none"
           id="path3582-04"
           sodipodi:cx="11.182829"
           sodipodi:cy="12.753372"
           sodipodi:rx="2.6694496"
           sodipodi:ry="2.6694496"
           d="m 13.844562,12.550547 c 0.112017,1.470034 -0.988873,2.752541 -2.458908,2.864558 -1.4700343,0.112018 -2.7525408,-0.988873 -2.8645582,-2.458907 -0.1120173,-1.470035 0.9888732,-2.752542 2.4589082,-2.864559 1.447376,-0.1102906 2.717609,0.956188 2.859492,2.40081"
           transform="matrix(12.055862,3.435109,-3.435109,12.055862,-48024.431,10932.749)"
           sodipodi:start="6.2071318"
           sodipodi:end="12.46847"
           sodipodi:open="true" />
      </g>
      <path
         sodipodi:nodetypes="ccsccc"
         inkscape:connector-curvature="0"
         id="path22052-4-7"
         d="m -47863.825,11163.787 c 16.497,-26.443 3.061,-48.886 5.344,-59.296 -8.319,-40.42 -3.351,-56.554 -9.498,-47.53 -3.969,5.827 0.961,49.77 -20.376,65.58 -24.723,49.743 -519.353,-91.113 -628.135,-74.148 145.295,18.049 575.378,102.749 652.665,115.394 z"
         style="fill:#000000;fill-rule:evenodd;stroke:none" />
    </g>
  </g>
</svg>
