<?xml version="1.0" encoding="UTF-8" standalone="no"?>
<svg
   xmlns:dc="http://purl.org/dc/elements/1.1/"
   xmlns:cc="http://creativecommons.org/ns#"
   xmlns:rdf="http://www.w3.org/1999/02/22-rdf-syntax-ns#"
   xmlns:svg="http://www.w3.org/2000/svg"
   xmlns="http://www.w3.org/2000/svg"
   xmlns:sodipodi="http://sodipodi.sourceforge.net/DTD/sodipodi-0.dtd"
   xmlns:inkscape="http://www.inkscape.org/namespaces/inkscape"
   xml:space="preserve"
   width="300px"
   height="300px"
   style="shape-rendering:geometricPrecision; text-rendering:geometricPrecision; image-rendering:optimizeQuality; fill-rule:evenodd; clip-rule:evenodd"
   viewBox="0 0 300 300"
   id="svg20264"
   version="1.1"
   inkscape:version="0.48.3.1 r9886"
   sodipodi:docname="document-open-recent.svg"><metadata
   id="metadata20315"><rdf:RDF><cc:Work
       rdf:about=""><dc:format>image/svg+xml</dc:format><dc:type
         rdf:resource="http://purl.org/dc/dcmitype/StillImage" /></cc:Work></rdf:RDF></metadata><sodipodi:namedview
   pagecolor="#ffffff"
   bordercolor="#666666"
   borderopacity="1"
   objecttolerance="10"
   gridtolerance="10"
   guidetolerance="10"
   inkscape:pageopacity="0"
   inkscape:pageshadow="2"
   inkscape:window-width="1918"
   inkscape:window-height="1032"
   id="namedview20313"
   showgrid="false"
   inkscape:zoom="1.5733333"
   inkscape:cx="110.41896"
   inkscape:cy="114.04542"
   inkscape:window-x="0"
   inkscape:window-y="25"
   inkscape:window-maximized="1"
   inkscape:current-layer="svg20264" />
 <defs
   id="defs20266"><style
     type="text/css"
     id="style20268">
   
    .str3 {stroke:#1F1A17;stroke-width:1.05469}
    .str1 {stroke:#72706F;stroke-width:2.44157}
    .str2 {stroke:#1F1A17;stroke-width:2.76822}
    .str0 {stroke:#72706F;stroke-width:4.15233}
    .fil3 {fill:none}
    .fil1 {fill:#00923F}
    .fil2 {fill:#1F1A17}
    .fil0 {fill:#B8DB7C}
   
  </style></defs>
 <circle
   id="_67621792"
   class="fil0 str0"
   transform="matrix(2.02973,-0.0317031,0.0317031,2.02973,150.419,152.632)"
   r="57.894501"
   cx="0"
   cy="0"
   sodipodi:cx="0"
   sodipodi:cy="0"
   sodipodi:rx="57.894501"
   sodipodi:ry="57.894501"
   style="fill:#614868;stroke:#614868;stroke-width:4.15232991999999967;fill-opacity:1;stroke-opacity:1" /><path
   id="_67679224"
   class="fil3"
   d="m 134.836,127.195 c 5.52675,1.97374 11.4493,0.39447 16.9761,2.36821 5.52675,1.97374 4.34195,6.31707 6.31707,10.2645 1.97374,3.15854 10.2645,8.68528 12.2383,8.68528 1.1848,0 26.8462,6.71154 18.1609,7.89634 2.76268,5.52675 8.29081,4.7378 3.55301,13.0286 -2.76406,4.34195 -4.34333,6.31569 -4.34333,12.6328 0,3.15854 2.76406,6.31707 0,9.08114 -3.55301,3.55301 -10.2645,5.92122 -12.6328,10.659 -2.76406,6.71154 -7.50187,13.8176 -11.0549,20.5291"
   inkscape:connector-curvature="0"
   style="fill:none" /><path
   id="_67725168"
   class="fil3"
   d="m 136.643,192.257 c 0,6.79597 0.84984,14.4432 0.42492,21.6641 -0.84984,8.92058 -2.97307,19.1159 -2.12461,28.4628 0.42492,2.97307 4.67413,8.07074 4.67413,9.77042 0,5.52259 0,8.92058 5.09767,12.7435"
   inkscape:connector-curvature="0"
   style="fill:none" /><path
   id="_67899296"
   class="fil3"
   d="m 82.2285,91.4439 c 0.656067,2.18828 3.60837,2.91909 5.24854,3.64851 1.64017,0.364021 3.28172,2.18828 3.28172,3.64713 0,2.91909 -0.657452,5.83679 -0.657452,8.75587 0,0 0.985485,3.64713 0.985485,3.64713 0.656067,1.82426 2.62427,1.82426 3.9364,1.09483"
   inkscape:connector-curvature="0"
   style="fill:none" /><path
   id="_65375008"
   class="fil3"
   d="m 101.429,124.52 c 1.86993,0.70036 4.98556,2.44849 5.60841,4.5468 0.31142,1.05054 0.93427,4.89698 1.55712,5.59734 0.62423,0.69897 3.42705,2.09831 4.36271,2.09831 1.55712,0 5.2956,0.69897 5.91983,2.44849 1.55712,2.79867 -1.86993,7.69564 -3.11563,10.4929"
   inkscape:connector-curvature="0"
   style="fill:none" /><path
   id="_67551712"
   class="fil3"
   d="m 114.783,182.974 c -1.32321,0.33772 -14.1442,-1.15019 -17.0204,-2.30177 -3.24158,5.69284 -10.6216,20.8502 -9.98773,33.1328 0.793094,15.3359 13.1255,34.4864 25.4455,38.1377"
   inkscape:connector-curvature="0"
   style="fill:none" /><path
   id="_68172392"
   class="fil1 str1"
   d="m 69.646857,147.39459 -22.63841,-35.18912 17.71801,6.61192 C 63.744707,35.08594 139.66544,64.961613 156.42767,66.95019 152.91049,59.96801 72.925147,64.231678 82.258697,124.17956 l 18.917033,6.6198 -31.528953,16.59533 z"
   inkscape:connector-curvature="0"
   style="fill:#4b7744;stroke:#4b7744;stroke-width:2.44157004000000022;fill-opacity:1;stroke-opacity:1" /><path
   id="_67360576"
   class="fil3"
   d="m 191.677,126.308 c 1.1848,-0.0623 11.8203,3.97239 14.0639,5.67346 3.75647,-4.89144 12.6992,-18.1637 14.3214,-30.2525 2.02633,-15.0951 -5.0866,-36.2318 -14.9179,-42.2707"
   inkscape:connector-curvature="0"
   style="fill:none" /><path
   id="_67777080"
   class="fil3"
   d="m 200.769,158.779 c 2.99521,-0.53288 7.21536,-4.32534 10.3407,-5.35927 7.75101,-2.56337 21.6904,-10.2604 30.8629,-10.5787 l -21.0966,-5.15027"
   inkscape:connector-curvature="0"
   style="fill:none" /><g
   style="font-size:40px;font-style:normal;font-weight:normal;line-height:125%;letter-spacing:0px;word-spacing:0px;fill:#4b7744;fill-opacity:1;stroke:none;font-family:Sans"
   id="text3911"
   transform="matrix(0.44959537,0,0,0.44959537,249.80986,-64.635373)"><path
     d="m -236.82815,259.96781 c -1e-5,-1.09331 -0.45334,-2.07998 -1.36,-2.96 -0.90667,-0.90664 -1.89334,-1.35997 -2.96,-1.36 l -4.32,0 c -1.09333,3e-5 -2.09333,-0.08 -3,-0.24 -0.88,-0.18664 -1.32,-0.82664 -1.32,-1.92 0,-1.03997 0.44,-1.66664 1.32,-1.88 0.85333,-0.18664 1.85333,-0.27997 3,-0.28 1.62666,3e-5 2.74666,-0.43997 3.36,-1.32 0.61333,-0.9333 1.18666,-1.91997 1.72,-2.96 0.55999,-1.06663 1.35999,-2.06663 2.4,-3 1.06666,-0.90663 2.89332,-1.35996 5.48,-1.36 1.09332,4e-5 2.07998,0.45337 2.96,1.36 0.90665,0.9067 1.35998,1.89337 1.36,2.96 l 0,30.24 c -2e-5,1.09334 -0.45335,2.09334 -1.36,3 -0.88002,0.88 -1.86668,1.32 -2.96,1.32 -1.09335,0 -2.09335,-0.44 -3,-1.32 -0.88001,-0.90666 -1.32001,-1.90666 -1.32,-3 l 0,-17.28"
     style="font-variant:normal;font-stretch:normal;font-family:TRAGIC BRK;-inkscape-font-specification:TRAGIC BRK;fill:#4b7744;fill-opacity:1"
     id="path3928"
     inkscape:connector-curvature="0" /><path
     d="m -227.05377,277.24781 c 0,-1.43999 1.26666,-3.82666 3.8,-7.16 1.27999,-1.67999 2.53333,-3.35999 3.76,-5.04 1.22666,-1.67998 2.45332,-3.37331 3.68,-5.08 2.42665,-3.38664 4.10665,-6.39997 5.04,-9.04 0.95998,-2.6133 -0.14668,-3.91997 -3.32,-3.92 -1.09335,3e-5 -2.09335,0.45337 -3,1.36 -0.88001,0.93337 -1.32001,1.92003 -1.32,2.96 -1e-5,1.09336 -0.45334,2.09336 -1.36,3 -0.93334,0.88003 -1.92001,1.32003 -2.96,1.32 -1.09334,3e-5 -2.09334,-0.43997 -3,-1.32 -0.88,-0.90664 -1.32,-1.90664 -1.32,-3 0,-2.15997 0.89333,-4.1333 2.68,-5.92 1.81333,-1.8133 3.79999,-2.71996 5.96,-2.72 l 8.64,0 c 2.13331,4e-5 4.10664,0.9067 5.92,2.72 1.81331,1.81337 2.71997,3.7867 2.72,5.92 -3e-5,1.81336 -0.78669,3.34669 -2.36,4.6 -0.77336,0.61336 -1.60002,1.25336 -2.48,1.92 -0.88002,0.66669 -1.78669,1.38669 -2.72,2.16 -1.92002,1.54669 -3.65335,3.45335 -5.2,5.72 -1.57335,2.29335 -2.36001,5.41334 -2.36,9.36 -1e-5,1.09334 0.43999,1.73334 1.32,1.92 0.90665,0.16 1.90665,0.24 3,0.24 l 6.48,0 c 1.14664,0 2.13331,0.0933 2.96,0.28 0.90664,0.18667 1.35997,0.81334 1.36,1.88 -3e-5,1.09333 -0.45336,1.73333 -1.36,1.92 -0.88003,0.16 -1.86669,0.24 -2.96,0.24 l -17.28,0 c -1.09334,0 -2.09334,-0.44 -3,-1.32 -0.88,-0.90666 -1.32,-1.90666 -1.32,-3"
     style="font-variant:normal;font-stretch:normal;font-family:TRAGIC BRK;-inkscape-font-specification:TRAGIC BRK;fill:#4b7744;fill-opacity:1"
     id="path3930"
     inkscape:connector-curvature="0" /></g><path
   id="_4587152"
   class="fil3"
   d="m 204.103,49.2784 c -88.7795,-52.448 -189.89,44.2679 -169.11,134.872 9.58218,41.7918 44.4133,70.2601 89.2307,82.1413 43.0195,11.4051 90.4335,-7.35792 104.675,-28.5846"
   inkscape:connector-curvature="0"
   style="fill:none" /><path
   id="_67700432"
   class="fil3"
   d="m 95.6405,154.242 c -2.86234,1.03255 -6.38212,5.48245 -9.28737,7.0285 -7.20705,3.83536 -19.6474,13.7746 -28.6344,15.6363 l 21.6641,1.5156"
   inkscape:connector-curvature="0"
   style="fill:none" />
<g
   inkscape:label="status"
   transform="matrix(6.4960329,0.10542871,-0.10542871,6.4960329,-936.74755,-3952.3965)"
   id="layer9"
   style="fill:#b8db7d;fill-opacity:1;display:inline" /><g
   style="fill:#b8db7d;fill-opacity:1"
   inkscape:label="devices"
   transform="matrix(6.4960329,0.10542871,-0.10542871,6.4960329,-936.74755,-3952.3965)"
   id="layer10" /><g
   style="fill:#b8db7d;fill-opacity:1"
   inkscape:label="apps"
   transform="matrix(6.4960329,0.10542871,-0.10542871,6.4960329,-936.74755,-3952.3965)"
   id="layer11" /><path
   style="color:#bebebe;fill:#614868;fill-opacity:1;fill-rule:nonzero;stroke:#4b7744;stroke-width:2.50000000000000000;stroke-miterlimit:4;stroke-dasharray:none;marker:none;visibility:visible;display:inline;overflow:visible;enable-background:accumulate;stroke-opacity:1"
   d="m 156.87859,150.59434 -0.0346,2.13406 c -0.0983,6.05697 7.42445,5.55095 16.75618,5.7024 l 18.06971,0.29326 18.74388,-0.37458 c 9.33138,-0.18651 17.07685,-1.59939 16.25823,-4.48779 l -0.87837,-3.0992 c -0.81863,-2.88842 -6.51144,-3.33197 -15.84318,-3.48343 0,0 -11.80396,-0.59157 -17.71148,-0.65149 -6.15124,-0.0624 -18.45216,0.30414 -18.45216,0.30414 -9.31394,0.61754 -16.85936,0.65497 -16.90817,3.66263 z"
   id="rect4317-8-6"
   inkscape:connector-curvature="0"
   sodipodi:nodetypes="ssscssssass" /><g
   style="fill:#b8db7d;fill-opacity:1"
   inkscape:label="places"
   transform="matrix(6.4960329,0.10542871,-0.10542871,6.4960329,-936.74755,-3952.3965)"
   id="layer13" /><g
   style="fill:#b8db7d;fill-opacity:1"
   inkscape:label="mimetypes"
   transform="matrix(6.4960329,0.10542871,-0.10542871,6.4960329,-936.74755,-3952.3965)"
   id="layer14" /><g
   inkscape:label="emblems"
   transform="matrix(6.4960329,0.10542871,-0.10542871,6.4960329,-936.74755,-3952.3965)"
   id="layer15"
   style="fill:#b8db7d;fill-opacity:1;display:inline" /><g
   inkscape:label="categories"
   transform="matrix(6.4960329,0.10542871,-0.10542871,6.4960329,-936.74755,-3952.3965)"
   id="g4953"
   style="fill:#b8db7d;fill-opacity:1;display:inline" /><path
   sodipodi:nodetypes="ssscssssass"
   inkscape:connector-curvature="0"
   id="path3905"
   d="m 147.66698,144.16234 2.13406,0.0464 c 6.05697,0.13178 5.55095,-9.95319 5.7024,-22.46328 l 0.29326,-24.224185 -0.37458,-25.12798 C 155.23561,59.88366 153.82273,49.50011 150.93433,50.597549 l -3.0992,1.17754 c -2.88842,1.097453 -3.33197,8.729214 -3.48343,21.239311 0,0 -0.59157,15.824348 -0.65149,23.743948 -0.0624,8.246332 0.30414,24.736902 0.30414,24.736902 0.61754,12.48623 0.65497,22.6016 3.66263,22.66703 z"
   style="color:#bebebe;fill:#614868;fill-opacity:1;fill-rule:nonzero;stroke:#4b7744;stroke-width:2.89460324999999985;stroke-miterlimit:4;stroke-dasharray:none;marker:none;visibility:visible;display:inline;overflow:visible;enable-background:accumulate;stroke-opacity:1" /><path
   style="fill:#4b7744;stroke:#4b7744;stroke-width:2;stroke-linecap:butt;stroke-linejoin:miter;stroke-opacity:1;stroke-miterlimit:4;stroke-dasharray:none;fill-opacity:1"
   d="m 144.91525,162.07627 -37.5,83.26271"
   id="path3909"
   inkscape:connector-curvature="0" /><circle
   style="fill:#614868;stroke:#4b7744;stroke-width:19.31836197000000155;fill-opacity:1;stroke-miterlimit:4;stroke-dasharray:none;stroke-opacity:1"
   sodipodi:ry="57.894501"
   sodipodi:rx="57.894501"
   sodipodi:cy="0"
   sodipodi:cx="0"
   cy="0"
   cx="0"
   r="57.894501"
   transform="matrix(0.20703164,-0.0032337,0.0032337,0.20703164,150.419,152.632)"
   class="fil0 str0"
   id="circle3126" /><g
   style="font-size:40px;font-style:normal;font-weight:normal;line-height:125%;letter-spacing:0px;word-spacing:0px;fill:#4b7744;fill-opacity:1;stroke:#4b7744;font-family:Sans;stroke-opacity:1"
   id="text3915"
   transform="matrix(0.44959537,0,0,0.44959537,310.15362,34.691486)"><path
     d="m -128.01764,263.39899 c 2.13331,2e-5 3.74664,1.26668 4.84,3.8 1.09331,2.56001 1.63997,4.89334 1.64,7 -3e-5,2.16001 -0.90669,4.14667 -2.72,5.96 -1.78669,1.78667 -3.76002,2.68 -5.92,2.68 l -8.64,0 c -2.18667,0 -4.17334,-0.89333 -5.96,-2.68 -1.78667,-1.78666 -2.68,-3.77333 -2.68,-5.96 0,-1.03999 0.44,-2.02666 1.32,-2.96 0.90666,-0.90665 1.90666,-1.35999 3,-1.36 1.06666,1e-5 2.05333,0.45335 2.96,1.36 0.90666,0.90668 1.35999,1.89334 1.36,2.96 -10e-6,1.09334 0.43999,2.09334 1.32,3 0.90665,0.88 1.90665,1.32 3,1.32 1.03998,0 2.02665,-0.44 2.96,-1.32 0.90665,-0.90666 1.35998,-1.90666 1.36,-3 l 0,-4.32 c -2e-5,-1.06665 -0.45335,-2.05332 -1.36,-2.96 -0.90668,-0.90665 -1.89335,-1.35998 -2.96,-1.36 -1.09335,2e-5 -2.09335,-0.08 -3,-0.24 -0.88001,-0.18665 -1.32001,-0.82665 -1.32,-1.92 -10e-6,-1.03998 0.43999,-1.66665 1.32,-1.88 0.85332,-0.18665 1.85332,-0.27998 3,-0.28 1.03998,2e-5 2.02665,-0.43998 2.96,-1.32 0.90665,-0.90664 1.35998,-1.90664 1.36,-3 l 0,-4.32 c -2e-5,-1.06664 -0.45335,-2.0533 -1.36,-2.96 -0.90668,-0.90663 -1.89335,-1.35997 -2.96,-1.36 -1.09335,3e-5 -2.09335,0.45337 -3,1.36 -0.88001,0.93336 -1.32001,1.92003 -1.32,2.96 -10e-6,1.09336 -0.45334,2.09336 -1.36,3 -0.93334,0.88003 -1.92001,1.32003 -2.96,1.32 -1.09334,3e-5 -2.09334,-0.43997 -3,-1.32 -0.88,-0.90664 -1.32,-1.90664 -1.32,-3 0,-2.15997 0.89333,-4.1333 2.68,-5.92 1.81333,-1.8133 3.79999,-2.71996 5.96,-2.72 l 8.64,0 c 2.13331,4e-5 4.10664,0.9067 5.92,2.72 1.81331,1.81337 2.71997,3.7867 2.72,5.92 -3e-5,2.13336 -0.54669,4.48003 -1.64,7.04 -1.06669,2.50669 -2.68002,3.76002 -4.84,3.76"
     style="font-variant:normal;font-stretch:normal;font-family:TRAGIC BRK;-inkscape-font-specification:TRAGIC BRK;fill:#4b7744;fill-opacity:1;stroke:#4b7744;stroke-opacity:1"
     id="path3939"
     inkscape:connector-curvature="0" /></g><g
   style="font-size:40px;font-style:normal;font-weight:normal;line-height:125%;letter-spacing:0px;word-spacing:0px;fill:#4b7744;fill-opacity:1;stroke:#4b7744;font-family:Sans;stroke-opacity:1"
   id="text3919"
   transform="matrix(0.44959537,0,0,0.44959537,177.31463,132.57284)"><path
     d="m -77.542389,269.87899 c 0,-4.87998 0.666666,-8.62665 2,-11.24 1.359997,-2.63997 2.853329,-4.61331 4.48,-5.92 1.679992,-1.3333 3.15999,-2.23997 4.44,-2.72 1.359988,-0.50663 2.039987,-1.07997 2.04,-1.72 -1.3e-5,-1.03997 0.439987,-2.02663 1.32,-2.96 0.906652,-0.90663 1.906651,-1.35996 3,-1.36 1.093315,4e-5 2.079981,0.45337 2.96,1.36 0.906646,0.9067 1.359978,1.89337 1.36,2.96 -2.2e-5,1.60003 -0.680021,2.88003 -2.04,3.84 -0.693352,0.48003 -1.413351,0.93336 -2.16,1.36 -0.720017,0.40003 -1.493349,0.77336 -2.32,1.12 -1.600013,0.69336 -3.080012,1.37336 -4.44,2.04 -1.333343,0.64002 -2.000009,1.45336 -2,2.44 -9e-6,1.09336 0.439991,1.73335 1.32,1.92 0.906656,0.16002 1.906655,0.24002 3,0.24 l 4.32,0 c 2.133314,2e-5 4.106645,0.90669 5.92,2.72 1.813308,1.81335 2.719974,3.78668 2.72,5.92 l 0,4.32 c -2.6e-5,2.16001 -0.906692,4.14667 -2.72,5.96 -1.786688,1.78667 -3.760019,2.68 -5.92,2.68 l -8.64,0 c -0.720008,0 -1.440007,-0.21333 -2.16,-0.64 -0.693339,-0.45333 -1.360005,-1.04 -2,-1.76 -0.640004,-0.72 -1.240003,-1.53333 -1.8,-2.44 -0.533335,-0.93333 -1.000002,-1.87999 -1.4,-2.84 -0.400001,-0.95999 -0.72,-1.89332 -0.96,-2.8 -0.213333,-0.93332 -0.32,-1.75999 -0.32,-2.48 m 8.64,4.32 c -9e-6,1.09334 0.439991,2.09334 1.32,3 0.906656,0.88 1.906655,1.32 3,1.32 1.039986,0 2.026652,-0.44 2.96,-1.32 0.90665,-0.90666 1.359983,-1.90666 1.36,-3 l 0,-4.32 c -1.7e-5,-1.09332 -0.45335,-2.07999 -1.36,-2.96 -0.906682,-0.90665 -1.893347,-1.35998 -2.96,-1.36 -1.093345,2e-5 -2.093344,0.45335 -3,1.36 -0.880009,0.88001 -1.320009,1.86668 -1.32,2.96 l 0,4.32 0,0"
     style="font-variant:normal;font-stretch:normal;font-family:TRAGIC BRK;-inkscape-font-specification:TRAGIC BRK;fill:#4b7744;fill-opacity:1;stroke:#4b7744;stroke-opacity:1"
     id="path3936"
     inkscape:connector-curvature="0" /></g><g
   style="font-size:40px;font-style:normal;font-weight:normal;line-height:125%;letter-spacing:0px;word-spacing:0px;fill:#4b7744;fill-opacity:1;stroke:#4b7744;font-family:Sans;stroke-opacity:1"
   id="text3923"
   transform="matrix(0.44959537,0,0,0.44959537,201.77226,33.4203)"><path
     d="m -349.06983,280.42576 c 1.99999,0 4.06666,-0.44 6.2,-1.32 2.18665,-0.93333 3.87998,-1.91999 5.08,-2.96 1.25331,-1.09333 1.78665,-2.09332 1.6,-3 -0.16002,-0.90666 -1.57335,-1.35999 -4.24,-1.36 l -4.32,0 c -2.18667,1e-5 -4.17334,-0.89332 -5.96,-2.68 -1.78667,-1.78665 -2.68,-3.77332 -2.68,-5.96 l 0,-8.64 c 0,-2.15997 0.89333,-4.1333 2.68,-5.92 1.81333,-1.8133 3.79999,-2.71996 5.96,-2.72 l 8.64,0 c 2.13331,4e-5 4.10664,0.9067 5.92,2.72 1.81331,1.81337 2.71997,3.7867 2.72,5.92 l 0,7.56 0,7.56 c -3e-5,1.09335 -0.48003,2.49334 -1.44,4.2 -0.45336,0.85334 -0.97336,1.69334 -1.56,2.52 -0.56002,0.82667 -1.18669,1.65334 -1.88,2.48 -0.66669,0.82667 -1.36002,1.58667 -2.08,2.28 -0.69335,0.69333 -1.41335,1.33333 -2.16,1.92 -1.46668,1.14667 -2.74668,1.72 -3.84,1.72 l -8.64,0 c -1.09334,0 -2.09334,-0.08 -3,-0.24 -0.88,-0.18667 -1.32,-0.82667 -1.32,-1.92 0,-1.04 0.44,-1.66666 1.32,-1.88 0.85333,-0.18666 1.85333,-0.28 3,-0.28 m 4.32,-17.28 c -1e-5,1.06669 0.43999,2.05335 1.32,2.96 0.90665,0.90668 1.90665,1.36002 3,1.36 1.06665,2e-5 2.05332,-0.45332 2.96,-1.36 0.90665,-0.90665 1.35998,-1.89331 1.36,-2.96 l 0,-8.64 c -2e-5,-1.06664 -0.45335,-2.0533 -1.36,-2.96 -0.90668,-0.90663 -1.89335,-1.35997 -2.96,-1.36 -1.09335,3e-5 -2.09335,0.45337 -3,1.36 -0.88001,0.93336 -1.32001,1.92003 -1.32,2.96 l 0,8.64"
     style="font-variant:normal;font-stretch:normal;font-family:TRAGIC BRK;-inkscape-font-specification:TRAGIC BRK;fill:#4b7744;fill-opacity:1;stroke:#4b7744;stroke-opacity:1"
     id="path3933"
     inkscape:connector-curvature="0" /></g><circle
   id="circle3941"
   class="fil0 str0"
   transform="matrix(0.06591846,-0.0010296,0.0010296,0.06591846,199.35968,70.970983)"
   r="57.894501"
   cx="0"
   cy="0"
   sodipodi:cx="0"
   sodipodi:cy="0"
   sodipodi:rx="57.894501"
   sodipodi:ry="57.894501"
   style="fill:#4b7744;fill-opacity:1;stroke:#4b7744;stroke-width:19.31836128000000130;stroke-miterlimit:4;stroke-dasharray:none;stroke-opacity:1" /><circle
   style="fill:#4b7744;fill-opacity:1;stroke:#4b7744;stroke-width:19.31836128000000130;stroke-miterlimit:4;stroke-dasharray:none;stroke-opacity:1"
   sodipodi:ry="57.894501"
   sodipodi:rx="57.894501"
   sodipodi:cy="0"
   sodipodi:cx="0"
   cy="0"
   cx="0"
   r="57.894501"
   transform="matrix(0.06591846,-0.0010296,0.0010296,0.06591846,234.31731,107.1998)"
   class="fil0 str0"
   id="circle3943" /><circle
   style="fill:#4b7744;fill-opacity:1;stroke:#4b7744;stroke-width:19.31836128000000130;stroke-miterlimit:4;stroke-dasharray:none;stroke-opacity:1"
   sodipodi:ry="57.894501"
   sodipodi:rx="57.894501"
   sodipodi:cy="0"
   sodipodi:cx="0"
   cy="0"
   cx="0"
   r="57.894501"
   transform="matrix(0.06591846,-0.0010296,0.0010296,0.06591846,64.613917,201.90319)"
   class="fil0 str0"
   id="circle3945" /><circle
   id="circle3947"
   class="fil0 str0"
   transform="matrix(0.06591846,-0.0010296,0.0010296,0.06591846,99.571547,238.132)"
   r="57.894501"
   cx="0"
   cy="0"
   sodipodi:cx="0"
   sodipodi:cy="0"
   sodipodi:rx="57.894501"
   sodipodi:ry="57.894501"
   style="fill:#4b7744;fill-opacity:1;stroke:#4b7744;stroke-width:19.31836128000000130;stroke-miterlimit:4;stroke-dasharray:none;stroke-opacity:1" /><circle
   id="circle3949"
   class="fil0 str0"
   transform="matrix(-0.06591846,-0.0010296,-0.0010296,0.06591846,234.31731,201.90319)"
   r="57.894501"
   cx="0"
   cy="0"
   sodipodi:cx="0"
   sodipodi:cy="0"
   sodipodi:rx="57.894501"
   sodipodi:ry="57.894501"
   style="fill:#4b7744;fill-opacity:1;stroke:#4b7744;stroke-width:19.31836128000000130;stroke-miterlimit:4;stroke-dasharray:none;stroke-opacity:1" /><circle
   style="fill:#4b7744;fill-opacity:1;stroke:#4b7744;stroke-width:19.31836128000000130;stroke-miterlimit:4;stroke-dasharray:none;stroke-opacity:1"
   sodipodi:ry="57.894501"
   sodipodi:rx="57.894501"
   sodipodi:cy="0"
   sodipodi:cx="0"
   cy="0"
   cx="0"
   r="57.894501"
   transform="matrix(-0.06591846,-0.0010296,-0.0010296,0.06591846,199.35968,238.132)"
   class="fil0 str0"
   id="circle3951" /></svg>