<?xml version="1.0" encoding="UTF-8" standalone="no"?>
<!-- Created with Inkscape (http://www.inkscape.org/) -->

<svg
   xmlns:dc="http://purl.org/dc/elements/1.1/"
   xmlns:cc="http://creativecommons.org/ns#"
   xmlns:rdf="http://www.w3.org/1999/02/22-rdf-syntax-ns#"
   xmlns:svg="http://www.w3.org/2000/svg"
   xmlns="http://www.w3.org/2000/svg"
   xmlns:sodipodi="http://sodipodi.sourceforge.net/DTD/sodipodi-0.dtd"
   xmlns:inkscape="http://www.inkscape.org/namespaces/inkscape"
   width="256"
   height="256"
   id="svg4374"
   version="1.1"
   inkscape:version="0.48.3.1 r9886"
   sodipodi:docname="gtk-page-setup.svg">
  <defs
     id="defs4376" />
  <sodipodi:namedview
     id="base"
     pagecolor="#ffffff"
     bordercolor="#666666"
     borderopacity="1.0"
     inkscape:pageopacity="0.0"
     inkscape:pageshadow="2"
     inkscape:zoom="2.4217409"
     inkscape:cx="310.65333"
     inkscape:cy="98.571428"
     inkscape:document-units="px"
     inkscape:current-layer="layer1"
     showgrid="false"
     inkscape:window-width="1918"
     inkscape:window-height="1032"
     inkscape:window-x="0"
     inkscape:window-y="25"
     inkscape:window-maximized="1"
     showguides="true"
     inkscape:guide-bbox="true" />
  <metadata
     id="metadata4379">
    <rdf:RDF>
      <cc:Work
         rdf:about="">
        <dc:format>image/svg+xml</dc:format>
        <dc:type
           rdf:resource="http://purl.org/dc/dcmitype/StillImage" />
        <dc:title />
      </cc:Work>
    </rdf:RDF>
  </metadata>
  <g
     inkscape:label="Capa 1"
     inkscape:groupmode="layer"
     id="layer1"
     transform="translate(0,-796.36218)">
    <g
       id="g6121"
       transform="matrix(16.426419,0,0,16.426419,0.85689545,784.92214)"
       style="fill:#614868;fill-opacity:1">
      <g
         inkscape:label="status"
         transform="translate(-241.0002,-647)"
         style="display:inline;fill:#614868;fill-opacity:1"
         id="layer9-9" />
      <g
         inkscape:label="devices"
         transform="translate(-241.0002,-647)"
         id="layer10-8"
         style="fill:#614868;fill-opacity:1" />
      <g
         inkscape:label="apps"
         transform="translate(-241.0002,-647)"
         id="layer11-5"
         style="fill:#614868;fill-opacity:1" />
      <g
         inkscape:label="places"
         transform="translate(-241.0002,-647)"
         id="layer13-6"
         style="fill:#614868;fill-opacity:1" />
      <g
         inkscape:label="mimetypes"
         transform="translate(-241.0002,-647)"
         id="layer14-6"
         style="fill:#614868;fill-opacity:1" />
      <g
         inkscape:label="emblems"
         transform="translate(-241.0002,-647)"
         style="display:inline;fill:#614868;fill-opacity:1"
         id="layer15-0" />
      <g
         inkscape:label="emotes"
         transform="translate(-241.0002,-647)"
         style="display:inline;fill:#614868;fill-opacity:1"
         id="g71291" />
      <g
         inkscape:label="categories"
         transform="translate(-241.0002,-647)"
         style="display:inline;fill:#614868;fill-opacity:1"
         id="g4953" />
      <g
         inkscape:label="actions"
         transform="translate(-241.0002,-647)"
         style="display:inline;fill:#614868;fill-opacity:1"
         id="layer12-7">
        <path
           style="color:#bebebe;fill:#614868;fill-opacity:1;fill-rule:nonzero;stroke:none;stroke-width:1;marker:none;visibility:visible;display:inline;overflow:visible;enable-background:accumulate"
           id="path4387-5"
           d="m 243.93296,648.00074 c -0.50766,0.0395 -0.94152,0.51729 -0.93263,1.02692 l 0,12.94533 c -0.008,0.5398 0.48663,1.03477 1.02589,1.02691 l 9.948,0 c 0.53926,0.008 1.03373,-0.48711 1.02589,-1.02691 l 0,-9.95795 c -0.004,-0.26704 -0.1184,-0.53079 -0.31088,-0.71573 l -2.9844,-2.98738 c -0.18475,-0.19267 -0.44824,-0.30734 -0.71501,-0.31119 l -6.9636,0 c -0.0311,-9.9e-4 -0.0622,-9.9e-4 -0.0933,0 z m 1.08806,1.89744 5.80553,0 -0.0194,2.19159 2.17223,0 0,8.80987 -7.9584,0 z"
           inkscape:connector-curvature="0"
           sodipodi:nodetypes="cccccccccccccccccccc" />
      </g>
    </g>
    <g
       transform="translate(-372.61864,663.64464)"
       id="layer9"
       style="display:inline" />
    <g
       transform="translate(-372.61864,663.64464)"
       id="layer10" />
    <g
       transform="translate(-372.61864,663.64464)"
       id="layer12" />
    <g
       transform="translate(-372.61864,663.64464)"
       id="layer13" />
    <g
       transform="translate(-372.61864,663.64464)"
       id="layer14" />
    <g
       transform="translate(-372.61864,663.64464)"
       id="layer15" />
    <path
       style="fill:#4b7744;fill-opacity:1;stroke:#614868;stroke-width:2;stroke-miterlimit:4;stroke-opacity:1;stroke-dasharray:none"
       d="M 20.808002,871.66807 C 9.1922198,872.04112 4.9867638,883.10958 4.9867638,893.37467 l 0,105.45183 c 0,11.7315 9.4866482,21.17 21.2738532,21.17 l 209.743913,0 c 11.7872,0 17.91037,-21.9346 -2.28491,-32.3349 C 213.52435,977.2614 42.024615,875.52078 26.260617,872.18737 c -1.9705,-0.41667 -3.793218,-0.57259 -5.452615,-0.5193 z m 26.51724,43.14774 c 0.87468,-0.0281 1.83953,0.0563 2.87819,0.276 8.30932,1.75706 98.700188,55.38069 109.345268,60.86269 10.64507,5.4821 7.42222,17.0458 1.2091,17.0458 l -110.554368,0 c -6.21311,0 -11.223656,-4.9742 -11.223656,-11.158 l 0,-55.59255 c 0,-5.4108 2.222701,-11.23731 8.345466,-11.43394 z"
       id="rect3030"
       inkscape:connector-curvature="0"
       sodipodi:nodetypes="ssssssssscssssss" />
  </g>
</svg>
