<?xml version="1.0" encoding="UTF-8" standalone="no"?>
<!-- Created with Inkscape (http://www.inkscape.org/) -->

<svg
   xmlns:dc="http://purl.org/dc/elements/1.1/"
   xmlns:cc="http://creativecommons.org/ns#"
   xmlns:rdf="http://www.w3.org/1999/02/22-rdf-syntax-ns#"
   xmlns:svg="http://www.w3.org/2000/svg"
   xmlns="http://www.w3.org/2000/svg"
   xmlns:sodipodi="http://sodipodi.sourceforge.net/DTD/sodipodi-0.dtd"
   xmlns:inkscape="http://www.inkscape.org/namespaces/inkscape"
   width="256"
   height="256"
   id="svg2"
   version="1.1"
   inkscape:version="0.48.3.1 r9886"
   sodipodi:docname="folder-videos.svg">
  <defs
     id="defs4">
    <linearGradient
       id="linearGradient4110">
      <stop
         style="stop-color:#000000;stop-opacity:1;"
         offset="0"
         id="stop4112" />
      <stop
         style="stop-color:#ffffff;stop-opacity:1;"
         offset="1"
         id="stop4114" />
    </linearGradient>
    <linearGradient
       id="linearGradient3864">
      <stop
         style="stop-color:#ffffff;stop-opacity:1;"
         offset="0"
         id="stop3866" />
      <stop
         style="stop-color:#d5d5d5;stop-opacity:0;"
         offset="1"
         id="stop3868" />
    </linearGradient>
    <linearGradient
       id="linearGradient3815">
      <stop
         style="stop-color:#e0f2fe;stop-opacity:1;"
         offset="0"
         id="stop3817" />
      <stop
         style="stop-color:#075e99;stop-opacity:1;"
         offset="1"
         id="stop3819" />
    </linearGradient>
    <linearGradient
       id="linearGradient3805">
      <stop
         style="stop-color:#989898;stop-opacity:1;"
         offset="0"
         id="stop3807" />
      <stop
         style="stop-color:#2a2a2a;stop-opacity:0.94968551;"
         offset="1"
         id="stop3809" />
    </linearGradient>
    <linearGradient
       id="linearGradient3909">
      <stop
         style="stop-color:#909090;stop-opacity:1;"
         offset="0"
         id="stop3911" />
      <stop
         style="stop-color:#cfcfcf;stop-opacity:1;"
         offset="1"
         id="stop3913" />
    </linearGradient>
    <linearGradient
       id="linearGradient3815-1">
      <stop
         style="stop-color:#e0f2fe;stop-opacity:1;"
         offset="0"
         id="stop3817-9" />
      <stop
         style="stop-color:#01131f;stop-opacity:1;"
         offset="1"
         id="stop3819-2" />
    </linearGradient>
  </defs>
  <sodipodi:namedview
     id="base"
     pagecolor="#ffffff"
     bordercolor="#666666"
     borderopacity="1.0"
     inkscape:pageopacity="0.0"
     inkscape:pageshadow="2"
     inkscape:zoom="2.1472202"
     inkscape:cx="123.06777"
     inkscape:cy="118.37301"
     inkscape:document-units="px"
     inkscape:current-layer="layer1"
     showgrid="false"
     showguides="true"
     inkscape:guide-bbox="true"
     inkscape:window-width="1914"
     inkscape:window-height="1031"
     inkscape:window-x="0"
     inkscape:window-y="25"
     inkscape:window-maximized="1" />
  <metadata
     id="metadata7">
    <rdf:RDF>
      <cc:Work
         rdf:about="">
        <dc:format>image/svg+xml</dc:format>
        <dc:type
           rdf:resource="http://purl.org/dc/dcmitype/StillImage" />
        <dc:title />
      </cc:Work>
    </rdf:RDF>
  </metadata>
  <g
     inkscape:label="Layer 1"
     inkscape:groupmode="layer"
     id="layer1"
     transform="translate(0,-796.3622)">
    <g
       id="g3021"
       transform="matrix(5.8004231,0,0,5.8004231,414.20602,-3926.632)">
      <rect
         ry="5.6483464"
         y="816.13293"
         x="-70.853973"
         height="40.202934"
         width="42.9814"
         id="rect8672-0-7-7-2-1-7-9-8"
         style="fill:#b14be0;fill-opacity:1;stroke:none" />
      <path
         sodipodi:nodetypes="cccccccc"
         inkscape:connector-curvature="0"
         id="path8893-0-6-5-3-3-8-7-7-9-4"
         d="m -65.254956,834.62125 -5.5485,6.4696 -0.049,8.67094 c -0.1322,3.13504 1.5094,6.73783 6.8351,6.64112 l 15.53361,-0.0433 6.8311,-6.98168 -2.0163,-10.36248 z"
         style="fill:#8e00cf;fill-opacity:1;stroke:none" />
      <path
         sodipodi:nodetypes="ccsccccccccccccssccccccscccccccc"
         inkscape:connector-curvature="0"
         id="rect4277-7-4-5-4-1-7"
         d="m -47.871746,820.19914 c -0.2002,-0.0114 -0.4109,-0.0114 -0.6147,0.0114 -3.3132,0.24841 -5.7853,3.09757 -5.5329,6.35822 0.1427,1.8428 1.1334,3.42866 2.5596,4.4111 l -1.034,3.58856 c -1.0722,0.0831 -2.3805,-0.10474 -3.4258,0 0.1921,0.42539 -0.8718,-1.81752 -0.8718,-1.81752 1.5814,-1.17561 2.5425,-3.09334 2.3808,-5.18113 l -0.012,-0.132 c -0.2997,-3.00405 -2.831,-5.26507 -5.8345,-5.3351 -0.2003,0 -0.4109,0 -0.61481,0.0114 -3.3131,0.2484 -5.7852,3.09744 -5.5328,6.35821 0.2982,3.67614 4.2068,6.29933 7.69881,5.05038 l 0.3517,1.04622 -4.16531,0.0615 c -2.9734,-0.0615 -3.6282,-0.098 -3.6282,1.55224 l 0,10.52741 c 0,1.65009 1.3525,2.97 3.0292,2.97 9.15581,0.0945 11.69111,0.14305 20.95751,0.14305 1.2855,0.0261 0.5771,-3.94072 1.0172,-5.04913 l 10.3951,3.643 0.068,-14.80068 -10.5404,4.67167 c -0.2014,-1.94962 0.9471,-3.51759 -2.0943,-3.58296 l -6.3701,-0.13691 0.8851,-2.56556 c 0.012,0 0.012,-2.2e-4 0.012,0 0.3965,0.049 0.8042,0.0524 1.2184,0.0216 3.3131,-0.24851 5.7964,-3.09755 5.544,-6.35821 l -0.012,-0.13201 c -0.2998,-3.00405 -2.8309,-5.26507 -5.8345,-5.33511 z"
         style="fill:#e3c3f4;fill-opacity:1;stroke:none" />
      <path
         sodipodi:open="true"
         sodipodi:end="12.46847"
         sodipodi:start="6.2071318"
         transform="matrix(0.93895423,0,0,0.90441886,-1667.8987,371.45503)"
         d="m 1716.4155,504.59796 c 0.1839,2.46601 -1.6235,4.61744 -4.0371,4.80535 -2.4135,0.18791 -4.5192,-1.65885 -4.7031,-4.12486 -0.1839,-2.46602 1.6236,-4.61745 4.0371,-4.80536 2.3763,-0.18501 4.4619,1.60403 4.6948,4.02741"
         sodipodi:ry="4.4780531"
         sodipodi:rx="4.3827753"
         sodipodi:cy="504.9382"
         sodipodi:cx="1712.0454"
         id="path5205-9-0-5-2-0"
         style="fill:#8e00cf;fill-opacity:1;stroke:none"
         sodipodi:type="arc" />
      <path
         sodipodi:open="true"
         sodipodi:end="12.46847"
         sodipodi:start="6.2071318"
         transform="matrix(0.93895423,0,0,0.90441886,-1655.4709,369.34902)"
         d="m 1716.4155,504.59796 c 0.1839,2.46601 -1.6235,4.61744 -4.0371,4.80535 -2.4135,0.18791 -4.5192,-1.65885 -4.7031,-4.12486 -0.1839,-2.46602 1.6236,-4.61745 4.0371,-4.80536 2.3763,-0.18501 4.4619,1.60403 4.6948,4.02741"
         sodipodi:ry="4.4780531"
         sodipodi:rx="4.3827753"
         sodipodi:cy="504.9382"
         sodipodi:cx="1712.0454"
         id="path5205-8-6-7-8-1-0"
         style="fill:#8e00cf;fill-opacity:1;stroke:none"
         sodipodi:type="arc" />
    </g>
  </g>
</svg>
