<?xml version="1.0" encoding="UTF-8" standalone="no"?>
<!-- Created with Inkscape (http://www.inkscape.org/) -->

<svg
   xmlns:dc="http://purl.org/dc/elements/1.1/"
   xmlns:cc="http://creativecommons.org/ns#"
   xmlns:rdf="http://www.w3.org/1999/02/22-rdf-syntax-ns#"
   xmlns:svg="http://www.w3.org/2000/svg"
   xmlns="http://www.w3.org/2000/svg"
   xmlns:sodipodi="http://sodipodi.sourceforge.net/DTD/sodipodi-0.dtd"
   xmlns:inkscape="http://www.inkscape.org/namespaces/inkscape"
   width="256"
   height="256"
   id="svg2"
   version="1.1"
   inkscape:version="0.48.3.1 r9886"
   sodipodi:docname="inode-directory.svg">
  <defs
     id="defs4">
    <linearGradient
       id="linearGradient3864">
      <stop
         style="stop-color:#ffffff;stop-opacity:1;"
         offset="0"
         id="stop3866" />
      <stop
         style="stop-color:#d5d5d5;stop-opacity:0;"
         offset="1"
         id="stop3868" />
    </linearGradient>
    <linearGradient
       id="linearGradient3815">
      <stop
         style="stop-color:#e0f2fe;stop-opacity:1;"
         offset="0"
         id="stop3817" />
      <stop
         style="stop-color:#075e99;stop-opacity:1;"
         offset="1"
         id="stop3819" />
    </linearGradient>
    <linearGradient
       id="linearGradient3805">
      <stop
         style="stop-color:#989898;stop-opacity:1;"
         offset="0"
         id="stop3807" />
      <stop
         style="stop-color:#2a2a2a;stop-opacity:0.94968551;"
         offset="1"
         id="stop3809" />
    </linearGradient>
    <linearGradient
       id="linearGradient3909">
      <stop
         style="stop-color:#909090;stop-opacity:1;"
         offset="0"
         id="stop3911" />
      <stop
         style="stop-color:#cfcfcf;stop-opacity:1;"
         offset="1"
         id="stop3913" />
    </linearGradient>
    <linearGradient
       id="linearGradient3815-1">
      <stop
         style="stop-color:#e0f2fe;stop-opacity:1;"
         offset="0"
         id="stop3817-9" />
      <stop
         style="stop-color:#01131f;stop-opacity:1;"
         offset="1"
         id="stop3819-2" />
    </linearGradient>
  </defs>
  <sodipodi:namedview
     id="base"
     pagecolor="#ffffff"
     bordercolor="#666666"
     borderopacity="1.0"
     inkscape:pageopacity="0.0"
     inkscape:pageshadow="2"
     inkscape:zoom="2.6562759"
     inkscape:cx="139.89537"
     inkscape:cy="112.42604"
     inkscape:document-units="px"
     inkscape:current-layer="layer1"
     showgrid="false"
     showguides="true"
     inkscape:guide-bbox="true"
     inkscape:window-width="1914"
     inkscape:window-height="1031"
     inkscape:window-x="0"
     inkscape:window-y="25"
     inkscape:window-maximized="1" />
  <metadata
     id="metadata7">
    <rdf:RDF>
      <cc:Work
         rdf:about="">
        <dc:format>image/svg+xml</dc:format>
        <dc:type
           rdf:resource="http://purl.org/dc/dcmitype/StillImage" />
        <dc:title />
      </cc:Work>
    </rdf:RDF>
  </metadata>
  <g
     inkscape:label="Layer 1"
     inkscape:groupmode="layer"
     id="layer1"
     transform="translate(0,-796.3622)">
    <rect
       style="fill:#ffb380;fill-opacity:1;stroke:none"
       id="rect8672-0-7-7-1-3-9-1-7-1-4-8-1-7"
       width="250.81094"
       height="234.59766"
       x="2.9073758"
       y="806.27588"
       ry="32.960003" />
    <path
       style="fill:#cd9067;fill-opacity:1;stroke:none"
       d="m 54.209756,845.63782 -50.9751596,45.1847 -0.33671,111.08308 c -1.44482,18.9672 8.1904796,41.6189 42.0599396,38.2642 l 98.904144,0.4358 80.34833,-50.53777 -39.56728,-20.6428 40.9029,-97.15742 -128.623484,5.2748 z"
       id="path8893-0-6-5-3-3-6-9-9-1-3-8-2-3-6-5"
       inkscape:connector-curvature="0"
       sodipodi:nodetypes="cccccccccc" />
    <path
       style="fill:#baf8f8;fill-opacity:1;stroke:none"
       d="m 46.688296,859.53788 c -1.63821,-11.66086 2.29253,-16.32168 12.93058,-16.40248 11.69606,-0.0887 28.07778,-0.44525 39.11584,-0.0234 12.324354,0.47092 7.634374,11.73756 8.022314,16.42643 l 105.9476,0 c 9.82588,0 17.73633,8.48965 17.73633,19.03509 l 0,96.51432 c 0,10.54538 -7.91045,19.03504 -17.73633,19.03504 l -166.016334,0 c -9.82589,0 -17.73633,-8.48966 -17.73633,-19.03504 l 0,-96.51432 c 0,-7.87244 2.7086,-13.19468 16.52777,-13.39215 2.02376,-0.0291 2.18494,-3.18388 1.20856,-5.64294 z"
       id="rect10188-9-3-0-0-1"
       inkscape:connector-curvature="0"
       sodipodi:nodetypes="csscsssssssssc" />
    <path
       style="fill:#656e6e;fill-opacity:1;stroke:none"
       d="M 210.85248,892.65405 43.393966,870.35298 c -13.56395,-1.80633 -14.64227,9.10411 -14.51179,16.76182 l 1.14973,67.45306 c 0.13072,7.65771 5.83132,13.8246 13.0746,13.8246 l 167.745974,0 c 7.2433,0 13.0746,-6.16573 13.0746,-13.8246 l 0,-48.08919 c 0,-7.65882 -5.88849,-12.86762 -13.0746,-13.82462 z"
       id="rect10188-3-4-2-0-1-1"
       inkscape:connector-curvature="0"
       sodipodi:nodetypes="sssssssss" />
    <path
       style="fill:#a2aeae;fill-opacity:1;stroke:none"
       d="M 47.685266,894.81693 215.43112,872.62934 c 9.59709,-1.26942 14.67418,8.01979 14.51179,16.06154 l -1.43713,71.15043 c -0.16222,8.04174 -5.83131,14.51913 -13.07466,14.51913 l -167.745854,0 c -7.2434,0 -13.07466,-6.47553 -13.07466,-14.51913 l 0,-50.5052 c 0,-8.04359 5.88214,-13.56785 13.07466,-14.51918 z"
       id="rect10188-3-6-9-9-0"
       inkscape:connector-curvature="0"
       sodipodi:nodetypes="sssssssss" />
    <rect
       style="fill:#baf8f8;fill-opacity:1;stroke:none"
       id="rect10188-6-67-7-45"
       width="201.489"
       height="102.65566"
       x="29.479824"
       y="889.35779"
       ry="14.519186" />
  </g>
</svg>
