<?xml version="1.0" encoding="UTF-8" standalone="no"?>
<!-- Created with Inkscape (http://www.inkscape.org/) -->

<svg
   xmlns:dc="http://purl.org/dc/elements/1.1/"
   xmlns:cc="http://creativecommons.org/ns#"
   xmlns:rdf="http://www.w3.org/1999/02/22-rdf-syntax-ns#"
   xmlns:svg="http://www.w3.org/2000/svg"
   xmlns="http://www.w3.org/2000/svg"
   xmlns:xlink="http://www.w3.org/1999/xlink"
   xmlns:sodipodi="http://sodipodi.sourceforge.net/DTD/sodipodi-0.dtd"
   xmlns:inkscape="http://www.inkscape.org/namespaces/inkscape"
   width="256"
   height="256"
   id="svg2"
   version="1.1"
   inkscape:version="0.48.3.1 r9886"
   sodipodi:docname="network-workgroup.svg">
  <defs
     id="defs4">
    <linearGradient
       id="linearGradient4297">
      <stop
         id="stop4299"
         offset="0"
         style="stop-color:#f9fcff;stop-opacity:1;" />
      <stop
         id="stop4301"
         offset="1"
         style="stop-color:#a9d5f1;stop-opacity:1;" />
    </linearGradient>
    <linearGradient
       inkscape:collect="always"
       id="linearGradient4245">
      <stop
         style="stop-color:#e6e6e6;stop-opacity:1;"
         offset="0"
         id="stop4247" />
      <stop
         style="stop-color:#e6e6e6;stop-opacity:0;"
         offset="1"
         id="stop4249" />
    </linearGradient>
    <inkscape:path-effect
       effect="skeletal"
       id="path-effect4097"
       is_visible="true"
       pattern="m -1.1327561,797.96393 c 0,-2.76 2.24,-5 5,-5 2.76,0 5,2.24 5,5 0,2.76 -2.24,5 -5,5 -2.76,0 -5,-2.24 -5,-5 z"
       copytype="single_stretched"
       prop_scale="0.6"
       scale_y_rel="false"
       spacing="0"
       normal_offset="0"
       tang_offset="0"
       prop_units="false"
       vertical_pattern="false"
       fuse_tolerance="0" />
    <inkscape:path-effect
       effect="skeletal"
       id="path-effect4093"
       is_visible="true"
       pattern="M 0,5 C 0,2.24 2.24,0 5,0 7.76,0 10,2.24 10,5 10,7.76 7.76,10 5,10 2.24,10 0,7.76 0,5 z"
       copytype="single_stretched"
       prop_scale="0.3"
       scale_y_rel="false"
       spacing="0"
       normal_offset="0"
       tang_offset="0"
       prop_units="false"
       vertical_pattern="false"
       fuse_tolerance="0" />
    <inkscape:path-effect
       effect="skeletal"
       id="path-effect4068"
       is_visible="true"
       pattern="m 1.9823231,800.51263 c 0,-2.76 2.24,-5 5,-5 2.76,0 4.9999999,2.24 4.9999999,5 0,2.76 -2.2399999,5 -4.9999999,5 -2.76,0 -5,-2.24 -5,-5 z"
       copytype="single_stretched"
       prop_scale="0.51"
       scale_y_rel="false"
       spacing="0"
       normal_offset="0"
       tang_offset="0"
       prop_units="false"
       vertical_pattern="false"
       fuse_tolerance="0" />
    <linearGradient
       id="linearGradient3815-1">
      <stop
         style="stop-color:#e0f2fe;stop-opacity:1;"
         offset="0"
         id="stop3817-9" />
      <stop
         style="stop-color:#486578;stop-opacity:1;"
         offset="1"
         id="stop3819-2" />
    </linearGradient>
    <inkscape:path-effect
       effect="skeletal"
       id="path-effect4068-0"
       is_visible="true"
       pattern="m 9.0927132,789.71998 c 0,-2.76 2.2399998,-5 4.9999998,-5 2.76,0 5,2.24 5,5 0,2.76 -2.24,5 -5,5 -2.76,0 -4.9999998,-2.24 -4.9999998,-5 z"
       copytype="single_stretched"
       prop_scale="0.51"
       scale_y_rel="false"
       spacing="0"
       normal_offset="0"
       tang_offset="0"
       prop_units="false"
       vertical_pattern="false"
       fuse_tolerance="0" />
    <radialGradient
       inkscape:collect="always"
       xlink:href="#linearGradient4245"
       id="radialGradient4251"
       cx="617.91846"
       cy="520.49854"
       fx="617.91846"
       fy="520.49854"
       r="85.523087"
       gradientUnits="userSpaceOnUse" />
    <radialGradient
       r="85.523087"
       fy="520.49854"
       fx="617.91846"
       cy="520.49854"
       cx="617.91846"
       gradientUnits="userSpaceOnUse"
       id="radialGradient4268"
       xlink:href="#linearGradient3815-1"
       inkscape:collect="always" />
    <linearGradient
       inkscape:collect="always"
       xlink:href="#linearGradient4297"
       id="linearGradient4295"
       x1="628.87885"
       y1="446.86938"
       x2="629.27728"
       y2="515.40112"
       gradientUnits="userSpaceOnUse" />
  </defs>
  <sodipodi:namedview
     id="base"
     pagecolor="#ffffff"
     bordercolor="#666666"
     borderopacity="1.0"
     inkscape:pageopacity="0.0"
     inkscape:pageshadow="2"
     inkscape:zoom="1.2484714"
     inkscape:cx="105.20221"
     inkscape:cy="43.954859"
     inkscape:document-units="px"
     inkscape:current-layer="layer1"
     showgrid="false"
     showguides="true"
     inkscape:guide-bbox="true"
     inkscape:window-width="1914"
     inkscape:window-height="1031"
     inkscape:window-x="0"
     inkscape:window-y="25"
     inkscape:window-maximized="1" />
  <metadata
     id="metadata7">
    <rdf:RDF>
      <cc:Work
         rdf:about="">
        <dc:format>image/svg+xml</dc:format>
        <dc:type
           rdf:resource="http://purl.org/dc/dcmitype/StillImage" />
        <dc:title />
      </cc:Work>
    </rdf:RDF>
  </metadata>
  <g
     inkscape:label="Layer 1"
     inkscape:groupmode="layer"
     id="layer1"
     transform="translate(0,-796.3622)">
    <g
       id="g3875"
       transform="translate(-384.47015,-88.908721)">
      <rect
         ry="32.805351"
         y="896.09424"
         x="388.61081"
         height="233.4969"
         width="249.63411"
         id="rect8672-0-7-7-1-3-9-1-7-1-4-1-6-1-0-8"
         style="fill:#ffb380;fill-opacity:0.94784743;stroke:none" />
      <g
         id="g4837"
         transform="matrix(5.8079567,0,0,5.8079567,-3006.6693,-1404.3233)">
        <g
           id="g4515"
           transform="translate(79.768315,4.597612)"
           style="fill:#707a7a;fill-opacity:1">
          <path
             sodipodi:nodetypes="ccccc"
             style="fill:#707a7a;fill-opacity:1;fill-rule:evenodd"
             inkscape:connector-curvature="0"
             d="m 530.14231,408.41052 1.20986,1.10473 c 2.07289,-4.98341 8.06729,-1.57508 5.82229,1.73112 l 1.63964,0.56622 c 3.16091,-4.51909 -4.24936,-10.78442 -8.67179,-3.40207 z"
             class="fil0"
             id="_121731384-7-2-4-3-0-7-7-3-6-5-7-8" />
          <path
             sodipodi:nodetypes="zsccz"
             style="fill:#707a7a;fill-opacity:1;fill-rule:evenodd"
             inkscape:connector-curvature="0"
             d="m 528.104,406.17051 c -0.7881,-0.84272 -0.24944,-0.59595 0.57081,-0.0542 0.82024,0.54172 2.06088,1.13577 3.25225,2.29216 l -0.58603,1.06908 c -1.90375,-1.56572 -2.44892,-2.46429 -3.23703,-3.30701 z"
             class="fil0"
             id="_121328256-76-9-9-5-8-5-1-2-0-2-6-2" />
          <path
             sodipodi:open="true"
             sodipodi:end="12.46847"
             sodipodi:start="6.2071318"
             transform="matrix(0.572169,0,0,0.52704667,528.19251,403.24819)"
             d="m 13.844562,12.550547 c 0.112017,1.470034 -0.988873,2.752541 -2.458908,2.864558 -1.4700343,0.112018 -2.7525408,-0.988873 -2.8645582,-2.458907 -0.1120173,-1.470035 0.9888732,-2.752542 2.4589082,-2.864559 1.447376,-0.1102906 2.717609,0.956188 2.859492,2.40081"
             sodipodi:ry="2.6694496"
             sodipodi:rx="2.6694496"
             sodipodi:cy="12.753372"
             sodipodi:cx="11.182829"
             id="path3582-4-5-6-5-0-1-4-6-1-1-4-6"
             style="fill:#707a7a;fill-opacity:1;fill-rule:evenodd;stroke:none"
             sodipodi:type="arc" />
          <path
             sodipodi:nodetypes="zsccz"
             style="fill:#707a7a;fill-opacity:1;fill-rule:evenodd"
             inkscape:connector-curvature="0"
             d="m 529.12545,401.53445 c -0.48021,-1.10495 -0.0621,-0.72495 0.52935,0.0428 0.59141,0.76779 2.06747,3.07692 2.82549,4.61331 l -1.11178,0.71037 c -0.90637,-2.31809 -1.76285,-4.26155 -2.24306,-5.36651 z"
             class="fil0"
             id="_121328256-7-8-4-5-2-3-9-3-9-5-8-5-2" />
          <path
             sodipodi:nodetypes="zsccz"
             style="fill:#707a7a;fill-opacity:1;fill-rule:evenodd"
             inkscape:connector-curvature="0"
             d="m 533.33724,398.64177 c -0.0393,-1.18965 0.32299,-0.72248 0.48124,0.20758 0.17334,1.01874 0.60329,4.20731 0.79084,6.2661 l -1.30893,0.31573 c 0.0124,-2.46382 0.0762,-5.59975 0.0368,-6.78941 z"
             class="fil0"
             id="_121328256-7-9-5-0-5-8-1-9-0-9-1-5-20-4-4" />
          <path
             sodipodi:nodetypes="zsccz"
             style="fill:#707a7a;fill-opacity:1;fill-rule:evenodd"
             inkscape:connector-curvature="0"
             d="m 537.46994,398.41122 c 0.35889,-1.23385 0.57359,-0.76878 0.56465,0.23394 -0.009,1.00271 -0.3546,5.00723 -1.64895,6.92609 l -1.21266,-0.47186 c 1.27316,-2.34069 1.93807,-5.45432 2.29696,-6.68817 z"
             class="fil0"
             id="_121328256-7-4-0-9-2-3-6-2-1-8-1-0-7-3-6" />
          <path
             sodipodi:nodetypes="zsccz"
             style="fill:#707a7a;fill-opacity:1;fill-rule:evenodd"
             inkscape:connector-curvature="0"
             d="m 542.60487,400.78578 c 1.02261,-1.42269 0.87301,-0.4421 0.37859,0.45125 -0.98683,1.78311 -3.51149,4.43403 -5.41288,5.74411 l -0.93728,-1.1511 c 2.36635,-1.56775 4.94896,-3.62156 5.97157,-5.04426 z"
             class="fil0"
             id="_121328256-7-4-9-4-8-5-4-4-9-6-7-2-4-5-9" />
          <path
             sodipodi:nodetypes="zsccz"
             style="fill:#707a7a;fill-opacity:1;fill-rule:evenodd"
             inkscape:connector-curvature="0"
             d="m 544.84919,408.07935 c 1.69209,-0.35652 1.04322,0.28421 0.101,0.65061 -1.01213,0.39359 -4.64851,1.41213 -6.94443,1.47083 l 0.0249,-1.4595 c 2.70126,-0.002 5.12642,-0.30543 6.81851,-0.66194 z"
             class="fil0"
             id="_121328256-7-4-9-1-6-1-3-1-3-4-9-5-6-0-2-4" />
          <path
             sodipodi:nodetypes="zsccz"
             style="fill:#707a7a;fill-opacity:1;fill-rule:evenodd"
             inkscape:connector-curvature="0"
             d="m 543.78814,412.79559 c 1.21053,0.50583 0.66838,0.49949 -0.0863,0.40633 -1.01296,-0.12504 -3.28882,-0.84546 -4.94628,-1.40721 l 0.43763,-1.17936 c 2.30411,1.11262 3.38445,1.67441 4.59498,2.18024 z"
             class="fil0"
             id="_121328256-9-1-9-8-5-01-7-6-4-6-0-2-9" />
          <path
             inkscape:transform-center-x="-0.069049672"
             inkscape:transform-center-y="0.95298244"
             sodipodi:nodetypes="zsccz"
             style="fill:#707a7a;fill-opacity:1;fill-rule:evenodd"
             inkscape:connector-curvature="0"
             d="m 544.72401,404.33299 c 1.63136,-0.8239 1.16326,-0.0253 0.30731,0.59428 -0.91944,0.66553 -4.34643,2.67782 -6.69275,3.38869 l -0.43036,-1.40486 c 2.78148,-0.77215 5.18445,-1.75421 6.8158,-2.57811 z"
             class="fil0"
             id="_121328256-7-4-9-1-7-6-6-7-8-3-7-0-2-7-5-2-7" />
        </g>
        <g
           id="g4527"
           transform="matrix(0.74569343,0,0,0.74569343,210.81001,106.90262)"
           style="fill:#919c9c;fill-opacity:1">
          <path
             sodipodi:nodetypes="ccccc"
             style="fill:#919c9c;fill-opacity:1;fill-rule:evenodd"
             inkscape:connector-curvature="0"
             d="m 514.48083,411.84343 1.89139,-0.71426 c -4.32583,-5.06445 2.7728,-9.75685 5.15693,-5.43982 l 1.53888,-1.48796 c -3.20719,-6.00234 -14.24045,-1.34773 -8.5872,7.64204 z"
             class="fil0"
             id="_121731384-7-2-4-3-0-7-7-3-6-6-2-0-4" />
          <path
             sodipodi:nodetypes="zsccz"
             style="fill:#919c9c;fill-opacity:1;fill-rule:evenodd"
             inkscape:connector-curvature="0"
             d="m 510.87747,412.83518 c -1.36751,0.39651 -0.7951,-0.0584 0.25915,-0.65839 1.05424,-0.60001 2.40088,-1.63338 4.3388,-2.29842 l 0.84907,1.24198 c -2.78624,1.22031 -4.07951,1.31832 -5.44702,1.71483 z"
             class="fil0"
             id="_121328256-76-9-9-5-8-5-1-2-0-5-4-4-9" />
          <path
             sodipodi:open="true"
             sodipodi:end="12.46847"
             sodipodi:start="6.2071318"
             transform="matrix(0.31958509,-0.62960358,0.57995185,0.29438201,507.71124,411.10553)"
             d="m 13.844562,12.550547 c 0.112017,1.470034 -0.988873,2.752541 -2.458908,2.864558 -1.4700343,0.112018 -2.7525408,-0.988873 -2.8645582,-2.458907 -0.1120173,-1.470035 0.9888732,-2.752542 2.4589082,-2.864559 1.447376,-0.1102906 2.717609,0.956188 2.859492,2.40081"
             sodipodi:ry="2.6694496"
             sodipodi:rx="2.6694496"
             sodipodi:cy="12.753372"
             sodipodi:cx="11.182829"
             id="path3582-4-5-6-5-0-1-4-6-1-9-7-7-3"
             style="fill:#919c9c;fill-opacity:1;fill-rule:evenodd;stroke:none"
             sodipodi:type="arc" />
          <path
             sodipodi:nodetypes="zsccz"
             style="fill:#919c9c;fill-opacity:1;fill-rule:evenodd"
             inkscape:connector-curvature="0"
             d="m 506.34658,409.12173 c -1.4841,-0.0888 -0.8324,-0.33663 0.34279,-0.55856 1.17519,-0.22193 4.54056,-0.55639 6.65458,-0.53236 l 0.16068,1.62016 c -3.05703,-0.29741 -5.67396,-0.44047 -7.15805,-0.52924 z"
             class="fil0"
             id="_121328256-7-8-4-5-2-3-9-3-9-5-2-0-2-8" />
          <path
             sodipodi:nodetypes="zsccz"
             style="fill:#919c9c;fill-opacity:1;fill-rule:evenodd"
             inkscape:connector-curvature="0"
             d="m 505.51602,402.87145 c -1.33104,-0.6212 -0.6146,-0.75895 0.49721,-0.4136 1.21782,0.37828 4.96661,1.68614 7.33683,2.6297 l -0.38369,1.61668 c -2.70421,-1.38983 -6.11931,-3.21157 -7.45035,-3.83278 z"
             class="fil0"
             id="_121328256-7-9-5-0-5-8-1-9-0-9-1-5-5-5-8-8" />
          <path
             sodipodi:nodetypes="zsccz"
             style="fill:#919c9c;fill-opacity:1;fill-rule:evenodd"
             inkscape:connector-curvature="0"
             d="m 507.57065,398.19513 c -1.15725,-1.08407 -0.52557,-1.06057 0.5728,-0.49066 1.09836,0.56992 5.3118,3.18698 6.70032,5.68304 l -1.19656,1.07083 c -1.86452,-2.70835 -4.91932,-5.17913 -6.07656,-6.26321 z"
             class="fil0"
             id="_121328256-7-4-0-9-2-3-6-2-1-8-1-0-5-0-1-5" />
          <path
             sodipodi:nodetypes="zsccz"
             style="fill:#919c9c;fill-opacity:1;fill-rule:evenodd"
             inkscape:connector-curvature="0"
             d="m 513.05168,393.87107 c -0.99432,-1.9199 10e-4,-1.20758 0.70801,-0.16455 1.4109,2.08185 2.91777,6.3406 3.29734,9.1646 l -1.79016,0.38843 c -0.4034,-3.47956 -1.22086,-7.46858 -2.21519,-9.38848 z"
             class="fil0"
             id="_121328256-7-4-9-4-8-5-4-4-9-6-7-2-1-2-9-1" />
          <path
             sodipodi:nodetypes="zsccz"
             style="fill:#919c9c;fill-opacity:1;fill-rule:evenodd"
             inkscape:connector-curvature="0"
             d="m 522.33095,395.47528 c 0.55282,-2.06107 0.89543,-0.98918 0.77233,0.25227 -0.13223,1.33356 -1.04254,5.90387 -2.26034,8.46305 l -1.59207,-0.84264 c 1.50655,-2.97354 2.52727,-5.81161 3.08008,-7.87269 z"
             class="fil0"
             id="_121328256-7-4-9-1-6-1-3-1-3-4-9-5-6-1-3-4-9" />
          <path
             sodipodi:nodetypes="zsccz"
             style="fill:#919c9c;fill-opacity:1;fill-rule:evenodd"
             inkscape:connector-curvature="0"
             d="m 526.92796,399.2771 c 1.23274,-1.04951 0.92295,-0.45648 0.39889,0.32196 -0.70338,1.0448 -2.7673,3.14672 -4.3112,4.65679 l -1.05331,-1.1403 c 2.51127,-1.91394 3.73287,-2.78894 4.96561,-3.83844 z"
             class="fil0"
             id="_121328256-9-1-9-8-5-01-7-6-4-6-5-6-2-0" />
          <path
             inkscape:transform-center-x="-0.069049672"
             inkscape:transform-center-y="0.95298244"
             sodipodi:nodetypes="zsccz"
             style="fill:#919c9c;fill-opacity:1;fill-rule:evenodd"
             inkscape:connector-curvature="0"
             d="m 518.13862,393.5205 c 0.005,-2.2553 0.62193,-1.29413 0.82558,-0.006 0.21877,1.38347 0.51892,6.27843 -0.009,9.25733 l -1.78624,-0.31113 c 0.70393,-3.49196 0.96548,-6.68468 0.97007,-8.93998 z"
             class="fil0"
             id="_121328256-7-4-9-1-7-6-6-7-8-3-7-0-2-7-7-6-9-2" />
        </g>
        <g
           id="g4539">
          <path
             sodipodi:nodetypes="ccccc"
             style="fill:#e6f8f8;fill-opacity:1;fill-rule:evenodd"
             inkscape:connector-curvature="0"
             d="m 592.17256,423.47393 2.33645,2.13341 c 4.0031,-9.62379 15.57929,-3.04174 11.24382,3.34308 l 3.16642,1.09347 c 6.10424,-8.72711 -8.20623,-20.82652 -16.74669,-6.56996 z"
             class="fil0"
             id="_121731384-7-2-4-3-0-7-7-0-7-0" />
          <path
             sodipodi:nodetypes="zsccz"
             style="fill:#e6f8f8;fill-opacity:1;fill-rule:evenodd"
             inkscape:connector-curvature="0"
             d="m 588.23626,419.14809 c -1.52196,-1.62744 -0.48172,-1.15088 1.10232,-0.10473 1.58403,1.04615 3.97991,2.19336 6.28064,4.42656 l -1.13171,2.06457 c -3.67646,-3.02368 -4.72929,-4.75897 -6.25125,-6.3864 z"
             class="fil0"
             id="_121328256-76-9-9-5-8-5-1-22-1-0" />
          <path
             sodipodi:open="true"
             sodipodi:end="12.46847"
             sodipodi:start="6.2071318"
             transform="matrix(1.104954,0,0,1.0178152,588.40718,413.50461)"
             d="m 13.844562,12.550547 c 0.112017,1.470034 -0.988873,2.752541 -2.458908,2.864558 -1.4700343,0.112018 -2.7525408,-0.988873 -2.8645582,-2.458907 -0.1120173,-1.470035 0.9888732,-2.752542 2.4589082,-2.864559 1.447376,-0.1102906 2.717609,0.956188 2.859492,2.40081"
             sodipodi:ry="2.6694496"
             sodipodi:rx="2.6694496"
             sodipodi:cy="12.753372"
             sodipodi:cx="11.182829"
             id="path3582-4-5-6-5-0-1-4-5-6-3"
             style="fill:#e6f8f8;fill-opacity:1;fill-rule:evenodd;stroke:none"
             sodipodi:type="arc" />
          <path
             sodipodi:nodetypes="zsccz"
             style="fill:#e6f8f8;fill-opacity:1;fill-rule:evenodd"
             inkscape:connector-curvature="0"
             d="m 590.20884,410.19509 c -0.92736,-2.13385 -0.11984,-1.40001 1.02227,0.0827 1.1421,1.48272 3.99262,5.94203 5.4565,8.90906 l -2.14704,1.37184 c -1.75035,-4.47661 -3.40436,-8.22976 -4.33173,-10.36362 z"
             class="fil0"
             id="_121328256-7-8-4-5-2-3-9-3-3-3-8" />
          <path
             sodipodi:nodetypes="zsccz"
             style="fill:#e6f8f8;fill-opacity:1;fill-rule:evenodd"
             inkscape:connector-curvature="0"
             d="m 598.34251,404.60884 c -0.0759,-2.29742 0.62375,-1.39523 0.92935,0.40088 0.33475,1.96734 1.16506,8.12501 1.52726,12.10088 l -2.52776,0.60973 c 0.024,-4.75806 0.1471,-10.81406 0.0712,-13.11149 z"
             class="fil0"
             id="_121328256-7-9-5-0-5-8-1-9-0-9-7-1-1" />
          <path
             sodipodi:nodetypes="zsccz"
             style="fill:#e6f8f8;fill-opacity:1;fill-rule:evenodd"
             inkscape:connector-curvature="0"
             d="m 606.32346,404.16361 c 0.69306,-2.38277 1.10769,-1.48464 1.09042,0.45177 -0.0173,1.9364 -0.68479,9.6698 -3.18439,13.37544 l -2.34186,-0.91124 c 2.45869,-4.52025 3.74275,-10.5332 4.43583,-12.91597 z"
             class="fil0"
             id="_121328256-7-4-0-9-2-3-6-2-1-8-0-9-7" />
          <path
             sodipodi:nodetypes="zsccz"
             style="fill:#e6f8f8;fill-opacity:1;fill-rule:evenodd"
             inkscape:connector-curvature="0"
             d="m 616.23986,408.74929 c 1.97483,-2.74746 1.68592,-0.85379 0.73112,0.87144 -1.90574,3.44347 -6.78127,8.56284 -10.45317,11.09282 l -1.81005,-2.22295 c 4.56981,-3.0276 9.55727,-6.99386 11.5321,-9.74131 z"
             class="fil0"
             id="_121328256-7-4-9-4-8-5-4-4-9-6-3-4-9" />
          <path
             sodipodi:nodetypes="zsccz"
             style="fill:#e6f8f8;fill-opacity:1;fill-rule:evenodd"
             inkscape:connector-curvature="0"
             d="m 620.57402,422.83438 c 3.26771,-0.68849 2.01462,0.54886 0.19504,1.25643 -1.95459,0.76009 -8.97704,2.72707 -13.41086,2.84043 l 0.0482,-2.81854 c 5.21657,-0.004 9.89997,-0.58983 13.16768,-1.27832 z"
             class="fil0"
             id="_121328256-7-4-9-1-6-1-3-1-3-4-9-9-9-0" />
          <path
             sodipodi:nodetypes="zsccz"
             style="fill:#e6f8f8;fill-opacity:1;fill-rule:evenodd"
             inkscape:connector-curvature="0"
             d="m 618.52495,431.94223 c 2.33773,0.97684 1.29076,0.9646 -0.16672,0.78469 -1.9562,-0.24148 -6.35126,-1.63273 -9.5521,-2.71755 l 0.84515,-2.27755 c 4.44962,2.14866 6.53594,3.23356 8.87367,4.21041 z"
             class="fil0"
             id="_121328256-9-1-9-8-5-01-7-6-5-6-1" />
          <path
             inkscape:transform-center-x="-0.069049672"
             inkscape:transform-center-y="0.95298244"
             sodipodi:nodetypes="zsccz"
             style="fill:#e6f8f8;fill-opacity:1;fill-rule:evenodd"
             inkscape:connector-curvature="0"
             d="m 620.33228,415.59954 c 3.15042,-1.59108 2.24644,-0.0488 0.59347,1.14766 -1.7756,1.28524 -8.39369,5.17131 -12.92484,6.54411 l -0.83108,-2.71301 c 5.37149,-1.49115 10.01203,-3.38767 13.16245,-4.97876 z"
             class="fil0"
             id="_121328256-7-4-9-1-7-6-6-7-8-3-7-0-3-2-0" />
        </g>
      </g>
    </g>
  </g>
</svg>
