<?xml version="1.0" encoding="UTF-8" standalone="no"?>
<!-- Created with Inkscape (http://www.inkscape.org/) -->

<svg
   xmlns:dc="http://purl.org/dc/elements/1.1/"
   xmlns:cc="http://creativecommons.org/ns#"
   xmlns:rdf="http://www.w3.org/1999/02/22-rdf-syntax-ns#"
   xmlns:svg="http://www.w3.org/2000/svg"
   xmlns="http://www.w3.org/2000/svg"
   xmlns:xlink="http://www.w3.org/1999/xlink"
   xmlns:sodipodi="http://sodipodi.sourceforge.net/DTD/sodipodi-0.dtd"
   xmlns:inkscape="http://www.inkscape.org/namespaces/inkscape"
   width="256"
   height="256"
   id="svg2"
   version="1.1"
   inkscape:version="0.48.3.1 r9886"
   sodipodi:docname="network-workgroup.svg">
  <defs
     id="defs4">
    <linearGradient
       id="linearGradient4297">
      <stop
         id="stop4299"
         offset="0"
         style="stop-color:#f9fcff;stop-opacity:1;" />
      <stop
         id="stop4301"
         offset="1"
         style="stop-color:#a9d5f1;stop-opacity:1;" />
    </linearGradient>
    <linearGradient
       inkscape:collect="always"
       id="linearGradient4245">
      <stop
         style="stop-color:#e6e6e6;stop-opacity:1;"
         offset="0"
         id="stop4247" />
      <stop
         style="stop-color:#e6e6e6;stop-opacity:0;"
         offset="1"
         id="stop4249" />
    </linearGradient>
    <inkscape:path-effect
       effect="skeletal"
       id="path-effect4097"
       is_visible="true"
       pattern="m -1.1327561,797.96393 c 0,-2.76 2.24,-5 5,-5 2.76,0 5,2.24 5,5 0,2.76 -2.24,5 -5,5 -2.76,0 -5,-2.24 -5,-5 z"
       copytype="single_stretched"
       prop_scale="0.6"
       scale_y_rel="false"
       spacing="0"
       normal_offset="0"
       tang_offset="0"
       prop_units="false"
       vertical_pattern="false"
       fuse_tolerance="0" />
    <inkscape:path-effect
       effect="skeletal"
       id="path-effect4093"
       is_visible="true"
       pattern="M 0,5 C 0,2.24 2.24,0 5,0 7.76,0 10,2.24 10,5 10,7.76 7.76,10 5,10 2.24,10 0,7.76 0,5 z"
       copytype="single_stretched"
       prop_scale="0.3"
       scale_y_rel="false"
       spacing="0"
       normal_offset="0"
       tang_offset="0"
       prop_units="false"
       vertical_pattern="false"
       fuse_tolerance="0" />
    <inkscape:path-effect
       effect="skeletal"
       id="path-effect4068"
       is_visible="true"
       pattern="m 1.9823231,800.51263 c 0,-2.76 2.24,-5 5,-5 2.76,0 4.9999999,2.24 4.9999999,5 0,2.76 -2.2399999,5 -4.9999999,5 -2.76,0 -5,-2.24 -5,-5 z"
       copytype="single_stretched"
       prop_scale="0.51"
       scale_y_rel="false"
       spacing="0"
       normal_offset="0"
       tang_offset="0"
       prop_units="false"
       vertical_pattern="false"
       fuse_tolerance="0" />
    <linearGradient
       id="linearGradient3815-1">
      <stop
         style="stop-color:#e0f2fe;stop-opacity:1;"
         offset="0"
         id="stop3817-9" />
      <stop
         style="stop-color:#486578;stop-opacity:1;"
         offset="1"
         id="stop3819-2" />
    </linearGradient>
    <inkscape:path-effect
       effect="skeletal"
       id="path-effect4068-0"
       is_visible="true"
       pattern="m 9.0927132,789.71998 c 0,-2.76 2.2399998,-5 4.9999998,-5 2.76,0 5,2.24 5,5 0,2.76 -2.24,5 -5,5 -2.76,0 -4.9999998,-2.24 -4.9999998,-5 z"
       copytype="single_stretched"
       prop_scale="0.51"
       scale_y_rel="false"
       spacing="0"
       normal_offset="0"
       tang_offset="0"
       prop_units="false"
       vertical_pattern="false"
       fuse_tolerance="0" />
    <radialGradient
       inkscape:collect="always"
       xlink:href="#linearGradient4245"
       id="radialGradient4251"
       cx="617.91846"
       cy="520.49854"
       fx="617.91846"
       fy="520.49854"
       r="85.523087"
       gradientUnits="userSpaceOnUse" />
    <radialGradient
       r="85.523087"
       fy="520.49854"
       fx="617.91846"
       cy="520.49854"
       cx="617.91846"
       gradientUnits="userSpaceOnUse"
       id="radialGradient4268"
       xlink:href="#linearGradient3815-1"
       inkscape:collect="always" />
    <linearGradient
       inkscape:collect="always"
       xlink:href="#linearGradient4297"
       id="linearGradient4295"
       x1="628.87885"
       y1="446.86938"
       x2="629.27728"
       y2="515.40112"
       gradientUnits="userSpaceOnUse" />
  </defs>
  <sodipodi:namedview
     id="base"
     pagecolor="#ffffff"
     bordercolor="#666666"
     borderopacity="1.0"
     inkscape:pageopacity="0.0"
     inkscape:pageshadow="2"
     inkscape:zoom="1.2484714"
     inkscape:cx="105.20221"
     inkscape:cy="43.954859"
     inkscape:document-units="px"
     inkscape:current-layer="layer1"
     showgrid="false"
     showguides="true"
     inkscape:guide-bbox="true"
     inkscape:window-width="1914"
     inkscape:window-height="1031"
     inkscape:window-x="0"
     inkscape:window-y="25"
     inkscape:window-maximized="1" />
  <metadata
     id="metadata7">
    <rdf:RDF>
      <cc:Work
         rdf:about="">
        <dc:format>image/svg+xml</dc:format>
        <dc:type
           rdf:resource="http://purl.org/dc/dcmitype/StillImage" />
        <dc:title />
      </cc:Work>
    </rdf:RDF>
  </metadata>
  <g
     inkscape:label="Layer 1"
     inkscape:groupmode="layer"
     id="layer1"
     transform="translate(0,-796.3622)">
    <g
       id="g3099"
       transform="matrix(4.63121,0,0,4.63121,844.44077,-3010.3658)">
      <rect
         ry="7.0402908"
         y="824.61389"
         x="-181.37578"
         height="50.110302"
         width="53.573479"
         id="rect8672-7-4-5-8-1-9-6-8-3"
         style="fill:#ffb380;fill-opacity:1;fill-rule:evenodd;stroke:none" />
      <path
         sodipodi:nodetypes="cccccccc"
         inkscape:connector-curvature="0"
         id="path8889-0-6-5-6-6-0-7-5-6"
         d="m -175.01741,833.16045 -6.20783,7.3196 -0.095,26.4769 c 0.1483,5.8954 3.04693,7.809 8.40685,7.858 4.55088,-0.2047 23.08457,0.1203 27.21944,-0.091 l 13.9548,-12.3245 -11.26777,-1.6674 z"
         style="fill:#cd9067;fill-opacity:1;fill-rule:evenodd;stroke:none" />
      <rect
         ry="3.6016507"
         y="832.49182"
         x="-176.33141"
         height="20.942284"
         width="31.229549"
         id="rect3406-1-0-1-9-6-4-6-4-5-7-0"
         style="fill:#e6f8f8;fill-opacity:1;fill-rule:evenodd;stroke:none" />
      <rect
         ry="2.9452276"
         y="834.49023"
         x="-174.41704"
         height="17.125422"
         width="26.772999"
         id="rect3406-1-0-1-9-6-4-5-5-7-6"
         style="fill:#cd9067;fill-opacity:1;fill-rule:evenodd;stroke:none" />
      <g
         id="g2992-46-9-5-6-3-9-0-6-7"
         style="fill:#e6f8f8;fill-opacity:1;fill-rule:evenodd"
         transform="matrix(3.9454146,0,0,3.6129317,-170.09697,833.95885)">
        <path
           id="_121731384-7-1-1-3-9-2-6-9-8-8"
           class="fil0"
           d="M 0.67062907,3.1466295 0.96315753,3.436604 C 1.4643536,2.1285285 2.9137173,3.0231678 2.3709066,3.891 L 2.767349,4.0396257 C 3.5316128,2.8534265 1.7399119,1.2088624 0.67062907,3.1466295 z"
           inkscape:connector-curvature="0"
           style="fill:#e6f8f8;fill-opacity:1"
           sodipodi:nodetypes="ccccc" />
        <path
           id="_121328256-76-0-5-9-7-1-6-6-2-5"
           class="fil0"
           d="M 0.1777958,2.5586559 C -0.01275712,2.3374532 0.11748395,2.4022267 0.31580842,2.5444209 0.51413288,2.686615 0.81410198,2.8425452 1.1021572,3.1460838 L 0.96046525,3.4267024 C 0.50016423,3.0157207 0.36834871,2.7798588 0.1777958,2.5586559 z"
           inkscape:connector-curvature="0"
           style="fill:#e6f8f8;fill-opacity:1"
           sodipodi:nodetypes="zsccz" />
        <path
           sodipodi:type="arc"
           style="fill:#e6f8f8;fill-opacity:1;stroke:none"
           id="path3582-4-4-1-7-9-7-7-82-7-6"
           sodipodi:cx="11.182829"
           sodipodi:cy="12.753372"
           sodipodi:rx="2.6694496"
           sodipodi:ry="2.6694496"
           d="m 13.844562,12.550547 c 0.112017,1.470034 -0.988873,2.752541 -2.458908,2.864558 -1.4700343,0.112018 -2.7525408,-0.988873 -2.8645582,-2.458907 -0.1120173,-1.470035 0.9888732,-2.752542 2.4589082,-2.864559 1.447376,-0.1102906 2.717609,0.956188 2.859492,2.40081"
           transform="matrix(0.13834256,0,0,0.13834256,0.19919495,1.7915877)"
           sodipodi:start="6.2071318"
           sodipodi:end="12.46847"
           sodipodi:open="true" />
        <path
           id="_121328256-7-8-7-8-8-2-0-9-2-3-2"
           class="fil0"
           d="M 0.4247675,1.3417552 C 0.30865975,1.051719 0.40976238,1.1514637 0.55275704,1.3529974 0.69575091,1.5545312 1.0526419,2.1606454 1.2359221,2.5639276 L 0.96710859,2.750389 C 0.74796061,2.1419236 0.54087506,1.6317917 0.4247675,1.3417552 z"
           inkscape:connector-curvature="0"
           style="fill:#e6f8f8;fill-opacity:1;fill-rule:evenodd"
           sodipodi:nodetypes="zsccz" />
        <path
           id="_121328256-7-9-5-0-47-9-6-8-7-4-8-8-1"
           class="fil0"
           d="M 1.44312,0.58246558 C 1.43361,0.2701971 1.521214,0.39282353 1.5594765,0.63695278 1.6013875,0.90435635 1.7053444,1.7413136 1.7506921,2.2817189 l -0.3164814,0.082874 c 0.003,-0.6467199 0.018418,-1.46985881 0.00891,-1.78212772 z"
           inkscape:connector-curvature="0"
           style="fill:#e6f8f8;fill-opacity:1;fill-rule:evenodd"
           sodipodi:nodetypes="zsccz" />
        <path
           id="_121328256-7-4-0-9-5-9-7-0-9-5-9-5-9"
           class="fil0"
           d="M 2.4423509,0.52194906 C 2.5291241,0.19808085 2.5810366,0.32015476 2.5788735,0.5833539 2.5767086,0.84655178 2.4931372,1.8976838 2.1801821,2.4013588 L 1.8869765,2.2775017 c 0.307833,-0.6143974 0.4686,-1.43168421 0.5553744,-1.75555264 z"
           inkscape:connector-curvature="0"
           style="fill:#e6f8f8;fill-opacity:1;fill-rule:evenodd"
           sodipodi:nodetypes="zsccz" />
        <path
           id="_121328256-7-4-9-4-2-0-3-6-3-9-7-6-2"
           class="fil0"
           d="M 3.6839051,1.1452392 C 3.9311577,0.7718015 3.8949861,1.029192 3.7754429,1.2636867 3.5368401,1.7317274 2.9264141,2.4275569 2.4666837,2.7714357 L 2.2400615,2.4692892 C 2.8122122,2.0577751 3.4366526,1.5186768 3.6839051,1.1452392 z"
           inkscape:connector-curvature="0"
           style="fill:#e6f8f8;fill-opacity:1;fill-rule:evenodd"
           sodipodi:nodetypes="zsccz" />
        <path
           id="_121328256-7-4-9-1-6-5-5-8-7-4-1-3-8-6"
           class="fil0"
           d="m 4.2265513,3.0597007 c 0.4091243,-0.09358 0.2522344,0.074602 0.024419,0.1707759 C 4.0062521,3.3337885 3.127026,3.6011424 2.5719027,3.6165508 l 0.00603,-0.3830989 c 0.653125,-5.32e-4 1.239497,-0.080171 1.6486213,-0.1737512 z"
           inkscape:connector-curvature="0"
           style="fill:#e6f8f8;fill-opacity:1;fill-rule:evenodd"
           sodipodi:nodetypes="zsccz" />
        <path
           id="_121328256-9-1-0-9-3-6-6-5-83-5-0"
           class="fil0"
           d="M 3.9700033,4.2976494 C 4.2626923,4.4304234 4.1316091,4.4287597 3.9491295,4.4043056 3.7042093,4.3714838 3.1539385,4.1823832 2.7531868,4.0349335 L 2.8590012,3.7253663 c 0.5571017,0.2920484 0.8183128,0.4395089 1.1110017,0.572283 z"
           inkscape:connector-curvature="0"
           style="fill:#e6f8f8;fill-opacity:1;fill-rule:evenodd"
           sodipodi:nodetypes="zsccz" />
        <path
           id="_121328256-7-4-9-1-7-6-07-9-1-6-3-0-5-1-5"
           class="fil0"
           d="M 4.1962848,2.076334 C 4.5907234,1.8600715 4.4775437,2.0697011 4.2705883,2.2323244 4.0482794,2.4070154 3.2196806,2.935215 2.6523716,3.1218067 L 2.5483179,2.7530525 C 3.2208399,2.5503733 3.801846,2.2925963 4.1962848,2.076334 z"
           inkscape:connector-curvature="0"
           style="fill:#e6f8f8;fill-opacity:1;fill-rule:evenodd"
           sodipodi:nodetypes="zsccz"
           inkscape:transform-center-y="0.95298244"
           inkscape:transform-center-x="-0.069049672" />
      </g>
      <rect
         ry="3.6016507"
         y="842.2002"
         x="-161.66063"
         height="20.942284"
         width="31.229549"
         id="rect3406-1-0-1-9-6-4-6-4-9-9-8-0"
         style="fill:#e6f8f8;fill-opacity:1;fill-rule:evenodd;stroke:none" />
      <rect
         ry="2.9452276"
         y="844.19873"
         x="-159.74632"
         height="17.125422"
         width="26.772999"
         id="rect3406-1-0-1-9-6-4-5-2-0-6-9"
         style="fill:#cd9067;fill-opacity:1;fill-rule:evenodd;stroke:none" />
      <g
         id="g2992-46-9-5-6-3-9-9-6-8-8"
         style="fill:#e6f8f8;fill-opacity:1;fill-rule:evenodd"
         transform="matrix(3.9454146,0,0,3.6129317,-155.42623,843.66725)">
        <path
           id="_121731384-7-1-1-3-9-2-6-8-2-8-5"
           class="fil0"
           d="M 0.67062907,3.1466295 0.96315753,3.436604 C 1.4643536,2.1285285 2.9137173,3.0231678 2.3709066,3.891 L 2.767349,4.0396257 C 3.5316128,2.8534265 1.7399119,1.2088624 0.67062907,3.1466295 z"
           inkscape:connector-curvature="0"
           style="fill:#e6f8f8;fill-opacity:1"
           sodipodi:nodetypes="ccccc" />
        <path
           id="_121328256-76-0-5-9-7-1-6-2-32-1-1"
           class="fil0"
           d="M 0.1777958,2.5586559 C -0.01275712,2.3374532 0.11748395,2.4022267 0.31580842,2.5444209 0.51413288,2.686615 0.81410198,2.8425452 1.1021572,3.1460838 L 0.96046525,3.4267024 C 0.50016423,3.0157207 0.36834871,2.7798588 0.1777958,2.5586559 z"
           inkscape:connector-curvature="0"
           style="fill:#e6f8f8;fill-opacity:1"
           sodipodi:nodetypes="zsccz" />
        <path
           sodipodi:type="arc"
           style="fill:#e6f8f8;fill-opacity:1;stroke:none"
           id="path3582-4-4-1-7-9-7-7-8-1-8-7"
           sodipodi:cx="11.182829"
           sodipodi:cy="12.753372"
           sodipodi:rx="2.6694496"
           sodipodi:ry="2.6694496"
           d="m 13.844562,12.550547 c 0.112017,1.470034 -0.988873,2.752541 -2.458908,2.864558 -1.4700343,0.112018 -2.7525408,-0.988873 -2.8645582,-2.458907 -0.1120173,-1.470035 0.9888732,-2.752542 2.4589082,-2.864559 1.447376,-0.1102906 2.717609,0.956188 2.859492,2.40081"
           transform="matrix(0.13834256,0,0,0.13834256,0.19919495,1.7915877)"
           sodipodi:start="6.2071318"
           sodipodi:end="12.46847"
           sodipodi:open="true" />
        <path
           id="_121328256-7-8-7-8-8-2-0-9-3-16-9-9"
           class="fil0"
           d="M 0.4247675,1.3417552 C 0.30865975,1.051719 0.40976238,1.1514637 0.55275704,1.3529974 0.69575091,1.5545312 1.0526419,2.1606454 1.2359221,2.5639276 L 0.96710859,2.750389 C 0.74796061,2.1419236 0.54087506,1.6317917 0.4247675,1.3417552 z"
           inkscape:connector-curvature="0"
           style="fill:#e6f8f8;fill-opacity:1;fill-rule:evenodd"
           sodipodi:nodetypes="zsccz" />
        <path
           id="_121328256-7-9-5-0-47-9-6-8-7-4-0-2-3-7"
           class="fil0"
           d="M 1.44312,0.58246558 C 1.43361,0.2701971 1.521214,0.39282353 1.5594765,0.63695278 1.6013875,0.90435635 1.7053444,1.7413136 1.7506921,2.2817189 l -0.3164814,0.082874 c 0.003,-0.6467199 0.018418,-1.46985881 0.00891,-1.78212772 z"
           inkscape:connector-curvature="0"
           style="fill:#e6f8f8;fill-opacity:1;fill-rule:evenodd"
           sodipodi:nodetypes="zsccz" />
        <path
           id="_121328256-7-4-0-9-5-9-7-0-9-5-0-7-9-0"
           class="fil0"
           d="M 2.4423509,0.52194906 C 2.5291241,0.19808085 2.5810366,0.32015476 2.5788735,0.5833539 2.5767086,0.84655178 2.4931372,1.8976838 2.1801821,2.4013588 L 1.8869765,2.2775017 c 0.307833,-0.6143974 0.4686,-1.43168421 0.5553744,-1.75555264 z"
           inkscape:connector-curvature="0"
           style="fill:#e6f8f8;fill-opacity:1;fill-rule:evenodd"
           sodipodi:nodetypes="zsccz" />
        <path
           id="_121328256-7-4-9-4-2-0-3-6-3-9-4-9-4-9"
           class="fil0"
           d="M 3.6839051,1.1452392 C 3.9311577,0.7718015 3.8949861,1.029192 3.7754429,1.2636867 3.5368401,1.7317274 2.9264141,2.4275569 2.4666837,2.7714357 L 2.2400615,2.4692892 C 2.8122122,2.0577751 3.4366526,1.5186768 3.6839051,1.1452392 z"
           inkscape:connector-curvature="0"
           style="fill:#e6f8f8;fill-opacity:1;fill-rule:evenodd"
           sodipodi:nodetypes="zsccz" />
        <path
           id="_121328256-7-4-9-1-6-5-5-8-7-4-1-9-1-0-6"
           class="fil0"
           d="m 4.2265513,3.0597007 c 0.4091243,-0.09358 0.2522344,0.074602 0.024419,0.1707759 C 4.0062521,3.3337885 3.127026,3.6011424 2.5719027,3.6165508 l 0.00603,-0.3830989 c 0.653125,-5.32e-4 1.239497,-0.080171 1.6486213,-0.1737512 z"
           inkscape:connector-curvature="0"
           style="fill:#e6f8f8;fill-opacity:1;fill-rule:evenodd"
           sodipodi:nodetypes="zsccz" />
        <path
           id="_121328256-9-1-0-9-3-6-6-5-9-7-7-9"
           class="fil0"
           d="M 3.9700033,4.2976494 C 4.2626923,4.4304234 4.1316091,4.4287597 3.9491295,4.4043056 3.7042093,4.3714838 3.1539385,4.1823832 2.7531868,4.0349335 L 2.8590012,3.7253663 c 0.5571017,0.2920484 0.8183128,0.4395089 1.1110017,0.572283 z"
           inkscape:connector-curvature="0"
           style="fill:#e6f8f8;fill-opacity:1;fill-rule:evenodd"
           sodipodi:nodetypes="zsccz" />
        <path
           id="_121328256-7-4-9-1-7-6-07-9-1-6-3-0-0-7-9-8"
           class="fil0"
           d="M 4.1962848,2.076334 C 4.5907234,1.8600715 4.4775437,2.0697011 4.2705883,2.2323244 4.0482794,2.4070154 3.2196806,2.935215 2.6523716,3.1218067 L 2.5483179,2.7530525 C 3.2208399,2.5503733 3.801846,2.2925963 4.1962848,2.076334 z"
           inkscape:connector-curvature="0"
           style="fill:#e6f8f8;fill-opacity:1;fill-rule:evenodd"
           sodipodi:nodetypes="zsccz"
           inkscape:transform-center-y="0.95298244"
           inkscape:transform-center-x="-0.069049672" />
      </g>
      <path
         sodipodi:nodetypes="cccccccccccccccccc"
         inkscape:connector-curvature="0"
         id="path3817-0-1"
         d="m -158.87788,863.14015 -6.8117,0.01 c -0.92347,0.034 -1.88434,-0.2013 -1.88434,-1.1547 l -0.0814,-4.0588 -2.06719,-2e-4 c -0.46719,0.019 -0.10187,-0.2293 -0.0535,-0.2894 l 3.11051,-2.8442 c 0.26415,-0.2145 0.47196,-0.018 0.58404,0.067 l 3.12735,2.814 c 0.31379,0.2505 0.12139,0.2448 -0.18727,0.2527 l -1.84846,0 0.0131,2.7296 c -0.0538,0.698 0.70523,0.6602 0.70523,0.6602 l 5.53554,0 c 0.45853,-0.023 0.43415,0.3433 0.42586,0.5684 l -0.008,0.8553 c 0.0392,0.4637 -0.29652,0.3536 -0.56,0.3952 z"
         style="fill:#e6f8f8;fill-opacity:1;fill-rule:evenodd;stroke:none" />
      <path
         sodipodi:nodetypes="cccccccccccccccccc"
         inkscape:connector-curvature="0"
         id="path3817-0-8"
         d="m -148.08191,832.45185 6.8117,-0.01 c 0.92347,-0.034 1.88434,0.2013 1.88434,1.1548 l 0.0814,4.0588 2.06719,10e-5 c 0.46719,-0.019 0.10187,0.2293 0.0535,0.2894 l -3.11051,2.8442 c -0.26415,0.2145 -0.47196,0.018 -0.58405,-0.067 l -3.12735,-2.8139 c -0.31378,-0.2506 -0.12138,-0.2448 0.18728,-0.2528 l 1.84846,0 -0.0131,-2.7296 c 0.0538,-0.698 -0.70524,-0.6601 -0.70524,-0.6601 l -5.53553,0 c -0.45853,0.023 -0.43415,-0.3434 -0.42587,-0.5684 l 0.008,-0.8554 c -0.0392,-0.4636 0.29652,-0.3536 0.56,-0.3952 z"
         style="fill:#e6f8f8;fill-opacity:1;fill-rule:evenodd;stroke:none" />
    </g>
  </g>
</svg>
