<?xml version="1.0" encoding="UTF-8" standalone="no"?>
<!-- Created with Inkscape (http://www.inkscape.org/) -->

<svg
   xmlns:dc="http://purl.org/dc/elements/1.1/"
   xmlns:cc="http://creativecommons.org/ns#"
   xmlns:rdf="http://www.w3.org/1999/02/22-rdf-syntax-ns#"
   xmlns:svg="http://www.w3.org/2000/svg"
   xmlns="http://www.w3.org/2000/svg"
   xmlns:xlink="http://www.w3.org/1999/xlink"
   xmlns:sodipodi="http://sodipodi.sourceforge.net/DTD/sodipodi-0.dtd"
   xmlns:inkscape="http://www.inkscape.org/namespaces/inkscape"
   width="256"
   height="256"
   id="svg2"
   version="1.1"
   inkscape:version="0.48.3.1 r9886"
   sodipodi:docname="other-desktop.svg">
  <defs
     id="defs4">
    <linearGradient
       id="linearGradient3798">
      <stop
         id="stop3800"
         offset="0"
         style="stop-color:#ffffff;stop-opacity:1;" />
      <stop
         id="stop3802"
         offset="1"
         style="stop-color:#d0d0d0;stop-opacity:1;" />
    </linearGradient>
    <linearGradient
       id="linearGradient3779">
      <stop
         style="stop-color:#636363;stop-opacity:1;"
         offset="0"
         id="stop3781" />
      <stop
         style="stop-color:#d0d0d0;stop-opacity:1;"
         offset="1"
         id="stop3783" />
    </linearGradient>
    <linearGradient
       inkscape:collect="always"
       xlink:href="#linearGradient3798"
       id="linearGradient3828"
       x1="39.857143"
       y1="822.54083"
       x2="39.785713"
       y2="840.04077"
       gradientUnits="userSpaceOnUse"
       gradientTransform="translate(303.92857,-142.67857)" />
    <linearGradient
       id="linearGradient3798-5">
      <stop
         id="stop3800-6"
         offset="0"
         style="stop-color:#ffffff;stop-opacity:1;" />
      <stop
         id="stop3802-1"
         offset="1"
         style="stop-color:#d0d0d0;stop-opacity:1;" />
    </linearGradient>
    <linearGradient
       y2="840.04077"
       x2="39.785713"
       y1="822.54083"
       x1="39.857143"
       gradientTransform="matrix(-1,0,0,1,556.0326,-143.1877)"
       gradientUnits="userSpaceOnUse"
       id="linearGradient3855"
       xlink:href="#linearGradient3798-5"
       inkscape:collect="always" />
    <linearGradient
       id="linearGradient3779-9">
      <stop
         style="stop-color:#636363;stop-opacity:1;"
         offset="0"
         id="stop3781-7" />
      <stop
         style="stop-color:#d0d0d0;stop-opacity:1;"
         offset="1"
         id="stop3783-7" />
    </linearGradient>
    <linearGradient
       id="linearGradient3798-8">
      <stop
         id="stop3800-68"
         offset="0"
         style="stop-color:#ffffff;stop-opacity:1;" />
      <stop
         id="stop3802-9"
         offset="1"
         style="stop-color:#d0d0d0;stop-opacity:1;" />
    </linearGradient>
    <linearGradient
       id="linearGradient3798-8-3">
      <stop
         id="stop3800-68-3"
         offset="0"
         style="stop-color:#ffffff;stop-opacity:1;" />
      <stop
         id="stop3802-9-5"
         offset="1"
         style="stop-color:#d0d0d0;stop-opacity:1;" />
    </linearGradient>
  </defs>
  <sodipodi:namedview
     id="base"
     pagecolor="#ffffff"
     bordercolor="#666666"
     borderopacity="1.0"
     inkscape:pageopacity="0.0"
     inkscape:pageshadow="2"
     inkscape:zoom="0.98994949"
     inkscape:cx="-82.222927"
     inkscape:cy="137.85842"
     inkscape:document-units="px"
     inkscape:current-layer="layer1"
     showgrid="false"
     showguides="true"
     inkscape:guide-bbox="true"
     inkscape:window-width="1914"
     inkscape:window-height="1031"
     inkscape:window-x="0"
     inkscape:window-y="25"
     inkscape:window-maximized="1"
     inkscape:snap-global="false" />
  <metadata
     id="metadata7">
    <rdf:RDF>
      <cc:Work
         rdf:about="">
        <dc:format>image/svg+xml</dc:format>
        <dc:type
           rdf:resource="http://purl.org/dc/dcmitype/StillImage" />
        <dc:title />
      </cc:Work>
    </rdf:RDF>
  </metadata>
  <g
     inkscape:label="Layer 1"
     inkscape:groupmode="layer"
     id="layer1"
     transform="translate(0,-796.3622)">
    <path
       style="fill:none;stroke:url(#linearGradient3828);stroke-width:2;stroke-linecap:butt;stroke-linejoin:miter;stroke-miterlimit:4;stroke-opacity:1;stroke-dasharray:none"
       d="m 311.96429,698.25506 c 0,0 -0.17858,-14.28572 -0.17858,-15.53572 0,-1.25 1.60715,-3.21428 3.57143,-3.21428 1.96429,0 63.39286,-0.17857 63.39286,-0.17857"
       id="path3820"
       inkscape:connector-curvature="0" />
    <path
       style="fill:none;stroke:url(#linearGradient3855);stroke-width:2;stroke-linecap:butt;stroke-linejoin:miter;stroke-miterlimit:4;stroke-opacity:1;stroke-dasharray:none"
       d="m 547.99689,697.74594 c 0,0 0.17857,-14.28572 0.17857,-15.53572 0,-1.25 -1.60715,-3.21428 -3.57143,-3.21428 -1.96429,0 -63.39286,-0.17857 -63.39286,-0.17857"
       id="path3820-8"
       inkscape:connector-curvature="0" />
    <g
       transform="matrix(5.8179276,0,0,5.8179276,-3485.4613,-2002.7902)"
       id="g3827">
      <rect
         ry="5.6483464"
         y="482.76471"
         x="599.91028"
         height="40.202934"
         width="42.9814"
         id="rect8672-7-4-5-8-1-9-6"
         style="fill:#ffb380;fill-opacity:1;stroke:none" />
      <path
         sodipodi:nodetypes="cccccccc"
         inkscape:connector-curvature="0"
         id="path8889-0-6-5-6-6-0-7"
         d="m 606.07456,491.39917 -6.04352,7.3194 0.0655,15.35988 c -1.00564,7.24441 2.33048,9.14423 8.09126,8.89112 3.65112,-0.1642 14.96517,0.30325 18.28253,0.1335 l 12.13481,-10.47836 -7.91199,-0.88297 z"
         style="fill:#cd9067;fill-opacity:1;stroke:none" />
      <rect
         ry="2.6966949"
         y="490.67514"
         x="605.03333"
         height="15.680296"
         width="23.382769"
         id="rect3406-1-0-1-9-6-4-6-4-5"
         style="fill:#e6f8f8;fill-opacity:1;stroke:none" />
      <rect
         ry="2.2052057"
         y="492.17151"
         x="606.46667"
         height="12.822462"
         width="20.045977"
         id="rect3406-1-0-1-9-6-4-5-5"
         style="fill:#cd9067;fill-opacity:1;stroke:none" />
      <g
         id="g2992-46-9-5-6-3-9-0"
         style="fill:#e6f8f8;fill-opacity:1;fill-rule:evenodd"
         transform="matrix(2.9540841,0,0,2.7051411,609.70127,491.77359)">
        <path
           id="_121731384-7-1-1-3-9-2-6-9"
           class="fil0"
           d="M 0.67062907,3.1466295 0.96315753,3.436604 C 1.4643536,2.1285285 2.9137173,3.0231678 2.3709066,3.891 L 2.767349,4.0396257 C 3.5316128,2.8534265 1.7399119,1.2088624 0.67062907,3.1466295 z"
           inkscape:connector-curvature="0"
           style="fill:#e6f8f8;fill-opacity:1"
           sodipodi:nodetypes="ccccc" />
        <path
           id="_121328256-76-0-5-9-7-1-6-6"
           class="fil0"
           d="M 0.1777958,2.5586559 C -0.01275712,2.3374532 0.11748395,2.4022267 0.31580842,2.5444209 0.51413288,2.686615 0.81410198,2.8425452 1.1021572,3.1460838 L 0.96046525,3.4267024 C 0.50016423,3.0157207 0.36834871,2.7798588 0.1777958,2.5586559 z"
           inkscape:connector-curvature="0"
           style="fill:#e6f8f8;fill-opacity:1"
           sodipodi:nodetypes="zsccz" />
        <path
           sodipodi:type="arc"
           style="fill:#e6f8f8;fill-opacity:1;stroke:none"
           id="path3582-4-4-1-7-9-7-7-82"
           sodipodi:cx="11.182829"
           sodipodi:cy="12.753372"
           sodipodi:rx="2.6694496"
           sodipodi:ry="2.6694496"
           d="m 13.844562,12.550547 c 0.112017,1.470034 -0.988873,2.752541 -2.458908,2.864558 -1.4700343,0.112018 -2.7525408,-0.988873 -2.8645582,-2.458907 -0.1120173,-1.470035 0.9888732,-2.752542 2.4589082,-2.864559 1.447376,-0.1102906 2.717609,0.956188 2.859492,2.40081"
           transform="matrix(0.13834256,0,0,0.13834256,0.19919495,1.7915877)"
           sodipodi:start="6.2071318"
           sodipodi:end="12.46847"
           sodipodi:open="true" />
        <path
           id="_121328256-7-8-7-8-8-2-0-9-2"
           class="fil0"
           d="M 0.4247675,1.3417552 C 0.30865975,1.051719 0.40976238,1.1514637 0.55275704,1.3529974 0.69575091,1.5545312 1.0526419,2.1606454 1.2359221,2.5639276 L 0.96710859,2.750389 C 0.74796061,2.1419236 0.54087506,1.6317917 0.4247675,1.3417552 z"
           inkscape:connector-curvature="0"
           style="fill:#e6f8f8;fill-opacity:1;fill-rule:evenodd"
           sodipodi:nodetypes="zsccz" />
        <path
           id="_121328256-7-9-5-0-47-9-6-8-7-4-8"
           class="fil0"
           d="M 1.44312,0.58246558 C 1.43361,0.2701971 1.521214,0.39282353 1.5594765,0.63695278 1.6013875,0.90435635 1.7053444,1.7413136 1.7506921,2.2817189 l -0.3164814,0.082874 c 0.003,-0.6467199 0.018418,-1.46985881 0.00891,-1.78212772 z"
           inkscape:connector-curvature="0"
           style="fill:#e6f8f8;fill-opacity:1;fill-rule:evenodd"
           sodipodi:nodetypes="zsccz" />
        <path
           id="_121328256-7-4-0-9-5-9-7-0-9-5-9"
           class="fil0"
           d="M 2.4423509,0.52194906 C 2.5291241,0.19808085 2.5810366,0.32015476 2.5788735,0.5833539 2.5767086,0.84655178 2.4931372,1.8976838 2.1801821,2.4013588 L 1.8869765,2.2775017 c 0.307833,-0.6143974 0.4686,-1.43168421 0.5553744,-1.75555264 z"
           inkscape:connector-curvature="0"
           style="fill:#e6f8f8;fill-opacity:1;fill-rule:evenodd"
           sodipodi:nodetypes="zsccz" />
        <path
           id="_121328256-7-4-9-4-2-0-3-6-3-9-7"
           class="fil0"
           d="M 3.6839051,1.1452392 C 3.9311577,0.7718015 3.8949861,1.029192 3.7754429,1.2636867 3.5368401,1.7317274 2.9264141,2.4275569 2.4666837,2.7714357 L 2.2400615,2.4692892 C 2.8122122,2.0577751 3.4366526,1.5186768 3.6839051,1.1452392 z"
           inkscape:connector-curvature="0"
           style="fill:#e6f8f8;fill-opacity:1;fill-rule:evenodd"
           sodipodi:nodetypes="zsccz" />
        <path
           id="_121328256-7-4-9-1-6-5-5-8-7-4-1-3"
           class="fil0"
           d="m 4.2265513,3.0597007 c 0.4091243,-0.09358 0.2522344,0.074602 0.024419,0.1707759 C 4.0062521,3.3337885 3.127026,3.6011424 2.5719027,3.6165508 l 0.00603,-0.3830989 c 0.653125,-5.32e-4 1.239497,-0.080171 1.6486213,-0.1737512 z"
           inkscape:connector-curvature="0"
           style="fill:#e6f8f8;fill-opacity:1;fill-rule:evenodd"
           sodipodi:nodetypes="zsccz" />
        <path
           id="_121328256-9-1-0-9-3-6-6-5-83"
           class="fil0"
           d="M 3.9700033,4.2976494 C 4.2626923,4.4304234 4.1316091,4.4287597 3.9491295,4.4043056 3.7042093,4.3714838 3.1539385,4.1823832 2.7531868,4.0349335 L 2.8590012,3.7253663 c 0.5571017,0.2920484 0.8183128,0.4395089 1.1110017,0.572283 z"
           inkscape:connector-curvature="0"
           style="fill:#e6f8f8;fill-opacity:1;fill-rule:evenodd"
           sodipodi:nodetypes="zsccz" />
        <path
           id="_121328256-7-4-9-1-7-6-07-9-1-6-3-0-5"
           class="fil0"
           d="M 4.1962848,2.076334 C 4.5907234,1.8600715 4.4775437,2.0697011 4.2705883,2.2323244 4.0482794,2.4070154 3.2196806,2.935215 2.6523716,3.1218067 L 2.5483179,2.7530525 C 3.2208399,2.5503733 3.801846,2.2925963 4.1962848,2.076334 z"
           inkscape:connector-curvature="0"
           style="fill:#e6f8f8;fill-opacity:1;fill-rule:evenodd"
           sodipodi:nodetypes="zsccz"
           inkscape:transform-center-y="0.95298244"
           inkscape:transform-center-x="-0.069049672" />
      </g>
      <rect
         ry="2.6966949"
         y="497.94421"
         x="616.01788"
         height="15.680296"
         width="23.382769"
         id="rect3406-1-0-1-9-6-4-6-4-9-9"
         style="fill:#e6f8f8;fill-opacity:1;stroke:none" />
      <rect
         ry="2.2052057"
         y="499.44061"
         x="617.45123"
         height="12.822462"
         width="20.045977"
         id="rect3406-1-0-1-9-6-4-5-2-0"
         style="fill:#cd9067;fill-opacity:1;stroke:none" />
      <g
         id="g2992-46-9-5-6-3-9-9-6"
         style="fill:#e6f8f8;fill-opacity:1;fill-rule:evenodd"
         transform="matrix(2.9540841,0,0,2.7051411,620.68582,499.04269)">
        <path
           id="_121731384-7-1-1-3-9-2-6-8-2"
           class="fil0"
           d="M 0.67062907,3.1466295 0.96315753,3.436604 C 1.4643536,2.1285285 2.9137173,3.0231678 2.3709066,3.891 L 2.767349,4.0396257 C 3.5316128,2.8534265 1.7399119,1.2088624 0.67062907,3.1466295 z"
           inkscape:connector-curvature="0"
           style="fill:#e6f8f8;fill-opacity:1"
           sodipodi:nodetypes="ccccc" />
        <path
           id="_121328256-76-0-5-9-7-1-6-2-32"
           class="fil0"
           d="M 0.1777958,2.5586559 C -0.01275712,2.3374532 0.11748395,2.4022267 0.31580842,2.5444209 0.51413288,2.686615 0.81410198,2.8425452 1.1021572,3.1460838 L 0.96046525,3.4267024 C 0.50016423,3.0157207 0.36834871,2.7798588 0.1777958,2.5586559 z"
           inkscape:connector-curvature="0"
           style="fill:#e6f8f8;fill-opacity:1"
           sodipodi:nodetypes="zsccz" />
        <path
           sodipodi:type="arc"
           style="fill:#e6f8f8;fill-opacity:1;stroke:none"
           id="path3582-4-4-1-7-9-7-7-8-1"
           sodipodi:cx="11.182829"
           sodipodi:cy="12.753372"
           sodipodi:rx="2.6694496"
           sodipodi:ry="2.6694496"
           d="m 13.844562,12.550547 c 0.112017,1.470034 -0.988873,2.752541 -2.458908,2.864558 -1.4700343,0.112018 -2.7525408,-0.988873 -2.8645582,-2.458907 -0.1120173,-1.470035 0.9888732,-2.752542 2.4589082,-2.864559 1.447376,-0.1102906 2.717609,0.956188 2.859492,2.40081"
           transform="matrix(0.13834256,0,0,0.13834256,0.19919495,1.7915877)"
           sodipodi:start="6.2071318"
           sodipodi:end="12.46847"
           sodipodi:open="true" />
        <path
           id="_121328256-7-8-7-8-8-2-0-9-3-16"
           class="fil0"
           d="M 0.4247675,1.3417552 C 0.30865975,1.051719 0.40976238,1.1514637 0.55275704,1.3529974 0.69575091,1.5545312 1.0526419,2.1606454 1.2359221,2.5639276 L 0.96710859,2.750389 C 0.74796061,2.1419236 0.54087506,1.6317917 0.4247675,1.3417552 z"
           inkscape:connector-curvature="0"
           style="fill:#e6f8f8;fill-opacity:1;fill-rule:evenodd"
           sodipodi:nodetypes="zsccz" />
        <path
           id="_121328256-7-9-5-0-47-9-6-8-7-4-0-2"
           class="fil0"
           d="M 1.44312,0.58246558 C 1.43361,0.2701971 1.521214,0.39282353 1.5594765,0.63695278 1.6013875,0.90435635 1.7053444,1.7413136 1.7506921,2.2817189 l -0.3164814,0.082874 c 0.003,-0.6467199 0.018418,-1.46985881 0.00891,-1.78212772 z"
           inkscape:connector-curvature="0"
           style="fill:#e6f8f8;fill-opacity:1;fill-rule:evenodd"
           sodipodi:nodetypes="zsccz" />
        <path
           id="_121328256-7-4-0-9-5-9-7-0-9-5-0-7"
           class="fil0"
           d="M 2.4423509,0.52194906 C 2.5291241,0.19808085 2.5810366,0.32015476 2.5788735,0.5833539 2.5767086,0.84655178 2.4931372,1.8976838 2.1801821,2.4013588 L 1.8869765,2.2775017 c 0.307833,-0.6143974 0.4686,-1.43168421 0.5553744,-1.75555264 z"
           inkscape:connector-curvature="0"
           style="fill:#e6f8f8;fill-opacity:1;fill-rule:evenodd"
           sodipodi:nodetypes="zsccz" />
        <path
           id="_121328256-7-4-9-4-2-0-3-6-3-9-4-9"
           class="fil0"
           d="M 3.6839051,1.1452392 C 3.9311577,0.7718015 3.8949861,1.029192 3.7754429,1.2636867 3.5368401,1.7317274 2.9264141,2.4275569 2.4666837,2.7714357 L 2.2400615,2.4692892 C 2.8122122,2.0577751 3.4366526,1.5186768 3.6839051,1.1452392 z"
           inkscape:connector-curvature="0"
           style="fill:#e6f8f8;fill-opacity:1;fill-rule:evenodd"
           sodipodi:nodetypes="zsccz" />
        <path
           id="_121328256-7-4-9-1-6-5-5-8-7-4-1-9-1"
           class="fil0"
           d="m 4.2265513,3.0597007 c 0.4091243,-0.09358 0.2522344,0.074602 0.024419,0.1707759 C 4.0062521,3.3337885 3.127026,3.6011424 2.5719027,3.6165508 l 0.00603,-0.3830989 c 0.653125,-5.32e-4 1.239497,-0.080171 1.6486213,-0.1737512 z"
           inkscape:connector-curvature="0"
           style="fill:#e6f8f8;fill-opacity:1;fill-rule:evenodd"
           sodipodi:nodetypes="zsccz" />
        <path
           id="_121328256-9-1-0-9-3-6-6-5-9-7"
           class="fil0"
           d="M 3.9700033,4.2976494 C 4.2626923,4.4304234 4.1316091,4.4287597 3.9491295,4.4043056 3.7042093,4.3714838 3.1539385,4.1823832 2.7531868,4.0349335 L 2.8590012,3.7253663 c 0.5571017,0.2920484 0.8183128,0.4395089 1.1110017,0.572283 z"
           inkscape:connector-curvature="0"
           style="fill:#e6f8f8;fill-opacity:1;fill-rule:evenodd"
           sodipodi:nodetypes="zsccz" />
        <path
           id="_121328256-7-4-9-1-7-6-07-9-1-6-3-0-0-7"
           class="fil0"
           d="M 4.1962848,2.076334 C 4.5907234,1.8600715 4.4775437,2.0697011 4.2705883,2.2323244 4.0482794,2.4070154 3.2196806,2.935215 2.6523716,3.1218067 L 2.5483179,2.7530525 C 3.2208399,2.5503733 3.801846,2.2925963 4.1962848,2.076334 z"
           inkscape:connector-curvature="0"
           style="fill:#e6f8f8;fill-opacity:1;fill-rule:evenodd"
           sodipodi:nodetypes="zsccz"
           inkscape:transform-center-y="0.95298244"
           inkscape:transform-center-x="-0.069049672" />
      </g>
    </g>
  </g>
</svg>
