<?xml version="1.0" encoding="UTF-8" standalone="no"?>
<!-- Created with Inkscape (http://www.inkscape.org/) -->

<svg
   xmlns:dc="http://purl.org/dc/elements/1.1/"
   xmlns:cc="http://creativecommons.org/ns#"
   xmlns:rdf="http://www.w3.org/1999/02/22-rdf-syntax-ns#"
   xmlns:svg="http://www.w3.org/2000/svg"
   xmlns="http://www.w3.org/2000/svg"
   xmlns:sodipodi="http://sodipodi.sourceforge.net/DTD/sodipodi-0.dtd"
   xmlns:inkscape="http://www.inkscape.org/namespaces/inkscape"
   width="256"
   height="256"
   id="svg2"
   version="1.1"
   inkscape:version="0.48.3.1 r9886"
   sodipodi:docname="user-desktop.svg">
  <defs
     id="defs4">
    <linearGradient
       id="linearGradient3798">
      <stop
         id="stop3800"
         offset="0"
         style="stop-color:#ffffff;stop-opacity:1;" />
      <stop
         id="stop3802"
         offset="1"
         style="stop-color:#d0d0d0;stop-opacity:1;" />
    </linearGradient>
    <linearGradient
       id="linearGradient3779">
      <stop
         style="stop-color:#636363;stop-opacity:1;"
         offset="0"
         id="stop3781" />
      <stop
         style="stop-color:#d0d0d0;stop-opacity:1;"
         offset="1"
         id="stop3783" />
    </linearGradient>
    <linearGradient
       id="linearGradient3798-5">
      <stop
         id="stop3800-6"
         offset="0"
         style="stop-color:#ffffff;stop-opacity:1;" />
      <stop
         id="stop3802-1"
         offset="1"
         style="stop-color:#d0d0d0;stop-opacity:1;" />
    </linearGradient>
    <linearGradient
       id="linearGradient3779-9">
      <stop
         style="stop-color:#636363;stop-opacity:1;"
         offset="0"
         id="stop3781-7" />
      <stop
         style="stop-color:#d0d0d0;stop-opacity:1;"
         offset="1"
         id="stop3783-7" />
    </linearGradient>
  </defs>
  <sodipodi:namedview
     id="base"
     pagecolor="#ffffff"
     bordercolor="#666666"
     borderopacity="1.0"
     inkscape:pageopacity="0.0"
     inkscape:pageshadow="2"
     inkscape:zoom="1.200813"
     inkscape:cx="48.977564"
     inkscape:cy="70.565383"
     inkscape:document-units="px"
     inkscape:current-layer="layer1"
     showgrid="false"
     showguides="true"
     inkscape:guide-bbox="true"
     inkscape:window-width="1914"
     inkscape:window-height="1031"
     inkscape:window-x="0"
     inkscape:window-y="25"
     inkscape:window-maximized="1"
     inkscape:snap-global="false" />
  <metadata
     id="metadata7">
    <rdf:RDF>
      <cc:Work
         rdf:about="">
        <dc:format>image/svg+xml</dc:format>
        <dc:type
           rdf:resource="http://purl.org/dc/dcmitype/StillImage" />
        <dc:title />
      </cc:Work>
    </rdf:RDF>
  </metadata>
  <g
     inkscape:label="Layer 1"
     inkscape:groupmode="layer"
     id="layer1"
     transform="translate(0,-796.3622)">
    <g
       id="g3045"
       transform="matrix(0.97232737,0,0,0.97232737,-293.02456,48.29706)">
      <rect
         ry="33.615959"
         y="782.30548"
         x="305.35977"
         height="239.26651"
         width="255.80246"
         id="rect8672-7-4-5-8-1-1-6"
         style="fill:#ffb380;fill-opacity:1;stroke:none" />
      <path
         sodipodi:nodetypes="cccccccc"
         inkscape:connector-curvature="0"
         id="path8889-0-6-5-6-6-01-5"
         d="m 343.48528,845.19494 -38.12648,45.27342 -0.0601,81.31611 c -3.15427,40.98483 13.35986,51.73313 46.38456,50.30063 20.93072,-0.9284 85.79055,1.7158 104.80787,0.7558 l 69.56494,-59.28136 -45.35686,-4.99506 z"
         style="fill:#cd9067;fill-opacity:1;stroke:none" />
      <rect
         ry="22.577217"
         y="839.39514"
         x="336.58282"
         height="131.27827"
         width="195.76477"
         id="rect3406-1-0-1-9-6-4-6-0-2"
         style="fill:#e6f8f8;fill-opacity:1;stroke:none" />
      <rect
         ry="18.462379"
         y="851.92322"
         x="348.58276"
         height="107.35197"
         width="167.82855"
         id="rect3406-1-0-1-9-6-4-1-3"
         style="fill:#ffb380;fill-opacity:1;stroke:none" />
      <g
         transform="matrix(5.9514689,0,0,5.9514689,-1350.5333,-2868.4785)"
         style="fill:#e6f8f8;fill-opacity:1"
         id="g5981">
        <path
           id="_121731384-7-1-1-3-9-2-7-1"
           class="fil0"
           d="m 292.8324,636.53772 1.21564,1.10347 c 2.08279,-4.97779 8.10581,-1.5733 5.85009,1.72918 l 1.64747,0.56558 c 3.176,-4.514 -4.26965,-10.77228 -8.7132,-3.39823 z"
           inkscape:connector-curvature="0"
           style="fill:#e6f8f8;fill-opacity:1;fill-rule:evenodd"
           sodipodi:nodetypes="ccccc" />
        <path
           id="_121328256-76-0-5-9-7-1-2-4"
           class="fil0"
           d="m 290.78436,634.30022 c -0.79186,-0.84177 -0.25063,-0.59528 0.57353,-0.0542 0.82417,0.54111 2.07073,1.13449 3.26778,2.28959 l -0.58882,1.06787 c -1.91284,-1.56396 -2.46062,-2.46152 -3.25249,-3.30329 z"
           inkscape:connector-curvature="0"
           style="fill:#e6f8f8;fill-opacity:1;fill-rule:evenodd"
           sodipodi:nodetypes="zsccz" />
        <path
           sodipodi:type="arc"
           style="fill:#e6f8f8;fill-opacity:1;fill-rule:evenodd;stroke:none"
           id="path3582-4-4-1-7-9-7-3-9"
           sodipodi:cx="11.182829"
           sodipodi:cy="12.753372"
           sodipodi:rx="2.6694496"
           sodipodi:ry="2.6694496"
           d="m 13.844562,12.550547 c 0.112017,1.470034 -0.988873,2.752541 -2.458908,2.864558 -1.4700343,0.112018 -2.7525408,-0.988873 -2.8645582,-2.458907 -0.1120173,-1.470035 0.9888732,-2.752542 2.4589082,-2.864559 1.447376,-0.1102906 2.717609,0.956188 2.859492,2.40081"
           transform="matrix(0.57490105,0,0,0.52645368,290.87329,631.38119)"
           sodipodi:start="6.2071318"
           sodipodi:end="12.46847"
           sodipodi:open="true" />
        <path
           id="_121328256-7-8-7-8-8-2-0-4-8"
           class="fil0"
           d="m 291.81069,629.66938 c -0.4825,-1.10371 -0.0624,-0.72414 0.53188,0.0428 0.59423,0.76693 2.07733,3.07346 2.83898,4.60812 l -1.11709,0.70957 c -0.9107,-2.31548 -1.77127,-4.25675 -2.25377,-5.36047 z"
           inkscape:connector-curvature="0"
           style="fill:#e6f8f8;fill-opacity:1;fill-rule:evenodd"
           sodipodi:nodetypes="zsccz" />
        <path
           id="_121328256-7-9-5-0-47-9-6-8-7-9-7"
           class="fil0"
           d="m 296.04259,626.77996 c -0.0395,-1.18832 0.32453,-0.72168 0.48353,0.20734 0.17417,1.01759 0.60618,4.20258 0.79463,6.25905 l -1.31519,0.31538 c 0.0125,-2.46106 0.0765,-5.59346 0.037,-6.78178 z"
           inkscape:connector-curvature="0"
           style="fill:#e6f8f8;fill-opacity:1;fill-rule:evenodd"
           sodipodi:nodetypes="zsccz" />
        <path
           id="_121328256-7-4-0-9-5-9-7-0-9-0-2"
           class="fil0"
           d="m 300.19503,626.54966 c 0.36059,-1.23246 0.57632,-0.76791 0.56733,0.23368 -0.009,1.00158 -0.35628,5.00159 -1.65681,6.9183 l -1.21846,-0.47133 c 1.27924,-2.33805 1.94733,-5.44819 2.30794,-6.68065 z"
           inkscape:connector-curvature="0"
           style="fill:#e6f8f8;fill-opacity:1;fill-rule:evenodd"
           sodipodi:nodetypes="zsccz" />
        <path
           id="_121328256-7-4-9-4-2-0-3-6-3-4-0"
           class="fil0"
           d="m 305.35447,628.92155 c 1.02749,-1.42109 0.87718,-0.44161 0.3804,0.45075 -0.99155,1.7811 -3.52825,4.42903 -5.43873,5.73764 l -0.94175,-1.1498 c 2.37764,-1.56599 4.97259,-3.61749 6.00008,-5.03859 z"
           inkscape:connector-curvature="0"
           style="fill:#e6f8f8;fill-opacity:1;fill-rule:evenodd"
           sodipodi:nodetypes="zsccz" />
        <path
           id="_121328256-7-4-9-1-6-5-5-8-7-4-3-3"
           class="fil0"
           d="m 307.60951,636.20691 c 1.70017,-0.35611 1.04819,0.2839 0.10148,0.64988 -1.01696,0.39315 -4.6707,1.41054 -6.97759,1.46918 l 0.0251,-1.45786 c 2.71415,-0.002 5.1509,-0.30508 6.85107,-0.6612 z"
           inkscape:connector-curvature="0"
           style="fill:#e6f8f8;fill-opacity:1;fill-rule:evenodd"
           sodipodi:nodetypes="zsccz" />
        <path
           id="_121328256-9-1-0-9-3-6-6-2-2"
           class="fil0"
           d="m 306.54339,640.91785 c 1.21631,0.50526 0.67158,0.49893 -0.0867,0.40587 -1.0178,-0.1249 -3.30453,-0.84451 -4.9699,-1.40562 l 0.43972,-1.17804 c 2.31511,1.11137 3.40061,1.67252 4.61692,2.17779 z"
           inkscape:connector-curvature="0"
           style="fill:#e6f8f8;fill-opacity:1;fill-rule:evenodd"
           sodipodi:nodetypes="zsccz" />
        <path
           id="_121328256-7-4-9-1-7-6-07-9-1-6-3-6-3"
           class="fil0"
           d="m 307.48373,632.46477 c 1.63915,-0.82297 1.16881,-0.0252 0.30878,0.59362 -0.92383,0.66477 -4.36719,2.6748 -6.72471,3.38486 l -0.43241,-1.40327 c 2.79475,-0.77128 5.2092,-1.75223 6.84834,-2.57521 z"
           inkscape:connector-curvature="0"
           style="fill:#e6f8f8;fill-opacity:1;fill-rule:evenodd"
           sodipodi:nodetypes="zsccz"
           inkscape:transform-center-y="0.95298244"
           inkscape:transform-center-x="-0.069049672" />
      </g>
    </g>
  </g>
</svg>
