<?xml version="1.0" encoding="UTF-8" standalone="no"?>
<!-- Created with Inkscape (http://www.inkscape.org/) -->

<svg
   xmlns:dc="http://purl.org/dc/elements/1.1/"
   xmlns:cc="http://creativecommons.org/ns#"
   xmlns:rdf="http://www.w3.org/1999/02/22-rdf-syntax-ns#"
   xmlns:svg="http://www.w3.org/2000/svg"
   xmlns="http://www.w3.org/2000/svg"
   xmlns:sodipodi="http://sodipodi.sourceforge.net/DTD/sodipodi-0.dtd"
   xmlns:inkscape="http://www.inkscape.org/namespaces/inkscape"
   width="256"
   height="256"
   viewBox="0 0 256 256"
   id="svg2"
   version="1.1"
   inkscape:version="0.48.5 r10040"
   sodipodi:docname="desktop.svg">
  <defs
     id="defs4">
    <linearGradient
       id="linearGradient3790">
      <stop
         id="stop3792"
         offset="0"
         style="stop-color:#e8b465;stop-opacity:1;" />
      <stop
         id="stop3794"
         offset="1"
         style="stop-color:#673e1d;stop-opacity:1;" />
    </linearGradient>
    <linearGradient
       id="linearGradient3796">
      <stop
         id="stop3804"
         offset="0"
         style="stop-color:#ffffff;stop-opacity:1;" />
      <stop
         style="stop-color:#f1f1f1;stop-opacity:1;"
         offset="0.24649662"
         id="stop3806" />
      <stop
         id="stop3810"
         offset="0.44683689"
         style="stop-color:#7d7d7d;stop-opacity:1;" />
      <stop
         id="stop3808"
         offset="0.68910587"
         style="stop-color:#2f2f2f;stop-opacity:1;" />
      <stop
         style="stop-color:#9a9a9a;stop-opacity:1;"
         offset="1"
         id="stop3800" />
    </linearGradient>
    <linearGradient
       id="linearGradient3820">
      <stop
         style="stop-color:#ffffff;stop-opacity:1;"
         offset="0"
         id="stop3822" />
      <stop
         id="stop3824"
         offset="0.24187069"
         style="stop-color:#f1f1f1;stop-opacity:1;" />
      <stop
         style="stop-color:#7d7d7d;stop-opacity:1;"
         offset="0.44867313"
         id="stop3826" />
      <stop
         style="stop-color:#2f2f2f;stop-opacity:1;"
         offset="0.71069998"
         id="stop3828" />
      <stop
         id="stop3830"
         offset="1"
         style="stop-color:#9a9a9a;stop-opacity:1;" />
    </linearGradient>
  </defs>
  <sodipodi:namedview
     id="base"
     pagecolor="#ffffff"
     bordercolor="#666666"
     borderopacity="1.0"
     inkscape:pageopacity="0.0"
     inkscape:pageshadow="2"
     inkscape:zoom="1.8101477"
     inkscape:cx="266.65902"
     inkscape:cy="113.53587"
     inkscape:document-units="px"
     inkscape:current-layer="layer1"
     showgrid="true"
     units="px"
     inkscape:window-width="1914"
     inkscape:window-height="1031"
     inkscape:window-x="0"
     inkscape:window-y="25"
     inkscape:window-maximized="1"
     inkscape:snap-bbox="true"
     inkscape:bbox-paths="true"
     inkscape:bbox-nodes="true"
     inkscape:snap-grids="true"
     inkscape:snap-global="true">
    <inkscape:grid
       type="xygrid"
       id="grid4136"
       spacingx="2"
       spacingy="2"
       empspacing="8"
       dotted="false" />
  </sodipodi:namedview>
  <metadata
     id="metadata7">
    <rdf:RDF>
      <cc:Work
         rdf:about="">
        <dc:format>image/svg+xml</dc:format>
        <dc:type
           rdf:resource="http://purl.org/dc/dcmitype/StillImage" />
        <dc:title></dc:title>
      </cc:Work>
    </rdf:RDF>
  </metadata>
  <g
     inkscape:label="Capa 1"
     inkscape:groupmode="layer"
     id="layer1"
     transform="translate(0,-796.36216)">
    <rect
       style="fill:#aad400;fill-opacity:1;stroke:none"
       id="rect3107"
       width="15.999534"
       height="15.999534"
       x="175.97995"
       y="812.36865" />
    <rect
       style="fill:#aad400;fill-opacity:1;stroke:none"
       id="rect3107-2"
       width="15.999534"
       height="15.999534"
       x="159.98041"
       y="828.36823" />
    <rect
       style="fill:#aad400;fill-opacity:1;stroke:none"
       id="rect3107-3"
       width="15.999534"
       height="15.999534"
       x="143.98088"
       y="844.36768" />
    <rect
       style="fill:#aad400;fill-opacity:1;stroke:none"
       id="rect3107-4"
       width="15.999534"
       height="15.999534"
       x="127.98135"
       y="860.36725" />
    <rect
       style="fill:#aad400;fill-opacity:1;stroke:none"
       id="rect3107-7"
       width="15.999534"
       height="15.999534"
       x="111.9818"
       y="876.36676" />
    <path
       inkscape:connector-curvature="0"
       style="fill:#7a9900;fill-opacity:1;stroke:none"
       d="m 47.993664,892.36542 0,15.99041 15.990417,0 15.990416,0 15.990417,0 16.035086,0 15.99042,0 15.99041,0 15.99041,0 15.99043,0 0,-15.99041 -15.99043,0 -15.99041,0 -15.99041,0 -15.99042,0 -16.035086,0 -15.990417,0 -15.990416,0 -15.990417,0 z"
       id="rect3107-1" />
    <path
       inkscape:connector-curvature="0"
       style="fill:#8fb200;fill-opacity:1;stroke:none"
       d="m 63.984081,908.35583 0,15.99041 -15.990417,0 0,16.03509 -15.990416,0 0,15.99041 0,15.99042 0,15.9904 15.990416,0 0,15.99044 15.990417,0 0,16.0351 15.990416,0 15.990417,0 16.035086,0 0,-16.0351 0,-95.98717 -32.025503,0 -15.990416,0 z"
       id="rect3107-71" />
    <path
       inkscape:connector-curvature="0"
       style="fill:#aad400;fill-opacity:1;stroke:none"
       d="m 112,908.35583 0,15.99041 0,16.03509 0,15.99041 0,15.99042 0,15.9904 0,15.99044 0,16.0351 15.99042,0 15.99041,0 15.99041,0 0,-16.0351 15.99043,0 0,-15.99044 16.03507,0 0,-15.9904 0,-15.99042 0,-15.99041 -16.03507,0 0,-16.03509 -15.99043,0 0,-15.99041 -15.99041,0 -15.99041,0 -15.99042,0 z"
       id="rect3107-57" />
    <path
       inkscape:connector-curvature="0"
       style="fill:#7b9900;fill-opacity:1;stroke:none"
       d="m 79.974497,1020.3781 0,15.9906 15.990417,0 16.035086,0 15.99042,0 15.99041,0 0,-15.9906 -15.99041,0 -15.99042,0 -16.035086,0 -15.990417,0 z"
       id="rect3107-88" />
    <rect
       style="fill:#aad400;fill-opacity:1;stroke:none"
       id="rect3107-19-1"
       width="15.999534"
       height="15.999534"
       x="-255.99953"
       y="796.36218"
       transform="scale(-1,1)" />
    <rect
       style="fill:#aad400;fill-opacity:1;stroke:none"
       id="rect3107-5-2"
       width="15.999534"
       height="15.999534"
       x="-239.99951"
       y="796.36218"
       transform="scale(-1,1)" />
    <rect
       style="fill:#aad400;fill-opacity:1;stroke:none"
       id="rect3107-77-2"
       width="15.999534"
       height="15.999534"
       x="-255.99953"
       y="812.36218"
       transform="scale(-1,1)" />
    <rect
       style="fill:#aad400;fill-opacity:1;stroke:none"
       id="rect3107-0-5"
       width="15.999534"
       height="15.999534"
       x="-255.99953"
       y="828.36218"
       transform="scale(-1,1)" />
    <rect
       style="fill:#aad400;fill-opacity:1;stroke:none"
       id="rect3107-39-6"
       width="15.999534"
       height="15.999534"
       x="-239.99951"
       y="812.36218"
       transform="scale(-1,1)" />
    <rect
       style="fill:#aad400;fill-opacity:1;stroke:none"
       id="rect3107-14-6"
       width="15.999534"
       height="15.999534"
       x="-223.99951"
       y="796.36218"
       transform="scale(-1,1)" />
    <rect
       style="fill:#aad400;fill-opacity:1;stroke:none"
       id="rect3107-18-6"
       width="15.999534"
       height="15.999534"
       x="-207.99951"
       y="796.36218"
       transform="scale(-1,1)" />
    <rect
       style="fill:#aad400;fill-opacity:1;stroke:none"
       id="rect3107-9-3"
       width="15.999534"
       height="15.999534"
       x="-223.99951"
       y="812.36218"
       transform="scale(-1,1)" />
    <rect
       style="fill:#aad400;fill-opacity:1;stroke:none"
       id="rect3107-50-6"
       width="15.999534"
       height="15.999534"
       x="-239.99951"
       y="828.36218"
       transform="scale(-1,1)" />
    <rect
       style="fill:#aad400;fill-opacity:1;stroke:none"
       id="rect3107-8-5"
       width="15.999534"
       height="15.999534"
       x="-255.99953"
       y="844.36218"
       transform="scale(-1,1)" />
    <rect
       style="fill:#aad400;fill-opacity:1;stroke:none"
       id="rect3107-19-1-6"
       width="15.999534"
       height="15.999534"
       x="0.00045108795"
       y="796.36261" />
    <rect
       style="fill:#aad400;fill-opacity:1;stroke:none"
       id="rect3107-5-2-7"
       width="15.999534"
       height="15.999534"
       x="16.000465"
       y="796.36261" />
    <rect
       style="fill:#aad400;fill-opacity:1;stroke:none"
       id="rect3107-77-2-3"
       width="15.999534"
       height="15.999534"
       x="0.00045108795"
       y="812.36261" />
    <rect
       style="fill:#aad400;fill-opacity:1;stroke:none"
       id="rect3107-0-5-3"
       width="15.999534"
       height="15.999534"
       x="0.00045108795"
       y="828.36261" />
    <rect
       style="fill:#aad400;fill-opacity:1;stroke:none"
       id="rect3107-39-6-6"
       width="15.999534"
       height="15.999534"
       x="16.000465"
       y="812.36261" />
    <rect
       style="fill:#aad400;fill-opacity:1;stroke:none"
       id="rect3107-14-6-8"
       width="15.999534"
       height="15.999534"
       x="32.000465"
       y="796.36261" />
    <rect
       style="fill:#aad400;fill-opacity:1;stroke:none"
       id="rect3107-18-6-5"
       width="15.999534"
       height="15.999534"
       x="48.000465"
       y="796.36261" />
    <rect
       style="fill:#aad400;fill-opacity:1;stroke:none"
       id="rect3107-9-3-2"
       width="15.999534"
       height="15.999534"
       x="32.000465"
       y="812.36261" />
    <rect
       style="fill:#aad400;fill-opacity:1;stroke:none"
       id="rect3107-50-6-1"
       width="15.999534"
       height="15.999534"
       x="16.000465"
       y="828.36261" />
    <rect
       style="fill:#aad400;fill-opacity:1;stroke:none"
       id="rect3107-8-5-6"
       width="15.999534"
       height="15.999534"
       x="0.00045108795"
       y="844.36261" />
    <rect
       style="fill:#aad400;fill-opacity:1;stroke:none"
       id="rect3107-19-1-6-2"
       width="15.999534"
       height="15.999534"
       x="0.00045108795"
       y="-1052.3617"
       transform="scale(1,-1)" />
    <rect
       style="fill:#aad400;fill-opacity:1;stroke:none"
       id="rect3107-5-2-7-1"
       width="15.999534"
       height="15.999534"
       x="16.000465"
       y="-1052.3617"
       transform="scale(1,-1)" />
    <rect
       style="fill:#aad400;fill-opacity:1;stroke:none"
       id="rect3107-77-2-3-0"
       width="15.999534"
       height="15.999534"
       x="0.00045108795"
       y="-1036.3617"
       transform="scale(1,-1)" />
    <rect
       style="fill:#aad400;fill-opacity:1;stroke:none"
       id="rect3107-0-5-3-9"
       width="15.999534"
       height="15.999534"
       x="0.00045108795"
       y="-1020.3617"
       transform="scale(1,-1)" />
    <rect
       style="fill:#aad400;fill-opacity:1;stroke:none"
       id="rect3107-39-6-6-5"
       width="15.999534"
       height="15.999534"
       x="16.000465"
       y="-1036.3617"
       transform="scale(1,-1)" />
    <rect
       style="fill:#aad400;fill-opacity:1;stroke:none"
       id="rect3107-14-6-8-0"
       width="15.999534"
       height="15.999534"
       x="32.000465"
       y="-1052.3617"
       transform="scale(1,-1)" />
    <rect
       style="fill:#aad400;fill-opacity:1;stroke:none"
       id="rect3107-18-6-5-3"
       width="15.999534"
       height="15.999534"
       x="48.000465"
       y="-1052.3617"
       transform="scale(1,-1)" />
    <rect
       style="fill:#aad400;fill-opacity:1;stroke:none"
       id="rect3107-9-3-2-9"
       width="15.999534"
       height="15.999534"
       x="32.000465"
       y="-1036.3617"
       transform="scale(1,-1)" />
    <rect
       style="fill:#aad400;fill-opacity:1;stroke:none"
       id="rect3107-50-6-1-5"
       width="15.999534"
       height="15.999534"
       x="16.000465"
       y="-1020.3617"
       transform="scale(1,-1)" />
    <rect
       style="fill:#aad400;fill-opacity:1;stroke:none"
       id="rect3107-8-5-6-0"
       width="15.999534"
       height="15.999534"
       x="0.00045108795"
       y="-1004.3617"
       transform="scale(1,-1)" />
    <rect
       style="fill:#aad400;fill-opacity:1;stroke:none"
       id="rect3107-19-1-5"
       width="15.999534"
       height="15.999534"
       x="-255.99953"
       y="-1052.3617"
       transform="scale(-1,-1)" />
    <rect
       style="fill:#aad400;fill-opacity:1;stroke:none"
       id="rect3107-5-2-1"
       width="15.999534"
       height="15.999534"
       x="-239.9995"
       y="-1052.3617"
       transform="scale(-1,-1)" />
    <rect
       style="fill:#aad400;fill-opacity:1;stroke:none"
       id="rect3107-77-2-7"
       width="15.999534"
       height="15.999534"
       x="-255.99953"
       y="-1036.3617"
       transform="scale(-1,-1)" />
    <rect
       style="fill:#aad400;fill-opacity:1;stroke:none"
       id="rect3107-0-5-1"
       width="15.999534"
       height="15.999534"
       x="-255.99953"
       y="-1020.3617"
       transform="scale(-1,-1)" />
    <rect
       style="fill:#aad400;fill-opacity:1;stroke:none"
       id="rect3107-39-6-4"
       width="15.999534"
       height="15.999534"
       x="-239.9995"
       y="-1036.3617"
       transform="scale(-1,-1)" />
    <rect
       style="fill:#aad400;fill-opacity:1;stroke:none"
       id="rect3107-14-6-3"
       width="15.999534"
       height="15.999534"
       x="-223.9995"
       y="-1052.3617"
       transform="scale(-1,-1)" />
    <rect
       style="fill:#aad400;fill-opacity:1;stroke:none"
       id="rect3107-18-6-7"
       width="15.999534"
       height="15.999534"
       x="-207.9995"
       y="-1052.3617"
       transform="scale(-1,-1)" />
    <rect
       style="fill:#aad400;fill-opacity:1;stroke:none"
       id="rect3107-9-3-3"
       width="15.999534"
       height="15.999534"
       x="-223.9995"
       y="-1036.3617"
       transform="scale(-1,-1)" />
    <rect
       style="fill:#aad400;fill-opacity:1;stroke:none"
       id="rect3107-50-6-0"
       width="15.999534"
       height="15.999534"
       x="-239.9995"
       y="-1020.3617"
       transform="scale(-1,-1)" />
    <rect
       style="fill:#aad400;fill-opacity:1;stroke:none"
       id="rect3107-8-5-65"
       width="15.999534"
       height="15.999534"
       x="-255.99953"
       y="-1004.3617"
       transform="scale(-1,-1)" />
  </g>
  <g
     inkscape:groupmode="layer"
     id="layer2"
     inkscape:label="Capa 2" />
</svg>
