<?xml version="1.0" encoding="UTF-8" standalone="no"?>
<!-- Created with Inkscape (http://www.inkscape.org/) -->

<svg
   xmlns:dc="http://purl.org/dc/elements/1.1/"
   xmlns:cc="http://creativecommons.org/ns#"
   xmlns:rdf="http://www.w3.org/1999/02/22-rdf-syntax-ns#"
   xmlns:svg="http://www.w3.org/2000/svg"
   xmlns="http://www.w3.org/2000/svg"
   xmlns:sodipodi="http://sodipodi.sourceforge.net/DTD/sodipodi-0.dtd"
   xmlns:inkscape="http://www.inkscape.org/namespaces/inkscape"
   version="1.1"
   width="48"
   height="48"
   id="svg1307"
   inkscape:version="0.48.5 r10040"
   sodipodi:docname="gtk-preferences.svg">
  <sodipodi:namedview
     pagecolor="#ffffff"
     bordercolor="#666666"
     borderopacity="1"
     objecttolerance="10"
     gridtolerance="10"
     guidetolerance="10"
     inkscape:pageopacity="0"
     inkscape:pageshadow="2"
     inkscape:window-width="1914"
     inkscape:window-height="1031"
     id="namedview8"
     showgrid="false"
     inkscape:zoom="4.9166667"
     inkscape:cx="24.40678"
     inkscape:cy="24"
     inkscape:window-x="0"
     inkscape:window-y="25"
     inkscape:window-maximized="1"
     inkscape:current-layer="svg1307" />
  <defs
     id="defs1309" />
  <metadata
     id="metadata1312">
    <rdf:RDF>
      <cc:Work
         rdf:about="">
        <dc:format>image/svg+xml</dc:format>
        <dc:type
           rdf:resource="http://purl.org/dc/dcmitype/StillImage" />
        <dc:title></dc:title>
      </cc:Work>
    </rdf:RDF>
  </metadata>
  <rect
     style="fill:#ffffff;fill-opacity:1;stroke:none"
     id="rect9691"
     width="39.412777"
     height="36.12838"
     x="4.9042444"
     y="7.7788482" />
  <path
     inkscape:connector-curvature="0"
     style="fill:#aad400;fill-opacity:1;stroke:none"
     d="m 4.9070441,1.2190149 0,3.28125 -3.28125,0 0,39.4062501 3.28125,0 0,3.28125 39.4062499,0 0,-3.28125 3.281251,0 0,-39.4062501 -3.281251,0 0,-3.28125 -6.5625,0 -6.5625,0 -26.2812499,0 z m 26.2812499,3.28125 6.5625,0 0,3.2812499 0,3.2812502 -6.5625,0 0,-3.2812502 0,-3.2812499 z m -19.71875,3.2812499 6.5625,0 0,13.1250002 -6.5625,0 0,-13.1250002 z m 16.4375,6.5625002 13.125,0 0,3.28125 3.28125,0 0,3.28125 -3.28125,0 0,3.28125 -9.84375,0 -3.28125,0 0,-3.28125 -3.28125,0 0,-0.40625 0,-2.875 3.28125,0 0,-3.28125 z m -19.7187499,9.84375 12.6249999,0 0.5,0 0,3.3125 3.3125,0 0,3.28125 -3.3125,0 0,3.28125 -13.1249999,0 0,-3.28125 -3.28125,0 0,-3.28125 3.28125,0 0,-3.3125 z m 22.9999999,3.3125 6.5625,0 0,16.40625 -6.5625,0 0,-7.1875 0,-2.65625 0,-6.5625 z m -19.71875,9.84375 6.5625,0 0,6.5625 -6.5625,0 0,-6.5625 z"
     id="rect9498" />
</svg>
