<?xml version="1.0" encoding="UTF-8" standalone="no"?>
<!-- Created with Inkscape (http://www.inkscape.org/) -->

<svg
   xmlns:dc="http://purl.org/dc/elements/1.1/"
   xmlns:cc="http://creativecommons.org/ns#"
   xmlns:rdf="http://www.w3.org/1999/02/22-rdf-syntax-ns#"
   xmlns:svg="http://www.w3.org/2000/svg"
   xmlns="http://www.w3.org/2000/svg"
   xmlns:sodipodi="http://sodipodi.sourceforge.net/DTD/sodipodi-0.dtd"
   xmlns:inkscape="http://www.inkscape.org/namespaces/inkscape"
   width="256"
   height="256"
   id="svg4374"
   version="1.1"
   inkscape:version="0.48.5 r10040"
   sodipodi:docname="help-about.svg">
  <defs
     id="defs4376" />
  <sodipodi:namedview
     id="base"
     pagecolor="#ffffff"
     bordercolor="#666666"
     borderopacity="1.0"
     inkscape:pageopacity="0.0"
     inkscape:pageshadow="2"
     inkscape:zoom="1.2108704"
     inkscape:cx="483.00137"
     inkscape:cy="26.723017"
     inkscape:document-units="px"
     inkscape:current-layer="layer1"
     showgrid="false"
     inkscape:window-width="1914"
     inkscape:window-height="1031"
     inkscape:window-x="0"
     inkscape:window-y="25"
     inkscape:window-maximized="1" />
  <metadata
     id="metadata4379">
    <rdf:RDF>
      <cc:Work
         rdf:about="">
        <dc:format>image/svg+xml</dc:format>
        <dc:type
           rdf:resource="http://purl.org/dc/dcmitype/StillImage" />
        <dc:title></dc:title>
      </cc:Work>
    </rdf:RDF>
  </metadata>
  <g
     inkscape:label="Capa 1"
     inkscape:groupmode="layer"
     id="layer1"
     transform="translate(0,-796.36218)">
    <rect
       style="fill:#aad400;fill-opacity:1;stroke:none"
       id="rect3360-0-43-2"
       width="16"
       height="16"
       x="803.88818"
       y="229.95972"
       transform="matrix(0.00150486,0.99999887,0.99999887,-0.00150486,0,0)" />
    <rect
       style="fill:#aad400;fill-opacity:1;stroke:none"
       id="rect3360-0-43-8"
       width="16"
       height="16"
       x="803.86414"
       y="213.95972"
       transform="matrix(0.00150486,0.99999887,0.99999887,-0.00150486,0,0)" />
    <rect
       style="fill:#aad400;fill-opacity:1;stroke:none"
       id="rect3360-0-43-7"
       width="16"
       height="16"
       x="819.86407"
       y="213.93567"
       transform="matrix(0.00150486,0.99999887,0.99999887,-0.00150486,0,0)" />
    <rect
       style="fill:#aad400;fill-opacity:1;stroke:none"
       id="rect3360-0-43-5"
       width="16"
       height="16"
       x="819.88818"
       y="229.93567"
       transform="matrix(0.00150486,0.99999887,0.99999887,-0.00150486,0,0)" />
    <rect
       style="fill:#aad400;fill-opacity:1;stroke:none"
       id="rect3360-0-43-23"
       width="16"
       height="16"
       x="819.84003"
       y="197.93567"
       transform="matrix(0.00150486,0.99999887,0.99999887,-0.00150486,0,0)" />
    <rect
       style="fill:#aad400;fill-opacity:1;stroke:none"
       id="rect3360-0-43-9"
       width="16"
       height="16"
       x="835.83997"
       y="197.91162"
       transform="matrix(0.00150486,0.99999887,0.99999887,-0.00150486,0,0)" />
    <rect
       style="fill:#aad400;fill-opacity:1;stroke:none"
       id="rect3360-0-43-76"
       width="16"
       height="16"
       x="835.86407"
       y="213.91156"
       transform="matrix(0.00150486,0.99999887,0.99999887,-0.00150486,0,0)" />
    <rect
       style="fill:#aad400;fill-opacity:1;stroke:none"
       id="rect3360-0-43-80"
       width="16"
       height="16"
       x="835.81592"
       y="181.91162"
       transform="matrix(0.00150486,0.99999887,0.99999887,-0.00150486,0,0)" />
    <rect
       style="fill:#aad400;fill-opacity:1;stroke:none"
       id="rect3360-0-43-0"
       width="16"
       height="16"
       x="851.81592"
       y="181.88757"
       transform="matrix(0.00150486,0.99999887,0.99999887,-0.00150486,0,0)" />
    <rect
       style="fill:#aad400;fill-opacity:1;stroke:none"
       id="rect3360-0-43-07"
       width="16"
       height="16"
       x="851.83997"
       y="197.88751"
       transform="matrix(0.00150486,0.99999887,0.99999887,-0.00150486,0,0)" />
    <rect
       style="fill:#aad400;fill-opacity:1;stroke:none"
       id="rect3360-0-43-6"
       width="16"
       height="16"
       x="851.79181"
       y="165.88757"
       transform="matrix(0.00150486,0.99999887,0.99999887,-0.00150486,0,0)" />
    <rect
       style="fill:#aad400;fill-opacity:1;stroke:none"
       id="rect3360-0-43-88"
       width="16"
       height="16"
       x="867.79181"
       y="165.86346"
       transform="matrix(0.00150486,0.99999887,0.99999887,-0.00150486,0,0)" />
    <rect
       style="fill:#aad400;fill-opacity:1;stroke:none"
       id="rect3360-0-43-1"
       width="16"
       height="16"
       x="867.81586"
       y="181.86346"
       transform="matrix(0.00150486,0.99999887,0.99999887,-0.00150486,0,0)" />
    <rect
       style="fill:#aad400;fill-opacity:1;stroke:none"
       id="rect3360-0-43-3"
       width="16"
       height="16"
       x="851.76776"
       y="149.88757"
       transform="matrix(0.00150486,0.99999887,0.99999887,-0.00150486,0,0)" />
    <rect
       style="fill:#aad400;fill-opacity:1;stroke:none"
       id="rect3360-0-43-69"
       width="16"
       height="16"
       x="867.7677"
       y="149.86353"
       transform="matrix(0.00150486,0.99999887,0.99999887,-0.00150486,0,0)" />
    <rect
       style="fill:#aad400;fill-opacity:1;stroke:none"
       id="rect3360-0-43-74"
       width="16"
       height="16"
       x="883.79181"
       y="165.83942"
       transform="matrix(0.00150486,0.99999887,0.99999887,-0.00150486,0,0)" />
    <rect
       style="fill:#aad400;fill-opacity:1;stroke:none"
       id="rect3360-0-43-85"
       width="16"
       height="16"
       x="883.81586"
       y="181.83942"
       transform="matrix(0.00150486,0.99999887,0.99999887,-0.00150486,0,0)" />
    <rect
       style="fill:#aad400;fill-opacity:1;stroke:none"
       id="rect3360-0-43-55"
       width="16"
       height="16"
       x="883.7677"
       y="149.83942"
       transform="matrix(0.00150486,0.99999887,0.99999887,-0.00150486,0,0)" />
    <rect
       style="fill:#aad400;fill-opacity:1;stroke:none"
       id="rect3360-0-43-63"
       width="16"
       height="16"
       x="835.79181"
       y="165.91162"
       transform="matrix(0.00150486,0.99999887,0.99999887,-0.00150486,0,0)" />
    <rect
       style="fill:#aad400;fill-opacity:1;stroke:none"
       id="rect3360-0-43-19"
       width="16"
       height="16"
       x="867.83997"
       y="197.86346"
       transform="matrix(0.00150486,0.99999887,0.99999887,-0.00150486,0,0)" />
    <rect
       style="fill:#aad400;fill-opacity:1;stroke:none"
       id="rect3360-0-43-60"
       width="16"
       height="16"
       x="851.86407"
       y="213.88751"
       transform="matrix(0.00150486,0.99999887,0.99999887,-0.00150486,0,0)" />
    <rect
       style="fill:#aad400;fill-opacity:1;stroke:none"
       id="rect3360-0-43-634"
       width="16"
       height="16"
       x="819.81592"
       y="181.93573"
       transform="matrix(0.00150486,0.99999887,0.99999887,-0.00150486,0,0)" />
    <rect
       style="fill:#aad400;fill-opacity:1;stroke:none"
       id="rect3360-0-43-14"
       width="16"
       height="16"
       x="835.88812"
       y="229.91156"
       transform="matrix(0.00150486,0.99999887,0.99999887,-0.00150486,0,0)" />
    <rect
       style="fill:#aad400;fill-opacity:1;stroke:none"
       id="rect3360-0-43-30"
       width="16"
       height="16"
       x="803.84003"
       y="197.95978"
       transform="matrix(0.00150486,0.99999887,0.99999887,-0.00150486,0,0)" />
    <rect
       style="fill:#aad400;fill-opacity:1;stroke:none"
       id="rect3360-0-43-25"
       width="16"
       height="16"
       x="899.79175"
       y="165.81531"
       transform="matrix(0.00150486,0.99999887,0.99999887,-0.00150486,0,0)" />
    <rect
       style="fill:#aad400;fill-opacity:1;stroke:none"
       id="rect3360-0-43-24"
       width="16"
       height="16"
       x="899.7677"
       y="149.81537"
       transform="matrix(0.00150486,0.99999887,0.99999887,-0.00150486,0,0)" />
    <rect
       style="fill:#aad400;fill-opacity:1;stroke:none"
       id="rect3360-0-43-4"
       width="16"
       height="16"
       x="899.74359"
       y="133.81537"
       transform="matrix(0.00150486,0.99999887,0.99999887,-0.00150486,0,0)" />
    <rect
       style="fill:#aad400;fill-opacity:1;stroke:none"
       id="rect3360-0-43-95"
       width="16"
       height="16"
       x="883.74365"
       y="133.83948"
       transform="matrix(0.00150486,0.99999887,0.99999887,-0.00150486,0,0)" />
    <rect
       style="fill:#aad400;fill-opacity:1;stroke:none"
       id="rect3360-0-43-52"
       width="16"
       height="16"
       x="867.74365"
       y="133.86353"
       transform="matrix(0.00150486,0.99999887,0.99999887,-0.00150486,0,0)" />
    <rect
       style="fill:#aad400;fill-opacity:1;stroke:none"
       id="rect3360-0-43-81"
       width="16"
       height="16"
       x="915.76764"
       y="149.79126"
       transform="matrix(0.00150486,0.99999887,0.99999887,-0.00150486,0,0)" />
    <rect
       style="fill:#aad400;fill-opacity:1;stroke:none"
       id="rect3360-0-43-37"
       width="16"
       height="16"
       x="915.74359"
       y="133.79126"
       transform="matrix(0.00150486,0.99999887,0.99999887,-0.00150486,0,0)" />
    <rect
       style="fill:#aad400;fill-opacity:1;stroke:none"
       id="rect3360-0-43-73"
       width="16"
       height="16"
       x="915.71948"
       y="117.79132"
       transform="matrix(0.00150486,0.99999887,0.99999887,-0.00150486,0,0)" />
    <rect
       style="fill:#aad400;fill-opacity:1;stroke:none"
       id="rect3360-0-43-238"
       width="16"
       height="16"
       x="883.71954"
       y="117.83948"
       transform="matrix(0.00150486,0.99999887,0.99999887,-0.00150486,0,0)" />
    <rect
       style="fill:#aad400;fill-opacity:1;stroke:none"
       id="rect3360-0-43-06"
       width="16"
       height="16"
       x="899.71954"
       y="117.8154"
       transform="matrix(0.00150486,0.99999887,0.99999887,-0.00150486,0,0)" />
    <rect
       style="fill:#aad400;fill-opacity:1;stroke:none"
       id="rect3360-0-43-09"
       width="16"
       height="16"
       x="931.74353"
       y="133.76721"
       transform="matrix(0.00150486,0.99999887,0.99999887,-0.00150486,0,0)" />
    <rect
       style="fill:#aad400;fill-opacity:1;stroke:none"
       id="rect3360-0-43-42"
       width="16"
       height="16"
       x="931.71942"
       y="117.76724"
       transform="matrix(0.00150486,0.99999887,0.99999887,-0.00150486,0,0)" />
    <rect
       style="fill:#aad400;fill-opacity:1;stroke:none"
       id="rect3360-0-43-77"
       width="16"
       height="16"
       x="915.69543"
       y="101.79132"
       transform="matrix(0.00150486,0.99999887,0.99999887,-0.00150486,0,0)" />
    <rect
       style="fill:#aad400;fill-opacity:1;stroke:none"
       id="rect3360-0-43-811"
       width="16"
       height="16"
       x="931.69543"
       y="101.76724"
       transform="matrix(0.00150486,0.99999887,0.99999887,-0.00150486,0,0)" />
    <rect
       style="fill:#aad400;fill-opacity:1;stroke:none"
       id="rect3360-0-43-33"
       width="16"
       height="16"
       x="899.69543"
       y="101.8154"
       transform="matrix(0.00150486,0.99999887,0.99999887,-0.00150486,0,0)" />
    <rect
       style="fill:#aad400;fill-opacity:1;stroke:none"
       id="rect3360-0-43-68"
       width="16"
       height="16"
       x="915.67139"
       y="85.791351"
       transform="matrix(0.00150486,0.99999887,0.99999887,-0.00150486,0,0)" />
    <rect
       style="fill:#aad400;fill-opacity:1;stroke:none"
       id="rect3360-0-43-523"
       width="16"
       height="16"
       x="931.67133"
       y="85.767273"
       transform="matrix(0.00150486,0.99999887,0.99999887,-0.00150486,0,0)" />
    <rect
       style="fill:#aad400;fill-opacity:1;stroke:none"
       id="rect3360-0-43-47"
       width="16"
       height="16"
       x="947.67133"
       y="85.743195"
       transform="matrix(0.00150486,0.99999887,0.99999887,-0.00150486,0,0)" />
    <rect
       style="fill:#aad400;fill-opacity:1;stroke:none"
       id="rect3360-0-43-887"
       width="16"
       height="16"
       x="947.69537"
       y="101.74316"
       transform="matrix(0.00150486,0.99999887,0.99999887,-0.00150486,0,0)" />
    <rect
       style="fill:#aad400;fill-opacity:1;stroke:none"
       id="rect3360-0-43-12"
       width="16"
       height="16"
       x="947.71954"
       y="117.74313"
       transform="matrix(0.00150486,0.99999887,0.99999887,-0.00150486,0,0)" />
    <rect
       style="fill:#aad400;fill-opacity:1;stroke:none"
       id="rect3360-0-43-48"
       width="16"
       height="16"
       x="963.69537"
       y="101.71909"
       transform="matrix(0.00150486,0.99999887,0.99999887,-0.00150486,0,0)" />
    <rect
       style="fill:#aad400;fill-opacity:1;stroke:none"
       id="rect3360-0-43-59"
       width="16"
       height="16"
       x="963.67133"
       y="85.719116"
       transform="matrix(0.00150486,0.99999887,0.99999887,-0.00150486,0,0)" />
    <rect
       style="fill:#aad400;fill-opacity:1;stroke:none"
       id="rect3360-0-43-36"
       width="16"
       height="16"
       x="963.64728"
       y="69.719147"
       transform="matrix(0.00150486,0.99999887,0.99999887,-0.00150486,0,0)" />
    <rect
       style="fill:#aad400;fill-opacity:1;stroke:none"
       id="rect3360-0-43-10"
       width="16"
       height="16"
       x="947.64728"
       y="69.743225"
       transform="matrix(0.00150486,0.99999887,0.99999887,-0.00150486,0,0)" />
    <rect
       style="fill:#aad400;fill-opacity:1;stroke:none"
       id="rect3360-0-43-83"
       width="16"
       height="16"
       x="931.64722"
       y="69.767273"
       transform="matrix(0.00150486,0.99999887,0.99999887,-0.00150486,0,0)" />
    <rect
       style="fill:#aad400;fill-opacity:1;stroke:none"
       id="rect3360-0-43-420"
       width="16"
       height="16"
       x="979.67133"
       y="85.695038"
       transform="matrix(0.00150486,0.99999887,0.99999887,-0.00150486,0,0)" />
    <rect
       style="fill:#aad400;fill-opacity:1;stroke:none"
       id="rect3360-0-43-20"
       width="16"
       height="16"
       x="979.64728"
       y="69.695068"
       transform="matrix(0.00150486,0.99999887,0.99999887,-0.00150486,0,0)" />
    <rect
       style="fill:#aad400;fill-opacity:1;stroke:none"
       id="rect3360-0-43-35"
       width="16"
       height="16"
       x="979.62311"
       y="53.695072"
       transform="matrix(0.00150486,0.99999887,0.99999887,-0.00150486,0,0)" />
    <rect
       style="fill:#aad400;fill-opacity:1;stroke:none"
       id="rect3360-0-43-361"
       width="16"
       height="16"
       x="979.62311"
       y="53.695072"
       transform="matrix(0.00150486,0.99999887,0.99999887,-0.00150486,0,0)" />
    <rect
       style="fill:#aad400;fill-opacity:1;stroke:none"
       id="rect3360-0-43-32"
       width="16"
       height="16"
       x="963.62323"
       y="53.719151"
       transform="matrix(0.00150486,0.99999887,0.99999887,-0.00150486,0,0)" />
    <rect
       style="fill:#aad400;fill-opacity:1;stroke:none"
       id="rect3360-0-43-66"
       width="16"
       height="16"
       x="947.62323"
       y="53.743229"
       transform="matrix(0.00150486,0.99999887,0.99999887,-0.00150486,0,0)" />
    <rect
       style="fill:#aad400;fill-opacity:1;stroke:none"
       id="rect3360-0-43-836"
       width="16"
       height="16"
       x="995.59906"
       y="37.671024"
       transform="matrix(0.00150486,0.99999887,0.99999887,-0.00150486,0,0)" />
    <rect
       style="fill:#aad400;fill-opacity:1;stroke:none"
       id="rect3360-0-43-71"
       width="16"
       height="16"
       x="1011.5749"
       y="21.646946"
       transform="matrix(0.00150486,0.99999887,0.99999887,-0.00150486,0,0)" />
    <rect
       style="fill:#aad400;fill-opacity:1;stroke:none"
       id="rect3360-0-43-91"
       width="16"
       height="16"
       x="1011.5991"
       y="37.646946"
       transform="matrix(0.00150486,0.99999887,0.99999887,-0.00150486,0,0)" />
    <rect
       style="fill:#aad400;fill-opacity:1;stroke:none"
       id="rect3360-0-43-78"
       width="16"
       height="16"
       x="995.57501"
       y="21.671024"
       transform="matrix(0.00150486,0.99999887,0.99999887,-0.00150486,0,0)" />
    <rect
       style="fill:#aad400;fill-opacity:1;stroke:none"
       id="rect3360-0-43-78-0"
       width="16"
       height="16"
       x="1027.551"
       y="5.6228976"
       transform="matrix(0.00150486,0.99999887,0.99999887,-0.00150486,0,0)" />
    <rect
       style="fill:#aad400;fill-opacity:1;stroke:none"
       id="rect3360-0-43-78-3"
       width="16"
       height="16"
       x="1027.575"
       y="21.622868"
       transform="matrix(0.00150486,0.99999887,0.99999887,-0.00150486,0,0)" />
    <rect
       style="fill:#aad400;fill-opacity:1;stroke:none"
       id="rect3360-0-43-78-03"
       width="16"
       height="16"
       x="1027.5991"
       y="37.622868"
       transform="matrix(0.00150486,0.99999887,0.99999887,-0.00150486,0,0)" />
    <rect
       style="fill:#aad400;fill-opacity:1;stroke:none"
       id="rect3360-0-43-78-84"
       width="16"
       height="16"
       x="1027.6232"
       y="53.622837"
       transform="matrix(0.00150486,0.99999887,0.99999887,-0.00150486,0,0)" />
    <rect
       style="fill:#aad400;fill-opacity:1;stroke:none"
       id="rect3360-0-43-78-5"
       width="16"
       height="16"
       x="1027.6713"
       y="85.622803"
       transform="matrix(0.00150486,0.99999887,0.99999887,-0.00150486,0,0)" />
    <rect
       style="fill:#aad400;fill-opacity:1;stroke:none"
       id="rect3360-0-43-78-24"
       width="16"
       height="16"
       x="1027.7194"
       y="117.62277"
       transform="matrix(0.00150486,0.99999887,0.99999887,-0.00150486,0,0)" />
    <rect
       style="fill:#aad400;fill-opacity:1;stroke:none"
       id="rect3360-0-43-78-9"
       width="16"
       height="16"
       x="1027.7437"
       y="133.62274"
       transform="matrix(0.00150486,0.99999887,0.99999887,-0.00150486,0,0)" />
    <rect
       style="fill:#aad400;fill-opacity:1;stroke:none"
       id="rect3360-0-43-78-99"
       width="16"
       height="16"
       x="1027.7675"
       y="149.62274"
       transform="matrix(0.00150486,0.99999887,0.99999887,-0.00150486,0,0)" />
    <rect
       style="fill:#aad400;fill-opacity:1;stroke:none"
       id="rect3360-0-43-78-53"
       width="16"
       height="16"
       x="1027.8158"
       y="181.62268"
       transform="matrix(0.00150486,0.99999887,0.99999887,-0.00150486,0,0)" />
    <rect
       style="fill:#aad400;fill-opacity:1;stroke:none"
       id="rect3360-0-43-78-39"
       width="16"
       height="16"
       x="1027.8398"
       y="197.62268"
       transform="matrix(0.00150486,0.99999887,0.99999887,-0.00150486,0,0)" />
    <rect
       style="fill:#aad400;fill-opacity:1;stroke:none"
       id="rect3360-0-43-78-91"
       width="16"
       height="16"
       x="1027.6953"
       y="101.62277"
       transform="matrix(0.00150486,0.99999887,0.99999887,-0.00150486,0,0)" />
    <rect
       style="fill:#aad400;fill-opacity:1;stroke:none"
       id="rect3360-0-43-78-82"
       width="16"
       height="16"
       x="1027.6472"
       y="69.622833"
       transform="matrix(0.00150486,0.99999887,0.99999887,-0.00150486,0,0)" />
    <rect
       style="fill:#aad400;fill-opacity:1;stroke:none"
       id="rect3360-0-43-78-87"
       width="16"
       height="16"
       x="1027.7917"
       y="165.62268"
       transform="matrix(0.00150486,0.99999887,0.99999887,-0.00150486,0,0)" />
  </g>
</svg>
