<?xml version="1.0" encoding="UTF-8" standalone="no"?>
<!-- Created with Inkscape (http://www.inkscape.org/) -->

<svg
   xmlns:dc="http://purl.org/dc/elements/1.1/"
   xmlns:cc="http://creativecommons.org/ns#"
   xmlns:rdf="http://www.w3.org/1999/02/22-rdf-syntax-ns#"
   xmlns:svg="http://www.w3.org/2000/svg"
   xmlns="http://www.w3.org/2000/svg"
   xmlns:sodipodi="http://sodipodi.sourceforge.net/DTD/sodipodi-0.dtd"
   xmlns:inkscape="http://www.inkscape.org/namespaces/inkscape"
   width="256"
   height="256"
   id="svg4374"
   version="1.1"
   inkscape:version="0.48.5 r10040"
   sodipodi:docname="stock-about.svg">
  <defs
     id="defs4376" />
  <sodipodi:namedview
     id="base"
     pagecolor="#ffffff"
     bordercolor="#666666"
     borderopacity="1.0"
     inkscape:pageopacity="0.0"
     inkscape:pageshadow="2"
     inkscape:zoom="1.2108704"
     inkscape:cx="483.00137"
     inkscape:cy="26.723017"
     inkscape:document-units="px"
     inkscape:current-layer="layer1"
     showgrid="false"
     inkscape:window-width="1914"
     inkscape:window-height="1031"
     inkscape:window-x="0"
     inkscape:window-y="25"
     inkscape:window-maximized="1" />
  <metadata
     id="metadata4379">
    <rdf:RDF>
      <cc:Work
         rdf:about="">
        <dc:format>image/svg+xml</dc:format>
        <dc:type
           rdf:resource="http://purl.org/dc/dcmitype/StillImage" />
        <dc:title />
      </cc:Work>
    </rdf:RDF>
  </metadata>
  <g
     inkscape:label="Capa 1"
     inkscape:groupmode="layer"
     id="layer1"
     transform="translate(0,-796.36218)">
    <rect
       style="fill:#aad400;fill-opacity:1;stroke:none"
       id="rect3360-0-43-2"
       width="16"
       height="16"
       x="803.89191"
       y="232.43729"
       transform="matrix(0.00150486,0.99999887,0.99999887,-0.00150486,0,0)" />
    <rect
       style="fill:#aad400;fill-opacity:1;stroke:none"
       id="rect3360-0-43-8"
       width="16"
       height="16"
       x="803.86786"
       y="216.43729"
       transform="matrix(0.00150486,0.99999887,0.99999887,-0.00150486,0,0)" />
    <rect
       style="fill:#aad400;fill-opacity:1;stroke:none"
       id="rect3360-0-43-7"
       width="16"
       height="16"
       x="819.8678"
       y="216.41324"
       transform="matrix(0.00150486,0.99999887,0.99999887,-0.00150486,0,0)" />
    <rect
       style="fill:#aad400;fill-opacity:1;stroke:none"
       id="rect3360-0-43-5"
       width="16"
       height="16"
       x="819.89191"
       y="232.41324"
       transform="matrix(0.00150486,0.99999887,0.99999887,-0.00150486,0,0)" />
    <rect
       style="fill:#aad400;fill-opacity:1;stroke:none"
       id="rect3360-0-43-23"
       width="16"
       height="16"
       x="819.84375"
       y="200.41324"
       transform="matrix(0.00150486,0.99999887,0.99999887,-0.00150486,0,0)" />
    <rect
       style="fill:#aad400;fill-opacity:1;stroke:none"
       id="rect3360-0-43-9"
       width="16"
       height="16"
       x="835.84369"
       y="200.38919"
       transform="matrix(0.00150486,0.99999887,0.99999887,-0.00150486,0,0)" />
    <rect
       style="fill:#aad400;fill-opacity:1;stroke:none"
       id="rect3360-0-43-76"
       width="16"
       height="16"
       x="835.8678"
       y="216.38913"
       transform="matrix(0.00150486,0.99999887,0.99999887,-0.00150486,0,0)" />
    <rect
       style="fill:#aad400;fill-opacity:1;stroke:none"
       id="rect3360-0-43-80"
       width="16"
       height="16"
       x="835.81964"
       y="184.38919"
       transform="matrix(0.00150486,0.99999887,0.99999887,-0.00150486,0,0)" />
    <rect
       style="fill:#aad400;fill-opacity:1;stroke:none"
       id="rect3360-0-43-0"
       width="16"
       height="16"
       x="851.81964"
       y="184.36514"
       transform="matrix(0.00150486,0.99999887,0.99999887,-0.00150486,0,0)" />
    <rect
       style="fill:#aad400;fill-opacity:1;stroke:none"
       id="rect3360-0-43-07"
       width="16"
       height="16"
       x="851.84369"
       y="200.36508"
       transform="matrix(0.00150486,0.99999887,0.99999887,-0.00150486,0,0)" />
    <rect
       style="fill:#aad400;fill-opacity:1;stroke:none"
       id="rect3360-0-43-6"
       width="16"
       height="16"
       x="851.79553"
       y="168.36511"
       transform="matrix(0.00150486,0.99999887,0.99999887,-0.00150486,0,0)" />
    <rect
       style="fill:#aad400;fill-opacity:1;stroke:none"
       id="rect3360-0-43-88"
       width="16"
       height="16"
       x="867.79553"
       y="168.341"
       transform="matrix(0.00150486,0.99999887,0.99999887,-0.00150486,0,0)" />
    <rect
       style="fill:#aad400;fill-opacity:1;stroke:none"
       id="rect3360-0-43-1"
       width="16"
       height="16"
       x="867.81958"
       y="184.34103"
       transform="matrix(0.00150486,0.99999887,0.99999887,-0.00150486,0,0)" />
    <rect
       style="fill:#aad400;fill-opacity:1;stroke:none"
       id="rect3360-0-43-3"
       width="16"
       height="16"
       x="851.77148"
       y="152.36511"
       transform="matrix(0.00150486,0.99999887,0.99999887,-0.00150486,0,0)" />
    <rect
       style="fill:#aad400;fill-opacity:1;stroke:none"
       id="rect3360-0-43-69"
       width="16"
       height="16"
       x="867.77142"
       y="152.34106"
       transform="matrix(0.00150486,0.99999887,0.99999887,-0.00150486,0,0)" />
    <rect
       style="fill:#aad400;fill-opacity:1;stroke:none"
       id="rect3360-0-43-74"
       width="16"
       height="16"
       x="883.79553"
       y="168.31696"
       transform="matrix(0.00150486,0.99999887,0.99999887,-0.00150486,0,0)" />
    <rect
       style="fill:#aad400;fill-opacity:1;stroke:none"
       id="rect3360-0-43-85"
       width="16"
       height="16"
       x="883.81958"
       y="184.31699"
       transform="matrix(0.00150486,0.99999887,0.99999887,-0.00150486,0,0)" />
    <rect
       style="fill:#aad400;fill-opacity:1;stroke:none"
       id="rect3360-0-43-55"
       width="16"
       height="16"
       x="883.77142"
       y="152.31696"
       transform="matrix(0.00150486,0.99999887,0.99999887,-0.00150486,0,0)" />
    <rect
       style="fill:#aad400;fill-opacity:1;stroke:none"
       id="rect3360-0-43-63"
       width="16"
       height="16"
       x="835.79553"
       y="168.38916"
       transform="matrix(0.00150486,0.99999887,0.99999887,-0.00150486,0,0)" />
    <rect
       style="fill:#aad400;fill-opacity:1;stroke:none"
       id="rect3360-0-43-19"
       width="16"
       height="16"
       x="867.84369"
       y="200.34103"
       transform="matrix(0.00150486,0.99999887,0.99999887,-0.00150486,0,0)" />
    <rect
       style="fill:#aad400;fill-opacity:1;stroke:none"
       id="rect3360-0-43-60"
       width="16"
       height="16"
       x="851.8678"
       y="216.36508"
       transform="matrix(0.00150486,0.99999887,0.99999887,-0.00150486,0,0)" />
    <rect
       style="fill:#aad400;fill-opacity:1;stroke:none"
       id="rect3360-0-43-634"
       width="16"
       height="16"
       x="819.81964"
       y="184.4133"
       transform="matrix(0.00150486,0.99999887,0.99999887,-0.00150486,0,0)" />
    <rect
       style="fill:#aad400;fill-opacity:1;stroke:none"
       id="rect3360-0-43-14"
       width="16"
       height="16"
       x="835.89185"
       y="232.38913"
       transform="matrix(0.00150486,0.99999887,0.99999887,-0.00150486,0,0)" />
    <rect
       style="fill:#aad400;fill-opacity:1;stroke:none"
       id="rect3360-0-43-30"
       width="16"
       height="16"
       x="803.84375"
       y="200.43735"
       transform="matrix(0.00150486,0.99999887,0.99999887,-0.00150486,0,0)" />
    <rect
       style="fill:#aad400;fill-opacity:1;stroke:none"
       id="rect3360-0-43-25"
       width="16"
       height="16"
       x="899.79547"
       y="168.29285"
       transform="matrix(0.00150486,0.99999887,0.99999887,-0.00150486,0,0)" />
    <rect
       style="fill:#aad400;fill-opacity:1;stroke:none"
       id="rect3360-0-43-24"
       width="16"
       height="16"
       x="899.77142"
       y="152.29291"
       transform="matrix(0.00150486,0.99999887,0.99999887,-0.00150486,0,0)" />
    <rect
       style="fill:#aad400;fill-opacity:1;stroke:none"
       id="rect3360-0-43-4"
       width="16"
       height="16"
       x="899.74731"
       y="136.29291"
       transform="matrix(0.00150486,0.99999887,0.99999887,-0.00150486,0,0)" />
    <rect
       style="fill:#aad400;fill-opacity:1;stroke:none"
       id="rect3360-0-43-95"
       width="16"
       height="16"
       x="883.74738"
       y="136.31705"
       transform="matrix(0.00150486,0.99999887,0.99999887,-0.00150486,0,0)" />
    <rect
       style="fill:#aad400;fill-opacity:1;stroke:none"
       id="rect3360-0-43-52"
       width="16"
       height="16"
       x="867.74738"
       y="136.34106"
       transform="matrix(0.00150486,0.99999887,0.99999887,-0.00150486,0,0)" />
    <rect
       style="fill:#aad400;fill-opacity:1;stroke:none"
       id="rect3360-0-43-81"
       width="16"
       height="16"
       x="915.77136"
       y="152.2688"
       transform="matrix(0.00150486,0.99999887,0.99999887,-0.00150486,0,0)" />
    <rect
       style="fill:#aad400;fill-opacity:1;stroke:none"
       id="rect3360-0-43-37"
       width="16"
       height="16"
       x="915.74731"
       y="136.2688"
       transform="matrix(0.00150486,0.99999887,0.99999887,-0.00150486,0,0)" />
    <rect
       style="fill:#aad400;fill-opacity:1;stroke:none"
       id="rect3360-0-43-73"
       width="16"
       height="16"
       x="915.72321"
       y="120.26885"
       transform="matrix(0.00150486,0.99999887,0.99999887,-0.00150486,0,0)" />
    <rect
       style="fill:#aad400;fill-opacity:1;stroke:none"
       id="rect3360-0-43-238"
       width="16"
       height="16"
       x="883.72327"
       y="120.31704"
       transform="matrix(0.00150486,0.99999887,0.99999887,-0.00150486,0,0)" />
    <rect
       style="fill:#aad400;fill-opacity:1;stroke:none"
       id="rect3360-0-43-06"
       width="16"
       height="16"
       x="899.72327"
       y="120.29293"
       transform="matrix(0.00150486,0.99999887,0.99999887,-0.00150486,0,0)" />
    <rect
       style="fill:#aad400;fill-opacity:1;stroke:none"
       id="rect3360-0-43-09"
       width="16"
       height="16"
       x="931.74719"
       y="136.24475"
       transform="matrix(0.00150486,0.99999887,0.99999887,-0.00150486,0,0)" />
    <rect
       style="fill:#aad400;fill-opacity:1;stroke:none"
       id="rect3360-0-43-42"
       width="16"
       height="16"
       x="931.72308"
       y="120.24477"
       transform="matrix(0.00150486,0.99999887,0.99999887,-0.00150486,0,0)" />
    <rect
       style="fill:#aad400;fill-opacity:1;stroke:none"
       id="rect3360-0-43-77"
       width="16"
       height="16"
       x="915.69916"
       y="104.26885"
       transform="matrix(0.00150486,0.99999887,0.99999887,-0.00150486,0,0)" />
    <rect
       style="fill:#aad400;fill-opacity:1;stroke:none"
       id="rect3360-0-43-811"
       width="16"
       height="16"
       x="931.6991"
       y="104.24477"
       transform="matrix(0.00150486,0.99999887,0.99999887,-0.00150486,0,0)" />
    <rect
       style="fill:#aad400;fill-opacity:1;stroke:none"
       id="rect3360-0-43-33"
       width="16"
       height="16"
       x="899.69916"
       y="104.29293"
       transform="matrix(0.00150486,0.99999887,0.99999887,-0.00150486,0,0)" />
    <rect
       style="fill:#aad400;fill-opacity:1;stroke:none"
       id="rect3360-0-43-68"
       width="16"
       height="16"
       x="915.67511"
       y="88.268883"
       transform="matrix(0.00150486,0.99999887,0.99999887,-0.00150486,0,0)" />
    <rect
       style="fill:#aad400;fill-opacity:1;stroke:none"
       id="rect3360-0-43-523"
       width="16"
       height="16"
       x="931.67499"
       y="88.244804"
       transform="matrix(0.00150486,0.99999887,0.99999887,-0.00150486,0,0)" />
    <rect
       style="fill:#aad400;fill-opacity:1;stroke:none"
       id="rect3360-0-43-47"
       width="16"
       height="16"
       x="947.67505"
       y="88.220726"
       transform="matrix(0.00150486,0.99999887,0.99999887,-0.00150486,0,0)" />
    <rect
       style="fill:#aad400;fill-opacity:1;stroke:none"
       id="rect3360-0-43-887"
       width="16"
       height="16"
       x="947.6991"
       y="104.2207"
       transform="matrix(0.00150486,0.99999887,0.99999887,-0.00150486,0,0)" />
    <rect
       style="fill:#aad400;fill-opacity:1;stroke:none"
       id="rect3360-0-43-12"
       width="16"
       height="16"
       x="947.72327"
       y="120.22066"
       transform="matrix(0.00150486,0.99999887,0.99999887,-0.00150486,0,0)" />
    <rect
       style="fill:#aad400;fill-opacity:1;stroke:none"
       id="rect3360-0-43-48"
       width="16"
       height="16"
       x="963.6991"
       y="104.19665"
       transform="matrix(0.00150486,0.99999887,0.99999887,-0.00150486,0,0)" />
    <rect
       style="fill:#aad400;fill-opacity:1;stroke:none"
       id="rect3360-0-43-59"
       width="16"
       height="16"
       x="963.67499"
       y="88.196648"
       transform="matrix(0.00150486,0.99999887,0.99999887,-0.00150486,0,0)" />
    <rect
       style="fill:#aad400;fill-opacity:1;stroke:none"
       id="rect3360-0-43-36"
       width="16"
       height="16"
       x="963.651"
       y="72.196678"
       transform="matrix(0.00150486,0.99999887,0.99999887,-0.00150486,0,0)" />
    <rect
       style="fill:#aad400;fill-opacity:1;stroke:none"
       id="rect3360-0-43-10"
       width="16"
       height="16"
       x="947.651"
       y="72.220757"
       transform="matrix(0.00150486,0.99999887,0.99999887,-0.00150486,0,0)" />
    <rect
       style="fill:#aad400;fill-opacity:1;stroke:none"
       id="rect3360-0-43-83"
       width="16"
       height="16"
       x="931.65088"
       y="72.244804"
       transform="matrix(0.00150486,0.99999887,0.99999887,-0.00150486,0,0)" />
    <rect
       style="fill:#aad400;fill-opacity:1;stroke:none"
       id="rect3360-0-43-420"
       width="16"
       height="16"
       x="979.67505"
       y="88.172569"
       transform="matrix(0.00150486,0.99999887,0.99999887,-0.00150486,0,0)" />
    <rect
       style="fill:#aad400;fill-opacity:1;stroke:none"
       id="rect3360-0-43-20"
       width="16"
       height="16"
       x="979.651"
       y="72.1726"
       transform="matrix(0.00150486,0.99999887,0.99999887,-0.00150486,0,0)" />
    <rect
       style="fill:#aad400;fill-opacity:1;stroke:none"
       id="rect3360-0-43-35"
       width="16"
       height="16"
       x="979.62683"
       y="56.172604"
       transform="matrix(0.00150486,0.99999887,0.99999887,-0.00150486,0,0)" />
    <rect
       style="fill:#aad400;fill-opacity:1;stroke:none"
       id="rect3360-0-43-361"
       width="16"
       height="16"
       x="979.62683"
       y="56.172604"
       transform="matrix(0.00150486,0.99999887,0.99999887,-0.00150486,0,0)" />
    <rect
       style="fill:#aad400;fill-opacity:1;stroke:none"
       id="rect3360-0-43-32"
       width="16"
       height="16"
       x="963.62689"
       y="56.196682"
       transform="matrix(0.00150486,0.99999887,0.99999887,-0.00150486,0,0)" />
    <rect
       style="fill:#aad400;fill-opacity:1;stroke:none"
       id="rect3360-0-43-66"
       width="16"
       height="16"
       x="947.62695"
       y="56.22076"
       transform="matrix(0.00150486,0.99999887,0.99999887,-0.00150486,0,0)" />
    <rect
       style="fill:#aad400;fill-opacity:1;stroke:none"
       id="rect3360-0-43-836"
       width="16"
       height="16"
       x="995.60278"
       y="40.148556"
       transform="matrix(0.00150486,0.99999887,0.99999887,-0.00150486,0,0)" />
    <rect
       style="fill:#aad400;fill-opacity:1;stroke:none"
       id="rect3360-0-43-71"
       width="16"
       height="16"
       x="1011.5786"
       y="24.124477"
       transform="matrix(0.00150486,0.99999887,0.99999887,-0.00150486,0,0)" />
    <rect
       style="fill:#aad400;fill-opacity:1;stroke:none"
       id="rect3360-0-43-91"
       width="16"
       height="16"
       x="1011.6028"
       y="40.124477"
       transform="matrix(0.00150486,0.99999887,0.99999887,-0.00150486,0,0)" />
    <rect
       style="fill:#aad400;fill-opacity:1;stroke:none"
       id="rect3360-0-43-78"
       width="16"
       height="16"
       x="995.57874"
       y="24.148556"
       transform="matrix(0.00150486,0.99999887,0.99999887,-0.00150486,0,0)" />
    <rect
       style="fill:#aad400;fill-opacity:1;stroke:none"
       id="rect3360-0-43-78-0"
       width="16"
       height="16"
       x="1027.5547"
       y="8.1004286"
       transform="matrix(0.00150486,0.99999887,0.99999887,-0.00150486,0,0)" />
    <rect
       style="fill:#aad400;fill-opacity:1;stroke:none"
       id="rect3360-0-43-78-3"
       width="16"
       height="16"
       x="1027.5786"
       y="24.100399"
       transform="matrix(0.00150486,0.99999887,0.99999887,-0.00150486,0,0)" />
    <rect
       style="fill:#aad400;fill-opacity:1;stroke:none"
       id="rect3360-0-43-78-03"
       width="16"
       height="16"
       x="1027.6028"
       y="40.100399"
       transform="matrix(0.00150486,0.99999887,0.99999887,-0.00150486,0,0)" />
    <rect
       style="fill:#aad400;fill-opacity:1;stroke:none"
       id="rect3360-0-43-78-84"
       width="16"
       height="16"
       x="1027.627"
       y="56.100368"
       transform="matrix(0.00150486,0.99999887,0.99999887,-0.00150486,0,0)" />
    <rect
       style="fill:#aad400;fill-opacity:1;stroke:none"
       id="rect3360-0-43-78-5"
       width="16"
       height="16"
       x="1027.675"
       y="88.100334"
       transform="matrix(0.00150486,0.99999887,0.99999887,-0.00150486,0,0)" />
    <rect
       style="fill:#aad400;fill-opacity:1;stroke:none"
       id="rect3360-0-43-78-24"
       width="16"
       height="16"
       x="1027.723"
       y="120.1003"
       transform="matrix(0.00150486,0.99999887,0.99999887,-0.00150486,0,0)" />
    <rect
       style="fill:#aad400;fill-opacity:1;stroke:none"
       id="rect3360-0-43-78-9"
       width="16"
       height="16"
       x="1027.7473"
       y="136.10028"
       transform="matrix(0.00150486,0.99999887,0.99999887,-0.00150486,0,0)" />
    <rect
       style="fill:#aad400;fill-opacity:1;stroke:none"
       id="rect3360-0-43-78-99"
       width="16"
       height="16"
       x="1027.7711"
       y="152.10028"
       transform="matrix(0.00150486,0.99999887,0.99999887,-0.00150486,0,0)" />
    <rect
       style="fill:#aad400;fill-opacity:1;stroke:none"
       id="rect3360-0-43-78-53"
       width="16"
       height="16"
       x="1027.8195"
       y="184.10025"
       transform="matrix(0.00150486,0.99999887,0.99999887,-0.00150486,0,0)" />
    <rect
       style="fill:#aad400;fill-opacity:1;stroke:none"
       id="rect3360-0-43-78-39"
       width="16"
       height="16"
       x="1027.8435"
       y="200.10025"
       transform="matrix(0.00150486,0.99999887,0.99999887,-0.00150486,0,0)" />
    <rect
       style="fill:#aad400;fill-opacity:1;stroke:none"
       id="rect3360-0-43-78-91"
       width="16"
       height="16"
       x="1027.699"
       y="104.1003"
       transform="matrix(0.00150486,0.99999887,0.99999887,-0.00150486,0,0)" />
    <rect
       style="fill:#aad400;fill-opacity:1;stroke:none"
       id="rect3360-0-43-78-82"
       width="16"
       height="16"
       x="1027.6509"
       y="72.100365"
       transform="matrix(0.00150486,0.99999887,0.99999887,-0.00150486,0,0)" />
    <rect
       style="fill:#aad400;fill-opacity:1;stroke:none"
       id="rect3360-0-43-78-87"
       width="16"
       height="16"
       x="1027.7954"
       y="168.10022"
       transform="matrix(0.00150486,0.99999887,0.99999887,-0.00150486,0,0)" />
  </g>
</svg>
