<?xml version="1.0" encoding="UTF-8" standalone="no"?>
<!-- Created with Inkscape (http://www.inkscape.org/) -->

<svg
   xmlns:dc="http://purl.org/dc/elements/1.1/"
   xmlns:cc="http://creativecommons.org/ns#"
   xmlns:rdf="http://www.w3.org/1999/02/22-rdf-syntax-ns#"
   xmlns:svg="http://www.w3.org/2000/svg"
   xmlns="http://www.w3.org/2000/svg"
   xmlns:xlink="http://www.w3.org/1999/xlink"
   xmlns:sodipodi="http://sodipodi.sourceforge.net/DTD/sodipodi-0.dtd"
   xmlns:inkscape="http://www.inkscape.org/namespaces/inkscape"
   width="256"
   height="256"
   id="svg2"
   version="1.1"
   inkscape:version="0.48.3.1 r9886"
   sodipodi:docname="empty.svg">
  <defs
     id="defs4">
    <linearGradient
       inkscape:collect="always"
       id="linearGradient4019">
      <stop
         style="stop-color:#ffffff;stop-opacity:1;"
         offset="0"
         id="stop4021" />
      <stop
         style="stop-color:#ffffff;stop-opacity:0;"
         offset="1"
         id="stop4023" />
    </linearGradient>
    <linearGradient
       inkscape:collect="always"
       id="linearGradient3977">
      <stop
         style="stop-color:#000000;stop-opacity:1;"
         offset="0"
         id="stop3979" />
      <stop
         style="stop-color:#000000;stop-opacity:0;"
         offset="1"
         id="stop3981" />
    </linearGradient>
    <linearGradient
       id="linearGradient3864">
      <stop
         style="stop-color:#ffffff;stop-opacity:1;"
         offset="0"
         id="stop3866" />
      <stop
         style="stop-color:#d5d5d5;stop-opacity:0;"
         offset="1"
         id="stop3868" />
    </linearGradient>
    <linearGradient
       id="linearGradient3815">
      <stop
         style="stop-color:#ffffff;stop-opacity:1;"
         offset="0"
         id="stop3817" />
      <stop
         style="stop-color:#a5a5a5;stop-opacity:1;"
         offset="1"
         id="stop3819" />
    </linearGradient>
    <linearGradient
       id="linearGradient3805">
      <stop
         style="stop-color:#989898;stop-opacity:1;"
         offset="0"
         id="stop3807" />
      <stop
         style="stop-color:#2a2a2a;stop-opacity:0.94968551;"
         offset="1"
         id="stop3809" />
    </linearGradient>
    <linearGradient
       id="linearGradient3927">
      <stop
         id="stop3929"
         offset="0"
         style="stop-color:#9d9d9d;stop-opacity:1;" />
      <stop
         id="stop3931"
         offset="1"
         style="stop-color:#ffffff;stop-opacity:1;" />
    </linearGradient>
    <linearGradient
       id="linearGradient3909">
      <stop
         style="stop-color:#909090;stop-opacity:1;"
         offset="0"
         id="stop3911" />
      <stop
         style="stop-color:#cfcfcf;stop-opacity:1;"
         offset="1"
         id="stop3913" />
    </linearGradient>
    <linearGradient
       inkscape:collect="always"
       xlink:href="#linearGradient3805"
       id="linearGradient3811"
       x1="141.3316"
       y1="860.94348"
       x2="141.74571"
       y2="895.38562"
       gradientUnits="userSpaceOnUse"
       gradientTransform="translate(-20.785215,229.28139)" />
    <linearGradient
       inkscape:collect="always"
       xlink:href="#linearGradient3864"
       id="linearGradient3900"
       gradientUnits="userSpaceOnUse"
       gradientTransform="translate(-17.035045,1027.8709)"
       x1="88.986542"
       y1="81.555557"
       x2="88.84317"
       y2="129.87335" />
    <linearGradient
       inkscape:collect="always"
       xlink:href="#linearGradient3909"
       id="linearGradient3903"
       gradientUnits="userSpaceOnUse"
       gradientTransform="translate(-16.217264,228.25405)"
       x1="107.04288"
       y1="1026.5909"
       x2="113.80436"
       y2="879.61139" />
    <linearGradient
       inkscape:collect="always"
       xlink:href="#linearGradient3815"
       id="linearGradient3922"
       x1="188.3951"
       y1="277.65305"
       x2="179.10686"
       y2="341.3754"
       gradientUnits="userSpaceOnUse"
       gradientTransform="matrix(0.87018857,0,0,0.96198742,147.71417,785.5161)" />
    <linearGradient
       id="linearGradient3815-1">
      <stop
         style="stop-color:#e0f2fe;stop-opacity:1;"
         offset="0"
         id="stop3817-9" />
      <stop
         style="stop-color:#01131f;stop-opacity:1;"
         offset="1"
         id="stop3819-2" />
    </linearGradient>
    <linearGradient
       y2="327.96552"
       x2="195.48367"
       y1="272.6918"
       x1="205.841"
       gradientTransform="matrix(0.87113587,0,0,0.99710516,81.361656,886.06486)"
       gradientUnits="userSpaceOnUse"
       id="linearGradient3939"
       xlink:href="#linearGradient3815-1"
       inkscape:collect="always" />
    <linearGradient
       inkscape:collect="always"
       xlink:href="#linearGradient3977"
       id="linearGradient3983"
       x1="114.40766"
       y1="858.7608"
       x2="252.52723"
       y2="932.05042"
       gradientUnits="userSpaceOnUse"
       gradientTransform="translate(-16.820569,249.10462)" />
    <radialGradient
       inkscape:collect="always"
       xlink:href="#linearGradient4019"
       id="radialGradient4025"
       cx="120.92171"
       cy="141.02525"
       fx="120.92171"
       fy="141.02525"
       r="127.60499"
       gradientTransform="matrix(0.67948535,0.00596595,-0.00506566,0.54621211,39.471564,63.274139)"
       gradientUnits="userSpaceOnUse" />
    <filter
       inkscape:collect="always"
       id="filter3862"
       x="-0.20169965"
       width="1.4033993"
       y="-0.18064831"
       height="1.3612966">
      <feGaussianBlur
         inkscape:collect="always"
         stdDeviation="3.884344"
         id="feGaussianBlur3864" />
    </filter>
    <filter
       inkscape:collect="always"
       id="filter3880"
       x="-0.84898819"
       width="2.6979764"
       y="-0.63366594"
       height="2.2673319">
      <feGaussianBlur
         inkscape:collect="always"
         stdDeviation="20.637391"
         id="feGaussianBlur3882" />
    </filter>
    <linearGradient
       inkscape:collect="always"
       xlink:href="#linearGradient3815"
       id="linearGradient3995"
       gradientUnits="userSpaceOnUse"
       gradientTransform="translate(14.417631,821.19256)"
       x1="401.29074"
       y1="22.914968"
       x2="335.61041"
       y2="452.23996" />
    <linearGradient
       inkscape:collect="always"
       xlink:href="#linearGradient3927"
       id="linearGradient3997"
       gradientUnits="userSpaceOnUse"
       x1="419.11514"
       y1="-27.717825"
       x2="404.26071"
       y2="81.883369" />
    <linearGradient
       inkscape:collect="always"
       xlink:href="#linearGradient3815"
       id="linearGradient3042"
       gradientUnits="userSpaceOnUse"
       gradientTransform="matrix(1.2064957,0,0,1.2064957,-326.94029,775.45566)"
       x1="401.29074"
       y1="22.914968"
       x2="335.61041"
       y2="452.23996" />
  </defs>
  <sodipodi:namedview
     id="base"
     pagecolor="#ffffff"
     bordercolor="#666666"
     borderopacity="1.0"
     inkscape:pageopacity="0.0"
     inkscape:pageshadow="2"
     inkscape:zoom="0.88280259"
     inkscape:cx="-129.0419"
     inkscape:cy="27.683595"
     inkscape:document-units="px"
     inkscape:current-layer="layer1"
     showgrid="false"
     showguides="true"
     inkscape:guide-bbox="true"
     inkscape:window-width="1913"
     inkscape:window-height="1026"
     inkscape:window-x="0"
     inkscape:window-y="26"
     inkscape:window-maximized="1" />
  <metadata
     id="metadata7">
    <rdf:RDF>
      <cc:Work
         rdf:about="">
        <dc:format>image/svg+xml</dc:format>
        <dc:type
           rdf:resource="http://purl.org/dc/dcmitype/StillImage" />
        <dc:title></dc:title>
      </cc:Work>
    </rdf:RDF>
  </metadata>
  <g
     inkscape:label="Layer 1"
     inkscape:groupmode="layer"
     id="layer1"
     transform="translate(0,-796.3622)">
    <path
       inkscape:connector-curvature="0"
       style="fill:url(#linearGradient3042);fill-opacity:1;stroke:none"
       d="m 50.27813,817.11747 0,219.35603 166.72262,0 0,-187.57241 c -10.93332,-9.25258 -26.94202,-17.13462 -45.80913,-31.78362 z"
       id="rect3051"
       sodipodi:nodetypes="cccccc" />
    <path
       transform="matrix(0.97766688,0,0,1.092318,-209.51979,798.57424)"
       style="opacity:0.56626503;fill:#626262;fill-opacity:1;stroke:none;filter:url(#filter3862)"
       inkscape:transform-center-x="-5.4168637"
       inkscape:transform-center-y="-0.79858784"
       d="M 407.69217,61.026367 392.4689,18.875528 436.5518,46.747407 z"
       id="path3054-5"
       inkscape:connector-curvature="0"
       sodipodi:nodetypes="cccc" />
    <path
       transform="matrix(1.0810446,0,0,1.1409536,-252.48963,789.3103)"
       style="fill:url(#linearGradient3997);fill-opacity:1;stroke:none"
       inkscape:transform-center-x="-5.9896366"
       inkscape:transform-center-y="-0.83414663"
       d="m 400.04112,59.178801 -7.31749,-35.458778 43.1638,28.448868 z"
       id="path3054"
       inkscape:connector-curvature="0"
       sodipodi:nodetypes="cccc" />
    <g
       transform="translate(0,796.3622)"
       style="font-size:10px;font-style:normal;font-variant:normal;font-weight:normal;font-stretch:normal;line-height:125%;letter-spacing:0px;word-spacing:0px;fill:#000000;fill-opacity:1;stroke:none;font-family:'A.C.M.E. Secret Agent';-inkscape-font-specification:'A.C.M.E. Secret Agent'"
       id="flowRoot3029">
      <path
         d="m 72.865234,61.250372 c -2e-6,0.403653 -0.0586,0.904954 -0.175781,1.503906 -0.169273,0.917974 -0.260419,1.412765 -0.273437,1.484375 -3e-6,0.01302 -0.159508,1.276045 -0.478516,3.789063 -0.201824,0.384114 -0.406902,0.576171 -0.615234,0.576172 -0.162762,-10e-7 -0.29948,-0.104167 -0.410157,-0.3125 -0.08464,-0.182292 -0.126953,-0.361328 -0.126953,-0.53711 0,-0.397134 0.113932,-1.240232 0.341797,-2.529297 0.01953,-0.07812 0.136718,-0.543616 0.351563,-1.396484 0.149738,-0.579422 0.218097,-1.041661 0.205078,-1.386719 l -0.0098,-0.09766 c -0.188803,-0.2539 -0.36784,-0.511061 -0.537109,-0.771484 0.07161,-0.312493 0.195311,-0.598951 0.371093,-0.859375 0.221353,-0.325513 0.465494,-0.488273 0.732422,-0.488282 0.208331,9e-6 0.371092,0.126962 0.488282,0.38086 0.09114,0.19532 0.136716,0.410163 0.136718,0.644531"
         style=""
         id="path3040" />
      <path
         d="m 79.842812,55.83881 c 0.56,0 1.120001,0.2 1.62,0.58 1.239999,0.959999 1.88,2.600002 1.88,4.92 0,2.539997 -0.680001,4.3 -1.979999,5.26 -0.48,0.359999 -1.000001,0.54 -1.58,0.54 -0.58,0 -1.140001,-0.180001 -1.620001,-0.5 -1.379998,-0.9 -2.079999,-2.760003 -2.079999,-5.46 0,-2.779998 1.180002,-5.34 3.759999,-5.34 m -5.399999,5.44 c 0,3.279996 1.100002,5.740001 3.2,6.8 0.659999,0.339999 1.34,0.52 2.059999,0.52 0.72,0 1.420001,-0.160001 2.06,-0.48 2.199998,-1.099999 3.240001,-3.500004 3.240001,-6.86 0,-3.119997 -0.980002,-5.200002 -2.960001,-6.32 -0.739999,-0.4 -1.46,-0.6 -2.3,-0.6 -1.519998,0 -2.820001,0.640001 -3.84,1.9 -0.979999,1.199998 -1.459999,2.860002 -1.459999,5.04"
         style="font-size:20px;font-style:normal;font-variant:normal;font-weight:normal;font-stretch:normal;font-family:Cantarell;-inkscape-font-specification:Cantarell"
         id="path3042" />
      <path
         d="m 92.538125,55.83881 c 0.559999,0 1.12,0.2 1.62,0.58 1.239999,0.959999 1.88,2.600002 1.88,4.92 0,2.539997 -0.680001,4.3 -1.98,5.26 -0.48,0.359999 -1.000001,0.54 -1.58,0.54 -0.579999,0 -1.14,-0.180001 -1.62,-0.5 -1.379999,-0.9 -2.08,-2.760003 -2.08,-5.46 0,-2.779998 1.180003,-5.34 3.76,-5.34 m -5.4,5.44 c 0,3.279996 1.100002,5.740001 3.2,6.8 0.659999,0.339999 1.340001,0.52 2.06,0.52 0.719999,0 1.420001,-0.160001 2.06,-0.48 2.199998,-1.099999 3.24,-3.500004 3.24,-6.86 0,-3.119997 -0.980002,-5.200002 -2.96,-6.32 -0.739999,-0.4 -1.460001,-0.6 -2.3,-0.6 -1.519998,0 -2.820001,0.640001 -3.84,1.9 -0.979999,1.199998 -1.46,2.860002 -1.46,5.04"
         style="font-size:20px;font-style:normal;font-variant:normal;font-weight:normal;font-stretch:normal;font-family:Cantarell;-inkscape-font-specification:Cantarell"
         id="path3044" />
      <path
         d="m 106.49344,54.51881 -1.92,0 -3.36,1.38 0.62,1.42 3.06,-1.2 0,10.82 -3.26,0 0,1.46 8.08,0 0,-1.46 -3.22,0 0,-12.42"
         style="font-size:20px;font-style:normal;font-variant:normal;font-weight:normal;font-stretch:normal;font-family:Cantarell;-inkscape-font-specification:Cantarell"
         id="path3046" />
      <path
         d="m 117.92875,55.83881 c 0.56,0 1.12,0.2 1.62,0.58 1.24,0.959999 1.88,2.600002 1.88,4.92 0,2.539997 -0.68,4.3 -1.98,5.26 -0.48,0.359999 -1,0.54 -1.58,0.54 -0.58,0 -1.14,-0.180001 -1.62,-0.5 -1.38,-0.9 -2.08,-2.760003 -2.08,-5.46 0,-2.779998 1.18,-5.34 3.76,-5.34 m -5.4,5.44 c 0,3.279996 1.1,5.740001 3.2,6.8 0.66,0.339999 1.34,0.52 2.06,0.52 0.72,0 1.42,-0.160001 2.06,-0.48 2.2,-1.099999 3.24,-3.500004 3.24,-6.86 0,-3.119997 -0.98,-5.200002 -2.96,-6.32 -0.74,-0.4 -1.46,-0.6 -2.3,-0.6 -1.52,0 -2.82,0.640001 -3.84,1.9 -0.98,1.199998 -1.46,2.860002 -1.46,5.04"
         style="font-size:20px;font-style:normal;font-variant:normal;font-weight:normal;font-stretch:normal;font-family:Cantarell;-inkscape-font-specification:Cantarell"
         id="path3048" />
      <path
         d="m 130.62406,55.83881 c 0.56,0 1.12,0.2 1.62,0.58 1.24,0.959999 1.88,2.600002 1.88,4.92 0,2.539997 -0.68,4.3 -1.98,5.26 -0.48,0.359999 -1,0.54 -1.58,0.54 -0.58,0 -1.14,-0.180001 -1.62,-0.5 -1.38,-0.9 -2.08,-2.760003 -2.08,-5.46 0,-2.779998 1.18001,-5.34 3.76,-5.34 m -5.4,5.44 c 0,3.279996 1.1,5.740001 3.2,6.8 0.66,0.339999 1.34,0.52 2.06,0.52 0.72,0 1.42,-0.160001 2.06,-0.48 2.2,-1.099999 3.24,-3.500004 3.24,-6.86 0,-3.119997 -0.98,-5.200002 -2.96,-6.32 -0.74,-0.4 -1.46,-0.6 -2.3,-0.6 -1.52,0 -2.82,0.640001 -3.84,1.9 -0.98,1.199998 -1.46,2.860002 -1.46,5.04"
         style="font-size:20px;font-style:normal;font-variant:normal;font-weight:normal;font-stretch:normal;font-family:Cantarell;-inkscape-font-specification:Cantarell"
         id="path3050" />
      <path
         d="m 144.57937,54.51881 -1.92,0 -3.36,1.38 0.62,1.42 3.06,-1.2 0,10.82 -3.25999,0 0,1.46 8.07999,0 0,-1.46 -3.22,0 0,-12.42"
         style="font-size:20px;font-style:normal;font-variant:normal;font-weight:normal;font-stretch:normal;font-family:Cantarell;-inkscape-font-specification:Cantarell"
         id="path3052" />
      <path
         d="m 156.01469,55.83881 c 0.56,0 1.12,0.2 1.62,0.58 1.24,0.959999 1.88,2.600002 1.88,4.92 0,2.539997 -0.68,4.3 -1.98,5.26 -0.48,0.359999 -1,0.54 -1.58,0.54 -0.58,0 -1.14,-0.180001 -1.62,-0.5 -1.38,-0.9 -2.08,-2.760003 -2.08,-5.46 0,-2.779998 1.18,-5.34 3.76,-5.34 m -5.4,5.44 c 0,3.279996 1.1,5.740001 3.2,6.8 0.66,0.339999 1.34,0.52 2.06,0.52 0.72,0 1.42,-0.160001 2.06,-0.48 2.2,-1.099999 3.24,-3.500004 3.24,-6.86 0,-3.119997 -0.98,-5.200002 -2.96,-6.32 -0.74,-0.4 -1.46,-0.6 -2.3,-0.6 -1.52,0 -2.82,0.640001 -3.84,1.9 -0.98,1.199998 -1.46,2.860002 -1.46,5.04"
         style="font-size:20px;font-style:normal;font-variant:normal;font-weight:normal;font-stretch:normal;font-family:Cantarell;-inkscape-font-specification:Cantarell"
         id="path3055" />
      <path
         d="m 168.71,55.83881 c 0.56,0 1.12,0.2 1.62,0.58 1.24,0.959999 1.88,2.600002 1.88,4.92 0,2.539997 -0.68,4.3 -1.98,5.26 -0.48,0.359999 -1,0.54 -1.58,0.54 -0.58,0 -1.14,-0.180001 -1.62,-0.5 -1.38,-0.9 -2.08,-2.760003 -2.08,-5.46 0,-2.779998 1.18,-5.34 3.76,-5.34 m -5.4,5.44 c 0,3.279996 1.1,5.740001 3.2,6.8 0.66,0.339999 1.34,0.52 2.06,0.52 0.72,0 1.42,-0.160001 2.06,-0.48 2.2,-1.099999 3.24,-3.500004 3.24,-6.86 0,-3.119997 -0.98,-5.200002 -2.96,-6.32 -0.74,-0.4 -1.46,-0.6 -2.3,-0.6 -1.52,0 -2.82,0.640001 -3.84,1.9 -0.98,1.199998 -1.46,2.860002 -1.46,5.04"
         style="font-size:20px;font-style:normal;font-variant:normal;font-weight:normal;font-stretch:normal;font-family:Cantarell;-inkscape-font-specification:Cantarell"
         id="path3057" />
      <path
         d="m 181.40531,55.83881 c 0.56,0 1.12,0.2 1.62,0.58 1.24,0.959999 1.88,2.600002 1.88,4.92 0,2.539997 -0.68,4.3 -1.98,5.26 -0.48,0.359999 -1,0.54 -1.58,0.54 -0.58,0 -1.14,-0.180001 -1.62,-0.5 -1.38,-0.9 -2.08,-2.760003 -2.08,-5.46 0,-2.779998 1.18001,-5.34 3.76,-5.34 m -5.4,5.44 c 0,3.279996 1.1,5.740001 3.2,6.8 0.66,0.339999 1.34,0.52 2.06,0.52 0.72,0 1.42,-0.160001 2.06,-0.48 2.2,-1.099999 3.24,-3.500004 3.24,-6.86 0,-3.119997 -0.98,-5.200002 -2.96,-6.32 -0.74,-0.4 -1.46,-0.6 -2.3,-0.6 -1.52,0 -2.82,0.640001 -3.84,1.9 -0.98,1.199998 -1.46,2.860002 -1.46,5.04"
         style="font-size:20px;font-style:normal;font-variant:normal;font-weight:normal;font-stretch:normal;font-family:Cantarell;-inkscape-font-specification:Cantarell"
         id="path3059" />
      <path
         d="m 195.36062,54.51881 -1.92,0 -3.36,1.38 0.62,1.42 3.06,-1.2 0,10.82 -3.25999,0 0,1.46 8.07999,0 0,-1.46 -3.22,0 0,-12.42"
         style="font-size:20px;font-style:normal;font-variant:normal;font-weight:normal;font-stretch:normal;font-family:Cantarell;-inkscape-font-specification:Cantarell"
         id="path3061" />
      <path
         d="m 76.67875,80.83881 c 0.559999,0 1.12,0.2 1.62,0.58 1.239999,0.959999 1.88,2.600002 1.88,4.92 0,2.539997 -0.680001,4.3 -1.98,5.26 -0.48,0.359999 -1.000001,0.54 -1.58,0.54 -0.579999,0 -1.14,-0.180001 -1.62,-0.5 -1.379999,-0.9 -2.08,-2.760003 -2.08,-5.46 0,-2.779998 1.180003,-5.34 3.76,-5.34 m -5.4,5.44 c 0,3.279996 1.100002,5.740001 3.2,6.8 0.659999,0.339999 1.340001,0.52 2.06,0.52 0.719999,0 1.420001,-0.160001 2.06,-0.48 2.199998,-1.099999 3.24,-3.500004 3.24,-6.86 0,-3.119997 -0.980002,-5.200002 -2.96,-6.32 -0.739999,-0.4 -1.460001,-0.6 -2.3,-0.6 -1.519998,0 -2.820001,0.640001 -3.84,1.9 -0.979999,1.199998 -1.46,2.860002 -1.46,5.04"
         style="font-size:20px;font-style:normal;font-variant:normal;font-weight:normal;font-stretch:normal;font-family:Cantarell;-inkscape-font-specification:Cantarell"
         id="path3063" />
      <path
         d="m 90.634062,79.51881 -1.92,0 -3.36,1.38 0.620001,1.42 3.06,-1.2 0,10.82 -3.260001,0 0,1.46 8.08,0 0,-1.46 -3.22,0 0,-12.42"
         style="font-size:20px;font-style:normal;font-variant:normal;font-weight:normal;font-stretch:normal;font-family:Cantarell;-inkscape-font-specification:Cantarell"
         id="path3065" />
      <path
         d="m 102.06937,80.83881 c 0.56,0 1.12001,0.2 1.62,0.58 1.24,0.959999 1.88,2.600002 1.88,4.92 0,2.539997 -0.68,4.3 -1.97999,5.26 -0.48,0.359999 -1.00001,0.54 -1.58,0.54 -0.58,0 -1.14001,-0.180001 -1.62,-0.5 -1.380004,-0.9 -2.080005,-2.760003 -2.080005,-5.46 0,-2.779998 1.180003,-5.34 3.759995,-5.34 m -5.399995,5.44 c 0,3.279996 1.100002,5.740001 3.2,6.8 0.659995,0.339999 1.340005,0.52 2.059995,0.52 0.72,0 1.42001,-0.160001 2.06,-0.48 2.2,-1.099999 3.24001,-3.500004 3.24001,-6.86 0,-3.119997 -0.98001,-5.200002 -2.96001,-6.32 -0.73999,-0.4 -1.46,-0.6 -2.29999,-0.6 -1.52,0 -2.820006,0.640001 -3.840005,1.9 -0.979999,1.199998 -1.46,2.860002 -1.46,5.04"
         style="font-size:20px;font-style:normal;font-variant:normal;font-weight:normal;font-stretch:normal;font-family:Cantarell;-inkscape-font-specification:Cantarell"
         id="path3067" />
      <path
         d="m 116.02469,79.51881 -1.92,0 -3.36,1.38 0.62,1.42 3.06,-1.2 0,10.82 -3.26,0 0,1.46 8.08,0 0,-1.46 -3.22,0 0,-12.42"
         style="font-size:20px;font-style:normal;font-variant:normal;font-weight:normal;font-stretch:normal;font-family:Cantarell;-inkscape-font-specification:Cantarell"
         id="path3069" />
      <path
         d="m 127.46,80.83881 c 0.56,0 1.12,0.2 1.62,0.58 1.24,0.959999 1.88,2.600002 1.88,4.92 0,2.539997 -0.68,4.3 -1.98,5.26 -0.48,0.359999 -1,0.54 -1.58,0.54 -0.58,0 -1.14,-0.180001 -1.62,-0.5 -1.38,-0.9 -2.08,-2.760003 -2.08,-5.46 0,-2.779998 1.18,-5.34 3.76,-5.34 m -5.4,5.44 c 0,3.279996 1.1,5.740001 3.2,6.8 0.66,0.339999 1.34,0.52 2.06,0.52 0.72,0 1.42,-0.160001 2.06,-0.48 2.2,-1.099999 3.24,-3.500004 3.24,-6.86 0,-3.119997 -0.98,-5.200002 -2.96,-6.32 -0.74,-0.4 -1.46,-0.6 -2.3,-0.6 -1.52,0 -2.82,0.640001 -3.84,1.9 -0.98,1.199998 -1.46,2.860002 -1.46,5.04"
         style="font-size:20px;font-style:normal;font-variant:normal;font-weight:normal;font-stretch:normal;font-family:Cantarell;-inkscape-font-specification:Cantarell"
         id="path3071" />
      <path
         d="m 141.41531,79.51881 -1.92,0 -3.36,1.38 0.62,1.42 3.06,-1.2 0,10.82 -3.26,0 0,1.46 8.08,0 0,-1.46 -3.22,0 0,-12.42"
         style="font-size:20px;font-style:normal;font-variant:normal;font-weight:normal;font-stretch:normal;font-family:Cantarell;-inkscape-font-specification:Cantarell"
         id="path3073" />
      <path
         d="m 152.85062,80.83881 c 0.56,0 1.12001,0.2 1.62,0.58 1.24,0.959999 1.88,2.600002 1.88,4.92 0,2.539997 -0.68,4.3 -1.98,5.26 -0.47999,0.359999 -1,0.54 -1.58,0.54 -0.57999,0 -1.14,-0.180001 -1.62,-0.5 -1.37999,-0.9 -2.08,-2.760003 -2.08,-5.46 0,-2.779998 1.18001,-5.34 3.76,-5.34 m -5.4,5.44 c 0,3.279996 1.10001,5.740001 3.2,6.8 0.66,0.339999 1.34001,0.52 2.06,0.52 0.72,0 1.42001,-0.160001 2.06,-0.48 2.2,-1.099999 3.24,-3.500004 3.24,-6.86 0,-3.119997 -0.98,-5.200002 -2.96,-6.32 -0.73999,-0.4 -1.46,-0.6 -2.29999,-0.6 -1.52,0 -2.82001,0.640001 -3.84001,1.9 -0.97999,1.199998 -1.46,2.860002 -1.46,5.04"
         style="font-size:20px;font-style:normal;font-variant:normal;font-weight:normal;font-stretch:normal;font-family:Cantarell;-inkscape-font-specification:Cantarell"
         id="path3075" />
      <path
         d="m 166.80594,79.51881 -1.92,0 -3.36,1.38 0.62,1.42 3.06,-1.2 0,10.82 -3.26,0 0,1.46 8.08,0 0,-1.46 -3.22,0 0,-12.42"
         style="font-size:20px;font-style:normal;font-variant:normal;font-weight:normal;font-stretch:normal;font-family:Cantarell;-inkscape-font-specification:Cantarell"
         id="path3077" />
      <path
         d="m 179.50125,79.51881 -1.92,0 -3.36,1.38 0.62,1.42 3.06,-1.2 0,10.82 -3.26,0 0,1.46 8.08,0 0,-1.46 -3.22,0 0,-12.42"
         style="font-size:20px;font-style:normal;font-variant:normal;font-weight:normal;font-stretch:normal;font-family:Cantarell;-inkscape-font-specification:Cantarell"
         id="path3079" />
      <path
         d="m 192.19656,79.51881 -1.92,0 -3.36,1.38 0.62,1.42 3.06,-1.2 0,10.82 -3.26,0 0,1.46 8.08,0 0,-1.46 -3.22,0 0,-12.42"
         style="font-size:20px;font-style:normal;font-variant:normal;font-weight:normal;font-stretch:normal;font-family:Cantarell;-inkscape-font-specification:Cantarell"
         id="path3081" />
      <path
         d="m 77.93875,104.51881 -1.92,0 -3.36,1.38 0.62,1.42 3.06,-1.2 0,10.82 -3.26,0 0,1.46 8.08,0 0,-1.46 -3.22,0 0,-12.42"
         style="font-size:20px;font-style:normal;font-variant:normal;font-weight:normal;font-stretch:normal;font-family:Cantarell;-inkscape-font-specification:Cantarell"
         id="path3083" />
      <path
         d="m 90.634062,104.51881 -1.92,0 -3.36,1.38 0.620001,1.42 3.06,-1.2 0,10.82 -3.260001,0 0,1.46 8.08,0 0,-1.46 -3.22,0 0,-12.42"
         style="font-size:20px;font-style:normal;font-variant:normal;font-weight:normal;font-stretch:normal;font-family:Cantarell;-inkscape-font-specification:Cantarell"
         id="path3085" />
      <path
         d="m 103.32938,104.51881 -1.92001,0 -3.359995,1.38 0.62,1.42 3.060005,-1.2 0,10.82 -3.260005,0 0,1.46 8.079995,0 0,-1.46 -3.21999,0 0,-12.42"
         style="font-size:20px;font-style:normal;font-variant:normal;font-weight:normal;font-stretch:normal;font-family:Cantarell;-inkscape-font-specification:Cantarell"
         id="path3087" />
      <path
         d="m 114.76469,105.83881 c 0.56,0 1.12,0.2 1.62,0.58 1.24,0.96 1.88,2.6 1.88,4.92 0,2.54 -0.68,4.3 -1.98,5.26 -0.48,0.36 -1,0.54 -1.58,0.54 -0.58,0 -1.14,-0.18 -1.62,-0.5 -1.38,-0.9 -2.08,-2.76 -2.08,-5.46 0,-2.78 1.18,-5.34 3.76,-5.34 m -5.4,5.44 c 0,3.28 1.1,5.74 3.2,6.8 0.66,0.34 1.34,0.52 2.06,0.52 0.72,0 1.42,-0.16 2.06,-0.48 2.2,-1.1 3.24,-3.5 3.24,-6.86 0,-3.12 -0.98,-5.2 -2.96,-6.32 -0.74,-0.4 -1.46,-0.6 -2.3,-0.6 -1.52,0 -2.82,0.64 -3.84,1.9 -0.98,1.2 -1.46,2.86 -1.46,5.04"
         style="font-size:20px;font-style:normal;font-variant:normal;font-weight:normal;font-stretch:normal;font-family:Cantarell;-inkscape-font-specification:Cantarell"
         id="path3089" />
      <path
         d="m 127.46,105.83881 c 0.56,0 1.12,0.2 1.62,0.58 1.24,0.96 1.88,2.6 1.88,4.92 0,2.54 -0.68,4.3 -1.98,5.26 -0.48,0.36 -1,0.54 -1.58,0.54 -0.58,0 -1.14,-0.18 -1.62,-0.5 -1.38,-0.9 -2.08,-2.76 -2.08,-5.46 0,-2.78 1.18,-5.34 3.76,-5.34 m -5.4,5.44 c 0,3.28 1.1,5.74 3.2,6.8 0.66,0.34 1.34,0.52 2.06,0.52 0.72,0 1.42,-0.16 2.06,-0.48 2.2,-1.1 3.24,-3.5 3.24,-6.86 0,-3.12 -0.98,-5.2 -2.96,-6.32 -0.74,-0.4 -1.46,-0.6 -2.3,-0.6 -1.52,0 -2.82,0.64 -3.84,1.9 -0.98,1.2 -1.46,2.86 -1.46,5.04"
         style="font-size:20px;font-style:normal;font-variant:normal;font-weight:normal;font-stretch:normal;font-family:Cantarell;-inkscape-font-specification:Cantarell"
         id="path3091" />
      <path
         d="m 140.15531,105.83881 c 0.56,0 1.12,0.2 1.62,0.58 1.24,0.96 1.88,2.6 1.88,4.92 0,2.54 -0.68,4.3 -1.98,5.26 -0.48,0.36 -1,0.54 -1.58,0.54 -0.58,0 -1.14,-0.18 -1.62,-0.5 -1.38,-0.9 -2.08,-2.76 -2.08,-5.46 0,-2.78 1.18001,-5.34 3.76,-5.34 m -5.4,5.44 c 0,3.28 1.1,5.74 3.2,6.8 0.66,0.34 1.34,0.52 2.06,0.52 0.72,0 1.42,-0.16 2.06,-0.48 2.2,-1.1 3.24,-3.5 3.24,-6.86 0,-3.12 -0.98,-5.2 -2.96,-6.32 -0.74,-0.4 -1.46,-0.6 -2.3,-0.6 -1.52,0 -2.82,0.64 -3.84,1.9 -0.98,1.2 -1.46,2.86 -1.46,5.04"
         style="font-size:20px;font-style:normal;font-variant:normal;font-weight:normal;font-stretch:normal;font-family:Cantarell;-inkscape-font-specification:Cantarell"
         id="path3093" />
      <path
         d="m 154.11062,104.51881 -1.92,0 -3.36,1.38 0.62,1.42 3.06,-1.2 0,10.82 -3.25999,0 0,1.46 8.07999,0 0,-1.46 -3.22,0 0,-12.42"
         style="font-size:20px;font-style:normal;font-variant:normal;font-weight:normal;font-stretch:normal;font-family:Cantarell;-inkscape-font-specification:Cantarell"
         id="path3095" />
      <path
         d="m 166.80594,104.51881 -1.92,0 -3.36,1.38 0.62,1.42 3.06,-1.2 0,10.82 -3.26,0 0,1.46 8.08,0 0,-1.46 -3.22,0 0,-12.42"
         style="font-size:20px;font-style:normal;font-variant:normal;font-weight:normal;font-stretch:normal;font-family:Cantarell;-inkscape-font-specification:Cantarell"
         id="path3097" />
      <path
         d="m 179.50125,104.51881 -1.92,0 -3.36,1.38 0.62,1.42 3.06,-1.2 0,10.82 -3.26,0 0,1.46 8.08,0 0,-1.46 -3.22,0 0,-12.42"
         style="font-size:20px;font-style:normal;font-variant:normal;font-weight:normal;font-stretch:normal;font-family:Cantarell;-inkscape-font-specification:Cantarell"
         id="path3099" />
      <path
         d="m 190.93656,105.83881 c 0.56,0 1.12,0.2 1.62,0.58 1.24,0.96 1.88,2.6 1.88,4.92 0,2.54 -0.68,4.3 -1.98,5.26 -0.48,0.36 -1,0.54 -1.58,0.54 -0.58,0 -1.14,-0.18 -1.62,-0.5 -1.38,-0.9 -2.08,-2.76 -2.08,-5.46 0,-2.78 1.18001,-5.34 3.76,-5.34 m -5.4,5.44 c 0,3.28 1.1,5.74 3.2,6.8 0.66,0.34 1.34,0.52 2.06,0.52 0.72,0 1.42,-0.16 2.06,-0.48 2.2,-1.1 3.24,-3.5 3.24,-6.86 0,-3.12 -0.98,-5.2 -2.96,-6.32 -0.74,-0.4 -1.46,-0.6 -2.3,-0.6 -1.52,0 -2.82,0.64 -3.84,1.9 -0.98,1.2 -1.46,2.86 -1.46,5.04"
         style="font-size:20px;font-style:normal;font-variant:normal;font-weight:normal;font-stretch:normal;font-family:Cantarell;-inkscape-font-specification:Cantarell"
         id="path3101" />
      <path
         d="m 76.67875,130.83881 c 0.559999,0 1.12,0.2 1.62,0.58 1.239999,0.96 1.88,2.6 1.88,4.92 0,2.54 -0.680001,4.3 -1.98,5.26 -0.48,0.36 -1.000001,0.54 -1.58,0.54 -0.579999,0 -1.14,-0.18 -1.62,-0.5 -1.379999,-0.9 -2.08,-2.76 -2.08,-5.46 0,-2.78 1.180003,-5.34 3.76,-5.34 m -5.4,5.44 c 0,3.28 1.100002,5.74 3.2,6.8 0.659999,0.34 1.340001,0.52 2.06,0.52 0.719999,0 1.420001,-0.16 2.06,-0.48 2.199998,-1.1 3.24,-3.5 3.24,-6.86 0,-3.12 -0.980002,-5.2 -2.96,-6.32 -0.739999,-0.4 -1.460001,-0.6 -2.3,-0.6 -1.519998,0 -2.820001,0.64 -3.84,1.9 -0.979999,1.2 -1.46,2.86 -1.46,5.04"
         style="font-size:20px;font-style:normal;font-variant:normal;font-weight:normal;font-stretch:normal;font-family:Cantarell;-inkscape-font-specification:Cantarell"
         id="path3103" />
      <path
         d="m 89.374062,130.83881 c 0.56,0 1.120001,0.2 1.62,0.58 1.239999,0.96 1.88,2.6 1.88,4.92 0,2.54 -0.680001,4.3 -1.979999,5.26 -0.48,0.36 -1.000001,0.54 -1.58,0.54 -0.58,0 -1.140001,-0.18 -1.620001,-0.5 -1.379998,-0.9 -2.079999,-2.76 -2.079999,-5.46 0,-2.78 1.180002,-5.34 3.759999,-5.34 m -5.399999,5.44 c 0,3.28 1.100002,5.74 3.2,6.8 0.659999,0.34 1.34,0.52 2.059999,0.52 0.72,0 1.420001,-0.16 2.06,-0.48 2.199998,-1.1 3.240001,-3.5 3.240001,-6.86 0,-3.12 -0.980002,-5.2 -2.960001,-6.32 -0.739999,-0.4 -1.46,-0.6 -2.3,-0.6 -1.519998,0 -2.820001,0.64 -3.84,1.9 -0.979999,1.2 -1.459999,2.86 -1.459999,5.04"
         style="font-size:20px;font-style:normal;font-variant:normal;font-weight:normal;font-stretch:normal;font-family:Cantarell;-inkscape-font-specification:Cantarell"
         id="path3105" />
      <path
         d="m 102.06937,130.83881 c 0.56,0 1.12001,0.2 1.62,0.58 1.24,0.96 1.88,2.6 1.88,4.92 0,2.54 -0.68,4.3 -1.97999,5.26 -0.48,0.36 -1.00001,0.54 -1.58,0.54 -0.58,0 -1.14001,-0.18 -1.62,-0.5 -1.380004,-0.9 -2.080005,-2.76 -2.080005,-5.46 0,-2.78 1.180003,-5.34 3.759995,-5.34 m -5.399995,5.44 c 0,3.28 1.100002,5.74 3.2,6.8 0.659995,0.34 1.340005,0.52 2.059995,0.52 0.72,0 1.42001,-0.16 2.06,-0.48 2.2,-1.1 3.24001,-3.5 3.24001,-6.86 0,-3.12 -0.98001,-5.2 -2.96001,-6.32 -0.73999,-0.4 -1.46,-0.6 -2.29999,-0.6 -1.52,0 -2.820006,0.64 -3.840005,1.9 -0.979999,1.2 -1.46,2.86 -1.46,5.04"
         style="font-size:20px;font-style:normal;font-variant:normal;font-weight:normal;font-stretch:normal;font-family:Cantarell;-inkscape-font-specification:Cantarell"
         id="path3107" />
      <path
         d="m 114.76469,130.83881 c 0.56,0 1.12,0.2 1.62,0.58 1.24,0.96 1.88,2.6 1.88,4.92 0,2.54 -0.68,4.3 -1.98,5.26 -0.48,0.36 -1,0.54 -1.58,0.54 -0.58,0 -1.14,-0.18 -1.62,-0.5 -1.38,-0.9 -2.08,-2.76 -2.08,-5.46 0,-2.78 1.18,-5.34 3.76,-5.34 m -5.4,5.44 c 0,3.28 1.1,5.74 3.2,6.8 0.66,0.34 1.34,0.52 2.06,0.52 0.72,0 1.42,-0.16 2.06,-0.48 2.2,-1.1 3.24,-3.5 3.24,-6.86 0,-3.12 -0.98,-5.2 -2.96,-6.32 -0.74,-0.4 -1.46,-0.6 -2.3,-0.6 -1.52,0 -2.82,0.64 -3.84,1.9 -0.98,1.2 -1.46,2.86 -1.46,5.04"
         style="font-size:20px;font-style:normal;font-variant:normal;font-weight:normal;font-stretch:normal;font-family:Cantarell;-inkscape-font-specification:Cantarell"
         id="path3109" />
      <path
         d="m 128.72,129.51881 -1.92,0 -3.36,1.38 0.62,1.42 3.06,-1.2 0,10.82 -3.26,0 0,1.46 8.08,0 0,-1.46 -3.22,0 0,-12.42"
         style="font-size:20px;font-style:normal;font-variant:normal;font-weight:normal;font-stretch:normal;font-family:Cantarell;-inkscape-font-specification:Cantarell"
         id="path3111" />
      <path
         d="m 141.41531,129.51881 -1.92,0 -3.36,1.38 0.62,1.42 3.06,-1.2 0,10.82 -3.26,0 0,1.46 8.08,0 0,-1.46 -3.22,0 0,-12.42"
         style="font-size:20px;font-style:normal;font-variant:normal;font-weight:normal;font-stretch:normal;font-family:Cantarell;-inkscape-font-specification:Cantarell"
         id="path3113" />
      <path
         d="m 152.85062,130.83881 c 0.56,0 1.12001,0.2 1.62,0.58 1.24,0.96 1.88,2.6 1.88,4.92 0,2.54 -0.68,4.3 -1.98,5.26 -0.47999,0.36 -1,0.54 -1.58,0.54 -0.57999,0 -1.14,-0.18 -1.62,-0.5 -1.37999,-0.9 -2.08,-2.76 -2.08,-5.46 0,-2.78 1.18001,-5.34 3.76,-5.34 m -5.4,5.44 c 0,3.28 1.10001,5.74 3.2,6.8 0.66,0.34 1.34001,0.52 2.06,0.52 0.72,0 1.42001,-0.16 2.06,-0.48 2.2,-1.1 3.24,-3.5 3.24,-6.86 0,-3.12 -0.98,-5.2 -2.96,-6.32 -0.73999,-0.4 -1.46,-0.6 -2.29999,-0.6 -1.52,0 -2.82001,0.64 -3.84001,1.9 -0.97999,1.2 -1.46,2.86 -1.46,5.04"
         style="font-size:20px;font-style:normal;font-variant:normal;font-weight:normal;font-stretch:normal;font-family:Cantarell;-inkscape-font-specification:Cantarell"
         id="path3115" />
      <path
         d="m 165.54594,130.83881 c 0.56,0 1.12,0.2 1.62,0.58 1.24,0.96 1.88,2.6 1.88,4.92 0,2.54 -0.68,4.3 -1.98,5.26 -0.48,0.36 -1,0.54 -1.58,0.54 -0.58,0 -1.14,-0.18 -1.62,-0.5 -1.38,-0.9 -2.08,-2.76 -2.08,-5.46 0,-2.78 1.18,-5.34 3.76,-5.34 m -5.4,5.44 c 0,3.28 1.1,5.74 3.2,6.8 0.66,0.34 1.34,0.52 2.06,0.52 0.72,0 1.42,-0.16 2.06,-0.48 2.2,-1.1 3.24,-3.5 3.24,-6.86 0,-3.12 -0.98,-5.2 -2.96,-6.32 -0.74,-0.4 -1.46,-0.6 -2.3,-0.6 -1.52,0 -2.82,0.64 -3.84,1.9 -0.98,1.2 -1.46,2.86 -1.46,5.04"
         style="font-size:20px;font-style:normal;font-variant:normal;font-weight:normal;font-stretch:normal;font-family:Cantarell;-inkscape-font-specification:Cantarell"
         id="path3117" />
      <path
         d="m 179.50125,129.51881 -1.92,0 -3.36,1.38 0.62,1.42 3.06,-1.2 0,10.82 -3.26,0 0,1.46 8.08,0 0,-1.46 -3.22,0 0,-12.42"
         style="font-size:20px;font-style:normal;font-variant:normal;font-weight:normal;font-stretch:normal;font-family:Cantarell;-inkscape-font-specification:Cantarell"
         id="path3119" />
      <path
         d="m 192.19656,129.51881 -1.92,0 -3.36,1.38 0.62,1.42 3.06,-1.2 0,10.82 -3.26,0 0,1.46 8.08,0 0,-1.46 -3.22,0 0,-12.42"
         style="font-size:20px;font-style:normal;font-variant:normal;font-weight:normal;font-stretch:normal;font-family:Cantarell;-inkscape-font-specification:Cantarell"
         id="path3121" />
      <path
         d="m 76.67875,155.83881 c 0.559999,0 1.12,0.2 1.62,0.58 1.239999,0.96 1.88,2.6 1.88,4.92 0,2.54 -0.680001,4.3 -1.98,5.26 -0.48,0.36 -1.000001,0.54 -1.58,0.54 -0.579999,0 -1.14,-0.18 -1.62,-0.5 -1.379999,-0.9 -2.08,-2.76 -2.08,-5.46 0,-2.78 1.180003,-5.34 3.76,-5.34 m -5.4,5.44 c 0,3.28 1.100002,5.74 3.2,6.8 0.659999,0.34 1.340001,0.52 2.06,0.52 0.719999,0 1.420001,-0.16 2.06,-0.48 2.199998,-1.1 3.24,-3.5 3.24,-6.86 0,-3.12 -0.980002,-5.2 -2.96,-6.32 -0.739999,-0.4 -1.460001,-0.6 -2.3,-0.6 -1.519998,0 -2.820001,0.64 -3.84,1.9 -0.979999,1.2 -1.46,2.86 -1.46,5.04"
         style="font-size:20px;font-style:normal;font-variant:normal;font-weight:normal;font-stretch:normal;font-family:Cantarell;-inkscape-font-specification:Cantarell"
         id="path3123" />
      <path
         d="m 89.374062,155.83881 c 0.56,0 1.120001,0.2 1.62,0.58 1.239999,0.96 1.88,2.6 1.88,4.92 0,2.54 -0.680001,4.3 -1.979999,5.26 -0.48,0.36 -1.000001,0.54 -1.58,0.54 -0.58,0 -1.140001,-0.18 -1.620001,-0.5 -1.379998,-0.9 -2.079999,-2.76 -2.079999,-5.46 0,-2.78 1.180002,-5.34 3.759999,-5.34 m -5.399999,5.44 c 0,3.28 1.100002,5.74 3.2,6.8 0.659999,0.34 1.34,0.52 2.059999,0.52 0.72,0 1.420001,-0.16 2.06,-0.48 2.199998,-1.1 3.240001,-3.5 3.240001,-6.86 0,-3.12 -0.980002,-5.2 -2.960001,-6.32 -0.739999,-0.4 -1.46,-0.6 -2.3,-0.6 -1.519998,0 -2.820001,0.64 -3.84,1.9 -0.979999,1.2 -1.459999,2.86 -1.459999,5.04"
         style="font-size:20px;font-style:normal;font-variant:normal;font-weight:normal;font-stretch:normal;font-family:Cantarell;-inkscape-font-specification:Cantarell"
         id="path3125" />
      <path
         d="m 103.32938,154.51881 -1.92001,0 -3.359995,1.38 0.62,1.42 3.060005,-1.2 0,10.82 -3.260005,0 0,1.46 8.079995,0 0,-1.46 -3.21999,0 0,-12.42"
         style="font-size:20px;font-style:normal;font-variant:normal;font-weight:normal;font-stretch:normal;font-family:Cantarell;-inkscape-font-specification:Cantarell"
         id="path3127" />
      <path
         d="m 114.76469,155.83881 c 0.56,0 1.12,0.2 1.62,0.58 1.24,0.96 1.88,2.6 1.88,4.92 0,2.54 -0.68,4.3 -1.98,5.26 -0.48,0.36 -1,0.54 -1.58,0.54 -0.58,0 -1.14,-0.18 -1.62,-0.5 -1.38,-0.9 -2.08,-2.76 -2.08,-5.46 0,-2.78 1.18,-5.34 3.76,-5.34 m -5.4,5.44 c 0,3.28 1.1,5.74 3.2,6.8 0.66,0.34 1.34,0.52 2.06,0.52 0.72,0 1.42,-0.16 2.06,-0.48 2.2,-1.1 3.24,-3.5 3.24,-6.86 0,-3.12 -0.98,-5.2 -2.96,-6.32 -0.74,-0.4 -1.46,-0.6 -2.3,-0.6 -1.52,0 -2.82,0.64 -3.84,1.9 -0.98,1.2 -1.46,2.86 -1.46,5.04"
         style="font-size:20px;font-style:normal;font-variant:normal;font-weight:normal;font-stretch:normal;font-family:Cantarell;-inkscape-font-specification:Cantarell"
         id="path3129" />
      <path
         d="m 128.72,154.51881 -1.92,0 -3.36,1.38 0.62,1.42 3.06,-1.2 0,10.82 -3.26,0 0,1.46 8.08,0 0,-1.46 -3.22,0 0,-12.42"
         style="font-size:20px;font-style:normal;font-variant:normal;font-weight:normal;font-stretch:normal;font-family:Cantarell;-inkscape-font-specification:Cantarell"
         id="path3131" />
      <path
         d="m 140.15531,155.83881 c 0.56,0 1.12,0.2 1.62,0.58 1.24,0.96 1.88,2.6 1.88,4.92 0,2.54 -0.68,4.3 -1.98,5.26 -0.48,0.36 -1,0.54 -1.58,0.54 -0.58,0 -1.14,-0.18 -1.62,-0.5 -1.38,-0.9 -2.08,-2.76 -2.08,-5.46 0,-2.78 1.18001,-5.34 3.76,-5.34 m -5.4,5.44 c 0,3.28 1.1,5.74 3.2,6.8 0.66,0.34 1.34,0.52 2.06,0.52 0.72,0 1.42,-0.16 2.06,-0.48 2.2,-1.1 3.24,-3.5 3.24,-6.86 0,-3.12 -0.98,-5.2 -2.96,-6.32 -0.74,-0.4 -1.46,-0.6 -2.3,-0.6 -1.52,0 -2.82,0.64 -3.84,1.9 -0.98,1.2 -1.46,2.86 -1.46,5.04"
         style="font-size:20px;font-style:normal;font-variant:normal;font-weight:normal;font-stretch:normal;font-family:Cantarell;-inkscape-font-specification:Cantarell"
         id="path3133" />
      <path
         d="m 154.11062,154.51881 -1.92,0 -3.36,1.38 0.62,1.42 3.06,-1.2 0,10.82 -3.25999,0 0,1.46 8.07999,0 0,-1.46 -3.22,0 0,-12.42"
         style="font-size:20px;font-style:normal;font-variant:normal;font-weight:normal;font-stretch:normal;font-family:Cantarell;-inkscape-font-specification:Cantarell"
         id="path3135" />
      <path
         d="m 166.80594,154.51881 -1.92,0 -3.36,1.38 0.62,1.42 3.06,-1.2 0,10.82 -3.26,0 0,1.46 8.08,0 0,-1.46 -3.22,0 0,-12.42"
         style="font-size:20px;font-style:normal;font-variant:normal;font-weight:normal;font-stretch:normal;font-family:Cantarell;-inkscape-font-specification:Cantarell"
         id="path3137" />
      <path
         d="m 178.24125,155.83881 c 0.56,0 1.12,0.2 1.62,0.58 1.24,0.96 1.88,2.6 1.88,4.92 0,2.54 -0.68,4.3 -1.98,5.26 -0.48,0.36 -1,0.54 -1.58,0.54 -0.58,0 -1.14,-0.18 -1.62,-0.5 -1.38,-0.9 -2.08,-2.76 -2.08,-5.46 0,-2.78 1.18,-5.34 3.76,-5.34 m -5.4,5.44 c 0,3.28 1.1,5.74 3.2,6.8 0.66,0.34 1.34,0.52 2.06,0.52 0.72,0 1.42,-0.16 2.06,-0.48 2.2,-1.1 3.24,-3.5 3.24,-6.86 0,-3.12 -0.98,-5.2 -2.96,-6.32 -0.74,-0.4 -1.46,-0.6 -2.3,-0.6 -1.52,0 -2.82,0.64 -3.84,1.9 -0.98,1.2 -1.46,2.86 -1.46,5.04"
         style="font-size:20px;font-style:normal;font-variant:normal;font-weight:normal;font-stretch:normal;font-family:Cantarell;-inkscape-font-specification:Cantarell"
         id="path3139" />
      <path
         d="m 192.19656,154.51881 -1.92,0 -3.36,1.38 0.62,1.42 3.06,-1.2 0,10.82 -3.26,0 0,1.46 8.08,0 0,-1.46 -3.22,0 0,-12.42"
         style="font-size:20px;font-style:normal;font-variant:normal;font-weight:normal;font-stretch:normal;font-family:Cantarell;-inkscape-font-specification:Cantarell"
         id="path3141" />
      <path
         d="m 76.67875,180.83881 c 0.559999,0 1.12,0.2 1.62,0.58 1.239999,0.96 1.88,2.6 1.88,4.92 0,2.54 -0.680001,4.3 -1.98,5.26 -0.48,0.36 -1.000001,0.54 -1.58,0.54 -0.579999,0 -1.14,-0.18 -1.62,-0.5 -1.379999,-0.9 -2.08,-2.76 -2.08,-5.46 0,-2.78 1.180003,-5.34 3.76,-5.34 m -5.4,5.44 c 0,3.28 1.100002,5.74 3.2,6.8 0.659999,0.34 1.340001,0.52 2.06,0.52 0.719999,0 1.420001,-0.16 2.06,-0.48 2.199998,-1.1 3.24,-3.5 3.24,-6.86 0,-3.12 -0.980002,-5.2 -2.96,-6.32 -0.739999,-0.4 -1.460001,-0.6 -2.3,-0.6 -1.519998,0 -2.820001,0.64 -3.84,1.9 -0.979999,1.2 -1.46,2.86 -1.46,5.04"
         style="font-size:20px;font-style:normal;font-variant:normal;font-weight:normal;font-stretch:normal;font-family:Cantarell;-inkscape-font-specification:Cantarell"
         id="path3143" />
      <path
         d="m 90.634062,179.51881 -1.92,0 -3.36,1.38 0.620001,1.42 3.06,-1.2 0,10.82 -3.260001,0 0,1.46 8.08,0 0,-1.46 -3.22,0 0,-12.42"
         style="font-size:20px;font-style:normal;font-variant:normal;font-weight:normal;font-stretch:normal;font-family:Cantarell;-inkscape-font-specification:Cantarell"
         id="path3145" />
      <path
         d="m 103.32938,179.51881 -1.92001,0 -3.359995,1.38 0.62,1.42 3.060005,-1.2 0,10.82 -3.260005,0 0,1.46 8.079995,0 0,-1.46 -3.21999,0 0,-12.42"
         style="font-size:20px;font-style:normal;font-variant:normal;font-weight:normal;font-stretch:normal;font-family:Cantarell;-inkscape-font-specification:Cantarell"
         id="path3147" />
      <path
         d="m 116.02469,179.51881 -1.92,0 -3.36,1.38 0.62,1.42 3.06,-1.2 0,10.82 -3.26,0 0,1.46 8.08,0 0,-1.46 -3.22,0 0,-12.42"
         style="font-size:20px;font-style:normal;font-variant:normal;font-weight:normal;font-stretch:normal;font-family:Cantarell;-inkscape-font-specification:Cantarell"
         id="path3149" />
      <path
         d="m 128.72,179.51881 -1.92,0 -3.36,1.38 0.62,1.42 3.06,-1.2 0,10.82 -3.26,0 0,1.46 8.08,0 0,-1.46 -3.22,0 0,-12.42"
         style="font-size:20px;font-style:normal;font-variant:normal;font-weight:normal;font-stretch:normal;font-family:Cantarell;-inkscape-font-specification:Cantarell"
         id="path3151" />
      <path
         d="m 140.15531,180.83881 c 0.56,0 1.12,0.2 1.62,0.58 1.24,0.96 1.88,2.6 1.88,4.92 0,2.54 -0.68,4.3 -1.98,5.26 -0.48,0.36 -1,0.54 -1.58,0.54 -0.58,0 -1.14,-0.18 -1.62,-0.5 -1.38,-0.9 -2.08,-2.76 -2.08,-5.46 0,-2.78 1.18001,-5.34 3.76,-5.34 m -5.4,5.44 c 0,3.28 1.1,5.74 3.2,6.8 0.66,0.34 1.34,0.52 2.06,0.52 0.72,0 1.42,-0.16 2.06,-0.48 2.2,-1.1 3.24,-3.5 3.24,-6.86 0,-3.12 -0.98,-5.2 -2.96,-6.32 -0.74,-0.4 -1.46,-0.6 -2.3,-0.6 -1.52,0 -2.82,0.64 -3.84,1.9 -0.98,1.2 -1.46,2.86 -1.46,5.04"
         style="font-size:20px;font-style:normal;font-variant:normal;font-weight:normal;font-stretch:normal;font-family:Cantarell;-inkscape-font-specification:Cantarell"
         id="path3153" />
      <path
         d="m 154.11062,179.51881 -1.92,0 -3.36,1.38 0.62,1.42 3.06,-1.2 0,10.82 -3.25999,0 0,1.46 8.07999,0 0,-1.46 -3.22,0 0,-12.42"
         style="font-size:20px;font-style:normal;font-variant:normal;font-weight:normal;font-stretch:normal;font-family:Cantarell;-inkscape-font-specification:Cantarell"
         id="path3155" />
      <path
         d="m 165.54594,180.83881 c 0.56,0 1.12,0.2 1.62,0.58 1.24,0.96 1.88,2.6 1.88,4.92 0,2.54 -0.68,4.3 -1.98,5.26 -0.48,0.36 -1,0.54 -1.58,0.54 -0.58,0 -1.14,-0.18 -1.62,-0.5 -1.38,-0.9 -2.08,-2.76 -2.08,-5.46 0,-2.78 1.18,-5.34 3.76,-5.34 m -5.4,5.44 c 0,3.28 1.1,5.74 3.2,6.8 0.66,0.34 1.34,0.52 2.06,0.52 0.72,0 1.42,-0.16 2.06,-0.48 2.2,-1.1 3.24,-3.5 3.24,-6.86 0,-3.12 -0.98,-5.2 -2.96,-6.32 -0.74,-0.4 -1.46,-0.6 -2.3,-0.6 -1.52,0 -2.82,0.64 -3.84,1.9 -0.98,1.2 -1.46,2.86 -1.46,5.04"
         style="font-size:20px;font-style:normal;font-variant:normal;font-weight:normal;font-stretch:normal;font-family:Cantarell;-inkscape-font-specification:Cantarell"
         id="path3157" />
      <path
         d="m 179.50125,179.51881 -1.92,0 -3.36,1.38 0.62,1.42 3.06,-1.2 0,10.82 -3.26,0 0,1.46 8.08,0 0,-1.46 -3.22,0 0,-12.42"
         style="font-size:20px;font-style:normal;font-variant:normal;font-weight:normal;font-stretch:normal;font-family:Cantarell;-inkscape-font-specification:Cantarell"
         id="path3159" />
      <path
         d="m 190.93656,180.83881 c 0.56,0 1.12,0.2 1.62,0.58 1.24,0.96 1.88,2.6 1.88,4.92 0,2.54 -0.68,4.3 -1.98,5.26 -0.48,0.36 -1,0.54 -1.58,0.54 -0.58,0 -1.14,-0.18 -1.62,-0.5 -1.38,-0.9 -2.08,-2.76 -2.08,-5.46 0,-2.78 1.18001,-5.34 3.76,-5.34 m -5.4,5.44 c 0,3.28 1.1,5.74 3.2,6.8 0.66,0.34 1.34,0.52 2.06,0.52 0.72,0 1.42,-0.16 2.06,-0.48 2.2,-1.1 3.24,-3.5 3.24,-6.86 0,-3.12 -0.98,-5.2 -2.96,-6.32 -0.74,-0.4 -1.46,-0.6 -2.3,-0.6 -1.52,0 -2.82,0.64 -3.84,1.9 -0.98,1.2 -1.46,2.86 -1.46,5.04"
         style="font-size:20px;font-style:normal;font-variant:normal;font-weight:normal;font-stretch:normal;font-family:Cantarell;-inkscape-font-specification:Cantarell"
         id="path3161" />
      <path
         d="m 76.67875,205.83881 c 0.559999,0 1.12,0.2 1.62,0.58 1.239999,0.96 1.88,2.6 1.88,4.92 0,2.54 -0.680001,4.3 -1.98,5.26 -0.48,0.36 -1.000001,0.54 -1.58,0.54 -0.579999,0 -1.14,-0.18 -1.62,-0.5 -1.379999,-0.9 -2.08,-2.76 -2.08,-5.46 0,-2.78 1.180003,-5.34 3.76,-5.34 m -5.4,5.44 c 0,3.28 1.100002,5.74 3.2,6.8 0.659999,0.34 1.340001,0.52 2.06,0.52 0.719999,0 1.420001,-0.16 2.06,-0.48 2.199998,-1.1 3.24,-3.5 3.24,-6.86 0,-3.12 -0.980002,-5.2 -2.96,-6.32 -0.739999,-0.4 -1.460001,-0.6 -2.3,-0.6 -1.519998,0 -2.820001,0.64 -3.84,1.9 -0.979999,1.2 -1.46,2.86 -1.46,5.04"
         style="font-size:20px;font-style:normal;font-variant:normal;font-weight:normal;font-stretch:normal;font-family:Cantarell;-inkscape-font-specification:Cantarell"
         id="path3163" />
      <path
         d="m 90.634062,204.51881 -1.92,0 -3.36,1.38 0.620001,1.42 3.06,-1.2 0,10.82 -3.260001,0 0,1.46 8.08,0 0,-1.46 -3.22,0 0,-12.42"
         style="font-size:20px;font-style:normal;font-variant:normal;font-weight:normal;font-stretch:normal;font-family:Cantarell;-inkscape-font-specification:Cantarell"
         id="path3165" />
      <path
         d="m 103.32938,204.51881 -1.92001,0 -3.359995,1.38 0.62,1.42 3.060005,-1.2 0,10.82 -3.260005,0 0,1.46 8.079995,0 0,-1.46 -3.21999,0 0,-12.42"
         style="font-size:20px;font-style:normal;font-variant:normal;font-weight:normal;font-stretch:normal;font-family:Cantarell;-inkscape-font-specification:Cantarell"
         id="path3167" />
      <path
         d="m 114.76469,205.83881 c 0.56,0 1.12,0.2 1.62,0.58 1.24,0.96 1.88,2.6 1.88,4.92 0,2.54 -0.68,4.3 -1.98,5.26 -0.48,0.36 -1,0.54 -1.58,0.54 -0.58,0 -1.14,-0.18 -1.62,-0.5 -1.38,-0.9 -2.08,-2.76 -2.08,-5.46 0,-2.78 1.18,-5.34 3.76,-5.34 m -5.4,5.44 c 0,3.28 1.1,5.74 3.2,6.8 0.66,0.34 1.34,0.52 2.06,0.52 0.72,0 1.42,-0.16 2.06,-0.48 2.2,-1.1 3.24,-3.5 3.24,-6.86 0,-3.12 -0.98,-5.2 -2.96,-6.32 -0.74,-0.4 -1.46,-0.6 -2.3,-0.6 -1.52,0 -2.82,0.64 -3.84,1.9 -0.98,1.2 -1.46,2.86 -1.46,5.04"
         style="font-size:20px;font-style:normal;font-variant:normal;font-weight:normal;font-stretch:normal;font-family:Cantarell;-inkscape-font-specification:Cantarell"
         id="path3169" />
      <path
         d="m 127.46,205.83881 c 0.56,0 1.12,0.2 1.62,0.58 1.24,0.96 1.88,2.6 1.88,4.92 0,2.54 -0.68,4.3 -1.98,5.26 -0.48,0.36 -1,0.54 -1.58,0.54 -0.58,0 -1.14,-0.18 -1.62,-0.5 -1.38,-0.9 -2.08,-2.76 -2.08,-5.46 0,-2.78 1.18,-5.34 3.76,-5.34 m -5.4,5.44 c 0,3.28 1.1,5.74 3.2,6.8 0.66,0.34 1.34,0.52 2.06,0.52 0.72,0 1.42,-0.16 2.06,-0.48 2.2,-1.1 3.24,-3.5 3.24,-6.86 0,-3.12 -0.98,-5.2 -2.96,-6.32 -0.74,-0.4 -1.46,-0.6 -2.3,-0.6 -1.52,0 -2.82,0.64 -3.84,1.9 -0.98,1.2 -1.46,2.86 -1.46,5.04"
         style="font-size:20px;font-style:normal;font-variant:normal;font-weight:normal;font-stretch:normal;font-family:Cantarell;-inkscape-font-specification:Cantarell"
         id="path3171" />
      <path
         d="m 140.15531,205.83881 c 0.56,0 1.12,0.2 1.62,0.58 1.24,0.96 1.88,2.6 1.88,4.92 0,2.54 -0.68,4.3 -1.98,5.26 -0.48,0.36 -1,0.54 -1.58,0.54 -0.58,0 -1.14,-0.18 -1.62,-0.5 -1.38,-0.9 -2.08,-2.76 -2.08,-5.46 0,-2.78 1.18001,-5.34 3.76,-5.34 m -5.4,5.44 c 0,3.28 1.1,5.74 3.2,6.8 0.66,0.34 1.34,0.52 2.06,0.52 0.72,0 1.42,-0.16 2.06,-0.48 2.2,-1.1 3.24,-3.5 3.24,-6.86 0,-3.12 -0.98,-5.2 -2.96,-6.32 -0.74,-0.4 -1.46,-0.6 -2.3,-0.6 -1.52,0 -2.82,0.64 -3.84,1.9 -0.98,1.2 -1.46,2.86 -1.46,5.04"
         style="font-size:20px;font-style:normal;font-variant:normal;font-weight:normal;font-stretch:normal;font-family:Cantarell;-inkscape-font-specification:Cantarell"
         id="path3173" />
      <path
         d="m 152.85062,205.83881 c 0.56,0 1.12001,0.2 1.62,0.58 1.24,0.96 1.88,2.6 1.88,4.92 0,2.54 -0.68,4.3 -1.98,5.26 -0.47999,0.36 -1,0.54 -1.58,0.54 -0.57999,0 -1.14,-0.18 -1.62,-0.5 -1.37999,-0.9 -2.08,-2.76 -2.08,-5.46 0,-2.78 1.18001,-5.34 3.76,-5.34 m -5.4,5.44 c 0,3.28 1.10001,5.74 3.2,6.8 0.66,0.34 1.34001,0.52 2.06,0.52 0.72,0 1.42001,-0.16 2.06,-0.48 2.2,-1.1 3.24,-3.5 3.24,-6.86 0,-3.12 -0.98,-5.2 -2.96,-6.32 -0.73999,-0.4 -1.46,-0.6 -2.29999,-0.6 -1.52,0 -2.82001,0.64 -3.84001,1.9 -0.97999,1.2 -1.46,2.86 -1.46,5.04"
         style="font-size:20px;font-style:normal;font-variant:normal;font-weight:normal;font-stretch:normal;font-family:Cantarell;-inkscape-font-specification:Cantarell"
         id="path3175" />
      <path
         d="m 165.54594,205.83881 c 0.56,0 1.12,0.2 1.62,0.58 1.24,0.96 1.88,2.6 1.88,4.92 0,2.54 -0.68,4.3 -1.98,5.26 -0.48,0.36 -1,0.54 -1.58,0.54 -0.58,0 -1.14,-0.18 -1.62,-0.5 -1.38,-0.9 -2.08,-2.76 -2.08,-5.46 0,-2.78 1.18,-5.34 3.76,-5.34 m -5.4,5.44 c 0,3.28 1.1,5.74 3.2,6.8 0.66,0.34 1.34,0.52 2.06,0.52 0.72,0 1.42,-0.16 2.06,-0.48 2.2,-1.1 3.24,-3.5 3.24,-6.86 0,-3.12 -0.98,-5.2 -2.96,-6.32 -0.74,-0.4 -1.46,-0.6 -2.3,-0.6 -1.52,0 -2.82,0.64 -3.84,1.9 -0.98,1.2 -1.46,2.86 -1.46,5.04"
         style="font-size:20px;font-style:normal;font-variant:normal;font-weight:normal;font-stretch:normal;font-family:Cantarell;-inkscape-font-specification:Cantarell"
         id="path3177" />
      <path
         d="m 179.50125,204.51881 -1.92,0 -3.36,1.38 0.62,1.42 3.06,-1.2 0,10.82 -3.26,0 0,1.46 8.08,0 0,-1.46 -3.22,0 0,-12.42"
         style="font-size:20px;font-style:normal;font-variant:normal;font-weight:normal;font-stretch:normal;font-family:Cantarell;-inkscape-font-specification:Cantarell"
         id="path3179" />
      <path
         d="m 192.19656,204.51881 -1.92,0 -3.36,1.38 0.62,1.42 3.06,-1.2 0,10.82 -3.26,0 0,1.46 8.08,0 0,-1.46 -3.22,0 0,-12.42"
         style="font-size:20px;font-style:normal;font-variant:normal;font-weight:normal;font-stretch:normal;font-family:Cantarell;-inkscape-font-specification:Cantarell"
         id="path3181" />
    </g>
    <path
       sodipodi:type="arc"
       style="opacity:0.46586346;fill:#fcfce3;fill-opacity:1;stroke:none;filter:url(#filter3880)"
       id="path3866"
       sodipodi:cx="375.22543"
       sodipodi:cy="108.17533"
       sodipodi:rx="29.168468"
       sodipodi:ry="39.080086"
       d="m 404.30959,105.20602 c 1.22398,21.52094 -10.8052,40.29652 -26.86793,41.93643 -16.06273,1.63991 -30.07639,-14.47686 -31.30038,-35.99781 -1.22399,-21.520941 10.80519,-40.29652 26.86793,-41.936427 15.81515,-1.614629 29.6947,13.99836 31.24502,35.147267"
       transform="matrix(1.2064957,0,0,1.2064957,-323.52363,757.00568)"
       sodipodi:start="6.2071318"
       sodipodi:end="12.46847"
       sodipodi:open="true" />
    <path
       inkscape:connector-curvature="0"
       style="opacity:0.83999999;fill:none;stroke:#000000;stroke-width:3.61948705;stroke-miterlimit:4;stroke-opacity:1;stroke-dasharray:none"
       d="m 50.666646,816.20651 0,219.98729 167.202334,0 0,-188.11221 c -10.96477,-9.27921 -27.01954,-17.18392 -45.94094,-31.87508 z"
       id="rect3051-1"
       sodipodi:nodetypes="cccccc" />
  </g>
</svg>
