<?xml version="1.0" encoding="UTF-8" standalone="no"?>
<!-- Created with Inkscape (http://www.inkscape.org/) -->

<svg
   xmlns:dc="http://purl.org/dc/elements/1.1/"
   xmlns:cc="http://creativecommons.org/ns#"
   xmlns:rdf="http://www.w3.org/1999/02/22-rdf-syntax-ns#"
   xmlns:svg="http://www.w3.org/2000/svg"
   xmlns="http://www.w3.org/2000/svg"
   xmlns:xlink="http://www.w3.org/1999/xlink"
   xmlns:sodipodi="http://sodipodi.sourceforge.net/DTD/sodipodi-0.dtd"
   xmlns:inkscape="http://www.inkscape.org/namespaces/inkscape"
   width="256"
   height="256"
   id="svg2"
   version="1.1"
   inkscape:version="0.48.3.1 r9886"
   sodipodi:docname="exec.svg">
  <defs
     id="defs4">
    <linearGradient
       inkscape:collect="always"
       id="linearGradient4019">
      <stop
         style="stop-color:#ffffff;stop-opacity:1;"
         offset="0"
         id="stop4021" />
      <stop
         style="stop-color:#ffffff;stop-opacity:0;"
         offset="1"
         id="stop4023" />
    </linearGradient>
    <linearGradient
       id="linearGradient3864">
      <stop
         style="stop-color:#ffffff;stop-opacity:1;"
         offset="0"
         id="stop3866" />
      <stop
         style="stop-color:#d5d5d5;stop-opacity:0;"
         offset="1"
         id="stop3868" />
    </linearGradient>
    <linearGradient
       id="linearGradient3815">
      <stop
         style="stop-color:#e0f2fe;stop-opacity:1;"
         offset="0"
         id="stop3817" />
      <stop
         style="stop-color:#075e99;stop-opacity:1;"
         offset="1"
         id="stop3819" />
    </linearGradient>
    <linearGradient
       id="linearGradient3805">
      <stop
         style="stop-color:#989898;stop-opacity:1;"
         offset="0"
         id="stop3807" />
      <stop
         style="stop-color:#2a2a2a;stop-opacity:0.94968551;"
         offset="1"
         id="stop3809" />
    </linearGradient>
    <linearGradient
       id="linearGradient3927">
      <stop
         id="stop3929"
         offset="0"
         style="stop-color:#9d9d9d;stop-opacity:1;" />
      <stop
         id="stop3931"
         offset="1"
         style="stop-color:#ffffff;stop-opacity:1;" />
    </linearGradient>
    <linearGradient
       id="linearGradient3909">
      <stop
         style="stop-color:#909090;stop-opacity:1;"
         offset="0"
         id="stop3911" />
      <stop
         style="stop-color:#cfcfcf;stop-opacity:1;"
         offset="1"
         id="stop3913" />
    </linearGradient>
    <linearGradient
       id="linearGradient3815-1">
      <stop
         style="stop-color:#e0f2fe;stop-opacity:1;"
         offset="0"
         id="stop3817-9" />
      <stop
         style="stop-color:#01131f;stop-opacity:1;"
         offset="1"
         id="stop3819-2" />
    </linearGradient>
    <radialGradient
       inkscape:collect="always"
       xlink:href="#linearGradient4019"
       id="radialGradient4025"
       cx="120.92171"
       cy="141.02525"
       fx="120.92171"
       fy="141.02525"
       r="127.60499"
       gradientTransform="matrix(0.67948535,0.00596595,-0.00506566,0.54621211,39.471564,63.274139)"
       gradientUnits="userSpaceOnUse" />
    <filter
       inkscape:collect="always"
       id="filter4063"
       x="-0.24069887"
       width="1.4813977"
       y="-0.30262623"
       height="1.6052525">
      <feGaussianBlur
         inkscape:collect="always"
         stdDeviation="14.711907"
         id="feGaussianBlur4065" />
    </filter>
  </defs>
  <sodipodi:namedview
     id="base"
     pagecolor="#ffffff"
     bordercolor="#666666"
     borderopacity="1.0"
     inkscape:pageopacity="0.0"
     inkscape:pageshadow="2"
     inkscape:zoom="1.2484714"
     inkscape:cx="-38.936222"
     inkscape:cy="19.599174"
     inkscape:document-units="px"
     inkscape:current-layer="layer1"
     showgrid="false"
     showguides="true"
     inkscape:guide-bbox="true"
     inkscape:window-width="1916"
     inkscape:window-height="1026"
     inkscape:window-x="0"
     inkscape:window-y="26"
     inkscape:window-maximized="1" />
  <metadata
     id="metadata7">
    <rdf:RDF>
      <cc:Work
         rdf:about="">
        <dc:format>image/svg+xml</dc:format>
        <dc:type
           rdf:resource="http://purl.org/dc/dcmitype/StillImage" />
        <dc:title></dc:title>
      </cc:Work>
    </rdf:RDF>
  </metadata>
  <g
     inkscape:label="Layer 1"
     inkscape:groupmode="layer"
     id="layer1"
     transform="translate(0,-796.3622)">
    <path
       sodipodi:type="arc"
       style="opacity:0.26506025;fill:url(#radialGradient4025);fill-opacity:1;stroke:none;filter:url(#filter4063)"
       id="path3985"
       sodipodi:cx="120.92171"
       sodipodi:cy="141.02525"
       sodipodi:rx="73.345955"
       sodipodi:ry="58.336941"
       d="m 194.26766,141.02525 c 0,32.21861 -32.8381,58.33694 -73.34595,58.33694 -40.507855,0 -73.345958,-26.11833 -73.345958,-58.33694 0,-32.2186 32.838103,-58.336937 73.345958,-58.336937 28.21623,0 53.93077,12.873837 66.13291,33.109057"
       transform="matrix(1.4119049,0,0,1.0506194,-56.449671,1043.144)"
       sodipodi:start="0"
       sodipodi:end="5.8359757"
       sodipodi:open="true" />
    <path
       inkscape:connector-curvature="0"
       style="fill:#dbe3e2;fill-opacity:1;stroke:none"
       d="m 50.27813,817.11747 0,219.35603 166.72262,0 0,-187.57241 c -10.93332,-9.25258 -26.94202,-17.13462 -45.80913,-31.78362 z"
       id="rect3051"
       sodipodi:nodetypes="cccccc" />
    <path
       transform="matrix(1.0810446,0,0,1.1409536,-253.29061,789.71079)"
       style="fill:#f4f4f6;fill-opacity:1;stroke:none"
       inkscape:transform-center-x="-5.9896366"
       inkscape:transform-center-y="-0.83414663"
       d="m 398.55926,61.28488 -5.83563,-37.564857 43.1638,28.448868 z"
       id="path3054"
       inkscape:connector-curvature="0"
       sodipodi:nodetypes="cccc" />
    <rect
       style="fill:#87cdde;fill-opacity:1;stroke:none"
       id="rect3405"
       width="107.32989"
       height="107.32994"
       x="-618.63934"
       y="700.04889"
       transform="matrix(0.70710678,-0.70710678,0.70710678,0.70710678,0,0)" />
    <path
       inkscape:connector-curvature="0"
       style="fill:#53676c;stroke:none"
       d="m 136.7354,869.8947 -9.52897,3.3711 -0.71917,0.62927 -5.12407,6.15787 -7.19167,-4.15769 -8.31538,8.31538 c 9.44642,1.74343 16.60828,10.02879 16.60828,19.97937 0,11.21742 -9.09904,20.31648 -20.31648,20.31648 -9.955206,0 -18.218752,-7.1778 -19.9569,-16.63075 l -16.495905,16.49591 0.606798,0 0.898959,-0.35959 6.921987,-4.02284 6.87704,8.18053 -5.169017,6.11292 -0.516901,0.83154 -1.663075,9.95598 6.000553,3.48346 7.798473,-6.42756 0.471954,-0.85401 2.696878,-7.55126 10.540296,1.86534 -0.045,8.00074 0.15732,0.96638 5.12407,8.71991 6.83209,-1.2136 1.84287,-9.9335 -0.20227,-0.96638 -2.7643,-7.50631 9.25928,-5.34881 5.12407,6.15788 0.71917,0.65174 9.52897,3.3711 4.47232,-5.32634 -4.98922,-8.78732 -0.76412,-0.6068 -6.94446,-3.9779 3.66326,-10.04587 7.88837,1.41586 0.96638,0.0449 9.46155,-3.55089 0,-6.94446 -9.46155,-3.52841 -0.96638,0.0225 -7.88837,1.41586 -3.66326,-10.0234 6.94446,-4.00037 0.76412,-0.60679 4.98922,-8.78733 -4.47232,-5.30386 z"
       id="path3174" />
    <path
       inkscape:connector-curvature="0"
       style="fill:#d7eef4;stroke:none"
       d="m 171.0307,909.04438 -5.12407,8.69743 -0.13484,0.96638 0.0225,8.00074 -10.51783,1.86534 -2.71935,-7.55126 -0.44948,-0.85401 -7.79847,-6.40508 -6.02303,3.46099 1.66307,9.95597 0.51691,0.83154 5.16901,6.11293 -6.85456,8.18053 -6.94446,-4.02285 -0.89896,-0.35958 -10.09082,0.0899 -2.38224,6.53993 7.6861,6.56241 0.92143,0.29216 7.88837,1.37091 0,10.67514 -7.88837,1.37092 -0.92147,0.29216 -7.6861,6.5624 2.38224,6.53993 10.09082,0.0899 0.89896,-0.35959 6.94446,-4.04531 6.85457,8.18053 -5.16902,6.1354 -0.5169,0.80906 -1.66308,9.97845 2.71936,1.55066 22.40656,-22.40652 c -9.60449,-1.61342 -16.92291,-9.98405 -16.92291,-20.04679 0,-11.21741 9.09905,-20.31649 20.31648,-20.31649 10.06494,0 18.41351,7.33781 20.02432,16.94539 l 7.91084,-7.91084 -1.57318,-4.31501 6.94446,-3.97789 0.76412,-0.6068 4.96675,-8.78733 -1.48328,-1.77544 -3.39357,-3.39358 -9.10197,3.21378 -0.71917,0.65175 -5.14654,6.15787 -9.23681,-5.34881 2.7643,-7.50631 0.1798,-0.96638 -1.84287,-9.9335 -6.83209,-1.19112 z"
       id="path3174-4" />
  </g>
</svg>
