<?xml version="1.0" encoding="UTF-8" standalone="no"?>
<!-- Created with Inkscape (http://www.inkscape.org/) -->

<svg
   xmlns:dc="http://purl.org/dc/elements/1.1/"
   xmlns:cc="http://creativecommons.org/ns#"
   xmlns:rdf="http://www.w3.org/1999/02/22-rdf-syntax-ns#"
   xmlns:svg="http://www.w3.org/2000/svg"
   xmlns="http://www.w3.org/2000/svg"
   xmlns:xlink="http://www.w3.org/1999/xlink"
   xmlns:sodipodi="http://sodipodi.sourceforge.net/DTD/sodipodi-0.dtd"
   xmlns:inkscape="http://www.inkscape.org/namespaces/inkscape"
   width="256"
   height="256"
   id="svg2"
   version="1.1"
   inkscape:version="0.48.3.1 r9886"
   sodipodi:docname="txt.svg">
  <defs
     id="defs4">
    <linearGradient
       id="linearGradient3864">
      <stop
         style="stop-color:#ffffff;stop-opacity:1;"
         offset="0"
         id="stop3866" />
      <stop
         style="stop-color:#d5d5d5;stop-opacity:0;"
         offset="1"
         id="stop3868" />
    </linearGradient>
    <linearGradient
       id="linearGradient3815">
      <stop
         style="stop-color:#ffffff;stop-opacity:1;"
         offset="0"
         id="stop3817" />
      <stop
         style="stop-color:#a5a5a5;stop-opacity:1;"
         offset="1"
         id="stop3819" />
    </linearGradient>
    <linearGradient
       id="linearGradient3805">
      <stop
         style="stop-color:#989898;stop-opacity:1;"
         offset="0"
         id="stop3807" />
      <stop
         style="stop-color:#2a2a2a;stop-opacity:0.94968551;"
         offset="1"
         id="stop3809" />
    </linearGradient>
    <linearGradient
       id="linearGradient3927">
      <stop
         id="stop3929"
         offset="0"
         style="stop-color:#9d9d9d;stop-opacity:1;" />
      <stop
         id="stop3931"
         offset="1"
         style="stop-color:#ffffff;stop-opacity:1;" />
    </linearGradient>
    <linearGradient
       id="linearGradient3909">
      <stop
         style="stop-color:#909090;stop-opacity:1;"
         offset="0"
         id="stop3911" />
      <stop
         style="stop-color:#cfcfcf;stop-opacity:1;"
         offset="1"
         id="stop3913" />
    </linearGradient>
    <linearGradient
       id="linearGradient3815-1">
      <stop
         style="stop-color:#e0f2fe;stop-opacity:1;"
         offset="0"
         id="stop3817-9" />
      <stop
         style="stop-color:#01131f;stop-opacity:1;"
         offset="1"
         id="stop3819-2" />
    </linearGradient>
    <filter
       inkscape:collect="always"
       id="filter3862"
       x="-0.20169965"
       width="1.4033993"
       y="-0.18064831"
       height="1.3612966">
      <feGaussianBlur
         inkscape:collect="always"
         stdDeviation="3.884344"
         id="feGaussianBlur3864" />
    </filter>
    <filter
       inkscape:collect="always"
       id="filter3880"
       x="-0.84898819"
       width="2.6979764"
       y="-0.63366594"
       height="2.2673319">
      <feGaussianBlur
         inkscape:collect="always"
         stdDeviation="20.637391"
         id="feGaussianBlur3882" />
    </filter>
    <linearGradient
       inkscape:collect="always"
       xlink:href="#linearGradient3927"
       id="linearGradient3997"
       gradientUnits="userSpaceOnUse"
       x1="419.11514"
       y1="-27.717825"
       x2="404.26071"
       y2="81.883369" />
    <linearGradient
       inkscape:collect="always"
       xlink:href="#linearGradient3815"
       id="linearGradient3042"
       gradientUnits="userSpaceOnUse"
       gradientTransform="matrix(1.2064957,0,0,1.2064957,-326.94029,775.45566)"
       x1="401.29074"
       y1="22.914968"
       x2="335.61041"
       y2="452.23996" />
  </defs>
  <sodipodi:namedview
     id="base"
     pagecolor="#ffffff"
     bordercolor="#666666"
     borderopacity="1.0"
     inkscape:pageopacity="0.0"
     inkscape:pageshadow="2"
     inkscape:zoom="1.7656052"
     inkscape:cx="81.166561"
     inkscape:cy="77.418794"
     inkscape:document-units="px"
     inkscape:current-layer="layer1"
     showgrid="false"
     showguides="true"
     inkscape:guide-bbox="true"
     inkscape:window-width="1913"
     inkscape:window-height="1026"
     inkscape:window-x="0"
     inkscape:window-y="26"
     inkscape:window-maximized="1" />
  <metadata
     id="metadata7">
    <rdf:RDF>
      <cc:Work
         rdf:about="">
        <dc:format>image/svg+xml</dc:format>
        <dc:type
           rdf:resource="http://purl.org/dc/dcmitype/StillImage" />
        <dc:title></dc:title>
      </cc:Work>
    </rdf:RDF>
  </metadata>
  <g
     inkscape:label="Layer 1"
     inkscape:groupmode="layer"
     id="layer1"
     transform="translate(0,-796.3622)">
    <path
       inkscape:connector-curvature="0"
       style="fill:url(#linearGradient3042);fill-opacity:1;stroke:none"
       d="m 50.27813,817.11747 0,219.35603 166.72262,0 0,-187.57241 c -10.93332,-9.25258 -26.94202,-17.13462 -45.80913,-31.78362 z"
       id="rect3051"
       sodipodi:nodetypes="cccccc" />
    <path
       sodipodi:type="arc"
       style="opacity:0.46586346;fill:#fcfce3;fill-opacity:1;stroke:none;filter:url(#filter3880)"
       id="path3866"
       sodipodi:cx="375.22543"
       sodipodi:cy="108.17533"
       sodipodi:rx="29.168468"
       sodipodi:ry="39.080086"
       d="m 404.30959,105.20602 a 29.168468,39.080086 0 1 1 -0.0554,-0.85054"
       transform="matrix(1.2064957,0,0,1.2064957,-323.52363,757.00568)"
       sodipodi:start="6.2071318"
       sodipodi:end="12.46847"
       sodipodi:open="true" />
    <path
       transform="matrix(0.97766688,0,0,1.092318,-209.51979,798.57424)"
       style="opacity:0.56626503;fill:#626262;fill-opacity:1;stroke:none;filter:url(#filter3862)"
       inkscape:transform-center-x="-5.4168637"
       inkscape:transform-center-y="-0.79858784"
       d="M 407.69217,61.026367 392.4689,18.875528 436.5518,46.747407 z"
       id="path3054-5"
       inkscape:connector-curvature="0"
       sodipodi:nodetypes="cccc" />
    <path
       transform="matrix(1.0810446,0,0,1.1409536,-252.48963,789.3103)"
       style="fill:url(#linearGradient3997);fill-opacity:1;stroke:none"
       inkscape:transform-center-x="-5.9896366"
       inkscape:transform-center-y="-0.83414663"
       d="m 400.04112,59.178801 -7.31749,-35.458778 43.1638,28.448868 z"
       id="path3054"
       inkscape:connector-curvature="0"
       sodipodi:nodetypes="cccc" />
    <path
       inkscape:connector-curvature="0"
       style="opacity:0.83999999;fill:none;stroke:#000000;stroke-width:3.61948705;stroke-miterlimit:4;stroke-opacity:1;stroke-dasharray:none"
       d="m 50.666646,816.20651 0,219.98729 167.202334,0 0,-188.11221 c -10.96477,-9.27921 -27.01954,-17.18392 -45.94094,-31.87508 z"
       id="rect3051-1"
       sodipodi:nodetypes="cccccc" />
    <g
       style="font-size:139.77352905px;font-style:normal;font-variant:normal;font-weight:normal;font-stretch:normal;line-height:125%;letter-spacing:0px;word-spacing:0px;fill:#000000;fill-opacity:1;stroke:none;font-family:'A.C.M.E. Secret Agent';-inkscape-font-specification:'A.C.M.E. Secret Agent'"
       id="text4476">
      <path
         d="m 116.36675,935.56296 c -2e-5,-6.24317 2.5625,-12.3932 7.68755,-18.4501 2.14316,-2.51587 4.23976,-4.89202 6.2898,-7.12845 5.125,-5.59088 7.68751,-9.59772 7.68755,-12.02053 -4e-5,-5.21813 -3.44778,-7.82723 -10.34324,-7.82731 -3.26141,8e-5 -6.66256,0.74553 -10.20347,2.23637 -3.54094,1.39781 -5.358,2.09668 -5.45117,2.0966 -1.77047,8e-5 -3.68071,-1.49084 -5.73071,-4.47275 -2.05002,-2.98175 -3.07502,-5.31131 -3.07502,-6.98867 0,-3.72721 2.74887,-6.52268 8.24664,-8.38642 5.49774,-1.95673 11.50799,-2.93514 18.03078,-2.93524 9.41138,10e-5 16.81937,2.23647 22.22399,6.70913 5.40452,4.47284 8.10681,10.52969 8.10687,18.17056 -6e-5,7.45465 -2.84212,13.88423 -8.52619,19.28874 -2.3296,2.32962 -4.75234,4.47281 -7.26822,6.42959 -5.96371,4.75234 -9.36486,9.27168 -10.20347,13.55803 -0.37276,1.39777 -1.11822,2.37618 -2.23637,2.93524 -1.11822,0.55913 -2.8421,0.83868 -5.17162,0.83864 l -3.2148,0 c -4.56595,4e-5 -6.84892,-1.35111 -6.8489,-4.05343 m -2.23637,30.88995 0,-12.85916 c -2e-5,-2.98182 2.79545,-4.47273 8.38641,-4.47276 l 4.47275,0 c 5.59091,3e-5 8.38638,1.49094 8.38641,4.47276 l 0,12.85916 c -3e-5,2.98184 -2.7955,4.47275 -8.38641,4.47276 l -4.47275,0 c -5.59096,-10e-6 -8.38643,-1.49092 -8.38641,-4.47276"
         style="font-weight:bold;font-family:Asap;-inkscape-font-specification:Asap Bold"
         id="path4481" />
    </g>
  </g>
</svg>
