<?xml version="1.0" encoding="UTF-8" standalone="no"?>
<!-- Created with Inkscape (http://www.inkscape.org/) -->

<svg
   xmlns:dc="http://purl.org/dc/elements/1.1/"
   xmlns:cc="http://creativecommons.org/ns#"
   xmlns:rdf="http://www.w3.org/1999/02/22-rdf-syntax-ns#"
   xmlns:svg="http://www.w3.org/2000/svg"
   xmlns="http://www.w3.org/2000/svg"
   xmlns:sodipodi="http://sodipodi.sourceforge.net/DTD/sodipodi-0.dtd"
   xmlns:inkscape="http://www.inkscape.org/namespaces/inkscape"
   width="256"
   height="256"
   id="svg2"
   version="1.1"
   inkscape:version="0.48.3.1 r9886"
   sodipodi:docname="document-close.svg">
  <defs
     id="defs4" />
  <sodipodi:namedview
     id="base"
     pagecolor="#ffffff"
     bordercolor="#666666"
     borderopacity="1.0"
     inkscape:pageopacity="0.0"
     inkscape:pageshadow="2"
     inkscape:zoom="2.0760274"
     inkscape:cx="61.194325"
     inkscape:cy="74.285714"
     inkscape:document-units="px"
     inkscape:current-layer="layer1"
     showgrid="false"
     inkscape:window-width="1914"
     inkscape:window-height="1031"
     inkscape:window-x="0"
     inkscape:window-y="25"
     inkscape:window-maximized="1" />
  <metadata
     id="metadata7">
    <rdf:RDF>
      <cc:Work
         rdf:about="">
        <dc:format>image/svg+xml</dc:format>
        <dc:type
           rdf:resource="http://purl.org/dc/dcmitype/StillImage" />
        <dc:title />
      </cc:Work>
    </rdf:RDF>
  </metadata>
  <g
     inkscape:label="Capa 1"
     inkscape:groupmode="layer"
     id="layer1"
     transform="translate(0,-796.36218)">
    <g
       transform="matrix(31.755805,0,0,31.755805,-2031.4563,-15778.623)"
       id="layer9-7"
       style="fill:#666666;fill-opacity:1;display:inline" />
    <g
       style="fill:#666666;fill-opacity:1"
       transform="matrix(31.755805,0,0,31.755805,-2031.4563,-15778.623)"
       id="layer10-8" />
    <g
       style="fill:#666666;fill-opacity:1"
       transform="matrix(31.755805,0,0,31.755805,-2031.4563,-15778.623)"
       id="layer11-2" />
    <g
       style="fill:#ff7373;fill-opacity:1"
       transform="matrix(31.755805,0,0,31.755805,-2031.4563,-15778.623)"
       id="layer12-7">
      <g
         transform="translate(19,-242)"
         id="layer4-4-1"
         style="fill:#ff7373;fill-opacity:1;display:inline">
        <path
           inkscape:connector-curvature="0"
           d="m 46,764 c 0.01037,-1.2e-4 0.02079,-4.6e-4 0.03125,0 0.254951,0.0112 0.50987,0.12858 0.6875,0.3125 l 1.998026,1.99803 c 0.323208,0.31335 0.201738,0.3636 0.505468,0.064 L 51.3125,764.3125 c 0.969271,-0.92032 2.229095,0.6828 1.4375,1.4375 l -1.95455,1.95455 c -0.441302,0.43574 -0.390022,0.26338 0.05296,0.70636 l 1.870337,1.87034 c 0.735863,0.97086 -0.631437,2.16293 -1.4375,1.4375 l -1.915843,-1.91584 c -0.43323,-0.41688 -0.256865,-0.47395 -0.656544,-0.0743 l -1.990113,1.99011 C 45.816911,772.48341 44.999225,771.67695 45,771 c -3e-6,-0.26529 0.09306,-0.53058 0.28125,-0.71875 l 1.988613,-1.96137 c 0.399215,-0.38306 0.337326,-0.24394 -0.05126,-0.63253 L 45.28125,765.75 C 44.521184,764.70176 45.323348,763.99922 46,764 z"
           id="path10839-9"
           style="font-size:medium;font-style:normal;font-variant:normal;font-weight:normal;font-stretch:normal;text-indent:0;text-align:start;text-decoration:none;line-height:normal;letter-spacing:normal;word-spacing:normal;text-transform:none;direction:ltr;block-progression:tb;writing-mode:lr-tb;text-anchor:start;color:#bebebe;fill:#ff7373;fill-opacity:1;fill-rule:nonzero;stroke:none;stroke-width:1.78124988000000006;marker:none;visibility:visible;display:inline;overflow:visible;enable-background:new;font-family:Andale Mono;-inkscape-font-specification:Andale Mono"
           sodipodi:nodetypes="cccccccccccccccccccc" />
      </g>
    </g>
    <g
       style="fill:#666666;fill-opacity:1"
       transform="matrix(31.755805,0,0,31.755805,-2031.4563,-15778.623)"
       id="layer13-8" />
    <g
       style="fill:#666666;fill-opacity:1"
       transform="matrix(31.755805,0,0,31.755805,-2031.4563,-15778.623)"
       id="layer14-0" />
    <g
       style="fill:#666666;fill-opacity:1"
       transform="matrix(31.755805,0,0,31.755805,-2031.4563,-15778.623)"
       id="layer15-2" />
  </g>
</svg>
