<?xml version="1.0" encoding="UTF-8" standalone="no"?>
<!-- Created with Inkscape (http://www.inkscape.org/) -->

<svg
   xmlns:dc="http://purl.org/dc/elements/1.1/"
   xmlns:cc="http://creativecommons.org/ns#"
   xmlns:rdf="http://www.w3.org/1999/02/22-rdf-syntax-ns#"
   xmlns:svg="http://www.w3.org/2000/svg"
   xmlns="http://www.w3.org/2000/svg"
   xmlns:sodipodi="http://sodipodi.sourceforge.net/DTD/sodipodi-0.dtd"
   xmlns:inkscape="http://www.inkscape.org/namespaces/inkscape"
   width="256"
   height="256"
   id="svg4374"
   version="1.1"
   inkscape:version="0.48.3.1 r9886"
   sodipodi:docname="document-open.svg">
  <defs
     id="defs4376" />
  <sodipodi:namedview
     id="base"
     pagecolor="#ffffff"
     bordercolor="#666666"
     borderopacity="1.0"
     inkscape:pageopacity="0.0"
     inkscape:pageshadow="2"
     inkscape:zoom="2.9375821"
     inkscape:cx="149.49521"
     inkscape:cy="122.04883"
     inkscape:document-units="px"
     inkscape:current-layer="layer1"
     showgrid="false"
     inkscape:window-width="1914"
     inkscape:window-height="1031"
     inkscape:window-x="0"
     inkscape:window-y="25"
     inkscape:window-maximized="1" />
  <metadata
     id="metadata4379">
    <rdf:RDF>
      <cc:Work
         rdf:about="">
        <dc:format>image/svg+xml</dc:format>
        <dc:type
           rdf:resource="http://purl.org/dc/dcmitype/StillImage" />
        <dc:title />
      </cc:Work>
    </rdf:RDF>
  </metadata>
  <g
     inkscape:label="Capa 1"
     inkscape:groupmode="layer"
     id="layer1"
     transform="translate(0,-796.36218)">
    <g
       id="g5769"
       transform="matrix(15.380155,0,0,15.793058,3.6793131,788.48677)"
       style="fill:#4ecae9;fill-opacity:1">
      <g
         style="display:inline;fill:#4ecae9;fill-opacity:1"
         id="layer9"
         transform="translate(-160.0002,-646)"
         inkscape:label="status" />
      <g
         id="layer10"
         transform="translate(-160.0002,-646)"
         inkscape:label="devices"
         style="fill:#4ecae9;fill-opacity:1" />
      <g
         id="layer11"
         transform="translate(-160.0002,-646)"
         inkscape:label="apps"
         style="fill:#4ecae9;fill-opacity:1" />
      <g
         id="layer12"
         transform="translate(-160.0002,-646)"
         inkscape:label="actions"
         style="fill:#4ecae9;fill-opacity:1">
        <path
           style="fill:#4ecae9;fill-opacity:1;stroke:none;display:inline"
           sodipodi:nodetypes="cccccccccccsccccccc"
           id="rect3845-5-8"
           d="m 160.53145,651 c -0.28913,0 -0.53125,0.2421 -0.53125,0.5313 l 0,9.9375 c 0,0.2985 0.23264,0.5312 0.53125,0.5312 l 13.8125,0 c 0.2986,0 0.53125,-0.2326 0.53125,-0.5312 l 1.125,-4.9159 c 0,-0.2891 -0.24212,-0.5312 -0.53125,-0.5312 l -10.94928,0 c -0.62399,0.0172 -0.59801,-0.18467 -0.73737,0.36931 L 163.0002,659.5 c 0,0.277 -0.223,0.5 -0.5,0.5 -0.277,0 -0.5,-0.223 -0.5,-0.5 l 0,-4.9966 c 0,-0.277 0.223,-0.5 0.5,-0.5 l 0.46615,0 0,-2.52513 C 162.95763,651.01176 163.10477,651 162.63832,651 z"
           inkscape:connector-curvature="0" />
        <path
           style="font-size:medium;font-style:normal;font-variant:normal;font-weight:normal;font-stretch:normal;text-indent:0;text-align:start;text-decoration:none;line-height:normal;letter-spacing:normal;word-spacing:normal;text-transform:none;direction:ltr;block-progression:tb;writing-mode:lr-tb;text-anchor:start;baseline-shift:baseline;color:#000000;fill:#4ecae9;fill-opacity:1;stroke:none;stroke-width:1.99999988;marker:none;visibility:visible;display:inline;overflow:visible;enable-background:accumulate;font-family:Sans;-inkscape-font-specification:Sans"
           sodipodi:nodetypes="cccccccccccccccccccccccccc"
           id="path1234-3"
           d="m 164.8127,647 c -0.4584,0.0875 -0.82072,0.5334 -0.8125,1 l 0,6.49594 C 163.988,655.0915 163.91436,655 164.49754,655 l 1.21734,0 c 0.43747,0.0415 0.28532,-0.15319 0.28532,-0.52561 l 0,-5.00071 C 165.98576,648.90262 165.93099,649 166.48955,649 l 3.03228,0 c 0.62966,-0.0294 0.47837,0.004 0.47837,0.58145 l 0,1.74594 c 0.009,0.77132 -0.19035,0.67261 0.5619,0.67261 l 1.90348,0 c 0.71333,-0.0167 0.53462,-0.0542 0.53462,0.62068 l 0,1.74593 C 172.977,655.21889 172.9433,655 173.79359,655 l 0.8632,0 c 0.539,0.0407 0.34341,-0.15092 0.34341,-0.63339 l 0,-2.80411 c 0.006,-0.2641 -0.0976,-0.529 -0.28125,-0.7188 l -3.5625,-3.56245 c -0.18978,-0.1837 -0.45469,-0.28737 -0.71875,-0.28125 l -5.4375,0 c -0.0312,-10e-4 -0.0625,-10e-4 -0.0937,0 -0.0312,-10e-4 -0.0625,-10e-4 -0.0937,0 z"
           inkscape:connector-curvature="0" />
      </g>
      <g
         id="layer13"
         transform="translate(-160.0002,-646)"
         inkscape:label="places"
         style="fill:#4ecae9;fill-opacity:1" />
      <g
         id="layer14"
         transform="translate(-160.0002,-646)"
         inkscape:label="mimetypes"
         style="fill:#4ecae9;fill-opacity:1" />
      <g
         style="display:inline;fill:#4ecae9;fill-opacity:1"
         id="layer15"
         transform="translate(-160.0002,-646)"
         inkscape:label="emblems" />
      <g
         style="display:inline;fill:#4ecae9;fill-opacity:1"
         id="g4953"
         transform="translate(-160.0002,-646)"
         inkscape:label="categories" />
    </g>
  </g>
</svg>
