<?xml version="1.0" encoding="UTF-8" standalone="no"?>
<!-- Created with Inkscape (http://www.inkscape.org/) -->

<svg
   xmlns:dc="http://purl.org/dc/elements/1.1/"
   xmlns:cc="http://creativecommons.org/ns#"
   xmlns:rdf="http://www.w3.org/1999/02/22-rdf-syntax-ns#"
   xmlns:svg="http://www.w3.org/2000/svg"
   xmlns="http://www.w3.org/2000/svg"
   xmlns:sodipodi="http://sodipodi.sourceforge.net/DTD/sodipodi-0.dtd"
   xmlns:inkscape="http://www.inkscape.org/namespaces/inkscape"
   width="256"
   height="256"
   id="svg2"
   version="1.1"
   inkscape:version="0.48.3.1 r9886"
   sodipodi:docname="gtk-color-picker.svg">
  <defs
     id="defs4" />
  <sodipodi:namedview
     id="base"
     pagecolor="#ffffff"
     bordercolor="#666666"
     borderopacity="1.0"
     inkscape:pageopacity="0.0"
     inkscape:pageshadow="2"
     inkscape:zoom="1.4484237"
     inkscape:cx="422.32663"
     inkscape:cy="72.277223"
     inkscape:document-units="px"
     inkscape:current-layer="layer1"
     showgrid="false"
     inkscape:window-width="1914"
     inkscape:window-height="1031"
     inkscape:window-x="0"
     inkscape:window-y="25"
     inkscape:window-maximized="1" />
  <metadata
     id="metadata7">
    <rdf:RDF>
      <cc:Work
         rdf:about="">
        <dc:format>image/svg+xml</dc:format>
        <dc:type
           rdf:resource="http://purl.org/dc/dcmitype/StillImage" />
        <dc:title />
      </cc:Work>
    </rdf:RDF>
  </metadata>
  <g
     inkscape:label="Capa 1"
     inkscape:groupmode="layer"
     id="layer1"
     transform="translate(0,-796.36218)">
    <path
       style="fill:#4ecae9;fill-opacity:1;stroke:none"
       d="m 89.205367,872.22243 89.906673,87.52426 c 15.78318,13.96899 32.59401,-7.29663 19.68708,-20.02592 -7.46533,-7.12471 -13.30568,-12.90796 -13.30568,-12.90796 0,0 33.32169,-34.38727 51.7582,-53.92578 9.43181,-9.99557 13.86822,-33.75893 -0.58252,-47.68221 -14.61138,-14.07807 -35.59113,-27.36108 -55.08451,-9.52886 -20.33117,18.59861 -55.09123,53.35508 -55.09123,53.35508 0,0 -9.50576,-10.41045 -16.749,-16.34613 -15.068847,-12.02229 -31.314746,7.35067 -20.539024,19.53754 z"
       id="path3032"
       inkscape:connector-curvature="0"
       sodipodi:nodetypes="ccccssscccc" />
    <path
       style="font-size:medium;font-style:normal;font-variant:normal;font-weight:normal;font-stretch:normal;text-indent:0;text-align:start;text-decoration:none;line-height:normal;letter-spacing:normal;word-spacing:normal;text-transform:none;direction:ltr;block-progression:tb;writing-mode:lr-tb;text-anchor:start;baseline-shift:baseline;color:#000000;fill:#4ecae9;fill-opacity:1;stroke:none;stroke-width:16.32193184000000130;marker:none;visibility:visible;display:inline;overflow:visible;enable-background:accumulate;font-family:Sans;-inkscape-font-specification:Sans"
       d="m 98.84375,889.65625 -66.5,67.3125 -2.59375,2.625 0.28125,3.6875 1.59375,23.15625 c -1.402573,1.20517 -2.376841,1.87852 -9.3125,8.59375 -16.5400677,15.25155 11.177697,50.50845 30.40625,34.18755 5.348112,-4.7039 8.479858,-7.8344 10.53125,-10 l 27.5,-1.4063 3.125,-0.1563 2.1875,-2.1874 64.375,-63.6563 -11.5,-11.59375 -62.09375,61.43745 -27.71875,1.4376 -3.53125,0.1562 -2.28125,2.7188 c 0,0 -3.217817,3.8255 -11.375,11 -5.836029,2.7938 -12.449267,-5.8089 -7.25,-11.125 7.317176,-7.02312 10.40625,-9.68755 10.40625,-9.68755 l 3.375,-2.6875 -0.3125,-4.28125 -1.59375,-23.375 63.875,-64.6875 z"
       id="path3034"
       inkscape:connector-curvature="0"
       sodipodi:nodetypes="ccccccccccccccccccccccccc" />
  </g>
</svg>
