<?xml version="1.0" encoding="UTF-8" standalone="no"?>
<!-- Created with Inkscape (http://www.inkscape.org/) -->

<svg
   xmlns:dc="http://purl.org/dc/elements/1.1/"
   xmlns:cc="http://creativecommons.org/ns#"
   xmlns:rdf="http://www.w3.org/1999/02/22-rdf-syntax-ns#"
   xmlns:svg="http://www.w3.org/2000/svg"
   xmlns="http://www.w3.org/2000/svg"
   xmlns:sodipodi="http://sodipodi.sourceforge.net/DTD/sodipodi-0.dtd"
   xmlns:inkscape="http://www.inkscape.org/namespaces/inkscape"
   version="1.1"
   width="48"
   height="48"
   id="svg1307"
   inkscape:version="0.48.3.1 r9886"
   sodipodi:docname="gtk-preferences.svg">
  <sodipodi:namedview
     pagecolor="#ffffff"
     bordercolor="#666666"
     borderopacity="1"
     objecttolerance="10"
     gridtolerance="10"
     guidetolerance="10"
     inkscape:pageopacity="0"
     inkscape:pageshadow="2"
     inkscape:window-width="640"
     inkscape:window-height="833"
     id="namedview8"
     showgrid="false"
     inkscape:zoom="4.9166667"
     inkscape:cx="24.40678"
     inkscape:cy="24"
     inkscape:window-x="585"
     inkscape:window-y="96"
     inkscape:window-maximized="0"
     inkscape:current-layer="svg1307" />
  <defs
     id="defs1309" />
  <metadata
     id="metadata1312">
    <rdf:RDF>
      <cc:Work
         rdf:about="">
        <dc:format>image/svg+xml</dc:format>
        <dc:type
           rdf:resource="http://purl.org/dc/dcmitype/StillImage" />
        <dc:title />
      </cc:Work>
    </rdf:RDF>
  </metadata>
  <path
     inkscape:connector-curvature="0"
     style="fill:#4ecae9;fill-opacity:1;fill-rule:evenodd;stroke:none"
     id="rect3938"
     d="m 5.8085277,0.77966095 c -2.679298,0 -4.82547704,2.14617895 -4.82547704,4.82547695 l 0,36.7897261 c 0,2.679303 2.14617904,4.825473 4.82547704,4.825473 l 36.7897263,0 c 2.679299,0 4.825477,-2.14617 4.825477,-4.825473 l 0,-36.7897261 c 0,-2.679298 -2.146178,-4.82547695 -4.825477,-4.82547695 l -36.7897263,0 z m 26.5582643,5.51483095 4.607786,0 0,3.8095871 -4.607786,0 0,-3.8095871 z m -20.934588,0.217691 4.607786,0 0,15.0932211 -4.607786,0 0,-15.0932211 z m 17.342692,5.8776481 11.755297,0 c 1.896119,0 3.410487,1.514368 3.410487,3.410488 l 0,4.789195 c 0,1.896119 -1.514368,3.410487 -3.410487,3.410487 l -11.755297,0 c -1.89612,0 -3.410488,-1.514368 -3.410488,-3.410487 l 0,-4.789195 c 0,-1.89612 1.514368,-3.410488 3.410488,-3.410488 z m -20.8983063,11.61017 11.7552973,0 c 1.896119,0 3.410487,1.514368 3.410487,3.410488 l 0,4.789195 c 0,1.896119 -1.514368,3.410487 -3.410487,3.410487 l -11.7552973,0 c -1.896119,0 -3.410488,-1.514368 -3.410488,-3.410487 l 0,-4.789195 c 0,-1.89612 1.514369,-3.410488 3.410488,-3.410488 z m 24.4902023,2.322034 4.607786,0 0,15.020658 -4.607786,0 0,-15.020658 z m -20.934588,11.646452 4.607786,0 0,3.555614 -4.607786,0 0,-3.555614 z" />
</svg>
