<?xml version="1.0" encoding="UTF-8"?>
<!DOCTYPE svg PUBLIC "-//W3C//DTD SVG 1.1//EN" "http://www.w3.org/Graphics/SVG/1.1/DTD/svg11.dtd">
<!-- Creator: CorelDRAW -->
<svg xmlns="http://www.w3.org/2000/svg" xml:space="preserve" width="300px" height="300px" style="shape-rendering:geometricPrecision; text-rendering:geometricPrecision; image-rendering:optimizeQuality; fill-rule:evenodd; clip-rule:evenodd"
viewBox="0 0 300 300"
 xmlns:xlink="http://www.w3.org/1999/xlink">
 <defs>
  <style type="text/css">
   <![CDATA[
    .str0 {stroke:#1F1A17;stroke-width:1.35089}
    .fil0 {fill:url(#id0)}
    .fil3 {fill:url(#id1)}
    .fil2 {fill:url(#id2)}
    .fil1 {fill:url(#id3);fill-rule:nonzero}
   ]]>
  </style>
  <linearGradient id="id0" gradientUnits="userSpaceOnUse" x1="39.5025" y1="255.343" x2="259.255" y2="27.4524">
   <stop offset="0" style="stop-color:#1E1916"/>
   <stop offset="0.45098" style="stop-color:white"/>
   <stop offset="0.639216" style="stop-color:#DEDEDD"/>
   <stop offset="1" style="stop-color:#C2C1C1"/>
  </linearGradient>
  <linearGradient id="id1" gradientUnits="userSpaceOnUse" x1="56.4896" y1="297.578" x2="224.161" y2="1.95713">
   <stop offset="0" style="stop-color:#1E1916"/>
   <stop offset="0.470588" style="stop-color:#DEDEDD"/>
   <stop offset="0.639216" style="stop-color:#DEDEDD"/>
   <stop offset="1" style="stop-color:#1F1A17"/>
  </linearGradient>
  <linearGradient id="id2" gradientUnits="userSpaceOnUse" x1="227.044" y1="148.83" x2="56.7305" y2="148.83">
   <stop offset="0" style="stop-color:#1E1916"/>
   <stop offset="0.470588" style="stop-color:white"/>
   <stop offset="0.639216" style="stop-color:#DEDEDD"/>
   <stop offset="1" style="stop-color:#1F1A17"/>
  </linearGradient>
  <linearGradient id="id3" gradientUnits="userSpaceOnUse" x1="36.5917" y1="131.315" x2="259.668" y2="154.047">
   <stop offset="0" style="stop-color:#1E1916"/>
   <stop offset="0.501961" style="stop-color:white"/>
   <stop offset="0.580392" style="stop-color:#DEDEDD"/>
   <stop offset="1" style="stop-color:#1F1A17"/>
  </linearGradient>
 </defs>
 <g id="Capa_x0020_1">
  <metadata id="CorelCorpID_0Corel-Layer"/>
  <g id="_79832464">
   <path id="_79321648" class="fil0 str0" d="M153.217 48.6403l-10.2355 0c-4.3378,0 -6.6714,-18.5512 -9.59602,-18.5512 -6.2534,0 -11.5974,1.32459 -15.4716,3.84782l0.758492 12.1456 0 5.75651c0,2.52046 -9.31367,6.39735 -11.5144,6.39735 -2.76545,0 -12.9068,-13.4342 -14.7131,-13.4342 -2.74607,0 -12.7933,6.84995 -12.7933,8.95657 0,2.30869 5.62363,12.6231 6.82227,15.6169 1.65678,4.13848 -5.39664,10.1206 -8.78078,11.9781l-17.2322 -7.76485c-4.92051,2.60351 -7.15169,8.33787 -9.59602,13.4342 2.17305,2.50108 14.0722,12.0224 14.0722,14.0736l0 0.639458c0,3.30248 -3.29695,11.1421 -6.40704,11.5047 -4.51219,0.524577 -12.9649,0.00968876 -17.9007,0.00968876 -1.73982,3.28726 -3.19867,9.03546 -3.19867,14.0736 0,5.34681 19.1907,4.29489 19.1907,11.5144l0 8.95657c0,4.30319 -18.5512,6.37382 -18.5512,10.2341 0,6.31154 1.30245,10.9262 3.84782,14.828l10.8653 -0.752955 7.03681 0c2.45264,0 6.39735,9.47976 6.39735,11.5144 0,3.39799 -13.4342,11.8355 -13.4342,15.3525 0,1.98204 6.85411,12.1539 8.95657,12.1539 2.89279,0 15.801,-7.67627 17.2723,-7.67627 1.63325,0 9.59464,7.45619 9.59464,8.95657l0 1.27892c0,1.7772 -5.97935,14.6342 -7.03681,16.6314 1.62079,3.06303 9.01608,8.95657 13.4342,8.95657 2.59797,0 10.7725,-13.4342 14.0736,-13.4342l0.639458 0c3.3966,0 11.5144,3.28587 11.5144,7.03681l0.1481 8.33233 -0.787558 8.3005c3.62775,2.42911 9.39394,3.83813 15.3525,3.83813 3.07964,0 5.56965,-19.1907 9.59602,-19.1907l10.2355 0c3.7537,0 7.28872,18.5512 9.59602,18.5512 6.2534,0 11.5974,-1.32459 15.4716,-3.84782l-0.758492 -12.1456 0 -5.75651c0,-2.52046 9.31367,-6.39735 11.5144,-6.39735 2.76545,0 12.9068,13.4342 14.7131,13.4342 2.81666,0 12.7933,-6.75307 12.7933,-8.95657 0,-2.81389 -7.67627,-16.093 -7.67627,-17.2723 0,-2.24641 7.6735,-9.21816 9.63201,-10.3185l17.2349 7.7607c3.06303,-1.62079 8.95657,-9.01608 8.95657,-13.4342 0,-2.4997 -13.4328,-11.0549 -13.4328,-14.0736l0 -0.639458c0,-3.30248 3.29695,-11.1421 6.40704,-11.5047 4.51219,-0.524577 12.9649,-0.00968876 18.5014,0.106576l2.59797 -15.4702c-4.65476,-3.11563 -19.192,-4.70874 -19.192,-10.2341l0 -8.95657c0,-4.30319 18.5526,-6.37382 18.5526,-10.2341l0 -0.640842c0,-5.69007 -1.52944,-10.6244 -3.84644,-14.1954l-13.4259 0.76126 -4.47759 0c-2.45264,0 -6.39735,-9.47976 -6.39735,-11.5144 0,-2.97583 13.4342,-12.6175 13.4342,-14.7131 0,-2.81666 -6.75168,-12.7933 -8.95657,-12.7933 -3.08241,0 -15.4162,7.67627 -17.2723,7.67627 -1.63325,0 -9.59464,-7.45619 -9.59464,-8.95657l0 -1.27892c0,-3.25127 7.03542,-14.7131 7.03542,-17.2723 0,-1.62771 -10.3988,-8.31572 -13.4328,-8.31572 -2.59797,0 -10.7725,13.4328 -14.0736,13.4328 -3.56685,0 -11.5476,-3.13362 -12.068,-5.84232 -0.618697,-3.22497 -0.0858147,-14.4238 -0.0858147,-18.4654 -2.32669,-1.23047 -9.97389,-3.19867 -13.4342,-3.19867 -5.97243,0 -5.81879,19.1907 -10.8749,19.1907zm-79.0631 92.7519c0,39.8582 35.0885,76.7018 75.2014,75.2609 41.371,-1.48515 75.2484,-33.1826 75.2484,-75.2609 0,-39.1993 -34.0671,-75.2249 -72.0899,-75.2249 -43.5247,0 -78.3599,32.575 -78.3599,75.2249z"/>
   <path id="_79427320" class="fil1" d="M103.31 85.5102c-0.743266,0.584094 -1.35366,1.07684 -1.83533,1.48238 -14.075,11.8881 -22.763,29.3279 -25.0759,47.4459 -2.30869,18.0806 1.73982,36.8034 13.1241,51.3103l0.00830465 -0.00692054c0.543955,0.694823 1.00348,1.26369 1.37442,1.70384 13.0978,15.5076 30.9487,24.9181 49.5359,27.159 18.0502,2.17443 36.8048,-2.43049 52.5671,-14.8017 14.929,-11.7165 24.1472,-29.4815 26.77,-47.9358 2.60489,-18.3076 -1.28722,-37.2574 -12.5386,-51.5954 -13.084,-16.6688 -31.1009,-26.7437 -49.8985,-29.3985 -18.5678,-2.62427 -37.9177,1.99035 -54.0314,14.6369zm-5.15304 -2.44987c0.764028,-0.646379 1.42148,-1.18341 1.96405,-1.6111 17.2654,-13.549 38.0145,-18.4903 57.936,-15.675 20.0903,2.83881 39.3184,13.5684 53.2439,31.3113 12.1525,15.484 16.3671,35.8636 13.5767,55.4958 -2.8042,19.7194 -12.6798,38.7246 -28.6815,51.2826 -16.8972,13.2611 -37.0083,18.1969 -56.372,15.8633 -19.837,-2.38759 -38.8824,-12.4251 -52.8522,-28.9652 -0.610392,-0.723889 -1.11144,-1.33428 -1.50176,-1.83256l0.00692054 -0.00692054c-12.2812,-15.6473 -16.6577,-35.7626 -14.1843,-55.1415 2.47063,-19.3374 11.7746,-37.9772 26.8642,-50.7207z"/>
   <g>
    <path id="_79696504" class="fil2" d="M227.044 3.95855l-98.6454 96.053 37.5218 0.409696 -63.6178 82.4624 26.7451 0.991022 -14.7989 22.4738c7.10186,4.16478 14.9082,6.68248 23.2143,8.03752l40.3177 -39.6104 -36.2858 -1.36473 69.9058 -91.7581 -33.1895 -0.1481 48.8327 -77.5461zm-134.369 235.156l-35.9439 54.5879 63.6676 -62.5506c-3.39383,-3.84505 -8.1261,-5.51567 -12.5705,-5.01324l-10.3504 11.6846c-1.03947,0.423537 -1.88239,2.51493 -4.80286,1.29137z"/>
    <path id="_79675008" class="fil3" d="M226.489 3.27757l-106.647 97.9824 39.5634 0.430458 -67.0794 86.9483 28.1998 1.045 -9.2237 14.8127c7.142,4.80147 15.0729,7.76208 23.5603,9.42301l36.3882 -37.1259 -37.6007 -0.120417 71.73 -93.4522 -33.674 0.502431 54.783 -80.4458zm-136.012 234.662l-36.3149 58.318 65.0213 -66.3403c-3.25681,-2.96338 -7.42021,-4.2243 -11.3552,-3.77862l-10.3504 11.6846c-1.1668,0.474749 -2.08585,3.05196 -5.97381,0.682366l-1.02701 -0.5661z"/>
   </g>
  </g>
 </g>
</svg>
