<?xml version="1.0" encoding="UTF-8" standalone="no"?>
<!-- Created with Inkscape (http://www.inkscape.org/) -->

<svg
   xmlns:dc="http://purl.org/dc/elements/1.1/"
   xmlns:cc="http://creativecommons.org/ns#"
   xmlns:rdf="http://www.w3.org/1999/02/22-rdf-syntax-ns#"
   xmlns:svg="http://www.w3.org/2000/svg"
   xmlns="http://www.w3.org/2000/svg"
   xmlns:sodipodi="http://sodipodi.sourceforge.net/DTD/sodipodi-0.dtd"
   xmlns:inkscape="http://www.inkscape.org/namespaces/inkscape"
   width="256"
   height="256"
   viewBox="0 0 67.733332 67.733335"
   version="1.1"
   id="svg18205"
   inkscape:version="0.92.1 r15371"
   sodipodi:docname="equipo.svg">
  <defs
     id="defs18199" />
  <sodipodi:namedview
     id="base"
     pagecolor="#ffffff"
     bordercolor="#666666"
     borderopacity="1.0"
     inkscape:pageopacity="0.0"
     inkscape:pageshadow="2"
     inkscape:zoom="1.1794051"
     inkscape:cx="230.97387"
     inkscape:cy="112.39905"
     inkscape:document-units="mm"
     inkscape:current-layer="layer1"
     showgrid="false"
     units="px"
     inkscape:window-width="1918"
     inkscape:window-height="1023"
     inkscape:window-x="0"
     inkscape:window-y="26"
     inkscape:window-maximized="1" />
  <metadata
     id="metadata18202">
    <rdf:RDF>
      <cc:Work
         rdf:about="">
        <dc:format>image/svg+xml</dc:format>
        <dc:type
           rdf:resource="http://purl.org/dc/dcmitype/StillImage" />
        <dc:title></dc:title>
      </cc:Work>
    </rdf:RDF>
  </metadata>
  <g
     inkscape:label="Capa 1"
     inkscape:groupmode="layer"
     id="layer1"
     transform="translate(0,-229.26665)">
    <g
       id="g8837-4-5"
       transform="matrix(1.6175879,0,0,1.6175879,-1.2520032,-276.96787)">
      <g
         transform="matrix(0.35277777,0,0,-0.35277777,42.180169,334.02662)"
         id="g36-3-2-4">
        <path
           inkscape:connector-curvature="0"
           id="path38-5-5-7"
           style="fill:#e69732;fill-opacity:1;fill-rule:nonzero;stroke:none"
           d="m 0,0 c 0,-32.038 -25.973,-58.01 -58.01,-58.01 -32.038,0 -58.01,25.972 -58.01,58.01 0,32.038 25.972,58.01 58.01,58.01 C -25.973,58.01 0,32.038 0,0" />
      </g>
      <g
         transform="matrix(0.35277777,0,0,-0.35277777,9.3652786,342.07316)"
         id="g58-4-4">
        <path
           inkscape:connector-curvature="0"
           id="path60-2-4"
           style="fill:#2db0b2;fill-opacity:1;fill-rule:nonzero;stroke:none"
           d="m 0,0 -0.512,-3.985 h 67.95 v 2.694 z" />
      </g>
      <g
         transform="matrix(0.35277777,0,0,-0.35277777,12.609209,336.52189)"
         id="g62-7-3">
        <path
           inkscape:connector-curvature="0"
           id="path64-5-0"
           style="fill:#2db0b2;fill-opacity:1;fill-rule:nonzero;stroke:none"
           d="M 0,0 -9.195,-15.736 58.753,-15.327 49.148,0 Z" />
      </g>
      <path
         inkscape:connector-curvature="0"
         id="path66-3-7-7"
         style="fill:#ffffff;fill-opacity:1;fill-rule:nonzero;stroke:none;stroke-width:0.35277778"
         d="m 13.068519,336.04024 h 16.43733 v -11.24655 h -16.43733 z" />
      <path
         inkscape:connector-curvature="0"
         id="path68-5-8"
         style="fill:#2db0b2;fill-opacity:1;fill-rule:nonzero;stroke:none;stroke-width:0.35277778"
         d="m 13.068519,336.04024 h 16.43733 v -11.24655 h -16.43733 z" />
      <path
         inkscape:connector-curvature="0"
         id="path70-6-2-6"
         style="fill:#000000;fill-opacity:1;fill-rule:nonzero;stroke:none;stroke-width:0.35277778"
         d="m 13.068519,336.04024 h 16.43733 v -11.24655 h -16.43733 z m 16.86949,0.86501 h -17.30234 c -0.23883,0 -0.43216,-0.19367 -0.43216,-0.4325 v -12.11157 c 0,-0.23883 0.19333,-0.43251 0.43216,-0.43251 h 17.30234 c 0.23918,0 0.43285,0.19368 0.43285,0.43251 v 12.11157 c 0,0.23883 -0.19367,0.4325 -0.43285,0.4325" />
      <g
         transform="matrix(0.35277777,0,0,-0.35277777,16.277889,326.09152)"
         id="g72-0-2-8">
        <path
           inkscape:connector-curvature="0"
           id="path74-6-8-8"
           style="fill:#000000;fill-opacity:1;fill-rule:nonzero;stroke:none"
           d="M 0,0 C -2.315,0 -4.193,-1.877 -4.193,-4.193 V -21.96 c 0.006,-1.413 1.15,-2.556 2.562,-2.563 h 31.659 c 1.413,0.007 2.557,1.15 2.564,2.563 V -4.193 C 32.592,-1.877 30.714,0 28.397,0 Z M 30.028,-26.975 H -1.631 c -2.766,0.007 -5.008,2.248 -5.015,5.015 v 17.767 c 0,3.67 2.976,6.646 6.646,6.646 h 28.397 c 3.671,0 6.647,-2.976 6.647,-6.646 V -21.96 c -0.007,-2.767 -2.248,-5.008 -5.016,-5.015" />
      </g>
      <g
         transform="matrix(0.35277777,0,0,-0.35277777,33.398609,342.5286)"
         id="g76-2-6-4">
        <path
           inkscape:connector-curvature="0"
           id="path78-6-6-3"
           style="fill:#000000;fill-opacity:1;fill-rule:nonzero;stroke:none"
           d="m 0,0 h -68.664 c -0.442,0 -0.851,0.239 -1.067,0.625 -0.219,0.379 -0.219,0.847 0,1.226 l 9.809,15.94 c 0.242,0.633 0.95,0.95 1.583,0.708 0.633,-0.242 0.949,-0.951 0.708,-1.583 -0.049,-0.128 -0.119,-0.247 -0.207,-0.351 L -66.47,2.452 h 64.276 l -8.658,14.076 c -0.241,0.633 0.076,1.342 0.708,1.583 0.489,0.187 1.041,0.044 1.377,-0.357 L 1.042,1.814 c 0.22,-0.379 0.22,-0.846 0,-1.226 C 0.82,0.225 0.426,0.001 0,0" />
      </g>
      <g
         transform="matrix(0.35277777,0,0,-0.35277777,33.398609,343.82636)"
         id="g80-1-0-1">
        <path
           inkscape:connector-curvature="0"
           id="path82-8-0-4"
           style="fill:#000000;fill-opacity:1;fill-rule:nonzero;stroke:none"
           d="m 0,0 h -68.664 c -0.678,0 -1.227,0.549 -1.227,1.226 v 3.679 c 0,0.677 0.549,1.226 1.227,1.226 0.677,0 1.226,-0.549 1.226,-1.226 V 2.452 h 66.211 v 2.453 c 0,0.677 0.55,1.226 1.227,1.226 0.678,0 1.227,-0.549 1.227,-1.226 V 1.226 C 1.227,0.549 0.678,0 0,0" />
      </g>
      <g
         transform="matrix(0.35277777,0,0,-0.35277777,20.300719,340.58211)"
         id="g84-7-9-9">
        <path
           inkscape:connector-curvature="0"
           id="path86-9-1-2"
           style="fill:#000000;fill-opacity:1;fill-rule:nonzero;stroke:none"
           d="M 0,0 H 5.592 L 4.537,1.839 H 1.055 Z m 7.7,-2.453 h -9.808 c -0.436,0.003 -0.837,0.237 -1.055,0.614 -0.219,0.379 -0.219,0.846 0,1.226 l 2.452,4.291 c 0.218,0.377 0.619,0.611 1.055,0.614 H 5.248 C 5.687,4.293 6.095,4.059 6.314,3.678 l 2.454,-4.291 c 0.218,-0.38 0.218,-0.847 0,-1.226 C 8.547,-2.22 8.141,-2.454 7.7,-2.453" />
      </g>
      <g
         transform="matrix(0.35277777,0,0,-0.35277777,16.277889,326.09152)"
         id="g88-2-2-0">
        <path
           inkscape:connector-curvature="0"
           id="path90-0-6-6"
           style="fill:#822b86;fill-opacity:1;fill-rule:nonzero;stroke:none"
           d="M 0,0 C -2.315,0 -4.193,-1.877 -4.193,-4.193 V -21.96 c 0.006,-1.413 1.15,-2.556 2.562,-2.563 h 31.659 c 1.413,0.007 2.557,1.15 2.564,2.563 V -4.193 C 32.592,-1.877 30.714,0 28.397,0 Z" />
      </g>
      <g
         transform="matrix(0.35277777,0,0,-0.35277777,19.049799,329.73557)"
         id="g92-2-9-8">
        <path
           inkscape:connector-curvature="0"
           id="path94-3-4-9"
           style="fill:#2a9f6a;fill-opacity:1;fill-rule:nonzero;stroke:none"
           d="m 0,0 h -0.666 c -0.811,0 -1.473,0.663 -1.473,1.473 v 0.666 c 0,0.81 0.662,1.473 1.473,1.473 H 0 c 0.811,0 1.474,-0.663 1.474,-1.473 V 1.473 C 1.474,0.663 0.811,0 0,0" />
      </g>
      <g
         transform="matrix(0.35277777,0,0,-0.35277777,21.667379,329.73557)"
         id="g96-7-8-2">
        <path
           inkscape:connector-curvature="0"
           id="path98-5-2-6"
           style="fill:#2a9f6a;fill-opacity:1;fill-rule:nonzero;stroke:none"
           d="m 0,0 h -0.666 c -0.811,0 -1.473,0.663 -1.473,1.473 v 0.666 c 0,0.81 0.662,1.473 1.473,1.473 H 0 c 0.811,0 1.473,-0.663 1.473,-1.473 V 1.473 C 1.473,0.663 0.811,0 0,0" />
      </g>
      <g
         transform="matrix(0.35277777,0,0,-0.35277777,24.284949,329.73557)"
         id="g100-9-8-6">
        <path
           inkscape:connector-curvature="0"
           id="path102-2-2-4"
           style="fill:#2a9f6a;fill-opacity:1;fill-rule:nonzero;stroke:none"
           d="M 0,0 H -0.666 C -1.477,0 -2.14,0.663 -2.14,1.473 v 0.666 c 0,0.81 0.663,1.473 1.474,1.473 H 0 c 0.81,0 1.473,-0.663 1.473,-1.473 V 1.473 C 1.473,0.663 0.81,0 0,0" />
      </g>
      <g
         transform="matrix(0.35277777,0,0,-0.35277777,19.049799,332.3728)"
         id="g104-2-7-9">
        <path
           inkscape:connector-curvature="0"
           id="path106-8-8-5"
           style="fill:#2a9f6a;fill-opacity:1;fill-rule:nonzero;stroke:none"
           d="m 0,0 h -0.666 c -0.811,0 -1.473,0.663 -1.473,1.473 v 0.666 c 0,0.81 0.662,1.473 1.473,1.473 H 0 c 0.811,0 1.474,-0.663 1.474,-1.473 V 1.473 C 1.474,0.663 0.811,0 0,0" />
      </g>
      <g
         transform="matrix(0.35277777,0,0,-0.35277777,24.284949,332.3728)"
         id="g108-9-6-0">
        <path
           inkscape:connector-curvature="0"
           id="path110-7-7-4"
           style="fill:#2a9f6a;fill-opacity:1;fill-rule:nonzero;stroke:none"
           d="M 0,0 H -0.666 C -1.477,0 -2.14,0.663 -2.14,1.473 v 0.666 c 0,0.81 0.663,1.473 1.474,1.473 H 0 c 0.81,0 1.473,-0.663 1.473,-1.473 V 1.473 C 1.473,0.663 0.81,0 0,0" />
      </g>
      <g
         transform="matrix(0.35277777,0,0,-0.35277777,24.128919,331.7699)"
         id="g112-3-7-8">
        <path
           inkscape:connector-curvature="0"
           id="path114-6-0-7"
           style="fill:#2a9f6a;fill-opacity:1;fill-rule:nonzero;stroke:none"
           d="M 0,0 -7.333,7.112 -7.146,7.305 0.187,0.193 Z" />
      </g>
    </g>
  </g>
</svg>
