<?xml version="1.0" encoding="UTF-8" standalone="no"?>
<!-- Created with Inkscape (http://www.inkscape.org/) -->

<svg
   xmlns:dc="http://purl.org/dc/elements/1.1/"
   xmlns:cc="http://creativecommons.org/ns#"
   xmlns:rdf="http://www.w3.org/1999/02/22-rdf-syntax-ns#"
   xmlns:svg="http://www.w3.org/2000/svg"
   xmlns="http://www.w3.org/2000/svg"
   xmlns:sodipodi="http://sodipodi.sourceforge.net/DTD/sodipodi-0.dtd"
   xmlns:inkscape="http://www.inkscape.org/namespaces/inkscape"
   width="256"
   height="256"
   viewBox="0 0 67.733332 67.733335"
   version="1.1"
   id="svg18205"
   inkscape:version="0.92.1 r15371"
   sodipodi:docname="desktop.svg">
  <defs
     id="defs18199" />
  <sodipodi:namedview
     id="base"
     pagecolor="#ffffff"
     bordercolor="#666666"
     borderopacity="1.0"
     inkscape:pageopacity="0.0"
     inkscape:pageshadow="2"
     inkscape:zoom="1.4594394"
     inkscape:cx="175.31269"
     inkscape:cy="181.5921"
     inkscape:document-units="mm"
     inkscape:current-layer="layer1"
     showgrid="false"
     units="px"
     inkscape:window-width="1918"
     inkscape:window-height="1023"
     inkscape:window-x="0"
     inkscape:window-y="26"
     inkscape:window-maximized="1"
     inkscape:snap-global="false" />
  <metadata
     id="metadata18202">
    <rdf:RDF>
      <cc:Work
         rdf:about="">
        <dc:format>image/svg+xml</dc:format>
        <dc:type
           rdf:resource="http://purl.org/dc/dcmitype/StillImage" />
        <dc:title></dc:title>
      </cc:Work>
    </rdf:RDF>
  </metadata>
  <g
     inkscape:label="Capa 1"
     inkscape:groupmode="layer"
     id="layer1"
     transform="translate(0,-229.26665)">
    <g
       id="g4559"
       transform="matrix(1.7012137,0,0,1.7012137,-25.442253,-186.48198)">
      <rect
         ry="1.3058026"
         y="251.42767"
         x="16.088114"
         height="25.894814"
         width="37.624393"
         id="rect4503"
         style="opacity:1;fill:#2db0b2;fill-opacity:1;fill-rule:nonzero;stroke:#000000;stroke-width:0.80000001;stroke-linecap:round;stroke-linejoin:miter;stroke-miterlimit:4;stroke-dasharray:none;stroke-dashoffset:0;stroke-opacity:1;paint-order:fill markers stroke" />
      <g
         style="stroke-width:0.80000001;stroke-miterlimit:4;stroke-dasharray:none"
         transform="translate(0.99377151,0.84713324)"
         id="g4519">
        <g
           id="g88-2-2-0-2"
           transform="matrix(0.80823691,0,0,-0.80823691,22.429979,253.61775)"
           style="stroke:#000000;stroke-width:0.9898088;stroke-miterlimit:4;stroke-dasharray:none">
          <path
             d="M 0,0 C -2.315,0 -4.193,-1.877 -4.193,-4.193 V -21.96 c 0.006,-1.413 1.15,-2.556 2.562,-2.563 h 31.659 c 1.413,0.007 2.557,1.15 2.564,2.563 V -4.193 C 32.592,-1.877 30.714,0 28.397,0 Z"
             style="fill:#822b86;fill-opacity:1;fill-rule:nonzero;stroke:#000000;stroke-width:0.9898088;stroke-miterlimit:4;stroke-dasharray:none"
             id="path90-0-6-6-8"
             inkscape:connector-curvature="0" />
        </g>
        <g
           style="stroke-width:0.9898088;stroke-miterlimit:4;stroke-dasharray:none"
           id="g92-2-9-8-9"
           transform="matrix(0.80823691,0,0,-0.80823691,28.780604,261.9665)">
          <path
             d="m 0,0 h -0.666 c -0.811,0 -1.473,0.663 -1.473,1.473 v 0.666 c 0,0.81 0.662,1.473 1.473,1.473 H 0 c 0.811,0 1.474,-0.663 1.474,-1.473 V 1.473 C 1.474,0.663 0.811,0 0,0"
             style="fill:#2a9f6a;fill-opacity:1;fill-rule:nonzero;stroke:none;stroke-width:0.9898088;stroke-miterlimit:4;stroke-dasharray:none"
             id="path94-3-4-9-7"
             inkscape:connector-curvature="0" />
        </g>
        <g
           style="stroke-width:0.9898088;stroke-miterlimit:4;stroke-dasharray:none"
           id="g96-7-8-2-3"
           transform="matrix(0.80823691,0,0,-0.80823691,34.777652,261.9665)">
          <path
             d="m 0,0 h -0.666 c -0.811,0 -1.473,0.663 -1.473,1.473 v 0.666 c 0,0.81 0.662,1.473 1.473,1.473 H 0 c 0.811,0 1.473,-0.663 1.473,-1.473 V 1.473 C 1.473,0.663 0.811,0 0,0"
             style="fill:#2a9f6a;fill-opacity:1;fill-rule:nonzero;stroke:none;stroke-width:0.9898088;stroke-miterlimit:4;stroke-dasharray:none"
             id="path98-5-2-6-6"
             inkscape:connector-curvature="0" />
        </g>
        <g
           style="stroke-width:0.9898088;stroke-miterlimit:4;stroke-dasharray:none"
           id="g100-9-8-6-1"
           transform="matrix(0.80823691,0,0,-0.80823691,40.774682,261.9665)">
          <path
             d="M 0,0 H -0.666 C -1.477,0 -2.14,0.663 -2.14,1.473 v 0.666 c 0,0.81 0.663,1.473 1.474,1.473 H 0 c 0.81,0 1.473,-0.663 1.473,-1.473 V 1.473 C 1.473,0.663 0.81,0 0,0"
             style="fill:#2a9f6a;fill-opacity:1;fill-rule:nonzero;stroke:none;stroke-width:0.9898088;stroke-miterlimit:4;stroke-dasharray:none"
             id="path102-2-2-4-2"
             inkscape:connector-curvature="0" />
        </g>
        <g
           style="stroke-width:0.9898088;stroke-miterlimit:4;stroke-dasharray:none"
           id="g104-2-7-9-9"
           transform="matrix(0.80823691,0,0,-0.80823691,28.780604,268.00854)">
          <path
             d="m 0,0 h -0.666 c -0.811,0 -1.473,0.663 -1.473,1.473 v 0.666 c 0,0.81 0.662,1.473 1.473,1.473 H 0 c 0.811,0 1.474,-0.663 1.474,-1.473 V 1.473 C 1.474,0.663 0.811,0 0,0"
             style="fill:#2a9f6a;fill-opacity:1;fill-rule:nonzero;stroke:none;stroke-width:0.9898088;stroke-miterlimit:4;stroke-dasharray:none"
             id="path106-8-8-5-3"
             inkscape:connector-curvature="0" />
        </g>
        <g
           style="stroke-width:0.9898088;stroke-miterlimit:4;stroke-dasharray:none"
           id="g108-9-6-0-1"
           transform="matrix(0.80823691,0,0,-0.80823691,40.774682,268.00854)">
          <path
             d="M 0,0 H -0.666 C -1.477,0 -2.14,0.663 -2.14,1.473 v 0.666 c 0,0.81 0.663,1.473 1.474,1.473 H 0 c 0.81,0 1.473,-0.663 1.473,-1.473 V 1.473 C 1.473,0.663 0.81,0 0,0"
             style="fill:#2a9f6a;fill-opacity:1;fill-rule:nonzero;stroke:none;stroke-width:0.9898088;stroke-miterlimit:4;stroke-dasharray:none"
             id="path110-7-7-4-9"
             inkscape:connector-curvature="0" />
        </g>
        <g
           style="stroke-width:0.9898088;stroke-miterlimit:4;stroke-dasharray:none"
           id="g112-3-7-8-4"
           transform="matrix(0.80823691,0,0,-0.80823691,40.417207,266.62727)">
          <path
             d="M 0,0 -7.333,7.112 -7.146,7.305 0.187,0.193 Z"
             style="fill:#2a9f6a;fill-opacity:1;fill-rule:nonzero;stroke:none;stroke-width:0.9898088;stroke-miterlimit:4;stroke-dasharray:none"
             id="path114-6-0-7-7"
             inkscape:connector-curvature="0" />
        </g>
      </g>
    </g>
  </g>
</svg>
