<?xml version="1.0" encoding="UTF-8" standalone="no"?>
<!-- Created with Inkscape (http://www.inkscape.org/) -->

<svg
   xmlns:dc="http://purl.org/dc/elements/1.1/"
   xmlns:cc="http://creativecommons.org/ns#"
   xmlns:rdf="http://www.w3.org/1999/02/22-rdf-syntax-ns#"
   xmlns:svg="http://www.w3.org/2000/svg"
   xmlns="http://www.w3.org/2000/svg"
   xmlns:sodipodi="http://sodipodi.sourceforge.net/DTD/sodipodi-0.dtd"
   xmlns:inkscape="http://www.inkscape.org/namespaces/inkscape"
   width="256"
   height="256"
   viewBox="0 0 67.733332 67.733335"
   version="1.1"
   id="svg18205"
   inkscape:version="0.92.1 r15371"
   sodipodi:docname="folder_download.svg">
  <defs
     id="defs18199" />
  <sodipodi:namedview
     id="base"
     pagecolor="#ffffff"
     bordercolor="#666666"
     borderopacity="1.0"
     inkscape:pageopacity="0.0"
     inkscape:pageshadow="2"
     inkscape:zoom="1.1794051"
     inkscape:cx="230.97387"
     inkscape:cy="112.39905"
     inkscape:document-units="mm"
     inkscape:current-layer="layer1"
     showgrid="false"
     units="px"
     inkscape:window-width="1918"
     inkscape:window-height="1023"
     inkscape:window-x="0"
     inkscape:window-y="26"
     inkscape:window-maximized="1"
     inkscape:snap-global="false" />
  <metadata
     id="metadata18202">
    <rdf:RDF>
      <cc:Work
         rdf:about="">
        <dc:format>image/svg+xml</dc:format>
        <dc:type
           rdf:resource="http://purl.org/dc/dcmitype/StillImage" />
        <dc:title></dc:title>
      </cc:Work>
    </rdf:RDF>
  </metadata>
  <g
     inkscape:label="Capa 1"
     inkscape:groupmode="layer"
     id="layer1"
     transform="translate(0,-229.26665)">
    <g
       id="g8796-9-1"
       transform="matrix(1.7014005,0,0,1.7014005,0.58684549,-460.72047)">
      <g
         transform="matrix(0.35277777,0,0,-0.35277777,38.731871,425.44109)"
         id="g24-7-6-0">
        <path
           inkscape:connector-curvature="0"
           id="path26-8-5-6"
           style="fill:#2db0b2;fill-opacity:1;fill-rule:nonzero;stroke:none"
           d="m 0,0 c 0,-30.213 -24.492,-54.705 -54.705,-54.705 -30.213,0 -54.705,24.492 -54.705,54.705 0,30.213 24.492,54.705 54.705,54.705 C -24.492,54.705 0,30.213 0,0" />
      </g>
      <path
         sodipodi:nodetypes="cccccccccccccc"
         inkscape:connector-curvature="0"
         id="path4542-6-5-0-0-8-9-7-1"
         d="m 24.27668,415.43345 c -3.861831,0.015 -7.116548,-0.036 -10.284706,0 -0.478303,-0.0223 -0.835186,-0.14527 -0.836748,0.47286 l 0.0083,9.79157 -3.2886634,0.0117 c -0.7584261,-0.085 -0.1850603,0.35369 0.092173,0.65819 2.0949664,2.25545 4.8465524,4.59498 8.8414094,8.70388 0.541646,0.50942 0.605901,0.54541 1.109298,0.0997 2.798204,-2.48498 5.192675,-4.87656 9.198012,-9.08686 0.49114,-0.44138 0.205587,-0.36509 -0.354343,-0.37403 l -3.652029,0.0149 -0.26579,-9.69483 c -0.0083,-0.48473 -0.0646,-0.59649 -0.565493,-0.59475 z"
         style="fill:#822b86;fill-opacity:1;stroke:#000000;stroke-width:0.73436093;stroke-opacity:1" />
    </g>
  </g>
</svg>
