<?xml version="1.0" encoding="UTF-8" standalone="no"?>
<!-- Created with Inkscape (http://www.inkscape.org/) -->

<svg
   xmlns:dc="http://purl.org/dc/elements/1.1/"
   xmlns:cc="http://creativecommons.org/ns#"
   xmlns:rdf="http://www.w3.org/1999/02/22-rdf-syntax-ns#"
   xmlns:svg="http://www.w3.org/2000/svg"
   xmlns="http://www.w3.org/2000/svg"
   xmlns:sodipodi="http://sodipodi.sourceforge.net/DTD/sodipodi-0.dtd"
   xmlns:inkscape="http://www.inkscape.org/namespaces/inkscape"
   width="256"
   height="256"
   viewBox="0 0 67.733332 67.733335"
   version="1.1"
   id="svg18205"
   inkscape:version="0.92.1 r15371"
   sodipodi:docname="folder-music.svg">
  <defs
     id="defs18199" />
  <sodipodi:namedview
     id="base"
     pagecolor="#ffffff"
     bordercolor="#666666"
     borderopacity="1.0"
     inkscape:pageopacity="0.0"
     inkscape:pageshadow="2"
     inkscape:zoom="2.533314"
     inkscape:cx="131.84613"
     inkscape:cy="114.46449"
     inkscape:document-units="mm"
     inkscape:current-layer="layer1"
     showgrid="false"
     units="px"
     inkscape:window-width="1918"
     inkscape:window-height="1023"
     inkscape:window-x="0"
     inkscape:window-y="26"
     inkscape:window-maximized="1"
     inkscape:snap-global="true"
     showguides="true"
     inkscape:guide-bbox="true"
     inkscape:snap-bbox="false">
    <sodipodi:guide
       position="-7.2064694,8.3553269"
       orientation="0,1"
       id="guide4507"
       inkscape:locked="false" />
    <sodipodi:guide
       position="2.2977149,62.873835"
       orientation="1,0"
       id="guide4509"
       inkscape:locked="false" />
  </sodipodi:namedview>
  <metadata
     id="metadata18202">
    <rdf:RDF>
      <cc:Work
         rdf:about="">
        <dc:format>image/svg+xml</dc:format>
        <dc:type
           rdf:resource="http://purl.org/dc/dcmitype/StillImage" />
        <dc:title></dc:title>
      </cc:Work>
    </rdf:RDF>
  </metadata>
  <g
     inkscape:label="Capa 1"
     inkscape:groupmode="layer"
     id="layer1"
     transform="translate(0,-229.26665)">
    <g
       transform="translate(-66.852857,136.00002)"
       id="g5058">
      <path
         inkscape:export-ydpi="90"
         inkscape:export-xdpi="90"
         inkscape:export-filename="/home/alumno/Escritorio/folders.png"
         sodipodi:nodetypes="cscsssssssc"
         inkscape:connector-curvature="0"
         id="rect4636-6-5-9"
         d="m 127.12868,104.64651 -12.56867,0.002 c -3.98298,4.8e-4 -4.07898,1.77558 -4.23804,2.41727 l -33.070912,0.11759 c -2.48775,0.009 -3.02622,1.17237 -3.02622,2.93911 v 23.04255 c 0,1.17234 0.94381,2.11615 2.11616,2.11615 h 50.787682 c 1.17236,0 2.11615,-0.94381 2.11615,-2.11615 v -26.40187 c 0,-1.17234 -0.94382,-2.12221 -2.11615,-2.11615 z"
         style="opacity:1;fill:#e69732;fill-opacity:1;fill-rule:nonzero;stroke:#000000;stroke-width:1.57554173;stroke-linecap:round;stroke-linejoin:miter;stroke-miterlimit:4;stroke-dasharray:none;stroke-dashoffset:0;stroke-opacity:1;paint-order:fill markers stroke" />
      <path
         inkscape:export-ydpi="90"
         inkscape:export-xdpi="90"
         inkscape:export-filename="/home/alumno/Escritorio/folders.png"
         inkscape:connector-curvature="0"
         id="path4708-3-2"
         d="m 87.602208,113.71878 33.823332,-6.58184 -1e-5,21.93946 -31.995032,-0.36569 z"
         style="fill:#199453;fill-opacity:1;fill-rule:evenodd;stroke:#000000;stroke-width:0.52518058;stroke-linecap:butt;stroke-linejoin:miter;stroke-miterlimit:4;stroke-dasharray:none;stroke-opacity:1" />
      <path
         inkscape:export-ydpi="90"
         inkscape:export-xdpi="90"
         inkscape:export-filename="/home/alumno/Escritorio/folders.png"
         inkscape:connector-curvature="0"
         id="path4708-02"
         d="m 93.535328,119.36959 33.823322,-6.58184 v 21.93945 l -31.995042,-0.36568 z"
         style="fill:#199453;fill-opacity:1;fill-rule:evenodd;stroke:#000000;stroke-width:0.52518058;stroke-linecap:butt;stroke-linejoin:miter;stroke-miterlimit:4;stroke-dasharray:none;stroke-opacity:1" />
      <path
         inkscape:export-ydpi="90"
         inkscape:export-xdpi="90"
         inkscape:export-filename="/home/alumno/Escritorio/folders.png"
         sodipodi:nodetypes="sccssssssss"
         inkscape:connector-curvature="0"
         id="rect4636-7-37"
         d="m 72.473418,112.98686 h 32.200252 c 6.96116,0.0952 6.10131,3.52399 6.2792,7.05212 l 17.97196,0.13308 c 2.81558,0.021 3.42508,1.32689 3.42508,3.32647 v 26.07953 c 0,1.32686 -1.0682,2.39506 -2.39507,2.39506 H 72.473418 c -1.32686,0 -2.39505,-1.0682 -2.39505,-2.39506 v -34.19612 c 0,-1.32686 1.06819,-2.39506 2.39505,-2.39506 z"
         style="opacity:1;fill:#e69732;fill-opacity:1;fill-rule:nonzero;stroke:#000000;stroke-width:1.57554173;stroke-linecap:round;stroke-linejoin:miter;stroke-miterlimit:4;stroke-dasharray:none;stroke-dashoffset:0;stroke-opacity:1;paint-order:fill markers stroke" />
      <path
         inkscape:export-ydpi="90"
         inkscape:export-xdpi="90"
         inkscape:export-filename="/home/alumno/Escritorio/folders.png"
         sodipodi:nodetypes="cccccccccccccccccccccccccccsc"
         inkscape:connector-curvature="0"
         id="rect4652-7-8-4-4-6-6-0-5-7-5"
         d="m 79.527213,122.7849 c -0.452267,-0.01 -0.93259,0.0923 -0.974592,0.74158 h -0.0097 v 17.2413 c -0.0687,0.34771 -0.08693,0.70184 -0.05448,1.05366 0.220642,2.25895 2.444427,3.93456 4.976814,3.75 2.532465,-0.18434 4.422222,-2.1601 4.229082,-4.42111 l -0.0097,-0.09 c -0.248337,-2.25665 -2.492617,-3.91048 -5.022587,-3.7011 -0.379733,0.0323 -0.753502,0.10679 -1.11274,0.22117 v -11.01073 h 12.458845 v 14.61281 h 0.0078 c -0.02202,0.22808 -0.0229,0.45752 -0.0019,0.68576 0.220729,2.2589 2.444631,3.93442 4.977009,3.74978 2.532306,-0.18465 4.421906,-2.16008 4.228896,-4.42098 l -0.008,-0.0899 c -0.24834,-2.25661 -2.49262,-3.91042 -5.022623,-3.70108 -0.400821,0.0334 -0.77345,0.1243 -1.151019,0.2489 v -11.07479 l 7.79e-4,-0.012 0.0114,-2.19887 c 0.0114,-0.16533 -0.0078,-0.63359 -0.03294,-0.77626 v -0.0685 l 0.0078,0.10772 c -0.106398,-0.45181 -0.453153,-0.85466 -1.107838,-0.81108 H 80.150947 c -0.154472,0 -0.384294,-0.0338 -0.621873,-0.0383 z"
         style="fill:#28abbd;fill-opacity:1;stroke:#000000;stroke-width:1.34323263;stroke-miterlimit:4;stroke-dasharray:none;stroke-opacity:1" />
    </g>
  </g>
</svg>
