<?xml version="1.0" encoding="UTF-8" standalone="no"?>
<!-- Created with Inkscape (http://www.inkscape.org/) -->

<svg
   xmlns:dc="http://purl.org/dc/elements/1.1/"
   xmlns:cc="http://creativecommons.org/ns#"
   xmlns:rdf="http://www.w3.org/1999/02/22-rdf-syntax-ns#"
   xmlns:svg="http://www.w3.org/2000/svg"
   xmlns="http://www.w3.org/2000/svg"
   xmlns:sodipodi="http://sodipodi.sourceforge.net/DTD/sodipodi-0.dtd"
   xmlns:inkscape="http://www.inkscape.org/namespaces/inkscape"
   width="256"
   height="256"
   viewBox="0 0 67.733332 67.733335"
   version="1.1"
   id="svg18205"
   inkscape:version="0.92.1 r15371"
   sodipodi:docname="folder-movies.svg">
  <defs
     id="defs18199" />
  <sodipodi:namedview
     id="base"
     pagecolor="#ffffff"
     bordercolor="#666666"
     borderopacity="1.0"
     inkscape:pageopacity="0.0"
     inkscape:pageshadow="2"
     inkscape:zoom="2.533314"
     inkscape:cx="131.84613"
     inkscape:cy="114.46449"
     inkscape:document-units="mm"
     inkscape:current-layer="layer1"
     showgrid="false"
     units="px"
     inkscape:window-width="1918"
     inkscape:window-height="1023"
     inkscape:window-x="0"
     inkscape:window-y="26"
     inkscape:window-maximized="1"
     inkscape:snap-global="true"
     showguides="true"
     inkscape:guide-bbox="true"
     inkscape:snap-bbox="false">
    <sodipodi:guide
       position="-7.2064694,8.3553269"
       orientation="0,1"
       id="guide4507"
       inkscape:locked="false" />
    <sodipodi:guide
       position="2.2977149,62.873835"
       orientation="1,0"
       id="guide4509"
       inkscape:locked="false" />
  </sodipodi:namedview>
  <metadata
     id="metadata18202">
    <rdf:RDF>
      <cc:Work
         rdf:about="">
        <dc:format>image/svg+xml</dc:format>
        <dc:type
           rdf:resource="http://purl.org/dc/dcmitype/StillImage" />
        <dc:title></dc:title>
      </cc:Work>
    </rdf:RDF>
  </metadata>
  <g
     inkscape:label="Capa 1"
     inkscape:groupmode="layer"
     id="layer1"
     transform="translate(0,-229.26665)">
    <g
       transform="translate(-148.07681,76.282913)"
       id="g5051">
      <path
         inkscape:export-ydpi="90"
         inkscape:export-xdpi="90"
         inkscape:export-filename="/home/alumno/Escritorio/folders.png"
         sodipodi:nodetypes="cscsssssssc"
         inkscape:connector-curvature="0"
         id="rect4636-6-5-1"
         d="m 208.24819,164.25917 -12.56867,0.002 c -3.98298,4.8e-4 -4.07898,1.77558 -4.23804,2.41727 l -33.07091,0.11759 c -2.48776,0.009 -3.02622,1.17237 -3.02622,2.93911 v 23.04255 c 0,1.17234 0.9438,2.11615 2.11615,2.11615 h 50.78769 c 1.17236,0 2.11615,-0.94381 2.11615,-2.11615 v -26.40187 c 0,-1.17234 -0.94382,-2.12221 -2.11615,-2.11615 z"
         style="opacity:1;fill:#e69732;fill-opacity:1;fill-rule:nonzero;stroke:#000000;stroke-width:1.57554173;stroke-linecap:round;stroke-linejoin:miter;stroke-miterlimit:4;stroke-dasharray:none;stroke-dashoffset:0;stroke-opacity:1;paint-order:fill markers stroke" />
      <path
         inkscape:export-ydpi="90"
         inkscape:export-xdpi="90"
         inkscape:export-filename="/home/alumno/Escritorio/folders.png"
         inkscape:connector-curvature="0"
         id="path4708-3-29"
         d="m 168.72171,173.33144 33.82333,-6.58184 v 21.93946 L 170.55,188.32337 Z"
         style="fill:#199453;fill-opacity:1;fill-rule:evenodd;stroke:#000000;stroke-width:0.52518058;stroke-linecap:butt;stroke-linejoin:miter;stroke-miterlimit:4;stroke-dasharray:none;stroke-opacity:1" />
      <path
         inkscape:export-ydpi="90"
         inkscape:export-xdpi="90"
         inkscape:export-filename="/home/alumno/Escritorio/folders.png"
         inkscape:connector-curvature="0"
         id="path4708-31"
         d="m 174.65484,178.98225 33.82332,-6.58184 v 21.93945 l -31.99504,-0.36568 z"
         style="fill:#199453;fill-opacity:1;fill-rule:evenodd;stroke:#000000;stroke-width:0.52518058;stroke-linecap:butt;stroke-linejoin:miter;stroke-miterlimit:4;stroke-dasharray:none;stroke-opacity:1" />
      <path
         inkscape:export-ydpi="90"
         inkscape:export-xdpi="90"
         inkscape:export-filename="/home/alumno/Escritorio/folders.png"
         sodipodi:nodetypes="sccssssssss"
         inkscape:connector-curvature="0"
         id="rect4636-7-9"
         d="m 153.59293,172.59952 h 32.20024 c 6.96117,0.0952 6.10131,3.52399 6.27921,7.05212 l 17.97196,0.13308 c 2.81558,0.021 3.42508,1.32689 3.42508,3.32647 v 26.07953 c 0,1.32686 -1.0682,2.39506 -2.39507,2.39506 h -57.48142 c -1.32686,0 -2.39505,-1.0682 -2.39505,-2.39506 V 174.9946 c 0,-1.32686 1.06819,-2.39506 2.39505,-2.39506 z"
         style="opacity:1;fill:#e69732;fill-opacity:1;fill-rule:nonzero;stroke:#000000;stroke-width:1.57554173;stroke-linecap:round;stroke-linejoin:miter;stroke-miterlimit:4;stroke-dasharray:none;stroke-dashoffset:0;stroke-opacity:1;paint-order:fill markers stroke" />
      <g
         inkscape:export-ydpi="90"
         inkscape:export-xdpi="90"
         inkscape:export-filename="/home/alumno/Escritorio/folders.png"
         transform="matrix(0.50645933,0,0,-0.50645933,187.85386,186.86676)"
         id="g286-0-4-9-9-4">
        <path
           inkscape:connector-curvature="0"
           id="path288-6-4-0-2-7"
           style="fill:#e69732;fill-opacity:1;fill-rule:nonzero;stroke:none"
           d="m 0,0 -16.11,-8.674 v -9.914 L 0,-27.263 Z" />
      </g>
      <g
         inkscape:export-ydpi="90"
         inkscape:export-xdpi="90"
         inkscape:export-filename="/home/alumno/Escritorio/folders.png"
         transform="matrix(0.50645933,0,0,-0.50645933,179.69464,200.6742)"
         id="g290-3-0-9-2-8">
        <path
           inkscape:connector-curvature="0"
           id="path292-2-6-1-8-4"
           style="fill:#822b86;fill-opacity:1;fill-rule:nonzero;stroke:none"
           d="m 0,0 c 0,-2.737 -2.219,-4.957 -4.957,-4.957 h -33.458 c -2.738,0 -4.957,2.22 -4.957,4.957 v 27.263 c 0,2.737 2.219,4.957 4.957,4.957 H -4.957 C -2.219,32.22 0,30 0,27.263 Z" />
      </g>
      <g
         inkscape:export-ydpi="90"
         inkscape:export-xdpi="90"
         inkscape:export-filename="/home/alumno/Escritorio/folders.png"
         style="fill:#2db0b2;fill-opacity:1"
         transform="matrix(0.50645933,0,0,-0.50645933,187.85386,186.86676)"
         id="g294-0-0-7-9-5">
        <path
           inkscape:connector-curvature="0"
           id="path296-6-2-7-7-0"
           style="fill:#2db0b2;fill-opacity:1;stroke:#000000;stroke-width:2.47799993;stroke-linecap:round;stroke-linejoin:miter;stroke-miterlimit:10;stroke-dasharray:none;stroke-opacity:1"
           d="m 0,0 -16.11,-8.674 v -9.914 L 0,-27.263 Z" />
      </g>
      <g
         inkscape:export-ydpi="90"
         inkscape:export-xdpi="90"
         inkscape:export-filename="/home/alumno/Escritorio/folders.png"
         transform="matrix(0.50645933,0,0,-0.50645933,179.69464,200.6742)"
         id="g298-1-2-1-3-3">
        <path
           inkscape:connector-curvature="0"
           id="path300-5-8-1-6-6"
           style="fill:none;stroke:#000000;stroke-width:2.47799993;stroke-linecap:round;stroke-linejoin:miter;stroke-miterlimit:10;stroke-dasharray:none;stroke-opacity:1"
           d="m 0,0 c 0,-2.737 -2.219,-4.957 -4.957,-4.957 h -33.458 c -2.738,0 -4.957,2.22 -4.957,4.957 v 27.263 c 0,2.737 2.219,4.957 4.957,4.957 H -4.957 C -2.219,32.22 0,30 0,27.263 Z" />
      </g>
    </g>
  </g>
</svg>
