<?xml version="1.0" encoding="UTF-8" standalone="no"?>
<!-- Created with Inkscape (http://www.inkscape.org/) -->

<svg
   xmlns:dc="http://purl.org/dc/elements/1.1/"
   xmlns:cc="http://creativecommons.org/ns#"
   xmlns:rdf="http://www.w3.org/1999/02/22-rdf-syntax-ns#"
   xmlns:svg="http://www.w3.org/2000/svg"
   xmlns="http://www.w3.org/2000/svg"
   xmlns:sodipodi="http://sodipodi.sourceforge.net/DTD/sodipodi-0.dtd"
   xmlns:inkscape="http://www.inkscape.org/namespaces/inkscape"
   width="256"
   height="256"
   id="svg2"
   version="1.1"
   inkscape:version="0.92.1 r15371"
   sodipodi:docname="folder-publicshare.svg">
  <defs
     id="defs4">
    <linearGradient
       id="linearGradient4297">
      <stop
         id="stop4299"
         offset="0"
         style="stop-color:#f9fcff;stop-opacity:1;" />
      <stop
         id="stop4301"
         offset="1"
         style="stop-color:#a9d5f1;stop-opacity:1;" />
    </linearGradient>
    <linearGradient
       id="linearGradient3864">
      <stop
         style="stop-color:#ffffff;stop-opacity:1;"
         offset="0"
         id="stop3866" />
      <stop
         style="stop-color:#d5d5d5;stop-opacity:0;"
         offset="1"
         id="stop3868" />
    </linearGradient>
    <linearGradient
       id="linearGradient3815">
      <stop
         style="stop-color:#e0f2fe;stop-opacity:1;"
         offset="0"
         id="stop3817" />
      <stop
         style="stop-color:#075e99;stop-opacity:1;"
         offset="1"
         id="stop3819" />
    </linearGradient>
    <linearGradient
       id="linearGradient3805">
      <stop
         style="stop-color:#989898;stop-opacity:1;"
         offset="0"
         id="stop3807" />
      <stop
         style="stop-color:#2a2a2a;stop-opacity:0.94968551;"
         offset="1"
         id="stop3809" />
    </linearGradient>
    <linearGradient
       id="linearGradient3909">
      <stop
         style="stop-color:#909090;stop-opacity:1;"
         offset="0"
         id="stop3911" />
      <stop
         style="stop-color:#cfcfcf;stop-opacity:1;"
         offset="1"
         id="stop3913" />
    </linearGradient>
    <linearGradient
       id="linearGradient3815-1">
      <stop
         style="stop-color:#e0f2fe;stop-opacity:1;"
         offset="0"
         id="stop3817-9" />
      <stop
         style="stop-color:#486578;stop-opacity:1;"
         offset="1"
         id="stop3819-2" />
    </linearGradient>
    <linearGradient
       id="linearGradient3805-4">
      <stop
         style="stop-color:#989898;stop-opacity:1;"
         offset="0"
         id="stop3807-0" />
      <stop
         style="stop-color:#2a2a2a;stop-opacity:0.94968551;"
         offset="1"
         id="stop3809-2" />
    </linearGradient>
    <linearGradient
       id="linearGradient3805-6">
      <stop
         style="stop-color:#989898;stop-opacity:1;"
         offset="0"
         id="stop3807-4" />
      <stop
         style="stop-color:#2a2a2a;stop-opacity:0.94968551;"
         offset="1"
         id="stop3809-8" />
    </linearGradient>
  </defs>
  <sodipodi:namedview
     id="base"
     pagecolor="#ffffff"
     bordercolor="#666666"
     borderopacity="1.0"
     inkscape:pageopacity="0.0"
     inkscape:pageshadow="2"
     inkscape:zoom="1.7656052"
     inkscape:cx="-2.1724933"
     inkscape:cy="23.206135"
     inkscape:document-units="px"
     inkscape:current-layer="layer1"
     showgrid="false"
     showguides="true"
     inkscape:guide-bbox="true"
     inkscape:window-width="1918"
     inkscape:window-height="1023"
     inkscape:window-x="0"
     inkscape:window-y="26"
     inkscape:window-maximized="1" />
  <metadata
     id="metadata7">
    <rdf:RDF>
      <cc:Work
         rdf:about="">
        <dc:format>image/svg+xml</dc:format>
        <dc:type
           rdf:resource="http://purl.org/dc/dcmitype/StillImage" />
        <dc:title />
      </cc:Work>
    </rdf:RDF>
  </metadata>
  <g
     inkscape:label="Layer 1"
     inkscape:groupmode="layer"
     id="layer1"
     transform="translate(0,-796.3622)">
    <rect
       style="opacity:1;fill:#822b86;fill-opacity:1;fill-rule:nonzero;stroke:#000000;stroke-width:0.57506412;stroke-linecap:round;stroke-linejoin:miter;stroke-miterlimit:4;stroke-dasharray:none;stroke-dashoffset:0;stroke-opacity:1;paint-order:fill markers stroke"
       id="rect1029-3"
       width="41.527779"
       height="9.2891092"
       x="990.17358"
       y="-119.58755"
       ry="4.6445546"
       transform="rotate(90)" />
    <g
       id="g4789"
       transform="matrix(19.149829,0,0,19.149829,839.6099,733.38308)">
      <path
         sodipodi:nodetypes="cscsssssssc"
         inkscape:connector-curvature="0"
         id="rect4636-6-5"
         d="m -32.508072,4.409716 -2.393209,2.89e-4 c -0.758402,9.1e-5 -0.776682,0.33809 -0.806969,0.460275 l -6.297054,0.02239 c -0.473696,0.0017 -0.576225,0.223232 -0.576225,0.559637 v 4.3875481 c 0,0.2232269 0.17971,0.4029379 0.402938,0.4029379 h 9.670519 c 0.22323,0 0.402938,-0.179711 0.402938,-0.4029379 V 4.812658 c 0,-0.223227 -0.179714,-0.404093 -0.402938,-0.402938 z"
         style="opacity:1;fill:#199453;fill-opacity:1;fill-rule:nonzero;stroke:#000000;stroke-width:0.30000001;stroke-linecap:round;stroke-linejoin:miter;stroke-miterlimit:4;stroke-dasharray:none;stroke-dashoffset:0;stroke-opacity:1;paint-order:fill markers stroke" />
      <path
         inkscape:connector-curvature="0"
         id="path4708-3"
         d="m -40.034336,6.137174 6.440324,-1.253253 -10e-7,4.1775071 -6.092197,-0.06963 z"
         style="fill:#e69732;fill-opacity:1;fill-rule:evenodd;stroke:#000000;stroke-width:0.1;stroke-linecap:butt;stroke-linejoin:miter;stroke-miterlimit:4;stroke-dasharray:none;stroke-opacity:1" />
      <path
         inkscape:connector-curvature="0"
         id="path4708"
         d="m -38.904606,7.2131481 6.440323,-1.2532531 v 4.177507 l -6.092198,-0.06963 z"
         style="fill:#e69732;fill-opacity:1;fill-rule:evenodd;stroke:#000000;stroke-width:0.1;stroke-linecap:butt;stroke-linejoin:miter;stroke-miterlimit:4;stroke-dasharray:none;stroke-opacity:1" />
      <path
         sodipodi:nodetypes="sccssssssss"
         inkscape:connector-curvature="0"
         id="rect4636-7"
         d="m -42.915018,5.997808 h 6.131271 c 1.32548,0.01813 1.161755,0.671005 1.195627,1.3427981 l 3.422054,0.02534 c 0.536117,0.004 0.652171,0.252654 0.652171,0.633396 v 4.9658219 c 0,0.252649 -0.203396,0.456045 -0.456045,0.456045 h -10.945078 c -0.252649,0 -0.456044,-0.203396 -0.456044,-0.456045 V 6.453857 c 0,-0.252649 0.203395,-0.456045 0.456044,-0.456045 z"
         style="opacity:1;fill:#199453;fill-opacity:1;fill-rule:nonzero;stroke:#000000;stroke-width:0.30000001;stroke-linecap:round;stroke-linejoin:miter;stroke-miterlimit:4;stroke-dasharray:none;stroke-dashoffset:0;stroke-opacity:1;paint-order:fill markers stroke" />
    </g>
    <path
       sodipodi:type="arc"
       style="fill:#4b7744;fill-opacity:1;stroke:none;stroke-width:22.55931473"
       id="path3852-5-1"
       sodipodi:cx="202.56465"
       sodipodi:cy="952.96722"
       sodipodi:rx="19.96422"
       sodipodi:ry="19.96422"
       d="m 222.47116,951.45034 a 19.96422,19.96422 0 0 1 -18.28092,21.41481 19.96422,19.96422 0 0 1 -21.51434,-18.16369 19.96422,19.96422 0 0 1 18.04591,-21.61322 19.96422,19.96422 0 0 1 21.71146,17.9276"
       sodipodi:start="6.2071318"
       sodipodi:end="6.1852847"
       sodipodi:open="true" />
    <path
       sodipodi:type="arc"
       style="fill:#2a9f6a;fill-opacity:1;stroke:#000000;stroke-width:1.63551676;stroke-miterlimit:4;stroke-dasharray:none;stroke-opacity:1"
       id="path4243-2-0"
       sodipodi:cx="203.59406"
       sodipodi:cy="953.4057"
       sodipodi:rx="49.207558"
       sodipodi:ry="49.207558"
       d="m 252.80161,953.4057 a 49.207558,49.207558 0 0 1 -49.16532,49.2075 49.207558,49.207558 0 0 1 -49.24972,-49.12303 49.207558,49.207558 0 0 1 49.08078,-49.29186 49.207558,49.207558 0 0 1 49.33397,49.03845"
       sodipodi:start="0"
       sodipodi:end="6.279752"
       sodipodi:open="true" />
    <g
       id="g2994-2-2-1-3"
       transform="matrix(8.8394878,0,0,8.8394878,166.14147,918.42373)"
       style="fill:#ebc5ed;fill-opacity:1;fill-rule:evenodd">
      <path
         sodipodi:nodetypes="ccccc"
         style="fill:#ebc5ed;fill-opacity:1"
         inkscape:connector-curvature="0"
         d="M 0.67062907,3.1466295 0.96315753,3.436604 C 1.4643536,2.1285285 2.9137173,3.0231678 2.3709066,3.891 L 2.767349,4.0396257 C 3.5316128,2.8534265 1.7399119,1.2088624 0.67062907,3.1466295 Z"
         class="fil0"
         id="_121731384-6-3-6-6" />
      <path
         sodipodi:nodetypes="zsccz"
         style="fill:#ebc5ed;fill-opacity:1"
         inkscape:connector-curvature="0"
         d="M 0.1777958,2.5586559 C -0.01275712,2.3374532 0.11748395,2.4022267 0.31580842,2.5444209 0.51413288,2.686615 0.81410198,2.8425452 1.1021572,3.1460838 L 0.96046525,3.4267024 C 0.50016423,3.0157207 0.36834871,2.7798588 0.1777958,2.5586559 Z"
         class="fil0"
         id="_121328256-5-8-3-0" />
      <path
         sodipodi:open="true"
         sodipodi:end="6.1852847"
         sodipodi:start="6.2071318"
         transform="matrix(0.13834256,0,0,0.13834256,0.19919495,1.7915877)"
         d="m 13.844562,12.550547 a 2.6694496,2.6694496 0 0 1 -2.444373,2.863411 2.6694496,2.6694496 0 0 1 -2.8767188,-2.428698 2.6694496,2.6694496 0 0 1 2.4129488,-2.88994 2.6694496,2.6694496 0 0 1 2.903077,2.397129"
         sodipodi:ry="2.6694496"
         sodipodi:rx="2.6694496"
         sodipodi:cy="12.753372"
         sodipodi:cx="11.182829"
         id="path3582-0-3-2-6"
         style="fill:#ebc5ed;fill-opacity:1;stroke:none"
         sodipodi:type="arc" />
      <path
         sodipodi:nodetypes="zsccz"
         style="fill:#ebc5ed;fill-opacity:1;fill-rule:evenodd"
         inkscape:connector-curvature="0"
         d="M 0.4247675,1.3417552 C 0.30865975,1.051719 0.40976238,1.1514637 0.55275704,1.3529974 0.69575091,1.5545312 1.0526419,2.1606454 1.2359221,2.5639276 L 0.96710859,2.750389 C 0.74796061,2.1419236 0.54087506,1.6317917 0.4247675,1.3417552 Z"
         class="fil0"
         id="_121328256-7-3-0-1-26" />
      <path
         sodipodi:nodetypes="zsccz"
         style="fill:#ebc5ed;fill-opacity:1;fill-rule:evenodd"
         inkscape:connector-curvature="0"
         d="M 1.44312,0.58246558 C 1.43361,0.2701971 1.521214,0.39282353 1.5594765,0.63695278 1.6013875,0.90435635 1.7053444,1.7413136 1.7506921,2.2817189 l -0.3164814,0.082874 c 0.003,-0.6467199 0.018418,-1.46985881 0.00891,-1.78212732 z"
         class="fil0"
         id="_121328256-7-9-4-6-2-1" />
      <path
         sodipodi:nodetypes="zsccz"
         style="fill:#ebc5ed;fill-opacity:1;fill-rule:evenodd"
         inkscape:connector-curvature="0"
         d="M 2.4423509,0.52194906 C 2.5291241,0.19808085 2.5810366,0.32015476 2.5788735,0.5833539 2.5767086,0.84655178 2.4931372,1.8976838 2.1801821,2.4013588 L 1.8869765,2.2775017 c 0.307833,-0.6143974 0.4686,-1.43168421 0.5553744,-1.75555264 z"
         class="fil0"
         id="_121328256-7-4-0-7-9-8" />
      <path
         sodipodi:nodetypes="zsccz"
         style="fill:#ebc5ed;fill-opacity:1;fill-rule:evenodd"
         inkscape:connector-curvature="0"
         d="M 3.6839051,1.1452392 C 3.9311577,0.7718015 3.8949861,1.029192 3.7754429,1.2636867 3.5368401,1.7317274 2.9264141,2.4275569 2.4666837,2.7714357 L 2.2400615,2.4692892 C 2.8122122,2.0577751 3.4366526,1.5186768 3.6839051,1.1452392 Z"
         class="fil0"
         id="_121328256-7-4-9-8-3-3-7" />
      <path
         sodipodi:nodetypes="zsccz"
         style="fill:#ebc5ed;fill-opacity:1;fill-rule:evenodd"
         inkscape:connector-curvature="0"
         d="m 4.2265513,3.0597007 c 0.4091243,-0.09358 0.2522344,0.074602 0.024419,0.1707759 C 4.0062521,3.3337885 3.127026,3.6011424 2.5719027,3.6165508 l 0.00603,-0.3830989 c 0.653125,-5.32e-4 1.239497,-0.080171 1.6486213,-0.1737512 z"
         class="fil0"
         id="_121328256-7-4-9-1-6-3-4-9" />
      <path
         sodipodi:nodetypes="zsccz"
         style="fill:#ebc5ed;fill-opacity:1;fill-rule:evenodd"
         inkscape:connector-curvature="0"
         d="M 3.9700033,4.2976494 C 4.2626923,4.4304234 4.1316091,4.4287597 3.9491295,4.4043056 3.7042093,4.3714838 3.1539385,4.1823832 2.7531868,4.0349335 L 2.8590012,3.7253663 C 3.4161029,4.0174147 3.677314,4.1648752 3.9700033,4.2976494 Z"
         class="fil0"
         id="_121328256-9-3-8-2-2" />
      <path
         inkscape:transform-center-x="-0.069049672"
         inkscape:transform-center-y="0.95298244"
         sodipodi:nodetypes="zsccz"
         style="fill:#ebc5ed;fill-opacity:1;fill-rule:evenodd"
         inkscape:connector-curvature="0"
         d="M 4.1962848,2.076334 C 4.5907234,1.8600715 4.4775437,2.0697011 4.2705883,2.2323244 4.0482794,2.4070154 3.2196806,2.935215 2.6523716,3.1218067 L 2.5483179,2.7530525 C 3.2208399,2.5503733 3.801846,2.2925963 4.1962848,2.076334 Z"
         class="fil0"
         id="_121328256-7-4-9-1-7-7-5-0-0" />
    </g>
    <g
       id="g2994-2-2-1-0-2"
       transform="matrix(9.3907349,4.4698803,-4.4698803,9.3907349,214.95415,917.77916)"
       style="fill:#d079d4;fill-opacity:1;fill-rule:evenodd">
      <path
         sodipodi:nodetypes="ccccc"
         style="fill:#d079d4;fill-opacity:1"
         inkscape:connector-curvature="0"
         d="M 0.67062907,3.1466295 0.96315753,3.436604 C 1.4643536,2.1285285 2.9137173,3.0231678 2.3709066,3.891 L 2.767349,4.0396257 C 3.5316128,2.8534265 1.7399119,1.2088624 0.67062907,3.1466295 Z"
         class="fil0"
         id="_121731384-6-3-6-5-3" />
      <path
         sodipodi:nodetypes="zsccz"
         style="fill:#d079d4;fill-opacity:1"
         inkscape:connector-curvature="0"
         d="M 0.1777958,2.5586559 C -0.01275712,2.3374532 0.11748395,2.4022267 0.31580842,2.5444209 0.51413288,2.686615 0.81410198,2.8425452 1.1021572,3.1460838 L 0.96046525,3.4267024 C 0.50016423,3.0157207 0.36834871,2.7798588 0.1777958,2.5586559 Z"
         class="fil0"
         id="_121328256-5-8-3-8-7" />
      <path
         sodipodi:open="true"
         sodipodi:end="6.1852847"
         sodipodi:start="6.2071318"
         transform="matrix(0.13834256,0,0,0.13834256,0.19919495,1.7915877)"
         d="m 13.844562,12.550547 a 2.6694496,2.6694496 0 0 1 -2.444373,2.863411 2.6694496,2.6694496 0 0 1 -2.8767188,-2.428698 2.6694496,2.6694496 0 0 1 2.4129488,-2.88994 2.6694496,2.6694496 0 0 1 2.903077,2.397129"
         sodipodi:ry="2.6694496"
         sodipodi:rx="2.6694496"
         sodipodi:cy="12.753372"
         sodipodi:cx="11.182829"
         id="path3582-0-3-2-9-5"
         style="fill:#d079d4;fill-opacity:1;stroke:none"
         sodipodi:type="arc" />
      <path
         sodipodi:nodetypes="zsccz"
         style="fill:#d079d4;fill-opacity:1;fill-rule:evenodd"
         inkscape:connector-curvature="0"
         d="M 0.4247675,1.3417552 C 0.30865975,1.051719 0.40976238,1.1514637 0.55275704,1.3529974 0.69575091,1.5545312 1.0526419,2.1606454 1.2359221,2.5639276 L 0.96710859,2.750389 C 0.74796061,2.1419236 0.54087506,1.6317917 0.4247675,1.3417552 Z"
         class="fil0"
         id="_121328256-7-3-0-1-2-9" />
      <path
         sodipodi:nodetypes="zsccz"
         style="fill:#d079d4;fill-opacity:1;fill-rule:evenodd"
         inkscape:connector-curvature="0"
         d="M 1.44312,0.58246558 C 1.43361,0.2701971 1.521214,0.39282353 1.5594765,0.63695278 1.6013875,0.90435635 1.7053444,1.7413136 1.7506921,2.2817189 l -0.3164814,0.082874 c 0.003,-0.6467199 0.018418,-1.46985881 0.00891,-1.78212732 z"
         class="fil0"
         id="_121328256-7-9-4-6-2-8-2" />
      <path
         sodipodi:nodetypes="zsccz"
         style="fill:#d079d4;fill-opacity:1;fill-rule:evenodd"
         inkscape:connector-curvature="0"
         d="M 2.4423509,0.52194906 C 2.5291241,0.19808085 2.5810366,0.32015476 2.5788735,0.5833539 2.5767086,0.84655178 2.4931372,1.8976838 2.1801821,2.4013588 L 1.8869765,2.2775017 c 0.307833,-0.6143974 0.4686,-1.43168421 0.5553744,-1.75555264 z"
         class="fil0"
         id="_121328256-7-4-0-7-9-5-2" />
      <path
         sodipodi:nodetypes="zsccz"
         style="fill:#d079d4;fill-opacity:1;fill-rule:evenodd"
         inkscape:connector-curvature="0"
         d="M 3.6839051,1.1452392 C 3.9311577,0.7718015 3.8949861,1.029192 3.7754429,1.2636867 3.5368401,1.7317274 2.9264141,2.4275569 2.4666837,2.7714357 L 2.2400615,2.4692892 C 2.8122122,2.0577751 3.4366526,1.5186768 3.6839051,1.1452392 Z"
         class="fil0"
         id="_121328256-7-4-9-8-3-3-2-8" />
      <path
         sodipodi:nodetypes="zsccz"
         style="fill:#d079d4;fill-opacity:1;fill-rule:evenodd"
         inkscape:connector-curvature="0"
         d="m 4.2265513,3.0597007 c 0.4091243,-0.09358 0.2522344,0.074602 0.024419,0.1707759 C 4.0062521,3.3337885 3.127026,3.6011424 2.5719027,3.6165508 l 0.00603,-0.3830989 c 0.653125,-5.32e-4 1.239497,-0.080171 1.6486213,-0.1737512 z"
         class="fil0"
         id="_121328256-7-4-9-1-6-3-4-7-9" />
      <path
         sodipodi:nodetypes="zsccz"
         style="fill:#d079d4;fill-opacity:1;fill-rule:evenodd"
         inkscape:connector-curvature="0"
         d="M 3.9700033,4.2976494 C 4.2626923,4.4304234 4.1316091,4.4287597 3.9491295,4.4043056 3.7042093,4.3714838 3.1539385,4.1823832 2.7531868,4.0349335 L 2.8590012,3.7253663 C 3.4161029,4.0174147 3.677314,4.1648752 3.9700033,4.2976494 Z"
         class="fil0"
         id="_121328256-9-3-8-2-9-7" />
      <path
         inkscape:transform-center-x="-0.069049672"
         inkscape:transform-center-y="0.95298244"
         sodipodi:nodetypes="zsccz"
         style="fill:#d079d4;fill-opacity:1;fill-rule:evenodd"
         inkscape:connector-curvature="0"
         d="M 4.1962848,2.076334 C 4.5907234,1.8600715 4.4775437,2.0697011 4.2705883,2.2323244 4.0482794,2.4070154 3.2196806,2.935215 2.6523716,3.1218067 L 2.5483179,2.7530525 C 3.2208399,2.5503733 3.801846,2.2925963 4.1962848,2.076334 Z"
         class="fil0"
         id="_121328256-7-4-9-1-7-7-5-0-5-3" />
    </g>
    <g
       id="g2994-2-2-6"
       transform="matrix(13.142146,0,0,13.142146,169.36152,931.68016)"
       style="fill:#822b86;fill-opacity:1;fill-rule:evenodd">
      <path
         sodipodi:nodetypes="ccccc"
         style="fill:#822b86;fill-opacity:1"
         inkscape:connector-curvature="0"
         d="M 0.67062907,3.1466295 0.96315753,3.436604 C 1.4643536,2.1285285 2.9137173,3.0231678 2.3709066,3.891 L 2.767349,4.0396257 C 3.5316128,2.8534265 1.7399119,1.2088624 0.67062907,3.1466295 Z"
         class="fil0"
         id="_121731384-6-3-1" />
      <path
         sodipodi:nodetypes="zsccz"
         style="fill:#822b86;fill-opacity:1"
         inkscape:connector-curvature="0"
         d="M 0.1777958,2.5586559 C -0.01275712,2.3374532 0.11748395,2.4022267 0.31580842,2.5444209 0.51413288,2.686615 0.81410198,2.8425452 1.1021572,3.1460838 L 0.96046525,3.4267024 C 0.50016423,3.0157207 0.36834871,2.7798588 0.1777958,2.5586559 Z"
         class="fil0"
         id="_121328256-5-8-2" />
      <path
         sodipodi:open="true"
         sodipodi:end="6.1852847"
         sodipodi:start="6.2071318"
         transform="matrix(0.13834256,0,0,0.13834256,0.19919495,1.7915877)"
         d="m 13.844562,12.550547 a 2.6694496,2.6694496 0 0 1 -2.444373,2.863411 2.6694496,2.6694496 0 0 1 -2.8767188,-2.428698 2.6694496,2.6694496 0 0 1 2.4129488,-2.88994 2.6694496,2.6694496 0 0 1 2.903077,2.397129"
         sodipodi:ry="2.6694496"
         sodipodi:rx="2.6694496"
         sodipodi:cy="12.753372"
         sodipodi:cx="11.182829"
         id="path3582-0-3-9"
         style="fill:#822b86;fill-opacity:1;stroke:none"
         sodipodi:type="arc" />
      <path
         sodipodi:nodetypes="zsccz"
         style="fill:#822b86;fill-opacity:1;fill-rule:evenodd"
         inkscape:connector-curvature="0"
         d="M 0.4247675,1.3417552 C 0.30865975,1.051719 0.40976238,1.1514637 0.55275704,1.3529974 0.69575091,1.5545312 1.0526419,2.1606454 1.2359221,2.5639276 L 0.96710859,2.750389 C 0.74796061,2.1419236 0.54087506,1.6317917 0.4247675,1.3417552 Z"
         class="fil0"
         id="_121328256-7-3-0-3" />
      <path
         sodipodi:nodetypes="zsccz"
         style="fill:#822b86;fill-opacity:1;fill-rule:evenodd"
         inkscape:connector-curvature="0"
         d="M 1.44312,0.58246558 C 1.43361,0.2701971 1.521214,0.39282353 1.5594765,0.63695278 1.6013875,0.90435635 1.7053444,1.7413136 1.7506921,2.2817189 l -0.3164814,0.082874 c 0.003,-0.6467199 0.018418,-1.46985881 0.00891,-1.78212732 z"
         class="fil0"
         id="_121328256-7-9-4-6-1" />
      <path
         sodipodi:nodetypes="zsccz"
         style="fill:#822b86;fill-opacity:1;fill-rule:evenodd"
         inkscape:connector-curvature="0"
         d="M 2.4423509,0.52194906 C 2.5291241,0.19808085 2.5810366,0.32015476 2.5788735,0.5833539 2.5767086,0.84655178 2.4931372,1.8976838 2.1801821,2.4013588 L 1.8869765,2.2775017 c 0.307833,-0.6143974 0.4686,-1.43168421 0.5553744,-1.75555264 z"
         class="fil0"
         id="_121328256-7-4-0-7-94" />
      <path
         sodipodi:nodetypes="zsccz"
         style="fill:#822b86;fill-opacity:1;fill-rule:evenodd"
         inkscape:connector-curvature="0"
         d="M 3.6839051,1.1452392 C 3.9311577,0.7718015 3.8949861,1.029192 3.7754429,1.2636867 3.5368401,1.7317274 2.9264141,2.4275569 2.4666837,2.7714357 L 2.2400615,2.4692892 C 2.8122122,2.0577751 3.4366526,1.5186768 3.6839051,1.1452392 Z"
         class="fil0"
         id="_121328256-7-4-9-8-3-7" />
      <path
         sodipodi:nodetypes="zsccz"
         style="fill:#822b86;fill-opacity:1;fill-rule:evenodd"
         inkscape:connector-curvature="0"
         d="m 4.2265513,3.0597007 c 0.4091243,-0.09358 0.2522344,0.074602 0.024419,0.1707759 C 4.0062521,3.3337885 3.127026,3.6011424 2.5719027,3.6165508 l 0.00603,-0.3830989 c 0.653125,-5.32e-4 1.239497,-0.080171 1.6486213,-0.1737512 z"
         class="fil0"
         id="_121328256-7-4-9-1-6-3-8" />
      <path
         sodipodi:nodetypes="zsccz"
         style="fill:#822b86;fill-opacity:1;fill-rule:evenodd"
         inkscape:connector-curvature="0"
         d="M 3.9700033,4.2976494 C 4.2626923,4.4304234 4.1316091,4.4287597 3.9491295,4.4043056 3.7042093,4.3714838 3.1539385,4.1823832 2.7531868,4.0349335 L 2.8590012,3.7253663 C 3.4161029,4.0174147 3.677314,4.1648752 3.9700033,4.2976494 Z"
         class="fil0"
         id="_121328256-9-3-8-4" />
      <path
         inkscape:transform-center-x="-0.069049672"
         inkscape:transform-center-y="0.95298244"
         sodipodi:nodetypes="zsccz"
         style="fill:#822b86;fill-opacity:1;fill-rule:evenodd"
         inkscape:connector-curvature="0"
         d="M 4.1962848,2.076334 C 4.5907234,1.8600715 4.4775437,2.0697011 4.2705883,2.2323244 4.0482794,2.4070154 3.2196806,2.935215 2.6523716,3.1218067 L 2.5483179,2.7530525 C 3.2208399,2.5503733 3.801846,2.2925963 4.1962848,2.076334 Z"
         class="fil0"
         id="_121328256-7-4-9-1-7-7-5-5" />
    </g>
    <rect
       style="opacity:1;fill:#822b86;fill-opacity:1;fill-rule:nonzero;stroke:#000000;stroke-width:1.33567691;stroke-linecap:round;stroke-linejoin:miter;stroke-miterlimit:4;stroke-dasharray:none;stroke-dashoffset:0;stroke-opacity:1;paint-order:fill markers stroke"
       id="rect1029"
       width="224.03146"
       height="9.2891092"
       x="6.2057691"
       y="1016.6749"
       ry="4.6445546" />
    <path
       sodipodi:type="arc"
       style="fill:#2a9f6a;fill-opacity:1;stroke:#000000;stroke-width:0.41180012;stroke-miterlimit:4;stroke-dasharray:none;stroke-opacity:1"
       id="path4243-2-0-6"
       sodipodi:cx="114.66978"
       sodipodi:cy="1021.3194"
       sodipodi:rx="12.38977"
       sodipodi:ry="12.38977"
       d="m 127.05955,1021.3194 a 12.38977,12.38977 0 0 1 -12.37914,12.3898 12.38977,12.38977 0 0 1 -12.40038,-12.3685 12.38977,12.38977 0 0 1 12.35784,-12.411 12.38977,12.38977 0 0 1 12.4216,12.3472"
       sodipodi:start="0"
       sodipodi:end="6.279752"
       sodipodi:open="true" />
  </g>
</svg>
