<?xml version="1.0" encoding="UTF-8" standalone="no"?>
<!-- Created with Inkscape (http://www.inkscape.org/) -->

<svg
   xmlns:dc="http://purl.org/dc/elements/1.1/"
   xmlns:cc="http://creativecommons.org/ns#"
   xmlns:rdf="http://www.w3.org/1999/02/22-rdf-syntax-ns#"
   xmlns:svg="http://www.w3.org/2000/svg"
   xmlns="http://www.w3.org/2000/svg"
   xmlns:sodipodi="http://sodipodi.sourceforge.net/DTD/sodipodi-0.dtd"
   xmlns:inkscape="http://www.inkscape.org/namespaces/inkscape"
   width="256"
   height="256"
   viewBox="0 0 67.733332 67.733335"
   version="1.1"
   id="svg18205"
   inkscape:version="0.92.1 r15371"
   sodipodi:docname="alumno.svg">
  <defs
     id="defs18199" />
  <sodipodi:namedview
     id="base"
     pagecolor="#ffffff"
     bordercolor="#666666"
     borderopacity="1.0"
     inkscape:pageopacity="0.0"
     inkscape:pageshadow="2"
     inkscape:zoom="1.1794051"
     inkscape:cx="230.97387"
     inkscape:cy="112.39905"
     inkscape:document-units="mm"
     inkscape:current-layer="layer1"
     showgrid="false"
     units="px"
     inkscape:window-width="1918"
     inkscape:window-height="1023"
     inkscape:window-x="0"
     inkscape:window-y="26"
     inkscape:window-maximized="1"
     inkscape:snap-global="false" />
  <metadata
     id="metadata18202">
    <rdf:RDF>
      <cc:Work
         rdf:about="">
        <dc:format>image/svg+xml</dc:format>
        <dc:type
           rdf:resource="http://purl.org/dc/dcmitype/StillImage" />
        <dc:title></dc:title>
      </cc:Work>
    </rdf:RDF>
  </metadata>
  <g
     inkscape:label="Capa 1"
     inkscape:groupmode="layer"
     id="layer1"
     transform="translate(0,-229.26665)">
    <g
       id="g8804-9-1"
       transform="matrix(1.7112113,0,0,1.7112113,-2.0091036,-387.47082)">
      <g
         transform="matrix(0.35277777,0,0,-0.35277777,40.295742,380.32729)"
         id="g40-6-3-4-7">
        <path
           inkscape:connector-curvature="0"
           id="path42-2-1-5-2"
           style="fill:#822b86;fill-opacity:1;fill-rule:nonzero;stroke:none"
           d="m 0,0 c 0,-30.255 -24.526,-54.782 -54.782,-54.782 -30.256,0 -54.782,24.527 -54.782,54.782 0,30.255 24.526,54.782 54.782,54.782 C -24.526,54.782 0,30.255 0,0" />
      </g>
      <g
         transform="translate(12.46867,-9.2303629)"
         id="g8355-4-7">
        <path
           inkscape:connector-curvature="0"
           style="fill:#199453;fill-opacity:1;stroke:#000000;stroke-width:0.77700001;stroke-miterlimit:4;stroke-dasharray:none;stroke-opacity:1"
           d="m 8.2469747,377.37271 c -0.42209,0 -0.835105,0.24698 -1.273535,0.67355 l -0.0035,0.002 -10.687408,9.62146 c -1.055842,0.84273 -0.145282,1.15609 0.448139,1.11552 l 2.79561396,0.009 v 11.94672 c 0.02638,1.0755 0.221722,0.98853 1.201581,0.98853 H 16.458499 c 0.613525,0.004 0.981829,-0.0208 0.981829,-0.7843 v -12.08374 l 3.040377,0.009 c 1.552226,-0.0123 0.100431,-1.08608 0.100431,-1.08608 L 9.4353127,377.78227 c -0.410253,-0.43073 -0.815423,-0.40961 -1.187861,-0.40961 z"
           id="path8348-2-2" />
        <path
           inkscape:connector-curvature="0"
           style="fill:#e69732;fill-opacity:1;stroke:#000000;stroke-width:0.77740192;stroke-opacity:1"
           d="m 6.3960067,393.45538 c 0.224149,-0.002 0.471462,0.009 0.730699,0.009 h 2.587648 c 0.8705283,0.0281 1.5187373,-0.0368 1.3800513,0.94955 v 6.80512 H 5.3101237 v -6.71974 c -0.0503,-0.91007 0.413455,-1.03709 1.085883,-1.04372 z"
           id="path4357-7-2-0-3-8-9-2-2" />
        <path
           style="fill:#000000;fill-opacity:1;fill-rule:evenodd;stroke:#000000;stroke-width:0.69999999;stroke-linecap:butt;stroke-linejoin:miter;stroke-miterlimit:4;stroke-dasharray:none;stroke-opacity:1"
           d="M -0.46574806,388.76544 17.264979,388.69366"
           id="path8350-3-6"
           inkscape:connector-curvature="0" />
      </g>
    </g>
  </g>
</svg>
