<?xml version="1.0" encoding="UTF-8" standalone="no"?>
<!-- Created with Inkscape (http://www.inkscape.org/) -->

<svg
   xmlns:dc="http://purl.org/dc/elements/1.1/"
   xmlns:cc="http://creativecommons.org/ns#"
   xmlns:rdf="http://www.w3.org/1999/02/22-rdf-syntax-ns#"
   xmlns:svg="http://www.w3.org/2000/svg"
   xmlns="http://www.w3.org/2000/svg"
   xmlns:xlink="http://www.w3.org/1999/xlink"
   xmlns:sodipodi="http://sodipodi.sourceforge.net/DTD/sodipodi-0.dtd"
   xmlns:inkscape="http://www.inkscape.org/namespaces/inkscape"
   width="256"
   height="256"
   id="svg2"
   version="1.1"
   inkscape:version="0.92.1 r15371"
   sodipodi:docname="start-here.svg">
  <defs
     id="defs4">
    <linearGradient
       id="linearGradient3864">
      <stop
         style="stop-color:#ffffff;stop-opacity:1;"
         offset="0"
         id="stop3866" />
      <stop
         style="stop-color:#d5d5d5;stop-opacity:0;"
         offset="1"
         id="stop3868" />
    </linearGradient>
    <linearGradient
       id="linearGradient3815">
      <stop
         style="stop-color:#e0f2fe;stop-opacity:1;"
         offset="0"
         id="stop3817" />
      <stop
         style="stop-color:#075e99;stop-opacity:1;"
         offset="1"
         id="stop3819" />
    </linearGradient>
    <linearGradient
       id="linearGradient3805">
      <stop
         style="stop-color:#989898;stop-opacity:1;"
         offset="0"
         id="stop3807" />
      <stop
         style="stop-color:#2a2a2a;stop-opacity:0.94968551;"
         offset="1"
         id="stop3809" />
    </linearGradient>
    <linearGradient
       id="linearGradient3909">
      <stop
         style="stop-color:#909090;stop-opacity:1;"
         offset="0"
         id="stop3911" />
      <stop
         style="stop-color:#cfcfcf;stop-opacity:1;"
         offset="1"
         id="stop3913" />
    </linearGradient>
    <linearGradient
       id="linearGradient3815-1">
      <stop
         style="stop-color:#e0f2fe;stop-opacity:1;"
         offset="0"
         id="stop3817-9" />
      <stop
         style="stop-color:#01131f;stop-opacity:1;"
         offset="1"
         id="stop3819-2" />
    </linearGradient>
    <linearGradient
       id="linearGradient3767-6">
      <stop
         id="stop3769-2"
         offset="0"
         style="stop-color:#f0fafe;stop-opacity:1;" />
      <stop
         id="stop3771-1"
         offset="1"
         style="stop-color:#27a0d9;stop-opacity:1;" />
    </linearGradient>
    <radialGradient
       gradientUnits="userSpaceOnUse"
       gradientTransform="matrix(1.6252903,-0.05050598,0.04763614,1.5329383,-1.5312143,-1.0881335)"
       r="2.1157179"
       fy="2.2575345"
       fx="2.2768211"
       cy="2.2575345"
       cx="2.2768211"
       id="radialGradient3773-8"
       xlink:href="#linearGradient3767-6"
       inkscape:collect="always" />
    <style
       id="style6"
       type="text/css">
   
    .fil0 {fill:#99AE6A}
    .fil4 {fill:#73A848}
    .fil8 {fill:#6F448A;fill-rule:nonzero}
    .fil1 {fill:#99AE6A;fill-rule:nonzero}
    .fil3 {fill:#ABA0C0;fill-rule:nonzero}
    .fil2 {fill:#BA8FBA;fill-rule:nonzero}
    .fil5 {fill:#73A848;fill-rule:nonzero}
    .fil6 {fill:#98227A;fill-rule:nonzero}
    .fil9 {fill:#B299BF;fill-rule:nonzero}
    .fil7 {fill:#D189B2;fill-rule:nonzero}
   
  </style>
    <linearGradient
       id="linearGradient3767">
      <stop
         id="stop3769"
         offset="0"
         style="stop-color:#ffffff;stop-opacity:1;" />
      <stop
         style="stop-color:#d9f1ff;stop-opacity:1;"
         offset="0.5"
         id="stop3779" />
      <stop
         id="stop3771"
         offset="1"
         style="stop-color:#39b8fe;stop-opacity:1;" />
    </linearGradient>
    <linearGradient
       id="linearGradient3811-7">
      <stop
         style="stop-color:#f9fdff;stop-opacity:0.55974841;"
         offset="0"
         id="stop3813" />
      <stop
         style="stop-color:#05a1ec;stop-opacity:0.62893081;"
         offset="1"
         id="stop3815" />
    </linearGradient>
    <linearGradient
       id="linearGradient3821">
      <stop
         id="stop3823"
         offset="0"
         style="stop-color:#0f6881;stop-opacity:1;" />
      <stop
         id="stop3825"
         offset="1"
         style="stop-color:#82e5ff;stop-opacity:0.8427673;" />
    </linearGradient>
    <linearGradient
       id="linearGradient3829">
      <stop
         id="stop3831"
         offset="0"
         style="stop-color:#000000;stop-opacity:1;" />
      <stop
         id="stop3833"
         offset="1"
         style="stop-color:#ffffff;stop-opacity:1;" />
    </linearGradient>
    <linearGradient
       id="linearGradient3789">
      <stop
         id="stop3791"
         offset="0"
         style="stop-color:#dddddd;stop-opacity:1;" />
      <stop
         style="stop-color:#dadada;stop-opacity:1;"
         offset="0.06756218"
         id="stop3816" />
      <stop
         style="stop-color:#efefef;stop-opacity:1;"
         offset="0.67863703"
         id="stop3814" />
      <stop
         id="stop3793"
         offset="1"
         style="stop-color:#f4f4f4;stop-opacity:1;" />
    </linearGradient>
    <linearGradient
       id="linearGradient3826">
      <stop
         style="stop-color:#b8b8b8;stop-opacity:1;"
         offset="0"
         id="stop3828" />
      <stop
         id="stop3830"
         offset="0.06756218"
         style="stop-color:#dcdcdc;stop-opacity:1;" />
      <stop
         id="stop3832"
         offset="0.26964229"
         style="stop-color:#f4f4f4;stop-opacity:1;" />
      <stop
         style="stop-color:#f9f9f9;stop-opacity:1"
         offset="1"
         id="stop3834" />
    </linearGradient>
    <linearGradient
       id="linearGradient3836">
      <stop
         style="stop-color:#000000;stop-opacity:1;"
         offset="0"
         id="stop3838" />
      <stop
         id="stop3842"
         offset="0.61839557"
         style="stop-color:#5d5d5d;stop-opacity:1;" />
      <stop
         style="stop-color:#ffffff;stop-opacity:1;"
         offset="1"
         id="stop3840" />
    </linearGradient>
  </defs>
  <sodipodi:namedview
     id="base"
     pagecolor="#ffffff"
     bordercolor="#666666"
     borderopacity="1.0"
     inkscape:pageopacity="0.0"
     inkscape:pageshadow="2"
     inkscape:zoom="1.7656052"
     inkscape:cx="-79.581855"
     inkscape:cy="109.58663"
     inkscape:document-units="px"
     inkscape:current-layer="layer1"
     showgrid="false"
     showguides="true"
     inkscape:guide-bbox="true"
     inkscape:window-width="1918"
     inkscape:window-height="1023"
     inkscape:window-x="0"
     inkscape:window-y="26"
     inkscape:window-maximized="1" />
  <metadata
     id="metadata7">
    <rdf:RDF>
      <cc:Work
         rdf:about="">
        <dc:format>image/svg+xml</dc:format>
        <dc:type
           rdf:resource="http://purl.org/dc/dcmitype/StillImage" />
        <dc:title />
      </cc:Work>
    </rdf:RDF>
  </metadata>
  <g
     inkscape:label="Layer 1"
     inkscape:groupmode="layer"
     id="layer1"
     transform="translate(0,-796.3622)">
    <rect
       style="opacity:0.63999999;fill:none;stroke:none"
       id="rect2986"
       width="241.16267"
       height="237.78978"
       x="3.9847887"
       y="802.73688"
       ry="26.975925" />
    <path
       style="fill:#822b86;fill-opacity:1;fill-rule:evenodd;stroke:#000000;stroke-width:2.13479471;stroke-miterlimit:4;stroke-dasharray:none"
       d="m 143.29763,809.82541 c -1.28743,-0.19553 -3.03979,2.95642 -5.16396,10.88454 -4.79453,17.89464 -13.62955,62.70501 -30.43542,96.92678 -2.7553,-0.11757 -5.5531,-0.002 -8.374477,0.32522 -2.58597,-30.26167 -8.273036,-76.04304 -10.5885,-90.81635 -2.1409,-13.65979 -7.042826,-20.52032 -6.510707,-3.04793 0.528361,17.35179 -0.315876,62.86052 -0.492007,98.93025 -4.337424,2.02926 -8.670748,4.66742 -12.956787,7.95962 -10.648826,-22.39409 -28.826553,-53.14432 -36.370737,-63.777 -8.000998,-11.27645 -13.657736,-16.85804 -7.161159,-0.62961 6.410138,16.0125 17.779682,44.04167 29.860029,77.48848 -2.50341,2.90312 -4.976154,6.03897 -7.396724,9.48566 -10.81834,-8.48861 -21.006574,-14.26513 -28.559138,-19.68013 -11.0968677,-7.95622 -18.38399074,-11.58062 -7.72196,0.79636 9.91401,11.50866 17.006152,23.73706 38.655641,43.88214 l 5.286949,5.24108 c 0.684126,-1.7855 1.408677,-3.47539 2.153559,-5.116 l 3.087533,-6.1146 C 92.230552,916.27858 162.7925,963.4069 134.1372,1009.2204 l 21.40006,8.022 -0.0106,0.031 c 22.42331,8.2504 53.2126,18.8297 66.91666,20.6662 10.21029,1.3683 17.54433,1.4626 1.16747,-5.9665 -15.88585,-7.2065 -30.40727,-15.3344 -59.69714,-30.7211 0.96133,-3.14731 1.66269,-6.3095 2.10769,-9.46692 28.88129,-4.47692 62.38673,-14.91208 73.31061,-19.52378 12.74699,-5.38123 21.52628,-14.79264 -1.3655,-9.55654 -18.64339,4.26435 -43.86683,8.01095 -72.32662,9.27093 -0.64481,-3.65921 -1.59737,-7.2424 -2.82902,-10.71567 30.22724,-12.8263 66.78706,-36.33703 77.61982,-44.84946 11.5798,-9.09927 17.91097,-20.82738 -4.15911,-8.72681 -20.32424,11.14336 -49.51405,24.25008 -83.39043,35.11155 -1.09957,-1.46244 -2.24955,-2.88187 -3.45653,-4.24666 23.9658,-20.69767 51.60864,-53.40275 63.2996,-76.3356 6.68881,-13.12072 8.71439,-27.52247 -5.12018,-6.62746 -12.942,19.54696 -44.35363,47.20358 -74.56146,69.54136 -2.31589,-1.32483 -4.71233,-2.49154 -7.17783,-3.48989 15.53661,-29.45416 19.79407,-83.46409 19.90945,-97.49174 0.0681,-8.28384 -0.82141,-14.06883 -2.47669,-14.32023 z"
       id="_121731384-6-3-1"
       inkscape:connector-curvature="0" />
    <path
       sodipodi:type="arc"
       style="fill:#822b86;fill-opacity:1;fill-rule:evenodd;stroke:#000000;stroke-width:2.13479495;stroke-miterlimit:4;stroke-dasharray:none"
       id="path3582-0-3-9"
       sodipodi:cx="99.185883"
       sodipodi:cy="990.47107"
       sodipodi:rx="20.663404"
       sodipodi:ry="20.663404"
       d="M 119.78956,988.90106 A 20.663404,20.663404 0 0 1 100.8684,1011.0659 20.663404,20.663404 0 0 1 78.600588,992.26605 20.663404,20.663404 0 0 1 97.278501,969.89589 20.663404,20.663404 0 0 1 119.75034,988.45134"
       sodipodi:start="6.2071318"
       sodipodi:end="6.1852847"
       sodipodi:open="true" />
  </g>
</svg>
