<?xml version="1.0" encoding="UTF-8" standalone="no"?>
<!-- Created with Inkscape (http://www.inkscape.org/) -->

<svg
   xmlns:dc="http://purl.org/dc/elements/1.1/"
   xmlns:cc="http://creativecommons.org/ns#"
   xmlns:rdf="http://www.w3.org/1999/02/22-rdf-syntax-ns#"
   xmlns:svg="http://www.w3.org/2000/svg"
   xmlns="http://www.w3.org/2000/svg"
   xmlns:sodipodi="http://sodipodi.sourceforge.net/DTD/sodipodi-0.dtd"
   xmlns:inkscape="http://www.inkscape.org/namespaces/inkscape"
   width="256"
   height="256"
   id="svg2"
   version="1.1"
   inkscape:version="0.48.3.1 r9886"
   sodipodi:docname="drive-optical.svg">
  <defs
     id="defs4">
    <inkscape:perspective
       sodipodi:type="inkscape:persp3d"
       inkscape:vp_x="0 : 526.18109 : 1"
       inkscape:vp_y="0 : 1000 : 0"
       inkscape:vp_z="744.09448 : 526.18109 : 1"
       inkscape:persp3d-origin="372.04724 : 350.78739 : 1"
       id="perspective4095" />
  </defs>
  <sodipodi:namedview
     id="base"
     pagecolor="#ffffff"
     bordercolor="#666666"
     borderopacity="1.0"
     inkscape:pageopacity="0.0"
     inkscape:pageshadow="2"
     inkscape:zoom="0.88280256"
     inkscape:cx="52.860154"
     inkscape:cy="188.17054"
     inkscape:document-units="px"
     inkscape:current-layer="layer1"
     showgrid="false"
     showguides="true"
     inkscape:guide-bbox="true"
     inkscape:window-width="993"
     inkscape:window-height="546"
     inkscape:window-x="29"
     inkscape:window-y="22"
     inkscape:window-maximized="0" />
  <metadata
     id="metadata7">
    <rdf:RDF>
      <cc:Work
         rdf:about="">
        <dc:format>image/svg+xml</dc:format>
        <dc:type
           rdf:resource="http://purl.org/dc/dcmitype/StillImage" />
        <dc:title />
      </cc:Work>
    </rdf:RDF>
  </metadata>
  <g
     inkscape:label="Layer 1"
     inkscape:groupmode="layer"
     id="layer1"
     transform="translate(0,-796.3622)">
    <path
       inkscape:connector-curvature="0"
       style="fill:#492356;fill-opacity:1;stroke:none"
       d="m 130.87727,802.6001 c -4.0837,-0.0968 -8.55002,0.2883 -12.70801,0.60514 C 50.59995,808.35406 0.46383959,866.95197 5.6126543,934.52129 10.761469,1002.0906 69.359385,1052.8318 136.9287,1047.683 c 67.56931,-5.1488 118.31056,-64.35184 113.16175,-131.92115 l 0,-2.42057 C 243.97647,851.09014 192.13283,804.05168 130.87727,802.6001 z m -58.093736,18.75943 27.836586,39.3343 -18.75944,13.31315 -42.360014,-27.23144 33.282868,-25.41601 z m 50.226876,38.72916 c 34.17957,-2.6045 63.82034,22.76893 67.17088,56.88345 l 0,1.21028 c 2.64528,34.71465 -23.37909,65.13075 -58.09374,67.77603 -34.71464,2.64528 -64.525603,-23.37909 -67.170876,-58.09374 -2.645273,-34.71464 23.37909,-65.13075 58.093736,-67.77602 z M 176.263,969.01444 c 0,0 41.51386,26.30494 43.5703,29.04687 2.05644,2.74189 -29.65201,26.02119 -29.65201,26.02119 L 162.34471,979.90702 176.263,969.01444 z"
       id="path4131" />
    <path
       sodipodi:type="arc"
       style="fill:#492356;fill-opacity:1;stroke:none"
       id="path4152"
       sodipodi:cx="8.0354891"
       sodipodi:cy="7.822917"
       sodipodi:rx="1.7345328"
       sodipodi:ry="1.7345328"
       d="m 9.7650079,7.6911268 a 1.7345328,1.7345328 0 1 1 -0.00329,-0.037751"
       transform="matrix(6.7189104,0,0,6.7189104,74.468686,868.68947)"
       sodipodi:start="6.2071318"
       sodipodi:end="12.46847"
       sodipodi:open="true" />
  </g>
</svg>
