<?xml version="1.0" encoding="UTF-8" standalone="no"?>
<!-- Created with Inkscape (http://www.inkscape.org/) -->

<svg
   xmlns:dc="http://purl.org/dc/elements/1.1/"
   xmlns:cc="http://creativecommons.org/ns#"
   xmlns:rdf="http://www.w3.org/1999/02/22-rdf-syntax-ns#"
   xmlns:svg="http://www.w3.org/2000/svg"
   xmlns="http://www.w3.org/2000/svg"
   xmlns:sodipodi="http://sodipodi.sourceforge.net/DTD/sodipodi-0.dtd"
   xmlns:inkscape="http://www.inkscape.org/namespaces/inkscape"
   width="256"
   height="256"
   id="svg2"
   version="1.1"
   inkscape:version="0.48.3.1 r9886"
   sodipodi:docname="drive-usb.svg">
  <defs
     id="defs4">
    <inkscape:perspective
       sodipodi:type="inkscape:persp3d"
       inkscape:vp_x="0 : 526.18109 : 1"
       inkscape:vp_y="0 : 1000 : 0"
       inkscape:vp_z="744.09448 : 526.18109 : 1"
       inkscape:persp3d-origin="372.04724 : 350.78739 : 1"
       id="perspective4095" />
  </defs>
  <sodipodi:namedview
     id="base"
     pagecolor="#ffffff"
     bordercolor="#666666"
     borderopacity="1.0"
     inkscape:pageopacity="0.0"
     inkscape:pageshadow="2"
     inkscape:zoom="1"
     inkscape:cx="75.54375"
     inkscape:cy="103.92683"
     inkscape:document-units="px"
     inkscape:current-layer="layer1"
     showgrid="false"
     showguides="true"
     inkscape:guide-bbox="true"
     inkscape:window-width="1918"
     inkscape:window-height="1034"
     inkscape:window-x="0"
     inkscape:window-y="22"
     inkscape:window-maximized="1" />
  <metadata
     id="metadata7">
    <rdf:RDF>
      <cc:Work
         rdf:about="">
        <dc:format>image/svg+xml</dc:format>
        <dc:type
           rdf:resource="http://purl.org/dc/dcmitype/StillImage" />
        <dc:title />
      </cc:Work>
    </rdf:RDF>
  </metadata>
  <g
     inkscape:label="Layer 1"
     inkscape:groupmode="layer"
     id="layer1"
     transform="translate(0,-796.3622)">
    <path
       inkscape:connector-curvature="0"
       style="fill:#492356;fill-opacity:1;stroke:none"
       d="m 62.118139,933.88558 c -0.616143,-0.75711 -1.412003,-0.32356 -2.049871,0.19554 l -54.9275204,44.7007 c -0.637868,0.5191 -0.7810685,0.84983 -0.1649487,1.60691 L 25.88419,1006.0806 82.583566,959.93798 c 0.140331,-0.11421 0.294465,-0.32871 0.442964,-0.36049 L 62.118139,933.88558 z m 21.62937,26.57783 c -0.06129,0.13895 -0.302491,0.24617 -0.442964,0.36049 l -56.699376,46.1427 21.26888,26.1348 c 0.61612,0.7571 0.969039,0.6841 1.606907,0.165 l 54.927524,-44.70072 c 0.63786,-0.51911 1.22391,-1.21046 0.60791,-1.9674 L 83.747509,960.46341 z m -41.357902,3.46785 8.651748,10.63114 c 1.048788,1.28873 0.787977,3.77674 -0.494847,4.82072 l -3.100747,2.52342 c -1.28991,1.04975 -3.328968,0.4334 -4.377756,-0.85533 l -8.651748,-10.63113 c -1.048788,-1.28874 -0.880374,-2.96522 0.412372,-4.01727 l 3.100747,-2.52343 c 1.289911,-1.04974 3.411443,-1.23685 4.460231,0.0519 z m 20.187412,24.80598 9.012237,11.0741 c 1.048788,1.28876 0.881792,2.96406 -0.412372,4.01726 l -3.543711,2.8839 c -1.28991,1.0498 -2.968479,0.8764 -4.017267,-0.4124 l -9.012237,-11.07405 c -1.048788,-1.28873 -0.880374,-2.96521 0.412372,-4.01726 l 3.543711,-2.88392 c 1.289911,-1.04975 2.968479,-0.87636 4.017267,0.41237 z"
       id="rect4183" />
    <path
       sodipodi:nodetypes="sssssssssssccccccscssssssssscccsscccssccssccsccccssccssscc"
       inkscape:connector-curvature="0"
       style="fill:#492356;fill-opacity:1;stroke:none"
       d="m 212.37467,822.64997 c -8.591,-10.55648 -23.99107,-12.13816 -34.5485,-3.5464 L 57.782963,916.79623 c -5.43747,4.42508 2.480416,12.09586 11.07141,22.65234 l 32.444057,39.86675 c 8.59099,10.55648 14.06726,20.21428 18.60179,16.52402 l 121.37211,-98.77412 c 10.55742,-8.59177 12.13738,-23.99202 3.54639,-34.5485 z m -17.99926,44.83774 c 6.15817,7.56707 6.17242,17.06685 0.18355,21.94067 -3.15673,2.56899 -5.94836,3.04017 -9.52837,1.86363 l 2.16294,2.65778 -6.64446,5.40735 -27.75769,-34.10822 6.64445,-5.40734 10.09371,12.40298 c -0.46247,-3.7908 0.29009,-6.86309 3.40005,-9.39401 3.0646,-2.49401 7.49884,-3.56562 11.21776,-2.50214 3.6372,1.05282 7.47011,3.75038 10.22806,7.1393 z m -6.20149,5.04686 c -3.77802,-4.64237 -8.68334,-5.45108 -11.88686,-2.84402 -3.24887,2.64397 -2.8897,7.30673 0.81276,11.85626 3.89136,4.78164 8.50873,6.32951 11.80438,3.64747 3.20351,-2.60706 2.97217,-8.11019 -0.73028,-12.65971 z m -18.18281,22.89708 c 2.00235,2.46045 2.59404,5.72818 1.9461,8.72492 -0.64793,2.99673 -2.68956,5.87047 -6.1709,8.70363 -7.61331,6.1958 -13.72402,6.28444 -18.36636,0.95641 l 6.20149,-5.04685 c 1.36495,1.1271 2.38168,1.6309 3.49183,1.57631 1.28826,-0.12236 3.03644,-0.99842 4.70766,-2.35848 3.01782,-2.45594 3.51345,-4.73069 2.2667,-6.26267 -0.83116,-1.02132 -1.17379,-1.14123 -3.21382,-0.3299 l -10.13628,3.83103 c -3.05624,1.17531 -4.19247,1.19641 -5.78912,1.02958 -1.67223,-0.25969 -3.21321,-1.23395 -4.5733,-2.9052 -4.1936,-5.15304 -3.01997,-11.53268 3.33887,-16.70758 6.73163,-5.47828 13.47471,-5.77287 17.92339,-0.59592 l -6.64445,5.40734 c -1.89801,-2.23669 -3.84311,-2.02677 -6.95307,0.50415 -2.27506,1.85147 -3.31763,4.06652 -2.18423,5.45922 0.83116,1.02132 1.39187,0.88659 3.65678,-0.0306 l 10.57925,-4.19151 c 4.08904,-1.70715 7.27485,-1.01355 9.91946,2.23611 z m -41.88334,4.63179 20.5479,25.24894 -6.2015,5.04685 -2.52342,-3.10074 c 0.40991,4.29659 -0.89678,7.35682 -4.28598,10.11499 -5.33967,4.34549 -10.76977,3.95741 -15.26562,-1.56701 l -14.41958,-17.71856 6.2015,-5.04685 13.33811,16.38966 c 2.45571,3.01754 5.24776,3.09266 8.03453,0.82475 3.15674,-2.56899 3.76812,-6.22736 1.35019,-9.19848 l -12.97763,-15.9467 z"
       id="rect4203" />
  </g>
</svg>
