<?xml version="1.0" encoding="UTF-8" standalone="no"?>
<!-- Created with Inkscape (http://www.inkscape.org/) -->

<svg
   xmlns:dc="http://purl.org/dc/elements/1.1/"
   xmlns:cc="http://creativecommons.org/ns#"
   xmlns:rdf="http://www.w3.org/1999/02/22-rdf-syntax-ns#"
   xmlns:svg="http://www.w3.org/2000/svg"
   xmlns="http://www.w3.org/2000/svg"
   xmlns:sodipodi="http://sodipodi.sourceforge.net/DTD/sodipodi-0.dtd"
   xmlns:inkscape="http://www.inkscape.org/namespaces/inkscape"
   width="256"
   height="256"
   id="svg2"
   version="1.1"
   inkscape:version="0.48.3.1 r9886"
   sodipodi:docname="drive-dvdrom.svg">
  <defs
     id="defs4">
    <inkscape:perspective
       sodipodi:type="inkscape:persp3d"
       inkscape:vp_x="0 : 526.18109 : 1"
       inkscape:vp_y="0 : 1000 : 0"
       inkscape:vp_z="744.09448 : 526.18109 : 1"
       inkscape:persp3d-origin="372.04724 : 350.78739 : 1"
       id="perspective4095" />
  </defs>
  <sodipodi:namedview
     id="base"
     pagecolor="#ffffff"
     bordercolor="#666666"
     borderopacity="1.0"
     inkscape:pageopacity="0.0"
     inkscape:pageshadow="2"
     inkscape:zoom="1.2617216"
     inkscape:cx="92.260758"
     inkscape:cy="125.14092"
     inkscape:document-units="px"
     inkscape:current-layer="layer1"
     showgrid="false"
     showguides="true"
     inkscape:guide-bbox="true"
     inkscape:window-width="1042"
     inkscape:window-height="589"
     inkscape:window-x="378"
     inkscape:window-y="134"
     inkscape:window-maximized="0" />
  <metadata
     id="metadata7">
    <rdf:RDF>
      <cc:Work
         rdf:about="">
        <dc:format>image/svg+xml</dc:format>
        <dc:type
           rdf:resource="http://purl.org/dc/dcmitype/StillImage" />
        <dc:title />
      </cc:Work>
    </rdf:RDF>
  </metadata>
  <g
     inkscape:label="Layer 1"
     inkscape:groupmode="layer"
     id="layer1"
     transform="translate(0,-796.3622)">
    <path
       inkscape:connector-curvature="0"
       style="fill:#492356;fill-opacity:1;stroke:none"
       d="m 127.75,802.6122 c -3.17387,0.0823 -6.47526,0.35612 -9.59375,0.59375 C 50.58694,808.35477 0.47618529,866.94913 5.625,934.51845 c 5.148815,67.56935 63.743185,118.30505 131.3125,113.15625 67.56931,-5.1488 118.30506,-64.33694 113.15625,-131.90625 l 0,-2.4375 C 243.97977,851.07981 192.13056,804.06378 130.875,802.6122 c -1.02093,-0.0242 -2.06704,-0.0274 -3.125,0 z m -80.65625,36.15625 32.375,32.96875 -12.96875,20.09375 -45.125,-19.3125 25.71875,-33.75 z m 79.09375,21.15625 c 32.81607,-0.84733 60.75416,24.01406 64,57.0625 l 0,1.1875 c 2.64528,34.71465 -23.3791,65.13597 -58.09375,67.78125 C 97.37911,988.60123 67.551523,962.57685 64.90625,927.8622 62.260977,893.14756 88.285354,862.72622 123,860.08095 c 1.06811,-0.0814 2.12892,-0.12892 3.1875,-0.15625 z m 68.03125,80.65625 c 0,0 43.02841,7.79718 46.90625,8.4375 3.3816,0.55837 -12.40625,36.8125 -12.40625,36.8125 l -42.125,-29.1875 7.625,-16.0625 z m -47.78125,50.09375 31.6875,0 c 0,0 21.36776,2.23675 18.875,16.125 -2.49276,13.8882 -23.67947,18.6875 -27.0625,18.6875 l -21.71875,0 5.3125,-24.2187 13,0.375 -3.375,16.375 c 0,0 18.71,1.5953 20.3125,-10.1563 1.60249,-11.75158 -14.25221,-8.8939 -11.9375,-9.25 2.31471,-0.35618 -16.90625,0 -16.90625,0 L 124,1033.5185 111.34375,998.4247 110.625,998.6122 c 0,0 1.82541,4.2935 1.4375,7.8438 -0.86601,7.9261 -9.43565,18.875 -23.15625,18.875 l -26.53125,0 5.71875,-24.0625 13.34375,0.375 -3.375,16.375 c 0,0 4.607774,0.3045 9.4375,-0.875 4.829731,-1.1796 9.855004,-3.8478 10.65625,-9.8125 0.801247,-5.9649 -6.414982,-8.79317 -13.90625,-8.9063 -7.366997,-0.11132 -15.09375,0 -15.09375,0 l 1.78125,-7.65625 50.1875,0 7.84375,21.65625 17.46875,-21.75 z"
       id="path4131" />
    <path
       sodipodi:type="arc"
       style="fill:#492356;fill-opacity:1;stroke:none"
       id="path4152"
       sodipodi:cx="8.0354891"
       sodipodi:cy="7.822917"
       sodipodi:rx="1.7345328"
       sodipodi:ry="1.7345328"
       d="m 9.7650079,7.6911268 a 1.7345328,1.7345328 0 1 1 -0.00329,-0.037751"
       transform="matrix(6.7189104,0,0,6.7189104,74.468686,868.68947)"
       sodipodi:start="6.2071318"
       sodipodi:end="12.46847"
       sodipodi:open="true" />
  </g>
</svg>
