<?xml version="1.0" encoding="UTF-8" standalone="no"?>
<!-- Generator: Adobe Illustrator 9.0, SVG Export Plug-In  -->

<svg
   xmlns:dc="http://purl.org/dc/elements/1.1/"
   xmlns:cc="http://creativecommons.org/ns#"
   xmlns:rdf="http://www.w3.org/1999/02/22-rdf-syntax-ns#"
   xmlns:svg="http://www.w3.org/2000/svg"
   xmlns="http://www.w3.org/2000/svg"
   xmlns:sodipodi="http://sodipodi.sourceforge.net/DTD/sodipodi-0.dtd"
   xmlns:inkscape="http://www.inkscape.org/namespaces/inkscape"
   width="48"
   height="48"
   viewBox="0 0 48 48"
   xml:space="preserve"
   id="svg2"
   sodipodi:version="0.32"
   inkscape:version="0.48.3.1 r9886"
   sodipodi:docname="help.svg"
   inkscape:output_extension="org.inkscape.output.svg.inkscape"
   version="1.0"><metadata
   id="metadata35"><rdf:RDF><cc:Work
       rdf:about=""><dc:format>image/svg+xml</dc:format><dc:type
         rdf:resource="http://purl.org/dc/dcmitype/StillImage" /></cc:Work></rdf:RDF></metadata><defs
   id="defs33">
		
	
			
			
			
			
			
			
			
			
			
			
			
		</defs><sodipodi:namedview
   inkscape:window-height="1034"
   inkscape:window-width="1918"
   inkscape:pageshadow="2"
   inkscape:pageopacity="0"
   guidetolerance="10.0"
   gridtolerance="10.0"
   objecttolerance="10.0"
   borderopacity="1.0"
   bordercolor="#666666"
   pagecolor="#ffffff"
   id="base"
   showgrid="true"
   inkscape:object-paths="true"
   inkscape:object-nodes="true"
   inkscape:zoom="8.2333333"
   inkscape:cx="48.643724"
   inkscape:cy="30"
   inkscape:window-x="0"
   inkscape:window-y="22"
   inkscape:current-layer="svg2"
   inkscape:window-maximized="1"><inkscape:grid
     type="xygrid"
     id="grid2394"
     visible="true"
     enabled="true"
     empspacing="5"
     snapvisiblegridlinesonly="true" /></sodipodi:namedview>
	<path
   style="fill-rule:nonzero;stroke:none;fill:#492356;fill-opacity:1"
   d="M 10.25 0.90625 C 5.1634565 0.90625 1.0625 5.0384561 1.0625 10.125 C 1.0625 12.708307 2.1320645 15.016481 3.84375 16.6875 C 2.9797033 19.014916 2.5 21.535376 2.5 24.15625 C 2.5 26.777345 2.9791656 29.297021 3.84375 31.625 C 2.1320645 33.296019 1.0625 35.635443 1.0625 38.21875 C 1.0625 43.305294 5.1634565 47.40625 10.25 47.40625 C 12.896731 47.40625 15.290283 46.286135 16.96875 44.5 C 19.191705 45.279057 21.580589 45.71875 24.0625 45.71875 C 26.520117 45.71875 28.889385 45.29579 31.09375 44.53125 C 32.770553 46.298674 35.119125 47.40625 37.75 47.40625 C 42.836544 47.40625 46.96875 43.305294 46.96875 38.21875 C 46.96875 35.675478 45.946488 33.352737 44.28125 31.6875 C 45.158964 29.344036 45.625 26.798155 45.625 24.15625 C 45.625 21.514345 45.158964 18.968464 44.28125 16.625 C 45.946488 14.959763 46.96875 12.668271 46.96875 10.125 C 46.96875 5.0384561 42.836544 0.90625 37.75 0.90625 C 35.119125 0.90625 32.770553 2.0138258 31.09375 3.78125 C 28.889385 3.01671 26.520117 2.59375 24.0625 2.59375 C 21.570223 2.59375 19.199248 3.0275768 16.96875 3.8125 C 15.290283 2.0263653 12.896731 0.90625 10.25 0.90625 z M 10.15625 4.78125 C 11.220658 4.78125 12.191934 5.1017611 13.03125 5.65625 C 10.035151 7.4539221 7.5133944 9.9602536 5.6875 12.9375 C 5.15517 12.109821 4.8125 11.165956 4.8125 10.125 C 4.8125 7.2184034 7.2496536 4.78125 10.15625 4.78125 z M 37.75 4.78125 C 40.777704 4.78125 43.09375 7.2184034 43.09375 10.125 C 43.09375 11.087131 42.80427 11.964311 42.34375 12.75 C 40.494504 9.8044023 37.938451 7.3289708 34.9375 5.5625 C 35.757145 5.0590325 36.724784 4.78125 37.75 4.78125 z M 23.9375 6.125 C 26.532579 6.125 28.982389 6.6931076 31.21875 7.6875 L 27.34375 16.0625 C 26.332953 15.656277 25.225201 15.4375 24.0625 15.4375 C 22.93141 15.4375 21.863454 15.676945 20.875 16.0625 L 16.125 7.9375 C 18.490946 6.776674 21.122098 6.125 23.9375 6.125 z M 40.21875 16.4375 C 41.341631 18.782374 42 21.392791 42 24.15625 C 42 26.62859 41.492379 28.973397 40.59375 31.125 L 32.21875 27.21875 C 32.574133 26.264505 32.78125 25.240137 32.78125 24.15625 C 32.78125 23.062218 32.580506 22.024141 32.21875 21.0625 L 40.21875 16.4375 z M 7.5 17.03125 L 16 20.875 C 15.591568 21.88813 15.34375 22.990364 15.34375 24.15625 C 15.34375 25.284616 15.553798 26.357331 15.9375 27.34375 L 7.8125 31.90625 C 6.6835981 29.549786 6.03125 26.932184 6.03125 24.15625 C 6.03125 21.6243 6.5611954 19.222656 7.5 17.03125 z M 24.0625 18.34375 C 27.211312 18.34375 29.875 20.886329 29.875 24.15625 C 29.875 27.42617 27.33242 29.96875 24.0625 29.96875 C 20.913687 29.96875 18.25 27.42617 18.25 24.15625 C 18.25 21.007437 20.792579 18.34375 24.0625 18.34375 z M 20.84375 32.25 C 21.84019 32.642846 22.920088 32.875 24.0625 32.875 C 25.204912 32.875 26.28481 32.642846 27.28125 32.25 L 31.90625 40.375 C 29.537057 41.539902 26.880578 42.21875 24.0625 42.21875 C 21.505934 42.21875 19.081969 41.657284 16.875 40.6875 L 20.84375 32.25 z M 5.65625 35.34375 C 7.4839404 38.331595 10.02689 40.853324 13.03125 42.65625 C 12.191733 43.211132 11.22107 43.53125 10.15625 43.53125 C 7.2496536 43.53125 4.8125 41.125347 4.8125 38.21875 C 4.8125 37.149626 5.1375316 36.162343 5.65625 35.34375 z M 42.34375 35.53125 C 42.803957 36.325211 43.09375 37.241715 43.09375 38.21875 C 43.09375 41.125347 40.656596 43.53125 37.75 43.53125 C 36.733553 43.53125 35.783843 43.228306 34.96875 42.71875 C 37.961224 40.949297 40.50089 38.474604 42.34375 35.53125 z "
   id="path9" />
	<g
   id="crop_x0020_marks"
   style="fill-rule:nonzero;stroke:#000000;stroke-miterlimit:4">
		<path
   style="fill:none;stroke:none"
   d="M 48,48 L 0,48 L 0,0 L 48,0 L 48,48 z"
   id="path30" />
	</g>
</svg>