<?xml version="1.0" encoding="UTF-8" standalone="no"?>
<!-- Creator: CorelDRAW -->

<svg
   xmlns:dc="http://purl.org/dc/elements/1.1/"
   xmlns:cc="http://creativecommons.org/ns#"
   xmlns:rdf="http://www.w3.org/1999/02/22-rdf-syntax-ns#"
   xmlns:svg="http://www.w3.org/2000/svg"
   xmlns="http://www.w3.org/2000/svg"
   xmlns:sodipodi="http://sodipodi.sourceforge.net/DTD/sodipodi-0.dtd"
   xmlns:inkscape="http://www.inkscape.org/namespaces/inkscape"
   xml:space="preserve"
   width="256"
   height="256"
   style="fill-rule:evenodd"
   viewBox="0 0 256 256"
   id="svg2"
   version="1.1"
   inkscape:version="0.48.3.1 r9886"
   sodipodi:docname="conf_sistema.svg"><metadata
   id="metadata18"><rdf:RDF><cc:Work
       rdf:about=""><dc:format>image/svg+xml</dc:format><dc:type
         rdf:resource="http://purl.org/dc/dcmitype/StillImage" /><dc:title /></cc:Work></rdf:RDF></metadata><sodipodi:namedview
   pagecolor="#53978c"
   bordercolor="#666666"
   borderopacity="1"
   objecttolerance="10"
   gridtolerance="10"
   guidetolerance="10"
   inkscape:pageopacity="0.42352941"
   inkscape:pageshadow="2"
   inkscape:window-width="1022"
   inkscape:window-height="546"
   id="namedview16"
   showgrid="false"
   inkscape:zoom="1.1698775"
   inkscape:cx="99.669756"
   inkscape:cy="145.95874"
   inkscape:window-x="0"
   inkscape:window-y="16"
   inkscape:window-maximized="1"
   inkscape:current-layer="svg2"
   borderlayer="false"
   showborder="true"
   inkscape:showpageshadow="true" />
 <defs
   id="defs4"><inkscape:path-effect
   effect="spiro"
   id="path-effect3083"
   is_visible="true" /><inkscape:path-effect
   effect="spiro"
   id="path-effect3079"
   is_visible="true" /><inkscape:path-effect
   effect="spiro"
   id="path-effect3075"
   is_visible="true" />
  <style
   type="text/css"
   id="style6">
   
    .str0 {stroke:#1F1A17;stroke-width:2.83465}
    .fil0 {fill:#0093DD}
    .fil1 {fill:#1F1A17}
    .fil2 {fill:#3A2E2A}
   
  </style>
 
  
  
  
  
 </defs>
 
<g
   id="g2988"
   transform="matrix(0.85088047,0,0,0.85088047,0.33939894,36.437836)"><path
     inkscape:connector-curvature="0"
     id="polygon10"
     d="M 162.96875,91.84375 125.5,162.5625 l 36.75,70.6875 83.4375,0.6875 37.46875,-70.6875 -36.0625,-71.40625 -84.125,0 z m 43.15625,38.875 c 19.18958,0 34.71875,14.82112 34.71875,33.125 0,18.30388 -15.52917,33.15625 -34.71875,33.15625 -19.18958,0 -34.75,-14.85237 -34.75,-33.15625 0,-18.30388 15.56042,-33.125 34.75,-33.125 z"
     style="fill:#003366" /><path
     class="fil2"
     d="m 30.608296,232.2685 1.22032,2.14016 c 5.24553,9.20129 17.7293,12.6525 26.6698,7.64648 l 2.11607,-1.18347 c 13.33,-7.46506 101.433994,-173.944 113.219994,-180.545 l 2.11607,-1.18346 c 10.6044,-5.938605 20.0283,-2.7482 29.0297,-7.788215 l 2.11324,-1.18347 c 18.8108,-10.5322 17.2262,-26.9023 15.5197,-43.4071 l -18.9341,17.8286 c -1.36063,1.40599 -1.76882,1.27701 -5.45529,-0.385513 l -20.4875,-8.40617 c -5.1208,-17.0037 -7.14475,-23.8139 -4.4249,-26.3297 l 17.718,-16.3985 c -9.39688,-6.08033 -21.4753,-6.3227 -34.356,0.890082 -29.0368,16.2582 -5.78553,52.9599 -13.955,69.3881 -9.04113,18.177196 -27.9653,43.983896 -39.9431,61.935796 -13.905394,20.8404 -27.511694,40.9097 -41.133694,61.5956 -8.32396,12.6397 -39.474,50.5816 -31.0338,65.3856 z"
     id="path14"
     inkscape:connector-curvature="0"
     style="fill:#333333" /><path
     id="polygon10-4"
     d="m 44.995319,-13.358244 -25.522551,48.171418 25.032961,48.150136 56.835041,0.4683 25.52255,-48.150126 -24.56466,-48.639728 -57.303341,0 z m 29.3967,26.480446 c 13.07135,0 23.64934,10.095692 23.64934,22.563722 0,12.46804 -10.57799,22.585006 -23.64934,22.585006 -13.071347,0 -23.670623,-10.116966 -23.670623,-22.585006 0,-12.46803 10.599276,-22.563722 23.670623,-22.563722 z"
     style="fill:#0169c9;fill-rule:evenodd"
     inkscape:connector-curvature="0" /></g></svg>