<?xml version="1.0" encoding="UTF-8" standalone="no"?>
<!-- Created with Inkscape (http://www.inkscape.org/) -->

<svg
   xmlns:dc="http://purl.org/dc/elements/1.1/"
   xmlns:cc="http://creativecommons.org/ns#"
   xmlns:rdf="http://www.w3.org/1999/02/22-rdf-syntax-ns#"
   xmlns:svg="http://www.w3.org/2000/svg"
   xmlns="http://www.w3.org/2000/svg"
   xmlns:sodipodi="http://sodipodi.sourceforge.net/DTD/sodipodi-0.dtd"
   xmlns:inkscape="http://www.inkscape.org/namespaces/inkscape"
   width="256"
   height="256"
   id="svg2"
   version="1.1"
   inkscape:version="0.48.3.1 r9886"
   sodipodi:docname="user-trash-full.svg">
  <defs
     id="defs4">
    <inkscape:perspective
       sodipodi:type="inkscape:persp3d"
       inkscape:vp_x="0 : 526.18109 : 1"
       inkscape:vp_y="0 : 1000 : 0"
       inkscape:vp_z="744.09448 : 526.18109 : 1"
       inkscape:persp3d-origin="372.04724 : 350.78739 : 1"
       id="perspective4095" />
  </defs>
  <sodipodi:namedview
     id="base"
     pagecolor="#ffffff"
     bordercolor="#666666"
     borderopacity="1.0"
     inkscape:pageopacity="0.0"
     inkscape:pageshadow="2"
     inkscape:zoom="1.979899"
     inkscape:cx="119.33105"
     inkscape:cy="154.34941"
     inkscape:document-units="px"
     inkscape:current-layer="layer1"
     showgrid="false"
     showguides="true"
     inkscape:guide-bbox="true"
     inkscape:window-width="1438"
     inkscape:window-height="852"
     inkscape:window-x="0"
     inkscape:window-y="25"
     inkscape:window-maximized="1" />
  <metadata
     id="metadata7">
    <rdf:RDF>
      <cc:Work
         rdf:about="">
        <dc:format>image/svg+xml</dc:format>
        <dc:type
           rdf:resource="http://purl.org/dc/dcmitype/StillImage" />
        <dc:title />
      </cc:Work>
    </rdf:RDF>
  </metadata>
  <g
     inkscape:label="Layer 1"
     inkscape:groupmode="layer"
     id="layer1"
     transform="translate(0,-796.3622)">
    <path
       sodipodi:type="arc"
       style="fill:#8abb22;fill-opacity:1;stroke:none"
       id="path3923-6"
       sodipodi:cx="326.78436"
       sodipodi:cy="738.70984"
       sodipodi:rx="10.101525"
       sodipodi:ry="10.101525"
       d="m 336.85669,737.94232 a 10.101525,10.101525 0 1 1 -0.0192,-0.21985"
       sodipodi:start="6.2071318"
       sodipodi:end="12.46847"
       sodipodi:open="true"
       transform="matrix(2.9920101,0,0,2.9920101,-883.827,-1351.112)" />
    <path
       transform="matrix(3.3647845,0,0,3.3647845,-978.33398,-1535.3015)"
       sodipodi:type="arc"
       style="fill:#8abb22;fill-opacity:1;stroke:none"
       id="path3923-8-2"
       sodipodi:cx="326.78436"
       sodipodi:cy="738.70984"
       sodipodi:rx="10.101525"
       sodipodi:ry="10.101525"
       d="m 336.85669,737.94232 a 10.101525,10.101525 0 1 1 -0.0192,-0.21985"
       sodipodi:start="6.2071318"
       sodipodi:end="12.46847"
       sodipodi:open="true" />
    <path
       transform="matrix(3.2263652,0,0,3.2263652,-906.94594,-1493.8591)"
       sodipodi:type="arc"
       style="fill:#8abb22;fill-opacity:1;stroke:none"
       id="path3923-2-5"
       sodipodi:cx="326.78436"
       sodipodi:cy="738.70984"
       sodipodi:rx="10.101525"
       sodipodi:ry="10.101525"
       d="m 336.85669,737.94232 a 10.101525,10.101525 0 1 1 -0.0192,-0.21985"
       sodipodi:start="6.2071318"
       sodipodi:end="12.46847"
       sodipodi:open="true" />
    <path
       style="fill:#492356;fill-opacity:1;stroke:#a6f488;stroke-width:1.80000000000000004;stroke-miterlimit:4;stroke-dasharray:none;stroke-opacity:1"
       d="m 3.8472593,849.21281 55.7965357,-1.01399 c 0,0 29.508563,119.03435 35.082269,131.47818 5.573656,12.44384 14.984136,22.8627 29.988716,22.724 15.0046,-0.1491 24.85484,-5.10877 30.26042,-20.84363 4.00979,-11.6729 39.73885,-133.35855 39.73885,-133.35855 l 57.05997,0 c 0,0 -38.10014,116.17726 -47.34286,154.14398 -9.24276,37.9668 -53.7758,46.2159 -77.87074,46.2159 -24.09493,0 -70.019979,-9.9222 -80.145355,-48.3676 C 42.125484,982.18665 3.8472593,849.21431 3.8472593,849.21431 z"
       id="path3915-2-7-5"
       inkscape:connector-curvature="0"
       sodipodi:nodetypes="cczzscczzcc" />
    <path
       transform="matrix(2.7590238,0,0,2.7590238,-757.21166,-1208.4331)"
       sodipodi:type="arc"
       style="fill:#8abb22;fill-opacity:1;stroke:none"
       id="path3923-8-2-2"
       sodipodi:cx="326.78436"
       sodipodi:cy="738.70984"
       sodipodi:rx="10.101525"
       sodipodi:ry="10.101525"
       d="m 336.85669,737.94232 a 10.101525,10.101525 0 1 1 -0.0192,-0.21985"
       sodipodi:start="6.2071318"
       sodipodi:end="12.46847"
       sodipodi:open="true" />
  </g>
</svg>
