<?xml version="1.0" encoding="UTF-8" standalone="no"?>
<!-- Created with Inkscape (http://www.inkscape.org/) -->

<svg
   xmlns:dc="http://purl.org/dc/elements/1.1/"
   xmlns:cc="http://creativecommons.org/ns#"
   xmlns:rdf="http://www.w3.org/1999/02/22-rdf-syntax-ns#"
   xmlns:svg="http://www.w3.org/2000/svg"
   xmlns="http://www.w3.org/2000/svg"
   xmlns:xlink="http://www.w3.org/1999/xlink"
   xmlns:sodipodi="http://sodipodi.sourceforge.net/DTD/sodipodi-0.dtd"
   xmlns:inkscape="http://www.inkscape.org/namespaces/inkscape"
   version="1.0"
   width="96"
   height="96"
   id="svg2408"
   inkscape:version="0.48.3.1 r9886"
   sodipodi:docname="applications-arcade.svg">
  <sodipodi:namedview
     pagecolor="#ffffff"
     bordercolor="#666666"
     borderopacity="1"
     objecttolerance="10"
     gridtolerance="10"
     guidetolerance="10"
     inkscape:pageopacity="0"
     inkscape:pageshadow="2"
     inkscape:window-width="1914"
     inkscape:window-height="1030"
     id="namedview542"
     showgrid="false"
     inkscape:zoom="5.2885694"
     inkscape:cx="35.041342"
     inkscape:cy="33.175833"
     inkscape:window-x="0"
     inkscape:window-y="26"
     inkscape:window-maximized="1"
     inkscape:current-layer="svg2408"
     inkscape:snap-global="false" />
  <defs
     id="defs2410">
    <linearGradient
       inkscape:collect="always"
       id="linearGradient3916">
      <stop
         style="stop-color:#ffffff;stop-opacity:1;"
         offset="0"
         id="stop3918" />
      <stop
         style="stop-color:#ffffff;stop-opacity:0;"
         offset="1"
         id="stop3920" />
    </linearGradient>
    <linearGradient
       id="linearGradient4390">
      <stop
         style="stop-color:#efefef;stop-opacity:1;"
         offset="0"
         id="stop4392" />
      <stop
         style="stop-color:#3b3b3b;stop-opacity:1;"
         offset="1"
         id="stop4394" />
    </linearGradient>
    <linearGradient
       id="linearGradient4328">
      <stop
         style="stop-color:#ffffff;stop-opacity:1;"
         offset="0"
         id="stop4330" />
      <stop
         style="stop-color:#a2a2a2;stop-opacity:0;"
         offset="1"
         id="stop4332" />
    </linearGradient>
    <linearGradient
       id="linearGradient4308">
      <stop
         style="stop-color:#03789e;stop-opacity:1;"
         offset="0"
         id="stop4310" />
      <stop
         style="stop-color:#15a8b7;stop-opacity:1;"
         offset="1"
         id="stop4312" />
    </linearGradient>
    <linearGradient
       x1="45.447727"
       y1="92.539597"
       x2="45.447727"
       y2="7.0165396"
       id="ButtonShadow"
       gradientUnits="userSpaceOnUse"
       gradientTransform="scale(1.0058652,0.994169)">
      <stop
         id="stop3750"
         style="stop-color:#000000;stop-opacity:1"
         offset="0" />
      <stop
         id="stop3752"
         style="stop-color:#000000;stop-opacity:0.58823532"
         offset="1" />
    </linearGradient>
    <linearGradient
       id="linearGradient3737">
      <stop
         id="stop3739"
         style="stop-color:#ffffff;stop-opacity:1"
         offset="0" />
      <stop
         id="stop3741"
         style="stop-color:#ffffff;stop-opacity:0"
         offset="1" />
    </linearGradient>
    <filter
       color-interpolation-filters="sRGB"
       id="filter3174">
      <feGaussianBlur
         id="feGaussianBlur3176"
         stdDeviation="1.71" />
    </filter>
    <linearGradient
       x1="36.357143"
       y1="6"
       x2="36.357143"
       y2="63.893143"
       id="linearGradient3188"
       xlink:href="#linearGradient3737"
       gradientUnits="userSpaceOnUse" />
    <filter
       x="-0.192"
       y="-0.192"
       width="1.3839999"
       height="1.3839999"
       color-interpolation-filters="sRGB"
       id="filter3794">
      <feGaussianBlur
         id="feGaussianBlur3796"
         stdDeviation="5.28" />
    </filter>
    <linearGradient
       x1="48"
       y1="20.220806"
       x2="48"
       y2="138.66119"
       id="linearGradient3613"
       xlink:href="#linearGradient3737"
       gradientUnits="userSpaceOnUse" />
    <radialGradient
       cx="48"
       cy="90.171875"
       r="42"
       fx="48"
       fy="90.171875"
       id="radialGradient3619"
       xlink:href="#linearGradient3737"
       gradientUnits="userSpaceOnUse"
       gradientTransform="matrix(1.1573129,0,0,0.99590774,-7.5510206,0.19713193)" />
    <clipPath
       id="clipPath3613">
      <rect
         width="84"
         height="84"
         rx="6"
         ry="6"
         x="6"
         y="6"
         id="rect3615"
         style="fill:#ffffff;fill-opacity:1;fill-rule:nonzero;stroke:none" />
    </clipPath>
    <linearGradient
       x1="48"
       y1="90"
       x2="48"
       y2="5.9877172"
       id="linearGradient3617"
       xlink:href="#linearGradient3187"
       gradientUnits="userSpaceOnUse" />
    <linearGradient
       id="linearGradient3187">
      <stop
         id="stop3189"
         style="stop-color:#a2703a;stop-opacity:1"
         offset="0" />
      <stop
         id="stop3191"
         style="stop-color:#d9b27b;stop-opacity:1"
         offset="1" />
    </linearGradient>
    <linearGradient
       x1="136.41356"
       y1="115.49392"
       x2="149.52968"
       y2="115.49392"
       id="linearGradient3843"
       xlink:href="#linearGradient3485"
       gradientUnits="userSpaceOnUse" />
    <linearGradient
       id="linearGradient3485">
      <stop
         id="stop3487"
         style="stop-color:#e6605b;stop-opacity:1"
         offset="0" />
      <stop
         id="stop3489"
         style="stop-color:#f08682;stop-opacity:1"
         offset="1" />
    </linearGradient>
    <filter
       x="-0.42857143"
       y="-0.16666667"
       width="1.8571428"
       height="1.3333333"
       color-interpolation-filters="sRGB"
       id="filter3495">
      <feGaussianBlur
         stdDeviation="0.55242721"
         id="feGaussianBlur3497" />
    </filter>
    <filter
       x="-0.18344349"
       y="-0.17668343"
       width="1.366887"
       height="1.3533669"
       color-interpolation-filters="sRGB"
       id="filter3509">
      <feGaussianBlur
         stdDeviation="0.65925"
         id="feGaussianBlur3511" />
    </filter>
    <linearGradient
       x1="137.40625"
       y1="116.46875"
       x2="148.53125"
       y2="116.46875"
       id="linearGradient3845"
       xlink:href="#linearGradient3339"
       gradientUnits="userSpaceOnUse"
       gradientTransform="matrix(1.0893815,0,0,1,-13.275943,0)" />
    <linearGradient
       id="linearGradient3339">
      <stop
         id="stop3341"
         style="stop-color:#000000;stop-opacity:1"
         offset="0" />
      <stop
         id="stop3347"
         style="stop-color:#000000;stop-opacity:0.49803922"
         offset="0.69999999" />
      <stop
         id="stop3343"
         style="stop-color:#000000;stop-opacity:0"
         offset="1" />
    </linearGradient>
    <linearGradient
       x1="136"
       y1="60"
       x2="150"
       y2="60"
       id="linearGradient3847"
       xlink:href="#linearGradient3278"
       gradientUnits="userSpaceOnUse"
       gradientTransform="translate(-23.73343,0)" />
    <linearGradient
       id="linearGradient3278">
      <stop
         id="stop3280"
         style="stop-color:#945a00;stop-opacity:1"
         offset="0" />
      <stop
         id="stop3290"
         style="stop-color:#e28e0a;stop-opacity:1"
         offset="0.25" />
      <stop
         id="stop3286"
         style="stop-color:#ffba14;stop-opacity:1"
         offset="0.30000001" />
      <stop
         id="stop3288"
         style="stop-color:#f3ac00;stop-opacity:1"
         offset="0.69999999" />
      <stop
         id="stop3292"
         style="stop-color:#ffd314;stop-opacity:1"
         offset="0.75" />
      <stop
         id="stop3282"
         style="stop-color:#ffed94;stop-opacity:1"
         offset="1" />
    </linearGradient>
    <linearGradient
       x1="143"
       y1="2.4000001e-06"
       x2="143"
       y2="120.01752"
       id="linearGradient3849"
       xlink:href="#linearGradient3254"
       gradientUnits="userSpaceOnUse"
       gradientTransform="translate(-23.73343,0)" />
    <linearGradient
       id="linearGradient3254">
      <stop
         id="stop3256"
         style="stop-color:#000000;stop-opacity:1"
         offset="0" />
      <stop
         id="stop3266"
         style="stop-color:#000000;stop-opacity:1"
         offset="0.06588447" />
      <stop
         id="stop3264"
         style="stop-color:#ad5f1b;stop-opacity:1"
         offset="0.07" />
      <stop
         id="stop3268"
         style="stop-color:#ad601a;stop-opacity:1"
         offset="0.1913653" />
      <stop
         id="stop3262"
         style="stop-color:#785800;stop-opacity:1"
         offset="0.20983393" />
      <stop
         id="stop3258"
         style="stop-color:#785700;stop-opacity:1"
         offset="1" />
    </linearGradient>
    <linearGradient
       x1="141.25002"
       y1="4.9218717"
       x2="144.81252"
       y2="4.9218717"
       id="linearGradient3851"
       xlink:href="#linearGradient3394"
       gradientUnits="userSpaceOnUse"
       gradientTransform="translate(-23.73343,0)" />
    <linearGradient
       id="linearGradient3394">
      <stop
         id="stop3396"
         style="stop-color:#000000;stop-opacity:1"
         offset="0" />
      <stop
         id="stop3402"
         style="stop-color:#7d7d7d;stop-opacity:1"
         offset="0.5" />
      <stop
         id="stop3398"
         style="stop-color:#000000;stop-opacity:1"
         offset="1" />
    </linearGradient>
    <linearGradient
       x1="136.98804"
       y1="17.043356"
       x2="148.99513"
       y2="17.043356"
       id="linearGradient3853"
       xlink:href="#linearGradient3308"
       gradientUnits="userSpaceOnUse"
       gradientTransform="translate(-23.73343,0)" />
    <linearGradient
       id="linearGradient3308">
      <stop
         id="stop3310"
         style="stop-color:#da8539;stop-opacity:1"
         offset="0" />
      <stop
         id="stop3312"
         style="stop-color:#fadfc7;stop-opacity:1"
         offset="1" />
    </linearGradient>
    <linearGradient
       x1="146.10596"
       y1="118.94019"
       x2="146.07562"
       y2="66"
       id="linearGradient3855"
       xlink:href="#linearGradient5452"
       gradientUnits="userSpaceOnUse"
       gradientTransform="matrix(1,0,0,1.2653524,-23.73343,-54.364173)" />
    <linearGradient
       id="linearGradient5452">
      <stop
         id="stop5454"
         style="stop-color:#ffffff;stop-opacity:1"
         offset="0" />
      <stop
         id="stop5456"
         style="stop-color:#ffffff;stop-opacity:0"
         offset="1" />
    </linearGradient>
    <linearGradient
       x1="146.10596"
       y1="118.94019"
       x2="146.07562"
       y2="66"
       id="linearGradient3857"
       xlink:href="#linearGradient5452"
       gradientUnits="userSpaceOnUse"
       gradientTransform="matrix(1,0,0,1.2653524,-29.85843,-54.364173)" />
    <filter
       x="-0.43161276"
       y="-0.11371106"
       width="1.8632255"
       height="1.2274221"
       color-interpolation-filters="sRGB"
       id="filter3382">
      <feGaussianBlur
         stdDeviation="0.73914765"
         id="feGaussianBlur3384" />
    </filter>
    <filter
       x="-0.60979599"
       y="-0.1494"
       width="2.2195919"
       height="1.2988"
       color-interpolation-filters="sRGB"
       id="filter3390">
      <feGaussianBlur
         stdDeviation="0.77812506"
         id="feGaussianBlur3392" />
    </filter>
    <linearGradient
       x1="136"
       y1="106"
       x2="150"
       y2="106"
       id="linearGradient3859"
       xlink:href="#linearGradient3401"
       gradientUnits="userSpaceOnUse" />
    <linearGradient
       id="linearGradient3401">
      <stop
         id="stop3403"
         style="stop-color:#404040;stop-opacity:1"
         offset="0" />
      <stop
         id="stop3447"
         style="stop-color:#808080;stop-opacity:1"
         offset="0.2" />
      <stop
         id="stop3410"
         style="stop-color:#efefef;stop-opacity:1"
         offset="0.69999999" />
      <stop
         id="stop3405"
         style="stop-color:#dcdcdc;stop-opacity:1"
         offset="1" />
    </linearGradient>
    <linearGradient
       x1="136"
       y1="106"
       x2="150"
       y2="106"
       id="linearGradient3861"
       xlink:href="#linearGradient3461"
       gradientUnits="userSpaceOnUse" />
    <linearGradient
       id="linearGradient3461">
      <stop
         id="stop3463"
         style="stop-color:#444542;stop-opacity:1"
         offset="0" />
      <stop
         id="stop3465"
         style="stop-color:#71746e;stop-opacity:1"
         offset="1" />
    </linearGradient>
    <linearGradient
       x1="142.95775"
       y1="98.950562"
       x2="148.95775"
       y2="98.950562"
       id="linearGradient3863"
       xlink:href="#linearGradient3339"
       gradientUnits="userSpaceOnUse"
       gradientTransform="translate(0.04225159,1.5494389)"
       spreadMethod="reflect" />
    <linearGradient
       x1="142.95775"
       y1="98.950562"
       x2="148.95775"
       y2="98.950562"
       id="linearGradient3865"
       xlink:href="#linearGradient3355"
       gradientUnits="userSpaceOnUse"
       gradientTransform="translate(0.04225159,2.5494389)"
       spreadMethod="reflect" />
    <linearGradient
       id="linearGradient3355">
      <stop
         id="stop3357"
         style="stop-color:#ffffff;stop-opacity:1"
         offset="0" />
      <stop
         id="stop3359"
         style="stop-color:#ffffff;stop-opacity:0.49803922"
         offset="0.69999999" />
      <stop
         id="stop3361"
         style="stop-color:#ffffff;stop-opacity:0"
         offset="1" />
    </linearGradient>
    <linearGradient
       x1="142.95775"
       y1="98.950562"
       x2="148.95775"
       y2="98.950562"
       id="linearGradient3867"
       xlink:href="#linearGradient3339"
       gradientUnits="userSpaceOnUse"
       gradientTransform="translate(0.04225159,3.5494389)"
       spreadMethod="reflect" />
    <linearGradient
       x1="142.95775"
       y1="98.950562"
       x2="148.95775"
       y2="98.950562"
       id="linearGradient3869"
       xlink:href="#linearGradient3355"
       gradientUnits="userSpaceOnUse"
       gradientTransform="translate(0.04225159,4.5494389)"
       spreadMethod="reflect" />
    <linearGradient
       x1="142.95775"
       y1="98.950562"
       x2="148.95775"
       y2="98.950562"
       id="linearGradient3871"
       xlink:href="#linearGradient3339"
       gradientUnits="userSpaceOnUse"
       gradientTransform="translate(0.04225159,9.5494389)"
       spreadMethod="reflect" />
    <linearGradient
       x1="142.95775"
       y1="98.950562"
       x2="148.95775"
       y2="98.950562"
       id="linearGradient3873"
       xlink:href="#linearGradient3355"
       gradientUnits="userSpaceOnUse"
       gradientTransform="translate(0.04225159,10.549439)"
       spreadMethod="reflect" />
    <linearGradient
       x1="142.95775"
       y1="98.950562"
       x2="148.95775"
       y2="98.950562"
       id="linearGradient3875"
       xlink:href="#linearGradient3339"
       gradientUnits="userSpaceOnUse"
       gradientTransform="translate(0.04225159,11.549439)"
       spreadMethod="reflect" />
    <linearGradient
       x1="142.95775"
       y1="98.950562"
       x2="148.95775"
       y2="98.950562"
       id="linearGradient3877"
       xlink:href="#linearGradient3355"
       gradientUnits="userSpaceOnUse"
       gradientTransform="translate(0.04225159,12.549439)"
       spreadMethod="reflect" />
    <linearGradient
       x1="137"
       y1="106"
       x2="139.03125"
       y2="106"
       id="linearGradient3879"
       xlink:href="#linearGradient3439"
       gradientUnits="userSpaceOnUse"
       spreadMethod="repeat" />
    <linearGradient
       id="linearGradient3439">
      <stop
         id="stop3441"
         style="stop-color:#afafaf;stop-opacity:1;"
         offset="0" />
      <stop
         id="stop3443"
         style="stop-color:#ffffff;stop-opacity:1"
         offset="1" />
    </linearGradient>
    <filter
       x="-1.0349605"
       y="-0.13573837"
       width="3.069921"
       height="1.2714767"
       color-interpolation-filters="sRGB"
       id="filter3451">
      <feGaussianBlur
         stdDeviation="0.9498173"
         id="feGaussianBlur3453" />
    </filter>
    <filter
       x="-0.93333328"
       y="-0.13770492"
       width="2.8666666"
       height="1.2754098"
       color-interpolation-filters="sRGB"
       id="filter3457">
      <feGaussianBlur
         stdDeviation="0.92807767"
         id="feGaussianBlur3459" />
    </filter>
    <linearGradient
       id="linearGradient4114">
      <stop
         id="stop4116"
         style="stop-color:#aaaaaa;stop-opacity:1"
         offset="0" />
      <stop
         id="stop4118"
         style="stop-color:#dcdcdc;stop-opacity:1"
         offset="1" />
    </linearGradient>
    <linearGradient
       id="linearGradient3465">
      <stop
         id="stop3467"
         style="stop-color:#919191;stop-opacity:1"
         offset="0" />
      <stop
         id="stop3469"
         style="stop-color:#fdfdfd;stop-opacity:1"
         offset="1" />
    </linearGradient>
    <filter
       x="-0.03906453"
       y="-0.14405686"
       width="1.0781291"
       height="1.2881137"
       color-interpolation-filters="sRGB"
       id="filter3294">
      <feGaussianBlur
         id="feGaussianBlur3296"
         stdDeviation="1.4293142" />
    </filter>
    <linearGradient
       id="linearGradient3929">
      <stop
         id="stop3931"
         style="stop-color:#000000;stop-opacity:1"
         offset="0" />
      <stop
         id="stop3933"
         style="stop-color:#000000;stop-opacity:0.58823532"
         offset="1" />
    </linearGradient>
    <linearGradient
       x1="31"
       y1="108"
       x2="31"
       y2="96"
       id="linearGradient4383"
       xlink:href="#linearGradient3929"
       gradientUnits="userSpaceOnUse" />
    <linearGradient
       x1="31"
       y1="108"
       x2="31"
       y2="96"
       id="linearGradient4385"
       xlink:href="#linearGradient3929"
       gradientUnits="userSpaceOnUse" />
    <linearGradient
       x1="31"
       y1="108"
       x2="31"
       y2="96"
       id="linearGradient4387"
       xlink:href="#linearGradient3929"
       gradientUnits="userSpaceOnUse" />
    <linearGradient
       x1="31"
       y1="108"
       x2="31"
       y2="96"
       id="linearGradient4389"
       xlink:href="#linearGradient3929"
       gradientUnits="userSpaceOnUse" />
    <linearGradient
       x1="31"
       y1="108"
       x2="31"
       y2="96"
       id="linearGradient4391"
       xlink:href="#linearGradient3929"
       gradientUnits="userSpaceOnUse" />
    <linearGradient
       x1="23.882524"
       y1="132.27245"
       x2="23.882524"
       y2="117.57551"
       id="linearGradient4393"
       xlink:href="#linearGradient3929"
       gradientUnits="userSpaceOnUse"
       gradientTransform="scale(1.2247449,0.8164966)" />
    <linearGradient
       x1="31"
       y1="108"
       x2="31"
       y2="96"
       id="linearGradient4395"
       xlink:href="#linearGradient3929"
       gradientUnits="userSpaceOnUse" />
    <linearGradient
       x1="31"
       y1="108"
       x2="31"
       y2="96"
       id="linearGradient4397"
       xlink:href="#linearGradient3929"
       gradientUnits="userSpaceOnUse" />
    <linearGradient
       x1="31"
       y1="108"
       x2="31"
       y2="96"
       id="linearGradient4399"
       xlink:href="#linearGradient3929"
       gradientUnits="userSpaceOnUse" />
    <linearGradient
       x1="31"
       y1="108"
       x2="31"
       y2="96"
       id="linearGradient4401"
       xlink:href="#linearGradient3929"
       gradientUnits="userSpaceOnUse" />
    <linearGradient
       x1="31"
       y1="108"
       x2="31"
       y2="96"
       id="linearGradient4403"
       xlink:href="#linearGradient3929"
       gradientUnits="userSpaceOnUse" />
    <linearGradient
       x1="31"
       y1="108"
       x2="31"
       y2="96"
       id="linearGradient4405"
       xlink:href="#linearGradient3929"
       gradientUnits="userSpaceOnUse" />
    <linearGradient
       x1="31"
       y1="108"
       x2="31"
       y2="96"
       id="linearGradient4407"
       xlink:href="#linearGradient3929"
       gradientUnits="userSpaceOnUse" />
    <linearGradient
       x1="31"
       y1="108"
       x2="31"
       y2="80"
       id="linearGradient4409"
       xlink:href="#linearGradient3929"
       gradientUnits="userSpaceOnUse"
       gradientTransform="matrix(0.5581553,0,0,0.5568189,76.116988,21.863559)" />
    <linearGradient
       x1="31"
       y1="108"
       x2="31"
       y2="96"
       id="linearGradient4411"
       xlink:href="#linearGradient3929"
       gradientUnits="userSpaceOnUse" />
    <linearGradient
       x1="-52.5"
       y1="-76.295921"
       x2="-52.5"
       y2="-52.312489"
       id="linearGradient4662"
       xlink:href="#linearGradient3465"
       gradientUnits="userSpaceOnUse"
       gradientTransform="matrix(0.44155423,0,0,0.44049701,89.110105,50.940509)" />
    <linearGradient
       x1="74.906487"
       y1="96.908859"
       x2="74.906487"
       y2="23.893446"
       id="linearGradient4668"
       xlink:href="#linearGradient4114"
       gradientUnits="userSpaceOnUse"
       gradientTransform="matrix(0.79109563,0,0,0.79109563,7.4608755,-7.514973)" />
    <linearGradient
       x1="84"
       y1="96"
       x2="84"
       y2="23.998264"
       id="linearGradient4670"
       xlink:href="#linearGradient3465"
       gradientUnits="userSpaceOnUse"
       gradientTransform="matrix(0.79109563,0,0,0.79109563,6.5958013,-7.9826252)" />
    <linearGradient
       x1="45.447727"
       y1="92.539597"
       x2="45.447727"
       y2="7.0165396"
       id="ButtonShadow-0"
       gradientUnits="userSpaceOnUse"
       gradientTransform="matrix(1.0058652,0,0,0.994169,100,0)">
      <stop
         id="stop3750-8"
         style="stop-color:#000000;stop-opacity:1"
         offset="0" />
      <stop
         id="stop3752-5"
         style="stop-color:#000000;stop-opacity:0.58823532"
         offset="1" />
    </linearGradient>
    <linearGradient
       x1="32.251034"
       y1="6.1317081"
       x2="32.251034"
       y2="90.238609"
       id="linearGradient3780"
       xlink:href="#ButtonShadow-0"
       gradientUnits="userSpaceOnUse"
       gradientTransform="matrix(1.0238095,0,0,1.0119048,-1.1428571,-98.071429)" />
    <linearGradient
       x1="32.251034"
       y1="6.1317081"
       x2="32.251034"
       y2="90.238609"
       id="linearGradient3772"
       xlink:href="#ButtonShadow-0"
       gradientUnits="userSpaceOnUse"
       gradientTransform="matrix(1.0238095,0,0,1.0119048,-1.1428571,-98.071429)" />
    <linearGradient
       x1="32.251034"
       y1="6.1317081"
       x2="32.251034"
       y2="90.238609"
       id="linearGradient3725"
       xlink:href="#ButtonShadow-0"
       gradientUnits="userSpaceOnUse"
       gradientTransform="matrix(1.0238095,0,0,1.0119048,-1.1428571,-98.071429)" />
    <linearGradient
       x1="32.251034"
       y1="6.1317081"
       x2="32.251034"
       y2="90.238609"
       id="linearGradient3721"
       xlink:href="#ButtonShadow-0"
       gradientUnits="userSpaceOnUse"
       gradientTransform="translate(0,-97)" />
    <linearGradient
       x1="32.251034"
       y1="6.1317081"
       x2="32.251034"
       y2="90.238609"
       id="linearGradient3811"
       xlink:href="#ButtonShadow-0"
       gradientUnits="userSpaceOnUse"
       gradientTransform="matrix(1.0238095,0,0,1.0119048,-1.1428571,-98.071429)" />
    <linearGradient
       inkscape:collect="always"
       xlink:href="#linearGradient4308-7"
       id="linearGradient4350-8"
       gradientUnits="userSpaceOnUse"
       x1="152.95821"
       y1="7.220057"
       x2="153.49303"
       y2="90.384399"
       gradientTransform="matrix(0.88161209,0,0,1.0524691,14.531717,-4.8125451)" />
    <linearGradient
       id="linearGradient4308-7">
      <stop
         style="stop-color:#03789e;stop-opacity:1;"
         offset="0"
         id="stop4310-3" />
      <stop
         style="stop-color:#15a8b7;stop-opacity:1;"
         offset="1"
         id="stop4312-1" />
    </linearGradient>
    <linearGradient
       inkscape:collect="always"
       xlink:href="#linearGradient4390"
       id="linearGradient4443"
       gradientUnits="userSpaceOnUse"
       x1="173.08191"
       y1="7.034543"
       x2="187.12892"
       y2="49.957302" />
    <linearGradient
       inkscape:collect="always"
       xlink:href="#linearGradient4390"
       id="linearGradient4445"
       gradientUnits="userSpaceOnUse"
       x1="150.01329"
       y1="24.997812"
       x2="169.35474"
       y2="24.997812" />
    <linearGradient
       inkscape:collect="always"
       xlink:href="#linearGradient4390"
       id="linearGradient4448"
       gradientUnits="userSpaceOnUse"
       gradientTransform="matrix(0.93716497,0,0,0.94922694,-143.48992,45.474442)"
       x1="209.89029"
       y1="49.129711"
       x2="165.88618"
       y2="-41.924999" />
    <linearGradient
       inkscape:collect="always"
       xlink:href="#linearGradient3439"
       id="linearGradient4455"
       gradientUnits="userSpaceOnUse"
       gradientTransform="matrix(0.78571623,0,0,0.95499231,-73.924858,0.59053988)"
       x1="157.4791"
       y1="36.232529"
       x2="153.49303"
       y2="90.384399" />
    <linearGradient
       inkscape:collect="always"
       xlink:href="#linearGradient3916"
       id="linearGradient3922"
       x1="47.597473"
       y1="14.573833"
       x2="48.402527"
       y2="36.501408"
       gradientUnits="userSpaceOnUse" />
    <linearGradient
       inkscape:collect="always"
       xlink:href="#linearGradient4390"
       id="linearGradient3927"
       gradientUnits="userSpaceOnUse"
       x1="150.01329"
       y1="24.997812"
       x2="169.35474"
       y2="24.997812"
       gradientTransform="matrix(1.0011307,0.36973275,-0.36973275,1.0011307,-198.06362,-55.938498)" />
    <linearGradient
       inkscape:collect="always"
       xlink:href="#linearGradient4390"
       id="linearGradient3930"
       gradientUnits="userSpaceOnUse"
       x1="173.08191"
       y1="7.034543"
       x2="187.12892"
       y2="49.957302"
       gradientTransform="matrix(1.0011307,0.36973275,-0.36973275,1.0011307,-198.06362,-55.938498)" />
    <filter
       inkscape:collect="always"
       id="filter3956"
       x="-0.31476212"
       width="1.6295242"
       y="-0.91115474"
       height="2.8223095">
      <feGaussianBlur
         inkscape:collect="always"
         stdDeviation="5.7869897"
         id="feGaussianBlur3958" />
    </filter>
    <linearGradient
       inkscape:collect="always"
       xlink:href="#linearGradient3465"
       id="linearGradient4010"
       x1="-35.727104"
       y1="54.809574"
       x2="0.68618292"
       y2="54.809574"
       gradientUnits="userSpaceOnUse" />
    <linearGradient
       inkscape:collect="always"
       xlink:href="#linearGradient3465"
       id="linearGradient4018"
       x1="-64.471199"
       y1="46.898396"
       x2="-60.953289"
       y2="39.145824"
       gradientUnits="userSpaceOnUse" />
    <radialGradient
       cx="372.90503"
       cy="376.39664"
       r="364.52515"
       fx="372.90503"
       fy="376.39664"
       id="radialGradient3709"
       xlink:href="#linearGradient3685"
       gradientUnits="userSpaceOnUse"
       gradientTransform="matrix(1,0,0,0.98659002,0,5.0474716)" />
    <linearGradient
       id="linearGradient3685">
      <stop
         id="stop3687"
         style="stop-color:#ffffff;stop-opacity:1"
         offset="0" />
      <stop
         id="stop3693"
         style="stop-color:#ffffff;stop-opacity:1"
         offset="0.74434954" />
      <stop
         id="stop3689"
         style="stop-color:#ffffff;stop-opacity:0"
         offset="1" />
    </linearGradient>
    <radialGradient
       cx="372.90503"
       cy="376.39664"
       r="364.52515"
       fx="372.90503"
       fy="376.39664"
       id="radialGradient3046"
       xlink:href="#linearGradient3870"
       gradientUnits="userSpaceOnUse"
       gradientTransform="matrix(1,0,0,0.98659002,0,5.0474716)" />
    <linearGradient
       id="linearGradient3870">
      <stop
         id="stop3872"
         style="stop-color:#e0e9f2;stop-opacity:1"
         offset="0" />
      <stop
         id="stop3902"
         style="stop-color:#c7d7e8;stop-opacity:1"
         offset="0.828125" />
      <stop
         id="stop3708"
         style="stop-color:#b2c8df;stop-opacity:1"
         offset="0.9140625" />
      <stop
         id="stop3874"
         style="stop-color:#739bc6;stop-opacity:1"
         offset="1" />
    </linearGradient>
    <radialGradient
       cx="25.102606"
       cy="22.634785"
       r="19.18985"
       fx="25.102606"
       fy="22.634785"
       id="radialGradient2720"
       xlink:href="#linearGradient3904"
       gradientUnits="userSpaceOnUse"
       gradientTransform="matrix(0.93193541,0,0,0.90045651,24.60599,26.411995)" />
    <linearGradient
       id="linearGradient3904">
      <stop
         id="stop3906"
         style="stop-color:#bcd0e3;stop-opacity:1"
         offset="0" />
      <stop
         id="stop3908"
         style="stop-color:#97b5d4;stop-opacity:1"
         offset="0.70264906" />
      <stop
         id="stop3910"
         style="stop-color:#4e81b7;stop-opacity:1"
         offset="1" />
    </linearGradient>
    <linearGradient
       x1="16"
       y1="60"
       x2="16"
       y2="35.916809"
       id="linearGradient4466"
       xlink:href="#linearGradient3724-3"
       gradientUnits="userSpaceOnUse"
       gradientTransform="translate(4,0)" />
    <linearGradient
       id="linearGradient3724-3">
      <stop
         id="stop3726-5"
         style="stop-color:#ff5599;stop-opacity:1"
         offset="0" />
      <stop
         id="stop3728-3"
         style="stop-color:#ff75ac;stop-opacity:1"
         offset="1" />
    </linearGradient>
    <linearGradient
       y2="35.916809"
       x2="16"
       y1="60"
       x1="16"
       gradientTransform="translate(24,0)"
       gradientUnits="userSpaceOnUse"
       id="linearGradient3896"
       xlink:href="#linearGradient3724-3"
       inkscape:collect="always" />
    <linearGradient
       id="linearGradient3663">
      <stop
         id="stop3665"
         style="stop-color:#ff5599;stop-opacity:1"
         offset="0" />
      <stop
         id="stop3667"
         style="stop-color:#ff75ac;stop-opacity:1"
         offset="1" />
    </linearGradient>
    <linearGradient
       y2="35.916809"
       x2="16"
       y1="60"
       x1="16"
       gradientTransform="translate(24,0)"
       gradientUnits="userSpaceOnUse"
       id="linearGradient3683"
       xlink:href="#linearGradient3724-3"
       inkscape:collect="always" />
    <linearGradient
       inkscape:collect="always"
       xlink:href="#linearGradient3724-3"
       id="linearGradient5682"
       gradientUnits="userSpaceOnUse"
       gradientTransform="matrix(1.1277064,0,0,1.1277064,-9.7217144,95.529341)"
       x1="16"
       y1="60"
       x2="16"
       y2="35.916809" />
    <radialGradient
       inkscape:collect="always"
       xlink:href="#linearGradient3685"
       id="radialGradient5697"
       gradientUnits="userSpaceOnUse"
       gradientTransform="matrix(0.07425525,0,0,0.0742512,-88.576188,20.551247)"
       cx="372.90503"
       cy="376.39664"
       fx="372.90503"
       fy="376.39664"
       r="364.52515" />
    <radialGradient
       inkscape:collect="always"
       xlink:href="#linearGradient3685"
       id="radialGradient5708"
       gradientUnits="userSpaceOnUse"
       gradientTransform="matrix(0.07425525,0,0,0.0742512,-88.576188,20.551247)"
       cx="372.90503"
       cy="376.39664"
       fx="372.90503"
       fy="376.39664"
       r="364.52515" />
  </defs>
  <metadata
     id="metadata2413">
    <rdf:RDF>
      <cc:Work
         rdf:about="">
        <dc:format>image/svg+xml</dc:format>
        <dc:type
           rdf:resource="http://purl.org/dc/dcmitype/StillImage" />
        <dc:title></dc:title>
      </cc:Work>
    </rdf:RDF>
  </metadata>
  <g
     id="layer2"
     style="display:none">
    <rect
       width="86"
       height="85"
       rx="6"
       ry="6"
       x="5"
       y="7"
       id="rect3745"
       style="opacity:0.9;fill:url(#ButtonShadow);fill-opacity:1;fill-rule:nonzero;stroke:none;filter:url(#filter3174)" />
  </g>
  <rect
     style="fill:url(#linearGradient4455);fill-opacity:1;stroke:none"
     id="rect3538"
     width="83.412865"
     height="82.74118"
     x="6.5464892"
     y="5.442646"
     ry="6.1289759" />
  <path
     sodipodi:type="arc"
     style="fill:#ffffff;fill-opacity:1;stroke:none;filter:url(#filter3956)"
     id="path4316"
     sodipodi:cx="157.90529"
     sodipodi:cy="72.86908"
     sodipodi:rx="32.249771"
     sodipodi:ry="14.39899"
     d="m 190.06184,71.775041 a 32.249771,14.39899 0 1 1 -0.0612,-0.313381"
     sodipodi:start="6.2071318"
     sodipodi:end="12.46847"
     sodipodi:open="true"
     transform="matrix(0.99735675,0,0,1.0652476,-111.15312,-12.667378)" />
  <rect
     style="fill:none;stroke:url(#linearGradient4448);stroke-width:4.76155089999999959;stroke-miterlimit:4;stroke-dasharray:none"
     id="rect3538-4"
     width="87.712372"
     height="86.556808"
     x="4.1174908"
     y="4.7343626"
     ry="6.4116149" />
  <g
     id="g5701"
     transform="matrix(0.95109775,0,0,0.95109775,106.12577,3.1280663)">
    <path
       inkscape:connector-curvature="0"
       d="m -33.818126,48.499157 a 27.067906,27.066429 0 0 1 -54.135812,0 27.067906,27.066429 0 1 1 54.135812,0 z"
       id="path3681"
       style="opacity:0.3;fill:url(#radialGradient5708);fill-opacity:1;fill-rule:evenodd;stroke:none;display:inline" />
    <path
       inkscape:connector-curvature="0"
       d="m -40.587041,48.499157 a 20.298991,20.297887 0 0 1 -40.597982,0 20.298991,20.297887 0 1 1 40.597982,0 z"
       id="path5993"
       style="fill:#2c5aa0;fill-opacity:1;fill-rule:evenodd;stroke:#000000;stroke-width:3;stroke-miterlimit:4;stroke-opacity:1;stroke-dasharray:none;display:inline" />
    <path
       d="m -61.018411,30.006776 -2.142627,0.248419 -2.639461,0.729731 -0.49684,0.481313 1.645786,1.133419 0,0.652105 -0.652104,0.652097 0.853945,1.692367 0.574461,-0.31053 0.714213,-1.148942 c 1.103782,-0.341902 2.102695,-0.724867 3.15183,-1.211044 l 0.853946,-2.189203 -1.863149,-0.729732 z m -5.01498,0.263942 c -0.471989,0.133468 -0.941148,0.281771 -1.397364,0.450266 l -0.01558,0.01553 c -0.009,0.0037 -0.02203,-0.0037 -0.03108,0 -0.62977,0.234476 -1.236116,0.509616 -1.832099,0.807366 l 0.931574,0.170783 0.357105,-0.326053 0.714205,-0.15526 c 0.489485,-0.238503 0.986696,-0.406171 1.506051,-0.574471 l -0.232899,-0.388155 z m -4.269725,1.847627 -0.139735,0.326053 0.06207,0.807365 -0.55894,0.481314 -0.357114,0.900523 0.714212,0 0.357098,-0.807365 c 0.308136,-0.218321 0.602222,-0.441961 0.916054,-0.652106 l 0.714203,0.248418 c 0.476112,0.324081 0.951918,0.639038 1.428416,0.962635 l 0.72974,-0.652105 -0.791839,-0.31053 -0.357107,-0.729731 -1.366308,-0.170784 -0.06215,-0.403687 -0.652105,0.15526 -0.27947,0.574471 -0.357106,-0.729731 z m 18.305452,0.652105 -1.366309,0.326044 -0.853946,0.558948 0,0.481313 -1.35078,0.900524 0.27947,1.288679 0.79184,-0.558948 0.496841,0.558948 0.574468,0.326053 0.357106,-0.962626 -0.21737,-0.574471 0.21737,-0.403688 0.776311,-0.729731 0.357105,0 -0.357105,0.807366 0,0.729731 c 0.328291,-0.08948 0.673258,-0.113406 1.00921,-0.15526 l -0.931574,0.636573 -0.07764,0.419211 -1.071309,0.885001 -1.07131,-0.248428 0,-0.636573 -0.49684,0.31052 0.217362,0.574481 -0.791839,0 -0.419205,0.729731 -0.54342,0.605527 -0.962623,0.201839 0.574468,0.574471 0.139734,0.558938 -0.714202,0 -0.931576,0.496846 0,1.443939 0.434734,0 0.388156,0.450267 0.900525,-0.450267 0.357097,-0.884991 0.636576,-0.403688 0.139736,-0.326053 1.071317,-0.248418 0.574468,0.652106 0.636576,0.326053 -0.357097,0.729731 0.574468,-0.15526 0.294999,-0.729741 -0.714211,-0.822889 0.279469,0 0.714213,0.574471 0.139734,0.807366 0.652105,0.729731 0.139742,-1.055784 0.357098,-0.15526 c 0.353252,0.367414 0.634059,0.797544 0.931575,1.211044 l 1.07131,0.07766 0.636576,0.403688 -0.27947,0.403678 -0.652105,0.574471 -0.916045,0 -1.226574,-0.403678 -0.636576,0.07766 -0.465791,0.527892 -1.319731,-1.335258 -0.931573,-0.248418 -1.350789,0.170793 -1.226565,0.326043 c -0.681542,0.774116 -1.342291,1.540511 -1.987364,2.344464 l -0.79184,1.86315 0.357107,0.403687 -0.636576,0.97815 0.714204,1.692366 c 0.607523,0.688538 1.209934,1.375959 1.816571,2.06499 l 0.884996,-0.760787 0.403684,0.450257 0.962624,-0.62105 0.326057,0.372632 0.962624,0 0.543419,0.62105 -0.341577,1.117896 0.683154,0.77631 -0.03106,1.335258 0.496849,0.962626 -0.357114,0.822889 c -0.03556,0.59617 -0.06207,1.173729 -0.06207,1.769992 0.292805,0.807803 0.577458,1.624015 0.853946,2.437621 l 0.201843,1.288679 0,0.652106 0.512362,0 0.776311,-0.481313 0.931574,0 1.397367,-1.583676 -0.186314,-0.527901 0.931575,-0.807357 -0.683155,-0.77632 0.822889,-0.683152 0.79184,-0.481313 0.357106,-0.403688 -0.217371,-0.900514 c 0,-0.755802 0,-1.510934 0,-2.266838 l 0.652105,-1.381837 0.776311,-0.884991 0.853946,-2.111569 0,-0.558947 c -0.423649,0.05348 -0.827679,0.09415 -1.242102,0.124213 l -0.03107,0.03106 -0.03107,-0.03106 c -0.250859,0.01702 -0.502843,0.03106 -0.760789,0.03106 -0.454975,-0.957873 -0.802477,-1.916853 -1.148938,-2.918934 l -0.605527,-0.683161 -0.310527,-1.179989 0.201842,-0.232895 0.822889,0.931571 0.962632,2.064989 0.574469,0.636582 -0.27947,0.729732 0.543419,0.62105 c 0.02045,-0.0019 0.0417,0.0019 0.06208,0 l 0.853947,-0.853945 1.179995,-0.807366 0.652105,-0.729732 0,-0.822889 c -0.143016,-0.270219 -0.290744,-0.537146 -0.434742,-0.807366 l -0.574469,0.652106 -0.434734,-0.481313 -0.636575,-0.496846 0,-1.040251 0.745261,0.838412 0.822889,-0.108681 c 0.374285,0.340432 0.743027,0.652655 1.071316,1.040261 l 0.52789,-0.589994 c -0.755395,-4.627522 -3.202766,-8.686265 -6.676318,-11.53601 l -0.139735,0.217372 -0.714212,0.807366 -0.916045,-0.962626 0.916045,0 0.388163,-0.434734 c -0.03202,-0.02465 -0.06097,-0.0532 -0.09316,-0.07766 l -1.568154,-0.294997 -0.931575,-0.326053 z m -19.532018,0.06213 c -0.252629,0.172476 -0.486119,0.359192 -0.72974,0.543415 l -0.108685,0.279474 c 0,0 -0.195809,0.03283 -0.34157,0.06213 -4.042302,3.250409 -6.722345,8.138292 -7.0334,13.647568 0.194094,0.33327 0.434742,0.714208 0.434742,0.714208 l 1.506043,0.884991 1.490516,0.419211 0.652103,0.807366 0.993682,0.729731 0.574469,-0.09316 0.434735,0.20184 0,0.124213 -0.57447,1.537098 -0.434734,0.652105 0.139735,0.326053 -0.357105,1.211045 1.288681,2.359986 1.28868,1.133419 0.574469,0.807366 -0.07764,1.70789 0.434733,0.962626 -0.434733,1.86315 c 0,0 -0.01018,0.01376 0.0155,0.124204 0.600539,0.425796 1.229114,0.825457 1.878679,1.179998 0.01018,0.0056 0.02084,0.01 0.03108,0.01553 0.02792,0.01311 0.06679,0.0346 0.09316,0.0466 0.230272,0.104533 0.399224,0.16618 0.434733,0.139737 0.141537,-0.107732 0.263949,-0.201839 0.263949,-0.201839 l -0.139734,-0.403678 0.574469,-0.574481 0.217363,-0.558938 0.916054,-0.326053 0.714204,-1.785525 -0.201842,-0.481303 0.49684,-0.729741 1.071318,-0.248418 0.574468,-1.304202 -0.139742,-1.614732 0.853954,-1.211045 0.139735,-1.211053 c -1.172986,-0.582777 -2.344705,-1.185504 -3.508935,-1.785516 l -0.558948,-1.133418 -1.07131,-0.248419 -0.574476,-1.537097 -1.428408,0.15526 -1.211053,-0.884991 -1.28868,1.13341 0,0.170792 c -0.389218,-0.112559 -0.864473,-0.128083 -1.211045,-0.341576 l -0.294999,-0.807366 0,-0.885001 -0.853947,0.07766 c 0.07159,-0.567421 0.145322,-1.125048 0.217371,-1.692367 l -0.512361,0 -0.496849,0.636574 -0.496833,0.248427 -0.714212,-0.403687 -0.07764,-0.900524 0.155272,-0.962627 1.07131,-0.807366 0.853938,0 0.139735,-0.496836 1.071319,0.248418 0.791839,0.978159 0.139734,-1.630264 1.350788,-1.13341 0.512361,-1.211054 0.993682,-0.403678 0.574469,-0.807366 1.288681,-0.248418 0.636575,-0.978159 c -0.643104,0 -1.282151,0 -1.925256,0 l 1.211054,-0.558938 0.853938,0 1.211044,-0.403688 0.155263,-0.496836 -0.434733,-0.403688 -0.496833,-0.15526 0.139736,-0.481313 -0.357106,-0.729731 -0.853947,0.31052 0.139734,-0.636573 -0.993682,-0.574471 -0.791839,1.381837 0.07764,0.481313 -0.791839,0.326053 -0.496842,1.055784 -0.21737,-0.978159 -1.35078,-0.558938 -0.21737,-0.729741 1.78552,-1.055784 0.776312,-0.729731 0.07764,-0.885001 -0.434734,-0.248418 -0.07764,-0.01553 z m 12.436527,0.993672 -0.558948,0.31053 -0.294998,-0.07766 -0.06207,0.496836 0.49684,0.31053 0.853947,-0.558948 -0.434734,-0.481313 z m -9.42444,0.15527 -0.574469,0.403678 0.714205,0.481313 0.574468,0 0,-0.558939 -0.714204,-0.326052 z m 11.28759,1.86315 0,0.481313 0.29499,0.326053 0,0.729731 -0.155256,0.978149 0.79184,-0.170783 0.574469,-0.558948 -0.496842,-0.481313 c -0.167975,-0.448165 -0.364232,-0.87436 -0.574468,-1.304202 l -0.434733,0 z m -0.279471,0.978149 -0.51237,0.15527 0.155256,0.884991 0.636585,-0.31053 -0.279471,-0.729731 z m -9.859173,1.459472 0.201834,1.133409 0.434742,-0.652096 -0.636576,-0.481313 z"
       inkscape:connector-curvature="0"
       id="path4144"
       style="fill:#55ddff;fill-opacity:1;fill-rule:nonzero;stroke-miterlimit:4;display:inline" />
    <path
       d="m -85.695572,32.709787 -15.787888,15.78789 15.787888,15.78789 0,-6.76624 -9.021651,-9.02165 9.021651,-9.02165 0,-6.76624 z"
       inkscape:connector-curvature="0"
       id="path4464"
       style="fill:#00ccff;fill-opacity:1;stroke:#000000;stroke-width:3;stroke-miterlimit:4;stroke-opacity:1;stroke-dasharray:none;display:inline" />
    <path
       d="m -36.07649,32.709787 0,6.76624 9.021651,9.02165 -9.021651,9.02165 0,6.76624 15.78789,-15.78789 -15.78789,-15.78789 z"
       inkscape:connector-curvature="0"
       id="path3722"
       style="fill:#00ccff;fill-opacity:1;stroke:#000000;stroke-width:3;stroke-miterlimit:4;stroke-opacity:1;stroke-dasharray:none;display:inline" />
  </g>
  <path
     sodipodi:type="arc"
     style="opacity:0.90880001;fill:url(#linearGradient3922);fill-opacity:1;stroke:none"
     id="path3914"
     sodipodi:cx="46.930363"
     sodipodi:cy="26.874651"
     sodipodi:rx="33.827297"
     sodipodi:ry="12.167131"
     d="m 80.659876,25.95019 a 33.827297,12.167131 0 1 1 -0.0036,-0.01675 l -33.725931,0.941216 z"
     sodipodi:start="6.2071318"
     sodipodi:end="12.488936"
     transform="matrix(1,0,0,1.5219531,1.464029,-12.959639)" />
</svg>
