<?xml version="1.0" encoding="UTF-8" standalone="no"?>
<!-- Created with Inkscape (http://www.inkscape.org/) -->

<svg
   xmlns:dc="http://purl.org/dc/elements/1.1/"
   xmlns:cc="http://creativecommons.org/ns#"
   xmlns:rdf="http://www.w3.org/1999/02/22-rdf-syntax-ns#"
   xmlns:svg="http://www.w3.org/2000/svg"
   xmlns="http://www.w3.org/2000/svg"
   xmlns:sodipodi="http://sodipodi.sourceforge.net/DTD/sodipodi-0.dtd"
   xmlns:inkscape="http://www.inkscape.org/namespaces/inkscape"
   width="256"
   height="256"
   id="svg2"
   version="1.1"
   inkscape:version="0.48.3.1 r9886"
   sodipodi:docname="applications-painting.svg">
  <defs
     id="defs4">
    <linearGradient
       id="linearGradient39155">
      <stop
         style="stop-color:white;stop-opacity:1;"
         offset="0"
         id="stop39157" />
      <stop
         style="stop-color:#dadada;stop-opacity:1;"
         offset="1"
         id="stop39159" />
    </linearGradient>
    <inkscape:path-effect
       effect="skeletal"
       id="path-effect12193-2-8-7-7"
       is_visible="true"
       pattern="m 24702.514,-7149.6398 c 0,-2.76 2.24,-5 5,-5 2.76,0 5,2.24 5,5 0,2.76 -2.24,5 -5,5 -2.76,0 -5,-2.24 -5,-5 z"
       copytype="single_stretched"
       prop_scale="1"
       scale_y_rel="false"
       spacing="0"
       normal_offset="0"
       tang_offset="0"
       prop_units="false"
       vertical_pattern="false"
       fuse_tolerance="0" />
    <inkscape:path-effect
       effect="skeletal"
       id="path-effect12193-2-8-7"
       is_visible="true"
       pattern="m 25008.298,-7450.5702 c 0,-2.76 2.24,-5 5,-5 2.76,0 5,2.24 5,5 0,2.76 -2.24,5 -5,5 -2.76,0 -5,-2.24 -5,-5 z"
       copytype="single_stretched"
       prop_scale="1"
       scale_y_rel="false"
       spacing="0"
       normal_offset="0"
       tang_offset="0"
       prop_units="false"
       vertical_pattern="false"
       fuse_tolerance="0" />
    <inkscape:path-effect
       effect="skeletal"
       id="path-effect12193-2-8"
       is_visible="true"
       pattern="m 25309.228,-7746.6462 c 0,-2.76 2.24,-5 5,-5 2.76,0 5,2.24 5,5 0,2.76 -2.24,5 -5,5 -2.76,0 -5,-2.24 -5,-5 z"
       copytype="single_stretched"
       prop_scale="1"
       scale_y_rel="false"
       spacing="0"
       normal_offset="0"
       tang_offset="0"
       prop_units="false"
       vertical_pattern="false"
       fuse_tolerance="0" />
    <inkscape:path-effect
       effect="skeletal"
       id="path-effect12193-2"
       is_visible="true"
       pattern="m 25658.696,-8096.1135 c 0,-2.76 2.24,-5 5,-5 2.76,0 5,2.24 5,5 0,2.76 -2.24,5 -5,5 -2.76,0 -5,-2.24 -5,-5 z"
       copytype="single_stretched"
       prop_scale="1"
       scale_y_rel="false"
       spacing="0"
       normal_offset="0"
       tang_offset="0"
       prop_units="false"
       vertical_pattern="false"
       fuse_tolerance="0" />
    <inkscape:path-effect
       effect="skeletal"
       id="path-effect12193"
       is_visible="true"
       pattern="m 25954.548,-8391.5574 c 0,-2.76 2.24,-5 5,-5 2.76,0 5,2.24 5,5 0,2.76 -2.24,5 -5,5 -2.76,0 -5,-2.24 -5,-5 z"
       copytype="single_stretched"
       prop_scale="1"
       scale_y_rel="false"
       spacing="0"
       normal_offset="0"
       tang_offset="0"
       prop_units="false"
       vertical_pattern="false"
       fuse_tolerance="0" />
  </defs>
  <sodipodi:namedview
     id="base"
     pagecolor="#ffffff"
     bordercolor="#666666"
     borderopacity="1.0"
     inkscape:pageopacity="0.0"
     inkscape:pageshadow="2"
     inkscape:zoom="0.81101133"
     inkscape:cx="361.7903"
     inkscape:cy="-32.35523"
     inkscape:document-units="px"
     inkscape:current-layer="layer1"
     showgrid="false"
     inkscape:window-width="1438"
     inkscape:window-height="827"
     inkscape:window-x="0"
     inkscape:window-y="25"
     inkscape:window-maximized="1" />
  <metadata
     id="metadata7">
    <rdf:RDF>
      <cc:Work
         rdf:about="">
        <dc:format>image/svg+xml</dc:format>
        <dc:type
           rdf:resource="http://purl.org/dc/dcmitype/StillImage" />
        <dc:title></dc:title>
      </cc:Work>
    </rdf:RDF>
  </metadata>
  <g
     inkscape:label="Capa 1"
     inkscape:groupmode="layer"
     id="layer1"
     transform="translate(0,-796.36218)">
    <g
       transform="matrix(0.08524858,0,0,0.08524858,1762.893,-49.472132)"
       style="fill-rule:evenodd"
       id="g5244">
      <path
         style="fill:#00923f;fill-opacity:1;fill-rule:evenodd;stroke:#737373;stroke-width:14.08615112;stroke-miterlimit:4;stroke-opacity:1;stroke-dasharray:none;display:inline"
         sodipodi:nodetypes="cccccccccccccccccccccccccccccccccccccccccc"
         id="path1452"
         d="m -17863.487,10511.212 c -36.562,-44.545 -90.966,-84.217 -144.724,-86.623 -115.262,24.824 -2.347,91.787 -52.467,147.893 -50.118,56.163 -105.402,-9.684 -105.402,-9.684 l 0,0 -224.129,-294.495 -298.719,227.357 c -10.036,6.337 -69.721,41.022 -100.356,-20.834 -33.335,-67.491 93.254,-101.882 -11.268,-156.462 -44.251,-10.153 -95.955,5.282 -139.325,30.048 -0.587,0 -1.173,0.587 -2.348,1.174 -16.08,7.629 -33.099,18.252 -49.531,31.75 -44.545,36.562 -84.217,90.965 -86.565,144.724 24.766,115.263 91.729,2.347 147.893,52.466 56.105,50.119 -9.742,105.403 -9.742,105.403 l -293.028,225.83 c 0,0 227.297,293.732 227.297,293.732 0,0 55.225,65.906 105.404,9.741 50.119,-56.104 -62.738,-123.008 52.525,-147.775 53.699,2.348 108.102,41.962 144.606,86.448 13.499,16.432 24.121,33.452 31.809,49.59 0,0.587 0.587,1.174 1.173,1.761 25.001,43.429 40.319,95.192 30.166,139.442 -54.579,104.522 -89.088,-22.184 -156.52,11.21 -67.432,33.334 -18.662,104.17 -18.662,104.17 l 222.719,292.852 307.582,-234.106 c 22.301,-10.388 65.906,-22.536 90.086,26.292 33.334,67.491 -93.314,101.941 11.15,156.521 44.251,10.152 96.072,-5.283 139.442,-30.108 0.587,0 1.174,-0.586 1.76,-1.173 16.081,-7.688 33.1,-18.311 49.533,-31.809 44.485,-36.503 84.217,-90.965 86.564,-144.665 -24.766,-115.263 -91.729,-2.348 -147.892,-52.467 -56.106,-50.119 9.742,-105.403 9.742,-105.403 l 294.553,-224.656 -234.282,-307.758 c -10.211,-22.712 -20.834,-64.849 27.055,-88.501 67.491,-33.393 101.882,93.196 156.463,-11.327 10.151,-44.192 -5.283,-95.896 -30.049,-139.324 0,-0.587 -0.587,-1.174 -1.174,-1.761 -7.688,-16.139 -18.31,-33.158 -31.809,-49.591 z"
         inkscape:connector-curvature="0" />
      <g
         transform="matrix(-0.15956273,-0.25341596,0.33242802,-0.19719192,-19307.001,11237.586)"
         id="_79162808-4-6-3-8"
         style="fill-rule:evenodd">
        <path
           sodipodi:nodetypes="cscccccccc"
           id="_79208600-31-68-5-4"
           class="fil2 str1"
           d="m 1231.7893,1752.3324 c 137.6136,-175.4984 274.7664,-439.302 512.0239,-240.0147 164.2938,138.0005 259.4418,488.5131 175.2148,678.8301 -31.009,70.077 -79.3992,135.265 -144.688,177.062 -45.5367,29.1563 -99.7324,38.5992 -151.819,53.1059 l -1.4871,-6.6832 c 91.9078,-46.902 167.68,-86.6402 220.45,-180.292 90.8845,-160.3021 0.6059,-387.4716 -137.01,-515.4825 -149.457,-209.774 -167.6754,-39.2323 -452.8734,57.7285 z"
           inkscape:connector-curvature="0"
           style="fill:#1f1a17;stroke:#1f1a17;stroke-width:2.34375" />
      </g>
      <g
         transform="matrix(0.16432326,0.26267454,-0.34234596,0.20439634,-17658.229,10754.694)"
         id="_79162808-4-6-3-8-7"
         style="fill-rule:evenodd">
        <path
           sodipodi:nodetypes="cscccccccc"
           id="_79208600-31-68-5-4-2"
           class="fil2 str1"
           d="m 1231.7893,1752.3324 c 137.6136,-175.4984 274.7664,-439.302 512.0239,-240.0147 164.2938,138.0005 259.4418,488.5131 175.2148,678.8301 -31.009,70.077 -79.3992,135.265 -144.688,177.062 -45.5367,29.1563 -99.7324,38.5992 -151.819,53.1059 l -1.4871,-6.6832 c 91.9078,-46.902 167.68,-86.6402 220.45,-180.292 90.8845,-160.3021 0.6059,-387.4716 -137.01,-515.4825 -149.457,-209.774 -167.6754,-39.2323 -452.8734,57.7285 z"
           inkscape:connector-curvature="0"
           style="fill:#1f1a17;stroke:#1f1a17;stroke-width:2.34375" />
      </g>
      <g
         transform="matrix(0.23308794,-0.18801576,0.23459889,0.30717488,-18765.025,10277.984)"
         id="_79162808-4-6-3-8-7-7"
         style="fill-rule:evenodd">
        <path
           sodipodi:nodetypes="cscccccccc"
           id="_79208600-31-68-5-4-2-2"
           class="fil2 str1"
           d="m 1231.7893,1752.3324 c 137.6136,-175.4984 274.7664,-439.302 512.0239,-240.0147 164.2938,138.0005 259.4418,488.5131 175.2148,678.8301 -31.009,70.077 -79.3992,135.265 -144.688,177.062 -45.5367,29.1563 -99.7324,38.5992 -151.819,53.1059 l -1.4871,-6.6832 c 91.9078,-46.902 167.68,-86.6402 220.45,-180.292 90.8845,-160.3021 0.6059,-387.4716 -137.01,-515.4825 -149.457,-209.774 -167.6754,-39.2323 -452.8734,57.7285 z"
           inkscape:connector-curvature="0"
           style="fill:#1f1a17;stroke:#1f1a17;stroke-width:2.34375" />
      </g>
      <path
         sodipodi:nodetypes="sscsccsscssscccss"
         inkscape:connector-curvature="0"
         id="path12525"
         d="m -17925.2,10877.336 c 0.165,0.274 5.282,6.05 14.157,17.557 8.874,11.507 21.597,28.279 37.252,49.118 15.655,20.839 34.241,45.743 54.848,73.48 20.606,27.737 45.333,49.901 69.07,82.035 4.755,17.178 -3.713,17.138 -17.647,26.083 -31.801,25.373 -51.646,35.884 -79.292,57.82 -27.646,21.934 -52.588,41.637 -73.575,58.11 -20.988,16.472 -38.022,29.716 -49.858,38.77 -11.837,9.053 -18.476,13.917 -18.677,13.663 -0.2,-0.254 -68.024,44.789 -0.179,-13.629 11.242,-9.679 24.851,-18.903 45.537,-35.422 20.686,-16.519 45.288,-41.424 72.727,-63.098 117.62,-97.907 114.376,-71.753 18.445,-161.794 -20.472,-27.424 -25.009,-51.573 -40.362,-72.374 -15.353,-20.801 -20.662,-45.94 -32.181,-54.689 -16.845,-12.796 -41.492,-83.723 -0.265,-15.63 z"
         style="fill:#000000;stroke:none" />
      <path
         sodipodi:nodetypes="sscsccsscssscccss"
         inkscape:connector-curvature="0"
         id="path12525-8"
         d="m -19009.987,10731.311 c -0.229,0.224 -6.628,4.538 -18.098,13.46 -11.469,8.923 -27.982,21.982 -48.349,38.244 -20.368,16.263 -44.591,35.73 -71.477,57.434 -26.887,21.704 -56.37,36.981 -87.388,62.16 -8.898,15.444 -0.69,17.523 10.566,29.666 24.448,32.519 41.034,47.658 62.318,75.809 21.283,28.15 40.506,53.462 56.709,74.659 16.203,21.197 29.385,38.279 38.581,50.005 9.197,11.725 14.409,18.095 14.667,17.899 0.258,-0.196 54.667,60.373 3.582,-13.152 -8.465,-12.182 -19.336,-24.516 -35.235,-45.682 -15.899,-21.166 -33.492,-51.431 -54.641,-79.277 -89.406,-124.206 -92.804,-98.071 22.593,-161.267 26.678,-21.435 37.108,-43.683 57.174,-59.984 20.066,-16.302 31.493,-39.315 44.833,-44.907 19.509,-8.178 61.107,-70.69 4.165,-15.067 z"
         style="fill:#000000;fill-rule:evenodd;stroke:none" />
      <g
         transform="matrix(0.5227514,0,0,0.5227514,-8427.6067,3774.3863)"
         id="g4255">
        <path
           inkscape:connector-curvature="0"
           d="m -22191.236,13481.22 c -113.183,34.774 -231.2,107.544 -277.655,207.839 -42.695,238.718 172.796,76.126 240.599,215.222 67.802,139.231 -100.697,193.07 -100.697,193.07 l -735.222,196.963 199.783,745.828 c 4.028,24.168 23.764,164.741 -117.883,174.676 -154.402,10.741 -121.239,-256.71 -306.655,-100.428 -53.705,76.261 -65.118,186.49 -51.423,288.664 0,1.343 0,2.685 0,5.371 1.343,36.653 9.398,77.335 21.885,119.09 34.908,113.184 107.544,231.201 207.972,277.655 238.585,42.696 75.993,-172.796 215.089,-240.598 139.23,-67.803 193.07,100.697 193.07,100.697 l 201.393,733.879 764.223,-204.751 c 49.006,-2.685 148.226,4.028 156.416,120.3 10.741,154.402 -256.845,121.239 -100.563,306.521 76.395,53.839 186.625,65.117 288.664,51.423 1.343,0 2.686,0 5.371,0 36.519,-1.343 77.201,-9.399 119.091,-21.885 113.183,-34.774 231.2,-107.544 277.52,-207.839 42.696,-238.718 -172.795,-75.992 -240.464,-215.222 -67.802,-139.231 100.697,-193.07 100.697,-193.07 l 730.388,-197.903 -205.69,-767.982 c -2.685,-50.617 8.056,-142.989 120.299,-150.911 154.402,-10.741 121.239,257.113 306.656,100.831 53.705,-76.395 64.983,-186.893 51.288,-288.933 0,-1.342 0,-2.685 0,-4.027 -1.342,-36.654 -9.398,-77.336 -21.75,-119.091 -34.909,-113.184 -107.545,-231.2 -207.973,-277.521 -238.719,-42.695 -75.993,172.796 -215.223,240.464 -136.679,66.594 -190.25,-93.044 -192.264,-98.817 0,0 0,-4.028 0,-4.028 0,0 0,5.371 0,6.713 l -198.306,-740.189 -768.384,205.959 c -51.154,1.342 -139.767,-10.741 -147.42,-120.568 -10.741,-154.402 256.844,-121.105 100.428,-306.521 -76.261,-53.84 -186.491,-65.118 -288.664,-51.423 -1.343,0 -2.686,0 -5.371,0 -36.654,1.343 -77.335,9.398 -119.091,21.885 z"
           id="path1532"
           sodipodi:nodetypes="ccccccccccccccccccccccccccccccccccccccccccc"
           style="fill:#b8db7c;fill-opacity:1;stroke:#737373;stroke-width:30;stroke-miterlimit:4;stroke-opacity:1;stroke-dasharray:none;display:inline" />
        <g
           style="fill-rule:evenodd"
           id="_79162808-4-6-3-8-7-9"
           transform="matrix(0.62781233,0.01104261,-0.03029766,0.84857995,-21241.549,13009.763)">
          <path
             style="fill:#1f1a17;stroke:#1f1a17;stroke-width:2.34375"
             inkscape:connector-curvature="0"
             d="m 1231.7893,1752.3324 c 6.9066,-66.9331 -73.0268,-423.7151 472.9023,-170.358 236.1046,109.5724 298.5634,418.8564 214.3364,609.1734 -31.009,70.077 -79.3992,135.265 -144.688,177.062 -45.5367,29.1563 -99.7324,38.5992 -151.819,53.1059 l -1.4871,-6.6832 c 91.9078,-46.902 167.68,-86.6402 220.45,-180.292 36.1003,-565.3335 -237.7095,-669.7648 -434.2933,-492.9119 -75.1608,67.617 -216.4881,85.1431 -288.1161,106.03 z"
             class="fil2 str1"
             id="_79208600-31-68-5-4-2-6"
             sodipodi:nodetypes="cscccccscc" />
        </g>
        <path
           style="fill:#000000;fill-rule:evenodd;stroke:none"
           d="m -22458.523,14142.232 c -0.641,0.233 -16.844,2.978 -46.937,10.207 -30.092,7.229 -73.603,18.05 -127.407,31.699 -53.805,13.649 -117.905,30.125 -189.139,48.6 -71.234,18.474 -141.858,22.202 -224.16,43.788 -30.834,22.139 -16.737,33.385 -5.574,66.835 18.848,84.572 37.719,128.518 54.268,201.835 16.55,73.316 31.596,139.315 44.4,194.676 12.802,55.362 23.362,100.085 30.898,130.914 7.537,30.83 12.05,47.768 12.723,47.614 0.672,-0.152 52.99,165.167 18.506,-22.365 -5.715,-31.074 -15.964,-64.553 -28.207,-119.588 -12.24,-55.035 -19.772,-129.211 -36.327,-201.817 -64.285,-319.53 -93.845,-271.815 185.561,-292.995 70.592,-18.137 110.379,-52.131 163.633,-66.119 53.256,-13.99 95.647,-48.592 126.441,-47.716 45.035,1.282 180.672,-83.43 21.321,-25.568 z"
           id="path12525-8-8"
           inkscape:connector-curvature="0"
           sodipodi:nodetypes="sscsccsscssscccss" />
        <g
           style="fill-rule:evenodd"
           id="_79162808-4-6-3-8-7-97"
           transform="matrix(0.19556577,0.63023407,0.80562579,-0.26845643,-23232.355,15979.105)">
          <path
             style="fill:#1f1a17;stroke:#1f1a17;stroke-width:2.34375"
             inkscape:connector-curvature="0"
             d="m 1231.7893,1752.3324 c 137.6136,-175.4984 274.7664,-439.302 512.0239,-240.0147 164.2938,138.0005 259.4418,488.5131 175.2148,678.8301 -31.009,70.077 -79.3992,135.265 -144.688,177.062 -45.5367,29.1563 -99.7324,38.5992 -151.819,53.1059 l -1.4871,-6.6832 c 91.9078,-46.902 167.68,-86.6402 220.45,-180.292 90.8845,-160.3021 0.6059,-387.4716 -137.01,-515.4825 -149.457,-209.774 -167.6754,-39.2323 -452.8734,57.7285 z"
             class="fil2 str1"
             id="_79208600-31-68-5-4-2-5"
             sodipodi:nodetypes="cscccccccc" />
        </g>
        <path
           style="fill:#000000;fill-rule:evenodd;stroke:none"
           d="m -20986.271,16003.437 c 0.641,-0.231 16.851,-2.939 46.961,-10.099 30.108,-7.158 73.644,-17.878 127.479,-31.404 53.837,-13.524 117.975,-29.851 189.251,-48.162 71.277,-18.309 141.909,-21.874 224.26,-43.269 30.886,-22.068 16.815,-33.347 5.729,-66.822 -18.652,-84.616 -37.421,-128.605 -53.801,-201.96 -16.38,-73.355 -31.273,-139.389 -43.949,-194.778 -12.675,-55.392 -23.131,-100.14 -30.595,-130.985 -7.466,-30.848 -11.94,-47.797 -12.614,-47.644 -0.672,0.151 -52.608,-165.289 -18.557,22.322 5.643,31.088 15.814,64.59 27.93,119.653 12.113,55.063 19.473,129.257 35.861,201.9 63.546,319.679 93.216,272.031 -186.238,292.565 -70.635,17.974 -110.499,51.876 -163.786,65.741 -53.289,13.867 -95.759,48.371 -126.55,47.424 -45.033,-1.386 -180.865,83.012 -21.381,25.518 z"
           id="path12525-8-8-2"
           inkscape:connector-curvature="0"
           sodipodi:nodetypes="sscsccsscssscccss" />
      </g>
    </g>
  </g>
</svg>
