<?xml version="1.0" encoding="UTF-8" standalone="no"?>
<!-- Created with Inkscape (http://www.inkscape.org/) -->

<svg
   xmlns:dc="http://purl.org/dc/elements/1.1/"
   xmlns:cc="http://creativecommons.org/ns#"
   xmlns:rdf="http://www.w3.org/1999/02/22-rdf-syntax-ns#"
   xmlns:svg="http://www.w3.org/2000/svg"
   xmlns="http://www.w3.org/2000/svg"
   xmlns:sodipodi="http://sodipodi.sourceforge.net/DTD/sodipodi-0.dtd"
   xmlns:inkscape="http://www.inkscape.org/namespaces/inkscape"
   width="256"
   height="256"
   id="svg4631"
   version="1.1"
   inkscape:version="0.48.3.1 r9886"
   sodipodi:docname="applications-electronics.svg">
  <defs
     id="defs4633" />
  <sodipodi:namedview
     id="base"
     pagecolor="#ffffff"
     bordercolor="#666666"
     borderopacity="1.0"
     inkscape:pageopacity="0.0"
     inkscape:pageshadow="2"
     inkscape:zoom="1.3851647"
     inkscape:cx="138.76833"
     inkscape:cy="111.52546"
     inkscape:document-units="px"
     inkscape:current-layer="layer1"
     showgrid="false"
     inkscape:window-width="1438"
     inkscape:window-height="827"
     inkscape:window-x="0"
     inkscape:window-y="25"
     inkscape:window-maximized="1"
     showguides="true"
     inkscape:guide-bbox="true" />
  <metadata
     id="metadata4636">
    <rdf:RDF>
      <cc:Work
         rdf:about="">
        <dc:format>image/svg+xml</dc:format>
        <dc:type
           rdf:resource="http://purl.org/dc/dcmitype/StillImage" />
        <dc:title></dc:title>
      </cc:Work>
    </rdf:RDF>
  </metadata>
  <g
     inkscape:label="Capa 1"
     inkscape:groupmode="layer"
     id="layer1"
     transform="translate(0,-796.36218)">
    <g
       style="fill-rule:evenodd"
       id="g5134"
       transform="matrix(0.15681121,0,0,0.15681121,-950.47012,-367.87177)">
      <circle
         style="fill:#00923f;fill-opacity:1;fill-rule:nonzero;stroke:#72706f;stroke-width:3.51563001"
         r="57.894501"
         transform="matrix(13.004652,-0.20312445,0.20312445,13.004652,6883.1222,8257.7446)"
         class="fil0 str0"
         id="_67621792-4-0-3-9"
         cx="0"
         cy="0"
         sodipodi:cx="0"
         sodipodi:cy="0"
         sodipodi:rx="57.894501"
         sodipodi:ry="57.894501"
         d="M 57.894501,0 C 57.894501,31.97425 31.97425,57.894501 0,57.894501 -31.97425,57.894501 -57.894501,31.97425 -57.894501,0 c 0,-31.97425 25.920251,-57.894501 57.894501,-57.894501 31.97425,0 57.894501,25.920251 57.894501,57.894501 z" />
      <path
         inkscape:connector-curvature="0"
         id="_67468136-3-3-3-1"
         class="fil2"
         d="m 7211.0866,7568.5251 c -109.5919,-42.73 -203.1151,-84.6264 -322.8878,-85.863 -427.3186,-4.4231 -780.101,436.5955 -751.2691,863.8499 16.7252,247.8821 158.1268,445.2582 369.4536,560.7009 213.8544,116.8162 456.4766,139.1245 679.8816,40.3124 75.0686,-33.206 123.7278,-77.5019 181.9554,-133.4927 l 3.4675,2.3993 c -32.2001,37.1896 -62.059,77.0169 -102.0277,105.0299 -401.9737,281.6373 -1055.8814,41.6219 -1166.3651,-454.8195 -83.8476,-376.7036 138.3155,-783.6267 472.971,-941.4067 130.6007,-61.5675 280.0901,-85.5242 421.3324,-52.3182 76.0265,17.8668 143.6188,59.8825 213.4907,95.6069 z"
         style="fill:#1f1a17;fill-opacity:1;fill-rule:evenodd" />
      <g
         id="g4939"
         transform="matrix(-3.0908686,-0.03237785,0.07494012,-4.8641514,8008.0427,7851.9066)"
         style="fill-rule:evenodd">
        <path
           inkscape:connector-curvature="0"
           id="rect11194-1-5-0-2-7"
           d="m 352.24909,-1.1129924 44.56452,-0.6 -5.08524,-76.5593996 120.08485,-0.2866 0.32071,-28.318398 -122.29084,0.2968 -5.42805,-81.7289 -44.54873,0.5994 5.38692,81.2308 -126.97367,0.3071 -0.32816,28.323798 129.18807,-0.3126 5.10962,77.0479996 z"
           style="fill:#b8db7c;fill-opacity:1;fill-rule:evenodd;stroke:#72706f;stroke-width:4.48276377" />
        <g
           id="_81071816-4-7-3-2-55"
           style="fill-rule:evenodd"
           transform="matrix(-1,0,0,-1,562.20542,155.12711)">
          <path
             sodipodi:nodetypes="ccccccscccc"
             id="_81851448-2-5-6-2-19"
             class="fil1 str1"
             d="m 67.504541,234.14527 c -10.787269,0.4087 -15.971381,-0.9565 -17.777641,3.11417 -1.563725,10.00963 0.174441,21.83736 8.548473,23.61075 50.943437,1.20416 60.608667,-1.80269 112.320657,-0.18197 l 0.47096,0.39716 c -41.31516,-0.45217 -91.91526,2.70446 -91.91526,2.70446 -4.1716,-0.45049 -8.052946,0.0392 -11.28232,0.0364 -13.544945,-0.0115 -19.060839,2.01145 -20.872965,-3.20321 -3.022259,-11.18618 -3.73704,-22.86538 2.74336,-27.92838 3.489669,-2.46187 22.170705,0.89124 30.772387,1.35516 z"
             inkscape:connector-curvature="0"
             style="fill:#1f1a17;fill-rule:nonzero;stroke:#1f1a17;stroke-width:2.76821995" />
        </g>
        <path
           class="fil2"
           d="m 443.20857,-85.207992 c 15.90758,-2.3239 12.25687,-16.166398 9.54403,-23.241998 -4.71256,-12.3032 -46.88407,-10.8472 -61.72983,-10.8472 -29.69391,-1e-4 -62.34527,0 -92.03928,-0.7737"
           id="path11198-0-2-5-1-6"
           inkscape:connector-curvature="0"
           style="fill:none" />
        <g
           id="_81071816-4-7-3-2-5-3"
           style="fill-rule:evenodd"
           transform="matrix(-0.0383824,-0.63504993,1.5729553,-0.02852692,-13.387051,37.558208)">
          <path
             sodipodi:nodetypes="ccccccscccc"
             id="_81851448-2-5-6-2-1-1"
             class="fil1 str1"
             d="m 67.504541,234.14527 c -10.787269,0.4087 -15.971381,-0.9565 -17.777641,3.11417 -1.563725,10.00963 0.174441,21.83736 8.548473,23.61075 50.943437,1.20416 57.720267,-0.65014 109.432257,0.97058 l -1.63914,0.44109 -86.91676,1.50798 c -4.1716,-0.45049 -8.052946,0.0392 -11.28232,0.0364 -13.544945,-0.0115 -19.060839,2.01145 -20.872965,-3.20321 -3.022259,-11.18618 -3.73704,-22.86538 2.74336,-27.92838 3.489669,-2.46187 22.170705,0.89124 30.772387,1.35516 z"
             inkscape:connector-curvature="0"
             style="fill:#1f1a17;fill-rule:nonzero;stroke:#1f1a17;stroke-width:2.76821995" />
        </g>
        <path
           class="fil2"
           d="m 360.08187,-44.866692 c 4.26599,10.0358 25.89952,7.3225 36.92493,5.3979 19.17163,-3.3437 15.26278,-30.0832 14.693,-39.511 -1.13974,-18.8571 -2.39294,-39.592298 -2.31573,-58.471598"
           id="path11198-0-2-5-1-2-5"
           inkscape:connector-curvature="0"
           style="fill:none" />
        <g
           id="_81071816-4-7-3-2-9-9"
           style="fill-rule:evenodd"
           transform="translate(169.97094,-338.86069)">
          <path
             sodipodi:nodetypes="ccccccscccc"
             id="_81851448-2-5-6-2-7-8"
             class="fil1 str1"
             d="m 67.504541,234.14527 c -10.787269,0.4087 -15.971381,-0.9565 -17.777641,3.11417 -1.563725,10.00963 0.174441,21.83736 8.548473,23.61075 50.943437,1.20416 60.608667,-1.80269 112.320657,-0.18197 l 0.47096,0.39716 c -41.31516,-0.45217 -91.91526,2.70446 -91.91526,2.70446 -4.1716,-0.45049 -8.052946,0.0392 -11.28232,0.0364 -13.544945,-0.0115 -19.060839,2.01145 -20.872965,-3.20321 -3.022259,-11.18618 -3.73704,-22.86538 2.74336,-27.92838 3.489669,-2.46187 22.170705,0.89124 30.772387,1.35516 z"
             inkscape:connector-curvature="0"
             style="fill:#1f1a17;fill-rule:nonzero;stroke:#1f1a17;stroke-width:2.76821995" />
        </g>
        <g
           id="_81071816-4-7-3-2-54-3"
           style="fill-rule:evenodd"
           transform="matrix(0.00493051,0.63540558,-1.5738362,-0.00493051,754.12725,-217.49919)">
          <path
             sodipodi:nodetypes="ccccccscccc"
             id="_81851448-2-5-6-2-78-3"
             class="fil1 str1"
             d="m 67.504541,234.14527 c -10.787269,0.4087 -15.971381,-0.9565 -17.777641,3.11417 -1.563725,10.00963 0.174441,21.83736 8.548473,23.61075 50.943437,1.20416 60.608667,-1.80269 112.320657,-0.18197 l 0.47096,0.39716 c -41.31516,-0.45217 -91.91526,2.70446 -91.91526,2.70446 -4.1716,-0.45049 -8.052946,0.0392 -11.28232,0.0364 -13.544945,-0.0115 -19.060839,2.01145 -20.872965,-3.20321 -3.022259,-11.18618 -3.73704,-22.86538 2.74336,-27.92838 3.489669,-2.46187 22.170705,0.89124 30.772387,1.35516 z"
             inkscape:connector-curvature="0"
             style="fill:#1f1a17;fill-rule:nonzero;stroke:#1f1a17;stroke-width:2.76821995" />
        </g>
      </g>
      <path
         style="fill:#b8db7c;fill-opacity:1;fill-rule:evenodd;stroke:#72706f;stroke-width:8.17828274"
         d="m 6368.0784,7747.0347 -46.2955,45.383 124.7432,123.2258 -126.823,120.061 43.8077,47.7723 129.1451,-122.275 133.1656,131.5468 46.2797,-45.3661 -132.3455,-130.7533 134.0921,-126.9553 -43.8081,-47.7887 -136.4304,129.1698 -125.5309,-124.0203 z"
         id="rect11194-1-5-0-2-74"
         inkscape:connector-curvature="0" />
      <g
         transform="matrix(1.0598323,-0.9958036,1.5589698,1.675689,5901.9862,7694.3)"
         style="fill-rule:evenodd"
         id="_81071816-4-7-3-2-4">
        <path
           style="fill:#1f1a17;fill-rule:nonzero;stroke:#1f1a17;stroke-width:2.76821995"
           inkscape:connector-curvature="0"
           d="m 67.504541,234.14527 c -10.787269,0.4087 -15.971381,-0.9565 -17.777641,3.11417 -1.563725,10.00963 0.174441,21.83736 8.548473,23.61075 50.943437,1.20416 60.608667,-1.80269 112.320657,-0.18197 l 0.47096,0.39716 c -41.31516,-0.45217 -91.91526,2.70446 -91.91526,2.70446 -4.1716,-0.45049 -8.052946,0.0392 -11.28232,0.0364 -13.544945,-0.0115 -19.060839,2.01145 -20.872965,-3.20321 -3.022259,-11.18618 -3.73704,-22.86538 2.74336,-27.92838 3.489669,-2.46187 22.170705,0.89124 30.772387,1.35516 z"
           class="fil1 str1"
           id="_81851448-2-5-6-2-2"
           sodipodi:nodetypes="ccccccscccc" />
      </g>
      <path
         style="fill:none"
         inkscape:connector-curvature="0"
         id="path11198-0-2-5-1-9"
         d="m 6402.7781,7978.5295 c -13.2365,19.7348 12.2126,39.2951 26.1185,48.4501 24.175,15.9239 66.5999,-28.5105 82.3339,-43.2939 31.4705,-29.5693 66.0755,-62.0836 98.7524,-90.3566"
         class="fil2" />
      <g
         transform="matrix(1.0307025,1.0259249,-1.6225963,1.6141568,6695.3041,7318.1318)"
         style="fill-rule:evenodd"
         id="_81071816-4-7-3-2-5-1">
        <path
           style="fill:#1f1a17;fill-rule:nonzero;stroke:#1f1a17;stroke-width:2.76821995"
           inkscape:connector-curvature="0"
           d="m 67.504541,234.14527 c -10.787269,0.4087 -15.971381,-0.9565 -17.777641,3.11417 -1.563725,10.00963 0.174441,21.83736 8.548473,23.61075 50.943437,1.20416 57.720267,-0.65014 109.432257,0.97058 l -1.63914,0.44109 -86.91676,1.50798 c -4.1716,-0.45049 -8.052946,0.0392 -11.28232,0.0364 -13.544945,-0.0115 -19.060839,2.01145 -20.872965,-3.20321 -3.022259,-11.18618 -3.73704,-22.86538 2.74336,-27.92838 3.489669,-2.46187 22.170705,0.89124 30.772387,1.35516 z"
           class="fil1 str1"
           id="_81851448-2-5-6-2-1-3"
           sodipodi:nodetypes="ccccccscccc" />
      </g>
      <path
         style="fill:none"
         inkscape:connector-curvature="0"
         id="path11198-0-2-5-1-2-3"
         d="m 6427.9876,7828.1522 c -20.1667,-12.5688 -38.8648,13.5205 -47.5494,27.7248 -15.1059,24.6942 30.7227,65.6086 46.0244,80.8395 30.6056,30.4637 64.2594,63.9615 93.6097,95.6742"
         class="fil2" />
      <g
         transform="matrix(-1.0598323,0.9958036,-1.5589698,-1.675689,7087.8011,8131.4815)"
         style="fill-rule:evenodd"
         id="_81071816-4-7-3-2-9-7">
        <path
           style="fill:#1f1a17;fill-rule:nonzero;stroke:#1f1a17;stroke-width:2.76821995"
           inkscape:connector-curvature="0"
           d="m 67.504541,234.14527 c -10.787269,0.4087 -15.971381,-0.9565 -17.777641,3.11417 -1.563725,10.00963 0.174441,21.83736 8.548473,23.61075 50.943437,1.20416 60.608667,-1.80269 112.320657,-0.18197 l 0.47096,0.39716 c -41.31516,-0.45217 -91.91526,2.70446 -91.91526,2.70446 -4.1716,-0.45049 -8.052946,0.0392 -11.28232,0.0364 -13.544945,-0.0115 -19.060839,2.01145 -20.872965,-3.20321 -3.022259,-11.18618 -3.73704,-22.86538 2.74336,-27.92838 3.489669,-2.46187 22.170705,0.89124 30.772387,1.35516 z"
           class="fil1 str1"
           id="_81851448-2-5-6-2-7-67"
           sodipodi:nodetypes="ccccccscccc" />
      </g>
      <g
         transform="matrix(-0.9958036,-1.0598323,1.675689,-1.5589698,6279.4943,8509.8222)"
         style="fill-rule:evenodd"
         id="_81071816-4-7-3-2-54-5">
        <path
           style="fill:#1f1a17;fill-rule:nonzero;stroke:#1f1a17;stroke-width:2.76821995"
           inkscape:connector-curvature="0"
           d="m 67.504541,234.14527 c -10.787269,0.4087 -15.971381,-0.9565 -17.777641,3.11417 -1.563725,10.00963 0.174441,21.83736 8.548473,23.61075 50.943437,1.20416 60.608667,-1.80269 112.320657,-0.18197 l 0.47096,0.39716 c -41.31516,-0.45217 -91.91526,2.70446 -91.91526,2.70446 -4.1716,-0.45049 -8.052946,0.0392 -11.28232,0.0364 -13.544945,-0.0115 -19.060839,2.01145 -20.872965,-3.20321 -3.022259,-11.18618 -3.73704,-22.86538 2.74336,-27.92838 3.489669,-2.46187 22.170705,0.89124 30.772387,1.35516 z"
           class="fil1 str1"
           id="_81851448-2-5-6-2-78-2"
           sodipodi:nodetypes="ccccccscccc" />
      </g>
      <rect
         transform="matrix(-0.99999916,-0.00129769,0.0017575,-0.99999846,0,0)"
         class="fil0 str0"
         x="-7458.7012"
         y="-8607.667"
         width="353.56638"
         height="75.697739"
         rx="36.076138"
         ry="0"
         id="rect11194-1-5-0-6"
         style="fill:#b8db7c;fill-opacity:1;fill-rule:evenodd;stroke:#72706f;stroke-width:8.0394783" />
      <g
         id="_81071816-4-7-3-0"
         style="fill-rule:evenodd"
         transform="matrix(-1.6868359,-0.002189,0.00469844,-2.6733642,7526.9348,9242.1751)">
        <path
           sodipodi:nodetypes="ccccccscccc"
           id="_81851448-2-5-6-9"
           class="fil1 str1"
           d="m 67.504541,234.14527 c -10.787269,0.4087 -15.971381,-0.9565 -17.777641,3.11417 -1.563725,10.00963 0.174441,21.83736 8.548473,23.61075 50.943437,1.20416 101.024587,-0.006 152.736577,1.61472 l -0.13967,-0.56411 -131.72055,1.86904 c -4.1716,-0.45049 -8.052946,0.0392 -11.28232,0.0364 -13.544945,-0.0115 -19.060839,2.01145 -20.872965,-3.20321 -3.022259,-11.18618 -3.73704,-22.86538 2.74336,-27.92838 3.489669,-2.46187 22.170705,0.89124 30.772387,1.35516 z"
           inkscape:connector-curvature="0"
           style="fill:#1f1a17;fill-rule:nonzero;stroke:#1f1a17;stroke-width:2.76821995" />
      </g>
      <path
         class="fil2"
         d="m 7278.1557,8599.0739 c 21.2818,-6.1445 16.4513,-42.959 12.8499,-61.7784 -6.2564,-32.7241 -62.6575,-28.9444 -82.5105,-28.9767 -39.7095,-0.065 -83.3738,-0.1357 -123.0805,-2.2576"
         id="path11198-0-2-5-7"
         inkscape:connector-curvature="0"
         style="fill:none" />
    </g>
  </g>
</svg>
