<?xml version="1.0" encoding="UTF-8" standalone="no"?>
<!-- Created with Inkscape (http://www.inkscape.org/) -->

<svg
   xmlns:dc="http://purl.org/dc/elements/1.1/"
   xmlns:cc="http://creativecommons.org/ns#"
   xmlns:rdf="http://www.w3.org/1999/02/22-rdf-syntax-ns#"
   xmlns:svg="http://www.w3.org/2000/svg"
   xmlns="http://www.w3.org/2000/svg"
   xmlns:sodipodi="http://sodipodi.sourceforge.net/DTD/sodipodi-0.dtd"
   xmlns:inkscape="http://www.inkscape.org/namespaces/inkscape"
   width="256"
   height="256"
   id="svg5274"
   version="1.1"
   inkscape:version="0.48.3.1 r9886"
   sodipodi:docname="applications-interfacedesign.svg">
  <defs
     id="defs5276" />
  <sodipodi:namedview
     id="base"
     pagecolor="#ffffff"
     bordercolor="#666666"
     borderopacity="1.0"
     inkscape:pageopacity="0.0"
     inkscape:pageshadow="2"
     inkscape:zoom="1.3152639"
     inkscape:cx="216.73734"
     inkscape:cy="72.548062"
     inkscape:document-units="px"
     inkscape:current-layer="layer1"
     showgrid="false"
     inkscape:window-width="1438"
     inkscape:window-height="827"
     inkscape:window-x="0"
     inkscape:window-y="25"
     inkscape:window-maximized="1" />
  <metadata
     id="metadata5279">
    <rdf:RDF>
      <cc:Work
         rdf:about="">
        <dc:format>image/svg+xml</dc:format>
        <dc:type
           rdf:resource="http://purl.org/dc/dcmitype/StillImage" />
        <dc:title></dc:title>
      </cc:Work>
    </rdf:RDF>
  </metadata>
  <g
     inkscape:label="Capa 1"
     inkscape:groupmode="layer"
     id="layer1"
     transform="translate(0,-796.36218)">
    <g
       transform="matrix(0.16030247,0,0,0.16030247,6187.5412,-1141.7309)"
       style="fill-rule:evenodd"
       id="g6284">
      <rect
         style="fill:#b8db7c;fill-rule:evenodd;stroke:#72706f;stroke-width:43.16974258"
         y="-38552.699"
         x="-13437.099"
         class="fil3 str0"
         transform="matrix(-0.00430507,-0.99999073,0.99998792,-0.00491528,0,0)"
         width="1462.0826"
         height="1407.7778"
         rx="232.07611"
         ry="343.16165"
         id="rect7046-0-2-9-1-0" />
      <path
         sodipodi:nodetypes="cccccccccc"
         d="m -37989.33,12159.22 391.882,-20.512 c 174.166,3.87 434.079,-2.041 489.015,143.647 18.613,49.371 28.307,100.213 29.358,151.207 l -12.176,504.379 -4.58,0.06 c -56.613,-200.406 -40.584,-450.344 -178.688,-601.15 -73.802,-79.097 -265.633,-136.606 -374.318,-159.742 l -340.493,-17.887 z"
         class="fil1 str1"
         id="_80379776-7-7-5-7-9"
         inkscape:connector-curvature="0"
         style="fill:#1f1a17;fill-rule:evenodd;stroke:#1f1a17;stroke-width:17.35302544" />
      <path
         style="fill:none"
         inkscape:connector-curvature="0"
         class="fil2"
         d="m -37989.329,12159.23 c 121.752,-20.162 667.543,-9.877 758.928,35.771 84.732,42.321 120.95,129.077 123.794,238.91 l 13.067,504.062"
         id="path7050-7-1-0-9-3" />
      <path
         style="fill:none"
         inkscape:connector-curvature="0"
         class="fil2"
         d="m -38498.048,12978.323 c 0,88.718 -15.751,193.803 -8.685,282.277 22.059,276.234 130.107,373.939 426.151,354.852 57.046,-3.673 365.256,8.06 430.485,8.06"
         id="path7054-6-7-2-3-9" />
      <path
         inkscape:connector-curvature="0"
         id="path4552-0-2"
         d="m -38115.079,12260.705 c -41.134,-0.07 -68.593,6.375 -68.593,6.375 l 26.781,126.75 c 0,0 69.578,-12.344 130.812,13.813 -7.622,-2.99 8.373,7.71 20.781,27 14.534,22.593 33.064,55.993 53.407,95.906 26.341,51.683 55.997,114.5 87,181.906 l -314.781,709.969 118.468,52.5 268.063,-604.594 c 42.691,94.512 85.385,188.998 124.25,269.562 44.999,93.283 79.528,163.854 119.531,209.188 60.814,68.92 122.746,101.872 171.562,114.969 48.818,13.097 91,5 91,5 l -29.124,-126.25 c 0,0 -4.094,2.614 -28.282,-3.875 -24.187,-6.489 -61.973,-23.401 -108,-75.563 -13.417,-15.206 -56.275,-89.109 -100,-179.75 -43.725,-90.64 -93.65,-202.049 -143.094,-311.375 -49.442,-109.325 -98.326,-216.467 -141.156,-300.5 -21.415,-42.016 -41.199,-78.154 -59.875,-107.187 -18.676,-29.033 -27.254,-51.852 -68.125,-71.25 -54.687,-25.959 -109.49,-32.527 -150.625,-32.594 z"
         style="font-size:medium;font-style:normal;font-variant:normal;font-weight:normal;font-stretch:normal;text-indent:0;text-align:start;text-decoration:none;line-height:normal;letter-spacing:normal;word-spacing:normal;text-transform:none;direction:ltr;block-progression:tb;writing-mode:lr-tb;text-anchor:start;baseline-shift:baseline;color:#000000;fill:#00923f;fill-opacity:1;fill-rule:evenodd;stroke:#737373;stroke-width:30;stroke-miterlimit:4;stroke-opacity:1;stroke-dasharray:none;marker:none;visibility:visible;display:inline;overflow:visible;enable-background:accumulate;font-family:Sans;-inkscape-font-specification:Sans" />
      <path
         sodipodi:nodetypes="cccccccccccscccccccccccccccccc"
         inkscape:connector-curvature="0"
         id="path5331-4-0-0-5-0-1"
         d="m -38165.157,12323.626 c -3.219,114.128 92.954,30.517 139.266,66.158 44.552,30.635 203.652,377.895 136.982,287.046 0,0 -17.572,-15.602 -28.889,-39.429 -1.033,-11.12 -12.34,-26.386 -19.823,-42.925 -7.484,-16.538 -15.769,-35.144 -24.684,-55.296 -7.837,-17.71 -16.122,-36.631 -24.948,-56.316 -2.827,-6.301 -5.698,-12.681 -8.71,-19.081 -1.028,-2.166 -2.059,-4.335 -3.126,-6.493 l 0,0 c -0.717,-1.419 -1.425,-2.821 -2.209,-4.166 l 0,-0.01 c 0,-0.01 0,-0.02 -0.02,-0.03 l 0,0 c -0.03,-0.06 -0.06,-0.118 -0.09,-0.176 l 0,0 c -0.09,-0.182 -0.174,-0.365 -0.269,-0.545 l 0,0 0,0 c -0.357,-0.682 -0.704,-1.37 -1.062,-2.055 -1.006,-1.942 -2.019,-3.889 -3.049,-5.836 -0.277,-0.515 -0.544,-1.033 -0.829,-1.543 -4.127,-7.732 -8.36,-15.293 -12.753,-22.634 -41.629,-26.069 -84.514,-20.217 -105.576,-15.427 -11.439,2.548 -22.373,4.023 -31.991,4.077 -27.251,3.024 -29.311,-15.304 -35.557,-36.203 -55.73,-187.067 46.295,-129.181 133.305,-126.262 22.741,6.154 126.155,48.635 95.183,46.62 -32.381,-9.574 -185.529,-47.474 -209.293,-24.939 z"
         style="fill:#000000;fill-rule:evenodd;stroke:none" />
      <path
         sodipodi:nodetypes="cccccccccccccccccsccccccccc"
         inkscape:connector-curvature="0"
         id="path5715-4-6"
         d="m -37284.337,13473.041 c -0.876,0.192 -17.676,-5.047 -22.097,-37.444 -15.092,-107.806 14.593,-73.01 -48.046,-97.465 -5.142,-1.887 -10.12,-4.341 -14.861,-7.131 l 0,0 c -133.884,-60.744 -157.502,-203.671 -200.782,-305.425 -5.509,-12.549 -11.938,-24.311 -16.487,-36.9 -0.681,-1.902 -0.928,-2.938 -0.714,-3.047 l 0,0 0,0 c 0,0 0,0 0,0 0,0 0,0 0,0 l 0,0 -37.234,-77.959 c 0.217,-0.104 35.796,65.884 36.891,67.579 7.1,11.639 16.557,35.447 22.127,45.662 12.073,22.152 28.672,55.321 48.931,91.682 8.59,15.416 17.819,31.831 27.714,48.937 9.895,17.107 20.456,34.904 31.756,53.058 7.004,11.25 14.277,22.627 21.974,33.938 2.175,3.194 4.364,6.356 6.57,9.48 7.984,11.292 16.042,22.102 24.906,31.64 21.842,21.57 59.067,38.208 81.322,37.28 6.855,-1.542 6.357,-1.387 16.817,-5.191 6.784,32.883 17.89,88.644 28.348,111.952 5.172,24.922 5.421,48.504 4.545,48.696 z"
         style="fill:#000000;fill-rule:evenodd;stroke:none" />
      <path
         sodipodi:nodetypes="ccsscccccscccccscccc"
         inkscape:connector-curvature="0"
         id="path5720-6-6"
         d="m -37792.538,12884.003 c 0.633,0.274 -3.296,10.988 -10.997,30.145 -7.701,19.156 -19.175,46.756 -33.589,80.785 -14.414,34.03 -27.911,68.704 -47.326,113.564 -19.415,44.861 -44.747,99.908 -67.359,151.524 -33.017,75.365 -54.247,151.161 -85.853,205.7 -23.272,52.448 -75.917,-7.989 -106.677,-23.794 -23.556,-12.101 -39.52,-20.213 -46.133,-23.574 l 0,0 c 2.804,-0.428 4.176,-0.202 4.176,0.04 0,0.239 -1.367,0.465 -3.86,0.04 l 0,0 c 6.873,3.382 22.929,-2.221 46.163,9.074 42.02,11.645 79.005,49.732 93.174,17.151 24.882,-56.287 53.652,-113.857 86.346,-190.146 22.03,-51.403 45.022,-102.239 64.305,-146.681 19.283,-44.442 32.928,-78.634 47.79,-112.165 14.862,-33.53 36.726,-64.47 45.402,-83.107 8.676,-18.636 13.805,-28.824 14.438,-28.55 z"
         style="fill:#000000;fill-rule:evenodd;stroke:none" />
      <rect
         style="fill:#b8db7c;fill-rule:evenodd;stroke:#72706f;stroke-width:43.16974258"
         y="-38552.699"
         x="-13437.099"
         class="fil3 str0"
         transform="matrix(-0.00430507,-0.99999073,0.99998792,-0.00491528,0,0)"
         width="1462.0826"
         height="1407.7778"
         rx="232.07611"
         ry="343.16165"
         id="rect7046-0-2-9-5-1" />
      <path
         sodipodi:nodetypes="cccccccccc"
         d="m -37989.33,12159.22 391.882,-20.512 c 174.166,3.87 434.079,-2.041 489.015,143.647 18.613,49.371 28.307,100.213 29.358,151.207 l -12.176,504.379 -4.58,0.06 c -56.613,-200.406 -40.584,-450.344 -178.688,-601.15 -73.802,-79.097 -265.633,-136.606 -374.318,-159.742 l -340.493,-17.887 z"
         class="fil1 str1"
         id="_80379776-7-7-5-5-8"
         inkscape:connector-curvature="0"
         style="fill:#1f1a17;fill-rule:evenodd;stroke:#1f1a17;stroke-width:17.35302544" />
      <path
         style="fill:none"
         inkscape:connector-curvature="0"
         class="fil2"
         d="m -37989.329,12159.23 c 121.752,-20.162 667.543,-9.877 758.928,35.771 84.732,42.321 120.95,129.077 123.794,238.91 l 13.067,504.062"
         id="path7050-7-1-0-8-5" />
      <circle
         style="fill:#b8db7c;fill-opacity:1;fill-rule:nonzero;stroke:#72706f;stroke-width:3.51563001"
         r="57.894501"
         transform="matrix(8.2808572,-0.12934176,0.12934176,8.2808572,-37814.963,12900.15)"
         class="fil0 str0"
         id="_67621792-4-2"
         cx="0"
         cy="0"
         sodipodi:cx="0"
         sodipodi:cy="0"
         sodipodi:rx="57.894501"
         sodipodi:ry="57.894501"
         d="M 57.894501,0 C 57.894501,31.97425 31.97425,57.894501 0,57.894501 -31.97425,57.894501 -57.894501,31.97425 -57.894501,0 c 0,-31.97425 25.920251,-57.894501 57.894501,-57.894501 31.97425,0 57.894501,25.920251 57.894501,57.894501 z" />
      <path
         style="fill:#00923f;fill-opacity:1;fill-rule:nonzero;stroke:#1f1a17;stroke-width:10.150877"
         d="m -38095.814,12562.918 -7.465,0.36 c 2.579,10.335 14.989,16.64 23.248,21.315 0,17.471 3.913,26.263 19.922,26.647 0,-25.835 -31.126,-57.888 -31.549,-78.156 11.094,7.949 6.705,9.189 11.807,21.123 1.454,3.41 11.048,13.801 14.821,19.747 l -1.716,8.866 c 7.761,0.688 33.381,39.449 33.63,40.913 l -2.081,17.7 c 8.885,14.192 26.413,18.525 41.512,26.641 10.091,5.425 11.152,7.297 26.57,7.105 12.05,-0.149 22.333,0.732 23.243,12.431 1.75,0.155 25.358,10.068 28.818,11.804 10.81,5.425 6.741,14.7 19.337,23.721 l 0,8.884 c 5.042,3.609 30.736,19.536 36.533,19.536 l 4.985,0 -1.345,-1.68 9.859,-9.008 1.444,1.804 c 2.73,10.924 6.642,18.494 6.642,33.752 l 0,1.773 c 0,6.336 -9.668,9.108 -9.964,23.088 -7.1,4.024 -12.259,11.991 -14.362,21.942 -0.673,3.192 -3.902,32.995 -3.902,33.119 0,4.755 2.4,5.258 4.985,7.105 -0.933,1.432 -3.321,4.39 -3.321,5.332 0,5.822 7.889,8.68 11.57,12.487 3.894,4.023 5.604,9.82 7.715,16.615 3.737,12.078 11.817,20.987 16.773,31.787 4.265,9.294 -0.475,9.728 7.193,17.174 4.178,4.061 8.219,7.272 12.932,11.035 5.622,4.495 21.457,19.486 27.787,20.987 l 0.712,53.318 c 0.875,1.346 3.384,4.483 1.762,5.208 l -1.762,44.528 c -0.25,3.59 -3.321,1.24 -3.321,7.105 0,9.696 3.321,9.839 3.321,19.536 l 0,10.657 c 0,6.169 -3.321,2.709 -3.321,8.884 l 0,1.773 c 0,5.413 0.76,6.498 1.663,10.658 -2.115,3.379 -5.43,6.603 -4.63,12.4 l 1.31,32.003 0,1.78 c 0,8.066 3.546,9.263 6.254,14.222 l 1.982,35.129 -11.558,2.157 0,5.326 c 0,0.651 10.196,15.481 11.54,17.707 l -6.56,12.486 c 3.72,17.081 18.026,47.516 36.532,47.956 l 0,-5.325 2.887,0.248 3.756,8.63 c -3.663,0.09 -8.306,-0.539 -8.306,3.552 0,4.985 11.581,14.211 13.285,14.211 8.77,0 15.87,-2.09 21.591,-5.326 -5.941,-9.492 -24.014,-22.195 -24.947,-33.653 l 5.454,1.581 -3.755,-21.216 c 3.663,-2.071 6.641,-1.55 6.641,-7.105 l 0,-10.658 c 5.014,-1.245 9.965,-1.022 9.965,-7.098 l 0,-1.78 c 0,-11.314 -8.132,-13.906 -14.949,-17.762 6.04,-9.641 14.572,-4.985 14.949,-23.089 5.106,-1.456 6.642,-3.453 6.642,-10.657 l -0.02,-7.043 -8.289,-1.841 0,-7.099 c 4.562,1.134 6.753,3.552 9.964,3.552 3.802,0 1.93,-0.607 6.642,-1.779 l 0,-5.326 c 0,-26.095 5.849,-14.619 15.963,-16.541 7.628,-1.457 18.907,-9.566 18.907,-18.984 l 0,-3.552 c 0,-7.763 -3.321,-6.448 -3.321,-14.211 l 0.09,-4.966 8.22,-2.139 0,5.332 4.978,0 c 11.726,0 13.986,-14.396 20.263,-24.508 5.275,-8.5 12.579,-20.459 18.397,-28.277 9.483,-12.741 0.139,-29.518 9.077,-38.247 3.154,-3.082 9.332,-5.748 13.279,-8.891 1.919,-1.537 11.912,-11.978 12.051,-11.978 4.255,0 4.011,0.428 7.036,2.375 l 14.548,-11.253 0,-8.885 c 19.163,-13.726 7.547,-29.647 16.607,-47.956 -1.251,-5.741 -3.321,-11.011 -3.321,-17.762 0,-17.062 28.228,-27.459 28.228,-69.271 l 0,-1.773 c 0,-3.981 -1.317,-3.9 -3.322,-7.105 -31.444,0 -17.168,-10.391 -28.326,-15.878 -0.272,-0.136 -36.504,-5.437 -38.348,-5.307 l -3.066,-9.008 c -6.027,-0.54 -17.736,-5.332 -18.27,-5.332 l -9.383,-0.385 -3.901,-6.721 -11.622,0 c 0.615,-1.369 1.798,-4.736 2.667,-6.026 1.39,-2.045 3.976,-1.866 3.976,-4.631 0,-5.995 -5.026,-3.887 -6.643,-15.983 -1.234,-9.262 -2.063,-12.208 -11.621,-12.431 -2.412,-9.641 -13.238,-14.21 -24.912,-14.21 l -13.279,0 c -1.513,-6.057 -35.867,-42.63 -41.518,-42.63 -7.141,0 -9.001,2.07 -14.943,3.552 -1.17,-0.663 -8.155,-5.325 -8.3,-5.325 -4.359,0 -4.301,2.901 -11.627,3.552 -0.412,-5.301 -1.194,-8.884 -6.643,-8.884 -9.169,0 -11.105,3.546 -17.956,5.201 l -2.005,-5.3 5.923,-2.79 -7.547,-5.99 c -3.078,1.743 -22.802,14.211 -24.906,14.211 l -4.985,0 c 0,9.244 -1.443,19.535 -9.963,19.535 -3.275,0 -4.109,-7.105 -9.964,-7.105 l -4.978,0 c -5.768,0 -2.534,3.553 -8.301,3.553 l -4.984,0 c -9.385,0 -10.497,-7.105 -14.161,-14.328 l -4.104,-22.971 c 2.586,-1.853 4.98,-2.355 4.98,-7.104 l 0,-3.553 c 0,-2.257 -7.385,-14.21 -11.622,-14.21 l -24.605,-0.502 14.618,-47.138 -28.204,-2.095 c -1.055,13.503 -9.784,28.42 -23.248,28.42 -16.01,0 -28.228,-20.441 -28.228,-35.519 l 0,-3.553 c 0,-13.999 5.854,-21.879 6.683,-32.307 l -13.325,-1.445 c -6,-9.579 -9.895,-31.966 -21.591,-31.966 -5.721,0 -6.428,1.314 -11.546,1.692 l -22.078,-24.303 -1.246,1.295 c -2.655,1.904 -12.822,8.879 -16.606,8.879 l -3.321,0 c -13.494,0 -28.605,-14.21 -33.207,-14.21 l -19.15,0.39 16.652,43.654 z"
         class="fil1 str1"
         id="_67742368-0-0"
         inkscape:connector-curvature="0" />
      <g
         transform="matrix(4.3367609,0,0,4.5600527,-38375.586,12127.314)"
         id="g3930-7-8"
         style="fill:#1f1a17;fill-opacity:1;fill-rule:evenodd">
        <path
           style="fill:#1f1a17;fill-opacity:1"
           d="m 134.836,127.195 c 6.84165,-0.0997 18.399,-2.60489 22.799,4.36963 l 0.80555,1.63878 0.9758,3.0395 0.9232,2.28932 2.04433,1.97097 3.50041,2.49001 3.41875,1.92114 c 6.83334,3.29556 15.2723,3.10317 22.2925,6.6285 2.11769,1.06161 2.87341,3.4229 2.24502,5.38141 l 1.06576,1.0104 c 4.03052,4.42776 2.94954,8.22299 0.39862,13.3442 -2.03049,4.07482 -4.10942,5.94751 -4.27413,10.7919 -0.11488,3.33432 1.98758,6.15651 0.16194,9.43132 -3.01044,5.39526 -10.6424,6.17451 -14.0542,11.3262 l 0.0678,-0.15225 -12.839,19.8329 -0.63392,-0.33634 c 3.47826,-8.00568 5.91568,-18.7754 12.1746,-25.3292 1.86578,-1.95298 10.1995,-5.95305 9.99188,-8.36694 -0.34326,-3.96824 -1.85055,-6.71016 -1.24708,-10.9995 l 0.9578,-3.78554 1.52806,-3.19452 1.80903,-3.05196 -0.09,0.15087 0.99102,-2.22011 0.21869,-1.03393 -0.0194,-0.10658 -0.0111,0.0457 -0.007,0.0388 -0.0803,-0.0844 -0.62562,-0.62008 -1.21248,-1.20141 c -1.36196,-1.5848 -3.38276,-3.70941 -3.43259,-5.95997 l -2.65334,-1.06438 c -8.00707,-2.85265 -22.4087,-5.08106 -26.1707,-14.4238 -1.22217,-3.03258 -0.86368,-8.28804 -4.69074,-9.58495 -5.47415,-1.85747 -10.9054,-2.12599 -16.3283,-4.18554 z m 52.5947,30.6054 0.0318,0.0332 -0.0152,-0.0249 -0.0166,-0.008 z"
           class="fil2 str2"
           id="_65215272-5-3"
           inkscape:connector-curvature="0" />
      </g>
      <g
         transform="matrix(4.1005601,0,0,4.479899,-38340.753,12142.422)"
         id="g3938-7-0"
         style="fill:#1f1c18;fill-opacity:1;fill-rule:evenodd">
        <path
           style="fill:#1f1c18;fill-opacity:1"
           d="m 82.2299,91.4439 c 3.5364,1.16404 8.03752,1.30106 10.3365,4.91359 3.07549,4.83469 -4.0762,13.8494 2.36406,15.6709 l 0.188239,0.418 c -2.44018,3.10871 -5.34958,0.63116 -6.32122,-2.52877 l -0.719736,-1.74675 -0.206232,-5.4091 0.386166,-4.022219 0.03599,0.134259 0.04567,0.07059 0.02907,-0.0097 c 0.168861,-0.491359 -0.772333,-1.3758 -1.06438,-1.59311 -1.74951,-1.29829 -5.97935,-2.78621 -5.07414,-5.89769 z"
           class="fil2 str3"
           id="_67552648-0-2"
           inkscape:connector-curvature="0" />
      </g>
      <path
         style="fill:#1f1c18;fill-opacity:1;fill-rule:evenodd"
         d="m -38003.569,12552.081 c 2.69,9.803 14.796,13.077 21.521,16.345 6.725,1.631 13.457,9.803 13.457,16.339 0,13.077 -2.696,26.148 -2.696,39.225 0,0 4.041,16.339 4.041,16.339 2.69,8.172 10.761,8.172 16.141,4.905"
         class="fil3"
         id="_67899296-8-6"
         inkscape:connector-curvature="0" />
      <g
         transform="matrix(4.1005601,0,0,4.479899,-38340.753,12142.422)"
         id="g3942-6-6"
         style="fill:#b8db7c;fill-opacity:1;fill-rule:evenodd">
        <path
           style="fill:#b8db7c;fill-opacity:1"
           d="m 101.429,124.52 c 2.45541,0.11211 4.94265,0.36264 6.59113,2.78483 0.93012,1.3675 1.11974,5.17795 2.51631,5.71775 3.68727,1.42286 10.1815,1.28168 10.5829,7.08248 0.28236,4.03883 -2.92462,7.16691 -5.16965,9.70399 l -0.37648,-0.21177 c 0.51904,-2.42081 4.01391,-9.18356 0.0471,-9.76073 -2.91632,-0.42354 -6.57036,-0.418 -8.59808,-3.40768 -1.58065,-2.33361 -0.58132,-5.49214 -1.92253,-7.69564 -0.96472,-1.58757 -2.49555,-2.82773 -3.67066,-4.21323 z"
           class="fil2 str3"
           id="_67629040-9-8"
           inkscape:connector-curvature="0" />
      </g>
      <path
         style="fill:#1f1c18;fill-opacity:1;fill-rule:evenodd"
         d="m -37912.594,12691.076 c 7.669,3.138 20.444,10.969 22.999,20.369 1.277,4.707 3.83,21.938 6.384,25.076 2.56,3.131 14.053,9.4 17.89,9.4 6.385,0 21.715,3.131 24.275,10.969 6.384,12.538 -7.669,34.476 -12.776,47.007"
         class="fil3"
         id="_65375008-6-9"
         inkscape:connector-curvature="0" />
      <g
         transform="matrix(4.0797824,0,0,4.2130317,-38422.818,12256.829)"
         id="g3960-5-7"
         style="fill:#1f1a17;fill-opacity:1;fill-rule:evenodd">
        <path
           sodipodi:nodetypes="ccscccccccccc"
           style="fill:#1f1a17;fill-opacity:1"
           d="M 204.103,49.2784 C 186.9982,42.82015 172.4014,36.4879 153.7076,36.301 87.0129,35.632476 39.2133,94.084367 43.7133,158.65997 c 2.61043,37.4651 17.4183,68.4687 50.4016,85.9168 33.3778,17.6557 71.2456,28.05943 106.114,13.12488 11.7165,-5.01878 19.3111,-11.7137 28.3991,-20.1762 l 0.54119,0.36264 c -5.0257,5.62086 -9.68599,11.6404 -15.9242,15.8743 -62.7389,42.5669 -164.799004,6.29077 -182.043004,-68.7418 -13.0867,-56.9353 21.5879,-118.438004 73.820004,-142.285004 20.3838,-9.30536 43.7157,-12.9262 65.7604,-7.90741 11.866,2.7004 22.4156,9.05069 33.321,14.4501 z"
           class="fil2"
           id="_67468136-3-6"
           inkscape:connector-curvature="0" />
      </g>
      <path
         d="m -38498.047,12978.317 c 9.805,180.879 -26.023,397.679 125.295,557.332 40.063,42.28 123.159,59.829 191.395,64.096 l 313.575,7.234 217.685,15.111 0,2.839 -428.358,6.014 c -107.889,0.914 -226.35,8.331 -311.304,-47.69 -88.988,-58.68 -117.598,-143.468 -129.818,-225.003 -19.256,-128.561 4.331,-252.117 21.528,-379.933 z"
         class="fil1 str1"
         id="_80692792-8-7-7-6-1"
         inkscape:connector-curvature="0"
         style="fill:#1f1a17;fill-rule:evenodd;stroke:#1f1a17;stroke-width:17.35302544" />
    </g>
  </g>
</svg>
