<?xml version="1.0" encoding="UTF-8" standalone="no"?>
<!-- Created with Inkscape (http://www.inkscape.org/) -->

<svg
   xmlns:dc="http://purl.org/dc/elements/1.1/"
   xmlns:cc="http://creativecommons.org/ns#"
   xmlns:rdf="http://www.w3.org/1999/02/22-rdf-syntax-ns#"
   xmlns:svg="http://www.w3.org/2000/svg"
   xmlns="http://www.w3.org/2000/svg"
   xmlns:sodipodi="http://sodipodi.sourceforge.net/DTD/sodipodi-0.dtd"
   xmlns:inkscape="http://www.inkscape.org/namespaces/inkscape"
   width="256"
   height="256"
   id="svg5274"
   version="1.1"
   inkscape:version="0.48.3.1 r9886"
   sodipodi:docname="applications-versioncontrol.svg">
  <defs
     id="defs5276" />
  <sodipodi:namedview
     id="base"
     pagecolor="#ffffff"
     bordercolor="#666666"
     borderopacity="1.0"
     inkscape:pageopacity="0.0"
     inkscape:pageshadow="2"
     inkscape:zoom="0.33220668"
     inkscape:cx="379.35569"
     inkscape:cy="-213.49953"
     inkscape:document-units="px"
     inkscape:current-layer="layer1"
     showgrid="false"
     inkscape:window-width="1438"
     inkscape:window-height="827"
     inkscape:window-x="0"
     inkscape:window-y="25"
     inkscape:window-maximized="1" />
  <metadata
     id="metadata5279">
    <rdf:RDF>
      <cc:Work
         rdf:about="">
        <dc:format>image/svg+xml</dc:format>
        <dc:type
           rdf:resource="http://purl.org/dc/dcmitype/StillImage" />
        <dc:title />
      </cc:Work>
    </rdf:RDF>
  </metadata>
  <g
     inkscape:label="Capa 1"
     inkscape:groupmode="layer"
     id="layer1"
     transform="translate(0,-796.36218)">
    <g
       style="fill-rule:evenodd"
       id="g7299"
       transform="matrix(0.1540729,0,0,0.1540729,5717.6404,-2038.8546)">
      <g
         id="g7166">
        <rect
           id="rect7046-0-2-9-1-0-8-5-2-8-4-0"
           ry="343.16165"
           rx="232.07611"
           height="1407.7778"
           width="1462.0826"
           transform="matrix(-0.00430507,-0.99999073,0.99998792,-0.00491528,0,0)"
           class="fil3 str0"
           x="-19797.688"
           y="-37058.484"
           style="fill:#b8db7c;fill-rule:evenodd;stroke:#72706f;stroke-width:43.16974258" />
        <path
           style="fill:#1f1a17;fill-rule:evenodd;stroke:#1f1a17;stroke-width:17.35302544"
           inkscape:connector-curvature="0"
           id="_80379776-7-7-5-7-9-6-2-9-3-1-4"
           class="fil1 str1"
           d="m -36467.751,18512.403 391.882,-20.512 c 174.166,3.87 434.079,-2.041 489.015,143.647 18.613,49.371 28.307,100.213 29.358,151.207 l -12.176,504.379 -4.58,0.06 c -56.613,-200.406 -40.584,-450.344 -178.688,-601.15 -73.802,-79.097 -265.633,-136.606 -374.318,-159.742 l -340.493,-17.887 z"
           sodipodi:nodetypes="cccccccccc" />
        <path
           id="path7050-7-1-0-9-3-8-0-6-8-6-9"
           d="m -36467.75,18512.413 c 121.752,-20.162 667.543,-9.877 758.928,35.771 84.733,42.321 120.95,129.077 123.795,238.91 l 13.067,504.062"
           class="fil2"
           inkscape:connector-curvature="0"
           style="fill:none" />
        <path
           id="path7054-6-7-2-3-9-0-3-5-7-1-1"
           d="m -36976.469,19331.506 c 0,88.718 -15.751,193.803 -8.685,282.277 22.059,276.234 130.108,373.939 426.151,354.852 57.046,-3.673 365.256,8.06 430.485,8.06"
           class="fil2"
           inkscape:connector-curvature="0"
           style="fill:none" />
        <path
           style="fill:#1f1a17;fill-rule:evenodd;stroke:#1f1a17;stroke-width:17.35302544"
           inkscape:connector-curvature="0"
           id="_80379776-7-7-5-5-8-0-9-6-1-3-0"
           class="fil1 str1"
           d="m -36467.751,18512.403 391.882,-20.512 c 174.166,3.87 434.079,-2.041 489.015,143.647 18.613,49.371 28.307,100.213 29.358,151.207 l -12.176,504.379 -4.58,0.06 c -56.613,-200.406 -40.584,-450.344 -178.688,-601.15 -73.802,-79.097 -265.633,-136.606 -374.318,-159.742 l -340.493,-17.887 z"
           sodipodi:nodetypes="cccccccccc" />
        <path
           id="path7050-7-1-0-8-5-2-6-3-4-5-9"
           d="m -36467.75,18512.413 c 121.752,-20.162 667.543,-9.877 758.928,35.771 84.733,42.321 120.95,129.077 123.795,238.91 l 13.067,504.062"
           class="fil2"
           inkscape:connector-curvature="0"
           style="fill:none" />
        <path
           style="fill:#1f1a17;fill-rule:evenodd;stroke:#1f1a17;stroke-width:17.35302544"
           inkscape:connector-curvature="0"
           id="_80692792-8-7-7-6-1-3-1-6-8-2-5"
           class="fil1 str1"
           d="m -36976.468,19331.5 c 9.805,180.879 -26.023,397.679 125.295,557.332 40.063,42.28 123.159,59.829 191.395,64.096 l 313.575,7.234 217.685,15.111 0,2.839 -428.358,6.014 c -107.889,0.914 -226.35,8.331 -311.304,-47.69 -88.988,-58.68 -117.598,-143.468 -129.818,-225.003 -19.256,-128.561 4.331,-252.117 21.528,-379.933 z" />
        <text
           xml:space="preserve"
           style="font-size:835.62860107px;font-style:normal;font-variant:normal;font-weight:normal;font-stretch:normal;line-height:125%;letter-spacing:0px;word-spacing:0px;fill:#00923f;fill-opacity:1;fill-rule:evenodd;stroke:none;font-family:'10.15 Saturday Night R BRK';-inkscape-font-specification:'10.15 Saturday Night R BRK'"
           x="-41490.359"
           y="17099.277"
           id="text6378-5-3-7"
           sodipodi:linespacing="125%"
           transform="scale(0.88846368,1.1255384)"><tspan
             sodipodi:role="line"
             id="tspan6380-9-9-0"
             x="-41490.359"
             y="17099.277"
             style="font-style:normal;font-variant:normal;font-weight:normal;font-stretch:normal;fill:#00923f;fill-opacity:1;font-family:Acknowledge TT BRK;-inkscape-font-specification:Acknowledge TT BRK">SVN</tspan><tspan
             sodipodi:role="line"
             x="-41490.359"
             y="18143.812"
             style="font-style:normal;font-variant:normal;font-weight:normal;font-stretch:normal;fill:#00923f;fill-opacity:1;font-family:Acknowledge TT BRK;-inkscape-font-specification:Acknowledge TT BRK"
             id="tspan6902" /><tspan
             sodipodi:role="line"
             x="-41490.359"
             y="19188.35"
             style="font-style:normal;font-variant:normal;font-weight:normal;font-stretch:normal;fill:#00923f;fill-opacity:1;font-family:Acknowledge TT BRK;-inkscape-font-specification:Acknowledge TT BRK"
             id="tspan6574-1-1" /></text>
        <text
           xml:space="preserve"
           style="font-size:835.62860107px;font-style:normal;font-variant:normal;font-weight:normal;font-stretch:normal;line-height:125%;letter-spacing:0px;word-spacing:0px;fill:#00923f;fill-opacity:1;fill-rule:evenodd;stroke:none;font-family:'10.15 Saturday Night R BRK';-inkscape-font-specification:'10.15 Saturday Night R BRK'"
           x="-41479.762"
           y="17506.156"
           id="text6378-5-3-7-4"
           sodipodi:linespacing="125%"
           transform="scale(0.88846368,1.1255384)"><tspan
             sodipodi:role="line"
             id="tspan6380-9-9-0-5"
             x="-41479.762"
             y="17506.156"
             style="font-style:normal;font-variant:normal;font-weight:normal;font-stretch:normal;fill:#00923f;fill-opacity:1;font-family:Acknowledge TT BRK;-inkscape-font-specification:Acknowledge TT BRK">GIT</tspan><tspan
             sodipodi:role="line"
             x="-41479.762"
             y="18550.691"
             style="font-style:normal;font-variant:normal;font-weight:normal;font-stretch:normal;fill:#00923f;fill-opacity:1;font-family:Acknowledge TT BRK;-inkscape-font-specification:Acknowledge TT BRK"
             id="tspan6902-5" /><tspan
             sodipodi:role="line"
             x="-41479.762"
             y="19595.229"
             style="font-style:normal;font-variant:normal;font-weight:normal;font-stretch:normal;fill:#00923f;fill-opacity:1;font-family:Acknowledge TT BRK;-inkscape-font-specification:Acknowledge TT BRK"
             id="tspan6574-1-1-6" /></text>
        <g
           style="fill-rule:evenodd"
           id="_79162808-4-6-2-8-2-9-9-1-5-3-4-8-7-7"
           transform="matrix(0.12323212,-0.26911444,0.13657718,0.28469524,-37191.277,19044.763)">
          <path
             style="fill:#1f1a17;stroke:#1f1a17;stroke-width:2.35815668"
             inkscape:connector-curvature="0"
             d="M 2804.5225,2116.0663 C 1800.6134,1096.6937 1622.5415,890.18906 1529.8462,977.32681 c -123.1154,115.73389 -51.3147,23.11979 -289.5994,316.02729 414.0699,-515.07009 517.2176,-0.3348 1564.2757,822.7122 z"
             class="fil2 str1"
             id="_79208600-31-68-2-7-1-9-0-6-4-5-2-9-5-5"
             sodipodi:nodetypes="cscc" />
        </g>
        <g
           style="fill-rule:evenodd"
           id="_79162808-4-6-2-8-2-9-9-1-5-3-4-8-7-7-9"
           transform="matrix(0.16310789,0.12175763,-0.17255127,0.13494301,-35841.49,18571.928)">
          <path
             style="fill:#1f1a17;stroke:#1f1a17;stroke-width:2.35815668"
             inkscape:connector-curvature="0"
             d="M 2804.5225,2116.0663 C 1800.6134,1096.6937 1622.5415,890.18906 1529.8462,977.32681 c -123.1154,115.73389 -51.3147,23.11979 -289.5994,316.02729 414.0699,-515.07009 517.2176,-0.3348 1564.2757,822.7122 z"
             class="fil2 str1"
             id="_79208600-31-68-2-7-1-9-0-6-4-5-2-9-5-5-0"
             sodipodi:nodetypes="cscc" />
        </g>
        <g
           style="fill-rule:evenodd"
           id="_79162808-4-6-2-8-2-9-9-1-5-3-4-8-7-7-1"
           transform="matrix(0.12618111,0.26187145,0.13984551,-0.27703291,-37188.637,19555.699)">
          <path
             style="fill:#1f1a17;stroke:#1f1a17;stroke-width:2.35815668"
             inkscape:connector-curvature="0"
             d="M 2804.5225,2116.0663 C 1800.6134,1096.6937 1622.5415,890.18906 1529.8462,977.32681 c -123.1154,115.73389 -51.3147,23.11979 -289.5994,316.02729 414.0699,-515.07009 517.2176,-0.3348 1564.2757,822.7122 z"
             class="fil2 str1"
             id="_79208600-31-68-2-7-1-9-0-6-4-5-2-9-5-5-9"
             sodipodi:nodetypes="cscc" />
        </g>
        <g
           style="fill-rule:evenodd"
           id="_79162808-4-6-2-8-2-9-9-1-5-3-9-2-6-8"
           transform="matrix(0.11816172,0.29107688,0.1309577,-0.30792922,-36556.14,19469.836)">
          <path
             style="fill:#1f1a17;stroke:#1f1a17;stroke-width:2.34375"
             inkscape:connector-curvature="0"
             d="m 1957.7127,1326.8977 c -73.4582,-90.1722 -362.7352,-413.76851 -413.2373,-374.26658 -130.8616,102.35778 -95.3284,66.98268 -325.9618,354.03218 90.0311,-80.0053 332.7936,-274.3942 385.7232,-256.232 121.0572,41.5394 274.967,233.837 353.4759,276.4664 z"
             class="fil2 str1"
             id="_79208600-31-68-2-7-1-9-0-6-4-5-5-2-0-3"
             sodipodi:nodetypes="cscsc" />
        </g>
        <g
           style="fill-rule:evenodd"
           id="_79162808-4-6-2-8-2-9-9-1-5-3-4-8-7-7-8"
           transform="matrix(-0.17406192,0.10935233,0.18413951,0.12119432,-35760.467,19130.934)">
          <path
             style="fill:#1f1a17;stroke:#1f1a17;stroke-width:2.35815668"
             inkscape:connector-curvature="0"
             d="M 2804.5225,2116.0663 C 1800.6134,1096.6937 1622.5415,890.18906 1529.8462,977.32681 c -123.1154,115.73389 -51.3147,23.11979 -289.5994,316.02729 414.0699,-515.07009 517.2176,-0.3348 1564.2757,822.7122 z"
             class="fil2 str1"
             id="_79208600-31-68-2-7-1-9-0-6-4-5-2-9-5-5-4"
             sodipodi:nodetypes="cscc" />
        </g>
      </g>
    </g>
  </g>
</svg>
