<?xml version="1.0" encoding="UTF-8" standalone="no"?>
<!-- Created with Inkscape (http://www.inkscape.org/) -->

<svg
   xmlns:dc="http://purl.org/dc/elements/1.1/"
   xmlns:cc="http://creativecommons.org/ns#"
   xmlns:rdf="http://www.w3.org/1999/02/22-rdf-syntax-ns#"
   xmlns:svg="http://www.w3.org/2000/svg"
   xmlns="http://www.w3.org/2000/svg"
   xmlns:sodipodi="http://sodipodi.sourceforge.net/DTD/sodipodi-0.dtd"
   xmlns:inkscape="http://www.inkscape.org/namespaces/inkscape"
   width="256"
   height="256"
   id="svg5274"
   version="1.1"
   inkscape:version="0.48.3.1 r9886"
   sodipodi:docname="applications-versioncontrol.svg">
  <defs
     id="defs5276" />
  <sodipodi:namedview
     id="base"
     pagecolor="#ffffff"
     bordercolor="#666666"
     borderopacity="1.0"
     inkscape:pageopacity="0.0"
     inkscape:pageshadow="2"
     inkscape:zoom="0.33220668"
     inkscape:cx="379.35569"
     inkscape:cy="-213.49953"
     inkscape:document-units="px"
     inkscape:current-layer="layer1"
     showgrid="false"
     inkscape:window-width="1438"
     inkscape:window-height="827"
     inkscape:window-x="0"
     inkscape:window-y="25"
     inkscape:window-maximized="1" />
  <metadata
     id="metadata5279">
    <rdf:RDF>
      <cc:Work
         rdf:about="">
        <dc:format>image/svg+xml</dc:format>
        <dc:type
           rdf:resource="http://purl.org/dc/dcmitype/StillImage" />
        <dc:title></dc:title>
      </cc:Work>
    </rdf:RDF>
  </metadata>
  <g
     inkscape:label="Capa 1"
     inkscape:groupmode="layer"
     id="layer1"
     transform="translate(0,-796.36218)">
    <rect
       id="rect7046-0-2-9-1-0-8-9"
       ry="54.018547"
       rx="36.532097"
       height="221.60435"
       width="230.15269"
       transform="matrix(-0.00430507,-0.99999073,0.99998792,-0.00491528,0,0)"
       class="fil3 str0"
       x="-1042.2281"
       y="14.195669"
       style="fill:#b8db7c;fill-rule:evenodd;stroke:#72706f;stroke-width:6.79553461" />
    <path
       style="fill:#1f1a17;fill-rule:evenodd;stroke:#1f1a17;stroke-width:2.73161435"
       inkscape:connector-curvature="0"
       id="_80379776-7-7-5-7-9-6-26"
       class="fil1 str1"
       d="m 98.184908,811.18237 61.687962,-3.22886 c 27.41621,0.60916 68.33024,-0.32134 76.97788,22.61203 2.93003,7.77176 4.45591,15.77497 4.62139,23.80219 l -1.91662,79.39646 -0.72104,0.009 c -8.91157,-31.54675 -6.38846,-70.89054 -28.12801,-94.62964 -11.61749,-12.45103 -41.81445,-21.50368 -58.92302,-25.14565 l -53.598542,-2.81564 z"
       sodipodi:nodetypes="cccccccccc" />
    <path
       id="path7050-7-1-0-9-3-8-09"
       d="m 98.185163,811.18389 c 19.165487,-3.17375 105.080747,-1.55471 119.466087,5.63089 13.33817,6.66188 19.03921,20.31848 19.48708,37.60781 l 2.05693,79.34654"
       class="fil2"
       inkscape:connector-curvature="0"
       style="fill:none" />
    <path
       id="path7054-6-7-2-3-9-0-5"
       d="m 18.105457,940.12093 c 0,13.96553 -2.479389,30.50728 -1.367115,44.43439 3.472461,43.48318 20.480911,58.86338 67.082335,55.85868 8.979842,-0.5781 57.496493,1.2689 67.764433,1.2689"
       class="fil2"
       inkscape:connector-curvature="0"
       style="fill:none" />
    <path
       style="font-size:medium;font-style:normal;font-variant:normal;font-weight:normal;font-stretch:normal;text-indent:0;text-align:start;text-decoration:none;line-height:normal;letter-spacing:normal;word-spacing:normal;text-transform:none;direction:ltr;block-progression:tb;writing-mode:lr-tb;text-anchor:start;baseline-shift:baseline;color:#000000;fill:#00923f;fill-opacity:1;fill-rule:evenodd;stroke:#737373;stroke-width:4.72242832;stroke-miterlimit:4;stroke-opacity:1;stroke-dasharray:none;marker:none;visibility:visible;display:inline;overflow:visible;enable-background:accumulate;font-family:Sans;-inkscape-font-specification:Sans"
       d="m 78.39027,827.15756 c -6.474918,-0.0114 -10.797474,1.00343 -10.797474,1.00343 l 4.21587,19.95228 c 0,0 10.952576,-1.94303 20.591512,2.17436 -1.199749,-0.47063 1.318073,1.21365 3.271468,4.25024 2.287872,3.55639 5.204634,8.81412 8.406954,15.09703 4.14646,8.13555 8.81475,18.0239 13.69502,28.63454 l -49.551177,111.75926 18.648608,8.2643 42.197089,-95.17169 c 6.72002,14.87746 13.44081,29.75087 19.55862,42.43285 7.08359,14.68404 12.51879,25.79286 18.81598,32.92917 9.57295,10.84907 19.32199,16.03607 27.00627,18.09787 7.68478,2.0616 14.32479,0.787 14.32479,0.787 l -4.58473,-19.87353 c 0,0 -0.6443,0.41149 -4.45199,-0.61005 -3.80719,-1.02136 -9.75537,-3.68368 -17.00075,-11.89471 -2.11204,-2.39367 -8.85849,-14.02709 -15.74146,-28.29513 -6.88271,-14.26816 -14.74193,-31.8055 -22.52494,-49.01495 -7.783,-17.20932 -15.47777,-34.07493 -22.22004,-47.303 -3.37108,-6.61384 -6.48529,-12.30249 -9.42519,-16.87281 -2.93989,-4.5702 -4.29019,-8.16223 -10.7239,-11.21578 -8.608322,-4.08629 -17.235103,-5.12019 -23.71053,-5.13068 z"
       id="path4552-0-2-4-0"
       inkscape:connector-curvature="0" />
    <path
       style="fill:#000000;fill-rule:evenodd;stroke:none"
       d="m 209.16099,1017.9966 c -0.13766,0.03 -2.78239,-0.7946 -3.4784,-5.8943 -2.37572,-16.97018 2.2971,-11.4928 -7.56317,-15.34231 -0.80939,-0.29712 -1.59301,-0.68336 -2.33932,-1.12255 l 0,0 c -21.07516,-9.56192 -24.79311,-32.0607 -31.60591,-48.07824 -0.8673,-1.97538 -1.8792,-3.8269 -2.59531,-5.80862 -0.10719,-0.29933 -0.14613,-0.46252 -0.11237,-0.47959 l 0,0 0,0 c 0,0 0,0 0,0 0,0 0,0 0,0 l 0,0 -5.86121,-12.27192 c 0.0342,-0.0163 5.63506,10.37098 5.80735,10.63796 1.11759,1.83204 2.60631,5.57982 3.48308,7.18787 1.90043,3.48699 4.51343,8.70831 7.70247,14.43198 1.35207,2.42681 2.80502,5.0106 4.36251,7.70349 1.55748,2.69276 3.22001,5.49437 4.99896,8.35197 1.10254,1.77099 2.24743,3.56182 3.45906,5.34229 0.34232,0.50286 0.6869,1.00066 1.03415,1.49226 1.25663,1.7777 2.52527,3.47929 3.92057,4.98076 3.4382,3.39535 9.29801,6.01438 12.80131,5.86831 1.07903,-0.24271 1.00053,-0.21837 2.64714,-0.81716 1.0679,5.17637 2.81614,13.9538 4.46236,17.6229 0.8142,3.9231 0.85338,7.6352 0.71548,7.6654 z"
       id="path5715-4-6-2-1"
       inkscape:connector-curvature="0"
       sodipodi:nodetypes="cccccccccccccccccsccccccccc" />
    <rect
       id="rect7046-0-2-9-5-1-9-7"
       ry="54.018547"
       rx="36.532097"
       height="221.60435"
       width="230.15269"
       transform="matrix(-0.00430507,-0.99999073,0.99998792,-0.00491528,0,0)"
       class="fil3 str0"
       x="-1042.2281"
       y="14.195669"
       style="fill:#b8db7c;fill-rule:evenodd;stroke:#72706f;stroke-width:6.79553461" />
    <path
       style="fill:#1f1a17;fill-rule:evenodd;stroke:#1f1a17;stroke-width:2.73161435"
       inkscape:connector-curvature="0"
       id="_80379776-7-7-5-5-8-0-2"
       class="fil1 str1"
       d="m 98.184908,811.18237 61.687962,-3.22886 c 27.41621,0.60916 68.33024,-0.32134 76.97788,22.61203 2.93003,7.77176 4.45591,15.77497 4.62139,23.80219 l -1.91662,79.39646 -0.72104,0.009 c -8.91157,-31.54675 -6.38846,-70.89054 -28.12801,-94.62964 -11.61749,-12.45103 -41.81445,-21.50368 -58.92302,-25.14565 l -53.598542,-2.81564 z"
       sodipodi:nodetypes="cccccccccc" />
    <path
       id="path7050-7-1-0-8-5-2-2"
       d="m 98.185163,811.18389 c 19.165487,-3.17375 105.080747,-1.55471 119.466087,5.63089 13.33817,6.66188 19.03921,20.31848 19.48708,37.60781 l 2.05693,79.34654"
       class="fil2"
       inkscape:connector-curvature="0"
       style="fill:none" />
    <path
       style="fill:#1f1a17;fill-rule:evenodd;stroke:#1f1a17;stroke-width:2.73161435"
       inkscape:connector-curvature="0"
       id="_80692792-8-7-7-6-1-3-6"
       class="fil1 str1"
       d="m 18.105584,940.12004 c 1.543454,28.47286 -4.096284,62.60026 19.723341,87.73186 6.306418,6.6555 19.386958,9.4179 30.128313,10.0896 l 49.361182,1.1388 34.26669,2.3786 0,0.447 -67.429703,0.9467 c -16.983171,0.1439 -35.630772,1.3114 -49.003703,-7.507 -14.007882,-9.2372 -18.511582,-22.584 -20.435148,-35.4188 -3.031162,-20.23734 0.681723,-39.68675 3.388901,-59.80676 z" />
    <g
       style="fill-rule:evenodd"
       id="g16096"
       transform="matrix(0.06178245,0,0,0.06178245,2975.2968,-36.377379)">
      <path
         d="m -47183.025,16728.763 c -139.455,-336.473 -324.337,-632.998 -328.447,-1182.513 -4.245,-567.742 484.372,-935.314 870.553,-935.358 467.555,-0.06 878.928,393.49 900.62,719.463 19.576,294.175 -85.451,722.009 -627.553,718.829 -258.843,-1.498 -527.804,-225.937 -529.221,-559.853 -1.533,-360.327 451.343,-395.479 565.547,-303.747 44.361,35.633 43.005,106.144 3.759,93.415 -243.842,-79.134 -394.484,76.827 -383.297,231.989 15.187,210.53 140.501,335.785 365.135,346.439 324.035,15.341 414.75,-298.765 406.466,-426.249 -10.067,-154.999 -145.655,-473.793 -567.424,-532.033 -199.149,-27.47 -364.198,31.984 -484.759,148.487 -120.558,116.513 -188.337,236.994 -198.239,434.63 -10.242,204.421 34.536,324.366 157.201,592.567 43.815,95.786 166.203,289.04 260.983,482.556 l -411.322,171.378 z"
         inkscape:connector-curvature="0"
         id="path3607"
         style="fill:#00923f;fill-opacity:1;fill-rule:evenodd;stroke:none;display:inline" />
      <path
         d="m -45053.86,14617.416 a 44.375602,44.375602 0 0 0 -12.775,3.193 l -410.402,170.868 a 44.375602,44.375602 0 0 0 -22.356,60.682 c 96.253,196.553 220.035,394.221 260.294,482.262 122.291,267.385 163.169,376.314 153.302,573.286 -9.43,188.188 -69.55,292.197 -185.24,404.014 -111.514,107.762 -259.843,161.581 -447.131,135.736 -200.606,-27.68 -329.109,-115.138 -410.402,-213.984 -81.293,-98.846 -113.84,-211.195 -118.17,-277.86 -3.316,-51.026 14.93,-155.583 70.263,-237.937 55.333,-82.354 141.437,-145.918 289.038,-138.93 104.484,4.956 179.164,35.944 231.55,86.233 52.387,50.288 84.018,121.654 91.023,218.774 4.49,62.27 -22.244,125.031 -76.651,164.48 -54.407,39.45 -136.268,58.466 -247.519,22.357 -21.22,-6.877 -52.286,-2.98 -68.666,14.372 -16.38,17.352 -19.302,38.163 -19.163,55.891 0.281,35.456 16.067,72.149 49.504,99.008 40.776,32.756 96.979,46.695 161.286,51.1 64.308,4.406 136.288,-2.386 206,-25.55 139.423,-46.329 270.721,-165.349 269.875,-364.092 -1.518,-357.59 -288.895,-603.579 -573.285,-605.223 -282.778,-1.67 -463.139,114.608 -562.107,269.875 -98.969,155.268 -120.418,344.455 -110.186,498.231 12.001,180.337 127.564,367.715 298.619,512.604 171.055,144.888 400.539,247.559 646.743,247.518 414.366,-0.02 919.457,-387.165 915.02,-980.493 -4.184,-559.387 -194.502,-867.129 -332.154,-1199.268 a 44.375602,44.375602 0 0 0 -46.31,-27.147 z"
         inkscape:connector-curvature="0"
         id="path3875"
         style="opacity:0.1;fill:#000000;fill-opacity:1;fill-rule:evenodd;stroke:none;display:inline" />
      <path
         d="m -45048.564,14661.993 c 139.456,336.495 324.337,633.008 328.447,1182.536 4.246,567.741 -484.373,935.313 -870.552,935.334 -467.556,0.08 -878.93,-393.479 -900.62,-719.418 -19.575,-294.208 85.449,-722.052 627.553,-718.851 258.843,1.497 527.804,225.937 529.221,559.842 1.533,360.316 -451.344,395.489 -565.548,303.747 -44.36,-35.632 -43.006,-106.133 -3.758,-93.414 243.841,79.143 394.481,-76.838 383.294,-231.99 -15.186,-210.529 -140.499,-335.763 -365.133,-346.417 -324.035,-15.341 -414.75,298.776 -406.467,426.238 10.067,154.998 145.654,473.814 567.425,532.011 199.149,27.481 364.198,-31.972 484.757,-148.475 120.56,-116.525 188.34,-237.006 198.242,-434.608 10.241,-204.433 -34.538,-324.367 -157.203,-592.569 -43.815,-95.818 -166.204,-289.028 -260.981,-482.566 l 411.32,-171.4 z"
         inkscape:connector-curvature="0"
         id="path3871"
         style="opacity:0.2;fill:#000000;fill-opacity:1;fill-rule:evenodd;stroke:none;display:inline" />
      <path
         d="m -45048.564,14610.892 c 139.456,336.496 324.337,633.009 328.447,1182.536 4.246,567.742 -484.373,935.313 -870.552,935.335 -467.556,0.08 -878.93,-393.479 -900.62,-719.419 -19.575,-294.208 85.449,-722.052 627.553,-718.851 258.843,1.497 527.804,225.937 529.221,559.843 1.533,360.316 -451.344,395.489 -565.548,303.747 -44.36,-35.633 -43.006,-106.134 -3.758,-93.415 243.841,79.144 394.481,-76.838 383.294,-231.99 -15.186,-210.529 -140.499,-335.763 -365.133,-346.416 -324.035,-15.342 -414.75,298.775 -406.467,426.238 10.067,154.998 145.654,473.813 567.425,532.01 199.149,27.482 364.198,-31.972 484.757,-148.475 120.56,-116.524 188.34,-237.005 198.242,-434.608 10.241,-204.432 -34.538,-324.366 -157.203,-592.568 -43.815,-95.818 -166.204,-289.029 -260.981,-482.567 l 411.32,-171.4 z"
         inkscape:connector-curvature="0"
         id="path3611"
         style="fill:#00923f;fill-opacity:1;fill-rule:evenodd;stroke:none;display:inline" />
    </g>
    <path
       style="fill:#000000;fill-rule:evenodd;stroke:none"
       d="m 60.658758,931.14576 c 1.122012,2.35626 1.051351,4.13168 2.981611,8.38584 1.930514,4.25417 3.999326,8.47813 6.508546,14.12469 2.509474,5.64669 5.459474,12.71573 8.323398,19.23805 10.236091,14.90565 11.013255,13.43286 -4.794693,18.7524 -3.142272,1.15449 -5.263541,1.94445 -6.142341,2.27173 l 0,0 c 0.200366,-0.29749 0.338781,-0.40567 0.361281,-0.38496 0.02226,0.0209 -0.07385,0.16686 -0.326763,0.36225 l 0,0 c 0.902934,-0.34945 1.7567,-2.32234 4.796455,-3.5159 4.680803,-2.91043 10.148371,-3.08867 9.36602,-6.98927 -5.968772,-8.85596 -9.101061,-15.79253 -13.404787,-27.29537 -2.481787,-5.5984 -4.079343,-10.8292 -5.925035,-15.08236 -1.845446,-4.25303 -1.548259,-3.15048 -2.538551,-5.55302 -0.990155,-2.40252 -2.859618,-6.71485 0.381756,-21.56967 -0.608027,5.05787 -1.022393,14.01534 0.413103,17.25559 z"
       id="path5720-6"
       inkscape:connector-curvature="0"
       sodipodi:nodetypes="cssccccsccccccccc" />
    <path
       style="fill:#000000;fill-rule:evenodd;stroke:none"
       d="m 212.13261,913.80498 c -1.78843,-4.31573 -3.46032,-8.71199 -5.87056,-14.40153 -2.40999,-5.68979 -5.55807,-12.673 -8.36549,-19.21973 -3.89479,-17.65756 -2.28825,-17.21917 -16.97116,-9.30698 -2.98958,1.50642 -5.01553,2.51617 -5.85477,2.93445 l 0,0 c 0.35408,0.0569 0.52764,0.0296 0.5279,0 0,-0.0302 -0.1723,-0.06 -0.48782,-0.009 l 0,0 c 0.8721,-0.42081 2.89615,0.30326 5.84414,-1.10166 5.32295,-1.43069 9.18778,-5.30235 11.50233,-2.06653 2.39102,10.40839 5.31777,17.4342 10.7794,28.43457 2.39381,5.63657 4.54314,13.0823 6.38884,17.33547 5.8229,21.85498 0.0456,43.97086 -8.1434,56.43858 12.74456,-10.72922 17.62432,-39.6918 10.65059,-59.0378 z"
       id="path5720-6-7"
       inkscape:connector-curvature="0"
       sodipodi:nodetypes="csccccscccccccc" />
    <g
       style="fill-rule:evenodd"
       id="_79162808-4-6-3-9-2-0-8-5"
       transform="matrix(0.0245527,0.00446835,-0.00587823,-0.01237531,78.9509,919.5619)">
      <path
         style="fill:#1f1a17;stroke:#1f1a17;stroke-width:2.34375"
         inkscape:connector-curvature="0"
         d="m 1023.4989,1286.2945 c 262.1192,318.4867 600.5378,217.1089 785.4771,316.2803 181.367,97.2558 249.3307,323.297 138.4787,567.7188 -102.218,314.4473 -1032.82873,-182.5408 -1386.2488,-822.2404 487.5565,568.0978 1106.2774,886.6076 1225.3538,723.2534 265.6436,-364.4217 -366.2871,-420.55 -683.7233,-624.7803 z"
         class="fil2 str1"
         id="_79208600-31-68-5-5-5-0-9-7"
         sodipodi:nodetypes="csccscc" />
    </g>
    <g
       style="fill-rule:evenodd"
       id="_79162808-4-6-3-9-2-0-8-5-4"
       transform="matrix(-0.0245527,-0.00446835,0.00587823,0.01237531,172.38735,943.78969)">
      <path
         style="fill:#1f1a17;stroke:#1f1a17;stroke-width:2.34375"
         inkscape:connector-curvature="0"
         d="m 1023.4989,1286.2945 c 262.1192,318.4867 600.5378,217.1089 785.4771,316.2803 181.367,97.2558 249.3307,323.297 138.4787,567.7188 -102.218,314.4473 -1037.564,-139.4723 -1390.98407,-779.1719 487.55647,568.0978 1111.01267,843.5391 1230.08907,680.1849 265.6436,-364.4217 -366.2871,-420.55 -683.7233,-624.7803 z"
         class="fil2 str1"
         id="_79208600-31-68-5-5-5-0-9-7-5"
         sodipodi:nodetypes="csccscc" />
    </g>
  </g>
</svg>
