<?xml version="1.0" encoding="UTF-8" standalone="no"?>
<!-- Created with Inkscape (http://www.inkscape.org/) -->

<svg
   xmlns:dc="http://purl.org/dc/elements/1.1/"
   xmlns:cc="http://creativecommons.org/ns#"
   xmlns:rdf="http://www.w3.org/1999/02/22-rdf-syntax-ns#"
   xmlns:svg="http://www.w3.org/2000/svg"
   xmlns="http://www.w3.org/2000/svg"
   xmlns:sodipodi="http://sodipodi.sourceforge.net/DTD/sodipodi-0.dtd"
   xmlns:inkscape="http://www.inkscape.org/namespaces/inkscape"
   width="256"
   height="256"
   id="svg5274"
   version="1.1"
   inkscape:version="0.48.3.1 r9886"
   sodipodi:docname="applications-internet.svg">
  <defs
     id="defs5276" />
  <sodipodi:namedview
     id="base"
     pagecolor="#ffffff"
     bordercolor="#666666"
     borderopacity="1.0"
     inkscape:pageopacity="0.0"
     inkscape:pageshadow="2"
     inkscape:zoom="0.52426017"
     inkscape:cx="222.00868"
     inkscape:cy="18.247289"
     inkscape:document-units="px"
     inkscape:current-layer="layer1"
     showgrid="false"
     inkscape:window-width="1438"
     inkscape:window-height="827"
     inkscape:window-x="0"
     inkscape:window-y="25"
     inkscape:window-maximized="1" />
  <metadata
     id="metadata5279">
    <rdf:RDF>
      <cc:Work
         rdf:about="">
        <dc:format>image/svg+xml</dc:format>
        <dc:type
           rdf:resource="http://purl.org/dc/dcmitype/StillImage" />
        <dc:title></dc:title>
      </cc:Work>
    </rdf:RDF>
  </metadata>
  <g
     inkscape:label="Capa 1"
     inkscape:groupmode="layer"
     id="layer1"
     transform="translate(0,-796.36218)">
    <rect
       id="rect7046-0-2-9-1-0-8"
       ry="54.991871"
       rx="37.190342"
       height="225.59729"
       width="234.29965"
       transform="matrix(-0.00430507,-0.99999073,0.99998792,-0.00491528,0,0)"
       class="fil3 str0"
       x="-1043.8723"
       y="12.944142"
       style="fill:#b8db7c;fill-rule:evenodd;stroke:#72706f;stroke-width:6.91797876" />
    <path
       style="fill:#1f1a17;fill-rule:evenodd;stroke:#1f1a17;stroke-width:2.78083324"
       inkscape:connector-curvature="0"
       id="_80379776-7-7-5-7-9-6"
       class="fil1 str1"
       d="m 98.373215,808.67111 62.799345,-3.28707 c 27.9102,0.62017 69.56142,-0.32707 78.36495,23.01953 2.98275,7.91173 4.53621,16.05919 4.70464,24.23102 l -1.95121,80.82704 -0.73395,0.01 c -9.07226,-32.11517 -6.50361,-72.1679 -28.63486,-96.33466 -11.82682,-12.67534 -42.56786,-21.89119 -59.98469,-25.59875 l -54.564225,-2.8664 z"
       sodipodi:nodetypes="cccccccccc" />
    <path
       id="path7050-7-1-0-9-3-8"
       d="m 98.373374,808.6727 c 19.510836,-3.23097 106.974186,-1.58279 121.618696,5.73233 13.57851,6.78197 19.38231,20.68467 19.83822,38.28548 l 2.094,80.77625"
       class="fil2"
       inkscape:connector-curvature="0"
       style="fill:none" />
    <path
       id="path7054-6-7-2-3-9-0"
       d="m 16.850834,939.93287 c 0,14.21711 -2.52411,31.05708 -1.391773,45.23509 3.534967,44.26664 20.849883,59.92384 68.29096,56.86514 9.14166,-0.5886 58.532509,1.2917 68.985499,1.2917"
       class="fil2"
       inkscape:connector-curvature="0"
       style="fill:none" />
    <path
       style="font-size:medium;font-style:normal;font-variant:normal;font-weight:normal;font-stretch:normal;text-indent:0;text-align:start;text-decoration:none;line-height:normal;letter-spacing:normal;word-spacing:normal;text-transform:none;direction:ltr;block-progression:tb;writing-mode:lr-tb;text-anchor:start;baseline-shift:baseline;color:#000000;fill:#00923f;fill-opacity:1;fill-rule:evenodd;stroke:#737373;stroke-width:4.80751896;stroke-miterlimit:4;stroke-opacity:1;stroke-dasharray:none;marker:none;visibility:visible;display:inline;overflow:visible;enable-background:accumulate;font-family:Sans;-inkscape-font-specification:Sans"
       d="m 78.221856,824.93414 c -6.591585,-0.0112 -10.992067,1.0216 -10.992067,1.0216 l 4.291828,20.31177 c 0,0 11.149917,-1.97814 20.962548,2.21354 -1.221429,-0.47915 1.341774,1.23553 3.330326,4.32676 2.329081,3.62054 5.298529,8.97292 8.558509,15.369 4.22116,8.28223 8.97355,18.3487 13.94181,29.15055 l -50.444026,113.77294 18.984575,8.4132 42.957431,-96.88658 c 6.84109,15.14561 13.683,30.28705 19.91114,43.19752 7.21112,14.94859 12.74425,26.25767 19.15492,33.52248 9.74548,11.04438 19.67012,16.32498 27.49292,18.42378 7.82311,2.0988 14.5828,0.8013 14.5828,0.8013 l -4.6673,-20.23164 c 0,0 -0.6559,0.41889 -4.5322,-0.62095 -3.87582,-1.03984 -9.93106,-3.74999 -17.30707,-12.10905 -2.15009,-2.43678 -9.01811,-14.27975 -16.02507,-28.80502 -7.0068,-14.52512 -15.00747,-32.37848 -22.93074,-49.89804 -7.92327,-17.51939 -15.75681,-34.68897 -22.6205,-48.15531 -3.43177,-6.73309 -6.60216,-12.52423 -9.59501,-17.17678 -2.99284,-4.65256 -4.36746,-8.30932 -10.91707,-11.41786 -8.763465,-4.15994 -17.545684,-5.21247 -24.137754,-5.22321 z"
       id="path4552-0-2-4"
       inkscape:connector-curvature="0" />
    <path
       style="fill:#000000;fill-rule:evenodd;stroke:none"
       d="m 74.282733,835.15204 c -0.520491,18.46424 15.038724,4.93732 22.5314,10.70346 7.207917,4.95623 32.948017,61.13786 22.161707,46.43983 0,0 -2.84285,-2.52411 -4.67387,-6.37909 -0.1673,-1.79898 -1.9964,-4.26876 -3.20694,-6.94463 -1.21085,-2.67554 -2.55119,-5.68569 -3.9936,-8.94599 -1.2679,-2.86528 -2.60824,-5.92638 -4.03624,-9.1112 -0.45735,-1.01936 -0.92176,-2.05153 -1.40908,-3.08691 -0.16634,-0.35047 -0.33317,-0.70142 -0.50575,-1.05045 l 0,0 c -0.11603,-0.22964 -0.23061,-0.45655 -0.35736,-0.67401 l 0,-0.002 c 0,-0.002 0,-0.003 -0.003,-0.005 l 0,0 c -0.005,-0.01 -0.01,-0.0191 -0.0144,-0.0284 l 0,0 c -0.0145,-0.0295 -0.0282,-0.0592 -0.0436,-0.0883 l 0,0 0,0 c -0.0577,-0.11025 -0.11394,-0.22162 -0.17179,-0.33235 -0.16281,-0.31426 -0.32659,-0.62931 -0.49325,-0.9442 -0.0449,-0.0833 -0.08814,-0.16714 -0.134123,-0.24967 -0.66777,-1.25092 -1.352521,-2.47411 -2.063228,-3.66189 -6.73502,-4.21748 -13.673226,-3.27071 -17.080794,-2.4959 -1.850574,0.41232 -3.619586,0.65093 -5.175619,0.65959 -4.408814,0.48925 -4.742139,-2.47587 -5.752518,-5.857 -9.016335,-30.26477 7.4898,-20.89956 21.566689,-20.42731 3.679196,0.99548 20.410003,7.8683 15.399283,7.54236 -5.23874,-1.54898 -30.0159,-7.68065 -33.860634,-4.03479 z"
       id="path5331-4-0-0-5-0-1-1"
       inkscape:connector-curvature="0"
       sodipodi:nodetypes="cccccccccccscccccccccccccccccc" />
    <path
       style="fill:#000000;fill-rule:evenodd;stroke:none"
       d="m 211.34879,1019.2117 c -0.14022,0.031 -2.83259,-0.8088 -3.54106,-6.0004 -2.4185,-17.27595 2.33854,-11.6999 -7.6994,-15.61881 -0.82401,-0.30237 -1.62174,-0.69561 -2.38149,-1.14278 l 0,0 c -21.45499,-9.73423 -25.23979,-32.63838 -32.17544,-48.94452 -0.88282,-2.01098 -1.91307,-3.89585 -2.64205,-5.91325 -0.10913,-0.30479 -0.14871,-0.47081 -0.11442,-0.48828 l 0,0 0,0 c 0,0 0,0 0,0 0,0 0,0 0,0 l 0,0 -5.96677,-12.49297 c 0.0348,-0.0167 5.73649,10.55795 5.91196,10.82957 1.13778,1.86515 2.65327,5.6804 3.54587,7.31736 1.93471,3.54988 4.5947,8.86523 7.84122,14.6921 1.3764,2.47043 2.85551,5.1009 4.44119,7.84219 1.58552,2.74138 3.27793,5.59339 5.08892,8.50258 1.1224,1.8028 2.2879,3.62602 3.52135,5.43858 0.34854,0.51182 0.69933,1.01856 1.05284,1.51918 1.27928,1.80955 2.57074,3.5419 3.9912,5.07036 3.5002,3.4566 9.46553,6.12283 13.03191,5.97415 1.09852,-0.24717 1.01871,-0.22231 2.69493,-0.83191 1.08714,5.26955 2.86689,14.20525 4.54279,17.94035 0.82881,3.9937 0.86871,7.7728 0.72834,7.8036 z"
       id="path5715-4-6-2"
       inkscape:connector-curvature="0"
       sodipodi:nodetypes="cccccccccccccccccsccccccccc" />
    <path
       style="fill:#000000;fill-rule:evenodd;stroke:none"
       d="m 134.56711,925.81287 c 0.10239,0.0444 -0.53332,1.77766 -1.77911,4.87706 -1.24595,3.09909 -3.10229,7.56447 -5.43426,13.06988 -2.33197,5.50558 -4.51554,11.11531 -7.65661,18.3729 -3.14107,7.25793 -7.23949,16.16367 -10.89769,24.51431 -5.34179,12.193 -8.77645,24.45568 -13.889883,33.27928 -3.764927,8.4854 -12.282247,-1.2925 -17.258675,-3.8494 -3.811081,-1.9578 -6.393839,-3.2703 -7.463669,-3.814 l 0,0 c 0.45367,-0.069 0.675617,-0.033 0.675617,0.01 0,0.039 -0.221152,0.076 -0.624499,0.01 l 0,0 c 1.111981,0.5471 3.709639,-0.3594 7.468482,1.4679 6.798148,1.8841 12.781905,8.0461 15.074133,2.7749 4.025657,-9.1065 8.680134,-18.42047 13.969534,-30.7628 3.56413,-8.3164 7.28403,-16.54075 10.40363,-23.73087 3.11976,-7.19013 5.32737,-12.72182 7.73177,-18.14662 2.40441,-5.42465 5.94178,-10.43039 7.34541,-13.44551 1.40364,-3.01511 2.23341,-4.6633 2.33582,-4.61906 z"
       id="path5720-6-6-9"
       inkscape:connector-curvature="0"
       sodipodi:nodetypes="ccsscccccscccccscccc" />
    <rect
       id="rect7046-0-2-9-5-1-9"
       ry="54.991871"
       rx="37.190342"
       height="225.59729"
       width="234.29965"
       transform="matrix(-0.00430507,-0.99999073,0.99998792,-0.00491528,0,0)"
       class="fil3 str0"
       x="-1043.8723"
       y="12.944142"
       style="fill:#b8db7c;fill-rule:evenodd;stroke:#72706f;stroke-width:6.91797876" />
    <path
       style="fill:#1f1a17;fill-rule:evenodd;stroke:#1f1a17;stroke-width:2.78083324"
       inkscape:connector-curvature="0"
       id="_80379776-7-7-5-5-8-0"
       class="fil1 str1"
       d="m 98.373215,808.67111 62.799345,-3.28707 c 27.9102,0.62017 69.56142,-0.32707 78.36495,23.01953 2.98275,7.91173 4.53621,16.05919 4.70464,24.23102 l -1.95121,80.82704 -0.73395,0.01 c -9.07226,-32.11517 -6.50361,-72.1679 -28.63486,-96.33466 -11.82682,-12.67534 -42.56786,-21.89119 -59.98469,-25.59875 l -54.564225,-2.8664 z"
       sodipodi:nodetypes="cccccccccc" />
    <path
       id="path7050-7-1-0-8-5-2"
       d="m 98.373374,808.6727 c 19.510836,-3.23097 106.974186,-1.58279 121.618696,5.73233 13.57851,6.78197 19.38231,20.68467 19.83822,38.28548 l 2.094,80.77625"
       class="fil2"
       inkscape:connector-curvature="0"
       style="fill:none" />
    <path
       style="fill:#1f1a17;fill-rule:evenodd;stroke:#1f1a17;stroke-width:2.78083324"
       inkscape:connector-curvature="0"
       id="_80692792-8-7-7-6-1-3"
       class="fil1 str1"
       d="m 16.850993,939.93191 c 1.571259,28.98599 -4.170203,63.72829 20.078606,89.31279 6.420121,6.7754 19.736306,9.5876 30.67117,10.2714 l 50.250591,1.1593 34.88416,2.4215 0,0.4549 -68.644644,0.9638 c -17.289278,0.1465 -36.272733,1.3351 -49.88666,-7.6423 -14.260386,-9.4035 -18.845151,-22.9909 -20.803418,-36.0569 -3.085784,-20.60197 0.694043,-40.4019 3.449877,-60.88449 z" />
    <path
       style="fill:#00923f;fill-opacity:1;fill-rule:evenodd;stroke:#737373;stroke-width:2.40375948;stroke-miterlimit:4;stroke-opacity:1;stroke-dasharray:none;display:inline"
       id="path3672"
       inkscape:connector-curvature="0"
       d="m 138.73089,839.5341 c 7.16561,28.22766 -25.297,36.81149 -37.00475,54.39178 -7.973272,11.98002 3.91444,24.81176 20.12042,39.43046 -6.32044,-14.28506 -27.76005,-26.80512 0,-48.72996 34.61607,-27.32546 16.88433,-45.09228 16.88433,-45.09228 z m 21.33208,34.98046 c 0,0 -58.48827,14.59692 -30.53286,46.81145 8.25226,9.49918 -2.12285,17.99743 -2.12285,17.99743 0,0 20.93931,-10.72429 11.32363,-24.26515 -8.98332,-12.62342 -15.95792,-18.91726 21.33208,-40.54373 z m 9.50383,57.52901 c -1.7916,0.0878 -3.6401,0.43684 -5.56086,1.11086 -1.79593,0.63651 -2.72891,2.12283 -2.72891,2.12283 0,0 1.10654,-0.48074 3.63994,-1.00973 10.35331,-2.1581 25.20694,13.86569 -6.87587,30.53271 -0.15353,0.39761 -0.60575,0.91117 -0.60575,0.91117 38.82231,-10.20619 29.46144,-34.55707 12.13145,-33.66784 z m -69.35759,1.61805 c -4.089923,0.10961 -13.742781,0.98555 -24.871063,6.36852 -17.551771,8.48735 43.456773,12.34459 75.019413,4.04377 3.28193,-2.23902 7.78465,-4.14457 7.78465,-4.14457 0,0 -12.91764,2.2565 -25.78224,3.33674 -15.7427,1.31934 -32.570137,1.64001 -41.046275,0.50495 -20.072196,-2.68275 11.020595,-10.10941 11.020595,-10.10941 0,0 -0.76183,-0.0439 -2.12508,0 z m -5.154789,19.41116 c -28.954245,9.60895 16.148949,20.53067 56.617999,8.69376 -4.30065,-1.51501 -7.0778,-4.24617 -7.0778,-4.24617 -19.78678,3.80916 -31.22211,3.61799 -45.698348,2.12301 -11.191743,-1.15701 -3.841851,-6.5706 -3.841851,-6.5706 z m 4.043766,18.70428 c -26.291196,7.34559 16.065613,22.53095 49.540203,8.18869 -5.4817,-2.1294 -9.40271,-4.54894 -9.40271,-4.54894 -14.92814,2.82112 -21.93574,3.06273 -35.48766,1.51711 -11.182929,-1.28439 -4.649833,-5.15686 -4.649833,-5.15686 z m -16.985125,12.43438 c -11.299595,-0.43462 -36.861967,10.80345 -14.963564,14.35743 68.246582,11.06243 124.364102,-4.95473 106.665072,-12.94136 0,0 4.79918,3.99558 -5.35878,7.07769 -19.31902,5.85072 -80.393425,7.5851 -97.363325,0.19769 -6.096574,-2.65408 5.297243,-6.30075 8.897434,-7.07776 3.751949,-0.81007 5.964855,-0.60594 5.964855,-0.60594 -0.847407,-0.5972 -2.22829,-0.94834 -3.841692,-1.01212 z M 184.631,994.32326 c 0,0 -2.18197,5.52571 -25.4768,9.90744 -26.28271,4.9483 -58.62898,4.3863 -77.851366,1.2143 0,0 3.929831,3.2468 24.164196,4.5485 30.7896,1.9694 78.04446,-1.1019 79.16397,-15.67024 z" />
    <path
       sodipodi:nodetypes="ccccsccc"
       id="_81851448-2-3-0-8-1-7-3-6-6"
       class="fil1 str1"
       d="m 166.67156,995.68278 c -1.64754,1.12189 -16.16288,4.35852 -29.97329,4.62142 -41.072875,2.7897 -63.547867,-1.07396 -67.560705,-2.91155 -11.462726,-6.89619 -1.726694,-10.10538 5.042129,-13.92591 -3.176329,2.37395 -19.008768,4.96521 -17.026951,11.01275 1.215981,3.7106 7.277146,6.08441 19.398986,7.45901 51.695411,4.3247 94.558611,0.1338 101.735271,-12.11803 -2.70054,2.53121 -7.71606,4.60421 -11.61544,5.86231 z"
       inkscape:connector-curvature="0"
       style="fill:#000000;fill-opacity:1;fill-rule:nonzero;stroke:none" />
    <g
       style="fill-rule:evenodd"
       id="_79162808-4-6-3-9-2-0-8"
       transform="matrix(0.03110282,-0.01343096,-0.01337059,-0.02760247,147.74035,1021.4031)">
      <path
         style="fill:#1f1a17;stroke:#1f1a17;stroke-width:2.34375"
         inkscape:connector-curvature="0"
         d="m 1133.7551,1532.8818 c 179.7326,-68.4211 490.2816,-29.4784 675.2209,69.693 181.367,97.2558 249.3307,323.297 138.4787,567.7188 -31.009,70.077 -107.8259,156.1192 -173.1147,197.9162 -45.5367,29.1563 -99.7324,38.5992 -151.819,53.1059 l -1.4871,-6.6832 c 91.9078,-46.902 167.68,-86.6402 220.45,-180.292 288.2992,-583.1852 -320.2807,-659.8318 -707.7289,-701.4587 z"
         class="fil2 str1"
         id="_79208600-31-68-5-5-5-0-9"
         sodipodi:nodetypes="csccccccc" />
    </g>
    <path
       sodipodi:nodetypes="cccccsccc"
       id="_81851448-2-3-0-8-1-7-3-6-6-3"
       class="fil1 str1"
       d="m 148.93389,944.10035 c -1.17288,0.70815 -13.06363,3.08306 -22.89517,3.24892 -29.239488,1.76083 -42.167869,-1.17928 -45.024653,-2.33918 -5.404619,-2.9882 -6.205712,-3.24267 -3.120079,-6.18744 l 5.186826,-3.15677 c -2.261133,1.49834 -13.408969,3.24972 -11.998126,7.06689 0.865674,2.34206 4.820023,5.06376 13.449357,5.93152 38.192375,5.29051 70.549705,-2.452 73.285825,-7.82969 -2.38389,1.69241 -6.22061,2.11483 -8.88398,3.26575 z"
       inkscape:connector-curvature="0"
       style="fill:#000000;fill-opacity:1;fill-rule:nonzero;stroke:none" />
    <g
       style="fill-rule:evenodd"
       id="_79162808-4-6-2-8-2-9"
       transform="matrix(-0.02873463,-0.03307353,0.03039826,-0.03665513,124.13399,1029.6346)">
      <path
         style="fill:#1f1a17;stroke:#1f1a17;stroke-width:2.34375"
         inkscape:connector-curvature="0"
         d="m 1282.9417,1439.4891 c 48.8962,222.3671 461.5804,80.0921 623.2906,212.1039 37.2654,27.4741 82.0015,87.9898 87.1901,133.5107 30.3107,265.925 -71.8632,423.3025 -95.9276,516.4122 133.9992,-501.3326 -132.6137,-522.2442 -614.7385,-758.1778 z"
         class="fil2 str1"
         id="_79208600-31-68-2-7-1-9"
         sodipodi:nodetypes="ccsccc" />
    </g>
    <g
       style="fill-rule:evenodd"
       id="_79162808-4-6-2-8-2-9-0"
       transform="matrix(0.02856721,0.03321824,-0.03058301,0.03650112,133.51377,731.1715)">
      <path
         style="fill:#1f1a17;stroke:#1f1a17;stroke-width:2.34375"
         inkscape:connector-curvature="0"
         d="m 1710.6139,1433.2988 c 238.0849,134.3415 361.2253,311.1379 351.8622,458.4924 -11.6932,309.1126 -205.7947,626.1457 -232.3683,647.1953 59.9963,-256.2233 145.8237,-492.5303 129.3215,-686.4108 -13.7592,-161.6543 -109.5424,-288.9468 -248.8154,-419.2769 z"
         class="fil2 str1"
         id="_79208600-31-68-2-7-1-9-2"
         sodipodi:nodetypes="cccsc" />
    </g>
  </g>
</svg>
