<?xml version="1.0" encoding="UTF-8" standalone="no"?>
<!-- Creator: CorelDRAW -->

<svg
   xmlns:dc="http://purl.org/dc/elements/1.1/"
   xmlns:cc="http://creativecommons.org/ns#"
   xmlns:rdf="http://www.w3.org/1999/02/22-rdf-syntax-ns#"
   xmlns:svg="http://www.w3.org/2000/svg"
   xmlns="http://www.w3.org/2000/svg"
   xmlns:sodipodi="http://sodipodi.sourceforge.net/DTD/sodipodi-0.dtd"
   xmlns:inkscape="http://www.inkscape.org/namespaces/inkscape"
   xml:space="preserve"
   width="300px"
   height="300px"
   style="shape-rendering:geometricPrecision; text-rendering:geometricPrecision; image-rendering:optimizeQuality; fill-rule:evenodd; clip-rule:evenodd"
   viewBox="0 0 300 300"
   id="svg1003"
   version="1.1"
   inkscape:version="0.48.3.1 r9886"
   sodipodi:docname="applications-mail.svg"><metadata
   id="metadata1028"><rdf:RDF><cc:Work
       rdf:about=""><dc:format>image/svg+xml</dc:format><dc:type
         rdf:resource="http://purl.org/dc/dcmitype/StillImage" /></cc:Work></rdf:RDF></metadata><sodipodi:namedview
   pagecolor="#ffffff"
   bordercolor="#666666"
   borderopacity="1"
   objecttolerance="10"
   gridtolerance="10"
   guidetolerance="10"
   inkscape:pageopacity="0"
   inkscape:pageshadow="2"
   inkscape:window-width="640"
   inkscape:window-height="480"
   id="namedview1026" />
 <defs
   id="defs1005"><style
     type="text/css"
     id="style1007">
   
    .str1 {stroke:#1F1A17;stroke-width:2.76822}
    .str0 {stroke:#72706F;stroke-width:4.15233}
    .fil2 {fill:none}
    .fil3 {fill:#00923F}
    .fil1 {fill:#1F1A17}
    .fil0 {fill:#B8DB7C}
   
  </style></defs>
 <g
   id="Capa_x0020_1">
  <metadata
   id="CorelCorpID_0Corel-Layer" />
  <g
   id="_67361768">
   <rect
   id="_68172392"
   class="fil0 str0"
   transform="matrix(2.10234 -0.00614609 0.00960583 1.34514 6.47889 57.5982)"
   width="135.856"
   height="140.169"
   rx="21.5644"
   ry="21.5644" />
   <g
   id="g1013">
    <path
   id="_67478784"
   class="fil1 str1"
   d="M293.106 125.251l4.00423 52.4868c-0.754339,23.3278 0.397239,58.1381 -28.0628,65.4946 -9.64447,2.49278 -19.5768,3.78969 -29.5383,3.93087l-98.5305 -1.63325 -0.0110729 -0.61316 98.4101 -5.12812c12.3116,-0.776485 26.0586,-1.9945 36.7841,-8.85414 15.4536,-9.8853 14.2826,-38.917 15.5892,-53.4723l1.35504 -52.2113z" />
   </g>
   <path
   id="_66035096"
   class="fil2"
   d="M293.103 125.251c3.93917,16.3076 1.92806,89.4065 -6.98975,101.648 -8.26866,11.3469 -25.2157,16.1968 -46.6721,16.5775l-98.4696 1.74675" />
   <g
   id="g1017">
    <path
   id="_65375008"
   class="fil1 str1"
   d="M133.094 57.1111c-35.3335,1.3149 -77.6831,-3.48795 -108.875,16.7782 -8.25759,5.36619 -11.686,16.4944 -12.5193,25.6351l-1.41594 41.998 -2.9523 29.1562 -0.555028 0 -1.17234 -57.3727c-0.17855,-14.4501 -1.62633,-30.3161 9.31782,-41.6949 11.4632,-11.9172 28.0268,-15.7484 43.9551,-17.3844 25.1133,-2.57859 49.2494,0.581326 74.2173,2.88448z" />
   </g>
   <path
   id="_67910832"
   class="fil2"
   d="M133.094 57.1125c-17.3304,0 -37.8595,-2.11077 -55.1429,-1.16542 -53.9622,2.9523 -73.0505,17.4245 -69.3217,57.0737 0.716968,7.64166 -1.5765,48.9213 -1.5765,57.6564" />
   <g
   id="g1021">
    <path
   id="_67899296"
   class="fil1 str1"
   d="M24.1264 70.1549l63.2662 48.0466c20.2149,15.4259 44.1392,31.494 70.9522,30.1819 12.8556,-0.629769 25.5423,-5.1475 36.809,-11.3705 17.4038,-9.61402 31.721,-23.6835 46.8811,-36.5488l40.7122 -33.2477 0.418001 0.689286 -37.6893 35.9993c-15.1574,14.1899 -29.8026,29.1535 -47.6812,39.7101 -11.9587,7.05895 -25.5797,12.3532 -39.4499,13.0328 -28.1694,1.37996 -54.3415,-16.6937 -74.7073,-33.8774l-59.5111 -52.6155z" />
   </g>
   <path
   id="_68039424"
   class="fil2"
   d="M24.1264 70.1549c41.18,24.4032 77.7841,82.36 134.217,82.36 9.15173,0 32.0297,-9.15034 38.1294,-12.2009 15.2529,-6.10115 33.5563,-24.4046 47.2811,-38.1308 6.09977,-6.09838 35.1204,-32.1445 39.2021,-34.6221" />
   <path
   id="_67552648"
   class="fil3"
   d="M28.1749 71.8671l82.5815 67.4504c59.8918,42.5641 113.486,-22.7866 156.33,-57.4793l13.1532 -13.1449c4.19523,-4.19246 -18.5208,-10.9981 -34.8615,-11.2666 -107.124,4.47482 -179.823,-7.96001 -217.203,14.4404z" />
  </g>
 </g>
</svg>