<?xml version="1.0" encoding="UTF-8" standalone="no"?>
<!-- Created with Inkscape (http://www.inkscape.org/) -->

<svg
   xmlns:dc="http://purl.org/dc/elements/1.1/"
   xmlns:cc="http://creativecommons.org/ns#"
   xmlns:rdf="http://www.w3.org/1999/02/22-rdf-syntax-ns#"
   xmlns:svg="http://www.w3.org/2000/svg"
   xmlns="http://www.w3.org/2000/svg"
   xmlns:sodipodi="http://sodipodi.sourceforge.net/DTD/sodipodi-0.dtd"
   xmlns:inkscape="http://www.inkscape.org/namespaces/inkscape"
   width="256"
   height="256"
   id="svg5274"
   version="1.1"
   inkscape:version="0.48.3.1 r9886"
   sodipodi:docname="applications-libraries.svg">
  <defs
     id="defs5276" />
  <sodipodi:namedview
     id="base"
     pagecolor="#ffffff"
     bordercolor="#666666"
     borderopacity="1.0"
     inkscape:pageopacity="0.0"
     inkscape:pageshadow="2"
     inkscape:zoom="0.69676743"
     inkscape:cx="264.45402"
     inkscape:cy="-44.671287"
     inkscape:document-units="px"
     inkscape:current-layer="layer1"
     showgrid="false"
     inkscape:window-width="1438"
     inkscape:window-height="827"
     inkscape:window-x="0"
     inkscape:window-y="25"
     inkscape:window-maximized="1" />
  <metadata
     id="metadata5279">
    <rdf:RDF>
      <cc:Work
         rdf:about="">
        <dc:format>image/svg+xml</dc:format>
        <dc:type
           rdf:resource="http://purl.org/dc/dcmitype/StillImage" />
        <dc:title></dc:title>
      </cc:Work>
    </rdf:RDF>
  </metadata>
  <g
     inkscape:label="Capa 1"
     inkscape:groupmode="layer"
     id="layer1"
     transform="translate(0,-796.36218)">
    <g
       transform="matrix(0.16128008,0,0,0.16128008,6285.6148,-1619.6042)"
       style="fill-rule:evenodd"
       id="g7218">
      <rect
         style="fill:#b8db7c;fill-rule:evenodd;stroke:#72706f;stroke-width:43.16974258"
         y="-38955.883"
         x="-16327.134"
         class="fil3 str0"
         transform="matrix(-0.00430507,-0.99999073,0.99998792,-0.00491528,0,0)"
         width="1462.0826"
         height="1407.7778"
         rx="232.07611"
         ry="343.16165"
         id="rect7046-0-2-9-1-0-8-5" />
      <path
         sodipodi:nodetypes="cccccccccc"
         d="m -38380.067,15051.21 391.882,-20.512 c 174.166,3.87 434.079,-2.041 489.015,143.647 18.613,49.371 28.307,100.213 29.358,151.207 l -12.176,504.379 -4.58,0.06 c -56.613,-200.406 -40.584,-450.344 -178.688,-601.15 -73.802,-79.097 -265.633,-136.606 -374.318,-159.742 l -340.493,-17.887 z"
         class="fil1 str1"
         id="_80379776-7-7-5-7-9-6-2"
         inkscape:connector-curvature="0"
         style="fill:#1f1a17;fill-rule:evenodd;stroke:#1f1a17;stroke-width:17.35302544" />
      <path
         style="fill:none"
         inkscape:connector-curvature="0"
         class="fil2"
         d="m -38380.066,15051.22 c 121.752,-20.162 667.543,-9.877 758.928,35.771 84.733,42.321 120.95,129.077 123.795,238.91 l 13.067,504.062"
         id="path7050-7-1-0-9-3-8-0" />
      <path
         style="fill:none"
         inkscape:connector-curvature="0"
         class="fil2"
         d="m -38888.785,15870.313 c 0,88.718 -15.751,193.803 -8.685,282.277 22.059,276.234 130.108,373.939 426.151,354.852 57.046,-3.673 365.256,8.06 430.485,8.06"
         id="path7054-6-7-2-3-9-0-3" />
      <path
         sodipodi:nodetypes="cccccccccc"
         d="m -38380.067,15051.21 391.882,-20.512 c 174.166,3.87 434.079,-2.041 489.015,143.647 18.613,49.371 28.307,100.213 29.358,151.207 l -12.176,504.379 -4.58,0.06 c -56.613,-200.406 -40.584,-450.344 -178.688,-601.15 -73.802,-79.097 -265.633,-136.606 -374.318,-159.742 l -340.493,-17.887 z"
         class="fil1 str1"
         id="_80379776-7-7-5-5-8-0-9"
         inkscape:connector-curvature="0"
         style="fill:#1f1a17;fill-rule:evenodd;stroke:#1f1a17;stroke-width:17.35302544" />
      <path
         style="fill:none"
         inkscape:connector-curvature="0"
         class="fil2"
         d="m -38380.066,15051.22 c 121.752,-20.162 667.543,-9.877 758.928,35.771 84.733,42.321 120.95,129.077 123.795,238.91 l 13.067,504.062"
         id="path7050-7-1-0-8-5-2-6" />
      <path
         d="m -38888.784,15870.307 c 9.805,180.879 -26.023,397.679 125.295,557.332 40.063,42.28 123.159,59.829 191.395,64.096 l 313.575,7.234 217.685,15.111 0,2.839 -428.358,6.014 c -107.889,0.914 -226.35,8.331 -311.304,-47.69 -88.988,-58.68 -117.598,-143.468 -129.818,-225.003 -19.256,-128.561 4.331,-252.117 21.528,-379.933 z"
         class="fil1 str1"
         id="_80692792-8-7-7-6-1-3-1"
         inkscape:connector-curvature="0"
         style="fill:#1f1a17;fill-rule:evenodd;stroke:#1f1a17;stroke-width:17.35302544" />
      <path
         d="m -38553.348,15682.263 311.986,0 0,76.998 -388.982,0 0,-387.985 76.996,0 0,310.987"
         style="font-size:633.29187012px;font-style:normal;font-variant:normal;font-weight:normal;font-stretch:normal;line-height:125%;letter-spacing:0px;word-spacing:0px;fill:#00923f;fill-opacity:1;stroke:none;font-family:Visitor TT2 BRK;-inkscape-font-specification:Visitor TT2 BRK"
         id="path6171"
         inkscape:connector-curvature="0" />
      <path
         d="m -38612.186,15834.003 388.984,0 0,76.997 -311.986,0 0,77.997 311.986,0 0,232.99 -388.984,0 0,-76.998 310.987,0 0,-77.997 -310.987,0 0,-232.989"
         style="font-size:633.29187012px;font-style:normal;font-variant:normal;font-weight:normal;font-stretch:normal;line-height:125%;letter-spacing:0px;word-spacing:0px;fill:#00923f;fill-opacity:1;stroke:none;font-family:Visitor TT2 BRK;-inkscape-font-specification:Visitor TT2 BRK"
         id="path6175"
         inkscape:connector-curvature="0" />
      <path
         d="m -37834.423,15911 77.997,0 0,155.992 -310.987,0 0,154.995 -77.996,0 0,-387.984 310.986,0 0,76.997 -232.99,0 0,77.997 232.99,0 0,-77.997"
         style="font-size:633.29187012px;font-style:normal;font-variant:normal;font-weight:normal;font-stretch:normal;line-height:125%;letter-spacing:0px;word-spacing:0px;fill:#00923f;fill-opacity:1;stroke:none;font-family:Visitor TT2 BRK;-inkscape-font-specification:Visitor TT2 BRK"
         id="path6177"
         inkscape:connector-curvature="0" />
      <g
         transform="matrix(-0.28312805,-0.32588014,0.29952019,-0.36117032,-37783.056,16538.267)"
         id="_79162808-4-6-2-8-2-9-9-1"
         style="fill-rule:evenodd">
        <path
           sodipodi:nodetypes="cscsc"
           id="_79208600-31-68-2-7-1-9-0-6"
           class="fil2 str1"
           d="m 1904.1596,1330.9263 c -85.2603,-218.9442 -292.752,-437.57595 -383.0322,-352.57038 -119.9076,112.90188 -12.0015,-48.4873 -242.6349,238.56218 90.0311,-80.0053 233.3272,-215.0707 287.2137,-160.3277 98.9288,100.5014 258.7787,236.0723 338.4534,274.3359 z"
           inkscape:connector-curvature="0"
           style="fill:#1f1a17;stroke:#1f1a17;stroke-width:2.34375" />
      </g>
      <path
         d="m -37774.585,15371.276 0,76.998 -155.994,0 0,233.989 155.994,0 0,76.998 -388.984,0 0,-76.998 154.995,0 0,-233.989 -154.995,0 0,-76.998 388.984,0"
         style="font-size:633.29187012px;font-style:normal;font-variant:normal;font-weight:normal;font-stretch:normal;line-height:125%;letter-spacing:0px;word-spacing:0px;fill:#00923f;fill-opacity:1;stroke:none;font-family:Visitor TT2 BRK;-inkscape-font-specification:Visitor TT2 BRK"
         id="path6173"
         inkscape:connector-curvature="0" />
      <g
         transform="matrix(-0.32763519,-0.14743142,0.34660414,-0.16339706,-38354.403,16376.451)"
         id="_79162808-4-6-2-8-2-9-9-1-5"
         style="fill-rule:evenodd">
        <path
           sodipodi:nodetypes="cscsc"
           id="_79208600-31-68-2-7-1-9-0-6-4"
           class="fil2 str1"
           d="m 1801.4855,1256.3891 c 122.6738,11.3866 -206.0515,-372.50869 -296.3317,-287.50312 -119.9076,112.90192 -50.5036,22.07683 -281.137,309.12632 90.0311,-80.0053 294.6639,-221.2391 341.6894,-221.4219 114.3212,-0.4443 157.2704,157.1693 235.7793,199.7987 z"
           inkscape:connector-curvature="0"
           style="fill:#1f1a17;stroke:#1f1a17;stroke-width:2.34375" />
      </g>
      <g
         transform="matrix(0.32763519,0.14743142,-0.34660414,0.16339706,-38482.155,15678.977)"
         id="_79162808-4-6-2-8-2-9-9-1-5-3"
         style="fill-rule:evenodd">
        <path
           sodipodi:nodetypes="cscsc"
           id="_79208600-31-68-2-7-1-9-0-6-4-5"
           class="fil2 str1"
           d="m 1801.4855,1256.3891 c 122.6738,11.3866 -206.0515,-372.50869 -296.3317,-287.50312 -119.9076,112.90192 -50.5036,22.07683 -281.137,309.12632 90.0311,-80.0053 294.6639,-221.2391 341.6894,-221.4219 114.3212,-0.4443 157.2704,157.1693 235.7793,199.7987 z"
           inkscape:connector-curvature="0"
           style="fill:#1f1a17;stroke:#1f1a17;stroke-width:2.34375" />
      </g>
      <g
         transform="matrix(0.32763519,0.14743142,-0.34660414,0.16339706,-38015.822,15524.091)"
         id="_79162808-4-6-2-8-2-9-9-1-5-3-7"
         style="fill-rule:evenodd">
        <path
           sodipodi:nodetypes="cscsc"
           id="_79208600-31-68-2-7-1-9-0-6-4-5-8"
           class="fil2 str1"
           d="m 1801.4855,1256.3891 c 122.6738,11.3866 -206.0515,-372.50869 -296.3317,-287.50312 -119.9076,112.90192 -50.5036,22.07683 -281.137,309.12632 90.0311,-80.0053 294.6639,-221.2391 341.6894,-221.4219 114.3212,-0.4443 157.2704,157.1693 235.7793,199.7987 z"
           inkscape:connector-curvature="0"
           style="fill:#1f1a17;stroke:#1f1a17;stroke-width:2.34375" />
      </g>
      <g
         transform="matrix(0.19313005,0.32763519,0.21404448,-0.34660414,-39061.207,15497.856)"
         id="_79162808-4-6-2-8-2-9-9-1-5-3-9"
         style="fill-rule:evenodd">
        <path
           sodipodi:nodetypes="cscsc"
           id="_79208600-31-68-2-7-1-9-0-6-4-5-5"
           class="fil2 str1"
           d="m 1957.7127,1326.8977 c -41.5125,-90.3898 -362.7352,-413.76851 -413.2373,-374.26658 -130.8616,102.35778 -158.063,80.67738 -388.6964,367.72688 90.0311,-80.0053 356.9976,-281.9298 409.9272,-263.7676 121.0572,41.5394 313.4976,227.6779 392.0065,270.3073 z"
           inkscape:connector-curvature="0"
           style="fill:#1f1a17;stroke:#1f1a17;stroke-width:2.34375" />
      </g>
    </g>
  </g>
</svg>
