<?xml version="1.0" encoding="UTF-8" standalone="no"?>
<!-- Created with Inkscape (http://www.inkscape.org/) -->

<svg
   xmlns:dc="http://purl.org/dc/elements/1.1/"
   xmlns:cc="http://creativecommons.org/ns#"
   xmlns:rdf="http://www.w3.org/1999/02/22-rdf-syntax-ns#"
   xmlns:svg="http://www.w3.org/2000/svg"
   xmlns="http://www.w3.org/2000/svg"
   xmlns:sodipodi="http://sodipodi.sourceforge.net/DTD/sodipodi-0.dtd"
   xmlns:inkscape="http://www.inkscape.org/namespaces/inkscape"
   width="256"
   height="256"
   id="svg2"
   version="1.1"
   inkscape:version="0.48.3.1 r9886"
   sodipodi:docname="applications-viewers.svg">
  <defs
     id="defs4">
    <linearGradient
       id="linearGradient39155">
      <stop
         style="stop-color:white;stop-opacity:1;"
         offset="0"
         id="stop39157" />
      <stop
         style="stop-color:#dadada;stop-opacity:1;"
         offset="1"
         id="stop39159" />
    </linearGradient>
    <inkscape:path-effect
       effect="skeletal"
       id="path-effect12193-2-8-7-7"
       is_visible="true"
       pattern="m 24702.514,-7149.6398 c 0,-2.76 2.24,-5 5,-5 2.76,0 5,2.24 5,5 0,2.76 -2.24,5 -5,5 -2.76,0 -5,-2.24 -5,-5 z"
       copytype="single_stretched"
       prop_scale="1"
       scale_y_rel="false"
       spacing="0"
       normal_offset="0"
       tang_offset="0"
       prop_units="false"
       vertical_pattern="false"
       fuse_tolerance="0" />
    <inkscape:path-effect
       effect="skeletal"
       id="path-effect12193-2-8-7"
       is_visible="true"
       pattern="m 25008.298,-7450.5702 c 0,-2.76 2.24,-5 5,-5 2.76,0 5,2.24 5,5 0,2.76 -2.24,5 -5,5 -2.76,0 -5,-2.24 -5,-5 z"
       copytype="single_stretched"
       prop_scale="1"
       scale_y_rel="false"
       spacing="0"
       normal_offset="0"
       tang_offset="0"
       prop_units="false"
       vertical_pattern="false"
       fuse_tolerance="0" />
    <inkscape:path-effect
       effect="skeletal"
       id="path-effect12193-2-8"
       is_visible="true"
       pattern="m 25309.228,-7746.6462 c 0,-2.76 2.24,-5 5,-5 2.76,0 5,2.24 5,5 0,2.76 -2.24,5 -5,5 -2.76,0 -5,-2.24 -5,-5 z"
       copytype="single_stretched"
       prop_scale="1"
       scale_y_rel="false"
       spacing="0"
       normal_offset="0"
       tang_offset="0"
       prop_units="false"
       vertical_pattern="false"
       fuse_tolerance="0" />
    <inkscape:path-effect
       effect="skeletal"
       id="path-effect12193-2"
       is_visible="true"
       pattern="m 25658.696,-8096.1135 c 0,-2.76 2.24,-5 5,-5 2.76,0 5,2.24 5,5 0,2.76 -2.24,5 -5,5 -2.76,0 -5,-2.24 -5,-5 z"
       copytype="single_stretched"
       prop_scale="1"
       scale_y_rel="false"
       spacing="0"
       normal_offset="0"
       tang_offset="0"
       prop_units="false"
       vertical_pattern="false"
       fuse_tolerance="0" />
    <inkscape:path-effect
       effect="skeletal"
       id="path-effect12193"
       is_visible="true"
       pattern="m 25954.548,-8391.5574 c 0,-2.76 2.24,-5 5,-5 2.76,0 5,2.24 5,5 0,2.76 -2.24,5 -5,5 -2.76,0 -5,-2.24 -5,-5 z"
       copytype="single_stretched"
       prop_scale="1"
       scale_y_rel="false"
       spacing="0"
       normal_offset="0"
       tang_offset="0"
       prop_units="false"
       vertical_pattern="false"
       fuse_tolerance="0" />
  </defs>
  <sodipodi:namedview
     id="base"
     pagecolor="#ffffff"
     bordercolor="#666666"
     borderopacity="1.0"
     inkscape:pageopacity="0.0"
     inkscape:pageshadow="2"
     inkscape:zoom="0.77829541"
     inkscape:cx="117.40307"
     inkscape:cy="-16.43643"
     inkscape:document-units="px"
     inkscape:current-layer="layer1"
     showgrid="false"
     inkscape:window-width="1438"
     inkscape:window-height="827"
     inkscape:window-x="0"
     inkscape:window-y="25"
     inkscape:window-maximized="1" />
  <metadata
     id="metadata7">
    <rdf:RDF>
      <cc:Work
         rdf:about="">
        <dc:format>image/svg+xml</dc:format>
        <dc:type
           rdf:resource="http://purl.org/dc/dcmitype/StillImage" />
        <dc:title></dc:title>
      </cc:Work>
    </rdf:RDF>
  </metadata>
  <g
     inkscape:label="Capa 1"
     inkscape:groupmode="layer"
     id="layer1"
     transform="translate(0,-796.36218)">
    <rect
       style="fill:#b8db7c;fill-rule:evenodd;stroke:#72706f;stroke-width:4.13782454"
       y="854.2984"
       x="2.859247"
       id="rect5754-8"
       ry="43.110992"
       rx="38.124176"
       height="159.17955"
       width="228.74542"
       transform="matrix(0.99987804,-0.01561751,0.0156175,0.99987804,0,0)"
       class="fil0 str0" />
    <rect
       style="fill:#b8db7c;fill-rule:evenodd;stroke:#72706f;stroke-width:3.5749712"
       y="831.32208"
       x="165.52669"
       id="rect5756-0"
       height="23.0228"
       width="28.378336"
       transform="matrix(0.99987804,-0.01561747,0.01561758,0.99987804,0,0)"
       class="fil0 str0" />
    <g
       transform="matrix(0.81572157,0,0,0.81572157,9.4809589,800.3394)"
       style="fill-rule:evenodd"
       id="_68662568-5">
      <circle
         d="M 57.894501,0 C 57.894501,31.97425 31.97425,57.894501 0,57.894501 -31.97425,57.894501 -57.894501,31.97425 -57.894501,0 c 0,-31.97425 25.920251,-57.894501 57.894501,-57.894501 31.97425,0 57.894501,25.920251 57.894501,57.894501 z"
         style="fill:none;stroke:#72706f;stroke-width:4.15232992"
         sodipodi:ry="57.894501"
         sodipodi:rx="57.894501"
         sodipodi:cy="0"
         sodipodi:cx="0"
         cy="0"
         cx="0"
         r="57.894501"
         transform="matrix(1.29891,-0.0202882,0.0202882,1.29891,150.834,163.08)"
         class="fil1 str0"
         id="_67696704-5" />
      <circle
         d="M 57.894501,0 C 57.894501,31.97425 31.97425,57.894501 0,57.894501 -31.97425,57.894501 -57.894501,31.97425 -57.894501,0 c 0,-31.97425 25.920251,-57.894501 57.894501,-57.894501 31.97425,0 57.894501,25.920251 57.894501,57.894501 z"
         style="fill:none;stroke:#72706f;stroke-width:4.15232992"
         sodipodi:ry="57.894501"
         sodipodi:rx="57.894501"
         sodipodi:cy="0"
         sodipodi:cx="0"
         cy="0"
         cx="0"
         r="57.894501"
         transform="matrix(0.771358,-0.0120482,0.0120482,0.771358,151.311,162.841)"
         class="fil1 str0"
         id="_67683808-3" />
    </g>
    <g
       transform="matrix(0.81572157,0,0,0.81572157,9.4809589,800.3394)"
       style="fill-rule:evenodd"
       id="_67899552-2">
      <path
         style="fill:#1f1a17"
         inkscape:connector-curvature="0"
         d="m 137.967,119.645 c 12.2937,-2.64365 23.7402,-5.45616 35.7017,0.16056 23.3305,10.9566 33.6228,42.96 20.4087,65.1569 -3.20006,5.37865 -8.26036,11.5255 -13.4798,15.0356 -4.21184,2.83465 -9.232,3.96824 -14.0584,5.53505 l -0.19654,-0.66022 c 10.2632,-6.00565 17.8052,-11.9905 23.3458,-22.8627 9.61402,-18.8654 -0.32942,-47.1787 -18.5332,-57.5319 -10.187,-5.79388 -21.9395,-4.0762 -33.1882,-4.83331 z"
         class="fil2"
         id="_67839448-9" />
    </g>
    <path
       style="fill:none"
       inkscape:connector-curvature="0"
       id="path5763-1"
       d="m 122.02186,897.93641 c 7.82999,0 16.291,-2.68036 24.03182,0.19306 10.92919,4.05667 21.53439,15.10439 23.07893,30.55995 1.73987,17.41441 -1.79635,18.97025 -6.20186,25.77168 -3.86005,5.95796 -8.96462,10.69091 -17.68086,13.26631"
       class="fil1" />
    <g
       transform="matrix(0.81572157,0,0,0.81572157,9.4809589,800.3394)"
       style="fill-rule:evenodd"
       id="_68305584-2">
      <path
         style="fill:#1f1a17"
         inkscape:connector-curvature="0"
         d="m 188.03,97.6987 c -11.423,-4.27274 -21.4911,-8.67974 -33.9259,-9.023 -35.728,-0.985485 -66.1175,28.9763 -72.9301,62.743 -3.84921,19.0799 -0.927353,41.6478 12.7601,56.4315 17.6515,19.0675 46.3026,32.4158 72.5107,26.2925 13.6279,-3.18207 24.8558,-10.2106 36.9197,-16.8584 l 0.37648,0.48582 c -16.9761,11.7109 -34.9404,24.5555 -56.9298,22.3118 -27.5645,-2.81389 -57.776802,-18.7879 -69.109902,-45.3046 -16.6176,-38.881 6.56483,-87.2459 44.233302,-103.764998 13.6293,-5.97796 29.2088,-7.82713 43.7074,-3.99869 8.04029,2.12184 15.0812,6.71846 22.388,10.6853 z"
         class="fil2"
         id="_67806584-4" />
    </g>
    <path
       style="fill:none"
       inkscape:connector-curvature="0"
       id="path5767-2"
       d="m 162.85947,880.03434 c -49.4524,-29.96381 -100.95139,21.97236 -89.904081,70.14198 5.095553,22.21856 24.236159,35.92859 47.957501,42.62839 22.69937,6.41069 44.95742,-7.5534 54.60865,-15.02311"
       class="fil1" />
    <g
       transform="matrix(0.81572157,0,0,0.81572157,9.4809589,800.3394)"
       style="fill-rule:evenodd"
       id="_68147744-8">
      <path
         style="fill:#1f1a17"
         inkscape:connector-curvature="0"
         d="m 160.233,63.7659 c 33.3072,-2.00557 67.114,-7.54201 99.7679,1.65539 23.7402,6.69078 28.6151,32.0615 30.4642,53.4252 l 0.0997,30.3604 0.20484,49.6507 -0.56056,0.0249 -4.48313,-49.4473 c -1.49622,-22.0392 0.64776,-46.4175 -12.0611,-65.877996 -6.48593,-9.93098 -20.8544,-14.3006 -31.6047,-15.9532 l -54.0744,-2.06924 -27.7528,-1.76889 z"
         class="fil2"
         id="_67749944-4" />
    </g>
    <path
       style="fill:none"
       inkscape:connector-curvature="0"
       id="path5771-1"
       d="m 140.18639,852.35576 c 21.3503,2.96376 85.55943,-11.25433 97.90043,19.62732 7.8583,19.66689 5.55728,31.52976 6.43904,50.16019 l 1.91259,40.41874"
       class="fil1" />
    <g
       transform="matrix(0.81572157,0,0,0.81572157,9.4809589,800.3394)"
       style="fill-rule:evenodd"
       id="_67797120-6">
      <path
         style="fill:#1f1a17"
         inkscape:connector-curvature="0"
         d="m 9.48253,147.381 c 2.43326,27.9507 2.67687,56.2294 12.6272,82.7711 5.68453,15.1643 21.3803,25.3389 37.2284,26.5984 l 70.3819,2.00557 0.007,0.40831 -70.935599,3.76754 c -18.7298,-0.69482 -36.928,-12.003 -42.9627,-30.175 -3.10594,-9.35242 -5.78696,-18.9401 -6.5814405,-28.7632 l 0.235298,-56.6128 z"
         class="fil2"
         id="_67892472-2" />
    </g>
    <path
       style="fill:none"
       inkscape:connector-curvature="0"
       id="path5775-9"
       d="m 17.214911,920.56044 c 0,23.78227 -0.998157,70.48867 19.340579,84.14656 15.070619,10.1219 26.535948,7.655 44.019335,7.393 l 34.723835,-0.5205"
       class="fil1" />
    <g
       transform="matrix(0.81572157,0,0,0.81572157,9.4809589,800.3394)"
       style="fill-rule:evenodd"
       id="_68061056-7">
      <path
         style="fill:#1f1a17;stroke:#1f1a17;stroke-width:2.76821995"
         inkscape:connector-curvature="0"
         d="m 231.931,33.8774 c -1.254,0.09827 -20.1623,-0.332186 -20.2813,2.92462 -0.0803,2.10385 -1.45055,2.70593 -2.11353,5.04231 -1.77443,6.27278 -1.5765,12.8224 -1.89761,19.2696 l -0.036,0 -2.2035,-19.7886 c -0.13149,-3.60699 0.19793,-8.94826 5.05061,-9.27491 7.47834,-0.503816 14.1276,0.967492 21.4814,1.82702 z"
         class="fil2 str1"
         id="_67756240-6" />
    </g>
    <path
       style="fill:none"
       inkscape:connector-curvature="0"
       id="path5779-7"
       d="m 198.67112,827.97507 c -5.42949,-1.1821 -11.09057,-0.11854 -16.52583,0.23484 -5.42266,0.35227 -3.30465,17.96432 -3.30465,21.98255"
       class="fil1" />
    <circle
       transform="matrix(0.81572157,0,0,0.81572157,9.4809589,800.3394)"
       style="fill:#00923f;fill-rule:evenodd"
       sodipodi:ry="43.006302"
       sodipodi:rx="43.006302"
       sodipodi:cy="163.002"
       sodipodi:cx="151.157"
       id="circle5781-6"
       r="43.006302"
       cy="163.002"
       cx="151.157"
       class="fil3" />
  </g>
</svg>
