<?xml version="1.0" encoding="UTF-8" standalone="no"?>
<!-- Created with Inkscape (http://www.inkscape.org/) -->

<svg
   xmlns:dc="http://purl.org/dc/elements/1.1/"
   xmlns:cc="http://creativecommons.org/ns#"
   xmlns:rdf="http://www.w3.org/1999/02/22-rdf-syntax-ns#"
   xmlns:svg="http://www.w3.org/2000/svg"
   xmlns="http://www.w3.org/2000/svg"
   xmlns:sodipodi="http://sodipodi.sourceforge.net/DTD/sodipodi-0.dtd"
   xmlns:inkscape="http://www.inkscape.org/namespaces/inkscape"
   width="256"
   height="256"
   id="svg2"
   version="1.1"
   inkscape:version="0.48.3.1 r9886"
   sodipodi:docname="applications-science.svg">
  <defs
     id="defs4" />
  <sodipodi:namedview
     id="base"
     pagecolor="#ffffff"
     bordercolor="#666666"
     borderopacity="1.0"
     inkscape:pageopacity="0.0"
     inkscape:pageshadow="2"
     inkscape:zoom="1.0171971"
     inkscape:cx="113.78399"
     inkscape:cy="197.98414"
     inkscape:document-units="px"
     inkscape:current-layer="layer1"
     showgrid="false"
     inkscape:window-width="1438"
     inkscape:window-height="827"
     inkscape:window-x="0"
     inkscape:window-y="25"
     inkscape:window-maximized="1" />
  <metadata
     id="metadata7">
    <rdf:RDF>
      <cc:Work
         rdf:about="">
        <dc:format>image/svg+xml</dc:format>
        <dc:type
           rdf:resource="http://purl.org/dc/dcmitype/StillImage" />
        <dc:title />
      </cc:Work>
    </rdf:RDF>
  </metadata>
  <g
     inkscape:label="Capa 1"
     inkscape:groupmode="layer"
     id="layer1"
     transform="translate(0,-796.36218)">
    <g
       id="g4331"
       transform="matrix(0.03773395,0,0,0.03694637,125.65496,888.11043)">
      <path
         sodipodi:nodetypes="sccccccsccscssccccscscsccss"
         inkscape:connector-curvature="0"
         id="path8926"
         d="m -42.378,-2383.604 c -171.119,0.487 -251.235,148.36 -251.235,148.36 l -749.828,3522.484 561.406,124.75 351.938,-1623.156 c 50.202,20.881 295.8,127.491 517.687,303.281 451.56,379.428 930.622,1493.326 410.094,2195.469 -53.632,57.056 -177.16,187.271 -334.469,263.875 -184.806,89.995 -402.343,122.687 -402.343,122.687 l -1560.969,-3.124 c 0,0 -53.558,20.104 -53.438,97.843 0.135,87.296 53.438,104.875 53.438,104.875 0,0 690.861,21.042 939.593,121.719 105.171,42.569 273.09,164.481 345.536,317.764 63.748,134.879 38.693,305.738 38.693,305.738 l 3.24,489.873 460.5,10.781 c 4.061,-147.843 -13.303,-329.65 7.313,-478.593 464.327,-213.774 816.894,-625.609 993.031,-1044.126 236.344,-561.576 207.75,-1123.5 207.75,-1123.5 0,0 -10.337,-256.708 -83.844,-523.968 -66.395,-241.402 -192.407,-490.065 -264.593,-590 C 1052.671,228.673 914.34,39.472 739.746,-119.135 434.638,-396.307 74.725,-642.966 -22.347,-708.104 L 282.09,-2112.322 c 0,0 -23.398,-191.819 -222.125,-254.969 -36.469,-11.589 -70.655,-16.403 -102.343,-16.313 z"
         style="fill:#b8db7c;fill-opacity:1;fill-rule:evenodd;stroke:#737373;stroke-width:20;stroke-miterlimit:4;stroke-opacity:1;stroke-dasharray:none" />
      <rect
         transform="matrix(0.96234715,0.2718234,-0.30431735,0.95257071,0,0)"
         rx="250.2975"
         y="1345.8596"
         x="-701.98901"
         height="328.17166"
         width="750.8678"
         id="rect8938"
         style="fill:#00923f;fill-opacity:1;fill-rule:evenodd;stroke:none" />
      <rect
         inkscape:transform-center-y="52.60417"
         inkscape:transform-center-x="116.16137"
         transform="matrix(0.97231269,0.23368362,-0.23368362,0.97231269,0,0)"
         rx="0"
         y="1562.2485"
         x="-643.10669"
         height="284.97687"
         width="164.17166"
         id="rect8940"
         style="fill:#00923f;fill-opacity:1;fill-rule:evenodd;stroke:none" />
      <rect
         inkscape:transform-center-y="52.447765"
         inkscape:transform-center-x="116.23117"
         transform="matrix(0.97199784,0.23498978,-0.23498978,0.97199784,0,0)"
         rx="0"
         y="1562.1696"
         x="-412.52454"
         height="284.97687"
         width="164.17166"
         id="rect8940-5"
         style="fill:#00923f;fill-opacity:1;fill-rule:evenodd;stroke:none" />
      <rect
         transform="matrix(0.9999996,-8.9250038e-4,-0.12455797,0.99221233,0,0)"
         rx="206.39833"
         y="4066.5183"
         x="-1011.3718"
         height="330.59628"
         width="3117.2268"
         id="rect8938-0"
         style="fill:#00923f;fill-opacity:1;fill-rule:evenodd;stroke:none" />
      <g
         transform="matrix(14.615428,0,0,8.4104916,-2185.289,2116.146)"
         id="_81071816-5-2"
         style="fill-rule:evenodd">
        <path
           sodipodi:nodetypes="ccccccccccc"
           style="fill:#1f1a17;stroke:#1f1a17;stroke-width:2.76821995"
           inkscape:connector-curvature="0"
           id="_81851448-0-3"
           class="fil1 str1"
           d="m 59.6039,230.051 c -3.74401,1.73014 -8.07074,3.13777 -9.877,7.20844 -3.85197,8.67559 2.12045,18.4086 10.7005,20.3021 17.8536,3.94194 35.764,2.04433 53.8654,2.48586 l 96.4558,4.68936 -0.008,0.3571 -133.057005,1.50314 c -8.38908,-0.80002 -27.59701,4.73287 -31.42131,-5.51227 -2.49555,-6.68248 -3.00288,-23.32703 3.47752,-28.39003 3.09902,-2.42357 6.12191,-2.57444 9.86454,-2.64365 z" />
      </g>
      <g
         transform="matrix(4.3582831,1.739588,-1.1528515,6.5764036,-1043.482,-454.182)"
         id="_81071816-5-3"
         style="fill-rule:evenodd">
        <path
           sodipodi:nodetypes="ccccccccccc"
           style="fill:#1f1a17;stroke:#1f1a17;stroke-width:2.76821995"
           inkscape:connector-curvature="0"
           id="_81851448-0-9"
           class="fil1 str1"
           d="m 59.74832,230.59697 c -3.74401,1.73014 -7.760561,5.97658 -9.566821,10.04725 -3.85197,8.67559 1.253932,15.13278 9.833982,17.02628 23.598984,7.27949 87.587479,3.23691 131.096949,-7.15989 l -1.89022,2.47335 c -20.75838,7.92422 -45.50941,9.13235 -65.51714,11.29273 l -45.269848,1.8294 c -8.38908,-0.80002 -27.152127,-1.70705 -30.976427,-11.95219 -2.49555,-6.68248 -1.562118,-14.75712 4.918282,-19.82012 3.09902,-2.42357 13.226265,-7.37454 16.968895,-7.44375 z" />
      </g>
      <g
         transform="matrix(0.44993002,-2.3796493,-1.0143402,-1.5494116,2332.88,8013.867)"
         id="_79162808-4-6-2-3-4"
         style="fill-rule:evenodd">
        <path
           sodipodi:nodetypes="ccccccc"
           id="_79208600-31-68-2-5-5"
           class="fil2 str1"
           d="m 1163.6141,1609.2263 c 189.1944,-109.135 547.5543,-100.6557 645.2966,13.2627 246.7283,208.8418 28.2113,1100.8707 -108.456,1313.8693 l -8.0831,-10.5383 C 1858.4295,2586.4518 1901.5258,1892.2869 1798.7125,1744.6653 1645.7338,1563.87 1345.6686,1534.9117 1160.6607,1614.151 z"
           inkscape:connector-curvature="0"
           style="fill:#1f1a17;stroke:#1f1a17;stroke-width:2.34375" />
      </g>
      <path
         inkscape:connector-curvature="0"
         d="m -272.747,-699.058 c 3.151,-57.614 31.292,-108.47 73.595,-144.475 41.63,-35.394 97.532,-57.005 158.596,-57.005 61.026,0 116.928,21.611 158.548,57.005 42.35,36.005 70.456,86.823 73.645,144.437 3.267,59.295 -20.436,114.351 -61.978,155.129 -42.35,41.541 -102.734,67.618 -170.215,67.618 -67.519,0 -127.904,-26.077 -170.251,-67.618 -41.585,-40.778 -65.206,-95.834 -61.94,-155.091 z"
         id="path2478-5"
         style="fill:#00923f;fill-opacity:1;fill-rule:evenodd;stroke:#737373;stroke-width:20.68692589;stroke-miterlimit:4;stroke-opacity:1;stroke-dasharray:none" />
      <g
         transform="matrix(-0.07304763,-0.3596994,0.527605,-0.05642341,-1017.273,-122.464)"
         id="_79162808-4-9-0-1-1-3-7-7"
         style="fill-rule:evenodd">
        <path
           sodipodi:nodetypes="cscccccc"
           id="_79208600-31-6-4-8-6-2-5-3"
           class="fil2 str1"
           d="m 812.64616,1691.1917 c 155.90955,-195.6 683.94054,-136.0402 873.14364,6.0251 129.5674,97.2872 239.3796,275.5714 152.6902,520.9901 -30.5613,67.2231 -78.5187,129.6524 -143.5015,169.4986 -45.3233,27.7954 -99.417,36.588 -151.3728,50.2613 l -142.6901,-2.4821 c 955.1298,-306.7465 93.7799,-1158.2448 -602.7184,-705.5957 z"
           inkscape:connector-curvature="0"
           style="fill:#1f1a17;stroke:#1f1a17;stroke-width:2.29734349" />
      </g>
      <g
         transform="matrix(-0.6629004,-0.13333117,0.19112216,-0.26077471,-658.671,3506.148)"
         id="_79162808-4-6-3-9-2-0-3-7"
         style="fill-rule:evenodd">
        <path
           sodipodi:nodetypes="csccccccc"
           id="_79208600-31-68-5-5-5-0-1-0"
           class="fil2 str1"
           d="m 1088.2055,1788.5539 c 179.7326,-68.4211 491.7951,-329.0305 676.7344,-229.8591 181.367,97.2558 303.4151,412.6228 192.5631,657.0446 -31.009,70.077 -117.8742,110.6734 -183.163,152.4704 -45.5367,29.1563 -99.7324,38.5992 -151.819,53.1059 l -100.229,-22.5928 c 91.9078,-46.902 342.8289,-154.06 351.6533,-269.5064 -86.7978,-793.04 -674.7679,-403.8212 -862.825,-387.4503 z"
           inkscape:connector-curvature="0"
           style="fill:#1f1a17;stroke:#1f1a17;stroke-width:2.34375" />
      </g>
      <g
         transform="matrix(0.44345143,-0.63638893,0.44657604,0.22708881,-1695.601,-1586.587)"
         id="_79162808-4-6-3-9-2-0-3-7-2"
         style="fill-rule:evenodd">
        <path
           sodipodi:nodetypes="csccccc"
           id="_79208600-31-68-5-5-5-0-1-0-9"
           class="fil2 str1"
           d="m 1095.0936,1857.6027 c 179.7326,-68.4211 485.5047,-400.0666 669.8463,-298.9079 108.7956,59.7024 197.8905,365.6315 192.5631,657.0446 2.0939,271.6355 -176.9664,534.2631 -512.9198,652.0956 160.2348,-215.5594 417.2551,-331.1955 429.3621,-738.6185 -86.7978,-793.04 -645.4284,-241.0721 -833.4855,-224.7012 z"
           inkscape:connector-curvature="0"
           style="fill:#1f1a17;stroke:#1f1a17;stroke-width:2.34375" />
      </g>
    </g>
  </g>
</svg>
