<?xml version="1.0" encoding="UTF-8" standalone="no"?>
<!-- Created with Inkscape (http://www.inkscape.org/) -->

<svg
   xmlns:dc="http://purl.org/dc/elements/1.1/"
   xmlns:cc="http://creativecommons.org/ns#"
   xmlns:rdf="http://www.w3.org/1999/02/22-rdf-syntax-ns#"
   xmlns:svg="http://www.w3.org/2000/svg"
   xmlns="http://www.w3.org/2000/svg"
   xmlns:sodipodi="http://sodipodi.sourceforge.net/DTD/sodipodi-0.dtd"
   xmlns:inkscape="http://www.inkscape.org/namespaces/inkscape"
   width="256"
   height="256"
   id="svg2"
   version="1.1"
   inkscape:version="0.48.3.1 r9886"
   sodipodi:docname="applications-sports.svg">
  <defs
     id="defs4" />
  <sodipodi:namedview
     id="base"
     pagecolor="#ffffff"
     bordercolor="#666666"
     borderopacity="1.0"
     inkscape:pageopacity="0.0"
     inkscape:pageshadow="2"
     inkscape:zoom="0.99064636"
     inkscape:cx="240.34332"
     inkscape:cy="45.064373"
     inkscape:document-units="px"
     inkscape:current-layer="layer1"
     showgrid="false"
     inkscape:window-width="1438"
     inkscape:window-height="827"
     inkscape:window-x="0"
     inkscape:window-y="25"
     inkscape:window-maximized="1" />
  <metadata
     id="metadata7">
    <rdf:RDF>
      <cc:Work
         rdf:about="">
        <dc:format>image/svg+xml</dc:format>
        <dc:type
           rdf:resource="http://purl.org/dc/dcmitype/StillImage" />
        <dc:title />
      </cc:Work>
    </rdf:RDF>
  </metadata>
  <g
     inkscape:label="Capa 1"
     inkscape:groupmode="layer"
     id="layer1"
     transform="translate(0,-796.36218)">
    <g
       style="fill-rule:evenodd"
       id="g4767"
       transform="matrix(0.07481197,0,0,0.07481197,1359.7497,679.23544)">
      <path
         transform="matrix(60.684386,0,0,60.684386,-17457.736,4075.4344)"
         d="m 42.345785,-12.985403 c 0,13.77355316 -11.165671,24.939224 -24.939224,24.939224 -13.7735533,0 -24.9392243,-11.16567084 -24.9392243,-24.939224 0,-13.773553 11.165671,-24.939224 24.9392243,-24.939224 13.773553,0 24.939224,11.165671 24.939224,24.939224 z"
         sodipodi:ry="24.939224"
         sodipodi:rx="24.939224"
         sodipodi:cy="-12.985403"
         sodipodi:cx="17.406561"
         id="path3280"
         style="fill:#b8db7c;fill-opacity:1;stroke:none"
         sodipodi:type="arc" />
      <g
         style="fill:#00923f;fill-opacity:1;stroke:#737373;stroke-width:2.59707451;stroke-miterlimit:4;stroke-opacity:1;stroke-dasharray:none"
         transform="matrix(10.630755,0,0,10.630755,-20113.673,-396.67956)"
         id="g3276">
        <path
           inkscape:connector-curvature="0"
           d="m 337.3718,491.22036 c -60.89654,-4.18869 -114.37185,-52.39588 -129.46432,-110.75899 -13.92403,-60.51714 13.72781,-128.66429 67.68081,-160.25865 34.70364,-20.81281 78.2499,-23.41489 116.65645,-12.57385 47.44169,14.63915 83.55397,57.02856 96.23054,104.32247 11.38837,43.58236 3.17457,93.06821 -27.09434,127.41088 -27.41441,34.28749 -71.2356,54.04117 -115.05713,52.27724 -2.98696,-0.0622 -5.97228,-0.2033 -8.95201,-0.4191 z m 36.29688,-6.85895 c 10.92736,-0.95742 9.00668,-4.32212 -0.9325,-5.17607 -17.75675,-3.43155 -36.92973,-3.52104 -54.06707,2.49666 15.08558,7.30376 35.12626,5.42321 52.01419,3.24388 l 2.98537,-0.56444 10e-6,-3e-5 z m -53.80094,-9.6405 c 7.79814,-7.98981 -0.3374,-27.08126 -7.15236,-34.64588 -15.23187,-7.80355 -27.04294,-20.55891 -40.97467,-30.1777 -10.4926,-3.83459 -20.72665,3.45458 -30.86891,5.92416 -0.0453,10.06365 -0.69909,21.42632 8.12118,28.42355 14.52004,14.39052 32.04554,27.00539 51.82501,32.7376 6.35328,0.2972 13.02508,-0.0906 19.04975,-2.26173 z m 83.50406,0.40246 c 25.2731,-10.93528 48.98049,-28.50829 63.2323,-52.42352 5.13135,-6.88218 8.89925,-18.93073 -4.5039,-14.94624 -16.8365,10.62444 -32.04004,23.77389 -49.28802,33.83891 -10.45753,8.30307 -17.99077,19.72916 -25.42508,30.65607 2.59201,6.05314 11.01627,4.60982 15.9847,2.87478 z m 17.13239,-43.94226 c 12.7044,-10.45978 31.08633,-17.19825 37.7558,-33.0647 3.01347,-12.47686 3.2502,-25.38938 4.50677,-38.11675 -12.65901,-11.27445 -28.20607,-18.91974 -43.40605,-26.14359 -15.02198,1.20729 -27.16256,14.59192 -39.04242,23.2659 -6.33008,3.50729 -4.70501,11.38786 -6.42498,17.42952 -2.30162,14.12723 -4.96693,28.21133 -6.50128,42.44908 11.81933,8.77601 25.0137,16.83067 39.3852,20.2164 5.19325,0.0642 9.50804,-3.46642 13.72696,-6.03586 z m -90.61231,2.20203 c 11.50499,-4.40398 26.72917,-7.73003 32.13049,-19.95981 4.00512,-17.1369 6.23275,-34.67423 8.34942,-52.1312 -11.4304,-10.90503 -23.63443,-22.40262 -38.62218,-28.09335 -12.92896,-0.20831 -23.88695,8.96591 -35.39189,13.97725 -15.4786,4.214 -20.85474,18.33837 -21.53182,32.92606 -4.5414,14.43016 0.67048,29.25358 13.72268,37.20722 11.39983,8.43045 26.05135,21.87282 41.3433,16.07383 z M 233.59595,413.1592 c -9.33393,-17.31252 -15.77141,-36.27206 -18.34117,-55.7779 -9.23086,1.86406 -0.84093,24.5857 1.70252,33.85674 4.35238,12.52291 11.01099,24.03493 17.9145,35.29195 1.2625,-4.63161 2.01105,-9.23172 -1.27585,-13.37079 z m -4.02011,-77.06885 c 4.07612,-5.83801 10.56366,-10.44653 13.00862,-17.1162 4.31532,-20.19196 11.35412,-39.68498 21.42169,-57.7371 -0.4253,-11.66345 -13.41464,-18.74931 -19.88183,-5.89725 -18.42823,23.79114 -32.88422,52.78174 -33.52045,83.38008 -2.42306,10.49451 6.68447,18.12925 11.93101,5.70262 2.35073,-2.77421 4.69722,-5.55212 7.04096,-8.33215 z m 237.29596,14.46582 c 7.81119,-10.27829 18.6065,-22.4778 15.79925,-36.39965 -4.88805,-26.39812 -18.4071,-51.46203 -39.17346,-68.66578 -6.16521,-2.62148 -17.43286,-12.26834 -21.73379,-3.15655 -6.35676,12.24228 -22.16707,23.81573 -16.47055,39.06166 4.88321,15.04985 8.44596,30.78002 15.56456,44.95207 13.0946,10.24736 28.26311,18.21172 43.51398,24.93358 l 2.5,-0.72533 1e-5,0 z m -174.23004,-6.84411 c 12.09194,-6.12111 23.83701,-12.88927 35.62824,-19.56275 3.976,-13.92641 8.96642,-27.53221 13.61566,-41.22562 0.65014,-14.80698 -12.52611,-25.44538 -21.34045,-35.83006 -8.65588,-13.89097 -23.30422,-3.23609 -33.9899,1.84401 -23.51763,12.59108 -28.91693,40.30909 -36.90725,63.44609 1.10865,8.66403 9.02228,15.89554 14.79833,22.37251 7.98291,8.03256 16.95796,18.7665 28.19537,8.95582 z m 86.73004,-74.84467 c 6.25549,-0.86019 13.24173,-0.23049 19.0487,-2.00514 8.68662,-9.3757 16.33272,-20.35969 19.95129,-32.68207 -4.3678,-12.42193 -18.83931,-18.08332 -30.4572,-22.31162 -14.80112,-4.41469 -30.64906,-6.5768 -46.01186,-4.83242 -11.08866,5.67662 -30.97917,22.15027 -19.74859,34.91869 8.22602,9.81853 16.98199,19.17505 25.89765,28.36666 10.45927,0.10211 20.89433,-0.71595 31.32001,-1.4541 z"
           id="path1458"
           style="fill:#00923f;fill-opacity:1;stroke:#737373;stroke-width:2.59707451;stroke-miterlimit:4;stroke-opacity:1;stroke-dasharray:none" />
        <g
           style="fill:#00923f;fill-opacity:1;stroke:#737373;stroke-width:2.59707236;stroke-miterlimit:4;stroke-opacity:1;stroke-dasharray:none"
           id="volley"
           inkscape:label="volley-ball"
           transform="matrix(-0.01214889,0.999927,0.999927,0.01214889,15.79501,398.1419)" />
      </g>
      <g
         transform="matrix(13.261032,0,0,13.26031,-18384.69,1257.5891)"
         id="g3960-5-2"
         style="fill:#000000;fill-opacity:1;fill-rule:evenodd">
        <path
           style="fill:#000000;fill-opacity:1"
           d="M 204.103,49.2784 C 186.9982,42.82015 172.4014,36.4879 153.7076,36.301 87.0129,35.632476 31.9516,102.2884 36.4516,166.864 c 2.61043,37.4651 24.68,67.2967 57.6633,84.7448 33.3778,17.6557 71.2456,21.0274 106.114,6.09285 11.7165,-5.01878 19.3111,-11.7137 28.3991,-20.1762 l 0.54119,0.36264 c -5.0257,5.62086 -9.68599,11.6404 -15.9242,15.8743 -62.7389,42.5669 -164.799004,6.29077 -182.043004,-68.7418 -13.0867,-56.9353 21.5879,-118.438004 73.820004,-142.285004 20.3838,-9.30536 43.7157,-12.9262 65.7604,-7.90741 11.866,2.7004 22.4156,9.05069 33.321,14.4501 z"
           class="fil2"
           id="_67468136-3-33"
           inkscape:connector-curvature="0" />
      </g>
      <path
         sodipodi:nodetypes="scccccsscccccsccccs"
         inkscape:connector-curvature="0"
         id="path4613"
         d="m -17173.078,3891.1976 c 0.572,-0.4859 21.027,22.0489 52.73,58.3714 140.928,96.4328 147.041,129.6566 346.296,197.4434 190.243,30.2468 287.482,-27.4593 407.926,-103.5662 42.124,-29.5385 72.65,-73.4357 73.233,-107.2185 21.292,-128.9796 43.917,-212.2424 56.695,-295.787 14.888,-97.3382 43.346,-159.9538 44.439,-159.7948 1.093,0.159 -6.306,58.0499 -19.841,156.116 -12.316,89.2348 -29.714,211.7368 -50.271,354.0268 -9.172,38.4793 -23.021,56.6028 -40.267,68.6587 -28.031,19.5873 -57.664,38.4379 -88.684,56.3473 -31.505,18.1918 -64.486,35.4201 -98.882,51.0202 -9.807,4.4481 -19.641,8.7234 -29.495,12.819 -25.243,10.4937 -50.653,19.8156 -76.085,27.6908 -25.432,7.8752 -50.885,14.3032 -76.211,19.0928 -13.789,2.6014 -27.703,3.4461 -41.365,2.9054 -14.507,-0.5743 -28.721,-2.6654 -42.461,-5.7832 -144.738,-46.6025 -282.689,-175.6344 -375.626,-278.6399 -30.762,-37.1882 -42.703,-53.2163 -42.131,-53.7022 z"
         style="fill:#000000;stroke:none" />
      <path
         sodipodi:nodetypes="ccccsscccccscccsc"
         inkscape:connector-curvature="0"
         id="path4613-1"
         d="m -15574.144,2125.5788 c -184.515,217.0258 -208.682,375.0161 -209.802,452.8836 13.131,216.6951 112.491,384.5487 213.64,497.6841 48.841,71.3275 134.294,124.4098 278.948,197.6273 40.879,24.8421 77.895,30.2122 149.244,45.1569 1.218,0.2551 43.298,8.2119 -54.315,25.32 -51.356,9.0009 -139.249,-54.0539 -278.564,-134.5328 -28.593,-22.2873 -72.742,-48.789 -88.354,-64.6959 -25.368,-25.8566 -63.147,-62.0565 -87.549,-91.6214 -24.786,-30.0266 -26.862,-48.7388 -49.77,-82.5969 -6.531,-9.6535 -26.604,-57.7502 -32.803,-67.5444 -15.881,-25.0893 -30.657,-50.6582 -44.028,-76.6165 -13.371,-25.9583 -25.337,-52.3051 -35.677,-78.9261 -5.623,-14.4958 -9.563,-29.5724 -12.096,-44.722 -2.689,-16.0867 -3.835,-32.2345 -3.874,-48.1206 -3.409,-34.9665 -11.757,-121.4079 8.572,-187.7808 45.743,-149.3478 158.731,-308.4445 246.428,-341.5145 z"
         style="fill:#000000;fill-rule:evenodd;stroke:none" />
      <path
         sodipodi:nodetypes="scccccsscccccsccccs"
         inkscape:connector-curvature="0"
         id="path4613-4"
         d="m -17462.923,2945.5318 c -14.319,-27.1601 8.734,13.467 43.071,47.3103 119.988,131.8835 112.374,194.6431 290.693,270.4437 180.402,-23.4474 298.5,-109.1116 415.212,-182.4627 23.591,-16.4127 103.971,-67.104 102.019,-100.8354 43.964,-125.5841 111.2,-321.4013 117.678,-405.6688 7.548,-98.1804 -160.866,-266.903 -159.765,-266.8261 1.102,0.077 225.207,144.5948 181.703,333.0606 -20.26,87.7726 -62.358,187.91 -95.332,333.6552 -6.261,39.0587 -18.713,58.1695 -35.006,71.4845 -26.484,21.6339 -54.62,42.6532 -84.21,62.838 -30.052,20.5027 -61.648,40.1554 -94.778,58.2905 -9.446,5.1709 -18.932,10.1714 -28.451,14.9943 -24.385,12.3569 -49.025,23.5577 -73.795,33.3175 -24.769,9.7599 -49.669,18.0782 -74.564,24.7532 -13.556,3.6279 -52.826,28.6578 -66.49,29.1429 -14.509,0.515 -89.015,29.583 -102.95,27.5042 -147.825,-35.6193 -227.943,-207.1766 -309.827,-302.9241 -33.463,-34.7771 -16.268,-31.1198 -25.208,-48.0778 z"
         style="fill:#000000;fill-rule:evenodd;stroke:none" />
      <path
         sodipodi:nodetypes="ssccscccsscccsccs"
         inkscape:connector-curvature="0"
         id="path4613-4-4"
         d="m -17872.702,3027.2038 c 0.753,24.6893 3.609,-52.819 18.985,-68.0031 29.34,-28.9753 -10.132,204.7732 -9.366,244.7105 -11.657,76.296 8.313,83.468 26.667,106.2665 23.734,4.929 33.443,-17.0384 46.006,-27.6407 74.063,-62.5018 125.769,-146.0109 181.161,-209.1169 14.229,-16.4127 62.71,-67.104 61.533,-100.8354 26.516,-125.5841 71.577,-248.8196 152.013,-446.0587 119.315,-238.4692 23.179,-254.4905 -46.205,-288.3883 -62.996,-30.7771 162.206,-12.1077 135.966,150.8483 -14.088,87.4922 -195.176,432.0744 -215.065,577.8196 -3.776,39.0587 -11.286,58.1695 -21.113,71.4845 -15.974,21.6339 -32.945,42.6532 -50.792,62.838 -59.629,71.9561 -103.311,142.1382 -152.858,197.8849 -9.532,10.7256 -31.731,25.8964 -40.712,35.0066 -84.295,21.2028 -79.667,-17.0777 -99.01,-54.3622 -20.183,-34.7771 12.247,-270.2399 12.79,-252.4536 z"
         style="fill:#000000;fill-rule:evenodd;stroke:none" />
      <path
         sodipodi:nodetypes="scccccssccccccccs"
         inkscape:connector-curvature="0"
         id="path4613-5"
         d="m -16717.49,2057.7316 c 0.731,-0.1705 3.907,17.4534 15.489,64.2536 81.225,150.2081 113.843,142.5282 260.039,293.9362 116.552,80.0332 243.756,38.6814 428.964,30.8927 50.97,-7.0039 140.568,-48.5605 156.537,-78.3368 70.858,-76.7133 58.432,-65.0773 103.294,-128.8211 57.755,-79.7538 67.185,-131.4978 81.994,-140.6152 15.228,-9.376 17.282,32.2603 12.189,42.6543 -39.634,80.8926 -123.258,174.7078 -206.613,291.8444 -25.755,30.0249 -46.359,39.8085 -67.209,42.6427 -33.886,4.5995 -68.859,7.8112 -104.636,9.5515 -36.337,1.7698 -73.546,2.0076 -111.268,0.1504 -10.756,-0.5294 -21.457,-1.2248 -32.093,-2.0891 -27.247,-2.2124 -164.755,3.8736 -190.973,-0.7538 -67.864,-7.3875 -73.45,-48.7002 -109.715,-82.3119 -107.402,-107.6366 -192.259,-153.6384 -227.8,-287.7438 -10.349,-47.1398 -8.929,-55.0836 -8.199,-55.2541 z"
         style="fill:#000000;fill-rule:evenodd;stroke:none" />
      <path
         sodipodi:nodetypes="scccccssccccs"
         inkscape:connector-curvature="0"
         id="path4613-5-7"
         d="m -16831.321,4669.0711 c 65.474,2.2215 103.523,-16.4655 121.149,-47.8075 20.635,-118.39 14.197,-138.8264 -42.941,-275.6591 -77.067,-83.2531 -211.036,-161.3836 -366.617,-288.3566 -45.628,-16.6024 -158.47,-88.8541 -188.72,-78.3423 -102.176,15.0765 -28.725,4.0371 -102.193,22.2274 -93.246,22.1017 -130.87,47.7706 -148.225,46.9821 -17.845,-0.8108 4.565,-25.3614 14.732,-29.2252 79.124,-30.0717 123.016,-46.5897 258.769,-79.6464 130.58,12.4419 357.548,223.605 529.547,342.9099 25.935,34.7706 44.476,48.9298 54.615,89.0973 40.201,91.9778 27.623,188.5516 10.876,258.0854 -32.925,60.9074 -140.992,39.735 -140.992,39.735 z"
         style="fill:#000000;fill-rule:evenodd;stroke:none" />
      <path
         sodipodi:nodetypes="scccccsscccccsccccs"
         inkscape:connector-curvature="0"
         id="path4613-4-5"
         d="m -15263.362,3386.471 c 20.471,22.8826 -55.46,-34.4942 -96.972,-59.0128 -165.179,-85.4366 -162.904,-107.8111 -330.729,-168.4296 -169.35,66.4479 -263.181,178.1679 -358.648,277.6056 -18.913,21.6387 -84.62,90.2908 -74.555,122.5452 -12.234,132.4934 -46.852,372.3994 -32.725,455.7271 16.459,97.0843 237.546,186.3577 236.458,186.5451 -1.089,0.1876 -273.272,-116.1927 -280.513,-184.9526 -9.066,-86.094 38.527,-291.5938 35.215,-440.9857 -3.387,-39.4123 4.064,-60.9703 16.646,-77.8355 20.456,-27.4051 42.663,-54.6135 66.482,-81.3651 24.19,-27.1708 50.085,-53.8923 77.835,-79.5121 7.912,-7.3053 15.905,-14.4552 23.972,-21.4393 20.665,-17.8959 41.858,-34.7319 63.527,-50.2014 21.666,-15.4691 43.81,-29.5709 66.347,-42.0774 12.273,-6.8036 44.311,-40.6009 57.45,-44.3811 13.952,-4.0143 79.198,-50.2644 93.222,-51.6228 118.417,5.477 264.612,142.4274 394.158,208.7622 40.891,25.6353 30.048,36.3428 42.83,50.6302 z"
         style="fill:#000000;fill-rule:evenodd;stroke:none" />
      <path
         sodipodi:nodetypes="sccccsccccs"
         inkscape:connector-curvature="0"
         id="path4613-5-7-1"
         d="m -15969.355,4566.9226 c -18.102,56.2163 -12.55,65.0103 11.173,82.5545 100.914,17.6402 177.003,-26.2498 231.979,-54.2497 136.097,-82.7342 214.553,-142.3621 366.519,-266.7612 130.991,-119.8087 250.409,-282.2122 241.351,-395.6152 5.119,-15.3066 27.338,0.3781 27.982,9.453 5.637,79.4746 -3.069,105.8285 -63.088,198.0333 -43.274,111.5127 -328.074,300.1004 -477.216,439.2167 -37.511,19.7104 -78.32,58.1789 -116.777,63.8787 -92.241,27.6782 -177.421,45.8201 -235.551,26.1496 -46.428,-32.9508 13.628,-102.6597 13.628,-102.6597 z"
         style="fill:#000000;fill-rule:evenodd;stroke:none" />
    </g>
  </g>
</svg>
