<?xml version="1.0" encoding="UTF-8" standalone="no"?>
<!-- Created with Inkscape (http://www.inkscape.org/) -->

<svg
   xmlns:dc="http://purl.org/dc/elements/1.1/"
   xmlns:cc="http://creativecommons.org/ns#"
   xmlns:rdf="http://www.w3.org/1999/02/22-rdf-syntax-ns#"
   xmlns:svg="http://www.w3.org/2000/svg"
   xmlns="http://www.w3.org/2000/svg"
   xmlns:sodipodi="http://sodipodi.sourceforge.net/DTD/sodipodi-0.dtd"
   xmlns:inkscape="http://www.inkscape.org/namespaces/inkscape"
   width="256"
   height="256"
   id="svg4631"
   version="1.1"
   inkscape:version="0.48.3.1 r9886"
   sodipodi:docname="applications-chemistry.svg">
  <defs
     id="defs4633" />
  <sodipodi:namedview
     id="base"
     pagecolor="#ffffff"
     bordercolor="#666666"
     borderopacity="1.0"
     inkscape:pageopacity="0.0"
     inkscape:pageshadow="2"
     inkscape:zoom="1.5253857"
     inkscape:cx="196.51981"
     inkscape:cy="124.43726"
     inkscape:document-units="px"
     inkscape:current-layer="layer1"
     showgrid="false"
     inkscape:window-width="1438"
     inkscape:window-height="827"
     inkscape:window-x="0"
     inkscape:window-y="25"
     inkscape:window-maximized="1"
     showguides="true"
     inkscape:guide-bbox="true" />
  <metadata
     id="metadata4636">
    <rdf:RDF>
      <cc:Work
         rdf:about="">
        <dc:format>image/svg+xml</dc:format>
        <dc:type
           rdf:resource="http://purl.org/dc/dcmitype/StillImage" />
        <dc:title />
      </cc:Work>
    </rdf:RDF>
  </metadata>
  <g
     inkscape:label="Capa 1"
     inkscape:groupmode="layer"
     id="layer1"
     transform="translate(0,-796.36218)">
    <path
       style="fill:#b8db7c;fill-opacity:1;fill-rule:evenodd;stroke:#737373;stroke-width:2.00091505;stroke-linecap:butt;stroke-linejoin:miter;stroke-miterlimit:4;stroke-opacity:1;stroke-dasharray:none"
       d="m 90.421142,801.29613 63.788948,-0.5499 c 1.53908,8.74807 -1.60439,16.016 -8.24857,17.59695 l 0,118.2295 c 0,0 26.30699,44.81407 47.05941,74.06912 3.743,5.2765 5.02904,6.2369 6.83126,11.1661 1.89478,5.1824 3.73112,11.3574 2.81461,15.8483 -0.9165,4.4909 -8.31366,11.097 -8.31366,11.097 l -144.07505,0 c 0,0 -5.454121,-5.4652 -6.256511,-8.7477 -1.213921,-4.966 -1.307378,-10.8846 0.20756,-15.998 1.865227,-6.2958 10.515144,-16.6577 10.515144,-16.6577 l 45.025238,-71.32699 -2.19961,-118.77944 c -7.103922,-1.57592 -8.242665,-7.17213 -7.148769,-15.94724 z"
       id="path9596"
       inkscape:connector-curvature="0"
       sodipodi:nodetypes="ccccsszccsscccc" />
    <path
       style="fill:#00923f;fill-opacity:1;fill-rule:evenodd;stroke:#737373;stroke-width:1.8541733;stroke-linecap:butt;stroke-linejoin:miter;stroke-miterlimit:4;stroke-opacity:1;stroke-dasharray:none"
       d="m 140.2864,878.75633 1.42078,60.82644 c 0,0 26.71815,42.12754 45.67474,69.62863 3.4191,4.9604 4.59384,5.8631 6.24012,10.4968 1.73081,4.8719 3.40824,10.6765 2.57103,14.8982 -0.83718,4.2217 -7.59422,10.4319 -7.59422,10.4319 l -131.607379,0 c 0,0 -4.982147,-5.1376 -5.715095,-8.2233 -1.108873,-4.6684 -1.194241,-10.2322 0.189601,-15.039 1.703821,-5.9184 9.6052,-15.6591 9.6052,-15.6591 l 43.279073,-67.05105 -1.08489,-60.29048 z"
       id="path9596-8"
       inkscape:connector-curvature="0"
       sodipodi:nodetypes="ccsszccsscccc" />
    <path
       style="fill:#000000;fill-rule:evenodd;stroke:none"
       d="m 97.492101,846.88328 c 0.69282,11.24522 2.20606,26.46149 2.07636,41.20351 -0.17875,20.31587 2.524629,38.98747 3.567109,49.29403 -14.172997,24.32463 -32.345878,47.86768 -46.250557,69.09508 -2.153541,3.3381 -5.247057,6.1642 -7.327201,11.1427 -3.863314,8.6957 -5.344603,15.1765 -2.58745,21.4748 2.427805,3.6642 4.655899,7.4828 9.749677,7.6026 37.389302,0.8792 94.009161,2.6093 130.229361,3.002 1.84825,0.01 3.3646,0.012 4.52878,0.023 l 0,0 c 0.45081,0.01 0.84882,0.01 1.19285,0.012 l 0,0 c 0.1072,0 0.20916,0 0.30585,0.01 l 0,0 c 0.0261,0 0.052,0 0.0774,0 l 0,0 c 0,0 0,0 0,0 l 0,0 c 0.002,0.019 0.004,0.037 0.006,0.056 l 0,0 c 0.001,0 0.003,0 0.005,0 0,0 0.001,0 0.001,0 -0.71156,-0.3183 -1.06696,-0.5175 -1.05823,-0.535 0.008,-0.017 0.38104,0.1484 1.08501,0.5407 -0.001,0 -0.001,10e-5 -0.002,10e-5 -0.001,0 -0.003,0 -0.005,0 l 0,0 c -0.0106,0.018 -0.0214,0.037 -0.0323,0.056 l 0,0 c 0,0 0,0 0,0 l 0,0 c -0.0254,0 -0.0512,0 -0.0774,0 l 0,0 c -0.0966,0 -0.19859,0.01 -0.30578,0.01 l 0,0 c -0.34393,0.01 -0.74185,0.019 -1.19257,0.03 l 0,0 c -1.16396,0.026 -2.68007,0.055 -4.52813,0.085 -3.94541,0.064 -9.4037,0.134 -16.1779,0.2052 l 0,0 c -12.4037,0.1305 -29.21921,0.2689 -49.23747,0.3479 -8.28886,0.033 -17.12693,0.055 -26.428399,0.051 l 0,0 -1e-5,0 0,0 c -7.454977,-0.01 -15.208056,-0.021 -23.214828,-0.088 l 0,0 c -3.085282,-0.025 -4.557856,-0.2654 -7.716449,-0.3147 -2.419919,-0.038 -5.893255,0.3302 -8.354903,0.2567 -0.919136,-0.028 -2.88452,-0.3715 -3.810258,-0.4118 -4.706122,-0.5008 -6.733969,-4.0082 -7.484125,-5.6403 -8.580847,-18.6701 3.252135,-30.319 10.75056,-39.8331 9.283287,-12.30302 15.637077,-23.52751 19.729843,-30.65437 8.402394,-13.13973 17.046093,-24.88806 23.46091,-36.59464 0.37365,-24.15615 -0.19542,-43.75158 -0.73783,-64.53401 -0.40097,-15.42938 -0.52862,-26.43675 -0.61619,-24.74855 z"
       id="path9620"
       inkscape:connector-curvature="0"
       sodipodi:nodetypes="csccccsccccccccccccccccccccccccccccccsccsccccccsscscccccc" />
    <path
       sodipodi:type="arc"
       style="fill:#b8db7c;fill-opacity:1;fill-rule:evenodd;stroke:#737373;stroke-width:20;stroke-miterlimit:4;stroke-opacity:1;stroke-dasharray:none"
       id="path9631"
       sodipodi:cx="169.77667"
       sodipodi:cy="6538.5029"
       sodipodi:rx="134.03421"
       sodipodi:ry="134.03421"
       d="m 303.81088,6538.5029 a 134.03421,134.03421 0 1 1 -268.068418,0 134.03421,134.03421 0 1 1 268.068418,0 z"
       transform="matrix(0.0597025,0,0,0.0597025,117.49365,489.21922)" />
    <path
       sodipodi:type="arc"
       style="fill:#b8db7c;fill-opacity:1;fill-rule:evenodd;stroke:#737373;stroke-width:20;stroke-miterlimit:4;stroke-opacity:1;stroke-dasharray:none"
       id="path9631-1"
       sodipodi:cx="169.77667"
       sodipodi:cy="6538.5029"
       sodipodi:rx="134.03421"
       sodipodi:ry="134.03421"
       d="m 303.81088,6538.5029 a 134.03421,134.03421 0 1 1 -268.068418,0 134.03421,134.03421 0 1 1 268.068418,0 z"
       transform="matrix(0.0597025,0,0,0.0597025,106.31901,507.54563)" />
    <path
       sodipodi:type="arc"
       style="fill:#b8db7c;fill-opacity:1;fill-rule:evenodd;stroke:#737373;stroke-width:20;stroke-miterlimit:4;stroke-opacity:1;stroke-dasharray:none"
       id="path9631-1-7"
       sodipodi:cx="169.77667"
       sodipodi:cy="6538.5029"
       sodipodi:rx="134.03421"
       sodipodi:ry="134.03421"
       d="m 303.81088,6538.5029 a 134.03421,134.03421 0 1 1 -268.068418,0 134.03421,134.03421 0 1 1 268.068418,0 z"
       transform="matrix(0.04418589,0,0,0.04418589,121.91594,623.75167)" />
    <path
       style="fill:#000000;fill-rule:evenodd;stroke:none"
       d="m 111.77929,800.58572 c 0,-0.066 1.17402,-0.12107 3.30723,-0.15562 2.13321,-0.0346 5.2261,-0.0484 9.0608,-0.0384 3.83469,0.009 8.41115,0.044 13.50678,0.098 5.09564,0.0539 10.71035,0.12783 16.61712,0.21106 l 0.90937,-0.11142 c -0.24126,0.56899 0.0281,1.00042 0.18168,1.60457 1.77351,6.97353 0.26727,14.16996 -7.5319,16.86459 0.0105,6.32719 -1.12726,12.58158 -1.10502,16.82693 -0.34117,10.92513 -0.41881,8.39693 -1.06153,-1.06734 -0.16246,-4.26444 -0.35556,-10.96785 -0.61925,-17.27204 9.1969,-4.1149 10.74875,-12.80077 5.58238,-15.21344 -12.2774,-0.0233 -18.54239,-0.5008 -33.14907,-1.05854 -2.1196,-0.061 -5.69902,-0.62234 -5.69859,-0.68826 z"
       id="path9669"
       inkscape:connector-curvature="0"
       sodipodi:nodetypes="csssccscccccccc" />
  </g>
</svg>
