<?xml version="1.0" encoding="UTF-8" standalone="no"?>
<!-- Created with Inkscape (http://www.inkscape.org/) -->

<svg
   xmlns:dc="http://purl.org/dc/elements/1.1/"
   xmlns:cc="http://creativecommons.org/ns#"
   xmlns:rdf="http://www.w3.org/1999/02/22-rdf-syntax-ns#"
   xmlns:svg="http://www.w3.org/2000/svg"
   xmlns="http://www.w3.org/2000/svg"
   xmlns:sodipodi="http://sodipodi.sourceforge.net/DTD/sodipodi-0.dtd"
   xmlns:inkscape="http://www.inkscape.org/namespaces/inkscape"
   width="256"
   height="256"
   id="svg5274"
   version="1.1"
   inkscape:version="0.48.3.1 r9886"
   sodipodi:docname="applications-ruby.svg">
  <defs
     id="defs5276" />
  <sodipodi:namedview
     id="base"
     pagecolor="#ffffff"
     bordercolor="#666666"
     borderopacity="1.0"
     inkscape:pageopacity="0.0"
     inkscape:pageshadow="2"
     inkscape:zoom="0.33220668"
     inkscape:cx="379.35569"
     inkscape:cy="-213.49953"
     inkscape:document-units="px"
     inkscape:current-layer="layer1"
     showgrid="false"
     inkscape:window-width="1438"
     inkscape:window-height="827"
     inkscape:window-x="0"
     inkscape:window-y="25"
     inkscape:window-maximized="1" />
  <metadata
     id="metadata5279">
    <rdf:RDF>
      <cc:Work
         rdf:about="">
        <dc:format>image/svg+xml</dc:format>
        <dc:type
           rdf:resource="http://purl.org/dc/dcmitype/StillImage" />
        <dc:title />
      </cc:Work>
    </rdf:RDF>
  </metadata>
  <g
     inkscape:label="Capa 1"
     inkscape:groupmode="layer"
     id="layer1"
     transform="translate(0,-796.36218)">
    <rect
       id="rect7046-0-2-9-1-0-8-5-5-4"
       ry="51.247665"
       rx="34.65818"
       height="210.23714"
       width="218.34702"
       transform="matrix(-0.00430507,-0.99999073,0.99998792,-0.00491528,0,0)"
       class="fil3 str0"
       x="-1035.5312"
       y="21.01683"
       style="fill:#b8db7c;fill-rule:evenodd;stroke:#72706f;stroke-width:6.44695711" />
    <path
       style="fill:#1f1a17;fill-rule:evenodd;stroke:#1f1a17;stroke-width:2.59149599"
       inkscape:connector-curvature="0"
       id="_80379776-7-7-5-7-9-6-2-5-9"
       class="fil1 str1"
       d="m 100.89966,816.29964 58.52355,-3.06326 c 26.0099,0.57796 64.82523,-0.3048 73.02936,21.45221 2.77966,7.37306 4.22736,14.96578 4.38432,22.58121 l -1.81837,75.32382 -0.68397,0.009 c -8.45457,-29.92858 -6.06081,-67.25424 -26.68522,-89.77556 -11.02156,-11.81232 -39.66955,-20.40071 -55.90054,-23.85584 l -50.84913,-2.67123 z"
       sodipodi:nodetypes="cccccccccc" />
    <path
       id="path7050-7-1-0-9-3-8-0-1-8"
       d="m 100.89981,816.30113 c 18.18241,-3.01098 99.69069,-1.47502 113.3381,5.34203 12.65399,6.32021 18.06263,19.27633 18.4875,35.67876 l 1.95142,75.27647"
       class="fil2"
       inkscape:connector-curvature="0"
       style="fill:none" />
    <path
       id="path7054-6-7-2-3-9-0-3-7-5"
       d="m 24.927856,938.62425 c 0,13.24913 -2.352251,28.94248 -1.297013,42.15517 3.294285,41.25268 19.430287,55.84388 63.64127,52.99338 8.51923,-0.5484 54.547227,1.2037 64.288507,1.2037"
       class="fil2"
       inkscape:connector-curvature="0"
       style="fill:none" />
    <path
       style="fill:#1f1a17;fill-rule:evenodd;stroke:#1f1a17;stroke-width:2.59149599"
       inkscape:connector-curvature="0"
       id="_80379776-7-7-5-5-8-0-9-9-8"
       class="fil1 str1"
       d="m 100.89966,816.29964 58.52355,-3.06326 c 26.0099,0.57796 64.82523,-0.3048 73.02936,21.45221 2.77966,7.37306 4.22736,14.96578 4.38432,22.58121 l -1.81837,75.32382 -0.68397,0.009 c -8.45457,-29.92858 -6.06081,-67.25424 -26.68522,-89.77556 -11.02156,-11.81232 -39.66955,-20.40071 -55.90054,-23.85584 l -50.84913,-2.67123 z"
       sodipodi:nodetypes="cccccccccc" />
    <path
       id="path7050-7-1-0-8-5-2-6-8-5"
       d="m 100.89981,816.30113 c 18.18241,-3.01098 99.69069,-1.47502 113.3381,5.34203 12.65399,6.32021 18.06263,19.27633 18.4875,35.67876 l 1.95142,75.27647"
       class="fil2"
       inkscape:connector-curvature="0"
       style="fill:none" />
    <path
       style="fill:#1f1a17;fill-rule:evenodd;stroke:#1f1a17;stroke-width:2.59149599"
       inkscape:connector-curvature="0"
       id="_80692792-8-7-7-6-1-3-1-2-2"
       class="fil1 str1"
       d="m 24.928004,938.62335 c 1.464281,27.01242 -3.886268,59.38926 18.71152,83.23185 5.982999,6.314 18.392532,8.9347 28.582879,9.572 l 46.829197,1.0804 32.50902,2.2566 0,0.424 -63.970863,0.8981 c -16.112115,0.1366 -33.803044,1.2441 -46.490056,-7.1219 -13.28944,-8.7634 -17.562045,-21.4255 -19.386981,-33.60197 -2.875688,-19.19925 0.646793,-37.65107 3.214989,-56.73908 z" />
    <polygon
       points="198.13,39.95 153.5,130.41 40.38,197.58 186.849,187.641 "
       transform="matrix(0.69778906,0,0,0.69778906,57.72032,860.99896)"
       id="polygon16"
       style="fill:#00923f;fill-opacity:1;fill-rule:evenodd;stroke:#535353;stroke-width:3.2465241;stroke-miterlimit:4;stroke-opacity:1;stroke-dasharray:none" />
    <polygon
       points="140.209,145.93 187.089,187.54 174.5,100.65 "
       transform="matrix(0.69778906,0,0,0.69778906,57.72032,860.99896)"
       id="polygon27"
       style="fill:#00923f;fill-opacity:1;fill-rule:evenodd;stroke:#535353;stroke-width:3.2465241;stroke-miterlimit:4;stroke-opacity:1;stroke-dasharray:none" />
    <polygon
       points="40.87,197.391 187.259,187.54 95.03,180.3 "
       transform="matrix(0.69778906,0,0,0.69778906,57.72032,860.99896)"
       id="polygon38"
       style="fill:#00923f;fill-opacity:1;fill-rule:evenodd;stroke:#535353;stroke-width:3.2465241;stroke-miterlimit:4;stroke-opacity:1;stroke-dasharray:none" />
    <polygon
       points="13.34,132.771 41,197.41 64.04,121.93 "
       transform="matrix(0.69778906,0,0,0.69778906,57.72032,860.99896)"
       id="polygon53"
       style="fill:#00923f;fill-opacity:1;fill-rule:evenodd;stroke:#535353;stroke-width:3.2465241;stroke-miterlimit:4;stroke-opacity:1;stroke-dasharray:none" />
    <polygon
       points="58.33,120.01 140.2,146.18 119,63.14 "
       transform="matrix(0.69778906,0,0,0.69778906,57.72032,860.99896)"
       id="polygon68"
       style="fill:#00923f;fill-opacity:1;fill-rule:evenodd;stroke:#535353;stroke-width:3.2465241;stroke-miterlimit:4;stroke-opacity:1;stroke-dasharray:none" />
    <polygon
       points="120,69.1 193.32,64.31 135.97,17.47 "
       transform="matrix(0.69778906,0,0,0.69778906,57.72032,860.99896)"
       id="polygon83"
       style="fill:#00923f;fill-opacity:1;fill-rule:evenodd;stroke:#535353;stroke-width:3.2465241;stroke-miterlimit:4;stroke-opacity:1;stroke-dasharray:none" />
    <polygon
       points="111.49,0.52 166.5,0.77 132.77,19.41 "
       transform="matrix(0.69778906,0,0,0.69778906,57.72032,860.99896)"
       id="polygon96"
       style="fill:#00923f;fill-opacity:1;fill-rule:evenodd;stroke:#535353;stroke-width:3.2465241;stroke-miterlimit:4;stroke-opacity:1;stroke-dasharray:none" />
    <polygon
       points="2.7,101.62 0,158.09 14.13,132.32 "
       transform="matrix(0.69778906,0,0,0.69778906,57.72032,860.99896)"
       id="polygon109"
       style="fill:#00923f;fill-opacity:1;fill-rule:evenodd;stroke:#535353;stroke-width:3.2465241;stroke-miterlimit:4;stroke-opacity:1;stroke-dasharray:none" />
    <path
       d="m 59.073931,931.23134 8.024626,22.7619 34.868583,-7.82285 39.80873,-36.99683 11.23439,-35.68412 -17.68959,-12.49048 -30.07478,11.25529 c -9.475154,8.81314 -27.862011,26.25078 -28.524778,26.57873 -0.655903,0.33497 -12.141467,22.0433 -17.647181,32.39836 z"
       inkscape:connector-curvature="0"
       id="path111"
       style="fill:#00923f;fill-opacity:1;fill-rule:evenodd;stroke:#535353;stroke-width:2.26538897;stroke-miterlimit:4;stroke-opacity:1;stroke-dasharray:none" />
    <path
       d="m 86.329628,998.72858 15.951422,-52.83656 52.97618,17.01891 c -19.15432,17.96123 -40.45778,33.14502 -68.927602,35.81765 z"
       inkscape:connector-curvature="0"
       id="path147"
       style="fill:#00923f;fill-opacity:1;fill-rule:evenodd;stroke:#535353;stroke-width:2.26538897;stroke-miterlimit:4;stroke-opacity:1;stroke-dasharray:none" />
    <path
       d="m 141.84578,909.06962 13.59977,53.86938 c 16.0004,-16.82372 30.36091,-34.9104 37.39391,-57.28164 l -50.99368,3.41226 z"
       inkscape:connector-curvature="0"
       id="path158"
       style="fill:#00923f;fill-opacity:1;fill-rule:evenodd;stroke:#535353;stroke-width:2.26538897;stroke-miterlimit:4;stroke-opacity:1;stroke-dasharray:none" />
    <path
       d="m 192.70058,905.92961 c 5.44283,-16.42602 6.69878,-39.99034 -18.96659,-44.36554 l -21.0593,11.63222 40.02589,32.73332 z"
       inkscape:connector-curvature="0"
       id="path169"
       style="fill:#00923f;fill-opacity:1;fill-rule:evenodd;stroke:#535353;stroke-width:2.26538897;stroke-miterlimit:4;stroke-opacity:1;stroke-dasharray:none" />
    <path
       d="m 57.72032,971.07517 c 0.753568,27.10976 20.31259,27.51371 28.644257,27.75181 L 67.11946,953.88155 57.72032,971.07517 z"
       inkscape:connector-curvature="0"
       id="path171"
       style="fill:#00923f;fill-opacity:1;fill-rule:evenodd;stroke:#535353;stroke-width:2.26538897;stroke-miterlimit:4;stroke-opacity:1;stroke-dasharray:none" />
    <path
       d="m 141.92179,909.1534 c 12.29498,7.55704 37.07418,22.73384 37.5767,23.01295 0.78076,0.43966 10.68302,-16.69797 12.93,-26.38339 l -50.5067,3.37044 z"
       inkscape:connector-curvature="0"
       id="path182"
       style="fill:#00923f;fill-opacity:1;fill-rule:evenodd;stroke:#535353;stroke-width:2.26538897;stroke-miterlimit:4;stroke-opacity:1;stroke-dasharray:none" />
    <path
       d="m 102.26015,945.89202 21.32437,41.14162 c 12.60919,-6.83844 22.48279,-15.16996 31.52621,-24.09464 l -52.85058,-17.04698 z"
       inkscape:connector-curvature="0"
       id="path193"
       style="fill:#00923f;fill-opacity:1;fill-rule:evenodd;stroke:#535353;stroke-width:2.26538897;stroke-miterlimit:4;stroke-opacity:1;stroke-dasharray:none" />
    <path
       d="m 67.035834,953.93755 -3.021439,35.97789 c 5.700895,7.78728 13.544066,8.46426 21.770893,7.85704 -5.952083,-14.81404 -17.842517,-44.43512 -18.749454,-43.83493 z"
       inkscape:connector-curvature="0"
       id="path206"
       style="fill:#00923f;fill-opacity:1;fill-rule:evenodd;stroke:#535353;stroke-width:2.26538897;stroke-miterlimit:4;stroke-opacity:1;stroke-dasharray:none" />
    <path
       d="m 152.54984,873.28693 42.36276,5.94522 c -2.26086,-9.5806 -9.20396,-15.76311 -21.03838,-17.69586 l -21.32438,11.75064 z"
       inkscape:connector-curvature="0"
       id="path219"
       style="fill:#00923f;fill-opacity:1;fill-rule:evenodd;stroke:#535353;stroke-width:2.26538897;stroke-miterlimit:4;stroke-opacity:1;stroke-dasharray:none" />
    <path
       style="fill:#000000;fill-rule:evenodd;stroke:#000000;stroke-width:0.07551298px;stroke-linecap:butt;stroke-linejoin:miter;stroke-opacity:1"
       d="m 133.96123,860.29901 18.57832,13.39368 -10.8013,34.99656 -38.88508,36.29269 -35.428457,9.07313 -8.641242,-22.46681 16.418106,-31.97215 30.243983,-27.21954 z"
       id="path9259"
       inkscape:connector-curvature="0" />
    <path
       d="m 87.250603,890.77312 c 20.536007,-20.36158 47.010207,-32.39134 57.169937,-22.14096 10.15361,10.25054 -0.61409,35.16159 -21.14994,55.51615 -20.536,20.35455 -46.682102,33.04723 -56.834965,22.7967 -10.159727,-10.24351 0.279119,-35.81749 20.814968,-56.17189 z"
       inkscape:connector-curvature="0"
       id="path134"
       style="fill:#00923f;fill-opacity:1;fill-rule:evenodd;stroke:#535353;stroke-width:2.26538897;stroke-miterlimit:4;stroke-opacity:1;stroke-dasharray:none" />
    <path
       style="fill:#000000;fill-rule:evenodd;stroke:none"
       d="m 143.62262,920.94288 c 0.0487,-0.0135 0.39246,1.09227 0.96891,3.11522 0.57645,2.0228 1.38527,4.96331 2.36793,8.61676 0.9828,3.65345 2.13959,8.01969 3.4166,12.88951 1.12885,4.30441 2.3518,9.00234 3.63492,13.94564 0.16846,0.64918 0.32348,0.85437 0.16338,1.3463 -0.21834,1.04552 -1.27222,0.40112 -2.17662,0.0493 -5.21524,-1.64319 -10.21469,-3.45109 -14.83228,-4.91507 -4.61773,-1.46398 -8.8533,-2.81431 -12.54498,-4.00095 -3.69168,-1.18652 -6.8393,-2.20949 -9.28534,-3.01712 -2.44619,-0.80763 -4.19092,-1.39976 -5.08099,-1.72338 -0.22102,-0.46938 -0.31616,-0.71131 -0.29495,-0.7219 0.0212,-0.0104 0.15726,0.20981 0.37829,0.62468 0.94008,0.26314 2.7232,0.80196 5.18597,1.56822 2.4626,0.76625 5.43969,1.26401 9.10284,2.43542 3.66316,1.17143 8.01223,2.52041 12.56232,3.99575 4.55022,1.47516 3.18466,0.76222 8.31747,2.43661 1.90139,0.52792 6.35366,0.68832 4.78485,-2.44931 -1.53388,-5.59725 0.004,-4.999 -1.30225,-9.81476 -1.30567,-4.81575 -1.80552,-7.1574 -2.76518,-10.78786 -0.95965,-3.63073 -1.38721,-4.58308 -1.89242,-6.61574 -0.50492,-2.03267 -0.75701,-6.96431 -0.70847,-6.97715 z"
       id="path9282"
       inkscape:connector-curvature="0"
       sodipodi:nodetypes="cccssccssccscsccccccccc" />
    <path
       style="fill:#000000;fill-rule:evenodd;stroke:none"
       d="m 97.613294,958.66714 c 0.03043,0.0222 -0.250746,1.07958 -0.792847,2.98022 -0.5421,1.9005 -1.345255,4.64432 -2.354793,8.03851 -1.009087,3.39449 -2.224565,7.43936 -3.586984,11.94225 -1.204276,3.98008 -2.523094,8.31791 -3.912999,12.88012 -0.182349,0.59909 -0.187572,0.85539 -0.474605,1.12011 -0.547184,0.64325 -0.824204,-0.53396 -1.145736,-1.39286 -2.013844,-4.66265 -3.847586,-9.30758 -5.626822,-13.44277 -1.779236,-4.13537 -3.40808,-7.93398 -4.823824,-11.25231 -1.415589,-3.31818 -2.61807,-6.15578 -3.547409,-8.37049 -0.929193,-2.21471 -1.585096,-3.80637 -1.910809,-4.63476 0.08061,-0.49834 0.132015,-0.74282 0.147399,-0.73684 0.01541,0.006 -0.0057,0.26119 -0.06388,0.71847 0.376628,0.8157 1.074648,2.39243 2.02967,4.58697 0.954884,2.19455 2.287289,4.525 3.694521,7.81301 1.407372,3.28801 4.507518,7.00328 6.247031,11.10281 1.739801,4.09921 0.0747,1.88138 2.032959,6.51328 0.76372,1.64652 2.448424,5.42637 2.94065,2.035 1.531777,-5.21875 2.471417,-3.55139 3.796664,-8.03231 1.32509,-4.48109 2.039084,-6.5711 3.05086,-9.93304 1.011778,-3.36208 1.186352,-4.35938 1.769371,-6.22059 0.583176,-1.86107 2.501143,-5.73704 2.531615,-5.71478 z"
       id="path9282-5"
       inkscape:connector-curvature="0"
       sodipodi:nodetypes="cccssccssccscsccccccccc" />
    <path
       style="fill:#000000;fill-rule:evenodd;stroke:none"
       d="m 158.33154,879.42091 c 0.0313,-0.0231 0.93053,0.66307 2.53443,1.9347 1.60377,1.27133 3.91226,3.12822 6.76256,5.44179 2.8506,2.31312 6.243,5.08307 10.01651,8.17634 3.33521,2.73411 6.9682,5.72061 10.78801,8.86436 0.50177,0.41277 0.74102,0.51388 0.89274,0.91022 0.41936,0.80689 -0.78208,0.65382 -1.69903,0.66606 -5.06933,0.34348 -10.06086,0.50746 -14.5545,0.80525 -4.49378,0.29778 -8.61974,0.56554 -12.22152,0.79223 -3.60162,0.22641 -6.67907,0.4116 -9.0776,0.54659 -2.39855,0.135 -4.1185,0.21967 -5.00811,0.24746 -0.44145,-0.2697 -0.65396,-0.41412 -0.64322,-0.42787 0.0105,-0.0134 0.24372,0.10381 0.65412,0.33454 0.89514,-0.0853 2.61523,-0.21909 5.00363,-0.38829 2.38838,-0.16905 5.03259,-0.67845 8.60316,-0.90754 3.57026,-0.22909 7.78567,-0.53075 12.23227,-0.80076 4.44629,-0.2703 2.33134,-0.53822 7.35288,-0.83586 1.80791,-0.17577 6.16937,-1.23025 3.14614,-3.00679 -4.38939,-3.53623 -2.9408,-3.52204 -6.70625,-6.56857 -3.76544,-3.04637 -5.48927,-4.56665 -8.30851,-6.87052 -2.81909,-2.30386 -3.69811,-2.85716 -5.25109,-4.15627 -1.55268,-1.29925 -4.54783,-4.73378 -4.51662,-4.75707 z"
       id="path9282-5-6"
       inkscape:connector-curvature="0"
       sodipodi:nodetypes="cccssccssccscsccccccccc" />
    <path
       style="fill:#000000;fill-rule:evenodd;stroke:none"
       d="m 181.30163,948.46962 c 1.39333,13.19446 5.8565,28.85244 6.35739,39.89353 -0.058,0.66816 0.0194,0.91338 -0.29599,1.32352 -0.55524,0.91222 -1.33301,-0.048 -2.06776,-0.68104 -4.23273,-5.02485 -8.74025,-9.06625 -12.60278,-11.98972 -4.47183,-5.69492 -11.4787,-9.16468 -15.14693,-13.88113 7.99923,5.69641 10.56862,9.21993 17.71512,14.69727 3.42676,2.98112 10.72573,9.48171 10.50112,7.09569 -0.58988,-12.61305 -5.94222,-32.4476 -5.99658,-43.70185 0.97309,3.9832 1.43008,2.46606 1.53641,7.24373 z"
       id="path9282-3"
       inkscape:connector-curvature="0"
       sodipodi:nodetypes="cccccccccc" />
    <path
       style="fill:#000000;fill-rule:evenodd;stroke:none"
       d="m 142.91743,987.06882 c 13.42386,1.09473 29.27372,4.48997 40.31322,3.9562 0.65993,-0.12039 0.91127,-0.0665 1.29015,-0.41846 0.85631,-0.63817 -0.17175,-1.32273 -0.87155,-1.995 -5.39864,-3.74442 -16.43589,-14.05841 -19.70776,-17.63077 -6.08814,-3.91972 -3.60582,-4.36714 -8.64454,-7.57825 6.41937,7.4316 10.16794,9.6602 16.28953,16.2634 3.28831,3.13286 6.36367,8.37985 3.96721,8.37945 -12.61293,0.59195 -31.88418,-3.02096 -43.09422,-2.02292 4.05681,0.59624 5.69134,1.38707 10.45796,1.04635 z"
       id="path9282-3-3"
       inkscape:connector-curvature="0"
       sodipodi:nodetypes="cccccccccc" />
    <path
       style="fill:#000000;fill-rule:evenodd;stroke:none"
       d="m 155.14119,995.75114 c 13.43639,-0.9283 23.21457,0.6112 34.04946,-1.57008 5.33022,-2.94399 4.20839,-17.99354 4.92388,-26.39196 -0.76178,-25.22989 6.07887,-83.37949 1.45099,-86.35628 3.43092,7.64097 -0.41278,22.42693 -4.00276,66.52203 -0.45444,32.38626 -2.1944,43.51487 -4.56397,43.87327 -12.38191,2.47481 -89.59069,5.12897 -100.524748,7.79504 4.100416,-0.0176 64.005358,-2.82111 68.667148,-3.87202 z"
       id="path9282-3-3-1"
       inkscape:connector-curvature="0"
       sodipodi:nodetypes="cccccccc" />
  </g>
</svg>
