<?xml version="1.0" encoding="UTF-8" standalone="no"?>
<!-- Created with Inkscape (http://www.inkscape.org/) -->

<svg
   xmlns:dc="http://purl.org/dc/elements/1.1/"
   xmlns:cc="http://creativecommons.org/ns#"
   xmlns:rdf="http://www.w3.org/1999/02/22-rdf-syntax-ns#"
   xmlns:svg="http://www.w3.org/2000/svg"
   xmlns="http://www.w3.org/2000/svg"
   xmlns:sodipodi="http://sodipodi.sourceforge.net/DTD/sodipodi-0.dtd"
   xmlns:inkscape="http://www.inkscape.org/namespaces/inkscape"
   width="256"
   height="256"
   id="svg2"
   version="1.1"
   inkscape:version="0.48.3.1 r9886"
   sodipodi:docname="applications-viewers.svg">
  <defs
     id="defs4" />
  <sodipodi:namedview
     id="base"
     pagecolor="#ffffff"
     bordercolor="#666666"
     borderopacity="1.0"
     inkscape:pageopacity="0.0"
     inkscape:pageshadow="2"
     inkscape:zoom="0.85176649"
     inkscape:cx="182.72851"
     inkscape:cy="-12.848098"
     inkscape:document-units="px"
     inkscape:current-layer="layer1"
     showgrid="false"
     inkscape:window-width="1438"
     inkscape:window-height="827"
     inkscape:window-x="0"
     inkscape:window-y="25"
     inkscape:window-maximized="1" />
  <metadata
     id="metadata7">
    <rdf:RDF>
      <cc:Work
         rdf:about="">
        <dc:format>image/svg+xml</dc:format>
        <dc:type
           rdf:resource="http://purl.org/dc/dcmitype/StillImage" />
        <dc:title />
      </cc:Work>
    </rdf:RDF>
  </metadata>
  <g
     inkscape:label="Capa 1"
     inkscape:groupmode="layer"
     id="layer1"
     transform="translate(0,-796.36218)">
    <g
       transform="matrix(0.13260502,0,0,0.13260502,3010.4138,1158.2876)"
       style="fill-rule:evenodd"
       id="g6349">
      <path
         sodipodi:nodetypes="sssss"
         inkscape:connector-curvature="0"
         id="circle5781-6-9-8"
         d="m -20843.619,-1770.9496 c 1.016,54.1354 -136.766,358.7139 -880.106,471.4157 -423.933,64.2746 -961.36,-377.1643 -901.879,-451.4107 82.881,-103.4546 484.382,-469.417 887.096,-405.7145 419.437,66.3477 893.449,308.8818 894.889,385.7095 z"
         style="fill:#00923f;fill-opacity:1;fill-rule:evenodd;stroke:#737373;stroke-width:36.74210739;stroke-miterlimit:4;stroke-opacity:1;stroke-dasharray:none" />
      <path
         sodipodi:nodetypes="sssss"
         inkscape:connector-curvature="0"
         id="circle5781-6-9"
         d="m -20971.518,-1718.726 c 8.768,91.9847 -520.521,322.3197 -764.929,322.3197 -244.405,0 -801.07,-253.1167 -778.648,-337.5437 25.371,-95.5311 534.243,-317.2451 778.648,-317.2451 244.408,0 752.734,204.5353 764.929,332.4691 z"
         style="fill:#b8db7c;fill-opacity:1;stroke:#737373;stroke-width:36.96291733;stroke-miterlimit:4;stroke-opacity:1;stroke-dasharray:none" />
      <path
         class="fil0 str0"
         d="m -21563.594,-1572.0955 c -94.615,104.8435 -257.887,120.2442 -364.664,34.3909 -106.712,-85.8019 -116.568,-240.4028 -21.953,-345.2464 85.498,-108.1916 248.701,-123.5205 364.507,-34.3419 106.778,85.8534 116.703,240.3761 22.11,345.1974 z"
         id="path4782-4-8"
         inkscape:connector-curvature="0"
         style="fill:#00923f;fill-opacity:1;fill-rule:nonzero;stroke:none" />
      <g
         transform="matrix(0.43449489,0.3367014,-0.38152691,0.40746605,-21667.793,-3042.7272)"
         id="_79162808-4-4"
         style="fill:#000000;fill-opacity:1;fill-rule:evenodd;stroke:none">
        <path
           sodipodi:nodetypes="cscccccccc"
           id="_79208600-31-3"
           class="fil2 str1"
           d="m 1174.98,1651.34 c 151.696,-168.739 462.2974,-207.3735 633.996,-48.7652 168.5117,155.6644 219.085,439.5254 110.052,588.573 -31.009,70.077 -79.3992,135.265 -144.688,177.062 -45.5367,29.1563 -99.7324,38.5992 -151.819,53.1059 l -1.4871,-6.6832 c 91.9078,-46.902 167.68,-86.6402 220.45,-180.292 90.798,-161.13 68.1211,-381.408 -37.834,-530.129 -149.457,-209.774 -430.591,-162.159 -628.67,-52.8715 z"
           inkscape:connector-curvature="0"
           style="fill:#000000;fill-opacity:1;stroke:none" />
      </g>
      <path
         class="fil3"
         d="m -21763.72,-1959.0319 c 59.19,-12.2638 186.847,53.715 221.616,90.7007 161.031,171.3098 -92.653,488.384 -319.034,378.6399"
         id="path4788-1-6"
         inkscape:connector-curvature="0"
         style="fill:none" />
      <g
         id="_67899552-2-9"
         style="fill-rule:evenodd"
         transform="matrix(4.8551195,-15.188331,16.701624,4.4152094,-25213.383,182.48052)">
        <path
           sodipodi:nodetypes="cssssssssssssssssssssssssssscsssscccsccc"
           id="_67839448-9-3"
           class="fil2"
           d="m 173.6687,119.80556 c 2.04035,0.78514 9.78233,-0.18868 11.63138,0.83691 0.55863,0.30985 -2.61492,0.17985 -5.02579,0.92207 -3.07565,0.94688 -5.14636,2.87814 0.80344,4.25124 1.61117,0.37183 7.40217,0.19624 8.34743,0.96968 0.37491,0.30677 -3.11852,0.88632 -5.80892,1.41528 -1.75671,0.34539 -0.68575,1.39208 -0.45728,1.6043 1.19755,1.11236 9.88601,1.05494 10.98378,2.25797 0.24599,0.26958 -3.73983,-0.46227 -6.05418,0.12708 -1.95483,0.49779 -2.30402,2.3243 -2.11138,2.5604 0.72867,0.89309 10.68939,1.50575 11.36342,2.4321 0.25154,0.34571 -3.30451,-0.48657 -5.33561,0.0571 -1.66164,0.44479 -1.87921,2.27163 -1.69585,2.56336 0.71321,1.13474 9.93737,2.32351 10.5775,3.48711 0.17902,0.32542 -4.44413,-0.36705 -6.86808,0.29294 -1.85311,0.50455 -1.66975,2.38201 -1.55197,2.63556 0.70546,1.51867 10.27739,3.77538 10.86607,5.29725 0.12195,0.31527 -2.90282,-0.97475 -5.03907,-0.4346 -2.11014,0.53355 -3.33192,2.89731 -3.24176,3.21008 0.43695,1.51586 9.42389,2.62018 9.76066,4.10507 0.12881,0.56795 -2.77743,-0.36672 -5.05112,-0.26954 -1.93786,0.0828 -3.28964,1.18596 -3.28293,1.67384 0.0228,1.65963 6.65909,5.67434 6.75046,7.27081 0.0294,0.51414 -1.82872,-1.1371 -3.29323,-1.41555 -1.08381,-0.20606 -1.86927,0.89678 -1.94609,1.28117 -0.26846,1.34335 3.94506,6.10029 3.92258,7.38724 -0.009,0.51933 -2.3617,-1.93784 -4.05451,-2.32841 -1.10633,-0.25525 -1.72736,1.41705 -1.9334,1.75866 -1.55656,2.58078 5.25925,7.71609 3.15706,10.55936 -0.29555,0.49676 -1.45485,-2.37783 -2.84029,-3.17161 -1.0505,-0.60187 -2.37272,0.78467 -2.73131,1.18487 -0.91776,1.02424 1.63281,8.02019 0.80803,9.07527 -1.05636,1.3513 -1.13988,-3.23722 -2.78,-2.0843 -0.52185,0.36684 -0.90215,5.30122 -4.91538,9.73135 -4.21184,2.83465 -9.25546,0.11602 -2.66704,0.61288 7.40515,-5.89279 7.07411,-19.25231 7.78161,-23.2798 2.31608,-22.02054 -1.20558,-29.81913 -13.44008,-45.65474 -6.43768,-8.33257 -8.20729,-16.12084 -20.92992,-13.82923 11.02322,-3.77786 18.42043,-0.41698 19.70128,0.15204 -1.64202,0.64697 -9.58982,-2.06803 -3.39951,2.75479 z"
           inkscape:connector-curvature="0"
           style="fill:#1f1a17" />
      </g>
      <g
         id="_68305584-2-9"
         style="fill-rule:evenodd"
         transform="matrix(1.7740204,-2.4933865,9.5235584,0.47029705,-23566.415,-1310.9591)">
        <path
           sodipodi:nodetypes="ccscc"
           id="_67806584-4-4"
           class="fil2"
           d="m 186.28167,233.91653 c -37.71194,0.59838 -42.19679,-10.27068 -55.59751,-11.49331 -4.68871,-8.03211 -30.881028,-12.26216 -42.214128,-38.77886 -16.6176,-38.881 29.741808,-80.98901 67.410288,-97.508104 C -1.9912663,134.886 87.514928,237.84716 186.28167,233.91653 z"
           inkscape:connector-curvature="0"
           style="fill:#1f1a17" />
      </g>
      <g
         id="_68305584-2-9-4"
         style="fill-rule:evenodd"
         transform="matrix(-0.89435869,-2.612591,-7.6808332,-1.9091258,-20685.923,-813.31562)">
        <path
           sodipodi:nodetypes="ccscc"
           id="_67806584-4-4-5"
           class="fil2"
           d="M 186.28167,233.91653 C 148.56973,234.51491 144.08488,223.64585 130.68416,222.42322 125.99545,214.39111 98.766446,208.9987 87.433346,182.482 70.815746,143.601 132.07027,88.852507 159.43138,73.533606 1.7501621,163.31942 87.514928,237.84716 186.28167,233.91653 z"
           inkscape:connector-curvature="0"
           style="fill:#1f1a17" />
      </g>
    </g>
  </g>
</svg>
