<?xml version="1.0" encoding="UTF-8" standalone="no"?>
<!-- Created with Inkscape (http://www.inkscape.org/) -->

<svg
   xmlns:dc="http://purl.org/dc/elements/1.1/"
   xmlns:cc="http://creativecommons.org/ns#"
   xmlns:rdf="http://www.w3.org/1999/02/22-rdf-syntax-ns#"
   xmlns:svg="http://www.w3.org/2000/svg"
   xmlns="http://www.w3.org/2000/svg"
   xmlns:sodipodi="http://sodipodi.sourceforge.net/DTD/sodipodi-0.dtd"
   xmlns:inkscape="http://www.inkscape.org/namespaces/inkscape"
   width="256"
   height="256"
   id="svg4631"
   version="1.1"
   inkscape:version="0.48.3.1 r9886"
   sodipodi:docname="applications-physics.svg">
  <defs
     id="defs4633" />
  <sodipodi:namedview
     id="base"
     pagecolor="#ffffff"
     bordercolor="#666666"
     borderopacity="1.0"
     inkscape:pageopacity="0.0"
     inkscape:pageshadow="2"
     inkscape:zoom="0.56878221"
     inkscape:cx="261.6283"
     inkscape:cy="-52.32566"
     inkscape:document-units="px"
     inkscape:current-layer="layer1"
     showgrid="false"
     inkscape:window-width="1438"
     inkscape:window-height="827"
     inkscape:window-x="0"
     inkscape:window-y="25"
     inkscape:window-maximized="1"
     showguides="true"
     inkscape:guide-bbox="true" />
  <metadata
     id="metadata4636">
    <rdf:RDF>
      <cc:Work
         rdf:about="">
        <dc:format>image/svg+xml</dc:format>
        <dc:type
           rdf:resource="http://purl.org/dc/dcmitype/StillImage" />
        <dc:title></dc:title>
      </cc:Work>
    </rdf:RDF>
  </metadata>
  <g
     inkscape:label="Capa 1"
     inkscape:groupmode="layer"
     id="layer1"
     transform="translate(0,-796.36218)">
    <g
       transform="matrix(0.08674221,0,0,0.08674221,0.64097677,794.23496)"
       style="fill-rule:evenodd"
       id="g6375">
      <g
         transform="matrix(0.76063453,0,0,0.76063453,1288.5604,-3716.9964)"
         id="g4688">
        <rect
           style="fill:#00923f;fill-opacity:1;fill-rule:evenodd;stroke:#72706f;stroke-width:19.25683403"
           id="rect11194-1-6-6"
           ry="0"
           rx="71.133614"
           height="220.26318"
           width="697.14935"
           y="-4713.6895"
           x="4142.0054"
           class="fil0 str0"
           transform="matrix(-0.70694905,0.70726448,-0.70726448,-0.70694905,0,0)" />
        <rect
           style="fill:#00923f;fill-opacity:1;fill-rule:evenodd;stroke:#72706f;stroke-width:19.25683403"
           id="rect11194-1-6-7-5"
           ry="0"
           rx="71.133614"
           height="220.26318"
           width="697.14935"
           y="-5564.2407"
           x="4131.46"
           class="fil0 str0"
           transform="matrix(-0.70694905,0.70726448,-0.70726448,-0.70694905,0,0)" />
        <rect
           style="fill:#00923f;fill-opacity:1;fill-rule:evenodd;stroke:#72706f;stroke-width:21.68482971"
           id="rect11194-1-5"
           ry="0"
           rx="90.202217"
           height="220.26318"
           width="884.03235"
           y="-5126.7461"
           x="2074.5522"
           class="fil0 str0"
           transform="matrix(-0.70694905,0.70726448,-0.70726448,-0.70694905,0,0)" />
        <path
           style="fill:#b8db7c;fill-rule:nonzero;stroke:#72706f;stroke-width:2.30075049"
           inkscape:connector-curvature="0"
           id="path4784-4-4"
           d="M 1300.6688,7169.0603 -58.946929,5798.2649 c 0,0 853.856869,-947.492 1579.089629,-223.2149 725.3606,724.2383 -219.4768,1594.0092 -219.4768,1594.0092 z"
           class="fil1 str0"
           sodipodi:nodetypes="ccccc" />
        <path
           id="_78730512-1-2"
           class="fil2 str1"
           d="m 1462.3965,5515.0642 c 101.9774,73.1059 174.8032,120.4403 228.8032,241.323 182.3233,408.2006 93.3747,892.0031 -135.4982,1219.6557 -58.0257,83.06 -142.3297,161.4318 -241.0895,194.8357 -5.8262,1.9718 -15.9018,-2.6932 -20.2855,-6.9917 L 1079.7498,6944.2818 -58.840568,5807.1975 1311.2881,7117.6502 c 176.5965,-82.6121 275.4546,-332.9382 323.2474,-503.6812 74.4772,-266.0719 111.8335,-559.0469 10.6447,-841.3045 -38.1356,-106.3677 -108.2609,-175.1679 -182.7816,-257.601 z"
           inkscape:connector-curvature="0"
           style="fill:#1f1a17;fill-rule:evenodd;stroke:#1f1a17;stroke-width:1.53383148"
           sodipodi:nodetypes="ccccccccsccc" />
        <path
           style="fill:none"
           inkscape:connector-curvature="0"
           id="path4792-8-23"
           d="m 1462.3867,5515.0544 c 492.664,308.7444 278.4018,1447.7697 -152.5985,1631.23 l -227.527,-204.8859"
           class="fil3" />
        <path
           style="fill:none"
           inkscape:connector-curvature="0"
           id="path4796-9-00"
           d="m 1343.9793,5897.2593 c -35.8893,-35.7229 -60.3458,-78.0546 -96.4097,-104.13 -348.8295,-252.1305 -716.43818,-57.392 -1046.40894,266.8924 L -64.801786,5790.5968"
           class="fil3" />
        <g
           transform="matrix(-2.9816625,2.9829928,-5.501735,-5.4992813,3594.3576,6227.3547)"
           style="fill-rule:evenodd"
           id="_81071816-4-7">
          <path
             style="fill:#1f1a17;fill-rule:nonzero;stroke:#1f1a17;stroke-width:2.76821995"
             inkscape:connector-curvature="0"
             d="m 67.504541,234.14527 c -10.787269,0.4087 -15.971381,-0.9565 -17.777641,3.11417 -1.563725,10.00963 0.174441,21.83736 8.548473,23.61075 50.943437,1.20416 101.024587,-0.006 152.736577,1.61472 l -0.13967,-0.56411 -131.72055,1.86904 c -4.1716,-0.45049 -8.052946,0.0392 -11.28232,0.0364 -13.544945,-0.0115 -19.060839,2.01145 -20.872965,-3.20321 -3.022259,-11.18618 -3.73704,-22.86538 2.74336,-27.92838 3.489669,-2.46187 22.170705,0.89124 30.772387,1.35516 z"
             class="fil1 str1"
             id="_81851448-2-5"
             sodipodi:nodetypes="ccccccscccc" />
        </g>
        <path
           style="fill:none"
           inkscape:connector-curvature="0"
           id="path11198-0-2"
           d="m 1917.2895,5260.6512 c 34.6454,-60.2322 -52.3975,-125.466 -99.4141,-156.2841 -81.7409,-53.6018 -199.4716,80.2026 -243.7366,124.4872 -88.5374,88.577 -185.8926,185.9756 -278.6868,270.2978"
           class="fil2" />
      </g>
      <rect
         transform="matrix(0.70694905,-0.70726448,0.70726448,0.70694905,0,0)"
         class="fil0 str0"
         x="-1971.5099"
         y="2038.5936"
         width="672.42554"
         height="167.53978"
         rx="68.610916"
         ry="0"
         id="rect11194-1-5-0"
         style="fill:#00923f;fill-opacity:1;fill-rule:evenodd;stroke:#72706f;stroke-width:16.49423027" />
      <path
         sodipodi:nodetypes="ccccc"
         class="fil1 str0"
         d="M 701.22037,1255.3768 1735.391,2298.0511 c 0,0 -649.473,720.6951 -1201.1101,169.785 C -17.453419,1916.9554 701.22252,1255.3776 701.22252,1255.3776 z"
         id="path4784-4-4-5"
         inkscape:connector-curvature="0"
         style="fill:#b8db7c;fill-rule:nonzero;stroke:#72706f;stroke-width:1.75003028" />
      <path
         sodipodi:nodetypes="ccccccccsccc"
         style="fill:#1f1a17;fill-rule:evenodd;stroke:#1f1a17;stroke-width:1.16668522"
         inkscape:connector-curvature="0"
         d="M 578.20466,2513.4633 C 500.63708,2457.8565 445.24331,2421.8524 404.16907,2329.9047 265.48761,2019.4132 333.145,1651.4163 507.23359,1402.1925 c 44.13642,-63.1784 108.26099,-122.7905 183.38102,-148.1987 4.43161,-1.4999 12.09545,2.0485 15.42991,5.3181 L 869.259,1426.3511 1735.3101,2291.2567 693.14293,1294.4811 c -134.32537,62.8376 -209.52025,253.2443 -245.87308,383.1173 -56.65005,202.3834 -85.06448,425.2303 -8.09672,639.9252 29.00723,80.907 82.34696,133.2388 139.02992,195.9402 z"
         class="fil2 str1"
         id="_78730512-1-2-9" />
      <path
         class="fil3"
         d="M 578.21208,2513.4709 C 203.47481,2278.6291 366.45007,1412.2472 694.28377,1272.7009 l 173.06493,155.8433"
         id="path4792-8-23-8"
         inkscape:connector-curvature="0"
         style="fill:none" />
      <path
         class="fil3"
         d="m 668.27683,2222.7526 c 27.29868,27.172 45.90109,59.371 73.33259,79.2048 265.33178,191.7792 544.94768,43.6543 795.93468,-203.0075 l 202.3003,204.9338"
         id="path4796-9-00-8"
         inkscape:connector-curvature="0"
         style="fill:none" />
      <g
         id="_81071816-4-7-3"
         style="fill-rule:evenodd"
         transform="matrix(2.2679554,-2.2689673,4.1848096,4.1829432,-1043.4386,1971.6706)">
        <path
           sodipodi:nodetypes="ccccccscccc"
           id="_81851448-2-5-6"
           class="fil1 str1"
           d="m 67.504541,234.14527 c -10.787269,0.4087 -15.971381,-0.9565 -17.777641,3.11417 -1.563725,10.00963 0.174441,21.83736 8.548473,23.61075 50.943437,1.20416 101.024587,-0.006 152.736577,1.61472 l -0.13967,-0.56411 -131.72055,1.86904 c -4.1716,-0.45049 -8.052946,0.0392 -11.28232,0.0364 -13.544945,-0.0115 -19.060839,2.01145 -20.872965,-3.20321 -3.022259,-11.18618 -3.73704,-22.86538 2.74336,-27.92838 3.489669,-2.46187 22.170705,0.89124 30.772387,1.35516 z"
           inkscape:connector-curvature="0"
           style="fill:#1f1a17;fill-rule:nonzero;stroke:#1f1a17;stroke-width:2.76821995" />
      </g>
      <path
         class="fil2"
         d="m 232.19738,2706.9786 c -26.35256,45.8147 39.85531,95.4339 75.61777,118.8751 62.17489,40.7714 151.72491,-61.0049 185.39448,-94.6893 67.34454,-67.3746 141.39628,-141.4594 211.97872,-205.5978"
         id="path11198-0-2-5"
         inkscape:connector-curvature="0"
         style="fill:none" />
      <g
         id="g13029"
         style="fill-rule:evenodd"
         transform="matrix(2.2679554,-2.2689673,4.1848096,4.1829432,479.00066,895.81348)">
        <path
           sodipodi:nodetypes="ccccccscccc"
           id="path13031"
           class="fil1 str1"
           d="m 67.504541,234.14527 c -10.787269,0.4087 -15.971381,-0.9565 -17.777641,3.11417 -1.563725,10.00963 0.174441,21.83736 8.548473,23.61075 50.943437,1.20416 101.024587,-0.006 152.736577,1.61472 l -0.13967,-0.56411 -131.72055,1.86904 c -4.1716,-0.45049 -8.052946,0.0392 -11.28232,0.0364 -13.544945,-0.0115 -19.060839,2.01145 -20.872965,-3.20321 -3.022259,-11.18618 -3.73704,-22.86538 2.74336,-27.92838 3.489669,-2.46187 22.170705,0.89124 30.772387,1.35516 z"
           inkscape:connector-curvature="0"
           style="fill:#1f1a17;fill-rule:nonzero;stroke:#1f1a17;stroke-width:2.76821995" />
      </g>
      <g
         transform="matrix(2.2679554,-2.2689673,4.1848096,4.1829432,12.119246,439.08174)"
         style="fill-rule:evenodd"
         id="g13033">
        <path
           style="fill:#1f1a17;fill-rule:nonzero;stroke:#1f1a17;stroke-width:2.76821995"
           inkscape:connector-curvature="0"
           d="m 67.504541,234.14527 c -10.787269,0.4087 -15.971381,-0.9565 -17.777641,3.11417 -1.563725,10.00963 0.174441,21.83736 8.548473,23.61075 50.943437,1.20416 101.024587,-0.006 152.736577,1.61472 l -0.13967,-0.56411 -131.72055,1.86904 c -4.1716,-0.45049 -8.052946,0.0392 -11.28232,0.0364 -13.544945,-0.0115 -19.060839,2.01145 -20.872965,-3.20321 -3.022259,-11.18618 -3.73704,-22.86538 2.74336,-27.92838 3.489669,-2.46187 22.170705,0.89124 30.772387,1.35516 z"
           class="fil1 str1"
           id="path13035"
           sodipodi:nodetypes="ccccccscccc" />
      </g>
    </g>
  </g>
</svg>
