<?xml version="1.0" encoding="UTF-8" standalone="no"?>
<!-- Created with Inkscape (http://www.inkscape.org/) -->

<svg
   xmlns:dc="http://purl.org/dc/elements/1.1/"
   xmlns:cc="http://creativecommons.org/ns#"
   xmlns:rdf="http://www.w3.org/1999/02/22-rdf-syntax-ns#"
   xmlns:svg="http://www.w3.org/2000/svg"
   xmlns="http://www.w3.org/2000/svg"
   xmlns:sodipodi="http://sodipodi.sourceforge.net/DTD/sodipodi-0.dtd"
   xmlns:inkscape="http://www.inkscape.org/namespaces/inkscape"
   width="256"
   height="256"
   id="svg5274"
   version="1.1"
   inkscape:version="0.48.3.1 r9886"
   sodipodi:docname="applications-ide.svg">
  <defs
     id="defs5276" />
  <sodipodi:namedview
     id="base"
     pagecolor="#ffffff"
     bordercolor="#666666"
     borderopacity="1.0"
     inkscape:pageopacity="0.0"
     inkscape:pageshadow="2"
     inkscape:zoom="0.65373305"
     inkscape:cx="437.40746"
     inkscape:cy="-96.854509"
     inkscape:document-units="px"
     inkscape:current-layer="layer1"
     showgrid="false"
     inkscape:window-width="1438"
     inkscape:window-height="827"
     inkscape:window-x="0"
     inkscape:window-y="25"
     inkscape:window-maximized="1" />
  <metadata
     id="metadata5279">
    <rdf:RDF>
      <cc:Work
         rdf:about="">
        <dc:format>image/svg+xml</dc:format>
        <dc:type
           rdf:resource="http://purl.org/dc/dcmitype/StillImage" />
        <dc:title></dc:title>
      </cc:Work>
    </rdf:RDF>
  </metadata>
  <g
     inkscape:label="Capa 1"
     inkscape:groupmode="layer"
     id="layer1"
     transform="translate(0,-796.36218)">
    <g
       id="g8100"
       transform="matrix(0.16314473,0,0,0.16314473,124.51523,783.00195)">
      <g
         id="g5250"
         style="fill-rule:evenodd"
         transform="translate(35954.656,-16889.605)">
        <rect
           id="rect7046-0-2-9-1-0-8-5-5-4-7"
           ry="343.16165"
           rx="232.07611"
           height="1407.7778"
           width="1462.0826"
           transform="matrix(-0.00430507,-0.99999073,0.99998792,-0.00491528,0,0)"
           class="fil3 str0"
           x="-18319.971"
           y="-36697.785"
           style="fill:#b8db7c;fill-rule:evenodd;stroke:#72706f;stroke-width:43.16974258" />
        <path
           style="fill:#1f1a17;fill-rule:evenodd;stroke:#1f1a17;stroke-width:17.35302544"
           inkscape:connector-curvature="0"
           id="_80379776-7-7-5-7-9-6-2-5-9-3"
           class="fil1 str1"
           d="m -36113.415,17032.932 391.882,-20.512 c 174.166,3.87 434.079,-2.041 489.015,143.647 18.613,49.371 28.307,100.213 29.358,151.207 l -12.176,504.379 -4.58,0.06 c -56.613,-200.406 -40.584,-450.344 -178.688,-601.15 -73.802,-79.097 -265.633,-136.606 -374.318,-159.742 l -340.493,-17.887 z"
           sodipodi:nodetypes="cccccccccc" />
        <path
           id="path7050-7-1-0-9-3-8-0-1-8-5"
           d="m -36113.414,17032.942 c 121.752,-20.162 667.543,-9.877 758.928,35.771 84.733,42.321 120.95,129.077 123.795,238.91 l 13.067,504.062"
           class="fil2"
           inkscape:connector-curvature="0"
           style="fill:none" />
        <path
           id="path7054-6-7-2-3-9-0-3-7-5-4"
           d="m -36622.133,17852.035 c 0,88.718 -15.751,193.803 -8.685,282.277 22.059,276.234 130.108,373.939 426.151,354.852 57.046,-3.673 365.256,8.06 430.485,8.06"
           class="fil2"
           inkscape:connector-curvature="0"
           style="fill:none" />
        <path
           style="fill:#1f1a17;fill-rule:evenodd;stroke:#1f1a17;stroke-width:17.35302544"
           inkscape:connector-curvature="0"
           id="_80379776-7-7-5-5-8-0-9-9-8-7"
           class="fil1 str1"
           d="m -36113.415,17032.932 391.882,-20.512 c 174.166,3.87 434.079,-2.041 489.015,143.647 18.613,49.371 28.307,100.213 29.358,151.207 l -12.176,504.379 -4.58,0.06 c -56.613,-200.406 -40.584,-450.344 -178.688,-601.15 -73.802,-79.097 -265.633,-136.606 -374.318,-159.742 l -340.493,-17.887 z"
           sodipodi:nodetypes="cccccccccc" />
        <path
           id="path7050-7-1-0-8-5-2-6-8-5-7"
           d="m -36113.414,17032.942 c 121.752,-20.162 667.543,-9.877 758.928,35.771 84.733,42.321 120.95,129.077 123.795,238.91 l 13.067,504.062"
           class="fil2"
           inkscape:connector-curvature="0"
           style="fill:none" />
        <path
           style="fill:#1f1a17;fill-rule:evenodd;stroke:#1f1a17;stroke-width:17.35302544"
           inkscape:connector-curvature="0"
           id="_80692792-8-7-7-6-1-3-1-2-2-0"
           class="fil1 str1"
           d="m -36622.132,17852.029 c 9.805,180.879 -26.023,397.679 125.295,557.332 40.063,42.28 123.159,59.829 191.395,64.096 l 313.575,7.234 217.685,15.111 0,2.839 -428.358,6.014 c -107.889,0.914 -226.35,8.331 -311.304,-47.69 -88.988,-58.68 -117.598,-143.468 -129.818,-225.003 -19.256,-128.561 4.331,-252.117 21.528,-379.933 z" />
        <rect
           style="fill:#00923f;fill-opacity:1;fill-rule:evenodd;stroke:#72706f;stroke-width:14.4837513"
           id="rect11194-1-9-4-1-4-8"
           ry="30.373709"
           rx="548.71405"
           height="79.156044"
           width="1097.4281"
           y="-38337.914"
           x="11515.571"
           class="fil0 str0"
           transform="matrix(-0.68917535,-0.7245946,0.71957008,-0.69441983,0,0)" />
        <g
           transform="matrix(-4.3264951,-4.3923225,2.4093651,-2.2451878,-35865.08,19034.166)"
           style="fill-rule:evenodd"
           id="_81071816-4-0-1-8-5-0">
          <path
             style="fill:#1f1a17;fill-rule:nonzero;stroke:#1f1a17;stroke-width:2.76821995"
             inkscape:connector-curvature="0"
             d="m 67.26485,237.18865 c -10.787269,0.4087 -14.438563,2.09325 -16.244823,6.16392 -1.563725,10.00963 0.243326,10.2695 8.617358,12.04289 50.943435,1.20416 99.673455,3.64223 151.385445,5.26295 l 0.0783,0.0455 -133.042676,0.64658 c -4.1716,-0.45049 -9.171088,0.0887 -12.388326,-0.272 -10.87893,-1.2196 -14.391687,-0.71156 -16.203813,-5.92622 -1.511194,-4.48342 -2.046105,-9.16022 1.790033,-16.66813 3.489669,-2.46187 25.994256,-0.95083 34.595938,-0.48691 z"
             class="fil1 str1"
             id="_81851448-2-3-5-9-9-9"
             sodipodi:nodetypes="ccccccscccc" />
        </g>
        <path
           style="fill:none"
           inkscape:connector-curvature="0"
           id="path11198-0-0-4-1-1-4"
           d="m -35772.31,18019.227 c 68.269,54.579 105.049,-8.084 120.667,-43.452 27.175,-61.48 -136.643,-222.583 -192.442,-281.084 -111.607,-117.011 -234.33,-245.676 -343.115,-365.387"
           class="fil2" />
        <path
           style="fill:#00923f;fill-opacity:1;fill-rule:evenodd;stroke:#737170;stroke-width:13.73248005;stroke-linecap:butt;stroke-linejoin:miter;stroke-miterlimit:4;stroke-opacity:1;stroke-dasharray:none"
           d="m -36268.041,17556.962 c -64.049,-23.512 4.729,-173.979 -181.265,-168.601 391.946,-125.813 351.274,210.938 181.265,168.601 z"
           id="path4752-2-4"
           inkscape:connector-curvature="0"
           sodipodi:nodetypes="ccc" />
        <path
           style="fill:#000000;fill-rule:evenodd;stroke:none"
           d="m -36445.445,17382.993 c 0.02,-0.332 3.19,-1.341 9.088,-2.861 5.898,-1.522 14.525,-3.556 25.437,-5.815 10.913,-2.26 24.114,-4.745 39.121,-7.028 15.008,-2.282 32.034,-5.631 50.119,-6.946 13.466,-0.982 27.456,-0.277 42.019,0.01 14.562,0.29 29.485,1.438 44.319,3.954 2.608,0.443 5.215,0.929 7.814,1.464 8.904,1.832 17.446,4.189 25.453,7.13 8.007,2.942 15.478,6.47 22.284,10.595 6.533,3.961 12.412,8.513 17.503,13.539 5.091,5.027 9.394,10.527 12.856,16.367 3.25,5.497 5.732,11.271 7.54,17.112 1.808,5.84 2.944,11.747 3.523,17.55 0.6,6.018 0.619,11.908 0.24,17.524 -0.379,5.615 -1.156,10.956 -2.164,15.923 -1.095,5.407 -2.454,10.385 -3.926,14.838 -1.473,4.453 -3.057,8.382 -4.585,11.737 -1.687,3.704 -3.34,6.727 -4.771,8.984 -0.807,1.274 -1.552,2.314 -2.188,3.102 -0.567,0.706 -1.057,1.222 -1.414,1.535 -0.358,0.314 -0.578,0.433 -0.635,0.384 -0.06,-0.05 0.04,-0.261 0.265,-0.64 0.218,-0.379 0.546,-0.93 0.964,-1.672 0.462,-0.824 1.019,-1.872 1.646,-3.153 1.114,-2.273 2.423,-5.247 3.793,-8.9 1.239,-3.307 2.528,-7.146 3.71,-11.473 1.183,-4.327 2.257,-9.142 3.091,-14.363 -34.821,-84.223 -88.36,-111.571 -137.312,-114.817 -14.289,-0.4 -28.261,-0.01 -41.542,0.743 -17.836,1.017 -34.448,2.722 -49.295,4.572 -14.847,1.851 -27.929,3.845 -38.751,5.569 -10.822,1.725 -19.386,3.18 -25.235,4.09 -5.849,0.91 -8.985,1.275 -8.967,0.943 z"
           id="path4756-6-7"
           inkscape:connector-curvature="0"
           sodipodi:nodetypes="cssscscsscscscscccccccccccccccssssc" />
        <path
           style="fill:none"
           inkscape:connector-curvature="0"
           id="path11198-0-0-4-2-88-5"
           d="m -36077.37,18083.071 c -36.664,91.291 8.902,79.389 34.465,68.523 44.437,-18.866 153.793,-257.92 193.614,-341.752 79.65,-167.679 167.234,-352.057 248.883,-519.248"
           class="fil2" />
        <rect
           style="fill:#00923f;fill-opacity:1;fill-rule:evenodd;stroke:#72706f;stroke-width:15.09435558"
           id="rect11194-1-9-4-0-3-1"
           ry="0"
           rx="106.67932"
           height="90.239357"
           width="1045.5172"
           y="-14925.05"
           x="-37816.16"
           class="fil0 str0"
           transform="matrix(0.66805964,-0.74410773,0.74658215,0.66529324,0,0)" />
        <g
           transform="matrix(4.1389589,-4.8120128,2.955235,2.7487964,-37296.466,17786.26)"
           style="fill-rule:evenodd"
           id="_81071816-4-0-1-1-1-17">
          <path
             style="fill:#1f1a17;fill-rule:nonzero;stroke:#1f1a17;stroke-width:2.76821995"
             inkscape:connector-curvature="0"
             d="m 66.078319,235.29487 c -10.787269,0.4087 -14.545159,-2.1061 -16.351419,1.96457 -1.563725,10.00963 0.174441,21.83736 8.548473,23.61075 50.943437,1.20416 101.024587,-0.006 152.736577,1.61472 l -0.13967,-0.56411 -131.72055,1.86904 c -4.1716,-0.45049 -8.052946,0.0392 -11.28232,0.0364 -13.544945,-0.0115 -19.060839,2.01145 -20.872965,-3.20321 -3.022259,-11.18618 -3.73704,-22.86538 2.74336,-27.92838 3.489669,-2.46187 22.668445,3.58574 31.270127,4.04966 z"
             class="fil1 str1"
             id="_81851448-2-3-5-3-8-4"
             sodipodi:nodetypes="ccccccscccc" />
        </g>
        <path
           style="fill:none;stroke:#000000;stroke-width:0.81864548px;stroke-linecap:butt;stroke-linejoin:miter;stroke-opacity:1"
           d="m -35691.021,17402.713 77.858,67.858"
           id="path4789-2-3"
           inkscape:connector-curvature="0" />
        <path
           style="fill:#00923f;fill-opacity:1;fill-rule:evenodd;stroke:#737373;stroke-width:16.37290955;stroke-linecap:butt;stroke-linejoin:miter;stroke-miterlimit:4;stroke-opacity:1;stroke-dasharray:none"
           d="m -35699.642,17406.226 151.537,-86.386 -70.682,156.966"
           id="path4791-9-4"
           inkscape:connector-curvature="0"
           sodipodi:nodetypes="ccc" />
        <path
           style="fill:#000000;fill-rule:evenodd;stroke:none"
           d="m -35537.56,17304.637 c 0.563,0.226 -0.707,4.535 -3.566,12.152 -2.858,7.617 -7.304,18.542 -13.031,31.985 -5.727,13.444 -12.735,29.405 -20.65,47.077 -7.915,17.673 -16.738,37.056 -26.034,57.329 -5.061,11.034 -10,21.765 -14.744,32.065 l 0,0 c -13.036,-11.318 -25.217,-21.986 -36.085,-31.658 -10.869,-9.672 -20.424,-18.35 -28.261,-25.675 -7.838,-7.326 -13.957,-13.299 -18.012,-17.546 -4.055,-4.246 -6.044,-6.767 -5.674,-7.178 0.37,-0.411 3.064,1.325 7.601,4.886 4.535,3.561 12.598,11.016 20.389,17.895 23.013,17.226 37.987,25.829 56.591,41.711 13.972,-28.056 24.565,-47.685 36.266,-74.704 7.495,-17.298 18.127,-33.811 24.059,-46.824 5.933,-13.013 10.923,-23.501 14.587,-30.683 3.664,-7.182 6,-11.058 6.564,-10.832 z"
           id="path4793-3-2"
           inkscape:connector-curvature="0"
           sodipodi:nodetypes="cssssccscssscccsccc" />
        <path
           style="fill:none;stroke:#000000;stroke-width:0.81864548px;stroke-linecap:butt;stroke-linejoin:miter;stroke-opacity:1"
           d="m -35538.577,17303.078 -24.589,71.928"
           id="path4800-3-9"
           inkscape:connector-curvature="0" />
        <path
           style="fill:#000000;fill-rule:evenodd;stroke:#000000;stroke-width:0.81864548px;stroke-linecap:butt;stroke-linejoin:miter;stroke-opacity:1"
           d="m -35591.368,17333.689 29.647,30.41 29.433,-60.548 z"
           id="path4808-8-0"
           inkscape:connector-curvature="0" />
      </g>
    </g>
  </g>
</svg>
