<?xml version="1.0" encoding="UTF-8" standalone="no"?>
<!-- Created with Inkscape (http://www.inkscape.org/) -->

<svg
   xmlns:dc="http://purl.org/dc/elements/1.1/"
   xmlns:cc="http://creativecommons.org/ns#"
   xmlns:rdf="http://www.w3.org/1999/02/22-rdf-syntax-ns#"
   xmlns:svg="http://www.w3.org/2000/svg"
   xmlns="http://www.w3.org/2000/svg"
   xmlns:sodipodi="http://sodipodi.sourceforge.net/DTD/sodipodi-0.dtd"
   xmlns:inkscape="http://www.inkscape.org/namespaces/inkscape"
   width="256"
   height="256"
   id="svg4631"
   version="1.1"
   inkscape:version="0.48.3.1 r9886"
   sodipodi:docname="applications-geology.svg">
  <defs
     id="defs4633" />
  <sodipodi:namedview
     id="base"
     pagecolor="#ffffff"
     bordercolor="#666666"
     borderopacity="1.0"
     inkscape:pageopacity="0.0"
     inkscape:pageshadow="2"
     inkscape:zoom="1.5324755"
     inkscape:cx="146.63798"
     inkscape:cy="164.20398"
     inkscape:document-units="px"
     inkscape:current-layer="layer1"
     showgrid="false"
     inkscape:window-width="1438"
     inkscape:window-height="827"
     inkscape:window-x="0"
     inkscape:window-y="25"
     inkscape:window-maximized="1" />
  <metadata
     id="metadata4636">
    <rdf:RDF>
      <cc:Work
         rdf:about="">
        <dc:format>image/svg+xml</dc:format>
        <dc:type
           rdf:resource="http://purl.org/dc/dcmitype/StillImage" />
        <dc:title />
      </cc:Work>
    </rdf:RDF>
  </metadata>
  <g
     inkscape:label="Capa 1"
     inkscape:groupmode="layer"
     id="layer1"
     transform="translate(0,-796.36218)">
    <g
       style="fill-rule:evenodd"
       id="g9560"
       transform="matrix(0.14293589,0,0,0.14293589,-104.37331,308.43094)">
      <rect
         transform="matrix(-0.67334011,0.73933287,-0.73933287,-0.67334011,0,0)"
         class="fil0 str0"
         x="1017.1194"
         y="-4208.7993"
         width="1267.4227"
         height="220.26318"
         rx="129.32144"
         ry="0"
         id="rect11194-1-9"
         style="fill:#b8db7c;fill-opacity:1;fill-rule:evenodd;stroke:#72706f;stroke-width:25.96466255" />
      <g
         id="_81071816-4-0"
         style="fill-rule:evenodd"
         transform="matrix(-4.0715351,4.4705784,-5.7511916,-5.2378409,3974.6996,4586.1081)">
        <path
           sodipodi:nodetypes="ccccccscccc"
           id="_81851448-2-3"
           class="fil1 str1"
           d="m 67.504541,234.14527 c -10.787269,0.4087 -15.971381,-0.9565 -17.777641,3.11417 -1.563725,10.00963 0.174441,21.83736 8.548473,23.61075 50.943437,1.20416 101.024587,-0.006 152.736577,1.61472 l -0.13967,-0.56411 -131.72055,1.86904 c -4.1716,-0.45049 -8.052946,0.0392 -11.28232,0.0364 -13.544945,-0.0115 -19.060839,2.01145 -20.872965,-3.20321 -3.022259,-11.18618 -3.73704,-22.86538 2.74336,-27.92838 3.489669,-2.46187 22.170705,0.89124 30.772387,1.35516 z"
           inkscape:connector-curvature="0"
           style="fill:#1f1a17;fill-rule:nonzero;stroke:#1f1a17;stroke-width:2.76821995" />
      </g>
      <path
         class="fil2"
         d="m 2107.987,3859.2558 c 51.4029,-83.2885 -43.0718,-139.4726 -94.8102,-164.4052 -89.9461,-43.3749 -253.2751,152.7825 -313.72,219.1514 -120.9002,132.7493 -253.8412,278.7196 -379.191,407.4164"
         id="path11198-0-0"
         inkscape:connector-curvature="0"
         style="fill:none" />
      <path
         sodipodi:nodetypes="cccccsccc"
         inkscape:connector-curvature="0"
         id="path7911"
         d="m 1261.7684,4531.2198 82.4564,-89.1984 166.435,151.233 -83.3152,89.834 452.3723,395.0108 c 0,0 -423.4391,-34.5482 -589.7513,-107.4926 C 1072.2101,4875.0992 764.20285,4545.786 764.20285,4545.786 l 233.62071,-243.0949 z"
         style="fill:#00923f;fill-opacity:1;stroke:#737373;stroke-width:30;stroke-linecap:butt;stroke-linejoin:miter;stroke-miterlimit:4;stroke-opacity:1;stroke-dasharray:none" />
      <path
         sodipodi:nodetypes="sscsccsccccscsssssccccscss"
         inkscape:connector-curvature="0"
         id="path7925"
         d="m 1532.6284,4593.8062 c -0.9354,-12.6428 -23.8922,7.0167 -36.6907,22.9172 -12.7985,15.9004 -44.7708,43.9927 -69.0721,73.1608 47.6535,41.3497 136.0661,110.7142 212.4591,177.5862 76.393,66.8721 173.3196,137.9855 269.9286,222.8747 -71.8558,-3.6039 -147.0854,-8.4029 -224.3817,-16.3791 -21.3436,-2.6399 -42.8504,-5.5349 -64.4744,-8.7706 -39.2301,-5.8703 -77.7899,-12.7148 -115.4342,-20.8399 -50.9266,-10.9907 -104.0874,-16.6087 -150.6821,-33.2192 -43.6931,-15.5775 -94.7403,-43.7821 -132.8942,-64.6531 -44.4512,-25.6728 -87.6786,-46.8259 -104.9595,-67.1864 -25.2625,-24.5649 -35.7252,-31.8225 -53.0249,-46.8579 -17.2997,-15.0354 -29.7128,-28.0792 -45.1662,-42.7823 -21.08944,-20.0647 -54.26863,-45.4334 -72.35238,-63.9917 -18.08375,-18.5584 -26.93299,-28.3536 -42.25214,-44.7319 -19.60313,-20.9581 -31.14316,-37.957 -46.2646,-54.556 -15.12144,-16.599 -24.05235,-36.7083 -34.44996,-48.3286 -20.79521,-23.2406 -31.82908,-35.9709 -31.43714,-36.3326 0.39195,-0.3617 12.1829,11.6733 33.68479,34.258 103.35564,117.2685 196.68933,192.6934 273.40473,248.6928 232.1832,157.1004 347.7911,185.2392 561.4535,213.3186 86.214,16.2275 160.0645,31.8426 230.7651,38.1507 -134.489,-141.1328 -187.7271,-172.8587 -259.0473,-240.8494 -65.3126,-62.2634 -120.8622,-104.8791 -171.8095,-150.1138 24.7201,-30.2621 31.6798,-41.1116 43.8918,-57.8593 32.9159,-45.1412 28.9762,-31.1985 28.8054,-33.5072 z"
         style="fill:#000000;stroke:none" />
      <path
         sodipodi:nodetypes="ccccccccc"
         inkscape:connector-curvature="0"
         id="path7963-9"
         d="m 1991.7682,4804.6363 22.4673,-10.5192 74.8474,45.1372 55.0909,21.6109 -15.8916,107.6114 -81.1524,-10.7874 -57.0279,-5.5238 -41.425,-68.6376 z"
         style="fill:#000000;fill-opacity:1;fill-rule:evenodd;stroke:#000000;stroke-width:0.54684401px;stroke-linecap:butt;stroke-linejoin:miter;stroke-opacity:1" />
      <path
         sodipodi:nodetypes="ccccccccc"
         inkscape:connector-curvature="0"
         id="path7963"
         d="m 1999.8513,4799.1421 19.5289,-10.5215 65.0585,45.1467 47.8857,21.6156 -13.8133,107.6342 -70.5387,-10.7896 -49.5693,-5.5252 -36.0072,-68.6521 z"
         style="fill:#b8db7c;fill-opacity:1;stroke:#000000;stroke-width:0.50988561px;stroke-linecap:butt;stroke-linejoin:miter;stroke-opacity:1" />
      <path
         inkscape:transform-center-y="-38.761176"
         inkscape:transform-center-x="-555.8896"
         sodipodi:nodetypes="ccccccccc"
         inkscape:connector-curvature="0"
         id="path7963-9-3"
         d="m 2100.1996,5114.6617 2.5161,16.9438 -44.6621,40.5903 -25.1913,32.1725 -68.0489,-31.7936 23.1844,-51.554 14.9316,-36.6352 53.5997,-13.8321 z"
         style="fill:#000000;fill-opacity:1;fill-rule:evenodd;stroke:#000000;stroke-width:0.37758741px;stroke-linecap:butt;stroke-linejoin:miter;stroke-opacity:1" />
      <path
         inkscape:transform-center-y="-37.059176"
         inkscape:transform-center-x="-559.971"
         sodipodi:nodetypes="ccccccccc"
         inkscape:connector-curvature="0"
         id="path7963-0"
         d="m 2102.2359,5121.0956 3.0986,15.0003 -42.7325,34.1124 -23.7696,27.4049 -68.475,-30.423 21.0871,-44.5321 13.4574,-31.7006 52.5381,-10.245 z"
         style="fill:#00923f;fill-opacity:1;fill-rule:evenodd;stroke:#000000;stroke-width:0.35206819px;stroke-linecap:butt;stroke-linejoin:miter;stroke-opacity:1" />
    </g>
  </g>
</svg>
