<?xml version="1.0" encoding="UTF-8" standalone="no"?>
<!-- Created with Inkscape (http://www.inkscape.org/) -->

<svg
   xmlns:dc="http://purl.org/dc/elements/1.1/"
   xmlns:cc="http://creativecommons.org/ns#"
   xmlns:rdf="http://www.w3.org/1999/02/22-rdf-syntax-ns#"
   xmlns:svg="http://www.w3.org/2000/svg"
   xmlns="http://www.w3.org/2000/svg"
   xmlns:xlink="http://www.w3.org/1999/xlink"
   xmlns:sodipodi="http://sodipodi.sourceforge.net/DTD/sodipodi-0.dtd"
   xmlns:inkscape="http://www.inkscape.org/namespaces/inkscape"
   width="256"
   height="256"
   id="svg5274"
   version="1.1"
   inkscape:version="0.48.3.1 r9886"
   sodipodi:docname="applications-python.svg">
  <defs
     id="defs5276">
    <linearGradient
       inkscape:collect="always"
       xlink:href="#linearGradient4092"
       id="linearGradient18220"
       gradientUnits="userSpaceOnUse"
       gradientTransform="matrix(12.301069,0,0,12.131585,-48672.843,15598.621)"
       x1="116.53692"
       y1="58.201862"
       x2="77.087646"
       y2="118.20246" />
    <linearGradient
       id="linearGradient4092">
      <stop
         id="stop4094"
         style="stop-color:#2b5d87;stop-opacity:1"
         offset="0" />
      <stop
         id="stop4096"
         style="stop-color:#4182b8;stop-opacity:1"
         offset="1" />
    </linearGradient>
  </defs>
  <sodipodi:namedview
     id="base"
     pagecolor="#ffffff"
     bordercolor="#666666"
     borderopacity="1.0"
     inkscape:pageopacity="0.0"
     inkscape:pageshadow="2"
     inkscape:zoom="1.1471225"
     inkscape:cx="180.61046"
     inkscape:cy="43.647527"
     inkscape:document-units="px"
     inkscape:current-layer="layer1"
     showgrid="false"
     inkscape:window-width="1438"
     inkscape:window-height="827"
     inkscape:window-x="0"
     inkscape:window-y="25"
     inkscape:window-maximized="1" />
  <metadata
     id="metadata5279">
    <rdf:RDF>
      <cc:Work
         rdf:about="">
        <dc:format>image/svg+xml</dc:format>
        <dc:type
           rdf:resource="http://purl.org/dc/dcmitype/StillImage" />
        <dc:title />
      </cc:Work>
    </rdf:RDF>
  </metadata>
  <g
     inkscape:label="Capa 1"
     inkscape:groupmode="layer"
     id="layer1"
     transform="translate(0,-796.36218)">
    <g
       transform="matrix(0.12588544,0,0,0.12588544,6072.904,-1216.6714)"
       style="fill-rule:evenodd"
       id="g18333">
      <rect
         style="fill:#b8db7c;fill-rule:evenodd;stroke:#72706f;stroke-width:53.75832367"
         y="-48164.66"
         x="-17702.037"
         class="fil3 str0"
         transform="matrix(-0.00430507,-0.99999073,0.99998792,-0.00491528,0,0)"
         width="1820.6991"
         height="1753.0746"
         rx="288.99924"
         ry="427.3316"
         id="rect7046-0-2-9-1-0-8-9-1" />
      <path
         sodipodi:nodetypes="cccccccccc"
         d="m -47458.94,16111.48 488.003,-25.543 c 216.885,4.819 540.549,-2.542 608.959,178.88 23.179,61.481 35.25,124.793 36.559,188.295 l -15.162,628.092 -5.704,0.07 c -70.498,-249.561 -50.538,-560.803 -222.516,-748.599 -91.904,-98.498 -330.787,-170.112 -466.13,-198.923 l -424.009,-22.274 z"
         class="fil1 str1"
         id="_80379776-7-7-5-7-9-6-26-7"
         inkscape:connector-curvature="0"
         style="fill:#1f1a17;fill-rule:evenodd;stroke:#1f1a17;stroke-width:21.60933876" />
      <path
         style="fill:none"
         inkscape:connector-curvature="0"
         class="fil2"
         d="m -47458.938,16111.492 c 151.615,-25.107 831.276,-12.299 945.076,44.545 105.516,52.701 150.616,160.736 154.159,297.509 l 16.272,627.697"
         id="path7050-7-1-0-9-3-8-09-4" />
      <path
         style="fill:none"
         inkscape:connector-curvature="0"
         class="fil2"
         d="m -48092.435,17131.491 c 0,110.479 -19.614,241.338 -10.815,351.513 27.47,343.988 162.021,465.658 530.677,441.889 71.038,-4.574 454.845,10.038 536.073,10.038"
         id="path7054-6-7-2-3-9-0-5-8" />
      <path
         inkscape:connector-curvature="0"
         id="path4552-0-2-4-0-9"
         d="m -47615.532,16237.857 c -51.222,-0.09 -85.417,7.938 -85.417,7.938 l 33.351,157.839 c 0,0 86.644,-15.371 162.896,17.201 -9.491,-3.723 10.427,9.601 25.88,33.623 18.099,28.134 41.173,69.727 66.506,119.43 32.802,64.359 69.732,142.584 108.339,226.523 l -391.991,884.109 147.526,65.377 333.814,-752.887 c 53.161,117.693 106.328,235.354 154.725,335.679 56.037,116.163 99.034,204.043 148.85,260.497 75.73,85.825 152.853,126.859 213.642,143.169 60.793,16.309 113.321,6.226 113.321,6.226 l -36.269,-157.216 c 0,0 -5.097,3.255 -35.219,-4.826 -30.118,-8.08 -77.173,-29.141 -134.49,-94.097 -16.708,-18.936 -70.078,-110.966 -124.528,-223.838 -54.448,-112.873 -116.621,-251.608 -178.191,-387.749 -61.57,-136.14 -122.442,-269.561 -175.779,-374.206 -26.668,-52.321 -51.304,-97.323 -74.561,-133.478 -23.257,-36.154 -33.939,-64.57 -84.835,-88.726 -68.099,-32.326 -136.344,-40.505 -187.57,-40.588 z"
         style="font-size:medium;font-style:normal;font-variant:normal;font-weight:normal;font-stretch:normal;text-indent:0;text-align:start;text-decoration:none;line-height:normal;letter-spacing:normal;word-spacing:normal;text-transform:none;direction:ltr;block-progression:tb;writing-mode:lr-tb;text-anchor:start;baseline-shift:baseline;color:#000000;fill:#00923f;fill-opacity:1;fill-rule:evenodd;stroke:#737373;stroke-width:37.35833359;stroke-miterlimit:4;stroke-opacity:1;stroke-dasharray:none;marker:none;visibility:visible;display:inline;overflow:visible;enable-background:accumulate;font-family:Sans;-inkscape-font-specification:Sans" />
      <path
         sodipodi:nodetypes="cccccccccccccccccsccccccccc"
         inkscape:connector-curvature="0"
         id="path5715-4-6-2-1-6"
         d="m -46581.027,17747.552 c -1.089,0.239 -22.011,-6.285 -27.517,-46.628 -18.794,-134.249 18.172,-90.918 -59.831,-121.371 -6.403,-2.35 -12.602,-5.406 -18.506,-8.88 l 0,0 c -166.722,-75.643 -196.134,-253.627 -250.029,-380.339 -6.861,-15.627 -14.866,-30.274 -20.531,-45.951 -0.848,-2.368 -1.156,-3.659 -0.889,-3.794 l 0,0 0,0 c 0,0 0,0 0,0 0,0 0,0 0,0 l 0,0 -46.367,-97.081 c 0.27,-0.129 44.578,82.043 45.941,84.155 8.841,14.493 20.618,44.141 27.554,56.862 15.034,27.585 35.705,68.89 60.933,114.169 10.696,19.198 22.19,39.638 34.511,60.941 12.321,21.302 25.473,43.465 39.546,66.071 8.722,14.01 17.779,28.177 27.364,42.262 2.708,3.978 5.434,7.916 8.181,11.805 9.941,14.063 19.977,27.524 31.015,39.402 27.199,26.86 73.555,47.579 101.269,46.423 8.536,-1.92 7.915,-1.727 20.941,-6.464 8.448,40.949 22.278,110.386 35.301,139.411 6.441,31.035 6.751,60.401 5.66,60.64 z"
         style="fill:#000000;fill-rule:evenodd;stroke:none" />
      <rect
         style="fill:#b8db7c;fill-rule:evenodd;stroke:#72706f;stroke-width:53.75832367"
         y="-48164.66"
         x="-17702.037"
         class="fil3 str0"
         transform="matrix(-0.00430507,-0.99999073,0.99998792,-0.00491528,0,0)"
         width="1820.6991"
         height="1753.0746"
         rx="288.99924"
         ry="427.3316"
         id="rect7046-0-2-9-5-1-9-7-6" />
      <path
         sodipodi:nodetypes="cccccccccc"
         d="m -47458.94,16111.48 488.003,-25.543 c 216.885,4.819 540.549,-2.542 608.959,178.88 23.179,61.481 35.25,124.793 36.559,188.295 l -15.162,628.092 -5.704,0.07 c -70.498,-249.561 -50.538,-560.803 -222.516,-748.599 -91.904,-98.498 -330.787,-170.112 -466.13,-198.923 l -424.009,-22.274 z"
         class="fil1 str1"
         id="_80379776-7-7-5-5-8-0-2-2"
         inkscape:connector-curvature="0"
         style="fill:#1f1a17;fill-rule:evenodd;stroke:#1f1a17;stroke-width:21.60933876" />
      <path
         style="fill:none"
         inkscape:connector-curvature="0"
         class="fil2"
         d="m -47458.938,16111.492 c 151.615,-25.107 831.276,-12.299 945.076,44.545 105.516,52.701 150.616,160.736 154.159,297.509 l 16.272,627.697"
         id="path7050-7-1-0-8-5-2-2-0" />
      <path
         d="m -48092.434,17131.484 c 12.21,225.244 -32.405,495.22 156.028,694.032 49.889,52.651 153.367,74.504 238.34,79.817 l 390.488,9.009 271.078,18.817 0,3.536 -533.425,7.489 c -134.351,1.138 -281.869,10.374 -387.66,-59.387 -110.814,-73.074 -146.442,-178.658 -161.659,-280.192 -23.979,-160.094 5.393,-313.955 26.809,-473.121 z"
         class="fil1 str1"
         id="_80692792-8-7-7-6-1-3-6-3"
         inkscape:connector-curvature="0"
         style="fill:#1f1a17;fill-rule:evenodd;stroke:#1f1a17;stroke-width:21.60933876" />
      <path
         d="m -46893.732,17546.301 c 0,93.656 -82.417,141.09 -166.064,164.747 -125.84,35.667 -226.832,30.208 -332.006,0 -87.83,-25.234 -166.065,-76.793 -166.065,-164.747 l 0,-308.991 c 0,-88.925 75.16,-164.869 166.065,-164.869 l 326.696,-20.948 c 110.586,0 182.861,-68.077 182.861,-179.809 l 30.091,-149.36 124.487,0 c 96.686,0 142.2,70.848 166.064,164.747 33.213,130.414 34.689,227.952 0,329.615 -33.582,98.751 -69.501,164.747 -166.064,164.747 l -166.065,0 -332.005,0 0,-0.648 332.005,0 0,165.516 z"
         inkscape:connector-curvature="0"
         id="path2732"
         style="fill:#00923f;fill-opacity:1;stroke:#737373;stroke-width:0.60210526;stroke-opacity:1" />
      <path
         d="m -46877.088,17546.301 c 0,93.656 -99.061,141.09 -182.708,164.747 -125.84,35.667 -226.832,30.208 -332.006,0 -87.83,-25.234 -166.065,-76.793 -166.065,-164.747 l 0,-325.406 c 0,-105.365 77.538,-162.523 166.065,-162.523 l 295.279,-1.746 c 110.587,0 222.513,-111.614 222.513,-223.346 l 0,-110.956 146.343,0 c 96.686,0 142.2,70.848 166.064,164.747 33.213,130.414 34.689,227.952 0,329.615 -33.582,98.751 -69.501,176.471 -166.064,176.471 l -149.421,0 -348.649,0 0,-0.647 348.649,1.172 0,152.619 z"
         inkscape:connector-curvature="0"
         id="path2744"
         style="fill:none;stroke:#737373;stroke-width:49.42037582;stroke-opacity:1" />
      <path
         d="m -47582.599,16515.041 c 0,-93.656 25.463,-144.608 166.065,-168.872 95.456,-16.499 217.851,-18.561 332.005,0 90.167,14.68 166.064,80.918 166.064,168.872 l 0,308.992 c 0,90.622 -73.683,164.868 -166.064,164.868 l -301.096,16.414 c -112.678,0 -229.041,97.093 -229.041,204.215 l -9.511,129.489 -114.154,0 c -96.563,0 -152.779,-68.665 -176.397,-164.747 -31.86,-129.08 -30.507,-205.995 0,-329.616 26.447,-107.849 110.956,-164.746 207.519,-164.746 l 124.61,0 332.129,0 0,-1.098 -332.129,0 0,-163.771 0,0 z"
         inkscape:connector-curvature="0"
         id="path2730"
         style="fill:url(#linearGradient18220);fill-opacity:1;stroke:none" />
      <path
         d="m -47601.54,16523.725 c 0,-93.656 99.061,-141.09 182.709,-164.747 125.839,-35.667 226.831,-30.208 332.005,0 87.829,25.233 166.064,76.793 166.064,164.747 l 0,308.991 c 0,88.925 -75.159,178.938 -166.064,178.938 l -309.333,0 c -86.843,0 -208.458,94.263 -208.458,205.995 l 0,130.053 -146.344,0 c -96.686,0 -142.2,-70.848 -166.064,-164.747 -33.213,-130.414 -34.689,-227.953 0,-329.615 33.582,-98.751 69.501,-176.472 166.064,-176.472 l 149.421,0 348.649,0 0,0.649 -348.649,-1.173 0,-152.619 z"
         inkscape:connector-curvature="0"
         id="path3530"
         style="fill:#00923f;fill-opacity:1;stroke:#737373;stroke-width:49.42020035;stroke-miterlimit:4;stroke-opacity:1;stroke-dasharray:none" />
      <path
         sodipodi:nodetypes="sssss"
         d="m -47484.775,16490.316 c 0,-35.282 30.045,-63.808 67.267,-63.808 37.09,0 72.418,41.4 72.418,76.682 0,35.157 -48.202,53.384 -77.568,53.384 -37.222,0 -62.117,-31.101 -62.117,-66.258 z"
         inkscape:connector-curvature="0"
         id="path2734-0"
         style="fill:#000000;fill-opacity:1;fill-rule:evenodd" />
      <path
         d="m -47481.031,16486.637 c 0,-32.427 26.973,-58.645 60.39,-58.645 33.298,0 60.39,26.218 60.39,58.645 0,32.312 -27.092,58.53 -60.39,58.53 -33.417,0 -60.39,-26.218 -60.39,-58.53 z"
         inkscape:connector-curvature="0"
         id="path2734"
         style="fill:#b8db7c;fill-opacity:1" />
      <path
         sodipodi:nodetypes="sssss"
         d="m -46996.013,17555.679 c 0,-38.076 -30.045,-68.861 -67.267,-68.861 -37.09,0 -72.418,44.678 -72.418,82.754 0,37.941 48.202,57.612 77.568,57.612 37.222,0 62.117,-33.564 62.117,-71.505 z"
         inkscape:connector-curvature="0"
         id="path2734-0-7"
         style="fill:#000000;fill-opacity:1;fill-rule:evenodd" />
      <path
         d="m -47117.934,17551.974 c 0,-34.089 27.924,-61.749 62.244,-61.749 34.443,0 62.244,27.66 62.244,61.749 0,34.211 -27.801,61.871 -62.244,61.871 -34.32,0 -62.244,-27.66 -62.244,-61.871 z"
         inkscape:connector-curvature="0"
         id="path2736"
         style="fill:#b8db7c;fill-opacity:1" />
      <path
         sodipodi:nodetypes="cccccscccc"
         d="m -47579.078,17298.766 c 5.602,126.329 -31.766,264.872 54.69,376.376 22.889,29.53 87.264,54.661 126.249,57.64 100.665,17.973 213.737,14.913 311.259,5.307 40.96,-4.432 144.035,-54.05 144.035,-54.05 0,0 -104.962,62.444 -171.101,70.97 -74.516,9.606 -225.399,-0.437 -225.399,-0.437 -61.643,0.638 -127.126,-9.576 -175.665,-48.702 -50.841,-40.985 -69.387,-84.806 -76.369,-141.753 -11.002,-89.789 2.475,-176.082 12.301,-265.351 z"
         class="fil1 str1"
         id="_80692792-8-7-7-6-1-3-6-3-3"
         inkscape:connector-curvature="0"
         style="fill:#1f1a17;fill-rule:evenodd;stroke:#1f1a17;stroke-width:10.961833" />
      <path
         sodipodi:nodetypes="ccccccccc"
         d="m -46912.198,16774.343 c -5.602,-126.329 25.167,-264.872 -61.288,-376.376 -22.889,-29.53 -80.666,-54.661 -119.651,-57.64 -110.226,-13.27 -209.501,-15.751 -309.14,-3.188 -40.96,4.432 -137.677,51.931 -137.677,51.931 116.819,-81.384 227.613,-81.88 388.023,-70.533 61.643,-0.638 116.129,5.178 164.668,44.304 50.841,40.985 80.384,89.204 87.365,146.151 11.002,89.789 -2.474,176.082 -12.3,265.351 z"
         class="fil1 str1"
         id="_80692792-8-7-7-6-1-3-6-3-3-2"
         inkscape:connector-curvature="0"
         style="fill:#1f1a17;fill-rule:evenodd;stroke:#1f1a17;stroke-width:10.961833" />
      <path
         sodipodi:nodetypes="ccccc"
         d="m -47604.265,17117.003 c 143.498,-225.502 397.48,-86.353 544.501,-135.538 38.936,-13.022 78.364,-41.697 82.292,-63.876 -17.882,88.572 -156.748,102.453 -228.682,105.741 -118.389,6.259 -253.142,-99.981 -398.111,93.673 z"
         class="fil1 str1"
         id="_80692792-8-7-7-6-1-3-6-3-3-2-4"
         inkscape:connector-curvature="0"
         style="fill:#1f1a17;fill-rule:evenodd;stroke:#1f1a17;stroke-width:9.49403572" />
    </g>
  </g>
</svg>
