<?xml version="1.0" encoding="UTF-8" standalone="no"?>
<!-- Created with Inkscape (http://www.inkscape.org/) -->

<svg
   xmlns:dc="http://purl.org/dc/elements/1.1/"
   xmlns:cc="http://creativecommons.org/ns#"
   xmlns:rdf="http://www.w3.org/1999/02/22-rdf-syntax-ns#"
   xmlns:svg="http://www.w3.org/2000/svg"
   xmlns="http://www.w3.org/2000/svg"
   xmlns:sodipodi="http://sodipodi.sourceforge.net/DTD/sodipodi-0.dtd"
   xmlns:inkscape="http://www.inkscape.org/namespaces/inkscape"
   width="256"
   height="256"
   id="svg4473"
   version="1.1"
   inkscape:version="0.48.3.1 r9886"
   sodipodi:docname="Documento nuevo 15">
  <defs
     id="defs4475" />
  <sodipodi:namedview
     id="base"
     pagecolor="#ffffff"
     bordercolor="#666666"
     borderopacity="1.0"
     inkscape:pageopacity="0.0"
     inkscape:pageshadow="2"
     inkscape:zoom="0.46440439"
     inkscape:cx="494.94659"
     inkscape:cy="-161.27473"
     inkscape:document-units="px"
     inkscape:current-layer="layer1"
     showgrid="false"
     inkscape:window-width="1438"
     inkscape:window-height="827"
     inkscape:window-x="0"
     inkscape:window-y="25"
     inkscape:window-maximized="1" />
  <metadata
     id="metadata4478">
    <rdf:RDF>
      <cc:Work
         rdf:about="">
        <dc:format>image/svg+xml</dc:format>
        <dc:type
           rdf:resource="http://purl.org/dc/dcmitype/StillImage" />
        <dc:title></dc:title>
      </cc:Work>
    </rdf:RDF>
  </metadata>
  <g
     inkscape:label="Capa 1"
     inkscape:groupmode="layer"
     id="layer1"
     transform="translate(0,-796.36218)">
    <g
       id="g4520"
       transform="matrix(0.08162613,0,0,0.08162613,113.24265,837.6358)">
      <g
         id="g4401"
         style="fill-rule:evenodd"
         transform="translate(-66.856511,-11266.993)">
        <circle
           d="M 57.894501,0 C 57.894501,31.97425 31.97425,57.894501 0,57.894501 -31.97425,57.894501 -57.894501,31.97425 -57.894501,0 c 0,-31.97425 25.920251,-57.894501 57.894501,-57.894501 31.97425,0 57.894501,25.920251 57.894501,57.894501 z"
           sodipodi:ry="57.894501"
           sodipodi:rx="57.894501"
           sodipodi:cy="0"
           sodipodi:cx="0"
           cy="0"
           cx="0"
           id="_67621792-4-8"
           class="fil0 str0"
           transform="matrix(24.832956,-0.38787508,0.38787508,24.832956,224.22794,12337.704)"
           r="57.894501"
           style="fill:#b8db7c;fill-opacity:1;fill-rule:nonzero;stroke:#72706f;stroke-width:3.51563001" />
        <path
           sodipodi:type="arc"
           id="path3394"
           style="fill:#000000;stroke:none"
           sodipodi:cx="-7660.0957"
           sodipodi:cy="15481.337"
           sodipodi:rx="1.5"
           sodipodi:ry="1.5"
           d="m -7658.5957,15481.337 c 0,0.828 -0.6716,1.5 -1.5,1.5 -0.8284,0 -1.5,-0.672 -1.5,-1.5 0,-0.829 0.6716,-1.5 1.5,-1.5 0.8284,0 1.5,0.671 1.5,1.5 z"
           transform="translate(7909.4508,-1761.7551)" />
        <path
           style="fill:none;stroke:#00913f;stroke-width:70;stroke-linecap:butt;stroke-linejoin:miter;stroke-miterlimit:4;stroke-opacity:1;stroke-dasharray:none"
           d="m -1099.6507,11965.114 c 0,0 591.25534,-307.668 1297.67834,-298.214 738.0707,9.877 1366.12236,278.967 1366.12236,278.967"
           id="path3528"
           inkscape:connector-curvature="0"
           sodipodi:nodetypes="csc" />
        <path
           style="fill:#000000;stroke:none"
           d="m -1132.0692,11988.411 c 0,-0.01 0,-0.03 0.01,-0.04 0.014,-0.02 0.04,-0.04 0.074,-0.07 l 0,0 c 0.069,-0.06 0.1752,-0.127 0.3208,-0.215 l 0,0 c 0.2908,-0.177 0.7357,-0.42 1.3331,-0.728 l 0,0 c 1.1919,-0.614 2.9913,-1.486 5.3853,-2.601 l 0,0 c 4.7651,-2.218 11.8882,-5.4 21.2705,-9.428 l 0,0 c 18.5724,-7.974 46.005,-19.272 81.5363,-32.947 l 0,0 c 34.68054,-13.348 77.06794,-28.997 126.47574,-45.942 49.4076,-16.945 105.841,-35.177 168.5273,-53.734 l 0,0 c 60.2015,-17.822 126.1912,-35.937 197.2799,-53.262 71.0887,-17.326 147.2777,-33.859 227.8015,-48.46 l 0,0 c 76.5738,-13.886 157.1056,-26.043 240.756599,-35.176 83.651,-9.134 170.419701,-15.239 259.356201,-16.981 5.5484,-0.108 11.1049,3.796 16.669,3.714 95.2633,-1.413 188.3443,-2.915 278.0554,2.743 89.7112,5.658 176.0505,14.472 257.9543,25.511 l 10e-5,0 0,0 c 82.7367,11.15 160.9616,24.55 233.7129,39.197 72.75136,14.648 140.03066,30.54 201.02416,46.56 l 0,0 c 60.8493,15.981 115.4694,32.058 163.0739,47.27 47.6046,15.212 88.2023,29.544 121.1767,41.86 l 0,0 c 33.0784,12.356 58.4721,22.732 75.5595,30.095 l 0,0 c 8.5648,3.691 15.046,6.627 19.3676,8.679 l 0,0 c 2.1638,1.027 3.7868,1.833 4.8596,2.403 l 0,0 c 0.5368,0.284 0.9359,0.51 1.1962,0.674 l 0,0 0,0 c 0.1174,0.108 0.2096,0.182 0.2718,0.23 l 0,0 0,0 c 0.028,0.03 0.051,0.05 0.066,0.06 0.01,0 0.014,0.01 0.018,0.01 0.01,0 0.01,0 0.01,0 0,0 0,0 -2e-4,0 -0.011,0 -0.018,0 -0.028,0 -0.019,0 -0.049,0 -0.091,-0.01 l 0,0 0,0 c -0.078,-0.02 -0.1953,-0.04 -0.3569,-0.05 l 0,0 0,0 c -0.2974,-0.09 -0.7334,-0.232 -1.3066,-0.439 l 0,0 c -1.1455,-0.412 -2.8389,-1.062 -5.0717,-1.934 l 0,0 c -4.4594,-1.742 -11.0679,-4.367 -19.7538,-7.752 l 0,12 c -17.3293,-6.754 -35.1459,-2.28 -76.1671,-40.304 l 7.7748,15.75 c -33.1418,-11.739 -81.6368,-29.259 -129.3185,-43.937 -47.6816,-14.677 -102.3334,-42.245 -163.1797,-57.759 l 0,12 c -60.986,-15.549 -128.2092,-31.006 -200.85916,-45.267 -72.6503,-14.261 -150.7289,-39.321 -233.2834,-50.193 l 0,0 c 0,0 0,0 -1e-4,0 -81.7218,-10.763 -167.8393,-7.358 -257.3009,-12.87 -89.4615,-5.511 -182.2653,-19.933 -277.2408,-18.525 -5.5474,0.08 -11.087,0.178 -16.6186,0.286 -88.5845,1.723 -175.040601,19.739 -258.430501,28.724 -83.389699,8.984 -163.711899,20.929 -240.129599,34.555 -80.3587,14.328 -156.4297,30.536 -227.4495,47.495 -71.0196,16.958 -136.989,22.663 -197.2158,40.042 l 0,10 c -62.7148,18.097 -119.2151,37.83 -168.7311,54.247 -49.5161,16.418 -92.0535,19.511 -126.92114,32.283 l 0,0 c -35.7232,13.086 -63.3763,23.767 -82.2051,31.113 l 0,0 c -9.5118,3.71 -16.7701,6.57 -21.6787,8.464 l 0,0 c -2.4662,0.951 -4.3389,1.659 -5.6062,2.108 l 0,0 c -0.6352,0.225 -1.1181,0.386 -1.4475,0.48 l 0,0 c -0.165,0.05 -0.2913,0.08 -0.379,0.09 l 0,0 c -0.044,0 -0.078,0 -0.1027,0 -0.019,0 -0.032,-0.01 -0.038,-0.02 z"
           id="path3380-4-5"
           inkscape:connector-curvature="0"
           sodipodi:nodetypes="ccccccccccccccsccccccccsccccccscccccccccccccccscsscccccccccccccccccscccscsssscccccccccccccccscc" />
        <path
           style="fill:none;stroke:#00913f;stroke-width:70;stroke-linecap:butt;stroke-linejoin:miter;stroke-miterlimit:4;stroke-opacity:1;stroke-dasharray:none"
           d="m -1126.976,12848.573 c 0,0 591.25534,307.668 1297.67834,298.214 738.0707,-9.877 1366.12236,-278.967 1366.12236,-278.967"
           id="path3528-1"
           inkscape:connector-curvature="0"
           sodipodi:nodetypes="csc" />
        <path
           style="fill:#000000;fill-rule:evenodd;stroke:none"
           d="m -1159.3945,12825.276 c 0,0.01 0,0.03 0.01,0.04 0.014,0.02 0.04,0.04 0.074,0.07 l 0,0 c 0.069,0.06 0.1752,0.127 0.3208,0.215 l 0,0 c 0.2908,0.177 0.7357,0.42 1.3331,0.728 l 0,0 c 1.1919,0.614 2.9913,1.486 5.3853,2.601 l 0,0 c 4.7651,2.218 11.8882,5.4 21.2705,9.428 l 0,0 c 18.5724,7.974 46.005,19.272 81.5363,32.947 l 0,0 c 34.6805,13.348 77.06794,28.997 126.47574,45.942 49.4076,16.945 105.841,35.177 168.5273,53.734 l 0,0 c 60.2015,17.822 126.1912,35.937 197.2799,53.262 71.0887,17.326 147.2777,33.859 227.8015,48.46 l 0,0 c 76.5738,13.886 157.1056,26.043 240.756599,35.176 83.651,9.134 170.4197,15.239 259.356201,16.981 5.5484,0.108 11.1049,-3.796 16.669,-3.714 95.2633,1.413 188.3443,2.915 278.0554,-2.743 89.7112,-5.658 176.0505,-14.472 257.9543,-25.511 l 10e-5,0 0,0 c 82.7367,-11.15 160.9616,-24.55 233.7129,-39.197 72.75136,-14.648 140.03066,-30.54 201.02416,-46.56 l 0,0 c 60.8493,-15.981 115.4694,-32.058 163.0739,-47.27 47.6046,-15.212 88.2023,-29.544 121.1767,-41.86 l 0,0 c 33.0784,-12.356 58.4721,-22.732 75.5595,-30.095 l 0,0 c 8.5648,-3.691 15.046,-6.627 19.3676,-8.679 l 0,0 c 2.1638,-1.027 3.7868,-1.833 4.8596,-2.403 l 0,0 c 0.5368,-0.284 0.9359,-0.51 1.1962,-0.674 l 0,0 0,0 c 0.1174,-0.108 0.2096,-0.182 0.2718,-0.23 l 0,0 0,0 c 0.028,-0.03 0.051,-0.05 0.066,-0.06 0.01,0 0.014,-0.01 0.018,-0.01 0.01,0 0.01,0 0.01,0 0,0 0,0 -2e-4,0 -0.011,0 -0.018,0 -0.028,0 -0.019,0 -0.049,0 -0.091,0.01 l 0,0 0,0 c -0.078,0.02 -0.1953,0.04 -0.3569,0.05 l 0,0 0,0 c -0.2974,0.09 -0.7334,0.232 -1.3066,0.439 l 0,0 c -1.1455,0.412 -2.8389,1.062 -5.0717,1.934 l 0,0 c -4.4594,1.742 -11.0679,4.367 -19.7538,7.752 l 0,-12 c -17.3293,6.754 -35.1459,2.28 -76.1671,40.304 l 7.7748,-15.75 c -33.1418,11.739 -81.6368,29.259 -129.3185,43.937 -47.6816,14.677 -102.3334,42.245 -163.1797,57.759 l 0,-12 c -60.986,15.549 -128.2092,31.006 -200.85916,45.267 -72.6503,14.261 -150.7289,39.321 -233.2834,50.193 l 0,0 c 0,0 0,0 -10e-5,0 -81.7218,10.763 -167.8393,7.358 -257.3009,12.87 -89.4615,5.511 -182.2653,19.933 -277.2408,18.525 -5.5474,-0.08 -11.087,-0.178 -16.6186,-0.286 -88.584501,-1.723 -175.040601,-19.739 -258.430501,-28.724 -83.389699,-8.984 -163.711899,-20.929 -240.129599,-34.555 -80.3587,-14.328 -156.4297,-30.536 -227.4495,-47.495 -71.0196,-16.958 -136.989,-22.663 -197.2158,-40.042 l 0,-10 c -62.7148,-18.097 -119.2151,-37.83 -168.7311,-54.247 -49.5161,-16.418 -92.05354,-19.511 -126.92114,-32.283 l 0,0 c -35.7232,-13.086 -63.3763,-23.767 -82.2051,-31.113 l 0,0 c -9.5118,-3.71 -16.7701,-6.57 -21.6787,-8.464 l 0,0 c -2.4662,-0.951 -4.3389,-1.659 -5.6062,-2.108 l 0,0 c -0.6352,-0.225 -1.1181,-0.386 -1.4475,-0.48 l 0,0 c -0.165,-0.05 -0.2913,-0.08 -0.379,-0.09 l 0,0 c -0.044,0 -0.078,0 -0.1027,0 -0.019,0 -0.032,0.01 -0.038,0.02 z"
           id="path3380-4-5-8"
           inkscape:connector-curvature="0"
           sodipodi:nodetypes="ccccccccccccccsccccccccsccccccscccccccccccccccscsscccccccccccccccccscccscsssscccccccccccccccscc" />
        <g
           style="fill:#1f1a17;fill-opacity:1;fill-rule:evenodd"
           id="g3960-5-4"
           transform="matrix(12.23461,0,0,12.634203,-1598.6305,10408.489)">
          <path
             inkscape:connector-curvature="0"
             id="_67468136-3-3"
             class="fil2"
             d="M 204.103,49.2784 C 186.9982,42.82015 172.4014,36.4879 153.7076,36.301 87.0129,35.632476 31.9516,102.2884 36.4516,166.864 c 2.61043,37.4651 24.68,67.2967 57.6633,84.7448 33.3778,17.6557 71.2456,21.0274 106.114,6.09285 11.7165,-5.01878 19.3111,-11.7137 28.3991,-20.1762 l 0.54119,0.36264 c -5.0257,5.62086 -9.68599,11.6404 -15.9242,15.8743 -62.7389,42.5669 -164.799004,6.29077 -182.043004,-68.7418 -13.0867,-56.9353 21.5879,-118.438004 73.820004,-142.285004 20.3838,-9.30536 43.7157,-12.9262 65.7604,-7.90741 11.866,2.7004 22.4156,9.05069 33.321,14.4501 z"
             style="fill:#1f1a17;fill-opacity:1" />
        </g>
        <path
           style="fill:none;stroke:#00913f;stroke-width:69.39556885;stroke-linecap:round;stroke-linejoin:bevel;stroke-miterlimit:4;stroke-opacity:1;stroke-dasharray:none"
           d="m 707.17184,11021.071 c 0,0 307.66796,581.089 298.21396,1275.365 -9.87696,725.38 -278.96696,1342.632 -278.96696,1342.632"
           id="path3528-15"
           inkscape:connector-curvature="0"
           sodipodi:nodetypes="csc" />
        <path
           style="fill:#000000;fill-rule:evenodd;stroke:none"
           d="m 693.85204,11024.078 c 0.01,0 0.03,0 0.04,0 0.02,0.01 0.04,0.04 0.07,0.07 l 0,0 c 0.06,0.07 0.127,0.172 0.215,0.315 l 0,0 c 0.177,0.286 0.42,0.723 0.728,1.31 l 0,0 c 0.614,1.171 1.486,2.94 2.601,5.293 l 0,0 c 2.218,4.683 5.4,11.684 9.428,20.904 l 0,0 c 7.974,18.254 19.272,45.214 32.947,80.135 l 0,0 c 13.348,34.084 28.997,75.742 45.942,124.301 16.945,48.558 35.177,104.021 53.734,165.63 l 0,0 c 17.822,59.166 35.937,124.021 53.262,193.887 17.326,69.866 33.859,144.745 48.46,223.885 l 0,0 c 13.886,75.257 26.043,154.403 35.176,236.616 9.134,82.212 15.239,167.489 16.981,254.897 0.108,5.453 -3.796,10.914 -3.714,16.383 1.413,93.625 2.915,185.105 -2.743,273.273 -5.658,88.169 -14.472,173.024 -25.511,253.519 l 0,0 0,0 c -11.15,81.314 -24.55,158.194 -39.197,229.694 -14.648,71.501 -30.54,137.623 -46.56,197.569 l 0,0 c -15.981,59.802 -32.058,113.483 -47.27,160.269 -15.212,46.786 -29.544,86.686 -41.86,119.093 l 0,0 c -12.356,32.51 -22.732,57.467 -30.095,74.261 l 0,0 c -3.691,8.416 -6.627,14.787 -8.679,19.034 l 0,0 c -1.027,2.127 -1.833,3.722 -2.403,4.776 l 0,0 c -0.284,0.528 -0.51,0.92 -0.674,1.176 l 0,0 0,0 c -0.108,0.115 -0.182,0.206 -0.23,0.267 l 0,0 0,0 c -0.03,0.03 -0.05,0.05 -0.06,0.07 0,0.01 -0.01,0.01 -0.01,0.02 0,0.01 0,0.01 0,0.01 0,0 0,0 0,0 0,-0.01 0,-0.02 0,-0.03 0,-0.02 0,-0.05 0.01,-0.09 l 0,0 0,0 c 0.02,-0.08 0.04,-0.192 0.05,-0.351 l 0,0 0,0 c 0.09,-0.292 0.232,-0.721 0.439,-1.284 l 0,0 c 0.412,-1.125 1.062,-2.79 1.934,-4.985 l 0,0 c 1.742,-4.382 4.367,-10.877 7.752,-19.413 l -12,0 c 6.754,-17.032 2.28,-34.542 40.304,-74.858 l -15.75,7.641 c 11.739,-32.571 29.259,-80.233 43.937,-127.095 14.677,-46.862 42.245,-100.574 57.759,-160.374 l -12,0 c 15.549,-59.937 31.006,-126.004 45.267,-197.405 14.261,-71.401 39.321,-148.137 50.193,-229.272 l 0,0 c 0,0 0,0 0,0 10.763,-80.316 7.358,-164.953 12.87,-252.875 5.511,-87.924 19.933,-179.132 18.525,-272.474 -0.08,-5.453 -0.178,-10.897 -0.286,-16.334 -1.723,-87.06 -19.739,-172.03 -28.724,-253.986 -8.984,-81.956 -20.929,-160.897 -34.555,-236.001 -14.328,-78.977 -30.536,-153.74 -47.495,-223.538 -16.958,-69.799 -22.663,-134.633 -40.042,-193.825 l -10,0 c -18.097,-61.636 -37.83,-117.165 -54.247,-165.829 -16.418,-48.665 -19.511,-90.472 -32.283,-124.739 l 0,0 c -13.086,-35.11 -23.767,-62.287 -31.113,-80.792 l 0,0 c -3.71,-9.348 -6.57,-16.482 -8.464,-21.306 l 0,0 c -0.951,-2.423 -1.659,-4.264 -2.108,-5.509 l 0,0 c -0.225,-0.625 -0.386,-1.099 -0.48,-1.424 l 0,0 c -0.05,-0.162 -0.08,-0.286 -0.09,-0.372 l 0,0 c 0,-0.04 0,-0.08 0,-0.101 0,-0.02 0.01,-0.03 0.02,-0.04 z"
           id="path3380-4-5-1"
           inkscape:connector-curvature="0"
           sodipodi:nodetypes="ccccccccccccccsccccccccsccccccscccccccccccccccscsscccccccccccccccccscccscsssscccccccccccccccscc" />
        <path
           style="fill:none;stroke:#00913f;stroke-width:69.39556885;stroke-linecap:round;stroke-linejoin:miter;stroke-miterlimit:4;stroke-opacity:1;stroke-dasharray:none"
           d="m -164.37186,11020.543 c 0,0 -307.668,581.088 -298.214,1275.364 9.877,725.38 278.967,1342.633 278.967,1342.633"
           id="path3528-15-6"
           inkscape:connector-curvature="0"
           sodipodi:nodetypes="csc" />
        <path
           style="fill:#000000;fill-rule:evenodd;stroke:none"
           d="m -151.05206,11023.549 c -0.01,0 -0.03,0 -0.04,0.01 -0.02,0.01 -0.04,0.04 -0.07,0.07 l 0,0 c -0.06,0.07 -0.127,0.172 -0.215,0.314 l 0,0 c -0.177,0.286 -0.42,0.724 -0.728,1.311 l 0,0 c -0.614,1.171 -1.486,2.94 -2.601,5.293 l 0,0 c -2.218,4.683 -5.4,11.684 -9.428,20.904 l 0,0 c -7.974,18.254 -19.272,45.214 -32.947,80.135 l 0,0 c -13.348,34.084 -28.997,75.742 -45.942,124.3 -16.945,48.559 -35.177,104.022 -53.734,165.631 l 0,0 c -17.822,59.165 -35.937,124.021 -53.262,193.886 -17.326,69.867 -33.859,144.746 -48.46,223.885 l 0,0 c -13.886,75.258 -26.043,154.404 -35.176,236.617 -9.134,82.212 -15.239,167.489 -16.981,254.897 -0.108,5.453 3.796,10.914 3.714,16.382 -1.413,93.625 -2.915,185.106 2.743,273.274 5.658,88.169 14.472,173.024 25.511,253.519 l 0,0 0,0 c 11.15,81.314 24.55,158.194 39.197,229.694 14.648,71.501 30.54,137.623 46.56,197.568 l 0,0 c 15.981,59.803 32.058,113.484 47.27,160.269 15.212,46.787 29.544,86.687 41.86,119.094 l 0,0 c 12.356,32.51 22.732,57.466 30.095,74.261 l 0,0 c 3.691,8.416 6.627,14.787 8.679,19.034 l 0,0 c 1.027,2.126 1.833,3.721 2.403,4.776 l 0,0 c 0.284,0.528 0.51,0.92 0.674,1.175 l 0,0 0,0 c 0.108,0.115 0.182,0.207 0.23,0.268 l 0,0 0,0 c 0.03,0.03 0.05,0.05 0.06,0.07 0,0 0.01,0 0.01,0.02 0,0.01 0,0.01 0,0.01 0,0 0,0 0,0 0,-0.01 0,-0.02 0,-0.03 0,-0.02 0,-0.05 -0.01,-0.09 l 0,0 0,0 c -0.02,-0.08 -0.04,-0.193 -0.05,-0.351 l 0,0 0,0 c -0.09,-0.293 -0.232,-0.721 -0.439,-1.284 l 0,0 c -0.412,-1.126 -1.062,-2.791 -1.934,-4.985 l 0,0 c -1.742,-4.382 -4.367,-10.877 -7.752,-19.413 l 12,0 c -6.754,-17.032 -2.28,-34.542 -40.304,-74.858 l 15.75,7.641 c -11.739,-32.572 -29.259,-80.233 -43.937,-127.095 -14.677,-46.862 -42.245,-100.574 -57.759,-160.374 l 12,0 c -15.549,-59.937 -31.006,-126.004 -45.267,-197.405 -14.261,-71.401 -39.321,-148.137 -50.193,-229.272 l 0,0 c 0,0 0,0 0,0 -10.763,-80.316 -7.358,-164.953 -12.87,-252.876 -5.511,-87.923 -19.933,-179.132 -18.525,-272.474 0.08,-5.452 0.178,-10.896 0.286,-16.333 1.723,-87.061 19.739,-172.03 28.724,-253.986 8.984,-81.956 20.929,-160.897 34.555,-236.001 14.328,-78.977 30.536,-153.74 47.495,-223.538 16.958,-69.799 22.663,-134.634 40.042,-193.825 l 10,0 c 18.097,-61.637 37.83,-117.165 54.247,-165.83 16.418,-48.664 19.511,-90.471 32.283,-124.738 l 0,0 c 13.086,-35.11 23.767,-62.288 31.113,-80.792 l 0,0 c 3.71,-9.348 6.57,-16.482 8.464,-21.306 l 0,0 c 0.951,-2.424 1.659,-4.264 2.108,-5.51 l 0,0 c 0.225,-0.625 0.386,-1.098 0.48,-1.423 l 0,0 c 0.05,-0.162 0.08,-0.286 0.09,-0.372 l 0,0 c 0,-0.04 0,-0.08 0,-0.101 0,-0.02 -0.01,-0.03 -0.02,-0.04 z"
           id="path3380-4-5-1-2"
           inkscape:connector-curvature="0"
           sodipodi:nodetypes="ccccccccccccccsccccccccsccccccscccccccccccccccscsscccccccccccccccccscccscsssscccccccccccccccscc" />
        <path
           style="fill:none;stroke:#00913f;stroke-width:70.20108795;stroke-linecap:butt;stroke-linejoin:miter;stroke-miterlimit:4;stroke-opacity:1;stroke-dasharray:none"
           d="m -1153.6096,12451.373 2774.6115,0"
           id="path4373"
           inkscape:connector-curvature="0" />
        <path
           style="fill:#000000;stroke:none"
           d="m -1155.6375,12420.445 c -0.01,-2.76 620.79684,-7.156 1385.72864,-9.811 764.9318,-2.656 1385.75376,-2.572 1385.76336,0.188 0.01,2.76 -592.672,35.281 -1357.60376,37.936 -764.9318,2.656 -1413.87864,-25.553 -1413.88824,-28.313 z"
           id="path3384"
           inkscape:connector-curvature="0"
           sodipodi:nodetypes="cscsc" />
        <path
           style="fill:none;stroke:#00913f;stroke-width:70.40010071;stroke-linecap:butt;stroke-linejoin:miter;stroke-miterlimit:4;stroke-opacity:1;stroke-dasharray:none"
           d="m 223.33244,10940.054 0,2790.366"
           id="path4373-6"
           inkscape:connector-curvature="0" />
        <path
           style="fill:#000000;fill-rule:evenodd;stroke:none"
           d="m 228.11484,10918.937 c 2.76,-0.01 7.156,624.322 9.811,1393.597 2.656,769.274 2.572,1393.621 -0.188,1393.631 -2.76,0.01 -35.281,-596.037 -37.936,-1365.312 -2.656,-769.275 25.553,-1421.906 28.313,-1421.916 z"
           id="path3384-74"
           inkscape:connector-curvature="0"
           sodipodi:nodetypes="cscsc" />
      </g>
    </g>
  </g>
</svg>
