<?xml version="1.0" encoding="UTF-8" standalone="no"?>
<!-- Created with Inkscape (http://www.inkscape.org/) -->

<svg
   xmlns:dc="http://purl.org/dc/elements/1.1/"
   xmlns:cc="http://creativecommons.org/ns#"
   xmlns:rdf="http://www.w3.org/1999/02/22-rdf-syntax-ns#"
   xmlns:svg="http://www.w3.org/2000/svg"
   xmlns="http://www.w3.org/2000/svg"
   xmlns:xlink="http://www.w3.org/1999/xlink"
   xmlns:sodipodi="http://sodipodi.sourceforge.net/DTD/sodipodi-0.dtd"
   xmlns:inkscape="http://www.inkscape.org/namespaces/inkscape"
   width="256"
   height="256"
   id="svg2"
   version="1.1"
   inkscape:version="0.48.3.1 r9886"
   sodipodi:docname="applications-3D.svg">
  <defs
     id="defs4">
    <linearGradient
       id="linearGradient39155">
      <stop
         style="stop-color:white;stop-opacity:1;"
         offset="0"
         id="stop39157" />
      <stop
         style="stop-color:#dadada;stop-opacity:1;"
         offset="1"
         id="stop39159" />
    </linearGradient>
    <linearGradient
       inkscape:collect="always"
       xlink:href="#linearGradient39155"
       id="linearGradient3039"
       gradientUnits="userSpaceOnUse"
       x1="31.1875"
       y1="18.875"
       x2="29.875"
       y2="34.375" />
    <inkscape:path-effect
       effect="skeletal"
       id="path-effect12193-2-8-7-7"
       is_visible="true"
       pattern="m 24702.514,-7149.6398 c 0,-2.76 2.24,-5 5,-5 2.76,0 5,2.24 5,5 0,2.76 -2.24,5 -5,5 -2.76,0 -5,-2.24 -5,-5 z"
       copytype="single_stretched"
       prop_scale="1"
       scale_y_rel="false"
       spacing="0"
       normal_offset="0"
       tang_offset="0"
       prop_units="false"
       vertical_pattern="false"
       fuse_tolerance="0" />
    <inkscape:path-effect
       effect="skeletal"
       id="path-effect12193-2-8-7"
       is_visible="true"
       pattern="m 25008.298,-7450.5702 c 0,-2.76 2.24,-5 5,-5 2.76,0 5,2.24 5,5 0,2.76 -2.24,5 -5,5 -2.76,0 -5,-2.24 -5,-5 z"
       copytype="single_stretched"
       prop_scale="1"
       scale_y_rel="false"
       spacing="0"
       normal_offset="0"
       tang_offset="0"
       prop_units="false"
       vertical_pattern="false"
       fuse_tolerance="0" />
    <inkscape:path-effect
       effect="skeletal"
       id="path-effect12193-2-8"
       is_visible="true"
       pattern="m 25309.228,-7746.6462 c 0,-2.76 2.24,-5 5,-5 2.76,0 5,2.24 5,5 0,2.76 -2.24,5 -5,5 -2.76,0 -5,-2.24 -5,-5 z"
       copytype="single_stretched"
       prop_scale="1"
       scale_y_rel="false"
       spacing="0"
       normal_offset="0"
       tang_offset="0"
       prop_units="false"
       vertical_pattern="false"
       fuse_tolerance="0" />
    <inkscape:path-effect
       effect="skeletal"
       id="path-effect12193-2"
       is_visible="true"
       pattern="m 25658.696,-8096.1135 c 0,-2.76 2.24,-5 5,-5 2.76,0 5,2.24 5,5 0,2.76 -2.24,5 -5,5 -2.76,0 -5,-2.24 -5,-5 z"
       copytype="single_stretched"
       prop_scale="1"
       scale_y_rel="false"
       spacing="0"
       normal_offset="0"
       tang_offset="0"
       prop_units="false"
       vertical_pattern="false"
       fuse_tolerance="0" />
    <inkscape:path-effect
       effect="skeletal"
       id="path-effect12193"
       is_visible="true"
       pattern="m 25954.548,-8391.5574 c 0,-2.76 2.24,-5 5,-5 2.76,0 5,2.24 5,5 0,2.76 -2.24,5 -5,5 -2.76,0 -5,-2.24 -5,-5 z"
       copytype="single_stretched"
       prop_scale="1"
       scale_y_rel="false"
       spacing="0"
       normal_offset="0"
       tang_offset="0"
       prop_units="false"
       vertical_pattern="false"
       fuse_tolerance="0" />
  </defs>
  <sodipodi:namedview
     id="base"
     pagecolor="#ffffff"
     bordercolor="#666666"
     borderopacity="1.0"
     inkscape:pageopacity="0.0"
     inkscape:pageshadow="2"
     inkscape:zoom="0.81132679"
     inkscape:cx="256.78103"
     inkscape:cy="82.301613"
     inkscape:document-units="px"
     inkscape:current-layer="layer1"
     showgrid="false"
     inkscape:window-width="1438"
     inkscape:window-height="827"
     inkscape:window-x="0"
     inkscape:window-y="25"
     inkscape:window-maximized="1" />
  <metadata
     id="metadata7">
    <rdf:RDF>
      <cc:Work
         rdf:about="">
        <dc:format>image/svg+xml</dc:format>
        <dc:type
           rdf:resource="http://purl.org/dc/dcmitype/StillImage" />
        <dc:title></dc:title>
      </cc:Work>
    </rdf:RDF>
  </metadata>
  <g
     inkscape:label="Capa 1"
     inkscape:groupmode="layer"
     id="layer1"
     transform="translate(0,-796.36218)">
    <path
       style="fill:#b8db7c;fill-opacity:1;fill-rule:nonzero;stroke:#72706f;stroke-width:0.25695494"
       inkscape:connector-curvature="0"
       id="path4782-4"
       d="m 240.97072,860.28969 c -12.6151,13.87273 -34.38391,15.91054 -48.62053,4.55055 -14.22808,-11.35315 -15.54218,-31.80962 -2.92716,-45.68241 11.39923,-14.3157 33.15934,-16.344 48.59985,-4.544 14.2367,11.35992 15.55998,31.80609 2.94784,45.67586 z"
       class="fil0 str0" />
    <g
       style="fill-rule:evenodd"
       id="_79162808-4"
       transform="matrix(0.05793123,0.04517201,-0.05086901,0.05466582,227.07776,663.72993)">
      <path
         style="fill:#1f1a17;stroke:#1f1a17;stroke-width:2.34375"
         inkscape:connector-curvature="0"
         d="m 1174.98,1651.34 c 151.696,-168.739 458.797,-203.52 633.996,-48.7652 159.776,141.131 194.279,398.256 110.052,588.573 -31.009,70.077 -79.3992,135.265 -144.688,177.062 -45.5367,29.1563 -99.7324,38.5992 -151.819,53.1059 l -1.4871,-6.6832 c 91.9078,-46.902 167.68,-86.6402 220.45,-180.292 90.798,-161.13 68.1211,-381.408 -37.834,-530.129 -149.457,-209.774 -430.591,-162.159 -628.67,-52.8715 z"
         class="fil2 str1"
         id="_79208600-31" />
    </g>
    <path
       style="fill:none"
       inkscape:connector-curvature="0"
       id="path4788-1"
       d="m 213.96026,806.97382 c 7.78794,-1.6227 24.58413,7.10756 29.15873,12.00136 21.1876,22.66749 -12.19076,64.62216 -41.97653,50.10107"
       class="fil3" />
    <path
       inkscape:connector-curvature="0"
       style="fill:#00923f;fill-opacity:1;fill-rule:evenodd;stroke:#72706f;stroke-width:0.71157306"
       d="m 140.97421,908.93638 c -5.60261,5.45254 -9.38716,10.68125 -8.56603,11.89914 l 0.93208,1.38232 c 0.76979,1.14179 5.31372,-1.64272 10.57121,-6.37094 l 2.05823,-1.91967 c 5.75842,-5.55066 9.68514,-10.9361 8.85032,-12.17429 l -0.93142,-1.38167 c -0.78308,-1.16195 -5.4756,1.74365 -10.85066,6.62478 z"
       id="rect11194-1-9-4-1-0-1"
       sodipodi:nodetypes="ccccccccc"
       inkscape:transform-center-x="104.86804"
       inkscape:transform-center-y="31.03789" />
    <path
       inkscape:transform-center-y="12.688437"
       inkscape:transform-center-x="-26.006048"
       sodipodi:nodetypes="ccccccccc"
       id="rect11194-1-9-4-1-0-1-0"
       d="m 116.52898,933.17632 c -5.60261,5.45261 -9.38716,10.68125 -8.56603,11.89928 l 0.93224,1.38225 c 0.76955,1.14187 5.31357,-1.64272 10.57105,-6.37087 l 2.05831,-1.91966 c 5.75833,-5.55074 9.68506,-10.93617 8.85032,-12.17436 l -0.9315,-1.38168 c -0.78324,-1.1618 -5.47559,1.7438 -10.85066,6.62493 z"
       style="fill:#00923f;fill-opacity:1;fill-rule:evenodd;stroke:#72706f;stroke-width:0.711573"
       inkscape:connector-curvature="0" />
    <path
       inkscape:transform-center-y="-6.909193"
       inkscape:transform-center-x="5.2151816"
       sodipodi:nodetypes="ccccccccc"
       id="rect11194-1-9-4-1-0-1-0-1"
       d="m 91.796831,957.39863 c -5.602609,5.4526 -9.387159,10.68124 -8.566025,11.8992 l 0.93224,1.38232 c 0.769552,1.1418 5.313568,-1.64278 10.570968,-6.37086 l 2.058396,-1.91974 c 5.75833,-5.55073 9.68506,-10.9361 8.85032,-12.17429 l -0.9315,-1.38167 c -0.78325,-1.16188 -5.4756,1.74364 -10.850746,6.62478 z"
       style="fill:#00923f;fill-opacity:1;fill-rule:evenodd;stroke:#72706f;stroke-width:0.711573"
       inkscape:connector-curvature="0" />
    <path
       style="fill:#b8db7c;fill-opacity:1;fill-rule:evenodd;stroke:#737373;stroke-width:1.6399647;stroke-linecap:butt;stroke-linejoin:miter;stroke-miterlimit:4;stroke-opacity:1;stroke-dasharray:none"
       d="M 6.1127778,997.0669 74.581959,978.6956 53.88921,1045.7439 z"
       id="path12086"
       inkscape:connector-curvature="0"
       sodipodi:nodetypes="cccc" />
    <path
       style="fill:#000000;fill-rule:evenodd;stroke:none"
       d="m 74.081931,979.33576 c 0.05414,0.0166 -0.458942,1.87309 -1.441771,5.21784 -0.982915,3.34457 -2.435513,8.17737 -4.253902,14.1447 -1.818397,5.9673 -4.00242,13.0693 -6.44023,20.9506 -2.437967,7.8814 -5.129642,16.5419 -7.956533,25.6248 -0.07716,0.248 -0.154235,0.4956 -0.231231,0.7429 -6.010883,-6.0889 -11.760759,-11.9176 -17.051448,-17.2932 -5.290782,-5.3756 -10.12227,-10.2979 -14.301387,-14.5736 -4.179211,-4.2756 -7.70603,-7.9048 -10.392867,-10.6926 -2.686923,-2.788 -4.5339509,-4.7349 -5.3587639,-5.6459 -0.254276,-0.4426 -0.3755394,-0.6749 -0.3579229,-0.6859 0.017782,-0.011 0.173508,0.1993 0.4537731,0.6106 0.8992024,0.851 3.7268417,2.0499 6.4495807,4.7904 2.722747,2.7405 4.702118,2.9526 8.861725,7.1988 4.159607,4.2463 4.873315,3.243 10.094136,8.6099 5.220828,5.367 6.364623,5.7198 12.281535,11.8207 10.169993,16.1596 13.732815,-14.1847 14.502612,-15.7939 2.381972,-7.8458 5.134077,-11.0168 6.962064,-16.9475 1.827986,-5.93083 3.880479,-10.32258 5.443125,-13.12804 1.056793,-3.31106 2.683475,-4.96716 2.737505,-4.9506 z"
       id="path12105"
       inkscape:connector-curvature="0"
       sodipodi:nodetypes="ssssscssccscsssccscs" />
    <path
       inkscape:transform-center-y="12.688427"
       inkscape:transform-center-x="-26.006047"
       sodipodi:nodetypes="ccccccccc"
       id="rect11194-1-9-4-1-0-1-0-4"
       d="m 194.15892,855.76449 c -5.60261,5.45268 -9.38716,10.68132 -8.56604,11.89928 l 0.93224,1.38225 c 0.76956,1.14186 5.31357,-1.64272 10.57106,-6.37087 l 2.05831,-1.91967 c 5.75833,-5.55073 9.68506,-10.93609 8.85032,-12.17436 l -0.9315,-1.38167 c -0.78325,-1.16181 -5.4756,1.74379 -10.85066,6.62485 z"
       style="fill:#00923f;fill-opacity:1;fill-rule:evenodd;stroke:#72706f;stroke-width:0.711573"
       inkscape:connector-curvature="0" />
    <path
       inkscape:transform-center-y="-6.9092182"
       inkscape:transform-center-x="5.2151786"
       sodipodi:nodetypes="ccccccccc"
       id="rect11194-1-9-4-1-0-1-0-1-3"
       d="m 169.42677,879.98679 c -5.60261,5.45268 -9.38715,10.68125 -8.56602,11.89928 l 0.93224,1.38225 c 0.76955,1.14179 5.31356,-1.64279 10.57096,-6.37087 l 2.0584,-1.91974 c 5.75833,-5.55073 9.68506,-10.93609 8.85032,-12.17428 l -0.9315,-1.38175 c -0.78325,-1.16181 -5.4756,1.74379 -10.85075,6.62486 z"
       style="fill:#00923f;fill-opacity:1;fill-rule:evenodd;stroke:#72706f;stroke-width:0.711573"
       inkscape:connector-curvature="0" />
    <path
       inkscape:connector-curvature="0"
       style="fill:#000000;fill-rule:evenodd;stroke:none"
       d="m 193.20732,857.08454 c -0.006,0.007 -0.0194,0 -0.0328,-0.0216 -0.0134,-0.0209 -0.0251,-0.0612 -0.0193,-0.10648 0,0 0,0 0,0 0.004,-0.0562 0.0253,-0.12829 0.0598,-0.20409 0.0342,-0.0765 0.0814,-0.16371 0.14259,-0.25882 0.0612,-0.095 0.13669,-0.19776 0.22139,-0.30704 0.16581,-0.21483 0.37507,-0.46277 0.62787,-0.7367 0.2528,-0.27393 0.54955,-0.57356 0.88024,-0.89882 0,0 0,0 0,0 0.57293,-0.56398 1.25753,-1.20738 2.04316,-1.91203 0.78562,-0.70473 1.67243,-1.47044 2.6396,-2.28914 1.18135,-0.99946 2.57565,-1.96948 4.14796,-2.84289 0.46583,-0.25896 0.94897,-0.51107 1.45236,-0.74641 0.14423,-0.0677 0.29232,-0.1347 0.44541,-0.19856 0.0442,-0.0187 0.0914,-0.0374 0.14227,-0.0569 0.008,-0.007 0.0508,-0.0209 0.13046,-0.0389 0.31036,-0.0295 0.5425,0.0461 0.67853,0.13261 0.27002,0.12563 0.51028,0.29395 0.71929,0.48472 0.57685,0.57011 0.96479,1.34323 1.09033,2.17841 -0.38654,0.78824 -0.81326,1.57137 -1.27663,2.34586 -0.83778,1.4001 -1.75435,2.70467 -2.69848,3.91443 -0.94404,1.20982 -1.91532,2.32505 -2.86895,3.34842 -1.38397,1.4695 -2.73669,2.7542 -3.97782,3.85928 -1.24121,1.10515 -2.37065,2.03097 -3.32101,2.77608 -0.95028,0.74505 -1.72155,1.30954 -2.25905,1.68217 -0.5375,0.37263 -0.8413,0.55362 -0.86697,0.52021 -0.0257,-0.0331 0.22853,-0.27868 0.71765,-0.7107 0.48921,-0.43195 1.21341,-1.05087 2.11777,-1.84249 0.90436,-0.79156 1.98887,-1.75596 3.18629,-2.88876 1.19733,-1.13272 2.50742,-2.43412 3.85121,-3.90744 0.92141,-0.99954 1.86095,-2.07877 2.7749,-3.24115 0.91387,-1.16231 1.80199,-2.40785 2.61468,-3.74035 0.4496,-0.7372 0.86385,-1.48131 1.23972,-2.2301 -0.10733,-0.57269 -0.41654,-1.10961 -0.86327,-1.47044 -0.16293,-0.14751 -0.33447,-0.27292 -0.51478,-0.35636 -0.14268,-0.0425 -0.21427,-0.0995 -0.20385,-0.0753 0.0356,-0.0101 0.0367,-0.007 0.002,0 -0.0356,0.013 -0.0736,0.0281 -0.11439,0.0446 -0.13882,0.0562 -0.27764,0.11749 -0.41745,0.18091 -0.48576,0.22044 -0.95626,0.45866 -1.41406,0.70459 -1.54394,0.83007 -2.91774,1.74509 -4.09048,2.6866 -0.98636,0.79198 -1.89318,1.52551 -2.70152,2.19496 -0.80833,0.66946 -1.51835,1.27462 -2.12039,1.79937 0,0 0,0 0,0 -0.34865,0.30417 -0.66123,0.57817 -0.93076,0.82604 -0.26952,0.2478 -0.49641,0.46903 -0.68238,0.65851 -0.0956,0.098 -0.18008,0.18502 -0.25076,0.26443 -0.0708,0.0793 -0.12792,0.15082 -0.17375,0.2136 -0.0455,0.0634 -0.0774,0.11303 -0.0958,0.15478 0,0 0,0 0,0 -0.0125,0.0331 -0.021,0.0583 -0.0235,0.0757 -0.002,0.018 -0.001,0.0295 -0.008,0.0331 z"
       id="path12191" />
    <path
       inkscape:connector-curvature="0"
       style="fill:#000000;fill-rule:evenodd;stroke:none"
       d="m 168.9479,881.31037 c -0.006,0.007 -0.0194,0 -0.0328,-0.0216 -0.0134,-0.0209 -0.025,-0.0612 -0.0193,-0.10655 0,0 0,0 0,0 0.004,-0.0562 0.0253,-0.12822 0.0598,-0.2041 0.0342,-0.0765 0.0814,-0.16378 0.14259,-0.25881 0.0612,-0.0951 0.13668,-0.19776 0.22139,-0.30704 0.16581,-0.21483 0.37506,-0.4627 0.62786,-0.7367 0.2528,-0.274 0.54956,-0.57356 0.88025,-0.89882 0,0 0,0 0,0 0.57293,-0.56399 1.25753,-1.20738 2.04316,-1.91211 0.78554,-0.70466 1.67243,-1.47036 2.6396,-2.28913 1.18135,-0.99939 2.57565,-1.96941 4.14796,-2.84289 0.46583,-0.25896 0.94896,-0.51108 1.45235,-0.74642 0.14424,-0.0677 0.29233,-0.13462 0.44542,-0.19855 0.0442,-0.018 0.0914,-0.0374 0.14227,-0.0569 0.008,-0.007 0.0507,-0.0209 0.13046,-0.0389 0.31036,-0.0295 0.54249,0.0461 0.67853,0.13261 0.27002,0.1257 0.51028,0.29401 0.71929,0.48479 0.57686,0.57011 0.96479,1.34316 1.09033,2.17841 -0.38654,0.78824 -0.81326,1.5713 -1.27663,2.34586 -0.83778,1.4001 -1.75435,2.70467 -2.69848,3.91443 -0.94405,1.20982 -1.91532,2.32505 -2.86895,3.34842 -1.38397,1.4695 -2.73669,2.75413 -3.97782,3.85935 -1.2412,1.10508 -2.37065,2.03089 -3.32101,2.77594 -0.95027,0.74512 -1.72155,1.30961 -2.25905,1.68231 -0.5375,0.37256 -0.8413,0.55355 -0.86697,0.52021 -0.0257,-0.0331 0.22853,-0.27875 0.71765,-0.7107 0.4892,-0.4321 1.21341,-1.05094 2.11777,-1.84257 0.90435,-0.79155 1.98886,-1.75595 3.18629,-2.88875 1.19733,-1.13272 2.50742,-2.43412 3.8512,-3.90737 0.92142,-0.99954 1.86095,-2.07884 2.77491,-3.24115 0.91387,-1.16246 1.80199,-2.40785 2.61467,-3.74049 0.4496,-0.73713 0.86385,-1.48124 1.23973,-2.23003 -0.10733,-0.57277 -0.41654,-1.10961 -0.86327,-1.47051 -0.16293,-0.14744 -0.33447,-0.27292 -0.51479,-0.35636 -0.14268,-0.0425 -0.21426,-0.0994 -0.20385,-0.0753 0.0356,-0.0101 0.0367,-0.007 0.002,0 -0.0356,0.013 -0.0736,0.0281 -0.11439,0.0446 -0.13883,0.0562 -0.27764,0.11742 -0.41746,0.18092 -0.48575,0.22037 -0.95625,0.45859 -1.41405,0.70451 -1.54395,0.83007 -2.91774,1.74509 -4.09048,2.6866 -0.98636,0.79199 -1.89326,1.52544 -2.70152,2.1949 -0.80833,0.66952 -1.51836,1.27469 -2.12039,1.79944 0,0 0,0 0,0 -0.34865,0.30416 -0.66124,0.57824 -0.93076,0.82603 -0.26953,0.2478 -0.49641,0.46903 -0.68239,0.65859 -0.0956,0.098 -0.18007,0.18494 -0.25075,0.26435 -0.0708,0.0793 -0.12792,0.1509 -0.17375,0.2136 -0.0455,0.0634 -0.0775,0.11303 -0.0958,0.15479 0,0 0,0 0,0 -0.0125,0.0331 -0.021,0.0583 -0.0235,0.0756 -0.002,0.018 -0.001,0.0295 -0.008,0.0331 z"
       id="path12191-6" />
    <path
       inkscape:connector-curvature="0"
       style="fill:#000000;fill-rule:evenodd;stroke:none"
       d="m 140.29223,909.96616 c -0.006,0.007 -0.0194,0 -0.0328,-0.0216 -0.0134,-0.0209 -0.0251,-0.0612 -0.0193,-0.10655 0,0 0,0 0,0 0.004,-0.0562 0.0253,-0.12822 0.0598,-0.2041 0.0342,-0.0765 0.0814,-0.16378 0.1426,-0.25881 0.0612,-0.0951 0.13669,-0.19776 0.22139,-0.30704 0.1658,-0.21483 0.37506,-0.46277 0.62786,-0.7367 0.2528,-0.27393 0.54955,-0.57356 0.88025,-0.89882 0,0 0,0 0,0 0.57292,-0.56399 1.25753,-1.20738 2.04315,-1.91211 0.78554,-0.70466 1.67244,-1.47036 2.63961,-2.28913 1.18134,-0.99939 2.57564,-1.96949 4.14796,-2.84289 0.46583,-0.25903 0.94897,-0.511 1.45235,-0.74649 0.14423,-0.0677 0.29232,-0.13463 0.44541,-0.19848 0.0442,-0.0187 0.0915,-0.0374 0.14235,-0.0569 0.007,-0.007 0.0506,-0.0209 0.13047,-0.0389 0.31036,-0.0295 0.54241,0.0461 0.67844,0.13261 0.27003,0.1257 0.51028,0.29394 0.7193,0.48472 0.57686,0.57018 0.96478,1.34323 1.09032,2.17841 -0.38654,0.78824 -0.81325,1.57137 -1.27662,2.34586 -0.83778,1.4001 -1.75436,2.70474 -2.69849,3.9145 -0.94404,1.20982 -1.91531,2.32505 -2.86895,3.34842 -1.38396,1.4695 -2.73669,2.7542 -3.97782,3.85935 -1.2412,1.10508 -2.37065,2.03089 -3.321,2.77594 -0.95028,0.74512 -1.72156,1.30961 -2.25906,1.68224 -0.5375,0.37263 -0.8413,0.55362 -0.86696,0.52021 -0.0257,-0.0331 0.22852,-0.27868 0.71764,-0.71063 0.4892,-0.4321 1.21341,-1.05101 2.11777,-1.84257 0.90436,-0.79155 1.98887,-1.75595 3.18629,-2.88875 1.19734,-1.13272 2.50743,-2.43412 3.85121,-3.90737 0.92142,-0.99961 1.86095,-2.07884 2.7749,-3.24122 0.91388,-1.16232 1.80199,-2.40792 2.61468,-3.74035 0.4496,-0.7372 0.86385,-1.48138 1.23973,-2.23017 -0.10733,-0.5727 -0.41655,-1.10954 -0.86327,-1.47044 -0.16294,-0.14751 -0.33448,-0.27299 -0.51479,-0.35636 -0.14267,-0.0425 -0.21426,-0.0994 -0.20393,-0.0752 0.0356,-0.0101 0.0369,-0.007 0.002,0 -0.0356,0.013 -0.0736,0.0281 -0.11447,0.0446 -0.13874,0.0562 -0.27756,0.11749 -0.41737,0.18092 -0.48575,0.22037 -0.95627,0.45859 -1.41406,0.70459 -1.54395,0.83006 -2.91774,1.74508 -4.09048,2.6866 -0.98636,0.79198 -1.89326,1.52551 -2.70151,2.19489 -0.80834,0.66953 -1.51837,1.27469 -2.12039,1.79951 0,0 0,0 0,0 -0.34866,0.3041 -0.66124,0.57817 -0.93077,0.82604 -0.26953,0.2478 -0.49642,0.46903 -0.68239,0.65851 -0.0956,0.098 -0.18007,0.18495 -0.25075,0.26436 -0.0708,0.0794 -0.12792,0.15089 -0.17375,0.2136 -0.0455,0.0634 -0.0775,0.1131 -0.0958,0.15485 0,0 0,0 0,0 -0.0125,0.0331 -0.021,0.0583 -0.0235,0.0756 -0.002,0.018 -10e-4,0.0295 -0.008,0.0331 z"
       id="path12191-6-9" />
    <path
       inkscape:connector-curvature="0"
       style="fill:#000000;fill-rule:evenodd;stroke:none"
       d="m 115.61651,934.24389 c -0.006,0.007 -0.0194,0 -0.0328,-0.0216 -0.0134,-0.0209 -0.0251,-0.0612 -0.0193,-0.10655 0,0 0,0 0,0 0.004,-0.0562 0.0253,-0.12822 0.0598,-0.2041 0.0342,-0.0765 0.0814,-0.16371 0.14259,-0.25874 0.0612,-0.0951 0.13669,-0.19776 0.2214,-0.30712 0.1658,-0.21482 0.37506,-0.46269 0.62786,-0.73662 0.2528,-0.274 0.54956,-0.57363 0.88025,-0.89889 0,0 0,0 0,0 0.57292,-0.56399 1.25752,-1.20738 2.04315,-1.91204 0.78554,-0.70473 1.67244,-1.47037 2.6396,-2.28913 1.18136,-0.9994 2.57565,-1.96956 4.14797,-2.84297 0.46583,-0.25895 0.94896,-0.511 1.45235,-0.74641 0.14423,-0.0677 0.29233,-0.13463 0.44541,-0.19856 0.0442,-0.018 0.0915,-0.0374 0.14236,-0.0569 0.007,-0.007 0.0506,-0.0209 0.13045,-0.0389 0.31037,-0.0295 0.54242,0.0461 0.67846,0.1326 0.27002,0.1257 0.51027,0.29395 0.71928,0.4848 0.57686,0.5701 0.96479,1.34323 1.09033,2.17833 -0.38654,0.78832 -0.81326,1.57145 -1.27663,2.34587 -0.83777,1.40017 -1.75435,2.70474 -2.69847,3.91456 -0.94405,1.20983 -1.91532,2.32506 -2.86896,3.34835 -1.38397,1.46951 -2.73669,2.7542 -3.97781,3.85935 -1.24121,1.10508 -2.37066,2.03097 -3.32102,2.77602 -0.95027,0.74512 -1.72154,1.30953 -2.25904,1.68224 -0.5375,0.37256 -0.84131,0.55354 -0.86698,0.52021 -0.0257,-0.0331 0.22854,-0.27875 0.71766,-0.7107 0.4892,-0.43203 1.2134,-1.05094 2.11777,-1.8425 0.90435,-0.79162 1.98886,-1.75596 3.18628,-2.88882 1.19734,-1.13273 2.50742,-2.43413 3.85121,-3.90737 0.92141,-0.99954 1.86095,-2.07877 2.7749,-3.24123 0.91387,-1.16231 1.802,-2.40784 2.61468,-3.74034 0.4496,-0.73713 0.86385,-1.48139 1.23973,-2.2301 -0.10734,-0.57277 -0.41655,-1.10962 -0.86328,-1.47044 -0.16293,-0.14751 -0.33446,-0.27299 -0.51478,-0.35636 -0.14268,-0.0425 -0.21426,-0.0995 -0.20393,-0.0753 0.0356,-0.0101 0.0369,-0.007 0.002,0 -0.0356,0.0129 -0.0736,0.0281 -0.11446,0.0446 -0.13875,0.0562 -0.27757,0.11749 -0.41738,0.18084 -0.48576,0.22044 -0.95626,0.45867 -1.41406,0.70466 -1.54394,0.83 -2.91774,1.74502 -4.09048,2.68653 -0.98636,0.79206 -1.89325,1.52551 -2.70152,2.19497 -0.80834,0.66945 -1.51836,1.27462 -2.12039,1.79944 0,0 0,0 0,0 -0.34865,0.30409 -0.66123,0.57817 -0.93076,0.82603 -0.26952,0.2478 -0.49641,0.46903 -0.68238,0.65852 -0.0956,0.098 -0.18008,0.18501 -0.25076,0.26435 -0.0708,0.0794 -0.12791,0.1509 -0.17375,0.21367 -0.0455,0.0634 -0.0775,0.11303 -0.0958,0.15479 0,0 0,0 0,0 -0.0125,0.0331 -0.021,0.0576 -0.0235,0.0756 -0.002,0.018 -0.001,0.0295 -0.008,0.0331 z"
       id="path12191-6-9-0" />
    <path
       inkscape:connector-curvature="0"
       style="fill:#000000;fill-rule:evenodd;stroke:none"
       d="m 90.542751,958.9196 c -0.0058,0.007 -0.01937,0 -0.03283,-0.0216 -0.01339,-0.0209 -0.02505,-0.0612 -0.01929,-0.10654 0,0 0,0 0,0 0.0043,-0.0562 0.02527,-0.12822 0.05983,-0.20403 0.0342,-0.0765 0.08142,-0.16378 0.142595,-0.25881 0.06119,-0.0951 0.136691,-0.19776 0.22139,-0.30705 0.165805,-0.21489 0.375064,-0.46276 0.627864,-0.73669 0.252801,-0.27393 0.549552,-0.57363 0.880254,-0.89889 0,0 0,0 0,0 0.57292,-0.56399 1.257522,-1.20731 2.043149,-1.91204 0.785542,-0.70466 1.672433,-1.47037 2.639603,-2.28913 1.181344,-0.9994 2.575644,-1.96949 4.147964,-2.84297 0.46583,-0.25895 0.94897,-0.511 1.45235,-0.74641 0.14424,-0.0677 0.29232,-0.13463 0.44541,-0.19856 0.0442,-0.018 0.0915,-0.0374 0.14235,-0.0569 0.007,-0.007 0.0506,-0.0209 0.13047,-0.0389 0.31036,-0.0295 0.54242,0.0461 0.67844,0.13254 0.27002,0.1257 0.51029,0.29402 0.7193,0.4848 0.57686,0.5701 0.96479,1.34322 1.09033,2.1784 -0.38654,0.78817 -0.81326,1.57137 -1.27663,2.34586 -0.83778,1.40011 -1.75436,2.70467 -2.69848,3.9145 -0.94405,1.20983 -1.91532,2.32506 -2.86896,3.34842 -1.383965,1.46943 -2.736688,2.75413 -3.977817,3.85935 -1.241208,1.10508 -2.370648,2.0309 -3.321008,2.77594 -0.950281,0.74512 -1.721553,1.30961 -2.259053,1.68224 -0.537493,0.37263 -0.841299,0.55362 -0.866964,0.52022 -0.0257,-0.0331 0.228531,-0.27868 0.717645,-0.71071 0.489201,-0.43202 1.213412,-1.05094 2.117769,-1.84249 0.904357,-0.79155 1.988867,-1.75596 3.186289,-2.88875 1.197336,-1.13273 2.507426,-2.43413 3.851209,-3.90744 0.92142,-0.99954 1.86095,-2.07878 2.7749,-3.24123 0.91388,-1.16231 1.80199,-2.40785 2.61468,-3.74035 0.44959,-0.73712 0.86385,-1.48131 1.23974,-2.2301 -0.10734,-0.57276 -0.41655,-1.10954 -0.86328,-1.47043 -0.16294,-0.14752 -0.33448,-0.273 -0.51479,-0.35636 -0.14268,-0.0425 -0.21426,-0.0995 -0.20393,-0.0753 0.0357,-0.0101 0.0369,-0.007 0.002,0 -0.0356,0.013 -0.0736,0.0281 -0.11447,0.0446 -0.13874,0.0562 -0.27756,0.11749 -0.41737,0.18084 -0.48575,0.22044 -0.95626,0.45866 -1.41405,0.70466 -1.54395,0.83007 -2.91775,1.74509 -4.090486,2.6866 -0.986363,0.79198 -1.893262,1.52551 -2.701516,2.19489 -0.808342,0.66953 -1.518363,1.27469 -2.120397,1.79944 0,0 0,0 0,0 -0.348657,0.30417 -0.661232,0.57817 -0.930763,0.82604 -0.269524,0.2478 -0.496414,0.46903 -0.682384,0.65858 -0.09561,0.098 -0.180067,0.18495 -0.250749,0.26436 -0.07077,0.0793 -0.127922,0.15089 -0.17376,0.2136 -0.0455,0.0634 -0.07749,0.1131 -0.09577,0.15478 0,0 0,0 0,0 -0.01253,0.0331 -0.02102,0.0583 -0.02347,0.0756 -0.0022,0.018 -0.0014,0.0295 -0.0082,0.0331 z"
       id="path12191-6-9-0-7" />
  </g>
</svg>
