<?xml version="1.0" encoding="UTF-8" standalone="no"?>
<!-- Created with Inkscape (http://www.inkscape.org/) -->

<svg
   xmlns:dc="http://purl.org/dc/elements/1.1/"
   xmlns:cc="http://creativecommons.org/ns#"
   xmlns:rdf="http://www.w3.org/1999/02/22-rdf-syntax-ns#"
   xmlns:svg="http://www.w3.org/2000/svg"
   xmlns="http://www.w3.org/2000/svg"
   xmlns:xlink="http://www.w3.org/1999/xlink"
   xmlns:sodipodi="http://sodipodi.sourceforge.net/DTD/sodipodi-0.dtd"
   xmlns:inkscape="http://www.inkscape.org/namespaces/inkscape"
   height="400pt"
   id="svg548"
   inkscape:version="0.48.3.1 r9886"
   sodipodi:docname="applications-painting.svg"
   sodipodi:version="0.32"
   width="400pt"
   version="1.1">
  <metadata
     id="metadata3">
    <rdf:RDF>
      <cc:Work
         rdf:about="">
        <dc:title>Clipart by Nicu Buculei - book_01</dc:title>
        <dc:description />
        <dc:subject>
          <rdf:Bag>
            <rdf:li>hash</rdf:li>
            <rdf:li />
            <rdf:li>education</rdf:li>
          </rdf:Bag>
        </dc:subject>
        <dc:publisher>
          <cc:Agent
             rdf:about="http://www.openclipart.org">
            <dc:title>Nicu Buculei</dc:title>
          </cc:Agent>
        </dc:publisher>
        <dc:creator>
          <cc:Agent>
            <dc:title>Nicu Buculei</dc:title>
          </cc:Agent>
        </dc:creator>
        <dc:rights>
          <cc:Agent>
            <dc:title>Nicu Buculei</dc:title>
          </cc:Agent>
        </dc:rights>
        <dc:date />
        <dc:format>image/svg+xml</dc:format>
        <dc:type
           rdf:resource="http://purl.org/dc/dcmitype/StillImage" />
        <cc:license
           rdf:resource="http://web.resource.org/cc/PublicDomain" />
        <dc:language>en</dc:language>
      </cc:Work>
      <cc:License
         rdf:about="http://web.resource.org/cc/PublicDomain">
        <cc:permits
           rdf:resource="http://web.resource.org/cc/Reproduction" />
        <cc:permits
           rdf:resource="http://web.resource.org/cc/Distribution" />
        <cc:permits
           rdf:resource="http://web.resource.org/cc/DerivativeWorks" />
      </cc:License>
    </rdf:RDF>
  </metadata>
  <defs
     id="defs550">
    <linearGradient
       id="linearGradient562">
      <stop
         id="stop563"
         offset="0.000000"
         style="stop-color:#de9500;stop-opacity:1;" />
      <stop
         id="stop564"
         offset="1.000000"
         style="stop-color:#ffff0f;stop-opacity:1;" />
    </linearGradient>
    <linearGradient
       id="linearGradient558">
      <stop
         id="stop559"
         offset="0"
         style="stop-color:#000;stop-opacity:1;" />
      <stop
         id="stop560"
         offset="1"
         style="stop-color:#fff;stop-opacity:1;" />
    </linearGradient>
    <linearGradient
       id="linearGradient561"
       xlink:href="#linearGradient562" />
    <linearGradient
       gradientUnits="userSpaceOnUse"
       id="linearGradient579"
       spreadMethod="reflect"
       x1="165.94018"
       x2="115.26372"
       xlink:href="#linearGradient562"
       y1="345.88861"
       y2="321.25702"
       gradientTransform="scale(1.0135314,0.98664925)" />
    <radialGradient
       cx="248.18287"
       cy="278.36177"
       fx="248.18287"
       fy="278.36177"
       id="radialGradient630"
       r="405.93497"
       xlink:href="#linearGradient562"
       gradientTransform="scale(1.014899,0.98531973)"
       gradientUnits="userSpaceOnUse" />
    <linearGradient
       inkscape:collect="always"
       xlink:href="#linearGradient562"
       id="linearGradient3011"
       gradientUnits="userSpaceOnUse"
       spreadMethod="reflect"
       x1="169.50368"
       y1="344.3553"
       x2="126.72497"
       y2="323.56246"
       gradientTransform="scale(1.0046413,0.99538014)" />
    <linearGradient
       inkscape:collect="always"
       xlink:href="#linearGradient562"
       id="linearGradient3013"
       gradientUnits="userSpaceOnUse"
       spreadMethod="reflect"
       x1="112.98987"
       y1="486.47833"
       x2="88.545789"
       y2="474.59715"
       gradientTransform="scale(1.2914115,0.77434653)" />
    <linearGradient
       inkscape:collect="always"
       xlink:href="#linearGradient562"
       id="linearGradient3015"
       gradientUnits="userSpaceOnUse"
       spreadMethod="reflect"
       x1="144.65192"
       y1="396.30049"
       x2="116.93925"
       y2="382.83059"
       gradientTransform="scale(1.297672,0.77061078)" />
  </defs>
  <sodipodi:namedview
     id="base"
     inkscape:cx="199.99997"
     inkscape:cy="200"
     inkscape:window-height="794"
     inkscape:window-width="1275"
     inkscape:window-x="588"
     inkscape:window-y="215"
     inkscape:zoom="1"
     showgrid="true"
     inkscape:snap-bbox="true"
     inkscape:window-maximized="0"
     inkscape:current-layer="svg548" />
  <path
     inkscape:connector-curvature="0"
     style="fill:#694869;fill-rule:evenodd;stroke:#8abb22;stroke-width:10;stroke-linejoin:round;stroke-dasharray:none"
     id="path851"
     d="M 160.68422,249.03504 C 107.46064,199.70518 -49.734555,136.80961 41.8595,61.581566 285.69772,-116.00594 577.8085,265.06725 472.59911,400.72437 277.03342,626.40849 258.46706,316.8636 160.68422,249.03504 z m 48.85737,-21.54789 c 34.65721,-27.13143 89.11854,11.09922 60.65011,46.86337 -40.84599,33.29765 -89.11854,-11.09922 -60.65011,-46.86337 z" />
  <path
     inkscape:connector-curvature="0"
     style="fill:#ff0000;fill-opacity:1;fill-rule:evenodd;stroke:#8abb22;stroke-width:10;stroke-linecap:butt;stroke-linejoin:round;stroke-opacity:1;stroke-dasharray:none"
     sodipodi:nodetypes="ccc"
     id="path796"
     d="m 58.5819,77.5 c 35,-27.5 90,11.25 61.25,47.5 -41.25,33.75 -90,-11.25 -61.25,-47.5 z" />
  <path
     inkscape:connector-curvature="0"
     style="fill:#ffff00;fill-opacity:1;fill-rule:evenodd;stroke:#8abb22;stroke-width:10;stroke-linecap:butt;stroke-linejoin:round;stroke-opacity:1;stroke-dasharray:none"
     sodipodi:nodetypes="ccc"
     id="path797"
     d="m 198.5819,53.75 c 35,-27.5 90,11.25 61.25,47.5 -41.25,33.75 -90,-11.25 -61.25,-47.5 z" />
  <path
     inkscape:connector-curvature="0"
     style="fill:#00d400;fill-opacity:1;fill-rule:evenodd;stroke:#8abb22;stroke-width:10;stroke-linecap:butt;stroke-linejoin:round;stroke-opacity:1;stroke-dasharray:none"
     sodipodi:nodetypes="ccc"
     id="path798"
     d="m 321.0819,130 c 35,-27.5 90,11.25 61.25,47.5 -41.25,33.75 -90,-11.25 -61.25,-47.5 z" />
  <path
     inkscape:connector-curvature="0"
     style="fill:#0000ff;fill-opacity:1;fill-rule:evenodd;stroke:#8abb22;stroke-width:10;stroke-linecap:butt;stroke-linejoin:round;stroke-opacity:1;stroke-dasharray:none"
     sodipodi:nodetypes="ccc"
     id="path799"
     d="m 392.3319,248.75 c 35,-27.5 90,11.25 61.25,47.5 -41.25,33.75 -90,-11.25 -61.25,-47.5 z" />
  <path
     inkscape:connector-curvature="0"
     style="fill:#ed00f2;fill-opacity:1;fill-rule:evenodd;stroke:#8abb22;stroke-width:10;stroke-linecap:butt;stroke-linejoin:round;stroke-opacity:1;stroke-dasharray:none"
     sodipodi:nodetypes="ccc"
     id="path800"
     d="m 347.3319,398.75 c 35,-27.5 90,11.25 61.25,47.5 -41.25,33.75 -90,-11.25 -61.25,-47.5 z" />
  <path
     inkscape:connector-curvature="0"
     style="fill:#694869;fill-opacity:1;fill-rule:evenodd;stroke:#694869;stroke-width:1pt;stroke-linecap:butt;stroke-linejoin:miter;stroke-opacity:1"
     sodipodi:nodetypes="ccccccc"
     id="path568"
     d="m 81.234243,478.21196 c 0,0 23.918437,-1.896 50.443437,-45.472 13.263,-9.473 20.842,-9.474 31.262,-21.788 13.263,-23.683 1.895,-34.104 -8.526,-37.893 -13.263,0 -7.579,-4.737 -33.157,1.894 -25.576599,19.895 -23.682599,21.789 -24.629799,46.42 2.8418,31.261 -6.866938,50.207 -15.392638,56.839 z" />
  <path
     inkscape:connector-curvature="0"
     style="fill:#694869;fill-opacity:1;fill-rule:evenodd;stroke:#8abb22;stroke-width:10;stroke-linecap:butt;stroke-linejoin:round;stroke-opacity:1;stroke-dasharray:none"
     sodipodi:nodetypes="ccccccc"
     id="path582"
     d="m 159.97963,292.26012 c 16.104,-73.891 231.147,-283.2499871 231.147,-283.2499871 0,1.8946801 0,3e-5 0,3e-5 0,0 0.948,-0.9473 0.948,-0.94734 -0.948,0 -81.47,235.8832971 -175.255,312.6162971 -14.21,-16.104 -17.052,-10.42 -27.473,-19.894 -7.578,-2.842 -30.314,-7.578 -29.367,-8.525 z" />
  <g
     style="fill:#8abb22;stroke:#694869;stroke-width:10;stroke-linejoin:round;stroke-opacity:1;stroke-dasharray:none;fill-opacity:1"
     id="g575">
    <path
       inkscape:connector-curvature="0"
       style="fill:#8abb22;fill-opacity:1;fill-rule:evenodd;stroke:#694869;stroke-width:10;stroke-linecap:butt;stroke-linejoin:round;stroke-opacity:1;stroke-dasharray:none"
       sodipodi:nodetypes="ccccccc"
       id="path573"
       d="m 126.941,360.744 c 30.315,-58.734 31.262,-62.524 31.262,-62.524 0,0 8.526,-2.841 22.736,-3.789 13.262,4.737 17.051,5.684 26.524,12.315 5.684,11.368 12.316,17.999 12.316,17.999 l -47.366,61.576 c 0,0 -17.999,-25.577 -45.472,-25.577 z" />
    <path
       inkscape:connector-curvature="0"
       style="fill:#8abb22;fill-opacity:1;fill-rule:evenodd;stroke:#694869;stroke-width:10;stroke-linecap:butt;stroke-linejoin:round;stroke-opacity:1;stroke-dasharray:none"
       sodipodi:nodetypes="ccccccccc"
       id="path570"
       d="m 121.257,371.164 c 0.948,0 19.894,1.895 26.525,3.79 6.632,1.894 20.841,14.209 21.789,16.104 0.947,1.894 1.894,0 4.736,1.894 2.842,1.895 6.632,-4.736 6.632,-7.578 -3.789,-8.526 -7.73751,-17.32788 -21.94751,-20.16988 -14.21,-4.737 -36.39324,-10.53937 -39.23424,-4.85537 -1.895,3.79 -5.13125,7.02625 -4.18425,7.97325 0.947,0.948 6.632,4.737 5.684,2.842 z" />
    <path
       inkscape:connector-curvature="0"
       style="fill:#8abb22;fill-opacity:1;fill-rule:evenodd;stroke:#694869;stroke-width:10;stroke-linecap:butt;stroke-linejoin:round;stroke-opacity:1;stroke-dasharray:none"
       sodipodi:nodetypes="cccccccccc"
       id="path574"
       d="m 161.045,299.168 c 0,0 8.80188,-0.27688 19.22288,2.56512 8.526,1.894 17.72312,4.45913 26.24912,12.98513 4.737,6.632 8.525,10.02775 15.156,10.02775 6.632,0 6.632,-0.948 6.632,-6.632 -1.895,-5.684 -6.631,-11.368 -14.21,-18.946 -7.579,-5.684 -19.894,-10.421 -31.261,-14.21 -11.369,-0.947 -23.684,-3.79 -30.315,3.789 -0.948,4.737 0.948,8.526 0.948,8.526 l 7.578,1.895 z" />
  </g>
  <path
     inkscape:connector-curvature="0"
     style="fill:#ffffff;fill-opacity:1;fill-rule:evenodd;stroke:none"
     sodipodi:nodetypes="ccccccc"
     id="path584"
     d="m 87.588985,469.96188 c 0,0 16.617015,-8.80188 13.775015,-30.59088 -2.842,-21.788 -2.8424,-27.472 2.841,-41.682 8.526,-12.315 17.053,-19.893 19.894,-17.999 7.579,6.631 -4.736,8.526 -10.42,23.683 -5.684,15.157 -1.895,24.63 -5.685,41.682 -4.736,17.999 -20.405015,25.85488 -20.405015,24.90688 z" />
</svg>
