<?xml version="1.0" encoding="UTF-8" standalone="no"?>
<!-- Created with Inkscape (http://www.inkscape.org/) -->

<svg
   xmlns:dc="http://purl.org/dc/elements/1.1/"
   xmlns:cc="http://creativecommons.org/ns#"
   xmlns:rdf="http://www.w3.org/1999/02/22-rdf-syntax-ns#"
   xmlns:svg="http://www.w3.org/2000/svg"
   xmlns="http://www.w3.org/2000/svg"
   xmlns:sodipodi="http://sodipodi.sourceforge.net/DTD/sodipodi-0.dtd"
   xmlns:inkscape="http://www.inkscape.org/namespaces/inkscape"
   width="256"
   height="256"
   id="svg5274"
   version="1.1"
   inkscape:version="0.48.3.1 r9886"
   sodipodi:docname="applications-perl.svg">
  <defs
     id="defs5276" />
  <sodipodi:namedview
     id="base"
     pagecolor="#ffffff"
     bordercolor="#666666"
     borderopacity="1.0"
     inkscape:pageopacity="0.0"
     inkscape:pageshadow="2"
     inkscape:zoom="0.66441336"
     inkscape:cx="133.69246"
     inkscape:cy="-64.4301"
     inkscape:document-units="px"
     inkscape:current-layer="layer1"
     showgrid="false"
     inkscape:window-width="1438"
     inkscape:window-height="827"
     inkscape:window-x="0"
     inkscape:window-y="25"
     inkscape:window-maximized="1" />
  <metadata
     id="metadata5279">
    <rdf:RDF>
      <cc:Work
         rdf:about="">
        <dc:format>image/svg+xml</dc:format>
        <dc:type
           rdf:resource="http://purl.org/dc/dcmitype/StillImage" />
        <dc:title></dc:title>
      </cc:Work>
    </rdf:RDF>
  </metadata>
  <g
     inkscape:label="Capa 1"
     inkscape:groupmode="layer"
     id="layer1"
     transform="translate(0,-796.36218)">
    <rect
       id="rect7046-0-2-9-1-0-8-5-5"
       ry="53.021179"
       rx="35.857586"
       height="217.51274"
       width="225.90327"
       transform="matrix(-0.00430507,-0.99999073,0.99998792,-0.00491528,0,0)"
       class="fil3 str0"
       x="-1039.3193"
       y="15.721231"
       style="fill:#b8db7c;fill-rule:evenodd;stroke:#72706f;stroke-width:6.67006588" />
    <path
       style="fill:#1f1a17;fill-rule:evenodd;stroke:#1f1a17;stroke-width:2.68117929"
       inkscape:connector-curvature="0"
       id="_80379776-7-7-5-7-9-6-2-5"
       class="fil1 str1"
       d="m 98.230818,812.53055 60.548842,-3.16925 c 26.91004,0.59795 67.06863,-0.31535 75.55668,22.1946 2.87585,7.6282 4.37366,15.48369 4.53605,23.36266 l -1.88129,77.93053 -0.70765,0.009 c -8.74716,-30.96429 -6.27054,-69.58169 -27.60871,-92.88241 -11.40298,-12.22111 -41.04239,-21.1067 -57.83508,-24.6814 l -52.608842,-2.76367 z"
       sodipodi:nodetypes="cccccccccc" />
    <path
       id="path7050-7-1-0-9-3-8-0-1"
       d="m 98.230979,812.5321 c 18.811641,-3.11518 103.140641,-1.52606 117.260341,5.52691 13.09193,6.53892 18.68773,19.94342 19.12732,36.91349 l 2.01895,77.88154"
       class="fil2"
       inkscape:connector-curvature="0"
       style="fill:none" />
    <path
       id="path7054-6-7-2-3-9-0-3-7"
       d="m 19.629872,939.08844 c 0,13.70763 -2.433643,29.94408 -1.341905,43.61401 3.408303,42.68025 20.102721,57.77645 65.8437,54.82745 8.814058,-0.5676 56.434933,1.2453 66.513313,1.2453"
       class="fil2"
       inkscape:connector-curvature="0"
       style="fill:none" />
    <path
       style="fill:#1f1a17;fill-rule:evenodd;stroke:#1f1a17;stroke-width:2.68117929"
       inkscape:connector-curvature="0"
       id="_80379776-7-7-5-5-8-0-9-9"
       class="fil1 str1"
       d="m 98.230818,812.53055 60.548842,-3.16925 c 26.91004,0.59795 67.06863,-0.31535 75.55668,22.1946 2.87585,7.6282 4.37366,15.48369 4.53605,23.36266 l -1.88129,77.93053 -0.70765,0.009 c -8.74716,-30.96429 -6.27054,-69.58169 -27.60871,-92.88241 -11.40298,-12.22111 -41.04239,-21.1067 -57.83508,-24.6814 l -52.608842,-2.76367 z"
       sodipodi:nodetypes="cccccccccc" />
    <path
       id="path7050-7-1-0-8-5-2-6-8"
       d="m 98.230979,812.5321 c 18.811641,-3.11518 103.140641,-1.52606 117.260341,5.52691 13.09193,6.53892 18.68773,19.94342 19.12732,36.91349 l 2.01895,77.88154"
       class="fil2"
       inkscape:connector-curvature="0"
       style="fill:none" />
    <path
       style="fill:#1f1a17;fill-rule:evenodd;stroke:#1f1a17;stroke-width:2.68117929"
       inkscape:connector-curvature="0"
       id="_80692792-8-7-7-6-1-3-1-2"
       class="fil1 str1"
       d="m 19.630033,939.08751 c 1.514946,27.94723 -4.020752,61.44449 19.359056,86.11219 6.190062,6.5325 19.029042,9.244 29.572035,9.9034 l 48.449806,1.1176 33.63405,2.3349 0,0.4386 -66.184675,0.9292 c -16.6697,0.1412 -34.972859,1.2871 -48.098915,-7.3685 -13.749351,-9.0665 -18.169821,-22.1669 -20.057909,-34.76475 -2.975217,-19.86369 0.669174,-38.95407 3.326244,-58.70264 z" />
    <path
       style="fill:#00923f;fill-opacity:1;fill-rule:evenodd;stroke:#00913f;stroke-width:2.56902623;stroke-opacity:1;display:inline"
       d="m 144.56633,877.27539 c 17.96015,4.35713 37.10694,20.29014 37.61311,46.209 0.93275,16.70877 -15.81729,41.84165 -26.96426,53.90593 -2.05542,13.55405 0.45733,17.01965 0.45733,17.01965 l 14.9542,39.85063 -77.104067,-0.2697 c 0,0 18.196087,-32.6804 13.140437,-43.70165 -7.647986,-4.25189 -16.804277,5.13044 -26.214424,-1.61074 -9.389599,-11.38075 1.384696,-20.13609 -1.618311,-20.51894 -5.320479,-2.62788 2.602382,-9.01987 0.429063,-16.09756 -1.248726,-4.06913 -8.519257,2.52558 -11.406547,-4.85279 1.767425,-10.14005 14.358113,-19.51172 14.335092,-21.74406 0,-2.23 -3.2884,-9.14824 -4.112995,-13.44141 2.026987,-33.31251 36.156382,-40.59817 66.491372,-34.74836 z"
       id="rect4632"
       inkscape:connector-curvature="0"
       sodipodi:nodetypes="cccccccccscccc" />
    <g
       style="fill-rule:evenodd"
       id="_79162808-4-6-3-9-2-0-8-3"
       transform="matrix(0.0197844,-0.02599162,-0.02428586,-0.0168717,174.14192,972.45874)">
      <path
         style="fill:#1f1a17;stroke:#1f1a17;stroke-width:2.34375"
         inkscape:connector-curvature="0"
         d="M 329.48068,354.5427 C 1221.4416,319.69614 2847.1544,1580.0719 1504.9882,3487.3918 2205.4648,1767.9258 2188.1402,668.37241 -444.31852,358.70112 z"
         class="fil2 str1"
         id="_79208600-31-68-5-5-5-0-9-9"
         sodipodi:nodetypes="cccc" />
    </g>
    <g
       style="fill-rule:evenodd"
       id="_79162808-4-6-3-9-2-0-8-2"
       transform="matrix(-0.04369698,0.02334231,0.03852549,0.01101561,96.637839,922.6984)">
      <path
         style="fill:#1f1a17;stroke:#1f1a17;stroke-width:2.34375"
         inkscape:connector-curvature="0"
         d="m 1629.0643,1300.3603 c 73.9166,73.0201 93.7188,95.1822 146.9731,162.0655 299.6128,376.2909 310.4398,575.2225 156.609,695.8113 -94.3741,93.0457 -103.6985,136.5675 -102.7841,125.3935 0.5155,-6.2983 -10.2846,0.8967 -0.6391,-58.4571 197.4375,-237.5534 253.9127,-377.775 -200.1589,-924.8132 z"
         class="fil2 str1"
         id="_79208600-31-68-5-5-5-0-9-4"
         sodipodi:nodetypes="cscscc" />
    </g>
  </g>
</svg>
