<?xml version="1.0" encoding="UTF-8" standalone="no"?>
<!-- Created with Inkscape (http://www.inkscape.org/) -->

<svg
   xmlns:dc="http://purl.org/dc/elements/1.1/"
   xmlns:cc="http://creativecommons.org/ns#"
   xmlns:rdf="http://www.w3.org/1999/02/22-rdf-syntax-ns#"
   xmlns:svg="http://www.w3.org/2000/svg"
   xmlns="http://www.w3.org/2000/svg"
   xmlns:sodipodi="http://sodipodi.sourceforge.net/DTD/sodipodi-0.dtd"
   xmlns:inkscape="http://www.inkscape.org/namespaces/inkscape"
   width="256"
   height="256"
   id="svg4631"
   version="1.1"
   inkscape:version="0.48.3.1 r9886"
   sodipodi:docname="applications-mathematics.svg">
  <defs
     id="defs4633" />
  <sodipodi:namedview
     id="base"
     pagecolor="#ffffff"
     bordercolor="#666666"
     borderopacity="1.0"
     inkscape:pageopacity="0.0"
     inkscape:pageshadow="2"
     inkscape:zoom="1.0019999"
     inkscape:cx="306.10079"
     inkscape:cy="46.203893"
     inkscape:document-units="px"
     inkscape:current-layer="layer1"
     showgrid="false"
     inkscape:window-width="1438"
     inkscape:window-height="827"
     inkscape:window-x="0"
     inkscape:window-y="25"
     inkscape:window-maximized="1"
     showguides="true"
     inkscape:guide-bbox="true" />
  <metadata
     id="metadata4636">
    <rdf:RDF>
      <cc:Work
         rdf:about="">
        <dc:format>image/svg+xml</dc:format>
        <dc:type
           rdf:resource="http://purl.org/dc/dcmitype/StillImage" />
        <dc:title></dc:title>
      </cc:Work>
    </rdf:RDF>
  </metadata>
  <g
     inkscape:label="Capa 1"
     inkscape:groupmode="layer"
     id="layer1"
     transform="translate(0,-796.36218)">
    <path
       style="fill:none;stroke:#00913f;stroke-width:14.38778877;stroke-linecap:butt;stroke-linejoin:miter;stroke-miterlimit:4;stroke-opacity:1;stroke-dasharray:none"
       d="m 9.0813912,893.93062 60.0503678,87.8827 29.213695,-128.16228 154.183236,-1.8309"
       id="path4662"
       inkscape:connector-curvature="0" />
    <path
       style="fill:#000000;fill-rule:evenodd;stroke:none"
       d="m 15.87507,890.45514 c 0.113562,-0.0776 3.954056,7.15118 12.95239,20.26657 4.499251,6.5577 9.927924,14.51453 16.11244,23.61907 6.184432,9.10455 13.124791,16.14397 20.653383,27.29139 7.687292,-42.18769 13.88593,-70.7836 23.850419,-113.92353 -0.380107,-6.18097 2.742201,-4.61206 6.548568,-4.74704 33.08411,0.0959 63.95466,2.2836 85.55277,2.17147 22.7802,-0.11829 37.49426,-0.22452 40.42324,-0.24821 -0.35683,0.0381 -0.53881,0.0193 -0.53881,0 0,-0.0193 0.18198,-0.0381 0.53923,0 -2.92637,0.0253 -17.61245,0.16511 -40.27749,0.42711 -22.66496,0.26201 -52.44133,1.8028 -87.348312,2.23461 -3.034973,13.03513 -7.084182,25.51636 -10.363173,39.55349 -6.270254,26.84253 -10.781694,53.61817 -15.929531,76.29079 0.369096,2.60453 -1.300871,3.80244 -3.319507,1.46032 C 57.69425,954.66208 50.679837,944.43624 44.955367,936.11134 38.681834,926.98784 32.890454,917.71296 28.394901,911.10993 19.40388,897.90386 15.761593,890.5327 15.87507,890.45514 z"
       id="path4668"
       inkscape:connector-curvature="0"
       sodipodi:nodetypes="ssscccscscscsccsss" />
    <path
       style="fill:#b8db7c;fill-opacity:1;fill-rule:evenodd;stroke:#72706f;stroke-width:2.69400787"
       d="m 129.78633,885.76827 -15.25018,14.94955 41.09167,40.59185 -41.77682,39.54932 14.43071,15.73667 42.54165,-40.27862 43.86614,43.33284 15.24497,-14.94406 -43.59598,-43.07142 44.17127,-41.82039 -14.43079,-15.74205 -44.94157,42.54981 -41.35107,-40.8535 z"
       id="rect11194-1-5-0-2"
       inkscape:connector-curvature="0" />
    <g
       transform="matrix(0.34911933,-0.32802763,0.51354018,0.55198865,-23.749037,868.39694)"
       style="fill-rule:evenodd"
       id="_81071816-4-7-3-2">
      <path
         style="fill:#1f1a17;fill-rule:nonzero;stroke:#1f1a17;stroke-width:2.76821995"
         inkscape:connector-curvature="0"
         d="m 67.504541,234.14527 c -10.787269,0.4087 -15.971381,-0.9565 -17.777641,3.11417 -1.563725,10.00963 0.174441,21.83736 8.548473,23.61075 50.943437,1.20416 60.608667,-1.80269 112.320657,-0.18197 l 0.47096,0.39716 c -41.31516,-0.45217 -91.91526,2.70446 -91.91526,2.70446 -4.1716,-0.45049 -8.052946,0.0392 -11.28232,0.0364 -13.544945,-0.0115 -19.060839,2.01145 -20.872965,-3.20321 -3.022259,-11.18618 -3.73704,-22.86538 2.74336,-27.92838 3.489669,-2.46187 22.170705,0.89124 30.772387,1.35516 z"
         class="fil1 str1"
         id="_81851448-2-5-6-2"
         sodipodi:nodetypes="ccccccscccc" />
    </g>
    <path
       style="fill:none"
       inkscape:connector-curvature="0"
       id="path11198-0-2-5-1"
       d="m 141.21678,962.02493 c -4.36022,6.5009 4.02298,12.94427 8.60369,15.96003 7.96342,5.24543 21.93862,-9.3917 27.12159,-14.26151 10.3667,-9.74041 21.76588,-20.45097 32.52992,-29.76436"
       class="fil2" />
    <g
       transform="matrix(0.33952369,0.33794987,-0.53449936,0.53171931,237.5778,744.48342)"
       style="fill-rule:evenodd"
       id="_81071816-4-7-3-2-5">
      <path
         style="fill:#1f1a17;fill-rule:nonzero;stroke:#1f1a17;stroke-width:2.76821995"
         inkscape:connector-curvature="0"
         d="m 67.504541,234.14527 c -10.787269,0.4087 -15.971381,-0.9565 -17.777641,3.11417 -1.563725,10.00963 0.174441,21.83736 8.548473,23.61075 50.943437,1.20416 57.720267,-0.65014 109.432257,0.97058 l -1.63914,0.44109 -86.91676,1.50798 c -4.1716,-0.45049 -8.052946,0.0392 -11.28232,0.0364 -13.544945,-0.0115 -19.060839,2.01145 -20.872965,-3.20321 -3.022259,-11.18618 -3.73704,-22.86538 2.74336,-27.92838 3.489669,-2.46187 22.170705,0.89124 30.772387,1.35516 z"
         class="fil1 str1"
         id="_81851448-2-5-6-2-1"
         sodipodi:nodetypes="ccccccscccc" />
    </g>
    <path
       style="fill:none"
       inkscape:connector-curvature="0"
       id="path11198-0-2-5-1-2"
       d="m 149.52105,912.48918 c -6.64313,-4.14029 -12.80243,4.45379 -15.66323,9.13281 -4.97611,8.1345 10.12033,21.61218 15.16082,26.62932 10.08184,10.03506 21.16773,21.06959 30.836,31.51604"
       class="fil2" />
    <g
       transform="matrix(-0.34911933,0.32802763,-0.51354018,-0.55198865,366.8702,1012.4088)"
       style="fill-rule:evenodd"
       id="_81071816-4-7-3-2-9">
      <path
         style="fill:#1f1a17;fill-rule:nonzero;stroke:#1f1a17;stroke-width:2.76821995"
         inkscape:connector-curvature="0"
         d="m 67.504541,234.14527 c -10.787269,0.4087 -15.971381,-0.9565 -17.777641,3.11417 -1.563725,10.00963 0.174441,21.83736 8.548473,23.61075 50.943437,1.20416 60.608667,-1.80269 112.320657,-0.18197 l 0.47096,0.39716 c -41.31516,-0.45217 -91.91526,2.70446 -91.91526,2.70446 -4.1716,-0.45049 -8.052946,0.0392 -11.28232,0.0364 -13.544945,-0.0115 -19.060839,2.01145 -20.872965,-3.20321 -3.022259,-11.18618 -3.73704,-22.86538 2.74336,-27.92838 3.489669,-2.46187 22.170705,0.89124 30.772387,1.35516 z"
         class="fil1 str1"
         id="_81851448-2-5-6-2-7"
         sodipodi:nodetypes="ccccccscccc" />
    </g>
    <g
       transform="matrix(-0.32802763,-0.34911933,0.55198865,-0.51354018,100.60584,1137.0381)"
       style="fill-rule:evenodd"
       id="_81071816-4-7-3-2-54">
      <path
         style="fill:#1f1a17;fill-rule:nonzero;stroke:#1f1a17;stroke-width:2.76821995"
         inkscape:connector-curvature="0"
         d="m 67.504541,234.14527 c -10.787269,0.4087 -15.971381,-0.9565 -17.777641,3.11417 -1.563725,10.00963 0.174441,21.83736 8.548473,23.61075 50.943437,1.20416 60.608667,-1.80269 112.320657,-0.18197 l 0.47096,0.39716 c -41.31516,-0.45217 -91.91526,2.70446 -91.91526,2.70446 -4.1716,-0.45049 -8.052946,0.0392 -11.28232,0.0364 -13.544945,-0.0115 -19.060839,2.01145 -20.872965,-3.20321 -3.022259,-11.18618 -3.73704,-22.86538 2.74336,-27.92838 3.489669,-2.46187 22.170705,0.89124 30.772387,1.35516 z"
         class="fil1 str1"
         id="_81851448-2-5-6-2-78"
         sodipodi:nodetypes="ccccccscccc" />
    </g>
    <path
       style="fill:#000000;fill-rule:evenodd;stroke:none"
       d="m 40.621204,953.4611 c 0.08154,-0.0567 0.983218,1.0773 2.527603,3.17897 1.544301,2.10168 3.731472,5.17114 6.396172,8.98325 2.664869,3.81213 6.336744,8.01396 9.805368,13.08369 3.468625,5.06972 3.002107,4.07633 6.983985,9.9459 0.409275,0.6032 1.938614,2.20105 3.222001,3.64868 0.922865,1.04206 1.414684,3.4134 2.69908,0.45937 l 0.932363,-2.14455 c 1.438137,-6.50191 1.210005,-4.65895 2.468847,-10.2338 1.258842,-5.57487 2.585603,-10.0409 3.577227,-14.22271 0.99154,-4.18179 2.177336,-8.07934 2.788517,-10.39721 0.611096,-2.31787 1.000282,-3.58544 1.092745,-3.56379 0.09246,0.0217 -0.121799,1.33092 -0.606978,3.69348 -0.485263,2.36257 -0.71205,5.24908 -1.691401,9.48177 -0.979352,4.23267 -2.711268,9.81152 -4.076359,15.43878 -1.000954,4.12614 -2.560974,8.47142 -3.236038,13.21511 -0.594958,4.18059 -0.84217,3.41357 -1.273636,5.1586 0,0 -2.132618,-0.1777 -1.421661,-0.1777 -0.70709,-0.99473 -1.598686,-3.42088 -2.318385,-4.43377 -4.148228,-5.83786 -6.501076,-9.80968 -10.080067,-14.8885 -3.578908,-5.07881 -6.784349,-9.66518 -9.451319,-13.53075 -2.66697,-3.86558 -4.795385,-7.01037 -6.233521,-9.20354 -1.438053,-2.19316 -2.186079,-3.43464 -2.104543,-3.49128 z"
       id="path4845"
       inkscape:connector-curvature="0"
       sodipodi:nodetypes="ssssscccssssssssccsssss" />
    <path
       sodipodi:nodetypes="ccccccscccc"
       id="_81851448-2-5-6-2-7-6"
       class="fil1 str1"
       d="m 242.93402,845.03927 c 4.91029,0.0161 7.20414,-0.66219 8.19547,1.09863 1.13234,4.37342 0.8438,9.59553 -2.87969,10.50143 -23.05666,1.30091 -27.56777,0.12649 -50.95545,1.62202 l -0.1972,0.18118 c 18.72133,-0.82445 41.80649,-0.2045 41.80649,-0.2045 1.87321,-0.26111 3.65447,-0.10482 5.11917,-0.15499 6.14333,-0.21028 8.73084,0.59478 9.3324,-1.7234 0.89813,-4.95972 0.72874,-10.10108 -2.42465,-12.22699 -1.68703,-1.02859 -10.01879,0.72745 -13.9009,1.06158 z"
       inkscape:connector-curvature="0"
       style="fill:#1f1a17;fill-rule:nonzero;stroke:#1f1a17;stroke-width:1.2376672" />
  </g>
</svg>
