<?xml version="1.0" encoding="UTF-8" standalone="no"?>
<!-- Created with Inkscape (http://www.inkscape.org/) -->

<svg
   xmlns:dc="http://purl.org/dc/elements/1.1/"
   xmlns:cc="http://creativecommons.org/ns#"
   xmlns:rdf="http://www.w3.org/1999/02/22-rdf-syntax-ns#"
   xmlns:svg="http://www.w3.org/2000/svg"
   xmlns="http://www.w3.org/2000/svg"
   xmlns:sodipodi="http://sodipodi.sourceforge.net/DTD/sodipodi-0.dtd"
   xmlns:inkscape="http://www.inkscape.org/namespaces/inkscape"
   width="256"
   height="256"
   id="svg4631"
   version="1.1"
   inkscape:version="0.48.3.1 r9886"
   sodipodi:docname="applications-geology.svg">
  <defs
     id="defs4633" />
  <sodipodi:namedview
     id="base"
     pagecolor="#ffffff"
     bordercolor="#666666"
     borderopacity="1.0"
     inkscape:pageopacity="0.0"
     inkscape:pageshadow="2"
     inkscape:zoom="0.27090595"
     inkscape:cx="745.17903"
     inkscape:cy="-209.58559"
     inkscape:document-units="px"
     inkscape:current-layer="layer1"
     showgrid="false"
     inkscape:window-width="1438"
     inkscape:window-height="827"
     inkscape:window-x="0"
     inkscape:window-y="25"
     inkscape:window-maximized="1" />
  <metadata
     id="metadata4636">
    <rdf:RDF>
      <cc:Work
         rdf:about="">
        <dc:format>image/svg+xml</dc:format>
        <dc:type
           rdf:resource="http://purl.org/dc/dcmitype/StillImage" />
        <dc:title></dc:title>
      </cc:Work>
    </rdf:RDF>
  </metadata>
  <g
     inkscape:label="Capa 1"
     inkscape:groupmode="layer"
     id="layer1"
     transform="translate(0,-796.36218)">
    <g
       id="g6179"
       transform="matrix(0.2795015,0,0,0.2795015,111.33786,707.40344)">
      <path
         inkscape:connector-curvature="0"
         id="_67468136-3-3-3"
         class="fil2"
         d="M 248.97014,389.86935 C 187.62512,365.9509 135.27476,342.49906 68.23085,341.80687 c -239.19486,-2.47587 -436.6673,244.38774 -420.5286,483.54667 9.3623,138.75394 88.51297,249.23666 206.80517,313.85666 119.705965,65.3887 255.51577,77.876 380.56858,22.5652 42.01986,-18.5874 69.2571,-43.3823 101.85096,-74.7236 l 1.94045,1.343 c -18.02412,20.8172 -34.73747,43.1108 -57.11002,58.7913 -225.008511,157.6487 -591.038,23.2982 -652.88229,-254.58869 -46.93436,-210.86276 77.42284,-438.64112 264.7495,-526.9597 73.1039,-34.46289 156.782513,-47.87283 235.84343,-29.28551 42.55628,10.00108 80.39189,33.51968 119.5035,53.5167 z"
         style="fill:#1f1a17;fill-opacity:1;fill-rule:evenodd" />
      <g
         transform="matrix(0.29762216,0,0,0.29762216,-3329.9232,250.41667)"
         id="g5268"
         style="fill-rule:evenodd">
        <circle
           d="M 57.894501,0 C 57.894501,31.97425 31.97425,57.894501 0,57.894501 -31.97425,57.894501 -57.894501,31.97425 -57.894501,0 c 0,-31.97425 25.920251,-57.894501 57.894501,-57.894501 31.97425,0 57.894501,25.920251 57.894501,57.894501 z"
           sodipodi:ry="57.894501"
           sodipodi:rx="57.894501"
           sodipodi:cy="0"
           sodipodi:cx="0"
           cy="0"
           cx="0"
           id="_67621792-4-0-3"
           class="fil0 str0"
           transform="matrix(24.458712,-0.38202963,0.38202963,24.458712,11408.132,1764.817)"
           r="57.894501"
           style="fill:#00923f;fill-opacity:1;fill-rule:nonzero;stroke:#72706f;stroke-width:3.51563001" />
        <path
           style="fill:#b8db7c;fill-opacity:1;fill-rule:nonzero;stroke:#72706f;stroke-width:92.40073395"
           d="m 12784.791,1725.647 c 14.101,782.049 -706.354,1425.9273 -1609.182,1438.1423 1175.714,-498.6647 1341.229,-2080.8134 -2.003,-2782.98639 902.828,-12.21501 1597.084,562.79508 1611.185,1344.84409 z"
           id="_67621792-4-0-3-7"
           inkscape:connector-curvature="0"
           sodipodi:nodetypes="sccs" />
        <path
           style="fill:#000000;stroke:none"
           d="m 11191.936,427.07578 c 0.09,-0.0188 0.237,0.2524 0.507,0.74234 0.271,0.48994 0.711,1.19166 1.39,2.0854 0.771,1.00169 1.855,2.20162 3.28,3.59734 2.656,2.59527 -39.703,5.76116 11.355,9.53718 52.62,1.83036 144.26,75.50317 212.624,127.18983 130.595,123.10989 237.902,221.20013 341.645,346.93162 l 0,1.9e-4 c 141.003,190.01622 242.726,368.35052 289.598,577.11612 22.434,101.2716 32.526,208.4199 29.139,317.5826 -0.626,20.193 -1.706,40.2899 -3.22,60.2644 -13.148,154.9046 -49.11,302.1927 -99.092,438.7189 -25.465,69.1112 -57.707,133.4373 -93.861,192.4468 l 0,0 c -37.382,61.0143 -78.874,116.3901 -121.814,166.4623 l 0,0 c -45.92,53.5443 -93.419,101.0707 -140.309,143.3441 -46.889,42.2736 -93.167,79.2968 -137.115,111.7856 l 0,0 c -46.987,34.7411 -91.362,64.3609 -131.734,89.4509 -40.375,25.0902 -76.749,45.6596 -107.941,62.3106 l 0,0 c -29.884,15.9522 -55.056,28.275 -74.673,37.2918 l 0,0 c 0,2e-4 0,2e-4 0,2e-4 l 0,0 c -7.729,3.5537 -14.602,6.5958 -20.571,9.1307 l 0,0 c -1.887,0.8011 -3.685,1.5522 -5.392,2.2504 l 0,0 c -0.467,0.1907 -0.928,0.3778 -1.383,0.5604 l 0,0 0,0 0,0 c -0.453,-0.2951 -0.903,-0.586 -1.348,-0.8728 l 0,0 c -0.04,0.019 -0.06,0.023 -0.09,0.032 -0.02,0 -0.02,0 -0.04,0.019 5.877,-13.2751 9.645,-19.5636 10.107,-19.3373 0.465,0.2262 -2.424,6.9266 -9.357,18.6575 0,0 0.02,-0.019 0.04,-0.019 0.02,-0.019 0.06,-0.028 0.08,-0.043 l 0,0 c -0.216,-0.3869 -0.438,-0.7783 -0.662,-1.1746 l 0,0 0,-10e-5 0,0 c 0.435,-0.2098 0.877,-0.4243 1.326,-0.6433 l 0,0 c 1.646,-0.801 3.38,-1.655 5.208,-2.5595 l 0,0 c 5.778,-2.8622 12.454,-6.2238 19.993,-10.0933 l 0,0 0,0 0,0 c 19.123,-9.8174 43.761,-22.888 73.097,-39.5369 l 0,0 c 1029.428,-733.721 871.766,-1880.1475 297.148,-2349.80722 -106.806,-108.42938 -228.644,-240.23763 -333.452,-275.08108 0,0 -4.441,-3.96898 -6.235,-5.75232 -2.911,-2.84579 -5.377,-5.79088 -7.397,-9.12247 -0.555,-1.04439 -0.839,-1.9355 -0.931,-2.5349 -0.09,-0.5994 -0.02,-0.9101 0.08,-0.92759 z"
           id="path5760"
           inkscape:connector-curvature="0"
           sodipodi:nodetypes="cccccccccsccccccsccsccccccccccccccccccsccccccccccccccccccccccccc" />
      </g>
    </g>
  </g>
</svg>
