<?xml version="1.0" encoding="UTF-8" standalone="no"?>
<!-- Created with Inkscape (http://www.inkscape.org/) -->

<svg
   xmlns:dc="http://purl.org/dc/elements/1.1/"
   xmlns:cc="http://creativecommons.org/ns#"
   xmlns:rdf="http://www.w3.org/1999/02/22-rdf-syntax-ns#"
   xmlns:svg="http://www.w3.org/2000/svg"
   xmlns="http://www.w3.org/2000/svg"
   xmlns:sodipodi="http://sodipodi.sourceforge.net/DTD/sodipodi-0.dtd"
   xmlns:inkscape="http://www.inkscape.org/namespaces/inkscape"
   width="256"
   height="256"
   id="svg5274"
   version="1.1"
   inkscape:version="0.48.3.1 r9886"
   sodipodi:docname="applications-lisp.svg">
  <defs
     id="defs5276" />
  <sodipodi:namedview
     id="base"
     pagecolor="#ffffff"
     bordercolor="#666666"
     borderopacity="1.0"
     inkscape:pageopacity="0.0"
     inkscape:pageshadow="2"
     inkscape:zoom="0.62082784"
     inkscape:cx="253.70976"
     inkscape:cy="-28.415493"
     inkscape:document-units="px"
     inkscape:current-layer="layer1"
     showgrid="false"
     inkscape:window-width="1438"
     inkscape:window-height="827"
     inkscape:window-x="0"
     inkscape:window-y="25"
     inkscape:window-maximized="1" />
  <metadata
     id="metadata5279">
    <rdf:RDF>
      <cc:Work
         rdf:about="">
        <dc:format>image/svg+xml</dc:format>
        <dc:type
           rdf:resource="http://purl.org/dc/dcmitype/StillImage" />
        <dc:title></dc:title>
      </cc:Work>
    </rdf:RDF>
  </metadata>
  <g
     inkscape:label="Capa 1"
     inkscape:groupmode="layer"
     id="layer1"
     transform="translate(0,-796.36218)">
    <g
       style="fill-rule:evenodd"
       id="g7270"
       transform="matrix(0.15714185,0,0,0.15714185,5836.4653,-1839.5389)">
      <rect
         style="fill:#b8db7c;fill-rule:evenodd;stroke:#72706f;stroke-width:43.16974258"
         y="-37101.574"
         x="-18154.463"
         class="fil3 str0"
         transform="matrix(-0.00430507,-0.99999073,0.99998792,-0.00491528,0,0)"
         width="1462.0826"
         height="1407.7778"
         rx="232.07611"
         ry="343.16165"
         id="rect7046-0-2-9-1-0-8-5-2-8-4" />
      <path
         sodipodi:nodetypes="cccccccccc"
         d="m -36517.914,16869.407 391.882,-20.512 c 174.166,3.87 434.079,-2.041 489.015,143.647 18.613,49.371 28.307,100.213 29.358,151.207 l -12.176,504.379 -4.58,0.06 c -56.613,-200.406 -40.584,-450.344 -178.688,-601.15 -73.802,-79.097 -265.633,-136.606 -374.318,-159.742 l -340.493,-17.887 z"
         class="fil1 str1"
         id="_80379776-7-7-5-7-9-6-2-9-3-1"
         inkscape:connector-curvature="0"
         style="fill:#1f1a17;fill-rule:evenodd;stroke:#1f1a17;stroke-width:17.35302544" />
      <path
         style="fill:none"
         inkscape:connector-curvature="0"
         class="fil2"
         d="m -36517.913,16869.417 c 121.752,-20.162 667.543,-9.877 758.928,35.771 84.733,42.321 120.95,129.077 123.795,238.91 l 13.067,504.062"
         id="path7050-7-1-0-9-3-8-0-6-8-6" />
      <path
         style="fill:none"
         inkscape:connector-curvature="0"
         class="fil2"
         d="m -37026.632,17688.51 c 0,88.718 -15.751,193.803 -8.685,282.277 22.059,276.234 130.108,373.939 426.151,354.852 57.046,-3.673 365.256,8.06 430.485,8.06"
         id="path7054-6-7-2-3-9-0-3-5-7-1" />
      <path
         sodipodi:nodetypes="cccccccccc"
         d="m -36517.914,16869.407 391.882,-20.512 c 174.166,3.87 434.079,-2.041 489.015,143.647 18.613,49.371 28.307,100.213 29.358,151.207 l -12.176,504.379 -4.58,0.06 c -56.613,-200.406 -40.584,-450.344 -178.688,-601.15 -73.802,-79.097 -265.633,-136.606 -374.318,-159.742 l -340.493,-17.887 z"
         class="fil1 str1"
         id="_80379776-7-7-5-5-8-0-9-6-1-3"
         inkscape:connector-curvature="0"
         style="fill:#1f1a17;fill-rule:evenodd;stroke:#1f1a17;stroke-width:17.35302544" />
      <path
         style="fill:none"
         inkscape:connector-curvature="0"
         class="fil2"
         d="m -36517.913,16869.417 c 121.752,-20.162 667.543,-9.877 758.928,35.771 84.733,42.321 120.95,129.077 123.795,238.91 l 13.067,504.062"
         id="path7050-7-1-0-8-5-2-6-3-4-5" />
      <path
         d="m -37026.631,17688.504 c 9.805,180.879 -26.023,397.679 125.295,557.332 40.063,42.28 123.159,59.829 191.395,64.096 l 313.575,7.234 217.685,15.111 0,2.839 -428.358,6.014 c -107.889,0.914 -226.35,8.331 -311.304,-47.69 -88.988,-58.68 -117.598,-143.468 -129.818,-225.003 -19.256,-128.561 4.331,-252.117 21.528,-379.933 z"
         class="fil1 str1"
         id="_80692792-8-7-7-6-1-3-1-6-8-2"
         inkscape:connector-curvature="0"
         style="fill:#1f1a17;fill-rule:evenodd;stroke:#1f1a17;stroke-width:17.35302544" />
      <text
         transform="scale(0.88846368,1.1255384)"
         sodipodi:linespacing="125%"
         id="text6378-5-3"
         y="15611.292"
         x="-41393.621"
         style="font-size:973.05395508px;font-style:normal;font-variant:normal;font-weight:normal;font-stretch:normal;line-height:125%;letter-spacing:0px;word-spacing:0px;fill:#00923f;fill-opacity:1;fill-rule:evenodd;stroke:none;font-family:'10.15 Saturday Night R BRK';-inkscape-font-specification:'10.15 Saturday Night R BRK'"
         xml:space="preserve"><tspan
           style="font-style:normal;font-variant:normal;font-weight:normal;font-stretch:normal;fill:#00923f;fill-opacity:1;font-family:Acknowledge TT BRK;-inkscape-font-specification:Acknowledge TT BRK"
           y="15611.292"
           x="-41393.621"
           id="tspan6380-9-9"
           sodipodi:role="line">PE</tspan><tspan
           id="tspan6574-1"
           style="font-style:normal;font-variant:normal;font-weight:normal;font-stretch:normal;fill:#00923f;fill-opacity:1;font-family:Acknowledge TT BRK;-inkscape-font-specification:Acknowledge TT BRK"
           y="16827.609"
           x="-41393.621"
           sodipodi:role="line" /></text>
      <g
         transform="matrix(0.19125868,0.15279498,-0.20233191,0.16934145,-36614.544,16838.25)"
         id="_79162808-4-6-2-8-2-9-9-1-5-3-2-4-1"
         style="fill-rule:evenodd">
        <path
           sodipodi:nodetypes="cscsc"
           id="_79208600-31-68-2-7-1-9-0-6-4-5-7-8-1"
           class="fil2 str1"
           d="m 1801.4855,1256.3891 c 122.6738,11.3866 -204.5436,-356.78265 -287.8375,-286.62407 -126.5359,106.58147 -58.9978,21.19778 -289.6312,308.24727 90.0311,-80.0053 294.6639,-221.2391 341.6894,-221.4219 114.3212,-0.4443 157.2704,157.1693 235.7793,199.7987 z"
           inkscape:connector-curvature="0"
           style="fill:#1f1a17;stroke:#1f1a17;stroke-width:2.34375" />
      </g>
      <text
         transform="scale(0.88846368,1.1255384)"
         sodipodi:linespacing="125%"
         id="text6378-5-6-9"
         y="16039.345"
         x="-41392.668"
         style="font-size:973.05395508px;font-style:normal;font-variant:normal;font-weight:normal;font-stretch:normal;line-height:125%;letter-spacing:0px;word-spacing:0px;fill:#00923f;fill-opacity:1;fill-rule:evenodd;stroke:none;font-family:'10.15 Saturday Night R BRK';-inkscape-font-specification:'10.15 Saturday Night R BRK'"
         xml:space="preserve"><tspan
           style="font-style:normal;font-variant:normal;font-weight:normal;font-stretch:normal;fill:#00923f;fill-opacity:1;font-family:Acknowledge TT BRK;-inkscape-font-specification:Acknowledge TT BRK"
           y="16039.345"
           x="-41392.668"
           id="tspan6380-9-2-5"
           sodipodi:role="line">RL</tspan><tspan
           id="tspan6574-8-4"
           style="font-style:normal;font-variant:normal;font-weight:normal;font-stretch:normal;fill:#00923f;fill-opacity:1;font-family:Acknowledge TT BRK;-inkscape-font-specification:Acknowledge TT BRK"
           y="17255.662"
           x="-41392.668"
           sodipodi:role="line" /></text>
      <g
         transform="matrix(-0.29446692,0.14743142,0.31151554,0.16339706,-36035.107,16854.139)"
         id="_79162808-4-6-2-8-2-9-9-1-5-3-4-9"
         style="fill-rule:evenodd">
        <path
           sodipodi:nodetypes="cscsc"
           id="_79208600-31-68-2-7-1-9-0-6-4-5-2-5"
           class="fil2 str1"
           d="m 1801.4855,1256.3891 c 122.6738,11.3866 -206.0515,-372.50869 -296.3317,-287.50312 -119.9076,112.90192 -50.5036,22.07683 -281.137,309.12632 90.0311,-80.0053 294.6639,-221.2391 341.6894,-221.4219 114.3212,-0.4443 157.2704,157.1693 235.7793,199.7987 z"
           inkscape:connector-curvature="0"
           style="fill:#1f1a17;stroke:#1f1a17;stroke-width:2.34375" />
      </g>
      <g
         transform="matrix(0.14743142,0.29446692,0.16339706,-0.31151554,-36706.248,17410.09)"
         id="_79162808-4-6-2-8-2-9-9-1-5-3-4-8-5"
         style="fill-rule:evenodd">
        <path
           sodipodi:nodetypes="cscc"
           id="_79208600-31-68-2-7-1-9-0-6-4-5-2-9-6"
           class="fil2 str1"
           d="M 2795.5528,2124.1595 C 1776.6954,1092.4354 1595.434,883.88041 1505.1538,968.88598 c -119.9076,112.90192 -50.5036,22.07683 -281.137,309.12632 400.6468,-504.85723 513.9153,8.904 1571.536,846.1472 z"
           inkscape:connector-curvature="0"
           style="fill:#1f1a17;stroke:#1f1a17;stroke-width:2.34375" />
      </g>
      <g
         transform="matrix(0.14743142,-0.29446692,0.16339706,0.31151554,-37166.956,17329.141)"
         id="_79162808-4-6-2-8-2-9-9-1-5-3-4-8-7-4"
         style="fill-rule:evenodd">
        <path
           sodipodi:nodetypes="cscc"
           id="_79208600-31-68-2-7-1-9-0-6-4-5-2-9-5-2"
           class="fil2 str1"
           d="M 2804.5225,2116.0663 C 1800.6134,1096.6937 1622.5415,890.18906 1529.8462,977.32681 c -123.1154,115.73389 -51.3147,23.11979 -289.5994,316.02729 414.0699,-515.07009 517.2176,-0.3348 1564.2757,822.7122 z"
           inkscape:connector-curvature="0"
           style="fill:#1f1a17;stroke:#1f1a17;stroke-width:2.35815668" />
      </g>
      <g
         transform="matrix(0.14949538,-0.29446692,0.16568453,0.31151554,-37166.696,17802.846)"
         id="_79162808-4-6-2-8-2-9-9-1-5-3-4-8-7-6-4"
         style="fill-rule:evenodd">
        <path
           sodipodi:nodetypes="cscc"
           id="_79208600-31-68-2-7-1-9-0-6-4-5-2-9-5-8-2"
           class="fil2 str1"
           d="M 2795.5528,2124.1595 C 1776.6954,1092.4354 1595.434,883.88041 1505.1538,968.88598 c -119.9076,112.90192 -50.5036,22.07683 -281.137,309.12632 400.6468,-504.85723 513.9153,8.904 1571.536,846.1472 z"
           inkscape:connector-curvature="0"
           style="fill:#1f1a17;stroke:#1f1a17;stroke-width:2.34375" />
      </g>
      <g
         transform="matrix(-0.14743142,-0.32763519,-0.16339706,0.34660414,-36127.874,18063.993)"
         id="_79162808-4-6-2-8-2-9-9-1-5-3-6-1-1-1-5"
         style="fill-rule:evenodd">
        <path
           sodipodi:nodetypes="cscsc"
           id="_79208600-31-68-2-7-1-9-0-6-4-5-9-6-7-4-1"
           class="fil2 str1"
           d="m 1971.7119,1392.8878 c 122.6738,11.3866 -394.6021,-482.17118 -447.8379,-430.59034 -118.1849,114.51084 12.3464,-65.2275 -218.287,221.82204 90.0311,-80.0053 201.3037,-157.9184 248.3292,-158.1012 114.3212,-0.4443 362.0421,282.2924 417.7957,366.8695 z"
           inkscape:connector-curvature="0"
           style="fill:#1f1a17;stroke:#1f1a17;stroke-width:2.34375" />
      </g>
      <g
         transform="matrix(0.14743142,0.29446692,0.16339706,-0.31151554,-36708.608,17885.992)"
         id="_79162808-4-6-2-8-2-9-9-1-5-3-4-8-2-6"
         style="fill-rule:evenodd">
        <path
           sodipodi:nodetypes="cscc"
           id="_79208600-31-68-2-7-1-9-0-6-4-5-2-9-54-0"
           class="fil2 str1"
           d="M 2795.5528,2124.1595 C 1776.6954,1092.4354 1595.434,883.88041 1505.1538,968.88598 c -119.9076,112.90192 -50.5036,22.07683 -281.137,309.12632 400.6468,-504.85723 513.9153,8.904 1571.536,846.1472 z"
           inkscape:connector-curvature="0"
           style="fill:#1f1a17;stroke:#1f1a17;stroke-width:2.34375" />
      </g>
    </g>
  </g>
</svg>
