<?xml version="1.0" encoding="UTF-8" standalone="no"?>
<!-- Created with Inkscape (http://www.inkscape.org/) -->

<svg
   xmlns:dc="http://purl.org/dc/elements/1.1/"
   xmlns:cc="http://creativecommons.org/ns#"
   xmlns:rdf="http://www.w3.org/1999/02/22-rdf-syntax-ns#"
   xmlns:svg="http://www.w3.org/2000/svg"
   xmlns="http://www.w3.org/2000/svg"
   xmlns:sodipodi="http://sodipodi.sourceforge.net/DTD/sodipodi-0.dtd"
   xmlns:inkscape="http://www.inkscape.org/namespaces/inkscape"
   width="256"
   height="256"
   id="svg2"
   version="1.1"
   inkscape:version="0.48.3.1 r9886"
   sodipodi:docname="applications-drawing.svg">
  <defs
     id="defs4">
    <linearGradient
       id="linearGradient39155">
      <stop
         style="stop-color:white;stop-opacity:1;"
         offset="0"
         id="stop39157" />
      <stop
         style="stop-color:#dadada;stop-opacity:1;"
         offset="1"
         id="stop39159" />
    </linearGradient>
    <inkscape:path-effect
       effect="skeletal"
       id="path-effect12193-2-8-7-7"
       is_visible="true"
       pattern="m 24702.514,-7149.6398 c 0,-2.76 2.24,-5 5,-5 2.76,0 5,2.24 5,5 0,2.76 -2.24,5 -5,5 -2.76,0 -5,-2.24 -5,-5 z"
       copytype="single_stretched"
       prop_scale="1"
       scale_y_rel="false"
       spacing="0"
       normal_offset="0"
       tang_offset="0"
       prop_units="false"
       vertical_pattern="false"
       fuse_tolerance="0" />
    <inkscape:path-effect
       effect="skeletal"
       id="path-effect12193-2-8-7"
       is_visible="true"
       pattern="m 25008.298,-7450.5702 c 0,-2.76 2.24,-5 5,-5 2.76,0 5,2.24 5,5 0,2.76 -2.24,5 -5,5 -2.76,0 -5,-2.24 -5,-5 z"
       copytype="single_stretched"
       prop_scale="1"
       scale_y_rel="false"
       spacing="0"
       normal_offset="0"
       tang_offset="0"
       prop_units="false"
       vertical_pattern="false"
       fuse_tolerance="0" />
    <inkscape:path-effect
       effect="skeletal"
       id="path-effect12193-2-8"
       is_visible="true"
       pattern="m 25309.228,-7746.6462 c 0,-2.76 2.24,-5 5,-5 2.76,0 5,2.24 5,5 0,2.76 -2.24,5 -5,5 -2.76,0 -5,-2.24 -5,-5 z"
       copytype="single_stretched"
       prop_scale="1"
       scale_y_rel="false"
       spacing="0"
       normal_offset="0"
       tang_offset="0"
       prop_units="false"
       vertical_pattern="false"
       fuse_tolerance="0" />
    <inkscape:path-effect
       effect="skeletal"
       id="path-effect12193-2"
       is_visible="true"
       pattern="m 25658.696,-8096.1135 c 0,-2.76 2.24,-5 5,-5 2.76,0 5,2.24 5,5 0,2.76 -2.24,5 -5,5 -2.76,0 -5,-2.24 -5,-5 z"
       copytype="single_stretched"
       prop_scale="1"
       scale_y_rel="false"
       spacing="0"
       normal_offset="0"
       tang_offset="0"
       prop_units="false"
       vertical_pattern="false"
       fuse_tolerance="0" />
    <inkscape:path-effect
       effect="skeletal"
       id="path-effect12193"
       is_visible="true"
       pattern="m 25954.548,-8391.5574 c 0,-2.76 2.24,-5 5,-5 2.76,0 5,2.24 5,5 0,2.76 -2.24,5 -5,5 -2.76,0 -5,-2.24 -5,-5 z"
       copytype="single_stretched"
       prop_scale="1"
       scale_y_rel="false"
       spacing="0"
       normal_offset="0"
       tang_offset="0"
       prop_units="false"
       vertical_pattern="false"
       fuse_tolerance="0" />
  </defs>
  <sodipodi:namedview
     id="base"
     pagecolor="#ffffff"
     bordercolor="#666666"
     borderopacity="1.0"
     inkscape:pageopacity="0.0"
     inkscape:pageshadow="2"
     inkscape:zoom="1.9231944"
     inkscape:cx="164.12588"
     inkscape:cy="123.23073"
     inkscape:document-units="px"
     inkscape:current-layer="layer1"
     showgrid="false"
     inkscape:window-width="1438"
     inkscape:window-height="827"
     inkscape:window-x="0"
     inkscape:window-y="25"
     inkscape:window-maximized="1" />
  <metadata
     id="metadata7">
    <rdf:RDF>
      <cc:Work
         rdf:about="">
        <dc:format>image/svg+xml</dc:format>
        <dc:type
           rdf:resource="http://purl.org/dc/dcmitype/StillImage" />
        <dc:title></dc:title>
      </cc:Work>
    </rdf:RDF>
  </metadata>
  <g
     inkscape:label="Capa 1"
     inkscape:groupmode="layer"
     id="layer1"
     transform="translate(0,-796.36218)">
    <path
       style="fill:#b8db7c;fill-opacity:1;fill-rule:evenodd;stroke:#737373;stroke-width:3.37970114;stroke-linecap:butt;stroke-linejoin:miter;stroke-miterlimit:4;stroke-opacity:1;stroke-dasharray:none"
       d="m 54.909245,997.89126 c 5.484393,-28.14808 33.943485,5.76804 32.001504,27.10164 -1.785849,19.617 41.950541,42.0472 40.560691,-2.5201 -0.68605,-21.9977 23.621,-23.99553 28.34511,-33.34353 10.27904,-27.49898 -16.25218,-26.92276 -23.74901,-14.02003 -13.45049,17.32948 -15.39718,-19.18419 -39.100466,-4.5896 -15.625268,-4.72437 3.638653,-19.06023 5.014472,-23.53104 0.104731,-0.54668 3.266694,-6.35812 2.644264,-6.81504 -24.929245,-16.997 -58.772583,-25.95083 -46.932334,-8.5812 1.962182,2.87838 28.181259,25.5535 5.962688,28.82499 -61.275642,9.10876 -18.127276,76.56355 -4.746919,37.47391 z"
       id="path5807"
       inkscape:connector-curvature="0"
       sodipodi:nodetypes="csscccccscc" />
    <g
       style="fill-rule:evenodd"
       id="g4913-3-8"
       transform="matrix(-0.14641072,-0.10864486,0.09045646,-0.10833743,-2078.9144,613.86189)">
      <rect
         transform="matrix(-0.0015086,-0.99999886,0.99989915,-0.01420156,0,0)"
         class="fil0 str0"
         x="-8441.9561"
         y="-10405.705"
         width="1316.6256"
         height="74.580147"
         rx="658.31281"
         ry="28.617847"
         id="rect11194-1-9-4-1-4-2"
         style="fill:#b8db7c;fill-opacity:1;fill-rule:evenodd;stroke:#72706f;stroke-width:15.39904308" />
      <g
         id="_81071816-4-0-1-8-5-3"
         style="fill-rule:evenodd"
         transform="matrix(-0.00984584,-6.533311,2.7363393,-0.0389049,-11028.83,8945.0614)">
        <path
           sodipodi:nodetypes="ccccccscccc"
           id="_81851448-2-3-5-9-9-3"
           class="fil1 str1"
           d="m 67.26485,237.18865 c -10.787269,0.4087 -14.438563,2.09325 -16.244823,6.16392 -1.563725,10.00963 0.243326,10.2695 8.617358,12.04289 50.943435,1.20416 100.686095,0.51059 152.398085,2.13131 l 0.13826,0.61983 -134.115276,3.20389 c -4.1716,-0.45049 -9.171088,0.0887 -12.388326,-0.272 -10.87893,-1.2196 -14.391687,-0.71156 -16.203813,-5.92622 -1.511194,-4.48342 -2.046105,-9.16022 1.790033,-16.66813 3.489669,-2.46187 23.080526,-3.063 31.682208,-2.59908 z"
           inkscape:connector-curvature="0"
           style="fill:#1f1a17;fill-rule:nonzero;stroke:#1f1a17;stroke-width:2.76821995" />
      </g>
      <path
         class="fil2"
         d="m -10394.385,8158.268 c 11.323,103.8385 77.082,79.4492 110.682,61.4496 58.423,-31.2671 50.778,-306.7298 50.524,-403.7218 -0.508,-194.0001 -1.067,-407.3212 2.104,-601.3516"
         id="path11198-0-0-4-1-1-9"
         inkscape:connector-curvature="0"
         style="fill:none" />
      <path
         sodipodi:nodetypes="ccc"
         inkscape:connector-curvature="0"
         id="path4752-2-1"
         d="m -10433.882,7346.7161 c -28.568,-73.2558 115.97,-147.909 -14.718,-296.3731 349.582,212.9699 103.556,473.3078 14.718,296.3731 z"
         style="fill:#00923f;fill-opacity:1;stroke:#737170;stroke-width:14.59990025;stroke-linecap:butt;stroke-linejoin:miter;stroke-miterlimit:4;stroke-opacity:1;stroke-dasharray:none" />
      <path
         sodipodi:nodetypes="sssscscsscscscscccccccccccccccssss"
         inkscape:connector-curvature="0"
         id="path4756-6-0"
         d="m -10442.481,7048.839 c 0.228,-0.2749 3.05,1.4567 8.069,4.9864 5.02,3.5295 12.238,8.8577 21.165,15.8724 8.928,7.0148 19.566,15.7167 31.309,26.0827 11.743,10.366 25.557,21.4644 38.778,35.2092 9.846,10.2321 18.957,22.3668 28.729,34.6113 9.771,12.2444 19.233,25.5342 27.748,39.9451 1.497,2.5333 2.965,5.104 4.396,7.7112 4.902,8.9301 9.217,18.021 12.787,27.1811 3.57,9.1601 6.393,18.3895 8.375,27.5932 1.901,8.8365 2.972,17.6487 3.197,26.2266 0.225,8.5778 -0.396,16.9208 -1.813,24.8669 -1.339,7.4728 -3.383,14.5543 -5.931,21.1396 -2.548,6.5851 -5.599,12.6742 -8.963,18.2148 -3.489,5.7446 -7.293,10.8994 -11.191,15.4869 -3.898,4.5874 -7.89,8.608 -11.798,12.1115 -4.253,3.8165 -8.408,7.0413 -12.3,9.7142 -3.893,2.6728 -7.522,4.7963 -10.741,6.4649 -3.554,1.843 -6.643,3.1197 -9.085,3.9111 -1.377,0.4467 -2.56,0.7405 -3.506,0.9054 -0.845,0.1486 -1.515,0.1955 -1.962,0.1745 -0.448,-0.021 -0.675,-0.098 -0.683,-0.1878 -0.01,-0.09 0.2,-0.1906 0.596,-0.3408 0.395,-0.1503 0.976,-0.3616 1.743,-0.6648 0.85,-0.3381 1.91,-0.7938 3.169,-1.395 2.234,-1.0666 5.057,-2.583 8.361,-4.6426 2.99,-1.8649 6.359,-4.154 9.972,-6.9558 3.612,-2.8016 7.467,-6.1187 11.42,-9.987 53.977,-82.2847 18.331,-164.5753 -19.509,-213.2519 -9.513,-12.1147 -19.321,-23.2811 -28.893,-33.5591 -12.857,-13.8 -25.323,-25.991 -36.676,-36.602 -11.353,-10.611 -21.592,-19.6434 -30.111,-27.0504 -8.519,-7.4071 -15.319,-13.1892 -19.909,-17.2114 -4.59,-4.0222 -6.971,-6.2854 -6.743,-6.5604 z"
         style="fill:#000000;stroke:none" />
    </g>
    <g
       style="fill-rule:evenodd"
       id="_79162808-4-6-2-09"
       transform="matrix(-0.02069226,0.05139737,-0.04144999,-0.03104831,219.61058,1006.4076)">
      <path
         style="fill:#1f1a17;stroke:#1f1a17;stroke-width:1.96682119"
         inkscape:connector-curvature="0"
         d="m 1303.1619,1618.2735 c 112.2085,-140.3479 357.882,-155.5232 508.5719,-11.1335 137.4244,131.6783 180.7761,358.7873 124.3042,521.4139 -20.7901,59.8814 -55.8984,114.6104 -106.0522,147.9931 -34.9802,23.287 -78.1362,28.862 -119.2848,38.9811 l -1.603,-5.9326 c 71.3221,-36.5301 130.0582,-67.5853 166.9828,-147.0466 63.5344,-136.7146 31.9475,-330.9348 -62.5117,-466.5827 -133.2407,-191.3342 -357.1893,-163.6143 -510.4073,-77.6927 z"
         class="fil2 str1"
         id="_79208600-31-68-2-1" />
    </g>
    <g
       style="fill-rule:evenodd"
       id="_79162808-4-6-3-9-2-8-6"
       transform="matrix(0.03209369,-0.03516175,0.01579329,0.02556322,64.122892,988.81272)">
      <path
         style="fill:#1f1a17;stroke:#1f1a17;stroke-width:2.34375"
         inkscape:connector-curvature="0"
         d="m 1294.0305,1403.3044 c 179.7326,-68.4211 390.7755,-45.1819 524.354,158.3603 147.8561,225.298 211.4955,385.0613 100.6435,629.4831 -31.009,70.077 -79.3992,135.265 -144.688,177.062 -45.5367,29.1563 -91.8307,22.5422 -143.9173,37.0489 l -85.19,-54.5009 c 91.9078,-46.902 208.4932,-17.0395 261.2632,-110.6913 254.6605,-485.9852 -233.0293,-790.2821 -370.369,-806.8132 z"
         class="fil2 str1"
         id="_79208600-31-68-5-5-5-6-3"
         sodipodi:nodetypes="csccccccc" />
    </g>
    <g
       style="fill-rule:evenodd"
       id="_79162808-4-6-3-9-2-8-6-0"
       transform="matrix(-0.02963737,-0.02548,0.02654923,-4.9468379e-4,63.881589,972.69861)">
      <path
         style="fill:#1f1a17;stroke:#1f1a17;stroke-width:2.34375"
         inkscape:connector-curvature="0"
         d="m 1294.0305,1403.3044 c 179.7326,-68.4211 420.837,-75.2764 554.4155,128.2658 147.8561,225.298 225.2495,435.7777 114.3975,680.1995 -103.7575,188.5906 -278.9837,323.0032 -472.8488,326.0245 91.9078,-46.902 212.0308,-198.1374 264.8008,-291.7892 254.6605,-485.9852 -181.3289,-796.2206 -318.6686,-812.7517 z"
         class="fil2 str1"
         id="_79208600-31-68-5-5-5-6-3-3"
         sodipodi:nodetypes="csccccc" />
    </g>
    <g
       style="fill-rule:evenodd"
       id="_79162808-4-6-3-9-2-8-6-0-4"
       transform="matrix(-0.01739932,0.03499811,-0.00701563,-0.0256103,89.346851,986.21835)">
      <path
         style="fill:#1f1a17;stroke:#1f1a17;stroke-width:2.34375"
         inkscape:connector-curvature="0"
         d="m 1151.6451,1453.3956 c 179.7326,-68.4211 340.6905,-307.1366 729.2323,109.3869 424.3422,559.6183 541.1675,1012.4225 411.2141,1387.993 -14.8707,-502.8303 -193.1528,-1292.1161 -791.4987,-1438.1637 z"
         class="fil2 str1"
         id="_79208600-31-68-5-5-5-6-3-3-7"
         sodipodi:nodetypes="ccccc" />
    </g>
  </g>
</svg>
