<?xml version="1.0" encoding="UTF-8"?>
<!DOCTYPE svg PUBLIC "-//W3C//DTD SVG 1.1//EN" "http://www.w3.org/Graphics/SVG/1.1/DTD/svg11.dtd">
<!-- Creator: CorelDRAW -->
<svg xmlns="http://www.w3.org/2000/svg" xml:space="preserve" width="300px" height="300px" style="shape-rendering:geometricPrecision; text-rendering:geometricPrecision; image-rendering:optimizeQuality; fill-rule:evenodd; clip-rule:evenodd"
viewBox="0 0 300 300"
 xmlns:xlink="http://www.w3.org/1999/xlink">
 <defs>
  <style type="text/css">
   <![CDATA[
    .str1 {stroke:#1F1A17;stroke-width:2.76822}
    .str0 {stroke:#72706F;stroke-width:4.15233}
    .fil3 {fill:none}
    .fil2 {fill:#1F1A17}
    .fil0 {fill:#00923F;fill-rule:nonzero}
    .fil1 {fill:#B8DB7C;fill-rule:nonzero}
   ]]>
  </style>
 </defs>
 <g id="Capa_x0020_1">
  <metadata id="CorelCorpID_0Corel-Layer"/>
  <g id="_67477448">
   <path id="_67468160" class="fil0 str0" d="M196.027 81.751c0,27.7694 -22.3091,50.2833 -49.8265,50.2833 -27.5022,0 -49.8113,-22.5139 -49.8113,-50.2833 -1.81318,-27.1576 20.4959,-49.6507 49.8113,-50.2556 27.5175,0 49.8265,22.4931 49.8265,50.2556z"/>
   <path id="_67360576" class="fil1 str0" d="M235.101 271.862l-30.4684 -0.800015c0,0 5.10459,-86.8542 -52.2266,-89.2542 -57.327,-2.39174 -53.5885,89.6556 -53.5885,89.6556l-30.7327 -0.401391c0,0 -5.70253,-122.275 82.9621,-122.318 88.6701,-0.0539802 84.0541,123.118 84.0541,123.118z"/>
   <g>
    <path id="_65375008" class="fil2 str1" d="M111.465 44.906c16.6024,-18.4668 50.2127,-22.2731 69.3867,-5.33712 17.4868,15.4467 21.2627,43.587 12.0445,64.4164 -3.39383,7.66935 -8.68943,14.803 -15.8356,19.3775 -4.98279,3.19175 -10.9151,4.2243 -16.6148,5.81187l-0.163325 -0.730809c10.0583,-5.13366 18.3519,-9.48253 24.1264,-19.7319 9.9379,-17.6349 7.45619,-41.7419 -4.13987,-58.0191 -16.3574,-22.9582 -47.1261,-17.747 -68.804,-5.78696z"/>
   </g>
   <path id="_67329168" class="fil3" d="M111.464 44.906c7.07141,-9.09083 34.7785,-14.5096 44.8866,-13.0674 46.8216,6.68248 52.1684,86.2452 4.01253,96.9706"/>
   <g>
    <path id="_67361768" class="fil2 str1" d="M143.845 149.812c10.6341,-1.93775 17.9325,-3.64989 28.5528,0.848459 35.8623,15.1892 59.8364,53.6882 65.8282,91.0923 1.51837,9.48253 1.15573,20.4156 -2.81528,29.2974 -0.233914,0.523193 -1.12943,0.887214 -1.65678,0.89275l-26.37 -0.344643 -0.0429074 -0.725273 24.6357 -3.17791c5.71083,-17.4204 -3.4838,-40.8893 -10.9483,-55.5789 -11.6307,-22.8904 -27.1521,-45.0956 -50.4383,-57.2703 -8.77525,-4.58694 -17.2128,-4.50112 -26.7451,-5.034z"/>
   </g>
   <path id="_67574984" class="fil3" d="M143.843 149.812c48.6763,-12.349 104.823,78.616 89.7802,119.908l-26.2621 1.5156"/>
   <g>
    <path id="_68172680" class="fil2 str1" d="M158.252 184.275c-11.5573,1.20417 -24.1887,2.82081 -32.6221,11.9961 -5.16965,5.62502 -10.3338,11.6348 -12.7615,18.8779 -9.40779,28.0683 -5.15027,26.6469 -10.9109,57.1706 -0.189623,1.01594 -1.65955,1.73706 -2.57859,1.69415l-32.1238 -2.60904 0.00692054 -0.813856c9.81195,-0.770948 20.3353,1.61249 29.6324,-1.21802 2.76406,-19.3111 2.54676,-38.9973 9.05207,-57.3921 4.84576,-13.6971 19.2031,-25.3292 33.1771,-28.6663 7.39944,-1.76751 11.9532,-0.676829 19.1284,0.960571z"/>
   </g>
   <path id="_68043976" class="fil3" d="M158.251 184.275c-4.29904,0.00968876 -8.30742,-1.18203 -12.0376,-0.517657 -36.0796,6.43334 -46.4645,43.8929 -46.8147,87.4784l-32.1404 -0.238067"/>
  </g>
 </g>
</svg>
