<?xml version="1.0" encoding="UTF-8"?>
<!DOCTYPE svg PUBLIC "-//W3C//DTD SVG 1.1//EN" "http://www.w3.org/Graphics/SVG/1.1/DTD/svg11.dtd">
<!-- Creator: CorelDRAW -->
<svg xmlns="http://www.w3.org/2000/svg" xml:space="preserve" width="300px" height="300px" style="shape-rendering:geometricPrecision; text-rendering:geometricPrecision; image-rendering:optimizeQuality; fill-rule:evenodd; clip-rule:evenodd"
viewBox="0 0 300 300"
 xmlns:xlink="http://www.w3.org/1999/xlink">
 <defs>
  <style type="text/css">
   <![CDATA[
    .str1 {stroke:#1F1A17;stroke-width:2.76822}
    .str0 {stroke:#72706F;stroke-width:4.15233}
    .fil2 {fill:none}
    .fil0 {fill:#00923F}
    .fil1 {fill:#1F1A17}
    .fil3 {fill:#B8DB7C}
   ]]>
  </style>
 </defs>
 <g id="Capa_x0020_1">
  <metadata id="CorelCorpID_0Corel-Layer"/>
  <rect class="fil0 str0" x="44.8059" y="230.36" width="211.845" height="33.7026" rx="21.6156" ry="21.6156"/>
  <g id="_81071816">
   <path id="_81851448" class="fil1 str1" d="M59.6039 230.051c-3.74401,1.73014 -8.07074,3.13777 -9.877,7.20844 -3.85197,8.67559 2.12045,18.4086 10.7005,20.3021 17.8536,3.94194 35.764,2.04433 53.8654,2.48586l96.4558 4.68936 -0.00830465 0.3571 -133.057 1.50314c-8.38908,-0.800015 -26.4005,-2.19796 -30.2248,-12.4431 -2.49555,-6.68248 -4.19939,-16.3962 2.28101,-21.4592 3.09902,-2.42357 6.12191,-2.57444 9.86454,-2.64365z"/>
  </g>
  <path class="fil2" d="M59.6039 230.053c-16.6702,2.32392 -12.8445,16.1664 -10.0016,23.242 4.9385,12.3033 49.1317,10.8473 64.6891,10.8473 31.1175,0 65.3341,0 96.4516,0.773717"/>
  <rect class="fil3 str0" transform="matrix(2.07337 -0.00606138 0.00947345 1.3266 7.70195 43.2126)" width="135.856" height="140.169" rx="21.5644" ry="21.5644"/>
  <g id="_45158744">
   <path id="_80379776" class="fil1 str1" d="M290.378 109.933l3.95025 51.7629c-0.746035,23.0053 0.391703,57.3367 -27.6766,64.5922 -9.51159,2.45818 -19.3069,3.73848 -29.1313,3.87689l-97.1727 -1.6111 -0.0110729 -0.604855 97.0537 -5.05753c12.1428,-0.765412 25.7001,-1.96543 36.2789,-8.73096 15.239,-9.74828 14.0833,-38.3813 15.3733,-52.7373l1.33566 -51.4902z"/>
  </g>
  <path class="fil2" d="M290.376 109.933c3.88381,16.082 1.90038,88.1746 -6.89424,100.245 -8.15378,11.1919 -24.8683,15.9754 -46.0285,16.3505l-97.1118 1.72322"/>
  <g id="_81827144">
   <path id="_80692792" class="fil1 str1" d="M132.574 42.733c-34.8477,1.29414 -76.6159,-3.43951 -107.375,16.547 -8.14548,5.29145 -11.5269,16.2674 -12.349,25.2807l-1.39518 41.4194 -2.91216 28.7535 -0.546723 0 -1.15711 -56.581c-0.175782,-14.2508 -1.60418,-29.8981 9.1891,-41.1191 11.3054,-11.7539 27.6406,-15.5325 43.3489,-17.1463 24.7686,-2.54261 48.5725,0.573021 73.1972,2.84573z"/>
  </g>
  <path class="fil2" d="M132.573 42.733c-17.0924,0 -37.3377,-2.0817 -54.383,-1.14881 -53.219,2.91216 -72.0429,17.1837 -68.3667,56.2875 0.707279,7.53509 -1.55435,48.2459 -1.55435,56.8619"/>
  <rect class="fil0 str0" transform="matrix(-1.18207 -0.00345573 -0.00540102 0.756325 228.926 83.4571)" width="135.856" height="140.169" rx="21.5644" ry="21.5644"/>
  <g id="_80645296">
   <path id="_45655832" class="fil1 str1" d="M67.766 121.496l-2.25194 29.5106c0.424921,13.1172 -0.222841,32.6899 15.7788,36.8256 5.42294,1.4021 11.0078,2.13153 16.6093,2.21181l55.4003 -0.919048 0.00553643 -0.344643 -55.3325 -2.8831c-6.92193,-0.437378 -14.6508,-1.12251 -20.6827,-4.98002 -8.68943,-5.55581 -8.0306,-21.88 -8.76556,-30.0642l-0.76126 -29.3569z"/>
  </g>
  <path class="fil2" d="M67.7673 121.496c-2.21457,9.16972 -1.08376,50.2708 3.92948,57.1526 4.64922,6.38074 14.1788,9.10743 26.2427,9.32197l55.3657 0.981333"/>
  <g id="_81273224">
   <path id="_80885408" class="fil1 str1" d="M157.733 83.1835c19.8675,0.739114 43.6811,-1.96128 61.2177,9.43408 4.6423,3.01736 6.57175,9.27491 7.04096,14.4127l0.794478 23.6157 1.65955 16.392 0.312809 0 0.66022 -32.258c0.0996558,-8.12472 0.914896,-17.0453 -5.23885,-23.4426 -6.44579,-6.70324 -15.7595,-8.85691 -24.7146,-9.77596 -14.1207,-1.44916 -27.6919,0.32665 -41.7323,1.62218z"/>
  </g>
  <path class="fil2" d="M157.734 83.1835c9.74412,0 21.2862,-1.18618 31.0054,-0.654683 30.341,1.65955 41.0734,9.79672 38.9765,32.0906 -0.402776,4.29627 0.885829,27.5064 0.885829,32.4186"/>
 </g>
</svg>
