<?xml version="1.0" encoding="UTF-8"?>
<!DOCTYPE svg PUBLIC "-//W3C//DTD SVG 1.1//EN" "http://www.w3.org/Graphics/SVG/1.1/DTD/svg11.dtd">
<!-- Creator: CorelDRAW -->
<svg xmlns="http://www.w3.org/2000/svg" xml:space="preserve" width="300px" height="300px" style="shape-rendering:geometricPrecision; text-rendering:geometricPrecision; image-rendering:optimizeQuality; fill-rule:evenodd; clip-rule:evenodd"
viewBox="0 0 300 300"
 xmlns:xlink="http://www.w3.org/1999/xlink">
 <defs>
  <style type="text/css">
   <![CDATA[
    .str1 {stroke:#1F1A17;stroke-width:2.76822}
    .str0 {stroke:#72706F;stroke-width:4.15233}
    .fil2 {fill:none}
    .fil3 {fill:#00923F}
    .fil1 {fill:#1F1A17}
    .fil0 {fill:#B8DB7C}
   ]]>
  </style>
 </defs>
 <g id="Capa_x0020_1">
  <metadata id="CorelCorpID_0Corel-Layer"/>
  <g id="_81417256">
   <rect id="_81708536" class="fil0 str0" transform="matrix(2.09272 -0.00611798 0.00956189 1.33899 7.17582 60.8198)" width="135.856" height="140.169" rx="21.5644" ry="21.5644"/>
   <g>
    <path id="_81031968" class="fil1 str1" d="M292.49 128.163l3.98762 52.2473c-0.750187,23.2198 0.394471,57.871 -27.9327,65.1943 -9.60295,2.48171 -19.4896,3.77308 -29.4054,3.91287l-98.0793 -1.62633 -0.0110729 -0.609008 97.9603 -5.10459c12.2549,-0.773717 25.9396,-1.98481 36.6166,-8.81539 15.3816,-9.83824 14.2162,-38.7384 15.5172,-53.2273l1.34674 -51.9719z"/>
   </g>
   <path id="_80997136" class="fil2" d="M292.488 128.163c3.92118,16.2328 1.91976,88.9982 -6.95791,101.182 -8.22991,11.2957 -25.0994,16.1235 -46.4576,16.5013l-98.0198 1.73982"/>
   <g>
    <path id="_81543472" class="fil1 str1" d="M133.212 60.3347c-35.1716,1.30798 -77.3288,-3.47134 -108.376,16.7034 -8.22022,5.33989 -11.6348,16.4169 -12.4639,25.516l-1.40902 41.8056 -2.93708 29.0234 -0.555028 0 -1.1668 -57.1111c-0.17855,-14.3837 -1.61941,-30.1763 9.27491,-41.5025 11.4092,-11.8632 27.8981,-15.6778 43.7544,-17.3069 24.9984,-2.56752 49.0251,0.578557 73.8782,2.87203z"/>
   </g>
   <path id="_78083496" class="fil2" d="M133.212 60.3361c-17.2515,0 -37.6851,-2.10108 -54.891,-1.15988 -53.7145,2.93846 -72.7155,17.3443 -69.0047,56.8135 0.7142,7.60568 -1.5682,48.6957 -1.5682,57.3921"/>
   <rect id="_81626600" class="fil3 str0" transform="matrix(-1.46143 -0.00427241 -0.00667743 0.935064 248.946 89.6195)" width="135.856" height="140.169" rx="21.5644" ry="21.5644"/>
   <g>
    <path id="_81047032" class="fil1 str1" d="M49.6992 136.648l-2.78344 36.4851c0.524577,16.2176 -0.276822,40.4174 19.5062,45.5289 6.70601,1.73152 13.6099,2.63396 20.5346,2.73223l68.4926 -1.13497 0.00830465 -0.426305 -68.4096 -3.56546c-8.55794,-0.538418 -18.1138,-1.38549 -25.5714,-6.15375 -10.7421,-6.87072 -9.92683,-27.0538 -10.8362,-37.173l-0.941194 -36.2927z"/>
   </g>
   <path id="_81419368" class="fil2" d="M49.7006 136.648c-2.73777,11.3358 -1.33982,62.1506 4.85961,70.6587 5.74682,7.88942 17.5284,11.2597 32.4435,11.5241l68.4497 1.21525"/>
   <g>
    <path id="_47468672" class="fil1 str1" d="M160.928 89.2819c24.5638,0.912128 54.0038,-2.42496 75.6858,11.6611 5.74128,3.73156 8.12472,11.4673 8.70327,17.8218l0.982717 29.195 2.05263 20.2661 0.38755 0 0.81524 -39.8817c0.12457,-10.0445 1.12943,-21.0731 -6.47763,-28.9832 -7.9697,-8.28251 -19.4841,-10.9483 -30.5542,-12.0847 -17.4591,-1.7938 -34.2373,0.402776 -51.5954,2.00557z"/>
   </g>
   <path id="_81019336" class="fil2" d="M160.93 89.2819c12.0473,0 26.3174,-1.46716 38.3315,-0.809704 37.5121,2.05125 50.7802,12.1123 48.1891,39.6741 -0.499663,5.31221 1.09483,34.0062 1.09483,40.0796"/>
  </g>
 </g>
</svg>
