<?xml version="1.0" encoding="UTF-8" standalone="no"?>
<!-- Created with Inkscape (http://www.inkscape.org/) -->

<svg
   xmlns:dc="http://purl.org/dc/elements/1.1/"
   xmlns:cc="http://creativecommons.org/ns#"
   xmlns:rdf="http://www.w3.org/1999/02/22-rdf-syntax-ns#"
   xmlns:svg="http://www.w3.org/2000/svg"
   xmlns="http://www.w3.org/2000/svg"
   xmlns:sodipodi="http://sodipodi.sourceforge.net/DTD/sodipodi-0.dtd"
   xmlns:inkscape="http://www.inkscape.org/namespaces/inkscape"
   width="256"
   height="256"
   id="svg2"
   version="1.1"
   inkscape:version="0.48.3.1 r9886"
   sodipodi:docname="drive-harddisk-system.svg">
  <defs
     id="defs4">
    <style
       type="text/css"
       id="style2990">
   
    .str1 {stroke:#1F1A17;stroke-width:0.2}
    .str0 {stroke:#72706F;stroke-width:0.3}
    .fil2 {fill:none}
    .fil1 {fill:#1F1A17}
    .fil0 {fill:#BA8FBA}
    .fil3 {fill:#91457B}
   
  </style>
  </defs>
  <sodipodi:namedview
     id="base"
     pagecolor="#ffffff"
     bordercolor="#666666"
     borderopacity="1.0"
     inkscape:pageopacity="0.0"
     inkscape:pageshadow="2"
     inkscape:zoom="1.6831914"
     inkscape:cx="-24.188416"
     inkscape:cy="106.05699"
     inkscape:document-units="px"
     inkscape:current-layer="layer1"
     showgrid="false"
     showguides="true"
     inkscape:guide-bbox="true"
     inkscape:window-width="1920"
     inkscape:window-height="1050"
     inkscape:window-x="-4"
     inkscape:window-y="-4"
     inkscape:window-maximized="1" />
  <metadata
     id="metadata7">
    <rdf:RDF>
      <cc:Work
         rdf:about="">
        <dc:format>image/svg+xml</dc:format>
        <dc:type
           rdf:resource="http://purl.org/dc/dcmitype/StillImage" />
        <dc:title />
      </cc:Work>
    </rdf:RDF>
  </metadata>
  <g
     inkscape:label="Layer 1"
     inkscape:groupmode="layer"
     id="layer1"
     transform="translate(0,-796.3622)">
    <path
       inkscape:connector-curvature="0"
       style="fill:#b8db7d;fill-opacity:1;stroke:none"
       d="m 46.14223,801.69112 c -18.43162,0 -33.28125,14.84963 -33.28125,33.28125 l 0,179.25003 c 0,18.4316 14.84963,33.2812 33.28125,33.2812 l 165.96875,0 c 18.43162,0 33.28125,-14.8496 33.28125,-33.2812 l 0,-179.25003 c 0,-18.43162 -14.84963,-33.28125 -33.28125,-33.28125 l -165.96875,0 z m 82.84375,16.9375 c 0.90951,-0.0236 1.80983,-0.0208 2.6875,0 52.66031,1.2479 97.21267,41.67132 102.46875,95.1875 l 0,2.09375 c 4.42634,58.08812 -39.19313,108.97993 -97.28125,113.40623 -58.08813,4.4263 -108.44865,-39.19311 -112.875,-97.28123 -4.42634,-58.08813 38.66187,-108.4799 96.75,-112.90625 2.68091,-0.20429 5.52148,-0.42922 8.25,-0.5 z m -1.34375,49.28125 c -0.91004,0.0235 -1.80051,0.055 -2.71875,0.125 -29.84356,2.27409 -52.24284,28.43769 -49.96875,58.28125 2.27409,29.84356 27.90644,52.2116 57.75,49.9375 29.84356,-2.2741 52.2116,-28.43769 49.9375,-58.28125 l 0,-1.03125 c -2.79039,-28.41115 -26.78861,-49.75969 -55,-49.03125 z m 2.1875,42.6875 c 5.00174,0.11853 9.21952,3.94822 9.71875,9.03125 l 0.0312,0.21875 c 0.42042,5.51728 -3.70147,10.32958 -9.21875,10.75 -5.51728,0.42042 -10.32958,-3.70147 -10.75,-9.21875 -0.42042,-5.51728 3.70147,-10.32958 9.21875,-10.75 0.33952,-0.0259 0.66655,-0.0392 1,-0.0312 z"
       id="rect2986" />
    <path
       style="fill:#b8db7d;fill-opacity:1;stroke:none"
       d="m 46.45681,1009.1093 c 6.40784,-8.8108 30.43723,-34.44211 30.43723,-34.44211 l 20.02448,12.81567 -29.63624,35.24314 z"
       id="path2988"
       inkscape:connector-curvature="0" />
    <path
       sodipodi:type="arc"
       style="fill:#060704;fill-opacity:1;stroke:none"
       id="path4152"
       sodipodi:cx="8.0354891"
       sodipodi:cy="7.822917"
       sodipodi:rx="1.7345328"
       sodipodi:ry="1.7345328"
       d="m 9.7650079,7.6911268 a 1.7345328,1.7345328 0 1 1 -0.00329,-0.037751"
       transform="matrix(6.6142379,0,0,6.6142379,76.875312,868.67472)"
       sodipodi:start="6.2071318"
       sodipodi:end="12.46847"
       sodipodi:open="true" />
    <g
       style="fill-rule:evenodd"
       id="g2996"
       transform="matrix(11.814969,0,0,11.107909,8.823354,804.19256)">
      <path
         style="fill:#1f1a17"
         inkscape:connector-curvature="0"
         id="_67253992"
         class="fil1"
         d="m 15.279313,2.9274357 c -1.4452,-0.5407 -2.521878,-1.1430332 -4.095178,-1.1862332 -4.5201003,-0.1246 -8.7339084,3.3002962 -9.5958084,7.5721962 -0.4555504,2.2583893 -0.045125,6.1398483 2.2789515,7.5588393 0.1446727,0.08833 1.7989336,-1.585478 1.9440527,-1.574041 0.2053336,0.01618 -1.5514451,1.65898 -1.5512787,1.967251 2.442e-4,0.452125 0.8157084,1.083451 1.2072533,1.1515 0.2261503,0.0393 0.4238122,-0.549221 0.9895038,-0.8507 0.2315103,-0.123381 -0.8689914,1.032295 -0.659198,1.174414 1.6161982,1.09485 4.086888,1.712723 6.4044168,1.171102 2.536294,-0.871269 3.890475,-2.408379 5.326492,-3.600897 l -0.185942,0.36529 C 15.804069,18.397399 13.010089,21.010926 10.2,20.6526 6.7127,20.297 2.9014847,18.271073 1.4567,14.921 -0.6699346,9.9898977 2.0197043,3.7505702 7.0527,1.793 8.7773,1.0368 9.3401347,0.96315581 12.230809,1.287 c 1.017,0.2686 2.124104,1.1383357 3.048504,1.6404357 z"
         sodipodi:nodetypes="cccssssssccccsccc" />
    </g>
    <path
       style="fill:#090b06;fill-opacity:1;fill-rule:nonzero;stroke:none"
       id="path3811"
       d="m 76.288485,973.59636 c 0.337342,-0.026 0.15688,0.0284 0.324305,0.15145 0.04075,0.0301 0.106786,-2.5e-4 0.1457,0.0323 0.04314,0.0361 0.02394,0.14007 0.07727,0.15425 0.08248,0.0221 0.164787,-0.0449 0.247182,-0.0673 0.155809,0.0986 0.29852,0.23215 0.42242,0.37266 0.04918,0.0558 0.07933,0.13088 0.136347,0.1776 0.06391,0.0524 0.147824,0.0696 0.217893,0.11234 0.07604,0.0463 0.146332,0.10222 0.219501,0.15332 0.382183,0.39453 0.929526,0.57502 1.299206,0.99451 0.08084,0.0918 0.135686,0.20573 0.203521,0.30858 0.376521,0.0735 0.565222,0.42655 0.85699,0.6303 0.100443,0.0701 0.229119,0.0871 0.327983,0.15971 0.09109,0.0668 0.154904,0.16788 0.232356,0.25183 0.09837,0.0644 0.196757,0.12855 0.295135,0.1928 0.982418,0.90048 -0.545851,-0.42879 0.639559,0.34567 0.09928,0.065 0.128387,0.21267 0.221997,0.28638 0.09601,0.0756 0.227806,0.0835 0.330404,0.14864 0.190806,0.12122 0.356996,0.33057 0.506844,0.49852 0.754212,0.73898 -0.318825,-0.23848 0.631044,0.36542 0.100574,0.0639 0.136772,0.21175 0.238133,0.27431 0.114275,0.0706 0.267773,0.041 0.383238,0.10922 0.105655,0.0625 0.169948,0.18253 0.258114,0.27032 0.08665,0.0863 0.177454,0.16776 0.266181,0.25163 0.365602,0.13415 0.686911,0.33823 0.996772,0.57826 0.101044,0.0784 0.18552,0.18657 0.30097,0.23789 0.747996,0.33256 0.1373,-0.21715 0.668162,0.34939 0.24376,0.21558 0.293892,0.28722 0.586584,0.43399 0.114995,0.0577 0.245855,0.0774 0.357062,0.14288 0.104804,0.0617 0.178946,0.17233 0.283675,0.23416 0.729651,0.43078 0.03611,-0.16192 0.641982,0.40937 0.264419,0.13042 0.423948,0.19371 0.66261,0.37069 0.09881,0.0732 0.176583,0.17722 0.280533,0.24204 0.10827,0.0675 0.241911,0.0812 0.34913,0.15067 0.10078,0.0651 0.17746,0.165 0.266188,0.24749 0.10451,0.0647 0.209013,0.12916 0.313519,0.19381 0.08203,0.0868 0.14454,0.20102 0.246076,0.26044 0.113203,0.0662 0.25572,0.0519 0.375606,0.1033 0.7025,0.30121 -0.06745,0.0427 0.526711,0.46212 0.102263,0.0721 0.233185,0.0827 0.348014,0.12916 0.112351,0.0455 0.222162,0.0975 0.333242,0.14647 0.08781,0.0675 0.181664,0.12683 0.263445,0.20222 0.07868,0.0726 0.133615,0.17206 0.215965,0.23993 0.621591,0.51222 -0.06696,-0.16413 0.564817,0.30376 0.161364,0.1195 0.275998,0.29756 0.419955,0.43979 0.07607,0.0302 0.494803,0.19203 0.565859,0.23903 0.07908,0.0524 0.127462,0.14848 0.208434,0.19739 0.08892,0.0538 0.200399,0.0538 0.29093,0.1044 0.161052,0.0901 0.286895,0.23758 0.430851,0.35568 0.168252,0.24811 0.387738,0.35294 0.64707,0.4576 0.100986,0.0913 -1.119531,1.60222 -1.220511,1.51091 l 0,0 c -0.09574,-0.0195 -0.207071,2e-4 -0.28723,-0.0586 -0.07808,-0.0572 -0.0973,-0.17256 -0.145949,-0.25887 -0.07756,-0.0513 -0.155119,-0.10236 -0.23268,-0.15363 -0.272911,-0.10517 -0.523559,-0.21589 -0.74178,-0.42717 -0.07178,-0.0695 -0.108827,-0.18468 -0.197231,-0.22771 -0.107594,-0.0524 -0.241114,9e-5 -0.353251,-0.0402 -0.09467,-0.034 -0.16625,-0.11764 -0.249375,-0.17638 -0.28202,-0.18169 -0.243385,-0.13073 -0.472757,-0.3815 -0.07121,-0.0779 -0.118975,-0.18271 -0.204102,-0.24291 -0.09209,-0.0651 -0.21085,-0.0732 -0.311683,-0.12184 -0.208664,-0.10035 -0.383151,-0.23057 -0.574502,-0.36169 -0.319932,-0.23078 -0.235784,-0.16308 -0.543356,-0.41304 -0.0893,-0.0726 -0.16466,-0.16869 -0.266384,-0.2198 -0.113688,-0.0572 -0.257655,-0.0302 -0.366033,-0.0978 -0.09799,-0.0612 -0.150183,-0.18092 -0.225276,-0.27137 -0.110369,-0.0506 -0.220735,-0.10144 -0.331101,-0.15207 -0.254736,-0.25458 -0.523736,-0.48062 -0.84803,-0.63317 -0.116287,-0.0547 -0.244113,-0.0782 -0.361049,-0.13135 -0.160814,-0.0731 -0.502718,-0.28682 -0.655291,-0.37951 -0.106757,-0.0703 -0.223804,-0.12542 -0.320266,-0.21076 -0.09516,-0.0841 -0.138181,-0.23348 -0.248903,-0.2926 -0.128871,-0.0687 -0.300597,0.003 -0.428131,-0.0687 -0.10777,-0.0605 -0.128754,-0.2296 -0.230585,-0.30065 -1.300593,-0.90755 0.483812,0.67009 -0.644847,-0.37172 -0.310391,-0.226 -0.652926,-0.38524 -0.961376,-0.61199 -0.104187,-0.0767 -0.190222,-0.17928 -0.296917,-0.2519 -0.732991,-0.49885 0.01116,0.14428 -0.632216,-0.44885 -1.086937,-0.51553 0.317025,0.17512 -0.666755,-0.38494 -0.112733,-0.0642 -0.248547,-0.0823 -0.352614,-0.16106 -0.09824,-0.0745 -0.144114,-0.20954 -0.239615,-0.28789 -0.09733,-0.0799 -0.219171,-0.11904 -0.328756,-0.17855 -0.08931,-0.0796 -0.178616,-0.15919 -0.267923,-0.23879 -0.192385,-0.13899 -0.40064,-0.25446 -0.58317,-0.40763 -0.09226,-0.0774 -0.160285,-0.18416 -0.253269,-0.26063 -0.215211,-0.17697 -0.405683,-0.2442 -0.653712,-0.35847 -0.09513,-0.0725 -0.153734,-0.18715 -0.230602,-0.28073 -0.624752,-0.3781 -1.244146,-0.75805 -1.734984,-1.3271 -0.613179,-0.7362 0.232262,0.17291 -0.615086,-0.36847 -0.093,-0.0594 -0.110678,-0.20379 -0.194929,-0.27635 -0.08448,-0.0728 -0.209513,-0.0765 -0.295999,-0.14662 -0.07673,-0.0622 -0.120531,-0.15983 -0.180797,-0.23976 -0.07025,-0.0547 -0.140516,-0.10953 -0.21078,-0.16427 -0.769412,-0.37485 0.22879,0.16479 -0.332336,-0.29767 -0.0525,-0.0433 -0.131236,-0.0294 -0.191722,-0.0589 -0.125744,-0.0609 -0.229941,-0.19031 -0.369952,-0.22858 -0.04974,-6e-4 -0.10896,0.0291 -0.149216,-0.002 -0.03742,-0.0287 -0.0079,-0.10346 -0.03723,-0.14132 -0.02122,-0.0276 -0.06746,-0.0125 -0.09617,-0.0313 -0.01982,-0.0125 -0.02148,-0.0488 -0.04303,-0.0578 -0.104393,-0.0439 -0.102484,0.0519 -0.09025,-0.0447 -0.111485,-0.0633 0.732732,-1.73123 0.844216,-1.66807 z"
       inkscape:connector-curvature="0" />
  </g>
</svg>
