<?xml version="1.0" encoding="UTF-8" standalone="no"?>
<!-- Created with Inkscape (http://www.inkscape.org/) -->

<svg
   xmlns:dc="http://purl.org/dc/elements/1.1/"
   xmlns:cc="http://creativecommons.org/ns#"
   xmlns:rdf="http://www.w3.org/1999/02/22-rdf-syntax-ns#"
   xmlns:svg="http://www.w3.org/2000/svg"
   xmlns="http://www.w3.org/2000/svg"
   xmlns:sodipodi="http://sodipodi.sourceforge.net/DTD/sodipodi-0.dtd"
   xmlns:inkscape="http://www.inkscape.org/namespaces/inkscape"
   width="256"
   height="256"
   id="svg2"
   version="1.1"
   inkscape:version="0.48.3.1 r9886"
   sodipodi:docname="drive-usb.svg">
  <defs
     id="defs4">
    <style
       id="style2991"
       type="text/css">
   
    .str3 {stroke:#1F1A17;stroke-width:1.05469}
    .str1 {stroke:#72706F;stroke-width:2.44157}
    .str2 {stroke:#1F1A17;stroke-width:2.76822}
    .str0 {stroke:#72706F;stroke-width:4.15233}
    .fil3 {fill:none}
    .fil1 {fill:#00923F}
    .fil2 {fill:#1F1A17}
    .fil0 {fill:#B8DB7C}
   
  </style>
    <style
       id="style3081"
       type="text/css">
   
    .str1 {stroke:#1F1A17;stroke-width:2.76822}
    .str0 {stroke:#72706F;stroke-width:4.15233}
    .fil1 {fill:none}
    .fil3 {fill:#00923F}
    .fil2 {fill:#1F1A17}
    .fil0 {fill:#B8DB7C}
   
  </style>
    <style
       id="style3135"
       type="text/css">
   
    .str1 {stroke:#1F1A17;stroke-width:2.76822}
    .str0 {stroke:#72706F;stroke-width:4.15233}
    .fil1 {fill:none}
    .fil3 {fill:#00923F}
    .fil2 {fill:#1F1A17}
    .fil0 {fill:#B8DB7C}
   
  </style>
    <style
       id="style3203"
       type="text/css">
   
    .str1 {stroke:#1F1A17;stroke-width:1.38411}
    .str2 {stroke:#1F1A17;stroke-width:2.76822}
    .str0 {stroke:#72706F;stroke-width:4.15233}
    .str4 {stroke:#1F1A17;stroke-width:0.895518}
    .str3 {stroke:#72706F;stroke-width:1.34259}
    .fil2 {fill:none}
    .fil0 {fill:#00923F}
    .fil1 {fill:#1F1A17}
    .fil3 {fill:#B8DB7C}
    .fil5 {fill:#1F1A17;fill-rule:nonzero}
    .fil4 {fill:#72706F;fill-rule:nonzero}
    .fil6 {fill:#B8DB7C;fill-rule:nonzero}
   
  </style>
    <style
       id="style3319"
       type="text/css">
   
    .str1 {stroke:#1F1A17;stroke-width:1.38411}
    .str2 {stroke:#1F1A17;stroke-width:2.76822}
    .str0 {stroke:#72706F;stroke-width:4.15233}
    .str4 {stroke:#1F1A17;stroke-width:0.895518}
    .str3 {stroke:#72706F;stroke-width:1.34259}
    .fil2 {fill:none}
    .fil0 {fill:#00923F}
    .fil1 {fill:#1F1A17}
    .fil3 {fill:#B8DB7C}
    .fil5 {fill:#1F1A17;fill-rule:nonzero}
    .fil4 {fill:#72706F;fill-rule:nonzero}
    .fil6 {fill:#B8DB7C;fill-rule:nonzero}
   
  </style>
    <style
       id="style3435"
       type="text/css">
   
    .str1 {stroke:#1F1A17;stroke-width:2.76822}
    .str0 {stroke:#72706F;stroke-width:4.15233}
    .fil1 {fill:none}
    .fil3 {fill:#00923F}
    .fil2 {fill:#1F1A17}
    .fil0 {fill:#B8DB7C}
   
  </style>
    <style
       id="style3502"
       type="text/css">
   
    .str3 {stroke:#1F1A17;stroke-width:1.05469}
    .str1 {stroke:#72706F;stroke-width:2.44157}
    .str2 {stroke:#1F1A17;stroke-width:2.76822}
    .str0 {stroke:#72706F;stroke-width:4.15233}
    .fil3 {fill:none}
    .fil1 {fill:#00923F}
    .fil2 {fill:#1F1A17}
    .fil0 {fill:#B8DB7C}
   
  </style>
    <style
       id="style3592"
       type="text/css">
   
    .str1 {stroke:#1F1A17;stroke-width:2.76822}
    .str0 {stroke:#72706F;stroke-width:4.15233}
    .fil1 {fill:none}
    .fil3 {fill:#00923F}
    .fil2 {fill:#1F1A17}
    .fil0 {fill:#B8DB7C}
   
  </style>
    <style
       id="style3646"
       type="text/css">
   
    .str1 {stroke:#1F1A17;stroke-width:2.76822}
    .str0 {stroke:#72706F;stroke-width:4.15233}
    .fil1 {fill:none}
    .fil3 {fill:#00923F}
    .fil2 {fill:#1F1A17}
    .fil0 {fill:#B8DB7C}
   
  </style>
    <style
       id="style3714"
       type="text/css">
   
    .str3 {stroke:#1F1A17;stroke-width:1.05469}
    .str1 {stroke:#72706F;stroke-width:2.44157}
    .str2 {stroke:#1F1A17;stroke-width:2.76822}
    .str0 {stroke:#72706F;stroke-width:4.15233}
    .fil3 {fill:none}
    .fil1 {fill:#00923F}
    .fil2 {fill:#1F1A17}
    .fil0 {fill:#B8DB7C}
   
  </style>
    <style
       id="style3804"
       type="text/css">
   
    .str1 {stroke:#1F1A17;stroke-width:2.76822}
    .str0 {stroke:#72706F;stroke-width:4.15233}
    .fil1 {fill:none}
    .fil3 {fill:#00923F}
    .fil2 {fill:#1F1A17}
    .fil0 {fill:#B8DB7C}
   
  </style>
    <style
       id="style3858"
       type="text/css">
   
    .str1 {stroke:#1F1A17;stroke-width:2.76822}
    .str0 {stroke:#72706F;stroke-width:4.15233}
    .fil1 {fill:none}
    .fil3 {fill:#00923F}
    .fil2 {fill:#1F1A17}
    .fil0 {fill:#B8DB7C}
   
  </style>
    <style
       id="style3926"
       type="text/css">
   
    .str2 {stroke:#1F1A17;stroke-width:1.05469}
    .str3 {stroke:#1F1A17;stroke-width:1.38411}
    .str1 {stroke:#1F1A17;stroke-width:2.76822}
    .str0 {stroke:#72706F;stroke-width:4.15233}
    .fil0 {fill:none}
    .fil3 {fill:#00923F}
    .fil1 {fill:#1F1A17}
    .fil2 {fill:#B8DB7C}
   
  </style>
    <style
       id="style3998"
       type="text/css">
   
    .str1 {stroke:#1F1A17;stroke-width:2.76822}
    .str0 {stroke:#72706F;stroke-width:4.15233}
    .fil2 {fill:none}
    .fil3 {fill:#00923F}
    .fil1 {fill:#1F1A17}
    .fil0 {fill:#B8DB7C}
   
  </style>
    <style
       id="style4042"
       type="text/css">
   
    .str1 {stroke:#1F1A17;stroke-width:2.76822}
    .str0 {stroke:#72706F;stroke-width:4.15233}
    .fil2 {fill:none}
    .fil3 {fill:#00923F}
    .fil1 {fill:#1F1A17}
    .fil0 {fill:#B8DB7C}
   
  </style>
    <style
       id="style4086"
       type="text/css">
   
    .str1 {stroke:#1F1A17;stroke-width:2.34375}
    .str0 {stroke:#72706F;stroke-width:3.51563}
    .fil3 {fill:none}
    .fil2 {fill:#1F1A17}
    .fil0 {fill:#00923F;fill-rule:nonzero}
    .fil1 {fill:#B8DB7C;fill-rule:nonzero}
   
  </style>
    <style
       id="style4130"
       type="text/css">
   
    .str1 {stroke:#1F1A17;stroke-width:2.76822}
    .str0 {stroke:#72706F;stroke-width:4.15233}
    .fil2 {fill:none}
    .fil3 {fill:#00923F}
    .fil1 {fill:#1F1A17}
    .fil0 {fill:#B8DB7C}
   
  </style>
    <style
       id="style4181"
       type="text/css">
   
    .str1 {stroke:#1F1A17;stroke-width:2.76822}
    .str0 {stroke:#72706F;stroke-width:4.15233}
    .fil2 {fill:none}
    .fil3 {fill:#00923F}
    .fil1 {fill:#1F1A17}
    .fil0 {fill:#B8DB7C}
   
  </style>
    <style
       id="style4232"
       type="text/css">
   
    .str0 {stroke:#1F1A17;stroke-width:1.84225}
    .str1 {stroke:#72706F;stroke-width:2.76406}
    .fil3 {fill:none}
    .fil4 {fill:#00923F}
    .fil2 {fill:#1F1A17}
    .fil0 {fill:#B8DB7C}
    .fil1 {fill:#72706F;fill-rule:nonzero}
   
  </style>
    <style
       id="style4418"
       type="text/css">
   
    .str0 {stroke:#1F1A17;stroke-width:1.84225}
    .str1 {stroke:#72706F;stroke-width:2.76406}
    .fil3 {fill:none}
    .fil4 {fill:#00923F}
    .fil2 {fill:#1F1A17}
    .fil0 {fill:#B8DB7C}
    .fil1 {fill:#72706F;fill-rule:nonzero}
   
  </style>
    <style
       id="style4604"
       type="text/css">
   
    .str0 {stroke:#1F1A17;stroke-width:1.84225}
    .str1 {stroke:#72706F;stroke-width:2.76406}
    .fil3 {fill:none}
    .fil4 {fill:#00923F}
    .fil2 {fill:#1F1A17}
    .fil0 {fill:#B8DB7C}
    .fil1 {fill:#72706F;fill-rule:nonzero}
   
  </style>
    <style
       id="style4790"
       type="text/css">
   
    .str0 {stroke:#1F1A17;stroke-width:1.84225}
    .str1 {stroke:#72706F;stroke-width:2.76406}
    .fil3 {fill:none}
    .fil4 {fill:#00923F}
    .fil2 {fill:#1F1A17}
    .fil0 {fill:#B8DB7C}
    .fil1 {fill:#72706F;fill-rule:nonzero}
   
  </style>
    <style
       id="style4976"
       type="text/css">
   
    .str1 {stroke:#1F1A17;stroke-width:2.76822}
    .str0 {stroke:#72706F;stroke-width:4.15233}
    .fil2 {fill:none}
    .fil3 {fill:#00923F}
    .fil1 {fill:#1F1A17}
    .fil0 {fill:#B8DB7C}
   
  </style>
    <style
       id="style5094"
       type="text/css">
   
    .str1 {stroke:#1F1A17;stroke-width:2.76822}
    .str0 {stroke:#72706F;stroke-width:4.15233}
    .fil2 {fill:none}
    .fil3 {fill:#00923F}
    .fil1 {fill:#1F1A17}
    .fil0 {fill:#B8DB7C}
   
  </style>
    <style
       id="style5138"
       type="text/css">
   
    .str1 {stroke:#1F1A17;stroke-width:2.76822}
    .str0 {stroke:#72706F;stroke-width:4.15233}
    .fil2 {fill:none}
    .fil3 {fill:#00923F}
    .fil1 {fill:#1F1A17}
    .fil0 {fill:#B8DB7C}
   
  </style>
    <style
       id="style5252"
       type="text/css">
   
    .str2 {stroke:#1F1A17;stroke-width:1.05469}
    .str1 {stroke:#1F1A17;stroke-width:2.76822}
    .str0 {stroke:#72706F;stroke-width:4.15233}
    .fil2 {fill:none}
    .fil3 {fill:#00923F}
    .fil1 {fill:#1F1A17}
    .fil0 {fill:#B8DB7C}
   
  </style>
    <style
       id="style5323"
       type="text/css">
   
    .str1 {stroke:#1F1A17;stroke-width:2.76822}
    .str0 {stroke:#72706F;stroke-width:4.15233}
    .fil2 {fill:none}
    .fil3 {fill:#00923F}
    .fil1 {fill:#1F1A17}
    .fil0 {fill:#B8DB7C}
   
  </style>
    <style
       id="style5553"
       type="text/css">
   
    .str1 {stroke:#1F1A17;stroke-width:1.38411}
    .str2 {stroke:#1F1A17;stroke-width:2.76822}
    .str0 {stroke:#72706F;stroke-width:4.15233}
    .str4 {stroke:#1F1A17;stroke-width:0.895518}
    .str3 {stroke:#72706F;stroke-width:1.34259}
    .fil2 {fill:none}
    .fil0 {fill:#00923F}
    .fil1 {fill:#1F1A17}
    .fil3 {fill:#B8DB7C}
    .fil5 {fill:#1F1A17;fill-rule:nonzero}
    .fil4 {fill:#72706F;fill-rule:nonzero}
    .fil6 {fill:#B8DB7C;fill-rule:nonzero}
   
  </style>
    <style
       id="style5669"
       type="text/css">
   
    .str1 {stroke:#1F1A17;stroke-width:1.38411}
    .str2 {stroke:#1F1A17;stroke-width:2.76822}
    .str0 {stroke:#72706F;stroke-width:4.15233}
    .fil2 {fill:none}
    .fil0 {fill:#00923F}
    .fil1 {fill:#1F1A17}
    .fil3 {fill:#B8DB7C}
   
  </style>
    <style
       id="style5720"
       type="text/css">
   
    .str2 {stroke:#1F1A17;stroke-width:1.05469}
    .str1 {stroke:#1F1A17;stroke-width:2.76822}
    .str0 {stroke:#72706F;stroke-width:4.15233}
    .fil2 {fill:none}
    .fil3 {fill:#00923F}
    .fil1 {fill:#1F1A17}
    .fil0 {fill:#B8DB7C}
   
  </style>
    <style
       id="style5757"
       type="text/css">
   
    .str1 {stroke:#1F1A17;stroke-width:1.38411}
    .str2 {stroke:#1F1A17;stroke-width:2.76822}
    .str0 {stroke:#72706F;stroke-width:4.15233}
    .str4 {stroke:#1F1A17;stroke-width:0.895518}
    .str3 {stroke:#72706F;stroke-width:1.34259}
    .fil2 {fill:none}
    .fil0 {fill:#00923F}
    .fil1 {fill:#1F1A17}
    .fil3 {fill:#B8DB7C}
    .fil5 {fill:#1F1A17;fill-rule:nonzero}
    .fil4 {fill:#72706F;fill-rule:nonzero}
    .fil6 {fill:#B8DB7C;fill-rule:nonzero}
   
  </style>
    <style
       id="style6200"
       type="text/css">
   
    .str1 {stroke:#1F1A17;stroke-width:2.76822}
    .str0 {stroke:#72706F;stroke-width:4.15233}
    .fil1 {fill:none}
    .fil3 {fill:#00923F}
    .fil2 {fill:#1F1A17}
    .fil0 {fill:#B8DB7C}
   
  </style>
    <style
       id="style6267"
       type="text/css">
   
    .str1 {stroke:#1F1A17;stroke-width:2.76822}
    .str0 {stroke:#72706F;stroke-width:4.15233}
    .fil3 {fill:none}
    .fil1 {fill:#00923F}
    .fil2 {fill:#1F1A17}
    .fil0 {fill:#B8DB7C}
   
  </style>
    <style
       id="style6304"
       type="text/css">
   
    .str1 {stroke:#1F1A17;stroke-width:2.76822}
    .str0 {stroke:#72706F;stroke-width:4.15233}
    .fil2 {fill:none}
    .fil1 {fill:#1F1A17}
    .fil0 {fill:#B8DB7C}
    .fil3 {fill:#00923F;fill-rule:nonzero}
   
  </style>
    <style
       id="style6355"
       type="text/css">
   
    .str1 {stroke:#1F1A17;stroke-width:1.38411}
    .str2 {stroke:#1F1A17;stroke-width:2.76822}
    .str0 {stroke:#72706F;stroke-width:4.15233}
    .fil2 {fill:none}
    .fil0 {fill:#00923F}
    .fil1 {fill:#1F1A17}
    .fil3 {fill:#B8DB7C}
   
  </style>
    <style
       id="style6510"
       type="text/css">
   
    .str1 {stroke:#1F1A17;stroke-width:2.76822}
    .str0 {stroke:#72706F;stroke-width:4.15233}
    .fil2 {fill:none}
    .fil3 {fill:#00923F}
    .fil1 {fill:#1F1A17}
    .fil0 {fill:#B8DB7C}
   
  </style>
    <style
       id="style6561"
       type="text/css">
   
    .str1 {stroke:#1F1A17;stroke-width:2.76822}
    .str0 {stroke:#72706F;stroke-width:4.15233}
    .fil2 {fill:none}
    .fil3 {fill:#00923F}
    .fil1 {fill:#1F1A17}
    .fil0 {fill:#B8DB7C}
   
  </style>
    <style
       id="style6675"
       type="text/css">
   
    .str1 {stroke:#1F1A17;stroke-width:1.05469}
    .str2 {stroke:#1F1A17;stroke-width:2.76822}
    .str0 {stroke:#72706F;stroke-width:4.15233}
    .fil3 {fill:none}
    .fil1 {fill:#00923F}
    .fil2 {fill:#1F1A17}
    .fil0 {fill:#B8DB7C}
   
  </style>
  </defs>
  <sodipodi:namedview
     id="base"
     pagecolor="#ffffff"
     bordercolor="#666666"
     borderopacity="1.0"
     inkscape:pageopacity="0.0"
     inkscape:pageshadow="2"
     inkscape:zoom="1.283147"
     inkscape:cx="410.35056"
     inkscape:cy="-1.1757896"
     inkscape:document-units="px"
     inkscape:current-layer="g6720"
     showgrid="false"
     showguides="true"
     inkscape:guide-bbox="true"
     inkscape:window-width="1920"
     inkscape:window-height="1050"
     inkscape:window-x="-4"
     inkscape:window-y="-4"
     inkscape:window-maximized="1" />
  <metadata
     id="metadata7">
    <rdf:RDF>
      <cc:Work
         rdf:about="">
        <dc:format>image/svg+xml</dc:format>
        <dc:type
           rdf:resource="http://purl.org/dc/dcmitype/StillImage" />
        <dc:title />
      </cc:Work>
    </rdf:RDF>
  </metadata>
  <g
     inkscape:label="Capa 1"
     inkscape:groupmode="layer"
     id="layer1"
     transform="translate(0,-796.36218)">
    <g
       style="fill-rule:evenodd"
       id="g6720"
       transform="translate(263.82649,994.43785)">
      <g
         id="Capa_x0020_1"
         transform="matrix(0.84351181,0,0,0.84351181,-263.20807,-201.06387)">
        <metadata
           id="CorelCorpID_0Corel-Layer" />
        <path
           id="path6679"
           d="m 207.046,213.283 1.29829,0 0,11.9324 31.1494,0 0,-35.7972 -31.1494,0 0,12.6784 -26.6081,0 c -2.39866,0 -3.15023,-0.37925 -4.54264,-1.49068 -5.57934,-1.49484 -16.1387,-15.4273 -19.635,-20.691 -3.06718,-4.616 -17.0564,-18.4834 -18.0045,-22.5651 l 123.302,0 c 1.49622,0 1.94744,0.51904 1.94744,2.2381 l 0.12319,12.922 31.6753,-20.381 0,-1.49068 -31.7985,-20.136 0,12.6784 c 0,1.71768 -0.45122,2.23672 -1.94744,2.23672 l -163.537004,0 c 0.707274,-3.04781 15.986504,-20.9845 18.980304,-24.4254 5.98765,-6.88179 12.731,-19.5754 23.2018,-19.5754 l 27.2559,0 c 0.44845,6.18835 8.82231,12.6784 14.9262,12.6784 8.63822,0 15.574,-8.33649 15.574,-18.6453 0,-10.3102 -6.87902,-18.6439 -15.574,-18.6439 -6.98144,0 -13.5892,6.08316 -14.9262,12.6784 -18.608,0 -37.3751,-4.81947 -50.5089,14.2965 -2.90248,4.22568 -9.07283,11.2929 -12.6009,15.3484 -6.755834,7.76347 -17.291704,26.2884 -29.042804,26.2884 l -18.1706,0 c -0.788942,-10.904 -13.0148,-24.6108 -24.0115,-24.6108 l -1.29829,0 c -8.56625,0 -13.7608,2.41527 -18.5235,7.05203 -3.06026,2.97999 -9.38149,12.9331 -9.38149,18.3048 l 0,5.22086 c 0,14.983 10.8832,30.5763 22.7146,30.5763 l 4.54264,0 c 12.9456,0 25.0704,-12.3615 25.9576,-24.6108 l 59.704904,0 c 9.42993,0 14.8806,10.7656 19.9561,16.5927 5.82433,6.68663 11.1947,13.2681 16.8861,20.1208 18.0529,21.7333 17.1297,19.2197 52.0646,19.2197 z"
           class="fil0 str0"
           inkscape:connector-curvature="0"
           style="fill:#b8db7c;stroke:#72706f;stroke-width:4.15232992" />
        <ellipse
           id="ellipse6681"
           ry="31.231501"
           rx="28.0753"
           cy="151.757"
           cx="31.473"
           class="fil1 str0"
           sodipodi:cx="31.473"
           sodipodi:cy="151.757"
           sodipodi:rx="28.0753"
           sodipodi:ry="31.231501"
           style="fill:#00923f;stroke:#72706f;stroke-width:4.15232992"
           d="m 59.5483,151.757 c 0,17.24869 -12.56974,31.2315 -28.0753,31.2315 -15.505561,0 -28.0753006,-13.98281 -28.0753006,-31.2315 0,-17.24868 12.5697396,-31.2315 28.0753006,-31.2315 15.50556,0 28.0753,13.98282 28.0753,31.2315 z" />
        <g
           id="_67620632">
          <path
             d="m 168.825,102.183 c 2.1426,3.56685 4.7904,8.13441 9.48945,8.52196 5.88246,0.48167 14.1567,-1.75228 16.5858,-7.87835 1.33705,-3.37584 2.64226,-6.89286 2.54538,-10.5234 -0.0927,-3.4755 -1.72322,-6.71846 -2.72669,-10.0472 l 0.58548,-0.373709 c 4.1108,5.48799 7.01605,8.32126 6.63126,15.6972 -0.57302,10.957999 -7.22505,18.317299 -18.2315,18.580299 -8.2396,0.19793 -16.4529,-5.07414 -14.8792,-13.9767 z"
             class="fil2"
             id="_67739312"
             inkscape:connector-curvature="0"
             style="fill:#1f1a17" />
        </g>
        <path
           id="path6685"
           d="m 168.825,102.183 c 0,5.24439 4.98279,10.0805 9.02992,10.8749 6.9593,1.36473 16.9664,-0.92458 19.8606,-9.25415 3.51148,-10.1068 2.12876,-14.176 -2.70455,-21.736"
           class="fil3"
           inkscape:connector-curvature="0"
           style="fill:none" />
        <g
           id="_67301072">
          <path
             d="m 264.543,158.456 2.14398,8.04582 0.43323,3.42567 7.64582,-5.81602 12.1995,-7.12262 4.13987,-2.49001 5.03123,-1.95436 0.15917,0.27405 c -8.60916,9.94482 -18.5457,17.1602 -29.6947,24.1942 -1.72045,1.08653 -4.24506,0.0263 -4.1897,-2.18551 l 2.13153,-16.3712 z"
             class="fil2 str1"
             id="_67674968"
             inkscape:connector-curvature="0"
             style="fill:#1f1a17;stroke:#1f1a17;stroke-width:1.05469" />
        </g>
        <path
           id="path6689"
           d="m 264.542,158.456 c 0,6.24371 0.53427,10.0182 0.53427,16.3712 l 23.0883,-16.1193 c 2.29485,-1.60141 5.36896,-4.48451 8.05274,-6.02641"
           class="fil3"
           inkscape:connector-curvature="0"
           style="fill:none" />
        <g
           id="_67560680">
          <path
             d="m 208.517,214.919 c 0.71282,2.91078 0.6879,6.1233 1.58342,8.92612 l 19.3042,0.92874 0.0208,0.26575 c -8.12887,1.34397 -12.3712,3.33155 -20.727,2.31146 -0.57717,-0.0692 -1.1059,-0.99656 -1.09898,-1.60833 l 0.91767,-10.8237 z"
             class="fil2 str1"
             id="_67768080"
             inkscape:connector-curvature="0"
             style="fill:#1f1a17;stroke:#1f1a17;stroke-width:1.05469" />
        </g>
        <path
           id="path6693"
           d="m 208.516,214.917 0.66714,10.695 c 6.77244,-0.66852 13.52,-0.0111 20.2329,-0.7059"
           class="fil3"
           inkscape:connector-curvature="0"
           style="fill:none" />
        <g
           id="_67907752">
          <path
             d="m 218.92,188.625 c 6.39597,-0.71974 13.1352,-2.06094 19.5921,-1.08376 1.24016,0.18824 2.69209,0.99517 2.66856,2.66856 l -1.40072,26.4628 -0.25883,0 -1.9336,-12.075 -0.70313,-11.048 0.15641,-1.8118 0.018,-0.11903 -1.98343,-0.30451 -16.1553,-2.68932 z m 19.2059,3.2748 0.0305,0.0222 0.018,-0.004 -0.0484,-0.018 z"
             class="fil2 str2"
             id="_67830416"
             inkscape:connector-curvature="0"
             style="fill:#1f1a17;stroke:#1f1a17;stroke-width:2.76821995" />
        </g>
        <path
           id="path6697"
           d="m 218.919,188.625 c 8.66314,0.72527 20.4959,0.26021 20.3201,1.64709 l -0.45814,3.5973 c -0.59932,4.6949 0.85815,15.9768 0.86922,22.8046"
           class="fil3"
           inkscape:connector-curvature="0"
           style="fill:none" />
        <g
           id="_67686408">
          <path
             d="m 117.849,158.731 -25.9077,0.56333 -20.4599,0.09 c -6.17866,0.40831 -7.76485,0.75572 -11.3358,5.15996 -7.04788,8.69082 -13.8369,19.1519 -24.8821,20.7519 -7.08248,1.02562 -12.3352,-1.8381 -18.5318,-5.22363 l 0.173014,-0.39862 c 7.26657,2.52461 13.9394,4.93296 21.4094,1.79796 8.39185,-3.52394 13.3816,-12.4141 18.9775,-19.8149 4.26444,-5.64301 6.84303,-6.22018 14.1843,-6.48732 l 20.3644,0.97302 26.008796,2.58828 z"
             class="fil2 str1"
             id="_67777376"
             inkscape:connector-curvature="0"
             style="fill:#1f1a17;stroke:#1f1a17;stroke-width:1.05469" />
        </g>
        <path
           id="path6701"
           d="m 117.849,158.731 c -6.17312,-1.23462 -9.40917,-0.38201 -15.3152,-0.97164 -6.69909,-0.66714 -14.4349,0.54672 -21.7471,0.036 -6.45271,-0.45122 -12.5774,-1.18341 -17.3706,0.76541 -7.66243,3.11701 -18.0419,37.836 -46.5988,21.3125"
           class="fil3"
           inkscape:connector-curvature="0"
           style="fill:none" />
        <g
           id="_67551400">
          <path
             d="m 142.519,162.651 27.0316,28.5099 c 3.99454,3.78969 8.58286,8.06105 13.9324,8.9275 l 23.7112,1.71353 -0.0208,0.418 c -8.98979,0.66022 -20.1249,3.49349 -29.0524,0.17301 -7.18352,-2.66995 -12.7864,-9.45069 -17.8273,-15.4909 l -17.7747,-24.251 z"
             class="fil2 str1"
             id="_67644016"
             inkscape:connector-curvature="0"
             style="fill:#1f1a17;stroke:#1f1a17;stroke-width:1.05469" />
        </g>
        <path
           id="path6705"
           d="m 142.519,162.652 c 6.44164,9.25277 11.6888,14.4944 18.9637,22.889 20.1665,23.2696 22.6648,14.8169 45.7005,16.4709"
           class="fil3"
           inkscape:connector-curvature="0"
           style="fill:none" />
        <g
           id="_67623888">
          <path
             d="m 167.931,100.533 c -11.1061,3.13224 -23.0869,1.56127 -33.1563,8.45829 l -18.0336,14.3158 -0.40693,-0.56472 c 4.26167,-6.21188 8.54272,-13.4397 14.4252,-18.2924 11.1504,-9.204316 24.0793,-6.545446 37.1716,-3.91703 z"
             class="fil2 str1"
             id="_67576672"
             inkscape:connector-curvature="0"
             style="fill:#1f1a17;stroke:#1f1a17;stroke-width:1.05469" />
        </g>
        <path
           id="path6709"
           d="m 167.931,100.533 c -2.68379,0.61593 -7.09356,0.46644 -9.74966,0.0484 -5.72052,-0.901051 -13.3719,0.1661 -20.3021,2.5343 -4.92881,1.68446 -19.1934,18.3671 -21.3416,19.909"
           class="fil3"
           inkscape:connector-curvature="0"
           style="fill:none" />
        <g
           id="_67778800">
          <polygon
             points="231.287,160.026 199.688,158.366 213.485,156.653 231.186,155.445 231.186,155.445 247.247,155.629 263.334,156.781 263.334,156.8 "
             class="fil2 str2"
             id="_48608208"
             style="fill:#1f1a17;stroke:#1f1a17;stroke-width:2.76821995" />
        </g>
        <path
           id="path6713"
           d="m 199.687,158.367 c 5.48661,0 20.8502,-0.31558 31.5494,-0.62977 l 32.0961,-0.94673"
           class="fil3"
           inkscape:connector-curvature="0"
           style="fill:none" />
      </g>
    </g>
  </g>
</svg>
