<?xml version="1.0" encoding="UTF-8"?>
<!DOCTYPE svg PUBLIC "-//W3C//DTD SVG 1.1//EN" "http://www.w3.org/Graphics/SVG/1.1/DTD/svg11.dtd">
<!-- Creator: CorelDRAW -->
<svg xmlns="http://www.w3.org/2000/svg" xml:space="preserve" width="300px" height="300px" style="shape-rendering:geometricPrecision; text-rendering:geometricPrecision; image-rendering:optimizeQuality; fill-rule:evenodd; clip-rule:evenodd"
viewBox="0 0 300 300"
 xmlns:xlink="http://www.w3.org/1999/xlink">
 <defs>
  <style type="text/css">
   <![CDATA[
    .str1 {stroke:#1F1A17;stroke-width:1.05469}
    .str2 {stroke:#1F1A17;stroke-width:2.76822}
    .str0 {stroke:#72706F;stroke-width:4.15233}
    .fil3 {fill:none}
    .fil1 {fill:#00923F}
    .fil2 {fill:#1F1A17}
    .fil0 {fill:#B8DB7C}
   ]]>
  </style>
 </defs>
 <g id="Capa_x0020_1">
  <metadata id="CorelCorpID_0Corel-Layer"/>
  <path class="fil0 str0" d="M207.046 213.283l1.29829 0 0 11.9324 31.1494 0 0 -35.7972 -31.1494 0 0 12.6784 -26.6081 0c-2.39866,0 -3.15023,-0.379246 -4.54264,-1.49068 -5.57934,-1.49484 -16.1387,-15.4273 -19.635,-20.691 -3.06718,-4.616 -17.0564,-18.4834 -18.0045,-22.5651l123.302 0c1.49622,0 1.94744,0.519041 1.94744,2.2381l0.123186 12.922 31.6753 -20.381 0 -1.49068 -31.7985 -20.136 0 12.6784c0,1.71768 -0.451219,2.23672 -1.94744,2.23672l-163.537 0c0.707279,-3.04781 15.9865,-20.9845 18.9803,-24.4254 5.98765,-6.88179 12.731,-19.5754 23.2018,-19.5754l27.2559 0c0.448451,6.18835 8.82231,12.6784 14.9262,12.6784 8.63822,0 15.574,-8.33649 15.574,-18.6453 0,-10.3102 -6.87902,-18.6439 -15.574,-18.6439 -6.98144,0 -13.5892,6.08316 -14.9262,12.6784 -18.608,0 -37.3751,-4.81947 -50.5089,14.2965 -2.90248,4.22568 -9.07283,11.2929 -12.6009,15.3484 -6.75583,7.76347 -17.2917,26.2884 -29.0428,26.2884l-18.1706 0c-0.788942,-10.904 -13.0148,-24.6108 -24.0115,-24.6108l-1.29829 0c-8.56625,0 -13.7608,2.41527 -18.5235,7.05203 -3.06026,2.97999 -9.38149,12.9331 -9.38149,18.3048l0 5.22086c0,14.983 10.8832,30.5763 22.7146,30.5763l4.54264 0c12.9456,0 25.0704,-12.3615 25.9576,-24.6108l59.7049 0c9.42993,0 14.8806,10.7656 19.9561,16.5927 5.82433,6.68663 11.1947,13.2681 16.8861,20.1208 18.0529,21.7333 17.1297,19.2197 52.0646,19.2197z"/>
  <ellipse class="fil1 str0" cx="31.473" cy="151.757" rx="28.0753" ry="31.2315"/>
  <g id="_67620632">
   <path id="_67739312" class="fil2" d="M168.825 102.183c2.1426,3.56685 4.7904,8.13441 9.48945,8.52196 5.88246,0.48167 14.1567,-1.75228 16.5858,-7.87835 1.33705,-3.37584 2.64226,-6.89286 2.54538,-10.5234 -0.0927353,-3.4755 -1.72322,-6.71846 -2.72669,-10.0472l0.585478 -0.373709c4.1108,5.48799 7.01605,8.32126 6.63126,15.6972 -0.573021,10.958 -7.22505,18.3173 -18.2315,18.5803 -8.2396,0.197928 -16.4529,-5.07414 -14.8792,-13.9767z"/>
  </g>
  <path class="fil3" d="M168.825 102.183c0,5.24439 4.98279,10.0805 9.02992,10.8749 6.9593,1.36473 16.9664,-0.924585 19.8606,-9.25415 3.51148,-10.1068 2.12876,-14.176 -2.70455,-21.736"/>
  <g id="_67301072">
   <path id="_67674968" class="fil2 str1" d="M264.543 158.456l2.14398 8.04582 0.433226 3.42567 7.64582 -5.81602 12.1995 -7.12262 4.13987 -2.49001 5.03123 -1.95436 0.159172 0.274054c-8.60916,9.94482 -18.5457,17.1602 -29.6947,24.1942 -1.72045,1.08653 -4.24506,0.0262981 -4.1897,-2.18551l2.13153 -16.3712z"/>
  </g>
  <path class="fil3" d="M264.542 158.456c0,6.24371 0.534266,10.0182 0.534266,16.3712l23.0883 -16.1193c2.29485,-1.60141 5.36896,-4.48451 8.05274,-6.02641"/>
  <g id="_67560680">
   <path id="_67768080" class="fil2 str1" d="M208.517 214.919c0.712816,2.91078 0.687902,6.1233 1.58342,8.92612l19.3042 0.928737 0.0207616 0.265749c-8.12887,1.34397 -12.3712,3.33155 -20.727,2.31146 -0.577173,-0.0692054 -1.1059,-0.996558 -1.09898,-1.60833l0.917664 -10.8237z"/>
  </g>
  <path class="fil3" d="M208.516 214.917l0.66714 10.695c6.77244,-0.668524 13.52,-0.0110729 20.2329,-0.705895"/>
  <g id="_67907752">
   <path id="_67830416" class="fil2 str2" d="M218.92 188.625c6.39597,-0.719736 13.1352,-2.06094 19.5921,-1.08376 1.24016,0.188239 2.69209,0.995174 2.66856,2.66856l-1.40072 26.4628 -0.258828 0 -1.9336 -12.075 -0.703127 -11.048 0.156404 -1.8118 0.0179934 -0.119033 -1.98343 -0.304504 -16.1553 -2.68932zm19.2059 3.2748l0.0304504 0.0221457 0.0179934 -0.00415233 -0.0484438 -0.0179934z"/>
  </g>
  <path class="fil3" d="M218.919 188.625c8.66314,0.725273 20.4959,0.260212 20.3201,1.64709l-0.45814 3.5973c-0.599319,4.6949 0.858147,15.9768 0.86922,22.8046"/>
  <g id="_67686408">
   <path id="_67777376" class="fil2 str1" d="M117.849 158.731l-25.9077 0.563332 -20.4599 0.0899671c-6.17866,0.408312 -7.76485,0.755723 -11.3358,5.15996 -7.04788,8.69082 -13.8369,19.1519 -24.8821,20.7519 -7.08248,1.02562 -12.3352,-1.8381 -18.5318,-5.22363l0.173014 -0.398623c7.26657,2.52461 13.9394,4.93296 21.4094,1.79796 8.39185,-3.52394 13.3816,-12.4141 18.9775,-19.8149 4.26444,-5.64301 6.84303,-6.22018 14.1843,-6.48732l20.3644 0.973028 26.0088 2.58828z"/>
  </g>
  <path class="fil3" d="M117.849 158.731c-6.17312,-1.23462 -9.40917,-0.382014 -15.3152,-0.971644 -6.69909,-0.66714 -14.4349,0.546723 -21.7471,0.0359868 -6.45271,-0.451219 -12.5774,-1.18341 -17.3706,0.765412 -7.66243,3.11701 -18.0419,37.836 -46.5988,21.3125"/>
  <g id="_67551400">
   <path id="_67644016" class="fil2 str1" d="M142.519 162.651l27.0316 28.5099c3.99454,3.78969 8.58286,8.06105 13.9324,8.9275l23.7112 1.71353 -0.0207616 0.418001c-8.98979,0.66022 -20.1249,3.49349 -29.0524,0.173014 -7.18352,-2.66995 -12.7864,-9.45069 -17.8273,-15.4909l-17.7747 -24.251z"/>
  </g>
  <path class="fil3" d="M142.519 162.652c6.44164,9.25277 11.6888,14.4944 18.9637,22.889 20.1665,23.2696 22.6648,14.8169 45.7005,16.4709"/>
  <g id="_67623888">
   <path id="_67576672" class="fil2 str1" d="M167.931 100.533c-11.1061,3.13224 -23.0869,1.56127 -33.1563,8.45829l-18.0336 14.3158 -0.406928 -0.564716c4.26167,-6.21188 8.54272,-13.4397 14.4252,-18.2924 11.1504,-9.20432 24.0793,-6.54545 37.1716,-3.91703z"/>
  </g>
  <path class="fil3" d="M167.931 100.533c-2.68379,0.615928 -7.09356,0.466445 -9.74966,0.0484438 -5.72052,-0.901055 -13.3719,0.166093 -20.3021,2.5343 -4.92881,1.68446 -19.1934,18.3671 -21.3416,19.909"/>
  <g id="_67778800">
   <polygon id="_48608208" class="fil2 str2" points="199.688,158.366 213.485,156.653 231.186,155.445 231.186,155.445 247.247,155.629 263.334,156.781 263.334,156.8 231.287,160.026 "/>
  </g>
  <path class="fil3" d="M199.687 158.367c5.48661,0 20.8502,-0.315577 31.5494,-0.629769l32.0961 -0.94673"/>
 </g>
</svg>
