<?xml version="1.0" encoding="UTF-8" standalone="no"?>
<!-- Created with Inkscape (http://www.inkscape.org/) -->

<svg
   xmlns:dc="http://purl.org/dc/elements/1.1/"
   xmlns:cc="http://creativecommons.org/ns#"
   xmlns:rdf="http://www.w3.org/1999/02/22-rdf-syntax-ns#"
   xmlns:svg="http://www.w3.org/2000/svg"
   xmlns="http://www.w3.org/2000/svg"
   xmlns:sodipodi="http://sodipodi.sourceforge.net/DTD/sodipodi-0.dtd"
   xmlns:inkscape="http://www.inkscape.org/namespaces/inkscape"
   width="256"
   height="256"
   id="svg4374"
   version="1.1"
   inkscape:version="0.48.3.1 r9886"
   sodipodi:docname="edit-delete.svg">
  <defs
     id="defs4376" />
  <sodipodi:namedview
     id="base"
     pagecolor="#ffffff"
     bordercolor="#666666"
     borderopacity="1.0"
     inkscape:pageopacity="0.0"
     inkscape:pageshadow="2"
     inkscape:zoom="1.7124294"
     inkscape:cx="154.9802"
     inkscape:cy="28.495546"
     inkscape:document-units="px"
     inkscape:current-layer="layer1"
     showgrid="false"
     inkscape:window-width="1920"
     inkscape:window-height="1050"
     inkscape:window-x="-4"
     inkscape:window-y="-4"
     inkscape:window-maximized="1" />
  <metadata
     id="metadata4379">
    <rdf:RDF>
      <cc:Work
         rdf:about="">
        <dc:format>image/svg+xml</dc:format>
        <dc:type
           rdf:resource="http://purl.org/dc/dcmitype/StillImage" />
        <dc:title />
      </cc:Work>
    </rdf:RDF>
  </metadata>
  <g
     inkscape:label="Capa 1"
     inkscape:groupmode="layer"
     id="layer1"
     transform="translate(0,-796.36218)">
    <g
       id="g5981"
       transform="matrix(17.801452,0,0,17.801452,-15.399081,783.52198)"
       style="fill:#b8db7d;fill-opacity:1">
      <g
         style="display:inline;fill:#b8db7d;fill-opacity:1"
         id="layer9"
         transform="translate(-40,-518)" />
      <g
         id="layer10"
         transform="translate(-40,-518)"
         style="fill:#b8db7d;fill-opacity:1" />
      <g
         id="layer11"
         transform="translate(-40,-518)"
         style="fill:#b8db7d;fill-opacity:1" />
      <g
         id="layer12"
         transform="translate(-40,-518)"
         style="fill:#b8db7d;fill-opacity:1">
        <path
           style="font-size:medium;font-style:normal;font-variant:normal;font-weight:normal;font-stretch:normal;text-indent:0;text-align:start;text-decoration:none;line-height:normal;letter-spacing:normal;word-spacing:normal;text-transform:none;direction:ltr;block-progression:tb;writing-mode:lr-tb;text-anchor:start;color:#bebebe;fill:#b8db7d;fill-opacity:1;fill-rule:nonzero;stroke:none;stroke-width:1.78124988000000010;marker:none;visibility:visible;display:inline;overflow:visible;enable-background:new;font-family:Andale Mono;-inkscape-font-specification:Andale Mono"
           id="path10839"
           d="m 48,519.03125 c -3.85327,0 -6.96875,3.11547 -6.96875,6.96875 0,3.85327 3.11548,6.96875 6.96875,6.96875 3.85327,0 6.96875,-3.11548 6.96875,-6.96875 0,-3.85328 -3.11548,-6.96875 -6.96875,-6.96875 z M 45,523 l 1,0 c 0.01037,-1.2e-4 0.02079,-4.6e-4 0.03125,0 0.254951,0.0112 0.50987,0.12858 0.6875,0.3125 L 48,524.59375 49.3125,523.3125 C 49.578125,523.082 49.759172,523.007 50,523 l 1,0 0,1 c 0,0.28647 -0.03434,0.55065 -0.25,0.75 l -1.28125,1.28125 1.25,1.25 C 50.906938,527.46942 50.999992,527.7347 51,528 l 0,1 -1,0 c -0.265301,-10e-6 -0.530586,-0.0931 -0.71875,-0.28125 L 48,527.4375 46.71875,528.71875 C 46.530586,528.90694 46.26529,529 46,529 l -1,0 0,-1 c -3e-6,-0.26529 0.09306,-0.53058 0.28125,-0.71875 l 1.28125,-1.25 L 45.28125,524.75 C 45.070508,524.55537 44.97809,524.28075 45,524 l 0,-1 z"
           inkscape:connector-curvature="0" />
      </g>
      <g
         id="layer13"
         transform="translate(-40,-518)"
         style="fill:#b8db7d;fill-opacity:1" />
      <g
         id="layer14"
         transform="translate(-40,-518)"
         style="fill:#b8db7d;fill-opacity:1" />
      <g
         id="layer15"
         transform="translate(-40,-518)"
         style="fill:#b8db7d;fill-opacity:1" />
    </g>
  </g>
</svg>
