<?xml version="1.0" encoding="UTF-8"?>
<!DOCTYPE svg PUBLIC "-//W3C//DTD SVG 1.1//EN" "http://www.w3.org/Graphics/SVG/1.1/DTD/svg11.dtd">
<!-- Creator: CorelDRAW -->
<svg xmlns="http://www.w3.org/2000/svg" xml:space="preserve" width="300px" height="300px" style="shape-rendering:geometricPrecision; text-rendering:geometricPrecision; image-rendering:optimizeQuality; fill-rule:evenodd; clip-rule:evenodd"
viewBox="0 0 300 300"
 xmlns:xlink="http://www.w3.org/1999/xlink">
 <defs>
  <style type="text/css">
   <![CDATA[
    .str1 {stroke:#1F1A17;stroke-width:1.38411}
    .str2 {stroke:#1F1A17;stroke-width:2.76822}
    .str0 {stroke:#72706F;stroke-width:4.15233}
    .str4 {stroke:#1F1A17;stroke-width:0.895518}
    .str3 {stroke:#72706F;stroke-width:1.34259}
    .fil2 {fill:none}
    .fil0 {fill:#00923F}
    .fil1 {fill:#1F1A17}
    .fil3 {fill:#B8DB7C}
    .fil5 {fill:#1F1A17;fill-rule:nonzero}
    .fil4 {fill:#72706F;fill-rule:nonzero}
    .fil6 {fill:#B8DB7C;fill-rule:nonzero}
   ]]>
  </style>
 </defs>
 <g id="Capa_x0020_1">
  <metadata id="CorelCorpID_0Corel-Layer"/>
  <path class="fil0 str0" d="M113.493 34.9487l57.2467 -0.193775 0.191007 -21.2267 57.9429 2.86649 -0.877525 17.3982c20.5817,2.36267 28.4407,4.73504 35.5218,26.9901l-1.08237 51.9664 -228.437 1.08237 2.16613 -57.3796c6.23264,-20.4031 32.0117,-27.5701 77.3288,-21.5035z"/>
  <g id="_122990968">
   <path id="_152487464" class="fil1 str1" d="M111.444 35.0013c-18.8474,1.31352 -39.3031,0.548107 -57.5457,5.91706 -9.32612,2.74469 -12.929,9.58634 -17.0757,17.6792l-0.945346 0c1.35089,-10.3268 4.98833,-19.3388 15.6473,-23.4302 10.8279,-4.15509 22.5499,-5.09214 34.1266,-4.40147l25.7929 4.23537z"/>
  </g>
  <path class="fil2" d="M111.444 35.0027c-13.8923,0 -38.2429,-3.46027 -50.9477,0.290663 -4.29489,1.26923 -11.4355,3.86997 -15.0951,6.5759 -3.65958,2.70593 -9.05207,12.94 -9.05207,16.7283"/>
  <rect class="fil3 str0" transform="matrix(1.95332 -0.00571043 0.00892494 1.24979 16.3231 56.3899)" width="135.856" height="140.169" rx="21.5644" ry="21.5644"/>
  <g id="_152332824">
   <path id="_152330624" class="fil1 str1" d="M174.872 12.7698l53.5083 -1.56958c5.71083,0.453988 3.35923,8.91366 3.09625,11.9518l-0.9232 6.81258 -0.00415233 0.487206 0.0733578 0.012457 2.84711 0.00276822 3.93502 0.123186 6.04994 1.38411 5.42294 2.75161 4.68936 3.72464c6.71846,6.19942 9.95589,13.7304 11.0064,22.5278l-0.669909 0.0733578c-5.54889,-12.1857 -13.1449,-21.7942 -26.9209,-24.125 -4.73642,-0.800015 -12.8182,2.36406 -13.5656,-5.43401l-0.137027 -1.52806 0.539802 -7.93233 0.539802 -4.11219 -6.49009 -0.820776 -8.97456 -1.05331 -15.9878 -0.739114 -18.0349 -2.53707zm55.3782 17.6211l-0.0871988 -0.051212 -0.051212 -0.00138411 0.138411 0.0525961zm7.15446 0.199312l0.146716 0.00553643 -0.206232 -0.0179934 0.0595167 0.012457z"/>
  </g>
  <path class="fil2" d="M174.872 12.7684c9.50883,0 27.4912,1.02839 33.7473,0.422153 3.69834,-0.358484 15.3691,1.62356 19.7609,1.62356 0,5.41186 -1.46439,10.2812 -1.46439,15.1505 0,5.95305 5.85616,3.24712 10.2479,3.78831 14.7712,0.840154 26.0545,18.0474 27.0745,27.2614"/>
  <g id="_155685280">
   <path id="_122920360" class="fil1 str2" d="M282.632 119.248l3.72187 48.7649c-0.701743,21.6738 0.368173,54.0176 -26.0738,60.8523 -8.9621,2.31561 -18.19,3.52117 -27.4455,3.65266l-91.5463 -1.51837 -0.00968876 -0.568869 91.4328 -4.7641c11.4397,-0.722505 24.2122,-1.85332 34.1778,-8.22714 14.3587,-9.18356 13.2694,-36.1571 14.4847,-49.6826l1.25815 -48.5089z"/>
  </g>
  <path class="fil2" d="M282.631 119.248c3.65958,15.1505 1.79104,83.0687 -6.49562,94.4405 -7.6818,10.5441 -23.4274,15.0494 -43.3627,15.4037l-91.4896 1.62356"/>
  <g id="_155331344">
   <path id="_151756192" class="fil1 str2" d="M133.964 55.9387c-32.8283,1.21802 -72.1771,-3.24158 -101.158,15.5878 -7.67211,4.98556 -10.8583,15.3262 -11.632,23.8177l-1.31629 39.0222 -2.74192 27.0884 -0.516273 0 -1.08929 -53.3062c-0.167477,-13.4259 -1.51145,-28.1652 8.6576,-38.7384 10.6493,-11.0729 26.0392,-14.6328 40.8381,-16.1525 23.3347,-2.39728 45.76,0.538418 68.9577,2.68102z"/>
  </g>
  <path class="fil2" d="M133.964 55.9387c-16.1027,0 -35.1757,-1.96128 -51.2342,-1.08237 -50.1366,2.74192 -67.8725,16.1885 -64.4081,53.028 0.66714,7.09909 -1.46439,45.4527 -1.46439,53.5692"/>
  <g>
   <path class="fil0" d="M62.242 269.188l183.148 0c9.52959,0 17.3249,3.11009 17.3249,6.91224l0 0c0,3.80076 -7.7953,6.91085 -17.3249,6.91085l-183.148 0c-9.52959,0 -17.3249,-3.11009 -17.3249,-6.91085l0 0c0,-3.80215 7.7953,-6.91224 17.3249,-6.91224z"/>
   <path id="1" class="fil4" d="M245.39 269.853l0 0 -183.148 0 0 -1.32874 183.148 0 0 1.32874zm18.9886 6.24787l-3.3274 0 0 0 -0.0166093 -0.321113 -0.0609008 -0.315577 -0.103808 -0.314193 -0.132874 -0.304504 -0.175782 -0.300352 -0.214537 -0.297583 -0.247755 -0.289279 -0.27959 -0.282358 -0.314193 -0.276822 -0.344643 -0.269901 -0.38063 -0.261597 -0.405544 -0.253292 -0.438762 -0.244987 -0.469213 -0.236683 -0.494127 -0.226994 -0.523193 -0.220073 -0.543955 -0.206232 -0.570253 -0.196543 -0.591014 -0.188239 -0.614544 -0.171629 -0.638074 -0.164709 -0.653299 -0.150868 -0.675445 -0.138411 -0.696207 -0.125954 -0.705895 -0.110729 -0.726657 -0.0996558 -0.736346 -0.0844306 -0.758492 -0.0705895 -0.765412 -0.0525961 -0.780637 -0.0415233 -0.798631 -0.0235298 -0.804167 -0.00692054 0 -1.32874 0.973028 0.012457 0.953651 0.0290663 0.949498 0.0470597 0.937042 0.0692054 0.913512 0.0844306 0.905207 0.10104 0.881677 0.119033 0.863684 0.138411 0.837386 0.150868 0.819392 0.168861 0.797247 0.184086 0.76818 0.195159 0.74465 0.213153 0.718352 0.224226 0.689286 0.238067 0.66022 0.253292 0.628385 0.261597 0.596551 0.274054 0.560564 0.28651 0.530114 0.297583 0.496895 0.305888 0.45814 0.316961 0.422153 0.328034 0.38063 0.334954 0.343259 0.343259 0.300352 0.352948 0.253292 0.358484 0.214537 0.366789 0.171629 0.373709 0.117649 0.375093 0.0747419 0.384782 0.0276822 0.38755 0 0zm-3.3274 0l1.6637 0 0 0 0 0 0 0 -1.6637 0zm-15.6612 7.57523l0 -1.32874 0 0 0.804167 -0.00692054 0.798631 -0.0235298 0.780637 -0.0415233 0.765412 -0.0525961 0.758492 -0.0705895 0.736346 -0.0844306 0.726657 -0.0996558 0.705895 -0.110729 0.696207 -0.125954 0.675445 -0.138411 0.653299 -0.150868 0.638074 -0.164709 0.614544 -0.171629 0.591014 -0.188239 0.570253 -0.196543 0.550875 -0.209 0.516273 -0.215921 0.494127 -0.22561 0.469213 -0.239451 0.438762 -0.243603 0.405544 -0.254676 0.38063 -0.261597 0.344643 -0.268517 0.314193 -0.274054 0.27959 -0.28651 0.247755 -0.289279 0.214537 -0.296199 0.175782 -0.300352 0.132874 -0.304504 0.103808 -0.314193 0.0609008 -0.315577 0.0166093 -0.321113 3.3274 0 -0.0276822 0.38755 -0.0747419 0.384782 -0.117649 0.375093 -0.171629 0.373709 -0.214537 0.366789 -0.253292 0.3571 -0.300352 0.352948 -0.343259 0.341875 -0.38063 0.337722 -0.422153 0.32665 -0.45814 0.316961 -0.496895 0.307272 -0.530114 0.296199 -0.560564 0.283742 -0.596551 0.278206 -0.635306 0.262981 -0.653299 0.250524 -0.689286 0.238067 -0.718352 0.224226 -0.74465 0.213153 -0.76818 0.195159 -0.797247 0.184086 -0.819392 0.168861 -0.837386 0.150868 -0.863684 0.138411 -0.881677 0.119033 -0.905207 0.10104 -0.913512 0.0844306 -0.937042 0.0692054 -0.949498 0.0470597 -0.953651 0.0290663 -0.973028 0.012457 0 0zm-183.148 -1.32874l0 0 183.148 0 0 1.32874 -183.148 0 0 -1.32874zm-18.9886 -6.24648l3.3274 0 0 0 0.0166093 0.321113 0.0609008 0.315577 0.103808 0.314193 0.132874 0.304504 0.175782 0.300352 0.214537 0.296199 0.247755 0.289279 0.27959 0.28651 0.314193 0.274054 0.344643 0.268517 0.38063 0.261597 0.405544 0.254676 0.438762 0.243603 0.469213 0.239451 0.494127 0.22561 0.516273 0.215921 0.550875 0.209 0.570253 0.196543 0.591014 0.188239 0.614544 0.171629 0.638074 0.164709 0.653299 0.150868 0.675445 0.138411 0.696207 0.125954 0.705895 0.110729 0.726657 0.0996558 0.736346 0.0844306 0.758492 0.0705895 0.765412 0.0525961 0.780637 0.0415233 0.798631 0.0235298 0.804167 0.00692054 0 1.32874 -0.973028 -0.012457 -0.953651 -0.0290663 -0.949498 -0.0470597 -0.937042 -0.0692054 -0.913512 -0.0844306 -0.905207 -0.10104 -0.881677 -0.119033 -0.863684 -0.138411 -0.837386 -0.150868 -0.819392 -0.168861 -0.797247 -0.184086 -0.76818 -0.195159 -0.74465 -0.213153 -0.718352 -0.224226 -0.689286 -0.238067 -0.653299 -0.250524 -0.635306 -0.262981 -0.596551 -0.278206 -0.560564 -0.283742 -0.530114 -0.296199 -0.496895 -0.307272 -0.45814 -0.316961 -0.422153 -0.32665 -0.38063 -0.337722 -0.343259 -0.341875 -0.300352 -0.352948 -0.253292 -0.3571 -0.214537 -0.366789 -0.171629 -0.373709 -0.117649 -0.375093 -0.0747419 -0.384782 -0.0276822 -0.38755 0 0zm3.3274 0l-1.6637 0 0 0 0 0 0 0 1.6637 0zm15.6612 -7.57661l0 1.32874 0 0 -0.804167 0.00692054 -0.798631 0.0235298 -0.780637 0.0415233 -0.765412 0.0525961 -0.758492 0.0705895 -0.736346 0.0844306 -0.726657 0.0996558 -0.705895 0.110729 -0.696207 0.125954 -0.675445 0.138411 -0.653299 0.150868 -0.638074 0.164709 -0.614544 0.171629 -0.591014 0.188239 -0.570253 0.196543 -0.543955 0.206232 -0.523193 0.220073 -0.494127 0.226994 -0.469213 0.236683 -0.438762 0.244987 -0.405544 0.253292 -0.38063 0.261597 -0.344643 0.269901 -0.314193 0.276822 -0.27959 0.282358 -0.247755 0.289279 -0.214537 0.297583 -0.175782 0.300352 -0.132874 0.304504 -0.103808 0.314193 -0.0609008 0.315577 -0.0166093 0.321113 -3.3274 0 0.0276822 -0.38755 0.0747419 -0.384782 0.117649 -0.375093 0.171629 -0.373709 0.214537 -0.366789 0.253292 -0.358484 0.300352 -0.352948 0.343259 -0.343259 0.38063 -0.334954 0.422153 -0.328034 0.45814 -0.316961 0.496895 -0.305888 0.530114 -0.297583 0.560564 -0.28651 0.596551 -0.274054 0.628385 -0.261597 0.66022 -0.253292 0.689286 -0.238067 0.718352 -0.224226 0.74465 -0.213153 0.76818 -0.195159 0.797247 -0.184086 0.819392 -0.168861 0.837386 -0.150868 0.863684 -0.138411 0.881677 -0.119033 0.905207 -0.10104 0.913512 -0.0844306 0.937042 -0.0692054 0.949498 -0.0470597 0.953651 -0.0290663 0.973028 -0.012457 0 0z"/>
  </g>
  <g>
   <g>
    <path class="fil1" d="M60.1312 269.062c-3.84921,0.710048 -8.29773,1.28722 -10.1552,2.95646 -3.95993,3.55854 2.18136,7.55031 11.0023,8.3268 18.356,1.61664 36.7688,0.83877 55.3782,1.0187l99.1658 1.92253 -0.00830465 0.146716 -136.796 0.617312c-8.62438,-0.328034 -27.1424,-0.901055 -31.0732,-5.10321 -2.56614,-2.74192 -4.31703,-6.724 2.3433,-8.80016 3.1876,-0.995174 6.29493,-1.05607 10.1427,-1.08514z"/>
    <path id="1" class="fil5" d="M50.985 272.197l-2.01803 -0.3571 0 0 0.20208 -0.171629 0.218689 -0.166093 0.236683 -0.159172 0.253292 -0.152252 0.265749 -0.145331 0.27959 -0.142563 0.290663 -0.13149 0.301736 -0.128722 0.312809 -0.121802 0.322497 -0.116265 0.328034 -0.110729 0.340491 -0.106576 0.344643 -0.105192 0.354332 -0.0968876 0.351564 -0.0927353 0.361252 -0.0885829 0.365405 -0.0871988 0.372325 -0.0844306 0.372325 -0.0788942 0.372325 -0.076126 0.379246 -0.076126 0.375093 -0.0719736 0.376478 -0.0733578 0.377862 -0.0678213 0.375093 -0.0692054 0.38063 -0.0664372 0.375093 -0.0664372 0.361252 -0.063669 0.369557 -0.0664372 0.368173 -0.0650531 0.361252 -0.0650531 0.354332 -0.0650531 0.927353 0.802783 -0.370941 0.0678213 -0.369557 0.0650531 -0.368173 0.0650531 -0.369557 0.0664372 -0.38063 0.0664372 -0.366789 0.063669 -0.361252 0.0664372 -0.366789 0.0664372 -0.361252 0.0678213 -0.359868 0.0650531 -0.355716 0.0692054 -0.346027 0.0678213 -0.344643 0.0733578 -0.339107 0.0733578 -0.328034 0.0733578 -0.323881 0.076126 -0.316961 0.0802783 -0.315577 0.0816624 -0.296199 0.0830465 -0.292047 0.0830465 -0.27959 0.0899671 -0.275438 0.0941194 -0.261597 0.0941194 -0.251908 0.0996558 -0.240835 0.10104 -0.229762 0.106576 -0.218689 0.106576 -0.207616 0.114881 -0.192391 0.119033 -0.184086 0.123186 -0.174398 0.127338 -0.160557 0.135643 0 0zm10.2313 7.71779l-0.476133 0.860916 0 0 -0.880293 -0.0871988 -0.8623 -0.109345 -0.840154 -0.12457 -0.819392 -0.145331 -0.798631 -0.161941 -0.772333 -0.177166 -0.743266 -0.195159 -0.718352 -0.209 -0.689286 -0.222841 -0.658836 -0.236683 -0.625617 -0.24914 -0.595167 -0.262981 -0.55918 -0.271285 -0.521809 -0.285126 -0.491359 -0.294815 -0.445683 -0.30312 -0.413848 -0.314193 -0.365405 -0.321113 -0.325266 -0.328034 -0.280974 -0.337722 -0.235298 -0.340491 -0.189623 -0.348795 -0.137027 -0.351564 -0.0913512 -0.355716 -0.0346027 -0.361252 0.0152252 -0.359868 0.0705895 -0.364021 0.127338 -0.365405 0.184086 -0.364021 0.250524 -0.365405 0.305888 -0.362636 0.368173 -0.359868 2.01803 0.3571 -0.315577 0.31004 -0.261597 0.31004 -0.206232 0.31004 -0.159172 0.314193 -0.110729 0.31004 -0.0622849 0.311424 -0.0152252 0.312809 0.0346027 0.305888 0.0747419 0.305888 0.120417 0.304504 0.161941 0.296199 0.20208 0.296199 0.244987 0.290663 0.283742 0.283742 0.321113 0.27959 0.352948 0.272669 0.393087 0.264365 0.422153 0.258828 0.460908 0.246371 0.489974 0.240835 0.517657 0.226994 0.548107 0.218689 0.573021 0.206232 0.600703 0.195159 0.624233 0.181318 0.649147 0.167477 0.66714 0.15502 0.685134 0.139795 0.708664 0.123186 0.726657 0.110729 0.740498 0.0927353 0.758492 0.076126 0 0zm55.1927 1.00902l-0.105192 0.880293 0.0262981 0 -1.73567 -0.0138411 -1.7329 -0.00968876 -1.73844 -0.00415233 -1.73567 -0.00138411 -1.73567 0.00276822 -1.73567 0.00415233 -1.73706 0.00692054 -1.7329 0.00692054 -1.73567 0.00968876 -1.73429 0.00830465 -1.73844 0.00830465 -1.7329 0.00692054 -1.73706 0.00553643 -1.73429 0.00276822 -1.73152 0 -1.73844 -0.00415233 -1.7329 -0.00692054 -1.73844 -0.0138411 -1.73567 -0.0179934 -1.73982 -0.0235298 -1.73567 -0.0304504 -1.73844 -0.038755 -1.73706 -0.0456756 -1.73844 -0.0553643 -1.74121 -0.063669 -1.74121 -0.0733578 -1.73567 -0.0858147 -1.74536 -0.0941194 -1.73844 -0.10796 -1.73982 -0.121802 -1.74398 -0.130106 -1.74121 -0.1481 0.476133 -0.860916 1.69969 0.142563 1.69969 0.130106 1.70384 0.116265 1.70522 0.105192 1.70107 0.0941194 1.71076 0.0830465 1.70522 0.0733578 1.70799 0.0609008 1.71076 0.0553643 1.71214 0.0456756 1.71353 0.038755 1.71629 0.0304504 1.71491 0.0235298 1.71906 0.0179934 1.71906 0.0138411 1.7246 0.00692054 1.72183 0.00415233 1.73152 0 1.72598 -0.00276822 1.72875 -0.00553643 1.7329 -0.00692054 1.73014 -0.00830465 1.73429 -0.00830465 1.73567 -0.00968876 1.74121 -0.00692054 1.73706 -0.00692054 1.74398 -0.00415233 1.74398 -0.00276822 1.74398 0.00138411 1.74675 0.00415233 1.75228 0.00968876 1.75228 0.0138411 0.0262981 0zm-0.0262981 0l0.0525961 0 -0.0262981 0 -0.0262981 0zm100.244 2.37098l-1.15711 0.431842 -99.1658 -1.92253 0.105192 -0.880293 99.1658 1.92253 1.05192 0.448451zm-1.05192 -0.448451l1.07545 0.0207616 -0.0235298 0.42769 -1.05192 -0.448451zm-0.0525961 1.02701l-1.11282 -0.448451 0.00830465 -0.146716 2.20904 0.0166093 -0.00830465 0.146716 -1.09621 0.431842zm1.09621 -0.431842l-0.0235298 0.42769 -1.07268 0.00415233 1.09621 -0.431842zm-138.004 1.04777l0.0955035 -0.878909 136.796 -0.617312 0.0166093 0.880293 -136.796 0.617312 -0.112113 -0.00138411zm0.112113 0.00138411l-0.0678213 0 -0.0442915 -0.00138411 0.112113 0.00138411zm-32.1169 -5.38972l2.07063 -0.307272 0 0 0.372325 0.344643 0.444299 0.328034 0.514888 0.311424 0.58271 0.294815 0.653299 0.27959 0.712816 0.265749 0.773717 0.250524 0.827697 0.236683 0.884445 0.222841 0.930121 0.210385 0.974412 0.195159 1.01594 0.182702 1.04777 0.171629 1.0796 0.157788 1.1059 0.145331 1.1239 0.135643 1.14327 0.125954 1.15573 0.113497 1.15711 0.105192 1.16404 0.0955035 1.1585 0.0858147 1.15573 0.0788942 1.14466 0.0719736 1.12113 0.0650531 1.10867 0.0581326 1.08237 0.0525961 1.04639 0.0484438 1.0187 0.0429074 0.979949 0.0401391 0.934273 0.0359868 0.889982 0.0332186 0.837386 0.0318345 -0.207616 0.877525 -0.837386 -0.0318345 -0.889982 -0.0332186 -0.942578 -0.0359868 -0.988254 -0.0401391 -1.02978 -0.0429074 -1.0713 -0.0484438 -1.09898 -0.0553643 -1.12528 -0.0581326 -1.15711 -0.0650531 -1.16957 -0.0747419 -1.18341 -0.0788942 -1.20002 -0.0913512 -1.20002 -0.0982717 -1.20971 -0.10796 -1.19725 -0.121802 -1.19587 -0.128722 -1.1848 -0.141179 -1.1668 -0.156404 -1.14881 -0.168861 -1.12528 -0.182702 -1.09345 -0.196543 -1.063 -0.214537 -1.02424 -0.229762 -0.981333 -0.247755 -0.938426 -0.267133 -0.887214 -0.289279 -0.826313 -0.307272 -0.764028 -0.329418 -0.696207 -0.350179 -0.620081 -0.375093 -0.538418 -0.397239 -0.449835 -0.422153 0 0zm2.69763 -9.30121l1.36196 0.694823 0 0 -0.543955 0.181318 -0.499663 0.192391 -0.455372 0.196543 -0.41108 0.207616 -0.377862 0.215921 -0.336338 0.222841 -0.30312 0.231146 -0.267133 0.238067 -0.233914 0.246371 -0.20208 0.251908 -0.166093 0.257444 -0.141179 0.264365 -0.109345 0.271285 -0.0816624 0.272669 -0.051212 0.278206 -0.0276822 0.282358 -0.00138411 0.287895 0.024914 0.28651 0.0498279 0.287895 0.0678213 0.290663 0.0899671 0.292047 0.109345 0.289279 0.128722 0.287895 0.145331 0.290663 0.160557 0.285126 0.170245 0.282358 0.189623 0.27959 0.200696 0.276822 0.207616 0.271285 0.220073 0.267133 0.226994 0.260212 0.228378 0.253292 -2.07063 0.307272 -0.247755 -0.267133 -0.235298 -0.274054 -0.228378 -0.280974 -0.224226 -0.285126 -0.209 -0.293431 -0.197928 -0.296199 -0.189623 -0.301736 -0.168861 -0.304504 -0.153636 -0.307272 -0.137027 -0.31004 -0.117649 -0.314193 -0.0982717 -0.314193 -0.076126 -0.315577 -0.0498279 -0.315577 -0.024914 -0.316961 0.00138411 -0.312809 0.0276822 -0.315577 0.0595167 -0.314193 0.0899671 -0.311424 0.125954 -0.307272 0.157788 -0.305888 0.20208 -0.304504 0.235298 -0.296199 0.278206 -0.290663 0.319729 -0.287895 0.364021 -0.278206 0.413848 -0.272669 0.455372 -0.260212 0.507968 -0.254676 0.557796 -0.243603 0.604855 -0.228378 0.654683 -0.220073 0 0zm11.2874 -0.336338l-0.927353 -0.802783 0.48167 0.841538 -0.354332 0.00276822 -0.350179 0.00276822 -0.346027 0.00415233 -0.339107 0.00415233 -0.33357 0.00553643 -0.329418 0.00692054 -0.332186 0.00692054 -0.315577 0.00830465 -0.315577 0.0110729 -0.314193 0.00968876 -0.296199 0.0138411 -0.304504 0.0152252 -0.304504 0.0179934 -0.289279 0.0179934 -0.293431 0.0207616 -0.285126 0.0235298 -0.287895 0.0262981 -0.280974 0.0276822 -0.271285 0.0318345 -0.283742 0.0346027 -0.274054 0.0373709 -0.267133 0.0401391 -0.274054 0.0429074 -0.269901 0.0484438 -0.269901 0.051212 -0.268517 0.0539802 -0.267133 0.0595167 -0.274054 0.0650531 -0.271285 0.0678213 -0.268517 0.0733578 -0.271285 0.0775101 -0.276822 0.0830465 -1.36196 -0.694823 0.321113 -0.0968876 0.323881 -0.0941194 0.329418 -0.0871988 0.323881 -0.0816624 0.323881 -0.076126 0.328034 -0.0733578 0.329418 -0.0678213 0.330802 -0.0622849 0.330802 -0.0567485 0.32665 -0.0539802 0.336338 -0.051212 0.334954 -0.0429074 0.325266 -0.0429074 0.340491 -0.0373709 0.33357 -0.0332186 0.332186 -0.0318345 0.337722 -0.0262981 0.334954 -0.0262981 0.341875 -0.0207616 0.332186 -0.0179934 0.337722 -0.0179934 0.348795 -0.0138411 0.339107 -0.012457 0.343259 -0.0110729 0.348795 -0.00830465 0.340491 -0.00692054 0.348795 -0.00692054 0.350179 -0.00553643 0.355716 -0.00415233 0.354332 -0.00415233 0.358484 -0.00276822 0.362636 -0.00276822 0.48167 0.841538zm-0.48167 -0.841538l5.25961 -0.0401391 -4.77794 0.881677 -0.48167 -0.841538z"/>
   </g>
  </g>
  <path class="fil2" d="M60.1312 269.064c-17.138,0.952267 -13.2044,6.62988 -10.2839,9.53097 5.07829,5.04646 50.513,4.44853 66.5078,4.44853 31.9923,0 67.1708,0 99.1617,0.318345"/>
  <g>
   <g>
    <path class="fil0" d="M163.56 234.161l0 39.0983c0,2.03326 -3.11009,3.69834 -6.91224,3.69834l0 0c-3.80076,0 -6.90947,-1.66508 -6.90947,-3.69834l0 -39.0983c0,-2.03464 3.10871,-3.69834 6.90947,-3.69834l0 0c3.80215,0 6.91224,1.6637 6.91224,3.69834z"/>
    <path id="1" class="fil4" d="M162.896 273.259l0 0 0 -39.0983 1.32874 0 0 39.0983 -1.32874 0zm-6.24787 4.05405l0 -0.711432 0 0 0.321113 -0.00276822 0.315577 -0.0138411 0.311424 -0.0207616 0.305888 -0.0304504 0.304504 -0.0373709 0.297583 -0.0456756 0.28651 -0.0525961 0.282358 -0.0595167 0.276822 -0.0678213 0.272669 -0.0747419 0.258828 -0.0788942 0.253292 -0.0871988 0.244987 -0.0955035 0.239451 -0.0982717 0.224226 -0.103808 0.217305 -0.110729 0.209 -0.117649 0.196543 -0.121802 0.188239 -0.125954 0.171629 -0.13149 0.164709 -0.135643 0.150868 -0.139795 0.138411 -0.145331 0.125954 -0.1481 0.110729 -0.150868 0.0996558 -0.15502 0.0844306 -0.157788 0.0705895 -0.160557 0.0525961 -0.164709 0.0415233 -0.167477 0.0235298 -0.168861 0.00692054 -0.171629 1.32874 0 -0.012457 0.207616 -0.0290663 0.204848 -0.0470597 0.200696 -0.0692054 0.200696 -0.0844306 0.196543 -0.10104 0.191007 -0.119033 0.188239 -0.138411 0.184086 -0.150868 0.17855 -0.168861 0.175782 -0.184086 0.170245 -0.195159 0.163325 -0.213153 0.159172 -0.224226 0.153636 -0.238067 0.146716 -0.250524 0.139795 -0.264365 0.135643 -0.276822 0.128722 -0.283742 0.120417 -0.297583 0.112113 -0.305888 0.106576 -0.319729 0.0982717 -0.325266 0.0885829 -0.334954 0.0816624 -0.343259 0.0733578 -0.355716 0.063669 -0.358484 0.0539802 -0.362636 0.0456756 -0.372325 0.0359868 -0.377862 0.0262981 -0.384782 0.0166093 -0.38755 0.00553643 0 0zm0 -0.711432l0 0.355716 0 0 0 0 0 0 0 -0.355716zm-7.57384 -3.34262l1.32874 0 0 0 0.00692054 0.171629 0.0235298 0.168861 0.0415233 0.167477 0.0525961 0.164709 0.0705895 0.160557 0.0844306 0.157788 0.0996558 0.15502 0.110729 0.150868 0.125954 0.1481 0.139795 0.145331 0.1481 0.139795 0.161941 0.135643 0.175782 0.13149 0.186855 0.125954 0.197928 0.121802 0.207616 0.117649 0.217305 0.110729 0.224226 0.103808 0.239451 0.0982717 0.244987 0.0955035 0.253292 0.0871988 0.258828 0.0788942 0.272669 0.0747419 0.276822 0.0678213 0.282358 0.0595167 0.289279 0.0525961 0.296199 0.0456756 0.301736 0.0373709 0.305888 0.0304504 0.311424 0.0207616 0.315577 0.0138411 0.321113 0.00276822 0 0.711432 -0.38755 -0.00553643 -0.384782 -0.0166093 -0.377862 -0.0262981 -0.372325 -0.0359868 -0.365405 -0.0456756 -0.3571 -0.0539802 -0.352948 -0.063669 -0.343259 -0.0733578 -0.334954 -0.0816624 -0.325266 -0.0885829 -0.319729 -0.0982717 -0.305888 -0.106576 -0.297583 -0.112113 -0.283742 -0.120417 -0.276822 -0.128722 -0.264365 -0.135643 -0.24914 -0.139795 -0.239451 -0.146716 -0.222841 -0.153636 -0.211769 -0.159172 -0.197928 -0.163325 -0.184086 -0.170245 -0.167477 -0.175782 -0.150868 -0.17855 -0.138411 -0.184086 -0.119033 -0.188239 -0.10104 -0.191007 -0.0844306 -0.196543 -0.0692054 -0.200696 -0.0470597 -0.200696 -0.0290663 -0.204848 -0.012457 -0.207616 0 0zm1.32874 -39.0983l0 0 0 39.0983 -1.32874 0 0 -39.0983 1.32874 0zm6.2451 -4.05405l0 0.711432 0 0 -0.321113 0.00276822 -0.315577 0.0138411 -0.311424 0.0207616 -0.307272 0.0304504 -0.300352 0.0359868 -0.293431 0.0470597 -0.292047 0.0525961 -0.285126 0.0595167 -0.274054 0.0664372 -0.269901 0.0747419 -0.261597 0.0802783 -0.253292 0.0871988 -0.244987 0.0955035 -0.239451 0.0982717 -0.224226 0.103808 -0.217305 0.110729 -0.207616 0.117649 -0.197928 0.121802 -0.186855 0.125954 -0.175782 0.13149 -0.161941 0.135643 -0.149484 0.139795 -0.138411 0.143947 -0.125954 0.146716 -0.110729 0.153636 -0.0996558 0.15502 -0.0844306 0.157788 -0.0705895 0.160557 -0.0525961 0.163325 -0.0415233 0.167477 -0.0235298 0.170245 -0.00692054 0.171629 -1.32874 0 0.012457 -0.207616 0.0290663 -0.203464 0.0470597 -0.203464 0.0692054 -0.199312 0.0844306 -0.196543 0.10104 -0.191007 0.119033 -0.188239 0.138411 -0.184086 0.150868 -0.179934 0.168861 -0.174398 0.182702 -0.170245 0.197928 -0.163325 0.211769 -0.159172 0.222841 -0.153636 0.239451 -0.146716 0.24914 -0.139795 0.264365 -0.135643 0.276822 -0.128722 0.283742 -0.120417 0.297583 -0.112113 0.305888 -0.106576 0.316961 -0.0968876 0.328034 -0.0913512 0.337722 -0.0802783 0.340491 -0.0733578 0.350179 -0.063669 0.359868 -0.0553643 0.366789 -0.0442915 0.370941 -0.0359868 0.377862 -0.0262981 0.384782 -0.0166093 0.38755 -0.00553643 0 0zm0 0.711432l0 -0.355716 0 0 0 0 0 0 0 0.355716zm7.57661 3.34262l-1.32874 0 0 0 -0.00692054 -0.171629 -0.0235298 -0.170245 -0.0415233 -0.167477 -0.0525961 -0.163325 -0.0705895 -0.160557 -0.0844306 -0.157788 -0.0996558 -0.15502 -0.110729 -0.153636 -0.125954 -0.146716 -0.138411 -0.143947 -0.150868 -0.139795 -0.164709 -0.135643 -0.171629 -0.13149 -0.188239 -0.125954 -0.196543 -0.121802 -0.209 -0.117649 -0.217305 -0.110729 -0.224226 -0.103808 -0.239451 -0.0982717 -0.244987 -0.0955035 -0.253292 -0.0871988 -0.261597 -0.0802783 -0.269901 -0.0747419 -0.274054 -0.0664372 -0.285126 -0.0595167 -0.289279 -0.0525961 -0.294815 -0.0470597 -0.30312 -0.0359868 -0.307272 -0.0304504 -0.311424 -0.0207616 -0.315577 -0.0138411 -0.321113 -0.00276822 0 -0.711432 0.38755 0.00553643 0.384782 0.0166093 0.377862 0.0262981 0.370941 0.0359868 0.364021 0.0442915 0.361252 0.0553643 0.352948 0.063669 0.340491 0.0733578 0.337722 0.0802783 0.328034 0.0913512 0.316961 0.0968876 0.305888 0.106576 0.297583 0.112113 0.283742 0.120417 0.276822 0.128722 0.264365 0.135643 0.250524 0.139795 0.238067 0.146716 0.224226 0.153636 0.213153 0.159172 0.195159 0.163325 0.184086 0.170245 0.168861 0.174398 0.150868 0.179934 0.138411 0.184086 0.119033 0.188239 0.10104 0.191007 0.0844306 0.196543 0.0692054 0.199312 0.0470597 0.203464 0.0290663 0.203464 0.012457 0.207616 0 0z"/>
   </g>
   <g>
    <g>
     <path class="fil1" d="M163.686 233.71c-0.710048,-0.822161 -1.28722,-1.77166 -2.95646,-2.16751 -3.55716,-0.84569 -7.55031,0.46506 -8.32541,2.34883 -1.61664,3.91841 -0.83877,7.84928 -1.0187,11.8217l-1.92253 21.1699 -0.1481 -0.00138411 -0.615928 -29.2033c0.32665,-1.84086 0.901055,-5.79388 5.10182,-6.63403 2.74192,-0.546723 6.72538,-0.921816 8.80155,0.501047 0.99379,0.679597 1.05607,1.34259 1.08376,2.16475z"/>
     <path id="1" class="fil5" d="M160.551 231.758l0.3571 -0.431842 0 0 0.171629 0.0429074 0.166093 0.0484438 0.159172 0.051212 0.150868 0.051212 0.146716 0.0567485 0.142563 0.0609008 0.13149 0.0622849 0.125954 0.063669 0.123186 0.0650531 0.117649 0.0705895 0.112113 0.0705895 0.10796 0.0719736 0.10104 0.0733578 0.0968876 0.0747419 0.0941194 0.076126 0.0913512 0.0775101 0.0844306 0.0788942 0.0816624 0.0775101 0.0816624 0.0788942 0.0788942 0.0816624 0.0733578 0.0802783 0.0719736 0.0788942 0.0733578 0.0816624 0.0678213 0.0788942 0.0692054 0.0802783 0.0678213 0.0816624 0.0650531 0.0816624 0.063669 0.076126 0.0664372 0.0788942 0.0650531 0.0788942 0.0650531 0.0775101 0.0650531 0.0747419 -0.802783 0.199312 -0.0678213 -0.0802783 -0.0650531 -0.0775101 -0.0650531 -0.0788942 -0.0664372 -0.0788942 -0.0664372 -0.0816624 -0.0650531 -0.0788942 -0.0650531 -0.076126 -0.0664372 -0.0775101 -0.0678213 -0.0788942 -0.0650531 -0.076126 -0.0692054 -0.076126 -0.0705895 -0.0747419 -0.0705895 -0.0733578 -0.0705895 -0.0705895 -0.076126 -0.0719736 -0.0788942 -0.0705895 -0.0775101 -0.0664372 -0.0802783 -0.0650531 -0.0830465 -0.063669 -0.0871988 -0.0622849 -0.0885829 -0.0609008 -0.0927353 -0.0595167 -0.0927353 -0.0539802 -0.0982717 -0.0539802 -0.103808 -0.0525961 -0.106576 -0.0484438 -0.106576 -0.0470597 -0.113497 -0.0429074 -0.120417 -0.0429074 -0.123186 -0.0401391 -0.127338 -0.0346027 -0.135643 -0.0346027 0 0zm-7.71641 2.18412l-0.860916 -0.102424 -0.00138411 0 0.0885829 -0.186855 0.10796 -0.184086 0.125954 -0.179934 0.145331 -0.175782 0.161941 -0.170245 0.177166 -0.163325 0.195159 -0.160557 0.209 -0.152252 0.222841 -0.1481 0.236683 -0.141179 0.247755 -0.132874 0.264365 -0.127338 0.271285 -0.117649 0.285126 -0.113497 0.293431 -0.103808 0.304504 -0.0955035 0.312809 -0.0871988 0.321113 -0.0788942 0.329418 -0.0692054 0.336338 -0.0609008 0.340491 -0.0498279 0.350179 -0.0401391 0.351564 -0.0290663 0.3571 -0.0193775 0.3571 -0.00692054 0.361252 0.00276822 0.365405 0.0138411 0.365405 0.0290663 0.362636 0.038755 0.365405 0.0525961 0.362636 0.0650531 0.359868 0.0788942 -0.3571 0.431842 -0.31004 -0.0678213 -0.31004 -0.0567485 -0.31004 -0.0442915 -0.312809 -0.0332186 -0.312809 -0.0235298 -0.307272 -0.0138411 -0.311424 -0.00276822 -0.31004 0.00692054 -0.304504 0.0166093 -0.304504 0.0262981 -0.297583 0.0346027 -0.296199 0.0442915 -0.289279 0.0498279 -0.285126 0.0609008 -0.27959 0.0678213 -0.271285 0.076126 -0.265749 0.0844306 -0.257444 0.0899671 -0.246371 0.0968876 -0.240835 0.106576 -0.228378 0.110729 -0.217305 0.116265 -0.206232 0.121802 -0.195159 0.128722 -0.181318 0.132874 -0.167477 0.138411 -0.15502 0.143947 -0.139795 0.145331 -0.123186 0.150868 -0.109345 0.15502 -0.0941194 0.159172 -0.0747419 0.161941 -0.00138411 0zm-1.00902 11.7815l-0.880293 -0.0221457 0 0.00553643 0.0138411 -0.370941 0.00968876 -0.369557 0.00415233 -0.370941 0.00138411 -0.370941 -0.00276822 -0.369557 -0.00415233 -0.370941 -0.00692054 -0.370941 -0.00692054 -0.369557 -0.00968876 -0.370941 -0.00830465 -0.369557 -0.00830465 -0.372325 -0.00692054 -0.369557 -0.00553643 -0.369557 -0.00276822 -0.370941 0 -0.369557 0.00415233 -0.370941 0.00692054 -0.370941 0.0138411 -0.369557 0.0179934 -0.372325 0.0235298 -0.370941 0.0304504 -0.369557 0.038755 -0.372325 0.0456756 -0.370941 0.0553643 -0.370941 0.063669 -0.372325 0.0733578 -0.369557 0.0858147 -0.370941 0.0941194 -0.372325 0.10796 -0.372325 0.121802 -0.370941 0.130106 -0.372325 0.1481 -0.372325 0.860916 0.102424 -0.142563 0.361252 -0.130106 0.364021 -0.116265 0.362636 -0.105192 0.364021 -0.0941194 0.364021 -0.0830465 0.365405 -0.0733578 0.364021 -0.0609008 0.364021 -0.0553643 0.365405 -0.0456756 0.365405 -0.038755 0.366789 -0.0304504 0.366789 -0.0235298 0.365405 -0.0179934 0.366789 -0.0138411 0.366789 -0.00692054 0.368173 -0.00415233 0.368173 0 0.369557 0.00276822 0.368173 0.00553643 0.369557 0.00692054 0.369557 0.00830465 0.369557 0.00830465 0.369557 0.00968876 0.370941 0.00692054 0.372325 0.00692054 0.370941 0.00415233 0.370941 0.00276822 0.372325 -0.00138411 0.373709 -0.00415233 0.370941 -0.00968876 0.375093 -0.0138411 0.373709 0 0.00553643zm0 -0.00553643l0 0.0110729 0 -0.00553643 0 -0.00553643zm-2.36959 21.3997l-0.433226 -0.246371 1.92253 -21.1699 0.880293 0.0221457 -1.92253 21.1699 -0.447067 0.224226zm0.447067 -0.224226l-0.0207616 0.228378 -0.426305 -0.00415233 0.447067 -0.224226zm-1.02839 -0.0110729l0.447067 -0.236683 0.1481 0.00138411 -0.0138411 0.470597 -0.1481 -0.00138411 -0.433226 -0.233914zm0.433226 0.233914l-0.42769 -0.00415233 -0.00553643 -0.229762 0.433226 0.233914zm-1.04777 -29.4608l0.878909 0.0207616 0.615928 29.2033 -0.880293 0.00276822 -0.615928 -29.2033 0.00138411 -0.0235298zm-0.00138411 0.0235298l0 -0.0138411 0.00138411 -0.00968876 -0.00138411 0.0235298zm5.38833 -6.85687l0.307272 0.442915 0 0 -0.344643 0.0788942 -0.328034 0.0941194 -0.311424 0.110729 -0.294815 0.125954 -0.27959 0.138411 -0.264365 0.152252 -0.250524 0.166093 -0.236683 0.175782 -0.222841 0.189623 -0.210385 0.197928 -0.196543 0.209 -0.182702 0.217305 -0.170245 0.221457 -0.157788 0.231146 -0.1481 0.235298 -0.134259 0.240835 -0.125954 0.244987 -0.112113 0.244987 -0.105192 0.247755 -0.0955035 0.24914 -0.0885829 0.247755 -0.0775101 0.244987 -0.0705895 0.244987 -0.0650531 0.239451 -0.0595167 0.236683 -0.051212 0.229762 -0.0484438 0.224226 -0.0429074 0.217305 -0.0401391 0.210385 -0.0359868 0.199312 -0.0332186 0.189623 -0.0318345 0.17855 -0.877525 -0.0442915 0.0318345 -0.17855 0.0332186 -0.189623 0.0359868 -0.20208 0.0401391 -0.210385 0.0429074 -0.220073 0.0484438 -0.226994 0.0539802 -0.235298 0.0595167 -0.242219 0.0650531 -0.244987 0.0733578 -0.250524 0.0830465 -0.253292 0.0885829 -0.25606 0.0982717 -0.254676 0.10796 -0.258828 0.120417 -0.25606 0.128722 -0.25606 0.145331 -0.251908 0.153636 -0.24914 0.168861 -0.244987 0.181318 -0.240835 0.199312 -0.233914 0.213153 -0.22561 0.229762 -0.220073 0.247755 -0.209 0.267133 -0.200696 0.28651 -0.188239 0.308656 -0.177166 0.329418 -0.163325 0.350179 -0.1481 0.375093 -0.132874 0.397239 -0.116265 0.422153 -0.0955035 0 0zm9.30259 0.577173l-0.694823 0.290663 0 0 -0.181318 -0.116265 -0.192391 -0.106576 -0.196543 -0.0968876 -0.207616 -0.0885829 -0.215921 -0.0802783 -0.222841 -0.0719736 -0.231146 -0.063669 -0.238067 -0.0581326 -0.246371 -0.0498279 -0.253292 -0.0429074 -0.25606 -0.0359868 -0.264365 -0.0290663 -0.271285 -0.0235298 -0.274054 -0.0179934 -0.276822 -0.0110729 -0.283742 -0.00692054 -0.285126 0 -0.28651 0.00553643 -0.290663 0.0110729 -0.290663 0.0152252 -0.292047 0.0179934 -0.287895 0.0235298 -0.292047 0.0276822 -0.28651 0.0304504 -0.283742 0.0346027 -0.285126 0.038755 -0.27959 0.0373709 -0.276822 0.0442915 -0.271285 0.0429074 -0.267133 0.0484438 -0.260212 0.0470597 -0.253292 0.0498279 -0.307272 -0.442915 0.267133 -0.0525961 0.274054 -0.0498279 0.280974 -0.0484438 0.285126 -0.0484438 0.293431 -0.0442915 0.296199 -0.0429074 0.298967 -0.038755 0.305888 -0.0373709 0.311424 -0.0332186 0.308656 -0.0276822 0.312809 -0.0262981 0.314193 -0.0207616 0.315577 -0.0152252 0.315577 -0.0110729 0.316961 -0.00553643 0.315577 0 0.314193 0.00692054 0.312809 0.0110729 0.312809 0.0207616 0.307272 0.0262981 0.305888 0.0346027 0.30312 0.0415233 0.297583 0.051212 0.290663 0.0581326 0.287895 0.0692054 0.278206 0.0775101 0.272669 0.0885829 0.260212 0.0968876 0.254676 0.10796 0.243603 0.119033 0.228378 0.128722 0.220073 0.141179 0 0zm0.334954 2.40973l0.802783 -0.199312 -0.841538 0.103808 -0.00276822 -0.076126 -0.00276822 -0.0747419 -0.00415233 -0.0733578 -0.00415233 -0.0733578 -0.00553643 -0.0705895 -0.00553643 -0.0733578 -0.00692054 -0.0664372 -0.00968876 -0.0692054 -0.00968876 -0.0678213 -0.0110729 -0.0650531 -0.0138411 -0.0664372 -0.0138411 -0.0650531 -0.0179934 -0.063669 -0.0193775 -0.0609008 -0.0193775 -0.063669 -0.024914 -0.0609008 -0.024914 -0.0595167 -0.0290663 -0.0609008 -0.0318345 -0.0595167 -0.0332186 -0.0595167 -0.038755 -0.0581326 -0.038755 -0.0581326 -0.0429074 -0.0567485 -0.0498279 -0.0567485 -0.051212 -0.0581326 -0.0553643 -0.0581326 -0.0581326 -0.0581326 -0.063669 -0.0567485 -0.0678213 -0.0581326 -0.0733578 -0.0567485 -0.0775101 -0.0581326 -0.0830465 -0.0595167 0.694823 -0.290663 0.0968876 0.0678213 0.0941194 0.0692054 0.0871988 0.0705895 0.0816624 0.0692054 0.0775101 0.0705895 0.0719736 0.0692054 0.0664372 0.0692054 0.0622849 0.0692054 0.0581326 0.0705895 0.0539802 0.0733578 0.0498279 0.0692054 0.0442915 0.0719736 0.0415233 0.0705895 0.0373709 0.0705895 0.0346027 0.0719736 0.0304504 0.0705895 0.0276822 0.0719736 0.024914 0.0719736 0.0221457 0.0719736 0.0179934 0.0747419 0.0166093 0.0705895 0.0138411 0.0719736 0.0138411 0.0733578 0.00968876 0.0733578 0.00968876 0.0719736 0.00692054 0.0775101 0.00553643 0.0733578 0.00553643 0.0733578 0.00415233 0.076126 0.00415233 0.076126 0.00276822 0.0775101 0.00276822 0.076126 -0.841538 0.103808zm0.841538 -0.103808l0.0373709 1.12251 -0.878909 -1.0187 0.841538 -0.103808z"/>
    </g>
   </g>
   <path class="fil2" d="M163.686 233.71c-0.953651,-3.6582 -6.62988,-2.81943 -9.53236,-2.1952 -5.04508,1.08376 -4.44853,10.7836 -4.44853,14.1982 0,6.82919 0,14.3394 -0.316961,21.1686"/>
  </g>
  <g>
   <path class="fil6 str3" d="M175.234 273.265c0,11.149 -8.95795,20.19 -20.0073,20.19 -11.0424,0 -20.0004,-9.041 -20.0004,-20.19 -0.728041,-10.9054 8.22991,-19.9367 20.0004,-20.1803 11.0493,0 20.0073,9.03131 20.0073,20.1803z"/>
   <g>
    <path class="fil1 str4" d="M141.279 258.47c6.66587,-7.41605 20.1623,-8.94411 27.8607,-2.1426 7.02158,6.20081 8.53718,17.5007 4.83608,25.8648 -1.36196,3.07826 -3.48795,5.94336 -6.35721,7.78007 -2.00142,1.28168 -4.38347,1.69692 -6.67279,2.33499l-0.0650531 -0.294815c4.03883,-2.06094 7.36899,-3.8063 9.68738,-7.92264 3.99039,-7.0811 2.99383,-16.7616 -1.66231,-23.2973 -6.5676,-9.21816 -18.9221,-7.12539 -27.6268,-2.32253z"/>
   </g>
   <path class="fil2" d="M141.279 258.47c2.83881,-3.65128 13.9643,-5.8271 18.0239,-5.24716 18.8003,2.6824 20.9471,34.6304 1.6111,38.9364"/>
  </g>
 </g>
</svg>
