<?xml version="1.0" encoding="UTF-8" standalone="no"?>
<!-- Created with Inkscape (http://www.inkscape.org/) -->

<svg
   xmlns:dc="http://purl.org/dc/elements/1.1/"
   xmlns:cc="http://creativecommons.org/ns#"
   xmlns:rdf="http://www.w3.org/1999/02/22-rdf-syntax-ns#"
   xmlns:svg="http://www.w3.org/2000/svg"
   xmlns="http://www.w3.org/2000/svg"
   xmlns:sodipodi="http://sodipodi.sourceforge.net/DTD/sodipodi-0.dtd"
   xmlns:inkscape="http://www.inkscape.org/namespaces/inkscape"
   width="256"
   height="256"
   id="svg2"
   version="1.1"
   inkscape:version="0.48.3.1 r9886"
   sodipodi:docname="folder-remote.svg">
  <defs
     id="defs4"><style
   id="style2991"
   type="text/css">
   
    .str3 {stroke:#1F1A17;stroke-width:1.05469}
    .str1 {stroke:#72706F;stroke-width:2.44157}
    .str2 {stroke:#1F1A17;stroke-width:2.76822}
    .str0 {stroke:#72706F;stroke-width:4.15233}
    .fil3 {fill:none}
    .fil1 {fill:#00923F}
    .fil2 {fill:#1F1A17}
    .fil0 {fill:#B8DB7C}
   
  </style>
<style
   id="style3081"
   type="text/css">
   
    .str1 {stroke:#1F1A17;stroke-width:2.76822}
    .str0 {stroke:#72706F;stroke-width:4.15233}
    .fil1 {fill:none}
    .fil3 {fill:#00923F}
    .fil2 {fill:#1F1A17}
    .fil0 {fill:#B8DB7C}
   
  </style>
<style
   id="style3135"
   type="text/css">
   
    .str1 {stroke:#1F1A17;stroke-width:2.76822}
    .str0 {stroke:#72706F;stroke-width:4.15233}
    .fil1 {fill:none}
    .fil3 {fill:#00923F}
    .fil2 {fill:#1F1A17}
    .fil0 {fill:#B8DB7C}
   
  </style>
<style
   id="style3203"
   type="text/css">
   
    .str1 {stroke:#1F1A17;stroke-width:1.38411}
    .str2 {stroke:#1F1A17;stroke-width:2.76822}
    .str0 {stroke:#72706F;stroke-width:4.15233}
    .str4 {stroke:#1F1A17;stroke-width:0.895518}
    .str3 {stroke:#72706F;stroke-width:1.34259}
    .fil2 {fill:none}
    .fil0 {fill:#00923F}
    .fil1 {fill:#1F1A17}
    .fil3 {fill:#B8DB7C}
    .fil5 {fill:#1F1A17;fill-rule:nonzero}
    .fil4 {fill:#72706F;fill-rule:nonzero}
    .fil6 {fill:#B8DB7C;fill-rule:nonzero}
   
  </style>
<style
   id="style3319"
   type="text/css">
   
    .str1 {stroke:#1F1A17;stroke-width:1.38411}
    .str2 {stroke:#1F1A17;stroke-width:2.76822}
    .str0 {stroke:#72706F;stroke-width:4.15233}
    .str4 {stroke:#1F1A17;stroke-width:0.895518}
    .str3 {stroke:#72706F;stroke-width:1.34259}
    .fil2 {fill:none}
    .fil0 {fill:#00923F}
    .fil1 {fill:#1F1A17}
    .fil3 {fill:#B8DB7C}
    .fil5 {fill:#1F1A17;fill-rule:nonzero}
    .fil4 {fill:#72706F;fill-rule:nonzero}
    .fil6 {fill:#B8DB7C;fill-rule:nonzero}
   
  </style>
<style
   id="style3435"
   type="text/css">
   
    .str1 {stroke:#1F1A17;stroke-width:2.76822}
    .str0 {stroke:#72706F;stroke-width:4.15233}
    .fil1 {fill:none}
    .fil3 {fill:#00923F}
    .fil2 {fill:#1F1A17}
    .fil0 {fill:#B8DB7C}
   
  </style>
<style
   id="style3502"
   type="text/css">
   
    .str3 {stroke:#1F1A17;stroke-width:1.05469}
    .str1 {stroke:#72706F;stroke-width:2.44157}
    .str2 {stroke:#1F1A17;stroke-width:2.76822}
    .str0 {stroke:#72706F;stroke-width:4.15233}
    .fil3 {fill:none}
    .fil1 {fill:#00923F}
    .fil2 {fill:#1F1A17}
    .fil0 {fill:#B8DB7C}
   
  </style>
<style
   id="style3592"
   type="text/css">
   
    .str1 {stroke:#1F1A17;stroke-width:2.76822}
    .str0 {stroke:#72706F;stroke-width:4.15233}
    .fil1 {fill:none}
    .fil3 {fill:#00923F}
    .fil2 {fill:#1F1A17}
    .fil0 {fill:#B8DB7C}
   
  </style>
<style
   id="style3646"
   type="text/css">
   
    .str1 {stroke:#1F1A17;stroke-width:2.76822}
    .str0 {stroke:#72706F;stroke-width:4.15233}
    .fil1 {fill:none}
    .fil3 {fill:#00923F}
    .fil2 {fill:#1F1A17}
    .fil0 {fill:#B8DB7C}
   
  </style>
<style
   id="style3714"
   type="text/css">
   
    .str3 {stroke:#1F1A17;stroke-width:1.05469}
    .str1 {stroke:#72706F;stroke-width:2.44157}
    .str2 {stroke:#1F1A17;stroke-width:2.76822}
    .str0 {stroke:#72706F;stroke-width:4.15233}
    .fil3 {fill:none}
    .fil1 {fill:#00923F}
    .fil2 {fill:#1F1A17}
    .fil0 {fill:#B8DB7C}
   
  </style>
<style
   id="style3804"
   type="text/css">
   
    .str1 {stroke:#1F1A17;stroke-width:2.76822}
    .str0 {stroke:#72706F;stroke-width:4.15233}
    .fil1 {fill:none}
    .fil3 {fill:#00923F}
    .fil2 {fill:#1F1A17}
    .fil0 {fill:#B8DB7C}
   
  </style>
<style
   id="style3858"
   type="text/css">
   
    .str1 {stroke:#1F1A17;stroke-width:2.76822}
    .str0 {stroke:#72706F;stroke-width:4.15233}
    .fil1 {fill:none}
    .fil3 {fill:#00923F}
    .fil2 {fill:#1F1A17}
    .fil0 {fill:#B8DB7C}
   
  </style>
<style
   id="style3926"
   type="text/css">
   
    .str2 {stroke:#1F1A17;stroke-width:1.05469}
    .str3 {stroke:#1F1A17;stroke-width:1.38411}
    .str1 {stroke:#1F1A17;stroke-width:2.76822}
    .str0 {stroke:#72706F;stroke-width:4.15233}
    .fil0 {fill:none}
    .fil3 {fill:#00923F}
    .fil1 {fill:#1F1A17}
    .fil2 {fill:#B8DB7C}
   
  </style>
<style
   id="style3998"
   type="text/css">
   
    .str1 {stroke:#1F1A17;stroke-width:2.76822}
    .str0 {stroke:#72706F;stroke-width:4.15233}
    .fil2 {fill:none}
    .fil3 {fill:#00923F}
    .fil1 {fill:#1F1A17}
    .fil0 {fill:#B8DB7C}
   
  </style>
<style
   id="style4042"
   type="text/css">
   
    .str1 {stroke:#1F1A17;stroke-width:2.76822}
    .str0 {stroke:#72706F;stroke-width:4.15233}
    .fil2 {fill:none}
    .fil3 {fill:#00923F}
    .fil1 {fill:#1F1A17}
    .fil0 {fill:#B8DB7C}
   
  </style>
<style
   id="style4086"
   type="text/css">
   
    .str1 {stroke:#1F1A17;stroke-width:2.34375}
    .str0 {stroke:#72706F;stroke-width:3.51563}
    .fil3 {fill:none}
    .fil2 {fill:#1F1A17}
    .fil0 {fill:#00923F;fill-rule:nonzero}
    .fil1 {fill:#B8DB7C;fill-rule:nonzero}
   
  </style>
<style
   id="style4130"
   type="text/css">
   
    .str1 {stroke:#1F1A17;stroke-width:2.76822}
    .str0 {stroke:#72706F;stroke-width:4.15233}
    .fil2 {fill:none}
    .fil3 {fill:#00923F}
    .fil1 {fill:#1F1A17}
    .fil0 {fill:#B8DB7C}
   
  </style>
<style
   id="style4181"
   type="text/css">
   
    .str1 {stroke:#1F1A17;stroke-width:2.76822}
    .str0 {stroke:#72706F;stroke-width:4.15233}
    .fil2 {fill:none}
    .fil3 {fill:#00923F}
    .fil1 {fill:#1F1A17}
    .fil0 {fill:#B8DB7C}
   
  </style>
<style
   id="style4232"
   type="text/css">
   
    .str0 {stroke:#1F1A17;stroke-width:1.84225}
    .str1 {stroke:#72706F;stroke-width:2.76406}
    .fil3 {fill:none}
    .fil4 {fill:#00923F}
    .fil2 {fill:#1F1A17}
    .fil0 {fill:#B8DB7C}
    .fil1 {fill:#72706F;fill-rule:nonzero}
   
  </style>
<style
   id="style4418"
   type="text/css">
   
    .str0 {stroke:#1F1A17;stroke-width:1.84225}
    .str1 {stroke:#72706F;stroke-width:2.76406}
    .fil3 {fill:none}
    .fil4 {fill:#00923F}
    .fil2 {fill:#1F1A17}
    .fil0 {fill:#B8DB7C}
    .fil1 {fill:#72706F;fill-rule:nonzero}
   
  </style>
<style
   id="style4604"
   type="text/css">
   
    .str0 {stroke:#1F1A17;stroke-width:1.84225}
    .str1 {stroke:#72706F;stroke-width:2.76406}
    .fil3 {fill:none}
    .fil4 {fill:#00923F}
    .fil2 {fill:#1F1A17}
    .fil0 {fill:#B8DB7C}
    .fil1 {fill:#72706F;fill-rule:nonzero}
   
  </style>
<style
   id="style4790"
   type="text/css">
   
    .str0 {stroke:#1F1A17;stroke-width:1.84225}
    .str1 {stroke:#72706F;stroke-width:2.76406}
    .fil3 {fill:none}
    .fil4 {fill:#00923F}
    .fil2 {fill:#1F1A17}
    .fil0 {fill:#B8DB7C}
    .fil1 {fill:#72706F;fill-rule:nonzero}
   
  </style>
<style
   id="style4976"
   type="text/css">
   
    .str1 {stroke:#1F1A17;stroke-width:2.76822}
    .str0 {stroke:#72706F;stroke-width:4.15233}
    .fil2 {fill:none}
    .fil3 {fill:#00923F}
    .fil1 {fill:#1F1A17}
    .fil0 {fill:#B8DB7C}
   
  </style>
<style
   id="style5094"
   type="text/css">
   
    .str1 {stroke:#1F1A17;stroke-width:2.76822}
    .str0 {stroke:#72706F;stroke-width:4.15233}
    .fil2 {fill:none}
    .fil3 {fill:#00923F}
    .fil1 {fill:#1F1A17}
    .fil0 {fill:#B8DB7C}
   
  </style>
<style
   id="style5138"
   type="text/css">
   
    .str1 {stroke:#1F1A17;stroke-width:2.76822}
    .str0 {stroke:#72706F;stroke-width:4.15233}
    .fil2 {fill:none}
    .fil3 {fill:#00923F}
    .fil1 {fill:#1F1A17}
    .fil0 {fill:#B8DB7C}
   
  </style>
<style
   id="style5252"
   type="text/css">
   
    .str2 {stroke:#1F1A17;stroke-width:1.05469}
    .str1 {stroke:#1F1A17;stroke-width:2.76822}
    .str0 {stroke:#72706F;stroke-width:4.15233}
    .fil2 {fill:none}
    .fil3 {fill:#00923F}
    .fil1 {fill:#1F1A17}
    .fil0 {fill:#B8DB7C}
   
  </style>
<style
   id="style5323"
   type="text/css">
   
    .str1 {stroke:#1F1A17;stroke-width:2.76822}
    .str0 {stroke:#72706F;stroke-width:4.15233}
    .fil2 {fill:none}
    .fil3 {fill:#00923F}
    .fil1 {fill:#1F1A17}
    .fil0 {fill:#B8DB7C}
   
  </style>
<style
   id="style5553"
   type="text/css">
   
    .str1 {stroke:#1F1A17;stroke-width:1.38411}
    .str2 {stroke:#1F1A17;stroke-width:2.76822}
    .str0 {stroke:#72706F;stroke-width:4.15233}
    .str4 {stroke:#1F1A17;stroke-width:0.895518}
    .str3 {stroke:#72706F;stroke-width:1.34259}
    .fil2 {fill:none}
    .fil0 {fill:#00923F}
    .fil1 {fill:#1F1A17}
    .fil3 {fill:#B8DB7C}
    .fil5 {fill:#1F1A17;fill-rule:nonzero}
    .fil4 {fill:#72706F;fill-rule:nonzero}
    .fil6 {fill:#B8DB7C;fill-rule:nonzero}
   
  </style>

 <style
   id="style6017"
   type="text/css">
   
    .str1 {stroke:#1F1A17;stroke-width:1.38411}
    .str2 {stroke:#1F1A17;stroke-width:2.76822}
    .str0 {stroke:#72706F;stroke-width:4.15233}
    .str4 {stroke:#1F1A17;stroke-width:0.895518}
    .str3 {stroke:#72706F;stroke-width:1.34259}
    .fil2 {fill:none}
    .fil0 {fill:#00923F}
    .fil1 {fill:#1F1A17}
    .fil3 {fill:#B8DB7C}
    .fil5 {fill:#1F1A17;fill-rule:nonzero}
    .fil4 {fill:#72706F;fill-rule:nonzero}
    .fil6 {fill:#B8DB7C;fill-rule:nonzero}
   
  </style>

  </defs>
  <sodipodi:namedview
     id="base"
     pagecolor="#ffffff"
     bordercolor="#666666"
     borderopacity="1.0"
     inkscape:pageopacity="0.0"
     inkscape:pageshadow="2"
     inkscape:zoom="1.283147"
     inkscape:cx="410.35056"
     inkscape:cy="-1.1757896"
     inkscape:document-units="px"
     inkscape:current-layer="layer1"
     showgrid="false"
     showguides="true"
     inkscape:guide-bbox="true"
     inkscape:window-width="1920"
     inkscape:window-height="1050"
     inkscape:window-x="-4"
     inkscape:window-y="-4"
     inkscape:window-maximized="1" />
  <metadata
     id="metadata7">
    <rdf:RDF>
      <cc:Work
         rdf:about="">
        <dc:format>image/svg+xml</dc:format>
        <dc:type
           rdf:resource="http://purl.org/dc/dcmitype/StillImage" />
        <dc:title></dc:title>
      </cc:Work>
    </rdf:RDF>
  </metadata>
  <g
     inkscape:label="Capa 1"
     inkscape:groupmode="layer"
     id="layer1"
     transform="translate(0,-796.36218)">
    <g
       style="fill-rule:evenodd"
       id="g5625"
       transform="matrix(0.82398282,0,0,0.89008074,2.2373397,789.75612)">
      <g
         id="Capa_x0020_1">
        <metadata
           id="CorelCorpID_0Corel-Layer" />
        <path
           id="path5557"
           d="m 113.493,34.9487 57.2467,-0.193775 0.19101,-21.2267 57.9429,2.86649 -0.87753,17.3982 c 20.5817,2.36267 28.4407,4.73504 35.5218,26.9901 l -1.08237,51.966405 -228.436998,1.08236 2.16613,-57.379595 c 6.23264,-20.4031 32.0117,-27.5701 77.328798,-21.5035 z"
           class="fil0 str0"
           inkscape:connector-curvature="0"
           style="fill:#00923f;stroke:#72706f;stroke-width:4.15232992" />
        <g
           id="_122990968">
          <path
             d="m 111.444,35.0013 c -18.8474,1.31352 -39.3031,0.548107 -57.5457,5.91706 -9.32612,2.74469 -12.929,9.58634 -17.0757,17.6792 l -0.945346,0 c 1.35089,-10.3268 4.98833,-19.3388 15.6473,-23.4302 10.8279,-4.15509 22.5499,-5.09214 34.1266,-4.40147 l 25.792896,4.23537 z"
             class="fil1 str1"
             id="_152487464"
             inkscape:connector-curvature="0"
             style="fill:#1f1a17;stroke:#1f1a17;stroke-width:1.38410997" />
        </g>
        <path
           id="path5561"
           d="m 111.444,35.0027 c -13.8923,0 -38.2429,-3.46027 -50.9477,0.290663 -4.29489,1.26923 -11.4355,3.86997 -15.0951,6.5759 -3.65958,2.70593 -9.05207,12.94 -9.05207,16.7283"
           class="fil2"
           inkscape:connector-curvature="0"
           style="fill:none" />
        <rect
           id="rect5563"
           ry="21.5644"
           rx="21.5644"
           height="140.16901"
           width="135.856"
           transform="matrix(1.95332,-0.00571043,0.00892494,1.24979,16.3231,56.3899)"
           class="fil3 str0"
           x="0"
           y="0"
           style="fill:#b8db7c;stroke:#72706f;stroke-width:4.15232992" />
        <g
           id="_152332824">
          <path
             d="m 174.872,12.7698 53.5083,-1.56958 c 5.71083,0.453988 3.35923,8.91366 3.09625,11.9518 l -0.9232,6.81258 -0.004,0.487206 0.0734,0.01246 2.84711,0.0028 3.93502,0.123186 6.04994,1.38411 5.42294,2.75161 4.68936,3.72464 c 6.71846,6.19942 9.95589,13.7304 11.0064,22.5278 l -0.66991,0.07336 c -5.54889,-12.1857 -13.1449,-21.7942 -26.9209,-24.125 -4.73642,-0.800015 -12.8182,2.36406 -13.5656,-5.43401 l -0.13703,-1.52806 0.5398,-7.93233 0.5398,-4.11219 -6.49009,-0.820776 -8.97456,-1.05331 -15.9878,-0.739114 -18.0349,-2.53707 z m 55.3782,17.6211 -0.0872,-0.05121 -0.0512,-0.0014 0.13841,0.0526 z m 7.15446,0.199312 0.14672,0.0055 -0.20624,-0.01799 0.0595,0.01246 z"
             class="fil1 str1"
             id="_152330624"
             inkscape:connector-curvature="0"
             style="fill:#1f1a17;stroke:#1f1a17;stroke-width:1.38410997" />
        </g>
        <path
           id="path5567"
           d="m 174.872,12.7684 c 9.50883,0 27.4912,1.02839 33.7473,0.422153 3.69834,-0.358484 15.3691,1.62356 19.7609,1.62356 0,5.41186 -1.46439,10.2812 -1.46439,15.1505 0,5.95305 5.85616,3.24712 10.2479,3.78831 14.7712,0.840154 26.0545,18.0474 27.0745,27.2614"
           class="fil2"
           inkscape:connector-curvature="0"
           style="fill:none" />
        <g
           id="_155685280">
          <path
             d="m 282.632,119.248 3.72187,48.7649 c -0.70174,21.6738 0.36817,54.0176 -26.0738,60.8523 -8.9621,2.31561 -18.19,3.52117 -27.4455,3.65266 l -91.5463,-1.51837 -0.01,-0.56887 91.4328,-4.7641 c 11.4397,-0.7225 24.2122,-1.85332 34.1778,-8.22714 14.3587,-9.18356 13.2694,-36.1571 14.4847,-49.6826 l 1.25815,-48.5089 z"
             class="fil1 str2"
             id="_122920360"
             inkscape:connector-curvature="0"
             style="fill:#1f1a17;stroke:#1f1a17;stroke-width:2.76821995" />
        </g>
        <path
           id="path5571"
           d="m 282.631,119.248 c 3.65958,15.1505 1.79104,83.0687 -6.49562,94.4405 -7.6818,10.5441 -23.4274,15.0494 -43.3627,15.4037 l -91.4896,1.62356"
           class="fil2"
           inkscape:connector-curvature="0"
           style="fill:none" />
        <g
           id="_155331344">
          <path
             d="M 133.964,55.9387 C 101.1357,57.15672 61.7869,52.69712 32.806,71.5265 25.13389,76.51206 21.9477,86.8527 21.174,95.3442 l -1.31629,39.0222 -2.74192,27.0884 -0.516273,0 -1.08929,-53.3062 c -0.167477,-13.4259 -1.51145,-28.1652 8.6576,-38.7384 10.6493,-11.0729 26.0392,-14.6328 40.8381,-16.1525 23.3347,-2.39728 45.760003,0.538418 68.957703,2.68102 z"
             class="fil1 str2"
             id="_151756192"
             inkscape:connector-curvature="0"
             style="fill:#1f1a17;stroke:#1f1a17;stroke-width:2.76821995" />
        </g>
        <path
           id="path5575"
           d="m 133.964,55.9387 c -16.1027,0 -35.1757,-1.96128 -51.2342,-1.08237 -50.1366,2.74192 -67.8725,16.1885 -64.4081,53.028 0.66714,7.09909 -1.46439,45.4527 -1.46439,53.5692"
           class="fil2"
           inkscape:connector-curvature="0"
           style="fill:none" />
        <g
           id="g5577">
          <path
             id="path5579"
             d="m 62.242,269.188 183.148,0 c 9.52959,0 17.3249,3.11009 17.3249,6.91224 l 0,0 c 0,3.80076 -7.7953,6.91085 -17.3249,6.91085 l -183.148,0 c -9.52959,0 -17.3249,-3.11009 -17.3249,-6.91085 l 0,0 c 0,-3.80215 7.7953,-6.91224 17.3249,-6.91224 z"
             class="fil0"
             inkscape:connector-curvature="0"
             style="fill:#00923f" />
          <path
             d="m 245.39,269.853 0,0 -183.148,0 0,-1.32874 183.148,0 0,1.32874 z m 18.9886,6.24787 -3.3274,0 0,0 -0.0166,-0.32111 -0.0609,-0.31558 -0.10381,-0.31419 -0.13287,-0.30451 -0.17578,-0.30035 -0.21454,-0.29758 -0.24776,-0.28928 -0.27959,-0.28236 -0.31419,-0.27682 -0.34464,-0.2699 -0.38063,-0.2616 -0.40555,-0.25329 -0.43876,-0.24499 -0.46921,-0.23668 -0.49413,-0.22699 -0.52319,-0.22008 -0.54396,-0.20623 -0.57025,-0.19654 -0.59101,-0.18824 -0.61455,-0.17163 -0.63807,-0.16471 -0.6533,-0.15087 -0.67545,-0.13841 -0.6962,-0.12595 -0.7059,-0.11073 -0.72665,-0.0997 -0.73635,-0.0844 -0.75849,-0.0706 -0.76541,-0.0526 -0.78064,-0.0415 -0.79863,-0.0235 -0.80417,-0.007 0,-1.32874 0.97303,0.0125 0.95365,0.0291 0.9495,0.0471 0.93704,0.0692 0.91351,0.0844 0.90521,0.10104 0.88168,0.11903 0.86368,0.13842 0.83739,0.15086 0.81939,0.16886 0.79724,0.18409 0.76818,0.19516 0.74465,0.21315 0.71836,0.22423 0.68928,0.23807 0.66022,0.25329 0.62839,0.26159 0.59655,0.27406 0.56056,0.28651 0.53012,0.29758 0.49689,0.30589 0.45814,0.31696 0.42215,0.32803 0.38063,0.33496 0.34326,0.34326 0.30036,0.35295 0.25329,0.35848 0.21453,0.36679 0.17163,0.37371 0.11765,0.37509 0.0747,0.38478 0.0277,0.38755 0,0 z m -3.3274,0 1.6637,0 0,0 0,0 0,0 -1.6637,0 z m -15.6612,7.57523 0,-1.32874 0,0 0.80417,-0.007 0.79863,-0.0235 0.78063,-0.0415 0.76542,-0.0526 0.75849,-0.0706 0.73634,-0.0844 0.72666,-0.0997 0.7059,-0.11072 0.6962,-0.12596 0.67545,-0.13841 0.6533,-0.15087 0.63807,-0.16471 0.61455,-0.17163 0.59101,-0.18823 0.57025,-0.19655 0.55088,-0.209 0.51627,-0.21592 0.49413,-0.22561 0.46921,-0.23945 0.43876,-0.2436 0.40555,-0.25468 0.38063,-0.2616 0.34464,-0.26851 0.31419,-0.27406 0.27959,-0.28651 0.24776,-0.28928 0.21453,-0.29619 0.17579,-0.30036 0.13287,-0.3045 0.10381,-0.31419 0.0609,-0.31558 0.0166,-0.32111 3.3274,0 -0.0277,0.38755 -0.0747,0.38478 -0.11765,0.37509 -0.17163,0.37371 -0.21454,0.36679 -0.25329,0.3571 -0.30035,0.35295 -0.34326,0.34187 -0.38063,0.33772 -0.42216,0.32665 -0.45814,0.31697 -0.49689,0.30727 -0.53011,0.2962 -0.56057,0.28374 -0.59655,0.2782 -0.63531,0.26299 -0.65329,0.25052 -0.68929,0.23807 -0.71835,0.22422 -0.74465,0.21316 -0.76818,0.19515 -0.79725,0.18409 -0.81939,0.16886 -0.83739,0.15087 -0.86368,0.13841 -0.88168,0.11903 -0.90521,0.10104 -0.91351,0.0844 -0.93704,0.0692 -0.9495,0.0471 -0.95365,0.0291 -0.97303,0.0125 0,0 z m -183.148,-1.32874 0,0 183.148,0 0,1.32874 -183.148,0 0,-1.32874 z m -18.9886,-6.24648 3.3274,0 0,0 0.01661,0.32111 0.0609,0.31558 0.103808,0.31419 0.132874,0.30451 0.175782,0.30035 0.214537,0.2962 0.247755,0.28928 0.27959,0.28651 0.314193,0.27405 0.344643,0.26852 0.38063,0.26159 0.405544,0.25468 0.438762,0.2436 0.469213,0.23945 0.494127,0.22561 0.516273,0.21593 0.550875,0.209 0.570253,0.19654 0.591014,0.18824 0.614544,0.17163 0.638074,0.16471 0.653299,0.15086 0.675445,0.13842 0.696207,0.12595 0.705895,0.11073 0.726657,0.0996 0.736346,0.0844 0.758492,0.0706 0.765412,0.0526 0.780637,0.0415 0.798631,0.0235 0.804167,0.007 0,1.32874 -0.973028,-0.0125 -0.953651,-0.0291 -0.949498,-0.0471 -0.937042,-0.0692 -0.913512,-0.0844 -0.905207,-0.10104 -0.881677,-0.11903 -0.863684,-0.13841 -0.837386,-0.15087 -0.819392,-0.16886 -0.797247,-0.18408 -0.76818,-0.19516 -0.74465,-0.21316 -0.718352,-0.22422 -0.689286,-0.23807 -0.653299,-0.25052 -0.635306,-0.26298 -0.596551,-0.27821 -0.560564,-0.28374 -0.530114,-0.2962 -0.496895,-0.30727 -0.45814,-0.31696 -0.422153,-0.32665 -0.38063,-0.33773 -0.343259,-0.34187 -0.300352,-0.35295 -0.253292,-0.3571 -0.214537,-0.36679 -0.171629,-0.37371 -0.117649,-0.37509 -0.07474,-0.38478 -0.02768,-0.38755 0,0 z m 3.3274,0 -1.6637,0 0,0 0,0 0,0 1.6637,0 z m 15.6612,-7.57661 0,1.32874 0,0 -0.804167,0.007 -0.798631,0.0235 -0.780637,0.0415 -0.765412,0.0526 -0.758492,0.0706 -0.736346,0.0844 -0.726657,0.0997 -0.705895,0.11072 -0.696207,0.12596 -0.675445,0.13841 -0.653299,0.15087 -0.638074,0.16471 -0.614544,0.17163 -0.591014,0.18823 -0.570253,0.19655 -0.543955,0.20623 -0.523193,0.22007 -0.494127,0.227 -0.469213,0.23668 -0.438762,0.24499 -0.405544,0.25329 -0.38063,0.2616 -0.344643,0.2699 -0.314193,0.27682 -0.27959,0.28236 -0.247755,0.28928 -0.214537,0.29758 -0.175782,0.30035 -0.132874,0.3045 -0.103808,0.3142 -0.0609,0.31557 -0.01661,0.32112 -3.3274,0 0.02768,-0.38755 0.07474,-0.38478 0.117649,-0.3751 0.171629,-0.37371 0.214537,-0.36679 0.253292,-0.35848 0.300352,-0.35295 0.343259,-0.34326 0.38063,-0.33495 0.422153,-0.32803 0.45814,-0.31697 0.496895,-0.30588 0.530114,-0.29759 0.560564,-0.28651 0.596551,-0.27405 0.628385,-0.2616 0.66022,-0.25329 0.689286,-0.23807 0.718352,-0.22422 0.74465,-0.21316 0.76818,-0.19515 0.797247,-0.18409 0.819392,-0.16886 0.837386,-0.15087 0.863684,-0.13841 0.881677,-0.11903 0.905207,-0.10104 0.913512,-0.0844 0.937042,-0.0692 0.949498,-0.0471 0.953651,-0.0291 0.973028,-0.0125 0,0 z"
             class="fil4"
             id="1"
             inkscape:connector-curvature="0"
             style="fill:#72706f;fill-rule:nonzero" />
        </g>
        <g
           id="g5582">
          <g
             id="g5584">
            <path
               id="path5586"
               d="m 60.1312,269.062 c -3.84921,0.71005 -8.29773,1.28722 -10.1552,2.95646 -3.95993,3.55854 2.18136,7.55031 11.0023,8.3268 18.356,1.61664 36.7688,0.83877 55.3782,1.0187 l 99.1658,1.92253 -0.008,0.14672 -136.796005,0.61731 c -8.62438,-0.32804 -27.1424,-0.90106 -31.0732,-5.10321 -2.56614,-2.74192 -4.31703,-6.724 2.3433,-8.80016 3.1876,-0.99518 6.29493,-1.05607 10.1427,-1.08514 z"
               class="fil1"
               inkscape:connector-curvature="0"
               style="fill:#1f1a17" />
            <path
               d="m 50.985,272.197 -2.01803,-0.3571 0,0 0.20208,-0.17163 0.218689,-0.16609 0.236683,-0.15917 0.253292,-0.15226 0.265749,-0.14533 0.27959,-0.14256 0.290663,-0.13149 0.301736,-0.12872 0.312809,-0.1218 0.322497,-0.11627 0.328034,-0.11073 0.340491,-0.10657 0.344643,-0.1052 0.354332,-0.0969 0.351564,-0.0927 0.361252,-0.0886 0.365405,-0.0872 0.372325,-0.0844 0.372325,-0.0789 0.372325,-0.0761 0.379246,-0.0761 0.375093,-0.072 0.376478,-0.0734 0.377862,-0.0678 0.375093,-0.0692 0.38063,-0.0664 0.375093,-0.0664 0.361252,-0.0637 0.369557,-0.0664 0.368173,-0.065 0.361252,-0.065 0.354332,-0.0651 0.927353,0.80279 -0.370941,0.0678 -0.369557,0.065 -0.368173,0.0651 -0.369557,0.0664 -0.38063,0.0664 -0.366789,0.0637 -0.361252,0.0664 -0.366789,0.0664 -0.361252,0.0678 -0.359868,0.0651 -0.355716,0.0692 -0.346027,0.0678 -0.344643,0.0734 -0.339107,0.0734 -0.328034,0.0734 -0.323881,0.0761 -0.316961,0.0803 -0.315577,0.0817 -0.296199,0.0831 -0.292047,0.083 -0.27959,0.09 -0.275438,0.0941 -0.261597,0.0941 -0.251908,0.0997 -0.240835,0.10104 -0.229762,0.10657 -0.218689,0.10658 -0.207616,0.11488 -0.192391,0.11903 -0.184086,0.12319 -0.174398,0.12734 -0.160557,0.13564 0,0 z m 10.2313,7.71779 -0.476133,0.86092 0,0 -0.880293,-0.0872 -0.8623,-0.10935 -0.840154,-0.12457 -0.819392,-0.14533 -0.798631,-0.16194 -0.772333,-0.17717 -0.743266,-0.19515 -0.718352,-0.209 -0.689286,-0.22285 -0.658836,-0.23668 -0.625617,-0.24914 -0.595167,-0.26298 -0.55918,-0.27128 -0.521809,-0.28513 -0.491359,-0.29482 -0.445683,-0.30312 -0.413848,-0.31419 -0.365405,-0.32111 -0.325266,-0.32804 -0.280974,-0.33772 -0.235298,-0.34049 -0.189623,-0.34879 -0.137027,-0.35157 -0.09135,-0.35571 -0.0346,-0.36126 0.01523,-0.35986 0.07059,-0.36402 0.127338,-0.36541 0.184086,-0.36402 0.250524,-0.36541 0.305888,-0.36263 0.368173,-0.35987 2.01803,0.3571 -0.315577,0.31004 -0.261597,0.31004 -0.206232,0.31004 -0.159172,0.31419 -0.110729,0.31004 -0.06228,0.31143 -0.01523,0.31281 0.0346,0.30588 0.07474,0.30589 0.120417,0.30451 0.161941,0.2962 0.20208,0.29619 0.244987,0.29067 0.283742,0.28374 0.321113,0.27959 0.352948,0.27267 0.393087,0.26436 0.422153,0.25883 0.460908,0.24637 0.489974,0.24084 0.517657,0.22699 0.548107,0.21869 0.573021,0.20623 0.600703,0.19516 0.624233,0.18132 0.649147,0.16748 0.66714,0.15502 0.685134,0.13979 0.708664,0.12319 0.726657,0.11073 0.740498,0.0927 0.758492,0.0761 0,0 z m 55.1927,1.00902 -0.10519,0.88029 0.0263,0 -1.73567,-0.0138 -1.7329,-0.01 -1.73844,-0.004 -1.73567,-10e-4 -1.73567,0.003 -1.73567,0.004 -1.73706,0.007 -1.7329,0.007 -1.73567,0.01 -1.734294,0.008 -1.73844,0.008 -1.7329,0.007 -1.73706,0.006 -1.73429,0.003 -1.73152,0 -1.73844,-0.004 -1.7329,-0.007 -1.73844,-0.0138 -1.73567,-0.018 -1.73982,-0.0235 -1.73567,-0.0304 -1.73844,-0.0387 -1.73706,-0.0457 -1.73844,-0.0554 -1.74121,-0.0637 -1.74121,-0.0734 -1.73567,-0.0858 -1.74536,-0.0941 -1.73844,-0.10796 -1.73982,-0.1218 -1.74398,-0.13011 -1.74121,-0.1481 0.476133,-0.86092 1.69969,0.14257 1.69969,0.1301 1.70384,0.11627 1.70522,0.10519 1.70107,0.0941 1.71076,0.0831 1.70522,0.0734 1.70799,0.0609 1.71076,0.0554 1.71214,0.0457 1.71353,0.0388 1.71629,0.0304 1.71491,0.0235 1.71906,0.018 1.71906,0.0138 1.7246,0.007 1.72183,0.004 1.73152,0 1.72598,-0.003 1.72875,-0.006 1.7329,-0.007 1.73014,-0.008 1.734291,-0.008 1.73567,-0.01 1.74121,-0.007 1.73706,-0.007 1.74398,-0.004 1.74398,-0.003 1.74398,10e-4 1.74675,0.004 1.75228,0.01 1.75228,0.0138 0.0263,0 z m -0.0263,0 0.0526,0 -0.0263,0 -0.0263,0 z m 100.244,2.37098 -1.15711,0.43184 -99.1658,-1.92253 0.10519,-0.88029 99.1658,1.92253 1.05192,0.44845 z m -1.05192,-0.44845 1.07545,0.0208 -0.0235,0.42769 -1.05192,-0.44845 z m -0.0526,1.02701 -1.11282,-0.44845 0.008,-0.14672 2.20904,0.0166 -0.008,0.14672 -1.09621,0.43184 z m 1.09621,-0.43184 -0.0235,0.42769 -1.07268,0.004 1.09621,-0.43184 z m -138.004004,1.04777 0.0955,-0.87891 136.796004,-0.61731 0.0166,0.88029 -136.796004,0.61731 -0.112113,-10e-4 z m 0.112113,10e-4 -0.06782,0 -0.04429,-10e-4 0.112113,10e-4 z m -32.1169,-5.38972 2.07063,-0.30727 0,0 0.372325,0.34464 0.444299,0.32804 0.514888,0.31142 0.58271,0.29482 0.653299,0.27959 0.712816,0.26574 0.773717,0.25053 0.827697,0.23668 0.884445,0.22284 0.930121,0.21039 0.974412,0.19516 1.01594,0.1827 1.04777,0.17163 1.0796,0.15779 1.1059,0.14533 1.1239,0.13564 1.14327,0.12595 1.15573,0.1135 1.15711,0.10519 1.16404,0.0955 1.1585,0.0858 1.15573,0.0789 1.14466,0.072 1.12113,0.065 1.10867,0.0581 1.08237,0.0526 1.04639,0.0484 1.0187,0.0429 0.979949,0.0401 0.934273,0.036 0.889982,0.0332 0.837386,0.0318 -0.207616,0.87753 -0.837386,-0.0318 -0.889982,-0.0332 -0.942578,-0.036 -0.988254,-0.0401 -1.02978,-0.0429 -1.0713,-0.0485 -1.09898,-0.0554 -1.12528,-0.0581 -1.15711,-0.0651 -1.16957,-0.0747 -1.18341,-0.0789 -1.20002,-0.0913 -1.20002,-0.0983 -1.20971,-0.10796 -1.19725,-0.12181 -1.19587,-0.12872 -1.1848,-0.14118 -1.1668,-0.1564 -1.14881,-0.16886 -1.12528,-0.1827 -1.09345,-0.19655 -1.063,-0.21453 -1.02424,-0.22977 -0.981333,-0.24775 -0.938426,-0.26713 -0.887214,-0.28928 -0.826313,-0.30728 -0.764028,-0.32941 -0.696207,-0.35018 -0.620081,-0.3751 -0.538418,-0.39723 -0.449835,-0.42216 0,0 z m 2.69763,-9.30121 1.36196,0.69482 0,0 -0.543955,0.18132 -0.499663,0.19239 -0.455372,0.19655 -0.41108,0.20761 -0.377862,0.21592 -0.336338,0.22284 -0.30312,0.23115 -0.267133,0.23807 -0.233914,0.24637 -0.20208,0.25191 -0.166093,0.25744 -0.141179,0.26437 -0.109345,0.27128 -0.08166,0.27267 -0.05121,0.27821 -0.02768,0.28235 -0.0014,0.2879 0.02491,0.28651 0.04983,0.28789 0.06782,0.29067 0.08997,0.29204 0.109345,0.28928 0.128722,0.2879 0.145331,0.29066 0.160557,0.28513 0.170245,0.28235 0.189623,0.27959 0.200696,0.27683 0.207616,0.27128 0.220073,0.26713 0.226994,0.26022 0.228378,0.25329 -2.07063,0.30727 -0.247755,-0.26713 -0.235298,-0.27406 -0.228378,-0.28097 -0.224226,-0.28513 -0.209,-0.29343 -0.197928,-0.2962 -0.189623,-0.30173 -0.168861,-0.30451 -0.153636,-0.30727 -0.137027,-0.31004 -0.117649,-0.31419 -0.09827,-0.31419 -0.07613,-0.31558 -0.04983,-0.31558 -0.02491,-0.31696 0.0014,-0.31281 0.02768,-0.31558 0.05952,-0.31419 0.08997,-0.31142 0.125954,-0.30727 0.157788,-0.30589 0.20208,-0.30451 0.235298,-0.2962 0.278206,-0.29066 0.319729,-0.28789 0.364021,-0.27821 0.413848,-0.27267 0.455372,-0.26021 0.507968,-0.25468 0.557796,-0.2436 0.604855,-0.22838 0.654683,-0.22007 0,0 z m 11.2874,-0.33634 -0.927353,-0.80278 0.48167,0.84154 -0.354332,0.003 -0.350179,0.003 -0.346027,0.004 -0.339107,0.004 -0.33357,0.006 -0.329418,0.007 -0.332186,0.007 -0.315577,0.008 -0.315577,0.0111 -0.314193,0.01 -0.296199,0.0138 -0.304504,0.0152 -0.304504,0.018 -0.289279,0.018 -0.293431,0.0208 -0.285126,0.0235 -0.287895,0.0263 -0.280974,0.0277 -0.271285,0.0318 -0.283742,0.0346 -0.274054,0.0374 -0.267133,0.0401 -0.274054,0.0429 -0.269901,0.0485 -0.269901,0.0512 -0.268517,0.054 -0.267133,0.0595 -0.274054,0.065 -0.271285,0.0678 -0.268517,0.0734 -0.271285,0.0775 -0.276822,0.083 -1.36196,-0.69482 0.321113,-0.0969 0.323881,-0.0941 0.329418,-0.0872 0.323881,-0.0817 0.323881,-0.0761 0.328034,-0.0734 0.329418,-0.0678 0.330802,-0.0623 0.330802,-0.0568 0.32665,-0.054 0.336338,-0.0512 0.334954,-0.0429 0.325266,-0.0429 0.340491,-0.0374 0.33357,-0.0332 0.332186,-0.0318 0.337722,-0.0263 0.334954,-0.0263 0.341875,-0.0208 0.332186,-0.018 0.337722,-0.018 0.348795,-0.0138 0.339107,-0.0125 0.343259,-0.0111 0.348795,-0.008 0.340491,-0.007 0.348795,-0.007 0.350179,-0.006 0.355716,-0.004 0.354332,-0.004 0.358484,-0.003 0.362636,-0.003 0.48167,0.84154 z m -0.48167,-0.84153 5.25961,-0.0401 -4.77794,0.88167 -0.48167,-0.84153 z"
               class="fil5"
               id="path5588"
               inkscape:connector-curvature="0"
               style="fill:#1f1a17;fill-rule:nonzero" />
          </g>
        </g>
        <path
           id="path5590"
           d="m 60.1312,269.064 c -17.138,0.95227 -13.2044,6.62988 -10.2839,9.53097 5.07829,5.04646 50.513,4.44853 66.5078,4.44853 31.9923,0 67.1708,0 99.1617,0.31835"
           class="fil2"
           inkscape:connector-curvature="0"
           style="fill:none" />
        <g
           id="g5592">
          <g
             id="g5594">
            <path
               id="path5596"
               d="m 163.56,234.161 0,39.0983 c 0,2.03326 -3.11009,3.69834 -6.91224,3.69834 l 0,0 c -3.80076,0 -6.90947,-1.66508 -6.90947,-3.69834 l 0,-39.0983 c 0,-2.03464 3.10871,-3.69834 6.90947,-3.69834 l 0,0 c 3.80215,0 6.91224,1.6637 6.91224,3.69834 z"
               class="fil0"
               inkscape:connector-curvature="0"
               style="fill:#00923f" />
            <path
               d="m 162.896,273.259 0,0 0,-39.0983 1.32874,0 0,39.0983 -1.32874,0 z m -6.24787,4.05405 0,-0.71143 0,0 0.32111,-0.003 0.31558,-0.0138 0.31142,-0.0208 0.30589,-0.0305 0.30451,-0.0374 0.29758,-0.0457 0.28651,-0.0526 0.28236,-0.0595 0.27682,-0.0678 0.27267,-0.0747 0.25883,-0.0789 0.25329,-0.0872 0.24498,-0.0955 0.23946,-0.0983 0.22422,-0.10381 0.21731,-0.11073 0.209,-0.11765 0.19654,-0.1218 0.18824,-0.12596 0.17163,-0.13149 0.16471,-0.13564 0.15086,-0.13979 0.13842,-0.14534 0.12595,-0.1481 0.11073,-0.15086 0.0996,-0.15502 0.0844,-0.15779 0.0706,-0.16056 0.0526,-0.16471 0.0415,-0.16747 0.0235,-0.16887 0.007,-0.17162 1.32874,0 -0.0125,0.20761 -0.0291,0.20485 -0.0471,0.2007 -0.0692,0.20069 -0.0844,0.19654 -0.10104,0.19101 -0.11904,0.18824 -0.13841,0.18409 -0.15087,0.17855 -0.16886,0.17578 -0.18408,0.17024 -0.19516,0.16333 -0.21316,0.15917 -0.22422,0.15364 -0.23807,0.14671 -0.25052,0.1398 -0.26437,0.13564 -0.27682,0.12872 -0.28374,0.12042 -0.29758,0.11211 -0.30589,0.10658 -0.31973,0.0983 -0.32527,0.0886 -0.33495,0.0817 -0.34326,0.0734 -0.35572,0.0637 -0.35848,0.054 -0.36264,0.0457 -0.37232,0.036 -0.37786,0.0263 -0.38479,0.0166 -0.38755,0.006 0,0 z m 0,-0.71143 0,0.35571 0,0 0,0 0,0 0,-0.35571 z m -7.57384,-3.34262 1.32874,0 0,0 0.007,0.17163 0.0235,0.16886 0.0415,0.16748 0.0526,0.1647 0.0706,0.16056 0.0844,0.15779 0.0997,0.15502 0.11072,0.15087 0.12596,0.1481 0.13979,0.14533 0.1481,0.13979 0.16194,0.13565 0.17579,0.13149 0.18685,0.12595 0.19793,0.1218 0.20762,0.11765 0.2173,0.11073 0.22423,0.10381 0.23945,0.0983 0.24498,0.0955 0.2533,0.0872 0.25882,0.0789 0.27267,0.0747 0.27683,0.0678 0.28235,0.0595 0.28928,0.0526 0.2962,0.0457 0.30174,0.0374 0.30589,0.0305 0.31142,0.0208 0.31558,0.0138 0.32111,0.003 0,0.71143 -0.38755,-0.006 -0.38478,-0.0166 -0.37786,-0.0263 -0.37233,-0.036 -0.3654,-0.0457 -0.3571,-0.054 -0.35295,-0.0637 -0.34326,-0.0734 -0.33496,-0.0817 -0.32526,-0.0886 -0.31973,-0.0983 -0.30589,-0.10657 -0.29758,-0.11212 -0.28374,-0.12041 -0.27683,-0.12873 -0.26436,-0.13564 -0.24914,-0.13979 -0.23945,-0.14672 -0.22284,-0.15364 -0.21177,-0.15917 -0.19793,-0.16332 -0.18409,-0.17025 -0.16747,-0.17578 -0.15087,-0.17855 -0.13841,-0.18409 -0.11903,-0.18824 -0.10104,-0.191 -0.0844,-0.19655 -0.0692,-0.20069 -0.0471,-0.2007 -0.0291,-0.20485 -0.0125,-0.20761 0,0 z m 1.32874,-39.0983 0,0 0,39.0983 -1.32874,0 0,-39.0983 1.32874,0 z m 6.2451,-4.05405 0,0.71143 0,0 -0.32111,0.003 -0.31558,0.0138 -0.31142,0.0208 -0.30728,0.0305 -0.30035,0.036 -0.29343,0.0471 -0.29205,0.0526 -0.28512,0.0595 -0.27406,0.0664 -0.2699,0.0747 -0.26159,0.0803 -0.2533,0.0872 -0.24498,0.0955 -0.23945,0.0983 -0.22423,0.10381 -0.2173,0.11073 -0.20762,0.11765 -0.19793,0.1218 -0.18685,0.12595 -0.17579,0.13149 -0.16194,0.13565 -0.14948,0.13979 -0.13841,0.14395 -0.12596,0.14672 -0.11072,0.15363 -0.0997,0.15502 -0.0844,0.15779 -0.0706,0.16056 -0.0526,0.16332 -0.0415,0.16748 -0.0235,0.17024 -0.007,0.17163 -1.32874,0 0.0125,-0.20761 0.0291,-0.20347 0.0471,-0.20346 0.0692,-0.19931 0.0844,-0.19655 0.10104,-0.191 0.11903,-0.18824 0.13841,-0.18409 0.15087,-0.17993 0.16886,-0.1744 0.1827,-0.17025 0.19793,-0.16332 0.21177,-0.15917 0.22284,-0.15364 0.23945,-0.14671 0.24914,-0.1398 0.26437,-0.13564 0.27682,-0.12872 0.28374,-0.12042 0.29758,-0.11211 0.30589,-0.10658 0.31696,-0.0969 0.32804,-0.0914 0.33772,-0.0803 0.34049,-0.0734 0.35018,-0.0637 0.35987,-0.0554 0.36679,-0.0443 0.37094,-0.036 0.37786,-0.0263 0.38478,-0.0166 0.38755,-0.006 0,0 z m 0,0.71143 0,-0.35572 0,0 0,0 0,0 0,0.35572 z m 7.57661,3.34262 -1.32874,0 0,0 -0.007,-0.17163 -0.0235,-0.17024 -0.0415,-0.16748 -0.0526,-0.16333 -0.0706,-0.16055 -0.0844,-0.15779 -0.0997,-0.15502 -0.11072,-0.15364 -0.12596,-0.14671 -0.13841,-0.14395 -0.15087,-0.13979 -0.16471,-0.13565 -0.17163,-0.13149 -0.18823,-0.12595 -0.19655,-0.1218 -0.209,-0.11765 -0.2173,-0.11073 -0.22423,-0.10381 -0.23945,-0.0983 -0.24499,-0.0955 -0.25329,-0.0872 -0.2616,-0.0803 -0.2699,-0.0747 -0.27405,-0.0664 -0.28513,-0.0595 -0.28928,-0.0526 -0.29481,-0.0471 -0.30312,-0.036 -0.30727,-0.0305 -0.31143,-0.0208 -0.31557,-0.0138 -0.32112,-0.003 0,-0.71143 0.38755,0.006 0.38479,0.0166 0.37786,0.0263 0.37094,0.036 0.36402,0.0443 0.36125,0.0554 0.35295,0.0637 0.34049,0.0734 0.33772,0.0803 0.32804,0.0914 0.31696,0.0969 0.30589,0.10657 0.29758,0.11212 0.28374,0.12041 0.27682,0.12872 0.26437,0.13565 0.25052,0.13979 0.23807,0.14672 0.22422,0.15363 0.21316,0.15918 0.19516,0.16332 0.18408,0.17025 0.16886,0.17439 0.15087,0.17994 0.13841,0.18408 0.11904,0.18824 0.10104,0.19101 0.0844,0.19654 0.0692,0.19932 0.0471,0.20346 0.0291,0.20346 0.0125,0.20762 0,0 z"
               class="fil4"
               id="path5598"
               inkscape:connector-curvature="0"
               style="fill:#72706f;fill-rule:nonzero" />
          </g>
          <g
             id="g5600">
            <g
               id="g5602">
              <path
                 id="path5604"
                 d="m 163.686,233.71 c -0.71005,-0.82216 -1.28722,-1.77166 -2.95646,-2.16751 -3.55716,-0.84569 -7.55031,0.46506 -8.32541,2.34883 -1.61664,3.91841 -0.83877,7.84928 -1.0187,11.8217 l -1.92253,21.1699 -0.1481,-0.001 -0.61593,-29.2033 c 0.32665,-1.84086 0.90106,-5.79388 5.10182,-6.63403 2.74192,-0.54673 6.72538,-0.92182 8.80155,0.50104 0.99379,0.6796 1.05607,1.34259 1.08376,2.16475 z"
                 class="fil1"
                 inkscape:connector-curvature="0"
                 style="fill:#1f1a17" />
              <path
                 d="m 160.551,231.758 0.3571,-0.43184 0,0 0.17163,0.0429 0.16609,0.0484 0.15917,0.0512 0.15087,0.0512 0.14672,0.0568 0.14256,0.0609 0.13149,0.0623 0.12595,0.0637 0.12319,0.065 0.11765,0.0706 0.11211,0.0706 0.10796,0.072 0.10104,0.0734 0.0969,0.0747 0.0941,0.0761 0.0914,0.0775 0.0844,0.0789 0.0817,0.0775 0.0817,0.0789 0.0789,0.0817 0.0734,0.0803 0.072,0.0789 0.0734,0.0817 0.0678,0.0789 0.0692,0.0803 0.0678,0.0817 0.0651,0.0817 0.0637,0.0761 0.0664,0.0789 0.0651,0.0789 0.0651,0.0775 0.0651,0.0747 -0.80279,0.19931 -0.0678,-0.0803 -0.0651,-0.0775 -0.065,-0.0789 -0.0664,-0.0789 -0.0664,-0.0817 -0.0651,-0.0789 -0.065,-0.0761 -0.0664,-0.0775 -0.0678,-0.0789 -0.0651,-0.0761 -0.0692,-0.0761 -0.0706,-0.0747 -0.0706,-0.0734 -0.0706,-0.0706 -0.0761,-0.072 -0.0789,-0.0706 -0.0775,-0.0664 -0.0803,-0.065 -0.083,-0.0637 -0.0872,-0.0623 -0.0886,-0.0609 -0.0927,-0.0595 -0.0927,-0.054 -0.0983,-0.054 -0.10381,-0.0526 -0.10657,-0.0484 -0.10658,-0.0471 -0.1135,-0.0429 -0.12041,-0.0429 -0.12319,-0.0401 -0.12734,-0.0346 -0.13564,-0.0346 0,0 z m -7.71641,2.18412 -0.86092,-0.10242 -0.001,0 0.0886,-0.18686 0.10796,-0.18409 0.12596,-0.17993 0.14533,-0.17578 0.16194,-0.17025 0.17716,-0.16332 0.19516,-0.16056 0.209,-0.15225 0.22284,-0.1481 0.23669,-0.14118 0.24775,-0.13287 0.26437,-0.12734 0.27128,-0.11765 0.28513,-0.1135 0.29343,-0.1038 0.3045,-0.0955 0.31281,-0.0872 0.32112,-0.0789 0.32941,-0.0692 0.33634,-0.0609 0.34049,-0.0498 0.35018,-0.0401 0.35157,-0.0291 0.3571,-0.0194 0.3571,-0.007 0.36125,0.003 0.3654,0.0138 0.36541,0.0291 0.36263,0.0388 0.36541,0.0526 0.36263,0.0651 0.35987,0.0789 -0.3571,0.43185 -0.31004,-0.0678 -0.31004,-0.0567 -0.31004,-0.0443 -0.31281,-0.0332 -0.31281,-0.0235 -0.30727,-0.0138 -0.31142,-0.003 -0.31004,0.007 -0.30451,0.0166 -0.3045,0.0263 -0.29758,0.0346 -0.2962,0.0443 -0.28928,0.0498 -0.28513,0.0609 -0.27959,0.0678 -0.27128,0.0761 -0.26575,0.0844 -0.25744,0.09 -0.24638,0.0969 -0.24083,0.10658 -0.22838,0.11073 -0.2173,0.11626 -0.20624,0.1218 -0.19515,0.12873 -0.18132,0.13287 -0.16748,0.13841 -0.15502,0.14395 -0.13979,0.14533 -0.12319,0.15087 -0.10935,0.15502 -0.0941,0.15917 -0.0747,0.16194 -0.001,0 z m -1.00902,11.7815 -0.88029,-0.0222 0,0.006 0.0138,-0.37094 0.01,-0.36956 0.004,-0.37094 10e-4,-0.37094 -0.003,-0.36956 -0.004,-0.37094 -0.007,-0.37094 -0.007,-0.36956 -0.01,-0.37094 -0.008,-0.36955 -0.008,-0.37233 -0.007,-0.36956 -0.006,-0.36955 -0.003,-0.37094 0,-0.36956 0.004,-0.37094 0.007,-0.37094 0.0138,-0.36956 0.018,-0.37232 0.0235,-0.37095 0.0305,-0.36955 0.0387,-0.37233 0.0457,-0.37094 0.0554,-0.37094 0.0637,-0.37232 0.0734,-0.36956 0.0858,-0.37094 0.0941,-0.37233 0.10796,-0.37232 0.1218,-0.37094 0.13011,-0.37233 0.1481,-0.37232 0.86092,0.10242 -0.14257,0.36125 -0.1301,0.36402 -0.11627,0.36264 -0.10519,0.36402 -0.0941,0.36402 -0.0831,0.36541 -0.0733,0.36402 -0.0609,0.36402 -0.0554,0.3654 -0.0457,0.36541 -0.0388,0.36679 -0.0305,0.36679 -0.0235,0.3654 -0.018,0.36679 -0.0138,0.36679 -0.007,0.36817 -0.004,0.36818 0,0.36955 0.003,0.36818 0.006,0.36955 0.007,0.36956 0.008,0.36956 0.008,0.36955 0.01,0.37094 0.007,0.37233 0.007,0.37094 0.004,0.37094 0.003,0.37233 -0.001,0.37371 -0.004,0.37094 -0.01,0.37509 -0.0138,0.37371 0,0.006 z m 0,-0.006 0,0.0111 0,-0.006 0,-0.006 z m -2.36959,21.3997 -0.43323,-0.24637 1.92253,-21.1699 0.8803,0.0221 -1.92253,21.1699 -0.44707,0.22422 z m 0.44707,-0.22422 -0.0208,0.22838 -0.42631,-0.004 0.44707,-0.22422 z m -1.02839,-0.0111 0.44706,-0.23668 0.1481,10e-4 -0.0138,0.47059 -0.1481,-0.001 -0.43322,-0.23392 z m 0.43322,0.23392 -0.42769,-0.004 -0.006,-0.22977 0.43322,0.23392 z m -1.04777,-29.4608 0.87891,0.0208 0.61593,29.2033 -0.88029,0.003 -0.61593,-29.2033 10e-4,-0.0235 z m -0.001,0.0235 0,-0.0138 0.001,-0.01 -0.001,0.0235 z m 5.38833,-6.85687 0.30727,0.44291 0,0 -0.34464,0.0789 -0.32804,0.0941 -0.31142,0.11073 -0.29482,0.12595 -0.27959,0.13841 -0.26436,0.15225 -0.25052,0.1661 -0.23669,0.17578 -0.22284,0.18962 -0.21038,0.19793 -0.19655,0.209 -0.1827,0.2173 -0.17024,0.22146 -0.15779,0.23115 -0.1481,0.2353 -0.13426,0.24083 -0.12595,0.24499 -0.11212,0.24498 -0.10519,0.24776 -0.0955,0.24914 -0.0886,0.24775 -0.0775,0.24499 -0.0706,0.24499 -0.0651,0.23945 -0.0595,0.23668 -0.0512,0.22976 -0.0484,0.22423 -0.0429,0.21731 -0.0401,0.21038 -0.036,0.19931 -0.0332,0.18963 -0.0318,0.17855 -0.87752,-0.0443 0.0318,-0.17855 0.0332,-0.18962 0.036,-0.20208 0.0401,-0.21038 0.0429,-0.22008 0.0485,-0.22699 0.054,-0.2353 0.0595,-0.24222 0.0651,-0.24499 0.0734,-0.25052 0.083,-0.25329 0.0886,-0.25606 0.0983,-0.25468 0.10796,-0.25883 0.12041,-0.25606 0.12873,-0.25606 0.14533,-0.2519 0.15363,-0.24914 0.16886,-0.24499 0.18132,-0.24084 0.19931,-0.23391 0.21316,-0.22561 0.22976,-0.22007 0.24775,-0.209 0.26714,-0.2007 0.28651,-0.18824 0.30865,-0.17716 0.32942,-0.16333 0.35018,-0.1481 0.37509,-0.13287 0.39724,-0.11627 0.42215,-0.0955 0,0 z m 9.30259,0.57717 -0.69482,0.29066 0,0 -0.18132,-0.11626 -0.19239,-0.10658 -0.19655,-0.0969 -0.20761,-0.0886 -0.21592,-0.0803 -0.22284,-0.072 -0.23115,-0.0637 -0.23807,-0.0581 -0.24637,-0.0498 -0.25329,-0.0429 -0.25606,-0.036 -0.26437,-0.0291 -0.27128,-0.0235 -0.27405,-0.018 -0.27683,-0.0111 -0.28374,-0.007 -0.28512,0 -0.28651,0.006 -0.29067,0.0111 -0.29066,0.0152 -0.29205,0.018 -0.28789,0.0235 -0.29205,0.0277 -0.28651,0.0305 -0.28374,0.0346 -0.28513,0.0387 -0.27959,0.0374 -0.27682,0.0443 -0.27128,0.0429 -0.26714,0.0485 -0.26021,0.0471 -0.25329,0.0498 -0.30727,-0.44291 0.26713,-0.0526 0.27405,-0.0498 0.28098,-0.0484 0.28512,-0.0484 0.29343,-0.0443 0.2962,-0.0429 0.29897,-0.0388 0.30589,-0.0374 0.31142,-0.0332 0.30866,-0.0277 0.31281,-0.0263 0.31419,-0.0208 0.31558,-0.0152 0.31557,-0.0111 0.31697,-0.006 0.31557,0 0.3142,0.007 0.3128,0.0111 0.31281,0.0208 0.30728,0.0263 0.30588,0.0346 0.30312,0.0415 0.29759,0.0512 0.29066,0.0581 0.28789,0.0692 0.27821,0.0775 0.27267,0.0886 0.26021,0.0969 0.25468,0.10796 0.2436,0.11903 0.22838,0.12872 0.22007,0.14118 0,0 z m 0.33495,2.40973 0.80279,-0.19931 -0.84154,0.10381 -0.003,-0.0761 -0.003,-0.0747 -0.004,-0.0734 -0.004,-0.0734 -0.006,-0.0706 -0.006,-0.0734 -0.007,-0.0664 -0.01,-0.0692 -0.01,-0.0678 -0.0111,-0.065 -0.0138,-0.0664 -0.0138,-0.0651 -0.018,-0.0637 -0.0194,-0.0609 -0.0194,-0.0637 -0.0249,-0.0609 -0.0249,-0.0595 -0.0291,-0.0609 -0.0318,-0.0595 -0.0332,-0.0595 -0.0388,-0.0581 -0.0388,-0.0581 -0.0429,-0.0567 -0.0498,-0.0567 -0.0512,-0.0581 -0.0554,-0.0581 -0.0581,-0.0581 -0.0637,-0.0567 -0.0678,-0.0581 -0.0734,-0.0567 -0.0775,-0.0581 -0.083,-0.0595 0.69482,-0.29066 0.0969,0.0678 0.0941,0.0692 0.0872,0.0706 0.0817,0.0692 0.0775,0.0706 0.072,0.0692 0.0664,0.0692 0.0623,0.0692 0.0581,0.0706 0.054,0.0734 0.0498,0.0692 0.0443,0.072 0.0415,0.0706 0.0374,0.0706 0.0346,0.072 0.0305,0.0706 0.0277,0.072 0.0249,0.072 0.0221,0.072 0.018,0.0747 0.0166,0.0706 0.0138,0.072 0.0138,0.0734 0.01,0.0734 0.01,0.072 0.007,0.0775 0.006,0.0734 0.006,0.0734 0.004,0.0761 0.004,0.0761 0.003,0.0775 0.003,0.0761 -0.84154,0.10381 z m 0.84154,-0.10381 0.0374,1.12251 -0.87891,-1.0187 0.84154,-0.1038 z"
                 class="fil5"
                 id="path5606"
                 inkscape:connector-curvature="0"
                 style="fill:#1f1a17;fill-rule:nonzero" />
            </g>
          </g>
          <path
             id="path5608"
             d="m 163.686,233.71 c -0.95365,-3.6582 -6.62988,-2.81943 -9.53236,-2.1952 -5.04508,1.08376 -4.44853,10.7836 -4.44853,14.1982 0,6.82919 0,14.3394 -0.31696,21.1686"
             class="fil2"
             inkscape:connector-curvature="0"
             style="fill:none" />
        </g>
        <g
           id="g5610">
          <path
             id="path5612"
             d="m 175.234,273.265 c 0,11.149 -8.95795,20.19 -20.0073,20.19 -11.0424,0 -20.0004,-9.041 -20.0004,-20.19 -0.72804,-10.9054 8.22991,-19.9367 20.0004,-20.1803 11.0493,0 20.0073,9.03131 20.0073,20.1803 z"
             class="fil6 str3"
             inkscape:connector-curvature="0"
             style="fill:#b8db7c;fill-rule:nonzero;stroke:#72706f;stroke-width:1.34258997" />
          <g
             id="g5614">
            <path
               id="path5616"
               d="m 141.279,258.47 c 6.66587,-7.41605 20.1623,-8.94411 27.8607,-2.1426 7.02158,6.20081 8.53718,17.5007 4.83608,25.8648 -1.36196,3.07826 -3.48795,5.94336 -6.35721,7.78007 -2.00142,1.28168 -4.38347,1.69692 -6.67279,2.33499 l -0.0651,-0.29481 c 4.03883,-2.06095 7.36899,-3.80631 9.68738,-7.92265 3.99039,-7.08109 2.99383,-16.76159 -1.66231,-23.2973 -6.5676,-9.21816 -18.9221,-7.12539 -27.6268,-2.32252 z"
               class="fil1 str4"
               inkscape:connector-curvature="0"
               style="fill:#1f1a17;stroke:#1f1a17;stroke-width:0.895518" />
          </g>
          <path
             id="path5618"
             d="m 141.279,258.47 c 2.83881,-3.65128 13.9643,-5.8271 18.0239,-5.24716 18.8003,2.6824 20.9471,34.6304 1.6111,38.9364"
             class="fil2"
             inkscape:connector-curvature="0"
             style="fill:none" />
        </g>
      </g>
    </g>
  </g>
</svg>
