<?xml version="1.0" encoding="UTF-8" standalone="no"?>
<!-- Created with Inkscape (http://www.inkscape.org/) -->

<svg
   xmlns:dc="http://purl.org/dc/elements/1.1/"
   xmlns:cc="http://creativecommons.org/ns#"
   xmlns:rdf="http://www.w3.org/1999/02/22-rdf-syntax-ns#"
   xmlns:svg="http://www.w3.org/2000/svg"
   xmlns="http://www.w3.org/2000/svg"
   xmlns:sodipodi="http://sodipodi.sourceforge.net/DTD/sodipodi-0.dtd"
   xmlns:inkscape="http://www.inkscape.org/namespaces/inkscape"
   width="256"
   height="256"
   id="svg3702"
   version="1.1"
   inkscape:version="0.48.3.1 r9886"
   sodipodi:docname="carpeta_compartida.svg">
  <defs
     id="defs3704" />
  <sodipodi:namedview
     id="base"
     pagecolor="#ffffff"
     bordercolor="#666666"
     borderopacity="1.0"
     inkscape:pageopacity="0.0"
     inkscape:pageshadow="2"
     inkscape:zoom="1.1017391"
     inkscape:cx="167.14286"
     inkscape:cy="152.85714"
     inkscape:document-units="px"
     inkscape:current-layer="layer1"
     showgrid="false"
     inkscape:window-width="1022"
     inkscape:window-height="539"
     inkscape:window-x="0"
     inkscape:window-y="16"
     inkscape:window-maximized="1"
     showguides="true"
     inkscape:guide-bbox="true" />
  <metadata
     id="metadata3707">
    <rdf:RDF>
      <cc:Work
         rdf:about="">
        <dc:format>image/svg+xml</dc:format>
        <dc:type
           rdf:resource="http://purl.org/dc/dcmitype/StillImage" />
        <dc:title></dc:title>
      </cc:Work>
    </rdf:RDF>
  </metadata>
  <g
     inkscape:label="Capa 1"
     inkscape:groupmode="layer"
     id="layer1"
     transform="translate(0,-796.36218)">
    <g
       transform="matrix(1.2512025,0,0,1.257879,-1227.2682,-454.91396)"
       style="fill-rule:evenodd"
       id="g249">
      <path
         style="fill:#00923f;stroke:#72706f;stroke-width:2.73293829"
         inkscape:connector-curvature="0"
         id="path251"
         d="m 1057.69,1028.21 35.392,-0.12 0.1189,-13.1234 35.8229,1.7726 -0.5429,10.7566 c 12.7257,1.4605 17.584,2.928 21.9611,16.6869 l -0.6686,32.128 -141.231,0.6697 1.3383,-35.4754 c 3.8537,-12.6149 19.7909,-17.0457 47.8091,-13.2949 z"
         class="fil8 str1" />
      <g
         id="g253">
        <path
           style="fill:#1f1a17;stroke:#1f1a17;stroke-width:0.91098213"
           inkscape:connector-curvature="0"
           id="path255"
           d="m 1056.42,1028.24 c -11.6537,0.8114 -24.3006,0.3371 -35.5783,3.6571 -5.7657,1.6972 -7.9931,5.928 -10.5566,10.9303 l -0.5851,0 c 0.8354,-6.384 3.0845,-11.9566 9.6731,-14.4846 6.6949,-2.5691 13.9429,-3.1474 21.1006,-2.7211 l 15.9463,2.6183 z"
           class="fil4 str2" />
      </g>
      <path
         style="fill:none"
         inkscape:connector-curvature="0"
         id="path257"
         d="m 1056.42,1028.24 c -8.5897,0 -23.6446,-2.1394 -31.4983,0.1794 -2.656,0.7852 -7.0709,2.3943 -9.3326,4.0663 -2.2628,1.6732 -5.5965,8 -5.5965,10.3417"
         class="fil6" />
      <rect
         style="fill:#b8db7c;stroke:#72706f;stroke-width:2.73293829"
         y="0"
         x="0"
         id="rect259"
         ry="17.8057"
         rx="17.8057"
         height="115.737"
         width="112.176"
         transform="matrix(1.46257,-0.00427575,0.00668265,0.935795,997.615,1041.47)"
         class="fil9 str1" />
      <g
         id="g261">
        <path
           style="fill:#1f1a17;stroke:#1f1a17;stroke-width:0.91098213"
           inkscape:connector-curvature="0"
           id="path263"
           d="m 1095.64,1014.5 33.0811,-0.9691 c 3.5303,0.2811 2.0766,5.512 1.9131,7.3897 l -0.5702,4.2114 0,0.3017 0.044,0.01 1.7612,0 2.432,0.076 3.7417,0.8549 3.3531,1.7017 2.8983,2.3029 c 4.1543,3.8331 6.1554,8.488 6.8046,13.9269 l -0.4137,0.046 c -3.432,-7.5326 -8.1269,-13.4743 -16.6446,-14.9143 -2.928,-0.496 -7.9246,1.4605 -8.3863,-3.36 l -0.086,-0.9452 0.3348,-4.904 0.3326,-2.544 -4.0126,-0.5063 -5.5474,-0.6502 -9.8846,-0.4583 -11.1497,-1.5692 z m 34.2366,10.896 -0.054,-0.032 -0.031,0 0.085,0.033 z m 4.4229,0.1234 0.091,0 -0.128,-0.011 0.037,0.01 z"
           class="fil4 str2" />
      </g>
      <path
         style="fill:none"
         inkscape:connector-curvature="0"
         id="path265"
         d="m 1095.64,1014.5 c 5.88,0 16.9966,0.6366 20.864,0.2617 2.2869,-0.2217 9.5029,1.0034 12.2183,1.0034 0,3.3452 -0.9051,6.3566 -0.9051,9.3669 0,3.68 3.6194,2.008 6.3348,2.3417 9.1326,0.52 16.1086,11.1589 16.7394,16.8549"
         class="fil6" />
      <g
         id="g267">
        <path
           style="fill:#1f1a17;stroke:#1f1a17;stroke-width:1.82195616"
           inkscape:connector-curvature="0"
           id="path269"
           d="m 1162.26,1080.33 2.3017,30.1486 c -0.4343,13.4 0.2286,33.3966 -16.12,37.6217 -5.5406,1.432 -11.2457,2.1771 -16.968,2.2583 l -56.5977,-0.9383 -0.01,-0.352 56.5291,-2.9463 c 7.0731,-0.4457 14.968,-1.1451 21.1303,-5.0846 8.8765,-5.6788 8.2034,-22.3554 8.9542,-30.7177 l 0.7772,-29.9897 z"
           class="fil4 str3" />
      </g>
      <path
         style="fill:none"
         inkscape:connector-curvature="0"
         id="path271"
         d="m 1162.26,1080.33 c 2.2629,9.368 1.1074,51.3577 -4.0149,58.3886 -4.7497,6.5189 -14.4846,9.3051 -26.8103,9.5234 l -56.5634,1.0035"
         class="fil6" />
      <g
         id="g273">
        <path
           style="fill:#1f1a17;stroke:#1f1a17;stroke-width:1.82195616"
           inkscape:connector-curvature="0"
           id="path275"
           d="m 1070.35,1041.19 c -20.2983,0.7554 -44.6251,-2.0023 -62.5417,9.6389 -4.7429,3.0811 -6.7143,9.4754 -7.192,14.7246 l -0.81371,24.1257 -1.69486,16.7474 -0.31886,0 -0.67429,-32.9554 c -0.10285,-8.3017 -0.93485,-17.4149 5.35202,-23.9509 6.5851,-6.8457 16.0994,-9.0469 25.2491,-9.9863 14.4263,-1.4812 28.2903,0.3337 42.6343,1.656 z"
           class="fil4 str3" />
      </g>
      <path
         style="fill:none"
         inkscape:connector-curvature="0"
         id="path277"
         d="m 1070.35,1041.19 c -9.9554,0 -21.7474,-1.2126 -31.6754,-0.6697 -30.9977,1.696 -41.9623,10.0091 -39.8206,32.7851 0.41257,4.3897 -0.90514,28.1017 -0.90514,33.12"
         class="fil6" />
      <g
         id="g279">
        <path
           style="fill:#00923f;stroke:#72706f;stroke-width:2.73293829"
           inkscape:connector-curvature="0"
           id="path281"
           d="m 997.799,1144.61 32.72,14.2663 c 7.8491,4.0343 15.7634,6.6743 23.3966,9.1623 28.6891,9.3486 37.0583,12.3691 69.6309,3.0926 15.2846,-4.3532 26.3474,-8.3497 37.3463,-12.472 32.264,-12.0914 28.1909,-30.1771 0.071,-24.944 -45.1829,8.408 -77.1531,6.736 -116.779,-6.3509 -3.1589,-1.1966 -2.4663,-0.7349 0.4434,-1.9269 l 59.6206,0.3292 c 12.8034,-2.1783 12.408,-19.2514 0.4468,-20.7634 l -110.15196,0.4286 c -7.52343,0.03 -7.29943,3.3874 -7.41943,7.4617 l -0.0743,18.2114 c -0.088,10.7703 2.19771,9.0743 10.7497,13.5051 z"
           class="fil8 str1" />
        <g
           id="g283">
          <path
             style="fill:#1f1a17"
             inkscape:connector-curvature="0"
             id="path285"
             d="m 986.079,1109.26 1.80914,23.2937 c 0.34171,3.0183 3.34971,5.6126 5.79086,6.9291 l 10.7531,4.304 21.9211,11.5863 23.448,10.5257 0,0.5075 -25.2811,-7.5909 -21.9143,-10.1966 c -5.65829,-2.5257 -16.3029,-5.7337 -17.8366,-13.264 -1.84229,-9.0309 0.31771,-17.152 1.30971,-26.0949 z"
             class="fil4" />
        </g>
        <path
           style="fill:none"
           inkscape:connector-curvature="0"
           id="path287"
           d="m 986.078,1109.26 c 0,7.2663 -1.21029,17.56 0,23.616 1.81714,10.2937 16.5154,11.816 24.2206,16.3486 2.6103,1.5349 11.9657,6.1806 15.1383,7.872 3.3783,1.8 18.9143,9.0571 24.3646,9.0571"
           class="fil6" />
        <g
           id="g289">
          <path
             style="fill:#1f1a17"
             inkscape:connector-curvature="0"
             id="path291"
             d="m 1069.03,1125 -6.1143,0.6777 -7.8388,0.3257 -7.4903,0.656 -1.4183,0.3703 1.6103,0.9897 6.408,2.2926 6.6868,1.5931 40.6217,5.336 c 9.2732,0.6149 18.5966,1.6652 27.8423,0.7109 l 15.1909,-2.6571 0.1452,0.408 c -9.6355,2.5702 -19.1474,5.4948 -29.0994,6.1211 l -30.2354,-0.5897 -19.6149,-3.8183 c -7.9257,-1.7394 -20.2366,-3.248 -25.32,-10.4926 -0.3029,-0.432 -0.1886,-1.2229 0.2468,-1.5223 3.488,-2.3851 10.6194,-1.8811 14.4057,-1.8183 L 1069.03,1125 z"
             class="fil4" />
        </g>
        <path
           style="fill:none"
           inkscape:connector-curvature="0"
           id="path293"
           d="m 1069.03,1125 c -6.056,0 -22.1737,-1.0183 -27.0171,1.4046 4.8434,4.8434 17.9657,7.9177 24.0011,8.6708 3.6526,0.4549 14.3634,3.5909 19.352,3.6457 23.1566,0.2572 37.7086,4.3612 59.2343,-3.2217"
           class="fil6" />
      </g>
    </g>
  </g>
</svg>
