<?xml version="1.0" encoding="UTF-8"?>
<!DOCTYPE svg PUBLIC "-//W3C//DTD SVG 1.1//EN" "http://www.w3.org/Graphics/SVG/1.1/DTD/svg11.dtd">
<!-- Creator: CorelDRAW -->
<svg xmlns="http://www.w3.org/2000/svg" xml:space="preserve" width="300px" height="300px" style="shape-rendering:geometricPrecision; text-rendering:geometricPrecision; image-rendering:optimizeQuality; fill-rule:evenodd; clip-rule:evenodd"
viewBox="0 0 300 300"
 xmlns:xlink="http://www.w3.org/1999/xlink">
 <defs>
  <style type="text/css">
   <![CDATA[
    .str1 {stroke:#1F1A17;stroke-width:2.76822}
    .str0 {stroke:#72706F;stroke-width:4.15233}
    .fil1 {fill:none}
    .fil3 {fill:#00923F}
    .fil2 {fill:#1F1A17}
    .fil0 {fill:#B8DB7C}
   ]]>
  </style>
 </defs>
 <g id="Capa_x0020_1">
  <metadata id="CorelCorpID_0Corel-Layer"/>
  <rect class="fil0 str0" transform="matrix(1.14866 -0.0179414 0.0202882 1.29891 8.23799 65.9663)" width="244.099" height="150.215" rx="40.6831" ry="40.6831"/>
  <rect class="fil0 str0" transform="matrix(1.11153 -0.0173614 0.0156501 1.00196 207.189 34.6886)" width="31.2947" height="28.1652"/>
  <g id="_68662568">
   <circle id="_67696704" class="fil1 str0" transform="matrix(1.29891 -0.0202882 0.0202882 1.29891 150.834 163.08)" r="57.8945"/>
   <circle id="_67683808" class="fil1 str0" transform="matrix(0.771358 -0.0120482 0.0120482 0.771358 151.311 162.841)" r="57.8945"/>
  </g>
  <g id="_67899552">
   <path id="_67839448" class="fil2" d="M137.967 119.645c12.2937,-2.64365 23.7402,-5.45616 35.7017,0.160557 23.3305,10.9566 33.6228,42.96 20.4087,65.1569 -3.20006,5.37865 -8.26036,11.5255 -13.4798,15.0356 -4.21184,2.83465 -9.232,3.96824 -14.0584,5.53505l-0.196543 -0.66022c10.2632,-6.00565 17.8052,-11.9905 23.3458,-22.8627 9.61402,-18.8654 -0.329418,-47.1787 -18.5332,-57.5319 -10.187,-5.79388 -21.9395,-4.0762 -33.1882,-4.83331z"/>
  </g>
  <path class="fil1" d="M137.965 119.645c9.59879,0 19.9713,-3.28587 29.4608,0.236683 13.3982,4.9731 26.3991,18.5166 28.2926,37.4637 2.13291,21.3485 -2.20212,23.2558 -7.60291,31.5937 -4.73227,7.30394 -10.9898,13.1061 -21.6751,16.2633"/>
  <g id="_68305584">
   <path id="_67806584" class="fil2" d="M188.03 97.6987c-11.423,-4.27274 -21.4911,-8.67974 -33.9259,-9.023 -35.728,-0.985485 -66.1175,28.9763 -72.9301,62.743 -3.84921,19.0799 -0.927353,41.6478 12.7601,56.4315 17.6515,19.0675 46.3026,32.4158 72.5107,26.2925 13.6279,-3.18207 24.8558,-10.2106 36.9197,-16.8584l0.376478 0.485822c-16.9761,11.7109 -34.9404,24.5555 -56.9298,22.3118 -27.5645,-2.81389 -57.7768,-18.7879 -69.1099,-45.3046 -16.6176,-38.881 6.56483,-87.2459 44.2333,-103.765 13.6293,-5.97796 29.2088,-7.82713 43.7074,-3.99869 8.04029,2.12184 15.0812,6.71846 22.388,10.6853z"/>
  </g>
  <path class="fil1" d="M188.028 97.6987c-60.624,-36.7329 -123.757,26.9361 -110.214,85.9877 6.24648,27.2379 29.7113,44.0451 58.7914,52.2584 27.8275,7.85897 55.1138,-9.25969 66.9452,-18.4169"/>
  <g id="_68147744">
   <path id="_67749944" class="fil2" d="M160.233 63.7659c33.3072,-2.00557 67.114,-7.54201 99.7679,1.65539 23.7402,6.69078 28.6151,32.0615 30.4642,53.4252l0.0996558 30.3604 0.204848 49.6507 -0.560564 0.024914 -4.48313 -49.4473c-1.49622,-22.0392 0.647763,-46.4175 -12.0611,-65.878 -6.48593,-9.93098 -20.8544,-14.3006 -31.6047,-15.9532l-54.0744 -2.06924 -27.7528 -1.76889z"/>
  </g>
  <path class="fil1" d="M160.233 63.7673c26.1735,3.63329 104.888,-13.7968 120.017,24.0613 9.6334,24.1098 6.81258,38.6526 7.89357,61.4918l2.34468 49.5497"/>
  <g id="_67797120">
   <path id="_67892472" class="fil2" d="M9.48253 147.381c2.43326,27.9507 2.67687,56.2294 12.6272,82.7711 5.68453,15.1643 21.3803,25.3389 37.2284,26.5984l70.3819 2.00557 0.00692054 0.408312 -70.9356 3.76754c-18.7298,-0.694823 -36.928,-12.003 -42.9627,-30.175 -3.10594,-9.35242 -5.78696,-18.9401 -6.58144,-28.7632l0.235298 -56.6128z"/>
  </g>
  <path class="fil1" d="M9.48114 147.38c0,29.1549 -1.22355,86.4127 23.7098,103.156 18.4751,12.4085 32.5307,9.38426 53.9636,9.06314l42.5683 -0.638074"/>
  <g id="_68061056">
   <path id="_67756240" class="fil2 str1" d="M231.931 33.8774c-1.254,0.0982717 -20.1623,-0.332186 -20.2813,2.92462 -0.0802783,2.10385 -1.45055,2.70593 -2.11353,5.04231 -1.77443,6.27278 -1.5765,12.8224 -1.89761,19.2696l-0.0359868 0 -2.2035 -19.7886c-0.13149,-3.60699 0.197928,-8.94826 5.05061,-9.27491 7.47834,-0.503816 14.1276,0.967492 21.4814,1.82702z"/>
  </g>
  <path class="fil1" d="M231.93 33.8788c-6.65618,-1.44916 -13.5961,-0.145331 -20.2592,0.287895 -6.64787,0.431842 -4.05129,22.0226 -4.05129,26.9486"/>
  <circle class="fil3" cx="151.157" cy="163.002" r="43.0063"/>
 </g>
</svg>
