<?xml version="1.0" encoding="UTF-8"?>
<!DOCTYPE svg PUBLIC "-//W3C//DTD SVG 1.1//EN" "http://www.w3.org/Graphics/SVG/1.1/DTD/svg11.dtd">
<!-- Creator: CorelDRAW -->
<svg xmlns="http://www.w3.org/2000/svg" xml:space="preserve" width="300px" height="300px" style="shape-rendering:geometricPrecision; text-rendering:geometricPrecision; image-rendering:optimizeQuality; fill-rule:evenodd; clip-rule:evenodd"
viewBox="0 0 300 300"
 xmlns:xlink="http://www.w3.org/1999/xlink">
 <defs>
  <style type="text/css">
   <![CDATA[
    .str1 {stroke:#1F1A17;stroke-width:2.76822}
    .str0 {stroke:#72706F;stroke-width:4.15233}
    .fil3 {fill:none}
    .fil1 {fill:#00923F}
    .fil2 {fill:#1F1A17}
    .fil0 {fill:#B8DB7C}
   ]]>
  </style>
 </defs>
 <g id="Capa_x0020_1">
  <metadata id="CorelCorpID_0Corel-Layer"/>
  <path class="fil0 str0" d="M107.317 231.07c-19.9215,16.3574 -25.7472,40.6983 -13.0079,54.3553 11.8355,12.6895 35.537,11.6971 54.8162,-1.62633l0.0138411 0.596551 11.2459 -6.82781 11.0659 -12.911c4.3724,-6.80843 6.55514,-15.4411 5.53367,-26.7451 0.649147,-53.0681 -4.70182,-120.466 2.00281,-173.35 9.47976,1.36473 20.6481,10.0002 26.3783,15.3207 26.514,24.6136 37.0291,42.1392 22.8558,89.1338 -3.39799,16.6536 35.2837,-39.371 -0.514888,-75.8934 -34.8145,-33.6601 -50.7996,-61.9416 -51.183,-85.7663l-20.9928 0.00138411c-2.72393,0 -5.44785,0.884445 -8.17316,0.884445l0.881677 7.54616 22.8572 218.53c-6.74615,-3.76062 -16.8294,-17.2571 -23.5769,-17.4218l0.012457 0.530114c-12.6466,-1.30106 -27.7209,3.38415 -40.2153,13.6432z"/>
  <ellipse class="fil1" transform="matrix(0.250497 -0.174057 0.1755 0.248438 132.92 255.446)" rx="161.938" ry="109.929"/>
  <g id="_65215272">
   <path id="_67679224" class="fil2 str1" d="M147.478 7.09632l25.905 -0.772333c0.851227,0.0262981 1.90869,0.0733578 2.22288,1.0187 3.95301,11.8272 5.70945,25.1852 11.9947,36.0533 7.81052,13.502 19.0024,24.5112 29.5839,35.9702 9.62232,10.4182 19.5007,18.6924 24.4863,32.485 3.98346,11.0175 3.23743,22.5707 0.128722,33.6698l-11.0383 25.6489 -0.336338 -0.160557c5.679,-15.3193 13.1601,-31.0635 10.7033,-47.9248 -1.03531,-7.11017 -3.8409,-13.9546 -7.80222,-19.9519 -10.2562,-15.5242 -26.597,-25.707 -37.9218,-40.4353 -7.41052,-9.64032 -12.2715,-20.9637 -16.3422,-32.4214l-2.35298 -10.6756 -1.51837 -5.73159 -1.56266 -5.32051 -0.391703 -0.0415233 -24.5596 -0.943962c-0.0152252,-0.00138411 -1.35919,-0.195159 -1.19864,-0.466445z"/>
  </g>
  <path class="fil3" d="M147.477 7.09632c0.221457,0.823545 26.8254,-0.274054 27.051,0.543955 1.09206,3.95855 2.6561,7.73301 3.50041,11.6777 2.39589,11.1933 6.38628,34.4975 37.7322,61.6911 33.7695,29.296 33.0027,52.3774 14.8321,90.0806"/>
  <g id="_67621792">
   <path id="_67742368" class="fil2 str1" d="M177.463 66.2462l0.445683 139.845 -0.902439 45.3323c-0.988254,7.39391 -4.13156,14.2328 -9.041,19.8481 -5.69284,6.50808 -14.5774,13.0521 -22.5305,16.947 -3.39522,1.66231 -7.11293,2.39728 -10.785,3.29695l-0.0359868 -0.365405c12.0597,-4.3461 23.1797,-11.567 31.494,-21.6156 4.35302,-5.261 7.06311,-11.5864 7.75654,-18.3796l-0.109345 -45.0887 3.70803 -139.82z"/>
  </g>
  <path class="fil3" d="M177.463 66.2476c-0.81524,39.5689 -1.22355,66.404 -1.63186,139.831 -0.0567485,10.2701 1.52806,47.8597 -2.4471,55.8848 -4.70735,9.50467 -26.7147,28.2414 -38.7523,29.3708"/>
 </g>
</svg>
