<?xml version="1.0" encoding="UTF-8"?>
<!DOCTYPE svg PUBLIC "-//W3C//DTD SVG 1.1//EN" "http://www.w3.org/Graphics/SVG/1.1/DTD/svg11.dtd">
<!-- Creator: CorelDRAW -->
<svg xmlns="http://www.w3.org/2000/svg" xml:space="preserve" width="300px" height="300px" style="shape-rendering:geometricPrecision; text-rendering:geometricPrecision; image-rendering:optimizeQuality; fill-rule:evenodd; clip-rule:evenodd"
viewBox="0 0 300 300"
 xmlns:xlink="http://www.w3.org/1999/xlink">
 <defs>
  <style type="text/css">
   <![CDATA[
    .str2 {stroke:#1F1A17;stroke-width:1.05469}
    .str1 {stroke:#1F1A17;stroke-width:2.76822}
    .str0 {stroke:#72706F;stroke-width:4.15233}
    .fil2 {fill:none}
    .fil3 {fill:#00923F}
    .fil1 {fill:#1F1A17}
    .fil0 {fill:#B8DB7C}
   ]]>
  </style>
 </defs>
 <g id="Capa_x0020_1">
  <metadata id="CorelCorpID_0Corel-Layer"/>
  <g id="_81537928">
   <path id="_80999968" class="fil0 str0" d="M36.1834 245.949l0 -192.387c0,-24.6067 15.4231,-45.205 34.8989,-45.3738l117.253 -1.02562c13.8978,12.1193 76.1661,66.249 76.1952,68.9078l1.81457 169.095c0.264365,24.6053 -15.9352,44.7953 -35.411,44.8617l-159.341 0.543955c-19.4758,0.0664372 -35.4097,-20.0142 -35.4097,-44.6223z"/>
   <g>
    <path id="_81028904" class="fil1 str1" d="M36.0422 165.735c1.47684,34.874 -4.53572,76.6561 20.0917,107.495 6.51915,8.16486 20.0931,11.5822 31.2476,12.4307l51.2618 1.51837 35.5785 2.9966 -0.00276822 0.548107 -70.0373 0.991022c-17.6377,0.135643 -37.0111,1.51975 -50.8618,-9.31367 -14.5082,-11.3483 -19.1256,-27.7057 -21.0647,-43.4292 -3.05888,-24.7922 0.884445,-48.603 3.78692,-73.2373z"/>
   </g>
   <path id="_81427608" class="fil2" d="M36.0422 165.736c-0.0622849,17.1034 -2.71147,37.3557 -1.61941,54.4162 3.41183,53.2619 21.0094,72.1411 69.4227,68.577 9.33028,-0.686518 59.7104,1.69553 70.375,1.72045"/>
   <polygon id="_80590488" class="fil3 str0" points="204.106,8.70604 265.282,64.8496 265.282,10.5635 "/>
   <g>
    <path id="_81985896" class="fil1 str2" d="M199.393 7.55723c13.7096,-0.534266 54.019,-7.09356 67.4061,0.424921 5.9752,3.35508 4.88452,13.6238 4.8776,18.9014 -0.0221457,13.9961 -3.31909,27.5133 -5.84647,41.2146l-0.531498 -0.038755 -0.507968 -33.8608 -0.00968876 0.305888c-0.226994,-5.70253 -0.483054,-11.5753 -1.66923,-17.1782l-0.609008 -1.77581 -63.1098 -7.99323zm62.923 7.66935l-0.063669 -0.102424 -0.0498279 -0.0193775 0.110729 0.121802 0.00276822 0z"/>
   </g>
   <path id="_78096544" class="fil2" d="M199.392 7.55862c9.49775,-1.79934 57.3298,2.69901 64.4759,3.84782 4.51358,0.725273 4.05405,13.5892 4.23814,23.0371l-2.54261 33.6366"/>
  </g>
 </g>
</svg>
