<?xml version="1.0" encoding="UTF-8"?>
<!DOCTYPE svg PUBLIC "-//W3C//DTD SVG 1.1//EN" "http://www.w3.org/Graphics/SVG/1.1/DTD/svg11.dtd">
<!-- Creator: CorelDRAW -->
<svg xmlns="http://www.w3.org/2000/svg" xml:space="preserve" width="300px" height="300px" style="shape-rendering:geometricPrecision; text-rendering:geometricPrecision; image-rendering:optimizeQuality; fill-rule:evenodd; clip-rule:evenodd"
viewBox="0 0 300 300"
 xmlns:xlink="http://www.w3.org/1999/xlink">
 <defs>
  <style type="text/css">
   <![CDATA[
    .str2 {stroke:#1F1A17;stroke-width:1.05469}
    .str1 {stroke:#1F1A17;stroke-width:2.76822}
    .str0 {stroke:#72706F;stroke-width:4.15233}
    .fil2 {fill:none}
    .fil3 {fill:#00923F}
    .fil1 {fill:#1F1A17}
    .fil0 {fill:#B8DB7C}
   ]]>
  </style>
 </defs>
 <g id="Capa_x0020_1">
  <metadata id="CorelCorpID_0Corel-Layer"/>
  <path class="fil0 str0" d="M201.256 248.182c-11.2583,-47.9054 47.5815,-54.3387 69.2746,-90.7089 43.8929,-73.5889 -119.963,-132.473 -157.249,-23.3804l20.5319 5.04231c10.2604,-26.5264 26.2953,-39.1786 57.9443,-40.5931 28.4337,-0.42769 50.3871,7.43543 61.5222,27.9009 3.6928,10.3545 8.65898,22.4779 -8.64791,36.2692 -28.6663,22.8392 -78.5925,54.1574 -67.622,86.0362l24.2454 -0.5661z"/>
  <g id="_66668624">
   <path id="_48312264" class="fil1 str1" d="M124.054 137.424l3.04642 0.244987 3.39245 0.680981 3.29279 1.06161 0.588246 0.359868 -0.0166093 -0.293431 0.120417 -1.39241c1.24155,-7.50325 7.14062,-14.8224 12.5054,-19.7734 6.97591,-6.43749 14.129,-13.0867 22.9195,-16.6716 17.9727,-7.33301 42.8672,-8.41123 60.8551,-0.588246 15.6515,6.80705 26.8918,22.4572 25.3043,39.872 -1.08514,11.9366 -7.65135,21.9257 -16.4003,29.7445l-13.8895 10.2466 -11.7414 10.6742 -7.83405 4.20354 -0.265749 -0.557796 23.5285 -21.5824c8.84861,-7.78423 16.9124,-14.2397 20.1595,-26.1915 5.7745,-21.2308 -10.5704,-38.2415 -30.1016,-43.144 -29.8621,-7.49772 -65.5721,2.48586 -81.2375,30.5611 -1.34259,2.40835 -1.35919,4.17032 -1.481,6.71293 -0.138411,2.92047 -2.97307,0.00968876 -3.84367,-0.449835l-8.9012 -3.71772z"/>
  </g>
  <path class="fil2" d="M124.054 137.424c3.3883,0.968876 9.26661,2.00834 11.6874,4.43192 -2.90663,-11.6348 24.8309,-34.8823 34.8629,-37.8111 80.1011,-23.3817 106.575,41.2769 59.8004,71.0947 -8.2659,5.2693 -13.1449,15.0909 -24.3423,20.3741"/>
  <g id="_67677416">
   <path id="_67772936" class="fil1 str1" d="M276.646 137.493c-0.352948,5.52813 -0.222841,11.1282 -2.31423,16.2591 -9.23477,22.6468 -35.0816,34.9626 -51.9165,50.938 -7.88942,7.48249 -15.7705,15.675 -18.2841,26.6233l-1.03531 8.1607 0.836002 9.17526 -0.0470597 0.012457c0.181318,0.7142 -0.0359868,1.46162 -0.986869,1.6983 -0.640842,0.15502 -1.4284,-0.250524 -1.65816,-0.867836l-0.188239 -0.106576 -0.483054 -0.182702 -10.1109 -1.37027 0 -0.596551c2.64918,-0.355716 6.9247,-1.48238 10.187,-0.826313 -1.48653,-8.39323 -1.97512,-16.1692 1.64986,-24.4614 12.7546,-29.1659 45.5884,-39.6256 64.8413,-63.0863 5.4174,-6.60358 7.10601,-13.43 9.51021,-21.3693zm-75.3495 112.031l0.0401391 0.0484438 0.024914 0.0110729 -0.0373709 -0.0401391 -0.0276822 -0.0193775z"/>
  </g>
  <path class="fil2" d="M276.645 137.493c0,45.0832 -87.1573,58.6571 -74.083,111.495 -0.484438,-1.93914 -9.20017,-1.4547 -12.1054,-1.4547"/>
  <ellipse class="fil3 str0" transform="matrix(0.850462 0.420955 -0.309232 0.660486 192.377 273.756)" rx="19.3388" ry="21.0205"/>
  <g id="_64887736">
   <path id="_67551400" class="fil1 str2" d="M196.553 290.823c-10.7075,1.59726 -22.8032,-6.82642 -26.8489,-16.9484 -2.76268,-6.91501 8.99255,-16.0709 15.412,-17.102 3.29003,-0.530114 5.91014,0.460908 8.97179,2.00419l-0.0138411 0.0276822c-12.8085,-4.16894 -17.9879,8.92612 -15.2473,18.3062 2.44018,8.3531 8.94411,13.5214 17.7263,13.7124z"/>
  </g>
  <path class="fil2" d="M196.553 290.825c-1.05192,0.224226 -6.71708,0.347411 -8.16762,-0.42769 -7.25827,-3.87966 -15.8536,-13.9878 -14.0307,-20.8876 2.54676,-6.51362 9.56557,-16.1498 19.7263,-10.7185"/>
  <path class="fil3 str0" d="M94.0889 50.6542c11.257,47.9054 -47.5829,54.3373 -69.276,90.7089 -43.8915,73.5889 119.963,132.473 157.249,23.3804l-20.5305 -5.04231c-10.2604,26.5264 -26.2953,39.1786 -57.9443,40.5931 -28.4351,0.42769 -50.3871,-7.43543 -61.5222,-27.9009 -3.69419,-10.3545 -8.66037,-22.4779 8.64653,-36.2692 28.6663,-22.8392 78.5925,-54.1574 67.622,-86.0362l-24.244 0.5661z"/>
  <g id="_48608208">
   <path id="_67907752" class="fil1 str1" d="M171.292 161.413l-3.04781 -0.244987 -3.38968 -0.682366 -3.29418 -1.06161 -0.586862 -0.359868 0.0138411 0.293431 -0.119033 1.39241c-1.24293,7.50325 -7.14062,14.8224 -12.5054,19.7734 -6.97729,6.43749 -14.1304,13.0854 -22.9208,16.6688 -17.974,7.33578 -42.8658,8.414 -60.8565,0.58963 -15.6473,-6.80566 -26.8905,-22.4558 -25.3043,-39.8692 1.08653,-11.9366 7.65412,-21.927 16.4017,-29.7459l13.8895 -10.2466 11.74 -10.6756 7.83959 -4.20354 0.262981 0.55918 -23.5285 21.5824c-8.84999,7.78284 -16.9124,14.2397 -20.1609,26.1915 -5.7745,21.2295 10.5704,38.2429 30.103,43.144 29.8608,7.49772 65.5694,-2.48586 81.2375,-30.5611 1.34397,-2.40558 1.35643,-4.17032 1.481,-6.71154 0.137027,-2.92324 2.97168,-0.0110729 3.84229,0.448451l8.90259 3.7191z"/>
  </g>
  <path class="fil2" d="M171.292 161.412c-3.38968,-0.968876 -9.26661,-2.00834 -11.6874,-4.43192 2.90524,11.6348 -24.8309,34.8823 -34.8629,37.8111 -80.1025,23.3817 -106.576,-41.2769 -59.8018,-71.0947 8.26728,-5.2693 13.1463,-15.0909 24.3437,-20.3741"/>
  <g id="_67620632">
   <path id="_67739312" class="fil1 str1" d="M18.6993 161.343c0.351564,-5.52951 0.222841,-11.1282 2.31285,-16.2591 9.23754,-22.6468 35.083,-34.9626 51.9193,-50.938 7.88803,-7.48388 15.7664,-15.675 18.2799,-26.6233l1.03808 -8.15932 -0.834617 -9.17664 0.0456756 -0.012457c-0.182702,-0.715584 0.0346027,-1.463 0.985485,-1.6983 0.640842,-0.156404 1.42978,0.250524 1.66093,0.866452l0.186855 0.10796 0.484438 0.182702 10.1109 1.37027 0 0.596551c-2.65057,0.355716 -6.92885,1.48238 -10.1884,0.826313 1.48653,8.39323 1.97374,16.1692 -1.65124,24.4614 -12.7559,29.1659 -45.5884,39.6243 -64.84,63.0849 -5.41879,6.60497 -7.1074,13.4314 -9.51021,21.3706zm75.3495 -112.031l-0.038755 -0.0484438 -0.0276822 -0.0110729 0.0359868 0.0401391 0.0304504 0.0193775z"/>
  </g>
  <path class="fil2" d="M18.6993 161.343c0,-45.0832 87.1573,-58.6571 74.0844,-111.495 0.483054,1.93914 9.20017,1.4547 12.1054,1.4547"/>
  <ellipse class="fil0 str0" transform="matrix(-0.850462 -0.420955 0.309232 -0.660486 102.968 25.0794)" rx="19.3388" ry="21.0205"/>
  <g id="_67687976">
   <path id="_67686408" class="fil1 str2" d="M98.7908 8.01122c10.7075,-1.59588 22.8032,6.82781 26.8503,16.9484 2.76545,6.91639 -8.99255,16.0723 -15.412,17.1034 -3.29003,0.530114 -5.91153,-0.460908 -8.97179,-2.00557l0.0138411 -0.0276822c12.8085,4.17032 17.9851,-8.92612 15.246,-18.3062 -2.43742,-8.35171 -8.94273,-13.52 -17.7263,-13.7124z"/>
  </g>
  <path class="fil2" d="M98.7908 8.01122c1.05331,-0.22561 6.71846,-0.347411 8.16901,0.42769 7.25688,3.87966 15.8536,13.9878 14.0307,20.8876 -2.54814,6.51362 -9.56557,16.1498 -19.7263,10.7185"/>
 </g>
</svg>
