<?xml version="1.0" encoding="UTF-8" standalone="no"?>
<!-- Created with Inkscape (http://www.inkscape.org/) -->

<svg
   xmlns:dc="http://purl.org/dc/elements/1.1/"
   xmlns:cc="http://creativecommons.org/ns#"
   xmlns:rdf="http://www.w3.org/1999/02/22-rdf-syntax-ns#"
   xmlns:svg="http://www.w3.org/2000/svg"
   xmlns="http://www.w3.org/2000/svg"
   xmlns:sodipodi="http://sodipodi.sourceforge.net/DTD/sodipodi-0.dtd"
   xmlns:inkscape="http://www.inkscape.org/namespaces/inkscape"
   width="256"
   height="256"
   id="svg8370"
   version="1.1"
   inkscape:version="0.48.3.1 r9886"
   sodipodi:docname="huayra-menu-education.svg">
  <defs
     id="defs8372" />
  <sodipodi:namedview
     id="base"
     pagecolor="#ffffff"
     bordercolor="#666666"
     borderopacity="1.0"
     inkscape:pageopacity="0.0"
     inkscape:pageshadow="2"
     inkscape:zoom="0.65394896"
     inkscape:cx="124.15147"
     inkscape:cy="51.534573"
     inkscape:document-units="px"
     inkscape:current-layer="layer1"
     showgrid="false"
     inkscape:window-width="1438"
     inkscape:window-height="827"
     inkscape:window-x="0"
     inkscape:window-y="25"
     inkscape:window-maximized="1" />
  <metadata
     id="metadata8375">
    <rdf:RDF>
      <cc:Work
         rdf:about="">
        <dc:format>image/svg+xml</dc:format>
        <dc:type
           rdf:resource="http://purl.org/dc/dcmitype/StillImage" />
        <dc:title />
      </cc:Work>
    </rdf:RDF>
  </metadata>
  <g
     inkscape:label="Capa 1"
     inkscape:groupmode="layer"
     id="layer1"
     transform="translate(0,-796.36218)">
    <rect
       style="fill:#b8db7c;fill-opacity:1;fill-rule:evenodd;stroke:#72706f;stroke-width:4.88429689"
       id="rect11194-1-9-8"
       ry="8.7134132"
       rx="15.092089"
       height="41.434425"
       width="238.41901"
       y="-123.5903"
       x="807.82574"
       class="fil0 str0"
       transform="matrix(-0.00412645,0.99999149,-0.99999149,-0.00412645,0,0)" />
    <path
       sodipodi:nodetypes="ccccccscccc"
       id="_81851448-2-3-0"
       class="fil1 str1"
       d="m 119.50562,828.15331 c -0.54742,-12.27264 1.47461,-18.16116 -4.47353,-20.24031 -14.63975,-1.83913 -31.95543,0.0666 -34.589737,9.58105 -2.001166,57.93929 -0.465405,114.91233 -3.079731,173.7233 l 0.826118,-0.15547 -2.116702,-149.83926 c 0.678782,-4.74234 -0.01957,-9.16021 -3.45e-4,-12.8335 0.08041,-15.40688 -2.853885,-21.69325 4.78523,-23.72301 16.382928,-3.37018 33.476457,-4.11269 40.854737,3.28914 3.58607,3.98425 -1.40822,25.21309 -2.12745,34.99444 z"
       inkscape:connector-curvature="0"
       style="fill:#1f1a17;fill-rule:nonzero;stroke:#1f1a17;stroke-width:3.57141805" />
    <path
       style="fill:none"
       inkscape:connector-curvature="0"
       id="path11198-0-0-9"
       d="m 110.20636,886.68676 c -3.32599,-18.10842 -23.598943,-14.03946 -33.965257,-10.99638 -18.025555,5.28609 -16.092996,53.26363 -16.162617,70.15016 -0.139352,33.776 -0.292658,70.91586 -1.564109,104.68716"
       class="fil2" />
    <rect
       style="fill:#00923f;fill-opacity:1;fill-rule:evenodd;stroke:#72706f;stroke-width:4.48532057"
       id="rect11194-1-9-8-5"
       ry="7.1397452"
       rx="20.51511"
       height="41.434319"
       width="201.05956"
       y="-25.661098"
       x="857.39685"
       class="fil0 str0"
       transform="matrix(0.16064996,0.98701144,-0.9867834,0.16204481,0,0)" />
    <path
       sodipodi:nodetypes="ccccccscccc"
       id="_81851448-2-3-0-8"
       class="fil1 str1"
       d="m 165.09245,858.71324 c -2.25248,-10.11627 -1.08006,-15.34819 -7.23632,-16.09308 -14.69458,0.89299 -31.50559,5.34327 -32.77586,13.69214 6.1117,48.51777 15.57672,95.64664 21.20536,144.9908 l 0.79304,-0.2659 -22.9972,-124.26727 c 0.008,-4.0564 -1.29758,-7.61507 -1.79119,-10.67324 -2.0707,-12.82682 -5.84178,-17.56946 1.40878,-20.52166 15.68676,-5.5139 32.44101,-8.96003 40.75048,-4.02507 4.09261,2.72019 2.12962,21.20212 2.78525,29.45603 z"
       inkscape:connector-curvature="0"
       style="fill:#000000;fill-opacity:1;fill-rule:nonzero;stroke:#1f1a17;stroke-width:3.27968311" />
    <path
       style="fill:none"
       inkscape:connector-curvature="0"
       id="path11198-0-0-9-8"
       d="m 169.88327,885.36458 c -3.3261,-18.10842 -23.59893,-14.03947 -33.96536,-10.99638 -18.02556,5.28609 -16.09288,53.26364 -16.1625,70.15018 -0.13947,33.776 -0.29266,70.91582 -1.56423,104.68712"
       class="fil2" />
    <rect
       style="fill:#00923f;fill-opacity:1;fill-rule:evenodd;stroke:#72706f;stroke-width:0.74432784"
       id="rect11194-1-9-8-5-8"
       ry="1.2593417"
       rx="3.2029831"
       height="7.3083797"
       width="31.391029"
       y="847.15741"
       x="87.737648"
       class="fil0 str0"
       transform="matrix(0.99997263,0.00739817,-0.00454541,0.99998967,0,0)" />
    <rect
       style="fill:#00923f;fill-opacity:1;fill-rule:evenodd;stroke:#72706f;stroke-width:0.74432784"
       id="rect11194-1-9-8-5-8-8"
       ry="1.2593417"
       rx="3.2029831"
       height="7.3083797"
       width="31.391029"
       y="857.55017"
       x="87.755066"
       class="fil0 str0"
       transform="matrix(0.99997263,0.00739817,-0.00454541,0.99998967,0,0)" />
    <rect
       style="fill:#b8db7c;fill-opacity:1;fill-rule:evenodd;stroke:#72706f;stroke-width:0.74432784"
       id="rect11194-1-9-8-5-8-84"
       ry="1.2593417"
       rx="3.2029831"
       height="7.3083792"
       width="31.391029"
       y="875.80542"
       x="-39.884022"
       class="fil0 str0"
       transform="matrix(0.98159331,-0.19098318,0.19378271,0.98104447,0,0)" />
    <rect
       style="fill:#b8db7c;fill-opacity:1;fill-rule:evenodd;stroke:#72706f;stroke-width:0.74432784"
       id="rect11194-1-9-8-5-8-8-1"
       ry="1.2593417"
       rx="3.2029831"
       height="7.3083792"
       width="31.391029"
       y="886.19824"
       x="-39.866619"
       class="fil0 str0"
       transform="matrix(0.98159331,-0.19098318,0.19378271,0.98104447,0,0)" />
  </g>
</svg>
