<?xml version="1.0" encoding="UTF-8" standalone="no"?>
<!-- Created with Inkscape (http://www.inkscape.org/) -->

<svg
   xmlns:dc="http://purl.org/dc/elements/1.1/"
   xmlns:cc="http://creativecommons.org/ns#"
   xmlns:rdf="http://www.w3.org/1999/02/22-rdf-syntax-ns#"
   xmlns:svg="http://www.w3.org/2000/svg"
   xmlns="http://www.w3.org/2000/svg"
   xmlns:sodipodi="http://sodipodi.sourceforge.net/DTD/sodipodi-0.dtd"
   xmlns:inkscape="http://www.inkscape.org/namespaces/inkscape"
   width="256"
   height="256"
   id="svg8370"
   version="1.1"
   inkscape:version="0.48.3.1 r9886"
   sodipodi:docname="huayra-menu-accesories.svg">
  <defs
     id="defs8372" />
  <sodipodi:namedview
     id="base"
     pagecolor="#ffffff"
     bordercolor="#666666"
     borderopacity="1.0"
     inkscape:pageopacity="0.0"
     inkscape:pageshadow="2"
     inkscape:zoom="1.2074495"
     inkscape:cx="161.11833"
     inkscape:cy="59.05242"
     inkscape:document-units="px"
     inkscape:current-layer="layer1"
     showgrid="false"
     inkscape:window-width="1438"
     inkscape:window-height="827"
     inkscape:window-x="0"
     inkscape:window-y="25"
     inkscape:window-maximized="1" />
  <metadata
     id="metadata8375">
    <rdf:RDF>
      <cc:Work
         rdf:about="">
        <dc:format>image/svg+xml</dc:format>
        <dc:type
           rdf:resource="http://purl.org/dc/dcmitype/StillImage" />
        <dc:title />
      </cc:Work>
    </rdf:RDF>
  </metadata>
  <g
     inkscape:label="Capa 1"
     inkscape:groupmode="layer"
     id="layer1"
     transform="translate(0,-796.36218)">
    <path
       inkscape:connector-curvature="0"
       d="m 144.92784,908.92578 c 25.58621,-29.78093 31.11406,-51.54676 39.77935,-49.46375 6.77409,1.62815 3.51882,6.52253 21.41957,9.97576 17.18749,3.31566 34.74836,-8.59778 38.39662,-22.9714 4.85933,-14.08816 -3.01687,-31.79573 -20.63817,-36.16707 -17.43831,-5.32829 -38.22384,3.33245 -44.42836,17.99571 -8.99057,16.76312 -13.60057,38.90236 -42.65658,57.9046 l -22.30218,14.58507 -77.180406,91.99434 c -8.62953,11.89386 -13.811036,27.71676 -2.62207,42.77976 L 144.92784,908.92578 z m 82.80014,-55.52615 c -14.86414,12.51956 -41.15969,4.88436 -41.11505,-11.82777 -1.05229,-15.37563 21.08271,-29.37881 37.53625,-20.60224 13.85384,6.15378 13.75425,23.85952 3.5788,32.43001 z"
       id="path48999-9"
       sodipodi:nodetypes="cccccczcccccccc"
       style="fill:#000000;fill-opacity:1;fill-rule:evenodd;stroke:none;stroke-width:60.82713699;marker-start:none" />
    <path
       inkscape:connector-curvature="0"
       d="m 147.15193,912.97498 c 25.58615,-29.78092 31.11407,-51.54676 39.7793,-49.46375 6.77414,1.62814 3.51887,6.52253 21.41951,9.97577 17.18758,3.31565 34.74833,-8.59779 38.39659,-22.97141 4.85943,-14.08816 -3.01675,-31.79572 -20.63817,-36.16708 -17.43828,-5.32828 -38.22369,3.33246 -44.42838,17.99572 -8.99052,16.76312 -13.60057,38.90235 -42.65648,57.90459 L 116.72213,904.8339 39.541777,996.82823 C 30.912192,1008.7221 25.73063,1024.545 36.919652,1039.6081 L 147.15193,912.97498 z m 82.80001,-55.52615 c -14.86405,12.51955 -41.15962,4.88436 -41.11492,-11.82778 -1.05246,-15.37562 21.08265,-29.3788 37.53622,-20.60224 13.85384,6.15379 13.75426,23.85953 3.5787,32.43002 z"
       id="path48999"
       sodipodi:nodetypes="cccccczcccccccc"
       style="fill:#b8db7c;fill-opacity:1;fill-rule:evenodd;stroke:#737373;stroke-width:4.41913891;stroke-miterlimit:4;stroke-opacity:1;marker-start:none" />
    <path
       inkscape:connector-curvature="0"
       d="M 112.12141,910.77572 C 86.613533,880.94671 81.143732,859.17053 72.472741,861.23723 c -6.77799,1.61544 -3.535295,6.51585 -21.445598,9.93548 -17.196594,3.28335 -34.725458,-8.66316 -38.336069,-23.04361 -4.8217468,-14.09715 3.101115,-31.78996 20.733902,-36.12808 17.452263,-5.2955 38.214827,3.40428 44.380516,18.07927 8.945878,16.77982 13.497928,38.92783 42.503388,57.98452 l 22.2639,14.62722 76.93675,92.13929 c 8.59836,11.91008 13.73841,27.74268 2.50982,42.78468 L 112.12141,910.77572 z M 29.46807,855.09395 c 14.83148,12.54745 41.146706,4.96178 41.146147,-11.7504 1.093135,-15.37358 -21.004936,-29.41839 -37.482066,-20.67288 -13.869646,6.12776 -13.816735,23.83362 -3.664081,32.42328 z"
       id="path49000-2"
       sodipodi:nodetypes="cccccczcccccccc"
       style="fill:#000000;fill-opacity:1;fill-rule:evenodd;stroke:none;stroke-width:60.82713699;marker-start:none" />
    <path
       inkscape:connector-curvature="0"
       d="M 107.72781,913.78691 C 82.219937,883.95789 76.750128,862.18171 68.079141,864.24839 61.301095,865.86386 64.54379,870.76426 46.633543,874.1839 29.436949,877.46724 11.908085,865.52073 8.2974742,851.14028 3.475727,837.04313 11.398477,819.35032 29.031264,815.01219 c 17.452375,-5.29549 38.214883,3.4043 44.380628,18.07929 8.945882,16.7798 13.49782,38.92783 42.503388,57.98452 l 22.2639,14.62723 76.93675,92.13929 c 8.59824,11.91008 13.7383,27.74268 2.50971,42.78468 L 107.72781,913.78691 z M 25.074358,858.10512 c 14.831536,12.54745 41.146818,4.9618 41.146259,-11.75038 1.093135,-15.37358 -21.004936,-29.41839 -37.482066,-20.67289 -13.869757,6.12777 -13.81679,23.83362 -3.664193,32.42327 z"
       id="path49000"
       sodipodi:nodetypes="cccccczcccccccc"
       style="fill:#00923f;fill-opacity:1;fill-rule:evenodd;stroke:#737373;stroke-width:4.41916323;stroke-miterlimit:4;stroke-opacity:1;stroke-dasharray:none;marker-start:none" />
    <g
       style="fill-rule:evenodd"
       id="g4651"
       transform="matrix(0.07906768,0,0,0.06675465,1171.7548,509.77173)">
      <path
         class="fil0 str0"
         d="m -13066.036,6085.9625 c 0,75.2935 -60.488,136.3365 -135.102,136.3365 -74.569,0 -135.057,-61.043 -135.057,-136.3365 -4.916,-73.6355 55.572,-134.6266 135.057,-136.264 74.614,0 135.102,60.9869 135.102,136.264 z"
         id="path4782-0-5"
         inkscape:connector-curvature="0"
         style="fill:#b8db7c;fill-opacity:1;fill-rule:nonzero;stroke:#72706f;stroke-width:1.04325426" />
      <g
         transform="matrix(0.29674745,0,0,0.29674745,-13643.991,5496.0286)"
         id="_79162808-7-1"
         style="fill-rule:evenodd">
        <path
           id="_79208600-8-1"
           class="fil2 str1"
           d="m 1174.98,1651.34 c 151.696,-168.739 458.797,-203.52 633.996,-48.7652 159.776,141.131 194.279,398.256 110.052,588.573 -31.009,70.077 -79.3992,135.265 -144.688,177.062 -45.5367,29.1563 -99.7324,38.5992 -151.819,53.1059 l -1.4871,-6.6832 c 91.9078,-46.902 167.68,-86.6402 220.45,-180.292 90.798,-161.13 68.1211,-381.408 -37.834,-530.129 -149.457,-209.774 -430.591,-162.159 -628.67,-52.8715 z"
           inkscape:connector-curvature="0"
           style="fill:#1f1a17;stroke:#1f1a17;stroke-width:2.34375" />
      </g>
      <path
         class="fil3"
         d="m -13295.321,5986.0596 c 19.172,-24.6497 94.297,-39.3446 121.706,-35.4329 126.955,18.1199 141.45,233.8483 10.88,262.9295"
         id="path4788-1-1"
         inkscape:connector-curvature="0"
         style="fill:none" />
    </g>
  </g>
</svg>
