<?xml version="1.0" encoding="UTF-8" standalone="no"?>
<!-- Created with Inkscape (http://www.inkscape.org/) -->

<svg
   xmlns:dc="http://purl.org/dc/elements/1.1/"
   xmlns:cc="http://creativecommons.org/ns#"
   xmlns:rdf="http://www.w3.org/1999/02/22-rdf-syntax-ns#"
   xmlns:svg="http://www.w3.org/2000/svg"
   xmlns="http://www.w3.org/2000/svg"
   xmlns:sodipodi="http://sodipodi.sourceforge.net/DTD/sodipodi-0.dtd"
   xmlns:inkscape="http://www.inkscape.org/namespaces/inkscape"
   width="256"
   height="256"
   id="svg8370"
   version="1.1"
   inkscape:version="0.48.3.1 r9886"
   sodipodi:docname="huayra-menu-office.svg">
  <defs
     id="defs8372" />
  <sodipodi:namedview
     id="base"
     pagecolor="#ffffff"
     bordercolor="#666666"
     borderopacity="1.0"
     inkscape:pageopacity="0.0"
     inkscape:pageshadow="2"
     inkscape:zoom="0.75462566"
     inkscape:cx="499.39614"
     inkscape:cy="-32.855009"
     inkscape:document-units="px"
     inkscape:current-layer="layer1"
     showgrid="false"
     inkscape:window-width="1438"
     inkscape:window-height="827"
     inkscape:window-x="0"
     inkscape:window-y="25"
     inkscape:window-maximized="1" />
  <metadata
     id="metadata8375">
    <rdf:RDF>
      <cc:Work
         rdf:about="">
        <dc:format>image/svg+xml</dc:format>
        <dc:type
           rdf:resource="http://purl.org/dc/dcmitype/StillImage" />
        <dc:title></dc:title>
      </cc:Work>
    </rdf:RDF>
  </metadata>
  <g
     inkscape:label="Capa 1"
     inkscape:groupmode="layer"
     id="layer1"
     transform="translate(0,-796.36218)">
    <path
       style="fill:none"
       inkscape:connector-curvature="0"
       id="path11198-0-0-4-2-8"
       d="m 143.79825,946.06524 c -9.88562,18.46182 0.25952,19.08367 6.03933,18.4605 10.04691,-1.07828 38.83193,-48.431 49.2461,-64.92742 20.83002,-32.9957 43.73481,-69.27743 64.98867,-102.01168"
       class="fil2" />
    <path
       style="fill:#b8db7c;fill-opacity:1;fill-rule:evenodd;stroke:#737373;stroke-width:5.02590466;stroke-miterlimit:4;stroke-opacity:1;stroke-dasharray:none"
       inkscape:connector-curvature="0"
       id="path6168"
       d="m 44.322326,1034.3811 1.078208,1.8913 c 4.635931,8.1313 15.667391,11.1812 23.568741,6.7574 l 1.86985,-1.0459 c 11.77999,-6.5971 89.639065,-153.71743 100.054595,-159.55083 l 1.86984,-1.0459 c 9.37094,-5.24804 17.69917,-2.42863 25.65439,-6.88257 l 1.86723,-1.04578 c 16.62367,-9.3075 15.22298,-23.77404 13.7154,-38.35961 l -16.73224,15.75543 c -1.20286,1.24243 -1.56334,1.12851 -4.82166,-0.34075 l -18.10464,-7.42863 c -4.52559,-15.02646 -6.31422,-21.04475 -3.91059,-23.26801 l 15.65769,-14.49165 c -8.30431,-5.37336 -18.97781,-5.58748 -30.36099,0.78659 -25.66043,14.36767 -5.11323,46.80161 -12.33225,61.31951 -7.98966,16.06349 -24.71314,38.86934 -35.29831,54.73374 -12.289032,18.41704 -24.312895,36.15263 -36.350955,54.43311 -7.35598,11.1699 -34.883749,44.69985 -27.425144,57.78245 z"
       class="fil2" />
    <path
       style="fill:#000000;fill-rule:evenodd;stroke:none"
       d="m 171.24971,819.699 c 0.11222,-0.0272 0.6293,2.02927 1.42835,5.58575 0.39953,1.77825 1.00367,3.99841 1.5339,6.45197 0.53002,2.45357 1.38816,4.73844 2.03333,7.71702 l 0.53618,0.93827 c 3.46241,1.73308 6.82513,3.11628 10.1297,4.59001 2.73205,1.21177 5.46316,2.52113 8.27487,3.45264 l 1.31038,-0.80971 c 4.74859,-4.77649 7.22184,-6.32071 10.19631,-9.1914 2.97445,-2.87068 5.04401,-4.47846 5.12941,-4.37448 0.0855,0.10398 -1.58985,1.95174 -4.52632,4.99613 -2.93636,3.04438 -6.64932,7.28546 -11.54771,12.16318 0,0 -0.64308,0.52383 -0.64308,0.52385 -2.92686,-1.19037 -5.89234,-2.99067 -9.13083,-4.32324 -3.64061,-1.49804 -7.13163,-2.94583 -10.35727,-4.29739 0,0.001 0,0.001 0,0 l 0,0 c -0.11912,-0.19093 -0.18562,-0.28724 -0.20336,-0.28669 l 0,0 c -0.0342,-0.11912 -0.0562,-0.22109 -0.0743,-0.30356 l -0.052,-0.10538 c -0.18603,-0.82415 -0.29366,-1.52731 -0.45162,-2.31314 l 0,0 c -0.60215,-2.9938 -1.13594,-5.76448 -1.59862,-8.23623 -0.46238,-2.47177 -0.93111,-4.73133 -1.24316,-6.53102 -0.62439,-3.59938 -0.78829,-5.61937 -0.67607,-5.64657 z"
       id="path6243"
       inkscape:connector-curvature="0"
       sodipodi:nodetypes="ccsccccccssccscccccccccsccc" />
    <path
       sodipodi:nodetypes="ccccccscccc"
       id="_81851448-2-3-5-3-3"
       class="fil1 str1"
       d="m 55.418255,1003.4948 c -8.419685,14.4958 -13.471431,20.8158 -12.304421,24.8997 2.945134,7.0642 21.203121,27.6595 32.166511,4.6101 41.780385,-67.16029 51.060305,-81.83899 93.727515,-149.84754 l -0.47563,-0.048 -74.568402,123.37784 c -3.647823,5.3539 -6.456693,10.7114 -9.057853,14.9993 -10.90993,17.9844 -14.04727,26.1475 -18.86333,26.3957 -9.63486,-0.6163 -27.813815,-10.6916 -25.857453,-21.394 1.223808,-5.6538 18.419343,-29.07632 25.641643,-40.30835 z"
       inkscape:connector-curvature="0"
       style="fill:#1f1a17;fill-rule:nonzero;stroke:#1f1a17;stroke-width:3.01758838;stroke-linecap:round" />
    <path
       style="fill:#00923f;fill-opacity:1;fill-rule:nonzero;stroke:#72706f;stroke-width:0.08690586"
       inkscape:connector-curvature="0"
       id="path4782-0-5-4"
       d="m 76.512545,1021.1313 c 0,6.2722 -5.0388,11.3573 -11.25436,11.3573 -6.21179,0 -11.25058,-5.0851 -11.25058,-11.3573 -0.40955,-6.134 4.62924,-11.2148 11.25058,-11.3511 6.21556,0 11.25436,5.0803 11.25436,11.3511 z"
       class="fil0 str0" />
    <path
       id="_79208600-8-1-5"
       class="fil2 str1"
       d="m 57.412745,1012.8091 c 3.74991,-4.1712 11.3414,-5.0309 15.67229,-1.2054 3.94964,3.4887 4.80255,9.8448 2.72047,14.5494 -0.76654,1.7323 -1.96274,3.3438 -3.57667,4.377 -1.12566,0.7207 -2.46537,0.9542 -3.75294,1.3127 l -0.0367,-0.1652 c 2.27194,-1.1594 4.14502,-2.1417 5.44948,-4.4568 2.24452,-3.9831 1.68395,-9.4283 -0.93525,-13.1047 -3.69455,-5.1856 -10.64414,-4.0085 -15.54062,-1.307 z"
       inkscape:connector-curvature="0"
       style="fill:#1f1a17;fill-rule:evenodd;stroke:#1f1a17;stroke-width:0.05793716" />
    <path
       style="fill:none"
       inkscape:connector-curvature="0"
       id="path4788-1-1-9"
       d="m 57.412485,1012.8091 c 1.59706,-2.0533 7.85521,-3.2775 10.13846,-2.9516 10.57568,1.5094 11.78312,19.4801 0.90637,21.9027"
       class="fil3" />
  </g>
</svg>
