<?xml version="1.0" encoding="UTF-8" standalone="no"?>
<!-- Created with Inkscape (http://www.inkscape.org/) -->

<svg
   xmlns:dc="http://purl.org/dc/elements/1.1/"
   xmlns:cc="http://creativecommons.org/ns#"
   xmlns:rdf="http://www.w3.org/1999/02/22-rdf-syntax-ns#"
   xmlns:svg="http://www.w3.org/2000/svg"
   xmlns="http://www.w3.org/2000/svg"
   xmlns:sodipodi="http://sodipodi.sourceforge.net/DTD/sodipodi-0.dtd"
   xmlns:inkscape="http://www.inkscape.org/namespaces/inkscape"
   width="256"
   height="256"
   id="svg8370"
   version="1.1"
   inkscape:version="0.48.3.1 r9886"
   sodipodi:docname="huayra-menu-accesibility.svg">
  <defs
     id="defs8372" />
  <sodipodi:namedview
     id="base"
     pagecolor="#ffffff"
     bordercolor="#666666"
     borderopacity="1.0"
     inkscape:pageopacity="0.0"
     inkscape:pageshadow="2"
     inkscape:zoom="0.56295665"
     inkscape:cx="200.06319"
     inkscape:cy="149.34294"
     inkscape:document-units="px"
     inkscape:current-layer="layer1"
     showgrid="false"
     inkscape:window-width="1438"
     inkscape:window-height="827"
     inkscape:window-x="0"
     inkscape:window-y="25"
     inkscape:window-maximized="1" />
  <metadata
     id="metadata8375">
    <rdf:RDF>
      <cc:Work
         rdf:about="">
        <dc:format>image/svg+xml</dc:format>
        <dc:type
           rdf:resource="http://purl.org/dc/dcmitype/StillImage" />
        <dc:title></dc:title>
      </cc:Work>
    </rdf:RDF>
  </metadata>
  <g
     inkscape:label="Capa 1"
     inkscape:groupmode="layer"
     id="layer1"
     transform="translate(0,-796.36218)">
    <g
       style="fill-rule:evenodd"
       id="g7240"
       transform="matrix(0.08576324,0,0,0.08576324,1215.7853,137.11785)">
      <rect
         style="fill:#00923f;fill-rule:evenodd;stroke:#72706f;stroke-width:41.54473495"
         class="fil0 str0"
         x="-13723.428"
         y="10024.235"
         width="2119.5435"
         height="337.19995"
         rx="216.26758"
         ry="216.26758"
         id="rect7040" />
      <g
         transform="matrix(10.005162,0,0,10.005162,-14171.718,7719.4466)"
         id="_81071816"
         style="fill-rule:evenodd">
        <path
           style="fill:#1f1a17;stroke:#1f1a17;stroke-width:2.76821995"
           inkscape:connector-curvature="0"
           id="_81851448"
           class="fil1 str1"
           d="m 59.6039,230.051 c -3.74401,1.73014 -8.07074,3.13777 -9.877,7.20844 -3.85197,8.67559 2.12045,18.4086 10.7005,20.3021 17.8536,3.94194 35.764,2.04433 53.8654,2.48586 l 96.4558,4.68936 -0.008,0.3571 -133.057005,1.50314 c -8.38908,-0.80002 -26.4005,-2.19796 -30.2248,-12.4431 -2.49555,-6.68248 -4.19939,-16.3962 2.28101,-21.4592 3.09902,-2.42357 6.12191,-2.57444 9.86454,-2.64365 z" />
      </g>
      <path
         style="fill:none"
         inkscape:connector-curvature="0"
         class="fil2"
         d="m -13575.371,10021.164 c -166.788,23.251 -128.512,161.748 -100.068,232.54 49.411,123.097 491.571,108.529 647.225,108.529 311.336,0 653.678,0 965.014,7.741"
         id="path7044" />
      <rect
         style="fill:#b8db7c;fill-rule:evenodd;stroke:#72706f;stroke-width:68.90184784"
         y="8110.6284"
         x="-14152.638"
         class="fil3 str0"
         transform="matrix(0.99999573,-0.00292343,0.00714097,0.9999745,0,0)"
         width="2818.2637"
         height="1860.4894"
         rx="447.3425"
         ry="286.2283"
         id="rect7046" />
      <g
         transform="matrix(10.005162,0,0,10.005162,-14171.718,7719.4466)"
         id="_45158744"
         style="fill-rule:evenodd">
        <path
           style="fill:#1f1a17;stroke:#1f1a17;stroke-width:2.76821995"
           inkscape:connector-curvature="0"
           id="_80379776"
           class="fil1 str1"
           d="m 290.378,109.933 3.95025,51.7629 c -0.74604,23.0053 0.3917,57.3367 -27.6766,64.5922 -9.51159,2.45818 -19.3069,3.73848 -29.1313,3.87689 l -97.1727,-1.6111 -0.0111,-0.60486 97.0537,-5.05753 c 12.1428,-0.76541 25.7001,-1.96543 36.2789,-8.73096 15.239,-9.74828 14.0833,-38.3813 15.3733,-52.7373 l 1.33566,-51.4902 z" />
      </g>
      <path
         style="fill:none"
         inkscape:connector-curvature="0"
         class="fil2"
         d="m -11266.459,8819.3441 c 38.858,160.903 19.014,882.2011 -68.978,1002.9674 -81.58,111.9768 -248.811,159.8365 -460.523,163.5894 l -971.619,17.2411"
         id="path7050" />
      <g
         transform="matrix(10.005162,0,0,10.005162,-14171.718,7719.4466)"
         id="_81827144"
         style="fill-rule:evenodd">
        <path
           style="fill:#1f1a17;stroke:#1f1a17;stroke-width:2.76821995"
           inkscape:connector-curvature="0"
           id="_80692792"
           class="fil1 str1"
           d="M 132.574,42.733 C 97.7263,44.02714 55.9581,39.29349 25.199,59.28 17.05352,64.57145 13.6721,75.5474 12.85,84.5607 l -1.39518,41.4194 -2.91216,28.7535 -0.546723,0 -1.15711,-56.581 c -0.175782,-14.2508 -1.60418,-29.8981 9.1891,-41.1191 11.3054,-11.7539 27.6406,-15.5325 43.3489,-17.1463 24.7686,-2.54261 48.572503,0.573021 73.197203,2.84573 z" />
      </g>
      <path
         style="fill:none"
         inkscape:connector-curvature="0"
         class="fil2"
         d="m -12845.304,8146.9972 c -171.012,0 -373.569,-20.8278 -544.11,-11.494 -532.465,29.1366 -720.801,171.9257 -684.02,563.1655 7.076,75.3898 -15.552,482.7081 -15.552,568.9125"
         id="path7054" />
      <rect
         style="fill:#00923f;fill-rule:evenodd;stroke:#72706f;stroke-width:39.28242493"
         y="8576.4316"
         x="11823.282"
         class="fil0 str0"
         transform="matrix(-0.99999573,-0.00292344,-0.00714095,0.9999745,0,0)"
         width="1606.7489"
         height="1060.7075"
         rx="255.03897"
         ry="163.1853"
         id="rect7056" />
      <path
         style="fill:none"
         inkscape:connector-curvature="0"
         class="fil2"
         d="m -13493.695,8935.0338 c -22.157,91.7445 -10.843,502.9675 39.315,571.821 46.516,63.8403 141.861,91.1213 262.562,93.2678 l 553.943,9.8184"
         id="path7060" />
      <g
         transform="matrix(10.005162,0,0,10.005162,-14162.118,7706.6462)"
         id="_81273224"
         style="fill-rule:evenodd">
        <path
           style="fill:#1f1a17;stroke:#1f1a17;stroke-width:2.76821995"
           inkscape:connector-curvature="0"
           id="_80885408"
           class="fil1 str1"
           d="m 157.733,83.1835 c 19.8675,0.739114 43.6811,-1.96128 61.2177,9.43408 4.6423,3.01736 6.57175,9.27491 7.04096,14.4127 l 0.79448,23.6157 1.65955,16.392 0.31281,0 0.66022,-32.258 c 0.0996,-8.12472 0.91489,-17.0453 -5.23885,-23.4426 -6.44579,-6.70324 -15.7595,-8.85691 -24.7146,-9.77596 -14.1207,-1.44916 -27.6919,0.32665 -41.7323,1.62218 z" />
      </g>
      <path
         style="fill:none"
         inkscape:connector-curvature="0"
         class="fil2"
         d="m -12593.564,8551.711 c 97.492,0 212.972,-11.8679 310.214,-6.5502 303.567,16.6041 410.946,98.0178 389.966,321.0717 -4.029,42.9848 8.863,275.206 8.863,324.3533"
         id="path7064" />
      <path
         id="rect11194-1-9-4-1-0"
         d="m -12022.312,8643.0625 c -52.91,0.6283 -345.787,156.0738 -693.532,369.0937 -393.91,-221.8223 -715.939,-375.5671 -731.218,-348.1562 l -17.344,31.125 c -14.321,25.6909 245.86,201.4511 601.437,408.625 -319.719,202.3083 -550.491,370.7322 -536.093,393.875 l 17.781,28.5625 c 15.364,24.6963 304.194,-125.1607 660,-341.1563 402.924,227.8486 735.62,387.278 751.156,359.4063 l 17.344,-31.0937 c 14.573,-26.1451 -255.199,-207.727 -620.438,-419.6563 340.517,-213.4953 591.561,-395.2665 576.563,-419.375 l -17.782,-28.5625 c -1.142,-1.8358 -3.795,-2.7359 -7.874,-2.6875 z"
         style="fill:#b8db7c;fill-opacity:1;fill-rule:evenodd;stroke:#72706f;stroke-width:25.21273041"
         inkscape:connector-curvature="0" />
      <path
         class="fil2"
         d="m -12504.875,9334.5027 c 125.842,55.4034 173.636,-74.9078 192.027,-145.4806 32.015,-122.6915 -276.504,-308.0552 -382.378,-377.5025 -211.767,-138.907 -444.626,-291.647 -652.266,-436.8824"
         id="path11198-0-0-4-1-7"
         inkscape:connector-curvature="0"
         style="fill:none" />
      <g
         id="_81071816-4-0-1-8-7-1-2"
         style="fill-rule:evenodd"
         transform="matrix(5.904347,3.9342459,-2.4709268,3.8050296,-13134.953,7538.4829)">
        <path
           sodipodi:nodetypes="ccccccscccc"
           id="_81851448-2-3-5-9-1-5-5"
           class="fil1 str1"
           d="m 68.39974,236.01522 c -10.787269,0.4087 -16.317644,4.25838 -18.123904,8.32905 -1.563725,10.00963 0.346974,12.34616 8.721006,14.11955 58.834218,-0.77576 26.516365,-1.14552 76.431578,-5.15286 l 1.49642,0.48953 -54.155425,5.64808 c -4.172467,-0.45153 -14.756442,1.33323 -17.099287,1.62992 -3.938657,0.49878 -14.391687,-0.71156 -16.203813,-5.92622 -1.511194,-4.48342 -2.410627,-11.57071 1.790033,-16.66813 3.489669,-2.46187 24.991623,-7.56204 33.593305,-7.09812 z"
           inkscape:connector-curvature="0"
           style="fill:#1f1a17;fill-rule:nonzero;stroke:#1f1a17;stroke-width:2.76821995" />
      </g>
      <g
         id="_81071816-4-0-1-8-7-1-2-2"
         style="fill-rule:evenodd"
         transform="matrix(-5.904347,-3.9342459,2.4709268,-3.8050296,-12286.874,10668.517)">
        <path
           sodipodi:nodetypes="ccccccscccc"
           id="_81851448-2-3-5-9-1-5-5-5"
           class="fil1 str1"
           d="m 68.39974,236.01522 c -10.787269,0.4087 -16.317644,4.25838 -18.123904,8.32905 -1.563725,10.00963 0.346974,12.34616 8.721006,14.11955 58.834218,-0.77576 26.516365,-1.14552 76.431578,-5.15286 l 1.49642,0.48953 -54.155425,5.64808 c -4.172467,-0.45153 -14.756442,1.33323 -17.099287,1.62992 -3.938657,0.49878 -14.391687,-0.71156 -16.203813,-5.92622 -1.511194,-4.48342 -2.410627,-11.57071 1.790033,-16.66813 3.489669,-2.46187 24.991623,-7.56204 33.593305,-7.09812 z"
           inkscape:connector-curvature="0"
           style="fill:#1f1a17;fill-rule:nonzero;stroke:#1f1a17;stroke-width:2.76821995" />
      </g>
    </g>
  </g>
</svg>
