<?xml version="1.0" encoding="UTF-8" standalone="no"?>
<!-- Created with Inkscape (http://www.inkscape.org/) -->

<svg
   xmlns:dc="http://purl.org/dc/elements/1.1/"
   xmlns:cc="http://creativecommons.org/ns#"
   xmlns:rdf="http://www.w3.org/1999/02/22-rdf-syntax-ns#"
   xmlns:svg="http://www.w3.org/2000/svg"
   xmlns="http://www.w3.org/2000/svg"
   xmlns:sodipodi="http://sodipodi.sourceforge.net/DTD/sodipodi-0.dtd"
   xmlns:inkscape="http://www.inkscape.org/namespaces/inkscape"
   width="256"
   height="256"
   id="svg8370"
   version="1.1"
   inkscape:version="0.48.3.1 r9886"
   sodipodi:docname="huayra-menu-office.svg">
  <defs
     id="defs8372" />
  <sodipodi:namedview
     id="base"
     pagecolor="#ffffff"
     bordercolor="#666666"
     borderopacity="1.0"
     inkscape:pageopacity="0.0"
     inkscape:pageshadow="2"
     inkscape:zoom="1.3629371"
     inkscape:cx="256.77496"
     inkscape:cy="129.84975"
     inkscape:document-units="px"
     inkscape:current-layer="layer1"
     showgrid="false"
     inkscape:window-width="1438"
     inkscape:window-height="827"
     inkscape:window-x="0"
     inkscape:window-y="25"
     inkscape:window-maximized="1" />
  <metadata
     id="metadata8375">
    <rdf:RDF>
      <cc:Work
         rdf:about="">
        <dc:format>image/svg+xml</dc:format>
        <dc:type
           rdf:resource="http://purl.org/dc/dcmitype/StillImage" />
        <dc:title />
      </cc:Work>
    </rdf:RDF>
  </metadata>
  <g
     inkscape:label="Capa 1"
     inkscape:groupmode="layer"
     id="layer1"
     transform="translate(0,-796.36218)">
    <g
       style="fill-rule:evenodd"
       id="g5108"
       transform="matrix(0.13618912,0.09368056,-0.09368056,0.13618912,3626.828,2035.0702)">
      <path
         id="path4962-8"
         d="m -21538.889,5753.9133 c -8.55,5.465 -13.414,11.7264 -13.427,18.4251 l -0.1,50.0035 c -0.04,21.4359 49.512,38.8019 111.106,38.9334 l 19.879,0.028 -144.856,727.6848 -16.125,-0.037 c -61.594,-0.1314 -111.203,17.0152 -111.249,38.4515 l -0.154,68.2324 c -0.04,21.4358 49.497,38.7795 111.091,38.911 l 572.342,1.2326 c 61.594,0.1314 111.226,-17.0299 111.271,-38.4662 l 0.147,-68.1954 c 0.04,-21.4357 -49.513,-38.8014 -111.106,-38.9333 l -8.855,-0.025 -113.064,-728.2008 14.289,0.03 c 61.593,0.132 111.226,-17.0297 111.271,-38.4656 l 0.09,-50.0036 c 0.04,-21.4363 -49.489,-38.8165 -111.083,-38.948 l -323.618,-0.6758 c -42.345,-0.091 -79.049,7.9947 -97.858,20.0183 z"
         style="fill:#b8db7c;fill-opacity:1;fill-rule:evenodd;stroke:#737373;stroke-width:25.7328167;stroke-linecap:butt;stroke-linejoin:miter;stroke-miterlimit:4;stroke-opacity:1;stroke-dasharray:none"
         inkscape:connector-curvature="0" />
      <path
         sodipodi:nodetypes="cccc"
         inkscape:connector-curvature="0"
         id="path4976-9"
         d="m -21389.186,6717.2633 101.893,696.1193 106.965,-693.661 z"
         style="fill:#00923f;fill-opacity:1;fill-rule:evenodd;stroke:#000000;stroke-width:0.49307019px;stroke-linecap:butt;stroke-linejoin:miter;stroke-opacity:1" />
      <path
         sodipodi:nodetypes="ccsscccccccccccssscccsccccccccccccccccccccccccccccccccccccccccccccccccccccccsccccccssaccc"
         inkscape:connector-curvature="0"
         id="path4978-4-5"
         d="m -21262.866,5856.6053 c 0,-0.3984 4.949,-0.8532 14.224,-1.3503 9.274,-0.4971 20.544,-3.368 37.815,-3.9588 17.268,-0.5901 38.215,-1.232 62.187,-2.0236 23.973,-0.7917 50.973,-1.7321 80.345,-3.0358 10.015,-0.4449 17.941,-3.0823 28.398,-3.8441 l 0,0 c 1.789,-0.1306 3.559,-0.2657 5.303,-0.4441 0.344,-0.035 0.671,-0.069 0.981,-0.1091 0,0.016 -0.03,0.024 -0.07,0.043 l 0,0 c 0.02,0 0.03,0 0.05,-0.01 0,-3e-4 0,0 0,0.01 l 0,0 c 1.929,-0.5148 3.861,-1.031 5.801,-1.5485 1.257,-0.6757 2.395,-1.6504 3.175,-2.854 2.38,-3.6763 3.042,-8.6423 3.225,-10.9771 1.273,-16.2086 1.884,-21.7765 1.494,-38.7026 -0.126,-5.4913 -0.409,-10.9503 -1.195,-16.2986 -5.262,-19.5475 -32.445,-25.0686 -49.006,-23.9684 -3.647,-0.01 -7.304,-0.028 -10.969,-0.059 -6.001,-0.049 -11.963,-0.1228 -17.884,-0.1908 -16.527,-0.1904 -17.445,1.3463 -33.376,1.1101 -43.829,-0.6906 -88.99,-1.4716 -127.75,-2.2664 -40.376,-0.9023 -82.186,-1.8144 -119.494,-2.9094 l 0,0 0,0 c -13.044,-0.4056 -26.567,-0.8245 -38.393,-1.2689 -3.667,-0.1412 -5.112,-1.0609 -8.333,-1.1972 -0.971,-0.042 -1.962,-0.084 -2.8,-0.1213 l 0,0 c -0.241,-0.011 -0.48,-0.021 -0.717,-0.032 l 0,0 0,0 0,0 c -0.07,0 -0.145,-0.01 -0.216,-0.01 l 0,0 c -0.02,0 -0.03,0 -0.04,0 0,-10e-5 0,-3e-4 0,-0.01 -15.569,-1.4053 -24.031,-6.6801 -24,-7.201 0.03,-0.5211 8.561,-0.5062 24.118,-0.028 0,0 0,0.01 0.02,0 0.02,0 0.03,0 0.04,3e-4 l 0,0 c 0.05,0 0.101,0 0.148,-0.01 l 0,0 0,0 0,0 c 0.238,4e-4 0.477,-0.01 0.718,-0.01 l 0,0 c 0.911,-0.013 1.846,-0.025 2.804,-0.037 l 0,0 c 3.291,-0.041 6.85,-0.075 10.672,-0.1051 l 0,0 c 10.81,-0.084 23.698,-0.125 38.414,-0.1241 l 0,0 0,0 0,0 c 32.039,0 72.742,0.2026 119.523,0.5769 l 0,0 c 38.882,0.3107 81.962,0.7475 127.755,1.2548 l 0,0 c 15.929,0.1764 32.183,0.3631 48.702,0.5366 5.945,0.063 11.918,0.1327 17.915,0.183 3.665,0.031 7.315,0.053 10.951,0.062 4.593,0.1009 9.269,0.3435 13.964,1.0175 3.774,0.5286 7.656,1.4177 11.426,2.9985 3.319,1.3963 6.427,3.4382 9.031,6.1195 3.745,2.2294 7.052,5.5865 8.401,9.0234 1.731,4.3864 2.687,8.8568 3.287,13.1836 0.829,5.8694 1.115,11.6717 1.207,17.3403 0.286,17.5855 -0.959,34.5899 -2.13,50.9405 -0.592,3.444 -1.931,6.8886 -4.167,9.8974 -1.838,2.2309 -6.467,4.697 -9.023,5.9687 -2.369,0.6306 -4.726,1.2576 -7.069,1.8806 0,5e-4 0,5e-4 0,5e-4 0,6e-4 0,-0.01 -0.02,0 -0.02,0 -0.04,0.01 -0.06,0.01 l 0,0 c -0.185,0.035 -0.362,0.069 -0.529,0.1001 -0.404,0.046 -0.791,0.084 -1.159,0.1179 -1.878,0.1724 -3.723,0.2959 -5.535,0.4092 l 0,0 c -12.038,2.0833 -21.708,3.5803 -31.697,4.5239 -28.734,2.7147 -55.038,2.7346 -81.914,1.697 -18.574,-0.7167 -40.099,0.7591 -60.124,-0.069 -13.422,-0.5562 -30.882,-3.05 -40.168,-3.2852 -9.285,-0.2354 -14.251,-0.5521 -14.257,-0.9502 z"
         style="fill:#000000;fill-rule:evenodd;stroke:none" />
      <path
         sodipodi:nodetypes="ccsscccccccccccccccccscccccccccccccccccccccccccccccccccccccccccccccccccccsccccccssaccc"
         inkscape:connector-curvature="0"
         id="path4978-4-2-4"
         d="m -21281.051,6594.4947 c 0,0.4525 -7.995,0.964 -22.978,1.519 -14.983,0.5547 -33.182,3.8027 -61.083,4.4556 -27.898,0.6526 -61.735,1.3601 -100.463,2.2346 -38.725,0.8741 -82.341,1.9142 -129.79,3.3642 -16.179,0.4949 -28.979,3.4813 -45.872,4.3361 l 0,0 c -2.891,0.1462 -5.75,0.2979 -8.567,0.4983 -0.557,0.04 -1.084,0.078 -1.583,0.1226 0.02,-0.015 0.05,-0.033 0.1,-0.048 l 0,0 c -0.03,0 -0.05,1e-4 -0.09,0.01 0,5e-4 0,0 -0.02,0 l 0,0 c -3.117,0.583 -6.237,1.1667 -9.369,1.7523 -2.03,0.766 -3.834,1.8876 -5.127,3.2373 -3.808,4.1881 -4.492,9.8499 -5.2,12.4612 -1.624,18.4238 -3.022,24.7245 -2.371,43.9436 0.207,6.2351 0.67,12.4333 1.947,18.5071 8.52,22.2008 32.873,16.6649 59.624,15.4337 5.893,0.012 11.8,0.033 17.722,0.081 9.693,0.063 19.324,0.1513 28.891,0.2354 26.7,0.2325 47.767,1.5901 73.5,1.8749 70.807,0.83 143.765,1.7632 206.381,2.7048 98.517,-2.5983 216.878,8.6313 255.048,13.6376 5.924,0.1645 8.258,1.2098 13.463,1.3685 1.567,0.055 3.171,0.094 4.524,0.1398 l 0,0 c 0.388,0.01 0.775,0.019 1.159,0.028 l 0,0 0,0 0,0 c 0.111,2e-4 0.233,0.01 0.348,0.01 l 0,0 c 0.03,0 0.05,-10e-5 0.07,0 0,0 0,0 0.02,0 25.153,1.6117 38.827,7.6097 38.777,8.2017 -0.04,0.5915 -13.829,0.5656 -38.96,0.01 0,0 -0.02,0 -0.03,0 -0.03,0 -0.05,0 -0.07,0 l 0,0 c -0.09,0 -0.162,-10e-5 -0.241,0.01 l 0,0 0,0 0,0 c -0.384,0 -0.77,0.01 -1.159,0.01 l 0,0 c -1.471,0.014 -2.982,0.019 -4.529,0.042 l 0,0 c -5.317,0.049 -11.068,0.08 -17.241,0.1099 l 0,0 c -17.463,0.083 -38.283,0.1163 -62.056,0.1004 l 0,0 0,0 0,0 c -51.759,-0.033 -117.514,-0.311 -193.089,-0.7771 l 0,0 c -62.813,-0.3933 -132.407,-0.9336 -206.386,-1.5563 l 0,0 c -25.732,-0.2163 -51.99,-0.445 -78.677,-0.659 -9.604,-0.081 -19.254,-0.1632 -28.942,-0.2267 -5.92,-0.039 -11.818,-0.059 -17.69,-0.089 -7.42,-0.1188 -14.974,-0.3997 -22.561,-1.1694 -6.097,-0.6039 -12.368,-1.6172 -18.462,-3.4155 -5.362,-1.5901 -10.386,-3.9112 -14.594,-6.9595 -4.431,-3.2902 -7.619,-7.1005 -9.801,-11.0037 -2.802,-4.9834 -4.35,-10.0596 -5.323,-14.973 -1.345,-6.6655 -1.812,-13.2543 -1.969,-19.6902 -0.478,-19.9688 1.514,-39.2751 3.39,-57.8395 0.953,-3.9099 3.112,-7.8198 6.721,-11.234 2.965,-2.5308 6.663,-4.5753 10.791,-6.0168 3.826,-0.7138 7.633,-1.4234 11.417,-2.1285 l 0,0 c 0,0 0.02,0 0.03,0 0.03,0 0.07,-0.01 0.1,-0.01 l 0,0 c 0.299,-0.04 0.585,-0.078 0.855,-0.113 0.653,-0.052 1.277,-0.095 1.873,-0.1331 3.032,-0.1941 6.012,-0.3319 8.939,-0.4586 l 0,0 c 19.446,-2.3533 35.066,-4.0435 51.202,-5.1047 46.416,-3.0526 88.909,-3.0482 132.328,-1.8426 30.006,0.8327 64.78,-0.8207 97.128,0.1412 21.685,0.6451 49.894,3.4947 64.894,3.7718 15,0.2767 23.022,0.6412 23.032,1.0935 z"
         style="fill:#000000;fill-rule:evenodd;stroke:none" />
      <path
         sodipodi:nodetypes="csccccccccccccccccccscc"
         inkscape:connector-curvature="0"
         id="path5022-5"
         d="m -21391.339,6716.7465 c 1.496,-0.1299 14.341,37.4648 26.294,86.194 16.065,65.4896 33.42,157.5184 47.015,266.185 17.996,138.6828 23.787,219.7933 30.086,334.3429 l 0,0 c 0.415,4.7852 0.616,8.1606 0.59,9.9952 l 0,0 c 0,0.6485 -0.04,1.1065 -0.111,1.3636 l 0,0 c -0.07,0.098 -0.101,0.1665 -0.12,0.2062 l 0,0 0,0 c -0.02,0.022 -0.03,0.026 -0.03,0.037 l 0,0 0,0 c 0,-0.018 -0.02,-0.026 -0.04,-0.035 l 0,0 0,0 c 0.205,-1.0015 -6.834,-18.7275 -7.594,-21.8485 -2.685,-12.9705 -13.852,-44.3682 -18.701,-74.6196 -10.04,-62.767 -18.052,-156.4576 -32.701,-257.9289 -27.361,-189.5278 -47.418,-343.5897 -44.681,-343.8973 z"
         style="fill:#000000;fill-rule:evenodd;stroke:none" />
    </g>
  </g>
</svg>
