<?xml version="1.0" encoding="UTF-8" standalone="no"?>
<!-- Created with Inkscape (http://www.inkscape.org/) -->

<svg
   xmlns:dc="http://purl.org/dc/elements/1.1/"
   xmlns:cc="http://creativecommons.org/ns#"
   xmlns:rdf="http://www.w3.org/1999/02/22-rdf-syntax-ns#"
   xmlns:svg="http://www.w3.org/2000/svg"
   xmlns="http://www.w3.org/2000/svg"
   xmlns:sodipodi="http://sodipodi.sourceforge.net/DTD/sodipodi-0.dtd"
   xmlns:inkscape="http://www.inkscape.org/namespaces/inkscape"
   width="256"
   height="256"
   id="svg5266"
   version="1.1"
   inkscape:version="0.48.3.1 r9886"
   sodipodi:docname="search.svg">
  <defs
     id="defs5268">
    <inkscape:path-effect
       effect="skeletal"
       id="path-effect5141"
       is_visible="true"
       pattern="M 0,5 C 0,2.24 2.24,0 5,0 7.76,0 10,2.24 10,5 10,7.76 7.76,10 5,10 2.24,10 0,7.76 0,5 z"
       copytype="single_stretched"
       prop_scale="1"
       scale_y_rel="false"
       spacing="0"
       normal_offset="0"
       tang_offset="0"
       prop_units="false"
       vertical_pattern="false"
       fuse_tolerance="0" />
  </defs>
  <sodipodi:namedview
     id="base"
     pagecolor="#ffffff"
     bordercolor="#666666"
     borderopacity="1.0"
     inkscape:pageopacity="0.0"
     inkscape:pageshadow="2"
     inkscape:zoom="0.80650413"
     inkscape:cx="361.88055"
     inkscape:cy="25.444726"
     inkscape:document-units="px"
     inkscape:current-layer="layer1"
     showgrid="false"
     inkscape:window-width="1438"
     inkscape:window-height="827"
     inkscape:window-x="0"
     inkscape:window-y="25"
     inkscape:window-maximized="1" />
  <metadata
     id="metadata5271">
    <rdf:RDF>
      <cc:Work
         rdf:about="">
        <dc:format>image/svg+xml</dc:format>
        <dc:type
           rdf:resource="http://purl.org/dc/dcmitype/StillImage" />
        <dc:title></dc:title>
      </cc:Work>
    </rdf:RDF>
  </metadata>
  <g
     inkscape:label="Capa 1"
     inkscape:groupmode="layer"
     id="layer1"
     transform="translate(0,-796.36218)">
    <rect
       id="rect7046-0-2-9-1-0-8-5-5-4-7-6"
       ry="54.51479"
       rx="36.867699"
       height="223.64012"
       width="232.267"
       transform="matrix(-0.00430507,-0.99999073,0.99998792,-0.00491528,0,0)"
       class="fil3 str0"
       x="-1042.1753"
       y="14.498597"
       style="fill:#b8db7c;fill-rule:evenodd;stroke:#72706f;stroke-width:6.85796165" />
    <path
       style="fill:#1f1a17;fill-rule:evenodd;stroke:#1f1a17;stroke-width:2.75670815"
       inkscape:connector-curvature="0"
       id="_80379776-7-7-5-7-9-6-2-5-9-3-6"
       class="fil1 str1"
       d="m 99.219022,809.00675 62.254498,-3.25855 c 27.66812,0.61479 68.95796,-0.32422 77.68513,22.81982 2.95688,7.8431 4.49688,15.91988 4.66385,24.0208 l -1.93429,80.12585 -0.7276,0.01 c -8.99352,-31.83657 -6.4472,-71.54182 -28.38641,-95.49892 -11.72426,-12.56538 -42.19862,-21.70128 -59.4643,-25.37667 l -54.090878,-2.84154 z"
       sodipodi:nodetypes="cccccccccc" />
    <path
       id="path7050-7-1-0-9-3-8-0-1-8-5-9"
       d="m 99.219172,809.00834 c 19.341618,-3.20295 106.046128,-1.56906 120.563588,5.6826 13.46074,6.72313 19.21419,20.50522 19.66612,37.95333 l 2.07586,80.07548"
       class="fil2"
       inkscape:connector-curvature="0"
       style="fill:none" />
    <path
       style="fill:#1f1a17;fill-rule:evenodd;stroke:#1f1a17;stroke-width:2.75670815"
       inkscape:connector-curvature="0"
       id="_80379776-7-7-5-5-8-0-9-9-8-7-3"
       class="fil1 str1"
       d="m 99.219022,809.00675 62.254498,-3.25855 c 27.66812,0.61479 68.95796,-0.32422 77.68513,22.81982 2.95688,7.8431 4.49688,15.91988 4.66385,24.0208 l -1.93429,80.12585 -0.7276,0.01 c -8.99352,-31.83657 -6.4472,-71.54182 -28.38641,-95.49892 -11.72426,-12.56538 -42.19862,-21.70128 -59.4643,-25.37667 l -54.090878,-2.84154 z"
       sodipodi:nodetypes="cccccccccc" />
    <path
       id="path7050-7-1-0-8-5-2-6-8-5-7-1"
       d="m 99.219172,809.00834 c 19.341618,-3.20295 106.046128,-1.56906 120.563588,5.6826 13.46074,6.72313 19.21419,20.50522 19.66612,37.95333 l 2.07586,80.07548"
       class="fil2"
       inkscape:connector-curvature="0"
       style="fill:none" />
    <g
       style="fill-rule:evenodd"
       id="g6681"
       transform="matrix(0.17236721,0,0,0.17236721,8359.1202,-2680.6936)">
      <path
         class="fil2"
         d="m -47535.47,21230.321 c 68.269,54.579 105.049,-8.084 120.667,-43.452 27.175,-61.48 -136.643,-222.583 -192.442,-281.084 -111.607,-117.011 -234.33,-245.676 -343.115,-365.387"
         id="path11198-0-0-4-1-1-4-7"
         inkscape:connector-curvature="0"
         style="fill:none" />
      <path
         class="fil2"
         d="m -47840.53,21294.165 c -36.664,91.291 8.902,79.389 34.465,68.523 44.437,-18.866 153.793,-257.92 193.614,-341.752 79.65,-167.679 167.234,-352.057 248.883,-519.248"
         id="path11198-0-0-4-2-88-5-1"
         inkscape:connector-curvature="0"
         style="fill:none" />
      <path
         sodipodi:nodetypes="csssc"
         inkscape:connector-curvature="0"
         id="path3582-0-0"
         d="m -47781.261,21145.375 c 3.374,44.279 -23.947,96.92 -68.226,100.294 -44.278,3.374 -82.907,-29.786 -86.281,-74.064 -3.374,-44.278 29.66,-86.777 74.063,-86.282 24.421,0.271 66.359,16.966 79.684,59.086"
         style="fill:#000000;fill-opacity:1;fill-rule:evenodd;stroke:none" />
      <path
         sodipodi:nodetypes="cscccscccsccsscccccccccccscccscccsccccc"
         id="_121731384-7-2"
         d="m -47683.953,20476.359 c -4.954,0.171 -11.578,12.647 -19.549,42.395 -18.655,69.627 -53.022,243.988 -118.406,377.147 -10.726,-0.459 -21.61,-0.07 -32.594,1.203 -10.076,-117.757 -8.142,-204.628 -17.146,-262.071 -8.329,-53.153 -51.484,-171.092 -49.415,-103.104 2.055,67.499 -1.238,244.584 -1.926,384.918 -16.875,7.896 -33.736,18.143 -50.411,30.952 -11.65,-91.388 -129.192,-270.595 -158.536,-311.955 -31.135,-43.879 -36.117,-1.749 -10.837,61.399 24.94,62.302 69.165,171.262 116.169,301.394 -9.742,11.297 -27.457,15.509 -36.876,28.921 -42.098,-33.033 -75.857,-100.084 -139.297,-112.644 -52.12,-10.318 -35.257,-0.886 6.231,47.275 38.673,44.895 66.234,92.573 150.975,171.313 l 12.381,24.06 c 2.462,-6.425 14.208,-19.928 21.649,-37.812 117.066,-229.723 377.401,-35.458 269.702,126.525 l 106.048,37.22 -0.04,0.116 c 78.744,44.873 216.715,100.637 270.04,107.783 39.729,5.324 58.62,-21.676 -5.107,-50.584 -61.98,-28.117 -127.596,-64.872 -242.198,-125.064 3.733,-12.225 2.187,-18.987 3.918,-31.25 112.369,-17.426 303.779,-58.096 346.28,-76.037 49.6,-20.941 36.93,-57.547 -52.146,-37.172 -72.534,16.591 -180.791,29.128 -291.515,34.033 -2.509,-14.245 -8.248,-28.19 -13.042,-41.71 117.608,-49.914 214.283,-72.596 256.432,-105.714 45.057,-35.401 127.423,-147.804 41.544,-100.718 -79.076,43.356 -192.594,94.388 -324.395,136.649 -4.292,-5.711 -9.019,-10.523 -13.731,-15.852 93.246,-80.541 154.196,-110.617 199.679,-199.841 26.029,-51.055 80.713,-204.98 26.881,-123.674 -50.353,76.052 -172.561,183.656 -290.094,270.571 -8.998,-5.148 -11.145,-4.918 -20.723,-8.799 60.415,-114.632 72.416,-256.78 72.862,-311.349 0.274,-33.129 -6.019,-128.757 -12.809,-128.524 z"
         style="fill:#000000;fill-opacity:1;fill-rule:evenodd"
         inkscape:connector-curvature="0" />
      <path
         sodipodi:nodetypes="cccccccccscccccccccccsccccccccscccsccccc"
         inkscape:connector-curvature="0"
         id="_121731384-68"
         d="m -47697.828,20470.179 c -4.955,0.17 -11.579,12.647 -19.55,42.395 -18.655,69.627 -53.022,243.987 -118.406,377.147 -10.726,-0.459 -21.61,-0.07 -32.594,1.202 -10.075,-117.756 -32.215,-295.876 -41.219,-353.318 -8.329,-53.153 -27.411,-79.844 -25.341,-11.856 2.054,67.498 -1.239,244.583 -1.927,384.917 -16.875,7.896 -33.735,18.144 -50.411,30.953 -41.443,-87.133 -112.167,-206.753 -141.511,-248.113 -31.134,-43.878 -53.141,-65.591 -27.862,-2.444 24.94,62.302 69.165,171.263 116.169,301.395 -9.742,11.297 -19.348,23.617 -28.767,37.029 -42.098,-33.033 -81.738,-55.495 -111.127,-76.567 -43.181,-30.96 -71.536,-45.071 -30.048,3.09 38.673,44.895 66.234,92.573 150.975,171.313 l 20.014,19.833 c 2.462,-6.425 5.029,-12.598 7.693,-18.54 l 13.227,-26.221 c 123.311,-217.479 422.454,-81.123 294.093,143.696 l 74.753,31.224 -0.04,0.117 c 87.256,32.103 207.057,73.274 260.382,80.42 39.729,5.324 68.278,5.687 4.551,-23.221 -61.98,-28.118 -117.66,-59.352 -232.261,-119.544 3.733,-12.225 6.44,-24.507 8.171,-36.771 112.369,-17.426 242.771,-58.096 285.272,-76.037 49.6,-20.94 83.748,-57.546 -5.328,-37.172 -72.534,16.592 -170.655,31.155 -281.379,36.06 -2.509,-14.244 -6.221,-28.19 -11.016,-41.71 117.609,-49.914 259.841,-141.375 301.989,-174.493 45.057,-35.4 69.704,-81.051 -16.174,-33.965 -79.077,43.356 -192.594,94.388 -324.396,136.649 -4.292,-5.712 -8.798,-11.246 -13.511,-16.575 93.246,-80.54 200.794,-207.788 246.277,-297.012 26.03,-51.054 33.896,-107.087 -19.937,-25.78 -50.353,76.051 -172.561,183.655 -290.094,270.571 -8.998,-5.149 -18.31,-9.695 -27.888,-13.576 60.415,-114.632 76.947,-324.763 77.394,-379.332 0.274,-33.129 -3.386,-55.998 -10.175,-55.764 z"
         style="fill:#00923f;fill-opacity:1;fill-rule:evenodd;stroke:#737373;stroke-width:8.27473259;stroke-miterlimit:4;stroke-opacity:1;stroke-dasharray:none" />
      <path
         sodipodi:open="true"
         sodipodi:end="12.46847"
         sodipodi:start="6.2071318"
         transform="matrix(30.120507,0,0,30.120507,-48205.767,20789.002)"
         d="m 13.844562,12.550547 c 0.112017,1.470034 -0.988873,2.752541 -2.458908,2.864558 -1.4700343,0.112018 -2.7525408,-0.988873 -2.8645582,-2.458907 -0.1120173,-1.470035 0.9888732,-2.752542 2.4589082,-2.864559 1.447376,-0.1102906 2.717609,0.956188 2.859492,2.40081"
         sodipodi:ry="2.6694496"
         sodipodi:rx="2.6694496"
         sodipodi:cy="12.753372"
         sodipodi:cx="11.182829"
         id="path3582-5"
         style="fill:#00923f;fill-opacity:1;fill-rule:evenodd;stroke:none"
         sodipodi:type="arc" />
    </g>
  </g>
</svg>
