<?xml version="1.0" encoding="UTF-8" standalone="no"?>
<!-- Created with Inkscape (http://www.inkscape.org/) -->

<svg
   xmlns:dc="http://purl.org/dc/elements/1.1/"
   xmlns:cc="http://creativecommons.org/ns#"
   xmlns:rdf="http://www.w3.org/1999/02/22-rdf-syntax-ns#"
   xmlns:svg="http://www.w3.org/2000/svg"
   xmlns="http://www.w3.org/2000/svg"
   xmlns:sodipodi="http://sodipodi.sourceforge.net/DTD/sodipodi-0.dtd"
   xmlns:inkscape="http://www.inkscape.org/namespaces/inkscape"
   width="256"
   height="256"
   id="svg5266"
   version="1.1"
   inkscape:version="0.48.3.1 r9886"
   sodipodi:docname="preferences-desktop-locale.svg">
  <defs
     id="defs5268">
    <inkscape:path-effect
       effect="skeletal"
       id="path-effect5141"
       is_visible="true"
       pattern="M 0,5 C 0,2.24 2.24,0 5,0 7.76,0 10,2.24 10,5 10,7.76 7.76,10 5,10 2.24,10 0,7.76 0,5 z"
       copytype="single_stretched"
       prop_scale="1"
       scale_y_rel="false"
       spacing="0"
       normal_offset="0"
       tang_offset="0"
       prop_units="false"
       vertical_pattern="false"
       fuse_tolerance="0" />
  </defs>
  <sodipodi:namedview
     id="base"
     pagecolor="#ffffff"
     bordercolor="#666666"
     borderopacity="1.0"
     inkscape:pageopacity="0.0"
     inkscape:pageshadow="2"
     inkscape:zoom="0.70741575"
     inkscape:cx="360.26109"
     inkscape:cy="-81.487627"
     inkscape:document-units="px"
     inkscape:current-layer="layer1"
     showgrid="false"
     inkscape:window-width="1438"
     inkscape:window-height="827"
     inkscape:window-x="0"
     inkscape:window-y="25"
     inkscape:window-maximized="1" />
  <metadata
     id="metadata5271">
    <rdf:RDF>
      <cc:Work
         rdf:about="">
        <dc:format>image/svg+xml</dc:format>
        <dc:type
           rdf:resource="http://purl.org/dc/dcmitype/StillImage" />
        <dc:title></dc:title>
      </cc:Work>
    </rdf:RDF>
  </metadata>
  <g
     inkscape:label="Capa 1"
     inkscape:groupmode="layer"
     id="layer1"
     transform="translate(0,-796.36218)">
    <g
       style="fill-rule:evenodd"
       id="g6508"
       transform="matrix(0.12401689,-0.04567623,0.04567623,0.12401689,5399.3211,-3757.9407)">
      <rect
         transform="matrix(-0.90105316,0.43370865,-0.44485641,-0.89560191,0,0)"
         class="fil0 str0"
         x="51949.109"
         y="3938.2251"
         width="1045.6027"
         height="148.42876"
         rx="106.68804"
         ry="0"
         id="rect11194-1-9-4-0-3-1-8"
         style="fill:#00923f;fill-opacity:1;fill-rule:evenodd;stroke:#72706f;stroke-width:19.35946465" />
      <g
         id="_81071816-4-0-1-1-1-17-3"
         style="fill-rule:evenodd"
         transform="matrix(-5.6200618,2.9513347,-2.8751715,-5.9819628,-47620.388,20276.611)">
        <path
           sodipodi:nodetypes="ccccccscccc"
           id="_81851448-2-3-5-3-8-4-0"
           class="fil1 str1"
           d="m 66.078319,235.29487 c -10.787269,0.4087 -14.545159,-2.1061 -16.351419,1.96457 -1.563725,10.00963 0.174441,21.83736 8.548473,23.61075 50.943437,1.20416 101.024587,-0.006 152.736577,1.61472 l -0.13967,-0.56411 -131.72055,1.86904 c -4.1716,-0.45049 -8.052946,0.0392 -11.28232,0.0364 -13.544945,-0.0115 -19.060839,2.01145 -20.872965,-3.20321 -3.022259,-11.18618 -3.73704,-22.86538 2.74336,-27.92838 3.489669,-2.46187 22.668445,3.58574 31.270127,4.04966 z"
           inkscape:connector-curvature="0"
           style="fill:#1f1a17;fill-rule:nonzero;stroke:#1f1a17;stroke-width:2.76821995" />
      </g>
      <g
         transform="matrix(4.5210453,-1.3512278,1.2497226,4.6807947,-50949.726,19149.125)"
         id="g3960-5-7-3"
         style="fill:#1f1a17;fill-opacity:1;fill-rule:evenodd">
        <path
           sodipodi:nodetypes="ccscccccccccc"
           style="fill:#1f1a17;fill-opacity:1"
           d="M 204.103,49.2784 C 186.9982,42.82015 172.4014,36.4879 153.7076,36.301 87.0129,35.632476 39.2133,94.084367 43.7133,158.65997 c 2.61043,37.4651 17.4183,68.4687 50.4016,85.9168 33.3778,17.6557 71.2456,28.05943 106.114,13.12488 11.7165,-5.01878 19.3111,-11.7137 28.3991,-20.1762 l 0.54119,0.36264 c -5.0257,5.62086 -9.68599,11.6404 -15.9242,15.8743 -62.7389,42.5669 -164.799004,6.29077 -182.043004,-68.7418 -13.0867,-56.9353 21.5879,-118.438004 73.820004,-142.285004 20.3838,-9.30536 43.7157,-12.9262 65.7604,-7.90741 11.866,2.7004 22.4156,9.05069 33.321,14.4501 z"
           class="fil2"
           id="_67468136-3-6-9"
           inkscape:connector-curvature="0" />
      </g>
      <path
         inkscape:connector-curvature="0"
         d="m -49504.819,19483.054 c 83.859,295.454 -86.283,610.192 -380.021,702.99 -293.738,92.796 -599.84,-71.489 -683.698,-366.941 -83.858,-295.453 86.283,-610.192 380.022,-702.989 293.738,-92.798 599.839,71.487 683.697,366.94 z m -159.669,39.537 c 56.592,213.146 -39.364,441.685 -283.877,500.594 -189.1,45.558 -412.062,-13.629 -488.124,-266.062 -56.591,-187.812 12.013,-424.704 223.078,-520.859 196.654,-89.591 481.268,31.514 548.923,286.327 z"
         style="fill:#b8db7c;fill-opacity:1;stroke:#72706f;stroke-width:33.81222534"
         id="_67621792-4-2-5-6"
         sodipodi:nodetypes="ssssssssss" />
      <path
         inkscape:connector-curvature="0"
         id="path4789-2-3-5"
         d="m -49520.718,19481.726 -72.388,-151.634"
         style="fill:none;stroke:#000000;stroke-width:1.02072918px;stroke-linecap:butt;stroke-linejoin:miter;stroke-opacity:1" />
    </g>
  </g>
</svg>
