<?xml version="1.0" encoding="UTF-8"?>
<!DOCTYPE svg PUBLIC "-//W3C//DTD SVG 1.1//EN" "http://www.w3.org/Graphics/SVG/1.1/DTD/svg11.dtd">
<!-- Creator: CorelDRAW -->
<svg xmlns="http://www.w3.org/2000/svg" xml:space="preserve" width="3000px" height="3000px" style="shape-rendering:geometricPrecision; text-rendering:geometricPrecision; image-rendering:optimizeQuality; fill-rule:evenodd; clip-rule:evenodd"
viewBox="0 0 3000 3000"
 xmlns:xlink="http://www.w3.org/1999/xlink">
 <defs>
  <style type="text/css">
   <![CDATA[
    .str1 {stroke:#1F1A17;stroke-width:2.34375}
    .str0 {stroke:#72706F;stroke-width:3.51563}
    .fil3 {fill:none}
    .fil2 {fill:#1F1A17}
    .fil0 {fill:#00923F;fill-rule:nonzero}
    .fil1 {fill:#B8DB7C;fill-rule:nonzero}
   ]]>
  </style>
 </defs>
 <g id="Capa_x0020_1">
  <metadata id="CorelCorpID_0Corel-Layer"/>
  <path class="fil0 str0" d="M1947.63 1988c0,253.729 -203.837,459.436 -455.275,459.436 -251.287,0 -455.125,-205.707 -455.125,-459.436 -16.5668,-248.142 187.27,-453.674 455.125,-459.192 251.438,0 455.275,205.518 455.275,459.192z"/>
  <path class="fil1 str0" d="M2857.6 2422.96l-510.901 -13.4191c0,0 85.6008,-1456.4 -875.748,-1496.63 -961.261,-40.1156 -898.568,1503.36 -898.568,1503.36l-515.337 -6.72891c0,0 -95.6285,-2050.33 1391.12,-2051.05 1486.84,-0.909375 1409.43,2064.47 1409.43,2064.47z"/>
  <g id="_79162808">
   <path id="_79208600" class="fil2 str1" d="M1174.98 1651.34c151.696,-168.739 458.797,-203.52 633.996,-48.7652 159.776,141.131 194.279,398.256 110.052,588.573 -31.009,70.077 -79.3992,135.265 -144.688,177.062 -45.5367,29.1563 -99.7324,38.5992 -151.819,53.1059l-1.48711 -6.6832c91.9078,-46.902 167.68,-86.6402 220.45,-180.292 90.798,-161.13 68.1211,-381.408 -37.834,-530.129 -149.457,-209.774 -430.591,-162.159 -628.67,-52.8715z"/>
  </g>
  <path class="fil3" d="M1174.97 1651.34c64.6066,-83.066 317.767,-132.586 410.134,-119.404 427.82,61.0617 476.667,788.038 36.6633,886.038"/>
  <g id="_78469184">
   <path id="_78730512" class="fil2 str1" d="M1327.41 355.913c179.588,-32.8172 302.841,-61.8012 482.201,14.3695 605.643,257.245 1010.51,909.254 1111.7,1542.72 25.6453,160.591 19.5234,345.748 -47.5418,496.161 -3.95508,8.87461 -19.0758,15.0293 -27.9809,15.1242l-445.335 -5.83359 -0.714844 -12.2742 416.037 -53.8324c96.4582,-295.009 -58.8211,-692.491 -184.88,-941.261 -196.439,-387.664 -458.549,-763.714 -851.805,-969.905 -148.2,-77.6988 -290.695,-76.2258 -451.679,-85.2715z"/>
  </g>
  <path class="fil3" d="M1327.39 355.913c822.039,-209.135 1770.25,1331.42 1516.21,2030.74l-443.527 25.6605"/>
  <g id="_81398464">
   <path id="_78155224" class="fil2 str1" d="M1597.87 925.78c-197.481,20.5734 -413.285,48.2133 -557.371,204.966 -88.3301,96.102 -176.564,198.776 -218.034,322.536 -160.733,479.555 -87.9867,455.286 -186.413,976.787 -3.25547,17.3555 -28.3629,29.6801 -44.0578,28.9559l-548.856 -44.5945 0.113672 -13.9055c167.65,-13.1637 347.453,27.5625 506.282,-20.802 47.2219,-329.945 43.507,-666.291 154.676,-980.578 82.7859,-234.015 328.079,-432.754 566.837,-489.766 126.41,-30.1922 204.224,-11.5617 326.823,16.4016z"/>
  </g>
  <path class="fil3" d="M1597.85 925.78c-73.452,0.171094 -141.952,-20.1914 -205.69,-8.83828 -616.421,109.911 -793.861,749.934 -799.843,1494.61l-549.141 -4.07695"/>
 </g>
</svg>
