<?xml version="1.0" encoding="UTF-8"?>
<!DOCTYPE svg PUBLIC "-//W3C//DTD SVG 1.1//EN" "http://www.w3.org/Graphics/SVG/1.1/DTD/svg11.dtd">
<!-- Creator: CorelDRAW -->
<svg xmlns="http://www.w3.org/2000/svg" xml:space="preserve" width="300px" height="300px" style="shape-rendering:geometricPrecision; text-rendering:geometricPrecision; image-rendering:optimizeQuality; fill-rule:evenodd; clip-rule:evenodd"
viewBox="0 0 300 300"
 xmlns:xlink="http://www.w3.org/1999/xlink">
 <defs>
  <style type="text/css">
   <![CDATA[
    .str1 {stroke:#1F1A17;stroke-width:2.76822}
    .str0 {stroke:#72706F;stroke-width:4.15233}
    .fil1 {fill:none}
    .fil3 {fill:#00923F}
    .fil2 {fill:#1F1A17}
    .fil0 {fill:#B8DB7C}
   ]]>
  </style>
 </defs>
 <g id="Capa_x0020_1">
  <metadata id="CorelCorpID_0Corel-Layer"/>
  <path class="fil0 str0" d="M273.371 50.5836l-37.2699 168.111c-5.888,34.528 -18.4294,48.441 -45.9413,50.1809 -26.9638,1.70384 -52.2501,3.59315 -77.643,-0.697591 -35.2269,-5.95028 -41.9385,-17.8744 -52.8965,-52.6529l-37.8706 -164.941c81.614,27.3015 165.622,25.6461 251.621,0z"/>
  <path class="fil1 str0" d="M22.2828 50.0466c86.4971,-28.1292 170.33,-24.8185 252.341,0"/>
  <g id="_67772936">
   <path id="_67644016" class="fil2 str1" d="M272.04 49.3172l-36.2138 182.69c-3.76478,15.9159 -13.7608,33.1369 -29.5922,39.5288 -5.70945,2.30316 -11.9698,3.06995 -18.1221,2.83881l-50.4148 -4.75718 0.0318345 -0.647763 58.8994 -0.567485c14.929,-2.48447 25.4787,-17.4176 29.5286,-30.9639l45.8832 -188.121z"/>
  </g>
  <path class="fil1" d="M272.038 49.3186c-6.32399,64.2406 -24.9873,118.768 -40.052,181.774 -4.84023,20.2467 -18.5913,41.8956 -43.7475,40.6679l-50.5269 -2.4651"/>
  <g id="_67777376">
   <path id="_27027560" class="fil2 str1" d="M34.9806 54.1685l66.1922 9.67769 92.9041 4.09973 0.103808 0.786174 -93.6903 3.30387c-22.5624,-2.47063 -43.8693,-11.0217 -65.5099,-17.8675z"/>
  </g>
  <path class="fil1" d="M34.9792 54.1699c17.3456,4.04437 35.0885,11.2057 65.8504,13.7719 27.7278,2.31285 56.401,5.23331 93.2972,0.398623"/>
  <g id="_48824664">
   <path id="_64887736" class="fil2 str1" d="M24.406 63.1873c7.34962,16.9609 15.0148,33.656 18.8446,51.7407l10.5358 76.5578 -0.836002 0.0871988 -17.8121 -75.7301 -10.7324 -52.6556z"/>
  </g>
  <path class="fil1" d="M24.406 63.1887c8.00984,13.556 13.1172,37.3903 14.7878,52.1975 2.64088,23.3942 11.7082,52.7304 14.1733,76.1453"/>
  <g id="_67830416">
   <path id="_67778800" class="fil2 str1" d="M117.601 31.1189c27.7652,-1.75367 55.6855,-6.40842 83.279,-2.85818 23.6475,3.04365 45.6354,13.7221 68.2919,21.1547l-0.00968876 0.0346027 -69.3812 -12.947 -82.1801 -5.38418z"/>
  </g>
  <path class="fil1" d="M117.599 31.1203c17.682,-3.15854 65.7272,-1.00209 82.7296,1.26231 20.8917,2.78206 46.733,10.7365 68.8359,17.0508"/>
  <path class="fil3" d="M23.0426 50.4923c88.0335,-26.0794 155.667,-26.6593 245.981,0 -83.715,25.815 -159.772,20.6883 -245.981,0z"/>
 </g>
</svg>
