<?xml version="1.0" encoding="UTF-8" standalone="no"?>
<!-- Created with Inkscape (http://www.inkscape.org/) -->

<svg
   xmlns:dc="http://purl.org/dc/elements/1.1/"
   xmlns:cc="http://creativecommons.org/ns#"
   xmlns:rdf="http://www.w3.org/1999/02/22-rdf-syntax-ns#"
   xmlns:svg="http://www.w3.org/2000/svg"
   xmlns="http://www.w3.org/2000/svg"
   xmlns:sodipodi="http://sodipodi.sourceforge.net/DTD/sodipodi-0.dtd"
   xmlns:inkscape="http://www.inkscape.org/namespaces/inkscape"
   width="256"
   height="256"
   id="svg2"
   version="1.1"
   inkscape:version="0.48.3.1 r9886"
   sodipodi:docname="user-home.svg">
  <defs
     id="defs4">
    <style
       id="style2991"
       type="text/css">
   
    .str3 {stroke:#1F1A17;stroke-width:1.05469}
    .str1 {stroke:#72706F;stroke-width:2.44157}
    .str2 {stroke:#1F1A17;stroke-width:2.76822}
    .str0 {stroke:#72706F;stroke-width:4.15233}
    .fil3 {fill:none}
    .fil1 {fill:#00923F}
    .fil2 {fill:#1F1A17}
    .fil0 {fill:#B8DB7C}
   
  </style>
    <style
       id="style3081"
       type="text/css">
   
    .str1 {stroke:#1F1A17;stroke-width:2.76822}
    .str0 {stroke:#72706F;stroke-width:4.15233}
    .fil1 {fill:none}
    .fil3 {fill:#00923F}
    .fil2 {fill:#1F1A17}
    .fil0 {fill:#B8DB7C}
   
  </style>
    <style
       id="style3135"
       type="text/css">
   
    .str1 {stroke:#1F1A17;stroke-width:2.76822}
    .str0 {stroke:#72706F;stroke-width:4.15233}
    .fil1 {fill:none}
    .fil3 {fill:#00923F}
    .fil2 {fill:#1F1A17}
    .fil0 {fill:#B8DB7C}
   
  </style>
    <style
       id="style3203"
       type="text/css">
   
    .str1 {stroke:#1F1A17;stroke-width:1.38411}
    .str2 {stroke:#1F1A17;stroke-width:2.76822}
    .str0 {stroke:#72706F;stroke-width:4.15233}
    .str4 {stroke:#1F1A17;stroke-width:0.895518}
    .str3 {stroke:#72706F;stroke-width:1.34259}
    .fil2 {fill:none}
    .fil0 {fill:#00923F}
    .fil1 {fill:#1F1A17}
    .fil3 {fill:#B8DB7C}
    .fil5 {fill:#1F1A17;fill-rule:nonzero}
    .fil4 {fill:#72706F;fill-rule:nonzero}
    .fil6 {fill:#B8DB7C;fill-rule:nonzero}
   
  </style>
    <style
       id="style3319"
       type="text/css">
   
    .str1 {stroke:#1F1A17;stroke-width:1.38411}
    .str2 {stroke:#1F1A17;stroke-width:2.76822}
    .str0 {stroke:#72706F;stroke-width:4.15233}
    .str4 {stroke:#1F1A17;stroke-width:0.895518}
    .str3 {stroke:#72706F;stroke-width:1.34259}
    .fil2 {fill:none}
    .fil0 {fill:#00923F}
    .fil1 {fill:#1F1A17}
    .fil3 {fill:#B8DB7C}
    .fil5 {fill:#1F1A17;fill-rule:nonzero}
    .fil4 {fill:#72706F;fill-rule:nonzero}
    .fil6 {fill:#B8DB7C;fill-rule:nonzero}
   
  </style>
    <style
       id="style3435"
       type="text/css">
   
    .str1 {stroke:#1F1A17;stroke-width:2.76822}
    .str0 {stroke:#72706F;stroke-width:4.15233}
    .fil1 {fill:none}
    .fil3 {fill:#00923F}
    .fil2 {fill:#1F1A17}
    .fil0 {fill:#B8DB7C}
   
  </style>
    <style
       id="style3502"
       type="text/css">
   
    .str3 {stroke:#1F1A17;stroke-width:1.05469}
    .str1 {stroke:#72706F;stroke-width:2.44157}
    .str2 {stroke:#1F1A17;stroke-width:2.76822}
    .str0 {stroke:#72706F;stroke-width:4.15233}
    .fil3 {fill:none}
    .fil1 {fill:#00923F}
    .fil2 {fill:#1F1A17}
    .fil0 {fill:#B8DB7C}
   
  </style>
    <style
       id="style3592"
       type="text/css">
   
    .str1 {stroke:#1F1A17;stroke-width:2.76822}
    .str0 {stroke:#72706F;stroke-width:4.15233}
    .fil1 {fill:none}
    .fil3 {fill:#00923F}
    .fil2 {fill:#1F1A17}
    .fil0 {fill:#B8DB7C}
   
  </style>
    <style
       id="style3646"
       type="text/css">
   
    .str1 {stroke:#1F1A17;stroke-width:2.76822}
    .str0 {stroke:#72706F;stroke-width:4.15233}
    .fil1 {fill:none}
    .fil3 {fill:#00923F}
    .fil2 {fill:#1F1A17}
    .fil0 {fill:#B8DB7C}
   
  </style>
    <style
       id="style3714"
       type="text/css">
   
    .str3 {stroke:#1F1A17;stroke-width:1.05469}
    .str1 {stroke:#72706F;stroke-width:2.44157}
    .str2 {stroke:#1F1A17;stroke-width:2.76822}
    .str0 {stroke:#72706F;stroke-width:4.15233}
    .fil3 {fill:none}
    .fil1 {fill:#00923F}
    .fil2 {fill:#1F1A17}
    .fil0 {fill:#B8DB7C}
   
  </style>
    <style
       id="style3804"
       type="text/css">
   
    .str1 {stroke:#1F1A17;stroke-width:2.76822}
    .str0 {stroke:#72706F;stroke-width:4.15233}
    .fil1 {fill:none}
    .fil3 {fill:#00923F}
    .fil2 {fill:#1F1A17}
    .fil0 {fill:#B8DB7C}
   
  </style>
    <style
       id="style3858"
       type="text/css">
   
    .str1 {stroke:#1F1A17;stroke-width:2.76822}
    .str0 {stroke:#72706F;stroke-width:4.15233}
    .fil1 {fill:none}
    .fil3 {fill:#00923F}
    .fil2 {fill:#1F1A17}
    .fil0 {fill:#B8DB7C}
   
  </style>
    <style
       id="style3926"
       type="text/css">
   
    .str2 {stroke:#1F1A17;stroke-width:1.05469}
    .str3 {stroke:#1F1A17;stroke-width:1.38411}
    .str1 {stroke:#1F1A17;stroke-width:2.76822}
    .str0 {stroke:#72706F;stroke-width:4.15233}
    .fil0 {fill:none}
    .fil3 {fill:#00923F}
    .fil1 {fill:#1F1A17}
    .fil2 {fill:#B8DB7C}
   
  </style>
  </defs>
  <sodipodi:namedview
     id="base"
     pagecolor="#ffffff"
     bordercolor="#666666"
     borderopacity="1.0"
     inkscape:pageopacity="0.0"
     inkscape:pageshadow="2"
     inkscape:zoom="3.4019693"
     inkscape:cx="100.0051"
     inkscape:cy="127.54055"
     inkscape:document-units="px"
     inkscape:current-layer="layer1"
     showgrid="false"
     showguides="true"
     inkscape:guide-bbox="true"
     inkscape:window-width="1920"
     inkscape:window-height="1050"
     inkscape:window-x="-4"
     inkscape:window-y="-4"
     inkscape:window-maximized="1">
    <sodipodi:guide
       orientation="1,0"
       position="125.22159,241.62476"
       id="guide2985" />
    <sodipodi:guide
       orientation="0,1"
       position="11.757896,124.92764"
       id="guide3992" />
  </sodipodi:namedview>
  <metadata
     id="metadata7">
    <rdf:RDF>
      <cc:Work
         rdf:about="">
        <dc:format>image/svg+xml</dc:format>
        <dc:type
           rdf:resource="http://purl.org/dc/dcmitype/StillImage" />
        <dc:title />
      </cc:Work>
    </rdf:RDF>
  </metadata>
  <g
     inkscape:label="Capa 1"
     inkscape:groupmode="layer"
     id="layer1"
     transform="translate(0,-796.36218)">
    <g
       style="fill-rule:evenodd"
       id="g3967"
       transform="matrix(0.83743923,0,0,0.83743923,1.1309372,800.00308)">
      <g
         id="Capa_x0020_1">
        <metadata
           id="CorelCorpID_0Corel-Layer" />
        <path
           id="path3930"
           d="M 0.624233,167.34 C 164.98023,25.566 149.57123,13.867 301.97523,173.47991"
           class="fil0 str0"
           inkscape:connector-curvature="0"
           style="fill:none;stroke:#72706f;stroke-width:4.15232992" />
        <g
           id="_67735432">
          <path
             d="m 235.269,105.054 7.89772,6.78213 60.7042,62.4676 -0.072,0.0692 c -22.4613,-20.5097 -48.4383,-39.0568 -66.2088,-64.3514 -1.05884,-1.50729 -1.64571,-3.25266 -2.32115,-4.96757 z"
             class="fil1 str1"
             id="_67806608"
             inkscape:connector-curvature="0"
             style="fill:#1f1a17;stroke:#1f1a17;stroke-width:2.76821995" />
        </g>
        <path
           id="path3934"
           d="m 235.268,105.052 c 2.51077,4.19108 3.45474,4.48451 6.83611,7.84928 l 61.7299,61.435"
           class="fil0"
           inkscape:connector-curvature="0"
           style="fill:none" />
        <rect
           id="rect3936"
           ry="30.190201"
           rx="30.190201"
           height="101.353"
           width="187.61"
           transform="matrix(1.14743,0.00757306,-0.00771002,1.16818,45.7694,110.883)"
           class="fil2 str0"
           x="0"
           y="0"
           style="fill:#b8db7c;stroke:#72706f;stroke-width:4.15232992" />
        <rect
           id="rect3938"
           ry="6.4693198"
           rx="6.4693198"
           height="47.4417"
           width="58.2239"
           transform="matrix(1.24783,0.00867889,-0.0082357,1.31498,120.741,167.886)"
           class="fil3 str0"
           x="0"
           y="0"
           style="fill:#00923f;stroke:#72706f;stroke-width:4.15232992" />
        <g
           id="_67777800">
          <path
             d="m 182.286,112.275 c 16.5789,-1.45885 33.8927,-2.61458 50.4978,-0.41246 11.8217,1.5682 21.5492,10.868 25.8953,21.4855 6.92331,16.911 2.8305,35.8692 1.82979,53.3643 l -0.68652,0 c -1.20971,-18.4599 2.01941,-43.3544 -11.3123,-58.7 -8.45552,-9.73028 -18.7159,-11.0756 -31.0815,-12.3864 l -35.1425,-3.35093 z"
             class="fil1 str1"
             id="_67779368"
             inkscape:connector-curvature="0"
             style="fill:#1f1a17;stroke:#1f1a17;stroke-width:2.76821995" />
        </g>
        <path
           id="path3942"
           d="m 182.284,112.273 c 2.09416,-0.41939 18.3616,0.2879 20.4724,0.6007 9.19325,1.36196 20.0848,-0.80693 29.3016,1.67616 34.3162,9.24861 28.1057,45.7586 28.1057,72.1605"
           class="fil0"
           inkscape:connector-curvature="0"
           style="fill:none" />
        <g
           id="_67775256">
          <path
             d="m 120.712,179.71 2.60904,19.0149 1.66508,23.1492 0.16609,0.19101 0.47891,0.42215 c 2.69762,1.9682 6.4195,2.75438 9.58495,3.28864 l 28.37979,4.13987 -0.0554,0.28236 c -12.7781,0.76126 -28.1458,3.71633 -40.3274,-1.87824 -1.72045,-0.78894 -3.92533,-2.4651 -4.49835,-4.35994 -2.57029,-8.48182 1.33151,-34.4103 1.99727,-44.25 z"
             class="fil1 str2"
             id="_48938776"
             inkscape:connector-curvature="0"
             style="fill:#1f1a17;stroke:#1f1a17;stroke-width:1.05469" />
        </g>
        <path
           id="path3946"
           d="m 120.712,179.71 c 0.18547,10.6646 0.66437,25.7624 1.10729,43.3088 5.21809,8.2742 32.4933,5.22086 41.7489,7.03819"
           class="fil0"
           inkscape:connector-curvature="0"
           style="fill:none" />
        <g
           id="_67698672">
          <path
             d="m 44.9475,155.199 c 0.409696,16.727 -1.21248,34.373 2.84573,50.7207 4.5468,18.3118 22.1139,18.2398 37.9675,19.8412 l 57.6315,4.22707 0.01,0.50105 -58.078601,0.79447 c -10.8929,-0.58547 -27.3652,-0.003 -35.602,-9.78426 -15.0633,-17.8951 -7.142,-45.7309 -4.77379,-66.3002 z"
             class="fil1 str1"
             id="_67735456"
             inkscape:connector-curvature="0"
             style="fill:#1f1a17;stroke:#1f1a17;stroke-width:2.76821995" />
        </g>
        <path
           id="path3950"
           d="m 44.9462,155.2 c 0.27959,18.7007 -10.6867,66.26 20.2717,70.9826 12.994,1.98343 27.4483,3.19452 41.2617,3.19452 9.62786,0 29.0428,0.99656 36.9169,0.86092"
           class="fil0"
           inkscape:connector-curvature="0"
           style="fill:none" />
        <g
           id="_67733472">
          <path
             d="m 164.665,167.772 c 6.88179,-1.11559 14.4127,-1.05884 21.3374,-0.42769 3.48519,0.31834 6.85687,2.8568 8.20361,6.0181 3.3966,7.96001 0.42077,17.7803 -0.41108,25.8399 l -0.49136,0 c -1.25677,-6.59528 -1.03255,-18.1803 -5.24439,-23.8399 -3.22774,-4.33641 -10.5026,-3.61944 -15.0965,-4.59109 -2.93016,-0.62008 -5.58073,-1.77858 -8.29773,-2.99936 z"
             class="fil1 str3"
             id="_45720808"
             inkscape:connector-curvature="0"
             style="fill:#1f1a17;stroke:#1f1a17;stroke-width:1.38410997" />
        </g>
        <path
           id="path3954"
           d="m 164.665,167.773 c 1.67339,0 4.60493,0.83739 6.27832,0.83739 1.67477,0 2.09277,0.41938 2.93016,0.41938 7.53509,0.83877 16.7449,-0.83739 18.4183,8.80155 0.83739,6.70462 1.25539,14.248 1.25539,21.372"
           class="fil0"
           inkscape:connector-curvature="0"
           style="fill:none" />
        <path
           id="path3956"
           d="m -0.679597,168.672 93.318,-84.1593 C 114.7039,65.7788 145.9653,51.4297 175.1174,59.6237 c 14.7449,4.14402 25.134,15.2155 36.3605,24.9292 l -0.23806,0.307272 c -13.7248,-9.51575 -27.2697,-21.6295 -44.7496,-22.8807 -20.6869,-1.48238 -39.9841,6.13714 -56.9381,17.7595 l -60.420504,50.081198 -49.8113,38.8519 z"
           class="fil1 str1"
           inkscape:connector-curvature="0"
           style="fill:#1f1a17;stroke:#1f1a17;stroke-width:2.76821995" />
        <path
           id="path3958"
           d="m -0.679597,168.672 c 32.7674,-26.6579 64.2918,-54.2889 95.4398,-81.7524 14.479197,-12.7684 42.959997,-28.0614 62.788697,-27.66 26.6413,0.539802 35.5287,11.232 53.81,25.4468"
           class="fil0 str1"
           inkscape:connector-curvature="0"
           style="fill:none;stroke:#1f1a17;stroke-width:2.76821995" />
        <path
           id="path3960"
           d="m 67.7258,111.273 c 35.5439,-28.4088 47.3144,-48.2957 87.6487,-49.2964 23.2253,-5.052 43.832,11.6888 84.9621,50.3373 l -172.611,-1.04085 z"
           class="fil3 str1"
           inkscape:connector-curvature="0"
           style="fill:#00923f;stroke:#1f1a17;stroke-width:2.76821995" />
      </g>
    </g>
  </g>
</svg>
