<?xml version="1.0" encoding="UTF-8"?>
<!DOCTYPE svg PUBLIC "-//W3C//DTD SVG 1.1//EN" "http://www.w3.org/Graphics/SVG/1.1/DTD/svg11.dtd">
<!-- Creator: CorelDRAW -->
<svg xmlns="http://www.w3.org/2000/svg" xml:space="preserve" width="300px" height="300px" style="shape-rendering:geometricPrecision; text-rendering:geometricPrecision; image-rendering:optimizeQuality; fill-rule:evenodd; clip-rule:evenodd"
viewBox="0 0 300 300"
 xmlns:xlink="http://www.w3.org/1999/xlink">
 <defs>
  <style type="text/css">
   <![CDATA[
    .str2 {stroke:#1F1A17;stroke-width:1.05469}
    .str3 {stroke:#1F1A17;stroke-width:1.38411}
    .str1 {stroke:#1F1A17;stroke-width:2.76822}
    .str0 {stroke:#72706F;stroke-width:4.15233}
    .fil0 {fill:none}
    .fil3 {fill:#00923F}
    .fil1 {fill:#1F1A17}
    .fil2 {fill:#B8DB7C}
   ]]>
  </style>
 </defs>
 <g id="Capa_x0020_1">
  <metadata id="CorelCorpID_0Corel-Layer"/>
  <path class="fil0 str0" d="M0.624233 167.34c164.356,-141.774 148.947,-153.473 301.351,6.13991"/>
  <g id="_67735432">
   <path id="_67806608" class="fil1 str1" d="M235.269 105.054l7.89772 6.78213 60.7042 62.4676 -0.0719736 0.0692054c-22.4613,-20.5097 -48.4383,-39.0568 -66.2088,-64.3514 -1.05884,-1.50729 -1.64571,-3.25266 -2.32115,-4.96757z"/>
  </g>
  <path class="fil0" d="M235.268 105.052c2.51077,4.19108 3.45474,4.48451 6.83611,7.84928l61.7299 61.435"/>
  <rect class="fil2 str0" transform="matrix(1.14743 0.00757306 -0.00771002 1.16818 45.7694 110.883)" width="187.61" height="101.353" rx="30.1902" ry="30.1902"/>
  <rect class="fil3 str0" transform="matrix(1.24783 0.00867889 -0.0082357 1.31498 120.741 167.886)" width="58.2239" height="47.4417" rx="6.46932" ry="6.46932"/>
  <g id="_67777800">
   <path id="_67779368" class="fil1 str1" d="M182.286 112.275c16.5789,-1.45885 33.8927,-2.61458 50.4978,-0.412464 11.8217,1.5682 21.5492,10.868 25.8953,21.4855 6.92331,16.911 2.8305,35.8692 1.82979,53.3643l-0.686518 0c-1.20971,-18.4599 2.01941,-43.3544 -11.3123,-58.7 -8.45552,-9.73028 -18.7159,-11.0756 -31.0815,-12.3864l-35.1425 -3.35093z"/>
  </g>
  <path class="fil0" d="M182.284 112.273c2.09416,-0.419385 18.3616,0.287895 20.4724,0.600703 9.19325,1.36196 20.0848,-0.806935 29.3016,1.67616 34.3162,9.24861 28.1057,45.7586 28.1057,72.1605"/>
  <g id="_67775256">
   <path id="_48938776" class="fil1 str2" d="M120.712 179.71l2.60904 19.0149 1.66508 23.1492 0.166093 0.191007 0.478902 0.422153c2.69763,1.9682 6.4195,2.75438 9.58495,3.28864l28.3798 4.13987 -0.0553643 0.282358c-12.7781,0.76126 -28.1458,3.71633 -40.3274,-1.87824 -1.72045,-0.788942 -3.92533,-2.4651 -4.49835,-4.35994 -2.57029,-8.48182 1.33151,-34.4103 1.99727,-44.25z"/>
  </g>
  <path class="fil0" d="M120.712 179.71c0.185471,10.6646 0.664372,25.7624 1.10729,43.3088 5.21809,8.2742 32.4933,5.22086 41.7489,7.03819"/>
  <g id="_67698672">
   <path id="_67735456" class="fil1 str1" d="M44.9475 155.199c0.409696,16.727 -1.21248,34.373 2.84573,50.7207 4.5468,18.3118 22.1139,18.2398 37.9675,19.8412l57.6315 4.22707 0.00968876 0.501047 -58.0786 0.794478c-10.8929,-0.585478 -27.3652,-0.00276822 -35.602,-9.78426 -15.0633,-17.8951 -7.142,-45.7309 -4.77379,-66.3002z"/>
  </g>
  <path class="fil0" d="M44.9462 155.2c0.27959,18.7007 -10.6867,66.26 20.2717,70.9826 12.994,1.98343 27.4483,3.19452 41.2617,3.19452 9.62786,0 29.0428,0.996558 36.9169,0.860916"/>
  <g id="_67733472">
   <path id="_45720808" class="fil1 str3" d="M164.665 167.772c6.88179,-1.11559 14.4127,-1.05884 21.3374,-0.42769 3.48519,0.318345 6.85687,2.8568 8.20361,6.0181 3.3966,7.96001 0.420769,17.7803 -0.41108,25.8399l-0.491359 0c-1.25677,-6.59528 -1.03255,-18.1803 -5.24439,-23.8399 -3.22774,-4.33641 -10.5026,-3.61944 -15.0965,-4.59109 -2.93016,-0.620081 -5.58073,-1.77858 -8.29773,-2.99936z"/>
  </g>
  <path class="fil0" d="M164.665 167.773c1.67339,0 4.60493,0.837386 6.27832,0.837386 1.67477,0 2.09277,0.419385 2.93016,0.419385 7.53509,0.83877 16.7449,-0.837386 18.4183,8.80155 0.837386,6.70462 1.25539,14.248 1.25539,21.372"/>
  <path class="fil1 str1" d="M-0.679597 168.672l93.318 -84.1593c22.0655,-18.7339 53.3269,-33.083 82.479,-24.889 14.7449,4.14402 25.134,15.2155 36.3605,24.9292l-0.238067 0.307272c-13.7248,-9.51575 -27.2697,-21.6295 -44.7496,-22.8807 -20.6869,-1.48238 -39.9841,6.13714 -56.9381,17.7595l-60.4205 50.0812 -49.8113 38.8519z"/>
  <path class="fil0 str1" d="M-0.679597 168.672c32.7674,-26.6579 64.2918,-54.2889 95.4398,-81.7524 14.4792,-12.7684 42.96,-28.0614 62.7887,-27.66 26.6413,0.539802 35.5287,11.232 53.81,25.4468"/>
  <path class="fil3 str1" d="M67.7258 111.273c35.5439,-28.4088 47.3144,-48.2957 87.6487,-49.2964 23.2253,-5.052 43.832,11.6888 84.9621,50.3373l-172.611 -1.04085z"/>
 </g>
</svg>
