<?xml version="1.0" encoding="UTF-8" standalone="no"?>
<!-- Created with Inkscape (http://www.inkscape.org/) -->

<svg
   xmlns:dc="http://purl.org/dc/elements/1.1/"
   xmlns:cc="http://creativecommons.org/ns#"
   xmlns:rdf="http://www.w3.org/1999/02/22-rdf-syntax-ns#"
   xmlns:svg="http://www.w3.org/2000/svg"
   xmlns="http://www.w3.org/2000/svg"
   xmlns:sodipodi="http://sodipodi.sourceforge.net/DTD/sodipodi-0.dtd"
   xmlns:inkscape="http://www.inkscape.org/namespaces/inkscape"
   width="256"
   height="256"
   id="svg2"
   version="1.1"
   inkscape:version="0.48.3.1 r9886"
   sodipodi:docname="zoom-fit-best.svg">
  <defs
     id="defs4" />
  <sodipodi:namedview
     id="base"
     pagecolor="#ffffff"
     bordercolor="#666666"
     borderopacity="1.0"
     inkscape:pageopacity="0.0"
     inkscape:pageshadow="2"
     inkscape:zoom="2.5686441"
     inkscape:cx="74.272517"
     inkscape:cy="111.42857"
     inkscape:document-units="px"
     inkscape:current-layer="layer1"
     showgrid="false"
     inkscape:window-width="1920"
     inkscape:window-height="1050"
     inkscape:window-x="-4"
     inkscape:window-y="-4"
     inkscape:window-maximized="1" />
  <metadata
     id="metadata7">
    <rdf:RDF>
      <cc:Work
         rdf:about="">
        <dc:format>image/svg+xml</dc:format>
        <dc:type
           rdf:resource="http://purl.org/dc/dcmitype/StillImage" />
        <dc:title />
      </cc:Work>
    </rdf:RDF>
  </metadata>
  <g
     inkscape:label="Capa 1"
     inkscape:groupmode="layer"
     id="layer1"
     transform="translate(0,-796.36218)">
    <g
       id="g4799"
       transform="matrix(21.373914,0,0,21.373914,-42.12955,753.28772)"
       style="fill:#b8db7d;fill-opacity:1">
      <g
         transform="translate(-161.0002,-667)"
         style="display:inline;fill:#b8db7d;fill-opacity:1"
         id="layer9"
         inkscape:label="status" />
      <g
         transform="translate(-161.0002,-667)"
         id="layer10"
         inkscape:label="devices"
         style="fill:#b8db7d;fill-opacity:1" />
      <g
         transform="translate(-161.0002,-667)"
         id="layer11"
         inkscape:label="apps"
         style="fill:#b8db7d;fill-opacity:1" />
      <g
         transform="translate(-161.0002,-667)"
         id="layer13"
         inkscape:label="places"
         style="fill:#b8db7d;fill-opacity:1" />
      <g
         transform="translate(-161.0002,-667)"
         id="layer14"
         inkscape:label="mimetypes"
         style="fill:#b8db7d;fill-opacity:1" />
      <g
         transform="translate(-161.0002,-667)"
         style="display:inline;fill:#b8db7d;fill-opacity:1"
         id="layer15"
         inkscape:label="emblems" />
      <g
         transform="translate(-161.0002,-667)"
         style="display:inline;fill:#b8db7d;fill-opacity:1"
         id="g71291"
         inkscape:label="emotes" />
      <g
         transform="translate(-161.0002,-667)"
         style="display:inline;fill:#b8db7d;fill-opacity:1"
         id="g4953"
         inkscape:label="categories" />
      <g
         transform="translate(-161.0002,-667)"
         style="display:inline;fill:#b8db7d;fill-opacity:1"
         id="layer12"
         inkscape:label="actions">
        <path
           inkscape:connector-curvature="0"
           style="color:#bebebe;fill:#b8db7d;fill-opacity:1;stroke:none;stroke-width:2;marker:none;visibility:visible;display:inline;overflow:visible"
           id="rect11749-5-0-1"
           d="m 164.1877,669 c -0.6627,0 -1.1875,0.54899 -1.1875,1.21875 l 0,9.5625 c 0,0.66976 0.5248,1.21875 1.1875,1.21875 l 9.625,0 c 0.6627,0 1.1875,-0.54899 1.1875,-1.21875 l 0,-9.5625 c 0,-0.66976 -0.5248,-1.21875 -1.1875,-1.21875 z m 0.8125,2 3,0 0,2 -1,0 0,1 -2,0 z m 5,0 3,0 0,3 -2,0 0,-1 -1,0 z m -5,5 2,0 0,1 1,0 0,2 -3,0 z m 6,0 2,0 0,3 -3,0 0,-2 1,0 z"
           sodipodi:nodetypes="ssssssssscccccccccccccccccccccccccccc" />
      </g>
    </g>
  </g>
</svg>
