<?xml version="1.0" encoding="UTF-8" standalone="no"?>
<!-- Creator: CorelDRAW -->

<svg
   xmlns:dc="http://purl.org/dc/elements/1.1/"
   xmlns:cc="http://creativecommons.org/ns#"
   xmlns:rdf="http://www.w3.org/1999/02/22-rdf-syntax-ns#"
   xmlns:svg="http://www.w3.org/2000/svg"
   xmlns="http://www.w3.org/2000/svg"
   xmlns:sodipodi="http://sodipodi.sourceforge.net/DTD/sodipodi-0.dtd"
   xmlns:inkscape="http://www.inkscape.org/namespaces/inkscape"
   xml:space="preserve"
   width="256"
   height="256"
   style="fill-rule:evenodd"
   viewBox="0 0 256 256"
   id="svg2"
   version="1.1"
   inkscape:version="0.48.3.1 r9886"
   sodipodi:docname="folder-movies.svg"><metadata
   id="metadata513"><rdf:RDF><cc:Work
       rdf:about=""><dc:format>image/svg+xml</dc:format><dc:type
         rdf:resource="http://purl.org/dc/dcmitype/StillImage" /></cc:Work></rdf:RDF></metadata><sodipodi:namedview
   pagecolor="#ffffff"
   bordercolor="#666666"
   borderopacity="1"
   objecttolerance="10"
   gridtolerance="10"
   guidetolerance="10"
   inkscape:pageopacity="0"
   inkscape:pageshadow="2"
   inkscape:window-width="1918"
   inkscape:window-height="1007"
   id="namedview511"
   showgrid="false"
   inkscape:zoom="2.5351563"
   inkscape:cx="150"
   inkscape:cy="118.44376"
   inkscape:window-x="0"
   inkscape:window-y="25"
   inkscape:window-maximized="1"
   inkscape:current-layer="svg2" />
 <defs
   id="defs4"><style
     type="text/css"
     id="style6">
   
    .str1 {stroke:#1F1A17;stroke-width:2.76822}
    .str0 {stroke:#72706F;stroke-width:4.15233}
    .fil5 {fill:none}
    .fil1 {fill:#00923F}
    .fil6 {fill:#1F1A17}
    .fil0 {fill:#B8DB7C}
    .fil3 {fill:#91447B}
    .fil4 {fill:#1F1A17;fill-rule:nonzero}
    .fil2 {fill:#838281;fill-rule:nonzero}
   
  </style></defs>
 
<path
   style="fill:#2ad4ff;stroke:#000000;stroke-width:10.7602253;stroke-miterlimit:4;stroke-opacity:1;stroke-dasharray:none"
   d="m 23.655483,61.153527 c -3.087911,-7.40103 -0.349176,-19.709928 8.616967,-20.640035 8.279206,-0.85895 22.1806,-5.610598 28.792549,-3.850124 5.609311,1.493442 8.867261,8.542204 10.190234,17.705939 0,0 5.772569,-0.547541 8.620142,-0.781355 51.503865,-4.229258 94.878905,0.137078 147.634675,7.041638 3.61485,0.473122 6.6322,3.989178 6.67323,8.965027 18.10439,55.337083 6.16303,87.527403 0.88994,107.884703 0.0412,4.97593 -2.94551,8.35543 -6.52509,8.9985 C 78.271893,213.47324 38.32115,193.61113 24.693485,182.23569 22.0617,180.03883 12.905176,162.48139 11.728808,157.61077 4.2494124,126.64213 5.4816584,110.87495 13.984635,70.151944 c 1.02238,-4.896625 6.014968,-8.989233 9.670848,-8.998417 z"
   id="_68172392-5-6-3-3-3-0-1-94"
   inkscape:connector-curvature="0"
   sodipodi:nodetypes="csssscccssssc" /><path
   style="fill:#ffffff;stroke:#000000;stroke-width:5.15009451;stroke-miterlimit:4;stroke-opacity:1;stroke-dasharray:none"
   d="M 40.916455,67.599127 C 108.30389,43.489818 156.22656,39.277213 219.60156,36.338569 c 3.23812,-0.150211 6.39204,2.339516 7.14687,6.502251 23.86966,43.626452 18.04842,72.40227 16.3652,90.25567 0.75518,4.16274 -1.37585,7.44584 -4.42196,8.5259 C 110.81371,186.96107 72.911589,176.3602 59.318087,168.88973 56.692826,167.44702 46.127234,154.12115 44.391996,150.21815 33.359635,125.40225 32.162495,112.00557 33.735935,76.600549 c 0.18918,-4.257154 3.975873,-8.441005 7.18052,-9.001422 z"
   id="_68172392-5-6-3-3-3-0-1-5-6-0"
   inkscape:connector-curvature="0"
   sodipodi:nodetypes="ccccsssscc" /><path
   style="fill:#2ad4ff;stroke:#000000;stroke-width:7.725142;stroke-miterlimit:4;stroke-opacity:1;stroke-dasharray:none"
   d="M 25.049785,82.182565 C 106.05167,69.873753 161.13176,73.86499 233.45806,81.737167 c 3.69554,0.402223 6.78036,3.391595 6.82233,7.622054 18.50884,47.047839 6.30071,74.416129 0.90977,91.723959 0.0421,4.23055 -3.01126,7.10379 -6.67084,7.65055 -153.633153,22.95157 -194.476236,6.06484 -208.408357,-3.60669 -2.690668,-1.86777 -12.051651,-16.79515 -13.25437,-20.93617 -7.6464304,-26.3296 -6.3866315,-39.73495 2.306212,-74.357754 1.045298,-4.163165 6.149299,-7.64274 9.88698,-7.650551 z"
   id="_68172392-5-6-3-3-3-0-1-5-42"
   inkscape:connector-curvature="0"
   sodipodi:nodetypes="ccccsssscc" /><path
   style="fill:#000000;fill-opacity:1;fill-rule:nonzero;stroke:none"
   d="m 190.9018,50.685444 c 7.10988,-2.166044 14.24482,-3.542664 21.48903,-1.505372 2.04579,4.109088 2.15866,7.644542 0.33887,10.606791 -7.91363,4.449682 -14.62481,2.574962 -21.48894,1.505373 -0.94401,-2.011971 -1.76039,-4.258013 -0.33896,-10.606792 z"
   id="rect4888"
   inkscape:connector-curvature="0"
   sodipodi:nodetypes="ccccc" /><path
   style="fill:#000000;fill-opacity:1;fill-rule:nonzero;stroke:none"
   d="m 156.14184,55.395807 c 7.02455,-2.676247 14.10199,-4.565817 21.40877,-3.053835 2.18784,3.956303 2.42509,7.479053 0.712,10.568853 -7.74695,5.01499 -14.51554,3.626868 -21.40869,3.053748 -1.01362,-1.941156 -1.90811,-4.125397 -0.71208,-10.568766 z"
   id="rect4888-5"
   inkscape:connector-curvature="0"
   sodipodi:nodetypes="ccccc" /><path
   style="fill:#000000;fill-opacity:1;fill-rule:nonzero;stroke:none"
   d="m 114.99739,61.557981 c 7.02464,-2.676161 14.10199,-4.565817 21.40877,-3.053749 2.18793,3.956303 2.42509,7.479053 0.712,10.568853 -7.74694,5.014904 -14.51554,3.626782 -21.40869,3.053748 -1.01362,-1.941242 -1.90811,-4.125483 -0.71208,-10.568852 z"
   id="rect4888-5-4"
   inkscape:connector-curvature="0"
   sodipodi:nodetypes="ccccc" /><path
   style="fill:#000000;fill-opacity:1;fill-rule:nonzero;stroke:none"
   d="M 76.889007,68.488549 C 83.91365,65.812388 90.990993,63.922732 98.29778,65.4348 c 2.18793,3.956303 2.42509,7.479053 0.712,10.568853 -7.746948,5.014904 -14.515542,3.626782 -21.408687,3.053748 -1.013624,-1.941242 -1.90811,-4.125483 -0.712086,-10.568852 z"
   id="rect4888-5-4-2"
   inkscape:connector-curvature="0"
   sodipodi:nodetypes="ccccc" /></svg>