<?xml version="1.0" encoding="UTF-8" standalone="no"?>
<!-- Created with Inkscape (http://www.inkscape.org/) -->

<svg
   xmlns:dc="http://purl.org/dc/elements/1.1/"
   xmlns:cc="http://creativecommons.org/ns#"
   xmlns:rdf="http://www.w3.org/1999/02/22-rdf-syntax-ns#"
   xmlns:svg="http://www.w3.org/2000/svg"
   xmlns="http://www.w3.org/2000/svg"
   xmlns:sodipodi="http://sodipodi.sourceforge.net/DTD/sodipodi-0.dtd"
   xmlns:inkscape="http://www.inkscape.org/namespaces/inkscape"
   width="256"
   height="256"
   id="svg2"
   version="1.1"
   inkscape:version="0.48.3.1 r9886"
   sodipodi:docname="network-server.svg">
  <defs
     id="defs4">
    <style
       id="style2991"
       type="text/css">
   
    .str3 {stroke:#1F1A17;stroke-width:1.05469}
    .str1 {stroke:#72706F;stroke-width:2.44157}
    .str2 {stroke:#1F1A17;stroke-width:2.76822}
    .str0 {stroke:#72706F;stroke-width:4.15233}
    .fil3 {fill:none}
    .fil1 {fill:#00923F}
    .fil2 {fill:#1F1A17}
    .fil0 {fill:#B8DB7C}
   
  </style>
    <style
       id="style3081"
       type="text/css">
   
    .str1 {stroke:#1F1A17;stroke-width:2.76822}
    .str0 {stroke:#72706F;stroke-width:4.15233}
    .fil1 {fill:none}
    .fil3 {fill:#00923F}
    .fil2 {fill:#1F1A17}
    .fil0 {fill:#B8DB7C}
   
  </style>
    <style
       id="style3135"
       type="text/css">
   
    .str1 {stroke:#1F1A17;stroke-width:2.76822}
    .str0 {stroke:#72706F;stroke-width:4.15233}
    .fil1 {fill:none}
    .fil3 {fill:#00923F}
    .fil2 {fill:#1F1A17}
    .fil0 {fill:#B8DB7C}
   
  </style>
    <style
       id="style3203"
       type="text/css">
   
    .str1 {stroke:#1F1A17;stroke-width:1.38411}
    .str2 {stroke:#1F1A17;stroke-width:2.76822}
    .str0 {stroke:#72706F;stroke-width:4.15233}
    .str4 {stroke:#1F1A17;stroke-width:0.895518}
    .str3 {stroke:#72706F;stroke-width:1.34259}
    .fil2 {fill:none}
    .fil0 {fill:#00923F}
    .fil1 {fill:#1F1A17}
    .fil3 {fill:#B8DB7C}
    .fil5 {fill:#1F1A17;fill-rule:nonzero}
    .fil4 {fill:#72706F;fill-rule:nonzero}
    .fil6 {fill:#B8DB7C;fill-rule:nonzero}
   
  </style>
    <style
       id="style3319"
       type="text/css">
   
    .str1 {stroke:#1F1A17;stroke-width:1.38411}
    .str2 {stroke:#1F1A17;stroke-width:2.76822}
    .str0 {stroke:#72706F;stroke-width:4.15233}
    .str4 {stroke:#1F1A17;stroke-width:0.895518}
    .str3 {stroke:#72706F;stroke-width:1.34259}
    .fil2 {fill:none}
    .fil0 {fill:#00923F}
    .fil1 {fill:#1F1A17}
    .fil3 {fill:#B8DB7C}
    .fil5 {fill:#1F1A17;fill-rule:nonzero}
    .fil4 {fill:#72706F;fill-rule:nonzero}
    .fil6 {fill:#B8DB7C;fill-rule:nonzero}
   
  </style>
    <style
       id="style3435"
       type="text/css">
   
    .str1 {stroke:#1F1A17;stroke-width:2.76822}
    .str0 {stroke:#72706F;stroke-width:4.15233}
    .fil1 {fill:none}
    .fil3 {fill:#00923F}
    .fil2 {fill:#1F1A17}
    .fil0 {fill:#B8DB7C}
   
  </style>
    <style
       id="style3502"
       type="text/css">
   
    .str3 {stroke:#1F1A17;stroke-width:1.05469}
    .str1 {stroke:#72706F;stroke-width:2.44157}
    .str2 {stroke:#1F1A17;stroke-width:2.76822}
    .str0 {stroke:#72706F;stroke-width:4.15233}
    .fil3 {fill:none}
    .fil1 {fill:#00923F}
    .fil2 {fill:#1F1A17}
    .fil0 {fill:#B8DB7C}
   
  </style>
    <style
       id="style3592"
       type="text/css">
   
    .str1 {stroke:#1F1A17;stroke-width:2.76822}
    .str0 {stroke:#72706F;stroke-width:4.15233}
    .fil1 {fill:none}
    .fil3 {fill:#00923F}
    .fil2 {fill:#1F1A17}
    .fil0 {fill:#B8DB7C}
   
  </style>
    <style
       id="style3646"
       type="text/css">
   
    .str1 {stroke:#1F1A17;stroke-width:2.76822}
    .str0 {stroke:#72706F;stroke-width:4.15233}
    .fil1 {fill:none}
    .fil3 {fill:#00923F}
    .fil2 {fill:#1F1A17}
    .fil0 {fill:#B8DB7C}
   
  </style>
    <style
       id="style3714"
       type="text/css">
   
    .str3 {stroke:#1F1A17;stroke-width:1.05469}
    .str1 {stroke:#72706F;stroke-width:2.44157}
    .str2 {stroke:#1F1A17;stroke-width:2.76822}
    .str0 {stroke:#72706F;stroke-width:4.15233}
    .fil3 {fill:none}
    .fil1 {fill:#00923F}
    .fil2 {fill:#1F1A17}
    .fil0 {fill:#B8DB7C}
   
  </style>
    <style
       id="style3804"
       type="text/css">
   
    .str1 {stroke:#1F1A17;stroke-width:2.76822}
    .str0 {stroke:#72706F;stroke-width:4.15233}
    .fil1 {fill:none}
    .fil3 {fill:#00923F}
    .fil2 {fill:#1F1A17}
    .fil0 {fill:#B8DB7C}
   
  </style>
    <style
       id="style3858"
       type="text/css">
   
    .str1 {stroke:#1F1A17;stroke-width:2.76822}
    .str0 {stroke:#72706F;stroke-width:4.15233}
    .fil1 {fill:none}
    .fil3 {fill:#00923F}
    .fil2 {fill:#1F1A17}
    .fil0 {fill:#B8DB7C}
   
  </style>
    <style
       id="style3926"
       type="text/css">
   
    .str2 {stroke:#1F1A17;stroke-width:1.05469}
    .str3 {stroke:#1F1A17;stroke-width:1.38411}
    .str1 {stroke:#1F1A17;stroke-width:2.76822}
    .str0 {stroke:#72706F;stroke-width:4.15233}
    .fil0 {fill:none}
    .fil3 {fill:#00923F}
    .fil1 {fill:#1F1A17}
    .fil2 {fill:#B8DB7C}
   
  </style>
    <style
       id="style3998"
       type="text/css">
   
    .str1 {stroke:#1F1A17;stroke-width:2.76822}
    .str0 {stroke:#72706F;stroke-width:4.15233}
    .fil2 {fill:none}
    .fil3 {fill:#00923F}
    .fil1 {fill:#1F1A17}
    .fil0 {fill:#B8DB7C}
   
  </style>
    <style
       id="style4042"
       type="text/css">
   
    .str1 {stroke:#1F1A17;stroke-width:2.76822}
    .str0 {stroke:#72706F;stroke-width:4.15233}
    .fil2 {fill:none}
    .fil3 {fill:#00923F}
    .fil1 {fill:#1F1A17}
    .fil0 {fill:#B8DB7C}
   
  </style>
    <style
       id="style4086"
       type="text/css">
   
    .str1 {stroke:#1F1A17;stroke-width:2.34375}
    .str0 {stroke:#72706F;stroke-width:3.51563}
    .fil3 {fill:none}
    .fil2 {fill:#1F1A17}
    .fil0 {fill:#00923F;fill-rule:nonzero}
    .fil1 {fill:#B8DB7C;fill-rule:nonzero}
   
  </style>
    <style
       id="style4130"
       type="text/css">
   
    .str1 {stroke:#1F1A17;stroke-width:2.76822}
    .str0 {stroke:#72706F;stroke-width:4.15233}
    .fil2 {fill:none}
    .fil3 {fill:#00923F}
    .fil1 {fill:#1F1A17}
    .fil0 {fill:#B8DB7C}
   
  </style>
    <style
       id="style4181"
       type="text/css">
   
    .str1 {stroke:#1F1A17;stroke-width:2.76822}
    .str0 {stroke:#72706F;stroke-width:4.15233}
    .fil2 {fill:none}
    .fil3 {fill:#00923F}
    .fil1 {fill:#1F1A17}
    .fil0 {fill:#B8DB7C}
   
  </style>
    <style
       id="style4232"
       type="text/css">
   
    .str0 {stroke:#1F1A17;stroke-width:1.84225}
    .str1 {stroke:#72706F;stroke-width:2.76406}
    .fil3 {fill:none}
    .fil4 {fill:#00923F}
    .fil2 {fill:#1F1A17}
    .fil0 {fill:#B8DB7C}
    .fil1 {fill:#72706F;fill-rule:nonzero}
   
  </style>
    <style
       id="style4418"
       type="text/css">
   
    .str0 {stroke:#1F1A17;stroke-width:1.84225}
    .str1 {stroke:#72706F;stroke-width:2.76406}
    .fil3 {fill:none}
    .fil4 {fill:#00923F}
    .fil2 {fill:#1F1A17}
    .fil0 {fill:#B8DB7C}
    .fil1 {fill:#72706F;fill-rule:nonzero}
   
  </style>
    <style
       id="style4604"
       type="text/css">
   
    .str0 {stroke:#1F1A17;stroke-width:1.84225}
    .str1 {stroke:#72706F;stroke-width:2.76406}
    .fil3 {fill:none}
    .fil4 {fill:#00923F}
    .fil2 {fill:#1F1A17}
    .fil0 {fill:#B8DB7C}
    .fil1 {fill:#72706F;fill-rule:nonzero}
   
  </style>
    <style
       id="style4790"
       type="text/css">
   
    .str0 {stroke:#1F1A17;stroke-width:1.84225}
    .str1 {stroke:#72706F;stroke-width:2.76406}
    .fil3 {fill:none}
    .fil4 {fill:#00923F}
    .fil2 {fill:#1F1A17}
    .fil0 {fill:#B8DB7C}
    .fil1 {fill:#72706F;fill-rule:nonzero}
   
  </style>
  </defs>
  <sodipodi:namedview
     id="base"
     pagecolor="#ffffff"
     bordercolor="#666666"
     borderopacity="1.0"
     inkscape:pageopacity="0.0"
     inkscape:pageshadow="2"
     inkscape:zoom="2.7482139"
     inkscape:cx="127.46317"
     inkscape:cy="116.72653"
     inkscape:document-units="px"
     inkscape:current-layer="layer1"
     showgrid="false"
     showguides="true"
     inkscape:guide-bbox="true"
     inkscape:window-width="1918"
     inkscape:window-height="1007"
     inkscape:window-x="0"
     inkscape:window-y="25"
     inkscape:window-maximized="1" />
  <metadata
     id="metadata7">
    <rdf:RDF>
      <cc:Work
         rdf:about="">
        <dc:format>image/svg+xml</dc:format>
        <dc:type
           rdf:resource="http://purl.org/dc/dcmitype/StillImage" />
        <dc:title />
      </cc:Work>
    </rdf:RDF>
  </metadata>
  <g
     inkscape:label="Capa 1"
     inkscape:groupmode="layer"
     id="layer1"
     transform="translate(0,-796.36218)">
    <g
       id="g5363"
       transform="matrix(0.62261539,0,0,0.62261539,2395.0507,167.06548)">
      <g
         transform="translate(298.46366,161.52152)"
         id="g5291">
        <path
           style="fill:#2ad4ff;stroke:#000000;stroke-width:6.45421553;stroke-miterlimit:4;stroke-opacity:1;stroke-dasharray:none"
           d="m -4126.1848,1055.3476 c 59.9684,-11.6055 100.7461,-7.8423 154.2916,-0.42 2.736,0.3793 5.0198,3.1978 5.0508,7.1866 13.7028,44.3594 4.6647,70.1639 0.6736,86.4827 0.031,3.9888 -2.2294,6.6978 -4.9387,7.2134 -113.7397,21.6401 -143.9772,5.7183 -154.2916,-3.4006 -1.992,-1.761 -8.9223,-15.8355 -9.8127,-19.7399 -5.6609,-24.8251 -4.7282,-37.4644 1.7074,-70.1089 0.7738,-3.9252 4.5525,-7.2059 7.3196,-7.2133 z"
           id="_68172392-5-6-3-3-3-0-1-5-62-3"
           inkscape:connector-curvature="0"
           sodipodi:nodetypes="ccccsssscc" />
        <path
           style="fill:#ffffff;stroke:#000000;stroke-width:4.59641171;stroke-miterlimit:4;stroke-opacity:1;stroke-dasharray:none"
           d="m -4106.0922,1065.6596 c 43.9335,-8.0342 73.8078,-5.429 113.0359,-0.2907 2.0044,0.2624 3.6775,2.2136 3.7003,4.975 10.0388,30.7089 3.4174,48.5725 0.4934,59.8695 0.022,2.7614 -1.6332,4.6368 -3.6181,4.9937 -83.3272,14.9808 -105.4795,3.9587 -113.036,-2.3541 -1.4593,-1.2192 -6.5364,-10.9625 -7.1889,-13.6654 -4.1471,-17.1857 -3.4639,-25.9356 1.2509,-48.5344 0.567,-2.7174 3.3353,-4.9885 5.3625,-4.9936 z"
           id="_68172392-5-6-3-3-3-0-1-5-62-5-9"
           inkscape:connector-curvature="0"
           sodipodi:nodetypes="ccccsssscc" />
        <path
           style="fill:#2ad4ff;fill-opacity:1;stroke:#000000;stroke-width:3.81278729;stroke-linecap:butt;stroke-linejoin:miter;stroke-miterlimit:4;stroke-opacity:1"
           d="m -4079.5903,1166.3756 c 0,0 -34.3976,1.529 -32.2107,12.8843 0.1971,1.0236 13.7686,0.3942 13.7686,0.3942 0,0 107.0984,2.2308 115.0744,-0.3942 8.3636,-2.7525 -20.937,-16.1054 -20.937,-16.1054 l -75.6953,3.2211"
           id="path4441-5"
           inkscape:connector-curvature="0"
           sodipodi:nodetypes="cscscc" />
        <path
           style="fill:#ffffff;stroke:#000000;stroke-width:1.53587377;stroke-linecap:round;stroke-linejoin:round;stroke-miterlimit:4;stroke-opacity:1;stroke-dasharray:none;stroke-dashoffset:0"
           d="m -3979.5394,1151.1207 c -4.3141,1.2968 -8.2997,-1.1479 -9.7689,-5.2103 -2.1274,-5.8826 1.1227,-8.9971 5.8539,-9.9065 3.9057,-0.7508 7.6028,0.4373 9.7688,5.2102 1.7709,3.9022 -1.5329,8.5992 -5.8392,9.9021"
           id="path7090-4-4-1-8-0"
           inkscape:connector-curvature="0"
           sodipodi:nodetypes="csssc" />
      </g>
      <g
         transform="translate(319.53169,45.647386)"
         id="g5285">
        <path
           style="fill:#2ad4ff;stroke:#000000;stroke-width:6.45421553;stroke-miterlimit:4;stroke-opacity:1;stroke-dasharray:none"
           d="m -3923.8766,1168.6924 c 59.9684,-11.6055 100.746,-7.8424 154.2916,-0.42 2.7359,0.3792 5.0197,3.1978 5.0508,7.1865 13.7027,44.3595 4.6646,70.1639 0.6735,86.4827 0.031,3.9888 -2.2293,6.6979 -4.9386,7.2134 -113.7398,21.6401 -143.9773,5.7183 -154.2917,-3.4006 -1.992,-1.761 -8.9223,-15.8354 -9.8127,-19.7398 -5.6609,-24.8251 -4.7282,-37.4645 1.7074,-70.1089 0.7739,-3.9253 4.5525,-7.206 7.3197,-7.2133 z"
           id="_68172392-5-6-3-3-3-0-1-5-62-3-2"
           inkscape:connector-curvature="0"
           sodipodi:nodetypes="ccccsssscc" />
        <path
           style="fill:#ffffff;stroke:#000000;stroke-width:4.59641171;stroke-miterlimit:4;stroke-opacity:1;stroke-dasharray:none"
           d="m -3903.7841,1179.0044 c 43.9336,-8.0342 73.8078,-5.4291 113.0359,-0.2908 2.0044,0.2625 3.6775,2.2137 3.7004,4.9751 10.0387,30.7088 3.4173,48.5724 0.4933,59.8694 0.022,2.7615 -1.6332,4.6368 -3.6181,4.9937 -83.3271,14.9809 -105.4794,3.9587 -113.0359,-2.3541 -1.4593,-1.2191 -6.5365,-10.9625 -7.1889,-13.6653 -4.1472,-17.1858 -3.4639,-25.9357 1.2508,-48.5344 0.567,-2.7175 3.3353,-4.9886 5.3625,-4.9936 z"
           id="_68172392-5-6-3-3-3-0-1-5-62-5-9-0"
           inkscape:connector-curvature="0"
           sodipodi:nodetypes="ccccsssscc" />
        <path
           style="fill:#2ad4ff;fill-opacity:1;stroke:#000000;stroke-width:3.81278729;stroke-linecap:butt;stroke-linejoin:miter;stroke-miterlimit:4;stroke-opacity:1"
           d="m -3877.2822,1279.7203 c 0,0 -34.3975,1.529 -32.2107,12.8844 0.1971,1.0235 13.7686,0.3941 13.7686,0.3941 0,0 107.0985,2.2309 115.0744,-0.3941 8.3636,-2.7526 -20.9369,-16.1054 -20.9369,-16.1054 l -75.6954,3.221"
           id="path4441-5-4"
           inkscape:connector-curvature="0"
           sodipodi:nodetypes="cscscc" />
        <path
           style="fill:#ffffff;stroke:#000000;stroke-width:1.53587377;stroke-linecap:round;stroke-linejoin:round;stroke-miterlimit:4;stroke-opacity:1;stroke-dasharray:none;stroke-dashoffset:0"
           d="m -3777.2313,1264.4655 c -4.3141,1.2967 -8.2996,-1.1479 -9.7688,-5.2103 -2.1275,-5.8827 1.1227,-8.9971 5.8538,-9.9065 3.9057,-0.7508 7.6028,0.4372 9.7688,5.2102 1.7709,3.9022 -1.5329,8.5992 -5.8392,9.9021"
           id="path7090-4-4-1-8-0-0"
           inkscape:connector-curvature="0"
           sodipodi:nodetypes="csssc" />
      </g>
      <path
         sodipodi:nodetypes="ccscscccccc"
         inkscape:connector-curvature="0"
         id="path6003-5-9"
         d="m -3614.0172,1189.1624 c -11.2598,22.5256 -34.6866,14.0888 -40.1294,-0.6005 -2.7458,-8.6791 -15.3147,0.1499 -21.9199,-3.8986 -29.2593,-17.9335 -5.057,-41.4167 -5.057,-41.4167 0,0 -22.8851,-9.9836 -13.0364,-32.8965 9.8489,-22.9128 27.6965,-9.2407 27.6965,-9.2407 -0.2529,-17.9619 30.4175,-37.8398 36.7424,-6.6462 12.4421,-16.7384 51.9057,-6.4878 33.6495,19.9568 23.3295,0.1068 43.4055,15.8008 9.496,34.9035 0,0 20.2359,13.9767 3.1664,35.5816 -7.818,11.3569 -29.8238,0.4453 -30.6081,4.2573 z"
         inkscape:transform-center-y="2.362521"
         inkscape:transform-center-x="-5.634634"
         style="fill:#2ad4ff;fill-opacity:1;fill-rule:nonzero;stroke:#000000;stroke-width:6.32706642;stroke-linecap:square;stroke-linejoin:round;stroke-miterlimit:4;stroke-opacity:1;stroke-dasharray:none;stroke-dashoffset:0" />
      <path
         sodipodi:nodetypes="scscscccs"
         inkscape:connector-curvature="0"
         id="path6003-2-6-8"
         d="m -3705.62,1177.8326 c -3.3258,3.9404 -9.3157,1.0051 -9.3157,1.0051 0,0 -3.6387,6.3462 -8.4139,4.4009 -4.7754,-1.9453 -3.2894,-9.0397 -3.2894,-9.0397 0,0 -5.5123,-0.9898 -5.138,-6.1326 0.3745,-5.1428 6.0275,-5.3492 6.0275,-5.3492 -6.1946,-12.4006 14.4795,-10.4862 11.1782,-2.7661 6.4513,-2.9775 13.8862,3.3169 8.5533,9.3427 0,0 3.7238,4.5978 0.398,8.5383 z"
         inkscape:transform-center-y="0.80066336"
         inkscape:transform-center-x="-0.53108204"
         style="fill:#2ad4ff;fill-opacity:1;fill-rule:nonzero;stroke:#000000;stroke-width:2.86051345;stroke-linecap:square;stroke-linejoin:round;stroke-miterlimit:4;stroke-opacity:1;stroke-dasharray:none;stroke-dashoffset:0" />
      <path
         sodipodi:nodetypes="scscscccs"
         inkscape:connector-curvature="0"
         id="path6003-2-7-0-9"
         d="m -3740.0037,1190.0255 c -2.3894,2.8308 -6.6927,0.7216 -6.6927,0.7216 0,0 -2.614,4.5591 -6.0446,3.1616 -3.4309,-1.3974 -2.3631,-6.4943 -2.3631,-6.4943 0,0 -3.9603,-0.711 -3.6913,-4.4056 0.2692,-3.6946 4.3304,-3.8428 4.3304,-3.8428 -4.4502,-8.9089 10.4021,-7.5334 8.0303,-1.9873 4.635,-2.1391 9.9761,2.3829 6.1449,6.712 0,0 2.6752,3.303 0.286,6.134 z"
         inkscape:transform-center-y="0.57474405"
         inkscape:transform-center-x="-0.3814653"
         style="fill:#2ad4ff;fill-opacity:1;fill-rule:nonzero;stroke:#000000;stroke-width:1.90700912;stroke-linecap:square;stroke-linejoin:round;stroke-miterlimit:4;stroke-opacity:1;stroke-dasharray:none;stroke-dashoffset:0" />
      <path
         sodipodi:nodetypes="scscscccs"
         inkscape:connector-curvature="0"
         id="path6003-2-6-8-9"
         d="m -3549.5575,1152.49 c 4.8293,1.3652 4.634,7.8536 4.634,7.8536 0,0 7.0871,0.676 7.281,5.6906 0.1939,5.0143 -6.6917,6.5471 -6.6917,6.5471 0,0 1.3373,5.2837 -3.372,7.0179 -4.7087,1.7347 -7.1628,-3.194 -7.1628,-3.194 -8.5038,10.4723 -15.1119,-8.6225 -6.9425,-8.7974 -5.2308,-4.5226 -2.6383,-13.6416 4.8454,-11.335 0,0 2.5797,-5.1478 7.4086,-3.7828 z"
         inkscape:transform-center-y="-28.33264"
         inkscape:transform-center-x="13.86045"
         style="fill:#2ad4ff;fill-opacity:1;fill-rule:nonzero;stroke:#000000;stroke-width:2.78385544;stroke-linecap:square;stroke-linejoin:round;stroke-miterlimit:4;stroke-opacity:1;stroke-dasharray:none;stroke-dashoffset:0" />
      <path
         sodipodi:nodetypes="scscscccs"
         inkscape:connector-curvature="0"
         id="path6003-2-7-0-9-0"
         d="m -3518.0158,1173.7762 c 3.4693,0.9808 3.3285,5.6424 3.3285,5.6424 0,0 5.0914,0.4857 5.2308,4.0882 0.1395,3.6024 -4.8073,4.7035 -4.8073,4.7035 0,0 0.9606,3.7959 -2.4225,5.0418 -3.3815,1.25 -5.1461,-2.2947 -5.1461,-2.2947 -6.109,7.5237 -10.8564,-6.1945 -4.9872,-6.3201 -3.758,-3.249 -1.8955,-9.8001 3.481,-8.143 0,0 1.8531,-3.6984 5.3223,-2.7178 z"
         inkscape:transform-center-y="-10.881981"
         inkscape:transform-center-x="-18.25235"
         style="fill:#2ad4ff;fill-opacity:1;fill-rule:nonzero;stroke:#000000;stroke-width:1.85590374;stroke-linecap:square;stroke-linejoin:round;stroke-miterlimit:4;stroke-opacity:1;stroke-dasharray:none;stroke-dashoffset:0" />
    </g>
  </g>
</svg>
