<?xml version="1.0" encoding="UTF-8" standalone="no"?>
<!-- Created with Inkscape (http://www.inkscape.org/) -->

<svg
   xmlns:dc="http://purl.org/dc/elements/1.1/"
   xmlns:cc="http://creativecommons.org/ns#"
   xmlns:rdf="http://www.w3.org/1999/02/22-rdf-syntax-ns#"
   xmlns:svg="http://www.w3.org/2000/svg"
   xmlns="http://www.w3.org/2000/svg"
   xmlns:xlink="http://www.w3.org/1999/xlink"
   xmlns:sodipodi="http://sodipodi.sourceforge.net/DTD/sodipodi-0.dtd"
   xmlns:inkscape="http://www.inkscape.org/namespaces/inkscape"
   width="256"
   height="256"
   id="svg3832"
   version="1.1"
   inkscape:version="0.48.3.1 r9886"
   sodipodi:docname="huayra-compartir.svg"
   inkscape:export-filename="/home/alumno/Dropbox/huayra/logos/compartir-web.png"
   inkscape:export-xdpi="5.527988"
   inkscape:export-ydpi="5.527988">
  <defs
     id="defs3834">
    <linearGradient
       id="linearGradient5029">
      <stop
         style="stop-color:#7d9c00;stop-opacity:1;"
         offset="0"
         id="stop5031" />
      <stop
         style="stop-color:#ccff00;stop-opacity:1;"
         offset="1"
         id="stop5033" />
    </linearGradient>
    <linearGradient
       id="linearGradient5021">
      <stop
         style="stop-color:#f9ffe0;stop-opacity:1;"
         offset="0"
         id="stop5023" />
      <stop
         style="stop-color:#eeffaa;stop-opacity:0;"
         offset="1"
         id="stop5025" />
    </linearGradient>
    <linearGradient
       id="linearGradient4433">
      <stop
         id="stop4435"
         offset="0"
         style="stop-color:#c663ff;stop-opacity:1;" />
      <stop
         id="stop4437"
         offset="1"
         style="stop-color:#3ad0ff;stop-opacity:1;" />
    </linearGradient>
    <linearGradient
       id="linearGradient4380">
      <stop
         style="stop-color:#e0f9ff;stop-opacity:1;"
         offset="0"
         id="stop4382" />
      <stop
         style="stop-color:#bdf2ff;stop-opacity:0.2392638;"
         offset="1"
         id="stop4384" />
    </linearGradient>
    <linearGradient
       id="linearGradient4299">
      <stop
         style="stop-color:#ffe0fd;stop-opacity:1;"
         offset="0"
         id="stop4301" />
      <stop
         style="stop-color:#ffd5fa;stop-opacity:0.31901839;"
         offset="1"
         id="stop4303" />
    </linearGradient>
    <linearGradient
       id="linearGradient4281">
      <stop
         style="stop-color:#27d4ff;stop-opacity:1;"
         offset="0"
         id="stop4283" />
      <stop
         style="stop-color:#004e61;stop-opacity:1;"
         offset="1"
         id="stop4285" />
    </linearGradient>
    <linearGradient
       id="linearGradient4273">
      <stop
         style="stop-color:#f282ff;stop-opacity:1;"
         offset="0"
         id="stop4275" />
      <stop
         style="stop-color:#400045;stop-opacity:1;"
         offset="1"
         id="stop4277" />
    </linearGradient>
    <linearGradient
       inkscape:collect="always"
       xlink:href="#linearGradient4273"
       id="linearGradient4279"
       x1="108.0029"
       y1="159.38654"
       x2="70.710815"
       y2="61.164284"
       gradientUnits="userSpaceOnUse"
       gradientTransform="translate(-1563.7749,-344.58422)" />
    <linearGradient
       inkscape:collect="always"
       xlink:href="#linearGradient4281"
       id="linearGradient4287"
       x1="203.37991"
       y1="234.20091"
       x2="150.70181"
       y2="146.58525"
       gradientUnits="userSpaceOnUse" />
    <linearGradient
       inkscape:collect="always"
       xlink:href="#linearGradient4299"
       id="linearGradient4305"
       x1="29.294424"
       y1="35.424591"
       x2="100.51018"
       y2="117.75202"
       gradientUnits="userSpaceOnUse"
       gradientTransform="translate(261.6295,18.18275)" />
    <linearGradient
       inkscape:collect="always"
       xlink:href="#linearGradient4273-7"
       id="linearGradient4279-2"
       x1="63.556183"
       y1="170.49821"
       x2="69.195587"
       y2="16.212494"
       gradientUnits="userSpaceOnUse"
       gradientTransform="translate(-1563.7749,-344.58422)" />
    <linearGradient
       id="linearGradient4273-7">
      <stop
         style="stop-color:#0eff87;stop-opacity:1;"
         offset="0"
         id="stop4275-4" />
      <stop
         style="stop-color:#004537;stop-opacity:1;"
         offset="1"
         id="stop4277-0" />
    </linearGradient>
    <linearGradient
       y2="16.212494"
       x2="69.195587"
       y1="170.49821"
       x1="63.556183"
       gradientTransform="translate(-1303.3621,-328.95264)"
       gradientUnits="userSpaceOnUse"
       id="linearGradient4322"
       xlink:href="#linearGradient4273-7"
       inkscape:collect="always" />
    <linearGradient
       inkscape:collect="always"
       xlink:href="#linearGradient4299"
       id="linearGradient4342"
       gradientUnits="userSpaceOnUse"
       gradientTransform="translate(-1562.6385,-342.1851)"
       x1="45.204327"
       y1="46.031193"
       x2="98.237335"
       y2="113.71141" />
    <linearGradient
       inkscape:collect="always"
       xlink:href="#linearGradient4299-7"
       id="linearGradient4342-3"
       gradientUnits="userSpaceOnUse"
       gradientTransform="translate(-1562.7648,-342.56391)"
       x1="29.294424"
       y1="35.424591"
       x2="100.51018"
       y2="117.75202" />
    <linearGradient
       id="linearGradient4299-7">
      <stop
         style="stop-color:#d5ffe6;stop-opacity:1;"
         offset="0"
         id="stop4301-0" />
      <stop
         style="stop-color:#d5ffe6;stop-opacity:0;"
         offset="1"
         id="stop4303-8" />
    </linearGradient>
    <linearGradient
       y2="117.75202"
       x2="100.51018"
       y1="35.424591"
       x1="29.294424"
       gradientTransform="translate(-1325.8804,-366.28772)"
       gradientUnits="userSpaceOnUse"
       id="linearGradient4359"
       xlink:href="#linearGradient4299-7"
       inkscape:collect="always" />
    <linearGradient
       inkscape:collect="always"
       xlink:href="#linearGradient4380"
       id="linearGradient4386"
       x1="133.84521"
       y1="135.53931"
       x2="193.95554"
       y2="191.0977"
       gradientUnits="userSpaceOnUse"
       gradientTransform="translate(-270.7209,11.11168)" />
    <linearGradient
       inkscape:collect="always"
       xlink:href="#linearGradient4281-7"
       id="linearGradient4287-5"
       x1="155.90274"
       y1="241.77705"
       x2="172.92517"
       y2="87.491333"
       gradientUnits="userSpaceOnUse" />
    <linearGradient
       id="linearGradient4281-7">
      <stop
         style="stop-color:#27d4ff;stop-opacity:1;"
         offset="0"
         id="stop4283-1" />
      <stop
         style="stop-color:#004e61;stop-opacity:1;"
         offset="1"
         id="stop4285-7" />
    </linearGradient>
    <linearGradient
       gradientTransform="translate(-1834.0307,-335.28585)"
       y2="87.491333"
       x2="172.92517"
       y1="241.77705"
       x1="155.90274"
       gradientUnits="userSpaceOnUse"
       id="linearGradient4403"
       xlink:href="#linearGradient4281-7"
       inkscape:collect="always" />
    <linearGradient
       inkscape:collect="always"
       xlink:href="#linearGradient4380"
       id="linearGradient4423"
       gradientUnits="userSpaceOnUse"
       gradientTransform="translate(-1564.3106,-342.71185)"
       x1="133.84521"
       y1="135.53931"
       x2="193.95554"
       y2="191.0977" />
    <linearGradient
       inkscape:collect="always"
       xlink:href="#linearGradient5021"
       id="linearGradient5027"
       x1="116.51269"
       y1="119.51482"
       x2="145.71429"
       y2="148.58762"
       gradientUnits="userSpaceOnUse" />
    <linearGradient
       inkscape:collect="always"
       xlink:href="#linearGradient5029"
       id="linearGradient5035"
       x1="-416.57861"
       y1="292.18118"
       x2="-406.12259"
       y2="217.66479"
       gradientUnits="userSpaceOnUse" />
  </defs>
  <sodipodi:namedview
     id="base"
     pagecolor="#e6e7e8"
     bordercolor="#666666"
     borderopacity="1.0"
     inkscape:pageopacity="0"
     inkscape:pageshadow="2"
     inkscape:zoom="0.9899495"
     inkscape:cx="384.7833"
     inkscape:cy="-60.990776"
     inkscape:document-units="px"
     inkscape:current-layer="layer1"
     showgrid="false"
     showguides="false"
     inkscape:window-width="1914"
     inkscape:window-height="1030"
     inkscape:window-x="0"
     inkscape:window-y="25"
     inkscape:window-maximized="1"
     fit-margin-top="0"
     fit-margin-left="0"
     fit-margin-right="0"
     fit-margin-bottom="0" />
  <metadata
     id="metadata3837">
    <rdf:RDF>
      <cc:Work
         rdf:about="">
        <dc:format>image/svg+xml</dc:format>
        <dc:type
           rdf:resource="http://purl.org/dc/dcmitype/StillImage" />
        <dc:title />
      </cc:Work>
    </rdf:RDF>
  </metadata>
  <g
     inkscape:label="Capa 1"
     inkscape:groupmode="layer"
     id="layer1"
     transform="translate(1563.7749,344.58422)">
    <g
       id="g4870"
       transform="translate(-1640,511.42857)">
      <path
         inkscape:transform-center-y="1.4467684"
         inkscape:transform-center-x="-15.417242"
         transform="matrix(-0.07382585,0.66627789,-0.7289839,-0.03741284,-1495.8598,1738.7622)"
         d="m -364.28571,263.79074 c 0,46.54971 -20.46699,84.28571 -45.71429,84.28571 -25.2473,0 -45.71429,-37.736 -45.71429,-84.28571 0,-46.54971 20.46699,-84.28571 45.71429,-84.28571 25.2473,0 45.71429,37.736 45.71429,84.28571 z"
         sodipodi:ry="84.285713"
         sodipodi:rx="45.714287"
         sodipodi:cy="263.79074"
         sodipodi:cx="-410"
         id="path3848-2-9-2-9-8-4-6-3-9"
         style="fill:#cccccc;fill-opacity:0.59215686;stroke:none"
         sodipodi:type="arc" />
      <path
         sodipodi:open="true"
         sodipodi:end="6.0900184"
         sodipodi:start="0"
         d="m -362.85715,420.93362 c 0,34.71505 -28.1421,62.85715 -62.85714,62.85715 -34.71505,0 -62.85715,-28.1421 -62.85715,-62.85715 0,-34.71504 28.1421,-62.85714 62.85715,-62.85714 30.06277,0 55.91699,21.28695 61.68807,50.79059"
         sodipodi:ry="62.857143"
         sodipodi:rx="62.857143"
         sodipodi:cy="420.93362"
         sodipodi:cx="-425.71429"
         id="path3846-7-4-3-2"
         style="fill:#4e4e4e;fill-opacity:0.59215686;stroke:none"
         sodipodi:type="arc"
         transform="matrix(0.66916078,0,0,0.66916078,-1257.8314,1170.2401)" />
      <path
         transform="matrix(0.66916078,0,0,0.66916078,-1270.2586,1166.4163)"
         sodipodi:open="true"
         sodipodi:end="6.0900184"
         sodipodi:start="0"
         d="m -364.28571,263.79074 c 0,46.54971 -20.46699,84.28571 -45.71429,84.28571 -25.2473,0 -45.71429,-37.736 -45.71429,-84.28571 0,-46.54971 20.46699,-84.28571 45.71429,-84.28571 21.86383,0 40.6669,28.54387 44.86406,68.10556"
         sodipodi:ry="84.285713"
         sodipodi:rx="45.714287"
         sodipodi:cy="263.79074"
         sodipodi:cx="-410"
         id="path3848-7-6-4-3"
         style="opacity:0.59080003;fill:#4d4d4d;fill-opacity:1;stroke:none"
         sodipodi:type="arc" />
      <path
         transform="matrix(0.54569345,-0.38729164,0.38729164,0.54569345,-1502.2235,1067.1267)"
         sodipodi:open="true"
         sodipodi:end="6.0900184"
         sodipodi:start="0"
         d="m -364.28571,263.79074 c 0,46.54971 -20.46699,84.28571 -45.71429,84.28571 -25.2473,0 -45.71429,-37.736 -45.71429,-84.28571 0,-46.54971 20.46699,-84.28571 45.71429,-84.28571 21.86383,0 40.6669,28.54387 44.86406,68.10556"
         sodipodi:ry="84.285713"
         sodipodi:rx="45.714287"
         sodipodi:cy="263.79074"
         sodipodi:cx="-410"
         id="path3848-2-6-2-8-5"
         style="opacity:0.59080003;fill:#4d4d4d;stroke:#917c6f"
         sodipodi:type="arc" />
      <path
         inkscape:transform-center-y="8.6079444"
         inkscape:transform-center-x="11.306638"
         transform="matrix(-0.40836126,-0.53079875,0.51145405,-0.43171811,-1927.2952,1429.3614)"
         sodipodi:open="true"
         sodipodi:end="6.0900184"
         sodipodi:start="0"
         d="m -364.28571,263.79074 c 0,46.54971 -20.46699,84.28571 -45.71429,84.28571 -25.2473,0 -45.71429,-37.736 -45.71429,-84.28571 0,-46.54971 20.46699,-84.28571 45.71429,-84.28571 21.86383,0 40.6669,28.54387 44.86406,68.10556"
         sodipodi:ry="84.285713"
         sodipodi:rx="45.714287"
         sodipodi:cy="263.79074"
         sodipodi:cx="-410"
         id="path3848-2-9-2-2-5-3-2"
         style="opacity:0.59080003;fill:#4d4d4d;fill-opacity:1;stroke:none"
         sodipodi:type="arc" />
      <path
         inkscape:transform-center-y="14.211091"
         inkscape:transform-center-x="-0.25261687"
         transform="matrix(-0.66952916,0.01539325,-0.04566812,-0.66774262,-1800.5271,1744.401)"
         sodipodi:open="true"
         sodipodi:end="6.0900184"
         sodipodi:start="0"
         d="m -364.28571,263.79074 c 0,46.54971 -20.46699,84.28571 -45.71429,84.28571 -25.2473,0 -45.71429,-37.736 -45.71429,-84.28571 0,-46.54971 20.46699,-84.28571 45.71429,-84.28571 21.86383,0 40.6669,28.54387 44.86406,68.10556"
         sodipodi:ry="84.285713"
         sodipodi:rx="45.714287"
         sodipodi:cy="263.79074"
         sodipodi:cx="-410"
         id="path3848-2-9-2-9-38-6-9-1"
         style="opacity:0.59080003;fill:#4d4d4d;fill-opacity:1;stroke:none"
         sodipodi:type="arc" />
      <path
         inkscape:transform-center-y="10.433442"
         inkscape:transform-center-x="9.6498688"
         transform="matrix(-0.49396663,-0.45222032,0.42912941,-0.513628,-1775.3756,1315.4436)"
         sodipodi:open="true"
         sodipodi:end="6.0900184"
         sodipodi:start="0"
         d="m -364.28571,263.79074 c 0,46.54971 -20.46699,84.28571 -45.71429,84.28571 -25.2473,0 -45.71429,-37.736 -45.71429,-84.28571 0,-46.54971 20.46699,-84.28571 45.71429,-84.28571 21.86383,0 40.6669,28.54387 44.86406,68.10556"
         sodipodi:ry="84.285713"
         sodipodi:rx="45.714287"
         sodipodi:cy="263.79074"
         sodipodi:cx="-410"
         id="path3848-2-9-2-9-3-5-2-6-5"
         style="opacity:0.59080003;fill:#4d4d4d;fill-opacity:1;stroke:none"
         sodipodi:type="arc" />
      <path
         inkscape:transform-center-y="8.7985371"
         inkscape:transform-center-x="-11.16174"
         transform="matrix(-0.41187846,0.52807421,-0.54585438,-0.38730967,-1479.8009,1841.4917)"
         sodipodi:open="true"
         sodipodi:end="6.0900184"
         sodipodi:start="0"
         d="m -364.28571,263.79074 c 0,46.54971 -20.46699,84.28571 -45.71429,84.28571 -25.2473,0 -45.71429,-37.736 -45.71429,-84.28571 0,-46.54971 20.46699,-84.28571 45.71429,-84.28571 21.86383,0 40.6669,28.54387 44.86406,68.10556"
         sodipodi:ry="84.285713"
         sodipodi:rx="45.714287"
         sodipodi:cy="263.79074"
         sodipodi:cx="-410"
         id="path3848-2-9-2-9-8-7-7-9-5"
         style="opacity:0.59080003;fill:#4d4d4d;fill-opacity:1;stroke:none"
         sodipodi:type="arc" />
      <path
         inkscape:transform-center-y="1.4468098"
         inkscape:transform-center-x="-14.132917"
         transform="matrix(-0.0676758,0.66627789,-0.66825598,-0.03741284,-1279.5174,1732.6787)"
         sodipodi:open="true"
         sodipodi:end="6.0900184"
         sodipodi:start="0"
         d="m -364.28571,263.79074 c 0,46.54971 -20.46699,84.28571 -45.71429,84.28571 -25.2473,0 -45.71429,-37.736 -45.71429,-84.28571 0,-46.54971 20.46699,-84.28571 45.71429,-84.28571 21.86383,0 40.6669,28.54387 44.86406,68.10556"
         sodipodi:ry="84.285713"
         sodipodi:rx="45.714287"
         sodipodi:cy="263.79074"
         sodipodi:cx="-410"
         id="path3848-2-9-2-9-8-4-6-0-4-2"
         style="opacity:0.59080003;fill:#4d4d4d;fill-opacity:1;stroke:none"
         sodipodi:type="arc" />
    </g>
    <g
       id="g4858"
       transform="translate(-1142.8571,897.14286)">
      <g
         id="g4738">
        <path
           sodipodi:type="arc"
           style="opacity:0.59080003;fill:#aad400;fill-opacity:1;stroke:none"
           id="path3848-2-9-2-9-8-4-6-3-9-5"
           sodipodi:cx="-410"
           sodipodi:cy="263.79074"
           sodipodi:rx="45.714287"
           sodipodi:ry="84.285713"
           d="m -364.28571,263.79074 c 0,46.54971 -20.46699,84.28571 -45.71429,84.28571 -25.2473,0 -45.71429,-37.736 -45.71429,-84.28571 0,-46.54971 20.46699,-84.28571 45.71429,-84.28571 25.2473,0 45.71429,37.736 45.71429,84.28571 z"
           transform="matrix(-0.07382585,0.66627789,-0.7289839,-0.03741284,-1502.9512,1365.0058)"
           inkscape:transform-center-x="-15.417242"
           inkscape:transform-center-y="1.4467684" />
        <path
           transform="matrix(0.66916078,0,0,0.66916078,-1264.9228,796.48368)"
           sodipodi:type="arc"
           style="fill:#4d4d4d;fill-opacity:0.59215686;stroke:none"
           id="path3846-7-4-3-2-5"
           sodipodi:cx="-425.71429"
           sodipodi:cy="420.93362"
           sodipodi:rx="62.857143"
           sodipodi:ry="62.857143"
           d="m -362.85715,420.93362 c 0,34.71505 -28.1421,62.85715 -62.85714,62.85715 -34.71505,0 -62.85715,-28.1421 -62.85715,-62.85715 0,-34.71504 28.1421,-62.85714 62.85715,-62.85714 30.06277,0 55.91699,21.28695 61.68807,50.79059"
           sodipodi:start="0"
           sodipodi:end="6.0900184"
           sodipodi:open="true" />
        <path
           sodipodi:type="arc"
           style="opacity:0.59080003;fill:#4d4d4d;fill-opacity:1;stroke:none"
           id="path3848-7-6-4-3-5"
           sodipodi:cx="-410"
           sodipodi:cy="263.79074"
           sodipodi:rx="45.714287"
           sodipodi:ry="84.285713"
           d="m -364.28571,263.79074 c 0,46.54971 -20.46699,84.28571 -45.71429,84.28571 -25.2473,0 -45.71429,-37.736 -45.71429,-84.28571 0,-46.54971 20.46699,-84.28571 45.71429,-84.28571 21.86383,0 40.6669,28.54387 44.86406,68.10556"
           sodipodi:start="0"
           sodipodi:end="6.0900184"
           sodipodi:open="true"
           transform="matrix(0.66916078,0,0,0.66916078,-1277.35,792.65988)" />
        <path
           sodipodi:type="arc"
           style="opacity:0.59080003;fill:#4d4d4d;stroke:#917c6f"
           id="path3848-2-6-2-8-5-3"
           sodipodi:cx="-410"
           sodipodi:cy="263.79074"
           sodipodi:rx="45.714287"
           sodipodi:ry="84.285713"
           d="m -364.28571,263.79074 c 0,46.54971 -20.46699,84.28571 -45.71429,84.28571 -25.2473,0 -45.71429,-37.736 -45.71429,-84.28571 0,-46.54971 20.46699,-84.28571 45.71429,-84.28571 21.86383,0 40.6669,28.54387 44.86406,68.10556"
           sodipodi:start="0"
           sodipodi:end="6.0900184"
           sodipodi:open="true"
           transform="matrix(0.54569345,-0.38729164,0.38729164,0.54569345,-1509.3149,693.37028)" />
        <path
           sodipodi:type="arc"
           style="opacity:0.59080003;fill:#4d4d4d;fill-opacity:1;stroke:none"
           id="path3848-2-9-2-2-5-3-2-2"
           sodipodi:cx="-410"
           sodipodi:cy="263.79074"
           sodipodi:rx="45.714287"
           sodipodi:ry="84.285713"
           d="m -364.28571,263.79074 c 0,46.54971 -20.46699,84.28571 -45.71429,84.28571 -25.2473,0 -45.71429,-37.736 -45.71429,-84.28571 0,-46.54971 20.46699,-84.28571 45.71429,-84.28571 21.86383,0 40.6669,28.54387 44.86406,68.10556"
           sodipodi:start="0"
           sodipodi:end="6.0900184"
           sodipodi:open="true"
           transform="matrix(-0.40836126,-0.53079875,0.51145405,-0.43171811,-1934.3866,1055.605)"
           inkscape:transform-center-x="11.306638"
           inkscape:transform-center-y="8.6079444" />
        <path
           sodipodi:type="arc"
           style="opacity:0.59080003;fill:#4d4d4d;fill-opacity:1;stroke:none"
           id="path3848-2-9-2-9-38-6-9-1-8"
           sodipodi:cx="-410"
           sodipodi:cy="263.79074"
           sodipodi:rx="45.714287"
           sodipodi:ry="84.285713"
           d="m -364.28571,263.79074 c 0,46.54971 -20.46699,84.28571 -45.71429,84.28571 -25.2473,0 -45.71429,-37.736 -45.71429,-84.28571 0,-46.54971 20.46699,-84.28571 45.71429,-84.28571 21.86383,0 40.6669,28.54387 44.86406,68.10556"
           sodipodi:start="0"
           sodipodi:end="6.0900184"
           sodipodi:open="true"
           transform="matrix(-0.66952916,0.01539325,-0.04566812,-0.66774262,-1807.6185,1370.6446)"
           inkscape:transform-center-x="-0.25261687"
           inkscape:transform-center-y="14.211091" />
        <path
           sodipodi:type="arc"
           style="opacity:0.59080003;fill:#4d4d4d;fill-opacity:1;stroke:none"
           id="path3848-2-9-2-9-3-5-2-6-5-6"
           sodipodi:cx="-410"
           sodipodi:cy="263.79074"
           sodipodi:rx="45.714287"
           sodipodi:ry="84.285713"
           d="m -364.28571,263.79074 c 0,46.54971 -20.46699,84.28571 -45.71429,84.28571 -25.2473,0 -45.71429,-37.736 -45.71429,-84.28571 0,-46.54971 20.46699,-84.28571 45.71429,-84.28571 21.86383,0 40.6669,28.54387 44.86406,68.10556"
           sodipodi:start="0"
           sodipodi:end="6.0900184"
           sodipodi:open="true"
           transform="matrix(-0.49396663,-0.45222032,0.42912941,-0.513628,-1782.467,941.68718)"
           inkscape:transform-center-x="9.6498688"
           inkscape:transform-center-y="10.433442" />
        <path
           sodipodi:type="arc"
           style="opacity:0.59080003;fill:#4d4d4d;fill-opacity:1;stroke:none"
           id="path3848-2-9-2-9-8-7-7-9-5-7"
           sodipodi:cx="-410"
           sodipodi:cy="263.79074"
           sodipodi:rx="45.714287"
           sodipodi:ry="84.285713"
           d="m -364.28571,263.79074 c 0,46.54971 -20.46699,84.28571 -45.71429,84.28571 -25.2473,0 -45.71429,-37.736 -45.71429,-84.28571 0,-46.54971 20.46699,-84.28571 45.71429,-84.28571 21.86383,0 40.6669,28.54387 44.86406,68.10556"
           sodipodi:start="0"
           sodipodi:end="6.0900184"
           sodipodi:open="true"
           transform="matrix(-0.41187846,0.52807421,-0.54585438,-0.38730967,-1486.8923,1467.7353)"
           inkscape:transform-center-x="-11.16174"
           inkscape:transform-center-y="8.7985371" />
        <path
           sodipodi:type="arc"
           style="opacity:0.59080003;fill:#4d4d4d;fill-opacity:1;stroke:none"
           id="path3848-2-9-2-9-8-4-6-0-4-2-2"
           sodipodi:cx="-410"
           sodipodi:cy="263.79074"
           sodipodi:rx="45.714287"
           sodipodi:ry="84.285713"
           d="m -364.28571,263.79074 c 0,46.54971 -20.46699,84.28571 -45.71429,84.28571 -25.2473,0 -45.71429,-37.736 -45.71429,-84.28571 0,-46.54971 20.46699,-84.28571 45.71429,-84.28571 21.86383,0 40.6669,28.54387 44.86406,68.10556"
           sodipodi:start="0"
           sodipodi:end="6.0900184"
           sodipodi:open="true"
           transform="matrix(-0.0676758,0.66627789,-0.66825598,-0.03741284,-1286.6088,1358.9223)"
           inkscape:transform-center-x="-14.132917"
           inkscape:transform-center-y="1.4468098" />
      </g>
    </g>
    <path
       sodipodi:type="arc"
       style="opacity:0.59080003;fill:#aad400;fill-opacity:1;stroke:none"
       id="path3848-2-9-2-9-8-4-6-3-9-5-3"
       sodipodi:cx="-410"
       sodipodi:cy="263.79074"
       sodipodi:rx="45.714287"
       sodipodi:ry="84.285713"
       d="m -364.28571,263.79074 c 0,46.54971 -20.46699,84.28571 -45.71429,84.28571 -25.2473,0 -45.71429,-37.736 -45.71429,-84.28571 0,-46.54971 20.46699,-84.28571 45.71429,-84.28571 25.2473,0 45.71429,37.736 45.71429,84.28571 z"
       transform="matrix(-0.07382585,0.66627789,-0.7289839,-0.03741284,-2246.0407,2255.8847)"
       inkscape:transform-center-x="-15.417242"
       inkscape:transform-center-y="1.4467684" />
    <path
       transform="matrix(0.66916078,0,0,0.66916078,-2008.0123,1687.3626)"
       sodipodi:type="arc"
       style="fill:#4d4d4d;fill-opacity:0.59215686;stroke:none"
       id="path3846-7-4-3-2-5-0"
       sodipodi:cx="-425.71429"
       sodipodi:cy="420.93362"
       sodipodi:rx="62.857143"
       sodipodi:ry="62.857143"
       d="m -362.85715,420.93362 c 0,34.71505 -28.1421,62.85715 -62.85714,62.85715 -34.71505,0 -62.85715,-28.1421 -62.85715,-62.85715 0,-34.71504 28.1421,-62.85714 62.85715,-62.85714 30.06277,0 55.91699,21.28695 61.68807,50.79059"
       sodipodi:start="0"
       sodipodi:end="6.0900184"
       sodipodi:open="true" />
    <path
       sodipodi:type="arc"
       style="opacity:0.59080003;fill:#4d4d4d;fill-opacity:1;stroke:none"
       id="path3848-7-6-4-3-5-73"
       sodipodi:cx="-410"
       sodipodi:cy="263.79074"
       sodipodi:rx="45.714287"
       sodipodi:ry="84.285713"
       d="m -364.28571,263.79074 c 0,46.54971 -20.46699,84.28571 -45.71429,84.28571 -25.2473,0 -45.71429,-37.736 -45.71429,-84.28571 0,-46.54971 20.46699,-84.28571 45.71429,-84.28571 21.86383,0 40.6669,28.54387 44.86406,68.10556"
       sodipodi:start="0"
       sodipodi:end="6.0900184"
       sodipodi:open="true"
       transform="matrix(0.66916078,0,0,0.66916078,-2020.4395,1683.5388)" />
    <path
       sodipodi:type="arc"
       style="opacity:0.59080003;fill:#4d4d4d;stroke:#917c6f"
       id="path3848-2-6-2-8-5-3-5"
       sodipodi:cx="-410"
       sodipodi:cy="263.79074"
       sodipodi:rx="45.714287"
       sodipodi:ry="84.285713"
       d="m -364.28571,263.79074 c 0,46.54971 -20.46699,84.28571 -45.71429,84.28571 -25.2473,0 -45.71429,-37.736 -45.71429,-84.28571 0,-46.54971 20.46699,-84.28571 45.71429,-84.28571 21.86383,0 40.6669,28.54387 44.86406,68.10556"
       sodipodi:start="0"
       sodipodi:end="6.0900184"
       sodipodi:open="true"
       transform="matrix(0.54569345,-0.38729164,0.38729164,0.54569345,-2252.4044,1584.2492)" />
    <path
       sodipodi:type="arc"
       style="opacity:0.59080003;fill:#4d4d4d;fill-opacity:1;stroke:none"
       id="path3848-2-9-2-2-5-3-2-2-49"
       sodipodi:cx="-410"
       sodipodi:cy="263.79074"
       sodipodi:rx="45.714287"
       sodipodi:ry="84.285713"
       d="m -364.28571,263.79074 c 0,46.54971 -20.46699,84.28571 -45.71429,84.28571 -25.2473,0 -45.71429,-37.736 -45.71429,-84.28571 0,-46.54971 20.46699,-84.28571 45.71429,-84.28571 21.86383,0 40.6669,28.54387 44.86406,68.10556"
       sodipodi:start="0"
       sodipodi:end="6.0900184"
       sodipodi:open="true"
       transform="matrix(-0.40836126,-0.53079875,0.51145405,-0.43171811,-2677.4761,1946.4839)"
       inkscape:transform-center-x="11.306638"
       inkscape:transform-center-y="8.6079444" />
    <path
       sodipodi:type="arc"
       style="opacity:0.59080003;fill:#4d4d4d;fill-opacity:1;stroke:none"
       id="path3848-2-9-2-9-38-6-9-1-8-41"
       sodipodi:cx="-410"
       sodipodi:cy="263.79074"
       sodipodi:rx="45.714287"
       sodipodi:ry="84.285713"
       d="m -364.28571,263.79074 c 0,46.54971 -20.46699,84.28571 -45.71429,84.28571 -25.2473,0 -45.71429,-37.736 -45.71429,-84.28571 0,-46.54971 20.46699,-84.28571 45.71429,-84.28571 21.86383,0 40.6669,28.54387 44.86406,68.10556"
       sodipodi:start="0"
       sodipodi:end="6.0900184"
       sodipodi:open="true"
       transform="matrix(-0.66952916,0.01539325,-0.04566812,-0.66774262,-2550.708,2261.5235)"
       inkscape:transform-center-x="-0.25261687"
       inkscape:transform-center-y="14.211091" />
    <path
       sodipodi:type="arc"
       style="opacity:0.59080003;fill:#4d4d4d;fill-opacity:1;stroke:none"
       id="path3848-2-9-2-9-3-5-2-6-5-6-8"
       sodipodi:cx="-410"
       sodipodi:cy="263.79074"
       sodipodi:rx="45.714287"
       sodipodi:ry="84.285713"
       d="m -364.28571,263.79074 c 0,46.54971 -20.46699,84.28571 -45.71429,84.28571 -25.2473,0 -45.71429,-37.736 -45.71429,-84.28571 0,-46.54971 20.46699,-84.28571 45.71429,-84.28571 21.86383,0 40.6669,28.54387 44.86406,68.10556"
       sodipodi:start="0"
       sodipodi:end="6.0900184"
       sodipodi:open="true"
       transform="matrix(-0.49396663,-0.45222032,0.42912941,-0.513628,-2525.5565,1832.5661)"
       inkscape:transform-center-x="9.6498688"
       inkscape:transform-center-y="10.433442" />
    <path
       sodipodi:type="arc"
       style="opacity:0.59080003;fill:#4d4d4d;fill-opacity:1;stroke:none"
       id="path3848-2-9-2-9-8-7-7-9-5-7-6"
       sodipodi:cx="-410"
       sodipodi:cy="263.79074"
       sodipodi:rx="45.714287"
       sodipodi:ry="84.285713"
       d="m -364.28571,263.79074 c 0,46.54971 -20.46699,84.28571 -45.71429,84.28571 -25.2473,0 -45.71429,-37.736 -45.71429,-84.28571 0,-46.54971 20.46699,-84.28571 45.71429,-84.28571 21.86383,0 40.6669,28.54387 44.86406,68.10556"
       sodipodi:start="0"
       sodipodi:end="6.0900184"
       sodipodi:open="true"
       transform="matrix(-0.41187846,0.52807421,-0.54585438,-0.38730967,-2229.9818,2358.6142)"
       inkscape:transform-center-x="-11.16174"
       inkscape:transform-center-y="8.7985371" />
    <path
       sodipodi:type="arc"
       style="opacity:0.59080003;fill:#4d4d4d;fill-opacity:1;stroke:none"
       id="path3848-2-9-2-9-8-4-6-0-4-2-2-1"
       sodipodi:cx="-410"
       sodipodi:cy="263.79074"
       sodipodi:rx="45.714287"
       sodipodi:ry="84.285713"
       d="m -364.28571,263.79074 c 0,46.54971 -20.46699,84.28571 -45.71429,84.28571 -25.2473,0 -45.71429,-37.736 -45.71429,-84.28571 0,-46.54971 20.46699,-84.28571 45.71429,-84.28571 21.86383,0 40.6669,28.54387 44.86406,68.10556"
       sodipodi:start="0"
       sodipodi:end="6.0900184"
       sodipodi:open="true"
       transform="matrix(-0.0676758,0.66627789,-0.66825598,-0.03741284,-2029.6983,2249.8012)"
       inkscape:transform-center-x="-14.132917"
       inkscape:transform-center-y="1.4468098" />
    <path
       style="opacity:0.59080003;fill:#4d4d4d;fill-opacity:1;stroke:none"
       d="m -2407.1562,1942.5312 0,61.0313 c 0.1667,0.01 0.3327,0.022 0.5,0.031 l 10.875,0.031 c 26.7213,-1.3164 47.0515,-12.7764 48.5312,-27.3438 1.7086,-16.8217 -22.1116,-31.8521 -53.2188,-33.5937 -2.2539,-0.1262 -4.4886,-0.1731 -6.6874,-0.1563 z"
       id="path3848-2-9-2-9-8-4-6-0-4-2-2-1-8"
       inkscape:connector-curvature="0" />
    <path
       sodipodi:type="arc"
       style="opacity:0.59080003;fill:#aad400;fill-opacity:1;stroke:none"
       id="path3848-2-9-2-9-8-4-6-3-9-5-3-4"
       sodipodi:cx="-410"
       sodipodi:cy="263.79074"
       sodipodi:rx="45.714287"
       sodipodi:ry="84.285713"
       d="m -364.28571,263.79074 c 0,46.54971 -20.46699,84.28571 -45.71429,84.28571 -25.2473,0 -45.71429,-37.736 -45.71429,-84.28571 0,-46.54971 20.46699,-84.28571 45.71429,-84.28571 25.2473,0 45.71429,37.736 45.71429,84.28571 z"
       transform="matrix(-0.07382585,0.66627789,-0.7289839,-0.03741284,-1823.1835,2254.4561)"
       inkscape:transform-center-x="-15.417242"
       inkscape:transform-center-y="1.4467684" />
    <path
       transform="matrix(0.66916078,0,0,0.66916078,-1585.1551,1685.934)"
       sodipodi:type="arc"
       style="fill:#4d4d4d;fill-opacity:0.59215686;stroke:none"
       id="path3846-7-4-3-2-5-0-2"
       sodipodi:cx="-425.71429"
       sodipodi:cy="420.93362"
       sodipodi:rx="62.857143"
       sodipodi:ry="62.857143"
       d="m -362.85715,420.93362 c 0,34.71505 -28.1421,62.85715 -62.85714,62.85715 -34.71505,0 -62.85715,-28.1421 -62.85715,-62.85715 0,-34.71504 28.1421,-62.85714 62.85715,-62.85714 30.06277,0 55.91699,21.28695 61.68807,50.79059"
       sodipodi:start="0"
       sodipodi:end="6.0900184"
       sodipodi:open="true" />
    <path
       sodipodi:type="arc"
       style="opacity:0.59080003;fill:#4d4d4d;fill-opacity:1;stroke:none"
       id="path3848-7-6-4-3-5-73-5"
       sodipodi:cx="-410"
       sodipodi:cy="263.79074"
       sodipodi:rx="45.714287"
       sodipodi:ry="84.285713"
       d="m -364.28571,263.79074 c 0,46.54971 -20.46699,84.28571 -45.71429,84.28571 -25.2473,0 -45.71429,-37.736 -45.71429,-84.28571 0,-46.54971 20.46699,-84.28571 45.71429,-84.28571 21.86383,0 40.6669,28.54387 44.86406,68.10556"
       sodipodi:start="0"
       sodipodi:end="6.0900184"
       sodipodi:open="true"
       transform="matrix(0.66916078,0,0,0.66916078,-1597.5823,1682.1102)" />
    <path
       sodipodi:type="arc"
       style="opacity:0.59080003;fill:#4d4d4d;stroke:#917c6f"
       id="path3848-2-6-2-8-5-3-5-3"
       sodipodi:cx="-410"
       sodipodi:cy="263.79074"
       sodipodi:rx="45.714287"
       sodipodi:ry="84.285713"
       d="m -364.28571,263.79074 c 0,46.54971 -20.46699,84.28571 -45.71429,84.28571 -25.2473,0 -45.71429,-37.736 -45.71429,-84.28571 0,-46.54971 20.46699,-84.28571 45.71429,-84.28571 21.86383,0 40.6669,28.54387 44.86406,68.10556"
       sodipodi:start="0"
       sodipodi:end="6.0900184"
       sodipodi:open="true"
       transform="matrix(0.54569345,-0.38729164,0.38729164,0.54569345,-1829.5472,1582.8206)" />
    <path
       sodipodi:type="arc"
       style="opacity:0.59080003;fill:#4d4d4d;fill-opacity:1;stroke:none"
       id="path3848-2-9-2-2-5-3-2-2-49-0"
       sodipodi:cx="-410"
       sodipodi:cy="263.79074"
       sodipodi:rx="45.714287"
       sodipodi:ry="84.285713"
       d="m -364.28571,263.79074 c 0,46.54971 -20.46699,84.28571 -45.71429,84.28571 -25.2473,0 -45.71429,-37.736 -45.71429,-84.28571 0,-46.54971 20.46699,-84.28571 45.71429,-84.28571 21.86383,0 40.6669,28.54387 44.86406,68.10556"
       sodipodi:start="0"
       sodipodi:end="6.0900184"
       sodipodi:open="true"
       transform="matrix(-0.40836126,-0.53079875,0.51145405,-0.43171811,-2254.6189,1945.0553)"
       inkscape:transform-center-x="11.306638"
       inkscape:transform-center-y="8.6079444" />
    <path
       sodipodi:type="arc"
       style="opacity:0.59080003;fill:#4d4d4d;fill-opacity:1;stroke:none"
       id="path3848-2-9-2-9-38-6-9-1-8-41-2"
       sodipodi:cx="-410"
       sodipodi:cy="263.79074"
       sodipodi:rx="45.714287"
       sodipodi:ry="84.285713"
       d="m -364.28571,263.79074 c 0,46.54971 -20.46699,84.28571 -45.71429,84.28571 -25.2473,0 -45.71429,-37.736 -45.71429,-84.28571 0,-46.54971 20.46699,-84.28571 45.71429,-84.28571 21.86383,0 40.6669,28.54387 44.86406,68.10556"
       sodipodi:start="0"
       sodipodi:end="6.0900184"
       sodipodi:open="true"
       transform="matrix(-0.66952916,0.01539325,-0.04566812,-0.66774262,-2127.8508,2260.0949)"
       inkscape:transform-center-x="-0.25261687"
       inkscape:transform-center-y="14.211091" />
    <path
       sodipodi:type="arc"
       style="opacity:0.59080003;fill:#4d4d4d;fill-opacity:1;stroke:none"
       id="path3848-2-9-2-9-3-5-2-6-5-6-8-8"
       sodipodi:cx="-410"
       sodipodi:cy="263.79074"
       sodipodi:rx="45.714287"
       sodipodi:ry="84.285713"
       d="m -364.28571,263.79074 c 0,46.54971 -20.46699,84.28571 -45.71429,84.28571 -25.2473,0 -45.71429,-37.736 -45.71429,-84.28571 0,-46.54971 20.46699,-84.28571 45.71429,-84.28571 21.86383,0 40.6669,28.54387 44.86406,68.10556"
       sodipodi:start="0"
       sodipodi:end="6.0900184"
       sodipodi:open="true"
       transform="matrix(-0.49396663,-0.45222032,0.42912941,-0.513628,-2102.6993,1831.1375)"
       inkscape:transform-center-x="9.6498688"
       inkscape:transform-center-y="10.433442" />
    <path
       sodipodi:type="arc"
       style="opacity:0.59080003;fill:#4d4d4d;fill-opacity:1;stroke:none"
       id="path3848-2-9-2-9-8-7-7-9-5-7-6-6"
       sodipodi:cx="-410"
       sodipodi:cy="263.79074"
       sodipodi:rx="45.714287"
       sodipodi:ry="84.285713"
       d="m -364.28571,263.79074 c 0,46.54971 -20.46699,84.28571 -45.71429,84.28571 -25.2473,0 -45.71429,-37.736 -45.71429,-84.28571 0,-46.54971 20.46699,-84.28571 45.71429,-84.28571 21.86383,0 40.6669,28.54387 44.86406,68.10556"
       sodipodi:start="0"
       sodipodi:end="6.0900184"
       sodipodi:open="true"
       transform="matrix(-0.41187846,0.52807421,-0.54585438,-0.38730967,-1807.1246,2357.1856)"
       inkscape:transform-center-x="-11.16174"
       inkscape:transform-center-y="8.7985371" />
    <path
       sodipodi:type="arc"
       style="opacity:0.59080003;fill:#4d4d4d;fill-opacity:1;stroke:none"
       id="path3848-2-9-2-9-8-4-6-0-4-2-2-1-6"
       sodipodi:cx="-410"
       sodipodi:cy="263.79074"
       sodipodi:rx="45.714287"
       sodipodi:ry="84.285713"
       d="m -364.28571,263.79074 c 0,46.54971 -20.46699,84.28571 -45.71429,84.28571 -25.2473,0 -45.71429,-37.736 -45.71429,-84.28571 0,-46.54971 20.46699,-84.28571 45.71429,-84.28571 21.86383,0 40.6669,28.54387 44.86406,68.10556"
       sodipodi:start="0"
       sodipodi:end="6.0900184"
       sodipodi:open="true"
       transform="matrix(-0.0676758,0.66627789,-0.66825598,-0.03741284,-1606.8411,2248.3726)"
       inkscape:transform-center-x="-14.132917"
       inkscape:transform-center-y="1.4468098" />
    <path
       style="opacity:0.59080003;fill:#4d4d4d;fill-opacity:1;stroke:none"
       d="m -1952.1562,1946.0938 0,52.75 c 15.9136,-4.6472 26.6864,-13.5297 27.75,-24 1.1977,-11.7926 -10.1404,-22.6793 -27.75,-28.75 z"
       id="path3848-2-9-2-9-8-4-6-0-4-2-2-1-8-2"
       inkscape:connector-curvature="0" />
    <g
       style="font-size:160.8941803px;font-style:normal;font-variant:normal;font-weight:normal;font-stretch:normal;line-height:125%;letter-spacing:0px;word-spacing:0px;fill:#000000;fill-opacity:1;stroke:none;font-family:Nanosecond Thick BRK;-inkscape-font-specification:Nanosecond Thick BRK"
       id="text3978-1-6-2"
       transform="matrix(1.8494298,0,0,1.8494298,-207.45938,-1600.0336)">
      <path
         inkscape:connector-curvature="0"
         d="m -2901.2441,1188.305 c 0,-3.3251 -0.8045,-6.2212 -2.4134,-8.6883 -2.5743,-3.8614 -6.6503,-5.7921 -12.228,-5.7922 -5.4704,10e-5 -9.4391,1.8772 -11.9061,5.6313 -1.7162,2.4671 -2.5744,5.4169 -2.5743,8.8492 l 0,47.4638 c -1e-4,3.5397 0.8044,6.4894 2.4134,8.8491 2.3597,3.8615 6.3821,5.7923 12.067,5.7922 5.5777,10e-5 9.6,-1.877 12.0671,-5.6313 1.7162,-2.467 2.5743,-5.4703 2.5743,-9.01 0,-2.467 0.8581,-4.6123 2.5743,-6.4358 1.7162,-1.8234 3.9151,-2.7352 6.5967,-2.7352 2.467,0 4.6122,0.9118 6.4358,2.7352 1.8234,1.8235 2.7351,4.0224 2.7352,6.5967 -1e-4,8.0447 -2.4135,15.124 -7.2403,21.238 -6.114,7.7229 -14.695,11.5844 -25.7431,11.5844 -10.9408,0 -19.4682,-3.8078 -25.5821,-11.4235 -4.9341,-6.2212 -7.4012,-13.3542 -7.4012,-21.3989 l 0,-47.6247 c 0,-7.9374 2.4671,-15.0167 7.4012,-21.238 6.1139,-7.7229 14.6413,-11.5843 25.5821,-11.5844 11.0481,10e-5 19.5755,3.8079 25.5822,11.4235 4.934,6.2213 7.4011,13.3543 7.4012,21.3989 -1e-4,2.5744 -0.8582,4.7733 -2.5744,6.5966 -1.7162,1.8236 -3.9151,2.7353 -6.5966,2.7352 -2.4671,10e-5 -4.6124,-0.9116 -6.4358,-2.7352 -1.8235,-1.8233 -2.7352,-4.0222 -2.7352,-6.5966"
         id="path4918-4"
         style="fill:#000000" />
      <path
         inkscape:connector-curvature="0"
         d="m -2808.74,1235.9297 c -1e-4,8.0447 -2.4135,15.124 -7.2402,21.238 -6.1141,7.7229 -14.6951,11.5844 -25.7431,11.5844 -10.9408,0 -19.4682,-3.8078 -25.5822,-11.4235 -4.9341,-6.2212 -7.4011,-13.3542 -7.4011,-21.3989 0,-8.0447 2.467,-15.1777 7.4011,-21.399 6.114,-7.7228 14.6414,-11.5843 25.5822,-11.5843 11.048,0 19.5754,3.8078 25.5822,11.4234 4.934,6.2213 7.401,13.4079 7.4011,21.5599 m -18.3419,0 c -10e-5,-3.5397 -0.8045,-6.543 -2.4134,-9.0101 -2.4671,-3.7542 -6.5431,-5.6313 -12.228,-5.6313 -5.4704,0 -9.4391,1.8771 -11.9062,5.6313 -1.7162,2.4671 -2.5743,5.4704 -2.5743,9.0101 0,3.5397 0.8045,6.4894 2.4134,8.8491 2.4671,3.7543 6.4894,5.6314 12.0671,5.6313 5.5776,10e-5 9.6,-1.877 12.0671,-5.6313 1.7161,-2.467 2.5742,-5.4167 2.5743,-8.8491"
         id="path4920-2"
         style="fill:#000000" />
      <path
         inkscape:connector-curvature="0"
         d="m -2702.8817,1259.5811 c -1e-4,2.4671 -0.9118,4.6123 -2.7352,6.4358 -1.8235,1.8234 -3.9688,2.7352 -6.4357,2.7352 -2.5744,0 -4.7733,-0.8581 -6.5967,-2.5743 -1.8235,-1.7162 -2.7353,-3.9151 -2.7352,-6.5967 l 0,-23.6514 c -10e-5,-5.5777 -1.8772,-9.6 -5.6313,-12.0671 -2.4671,-1.7162 -5.4168,-2.5743 -8.8492,-2.5743 l -6.5966,0 0,38.2928 c -10e-5,2.4671 -0.9118,4.6123 -2.7352,6.4358 -1.8236,1.8234 -3.9688,2.7352 -6.4358,2.7352 -2.5744,0 -4.7732,-0.8581 -6.5967,-2.5743 -1.8235,-1.7162 -2.7352,-3.9151 -2.7352,-6.5967 l 0,-38.2928 -6.5966,0 c -5.5777,0 -9.6001,1.8771 -12.0671,5.6313 -1.609,2.4671 -2.4134,5.4704 -2.4134,9.0101 l 0,23.6514 c 0,2.4671 -0.9118,4.6123 -2.7352,6.4358 -1.8235,1.8234 -3.9687,2.7352 -6.4358,2.7352 -2.5743,0 -4.7732,-0.8581 -6.5966,-2.5743 -1.8235,-1.7162 -2.7352,-3.9151 -2.7352,-6.5967 l 0,-23.6514 c 0,-8.0447 2.467,-15.1777 7.4011,-21.399 6.114,-7.7228 14.6413,-11.5843 25.5822,-11.5843 l 7.8838,0 c 2.896,0 5.524,0.59 7.8838,1.7698 2.5743,-1.1798 5.2558,-1.7698 8.0447,-1.7698 l 7.8838,0 c 8.1519,0 15.2849,2.4134 21.399,7.2402 7.7228,6.114 11.5842,14.695 11.5843,25.7431 l 0,23.6514"
         id="path4922-1"
         style="fill:#000000" />
      <path
         inkscape:connector-curvature="0"
         d="m -2628.991,1235.9297 c -1e-4,10.9408 -3.8079,19.4145 -11.4235,25.4212 -6.2213,4.9341 -13.4079,7.4012 -21.5598,7.4012 l -14.4805,0 0,14.6413 c 0,2.4671 -0.8581,4.6123 -2.5743,6.4358 -1.7162,1.8235 -3.9151,2.7352 -6.5967,2.7352 -2.5743,0 -4.7732,-0.9117 -6.5966,-2.7352 -1.8235,-1.8235 -2.7352,-3.9687 -2.7352,-6.4358 l 0,-15.9285 c 0,-2.6815 0.6435,-5.3095 1.9307,-7.8838 -1.2872,-2.5743 -1.9307,-5.2022 -1.9307,-7.8838 l 0,-31.6962 c 0,-4.5049 1.448,-8.3664 4.3441,-11.5843 3.3252,-3.6469 7.6157,-5.4704 12.8716,-5.4704 l 15.7676,0 c 8.1519,0 15.2849,2.4134 21.3989,7.2402 7.7229,6.114 11.5843,14.695 11.5844,25.7431 m -18.3419,0 c -1e-4,-5.5777 -1.8772,-9.6 -5.6313,-12.0671 -2.4671,-1.7162 -5.4705,-2.5743 -9.0101,-2.5743 l -14.4805,0 0,29.1218 14.4805,0 c 3.4323,10e-5 6.3821,-0.8044 8.8492,-2.4134 3.8614,-2.3597 5.7921,-6.3821 5.7922,-12.067"
         id="path4924-0"
         style="fill:#000000" />
      <path
         inkscape:connector-curvature="0"
         d="m -2554.8288,1227.885 c -1e-4,2.7888 -0.5901,5.4704 -1.7699,8.0447 1.1798,2.6816 1.7698,5.3095 1.7699,7.8838 l 0,7.8838 c -1e-4,5.2559 -1.8236,9.4928 -5.4704,12.7106 -3.218,2.8961 -7.0794,4.3442 -11.5844,4.3442 l -23.8124,0 c -8.3665,0 -14.8559,-2.8961 -19.4682,-8.6883 -3.7542,-4.7196 -5.6313,-10.1363 -5.6313,-16.2503 0,-2.5743 0.4827,-4.8804 1.4481,-6.9185 0.9654,-2.1452 2.1989,-3.9687 3.7006,-5.4704 1.6089,-1.6089 3.4324,-2.7888 5.4704,-3.5396 2.1452,-0.8581 4.3441,-1.2872 6.5966,-1.2872 l 30.2481,0 c -0.3218,-2.3597 -1.2872,-3.915 -2.8961,-4.6659 -0.7509,-0.429 -1.9307,-0.6436 -3.5396,-0.6436 l -8.0447,0 c -2.4671,0 -4.6124,-0.8581 -6.4358,-2.5743 -1.8235,-1.7162 -2.7352,-3.9151 -2.7352,-6.5967 0,-2.467 0.9117,-4.6122 2.7352,-6.4357 1.8234,-1.8234 3.9687,-2.7352 6.4358,-2.7352 l 8.0447,0 c 8.1519,0 14.5876,2.8961 19.3073,8.6882 3.7541,4.7197 5.6312,10.1364 5.6313,16.2504 m -18.342,22.5251 0,-5.3095 -28.9609,0 c 0.3217,2.3598 1.2871,3.9151 2.8961,4.666 0.7508,0.429 1.9307,0.6436 3.5396,0.6435 l 22.5252,0"
         id="path4926-4"
         style="fill:#000000" />
      <path
         inkscape:connector-curvature="0"
         d="m -2480.9809,1212.1173 c -1e-4,2.5744 -0.9118,4.7733 -2.7352,6.5967 -1.7163,1.7162 -3.8616,2.5743 -6.4358,2.5743 l -23.8123,0 c -5.4705,0 -9.4392,1.8771 -11.9062,5.6313 -1.7162,2.4671 -2.5743,5.4704 -2.5743,9.0101 l 0,23.6514 c 0,2.5743 -0.9118,4.7732 -2.7352,6.5967 -1.7162,1.7162 -3.8615,2.5743 -6.4358,2.5743 -2.5743,0 -4.7732,-0.8581 -6.5967,-2.5743 -1.8234,-1.7162 -2.7352,-3.9151 -2.7352,-6.5967 l 0,-23.6514 c 0,-8.0447 2.4671,-15.1777 7.4012,-21.399 6.1139,-7.7228 14.6413,-11.5843 25.5822,-11.5843 l 23.8123,0 c 2.5742,0 4.7195,0.9118 6.4358,2.7352 1.8234,1.7162 2.7351,3.8615 2.7352,6.4357"
         id="path4928-9"
         style="fill:#000000" />
      <path
         inkscape:connector-curvature="0"
         d="m -2406.8188,1212.1173 c 0,2.5744 -0.9118,4.7733 -2.7352,6.5967 -1.7162,1.7162 -3.8615,2.5743 -6.4357,2.5743 l -14.4805,0 0,38.2928 c -10e-5,2.4671 -0.9118,4.6123 -2.7352,6.4358 -1.8235,1.8234 -4.0224,2.7352 -6.5967,2.7352 -2.4671,0 -4.6123,-0.8581 -6.4357,-2.5743 -1.8235,-1.7162 -2.7353,-3.9151 -2.7352,-6.5967 l 0,-38.2928 -14.4805,0 c -2.5743,0 -4.7732,-0.8581 -6.5967,-2.5743 -1.8235,-1.7162 -2.7352,-3.9151 -2.7352,-6.5967 0,-2.467 0.9117,-4.6122 2.7352,-6.4357 1.8235,-1.8234 4.0224,-2.7352 6.5967,-2.7352 l 14.4805,0 0,-14.6414 c -1e-4,-2.467 0.9117,-4.6122 2.7352,-6.4358 1.8234,-1.8234 3.9686,-2.7351 6.4357,-2.7352 2.5743,10e-5 4.7732,0.9118 6.5967,2.7352 1.8234,1.8236 2.7351,3.9688 2.7352,6.4358 l 0,14.6414 14.4805,0 c 2.5742,0 4.7195,0.9118 6.4357,2.7352 1.8234,1.7162 2.7352,3.8615 2.7352,6.4357"
         id="path4930-5"
         style="fill:#000000" />
      <path
         inkscape:connector-curvature="0"
         d="m -2380.2813,1259.5811 c 0,2.5743 -0.9117,4.7732 -2.7352,6.5967 -1.7162,1.7162 -3.8615,2.5743 -6.4357,2.5743 -2.5744,0 -4.7732,-0.8581 -6.5967,-2.5743 -1.7162,-1.8235 -2.5743,-4.0224 -2.5743,-6.5967 l 0,-47.4638 c 0,-2.5742 0.8581,-4.7195 2.5743,-6.4357 1.8235,-1.8234 4.0223,-2.7352 6.5967,-2.7352 2.5742,0 4.7195,0.9118 6.4357,2.7352 1.8235,1.7162 2.7352,3.8615 2.7352,6.4357 l 0,47.4638 m 0,-71.2761 c 0,2.5744 -0.8581,4.7733 -2.5743,6.5966 -1.7162,1.8236 -3.9151,2.7353 -6.5966,2.7352 -2.4671,10e-5 -4.6124,-0.9116 -6.4358,-2.7352 -1.8235,-1.8233 -2.7352,-4.0222 -2.7352,-6.5966 0,-2.467 0.8581,-4.6122 2.5743,-6.4358 1.7162,-1.8234 3.9151,-2.7351 6.5967,-2.7352 2.467,10e-5 4.6122,0.9118 6.4357,2.7352 1.8235,1.8236 2.7352,3.9688 2.7352,6.4358"
         id="path4932-9"
         style="fill:#000000" />
      <path
         inkscape:connector-curvature="0"
         d="m -2306.2599,1212.1173 c -1e-4,2.5744 -0.9118,4.7733 -2.7352,6.5967 -1.7163,1.7162 -3.8616,2.5743 -6.4358,2.5743 l -23.8123,0 c -5.4705,0 -9.4392,1.8771 -11.9062,5.6313 -1.7162,2.4671 -2.5743,5.4704 -2.5743,9.0101 l 0,23.6514 c 0,2.5743 -0.9118,4.7732 -2.7352,6.5967 -1.7162,1.7162 -3.8615,2.5743 -6.4358,2.5743 -2.5743,0 -4.7732,-0.8581 -6.5966,-2.5743 -1.8235,-1.7162 -2.7353,-3.9151 -2.7352,-6.5967 l 0,-23.6514 c -10e-5,-8.0447 2.467,-15.1777 7.4011,-21.399 6.1139,-7.7228 14.6413,-11.5843 25.5822,-11.5843 l 23.8123,0 c 2.5742,0 4.7195,0.9118 6.4358,2.7352 1.8234,1.7162 2.7351,3.8615 2.7352,6.4357"
         id="path4934-9"
         style="fill:#000000" />
    </g>
    <path
       sodipodi:type="arc"
       style="fill:url(#linearGradient5035);fill-opacity:1;stroke:#000000;stroke-width:12.97198468999999932;stroke-opacity:1;stroke-miterlimit:4;stroke-dasharray:none"
       id="path3848-2-9-2-9-8-4-6-3-9-5-0-8-7"
       sodipodi:cx="-410"
       sodipodi:cy="263.79074"
       sodipodi:rx="45.714287"
       sodipodi:ry="84.285713"
       d="m -364.28571,263.79074 c 0,46.54971 -20.46699,84.28571 -45.71429,84.28571 -25.2473,0 -45.71429,-37.736 -45.71429,-84.28571 0,-46.54971 20.46699,-84.28571 45.71429,-84.28571 25.2473,0 45.71429,37.736 45.71429,84.28571 z"
       transform="matrix(-0.21149186,0.20675031,-0.23833244,-0.21659758,-1463.0373,-68.211216)"
       inkscape:transform-center-x="-5.9110935"
       inkscape:transform-center-y="0.55470653" />
    <path
       style="fill:url(#linearGradient4287);fill-opacity:1;stroke:none;stroke-opacity:1"
       d="M 167.84375 94.6875 C 160.68365 94.859591 154.26377 105.312 153.34375 118.59375 C 152.39405 132.30394 157.65771 143.85991 165.09375 144.375 C 172.52979 144.89009 179.33155 134.17894 180.28125 120.46875 L 180.375 115.6875 C 179.94595 103.94984 174.97076 95.164812 168.53125 94.71875 C 168.29887 94.702653 168.07472 94.681949 167.84375 94.6875 z M 211.84375 111.40625 C 205.70263 111.2585 197.46966 115.96436 190.9375 123.9375 C 182.22795 134.56836 179.82786 146.99493 185.59375 151.71875 C 191.35964 156.44257 203.10295 151.66211 211.8125 141.03125 L 214.65625 137.1875 C 221.09979 127.36724 222.14943 117.34077 217.15625 113.25 C 215.71478 112.06904 213.89079 111.4555 211.84375 111.40625 z M 229.53125 149.75 C 227.17827 149.79728 224.71926 150.04852 222.1875 150.53125 L 217.53125 151.65625 C 206.23243 155.07178 198.73489 162.16834 199.65625 168.5625 C 200.72019 175.94617 212.52854 179.82454 226.03125 177.25 C 239.53396 174.67546 249.62644 166.60242 248.5625 159.21875 C 247.69805 153.21952 239.7275 149.54511 229.53125 149.75 z M 171.5 151.65625 C 166.15254 151.6754 160.84108 153.97795 157.1875 158.4375 C 150.69224 166.3656 151.8844 178.06724 159.8125 184.5625 C 167.7406 191.05776 179.41099 189.89685 185.90625 181.96875 L 187.90625 179 C 192.10846 171.18228 190.17813 161.46856 183.3125 155.84375 C 179.84396 153.00208 175.65914 151.64135 171.5 151.65625 z M 121.1875 161.4375 L 116.40625 161.75 C 104.68712 163.16103 96.104038 168.82408 95.90625 175.28125 C 95.677854 182.73768 106.63052 188.63925 120.375 188.4375 C 134.11948 188.23575 145.4591 182.01893 145.6875 174.5625 C 145.9159 167.10607 134.93198 161.23575 121.1875 161.4375 z M 199.75 182.15625 C 196.98192 182.21154 194.62081 183.01147 192.96875 184.65625 C 187.68214 189.91955 191.62047 201.73911 201.75 211.03125 L 205.4375 214.0625 C 214.92525 221.08473 225.07812 222.87045 229.65625 218.3125 C 234.94286 213.0492 231.03578 201.26089 220.90625 191.96875 C 213.9422 185.5804 205.83979 182.03461 199.75 182.15625 z M 151.53125 187.125 C 145.52195 187.21895 137.69293 192.34795 131.71875 200.75 L 129.15625 204.78125 C 123.36359 215.06591 122.84746 225.36559 127.9375 229.34375 C 133.81523 233.93754 145.06568 228.57773 153.03125 217.375 C 160.99682 206.17227 162.65898 193.37504 156.78125 188.78125 C 155.31182 187.6328 153.53435 187.09368 151.53125 187.125 z M 176.5 194.78125 C 176.03462 194.79928 175.5798 194.83484 175.125 194.9375 C 167.84816 196.58012 164.90042 208.67973 168.53125 221.9375 L 170.03125 226.46875 C 174.32673 237.4632 181.9796 244.39124 188.28125 242.96875 C 195.55809 241.32613 198.50583 229.22652 194.875 215.96875 C 191.4711 203.53959 183.48068 194.51079 176.5 194.78125 z "
       id="path3846-7-4-3-2-5-5-1-0"
       transform="translate(-1563.7749,-344.58422)" />
    <path
       style="fill:url(#linearGradient4279);fill-opacity:1;stroke:none"
       d="m -1482.3061,-322.39672 c -6.9184,0.27777 -13.7013,10.00105 -15.5625,22.75 -1.9854,13.59888 2.4055,25.48568 9.7812,26.5625 7.3757,1.07682 14.9521,-9.05737 16.9375,-22.65625 l 0.4375,-4.78125 c 0.4612,-11.73644 -3.8003,-20.87999 -10.1875,-21.8125 -0.461,-0.0673 -0.945,-0.081 -1.4062,-0.0625 z m 41.7187,19.96875 c -5.9528,0.14287 -13.6946,4.10329 -20.2187,10.9375 -9.4898,9.94066 -12.7978,22.16554 -7.4063,27.3125 5.3916,5.14696 17.4478,1.28441 26.9375,-8.65625 l 3.125,-3.65625 c 7.1688,-9.30401 8.9815,-19.2303 4.3125,-23.6875 -1.6849,-1.60843 -4.0442,-2.31494 -6.75,-2.25 z m -94.0937,0.1875 c -2.1827,0.0418 -4.0701,0.64363 -5.5,1.84375 -5.7197,4.80047 -2.0176,17.51238 8.2812,28.40625 10.2988,10.89387 23.2804,15.83172 29,11.03125 5.7196,-4.80047 2.0175,-17.51238 -8.2812,-28.40625 -7.7241,-8.17041 -16.9522,-13.00027 -23.5,-12.875 z m 50.625,36.875 c -4.7481,0.1102 -9.4615,2.04331 -13,5.75 -7.0771,7.41338 -6.7884,19.14168 0.625,26.21875 7.4133,7.07707 19.1416,6.81963 26.2187,-0.59375 l 2.2188,-2.8125 c 4.7822,-7.47699 3.6073,-17.30885 -2.8125,-23.4375 -3.7067,-3.53854 -8.502,-5.2352 -13.25,-5.125 z m 57.4062,2.46875 c -1.6221,0.003 -3.2926,0.0882 -5,0.28125 l -4.75,0.8125 c -11.525,2.54995 -19.5282,9.02317 -19.0937,15.46875 0.5016,7.44304 11.9973,12.23196 25.6562,10.6875 13.6589,-1.54446 24.3141,-8.83821 23.8125,-16.28125 -0.4389,-6.51266 -9.2705,-10.9864 -20.625,-10.96875 z m -111.3125,3.46875 c -11.7923,0.51937 -20.8137,5.54511 -21.5,11.96875 -0.7925,7.41772 9.7172,14.09766 23.4375,14.9375 13.7203,0.83984 25.4575,-4.48853 26.25,-11.90625 0.7925,-7.41772 -9.686,-14.12891 -23.4062,-14.96875 l -4.7813,-0.0313 z m 32.3125,27.96875 c -5.9164,0.0401 -13.6813,4.49855 -20,12.09375 l -2.875,3.8125 c -6.555,9.81638 -7.8366,20.054 -3.0625,24.40625 5.5129,5.02577 17.1151,0.53599 25.9063,-10.03125 8.7911,-10.56724 11.4504,-23.22423 5.9375,-28.25 -1.5506,-1.4135 -3.5912,-2.04693 -5.9063,-2.03125 z m 24.4063,9.5 c -0.228,0.0171 -0.4569,0.0598 -0.6875,0.0937 -7.3804,1.08676 -11.2413,12.91156 -8.625,26.40625 l 1.1562,4.65625 c 3.4504,11.28821 10.5462,18.75362 16.9375,17.8125 7.3803,-1.08676 11.2413,-12.91156 8.625,-26.40625 -2.4527,-12.65127 -9.7376,-22.30347 -16.7187,-22.5625 -0.2328,-0.009 -0.4596,-0.0171 -0.6875,0 z"
       id="path3848-2-9-2-9-8-4-6-3-9-5-0-6-4-3"
       inkscape:connector-curvature="0" />
    <path
       style="fill:url(#linearGradient4342);fill-opacity:1;stroke:none"
       d="m -1482.393,-322.55535 c -6.9184,0.27777 -13.7013,10.00105 -15.5625,22.75 -1.9854,13.59888 2.4056,25.48568 9.7813,26.5625 7.3757,1.07682 14.9521,-9.05737 16.9375,-22.65625 l 0.4375,-4.78125 c 0.4612,-11.73644 -3.8003,-20.87999 -10.1875,-21.8125 -0.461,-0.0673 -0.9451,-0.081 -1.4063,-0.0625 z m 41.7188,19.96875 c -5.9528,0.14287 -13.6947,4.10329 -20.2188,10.9375 -9.4898,9.94066 -12.7977,22.16554 -7.4062,27.3125 2.9025,2.77079 4.328,3.40521 9.6532,1.41133 3.0871,-4.88791 6.9955,-11.92529 12.5388,-16.70781 2.6238,-2.26366 8.6268,-2.59101 12.2767,-4.10977 3.2732,-6.89108 3.3927,-13.26547 -0.094,-16.59375 -1.6849,-1.60843 -4.0442,-2.31494 -6.75,-2.25 z m -94.0938,0.1875 c -2.1827,0.0418 -4.0701,0.64363 -5.5,1.84375 -5.7197,4.80047 -2.0175,17.51238 8.2813,28.40625 10.2988,10.89387 23.2804,15.83172 29,11.03125 5.7196,-4.80047 2.0174,-17.51238 -8.2813,-28.40625 -7.7241,-8.17041 -16.9522,-13.00027 -23.5,-12.875 z m 50.625,36.875 c -4.7481,0.1102 -9.4615,2.04331 -13,5.75 -6.3418,6.64322 -6.7518,16.75385 -1.4375,23.875 7.743,-2.57968 8.0779,-11.94435 16.7499,-16.82234 2.7583,-1.55155 11.3522,-2.08089 13.3134,-3.80108 -0.7044,-3.69347 -2.0208,-3.14718 -4.9012,-5.89689 -3.7067,-3.53854 -5.9766,-3.21489 -10.7246,-3.10469 z m -53.9062,5.9375 c -11.7923,0.51937 -20.8137,5.54511 -21.5,11.96875 -0.7925,7.41772 9.7172,14.09766 23.4375,14.9375 13.7203,0.83984 25.4575,-4.48853 26.25,-11.90625 0.7925,-7.41772 -9.6861,-14.12891 -23.4063,-14.96875 l -4.7812,-0.0313 z m 29.6562,28.28125 c -5.4604,1.10268 -11.9369,5.28213 -17.3437,11.78125 l -2.875,3.8125 c -6.555,9.81638 -7.8366,20.054 -3.0625,24.40625 2.8408,2.58975 7.2995,2.64938 12.1562,0.65625 -0.8153,-0.64861 -1.648,-1.18338 -2.4687,-1.59375 -6.566,-3.28299 5.5531,-23.73968 9.5937,-34.09375 0.7831,-2.0065 2.1807,-3.6137 4,-4.96875 z"
       id="path4289"
       inkscape:connector-curvature="0"
       sodipodi:nodetypes="cssccsccsscscccccsssscsscscsscsssccccccscccc" />
    <path
       style="fill:url(#linearGradient4423);fill-opacity:1;stroke:none"
       d="m -1395.996,-249.82353 c -7.1601,0.17209 -13.58,10.6245 -14.5,23.90625 -0.9497,13.71019 4.314,25.26616 11.75,25.78125 7.436,0.51509 14.2378,-10.19606 15.1875,-23.90625 l 0.094,-4.78125 c -0.429,-11.73766 -5.4043,-20.52269 -11.8438,-20.96875 -0.2324,-0.0161 -0.4566,-0.0368 -0.6875,-0.0313 z m 42.8125,16.71875 c -5.9885,0.42446 -13.5949,5.05643 -19.7187,12.53125 -8.7096,10.63086 -11.1097,23.05743 -5.3438,27.78125 1.312,1.07488 2.9252,1.64751 4.75,1.78125 6.1367,-3.68297 11.6977,-7.67806 14.75,-11.875 4.1716,-5.73596 6.0289,-18.84885 6.875,-30.21875 -0.042,-0.002 -0.082,0.001 -0.125,0 -0.3838,-0.009 -0.7882,-0.0283 -1.1875,0 z m -39.1562,40.25 c -5.3475,0.0191 -10.659,2.3217 -14.3125,6.78125 -5.4216,6.61748 -5.4869,15.84653 -0.75,22.5 2.5902,-5.29238 5.2335,-9.69456 7.75,-12.03125 3.5614,-3.30699 11.8537,-7.38039 20.25,-12.03125 -0.3662,-0.35417 -0.7251,-0.70364 -1.125,-1.03125 -3.4686,-2.84167 -7.6534,-4.2024 -11.8125,-4.1875 z m -50.3125,9.78125 -4.7813,0.3125 c -11.7191,1.41103 -20.3022,7.07408 -20.5,13.53125 -0.2284,7.45643 10.7243,13.358 24.4688,13.15625 13.7444,-0.20175 25.0841,-6.41857 25.3125,-13.875 0.2284,-7.45643 -10.7556,-13.32675 -24.5,-13.125 z m 30.3437,25.6875 c -6.0093,0.094 -13.8383,5.22295 -19.8125,13.625 l -2.5625,4.03125 c -5.7927,10.28466 -6.3088,20.58434 -1.2187,24.5625 0.852,0.66588 1.8236,1.11487 2.875,1.375 3.9959,-3.69523 9.9701,-10.27224 13.1562,-18.875 2.5707,-6.94087 5.9233,-16.24107 9.5313,-24.5625 -0.6297,-0.12462 -1.2828,-0.16697 -1.9688,-0.15625 z"
       id="path4378"
       inkscape:connector-curvature="0" />
    <path
       style="fill:none;fill-opacity:1;stroke:#000000;stroke-width:4;stroke-miterlimit:4;stroke-opacity:1;stroke-dasharray:none"
       d="m -1482.2414,-322.43526 c -6.9183,0.27777 -13.7012,10.00105 -15.5625,22.75 -1.9853,13.59888 2.3744,25.48568 9.75,26.5625 7.3757,1.07681 14.9834,-9.05737 16.9688,-22.65625 l 0.4375,-4.78125 c 0.4612,-11.73644 -3.8315,-20.87999 -10.2188,-21.8125 -0.4609,-0.0673 -0.9137,-0.081 -1.375,-0.0625 z m 41.7188,19.96875 c -5.9528,0.14287 -13.6946,4.10329 -20.2188,10.9375 -9.4897,9.94066 -12.7978,22.16554 -7.4062,27.3125 5.3915,5.14696 17.4478,1.25316 26.9375,-8.6875 l 3.125,-3.625 c 7.1688,-9.30402 8.9503,-19.2303 4.2812,-23.6875 -1.6848,-1.60843 -4.0129,-2.31494 -6.7187,-2.25 z m -94.125,0.1875 c -2.1826,0.0418 -4.0701,0.61238 -5.5,1.8125 -5.7196,4.80047 -1.9863,17.54362 8.3125,28.4375 10.2988,10.89387 23.2804,15.83172 29,11.03125 5.7196,-4.80047 2.0175,-17.54363 -8.2813,-28.4375 -7.724,-8.17041 -16.9833,-12.96902 -23.5312,-12.84375 z m 50.6562,36.875 c -4.748,0.11019 -9.4614,2.04331 -13,5.75 -7.077,7.41338 -6.7883,19.14168 0.625,26.21875 7.4134,7.07707 19.1417,6.81963 26.2188,-0.59375 l 2.2187,-2.8125 c 4.7823,-7.47699 3.6074,-17.30885 -2.8125,-23.4375 -3.7066,-3.53854 -8.5019,-5.2352 -13.25,-5.125 z m 57.4063,2.46875 c -1.6221,0.003 -3.3239,0.0882 -5.0313,0.28125 l -4.7187,0.78125 c -11.5251,2.54995 -19.5282,9.05442 -19.0938,15.5 0.5017,7.44304 11.9974,12.23196 25.6563,10.6875 13.6589,-1.54446 24.3141,-8.83821 23.8125,-16.28125 -0.4389,-6.51266 -9.2705,-10.9864 -20.625,-10.96875 z m -111.3125,3.46875 c -11.7923,0.51937 -20.8137,5.51385 -21.5,11.9375 -0.7925,7.41772 9.686,14.12891 23.4062,14.96875 13.7203,0.83984 25.4888,-4.48853 26.2813,-11.90625 0.7925,-7.41772 -9.686,-14.12891 -23.4063,-14.96875 l -4.7812,-0.0313 z m 142.0312,9.53125 c -7.1601,0.17209 -13.5799,10.6245 -14.5,23.90625 -0.9497,13.71019 4.314,25.23491 11.75,25.75 7.4361,0.51509 14.2378,-10.16481 15.1875,-23.875 l 0.063,-4.78125 c -0.429,-11.73766 -5.3729,-20.52269 -11.8125,-20.96875 -0.2323,-0.0161 -0.4565,-0.0368 -0.6875,-0.0313 z m 44,16.71875 c -6.1411,-0.14775 -14.374,4.55811 -20.9062,12.53125 -8.7096,10.63086 -11.1096,23.05743 -5.3438,27.78125 5.7659,4.72382 17.5092,-0.0566 26.2188,-10.6875 l 2.8125,-3.84375 c 6.4435,-9.82026 7.4932,-19.87798 2.5,-23.96875 -1.4415,-1.18096 -3.2342,-1.76325 -5.2813,-1.8125 z m -153.7187,1.6875 c -5.9164,0.0401 -13.6813,4.49855 -20,12.09375 l -2.875,3.84375 c -6.555,9.81638 -7.8366,20.054 -3.0625,24.40625 5.5129,5.02577 17.1151,0.53599 25.9062,-10.03125 8.7912,-10.56724 11.4505,-23.22423 5.9375,-28.25 -1.5505,-1.4135 -3.5911,-2.07818 -5.9062,-2.0625 z m 24.375,9.53125 c -0.2319,0.0124 -0.4569,0.0598 -0.6875,0.0937 -7.3804,1.08676 -11.2413,12.88031 -8.625,26.375 l 1.1562,4.65625 c 3.4505,11.28821 10.5463,18.75362 16.9375,17.8125 7.3804,-1.08676 11.2413,-12.88031 8.625,-26.375 -2.5345,-13.07298 -10.2186,-22.94777 -17.4062,-22.5625 z m 147.0312,27.125 c -2.3529,0.0473 -4.8432,0.29852 -7.375,0.78125 l -4.6562,1.125 c -11.2988,3.41553 -18.7651,10.51209 -17.8438,16.90625 1.064,7.38367 12.8723,11.26204 26.375,8.6875 13.5028,-2.57454 23.564,-10.64758 22.5,-18.03125 -0.8644,-5.99923 -8.8037,-9.67364 -19,-9.46875 z m -58.0312,1.90625 c -5.3475,0.0191 -10.6589,2.3217 -14.3125,6.78125 -6.4953,7.9281 -5.3344,19.62974 2.5937,26.125 7.9281,6.49526 19.6298,5.33435 26.125,-2.59375 l 2,-2.96875 c 4.2023,-7.81772 2.2719,-17.53144 -4.5937,-23.15625 -3.4685,-2.84167 -7.6534,-4.2024 -11.8125,-4.1875 z m -50.3125,9.75 -4.7813,0.34375 c -11.7191,1.41103 -20.3334,7.07408 -20.5312,13.53125 -0.2284,7.45643 10.7555,13.32675 24.5,13.125 13.7445,-0.20175 25.0528,-6.38732 25.2812,-13.84375 0.2284,-7.45643 -10.7242,-13.358 -24.4687,-13.15625 z m 78.5625,20.75 c -2.7681,0.0553 -5.1292,0.85522 -6.7813,2.5 -5.2866,5.2633 -1.3482,17.08286 8.7813,26.375 l 3.6875,3.03125 c 9.4877,7.02223 19.6406,8.80795 24.2187,4.25 5.2867,-5.2633 1.3483,-17.05161 -8.7812,-26.34375 -6.9641,-6.38835 -15.0352,-9.93414 -21.125,-9.8125 z m -48.25,4.96875 c -6.0093,0.0939 -13.8071,5.22295 -19.7813,13.625 l -2.5625,4.03125 c -5.7926,10.28466 -6.3087,20.58434 -1.2187,24.5625 5.8777,4.59379 17.0969,-0.76602 25.0625,-11.96875 7.9656,-11.20273 9.659,-23.99996 3.7812,-28.59375 -1.4694,-1.14845 -3.2781,-1.68757 -5.2812,-1.65625 z m 25,7.625 c -0.4654,0.018 -0.9515,0.0848 -1.4063,0.1875 -7.2768,1.64262 -10.2245,13.74223 -6.5937,27 l 1.5,4.53125 c 4.2955,10.99445 11.9483,17.92249 18.25,16.5 7.2768,-1.64262 10.2246,-13.74223 6.5937,-27 -3.4039,-12.42916 -11.363,-21.48921 -18.3437,-21.21875 z"
       id="path3848-2-9-2-9-8-4-6-3-9-5-0-8-7-9"
       inkscape:connector-curvature="0"
       sodipodi:nodetypes="cssccccssscccscsssscscsccssccccssccsssccccsscccccsssccsssccssssccccssccscccscscssccscccssscssccssssccsscsccccssc" />
    <path
       style="fill:url(#linearGradient5027);fill-opacity:1;stroke:none"
       d="m 109.11612,115.74746 c 0,0 -4.74747,1.7461 -4.74747,5.31753 0,3.57143 0.46547,6.59446 2.41706,9.57787 2.35424,3.59895 0.71429,-5.35714 6.07143,-5 5.35715,0.35714 6.42857,9.28571 15,13.21428 8.57143,3.92857 11.07143,-6.42857 11.07143,-6.42857 0,0 -8.50264,-8.85093 -15.41842,-13.34055 -7.35206,-4.77284 -14.39403,-3.34056 -14.39403,-3.34056 z"
       id="path5019"
       inkscape:connector-curvature="0"
       transform="translate(-1563.7749,-344.58422)"
       sodipodi:nodetypes="csssscsc" />
  </g>
</svg>
