<?xml version="1.0" encoding="UTF-8" standalone="no"?>
<!-- Created with Inkscape (http://www.inkscape.org/) -->

<svg
   xmlns:dc="http://purl.org/dc/elements/1.1/"
   xmlns:cc="http://creativecommons.org/ns#"
   xmlns:rdf="http://www.w3.org/1999/02/22-rdf-syntax-ns#"
   xmlns:svg="http://www.w3.org/2000/svg"
   xmlns="http://www.w3.org/2000/svg"
   xmlns:sodipodi="http://sodipodi.sourceforge.net/DTD/sodipodi-0.dtd"
   xmlns:inkscape="http://www.inkscape.org/namespaces/inkscape"
   width="256"
   height="256"
   id="svg2"
   version="1.1"
   inkscape:version="0.92.1 r15371"
   sodipodi:docname="web-browser.svg">
  <defs
     id="defs4">
    <linearGradient
       id="linearGradient4119">
      <stop
         id="stop4121"
         offset="0"
         style="stop-color:#edfafe;stop-opacity:1;" />
      <stop
         id="stop4123"
         offset="1"
         style="stop-color:#86c0f4;stop-opacity:0;" />
    </linearGradient>
    <linearGradient
       id="linearGradient3972">
      <stop
         style="stop-color:#78def9;stop-opacity:1;"
         offset="0"
         id="stop3974" />
      <stop
         style="stop-color:#116bbb;stop-opacity:0.97484279;"
         offset="1"
         id="stop3976" />
    </linearGradient>
  </defs>
  <sodipodi:namedview
     id="base"
     pagecolor="#ffffff"
     bordercolor="#666666"
     borderopacity="1.0"
     inkscape:pageopacity="0.0"
     inkscape:pageshadow="2"
     inkscape:zoom="1.3499375"
     inkscape:cx="368.26086"
     inkscape:cy="61.898244"
     inkscape:document-units="px"
     inkscape:current-layer="layer1"
     showgrid="false"
     inkscape:window-width="1918"
     inkscape:window-height="1023"
     inkscape:window-x="0"
     inkscape:window-y="26"
     inkscape:window-maximized="1"
     inkscape:snap-global="false" />
  <metadata
     id="metadata7">
    <rdf:RDF>
      <cc:Work
         rdf:about="">
        <dc:format>image/svg+xml</dc:format>
        <dc:type
           rdf:resource="http://purl.org/dc/dcmitype/StillImage" />
        <dc:title />
      </cc:Work>
    </rdf:RDF>
  </metadata>
  <g
     inkscape:label="Layer 1"
     inkscape:groupmode="layer"
     id="layer1"
     transform="translate(0,-796.36218)">
    <path
       sodipodi:type="arc"
       style="fill:#9283be;stroke:#000000;stroke-width:3;stroke-miterlimit:4;stroke-opacity:1;stroke-dasharray:none;fill-opacity:1"
       id="path3202-9"
       sodipodi:cx="442.85715"
       sodipodi:cy="172.42857"
       sodipodi:rx="121.42857"
       sodipodi:ry="121.42857"
       d="M 563.71305,160.6494 A 121.42857,121.42857 0 0 1 454.65876,293.28229 121.42857,121.42857 0 0 1 322.00563,184.25263 121.42857,121.42857 0 0 1 431.01064,51.579251 121.42857,121.42857 0 0 1 563.70427,160.55962"
       transform="translate(-314.56777,752.65422)"
       sodipodi:start="6.1860276"
       sodipodi:end="12.46847"
       sodipodi:open="true" />
    <path
       style="fill:#f79420;fill-opacity:1;stroke:none"
       d="m 110.10663,838.20984 33.33504,13.13198 6.06091,24.24366 -29.29442,31.31473 -3.03046,36.36549 32.32488,17.1726 17.1726,31.31472 -12.12183,24.24368 11.11167,22.2233 6.06092,-12.1218 18.18274,-10.1015 c 0,0 8.08123,-17.17261 10.10153,-21.21322 2.02031,-4.04061 6.06092,-31.31473 6.06092,-31.31473 l 21.2132,-26.26396 -3.03046,-55.55839 -52.52793,-14.14214 -10.10153,1.01016 -13.13198,-20.20305 -25.25381,-11.11168 1.01015,-21.21321 c 0,0 -60.609152,6.06092 -60.609152,23.23351 0,17.1726 6.06091,40.4061 6.06091,40.4061 z"
       id="path4125"
       inkscape:connector-curvature="0" />
    <path
       style="fill:none;stroke:#000000;stroke-width:3;stroke-linecap:butt;stroke-linejoin:miter;stroke-miterlimit:4;stroke-opacity:1;stroke-dasharray:none"
       d="m 51.423778,840.21932 c 0.54383,6.77209 17.30004,17.39258 47.85714,6.07143 26.244442,-9.72334 25.071002,-29.45973 18.928582,-33.21428 -6.66383,-4.07327 -26.459752,-0.92892 -38.571432,3.57142 -12.11169,4.50035 -28.75812,16.79935 -28.21429,23.57143 z"
       id="path3985"
       inkscape:connector-curvature="0"
       sodipodi:nodetypes="zsszz" />
    <path
       style="fill:none;stroke:#000000;stroke-width:3;stroke-linecap:butt;stroke-linejoin:miter;stroke-miterlimit:4;stroke-dasharray:none;stroke-opacity:1"
       d="m 29.638068,855.93361 c 0,0 -13.51828,25.89188 8.57143,37.85714 17.14285,9.28571 63.280842,11.42097 100.000002,-7.85714 33.83673,-17.76479 54.47893,-60.39829 38.76465,-71.11258"
       id="path3987"
       inkscape:connector-curvature="0"
       sodipodi:nodetypes="cssc" />
    <path
       style="fill:none;stroke:#000000;stroke-width:3;stroke-linecap:butt;stroke-linejoin:miter;stroke-miterlimit:4;stroke-dasharray:none;stroke-opacity:1"
       d="m 7.4952079,933.07647 c 0,0 -1.78572,18.92857 27.5000001,27.5 29.28571,8.57143 76.944832,9.98102 127.857142,-15 47.18547,-23.15238 69.95326,-83.39006 59.95326,-95.53292"
       id="path3989"
       inkscape:connector-curvature="0"
       sodipodi:nodetypes="cssc" />
    <path
       style="fill:none;stroke:#000000;stroke-width:3;stroke-linecap:butt;stroke-linejoin:miter;stroke-miterlimit:4;stroke-dasharray:none;stroke-opacity:1"
       d="m 31.469583,998.4336 c 0,0 50.227345,32.6728 113.882767,16.0714 58.17002,-15.17076 105.23437,-67.03749 103.09152,-105.60892"
       id="path3991"
       inkscape:connector-curvature="0"
       sodipodi:nodetypes="csc" />
    <path
       style="fill:none;stroke:#000000;stroke-width:3;stroke-linecap:butt;stroke-linejoin:miter;stroke-miterlimit:4;stroke-dasharray:none;stroke-opacity:1"
       d="m 90.352348,1039.8622 c 0,0 29.061372,7.1191 71.428572,-5.3572 40.45084,-11.9119 64.46149,-38.60069 64.46149,-38.60069"
       id="path3993"
       inkscape:connector-curvature="0"
       sodipodi:nodetypes="csc" />
    <path
       style="fill:none;stroke:#000000;stroke-width:3;stroke-linecap:butt;stroke-linejoin:miter;stroke-miterlimit:4;stroke-opacity:1;stroke-dasharray:none"
       d="M 188.92379,1030.9336 C 238.78021,987.03042 249.24313,916.62067 204.63807,863.79075 170.44379,823.29128 91.066638,825.21932 91.066638,825.21932 c 0,0 56.204722,30.09336 73.571432,71.42857 17.11139,40.72752 25.71428,84.28571 -0.71429,144.28571"
       id="path3995"
       inkscape:connector-curvature="0"
       sodipodi:nodetypes="cscsc" />
    <path
       style="fill:none;stroke:#000000;stroke-width:3;stroke-linecap:butt;stroke-linejoin:miter;stroke-miterlimit:4;stroke-opacity:1;stroke-dasharray:none"
       d="M 131.06664,1045.9336 C 99.638068,1033.0765 69.157998,972.6852 66.780918,921.6479 c -2.62617,-56.38553 23.57143,-95.00001 23.57143,-95.00001 0,0 -12.78142,-3.68706 -35,17.14286 -22.85714,21.42857 -37.45963,78.09937 -32.14286,110.00001 7.14286,42.85713 52.2006,88.57144 102.142862,92.14284"
       id="path3997"
       inkscape:connector-curvature="0"
       sodipodi:nodetypes="cscssc" />
    <path
       style="fill:none;stroke:#000000;stroke-width:3;stroke-linecap:butt;stroke-linejoin:miter;stroke-miterlimit:4;stroke-dasharray:none;stroke-opacity:1"
       d="m 89.638068,825.21932 c 0,0 31.124982,-16.51377 65.410692,-18.65663"
       id="path3999"
       inkscape:connector-curvature="0"
       sodipodi:nodetypes="cc" />
    <path
       style="fill:none;stroke:#000000;stroke-width:3;stroke-linecap:butt;stroke-linejoin:miter;stroke-miterlimit:4;stroke-dasharray:none;stroke-opacity:1"
       d="m 114.44825,804.87517 c 0,0 -31.333472,3.37672 -24.321872,20.93184"
       id="path3999-4"
       inkscape:connector-curvature="0"
       sodipodi:nodetypes="cc" />
    <path
       style="fill:none;stroke:#000000;stroke-width:3;stroke-linecap:butt;stroke-linejoin:miter;stroke-miterlimit:4;stroke-opacity:1;stroke-dasharray:none"
       d="m 57.295108,827.84186 c 0,0 24.12294,-19.33992 31.12935,-1.78272"
       id="path3999-4-7"
       inkscape:connector-curvature="0"
       sodipodi:nodetypes="cc" />
    <path
       sodipodi:type="arc"
       style="fill:#000000;fill-opacity:1;stroke:#000000;stroke-opacity:1"
       id="path4037"
       sodipodi:cx="73.904404"
       sodipodi:cy="966.39685"
       sodipodi:rx="9.6428576"
       sodipodi:ry="9.2857141"
       d="m 83.519387,965.69132 a 9.6428576,9.2857141 0 0 1 -8.829813,9.96041 9.6428576,9.2857141 0 0 1 -10.391577,-8.44825 9.6428576,9.2857141 0 0 1 8.716301,-10.0527 9.6428576,9.2857141 0 0 1 10.486789,8.33845"
       sodipodi:start="6.2071318"
       sodipodi:end="6.1852847"
       sodipodi:open="true" />
    <path
       sodipodi:type="arc"
       style="fill:#000000;fill-opacity:1;stroke:#000000;stroke-opacity:1"
       id="path4037-3"
       sodipodi:cx="179.49585"
       sodipodi:cy="844.11603"
       sodipodi:rx="9.6428576"
       sodipodi:ry="9.2857141"
       d="m 189.11083,843.4105 a 9.6428576,9.2857141 0 0 1 -8.82981,9.96041 9.6428576,9.2857141 0 0 1 -10.39158,-8.44826 9.6428576,9.2857141 0 0 1 8.7163,-10.05269 9.6428576,9.2857141 0 0 1 10.48679,8.33844"
       sodipodi:start="6.2071318"
       sodipodi:end="6.1852847"
       sodipodi:open="true" />
  </g>
</svg>
