<?xml version="1.0" encoding="UTF-8" standalone="no"?>
<!-- Created with Inkscape (http://www.inkscape.org/) -->

<svg
   xmlns:dc="http://purl.org/dc/elements/1.1/"
   xmlns:cc="http://creativecommons.org/ns#"
   xmlns:rdf="http://www.w3.org/1999/02/22-rdf-syntax-ns#"
   xmlns:svg="http://www.w3.org/2000/svg"
   xmlns="http://www.w3.org/2000/svg"
   xmlns:sodipodi="http://sodipodi.sourceforge.net/DTD/sodipodi-0.dtd"
   xmlns:inkscape="http://www.inkscape.org/namespaces/inkscape"
   width="256"
   height="256"
   id="svg2"
   version="1.1"
   inkscape:version="0.48.3.1 r9886"
   sodipodi:docname="folder-download.svg">
  <defs
     id="defs4" />
  <sodipodi:namedview
     id="base"
     pagecolor="#ffffff"
     bordercolor="#666666"
     borderopacity="1.0"
     inkscape:pageopacity="0.0"
     inkscape:pageshadow="2"
     inkscape:zoom="1.2484713"
     inkscape:cx="139.26136"
     inkscape:cy="126.8548"
     inkscape:document-units="px"
     inkscape:current-layer="layer1"
     showgrid="false"
     showguides="true"
     inkscape:guide-bbox="true"
     inkscape:window-width="882"
     inkscape:window-height="582"
     inkscape:window-x="406"
     inkscape:window-y="82"
     inkscape:window-maximized="0" />
  <metadata
     id="metadata7">
    <rdf:RDF>
      <cc:Work
         rdf:about="">
        <dc:format>image/svg+xml</dc:format>
        <dc:type
           rdf:resource="http://purl.org/dc/dcmitype/StillImage" />
        <dc:title />
      </cc:Work>
    </rdf:RDF>
  </metadata>
  <g
     inkscape:label="Layer 1"
     inkscape:groupmode="layer"
     id="layer1"
     transform="translate(0,-796.3622)">
    <path
       style="fill:#492356;fill-opacity:1;stroke:#a6f488;stroke-opacity:1;stroke-width:1.8;stroke-miterlimit:4;stroke-dasharray:none"
       d="m 165.93592,801.85985 1.8784,69.91193 29.24627,0.43966 c -29.95238,32.0556 -46.73473,48.32522 -67.61519,66.98982 C 97.89854,905.8764 77.684876,889.33045 62.556914,871.71516 l 25.386711,1.0365 0.123994,-70.54103 c 24.012711,-0.31219 48.352401,1.11874 77.868271,-0.35078 z"
       id="path3050-1"
       inkscape:connector-curvature="0"
       sodipodi:nodetypes="cccccccc" />
    <path
       sodipodi:nodetypes="cczcczc"
       class="fil1"
       d="m 36.116886,951.68248 c 13.743231,0 19.234538,0 34.591252,0 0,44.20427 -1.262354,60.83152 58.737262,60.77342 59.99961,-0.058 61.12756,-15.25636 61.12756,-60.77342 0,0 21.53336,0 33.87404,0 0,52.21582 0.15866,96.71492 -94.93771,96.13922 -95.096376,-0.5756 -93.392404,-42.5142 -93.392404,-96.13922 z"
       id="path12-8"
       inkscape:connector-curvature="0"
       style="fill:#492356;fill-opacity:1;fill-rule:nonzero;stroke:#a6f488;stroke-opacity:1;stroke-width:1.8;stroke-miterlimit:4;stroke-dasharray:none" />
    <path
       sodipodi:type="arc"
       style="fill:#8abb22;fill-opacity:1;stroke:none"
       id="path4015-5"
       sodipodi:cx="-100.51018"
       sodipodi:cy="276.05997"
       sodipodi:rx="11.616755"
       sodipodi:ry="11.616755"
       d="m -88.927003,275.17732 a 11.616755,11.616755 0 1 1 -0.02205,-0.25282"
       sodipodi:start="6.2071318"
       sodipodi:end="12.46847"
       sodipodi:open="true"
       transform="matrix(2.2793167,0,0,2.2793167,358.61646,344.5664)" />
  </g>
</svg>
