<?xml version="1.0" encoding="UTF-8" standalone="no"?>
 

<svg
   xmlns:dc="http://purl.org/dc/elements/1.1/"
   xmlns:cc="http://creativecommons.org/ns#"
   xmlns:rdf="http://www.w3.org/1999/02/22-rdf-syntax-ns#"
   xmlns:svg="http://www.w3.org/2000/svg"
   xmlns="http://www.w3.org/2000/svg"
   xmlns:sodipodi="http://sodipodi.sourceforge.net/DTD/sodipodi-0.dtd"
   xmlns:inkscape="http://www.inkscape.org/namespaces/inkscape"
   xml:space="preserve"
   width="300px"
   height="300px"
   style="shape-rendering:geometricPrecision; text-rendering:geometricPrecision; image-rendering:optimizeQuality; fill-rule:evenodd; clip-rule:evenodd"
   viewBox="0 0 300 300"
   id="svg2"
   version="1.1"
   inkscape:version="0.48.3.1 r9886"
   sodipodi:docname="folder-publicshare.svg"><metadata
   id="metadata22"><rdf:RDF><cc:Work
       rdf:about=""><dc:format>image/svg+xml</dc:format><dc:type
         rdf:resource="http://purl.org/dc/dcmitype/StillImage" /></cc:Work></rdf:RDF></metadata><sodipodi:namedview
   pagecolor="#ffffff"
   bordercolor="#666666"
   borderopacity="1"
   objecttolerance="10"
   gridtolerance="10"
   guidetolerance="10"
   inkscape:pageopacity="0"
   inkscape:pageshadow="2"
   inkscape:window-width="1255"
   inkscape:window-height="648"
   id="namedview20"
   showgrid="false"
   inkscape:zoom="0.78666667"
   inkscape:cx="150"
   inkscape:cy="150"
   inkscape:window-x="0"
   inkscape:window-y="22"
   inkscape:window-maximized="0"
   inkscape:current-layer="svg2" />
 <defs
   id="defs4"><style
     type="text/css"
     id="style6">
   
    .fil1 {fill:#3E6E49}
    .fil0 {fill:#564261}
   
  </style></defs>
 <path
   style="fill:#492356;fill-opacity:1;stroke:#a6f488;stroke-opacity:1;stroke-width:1.80000000000000004;stroke-miterlimit:4;stroke-dasharray:none"
   inkscape:connector-curvature="0"
   id="path10"
   d="m 165.121,59.8475 c 15.3871,0 29.732,5.15027 29.7694,30.0947 31.2933,0 24.2482,0 57.5761,0 18.6869,0 33.7501,15.0093 33.7501,33.6851 l 0.0969,70.1065 c 0.0221,18.6758 -15.0093,33.739 -33.6961,33.7612 l -196.860002,0.24222 c -18.6702,0 -33.7183,-15.0148 -33.7335,-33.6906 L 21.888245,86.184619 c -0.01661,-18.6758 4.00146,-26.0019 24.3769,-26.1154 20.3658,-0.204848 83.501895,-0.701743 118.855995,-0.221457 z"
   class="fil0" /><path
   style="fill:#8abb22;fill-opacity:1"
   inkscape:connector-curvature="0"
   id="path12"
   d="m 172.911,49.0002 c 13.9407,-0.275438 26.3216,8.48735 28.114,30.0407 16.4557,0 33.5979,0.189623 56.9865,0.189623 23.4108,0 20.781,14.583 20.781,14.583 0,-0.0055 -0.0208,-58.5907 -0.0208,-64.6919 -0.0166,-6.06378 -2.30592,-17.0176 -18.2661,-16.8723 -15.9588,0.184086 -45.4057,0.388935 -55.1996,0.426305 -9.82717,0 -12.3961,11.3109 -12.3961,11.3109 0,0 -137.326002,0.578557 -155.365002,0.578557 -18.0156,-0.0055 -15.9269,11.6999 -15.5643,37.663 0.02076,2.41942 3.52532,-12.1635 13.275,-12.3476 9.75658,-0.188239 91.789902,-0.204848 137.655002,-0.880293 z"
   class="fil1" /><rect
   style="fill:#8abb22;fill-opacity:1"
   id="rect14"
   ry="8.3461704"
   rx="8.3461704"
   height="12.5565"
   width="220.366"
   y="266.362"
   x="43.446499"
   class="fil1" /><rect
   style="fill:#8abb22;fill-opacity:1"
   y="144.213"
   x="-275.84799"
   id="rect16"
   ry="6.2782316"
   rx="7.7959576"
   height="12.556433"
   width="43.657406"
   transform="matrix(0,-1,1,0,0,0)"
   class="fil1" /><path
   style="fill:#492356;fill-opacity:1;stroke:#a6f488;stroke-opacity:1;stroke-width:1.8;stroke-miterlimit:4;stroke-dasharray:none"
   inkscape:connector-curvature="0"
   id="path18"
   d="m 168.119,272.542 c 0,9.61263 -8.12887,17.4079 -18.1526,17.4079 -10.0196,0 -18.1484,-7.79392 -18.1484,-17.4079 0,-9.61125 8.12887,-17.3996 18.1484,-17.3996 10.0237,0 18.1526,7.78838 18.1526,17.3996 z"
   class="fil0" />
</svg>