<?xml version="1.0" encoding="UTF-8" standalone="no"?>
<!-- Created with Inkscape (http://www.inkscape.org/) -->

<svg
   xmlns:dc="http://purl.org/dc/elements/1.1/"
   xmlns:cc="http://creativecommons.org/ns#"
   xmlns:rdf="http://www.w3.org/1999/02/22-rdf-syntax-ns#"
   xmlns:svg="http://www.w3.org/2000/svg"
   xmlns="http://www.w3.org/2000/svg"
   xmlns:sodipodi="http://sodipodi.sourceforge.net/DTD/sodipodi-0.dtd"
   xmlns:inkscape="http://www.inkscape.org/namespaces/inkscape"
   width="256"
   height="256"
   id="svg2"
   version="1.1"
   inkscape:version="0.48.3.1 r9886"
   sodipodi:docname="folder-pictures.svg">
  <defs
     id="defs4" />
  <sodipodi:namedview
     id="base"
     pagecolor="#ffffff"
     bordercolor="#666666"
     borderopacity="1.0"
     inkscape:pageopacity="0.0"
     inkscape:pageshadow="2"
     inkscape:zoom="0.98994949"
     inkscape:cx="-106.59218"
     inkscape:cy="153.47098"
     inkscape:document-units="px"
     inkscape:current-layer="layer1"
     showgrid="false"
     showguides="true"
     inkscape:guide-bbox="true"
     inkscape:window-width="1918"
     inkscape:window-height="1034"
     inkscape:window-x="0"
     inkscape:window-y="22"
     inkscape:window-maximized="1" />
  <metadata
     id="metadata7">
    <rdf:RDF>
      <cc:Work
         rdf:about="">
        <dc:format>image/svg+xml</dc:format>
        <dc:type
           rdf:resource="http://purl.org/dc/dcmitype/StillImage" />
        <dc:title />
      </cc:Work>
    </rdf:RDF>
  </metadata>
  <g
     inkscape:label="Layer 1"
     inkscape:groupmode="layer"
     id="layer1"
     transform="translate(0,-796.3622)">
    <path
       inkscape:connector-curvature="0"
       style="fill:#492356;fill-opacity:1;stroke:#a6f488;stroke-opacity:1;stroke-width:1.8;stroke-miterlimit:4;stroke-dasharray:none"
       d="m 181.80819,1027.6552 c 0,0 39.47327,0.4379 52.07352,0.4379 9.99154,0 16.75048,-13.8752 16.75048,-23.8667 l 0,-100.83135 c 0,-32.81221 -8.22951,-53.97378 -36.89485,-53.97378 l -165.643683,0 0,1.7e-4 c -31.537856,0 -40.8361482,10.30916 -40.8361482,52.7695 l 0,107.18116 c 0,14.2573 19.5969722,18.3927 19.5969722,18.3927 l 30.146177,-0.1096 0.07007,-75.54125 c -0.07007,-33.53215 23.116071,-64.59421 57.586634,-67.2209 2.12122,-0.1615 4.26654,-0.1587 6.34986,-0.1093 l 1.7e-4,-1.8e-4 c 31.2496,0.74051 57.64251,24.73435 60.76156,56.49183 l 0.10931,1.31377 m 14.67053,-62.73221 23.10034,0 c 6.37186,0 6.17781,5.12357 6.17781,11.49543 l 0,5.76245 c 0,6.37186 0.19409,11.49543 -6.17781,11.49543 l -23.10034,0 c -6.37186,0 -6.49062,-5.12357 -6.49062,-11.49543 l 0,-5.76245 c 0,-6.37186 0.11876,-11.49543 6.49062,-11.49543 z"
       id="path3050-7-5"
       sodipodi:nodetypes="cssssccssccccccccsssssssss" />
    <path
       style="fill:#492356;fill-opacity:1;stroke:#a6f488;stroke-opacity:1;stroke-width:1.8;stroke-miterlimit:4;stroke-dasharray:none"
       d="m 52.431564,817.9518 49.545106,0 c 6.37186,0 11.50156,5.12966 11.50156,11.50152 l 0,15.48286 -72.548227,0 0,-15.48286 c 0,-6.37186 5.129703,-11.50152 11.501561,-11.50152 z"
       id="rect3867-9"
       inkscape:connector-curvature="0"
       sodipodi:nodetypes="sssccss" />
    <path
       sodipodi:type="arc"
       style="fill:#8abb22;fill-opacity:1;stroke:none"
       id="path3885-0"
       sodipodi:cx="417.31927"
       sodipodi:cy="513.57208"
       sodipodi:rx="14.520943"
       sodipodi:ry="14.520943"
       d="m 431.79824,512.46878 c 0.60934,7.99651 -5.37915,14.97293 -13.37566,15.58227 -7.99651,0.60934 -14.97293,-5.37915 -15.58227,-13.37566 -0.60934,-7.99652 5.37915,-14.97294 13.37566,-15.58227 7.87326,-0.59995 14.78292,5.20135 15.55471,13.05962"
       sodipodi:start="6.2071318"
       sodipodi:end="12.46847"
       sodipodi:open="true"
       transform="matrix(2.7709971,0,0,2.7709971,-1035.6512,-476.1669)" />
  </g>
</svg>
