<?xml version="1.0" encoding="UTF-8" standalone="no"?>
<!-- Created with Inkscape (http://www.inkscape.org/) -->

<svg
   xmlns:dc="http://purl.org/dc/elements/1.1/"
   xmlns:cc="http://creativecommons.org/ns#"
   xmlns:rdf="http://www.w3.org/1999/02/22-rdf-syntax-ns#"
   xmlns:svg="http://www.w3.org/2000/svg"
   xmlns="http://www.w3.org/2000/svg"
   xmlns:xlink="http://www.w3.org/1999/xlink"
   xmlns:sodipodi="http://sodipodi.sourceforge.net/DTD/sodipodi-0.dtd"
   xmlns:inkscape="http://www.inkscape.org/namespaces/inkscape"
   width="256"
   height="256"
   id="svg2"
   version="1.1"
   inkscape:version="0.48.3.1 r9886"
   sodipodi:docname="text-x-c.svg">
  <defs
     id="defs4">
    <linearGradient
       inkscape:collect="always"
       id="linearGradient4019">
      <stop
         style="stop-color:#ffffff;stop-opacity:1;"
         offset="0"
         id="stop4021" />
      <stop
         style="stop-color:#ffffff;stop-opacity:0;"
         offset="1"
         id="stop4023" />
    </linearGradient>
    <linearGradient
       id="linearGradient3864">
      <stop
         style="stop-color:#ffffff;stop-opacity:1;"
         offset="0"
         id="stop3866" />
      <stop
         style="stop-color:#d5d5d5;stop-opacity:0;"
         offset="1"
         id="stop3868" />
    </linearGradient>
    <linearGradient
       id="linearGradient3815">
      <stop
         style="stop-color:#e0f2fe;stop-opacity:1;"
         offset="0"
         id="stop3817" />
      <stop
         style="stop-color:#075e99;stop-opacity:1;"
         offset="1"
         id="stop3819" />
    </linearGradient>
    <linearGradient
       id="linearGradient3805">
      <stop
         style="stop-color:#989898;stop-opacity:1;"
         offset="0"
         id="stop3807" />
      <stop
         style="stop-color:#2a2a2a;stop-opacity:0.94968551;"
         offset="1"
         id="stop3809" />
    </linearGradient>
    <linearGradient
       id="linearGradient3927">
      <stop
         id="stop3929"
         offset="0"
         style="stop-color:#9d9d9d;stop-opacity:1;" />
      <stop
         id="stop3931"
         offset="1"
         style="stop-color:#ffffff;stop-opacity:1;" />
    </linearGradient>
    <linearGradient
       id="linearGradient3909">
      <stop
         style="stop-color:#909090;stop-opacity:1;"
         offset="0"
         id="stop3911" />
      <stop
         style="stop-color:#cfcfcf;stop-opacity:1;"
         offset="1"
         id="stop3913" />
    </linearGradient>
    <linearGradient
       id="linearGradient3815-1">
      <stop
         style="stop-color:#e0f2fe;stop-opacity:1;"
         offset="0"
         id="stop3817-9" />
      <stop
         style="stop-color:#01131f;stop-opacity:1;"
         offset="1"
         id="stop3819-2" />
    </linearGradient>
    <radialGradient
       inkscape:collect="always"
       xlink:href="#linearGradient4019"
       id="radialGradient4025"
       cx="120.92171"
       cy="141.02525"
       fx="120.92171"
       fy="141.02525"
       r="127.60499"
       gradientTransform="matrix(0.67948535,0.00596595,-0.00506566,0.54621211,39.471564,63.274139)"
       gradientUnits="userSpaceOnUse" />
  </defs>
  <sodipodi:namedview
     id="base"
     pagecolor="#ffffff"
     bordercolor="#666666"
     borderopacity="1.0"
     inkscape:pageopacity="0.0"
     inkscape:pageshadow="2"
     inkscape:zoom="1.7656052"
     inkscape:cx="114.74659"
     inkscape:cy="42.84029"
     inkscape:document-units="px"
     inkscape:current-layer="layer1"
     showgrid="false"
     showguides="true"
     inkscape:guide-bbox="true"
     inkscape:window-width="1913"
     inkscape:window-height="1026"
     inkscape:window-x="0"
     inkscape:window-y="26"
     inkscape:window-maximized="1" />
  <metadata
     id="metadata7">
    <rdf:RDF>
      <cc:Work
         rdf:about="">
        <dc:format>image/svg+xml</dc:format>
        <dc:type
           rdf:resource="http://purl.org/dc/dcmitype/StillImage" />
        <dc:title />
      </cc:Work>
    </rdf:RDF>
  </metadata>
  <g
     inkscape:label="Layer 1"
     inkscape:groupmode="layer"
     id="layer1"
     transform="translate(0,-796.3622)">
    <path
       inkscape:connector-curvature="0"
       style="fill:#93ac93;fill-opacity:1;stroke:none"
       d="m 50.27813,817.11747 0,219.35603 166.72262,0 0,-187.57241 c -10.93332,-9.25258 -26.94202,-17.13462 -45.80913,-31.78362 z"
       id="rect3051"
       sodipodi:nodetypes="cccccc" />
    <path
       style="fill:#dbe3db;fill-opacity:1;stroke:none"
       inkscape:transform-center-x="-5.9896366"
       inkscape:transform-center-y="-0.83414663"
       d="m 177.56973,859.63399 -6.30858,-42.85975 46.66199,32.45883 z"
       id="path3054"
       inkscape:connector-curvature="0"
       sodipodi:nodetypes="cccc" />
    <g
       style="font-size:16.100811px;font-style:normal;font-variant:normal;font-weight:normal;font-stretch:normal;line-height:125%;letter-spacing:0px;word-spacing:0px;fill:#374837;fill-opacity:1;stroke:none;font-family:'A.C.M.E. Secret Agent';-inkscape-font-specification:'A.C.M.E. Secret Agent'"
       id="text4128"
       transform="matrix(0.90308572,0,0,0.90308572,-0.9246454,56.097469)">
      <path
         d="m 67.124947,893.60437 c -0.214678,10e-6 -0.322016,-0.161 -0.322016,-0.48302 l 0,-0.27372 c 0,-0.32201 0.107338,-0.48302 0.322016,-0.48302 l 1.465174,0 0.418621,-2.36682 -1.304166,0 c -0.214678,10e-6 -0.322017,-0.161 -0.322016,-0.48302 l 0,-0.27372 c -10e-7,-0.32201 0.107338,-0.48301 0.322016,-0.48302 l 1.513476,0 0.499126,-2.68884 c 0.01073,-0.0859 0.0322,-0.15026 0.0644,-0.19321 0.08587,-0.10732 0.300545,-0.16099 0.644032,-0.161 l 0.0644,0 c 0.300544,10e-6 0.450818,0.0805 0.450822,0.24151 l -0.531326,2.80154 1.915996,0 0.483024,-2.68884 c 0.01073,-0.0859 0.0322,-0.15026 0.0644,-0.19321 0.08586,-0.10732 0.300541,-0.16099 0.644032,-0.161 l 0.0805,0 c 0.300541,10e-6 0.450815,0.0805 0.450823,0.24151 l -0.499125,2.80154 1.094855,0 c 0.214669,1e-5 0.322008,0.16101 0.322016,0.48302 l 0,0.27372 c -8e-6,0.32202 -0.107347,0.48303 -0.322016,0.48302 l -1.336368,0 -0.40252,2.36682 1.223662,0 c 0.21467,0 0.322008,0.16101 0.322016,0.48302 l 0,0.27372 c -8e-6,0.32202 -0.107346,0.48303 -0.322016,0.48302 l -1.481275,0 -0.499125,2.83375 c -0.03221,0.1288 -0.09124,0.22004 -0.177109,0.27371 -0.08588,0.0537 -0.257618,0.0805 -0.515226,0.0805 l -0.0644,0 c -0.300553,0 -0.450827,-0.0912 -0.450823,-0.27371 l 0.515226,-2.91425 -1.899895,0 -0.515226,2.83375 c -0.02147,0.0859 -0.04294,0.15027 -0.0644,0.19321 -0.07514,0.10733 -0.284449,0.161 -0.627931,0.161 l -0.0644,0 c -0.300549,0 -0.450823,-0.0912 -0.450822,-0.27371 l 0.515226,-2.91425 -1.223662,0 m 2.672735,-1.23976 1.899895,0 0.418621,-2.36682 -1.899895,0 -0.418621,2.36682"
         style="fill:#374837;font-family:Asap;-inkscape-font-specification:Asap"
         id="path4143"
         inkscape:connector-curvature="0" />
      <path
         d="m 77.254873,886.31071 c -0.429357,10e-6 -0.644034,-0.11807 -0.644033,-0.35422 l 0,-0.94995 c -10e-7,-0.23613 0.214676,-0.35421 0.644033,-0.35422 l 0.193209,0 c 0.429353,10e-6 0.64403,0.11809 0.644033,0.35422 l 0,0.94995 c -3e-6,0.23615 -0.21468,0.35423 -0.644033,0.35422 l -0.193209,0 m -0.57963,10.12741 0,-7.7767 c -10e-7,-0.23613 0.214676,-0.35421 0.644033,-0.35421 l 0.0644,0 c 0.429352,0 0.64403,0.11808 0.644033,0.35421 l 0,7.7767 c -3e-6,0.23614 -0.214681,0.35421 -0.644033,0.35421 l -0.0644,0 c -0.429357,0 -0.644034,-0.11807 -0.644033,-0.35421"
         style="fill:#374837;font-family:Asap;-inkscape-font-specification:Asap"
         id="path4145"
         inkscape:connector-curvature="0" />
      <path
         d="m 80.871517,896.43812 0,-5.65139 c -2e-6,-0.65476 -0.02684,-1.12168 -0.0805,-1.40077 -0.07514,-0.38641 -0.112707,-0.59572 -0.112706,-0.62793 -10e-7,-0.1288 0.10197,-0.22004 0.305915,-0.27372 0.203942,-0.0644 0.359583,-0.0966 0.466924,-0.0966 0.11807,10e-6 0.198574,0.0107 0.241512,0.0322 0.04293,0.0215 0.0805,0.0591 0.112706,0.11271 0.04293,0.0429 0.07513,0.0912 0.0966,0.1449 0.02147,0.043 0.04293,0.10735 0.0644,0.19321 0.02146,0.0752 0.03757,0.13955 0.0483,0.19321 0.02147,0.043 0.03757,0.11272 0.0483,0.20931 0.02146,0.0859 0.03757,0.14492 0.0483,0.17711 0.719166,-0.80503 1.518839,-1.20755 2.399021,-1.20756 0.890906,10e-6 1.567139,0.23079 2.028702,0.69234 0.472283,0.46156 0.708428,1.10023 0.708436,1.91599 l 0,5.58699 c -8e-6,0.23614 -0.214685,0.35421 -0.644033,0.35421 l -0.0644,0 c -0.429361,0 -0.644039,-0.11807 -0.644032,-0.35421 l 0,-5.45818 c -7e-6,-0.49375 -0.144914,-0.8748 -0.434722,-1.14316 -0.279087,-0.27907 -0.681606,-0.41861 -1.207561,-0.41862 -0.772843,1e-5 -1.449076,0.37569 -2.028702,1.12706 l 0,5.8929 c -3e-6,0.23614 -0.21468,0.35421 -0.644033,0.35421 l -0.0644,0 c -0.429356,0 -0.644034,-0.11807 -0.644032,-0.35421"
         style="fill:#374837;font-family:Asap;-inkscape-font-specification:Asap"
         id="path4147"
         inkscape:connector-curvature="0" />
      <path
         d="m 89.286455,892.50952 c -10e-7,-0.80504 0.107338,-1.49737 0.322016,-2.07701 0.22541,-0.57962 0.525959,-1.02507 0.901646,-1.33636 0.708433,-0.56889 1.572509,-0.85334 2.59223,-0.85335 0.62256,10e-6 1.180721,0.0752 1.674485,0.22541 0.493751,0.15029 0.74063,0.32203 0.740637,0.51523 -7e-6,0.13955 -0.06441,0.32202 -0.19321,0.54743 -0.118079,0.21468 -0.225418,0.32202 -0.322016,0.32201 -0.01074,10e-6 -0.03221,-0.005 -0.0644,-0.0161 -0.02147,-0.0107 -0.04294,-0.0161 -0.0644,-0.0161 -0.01074,-0.0107 -0.02684,-0.0215 -0.0483,-0.0322 -0.579635,-0.25761 -1.16463,-0.38641 -1.754988,-0.38642 -1.556415,10e-6 -2.33462,1.02509 -2.334618,3.07526 -2e-6,1.13779 0.187841,1.95893 0.563529,2.46342 0.386416,0.50449 1.030448,0.75674 1.932097,0.75674 0.654761,0 1.261224,-0.13954 1.819392,-0.41862 0.0322,-0.0107 0.0644,-0.0215 0.0966,-0.0322 0.04293,-0.0215 0.06976,-0.0322 0.0805,-0.0322 0.107332,10e-6 0.225405,0.10734 0.354218,0.32202 0.1288,0.20394 0.193203,0.37032 0.19321,0.49913 -7e-6,0.19321 -0.252253,0.38105 -0.756738,0.56352 -0.504498,0.17175 -1.094861,0.25762 -1.771089,0.25762 -1.331004,0 -2.323886,-0.34349 -2.97865,-1.03046 -0.654768,-0.68696 -0.982151,-1.79255 -0.98215,-3.31676"
         style="fill:#374837;font-family:Asap;-inkscape-font-specification:Asap"
         id="path4149"
         inkscape:connector-curvature="0" />
      <path
         d="m 97.599756,894.63482 0,-9.62828 c -10e-7,-0.23613 0.214676,-0.35421 0.644032,-0.35422 l 0.0644,0 c 0.429352,10e-6 0.644029,0.11809 0.644032,0.35422 l 0,9.49948 c -3e-6,0.79431 0.289812,1.19146 0.869444,1.19146 0.182476,0 0.338116,-0.0107 0.466926,-0.0322 0.1288,-0.0322 0.20394,-0.0483 0.22541,-0.0483 0.0966,10e-6 0.17711,0.10198 0.24151,0.30592 0.0644,0.19321 0.0966,0.34348 0.0966,0.45082 0,0.32202 -0.39179,0.48303 -1.175363,0.48303 -0.536697,0 -1.019721,-0.16101 -1.449073,-0.48303 -0.418623,-0.33275 -0.627933,-0.91238 -0.627932,-1.73889"
         style="fill:#374837;font-family:Asap;-inkscape-font-specification:Asap"
         id="path4151"
         inkscape:connector-curvature="0" />
      <path
         d="m 102.26698,894.24841 0,-5.58699 c 0,-0.23613 0.21467,-0.35421 0.64403,-0.35421 l 0.0644,0 c 0.42936,0 0.64403,0.11808 0.64404,0.35421 l 0,5.45818 c -1e-5,0.49376 0.13953,0.88018 0.41862,1.15926 0.28981,0.26835 0.6977,0.40252 1.22366,0.40252 0.77283,0 1.44907,-0.37569 2.0287,-1.12706 l 0,-5.8929 c 0,-0.23613 0.21467,-0.35421 0.64403,-0.35421 l 0.0644,0 c 0.42934,0 0.64402,0.11808 0.64403,0.35421 l 0,5.71579 c -10e-6,0.64404 0.0268,1.11096 0.0805,1.40077 0.0751,0.39716 0.1127,0.60647 0.11271,0.62793 -1e-5,0.12881 -0.10198,0.22542 -0.30592,0.28982 -0.20395,0.0537 -0.36495,0.0805 -0.48302,0.0805 -0.10735,0 -0.18248,-0.0107 -0.22541,-0.0322 -0.0429,-0.0215 -0.0859,-0.059 -0.12881,-0.1127 -0.0322,-0.0537 -0.059,-0.10198 -0.0805,-0.14491 -0.0215,-0.0537 -0.0429,-0.12344 -0.0644,-0.20931 -0.0215,-0.0859 -0.0429,-0.15028 -0.0644,-0.19321 -0.0107,-0.0537 -0.0268,-0.12881 -0.0483,-0.22541 -0.0107,-0.10734 -0.0215,-0.17711 -0.0322,-0.20931 -0.71918,0.80504 -1.52422,1.20756 -2.41512,1.20756 -0.88019,0 -1.55642,-0.23078 -2.02871,-0.69234 -0.46155,-0.46155 -0.69233,-1.10022 -0.69233,-1.91599"
         style="fill:#374837;font-family:Asap;-inkscape-font-specification:Asap"
         id="path4153"
         inkscape:connector-curvature="0" />
      <path
         d="m 116.54261,895.64918 c -0.77284,0.80504 -1.63155,1.20756 -2.57613,1.20756 -0.94458,0 -1.70132,-0.39716 -2.27021,-1.19146 -0.55817,-0.79431 -0.83725,-1.81403 -0.83725,-3.05916 l 0,-0.1449 c 0,-1.32027 0.30055,-2.35072 0.90165,-3.09136 0.60109,-0.75136 1.35246,-1.12705 2.25411,-1.12706 0.90164,10e-6 1.70668,0.27372 2.41512,0.82114 l 0,-4.0574 c 0,-0.23613 0.21468,-0.35421 0.64404,-0.35422 l 0.0644,0 c 0.42935,10e-6 0.64403,0.11809 0.64403,0.35422 l 0,9.37067 c 0,0.64404 0.0268,1.11096 0.0805,1.40077 0.0751,0.39716 0.11269,0.60647 0.1127,0.62793 -1e-5,0.12881 -0.10198,0.22542 -0.30591,0.28982 -0.20395,0.0537 -0.36496,0.0805 -0.48303,0.0805 -0.10734,0 -0.18248,-0.0107 -0.22541,-0.0322 -0.0429,-0.0215 -0.0859,-0.059 -0.12881,-0.1127 -0.0322,-0.0537 -0.059,-0.10198 -0.0805,-0.14491 -0.0215,-0.0537 -0.0429,-0.12344 -0.0644,-0.20931 -0.0215,-0.0859 -0.0429,-0.15028 -0.0644,-0.19321 -0.0107,-0.0537 -0.0268,-0.12881 -0.0483,-0.22541 -0.0107,-0.10734 -0.0215,-0.17711 -0.0322,-0.20931 m -4.26671,-3.22017 c -10e-6,2.16825 0.69769,3.25237 2.0931,3.25237 0.6977,0 1.38466,-0.37032 2.0609,-1.11096 l 0,-4.41162 c -0.57963,-0.48302 -1.22903,-0.72453 -1.94819,-0.72454 l -0.0966,0 c -0.68697,0.0107 -1.21293,0.27372 -1.57788,0.78894 -0.35422,0.51523 -0.53133,1.2505 -0.53132,2.20581"
         style="fill:#374837;font-family:Asap;-inkscape-font-specification:Asap"
         id="path4155"
         inkscape:connector-curvature="0" />
      <path
         d="m 123.97163,896.85674 c -1.34174,0 -2.33462,-0.34885 -2.97865,-1.04656 -0.64404,-0.6977 -0.96605,-1.76035 -0.96605,-3.18796 0,-1.43833 0.31665,-2.52782 0.94995,-3.26846 0.63329,-0.74063 1.53494,-1.11095 2.70493,-1.11096 2.27558,10e-6 3.41337,1.40078 3.41337,4.20231 0,0.0966 -0.0644,0.23079 -0.1932,0.40252 -0.12882,0.17175 -0.24152,0.25762 -0.33812,0.25762 l -5.08786,0 c 0.0644,0.89091 0.29518,1.54568 0.69234,1.9643 0.39715,0.41862 0.99288,0.62793 1.78719,0.62793 0.72989,0 1.40076,-0.17174 2.0126,-0.51523 0.20393,-0.10733 0.31664,-0.161 0.33812,-0.16101 0.10733,10e-6 0.2254,0.10734 0.35421,0.32202 0.13954,0.21468 0.20931,0.37569 0.20931,0.48302 0,0.21468 -0.29519,0.44009 -0.88554,0.67624 -0.57964,0.23614 -1.2505,0.35422 -2.0126,0.35422 m 1.69058,-4.91075 c 0,-1.69595 -0.64404,-2.54392 -1.93209,-2.54393 -1.38468,10e-6 -2.13605,0.84798 -2.25412,2.54393 l 4.18621,0"
         style="fill:#374837;font-family:Asap;-inkscape-font-specification:Asap"
         id="path4157"
         inkscape:connector-curvature="0" />
      <path
         d="m 132.34883,893.23405 0,-0.27371 c 0,-0.25761 0.13417,-0.44545 0.40252,-0.56353 l 6.61743,-2.80154 c 0.0751,-0.0322 0.15564,-0.0483 0.24152,-0.0483 0.2254,10e-6 0.33811,0.13955 0.33811,0.41862 l 0,0.22541 c 0,0.27909 -0.12881,0.46693 -0.38642,0.56353 l -5.73188,2.33462 5.73188,2.35072 c 0.25761,0.10734 0.38642,0.29518 0.38642,0.56352 l 0,0.22542 c 0,0.27908 -0.11271,0.41862 -0.33811,0.41862 -0.0859,0 -0.16639,-0.0161 -0.24152,-0.0483 l -6.61743,-2.80154 c -0.26835,-0.11807 -0.40252,-0.30591 -0.40252,-0.56353"
         style="fill:#374837;font-family:Asap;-inkscape-font-specification:Asap"
         id="path4159"
         inkscape:connector-curvature="0" />
      <path
         d="m 141.27748,895.89069 c 0,-0.10734 0.0644,-0.26835 0.19321,-0.48303 0.13954,-0.21467 0.26298,-0.32201 0.37032,-0.32201 0.0107,0 0.0966,0.0537 0.25761,0.16101 0.16101,0.0966 0.39179,0.19857 0.69234,0.30591 0.30054,0.0966 0.66013,0.14491 1.07875,0.14491 0.42935,0 0.7782,-0.11807 1.04655,-0.35422 0.27908,-0.24688 0.41862,-0.57426 0.41862,-0.98215 0,-0.41862 -0.12344,-0.74063 -0.37031,-0.96605 -0.23615,-0.23614 -0.71381,-0.45618 -1.43298,-0.66013 -0.71917,-0.20394 -1.23976,-0.46155 -1.56178,-0.77284 -0.32201,-0.32201 -0.48302,-0.80503 -0.48302,-1.44907 0,-0.64403 0.24688,-1.18072 0.74064,-1.61008 0.49375,-0.44008 1.13779,-0.66013 1.93209,-0.66014 0.54743,10e-6 1.03582,0.0698 1.46518,0.20931 0.42935,0.13955 0.64403,0.29519 0.64403,0.46693 0,0.13954 -0.0644,0.32202 -0.19321,0.54742 -0.11808,0.21469 -0.22542,0.32203 -0.32202,0.32202 -0.0107,10e-6 -0.0805,-0.0322 -0.20931,-0.0966 -0.36495,-0.19321 -0.77821,-0.28981 -1.23976,-0.28982 -0.45082,10e-6 -0.80504,0.0966 -1.06265,0.28982 -0.24688,0.18248 -0.37032,0.42399 -0.37032,0.72453 0,0.30056 0.0912,0.5367 0.27371,0.70844 0.19321,0.17175 0.51523,0.32739 0.96605,0.46692 1.00898,0.31129 1.69058,0.65477 2.04481,1.03045 0.36494,0.36496 0.54742,0.92312 0.54742,1.67449 0,0.74064 -0.26835,1.35247 -0.80504,1.83549 -0.52596,0.48302 -1.15926,0.72454 -1.89989,0.72454 -0.74064,0 -1.37931,-0.10734 -1.916,-0.32202 -0.53669,-0.22541 -0.80504,-0.44009 -0.80504,-0.64403"
         style="fill:#374837;font-family:Asap;-inkscape-font-specification:Asap"
         id="path4161"
         inkscape:connector-curvature="0" />
      <path
         d="m 149.07204,894.63482 0,-5.13615 -0.80504,0 c -0.21468,0 -0.32202,-0.161 -0.32202,-0.48303 l 0,-0.19321 c 0,-0.32201 0.10734,-0.48301 0.32202,-0.48302 l 0.80504,0 0.19321,-1.69059 c 0.0215,-0.23613 0.1932,-0.3542 0.51522,-0.35422 l 0.16101,0 c 0.32201,2e-5 0.48302,0.11809 0.48303,0.35422 l 0,1.69059 1.35246,0 c 0.21468,10e-6 0.32202,0.16101 0.32202,0.48302 l 0,0.19321 c 0,0.32203 -0.10734,0.48303 -0.32202,0.48303 l -1.35246,0 0,5.00735 c -1e-5,0.79431 0.28981,1.19146 0.86944,1.19146 0.18247,0 0.33811,-0.0107 0.46692,-0.0322 0.1288,-0.0322 0.20394,-0.0483 0.22541,-0.0483 0.0966,10e-6 0.17711,0.10198 0.24152,0.30592 0.0644,0.19321 0.0966,0.34348 0.0966,0.45082 0,0.32202 -0.39179,0.48303 -1.17536,0.48303 -0.53669,0 -1.01972,-0.16101 -1.44907,-0.48303 -0.41862,-0.33275 -0.62793,-0.91238 -0.62793,-1.73889"
         style="fill:#374837;font-family:Asap;-inkscape-font-specification:Asap"
         id="path4163"
         inkscape:connector-curvature="0" />
      <path
         d="m 159.37328,895.64918 c -0.77284,0.80504 -1.63155,1.20756 -2.57613,1.20756 -0.94458,0 -1.70132,-0.39716 -2.27021,-1.19146 -0.55816,-0.79431 -0.83724,-1.81403 -0.83724,-3.05916 l 0,-0.1449 c 0,-1.32027 0.30054,-2.35072 0.90164,-3.09136 0.6011,-0.75136 1.35247,-1.12705 2.25412,-1.12706 0.90164,10e-6 1.70668,0.27372 2.41512,0.82114 l 0,-4.0574 c -1e-5,-0.23613 0.21467,-0.35421 0.64403,-0.35422 l 0.0644,0 c 0.42935,10e-6 0.64403,0.11809 0.64404,0.35422 l 0,9.37067 c -10e-6,0.64404 0.0268,1.11096 0.0805,1.40077 0.0751,0.39716 0.1127,0.60647 0.11271,0.62793 -1e-5,0.12881 -0.10198,0.22542 -0.30592,0.28982 -0.20395,0.0537 -0.36496,0.0805 -0.48302,0.0805 -0.10735,0 -0.18249,-0.0107 -0.22542,-0.0322 -0.0429,-0.0215 -0.0859,-0.059 -0.1288,-0.1127 -0.0322,-0.0537 -0.059,-0.10198 -0.0805,-0.14491 -0.0215,-0.0537 -0.0429,-0.12344 -0.0644,-0.20931 -0.0215,-0.0859 -0.0429,-0.15028 -0.0644,-0.19321 -0.0107,-0.0537 -0.0268,-0.12881 -0.0483,-0.22541 -0.0107,-0.10734 -0.0215,-0.17711 -0.0322,-0.20931 m -4.26671,-3.22017 c 0,2.16825 0.6977,3.25237 2.0931,3.25237 0.6977,0 1.38467,-0.37032 2.06091,-1.11096 l 0,-4.41162 c -0.57964,-0.48302 -1.22904,-0.72453 -1.9482,-0.72454 l -0.0966,0 c -0.68697,0.0107 -1.21293,0.27372 -1.57787,0.78894 -0.35422,0.51523 -0.53133,1.2505 -0.53133,2.20581"
         style="fill:#374837;font-family:Asap;-inkscape-font-specification:Asap"
         id="path4165"
         inkscape:connector-curvature="0" />
      <path
         d="m 164.01686,886.31071 c -0.42936,10e-6 -0.64404,-0.11807 -0.64404,-0.35422 l 0,-0.94995 c 0,-0.23613 0.21468,-0.35421 0.64404,-0.35422 l 0.19321,0 c 0.42935,10e-6 0.64403,0.11809 0.64403,0.35422 l 0,0.94995 c 0,0.23615 -0.21468,0.35423 -0.64403,0.35422 l -0.19321,0 m -0.57963,10.12741 0,-7.7767 c 0,-0.23613 0.21467,-0.35421 0.64403,-0.35421 l 0.0644,0 c 0.42936,0 0.64403,0.11808 0.64404,0.35421 l 0,7.7767 c -1e-5,0.23614 -0.21468,0.35421 -0.64404,0.35421 l -0.0644,0 c -0.42936,0 -0.64403,-0.11807 -0.64403,-0.35421"
         style="fill:#374837;font-family:Asap;-inkscape-font-specification:Asap"
         id="path4167"
         inkscape:connector-curvature="0" />
      <path
         d="m 170.85366,896.85674 c -1.20219,0 -2.1253,-0.36495 -2.76933,-1.09486 -0.6333,-0.7299 -0.94995,-1.78719 -0.94995,-3.17186 0,-1.3954 0.32201,-2.46878 0.96605,-3.22016 0.64403,-0.75136 1.56177,-1.12705 2.75323,-1.12706 1.19146,10e-6 2.09847,0.3757 2.72104,1.12706 0.63329,0.74064 0.94994,1.81403 0.94995,3.22016 -1e-5,1.39541 -0.31129,2.45806 -0.93385,3.18796 -0.61184,0.71917 -1.52421,1.07876 -2.73714,1.07876 m -1.75498,-1.916 c 0.36494,0.50449 0.93921,0.75674 1.72278,0.75674 0.78357,0 1.3632,-0.25225 1.73889,-0.75674 0.37568,-0.51522 0.56352,-1.30953 0.56353,-2.38292 -1e-5,-1.07338 -0.18785,-1.86769 -0.56353,-2.38292 -0.37569,-0.51522 -0.95532,-0.77283 -1.73889,-0.77284 -0.78357,10e-6 -1.35784,0.25762 -1.72278,0.77284 -0.36496,0.5045 -0.54743,1.2988 -0.54743,2.38292 0,1.07339 0.18247,1.8677 0.54743,2.38292"
         style="fill:#374837;font-family:Asap;-inkscape-font-specification:Asap"
         id="path4169"
         inkscape:connector-curvature="0" />
      <path
         d="m 176.22102,896.43812 0,-1.06266 c 0,-0.23614 0.21468,-0.35421 0.64403,-0.35422 l 0.27372,0 c 0.42935,10e-6 0.64403,0.11808 0.64403,0.35422 l 0,1.06266 c 0,0.23614 -0.21468,0.35421 -0.64403,0.35421 l -0.27372,0 c -0.42935,0 -0.64403,-0.11807 -0.64403,-0.35421"
         style="fill:#374837;font-family:Asap;-inkscape-font-specification:Asap"
         id="path4171"
         inkscape:connector-curvature="0" />
      <path
         d="m 180.08874,896.43812 0,-11.43158 c 0,-0.23613 0.21468,-0.35421 0.64403,-0.35422 l 0.0644,0 c 0.42935,10e-6 0.64403,0.11809 0.64403,0.35422 l 0,4.34722 c 0.74063,-0.74063 1.56177,-1.11095 2.46342,-1.11096 0.61183,10e-6 1.16462,0.15565 1.65839,0.46693 0.26834,0.18248 0.48301,0.45619 0.64403,0.82114 0.17173,0.36496 0.25761,0.80504 0.25761,1.32026 l 0,5.58699 c 0,0.23614 -0.21468,0.35421 -0.64403,0.35421 l -0.0644,0 c -0.42936,0 -0.64404,-0.11807 -0.64403,-0.35421 l 0,-5.45818 c -1e-5,-0.48302 -0.13955,-0.86407 -0.41863,-1.14316 -0.27908,-0.27907 -0.64403,-0.41861 -1.09485,-0.41862 -0.44009,1e-5 -0.83188,0.0966 -1.17536,0.28982 -0.33275,0.18248 -0.57963,0.36496 -0.74064,0.54742 l -0.24151,0.28982 0,5.8929 c 0,0.23614 -0.21468,0.35421 -0.64403,0.35421 l -0.0644,0 c -0.42935,0 -0.64403,-0.11807 -0.64403,-0.35421"
         style="fill:#374837;font-family:Asap;-inkscape-font-specification:Asap"
         id="path4173"
         inkscape:connector-curvature="0" />
      <path
         d="m 188.43625,896.24491 0,-0.22542 c 0,-0.25761 0.12881,-0.44545 0.38642,-0.56352 l 5.73189,-2.35072 -5.73189,-2.33462 c -0.25761,-0.0966 -0.38642,-0.28444 -0.38642,-0.56353 l 0,-0.22541 c 0,-0.27907 0.11271,-0.41861 0.33812,-0.41862 0.0751,10e-6 0.15564,0.0161 0.24151,0.0483 l 6.61744,2.80154 c 0.26834,0.11808 0.40251,0.30592 0.40252,0.56353 l 0,0.27372 c -1e-5,0.25761 -0.13418,0.44545 -0.40252,0.56352 l -6.61744,2.80154 c -0.0859,0.0322 -0.16637,0.0483 -0.24151,0.0483 -0.22541,0 -0.33812,-0.13954 -0.33812,-0.41862"
         style="fill:#374837;font-family:Asap;-inkscape-font-specification:Asap"
         id="path4175"
         inkscape:connector-curvature="0" />
      <path
         d="m 67.124947,913.73039 c -0.214678,0 -0.322016,-0.16101 -0.322016,-0.48303 l 0,-0.27371 c 0,-0.32201 0.107338,-0.48302 0.322016,-0.48303 l 1.465174,0 0.418621,-2.36682 -1.304166,0 c -0.214678,1e-5 -0.322017,-0.161 -0.322016,-0.48302 l 0,-0.27371 c -10e-7,-0.32201 0.107338,-0.48302 0.322016,-0.48303 l 1.513476,0 0.499126,-2.68883 c 0.01073,-0.0859 0.0322,-0.15027 0.0644,-0.19321 0.08587,-0.10733 0.300545,-0.161 0.644032,-0.16101 l 0.0644,0 c 0.300544,10e-6 0.450818,0.0805 0.450822,0.24151 l -0.531326,2.80154 1.915996,0 0.483024,-2.68883 c 0.01073,-0.0859 0.0322,-0.15027 0.0644,-0.19321 0.08586,-0.10733 0.300541,-0.161 0.644032,-0.16101 l 0.0805,0 c 0.300541,10e-6 0.450815,0.0805 0.450823,0.24151 l -0.499125,2.80154 1.094855,0 c 0.214669,10e-6 0.322008,0.16102 0.322016,0.48303 l 0,0.27371 c -8e-6,0.32202 -0.107347,0.48303 -0.322016,0.48302 l -1.336368,0 -0.40252,2.36682 1.223662,0 c 0.21467,10e-6 0.322008,0.16102 0.322016,0.48303 l 0,0.27371 c -8e-6,0.32202 -0.107346,0.48303 -0.322016,0.48303 l -1.481275,0 -0.499125,2.83374 c -0.03221,0.12881 -0.09124,0.22004 -0.177109,0.27371 -0.08588,0.0537 -0.257618,0.0805 -0.515226,0.0805 l -0.0644,0 c -0.300553,0 -0.450827,-0.0912 -0.450823,-0.27372 l 0.515226,-2.91424 -1.899895,0 -0.515226,2.83374 c -0.02147,0.0859 -0.04294,0.15027 -0.0644,0.19321 -0.07514,0.10734 -0.284449,0.16101 -0.627931,0.16101 l -0.0644,0 c -0.300549,0 -0.450823,-0.0912 -0.450822,-0.27372 l 0.515226,-2.91424 -1.223662,0 m 2.672735,-1.23977 1.899895,0 0.418621,-2.36682 -1.899895,0 -0.418621,2.36682"
         style="fill:#374837;font-family:Asap;-inkscape-font-specification:Asap"
         id="path4177"
         inkscape:connector-curvature="0" />
      <path
         d="m 77.254873,906.43672 c -0.429357,10e-6 -0.644034,-0.11806 -0.644033,-0.35422 l 0,-0.94995 c -10e-7,-0.23613 0.214676,-0.3542 0.644033,-0.35421 l 0.193209,0 c 0.429353,1e-5 0.64403,0.11808 0.644033,0.35421 l 0,0.94995 c -3e-6,0.23616 -0.21468,0.35423 -0.644033,0.35422 l -0.193209,0 m -0.57963,10.12741 0,-7.77669 c -10e-7,-0.23614 0.214676,-0.35421 0.644033,-0.35422 l 0.0644,0 c 0.429352,10e-6 0.64403,0.11808 0.644033,0.35422 l 0,7.77669 c -3e-6,0.23614 -0.214681,0.35422 -0.644033,0.35422 l -0.0644,0 c -0.429357,0 -0.644034,-0.11808 -0.644033,-0.35422"
         style="fill:#374837;font-family:Asap;-inkscape-font-specification:Asap"
         id="path4179"
         inkscape:connector-curvature="0" />
      <path
         d="m 80.871517,916.56413 0,-5.65139 c -2e-6,-0.65475 -0.02684,-1.12168 -0.0805,-1.40077 -0.07514,-0.38641 -0.112707,-0.59572 -0.112706,-0.62793 -10e-7,-0.1288 0.10197,-0.22003 0.305915,-0.27371 0.203942,-0.0644 0.359583,-0.0966 0.466924,-0.0966 0.11807,10e-6 0.198574,0.0107 0.241512,0.0322 0.04293,0.0215 0.0805,0.059 0.112706,0.1127 0.04293,0.0429 0.07513,0.0912 0.0966,0.14491 0.02147,0.0429 0.04293,0.10735 0.0644,0.19321 0.02146,0.0751 0.03757,0.13955 0.0483,0.19321 0.02147,0.0429 0.03757,0.11271 0.0483,0.20931 0.02146,0.0859 0.03757,0.14491 0.0483,0.17711 0.719166,-0.80504 1.518839,-1.20755 2.399021,-1.20756 0.890906,10e-6 1.567139,0.23078 2.028702,0.69233 0.472283,0.46157 0.708428,1.10023 0.708436,1.916 l 0,5.58698 c -8e-6,0.23614 -0.214685,0.35422 -0.644033,0.35422 l -0.0644,0 c -0.429361,0 -0.644039,-0.11808 -0.644032,-0.35422 l 0,-5.45818 c -7e-6,-0.49375 -0.144914,-0.8748 -0.434722,-1.14315 -0.279087,-0.27908 -0.681606,-0.41862 -1.207561,-0.41862 -0.772843,0 -1.449076,0.37569 -2.028702,1.12705 l 0,5.8929 c -3e-6,0.23614 -0.21468,0.35422 -0.644033,0.35422 l -0.0644,0 c -0.429356,0 -0.644034,-0.11808 -0.644032,-0.35422"
         style="fill:#374837;font-family:Asap;-inkscape-font-specification:Asap"
         id="path4181"
         inkscape:connector-curvature="0" />
      <path
         d="m 89.286455,912.63553 c -10e-7,-0.80503 0.107338,-1.49737 0.322016,-2.077 0.22541,-0.57963 0.525959,-1.02508 0.901646,-1.33637 0.708433,-0.56889 1.572509,-0.85333 2.59223,-0.85334 0.62256,10e-6 1.180721,0.0751 1.674485,0.22541 0.493751,0.15028 0.74063,0.32202 0.740637,0.51522 -7e-6,0.13955 -0.06441,0.32203 -0.19321,0.54743 -0.118079,0.21469 -0.225418,0.32202 -0.322016,0.32202 -0.01074,0 -0.03221,-0.005 -0.0644,-0.0161 -0.02147,-0.0107 -0.04294,-0.0161 -0.0644,-0.0161 -0.01074,-0.0107 -0.02684,-0.0215 -0.0483,-0.0322 -0.579635,-0.2576 -1.16463,-0.38641 -1.754988,-0.38642 -1.556415,10e-6 -2.33462,1.0251 -2.334618,3.07526 -2e-6,1.13779 0.187841,1.95893 0.563529,2.46342 0.386416,0.5045 1.030448,0.75674 1.932097,0.75674 0.654761,0 1.261224,-0.13954 1.819392,-0.41862 0.0322,-0.0107 0.0644,-0.0215 0.0966,-0.0322 0.04293,-0.0215 0.06976,-0.0322 0.0805,-0.0322 0.107332,0 0.225405,0.10734 0.354218,0.32201 0.1288,0.20395 0.193203,0.37032 0.19321,0.49913 -7e-6,0.19321 -0.252253,0.38105 -0.756738,0.56353 -0.504498,0.17174 -1.094861,0.25761 -1.771089,0.25761 -1.331004,0 -2.323886,-0.34348 -2.97865,-1.03045 -0.654768,-0.68697 -0.982151,-1.79256 -0.98215,-3.31677"
         style="fill:#374837;font-family:Asap;-inkscape-font-specification:Asap"
         id="path4183"
         inkscape:connector-curvature="0" />
      <path
         d="m 97.599756,914.76084 0,-9.62829 c -10e-7,-0.23613 0.214676,-0.3542 0.644032,-0.35421 l 0.0644,0 c 0.429352,1e-5 0.644029,0.11808 0.644032,0.35421 l 0,9.49948 c -3e-6,0.79431 0.289812,1.19146 0.869444,1.19146 0.182476,0 0.338116,-0.0107 0.466926,-0.0322 0.1288,-0.0322 0.20394,-0.0483 0.22541,-0.0483 0.0966,0 0.17711,0.10197 0.24151,0.30591 0.0644,0.19321 0.0966,0.34349 0.0966,0.45083 0,0.32201 -0.39179,0.48302 -1.175363,0.48302 -0.536697,0 -1.019721,-0.16101 -1.449073,-0.48302 -0.418623,-0.33275 -0.627933,-0.91238 -0.627932,-1.73889"
         style="fill:#374837;font-family:Asap;-inkscape-font-specification:Asap"
         id="path4185"
         inkscape:connector-curvature="0" />
      <path
         d="m 102.26698,914.37442 0,-5.58698 c 0,-0.23614 0.21467,-0.35421 0.64403,-0.35422 l 0.0644,0 c 0.42936,10e-6 0.64403,0.11808 0.64404,0.35422 l 0,5.45817 c -1e-5,0.49376 0.13953,0.88018 0.41862,1.15926 0.28981,0.26835 0.6977,0.40252 1.22366,0.40252 0.77283,0 1.44907,-0.37568 2.0287,-1.12706 l 0,-5.89289 c 0,-0.23614 0.21467,-0.35421 0.64403,-0.35422 l 0.0644,0 c 0.42934,10e-6 0.64402,0.11808 0.64403,0.35422 l 0,5.71579 c -10e-6,0.64403 0.0268,1.11095 0.0805,1.40077 0.0751,0.39715 0.1127,0.60646 0.11271,0.62793 -1e-5,0.1288 -0.10198,0.22541 -0.30592,0.28981 -0.20395,0.0537 -0.36495,0.0805 -0.48302,0.0805 -0.10735,0 -0.18248,-0.0107 -0.22541,-0.0322 -0.0429,-0.0215 -0.0859,-0.059 -0.12881,-0.1127 -0.0322,-0.0537 -0.059,-0.10197 -0.0805,-0.14491 -0.0215,-0.0537 -0.0429,-0.12344 -0.0644,-0.20931 -0.0215,-0.0859 -0.0429,-0.15027 -0.0644,-0.19321 -0.0107,-0.0537 -0.0268,-0.1288 -0.0483,-0.22541 -0.0107,-0.10734 -0.0215,-0.17711 -0.0322,-0.20931 -0.71918,0.80504 -1.52422,1.20756 -2.41512,1.20756 -0.88019,0 -1.55642,-0.23078 -2.02871,-0.69233 -0.46155,-0.46156 -0.69233,-1.10022 -0.69233,-1.916"
         style="fill:#374837;font-family:Asap;-inkscape-font-specification:Asap"
         id="path4187"
         inkscape:connector-curvature="0" />
      <path
         d="m 116.54261,915.77519 c -0.77284,0.80504 -1.63155,1.20756 -2.57613,1.20756 -0.94458,0 -1.70132,-0.39715 -2.27021,-1.19146 -0.55817,-0.7943 -0.83725,-1.81402 -0.83725,-3.05915 l 0,-0.14491 c 0,-1.32026 0.30055,-2.35071 0.90165,-3.09136 0.60109,-0.75136 1.35246,-1.12704 2.25411,-1.12705 0.90164,10e-6 1.70668,0.27372 2.41512,0.82114 l 0,-4.05741 c 0,-0.23613 0.21468,-0.3542 0.64404,-0.35421 l 0.0644,0 c 0.42935,1e-5 0.64403,0.11808 0.64403,0.35421 l 0,9.37068 c 0,0.64403 0.0268,1.11095 0.0805,1.40077 0.0751,0.39715 0.11269,0.60646 0.1127,0.62793 -1e-5,0.1288 -0.10198,0.22541 -0.30591,0.28981 -0.20395,0.0537 -0.36496,0.0805 -0.48303,0.0805 -0.10734,0 -0.18248,-0.0107 -0.22541,-0.0322 -0.0429,-0.0215 -0.0859,-0.059 -0.12881,-0.1127 -0.0322,-0.0537 -0.059,-0.10197 -0.0805,-0.14491 -0.0215,-0.0537 -0.0429,-0.12344 -0.0644,-0.20931 -0.0215,-0.0859 -0.0429,-0.15027 -0.0644,-0.19321 -0.0107,-0.0537 -0.0268,-0.1288 -0.0483,-0.22541 -0.0107,-0.10734 -0.0215,-0.17711 -0.0322,-0.20931 m -4.26671,-3.22016 c -10e-6,2.16824 0.69769,3.25236 2.0931,3.25236 0.6977,0 1.38466,-0.37032 2.0609,-1.11095 l 0,-4.41163 c -0.57963,-0.48301 -1.22903,-0.72453 -1.94819,-0.72453 l -0.0966,0 c -0.68697,0.0107 -1.21293,0.27372 -1.57788,0.78894 -0.35422,0.51523 -0.53133,1.2505 -0.53132,2.20581"
         style="fill:#374837;font-family:Asap;-inkscape-font-specification:Asap"
         id="path4189"
         inkscape:connector-curvature="0" />
      <path
         d="m 123.97163,916.98275 c -1.34174,0 -2.33462,-0.34885 -2.97865,-1.04655 -0.64404,-0.6977 -0.96605,-1.76035 -0.96605,-3.18796 0,-1.43834 0.31665,-2.52782 0.94995,-3.26847 0.63329,-0.74063 1.53494,-1.11094 2.70493,-1.11095 2.27558,10e-6 3.41337,1.40077 3.41337,4.20231 0,0.0966 -0.0644,0.23078 -0.1932,0.40252 -0.12882,0.17174 -0.24152,0.25762 -0.33812,0.25761 l -5.08786,0 c 0.0644,0.89092 0.29518,1.54568 0.69234,1.9643 0.39715,0.41862 0.99288,0.62793 1.78719,0.62793 0.72989,0 1.40076,-0.17174 2.0126,-0.51522 0.20393,-0.10734 0.31664,-0.16101 0.33812,-0.16101 0.10733,0 0.2254,0.10734 0.35421,0.32201 0.13954,0.21468 0.20931,0.37569 0.20931,0.48303 0,0.21468 -0.29519,0.44009 -0.88554,0.67623 -0.57964,0.23615 -1.2505,0.35422 -2.0126,0.35422 m 1.69058,-4.91075 c 0,-1.69594 -0.64404,-2.54392 -1.93209,-2.54393 -1.38468,1e-5 -2.13605,0.84799 -2.25412,2.54393 l 4.18621,0"
         style="fill:#374837;font-family:Asap;-inkscape-font-specification:Asap"
         id="path4191"
         inkscape:connector-curvature="0" />
      <path
         d="m 132.34883,913.36007 0,-0.27372 c 0,-0.2576 0.13417,-0.44545 0.40252,-0.56352 l 6.61743,-2.80155 c 0.0751,-0.0322 0.15564,-0.0483 0.24152,-0.0483 0.2254,10e-6 0.33811,0.13955 0.33811,0.41862 l 0,0.22541 c 0,0.27909 -0.12881,0.46693 -0.38642,0.56353 l -5.73188,2.33462 5.73188,2.35072 c 0.25761,0.10734 0.38642,0.29518 0.38642,0.56353 l 0,0.22541 c 0,0.27908 -0.11271,0.41862 -0.33811,0.41862 -0.0859,0 -0.16639,-0.0161 -0.24152,-0.0483 l -6.61743,-2.80154 c -0.26835,-0.11807 -0.40252,-0.30592 -0.40252,-0.56353"
         style="fill:#374837;font-family:Asap;-inkscape-font-specification:Asap"
         id="path4193"
         inkscape:connector-curvature="0" />
      <path
         d="m 141.27748,916.0167 c 0,-0.10734 0.0644,-0.26834 0.19321,-0.48302 0.13954,-0.21468 0.26298,-0.32202 0.37032,-0.32202 0.0107,0 0.0966,0.0537 0.25761,0.16101 0.16101,0.0966 0.39179,0.19858 0.69234,0.30591 0.30054,0.0966 0.66013,0.14491 1.07875,0.14491 0.42935,0 0.7782,-0.11807 1.04655,-0.35422 0.27908,-0.24687 0.41862,-0.57426 0.41862,-0.98215 0,-0.41861 -0.12344,-0.74063 -0.37031,-0.96604 -0.23615,-0.23615 -0.71381,-0.45619 -1.43298,-0.66014 -0.71917,-0.20394 -1.23976,-0.46155 -1.56178,-0.77284 -0.32201,-0.32201 -0.48302,-0.80503 -0.48302,-1.44907 0,-0.64402 0.24688,-1.18072 0.74064,-1.61008 0.49375,-0.44008 1.13779,-0.66012 1.93209,-0.66013 0.54743,10e-6 1.03582,0.0698 1.46518,0.20931 0.42935,0.13955 0.64403,0.29519 0.64403,0.46692 0,0.13955 -0.0644,0.32202 -0.19321,0.54743 -0.11808,0.21468 -0.22542,0.32202 -0.32202,0.32201 -0.0107,10e-6 -0.0805,-0.0322 -0.20931,-0.0966 -0.36495,-0.1932 -0.77821,-0.28981 -1.23976,-0.28982 -0.45082,1e-5 -0.80504,0.0966 -1.06265,0.28982 -0.24688,0.18248 -0.37032,0.42399 -0.37032,0.72454 0,0.30055 0.0912,0.5367 0.27371,0.70843 0.19321,0.17175 0.51523,0.32739 0.96605,0.46693 1.00898,0.31128 1.69058,0.65477 2.04481,1.03045 0.36494,0.36495 0.54742,0.92311 0.54742,1.67448 0,0.74064 -0.26835,1.35247 -0.80504,1.83549 -0.52596,0.48303 -1.15926,0.72454 -1.89989,0.72454 -0.74064,0 -1.37931,-0.10734 -1.916,-0.32202 -0.53669,-0.22541 -0.80504,-0.44008 -0.80504,-0.64403"
         style="fill:#374837;font-family:Asap;-inkscape-font-specification:Asap"
         id="path4195"
         inkscape:connector-curvature="0" />
      <path
         d="m 149.07204,914.76084 0,-5.13616 -0.80504,0 c -0.21468,10e-6 -0.32202,-0.161 -0.32202,-0.48302 l 0,-0.19321 c 0,-0.32201 0.10734,-0.48302 0.32202,-0.48303 l 0.80504,0 0.19321,-1.69058 c 0.0215,-0.23614 0.1932,-0.35421 0.51522,-0.35422 l 0.16101,0 c 0.32201,10e-6 0.48302,0.11808 0.48303,0.35422 l 0,1.69058 1.35246,0 c 0.21468,10e-6 0.32202,0.16102 0.32202,0.48303 l 0,0.19321 c 0,0.32202 -0.10734,0.48303 -0.32202,0.48302 l -1.35246,0 0,5.00735 c -1e-5,0.79431 0.28981,1.19146 0.86944,1.19146 0.18247,0 0.33811,-0.0107 0.46692,-0.0322 0.1288,-0.0322 0.20394,-0.0483 0.22541,-0.0483 0.0966,0 0.17711,0.10197 0.24152,0.30591 0.0644,0.19321 0.0966,0.34349 0.0966,0.45083 0,0.32201 -0.39179,0.48302 -1.17536,0.48302 -0.53669,0 -1.01972,-0.16101 -1.44907,-0.48302 -0.41862,-0.33275 -0.62793,-0.91238 -0.62793,-1.73889"
         style="fill:#374837;font-family:Asap;-inkscape-font-specification:Asap"
         id="path4197"
         inkscape:connector-curvature="0" />
      <path
         d="m 159.37328,915.77519 c -0.77284,0.80504 -1.63155,1.20756 -2.57613,1.20756 -0.94458,0 -1.70132,-0.39715 -2.27021,-1.19146 -0.55816,-0.7943 -0.83724,-1.81402 -0.83724,-3.05915 l 0,-0.14491 c 0,-1.32026 0.30054,-2.35071 0.90164,-3.09136 0.6011,-0.75136 1.35247,-1.12704 2.25412,-1.12705 0.90164,10e-6 1.70668,0.27372 2.41512,0.82114 l 0,-4.05741 c -1e-5,-0.23613 0.21467,-0.3542 0.64403,-0.35421 l 0.0644,0 c 0.42935,1e-5 0.64403,0.11808 0.64404,0.35421 l 0,9.37068 c -10e-6,0.64403 0.0268,1.11095 0.0805,1.40077 0.0751,0.39715 0.1127,0.60646 0.11271,0.62793 -1e-5,0.1288 -0.10198,0.22541 -0.30592,0.28981 -0.20395,0.0537 -0.36496,0.0805 -0.48302,0.0805 -0.10735,0 -0.18249,-0.0107 -0.22542,-0.0322 -0.0429,-0.0215 -0.0859,-0.059 -0.1288,-0.1127 -0.0322,-0.0537 -0.059,-0.10197 -0.0805,-0.14491 -0.0215,-0.0537 -0.0429,-0.12344 -0.0644,-0.20931 -0.0215,-0.0859 -0.0429,-0.15027 -0.0644,-0.19321 -0.0107,-0.0537 -0.0268,-0.1288 -0.0483,-0.22541 -0.0107,-0.10734 -0.0215,-0.17711 -0.0322,-0.20931 m -4.26671,-3.22016 c 0,2.16824 0.6977,3.25236 2.0931,3.25236 0.6977,0 1.38467,-0.37032 2.06091,-1.11095 l 0,-4.41163 c -0.57964,-0.48301 -1.22904,-0.72453 -1.9482,-0.72453 l -0.0966,0 c -0.68697,0.0107 -1.21293,0.27372 -1.57787,0.78894 -0.35422,0.51523 -0.53133,1.2505 -0.53133,2.20581"
         style="fill:#374837;font-family:Asap;-inkscape-font-specification:Asap"
         id="path4199"
         inkscape:connector-curvature="0" />
      <path
         d="m 163.29232,914.76084 0,-9.62829 c 0,-0.23613 0.21468,-0.3542 0.64403,-0.35421 l 0.0644,0 c 0.42935,1e-5 0.64403,0.11808 0.64403,0.35421 l 0,9.49948 c 0,0.79431 0.28981,1.19146 0.86944,1.19146 0.18247,0 0.33812,-0.0107 0.46693,-0.0322 0.1288,-0.0322 0.20393,-0.0483 0.22541,-0.0483 0.0966,0 0.1771,0.10197 0.24151,0.30591 0.0644,0.19321 0.0966,0.34349 0.0966,0.45083 0,0.32201 -0.39179,0.48302 -1.17536,0.48302 -0.53669,0 -1.01972,-0.16101 -1.44907,-0.48302 -0.41862,-0.33275 -0.62793,-0.91238 -0.62793,-1.73889"
         style="fill:#374837;font-family:Asap;-inkscape-font-specification:Asap"
         id="path4201"
         inkscape:connector-curvature="0" />
      <path
         d="m 168.79679,906.43672 c -0.42936,10e-6 -0.64404,-0.11806 -0.64404,-0.35422 l 0,-0.94995 c 0,-0.23613 0.21468,-0.3542 0.64404,-0.35421 l 0.19321,0 c 0.42935,1e-5 0.64403,0.11808 0.64403,0.35421 l 0,0.94995 c 0,0.23616 -0.21468,0.35423 -0.64403,0.35422 l -0.19321,0 m -0.57963,10.12741 0,-7.77669 c 0,-0.23614 0.21467,-0.35421 0.64403,-0.35422 l 0.0644,0 c 0.42936,10e-6 0.64403,0.11808 0.64404,0.35422 l 0,7.77669 c -1e-5,0.23614 -0.21468,0.35422 -0.64404,0.35422 l -0.0644,0 c -0.42936,0 -0.64403,-0.11808 -0.64403,-0.35422"
         style="fill:#374837;font-family:Asap;-inkscape-font-specification:Asap"
         id="path4203"
         inkscape:connector-curvature="0" />
      <path
         d="m 172.39733,916.56413 0,-11.43158 c 0,-0.23613 0.21468,-0.3542 0.64403,-0.35421 l 0.0644,0 c 0.42935,1e-5 0.64403,0.11808 0.64403,0.35421 l 0,4.05741 c 0.70843,-0.54742 1.51347,-0.82113 2.41512,-0.82114 0.90164,10e-6 1.65301,0.37569 2.25412,1.12705 0.60108,0.74065 0.90163,1.7711 0.90164,3.09136 l 0,0.14491 c -1e-5,1.24513 -0.28446,2.26485 -0.85334,3.05915 -0.55817,0.79431 -1.30954,1.19146 -2.25412,1.19146 -0.94458,0 -1.80329,-0.40252 -2.57613,-1.20756 l -0.25761,0.94995 c -0.0537,0.1288 -0.19858,0.19321 -0.43472,0.19321 l -0.0644,0 c -0.32202,0 -0.48303,-0.11808 -0.48303,-0.35422 m 1.35247,-1.86769 c 0.67623,0.74063 1.36856,1.11095 2.077,1.11095 1.38467,0 2.077,-1.08412 2.07701,-3.25236 -1e-5,-0.95531 -0.18248,-1.69058 -0.54743,-2.20581 -0.35422,-0.51522 -0.87481,-0.7782 -1.56178,-0.78894 l -0.0966,0 c -0.71918,0 -1.36857,0.24152 -1.9482,0.72453 l 0,4.41163"
         style="fill:#374837;font-family:Asap;-inkscape-font-specification:Asap"
         id="path4205"
         inkscape:connector-curvature="0" />
      <path
         d="m 181.0324,916.56413 0,-1.06265 c 0,-0.23615 0.21468,-0.35422 0.64403,-0.35422 l 0.27372,0 c 0.42935,0 0.64403,0.11807 0.64403,0.35422 l 0,1.06265 c 0,0.23614 -0.21468,0.35422 -0.64403,0.35422 l -0.27372,0 c -0.42935,0 -0.64403,-0.11808 -0.64403,-0.35422"
         style="fill:#374837;font-family:Asap;-inkscape-font-specification:Asap"
         id="path4207"
         inkscape:connector-curvature="0" />
      <path
         d="m 184.90011,916.56413 0,-11.43158 c 0,-0.23613 0.21468,-0.3542 0.64404,-0.35421 l 0.0644,0 c 0.42935,1e-5 0.64403,0.11808 0.64403,0.35421 l 0,4.34722 c 0.74063,-0.74063 1.56178,-1.11094 2.46343,-1.11095 0.61182,10e-6 1.16461,0.15565 1.65838,0.46692 0.26834,0.18248 0.48302,0.4562 0.64403,0.82114 0.17174,0.36496 0.25761,0.80505 0.25761,1.32027 l 0,5.58698 c 0,0.23614 -0.21468,0.35422 -0.64403,0.35422 l -0.0644,0 c -0.42936,0 -0.64404,-0.11808 -0.64403,-0.35422 l 0,-5.45818 c -1e-5,-0.48301 -0.13955,-0.86407 -0.41862,-1.14315 -0.27909,-0.27908 -0.64404,-0.41862 -1.09486,-0.41862 -0.44009,0 -0.83188,0.0966 -1.17536,0.28981 -0.33275,0.18248 -0.57963,0.36496 -0.74064,0.54743 l -0.24151,0.28981 0,5.8929 c 0,0.23614 -0.21468,0.35422 -0.64403,0.35422 l -0.0644,0 c -0.42936,0 -0.64404,-0.11808 -0.64404,-0.35422"
         style="fill:#374837;font-family:Asap;-inkscape-font-specification:Asap"
         id="path4209"
         inkscape:connector-curvature="0" />
      <path
         d="m 193.24763,916.37092 0,-0.22541 c 0,-0.25761 0.12881,-0.44546 0.38642,-0.56353 l 5.73189,-2.35072 -5.73189,-2.33462 c -0.25761,-0.0966 -0.38642,-0.28444 -0.38642,-0.56352 l 0,-0.22542 c 0,-0.27907 0.11271,-0.41861 0.33812,-0.41862 0.0751,10e-6 0.15564,0.0161 0.24151,0.0483 l 6.61744,2.80154 c 0.26833,0.11807 0.40251,0.30592 0.40252,0.56353 l 0,0.27371 c -1e-5,0.25762 -0.13419,0.44546 -0.40252,0.56353 l -6.61744,2.80154 c -0.0859,0.0322 -0.16637,0.0483 -0.24151,0.0483 -0.22541,0 -0.33812,-0.13954 -0.33812,-0.41862"
         style="fill:#374837;font-family:Asap;-inkscape-font-specification:Asap"
         id="path4211"
         inkscape:connector-curvature="0" />
      <path
         d="m 72.035694,925.69329 0.0644,0 c 0.257607,10e-6 0.386413,0.10735 0.386419,0.32202 -6e-6,0.0751 -0.01611,0.15565 -0.0483,0.24151 l -4.991252,11.60868 c -0.107339,0.24688 -0.284448,0.37032 -0.531326,0.37032 l -0.0644,0 c -0.27908,0 -0.418621,-0.10734 -0.418621,-0.32202 0,-0.0859 0.0161,-0.16637 0.0483,-0.24151 l 4.991251,-11.60868 c 0.107334,-0.24687 0.295176,-0.37031 0.563528,-0.37032"
         style="fill:#374837;font-family:Asap;-inkscape-font-specification:Asap"
         id="path4213"
         inkscape:connector-curvature="0" />
      <path
         d="m 78.010605,925.69329 0.0644,0 c 0.257607,10e-6 0.386413,0.10735 0.386419,0.32202 -6e-6,0.0751 -0.01611,0.15565 -0.0483,0.24151 l -4.991251,11.60868 c -0.10734,0.24688 -0.284449,0.37032 -0.531327,0.37032 l -0.0644,0 c -0.279081,0 -0.418621,-0.10734 -0.418622,-0.32202 1e-6,-0.0859 0.0161,-0.16637 0.0483,-0.24151 l 4.991251,-11.60868 c 0.107334,-0.24687 0.295177,-0.37031 0.563529,-0.37032"
         style="fill:#374837;font-family:Asap;-inkscape-font-specification:Asap"
         id="path4215"
         inkscape:connector-curvature="0" />
      <path
         d="m 83.973188,936.69014 0,-10.62653 c -2e-6,-0.23614 0.214676,-0.35421 0.644032,-0.35422 l 0.128807,0 c 0.429352,10e-6 0.644029,0.11808 0.644032,0.35422 l 0,4.55653 5.828494,0 0,-4.55653 c -9e-6,-0.23614 0.214668,-0.35421 0.644032,-0.35422 l 0.128807,0 c 0.429345,10e-6 0.644022,0.11808 0.644032,0.35422 l 0,10.62653 c -1e-5,0.23615 -0.214687,0.35422 -0.644032,0.35422 l -0.128807,0 c -0.429364,0 -0.644041,-0.11807 -0.644032,-0.35422 l 0,-4.84634 -5.828494,0 0,4.84634 c -3e-6,0.23615 -0.21468,0.35422 -0.644032,0.35422 l -0.128807,0 c -0.429356,0 -0.644034,-0.11807 -0.644032,-0.35422"
         style="fill:#374837;font-family:Asap;-inkscape-font-specification:Asap"
         id="path4217"
         inkscape:connector-curvature="0" />
      <path
         d="m 95.411556,934.50043 0,-5.58698 c -2e-6,-0.23614 0.214676,-0.35421 0.644032,-0.35422 l 0.0644,0 c 0.429353,1e-5 0.64403,0.11808 0.644033,0.35422 l 0,5.45818 c -3e-6,0.49376 0.139537,0.88018 0.418621,1.15925 0.289811,0.26835 0.697698,0.40253 1.223661,0.40253 0.772834,0 1.449068,-0.37569 2.028707,-1.12706 l 0,-5.8929 c -1e-5,-0.23614 0.21467,-0.35421 0.64403,-0.35422 l 0.0644,0 c 0.42935,1e-5 0.64403,0.11808 0.64404,0.35422 l 0,5.71579 c -1e-5,0.64403 0.0268,1.11096 0.0805,1.40077 0.0751,0.39715 0.1127,0.60646 0.11271,0.62793 -10e-6,0.12881 -0.10198,0.22541 -0.30592,0.28982 -0.20395,0.0537 -0.36496,0.0805 -0.48302,0.0805 -0.10735,0 -0.18249,-0.0107 -0.22541,-0.0322 -0.043,-0.0215 -0.0859,-0.059 -0.12881,-0.11271 -0.0322,-0.0537 -0.059,-0.10197 -0.0805,-0.1449 -0.0215,-0.0537 -0.0429,-0.12344 -0.0644,-0.20931 -0.0215,-0.0859 -0.0429,-0.15028 -0.0644,-0.19321 -0.0107,-0.0537 -0.0268,-0.12881 -0.0483,-0.22542 -0.0107,-0.10733 -0.0215,-0.1771 -0.0322,-0.20931 -0.719174,0.80504 -1.524214,1.20756 -2.41512,1.20756 -0.880181,0 -1.556414,-0.23077 -2.028703,-0.69233 -0.461558,-0.46156 -0.692336,-1.10022 -0.692334,-1.916"
         style="fill:#374837;font-family:Asap;-inkscape-font-specification:Asap"
         id="path4219"
         inkscape:connector-curvature="0" />
      <path
         d="m 109.30077,931.76329 0,-0.75673 c -1e-5,-0.90164 -0.59037,-1.35246 -1.77109,-1.35247 -0.77284,10e-6 -1.48665,0.16638 -2.14141,0.49912 -0.22541,0.11808 -0.34885,0.17712 -0.37032,0.17711 -0.10734,10e-6 -0.23078,-0.10733 -0.37032,-0.32201 -0.1288,-0.21467 -0.19321,-0.37568 -0.19321,-0.48303 0,-0.2254 0.31128,-0.45081 0.93385,-0.67623 0.6333,-0.23614 1.39003,-0.35421 2.27022,-0.35422 0.88017,10e-6 1.59934,0.22542 2.1575,0.67623 0.55816,0.4401 0.83724,1.0573 0.83725,1.8516 l 0,3.60658 c -1e-5,0.64403 0.0268,1.11096 0.0805,1.40077 0.0751,0.39715 0.1127,0.60646 0.11271,0.62793 -1e-5,0.12881 -0.10198,0.22541 -0.30592,0.28982 -0.20395,0.0537 -0.36496,0.0805 -0.48302,0.0805 -0.10735,0 -0.18249,-0.0107 -0.22542,-0.0322 -0.0429,-0.0215 -0.0859,-0.059 -0.1288,-0.11271 -0.0322,-0.0537 -0.059,-0.10197 -0.0805,-0.1449 -0.0215,-0.0537 -0.0429,-0.12344 -0.0644,-0.20931 -0.0215,-0.0859 -0.0429,-0.15028 -0.0644,-0.19321 -0.0107,-0.0537 -0.0268,-0.12881 -0.0483,-0.22542 -0.0107,-0.10733 -0.0215,-0.1771 -0.0322,-0.20931 -0.72991,0.80504 -1.63155,1.20756 -2.70493,1.20756 -0.82651,0 -1.49201,-0.20394 -1.9965,-0.61183 -0.5045,-0.40788 -0.75674,-1.03581 -0.75674,-1.88379 0,-0.84797 0.28981,-1.48127 0.86944,-1.8999 0.59036,-0.42935 1.2505,-0.68696 1.9804,-0.77284 0.7299,-0.0966 1.56178,-0.15563 2.49563,-0.17711 m -3.8964,2.84985 c 0,0.88018 0.45619,1.32027 1.36857,1.32027 0.52596,0 0.97678,-0.0966 1.35247,-0.28982 0.38641,-0.19321 0.7782,-0.46692 1.17536,-0.82114 l 0,-1.8999 c -1.34174,10e-6 -2.20582,0.0751 -2.59223,0.22541 -0.20395,0.0752 -0.41863,0.17175 -0.64404,0.28982 -0.44009,0.22541 -0.66013,0.6172 -0.66013,1.17536"
         style="fill:#374837;font-family:Asap;-inkscape-font-specification:Asap"
         id="path4221"
         inkscape:connector-curvature="0" />
      <path
         d="m 112.22986,928.83295 c 0,-0.18247 0.23078,-0.27371 0.69233,-0.27372 l 0.12881,0 c 0.35422,1e-5 0.56889,0.0859 0.64403,0.25762 l 2.18971,5.81239 2.14141,-5.81239 c 0.0537,-0.17174 0.28981,-0.25761 0.70844,-0.25762 0.42934,1e-5 0.64402,0.0913 0.64403,0.27372 -1e-5,0.0537 -0.0161,0.12881 -0.0483,0.22541 l -4.13791,10.96465 c -0.0859,0.22541 -0.33812,0.33811 -0.75674,0.33812 l -0.24151,0 c -0.35422,-10e-6 -0.53133,-0.0859 -0.53133,-0.25761 0,-0.0322 0.47766,-1.21293 1.43297,-3.54218 l -2.81764,-7.51908 c -0.0322,-0.0966 -0.0483,-0.16637 -0.0483,-0.20931"
         style="fill:#374837;font-family:Asap;-inkscape-font-specification:Asap"
         id="path4223"
         inkscape:connector-curvature="0" />
      <path
         d="m 121.12506,936.69014 0,-5.65138 c -1e-5,-0.65476 -0.0268,-1.12168 -0.0805,-1.40077 -0.0751,-0.38641 -0.1127,-0.59572 -0.1127,-0.62793 0,-0.1288 0.10197,-0.22004 0.30591,-0.27372 0.20394,-0.0644 0.35958,-0.0966 0.46693,-0.0966 0.11807,1e-5 0.19857,0.0107 0.24151,0.0322 0.0429,0.0215 0.0805,0.059 0.1127,0.1127 0.0429,0.043 0.0751,0.0913 0.0966,0.14491 0.0215,0.043 0.0429,0.10735 0.0644,0.19321 0.0215,0.0752 0.0376,0.13955 0.0483,0.19321 0.0215,0.0429 0.0376,0.11271 0.0483,0.20931 0.0215,0.0859 0.0376,0.14492 0.0483,0.17711 0.56889,-0.80503 1.19146,-1.20755 1.86769,-1.20756 0.30055,10e-6 0.53132,0.0591 0.69234,0.17711 0.161,0.11808 0.2415,0.26835 0.24151,0.45082 -10e-6,0.18249 -0.0322,0.3757 -0.0966,0.57963 -0.0644,0.19322 -0.13955,0.28982 -0.22542,0.28982 -0.0429,0 -0.15028,-0.0268 -0.32201,-0.0805 -0.16102,-0.0644 -0.35959,-0.0966 -0.59573,-0.0966 -0.22542,0 -0.46156,0.0859 -0.70844,0.25761 -0.24688,0.16101 -0.42936,0.32202 -0.54743,0.48302 l -0.19321,0.24152 0,5.89289 c 0,0.23615 -0.21468,0.35422 -0.64403,0.35422 l -0.0644,0 c -0.42936,0 -0.64404,-0.11807 -0.64403,-0.35422"
         style="fill:#374837;font-family:Asap;-inkscape-font-specification:Asap"
         id="path4225"
         inkscape:connector-curvature="0" />
      <path
         d="m 131.72241,931.76329 0,-0.75673 c -1e-5,-0.90164 -0.59037,-1.35246 -1.77109,-1.35247 -0.77285,10e-6 -1.48665,0.16638 -2.14141,0.49912 -0.22541,0.11808 -0.34885,0.17712 -0.37032,0.17711 -0.10734,10e-6 -0.23078,-0.10733 -0.37032,-0.32201 -0.12881,-0.21467 -0.19321,-0.37568 -0.19321,-0.48303 0,-0.2254 0.31128,-0.45081 0.93385,-0.67623 0.6333,-0.23614 1.39003,-0.35421 2.27021,-0.35422 0.88018,10e-6 1.59934,0.22542 2.15751,0.67623 0.55816,0.4401 0.83724,1.0573 0.83724,1.8516 l 0,3.60658 c 0,0.64403 0.0268,1.11096 0.0805,1.40077 0.0751,0.39715 0.1127,0.60646 0.1127,0.62793 0,0.12881 -0.10198,0.22541 -0.30591,0.28982 -0.20395,0.0537 -0.36496,0.0805 -0.48303,0.0805 -0.10734,0 -0.18248,-0.0107 -0.22541,-0.0322 -0.0429,-0.0215 -0.0859,-0.059 -0.1288,-0.11271 -0.0322,-0.0537 -0.0591,-0.10197 -0.0805,-0.1449 -0.0215,-0.0537 -0.0429,-0.12344 -0.0644,-0.20931 -0.0215,-0.0859 -0.0429,-0.15028 -0.0644,-0.19321 -0.0107,-0.0537 -0.0268,-0.12881 -0.0483,-0.22542 -0.0107,-0.10733 -0.0215,-0.1771 -0.0322,-0.20931 -0.72991,0.80504 -1.63155,1.20756 -2.70493,1.20756 -0.82652,0 -1.49201,-0.20394 -1.9965,-0.61183 -0.5045,-0.40788 -0.75674,-1.03581 -0.75674,-1.88379 0,-0.84797 0.28981,-1.48127 0.86944,-1.8999 0.59036,-0.42935 1.25049,-0.68696 1.9804,-0.77284 0.7299,-0.0966 1.56177,-0.15563 2.49563,-0.17711 m -3.8964,2.84985 c 0,0.88018 0.45619,1.32027 1.36857,1.32027 0.52595,0 0.97678,-0.0966 1.35247,-0.28982 0.38641,-0.19321 0.7782,-0.46692 1.17536,-0.82114 l 0,-1.8999 c -1.34174,10e-6 -2.20582,0.0751 -2.59223,0.22541 -0.20395,0.0752 -0.41863,0.17175 -0.64404,0.28982 -0.44009,0.22541 -0.66013,0.6172 -0.66013,1.17536"
         style="fill:#374837;font-family:Asap;-inkscape-font-specification:Asap"
         id="path4227"
         inkscape:connector-curvature="0" />
      <path
         d="m 143.0599,937.10876 c -1.34174,0 -2.33462,-0.34885 -2.97865,-1.04655 -0.64404,-0.6977 -0.96605,-1.76035 -0.96605,-3.18796 0,-1.43833 0.31665,-2.52782 0.94994,-3.26846 0.6333,-0.74063 1.53495,-1.11095 2.70494,-1.11096 2.27558,10e-6 3.41337,1.40078 3.41337,4.20231 0,0.0966 -0.0644,0.23078 -0.19321,0.40252 -0.12881,0.17175 -0.24152,0.25762 -0.33811,0.25762 l -5.08786,0 c 0.0644,0.89091 0.29518,1.54568 0.69233,1.96429 0.39715,0.41863 0.99288,0.62794 1.78719,0.62794 0.7299,0 1.40077,-0.17174 2.01261,-0.51523 0.20393,-0.10734 0.31664,-0.16101 0.33811,-0.16101 0.10733,0 0.22541,0.10734 0.35422,0.32202 0.13953,0.21468 0.2093,0.37568 0.20931,0.48302 -1e-5,0.21468 -0.29519,0.44009 -0.88554,0.67624 -0.57964,0.23614 -1.2505,0.35421 -2.0126,0.35421 m 1.69058,-4.91074 c -1e-5,-1.69595 -0.64404,-2.54392 -1.9321,-2.54393 -1.38467,10e-6 -2.13604,0.84798 -2.25411,2.54393 l 4.18621,0"
         style="fill:#374837;font-family:Asap;-inkscape-font-specification:Asap"
         id="path4229"
         inkscape:connector-curvature="0" />
      <path
         d="m 147.47252,936.14272 c 0,-0.10734 0.0644,-0.26835 0.19321,-0.48303 0.13954,-0.21467 0.26298,-0.32201 0.37032,-0.32201 0.0107,0 0.0966,0.0537 0.25762,0.161 0.161,0.0966 0.39178,0.19858 0.69233,0.30592 0.30055,0.0966 0.66013,0.14491 1.07876,0.14491 0.42935,0 0.7782,-0.11808 1.04655,-0.35422 0.27907,-0.24688 0.41861,-0.57426 0.41862,-0.98215 -1e-5,-0.41862 -0.12344,-0.74064 -0.37032,-0.96605 -0.23615,-0.23614 -0.71381,-0.45619 -1.43297,-0.66013 -0.71917,-0.20394 -1.23977,-0.46156 -1.56178,-0.77284 -0.32202,-0.32201 -0.48303,-0.80504 -0.48302,-1.44908 -1e-5,-0.64402 0.24687,-1.18071 0.74063,-1.61008 0.49376,-0.44008 1.13779,-0.66012 1.9321,-0.66013 0.54742,10e-6 1.03581,0.0698 1.46517,0.20931 0.42935,0.13955 0.64403,0.29519 0.64404,0.46692 -1e-5,0.13955 -0.0644,0.32203 -0.19321,0.54743 -0.11808,0.21469 -0.22542,0.32203 -0.32202,0.32202 -0.0107,10e-6 -0.0805,-0.0322 -0.20931,-0.0966 -0.36496,-0.1932 -0.77821,-0.2898 -1.23976,-0.28981 -0.45083,10e-6 -0.80505,0.0966 -1.06266,0.28981 -0.24688,0.18249 -0.37032,0.424 -0.37031,0.72454 -1e-5,0.30055 0.0912,0.5367 0.27371,0.70844 0.19321,0.17174 0.51522,0.32738 0.96605,0.46692 1.00898,0.31129 1.69058,0.65477 2.0448,1.03045 0.36495,0.36496 0.54742,0.92312 0.54743,1.67449 -1e-5,0.74063 -0.26835,1.35246 -0.80504,1.83549 -0.52597,0.48302 -1.15926,0.72453 -1.8999,0.72453 -0.74064,0 -1.3793,-0.10733 -1.91599,-0.32201 -0.5367,-0.22541 -0.80505,-0.44009 -0.80505,-0.64403"
         style="fill:#374837;font-family:Asap;-inkscape-font-specification:Asap"
         id="path4231"
         inkscape:connector-curvature="0" />
      <path
         d="m 158.00798,935.93341 c 0,-0.12881 0.0698,-0.30592 0.20931,-0.53133 0.15028,-0.22541 0.26835,-0.33812 0.35422,-0.33812 0.0322,0 0.16638,0.0698 0.40252,0.20931 0.23615,0.12881 0.5689,0.26298 0.99825,0.40252 0.42936,0.13954 0.91775,0.20931 1.46518,0.20931 0.55815,0 1.03044,-0.17711 1.41687,-0.53132 0.39715,-0.35422 0.59572,-0.80504 0.59573,-1.35247 -1e-5,-0.54743 -0.18248,-0.98215 -0.54743,-1.30417 -0.35422,-0.32201 -0.78894,-0.57426 -1.30416,-0.75674 -0.5045,-0.1932 -1.01436,-0.39714 -1.52958,-0.61183 -0.51523,-0.21467 -0.95532,-0.54742 -1.32027,-0.99825 -0.35422,-0.45081 -0.53133,-1.02507 -0.53133,-1.72278 0,-0.89091 0.32739,-1.60471 0.98215,-2.14141 0.65477,-0.54742 1.51884,-0.82113 2.59223,-0.82114 0.52596,10e-6 1.08949,0.0966 1.69059,0.28981 0.60109,0.19322 0.90164,0.424 0.90165,0.69234 -10e-6,0.11808 -0.0698,0.28982 -0.20932,0.51522 -0.12881,0.22542 -0.23078,0.33813 -0.30591,0.33812 -0.0429,1e-5 -0.15565,-0.0537 -0.33812,-0.16101 -0.54743,-0.30054 -1.13779,-0.45081 -1.77109,-0.45082 -0.6333,10e-6 -1.13779,0.15565 -1.51347,0.46692 -0.37569,0.30056 -0.56353,0.74602 -0.56353,1.33637 0,0.59037 0.34885,1.05193 1.04655,1.38467 0.30055,0.13955 0.63866,0.27909 1.01435,0.41862 0.37568,0.12881 0.746,0.28445 1.11096,0.46692 0.37568,0.17175 0.71379,0.37569 1.01435,0.61183 0.31128,0.23615 0.56352,0.55817 0.75674,0.96605 0.1932,0.40789 0.2898,0.88018 0.28981,1.41687 -1e-5,0.98752 -0.32202,1.76573 -0.96605,2.33462 -0.64403,0.55816 -1.45981,0.83724 -2.44732,0.83724 -0.98752,0 -1.81939,-0.13417 -2.49563,-0.40252 -0.6655,-0.26834 -0.99825,-0.52596 -0.99825,-0.77283"
         style="fill:#374837;font-family:Asap;-inkscape-font-specification:Asap"
         id="path4233"
         inkscape:connector-curvature="0" />
      <path
         d="m 166.99299,936.52914 0,-10.46553 c 0,-0.23614 0.21468,-0.35421 0.64403,-0.35422 l 0.12881,0 c 0.42935,10e-6 0.64403,0.11808 0.64403,0.35422 l 0,9.72489 4.42773,0 c 0.21467,0 0.322,0.16101 0.32201,0.48302 l 0,0.25762 c -1e-5,0.32201 -0.10734,0.48302 -0.32201,0.48302 l -5.36157,0 c -0.32202,0 -0.48303,-0.16101 -0.48303,-0.48302"
         style="fill:#374837;font-family:Asap;-inkscape-font-specification:Asap"
         id="path4235"
         inkscape:connector-curvature="0" />
      <path
         d="m 66.931737,969.08497 c 0,-0.18246 0.230778,-0.2737 0.692335,-0.27371 l 0.128807,0 c 0.375684,1e-5 0.590361,0.0859 0.644032,0.25761 l 2.157509,6.52083 2.157508,-6.52083 c 0.05366,-0.17173 0.289809,-0.2576 0.708436,-0.25761 0.429348,1e-5 0.644025,0.0913 0.644033,0.27371 -8e-6,0.0537 -0.01611,0.12882 -0.0483,0.22542 l -2.59223,7.72839 c -0.05367,0.17174 -0.268352,0.25761 -0.644033,0.25761 l -0.563528,0 c -0.375689,0 -0.590366,-0.0859 -0.644033,-0.25761 l -2.59223,-7.74449 c -0.0322,-0.0966 -0.0483,-0.16637 -0.0483,-0.20932"
         style="fill:#374837;font-family:Asap;-inkscape-font-specification:Asap"
         id="path4237"
         inkscape:connector-curvature="0" />
      <path
         d="m 79.02873,977.36079 c -1.202198,0 -2.12531,-0.36495 -2.76934,-1.09485 -0.6333,-0.72991 -0.949949,-1.78719 -0.949948,-3.17186 -10e-7,-1.3954 0.322015,-2.46879 0.966049,-3.22017 0.64403,-0.75136 1.561775,-1.12704 2.753239,-1.12705 1.191454,10e-6 2.098465,0.37569 2.721037,1.12705 0.63329,0.74065 0.949939,1.81403 0.949948,3.22017 -9e-6,1.3954 -0.311291,2.45806 -0.933847,3.18796 -0.611838,0.71917 -1.524216,1.07875 -2.737138,1.07875 m -1.754989,-1.91599 c 0.364949,0.50449 0.93921,0.75673 1.722787,0.75673 0.783568,0 1.363196,-0.25224 1.738888,-0.75673 0.375679,-0.51523 0.563521,-1.30953 0.563528,-2.38292 -7e-6,-1.07339 -0.187849,-1.86769 -0.563528,-2.38292 -0.375692,-0.51522 -0.95532,-0.77284 -1.738888,-0.77284 -0.783577,0 -1.357838,0.25762 -1.722787,0.77284 -0.364954,0.50449 -0.54743,1.2988 -0.547427,2.38292 -3e-6,1.07339 0.182473,1.86769 0.547427,2.38292"
         style="fill:#374837;font-family:Asap;-inkscape-font-specification:Asap"
         id="path4239"
         inkscape:connector-curvature="0" />
      <path
         d="m 85.619747,966.81476 c -0.429357,10e-6 -0.644034,-0.11806 -0.644033,-0.35422 l 0,-0.94995 c -10e-7,-0.23613 0.214676,-0.3542 0.644033,-0.35421 l 0.193209,0 c 0.429353,10e-6 0.64403,0.11808 0.644033,0.35421 l 0,0.94995 c -3e-6,0.23616 -0.21468,0.35423 -0.644033,0.35422 l -0.193209,0 m -0.57963,10.12741 0,-7.77669 c -10e-7,-0.23614 0.214676,-0.35421 0.644033,-0.35422 l 0.0644,0 c 0.429352,1e-5 0.64403,0.11808 0.644032,0.35422 l 0,7.77669 c -2e-6,0.23615 -0.21468,0.35422 -0.644032,0.35422 l -0.0644,0 c -0.429357,0 -0.644034,-0.11807 -0.644033,-0.35422"
         style="fill:#374837;font-family:Asap;-inkscape-font-specification:Asap"
         id="path4241"
         inkscape:connector-curvature="0" />
      <path
         d="m 94.372551,976.15323 c -0.772845,0.80504 -1.631554,1.20756 -2.57613,1.20756 -0.944583,0 -1.701321,-0.39715 -2.270214,-1.19146 -0.558163,-0.7943 -0.837243,-1.81402 -0.837242,-3.05915 l 0,-0.14491 c -10e-7,-1.32026 0.300547,-2.35071 0.901645,-3.09136 0.601095,-0.75136 1.352465,-1.12704 2.254114,-1.12705 0.90164,10e-6 1.70668,0.27372 2.415121,0.82114 l 0,-4.05741 c -6e-6,-0.23613 0.214671,-0.3542 0.644033,-0.35421 l 0.0644,0 c 0.429348,10e-6 0.644025,0.11808 0.644033,0.35421 l 0,9.37068 c -8e-6,0.64403 0.02683,1.11095 0.0805,1.40077 0.07513,0.39715 0.112697,0.60646 0.112705,0.62793 -8e-6,0.12881 -0.101979,0.22541 -0.305915,0.28981 -0.203951,0.0537 -0.364959,0.0805 -0.483024,0.0805 -0.107346,0 -0.182483,-0.0107 -0.225412,-0.0322 -0.04294,-0.0215 -0.08588,-0.059 -0.128806,-0.11271 -0.03221,-0.0537 -0.05904,-0.10197 -0.0805,-0.14491 -0.02147,-0.0537 -0.04294,-0.12344 -0.0644,-0.20931 -0.02147,-0.0859 -0.04294,-0.15027 -0.0644,-0.19321 -0.01074,-0.0537 -0.02684,-0.1288 -0.0483,-0.22541 -0.01074,-0.10734 -0.02147,-0.17711 -0.0322,-0.20931 m -4.266715,-3.22016 c -2e-6,2.16824 0.697699,3.25236 2.093106,3.25236 0.697696,0 1.384664,-0.37031 2.060903,-1.11095 l 0,-4.41163 c -0.579635,-0.48301 -1.229033,-0.72452 -1.948198,-0.72453 l -0.0966,0 c -0.686971,0.0107 -1.21293,0.27372 -1.577879,0.78894 -0.35422,0.51523 -0.531329,1.2505 -0.531327,2.20581"
         style="fill:#374837;font-family:Asap;-inkscape-font-specification:Asap"
         id="path4243"
         inkscape:connector-curvature="0" />
      <path
         d="m 102.20786,976.94217 0,-5.65138 c 0,-0.65476 -0.0268,-1.12169 -0.0805,-1.40077 -0.0751,-0.38642 -0.11271,-0.59573 -0.11271,-0.62794 0,-0.12879 0.10197,-0.22003 0.30592,-0.27371 0.20394,-0.0644 0.35958,-0.0966 0.46692,-0.0966 0.11807,0 0.19857,0.0107 0.24151,0.0322 0.0429,0.0215 0.0805,0.059 0.11271,0.1127 0.0429,0.043 0.0751,0.0913 0.0966,0.14491 0.0215,0.0429 0.0429,0.10735 0.0644,0.19321 0.0215,0.0751 0.0376,0.13955 0.0483,0.19321 0.0215,0.0429 0.0376,0.11271 0.0483,0.20931 0.0215,0.0859 0.0376,0.14491 0.0483,0.17711 0.6977,-0.80503 1.51347,-1.20755 2.44733,-1.20756 1.16998,10e-6 1.93745,0.44546 2.30241,1.33637 0.75136,-0.89091 1.60471,-1.33636 2.56003,-1.33637 0.61182,10e-6 1.15925,0.15565 1.64228,0.46692 0.26834,0.18249 0.48302,0.4562 0.64404,0.82114 0.16099,0.36496 0.2415,0.80505 0.24151,1.32027 l 0,5.58698 c -1e-5,0.23615 -0.21469,0.35422 -0.64403,0.35422 l -0.0644,0 c -0.42936,0 -0.64404,-0.11807 -0.64403,-0.35422 l 0,-5.45817 c -1e-5,-0.48302 -0.13418,-0.86407 -0.40252,-1.14316 -0.25762,-0.27908 -0.63868,-0.41862 -1.14316,-0.41862 -0.66551,0 -1.32564,0.37032 -1.9804,1.11095 0.0107,0.0752 0.0161,0.18785 0.0161,0.33812 l 0,5.57088 c 0,0.23615 -0.21468,0.35422 -0.64403,0.35422 l -0.0644,0 c -0.42936,0 -0.64404,-0.11807 -0.64404,-0.35422 l 0,-5.45817 c 0,-0.48302 -0.13418,-0.86407 -0.40252,-1.14316 -0.25761,-0.27908 -0.6011,-0.41862 -1.03045,-0.41862 -0.41862,0 -0.79431,0.0912 -1.12705,0.27371 -0.32202,0.18248 -0.55817,0.37033 -0.70844,0.56353 l -0.24151,0.27371 0,5.909 c -10e-6,0.23615 -0.21468,0.35422 -0.64403,0.35422 l -0.0644,0 c -0.42935,0 -0.64403,-0.11807 -0.64403,-0.35422"
         style="fill:#374837;font-family:Asap;-inkscape-font-specification:Asap"
         id="path4245"
         inkscape:connector-curvature="0" />
      <path
         d="m 120.59021,972.01532 0,-0.75674 c -1e-5,-0.90163 -0.59037,-1.35246 -1.77109,-1.35246 -0.77284,0 -1.48665,0.16638 -2.14141,0.49912 -0.22541,0.11808 -0.34885,0.17712 -0.37032,0.17711 -0.10734,10e-6 -0.23078,-0.10733 -0.37032,-0.32202 -0.1288,-0.21467 -0.19321,-0.37567 -0.19321,-0.48302 0,-0.2254 0.31128,-0.45082 0.93385,-0.67623 0.6333,-0.23614 1.39003,-0.35421 2.27022,-0.35422 0.88017,10e-6 1.59934,0.22542 2.1575,0.67623 0.55816,0.4401 0.83724,1.0573 0.83725,1.8516 l 0,3.60658 c -10e-6,0.64403 0.0268,1.11095 0.0805,1.40077 0.0751,0.39715 0.1127,0.60646 0.11271,0.62793 -1e-5,0.12881 -0.10198,0.22541 -0.30592,0.28981 -0.20395,0.0537 -0.36496,0.0805 -0.48302,0.0805 -0.10735,0 -0.18249,-0.0107 -0.22542,-0.0322 -0.0429,-0.0215 -0.0859,-0.059 -0.1288,-0.11271 -0.0322,-0.0537 -0.059,-0.10197 -0.0805,-0.14491 -0.0215,-0.0537 -0.0429,-0.12344 -0.0644,-0.20931 -0.0215,-0.0859 -0.0429,-0.15027 -0.0644,-0.19321 -0.0107,-0.0537 -0.0268,-0.1288 -0.0483,-0.22541 -0.0107,-0.10734 -0.0215,-0.17711 -0.0322,-0.20931 -0.72991,0.80504 -1.63155,1.20756 -2.70493,1.20756 -0.82651,0 -1.49201,-0.20394 -1.9965,-0.61183 -0.5045,-0.40789 -0.75674,-1.03582 -0.75674,-1.88379 0,-0.84798 0.28981,-1.48127 0.86944,-1.8999 0.59036,-0.42935 1.2505,-0.68696 1.9804,-0.77284 0.7299,-0.0966 1.56178,-0.15563 2.49563,-0.17711 m -3.8964,2.84985 c 0,0.88018 0.45619,1.32026 1.36857,1.32026 0.52596,0 0.97678,-0.0966 1.35247,-0.28981 0.38641,-0.19321 0.7782,-0.46692 1.17536,-0.82114 l 0,-1.8999 c -1.34174,0 -2.20582,0.0751 -2.59223,0.22541 -0.20395,0.0751 -0.41863,0.17175 -0.64403,0.28982 -0.4401,0.22541 -0.66014,0.6172 -0.66014,1.17536"
         style="fill:#374837;font-family:Asap;-inkscape-font-specification:Asap"
         id="path4247"
         inkscape:connector-curvature="0" />
      <path
         d="m 125.27428,966.81476 c -0.42935,10e-6 -0.64403,-0.11806 -0.64403,-0.35422 l 0,-0.94995 c 0,-0.23613 0.21468,-0.3542 0.64403,-0.35421 l 0.19321,0 c 0.42936,10e-6 0.64403,0.11808 0.64404,0.35421 l 0,0.94995 c -1e-5,0.23616 -0.21468,0.35423 -0.64404,0.35422 l -0.19321,0 m -0.57963,10.12741 0,-7.77669 c 0,-0.23614 0.21468,-0.35421 0.64404,-0.35422 l 0.0644,0 c 0.42935,1e-5 0.64403,0.11808 0.64403,0.35422 l 0,7.77669 c 0,0.23615 -0.21468,0.35422 -0.64403,0.35422 l -0.0644,0 c -0.42936,0 -0.64404,-0.11807 -0.64404,-0.35422"
         style="fill:#374837;font-family:Asap;-inkscape-font-specification:Asap"
         id="path4249"
         inkscape:connector-curvature="0" />
      <path
         d="m 128.89093,976.94217 0,-5.65138 c 0,-0.65476 -0.0268,-1.12169 -0.0805,-1.40077 -0.0751,-0.38642 -0.11271,-0.59573 -0.11271,-0.62794 0,-0.12879 0.10197,-0.22003 0.30592,-0.27371 0.20394,-0.0644 0.35958,-0.0966 0.46692,-0.0966 0.11807,0 0.19857,0.0107 0.24151,0.0322 0.0429,0.0215 0.0805,0.059 0.11271,0.1127 0.0429,0.043 0.0751,0.0913 0.0966,0.14491 0.0215,0.0429 0.0429,0.10735 0.0644,0.19321 0.0215,0.0751 0.0376,0.13955 0.0483,0.19321 0.0215,0.0429 0.0376,0.11271 0.0483,0.20931 0.0215,0.0859 0.0376,0.14491 0.0483,0.17711 0.71917,-0.80503 1.51884,-1.20755 2.39902,-1.20756 0.89091,10e-6 1.56714,0.23078 2.02871,0.69233 0.47228,0.46157 0.70842,1.10023 0.70843,1.916 l 0,5.58698 c -1e-5,0.23615 -0.21468,0.35422 -0.64403,0.35422 l -0.0644,0 c -0.42937,0 -0.64404,-0.11807 -0.64404,-0.35422 l 0,-5.45817 c 0,-0.49376 -0.14491,-0.87481 -0.43472,-1.14316 -0.27909,-0.27908 -0.68161,-0.41862 -1.20756,-0.41862 -0.77284,0 -1.44908,0.37569 -2.0287,1.12705 l 0,5.8929 c 0,0.23615 -0.21468,0.35422 -0.64403,0.35422 l -0.0644,0 c -0.42935,0 -0.64403,-0.11807 -0.64403,-0.35422"
         style="fill:#374837;font-family:Asap;-inkscape-font-specification:Asap"
         id="path4251"
         inkscape:connector-curvature="0" />
      <path
         d="m 138.14311,977.16758 c -0.52596,-1.38467 -0.78894,-2.88741 -0.78894,-4.50823 0,-1.6208 0.26298,-3.12354 0.78894,-4.50822 0.53669,-1.38466 1.26123,-2.49562 2.17361,-3.33287 0.10734,-0.10733 0.21468,-0.161 0.32202,-0.16101 0.11807,10e-6 0.23077,0.043 0.33812,0.12881 0.10733,0.0752 0.161,0.16639 0.161,0.27371 0,0.10735 -0.0483,0.22543 -0.1449,0.35422 -0.72991,0.85872 -1.30417,1.92137 -1.72279,3.18796 -0.40789,1.25587 -0.61183,2.60834 -0.61183,4.0574 0,1.43835 0.20394,2.79081 0.61183,4.05741 0.41862,1.25586 0.98751,2.31851 1.70669,3.18796 0.0966,0.10734 0.1449,0.20931 0.1449,0.30592 0,0.0966 -0.0483,0.19857 -0.1449,0.30591 -0.0966,0.10734 -0.20395,0.16101 -0.32202,0.16101 -0.10734,0 -0.22005,-0.059 -0.33812,-0.17711 -0.91238,-0.83724 -1.63692,-1.9482 -2.17361,-3.33287"
         style="fill:#374837;font-family:Asap;-inkscape-font-specification:Asap"
         id="path4253"
         inkscape:connector-curvature="0" />
      <path
         d="m 141.56906,980.00132 c 0.74064,-0.85871 1.32563,-1.92673 1.75499,-3.20406 0.42935,-1.28806 0.64403,-2.65663 0.64403,-4.1057 0,-1.4598 -0.20931,-2.81764 -0.62793,-4.07351 -0.40789,-1.26659 -0.97142,-2.33461 -1.69059,-3.20406 -0.0966,-0.10733 -0.1449,-0.2093 -0.1449,-0.30592 0,-0.0966 0.0483,-0.19856 0.1449,-0.30591 0.0966,-0.10733 0.19858,-0.161 0.30592,-0.16101 0.11807,10e-6 0.23614,0.059 0.35422,0.17711 0.91237,0.83725 1.63154,1.94821 2.15751,3.33287 0.53669,1.38468 0.80503,2.88742 0.80504,4.50822 -1e-5,1.62082 -0.26835,3.12356 -0.80504,4.50823 -0.52597,1.38467 -1.24514,2.49563 -2.15751,3.33287 -0.10734,0.10734 -0.22005,0.161 -0.33812,0.16101 -0.11807,-1e-5 -0.23615,-0.0483 -0.35422,-0.14491 -0.10734,-0.0859 -0.16101,-0.17174 -0.16101,-0.25761 0,-0.0751 0.0376,-0.16101 0.11271,-0.25762"
         style="fill:#374837;font-family:Asap;-inkscape-font-specification:Asap"
         id="path4255"
         inkscape:connector-curvature="0" />
      <path
         d="m 68.139298,997.74442 0,-2.68884 c -10e-7,-0.59036 -0.05367,-1.04655 -0.161008,-1.36857 -0.10734,-0.32201 -0.311283,-0.54742 -0.611831,-0.67623 -0.300549,-0.13954 -0.450823,-0.33275 -0.450822,-0.57963 l 0,-0.22541 c -10e-7,-0.24687 0.150273,-0.43472 0.450822,-0.56353 0.300548,-0.13953 0.504491,-0.36494 0.611831,-0.67623 0.107337,-0.32201 0.161007,-0.78357 0.161008,-1.38467 l 0,-2.68884 c -10e-7,-0.67622 0.134172,-1.15388 0.40252,-1.43297 0.268345,-0.2898 0.552792,-0.43471 0.853343,-0.43472 l 0.805041,0 c 0.214674,1e-5 0.322012,0.15565 0.322016,0.46692 l 0,0.0644 c -4e-6,0.3113 -0.107342,0.46694 -0.322016,0.46693 l -0.354218,0 c -0.21468,1e-5 -0.359588,0.0805 -0.434722,0.24151 -0.07514,0.15029 -0.112708,0.39716 -0.112705,0.74064 l 0,2.83374 c -3e-6,1.07339 -0.418624,1.90527 -1.255864,2.49563 0.128805,0.0644 0.273712,0.17174 0.434722,0.32201 0.17174,0.15028 0.348849,0.42399 0.531327,0.82114 0.193207,0.38643 0.289812,0.82651 0.289815,1.32027 l 0,2.81764 c -3e-6,0.34349 0.03757,0.59573 0.112705,0.75674 0.07513,0.16101 0.220042,0.24151 0.434722,0.24151 l 0.354218,0 c 0.214674,0 0.322012,0.15564 0.322016,0.46693 l 0,0.0644 c -4e-6,0.31128 -0.107342,0.46692 -0.322016,0.46692 l -0.805041,0 c -0.300551,0 -0.584998,-0.13954 -0.853343,-0.41862 -0.268348,-0.27908 -0.402521,-0.7621 -0.40252,-1.44907"
         style="fill:#374837;font-family:Asap;-inkscape-font-specification:Asap"
         id="path4257"
         inkscape:connector-curvature="0" />
      <path
         d="m 80.776925,986.94077 c -0.429356,10e-6 -0.644033,-0.11806 -0.644032,-0.35421 l 0,-0.94995 c -10e-7,-0.23613 0.214676,-0.35421 0.644032,-0.35422 l 0.19321,0 c 0.429352,1e-5 0.64403,0.11809 0.644033,0.35422 l 0,0.94995 c -3e-6,0.23615 -0.214681,0.35422 -0.644033,0.35421 l -0.19321,0 m -0.579629,10.12741 0,-7.77669 c -10e-7,-0.23613 0.214676,-0.35421 0.644033,-0.35422 l 0.0644,0 c 0.429352,10e-6 0.64403,0.11809 0.644032,0.35422 l 0,7.77669 c -2e-6,0.23615 -0.21468,0.35422 -0.644032,0.35422 l -0.0644,0 c -0.429357,0 -0.644034,-0.11807 -0.644033,-0.35422"
         style="fill:#374837;font-family:Asap;-inkscape-font-specification:Asap"
         id="path4259"
         inkscape:connector-curvature="0" />
      <path
         d="m 84.747787,997.06818 0,-6.93945 -0.644032,0 c -0.214679,10e-6 -0.322017,-0.161 -0.322016,-0.48302 l 0,-0.19321 c -10e-7,-0.32201 0.107337,-0.48302 0.322016,-0.48302 l 0.644032,0 0,-1.52958 c -10e-7,-0.9231 0.246877,-1.53493 0.740638,-1.83549 0.418618,-0.2576 0.864073,-0.38641 1.336367,-0.38642 0.783568,10e-6 1.175354,0.16102 1.175359,0.48302 -5e-6,0.10735 -0.03221,0.26299 -0.0966,0.46693 -0.06441,0.19322 -0.144912,0.28982 -0.241512,0.28981 -0.02147,10e-6 -0.09661,-0.0107 -0.225411,-0.0322 -0.128811,-0.0322 -0.311287,-0.0483 -0.547428,-0.0483 -0.225415,10e-6 -0.413257,0.0805 -0.563528,0.24151 -0.150278,0.15028 -0.225415,0.46693 -0.225412,0.94995 l 0,1.40077 1.400771,0 c 0.214673,0 0.322011,0.16101 0.322016,0.48302 l 0,0.19321 c -5e-6,0.32202 -0.107343,0.48303 -0.322016,0.48302 l -1.400771,0 0,6.93945 c -3e-6,0.23615 -0.21468,0.35422 -0.644032,0.35422 l -0.0644,0 c -0.429357,0 -0.644034,-0.11807 -0.644033,-0.35422"
         style="fill:#374837;font-family:Asap;-inkscape-font-specification:Asap"
         id="path4261"
         inkscape:connector-curvature="0" />
      <path
         d="m 92.466617,989.21099 c 0,-0.18247 0.230778,-0.27371 0.692335,-0.27372 l 0.128806,0 c 0.375684,10e-6 0.590362,0.0859 0.644033,0.25762 l 2.157508,6.52083 2.157509,-6.52083 c 0.05366,-0.17174 0.289808,-0.25761 0.708436,-0.25762 0.429348,10e-6 0.644025,0.0912 0.644032,0.27372 -7e-6,0.0537 -0.01611,0.12881 -0.0483,0.22541 l -2.592231,7.72839 c -0.05367,0.17174 -0.268351,0.25761 -0.644032,0.25761 l -0.563529,0 c -0.375688,0 -0.590366,-0.0859 -0.644032,-0.25761 l -2.592231,-7.74449 c -0.0322,-0.0966 -0.0483,-0.16637 -0.0483,-0.20931"
         style="fill:#374837;font-family:Asap;-inkscape-font-specification:Asap"
         id="path4263"
         inkscape:connector-curvature="0" />
      <path
         d="m 106.09319,992.14134 0,-0.75674 c -1e-5,-0.90164 -0.59037,-1.35246 -1.77109,-1.35247 -0.77284,10e-6 -1.48665,0.16638 -2.14141,0.49913 -0.22541,0.11807 -0.34885,0.17711 -0.37032,0.1771 -0.10734,10e-6 -0.23078,-0.10733 -0.37032,-0.32201 -0.1288,-0.21467 -0.19321,-0.37568 -0.19321,-0.48303 0,-0.2254 0.31128,-0.45081 0.93385,-0.67623 0.6333,-0.23614 1.39003,-0.35421 2.27021,-0.35422 0.88018,10e-6 1.59935,0.22542 2.15751,0.67624 0.55816,0.44009 0.83724,1.05729 0.83725,1.85159 l 0,3.60658 c -1e-5,0.64403 0.0268,1.11096 0.0805,1.40077 0.0751,0.39716 0.1127,0.60647 0.11271,0.62793 -1e-5,0.12881 -0.10198,0.22541 -0.30592,0.28982 -0.20395,0.0537 -0.36496,0.0805 -0.48302,0.0805 -0.10735,0 -0.18249,-0.0107 -0.22542,-0.0322 -0.0429,-0.0215 -0.0859,-0.059 -0.1288,-0.11271 -0.0322,-0.0537 -0.059,-0.10197 -0.0805,-0.1449 -0.0215,-0.0537 -0.0429,-0.12344 -0.0644,-0.20931 -0.0215,-0.0859 -0.0429,-0.15028 -0.0644,-0.19321 -0.0107,-0.0537 -0.0268,-0.12881 -0.0483,-0.22541 -0.0107,-0.10734 -0.0215,-0.17711 -0.0322,-0.20932 -0.72991,0.80505 -1.63155,1.20757 -2.70493,1.20757 -0.82651,0 -1.49201,-0.20395 -1.9965,-0.61184 -0.5045,-0.40788 -0.75674,-1.03581 -0.75674,-1.88379 0,-0.84797 0.28981,-1.48127 0.86944,-1.8999 0.59036,-0.42935 1.2505,-0.68696 1.9804,-0.77283 0.7299,-0.0966 1.56178,-0.15564 2.49563,-0.17711 m -3.8964,2.84984 c 0,0.88018 0.45619,1.32027 1.36857,1.32027 0.52596,0 0.97678,-0.0966 1.35247,-0.28982 0.38641,-0.19321 0.7782,-0.46692 1.17536,-0.82114 l 0,-1.8999 c -1.34174,10e-6 -2.20582,0.0751 -2.59223,0.22542 -0.20395,0.0751 -0.41863,0.17174 -0.64404,0.28981 -0.44009,0.22542 -0.66013,0.6172 -0.66013,1.17536"
         style="fill:#374837;font-family:Asap;-inkscape-font-specification:Asap"
         id="path4265"
         inkscape:connector-curvature="0" />
      <path
         d="m 109.56971,993.13959 c 0,-0.80504 0.10733,-1.49737 0.32201,-2.07701 0.22541,-0.57962 0.52596,-1.02508 0.90165,-1.33637 0.70843,-0.56888 1.57251,-0.85333 2.59223,-0.85334 0.62256,10e-6 1.18072,0.0752 1.67448,0.22541 0.49375,0.15029 0.74063,0.32203 0.74064,0.51523 -1e-5,0.13955 -0.0644,0.32202 -0.19321,0.54743 -0.11808,0.21468 -0.22542,0.32202 -0.32202,0.32201 -0.0107,1e-5 -0.0322,-0.005 -0.0644,-0.0161 -0.0215,-0.0107 -0.0429,-0.0161 -0.0644,-0.0161 -0.0107,-0.0107 -0.0268,-0.0215 -0.0483,-0.0322 -0.57963,-0.25761 -1.16463,-0.38641 -1.75498,-0.38642 -1.55642,10e-6 -2.33462,1.02509 -2.33462,3.07525 0,1.1378 0.18784,1.95894 0.56353,2.46343 0.38641,0.50449 1.03045,0.75674 1.93209,0.75674 0.65477,0 1.26123,-0.13954 1.8194,-0.41862 0.0322,-0.0107 0.0644,-0.0215 0.0966,-0.0322 0.0429,-0.0215 0.0698,-0.0322 0.0805,-0.0322 0.10733,0 0.2254,0.10734 0.35421,0.32202 0.1288,0.20394 0.19321,0.37032 0.19321,0.49912 0,0.19321 -0.25225,0.38106 -0.75674,0.56353 -0.50449,0.17174 -1.09486,0.25762 -1.77108,0.25762 -1.33101,0 -2.32389,-0.34349 -2.97865,-1.03046 -0.65477,-0.68696 -0.98215,-1.79255 -0.98215,-3.31676"
         style="fill:#374837;font-family:Asap;-inkscape-font-specification:Asap"
         id="path4267"
         inkscape:connector-curvature="0" />
      <path
         d="m 122.69715,992.14134 0,-0.75674 c -10e-6,-0.90164 -0.59037,-1.35246 -1.77109,-1.35247 -0.77284,10e-6 -1.48664,0.16638 -2.14141,0.49913 -0.22541,0.11807 -0.34885,0.17711 -0.37032,0.1771 -0.10734,10e-6 -0.23078,-0.10733 -0.37032,-0.32201 -0.1288,-0.21467 -0.19321,-0.37568 -0.1932,-0.48303 -10e-6,-0.2254 0.31128,-0.45081 0.93384,-0.67623 0.6333,-0.23614 1.39004,-0.35421 2.27022,-0.35422 0.88017,10e-6 1.59934,0.22542 2.15751,0.67624 0.55815,0.44009 0.83723,1.05729 0.83724,1.85159 l 0,3.60658 c -1e-5,0.64403 0.0268,1.11096 0.0805,1.40077 0.0751,0.39716 0.1127,0.60647 0.11271,0.62793 -1e-5,0.12881 -0.10198,0.22541 -0.30592,0.28982 -0.20395,0.0537 -0.36496,0.0805 -0.48302,0.0805 -0.10735,0 -0.18249,-0.0107 -0.22541,-0.0322 -0.043,-0.0215 -0.0859,-0.059 -0.12881,-0.11271 -0.0322,-0.0537 -0.059,-0.10197 -0.0805,-0.1449 -0.0215,-0.0537 -0.043,-0.12344 -0.0644,-0.20931 -0.0215,-0.0859 -0.0429,-0.15028 -0.0644,-0.19321 -0.0107,-0.0537 -0.0268,-0.12881 -0.0483,-0.22541 -0.0107,-0.10734 -0.0215,-0.17711 -0.0322,-0.20932 -0.7299,0.80505 -1.63155,1.20757 -2.70493,1.20757 -0.82651,0 -1.49201,-0.20395 -1.9965,-0.61184 -0.50449,-0.40788 -0.75674,-1.03581 -0.75674,-1.88379 0,-0.84797 0.28981,-1.48127 0.86944,-1.8999 0.59036,-0.42935 1.2505,-0.68696 1.9804,-0.77283 0.7299,-0.0966 1.56178,-0.15564 2.49563,-0.17711 m -3.8964,2.84984 c 0,0.88018 0.45619,1.32027 1.36857,1.32027 0.52596,0 0.97678,-0.0966 1.35247,-0.28982 0.38641,-0.19321 0.7782,-0.46692 1.17536,-0.82114 l 0,-1.8999 c -1.34174,10e-6 -2.20582,0.0751 -2.59223,0.22542 -0.20395,0.0751 -0.41863,0.17174 -0.64403,0.28981 -0.44009,0.22542 -0.66014,0.6172 -0.66014,1.17536"
         style="fill:#374837;font-family:Asap;-inkscape-font-specification:Asap"
         id="path4269"
         inkscape:connector-curvature="0" />
      <path
         d="m 126.59229,993.02688 c -0.32202,10e-6 -0.48303,-0.161 -0.48303,-0.48302 l 0,-0.11271 c 0,-0.32201 0.16101,-0.48302 0.48303,-0.48302 l 6.50473,0 c 0.322,0 0.48301,0.16101 0.48302,0.48302 l 0,0.11271 c -1e-5,0.32202 -0.16102,0.48303 -0.48302,0.48302 l -6.50473,0 m 0,2.64053 c -0.32202,10e-6 -0.48303,-0.161 -0.48303,-0.48302 l 0,-0.12881 c 0,-0.32201 0.16101,-0.48302 0.48303,-0.48302 l 6.50473,0 c 0.322,0 0.48301,0.16101 0.48302,0.48302 l 0,0.12881 c -1e-5,0.32202 -0.16102,0.48303 -0.48302,0.48302 l -6.50473,0"
         style="fill:#374837;font-family:Asap;-inkscape-font-specification:Asap"
         id="path4271"
         inkscape:connector-curvature="0" />
      <path
         d="m 135.64899,993.02688 c -0.32202,10e-6 -0.48302,-0.161 -0.48302,-0.48302 l 0,-0.11271 c 0,-0.32201 0.161,-0.48302 0.48302,-0.48302 l 6.50473,0 c 0.32201,0 0.48301,0.16101 0.48302,0.48302 l 0,0.11271 c -1e-5,0.32202 -0.16101,0.48303 -0.48302,0.48302 l -6.50473,0 m 0,2.64053 c -0.32202,10e-6 -0.48302,-0.161 -0.48302,-0.48302 l 0,-0.12881 c 0,-0.32201 0.161,-0.48302 0.48302,-0.48302 l 6.50473,0 c 0.32201,0 0.48301,0.16101 0.48302,0.48302 l 0,0.12881 c -1e-5,0.32202 -0.16101,0.48303 -0.48302,0.48302 l -6.50473,0"
         style="fill:#374837;font-family:Asap;-inkscape-font-specification:Asap"
         id="path4273"
         inkscape:connector-curvature="0" />
      <path
         d="m 147.18522,997.06818 0,-9.72489 -3.09135,0 c -0.21468,10e-6 -0.32202,-0.16099 -0.32202,-0.48302 l 0,-0.25761 c 0,-0.32201 0.10734,-0.48302 0.32202,-0.48303 l 7.55128,0 c 0.21467,10e-6 0.32201,0.16102 0.32202,0.48303 l 0,0.25761 c -1e-5,0.32203 -0.10735,0.48303 -0.32202,0.48302 l -3.04305,0 0,9.72489 c -1e-5,0.23615 -0.21469,0.35422 -0.64404,0.35422 l -0.1288,0 c -0.42936,0 -0.64404,-0.11807 -0.64404,-0.35422"
         style="fill:#374837;font-family:Asap;-inkscape-font-specification:Asap"
         id="path4275"
         inkscape:connector-curvature="0" />
      <path
         d="m 153.73549,997.06818 0,-5.65138 c 0,-0.65476 -0.0268,-1.12168 -0.0805,-1.40077 -0.0751,-0.38641 -0.1127,-0.59572 -0.1127,-0.62793 0,-0.1288 0.10197,-0.22004 0.30591,-0.27372 0.20395,-0.0644 0.35959,-0.0966 0.46693,-0.0966 0.11807,10e-6 0.19857,0.0107 0.24151,0.0322 0.0429,0.0215 0.0805,0.059 0.11271,0.11271 0.0429,0.0429 0.0751,0.0912 0.0966,0.1449 0.0215,0.043 0.0429,0.10735 0.0644,0.19321 0.0215,0.0752 0.0376,0.13955 0.0483,0.19321 0.0215,0.0429 0.0376,0.11272 0.0483,0.20931 0.0215,0.0859 0.0376,0.14492 0.0483,0.17711 0.56889,-0.80503 1.19146,-1.20755 1.86769,-1.20756 0.30055,10e-6 0.53133,0.059 0.69234,0.17711 0.161,0.11808 0.24151,0.26836 0.24151,0.45082 0,0.18249 -0.0322,0.3757 -0.0966,0.57963 -0.0644,0.19322 -0.13955,0.28982 -0.22541,0.28982 -0.0429,0 -0.15028,-0.0268 -0.32202,-0.0805 -0.16101,-0.0644 -0.35959,-0.0966 -0.59573,-0.0966 -0.22542,1e-5 -0.46156,0.0859 -0.70844,0.25761 -0.24688,0.16102 -0.42935,0.32202 -0.54742,0.48303 l -0.19321,0.24151 0,5.89289 c -1e-5,0.23615 -0.21468,0.35422 -0.64404,0.35422 l -0.0644,0 c -0.42936,0 -0.64403,-0.11807 -0.64403,-0.35422"
         style="fill:#374837;font-family:Asap;-inkscape-font-specification:Asap"
         id="path4277"
         inkscape:connector-curvature="0" />
      <path
         d="m 159.40599,994.87847 0,-5.58698 c 0,-0.23613 0.21468,-0.35421 0.64404,-0.35422 l 0.0644,0 c 0.42935,10e-6 0.64403,0.11809 0.64403,0.35422 l 0,5.45818 c 0,0.49376 0.13954,0.88018 0.41862,1.15926 0.28981,0.26834 0.6977,0.40252 1.22366,0.40252 0.77284,0 1.44907,-0.37569 2.02871,-1.12706 l 0,-5.8929 c -1e-5,-0.23613 0.21467,-0.35421 0.64403,-0.35422 l 0.0644,0 c 0.42935,10e-6 0.64403,0.11809 0.64403,0.35422 l 0,5.71579 c 0,0.64403 0.0268,1.11096 0.0805,1.40077 0.0751,0.39716 0.1127,0.60647 0.1127,0.62793 0,0.12881 -0.10197,0.22541 -0.30591,0.28982 -0.20395,0.0537 -0.36496,0.0805 -0.48303,0.0805 -0.10734,0 -0.18248,-0.0107 -0.22541,-0.0322 -0.0429,-0.0215 -0.0859,-0.059 -0.1288,-0.11271 -0.0322,-0.0537 -0.0591,-0.10197 -0.0805,-0.1449 -0.0215,-0.0537 -0.0429,-0.12344 -0.0644,-0.20931 -0.0215,-0.0859 -0.0429,-0.15028 -0.0644,-0.19321 -0.0107,-0.0537 -0.0268,-0.12881 -0.0483,-0.22541 -0.0107,-0.10734 -0.0215,-0.17711 -0.0322,-0.20932 -0.71917,0.80505 -1.52421,1.20757 -2.41512,1.20757 -0.88018,0 -1.55641,-0.23078 -2.0287,-0.69234 -0.46156,-0.46155 -0.69234,-1.10022 -0.69234,-1.916"
         style="fill:#374837;font-family:Asap;-inkscape-font-specification:Asap"
         id="path4279"
         inkscape:connector-curvature="0" />
      <path
         d="m 171.99104,997.48681 c -1.34174,0 -2.33462,-0.34886 -2.97865,-1.04656 -0.64403,-0.6977 -0.96605,-1.76035 -0.96605,-3.18796 0,-1.43833 0.31665,-2.52782 0.94995,-3.26846 0.6333,-0.74063 1.53494,-1.11095 2.70494,-1.11096 2.27557,10e-6 3.41336,1.40078 3.41337,4.20231 -1e-5,0.0966 -0.0644,0.23079 -0.19321,0.40252 -0.12882,0.17175 -0.24152,0.25762 -0.33812,0.25762 l -5.08786,0 c 0.0644,0.89091 0.29518,1.54568 0.69234,1.9643 0.39715,0.41862 0.99288,0.62793 1.78719,0.62793 0.7299,0 1.40076,-0.17174 2.0126,-0.51523 0.20394,-0.10734 0.31664,-0.16101 0.33812,-0.16101 0.10733,0 0.2254,0.10734 0.35422,0.32202 0.13953,0.21468 0.2093,0.37569 0.20931,0.48302 -1e-5,0.21468 -0.29519,0.44009 -0.88555,0.67624 -0.57963,0.23614 -1.2505,0.35422 -2.0126,0.35422 m 1.69059,-4.91075 c -1e-5,-1.69595 -0.64404,-2.54392 -1.9321,-2.54393 -1.38467,10e-6 -2.13605,0.84798 -2.25412,2.54393 l 4.18622,0"
         style="fill:#374837;font-family:Asap;-inkscape-font-specification:Asap"
         id="path4281"
         inkscape:connector-curvature="0" />
      <path
         d="m 177.30532,990.70836 c -0.42936,10e-6 -0.64404,-0.11806 -0.64404,-0.35421 l 0,-1.06266 c 0,-0.23613 0.21468,-0.35421 0.64404,-0.35422 l 0.27371,0 c 0.42935,10e-6 0.64403,0.11809 0.64403,0.35422 l 0,1.06266 c 0,0.23615 -0.21468,0.35422 -0.64403,0.35421 l -0.27371,0 m -0.64404,6.35982 0,-1.06265 c 0,-0.23614 0.21468,-0.35422 0.64404,-0.35422 l 0.27371,0 c 0.42935,0 0.64403,0.11808 0.64403,0.35422 l 0,1.06265 c 0,0.23615 -0.21468,0.35422 -0.64403,0.35422 l -0.27371,0 c -0.42936,0 -0.64404,-0.11807 -0.64404,-0.35422"
         style="fill:#374837;font-family:Asap;-inkscape-font-specification:Asap"
         id="path4283"
         inkscape:connector-curvature="0" />
    </g>
    <g
       transform="matrix(2.5161423,0,0,2.5161423,-42.604378,799.71157)"
       style="font-size:40px;font-style:normal;font-variant:normal;font-weight:normal;font-stretch:normal;line-height:125%;letter-spacing:0px;word-spacing:0px;fill:#dbe3db;fill-opacity:1;stroke:none;font-family:Asap;-inkscape-font-specification:Asap"
       id="flowRoot3080">
      <path
         d="m 69.56625,71.660774 c -2e-6,-11.391972 5.343992,-17.087966 16.032,-17.088 2.335979,3.4e-5 4.591977,0.320033 6.768,0.96 2.175973,0.640032 3.263972,1.440031 3.264,2.4 -2.8e-5,0.704029 -0.384028,1.632029 -1.152,2.784 -0.736026,1.152026 -1.392026,1.728026 -1.968,1.728 -0.09602,2.6e-5 -0.432025,-0.127974 -1.008,-0.384 -1.664022,-0.767973 -3.68002,-1.151973 -6.048,-1.152 -5.536013,2.7e-5 -8.30401,3.632024 -8.304,10.896 -1e-5,7.232009 2.735988,10.848005 8.208,10.848 2.30398,5e-6 4.511978,-0.479994 6.624,-1.44 0.703975,-0.319993 1.119974,-0.479993 1.248,-0.48 0.671974,7e-6 1.311973,0.560007 1.92,1.68 0.607972,1.088005 0.911971,1.920004 0.912,2.496 -2.9e-5,1.280002 -1.184027,2.272001 -3.552,2.976 -2.368023,0.704 -4.75202,1.055999 -7.152,1.056 -5.376013,-1e-6 -9.360009,-1.391999 -11.952,-4.176 -2.560003,-2.815994 -3.840002,-7.183989 -3.84,-13.104"
         style="font-size:48px;font-weight:bold;fill:#dbe3db;-inkscape-font-specification:Asap Bold"
         id="path3083" />
    </g>
  </g>
</svg>
