<?xml version="1.0" encoding="UTF-8" standalone="no"?>
<!-- Created with Inkscape (http://www.inkscape.org/) -->

<svg
   xmlns:dc="http://purl.org/dc/elements/1.1/"
   xmlns:cc="http://creativecommons.org/ns#"
   xmlns:rdf="http://www.w3.org/1999/02/22-rdf-syntax-ns#"
   xmlns:svg="http://www.w3.org/2000/svg"
   xmlns="http://www.w3.org/2000/svg"
   xmlns:xlink="http://www.w3.org/1999/xlink"
   xmlns:sodipodi="http://sodipodi.sourceforge.net/DTD/sodipodi-0.dtd"
   xmlns:inkscape="http://www.inkscape.org/namespaces/inkscape"
   width="256"
   height="256"
   id="svg2"
   version="1.1"
   inkscape:version="0.48.3.1 r9886"
   sodipodi:docname="ascii.svg">
  <defs
     id="defs4">
    <linearGradient
       inkscape:collect="always"
       id="linearGradient4019">
      <stop
         style="stop-color:#ffffff;stop-opacity:1;"
         offset="0"
         id="stop4021" />
      <stop
         style="stop-color:#ffffff;stop-opacity:0;"
         offset="1"
         id="stop4023" />
    </linearGradient>
    <linearGradient
       id="linearGradient3864">
      <stop
         style="stop-color:#ffffff;stop-opacity:1;"
         offset="0"
         id="stop3866" />
      <stop
         style="stop-color:#d5d5d5;stop-opacity:0;"
         offset="1"
         id="stop3868" />
    </linearGradient>
    <linearGradient
       id="linearGradient3815">
      <stop
         style="stop-color:#e0f2fe;stop-opacity:1;"
         offset="0"
         id="stop3817" />
      <stop
         style="stop-color:#075e99;stop-opacity:1;"
         offset="1"
         id="stop3819" />
    </linearGradient>
    <linearGradient
       id="linearGradient3805">
      <stop
         style="stop-color:#989898;stop-opacity:1;"
         offset="0"
         id="stop3807" />
      <stop
         style="stop-color:#2a2a2a;stop-opacity:0.94968551;"
         offset="1"
         id="stop3809" />
    </linearGradient>
    <linearGradient
       id="linearGradient3927">
      <stop
         id="stop3929"
         offset="0"
         style="stop-color:#9d9d9d;stop-opacity:1;" />
      <stop
         id="stop3931"
         offset="1"
         style="stop-color:#ffffff;stop-opacity:1;" />
    </linearGradient>
    <linearGradient
       id="linearGradient3909">
      <stop
         style="stop-color:#909090;stop-opacity:1;"
         offset="0"
         id="stop3911" />
      <stop
         style="stop-color:#cfcfcf;stop-opacity:1;"
         offset="1"
         id="stop3913" />
    </linearGradient>
    <linearGradient
       id="linearGradient3815-1">
      <stop
         style="stop-color:#e0f2fe;stop-opacity:1;"
         offset="0"
         id="stop3817-9" />
      <stop
         style="stop-color:#01131f;stop-opacity:1;"
         offset="1"
         id="stop3819-2" />
    </linearGradient>
    <radialGradient
       inkscape:collect="always"
       xlink:href="#linearGradient4019"
       id="radialGradient4025"
       cx="120.92171"
       cy="141.02525"
       fx="120.92171"
       fy="141.02525"
       r="127.60499"
       gradientTransform="matrix(0.67948535,0.00596595,-0.00506566,0.54621211,39.471564,63.274139)"
       gradientUnits="userSpaceOnUse" />
    <filter
       inkscape:collect="always"
       id="filter4063"
       x="-0.24069887"
       width="1.4813977"
       y="-0.30262623"
       height="1.6052525">
      <feGaussianBlur
         inkscape:collect="always"
         stdDeviation="14.711907"
         id="feGaussianBlur4065" />
    </filter>
  </defs>
  <sodipodi:namedview
     id="base"
     pagecolor="#ffffff"
     bordercolor="#666666"
     borderopacity="1.0"
     inkscape:pageopacity="0.0"
     inkscape:pageshadow="2"
     inkscape:zoom="2.4969428"
     inkscape:cx="224.14049"
     inkscape:cy="153.11184"
     inkscape:document-units="px"
     inkscape:current-layer="layer1"
     showgrid="false"
     showguides="true"
     inkscape:guide-bbox="true"
     inkscape:window-width="1916"
     inkscape:window-height="1026"
     inkscape:window-x="0"
     inkscape:window-y="26"
     inkscape:window-maximized="1" />
  <metadata
     id="metadata7">
    <rdf:RDF>
      <cc:Work
         rdf:about="">
        <dc:format>image/svg+xml</dc:format>
        <dc:type
           rdf:resource="http://purl.org/dc/dcmitype/StillImage" />
        <dc:title />
      </cc:Work>
    </rdf:RDF>
  </metadata>
  <g
     inkscape:label="Layer 1"
     inkscape:groupmode="layer"
     id="layer1"
     transform="translate(0,-796.3622)">
    <path
       sodipodi:type="arc"
       style="opacity:0.26506025;fill:url(#radialGradient4025);fill-opacity:1;stroke:none;filter:url(#filter4063)"
       id="path3985"
       sodipodi:cx="120.92171"
       sodipodi:cy="141.02525"
       sodipodi:rx="73.345955"
       sodipodi:ry="58.336941"
       d="m 194.26766,141.02525 c 0,32.21861 -32.8381,58.33694 -73.34595,58.33694 -40.507855,0 -73.345958,-26.11833 -73.345958,-58.33694 0,-32.2186 32.838103,-58.336937 73.345958,-58.336937 28.21623,0 53.93077,12.873837 66.13291,33.109057"
       transform="matrix(1.4119049,0,0,1.0506194,-56.449671,1043.144)"
       sodipodi:start="0"
       sodipodi:end="5.8359757"
       sodipodi:open="true" />
    <path
       inkscape:connector-curvature="0"
       style="fill:#dbe3e2;fill-opacity:1;stroke:none"
       d="m 50.27813,817.11747 0,219.35603 166.72262,0 0,-187.57241 c -10.93332,-9.25258 -26.94202,-17.13462 -45.80913,-31.78362 z"
       id="rect3051"
       sodipodi:nodetypes="cccccc" />
    <path
       style="fill:#f4f4f6;fill-opacity:1;stroke:none"
       inkscape:transform-center-x="-5.9896366"
       inkscape:transform-center-y="-0.83414663"
       d="m 177.56973,859.63399 -6.30858,-42.85975 46.66199,32.45883 z"
       id="path3054"
       inkscape:connector-curvature="0"
       sodipodi:nodetypes="cccc" />
    <g
       style="font-size:39.23591995000000310px;font-style:normal;font-variant:normal;font-weight:normal;font-stretch:normal;line-height:125%;letter-spacing:0px;word-spacing:0px;fill:#939dac;fill-opacity:1;stroke:none;font-family:'A.C.M.E. Secret Agent';-inkscape-font-specification:'A.C.M.E. Secret Agent'"
       id="text4053">
      <path
         inkscape:connector-curvature="0"
         d="m 82.821536,926.15383 c 0,-0.13078 0.03924,-0.31388 0.117708,-0.5493 l 9.298913,-25.778 c 0.130777,-0.41849 0.653922,-0.62775 1.569437,-0.62778 l 1.137842,0 c 0.915491,3e-5 1.438636,0.20929 1.569437,0.62778 l 9.298917,25.81723 c 0.0784,0.18311 0.11768,0.35313 0.1177,0.51007 -2e-5,0.44468 -0.5624,0.66701 -1.68714,0.66701 l -0.31389,0 c -0.91552,0 -1.43867,-0.20926 -1.56943,-0.62777 l -2.31492,-6.43469 -11.535365,0 -2.236448,6.43469 c -0.13079,0.41851 -0.653935,0.62777 -1.569436,0.62777 l -0.19618,0 c -1.124764,0 -1.687145,-0.22233 -1.687145,-0.66701 m 6.787815,-9.37738 9.377388,0 -4.119775,-11.69231 -0.510067,-2.27568 -0.627775,2.27568 -4.119771,11.69231"
         style="fill:#939dac;font-family:Asap;-inkscape-font-specification:Asap"
         id="path4068"
         sodipodi:nodetypes="ccccccccssccccssccccccc" />
      <path
         inkscape:connector-curvature="0"
         d="m 122.19376,925.56529 0,-25.11099 c 0,-0.78469 0.39236,-1.17705 1.17708,-1.17707 l 7.02323,0 c 2.85113,2e-5 5.02218,0.6278 6.51316,1.88332 1.5171,1.25557 2.27567,2.94272 2.27569,5.06143 -2e-5,1.30789 -0.43162,2.55036 -1.29479,3.72742 -0.86321,1.17709 -1.87026,1.92257 -3.02117,2.23644 l 0,0.15695 c 0.39235,0.0523 0.96781,0.28774 1.72639,0.70624 0.75854,0.41853 1.37323,0.85013 1.84408,1.29479 0.49697,0.41853 0.94164,1.03322 1.33402,1.84409 0.39234,0.81088 0.58852,1.70023 0.58854,2.66804 -2e-5,5.25762 -3.41354,7.88642 -10.24057,7.88642 l -6.74858,0 c -0.78472,0 -1.17708,-0.39236 -1.17708,-1.17708 m 3.45276,-14.43882 4.55137,0 c 1.56942,2e-5 2.86421,-0.44465 3.88436,-1.33402 1.02011,-0.88933 1.53018,-2.01409 1.5302,-3.37429 -2e-5,-1.38631 -0.44469,-2.41952 -1.33402,-3.09963 -0.88937,-0.70623 -2.30186,-1.05935 -4.23748,-1.05937 l -4.39443,0 0,8.86731 m 0,12.63397 5.72845,0 c 1.72636,0 3.06038,-0.44467 4.00206,-1.33402 0.94165,-0.9155 1.41248,-2.13181 1.41249,-3.64894 -1e-5,-1.51711 -0.52316,-2.66803 -1.56943,-3.45276 -1.02015,-0.81087 -2.52419,-1.2163 -4.51213,-1.21632 l -5.06144,0 0,9.65204"
         style="fill:#939dac;font-family:Asap;-inkscape-font-specification:Asap"
         id="path4070" />
      <path
         inkscape:connector-curvature="0"
         d="m 155.75358,913.0098 c 0,-9.31197 4.23747,-13.96796 12.71244,-13.96799 1.88331,3e-5 3.59661,0.27468 5.1399,0.82396 1.56942,0.52317 2.35414,1.05939 2.35416,1.60867 -2e-5,0.36622 -0.17004,0.83706 -0.51007,1.41249 -0.31391,0.57548 -0.58856,0.86321 -0.82395,0.86319 -0.0523,2e-5 -0.34007,-0.14384 -0.86319,-0.43159 -0.49701,-0.28771 -1.21633,-0.57544 -2.15798,-0.86319 -0.94168,-0.28771 -1.96181,-0.43157 -3.0604,-0.4316 -3.16504,3e-5 -5.49304,0.87629 -6.98399,2.62881 -1.49097,1.75256 -2.23646,4.5383 -2.23645,8.35725 -1e-5,3.79281 0.7324,6.57856 2.19721,8.35725 1.49096,1.75254 3.77972,2.62881 6.86629,2.62881 1.17706,0 2.28874,-0.15694 3.33505,-0.47083 1.04627,-0.34005 1.85715,-0.66701 2.43263,-0.9809 0.57544,-0.34004 0.9024,-0.51007 0.9809,-0.51007 0.23539,0 0.52312,0.28773 0.86319,0.86319 0.34002,0.57546 0.51004,0.99398 0.51006,1.25555 -2e-5,0.60162 -0.82397,1.22939 -2.47186,1.88332 -1.62177,0.62778 -3.50509,0.94167 -5.64997,0.94167 -4.31596,0 -7.50715,-1.12477 -9.57357,-3.37429 -2.04027,-2.27568 -3.0604,-5.80691 -3.0604,-10.5937"
         style="fill:#939dac;font-family:Asap;-inkscape-font-specification:Asap"
         id="path4072"
         sodipodi:nodetypes="cccccccccsscsccscccscc" />
      <path
         inkscape:connector-curvature="0"
         d="m 84.457456,974.61019 0,-25.11099 c 0,-0.78469 0.392355,-1.17705 1.177077,-1.17707 l 7.925656,0 c 3.662006,0 6.591611,1.09863 8.788841,3.29581 2.22335,2.17108 3.33503,5.66307 3.33505,10.47599 -2e-5,4.7868 -1.1117,8.26571 -3.33505,10.43676 -2.19723,2.17105 -5.126835,3.25658 -8.788841,3.25658 l -7.925656,0 c -0.784722,0 -1.177081,-0.39236 -1.177077,-1.17708 m 3.452761,-1.80485 5.375321,0 c 2.641867,0 4.773687,-0.86319 6.395457,-2.58957 1.621725,-1.72637 2.432595,-4.43365 2.432615,-8.12184 -2e-5,-3.71431 -0.81089,-6.43467 -2.432615,-8.16107 -1.62177,-1.75251 -3.75359,-2.6288 -6.395457,-2.6288 l -5.375321,0 0,21.50128"
         style="fill:#939dac;font-family:Asap;-inkscape-font-specification:Asap"
         id="path4074"
         sodipodi:nodetypes="cscscscssccssccscc" />
      <path
         inkscape:connector-curvature="0"
         d="m 124.13798,974.61019 0,-25.11099 c 0,-0.78469 0.39236,-1.17705 1.17708,-1.17707 l 13.69334,0 c 0.52312,2e-5 0.7847,0.39238 0.78472,1.17707 l 0,0.62778 c -2e-5,0.78474 -0.2616,1.1771 -0.78472,1.17708 l -11.41766,0 0,8.94579 10.24058,0 c -3.01673,-6e-5 0.7847,0.39237 0.78472,1.17707 l 0,0.62778 c -2e-5,0.78473 -0.26159,1.17709 -0.78472,1.17708 l -10.24058,0 0,9.57356 11.45689,0 c 0.52313,0 0.7847,0.39236 0.78472,1.17708 l 0,0.62777 c -2e-5,0.78472 -0.26159,1.17708 -0.78472,1.17708 l -13.73257,0 c -0.78472,0 -1.17708,-0.39236 -1.17708,-1.17708"
         style="fill:#939dac;font-family:Asap;-inkscape-font-specification:Asap"
         id="path4076"
         sodipodi:nodetypes="cscccccccccccccsccssc" />
      <path
         inkscape:connector-curvature="0"
         d="m 159.12718,975.00255 0,-25.50335 c 0,-0.78469 0.39236,-1.17705 1.17708,-1.17707 l 12.35932,0 c 0.52312,2e-5 0.7847,0.39238 0.78472,1.17707 l 0,0.62778 c -2e-5,0.78474 -0.2616,1.1771 -0.78472,1.17708 l -10.08363,0 0,8.94579 9.37738,0 c 0.52313,10e-6 0.7847,0.39237 0.78472,1.17707 l 0,0.62778 c -2e-5,0.78473 -0.26159,1.17709 -0.78472,1.17708 l -9.37738,0 0,11.77077 c -1e-5,0.57546 -0.52316,0.86319 -1.56944,0.86319 l -0.31389,0 c -1.04629,0 -1.56944,-0.28773 -1.56944,-0.86319"
         style="fill:#939dac;font-family:Asap;-inkscape-font-specification:Asap"
         id="path4078"
         sodipodi:nodetypes="cscccccccccccccssc" />
    </g>
    <path
       style="fill:none;stroke:#939dac;stroke-width:2.27889657000000012;stroke-linecap:butt;stroke-linejoin:miter;stroke-miterlimit:4;stroke-opacity:1;stroke-dasharray:none"
       d="m 76.677772,934.21783 109.280698,0"
       id="path4059"
       inkscape:connector-curvature="0" />
    <path
       style="fill:none;stroke:#939dac;stroke-width:2.27889657000000012;stroke-linecap:butt;stroke-linejoin:miter;stroke-miterlimit:4;stroke-opacity:1;stroke-dasharray:none"
       d="m 112.81785,888.6125 0,100.24568"
       id="path4061"
       inkscape:connector-curvature="0" />
    <path
       style="fill:none;stroke:#939dac;stroke-width:2.27889657000000012;stroke-linecap:butt;stroke-linejoin:miter;stroke-miterlimit:4;stroke-opacity:1;stroke-dasharray:none"
       d="m 148.52768,888.6125 0,100.67598"
       id="path4063"
       inkscape:connector-curvature="0" />
    <path
       inkscape:connector-curvature="0"
       style="opacity:0.98999999000000005;fill:none;stroke:#939dac;stroke-width:2.27889657000000012;stroke-miterlimit:4;stroke-opacity:1;stroke-dashoffset:0"
       d="m 75.817299,887.75201 111.001661,0 0,101.10617 -111.001661,0 z"
       id="rect4065" />
  </g>
</svg>
