<?xml version="1.0" encoding="UTF-8" standalone="no"?>
<!-- Created with Inkscape (http://www.inkscape.org/) -->

<svg
   xmlns:dc="http://purl.org/dc/elements/1.1/"
   xmlns:cc="http://creativecommons.org/ns#"
   xmlns:rdf="http://www.w3.org/1999/02/22-rdf-syntax-ns#"
   xmlns:svg="http://www.w3.org/2000/svg"
   xmlns="http://www.w3.org/2000/svg"
   xmlns:xlink="http://www.w3.org/1999/xlink"
   xmlns:sodipodi="http://sodipodi.sourceforge.net/DTD/sodipodi-0.dtd"
   xmlns:inkscape="http://www.inkscape.org/namespaces/inkscape"
   width="256"
   height="256"
   id="svg2"
   version="1.1"
   inkscape:version="0.48.3.1 r9886"
   sodipodi:docname="image.svg">
  <defs
     id="defs4">
    <linearGradient
       inkscape:collect="always"
       id="linearGradient4019">
      <stop
         style="stop-color:#ffffff;stop-opacity:1;"
         offset="0"
         id="stop4021" />
      <stop
         style="stop-color:#ffffff;stop-opacity:0;"
         offset="1"
         id="stop4023" />
    </linearGradient>
    <linearGradient
       id="linearGradient3864">
      <stop
         style="stop-color:#ffffff;stop-opacity:1;"
         offset="0"
         id="stop3866" />
      <stop
         style="stop-color:#d5d5d5;stop-opacity:0;"
         offset="1"
         id="stop3868" />
    </linearGradient>
    <linearGradient
       id="linearGradient3815">
      <stop
         style="stop-color:#e0f2fe;stop-opacity:1;"
         offset="0"
         id="stop3817" />
      <stop
         style="stop-color:#075e99;stop-opacity:1;"
         offset="1"
         id="stop3819" />
    </linearGradient>
    <linearGradient
       id="linearGradient3805">
      <stop
         style="stop-color:#989898;stop-opacity:1;"
         offset="0"
         id="stop3807" />
      <stop
         style="stop-color:#2a2a2a;stop-opacity:0.94968551;"
         offset="1"
         id="stop3809" />
    </linearGradient>
    <linearGradient
       id="linearGradient3927">
      <stop
         id="stop3929"
         offset="0"
         style="stop-color:#9d9d9d;stop-opacity:1;" />
      <stop
         id="stop3931"
         offset="1"
         style="stop-color:#ffffff;stop-opacity:1;" />
    </linearGradient>
    <linearGradient
       id="linearGradient3909">
      <stop
         style="stop-color:#909090;stop-opacity:1;"
         offset="0"
         id="stop3911" />
      <stop
         style="stop-color:#cfcfcf;stop-opacity:1;"
         offset="1"
         id="stop3913" />
    </linearGradient>
    <linearGradient
       id="linearGradient3815-1">
      <stop
         style="stop-color:#e0f2fe;stop-opacity:1;"
         offset="0"
         id="stop3817-9" />
      <stop
         style="stop-color:#01131f;stop-opacity:1;"
         offset="1"
         id="stop3819-2" />
    </linearGradient>
    <radialGradient
       inkscape:collect="always"
       xlink:href="#linearGradient4019"
       id="radialGradient4025"
       cx="120.92171"
       cy="141.02525"
       fx="120.92171"
       fy="141.02525"
       r="127.60499"
       gradientTransform="matrix(0.67948535,0.00596595,-0.00506566,0.54621211,39.471564,63.274139)"
       gradientUnits="userSpaceOnUse" />
    <filter
       inkscape:collect="always"
       id="filter4063"
       x="-0.24069887"
       width="1.4813977"
       y="-0.30262623"
       height="1.6052525">
      <feGaussianBlur
         inkscape:collect="always"
         stdDeviation="14.711907"
         id="feGaussianBlur4065" />
    </filter>
  </defs>
  <sodipodi:namedview
     id="base"
     pagecolor="#ffffff"
     bordercolor="#666666"
     borderopacity="1.0"
     inkscape:pageopacity="0.0"
     inkscape:pageshadow="2"
     inkscape:zoom="1.2484714"
     inkscape:cx="51.628379"
     inkscape:cy="159.73658"
     inkscape:document-units="px"
     inkscape:current-layer="layer1"
     showgrid="false"
     showguides="true"
     inkscape:guide-bbox="true"
     inkscape:window-width="1913"
     inkscape:window-height="1026"
     inkscape:window-x="0"
     inkscape:window-y="26"
     inkscape:window-maximized="1" />
  <metadata
     id="metadata7">
    <rdf:RDF>
      <cc:Work
         rdf:about="">
        <dc:format>image/svg+xml</dc:format>
        <dc:type
           rdf:resource="http://purl.org/dc/dcmitype/StillImage" />
        <dc:title></dc:title>
      </cc:Work>
    </rdf:RDF>
  </metadata>
  <g
     inkscape:groupmode="layer"
     id="layer2"
     inkscape:label="ref"
     style="display:inline" />
  <g
     inkscape:label="Layer 1"
     inkscape:groupmode="layer"
     id="layer1"
     transform="translate(0,-796.3622)">
    <path
       sodipodi:type="arc"
       style="opacity:0.26506025;fill:url(#radialGradient4025);fill-opacity:1;stroke:none;filter:url(#filter4063)"
       id="path3985"
       sodipodi:cx="120.92171"
       sodipodi:cy="141.02525"
       sodipodi:rx="73.345955"
       sodipodi:ry="58.336941"
       d="m 194.26766,141.02525 c 0,32.21861 -32.8381,58.33694 -73.34595,58.33694 -40.507855,0 -73.345958,-26.11833 -73.345958,-58.33694 0,-32.2186 32.838103,-58.336937 73.345958,-58.336937 28.21623,0 53.93077,12.873837 66.13291,33.109057"
       transform="matrix(1.4119049,0,0,1.0506194,-56.449671,1043.144)"
       sodipodi:start="0"
       sodipodi:end="5.8359757"
       sodipodi:open="true" />
    <g
       id="g4410"
       transform="matrix(0.99661564,0.08220254,-0.08220254,0.99661564,76.506605,-7.2214428)">
      <path
         sodipodi:nodetypes="ccccc"
         inkscape:connector-curvature="0"
         id="rect3777"
         d="M 15.437075,830.48805 220.03626,814.19386 236.471,1020.5578 31.871815,1036.852 z"
         style="opacity:0.98999999;fill:#41707b;fill-opacity:1;stroke:#f1f1f1;stroke-width:10.00522804;stroke-miterlimit:4;stroke-opacity:1" />
      <path
         sodipodi:nodetypes="csscccccssssscccsscc"
         inkscape:connector-curvature="0"
         id="path4353"
         d="m 87.575382,945.02624 c 0,0 -2.674931,19.09252 -12.101357,32.42956 -5.092059,7.20449 0.676019,3.98263 -30.082463,28.6679 -6.093306,4.8903 -4.32902,0.1195 -10.206696,0.069 C 30.549058,950.31464 25.82364,894.22 21.078573,835.22648 l 194.236237,-16.10541 13.15861,170.69711 c 0,0 -3.85184,1.67032 -4.17569,-7.05936 -4.05765,-9.07518 -15.44898,-16.3445 -18.14955,-18.64667 -2.70062,-2.30218 -21.03671,-21.81912 -21.16951,-23.4867 -0.13281,-1.6676 -3.91436,-12.27458 -4.04716,-13.94219 -0.13281,-1.6676 -12.23355,-64.05503 -14.71649,-68.89182 -2.48291,-4.83679 -15.81619,-24.75213 -23.32039,-24.1545 -7.5042,0.59763 -27.36409,-1.1771 -27.36409,-1.1771 l -18.531838,14.90128 -9.895032,17.98933 c 0,0 -5.139334,9.21973 -3.958812,18.77522 1.180546,9.55549 -0.564739,40.32119 2.633906,48.87686 3.19865,8.5557 1.796663,12.02371 1.796663,12.02371 z"
         style="fill:#d3bc5f;fill-opacity:0.54901961;stroke:none" />
      <g
         transform="matrix(1.795917,-0.14302607,0.14302607,1.795917,-219.3518,-663.83015)"
         id="g4383">
        <g
           id="g4377">
          <path
             inkscape:connector-curvature="0"
             id="path4349"
             d="m 117.03761,901.16654 0.69641,6.03557 c 0,0 -6.96413,2.78565 -8.35695,4.41062 -1.39282,1.62496 -8.35695,9.51764 -9.05336,12.30328 -0.696415,2.78565 1.85709,7.89268 6.96413,8.82123 5.10702,0.92854 19.73168,3.24992 19.73168,3.24992 0,0 14.62467,-9.51764 16.48177,-11.37474 1.85711,-1.85709 -9.28551,-12.07115 -8.5891,-16.7139 0.69642,-4.64275 -5.33915,-2.55351 -10.21404,-4.17847 -4.87489,-1.62496 -7.66054,-2.55351 -7.66054,-2.55351 z"
             style="fill:#d3bc5f;fill-opacity:1;stroke:none;display:inline" />
          <path
             sodipodi:nodetypes="ccsssscsssssscsssccssssscccscssccscssccssscscsc"
             inkscape:connector-curvature="0"
             id="path4335"
             d="m 117.07953,846.488 -3.76562,5.9174 c 0,0 -7.39271,1.96474 -7.55685,4.09863 -0.16415,2.13391 -2.78376,12.4695 -1.30644,12.96193 1.47731,0.49244 4.14025,-1.37795 7.18621,-0.27701 1.03555,0.37429 3.38211,2.60833 0.75577,4.74222 -2.62632,2.13391 -7.78828,-0.85329 -7.78828,-0.85329 0,0 0.18403,5.92955 0.51233,8.55589 0.32829,2.62634 -0.34075,5.25309 1.79315,8.04357 2.1339,2.79048 5.59183,8.20199 7.88986,8.53028 2.29806,0.3283 10.34804,-3.79495 11.16878,-4.94397 0.82073,-1.14902 4.32544,-5.64768 5.63862,-8.93061 1.31316,-3.28292 2.55964,-6.14775 1.73891,-9.92311 -0.82072,-3.77535 -0.81971,-5.91739 -0.81971,-5.91739 0,0 4.9291,-2.1326 0.333,-5.25138 -4.59609,-3.11877 -2.46832,-8.69814 -7.55684,-9.68301 -5.08854,-0.98488 -10.51892,0.49443 -9.86235,-1.63946 0.65659,-2.1339 1.63946,-5.43069 1.63946,-5.43069 z m 3.12521,21.82522 c 0,0 9.35372,1.17163 10.50275,2.48479 1.14902,1.31318 -3.34609,2.77923 -6.62901,3.27167 -3.28292,0.49243 -4.42064,-2.3766 -5.25137,-0.40421 -0.99655,2.36603 -0.42073,2.59173 -2.22634,2.92002 -1.8056,0.32828 -0.1721,-4.00276 -0.008,-5.48007 0.16414,-1.47732 3.61192,-2.7922 3.61192,-2.7922 z m -1.33408,13.9603 c 0,0 0.27746,0.54104 0.11332,1.19761 -0.54137,1.55613 -1.88533,2.27174 -3.08033,2.27647 -2.54526,0.01 -1.84875,-1.4058 -3.2025,-2.30186 0.27941,0.0802 1.25226,0.17484 1.6118,0.13488 1.47732,-0.16414 2.07008,0.527 2.95451,-0.42209 0.29578,-0.31741 1.6032,-0.88501 1.6032,-0.88501 z m -6.86319,0.33368 c 0,0 0.78808,0.3604 1.19038,0.80953 -0.85407,-0.25391 -1.19038,-0.80953 -1.19038,-0.80953 z m 6.39054,5.24231 c 0.54886,-0.0206 3.96527,-0.65978 3.62549,-0.47765 -1.594,0.85448 -4.76465,1.30644 -4.76465,1.30644 l -6.62275,-0.2967 c 0.46166,0.0693 1.57828,-0.57986 1.98864,-0.53883 1.2311,0.12311 4.12668,0.0683 5.77327,0.007 z m -1.65709,2.58204 c 0.50013,-0.008 1.30668,-0.45688 1.51187,-0.2517 0.82073,0.82073 -0.79921,2.71585 -3.09725,1.89511 -2.29805,-0.82073 -1.84163,-1.7572 -1.84163,-1.7572 0,0 1.9266,0.13687 3.42701,0.11379 z"
             style="fill:#d3bc5f;fill-opacity:1;stroke:none" />
          <path
             inkscape:connector-curvature="0"
             id="path4355"
             d="m 107.75211,869.94403 c 0,0 -1.62497,0.34821 -1.39282,1.04463 0.23213,0.6964 1.85709,-0.34822 3.36599,0 1.50889,0.3482 2.32137,0.3482 2.32137,0.3482 z"
             style="fill:#d3bc5f;fill-opacity:1;stroke:none" />
          <path
             inkscape:connector-curvature="0"
             id="path4357"
             d="m 122.02856,869.7119 -2.55351,1.39282 c 0,0 2.20531,-0.34821 3.01779,-0.34821 0.81248,0 2.43744,0.69642 3.59813,0.92855 1.16069,0.23214 -0.23213,-1.50889 -0.23213,-1.50889 l -3.366,-0.58034 z"
             style="fill:#d3bc5f;fill-opacity:1;stroke:none" />
        </g>
      </g>
      <rect
         transform="matrix(0.99684377,-0.07938822,0.07938822,0.99684377,0,0)"
         y="1005.3743"
         x="-48.6423"
         height="28.434772"
         width="200.64537"
         id="rect4375"
         style="fill:#f1f1f1;fill-opacity:0.99215686;stroke:none" />
    </g>
  </g>
</svg>
