<?xml version="1.0" encoding="UTF-8" standalone="no"?>
<!-- Created with Inkscape (http://www.inkscape.org/) -->

<svg
   xmlns:dc="http://purl.org/dc/elements/1.1/"
   xmlns:cc="http://creativecommons.org/ns#"
   xmlns:rdf="http://www.w3.org/1999/02/22-rdf-syntax-ns#"
   xmlns:svg="http://www.w3.org/2000/svg"
   xmlns="http://www.w3.org/2000/svg"
   xmlns:xlink="http://www.w3.org/1999/xlink"
   xmlns:sodipodi="http://sodipodi.sourceforge.net/DTD/sodipodi-0.dtd"
   xmlns:inkscape="http://www.inkscape.org/namespaces/inkscape"
   width="256"
   height="256"
   id="svg2"
   version="1.1"
   inkscape:version="0.48.3.1 r9886"
   sodipodi:docname="text-x-javascript.svg">
  <defs
     id="defs4">
    <linearGradient
       inkscape:collect="always"
       id="linearGradient4019">
      <stop
         style="stop-color:#ffffff;stop-opacity:1;"
         offset="0"
         id="stop4021" />
      <stop
         style="stop-color:#ffffff;stop-opacity:0;"
         offset="1"
         id="stop4023" />
    </linearGradient>
    <linearGradient
       id="linearGradient3864">
      <stop
         style="stop-color:#ffffff;stop-opacity:1;"
         offset="0"
         id="stop3866" />
      <stop
         style="stop-color:#d5d5d5;stop-opacity:0;"
         offset="1"
         id="stop3868" />
    </linearGradient>
    <linearGradient
       id="linearGradient3815">
      <stop
         style="stop-color:#e0f2fe;stop-opacity:1;"
         offset="0"
         id="stop3817" />
      <stop
         style="stop-color:#075e99;stop-opacity:1;"
         offset="1"
         id="stop3819" />
    </linearGradient>
    <linearGradient
       id="linearGradient3805">
      <stop
         style="stop-color:#989898;stop-opacity:1;"
         offset="0"
         id="stop3807" />
      <stop
         style="stop-color:#2a2a2a;stop-opacity:0.94968551;"
         offset="1"
         id="stop3809" />
    </linearGradient>
    <linearGradient
       id="linearGradient3927">
      <stop
         id="stop3929"
         offset="0"
         style="stop-color:#9d9d9d;stop-opacity:1;" />
      <stop
         id="stop3931"
         offset="1"
         style="stop-color:#ffffff;stop-opacity:1;" />
    </linearGradient>
    <linearGradient
       id="linearGradient3909">
      <stop
         style="stop-color:#909090;stop-opacity:1;"
         offset="0"
         id="stop3911" />
      <stop
         style="stop-color:#cfcfcf;stop-opacity:1;"
         offset="1"
         id="stop3913" />
    </linearGradient>
    <linearGradient
       id="linearGradient3815-1">
      <stop
         style="stop-color:#e0f2fe;stop-opacity:1;"
         offset="0"
         id="stop3817-9" />
      <stop
         style="stop-color:#01131f;stop-opacity:1;"
         offset="1"
         id="stop3819-2" />
    </linearGradient>
    <radialGradient
       inkscape:collect="always"
       xlink:href="#linearGradient4019"
       id="radialGradient4025"
       cx="120.92171"
       cy="141.02525"
       fx="120.92171"
       fy="141.02525"
       r="127.60499"
       gradientTransform="matrix(0.67948535,0.00596595,-0.00506566,0.54621211,39.471564,63.274139)"
       gradientUnits="userSpaceOnUse" />
    <filter
       inkscape:collect="always"
       id="filter4063"
       x="-0.24069887"
       width="1.4813977"
       y="-0.30262623"
       height="1.6052525">
      <feGaussianBlur
         inkscape:collect="always"
         stdDeviation="14.711907"
         id="feGaussianBlur4065" />
    </filter>
  </defs>
  <sodipodi:namedview
     id="base"
     pagecolor="#ffffff"
     bordercolor="#666666"
     borderopacity="1.0"
     inkscape:pageopacity="0.0"
     inkscape:pageshadow="2"
     inkscape:zoom="2.4969428"
     inkscape:cx="168.1454"
     inkscape:cy="136.43074"
     inkscape:document-units="px"
     inkscape:current-layer="layer1"
     showgrid="false"
     showguides="true"
     inkscape:guide-bbox="true"
     inkscape:window-width="1913"
     inkscape:window-height="1026"
     inkscape:window-x="0"
     inkscape:window-y="26"
     inkscape:window-maximized="1" />
  <metadata
     id="metadata7">
    <rdf:RDF>
      <cc:Work
         rdf:about="">
        <dc:format>image/svg+xml</dc:format>
        <dc:type
           rdf:resource="http://purl.org/dc/dcmitype/StillImage" />
        <dc:title />
      </cc:Work>
    </rdf:RDF>
  </metadata>
  <g
     inkscape:label="Layer 1"
     inkscape:groupmode="layer"
     id="layer1"
     transform="translate(0,-796.3622)">
    <path
       sodipodi:type="arc"
       style="opacity:0.26506025;fill:url(#radialGradient4025);fill-opacity:1;stroke:none;filter:url(#filter4063)"
       id="path3985"
       sodipodi:cx="120.92171"
       sodipodi:cy="141.02525"
       sodipodi:rx="73.345955"
       sodipodi:ry="58.336941"
       d="m 194.26766,141.02525 c 0,32.21861 -32.8381,58.33694 -73.34595,58.33694 -40.507855,0 -73.345958,-26.11833 -73.345958,-58.33694 0,-32.2186 32.838103,-58.336937 73.345958,-58.336937 28.21623,0 53.93077,12.873837 66.13291,33.109057"
       transform="matrix(1.4119049,0,0,1.0506194,-56.449671,1043.144)"
       sodipodi:start="0"
       sodipodi:end="5.8359757"
       sodipodi:open="true" />
    <path
       inkscape:connector-curvature="0"
       style="fill:#ff9955;fill-opacity:1;stroke:none"
       d="m 50.27813,817.11747 0,219.35603 166.72262,0 0,-187.57241 c -10.93332,-9.25258 -26.94202,-17.13462 -45.80913,-31.78362 z"
       id="rect3051"
       sodipodi:nodetypes="cccccc" />
    <path
       transform="matrix(1.0810446,0,0,1.1409536,-253.29061,789.71079)"
       style="fill:#ffccaa;fill-opacity:1;stroke:none"
       inkscape:transform-center-x="-5.9896366"
       inkscape:transform-center-y="-0.83414663"
       d="m 398.55926,61.28488 -5.83563,-37.564857 43.1638,28.448868 z"
       id="path3054"
       inkscape:connector-curvature="0"
       sodipodi:nodetypes="cccc" />
    <g
       id="g3231"
       transform="translate(-2.4029385,-13.216162)"
       style="opacity:0.65979997000000001;fill:#d45500;stroke:#d45500">
      <path
         transform="translate(0,796.3622)"
         inkscape:connector-curvature="0"
         id="path3813"
         d="m 81.699909,94.202141 101.724401,0"
         style="fill:#d45500;fill-opacity:1;stroke:#d45500;stroke-width:3;stroke-linecap:butt;stroke-linejoin:miter;stroke-miterlimit:4;stroke-opacity:1;stroke-dasharray:none" />
      <path
         inkscape:connector-curvature="0"
         id="path3813-1"
         d="m 81.699908,906.18344 101.724392,0"
         style="fill:#d45500;fill-opacity:1;stroke:#d45500;stroke-width:3;stroke-linecap:butt;stroke-linejoin:miter;stroke-miterlimit:4;stroke-opacity:1;stroke-dasharray:none" />
      <path
         inkscape:connector-curvature="0"
         id="path3813-13"
         d="m 81.299414,921.6023 101.724396,0"
         style="fill:#d45500;fill-opacity:1;stroke:#d45500;stroke-width:3;stroke-linecap:butt;stroke-linejoin:miter;stroke-miterlimit:4;stroke-opacity:1;stroke-dasharray:none" />
      <path
         inkscape:connector-curvature="0"
         id="path3813-1-9"
         d="m 81.299414,937.2214 101.724386,0"
         style="fill:#d45500;fill-opacity:1;stroke:#d45500;stroke-width:3;stroke-linecap:butt;stroke-linejoin:miter;stroke-miterlimit:4;stroke-opacity:1;stroke-dasharray:none" />
      <path
         inkscape:connector-curvature="0"
         id="path3813-7"
         d="m 81.299418,952.8405 101.724402,0"
         style="fill:#d45500;fill-opacity:1;stroke:#d45500;stroke-width:3;stroke-linecap:butt;stroke-linejoin:miter;stroke-miterlimit:4;stroke-opacity:1;stroke-dasharray:none" />
      <path
         inkscape:connector-curvature="0"
         id="path3813-1-2"
         d="m 81.299417,968.4596 101.724393,0"
         style="fill:#d45500;fill-opacity:1;stroke:#d45500;stroke-width:3;stroke-linecap:butt;stroke-linejoin:miter;stroke-miterlimit:4;stroke-opacity:1;stroke-dasharray:none" />
    </g>
    <g
       style="font-size:128.44012451000000397px;font-style:normal;font-variant:normal;font-weight:normal;font-stretch:normal;line-height:125%;letter-spacing:0px;word-spacing:0px;fill:#ffffff;fill-opacity:1;stroke:none;font-family:'A.C.M.E. Secret Agent';-inkscape-font-specification:'A.C.M.E. Secret Agent'"
       id="text4132">
      <path
         d="m 79.937473,995.47342 c -10e-7,-0.85626 0.256879,-2.22629 0.77064,-4.11008 0.513759,-1.96941 1.198772,-2.95411 2.055042,-2.95412 0.08562,10e-6 1.027517,0.21407 2.825683,0.6422 1.88378,0.34251 3.639127,0.51377 5.266045,0.51376 6.336362,10e-6 10.917387,-1.24158 13.743097,-3.72477 2.82565,-2.48316 4.23849,-6.50761 4.23852,-12.07337 l 0,-62.29346 c -3e-5,-1.8837 1.7125,-2.82559 5.13761,-2.82568 l 1.02752,0 c 3.42503,9e-5 5.13756,0.94198 5.1376,2.82568 l 0,61.00906 c -4e-5,18.06725 -9.07647,27.10087 -27.229305,27.10087 -8.648307,0 -12.972453,-1.37003 -12.972452,-4.11009"
         style="fill:#ffffff;font-family:Asap;-inkscape-font-specification:Asap"
         id="path4137" />
      <path
         d="m 135.34534,990.20738 c -1e-5,-1.02751 0.55657,-2.44035 1.66972,-4.23853 1.19877,-1.79814 2.14066,-2.69722 2.82568,-2.69724 0.25687,2e-5 1.3272,0.55659 3.211,1.66972 1.88378,1.02754 4.5382,2.09787 7.96329,3.21101 3.42505,1.11315 7.32106,1.66973 11.68805,1.66972 4.45256,1e-5 8.22013,-1.41283 11.30273,-4.23853 3.16815,-2.82566 4.75224,-6.42198 4.75229,-10.78897 -5e-5,-4.36693 -1.4557,-7.83481 -4.36697,-10.40365 -2.82572,-2.56876 -6.2936,-4.58099 -10.40365,-6.03668 -4.02448,-1.54124 -8.09175,-3.16815 -12.20181,-4.88073 -4.1101,-1.71249 -7.62079,-4.36691 -10.53209,-7.96329 -2.82569,-3.59626 -4.23853,-8.17729 -4.23852,-13.74309 -1e-5,-7.10694 2.6116,-12.80112 7.83485,-17.08254 5.22321,-4.36687 12.11615,-6.55035 20.67886,-6.55044 4.19567,9e-5 8.69107,0.77073 13.48621,2.31192 4.79504,1.54137 7.19259,3.38234 7.19265,5.52293 -6e-5,0.94197 -0.55663,2.312 -1.66973,4.11008 -1.02757,1.79824 -1.84102,2.69732 -2.44036,2.69724 -0.34256,8e-5 -1.24164,-0.42805 -2.69724,-1.2844 -4.36701,-2.39747 -9.07648,-3.59624 -14.12841,-3.59632 -5.05201,8e-5 -9.07647,1.24167 -12.07338,3.72476 -2.99695,2.39763 -4.49542,5.95113 -4.4954,10.66053 -2e-5,4.70953 2.78285,8.39148 8.34861,11.04585 2.39752,1.1132 5.09476,2.22635 8.09173,3.33945 2.99689,1.02757 5.95101,2.26915 8.86236,3.72476 2.99689,1.37007 5.69413,2.99698 8.09173,4.88072 2.48312,1.88383 4.49535,4.45263 6.03669,7.70641 1.54122,3.25385 2.31186,7.02142 2.31192,11.30273 -6e-5,7.87768 -2.56886,14.08561 -7.70641,18.62382 -5.13765,4.45259 -11.64528,6.67889 -19.5229,6.67889 -7.87768,0 -14.51375,-1.07034 -19.90822,-3.21101 -5.30886,-2.14066 -7.96329,-4.1957 -7.96328,-6.16512"
         style="fill:#ffffff;font-family:Asap;-inkscape-font-specification:Asap"
         id="path4139" />
    </g>
  </g>
</svg>
