<?xml version="1.0" encoding="UTF-8" standalone="no"?>
<!-- Created with Inkscape (http://www.inkscape.org/) -->

<svg
   xmlns:dc="http://purl.org/dc/elements/1.1/"
   xmlns:cc="http://creativecommons.org/ns#"
   xmlns:rdf="http://www.w3.org/1999/02/22-rdf-syntax-ns#"
   xmlns:svg="http://www.w3.org/2000/svg"
   xmlns="http://www.w3.org/2000/svg"
   xmlns:xlink="http://www.w3.org/1999/xlink"
   xmlns:sodipodi="http://sodipodi.sourceforge.net/DTD/sodipodi-0.dtd"
   xmlns:inkscape="http://www.inkscape.org/namespaces/inkscape"
   width="256"
   height="256"
   id="svg2"
   version="1.1"
   inkscape:version="0.48.3.1 r9886"
   sodipodi:docname="text-x-c.svg">
  <defs
     id="defs4">
    <linearGradient
       inkscape:collect="always"
       id="linearGradient4019">
      <stop
         style="stop-color:#ffffff;stop-opacity:1;"
         offset="0"
         id="stop4021" />
      <stop
         style="stop-color:#ffffff;stop-opacity:0;"
         offset="1"
         id="stop4023" />
    </linearGradient>
    <linearGradient
       id="linearGradient3864">
      <stop
         style="stop-color:#ffffff;stop-opacity:1;"
         offset="0"
         id="stop3866" />
      <stop
         style="stop-color:#d5d5d5;stop-opacity:0;"
         offset="1"
         id="stop3868" />
    </linearGradient>
    <linearGradient
       id="linearGradient3815">
      <stop
         style="stop-color:#e0f2fe;stop-opacity:1;"
         offset="0"
         id="stop3817" />
      <stop
         style="stop-color:#075e99;stop-opacity:1;"
         offset="1"
         id="stop3819" />
    </linearGradient>
    <linearGradient
       id="linearGradient3805">
      <stop
         style="stop-color:#989898;stop-opacity:1;"
         offset="0"
         id="stop3807" />
      <stop
         style="stop-color:#2a2a2a;stop-opacity:0.94968551;"
         offset="1"
         id="stop3809" />
    </linearGradient>
    <linearGradient
       id="linearGradient3927">
      <stop
         id="stop3929"
         offset="0"
         style="stop-color:#9d9d9d;stop-opacity:1;" />
      <stop
         id="stop3931"
         offset="1"
         style="stop-color:#ffffff;stop-opacity:1;" />
    </linearGradient>
    <linearGradient
       id="linearGradient3909">
      <stop
         style="stop-color:#909090;stop-opacity:1;"
         offset="0"
         id="stop3911" />
      <stop
         style="stop-color:#cfcfcf;stop-opacity:1;"
         offset="1"
         id="stop3913" />
    </linearGradient>
    <linearGradient
       id="linearGradient3815-1">
      <stop
         style="stop-color:#e0f2fe;stop-opacity:1;"
         offset="0"
         id="stop3817-9" />
      <stop
         style="stop-color:#01131f;stop-opacity:1;"
         offset="1"
         id="stop3819-2" />
    </linearGradient>
    <radialGradient
       inkscape:collect="always"
       xlink:href="#linearGradient4019"
       id="radialGradient4025"
       cx="120.92171"
       cy="141.02525"
       fx="120.92171"
       fy="141.02525"
       r="127.60499"
       gradientTransform="matrix(0.67948535,0.00596595,-0.00506566,0.54621211,39.471564,63.274139)"
       gradientUnits="userSpaceOnUse" />
  </defs>
  <sodipodi:namedview
     id="base"
     pagecolor="#ffffff"
     bordercolor="#666666"
     borderopacity="1.0"
     inkscape:pageopacity="0.0"
     inkscape:pageshadow="2"
     inkscape:zoom="2.4969428"
     inkscape:cx="88.05616"
     inkscape:cy="112.14458"
     inkscape:document-units="px"
     inkscape:current-layer="layer1"
     showgrid="false"
     showguides="true"
     inkscape:guide-bbox="true"
     inkscape:window-width="1916"
     inkscape:window-height="1026"
     inkscape:window-x="0"
     inkscape:window-y="26"
     inkscape:window-maximized="1" />
  <metadata
     id="metadata7">
    <rdf:RDF>
      <cc:Work
         rdf:about="">
        <dc:format>image/svg+xml</dc:format>
        <dc:type
           rdf:resource="http://purl.org/dc/dcmitype/StillImage" />
        <dc:title></dc:title>
      </cc:Work>
    </rdf:RDF>
  </metadata>
  <g
     inkscape:label="Layer 1"
     inkscape:groupmode="layer"
     id="layer1"
     transform="translate(0,-796.3622)">
    <path
       inkscape:connector-curvature="0"
       style="fill:#5fbcd3;fill-opacity:1;stroke:none"
       d="m 50.27813,817.11747 0,219.35603 166.72262,0 0,-187.57241 c -10.93332,-9.25258 -26.94202,-17.13462 -45.80913,-31.78362 z"
       id="rect3051"
       sodipodi:nodetypes="cccccc" />
    <path
       style="fill:#dbe3e2;fill-opacity:1;stroke:none"
       inkscape:transform-center-x="-5.9896366"
       inkscape:transform-center-y="-0.83414663"
       d="m 177.56973,859.63399 -6.30858,-42.85975 46.66199,32.45883 z"
       id="path3054"
       inkscape:connector-curvature="0"
       sodipodi:nodetypes="cccc" />
    <path
       inkscape:connector-curvature="0"
       id="path4143"
       style="font-size:16.100811px;font-style:normal;font-variant:normal;font-weight:normal;font-stretch:normal;line-height:125%;letter-spacing:0px;word-spacing:0px;fill:#d7f4ee;fill-opacity:1;stroke:none;font-family:Asap;-inkscape-font-specification:Asap"
       d="m 59.694936,863.09881 c -0.193873,1e-5 -0.290808,-0.14539 -0.290808,-0.4362 l 0,-0.2472 c 0,-0.2908 0.09694,-0.4362 0.290808,-0.4362 l 1.323177,0 0.378051,-2.13745 -1.177774,0 c -0.193872,10e-6 -0.290809,-0.14539 -0.290808,-0.4362 l 0,-0.2472 c -10e-7,-0.2908 0.09694,-0.4362 0.290808,-0.43621 l 1.366799,0 0.450753,-2.42825 c 0.0097,-0.0776 0.02908,-0.1357 0.05816,-0.17448 0.07755,-0.0969 0.271418,-0.14539 0.581616,-0.1454 l 0.05816,0 c 0.271417,10e-6 0.407127,0.0727 0.407131,0.2181 l -0.479833,2.53003 1.730309,0 0.436212,-2.42825 c 0.0097,-0.0776 0.02908,-0.1357 0.05816,-0.17448 0.07754,-0.0969 0.271415,-0.14539 0.581617,-0.1454 l 0.0727,0 c 0.271414,10e-6 0.407125,0.0727 0.407132,0.2181 l -0.450753,2.53003 0.988748,0 c 0.193865,10e-6 0.290801,0.14541 0.290808,0.43621 l 0,0.2472 c -7e-6,0.29081 -0.09694,0.43621 -0.290808,0.4362 l -1.206855,0 -0.36351,2.13745 1.105072,0 c 0.193865,0 0.290801,0.1454 0.290808,0.4362 l 0,0.2472 c -7e-6,0.29081 -0.09694,0.43621 -0.290808,0.4362 l -1.337719,0 -0.450752,2.55912 c -0.02909,0.11632 -0.0824,0.19872 -0.159945,0.24719 -0.07756,0.0485 -0.232651,0.0727 -0.465293,0.0727 l -0.05816,0 c -0.271425,0 -0.407135,-0.0824 -0.407132,-0.24719 l 0.465294,-2.63182 -1.715768,0 -0.465294,2.55912 c -0.01939,0.0776 -0.03878,0.13571 -0.05816,0.17449 -0.06786,0.0969 -0.256882,0.1454 -0.567076,0.1454 l -0.05816,0 c -0.271421,0 -0.407131,-0.0824 -0.40713,-0.24719 l 0.465293,-2.63182 -1.105072,0 m 2.413709,-1.1196 1.715768,0 0.378051,-2.13745 -1.715768,0 -0.378051,2.13745" />
    <path
       inkscape:connector-curvature="0"
       id="path4145"
       style="font-size:16.100811px;font-style:normal;font-variant:normal;font-weight:normal;font-stretch:normal;line-height:125%;letter-spacing:0px;word-spacing:0px;fill:#d7f4ee;fill-opacity:1;stroke:none;font-family:Asap;-inkscape-font-specification:Asap"
       d="m 68.843127,856.51201 c -0.387746,10e-6 -0.581618,-0.10662 -0.581617,-0.31989 l 0,-0.85788 c -10e-7,-0.21325 0.193871,-0.31988 0.581617,-0.31989 l 0.174484,0 c 0.387743,10e-6 0.581615,0.10664 0.581618,0.31989 l 0,0.85788 c -3e-6,0.21327 -0.193875,0.3199 -0.581618,0.31989 l -0.174484,0 m -0.523455,9.14592 0,-7.02302 c -10e-7,-0.21325 0.19387,-0.31988 0.581617,-0.31988 l 0.05816,0 c 0.387742,0 0.581615,0.10663 0.581617,0.31988 l 0,7.02302 c -2e-6,0.21326 -0.193875,0.31989 -0.581617,0.31989 l -0.05816,0 c -0.387747,0 -0.581618,-0.10663 -0.581617,-0.31989" />
    <path
       inkscape:connector-curvature="0"
       id="path4147"
       style="font-size:16.100811px;font-style:normal;font-variant:normal;font-weight:normal;font-stretch:normal;line-height:125%;letter-spacing:0px;word-spacing:0px;fill:#d7f4ee;fill-opacity:1;stroke:none;font-family:Asap;-inkscape-font-specification:Asap"
       d="m 72.109267,865.65793 0,-5.10369 c -2e-6,-0.5913 -0.02424,-1.01297 -0.0727,-1.26501 -0.06786,-0.34896 -0.101784,-0.53799 -0.101783,-0.56708 -1e-6,-0.11631 0.09209,-0.19871 0.276268,-0.24719 0.184177,-0.0582 0.324734,-0.0872 0.421672,-0.0872 0.106627,1e-5 0.179329,0.01 0.218106,0.0291 0.03877,0.0194 0.0727,0.0534 0.101783,0.10179 0.03877,0.0387 0.06785,0.0824 0.08724,0.13086 0.01939,0.0388 0.03877,0.0969 0.05816,0.17448 0.01938,0.0679 0.03393,0.12603 0.04362,0.17449 0.01939,0.0388 0.03393,0.10179 0.04362,0.18902 0.01938,0.0776 0.03393,0.13088 0.04362,0.15995 0.649469,-0.72701 1.371642,-1.09052 2.166522,-1.09053 0.804564,1e-5 1.415261,0.20842 1.832092,0.62524 0.426512,0.41683 0.639771,0.9936 0.639778,1.7303 l 0,5.04553 c -7e-6,0.21326 -0.193879,0.31989 -0.581617,0.31989 l -0.05816,0 c -0.387749,0 -0.581622,-0.10663 -0.581616,-0.31989 l 0,-4.9292 c -6e-6,-0.4459 -0.13087,-0.79002 -0.392591,-1.03237 -0.25204,-0.25203 -0.615549,-0.37804 -1.090531,-0.37805 -0.697944,10e-6 -1.30864,0.33928 -1.832092,1.01783 l 0,5.32179 c -3e-6,0.21326 -0.193874,0.31989 -0.581617,0.31989 l -0.05816,0 c -0.387745,0 -0.581618,-0.10663 -0.581616,-0.31989" />
    <path
       inkscape:connector-curvature="0"
       id="path4149"
       style="font-size:16.100811px;font-style:normal;font-variant:normal;font-weight:normal;font-stretch:normal;line-height:125%;letter-spacing:0px;word-spacing:0px;fill:#d7f4ee;fill-opacity:1;stroke:none;font-family:Asap;-inkscape-font-specification:Asap"
       d="m 79.708677,862.11007 c -10e-7,-0.72702 0.09694,-1.35225 0.290808,-1.87572 0.203565,-0.52344 0.474986,-0.92572 0.814264,-1.20684 0.639776,-0.51376 1.42011,-0.77064 2.341006,-0.77065 0.562225,1e-5 1.066292,0.0679 1.512203,0.20356 0.4459,0.13573 0.668853,0.29082 0.668859,0.4653 -6e-6,0.12602 -0.05817,0.29081 -0.174485,0.49438 -0.106636,0.19387 -0.203572,0.29081 -0.290808,0.2908 -0.0097,10e-6 -0.02909,-0.005 -0.05816,-0.0145 -0.01939,-0.01 -0.03878,-0.0145 -0.05816,-0.0145 -0.0097,-0.01 -0.02424,-0.0194 -0.04362,-0.0291 -0.52346,-0.23264 -1.051761,-0.34896 -1.584904,-0.34897 -1.405577,10e-6 -2.108362,0.92574 -2.108361,2.77722 -10e-7,1.02752 0.169637,1.76908 0.508915,2.22468 0.348967,0.4556 0.930583,0.6834 1.74485,0.6834 0.591305,0 1.138993,-0.12601 1.643066,-0.37805 0.02908,-0.01 0.05816,-0.0194 0.08724,-0.0291 0.03877,-0.0194 0.063,-0.0291 0.0727,-0.0291 0.09693,10e-6 0.20356,0.0969 0.319889,0.29082 0.116318,0.18417 0.174479,0.33443 0.174485,0.45075 -6e-6,0.17449 -0.227806,0.34412 -0.683399,0.50891 -0.455605,0.1551 -0.988753,0.23265 -1.599445,0.23265 -1.202011,0 -2.098668,-0.3102 -2.689976,-0.93059 -0.591312,-0.62038 -0.886967,-1.61883 -0.886966,-2.99532" />
    <path
       inkscape:connector-curvature="0"
       id="path4151"
       style="font-size:16.100811px;font-style:normal;font-variant:normal;font-weight:normal;font-stretch:normal;line-height:125%;letter-spacing:0px;word-spacing:0px;fill:#d7f4ee;fill-opacity:1;stroke:none;font-family:Asap;-inkscape-font-specification:Asap"
       d="m 87.216301,864.0294 0,-8.69516 c -10e-7,-0.21325 0.19387,-0.31988 0.581616,-0.31989 l 0.05816,0 c 0.387742,10e-6 0.581614,0.10664 0.581616,0.31989 l 0,8.57884 c -2e-6,0.71733 0.261726,1.07599 0.785183,1.07599 0.164791,0 0.305348,-0.01 0.421674,-0.0291 0.116318,-0.0291 0.184175,-0.0436 0.203565,-0.0436 0.08724,10e-6 0.159945,0.0921 0.218104,0.27628 0.05816,0.17448 0.08724,0.31019 0.08724,0.40713 0,0.29081 -0.35382,0.43621 -1.061454,0.43621 -0.484683,0 -0.920895,-0.1454 -1.308637,-0.43621 -0.378052,-0.30051 -0.567077,-0.82396 -0.567076,-1.57037" />
    <path
       inkscape:connector-curvature="0"
       id="path4153"
       style="font-size:16.100811px;font-style:normal;font-variant:normal;font-weight:normal;font-stretch:normal;line-height:125%;letter-spacing:0px;word-spacing:0px;fill:#d7f4ee;fill-opacity:1;stroke:none;font-family:Asap;-inkscape-font-specification:Asap"
       d="m 91.431204,863.68044 0,-5.04553 c 0,-0.21325 0.193865,-0.31988 0.581614,-0.31988 l 0.05816,0 c 0.387749,0 0.581614,0.10663 0.581623,0.31988 l 0,4.9292 c -9e-6,0.44591 0.126008,0.79488 0.37805,1.04691 0.261723,0.24235 0.630083,0.36351 1.10507,0.36351 0.697932,0 1.308634,-0.33928 1.83209,-1.01783 l 0,-5.32179 c 0,-0.21325 0.193865,-0.31988 0.581614,-0.31988 l 0.05816,0 c 0.387731,0 0.581605,0.10663 0.581614,0.31988 l 0,5.16185 c -9e-6,0.58162 0.0242,1.00329 0.0727,1.26501 0.06782,0.35867 0.101777,0.5477 0.101786,0.56708 -9e-6,0.11632 -0.0921,0.20357 -0.276272,0.26173 -0.184184,0.0485 -0.329581,0.0727 -0.436208,0.0727 -0.09695,0 -0.164795,-0.01 -0.203565,-0.0291 -0.03874,-0.0194 -0.07757,-0.0533 -0.116326,-0.10178 -0.02908,-0.0485 -0.05328,-0.0921 -0.0727,-0.13087 -0.01942,-0.0485 -0.03874,-0.11147 -0.05816,-0.18902 -0.01942,-0.0776 -0.03874,-0.13572 -0.05816,-0.17449 -0.0097,-0.0485 -0.0242,-0.11632 -0.04362,-0.20356 -0.0097,-0.0969 -0.01942,-0.15995 -0.02908,-0.18903 -0.649482,0.72702 -1.376502,1.09053 -2.181061,1.09053 -0.794887,0 -1.40558,-0.20841 -1.832099,-0.62524 -0.416819,-0.41682 -0.625233,-0.99359 -0.625233,-1.7303" />
    <path
       inkscape:connector-curvature="0"
       id="path4155"
       style="font-size:16.100811px;font-style:normal;font-variant:normal;font-weight:normal;font-stretch:normal;line-height:125%;letter-spacing:0px;word-spacing:0px;fill:#d7f4ee;fill-opacity:1;stroke:none;font-family:Asap;-inkscape-font-specification:Asap"
       d="m 104.32332,864.94545 c -0.69794,0.72702 -1.47343,1.09053 -2.32646,1.09053 -0.85304,0 -1.53644,-0.35867 -2.050199,-1.07599 -0.504075,-0.71733 -0.756109,-1.63822 -0.756109,-2.76268 l 0,-0.13086 c 0,-1.19231 0.271423,-2.1229 0.814268,-2.79176 0.54284,-0.67854 1.22139,-1.01782 2.03565,-1.01783 0.81426,1e-5 1.54128,0.24719 2.18106,0.74156 l 0,-3.66418 c 0,-0.21325 0.19388,-0.31988 0.58163,-0.31989 l 0.0582,0 c 0.38774,10e-6 0.58161,0.10664 0.58161,0.31989 l 0,8.46252 c 0,0.58162 0.0242,1.00329 0.0727,1.26501 0.0678,0.35867 0.10177,0.5477 0.10178,0.56708 -1e-5,0.11632 -0.0921,0.20357 -0.27627,0.26173 -0.18418,0.0485 -0.32959,0.0727 -0.43621,0.0727 -0.0969,0 -0.1648,-0.01 -0.20357,-0.0291 -0.0387,-0.0194 -0.0776,-0.0533 -0.11632,-0.10178 -0.0291,-0.0485 -0.0533,-0.0921 -0.0727,-0.13087 -0.0194,-0.0485 -0.0387,-0.11147 -0.0582,-0.18902 -0.0194,-0.0776 -0.0387,-0.13572 -0.0582,-0.17449 -0.01,-0.0485 -0.0242,-0.11632 -0.0436,-0.20356 -0.01,-0.0969 -0.0194,-0.15995 -0.0291,-0.18903 m -3.8532,-2.90809 c -10e-6,1.95812 0.63007,2.93717 1.89025,2.93717 0.63008,0 1.25046,-0.33443 1.86116,-1.00329 l 0,-3.98407 c -0.52345,-0.43621 -1.10991,-0.65431 -1.75938,-0.65432 l -0.0872,0 c -0.62039,0.01 -1.09538,0.24719 -1.42496,0.71248 -0.31989,0.4653 -0.47983,1.12931 -0.47982,1.99203" />
    <path
       inkscape:connector-curvature="0"
       id="path4157"
       style="font-size:16.100811px;font-style:normal;font-variant:normal;font-weight:normal;font-stretch:normal;line-height:125%;letter-spacing:0px;word-spacing:0px;fill:#d7f4ee;fill-opacity:1;stroke:none;font-family:Asap;-inkscape-font-specification:Asap"
       d="m 111.03236,866.03598 c -1.2117,0 -2.10836,-0.31504 -2.68997,-0.94513 -0.58163,-0.63008 -0.87243,-1.58975 -0.87243,-2.879 0,-1.29894 0.28596,-2.28284 0.85789,-2.9517 0.57191,-0.66885 1.38618,-1.00328 2.44278,-1.00329 2.05504,1e-5 3.08257,1.26502 3.08257,3.79504 0,0.0872 -0.0582,0.20843 -0.17448,0.36351 -0.11633,0.15511 -0.21811,0.23266 -0.30535,0.23266 l -4.59477,0 c 0.0581,0.80456 0.26657,1.39588 0.62524,1.77393 0.35866,0.37805 0.89665,0.56707 1.61398,0.56707 0.65916,0 1.26501,-0.15509 1.81755,-0.46529 0.18417,-0.0969 0.28596,-0.1454 0.30536,-0.14541 0.0969,10e-6 0.20355,0.0969 0.31988,0.29081 0.12601,0.19388 0.18902,0.33928 0.18902,0.43621 0,0.19387 -0.26658,0.39744 -0.79972,0.6107 -0.52346,0.21326 -1.12931,0.31989 -1.81755,0.31989 m 1.52674,-4.43482 c 0,-1.53159 -0.58162,-2.29738 -1.74484,-2.29739 -1.25049,10e-6 -1.92904,0.7658 -2.03566,2.29739 l 3.7805,0" />
    <path
       inkscape:connector-curvature="0"
       id="path4159"
       style="font-size:16.100811px;font-style:normal;font-variant:normal;font-weight:normal;font-stretch:normal;line-height:125%;letter-spacing:0px;word-spacing:0px;fill:#d7f4ee;fill-opacity:1;stroke:none;font-family:Asap;-inkscape-font-specification:Asap"
       d="m 118.59769,862.76438 0,-0.24718 c 0,-0.23264 0.12117,-0.40228 0.36351,-0.50892 l 5.97611,-2.53003 c 0.0678,-0.0291 0.14056,-0.0436 0.21811,-0.0436 0.20356,10e-6 0.30535,0.12603 0.30535,0.37805 l 0,0.20357 c 0,0.25204 -0.11633,0.42168 -0.34898,0.50892 l -5.17637,2.10836 5.17637,2.1229 c 0.23265,0.0969 0.34898,0.26657 0.34898,0.50891 l 0,0.20357 c 0,0.25203 -0.10179,0.37805 -0.30535,0.37805 -0.0776,0 -0.15026,-0.0145 -0.21811,-0.0436 l -5.97611,-2.53003 c -0.24234,-0.10663 -0.36351,-0.27626 -0.36351,-0.50892" />
    <path
       inkscape:connector-curvature="0"
       id="path4161"
       style="font-size:16.100811px;font-style:normal;font-variant:normal;font-weight:normal;font-stretch:normal;line-height:125%;letter-spacing:0px;word-spacing:0px;fill:#d7f4ee;fill-opacity:1;stroke:none;font-family:Asap;-inkscape-font-specification:Asap"
       d="m 126.66103,865.16356 c 0,-0.0969 0.0582,-0.24235 0.17448,-0.43622 0.12602,-0.19387 0.2375,-0.2908 0.33444,-0.2908 0.01,0 0.0872,0.0485 0.23264,0.1454 0.1454,0.0872 0.35382,0.17933 0.62524,0.27627 0.27141,0.0872 0.59616,0.13086 0.97421,0.13086 0.38774,0 0.70278,-0.10662 0.94512,-0.31989 0.25203,-0.22295 0.37805,-0.5186 0.37805,-0.88696 0,-0.37805 -0.11148,-0.66886 -0.33442,-0.87243 -0.21327,-0.21325 -0.64463,-0.41197 -1.29411,-0.59615 -0.64947,-0.18418 -1.11961,-0.41682 -1.41042,-0.69794 -0.2908,-0.29081 -0.43621,-0.72702 -0.43621,-1.30864 0,-0.58161 0.22296,-1.06629 0.66887,-1.45404 0.44589,-0.39743 1.02752,-0.59615 1.74484,-0.59616 0.49437,1e-5 0.93543,0.063 1.32318,0.18902 0.38774,0.12603 0.58162,0.26658 0.58162,0.42168 0,0.12602 -0.0582,0.29081 -0.17449,0.49437 -0.10664,0.19388 -0.20357,0.29082 -0.29081,0.29081 -0.01,10e-6 -0.0727,-0.0291 -0.18903,-0.0872 -0.32958,-0.17448 -0.70279,-0.26172 -1.11961,-0.26173 -0.40712,10e-6 -0.72702,0.0872 -0.95966,0.26173 -0.22295,0.1648 -0.33443,0.3829 -0.33443,0.65431 0,0.27144 0.0824,0.48469 0.24718,0.63979 0.17449,0.1551 0.4653,0.29566 0.87243,0.42166 0.91119,0.28113 1.52674,0.59132 1.84664,0.93059 0.32957,0.32959 0.49437,0.83366 0.49437,1.51221 0,0.66886 -0.24235,1.22139 -0.72702,1.6576 -0.47499,0.43621 -1.04692,0.65432 -1.71577,0.65432 -0.66886,0 -1.24563,-0.0969 -1.73031,-0.29081 -0.48468,-0.20356 -0.72702,-0.39744 -0.72702,-0.58161" />
    <path
       inkscape:connector-curvature="0"
       id="path4163"
       style="font-size:16.100811px;font-style:normal;font-variant:normal;font-weight:normal;font-stretch:normal;line-height:125%;letter-spacing:0px;word-spacing:0px;fill:#d7f4ee;fill-opacity:1;stroke:none;font-family:Asap;-inkscape-font-specification:Asap"
       d="m 133.70019,864.0294 0,-4.63838 -0.72702,0 c -0.19388,0 -0.29082,-0.1454 -0.29082,-0.43622 l 0,-0.17449 c 0,-0.2908 0.0969,-0.4362 0.29082,-0.43621 l 0.72702,0 0.17448,-1.52674 c 0.0194,-0.21325 0.17448,-0.31988 0.46529,-0.31989 l 0.1454,0 c 0.29081,10e-6 0.43621,0.10664 0.43622,0.31989 l 0,1.52674 1.22139,0 c 0.19387,10e-6 0.29081,0.14541 0.29081,0.43621 l 0,0.17449 c 0,0.29082 -0.0969,0.43622 -0.29081,0.43622 l -1.22139,0 0,4.52206 c -1e-5,0.71733 0.26172,1.07599 0.78518,1.07599 0.16479,0 0.30534,-0.01 0.42167,-0.0291 0.11632,-0.0291 0.18417,-0.0436 0.20356,-0.0436 0.0872,10e-6 0.15995,0.0921 0.21812,0.27628 0.0582,0.17448 0.0872,0.31019 0.0872,0.40713 0,0.29081 -0.35382,0.43621 -1.06146,0.43621 -0.48467,0 -0.92089,-0.1454 -1.30863,-0.43621 -0.37805,-0.30051 -0.56707,-0.82396 -0.56707,-1.57037" />
    <path
       inkscape:connector-curvature="0"
       id="path4165"
       style="font-size:16.100811px;font-style:normal;font-variant:normal;font-weight:normal;font-stretch:normal;line-height:125%;letter-spacing:0px;word-spacing:0px;fill:#d7f4ee;fill-opacity:1;stroke:none;font-family:Asap;-inkscape-font-specification:Asap"
       d="m 143.00309,864.94545 c -0.69794,0.72702 -1.47343,1.09053 -2.32647,1.09053 -0.85304,0 -1.53644,-0.35867 -2.05019,-1.07599 -0.50407,-0.71733 -0.7561,-1.63822 -0.7561,-2.76268 l 0,-0.13086 c 0,-1.19231 0.27141,-2.1229 0.81426,-2.79176 0.54284,-0.67854 1.22139,-1.01782 2.03566,-1.01783 0.81426,1e-5 1.54128,0.24719 2.18106,0.74156 l 0,-3.66418 c -1e-5,-0.21325 0.19387,-0.31988 0.58161,-0.31989 l 0.0582,0 c 0.38774,10e-6 0.58162,0.10664 0.58163,0.31989 l 0,8.46252 c -1e-5,0.58162 0.0242,1.00329 0.0727,1.26501 0.0678,0.35867 0.10178,0.5477 0.10179,0.56708 -1e-5,0.11632 -0.0921,0.20357 -0.27627,0.26173 -0.18418,0.0485 -0.32959,0.0727 -0.43621,0.0727 -0.0969,0 -0.1648,-0.01 -0.20357,-0.0291 -0.0387,-0.0194 -0.0776,-0.0533 -0.11632,-0.10178 -0.0291,-0.0485 -0.0533,-0.0921 -0.0727,-0.13087 -0.0194,-0.0485 -0.0387,-0.11147 -0.0582,-0.18902 -0.0194,-0.0776 -0.0387,-0.13572 -0.0582,-0.17449 -0.01,-0.0485 -0.0242,-0.11632 -0.0436,-0.20356 -0.01,-0.0969 -0.0194,-0.15995 -0.0291,-0.18903 m -3.85321,-2.90809 c 0,1.95812 0.63008,2.93717 1.89025,2.93717 0.63008,0 1.25048,-0.33443 1.86118,-1.00329 l 0,-3.98407 c -0.52347,-0.43621 -1.10993,-0.65431 -1.75939,-0.65432 l -0.0872,0 c -0.62039,0.01 -1.09538,0.24719 -1.42495,0.71248 -0.31989,0.4653 -0.47984,1.12931 -0.47984,1.99203" />
    <path
       inkscape:connector-curvature="0"
       id="path4167"
       style="font-size:16.100811px;font-style:normal;font-variant:normal;font-weight:normal;font-stretch:normal;line-height:125%;letter-spacing:0px;word-spacing:0px;fill:#d7f4ee;fill-opacity:1;stroke:none;font-family:Asap;-inkscape-font-specification:Asap"
       d="m 147.19664,856.51201 c -0.38775,10e-6 -0.58162,-0.10662 -0.58162,-0.31989 l 0,-0.85788 c 0,-0.21325 0.19387,-0.31988 0.58162,-0.31989 l 0.17448,0 c 0.38774,10e-6 0.58162,0.10664 0.58162,0.31989 l 0,0.85788 c 0,0.21327 -0.19388,0.3199 -0.58162,0.31989 l -0.17448,0 m -0.52346,9.14592 0,-7.02302 c 0,-0.21325 0.19387,-0.31988 0.58162,-0.31988 l 0.0582,0 c 0.38775,0 0.58161,0.10663 0.58162,0.31988 l 0,7.02302 c -1e-5,0.21326 -0.19387,0.31989 -0.58162,0.31989 l -0.0582,0 c -0.38775,0 -0.58162,-0.10663 -0.58162,-0.31989" />
    <path
       inkscape:connector-curvature="0"
       id="path4169"
       style="font-size:16.100811px;font-style:normal;font-variant:normal;font-weight:normal;font-stretch:normal;line-height:125%;letter-spacing:0px;word-spacing:0px;fill:#d7f4ee;fill-opacity:1;stroke:none;font-family:Asap;-inkscape-font-specification:Asap"
       d="m 153.37086,866.03598 c -1.08569,0 -1.91933,-0.32958 -2.50095,-0.98875 -0.57192,-0.65916 -0.85788,-1.61398 -0.85788,-2.86446 0,-1.26017 0.2908,-2.22952 0.87242,-2.90808 0.58162,-0.67854 1.41041,-1.01782 2.48641,-1.01783 1.07599,1e-5 1.89509,0.33929 2.45733,1.01783 0.57191,0.66886 0.85787,1.63822 0.85788,2.90808 -1e-5,1.26017 -0.28112,2.21984 -0.84334,2.879 -0.55255,0.64947 -1.3765,0.97421 -2.47187,0.97421 m -1.5849,-1.73031 c 0.32957,0.4556 0.84818,0.6834 1.55582,0.6834 0.70763,0 1.23108,-0.2278 1.57036,-0.6834 0.33927,-0.46529 0.50891,-1.18262 0.50892,-2.15198 -1e-5,-0.96935 -0.16965,-1.68668 -0.50892,-2.15198 -0.33928,-0.46529 -0.86273,-0.69793 -1.57036,-0.69794 -0.70764,10e-6 -1.22625,0.23265 -1.55582,0.69794 -0.32959,0.45561 -0.49438,1.17293 -0.49438,2.15198 0,0.96936 0.16479,1.68669 0.49438,2.15198" />
    <path
       inkscape:connector-curvature="0"
       id="path4171"
       style="font-size:16.100811px;font-style:normal;font-variant:normal;font-weight:normal;font-stretch:normal;line-height:125%;letter-spacing:0px;word-spacing:0px;fill:#d7f4ee;fill-opacity:1;stroke:none;font-family:Asap;-inkscape-font-specification:Asap"
       d="m 158.21804,865.65793 0,-0.95967 c 0,-0.21325 0.19388,-0.31988 0.58162,-0.31989 l 0.24719,0 c 0.38774,10e-6 0.58161,0.10664 0.58161,0.31989 l 0,0.95967 c 0,0.21326 -0.19387,0.31989 -0.58161,0.31989 l -0.24719,0 c -0.38774,0 -0.58162,-0.10663 -0.58162,-0.31989" />
    <path
       inkscape:connector-curvature="0"
       id="path4173"
       style="font-size:16.100811px;font-style:normal;font-variant:normal;font-weight:normal;font-stretch:normal;line-height:125%;letter-spacing:0px;word-spacing:0px;fill:#d7f4ee;fill-opacity:1;stroke:none;font-family:Asap;-inkscape-font-specification:Asap"
       d="m 161.71092,865.65793 0,-10.32369 c 0,-0.21325 0.19388,-0.31988 0.58162,-0.31989 l 0.0582,0 c 0.38774,10e-6 0.58161,0.10664 0.58161,0.31989 l 0,3.92591 c 0.66885,-0.66885 1.41041,-1.00328 2.22468,-1.00329 0.55254,1e-5 1.05175,0.14056 1.49767,0.42168 0.24233,0.16479 0.4362,0.41197 0.58161,0.74156 0.15509,0.32959 0.23265,0.72702 0.23265,1.1923 l 0,5.04553 c 0,0.21326 -0.19388,0.31989 -0.58162,0.31989 l -0.0582,0 c -0.38774,0 -0.58162,-0.10663 -0.58161,-0.31989 l 0,-4.9292 c -1e-5,-0.43621 -0.12603,-0.78033 -0.37806,-1.03237 -0.25203,-0.25203 -0.58161,-0.37804 -0.98874,-0.37805 -0.39744,10e-6 -0.75126,0.0872 -1.06145,0.26173 -0.3005,0.1648 -0.52346,0.32959 -0.66886,0.49437 l -0.21811,0.26173 0,5.32179 c 0,0.21326 -0.19387,0.31989 -0.58161,0.31989 l -0.0582,0 c -0.38774,0 -0.58162,-0.10663 -0.58162,-0.31989" />
    <path
       inkscape:connector-curvature="0"
       id="path4175"
       style="font-size:16.100811px;font-style:normal;font-variant:normal;font-weight:normal;font-stretch:normal;line-height:125%;letter-spacing:0px;word-spacing:0px;fill:#d7f4ee;fill-opacity:1;stroke:none;font-family:Asap;-inkscape-font-specification:Asap"
       d="m 169.24944,865.48345 0,-0.20357 c 0,-0.23265 0.11633,-0.40228 0.34897,-0.50891 l 5.17639,-2.1229 -5.17639,-2.10837 c -0.23264,-0.0872 -0.34897,-0.25687 -0.34897,-0.50891 l 0,-0.20357 c 0,-0.25202 0.10179,-0.37804 0.30535,-0.37805 0.0678,10e-6 0.14056,0.0145 0.21811,0.0436 l 5.97611,2.53003 c 0.24234,0.10664 0.3635,0.27628 0.36351,0.50892 l 0,0.24719 c -1e-5,0.23265 -0.12117,0.40228 -0.36351,0.50891 l -5.97611,2.53003 c -0.0776,0.0291 -0.15025,0.0436 -0.21811,0.0436 -0.20356,0 -0.30535,-0.12602 -0.30535,-0.37805" />
    <path
       inkscape:connector-curvature="0"
       id="path4177"
       style="font-size:16.100811px;font-style:normal;font-variant:normal;font-weight:normal;font-stretch:normal;line-height:125%;letter-spacing:0px;word-spacing:0px;fill:#d7f4ee;fill-opacity:1;stroke:none;font-family:Asap;-inkscape-font-specification:Asap"
       d="m 59.694936,881.27434 c -0.193873,0 -0.290808,-0.14541 -0.290808,-0.43622 l 0,-0.24718 c 0,-0.29081 0.09694,-0.43621 0.290808,-0.43622 l 1.323177,0 0.378051,-2.13744 -1.177774,0 c -0.193872,10e-6 -0.290809,-0.1454 -0.290808,-0.43621 l 0,-0.24719 c -10e-7,-0.2908 0.09694,-0.4362 0.290808,-0.43621 l 1.366799,0 0.450753,-2.42825 c 0.0097,-0.0776 0.02908,-0.1357 0.05816,-0.17448 0.07755,-0.0969 0.271418,-0.1454 0.581616,-0.14541 l 0.05816,0 c 0.271417,10e-6 0.407127,0.0727 0.407131,0.21811 l -0.479833,2.53003 1.730309,0 0.436212,-2.42825 c 0.0097,-0.0776 0.02908,-0.1357 0.05816,-0.17448 0.07754,-0.0969 0.271415,-0.1454 0.581617,-0.14541 l 0.0727,0 c 0.271414,10e-6 0.407125,0.0727 0.407132,0.21811 l -0.450753,2.53003 0.988748,0 c 0.193865,1e-5 0.290801,0.14541 0.290808,0.43621 l 0,0.24719 c -7e-6,0.29081 -0.09694,0.43622 -0.290808,0.43621 l -1.206855,0 -0.36351,2.13744 1.105072,0 c 0.193865,10e-6 0.290801,0.14541 0.290808,0.43622 l 0,0.24718 c -7e-6,0.29081 -0.09694,0.43622 -0.290808,0.43622 l -1.337719,0 -0.450752,2.55911 c -0.02909,0.11632 -0.0824,0.19871 -0.159945,0.24718 -0.07756,0.0485 -0.232651,0.0727 -0.465293,0.0727 l -0.05816,0 c -0.271425,0 -0.407135,-0.0824 -0.407132,-0.24719 l 0.465294,-2.63181 -1.715768,0 -0.465294,2.55911 c -0.01939,0.0776 -0.03878,0.1357 -0.05816,0.17448 -0.06786,0.0969 -0.256882,0.14541 -0.567076,0.14541 l -0.05816,0 c -0.271421,0 -0.407131,-0.0824 -0.40713,-0.24719 l 0.465293,-2.63181 -1.105072,0 m 2.413709,-1.11962 1.715768,0 0.378051,-2.13744 -1.715768,0 -0.378051,2.13744" />
    <path
       inkscape:connector-curvature="0"
       id="path4179"
       style="font-size:16.100811px;font-style:normal;font-variant:normal;font-weight:normal;font-stretch:normal;line-height:125%;letter-spacing:0px;word-spacing:0px;fill:#d7f4ee;fill-opacity:1;stroke:none;font-family:Asap;-inkscape-font-specification:Asap"
       d="m 68.843127,874.68753 c -0.387746,10e-6 -0.581618,-0.10662 -0.581617,-0.31989 l 0,-0.85789 c -10e-7,-0.21325 0.193871,-0.31987 0.581617,-0.31988 l 0.174484,0 c 0.387743,10e-6 0.581615,0.10663 0.581618,0.31988 l 0,0.85789 c -3e-6,0.21327 -0.193875,0.3199 -0.581618,0.31989 l -0.174484,0 m -0.523455,9.14592 0,-7.02302 c -10e-7,-0.21326 0.19387,-0.31988 0.581617,-0.31989 l 0.05816,0 c 0.387742,10e-6 0.581615,0.10663 0.581617,0.31989 l 0,7.02302 c -2e-6,0.21325 -0.193875,0.31989 -0.581617,0.31989 l -0.05816,0 c -0.387747,0 -0.581618,-0.10664 -0.581617,-0.31989" />
    <path
       inkscape:connector-curvature="0"
       id="path4181"
       style="font-size:16.100811px;font-style:normal;font-variant:normal;font-weight:normal;font-stretch:normal;line-height:125%;letter-spacing:0px;word-spacing:0px;fill:#d7f4ee;fill-opacity:1;stroke:none;font-family:Asap;-inkscape-font-specification:Asap"
       d="m 72.109267,883.83345 0,-5.10369 c -2e-6,-0.5913 -0.02424,-1.01298 -0.0727,-1.26502 -0.06786,-0.34896 -0.101784,-0.53798 -0.101783,-0.56707 -1e-6,-0.11632 0.09209,-0.19871 0.276268,-0.24719 0.184177,-0.0582 0.324734,-0.0872 0.421672,-0.0872 0.106627,1e-5 0.179329,0.01 0.218106,0.0291 0.03877,0.0194 0.0727,0.0533 0.101783,0.10178 0.03877,0.0387 0.06785,0.0824 0.08724,0.13087 0.01939,0.0387 0.03877,0.0969 0.05816,0.17448 0.01938,0.0678 0.03393,0.12603 0.04362,0.17449 0.01939,0.0387 0.03393,0.10179 0.04362,0.18902 0.01938,0.0776 0.03393,0.13087 0.04362,0.15995 0.649469,-0.72702 1.371642,-1.09052 2.166522,-1.09053 0.804564,1e-5 1.415261,0.20841 1.832092,0.62523 0.426512,0.41684 0.639771,0.9936 0.639778,1.73031 l 0,5.04553 c -7e-6,0.21325 -0.193879,0.31989 -0.581617,0.31989 l -0.05816,0 c -0.387749,0 -0.581622,-0.10664 -0.581616,-0.31989 l 0,-4.92921 c -6e-6,-0.4459 -0.13087,-0.79002 -0.392591,-1.03236 -0.25204,-0.25203 -0.615549,-0.37805 -1.090531,-0.37805 -0.697944,0 -1.30864,0.33928 -1.832092,1.01782 l 0,5.3218 c -3e-6,0.21325 -0.193874,0.31989 -0.581617,0.31989 l -0.05816,0 c -0.387745,0 -0.581618,-0.10664 -0.581616,-0.31989" />
    <path
       inkscape:connector-curvature="0"
       id="path4183"
       style="font-size:16.100811px;font-style:normal;font-variant:normal;font-weight:normal;font-stretch:normal;line-height:125%;letter-spacing:0px;word-spacing:0px;fill:#d7f4ee;fill-opacity:1;stroke:none;font-family:Asap;-inkscape-font-specification:Asap"
       d="m 79.708677,880.28558 c -10e-7,-0.72701 0.09694,-1.35225 0.290808,-1.87571 0.203565,-0.52345 0.474986,-0.92573 0.814264,-1.20685 0.639776,-0.51376 1.42011,-0.77063 2.341006,-0.77064 0.562225,1e-5 1.066292,0.0678 1.512203,0.20356 0.4459,0.13572 0.668853,0.29082 0.668859,0.46529 -6e-6,0.12603 -0.05817,0.29082 -0.174485,0.49438 -0.106636,0.19388 -0.203572,0.29081 -0.290808,0.29081 -0.0097,0 -0.02909,-0.005 -0.05816,-0.0145 -0.01939,-0.01 -0.03878,-0.0145 -0.05816,-0.0145 -0.0097,-0.01 -0.02424,-0.0194 -0.04362,-0.0291 -0.52346,-0.23263 -1.051761,-0.34896 -1.584904,-0.34897 -1.405577,10e-6 -2.108362,0.92575 -2.108361,2.77722 -10e-7,1.02753 0.169637,1.76909 0.508915,2.22468 0.348967,0.45561 0.930583,0.6834 1.74485,0.6834 0.591305,0 1.138993,-0.12601 1.643066,-0.37805 0.02908,-0.01 0.05816,-0.0194 0.08724,-0.0291 0.03877,-0.0194 0.063,-0.0291 0.0727,-0.0291 0.09693,0 0.20356,0.0969 0.319889,0.2908 0.116318,0.18418 0.174479,0.33443 0.174485,0.45076 -6e-6,0.17448 -0.227806,0.34412 -0.683399,0.50891 -0.455605,0.1551 -0.988753,0.23265 -1.599445,0.23265 -1.202011,0 -2.098668,-0.3102 -2.689976,-0.93059 -0.591312,-0.62039 -0.886967,-1.61883 -0.886966,-2.99533" />
    <path
       inkscape:connector-curvature="0"
       id="path4185"
       style="font-size:16.100811px;font-style:normal;font-variant:normal;font-weight:normal;font-stretch:normal;line-height:125%;letter-spacing:0px;word-spacing:0px;fill:#d7f4ee;fill-opacity:1;stroke:none;font-family:Asap;-inkscape-font-specification:Asap"
       d="m 87.216301,882.20492 0,-8.69517 c -10e-7,-0.21325 0.19387,-0.31987 0.581616,-0.31988 l 0.05816,0 c 0.387742,10e-6 0.581614,0.10663 0.581616,0.31988 l 0,8.57884 c -2e-6,0.71733 0.261726,1.07599 0.785183,1.07599 0.164791,0 0.305348,-0.01 0.421674,-0.0291 0.116318,-0.0291 0.184175,-0.0436 0.203565,-0.0436 0.08724,0 0.159945,0.0921 0.218104,0.27626 0.05816,0.17448 0.08724,0.3102 0.08724,0.40714 0,0.2908 -0.35382,0.43621 -1.061454,0.43621 -0.484683,0 -0.920895,-0.14541 -1.308637,-0.43621 -0.378052,-0.3005 -0.567077,-0.82396 -0.567076,-1.57037" />
    <path
       inkscape:connector-curvature="0"
       id="path4187"
       style="font-size:16.100811px;font-style:normal;font-variant:normal;font-weight:normal;font-stretch:normal;line-height:125%;letter-spacing:0px;word-spacing:0px;fill:#d7f4ee;fill-opacity:1;stroke:none;font-family:Asap;-inkscape-font-specification:Asap"
       d="m 91.431204,881.85595 0,-5.04552 c 0,-0.21326 0.193865,-0.31988 0.581614,-0.31989 l 0.05816,0 c 0.387749,10e-6 0.581614,0.10663 0.581623,0.31989 l 0,4.92919 c -9e-6,0.44591 0.126008,0.79488 0.37805,1.04692 0.261723,0.24234 0.630083,0.36351 1.10507,0.36351 0.697932,0 1.308634,-0.33928 1.83209,-1.01784 l 0,-5.32178 c 0,-0.21326 0.193865,-0.31988 0.581614,-0.31989 l 0.05816,0 c 0.387731,10e-6 0.581605,0.10663 0.581614,0.31989 l 0,5.16185 c -9e-6,0.58161 0.0242,1.00328 0.0727,1.26501 0.06782,0.35866 0.101777,0.54769 0.101786,0.56708 -9e-6,0.11631 -0.0921,0.20356 -0.276272,0.26172 -0.184184,0.0485 -0.329581,0.0727 -0.436208,0.0727 -0.09695,0 -0.164795,-0.01 -0.203565,-0.0291 -0.03874,-0.0194 -0.07757,-0.0533 -0.116326,-0.10178 -0.02908,-0.0485 -0.05328,-0.0921 -0.0727,-0.13086 -0.01942,-0.0485 -0.03874,-0.11148 -0.05816,-0.18903 -0.01942,-0.0776 -0.03874,-0.13571 -0.05816,-0.17448 -0.0097,-0.0485 -0.0242,-0.11632 -0.04362,-0.20357 -0.0097,-0.0969 -0.01942,-0.15994 -0.02908,-0.18902 -0.649482,0.72702 -1.376502,1.09053 -2.181061,1.09053 -0.794887,0 -1.40558,-0.20842 -1.832099,-0.62524 -0.416819,-0.41683 -0.625233,-0.99359 -0.625233,-1.73031" />
    <path
       inkscape:connector-curvature="0"
       id="path4189"
       style="font-size:16.100811px;font-style:normal;font-variant:normal;font-weight:normal;font-stretch:normal;line-height:125%;letter-spacing:0px;word-spacing:0px;fill:#d7f4ee;fill-opacity:1;stroke:none;font-family:Asap;-inkscape-font-specification:Asap"
       d="m 104.32332,883.12097 c -0.69794,0.72702 -1.47343,1.09053 -2.32646,1.09053 -0.85304,0 -1.53644,-0.35866 -2.050199,-1.07599 -0.504075,-0.71733 -0.756109,-1.63822 -0.756109,-2.76268 l 0,-0.13087 c 0,-1.1923 0.271423,-2.12289 0.814268,-2.79176 0.54284,-0.67854 1.22139,-1.01781 2.03565,-1.01782 0.81426,1e-5 1.54128,0.24719 2.18106,0.74156 l 0,-3.66419 c 0,-0.21325 0.19388,-0.31987 0.58163,-0.31988 l 0.0582,0 c 0.38774,10e-6 0.58161,0.10663 0.58161,0.31988 l 0,8.46253 c 0,0.58161 0.0242,1.00328 0.0727,1.26501 0.0678,0.35866 0.10177,0.54769 0.10178,0.56708 -1e-5,0.11631 -0.0921,0.20356 -0.27627,0.26172 -0.18418,0.0485 -0.32959,0.0727 -0.43621,0.0727 -0.0969,0 -0.1648,-0.01 -0.20357,-0.0291 -0.0387,-0.0194 -0.0776,-0.0533 -0.11632,-0.10178 -0.0291,-0.0485 -0.0533,-0.0921 -0.0727,-0.13086 -0.0194,-0.0485 -0.0387,-0.11148 -0.0582,-0.18903 -0.0194,-0.0776 -0.0387,-0.13571 -0.0582,-0.17448 -0.01,-0.0485 -0.0242,-0.11632 -0.0436,-0.20357 -0.01,-0.0969 -0.0194,-0.15994 -0.0291,-0.18902 m -3.8532,-2.90808 c -10e-6,1.9581 0.63007,2.93716 1.89025,2.93716 0.63008,0 1.25046,-0.33444 1.86116,-1.00329 l 0,-3.98408 c -0.52345,-0.4362 -1.10991,-0.65431 -1.75938,-0.65431 l -0.0872,0 c -0.62039,0.01 -1.09538,0.24719 -1.42496,0.71248 -0.31989,0.4653 -0.47983,1.12931 -0.47982,1.99204" />
    <path
       inkscape:connector-curvature="0"
       id="path4191"
       style="font-size:16.100811px;font-style:normal;font-variant:normal;font-weight:normal;font-stretch:normal;line-height:125%;letter-spacing:0px;word-spacing:0px;fill:#d7f4ee;fill-opacity:1;stroke:none;font-family:Asap;-inkscape-font-specification:Asap"
       d="m 111.03236,884.2115 c -1.2117,0 -2.10836,-0.31505 -2.68997,-0.94513 -0.58163,-0.63008 -0.87243,-1.58975 -0.87243,-2.879 0,-1.29894 0.28596,-2.28284 0.85789,-2.95171 0.57191,-0.66885 1.38618,-1.00327 2.44278,-1.00328 2.05504,1e-5 3.08257,1.26501 3.08257,3.79504 0,0.0872 -0.0582,0.20842 -0.17448,0.36352 -0.11633,0.15509 -0.21811,0.23265 -0.30535,0.23264 l -4.59477,0 c 0.0581,0.80458 0.26657,1.39588 0.62524,1.77393 0.35866,0.37805 0.89665,0.56707 1.61398,0.56707 0.65916,0 1.26501,-0.15509 1.81755,-0.46528 0.18417,-0.0969 0.28596,-0.14541 0.30536,-0.14541 0.0969,0 0.20355,0.0969 0.31988,0.2908 0.12601,0.19388 0.18902,0.33928 0.18902,0.43622 0,0.19388 -0.26658,0.39744 -0.79972,0.61069 -0.52346,0.21327 -1.12931,0.3199 -1.81755,0.3199 m 1.52674,-4.43483 c 0,-1.53158 -0.58162,-2.29738 -1.74484,-2.29739 -1.25049,10e-6 -1.92904,0.76581 -2.03566,2.29739 l 3.7805,0" />
    <path
       inkscape:connector-curvature="0"
       id="path4193"
       style="font-size:16.100811px;font-style:normal;font-variant:normal;font-weight:normal;font-stretch:normal;line-height:125%;letter-spacing:0px;word-spacing:0px;fill:#d7f4ee;fill-opacity:1;stroke:none;font-family:Asap;-inkscape-font-specification:Asap"
       d="m 118.59769,880.93991 0,-0.2472 c 0,-0.23263 0.12117,-0.40228 0.36351,-0.5089 l 5.97611,-2.53004 c 0.0678,-0.0291 0.14056,-0.0436 0.21811,-0.0436 0.20356,10e-6 0.30535,0.12602 0.30535,0.37805 l 0,0.20356 c 0,0.25204 -0.11633,0.42168 -0.34898,0.50892 l -5.17637,2.10836 5.17637,2.1229 c 0.23265,0.0969 0.34898,0.26657 0.34898,0.50892 l 0,0.20356 c 0,0.25203 -0.10179,0.37805 -0.30535,0.37805 -0.0776,0 -0.15026,-0.0145 -0.21811,-0.0436 l -5.97611,-2.53003 c -0.24234,-0.10663 -0.36351,-0.27627 -0.36351,-0.50891" />
    <path
       inkscape:connector-curvature="0"
       id="path4195"
       style="font-size:16.100811px;font-style:normal;font-variant:normal;font-weight:normal;font-stretch:normal;line-height:125%;letter-spacing:0px;word-spacing:0px;fill:#d7f4ee;fill-opacity:1;stroke:none;font-family:Asap;-inkscape-font-specification:Asap"
       d="m 126.66103,883.33907 c 0,-0.0969 0.0582,-0.24233 0.17448,-0.43621 0.12602,-0.19387 0.2375,-0.29081 0.33444,-0.29081 0.01,0 0.0872,0.0485 0.23264,0.14541 0.1454,0.0872 0.35382,0.17933 0.62524,0.27626 0.27141,0.0872 0.59616,0.13086 0.97421,0.13086 0.38774,0 0.70278,-0.10662 0.94512,-0.31989 0.25203,-0.22294 0.37805,-0.5186 0.37805,-0.88696 0,-0.37804 -0.11148,-0.66885 -0.33442,-0.87242 -0.21327,-0.21326 -0.64463,-0.41198 -1.29411,-0.59616 -0.64947,-0.18418 -1.11961,-0.41682 -1.41042,-0.69794 -0.2908,-0.29081 -0.43621,-0.72701 -0.43621,-1.30864 0,-0.5816 0.22296,-1.06629 0.66887,-1.45404 0.44589,-0.39743 1.02752,-0.59614 1.74484,-0.59615 0.49437,1e-5 0.93543,0.063 1.32318,0.18902 0.38774,0.12603 0.58162,0.26659 0.58162,0.42167 0,0.12603 -0.0582,0.29081 -0.17449,0.49438 -0.10664,0.19387 -0.20357,0.29081 -0.29081,0.2908 -0.01,10e-6 -0.0727,-0.0291 -0.18903,-0.0872 -0.32958,-0.17447 -0.70279,-0.26172 -1.11961,-0.26173 -0.40712,10e-6 -0.72702,0.0872 -0.95966,0.26173 -0.22295,0.1648 -0.33443,0.3829 -0.33443,0.65432 0,0.27143 0.0824,0.48469 0.24718,0.63978 0.17449,0.1551 0.4653,0.29566 0.87243,0.42168 0.91119,0.28111 1.52674,0.59131 1.84664,0.93058 0.32957,0.32958 0.49437,0.83365 0.49437,1.5122 0,0.66886 -0.24235,1.2214 -0.72702,1.6576 -0.47499,0.43622 -1.04692,0.65433 -1.71577,0.65433 -0.66886,0 -1.24563,-0.0969 -1.73031,-0.29082 -0.48468,-0.20356 -0.72702,-0.39743 -0.72702,-0.58161" />
    <path
       inkscape:connector-curvature="0"
       id="path4197"
       style="font-size:16.100811px;font-style:normal;font-variant:normal;font-weight:normal;font-stretch:normal;line-height:125%;letter-spacing:0px;word-spacing:0px;fill:#d7f4ee;fill-opacity:1;stroke:none;font-family:Asap;-inkscape-font-specification:Asap"
       d="m 133.70019,882.20492 0,-4.63839 -0.72702,0 c -0.19388,1e-5 -0.29082,-0.1454 -0.29082,-0.43621 l 0,-0.17449 c 0,-0.2908 0.0969,-0.4362 0.29082,-0.43621 l 0.72702,0 0.17448,-1.52674 c 0.0194,-0.21326 0.17448,-0.31988 0.46529,-0.31989 l 0.1454,0 c 0.29081,10e-6 0.43621,0.10663 0.43622,0.31989 l 0,1.52674 1.22139,0 c 0.19387,10e-6 0.29081,0.14541 0.29081,0.43621 l 0,0.17449 c 0,0.29081 -0.0969,0.43622 -0.29081,0.43621 l -1.22139,0 0,4.52206 c -1e-5,0.71733 0.26172,1.07599 0.78518,1.07599 0.16479,0 0.30534,-0.01 0.42167,-0.0291 0.11632,-0.0291 0.18417,-0.0436 0.20356,-0.0436 0.0872,0 0.15995,0.0921 0.21812,0.27626 0.0582,0.17448 0.0872,0.3102 0.0872,0.40714 0,0.2908 -0.35382,0.43621 -1.06146,0.43621 -0.48467,0 -0.92089,-0.14541 -1.30863,-0.43621 -0.37805,-0.3005 -0.56707,-0.82396 -0.56707,-1.57037" />
    <path
       inkscape:connector-curvature="0"
       id="path4199"
       style="font-size:16.100811px;font-style:normal;font-variant:normal;font-weight:normal;font-stretch:normal;line-height:125%;letter-spacing:0px;word-spacing:0px;fill:#d7f4ee;fill-opacity:1;stroke:none;font-family:Asap;-inkscape-font-specification:Asap"
       d="m 143.00309,883.12097 c -0.69794,0.72702 -1.47343,1.09053 -2.32647,1.09053 -0.85304,0 -1.53644,-0.35866 -2.05019,-1.07599 -0.50407,-0.71733 -0.7561,-1.63822 -0.7561,-2.76268 l 0,-0.13087 c 0,-1.1923 0.27141,-2.12289 0.81426,-2.79176 0.54284,-0.67854 1.22139,-1.01781 2.03566,-1.01782 0.81426,1e-5 1.54128,0.24719 2.18106,0.74156 l 0,-3.66419 c -1e-5,-0.21325 0.19387,-0.31987 0.58161,-0.31988 l 0.0582,0 c 0.38774,10e-6 0.58162,0.10663 0.58163,0.31988 l 0,8.46253 c -1e-5,0.58161 0.0242,1.00328 0.0727,1.26501 0.0678,0.35866 0.10178,0.54769 0.10179,0.56708 -1e-5,0.11631 -0.0921,0.20356 -0.27627,0.26172 -0.18418,0.0485 -0.32959,0.0727 -0.43621,0.0727 -0.0969,0 -0.1648,-0.01 -0.20357,-0.0291 -0.0387,-0.0194 -0.0776,-0.0533 -0.11632,-0.10178 -0.0291,-0.0485 -0.0533,-0.0921 -0.0727,-0.13086 -0.0194,-0.0485 -0.0387,-0.11148 -0.0582,-0.18903 -0.0194,-0.0776 -0.0387,-0.13571 -0.0582,-0.17448 -0.01,-0.0485 -0.0242,-0.11632 -0.0436,-0.20357 -0.01,-0.0969 -0.0194,-0.15994 -0.0291,-0.18902 m -3.85321,-2.90808 c 0,1.9581 0.63008,2.93716 1.89025,2.93716 0.63008,0 1.25048,-0.33444 1.86118,-1.00329 l 0,-3.98408 c -0.52347,-0.4362 -1.10993,-0.65431 -1.75939,-0.65431 l -0.0872,0 c -0.62039,0.01 -1.09538,0.24719 -1.42495,0.71248 -0.31989,0.4653 -0.47984,1.12931 -0.47984,1.99204" />
    <path
       inkscape:connector-curvature="0"
       id="path4201"
       style="font-size:16.100811px;font-style:normal;font-variant:normal;font-weight:normal;font-stretch:normal;line-height:125%;letter-spacing:0px;word-spacing:0px;fill:#d7f4ee;fill-opacity:1;stroke:none;font-family:Asap;-inkscape-font-specification:Asap"
       d="m 146.54232,882.20492 0,-8.69517 c 0,-0.21325 0.19387,-0.31987 0.58161,-0.31988 l 0.0582,0 c 0.38774,10e-6 0.58161,0.10663 0.58161,0.31988 l 0,8.57884 c 0,0.71733 0.26173,1.07599 0.78518,1.07599 0.16479,0 0.30535,-0.01 0.42168,-0.0291 0.11632,-0.0291 0.18417,-0.0436 0.20357,-0.0436 0.0872,0 0.15993,0.0921 0.2181,0.27626 0.0582,0.17448 0.0872,0.3102 0.0872,0.40714 0,0.2908 -0.35382,0.43621 -1.06145,0.43621 -0.48468,0 -0.9209,-0.14541 -1.30864,-0.43621 -0.37805,-0.3005 -0.56707,-0.82396 -0.56707,-1.57037" />
    <path
       inkscape:connector-curvature="0"
       id="path4203"
       style="font-size:16.100811px;font-style:normal;font-variant:normal;font-weight:normal;font-stretch:normal;line-height:125%;letter-spacing:0px;word-spacing:0px;fill:#d7f4ee;fill-opacity:1;stroke:none;font-family:Asap;-inkscape-font-specification:Asap"
       d="m 151.51333,874.68753 c -0.38775,10e-6 -0.58163,-0.10662 -0.58163,-0.31989 l 0,-0.85789 c 0,-0.21325 0.19388,-0.31987 0.58163,-0.31988 l 0.17448,0 c 0.38774,10e-6 0.58161,0.10663 0.58161,0.31988 l 0,0.85789 c 0,0.21327 -0.19387,0.3199 -0.58161,0.31989 l -0.17448,0 m -0.52346,9.14592 0,-7.02302 c 0,-0.21326 0.19387,-0.31988 0.58161,-0.31989 l 0.0582,0 c 0.38775,10e-6 0.58162,0.10663 0.58163,0.31989 l 0,7.02302 c -1e-5,0.21325 -0.19388,0.31989 -0.58163,0.31989 l -0.0582,0 c -0.38774,0 -0.58161,-0.10664 -0.58161,-0.31989" />
    <path
       inkscape:connector-curvature="0"
       id="path4205"
       style="font-size:16.100811px;font-style:normal;font-variant:normal;font-weight:normal;font-stretch:normal;line-height:125%;letter-spacing:0px;word-spacing:0px;fill:#d7f4ee;fill-opacity:1;stroke:none;font-family:Asap;-inkscape-font-specification:Asap"
       d="m 154.76492,883.83345 0,-10.3237 c 0,-0.21325 0.19388,-0.31987 0.58162,-0.31988 l 0.0581,0 c 0.38774,10e-6 0.58162,0.10663 0.58162,0.31988 l 0,3.66419 c 0.63977,-0.49437 1.36679,-0.74155 2.18106,-0.74156 0.81426,1e-5 1.49281,0.33928 2.03566,1.01782 0.54283,0.66887 0.81425,1.59946 0.81426,2.79176 l 0,0.13087 c -1e-5,1.12446 -0.25689,2.04535 -0.77064,2.76268 -0.50407,0.71733 -1.18263,1.07599 -2.03566,1.07599 -0.85304,0 -1.62853,-0.36351 -2.32647,-1.09053 l -0.23264,0.85788 c -0.0485,0.11632 -0.17934,0.17449 -0.39259,0.17449 l -0.0582,0 c -0.29081,0 -0.43622,-0.10664 -0.43622,-0.31989 m 1.2214,-1.68669 c 0.61069,0.66885 1.23593,1.00329 1.87571,1.00329 1.25047,0 1.87571,-0.97906 1.87572,-2.93716 -1e-5,-0.86273 -0.1648,-1.52674 -0.49438,-1.99204 -0.31989,-0.46529 -0.79003,-0.70278 -1.41042,-0.71248 l -0.0872,0 c -0.64948,0 -1.23594,0.21811 -1.75939,0.65431 l 0,3.98408" />
    <path
       inkscape:connector-curvature="0"
       id="path4207"
       style="font-size:16.100811px;font-style:normal;font-variant:normal;font-weight:normal;font-stretch:normal;line-height:125%;letter-spacing:0px;word-spacing:0px;fill:#d7f4ee;fill-opacity:1;stroke:none;font-family:Asap;-inkscape-font-specification:Asap"
       d="m 162.56313,883.83345 0,-0.95967 c 0,-0.21326 0.19387,-0.31989 0.58161,-0.31989 l 0.2472,0 c 0.38774,0 0.58161,0.10663 0.58161,0.31989 l 0,0.95967 c 0,0.21325 -0.19387,0.31989 -0.58161,0.31989 l -0.2472,0 c -0.38774,0 -0.58161,-0.10664 -0.58161,-0.31989" />
    <path
       inkscape:connector-curvature="0"
       id="path4209"
       style="font-size:16.100811px;font-style:normal;font-variant:normal;font-weight:normal;font-stretch:normal;line-height:125%;letter-spacing:0px;word-spacing:0px;fill:#d7f4ee;fill-opacity:1;stroke:none;font-family:Asap;-inkscape-font-specification:Asap"
       d="m 166.056,883.83345 0,-10.3237 c 0,-0.21325 0.19388,-0.31987 0.58163,-0.31988 l 0.0582,0 c 0.38774,10e-6 0.58161,0.10663 0.58161,0.31988 l 0,3.92591 c 0.66885,-0.66885 1.41042,-1.00327 2.22469,-1.00328 0.55252,1e-5 1.05174,0.14056 1.49766,0.42167 0.24233,0.16479 0.43621,0.41199 0.58161,0.74156 0.1551,0.32959 0.23265,0.72703 0.23265,1.19231 l 0,5.04553 c 0,0.21325 -0.19388,0.31989 -0.58162,0.31989 l -0.0582,0 c -0.38775,0 -0.58162,-0.10664 -0.58161,-0.31989 l 0,-4.92921 c -1e-5,-0.4362 -0.12603,-0.78033 -0.37805,-1.03236 -0.25204,-0.25203 -0.58162,-0.37805 -0.98875,-0.37805 -0.39744,0 -0.75126,0.0872 -1.06145,0.26172 -0.30051,0.1648 -0.52346,0.32959 -0.66887,0.49438 l -0.2181,0.26172 0,5.3218 c 0,0.21325 -0.19387,0.31989 -0.58161,0.31989 l -0.0582,0 c -0.38775,0 -0.58163,-0.10664 -0.58163,-0.31989" />
    <path
       inkscape:connector-curvature="0"
       id="path4211"
       style="font-size:16.100811px;font-style:normal;font-variant:normal;font-weight:normal;font-stretch:normal;line-height:125%;letter-spacing:0px;word-spacing:0px;fill:#d7f4ee;fill-opacity:1;stroke:none;font-family:Asap;-inkscape-font-specification:Asap"
       d="m 173.59453,883.65896 0,-0.20356 c 0,-0.23265 0.11633,-0.40229 0.34897,-0.50892 l 5.17639,-2.1229 -5.17639,-2.10836 c -0.23264,-0.0872 -0.34897,-0.25688 -0.34897,-0.50891 l 0,-0.20357 c 0,-0.25203 0.10179,-0.37804 0.30535,-0.37805 0.0678,10e-6 0.14056,0.0145 0.21811,0.0436 l 5.97611,2.53003 c 0.24233,0.10662 0.3635,0.27627 0.36351,0.50891 l 0,0.24719 c -10e-6,0.23265 -0.12118,0.40228 -0.36351,0.50891 l -5.97611,2.53003 c -0.0776,0.0291 -0.15025,0.0436 -0.21811,0.0436 -0.20356,0 -0.30535,-0.12601 -0.30535,-0.37805" />
    <path
       inkscape:connector-curvature="0"
       id="path4213"
       style="font-size:16.100811px;font-style:normal;font-variant:normal;font-weight:normal;font-stretch:normal;line-height:125%;letter-spacing:0px;word-spacing:0px;fill:#d7f4ee;fill-opacity:1;stroke:none;font-family:Asap;-inkscape-font-specification:Asap"
       d="m 64.129761,892.07786 0.05816,0 c 0.232641,10e-6 0.348964,0.0969 0.348969,0.29081 -5e-6,0.0678 -0.01455,0.14057 -0.04362,0.21811 l -4.507528,10.48363 c -0.09694,0.22295 -0.256881,0.33443 -0.479833,0.33443 l -0.05816,0 c -0.252033,0 -0.37805,-0.0969 -0.37805,-0.29081 0,-0.0776 0.01454,-0.15025 0.04362,-0.21811 l 4.507527,-10.48363 c 0.09693,-0.22294 0.266569,-0.33442 0.508914,-0.33443" />
    <path
       inkscape:connector-curvature="0"
       id="path4215"
       style="font-size:16.100811px;font-style:normal;font-variant:normal;font-weight:normal;font-stretch:normal;line-height:125%;letter-spacing:0px;word-spacing:0px;fill:#d7f4ee;fill-opacity:1;stroke:none;font-family:Asap;-inkscape-font-specification:Asap"
       d="m 69.525618,892.07786 0.05816,0 c 0.232641,10e-6 0.348964,0.0969 0.348969,0.29081 -5e-6,0.0678 -0.01455,0.14057 -0.04362,0.21811 L 65.3816,903.07041 c -0.09694,0.22295 -0.256882,0.33443 -0.479834,0.33443 l -0.05816,0 c -0.252034,0 -0.378051,-0.0969 -0.378051,-0.29081 0,-0.0776 0.01454,-0.15025 0.04362,-0.21811 l 4.507527,-10.48363 c 0.09693,-0.22294 0.26657,-0.33442 0.508915,-0.33443" />
    <path
       inkscape:connector-curvature="0"
       id="path4217"
       style="font-size:16.100811px;font-style:normal;font-variant:normal;font-weight:normal;font-stretch:normal;line-height:125%;letter-spacing:0px;word-spacing:0px;fill:#d7f4ee;fill-opacity:1;stroke:none;font-family:Asap;-inkscape-font-specification:Asap"
       d="m 74.910342,902.00896 0,-9.59667 c -2e-6,-0.21325 0.19387,-0.31988 0.581616,-0.31989 l 0.116323,0 c 0.387742,10e-6 0.581614,0.10664 0.581617,0.31989 l 0,4.11494 5.263629,0 0,-4.11494 c -8e-6,-0.21325 0.193864,-0.31988 0.581616,-0.31989 l 0.116324,0 c 0.387735,10e-6 0.581607,0.10664 0.581616,0.31989 l 0,9.59667 c -9e-6,0.21326 -0.193881,0.31989 -0.581616,0.31989 l -0.116324,0 c -0.387752,0 -0.581624,-0.10663 -0.581616,-0.31989 l 0,-4.37666 -5.263629,0 0,4.37666 c -3e-6,0.21326 -0.193875,0.31989 -0.581617,0.31989 l -0.116323,0 c -0.387746,0 -0.581618,-0.10663 -0.581616,-0.31989" />
    <path
       inkscape:connector-curvature="0"
       id="path4219"
       style="font-size:16.100811px;font-style:normal;font-variant:normal;font-weight:normal;font-stretch:normal;line-height:125%;letter-spacing:0px;word-spacing:0px;fill:#d7f4ee;fill-opacity:1;stroke:none;font-family:Asap;-inkscape-font-specification:Asap"
       d="m 85.240168,900.03146 0,-5.04552 c -10e-7,-0.21325 0.193871,-0.31988 0.581616,-0.31989 l 0.05816,0 c 0.387743,10e-6 0.581614,0.10664 0.581617,0.31989 l 0,4.92921 c -3e-6,0.4459 0.126014,0.79487 0.378051,1.0469 0.261724,0.24234 0.630081,0.36352 1.105071,0.36352 0.697935,0 1.308632,-0.33928 1.832096,-1.01784 l 0,-5.32179 c -9e-6,-0.21325 0.193865,-0.31988 0.581614,-0.31989 l 0.05816,0 c 0.38774,10e-6 0.581614,0.10664 0.581623,0.31989 l 0,5.16185 c -9e-6,0.58161 0.0242,1.00329 0.0727,1.26501 0.06782,0.35867 0.101777,0.54769 0.101786,0.56708 -9e-6,0.11633 -0.0921,0.20356 -0.276272,0.26173 -0.184184,0.0485 -0.32959,0.0727 -0.436208,0.0727 -0.09695,0 -0.164804,-0.01 -0.203565,-0.0291 -0.03883,-0.0194 -0.07757,-0.0533 -0.116326,-0.10179 -0.02908,-0.0485 -0.05328,-0.0921 -0.0727,-0.13085 -0.01942,-0.0485 -0.03874,-0.11148 -0.05816,-0.18903 -0.01942,-0.0776 -0.03874,-0.13571 -0.05816,-0.17448 -0.0097,-0.0485 -0.0242,-0.11633 -0.04362,-0.20358 -0.0097,-0.0969 -0.01942,-0.15993 -0.02908,-0.18902 -0.649476,0.72702 -1.376496,1.09053 -2.181061,1.09053 -0.794879,0 -1.405575,-0.20841 -1.832092,-0.62524 -0.416827,-0.41682 -0.625239,-0.99359 -0.625237,-1.73031" />
    <path
       inkscape:connector-curvature="0"
       id="path4221"
       style="font-size:16.100811px;font-style:normal;font-variant:normal;font-weight:normal;font-stretch:normal;line-height:125%;letter-spacing:0px;word-spacing:0px;fill:#d7f4ee;fill-opacity:1;stroke:none;font-family:Asap;-inkscape-font-specification:Asap"
       d="m 97.783319,897.55959 0,-0.68339 c -9e-6,-0.81426 -0.533155,-1.22139 -1.599446,-1.2214 -0.697941,10e-6 -1.342572,0.15026 -1.933877,0.45075 -0.203564,0.10664 -0.315041,0.15995 -0.33443,0.15995 -0.09694,0 -0.208415,-0.0969 -0.334431,-0.29081 -0.116318,-0.19386 -0.174485,-0.33927 -0.174485,-0.43621 0,-0.20356 0.281112,-0.40712 0.843346,-0.6107 0.571924,-0.21325 1.255317,-0.31988 2.050204,-0.31989 0.794869,10e-6 1.444341,0.20357 1.948407,0.61069 0.504066,0.39745 0.756099,0.95484 0.756109,1.67216 l 0,3.25705 c -1e-5,0.58161 0.0242,1.00329 0.0727,1.26501 0.06782,0.35867 0.101778,0.54769 0.101787,0.56708 -9e-6,0.11633 -0.0921,0.20356 -0.276272,0.26173 -0.184185,0.0485 -0.32959,0.0727 -0.436209,0.0727 -0.09695,0 -0.164804,-0.01 -0.203573,-0.0291 -0.03874,-0.0194 -0.07758,-0.0533 -0.116318,-0.10179 -0.02908,-0.0485 -0.05328,-0.0921 -0.0727,-0.13085 -0.01942,-0.0485 -0.03874,-0.11148 -0.05816,-0.18903 -0.01942,-0.0776 -0.03874,-0.13571 -0.05816,-0.17448 -0.0097,-0.0485 -0.0242,-0.11633 -0.04362,-0.20358 -0.0097,-0.0969 -0.01942,-0.15993 -0.02908,-0.18902 -0.659171,0.72702 -1.47343,1.09053 -2.442784,1.09053 -0.746409,0 -1.347413,-0.18418 -1.80301,-0.55254 -0.455607,-0.36835 -0.683401,-0.93542 -0.683401,-1.70122 0,-0.76579 0.261723,-1.33771 0.785178,-1.71577 0.533146,-0.38774 1.129309,-0.62039 1.788471,-0.69794 0.659163,-0.0872 1.410422,-0.14055 2.253768,-0.15995 m -3.518783,2.57366 c 0,0.79488 0.411979,1.19232 1.235936,1.19232 0.474987,0 0.882116,-0.0872 1.221396,-0.26174 0.348962,-0.17448 0.702782,-0.42166 1.061451,-0.74156 l 0,-1.71577 c -1.211706,10e-6 -1.992044,0.0678 -2.341006,0.20357 -0.184184,0.0679 -0.378058,0.1551 -0.581623,0.26173 -0.397439,0.20356 -0.596154,0.55738 -0.596154,1.06145" />
    <path
       inkscape:connector-curvature="0"
       id="path4223"
       style="font-size:16.100811px;font-style:normal;font-variant:normal;font-weight:normal;font-stretch:normal;line-height:125%;letter-spacing:0px;word-spacing:0px;fill:#d7f4ee;fill-opacity:1;stroke:none;font-family:Asap;-inkscape-font-specification:Asap"
       d="m 100.42854,894.91324 c 0,-0.16478 0.20841,-0.24718 0.62523,-0.24719 l 0.11633,0 c 0.31989,10e-6 0.51375,0.0776 0.58161,0.23265 l 1.9775,5.24909 1.93388,-5.24909 c 0.0485,-0.15509 0.26172,-0.23264 0.63978,-0.23265 0.38773,10e-6 0.5816,0.0824 0.58161,0.24719 -1e-5,0.0485 -0.0145,0.11633 -0.0436,0.20357 l -3.73688,9.90202 c -0.0776,0.20356 -0.30536,0.30534 -0.68341,0.30535 l -0.2181,0 c -0.31989,-10e-6 -0.47984,-0.0776 -0.47984,-0.23265 0,-0.0291 0.43137,-1.09538 1.2941,-3.19889 l -2.54457,-6.79037 c -0.0291,-0.0872 -0.0436,-0.15025 -0.0436,-0.18903" />
    <path
       inkscape:connector-curvature="0"
       id="path4225"
       style="font-size:16.100811px;font-style:normal;font-variant:normal;font-weight:normal;font-stretch:normal;line-height:125%;letter-spacing:0px;word-spacing:0px;fill:#d7f4ee;fill-opacity:1;stroke:none;font-family:Asap;-inkscape-font-specification:Asap"
       d="m 108.46167,902.00896 0,-5.10368 c -1e-5,-0.59131 -0.0242,-1.01298 -0.0727,-1.26502 -0.0678,-0.34896 -0.10178,-0.53798 -0.10178,-0.56707 0,-0.11632 0.0921,-0.19872 0.27626,-0.24719 0.18418,-0.0582 0.32473,-0.0872 0.42168,-0.0872 0.10663,1e-5 0.17933,0.01 0.21811,0.0291 0.0387,0.0194 0.0727,0.0533 0.10177,0.10177 0.0388,0.0388 0.0678,0.0825 0.0872,0.13087 0.0194,0.0388 0.0387,0.0969 0.0582,0.17449 0.0194,0.0679 0.034,0.12602 0.0436,0.17448 0.0194,0.0387 0.034,0.10179 0.0436,0.18903 0.0194,0.0776 0.034,0.13087 0.0436,0.15994 0.51375,-0.72701 1.07599,-1.09052 1.68668,-1.09053 0.27142,10e-6 0.47983,0.0534 0.62524,0.15995 0.1454,0.10663 0.2181,0.24234 0.21811,0.40713 -1e-5,0.1648 -0.0291,0.33928 -0.0872,0.52345 -0.0582,0.1745 -0.12603,0.26173 -0.20357,0.26173 -0.0388,0 -0.13572,-0.0242 -0.29081,-0.0727 -0.14541,-0.0582 -0.32474,-0.0872 -0.53799,-0.0872 -0.20358,0 -0.41683,0.0776 -0.63978,0.23264 -0.22296,0.14541 -0.38775,0.29081 -0.49438,0.43621 l -0.17449,0.21811 0,5.32179 c 0,0.21326 -0.19387,0.31989 -0.58161,0.31989 l -0.0582,0 c -0.38775,0 -0.58162,-0.10663 -0.58161,-0.31989" />
    <path
       inkscape:connector-curvature="0"
       id="path4227"
       style="font-size:16.100811px;font-style:normal;font-variant:normal;font-weight:normal;font-stretch:normal;line-height:125%;letter-spacing:0px;word-spacing:0px;fill:#d7f4ee;fill-opacity:1;stroke:none;font-family:Asap;-inkscape-font-specification:Asap"
       d="m 118.03198,897.55959 0,-0.68339 c -1e-5,-0.81426 -0.53315,-1.22139 -1.59944,-1.2214 -0.69795,10e-6 -1.34258,0.15026 -1.93388,0.45075 -0.20357,0.10664 -0.31504,0.15995 -0.33443,0.15995 -0.0969,0 -0.20842,-0.0969 -0.33443,-0.29081 -0.11633,-0.19386 -0.17449,-0.33927 -0.17449,-0.43621 0,-0.20356 0.28112,-0.40712 0.84335,-0.6107 0.57192,-0.21325 1.25532,-0.31988 2.05019,-0.31989 0.79488,10e-6 1.44434,0.20357 1.94842,0.61069 0.50407,0.39745 0.7561,0.95484 0.7561,1.67216 l 0,3.25705 c 0,0.58161 0.0242,1.00329 0.0727,1.26501 0.0678,0.35867 0.10178,0.54769 0.10178,0.56708 0,0.11633 -0.0921,0.20356 -0.27627,0.26173 -0.18418,0.0485 -0.32959,0.0727 -0.43621,0.0727 -0.0969,0 -0.1648,-0.01 -0.20357,-0.0291 -0.0387,-0.0194 -0.0776,-0.0533 -0.11632,-0.10179 -0.0291,-0.0485 -0.0534,-0.0921 -0.0727,-0.13085 -0.0194,-0.0485 -0.0387,-0.11148 -0.0581,-0.18903 -0.0194,-0.0776 -0.0387,-0.13571 -0.0582,-0.17448 -0.01,-0.0485 -0.0242,-0.11633 -0.0436,-0.20358 -0.01,-0.0969 -0.0194,-0.15993 -0.0291,-0.18902 -0.65917,0.72702 -1.47343,1.09053 -2.44278,1.09053 -0.74642,0 -1.34742,-0.18418 -1.80302,-0.55254 -0.4556,-0.36835 -0.6834,-0.93542 -0.6834,-1.70122 0,-0.76579 0.26173,-1.33771 0.78518,-1.71577 0.53315,-0.38774 1.1293,-0.62039 1.78847,-0.69794 0.65917,-0.0872 1.41042,-0.14055 2.25377,-0.15995 m -3.51878,2.57366 c 0,0.79488 0.41198,1.19232 1.23593,1.19232 0.47498,0 0.88212,-0.0872 1.2214,-0.26174 0.34896,-0.17448 0.70278,-0.42166 1.06145,-0.74156 l 0,-1.71577 c -1.21171,10e-6 -1.99204,0.0678 -2.341,0.20357 -0.18419,0.0679 -0.37806,0.1551 -0.58163,0.26173 -0.39744,0.20356 -0.59615,0.55738 -0.59615,1.06145" />
    <path
       inkscape:connector-curvature="0"
       id="path4229"
       style="font-size:16.100811px;font-style:normal;font-variant:normal;font-weight:normal;font-stretch:normal;line-height:125%;letter-spacing:0px;word-spacing:0px;fill:#d7f4ee;fill-opacity:1;stroke:none;font-family:Asap;-inkscape-font-specification:Asap"
       d="m 128.27071,902.38701 c -1.21171,0 -2.10836,-0.31504 -2.68998,-0.94513 -0.58162,-0.63008 -0.87242,-1.58974 -0.87242,-2.879 0,-1.29893 0.28596,-2.28284 0.85787,-2.9517 0.57193,-0.66885 1.38619,-1.00328 2.4428,-1.00329 2.05504,10e-6 3.08256,1.26503 3.08256,3.79505 0,0.0872 -0.0582,0.20841 -0.17448,0.36351 -0.11633,0.1551 -0.21812,0.23265 -0.30535,0.23265 l -4.59477,0 c 0.0582,0.80457 0.26657,1.39588 0.62523,1.77392 0.35866,0.37806 0.89666,0.56709 1.61399,0.56709 0.65916,0 1.26501,-0.1551 1.81756,-0.4653 0.18416,-0.0969 0.28595,-0.14541 0.30534,-0.14541 0.0969,0 0.20356,0.0969 0.31989,0.29082 0.12601,0.19387 0.18902,0.33927 0.18903,0.4362 -1e-5,0.19388 -0.26659,0.39744 -0.79972,0.61071 -0.52347,0.21325 -1.12931,0.31988 -1.81755,0.31988 m 1.52674,-4.43482 c -1e-5,-1.53159 -0.58163,-2.29738 -1.74486,-2.29739 -1.25047,10e-6 -1.92902,0.7658 -2.03565,2.29739 l 3.78051,0" />
    <path
       inkscape:connector-curvature="0"
       id="path4231"
       style="font-size:16.100811px;font-style:normal;font-variant:normal;font-weight:normal;font-stretch:normal;line-height:125%;letter-spacing:0px;word-spacing:0px;fill:#d7f4ee;fill-opacity:1;stroke:none;font-family:Asap;-inkscape-font-specification:Asap"
       d="m 132.25568,901.51459 c 0,-0.0969 0.0582,-0.24234 0.17449,-0.43622 0.12601,-0.19386 0.23749,-0.2908 0.33443,-0.2908 0.01,0 0.0872,0.0485 0.23265,0.1454 0.1454,0.0872 0.35381,0.17933 0.62523,0.27627 0.27143,0.0872 0.59616,0.13087 0.97422,0.13087 0.38774,0 0.70278,-0.10664 0.94512,-0.31989 0.25202,-0.22296 0.37804,-0.51861 0.37805,-0.88697 -1e-5,-0.37805 -0.11148,-0.66886 -0.33443,-0.87243 -0.21326,-0.21325 -0.64463,-0.41198 -1.29409,-0.59615 -0.64948,-0.18418 -1.11962,-0.41683 -1.41043,-0.69794 -0.29081,-0.2908 -0.43621,-0.72702 -0.4362,-1.30864 -1e-5,-0.58161 0.22294,-1.06629 0.66885,-1.45404 0.44591,-0.39743 1.02752,-0.59615 1.74485,-0.59616 0.49437,10e-6 0.93542,0.063 1.32317,0.18903 0.38774,0.12602 0.58162,0.26658 0.58163,0.42166 -1e-5,0.12603 -0.0582,0.29083 -0.17449,0.49438 -0.10663,0.19388 -0.20357,0.29082 -0.29081,0.29081 -0.01,10e-6 -0.0727,-0.0291 -0.18902,-0.0872 -0.32959,-0.17447 -0.70279,-0.26171 -1.11961,-0.26172 -0.40714,10e-6 -0.72703,0.0872 -0.95968,0.26172 -0.22295,0.16481 -0.33443,0.38291 -0.33442,0.65433 -1e-5,0.27142 0.0824,0.48468 0.24718,0.63978 0.17449,0.15509 0.46529,0.29565 0.87243,0.42167 0.9112,0.28112 1.52674,0.59131 1.84663,0.93058 0.32958,0.32959 0.49437,0.83366 0.49438,1.51221 -1e-5,0.66885 -0.24235,1.22139 -0.72702,1.6576 -0.475,0.43621 -1.04691,0.65432 -1.71578,0.65432 -0.66886,0 -1.24562,-0.0969 -1.7303,-0.29081 -0.48469,-0.20356 -0.72703,-0.39743 -0.72703,-0.58161" />
    <path
       inkscape:connector-curvature="0"
       id="path4233"
       style="font-size:16.100811px;font-style:normal;font-variant:normal;font-weight:normal;font-stretch:normal;line-height:125%;letter-spacing:0px;word-spacing:0px;fill:#d7f4ee;fill-opacity:1;stroke:none;font-family:Asap;-inkscape-font-specification:Asap"
       d="m 141.7701,901.32557 c 0,-0.11633 0.063,-0.27628 0.18903,-0.47984 0.13572,-0.20356 0.24234,-0.30535 0.31989,-0.30535 0.0291,0 0.15026,0.063 0.36351,0.18902 0.21326,0.11633 0.51377,0.2375 0.90151,0.36351 0.38775,0.12602 0.8288,0.18903 1.32318,0.18903 0.50406,0 0.93058,-0.15995 1.27955,-0.47983 0.35866,-0.31989 0.53799,-0.72702 0.538,-1.2214 -10e-6,-0.49437 -0.1648,-0.88696 -0.49438,-1.17777 -0.31989,-0.29081 -0.71248,-0.51861 -1.17776,-0.6834 -0.45561,-0.17448 -0.91606,-0.35866 -1.38135,-0.55254 -0.46529,-0.19386 -0.86273,-0.49437 -1.19231,-0.9015 -0.31989,-0.40712 -0.47984,-0.92573 -0.47984,-1.55582 0,-0.80457 0.29566,-1.44919 0.88697,-1.93388 0.59131,-0.49437 1.37164,-0.74155 2.341,-0.74156 0.47499,1e-5 0.9839,0.0872 1.52675,0.26172 0.54283,0.1745 0.81426,0.38291 0.81427,0.62525 -1e-5,0.10663 -0.063,0.26173 -0.18904,0.46528 -0.11632,0.20358 -0.20841,0.30537 -0.27626,0.30536 -0.0387,10e-6 -0.14057,-0.0485 -0.30535,-0.14541 -0.49438,-0.27141 -1.02752,-0.40712 -1.59945,-0.40713 -0.57192,10e-6 -1.02752,0.14057 -1.36679,0.42167 -0.33928,0.27143 -0.50892,0.67372 -0.50892,1.20686 0,0.53315 0.31504,0.94998 0.94513,1.25047 0.27142,0.12603 0.57676,0.25204 0.91604,0.37805 0.33927,0.11633 0.6737,0.25688 1.00329,0.42167 0.33928,0.15511 0.64462,0.33928 0.91605,0.55254 0.28111,0.21326 0.50891,0.50407 0.6834,0.87242 0.17448,0.36836 0.26171,0.79488 0.26172,1.27956 -1e-5,0.89181 -0.29081,1.5946 -0.87242,2.10836 -0.58162,0.50407 -1.31834,0.7561 -2.21014,0.7561 -0.89182,0 -1.64307,-0.12117 -2.25377,-0.36351 -0.601,-0.24234 -0.90151,-0.47499 -0.90151,-0.69793" />
    <path
       inkscape:connector-curvature="0"
       id="path4235"
       style="font-size:16.100811px;font-style:normal;font-variant:normal;font-weight:normal;font-stretch:normal;line-height:125%;letter-spacing:0px;word-spacing:0px;fill:#d7f4ee;fill-opacity:1;stroke:none;font-family:Asap;-inkscape-font-specification:Asap"
       d="m 149.88434,901.86356 0,-9.45127 c 0,-0.21325 0.19387,-0.31988 0.58161,-0.31989 l 0.11633,0 c 0.38774,10e-6 0.58161,0.10664 0.58161,0.31989 l 0,8.78241 3.99862,0 c 0.19387,0 0.2908,0.14541 0.29081,0.43621 l 0,0.23265 c -1e-5,0.2908 -0.0969,0.43621 -0.29081,0.43621 l -4.84195,0 c -0.29081,0 -0.43622,-0.14541 -0.43622,-0.43621" />
    <g
       transform="matrix(0.42725817,0,0,0.42725817,60.990718,859.50318)"
       style="font-size:40px;font-style:normal;font-variant:normal;font-weight:normal;font-stretch:normal;line-height:125%;letter-spacing:0px;word-spacing:0px;fill:#d7f4ee;fill-opacity:1;stroke:none;font-family:'A.C.M.E. Secret Agent';-inkscape-font-specification:'A.C.M.E. Secret Agent'"
       id="flowRoot3088">
      <path
         d="m 6.61125,144.59669 c -2.1e-6,-1.99999 0.2666643,-3.71999 0.8,-5.16 0.5599966,-1.43999 1.3066625,-2.54665 2.24,-3.32 1.759993,-1.41332 3.906658,-2.11998 6.44,-2.12 1.546654,2e-5 2.933319,0.18668 4.16,0.56 1.22665,0.37335 1.839982,0.80002 1.84,1.28 -1.8e-5,0.34668 -0.160017,0.80001 -0.48,1.36 -0.29335,0.53335 -0.560017,0.80001 -0.8,0.8 -0.02668,1e-5 -0.08002,-0.0133 -0.16,-0.04 -0.05335,-0.0267 -0.106683,-0.04 -0.16,-0.04 -0.02668,-0.0266 -0.06668,-0.0533 -0.12,-0.08 -1.440014,-0.63999 -2.893346,-0.95999 -4.36,-0.96 -3.866674,1e-5 -5.800006,2.54668 -5.8,7.64 -6e-6,2.82667 0.466661,4.86667 1.4,6.12 0.959992,1.25333 2.55999,1.88 4.8,1.88 1.626653,0 3.133318,-0.34667 4.52,-1.04 0.07998,-0.0267 0.159983,-0.0533 0.24,-0.08 0.10665,-0.0533 0.173317,-0.08 0.2,-0.08 0.26665,0 0.559983,0.26667 0.88,0.8 0.319982,0.50667 0.479982,0.92 0.48,1.24 -1.8e-5,0.48 -0.626684,0.94666 -1.88,1.4 -1.253348,0.42666 -2.720014,0.64 -4.4,0.64 -3.306675,0 -5.773339,-0.85334 -7.4,-2.56 -1.6266696,-1.70667 -2.4400021,-4.45333 -2.44,-8.24"
         style="fill:#d7f4ee;font-family:Asap;-inkscape-font-specification:Asap"
         id="path3189" />
      <path
         d="m 27.264375,149.87669 0,-23.92 c -3e-6,-0.58664 0.53333,-0.87997 1.6,-0.88 l 0.16,0 c 1.066661,3e-5 1.599993,0.29336 1.6,0.88 l 0,23.6 c -7e-6,1.97333 0.719993,2.96 2.16,2.96 0.453324,0 0.83999,-0.0267 1.16,-0.08 0.31999,-0.08 0.506656,-0.12 0.56,-0.12 0.239989,0 0.439989,0.25333 0.6,0.76 0.159989,0.48 0.239989,0.85333 0.24,1.12 -1.1e-5,0.8 -0.973344,1.2 -2.92,1.2 -1.33334,0 -2.533339,-0.4 -3.6,-1.2 -1.040004,-0.82667 -1.560003,-2.26667 -1.56,-4.32"
         style="fill:#d7f4ee;font-family:Asap;-inkscape-font-specification:Asap"
         id="path3191" />
      <path
         d="m 51.099375,142.11669 0,-1.88 c -1.5e-5,-2.23999 -1.46668,-3.35999 -4.4,-3.36 -1.920009,1e-5 -3.69334,0.41335 -5.32,1.24 -0.560005,0.29335 -0.866671,0.44001 -0.92,0.44 -0.266671,1e-5 -0.573337,-0.26665 -0.92,-0.8 -0.320003,-0.53332 -0.480003,-0.93332 -0.48,-1.2 -3e-6,-0.55998 0.773329,-1.11998 2.32,-1.68 1.573326,-0.58665 3.453324,-0.87998 5.64,-0.88 2.186653,2e-5 3.973318,0.56002 5.36,1.68 1.386649,1.09335 2.079981,2.62668 2.08,4.6 l 0,8.96 c -1.9e-5,1.6 0.06665,2.76 0.2,3.48 0.186648,0.98666 0.279981,1.50666 0.28,1.56 -1.9e-5,0.32 -0.253352,0.56 -0.76,0.72 -0.506684,0.13333 -0.906684,0.2 -1.2,0.2 -0.266684,0 -0.45335,-0.0267 -0.56,-0.08 -0.106683,-0.0533 -0.21335,-0.14667 -0.32,-0.28 -0.08002,-0.13334 -0.146683,-0.25334 -0.2,-0.36 -0.05335,-0.13334 -0.106683,-0.30667 -0.16,-0.52 -0.05335,-0.21334 -0.106682,-0.37334 -0.16,-0.48 -0.02668,-0.13334 -0.06668,-0.32 -0.12,-0.56 -0.02668,-0.26667 -0.05335,-0.44 -0.08,-0.52 -1.813347,2 -4.053345,3 -6.72,3 -2.05334,0 -3.706672,-0.50667 -4.96,-1.52 -1.253336,-1.01333 -1.880002,-2.57333 -1.88,-4.68 -2e-6,-2.10666 0.719997,-3.67999 2.16,-4.72 1.466661,-1.06666 3.106659,-1.70666 4.92,-1.92 1.813322,-0.23999 3.879987,-0.38666 6.2,-0.44 m -9.68,7.08 c -6e-6,2.18667 1.133327,3.28 3.4,3.28 1.306656,0 2.426655,-0.24 3.36,-0.72 0.959987,-0.48 1.933319,-1.16 2.92,-2.04 l 0,-4.72 c -3.333345,1e-5 -5.48001,0.18667 -6.44,0.56 -0.506675,0.18667 -1.040008,0.42667 -1.6,0.72 -1.093339,0.56 -1.640006,1.53334 -1.64,2.92"
         style="fill:#d7f4ee;font-family:Asap;-inkscape-font-specification:Asap"
         id="path3193" />
      <path
         d="m 59.05625,152.99669 c -10e-7,-0.26667 0.159998,-0.66667 0.48,-1.2 0.346664,-0.53333 0.653331,-0.8 0.92,-0.8 0.02666,0 0.239997,0.13333 0.64,0.4 0.399996,0.24 0.973329,0.49333 1.72,0.76 0.746661,0.24 1.639993,0.36 2.68,0.36 1.066658,0 1.933324,-0.29333 2.6,-0.88 0.693322,-0.61333 1.039989,-1.42667 1.04,-2.44 -1.1e-5,-1.04 -0.306678,-1.84 -0.92,-2.4 -0.586677,-0.58666 -1.773342,-1.13333 -3.56,-1.64 -1.786672,-0.50666 -3.080004,-1.14666 -3.88,-1.92 -0.800002,-0.79999 -1.200002,-1.99999 -1.2,-3.6 -2e-6,-1.59999 0.613331,-2.93332 1.84,-4 1.226662,-1.09332 2.82666,-1.63998 4.8,-1.64 1.35999,2e-5 2.573322,0.17335 3.64,0.52 1.066653,0.34668 1.599986,0.73335 1.6,1.16 -1.4e-5,0.34668 -0.160014,0.80001 -0.48,1.36 -0.293346,0.53335 -0.560013,0.80001 -0.8,0.8 -0.02668,1e-5 -0.200012,-0.08 -0.52,-0.24 -0.906678,-0.47999 -1.933343,-0.71999 -3.08,-0.72 -1.120008,1e-5 -2.000007,0.24001 -2.64,0.72 -0.613339,0.45335 -0.920005,1.05335 -0.92,1.8 -5e-6,0.74668 0.226661,1.33334 0.68,1.76 0.479993,0.42668 1.279993,0.81334 2.4,1.16 2.506656,0.77334 4.199987,1.62667 5.08,2.56 0.906652,0.90667 1.359985,2.29334 1.36,4.16 -1.5e-5,1.84 -0.666681,3.36 -2,4.56 -1.306678,1.2 -2.88001,1.8 -4.72,1.8 -1.840006,0 -3.426671,-0.26667 -4.76,-0.8 -1.333335,-0.56 -2.000001,-1.09334 -2,-1.6"
         style="fill:#d7f4ee;font-family:Asap;-inkscape-font-specification:Asap"
         id="path3195" />
      <path
         d="m 75.540625,152.99669 c -1e-6,-0.26667 0.159998,-0.66667 0.48,-1.2 0.346664,-0.53333 0.653331,-0.8 0.92,-0.8 0.02666,0 0.239997,0.13333 0.64,0.4 0.399996,0.24 0.973329,0.49333 1.72,0.76 0.746661,0.24 1.639993,0.36 2.68,0.36 1.066658,0 1.933324,-0.29333 2.6,-0.88 0.693322,-0.61333 1.039989,-1.42667 1.04,-2.44 -1.1e-5,-1.04 -0.306678,-1.84 -0.92,-2.4 -0.586677,-0.58666 -1.773342,-1.13333 -3.56,-1.64 -1.786672,-0.50666 -3.080004,-1.14666 -3.88,-1.92 -0.800002,-0.79999 -1.200002,-1.99999 -1.2,-3.6 -2e-6,-1.59999 0.613331,-2.93332 1.84,-4 1.226662,-1.09332 2.82666,-1.63998 4.8,-1.64 1.35999,2e-5 2.573322,0.17335 3.64,0.52 1.066653,0.34668 1.599986,0.73335 1.6,1.16 -1.4e-5,0.34668 -0.160014,0.80001 -0.48,1.36 -0.293346,0.53335 -0.560013,0.80001 -0.8,0.8 -0.02668,1e-5 -0.200012,-0.08 -0.52,-0.24 -0.906678,-0.47999 -1.933343,-0.71999 -3.08,-0.72 -1.120008,1e-5 -2.000007,0.24001 -2.64,0.72 -0.613339,0.45335 -0.920005,1.05335 -0.92,1.8 -5e-6,0.74668 0.226661,1.33334 0.68,1.76 0.479993,0.42668 1.279993,0.81334 2.4,1.16 2.506656,0.77334 4.199987,1.62667 5.08,2.56 0.906652,0.90667 1.359985,2.29334 1.36,4.16 -1.5e-5,1.84 -0.666681,3.36 -2,4.56 -1.306678,1.2 -2.88001,1.8 -4.72,1.8 -1.840006,0 -3.426671,-0.26667 -4.76,-0.8 -1.333335,-0.56 -2.000001,-1.09334 -2,-1.6"
         style="fill:#d7f4ee;font-family:Asap;-inkscape-font-specification:Asap"
         id="path3197" />
      <path
         d="m 101.07438,134.83669 c -1e-5,-0.45332 0.57333,-0.67998 1.72,-0.68 l 0.31999,0 c 0.93333,2e-5 1.46667,0.21335 1.60001,0.64 l 5.36,16.2 5.36,-16.2 c 0.13331,-0.42665 0.71998,-0.63998 1.75999,-0.64 1.06665,2e-5 1.59999,0.22668 1.60001,0.68 -2e-5,0.13335 -0.04,0.32002 -0.12001,0.56 l -6.43999,19.2 c -0.13335,0.42666 -0.66668,0.64 -1.6,0.64 l -1.4,0 c -0.93335,0 -1.46668,-0.21334 -1.6,-0.64 l -6.44001,-19.24 c -0.08,-0.23998 -0.12,-0.41332 -0.11999,-0.52"
         style="fill:#d7f4ee;font-family:Asap;-inkscape-font-specification:Asap"
         id="path3199" />
      <path
         d="m 134.9275,142.11669 0,-1.88 c -2e-5,-2.23999 -1.46668,-3.35999 -4.4,-3.36 -1.92001,1e-5 -3.69334,0.41335 -5.32,1.24 -0.56,0.29335 -0.86667,0.44001 -0.92,0.44 -0.26667,1e-5 -0.57334,-0.26665 -0.92,-0.8 -0.32,-0.53332 -0.48,-0.93332 -0.48,-1.2 0,-0.55998 0.77333,-1.11998 2.32,-1.68 1.57333,-0.58665 3.45332,-0.87998 5.64,-0.88 2.18665,2e-5 3.97332,0.56002 5.36,1.68 1.38665,1.09335 2.07998,2.62668 2.08,4.6 l 0,8.96 c -2e-5,1.6 0.0667,2.76 0.2,3.48 0.18665,0.98666 0.27998,1.50666 0.28,1.56 -2e-5,0.32 -0.25335,0.56 -0.76,0.72 -0.50668,0.13333 -0.90668,0.2 -1.2,0.2 -0.26668,0 -0.45335,-0.0267 -0.56,-0.08 -0.10668,-0.0533 -0.21335,-0.14667 -0.32,-0.28 -0.08,-0.13334 -0.14668,-0.25334 -0.2,-0.36 -0.0533,-0.13334 -0.10668,-0.30667 -0.16,-0.52 -0.0533,-0.21334 -0.10668,-0.37334 -0.16,-0.48 -0.0267,-0.13334 -0.0667,-0.32 -0.12,-0.56 -0.0267,-0.26667 -0.0533,-0.44 -0.08,-0.52 -1.81335,2 -4.05334,3 -6.72,3 -2.05334,0 -3.70667,-0.50667 -4.96,-1.52 -1.25334,-1.01333 -1.88,-2.57333 -1.88,-4.68 0,-2.10666 0.72,-3.67999 2.16,-4.72 1.46666,-1.06666 3.10666,-1.70666 4.92,-1.92 1.81332,-0.23999 3.87999,-0.38666 6.2,-0.44 m -9.68,7.08 c -1e-5,2.18667 1.13333,3.28 3.4,3.28 1.30666,0 2.42666,-0.24 3.36,-0.72 0.95999,-0.48 1.93332,-1.16 2.92,-2.04 l 0,-4.72 c -3.33335,1e-5 -5.48001,0.18667 -6.44,0.56 -0.50667,0.18667 -1.04001,0.42667 -1.6,0.72 -1.09334,0.56 -1.64001,1.53334 -1.64,2.92"
         style="fill:#d7f4ee;font-family:Asap;-inkscape-font-specification:Asap"
         id="path3201" />
      <path
         d="m 143.56437,144.59669 c 0,-1.99999 0.26667,-3.71999 0.8,-5.16 0.56,-1.43999 1.30667,-2.54665 2.24,-3.32 1.76,-1.41332 3.90666,-2.11998 6.44,-2.12 1.54666,2e-5 2.93332,0.18668 4.16,0.56 1.22665,0.37335 1.83999,0.80002 1.84,1.28 -10e-6,0.34668 -0.16001,0.80001 -0.48,1.36 -0.29335,0.53335 -0.56001,0.80001 -0.8,0.8 -0.0267,1e-5 -0.08,-0.0133 -0.16,-0.04 -0.0533,-0.0267 -0.10668,-0.04 -0.16,-0.04 -0.0267,-0.0266 -0.0667,-0.0533 -0.12,-0.08 -1.44001,-0.63999 -2.89334,-0.95999 -4.36,-0.96 -3.86667,1e-5 -5.8,2.54668 -5.8,7.64 0,2.82667 0.46667,4.86667 1.4,6.12 0.96,1.25333 2.56,1.88 4.8,1.88 1.62666,0 3.13332,-0.34667 4.52,-1.04 0.08,-0.0267 0.15999,-0.0533 0.24001,-0.08 0.10664,-0.0533 0.17331,-0.08 0.19999,-0.08 0.26665,0 0.55999,0.26667 0.88,0.8 0.31999,0.50667 0.47999,0.92 0.48,1.24 -1e-5,0.48 -0.62668,0.94666 -1.88,1.4 -1.25334,0.42666 -2.72001,0.64 -4.4,0.64 -3.30667,0 -5.77333,-0.85334 -7.4,-2.56 -1.62666,-1.70667 -2.44,-4.45333 -2.44,-8.24"
         style="fill:#d7f4ee;font-family:Asap;-inkscape-font-specification:Asap"
         id="path3203" />
      <path
         d="m 176.1775,142.11669 0,-1.88 c -2e-5,-2.23999 -1.46668,-3.35999 -4.4,-3.36 -1.92001,1e-5 -3.69334,0.41335 -5.32,1.24 -0.56,0.29335 -0.86667,0.44001 -0.92,0.44 -0.26667,1e-5 -0.57334,-0.26665 -0.92,-0.8 -0.32,-0.53332 -0.48,-0.93332 -0.48,-1.2 0,-0.55998 0.77333,-1.11998 2.32,-1.68 1.57333,-0.58665 3.45332,-0.87998 5.64,-0.88 2.18665,2e-5 3.97332,0.56002 5.36,1.68 1.38665,1.09335 2.07998,2.62668 2.08,4.6 l 0,8.96 c -2e-5,1.6 0.0667,2.76 0.2,3.48 0.18665,0.98666 0.27998,1.50666 0.28,1.56 -2e-5,0.32 -0.25335,0.56 -0.76,0.72 -0.50668,0.13333 -0.90668,0.2 -1.2,0.2 -0.26668,0 -0.45335,-0.0267 -0.56,-0.08 -0.10668,-0.0533 -0.21335,-0.14667 -0.32,-0.28 -0.08,-0.13334 -0.14668,-0.25334 -0.2,-0.36 -0.0533,-0.13334 -0.10668,-0.30667 -0.16,-0.52 -0.0533,-0.21334 -0.10668,-0.37334 -0.16,-0.48 -0.0267,-0.13334 -0.0667,-0.32 -0.12,-0.56 -0.0267,-0.26667 -0.0533,-0.44 -0.08,-0.52 -1.81335,2 -4.05334,3 -6.72,3 -2.05334,0 -3.70667,-0.50667 -4.96,-1.52 -1.25334,-1.01333 -1.88,-2.57333 -1.88,-4.68 0,-2.10666 0.72,-3.67999 2.16,-4.72 1.46666,-1.06666 3.10666,-1.70666 4.92,-1.92 1.81332,-0.23999 3.87999,-0.38666 6.2,-0.44 m -9.68,7.08 c -1e-5,2.18667 1.13333,3.28 3.4,3.28 1.30666,0 2.42666,-0.24 3.36,-0.72 0.95999,-0.48 1.93332,-1.16 2.92,-2.04 l 0,-4.72 c -3.33335,1e-5 -5.48001,0.18667 -6.44,0.56 -0.50667,0.18667 -1.04001,0.42667 -1.6,0.72 -1.09334,0.56 -1.64001,1.53334 -1.64,2.92"
         style="fill:#d7f4ee;font-family:Asap;-inkscape-font-specification:Asap"
         id="path3205" />
      <path
         d="m 196.18375,156.03669 0,-6.68 c 0,-1.46666 -0.13334,-2.6 -0.4,-3.4 -0.26667,-0.79999 -0.77334,-1.35999 -1.52,-1.68 -0.74667,-0.34666 -1.12,-0.82666 -1.12,-1.44 l 0,-0.56 c 0,-0.61332 0.37333,-1.07999 1.12,-1.4 0.74666,-0.34666 1.25333,-0.90666 1.52,-1.68 0.26666,-0.79999 0.4,-1.94665 0.4,-3.44 l 0,-6.68 c 0,-1.67998 0.33333,-2.86664 1,-3.56 0.66666,-0.71997 1.37333,-1.07997 2.12,-1.08 l 2,0 c 0.53332,3e-5 0.79999,0.38669 0.8,1.16 l 0,0.16 c -1e-5,0.77336 -0.26668,1.16002 -0.8,1.16 l -0.88,0 c -0.53334,2e-5 -0.89334,0.20002 -1.08,0.6 -0.18667,0.37336 -0.28001,0.98669 -0.28,1.84 l 0,7.04 c -1e-5,2.66668 -1.04001,4.73334 -3.12,6.2 0.32,0.16001 0.68,0.42668 1.08,0.8 0.42666,0.37334 0.86666,1.05334 1.32,2.04 0.47999,0.96001 0.71999,2.05334 0.72,3.28 l 0,7 c -1e-5,0.85333 0.0933,1.47999 0.28,1.88 0.18666,0.39999 0.54666,0.59999 1.08,0.6 l 0.88,0 c 0.53332,-1e-5 0.79999,0.38666 0.8,1.16 l 0,0.16 c -1e-5,0.77332 -0.26668,1.15999 -0.8,1.16 l -2,0 c -0.74667,-1e-5 -1.45334,-0.34668 -2.12,-1.04 -0.66667,-0.69334 -1,-1.89334 -1,-3.6"
         style="fill:#d7f4ee;font-family:Asap;-inkscape-font-specification:Asap"
         id="path3207" />
      <path
         d="m 78.596875,212.59669 c -7e-6,0.58665 -0.53334,0.87999 -1.6,0.88 l -0.16,0 c -1.066671,-1e-5 -1.600003,-0.29335 -1.6,-0.88 l 0,-22.28 c -3e-6,-1.62665 -0.06667,-2.78665 -0.2,-3.48 -0.18667,-0.95998 -0.280003,-1.47998 -0.28,-1.56 -3e-6,-0.31998 0.25333,-0.54665 0.76,-0.68 0.506662,-0.15998 0.893329,-0.23998 1.16,-0.24 0.293328,2e-5 0.493328,0.0267 0.6,0.08 0.106661,0.0533 0.199994,0.14668 0.28,0.28 0.106661,0.10668 0.186661,0.22668 0.24,0.36 0.05333,0.10668 0.106661,0.26668 0.16,0.48 0.05333,0.18668 0.09333,0.34668 0.12,0.48 0.05333,0.10668 0.09333,0.28002 0.12,0.52 0.05333,0.21335 0.09333,0.36001 0.12,0.44 1.919992,-1.99998 4.053323,-2.99998 6.4,-3 2.346651,2e-5 4.213316,0.98668 5.6,2.96 1.413313,1.97335 2.119979,4.50668 2.12,7.6 l 0,0.36 c -2.1e-5,3.28 -0.746687,5.85333 -2.24,7.72 -1.49335,1.84 -3.360015,2.76 -5.6,2.76 -2.240011,0 -4.240009,-0.68 -6,-2.04 l 0,9.24 m 4.84,-10.16 0.24,0 c 1.706653,-0.0267 2.999985,-0.68 3.88,-1.96 0.90665,-1.28 1.359983,-3.16 1.36,-5.64 -1.7e-5,-2.47999 -0.426683,-4.41332 -1.28,-5.8 -0.853348,-1.41332 -2.160014,-2.11999 -3.92,-2.12 -1.733344,1e-5 -3.440008,0.92001 -5.12,2.76 l 0,10.96 c 1.439992,1.2 3.053323,1.8 4.84,1.8"
         style="fill:#d7f4ee;font-family:Asap;-inkscape-font-specification:Asap"
         id="path3209" />
      <path
         d="m 97.6875,198.91669 0,-13.88 c -3e-6,-0.58665 0.53333,-0.87998 1.6,-0.88 l 0.16,0 c 1.06666,2e-5 1.59999,0.29335 1.6,0.88 l 0,13.56 c -1e-5,1.22667 0.34666,2.18667 1.04,2.88 0.71999,0.66667 1.73332,1 3.04,1 1.91999,0 3.59999,-0.93333 5.04,-2.8 l 0,-14.64 c -2e-5,-0.58665 0.53332,-0.87998 1.6,-0.88 l 0.16,0 c 1.06665,2e-5 1.59998,0.29335 1.6,0.88 l 0,14.2 c -2e-5,1.6 0.0666,2.76 0.2,3.48 0.18665,0.98666 0.27998,1.50666 0.28,1.56 -2e-5,0.32 -0.25335,0.56 -0.76,0.72 -0.50668,0.13333 -0.90668,0.2 -1.2,0.2 -0.26668,0 -0.45335,-0.0267 -0.56,-0.08 -0.10668,-0.0533 -0.21335,-0.14667 -0.32,-0.28 -0.08,-0.13334 -0.14668,-0.25334 -0.2,-0.36 -0.0533,-0.13334 -0.10668,-0.30667 -0.16,-0.52 -0.0534,-0.21334 -0.10668,-0.37334 -0.16,-0.48 -0.0267,-0.13334 -0.0667,-0.32 -0.12,-0.56 -0.0267,-0.26667 -0.0534,-0.44 -0.08,-0.52 -1.78668,2 -3.78668,3 -6,3 -2.18667,0 -3.86667,-0.57334 -5.04,-1.72 -1.14667,-1.14667 -1.720003,-2.73333 -1.72,-4.76"
         style="fill:#d7f4ee;font-family:Asap;-inkscape-font-specification:Asap"
         id="path3211" />
      <path
         d="m 120.35313,204.35669 0,-28.4 c -10e-6,-0.58664 0.53332,-0.87997 1.6,-0.88 l 0.15999,0 c 1.06667,3e-5 1.6,0.29336 1.60001,0.88 l 0,10.08 c 1.75999,-1.35998 3.75998,-2.03998 5.99999,-2.04 2.23999,2e-5 4.10665,0.93335 5.60001,2.8 1.49331,1.84001 2.23997,4.40001 2.23999,7.68 l 0,0.36 c -2e-5,3.09334 -0.70668,5.62667 -2.12,7.6 -1.38668,1.97333 -3.25334,2.96 -5.6,2.96 -2.34667,0 -4.48,-1 -6.39999,-3 l -0.64,2.36 c -0.13334,0.32 -0.49334,0.48 -1.08,0.48 l -0.16001,0 c -0.8,0 -1.2,-0.29334 -1.19999,-0.88 m 3.36,-4.64 c 1.67999,1.84 3.39998,2.76 5.15999,2.76 3.43999,0 5.15999,-2.69333 5.16,-8.08 -1e-5,-2.37332 -0.45334,-4.19999 -1.36,-5.48 -0.88001,-1.27999 -2.17334,-1.93332 -3.88,-1.96 l -0.24,0 c -1.78667,1e-5 -3.4,0.60001 -4.83999,1.8 l 0,10.96"
         style="fill:#d7f4ee;font-family:Asap;-inkscape-font-specification:Asap"
         id="path3213" />
      <path
         d="m 143.04562,199.87669 0,-23.92 c 0,-0.58664 0.53333,-0.87997 1.6,-0.88 l 0.16,0 c 1.06667,3e-5 1.6,0.29336 1.6,0.88 l 0,23.6 c 0,1.97333 0.72,2.96 2.16,2.96 0.45333,0 0.84,-0.0267 1.16,-0.08 0.31999,-0.08 0.50666,-0.12 0.56,-0.12 0.23999,0 0.43999,0.25333 0.6,0.76 0.15999,0.48 0.23999,0.85333 0.24001,1.12 -2e-5,0.8 -0.97335,1.2 -2.92001,1.2 -1.33334,0 -2.53333,-0.4 -3.6,-1.2 -1.04,-0.82667 -1.56,-2.26667 -1.56,-4.32"
         style="fill:#d7f4ee;font-family:Asap;-inkscape-font-specification:Asap"
         id="path3215" />
      <path
         d="m 156.72062,179.19669 c -1.06667,2e-5 -1.6,-0.29331 -1.6,-0.88 l 0,-2.36 c 0,-0.58664 0.53333,-0.87997 1.6,-0.88 l 0.48,0 c 1.06667,3e-5 1.6,0.29336 1.6,0.88 l 0,2.36 c 0,0.58669 -0.53333,0.88002 -1.6,0.88 l -0.48,0 m -1.44,25.16 0,-19.32 c 0,-0.58665 0.53333,-0.87998 1.6,-0.88 l 0.16,0 c 1.06667,2e-5 1.6,0.29335 1.6,0.88 l 0,19.32 c 0,0.58666 -0.53333,0.88 -1.6,0.88 l -0.16,0 c -1.06667,0 -1.6,-0.29334 -1.6,-0.88"
         style="fill:#d7f4ee;font-family:Asap;-inkscape-font-specification:Asap"
         id="path3217" />
      <path
         d="m 164.34562,194.59669 c 0,-1.99999 0.26667,-3.71999 0.8,-5.16 0.56,-1.43999 1.30667,-2.54665 2.24,-3.32 1.76,-1.41332 3.90666,-2.11998 6.44,-2.12 1.54666,2e-5 2.93332,0.18668 4.16,0.56 1.22665,0.37335 1.83999,0.80002 1.84,1.28 -10e-6,0.34668 -0.16001,0.80001 -0.48,1.36 -0.29335,0.53335 -0.56001,0.80001 -0.8,0.8 -0.0267,1e-5 -0.08,-0.0133 -0.16,-0.04 -0.0533,-0.0267 -0.10668,-0.04 -0.16,-0.04 -0.0267,-0.0266 -0.0667,-0.0533 -0.12,-0.08 -1.44001,-0.63999 -2.89334,-0.95999 -4.36,-0.96 -3.86667,1e-5 -5.8,2.54668 -5.8,7.64 0,2.82667 0.46667,4.86667 1.4,6.12 0.96,1.25333 2.56,1.88 4.8,1.88 1.62666,0 3.13332,-0.34667 4.52,-1.04 0.08,-0.0267 0.15999,-0.0533 0.24001,-0.08 0.10664,-0.0533 0.17331,-0.08 0.19999,-0.08 0.26665,0 0.55999,0.26667 0.88,0.8 0.31999,0.50667 0.47999,0.92 0.48,1.24 -1e-5,0.48 -0.62668,0.94666 -1.88,1.4 -1.25334,0.42666 -2.72001,0.64 -4.4,0.64 -3.30667,0 -5.77333,-0.85334 -7.4,-2.56 -1.62666,-1.70667 -2.44,-4.45333 -2.44,-8.24"
         style="fill:#d7f4ee;font-family:Asap;-inkscape-font-specification:Asap"
         id="path3219" />
      <path
         d="m 185.35875,188.55669 c -1.06667,1e-5 -1.6,-0.29332 -1.6,-0.88 l 0,-2.64 c 0,-0.58665 0.53333,-0.87998 1.6,-0.88 l 0.68,0 c 1.06666,2e-5 1.59999,0.29335 1.6,0.88 l 0,2.64 c -10e-6,0.58668 -0.53334,0.88001 -1.6,0.88 l -0.68,0 m -1.6,15.8 0,-2.64 c 0,-0.58667 0.53333,-0.88 1.6,-0.88 l 0.68,0 c 1.06666,0 1.59999,0.29333 1.6,0.88 l 0,2.64 c -10e-6,0.58666 -0.53334,0.88 -1.6,0.88 l -0.68,0 c -1.06667,0 -1.6,-0.29334 -1.6,-0.88"
         style="fill:#d7f4ee;font-family:Asap;-inkscape-font-specification:Asap"
         id="path3221" />
      <path
         d="m 72.636875,234.83669 c -10e-7,-0.45332 0.573332,-0.67998 1.72,-0.68 l 0.32,0 c 0.93333,2e-5 1.466662,0.21335 1.6,0.64 l 5.36,16.2 5.36,-16.2 c 0.133318,-0.42665 0.719984,-0.63998 1.76,-0.64 1.066649,2e-5 1.599981,0.22668 1.6,0.68 -1.9e-5,0.13335 -0.04002,0.32002 -0.12,0.56 l -6.44,19.2 c -0.133345,0.42666 -0.666678,0.64 -1.6,0.64 l -1.4,0 c -0.933341,0 -1.466674,-0.21334 -1.6,-0.64 l -6.44,-19.24 c -0.08,-0.23998 -0.120001,-0.41332 -0.12,-0.52"
         style="fill:#d7f4ee;font-family:Asap;-inkscape-font-specification:Asap"
         id="path3223" />
      <path
         d="m 94.25,248.91669 0,-13.88 c -3e-6,-0.58665 0.53333,-0.87998 1.6,-0.88 l 0.16,0 c 1.066661,2e-5 1.599994,0.29335 1.6,0.88 l 0,13.56 c -6e-6,1.22667 0.34666,2.18667 1.04,2.88 0.719992,0.66667 1.73332,1 3.04,1 1.91999,0 3.59999,-0.93333 5.04,-2.8 l 0,-14.64 c -2e-5,-0.58665 0.53332,-0.87998 1.6,-0.88 l 0.16,0 c 1.06665,2e-5 1.59998,0.29335 1.6,0.88 l 0,14.2 c -2e-5,1.6 0.0666,2.76 0.2,3.48 0.18665,0.98666 0.27998,1.50666 0.28,1.56 -2e-5,0.32 -0.25335,0.56 -0.76,0.72 -0.50668,0.13333 -0.90668,0.2 -1.2,0.2 -0.26668,0 -0.45335,-0.0267 -0.56,-0.08 -0.10668,-0.0533 -0.21335,-0.14667 -0.32,-0.28 -0.08,-0.13334 -0.14668,-0.25334 -0.2,-0.36 -0.0533,-0.13334 -0.10668,-0.30667 -0.16,-0.52 -0.0534,-0.21334 -0.10668,-0.37334 -0.16,-0.48 -0.0267,-0.13334 -0.0667,-0.32 -0.12,-0.56 -0.0267,-0.26667 -0.0534,-0.44 -0.08,-0.52 -1.78668,2 -3.78668,3 -6,3 -2.186674,0 -3.866673,-0.57334 -5.04,-1.72 -1.14667,-1.14667 -1.720003,-2.73333 -1.72,-4.76"
         style="fill:#d7f4ee;font-family:Asap;-inkscape-font-specification:Asap"
         id="path3225" />
      <path
         d="m 125.51563,255.39669 c -3.33335,0 -5.80001,-0.86667 -7.40001,-2.6 -1.6,-1.73333 -2.4,-4.37333 -2.39999,-7.92 -1e-5,-3.57332 0.78666,-6.27999 2.36,-8.12 1.57332,-1.83998 3.81332,-2.75998 6.72,-2.76 5.65331,2e-5 8.47998,3.48001 8.47999,10.44 -1e-5,0.24001 -0.16001,0.57334 -0.48,1 -0.32001,0.42667 -0.60001,0.64001 -0.84,0.64 l -12.64,0 c 0.16,2.21334 0.73333,3.84 1.72,4.88 0.98666,1.04 2.46666,1.56 4.44,1.56 1.81332,0 3.47999,-0.42667 5,-1.28 0.50665,-0.26667 0.78665,-0.4 0.84,-0.4 0.26665,0 0.55999,0.26667 0.88,0.8 0.34665,0.53333 0.51999,0.93333 0.52,1.2 -1e-5,0.53333 -0.73335,1.09333 -2.2,1.68 -1.44001,0.58666 -3.10668,0.88 -4.99999,0.88 m 4.19999,-12.2 c -1e-5,-4.21332 -1.60001,-6.31999 -4.79999,-6.32 -3.44001,1e-5 -5.30668,2.10668 -5.60001,6.32 l 10.4,0"
         style="fill:#d7f4ee;font-family:Asap;-inkscape-font-specification:Asap"
         id="path3227" />
      <path
         d="m 138.35812,249.87669 0,-23.92 c 0,-0.58664 0.53333,-0.87997 1.6,-0.88 l 0.16,0 c 1.06667,3e-5 1.6,0.29336 1.6,0.88 l 0,23.6 c 0,1.97333 0.72,2.96 2.16,2.96 0.45333,0 0.84,-0.0267 1.16,-0.08 0.31999,-0.08 0.50666,-0.12 0.56,-0.12 0.23999,0 0.43999,0.25333 0.6,0.76 0.15999,0.48 0.23999,0.85333 0.24001,1.12 -2e-5,0.8 -0.97335,1.2 -2.92001,1.2 -1.33334,0 -2.53333,-0.4 -3.6,-1.2 -1.04,-0.82667 -1.56,-2.26667 -1.56,-4.32"
         style="fill:#d7f4ee;font-family:Asap;-inkscape-font-specification:Asap"
         id="path3229" />
      <path
         d="m 162.19312,242.11669 0,-1.88 c -1e-5,-2.23999 -1.46668,-3.35999 -4.4,-3.36 -1.92,1e-5 -3.69334,0.41335 -5.32,1.24 -0.56,0.29335 -0.86667,0.44001 -0.92,0.44 -0.26667,1e-5 -0.57333,-0.26665 -0.92,-0.8 -0.32,-0.53332 -0.48,-0.93332 -0.48,-1.2 0,-0.55998 0.77333,-1.11998 2.32,-1.68 1.57333,-0.58665 3.45333,-0.87998 5.64,-0.88 2.18666,2e-5 3.97332,0.56002 5.36,1.68 1.38665,1.09335 2.07999,2.62668 2.08,4.6 l 0,8.96 c -1e-5,1.6 0.0666,2.76 0.2,3.48 0.18665,0.98666 0.27999,1.50666 0.28,1.56 -1e-5,0.32 -0.25335,0.56 -0.76,0.72 -0.50668,0.13333 -0.90668,0.2 -1.2,0.2 -0.26668,0 -0.45335,-0.0267 -0.56,-0.08 -0.10668,-0.0533 -0.21334,-0.14667 -0.32,-0.28 -0.08,-0.13334 -0.14668,-0.25334 -0.2,-0.36 -0.0533,-0.13334 -0.10668,-0.30667 -0.16,-0.52 -0.0533,-0.21334 -0.10668,-0.37334 -0.16,-0.48 -0.0267,-0.13334 -0.0667,-0.32 -0.12,-0.56 -0.0267,-0.26667 -0.0533,-0.44 -0.08,-0.52 -1.81334,2 -4.05334,3 -6.72,3 -2.05334,0 -3.70667,-0.50667 -4.96,-1.52 -1.25333,-1.01333 -1.88,-2.57333 -1.88,-4.68 0,-2.10666 0.72,-3.67999 2.16,-4.72 1.46667,-1.06666 3.10666,-1.70666 4.92,-1.92 1.81333,-0.23999 3.87999,-0.38666 6.2,-0.44 m -9.68,7.08 c 0,2.18667 1.13333,3.28 3.4,3.28 1.30666,0 2.42666,-0.24 3.36,-0.72 0.95999,-0.48 1.93332,-1.16 2.92,-2.04 l 0,-4.72 c -3.33334,1e-5 -5.48,0.18667 -6.44,0.56 -0.50667,0.18667 -1.04,0.42667 -1.6,0.72 -1.09333,0.56 -1.64,1.53334 -1.64,2.92"
         style="fill:#d7f4ee;font-family:Asap;-inkscape-font-specification:Asap"
         id="path3231" />
      <path
         d="m 172.91,254.91669 c -1.30667,-3.44 -1.96,-7.17333 -1.96,-11.2 0,-4.02665 0.65333,-7.75998 1.96,-11.2 1.33333,-3.43998 3.13333,-6.19997 5.4,-8.28 0.26666,-0.26664 0.53332,-0.39997 0.8,-0.4 0.29332,3e-5 0.57332,0.10669 0.84,0.32 0.26666,0.18669 0.39999,0.41336 0.4,0.68 -1e-5,0.26669 -0.12001,0.56003 -0.36,0.88 -1.81334,2.13336 -3.24001,4.77335 -4.28,7.92 -1.01334,3.12001 -1.52001,6.48001 -1.52,10.08 -1e-5,3.57334 0.50666,6.93333 1.52,10.08 1.03999,3.11999 2.45332,5.75999 4.24,7.92 0.23999,0.26666 0.35999,0.51999 0.36,0.76 -1e-5,0.23999 -0.12001,0.49332 -0.36,0.76 -0.24001,0.26665 -0.50668,0.39999 -0.8,0.4 -0.26668,-10e-6 -0.54668,-0.14668 -0.84,-0.44 -2.26667,-2.08001 -4.06667,-4.84001 -5.4,-8.28"
         style="fill:#d7f4ee;font-family:Asap;-inkscape-font-specification:Asap"
         id="path3233" />
      <path
         d="m 181.42125,261.95669 c 1.84,-2.13334 3.29333,-4.78667 4.36,-7.96 1.06666,-3.2 1.59999,-6.6 1.6,-10.2 -1e-5,-3.62666 -0.52001,-6.99999 -1.56,-10.12 -1.01334,-3.14665 -2.41334,-5.79998 -4.2,-7.96 -0.24,-0.26664 -0.36,-0.51997 -0.36,-0.76 0,-0.23997 0.12,-0.49331 0.36,-0.76 0.24,-0.26664 0.49333,-0.39997 0.76,-0.4 0.29333,3e-5 0.58666,0.14669 0.88,0.44 2.26666,2.08003 4.05333,4.84002 5.36,8.28 1.33332,3.44002 1.99999,7.17335 2,11.2 -1e-5,4.02667 -0.66668,7.76 -2,11.2 -1.30667,3.43999 -3.09334,6.19999 -5.36,8.28 -0.26667,0.26665 -0.54667,0.39999 -0.84,0.4 -0.29333,-1e-5 -0.58667,-0.12001 -0.88,-0.36 -0.26667,-0.21334 -0.4,-0.42668 -0.4,-0.64 0,-0.18668 0.0933,-0.40001 0.28,-0.64"
         style="fill:#d7f4ee;font-family:Asap;-inkscape-font-specification:Asap"
         id="path3235" />
      <path
         d="m 196.4525,238.55669 c -1.06667,1e-5 -1.6,-0.29332 -1.6,-0.88 l 0,-2.64 c 0,-0.58665 0.53333,-0.87998 1.6,-0.88 l 0.68,0 c 1.06666,2e-5 1.59999,0.29335 1.6,0.88 l 0,2.64 c -10e-6,0.58668 -0.53334,0.88001 -1.6,0.88 l -0.68,0 m -1.44,13.56 c 0,-0.85333 0.53333,-1.28 1.6,-1.28 l 0.36,0 c 1.06666,0 1.59999,0.37333 1.6,1.12 -1e-5,2.16 -0.49334,4 -1.48,5.52 -0.96,1.54666 -1.84,2.31999 -2.64,2.32 -0.77333,-1e-5 -1.16,-0.20001 -1.16,-0.6 0,-0.16001 0.12,-0.48001 0.36,-0.96 0.90666,-1.81334 1.36,-3.85334 1.36,-6.12"
         style="fill:#d7f4ee;font-family:Asap;-inkscape-font-specification:Asap"
         id="path3237" />
      <path
         d="m 6.53125,308.19669 0.88,0 c 0.5333299,-10e-6 0.8933296,-0.20001 1.08,-0.6 0.1866625,-0.40001 0.2799958,-1.02667 0.28,-1.88 l 0,-7 c -4.2e-6,-1.22666 0.2266622,-2.31999 0.68,-3.28 0.4799946,-0.98666 0.919994,-1.66666 1.32,-2.04 0.42666,-0.37332 0.799993,-0.63999 1.12,-0.8 -2.0800053,-1.46666 -3.1200042,-3.53332 -3.12,-6.2 l 0,-7.04 c -4.2e-6,-0.85331 -0.093338,-1.46664 -0.28,-1.84 -0.1866704,-0.39998 -0.5466701,-0.59998 -1.08,-0.6 l -0.88,0 c -0.5333348,2e-5 -0.8000012,-0.38664 -0.8,-1.16 l 0,-0.16 c -1.2e-6,-0.77331 0.2666652,-1.15997 0.8,-1.16 l 2,0 c 0.7466619,3e-5 1.4533279,0.36003 2.12,1.08 0.66666,0.69336 0.999993,1.88002 1,3.56 l 0,6.68 c -7e-6,1.49335 0.133326,2.64001 0.4,3.44 0.266659,0.77334 0.773325,1.33334 1.52,1.68 0.746657,0.32001 1.11999,0.78668 1.12,1.4 l 0,0.56 c -10e-6,0.61334 -0.373343,1.09334 -1.12,1.44 -0.746675,0.32001 -1.253341,0.88001 -1.52,1.68 -0.266674,0.8 -0.400007,1.93334 -0.4,3.4 l 0,6.68 c -7e-6,1.70666 -0.33334,2.90666 -1,3.6 -0.6666721,0.69332 -1.3733381,1.03999 -2.12,1.04 l -2,0 c -0.5333348,-1e-5 -0.8000012,-0.38668 -0.8,-1.16 l 0,-0.16 c -1.2e-6,-0.77334 0.2666652,-1.16001 0.8,-1.16"
         style="fill:#d7f4ee;font-family:Asap;-inkscape-font-specification:Asap"
         id="path3239" />
      <path
         d="m 19.10875,288.55669 c -1.066669,10e-6 -1.600002,-0.29332 -1.6,-0.88 l 0,-2.64 c -2e-6,-0.58665 0.533331,-0.87998 1.6,-0.88 l 0.68,0 c 1.066661,2e-5 1.599994,0.29335 1.6,0.88 l 0,2.64 c -6e-6,0.58668 -0.533339,0.88001 -1.6,0.88 l -0.68,0 m -1.44,13.56 c -2e-6,-0.85333 0.533331,-1.28 1.6,-1.28 l 0.36,0 c 1.066661,0 1.599994,0.37333 1.6,1.12 -6e-6,2.16 -0.493339,4 -1.48,5.52 -0.960003,1.54666 -1.840002,2.31999 -2.64,2.32 -0.773334,-1e-5 -1.16,-0.20001 -1.16,-0.6 0,-0.16001 0.119999,-0.48001 0.36,-0.96 0.906665,-1.81334 1.359998,-3.85334 1.36,-6.12"
         style="fill:#d7f4ee;font-family:Asap;-inkscape-font-specification:Asap"
         id="path3241" />
    </g>
    <g
       transform="matrix(1.7526661,0,0,1.7526661,-50.094655,868.18211)"
       style="font-size:40px;font-style:normal;font-variant:normal;font-weight:normal;font-stretch:normal;line-height:125%;letter-spacing:0px;word-spacing:0px;fill:#d7f4ee;fill-opacity:1;stroke:none;font-family:Asap;-inkscape-font-specification:Asap"
       id="flowRoot3080">
      <path
         d="m 69.56625,71.660774 c -2e-6,-11.391972 5.343992,-17.087966 16.032,-17.088 2.335979,3.4e-5 4.591977,0.320033 6.768,0.96 2.175973,0.640032 3.263972,1.440031 3.264,2.4 -2.8e-5,0.704029 -0.384028,1.632029 -1.152,2.784 -0.736026,1.152026 -1.392026,1.728026 -1.968,1.728 -0.09602,2.6e-5 -0.432025,-0.127974 -1.008,-0.384 -1.664022,-0.767973 -3.68002,-1.151973 -6.048,-1.152 -5.536013,2.7e-5 -8.30401,3.632024 -8.304,10.896 -1e-5,7.232009 2.735988,10.848005 8.208,10.848 2.30398,5e-6 4.511978,-0.479994 6.624,-1.44 0.703975,-0.319993 1.119974,-0.479993 1.248,-0.48 0.671974,7e-6 1.311973,0.560007 1.92,1.68 0.607972,1.088005 0.911971,1.920004 0.912,2.496 -2.9e-5,1.280002 -1.184027,2.272001 -3.552,2.976 -2.368023,0.704 -4.75202,1.055999 -7.152,1.056 -5.376013,-1e-6 -9.360009,-1.391999 -11.952,-4.176 -2.560003,-2.815994 -3.840002,-7.183989 -3.84,-13.104"
         style="font-size:48px;font-weight:bold;fill:#d7f4ee;-inkscape-font-specification:Asap Bold"
         id="path3182" />
      <path
         d="m 100.533,79.820774 c -0.960002,8e-6 -1.440002,-0.799991 -1.44,-2.4 l 0,-0.336 c -2e-6,-1.599987 0.479998,-2.399987 1.44,-2.4 l 7.248,0 0,-7.392 c -1e-5,-0.959978 0.79999,-1.439978 2.4,-1.44 l 0.672,0 c 1.59998,2.2e-5 2.39998,0.480022 2.4,1.44 l 0,7.392 7.344,0 c 0.95998,1.3e-5 1.43998,0.800013 1.44,2.4 l 0,0.336 c -2e-5,1.600009 -0.48002,2.400008 -1.44,2.4 l -7.344,0 0,7.296 c -2e-5,0.96 -0.80002,1.44 -2.4,1.44 l -0.672,0 c -1.60001,0 -2.40001,-0.48 -2.4,-1.44 l 0,-7.296 -7.248,0"
         style="font-size:48px;font-weight:bold;fill:#d7f4ee;-inkscape-font-specification:Asap Bold"
         id="path3184" />
      <path
         d="m 127.43925,79.820774 c -0.96,8e-6 -1.44,-0.799991 -1.44,-2.4 l 0,-0.336 c 0,-1.599987 0.48,-2.399987 1.44,-2.4 l 7.248,0 0,-7.392 c -1e-5,-0.959978 0.79999,-1.439978 2.4,-1.44 l 0.672,0 c 1.59998,2.2e-5 2.39998,0.480022 2.4,1.44 l 0,7.392 7.344,0 c 0.95998,1.3e-5 1.43998,0.800013 1.44,2.4 l 0,0.336 c -2e-5,1.600009 -0.48002,2.400008 -1.44,2.4 l -7.344,0 0,7.296 c -2e-5,0.96 -0.80002,1.44 -2.4,1.44 l -0.672,0 c -1.60001,0 -2.40001,-0.48 -2.4,-1.44 l 0,-7.296 -7.248,0"
         style="font-size:48px;font-weight:bold;fill:#d7f4ee;-inkscape-font-specification:Asap Bold"
         id="path3186" />
    </g>
  </g>
</svg>
