<?xml version="1.0" encoding="UTF-8" standalone="no"?>
<!-- Created with Inkscape (http://www.inkscape.org/) -->

<svg
   xmlns:dc="http://purl.org/dc/elements/1.1/"
   xmlns:cc="http://creativecommons.org/ns#"
   xmlns:rdf="http://www.w3.org/1999/02/22-rdf-syntax-ns#"
   xmlns:svg="http://www.w3.org/2000/svg"
   xmlns="http://www.w3.org/2000/svg"
   xmlns:sodipodi="http://sodipodi.sourceforge.net/DTD/sodipodi-0.dtd"
   xmlns:inkscape="http://www.inkscape.org/namespaces/inkscape"
   width="256"
   height="256"
   viewBox="0 0 256 256"
   id="svg2"
   version="1.1"
   inkscape:version="0.91 r13725"
   sodipodi:docname="action-unavailable.svg">
  <defs
     id="defs4" />
  <sodipodi:namedview
     id="base"
     pagecolor="#ffffff"
     bordercolor="#666666"
     borderopacity="1.0"
     inkscape:pageopacity="0.0"
     inkscape:pageshadow="2"
     inkscape:zoom="2.1372746"
     inkscape:cx="154.6351"
     inkscape:cy="91.500058"
     inkscape:document-units="px"
     inkscape:current-layer="layer1"
     showgrid="true"
     units="px"
     inkscape:window-width="1914"
     inkscape:window-height="1030"
     inkscape:window-x="0"
     inkscape:window-y="26"
     inkscape:window-maximized="1"
     inkscape:snap-bbox="true"
     inkscape:bbox-paths="true"
     inkscape:bbox-nodes="true"
     inkscape:snap-grids="true">
    <inkscape:grid
       type="xygrid"
       id="grid4136"
       spacingx="2"
       spacingy="2"
       empspacing="8"
       dotted="false"
       visible="true"
       enabled="true"
       snapvisiblegridlinesonly="true" />
  </sodipodi:namedview>
  <metadata
     id="metadata7">
    <rdf:RDF>
      <cc:Work
         rdf:about="">
        <dc:format>image/svg+xml</dc:format>
        <dc:type
           rdf:resource="http://purl.org/dc/dcmitype/StillImage" />
        <dc:title />
      </cc:Work>
    </rdf:RDF>
  </metadata>
  <g
     inkscape:label="Capa 1"
     inkscape:groupmode="layer"
     id="layer1"
     transform="translate(0,-796.36216)">
    <path
       style="fill:#a9d400;fill-opacity:1;stroke:none"
       d="M 96 16 L 96 32 L 64 32 L 64 48 L 32 48 L 32 80 L 16 80 L 16 112 L 0 112 L 0 144 L 16 144 L 16 176 L 32 176 L 32 208 L 64 208 L 64 224 L 96 224 L 96 240 L 128 240 L 160 240 L 160 224 L 192 224 L 192 208 L 224 208 L 224 176 L 240 176 L 240 144 L 256 144 L 256 112 L 240 112 L 240 80 L 224 80 L 224 48 L 192 48 L 192 32 L 160 32 L 160 16 L 128 16 L 96 16 z M 96 48 L 128 48 L 160 48 L 160 64 L 160 80 L 144 80 L 144 96 L 128 96 L 128 112 L 112 112 L 112 128 L 96 128 L 96 144 L 80 144 L 80 160 L 64 160 L 64 176 L 48 176 L 48 144 L 48 128 L 48 112 L 48 96 L 64 96 L 64 80 L 64 64 L 96 64 L 96 48 z M 192 80 L 208 80 L 208 112 L 208 128 L 208 144 L 208 160 L 192 160 L 192 176 L 176 176 L 176 192 L 160 192 L 144 192 L 144 208 L 128 208 L 96 208 L 96 192 L 96 176 L 112 176 L 112 160 L 128 160 L 128 144 L 144 144 L 144 128 L 160 128 L 160 112 L 176 112 L 176 96 L 192 96 L 192 80 z "
       transform="translate(0,796.36216)"
       id="rect3082" />
    <rect
       style="fill:#a9d400;fill-opacity:1;stroke:none"
       id="rect3360"
       width="16"
       height="16"
       x="144"
       y="80"
       transform="translate(0,796.36216)" />
  </g>
  <g
     inkscape:groupmode="layer"
     id="layer2"
     inkscape:label="Capa 2" />
</svg>
