<?xml version="1.0" encoding="UTF-8" standalone="no"?>
<!-- Created with Inkscape (http://www.inkscape.org/) -->

<svg
   xmlns:dc="http://purl.org/dc/elements/1.1/"
   xmlns:cc="http://creativecommons.org/ns#"
   xmlns:rdf="http://www.w3.org/1999/02/22-rdf-syntax-ns#"
   xmlns:svg="http://www.w3.org/2000/svg"
   xmlns="http://www.w3.org/2000/svg"
   xmlns:sodipodi="http://sodipodi.sourceforge.net/DTD/sodipodi-0.dtd"
   xmlns:inkscape="http://www.inkscape.org/namespaces/inkscape"
   width="256"
   height="256"
   viewBox="0 0 256 256"
   id="svg2"
   version="1.1"
   inkscape:version="0.91 r13725"
   sodipodi:docname="application-exit.svg">
  <defs
     id="defs4" />
  <sodipodi:namedview
     id="base"
     pagecolor="#ffffff"
     bordercolor="#666666"
     borderopacity="1.0"
     inkscape:pageopacity="0.0"
     inkscape:pageshadow="2"
     inkscape:zoom="2.0544058"
     inkscape:cx="196.28899"
     inkscape:cy="79.576617"
     inkscape:document-units="px"
     inkscape:current-layer="layer1"
     showgrid="true"
     units="px"
     inkscape:window-width="1914"
     inkscape:window-height="1030"
     inkscape:window-x="0"
     inkscape:window-y="26"
     inkscape:window-maximized="1"
     inkscape:snap-bbox="true"
     inkscape:bbox-paths="true"
     inkscape:bbox-nodes="true"
     inkscape:snap-grids="true"
     inkscape:snap-global="true">
    <inkscape:grid
       type="xygrid"
       id="grid4136"
       spacingx="2"
       spacingy="2"
       empspacing="8"
       dotted="false" />
  </sodipodi:namedview>
  <metadata
     id="metadata7">
    <rdf:RDF>
      <cc:Work
         rdf:about="">
        <dc:format>image/svg+xml</dc:format>
        <dc:type
           rdf:resource="http://purl.org/dc/dcmitype/StillImage" />
        <dc:title />
      </cc:Work>
    </rdf:RDF>
  </metadata>
  <g
     inkscape:label="Capa 1"
     inkscape:groupmode="layer"
     id="layer1"
     transform="translate(0,-796.36216)">
    <path
       style="fill:#aad400;fill-opacity:1;stroke:none"
       d="M 0 16 L 0 48 L 0 208 L 0 224 L 0 240 L 0 256 L 16 256 L 32 256 L 32 240 L 48 240 L 64 240 L 64 224 L 80 224 L 96 224 L 96 208 L 112 208 L 128 208 L 128 192 L 128 176 L 128 144 L 128 112 L 128 80 L 128 48 L 128 16 L 96 16 L 64 16 L 32 16 L 0 16 z "
       transform="translate(0,796.36216)"
       id="rect3082-0-0-50" />
    <rect
       style="fill:#aad400;fill-opacity:1;stroke:none"
       id="rect3082-0-0-50-864"
       width="32"
       height="2.2617187e-05"
       x="96"
       y="-972.36218"
       transform="scale(1,-1)" />
    <path
       style="fill:#aad400;fill-opacity:1;stroke:none"
       d="M 192 64 L 192 80 L 176 80 L 176 96 L 160 96 L 160 112 L 144 112 L 144 128 L 144 144 L 160 144 L 160 143.91406 L 256.08398 143.91406 L 256.08398 112 L 192 112 L 192 96 L 208 96 L 208 80 L 208 64 L 192 64 z M 160 144 L 160 160 L 176 160 L 176 176 L 192 176 L 192 192 L 208 192 L 208 176 L 208 160 L 192 160 L 192 144 L 176 144 L 160 144 z "
       transform="translate(0,796.36216)"
       id="rect3333" />
  </g>
  <g
     inkscape:groupmode="layer"
     id="layer2"
     inkscape:label="Capa 2" />
</svg>
