<?xml version="1.0" encoding="UTF-8" standalone="no"?>
<!-- Created with Inkscape (http://www.inkscape.org/) -->

<svg
   xmlns:dc="http://purl.org/dc/elements/1.1/"
   xmlns:cc="http://creativecommons.org/ns#"
   xmlns:rdf="http://www.w3.org/1999/02/22-rdf-syntax-ns#"
   xmlns:svg="http://www.w3.org/2000/svg"
   xmlns="http://www.w3.org/2000/svg"
   xmlns:sodipodi="http://sodipodi.sourceforge.net/DTD/sodipodi-0.dtd"
   xmlns:inkscape="http://www.inkscape.org/namespaces/inkscape"
   sodipodi:docname="call-start-symbolic.svg"
   inkscape:version="0.91 r13725"
   version="1.1"
   id="svg7384"
   width="15.999999"
   height="16">
  <metadata
     id="metadata90">
    <rdf:RDF>
      <cc:Work
         rdf:about="">
        <dc:format>image/svg+xml</dc:format>
        <dc:type
           rdf:resource="http://purl.org/dc/dcmitype/StillImage" />
        <dc:title>Gnome Symbolic Icon Theme</dc:title>
      </cc:Work>
    </rdf:RDF>
  </metadata>
  <sodipodi:namedview
     inkscape:guide-bbox="true"
     guidetolerance="10"
     inkscape:snap-to-guides="true"
     inkscape:object-paths="false"
     borderopacity="1"
     inkscape:pageshadow="2"
     inkscape:window-maximized="1"
     inkscape:zoom="33.935671"
     pagecolor="#f9fff3"
     gridtolerance="10"
     inkscape:current-layer="layer11"
     inkscape:window-height="1030"
     inkscape:snap-others="false"
     bordercolor="#666666"
     inkscape:window-x="0"
     inkscape:window-y="26"
     inkscape:window-width="1914"
     inkscape:bbox-paths="false"
     inkscape:snap-global="true"
     inkscape:pageopacity="1"
     showgrid="true"
     id="namedview88"
     showborder="true"
     inkscape:cx="4.5528956"
     inkscape:cy="8.3720493"
     objecttolerance="10"
     inkscape:snap-bbox-midpoints="false"
     inkscape:object-nodes="false"
     showguides="true"
     inkscape:snap-bbox="true"
     inkscape:snap-nodes="true"
     inkscape:snap-grids="true">
    <inkscape:grid
       type="xygrid"
       enabled="true"
       visible="true"
       snapvisiblegridlinesonly="true"
       spacingx="1px"
       spacingy="1px"
       id="grid4866"
       empspacing="2" />
  </sodipodi:namedview>
  <title
     id="title9167">Gnome Symbolic Icon Theme</title>
  <defs
     id="defs7386" />
  <g
     inkscape:label="status"
     id="layer9"
     style="display:inline"
     transform="translate(-223.0002,-509)"
     inkscape:groupmode="layer" />
  <g
     inkscape:label="devices"
     id="layer10"
     transform="translate(-223.0002,-509)"
     inkscape:groupmode="layer" />
  <g
     inkscape:label="apps"
     id="layer11"
     transform="translate(-223.0002,-509)"
     inkscape:groupmode="layer">
    <rect
       style="fill:#d45500;fill-opacity:1;stroke:none"
       id="rect3072"
       width="1"
       height="1"
       x="272.00021"
       y="516" />
    <rect
       style="fill:#d45500;fill-opacity:1;stroke:none"
       id="rect3072-0"
       width="1"
       height="1"
       x="273.00021"
       y="516" />
    <rect
       style="fill:#d45500;fill-opacity:1;stroke:none"
       id="rect3072-5"
       width="1"
       height="1"
       x="271.00021"
       y="517" />
    <rect
       style="fill:#d45500;fill-opacity:1;stroke:none"
       id="rect3072-7"
       width="1"
       height="1"
       x="271.00021"
       y="518" />
    <rect
       style="fill:#d45500;fill-opacity:1;stroke:none"
       id="rect3072-8"
       width="1"
       height="1"
       x="270.00021"
       y="519" />
    <rect
       style="fill:#d45500;fill-opacity:1;stroke:none"
       id="rect3072-88"
       width="1"
       height="1"
       x="270.00021"
       y="520" />
    <rect
       style="fill:#d45500;fill-opacity:1;stroke:none"
       id="rect3072-84"
       width="1"
       height="1"
       x="269.00021"
       y="520" />
    <rect
       style="fill:#d45500;fill-opacity:1;stroke:none"
       id="rect3072-6"
       width="1"
       height="1"
       x="268.00021"
       y="520" />
    <rect
       style="fill:#d45500;fill-opacity:1;stroke:none"
       id="rect3072-843"
       width="1"
       height="1"
       x="267.00021"
       y="520" />
    <rect
       style="fill:#d45500;fill-opacity:1;stroke:none"
       id="rect3072-63"
       width="1"
       height="1"
       x="266.00021"
       y="520" />
    <rect
       style="fill:#d45500;fill-opacity:1;stroke:none"
       id="rect3072-2"
       width="1"
       height="1"
       x="266.00021"
       y="521" />
    <rect
       style="fill:#d45500;fill-opacity:1;stroke:none"
       id="rect3072-53"
       width="1"
       height="1"
       x="267.00021"
       y="522" />
    <rect
       style="fill:#d45500;fill-opacity:1;stroke:none"
       id="rect3072-3"
       width="1"
       height="1"
       x="268.00021"
       y="523" />
    <rect
       style="fill:#d45500;fill-opacity:1;stroke:none"
       id="rect3072-77"
       width="1"
       height="1"
       x="269.00021"
       y="524" />
    <rect
       style="fill:#d45500;fill-opacity:1;stroke:none"
       id="rect3072-9"
       width="1"
       height="1"
       x="269.00021"
       y="525" />
    <rect
       style="fill:#d45500;fill-opacity:1;stroke:none"
       id="rect3072-634"
       width="1"
       height="1"
       x="268.00021"
       y="526" />
    <rect
       style="fill:#d45500;fill-opacity:1;stroke:none"
       id="rect3072-4"
       width="1"
       height="1"
       x="268.00021"
       y="527" />
    <rect
       style="fill:#d45500;fill-opacity:1;stroke:none"
       id="rect3072-00"
       width="1"
       height="1"
       x="267.00021"
       y="528" />
    <rect
       style="fill:#d45500;fill-opacity:1;stroke:none"
       id="rect3072-97"
       width="1"
       height="1"
       x="267.00021"
       y="529" />
    <rect
       style="fill:#d45500;fill-opacity:1;stroke:none"
       id="rect3072-89"
       width="1"
       height="1"
       x="268.00021"
       y="529" />
    <rect
       style="fill:#d45500;fill-opacity:1;stroke:none"
       id="rect3072-78"
       width="1"
       height="1"
       x="269.00021"
       y="529" />
    <rect
       style="fill:#d45500;fill-opacity:1;stroke:none"
       id="rect3072-33"
       width="1"
       height="1"
       x="270.00021"
       y="528" />
    <rect
       style="fill:#d45500;fill-opacity:1;stroke:none"
       id="rect3072-69"
       width="1"
       height="1"
       x="271.00021"
       y="528" />
    <rect
       style="fill:#d45500;fill-opacity:1;stroke:none"
       id="rect3072-82"
       width="1"
       height="1"
       x="272.00021"
       y="527" />
    <rect
       style="fill:#d45500;fill-opacity:1;stroke:none"
       id="rect3072-26"
       width="1"
       height="1"
       x="273.00021"
       y="527" />
    <rect
       style="fill:#d45500;fill-opacity:1;stroke:none"
       id="rect3072-1"
       width="1"
       height="1"
       x="274.00021"
       y="528" />
    <rect
       style="fill:#d45500;fill-opacity:1;stroke:none"
       id="rect3072-66"
       width="1"
       height="1"
       x="275.00021"
       y="528" />
    <rect
       style="fill:#d45500;fill-opacity:1;stroke:none"
       id="rect3072-72"
       width="1"
       height="1"
       x="276.00021"
       y="529" />
    <rect
       style="fill:#d45500;fill-opacity:1;stroke:none"
       id="rect3072-36"
       width="1"
       height="1"
       x="277.00021"
       y="529" />
    <rect
       style="fill:#d45500;fill-opacity:1;stroke:none"
       id="rect3072-19"
       width="1"
       height="1"
       x="278.00021"
       y="529" />
    <rect
       style="fill:#d45500;fill-opacity:1;stroke:none"
       id="rect3072-15"
       width="1"
       height="1"
       x="278.00021"
       y="528" />
    <rect
       style="fill:#d45500;fill-opacity:1;stroke:none"
       id="rect3072-635"
       width="1"
       height="1"
       x="277.00021"
       y="527" />
    <rect
       style="fill:#d45500;fill-opacity:1;stroke:none"
       id="rect3072-844"
       width="1"
       height="1"
       x="277.00021"
       y="526" />
    <rect
       style="fill:#d45500;fill-opacity:1;stroke:none"
       id="rect3072-73"
       width="1"
       height="1"
       x="276.00021"
       y="525" />
    <rect
       style="fill:#d45500;fill-opacity:1;stroke:none"
       id="rect3072-35"
       width="1"
       height="1"
       x="276.00021"
       y="524" />
    <rect
       style="fill:#d45500;fill-opacity:1;stroke:none"
       id="rect3072-68"
       width="1"
       height="1"
       x="277.00021"
       y="523" />
    <rect
       style="fill:#d45500;fill-opacity:1;stroke:none"
       id="rect3072-661"
       width="1"
       height="1"
       x="278.00021"
       y="522" />
    <rect
       style="fill:#d45500;fill-opacity:1;stroke:none"
       id="rect3072-40"
       width="1"
       height="1"
       x="279.00021"
       y="521" />
    <rect
       style="fill:#d45500;fill-opacity:1;stroke:none"
       id="rect3072-268"
       width="1"
       height="1"
       x="279.00021"
       y="520" />
    <rect
       style="fill:#d45500;fill-opacity:1;stroke:none"
       id="rect3072-85"
       width="1"
       height="1"
       x="278.00021"
       y="520" />
    <rect
       style="fill:#d45500;fill-opacity:1;stroke:none"
       id="rect3072-01"
       width="1"
       height="1"
       x="277.00021"
       y="520" />
    <rect
       style="fill:#d45500;fill-opacity:1;stroke:none"
       id="rect3072-13"
       width="1"
       height="1"
       x="276.00021"
       y="520" />
    <rect
       style="fill:#d45500;fill-opacity:1;stroke:none"
       id="rect3072-34"
       width="1"
       height="1"
       x="275.00021"
       y="520" />
    <rect
       style="fill:#d45500;fill-opacity:1;stroke:none"
       id="rect3072-81"
       width="1"
       height="1"
       x="275.00021"
       y="519" />
    <rect
       style="fill:#d45500;fill-opacity:1;stroke:none"
       id="rect3072-96"
       width="1"
       height="1"
       x="274.00021"
       y="518" />
    <rect
       style="fill:#d45500;fill-opacity:1;stroke:none"
       id="rect3072-44"
       width="1"
       height="1"
       x="274.00021"
       y="517" />
    <rect
       style="fill:#d45500;fill-opacity:1;stroke:none"
       id="rect3624"
       width="5"
       height="8"
       x="271.00021"
       y="519" />
    <rect
       style="fill:#d45500;fill-opacity:1;stroke:none"
       id="rect3626"
       width="2"
       height="2"
       x="272.00021"
       y="517" />
    <rect
       style="fill:#d45500;fill-opacity:1;stroke:none"
       id="rect3628"
       width="12"
       height="2"
       x="267.00021"
       y="521" />
    <rect
       style="fill:#d45500;fill-opacity:1;stroke:none"
       id="rect3630"
       width="8"
       height="1"
       x="269.00021"
       y="523" />
    <rect
       style="fill:#d45500;fill-opacity:1;stroke:none"
       id="rect3632"
       width="3.3040156"
       height="2"
       x="269.00021"
       y="526" />
    <rect
       style="fill:#d45500;fill-opacity:1;stroke:none"
       id="rect3634"
       width="1"
       height="2"
       x="270.00021"
       y="524" />
    <rect
       style="fill:#d45500;fill-opacity:1;stroke:none"
       id="rect3636"
       width="3"
       height="1"
       x="274.00021"
       y="527" />
    <rect
       style="fill:#d45500;fill-opacity:1;stroke:none"
       id="rect3638"
       width="1"
       height="3"
       x="276.00021"
       y="526" />
    <path
       style="color:#000000;fill:#ffffff;fill-opacity:1;fill-rule:nonzero;stroke:none;stroke-width:2;marker:none;visibility:visible;display:inline;overflow:visible;enable-background:accumulate"
       d="m 272.0002,520 2,0 0,2 2,0 0,2 -2,0 0,2 -2,0 0,-2 -2,0 0,-2 2,0 0,-2 z"
       id="path11922-4"
       inkscape:connector-curvature="0" />
    <rect
       style="fill:#d45500;fill-opacity:1;stroke:none"
       id="rect3640"
       width="1"
       height="1.4823279"
       x="277.00021"
       y="528" />
    <rect
       style="fill:#d45500;fill-opacity:1;stroke:none"
       id="rect3642"
       width="2"
       height="1"
       x="268.00021"
       y="528" />
    <path
       style="fill:#aad400;fill-opacity:1;stroke:none"
       d="M 11.087891 1.3027344 L 10.445312 2.0683594 L 9.8007812 2.8339844 L 9.15625 3.5996094 L 8.5136719 4.3632812 L 9.2792969 5.0078125 L 10.044922 5.6523438 L 9.4003906 6.4160156 L 8.7558594 7.1816406 L 8.1132812 7.9472656 L 7.46875 8.7128906 L 6.8261719 9.4785156 L 6.1816406 10.244141 L 5.4160156 9.5996094 L 4.6523438 8.9550781 L 4.0078125 9.7207031 L 3.3632812 10.486328 L 2.7207031 11.251953 L 2.0761719 12.017578 L 2.8417969 12.660156 L 3.6074219 13.304688 L 4.3730469 13.947266 L 5.015625 13.183594 L 5.78125 13.826172 L 6.4257812 13.060547 L 7.0683594 12.296875 L 7.0683594 12.294922 L 7.8339844 12.939453 L 8.4785156 12.173828 L 9.1210938 11.408203 L 9.765625 10.644531 L 10.408203 9.8789062 L 11.052734 9.1132812 L 11.697266 8.3476562 L 12.339844 7.5820312 L 12.984375 6.8164062 L 12.21875 6.1738281 L 12.861328 5.4082031 L 13.505859 4.6425781 L 12.740234 4 L 13.384766 3.234375 L 12.619141 2.5898438 L 11.853516 1.9472656 L 11.087891 1.3027344 z "
       transform="translate(223.0002,509)"
       id="rect3693" />
  </g>
  <g
     inkscape:label="places"
     id="layer13"
     transform="translate(-223.0002,-509)"
     inkscape:groupmode="layer" />
  <g
     inkscape:label="mimetypes"
     id="layer14"
     transform="translate(-223.0002,-509)"
     inkscape:groupmode="layer" />
  <g
     inkscape:label="emblems"
     id="layer15"
     style="display:inline"
     transform="translate(-223.0002,-509)"
     inkscape:groupmode="layer" />
  <g
     inkscape:label="emotes"
     id="g71291"
     transform="translate(-223.0002,-509)"
     style="display:inline"
     inkscape:groupmode="layer" />
  <g
     inkscape:label="categories"
     id="g4953"
     style="display:inline"
     transform="translate(-223.0002,-509)"
     inkscape:groupmode="layer" />
  <g
     inkscape:label="actions"
     id="layer12"
     transform="translate(-223.0002,-509)"
     style="display:inline"
     inkscape:groupmode="layer" />
</svg>
