<?xml version="1.0" encoding="UTF-8" standalone="no"?>
<!-- Created with Inkscape (http://www.inkscape.org/) -->

<svg
   xmlns:dc="http://purl.org/dc/elements/1.1/"
   xmlns:cc="http://creativecommons.org/ns#"
   xmlns:rdf="http://www.w3.org/1999/02/22-rdf-syntax-ns#"
   xmlns:svg="http://www.w3.org/2000/svg"
   xmlns="http://www.w3.org/2000/svg"
   xmlns:sodipodi="http://sodipodi.sourceforge.net/DTD/sodipodi-0.dtd"
   xmlns:inkscape="http://www.inkscape.org/namespaces/inkscape"
   sodipodi:docname="dialog-warning-symbolic.svg"
   inkscape:version="0.91 r13725"
   version="1.1"
   id="svg7384"
   width="15.999999"
   height="16">
  <metadata
     id="metadata90">
    <rdf:RDF>
      <cc:Work
         rdf:about="">
        <dc:format>image/svg+xml</dc:format>
        <dc:type
           rdf:resource="http://purl.org/dc/dcmitype/StillImage" />
        <dc:title>Gnome Symbolic Icon Theme</dc:title>
      </cc:Work>
    </rdf:RDF>
  </metadata>
  <sodipodi:namedview
     inkscape:guide-bbox="true"
     guidetolerance="10"
     inkscape:snap-to-guides="true"
     inkscape:object-paths="false"
     borderopacity="1"
     inkscape:pageshadow="2"
     inkscape:window-maximized="1"
     inkscape:zoom="32.661609"
     pagecolor="#f9fff3"
     gridtolerance="10"
     inkscape:current-layer="layer11"
     inkscape:window-height="1030"
     inkscape:snap-others="false"
     bordercolor="#666666"
     inkscape:window-x="0"
     inkscape:window-y="26"
     inkscape:window-width="1914"
     inkscape:bbox-paths="false"
     inkscape:snap-global="true"
     inkscape:pageopacity="1"
     showgrid="true"
     id="namedview88"
     showborder="true"
     inkscape:cx="9.6188792"
     inkscape:cy="5.8502885"
     objecttolerance="10"
     inkscape:snap-bbox-midpoints="false"
     inkscape:object-nodes="false"
     showguides="true"
     inkscape:snap-bbox="true"
     inkscape:snap-nodes="true"
     inkscape:snap-grids="true">
    <inkscape:grid
       type="xygrid"
       enabled="true"
       visible="true"
       snapvisiblegridlinesonly="true"
       spacingx="1px"
       spacingy="1px"
       id="grid4866"
       empspacing="2" />
  </sodipodi:namedview>
  <title
     id="title9167">Gnome Symbolic Icon Theme</title>
  <defs
     id="defs7386" />
  <g
     inkscape:label="status"
     id="layer9"
     style="display:inline"
     transform="translate(-223.0002,-509)"
     inkscape:groupmode="layer" />
  <g
     inkscape:label="devices"
     id="layer10"
     transform="translate(-223.0002,-509)"
     inkscape:groupmode="layer" />
  <g
     inkscape:label="apps"
     id="layer11"
     transform="translate(-223.0002,-509)"
     inkscape:groupmode="layer">
    <path
       style="fill:#aad400;fill-opacity:1;stroke:none"
       d="M 7 1 L 7 2 L 6 2 L 6 3 L 5 3 L 5 4 L 5 5 L 4 5 L 4 6 L 4 7 L 3 7 L 3 8 L 3 9 L 2 9 L 2 10 L 2 11 L 1 11 L 1 12 L 1 13 L 0 13 L 0 15 L 1 15 L 2 15 L 3 15 L 4 15 L 5 15 L 6 15 L 7 15 L 8 15 L 9 15 L 10 15 L 11 15 L 12 15 L 13 15 L 14 15 L 15 15 L 16 15 L 16 13 L 15 13 L 15 12 L 15 11 L 14 11 L 14 10 L 14 9 L 13 9 L 13 8 L 13 7 L 12 7 L 12 6 L 12 5 L 11 5 L 11 4 L 11 3 L 10 3 L 10 3.0039062 L 9 3.0039062 L 9 3 L 8 3 L 8 2.9882812 L 9 2.9882812 L 9 3 L 10 3 L 10 2 L 9 2 L 9 1.9882812 L 9 1 L 8 1 L 7 1 z M 7 4.9921875 L 8 4.9921875 L 8 5 L 9 5 L 9 6 L 9 7 L 9 8 L 9 9 L 9 10 L 8 10 L 7 10 L 7 9 L 7 8 L 7 7 L 7 6 L 7 5 L 7 4.9921875 z M 7 11 L 8 11 L 9 11 L 9 12 L 9 13 L 8 13 L 7 13 L 7 12 L 7 11 z "
       transform="translate(223.0002,509)"
       id="rect3108-7-5" />
  </g>
  <g
     inkscape:label="places"
     id="layer13"
     transform="translate(-223.0002,-509)"
     inkscape:groupmode="layer" />
  <g
     inkscape:label="mimetypes"
     id="layer14"
     transform="translate(-223.0002,-509)"
     inkscape:groupmode="layer" />
  <g
     inkscape:label="emblems"
     id="layer15"
     style="display:inline"
     transform="translate(-223.0002,-509)"
     inkscape:groupmode="layer" />
  <g
     inkscape:label="emotes"
     id="g71291"
     transform="translate(-223.0002,-509)"
     style="display:inline"
     inkscape:groupmode="layer" />
  <g
     inkscape:label="categories"
     id="g4953"
     style="display:inline"
     transform="translate(-223.0002,-509)"
     inkscape:groupmode="layer" />
  <g
     inkscape:label="actions"
     id="layer12"
     transform="translate(-223.0002,-509)"
     style="display:inline"
     inkscape:groupmode="layer" />
</svg>
