<?xml version="1.0" encoding="UTF-8" standalone="no"?>
<!-- Created with Inkscape (http://www.inkscape.org/) -->

<svg
   xmlns:dc="http://purl.org/dc/elements/1.1/"
   xmlns:cc="http://creativecommons.org/ns#"
   xmlns:rdf="http://www.w3.org/1999/02/22-rdf-syntax-ns#"
   xmlns:svg="http://www.w3.org/2000/svg"
   xmlns="http://www.w3.org/2000/svg"
   xmlns:sodipodi="http://sodipodi.sourceforge.net/DTD/sodipodi-0.dtd"
   xmlns:inkscape="http://www.inkscape.org/namespaces/inkscape"
   width="256"
   height="256"
   viewBox="0 0 256 256"
   id="svg2"
   version="1.1"
   inkscape:version="0.91 r13725"
   sodipodi:docname="dialog-fill-and-stroke.svg">
  <defs
     id="defs4" />
  <sodipodi:namedview
     id="base"
     pagecolor="#ffffff"
     bordercolor="#666666"
     borderopacity="1.0"
     inkscape:pageopacity="0.0"
     inkscape:pageshadow="2"
     inkscape:zoom="2.7152475"
     inkscape:cx="150.83623"
     inkscape:cy="109.99847"
     inkscape:document-units="px"
     inkscape:current-layer="layer1"
     showgrid="true"
     units="px"
     inkscape:window-width="1914"
     inkscape:window-height="1030"
     inkscape:window-x="0"
     inkscape:window-y="26"
     inkscape:window-maximized="1"
     inkscape:snap-bbox="true"
     inkscape:bbox-paths="true"
     inkscape:bbox-nodes="true"
     inkscape:snap-grids="true">
    <inkscape:grid
       type="xygrid"
       id="grid4136"
       spacingx="2"
       spacingy="2"
       empspacing="8"
       dotted="false" />
  </sodipodi:namedview>
  <metadata
     id="metadata7">
    <rdf:RDF>
      <cc:Work
         rdf:about="">
        <dc:format>image/svg+xml</dc:format>
        <dc:type
           rdf:resource="http://purl.org/dc/dcmitype/StillImage" />
        <dc:title />
      </cc:Work>
    </rdf:RDF>
  </metadata>
  <g
     inkscape:label="Capa 1"
     inkscape:groupmode="layer"
     id="layer1"
     transform="translate(0,-796.36216)">
    <rect
       style="fill:#aad400;fill-opacity:1;stroke:none"
       id="rect3378"
       width="224"
       height="224"
       x="16"
       y="16"
       transform="translate(0,796.36216)" />
    <rect
       style="fill:#8fb200;fill-opacity:1;stroke:none"
       id="rect3285"
       width="160"
       height="160"
       x="48"
       y="48"
       transform="translate(0,796.36216)" />
    <path
       style="fill:#ffffff;fill-opacity:1;stroke:none"
       d="M 96 192 L 96 208 L 80 208 L 80 224 L 80 240 L 96 240 L 112 240 L 128 240 L 144 240 L 160 240 L 160 224 L 160 208 L 144 208 L 144 192 L 128 192 L 112 192 L 96 192 z "
       id="rect3380"
       transform="translate(0,796.36216)" />
    <path
       style="fill:#ffffff;fill-opacity:1;stroke:none"
       d="M 96 48 L 96 64 L 96 80 L 96 96 L 112 96 L 112 112 L 112 128 L 96 128 L 96 144 L 80 144 L 80 160 L 96 160 L 96 176 L 112 176 L 128 176 L 144 176 L 144 160 L 160 160 L 160 144 L 176 144 L 176 128 L 176 112 L 160 112 L 160 96 L 144 96 L 144 80 L 128 80 L 128 64 L 112 64 L 112 48 L 96 48 z "
       id="rect3380-54"
       transform="translate(0,796.36216)" />
  </g>
  <g
     inkscape:groupmode="layer"
     id="layer2"
     inkscape:label="Capa 2" />
</svg>
