<?xml version="1.0" encoding="UTF-8" standalone="no"?>
<!-- Created with Inkscape (http://www.inkscape.org/) -->

<svg
   xmlns:dc="http://purl.org/dc/elements/1.1/"
   xmlns:cc="http://creativecommons.org/ns#"
   xmlns:rdf="http://www.w3.org/1999/02/22-rdf-syntax-ns#"
   xmlns:svg="http://www.w3.org/2000/svg"
   xmlns="http://www.w3.org/2000/svg"
   xmlns:sodipodi="http://sodipodi.sourceforge.net/DTD/sodipodi-0.dtd"
   xmlns:inkscape="http://www.inkscape.org/namespaces/inkscape"
   width="48"
   height="48"
   viewBox="0 0 48 48"
   id="svg2"
   version="1.1"
   inkscape:version="0.91 r13725"
   sodipodi:docname="dialog-ok.svg">
  <defs
     id="defs4" />
  <sodipodi:namedview
     id="base"
     pagecolor="#ffffff"
     bordercolor="#666666"
     borderopacity="1.0"
     inkscape:pageopacity="0.0"
     inkscape:pageshadow="2"
     inkscape:zoom="12.156443"
     inkscape:cx="22.737419"
     inkscape:cy="19.008525"
     inkscape:document-units="px"
     inkscape:current-layer="layer1"
     showgrid="true"
     units="px"
     inkscape:window-width="1914"
     inkscape:window-height="1030"
     inkscape:window-x="0"
     inkscape:window-y="26"
     inkscape:window-maximized="1"
     inkscape:snap-bbox="true"
     inkscape:bbox-paths="true"
     inkscape:bbox-nodes="true"
     inkscape:snap-grids="true">
    <inkscape:grid
       type="xygrid"
       id="grid4136"
       spacingx="3px"
       spacingy="3px"
       empspacing="8"
       dotted="false"
       visible="true"
       enabled="true"
       snapvisiblegridlinesonly="true" />
  </sodipodi:namedview>
  <metadata
     id="metadata7">
    <rdf:RDF>
      <cc:Work
         rdf:about="">
        <dc:format>image/svg+xml</dc:format>
        <dc:type
           rdf:resource="http://purl.org/dc/dcmitype/StillImage" />
        <dc:title />
      </cc:Work>
    </rdf:RDF>
  </metadata>
  <g
     inkscape:label="Capa 1"
     inkscape:groupmode="layer"
     id="layer1"
     transform="translate(0,-1004.3622)">
    <path
       style="fill:#aad400;fill-opacity:1;stroke:none"
       d="M 3 0 L 3 3 L 0 3 L 0 6 L 0 9 L 0 12 L 0 15 L 0 18 L 0 21 L 0 24 L 0 27 L 0 30 L 0 33 L 0 36 L 0 39 L 0 45 L 48 45 L 48 39 L 48 36 L 48 33 L 48 30 L 48 27 L 48 24 L 48 21 L 48 18 L 48 15 L 48 12 L 48 9 L 48 6 L 48 3 L 45 3 L 45 0 L 12 0 L 9 0 L 6 0 L 3 0 z M 6 12 L 42 12 L 42 15 L 42 18 L 42 21 L 42 24 L 42 27 L 42 30 L 42 33 L 42 36 L 42 39 L 6 39 L 6 36 L 6 33 L 6 30 L 6 27 L 6 24 L 6 21 L 6 18 L 6 15 L 6 12 z "
       transform="translate(0,1004.3622)"
       id="rect2985-12-3" />
    <path
       style="fill:#aad400;fill-opacity:1;stroke:none"
       d="M 24 15 L 24 18 L 24 21 L 24 24 L 21 24 L 18 24 L 15 24 L 15 27 L 18 27 L 21 27 L 24 27 L 24 30 L 24 33 L 24 36 L 27 36 L 27 33 L 27 30 L 27 27 L 30 27 L 33 27 L 36 27 L 36 24 L 33 24 L 30 24 L 27 24 L 27 21 L 27 18 L 27 15 L 24 15 z "
       transform="translate(0,1004.3622)"
       id="rect2985-12-5-0" />
  </g>
  <g
     inkscape:groupmode="layer"
     id="layer2"
     inkscape:label="Capa 2"
     transform="translate(0,-208)" />
</svg>
