<?xml version="1.0" encoding="UTF-8" standalone="no"?>
<!-- Created with Inkscape (http://www.inkscape.org/) -->

<svg
   xmlns:dc="http://purl.org/dc/elements/1.1/"
   xmlns:cc="http://creativecommons.org/ns#"
   xmlns:rdf="http://www.w3.org/1999/02/22-rdf-syntax-ns#"
   xmlns:svg="http://www.w3.org/2000/svg"
   xmlns="http://www.w3.org/2000/svg"
   xmlns:sodipodi="http://sodipodi.sourceforge.net/DTD/sodipodi-0.dtd"
   xmlns:inkscape="http://www.inkscape.org/namespaces/inkscape"
   sodipodi:docname="dialog-question-symbolic.svg"
   inkscape:version="0.91 r13725"
   version="1.1"
   id="svg7384"
   width="15.999999"
   height="16">
  <metadata
     id="metadata90">
    <rdf:RDF>
      <cc:Work
         rdf:about="">
        <dc:format>image/svg+xml</dc:format>
        <dc:type
           rdf:resource="http://purl.org/dc/dcmitype/StillImage" />
        <dc:title>Gnome Symbolic Icon Theme</dc:title>
      </cc:Work>
    </rdf:RDF>
  </metadata>
  <sodipodi:namedview
     inkscape:guide-bbox="true"
     guidetolerance="10"
     inkscape:snap-to-guides="true"
     inkscape:object-paths="false"
     borderopacity="1"
     inkscape:pageshadow="2"
     inkscape:window-maximized="1"
     inkscape:zoom="48.515129"
     pagecolor="#f9fff3"
     gridtolerance="10"
     inkscape:current-layer="layer11"
     inkscape:window-height="1030"
     inkscape:snap-others="false"
     bordercolor="#666666"
     inkscape:window-x="0"
     inkscape:window-y="26"
     inkscape:window-width="1914"
     inkscape:bbox-paths="false"
     inkscape:snap-global="true"
     inkscape:pageopacity="1"
     showgrid="true"
     id="namedview88"
     showborder="true"
     inkscape:cx="8.2019371"
     inkscape:cy="8.4494093"
     objecttolerance="10"
     inkscape:snap-bbox-midpoints="false"
     inkscape:object-nodes="false"
     showguides="true"
     inkscape:snap-bbox="true"
     inkscape:snap-nodes="true"
     inkscape:snap-grids="true">
    <inkscape:grid
       type="xygrid"
       enabled="true"
       visible="true"
       snapvisiblegridlinesonly="true"
       spacingx="1px"
       spacingy="1px"
       id="grid4866"
       empspacing="2" />
  </sodipodi:namedview>
  <title
     id="title9167">Gnome Symbolic Icon Theme</title>
  <defs
     id="defs7386" />
  <g
     inkscape:label="status"
     id="layer9"
     style="display:inline"
     transform="translate(-223.0002,-509)"
     inkscape:groupmode="layer" />
  <g
     inkscape:label="devices"
     id="layer10"
     transform="translate(-223.0002,-509)"
     inkscape:groupmode="layer" />
  <g
     inkscape:label="apps"
     id="layer11"
     transform="translate(-223.0002,-509)"
     inkscape:groupmode="layer">
    <path
       style="fill:#aad400;fill-opacity:1;stroke:none"
       d="M 7 1 L 7 2 L 6 2 L 6 3 L 5 3 L 5 4 L 4 4 L 4 5 L 3 5 L 3 6 L 3 7 L 2 7 L 1 7 L 1 8 L 1 9 L 2 9 L 2 10 L 3 10 L 3 11 L 4 11 L 4 12 L 5 12 L 5 13 L 6 13 L 6 14 L 7 14 L 7 15 L 8 15 L 9 15 L 9 14 L 10 14 L 10 13 L 11 13 L 11 12 L 12 12 L 12 11 L 13 11 L 13 10 L 14 10 L 14 9 L 15 9 L 15 8 L 15 7 L 14 7 L 14 6 L 13 6 L 13 5 L 12 5 L 12 4 L 11 4 L 11 3 L 10 3 L 10 2 L 9 2 L 9 1 L 8 1 L 7 1 z M 7 3 L 8 3 L 9 3 L 9 4 L 10 4 L 10 5 L 11 5 L 11 6 L 11 7 L 10 7 L 10 8 L 10 9 L 9 9 L 9 10 L 8 10 L 7 10 L 7 9 L 7 8 L 8 8 L 9 8 L 9 7 L 9 6 L 9 5 L 8 5 L 7 5 L 7 6 L 7 7 L 6 7 L 5 7 L 5 6 L 5 5 L 6 5 L 6 4 L 7 4 L 7 3 z M 7 11 L 8 11 L 9 11 L 9 12 L 9 13 L 8 13 L 7 13 L 7 12 L 7 11 z "
       transform="translate(223.0002,509)"
       id="rect3141" />
    <path
       style="fill:#668000;fill-opacity:1;stroke:none"
       d="M 7 3 L 7 4 L 6 4 L 6 5 L 5 5 L 5 6 L 5 7 L 6 7 L 7 7 L 7 6 L 7 5 L 8 5 L 9 5 L 9 6 L 9 7 L 9 8 L 8 8 L 7 8 L 7 9 L 7 10 L 8 10 L 9 10 L 9 9 L 10 9 L 10 8 L 10 7 L 11 7 L 11 6 L 11 5 L 10 5 L 10 4 L 9 4 L 9 3 L 8 3 L 7 3 z M 7 11 L 7 12 L 7 13 L 8 13 L 9 13 L 9 12 L 9 11 L 8 11 L 7 11 z "
       transform="translate(223.0002,509)"
       id="rect3196-2" />
    <rect
       style="fill:#aad400;fill-opacity:1;stroke:none"
       id="rect3141-48-9"
       width="1"
       height="1"
       x="225.0002"
       y="515" />
  </g>
  <g
     inkscape:label="places"
     id="layer13"
     transform="translate(-223.0002,-509)"
     inkscape:groupmode="layer" />
  <g
     inkscape:label="mimetypes"
     id="layer14"
     transform="translate(-223.0002,-509)"
     inkscape:groupmode="layer" />
  <g
     inkscape:label="emblems"
     id="layer15"
     style="display:inline"
     transform="translate(-223.0002,-509)"
     inkscape:groupmode="layer" />
  <g
     inkscape:label="emotes"
     id="g71291"
     transform="translate(-223.0002,-509)"
     style="display:inline"
     inkscape:groupmode="layer" />
  <g
     inkscape:label="categories"
     id="g4953"
     style="display:inline"
     transform="translate(-223.0002,-509)"
     inkscape:groupmode="layer" />
  <g
     inkscape:label="actions"
     id="layer12"
     transform="translate(-223.0002,-509)"
     style="display:inline"
     inkscape:groupmode="layer" />
</svg>
