<?xml version="1.0" encoding="UTF-8" standalone="no"?>
<!-- Created with Inkscape (http://www.inkscape.org/) -->

<svg
   xmlns:dc="http://purl.org/dc/elements/1.1/"
   xmlns:cc="http://creativecommons.org/ns#"
   xmlns:rdf="http://www.w3.org/1999/02/22-rdf-syntax-ns#"
   xmlns:svg="http://www.w3.org/2000/svg"
   xmlns="http://www.w3.org/2000/svg"
   xmlns:sodipodi="http://sodipodi.sourceforge.net/DTD/sodipodi-0.dtd"
   xmlns:inkscape="http://www.inkscape.org/namespaces/inkscape"
   id="svg7384"
   sodipodi:docname="button_cancel.svg"
   version="1.1"
   inkscape:version="0.91 r13725"
   height="256"
   width="256">
  <metadata
     id="metadata90">
    <rdf:RDF>
      <cc:Work
         rdf:about="">
        <dc:format>image/svg+xml</dc:format>
        <dc:type
           rdf:resource="http://purl.org/dc/dcmitype/StillImage" />
        <dc:title>Gnome Symbolic Icon Theme</dc:title>
      </cc:Work>
    </rdf:RDF>
  </metadata>
  <sodipodi:namedview
     inkscape:cy="-21.736454"
     pagecolor="#555753"
     borderopacity="1"
     showborder="true"
     inkscape:bbox-paths="false"
     guidetolerance="10"
     inkscape:object-paths="true"
     inkscape:window-width="1914"
     showguides="true"
     inkscape:object-nodes="true"
     inkscape:snap-bbox="true"
     inkscape:pageshadow="2"
     inkscape:guide-bbox="true"
     inkscape:snap-nodes="false"
     bordercolor="#666666"
     objecttolerance="10"
     id="namedview88"
     showgrid="false"
     inkscape:window-maximized="1"
     inkscape:window-x="0"
     inkscape:snap-global="true"
     inkscape:window-y="26"
     gridtolerance="10"
     inkscape:window-height="1030"
     inkscape:snap-to-guides="true"
     inkscape:current-layer="layer12"
     inkscape:snap-bbox-midpoints="false"
     inkscape:zoom="0.97313606"
     inkscape:cx="213.50611"
     inkscape:snap-grids="true"
     inkscape:pageopacity="0"
     borderlayer="true">
    <inkscape:grid
       spacingx="1px"
       spacingy="1px"
       id="grid4866"
       empspacing="2"
       enabled="true"
       type="xygrid"
       snapvisiblegridlinesonly="true"
       visible="true" />
  </sodipodi:namedview>
  <title
     id="title9167">Gnome Symbolic Icon Theme</title>
  <defs
     id="defs7386" />
  <g
     inkscape:label="status"
     transform="translate(-219.99995,-366)"
     inkscape:groupmode="layer"
     id="layer9"
     style="display:inline" />
  <g
     inkscape:label="devices"
     transform="translate(-219.99995,-366)"
     inkscape:groupmode="layer"
     id="layer10" />
  <g
     inkscape:label="apps"
     transform="translate(-219.99995,-366)"
     inkscape:groupmode="layer"
     id="layer11" />
  <g
     inkscape:label="actions"
     transform="translate(-219.99995,-366)"
     inkscape:groupmode="layer"
     id="layer12">
    <path
       style="fill:#ff0000;fill-opacity:1;stroke:none"
       d="M 95.986328 16.013672 L 95.986328 32.013672 L 63.986328 32.013672 L 63.986328 48.013672 L 31.986328 48.013672 L 31.986328 80.013672 L 15.986328 80.013672 L 15.986328 112.01367 L -0.013671875 112.01367 L -0.013671875 144.01367 L 15.986328 144.01367 L 15.986328 176.01367 L 31.986328 176.01367 L 31.986328 208.01367 L 63.986328 208.01367 L 63.986328 224.01367 L 95.986328 224.01367 L 95.986328 240.01367 L 127.98633 240.01367 L 159.98633 240.01367 L 159.98633 224.01367 L 191.98633 224.01367 L 191.98633 208.01367 L 223.98633 208.01367 L 223.98633 176.01367 L 239.98633 176.01367 L 239.98633 144.01367 L 255.98633 144.01367 L 255.98633 112.01367 L 239.98633 112.01367 L 239.98633 80.013672 L 223.98633 80.013672 L 223.98633 48.013672 L 191.98633 48.013672 L 191.98633 32.013672 L 159.98633 32.013672 L 159.98633 16.013672 L 127.98633 16.013672 L 95.986328 16.013672 z M 95.986328 48.013672 L 127.98633 48.013672 L 159.98633 48.013672 L 159.98633 64.013672 L 159.98633 80.013672 L 143.98633 80.013672 L 143.98633 96.013672 L 127.98633 96.013672 L 127.98633 112.01367 L 111.98633 112.01367 L 111.98633 128.01367 L 95.986328 128.01367 L 95.986328 144.01367 L 79.986328 144.01367 L 79.986328 160.01367 L 63.986328 160.01367 L 63.986328 176.01367 L 47.986328 176.01367 L 47.986328 144.01367 L 47.986328 128.01367 L 47.986328 112.01367 L 47.986328 96.013672 L 63.986328 96.013672 L 63.986328 80.013672 L 63.986328 64.013672 L 95.986328 64.013672 L 95.986328 48.013672 z M 191.98633 80.013672 L 207.98633 80.013672 L 207.98633 112.01367 L 207.98633 128.01367 L 207.98633 144.01367 L 207.98633 160.01367 L 191.98633 160.01367 L 191.98633 176.01367 L 175.98633 176.01367 L 175.98633 192.01367 L 159.98633 192.01367 L 143.98633 192.01367 L 143.98633 208.01367 L 127.98633 208.01367 L 95.986328 208.01367 L 95.986328 192.01367 L 95.986328 176.01367 L 111.98633 176.01367 L 111.98633 160.01367 L 127.98633 160.01367 L 127.98633 144.01367 L 143.98633 144.01367 L 143.98633 128.01367 L 159.98633 128.01367 L 159.98633 112.01367 L 175.98633 112.01367 L 175.98633 96.013672 L 191.98633 96.013672 L 191.98633 80.013672 z "
       transform="translate(219.99995,366)"
       id="rect3082" />
    <rect
       style="fill:#ff0000;fill-opacity:1;stroke:none"
       id="rect3360"
       width="16"
       height="16"
       x="363.98627"
       y="446.01364" />
  </g>
  <g
     inkscape:label="places"
     transform="translate(-219.99995,-366)"
     inkscape:groupmode="layer"
     id="layer13" />
  <g
     inkscape:label="mimetypes"
     transform="translate(-219.99995,-366)"
     inkscape:groupmode="layer"
     id="layer14" />
  <g
     inkscape:label="emblems"
     transform="translate(-219.99995,-366)"
     inkscape:groupmode="layer"
     id="layer15"
     style="display:inline" />
  <g
     inkscape:label="categories"
     transform="translate(-219.99995,-366)"
     inkscape:groupmode="layer"
     id="g4953"
     style="display:inline" />
</svg>
