<?xml version="1.0" encoding="UTF-8" standalone="no"?>
<!-- Created with Inkscape (http://www.inkscape.org/) -->

<svg
   xmlns:dc="http://purl.org/dc/elements/1.1/"
   xmlns:cc="http://creativecommons.org/ns#"
   xmlns:rdf="http://www.w3.org/1999/02/22-rdf-syntax-ns#"
   xmlns:svg="http://www.w3.org/2000/svg"
   xmlns="http://www.w3.org/2000/svg"
   xmlns:sodipodi="http://sodipodi.sourceforge.net/DTD/sodipodi-0.dtd"
   xmlns:inkscape="http://www.inkscape.org/namespaces/inkscape"
   width="256"
   height="256"
   viewBox="0 0 256 256"
   id="svg2"
   version="1.1"
   inkscape:version="0.91 r13725"
   sodipodi:docname="dialog-xml-editor.svg">
  <defs
     id="defs4" />
  <sodipodi:namedview
     id="base"
     pagecolor="#ffffff"
     bordercolor="#666666"
     borderopacity="1.0"
     inkscape:pageopacity="0.0"
     inkscape:pageshadow="2"
     inkscape:zoom="2.0522148"
     inkscape:cx="38.229701"
     inkscape:cy="90.585058"
     inkscape:document-units="px"
     inkscape:current-layer="layer1"
     showgrid="true"
     units="px"
     inkscape:window-width="1914"
     inkscape:window-height="1030"
     inkscape:window-x="0"
     inkscape:window-y="26"
     inkscape:window-maximized="1"
     inkscape:snap-bbox="true"
     inkscape:bbox-paths="true"
     inkscape:bbox-nodes="true"
     inkscape:snap-grids="true"
     inkscape:snap-global="true">
    <inkscape:grid
       type="xygrid"
       id="grid4136"
       spacingx="2"
       spacingy="2"
       empspacing="8"
       dotted="false"
       visible="true"
       enabled="true"
       snapvisiblegridlinesonly="true" />
  </sodipodi:namedview>
  <metadata
     id="metadata7">
    <rdf:RDF>
      <cc:Work
         rdf:about="">
        <dc:format>image/svg+xml</dc:format>
        <dc:type
           rdf:resource="http://purl.org/dc/dcmitype/StillImage" />
        <dc:title />
      </cc:Work>
    </rdf:RDF>
  </metadata>
  <g
     inkscape:label="Capa 1"
     inkscape:groupmode="layer"
     id="layer1"
     transform="translate(0,-796.36216)">
    <path
       style="fill:#aad400;fill-opacity:1;stroke:none"
       d="M 80 48 L 80 64 L 64 64 L 64 80 L 48 80 L 48 96 L 32 96 L 32 112 L 16 112 L 16 128 L 16 144 L 32 144 L 32 160 L 48 160 L 48 176 L 64 176 L 64 192 L 80 192 L 80 208 L 96 208 L 112 208 L 112 192 L 112 176 L 96 176 L 96 160 L 80 160 L 80 144 L 64 144 L 64 128 L 64 112 L 80 112 L 80 96 L 96 96 L 96 80 L 112 80 L 112 64 L 112 48 L 96 48 L 80 48 z "
       transform="translate(0,796.36216)"
       id="rect3121" />
    <path
       style="fill:#aad400;fill-opacity:1;stroke:none"
       d="M 144 48 L 144 64 L 144 80 L 160 80 L 160 96 L 176 96 L 176 112 L 192 112 L 192 128 L 192 144 L 176 144 L 176 160 L 160 160 L 160 176 L 144 176 L 144 192 L 144 208 L 160 208 L 176 208 L 176 192 L 192 192 L 192 176 L 208 176 L 208 160 L 224 160 L 224 144 L 240 144 L 240 128 L 240 112 L 224 112 L 224 96 L 208 96 L 208 80 L 192 80 L 192 64 L 176 64 L 176 48 L 160 48 L 144 48 z "
       transform="translate(0,796.36216)"
       id="rect3121-1" />
  </g>
  <g
     inkscape:groupmode="layer"
     id="layer2"
     inkscape:label="Capa 2" />
</svg>
