<?xml version="1.0" encoding="UTF-8" standalone="no"?>
<!-- Created with Inkscape (http://www.inkscape.org/) -->

<svg
   xmlns:dc="http://purl.org/dc/elements/1.1/"
   xmlns:cc="http://creativecommons.org/ns#"
   xmlns:rdf="http://www.w3.org/1999/02/22-rdf-syntax-ns#"
   xmlns:svg="http://www.w3.org/2000/svg"
   xmlns="http://www.w3.org/2000/svg"
   xmlns:sodipodi="http://sodipodi.sourceforge.net/DTD/sodipodi-0.dtd"
   xmlns:inkscape="http://www.inkscape.org/namespaces/inkscape"
   width="256"
   height="256"
   viewBox="0 0 256 256"
   id="svg2"
   version="1.1"
   inkscape:version="0.48.5 r10040"
   sodipodi:docname="document-print-preview.svg">
  <defs
     id="defs4" />
  <sodipodi:namedview
     id="base"
     pagecolor="#ffffff"
     bordercolor="#666666"
     borderopacity="1.0"
     inkscape:pageopacity="0.0"
     inkscape:pageshadow="2"
     inkscape:zoom="2.0522148"
     inkscape:cx="20.143212"
     inkscape:cy="115.43626"
     inkscape:document-units="px"
     inkscape:current-layer="layer1"
     showgrid="true"
     units="px"
     inkscape:window-width="1914"
     inkscape:window-height="1031"
     inkscape:window-x="0"
     inkscape:window-y="25"
     inkscape:window-maximized="1"
     inkscape:snap-bbox="true"
     inkscape:bbox-paths="true"
     inkscape:bbox-nodes="true"
     inkscape:snap-grids="true"
     inkscape:snap-global="true">
    <inkscape:grid
       type="xygrid"
       id="grid4136"
       spacingx="2"
       spacingy="2"
       empspacing="8"
       dotted="false"
       visible="true"
       enabled="true"
       snapvisiblegridlinesonly="true" />
  </sodipodi:namedview>
  <metadata
     id="metadata7">
    <rdf:RDF>
      <cc:Work
         rdf:about="">
        <dc:format>image/svg+xml</dc:format>
        <dc:type
           rdf:resource="http://purl.org/dc/dcmitype/StillImage" />
        <dc:title></dc:title>
      </cc:Work>
    </rdf:RDF>
  </metadata>
  <g
     inkscape:label="Capa 1"
     inkscape:groupmode="layer"
     id="layer1"
     transform="translate(0,-796.36216)">
    <rect
       style="fill:#ff6600;fill-opacity:1;stroke:none"
       id="rect3206-56-0"
       width="16"
       height="16"
       x="32"
       y="828.36218" />
    <rect
       style="fill:#ff6600;fill-opacity:1;stroke:none"
       id="rect3206-56-6"
       width="16"
       height="16"
       x="48"
       y="828.36218" />
    <rect
       style="fill:#ff6600;fill-opacity:1;stroke:none"
       id="rect3206-56-2"
       width="16"
       height="16"
       x="64"
       y="828.36218" />
    <rect
       style="fill:#ff6600;fill-opacity:1;stroke:none"
       id="rect3206-56-5"
       width="16"
       height="16"
       x="80"
       y="828.36218" />
    <rect
       style="fill:#ff6600;fill-opacity:1;stroke:none"
       id="rect3206-56-3"
       width="16"
       height="16"
       x="96"
       y="828.36218" />
    <rect
       style="fill:#ff6600;fill-opacity:1;stroke:none"
       id="rect3206-56-66"
       width="16"
       height="16"
       x="112"
       y="828.36218" />
    <rect
       style="fill:#ff6600;fill-opacity:1;stroke:none"
       id="rect3206-56-1"
       width="16"
       height="16"
       x="128"
       y="828.36218" />
    <rect
       style="fill:#ff6600;fill-opacity:1;stroke:none"
       id="rect3206-56-56"
       width="16"
       height="16"
       x="144"
       y="828.36218" />
    <rect
       style="fill:#ff6600;fill-opacity:1;stroke:none"
       id="rect3206-56-57"
       width="16"
       height="16"
       x="160"
       y="828.36218" />
    <rect
       style="fill:#ff6600;fill-opacity:1;stroke:none"
       id="rect3206-56-24"
       width="16"
       height="16"
       x="176"
       y="828.36218" />
    <rect
       style="fill:#ff6600;fill-opacity:1;stroke:none"
       id="rect3206-56-9"
       width="16"
       height="16"
       x="192"
       y="828.36218" />
    <rect
       style="fill:#ff6600;fill-opacity:1;stroke:none"
       id="rect3206-56-23"
       width="16"
       height="16"
       x="208"
       y="828.36218" />
    <rect
       style="fill:#ff6600;fill-opacity:1;stroke:none"
       id="rect3206-56-20"
       width="16"
       height="16"
       x="224"
       y="844.36218" />
    <rect
       style="fill:#ff6600;fill-opacity:1;stroke:none"
       id="rect3206-56-50"
       width="16"
       height="16"
       x="224"
       y="860.36218" />
    <rect
       style="fill:#ff6600;fill-opacity:1;stroke:none"
       id="rect3206-56-4"
       width="16"
       height="16"
       x="224"
       y="876.36218" />
    <rect
       style="fill:#ff6600;fill-opacity:1;stroke:none"
       id="rect3206-56-29"
       width="16"
       height="16"
       x="224"
       y="892.36218" />
    <rect
       style="fill:#ff6600;fill-opacity:1;stroke:none"
       id="rect3206-56-30"
       width="16"
       height="16"
       x="224"
       y="908.36218" />
    <rect
       style="fill:#ff6600;fill-opacity:1;stroke:none"
       id="rect3206-56-99"
       width="16"
       height="16"
       x="224"
       y="924.36218" />
    <rect
       style="fill:#ff6600;fill-opacity:1;stroke:none"
       id="rect3206-56-33"
       width="16"
       height="16"
       x="224"
       y="940.36218" />
    <rect
       style="fill:#ff6600;fill-opacity:1;stroke:none"
       id="rect3206-56-7"
       width="16"
       height="16"
       x="224"
       y="956.36218" />
    <rect
       style="fill:#ff6600;fill-opacity:1;stroke:none"
       id="rect3206-56-41"
       width="16"
       height="16"
       x="208"
       y="972.36218" />
    <rect
       style="fill:#ff6600;fill-opacity:1;stroke:none"
       id="rect3206-56-91"
       width="16"
       height="16"
       x="208"
       y="956.36218" />
    <rect
       style="fill:#ff6600;fill-opacity:1;stroke:none"
       id="rect3206-56-45"
       width="16"
       height="16"
       x="208"
       y="940.36218" />
    <rect
       style="fill:#ff6600;fill-opacity:1;stroke:none"
       id="rect3206-56-8"
       width="16"
       height="16"
       x="208"
       y="924.36218" />
    <rect
       style="fill:#ff6600;fill-opacity:1;stroke:none"
       id="rect3206-56-73"
       width="16"
       height="16"
       x="208"
       y="892.36218" />
    <rect
       style="fill:#ff6600;fill-opacity:1;stroke:none"
       id="rect3206-56-63"
       width="16"
       height="16"
       x="208"
       y="908.36218" />
    <rect
       style="fill:#ff6600;fill-opacity:1;stroke:none"
       id="rect3206-56-00"
       width="16"
       height="16"
       x="208"
       y="876.36218" />
    <rect
       style="fill:#ff6600;fill-opacity:1;stroke:none"
       id="rect3206-56-914"
       width="16"
       height="16"
       x="208"
       y="860.36218" />
    <rect
       style="fill:#ff6600;fill-opacity:1;stroke:none"
       id="rect3206-56-235"
       width="16"
       height="16"
       x="208"
       y="844.36218" />
    <rect
       style="fill:#ff6600;fill-opacity:1;stroke:none"
       id="rect3206-56-93"
       width="16"
       height="16"
       x="192"
       y="844.36218" />
    <rect
       style="fill:#ff6600;fill-opacity:1;stroke:none"
       id="rect3206-56-934"
       width="16"
       height="16"
       x="176"
       y="844.36218" />
    <rect
       style="fill:#ff6600;fill-opacity:1;stroke:none"
       id="rect3206-56-43"
       width="16"
       height="16"
       x="160"
       y="844.36218" />
    <rect
       style="fill:#ff6600;fill-opacity:1;stroke:none"
       id="rect3206-56-337"
       width="16"
       height="16"
       x="144"
       y="844.36218" />
    <rect
       style="fill:#ff6600;fill-opacity:1;stroke:none"
       id="rect3206-56-62"
       width="16"
       height="16"
       x="128"
       y="844.36218" />
    <rect
       style="fill:#ff6600;fill-opacity:1;stroke:none"
       id="rect3206-56-302"
       width="16"
       height="16"
       x="112"
       y="844.36218" />
    <rect
       style="fill:#ff6600;fill-opacity:1;stroke:none"
       id="rect3206-56-669"
       width="16"
       height="16"
       x="96"
       y="844.36218" />
    <rect
       style="fill:#ff6600;fill-opacity:1;stroke:none"
       id="rect3206-56-64"
       width="16"
       height="16"
       x="80"
       y="844.36218" />
    <rect
       style="fill:#ff6600;fill-opacity:1;stroke:none"
       id="rect3206-56-42"
       width="16"
       height="16"
       x="64"
       y="844.36218" />
    <rect
       style="fill:#ff6600;fill-opacity:1;stroke:none"
       id="rect3206-56-96"
       width="16"
       height="16"
       x="48"
       y="844.36218" />
    <rect
       style="fill:#ff6600;fill-opacity:1;stroke:none"
       id="rect3206-56-28"
       width="16"
       height="16"
       x="32"
       y="844.36218" />
    <rect
       style="fill:#ff6600;fill-opacity:1;stroke:none"
       id="rect3206-56-77"
       width="16"
       height="16"
       x="16"
       y="844.36218" />
    <rect
       style="fill:#ff6600;fill-opacity:1;stroke:none"
       id="rect3206-56-22"
       width="16"
       height="16"
       x="16"
       y="860.36218" />
    <rect
       style="fill:#ff6600;fill-opacity:1;stroke:none"
       id="rect3206-56-417"
       width="16"
       height="16"
       x="32"
       y="860.36218" />
    <rect
       style="fill:#ff6600;fill-opacity:1;stroke:none"
       id="rect3206-56-55"
       width="16"
       height="16"
       x="32"
       y="876.36218" />
    <rect
       style="fill:#ff6600;fill-opacity:1;stroke:none"
       id="rect3206-56-19"
       width="16"
       height="16"
       x="16"
       y="876.36218" />
    <rect
       style="fill:#ff6600;fill-opacity:1;stroke:none"
       id="rect3206-56-04"
       width="16"
       height="16"
       x="16"
       y="892.36218" />
    <rect
       style="fill:#ff6600;fill-opacity:1;stroke:none"
       id="rect3206-56-49"
       width="16"
       height="16"
       x="32"
       y="892.36218" />
    <rect
       style="fill:#ff6600;fill-opacity:1;stroke:none"
       id="rect3206-56-37"
       width="16"
       height="16"
       x="32"
       y="908.36218" />
    <rect
       style="fill:#ff6600;fill-opacity:1;stroke:none"
       id="rect3206-56-231"
       width="16"
       height="16"
       x="16"
       y="908.36218" />
    <rect
       style="fill:#ff6600;fill-opacity:1;stroke:none"
       id="rect3206-56-192"
       width="16"
       height="16"
       x="16"
       y="924.36218" />
    <rect
       style="fill:#ff6600;fill-opacity:1;stroke:none"
       id="rect3206-56-75"
       width="16"
       height="16"
       x="32"
       y="924.36218" />
    <rect
       style="fill:#ff6600;fill-opacity:1;stroke:none"
       id="rect3206-56-92"
       width="16"
       height="16"
       x="32"
       y="940.36218" />
    <rect
       style="fill:#ff6600;fill-opacity:1;stroke:none"
       id="rect3206-56-454"
       width="16"
       height="16"
       x="16"
       y="940.36218" />
    <rect
       style="fill:#ff6600;fill-opacity:1;stroke:none"
       id="rect3206-56-433"
       width="16"
       height="16"
       x="16"
       y="956.36218" />
    <rect
       style="fill:#ff6600;fill-opacity:1;stroke:none"
       id="rect3206-56-87"
       width="16"
       height="16"
       x="32"
       y="956.36218" />
    <rect
       style="fill:#ff6600;fill-opacity:1;stroke:none"
       id="rect3206-56-925"
       width="16"
       height="16"
       x="32"
       y="972.36218" />
    <rect
       style="fill:#ff6600;fill-opacity:1;stroke:none"
       id="rect3206-56-69"
       width="16"
       height="16"
       x="48"
       y="972.36218" />
    <rect
       style="fill:#ff6600;fill-opacity:1;stroke:none"
       id="rect3206-56-67"
       width="16"
       height="16"
       x="64"
       y="972.36218" />
    <rect
       style="fill:#ff6600;fill-opacity:1;stroke:none"
       id="rect3206-56-912"
       width="16"
       height="16"
       x="64"
       y="988.36218" />
    <rect
       style="fill:#ff6600;fill-opacity:1;stroke:none"
       id="rect3206-56-961"
       width="16"
       height="16"
       x="48"
       y="988.36218" />
    <rect
       style="fill:#ff6600;fill-opacity:1;stroke:none"
       id="rect3206-56-39"
       width="16"
       height="16"
       x="48"
       y="1004.3622" />
    <rect
       style="fill:#ff6600;fill-opacity:1;stroke:none"
       id="rect3206-56-46"
       width="16"
       height="16"
       x="64"
       y="1004.3622" />
    <rect
       style="fill:#ff6600;fill-opacity:1;stroke:none"
       id="rect3206-56-86"
       width="16"
       height="16"
       x="64"
       y="1020.3622" />
    <rect
       style="fill:#ff6600;fill-opacity:1;stroke:none"
       id="rect3206-56-44"
       width="16"
       height="16"
       x="80"
       y="1020.3622" />
    <rect
       style="fill:#ff6600;fill-opacity:1;stroke:none"
       id="rect3206-56-560"
       width="16"
       height="16"
       x="96"
       y="1020.3622" />
    <rect
       style="fill:#ff6600;fill-opacity:1;stroke:none"
       id="rect3206-56-32"
       width="16"
       height="16"
       x="112"
       y="1020.3622" />
    <rect
       style="fill:#ff6600;fill-opacity:1;stroke:none"
       id="rect3206-56-78"
       width="16"
       height="16"
       x="128"
       y="1020.3622" />
    <rect
       style="fill:#ff6600;fill-opacity:1;stroke:none"
       id="rect3206-56-85"
       width="16"
       height="16"
       x="80"
       y="1004.3622" />
    <rect
       style="fill:#ff6600;fill-opacity:1;stroke:none"
       id="rect3206-56-59"
       width="16"
       height="16"
       x="96"
       y="1004.3622" />
    <rect
       style="fill:#ff6600;fill-opacity:1;stroke:none"
       id="rect3206-56-90"
       width="16"
       height="16"
       x="112"
       y="1004.3622" />
    <rect
       style="fill:#ff6600;fill-opacity:1;stroke:none"
       id="rect3206-56-68"
       width="16"
       height="16"
       x="128"
       y="1004.3622" />
    <rect
       style="fill:#ff6600;fill-opacity:1;stroke:none"
       id="rect3206-56-938"
       width="16"
       height="16"
       x="144"
       y="1004.3622" />
    <rect
       style="fill:#ff6600;fill-opacity:1;stroke:none"
       id="rect3206-56-25"
       width="16"
       height="16"
       x="160"
       y="1004.3622" />
    <rect
       style="fill:#ff6600;fill-opacity:1;stroke:none"
       id="rect3206-56-98"
       width="16"
       height="16"
       x="144"
       y="988.36218" />
    <rect
       style="fill:#ff6600;fill-opacity:1;stroke:none"
       id="rect3206-56-84"
       width="16"
       height="16"
       x="160"
       y="988.36218" />
    <rect
       style="fill:#ff6600;fill-opacity:1;stroke:none"
       id="rect3206-56-72"
       width="16"
       height="16"
       x="144"
       y="972.36218" />
    <rect
       style="fill:#ff6600;fill-opacity:1;stroke:none"
       id="rect3206-56-17"
       width="16"
       height="16"
       x="160"
       y="972.36218" />
    <rect
       style="fill:#ff6600;fill-opacity:1;stroke:none"
       id="rect3206-56-97"
       width="16"
       height="16"
       x="176"
       y="988.36218" />
    <rect
       style="fill:#ff6600;fill-opacity:1;stroke:none"
       id="rect3206-56-36"
       width="16"
       height="16"
       x="192"
       y="972.36218" />
    <rect
       style="fill:#ff6600;fill-opacity:1;stroke:none"
       id="rect3206-56-561"
       width="16"
       height="16"
       x="176"
       y="972.36218" />
    <rect
       style="fill:#ff6600;fill-opacity:1;stroke:none"
       id="rect3206-56-905"
       width="16"
       height="16"
       x="176"
       y="956.36218" />
    <rect
       style="fill:#ff6600;fill-opacity:1;stroke:none"
       id="rect3206-56-58"
       width="16"
       height="16"
       x="176"
       y="940.36218" />
    <rect
       style="fill:#ff6600;fill-opacity:1;stroke:none"
       id="rect3206-56-869"
       width="16"
       height="16"
       x="176"
       y="924.36218" />
    <rect
       style="fill:#ff6600;fill-opacity:1;stroke:none"
       id="rect3206-56-846"
       width="16"
       height="16"
       x="160"
       y="924.36218" />
    <rect
       style="fill:#ff6600;fill-opacity:1;stroke:none"
       id="rect3206-56-579"
       width="16"
       height="16"
       x="144"
       y="924.36218" />
    <rect
       style="fill:#ff6600;fill-opacity:1;stroke:none"
       id="rect3206-56-586"
       width="16"
       height="16"
       x="128"
       y="924.36218" />
    <rect
       style="fill:#ff6600;fill-opacity:1;stroke:none"
       id="rect3206-56-863"
       width="16"
       height="16"
       x="112"
       y="924.36218" />
    <rect
       style="fill:#ff6600;fill-opacity:1;stroke:none"
       id="rect3206-56-48"
       width="16"
       height="16"
       x="96"
       y="924.36218" />
    <rect
       style="fill:#ff6600;fill-opacity:1;stroke:none"
       id="rect3206-56-297"
       width="16"
       height="16"
       x="80"
       y="924.36218" />
    <rect
       style="fill:#ff6600;fill-opacity:1;stroke:none"
       id="rect3206-56-204"
       width="16"
       height="16"
       x="64"
       y="924.36218" />
    <rect
       style="fill:#ff6600;fill-opacity:1;stroke:none"
       id="rect3206-56-3028"
       width="16"
       height="16"
       x="64"
       y="940.36218" />
    <rect
       style="fill:#ff6600;fill-opacity:1;stroke:none"
       id="rect3206-56-006"
       width="16"
       height="16"
       x="64"
       y="956.36218" />
    <rect
       style="fill:#ff6600;fill-opacity:1;stroke:none"
       id="rect3206-56-994"
       width="16"
       height="16"
       x="144"
       y="876.36218" />
    <rect
       style="fill:#ff6600;fill-opacity:1;stroke:none"
       id="rect3206-56-89"
       width="16"
       height="16"
       x="176"
       y="876.36218" />
    <rect
       style="fill:#ff6600;fill-opacity:1;stroke:none"
       id="rect3206-56-965"
       width="16"
       height="16"
       x="160"
       y="876.36218" />
    <rect
       style="fill:#4ecae9;fill-opacity:1;stroke:none"
       width="32.071808"
       height="20.70857"
       ry="2.7455945"
       rx="3.3597281"
       id="rect4899"
       y="878.92914"
       x="439.15561" />
    <path
       style="font-size:medium;font-style:normal;font-variant:normal;font-weight:normal;font-stretch:normal;text-indent:0;text-align:start;text-decoration:none;line-height:normal;letter-spacing:normal;word-spacing:normal;text-transform:none;direction:ltr;block-progression:tb;writing-mode:lr-tb;text-anchor:start;color:#000000;fill:#4ecae9;fill-opacity:1;stroke:none;stroke-width:2;marker:none;visibility:visible;display:inline;overflow:visible;enable-background:accumulate;font-family:Bitstream Vera Sans;-inkscape-font-specification:Bitstream Vera Sans"
       id="path41043-9"
       d="m 294.80069,1017.2655 c -16.06439,0.4912 -27.90777,-9.3096 -27.90777,-30.08053 l 0,-116.65968 c -2.5365,-18.53499 14.50519,-32.24147 27.90777,-32.30276 l 0,-0.24703 1.83932,0 193.74054,0 c 14.59492,0.21665 29.52425,7.1076 27.69498,32.54979 0,0 0,104.25115 0,117.15294 -0.55827,17.72237 -10.18773,29.50627 -24.62947,29.58727 l -14.15609,-10.5331 5.41703,-23.084 c 6.85056,-0.41996 6.64019,-5.30074 7.01013,-19.5615 0,-13.56262 0,-58.05637 0,-67.29114 0,-9.23477 -1.95,-23.88256 -29.27481,-23.88256 -27.99688,0 -110.8662,-1.01591 -135.00654,-1.44147 -21.22403,-0.37415 -28.85558,9.32598 -28.85558,34.05147 0,24.72549 0,40.37955 0,54.6514 0,14.27185 8.22754,22.09985 17.82989,22.13984 10.41967,0.0434 17.82989,0.43112 17.82989,0.43112 l 0,34.51994 z"
       inkscape:connector-curvature="0"
       sodipodi:nodetypes="ccccccccccccczsszzsccc" />
    <rect
       style="fill:#4ecae9;fill-opacity:1;stroke:none"
       width="32.071808"
       height="20.70857"
       ry="2.7455945"
       rx="3.3597281"
       id="rect4899-2"
       y="878.92078"
       x="402.94101" />
    <path
       style="font-size:medium;font-style:normal;font-variant:normal;font-weight:normal;font-stretch:normal;text-indent:0;text-align:start;text-decoration:none;line-height:normal;letter-spacing:normal;word-spacing:normal;text-transform:none;direction:ltr;block-progression:tb;writing-mode:lr-tb;text-anchor:start;baseline-shift:baseline;color:#000000;fill:#4ecae9;fill-opacity:1;stroke:none;stroke-width:1.99999988;marker:none;visibility:visible;display:inline;overflow:visible;enable-background:accumulate;font-family:Sans;-inkscape-font-specification:Sans"
       d="m 310.42783,945.42189 0,110.56261 c -0.12643,7.369 5.44974,14.3994 12.5,15.7812 0.47986,0.016 0.95764,0.016 1.4375,0 0.47986,0.016 0.95764,0.016 1.4375,0 l 83.65625,0 c 4.06129,0.097 8.1124,-1.5364 11.03125,-4.4375 l 33.40548,-32.6196 c 0,0 2.39659,-7.3166 -4.17898,-5.6532 -6.57558,1.6634 -17.19577,10.1038 -27.61646,10.9101 -10.4207,0.8063 -8.59558,0.8579 -13.2689,0.6327 -4.67333,-0.2252 -8.62239,-0.4263 -8.62239,-0.4263 l -59,0 0,-70.25001 4.9052,0.0625 c 0,0 0.98151,-16.73832 6.03362,-24.5625 -3.22744,0 -10.93882,0 -10.93882,0 z m 81.73371,0.0313 c -12.18241,6.53004 -13.95169,25.09375 -13.95169,25.09375 0,0 32.09686,0.1876 45.35706,0.375 3.31504,0.0469 8.84429,-0.20206 12.49174,-0.20206 0,3.43112 -0.004,23.59601 -0.004,28.59833 4.39846,-1.17856 6.50046,-4.67242 8.69104,-8.47735 4.57305,-7.94319 4.30161,-16.27622 4.30161,-19.54392 0,-14.44341 -9.73057,-25.8125 -9.73057,-25.8125 0,0 -30.15696,-0.0313 -39.78152,-0.0313 z m 10.54754,47.34375 0,13.25606 c 0,0 8.50833,2.8349 16.05281,2.1782 7.54448,-0.6566 17.2566,-6.5491 17.2566,-6.5491 l 2.31195,-8.88516 z"
       id="path1234-3"
       inkscape:connector-curvature="0"
       sodipodi:nodetypes="ccccccccszscccccccccsccscccccczccc" />
    <g
       style="fill:#4ecae9;fill-opacity:1;stroke:none"
       inkscape:label="actions"
       transform="matrix(11.500581,0,0,11.615595,-2084.9226,-6622.7513)"
       id="layer12-0">
      <path
         inkscape:connector-curvature="0"
         d="m 146.50761,646.99554 c -3.02886,0 -5.51073,2.47905 -5.51073,5.50447 0,3.02541 2.48187,5.50446 5.51073,5.50446 3.02885,0 5.51072,-2.47905 5.51072,-5.50446 0,-3.02542 -2.48187,-5.50447 -5.51072,-5.50447 z m 0,2.00893 c 1.94735,0 3.49951,1.55039 3.49951,3.49554 0,1.94514 -1.55216,3.49553 -3.49951,3.49553 -1.94736,0 -3.49952,-1.55039 -3.49952,-3.49553 0,-1.94515 1.55216,-3.49554 3.49952,-3.49554 z"
         id="path27918"
         style="font-size:medium;font-style:normal;font-variant:normal;font-weight:normal;font-stretch:normal;text-indent:0;text-align:start;text-decoration:none;line-height:normal;letter-spacing:normal;word-spacing:normal;text-transform:none;direction:ltr;block-progression:tb;writing-mode:lr-tb;text-anchor:start;baseline-shift:baseline;color:#000000;fill:#4ecae9;fill-opacity:1;stroke:none;stroke-width:1.55467153;marker:none;visibility:visible;display:inline;overflow:visible;enable-background:new;font-family:Sans;-inkscape-font-specification:Sans" />
      <path
         inkscape:connector-curvature="0"
         d="m 149.8125,655 a 1.0001,1.0001 0 0 0 -0.5,1.71875 l 4,4 a 1.0054782,1.0054782 0 1 0 1.40625,-1.4375 l -4,-4 A 1.0001,1.0001 0 0 0 149.8125,655 z"
         id="path27941"
         style="font-size:medium;font-style:normal;font-variant:normal;font-weight:normal;font-stretch:normal;text-indent:0;text-align:start;text-decoration:none;line-height:normal;letter-spacing:normal;word-spacing:normal;text-transform:none;direction:ltr;block-progression:tb;writing-mode:lr-tb;text-anchor:start;baseline-shift:baseline;color:#000000;fill:#4ecae9;fill-opacity:1;stroke:none;stroke-width:2;marker:none;visibility:visible;display:inline;overflow:visible;enable-background:new;font-family:Sans;-inkscape-font-specification:Sans" />
    </g>
    <rect
       style="fill:#aa0000;fill-opacity:1;stroke:none"
       id="rect3206-56-28-8"
       width="16"
       height="16"
       x="144"
       y="876.36218" />
    <rect
       style="fill:#aa0000;fill-opacity:1;stroke:none"
       id="rect3206-56-28-5"
       width="16"
       height="16"
       x="160"
       y="876.36218" />
    <rect
       style="fill:#aa0000;fill-opacity:1;stroke:none"
       id="rect3206-56-28-0"
       width="16"
       height="16"
       x="192"
       y="908.36218" />
    <rect
       style="fill:#aa0000;fill-opacity:1;stroke:none"
       id="rect3206-56-28-6"
       width="16"
       height="16"
       x="208"
       y="924.36218" />
    <rect
       style="fill:#aa0000;fill-opacity:1;stroke:none"
       id="rect3206-56-28-04"
       width="16"
       height="16"
       x="192"
       y="956.36218" />
    <rect
       style="fill:#aa0000;fill-opacity:1;stroke:none"
       id="rect3206-56-28-67"
       width="16"
       height="16"
       x="176"
       y="972.36218" />
    <rect
       style="fill:#aa0000;fill-opacity:1;stroke:none"
       id="rect3206-56-28-2"
       width="16"
       height="16"
       x="160"
       y="988.36218" />
    <rect
       style="fill:#aa0000;fill-opacity:1;stroke:none"
       id="rect3206-56-28-16"
       width="16"
       height="16"
       x="144"
       y="988.36218" />
    <rect
       style="fill:#aa0000;fill-opacity:1;stroke:none"
       id="rect3206-56-28-23"
       width="16"
       height="16"
       x="128"
       y="972.36218" />
    <rect
       style="fill:#aa0000;fill-opacity:1;stroke:none"
       id="rect3206-56-28-66"
       width="16"
       height="16"
       x="112"
       y="956.36218" />
    <rect
       style="fill:#aa0000;fill-opacity:1;stroke:none"
       id="rect3206-56-28-668"
       width="16"
       height="16"
       x="96"
       y="940.36218" />
    <rect
       style="fill:#aa0000;fill-opacity:1;stroke:none"
       id="rect3206-56-28-69"
       width="16"
       height="16"
       x="96"
       y="924.36218" />
    <rect
       style="fill:#aa0000;fill-opacity:1;stroke:none"
       id="rect3206-56-28-9"
       width="16"
       height="16"
       x="112"
       y="908.36218" />
    <rect
       style="fill:#aa0000;fill-opacity:1;stroke:none"
       id="rect3206-56-28-4"
       width="16"
       height="16"
       x="128"
       y="892.36218" />
    <rect
       style="fill:#aa0000;fill-opacity:1;stroke:none"
       id="rect3206-56-28-80"
       width="16"
       height="16"
       x="208"
       y="940.36218" />
    <rect
       style="fill:#aa0000;fill-opacity:1;stroke:none"
       id="rect3206-56-28-98"
       width="16"
       height="16"
       x="176"
       y="892.36218" />
    <rect
       style="fill:#aa0000;fill-opacity:1;stroke:none"
       id="rect3206-56-28-985"
       width="16"
       height="16"
       x="192"
       y="972.36218" />
    <rect
       style="fill:#aa0000;fill-opacity:1;stroke:none"
       id="rect3206-56-28-660"
       width="16"
       height="16"
       x="192"
       y="988.36218" />
    <rect
       style="fill:#aa0000;fill-opacity:1;stroke:none"
       id="rect3206-56-28-84"
       width="16"
       height="16"
       x="208"
       y="988.36218" />
    <rect
       style="fill:#aa0000;fill-opacity:1;stroke:none"
       id="rect3206-56-28-49"
       width="16"
       height="16"
       x="208"
       y="1004.3622" />
    <rect
       style="fill:#aa0000;fill-opacity:1;stroke:none"
       id="rect3206-56-28-808"
       width="16"
       height="16"
       x="224"
       y="1004.3622" />
    <rect
       style="fill:#aa0000;fill-opacity:1;stroke:none"
       id="rect3206-56-28-1"
       width="16"
       height="16"
       x="224"
       y="1020.3622" />
    <rect
       style="fill:#aa0000;fill-opacity:1;stroke:none"
       id="rect3206-56-28-3"
       width="16"
       height="16"
       x="240"
       y="1020.3622" />
    <rect
       style="fill:#aa0000;fill-opacity:1;stroke:none"
       id="rect3206-56-28-43"
       width="16"
       height="16"
       x="240"
       y="1036.3622" />
  </g>
  <g
     inkscape:groupmode="layer"
     id="layer2"
     inkscape:label="Capa 2" />
</svg>
