<?xml version="1.0" encoding="UTF-8" standalone="no"?>
<!-- Created with Inkscape (http://www.inkscape.org/) -->

<svg
   xmlns:dc="http://purl.org/dc/elements/1.1/"
   xmlns:cc="http://creativecommons.org/ns#"
   xmlns:rdf="http://www.w3.org/1999/02/22-rdf-syntax-ns#"
   xmlns:svg="http://www.w3.org/2000/svg"
   xmlns="http://www.w3.org/2000/svg"
   xmlns:sodipodi="http://sodipodi.sourceforge.net/DTD/sodipodi-0.dtd"
   xmlns:inkscape="http://www.inkscape.org/namespaces/inkscape"
   width="256"
   height="256"
   viewBox="0 0 256 256"
   id="svg2"
   version="1.1"
   inkscape:version="0.91 r13725"
   sodipodi:docname="document-export.svg">
  <defs
     id="defs4" />
  <sodipodi:namedview
     id="base"
     pagecolor="#ffffff"
     bordercolor="#666666"
     borderopacity="1.0"
     inkscape:pageopacity="0.0"
     inkscape:pageshadow="2"
     inkscape:zoom="2.1318349"
     inkscape:cx="164.24323"
     inkscape:cy="121.22715"
     inkscape:document-units="px"
     inkscape:current-layer="layer1"
     showgrid="true"
     units="px"
     inkscape:window-width="1914"
     inkscape:window-height="1030"
     inkscape:window-x="0"
     inkscape:window-y="26"
     inkscape:window-maximized="1"
     inkscape:snap-bbox="true"
     inkscape:bbox-paths="true"
     inkscape:bbox-nodes="true"
     inkscape:snap-grids="true"
     inkscape:snap-global="true">
    <inkscape:grid
       type="xygrid"
       id="grid4136"
       spacingx="2"
       spacingy="2"
       empspacing="8"
       dotted="false"
       visible="true"
       enabled="true"
       snapvisiblegridlinesonly="true" />
  </sodipodi:namedview>
  <metadata
     id="metadata7">
    <rdf:RDF>
      <cc:Work
         rdf:about="">
        <dc:format>image/svg+xml</dc:format>
        <dc:type
           rdf:resource="http://purl.org/dc/dcmitype/StillImage" />
        <dc:title />
      </cc:Work>
    </rdf:RDF>
  </metadata>
  <g
     inkscape:label="Capa 1"
     inkscape:groupmode="layer"
     id="layer1"
     transform="translate(0,-796.36216)">
    <path
       style="fill:#aad400;fill-opacity:1;stroke:none"
       d="M 96 32 L 96 48 L 96 64 L 96 80 L 96 96 L 96 112 L 96 128 L 96 144 L 96 160 L 96 176 L 96 192 L 96 208 L 96 224 L 112 224 L 128 224 L 144 224 L 160 224 L 176 224 L 192 224 L 208 224 L 224 224 L 240 224 L 240 208 L 240 192 L 240 176 L 240 160 L 240 144 L 240 128 L 240 112 L 240 96 L 240 80 L 240 64 L 224 64 L 224 48 L 208 48 L 208 32 L 192 32 L 176 32 L 160 32 L 144 32 L 128 32 L 112 32 L 96 32 z "
       transform="translate(0,796.36216)"
       id="rect3137" />
    <path
       style="fill:#aad400;fill-opacity:1;stroke:none"
       d="M 32 80 L 32 96 L 16 96 L 0 96 L 0 112 L 0 128 L 0 144 L 16 144 L 32 144 L 32 160 L 48 160 L 48 144 L 64 144 L 64 128 L 80 128 L 80 112 L 64 112 L 64 96 L 48 96 L 48 80 L 32 80 z "
       transform="translate(0,796.36216)"
       id="rect3399" />
  </g>
  <g
     inkscape:groupmode="layer"
     id="layer2"
     inkscape:label="Capa 2" />
</svg>
