<?xml version="1.0" encoding="UTF-8" standalone="no"?>
<!-- Created with Inkscape (http://www.inkscape.org/) -->

<svg
   xmlns:dc="http://purl.org/dc/elements/1.1/"
   xmlns:cc="http://creativecommons.org/ns#"
   xmlns:rdf="http://www.w3.org/1999/02/22-rdf-syntax-ns#"
   xmlns:svg="http://www.w3.org/2000/svg"
   xmlns="http://www.w3.org/2000/svg"
   xmlns:sodipodi="http://sodipodi.sourceforge.net/DTD/sodipodi-0.dtd"
   xmlns:inkscape="http://www.inkscape.org/namespaces/inkscape"
   width="256"
   height="256"
   viewBox="0 0 256 256"
   id="svg2"
   version="1.1"
   inkscape:version="0.91 r13725"
   sodipodi:docname="document-saveas.svg">
  <defs
     id="defs4" />
  <sodipodi:namedview
     id="base"
     pagecolor="#ffffff"
     bordercolor="#666666"
     borderopacity="1.0"
     inkscape:pageopacity="0.0"
     inkscape:pageshadow="2"
     inkscape:zoom="1.7828359"
     inkscape:cx="105.65342"
     inkscape:cy="127.17967"
     inkscape:document-units="px"
     inkscape:current-layer="layer1"
     showgrid="true"
     units="px"
     inkscape:window-width="1914"
     inkscape:window-height="1030"
     inkscape:window-x="0"
     inkscape:window-y="26"
     inkscape:window-maximized="1"
     inkscape:snap-bbox="true"
     inkscape:bbox-paths="true"
     inkscape:bbox-nodes="true"
     inkscape:snap-grids="true"
     inkscape:snap-global="true">
    <inkscape:grid
       type="xygrid"
       id="grid4136"
       spacingx="2"
       spacingy="2"
       empspacing="8"
       dotted="false"
       visible="true"
       enabled="true"
       snapvisiblegridlinesonly="true" />
  </sodipodi:namedview>
  <metadata
     id="metadata7">
    <rdf:RDF>
      <cc:Work
         rdf:about="">
        <dc:format>image/svg+xml</dc:format>
        <dc:type
           rdf:resource="http://purl.org/dc/dcmitype/StillImage" />
        <dc:title />
      </cc:Work>
    </rdf:RDF>
  </metadata>
  <g
     inkscape:label="Capa 1"
     inkscape:groupmode="layer"
     id="layer1"
     transform="translate(0,-796.36216)">
    <rect
       style="fill:#ff6600;fill-opacity:1;stroke:none"
       id="rect3206-56-0"
       width="16"
       height="16"
       x="-496"
       y="764.36218" />
    <rect
       style="fill:#ff6600;fill-opacity:1;stroke:none"
       id="rect3206-56-6"
       width="16"
       height="16"
       x="-480"
       y="764.36218" />
    <rect
       style="fill:#ff6600;fill-opacity:1;stroke:none"
       id="rect3206-56-2"
       width="16"
       height="16"
       x="-464"
       y="764.36218" />
    <rect
       style="fill:#ff6600;fill-opacity:1;stroke:none"
       id="rect3206-56-5"
       width="16"
       height="16"
       x="-448"
       y="764.36218" />
    <rect
       style="fill:#ff6600;fill-opacity:1;stroke:none"
       id="rect3206-56-3"
       width="16"
       height="16"
       x="-432"
       y="764.36218" />
    <rect
       style="fill:#ff6600;fill-opacity:1;stroke:none"
       id="rect3206-56-66"
       width="16"
       height="16"
       x="-416"
       y="764.36218" />
    <rect
       style="fill:#ff6600;fill-opacity:1;stroke:none"
       id="rect3206-56-1"
       width="16"
       height="16"
       x="-400"
       y="764.36218" />
    <rect
       style="fill:#ff6600;fill-opacity:1;stroke:none"
       id="rect3206-56-56"
       width="16"
       height="16"
       x="-384"
       y="764.36218" />
    <rect
       style="fill:#ff6600;fill-opacity:1;stroke:none"
       id="rect3206-56-57"
       width="16"
       height="16"
       x="-368"
       y="764.36218" />
    <rect
       style="fill:#ff6600;fill-opacity:1;stroke:none"
       id="rect3206-56-24"
       width="16"
       height="16"
       x="-352"
       y="764.36218" />
    <rect
       style="fill:#ff6600;fill-opacity:1;stroke:none"
       id="rect3206-56-9"
       width="16"
       height="16"
       x="-336"
       y="764.36218" />
    <rect
       style="fill:#ff6600;fill-opacity:1;stroke:none"
       id="rect3206-56-23"
       width="16"
       height="16"
       x="-320"
       y="764.36218" />
    <rect
       style="fill:#ff6600;fill-opacity:1;stroke:none"
       id="rect3206-56-20"
       width="16"
       height="16"
       x="-304"
       y="780.36218" />
    <rect
       style="fill:#ff6600;fill-opacity:1;stroke:none"
       id="rect3206-56-50"
       width="16"
       height="16"
       x="-304"
       y="796.36218" />
    <rect
       style="fill:#ff6600;fill-opacity:1;stroke:none"
       id="rect3206-56-4"
       width="16"
       height="16"
       x="-304"
       y="812.36218" />
    <rect
       style="fill:#ff6600;fill-opacity:1;stroke:none"
       id="rect3206-56-29"
       width="16"
       height="16"
       x="-304"
       y="828.36218" />
    <rect
       style="fill:#ff6600;fill-opacity:1;stroke:none"
       id="rect3206-56-30"
       width="16"
       height="16"
       x="-304"
       y="844.36218" />
    <rect
       style="fill:#ff6600;fill-opacity:1;stroke:none"
       id="rect3206-56-99"
       width="16"
       height="16"
       x="-304"
       y="860.36218" />
    <rect
       style="fill:#ff6600;fill-opacity:1;stroke:none"
       id="rect3206-56-33"
       width="16"
       height="16"
       x="-304"
       y="876.36218" />
    <rect
       style="fill:#ff6600;fill-opacity:1;stroke:none"
       id="rect3206-56-7"
       width="16"
       height="16"
       x="-304"
       y="892.36218" />
    <rect
       style="fill:#ff6600;fill-opacity:1;stroke:none"
       id="rect3206-56-41"
       width="16"
       height="16"
       x="-320"
       y="908.36218" />
    <rect
       style="fill:#ff6600;fill-opacity:1;stroke:none"
       id="rect3206-56-91"
       width="16"
       height="16"
       x="-320"
       y="892.36218" />
    <rect
       style="fill:#ff6600;fill-opacity:1;stroke:none"
       id="rect3206-56-45"
       width="16"
       height="16"
       x="-320"
       y="876.36218" />
    <rect
       style="fill:#ff6600;fill-opacity:1;stroke:none"
       id="rect3206-56-8"
       width="16"
       height="16"
       x="-320"
       y="860.36218" />
    <rect
       style="fill:#ff6600;fill-opacity:1;stroke:none"
       id="rect3206-56-73"
       width="16"
       height="16"
       x="-320"
       y="828.36218" />
    <rect
       style="fill:#ff6600;fill-opacity:1;stroke:none"
       id="rect3206-56-63"
       width="16"
       height="16"
       x="-320"
       y="844.36218" />
    <rect
       style="fill:#ff6600;fill-opacity:1;stroke:none"
       id="rect3206-56-00"
       width="16"
       height="16"
       x="-320"
       y="812.36218" />
    <rect
       style="fill:#ff6600;fill-opacity:1;stroke:none"
       id="rect3206-56-914"
       width="16"
       height="16"
       x="-320"
       y="796.36218" />
    <rect
       style="fill:#ff6600;fill-opacity:1;stroke:none"
       id="rect3206-56-235"
       width="16"
       height="16"
       x="-320"
       y="780.36218" />
    <rect
       style="fill:#ff6600;fill-opacity:1;stroke:none"
       id="rect3206-56-93"
       width="16"
       height="16"
       x="-336"
       y="780.36218" />
    <rect
       style="fill:#ff6600;fill-opacity:1;stroke:none"
       id="rect3206-56-934"
       width="16"
       height="16"
       x="-352"
       y="780.36218" />
    <rect
       style="fill:#ff6600;fill-opacity:1;stroke:none"
       id="rect3206-56-43"
       width="16"
       height="16"
       x="-368"
       y="780.36218" />
    <rect
       style="fill:#ff6600;fill-opacity:1;stroke:none"
       id="rect3206-56-337"
       width="16"
       height="16"
       x="-384"
       y="780.36218" />
    <rect
       style="fill:#ff6600;fill-opacity:1;stroke:none"
       id="rect3206-56-62"
       width="16"
       height="16"
       x="-400"
       y="780.36218" />
    <rect
       style="fill:#ff6600;fill-opacity:1;stroke:none"
       id="rect3206-56-302"
       width="16"
       height="16"
       x="-416"
       y="780.36218" />
    <rect
       style="fill:#ff6600;fill-opacity:1;stroke:none"
       id="rect3206-56-669"
       width="16"
       height="16"
       x="-432"
       y="780.36218" />
    <rect
       style="fill:#ff6600;fill-opacity:1;stroke:none"
       id="rect3206-56-64"
       width="16"
       height="16"
       x="-448"
       y="780.36218" />
    <rect
       style="fill:#ff6600;fill-opacity:1;stroke:none"
       id="rect3206-56-42"
       width="16"
       height="16"
       x="-464"
       y="780.36218" />
    <rect
       style="fill:#ff6600;fill-opacity:1;stroke:none"
       id="rect3206-56-96"
       width="16"
       height="16"
       x="-480"
       y="780.36218" />
    <rect
       style="fill:#ff6600;fill-opacity:1;stroke:none"
       id="rect3206-56-28"
       width="16"
       height="16"
       x="-496"
       y="780.36218" />
    <rect
       style="fill:#ff6600;fill-opacity:1;stroke:none"
       id="rect3206-56-77"
       width="16"
       height="16"
       x="-512"
       y="780.36218" />
    <rect
       style="fill:#ff6600;fill-opacity:1;stroke:none"
       id="rect3206-56-22"
       width="16"
       height="16"
       x="-512"
       y="796.36218" />
    <rect
       style="fill:#ff6600;fill-opacity:1;stroke:none"
       id="rect3206-56-417"
       width="16"
       height="16"
       x="-496"
       y="796.36218" />
    <rect
       style="fill:#ff6600;fill-opacity:1;stroke:none"
       id="rect3206-56-55"
       width="16"
       height="16"
       x="-496"
       y="812.36218" />
    <rect
       style="fill:#ff6600;fill-opacity:1;stroke:none"
       id="rect3206-56-19"
       width="16"
       height="16"
       x="-512"
       y="812.36218" />
    <rect
       style="fill:#ff6600;fill-opacity:1;stroke:none"
       id="rect3206-56-04"
       width="16"
       height="16"
       x="-512"
       y="828.36218" />
    <rect
       style="fill:#ff6600;fill-opacity:1;stroke:none"
       id="rect3206-56-49"
       width="16"
       height="16"
       x="-496"
       y="828.36218" />
    <rect
       style="fill:#ff6600;fill-opacity:1;stroke:none"
       id="rect3206-56-37"
       width="16"
       height="16"
       x="-496"
       y="844.36218" />
    <rect
       style="fill:#ff6600;fill-opacity:1;stroke:none"
       id="rect3206-56-231"
       width="16"
       height="16"
       x="-512"
       y="844.36218" />
    <rect
       style="fill:#ff6600;fill-opacity:1;stroke:none"
       id="rect3206-56-192"
       width="16"
       height="16"
       x="-512"
       y="860.36218" />
    <rect
       style="fill:#ff6600;fill-opacity:1;stroke:none"
       id="rect3206-56-75"
       width="16"
       height="16"
       x="-496"
       y="860.36218" />
    <rect
       style="fill:#ff6600;fill-opacity:1;stroke:none"
       id="rect3206-56-92"
       width="16"
       height="16"
       x="-496"
       y="876.36218" />
    <rect
       style="fill:#ff6600;fill-opacity:1;stroke:none"
       id="rect3206-56-454"
       width="16"
       height="16"
       x="-512"
       y="876.36218" />
    <rect
       style="fill:#ff6600;fill-opacity:1;stroke:none"
       id="rect3206-56-433"
       width="16"
       height="16"
       x="-512"
       y="892.36218" />
    <rect
       style="fill:#ff6600;fill-opacity:1;stroke:none"
       id="rect3206-56-87"
       width="16"
       height="16"
       x="-496"
       y="892.36218" />
    <rect
       style="fill:#ff6600;fill-opacity:1;stroke:none"
       id="rect3206-56-925"
       width="16"
       height="16"
       x="-496"
       y="908.36218" />
    <rect
       style="fill:#ff6600;fill-opacity:1;stroke:none"
       id="rect3206-56-69"
       width="16"
       height="16"
       x="-480"
       y="908.36218" />
    <rect
       style="fill:#ff6600;fill-opacity:1;stroke:none"
       id="rect3206-56-67"
       width="16"
       height="16"
       x="-464"
       y="908.36218" />
    <rect
       style="fill:#ff6600;fill-opacity:1;stroke:none"
       id="rect3206-56-912"
       width="16"
       height="16"
       x="-464"
       y="924.36218" />
    <rect
       style="fill:#ff6600;fill-opacity:1;stroke:none"
       id="rect3206-56-961"
       width="16"
       height="16"
       x="-480"
       y="924.36218" />
    <rect
       style="fill:#ff6600;fill-opacity:1;stroke:none"
       id="rect3206-56-39"
       width="16"
       height="16"
       x="-480"
       y="940.36218" />
    <rect
       style="fill:#ff6600;fill-opacity:1;stroke:none"
       id="rect3206-56-46"
       width="16"
       height="16"
       x="-464"
       y="940.36218" />
    <rect
       style="fill:#ff6600;fill-opacity:1;stroke:none"
       id="rect3206-56-86"
       width="16"
       height="16"
       x="-464"
       y="956.36218" />
    <rect
       style="fill:#ff6600;fill-opacity:1;stroke:none"
       id="rect3206-56-44"
       width="16"
       height="16"
       x="-448"
       y="956.36218" />
    <rect
       style="fill:#ff6600;fill-opacity:1;stroke:none"
       id="rect3206-56-560"
       width="16"
       height="16"
       x="-432"
       y="956.36218" />
    <rect
       style="fill:#ff6600;fill-opacity:1;stroke:none"
       id="rect3206-56-32"
       width="16"
       height="16"
       x="-416"
       y="956.36218" />
    <rect
       style="fill:#ff6600;fill-opacity:1;stroke:none"
       id="rect3206-56-78"
       width="16"
       height="16"
       x="-400"
       y="956.36218" />
    <rect
       style="fill:#ff6600;fill-opacity:1;stroke:none"
       id="rect3206-56-85"
       width="16"
       height="16"
       x="-448"
       y="940.36218" />
    <rect
       style="fill:#ff6600;fill-opacity:1;stroke:none"
       id="rect3206-56-59"
       width="16"
       height="16"
       x="-432"
       y="940.36218" />
    <rect
       style="fill:#ff6600;fill-opacity:1;stroke:none"
       id="rect3206-56-90"
       width="16"
       height="16"
       x="-416"
       y="940.36218" />
    <rect
       style="fill:#ff6600;fill-opacity:1;stroke:none"
       id="rect3206-56-68"
       width="16"
       height="16"
       x="-400"
       y="940.36218" />
    <rect
       style="fill:#ff6600;fill-opacity:1;stroke:none"
       id="rect3206-56-938"
       width="16"
       height="16"
       x="-384"
       y="940.36218" />
    <rect
       style="fill:#ff6600;fill-opacity:1;stroke:none"
       id="rect3206-56-25"
       width="16"
       height="16"
       x="-368"
       y="940.36218" />
    <rect
       style="fill:#ff6600;fill-opacity:1;stroke:none"
       id="rect3206-56-98"
       width="16"
       height="16"
       x="-384"
       y="924.36218" />
    <rect
       style="fill:#ff6600;fill-opacity:1;stroke:none"
       id="rect3206-56-84"
       width="16"
       height="16"
       x="-368"
       y="924.36218" />
    <rect
       style="fill:#ff6600;fill-opacity:1;stroke:none"
       id="rect3206-56-72"
       width="16"
       height="16"
       x="-384"
       y="908.36218" />
    <rect
       style="fill:#ff6600;fill-opacity:1;stroke:none"
       id="rect3206-56-17"
       width="16"
       height="16"
       x="-368"
       y="908.36218" />
    <rect
       style="fill:#ff6600;fill-opacity:1;stroke:none"
       id="rect3206-56-97"
       width="16"
       height="16"
       x="-352"
       y="924.36218" />
    <rect
       style="fill:#ff6600;fill-opacity:1;stroke:none"
       id="rect3206-56-36"
       width="16"
       height="16"
       x="-336"
       y="908.36218" />
    <rect
       style="fill:#ff6600;fill-opacity:1;stroke:none"
       id="rect3206-56-561"
       width="16"
       height="16"
       x="-352"
       y="908.36218" />
    <rect
       style="fill:#ff6600;fill-opacity:1;stroke:none"
       id="rect3206-56-905"
       width="16"
       height="16"
       x="-352"
       y="892.36218" />
    <rect
       style="fill:#ff6600;fill-opacity:1;stroke:none"
       id="rect3206-56-58"
       width="16"
       height="16"
       x="-352"
       y="876.36218" />
    <rect
       style="fill:#ff6600;fill-opacity:1;stroke:none"
       id="rect3206-56-869"
       width="16"
       height="16"
       x="-352"
       y="860.36218" />
    <rect
       style="fill:#ff6600;fill-opacity:1;stroke:none"
       id="rect3206-56-846"
       width="16"
       height="16"
       x="-368"
       y="860.36218" />
    <rect
       style="fill:#ff6600;fill-opacity:1;stroke:none"
       id="rect3206-56-579"
       width="16"
       height="16"
       x="-384"
       y="860.36218" />
    <rect
       style="fill:#ff6600;fill-opacity:1;stroke:none"
       id="rect3206-56-586"
       width="16"
       height="16"
       x="-400"
       y="860.36218" />
    <rect
       style="fill:#ff6600;fill-opacity:1;stroke:none"
       id="rect3206-56-863"
       width="16"
       height="16"
       x="-416"
       y="860.36218" />
    <rect
       style="fill:#ff6600;fill-opacity:1;stroke:none"
       id="rect3206-56-48"
       width="16"
       height="16"
       x="-432"
       y="860.36218" />
    <rect
       style="fill:#ff6600;fill-opacity:1;stroke:none"
       id="rect3206-56-297"
       width="16"
       height="16"
       x="-448"
       y="860.36218" />
    <rect
       style="fill:#ff6600;fill-opacity:1;stroke:none"
       id="rect3206-56-204"
       width="16"
       height="16"
       x="-464"
       y="860.36218" />
    <rect
       style="fill:#ff6600;fill-opacity:1;stroke:none"
       id="rect3206-56-3028"
       width="16"
       height="16"
       x="-464"
       y="876.36218" />
    <rect
       style="fill:#ff6600;fill-opacity:1;stroke:none"
       id="rect3206-56-006"
       width="16"
       height="16"
       x="-464"
       y="892.36218" />
    <rect
       style="fill:#ff6600;fill-opacity:1;stroke:none"
       id="rect3206-56-994"
       width="16"
       height="16"
       x="-384"
       y="812.36218" />
    <rect
       style="fill:#ff6600;fill-opacity:1;stroke:none"
       id="rect3206-56-89"
       width="16"
       height="16"
       x="-352"
       y="812.36218" />
    <rect
       style="fill:#ff6600;fill-opacity:1;stroke:none"
       id="rect3206-56-965"
       width="16"
       height="16"
       x="-368"
       y="812.36218" />
    <rect
       style="fill:#aa0000;fill-opacity:1;stroke:none"
       id="rect3206-56-28-8"
       width="16"
       height="16"
       x="-384"
       y="812.36218" />
    <rect
       style="fill:#aa0000;fill-opacity:1;stroke:none"
       id="rect3206-56-28-5"
       width="16"
       height="16"
       x="-368"
       y="812.36218" />
    <rect
       style="fill:#aa0000;fill-opacity:1;stroke:none"
       id="rect3206-56-28-0"
       width="16"
       height="16"
       x="-336"
       y="844.36218" />
    <rect
       style="fill:#aa0000;fill-opacity:1;stroke:none"
       id="rect3206-56-28-6"
       width="16"
       height="16"
       x="-320"
       y="860.36218" />
    <rect
       style="fill:#aa0000;fill-opacity:1;stroke:none"
       id="rect3206-56-28-04"
       width="16"
       height="16"
       x="-336"
       y="892.36218" />
    <rect
       style="fill:#aa0000;fill-opacity:1;stroke:none"
       id="rect3206-56-28-67"
       width="16"
       height="16"
       x="-352"
       y="908.36218" />
    <rect
       style="fill:#aa0000;fill-opacity:1;stroke:none"
       id="rect3206-56-28-2"
       width="16"
       height="16"
       x="-368"
       y="924.36218" />
    <rect
       style="fill:#aa0000;fill-opacity:1;stroke:none"
       id="rect3206-56-28-16"
       width="16"
       height="16"
       x="-384"
       y="924.36218" />
    <rect
       style="fill:#aa0000;fill-opacity:1;stroke:none"
       id="rect3206-56-28-23"
       width="16"
       height="16"
       x="-400"
       y="908.36218" />
    <rect
       style="fill:#aa0000;fill-opacity:1;stroke:none"
       id="rect3206-56-28-66"
       width="16"
       height="16"
       x="-416"
       y="892.36218" />
    <rect
       style="fill:#aa0000;fill-opacity:1;stroke:none"
       id="rect3206-56-28-668"
       width="16"
       height="16"
       x="-432"
       y="876.36218" />
    <rect
       style="fill:#aa0000;fill-opacity:1;stroke:none"
       id="rect3206-56-28-69"
       width="16"
       height="16"
       x="-432"
       y="860.36218" />
    <rect
       style="fill:#aa0000;fill-opacity:1;stroke:none"
       id="rect3206-56-28-9"
       width="16"
       height="16"
       x="-416"
       y="844.36218" />
    <rect
       style="fill:#aa0000;fill-opacity:1;stroke:none"
       id="rect3206-56-28-4"
       width="16"
       height="16"
       x="-400"
       y="828.36218" />
    <rect
       style="fill:#aa0000;fill-opacity:1;stroke:none"
       id="rect3206-56-28-80"
       width="16"
       height="16"
       x="-320"
       y="876.36218" />
    <rect
       style="fill:#aa0000;fill-opacity:1;stroke:none"
       id="rect3206-56-28-98"
       width="16"
       height="16"
       x="-352"
       y="828.36218" />
    <rect
       style="fill:#aa0000;fill-opacity:1;stroke:none"
       id="rect3206-56-28-985"
       width="16"
       height="16"
       x="-336"
       y="908.36218" />
    <rect
       style="fill:#aa0000;fill-opacity:1;stroke:none"
       id="rect3206-56-28-660"
       width="16"
       height="16"
       x="-336"
       y="924.36218" />
    <rect
       style="fill:#aa0000;fill-opacity:1;stroke:none"
       id="rect3206-56-28-84"
       width="16"
       height="16"
       x="-320"
       y="924.36218" />
    <rect
       style="fill:#aa0000;fill-opacity:1;stroke:none"
       id="rect3206-56-28-49"
       width="16"
       height="16"
       x="-320"
       y="940.36218" />
    <rect
       style="fill:#aa0000;fill-opacity:1;stroke:none"
       id="rect3206-56-28-808"
       width="16"
       height="16"
       x="-304"
       y="940.36218" />
    <rect
       style="fill:#aa0000;fill-opacity:1;stroke:none"
       id="rect3206-56-28-1"
       width="16"
       height="16"
       x="-304"
       y="956.36218" />
    <rect
       style="fill:#aa0000;fill-opacity:1;stroke:none"
       id="rect3206-56-28-3"
       width="16"
       height="16"
       x="-288"
       y="956.36218" />
    <rect
       style="fill:#aa0000;fill-opacity:1;stroke:none"
       id="rect3206-56-28-43"
       width="16"
       height="16"
       x="-288"
       y="972.36218" />
    <path
       style="fill:#aad400;fill-opacity:1;stroke:none"
       d="M 48 0 L 48 16 L 48 32 L 48 48 L 64 48 L 80 48 L 96 48 L 112 48 L 112 64 L 112 80 L 112 96 L 96 96 L 96 80 L 80 80 L 80 64 L 64 64 L 48 64 L 48 80 L 48 96 L 64 96 L 64 112 L 80 112 L 80 128 L 96 128 L 96 144 L 112 144 L 112 160 L 128 160 L 144 160 L 144 144 L 160 144 L 160 128 L 176 128 L 176 112 L 192 112 L 192 96 L 208 96 L 208 80 L 208 64 L 192 64 L 176 64 L 176 80 L 160 80 L 160 96 L 144 96 L 144 80 L 144 64 L 144 48 L 160 48 L 176 48 L 192 48 L 208 48 L 208 32 L 208 16 L 208 0 L 192 0 L 176 0 L 160 0 L 144 0 L 128 0 L 112 0 L 96 0 L 80 0 L 64 0 L 48 0 z M 176 128 L 176 144 L 192 144 L 192 128 L 176 128 z M 192 144 L 192 160 L 208 160 L 208 144 L 192 144 z M 208 160 L 208 176 L 192 176 L 176 176 L 160 176 L 144 176 L 128 176 L 112 176 L 96 176 L 80 176 L 64 176 L 48 176 L 48 160 L 32 160 L 32 176 L 32 192 L 32 208 L 32 224 L 32 240 L 48 240 L 64 240 L 80 240 L 96 240 L 112 240 L 128 240 L 144 240 L 160 240 L 176 240 L 192 240 L 208 240 L 224 240 L 224 224 L 224 208 L 224 192 L 224 176 L 224 160 L 208 160 z M 48 160 L 64 160 L 64 144 L 48 144 L 48 160 z M 64 144 L 80 144 L 80 128 L 64 128 L 64 144 z M 64 16 L 80 16 L 96 16 L 112 16 L 128 16 L 144 16 L 160 16 L 176 16 L 192 16 L 192 32 L 176 32 L 160 32 L 144 32 L 128 32 L 112 32 L 96 32 L 80 32 L 64 32 L 64 16 z M 96 208 L 112 208 L 128 208 L 144 208 L 160 208 L 160 224 L 144 224 L 128 224 L 112 224 L 96 224 L 96 208 z "
       transform="translate(0,796.36216)"
       id="rect3331" />
  </g>
  <g
     inkscape:groupmode="layer"
     id="layer2"
     inkscape:label="Capa 2" />
</svg>
