<?xml version="1.0" encoding="UTF-8" standalone="no"?>
<!-- Created with Inkscape (http://www.inkscape.org/) -->

<svg
   xmlns:dc="http://purl.org/dc/elements/1.1/"
   xmlns:cc="http://creativecommons.org/ns#"
   xmlns:rdf="http://www.w3.org/1999/02/22-rdf-syntax-ns#"
   xmlns:svg="http://www.w3.org/2000/svg"
   xmlns="http://www.w3.org/2000/svg"
   xmlns:sodipodi="http://sodipodi.sourceforge.net/DTD/sodipodi-0.dtd"
   xmlns:inkscape="http://www.inkscape.org/namespaces/inkscape"
   id="svg7384"
   sodipodi:docname="document-open-recent-symbolic.svg"
   version="1.1"
   inkscape:version="0.91 r13725"
   height="256"
   width="256">
  <metadata
     id="metadata90">
    <rdf:RDF>
      <cc:Work
         rdf:about="">
        <dc:format>image/svg+xml</dc:format>
        <dc:type
           rdf:resource="http://purl.org/dc/dcmitype/StillImage" />
        <dc:title>Gnome Symbolic Icon Theme</dc:title>
      </cc:Work>
    </rdf:RDF>
  </metadata>
  <sodipodi:namedview
     inkscape:cy="21.970102"
     pagecolor="#555753"
     borderopacity="1"
     showborder="true"
     inkscape:bbox-paths="false"
     guidetolerance="10"
     inkscape:window-width="1914"
     showguides="true"
     inkscape:object-nodes="true"
     inkscape:snap-bbox="true"
     inkscape:pageshadow="2"
     inkscape:guide-bbox="true"
     inkscape:snap-nodes="false"
     bordercolor="#666666"
     objecttolerance="10"
     id="namedview88"
     showgrid="false"
     inkscape:window-maximized="1"
     inkscape:window-x="0"
     inkscape:snap-global="true"
     inkscape:window-y="26"
     gridtolerance="10"
     inkscape:window-height="1030"
     inkscape:snap-to-guides="true"
     inkscape:current-layer="layer12"
     inkscape:zoom="1.4142136"
     inkscape:cx="-5.882272"
     inkscape:snap-grids="true"
     inkscape:pageopacity="0">
    <inkscape:grid
       spacingx="1px"
       spacingy="1px"
       id="grid4866"
       empspacing="2"
       enabled="true"
       type="xygrid"
       snapvisiblegridlinesonly="true"
       visible="true" />
  </sodipodi:namedview>
  <title
     id="title9167">Gnome Symbolic Icon Theme</title>
  <defs
     id="defs7386" />
  <g
     inkscape:label="status"
     transform="translate(-40,-448)"
     inkscape:groupmode="layer"
     id="layer9"
     style="display:inline" />
  <g
     inkscape:label="devices"
     transform="translate(-40,-448)"
     inkscape:groupmode="layer"
     id="layer10" />
  <g
     inkscape:label="apps"
     transform="translate(-40,-448)"
     inkscape:groupmode="layer"
     id="layer11" />
  <g
     inkscape:label="actions"
     transform="translate(-40,-448)"
     inkscape:groupmode="layer"
     id="layer12">
    <path
       style="fill:#aad400;fill-opacity:1;stroke:none"
       d="M 96.693359 15.306641 L 96.693359 31.306641 L 64.693359 31.306641 L 64.693359 47.306641 L 32.693359 47.306641 L 32.693359 79.306641 L 16.693359 79.306641 L 16.693359 111.30664 L 0.69335938 111.30664 L 0.69335938 143.30664 L 16.693359 143.30664 L 16.693359 175.30664 L 32.693359 175.30664 L 32.693359 207.30664 L 64.693359 207.30664 L 64.693359 223.30664 L 96.693359 223.30664 L 96.693359 239.30664 L 128.69336 239.30664 L 160.69336 239.30664 L 160.69336 223.30664 L 192.69336 223.30664 L 192.69336 207.30664 L 224.69336 207.30664 L 224.69336 175.30664 L 240.69336 175.30664 L 240.69336 143.30664 L 256.69336 143.30664 L 256.69336 111.30664 L 240.69336 111.30664 L 240.69336 79.306641 L 224.69336 79.306641 L 224.69336 47.306641 L 192.69336 47.306641 L 192.69336 31.306641 L 160.69336 31.306641 L 160.69336 15.306641 L 128.69336 15.306641 L 96.693359 15.306641 z M 96.693359 47.306641 L 128.69336 47.306641 L 160.69336 47.306641 L 160.69336 63.306641 L 192.69336 63.306641 L 192.69336 79.306641 L 208.69336 79.306641 L 208.69336 111.30664 L 208.69336 127.30664 L 208.69336 143.30664 L 208.69336 159.30664 L 192.69336 159.30664 L 192.69336 175.30664 L 176.69336 175.30664 L 176.69336 191.30664 L 160.69336 191.30664 L 144.69336 191.30664 L 144.69336 207.30664 L 128.69336 207.30664 L 96.693359 207.30664 L 96.693359 191.30664 L 64.693359 191.30664 L 64.693359 175.30664 L 48.693359 175.30664 L 48.693359 143.30664 L 48.693359 127.30664 L 48.693359 111.30664 L 48.693359 95.306641 L 64.693359 95.306641 L 64.693359 79.306641 L 64.693359 63.306641 L 96.693359 63.306641 L 96.693359 47.306641 z "
       transform="translate(40,448)"
       id="rect3082" />
    <path
       style="fill:#aad400;fill-opacity:1;stroke:none"
       d="M 160.69336 79.306641 L 160.69336 95.306641 L 176.69336 95.306641 L 176.69336 79.306641 L 160.69336 79.306641 z M 160.69336 95.306641 L 144.69336 95.306641 L 144.69336 111.30664 L 160.69336 111.30664 L 160.69336 95.306641 z M 144.69336 111.30664 L 128.69336 111.30664 L 128.69336 127.30664 L 144.69336 127.30664 L 144.69336 111.30664 z M 128.69336 127.30664 L 112.69336 127.30664 L 112.69336 143.30664 L 128.69336 143.30664 L 128.69336 127.30664 z M 112.69336 127.30664 L 112.69336 111.30664 L 96.693359 111.30664 L 96.693359 127.30664 L 112.69336 127.30664 z M 96.693359 111.30664 L 96.693359 95.306641 L 80.693359 95.306641 L 80.693359 111.30664 L 96.693359 111.30664 z "
       transform="translate(40,448)"
       id="rect3065" />
  </g>
  <g
     inkscape:label="places"
     transform="translate(-40,-448)"
     inkscape:groupmode="layer"
     id="layer13" />
  <g
     inkscape:label="mimetypes"
     transform="translate(-40,-448)"
     inkscape:groupmode="layer"
     id="layer14" />
  <g
     inkscape:label="emblems"
     transform="translate(-40,-448)"
     inkscape:groupmode="layer"
     id="layer15"
     style="display:inline" />
  <g
     inkscape:label="categories"
     transform="translate(-40,-448)"
     inkscape:groupmode="layer"
     id="g4953"
     style="display:inline" />
</svg>
