<?xml version="1.0" encoding="UTF-8" standalone="no"?>
<!-- Created with Inkscape (http://www.inkscape.org/) -->

<svg
   xmlns:dc="http://purl.org/dc/elements/1.1/"
   xmlns:cc="http://creativecommons.org/ns#"
   xmlns:rdf="http://www.w3.org/1999/02/22-rdf-syntax-ns#"
   xmlns:svg="http://www.w3.org/2000/svg"
   xmlns="http://www.w3.org/2000/svg"
   xmlns:sodipodi="http://sodipodi.sourceforge.net/DTD/sodipodi-0.dtd"
   xmlns:inkscape="http://www.inkscape.org/namespaces/inkscape"
   width="256"
   height="256"
   viewBox="0 0 256 256"
   id="svg2"
   version="1.1"
   inkscape:version="0.48.5 r10040"
   sodipodi:docname="down.svg">
  <defs
     id="defs4" />
  <sodipodi:namedview
     id="base"
     pagecolor="#ffffff"
     bordercolor="#666666"
     borderopacity="1.0"
     inkscape:pageopacity="0.0"
     inkscape:pageshadow="2"
     inkscape:zoom="2.0522148"
     inkscape:cx="150.0601"
     inkscape:cy="90.585058"
     inkscape:document-units="px"
     inkscape:current-layer="layer1"
     showgrid="true"
     units="px"
     inkscape:window-width="1914"
     inkscape:window-height="1031"
     inkscape:window-x="0"
     inkscape:window-y="25"
     inkscape:window-maximized="1"
     inkscape:snap-bbox="true"
     inkscape:bbox-paths="true"
     inkscape:bbox-nodes="true"
     inkscape:snap-grids="true"
     inkscape:snap-global="true">
    <inkscape:grid
       type="xygrid"
       id="grid4136"
       spacingx="2"
       spacingy="2"
       empspacing="8"
       dotted="false"
       visible="true"
       enabled="true"
       snapvisiblegridlinesonly="true" />
  </sodipodi:namedview>
  <metadata
     id="metadata7">
    <rdf:RDF>
      <cc:Work
         rdf:about="">
        <dc:format>image/svg+xml</dc:format>
        <dc:type
           rdf:resource="http://purl.org/dc/dcmitype/StillImage" />
        <dc:title></dc:title>
      </cc:Work>
    </rdf:RDF>
  </metadata>
  <g
     inkscape:label="Capa 1"
     inkscape:groupmode="layer"
     id="layer1"
     transform="translate(0,-796.36216)">
    <rect
       style="fill:#d45500;fill-opacity:1;stroke:none"
       id="rect3121-4-38-2-1"
       width="16"
       height="16"
       x="-32"
       y="844.36218"
       transform="scale(-1,1)" />
    <rect
       style="fill:#d45500;fill-opacity:1;stroke:none"
       id="rect3121-4-38-2-4"
       width="16"
       height="16"
       x="-48"
       y="844.36218"
       transform="scale(-1,1)" />
    <rect
       style="fill:#d45500;fill-opacity:1;stroke:none"
       id="rect3121-4-38-2-8"
       width="16"
       height="16"
       x="-32"
       y="860.36218"
       transform="scale(-1,1)" />
    <rect
       style="fill:#d45500;fill-opacity:1;stroke:none"
       id="rect3121-4-38-2-14"
       width="16"
       height="16"
       x="-48"
       y="876.36218"
       transform="scale(-1,1)" />
    <rect
       style="fill:#d45500;fill-opacity:1;stroke:none"
       id="rect3121-4-38-2-0"
       width="16"
       height="16"
       x="-64"
       y="876.36218"
       transform="scale(-1,1)" />
    <rect
       style="fill:#d45500;fill-opacity:1;stroke:none"
       id="rect3121-4-38-2-00"
       width="16"
       height="16"
       x="-64"
       y="860.36218"
       transform="scale(-1,1)" />
    <rect
       style="fill:#d45500;fill-opacity:1;stroke:none"
       id="rect3121-4-38-2-19"
       width="16"
       height="16"
       x="-48"
       y="860.36218"
       transform="scale(-1,1)" />
    <rect
       style="fill:#d45500;fill-opacity:1;stroke:none"
       id="rect3121-4-38-2-6"
       width="16"
       height="16"
       x="-64"
       y="892.36218"
       transform="scale(-1,1)" />
    <rect
       style="fill:#d45500;fill-opacity:1;stroke:none"
       id="rect3121-4-38-2-2"
       width="16"
       height="16"
       x="-80"
       y="908.36218"
       transform="scale(-1,1)" />
    <rect
       style="fill:#d45500;fill-opacity:1;stroke:none"
       id="rect3121-4-38-2-08"
       width="16"
       height="16"
       x="-96"
       y="924.36218"
       transform="scale(-1,1)" />
    <rect
       style="fill:#d45500;fill-opacity:1;stroke:none"
       id="rect3121-4-38-2-47"
       width="16"
       height="16"
       x="-112"
       y="940.36218"
       transform="scale(-1,1)" />
    <rect
       style="fill:#d45500;fill-opacity:1;stroke:none"
       id="rect3121-4-38-2-88"
       width="16"
       height="16"
       x="-128"
       y="956.36218"
       transform="scale(-1,1)" />
    <rect
       style="fill:#d45500;fill-opacity:1;stroke:none"
       id="rect3121-4-38-2-9"
       width="16"
       height="16"
       x="-128"
       y="972.36218"
       transform="scale(-1,1)" />
    <rect
       style="fill:#d45500;fill-opacity:1;stroke:none"
       id="rect3121-4-38-2-61"
       width="16"
       height="16"
       x="-144"
       y="972.36218"
       transform="scale(-1,1)" />
    <rect
       style="fill:#d45500;fill-opacity:1;stroke:none"
       id="rect3121-4-38-2-48"
       width="16"
       height="16"
       x="-144"
       y="956.36218"
       transform="scale(-1,1)" />
    <rect
       style="fill:#d45500;fill-opacity:1;stroke:none"
       id="rect3121-4-38-2-5"
       width="16"
       height="16"
       x="-160"
       y="940.36218"
       transform="scale(-1,1)" />
    <rect
       style="fill:#d45500;fill-opacity:1;stroke:none"
       id="rect3121-4-38-2-12"
       width="16"
       height="16"
       x="-176"
       y="924.36218"
       transform="scale(-1,1)" />
    <rect
       style="fill:#d45500;fill-opacity:1;stroke:none"
       id="rect3121-4-38-2-3"
       width="16"
       height="16"
       x="-192"
       y="908.36218"
       transform="scale(-1,1)" />
    <rect
       style="fill:#d45500;fill-opacity:1;stroke:none"
       id="rect3121-4-38-2-46"
       width="16"
       height="16"
       x="-208"
       y="892.36218"
       transform="scale(-1,1)" />
    <rect
       style="fill:#d45500;fill-opacity:1;stroke:none"
       id="rect3121-4-38-2-881"
       width="16"
       height="16"
       x="-224"
       y="876.36218"
       transform="scale(-1,1)" />
    <rect
       style="fill:#d45500;fill-opacity:1;stroke:none"
       id="rect3121-4-38-2-81"
       width="16"
       height="16"
       x="-240"
       y="860.36218"
       transform="scale(-1,1)" />
    <rect
       style="fill:#d45500;fill-opacity:1;stroke:none"
       id="rect3121-4-38-2-7"
       width="16"
       height="16"
       x="-240"
       y="844.36218"
       transform="scale(-1,1)" />
    <rect
       style="fill:#d45500;fill-opacity:1;stroke:none"
       id="rect3121-4-38-2-84"
       width="16"
       height="16"
       x="-224"
       y="844.36218"
       transform="scale(-1,1)" />
    <rect
       style="fill:#d45500;fill-opacity:1;stroke:none"
       id="rect3121-4-38-2-79"
       width="16"
       height="16"
       x="-208"
       y="860.36218"
       transform="scale(-1,1)" />
    <rect
       style="fill:#d45500;fill-opacity:1;stroke:none"
       id="rect3121-4-38-2-35"
       width="16"
       height="16"
       x="-192"
       y="876.36218"
       transform="scale(-1,1)" />
    <rect
       style="fill:#d45500;fill-opacity:1;stroke:none"
       id="rect3121-4-38-2-57"
       width="16"
       height="16"
       x="-176"
       y="892.36218"
       transform="scale(-1,1)" />
    <rect
       style="fill:#d45500;fill-opacity:1;stroke:none"
       id="rect3121-4-38-2-53"
       width="16"
       height="16"
       x="-160"
       y="908.36218"
       transform="scale(-1,1)" />
    <rect
       style="fill:#d45500;fill-opacity:1;stroke:none"
       id="rect3121-4-38-2-44"
       width="16"
       height="16"
       x="-144"
       y="924.36218"
       transform="scale(-1,1)" />
    <rect
       style="fill:#d45500;fill-opacity:1;stroke:none"
       id="rect3121-4-38-2-32"
       width="16"
       height="16"
       x="-144"
       y="940.36218"
       transform="scale(-1,1)" />
    <rect
       style="fill:#d45500;fill-opacity:1;stroke:none"
       id="rect3121-4-38-2-39"
       width="16"
       height="16"
       x="-128"
       y="940.36218"
       transform="scale(-1,1)" />
    <rect
       style="fill:#d45500;fill-opacity:1;stroke:none"
       id="rect3121-4-38-2-67"
       width="16"
       height="16"
       x="-128"
       y="924.36218"
       transform="scale(-1,1)" />
    <rect
       style="fill:#d45500;fill-opacity:1;stroke:none"
       id="rect3121-4-38-2-01"
       width="16"
       height="16"
       x="-112"
       y="924.36218"
       transform="scale(-1,1)" />
    <rect
       style="fill:#d45500;fill-opacity:1;stroke:none"
       id="rect3121-4-38-2-04"
       width="16"
       height="16"
       x="-112"
       y="908.36218"
       transform="scale(-1,1)" />
    <rect
       style="fill:#d45500;fill-opacity:1;stroke:none"
       id="rect3121-4-38-2-671"
       width="16"
       height="16"
       x="-96"
       y="908.36218"
       transform="scale(-1,1)" />
    <rect
       style="fill:#d45500;fill-opacity:1;stroke:none"
       id="rect3121-4-38-2-45"
       width="16"
       height="16"
       x="-96"
       y="892.36218"
       transform="scale(-1,1)" />
    <rect
       style="fill:#d45500;fill-opacity:1;stroke:none"
       id="rect3121-4-38-2-43"
       width="16"
       height="16"
       x="-80"
       y="892.36218"
       transform="scale(-1,1)" />
    <rect
       style="fill:#d45500;fill-opacity:1;stroke:none"
       id="rect3121-4-38-2-613"
       width="16"
       height="16"
       x="-80"
       y="876.36218"
       transform="scale(-1,1)" />
    <rect
       style="fill:#d45500;fill-opacity:1;stroke:none"
       id="rect3121-4-38-2-28"
       width="16"
       height="16"
       x="-176"
       y="924.36218"
       transform="scale(-1,1)" />
    <rect
       style="fill:#d45500;fill-opacity:1;stroke:none"
       id="rect3121-4-38-2-55"
       width="16"
       height="16"
       x="-176"
       y="908.36218"
       transform="scale(-1,1)" />
    <rect
       style="fill:#d45500;fill-opacity:1;stroke:none"
       id="rect3121-4-38-2-30"
       width="16"
       height="16"
       x="-192"
       y="892.36218"
       transform="scale(-1,1)" />
    <rect
       style="fill:#d45500;fill-opacity:1;stroke:none"
       id="rect3121-4-38-2-50"
       width="16"
       height="16"
       x="-224"
       y="876.36218"
       transform="scale(-1,1)" />
    <rect
       style="fill:#d45500;fill-opacity:1;stroke:none"
       id="rect3121-4-38-2-59"
       width="16"
       height="16"
       x="-224"
       y="860.36218"
       transform="scale(-1,1)" />
    <rect
       style="fill:#d45500;fill-opacity:1;stroke:none"
       id="rect3121-4-38-2-51"
       width="16"
       height="16"
       x="-208"
       y="876.36218"
       transform="scale(-1,1)" />
    <rect
       style="fill:#d45500;fill-opacity:1;stroke:none"
       id="rect3121-4-38-2-300"
       width="16"
       height="16"
       x="-160"
       y="924.36218"
       transform="scale(-1,1)" />
    <rect
       style="fill:#d45500;fill-opacity:1;stroke:none"
       id="rect3121-4-38-2-90"
       width="16"
       height="16"
       x="-112"
       y="956.36218"
       transform="scale(-1,1)" />
    <rect
       style="fill:#d45500;fill-opacity:1;stroke:none"
       id="rect3121-4-38-2-22"
       width="16"
       height="16"
       x="-96"
       y="940.36218"
       transform="scale(-1,1)" />
    <rect
       style="fill:#d45500;fill-opacity:1;stroke:none"
       id="rect3121-4-38-2-27"
       width="16"
       height="16"
       x="-80"
       y="924.36218"
       transform="scale(-1,1)" />
    <rect
       style="fill:#d45500;fill-opacity:1;stroke:none"
       id="rect3121-4-38-2-99"
       width="16"
       height="16"
       x="-64"
       y="908.36218"
       transform="scale(-1,1)" />
    <rect
       style="fill:#d45500;fill-opacity:1;stroke:none"
       id="rect3121-4-38-2-05"
       width="16"
       height="16"
       x="-48"
       y="892.36218"
       transform="scale(-1,1)" />
    <rect
       style="fill:#d45500;fill-opacity:1;stroke:none"
       id="rect3121-4-38-2-64"
       width="16"
       height="16"
       x="-32"
       y="876.36218"
       transform="scale(-1,1)" />
    <rect
       style="fill:#d45500;fill-opacity:1;stroke:none"
       id="rect3121-4-38-2-03"
       width="16"
       height="16"
       x="-160"
       y="956.36218"
       transform="scale(-1,1)" />
    <rect
       style="fill:#d45500;fill-opacity:1;stroke:none"
       id="rect3121-4-38-2-54"
       width="16"
       height="16"
       x="-176"
       y="940.36218"
       transform="scale(-1,1)" />
    <rect
       style="fill:#d45500;fill-opacity:1;stroke:none"
       id="rect3121-4-38-2-559"
       width="16"
       height="16"
       x="-192"
       y="924.36218"
       transform="scale(-1,1)" />
    <rect
       style="fill:#d45500;fill-opacity:1;stroke:none"
       id="rect3121-4-38-2-301"
       width="16"
       height="16"
       x="-208"
       y="908.36218"
       transform="scale(-1,1)" />
    <rect
       style="fill:#d45500;fill-opacity:1;stroke:none"
       id="rect3121-4-38-2-02"
       width="16"
       height="16"
       x="-224"
       y="892.36218"
       transform="scale(-1,1)" />
    <rect
       style="fill:#d45500;fill-opacity:1;stroke:none"
       id="rect3121-4-38-2-89"
       width="16"
       height="16"
       x="-240"
       y="876.36218"
       transform="scale(-1,1)" />
    <rect
       style="fill:#d45500;fill-opacity:1;stroke:none"
       id="rect3121-4-38-2-992"
       width="16"
       height="16"
       x="-64"
       y="844.36218"
       transform="scale(-1,1)" />
    <rect
       style="fill:#d45500;fill-opacity:1;stroke:none"
       id="rect3121-4-38-2-024"
       width="16"
       height="16"
       x="-208"
       y="844.36218"
       transform="scale(-1,1)" />
  </g>
  <g
     inkscape:groupmode="layer"
     id="layer2"
     inkscape:label="Capa 2" />
</svg>
