<?xml version="1.0" encoding="UTF-8" standalone="no"?>
<!-- Created with Inkscape (http://www.inkscape.org/) -->

<svg
   xmlns:dc="http://purl.org/dc/elements/1.1/"
   xmlns:cc="http://creativecommons.org/ns#"
   xmlns:rdf="http://www.w3.org/1999/02/22-rdf-syntax-ns#"
   xmlns:svg="http://www.w3.org/2000/svg"
   xmlns="http://www.w3.org/2000/svg"
   xmlns:sodipodi="http://sodipodi.sourceforge.net/DTD/sodipodi-0.dtd"
   xmlns:inkscape="http://www.inkscape.org/namespaces/inkscape"
   width="256"
   height="256"
   viewBox="0 0 256 256"
   id="svg2"
   version="1.1"
   inkscape:version="0.91 r13725"
   sodipodi:docname="edit-delete.svg">
  <defs
     id="defs4" />
  <sodipodi:namedview
     id="base"
     pagecolor="#ffffff"
     bordercolor="#666666"
     borderopacity="1.0"
     inkscape:pageopacity="0.0"
     inkscape:pageshadow="2"
     inkscape:zoom="2.0870934"
     inkscape:cx="-1.0764679"
     inkscape:cy="129.01508"
     inkscape:document-units="px"
     inkscape:current-layer="layer1"
     showgrid="true"
     units="px"
     inkscape:window-width="1914"
     inkscape:window-height="1030"
     inkscape:window-x="0"
     inkscape:window-y="26"
     inkscape:window-maximized="1"
     inkscape:snap-bbox="true"
     inkscape:bbox-paths="true"
     inkscape:bbox-nodes="true"
     inkscape:snap-grids="true">
    <inkscape:grid
       type="xygrid"
       id="grid4136"
       spacingx="2"
       spacingy="2"
       empspacing="8"
       dotted="false" />
  </sodipodi:namedview>
  <metadata
     id="metadata7">
    <rdf:RDF>
      <cc:Work
         rdf:about="">
        <dc:format>image/svg+xml</dc:format>
        <dc:type
           rdf:resource="http://purl.org/dc/dcmitype/StillImage" />
        <dc:title />
      </cc:Work>
    </rdf:RDF>
  </metadata>
  <g
     inkscape:label="Capa 1"
     inkscape:groupmode="layer"
     id="layer1"
     transform="translate(0,-796.36216)">
    <path
       style="fill:#aad400;fill-opacity:1;stroke:none"
       d="M 96 16 L 96 32 L 64 32 L 64 48 L 32 48 L 32 80 L 16 80 L 16 112 L 0 112 L 0 144 L 16 144 L 16 176 L 32 176 L 32 208 L 64 208 L 64 224 L 96 224 L 96 240 L 128 240 L 160 240 L 160 224 L 192 224 L 192 208 L 224 208 L 224 176 L 240 176 L 240 144 L 256 144 L 256 112 L 240 112 L 240 80 L 224 80 L 224 48 L 192 48 L 192 32 L 160 32 L 160 16 L 128 16 L 96 16 z M 80 80 L 96 80 L 96 96 L 112 96 L 112 112 L 128 112 L 144 112 L 144 96 L 160 96 L 160 80 L 176 80 L 176 96 L 160 96 L 160 112 L 144 112 L 144 128 L 144 144 L 160 144 L 160 160 L 176 160 L 176 176 L 160 176 L 160 160 L 144 160 L 144 144 L 128 144 L 112 144 L 112 160 L 96 160 L 96 176 L 80 176 L 80 160 L 96 160 L 96 144 L 112 144 L 112 128 L 112 112 L 96 112 L 96 96 L 80 96 L 80 80 z "
       transform="translate(0,796.36216)"
       id="rect3082" />
  </g>
  <g
     inkscape:groupmode="layer"
     id="layer2"
     inkscape:label="Capa 2" />
</svg>
