<?xml version="1.0" encoding="UTF-8" standalone="no"?>
<!-- Created with Inkscape (http://www.inkscape.org/) -->

<svg
   xmlns:dc="http://purl.org/dc/elements/1.1/"
   xmlns:cc="http://creativecommons.org/ns#"
   xmlns:rdf="http://www.w3.org/1999/02/22-rdf-syntax-ns#"
   xmlns:svg="http://www.w3.org/2000/svg"
   xmlns="http://www.w3.org/2000/svg"
   xmlns:sodipodi="http://sodipodi.sourceforge.net/DTD/sodipodi-0.dtd"
   xmlns:inkscape="http://www.inkscape.org/namespaces/inkscape"
   width="256"
   height="256"
   viewBox="0 0 256 256"
   id="svg2"
   version="1.1"
   inkscape:version="0.48.5 r10040"
   sodipodi:docname="edit-cut.svg">
  <defs
     id="defs4" />
  <sodipodi:namedview
     id="base"
     pagecolor="#ffffff"
     bordercolor="#666666"
     borderopacity="1.0"
     inkscape:pageopacity="0.0"
     inkscape:pageshadow="2"
     inkscape:zoom="2.0717926"
     inkscape:cx="218.47023"
     inkscape:cy="109.23512"
     inkscape:document-units="px"
     inkscape:current-layer="layer1"
     showgrid="true"
     units="px"
     inkscape:window-width="1914"
     inkscape:window-height="1031"
     inkscape:window-x="0"
     inkscape:window-y="25"
     inkscape:window-maximized="1"
     inkscape:snap-bbox="true"
     inkscape:bbox-paths="true"
     inkscape:bbox-nodes="true"
     inkscape:snap-grids="true"
     inkscape:snap-global="true"
     showguides="true">
    <inkscape:grid
       type="xygrid"
       id="grid4136"
       spacingx="2"
       spacingy="2"
       empspacing="8"
       dotted="false"
       visible="true"
       enabled="true"
       snapvisiblegridlinesonly="true" />
  </sodipodi:namedview>
  <metadata
     id="metadata7">
    <rdf:RDF>
      <cc:Work
         rdf:about="">
        <dc:format>image/svg+xml</dc:format>
        <dc:type
           rdf:resource="http://purl.org/dc/dcmitype/StillImage" />
        <dc:title></dc:title>
      </cc:Work>
    </rdf:RDF>
  </metadata>
  <g
     inkscape:label="Capa 1"
     inkscape:groupmode="layer"
     id="layer1"
     transform="translate(0,-796.36216)">
    <rect
       style="fill:#d45500;fill-opacity:1;stroke:none"
       id="rect3121-4-38-2-57-9-3"
       width="16"
       height="16"
       x="-64"
       y="1020.3622"
       transform="scale(-1,1)" />
    <rect
       style="fill:#d45500;fill-opacity:1;stroke:none"
       id="rect3121-4-38-2-57-9-8"
       width="16"
       height="16"
       x="-80"
       y="1020.3622"
       transform="scale(-1,1)" />
    <rect
       style="fill:#d45500;fill-opacity:1;stroke:none"
       id="rect3121-4-38-2-57-9-5"
       width="16"
       height="16"
       x="-48"
       y="1020.3622"
       transform="scale(-1,1)" />
    <rect
       style="fill:#d45500;fill-opacity:1;stroke:none"
       id="rect3121-4-38-2-57-9-7"
       width="16"
       height="16"
       x="-32"
       y="1004.3622"
       transform="scale(-1,1)" />
    <rect
       style="fill:#d45500;fill-opacity:1;stroke:none"
       id="rect3121-4-38-2-57-9-2"
       width="16"
       height="16.000023"
       x="-32"
       y="988.36218"
       transform="scale(-1,1)" />
    <rect
       style="fill:#d45500;fill-opacity:1;stroke:none"
       id="rect3121-4-38-2-57-9-23"
       width="16"
       height="16"
       x="-32"
       y="972.36218"
       transform="scale(-1,1)" />
    <rect
       style="fill:#d45500;fill-opacity:1;stroke:none"
       id="rect3121-4-38-2-57-9-30"
       width="16"
       height="16"
       x="-32"
       y="956.36218"
       transform="scale(-1,1)" />
    <rect
       style="fill:#d45500;fill-opacity:1;stroke:none"
       id="rect3121-4-38-2-57-9-9"
       width="16"
       height="16"
       x="-48"
       y="940.36218"
       transform="scale(-1,1)" />
    <rect
       style="fill:#d45500;fill-opacity:1;stroke:none"
       id="rect3121-4-38-2-57-9-14"
       width="16"
       height="16"
       x="-48"
       y="988.36218"
       transform="scale(-1,1)" />
    <rect
       style="fill:#d45500;fill-opacity:1;stroke:none"
       id="rect3121-4-38-2-57-9-87"
       width="16"
       height="16"
       x="-48"
       y="1004.3622"
       transform="scale(-1,1)" />
    <rect
       style="fill:#d45500;fill-opacity:1;stroke:none"
       id="rect3121-4-38-2-57-9-73"
       width="16"
       height="16"
       x="-48"
       y="972.36218"
       transform="scale(-1,1)" />
    <rect
       style="fill:#d45500;fill-opacity:1;stroke:none"
       id="rect3121-4-38-2-57-9-6"
       width="16"
       height="16"
       x="-48"
       y="956.36218"
       transform="scale(-1,1)" />
    <rect
       style="fill:#d45500;fill-opacity:1;stroke:none"
       id="rect3121-4-38-2-57-9-79"
       width="16"
       height="16"
       x="-80"
       y="940.36218"
       transform="scale(-1,1)" />
    <rect
       style="fill:#d45500;fill-opacity:1;stroke:none"
       id="rect3121-4-38-2-57-9-0"
       width="16"
       height="16"
       x="-64"
       y="940.36218"
       transform="scale(-1,1)" />
    <rect
       style="fill:#d45500;fill-opacity:1;stroke:none"
       id="rect3121-4-38-2-57-9-33"
       width="16"
       height="16"
       x="-96"
       y="940.36218"
       transform="scale(-1,1)" />
    <rect
       style="fill:#d45500;fill-opacity:1;stroke:none"
       id="rect3121-4-38-2-57-9-84"
       width="16"
       height="16"
       x="-112"
       y="956.36218"
       transform="scale(-1,1)" />
    <rect
       style="fill:#d45500;fill-opacity:1;stroke:none"
       id="rect3121-4-38-2-57-9-07"
       width="16"
       height="16"
       x="-112"
       y="988.36218"
       transform="scale(-1,1)" />
    <rect
       style="fill:#d45500;fill-opacity:1;stroke:none"
       id="rect3121-4-38-2-57-9-93"
       width="16"
       height="16"
       x="-112"
       y="972.36218"
       transform="scale(-1,1)" />
    <rect
       style="fill:#d45500;fill-opacity:1;stroke:none"
       id="rect3121-4-38-2-57-9-02"
       width="16"
       height="16"
       x="-112"
       y="1004.3622"
       transform="scale(-1,1)" />
    <rect
       style="fill:#d45500;fill-opacity:1;stroke:none"
       id="rect3121-4-38-2-57-9-31"
       width="16"
       height="16"
       x="-96"
       y="1020.3622"
       transform="scale(-1,1)" />
    <rect
       style="fill:#d45500;fill-opacity:1;stroke:none"
       id="rect3121-4-38-2-57-9-54"
       width="16"
       height="16"
       x="-64"
       y="1004.3622"
       transform="scale(-1,1)" />
    <rect
       style="fill:#d45500;fill-opacity:1;stroke:none"
       id="rect3121-4-38-2-57-9-72"
       width="16"
       height="16"
       x="-80"
       y="1004.3622"
       transform="scale(-1,1)" />
    <rect
       style="fill:#d45500;fill-opacity:1;stroke:none"
       id="rect3121-4-38-2-57-9-05"
       width="16"
       height="16"
       x="-96"
       y="1004.3622"
       transform="scale(-1,1)" />
    <rect
       style="fill:#d45500;fill-opacity:1;stroke:none"
       id="rect3121-4-38-2-57-9-333"
       width="16"
       height="16"
       x="-96"
       y="988.36218"
       transform="scale(-1,1)" />
    <rect
       style="fill:#d45500;fill-opacity:1;stroke:none"
       id="rect3121-4-38-2-57-9-37"
       width="16"
       height="16"
       x="-96"
       y="972.36218"
       transform="scale(-1,1)" />
    <rect
       style="fill:#d45500;fill-opacity:1;stroke:none"
       id="rect3121-4-38-2-57-9-03"
       width="16"
       height="16"
       x="-96"
       y="956.36218"
       transform="scale(-1,1)" />
    <rect
       style="fill:#d45500;fill-opacity:1;stroke:none"
       id="rect3121-4-38-2-57-9-74"
       width="16"
       height="16"
       x="-80"
       y="956.36218"
       transform="scale(-1,1)" />
    <rect
       style="fill:#d45500;fill-opacity:1;stroke:none"
       id="rect3121-4-38-2-57-9-67"
       width="16"
       height="16"
       x="-64"
       y="956.36218"
       transform="scale(-1,1)" />
    <rect
       style="fill:#d45500;fill-opacity:1;stroke:none"
       id="rect3121-4-38-2-57-9-08"
       width="16"
       height="16"
       x="-128"
       y="988.36218"
       transform="scale(-1,1)" />
    <rect
       style="fill:#d45500;fill-opacity:1;stroke:none"
       id="rect3121-4-38-2-57-9-41"
       width="16"
       height="16"
       x="-128"
       y="972.36218"
       transform="scale(-1,1)" />
    <rect
       style="fill:#d45500;fill-opacity:1;stroke:none"
       id="rect3121-4-38-2-57-9-145"
       width="16"
       height="16"
       x="-128"
       y="956.36218"
       transform="scale(-1,1)" />
    <rect
       style="fill:#d45500;fill-opacity:1;stroke:none"
       id="rect3121-4-38-2-57-9-75"
       width="16"
       height="16"
       x="-128"
       y="940.36218"
       transform="scale(-1,1)" />
    <rect
       style="fill:#d45500;fill-opacity:1;stroke:none"
       id="rect3121-4-38-2-57-9-63"
       width="16"
       height="16"
       x="-128"
       y="924.36218"
       transform="scale(-1,1)" />
    <rect
       style="fill:#d45500;fill-opacity:1;stroke:none"
       id="rect3121-4-38-2-57-9-843"
       width="16"
       height="16"
       x="-96"
       y="908.36218"
       transform="scale(-1,1)" />
    <rect
       style="fill:#d45500;fill-opacity:1;stroke:none"
       id="rect3121-4-38-2-57-9-302"
       width="16"
       height="16"
       x="-80"
       y="908.36218"
       transform="scale(-1,1)" />
    <rect
       style="fill:#d45500;fill-opacity:1;stroke:none"
       id="rect3121-4-38-2-57-9-508"
       width="16"
       height="16"
       x="-80"
       y="892.36218"
       transform="scale(-1,1)" />
    <rect
       style="fill:#d45500;fill-opacity:1;stroke:none"
       id="rect3121-4-38-2-57-9-143"
       width="16"
       height="16"
       x="-64"
       y="876.36218"
       transform="scale(-1,1)" />
    <rect
       style="fill:#d45500;fill-opacity:1;stroke:none"
       id="rect3121-4-38-2-57-9-633"
       width="16"
       height="16"
       x="-64"
       y="860.36218"
       transform="scale(-1,1)" />
    <rect
       style="fill:#d45500;fill-opacity:1;stroke:none"
       id="rect3121-4-38-2-57-9-939"
       width="16"
       height="16"
       x="-48"
       y="844.36218"
       transform="scale(-1,1)" />
    <rect
       style="fill:#d45500;fill-opacity:1;stroke:none"
       id="rect3121-4-38-2-57-9-70"
       width="16"
       height="16"
       x="-48"
       y="828.36218"
       transform="scale(-1,1)" />
    <rect
       style="fill:#d45500;fill-opacity:1;stroke:none"
       id="rect3121-4-38-2-57-9-26"
       width="16"
       height="16"
       x="-64"
       y="828.36218"
       transform="scale(-1,1)" />
    <rect
       style="fill:#d45500;fill-opacity:1;stroke:none"
       id="rect3121-4-38-2-57-9-53"
       width="16"
       height="16"
       x="-64"
       y="844.36218"
       transform="scale(-1,1)" />
    <rect
       style="fill:#d45500;fill-opacity:1;stroke:none"
       id="rect3121-4-38-2-57-9-91"
       width="16"
       height="16"
       x="-80"
       y="844.36218"
       transform="scale(-1,1)" />
    <rect
       style="fill:#d45500;fill-opacity:1;stroke:none"
       id="rect3121-4-38-2-57-9-16"
       width="16"
       height="16"
       x="-80"
       y="860.36218"
       transform="scale(-1,1)" />
    <rect
       style="fill:#d45500;fill-opacity:1;stroke:none"
       id="rect3121-4-38-2-57-9-97"
       width="16"
       height="16"
       x="-80"
       y="876.36218"
       transform="scale(-1,1)" />
    <rect
       style="fill:#d45500;fill-opacity:1;stroke:none"
       id="rect3121-4-38-2-57-9-073"
       width="16"
       height="16"
       x="-96"
       y="876.36218"
       transform="scale(-1,1)" />
    <rect
       style="fill:#d45500;fill-opacity:1;stroke:none"
       id="rect3121-4-38-2-57-9-52"
       width="16"
       height="16"
       x="-96"
       y="892.36218"
       transform="scale(-1,1)" />
    <rect
       style="fill:#d45500;fill-opacity:1;stroke:none"
       id="rect3121-4-38-2-57-9-309"
       width="16"
       height="16"
       x="-112"
       y="908.36218"
       transform="scale(-1,1)" />
    <rect
       style="fill:#d45500;fill-opacity:1;stroke:none"
       id="rect3121-4-38-2-57-9-68"
       width="16"
       height="16"
       x="-144"
       y="924.36218"
       transform="scale(-1,1)" />
    <rect
       style="fill:#d45500;fill-opacity:1;stroke:none"
       id="rect3121-4-38-2-57-9-023"
       width="16"
       height="16"
       x="-144"
       y="956.36218"
       transform="scale(-1,1)" />
    <rect
       style="fill:#d45500;fill-opacity:1;stroke:none"
       id="rect3121-4-38-2-57-9-756"
       width="16"
       height="16"
       x="-144"
       y="972.36218"
       transform="scale(-1,1)" />
    <rect
       style="fill:#d45500;fill-opacity:1;stroke:none"
       id="rect3121-4-38-2-57-9-88"
       width="16"
       height="16"
       x="-160"
       y="988.36218"
       transform="scale(-1,1)" />
    <rect
       style="fill:#d45500;fill-opacity:1;stroke:none"
       id="rect3121-4-38-2-57-9-889"
       width="16"
       height="16"
       x="-160"
       y="1004.3622"
       transform="scale(-1,1)" />
    <rect
       style="fill:#d45500;fill-opacity:1;stroke:none"
       id="rect3121-4-38-2-57-9-066"
       width="16"
       height="16"
       x="-176"
       y="1020.3622"
       transform="scale(-1,1)" />
    <rect
       style="fill:#d45500;fill-opacity:1;stroke:none"
       id="rect3121-4-38-2-57-9-55"
       width="16"
       height="16"
       x="-192"
       y="1020.3622"
       transform="scale(-1,1)" />
    <rect
       style="fill:#d45500;fill-opacity:1;stroke:none"
       id="rect3121-4-38-2-57-9-96"
       width="16"
       height="16"
       x="-208"
       y="1020.3622"
       transform="scale(-1,1)" />
    <rect
       style="fill:#d45500;fill-opacity:1;stroke:none"
       id="rect3121-4-38-2-57-9-20"
       width="16"
       height="16"
       x="-224"
       y="1020.3622"
       transform="scale(-1,1)" />
    <rect
       style="fill:#d45500;fill-opacity:1;stroke:none"
       id="rect3121-4-38-2-57-9-547"
       width="16"
       height="16"
       x="-240"
       y="1004.3622"
       transform="scale(-1,1)" />
    <rect
       style="fill:#d45500;fill-opacity:1;stroke:none"
       id="rect3121-4-38-2-57-9-89"
       width="16"
       height="16"
       x="-240"
       y="988.36218"
       transform="scale(-1,1)" />
    <rect
       style="fill:#d45500;fill-opacity:1;stroke:none"
       id="rect3121-4-38-2-57-9-149"
       width="16"
       height="16"
       x="-240"
       y="972.36218"
       transform="scale(-1,1)" />
    <rect
       style="fill:#d45500;fill-opacity:1;stroke:none"
       id="rect3121-4-38-2-57-9-10"
       width="16"
       height="16"
       x="-240"
       y="956.36218"
       transform="scale(-1,1)" />
    <rect
       style="fill:#d45500;fill-opacity:1;stroke:none"
       id="rect3121-4-38-2-57-9-932"
       width="16"
       height="16"
       x="-224"
       y="940.36218"
       transform="scale(-1,1)" />
    <rect
       style="fill:#d45500;fill-opacity:1;stroke:none"
       id="rect3121-4-38-2-57-9-207"
       width="16"
       height="16"
       x="-208"
       y="940.36218"
       transform="scale(-1,1)" />
    <rect
       style="fill:#d45500;fill-opacity:1;stroke:none"
       id="rect3121-4-38-2-57-9-11"
       width="16"
       height="16"
       x="-192"
       y="940.36218"
       transform="scale(-1,1)" />
    <rect
       style="fill:#d45500;fill-opacity:1;stroke:none"
       id="rect3121-4-38-2-57-9-899"
       width="16"
       height="16"
       x="-176"
       y="940.36218"
       transform="scale(-1,1)" />
    <rect
       style="fill:#d45500;fill-opacity:1;stroke:none"
       id="rect3121-4-38-2-57-9-99"
       width="16"
       height="16"
       x="-176"
       y="956.36218"
       transform="scale(-1,1)" />
    <rect
       style="fill:#d45500;fill-opacity:1;stroke:none"
       id="rect3121-4-38-2-57-9-57"
       width="16"
       height="16"
       x="-176"
       y="972.36218"
       transform="scale(-1,1)" />
    <rect
       style="fill:#d45500;fill-opacity:1;stroke:none"
       id="rect3121-4-38-2-57-9-42"
       width="16"
       height="16"
       x="-176"
       y="988.36218"
       transform="scale(-1,1)" />
    <rect
       style="fill:#d45500;fill-opacity:1;stroke:none"
       id="rect3121-4-38-2-57-9-634"
       width="16"
       height="16"
       x="-176"
       y="1004.3622"
       transform="scale(-1,1)" />
    <rect
       style="fill:#d45500;fill-opacity:1;stroke:none"
       id="rect3121-4-38-2-57-9-78"
       width="16"
       height="16"
       x="-192"
       y="1004.3622"
       transform="scale(-1,1)" />
    <rect
       style="fill:#d45500;fill-opacity:1;stroke:none"
       id="rect3121-4-38-2-57-9-86"
       width="16"
       height="16"
       x="-208"
       y="1004.3622"
       transform="scale(-1,1)" />
    <rect
       style="fill:#d45500;fill-opacity:1;stroke:none"
       id="rect3121-4-38-2-57-9-788"
       width="16"
       height="16"
       x="-224"
       y="1004.3622"
       transform="scale(-1,1)" />
    <rect
       style="fill:#d45500;fill-opacity:1;stroke:none"
       id="rect3121-4-38-2-57-9-39"
       width="16"
       height="16"
       x="-224"
       y="988.36218"
       transform="scale(-1,1)" />
    <rect
       style="fill:#d45500;fill-opacity:1;stroke:none"
       id="rect3121-4-38-2-57-9-13"
       width="16"
       height="16"
       x="-224"
       y="972.36218"
       transform="scale(-1,1)" />
    <rect
       style="fill:#d45500;fill-opacity:1;stroke:none"
       id="rect3121-4-38-2-57-9-94"
       width="16"
       height="16"
       x="-224"
       y="956.36218"
       transform="scale(-1,1)" />
    <rect
       style="fill:#d45500;fill-opacity:1;stroke:none"
       id="rect3121-4-38-2-57-9-737"
       width="16"
       height="16"
       x="-208"
       y="956.36218"
       transform="scale(-1,1)" />
    <rect
       style="fill:#d45500;fill-opacity:1;stroke:none"
       id="rect3121-4-38-2-57-9-64"
       width="16"
       height="16"
       x="-192"
       y="956.36218"
       transform="scale(-1,1)" />
    <rect
       style="fill:#d45500;fill-opacity:1;stroke:none"
       id="rect3121-4-38-2-57-9-04"
       width="16"
       height="16"
       x="-160"
       y="972.36218"
       transform="scale(-1,1)" />
    <rect
       style="fill:#d45500;fill-opacity:1;stroke:none"
       id="rect3121-4-38-2-57-9-395"
       width="16"
       height="16"
       x="-160"
       y="956.36218"
       transform="scale(-1,1)" />
    <rect
       style="fill:#d45500;fill-opacity:1;stroke:none"
       id="rect3121-4-38-2-57-9-4"
       width="16"
       height="16"
       x="-144"
       y="940.36218"
       transform="scale(-1,1)" />
    <rect
       style="fill:#d45500;fill-opacity:1;stroke:none"
       id="rect3121-4-38-2-57-9-62"
       width="16"
       height="16"
       x="-160"
       y="924.36218"
       transform="scale(-1,1)" />
    <rect
       style="fill:#d45500;fill-opacity:1;stroke:none"
       id="rect3121-4-38-2-57-9-894"
       width="16"
       height="16"
       x="-176"
       y="908.36218"
       transform="scale(-1,1)" />
    <rect
       style="fill:#d45500;fill-opacity:1;stroke:none"
       id="rect3121-4-38-2-57-9-58"
       width="16"
       height="16"
       x="-160"
       y="908.36218"
       transform="scale(-1,1)" />
    <rect
       style="fill:#d45500;fill-opacity:1;stroke:none"
       id="rect3121-4-38-2-57-9-236"
       width="16"
       height="16"
       x="-176"
       y="876.36218"
       transform="scale(-1,1)" />
    <rect
       style="fill:#d45500;fill-opacity:1;stroke:none"
       id="rect3121-4-38-2-57-9-134"
       width="16"
       height="16"
       x="-192"
       y="892.36218"
       transform="scale(-1,1)" />
    <rect
       style="fill:#d45500;fill-opacity:1;stroke:none"
       id="rect3121-4-38-2-57-9-43"
       width="16"
       height="16"
       x="-192"
       y="876.36218"
       transform="scale(-1,1)" />
    <rect
       style="fill:#d45500;fill-opacity:1;stroke:none"
       id="rect3121-4-38-2-57-9-794"
       width="16"
       height="16"
       x="-176"
       y="892.36218"
       transform="scale(-1,1)" />
    <rect
       style="fill:#d45500;fill-opacity:1;stroke:none"
       id="rect3121-4-38-2-57-9-46"
       width="16"
       height="16"
       x="-208"
       y="860.36218"
       transform="scale(-1,1)" />
    <rect
       style="fill:#d45500;fill-opacity:1;stroke:none"
       id="rect3121-4-38-2-57-9-71"
       width="16"
       height="16"
       x="-224"
       y="844.36218"
       transform="scale(-1,1)" />
    <rect
       style="fill:#d45500;fill-opacity:1;stroke:none"
       id="rect3121-4-38-2-57-9-34"
       width="16"
       height="16"
       x="-208"
       y="844.36218"
       transform="scale(-1,1)" />
    <rect
       style="fill:#d45500;fill-opacity:1;stroke:none"
       id="rect3121-4-38-2-57-9-19"
       width="16"
       height="16"
       x="-224"
       y="828.36218"
       transform="scale(-1,1)" />
    <rect
       style="fill:#d45500;fill-opacity:1;stroke:none"
       id="rect3121-4-38-2-57-9-92"
       width="16"
       height="16"
       x="-208"
       y="828.36218"
       transform="scale(-1,1)" />
    <rect
       style="fill:#d45500;fill-opacity:1;stroke:none"
       id="rect3121-4-38-2-57-9"
       width="16"
       height="16"
       x="-192"
       y="844.36218"
       transform="scale(-1,1)" />
    <rect
       style="fill:#d45500;fill-opacity:1;stroke:none"
       id="rect3121-4-38-2-57-9-56"
       width="16"
       height="16"
       x="-192"
       y="860.36218"
       transform="scale(-1,1)" />
    <rect
       style="fill:#d45500;fill-opacity:1;stroke:none"
       id="rect3121-4-38-2-57-9-51"
       width="16"
       height="16"
       x="-192"
       y="908.36218"
       transform="scale(-1,1)" />
    <rect
       style="fill:#d45500;fill-opacity:1;stroke:none"
       id="rect3121-4-38-2-57-9-374"
       width="16"
       height="16"
       x="-112"
       y="924.36218"
       transform="scale(-1,1)" />
    <rect
       style="fill:#d45500;fill-opacity:1;stroke:none"
       id="rect3121-4-38-2-57-9-9399"
       width="16"
       height="16"
       x="-208"
       y="876.36218"
       transform="scale(-1,1)" />
  </g>
  <g
     inkscape:groupmode="layer"
     id="layer2"
     inkscape:label="Capa 2" />
</svg>
