<?xml version="1.0" encoding="UTF-8" standalone="no"?>
<!-- Created with Inkscape (http://www.inkscape.org/) -->

<svg
   xmlns:dc="http://purl.org/dc/elements/1.1/"
   xmlns:cc="http://creativecommons.org/ns#"
   xmlns:rdf="http://www.w3.org/1999/02/22-rdf-syntax-ns#"
   xmlns:svg="http://www.w3.org/2000/svg"
   xmlns="http://www.w3.org/2000/svg"
   xmlns:sodipodi="http://sodipodi.sourceforge.net/DTD/sodipodi-0.dtd"
   xmlns:inkscape="http://www.inkscape.org/namespaces/inkscape"
   width="256"
   height="256"
   id="svg4374"
   version="1.1"
   inkscape:version="0.48.3.1 r9886"
   sodipodi:docname="document-new.svg">
  <defs
     id="defs4376" />
  <sodipodi:namedview
     id="base"
     pagecolor="#ffffff"
     bordercolor="#666666"
     borderopacity="1.0"
     inkscape:pageopacity="0.0"
     inkscape:pageshadow="2"
     inkscape:zoom="1.3789809"
     inkscape:cx="496.88491"
     inkscape:cy="6.05303"
     inkscape:document-units="px"
     inkscape:current-layer="layer1"
     showgrid="false"
     inkscape:window-width="1914"
     inkscape:window-height="1031"
     inkscape:window-x="0"
     inkscape:window-y="25"
     inkscape:window-maximized="1"
     showguides="true"
     inkscape:guide-bbox="true" />
  <metadata
     id="metadata4379">
    <rdf:RDF>
      <cc:Work
         rdf:about="">
        <dc:format>image/svg+xml</dc:format>
        <dc:type
           rdf:resource="http://purl.org/dc/dcmitype/StillImage" />
        <dc:title />
      </cc:Work>
    </rdf:RDF>
  </metadata>
  <g
     inkscape:label="Capa 1"
     inkscape:groupmode="layer"
     id="layer1"
     transform="translate(0,-796.36218)">
    <path
       style="font-size:medium;font-style:normal;font-variant:normal;font-weight:normal;font-stretch:normal;text-indent:0;text-align:start;text-decoration:none;line-height:normal;letter-spacing:normal;word-spacing:normal;text-transform:none;direction:ltr;block-progression:tb;writing-mode:lr-tb;text-anchor:start;baseline-shift:baseline;color:#000000;fill:#4ecae9;fill-opacity:1;stroke:none;stroke-width:1.99999988;marker:none;visibility:visible;display:inline;overflow:visible;enable-background:accumulate;font-family:Sans;-inkscape-font-specification:Sans"
       sodipodi:nodetypes="cccccccccccccccccccccccccccccc"
       id="path1234-3"
       d="m 48.497988,813.03932 c -7.050263,1.38189 -12.622801,8.42401 -12.496376,15.79305 l 0,202.23403 13.628258,7.0076 57.34002,-0.2789 c 9.81699,0 8.94684,1.9945 8.97371,-7.4027 l 0.0471,-16.4754 c 0.41353,-8.1383 -0.0254,-6.788 -7.70459,-6.9702 l -33.744423,-0.2225 c -9.205846,-0.02 -7.779815,1.0584 -7.779815,-7.7161 l 0,-148.29269 c -0.227238,-7.51322 -0.675752,-6.09008 6.469035,-6.09008 l 49.430893,0 c 6.9915,-0.22608 5.6207,-0.55353 5.6207,6.09008 l 0,33.73855 c -0.20517,9.02955 -1.14878,7.55055 7.4563,7.55055 l 32.43081,0 c 7.68055,-0.2238 6.25335,-0.73403 6.25335,6.57256 l 0,32.16931 c 0.0346,9.08837 -2.17848,8.6373 6.56211,8.6373 l 19.09236,0 c 6.99217,0.41929 5.10584,-0.56028 5.10584,-7.06806 l 0,-47.22058 c 0.0923,-4.17094 -1.5011,-8.35452 -4.32567,-11.35205 l -54.7918,-56.26198 c -2.91885,-2.90118 -6.9932,-4.53845 -11.05449,-4.44179 l -83.629593,0 c -0.479861,-0.0158 -0.96126,-0.0158 -1.44112,0 -0.479861,-0.0158 -0.96126,-0.0158 -1.441121,0 z"
       inkscape:connector-curvature="0" />
    <path
       style="fill:#4ecae9;fill-opacity:1;fill-rule:nonzero;stroke:none"
       d="m 131,138.83047 0,19.87697 c 0.18389,4.35264 0.57521,4.63631 -3.63044,4.63631 l -21.44621,0 c -11.598493,-0.10465 -12.386809,31.125 0,31.125 l 21.44621,0 C 132.2064,193.86514 131,196.10098 131,200.29216 l 0,18.30774 c 0.39402,12.31147 31.125,13.86873 31.125,0 l 0,-20.13851 c -0.38448,-4.51579 0.29895,-3.99264 4.47543,-3.99264 l 21.18467,0 c 12.89437,-1.00936 13.67725,-31.90962 -0.78462,-31.125 l -20.92313,0 c -4.80148,0.49233 -3.95235,-0.82194 -3.95235,-5.15939 l 0,-19.61543 C 161.60281,124.72615 131,125.60476 131,138.83047 z"
       transform="translate(0,796.36218)"
       id="rect3764"
       inkscape:connector-curvature="0"
       sodipodi:nodetypes="ccccccccccccccccc" />
  </g>
</svg>
