<?xml version="1.0" encoding="UTF-8" standalone="no"?>
<!-- Created with Inkscape (http://www.inkscape.org/) -->

<svg
   xmlns:dc="http://purl.org/dc/elements/1.1/"
   xmlns:cc="http://creativecommons.org/ns#"
   xmlns:rdf="http://www.w3.org/1999/02/22-rdf-syntax-ns#"
   xmlns:svg="http://www.w3.org/2000/svg"
   xmlns="http://www.w3.org/2000/svg"
   xmlns:sodipodi="http://sodipodi.sourceforge.net/DTD/sodipodi-0.dtd"
   xmlns:inkscape="http://www.inkscape.org/namespaces/inkscape"
   width="256"
   height="256"
   viewBox="0 0 256 256"
   id="svg2"
   version="1.1"
   inkscape:version="0.91 r13725"
   sodipodi:docname="forward.svg">
  <defs
     id="defs4" />
  <sodipodi:namedview
     id="base"
     pagecolor="#ffffff"
     bordercolor="#666666"
     borderopacity="1.0"
     inkscape:pageopacity="0.0"
     inkscape:pageshadow="2"
     inkscape:zoom="1.2893794"
     inkscape:cx="364.60273"
     inkscape:cy="68.625044"
     inkscape:document-units="px"
     inkscape:current-layer="layer1"
     showgrid="true"
     units="px"
     inkscape:window-width="1914"
     inkscape:window-height="1030"
     inkscape:window-x="0"
     inkscape:window-y="26"
     inkscape:window-maximized="1"
     inkscape:snap-bbox="true"
     inkscape:bbox-paths="true"
     inkscape:bbox-nodes="true"
     inkscape:snap-grids="true">
    <inkscape:grid
       type="xygrid"
       id="grid4136"
       spacingx="2"
       spacingy="2"
       empspacing="8"
       dotted="false" />
  </sodipodi:namedview>
  <metadata
     id="metadata7">
    <rdf:RDF>
      <cc:Work
         rdf:about="">
        <dc:format>image/svg+xml</dc:format>
        <dc:type
           rdf:resource="http://purl.org/dc/dcmitype/StillImage" />
        <dc:title />
      </cc:Work>
    </rdf:RDF>
  </metadata>
  <g
     inkscape:label="Capa 1"
     inkscape:groupmode="layer"
     id="layer1"
     transform="translate(0,-796.36216)">
    <path
       style="fill:#aad400;fill-opacity:1;stroke:none"
       d="M 48 0 L 48 16 L 48 32 L 64 32 L 64 48 L 80 48 L 80 64 L 96 64 L 96 80 L 112 80 L 112 96 L 128 96 L 128 112 L 144 112 L 144 128 L 144 144 L 128 144 L 128 160 L 112 160 L 112 176 L 96 176 L 96 192 L 80 192 L 80 208 L 64 208 L 64 224 L 48 224 L 48 240 L 48 256 L 64 256 L 80 256 L 96 256 L 96 240 L 112 240 L 112 224 L 128 224 L 128 208 L 144 208 L 144 192 L 160 192 L 160 176 L 176 176 L 176 160 L 192 160 L 192 144 L 208 144 L 208 128 L 208 112 L 192 112 L 192 96 L 176 96 L 176 80 L 160 80 L 160 64 L 144 64 L 144 48 L 128 48 L 128 32 L 112 32 L 112 16 L 96 16 L 96 0 L 80 0 L 64 0 L 48 0 z "
       transform="translate(0,796.36216)"
       id="rect3360-95-7" />
  </g>
  <g
     inkscape:groupmode="layer"
     id="layer2"
     inkscape:label="Capa 2" />
</svg>
