<?xml version="1.0" encoding="UTF-8" standalone="no"?>
<!-- Created with Inkscape (http://www.inkscape.org/) -->

<svg
   xmlns:dc="http://purl.org/dc/elements/1.1/"
   xmlns:cc="http://creativecommons.org/ns#"
   xmlns:rdf="http://www.w3.org/1999/02/22-rdf-syntax-ns#"
   xmlns:svg="http://www.w3.org/2000/svg"
   xmlns="http://www.w3.org/2000/svg"
   xmlns:sodipodi="http://sodipodi.sourceforge.net/DTD/sodipodi-0.dtd"
   xmlns:inkscape="http://www.inkscape.org/namespaces/inkscape"
   version="1.1"
   width="48"
   height="48"
   id="svg1307"
   inkscape:version="0.48.5 r10040"
   sodipodi:docname="gnome-settings.svg">
  <sodipodi:namedview
     pagecolor="#ffffff"
     bordercolor="#666666"
     borderopacity="1"
     objecttolerance="10"
     gridtolerance="10"
     guidetolerance="10"
     inkscape:pageopacity="0"
     inkscape:pageshadow="2"
     inkscape:window-width="1914"
     inkscape:window-height="1031"
     id="namedview8"
     showgrid="false"
     inkscape:zoom="9.6417503"
     inkscape:cx="59.280945"
     inkscape:cy="12.541366"
     inkscape:window-x="0"
     inkscape:window-y="25"
     inkscape:window-maximized="1"
     inkscape:current-layer="svg1307" />
  <defs
     id="defs1309" />
  <metadata
     id="metadata1312">
    <rdf:RDF>
      <cc:Work
         rdf:about="">
        <dc:format>image/svg+xml</dc:format>
        <dc:type
           rdf:resource="http://purl.org/dc/dcmitype/StillImage" />
        <dc:title />
      </cc:Work>
    </rdf:RDF>
  </metadata>
  <rect
     style="fill:#ffffff;fill-opacity:1;stroke:none"
     id="rect9691"
     width="39.412777"
     height="36.12838"
     x="4.1534514"
     y="7.5598335" />
  <path
     style="fill:#aad400;fill-opacity:1;stroke:none"
     d="M 4.15625 1 L 4.15625 4.28125 L 0.875 4.28125 L 0.875 43.6875 L 4.15625 43.6875 L 4.15625 46.96875 L 43.5625 46.96875 L 43.5625 43.6875 L 46.84375 43.6875 L 46.84375 4.28125 L 43.5625 4.28125 L 43.5625 1 L 37 1 L 30.4375 1 L 4.15625 1 z M 30.4375 4.28125 L 37 4.28125 L 37 7.5625 L 37 10.84375 L 30.4375 10.84375 L 30.4375 7.5625 L 30.4375 4.28125 z M 10.71875 7.5625 L 17.28125 7.5625 L 17.28125 20.6875 L 10.71875 20.6875 L 10.71875 7.5625 z M 27.15625 14.125 L 40.28125 14.125 L 40.28125 17.40625 L 43.5625 17.40625 L 43.5625 20.6875 L 40.28125 20.6875 L 40.28125 23.96875 L 30.4375 23.96875 L 27.15625 23.96875 L 27.15625 20.6875 L 23.875 20.6875 L 23.875 20.28125 L 23.875 17.40625 L 27.15625 17.40625 L 27.15625 14.125 z M 7.4375 23.96875 L 20.0625 23.96875 L 20.5625 23.96875 L 20.5625 27.28125 L 23.875 27.28125 L 23.875 30.5625 L 20.5625 30.5625 L 20.5625 33.84375 L 7.4375 33.84375 L 7.4375 30.5625 L 4.15625 30.5625 L 4.15625 27.28125 L 7.4375 27.28125 L 7.4375 23.96875 z M 30.4375 27.28125 L 37 27.28125 L 37 43.6875 L 30.4375 43.6875 L 30.4375 36.5 L 30.4375 33.84375 L 30.4375 27.28125 z M 10.71875 37.125 L 17.28125 37.125 L 17.28125 43.6875 L 10.71875 43.6875 L 10.71875 37.125 z "
     id="rect9498" />
</svg>
