<?xml version="1.0" encoding="UTF-8" standalone="no"?>
<!-- Created with Inkscape (http://www.inkscape.org/) -->

<svg
   xmlns:dc="http://purl.org/dc/elements/1.1/"
   xmlns:cc="http://creativecommons.org/ns#"
   xmlns:rdf="http://www.w3.org/1999/02/22-rdf-syntax-ns#"
   xmlns:svg="http://www.w3.org/2000/svg"
   xmlns="http://www.w3.org/2000/svg"
   xmlns:sodipodi="http://sodipodi.sourceforge.net/DTD/sodipodi-0.dtd"
   xmlns:inkscape="http://www.inkscape.org/namespaces/inkscape"
   width="256"
   height="256"
   viewBox="0 0 256 256"
   id="svg2"
   version="1.1"
   inkscape:version="0.91 r13725"
   sodipodi:docname="go-down-symbolic.svg">
  <defs
     id="defs4" />
  <sodipodi:namedview
     id="base"
     pagecolor="#ffffff"
     bordercolor="#666666"
     borderopacity="1.0"
     inkscape:pageopacity="0.0"
     inkscape:pageshadow="2"
     inkscape:zoom="2.0522148"
     inkscape:cx="38.229701"
     inkscape:cy="149.05847"
     inkscape:document-units="px"
     inkscape:current-layer="layer1"
     showgrid="true"
     units="px"
     inkscape:window-width="1914"
     inkscape:window-height="1030"
     inkscape:window-x="0"
     inkscape:window-y="26"
     inkscape:window-maximized="1"
     inkscape:snap-bbox="true"
     inkscape:bbox-paths="true"
     inkscape:bbox-nodes="true"
     inkscape:snap-grids="true"
     inkscape:snap-global="true">
    <inkscape:grid
       type="xygrid"
       id="grid4136"
       spacingx="2"
       spacingy="2"
       empspacing="8"
       dotted="false"
       visible="true"
       enabled="true"
       snapvisiblegridlinesonly="true" />
  </sodipodi:namedview>
  <metadata
     id="metadata7">
    <rdf:RDF>
      <cc:Work
         rdf:about="">
        <dc:format>image/svg+xml</dc:format>
        <dc:type
           rdf:resource="http://purl.org/dc/dcmitype/StillImage" />
        <dc:title />
      </cc:Work>
    </rdf:RDF>
  </metadata>
  <g
     inkscape:label="Capa 1"
     inkscape:groupmode="layer"
     id="layer1"
     transform="translate(0,-796.36216)">
    <path
       style="fill:#aad400;fill-opacity:1;stroke:none"
       d="M 0.16796875 63.783203 L 0.14453125 79.783203 L 0.12109375 95.783203 L 0.095703125 111.7832 L 16.095703 111.80664 L 16.072266 127.80664 L 32.072266 127.83203 L 32.048828 143.83203 L 48.048828 143.85547 L 48.023438 159.85547 L 64.023438 159.87891 L 64 175.87891 L 80 175.9043 L 79.976562 191.9043 L 95.976562 191.92773 L 95.951172 207.92773 L 111.95117 207.95117 L 111.92773 223.95117 L 127.92773 223.97656 L 143.92773 224 L 143.95117 208 L 159.95117 208.02344 L 159.97656 192.02344 L 175.97656 192.04883 L 176 176.04883 L 192 176.07227 L 192.02344 160.07227 L 208.02344 160.0957 L 208.04883 144.0957 L 224.04883 144.12109 L 224.07227 128.12109 L 240.07227 128.14453 L 240.0957 112.14453 L 256.0957 112.16797 L 256.12109 96.167969 L 256.14453 80.167969 L 256.16797 64.167969 L 240.16797 64.144531 L 224.16797 64.121094 L 224.14453 80.121094 L 208.14453 80.095703 L 208.12109 96.095703 L 192.12109 96.072266 L 192.0957 112.07227 L 176.0957 112.04883 L 176.07227 128.04883 L 160.07227 128.02344 L 160.04883 144.02344 L 144.04883 144 L 144.02344 160 L 128.02344 159.97656 L 112.02344 159.95117 L 112.04883 143.95117 L 96.048828 143.92773 L 96.072266 127.92773 L 80.072266 127.9043 L 80.095703 111.9043 L 64.095703 111.87891 L 64.121094 95.878906 L 48.121094 95.855469 L 48.144531 79.855469 L 32.144531 79.832031 L 32.167969 63.832031 L 16.167969 63.806641 L 0.16796875 63.783203 z "
       transform="translate(0,796.36216)"
       id="rect3360-0-3" />
  </g>
  <g
     inkscape:groupmode="layer"
     id="layer2"
     inkscape:label="Capa 2" />
</svg>
