<?xml version="1.0" encoding="UTF-8" standalone="no"?>
<!-- Created with Inkscape (http://www.inkscape.org/) -->

<svg
   xmlns:dc="http://purl.org/dc/elements/1.1/"
   xmlns:cc="http://creativecommons.org/ns#"
   xmlns:rdf="http://www.w3.org/1999/02/22-rdf-syntax-ns#"
   xmlns:svg="http://www.w3.org/2000/svg"
   xmlns="http://www.w3.org/2000/svg"
   xmlns:sodipodi="http://sodipodi.sourceforge.net/DTD/sodipodi-0.dtd"
   xmlns:inkscape="http://www.inkscape.org/namespaces/inkscape"
   width="256"
   height="256"
   viewBox="0 0 256 256"
   id="svg2"
   version="1.1"
   inkscape:version="0.48.5 r10040"
   sodipodi:docname="go-bottom.svg">
  <defs
     id="defs4" />
  <sodipodi:namedview
     id="base"
     pagecolor="#ffffff"
     bordercolor="#666666"
     borderopacity="1.0"
     inkscape:pageopacity="0.0"
     inkscape:pageshadow="2"
     inkscape:zoom="1.451135"
     inkscape:cx="132.28944"
     inkscape:cy="63.114996"
     inkscape:document-units="px"
     inkscape:current-layer="layer1"
     showgrid="true"
     units="px"
     inkscape:window-width="1914"
     inkscape:window-height="1031"
     inkscape:window-x="0"
     inkscape:window-y="25"
     inkscape:window-maximized="1"
     inkscape:snap-bbox="true"
     inkscape:bbox-paths="true"
     inkscape:bbox-nodes="true"
     inkscape:snap-grids="true"
     inkscape:snap-global="true">
    <inkscape:grid
       type="xygrid"
       id="grid4136"
       spacingx="2"
       spacingy="2"
       empspacing="8"
       dotted="false"
       visible="true"
       enabled="true"
       snapvisiblegridlinesonly="true" />
  </sodipodi:namedview>
  <metadata
     id="metadata7">
    <rdf:RDF>
      <cc:Work
         rdf:about="">
        <dc:format>image/svg+xml</dc:format>
        <dc:type
           rdf:resource="http://purl.org/dc/dcmitype/StillImage" />
        <dc:title></dc:title>
      </cc:Work>
    </rdf:RDF>
  </metadata>
  <g
     inkscape:label="Capa 1"
     inkscape:groupmode="layer"
     id="layer1"
     transform="translate(0,-796.36216)">
    <rect
       style="fill:#ff7373;fill-opacity:1;stroke:none"
       id="rect3360-0-9"
       width="16"
       height="255.99998"
       x="812.36224"
       y="-0.20696768"
       transform="matrix(1.9664551e-4,0.99999998,0.99999998,-1.9664551e-4,0,0)" />
    <rect
       style="fill:#ff7373;fill-opacity:1;stroke:none"
       id="rect3360-0-2"
       width="16"
       height="255.99998"
       x="828.36224"
       y="-0.20696768"
       transform="matrix(1.9664551e-4,0.99999998,0.99999998,-1.9664551e-4,0,0)" />
    <rect
       style="fill:#ff7373;fill-opacity:1;stroke:none"
       id="rect3360-0-7"
       width="16"
       height="255.99998"
       x="844.36218"
       y="-0.20696768"
       transform="matrix(1.9664551e-4,0.99999998,0.99999998,-1.9664551e-4,0,0)" />
    <rect
       style="fill:#ff7373;fill-opacity:1;stroke:none"
       id="rect3360-0-3"
       width="16"
       height="16"
       x="892.36212"
       y="111.79304"
       transform="matrix(1.9664551e-4,0.99999998,0.99999998,-1.9664551e-4,0,0)" />
    <rect
       style="fill:#ff7373;fill-opacity:1;stroke:none"
       id="rect3360-0-29"
       width="16"
       height="16"
       x="892.36212"
       y="127.79304"
       transform="matrix(1.9664551e-4,0.99999998,0.99999998,-1.9664551e-4,0,0)" />
    <rect
       style="fill:#ff7373;fill-opacity:1;stroke:none"
       id="rect3360-0-96"
       width="16"
       height="16"
       x="908.36212"
       y="143.79303"
       transform="matrix(1.9664551e-4,0.99999998,0.99999998,-1.9664551e-4,0,0)" />
    <rect
       style="fill:#ff7373;fill-opacity:1;stroke:none"
       id="rect3360-0-76"
       width="16"
       height="16"
       x="908.36212"
       y="127.79304"
       transform="matrix(1.9664551e-4,0.99999998,0.99999998,-1.9664551e-4,0,0)" />
    <rect
       style="fill:#ff7373;fill-opacity:1;stroke:none"
       id="rect3360-0-1"
       width="16"
       height="16"
       x="908.36212"
       y="111.79304"
       transform="matrix(1.9664551e-4,0.99999998,0.99999998,-1.9664551e-4,0,0)" />
    <rect
       style="fill:#ff7373;fill-opacity:1;stroke:none"
       id="rect3360-0-8"
       width="16"
       height="16"
       x="908.36212"
       y="95.793037"
       transform="matrix(1.9664551e-4,0.99999998,0.99999998,-1.9664551e-4,0,0)" />
    <rect
       style="fill:#ff7373;fill-opacity:1;stroke:none"
       id="rect3360-0-31"
       width="16"
       height="16"
       x="924.36212"
       y="79.793037"
       transform="matrix(1.9664551e-4,0.99999998,0.99999998,-1.9664551e-4,0,0)" />
    <rect
       style="fill:#ff7373;fill-opacity:1;stroke:none"
       id="rect3360-0-4"
       width="16"
       height="16"
       x="924.36212"
       y="95.793037"
       transform="matrix(1.9664551e-4,0.99999998,0.99999998,-1.9664551e-4,0,0)" />
    <rect
       style="fill:#ff7373;fill-opacity:1;stroke:none"
       id="rect3360-0-20"
       width="16"
       height="16"
       x="924.36212"
       y="111.79304"
       transform="matrix(1.9664551e-4,0.99999998,0.99999998,-1.9664551e-4,0,0)" />
    <rect
       style="fill:#ff7373;fill-opacity:1;stroke:none"
       id="rect3360-0-73"
       width="16"
       height="16"
       x="924.36212"
       y="127.79304"
       transform="matrix(1.9664551e-4,0.99999998,0.99999998,-1.9664551e-4,0,0)" />
    <rect
       style="fill:#ff7373;fill-opacity:1;stroke:none"
       id="rect3360-0-70"
       width="16"
       height="16"
       x="924.36212"
       y="143.79303"
       transform="matrix(1.9664551e-4,0.99999998,0.99999998,-1.9664551e-4,0,0)" />
    <rect
       style="fill:#ff7373;fill-opacity:1;stroke:none"
       id="rect3360-0-33"
       width="16"
       height="16"
       x="924.36212"
       y="159.79303"
       transform="matrix(1.9664551e-4,0.99999998,0.99999998,-1.9664551e-4,0,0)" />
    <rect
       style="fill:#ff7373;fill-opacity:1;stroke:none"
       id="rect3360-0-0"
       width="16"
       height="16"
       x="940.36212"
       y="175.79303"
       transform="matrix(1.9664551e-4,0.99999998,0.99999998,-1.9664551e-4,0,0)" />
    <rect
       style="fill:#ff7373;fill-opacity:1;stroke:none"
       id="rect3360-0-99"
       width="16"
       height="16"
       x="940.36212"
       y="159.79303"
       transform="matrix(1.9664551e-4,0.99999998,0.99999998,-1.9664551e-4,0,0)" />
    <rect
       style="fill:#ff7373;fill-opacity:1;stroke:none"
       id="rect3360-0-97"
       width="16"
       height="16"
       x="940.36212"
       y="143.79303"
       transform="matrix(1.9664551e-4,0.99999998,0.99999998,-1.9664551e-4,0,0)" />
    <rect
       style="fill:#ff7373;fill-opacity:1;stroke:none"
       id="rect3360-0-00"
       width="16"
       height="16"
       x="940.36212"
       y="127.79304"
       transform="matrix(1.9664551e-4,0.99999998,0.99999998,-1.9664551e-4,0,0)" />
    <rect
       style="fill:#ff7373;fill-opacity:1;stroke:none"
       id="rect3360-0-09"
       width="16"
       height="16"
       x="940.36212"
       y="111.79304"
       transform="matrix(1.9664551e-4,0.99999998,0.99999998,-1.9664551e-4,0,0)" />
    <rect
       style="fill:#ff7373;fill-opacity:1;stroke:none"
       id="rect3360-0-48"
       width="16"
       height="16"
       x="940.36212"
       y="95.793037"
       transform="matrix(1.9664551e-4,0.99999998,0.99999998,-1.9664551e-4,0,0)" />
    <rect
       style="fill:#ff7373;fill-opacity:1;stroke:none"
       id="rect3360-0-46"
       width="16"
       height="16"
       x="940.36212"
       y="79.793037"
       transform="matrix(1.9664551e-4,0.99999998,0.99999998,-1.9664551e-4,0,0)" />
    <rect
       style="fill:#ff7373;fill-opacity:1;stroke:none"
       id="rect3360-0-75"
       width="16"
       height="16"
       x="940.36212"
       y="63.793034"
       transform="matrix(1.9664551e-4,0.99999998,0.99999998,-1.9664551e-4,0,0)" />
    <rect
       style="fill:#ff7373;fill-opacity:1;stroke:none"
       id="rect3360-0-463"
       width="16"
       height="16"
       x="956.36212"
       y="95.793037"
       transform="matrix(1.9664551e-4,0.99999998,0.99999998,-1.9664551e-4,0,0)" />
    <rect
       style="fill:#ff7373;fill-opacity:1;stroke:none"
       id="rect3360-0-84"
       width="16"
       height="16"
       x="956.36212"
       y="79.793037"
       transform="matrix(1.9664551e-4,0.99999998,0.99999998,-1.9664551e-4,0,0)" />
    <rect
       style="fill:#ff7373;fill-opacity:1;stroke:none"
       id="rect3360-0-6"
       width="16"
       height="16"
       x="956.36212"
       y="63.793034"
       transform="matrix(1.9664551e-4,0.99999998,0.99999998,-1.9664551e-4,0,0)" />
    <rect
       style="fill:#ff7373;fill-opacity:1;stroke:none"
       id="rect3360-0-90"
       width="16"
       height="16"
       x="956.36212"
       y="47.793034"
       transform="matrix(1.9664551e-4,0.99999998,0.99999998,-1.9664551e-4,0,0)" />
    <rect
       style="fill:#ff7373;fill-opacity:1;stroke:none"
       id="rect3360-0-02"
       width="16"
       height="16"
       x="972.36212"
       y="79.793037"
       transform="matrix(1.9664551e-4,0.99999998,0.99999998,-1.9664551e-4,0,0)" />
    <rect
       style="fill:#ff7373;fill-opacity:1;stroke:none"
       id="rect3360-0-93"
       width="16"
       height="16"
       x="972.36212"
       y="47.793034"
       transform="matrix(1.9664551e-4,0.99999998,0.99999998,-1.9664551e-4,0,0)" />
    <rect
       style="fill:#ff7373;fill-opacity:1;stroke:none"
       id="rect3360-0-91"
       width="16"
       height="16"
       x="972.36212"
       y="63.793034"
       transform="matrix(1.9664551e-4,0.99999998,0.99999998,-1.9664551e-4,0,0)" />
    <rect
       style="fill:#ff7373;fill-opacity:1;stroke:none"
       id="rect3360-0-841"
       width="16"
       height="16"
       x="972.36212"
       y="31.793034"
       transform="matrix(1.9664551e-4,0.99999998,0.99999998,-1.9664551e-4,0,0)" />
    <rect
       style="fill:#ff7373;fill-opacity:1;stroke:none"
       id="rect3360-0-753"
       width="16"
       height="16"
       x="988.36212"
       y="63.793034"
       transform="matrix(1.9664551e-4,0.99999998,0.99999998,-1.9664551e-4,0,0)" />
    <rect
       style="fill:#ff7373;fill-opacity:1;stroke:none"
       id="rect3360-0-47"
       width="16"
       height="16"
       x="988.36212"
       y="47.793034"
       transform="matrix(1.9664551e-4,0.99999998,0.99999998,-1.9664551e-4,0,0)" />
    <rect
       style="fill:#ff7373;fill-opacity:1;stroke:none"
       id="rect3360-0-5"
       width="16"
       height="16"
       x="988.36212"
       y="31.793034"
       transform="matrix(1.9664551e-4,0.99999998,0.99999998,-1.9664551e-4,0,0)" />
    <rect
       style="fill:#ff7373;fill-opacity:1;stroke:none"
       id="rect3360-0-77"
       width="16"
       height="16"
       x="988.36212"
       y="15.793032"
       transform="matrix(1.9664551e-4,0.99999998,0.99999998,-1.9664551e-4,0,0)" />
    <rect
       style="fill:#ff7373;fill-opacity:1;stroke:none"
       id="rect3360-0-05"
       width="16"
       height="16"
       x="1004.3621"
       y="-0.20696768"
       transform="matrix(1.9664551e-4,0.99999998,0.99999998,-1.9664551e-4,0,0)" />
    <rect
       style="fill:#ff7373;fill-opacity:1;stroke:none"
       id="rect3360-0-36"
       width="16"
       height="16"
       x="1020.3621"
       y="15.793032"
       transform="matrix(1.9664551e-4,0.99999998,0.99999998,-1.9664551e-4,0,0)" />
    <rect
       style="fill:#ff7373;fill-opacity:1;stroke:none"
       id="rect3360-0-49"
       width="16"
       height="16"
       x="1004.3621"
       y="15.793032"
       transform="matrix(1.9664551e-4,0.99999998,0.99999998,-1.9664551e-4,0,0)" />
    <rect
       style="fill:#ff7373;fill-opacity:1;stroke:none"
       id="rect3360-0-30"
       width="16"
       height="16"
       x="1004.3621"
       y="31.793034"
       transform="matrix(1.9664551e-4,0.99999998,0.99999998,-1.9664551e-4,0,0)" />
    <rect
       style="fill:#ff7373;fill-opacity:1;stroke:none"
       id="rect3360-0-41"
       width="16"
       height="16"
       x="1004.3621"
       y="47.793034"
       transform="matrix(1.9664551e-4,0.99999998,0.99999998,-1.9664551e-4,0,0)" />
    <rect
       style="fill:#ff7373;fill-opacity:1;stroke:none"
       id="rect3360-0-732"
       width="16"
       height="16"
       x="1020.3621"
       y="31.793034"
       transform="matrix(1.9664551e-4,0.99999998,0.99999998,-1.9664551e-4,0,0)" />
    <rect
       style="fill:#ff7373;fill-opacity:1;stroke:none"
       id="rect3360-0-934"
       width="16"
       height="16"
       x="1020.3621"
       y="-0.20696768"
       transform="matrix(1.9664551e-4,0.99999998,0.99999998,-1.9664551e-4,0,0)" />
    <rect
       style="fill:#ff7373;fill-opacity:1;stroke:none"
       id="rect3360-0-995"
       width="16"
       height="16"
       x="1036.3621"
       y="15.793032"
       transform="matrix(1.9664551e-4,0.99999998,0.99999998,-1.9664551e-4,0,0)" />
    <rect
       style="fill:#ff7373;fill-opacity:1;stroke:none"
       id="rect3360-0-092"
       width="16"
       height="16"
       x="1036.3621"
       y="-0.20696768"
       transform="matrix(1.9664551e-4,0.99999998,0.99999998,-1.9664551e-4,0,0)" />
    <rect
       style="fill:#ff7373;fill-opacity:1;stroke:none"
       id="rect3360-0-477"
       width="16"
       height="16"
       x="956.36212"
       y="143.79303"
       transform="matrix(1.9664551e-4,0.99999998,0.99999998,-1.9664551e-4,0,0)" />
    <rect
       style="fill:#ff7373;fill-opacity:1;stroke:none"
       id="rect3360-0-737"
       width="16"
       height="16"
       x="956.36212"
       y="159.79303"
       transform="matrix(1.9664551e-4,0.99999998,0.99999998,-1.9664551e-4,0,0)" />
    <rect
       style="fill:#ff7373;fill-opacity:1;stroke:none"
       id="rect3360-0-40"
       width="16"
       height="16"
       x="956.36212"
       y="175.79303"
       transform="matrix(1.9664551e-4,0.99999998,0.99999998,-1.9664551e-4,0,0)" />
    <rect
       style="fill:#ff7373;fill-opacity:1;stroke:none"
       id="rect3360-0-44"
       width="16"
       height="16"
       x="956.36212"
       y="191.79303"
       transform="matrix(1.9664551e-4,0.99999998,0.99999998,-1.9664551e-4,0,0)" />
    <rect
       style="fill:#ff7373;fill-opacity:1;stroke:none"
       id="rect3360-0-79"
       width="16"
       height="16"
       x="972.36212"
       y="159.79303"
       transform="matrix(1.9664551e-4,0.99999998,0.99999998,-1.9664551e-4,0,0)" />
    <rect
       style="fill:#ff7373;fill-opacity:1;stroke:none"
       id="rect3360-0-330"
       width="16"
       height="16"
       x="972.36212"
       y="175.79303"
       transform="matrix(1.9664551e-4,0.99999998,0.99999998,-1.9664551e-4,0,0)" />
    <rect
       style="fill:#ff7373;fill-opacity:1;stroke:none"
       id="rect3360-0-64"
       width="16"
       height="16"
       x="972.36212"
       y="191.79303"
       transform="matrix(1.9664551e-4,0.99999998,0.99999998,-1.9664551e-4,0,0)" />
    <rect
       style="fill:#ff7373;fill-opacity:1;stroke:none"
       id="rect3360-0-59"
       width="16"
       height="16"
       x="972.36212"
       y="207.793"
       transform="matrix(1.9664551e-4,0.99999998,0.99999998,-1.9664551e-4,0,0)" />
    <rect
       style="fill:#ff7373;fill-opacity:1;stroke:none"
       id="rect3360-0-38"
       width="16"
       height="16"
       x="988.36212"
       y="175.79303"
       transform="matrix(1.9664551e-4,0.99999998,0.99999998,-1.9664551e-4,0,0)" />
    <rect
       style="fill:#ff7373;fill-opacity:1;stroke:none"
       id="rect3360-0-32"
       width="16"
       height="16"
       x="988.36212"
       y="191.79303"
       transform="matrix(1.9664551e-4,0.99999998,0.99999998,-1.9664551e-4,0,0)" />
    <rect
       style="fill:#ff7373;fill-opacity:1;stroke:none"
       id="rect3360-0-383"
       width="16"
       height="16"
       x="988.36212"
       y="207.793"
       transform="matrix(1.9664551e-4,0.99999998,0.99999998,-1.9664551e-4,0,0)" />
    <rect
       style="fill:#ff7373;fill-opacity:1;stroke:none"
       id="rect3360-0-45"
       width="16"
       height="16"
       x="988.36212"
       y="223.79306"
       transform="matrix(1.9664551e-4,0.99999998,0.99999998,-1.9664551e-4,0,0)" />
    <rect
       style="fill:#ff7373;fill-opacity:1;stroke:none"
       id="rect3360-0-447"
       width="16"
       height="16"
       x="1004.3621"
       y="191.79303"
       transform="matrix(1.9664551e-4,0.99999998,0.99999998,-1.9664551e-4,0,0)" />
    <rect
       style="fill:#ff7373;fill-opacity:1;stroke:none"
       id="rect3360-0-01"
       width="16"
       height="16"
       x="1004.3621"
       y="207.793"
       transform="matrix(1.9664551e-4,0.99999998,0.99999998,-1.9664551e-4,0,0)" />
    <rect
       style="fill:#ff7373;fill-opacity:1;stroke:none"
       id="rect3360-0-796"
       width="16"
       height="16"
       x="1004.3621"
       y="223.79306"
       transform="matrix(1.9664551e-4,0.99999998,0.99999998,-1.9664551e-4,0,0)" />
    <rect
       style="fill:#ff7373;fill-opacity:1;stroke:none"
       id="rect3360-0-43"
       width="16"
       height="16"
       x="1004.3621"
       y="239.79306"
       transform="matrix(1.9664551e-4,0.99999998,0.99999998,-1.9664551e-4,0,0)" />
    <rect
       style="fill:#ff7373;fill-opacity:1;stroke:none"
       id="rect3360-0-708"
       width="16"
       height="16"
       x="1020.3621"
       y="207.793"
       transform="matrix(1.9664551e-4,0.99999998,0.99999998,-1.9664551e-4,0,0)" />
    <rect
       style="fill:#ff7373;fill-opacity:1;stroke:none"
       id="rect3360-0-61"
       width="16"
       height="16"
       x="1020.3621"
       y="223.79306"
       transform="matrix(1.9664551e-4,0.99999998,0.99999998,-1.9664551e-4,0,0)" />
    <rect
       style="fill:#ff7373;fill-opacity:1;stroke:none"
       id="rect3360-0-302"
       width="16"
       height="16"
       x="1020.3621"
       y="239.79306"
       transform="matrix(1.9664551e-4,0.99999998,0.99999998,-1.9664551e-4,0,0)" />
    <rect
       style="fill:#ff7373;fill-opacity:1;stroke:none"
       id="rect3360-0-967"
       width="16"
       height="16"
       x="1036.3621"
       y="223.79306"
       transform="matrix(1.9664551e-4,0.99999998,0.99999998,-1.9664551e-4,0,0)" />
    <rect
       style="fill:#ff7373;fill-opacity:1;stroke:none"
       id="rect3360-0-097"
       width="16"
       height="16"
       x="1036.3621"
       y="239.79306"
       transform="matrix(1.9664551e-4,0.99999998,0.99999998,-1.9664551e-4,0,0)" />
  </g>
  <g
     inkscape:groupmode="layer"
     id="layer2"
     inkscape:label="Capa 2" />
</svg>
