<?xml version="1.0" encoding="UTF-8" standalone="no"?>
<!-- Created with Inkscape (http://www.inkscape.org/) -->

<svg
   xmlns:dc="http://purl.org/dc/elements/1.1/"
   xmlns:cc="http://creativecommons.org/ns#"
   xmlns:rdf="http://www.w3.org/1999/02/22-rdf-syntax-ns#"
   xmlns:svg="http://www.w3.org/2000/svg"
   xmlns="http://www.w3.org/2000/svg"
   xmlns:sodipodi="http://sodipodi.sourceforge.net/DTD/sodipodi-0.dtd"
   xmlns:inkscape="http://www.inkscape.org/namespaces/inkscape"
   width="256"
   height="256"
   viewBox="0 0 256 256"
   id="svg2"
   version="1.1"
   inkscape:version="0.91 r13725"
   sodipodi:docname="go-top.svg">
  <defs
     id="defs4" />
  <sodipodi:namedview
     id="base"
     pagecolor="#ffffff"
     bordercolor="#666666"
     borderopacity="1.0"
     inkscape:pageopacity="0.0"
     inkscape:pageshadow="2"
     inkscape:zoom="1.451135"
     inkscape:cx="-25.862627"
     inkscape:cy="63.114996"
     inkscape:document-units="px"
     inkscape:current-layer="layer1"
     showgrid="true"
     units="px"
     inkscape:window-width="1914"
     inkscape:window-height="1030"
     inkscape:window-x="0"
     inkscape:window-y="26"
     inkscape:window-maximized="1"
     inkscape:snap-bbox="true"
     inkscape:bbox-paths="true"
     inkscape:bbox-nodes="true"
     inkscape:snap-grids="true"
     inkscape:snap-global="true">
    <inkscape:grid
       type="xygrid"
       id="grid4136"
       spacingx="2"
       spacingy="2"
       empspacing="8"
       dotted="false"
       visible="true"
       enabled="true"
       snapvisiblegridlinesonly="true" />
  </sodipodi:namedview>
  <metadata
     id="metadata7">
    <rdf:RDF>
      <cc:Work
         rdf:about="">
        <dc:format>image/svg+xml</dc:format>
        <dc:type
           rdf:resource="http://purl.org/dc/dcmitype/StillImage" />
        <dc:title />
      </cc:Work>
    </rdf:RDF>
  </metadata>
  <g
     inkscape:label="Capa 1"
     inkscape:groupmode="layer"
     id="layer1"
     transform="translate(0,-796.36216)">
    <path
       style="fill:#aad400;fill-opacity:1;stroke:none"
       d="M 255.95312 15.949219 L -0.046875 16 L -0.044921875 32 L -0.041015625 48 L -0.037109375 64 L 255.96289 63.949219 L 255.95898 47.949219 L 255.95508 31.949219 L 255.95312 15.949219 z "
       transform="translate(0,796.36216)"
       id="rect3360-0-9" />
    <path
       style="fill:#aad400;fill-opacity:1;stroke:none"
       d="M 143.96875 95.970703 L 127.96875 95.974609 L 111.96875 95.978516 L 111.9707 111.97852 L 95.970703 111.98047 L 95.974609 127.98047 L 79.974609 127.98438 L 79.978516 143.98438 L 63.978516 143.98828 L 63.980469 159.98828 L 47.980469 159.99023 L 47.984375 175.99023 L 31.984375 175.99414 L 31.988281 191.99414 L 15.988281 191.99609 L 15.990234 207.99609 L -0.009765625 208 L -0.005859375 224 L -0.00390625 240 L 0 256 L 16 255.99609 L 32 255.99414 L 31.996094 239.99414 L 47.996094 239.99023 L 47.994141 223.99023 L 63.994141 223.98828 L 63.990234 207.98828 L 79.990234 207.98438 L 79.988281 191.98438 L 95.988281 191.98047 L 95.984375 175.98047 L 111.98438 175.97852 L 111.98047 159.97852 L 127.98047 159.97461 L 143.98047 159.9707 L 143.98438 175.9707 L 159.98438 175.96875 L 159.98828 191.96875 L 175.98828 191.96484 L 175.99023 207.96484 L 191.99023 207.96289 L 191.99414 223.96289 L 207.99414 223.95898 L 207.99609 239.95898 L 223.99609 239.95508 L 224 255.95508 L 240 255.95312 L 256 255.94922 L 255.99609 239.94922 L 255.99414 223.94922 L 255.99023 207.94922 L 239.99023 207.95312 L 239.98828 191.95312 L 223.98828 191.95508 L 223.98438 175.95508 L 207.98438 175.95898 L 207.98047 159.95898 L 191.98047 159.96289 L 191.97852 143.96289 L 175.97852 143.96484 L 175.97461 127.96484 L 159.97461 127.96875 L 159.9707 111.96875 L 143.9707 111.9707 L 143.96875 95.970703 z "
       transform="translate(0,796.36216)"
       id="rect3360-0-3" />
  </g>
  <g
     inkscape:groupmode="layer"
     id="layer2"
     inkscape:label="Capa 2" />
</svg>
