<?xml version="1.0" encoding="UTF-8" standalone="no"?>
<!-- Created with Inkscape (http://www.inkscape.org/) -->

<svg
   xmlns:dc="http://purl.org/dc/elements/1.1/"
   xmlns:cc="http://creativecommons.org/ns#"
   xmlns:rdf="http://www.w3.org/1999/02/22-rdf-syntax-ns#"
   xmlns:svg="http://www.w3.org/2000/svg"
   xmlns="http://www.w3.org/2000/svg"
   xmlns:sodipodi="http://sodipodi.sourceforge.net/DTD/sodipodi-0.dtd"
   xmlns:inkscape="http://www.inkscape.org/namespaces/inkscape"
   width="256"
   height="256"
   viewBox="0 0 256 256"
   id="svg2"
   version="1.1"
   inkscape:version="0.91 r13725"
   sodipodi:docname="gtk-leave-fullscreen.svg">
  <defs
     id="defs4" />
  <sodipodi:namedview
     id="base"
     pagecolor="#ffffff"
     bordercolor="#666666"
     borderopacity="1.0"
     inkscape:pageopacity="0.0"
     inkscape:pageshadow="2"
     inkscape:zoom="1.8116292"
     inkscape:cx="174.89077"
     inkscape:cy="130.45952"
     inkscape:document-units="px"
     inkscape:current-layer="layer1"
     showgrid="true"
     units="px"
     inkscape:window-width="1914"
     inkscape:window-height="1030"
     inkscape:window-x="0"
     inkscape:window-y="26"
     inkscape:window-maximized="1"
     inkscape:snap-bbox="true"
     inkscape:bbox-paths="true"
     inkscape:bbox-nodes="true"
     inkscape:snap-grids="true"
     inkscape:snap-global="true">
    <inkscape:grid
       type="xygrid"
       id="grid4136"
       spacingx="2"
       spacingy="2"
       empspacing="8"
       dotted="false"
       visible="true"
       enabled="true"
       snapvisiblegridlinesonly="true" />
  </sodipodi:namedview>
  <metadata
     id="metadata7">
    <rdf:RDF>
      <cc:Work
         rdf:about="">
        <dc:format>image/svg+xml</dc:format>
        <dc:type
           rdf:resource="http://purl.org/dc/dcmitype/StillImage" />
        <dc:title />
      </cc:Work>
    </rdf:RDF>
  </metadata>
  <g
     inkscape:label="Capa 1"
     inkscape:groupmode="layer"
     id="layer1"
     transform="translate(0,-796.36216)">
    <path
       style="color:#000000;fill:#aad400;fill-opacity:1;stroke:none;stroke-width:2;marker:none;visibility:visible;display:inline;overflow:visible;enable-background:new"
       d="M 176 0 L 176 16 L 160 16 L 160 32 L 160 48 L 160 64 L 160 80 L 160 80.425781 L 159.84375 80.425781 L 159.84375 96.339844 L 175.75586 96.339844 L 175.75586 96 L 176 96 L 192 96 L 208 96 L 224 96 L 240 96 L 240 80 L 256 80 L 256 64 L 240 64 L 224 64 L 224 48 L 240 48 L 240 32 L 256 32 L 256 16 L 256 0 L 240 0 L 224 0 L 224 16 L 208 16 L 208 32 L 192 32 L 192 16 L 192 0 L 176 0 z M 16 96 L 16 112 L 0 112 L 0 160 L 0 224 L 0 256 L 160 256 L 160 224 L 160 160 L 160 112 L 144 112 L 144 96 L 128 96 L 112 96 L 96 96 L 80 96 L 64 96 L 48 96 L 32 96 L 16 96 z M 32 160 L 128 160 L 128 224 L 32 224 L 32 160 z "
       transform="translate(0,796.36216)"
       id="rect12919-5" />
  </g>
  <g
     inkscape:groupmode="layer"
     id="layer2"
     inkscape:label="Capa 2" />
</svg>
