<?xml version="1.0" encoding="UTF-8" standalone="no"?>
<!-- Created with Inkscape (http://www.inkscape.org/) -->

<svg
   xmlns:dc="http://purl.org/dc/elements/1.1/"
   xmlns:cc="http://creativecommons.org/ns#"
   xmlns:rdf="http://www.w3.org/1999/02/22-rdf-syntax-ns#"
   xmlns:svg="http://www.w3.org/2000/svg"
   xmlns="http://www.w3.org/2000/svg"
   xmlns:sodipodi="http://sodipodi.sourceforge.net/DTD/sodipodi-0.dtd"
   xmlns:inkscape="http://www.inkscape.org/namespaces/inkscape"
   width="256"
   height="256"
   viewBox="0 0 256 256"
   id="svg2"
   version="1.1"
   inkscape:version="0.91 r13725"
   sodipodi:docname="gtk-edit.svg">
  <defs
     id="defs4" />
  <sodipodi:namedview
     id="base"
     pagecolor="#ffffff"
     bordercolor="#666666"
     borderopacity="1.0"
     inkscape:pageopacity="0.0"
     inkscape:pageshadow="2"
     inkscape:zoom="2.0522148"
     inkscape:cx="-2.454839"
     inkscape:cy="115.43626"
     inkscape:document-units="px"
     inkscape:current-layer="layer1"
     showgrid="true"
     units="px"
     inkscape:window-width="1914"
     inkscape:window-height="1030"
     inkscape:window-x="0"
     inkscape:window-y="26"
     inkscape:window-maximized="1"
     inkscape:snap-bbox="true"
     inkscape:bbox-paths="true"
     inkscape:bbox-nodes="true"
     inkscape:snap-grids="true"
     inkscape:snap-global="true">
    <inkscape:grid
       type="xygrid"
       id="grid4136"
       spacingx="2"
       spacingy="2"
       empspacing="8"
       dotted="false"
       visible="true"
       enabled="true"
       snapvisiblegridlinesonly="true" />
  </sodipodi:namedview>
  <metadata
     id="metadata7">
    <rdf:RDF>
      <cc:Work
         rdf:about="">
        <dc:format>image/svg+xml</dc:format>
        <dc:type
           rdf:resource="http://purl.org/dc/dcmitype/StillImage" />
        <dc:title />
      </cc:Work>
    </rdf:RDF>
  </metadata>
  <g
     inkscape:label="Capa 1"
     inkscape:groupmode="layer"
     id="layer1"
     transform="translate(0,-796.36216)">
    <path
       style="fill:#aad400;fill-opacity:1;stroke:none"
       d="M 48 0 L 48 16 L 32 16 L 32 32 L 32 48 L 32 64 L 32 80 L 32 96 L 32 112 L 32 128 L 32 144 L 32 160 L 48 160 L 48 144 L 64 144 L 64 128 L 64 112 L 64 96 L 80 96 L 96 96 L 112 96 L 112 80 L 128 80 L 128 64 L 112 64 L 96 64 L 80 64 L 64 64 L 64 48 L 64 32 L 80 32 L 96 32 L 112 32 L 128 32 L 144 32 L 160 32 L 176 32 L 176 16 L 192 16 L 192 0 L 176 0 L 160 0 L 144 0 L 128 0 L 112 0 L 96 0 L 80 0 L 64 0 L 48 0 z M 208 16 L 208 32 L 192 32 L 192 48 L 176 48 L 176 64 L 160 64 L 160 80 L 144 80 L 144 96 L 128 96 L 128 112 L 112 112 L 112 128 L 96 128 L 96 144 L 80 144 L 80 160 L 64 160 L 64 176 L 48 176 L 48 192 L 48 208 L 64 208 L 80 208 L 96 208 L 96 192 L 112 192 L 112 176 L 128 176 L 128 160 L 144 160 L 144 144 L 160 144 L 160 128 L 176 128 L 176 112 L 192 112 L 192 96 L 208 96 L 208 80 L 224 80 L 224 64 L 240 64 L 240 48 L 240 32 L 240 16 L 224 16 L 208 16 z M 224 96 L 224 112 L 208 112 L 208 128 L 192 128 L 192 144 L 176 144 L 176 160 L 160 160 L 160 176 L 176 176 L 192 176 L 208 176 L 208 192 L 208 208 L 192 208 L 176 208 L 160 208 L 144 208 L 128 208 L 112 208 L 112 224 L 96 224 L 96 240 L 112 240 L 128 240 L 144 240 L 160 240 L 176 240 L 192 240 L 208 240 L 224 240 L 224 224 L 240 224 L 240 208 L 240 192 L 240 176 L 240 160 L 240 144 L 240 128 L 240 112 L 240 96 L 224 96 z M 16 208 L 16 224 L 16 240 L 32 240 L 48 240 L 48 224 L 32 224 L 32 208 L 16 208 z "
       transform="translate(0,796.36216)"
       id="rect3206-61-28" />
  </g>
  <g
     inkscape:groupmode="layer"
     id="layer2"
     inkscape:label="Capa 2" />
</svg>
