<?xml version="1.0" encoding="UTF-8" standalone="no"?>
<!-- Created with Inkscape (http://www.inkscape.org/) -->

<svg
   xmlns:dc="http://purl.org/dc/elements/1.1/"
   xmlns:cc="http://creativecommons.org/ns#"
   xmlns:rdf="http://www.w3.org/1999/02/22-rdf-syntax-ns#"
   xmlns:svg="http://www.w3.org/2000/svg"
   xmlns="http://www.w3.org/2000/svg"
   xmlns:sodipodi="http://sodipodi.sourceforge.net/DTD/sodipodi-0.dtd"
   xmlns:inkscape="http://www.inkscape.org/namespaces/inkscape"
   width="256"
   height="256"
   viewBox="0 0 256 256"
   id="svg2"
   version="1.1"
   inkscape:version="0.91 r13725"
   sodipodi:docname="gtk-indent.rtl.svg">
  <defs
     id="defs4" />
  <sodipodi:namedview
     id="base"
     pagecolor="#ffffff"
     bordercolor="#666666"
     borderopacity="1.0"
     inkscape:pageopacity="0.0"
     inkscape:pageshadow="2"
     inkscape:zoom="0.51933905"
     inkscape:cx="-718.77631"
     inkscape:cy="229.09288"
     inkscape:document-units="px"
     inkscape:current-layer="layer1"
     showgrid="true"
     units="px"
     inkscape:window-width="1914"
     inkscape:window-height="1030"
     inkscape:window-x="0"
     inkscape:window-y="26"
     inkscape:window-maximized="1"
     inkscape:snap-bbox="true"
     inkscape:bbox-paths="true"
     inkscape:bbox-nodes="true"
     inkscape:snap-grids="true">
    <inkscape:grid
       type="xygrid"
       id="grid4136"
       spacingx="2"
       spacingy="2"
       empspacing="8"
       dotted="false" />
  </sodipodi:namedview>
  <metadata
     id="metadata7">
    <rdf:RDF>
      <cc:Work
         rdf:about="">
        <dc:format>image/svg+xml</dc:format>
        <dc:type
           rdf:resource="http://purl.org/dc/dcmitype/StillImage" />
        <dc:title />
      </cc:Work>
    </rdf:RDF>
  </metadata>
  <g
     inkscape:label="Capa 1"
     inkscape:groupmode="layer"
     id="layer1"
     transform="translate(0,-796.36216)">
    <path
       style="fill:#aad400;fill-opacity:1;stroke:none"
       d="M 0 16 L 0 32 L 0 48 L 16 48 L 16 64 L 32 64 L 32 80 L 32 96 L 16 96 L 16 112 L 0 112 L 0 128 L 0 144 L 16 144 L 32 144 L 48 144 L 48 128 L 64 128 L 64 112 L 80 112 L 80 96 L 96 96 L 96 80 L 96 64 L 80 64 L 80 48 L 64 48 L 64 32 L 48 32 L 48 16 L 32 16 L 16 16 L 0 16 z M 128 16 L 128 32 L 128 48 L 128 64 L 144 64 L 160 64 L 176 64 L 192 64 L 208 64 L 224 64 L 240 64 L 240 48 L 240 32 L 240 16 L 224 16 L 208 16 L 192 16 L 176 16 L 160 16 L 144 16 L 128 16 z M 128 96 L 128 112 L 128 128 L 128 144 L 144 144 L 160 144 L 176 144 L 192 144 L 208 144 L 224 144 L 240 144 L 256 144 L 256 128 L 256 112 L 256 96 L 240 96 L 224 96 L 208 96 L 192 96 L 176 96 L 160 96 L 144 96 L 128 96 z M 0 192 L 0 208 L 0 224 L 0 240 L 16 240 L 32 240 L 48 240 L 64 240 L 80 240 L 96 240 L 112 240 L 128 240 L 144 240 L 144 224 L 144 208 L 144 192 L 128 192 L 112 192 L 96 192 L 80 192 L 64 192 L 48 192 L 32 192 L 16 192 L 0 192 z "
       transform="translate(0,796.36216)"
       id="rect3360-28-7" />
  </g>
  <g
     inkscape:groupmode="layer"
     id="layer2"
     inkscape:label="Capa 2" />
</svg>
