<?xml version="1.0" encoding="UTF-8" standalone="no"?>
<!-- Created with Inkscape (http://www.inkscape.org/) -->

<svg
   xmlns:dc="http://purl.org/dc/elements/1.1/"
   xmlns:cc="http://creativecommons.org/ns#"
   xmlns:rdf="http://www.w3.org/1999/02/22-rdf-syntax-ns#"
   xmlns:svg="http://www.w3.org/2000/svg"
   xmlns="http://www.w3.org/2000/svg"
   xmlns:sodipodi="http://sodipodi.sourceforge.net/DTD/sodipodi-0.dtd"
   xmlns:inkscape="http://www.inkscape.org/namespaces/inkscape"
   width="256"
   height="256"
   viewBox="0 0 256 256"
   id="svg2"
   version="1.1"
   inkscape:version="0.91 r13725"
   sodipodi:docname="gtk-color-picker.svg">
  <defs
     id="defs4" />
  <sodipodi:namedview
     id="base"
     pagecolor="#ffffff"
     bordercolor="#666666"
     borderopacity="1.0"
     inkscape:pageopacity="0.0"
     inkscape:pageshadow="2"
     inkscape:zoom="2.0522148"
     inkscape:cx="-34.526819"
     inkscape:cy="149.05847"
     inkscape:document-units="px"
     inkscape:current-layer="layer1"
     showgrid="true"
     units="px"
     inkscape:window-width="1914"
     inkscape:window-height="1030"
     inkscape:window-x="0"
     inkscape:window-y="26"
     inkscape:window-maximized="1"
     inkscape:snap-bbox="true"
     inkscape:bbox-paths="true"
     inkscape:bbox-nodes="true"
     inkscape:snap-grids="true"
     inkscape:snap-global="true">
    <inkscape:grid
       type="xygrid"
       id="grid4136"
       spacingx="2"
       spacingy="2"
       empspacing="8"
       dotted="false"
       visible="true"
       enabled="true"
       snapvisiblegridlinesonly="true" />
  </sodipodi:namedview>
  <metadata
     id="metadata7">
    <rdf:RDF>
      <cc:Work
         rdf:about="">
        <dc:format>image/svg+xml</dc:format>
        <dc:type
           rdf:resource="http://purl.org/dc/dcmitype/StillImage" />
        <dc:title />
      </cc:Work>
    </rdf:RDF>
  </metadata>
  <g
     inkscape:label="Capa 1"
     inkscape:groupmode="layer"
     id="layer1"
     transform="translate(0,-796.36216)">
    <path
       style="fill:#aad400;fill-opacity:1;stroke:none"
       d="M 127.97656 15.976562 L 111.97656 16 L 112 32 L 111.97656 32 L 111.97656 31.976562 L 95.976562 32 L 96 48 L 95.976562 48 L 96 64 L 95.976562 64 L 96 80 L 95.976562 80 L 96 96 L 95.976562 96 L 95.976562 95.976562 L 79.976562 96 L 79.976562 95.976562 L 63.976562 96 L 64 112 L 63.976562 112 L 64 128 L 80 127.97656 L 80 128 L 96 127.97656 L 96 128 L 112 127.97656 L 112 128 L 128 127.97656 L 128 128 L 144 127.97656 L 144 128 L 143.97656 128 L 144 144 L 143.97656 144 L 144 160 L 143.97656 160 L 144 176 L 143.97656 176 L 144 192 L 143.97656 192 L 144 208 L 160 207.97656 L 159.97656 191.97656 L 160 191.97656 L 159.97656 175.97656 L 160 175.97656 L 159.97656 159.97656 L 160 159.97656 L 159.97656 143.97656 L 160 143.97656 L 159.97656 127.97656 L 160 127.97656 L 160 128 L 176 127.97656 L 176 128 L 192 127.97656 L 191.97656 111.97656 L 192 111.97656 L 191.97656 95.976562 L 175.97656 96 L 175.97656 95.976562 L 159.97656 96 L 159.97656 95.976562 L 160 95.976562 L 159.97656 79.976562 L 160 79.976562 L 159.97656 63.976562 L 160 63.976562 L 159.97656 47.976562 L 160 47.976562 L 159.97656 31.976562 L 143.97656 32 L 143.97656 31.976562 L 144 31.976562 L 143.97656 15.976562 L 127.97656 16 L 127.97656 15.976562 z M 112 128 L 96 128.02344 L 96.023438 144 L 95.976562 144 L 96 160 L 95.976562 160 L 96 176 L 95.976562 176 L 96 192 L 95.976562 192 L 96 208 L 112 207.97656 L 111.97656 191.97656 L 112 191.97656 L 111.97656 175.97656 L 112 175.97656 L 111.97656 159.97656 L 112 159.97656 L 111.97656 144 L 112.02344 144 L 112 128 z M 127.97656 31.976562 L 128 31.976562 L 128 32 L 127.97656 32 L 127.97656 31.976562 z M 111.97656 47.976562 L 112 47.976562 L 112 48 L 111.97656 48 L 111.97656 47.976562 z M 127.97656 47.976562 L 128 47.976562 L 128 48 L 127.97656 48 L 127.97656 47.976562 z M 143.97656 47.976562 L 144 47.976562 L 144 48 L 143.97656 48 L 143.97656 47.976562 z M 111.97656 63.976562 L 112 63.976562 L 112 64 L 111.97656 64 L 111.97656 63.976562 z M 127.97656 63.976562 L 128 63.976562 L 128 64 L 127.97656 64 L 127.97656 63.976562 z M 143.97656 63.976562 L 144 63.976562 L 144 64 L 143.97656 64 L 143.97656 63.976562 z M 111.97656 79.976562 L 112 79.976562 L 112 80 L 111.97656 80 L 111.97656 79.976562 z M 127.97656 79.976562 L 128 79.976562 L 128 80 L 127.97656 80 L 127.97656 79.976562 z M 143.97656 79.976562 L 144 79.976562 L 144 80 L 143.97656 80 L 143.97656 79.976562 z M 111.97656 95.976562 L 112 95.976562 L 112 96 L 111.97656 96 L 111.97656 95.976562 z M 127.97656 95.976562 L 128 95.976562 L 128 96 L 127.97656 96 L 127.97656 95.976562 z M 143.97656 95.976562 L 144 95.976562 L 144 96 L 143.97656 96 L 143.97656 95.976562 z M 79.976562 111.97656 L 80 111.97656 L 80 112 L 79.976562 112 L 79.976562 111.97656 z M 95.976562 111.97656 L 96 111.97656 L 96 112 L 95.976562 112 L 95.976562 111.97656 z M 111.97656 111.97656 L 112 111.97656 L 112 112 L 111.97656 112 L 111.97656 111.97656 z M 127.97656 111.97656 L 128 111.97656 L 128 112 L 127.97656 112 L 127.97656 111.97656 z M 143.97656 111.97656 L 144 111.97656 L 144 112 L 143.97656 112 L 143.97656 111.97656 z M 159.97656 111.97656 L 160 111.97656 L 160 112 L 159.97656 112 L 159.97656 111.97656 z M 175.97656 111.97656 L 176 111.97656 L 176 112 L 175.97656 112 L 175.97656 111.97656 z M 127.97656 207.97656 L 111.97656 208 L 112 224 L 111.97656 224 L 112 240 L 128 239.97656 L 128 240 L 144 239.97656 L 143.97656 223.97656 L 144 223.97656 L 143.97656 207.97656 L 127.97656 208 L 127.97656 207.97656 z M 127.97656 223.97656 L 128 223.97656 L 128 224 L 127.97656 224 L 127.97656 223.97656 z "
       transform="translate(0,796.36216)"
       id="rect3360-0-097-4" />
  </g>
  <g
     inkscape:groupmode="layer"
     id="layer2"
     inkscape:label="Capa 2" />
</svg>
