<?xml version="1.0" encoding="UTF-8" standalone="no"?>
<!-- Created with Inkscape (http://www.inkscape.org/) -->

<svg
   xmlns:dc="http://purl.org/dc/elements/1.1/"
   xmlns:cc="http://creativecommons.org/ns#"
   xmlns:rdf="http://www.w3.org/1999/02/22-rdf-syntax-ns#"
   xmlns:svg="http://www.w3.org/2000/svg"
   xmlns="http://www.w3.org/2000/svg"
   xmlns:sodipodi="http://sodipodi.sourceforge.net/DTD/sodipodi-0.dtd"
   xmlns:inkscape="http://www.inkscape.org/namespaces/inkscape"
   width="256"
   height="256"
   viewBox="0 0 256 256"
   id="svg2"
   version="1.1"
   inkscape:version="0.91 r13725"
   sodipodi:docname="gtk-zoom-out.svg">
  <defs
     id="defs4" />
  <sodipodi:namedview
     id="base"
     pagecolor="#ffffff"
     bordercolor="#666666"
     borderopacity="1.0"
     inkscape:pageopacity="0.0"
     inkscape:pageshadow="2"
     inkscape:zoom="1.763637"
     inkscape:cx="-17.021829"
     inkscape:cy="41.167338"
     inkscape:document-units="px"
     inkscape:current-layer="layer1"
     showgrid="true"
     units="px"
     inkscape:window-width="1914"
     inkscape:window-height="1030"
     inkscape:window-x="0"
     inkscape:window-y="26"
     inkscape:window-maximized="1"
     inkscape:snap-bbox="true"
     inkscape:bbox-paths="true"
     inkscape:bbox-nodes="true"
     inkscape:snap-grids="true">
    <inkscape:grid
       type="xygrid"
       id="grid4136"
       spacingx="2"
       spacingy="2"
       empspacing="8"
       dotted="false" />
  </sodipodi:namedview>
  <metadata
     id="metadata7">
    <rdf:RDF>
      <cc:Work
         rdf:about="">
        <dc:format>image/svg+xml</dc:format>
        <dc:type
           rdf:resource="http://purl.org/dc/dcmitype/StillImage" />
        <dc:title></dc:title>
      </cc:Work>
    </rdf:RDF>
  </metadata>
  <g
     inkscape:label="Capa 1"
     inkscape:groupmode="layer"
     id="layer1"
     transform="translate(0,-796.36216)">
    <path
       style="fill:#aad400;fill-opacity:1;stroke:none"
       d="M 16 0 L 16 16 L 0 16 L 0 240 L 16 240 L 16 256 L 240 256 L 240 240 L 256 240 L 256 224 L 256 32 L 256 16 L 240 16 L 240 0 L 32 0 L 16 0 z M 48 112 L 64 112 L 80 112 L 96 112 L 112 112 L 128 112 L 144 112 L 160 112 L 176 112 L 192 112 L 208 112 L 208 144 L 192 144 L 176 144 L 160 144 L 144 144 L 128 144 L 112 144 L 96 144 L 80 144 L 64 144 L 48 144 L 48 112 z "
       transform="translate(0,796.36216)"
       id="rect3058-1-98-3" />
  </g>
  <g
     inkscape:groupmode="layer"
     id="layer2"
     inkscape:label="Capa 2" />
</svg>
