<?xml version="1.0" encoding="UTF-8" standalone="no"?>
<!-- Created with Inkscape (http://www.inkscape.org/) -->

<svg
   xmlns:dc="http://purl.org/dc/elements/1.1/"
   xmlns:cc="http://creativecommons.org/ns#"
   xmlns:rdf="http://www.w3.org/1999/02/22-rdf-syntax-ns#"
   xmlns:svg="http://www.w3.org/2000/svg"
   xmlns="http://www.w3.org/2000/svg"
   xmlns:sodipodi="http://sodipodi.sourceforge.net/DTD/sodipodi-0.dtd"
   xmlns:inkscape="http://www.inkscape.org/namespaces/inkscape"
   width="256"
   height="256"
   viewBox="0 0 256 256"
   id="svg2"
   version="1.1"
   inkscape:version="0.91 r13725"
   sodipodi:docname="gtk-disconnect.svg">
  <defs
     id="defs4" />
  <sodipodi:namedview
     id="base"
     pagecolor="#ffffff"
     bordercolor="#666666"
     borderopacity="1.0"
     inkscape:pageopacity="0.0"
     inkscape:pageshadow="2"
     inkscape:zoom="2.0522148"
     inkscape:cx="32.560711"
     inkscape:cy="149.05847"
     inkscape:document-units="px"
     inkscape:current-layer="layer1"
     showgrid="true"
     units="px"
     inkscape:window-width="1914"
     inkscape:window-height="1030"
     inkscape:window-x="0"
     inkscape:window-y="26"
     inkscape:window-maximized="1"
     inkscape:snap-bbox="true"
     inkscape:bbox-paths="true"
     inkscape:bbox-nodes="true"
     inkscape:snap-grids="true"
     inkscape:snap-global="true">
    <inkscape:grid
       type="xygrid"
       id="grid4136"
       spacingx="2"
       spacingy="2"
       empspacing="8"
       dotted="false"
       visible="true"
       enabled="true"
       snapvisiblegridlinesonly="true" />
  </sodipodi:namedview>
  <metadata
     id="metadata7">
    <rdf:RDF>
      <cc:Work
         rdf:about="">
        <dc:format>image/svg+xml</dc:format>
        <dc:type
           rdf:resource="http://purl.org/dc/dcmitype/StillImage" />
        <dc:title />
      </cc:Work>
    </rdf:RDF>
  </metadata>
  <g
     inkscape:label="Capa 1"
     inkscape:groupmode="layer"
     id="layer1"
     transform="translate(0,-796.36216)">
    <path
       style="fill:#aad400;fill-opacity:1;stroke:none"
       d="M 144 48 L 128 48.023438 L 128.02344 64.023438 L 128 64.023438 L 128 64 L 112 64.023438 L 112 64 L 96 64.023438 L 96.023438 80.023438 L 96 80.023438 L 96 80 L 80 80.023438 L 80 80 L 64 80.023438 L 64.023438 96.023438 L 64 96.023438 L 64.023438 112.02344 L 64 112.02344 L 64 112 L 48 112.02344 L 48.023438 128.02344 L 64.023438 128 L 64.023438 128.02344 L 64 128.02344 L 64.023438 144.02344 L 64 144.02344 L 64.023438 160.02344 L 80.023438 160 L 80.023438 160.02344 L 96.023438 160 L 96.023438 160.02344 L 96 160.02344 L 96.023438 176.02344 L 112.02344 176 L 112.02344 176.02344 L 128.02344 176 L 128.02344 176.02344 L 128 176.02344 L 128.02344 192.02344 L 144.02344 192 L 144.02344 192.02344 L 160.02344 192 L 160.02344 192.02344 L 176.02344 192 L 176.02344 192.02344 L 192.02344 192 L 192 176 L 192.02344 176 L 192.02344 176.02344 L 208.02344 176 L 208.02344 176.02344 L 224.02344 176 L 224 160 L 224.02344 160 L 224 144 L 208 144.02344 L 208 144 L 192 144.02344 L 192 144 L 192.02344 144 L 192 128 L 192.02344 128 L 192 112 L 192.02344 112 L 192 96 L 192.02344 96 L 192.02344 96.023438 L 208.02344 96 L 208.02344 96.023438 L 224.02344 96 L 224 80 L 224.02344 80 L 224 64 L 208 64.023438 L 208 64 L 192 64.023438 L 192 64 L 192.02344 64 L 192 48 L 176 48.023438 L 176 48 L 160 48.023438 L 160 48 L 144 48.023438 L 144 48 z M 144 64 L 144.02344 64 L 144.02344 64.023438 L 144 64.023438 L 144 64 z M 160 64 L 160.02344 64 L 160.02344 64.023438 L 160 64.023438 L 160 64 z M 176 64 L 176.02344 64 L 176.02344 64.023438 L 176 64.023438 L 176 64 z M 112 80 L 112.02344 80 L 112.02344 80.023438 L 112 80.023438 L 112 80 z M 128 80 L 128.02344 80 L 128.02344 80.023438 L 128 80.023438 L 128 80 z M 144 80 L 144.02344 80 L 144.02344 80.023438 L 144 80.023438 L 144 80 z M 160 80 L 160.02344 80 L 160.02344 80.023438 L 160 80.023438 L 160 80 z M 176 80 L 176.02344 80 L 176.02344 80.023438 L 176 80.023438 L 176 80 z M 80 96 L 80.023438 96 L 80.023438 96.023438 L 80 96.023438 L 80 96 z M 96 96 L 96.023438 96 L 96.023438 96.023438 L 96 96.023438 L 96 96 z M 112 96 L 112.02344 96 L 112.02344 96.023438 L 112 96.023438 L 112 96 z M 128 96 L 128.02344 96 L 128.02344 96.023438 L 128 96.023438 L 128 96 z M 144 96 L 144.02344 96 L 144.02344 96.023438 L 144 96.023438 L 144 96 z M 80 112 L 80.023438 112 L 80.023438 112.02344 L 80 112.02344 L 80 112 z M 48 128 L 32 128.02344 L 32.023438 144.02344 L 48.023438 144 L 48 128 z M 32 144 L 16 144.02344 L 16.023438 160.02344 L 16 160.02344 L 16.023438 176.02344 L 16 176.02344 L 16.023438 192.02344 L 16 192.02344 L 16.023438 208.02344 L 16 208.02344 L 16.023438 224.02344 L 16 224.02344 L 16.023438 240.02344 L 32.023438 240 L 32 224 L 32.023438 224 L 32 208 L 32.023438 208 L 32 192 L 32.023438 192 L 32 176 L 32.023438 176 L 32 160 L 32.023438 160 L 32 144 z M 80 144 L 80.023438 144 L 80.023438 144.02344 L 80 144.02344 L 80 144 z M 96 144 L 96.023438 144 L 96.023438 144.02344 L 96 144.02344 L 96 144 z M 144 176 L 144.02344 176 L 144.02344 176.02344 L 144 176.02344 L 144 176 z M 160 176 L 160.02344 176 L 160.02344 176.02344 L 160 176.02344 L 160 176 z M 176 176 L 176.02344 176 L 176.02344 176.02344 L 176 176.02344 L 176 176 z "
       transform="translate(0,796.36216)"
       id="rect3360-0-097-815-8" />
    <path
       style="fill:#aad400;fill-opacity:1;stroke:none"
       d="M 255.97656 32 L 239.97656 32.023438 L 240 48.023438 L 239.97656 48.023438 L 240 64.023438 L 239.97656 64.023438 L 240 80.023438 L 239.97656 80.023438 L 240 96.023438 L 239.97656 96.023438 L 240 112.02344 L 239.97656 112.02344 L 240 128.02344 L 239.97656 128.02344 L 240 144.02344 L 239.97656 144.02344 L 240 160.02344 L 239.97656 160.02344 L 240 176.02344 L 239.97656 176.02344 L 240 192.02344 L 239.97656 192.02344 L 240 208.02344 L 256 208 L 255.97656 192 L 256 192 L 255.97656 176 L 256 176 L 255.97656 160 L 256 160 L 255.97656 144 L 256 144 L 255.97656 128 L 256 128 L 255.97656 112 L 256 112 L 255.97656 96 L 256 96 L 255.97656 80 L 256 80 L 255.97656 64 L 256 64 L 255.97656 48 L 256 48 L 255.97656 32 z "
       transform="translate(0,796.36216)"
       id="rect3360-0-097-815-70" />
  </g>
  <g
     inkscape:groupmode="layer"
     id="layer2"
     inkscape:label="Capa 2" />
</svg>
