<?xml version="1.0" encoding="UTF-8" standalone="no"?>
<!-- Created with Inkscape (http://www.inkscape.org/) -->

<svg
   xmlns:dc="http://purl.org/dc/elements/1.1/"
   xmlns:cc="http://creativecommons.org/ns#"
   xmlns:rdf="http://www.w3.org/1999/02/22-rdf-syntax-ns#"
   xmlns:svg="http://www.w3.org/2000/svg"
   xmlns="http://www.w3.org/2000/svg"
   xmlns:sodipodi="http://sodipodi.sourceforge.net/DTD/sodipodi-0.dtd"
   xmlns:inkscape="http://www.inkscape.org/namespaces/inkscape"
   width="256"
   height="256"
   viewBox="0 0 256 256"
   id="svg2"
   version="1.1"
   inkscape:version="0.48.5 r10040"
   sodipodi:docname="gtk-orientation-portrait.svg">
  <defs
     id="defs4" />
  <sodipodi:namedview
     id="base"
     pagecolor="#ffffff"
     bordercolor="#666666"
     borderopacity="1.0"
     inkscape:pageopacity="0.0"
     inkscape:pageshadow="2"
     inkscape:zoom="1.763637"
     inkscape:cx="78.39674"
     inkscape:cy="41.167338"
     inkscape:document-units="px"
     inkscape:current-layer="layer1"
     showgrid="true"
     units="px"
     inkscape:window-width="1914"
     inkscape:window-height="1031"
     inkscape:window-x="0"
     inkscape:window-y="25"
     inkscape:window-maximized="1"
     inkscape:snap-bbox="true"
     inkscape:bbox-paths="true"
     inkscape:bbox-nodes="true"
     inkscape:snap-grids="true">
    <inkscape:grid
       type="xygrid"
       id="grid4136"
       spacingx="2"
       spacingy="2"
       empspacing="8"
       dotted="false" />
  </sodipodi:namedview>
  <metadata
     id="metadata7">
    <rdf:RDF>
      <cc:Work
         rdf:about="">
        <dc:format>image/svg+xml</dc:format>
        <dc:type
           rdf:resource="http://purl.org/dc/dcmitype/StillImage" />
        <dc:title />
      </cc:Work>
    </rdf:RDF>
  </metadata>
  <g
     inkscape:label="Capa 1"
     inkscape:groupmode="layer"
     id="layer1"
     transform="translate(0,-796.36216)">
    <rect
       style="fill:#aad400;fill-opacity:1;stroke:none"
       id="rect3058-1-98-3-5-1"
       width="16"
       height="16"
       x="-1036.3622"
       y="32.000004"
       transform="matrix(0,-1,1,0,0,0)" />
    <rect
       style="fill:#aad400;fill-opacity:1;stroke:none"
       id="rect3058-1-98-3-5-8"
       width="16"
       height="16"
       x="-1052.3622"
       y="48.000004"
       transform="matrix(0,-1,1,0,0,0)" />
    <rect
       style="fill:#aad400;fill-opacity:1;stroke:none"
       id="rect3058-1-98-3-5-4"
       width="16"
       height="16"
       x="-1036.3622"
       y="48.000004"
       transform="matrix(0,-1,1,0,0,0)" />
    <rect
       style="fill:#aad400;fill-opacity:1;stroke:none"
       id="rect3058-1-98-3-5-7"
       width="16"
       height="16"
       x="-1004.3622"
       y="48.000004"
       transform="matrix(0,-1,1,0,0,0)" />
    <rect
       style="fill:#aad400;fill-opacity:1;stroke:none"
       id="rect3058-1-98-3-5-83"
       width="16"
       height="16"
       x="-1020.3622"
       y="48.000004"
       transform="matrix(0,-1,1,0,0,0)" />
    <rect
       style="fill:#aad400;fill-opacity:1;stroke:none"
       id="rect3058-1-98-3-5-89"
       width="16"
       height="16"
       x="-988.36218"
       y="48.000004"
       transform="matrix(0,-1,1,0,0,0)" />
    <rect
       style="fill:#aad400;fill-opacity:1;stroke:none"
       id="rect3058-1-98-3-5-3"
       width="16"
       height="16"
       x="-972.36218"
       y="48.000004"
       transform="matrix(0,-1,1,0,0,0)" />
    <rect
       style="fill:#aad400;fill-opacity:1;stroke:none"
       id="rect3058-1-98-3-5-02"
       width="16"
       height="16"
       x="-956.36218"
       y="48.000004"
       transform="matrix(0,-1,1,0,0,0)" />
    <rect
       style="fill:#aad400;fill-opacity:1;stroke:none"
       id="rect3058-1-98-3-5-15"
       width="16"
       height="16"
       x="-940.36218"
       y="48.000004"
       transform="matrix(0,-1,1,0,0,0)" />
    <rect
       style="fill:#aad400;fill-opacity:1;stroke:none"
       id="rect3058-1-98-3-5-35"
       width="16"
       height="16"
       x="-908.36218"
       y="48.000004"
       transform="matrix(0,-1,1,0,0,0)" />
    <rect
       style="fill:#aad400;fill-opacity:1;stroke:none"
       id="rect3058-1-98-3-5-024"
       width="16"
       height="16"
       x="-924.36218"
       y="48.000004"
       transform="matrix(0,-1,1,0,0,0)" />
    <rect
       style="fill:#aad400;fill-opacity:1;stroke:none"
       id="rect3058-1-98-3-5-838"
       width="16"
       height="16"
       x="-892.36218"
       y="48.000004"
       transform="matrix(0,-1,1,0,0,0)" />
    <rect
       style="fill:#aad400;fill-opacity:1;stroke:none"
       id="rect3058-1-98-3-5-07"
       width="16"
       height="16"
       x="-876.36218"
       y="48.000004"
       transform="matrix(0,-1,1,0,0,0)" />
    <rect
       style="fill:#aad400;fill-opacity:1;stroke:none"
       id="rect3058-1-98-3-5-06"
       width="16"
       height="16"
       x="-844.36218"
       y="48.000004"
       transform="matrix(0,-1,1,0,0,0)" />
    <rect
       style="fill:#aad400;fill-opacity:1;stroke:none"
       id="rect3058-1-98-3-5-04"
       width="16"
       height="16"
       x="-860.36218"
       y="48.000004"
       transform="matrix(0,-1,1,0,0,0)" />
    <rect
       style="fill:#aad400;fill-opacity:1;stroke:none"
       id="rect3058-1-98-3-5-6"
       width="16"
       height="16"
       x="-828.36218"
       y="48.000004"
       transform="matrix(0,-1,1,0,0,0)" />
    <rect
       style="fill:#aad400;fill-opacity:1;stroke:none"
       id="rect3058-1-98-3-5-33"
       width="16"
       height="16"
       x="-812.36218"
       y="48.000004"
       transform="matrix(0,-1,1,0,0,0)" />
    <rect
       style="fill:#aad400;fill-opacity:1;stroke:none"
       id="rect3058-1-98-3-5-5"
       width="16"
       height="16"
       x="-828.36218"
       y="32.000004"
       transform="matrix(0,-1,1,0,0,0)" />
    <rect
       style="fill:#aad400;fill-opacity:1;stroke:none"
       id="rect3058-1-98-3-5-41"
       width="16"
       height="16"
       x="-844.36218"
       y="32.000004"
       transform="matrix(0,-1,1,0,0,0)" />
    <rect
       style="fill:#aad400;fill-opacity:1;stroke:none"
       id="rect3058-1-98-3-5-13"
       width="16"
       height="16"
       x="-860.36218"
       y="32.000004"
       transform="matrix(0,-1,1,0,0,0)" />
    <rect
       style="fill:#aad400;fill-opacity:1;stroke:none"
       id="rect3058-1-98-3-5-151"
       width="16"
       height="16"
       x="-876.36218"
       y="32.000004"
       transform="matrix(0,-1,1,0,0,0)" />
    <rect
       style="fill:#aad400;fill-opacity:1;stroke:none"
       id="rect3058-1-98-3-5-10"
       width="16"
       height="16"
       x="-892.36218"
       y="32.000004"
       transform="matrix(0,-1,1,0,0,0)" />
    <rect
       style="fill:#aad400;fill-opacity:1;stroke:none"
       id="rect3058-1-98-3-5-353"
       width="16"
       height="16"
       x="-908.36218"
       y="32.000004"
       transform="matrix(0,-1,1,0,0,0)" />
    <rect
       style="fill:#aad400;fill-opacity:1;stroke:none"
       id="rect3058-1-98-3-5-9"
       width="16"
       height="16"
       x="-924.36218"
       y="32.000004"
       transform="matrix(0,-1,1,0,0,0)" />
    <rect
       style="fill:#aad400;fill-opacity:1;stroke:none"
       id="rect3058-1-98-3-5-08"
       width="16"
       height="16"
       x="-940.36218"
       y="32.000004"
       transform="matrix(0,-1,1,0,0,0)" />
    <rect
       style="fill:#aad400;fill-opacity:1;stroke:none"
       id="rect3058-1-98-3-5-14"
       width="16"
       height="16"
       x="-956.36218"
       y="32.000004"
       transform="matrix(0,-1,1,0,0,0)" />
    <rect
       style="fill:#aad400;fill-opacity:1;stroke:none"
       id="rect3058-1-98-3-5-49"
       width="16"
       height="16"
       x="-972.36218"
       y="32.000004"
       transform="matrix(0,-1,1,0,0,0)" />
    <rect
       style="fill:#aad400;fill-opacity:1;stroke:none"
       id="rect3058-1-98-3-5-72"
       width="16"
       height="16"
       x="-988.36218"
       y="32.000004"
       transform="matrix(0,-1,1,0,0,0)" />
    <rect
       style="fill:#aad400;fill-opacity:1;stroke:none"
       id="rect3058-1-98-3-5-17"
       width="16"
       height="16"
       x="-1004.3622"
       y="32.000004"
       transform="matrix(0,-1,1,0,0,0)" />
    <rect
       style="fill:#aad400;fill-opacity:1;stroke:none"
       id="rect3058-1-98-3-5-47"
       width="16"
       height="16"
       x="-1020.3622"
       y="32.000004"
       transform="matrix(0,-1,1,0,0,0)" />
    <rect
       style="fill:#aad400;fill-opacity:1;stroke:none"
       id="rect3058-1-98-3-5-91"
       width="16"
       height="16"
       x="-1052.3622"
       y="64"
       transform="matrix(0,-1,1,0,0,0)" />
    <rect
       style="fill:#aad400;fill-opacity:1;stroke:none"
       id="rect3058-1-98-3-5-62"
       width="16"
       height="16"
       x="-1036.3622"
       y="64"
       transform="matrix(0,-1,1,0,0,0)" />
    <rect
       style="fill:#aad400;fill-opacity:1;stroke:none"
       id="rect3058-1-98-3-5-43"
       width="16"
       height="16"
       x="-1052.3622"
       y="80"
       transform="matrix(0,-1,1,0,0,0)" />
    <rect
       style="fill:#aad400;fill-opacity:1;stroke:none"
       id="rect3058-1-98-3-5-87"
       width="16"
       height="16"
       x="-1036.3622"
       y="80"
       transform="matrix(0,-1,1,0,0,0)" />
    <rect
       style="fill:#aad400;fill-opacity:1;stroke:none"
       id="rect3058-1-98-3-5-419"
       width="16"
       height="16"
       x="-1052.3622"
       y="96"
       transform="matrix(0,-1,1,0,0,0)" />
    <rect
       style="fill:#aad400;fill-opacity:1;stroke:none"
       id="rect3058-1-98-3-5-132"
       width="16"
       height="16"
       x="-1036.3622"
       y="96"
       transform="matrix(0,-1,1,0,0,0)" />
    <rect
       style="fill:#aad400;fill-opacity:1;stroke:none"
       id="rect3058-1-98-3-5-38"
       width="16"
       height="16"
       x="-1052.3622"
       y="112"
       transform="matrix(0,-1,1,0,0,0)" />
    <rect
       style="fill:#aad400;fill-opacity:1;stroke:none"
       id="rect3058-1-98-3-5-98"
       width="16"
       height="16"
       x="-1036.3622"
       y="112"
       transform="matrix(0,-1,1,0,0,0)" />
    <rect
       style="fill:#aad400;fill-opacity:1;stroke:none"
       id="rect3058-1-98-3-5-99"
       width="16"
       height="16"
       x="-1052.3622"
       y="128"
       transform="matrix(0,-1,1,0,0,0)" />
    <rect
       style="fill:#aad400;fill-opacity:1;stroke:none"
       id="rect3058-1-98-3-5-60"
       width="16"
       height="16"
       x="-1036.3622"
       y="128"
       transform="matrix(0,-1,1,0,0,0)" />
    <rect
       style="fill:#aad400;fill-opacity:1;stroke:none"
       id="rect3058-1-98-3-5-52"
       width="16"
       height="16"
       x="-1052.3622"
       y="144"
       transform="matrix(0,-1,1,0,0,0)" />
    <rect
       style="fill:#aad400;fill-opacity:1;stroke:none"
       id="rect3058-1-98-3-5-045"
       width="16"
       height="16"
       x="-1036.3622"
       y="144"
       transform="matrix(0,-1,1,0,0,0)" />
    <rect
       style="fill:#aad400;fill-opacity:1;stroke:none"
       id="rect3058-1-98-3-5-31"
       width="16"
       height="16"
       x="-1052.3622"
       y="160"
       transform="matrix(0,-1,1,0,0,0)" />
    <rect
       style="fill:#aad400;fill-opacity:1;stroke:none"
       id="rect3058-1-98-3-5-911"
       width="16"
       height="16"
       x="-1036.3622"
       y="160"
       transform="matrix(0,-1,1,0,0,0)" />
    <rect
       style="fill:#aad400;fill-opacity:1;stroke:none"
       id="rect3058-1-98-3-5-2"
       width="16"
       height="16"
       x="-1052.3622"
       y="176"
       transform="matrix(0,-1,1,0,0,0)" />
    <rect
       style="fill:#aad400;fill-opacity:1;stroke:none"
       id="rect3058-1-98-3-5-95"
       width="16"
       height="16"
       x="-1036.3622"
       y="176"
       transform="matrix(0,-1,1,0,0,0)" />
    <rect
       style="fill:#aad400;fill-opacity:1;stroke:none"
       id="rect3058-1-98-3-5-624"
       width="16"
       height="16"
       x="-1052.3622"
       y="192"
       transform="matrix(0,-1,1,0,0,0)" />
    <rect
       style="fill:#aad400;fill-opacity:1;stroke:none"
       id="rect3058-1-98-3-5-68"
       width="16"
       height="16"
       x="-1036.3622"
       y="208"
       transform="matrix(0,-1,1,0,0,0)" />
    <rect
       style="fill:#aad400;fill-opacity:1;stroke:none"
       id="rect3058-1-98-3-5-75"
       width="16"
       height="16"
       x="-1036.3622"
       y="192"
       transform="matrix(0,-1,1,0,0,0)" />
    <rect
       style="fill:#aad400;fill-opacity:1;stroke:none"
       id="rect3058-1-98-3-5-029"
       width="16"
       height="16"
       x="-1020.3622"
       y="208"
       transform="matrix(0,-1,1,0,0,0)" />
    <rect
       style="fill:#aad400;fill-opacity:1;stroke:none"
       id="rect3058-1-98-3-5-51"
       width="16"
       height="16"
       x="-1004.3622"
       y="208"
       transform="matrix(0,-1,1,0,0,0)" />
    <rect
       style="fill:#aad400;fill-opacity:1;stroke:none"
       id="rect3058-1-98-3-5-84"
       width="16"
       height="16"
       x="-1036.3622"
       y="224"
       transform="matrix(0,-1,1,0,0,0)" />
    <rect
       style="fill:#aad400;fill-opacity:1;stroke:none"
       id="rect3058-1-98-3-5-09"
       width="16"
       height="16"
       x="-1020.3622"
       y="224"
       transform="matrix(0,-1,1,0,0,0)" />
    <rect
       style="fill:#aad400;fill-opacity:1;stroke:none"
       id="rect3058-1-98-3-5-01"
       width="16"
       height="16"
       x="-1004.3622"
       y="224"
       transform="matrix(0,-1,1,0,0,0)" />
    <rect
       style="fill:#aad400;fill-opacity:1;stroke:none"
       id="rect3058-1-98-3-5-45"
       width="16"
       height="16"
       x="-988.36218"
       y="224"
       transform="matrix(0,-1,1,0,0,0)" />
    <rect
       style="fill:#aad400;fill-opacity:1;stroke:none"
       id="rect3058-1-98-3-5-380"
       width="16"
       height="16"
       x="-956.36218"
       y="224"
       transform="matrix(0,-1,1,0,0,0)" />
    <rect
       style="fill:#aad400;fill-opacity:1;stroke:none"
       id="rect3058-1-98-3-5-621"
       width="16"
       height="16"
       x="-972.36218"
       y="224"
       transform="matrix(0,-1,1,0,0,0)" />
    <rect
       style="fill:#aad400;fill-opacity:1;stroke:none"
       id="rect3058-1-98-3-5-954"
       width="16"
       height="16"
       x="-972.36218"
       y="208"
       transform="matrix(0,-1,1,0,0,0)" />
    <rect
       style="fill:#aad400;fill-opacity:1;stroke:none"
       id="rect3058-1-98-3-5-82"
       width="16"
       height="16"
       x="-988.36218"
       y="208"
       transform="matrix(0,-1,1,0,0,0)" />
    <rect
       style="fill:#aad400;fill-opacity:1;stroke:none"
       id="rect3058-1-98-3-5-22"
       width="16"
       height="16"
       x="-956.36218"
       y="208"
       transform="matrix(0,-1,1,0,0,0)" />
    <rect
       style="fill:#aad400;fill-opacity:1;stroke:none"
       id="rect3058-1-98-3-5-681"
       width="16"
       height="16"
       x="-940.36218"
       y="208"
       transform="matrix(0,-1,1,0,0,0)" />
    <rect
       style="fill:#aad400;fill-opacity:1;stroke:none"
       id="rect3058-1-98-3-5-65"
       width="16"
       height="16"
       x="-940.36218"
       y="224"
       transform="matrix(0,-1,1,0,0,0)" />
    <rect
       style="fill:#aad400;fill-opacity:1;stroke:none"
       id="rect3058-1-98-3-5-18"
       width="16"
       height="16"
       x="-924.36218"
       y="208"
       transform="matrix(0,-1,1,0,0,0)" />
    <rect
       style="fill:#aad400;fill-opacity:1;stroke:none"
       id="rect3058-1-98-3-5-66"
       width="16"
       height="16"
       x="-924.36218"
       y="224"
       transform="matrix(0,-1,1,0,0,0)" />
    <rect
       style="fill:#aad400;fill-opacity:1;stroke:none"
       id="rect3058-1-98-3-5-96"
       width="16"
       height="16"
       x="-908.36218"
       y="224"
       transform="matrix(0,-1,1,0,0,0)" />
    <rect
       style="fill:#aad400;fill-opacity:1;stroke:none"
       id="rect3058-1-98-3-5-225"
       width="16"
       height="16"
       x="-908.36218"
       y="208"
       transform="matrix(0,-1,1,0,0,0)" />
    <rect
       style="fill:#aad400;fill-opacity:1;stroke:none"
       id="rect3058-1-98-3-5-351"
       width="16"
       height="16"
       x="-892.36218"
       y="208"
       transform="matrix(0,-1,1,0,0,0)" />
    <rect
       style="fill:#aad400;fill-opacity:1;stroke:none"
       id="rect3058-1-98-3-5-88"
       width="16"
       height="16"
       x="-892.36218"
       y="224"
       transform="matrix(0,-1,1,0,0,0)" />
    <rect
       style="fill:#aad400;fill-opacity:1;stroke:none"
       id="rect3058-1-98-3-5-663"
       width="16"
       height="16"
       x="-876.36218"
       y="208"
       transform="matrix(0,-1,1,0,0,0)" />
    <rect
       style="fill:#aad400;fill-opacity:1;stroke:none"
       id="rect3058-1-98-3-5-839"
       width="16"
       height="16"
       x="-876.36218"
       y="224"
       transform="matrix(0,-1,1,0,0,0)" />
    <rect
       style="fill:#aad400;fill-opacity:1;stroke:none"
       id="rect3058-1-98-3-5-652"
       width="16"
       height="16"
       x="-860.36218"
       y="208"
       transform="matrix(0,-1,1,0,0,0)" />
    <rect
       style="fill:#aad400;fill-opacity:1;stroke:none"
       id="rect3058-1-98-3-5-142"
       width="16"
       height="16"
       x="-844.36218"
       y="192"
       transform="matrix(0,-1,1,0,0,0)" />
    <rect
       style="fill:#aad400;fill-opacity:1;stroke:none"
       id="rect3058-1-98-3-5-20"
       width="16"
       height="16"
       x="-828.36218"
       y="176"
       transform="matrix(0,-1,1,0,0,0)" />
    <rect
       style="fill:#aad400;fill-opacity:1;stroke:none"
       id="rect3058-1-98-3-5-05"
       width="16"
       height="16"
       x="-812.36218"
       y="160"
       transform="matrix(0,-1,1,0,0,0)" />
    <rect
       style="fill:#aad400;fill-opacity:1;stroke:none"
       id="rect3058-1-98-3-5-063"
       width="16"
       height="16"
       x="-812.36218"
       y="144"
       transform="matrix(0,-1,1,0,0,0)" />
    <rect
       style="fill:#aad400;fill-opacity:1;stroke:none"
       id="rect3058-1-98-3-5-23"
       width="16"
       height="16"
       x="-812.36218"
       y="128"
       transform="matrix(0,-1,1,0,0,0)" />
    <rect
       style="fill:#aad400;fill-opacity:1;stroke:none"
       id="rect3058-1-98-3-5-64"
       width="16"
       height="16"
       x="-812.36218"
       y="112"
       transform="matrix(0,-1,1,0,0,0)" />
    <rect
       style="fill:#aad400;fill-opacity:1;stroke:none"
       id="rect3058-1-98-3-5-019"
       width="16"
       height="16"
       x="-812.36218"
       y="96"
       transform="matrix(0,-1,1,0,0,0)" />
    <rect
       style="fill:#aad400;fill-opacity:1;stroke:none"
       id="rect3058-1-98-3-5-4196"
       width="16"
       height="16"
       x="-812.36218"
       y="80"
       transform="matrix(0,-1,1,0,0,0)" />
    <rect
       style="fill:#aad400;fill-opacity:1;stroke:none"
       id="rect3058-1-98-3-5-37"
       width="16"
       height="16"
       x="-812.36218"
       y="64"
       transform="matrix(0,-1,1,0,0,0)" />
    <rect
       style="fill:#aad400;fill-opacity:1;stroke:none"
       id="rect3058-1-98-3-5-46"
       width="16"
       height="16"
       x="-828.36218"
       y="64"
       transform="matrix(0,-1,1,0,0,0)" />
    <rect
       style="fill:#aad400;fill-opacity:1;stroke:none"
       id="rect3058-1-98-3-5-59"
       width="16"
       height="16"
       x="-828.36218"
       y="80"
       transform="matrix(0,-1,1,0,0,0)" />
    <rect
       style="fill:#aad400;fill-opacity:1;stroke:none"
       id="rect3058-1-98-3-5-644"
       width="16"
       height="16"
       x="-828.36218"
       y="96"
       transform="matrix(0,-1,1,0,0,0)" />
    <rect
       style="fill:#aad400;fill-opacity:1;stroke:none"
       id="rect3058-1-98-3-5-050"
       width="16"
       height="16"
       x="-828.36218"
       y="112"
       transform="matrix(0,-1,1,0,0,0)" />
    <rect
       style="fill:#aad400;fill-opacity:1;stroke:none"
       id="rect3058-1-98-3-5-472"
       width="16"
       height="16"
       x="-828.36218"
       y="128"
       transform="matrix(0,-1,1,0,0,0)" />
    <rect
       style="fill:#aad400;fill-opacity:1;stroke:none"
       id="rect3058-1-98-3-5-44"
       width="16"
       height="16"
       x="-828.36218"
       y="128"
       transform="matrix(0,-1,1,0,0,0)" />
    <rect
       style="fill:#aad400;fill-opacity:1;stroke:none"
       id="rect3058-1-98-3-5-337"
       width="16"
       height="16"
       x="-828.36218"
       y="144"
       transform="matrix(0,-1,1,0,0,0)" />
    <rect
       style="fill:#aad400;fill-opacity:1;stroke:none"
       id="rect3058-1-98-3-5-56"
       width="16"
       height="16"
       x="-828.36218"
       y="160"
       transform="matrix(0,-1,1,0,0,0)" />
    <rect
       style="fill:#aad400;fill-opacity:1;stroke:none"
       id="rect3058-1-98-3-5-516"
       width="16"
       height="16"
       x="-844.36218"
       y="160"
       transform="matrix(0,-1,1,0,0,0)" />
    <rect
       style="fill:#aad400;fill-opacity:1;stroke:none"
       id="rect3058-1-98-3-5-620"
       width="16"
       height="16"
       x="-844.36218"
       y="176"
       transform="matrix(0,-1,1,0,0,0)" />
    <rect
       style="fill:#aad400;fill-opacity:1;stroke:none"
       id="rect3058-1-98-3-5-71"
       width="16"
       height="16"
       x="-860.36218"
       y="176"
       transform="matrix(0,-1,1,0,0,0)" />
    <rect
       style="fill:#aad400;fill-opacity:1;stroke:none"
       id="rect3058-1-98-3-5-80"
       width="16"
       height="16"
       x="-860.36218"
       y="160"
       transform="matrix(0,-1,1,0,0,0)" />
    <rect
       style="fill:#aad400;fill-opacity:1;stroke:none"
       id="rect3058-1-98-3-5-849"
       width="16"
       height="16"
       x="-860.36218"
       y="192"
       transform="matrix(0,-1,1,0,0,0)" />
    <g
       id="g3319"
       transform="matrix(0,1,-1,0,1052.3622,796.36216)"
       style="fill:#aad400;fill-opacity:1">
      <rect
         y="924.36218"
         x="80"
         height="16"
         width="16"
         id="rect3058-1-98-3-5-63"
         style="fill:#aad400;fill-opacity:1;stroke:none" />
      <rect
         y="924.36218"
         x="96"
         height="16"
         width="16"
         id="rect3058-1-98-3-5-70"
         style="fill:#aad400;fill-opacity:1;stroke:none" />
      <rect
         y="908.36218"
         x="80"
         height="16"
         width="16"
         id="rect3058-1-98-3-5-373"
         style="fill:#aad400;fill-opacity:1;stroke:none" />
      <rect
         y="908.36218"
         x="96"
         height="16"
         width="16"
         id="rect3058-1-98-3-5-134"
         style="fill:#aad400;fill-opacity:1;stroke:none" />
      <rect
         y="956.36218"
         x="112"
         height="16"
         width="16"
         id="rect3058-1-98-3-5-716"
         style="fill:#aad400;fill-opacity:1;stroke:none" />
      <rect
         y="940.36218"
         x="112"
         height="16"
         width="16"
         id="rect3058-1-98-3-5-0198"
         style="fill:#aad400;fill-opacity:1;stroke:none" />
      <rect
         y="924.36218"
         x="112"
         height="16"
         width="16"
         id="rect3058-1-98-3-5-39"
         style="fill:#aad400;fill-opacity:1;stroke:none" />
      <rect
         y="908.36218"
         x="112"
         height="16"
         width="16"
         id="rect3058-1-98-3-5-525"
         style="fill:#aad400;fill-opacity:1;stroke:none" />
      <rect
         y="892.36218"
         x="112"
         height="16"
         width="16"
         id="rect3058-1-98-3-5-81"
         style="fill:#aad400;fill-opacity:1;stroke:none" />
      <rect
         y="876.36218"
         x="112"
         height="16"
         width="16"
         id="rect3058-1-98-3-5-58"
         style="fill:#aad400;fill-opacity:1;stroke:none" />
      <rect
         y="924.36218"
         x="128"
         height="16"
         width="16"
         id="rect3058-1-98-3-5-0296"
         style="fill:#aad400;fill-opacity:1;stroke:none" />
      <rect
         y="940.36218"
         x="144"
         height="16"
         width="16"
         id="rect3058-1-98-3-5-628"
         style="fill:#aad400;fill-opacity:1;stroke:none" />
      <rect
         y="940.36218"
         x="160"
         height="16"
         width="16"
         id="rect3058-1-98-3-5-601"
         style="fill:#aad400;fill-opacity:1;stroke:none" />
      <rect
         y="956.36218"
         x="176"
         height="16"
         width="16"
         id="rect3058-1-98-3-5-654"
         style="fill:#aad400;fill-opacity:1;stroke:none" />
      <rect
         y="908.36218"
         x="128"
         height="16"
         width="16"
         id="rect3058-1-98-3-5-19"
         style="fill:#aad400;fill-opacity:1;stroke:none" />
      <rect
         y="892.36218"
         x="144"
         height="16"
         width="16"
         id="rect3058-1-98-3-5-12"
         style="fill:#aad400;fill-opacity:1;stroke:none" />
      <rect
         y="892.36218"
         x="160"
         height="16"
         width="16"
         id="rect3058-1-98-3-5-73"
         style="fill:#aad400;fill-opacity:1;stroke:none" />
      <rect
         y="876.36218"
         x="176"
         height="16"
         width="16"
         id="rect3058-1-98-3-5-382"
         style="fill:#aad400;fill-opacity:1;stroke:none" />
    </g>
  </g>
  <g
     inkscape:groupmode="layer"
     id="layer2"
     inkscape:label="Capa 2" />
</svg>
