<?xml version="1.0" encoding="UTF-8" standalone="no"?>
<!-- Created with Inkscape (http://www.inkscape.org/) -->

<svg
   xmlns:dc="http://purl.org/dc/elements/1.1/"
   xmlns:cc="http://creativecommons.org/ns#"
   xmlns:rdf="http://www.w3.org/1999/02/22-rdf-syntax-ns#"
   xmlns:svg="http://www.w3.org/2000/svg"
   xmlns="http://www.w3.org/2000/svg"
   xmlns:sodipodi="http://sodipodi.sourceforge.net/DTD/sodipodi-0.dtd"
   xmlns:inkscape="http://www.inkscape.org/namespaces/inkscape"
   width="256"
   height="256"
   viewBox="0 0 256 256"
   id="svg2"
   version="1.1"
   inkscape:version="0.91 r13725"
   sodipodi:docname="gtk-spell-check.svg">
  <defs
     id="defs4" />
  <sodipodi:namedview
     id="base"
     pagecolor="#ffffff"
     bordercolor="#666666"
     borderopacity="1.0"
     inkscape:pageopacity="0.0"
     inkscape:pageshadow="2"
     inkscape:zoom="1.7715611"
     inkscape:cx="40.04629"
     inkscape:cy="187.25899"
     inkscape:document-units="px"
     inkscape:current-layer="layer1"
     showgrid="true"
     units="px"
     inkscape:window-width="1914"
     inkscape:window-height="1030"
     inkscape:window-x="0"
     inkscape:window-y="26"
     inkscape:window-maximized="1"
     inkscape:snap-bbox="true"
     inkscape:bbox-paths="true"
     inkscape:bbox-nodes="true"
     inkscape:snap-grids="true">
    <inkscape:grid
       type="xygrid"
       id="grid4136"
       spacingx="2"
       spacingy="2"
       empspacing="8"
       dotted="false" />
  </sodipodi:namedview>
  <metadata
     id="metadata7">
    <rdf:RDF>
      <cc:Work
         rdf:about="">
        <dc:format>image/svg+xml</dc:format>
        <dc:type
           rdf:resource="http://purl.org/dc/dcmitype/StillImage" />
        <dc:title></dc:title>
      </cc:Work>
    </rdf:RDF>
  </metadata>
  <g
     inkscape:label="Capa 1"
     inkscape:groupmode="layer"
     id="layer1"
     transform="translate(0,-796.36216)">
    <rect
       style="fill:#ff7373;fill-opacity:1;stroke:none"
       id="rect3360-95-7"
       width="16"
       height="16"
       x="864"
       y="1036.3622" />
    <rect
       style="fill:#ff7373;fill-opacity:1;stroke:none"
       id="rect3360-95-8"
       width="16"
       height="16"
       x="864"
       y="1052.3622" />
    <rect
       style="fill:#ff7373;fill-opacity:1;stroke:none"
       id="rect3360-95-0"
       width="16"
       height="16"
       x="848"
       y="1020.3622" />
    <rect
       style="fill:#ff7373;fill-opacity:1;stroke:none"
       id="rect3360-95-5"
       width="16"
       height="16"
       x="848"
       y="1036.3622" />
    <rect
       style="fill:#ff7373;fill-opacity:1;stroke:none"
       id="rect3360-95-07"
       width="16"
       height="16"
       x="848"
       y="1052.3622" />
    <rect
       style="fill:#ff7373;fill-opacity:1;stroke:none"
       id="rect3360-95-50"
       width="16"
       height="16"
       x="848"
       y="1068.3622" />
    <rect
       style="fill:#ff7373;fill-opacity:1;stroke:none"
       id="rect3360-95-85"
       width="16"
       height="16"
       x="832"
       y="1004.3622" />
    <rect
       style="fill:#ff7373;fill-opacity:1;stroke:none"
       id="rect3360-95-08"
       width="16"
       height="16"
       x="832"
       y="1020.3622" />
    <rect
       style="fill:#ff7373;fill-opacity:1;stroke:none"
       id="rect3360-95-501"
       width="16"
       height="16"
       x="832"
       y="1036.3622" />
    <rect
       style="fill:#ff7373;fill-opacity:1;stroke:none"
       id="rect3360-95-856"
       width="16"
       height="16"
       x="832"
       y="1052.3622" />
    <rect
       style="fill:#ff7373;fill-opacity:1;stroke:none"
       id="rect3360-95-3"
       width="16"
       height="16"
       x="832"
       y="1068.3622" />
    <rect
       style="fill:#ff7373;fill-opacity:1;stroke:none"
       id="rect3360-95-72"
       width="16"
       height="16"
       x="832"
       y="1084.3622" />
    <rect
       style="fill:#ff7373;fill-opacity:1;stroke:none"
       id="rect3360-95-1"
       width="16"
       height="16"
       x="816"
       y="988.36218" />
    <rect
       style="fill:#ff7373;fill-opacity:1;stroke:none"
       id="rect3360-95-084"
       width="16"
       height="16"
       x="816"
       y="1004.3622" />
    <rect
       style="fill:#ff7373;fill-opacity:1;stroke:none"
       id="rect3360-95-81"
       width="16"
       height="16"
       x="816"
       y="1020.3622" />
    <rect
       style="fill:#ff7373;fill-opacity:1;stroke:none"
       id="rect3360-95-4"
       width="16"
       height="16"
       x="816"
       y="1036.3622" />
    <rect
       style="fill:#ff7373;fill-opacity:1;stroke:none"
       id="rect3360-95-70"
       width="16"
       height="16"
       x="816"
       y="1052.3622" />
    <rect
       style="fill:#ff7373;fill-opacity:1;stroke:none"
       id="rect3360-95-54"
       width="16"
       height="16"
       x="816"
       y="1068.3622" />
    <rect
       style="fill:#ff7373;fill-opacity:1;stroke:none"
       id="rect3360-95-05"
       width="16"
       height="16"
       x="816"
       y="1084.3622" />
    <rect
       style="fill:#ff7373;fill-opacity:1;stroke:none"
       id="rect3360-95-2"
       width="16"
       height="16"
       x="816"
       y="1100.3622" />
    <rect
       style="fill:#ff7373;fill-opacity:1;stroke:none"
       id="rect3360-95-13"
       width="16"
       height="16"
       x="800"
       y="1068.3622" />
    <rect
       style="fill:#ff7373;fill-opacity:1;stroke:none"
       id="rect3360-95-43"
       width="16"
       height="16"
       x="800"
       y="1084.3622" />
    <rect
       style="fill:#ff7373;fill-opacity:1;stroke:none"
       id="rect3360-95-19"
       width="16"
       height="16"
       x="800"
       y="1100.3622" />
    <rect
       style="fill:#ff7373;fill-opacity:1;stroke:none"
       id="rect3360-95-32"
       width="16"
       height="16"
       x="800"
       y="1116.3622" />
    <rect
       style="fill:#ff7373;fill-opacity:1;stroke:none"
       id="rect3360-95-00"
       width="16"
       height="16"
       x="784"
       y="1084.3622" />
    <rect
       style="fill:#ff7373;fill-opacity:1;stroke:none"
       id="rect3360-95-29"
       width="16"
       height="16"
       x="784"
       y="1100.3622" />
    <rect
       style="fill:#ff7373;fill-opacity:1;stroke:none"
       id="rect3360-95-46"
       width="16"
       height="16"
       x="784"
       y="1116.3622" />
    <rect
       style="fill:#ff7373;fill-opacity:1;stroke:none"
       id="rect3360-95-02"
       width="16"
       height="16"
       x="784"
       y="1132.3622" />
    <rect
       style="fill:#ff7373;fill-opacity:1;stroke:none"
       id="rect3360-95-57"
       width="16"
       height="16"
       x="768"
       y="1100.3622" />
    <rect
       style="fill:#ff7373;fill-opacity:1;stroke:none"
       id="rect3360-95-82"
       width="16"
       height="16"
       x="768"
       y="1116.3622" />
    <rect
       style="fill:#ff7373;fill-opacity:1;stroke:none"
       id="rect3360-95-49"
       width="16"
       height="16"
       x="768"
       y="1132.3622" />
    <rect
       style="fill:#ff7373;fill-opacity:1;stroke:none"
       id="rect3360-95-86"
       width="16"
       height="16"
       x="768"
       y="1148.3622" />
    <rect
       style="fill:#ff7373;fill-opacity:1;stroke:none"
       id="rect3360-95-328"
       width="16"
       height="16"
       x="752"
       y="1116.3622" />
    <rect
       style="fill:#ff7373;fill-opacity:1;stroke:none"
       id="rect3360-95-75"
       width="16"
       height="16"
       x="752"
       y="1132.3622" />
    <rect
       style="fill:#ff7373;fill-opacity:1;stroke:none"
       id="rect3360-95-18"
       width="16"
       height="16"
       x="752"
       y="1148.3622" />
    <rect
       style="fill:#ff7373;fill-opacity:1;stroke:none"
       id="rect3360-95-058"
       width="16"
       height="16"
       x="752"
       y="1164.3622" />
    <rect
       style="fill:#ff7373;fill-opacity:1;stroke:none"
       id="rect3360-95-298"
       width="16"
       height="16"
       x="736"
       y="1132.3622" />
    <rect
       style="fill:#ff7373;fill-opacity:1;stroke:none"
       id="rect3360-95-24"
       width="16"
       height="16"
       x="736"
       y="1148.3622" />
    <rect
       style="fill:#ff7373;fill-opacity:1;stroke:none"
       id="rect3360-95-92"
       width="16"
       height="16"
       x="736"
       y="1164.3622" />
    <rect
       style="fill:#ff7373;fill-opacity:1;stroke:none"
       id="rect3360-95-98"
       width="16"
       height="16"
       x="720"
       y="1148.3622" />
    <rect
       style="fill:#ff7373;fill-opacity:1;stroke:none"
       id="rect3360-95-83"
       width="16"
       height="16"
       x="720"
       y="1164.3622" />
    <rect
       style="fill:#ff7373;fill-opacity:1;stroke:none"
       id="rect3360-95-96"
       width="16"
       height="16"
       x="800"
       y="972.36218" />
    <rect
       style="fill:#ff7373;fill-opacity:1;stroke:none"
       id="rect3360-95-191"
       width="16"
       height="16"
       x="800"
       y="988.36218" />
    <rect
       style="fill:#ff7373;fill-opacity:1;stroke:none"
       id="rect3360-95-439"
       width="16"
       height="16"
       x="800"
       y="1004.3622" />
    <rect
       style="fill:#ff7373;fill-opacity:1;stroke:none"
       id="rect3360-95-31"
       width="16"
       height="16"
       x="800"
       y="1020.3622" />
    <rect
       style="fill:#ff7373;fill-opacity:1;stroke:none"
       id="rect3360-95-021"
       width="16"
       height="16"
       x="784"
       y="956.36218" />
    <rect
       style="fill:#ff7373;fill-opacity:1;stroke:none"
       id="rect3360-95-704"
       width="16"
       height="16"
       x="784"
       y="972.36218" />
    <rect
       style="fill:#ff7373;fill-opacity:1;stroke:none"
       id="rect3360-95-22"
       width="16"
       height="16"
       x="784"
       y="988.36218" />
    <rect
       style="fill:#ff7373;fill-opacity:1;stroke:none"
       id="rect3360-95-6"
       width="16"
       height="16"
       x="784"
       y="1004.3622" />
    <rect
       style="fill:#ff7373;fill-opacity:1;stroke:none"
       id="rect3360-95-430"
       width="16"
       height="16"
       x="768"
       y="940.36218" />
    <rect
       style="fill:#ff7373;fill-opacity:1;stroke:none"
       id="rect3360-95-824"
       width="16"
       height="16"
       x="768"
       y="956.36218" />
    <rect
       style="fill:#ff7373;fill-opacity:1;stroke:none"
       id="rect3360-95-085"
       width="16"
       height="16"
       x="768"
       y="972.36218" />
    <rect
       style="fill:#ff7373;fill-opacity:1;stroke:none"
       id="rect3360-95-06"
       width="16"
       height="16"
       x="768"
       y="988.36218" />
    <rect
       style="fill:#ff7373;fill-opacity:1;stroke:none"
       id="rect3360-95-90"
       width="16"
       height="16"
       x="752"
       y="924.36218" />
    <rect
       style="fill:#ff7373;fill-opacity:1;stroke:none"
       id="rect3360-95-5016"
       width="16"
       height="16"
       x="752"
       y="940.36218" />
    <rect
       style="fill:#ff7373;fill-opacity:1;stroke:none"
       id="rect3360-95-74"
       width="16"
       height="16"
       x="752"
       y="956.36218" />
    <rect
       style="fill:#ff7373;fill-opacity:1;stroke:none"
       id="rect3360-95-827"
       width="16"
       height="16"
       x="752"
       y="972.36218" />
    <rect
       style="fill:#ff7373;fill-opacity:1;stroke:none"
       id="rect3360-95-049"
       width="16"
       height="16"
       x="736"
       y="924.36218" />
    <rect
       style="fill:#ff7373;fill-opacity:1;stroke:none"
       id="rect3360-95-865"
       width="16"
       height="16"
       x="736"
       y="940.36218" />
    <rect
       style="fill:#ff7373;fill-opacity:1;stroke:none"
       id="rect3360-95-01"
       width="16"
       height="16"
       x="736"
       y="956.36218" />
    <rect
       style="fill:#ff7373;fill-opacity:1;stroke:none"
       id="rect3360-95-36"
       width="16"
       height="16"
       x="720"
       y="924.36218" />
    <rect
       style="fill:#ff7373;fill-opacity:1;stroke:none"
       id="rect3360-95-436"
       width="16"
       height="16"
       x="720"
       y="940.36218" />
    <path
       style="fill:#aad400;fill-opacity:1;stroke:none"
       d="M 48 32 L 48 48 L 32 48 L 32 64 L 32 80 L 48 80 L 48 64 L 64 64 L 64 80 L 80 80 L 80 64 L 80 48 L 64 48 L 64 32 L 48 32 z M 80 80 L 80 96 L 64 96 L 48 96 L 32 96 L 32 80 L 16 80 L 16 96 L 16 112 L 16 128 L 32 128 L 32 112 L 48 112 L 64 112 L 80 112 L 80 128 L 96 128 L 96 112 L 96 96 L 96 80 L 80 80 z M 112 32 L 112 48 L 112 64 L 112 80 L 112 96 L 112 112 L 112 128 L 128 128 L 144 128 L 160 128 L 160 112 L 144 112 L 128 112 L 128 96 L 128 80 L 144 80 L 160 80 L 160 64 L 144 64 L 128 64 L 128 48 L 128 32 L 112 32 z M 160 80 L 160 96 L 160 112 L 176 112 L 176 96 L 176 80 L 160 80 z M 208 32 L 208 48 L 224 48 L 240 48 L 256 48 L 256 32 L 240 32 L 224 32 L 208 32 z M 208 48 L 192 48 L 192 64 L 192 80 L 192 96 L 192 112 L 208 112 L 208 96 L 208 80 L 208 64 L 208 48 z M 208 112 L 208 128 L 224 128 L 240 128 L 256 128 L 256 112 L 240 112 L 224 112 L 208 112 z "
       transform="translate(0,796.36216)"
       id="rect3360-95-436-5" />
    <path
       style="fill:#aad400;fill-opacity:1;stroke:none"
       d="M 0 144 L 0 160 L 16 160 L 16 144 L 0 144 z M 16 160 L 16 176 L 32 176 L 32 160 L 16 160 z M 32 160 L 48 160 L 48 144 L 32 144 L 32 160 z M 48 160 L 48 176 L 64 176 L 64 160 L 48 160 z M 64 160 L 80 160 L 80 144 L 64 144 L 64 160 z M 80 160 L 80 176 L 96 176 L 96 160 L 80 160 z M 96 160 L 112 160 L 112 144 L 96 144 L 96 160 z M 112 160 L 112 176 L 128 176 L 128 160 L 112 160 z M 128 160 L 144 160 L 144 144 L 128 144 L 128 160 z M 144 160 L 144 176 L 160 176 L 160 160 L 144 160 z M 160 160 L 176 160 L 176 144 L 160 144 L 160 160 z M 176 160 L 176 176 L 192 176 L 192 160 L 176 160 z M 192 160 L 208 160 L 208 144 L 192 144 L 192 160 z M 208 160 L 208 176 L 224 176 L 224 160 L 208 160 z M 224 160 L 240 160 L 240 144 L 224 144 L 224 160 z M 240 160 L 240 176 L 256 176 L 256 160 L 240 160 z "
       transform="translate(0,796.36216)"
       id="rect3360-95-436-5-9" />
  </g>
  <g
     inkscape:groupmode="layer"
     id="layer2"
     inkscape:label="Capa 2" />
</svg>
