<?xml version="1.0" encoding="UTF-8" standalone="no"?>
<!-- Created with Inkscape (http://www.inkscape.org/) -->

<svg
   xmlns:dc="http://purl.org/dc/elements/1.1/"
   xmlns:cc="http://creativecommons.org/ns#"
   xmlns:rdf="http://www.w3.org/1999/02/22-rdf-syntax-ns#"
   xmlns:svg="http://www.w3.org/2000/svg"
   xmlns="http://www.w3.org/2000/svg"
   xmlns:sodipodi="http://sodipodi.sourceforge.net/DTD/sodipodi-0.dtd"
   xmlns:inkscape="http://www.inkscape.org/namespaces/inkscape"
   width="256"
   height="256"
   viewBox="0 0 256 256"
   id="svg2"
   version="1.1"
   inkscape:version="0.91 r13725"
   sodipodi:docname="gtk-print-warning.svg">
  <defs
     id="defs4" />
  <sodipodi:namedview
     id="base"
     pagecolor="#ffffff"
     bordercolor="#666666"
     borderopacity="1.0"
     inkscape:pageopacity="0.0"
     inkscape:pageshadow="2"
     inkscape:zoom="1.8116292"
     inkscape:cx="26.345779"
     inkscape:cy="86.300375"
     inkscape:document-units="px"
     inkscape:current-layer="layer1"
     showgrid="true"
     units="px"
     inkscape:window-width="1914"
     inkscape:window-height="1030"
     inkscape:window-x="0"
     inkscape:window-y="26"
     inkscape:window-maximized="1"
     inkscape:snap-bbox="true"
     inkscape:bbox-paths="true"
     inkscape:bbox-nodes="true"
     inkscape:snap-grids="true"
     inkscape:snap-global="true">
    <inkscape:grid
       type="xygrid"
       id="grid4136"
       spacingx="2"
       spacingy="2"
       empspacing="8"
       dotted="false"
       visible="false"
       enabled="true"
       snapvisiblegridlinesonly="true" />
  </sodipodi:namedview>
  <metadata
     id="metadata7">
    <rdf:RDF>
      <cc:Work
         rdf:about="">
        <dc:format>image/svg+xml</dc:format>
        <dc:type
           rdf:resource="http://purl.org/dc/dcmitype/StillImage" />
        <dc:title></dc:title>
      </cc:Work>
    </rdf:RDF>
  </metadata>
  <g
     inkscape:label="Capa 1"
     inkscape:groupmode="layer"
     id="layer1"
     transform="translate(0,-796.36216)">
    <path
       style="opacity:1;fill:#aad400;fill-opacity:1;stroke:none;stroke-width:1.50000000000000000;stroke-linecap:round;stroke-linejoin:round;stroke-miterlimit:4;stroke-opacity:0.97816592999999996;stroke-dasharray:none"
       d="M 32 16 L 32 32 L 16 32 L 16 48 L 0 48 L 0 64 L 0 80 L 0 96 L 16 96 L 16 80 L 32 80 L 32 64 L 32 48 L 48 48 L 48 32 L 48 16 L 32 16 z M 96 16 L 96 32 L 96 48 L 112 48 L 128 48 L 144 48 L 160 48 L 176 48 L 192 48 L 208 48 L 224 48 L 224 64 L 224 80 L 224 96 L 224 112 L 224 128 L 224 144 L 224 160 L 208 160 L 208 144 L 208 128 L 192 128 L 176 128 L 160 128 L 144 128 L 128 128 L 112 128 L 96 128 L 80 128 L 64 128 L 48 128 L 48 144 L 48 160 L 48 176 L 32 176 L 32 160 L 32 144 L 32 128 L 16 128 L 0 128 L 0 144 L 0 160 L 0 176 L 16 176 L 16 192 L 32 192 L 48 192 L 48 208 L 48 224 L 48 240 L 64 240 L 80 240 L 96 240 L 112 240 L 128 240 L 144 240 L 160 240 L 160 224 L 176 224 L 176 208 L 192 208 L 192 192 L 208 192 L 224 192 L 224 176 L 240 176 L 240 160 L 256 160 L 256 144 L 256 128 L 256 112 L 256 96 L 256 80 L 256 64 L 256 48 L 240 48 L 240 32 L 224 32 L 224 16 L 208 16 L 192 16 L 176 16 L 160 16 L 144 16 L 128 16 L 112 16 L 96 16 z M 160 64 L 160 80 L 176 80 L 176 64 L 160 64 z M 192 64 L 192 80 L 208 80 L 208 64 L 192 64 z M 64 144 L 80 144 L 96 144 L 112 144 L 128 144 L 144 144 L 160 144 L 176 144 L 192 144 L 192 160 L 192 176 L 176 176 L 160 176 L 144 176 L 144 192 L 144 208 L 144 224 L 128 224 L 112 224 L 96 224 L 80 224 L 64 224 L 64 208 L 64 192 L 64 176 L 64 160 L 64 144 z "
       transform="translate(0,796.36216)"
       id="rect3140" />
    <rect
       style="fill:#aad400;fill-opacity:1;stroke:none"
       id="rect3140-890"
       width="16"
       height="16"
       x="0"
       y="860.36218" />
    <rect
       style="fill:#aad400;fill-opacity:1;stroke:none"
       id="rect3140-40"
       width="16"
       height="16"
       x="0"
       y="876.36218" />
    <rect
       style="fill:#aad400;fill-opacity:1;stroke:none"
       id="rect3140-75"
       width="16"
       height="16"
       x="0"
       y="876.36218" />
    <rect
       style="fill:#00ff00;fill-opacity:1;stroke:none"
       id="rect3140-406"
       width="16"
       height="16"
       x="0"
       y="892.36218" />
    <rect
       style="fill:#00ff00;fill-opacity:1;stroke:none"
       id="rect3140-63"
       width="16"
       height="16"
       x="0"
       y="908.36218" />
    <rect
       style="fill:#00ff00;fill-opacity:1;stroke:none"
       id="rect3140-8608"
       width="16"
       height="16"
       x="16"
       y="876.36218" />
    <rect
       style="fill:#00ff00;fill-opacity:1;stroke:none"
       id="rect3140-50"
       width="16"
       height="16"
       x="16"
       y="892.36218" />
    <rect
       style="fill:#00ff00;fill-opacity:1;stroke:none"
       id="rect3140-96"
       width="16"
       height="16"
       x="16"
       y="908.36218" />
    <rect
       style="fill:#00ff00;fill-opacity:1;stroke:none"
       id="rect3140-059"
       width="16"
       height="16"
       x="48"
       y="812.36218" />
    <rect
       style="fill:#00ff00;fill-opacity:1;stroke:none"
       id="rect3140-615"
       width="16"
       height="16"
       x="64"
       y="812.36218" />
    <rect
       style="fill:#00ff00;fill-opacity:1;stroke:none"
       id="rect3140-540"
       width="16"
       height="16"
       x="80"
       y="812.36218" />
    <rect
       style="fill:#00ff00;fill-opacity:1;stroke:none"
       id="rect3140-32"
       width="16"
       height="16"
       x="48"
       y="828.36218" />
    <rect
       style="fill:#00ff00;fill-opacity:1;stroke:none"
       id="rect3140-88"
       width="16"
       height="16"
       x="80"
       y="828.36218" />
    <rect
       style="fill:#000000;fill-opacity:0;stroke:none"
       id="rect3140-04-62"
       width="16"
       height="16"
       x="64"
       y="828.36218" />
    <rect
       style="fill:#000000;fill-opacity:0;stroke:none"
       id="rect3140-04-95"
       width="16"
       height="16"
       x="48"
       y="844.36218" />
    <rect
       style="fill:#00ff00;fill-opacity:1;stroke:none"
       id="rect3140-04-247"
       width="16"
       height="16"
       x="16"
       y="876.36218" />
    <rect
       style="fill:#00ff00;fill-opacity:1;stroke:none"
       id="rect3140-04-46-0"
       width="16"
       height="16"
       x="16"
       y="892.36218" />
    <rect
       style="fill:#00ff00;fill-opacity:1;stroke:none"
       id="rect3140-04-46-4"
       width="16"
       height="16"
       x="0"
       y="892.36218" />
    <rect
       style="fill:#00ff00;fill-opacity:1;stroke:none"
       id="rect3140-32-6"
       width="16"
       height="16"
       x="64"
       y="828.36218" />
    <rect
       style="fill:#00ff00;fill-opacity:1;stroke:none"
       id="rect3140-98-6"
       width="16"
       height="16"
       x="32"
       y="860.36218" />
    <rect
       style="fill:#00ff00;fill-opacity:1;stroke:none"
       id="rect3140-890-4"
       width="16"
       height="16"
       x="16"
       y="876.36218" />
    <rect
       style="fill:#00ff00;fill-opacity:1;stroke:none"
       id="rect3140-197-5"
       width="16"
       height="16"
       x="32"
       y="876.36218" />
    <rect
       style="fill:#00ff00;fill-opacity:1;stroke:none"
       id="rect3140-40-6"
       width="16"
       height="16"
       x="16"
       y="892.36218" />
    <rect
       style="fill:#00ff00;fill-opacity:1;stroke:none"
       id="rect3140-75-0"
       width="16"
       height="16"
       x="16"
       y="892.36218" />
    <rect
       style="fill:#00ff00;fill-opacity:1;stroke:none"
       id="rect3140-406-7"
       width="16"
       height="16"
       x="16"
       y="908.36218" />
    <rect
       style="fill:#00ff00;fill-opacity:1;stroke:none"
       id="rect3140-8608-3"
       width="16"
       height="16"
       x="32"
       y="892.36218" />
    <rect
       style="fill:#00ff00;fill-opacity:1;stroke:none"
       id="rect3140-50-4"
       width="16"
       height="16"
       x="32"
       y="908.36218" />
    <rect
       style="fill:#00ff00;fill-opacity:1;stroke:none"
       id="rect3140-04-5"
       width="16"
       height="16"
       x="32"
       y="844.36218" />
    <rect
       style="fill:#00ff00;fill-opacity:1;stroke:none"
       id="rect3140-65-7"
       width="16"
       height="16"
       x="48"
       y="828.36218" />
    <rect
       style="fill:#00ff00;fill-opacity:1;stroke:none"
       id="rect3140-059-6"
       width="16"
       height="16"
       x="64"
       y="828.36218" />
    <rect
       style="fill:#00ff00;fill-opacity:1;stroke:none"
       id="rect3140-615-3"
       width="16"
       height="16"
       x="80"
       y="828.36218" />
    <rect
       style="fill:#ffffff;fill-opacity:1;stroke:none"
       id="rect3140-37-2"
       width="16"
       height="16"
       x="48"
       y="844.36218" />
    <rect
       style="fill:#00ff00;fill-opacity:1;stroke:none"
       id="rect3140-32-3"
       width="16"
       height="16"
       x="64"
       y="844.36218" />
    <rect
       style="fill:#ffffff;fill-opacity:1;stroke:none"
       id="rect3140-730-9"
       width="16"
       height="16"
       x="80"
       y="844.36218" />
    <rect
       style="fill:#00ff00;fill-opacity:1;stroke:none"
       id="rect3140-88-1"
       width="16"
       height="16"
       x="96"
       y="844.36218" />
    <path
       style="fill:#ff0000;fill-opacity:1;stroke:none"
       d="M 64 0 L 64 16 L 48 16 L 48 32 L 48 48 L 32 48 L 32 64 L 32 80 L 16 80 L 16 96 L 0 96 L 0 112 L 0 128 L 16 128 L 32 128 L 48 128 L 64 128 L 80 128 L 96 128 L 112 128 L 128 128 L 144 128 L 144 112 L 144 96 L 128 96 L 128 80 L 112 80 L 112 64 L 112 48 L 96 48 L 96 32 L 96 16 L 80 16 L 80 0 L 64 0 z M 64 32 L 80 32 L 80 48 L 80 64 L 80 80 L 64 80 L 64 64 L 64 48 L 64 32 z M 64 96 L 80 96 L 80 112 L 64 112 L 64 96 z "
       transform="translate(0,796.36216)"
       id="rect3140-04-2-4" />
    <rect
       style="fill:#000000;fill-opacity:0;stroke:none"
       id="rect3140-04-62-3"
       width="16"
       height="16"
       x="80"
       y="844.36218" />
    <rect
       style="fill:#000000;fill-opacity:0;stroke:none"
       id="rect3140-04-95-5"
       width="16"
       height="16"
       x="64"
       y="860.36218" />
    <rect
       style="fill:#000000;fill-opacity:0;stroke:none"
       id="rect3140-04-91-4"
       width="16"
       height="16"
       x="48"
       y="876.36218" />
    <rect
       style="fill:#000000;fill-opacity:0;stroke:none"
       id="rect3140-04-61-9"
       width="16"
       height="16"
       x="48"
       y="844.36218" />
    <rect
       style="fill:#000000;fill-opacity:0;stroke:none"
       id="rect3140-04-30-3"
       width="16"
       height="16"
       x="80"
       y="876.36218" />
    <rect
       style="fill:#ff0000;fill-opacity:1;stroke:none"
       id="rect3140-04-75-8"
       width="16"
       height="16"
       x="80"
       y="828.36218" />
    <rect
       style="fill:#ffffff;fill-opacity:1;stroke:none"
       id="rect3140-04-12-0"
       width="16"
       height="16"
       x="64"
       y="828.36218" />
    <rect
       style="fill:#ff0000;fill-opacity:1;stroke:none"
       id="rect3140-04-43-7-7-1"
       width="16"
       height="16"
       x="64"
       y="844.36218" />
    <rect
       style="fill:#ffffff;fill-opacity:1;stroke:none"
       id="rect3140-04-43-7-6-8"
       width="16"
       height="47.999977"
       x="64"
       y="828.36218" />
    <rect
       style="fill:#ffffff;fill-opacity:1;stroke:none"
       id="rect3140-04-46-277-6"
       width="16"
       height="16"
       x="64"
       y="828.36218" />
  </g>
  <g
     inkscape:groupmode="layer"
     id="layer2"
     inkscape:label="Capa 2" />
</svg>
