<?xml version="1.0" encoding="UTF-8" standalone="no"?>
<!-- Created with Inkscape (http://www.inkscape.org/) -->

<svg
   xmlns:dc="http://purl.org/dc/elements/1.1/"
   xmlns:cc="http://creativecommons.org/ns#"
   xmlns:rdf="http://www.w3.org/1999/02/22-rdf-syntax-ns#"
   xmlns:svg="http://www.w3.org/2000/svg"
   xmlns="http://www.w3.org/2000/svg"
   xmlns:sodipodi="http://sodipodi.sourceforge.net/DTD/sodipodi-0.dtd"
   xmlns:inkscape="http://www.inkscape.org/namespaces/inkscape"
   width="256"
   height="256"
   viewBox="0 0 256 256"
   id="svg2"
   version="1.1"
   inkscape:version="0.48.5 r10040"
   sodipodi:docname="gtk-dnd.svg">
  <defs
     id="defs4" />
  <sodipodi:namedview
     id="base"
     pagecolor="#ffffff"
     bordercolor="#666666"
     borderopacity="1.0"
     inkscape:pageopacity="0.0"
     inkscape:pageshadow="2"
     inkscape:zoom="2.0522148"
     inkscape:cx="109.37556"
     inkscape:cy="115.43626"
     inkscape:document-units="px"
     inkscape:current-layer="layer1"
     showgrid="true"
     units="px"
     inkscape:window-width="1914"
     inkscape:window-height="1031"
     inkscape:window-x="0"
     inkscape:window-y="25"
     inkscape:window-maximized="1"
     inkscape:snap-bbox="true"
     inkscape:bbox-paths="true"
     inkscape:bbox-nodes="true"
     inkscape:snap-grids="true"
     inkscape:snap-global="true">
    <inkscape:grid
       type="xygrid"
       id="grid4136"
       spacingx="2"
       spacingy="2"
       empspacing="8"
       dotted="false"
       visible="true"
       enabled="true"
       snapvisiblegridlinesonly="true" />
  </sodipodi:namedview>
  <metadata
     id="metadata7">
    <rdf:RDF>
      <cc:Work
         rdf:about="">
        <dc:format>image/svg+xml</dc:format>
        <dc:type
           rdf:resource="http://purl.org/dc/dcmitype/StillImage" />
        <dc:title />
      </cc:Work>
    </rdf:RDF>
  </metadata>
  <g
     inkscape:label="Capa 1"
     inkscape:groupmode="layer"
     id="layer1"
     transform="translate(0,-796.36216)">
    <rect
       style="fill:#ff0000;fill-opacity:1;stroke:none"
       id="rect3206-409"
       width="16"
       height="16"
       x="48"
       y="908.36218" />
    <rect
       style="fill:#ff0000;fill-opacity:1;stroke:none"
       id="rect3206-257"
       width="16"
       height="16"
       x="64"
       y="908.36218" />
    <rect
       style="fill:#ff0000;fill-opacity:1;stroke:none"
       id="rect3206-71"
       width="16"
       height="16"
       x="48"
       y="892.36218" />
    <rect
       style="fill:#ff0000;fill-opacity:1;stroke:none"
       id="rect3206-08"
       width="16"
       height="16"
       x="64"
       y="892.36218" />
    <rect
       style="fill:#ff0000;fill-opacity:1;stroke:none"
       id="rect3206-79"
       width="16"
       height="16"
       x="48"
       y="876.36218" />
    <rect
       style="fill:#ff0000;fill-opacity:1;stroke:none"
       id="rect3206-674"
       width="16"
       height="16"
       x="64"
       y="876.36218" />
    <rect
       style="fill:#ff0000;fill-opacity:1;stroke:none"
       id="rect3206-91"
       width="16"
       height="16"
       x="64"
       y="860.36218" />
    <rect
       style="fill:#ff0000;fill-opacity:1;stroke:none"
       id="rect3206-053"
       width="16"
       height="16"
       x="48"
       y="860.36218" />
    <rect
       style="fill:#ff0000;fill-opacity:1;stroke:none"
       id="rect3206-036"
       width="16"
       height="16"
       x="48"
       y="844.36218" />
    <rect
       style="fill:#ff0000;fill-opacity:1;stroke:none"
       id="rect3206-655"
       width="16"
       height="16"
       x="64"
       y="844.36218" />
    <rect
       style="fill:#ff0000;fill-opacity:1;stroke:none"
       id="rect3206-61"
       width="16"
       height="16"
       x="48"
       y="828.36218" />
    <rect
       style="fill:#ff0000;fill-opacity:1;stroke:none"
       id="rect3206-442"
       width="16"
       height="16"
       x="64"
       y="828.36218" />
    <rect
       style="fill:#ff0000;fill-opacity:1;stroke:none"
       id="rect3206-422"
       width="16"
       height="16"
       x="64"
       y="812.36218" />
    <rect
       style="fill:#ff0000;fill-opacity:1;stroke:none"
       id="rect3206-11"
       width="16"
       height="16"
       x="80"
       y="812.36218" />
    <rect
       style="fill:#ff0000;fill-opacity:1;stroke:none"
       id="rect3206-539"
       width="16"
       height="16"
       x="96"
       y="812.36218" />
    <rect
       style="fill:#ff0000;fill-opacity:1;stroke:none"
       id="rect3206-248"
       width="16"
       height="16"
       x="144"
       y="812.36218" />
    <rect
       style="fill:#ff0000;fill-opacity:1;stroke:none"
       id="rect3206-997"
       width="16"
       height="16"
       x="160"
       y="828.36218" />
    <rect
       style="fill:#ff0000;fill-opacity:1;stroke:none"
       id="rect3206-113"
       width="16"
       height="16"
       x="176"
       y="844.36218" />
    <rect
       style="fill:#ff0000;fill-opacity:1;stroke:none"
       id="rect3206-418"
       width="16"
       height="16"
       x="192"
       y="860.36218" />
    <rect
       style="fill:#ff0000;fill-opacity:1;stroke:none"
       id="rect3206-203"
       width="16"
       height="16"
       x="192"
       y="876.36218" />
    <rect
       style="fill:#ff0000;fill-opacity:1;stroke:none"
       id="rect3206-96"
       width="16"
       height="16"
       x="208"
       y="892.36218" />
    <rect
       style="fill:#ff0000;fill-opacity:1;stroke:none"
       id="rect3206-45"
       width="16"
       height="16"
       x="208"
       y="908.36218" />
    <rect
       style="fill:#ff0000;fill-opacity:1;stroke:none"
       id="rect3206-397"
       width="16"
       height="16"
       x="192"
       y="908.36218" />
    <rect
       style="fill:#ff0000;fill-opacity:1;stroke:none"
       id="rect3206-93"
       width="16"
       height="16"
       x="192"
       y="892.36218" />
    <rect
       style="fill:#ff0000;fill-opacity:1;stroke:none"
       id="rect3206-058"
       width="16"
       height="16"
       x="144"
       y="828.36218" />
    <rect
       style="fill:#ff0000;fill-opacity:1;stroke:none"
       id="rect3206-23"
       width="16"
       height="16"
       x="128"
       y="828.36218" />
    <rect
       style="fill:#ff0000;fill-opacity:1;stroke:none"
       id="rect3206-22"
       width="16"
       height="16"
       x="96"
       y="828.36218" />
    <rect
       style="fill:#ff0000;fill-opacity:1;stroke:none"
       id="rect3206-710"
       width="16"
       height="16"
       x="80"
       y="828.36218" />
    <rect
       style="fill:#ff0000;fill-opacity:1;stroke:none"
       id="rect3206-183"
       width="16"
       height="16"
       x="128"
       y="812.36218" />
    <rect
       style="fill:#ff0000;fill-opacity:1;stroke:none"
       id="rect3206-253"
       width="16"
       height="16"
       x="160"
       y="844.36218" />
    <rect
       style="fill:#ff0000;fill-opacity:1;stroke:none"
       id="rect3206-766"
       width="16"
       height="16"
       x="176"
       y="860.36218" />
    <rect
       style="fill:#ff0000;fill-opacity:1;stroke:none"
       id="rect3206-695"
       width="16"
       height="16"
       x="160"
       y="860.36218" />
    <rect
       style="fill:#ff0000;fill-opacity:1;stroke:none"
       id="rect3206-23-1"
       width="16"
       height="16"
       x="112"
       y="828.36218" />
    <rect
       style="fill:#ff0000;fill-opacity:1;stroke:none"
       id="rect3206-23-0"
       width="16"
       height="16"
       x="112"
       y="812.36218" />
    <rect
       style="fill:#ff0000;fill-opacity:1;stroke:none"
       id="rect3206-23-3"
       width="16"
       height="16"
       x="192"
       y="924.36218" />
    <rect
       style="fill:#ff0000;fill-opacity:1;stroke:none"
       id="rect3206-23-4"
       width="16"
       height="16"
       x="208"
       y="924.36218" />
    <rect
       style="fill:#ff0000;fill-opacity:1;stroke:none"
       id="rect3206-23-32"
       width="16"
       height="16"
       x="48"
       y="924.36218" />
    <rect
       style="fill:#ff0000;fill-opacity:1;stroke:none"
       id="rect3206-23-45"
       width="16"
       height="16"
       x="64"
       y="924.36218" />
    <rect
       style="fill:#ff0000;fill-opacity:1;stroke:none"
       id="rect3206-23-08"
       width="16"
       height="16"
       x="48"
       y="940.36218" />
    <rect
       style="fill:#ff0000;fill-opacity:1;stroke:none"
       id="rect3206-23-375"
       width="16"
       height="16"
       x="64"
       y="940.36218" />
    <rect
       style="fill:#ff0000;fill-opacity:1;stroke:none"
       id="rect3206-23-75"
       width="16"
       height="16"
       x="48"
       y="956.36218" />
    <rect
       style="fill:#ff0000;fill-opacity:1;stroke:none"
       id="rect3206-23-21"
       width="16"
       height="16"
       x="64"
       y="956.36218" />
    <rect
       style="fill:#ff0000;fill-opacity:1;stroke:none"
       id="rect3206-23-34"
       width="16"
       height="16"
       x="48"
       y="972.36218" />
    <rect
       style="fill:#ff0000;fill-opacity:1;stroke:none"
       id="rect3206-23-25"
       width="16"
       height="16"
       x="64"
       y="972.36218" />
    <rect
       style="fill:#ff0000;fill-opacity:1;stroke:none"
       id="rect3206-23-67"
       width="16"
       height="16"
       x="48"
       y="988.36218" />
    <rect
       style="fill:#ff0000;fill-opacity:1;stroke:none"
       id="rect3206-23-9"
       width="16"
       height="16"
       x="64"
       y="988.36218" />
    <rect
       style="fill:#ff0000;fill-opacity:1;stroke:none"
       id="rect3206-23-13"
       width="16"
       height="16"
       x="48"
       y="1004.3622" />
    <rect
       style="fill:#ff0000;fill-opacity:1;stroke:none"
       id="rect3206-23-46"
       width="16"
       height="16"
       x="64"
       y="1020.3622" />
    <rect
       style="fill:#ff0000;fill-opacity:1;stroke:none"
       id="rect3206-23-273"
       width="16"
       height="16"
       x="64"
       y="1004.3622" />
    <rect
       style="fill:#ff0000;fill-opacity:1;stroke:none"
       id="rect3206-23-18"
       width="16"
       height="16"
       x="80"
       y="1020.3622" />
    <rect
       style="fill:#ff0000;fill-opacity:1;stroke:none"
       id="rect3206-23-743"
       width="16"
       height="16"
       x="96"
       y="1020.3622" />
    <rect
       style="fill:#ff0000;fill-opacity:1;stroke:none"
       id="rect3206-23-343"
       width="16"
       height="16"
       x="112"
       y="1020.3622" />
    <rect
       style="fill:#ff0000;fill-opacity:1;stroke:none"
       id="rect3206-23-83"
       width="16"
       height="16"
       x="208"
       y="876.36218" />
    <rect
       style="fill:#ff0000;fill-opacity:1;stroke:none"
       id="rect3206-23-837"
       width="16"
       height="16"
       x="160"
       y="812.36218" />
    <rect
       style="fill:#ff0000;fill-opacity:1;stroke:none"
       id="rect3206-23-086"
       width="16"
       height="16"
       x="176"
       y="828.36218" />
    <rect
       style="fill:#ff0000;fill-opacity:1;stroke:none"
       id="rect3206-23-07"
       width="16"
       height="16"
       x="192"
       y="844.36218" />
    <rect
       style="fill:#ff0000;fill-opacity:1;stroke:none"
       id="rect3206-23-73"
       width="16"
       height="16"
       x="208"
       y="860.36218" />
    <rect
       style="fill:#ff0000;fill-opacity:1;stroke:none"
       id="rect3206-23-343-4"
       width="16"
       height="16"
       x="128"
       y="1020.3622" />
    <rect
       style="fill:#ff0000;fill-opacity:1;stroke:none"
       id="rect3206-23-343-9"
       width="16"
       height="16"
       x="160"
       y="1020.3622" />
    <rect
       style="fill:#ff0000;fill-opacity:1;stroke:none"
       id="rect3206-23-343-3"
       width="16"
       height="16"
       x="144"
       y="1020.3622" />
    <rect
       style="fill:#ff0000;fill-opacity:1;stroke:none"
       id="rect3206-23-343-2"
       width="16"
       height="16"
       x="176"
       y="1020.3622" />
    <rect
       style="fill:#ff0000;fill-opacity:1;stroke:none"
       id="rect3206-23-343-93"
       width="16"
       height="16"
       x="192"
       y="1020.3622" />
    <rect
       style="fill:#ff0000;fill-opacity:1;stroke:none"
       id="rect3206-23-343-6"
       width="16"
       height="16"
       x="208"
       y="1004.3622" />
    <rect
       style="fill:#ff0000;fill-opacity:1;stroke:none"
       id="rect3206-23-343-5"
       width="16"
       height="16"
       x="192"
       y="1004.3622" />
    <rect
       style="fill:#ff0000;fill-opacity:1;stroke:none"
       id="rect3206-23-343-22"
       width="16"
       height="16"
       x="208"
       y="988.36218" />
    <rect
       style="fill:#ff0000;fill-opacity:1;stroke:none"
       id="rect3206-23-343-48"
       width="16"
       height="16"
       x="192"
       y="988.36218" />
    <rect
       style="fill:#ff0000;fill-opacity:1;stroke:none"
       id="rect3206-23-343-57"
       width="16"
       height="16"
       x="208"
       y="972.36218" />
    <rect
       style="fill:#ff0000;fill-opacity:1;stroke:none"
       id="rect3206-23-343-488"
       width="16"
       height="16"
       x="192"
       y="972.36218" />
    <rect
       style="fill:#ff0000;fill-opacity:1;stroke:none"
       id="rect3206-23-343-27"
       width="16"
       height="16"
       x="208"
       y="956.36218" />
    <rect
       style="fill:#ff0000;fill-opacity:1;stroke:none"
       id="rect3206-23-343-25"
       width="16"
       height="16"
       x="192"
       y="956.36218" />
    <rect
       style="fill:#ff0000;fill-opacity:1;stroke:none"
       id="rect3206-23-343-1"
       width="16"
       height="16"
       x="208"
       y="940.36218" />
    <rect
       style="fill:#ff0000;fill-opacity:1;stroke:none"
       id="rect3206-23-343-30"
       width="16"
       height="16"
       x="192"
       y="940.36218" />
    <path
       style="color:#bebebe;fill:#4ecae9;fill-opacity:1;fill-rule:nonzero;stroke:none;stroke-width:1;marker:none;visibility:visible;display:inline;overflow:visible;enable-background:accumulate"
       d="m 338.73501,854.88367 c -5.82353,0.45311 -10.82073,5.93513 -10.71875,11.78125 l 0,17.25 23.1875,0 0,-5.46875 68.46875,0 0,5.46875 c -0.61744,13.35432 0.004,11.9893 -1.16354,28.25 l 23.60104,0.125 0.8125,99.93748 -8.0625,0 0,14.7188 19.0625,0 c 6.18601,0.092 11.83994,-5.589 11.75,-11.7813 l 0,-114.21873 c -0.0459,-3.06329 -1.35451,-6.09725 -3.5625,-8.21875 l -34.21875,-34.28125 c -2.11932,-2.21017 -5.15855,-3.51834 -8.21875,-3.5625 l -79.875,0 c -0.35676,-0.0114 -0.70574,-0.0114 -1.0625,0 z"
       id="path4387-5-8"
       inkscape:connector-curvature="0"
       sodipodi:nodetypes="cccccccccccccccccccc" />
    <path
       style="color:#bebebe;fill:#4ecae9;fill-opacity:1;fill-rule:nonzero;stroke:none;stroke-width:1;marker:none;visibility:visible;display:inline;overflow:visible;enable-background:accumulate"
       id="path4387-5"
       d="m 307.51853,884.8009 c -5.82352,0.45311 -10.80046,5.93399 -10.69848,11.78011 l 0,148.49979 c -0.0918,6.1923 5.58228,11.8702 11.7683,11.7801 l 114.11656,0 c 6.18601,0.092 11.85824,-5.5878 11.7683,-11.7801 l 0,-114.23064 c -0.0459,-3.06329 -1.35821,-6.08885 -3.5662,-8.21035 l -34.23497,-34.26916 c -2.11932,-2.21017 -5.1419,-3.52559 -8.2021,-3.56975 l -79.88159,0 c -0.35676,-0.0114 -0.71352,-0.0114 -1.07028,0 z M 320,908.36216 l 68.46994,0 0,33.44258 22.42952,0.41001 0.81562,99.91765 -91.71508,0 z"
       inkscape:connector-curvature="0"
       sodipodi:nodetypes="cccccccccccccccccccc" />
    <path
       style="color:#bebebe;fill:#4ecae9;fill-opacity:1;fill-rule:nonzero;stroke:none;stroke-width:1;marker:none;visibility:visible;display:inline;overflow:visible;enable-background:accumulate"
       d="m 367.5082,819.18801 c -5.82353,0.45311 -10.82073,5.93513 -10.71875,11.78125 l 0,17.25 23.1875,0 0,-5.46875 68.46875,0 0,5.46875 c -0.61744,13.35432 0.004,11.9893 -1.16354,28.25 l 23.60104,0.125 0.8125,99.9375 -8.0625,0 0,14.71875 19.0625,0 c 6.18601,0.092 11.83994,-5.589 11.75,-11.78125 l 0,-114.21875 c -0.0459,-3.06329 -1.35451,-6.09725 -3.5625,-8.21875 l -34.21875,-34.28125 c -2.11932,-2.21017 -5.15855,-3.51834 -8.21875,-3.5625 l -79.875,0 c -0.35676,-0.0114 -0.70574,-0.0114 -1.0625,0 z"
       id="path4387-5-8-0"
       inkscape:connector-curvature="0"
       sodipodi:nodetypes="cccccccccccccccccccc" />
    <rect
       style="fill:#ff0000;fill-opacity:1;stroke:none"
       id="rect3206-61-1"
       width="16"
       height="16"
       x="48"
       y="812.36218" />
    <rect
       style="fill:#ff0000;fill-opacity:1;stroke:none"
       id="rect3206-61-7"
       width="16"
       height="16"
       x="48"
       y="1020.3622" />
    <rect
       style="fill:#ff0000;fill-opacity:1;stroke:none"
       id="rect3206-61-4"
       width="16"
       height="16"
       x="208"
       y="1020.3622" />
  </g>
  <g
     inkscape:groupmode="layer"
     id="layer2"
     inkscape:label="Capa 2" />
</svg>
