<?xml version="1.0" encoding="UTF-8" standalone="no"?>
<!-- Created with Inkscape (http://www.inkscape.org/) -->

<svg
   xmlns:dc="http://purl.org/dc/elements/1.1/"
   xmlns:cc="http://creativecommons.org/ns#"
   xmlns:rdf="http://www.w3.org/1999/02/22-rdf-syntax-ns#"
   xmlns:svg="http://www.w3.org/2000/svg"
   xmlns="http://www.w3.org/2000/svg"
   xmlns:sodipodi="http://sodipodi.sourceforge.net/DTD/sodipodi-0.dtd"
   xmlns:inkscape="http://www.inkscape.org/namespaces/inkscape"
   width="256"
   height="256"
   viewBox="0 0 256 256"
   id="svg2"
   version="1.1"
   inkscape:version="0.91 r13725"
   sodipodi:docname="gtk-select-color.svg">
  <defs
     id="defs4" />
  <sodipodi:namedview
     id="base"
     pagecolor="#ffffff"
     bordercolor="#666666"
     borderopacity="1.0"
     inkscape:pageopacity="0.0"
     inkscape:pageshadow="2"
     inkscape:zoom="2.2171034"
     inkscape:cx="202.07121"
     inkscape:cy="90.164531"
     inkscape:document-units="px"
     inkscape:current-layer="layer1"
     showgrid="true"
     units="px"
     inkscape:window-width="1914"
     inkscape:window-height="1030"
     inkscape:window-x="0"
     inkscape:window-y="26"
     inkscape:window-maximized="1"
     inkscape:snap-bbox="true"
     inkscape:bbox-paths="true"
     inkscape:bbox-nodes="true"
     inkscape:snap-grids="true">
    <inkscape:grid
       type="xygrid"
       id="grid4136"
       spacingx="2"
       spacingy="2"
       empspacing="8"
       dotted="false" />
  </sodipodi:namedview>
  <metadata
     id="metadata7">
    <rdf:RDF>
      <cc:Work
         rdf:about="">
        <dc:format>image/svg+xml</dc:format>
        <dc:type
           rdf:resource="http://purl.org/dc/dcmitype/StillImage" />
        <dc:title></dc:title>
      </cc:Work>
    </rdf:RDF>
  </metadata>
  <g
     inkscape:label="Capa 1"
     inkscape:groupmode="layer"
     id="layer1"
     transform="translate(0,-796.36216)">
    <path
       style="fill:#aad400;fill-opacity:1;stroke:none"
       d="M 48 16 L 48 32 L 48 48 L 48 64 L 48 80 L 48 96 L 48 112 L 48 128 L 32 128 L 16 128 L 16 144 L 0 144 L 0 160 L 0 176 L 0 192 L 16 192 L 16 208 L 32 208 L 32 224 L 48 224 L 48 240 L 64 240 L 64 256 L 80 256 L 96 256 L 112 256 L 128 256 L 144 256 L 160 256 L 160 240 L 176 240 L 176 224 L 176 208 L 176 192 L 176 176 L 176 160 L 176 144 L 176 128 L 160 128 L 144 128 L 144 112 L 128 112 L 112 112 L 112 96 L 96 96 L 80 96 L 80 80 L 80 64 L 80 48 L 80 32 L 80 16 L 64 16 L 48 16 z "
       transform="translate(0,796.36216)"
       id="rect3360-28-9-2-07-75-4" />
    <rect
       style="fill:#2a7fff;fill-opacity:1;stroke:none"
       id="rect5379"
       width="48"
       height="32"
       x="208"
       y="940.36218" />
    <rect
       style="fill:#ccff00;fill-opacity:1;stroke:none"
       id="rect5379-5"
       width="64"
       height="32"
       x="192"
       y="908.36218" />
    <rect
       style="fill:#ffcc00;fill-opacity:1;stroke:none"
       id="rect5379-6"
       width="80"
       height="32"
       x="176"
       y="876.36218" />
    <rect
       style="fill:#ff6600;fill-opacity:1;stroke:none"
       id="rect5379-66"
       width="112"
       height="32"
       x="144"
       y="844.36218" />
    <rect
       style="fill:#d40000;fill-opacity:1;stroke:none"
       id="rect5379-69"
       width="160"
       height="31.999977"
       x="96"
       y="812.36218" />
    <rect
       style="fill:#9955ff;fill-opacity:1;stroke:none"
       id="rect5379-3"
       width="32"
       height="31.999977"
       x="224"
       y="972.36218" />
  </g>
  <g
     inkscape:groupmode="layer"
     id="layer2"
     inkscape:label="Capa 2" />
</svg>
