<?xml version="1.0" encoding="UTF-8" standalone="no"?>
<!-- Created with Inkscape (http://www.inkscape.org/) -->

<svg
   xmlns:dc="http://purl.org/dc/elements/1.1/"
   xmlns:cc="http://creativecommons.org/ns#"
   xmlns:rdf="http://www.w3.org/1999/02/22-rdf-syntax-ns#"
   xmlns:svg="http://www.w3.org/2000/svg"
   xmlns="http://www.w3.org/2000/svg"
   xmlns:sodipodi="http://sodipodi.sourceforge.net/DTD/sodipodi-0.dtd"
   xmlns:inkscape="http://www.inkscape.org/namespaces/inkscape"
   width="256"
   height="256"
   viewBox="0 0 256 256"
   id="svg2"
   version="1.1"
   inkscape:version="0.91 r13725"
   sodipodi:docname="gtk-select-font.svg">
  <defs
     id="defs4" />
  <sodipodi:namedview
     id="base"
     pagecolor="#ffffff"
     bordercolor="#666666"
     borderopacity="1.0"
     inkscape:pageopacity="0.0"
     inkscape:pageshadow="2"
     inkscape:zoom="1.5672064"
     inkscape:cx="156.14059"
     inkscape:cy="137.62183"
     inkscape:document-units="px"
     inkscape:current-layer="layer1"
     showgrid="true"
     units="px"
     inkscape:window-width="1914"
     inkscape:window-height="1030"
     inkscape:window-x="0"
     inkscape:window-y="26"
     inkscape:window-maximized="1"
     inkscape:snap-bbox="true"
     inkscape:bbox-paths="true"
     inkscape:bbox-nodes="true"
     inkscape:snap-grids="true">
    <inkscape:grid
       type="xygrid"
       id="grid4136"
       spacingx="2"
       spacingy="2"
       empspacing="8"
       dotted="false" />
  </sodipodi:namedview>
  <metadata
     id="metadata7">
    <rdf:RDF>
      <cc:Work
         rdf:about="">
        <dc:format>image/svg+xml</dc:format>
        <dc:type
           rdf:resource="http://purl.org/dc/dcmitype/StillImage" />
        <dc:title></dc:title>
      </cc:Work>
    </rdf:RDF>
  </metadata>
  <g
     inkscape:label="Capa 1"
     inkscape:groupmode="layer"
     id="layer1"
     transform="translate(0,-796.36216)">
    <path
       style="fill:#aad400;fill-opacity:1;stroke:none"
       d="M 96 0 L 96 16 L 96 32 L 112 32 L 128 32 L 144 32 L 160 32 L 176 32 L 192 32 L 192 48 L 192 64 L 176 64 L 160 64 L 144 64 L 128 64 L 112 64 L 112 80 L 96 80 L 96 96 L 96 112 L 96 128 L 112 128 L 112 144 L 128 144 L 144 144 L 160 144 L 176 144 L 192 144 L 208 144 L 224 144 L 224 128 L 224 112 L 224 96 L 224 80 L 224 64 L 224 48 L 224 32 L 208 32 L 208 16 L 192 16 L 192 0 L 176 0 L 160 0 L 144 0 L 128 0 L 112 0 L 96 0 z M 128 96 L 144 96 L 160 96 L 176 96 L 192 96 L 192 112 L 176 112 L 160 112 L 144 112 L 128 112 L 128 96 z "
       transform="translate(0,796.36216)"
       id="rect3360-28-9-2-07-75-273-5" />
    <path
       style="fill:#aad400;fill-opacity:1;stroke:none"
       d="M 32 144 L 32 160 L 48 160 L 64 160 L 80 160 L 96 160 L 96 144 L 80 144 L 64 144 L 48 144 L 32 144 z M 96 160 L 96 176 L 80 176 L 64 176 L 48 176 L 48 192 L 64 192 L 80 192 L 96 192 L 96 208 L 96 224 L 80 224 L 64 224 L 48 224 L 48 240 L 64 240 L 80 240 L 96 240 L 112 240 L 112 224 L 112 208 L 112 192 L 112 176 L 112 160 L 96 160 z M 48 224 L 48 208 L 48 192 L 32 192 L 32 208 L 32 224 L 48 224 z "
       transform="translate(0,796.36216)"
       id="rect3360-28-9-2-07-75-273-78" />
  </g>
  <g
     inkscape:groupmode="layer"
     id="layer2"
     inkscape:label="Capa 2" />
</svg>
