<?xml version="1.0" encoding="UTF-8" standalone="no"?>
<!-- Created with Inkscape (http://www.inkscape.org/) -->

<svg
   xmlns:dc="http://purl.org/dc/elements/1.1/"
   xmlns:cc="http://creativecommons.org/ns#"
   xmlns:rdf="http://www.w3.org/1999/02/22-rdf-syntax-ns#"
   xmlns:svg="http://www.w3.org/2000/svg"
   xmlns="http://www.w3.org/2000/svg"
   xmlns:sodipodi="http://sodipodi.sourceforge.net/DTD/sodipodi-0.dtd"
   xmlns:inkscape="http://www.inkscape.org/namespaces/inkscape"
   width="256"
   height="256"
   viewBox="0 0 256 256"
   id="svg2"
   version="1.1"
   inkscape:version="0.91 r13725"
   sodipodi:docname="gtk-dnd-multiple.svg">
  <defs
     id="defs4" />
  <sodipodi:namedview
     id="base"
     pagecolor="#ffffff"
     bordercolor="#666666"
     borderopacity="1.0"
     inkscape:pageopacity="0.0"
     inkscape:pageshadow="2"
     inkscape:zoom="2.0522148"
     inkscape:cx="-2.454839"
     inkscape:cy="115.43626"
     inkscape:document-units="px"
     inkscape:current-layer="layer1"
     showgrid="true"
     units="px"
     inkscape:window-width="1914"
     inkscape:window-height="1030"
     inkscape:window-x="0"
     inkscape:window-y="26"
     inkscape:window-maximized="1"
     inkscape:snap-bbox="true"
     inkscape:bbox-paths="true"
     inkscape:bbox-nodes="true"
     inkscape:snap-grids="true"
     inkscape:snap-global="true">
    <inkscape:grid
       type="xygrid"
       id="grid4136"
       spacingx="2"
       spacingy="2"
       empspacing="8"
       dotted="false"
       visible="true"
       enabled="true"
       snapvisiblegridlinesonly="true" />
  </sodipodi:namedview>
  <metadata
     id="metadata7">
    <rdf:RDF>
      <cc:Work
         rdf:about="">
        <dc:format>image/svg+xml</dc:format>
        <dc:type
           rdf:resource="http://purl.org/dc/dcmitype/StillImage" />
        <dc:title />
      </cc:Work>
    </rdf:RDF>
  </metadata>
  <g
     inkscape:label="Capa 1"
     inkscape:groupmode="layer"
     id="layer1"
     transform="translate(0,-796.36216)">
    <path
       style="fill:#aad400;fill-opacity:1;stroke:none"
       d="M 80 16 L 80 32 L 80 48 L 64 48 L 48 48 L 48 64 L 48 80 L 32 80 L 16 80 L 16 96 L 16 112 L 16 128 L 16 144 L 16 160 L 16 176 L 16 192 L 16 208 L 16 224 L 16 240 L 16 256 L 32 256 L 48 256 L 64 256 L 80 256 L 96 256 L 112 256 L 128 256 L 144 256 L 144 240 L 144 224 L 160 224 L 176 224 L 176 208 L 176 192 L 192 192 L 208 192 L 208 176 L 208 160 L 208 144 L 208 128 L 208 112 L 208 96 L 208 80 L 208 64 L 208 48 L 192 48 L 192 32 L 176 32 L 176 16 L 160 16 L 144 16 L 128 16 L 112 16 L 96 16 L 80 16 z M 96 32 L 112 32 L 128 32 L 144 32 L 160 32 L 160 48 L 160 64 L 176 64 L 192 64 L 192 80 L 192 96 L 192 112 L 192 128 L 192 144 L 192 160 L 192 176 L 176 176 L 176 160 L 176 144 L 176 128 L 176 112 L 176 96 L 176 80 L 160 80 L 160 64 L 144 64 L 144 48 L 128 48 L 112 48 L 96 48 L 96 32 z M 64 64 L 80 64 L 96 64 L 112 64 L 128 64 L 128 80 L 128 96 L 144 96 L 160 96 L 160 112 L 160 128 L 160 144 L 160 160 L 160 176 L 160 192 L 160 208 L 144 208 L 144 192 L 144 176 L 144 160 L 144 144 L 144 128 L 144 112 L 128 112 L 128 96 L 112 96 L 112 80 L 96 80 L 80 80 L 64 80 L 64 64 z M 32 96 L 48 96 L 64 96 L 80 96 L 96 96 L 96 112 L 96 128 L 112 128 L 128 128 L 128 144 L 128 160 L 128 176 L 128 192 L 128 208 L 128 224 L 128 240 L 112 240 L 96 240 L 80 240 L 64 240 L 48 240 L 32 240 L 32 224 L 32 208 L 32 192 L 32 176 L 32 160 L 32 144 L 32 128 L 32 112 L 32 96 z "
       transform="translate(0,796.36216)"
       id="rect3206-61-5" />
  </g>
  <g
     inkscape:groupmode="layer"
     id="layer2"
     inkscape:label="Capa 2" />
</svg>
