<?xml version="1.0" encoding="UTF-8" standalone="no"?>
<!-- Created with Inkscape (http://www.inkscape.org/) -->

<svg
   xmlns:osb="http://www.openswatchbook.org/uri/2009/osb"
   xmlns:dc="http://purl.org/dc/elements/1.1/"
   xmlns:cc="http://creativecommons.org/ns#"
   xmlns:rdf="http://www.w3.org/1999/02/22-rdf-syntax-ns#"
   xmlns:svg="http://www.w3.org/2000/svg"
   xmlns="http://www.w3.org/2000/svg"
   xmlns:xlink="http://www.w3.org/1999/xlink"
   xmlns:sodipodi="http://sodipodi.sourceforge.net/DTD/sodipodi-0.dtd"
   xmlns:inkscape="http://www.inkscape.org/namespaces/inkscape"
   width="256"
   height="256"
   id="svg2"
   version="1.1"
   inkscape:version="0.48.3.1 r9886"
   sodipodi:docname="gtk-select-color.svg">
  <defs
     id="defs4">
    <linearGradient
       id="linearGradient3771"
       osb:paint="solid">
      <stop
         style="stop-color:#ffffff;stop-opacity:1;"
         offset="0"
         id="stop3773" />
    </linearGradient>
    <inkscape:path-effect
       fuse_tolerance="0"
       vertical_pattern="false"
       prop_units="false"
       tang_offset="0"
       normal_offset="0"
       spacing="0"
       scale_y_rel="false"
       prop_scale="1"
       copytype="single_stretched"
       pattern="M 0,5 C 0,2.24 2.24,0 5,0 7.76,0 10,2.24 10,5 10,7.76 7.76,10 5,10 2.24,10 0,7.76 0,5 z"
       is_visible="true"
       id="path-effect3052"
       effect="skeletal" />
    <linearGradient
       inkscape:collect="always"
       xlink:href="#linearGradient3771"
       id="linearGradient3775"
       x1="82.733598"
       y1="950.68802"
       x2="230.51058"
       y2="950.68802"
       gradientUnits="userSpaceOnUse" />
  </defs>
  <sodipodi:namedview
     id="base"
     pagecolor="#ffffff"
     bordercolor="#666666"
     borderopacity="1.0"
     inkscape:pageopacity="0.0"
     inkscape:pageshadow="2"
     inkscape:zoom="1.0795623"
     inkscape:cx="-24.3447"
     inkscape:cy="115.08658"
     inkscape:document-units="px"
     inkscape:current-layer="layer1"
     showgrid="false"
     showguides="true"
     inkscape:guide-bbox="true"
     inkscape:window-width="1914"
     inkscape:window-height="1031"
     inkscape:window-x="0"
     inkscape:window-y="25"
     inkscape:window-maximized="1" />
  <metadata
     id="metadata7">
    <rdf:RDF>
      <cc:Work
         rdf:about="">
        <dc:format>image/svg+xml</dc:format>
        <dc:type
           rdf:resource="http://purl.org/dc/dcmitype/StillImage" />
        <dc:title />
      </cc:Work>
    </rdf:RDF>
  </metadata>
  <g
     inkscape:label="Layer 1"
     inkscape:groupmode="layer"
     id="layer1"
     transform="translate(0,-796.3622)">
    <path
       inkscape:connector-curvature="0"
       style="fill:#8abb22;fill-opacity:1"
       d="m 530.22283,933.88558 c -0.61614,-0.75711 -1.412,-0.32356 -2.04987,0.19554 l -54.92752,44.7007 c -0.63787,0.5191 -0.78107,0.84983 -0.16495,1.60691 l 20.90839,25.69187 56.69938,-46.14262 c 0.14033,-0.11421 0.29446,-0.32871 0.44296,-0.36049 l -20.90839,-25.69191 z m 21.62937,26.57783 c -0.0613,0.13895 -0.30249,0.24617 -0.44296,0.36049 l -56.69938,46.1427 21.26888,26.1348 c 0.61612,0.7571 0.96904,0.6841 1.60691,0.165 l 54.92752,-44.70072 c 0.63786,-0.51911 1.22391,-1.21046 0.60791,-1.9674 L 551.8522,960.46341 z m -41.3579,3.46785 8.65175,10.63114 c 1.04879,1.28873 0.78797,3.77674 -0.49485,4.82072 l -3.10075,2.52342 c -1.28991,1.04975 -3.32896,0.4334 -4.37775,-0.85533 l -8.65175,-10.63113 c -1.04879,-1.28874 -0.88037,-2.96522 0.41237,-4.01727 l 3.10075,-2.52343 c 1.28991,-1.04974 3.41144,-1.23685 4.46023,0.0519 z m 20.18741,24.80598 9.01224,11.0741 c 1.04879,1.28876 0.88179,2.96406 -0.41237,4.01726 l -3.54371,2.8839 c -1.28991,1.0498 -2.96848,0.8764 -4.01727,-0.4124 l -9.01224,-11.07405 c -1.04879,-1.28873 -0.88037,-2.96521 0.41237,-4.01726 l 3.54371,-2.88392 c 1.28992,-1.04975 2.96848,-0.87636 4.01727,0.41237 z"
       id="rect4183" />
    <path
       sodipodi:nodetypes="sssssssss"
       inkscape:connector-curvature="0"
       style="fill:#492356;fill-opacity:1;stroke:#a6f488;stroke-width:1.79999995;stroke-miterlimit:4;stroke-dasharray:none"
       d="m 680.47936,822.64997 c -8.591,-10.55648 -23.99107,-12.13816 -34.5485,-3.5464 l -120.0432,97.69266 c -5.43747,4.42508 2.48041,12.09586 11.07141,22.65234 l 32.44405,39.86675 c 8.59099,10.55648 14.06726,20.21428 18.60179,16.52402 l 121.37211,-98.77412 c 10.55742,-8.59177 12.13738,-23.99202 3.54639,-34.5485 z"
       id="rect4203" />
    <path
       inkscape:connector-curvature="0"
       d="m 689.7185,845.09183 -21.02873,3.16542 4.72949,5.93164 -76.61125,61.0845 -1.51035,-23.56041 c 0.44013,-1.9499 1.48901,-3.90789 3.10012,-5.25462 6.64011,-5.29437 10.58183,-8.44029 12.0313,-9.60011 3.21885,2.01864 7.47485,1.9347 10.61664,-0.57035 3.97459,-3.16906 4.62853,-8.9661 1.45833,-12.94211 -3.17157,-3.97775 -8.96748,-4.63025 -12.94235,-1.46098 -3.14179,2.50505 -4.17231,6.63434 -2.92301,10.21959 l -11.8958,9.48079 c -3.22351,2.5702 -5.19111,7.03197 -5.68785,10.81947 0.01,-0.10843 0.0183,-0.22263 -0.003,0.004 -0.005,0.0875 1.37137,25.17841 1.37137,25.17841 -0.43868,1.94639 -1.49012,3.89937 -3.09917,5.24632 l -5.05919,4.03385 c -5.48892,-4.62006 -13.64976,-4.89132 -19.47569,-0.24612 -6.64243,5.29622 -7.73366,14.97361 -2.43906,21.61403 5.29621,6.64241 14.97384,7.73395 21.61627,2.43774 5.82719,-4.64619 7.37727,-12.66591 4.09189,-19.05046 l 4.91322,-3.91747 c 0.0213,-0.0169 0.0429,-0.0322 0.0633,-0.0505 l 14.32296,-11.42013 c 1.67034,-1.26357 3.80711,-1.85124 5.8021,-1.84338 0,0 27.91903,3.92546 28.00723,3.93987 0.224,0.0318 0.11017,0.0129 0.002,2.5e-4 3.80278,0.35889 8.5912,-0.56801 11.81529,-3.13867 l 18.24374,-14.55143 3.84935,4.82778 14.40251,-11.48356 -11.48242,-14.40107 -14.40252,11.48356 3.84432,4.82147 c 0,0 -9.80751,7.81059 -18.39119,14.65461 -1.67169,1.27132 -3.81517,1.86003 -5.81355,1.85442 l -26.40685,-3.71438 62.38239,-49.73939 4.73706,5.94115 7.76973,-19.79462 z"
       id="path1334-4"
       sodipodi:nodetypes="cccccccssscccccccssscsccccccccccccccccccc"
       style="fill:#8abb22;fill-opacity:1" />
    <rect
       style="fill:#4ecae9;fill-opacity:0.40000001000000002;stroke:none;stroke-width:1.65040541000000007;stroke-miterlimit:4;stroke-opacity:1;stroke-dasharray:none;stroke-dashoffset:0"
       id="rect3012"
       width="99.779594"
       height="99.779594"
       x="138.11018"
       y="813.25116"
       ry="6.1268167" />
    <rect
       ry="6.1268167"
       y="935.6936"
       x="18.110201"
       height="99.779594"
       width="99.779594"
       id="rect3014"
       style="fill:#4ecae9;fill-opacity:0.40000001000000002;stroke:none;stroke-width:1.65040541000000007;stroke-miterlimit:4;stroke-opacity:1;stroke-dasharray:none;stroke-dashoffset:0" />
    <rect
       ry="6.1268158"
       y="813.75116"
       x="18.525444"
       height="99.779572"
       width="99.779572"
       id="rect3016"
       style="fill:#4ecae9;fill-opacity:1;stroke:none;stroke-width:1.65040505000000004;stroke-miterlimit:4;stroke-opacity:1;stroke-dasharray:none;stroke-dashoffset:0" />
    <rect
       style="fill:#4ecae9;fill-opacity:0.40000001000000002;stroke:none;stroke-width:1.65040541000000007;stroke-miterlimit:4;stroke-opacity:1;stroke-dasharray:none;stroke-dashoffset:0"
       id="rect2998"
       width="99.779594"
       height="99.779594"
       x="138.1102"
       y="935.6936"
       ry="6.1268167" />
    <path
       style="fill:#4ecae9;fill-opacity:1;stroke:url(#linearGradient3775);stroke-width:2;stroke-miterlimit:4;stroke-opacity:1;stroke-dasharray:none"
       d="m 96.443316,862.89334 c -3.215063,1.30768 -5.637874,4.08762 -4.988341,7.80275 1.484818,8.49202 36.452865,92.97479 36.452865,92.97479 l -0.50616,4.35313 c -9.61349,7.98648 -25.19719,1.87041 -32.810504,1.86522 -7.791169,-0.005 -14.41875,12.98969 -8.709991,15.14615 6.760058,2.55368 27.144275,4.46845 33.269925,11.25872 10.37355,10.6627 25.4869,16.5462 39.85521,20.0759 14.3684,3.5301 20.59134,5.0415 20.59134,5.0415 l 9.11007,17.9352 40.80285,-22.224 c 0,0 -10.37898,-15.3108 -9.25555,-19.0551 -0.1683,0.06 -0.29479,0.1069 -0.46063,0.1671 3.32831,-6.11047 7.33828,-16.36453 4.59857,-28.63946 -1.98703,-8.9023 -2.96908,-12.60406 -3.52441,-14.74893 8.6e-4,-3.1e-4 0.11498,-0.0417 0.11498,-0.0417 0,0 -0.69096,-2.21695 -0.7619,-2.45971 -1.21163,-4.1609 -11.6035,-39.97962 -14.67946,-51.61764 -2.43939,-2.15082 -8.29351,-5.83526 -18.69182,0.91518 l -9.13777,1.75016 c -5.65393,-3.28546 -14.98946,-0.99284 -15.17654,1.98536 -6.72035,2.13688 -6.70186,4.42428 -10.49938,3.02573 -2.74897,0.0712 -13.61465,2.89541 -14.89805,6.70566 0.0226,0.0711 0.0202,0.0468 0.0414,0.11423 l -8.68936,4.06343 c 0,0 -17.24957,-46.61316 -20.58016,-53.51683 -1.87337,-3.88342 -7.33301,-4.55662 -11.46748,-2.87758 z"
       id="path2999"
       inkscape:connector-curvature="0"
       sodipodi:nodetypes="sscccscscccccscccccccccccss" />
  </g>
</svg>
