<?xml version="1.0" encoding="UTF-8" standalone="no"?>
<!-- Created with Inkscape (http://www.inkscape.org/) -->

<svg
   xmlns:dc="http://purl.org/dc/elements/1.1/"
   xmlns:cc="http://creativecommons.org/ns#"
   xmlns:rdf="http://www.w3.org/1999/02/22-rdf-syntax-ns#"
   xmlns:svg="http://www.w3.org/2000/svg"
   xmlns="http://www.w3.org/2000/svg"
   xmlns:sodipodi="http://sodipodi.sourceforge.net/DTD/sodipodi-0.dtd"
   xmlns:inkscape="http://www.inkscape.org/namespaces/inkscape"
   width="256"
   height="256"
   viewBox="0 0 256 256"
   id="svg2"
   version="1.1"
   inkscape:version="0.91 r13725"
   sodipodi:docname="gtk-media-next-rtl.svg">
  <defs
     id="defs4" />
  <sodipodi:namedview
     id="base"
     pagecolor="#ffffff"
     bordercolor="#666666"
     borderopacity="1.0"
     inkscape:pageopacity="0.0"
     inkscape:pageshadow="2"
     inkscape:zoom="1.1052822"
     inkscape:cx="105.43924"
     inkscape:cy="144.05891"
     inkscape:document-units="px"
     inkscape:current-layer="layer1"
     showgrid="true"
     units="px"
     inkscape:window-width="1914"
     inkscape:window-height="1030"
     inkscape:window-x="0"
     inkscape:window-y="26"
     inkscape:window-maximized="1"
     inkscape:snap-bbox="true"
     inkscape:bbox-paths="true"
     inkscape:bbox-nodes="true"
     inkscape:snap-grids="true">
    <inkscape:grid
       type="xygrid"
       id="grid4136"
       spacingx="2"
       spacingy="2"
       empspacing="8"
       dotted="false" />
  </sodipodi:namedview>
  <metadata
     id="metadata7">
    <rdf:RDF>
      <cc:Work
         rdf:about="">
        <dc:format>image/svg+xml</dc:format>
        <dc:type
           rdf:resource="http://purl.org/dc/dcmitype/StillImage" />
        <dc:title />
      </cc:Work>
    </rdf:RDF>
  </metadata>
  <g
     inkscape:label="Capa 1"
     inkscape:groupmode="layer"
     id="layer1"
     transform="translate(0,-796.36216)">
    <path
       style="fill:#aad400;fill-opacity:1;stroke:none"
       d="M 0 48 L 0 208 L 32 208 L 32 48 L 0 48 z M 128 48 L 128 64 L 112 64 L 112 80 L 96 80 L 96 96 L 80 96 L 64 96 L 64 112 L 48 112 L 48 128 L 48 144 L 64 144 L 64 160 L 80 160 L 96 160 L 96 176 L 112 176 L 112 192 L 128 192 L 128 208 L 144 208 L 144 192 L 144 176 L 144 160 L 144 144 L 144 128 L 144 112 L 144 96 L 144 80 L 144 64 L 144 48 L 128 48 z M 240 48 L 240 64 L 224 64 L 224 80 L 208 80 L 208 96 L 192 96 L 176 96 L 176 112 L 160 112 L 160 128 L 160 144 L 176 144 L 176 160 L 192 160 L 208 160 L 208 176 L 224 176 L 224 192 L 240 192 L 240 208 L 256 208 L 256 192 L 256 176 L 256 160 L 256 144 L 256 128 L 256 112 L 256 96 L 256 80 L 256 64 L 256 48 L 240 48 z "
       transform="translate(0,796.36216)"
       id="rect3360-28-9-2-07-75-27-67-2" />
  </g>
  <g
     inkscape:groupmode="layer"
     id="layer2"
     inkscape:label="Capa 2" />
</svg>
