<?xml version="1.0" encoding="UTF-8" standalone="no"?>
<!-- Created with Inkscape (http://www.inkscape.org/) -->

<svg
   xmlns:dc="http://purl.org/dc/elements/1.1/"
   xmlns:cc="http://creativecommons.org/ns#"
   xmlns:rdf="http://www.w3.org/1999/02/22-rdf-syntax-ns#"
   xmlns:svg="http://www.w3.org/2000/svg"
   xmlns="http://www.w3.org/2000/svg"
   xmlns:sodipodi="http://sodipodi.sourceforge.net/DTD/sodipodi-0.dtd"
   xmlns:inkscape="http://www.inkscape.org/namespaces/inkscape"
   width="256"
   height="256"
   viewBox="0 0 256 256"
   id="svg2"
   version="1.1"
   inkscape:version="0.91 r13725"
   sodipodi:docname="help.svg">
  <defs
     id="defs4" />
  <sodipodi:namedview
     id="base"
     pagecolor="#ffffff"
     bordercolor="#666666"
     borderopacity="1.0"
     inkscape:pageopacity="0.0"
     inkscape:pageshadow="2"
     inkscape:zoom="0.53175044"
     inkscape:cx="-135.89555"
     inkscape:cy="223.46796"
     inkscape:document-units="px"
     inkscape:current-layer="layer1"
     showgrid="true"
     units="px"
     inkscape:window-width="1914"
     inkscape:window-height="1030"
     inkscape:window-x="0"
     inkscape:window-y="26"
     inkscape:window-maximized="1"
     inkscape:snap-bbox="true"
     inkscape:bbox-paths="true"
     inkscape:bbox-nodes="true"
     inkscape:snap-grids="true">
    <inkscape:grid
       type="xygrid"
       id="grid4136"
       spacingx="2"
       spacingy="2"
       empspacing="8"
       dotted="false" />
  </sodipodi:namedview>
  <metadata
     id="metadata7">
    <rdf:RDF>
      <cc:Work
         rdf:about="">
        <dc:format>image/svg+xml</dc:format>
        <dc:type
           rdf:resource="http://purl.org/dc/dcmitype/StillImage" />
        <dc:title></dc:title>
      </cc:Work>
    </rdf:RDF>
  </metadata>
  <g
     inkscape:label="Capa 1"
     inkscape:groupmode="layer"
     id="layer1"
     transform="translate(0,-796.36216)">
    <path
       style="fill:#aad400;fill-opacity:1;stroke:none"
       d="M 96 0 L 96 16 L 80 16 L 80 32 L 64 32 L 64 48 L 48 48 L 48 64 L 48 80 L 64 80 L 80 80 L 80 64 L 96 64 L 96 48 L 112 48 L 112 32 L 128 32 L 144 32 L 144 48 L 160 48 L 160 64 L 176 64 L 176 80 L 176 96 L 160 96 L 160 112 L 144 112 L 128 112 L 128 128 L 112 128 L 112 144 L 112 160 L 112 176 L 128 176 L 144 176 L 144 160 L 160 160 L 160 144 L 176 144 L 176 128 L 192 128 L 192 112 L 208 112 L 208 96 L 208 80 L 208 64 L 208 48 L 192 48 L 192 32 L 176 32 L 176 16 L 160 16 L 160 0 L 144 0 L 128 0 L 112 0 L 96 0 z M 112 192 L 112 208 L 96 208 L 96 224 L 96 240 L 112 240 L 112 256 L 128 256 L 144 256 L 144 240 L 160 240 L 160 224 L 160 208 L 144 208 L 144 192 L 128 192 L 112 192 z "
       transform="translate(0,796.36216)"
       id="rect3360-7-37-3" />
  </g>
  <g
     inkscape:groupmode="layer"
     id="layer2"
     inkscape:label="Capa 2" />
</svg>
