<?xml version="1.0" encoding="UTF-8" standalone="no"?>
<!-- Created with Inkscape (http://www.inkscape.org/) -->

<svg
   xmlns:dc="http://purl.org/dc/elements/1.1/"
   xmlns:cc="http://creativecommons.org/ns#"
   xmlns:rdf="http://www.w3.org/1999/02/22-rdf-syntax-ns#"
   xmlns:svg="http://www.w3.org/2000/svg"
   xmlns="http://www.w3.org/2000/svg"
   xmlns:sodipodi="http://sodipodi.sourceforge.net/DTD/sodipodi-0.dtd"
   xmlns:inkscape="http://www.inkscape.org/namespaces/inkscape"
   width="256"
   height="256"
   viewBox="0 0 256 256"
   id="svg2"
   version="1.1"
   inkscape:version="0.91 r13725"
   sodipodi:docname="object-group.svg">
  <defs
     id="defs4" />
  <sodipodi:namedview
     id="base"
     pagecolor="#ffffff"
     bordercolor="#666666"
     borderopacity="1.0"
     inkscape:pageopacity="0.0"
     inkscape:pageshadow="2"
     inkscape:zoom="1.3275427"
     inkscape:cx="169.41705"
     inkscape:cy="74.144565"
     inkscape:document-units="px"
     inkscape:current-layer="layer1"
     showgrid="true"
     units="px"
     inkscape:window-width="1914"
     inkscape:window-height="1030"
     inkscape:window-x="0"
     inkscape:window-y="26"
     inkscape:window-maximized="1"
     inkscape:snap-bbox="true"
     inkscape:bbox-paths="true"
     inkscape:bbox-nodes="true"
     inkscape:snap-grids="true"
     inkscape:snap-global="true"
     showguides="true"
     inkscape:guide-bbox="true">
    <inkscape:grid
       type="xygrid"
       id="grid4136"
       spacingx="2"
       spacingy="2"
       empspacing="8"
       dotted="false"
       visible="true"
       enabled="true"
       snapvisiblegridlinesonly="true" />
  </sodipodi:namedview>
  <metadata
     id="metadata7">
    <rdf:RDF>
      <cc:Work
         rdf:about="">
        <dc:format>image/svg+xml</dc:format>
        <dc:type
           rdf:resource="http://purl.org/dc/dcmitype/StillImage" />
        <dc:title></dc:title>
      </cc:Work>
    </rdf:RDF>
  </metadata>
  <g
     inkscape:label="Capa 1"
     inkscape:groupmode="layer"
     id="layer1"
     transform="translate(0,-796.36216)">
    <path
       style="fill:#aad400;fill-opacity:1;stroke:none"
       d="M 16 16 L 16 32 L 32 32 L 32 16 L 16 16 z M 224 16 L 224 32 L 240 32 L 240 16 L 224 16 z M 48 32 L 48 48 L 32 48 L 32 64 L 16 64 L 16 80 L 16 96 L 16 112 L 16 128 L 32 128 L 32 144 L 48 144 L 48 160 L 64 160 L 80 160 L 96 160 L 112 160 L 112 144 L 128 144 L 128 128 L 144 128 L 144 112 L 144 96 L 144 80 L 144 64 L 128 64 L 128 48 L 112 48 L 112 32 L 96 32 L 80 32 L 64 32 L 48 32 z M 144 128 L 144 144 L 128 144 L 128 160 L 112 160 L 112 176 L 96 176 L 96 192 L 96 208 L 112 208 L 128 208 L 144 208 L 160 208 L 176 208 L 192 208 L 208 208 L 224 208 L 224 192 L 224 176 L 224 160 L 224 144 L 224 128 L 224 112 L 224 96 L 208 96 L 192 96 L 176 96 L 160 96 L 160 112 L 160 128 L 144 128 z M 16 224 L 16 240 L 32 240 L 32 224 L 16 224 z M 224 224 L 224 240 L 240 240 L 240 224 L 224 224 z "
       transform="translate(0,796.36216)"
       id="rect3220-973-0" />
  </g>
  <g
     inkscape:groupmode="layer"
     id="layer2"
     inkscape:label="Capa 2" />
</svg>
