<?xml version="1.0" encoding="UTF-8" standalone="no"?>
<!-- Created with Inkscape (http://www.inkscape.org/) -->

<svg
   xmlns:dc="http://purl.org/dc/elements/1.1/"
   xmlns:cc="http://creativecommons.org/ns#"
   xmlns:rdf="http://www.w3.org/1999/02/22-rdf-syntax-ns#"
   xmlns:svg="http://www.w3.org/2000/svg"
   xmlns="http://www.w3.org/2000/svg"
   xmlns:sodipodi="http://sodipodi.sourceforge.net/DTD/sodipodi-0.dtd"
   xmlns:inkscape="http://www.inkscape.org/namespaces/inkscape"
   width="256"
   height="256"
   viewBox="0 0 256 256"
   id="svg2"
   version="1.1"
   inkscape:version="0.48.5 r10040"
   sodipodi:docname="object-rotate-left.svg">
  <defs
     id="defs4" />
  <sodipodi:namedview
     id="base"
     pagecolor="#ffffff"
     bordercolor="#666666"
     borderopacity="1.0"
     inkscape:pageopacity="0.0"
     inkscape:pageshadow="2"
     inkscape:zoom="2.18982"
     inkscape:cx="171.82062"
     inkscape:cy="152.56598"
     inkscape:document-units="px"
     inkscape:current-layer="layer1"
     showgrid="true"
     units="px"
     inkscape:window-width="1914"
     inkscape:window-height="1031"
     inkscape:window-x="0"
     inkscape:window-y="25"
     inkscape:window-maximized="1"
     inkscape:snap-bbox="true"
     inkscape:bbox-paths="true"
     inkscape:bbox-nodes="true"
     inkscape:snap-grids="true">
    <inkscape:grid
       type="xygrid"
       id="grid4136"
       spacingx="2"
       spacingy="2"
       empspacing="8"
       dotted="false"
       visible="true"
       enabled="true"
       snapvisiblegridlinesonly="true" />
  </sodipodi:namedview>
  <metadata
     id="metadata7">
    <rdf:RDF>
      <cc:Work
         rdf:about="">
        <dc:format>image/svg+xml</dc:format>
        <dc:type
           rdf:resource="http://purl.org/dc/dcmitype/StillImage" />
        <dc:title />
      </cc:Work>
    </rdf:RDF>
  </metadata>
  <g
     inkscape:label="Capa 1"
     inkscape:groupmode="layer"
     id="layer1"
     transform="translate(0,-796.36216)">
    <g
       id="g3032"
       transform="matrix(-1,0,0,1,240,15.999977)"
       style="fill:#aad400;fill-opacity:1">
      <rect
         transform="matrix(0,1,-1,0,0,0)"
         y="-96"
         x="876.36218"
         height="16"
         width="16"
         id="rect3086"
         style="fill:#aad400;fill-opacity:1;stroke:none" />
      <rect
         transform="matrix(0,1,-1,0,0,0)"
         y="-112"
         x="876.36218"
         height="16"
         width="16"
         id="rect3086-6"
         style="fill:#aad400;fill-opacity:1;stroke:none" />
      <rect
         transform="matrix(0,1,-1,0,0,0)"
         y="-128"
         x="876.36218"
         height="16"
         width="16"
         id="rect3086-1"
         style="fill:#aad400;fill-opacity:1;stroke:none" />
      <rect
         transform="matrix(0,1,-1,0,0,0)"
         y="-144"
         x="876.36218"
         height="16"
         width="16"
         id="rect3086-7"
         style="fill:#aad400;fill-opacity:1;stroke:none" />
      <rect
         transform="matrix(0,1,-1,0,0,0)"
         y="-160"
         x="876.36218"
         height="16"
         width="16"
         id="rect3086-0"
         style="fill:#aad400;fill-opacity:1;stroke:none" />
      <rect
         transform="matrix(0,1,-1,0,0,0)"
         y="-176"
         x="876.36218"
         height="16"
         width="16"
         id="rect3086-60"
         style="fill:#aad400;fill-opacity:1;stroke:none" />
      <rect
         transform="matrix(0,1,-1,0,0,0)"
         y="-176"
         x="892.36218"
         height="16"
         width="16"
         id="rect3086-5"
         style="fill:#aad400;fill-opacity:1;stroke:none" />
      <rect
         transform="matrix(0,1,-1,0,0,0)"
         y="-160"
         x="892.36218"
         height="16"
         width="16"
         id="rect3086-71"
         style="fill:#aad400;fill-opacity:1;stroke:none" />
      <rect
         transform="matrix(0,1,-1,0,0,0)"
         y="-144"
         x="892.36218"
         height="16"
         width="16"
         id="rect3086-2"
         style="fill:#aad400;fill-opacity:1;stroke:none" />
      <rect
         transform="matrix(0,1,-1,0,0,0)"
         y="-128"
         x="892.36218"
         height="16"
         width="16"
         id="rect3086-9"
         style="fill:#aad400;fill-opacity:1;stroke:none" />
      <rect
         transform="matrix(0,1,-1,0,0,0)"
         y="-112"
         x="892.36218"
         height="16"
         width="16"
         id="rect3086-17"
         style="fill:#aad400;fill-opacity:1;stroke:none" />
      <rect
         transform="matrix(0,1,-1,0,0,0)"
         y="-96"
         x="892.36218"
         height="16"
         width="16"
         id="rect3086-27"
         style="fill:#aad400;fill-opacity:1;stroke:none" />
      <rect
         transform="matrix(0,1,-1,0,0,0)"
         y="-80"
         x="876.36218"
         height="16"
         width="16"
         id="rect3086-03"
         style="fill:#aad400;fill-opacity:1;stroke:none" />
      <rect
         transform="matrix(0,1,-1,0,0,0)"
         y="-80"
         x="892.36218"
         height="16"
         width="16"
         id="rect3086-91"
         style="fill:#aad400;fill-opacity:1;stroke:none" />
      <rect
         transform="matrix(0,1,-1,0,0,0)"
         y="-64"
         x="876.36218"
         height="16"
         width="16"
         id="rect3086-65"
         style="fill:#aad400;fill-opacity:1;stroke:none" />
      <rect
         transform="matrix(0,1,-1,0,0,0)"
         y="-64"
         x="892.36218"
         height="16"
         width="16"
         id="rect3086-29"
         style="fill:#aad400;fill-opacity:1;stroke:none" />
      <rect
         transform="matrix(0,1,-1,0,0,0)"
         y="-48"
         x="892.36218"
         height="16"
         width="16"
         id="rect3086-76"
         style="fill:#aad400;fill-opacity:1;stroke:none" />
      <rect
         transform="matrix(0,1,-1,0,0,0)"
         y="-32"
         x="908.36218"
         height="16"
         width="16"
         id="rect3086-64"
         style="fill:#aad400;fill-opacity:1;stroke:none" />
      <rect
         transform="matrix(0,1,-1,0,0,0)"
         y="-32"
         x="924.36218"
         height="16"
         width="16"
         id="rect3086-58"
         style="fill:#aad400;fill-opacity:1;stroke:none" />
      <rect
         transform="matrix(0,1,-1,0,0,0)"
         y="-32"
         x="940.36218"
         height="16"
         width="16"
         id="rect3086-035"
         style="fill:#aad400;fill-opacity:1;stroke:none" />
      <rect
         transform="matrix(0,1,-1,0,0,0)"
         y="-32"
         x="956.36218"
         height="16"
         width="16"
         id="rect3086-10"
         style="fill:#aad400;fill-opacity:1;stroke:none" />
      <rect
         transform="matrix(0,1,-1,0,0,0)"
         y="-48"
         x="972.36218"
         height="16"
         width="16"
         id="rect3086-77"
         style="fill:#aad400;fill-opacity:1;stroke:none" />
      <rect
         transform="matrix(0,1,-1,0,0,0)"
         y="-80"
         x="972.36218"
         height="16"
         width="16"
         id="rect3086-74"
         style="fill:#aad400;fill-opacity:1;stroke:none" />
      <rect
         transform="matrix(0,1,-1,0,0,0)"
         y="-64"
         x="972.36218"
         height="16"
         width="16"
         id="rect3086-04"
         style="fill:#aad400;fill-opacity:1;stroke:none" />
      <rect
         transform="matrix(0,1,-1,0,0,0)"
         y="-64"
         x="956.36218"
         height="16"
         width="16"
         id="rect3086-63"
         style="fill:#aad400;fill-opacity:1;stroke:none" />
      <rect
         transform="matrix(0,1,-1,0,0,0)"
         y="-48"
         x="956.36218"
         height="16"
         width="16"
         id="rect3086-3"
         style="fill:#aad400;fill-opacity:1;stroke:none" />
      <rect
         transform="matrix(0,1,-1,0,0,0)"
         y="-48"
         x="940.36218"
         height="16"
         width="16"
         id="rect3086-70"
         style="fill:#aad400;fill-opacity:1;stroke:none" />
      <rect
         transform="matrix(0,1,-1,0,0,0)"
         y="-48"
         x="924.36218"
         height="16"
         width="16"
         id="rect3086-82"
         style="fill:#aad400;fill-opacity:1;stroke:none" />
      <rect
         transform="matrix(0,1,-1,0,0,0)"
         y="-48"
         x="908.36218"
         height="16"
         width="16"
         id="rect3086-18"
         style="fill:#aad400;fill-opacity:1;stroke:none" />
      <rect
         transform="matrix(0,1,-1,0,0,0)"
         y="-64"
         x="908.36218"
         height="16"
         width="16"
         id="rect3086-09"
         style="fill:#aad400;fill-opacity:1;stroke:none" />
      <rect
         transform="matrix(0,1,-1,0,0,0)"
         y="-192"
         x="876.36218"
         height="16"
         width="16"
         id="rect3086-47"
         style="fill:#aad400;fill-opacity:1;stroke:none" />
      <rect
         transform="matrix(0,1,-1,0,0,0)"
         y="-192"
         x="892.36218"
         height="16"
         width="16"
         id="rect3086-84"
         style="fill:#aad400;fill-opacity:1;stroke:none" />
      <rect
         transform="matrix(0,1,-1,0,0,0)"
         y="-208"
         x="876.36218"
         height="16"
         width="16"
         id="rect3086-05"
         style="fill:#aad400;fill-opacity:1;stroke:none" />
      <rect
         transform="matrix(0,1,-1,0,0,0)"
         y="-224"
         x="876.36218"
         height="16"
         width="16"
         id="rect3086-61"
         style="fill:#aad400;fill-opacity:1;stroke:none" />
      <rect
         transform="matrix(0,1,-1,0,0,0)"
         y="-208"
         x="892.36218"
         height="16"
         width="16"
         id="rect3086-25"
         style="fill:#aad400;fill-opacity:1;stroke:none" />
      <rect
         transform="matrix(0,1,-1,0,0,0)"
         y="-224"
         x="892.36218"
         height="16"
         width="16"
         id="rect3086-36"
         style="fill:#aad400;fill-opacity:1;stroke:none" />
      <rect
         transform="matrix(0,1,-1,0,0,0)"
         y="-192"
         x="908.36218"
         height="16"
         width="16"
         id="rect3086-49"
         style="fill:#aad400;fill-opacity:1;stroke:none" />
      <rect
         transform="matrix(0,1,-1,0,0,0)"
         y="-208"
         x="908.36218"
         height="16"
         width="16"
         id="rect3086-226"
         style="fill:#aad400;fill-opacity:1;stroke:none" />
      <rect
         transform="matrix(0,1,-1,0,0,0)"
         y="-176"
         x="924.36218"
         height="16"
         width="16"
         id="rect3086-820"
         style="fill:#aad400;fill-opacity:1;stroke:none" />
      <rect
         transform="matrix(0,1,-1,0,0,0)"
         y="-192"
         x="924.36218"
         height="16"
         width="16"
         id="rect3086-48"
         style="fill:#aad400;fill-opacity:1;stroke:none" />
      <rect
         transform="matrix(0,1,-1,0,0,0)"
         y="-160"
         x="940.36218"
         height="16"
         width="16"
         id="rect3086-54"
         style="fill:#aad400;fill-opacity:1;stroke:none" />
      <rect
         transform="matrix(0,1,-1,0,0,0)"
         y="-176"
         x="940.36218"
         height="16"
         width="16"
         id="rect3086-13"
         style="fill:#aad400;fill-opacity:1;stroke:none" />
      <rect
         transform="matrix(0,1,-1,0,0,0)"
         y="-208"
         x="860.36218"
         height="16"
         width="16"
         id="rect3086-8206"
         style="fill:#aad400;fill-opacity:1;stroke:none" />
      <rect
         transform="matrix(0,1,-1,0,0,0)"
         y="-192"
         x="860.36218"
         height="16"
         width="16"
         id="rect3086-26"
         style="fill:#aad400;fill-opacity:1;stroke:none" />
      <rect
         transform="matrix(0,1,-1,0,0,0)"
         y="-192"
         x="844.36218"
         height="16"
         width="16"
         id="rect3086-67"
         style="fill:#aad400;fill-opacity:1;stroke:none" />
      <rect
         transform="matrix(0,1,-1,0,0,0)"
         y="-176"
         x="844.36218"
         height="16"
         width="16"
         id="rect3086-491"
         style="fill:#aad400;fill-opacity:1;stroke:none" />
      <rect
         transform="matrix(0,1,-1,0,0,0)"
         y="-176"
         x="828.36218"
         height="16"
         width="16"
         id="rect3086-037"
         style="fill:#aad400;fill-opacity:1;stroke:none" />
      <rect
         transform="matrix(0,1,-1,0,0,0)"
         y="-160"
         x="828.36218"
         height="16"
         width="16"
         id="rect3086-44"
         style="fill:#aad400;fill-opacity:1;stroke:none" />
    </g>
  </g>
  <g
     inkscape:groupmode="layer"
     id="layer2"
     inkscape:label="Capa 2" />
</svg>
