<?xml version="1.0" encoding="UTF-8" standalone="no"?>
<!-- Created with Inkscape (http://www.inkscape.org/) -->

<svg
   xmlns:dc="http://purl.org/dc/elements/1.1/"
   xmlns:cc="http://creativecommons.org/ns#"
   xmlns:rdf="http://www.w3.org/1999/02/22-rdf-syntax-ns#"
   xmlns:svg="http://www.w3.org/2000/svg"
   xmlns="http://www.w3.org/2000/svg"
   xmlns:sodipodi="http://sodipodi.sourceforge.net/DTD/sodipodi-0.dtd"
   xmlns:inkscape="http://www.inkscape.org/namespaces/inkscape"
   width="256"
   height="256"
   viewBox="0 0 256 256"
   id="svg2"
   version="1.1"
   inkscape:version="0.91 r13725"
   sodipodi:docname="object-flip-horizontal.svg">
  <defs
     id="defs4" />
  <sodipodi:namedview
     id="base"
     pagecolor="#ffffff"
     bordercolor="#666666"
     borderopacity="1.0"
     inkscape:pageopacity="0.0"
     inkscape:pageshadow="2"
     inkscape:zoom="2.18982"
     inkscape:cx="67.017485"
     inkscape:cy="152.56598"
     inkscape:document-units="px"
     inkscape:current-layer="layer1"
     showgrid="true"
     units="px"
     inkscape:window-width="1914"
     inkscape:window-height="1030"
     inkscape:window-x="0"
     inkscape:window-y="26"
     inkscape:window-maximized="1"
     inkscape:snap-bbox="true"
     inkscape:bbox-paths="true"
     inkscape:bbox-nodes="true"
     inkscape:snap-grids="true">
    <inkscape:grid
       type="xygrid"
       id="grid4136"
       spacingx="2"
       spacingy="2"
       empspacing="8"
       dotted="false"
       visible="true"
       enabled="true"
       snapvisiblegridlinesonly="true" />
  </sodipodi:namedview>
  <metadata
     id="metadata7">
    <rdf:RDF>
      <cc:Work
         rdf:about="">
        <dc:format>image/svg+xml</dc:format>
        <dc:type
           rdf:resource="http://purl.org/dc/dcmitype/StillImage" />
        <dc:title></dc:title>
      </cc:Work>
    </rdf:RDF>
  </metadata>
  <g
     inkscape:label="Capa 1"
     inkscape:groupmode="layer"
     id="layer1"
     transform="translate(0,-796.36216)">
    <path
       style="fill:#aad400;fill-opacity:1;stroke:none"
       d="M 48 64 L 48 80 L 32 80 L 32 96 L 16 96 L 16 112 L 0 112 L 0 128 L 0 144 L 16 144 L 16 160 L 32 160 L 32 176 L 48 176 L 48 192 L 64 192 L 80 192 L 80 176 L 64 176 L 64 160 L 48 160 L 48 144 L 64 144 L 80 144 L 96 144 L 112 144 L 128 144 L 144 144 L 160 144 L 176 144 L 192 144 L 208 144 L 208 160 L 192 160 L 192 176 L 176 176 L 176 192 L 192 192 L 208 192 L 208 176 L 224 176 L 224 160 L 240 160 L 240 144 L 256 144 L 256 128 L 256 112 L 240 112 L 240 96 L 224 96 L 224 80 L 208 80 L 208 64 L 192 64 L 176 64 L 176 80 L 192 80 L 192 96 L 208 96 L 208 112 L 192 112 L 176 112 L 160 112 L 144 112 L 128 112 L 112 112 L 96 112 L 80 112 L 64 112 L 48 112 L 48 96 L 64 96 L 64 80 L 80 80 L 80 64 L 64 64 L 48 64 z "
       transform="translate(0,796.36216)"
       id="rect3086-6" />
  </g>
  <g
     inkscape:groupmode="layer"
     id="layer2"
     inkscape:label="Capa 2" />
</svg>
