<?xml version="1.0" encoding="UTF-8" standalone="no"?>
<!-- Created with Inkscape (http://www.inkscape.org/) -->

<svg
   xmlns:dc="http://purl.org/dc/elements/1.1/"
   xmlns:cc="http://creativecommons.org/ns#"
   xmlns:rdf="http://www.w3.org/1999/02/22-rdf-syntax-ns#"
   xmlns:svg="http://www.w3.org/2000/svg"
   xmlns="http://www.w3.org/2000/svg"
   xmlns:sodipodi="http://sodipodi.sourceforge.net/DTD/sodipodi-0.dtd"
   xmlns:inkscape="http://www.inkscape.org/namespaces/inkscape"
   width="256"
   height="256"
   viewBox="0 0 256 256"
   id="svg2"
   version="1.1"
   inkscape:version="0.91 r13725"
   sodipodi:docname="scanner-symbolic.svg">
  <defs
     id="defs4" />
  <sodipodi:namedview
     id="base"
     pagecolor="#ffffff"
     bordercolor="#666666"
     borderopacity="1.0"
     inkscape:pageopacity="0.0"
     inkscape:pageshadow="2"
     inkscape:zoom="1.9166889"
     inkscape:cx="-3.8899115"
     inkscape:cy="70.226197"
     inkscape:document-units="px"
     inkscape:current-layer="layer1"
     showgrid="true"
     units="px"
     inkscape:window-width="1914"
     inkscape:window-height="1030"
     inkscape:window-x="0"
     inkscape:window-y="26"
     inkscape:window-maximized="1"
     inkscape:snap-bbox="true"
     inkscape:bbox-paths="true"
     inkscape:bbox-nodes="true"
     inkscape:snap-grids="true"
     inkscape:snap-global="true">
    <inkscape:grid
       type="xygrid"
       id="grid4136"
       spacingx="2"
       spacingy="2"
       empspacing="8"
       dotted="false"
       visible="true"
       enabled="true"
       snapvisiblegridlinesonly="true" />
  </sodipodi:namedview>
  <metadata
     id="metadata7">
    <rdf:RDF>
      <cc:Work
         rdf:about="">
        <dc:format>image/svg+xml</dc:format>
        <dc:type
           rdf:resource="http://purl.org/dc/dcmitype/StillImage" />
        <dc:title></dc:title>
      </cc:Work>
    </rdf:RDF>
  </metadata>
  <g
     inkscape:label="Capa 1"
     inkscape:groupmode="layer"
     id="layer1"
     transform="translate(0,-796.36216)">
    <path
       style="fill:#aad400;fill-opacity:1;stroke:none"
       d="M 48 0 L 48 16 L 32 16 L 32 32 L 32 48 L 32 64 L 32 80 L 32 96 L 32 112 L 48 112 L 48 128 L 48 144 L 48 160 L 48 176 L 48 192 L 48 208 L 48 224 L 48 240 L 64 240 L 80 240 L 96 240 L 112 240 L 128 240 L 144 240 L 160 240 L 176 240 L 192 240 L 208 240 L 208 224 L 208 208 L 208 192 L 208 176 L 208 160 L 208 144 L 208 128 L 208 112 L 224 112 L 224 96 L 224 80 L 224 64 L 224 48 L 224 32 L 224 16 L 208 16 L 208 0 L 192 0 L 176 0 L 160 0 L 144 0 L 128 0 L 112 0 L 96 0 L 80 0 L 64 0 L 48 0 z M 64 112 L 80 112 L 96 112 L 112 112 L 128 112 L 144 112 L 160 112 L 176 112 L 192 112 L 192 128 L 192 144 L 192 160 L 192 176 L 192 192 L 192 208 L 192 224 L 176 224 L 176 208 L 160 208 L 160 224 L 144 224 L 144 208 L 128 208 L 112 208 L 96 208 L 80 208 L 64 208 L 64 192 L 64 176 L 64 160 L 64 144 L 64 128 L 64 112 z "
       transform="translate(0,796.36216)"
       id="rect3220" />
    <rect
       style="fill:#ffffff;fill-opacity:1;stroke:none"
       id="rect9691"
       width="39.412777"
       height="36.12838"
       x="292.15344"
       y="883.922" />
  </g>
  <g
     inkscape:groupmode="layer"
     id="layer2"
     inkscape:label="Capa 2" />
</svg>
