<?xml version="1.0" encoding="UTF-8" standalone="no"?>
<!-- Created with Inkscape (http://www.inkscape.org/) -->

<svg
   xmlns:dc="http://purl.org/dc/elements/1.1/"
   xmlns:cc="http://creativecommons.org/ns#"
   xmlns:rdf="http://www.w3.org/1999/02/22-rdf-syntax-ns#"
   xmlns:svg="http://www.w3.org/2000/svg"
   xmlns="http://www.w3.org/2000/svg"
   xmlns:sodipodi="http://sodipodi.sourceforge.net/DTD/sodipodi-0.dtd"
   xmlns:inkscape="http://www.inkscape.org/namespaces/inkscape"
   width="256"
   height="256"
   id="svg2"
   version="1.1"
   inkscape:version="0.91 r13725"
   sodipodi:docname="stock-right.svg">
  <defs
     id="defs4" />
  <sodipodi:namedview
     id="base"
     pagecolor="#ffffff"
     bordercolor="#666666"
     borderopacity="1.0"
     inkscape:pageopacity="0.0"
     inkscape:pageshadow="2"
     inkscape:zoom="1.4679731"
     inkscape:cx="-154.19406"
     inkscape:cy="107.07844"
     inkscape:document-units="px"
     inkscape:current-layer="layer1"
     showgrid="false"
     inkscape:window-width="1914"
     inkscape:window-height="1030"
     inkscape:window-x="0"
     inkscape:window-y="26"
     inkscape:window-maximized="1" />
  <metadata
     id="metadata7">
    <rdf:RDF>
      <cc:Work
         rdf:about="">
        <dc:format>image/svg+xml</dc:format>
        <dc:type
           rdf:resource="http://purl.org/dc/dcmitype/StillImage" />
        <dc:title></dc:title>
      </cc:Work>
    </rdf:RDF>
  </metadata>
  <g
     inkscape:label="Capa 1"
     inkscape:groupmode="layer"
     id="layer1"
     transform="translate(0,-796.36218)">
    <path
       style="fill:#aad400;fill-opacity:1;stroke:none"
       d="M 64.416016 -0.068359375 L 64.416016 15.931641 L 64.416016 31.931641 L 80.416016 31.931641 L 80.416016 47.931641 L 96.416016 47.931641 L 96.416016 63.931641 L 112.41602 63.931641 L 112.41602 79.931641 L 128.41602 79.931641 L 128.41602 95.931641 L 144.41602 95.931641 L 144.41602 111.93164 L 160.41602 111.93164 L 160.41602 127.93164 L 160.41602 143.93164 L 144.41602 143.93164 L 144.41602 159.93164 L 128.41602 159.93164 L 128.41602 175.93164 L 112.41602 175.93164 L 112.41602 191.93164 L 96.416016 191.93164 L 96.416016 207.93164 L 80.416016 207.93164 L 80.416016 223.93164 L 64.416016 223.93164 L 64.416016 239.93164 L 64.416016 255.93164 L 80.416016 255.93164 L 96.416016 255.93164 L 112.41602 255.93164 L 112.41602 239.93164 L 128.41602 239.93164 L 128.41602 223.93164 L 144.41602 223.93164 L 144.41602 207.93164 L 160.41602 207.93164 L 160.41602 191.93164 L 176.41602 191.93164 L 176.41602 175.93164 L 192.41602 175.93164 L 192.41602 159.93164 L 208.41602 159.93164 L 208.41602 143.93164 L 224.41602 143.93164 L 224.41602 127.93164 L 224.41602 111.93164 L 208.41602 111.93164 L 208.41602 95.931641 L 192.41602 95.931641 L 192.41602 79.931641 L 176.41602 79.931641 L 176.41602 63.931641 L 160.41602 63.931641 L 160.41602 47.931641 L 144.41602 47.931641 L 144.41602 31.931641 L 128.41602 31.931641 L 128.41602 15.931641 L 112.41602 15.931641 L 112.41602 -0.068359375 L 96.416016 -0.068359375 L 80.416016 -0.068359375 L 64.416016 -0.068359375 z "
       transform="translate(0,796.36218)"
       id="rect3360-95-7" />
  </g>
</svg>
