<?xml version="1.0" encoding="UTF-8" standalone="no"?>
<!-- Created with Inkscape (http://www.inkscape.org/) -->

<svg
   xmlns:dc="http://purl.org/dc/elements/1.1/"
   xmlns:cc="http://creativecommons.org/ns#"
   xmlns:rdf="http://www.w3.org/1999/02/22-rdf-syntax-ns#"
   xmlns:svg="http://www.w3.org/2000/svg"
   xmlns="http://www.w3.org/2000/svg"
   xmlns:sodipodi="http://sodipodi.sourceforge.net/DTD/sodipodi-0.dtd"
   xmlns:inkscape="http://www.inkscape.org/namespaces/inkscape"
   width="256"
   height="256"
   id="svg2"
   version="1.1"
   inkscape:version="0.91 r13725"
   sodipodi:docname="stock_left.svg">
  <defs
     id="defs4" />
  <sodipodi:namedview
     id="base"
     pagecolor="#ffffff"
     bordercolor="#666666"
     borderopacity="1.0"
     inkscape:pageopacity="0.0"
     inkscape:pageshadow="2"
     inkscape:zoom="1.4679731"
     inkscape:cx="-154.19406"
     inkscape:cy="107.07844"
     inkscape:document-units="px"
     inkscape:current-layer="layer1"
     showgrid="false"
     inkscape:window-width="1914"
     inkscape:window-height="1030"
     inkscape:window-x="0"
     inkscape:window-y="26"
     inkscape:window-maximized="1" />
  <metadata
     id="metadata7">
    <rdf:RDF>
      <cc:Work
         rdf:about="">
        <dc:format>image/svg+xml</dc:format>
        <dc:type
           rdf:resource="http://purl.org/dc/dcmitype/StillImage" />
        <dc:title></dc:title>
      </cc:Work>
    </rdf:RDF>
  </metadata>
  <g
     inkscape:label="Capa 1"
     inkscape:groupmode="layer"
     id="layer1"
     transform="translate(0,-796.36218)">
    <path
       style="fill:#aad400;fill-opacity:1;stroke:none"
       d="M 135.54492 1.2949219 L 135.54492 17.294922 L 119.54492 17.294922 L 119.54492 33.294922 L 103.54492 33.294922 L 103.54492 49.294922 L 87.544922 49.294922 L 87.544922 65.294922 L 71.544922 65.294922 L 71.544922 81.294922 L 55.544922 81.294922 L 55.544922 97.294922 L 39.544922 97.294922 L 39.544922 113.29492 L 23.544922 113.29492 L 23.544922 129.29492 L 23.544922 145.29492 L 39.544922 145.29492 L 39.544922 161.29492 L 55.544922 161.29492 L 55.544922 177.29492 L 71.544922 177.29492 L 71.544922 193.29492 L 87.544922 193.29492 L 87.544922 209.29492 L 103.54492 209.29492 L 103.54492 225.29492 L 119.54492 225.29492 L 119.54492 241.29492 L 135.54492 241.29492 L 135.54492 257.29492 L 151.54492 257.29492 L 167.54492 257.29492 L 183.54492 257.29492 L 183.54492 241.29492 L 183.54492 225.29492 L 167.54492 225.29492 L 167.54492 209.29492 L 151.54492 209.29492 L 151.54492 193.29492 L 135.54492 193.29492 L 135.54492 177.29492 L 119.54492 177.29492 L 119.54492 161.29492 L 103.54492 161.29492 L 103.54492 145.29492 L 87.544922 145.29492 L 87.544922 129.29492 L 87.544922 113.29492 L 103.54492 113.29492 L 103.54492 97.294922 L 119.54492 97.294922 L 119.54492 81.294922 L 135.54492 81.294922 L 135.54492 65.294922 L 151.54492 65.294922 L 151.54492 49.294922 L 167.54492 49.294922 L 167.54492 33.294922 L 183.54492 33.294922 L 183.54492 17.294922 L 183.54492 1.2949219 L 167.54492 1.2949219 L 151.54492 1.2949219 L 135.54492 1.2949219 z "
       transform="translate(0,796.36218)"
       id="rect3360-95-7" />
  </g>
</svg>
