<?xml version="1.0" encoding="UTF-8" standalone="no"?>
<!-- Created with Inkscape (http://www.inkscape.org/) -->

<svg
   xmlns:dc="http://purl.org/dc/elements/1.1/"
   xmlns:cc="http://creativecommons.org/ns#"
   xmlns:rdf="http://www.w3.org/1999/02/22-rdf-syntax-ns#"
   xmlns:svg="http://www.w3.org/2000/svg"
   xmlns="http://www.w3.org/2000/svg"
   xmlns:sodipodi="http://sodipodi.sourceforge.net/DTD/sodipodi-0.dtd"
   xmlns:inkscape="http://www.inkscape.org/namespaces/inkscape"
   width="256"
   height="256"
   viewBox="0 0 256 256"
   id="svg2"
   version="1.1"
   inkscape:version="0.91 r13725"
   sodipodi:docname="user-bookmarks.svg">
  <defs
     id="defs4" />
  <sodipodi:namedview
     id="base"
     pagecolor="#ffffff"
     bordercolor="#666666"
     borderopacity="1.0"
     inkscape:pageopacity="0.0"
     inkscape:pageshadow="2"
     inkscape:zoom="1.2740344"
     inkscape:cx="59.956207"
     inkscape:cy="103.38857"
     inkscape:document-units="px"
     inkscape:current-layer="layer1"
     showgrid="true"
     units="px"
     inkscape:window-width="1914"
     inkscape:window-height="1030"
     inkscape:window-x="0"
     inkscape:window-y="26"
     inkscape:window-maximized="1"
     inkscape:snap-bbox="true"
     inkscape:bbox-paths="true"
     inkscape:bbox-nodes="true"
     inkscape:snap-grids="true"
     inkscape:snap-global="true">
    <inkscape:grid
       type="xygrid"
       id="grid4136"
       spacingx="2"
       spacingy="2"
       empspacing="8"
       dotted="false"
       visible="true"
       enabled="true"
       snapvisiblegridlinesonly="true" />
  </sodipodi:namedview>
  <metadata
     id="metadata7">
    <rdf:RDF>
      <cc:Work
         rdf:about="">
        <dc:format>image/svg+xml</dc:format>
        <dc:type
           rdf:resource="http://purl.org/dc/dcmitype/StillImage" />
        <dc:title></dc:title>
      </cc:Work>
    </rdf:RDF>
  </metadata>
  <g
     inkscape:label="Capa 1"
     inkscape:groupmode="layer"
     id="layer1"
     transform="translate(0,-796.36216)">
    <path
       style="fill:#aad400;fill-opacity:1;stroke:none"
       d="M 16 32 L 16 48 L 0 48 L 0 64 L 0 80 L 0 96 L 0 112 L 0 128 L 0 144 L 0 160 L 0 176 L 0 192 L 16 192 L 16 208 L 32 208 L 48 208 L 64 208 L 80 208 L 96 208 L 112 208 L 128 208 L 144 208 L 160 208 L 176 208 L 192 208 L 208 208 L 224 208 L 224 192 L 240 192 L 240 176 L 240 160 L 240 144 L 256 144 L 256 128 L 256 112 L 240 112 L 224 112 L 224 128 L 224 144 L 224 160 L 224 176 L 208 176 L 192 176 L 192 160 L 176 160 L 160 160 L 160 144 L 144 144 L 144 160 L 128 160 L 112 160 L 112 176 L 96 176 L 96 160 L 96 144 L 96 128 L 96 112 L 80 112 L 80 128 L 64 128 L 64 144 L 64 160 L 48 160 L 48 176 L 32 176 L 32 160 L 32 144 L 32 128 L 32 112 L 32 96 L 32 80 L 48 80 L 64 80 L 80 80 L 96 80 L 96 64 L 96 48 L 96 32 L 80 32 L 64 32 L 48 32 L 32 32 L 16 32 z M 112 32 L 112 48 L 112 64 L 112 80 L 112 96 L 112 112 L 112 128 L 112 144 L 128 144 L 128 128 L 144 128 L 144 112 L 160 112 L 160 128 L 176 128 L 176 144 L 192 144 L 192 128 L 192 112 L 192 96 L 192 80 L 192 64 L 192 48 L 192 32 L 176 32 L 160 32 L 144 32 L 128 32 L 112 32 z M 224 32 L 224 48 L 224 64 L 240 64 L 240 80 L 256 80 L 256 64 L 256 48 L 256 32 L 240 32 L 224 32 z "
       transform="translate(0,796.36216)"
       id="rect3182-73-331-644-9" />
  </g>
  <g
     inkscape:groupmode="layer"
     id="layer2"
     inkscape:label="Capa 2" />
</svg>
