<?xml version="1.0" encoding="UTF-8" standalone="no"?>
<!-- Created with Inkscape (http://www.inkscape.org/) -->

<svg
   xmlns:dc="http://purl.org/dc/elements/1.1/"
   xmlns:cc="http://creativecommons.org/ns#"
   xmlns:rdf="http://www.w3.org/1999/02/22-rdf-syntax-ns#"
   xmlns:svg="http://www.w3.org/2000/svg"
   xmlns="http://www.w3.org/2000/svg"
   xmlns:sodipodi="http://sodipodi.sourceforge.net/DTD/sodipodi-0.dtd"
   xmlns:inkscape="http://www.inkscape.org/namespaces/inkscape"
   width="256"
   height="256"
   viewBox="0 0 256 256"
   id="svg2"
   version="1.1"
   inkscape:version="0.91 r13725"
   sodipodi:docname="zoom-fit-page.svg">
  <defs
     id="defs4" />
  <sodipodi:namedview
     id="base"
     pagecolor="#ffffff"
     bordercolor="#666666"
     borderopacity="1.0"
     inkscape:pageopacity="0.0"
     inkscape:pageshadow="2"
     inkscape:zoom="2.0150752"
     inkscape:cx="-9.9971112"
     inkscape:cy="101.66927"
     inkscape:document-units="px"
     inkscape:current-layer="layer1"
     showgrid="true"
     units="px"
     inkscape:window-width="1914"
     inkscape:window-height="1030"
     inkscape:window-x="0"
     inkscape:window-y="26"
     inkscape:window-maximized="1"
     inkscape:snap-bbox="true"
     inkscape:bbox-paths="true"
     inkscape:bbox-nodes="true"
     inkscape:snap-grids="true"
     showguides="true"
     inkscape:guide-bbox="true">
    <inkscape:grid
       type="xygrid"
       id="grid4136"
       spacingx="2"
       spacingy="2"
       empspacing="8"
       dotted="false" />
  </sodipodi:namedview>
  <metadata
     id="metadata7">
    <rdf:RDF>
      <cc:Work
         rdf:about="">
        <dc:format>image/svg+xml</dc:format>
        <dc:type
           rdf:resource="http://purl.org/dc/dcmitype/StillImage" />
        <dc:title></dc:title>
      </cc:Work>
    </rdf:RDF>
  </metadata>
  <g
     inkscape:label="Capa 1"
     inkscape:groupmode="layer"
     id="layer1"
     transform="translate(0,-796.36216)">
    <path
       style="fill:#aad400;fill-opacity:1;stroke:none"
       d="M 80 16 L 80 32 L 96 32 L 112 32 L 128 32 L 144 32 L 160 32 L 176 32 L 176 16 L 160 16 L 144 16 L 128 16 L 112 16 L 96 16 L 80 16 z M 176 32 L 176 48 L 192 48 L 192 32 L 176 32 z M 192 48 L 192 64 L 208 64 L 208 48 L 192 48 z M 208 64 L 208 80 L 224 80 L 224 64 L 208 64 z M 224 80 L 224 96 L 224 112 L 224 128 L 224 144 L 224 160 L 224 176 L 240 176 L 240 160 L 240 144 L 240 128 L 240 112 L 240 96 L 240 80 L 224 80 z M 224 176 L 208 176 L 208 192 L 192 192 L 192 208 L 208 208 L 208 224 L 224 224 L 224 240 L 240 240 L 256 240 L 256 224 L 256 208 L 240 208 L 240 192 L 224 192 L 224 176 z M 192 208 L 176 208 L 176 224 L 192 224 L 192 208 z M 176 224 L 160 224 L 144 224 L 128 224 L 112 224 L 96 224 L 80 224 L 80 240 L 96 240 L 112 240 L 128 240 L 144 240 L 160 240 L 176 240 L 176 224 z M 80 224 L 80 208 L 64 208 L 64 224 L 80 224 z M 64 208 L 64 192 L 48 192 L 48 208 L 64 208 z M 48 192 L 48 176 L 32 176 L 32 192 L 48 192 z M 32 176 L 32 160 L 32 144 L 32 128 L 32 112 L 32 96 L 32 80 L 16 80 L 16 96 L 16 112 L 16 128 L 16 144 L 16 160 L 16 176 L 32 176 z M 32 80 L 48 80 L 48 64 L 32 64 L 32 80 z M 48 64 L 64 64 L 64 48 L 48 48 L 48 64 z M 64 48 L 80 48 L 80 32 L 64 32 L 64 48 z "
       transform="translate(0,796.36216)"
       id="rect3168" />
    <path
       style="fill:#8fb200;fill-opacity:1;stroke:none"
       d="M 112 64 L 112 80 L 96 80 L 96 96 L 80 96 L 80 112 L 80 128 L 80 144 L 80 160 L 80 176 L 80 192 L 96 192 L 112 192 L 128 192 L 144 192 L 160 192 L 176 192 L 176 176 L 176 160 L 176 144 L 176 128 L 176 112 L 176 96 L 176 80 L 176 64 L 160 64 L 144 64 L 128 64 L 112 64 z "
       transform="translate(0,796.36216)"
       id="rect3168-49-1" />
  </g>
  <g
     inkscape:groupmode="layer"
     id="layer2"
     inkscape:label="Capa 2" />
</svg>
