<?xml version="1.0" encoding="UTF-8" standalone="no"?>
<!-- Created with Inkscape (http://www.inkscape.org/) -->

<svg
   xmlns:dc="http://purl.org/dc/elements/1.1/"
   xmlns:cc="http://creativecommons.org/ns#"
   xmlns:rdf="http://www.w3.org/1999/02/22-rdf-syntax-ns#"
   xmlns:svg="http://www.w3.org/2000/svg"
   xmlns="http://www.w3.org/2000/svg"
   xmlns:sodipodi="http://sodipodi.sourceforge.net/DTD/sodipodi-0.dtd"
   xmlns:inkscape="http://www.inkscape.org/namespaces/inkscape"
   width="256"
   height="256"
   viewBox="0 0 256 256"
   id="svg2"
   version="1.1"
   inkscape:version="0.48.5 r10040"
   sodipodi:docname="zoom-fit-drawing.svg">
  <defs
     id="defs4" />
  <sodipodi:namedview
     id="base"
     pagecolor="#ffffff"
     bordercolor="#666666"
     borderopacity="1.0"
     inkscape:pageopacity="0.0"
     inkscape:pageshadow="2"
     inkscape:zoom="2.6851771"
     inkscape:cx="66.241203"
     inkscape:cy="111.9845"
     inkscape:document-units="px"
     inkscape:current-layer="layer1"
     showgrid="true"
     units="px"
     inkscape:window-width="1914"
     inkscape:window-height="1031"
     inkscape:window-x="0"
     inkscape:window-y="25"
     inkscape:window-maximized="1"
     inkscape:snap-bbox="true"
     inkscape:bbox-paths="true"
     inkscape:bbox-nodes="true"
     inkscape:snap-grids="true"
     showguides="true"
     inkscape:guide-bbox="true">
    <inkscape:grid
       type="xygrid"
       id="grid4136"
       spacingx="2"
       spacingy="2"
       empspacing="8"
       dotted="false" />
  </sodipodi:namedview>
  <metadata
     id="metadata7">
    <rdf:RDF>
      <cc:Work
         rdf:about="">
        <dc:format>image/svg+xml</dc:format>
        <dc:type
           rdf:resource="http://purl.org/dc/dcmitype/StillImage" />
        <dc:title />
      </cc:Work>
    </rdf:RDF>
  </metadata>
  <g
     inkscape:label="Capa 1"
     inkscape:groupmode="layer"
     id="layer1"
     transform="translate(0,-796.36216)">
    <rect
       style="fill:#aad400;fill-opacity:1;stroke:none"
       id="rect3168"
       width="16"
       height="16"
       x="48"
       y="844.36218" />
    <rect
       style="fill:#aad400;fill-opacity:1;stroke:none"
       id="rect3168-5"
       width="16"
       height="16"
       x="64"
       y="828.36218" />
    <rect
       style="fill:#aad400;fill-opacity:1;stroke:none"
       id="rect3168-55"
       width="16"
       height="16"
       x="80"
       y="812.36218" />
    <rect
       style="fill:#aad400;fill-opacity:1;stroke:none"
       id="rect3168-4"
       width="16"
       height="16"
       x="96"
       y="812.36218" />
    <rect
       style="fill:#aad400;fill-opacity:1;stroke:none"
       id="rect3168-50"
       width="16"
       height="16"
       x="112"
       y="812.36218" />
    <rect
       style="fill:#aad400;fill-opacity:1;stroke:none"
       id="rect3168-1"
       width="16"
       height="16"
       x="128"
       y="812.36218" />
    <rect
       style="fill:#aad400;fill-opacity:1;stroke:none"
       id="rect3168-8"
       width="16"
       height="16"
       x="144"
       y="812.36218" />
    <rect
       style="fill:#aad400;fill-opacity:1;stroke:none"
       id="rect3168-6"
       width="16"
       height="16"
       x="160"
       y="812.36218" />
    <rect
       style="fill:#aad400;fill-opacity:1;stroke:none"
       id="rect3168-3"
       width="16"
       height="16"
       x="176"
       y="828.36218" />
    <rect
       style="fill:#aad400;fill-opacity:1;stroke:none"
       id="rect3168-0"
       width="16"
       height="16"
       x="192"
       y="844.36218" />
    <rect
       style="fill:#aad400;fill-opacity:1;stroke:none"
       id="rect3168-34"
       width="16"
       height="16"
       x="208"
       y="860.36218" />
    <rect
       style="fill:#aad400;fill-opacity:1;stroke:none"
       id="rect3168-86"
       width="16"
       height="16"
       x="224"
       y="876.36218" />
    <rect
       style="fill:#aad400;fill-opacity:1;stroke:none"
       id="rect3168-52"
       width="16"
       height="16"
       x="224"
       y="892.36218" />
    <rect
       style="fill:#aad400;fill-opacity:1;stroke:none"
       id="rect3168-12"
       width="16"
       height="16"
       x="224"
       y="908.36218" />
    <rect
       style="fill:#aad400;fill-opacity:1;stroke:none"
       id="rect3168-06"
       width="16"
       height="16"
       x="224"
       y="924.36218" />
    <rect
       style="fill:#aad400;fill-opacity:1;stroke:none"
       id="rect3168-2"
       width="16"
       height="16"
       x="224"
       y="940.36218" />
    <rect
       style="fill:#aad400;fill-opacity:1;stroke:none"
       id="rect3168-7"
       width="16"
       height="16"
       x="224"
       y="956.36218" />
    <rect
       style="fill:#aad400;fill-opacity:1;stroke:none"
       id="rect3168-555"
       width="16"
       height="16"
       x="208"
       y="972.36218" />
    <rect
       style="fill:#aad400;fill-opacity:1;stroke:none"
       id="rect3168-76"
       width="16"
       height="16"
       x="224"
       y="988.36218" />
    <rect
       style="fill:#aad400;fill-opacity:1;stroke:none"
       id="rect3168-61"
       width="16"
       height="16"
       x="192"
       y="988.36218" />
    <rect
       style="fill:#aad400;fill-opacity:1;stroke:none"
       id="rect3168-9"
       width="16"
       height="16"
       x="176"
       y="1004.3622" />
    <rect
       style="fill:#aad400;fill-opacity:1;stroke:none"
       id="rect3168-28"
       width="16"
       height="16"
       x="160"
       y="1020.3622" />
    <rect
       style="fill:#aad400;fill-opacity:1;stroke:none"
       id="rect3168-58"
       width="16"
       height="16"
       x="144"
       y="1020.3622" />
    <rect
       style="fill:#aad400;fill-opacity:1;stroke:none"
       id="rect3168-67"
       width="16"
       height="16"
       x="128"
       y="1020.3622" />
    <rect
       style="fill:#aad400;fill-opacity:1;stroke:none"
       id="rect3168-26"
       width="16"
       height="16"
       x="112"
       y="1020.3622" />
    <rect
       style="fill:#aad400;fill-opacity:1;stroke:none"
       id="rect3168-35"
       width="16"
       height="16"
       x="96"
       y="1020.3622" />
    <rect
       style="fill:#aad400;fill-opacity:1;stroke:none"
       id="rect3168-69"
       width="16"
       height="16"
       x="80"
       y="1020.3622" />
    <rect
       style="fill:#aad400;fill-opacity:1;stroke:none"
       id="rect3168-97"
       width="16"
       height="16"
       x="64"
       y="1004.3622" />
    <rect
       style="fill:#aad400;fill-opacity:1;stroke:none"
       id="rect3168-56"
       width="16"
       height="16"
       x="48"
       y="988.36218" />
    <rect
       style="fill:#aad400;fill-opacity:1;stroke:none"
       id="rect3168-96"
       width="16"
       height="16"
       x="32"
       y="972.36218" />
    <rect
       style="fill:#aad400;fill-opacity:1;stroke:none"
       id="rect3168-81"
       width="16"
       height="16"
       x="16"
       y="956.36218" />
    <rect
       style="fill:#aad400;fill-opacity:1;stroke:none"
       id="rect3168-22"
       width="16"
       height="16"
       x="16"
       y="940.36218" />
    <rect
       style="fill:#aad400;fill-opacity:1;stroke:none"
       id="rect3168-19"
       width="16"
       height="16"
       x="16"
       y="924.36218" />
    <rect
       style="fill:#aad400;fill-opacity:1;stroke:none"
       id="rect3168-768"
       width="16"
       height="16"
       x="16"
       y="908.36218" />
    <rect
       style="fill:#aad400;fill-opacity:1;stroke:none"
       id="rect3168-32"
       width="16"
       height="16"
       x="16"
       y="892.36218" />
    <rect
       style="fill:#aad400;fill-opacity:1;stroke:none"
       id="rect3168-15"
       width="16"
       height="16"
       x="16"
       y="876.36218" />
    <rect
       style="fill:#aad400;fill-opacity:1;stroke:none"
       id="rect3168-62"
       width="16"
       height="16"
       x="32"
       y="860.36218" />
    <rect
       style="fill:#aad400;fill-opacity:1;stroke:none"
       id="rect3168-07"
       width="16"
       height="16"
       x="240"
       y="1004.3622" />
    <rect
       style="fill:#668000;fill-opacity:1;stroke:none"
       id="rect3168-17"
       width="16"
       height="16"
       x="176"
       y="940.36218" />
    <rect
       style="fill:#668000;fill-opacity:1;stroke:none"
       id="rect3168-66"
       width="16"
       height="16"
       x="176"
       y="956.36218" />
    <rect
       style="fill:#668000;fill-opacity:1;stroke:none"
       id="rect3168-11"
       width="16"
       height="16"
       x="128"
       y="956.36218" />
    <rect
       style="fill:#668000;fill-opacity:1;stroke:none"
       id="rect3168-92"
       width="16"
       height="16"
       x="144"
       y="956.36218" />
    <rect
       style="fill:#668000;fill-opacity:1;stroke:none"
       id="rect3168-45"
       width="16"
       height="16"
       x="160"
       y="956.36218" />
    <rect
       style="fill:#668000;fill-opacity:1;stroke:none"
       id="rect3168-38"
       width="16"
       height="16"
       x="160"
       y="940.36218" />
    <rect
       style="fill:#668000;fill-opacity:1;stroke:none"
       id="rect3168-694"
       width="16"
       height="16"
       x="144"
       y="940.36218" />
    <g
       id="g4558"
       style="fill:#668000;fill-opacity:1">
      <rect
         y="972.36218"
         x="96"
         height="16"
         width="16"
         id="rect3168-87"
         style="fill:#668000;fill-opacity:1;stroke:none" />
      <rect
         y="956.36218"
         x="96"
         height="16"
         width="16"
         id="rect3168-94"
         style="fill:#668000;fill-opacity:1;stroke:none" />
      <rect
         y="940.36218"
         x="112"
         height="16"
         width="16"
         id="rect3168-24"
         style="fill:#668000;fill-opacity:1;stroke:none" />
      <rect
         y="924.36218"
         x="128"
         height="16"
         width="16"
         id="rect3168-23"
         style="fill:#668000;fill-opacity:1;stroke:none" />
      <rect
         y="908.36218"
         x="144"
         height="16"
         width="16"
         id="rect3168-59"
         style="fill:#668000;fill-opacity:1;stroke:none" />
      <rect
         y="892.36218"
         x="160"
         height="16"
         width="16"
         id="rect3168-811"
         style="fill:#668000;fill-opacity:1;stroke:none" />
      <rect
         y="892.36218"
         x="176"
         height="16"
         width="16"
         id="rect3168-692"
         style="fill:#668000;fill-opacity:1;stroke:none" />
      <rect
         y="908.36218"
         x="176"
         height="16"
         width="16"
         id="rect3168-03"
         style="fill:#668000;fill-opacity:1;stroke:none" />
      <rect
         y="924.36218"
         x="176"
         height="16"
         width="16"
         id="rect3168-591"
         style="fill:#668000;fill-opacity:1;stroke:none" />
      <rect
         y="972.36218"
         x="176"
         height="16"
         width="16"
         id="rect3168-91"
         style="fill:#668000;fill-opacity:1;stroke:none" />
      <rect
         y="972.36218"
         x="160"
         height="16"
         width="16"
         id="rect3168-21"
         style="fill:#668000;fill-opacity:1;stroke:none" />
      <rect
         y="972.36218"
         x="144"
         height="16"
         width="16"
         id="rect3168-191"
         style="fill:#668000;fill-opacity:1;stroke:none" />
      <rect
         y="972.36218"
         x="128"
         height="16"
         width="16"
         id="rect3168-00"
         style="fill:#668000;fill-opacity:1;stroke:none" />
      <rect
         y="972.36218"
         x="112"
         height="16"
         width="16"
         id="rect3168-554"
         style="fill:#668000;fill-opacity:1;stroke:none" />
      <rect
         y="956.36218"
         x="112"
         height="16"
         width="16"
         id="rect3168-98"
         style="fill:#668000;fill-opacity:1;stroke:none" />
      <rect
         y="940.36218"
         x="128"
         height="16"
         width="16"
         id="rect3168-70"
         style="fill:#668000;fill-opacity:1;stroke:none" />
      <rect
         y="924.36218"
         x="144"
         height="16"
         width="16"
         id="rect3168-556"
         style="fill:#668000;fill-opacity:1;stroke:none" />
      <rect
         y="924.36218"
         x="160"
         height="16"
         width="16"
         id="rect3168-16"
         style="fill:#668000;fill-opacity:1;stroke:none" />
      <rect
         y="908.36218"
         x="160"
         height="16"
         width="16"
         id="rect3168-869"
         style="fill:#668000;fill-opacity:1;stroke:none" />
    </g>
    <g
       id="g4579"
       style="fill:#8fb200;fill-opacity:1">
      <rect
         y="860.36218"
         x="80"
         height="16"
         width="16"
         id="rect3168-150"
         style="fill:#8fb200;fill-opacity:1;stroke:none" />
      <rect
         y="860.36218"
         x="96"
         height="16"
         width="16"
         id="rect3168-46"
         style="fill:#8fb200;fill-opacity:1;stroke:none" />
      <rect
         y="876.36218"
         x="112"
         height="16"
         width="16"
         id="rect3168-71"
         style="fill:#8fb200;fill-opacity:1;stroke:none" />
      <rect
         y="892.36218"
         x="112"
         height="16"
         width="16"
         id="rect3168-269"
         style="fill:#8fb200;fill-opacity:1;stroke:none" />
      <rect
         y="924.36218"
         x="96"
         height="16"
         width="16"
         id="rect3168-49"
         style="fill:#8fb200;fill-opacity:1;stroke:none" />
      <rect
         y="924.36218"
         x="80"
         height="16"
         width="16"
         id="rect3168-08"
         style="fill:#8fb200;fill-opacity:1;stroke:none" />
      <rect
         y="908.36218"
         x="112"
         height="16"
         width="16"
         id="rect3168-36"
         style="fill:#8fb200;fill-opacity:1;stroke:none" />
      <rect
         y="908.36218"
         x="64"
         height="16"
         width="16"
         id="rect3168-42"
         style="fill:#8fb200;fill-opacity:1;stroke:none" />
      <rect
         y="892.36218"
         x="64"
         height="16"
         width="16"
         id="rect3168-43"
         style="fill:#8fb200;fill-opacity:1;stroke:none" />
      <rect
         y="876.36218"
         x="64"
         height="16"
         width="16"
         id="rect3168-613"
         style="fill:#8fb200;fill-opacity:1;stroke:none" />
      <rect
         y="892.36218"
         x="128"
         height="16"
         width="16"
         id="rect3168-18"
         style="fill:#8fb200;fill-opacity:1;stroke:none" />
      <rect
         y="892.36218"
         x="48"
         height="16"
         width="16"
         id="rect3168-154"
         style="fill:#8fb200;fill-opacity:1;stroke:none" />
      <rect
         y="876.36218"
         x="128"
         height="16"
         width="16"
         id="rect3168-113"
         style="fill:#8fb200;fill-opacity:1;stroke:none" />
      <rect
         y="876.36218"
         x="48"
         height="16"
         width="16"
         id="rect3168-585"
         style="fill:#8fb200;fill-opacity:1;stroke:none" />
      <rect
         y="860.36218"
         x="64"
         height="16"
         width="16"
         id="rect3168-962"
         style="fill:#8fb200;fill-opacity:1;stroke:none" />
      <rect
         y="860.36218"
         x="112"
         height="16"
         width="16"
         id="rect3168-29"
         style="fill:#8fb200;fill-opacity:1;stroke:none" />
      <rect
         y="844.36218"
         x="80"
         height="16"
         width="16"
         id="rect3168-13"
         style="fill:#8fb200;fill-opacity:1;stroke:none" />
      <rect
         y="844.36218"
         x="96"
         height="16"
         width="16"
         id="rect3168-504"
         style="fill:#8fb200;fill-opacity:1;stroke:none" />
      <rect
         y="876.36218"
         x="80"
         height="16"
         width="16"
         id="rect3168-54"
         style="fill:#8fb200;fill-opacity:1;stroke:none" />
      <rect
         y="876.36218"
         x="96"
         height="16"
         width="16"
         id="rect3168-09"
         style="fill:#8fb200;fill-opacity:1;stroke:none" />
      <rect
         y="892.36218"
         x="80"
         height="16"
         width="16"
         id="rect3168-864"
         style="fill:#8fb200;fill-opacity:1;stroke:none" />
      <rect
         y="892.36218"
         x="96"
         height="16"
         width="16"
         id="rect3168-47"
         style="fill:#8fb200;fill-opacity:1;stroke:none" />
      <rect
         y="908.36218"
         x="80"
         height="16"
         width="16"
         id="rect3168-978"
         style="fill:#8fb200;fill-opacity:1;stroke:none" />
      <rect
         y="908.36218"
         x="96"
         height="16"
         width="16"
         id="rect3168-14"
         style="fill:#8fb200;fill-opacity:1;stroke:none" />
    </g>
    <rect
       style="fill:#aad400;fill-opacity:1;stroke:none"
       id="rect3168-76-4"
       width="16"
       height="16"
       x="208"
       y="988.36218" />
    <rect
       style="fill:#aad400;fill-opacity:1;stroke:none"
       id="rect3168-76-9"
       width="16"
       height="16"
       x="224"
       y="1004.3622" />
    <rect
       style="fill:#aad400;fill-opacity:1;stroke:none"
       id="rect3168-76-6"
       width="16"
       height="16"
       x="240"
       y="1020.3622" />
    <rect
       style="fill:#aad400;fill-opacity:1;stroke:none"
       id="rect3168-76-49"
       width="16"
       height="16"
       x="208"
       y="1004.3622" />
    <rect
       style="fill:#aad400;fill-opacity:1;stroke:none"
       id="rect3168-76-8"
       width="16"
       height="16"
       x="224"
       y="1020.3622" />
    <rect
       style="fill:#ffffff;fill-opacity:1;stroke:none"
       id="rect9691"
       width="39.412777"
       height="36.12838"
       x="388.15344"
       y="963.922" />
    <path
       inkscape:connector-curvature="0"
       style="fill:#aad400;fill-opacity:1;stroke:none"
       d="m 388.15625,957.36216 0,3.28125 -3.28125,0 0,39.40629 3.28125,0 0,3.2812 39.40625,0 0,-3.2812 3.28125,0 0,-39.40629 -3.28125,0 0,-3.28125 -6.5625,0 -6.5625,0 -26.28125,0 z m 26.28125,3.28125 6.5625,0 0,3.28125 0,3.28125 -6.5625,0 0,-3.28125 0,-3.28125 z m -19.71875,3.28125 6.5625,0 0,13.125 -6.5625,0 0,-13.125 z m 16.4375,6.5625 13.125,0 0,3.28125 3.28125,0 0,3.28125 -3.28125,0 0,3.28125 -9.84375,0 -3.28125,0 0,-3.28125 -3.28125,0 0,-0.40625 0,-2.875 3.28125,0 0,-3.28125 z m -19.71875,9.84375 12.625,0 0.5,0 0,3.3125 3.3125,0 0,3.28125 -3.3125,0 0,3.28125 -13.125,0 0,-3.28125 -3.28125,0 0,-3.28125 3.28125,0 0,-3.3125 z m 23,3.3125 6.5625,0 0,16.40629 -6.5625,0 0,-7.18754 0,-2.65625 0,-6.5625 z m -19.71875,9.84375 6.5625,0 0,6.56254 -6.5625,0 0,-6.56254 z"
       id="rect9498" />
  </g>
  <g
     inkscape:groupmode="layer"
     id="layer2"
     inkscape:label="Capa 2" />
</svg>
