<?xml version="1.0" encoding="UTF-8" standalone="no"?>
<!-- Created with Inkscape (http://www.inkscape.org/) -->

<svg
   xmlns:dc="http://purl.org/dc/elements/1.1/"
   xmlns:cc="http://creativecommons.org/ns#"
   xmlns:rdf="http://www.w3.org/1999/02/22-rdf-syntax-ns#"
   xmlns:svg="http://www.w3.org/2000/svg"
   xmlns="http://www.w3.org/2000/svg"
   xmlns:xlink="http://www.w3.org/1999/xlink"
   xmlns:sodipodi="http://sodipodi.sourceforge.net/DTD/sodipodi-0.dtd"
   xmlns:inkscape="http://www.inkscape.org/namespaces/inkscape"
   width="256"
   height="256"
   id="svg2"
   version="1.1"
   inkscape:version="0.48.3.1 r9886"
   sodipodi:docname="web-browser.svg">
  <defs
     id="defs4">
    <linearGradient
       id="linearGradient4119">
      <stop
         id="stop4121"
         offset="0"
         style="stop-color:#edfafe;stop-opacity:1;" />
      <stop
         id="stop4123"
         offset="1"
         style="stop-color:#86c0f4;stop-opacity:0;" />
    </linearGradient>
    <linearGradient
       id="linearGradient3972">
      <stop
         style="stop-color:#78def9;stop-opacity:1;"
         offset="0"
         id="stop3974" />
      <stop
         style="stop-color:#116bbb;stop-opacity:0.97484279;"
         offset="1"
         id="stop3976" />
    </linearGradient>
    <radialGradient
       inkscape:collect="always"
       xlink:href="#linearGradient3972"
       id="radialGradient3978"
       cx="417.1163"
       cy="91.481796"
       fx="417.1163"
       fy="91.481796"
       r="122.93438"
       gradientTransform="matrix(1.6153806,-0.74881169,0.635066,1.3700017,-329.24446,294.51187)"
       gradientUnits="userSpaceOnUse" />
    <linearGradient
       inkscape:collect="always"
       xlink:href="#linearGradient4119"
       id="linearGradient4117"
       x1="348.56787"
       y1="127.42867"
       x2="471.33572"
       y2="116.79466"
       gradientUnits="userSpaceOnUse" />
  </defs>
  <sodipodi:namedview
     id="base"
     pagecolor="#ffffff"
     bordercolor="#666666"
     borderopacity="1.0"
     inkscape:pageopacity="0.0"
     inkscape:pageshadow="2"
     inkscape:zoom="1.4"
     inkscape:cx="431.65069"
     inkscape:cy="61.942742"
     inkscape:document-units="px"
     inkscape:current-layer="layer1"
     showgrid="false"
     inkscape:window-width="1916"
     inkscape:window-height="1026"
     inkscape:window-x="0"
     inkscape:window-y="26"
     inkscape:window-maximized="1"
     inkscape:snap-global="false" />
  <metadata
     id="metadata7">
    <rdf:RDF>
      <cc:Work
         rdf:about="">
        <dc:format>image/svg+xml</dc:format>
        <dc:type
           rdf:resource="http://purl.org/dc/dcmitype/StillImage" />
        <dc:title />
      </cc:Work>
    </rdf:RDF>
  </metadata>
  <g
     inkscape:label="Layer 1"
     inkscape:groupmode="layer"
     id="layer1"
     transform="translate(0,-796.36218)">
    <path
       sodipodi:type="arc"
       style="fill:url(#radialGradient3978);fill-opacity:1;stroke:none"
       id="path3202"
       sodipodi:cx="442.85715"
       sodipodi:cy="172.42857"
       sodipodi:rx="121.42857"
       sodipodi:ry="121.42857"
       d="m 563.93471,163.2024 c 5.09547,66.8693 -44.9821,125.20826 -111.85139,130.30374 -66.8693,5.09547 -125.20826,-44.98211 -130.30374,-111.8514 -5.09547,-66.86929 44.98211,-125.208257 111.8514,-130.30373 65.8386,-5.016933 123.61928,43.49532 130.07329,109.20861"
       transform="translate(-316.07622,753.50504)"
       sodipodi:start="6.2071318"
       sodipodi:end="12.46847"
       sodipodi:open="true" />
    <path
       style="fill:#03ccff;fill-opacity:0.77625571;stroke:none"
       d="m 110.10663,838.20984 33.33504,13.13198 6.06091,24.24366 -29.29442,31.31473 -3.03046,36.36549 32.32488,17.1726 17.1726,31.31472 -12.12183,24.24368 11.11167,22.2233 6.06092,-12.1218 18.18274,-10.1015 c 0,0 8.08123,-17.17261 10.10153,-21.21322 2.02031,-4.04061 6.06092,-31.31473 6.06092,-31.31473 l 21.2132,-26.26396 -3.03046,-55.55839 -52.52793,-14.14214 -10.10153,1.01016 -13.13198,-20.20305 -25.25381,-11.11168 1.01015,-21.21321 c 0,0 -60.609152,6.06092 -60.609152,23.23351 0,17.1726 6.06091,40.4061 6.06091,40.4061 z"
       id="path4125"
       inkscape:connector-curvature="0" />
    <path
       style="fill:none;stroke:#2ad4ff;stroke-width:3;stroke-linecap:butt;stroke-linejoin:miter;stroke-miterlimit:4;stroke-opacity:1;stroke-dasharray:none"
       d="m 51.423778,840.21932 c 0.54383,6.77209 17.30004,17.39258 47.85714,6.07143 26.244442,-9.72334 25.071002,-29.45973 18.928582,-33.21428 -6.66383,-4.07327 -26.459752,-0.92892 -38.571432,3.57142 -12.11169,4.50035 -28.75812,16.79935 -28.21429,23.57143 z"
       id="path3985"
       inkscape:connector-curvature="0"
       sodipodi:nodetypes="zsszz" />
    <path
       style="fill:none;stroke:#2ad4ff;stroke-width:3;stroke-linecap:butt;stroke-linejoin:miter;stroke-miterlimit:4;stroke-opacity:1;stroke-dasharray:none"
       d="m 29.638068,855.93361 c 0,0 -13.51828,25.89188 8.57143,37.85714 17.14285,9.28571 63.280842,11.42097 100.000002,-7.85714 33.83673,-17.76479 54.28571,-57.5 38.57143,-68.21429"
       id="path3987"
       inkscape:connector-curvature="0"
       sodipodi:nodetypes="cssc" />
    <path
       style="fill:none;stroke:#2ad4ff;stroke-width:3;stroke-linecap:butt;stroke-linejoin:miter;stroke-miterlimit:4;stroke-opacity:1;stroke-dasharray:none"
       d="m 7.4952079,933.07647 c 0,0 -1.78572,18.92857 27.5000001,27.5 29.28571,8.57143 76.944832,9.98102 127.857142,-15 47.18547,-23.15238 68.21429,-81.07143 58.21429,-93.21429"
       id="path3989"
       inkscape:connector-curvature="0"
       sodipodi:nodetypes="cssc" />
    <path
       style="fill:none;stroke:#2ad4ff;stroke-width:3;stroke-linecap:butt;stroke-linejoin:miter;stroke-miterlimit:4;stroke-opacity:1;stroke-dasharray:none"
       d="m 29.638058,998.4336 c 0,0 52.05887,32.6728 115.714292,16.0714 58.17002,-15.17076 102.14286,-66.07139 100.00001,-104.64282"
       id="path3991"
       inkscape:connector-curvature="0"
       sodipodi:nodetypes="csc" />
    <path
       style="fill:none;stroke:#2ad4ff;stroke-width:3;stroke-linecap:butt;stroke-linejoin:miter;stroke-miterlimit:4;stroke-opacity:1;stroke-dasharray:none"
       d="m 90.352348,1039.8622 c 0,0 29.061372,7.1191 71.428572,-5.3572 40.45084,-11.9119 62.14286,-38.21425 62.14286,-38.21425"
       id="path3993"
       inkscape:connector-curvature="0"
       sodipodi:nodetypes="csc" />
    <path
       style="fill:none;stroke:#2ad4ff;stroke-width:3;stroke-linecap:butt;stroke-linejoin:miter;stroke-miterlimit:4;stroke-opacity:1;stroke-dasharray:none"
       d="M 188.92379,1030.9336 C 238.78021,987.03042 249.24313,916.62067 204.63807,863.79075 170.44379,823.29128 91.066638,825.21932 91.066638,825.21932 c 0,0 56.204722,30.09336 73.571432,71.42857 17.11139,40.72752 25.71428,84.28571 -0.71429,144.28571"
       id="path3995"
       inkscape:connector-curvature="0"
       sodipodi:nodetypes="cscsc" />
    <path
       style="fill:none;stroke:#96d2f2;stroke-width:2;stroke-linecap:butt;stroke-linejoin:miter;stroke-miterlimit:4;stroke-opacity:1;stroke-dasharray:none"
       d="m 176.7767,842.25045 c 0,0 -97.984802,33.33503 -100.005102,125.25892 0,0 -55.05332,-26.76904 -59.59901,-86.87313"
       id="path4132"
       inkscape:connector-curvature="0"
       sodipodi:nodetypes="ccc" />
    <path
       style="fill:none;stroke:#2ad4ff;stroke-width:3;stroke-linecap:butt;stroke-linejoin:miter;stroke-miterlimit:4;stroke-opacity:1;stroke-dasharray:none"
       d="M 131.06664,1045.9336 C 99.638068,1033.0765 69.157998,972.6852 66.780918,921.6479 c -2.62617,-56.38553 23.57143,-95.00001 23.57143,-95.00001 0,0 -12.78142,-3.68706 -35,17.14286 -22.85714,21.42857 -37.45963,78.09937 -32.14286,110.00001 7.14286,42.85713 52.2006,88.57144 102.142862,92.14284"
       id="path3997"
       inkscape:connector-curvature="0"
       sodipodi:nodetypes="cscssc" />
    <path
       style="fill:none;stroke:#2ad4ff;stroke-width:3;stroke-linecap:butt;stroke-linejoin:miter;stroke-miterlimit:4;stroke-opacity:1;stroke-dasharray:none"
       d="m 89.638068,825.21932 c 0,0 24.748742,-14.58158 59.034452,-16.72444"
       id="path3999"
       inkscape:connector-curvature="0"
       sodipodi:nodetypes="cc" />
    <path
       style="fill:none;stroke:#2ad4ff;stroke-width:3;stroke-linecap:butt;stroke-linejoin:miter;stroke-miterlimit:4;stroke-opacity:1;stroke-dasharray:none"
       d="m 113.92444,805.66088 c 0,0 -30.809662,2.59101 -23.798062,20.14613"
       id="path3999-4"
       inkscape:connector-curvature="0"
       sodipodi:nodetypes="cc" />
    <path
       style="fill:none;stroke:#2ad4ff;stroke-width:3;stroke-linecap:butt;stroke-linejoin:miter;stroke-miterlimit:4;stroke-opacity:1;stroke-dasharray:none"
       d="m 57.295108,827.84186 c 0,0 24.12294,-19.33992 31.12935,-1.78272"
       id="path3999-4-7"
       inkscape:connector-curvature="0"
       sodipodi:nodetypes="cc" />
    <path
       style="fill:none;stroke:#96d2f2;stroke-width:2;stroke-linecap:butt;stroke-linejoin:miter;stroke-miterlimit:4;stroke-opacity:1;stroke-dasharray:none"
       d="m 75.761438,965.48906 c 0,0 61.619312,-9.09137 84.852822,16.16244 23.23351,25.2538 13.13198,21.2132 13.13198,21.2132 0,0 56.56854,-34.34518 55.55839,-90.91372 -1.01015,-56.56855 -2.0203,-56.56855 -2.0203,-56.56855"
       id="path4134"
       inkscape:connector-curvature="0"
       sodipodi:nodetypes="cscsc" />
    <path
       sodipodi:type="arc"
       style="fill:#2ad4ff;stroke:none"
       id="path4037"
       sodipodi:cx="384.64285"
       sodipodi:cy="173.14285"
       sodipodi:rx="9.6428576"
       sodipodi:ry="9.2857141"
       d="m 394.25784,172.43732 c 0.40464,5.11354 -3.57211,9.57475 -8.88232,9.9644 -5.31021,0.38966 -9.94301,-3.4398 -10.34765,-8.55334 -0.40464,-5.11353 3.57211,-9.57475 8.88232,-9.9644 5.22836,-0.38365 9.81682,3.32611 10.32935,8.35125"
       transform="translate(-306.07622,796.36218)"
       sodipodi:start="6.2071318"
       sodipodi:end="12.46847"
       sodipodi:open="true" />
    <path
       style="fill:none;stroke:#96d2f2;stroke-width:2;stroke-linecap:butt;stroke-linejoin:miter;stroke-miterlimit:4;stroke-opacity:1;stroke-dasharray:none"
       d="m 46.066638,833.07647 c 0,0 6.73376,-4.4377 31.42857,3.57142 26.428582,8.57143 67.142862,43.57143 87.142862,80.71429 20,37.14286 10,84.28572 10,84.28572 0,0 -13.57143,23.5714 -39.28572,34.2857 -25.71428,10.7143 -35.714282,7.8572 -35.714282,7.8572"
       id="path4136"
       inkscape:connector-curvature="0"
       sodipodi:nodetypes="csscsc" />
    <path
       transform="translate(-209.2905,829.21932)"
       sodipodi:type="arc"
       style="fill:#aaeeff;stroke:none"
       id="path4037-7"
       sodipodi:cx="384.64285"
       sodipodi:cy="173.14285"
       sodipodi:rx="9.6428576"
       sodipodi:ry="9.2857141"
       d="m 394.25784,172.43732 c 0.40464,5.11354 -3.57211,9.57475 -8.88232,9.9644 -5.31021,0.38966 -9.94301,-3.4398 -10.34765,-8.55334 -0.40464,-5.11353 3.57211,-9.57475 8.88232,-9.9644 5.22836,-0.38365 9.81682,3.32611 10.32935,8.35125"
       sodipodi:start="6.2071318"
       sodipodi:end="12.46847"
       sodipodi:open="true" />
    <path
       transform="matrix(0.73812113,0,0,0.73812113,-106.08605,714.98707)"
       sodipodi:type="arc"
       style="fill:#d5f6ff;stroke:none"
       id="path4037-7-5"
       sodipodi:cx="384.64285"
       sodipodi:cy="173.14285"
       sodipodi:rx="9.6428576"
       sodipodi:ry="9.2857141"
       d="m 394.25784,172.43732 c 0.40464,5.11354 -3.57211,9.57475 -8.88232,9.9644 -5.31021,0.38966 -9.94301,-3.4398 -10.34765,-8.55334 -0.40464,-5.11353 3.57211,-9.57475 8.88232,-9.9644 5.22836,-0.38365 9.81682,3.32611 10.32935,8.35125"
       sodipodi:start="6.2071318"
       sodipodi:end="12.46847"
       sodipodi:open="true" />
    <path
       sodipodi:type="arc"
       style="fill:none;stroke:#000000;stroke-width:3;stroke-miterlimit:4;stroke-opacity:1;stroke-dasharray:none"
       id="path3202-9"
       sodipodi:cx="442.85715"
       sodipodi:cy="172.42857"
       sodipodi:rx="121.42857"
       sodipodi:ry="121.42857"
       d="M 563.71305,160.6494 C 570.21851,227.39628 521.38319,286.77902 454.63632,293.28448 387.88944,299.78993 328.5067,250.95462 322.00124,184.20774 315.49579,117.46087 364.3311,58.078125 431.07798,51.572669 497.78979,45.070631 557.15267,93.852659 563.70427,160.55962"
       transform="translate(-314.56777,752.65422)"
       sodipodi:start="6.1860276"
       sodipodi:end="12.46847"
       sodipodi:open="true" />
    <path
       sodipodi:type="arc"
       style="fill:url(#linearGradient4117);fill-opacity:1;stroke:none"
       id="path4109"
       sodipodi:cx="423.57144"
       sodipodi:cy="127.42857"
       sodipodi:rx="75"
       sodipodi:ry="84.228134"
       d="m 498.35464,121.0289 c 3.1472,46.38345 -27.78306,86.84989 -69.08468,90.38433 -41.30162,3.53444 -77.33451,-31.20154 -80.48172,-77.58498 -3.1472,-46.383451 27.78307,-86.849894 69.08469,-90.384334 27.86848,-2.384883 54.60594,12.831066 69.3739,39.479818"
       transform="matrix(0.29843344,0.93628271,-0.95443045,0.35647236,107.74503,443.71704)"
       sodipodi:start="6.2071318"
       sodipodi:end="12.009674"
       sodipodi:open="true" />
  </g>
</svg>
