<?xml version="1.0" encoding="UTF-8" standalone="no"?>
<!-- Created with Inkscape (http://www.inkscape.org/) -->

<svg
   xmlns:dc="http://purl.org/dc/elements/1.1/"
   xmlns:cc="http://creativecommons.org/ns#"
   xmlns:rdf="http://www.w3.org/1999/02/22-rdf-syntax-ns#"
   xmlns:svg="http://www.w3.org/2000/svg"
   xmlns="http://www.w3.org/2000/svg"
   xmlns:sodipodi="http://sodipodi.sourceforge.net/DTD/sodipodi-0.dtd"
   xmlns:inkscape="http://www.inkscape.org/namespaces/inkscape"
   width="256"
   height="256"
   id="svg4374"
   version="1.1"
   inkscape:version="0.48.5 r10040"
   sodipodi:docname="document-export.svg">
  <defs
     id="defs4376" />
  <sodipodi:namedview
     id="base"
     pagecolor="#ffffff"
     bordercolor="#666666"
     borderopacity="1.0"
     inkscape:pageopacity="0.0"
     inkscape:pageshadow="2"
     inkscape:zoom="1.7124294"
     inkscape:cx="156.88087"
     inkscape:cy="130.42701"
     inkscape:document-units="px"
     inkscape:current-layer="layer1"
     showgrid="false"
     inkscape:window-width="1916"
     inkscape:window-height="1026"
     inkscape:window-x="0"
     inkscape:window-y="25"
     inkscape:window-maximized="1" />
  <metadata
     id="metadata4379">
    <rdf:RDF>
      <cc:Work
         rdf:about="">
        <dc:format>image/svg+xml</dc:format>
        <dc:type
           rdf:resource="http://purl.org/dc/dcmitype/StillImage" />
        <dc:title />
      </cc:Work>
    </rdf:RDF>
  </metadata>
  <g
     inkscape:label="Capa 1"
     inkscape:groupmode="layer"
     id="layer1"
     transform="translate(0,-796.36218)">
    <g
       id="layer9-9"
       style="fill:#4ecae9;fill-opacity:1;display:inline"
       transform="matrix(16.426419,0,0,16.426419,-3957.9134,-9842.971)"
       inkscape:label="status" />
    <g
       style="fill:#4ecae9;fill-opacity:1"
       id="layer10-8"
       transform="matrix(16.426419,0,0,16.426419,-3957.9134,-9842.971)"
       inkscape:label="devices" />
    <g
       style="fill:#4ecae9;fill-opacity:1"
       id="layer11-5"
       transform="matrix(16.426419,0,0,16.426419,-3957.9134,-9842.971)"
       inkscape:label="apps" />
    <g
       style="fill:#4ecae9;fill-opacity:1"
       id="layer13-6"
       transform="matrix(16.426419,0,0,16.426419,-3957.9134,-9842.971)"
       inkscape:label="places" />
    <g
       style="fill:#4ecae9;fill-opacity:1"
       id="layer14-6"
       transform="matrix(16.426419,0,0,16.426419,-3957.9134,-9842.971)"
       inkscape:label="mimetypes" />
    <g
       id="layer15-0"
       style="fill:#4ecae9;fill-opacity:1;display:inline"
       transform="matrix(16.426419,0,0,16.426419,-3957.9134,-9842.971)"
       inkscape:label="emblems" />
    <g
       id="g71291"
       style="fill:#4ecae9;fill-opacity:1;display:inline"
       transform="matrix(16.426419,0,0,16.426419,-3957.9134,-9842.971)"
       inkscape:label="emotes" />
    <g
       id="g4953"
       style="fill:#4ecae9;fill-opacity:1;display:inline"
       transform="matrix(16.426419,0,0,16.426419,-3957.9134,-9842.971)"
       inkscape:label="categories" />
    <g
       id="layer12-7"
       style="fill:#4ecae9;fill-opacity:1;display:inline"
       transform="matrix(16.426419,0,0,16.426419,-3955.5775,-9841.8031)"
       inkscape:label="actions" />
    <path
       style="fill:#666666;fill-opacity:1;stroke:none"
       d="m 102.5431,820.62136 c -6.715046,0.64884 -12.448053,8.5036 -12.330461,16.875 l 0,187.54564 c -0.10582,8.867 6.430474,17.0041 13.563501,16.875 l 131.58367,0 c 7.13304,0.1314 13.66722,-8.008 13.56351,-16.875 l 0,-150.16245 c -0.0529,-4.38651 -1.55575,-8.7121 -4.10177,-11.75 l -39.48264,-37.38319 c -2.44378,-3.16487 -5.93307,-5.06176 -9.46175,-5.125 l -92.10102,0 c -0.41137,-0.0163 -0.82167,-0.0163 -1.23304,0 z m -66.115553,50.44593 49.110182,50.11983 -49.563628,48.75236 0.114632,-25.12429 -28.6302063,-0.26983 0.1352377,-43.21811 28.7022326,0.2705 z"
       id="path3055"
       inkscape:connector-curvature="0"
       sodipodi:nodetypes="cccccccccccccccccccc" />
  </g>
</svg>
