<?xml version="1.0" encoding="UTF-8" standalone="no"?>
<!-- Generator: Adobe Illustrator 9.0, SVG Export Plug-In  -->

<svg
   xmlns:dc="http://purl.org/dc/elements/1.1/"
   xmlns:cc="http://creativecommons.org/ns#"
   xmlns:rdf="http://www.w3.org/1999/02/22-rdf-syntax-ns#"
   xmlns:svg="http://www.w3.org/2000/svg"
   xmlns="http://www.w3.org/2000/svg"
   xmlns:sodipodi="http://sodipodi.sourceforge.net/DTD/sodipodi-0.dtd"
   xmlns:inkscape="http://www.inkscape.org/namespaces/inkscape"
   width="256"
   height="256"
   viewBox="0 0 256 256"
   xml:space="preserve"
   id="svg2"
   sodipodi:version="0.32"
   inkscape:version="0.48.3.1 r9886"
   sodipodi:docname="gtk-select-font.svg"
   inkscape:output_extension="org.inkscape.output.svg.inkscape"
   version="1.0"><metadata
   id="metadata45"><rdf:RDF><cc:Work
       rdf:about=""><dc:format>image/svg+xml</dc:format><dc:type
         rdf:resource="http://purl.org/dc/dcmitype/StillImage" /><dc:title /></cc:Work></rdf:RDF></metadata><defs
   id="defs43">
		
	
			
			
			
			
			
			
			
			
		
				
				
			</defs><sodipodi:namedview
   inkscape:window-height="1026"
   inkscape:window-width="1913"
   inkscape:pageshadow="2"
   inkscape:pageopacity="0.0"
   guidetolerance="10.0"
   gridtolerance="10.0"
   objecttolerance="10.0"
   borderopacity="1.0"
   bordercolor="#666666"
   pagecolor="#ffffff"
   id="base"
   showgrid="true"
   inkscape:object-paths="true"
   inkscape:object-nodes="true"
   inkscape:zoom="1.7383042"
   inkscape:cx="120.56125"
   inkscape:cy="64.677966"
   inkscape:window-x="0"
   inkscape:window-y="26"
   inkscape:window-maximized="1"
   inkscape:current-layer="svg2"
   inkscape:snap-grids="false"
   inkscape:snap-page="true"
   showguides="true"
   inkscape:guide-bbox="true"><inkscape:grid
     type="xygrid"
     id="grid2399"
     visible="true"
     enabled="false"
     empspacing="5"
     snapvisiblegridlinesonly="true" /><sodipodi:guide
     orientation="0,1"
     position="269.80318,-52.349871"
     id="guide3824" /></sodipodi:namedview>
	
	<g
   id="crop_x0020_marks"
   style="fill-rule:nonzero;stroke:#000000;stroke-miterlimit:4"
   transform="scale(5.3333333,5.3333333)">
		<path
   style="fill:none;stroke:none"
   d="M 48,48 0,48 0,0 48,0 48,48 z"
   id="path40"
   inkscape:connector-curvature="0" />
	</g>


<g
   style="font-size:139.98519897px;font-style:normal;font-variant:normal;font-weight:normal;font-stretch:normal;line-height:125%;letter-spacing:0px;word-spacing:0px;fill:none;stroke:#666666;stroke-width:6.80000019;stroke-miterlimit:4;font-family:'A.C.M.E. Secret Agent';-inkscape-font-specification:'A.C.M.E. Secret Agent'"
   id="text2989"><path
     d="m 117.56101,115.64869 c -9e-5,2.18729 -0.4102,4.23785 -1.23034,6.1517 -1.09372,2.46068 -2.64303,3.69102 -4.64795,3.69101 -2.36961,1e-5 -4.05563,-2.09612 -5.05806,-6.28839 -7e-5,-0.18226 -0.36461,-3.32646 -1.09363,-9.4326 -0.72916,-6.92632 -1.64052,-14.080507 -2.73409,-21.462575 -12.394577,1.093677 -27.06749,5.285938 -44.018779,12.576795 -1.731612,4.83024 -3.280926,9.38705 -4.647946,13.67043 -1.367063,4.19228 -2.688537,8.2934 -3.964424,12.30339 -2.369557,5.92385 -4.8758,8.88577 -7.518737,8.88578 -1.275916,-10e-6 -2.278413,-1.04807 -3.007494,-3.1442 -0.455688,-1.45818 -0.683528,-3.0075 -0.683521,-4.64795 -7e-6,-2.46067 1.868283,-9.79713 5.604876,-22.00939 2.825206,-9.204722 5.331449,-16.905723 7.518736,-23.103027 5.832691,-16.40445 10.29836,-27.933167 13.397021,-34.586187 8.019944,-17.22464 15.310832,-25.837002 21.872687,-25.837111 9.022419,1.09e-4 16.768991,15.948927 23.239731,47.846503 l 0.41011,-0.136704 c 2.09605,0.364606 3.7365,1.91392 4.92136,4.647946 0.91127,2.187323 1.36695,4.511294 1.36704,6.971919 -9e-5,4.101175 -1.13929,6.379577 -3.41761,6.835215 2.4606,16.404546 3.69093,25.427016 3.69102,27.067446 M 100.19956,72.723545 C 96.462914,54.496383 91.997245,45.382772 86.802542,45.382686 c -5.377085,8.6e-5 -12.394565,11.84778 -21.052462,35.543117 7.746536,-1.366991 19.229685,-4.101074 34.44948,-8.202258"
     style=""
     id="path3869" /></g><g
   style="font-size:159.40513611px;font-style:normal;font-variant:normal;font-weight:normal;font-stretch:normal;line-height:125%;letter-spacing:0px;word-spacing:0px;fill:#666666;fill-opacity:1;stroke:none;font-family:'A.C.M.E. Secret Agent';-inkscape-font-specification:'A.C.M.E. Secret Agent'"
   id="text2989-7"><path
     d="m 181.94383,53.393837 -5.10097,0 -43.03938,98.990593 c -1.91286,4.62274 -5.10097,7.49204 -8.60788,7.81085 l -5.89799,0.47821 0,4.78216 c 14.82466,-0.47822 14.82468,-0.47822 17.37516,-0.47822 2.07226,0 2.07228,0 19.28802,0.47822 l 0,-4.78216 -5.89799,-0.47821 c -5.57917,-0.47822 -7.65145,-1.59406 -7.65145,-4.14454 l 10.04253,-27.57708 45.90868,0 7.33263,18.33159 c 2.70989,6.69501 3.34751,8.76728 3.34751,10.20193 0,1.75345 -2.55049,2.86929 -6.53561,3.1881 l -7.49204,0.47821 0,4.78216 c 19.60681,-0.47822 19.60683,-0.47822 22.15731,-0.47822 3.0287,0 3.02872,0 20.24446,0.47822 l 0,-4.78216 -5.41978,-0.47821 c -4.14453,-0.63762 -5.898,-3.34752 -11.47717,-16.25933 L 181.94383,53.393837 m -26.78007,68.703613 20.24446,-47.50273 20.08504,47.50273 -40.3295,0"
     style="fill:#666666;font-family:Asana Math;-inkscape-font-specification:Asana Math"
     id="path3866" /></g><g
   style="font-size:159.40513611px;font-style:normal;font-variant:normal;font-weight:bold;font-stretch:normal;line-height:125%;letter-spacing:0px;word-spacing:0px;fill:#666666;fill-opacity:1;stroke:none;font-family:'A.C.M.E. Secret Agent';-inkscape-font-specification:Linux Biolinum Capitals O Bold"
   id="text2989-7-3-3"><path
     d="m 97.622162,194.13043 c -4.463339,0.15941 -9.564312,0.15941 -13.230626,0.15941 -4.622744,0 -11.63658,-0.15941 -16.737539,-0.15941 l 14.984082,-34.90972 0.956431,0 c 5.579174,13.23061 10.201933,24.86721 14.027652,34.90972 m -33.634483,8.92669 c 6.057389,-0.15941 15.462303,-0.15941 21.200883,-0.15941 5.100959,0 10.520744,0 15.781108,0.15941 7.49203,20.08502 10.99896,32.04043 11.95539,35.54734 2.70988,-0.47821 10.20193,-0.47821 12.91181,-0.47821 2.70989,0 11.79598,0 14.50587,0.47821 -7.97025,-16.0999 -29.96818,-70.4571 -43.677009,-105.36679 l -14.346462,0 c -15.302878,35.3879 -30.924612,70.13829 -47.024515,105.36679 1.91286,-0.47821 7.173233,-0.47821 8.926688,-0.47821 1.753454,0 5.260371,0 7.173231,0.47821 2.391074,-9.5643 7.173236,-22.15732 12.593006,-35.54734"
     style="fill:#666666;font-family:Linux Biolinum Capitals O;-inkscape-font-specification:Linux Biolinum Capitals O Bold"
     id="path3863" /></g></svg>