<?xml version="1.0" encoding="UTF-8" standalone="no"?>
<!-- Created with Inkscape (http://www.inkscape.org/) -->

<svg
   xmlns:dc="http://purl.org/dc/elements/1.1/"
   xmlns:cc="http://creativecommons.org/ns#"
   xmlns:rdf="http://www.w3.org/1999/02/22-rdf-syntax-ns#"
   xmlns:svg="http://www.w3.org/2000/svg"
   xmlns="http://www.w3.org/2000/svg"
   xmlns:sodipodi="http://sodipodi.sourceforge.net/DTD/sodipodi-0.dtd"
   xmlns:inkscape="http://www.inkscape.org/namespaces/inkscape"
   width="256"
   height="256"
   id="svg2"
   version="1.1"
   inkscape:version="0.48.3.1 r9886"
   sodipodi:docname="gtk-index.svg">
  <defs
     id="defs4">
    <inkscape:path-effect
       effect="skeletal"
       id="path-effect2997"
       is_visible="true"
       pattern="M 0,5 C 0,2.24 2.24,0 5,0 7.76,0 10,2.24 10,5 10,7.76 7.76,10 5,10 2.24,10 0,7.76 0,5 z"
       copytype="single_stretched"
       prop_scale="1"
       scale_y_rel="false"
       spacing="0"
       normal_offset="0"
       tang_offset="0"
       prop_units="false"
       vertical_pattern="false"
       fuse_tolerance="0" />
  </defs>
  <sodipodi:namedview
     id="base"
     pagecolor="#ffffff"
     bordercolor="#666666"
     borderopacity="1.0"
     inkscape:pageopacity="0.0"
     inkscape:pageshadow="2"
     inkscape:zoom="1.0380137"
     inkscape:cx="3.3513139"
     inkscape:cy="59.460235"
     inkscape:document-units="px"
     inkscape:current-layer="layer1"
     showgrid="false"
     inkscape:window-width="1913"
     inkscape:window-height="1026"
     inkscape:window-x="0"
     inkscape:window-y="26"
     inkscape:window-maximized="1" />
  <metadata
     id="metadata7">
    <rdf:RDF>
      <cc:Work
         rdf:about="">
        <dc:format>image/svg+xml</dc:format>
        <dc:type
           rdf:resource="http://purl.org/dc/dcmitype/StillImage" />
        <dc:title></dc:title>
      </cc:Work>
    </rdf:RDF>
  </metadata>
  <g
     inkscape:label="Capa 1"
     inkscape:groupmode="layer"
     id="layer1"
     transform="translate(0,-796.36218)">
    <rect
       x="104.59113"
       y="815.58685"
       id="rect3825-9-8-7-9-1-5"
       height="27.922268"
       inkscape:label="a"
       width="123.07735"
       style="color:#bebebe;fill:#666666;fill-opacity:1;stroke:none;stroke-width:1;marker:none;visibility:visible;display:inline;overflow:visible" />
    <rect
       x="193.71379"
       y="906.14148"
       id="rect3825-9-8-7-8-9-9-8-3"
       height="27.922268"
       inkscape:label="a"
       width="33.9547"
       style="color:#bebebe;fill:#666666;fill-opacity:1;stroke:none;stroke-width:1;marker:none;visibility:visible;display:inline;overflow:visible" />
    <path
       style="fill:#666666;fill-opacity:1;fill-rule:evenodd;stroke:none"
       d="m 24.342422,975.08651 c 0.340605,-32.58127 -4.474463,-53.04693 13.394626,-53.45332 17.869089,-0.40639 16.212144,30.05594 16.212144,30.05594 L 52.504124,830.30345 c 0,0 4.593268,-14.93236 13.005608,-14.93236 11.570573,0 16.859123,4.81689 16.377434,14.45067 -0.481689,9.63379 0.963378,82.36886 0.963378,82.36886 0,0 0.240847,-24.08446 15.895745,-24.08446 15.654901,0 16.859121,22.88023 16.859121,22.88023 0,0 -0.15231,-18.72105 16.53563,-18.78587 16.68795,-0.0648 17.74194,21.12378 17.74194,21.12378 0,0 2.96568,-11.49 17.17552,-11.24915 14.20983,0.24085 16.98372,14.51877 17.18763,28.41966 0.33163,22.60786 0.0655,48.3183 0.0413,69.42583 -0.0242,21.10756 -25.95277,30.64866 -25.95277,30.64866 l -0.34061,11.6774 -90.075881,0.4817 -0.540128,-11.23 C 34.776123,1003.0579 24.548609,997.37261 24.342422,975.08651 z"
       id="path2995"
       inkscape:connector-curvature="0"
       sodipodi:nodetypes="czccssczczczszccccc" />
    <rect
       x="150.88626"
       y="861.13947"
       id="rect3825-9-8-7-9-1-5-6"
       height="27.922268"
       inkscape:label="a"
       width="76.353493"
       style="color:#bebebe;fill:#666666;fill-opacity:1;stroke:none;stroke-width:1;marker:none;visibility:visible;display:inline;overflow:visible" />
    <rect
       x="194.00252"
       y="951.69702"
       id="rect3825-9-8-7-8-9-9-8-3-4"
       height="27.922268"
       inkscape:label="a"
       width="33.9547"
       style="color:#bebebe;fill:#666666;fill-opacity:1;stroke:none;stroke-width:1;marker:none;visibility:visible;display:inline;overflow:visible" />
    <rect
       x="194.00252"
       y="996.01239"
       id="rect3825-9-8-7-8-9-9-8-3-3"
       height="27.922268"
       inkscape:label="a"
       width="33.9547"
       style="color:#bebebe;fill:#666666;fill-opacity:1;stroke:none;stroke-width:1;marker:none;visibility:visible;display:inline;overflow:visible" />
  </g>
</svg>
