<?xml version="1.0" encoding="UTF-8" standalone="no"?>
<!-- Created with Inkscape (http://www.inkscape.org/) -->

<svg
   xmlns:dc="http://purl.org/dc/elements/1.1/"
   xmlns:cc="http://creativecommons.org/ns#"
   xmlns:rdf="http://www.w3.org/1999/02/22-rdf-syntax-ns#"
   xmlns:svg="http://www.w3.org/2000/svg"
   xmlns="http://www.w3.org/2000/svg"
   xmlns:sodipodi="http://sodipodi.sourceforge.net/DTD/sodipodi-0.dtd"
   xmlns:inkscape="http://www.inkscape.org/namespaces/inkscape"
   width="256"
   height="256"
   id="svg4374"
   version="1.1"
   inkscape:version="0.48.3.1 r9886"
   sodipodi:docname="gtk-orientation-reverse-portrait.svg">
  <defs
     id="defs4376" />
  <sodipodi:namedview
     id="base"
     pagecolor="#ffffff"
     bordercolor="#666666"
     borderopacity="1.0"
     inkscape:pageopacity="0.0"
     inkscape:pageshadow="2"
     inkscape:zoom="1.7124294"
     inkscape:cx="76.144833"
     inkscape:cy="39.56933"
     inkscape:document-units="px"
     inkscape:current-layer="layer1"
     showgrid="false"
     inkscape:window-width="1918"
     inkscape:window-height="1032"
     inkscape:window-x="0"
     inkscape:window-y="25"
     inkscape:window-maximized="1"
     showguides="true"
     inkscape:guide-bbox="true" />
  <metadata
     id="metadata4379">
    <rdf:RDF>
      <cc:Work
         rdf:about="">
        <dc:format>image/svg+xml</dc:format>
        <dc:type
           rdf:resource="http://purl.org/dc/dcmitype/StillImage" />
        <dc:title />
      </cc:Work>
    </rdf:RDF>
  </metadata>
  <g
     inkscape:label="Capa 1"
     inkscape:groupmode="layer"
     id="layer1"
     transform="translate(0,-796.36218)">
    <g
       id="g6121"
       transform="matrix(16.426419,0,0,16.426419,0.85689545,784.92219)"
       style="fill:#492356;fill-opacity:1">
      <g
         inkscape:label="status"
         transform="translate(-241.0002,-647)"
         style="fill:#492356;fill-opacity:1;display:inline"
         id="layer9-9" />
      <g
         inkscape:label="devices"
         transform="translate(-241.0002,-647)"
         id="layer10-8"
         style="fill:#492356;fill-opacity:1" />
      <g
         inkscape:label="apps"
         transform="translate(-241.0002,-647)"
         id="layer11-5"
         style="fill:#492356;fill-opacity:1" />
      <g
         inkscape:label="places"
         transform="translate(-241.0002,-647)"
         id="layer13-6"
         style="fill:#492356;fill-opacity:1" />
      <g
         inkscape:label="mimetypes"
         transform="translate(-241.0002,-647)"
         id="layer14-6"
         style="fill:#492356;fill-opacity:1" />
      <g
         inkscape:label="emblems"
         transform="translate(-241.0002,-647)"
         style="fill:#492356;fill-opacity:1;display:inline"
         id="layer15-0" />
      <g
         inkscape:label="emotes"
         transform="translate(-241.0002,-647)"
         style="fill:#492356;fill-opacity:1;display:inline"
         id="g71291" />
      <g
         inkscape:label="categories"
         transform="translate(-241.0002,-647)"
         style="fill:#492356;fill-opacity:1;display:inline"
         id="g4953" />
      <g
         inkscape:label="actions"
         transform="translate(-241.0002,-647)"
         style="fill:#492356;fill-opacity:1;display:inline"
         id="layer12-7">
        <path
           style="color:#bebebe;fill:#492356;fill-opacity:1;fill-rule:nonzero;stroke:none;stroke-width:1;marker:none;visibility:visible;display:inline;overflow:visible;enable-background:accumulate"
           id="path4387-5"
           d="m 243.93296,648.00074 c -0.50766,0.0395 -0.94152,0.51729 -0.93263,1.02692 l 0,12.94533 c -0.008,0.5398 0.48663,1.03477 1.02589,1.02691 l 9.948,0 c 0.53926,0.008 1.03373,-0.48711 1.02589,-1.02691 l 0,-9.95795 c -0.004,-0.26704 -0.1184,-0.53079 -0.31088,-0.71573 l -2.9844,-2.98738 c -0.18475,-0.19267 -0.44824,-0.30734 -0.71501,-0.31119 l -6.9636,0 c -0.0311,-9.9e-4 -0.0622,-9.9e-4 -0.0933,0 z m 1.08806,1.89744 5.80553,0 -0.0194,2.19159 2.17223,0 0,8.80987 -7.9584,0 z"
           inkscape:connector-curvature="0"
           sodipodi:nodetypes="cccccccccccccccccccc" />
      </g>
    </g>
    <g
       transform="translate(-372.61864,663.64464)"
       id="layer9"
       style="display:inline" />
    <g
       transform="translate(-372.61864,663.64464)"
       id="layer10" />
    <path
       style="fill:#492356;fill-opacity:1;stroke:none"
       d="m 132.26758,999.96799 c -11.79259,0 -21.33998,-9.54739 -21.33998,-21.33999 0,-11.79253 9.54739,-21.36065 21.33998,-21.36065 11.79261,0 21.36065,9.56812 21.36065,21.36065 0,11.7926 -9.56804,21.33999 -21.36065,21.33999 z m -12.51891,-43.07248 c -12.64589,4.5e-4 -25.28191,-0.0673 -37.928564,-0.24791 -4.89427,0 -4.792717,-4.66876 -4.792717,-4.66876 l 0,-2.29307 c 0,0 1.00528,-2.27102 3.44993,-3.09874 l 30.408961,-5.82563 0,-22.20764 -14.584729,-41.93626 c -0.503017,-2.13709 1.693978,-2.21046 1.693978,-2.21046 l 5.990891,-0.0826 c 0,0 2.97624,0.0456 3.73915,2.33442 l 22.80672,37.72197 c 2.21246,4.63341 2.37238,5.30161 4.71008,0 l 21.77382,-37.76329 c 0,0 1.01457,-2.25178 3.67717,-2.25178 l 5.53642,0.0621 c 0,0 3.09137,0.66284 1.65266,3.03673 l -14.23355,41.0893 0,22.20765 31.3799,6.07353 c 0,0 2.479,0.66182 2.479,3.03676 l 0,2.18977 c 0,4.54416 -4.52416,4.46219 -4.52416,4.46219 -21.0773,0.17547 -42.15846,0.3711 -63.23496,0.37185 z"
       id="rect2992"
       inkscape:connector-curvature="0" />
    <g
       transform="translate(-372.61864,663.64464)"
       id="layer12" />
    <g
       transform="translate(-372.61864,663.64464)"
       id="layer13" />
    <g
       transform="translate(-372.61864,663.64464)"
       id="layer14" />
    <g
       transform="translate(-372.61864,663.64464)"
       id="layer15" />
  </g>
</svg>
