<?xml version="1.0" encoding="UTF-8" standalone="no"?>
<!-- Created with Inkscape (http://www.inkscape.org/) -->

<svg
   xmlns:dc="http://purl.org/dc/elements/1.1/"
   xmlns:cc="http://creativecommons.org/ns#"
   xmlns:rdf="http://www.w3.org/1999/02/22-rdf-syntax-ns#"
   xmlns:svg="http://www.w3.org/2000/svg"
   xmlns="http://www.w3.org/2000/svg"
   xmlns:sodipodi="http://sodipodi.sourceforge.net/DTD/sodipodi-0.dtd"
   xmlns:inkscape="http://www.inkscape.org/namespaces/inkscape"
   width="256"
   height="256"
   id="svg5121"
   version="1.1"
   inkscape:version="0.48.3.1 r9886"
   sodipodi:docname="gtk-print-error.svg">
  <defs
     id="defs5123" />
  <sodipodi:namedview
     id="base"
     pagecolor="#ffffff"
     bordercolor="#666666"
     borderopacity="1.0"
     inkscape:pageopacity="0.0"
     inkscape:pageshadow="2"
     inkscape:zoom="2.3496125"
     inkscape:cx="145.68174"
     inkscape:cy="160.39089"
     inkscape:document-units="px"
     inkscape:current-layer="layer1"
     showgrid="false"
     inkscape:window-width="1918"
     inkscape:window-height="1032"
     inkscape:window-x="0"
     inkscape:window-y="25"
     inkscape:window-maximized="1"
     showguides="true"
     inkscape:guide-bbox="true">
    <sodipodi:guide
       orientation="0,1"
       position="129.70778,75.537477"
       id="guide3821" />
    <sodipodi:guide
       orientation="1,0"
       position="179.66484,95.700867"
       id="guide3823" />
  </sodipodi:namedview>
  <metadata
     id="metadata5126">
    <rdf:RDF>
      <cc:Work
         rdf:about="">
        <dc:format>image/svg+xml</dc:format>
        <dc:type
           rdf:resource="http://purl.org/dc/dcmitype/StillImage" />
        <dc:title></dc:title>
      </cc:Work>
    </rdf:RDF>
  </metadata>
  <g
     inkscape:label="Capa 1"
     inkscape:groupmode="layer"
     id="layer1"
     transform="translate(0,-796.36218)">
    <rect
       style="fill:#492356;fill-opacity:1;stroke:none"
       width="32.071808"
       height="20.70857"
       ry="2.7455945"
       rx="3.3597281"
       id="rect4899"
       y="854.6507"
       x="174.884" />
    <path
       style="font-size:medium;font-style:normal;font-variant:normal;font-weight:normal;font-stretch:normal;text-indent:0;text-align:start;text-decoration:none;line-height:normal;letter-spacing:normal;word-spacing:normal;text-transform:none;direction:ltr;block-progression:tb;writing-mode:lr-tb;text-anchor:start;color:#000000;fill:#492356;fill-opacity:1;stroke:none;stroke-width:2;marker:none;visibility:visible;display:inline;overflow:visible;enable-background:accumulate;font-family:Bitstream Vera Sans;-inkscape-font-specification:Bitstream Vera Sans"
       id="path41043-9"
       d="M 30.529114,992.98702 C 14.464724,993.47821 2.6213413,983.67746 2.6213413,962.90651 l 0,-116.65968 C 5.1920646,834.52147 17.126528,814.00536 30.529114,813.94407 l 0,-0.24703 1.839316,0 193.74054,0 c 14.59492,0.21665 27.35388,22.84278 27.69498,32.54979 0,0 0,104.25115 0,117.15294 -0.55827,17.72233 -5.0805,29.50625 -19.52224,29.58725 l -4.11946,0 0,-34.09432 c 0,0 -7.16581,-0.8512 2.57275,-0.8512 9.73856,0 -5.28945,-4.67044 -5.28945,-18.23306 0,-13.56262 0,-58.05637 0,-67.29114 0,-9.23477 -1.95,-23.88256 -29.27481,-23.88256 -27.99688,0 -110.866195,-1.01591 -135.006536,-1.44147 -21.224034,-0.37415 -28.855586,9.32598 -28.855586,34.05147 0,24.72549 0,40.37955 0,54.6514 0,14.27185 8.227546,22.09985 17.82989,22.13984 10.419676,0.0434 17.82989,0.43112 17.82989,0.43112 l 0,34.51992 z"
       inkscape:connector-curvature="0"
       sodipodi:nodetypes="cccccccccccczzzsszzsccc" />
    <rect
       style="fill:#492356;fill-opacity:1;stroke:none"
       width="32.071808"
       height="20.70857"
       ry="2.7455945"
       rx="3.3597281"
       id="rect4899-2"
       y="854.64233"
       x="138.66939" />
    <path
       style="font-size:medium;font-style:normal;font-variant:normal;font-weight:normal;font-stretch:normal;text-indent:0;text-align:start;text-decoration:none;line-height:normal;letter-spacing:normal;word-spacing:normal;text-transform:none;direction:ltr;block-progression:tb;writing-mode:lr-tb;text-anchor:start;baseline-shift:baseline;color:#000000;fill:#492356;fill-opacity:1;stroke:none;stroke-width:1.99999988;marker:none;visibility:visible;display:inline;overflow:visible;enable-background:accumulate;font-family:Sans;-inkscape-font-specification:Sans"
       sodipodi:nodetypes="ccccccccccccccccccccc"
       id="path1234-3"
       d="m 58.659194,1047.4853 c -7.05026,-1.3818 -12.6228,-8.424 -12.49637,-15.793 l 0,-110.55145 30.76031,0 107.588246,0.1079 1.20822,22.17093 -108.796466,0.22844 0,72.25108 61.520616,0 16.55204,2.277 63.05976,-2.4931 1.42804,-94.54225 -4.13906,0 17.44969,36.41337 c 0.0923,4.17094 -0.29732,48.36998 -3.12189,51.36748 l -59.6106,22.8873 c -2.91885,2.9011 -20.82787,15.773 -24.88916,15.6763 l -83.629596,0 c -0.47986,0.016 -0.96126,0.016 -1.44112,0 -0.47986,0.016 -0.96126,0.016 -1.44112,0 z"
       inkscape:connector-curvature="0" />
    <path
       style="fill:#8abb22;fill-opacity:1;fill-rule:nonzero;stroke:#a6f488;stroke-width:2;stroke-miterlimit:4;stroke-opacity:1;stroke-dasharray:none"
       d="m 179.8125,111.25 c -38.25329,0 -69.21875,30.96545 -69.21875,69.21875 0,38.25328 30.96546,69.21875 69.21875,69.21875 38.25332,0 69.21875,-30.96547 69.21875,-69.21875 0,-38.2533 -30.96543,-69.21875 -69.21875,-69.21875 z m -28.5625,35.84375 23.15625,0 0,68.71875 -23.15625,0 z m 34.21875,-0.0362 23,0 0,68.9425 -23,0 z"
       transform="translate(0,796.36218)"
       id="path7"
       inkscape:connector-curvature="0"
       sodipodi:nodetypes="ssssscccccccccc" />
  </g>
</svg>
