<?xml version="1.0" encoding="UTF-8" standalone="no"?>
<!-- Created with Inkscape (http://www.inkscape.org/) -->

<svg
   xmlns:dc="http://purl.org/dc/elements/1.1/"
   xmlns:cc="http://creativecommons.org/ns#"
   xmlns:rdf="http://www.w3.org/1999/02/22-rdf-syntax-ns#"
   xmlns:svg="http://www.w3.org/2000/svg"
   xmlns="http://www.w3.org/2000/svg"
   xmlns:sodipodi="http://sodipodi.sourceforge.net/DTD/sodipodi-0.dtd"
   xmlns:inkscape="http://www.inkscape.org/namespaces/inkscape"
   id="svg7384"
   version="1.1"
   inkscape:version="0.48.3.1 r9886"
   height="16"
   sodipodi:docname="mail-message-new.svg"
   width="16">
  <metadata
     id="metadata90">
    <rdf:RDF>
      <cc:Work
         rdf:about="">
        <dc:format>image/svg+xml</dc:format>
        <dc:type
           rdf:resource="http://purl.org/dc/dcmitype/StillImage" />
        <dc:title>Gnome Symbolic Icon Theme</dc:title>
      </cc:Work>
    </rdf:RDF>
  </metadata>
  <sodipodi:namedview
     inkscape:cy="4.9845327"
     inkscape:current-layer="layer9"
     inkscape:window-width="1438"
     pagecolor="#ffffff"
     showborder="true"
     showguides="true"
     inkscape:snap-nodes="true"
     objecttolerance="10"
     showgrid="true"
     inkscape:object-nodes="true"
     inkscape:pageshadow="2"
     inkscape:guide-bbox="true"
     inkscape:window-x="0"
     inkscape:snap-bbox="true"
     bordercolor="#666666"
     id="namedview88"
     inkscape:window-maximized="1"
     inkscape:snap-global="false"
     inkscape:window-y="26"
     gridtolerance="10"
     inkscape:zoom="22.627417"
     inkscape:window-height="850"
     borderopacity="1"
     guidetolerance="10"
     inkscape:cx="-0.6114443"
     inkscape:bbox-paths="false"
     inkscape:snap-grids="true"
     inkscape:pageopacity="0"
     inkscape:snap-to-guides="true">
    <inkscape:grid
       visible="true"
       spacingx="1px"
       type="xygrid"
       spacingy="1px"
       id="grid4866"
       empspacing="2"
       enabled="true"
       snapvisiblegridlinesonly="true" />
  </sodipodi:namedview>
  <title
     id="title9167">Gnome Symbolic Icon Theme</title>
  <defs
     id="defs7386" />
  <g
     transform="translate(-40.99995,-297)"
     inkscape:groupmode="layer"
     id="layer9"
     inkscape:label="status"
     style="display:inline">
    <path
       style="font-size:medium;font-style:normal;font-variant:normal;font-weight:normal;font-stretch:normal;text-indent:0;text-align:start;text-decoration:none;line-height:normal;letter-spacing:normal;word-spacing:normal;text-transform:none;direction:ltr;block-progression:tb;writing-mode:lr-tb;text-anchor:start;color:#000000;fill:#bebebe;fill-opacity:1;stroke:none;stroke-width:1.99999976;marker:none;visibility:visible;display:inline;overflow:visible;enable-background:accumulate;font-family:Bitstream Vera Sans;-inkscape-font-specification:Bitstream Vera Sans"
       d="M 2.96875,3.96875 C 2.9054474,3.9731866 2.8425697,3.9836662 2.78125,4 2.0280114,4.1487666 1.7607511,5.3206002 2.375,5.78125 L 3.5,6.6875 3.5,4.125 C 3.342196,4.0246159 3.1557741,3.9697859 2.96875,3.96875 z M 12.875,4 c -0.182548,0.025011 -0.357738,0.1016567 -0.5,0.21875 L 8,7.71875 c -0.01406,0.8082585 0.021402,1.6233718 0,2.5625 l 0.625,-0.5 5,-4 C 13.96969,5.5134616 14.102661,5.0052114 13.933279,4.6029286 13.763897,4.2006458 13.307425,3.9405821 12.875,4 z"
       transform="translate(40.99995,297)"
       id="path35600"
       inkscape:connector-curvature="0"
       sodipodi:nodetypes="ccccccccccccsc" />
    <path
       style="font-size:medium;font-style:normal;font-variant:normal;font-weight:normal;font-stretch:normal;text-indent:0;text-align:start;text-decoration:none;line-height:normal;letter-spacing:normal;word-spacing:normal;text-transform:none;direction:ltr;block-progression:tb;writing-mode:lr-tb;text-anchor:start;color:#000000;fill:#bebebe;fill-opacity:1;stroke:none;stroke-width:2;marker:none;visibility:visible;display:inline;overflow:visible;enable-background:accumulate;font-family:Bitstream Vera Sans;-inkscape-font-specification:Bitstream Vera Sans"
       d="M 1.8125,3 C 1.3540975,3.0874665 0.99177663,3.5334 1,4 l 0,9 c 5.24e-5,0.523584 0.4764155,0.999948 1,1 l 12,0 c 0.523584,-5.2e-5 0.999948,-0.476416 1,-1 L 15,4 C 14.999948,3.4764155 14.523584,3.0000524 14,3 l -5.984375,0 0,2 L 13,5 13,12 3,12 3,5 3.5,5 3.5,3 2,3 c -0.031227,-0.00147 -0.062523,-0.00147 -0.09375,0 -0.031227,-0.00147 -0.062523,-0.00147 -0.09375,0 z"
       transform="translate(40.99995,297)"
       id="rect35604"
       inkscape:connector-curvature="0"
       sodipodi:nodetypes="ccccccccccccccccccc" />
    <path
       style="fill:#bebebe;fill-opacity:1;stroke:none"
       d="m 45.4062,298.0625 0.404963,6.64982 c 0,0 1.951186,0.65805 1.951186,0 0,-1.1083 0,-6.64982 0,-6.64982 z"
       id="path2992"
       inkscape:connector-curvature="0"
       sodipodi:nodetypes="ccscc" />
    <path
       sodipodi:type="arc"
       style="fill:#bebebe;fill-opacity:1;stroke:none"
       id="path3802"
       sodipodi:cx="4"
       sodipodi:cy="9.5"
       sodipodi:rx="1"
       sodipodi:ry="1"
       d="m 4.9971093,9.4240198 a 1,1 0 1 1 -0.0019,-0.021764"
       transform="matrix(1.1780747,0,0,1.1083033,42.203366,296.01901)"
       sodipodi:start="6.2071318"
       sodipodi:end="12.46847"
       sodipodi:open="true" />
  </g>
  <g
     transform="translate(-40.99995,-297)"
     inkscape:groupmode="layer"
     id="layer10"
     inkscape:label="devices" />
  <g
     transform="translate(-40.99995,-297)"
     inkscape:groupmode="layer"
     id="layer11"
     inkscape:label="apps" />
  <g
     transform="translate(-40.99995,-297)"
     inkscape:groupmode="layer"
     id="layer12"
     inkscape:label="actions" />
  <g
     transform="translate(-40.99995,-297)"
     inkscape:groupmode="layer"
     id="layer13"
     inkscape:label="places" />
  <g
     transform="translate(-40.99995,-297)"
     inkscape:groupmode="layer"
     id="layer14"
     inkscape:label="mimetypes" />
  <g
     transform="translate(-40.99995,-297)"
     inkscape:groupmode="layer"
     id="layer15"
     inkscape:label="emblems"
     style="display:inline" />
</svg>
