<?xml version="1.0" encoding="UTF-8" standalone="no"?>
<!-- Created with Inkscape (http://www.inkscape.org/) -->

<svg
   xmlns:dc="http://purl.org/dc/elements/1.1/"
   xmlns:cc="http://creativecommons.org/ns#"
   xmlns:rdf="http://www.w3.org/1999/02/22-rdf-syntax-ns#"
   xmlns:svg="http://www.w3.org/2000/svg"
   xmlns="http://www.w3.org/2000/svg"
   xmlns:sodipodi="http://sodipodi.sourceforge.net/DTD/sodipodi-0.dtd"
   xmlns:inkscape="http://www.inkscape.org/namespaces/inkscape"
   width="256"
   height="256"
   id="svg2"
   version="1.1"
   inkscape:version="0.48.3.1 r9886"
   sodipodi:docname="gnome-stock-mail-new.svg">
  <defs
     id="defs4" />
  <sodipodi:namedview
     id="base"
     pagecolor="#ffffff"
     bordercolor="#666666"
     borderopacity="1.0"
     inkscape:pageopacity="0.0"
     inkscape:pageshadow="2"
     inkscape:zoom="0.98994949"
     inkscape:cx="-60.812626"
     inkscape:cy="112.68477"
     inkscape:document-units="px"
     inkscape:current-layer="layer1"
     showgrid="false"
     inkscape:window-width="766"
     inkscape:window-height="559"
     inkscape:window-x="96"
     inkscape:window-y="85"
     inkscape:window-maximized="0" />
  <metadata
     id="metadata7">
    <rdf:RDF>
      <cc:Work
         rdf:about="">
        <dc:format>image/svg+xml</dc:format>
        <dc:type
           rdf:resource="http://purl.org/dc/dcmitype/StillImage" />
        <dc:title />
      </cc:Work>
    </rdf:RDF>
  </metadata>
  <g
     inkscape:label="Layer 1"
     inkscape:groupmode="layer"
     id="layer1"
     transform="translate(0,-796.36218)">
    <path
       style="opacity:0.95614032000000004;fill:#492356;fill-opacity:1;stroke:none"
       d="m 58.971192,852.69773 c -1.415143,0 -2.567867,1.33789 -2.567867,2.98036 l 0,147.34141 c 0,1.6425 1.152724,2.9494 2.567867,2.9494 l 189.299938,0 c 1.41514,0 2.56786,-1.3069 2.56786,-2.9494 l 0,-147.34141 c 0,-1.64247 -1.15272,-2.98036 -2.56786,-2.98036 l -8.18508,0 -88.29717,96.52018 -81.396031,-96.52018 -11.421657,0 z m 25.839159,0 68.824179,76.65113 72.70273,-76.65113 -141.526909,0 z"
       id="rect3066"
       inkscape:connector-curvature="0" />
    <path
       style="fill:none;stroke:#8abb22;stroke-width:9.40587806999999998;stroke-linecap:butt;stroke-linejoin:miter;stroke-miterlimit:4;stroke-opacity:1;stroke-dasharray:none"
       d="m 6.276426,890.31145 c 0,0 9.069055,-11.50157 22.315987,-1.28616 13.246931,10.21541 22.315983,-1.28616 22.315983,-1.28616"
       id="path3076"
       inkscape:connector-curvature="0"
       sodipodi:nodetypes="czc" />
    <path
       style="fill:none;stroke:#8abb22;stroke-width:9.40587806999999998;stroke-linecap:butt;stroke-linejoin:miter;stroke-miterlimit:4;stroke-opacity:1;stroke-dasharray:none"
       d="m 5.3593295,917.85322 c 0,0 9.0690555,-11.5016 22.3159865,-1.28622 13.246932,10.21547 22.315987,-1.28613 22.315987,-1.28613"
       id="path3076-3"
       inkscape:connector-curvature="0"
       sodipodi:nodetypes="czc" />
    <path
       style="fill:none;stroke:#8abb22;stroke-width:9.40587806999999998;stroke-linecap:butt;stroke-linejoin:miter;stroke-miterlimit:4;stroke-opacity:1;stroke-dasharray:none"
       d="m 6.5821305,944.10868 c 0,0 9.0690555,-11.5016 22.3159865,-1.28622 13.246923,10.21547 22.315977,-1.28613 22.315977,-1.28613"
       id="path3076-31"
       inkscape:connector-curvature="0"
       sodipodi:nodetypes="czc" />
    <path
       style="fill:none;stroke:#8abb22;stroke-width:9.40587806999999998;stroke-linecap:butt;stroke-linejoin:miter;stroke-miterlimit:4;stroke-opacity:1;stroke-dasharray:none"
       d="m 7.1935225,971.07386 c 0,0 9.0690555,-11.5016 22.3159865,-1.28622 13.246932,10.21547 22.315982,-1.28612 22.315982,-1.28612"
       id="path3076-7"
       inkscape:connector-curvature="0"
       sodipodi:nodetypes="czc" />
  </g>
</svg>
