<?xml version="1.0" encoding="UTF-8" standalone="no"?>
<!-- Created with Inkscape (http://www.inkscape.org/) -->

<svg
   xmlns:dc="http://purl.org/dc/elements/1.1/"
   xmlns:cc="http://creativecommons.org/ns#"
   xmlns:rdf="http://www.w3.org/1999/02/22-rdf-syntax-ns#"
   xmlns:svg="http://www.w3.org/2000/svg"
   xmlns="http://www.w3.org/2000/svg"
   xmlns:sodipodi="http://sodipodi.sourceforge.net/DTD/sodipodi-0.dtd"
   xmlns:inkscape="http://www.inkscape.org/namespaces/inkscape"
   width="256"
   height="256"
   id="svg5121"
   version="1.1"
   inkscape:version="0.48.3.1 r9886"
   sodipodi:docname="system-log-out.svg">
  <defs
     id="defs5123" />
  <sodipodi:namedview
     id="base"
     pagecolor="#ffffff"
     bordercolor="#666666"
     borderopacity="1.0"
     inkscape:pageopacity="0.0"
     inkscape:pageshadow="2"
     inkscape:zoom="1.1748062"
     inkscape:cx="109.31603"
     inkscape:cy="150.43029"
     inkscape:document-units="px"
     inkscape:current-layer="layer1"
     showgrid="false"
     inkscape:window-width="1085"
     inkscape:window-height="680"
     inkscape:window-x="232"
     inkscape:window-y="64"
     inkscape:window-maximized="0"
     showguides="true"
     inkscape:guide-bbox="true" />
  <metadata
     id="metadata5126">
    <rdf:RDF>
      <cc:Work
         rdf:about="">
        <dc:format>image/svg+xml</dc:format>
        <dc:type
           rdf:resource="http://purl.org/dc/dcmitype/StillImage" />
        <dc:title />
      </cc:Work>
    </rdf:RDF>
  </metadata>
  <g
     inkscape:label="Capa 1"
     inkscape:groupmode="layer"
     id="layer1"
     transform="translate(0,-796.36218)">
    <g
       inkscape:label="status"
       transform="translate(-189.44005,322.89394)"
       id="layer9"
       style="display:inline" />
    <g
       inkscape:label="devices"
       transform="translate(-189.44005,322.89394)"
       id="layer10" />
    <g
       inkscape:label="apps"
       transform="translate(-189.44005,322.89394)"
       id="layer11" />
    <g
       inkscape:label="places"
       transform="translate(-189.44005,322.89394)"
       id="layer13" />
    <g
       inkscape:label="mimetypes"
       transform="translate(-189.44005,322.89394)"
       id="layer14" />
    <g
       inkscape:label="emblems"
       transform="translate(-189.44005,322.89394)"
       id="layer15"
       style="display:inline" />
    <g
       inkscape:label="emotes"
       transform="translate(-189.44005,322.89394)"
       id="g71291"
       style="display:inline" />
    <g
       inkscape:label="categories"
       transform="translate(-189.44005,322.89394)"
       id="g4953"
       style="display:inline" />
    <g
       id="g3935"
       transform="matrix(0.9702409,0,0,0.9702409,3.8439943,27.493371)">
      <path
         id="path12113-8"
         transform="translate(0,796.36218)"
         d="m 193.375,50.53125 -10.84375,11.4375 a 16.796401,17.331662 0 0 0 -0.90625,0.9375 l -44.8125,47.1875 -0.0937,0.0625 a 17.071264,17.615283 0 0 0 -4.125,4.375 l -9.75,10.25 10.03125,10.15625 a 17.071264,17.615283 0 0 0 4.0625,4.09375 l 45.84375,46.40625 12,12.125 10.90625,-11.5 a 16.800524,17.335916 0 0 0 0.5,-0.53125 l 0.34375,-0.34375 a 16.800524,17.335916 0 0 0 -0.21875,-24.5 l -18.75,-18.9375 54.1875,-0.5625 a 16.796401,17.331662 0 0 0 10.09375,-31.5 16.796401,17.331662 0 0 0 -10.4375,-3.75 L 187.2188,106.5 205.5938,87.15625 A 16.796401,17.331662 0 0 0 202.75,60 l -9.375,-9.46875 z"
         style="font-size:medium;font-style:normal;font-variant:normal;font-weight:normal;font-stretch:normal;text-indent:0;text-align:start;text-decoration:none;line-height:normal;letter-spacing:normal;word-spacing:normal;text-transform:none;direction:ltr;block-progression:tb;writing-mode:lr-tb;text-anchor:start;baseline-shift:baseline;color:#000000;fill:#492356;fill-opacity:1;stroke:#a6f488;stroke-width:1.79999995;stroke-miterlimit:4;stroke-opacity:1;stroke-dasharray:none;marker:none;visibility:visible;display:inline;overflow:visible;enable-background:new;font-family:Sans;-inkscape-font-specification:Sans"
         inkscape:connector-curvature="0" />
      <path
         inkscape:connector-curvature="0"
         d="m 0.08605954,1037.3771 -0.71926001,-227.02529 119.66225047,0 0.0104,189.30054 z"
         id="rect4897-1-2-6"
         sodipodi:nodetypes="ccccc"
         style="fill:#492356;fill-opacity:1;stroke:#a6f488;stroke-width:1.79999995;stroke-miterlimit:4;stroke-opacity:1;stroke-dasharray:none" />
    </g>
  </g>
</svg>
