<?xml version="1.0" encoding="UTF-8" standalone="no"?>
<!-- Generator: Adobe Illustrator 15.0.0, SVG Export Plug-In . SVG Version: 6.00 Build 0)  -->

<svg
   xmlns:dc="http://purl.org/dc/elements/1.1/"
   xmlns:cc="http://creativecommons.org/ns#"
   xmlns:rdf="http://www.w3.org/1999/02/22-rdf-syntax-ns#"
   xmlns:svg="http://www.w3.org/2000/svg"
   xmlns="http://www.w3.org/2000/svg"
   xmlns:sodipodi="http://sodipodi.sourceforge.net/DTD/sodipodi-0.dtd"
   xmlns:inkscape="http://www.inkscape.org/namespaces/inkscape"
   version="1.1"
   id="Capa_1"
   x="0px"
   y="0px"
   width="256"
   height="256"
   viewBox="0 0 256 256"
   enable-background="new 0 0 800 600"
   xml:space="preserve"
   inkscape:version="0.48.5 r10040"
   sodipodi:docname="pilas-icono.svg"><metadata
     id="metadata58"><rdf:RDF><cc:Work
         rdf:about=""><dc:format>image/svg+xml</dc:format><dc:type
           rdf:resource="http://purl.org/dc/dcmitype/StillImage" /><dc:title></dc:title></cc:Work></rdf:RDF></metadata><defs
     id="defs56" /><sodipodi:namedview
     pagecolor="#ffffff"
     bordercolor="#666666"
     borderopacity="1"
     objecttolerance="10"
     gridtolerance="10"
     guidetolerance="10"
     inkscape:pageopacity="0"
     inkscape:pageshadow="2"
     inkscape:window-width="1913"
     inkscape:window-height="1033"
     id="namedview54"
     showgrid="false"
     inkscape:zoom="1.1125147"
     inkscape:cx="-124.47461"
     inkscape:cy="21.374421"
     inkscape:window-x="0"
     inkscape:window-y="26"
     inkscape:window-maximized="1"
     inkscape:current-layer="layer1" /><g
     inkscape:groupmode="layer"
     id="layer1"
     inkscape:label="Capa"
     style="display:inline"
     transform="translate(0,-344)"><g
       id="g4422"
       transform="matrix(1.0510137,0,0,1.0510137,-120.20201,240.99266)"><g
         export-filename="/home/hugoruscitti/path3089-3-4.png"
         export-ydpi="86.855568"
         export-xdpi="86.855568"
         connector-curvature="0"
         id="path3087-9_1_"
         transform="translate(16.017494,10.021904)"><path
           id="path4"
           d="m 205.954,126.486 c -0.65,-0.766 -1.229,-1.56 -1.814,-2.352 -0.574,-0.796 -1.118,-1.605 -1.629,-2.427 -0.513,-0.821 -1.365,-1.505 -1.444,-2.502 -0.067,-0.487 -0.078,-0.997 0.013,-1.548 0.079,-0.546 0.229,-1.122 0.582,-1.778 l 0.371,-0.15 c 0.71,0.227 1.218,0.536 1.655,0.874 0.449,0.333 0.796,0.706 1.086,1.103 0.636,0.771 0.5,1.855 0.702,2.802 0.204,0.946 0.376,1.905 0.517,2.877 0.131,0.976 0.267,1.949 0.332,2.952 l -0.371,0.149 z"
           inkscape:connector-curvature="0"
           style="fill:#030104" /></g><g
         export-ydpi="86.855568"
         export-xdpi="86.855568"
         connector-curvature="0"
         id="path3089-3_1_"
         transform="translate(16.017494,10.021904)"><path
           id="path7"
           d="m 224.378,120.568 c 0.064,-2.284 0.234,-4.55 0.348,-6.826 0.148,-2.27 0.33,-4.534 0.544,-6.792 0.105,-1.13 0.138,-2.271 0.194,-3.41 0.063,-1.137 0.245,-2.253 0.548,-3.35 0.308,-1.095 0.676,-2.18 1.153,-3.247 0.464,-1.069 1.003,-2.125 1.758,-3.145 l 0.395,0.067 c 0.375,1.211 0.537,2.386 0.622,3.548 0.098,1.164 0.088,2.31 0.017,3.445 -0.075,1.135 -0.272,2.249 -0.588,3.343 -0.323,1.093 -0.669,2.182 -0.942,3.283 -0.543,2.203 -1.119,4.4 -1.728,6.592 -0.644,2.186 -1.231,4.381 -1.925,6.559 l -0.396,-0.067 z"
           inkscape:connector-curvature="0"
           style="fill:#030104" /></g><path
         id="path3069-83_1_"
         connector-curvature="0"
         export-xdpi="86.855568"
         export-ydpi="86.855568"
         export-filename="/home/hugoruscitti/path3089-3-4.png"
         nodetypes="ccccc"
         d="m 196.39849,187.9509 c 22.729,-5.893 47.981,-15.321 72.731,-34.346 14.478,57.915 23.906,117.851 23.738,176.776 -39.396,-0.674 -78.792,-1.348 -118.187,-2.02 16.33,-45.794 27.106,-93.102 21.718,-140.41 z"
         inkscape:connector-curvature="0"
         style="fill:#b2c64b;stroke:#030104;stroke-width:5" /><path
         id="path3071-6_1_"
         connector-curvature="0"
         export-xdpi="86.855568"
         export-ydpi="86.855568"
         export-filename="/home/hugoruscitti/path3089-3-4.png"
         nodetypes="cc"
         d="m 173.88149,276.5399 c 45.457,32.326 103.541,15.152 125.763,-37.881"
         inkscape:connector-curvature="0"
         style="fill:none;stroke:#030104;stroke-width:5" /><path
         id="path3073-3_1_"
         connector-curvature="0"
         export-xdpi="86.855568"
         export-ydpi="86.855568"
         export-filename="/home/hugoruscitti/path3089-3-4.png"
         nodetypes="ccccc"
         d="m 216.47549,181.8889 c -2.525,-7.239 -4.293,-13.974 -6.818,-21.213 12.543,-6.188 23.064,-10.48 36.365,-13.385 2.188,6.061 5.262,11.112 7.449,17.173 -10.311,6.735 -23.022,12.458 -36.996,17.425 z"
         inkscape:connector-curvature="0"
         style="fill:#b2c64b;stroke:#030104;stroke-width:5" /><path
         id="path3075-4_1_"
         connector-curvature="0"
         export-xdpi="86.855568"
         export-ydpi="86.855568"
         export-filename="/home/hugoruscitti/path3089-3-4.png"
         nodetypes="cscc"
         d="m 255.32549,286.0109 c 2.441,10.691 17.279,20.771 33.335,12.879 22.023,-10.826 15.32,-27.021 -0.758,-39.396 -10.004,12.007 -16.429,18.405 -32.577,26.517 l 0,0 z"
         inkscape:connector-curvature="0"
         style="fill:#ad3937;stroke:#030104;stroke-width:3" /><path
         id="path3079-8_1_"
         connector-curvature="0"
         export-xdpi="86.855568"
         export-ydpi="86.855568"
         export-filename="/home/hugoruscitti/path3089-3-4.png"
         d="m 250.31349,200.8679 21.016,1.715 0.959,7.553 -21.975,-9.268 z"
         inkscape:connector-curvature="0"
         style="fill:#030104;stroke:#030104;stroke-width:4" /><path
         id="path3081-3_1_"
         connector-curvature="0"
         export-xdpi="86.855568"
         export-ydpi="86.855568"
         export-filename="/home/hugoruscitti/path3089-3-4.png"
         d="m 207.17749,218.6859 -22.47,8.71 23.871,-6.119 -1.401,-2.591 z"
         inkscape:connector-curvature="0"
         style="fill:#030104;stroke:#030104;stroke-width:4" /><g
         id="path3083-1_1_"
         connector-curvature="0"
         export-xdpi="86.855568"
         export-ydpi="86.855568"
         export-filename="/home/hugoruscitti/path3089-3-4.png"
         transform="translate(16.017494,10.021904)"><path
           d="m 181.788,146.277 c -0.633,-0.028 -1.224,-0.122 -1.818,-0.209 -0.588,-0.098 -1.158,-0.224 -1.711,-0.377 -0.552,-0.154 -1.301,0.001 -1.603,-0.546 -0.167,-0.249 -0.301,-0.549 -0.376,-0.942 -0.082,-0.382 -0.123,-0.829 -0.046,-1.46 l 0.215,-0.338 c 0.539,-0.336 0.961,-0.488 1.342,-0.576 0.388,-0.099 0.717,-0.104 1.013,-0.059 0.624,0.042 0.801,0.786 1.174,1.221 0.373,0.435 0.729,0.898 1.066,1.39 0.331,0.501 0.666,0.998 0.959,1.559 l -0.215,0.337 z"
           id="path18"
           inkscape:connector-curvature="0"
           style="fill:#030104" /></g><g
         id="path3085-3_1_"
         connector-curvature="0"
         export-xdpi="86.855568"
         export-ydpi="86.855568"
         export-filename="/home/hugoruscitti/path3089-3-4.png"
         transform="translate(16.017494,10.021904)"><path
           d="m 191.086,134.619 c -1.72,-1.585 -3.356,-3.24 -5.037,-4.858 -1.653,-1.64 -3.281,-3.302 -4.882,-4.985 -0.803,-0.84 -1.662,-1.633 -2.503,-2.441 -0.835,-0.813 -1.578,-1.703 -2.225,-2.671 -0.644,-0.971 -1.24,-1.98 -1.751,-3.06 -0.522,-1.071 -0.984,-2.192 -1.278,-3.451 l 0.309,-0.254 c 1.179,0.53 2.19,1.198 3.141,1.916 0.962,0.709 1.839,1.488 2.668,2.306 0.826,0.821 1.556,1.72 2.194,2.696 0.632,0.98 1.246,1.976 1.916,2.925 1.345,1.895 2.664,3.811 3.957,5.748 1.265,1.96 2.575,3.883 3.802,5.875 l -0.311,0.254 z"
           id="path21"
           inkscape:connector-curvature="0"
           style="fill:#030104" /></g><path
         id="path3091-1_1_"
         export-xdpi="86.855568"
         export-ydpi="86.855568"
         export-filename="/home/hugoruscitti/path3089-3-4.png"
         ry="26.642773"
         rx="25.127544"
         cy="364.57455"
         cx="207.46008"
         type="arc"
         d="m 274.18049,247.9289 c 0.008,14.713 -11.236,26.648 -25.113,26.656 -13.879,0.01 -25.135,-11.912 -25.143,-26.627 0,-0.01 0,-0.02 0,-0.029 0,-14.715 11.25,-26.643 25.127,-26.643 13.879,0 25.129,11.928 25.129,26.643 z"
         inkscape:connector-curvature="0"
         style="fill:#ffffff;stroke:#030104;stroke-width:4" /><path
         id="path3861-7_1_"
         export-xdpi="86.855568"
         export-ydpi="86.855568"
         export-filename="/home/hugoruscitti/path3089-3-4.png"
         ry="15.404825"
         rx="15.783633"
         cy="372.78204"
         cx="165.03368"
         type="arc"
         d="m 218.65249,255.6299 c 0,8.508 -7.066,15.406 -15.784,15.406 -8.717,0 -15.783,-6.898 -15.783,-15.406 0,-8.508 7.066,-15.404 15.783,-15.404 8.717,0 15.784,6.896 15.784,15.404 z"
         inkscape:connector-curvature="0"
         style="fill:#ffffff;stroke:#030104;stroke-width:4" /><path
         id="path3863-1_1_"
         export-xdpi="86.855568"
         export-ydpi="86.855568"
         export-filename="/home/hugoruscitti/path3089-3-4.png"
         ry="4.0406103"
         rx="4.0406103"
         cy="370.50922"
         cx="210.36427"
         type="arc"
         d="m 252.40949,250.6009 c 0,1.783 -1.445,3.23 -3.23,3.23 -1.783,0 -3.23,-1.447 -3.23,-3.23 0,-1.785 1.447,-3.23 3.23,-3.23 1.784,-0.001 3.23,1.444 3.23,3.23 z"
         inkscape:connector-curvature="0"
         style="fill:#030104;stroke:#030104;stroke-width:2" /><path
         id="path3865-3_1_"
         export-xdpi="86.855568"
         export-ydpi="86.855568"
         export-filename="/home/hugoruscitti/path3089-3-4.png"
         ry="3.2829957"
         rx="3.2829957"
         cy="375.30743"
         cx="166.42264"
         type="arc"
         d="m 207.48849,256.8119 c 0,2.455 -1.989,4.445 -4.444,4.445 -2.455,0 -4.445,-1.99 -4.445,-4.445 0,-2.455 1.99,-4.445 4.445,-4.445 2.455,0 4.444,1.989 4.444,4.445 z"
         inkscape:connector-curvature="0"
         style="fill:#030104;stroke:#030104;stroke-width:2" /><path
         id="path3867-5_1_"
         connector-curvature="0"
         export-xdpi="86.855568"
         export-ydpi="86.855568"
         export-filename="/home/hugoruscitti/path3089-3-4.png"
         nodetypes="cc"
         d="m 273.94649,274.4229 c 3.916,3.28 7.39,7.803 9.058,12.988"
         inkscape:connector-curvature="0"
         style="fill:none;stroke:#030104;stroke-width:4" /></g></g><g
     inkscape:groupmode="layer"
     id="layer2"
     inkscape:label="Capa#1"
     style="opacity:0.72666668;display:none"
     transform="translate(0,-344)"><g
       id="g4415"
       transform="matrix(1.1475933,0,0,1.1475933,-149.10281,206.5763)"><path
         inkscape:connector-curvature="0"
         id="path3568"
         d="m 273.3125,139.84375 c -8.26272,16.52542 -58.64376,34.67779 -81.375,39.40625 0.0459,10.96646 -1.02298,25.31088 -3.03125,41.125 l 18.3125,-8.09375 9.53125,13.34375 -29.28125,5.25 c -1.65453,11.23964 -3.73633,22.97022 -6.1875,34.59375 1.82287,0.50565 3.89899,0.95622 6.09375,1.375 -0.88488,-1.17581 -1.48859,-2.29955 -1.78125,-3.25 -1.3483,-4.37866 -1.88889,-15.51914 8.0625,-22.8125 6.89703,-5.05481 23.13306,-3.28288 26.03125,10.1875 1.55702,7.23683 -0.79623,18.27948 -9.9375,21.5625 10.99543,6.24833 22.73416,1.11348 30.15625,-1.4375 -0.80109,-0.70234 -6.96092,-3.66156 -10.125,-6.53125 -7.80957,-7.08294 -9.60437,-22.65701 0,-33.71875 12.11313,-13.95114 32.28728,-12.9672 41.125,4.5625 3.44461,6.83241 3.27638,13.62029 1.875,19.1875 13.39307,-12.0697 21.11575,-30.17998 23.34375,-35.96875 -6.75323,-34.80471 -15.41191,-66.54181 -22.8125,-78.78125 z m -27.34375,57.1875 32.40625,0 0,21.625 -34.3125,-14.625 1.90625,-7 z m 56.46875,57.4375 -3.40625,5.84375 c 0,0 1.13341,0.22548 4.53125,3.8125 -0.55189,-4.22228 -0.47936,-5.34239 -1.125,-9.65625 z m -127.59375,36.9375 c -3.82692,14.60077 -7.29957,25.8111 -12.125,37.1875 0,0 118.20127,3.81303 143.625,1.90625 1.094,-6.6734 1.33188,-15.92589 0.875,-26.75 -3.41865,6.9398 -19.39194,11.44247 -30.375,10.09375 -10.98305,-1.34872 -19.73252,-5.29743 -25.0625,-11.625 -6.67828,1.98693 -26.01483,5.34481 -47.625,1.53125 -10.24955,-1.80874 -22.42094,-7.18363 -29.3125,-12.34375 z"
         style="fill:#000000;stroke:#000000;stroke-width:1px;stroke-linecap:butt;stroke-linejoin:miter;stroke-opacity:1" /><path
         sodipodi:nodetypes="ccccc"
         inkscape:connector-curvature="0"
         id="path3570"
         d="m 198.97924,141.2493 5.30945,22.6247 c 0,0 31.20795,-7.81328 46.0326,-18.77921 -2.25377,-7.37046 -3.05674,-13.73068 -9.76523,-19.76726 -12.5511,10.36769 -41.57682,15.92177 -41.57682,15.92177 z"
         style="fill:#000000;fill-opacity:1;stroke:#000000;stroke-width:1px;stroke-linecap:butt;stroke-linejoin:miter;stroke-opacity:1" /><path
         d="m 255.05282,250.45404 a 5.9549775,5.9549775 0 1 1 -11.90996,0 5.9549775,5.9549775 0 1 1 11.90996,0 z"
         sodipodi:ry="5.9549775"
         sodipodi:rx="5.9549775"
         sodipodi:cy="250.45404"
         sodipodi:cx="249.09784"
         id="path3581"
         style="fill:#000000;fill-opacity:1;stroke:none"
         sodipodi:type="arc" /><path
         transform="translate(0.89886456,-1.573013)"
         d="m 208.08715,258.54382 a 6.4044099,6.4044099 0 1 1 -12.80882,0 6.4044099,6.4044099 0 1 1 12.80882,0 z"
         sodipodi:ry="6.4044099"
         sodipodi:rx="6.4044099"
         sodipodi:cy="258.54382"
         sodipodi:cx="201.68274"
         id="path3583"
         style="fill:#000000;fill-opacity:1;stroke:none"
         sodipodi:type="arc" /><path
         sodipodi:nodetypes="cccczcccssczcczc"
         inkscape:connector-curvature="0"
         id="path3585"
         d="m 269.0191,273.52133 13.22437,20.41529 8.98865,-7.19092 -14.91539,-19.67299 c 0,0 4.47364,-5.24392 10.22127,-12.76793 5.74763,-7.524 9.21859,-17.31127 10.89088,-20.16799 1.31284,1.03456 4.27887,4.06847 6.54095,6.00225 -1.55809,5.52925 -8.52085,16.11646 -11.14542,19.72183 4.43814,4.88757 12.34011,15.42431 12.34011,20.14335 0,9.43807 -6.41311,20.44424 -18.76711,23.00283 -22.75359,4.71242 -31.0155,-10.73185 -31.0155,-10.73185 0,0 -26.40552,5.44304 -38.09076,4.9936 -11.68524,-0.44943 -33.43011,-9.64682 -46.31217,-17.27394 1.43476,-3.49109 5.1346,-7.66294 5.1346,-7.66294 0,0 21.07194,13.16275 40.96221,15.76208 19.89027,2.59933 39.96441,-6.52017 51.94331,-14.57267 z"
         style="fill:#000000;stroke:#000000;stroke-width:1px;stroke-linecap:butt;stroke-linejoin:miter;stroke-opacity:1" /></g></g></svg>