<?xml version="1.0" encoding="UTF-8" standalone="no"?>
<!-- Created with Inkscape (http://www.inkscape.org/) -->

<svg
   xmlns:dc="http://purl.org/dc/elements/1.1/"
   xmlns:cc="http://creativecommons.org/ns#"
   xmlns:rdf="http://www.w3.org/1999/02/22-rdf-syntax-ns#"
   xmlns:svg="http://www.w3.org/2000/svg"
   xmlns="http://www.w3.org/2000/svg"
   xmlns:xlink="http://www.w3.org/1999/xlink"
   xmlns:sodipodi="http://sodipodi.sourceforge.net/DTD/sodipodi-0.dtd"
   xmlns:inkscape="http://www.inkscape.org/namespaces/inkscape"
   version="1.1"
   width="48"
   height="48"
   id="svg2"
   inkscape:version="0.48.3.1 r9886"
   sodipodi:docname="tda.svg">
  <sodipodi:namedview
     pagecolor="#ffffff"
     bordercolor="#666666"
     borderopacity="1"
     objecttolerance="10"
     gridtolerance="10"
     guidetolerance="10"
     inkscape:pageopacity="0"
     inkscape:pageshadow="2"
     inkscape:window-width="1914"
     inkscape:window-height="1031"
     id="namedview37168"
     showgrid="false"
     inkscape:zoom="13.832222"
     inkscape:cx="11.959996"
     inkscape:cy="28.271186"
     inkscape:window-x="0"
     inkscape:window-y="25"
     inkscape:window-maximized="1"
     inkscape:current-layer="svg2" />
  <defs
     id="defs4">
    <linearGradient
       id="linearGradient4267">
      <stop
         style="stop-color:#c8edff;stop-opacity:0.96855348;"
         offset="0"
         id="stop4269" />
      <stop
         style="stop-color:#0f5ca2;stop-opacity:0.56603771;"
         offset="1"
         id="stop4271" />
    </linearGradient>
    <linearGradient
       inkscape:collect="always"
       xlink:href="#linearGradient4119"
       id="linearGradient4117"
       x1="348.56787"
       y1="127.42867"
       x2="471.33572"
       y2="116.79466"
       gradientUnits="userSpaceOnUse" />
    <linearGradient
       id="linearGradient4119">
      <stop
         id="stop4121"
         offset="0"
         style="stop-color:#edfafe;stop-opacity:1;" />
      <stop
         id="stop4123"
         offset="1"
         style="stop-color:#86c0f4;stop-opacity:0;" />
    </linearGradient>
  </defs>
  <metadata
     id="metadata7">
    <rdf:RDF>
      <cc:Work
         rdf:about="">
        <dc:format>image/svg+xml</dc:format>
        <dc:type
           rdf:resource="http://purl.org/dc/dcmitype/StillImage" />
        <dc:title />
      </cc:Work>
    </rdf:RDF>
  </metadata>
  <path
     sodipodi:type="arc"
     style="fill:#43a6ff;fill-opacity:0.63529414;stroke:none"
     id="path3202-9-5"
     sodipodi:cx="442.85715"
     sodipodi:cy="172.42857"
     sodipodi:rx="121.42857"
     sodipodi:ry="121.42857"
     d="m 563.71305,160.6494 a 121.42857,121.42857 0 1 1 -0.009,-0.0898"
     transform="matrix(0.19347052,0,0,0.19347052,-61.883193,-8.9530683)"
     sodipodi:start="6.1860276"
     sodipodi:end="12.46847"
     sodipodi:open="true" />
  <path
     d="m 3.7589855,15.723973 0,2.020525 -1.0968563,0 0,1.847337 1.039127,0 c 0,0 0,4.754533 0,6.46568 0,1.711146 1.6164199,3.98332 5.0224474,3.98332 3.4060274,0 4.8492594,-3.348298 4.8492594,-4.964718 -0.698142,0 -1.905066,-0.05773 -1.905066,-0.05773 0,0 -0.230913,3.001923 -2.5978177,3.001923 -2.6555469,0 -3.4060275,-1.674149 -3.4060275,-2.597818 0,-0.923669 0,-5.801793 0,-5.801793 l 6.0615742,0 0,-1.818471 -5.9461157,0 0,-2.135984 z"
     id="path2996"
     style="fill:#21528b;fill-opacity:1;stroke:none"
     inkscape:connector-curvature="0" />
  <path
     d="m 22.115006,15.482766 -0.02858,5.600609 c 0,0 -0.894368,-1.085833 -2.886028,-1.085833 -2.597818,0 -4.91482,2.229828 -4.91482,4.97197 0,2.74214 2.373281,5.17199 5.057693,5.17199 2.684411,0 4.771947,-2.05862 4.771947,-4.086158 0,-2.027538 0,-10.572578 0,-10.572578 z m -2.971752,6.543568 c 1.373957,-0.01347 2.943177,0.894369 2.943177,2.886028 0,2.540089 -1.963231,3.171774 -2.800304,3.171774 -0.837075,0 -3.028901,-0.487942 -3.028901,-3.114624 0,-1.789609 1.512071,-2.929708 2.886028,-2.943178 z"
     id="path3766"
     style="fill:#21528b;fill-opacity:1;stroke:none"
     inkscape:connector-curvature="0" />
  <path
     d="m 30.003608,20.197564 c -2.333836,0 -5.088298,1.709685 -5.088298,5.029118 0,3.319434 3.556442,4.829097 5.086267,4.829097 1.529826,0 2.714581,-0.971534 2.714581,-0.971534 l 0.05715,0.971534 2.028792,0.08572 c 0,0 -2.92e-4,-2.540666 0.02858,-5.629183 0.02887,-3.088516 -2.44682,-4.314755 -4.827066,-4.314755 z m -0.114588,1.685898 c 1.477017,0 3.141458,0.685084 3.141458,2.943177 0,2.3669 -1.671973,3.457809 -3.115205,3.428944 -1.443232,-0.02887 -3.112013,-1.41016 -3.169743,-3.257497 -0.05772,-1.847337 1.669217,-3.114624 3.14349,-3.114624 z"
     id="path3771"
     style="fill:#21528b;fill-opacity:1;stroke:none"
     inkscape:connector-curvature="0" />
  <path
     d="m 31.584498,25.133879 a 1.703014,1.703014 0 0 1 -3.406028,0 1.703014,1.703014 0 1 1 3.406028,0 z"
     id="path3776"
     style="fill:#d7b223;fill-opacity:1;stroke:none"
     inkscape:connector-curvature="0" />
  <path
     d="m 24.916767,19.678429 c 1.432756,-2.3555 6.271353,-3.977365 9.842842,-1.414367 3.662312,2.628175 3.463756,7.5914 1.789607,10.448999 0.08659,-3.348297 1.376198,-6.63242 -2.3669,-9.525331 -3.205538,-2.47745 -7.465466,-0.559829 -9.265549,0.490699 z"
     id="path3778"
     style="fill:#d7b223;fill-opacity:1;stroke:none"
     inkscape:connector-curvature="0" />
  <path
     d="m 24.788228,16.893433 c 3.296026,-4.076877 8.46338,-5.1564 12.93801,-1.945262 4.58842,3.292792 3.50258,10.377082 1.405079,13.957174 0.426001,-4.194924 2.186039,-9.406463 -2.503596,-13.030902 -4.016138,-3.103972 -9.094365,-0.950321 -11.839493,1.01899 z"
     id="path3778-5"
     style="fill:#d7b223;fill-opacity:1;stroke:none"
     inkscape:connector-curvature="0" />
  <path
     d="m 25.010856,13.145917 c 4.014698,-4.7212443 10.160516,-6.1904784 15.53243,-2.335339 5.508522,3.95307 4.955421,12.053882 1.686835,16.755925 1.435094,-4.747488 2.624398,-11.292748 -3.005635,-15.643941 -4.821482,-3.7263942 -11.506106,-0.356794 -14.21363,1.223355 z"
     id="path3778-5-7"
     style="fill:#d7b223;fill-opacity:1;stroke:none"
     inkscape:connector-curvature="0" />
  <g
     style="fill:#21528b;fill-opacity:1"
     id="g3907"
     transform="matrix(0.97074957,0,0,0.97074957,-0.37801555,-982.43086)">
    <path
       inkscape:connector-curvature="0"
       style="font-size:2.93239355000000002px;font-style:normal;font-variant:normal;font-weight:normal;font-stretch:normal;line-height:125%;letter-spacing:0px;word-spacing:0px;fill:#21528b;fill-opacity:1;stroke:none;font-family:Freak Turbulence BRK;-inkscape-font-specification:Freak Turbulence BRK"
       id="path3844"
       d="m 5.5892445,1046.4513 c 0,-0.129 0.0215,-0.2472 0.06451,-0.3548 0.04301,-0.1075 0.103611,-0.1994 0.181808,-0.2756 0.0782,-0.078 0.170078,-0.1388 0.275645,-0.1818 0.10752,-0.043 0.224816,-0.065 0.351887,-0.065 0.07038,0 0.143686,0 0.21993,0.015 0.0782,0.01 0.152483,0.027 0.222862,0.053 0.07233,0.025 0.138798,0.061 0.199402,0.1056 0.06256,0.043 0.113385,0.098 0.152485,0.1642 0.0215,0.037 0.0391,0.076 0.05278,0.1173 0.01564,0.041 0.02346,0.083 0.02346,0.1261 -2e-6,0.027 -0.0098,0.056 -0.02932,0.085 -0.0176,0.029 -0.04106,0.047 -0.07038,0.053 l -1.331307,0.2698 0,0.012 c 0,0.02 0.0029,0.04 0.0088,0.062 0.0078,0.022 0.01466,0.04 0.02053,0.056 0.04887,0.1134 0.11925,0.1975 0.211132,0.2522 0.09188,0.055 0.199402,0.082 0.322564,0.082 0.04301,0 0.08797,0 0.13489,-0.01 0.04887,0 0.09579,-0.012 0.140755,-0.023 0.04496,-0.012 0.08797,-0.028 0.129025,-0.05 0.04301,-0.021 0.08015,-0.05 0.111431,-0.085 0.0215,-0.024 0.03616,-0.051 0.04399,-0.082 0.0078,-0.031 0.01662,-0.061 0.02639,-0.088 0.0098,-0.029 0.02346,-0.053 0.04105,-0.07 0.01955,-0.02 0.0518,-0.029 0.09677,-0.029 0.0391,0 0.07233,0.015 0.0997,0.044 0.02932,0.029 0.04398,0.063 0.04399,0.1026 -2e-6,0.045 -0.0088,0.092 -0.02639,0.1408 -0.01564,0.047 -0.03715,0.089 -0.06451,0.1261 -0.04692,0.063 -0.100681,0.1143 -0.161282,0.1554 -0.05865,0.039 -0.122184,0.07 -0.190605,0.094 -0.06842,0.024 -0.139779,0.04 -0.214065,0.05 -0.07233,0.01 -0.145643,0.015 -0.21993,0.015 -0.207223,0 -0.383166,-0.053 -0.52783,-0.1583 -0.144665,-0.1075 -0.245344,-0.262 -0.302037,-0.4633 -0.01173,-0.039 -0.0215,-0.079 -0.02932,-0.1203 -0.0059,-0.043 -0.0088,-0.085 -0.0088,-0.1261 m 0.88265,-0.5835 c -0.117296,0 -0.217975,0.022 -0.302036,0.064 -0.08406,0.041 -0.155417,0.1144 -0.214065,0.2199 -0.0059,0.01 -0.01368,0.026 -0.02346,0.05 -0.0098,0.024 -0.01466,0.042 -0.01466,0.056 l 0.01466,0 1.049797,-0.2111 0.0059,-0.01 c -0.06647,-0.07 -0.145644,-0.1163 -0.237524,-0.1378 -0.09188,-0.024 -0.184742,-0.035 -0.278578,-0.035" />
    <path
       inkscape:connector-curvature="0"
       style="font-size:2.93239355000000002px;font-style:normal;font-variant:normal;font-weight:normal;font-stretch:normal;line-height:125%;letter-spacing:0px;word-spacing:0px;fill:#21528b;fill-opacity:1;stroke:none;font-family:Freak Turbulence BRK;-inkscape-font-specification:Freak Turbulence BRK"
       id="path3846"
       d="m 7.5884495,1045.3018 c 0.02932,10e-5 0.0606,0.01 0.09384,0.024 0.03323,0.016 0.04985,0.043 0.04985,0.082 l 0,1.8005 c 0,0.033 -0.01662,0.061 -0.04985,0.082 -0.03323,0.02 -0.06451,0.029 -0.09384,0.029 -0.01368,0 -0.02932,0 -0.04692,-0.01 -0.01564,-0.01 -0.0303,-0.014 -0.04399,-0.023 -0.01369,-0.01 -0.02541,-0.022 -0.03519,-0.035 -0.0078,-0.014 -0.01173,-0.028 -0.01173,-0.044 l 0,-1.8005 c 0,-0.033 0.01564,-0.059 0.04692,-0.076 0.03323,-0.02 0.06353,-0.029 0.0909,-0.029" />
    <path
       inkscape:connector-curvature="0"
       style="font-size:2.93239355000000002px;font-style:normal;font-variant:normal;font-weight:normal;font-stretch:normal;line-height:125%;letter-spacing:0px;word-spacing:0px;fill:#21528b;fill-opacity:1;stroke:none;font-family:Freak Turbulence BRK;-inkscape-font-specification:Freak Turbulence BRK"
       id="path3848"
       d="m 7.8458125,1046.4513 c 0,-0.129 0.0215,-0.2472 0.06451,-0.3548 0.04301,-0.1075 0.103611,-0.1994 0.181808,-0.2756 0.0782,-0.078 0.170079,-0.1388 0.275645,-0.1818 0.107521,-0.043 0.224816,-0.065 0.351888,-0.065 0.07038,0 0.143686,0 0.219929,0.015 0.0782,0.01 0.152483,0.027 0.222862,0.053 0.07233,0.025 0.138799,0.061 0.199403,0.1056 0.06256,0.043 0.113384,0.098 0.152484,0.1642 0.0215,0.037 0.0391,0.076 0.05278,0.1173 0.01564,0.041 0.02346,0.083 0.02346,0.1261 -2e-6,0.027 -0.0098,0.056 -0.02932,0.085 -0.0176,0.029 -0.04106,0.047 -0.07038,0.053 l -1.331307,0.2698 0,0.012 c 0,0.02 0.0029,0.04 0.0088,0.062 0.0078,0.022 0.01466,0.04 0.02053,0.056 0.04887,0.1134 0.119251,0.1975 0.211133,0.2522 0.09188,0.055 0.199402,0.082 0.322563,0.082 0.04301,0 0.08797,0 0.13489,-0.01 0.04887,0 0.09579,-0.012 0.140755,-0.023 0.04496,-0.012 0.08797,-0.028 0.129025,-0.05 0.04301,-0.021 0.08015,-0.05 0.111431,-0.085 0.0215,-0.024 0.03617,-0.051 0.04399,-0.082 0.0078,-0.031 0.01662,-0.061 0.02639,-0.088 0.0098,-0.029 0.02346,-0.053 0.04105,-0.07 0.01955,-0.02 0.0518,-0.029 0.09677,-0.029 0.0391,0 0.07233,0.015 0.0997,0.044 0.02932,0.029 0.04398,0.063 0.04399,0.1026 -2e-6,0.045 -0.0088,0.092 -0.02639,0.1408 -0.01564,0.047 -0.03714,0.089 -0.06451,0.1261 -0.04692,0.063 -0.10068,0.1143 -0.161281,0.1554 -0.05865,0.039 -0.122185,0.07 -0.190606,0.094 -0.06842,0.024 -0.139779,0.04 -0.214065,0.05 -0.07233,0.01 -0.145643,0.015 -0.219929,0.015 -0.207223,0 -0.383167,-0.053 -0.527831,-0.1583 -0.144665,-0.1075 -0.245344,-0.262 -0.302037,-0.4633 -0.01173,-0.039 -0.0215,-0.079 -0.02932,-0.1203 -0.0059,-0.043 -0.0088,-0.085 -0.0088,-0.1261 m 0.882651,-0.5835 c -0.117297,0 -0.217975,0.022 -0.302037,0.064 -0.08406,0.041 -0.155417,0.1144 -0.214064,0.2199 -0.0059,0.01 -0.01369,0.026 -0.02346,0.05 -0.0098,0.024 -0.01466,0.042 -0.01466,0.056 l 0.01466,0 1.049797,-0.2111 0.0059,-0.01 c -0.06647,-0.07 -0.145643,-0.1163 -0.237524,-0.1378 -0.09188,-0.024 -0.184742,-0.035 -0.278577,-0.035" />
    <path
       inkscape:connector-curvature="0"
       style="font-size:2.93239355000000002px;font-style:normal;font-variant:normal;font-weight:normal;font-stretch:normal;line-height:125%;letter-spacing:0px;word-spacing:0px;fill:#21528b;fill-opacity:1;stroke:none;font-family:Freak Turbulence BRK;-inkscape-font-specification:Freak Turbulence BRK"
       id="path3850"
       d="m 9.6613775,1045.7182 c 0,-0.041 0.01368,-0.074 0.04105,-0.1 0.02932,-0.027 0.06451,-0.041 0.105566,-0.041 0.0215,0 0.04301,0 0.06451,0.015 0.02346,0.01 0.04008,0.024 0.04985,0.044 l 0.6070055,1.2053 0.598208,-1.1906 c 0.01173,-0.023 0.02932,-0.041 0.05278,-0.053 0.02346,-0.014 0.04887,-0.02 0.07624,-0.02 0.04496,0 0.07917,0.016 0.102633,0.047 0.02541,0.029 0.03812,0.065 0.03812,0.1056 l 0,0.021 c -2e-6,0.01 -9.8e-4,0.013 -0.0029,0.015 l -0.744828,1.4955 c -0.0098,0.019 -0.02737,0.034 -0.05278,0.044 -0.02541,0.01 -0.0479,0.015 -0.06744,0.015 -0.0606,0 -0.103612,-0.024 -0.129025,-0.073 l -0.7301665,-1.4662 c -0.0059,-0.01 -0.0088,-0.018 -0.0088,-0.029 l 0,-0.032" />
    <path
       inkscape:connector-curvature="0"
       style="font-size:2.93239355000000002px;font-style:normal;font-variant:normal;font-weight:normal;font-stretch:normal;line-height:125%;letter-spacing:0px;word-spacing:0px;fill:#21528b;fill-opacity:1;stroke:none;font-family:Freak Turbulence BRK;-inkscape-font-specification:Freak Turbulence BRK"
       id="path3852"
       d="m 11.608074,1045.5863 c -0.03519,-0.012 -0.0606,-0.03 -0.07624,-0.056 -0.01368,-0.027 -0.02053,-0.058 -0.02053,-0.091 0,-0.045 0.01173,-0.08 0.03519,-0.1056 0.02541,-0.027 0.0606,-0.041 0.105566,-0.041 0.04887,0 0.08504,0.015 0.108499,0.044 0.02346,0.029 0.03519,0.066 0.03519,0.1115 -1e-6,0.068 -0.03323,0.1143 -0.0997,0.1378 0.0215,0.01 0.04301,0.023 0.06451,0.044 0.0215,0.019 0.03226,0.042 0.03226,0.067 l 0,1.5102 c 0,0.033 -0.01662,0.061 -0.04985,0.082 -0.03323,0.02 -0.06451,0.029 -0.09384,0.029 -0.01368,0 -0.02932,0 -0.04692,-0.01 -0.01564,-0.01 -0.0303,-0.014 -0.04399,-0.023 -0.01369,-0.01 -0.02541,-0.022 -0.03519,-0.035 -0.0078,-0.014 -0.01173,-0.028 -0.01173,-0.044 l 0,-1.5102 c 0,-0.018 0.0039,-0.031 0.01173,-0.041 0.0078,-0.01 0.01662,-0.018 0.02639,-0.024 0.0098,-0.01 0.02053,-0.015 0.03226,-0.021 0.01173,-0.01 0.02053,-0.017 0.02639,-0.026" />
    <path
       inkscape:connector-curvature="0"
       style="font-size:2.93239355000000002px;font-style:normal;font-variant:normal;font-weight:normal;font-stretch:normal;line-height:125%;letter-spacing:0px;word-spacing:0px;fill:#21528b;fill-opacity:1;stroke:none;font-family:Freak Turbulence BRK;-inkscape-font-specification:Freak Turbulence BRK"
       id="path3854"
       d="m 11.912219,1046.7475 c 0,-0.043 0.01173,-0.079 0.03519,-0.1085 0.02541,-0.029 0.0606,-0.044 0.105567,-0.044 0.04105,0 0.07038,0.01 0.08797,0.026 0.01759,0.018 0.0303,0.039 0.03812,0.064 0.0098,0.024 0.0176,0.05 0.02346,0.079 0.0078,0.027 0.02053,0.053 0.03812,0.076 0.03128,0.039 0.06744,0.071 0.108498,0.097 0.04301,0.024 0.08797,0.042 0.13489,0.056 0.04887,0.014 0.09872,0.024 0.149552,0.029 0.05083,0 0.0997,0.01 0.14662,0.01 0.04301,0 0.09579,0 0.158349,-0.012 0.06256,-0.01 0.12316,-0.022 0.181809,-0.041 0.05865,-0.022 0.110452,-0.05 0.155417,-0.085 0.04496,-0.037 0.07135,-0.084 0.07917,-0.1407 0.002,-0.012 -0.0068,-0.024 -0.02639,-0.035 -0.0176,-0.014 -0.0391,-0.026 -0.06451,-0.038 -0.02346,-0.012 -0.04692,-0.022 -0.07038,-0.029 -0.02346,-0.01 -0.0391,-0.016 -0.04692,-0.018 -0.107522,-0.022 -0.213088,-0.034 -0.316698,-0.038 -0.101657,0 -0.208201,-0.01 -0.319631,-0.012 -0.05865,-0.01 -0.123161,-0.021 -0.193538,-0.038 -0.06842,-0.018 -0.132935,-0.043 -0.193538,-0.076 -0.05865,-0.033 -0.108499,-0.075 -0.149552,-0.1261 -0.04105,-0.051 -0.06158,-0.1134 -0.06158,-0.1877 0,-0.1094 0.02835,-0.2003 0.08504,-0.2727 0.05865,-0.074 0.13098,-0.1339 0.216997,-0.1788 0.08602,-0.045 0.179853,-0.076 0.28151,-0.094 0.101656,-0.02 0.19647,-0.029 0.284442,-0.029 0.06842,0 0.138799,0 0.211133,0.015 0.07233,0.01 0.142708,0.022 0.211132,0.044 0.06842,0.022 0.131956,0.052 0.190605,0.091 0.0606,0.039 0.112407,0.089 0.155417,0.1496 0.02932,0.041 0.05278,0.085 0.07038,0.132 0.01955,0.047 0.02932,0.096 0.02932,0.1466 -2e-6,0.039 -0.01369,0.073 -0.04105,0.1026 -0.02542,0.029 -0.05963,0.044 -0.102634,0.044 -0.02933,0 -0.05376,-0.01 -0.07331,-0.018 -0.0176,-0.014 -0.03226,-0.03 -0.04399,-0.05 -0.0098,-0.02 -0.01857,-0.041 -0.02639,-0.065 -0.0059,-0.023 -0.01271,-0.047 -0.02053,-0.07 -0.02151,-0.051 -0.05376,-0.091 -0.09677,-0.1203 -0.04301,-0.031 -0.0909,-0.055 -0.143687,-0.07 -0.05278,-0.018 -0.107522,-0.028 -0.164214,-0.032 -0.05669,-0.01 -0.108499,-0.01 -0.155417,-0.01 -0.04301,0 -0.0909,0 -0.143687,0.01 -0.05083,0 -0.101657,0.013 -0.152485,0.026 -0.04887,0.012 -0.09579,0.03 -0.140754,0.056 -0.04301,0.025 -0.07722,0.059 -0.102634,0.1 -0.0039,0.01 -0.01173,0.022 -0.02346,0.041 -0.0098,0.02 -0.01466,0.036 -0.01466,0.05 l 0,0.01 c 0.02346,0.027 0.05083,0.05 0.08211,0.068 0.03323,0.018 0.06842,0.032 0.105566,0.044 0.03714,0.01 0.07429,0.018 0.111431,0.023 0.03714,0 0.07233,0.01 0.105566,0.01 0.0078,0 0.0303,10e-4 0.06744,0 0.03714,0 0.07722,0 0.120228,0.01 0.04301,0 0.08211,10e-4 0.117296,0 0.03714,0 0.0606,0 0.07038,0 0.05865,0 0.126092,0.014 0.202335,0.029 0.07624,0.016 0.148574,0.041 0.216998,0.076 0.07038,0.033 0.129023,0.076 0.175943,0.129 0.04692,0.053 0.07038,0.1173 0.07038,0.1935 -2e-6,0.053 -0.0098,0.1027 -0.02932,0.1496 -0.0176,0.045 -0.04106,0.089 -0.07038,0.1319 -0.04106,0.061 -0.09188,0.1105 -0.152484,0.1496 -0.0606,0.037 -0.126094,0.067 -0.196471,0.091 -0.06842,0.022 -0.138801,0.037 -0.211132,0.047 -0.07233,0.01 -0.141733,0.012 -0.2082,0.012 -0.08211,0 -0.165192,-0.01 -0.249253,-0.018 -0.08406,-0.014 -0.164215,-0.036 -0.240457,-0.067 -0.07624,-0.033 -0.144665,-0.076 -0.205267,-0.129 -0.0606,-0.055 -0.108499,-0.1232 -0.143687,-0.2053 -0.01173,-0.027 -0.01955,-0.053 -0.02346,-0.076 -0.0039,-0.023 -0.0059,-0.049 -0.0059,-0.076" />
    <path
       inkscape:connector-curvature="0"
       style="font-size:2.93239355000000002px;font-style:normal;font-variant:normal;font-weight:normal;font-stretch:normal;line-height:125%;letter-spacing:0px;word-spacing:0px;fill:#21528b;fill-opacity:1;stroke:none;font-family:Freak Turbulence BRK;-inkscape-font-specification:Freak Turbulence BRK"
       id="path3856"
       d="m 13.858915,1045.5863 c -0.03519,-0.012 -0.0606,-0.03 -0.07624,-0.056 -0.01369,-0.027 -0.02053,-0.058 -0.02053,-0.091 0,-0.045 0.01173,-0.08 0.03519,-0.1056 0.02541,-0.027 0.0606,-0.041 0.105566,-0.041 0.04887,0 0.08504,0.015 0.108499,0.044 0.02346,0.029 0.03519,0.066 0.03519,0.1115 0,0.068 -0.03323,0.1143 -0.0997,0.1378 0.0215,0.01 0.04301,0.023 0.06451,0.044 0.0215,0.019 0.03226,0.042 0.03226,0.067 l 0,1.5102 c 0,0.033 -0.01662,0.061 -0.04985,0.082 -0.03323,0.02 -0.06451,0.029 -0.09384,0.029 -0.01368,0 -0.02932,0 -0.04692,-0.01 -0.01564,-0.01 -0.0303,-0.014 -0.04399,-0.023 -0.01368,-0.01 -0.02541,-0.022 -0.03519,-0.035 -0.0078,-0.014 -0.01173,-0.028 -0.01173,-0.044 l 0,-1.5102 c 0,-0.018 0.0039,-0.031 0.01173,-0.041 0.0078,-0.01 0.01662,-0.018 0.02639,-0.024 0.0098,-0.01 0.02053,-0.015 0.03226,-0.021 0.01173,-0.01 0.02053,-0.017 0.02639,-0.026" />
    <path
       inkscape:connector-curvature="0"
       style="font-size:2.93239355000000002px;font-style:normal;font-variant:normal;font-weight:normal;font-stretch:normal;line-height:125%;letter-spacing:0px;word-spacing:0px;fill:#21528b;fill-opacity:1;stroke:none;font-family:Freak Turbulence BRK;-inkscape-font-specification:Freak Turbulence BRK"
       id="path3858"
       d="m 14.163059,1046.4543 c 0,-0.131 0.02151,-0.2502 0.06451,-0.3578 0.04301,-0.1075 0.102634,-0.1994 0.178876,-0.2756 0.0782,-0.078 0.171056,-0.1388 0.278577,-0.1818 0.107521,-0.043 0.225794,-0.065 0.35482,-0.065 0.218951,0 0.402714,0.061 0.55129,0.1818 0.150528,0.1192 0.248274,0.2883 0.293239,0.5073 0.002,0.01 0.0039,0.022 0.0059,0.047 0.0039,0.024 0.0068,0.04 0.0088,0.05 0.002,0.01 0.0029,0.025 0.0029,0.047 0.002,0.019 0.0029,0.031 0.0029,0.035 -2e-6,0.129 -0.02248,0.2472 -0.06744,0.3548 -0.04301,0.1055 -0.103613,0.1974 -0.181808,0.2756 -0.07624,0.078 -0.168126,0.1388 -0.275645,0.1818 -0.107523,0.043 -0.223841,0.065 -0.348955,0.065 -0.125116,0 -0.240457,-0.022 -0.346023,-0.065 -0.105566,-0.043 -0.197448,-0.1026 -0.275645,-0.1789 -0.07624,-0.076 -0.136845,-0.1671 -0.181808,-0.2727 -0.04301,-0.1055 -0.06451,-0.2218 -0.06451,-0.3489 m 0.290307,-0.01 c 0,0.086 0.01368,0.1652 0.04105,0.2375 0.02737,0.07 0.06549,0.131 0.114363,0.1818 0.05083,0.049 0.111431,0.087 0.181809,0.1144 0.07038,0.027 0.148573,0.041 0.234591,0.041 0.181807,0 0.324517,-0.05 0.42813,-0.1495 0.103609,-0.1017 0.155415,-0.2444 0.155416,-0.4281 -1e-6,-0.084 -0.01369,-0.1613 -0.04105,-0.2317 -0.02737,-0.072 -0.06647,-0.1329 -0.117296,-0.1818 -0.05083,-0.051 -0.111432,-0.09 -0.181808,-0.1173 -0.07038,-0.029 -0.148576,-0.044 -0.234592,-0.044 -0.08406,0 -0.161282,0.015 -0.231659,0.044 -0.07038,0.027 -0.131958,0.066 -0.184741,0.1173 -0.05083,0.051 -0.0909,0.1124 -0.120228,0.1847 -0.02932,0.07 -0.04399,0.1476 -0.04399,0.2317" />
    <path
       inkscape:connector-curvature="0"
       style="font-size:2.93239355000000002px;font-style:normal;font-variant:normal;font-weight:normal;font-stretch:normal;line-height:125%;letter-spacing:0px;word-spacing:0px;fill:#21528b;fill-opacity:1;stroke:none;font-family:Freak Turbulence BRK;-inkscape-font-specification:Freak Turbulence BRK"
       id="path3860"
       d="m 16.162265,1045.5775 c 0.0391,0 0.07038,0.011 0.09384,0.032 0.02541,0.022 0.04301,0.051 0.05278,0.088 l 0.0059,0 c 0.01173,0 0.02932,-0.01 0.05278,-0.02 0.02541,-0.014 0.04301,-0.023 0.05278,-0.026 0.07624,-0.027 0.153461,-0.046 0.231659,-0.056 0.0782,-0.012 0.158348,-0.018 0.240456,-0.018 0.07233,0 0.146619,0 0.222862,0.015 0.0782,0.01 0.153461,0.027 0.225794,0.053 0.07233,0.025 0.138799,0.061 0.199403,0.1056 0.0606,0.045 0.11143,0.1017 0.152485,0.1701 0.01564,0.027 0.0303,0.06 0.04399,0.097 0.01368,0.035 0.02053,0.068 0.02053,0.1 l 0,1.082 c -1e-6,0.037 -0.01662,0.066 -0.04985,0.088 -0.03128,0.022 -0.06256,0.032 -0.09384,0.032 -0.01369,0 -0.02933,0 -0.04692,-0.01 -0.01564,-0.01 -0.03128,-0.014 -0.04692,-0.023 -0.01369,-0.012 -0.02541,-0.024 -0.03519,-0.035 -0.0098,-0.014 -0.01466,-0.028 -0.01466,-0.044 l 0,-1.0615 c -2e-6,0 -0.0049,-0.016 -0.01466,-0.035 -0.0078,-0.022 -0.01369,-0.035 -0.0176,-0.041 -0.02542,-0.043 -0.05963,-0.078 -0.102633,-0.1055 -0.04301,-0.027 -0.08993,-0.048 -0.140755,-0.062 -0.05083,-0.014 -0.102635,-0.023 -0.155417,-0.026 -0.05278,-0.01 -0.101657,-0.01 -0.14662,-0.01 -0.04692,0 -0.09579,0 -0.146619,0.01 -0.05083,0 -0.10068,0.013 -0.149552,0.026 -0.04692,0.014 -0.09188,0.033 -0.134891,0.059 -0.04301,0.024 -0.07917,0.056 -0.108498,0.097 -0.0059,0.01 -0.01466,0.025 -0.02639,0.047 -0.0098,0.02 -0.01466,0.031 -0.01466,0.035 l 0,1.0556 c 0,0.035 -0.01759,0.066 -0.05278,0.091 -0.03323,0.024 -0.06549,0.035 -0.09677,0.035 -0.02737,0 -0.05767,-0.01 -0.0909,-0.029 -0.03128,-0.019 -0.04692,-0.045 -0.04692,-0.076 l 0,-1.5307 c 0,-0.033 0.01564,-0.059 0.04692,-0.076 0.03323,-0.02 0.06353,-0.029 0.0909,-0.029" />
    <path
       inkscape:connector-curvature="0"
       style="font-size:2.93239355000000002px;font-style:normal;font-variant:normal;font-weight:normal;font-stretch:normal;line-height:125%;letter-spacing:0px;word-spacing:0px;fill:#21528b;fill-opacity:1;stroke:none;font-family:Freak Turbulence BRK;-inkscape-font-specification:Freak Turbulence BRK"
       id="path3862"
       d="m 23.142693,1045.5863 c -0.03519,-0.012 -0.0606,-0.03 -0.07624,-0.056 -0.01368,-0.027 -0.02053,-0.058 -0.02053,-0.091 0,-0.045 0.01173,-0.08 0.03519,-0.1056 0.02541,-0.027 0.0606,-0.041 0.105567,-0.041 0.04887,0 0.08504,0.015 0.108498,0.044 0.02346,0.029 0.03519,0.066 0.03519,0.1115 0,0.068 -0.03323,0.1143 -0.0997,0.1378 0.0215,0.01 0.04301,0.023 0.06451,0.044 0.0215,0.019 0.03226,0.042 0.03226,0.067 l 0,1.5102 c -1e-6,0.033 -0.01662,0.061 -0.04985,0.082 -0.03323,0.02 -0.06451,0.029 -0.09384,0.029 -0.01368,0 -0.02932,0 -0.04692,-0.01 -0.01564,-0.01 -0.0303,-0.014 -0.04399,-0.023 -0.01368,-0.01 -0.02541,-0.022 -0.03519,-0.035 -0.0078,-0.014 -0.01173,-0.028 -0.01173,-0.044 l 0,-1.5102 c 0,-0.018 0.0039,-0.031 0.01173,-0.041 0.0078,-0.01 0.01662,-0.018 0.02639,-0.024 0.0098,-0.01 0.02053,-0.015 0.03226,-0.021 0.01173,-0.01 0.02053,-0.017 0.02639,-0.026" />
    <path
       inkscape:connector-curvature="0"
       style="font-size:2.93239355000000002px;font-style:normal;font-variant:normal;font-weight:normal;font-stretch:normal;line-height:125%;letter-spacing:0px;word-spacing:0px;fill:#21528b;fill-opacity:1;stroke:none;font-family:Freak Turbulence BRK;-inkscape-font-specification:Freak Turbulence BRK"
       id="path3864"
       d="m 24.171138,1047.6067 c -10e-7,-0.033 0.0088,-0.063 0.02639,-0.091 0.01955,-0.025 0.04594,-0.043 0.07917,-0.053 0.0078,0 0.02053,-10e-4 0.03812,0 0.01759,0 0.03617,0 0.05572,-0.01 0.0215,0 0.04105,-10e-4 0.05865,0 0.01955,0 0.03323,0 0.04105,0 0.03714,0 0.0782,-0.012 0.123161,-0.024 0.04496,-0.01 0.08797,-0.024 0.129025,-0.044 0.04105,-0.02 0.07624,-0.044 0.105566,-0.073 0.03128,-0.031 0.0518,-0.068 0.06158,-0.1114 l -0.0088,0 c -0.09384,0.045 -0.187674,0.076 -0.281509,0.094 -0.09188,0.018 -0.188652,0.026 -0.290307,0.026 -0.123162,0 -0.237525,-0.021 -0.34309,-0.064 -0.105567,-0.043 -0.197449,-0.1026 -0.275645,-0.1789 -0.07624,-0.078 -0.135868,-0.1701 -0.178876,-0.2756 -0.04301,-0.1056 -0.06451,-0.2219 -0.06451,-0.349 0,-0.131 0.0215,-0.2502 0.06451,-0.3577 0.04301,-0.1076 0.102633,-0.1994 0.178876,-0.2757 0.0782,-0.076 0.171055,-0.1349 0.278577,-0.1759 0.10752,-0.043 0.225794,-0.065 0.35482,-0.065 0.0997,0 0.196469,0.01 0.290307,0.029 0.09384,0.018 0.185716,0.048 0.275645,0.091 l 0.0029,0 c -1e-6,0 0.0068,-0.014 0.02053,-0.035 0.01368,-0.024 0.02346,-0.039 0.02932,-0.047 0.03128,-0.025 0.06451,-0.038 0.0997,-0.038 0.02737,0 0.05669,0.01 0.08797,0.029 0.03323,0.018 0.04985,0.043 0.04985,0.076 l 0,1.5542 c -2e-6,0.029 -0.0078,0.06 -0.02346,0.091 -0.01369,0.033 -0.02737,0.062 -0.04105,0.085 -0.03714,0.065 -0.08504,0.1183 -0.143687,0.1613 -0.05865,0.045 -0.123162,0.08 -0.193538,0.1056 -0.06842,0.025 -0.139779,0.043 -0.214065,0.053 -0.07429,0.012 -0.146621,0.018 -0.216997,0.018 -0.04496,0 -0.08602,-0.011 -0.123161,-0.032 -0.03519,-0.02 -0.05278,-0.056 -0.05278,-0.1085 m -0.433994,-1.1641 c 0,0.086 0.01368,0.1651 0.04105,0.2375 0.02932,0.072 0.0694,0.1339 0.120229,0.1847 0.05278,0.051 0.114362,0.091 0.18474,0.1202 0.07233,0.027 0.151507,0.041 0.237524,0.041 0.04496,0 0.09188,0 0.140755,-0.01 0.05083,-0.01 0.0997,-0.016 0.14662,-0.029 0.04887,-0.014 0.09384,-0.032 0.13489,-0.056 0.04301,-0.025 0.07917,-0.058 0.108498,-0.097 0.0078,-0.01 0.01564,-0.023 0.02346,-0.038 0.0098,-0.016 0.01466,-0.03 0.01466,-0.044 l 0,-0.6275 c -2e-6,0 -9.79e-4,0 -0.0029,-0.01 -0.002,-0.01 -0.0039,-0.011 -0.0059,-0.015 -0.002,0 -0.0059,-0.012 -0.01173,-0.023 -0.0039,-0.012 -0.0068,-0.019 -0.0088,-0.021 -0.02542,-0.043 -0.05963,-0.077 -0.102634,-0.1026 -0.04301,-0.025 -0.08993,-0.045 -0.140755,-0.059 -0.04887,-0.014 -0.0997,-0.023 -0.152484,-0.026 -0.05083,-0.01 -0.09775,-0.01 -0.140755,-0.01 -0.08406,0 -0.16226,0.014 -0.234592,0.041 -0.07038,0.027 -0.131958,0.067 -0.184741,0.1173 -0.05278,0.049 -0.09384,0.1095 -0.12316,0.1818 -0.02932,0.07 -0.04399,0.1496 -0.04399,0.2376" />
    <path
       inkscape:connector-curvature="0"
       style="font-size:2.93239355000000002px;font-style:normal;font-variant:normal;font-weight:normal;font-stretch:normal;line-height:125%;letter-spacing:0px;word-spacing:0px;fill:#21528b;fill-opacity:1;stroke:none;font-family:Freak Turbulence BRK;-inkscape-font-specification:Freak Turbulence BRK"
       id="path3866"
       d="m 25.393534,1045.5863 c -0.03519,-0.012 -0.0606,-0.03 -0.07624,-0.056 -0.01368,-0.027 -0.02053,-0.058 -0.02053,-0.091 0,-0.045 0.01173,-0.08 0.03519,-0.1056 0.02541,-0.027 0.0606,-0.041 0.105566,-0.041 0.04887,0 0.08504,0.015 0.108498,0.044 0.02346,0.029 0.03519,0.066 0.03519,0.1115 0,0.068 -0.03323,0.1143 -0.0997,0.1378 0.0215,0.01 0.04301,0.023 0.06451,0.044 0.0215,0.019 0.03226,0.042 0.03226,0.067 l 0,1.5102 c -1e-6,0.033 -0.01662,0.061 -0.04985,0.082 -0.03323,0.02 -0.06451,0.029 -0.09384,0.029 -0.01368,0 -0.02932,0 -0.04692,-0.01 -0.01564,-0.01 -0.0303,-0.014 -0.04399,-0.023 -0.01368,-0.01 -0.02541,-0.022 -0.03519,-0.035 -0.0078,-0.014 -0.01173,-0.028 -0.01173,-0.044 l 0,-1.5102 c 0,-0.018 0.0039,-0.031 0.01173,-0.041 0.0078,-0.01 0.01662,-0.018 0.02639,-0.024 0.0098,-0.01 0.02053,-0.015 0.03226,-0.021 0.01173,-0.01 0.02053,-0.017 0.02639,-0.026" />
    <path
       inkscape:connector-curvature="0"
       style="font-size:2.93239355000000002px;font-style:normal;font-variant:normal;font-weight:normal;font-stretch:normal;line-height:125%;letter-spacing:0px;word-spacing:0px;fill:#21528b;fill-opacity:1;stroke:none;font-family:Freak Turbulence BRK;-inkscape-font-specification:Freak Turbulence BRK"
       id="path3868"
       d="m 26.419047,1045.8649 -0.615803,0 c -0.01564,0 -0.0303,0 -0.04399,-0.015 -0.01173,-0.01 -0.02248,-0.022 -0.03226,-0.035 -0.0078,-0.016 -0.01466,-0.031 -0.02053,-0.047 -0.0059,-0.018 -0.0088,-0.032 -0.0088,-0.044 0,-0.033 0.01075,-0.066 0.03226,-0.1 0.02346,-0.033 0.05474,-0.05 0.09384,-0.05 l 0.592344,0 0,-0.085 c -1e-6,-0.039 0.0059,-0.077 0.01759,-0.1143 0.01368,-0.037 0.04203,-0.065 0.08504,-0.082 l 0.04692,0 c 0.03323,0 0.05962,0.01 0.07917,0.017 0.01955,0.01 0.03812,0.029 0.05572,0.059 0.002,0 0.0039,0.01 0.0059,0.015 0.002,0 0.0029,0.067 0.0029,0.1906 l 0.604073,0 c 0.0391,0 0.06842,0.017 0.08797,0.05 0.0215,0.033 0.03225,0.067 0.03226,0.1 -2e-6,0.012 -0.0029,0.026 -0.0088,0.044 -0.0039,0.016 -0.01075,0.031 -0.02053,0.047 -0.0078,0.014 -0.01857,0.025 -0.03226,0.035 -0.01173,0.01 -0.02444,0.015 -0.03812,0.015 l -0.6246,0 0,1.3489 c -10e-7,0.014 -0.0049,0.027 -0.01466,0.041 -0.0098,0.012 -0.02248,0.023 -0.03812,0.032 -0.01369,0.01 -0.02933,0.018 -0.04692,0.023 -0.01564,0.01 -0.02933,0.01 -0.04105,0.01 -0.03128,0 -0.06451,-0.012 -0.0997,-0.035 -0.03324,-0.025 -0.04985,-0.056 -0.04985,-0.091 l 0,-1.3283" />
    <path
       inkscape:connector-curvature="0"
       style="font-size:2.93239355000000002px;font-style:normal;font-variant:normal;font-weight:normal;font-stretch:normal;line-height:125%;letter-spacing:0px;word-spacing:0px;fill:#21528b;fill-opacity:1;stroke:none;font-family:Freak Turbulence BRK;-inkscape-font-specification:Freak Turbulence BRK"
       id="path3870"
       d="m 27.404423,1046.4484 c 0,-0.129 0.0215,-0.2463 0.06451,-0.3519 0.04301,-0.1075 0.102634,-0.1994 0.178876,-0.2756 0.0782,-0.078 0.170078,-0.1378 0.275645,-0.1789 0.10752,-0.043 0.224816,-0.064 0.351887,-0.064 0.0997,0 0.196469,0.01 0.290307,0.026 0.09383,0.018 0.18474,0.049 0.272713,0.094 l 0.0088,0 c 0.01173,-0.033 0.02932,-0.062 0.05278,-0.085 0.02541,-0.024 0.05669,-0.035 0.09384,-0.035 0.03128,0 0.06256,0.011 0.09384,0.032 0.03323,0.022 0.04985,0.051 0.04985,0.088 l 0,1.5014 c -2e-6,0.037 -0.01662,0.066 -0.04985,0.088 -0.03128,0.022 -0.06256,0.032 -0.09384,0.032 -0.03715,0 -0.06842,-0.012 -0.09384,-0.035 -0.02346,-0.023 -0.04106,-0.052 -0.05278,-0.085 l -0.0088,0 c -0.09384,0.045 -0.187675,0.076 -0.28151,0.094 -0.09188,0.018 -0.188652,0.026 -0.290307,0.026 -0.127071,0 -0.243389,-0.022 -0.348955,-0.065 -0.105566,-0.043 -0.196471,-0.1026 -0.272712,-0.1789 -0.07624,-0.078 -0.135868,-0.17 -0.178876,-0.2756 -0.04105,-0.1075 -0.06158,-0.2248 -0.06158,-0.3519 m 0.290307,0 c 0,0.086 0.01368,0.1652 0.04105,0.2375 0.02932,0.07 0.0694,0.132 0.120228,0.1847 0.05083,0.051 0.11143,0.091 0.181808,0.1203 0.07038,0.027 0.148574,0.041 0.234592,0.041 0.04301,0 0.0909,0 0.143687,-0.01 0.05474,-0.01 0.10752,-0.016 0.158349,-0.029 0.05083,-0.014 0.09774,-0.033 0.140755,-0.059 0.04301,-0.027 0.07722,-0.063 0.102634,-0.1085 0.0059,-0.01 0.01173,-0.023 0.01759,-0.038 0.0078,-0.018 0.01173,-0.032 0.01173,-0.044 l 0,-0.5924 c -2e-6,-0.012 -0.0039,-0.025 -0.01173,-0.041 -0.0059,-0.018 -0.01173,-0.031 -0.01759,-0.041 -0.02542,-0.043 -0.05963,-0.077 -0.102634,-0.1026 -0.04106,-0.027 -0.087,-0.048 -0.137822,-0.062 -0.04888,-0.016 -0.0997,-0.025 -0.152485,-0.029 -0.05278,-0.01 -0.101657,-0.01 -0.146619,-0.01 -0.08602,0 -0.165193,0.014 -0.237524,0.041 -0.07233,0.027 -0.133914,0.066 -0.184741,0.1173 -0.05083,0.049 -0.0909,0.1094 -0.120228,0.1818 -0.02737,0.07 -0.04105,0.1495 -0.04105,0.2375" />
    <path
       inkscape:connector-curvature="0"
       style="font-size:2.93239355000000002px;font-style:normal;font-variant:normal;font-weight:normal;font-stretch:normal;line-height:125%;letter-spacing:0px;word-spacing:0px;fill:#21528b;fill-opacity:1;stroke:none;font-family:Freak Turbulence BRK;-inkscape-font-specification:Freak Turbulence BRK"
       id="path3872"
       d="m 29.392174,1045.3018 c 0.02932,10e-5 0.0606,0.01 0.09384,0.024 0.03323,0.016 0.04985,0.043 0.04985,0.082 l 0,1.8005 c 0,0.033 -0.01662,0.061 -0.04985,0.082 -0.03323,0.02 -0.06451,0.029 -0.09384,0.029 -0.01369,0 -0.02932,0 -0.04692,-0.01 -0.01564,-0.01 -0.0303,-0.014 -0.04399,-0.023 -0.01368,-0.01 -0.02541,-0.022 -0.03519,-0.035 -0.0078,-0.014 -0.01173,-0.028 -0.01173,-0.044 l 0,-1.8005 c 0,-0.033 0.01564,-0.059 0.04692,-0.076 0.03323,-0.02 0.06354,-0.029 0.09091,-0.029" />
    <path
       inkscape:connector-curvature="0"
       style="font-size:2.93239355000000002px;font-style:normal;font-variant:normal;font-weight:normal;font-stretch:normal;line-height:125%;letter-spacing:0px;word-spacing:0px;fill:#21528b;fill-opacity:1;stroke:none;font-family:Freak Turbulence BRK;-inkscape-font-specification:Freak Turbulence BRK"
       id="path3874"
       d="m 34.021414,1045.2931 c 0.02737,0 0.05083,0 0.07038,0.01 0.01955,0.01 0.03714,0.021 0.05278,0.044 0.0039,0.01 0.0088,0.016 0.01466,0.029 0.0078,0.012 0.01173,0.02 0.01173,0.023 l 0,0.2991 0.01173,0 c 0.08993,-0.045 0.181808,-0.076 0.275645,-0.094 0.09579,-0.018 0.193537,-0.026 0.293239,-0.026 0.127069,0 0.243388,0.021 0.348955,0.064 0.10752,0.043 0.199401,0.1026 0.275645,0.1789 0.07624,0.076 0.135866,0.1681 0.178876,0.2756 0.04301,0.1056 0.06451,0.2229 0.06451,0.3519 -2e-6,0.1271 -0.02151,0.2444 -0.06451,0.3519 -0.04301,0.1056 -0.102635,0.1975 -0.178876,0.2756 -0.07624,0.076 -0.168125,0.1359 -0.275645,0.1789 -0.105567,0.043 -0.220908,0.065 -0.346023,0.065 -0.101657,0 -0.199403,-0.01 -0.293239,-0.026 -0.09188,-0.017 -0.184741,-0.049 -0.278577,-0.094 l -0.0088,0 c -0.01173,0.033 -0.0303,0.062 -0.05572,0.085 -0.02346,0.024 -0.05474,0.035 -0.09384,0.035 -0.02932,0 -0.0606,-0.011 -0.09384,-0.032 -0.03128,-0.024 -0.04692,-0.053 -0.04692,-0.088 l 0,-1.7946 c 0,-0.035 0.01466,-0.063 0.04399,-0.082 0.03128,-0.02 0.06256,-0.029 0.09384,-0.029 m 0.721369,0.5747 c -0.04496,0 -0.09384,0 -0.14662,0.01 -0.05083,0 -0.101657,0.014 -0.152484,0.029 -0.04887,0.014 -0.09482,0.034 -0.137823,0.062 -0.04105,0.025 -0.07429,0.06 -0.0997,0.1026 -0.0039,0.01 -0.01075,0.024 -0.02053,0.041 -0.0078,0.016 -0.01173,0.027 -0.01173,0.035 l 0,0.5982 c -1e-6,0.018 0.0059,0.037 0.01759,0.059 0.01368,0.021 0.02541,0.039 0.03519,0.053 0.03128,0.037 0.06744,0.068 0.108498,0.091 0.04301,0.022 0.08797,0.039 0.13489,0.053 0.04692,0.012 0.09384,0.02 0.140755,0.024 0.04887,0 0.09579,0.01 0.140755,0.01 0.08406,0 0.161281,-0.014 0.231659,-0.041 0.07038,-0.029 0.130979,-0.069 0.181809,-0.1203 0.05083,-0.051 0.08993,-0.1114 0.117295,-0.1818 0.02932,-0.07 0.04399,-0.1485 0.04399,-0.2346 -1e-6,-0.088 -0.01369,-0.1681 -0.04105,-0.2404 -0.02737,-0.072 -0.06745,-0.1339 -0.120228,-0.1847 -0.05083,-0.051 -0.11241,-0.09 -0.184741,-0.1173 -0.07038,-0.027 -0.149553,-0.041 -0.237524,-0.041" />
    <path
       inkscape:connector-curvature="0"
       style="font-size:2.93239355000000002px;font-style:normal;font-variant:normal;font-weight:normal;font-stretch:normal;line-height:125%;letter-spacing:0px;word-spacing:0px;fill:#21528b;fill-opacity:1;stroke:none;font-family:Freak Turbulence BRK;-inkscape-font-specification:Freak Turbulence BRK"
       id="path3876"
       d="m 35.830288,1045.5863 c -0.03519,-0.012 -0.0606,-0.03 -0.07624,-0.056 -0.01368,-0.027 -0.02053,-0.058 -0.02053,-0.091 -10e-7,-0.045 0.01173,-0.08 0.03519,-0.1056 0.02541,-0.027 0.0606,-0.041 0.105566,-0.041 0.04887,0 0.08504,0.015 0.108499,0.044 0.02346,0.029 0.03519,0.066 0.03519,0.1115 -1e-6,0.068 -0.03323,0.1143 -0.0997,0.1378 0.0215,0.01 0.04301,0.023 0.06451,0.044 0.0215,0.019 0.03226,0.042 0.03226,0.067 l 0,1.5102 c 0,0.033 -0.01662,0.061 -0.04985,0.082 -0.03323,0.02 -0.06451,0.029 -0.09384,0.029 -0.01368,0 -0.02932,0 -0.04692,-0.01 -0.01564,-0.01 -0.0303,-0.014 -0.04399,-0.023 -0.01369,-0.01 -0.02541,-0.022 -0.03519,-0.035 -0.0078,-0.014 -0.01173,-0.028 -0.01173,-0.044 l 0,-1.5102 c -1e-6,-0.018 0.0039,-0.031 0.01173,-0.041 0.0078,-0.01 0.01662,-0.018 0.02639,-0.024 0.0098,-0.01 0.02053,-0.015 0.03226,-0.021 0.01173,-0.01 0.02053,-0.017 0.02639,-0.026" />
    <path
       inkscape:connector-curvature="0"
       style="font-size:2.93239355000000002px;font-style:normal;font-variant:normal;font-weight:normal;font-stretch:normal;line-height:125%;letter-spacing:0px;word-spacing:0px;fill:#21528b;fill-opacity:1;stroke:none;font-family:Freak Turbulence BRK;-inkscape-font-specification:Freak Turbulence BRK"
       id="path3878"
       d="m 36.134433,1046.4513 c 0,-0.129 0.0215,-0.2472 0.06451,-0.3548 0.04301,-0.1075 0.103611,-0.1994 0.181809,-0.2756 0.0782,-0.078 0.170078,-0.1388 0.275645,-0.1818 0.10752,-0.043 0.224816,-0.065 0.351887,-0.065 0.07038,0 0.143686,0 0.21993,0.015 0.0782,0.01 0.152483,0.027 0.222861,0.053 0.07233,0.025 0.138799,0.061 0.199403,0.1056 0.06256,0.043 0.113384,0.098 0.152485,0.1642 0.0215,0.037 0.0391,0.076 0.05278,0.1173 0.01564,0.041 0.02346,0.083 0.02346,0.1261 -2e-6,0.027 -0.0098,0.056 -0.02932,0.085 -0.0176,0.029 -0.04106,0.047 -0.07038,0.053 l -1.331307,0.2698 0,0.012 c 0,0.02 0.0029,0.04 0.0088,0.062 0.0078,0.022 0.01466,0.04 0.02053,0.056 0.04887,0.1134 0.11925,0.1975 0.211132,0.2522 0.09188,0.055 0.199402,0.082 0.322563,0.082 0.04301,0 0.08797,0 0.134891,-0.01 0.04887,0 0.09579,-0.012 0.140754,-0.023 0.04496,-0.012 0.08797,-0.028 0.129026,-0.05 0.04301,-0.021 0.08015,-0.05 0.111431,-0.085 0.0215,-0.024 0.03616,-0.051 0.04399,-0.082 0.0078,-0.031 0.01662,-0.061 0.02639,-0.088 0.0098,-0.029 0.02346,-0.053 0.04105,-0.07 0.01955,-0.02 0.0518,-0.029 0.09677,-0.029 0.0391,0 0.07233,0.015 0.0997,0.044 0.02932,0.029 0.04398,0.063 0.04399,0.1026 -2e-6,0.045 -0.0088,0.092 -0.02639,0.1408 -0.01564,0.047 -0.03715,0.089 -0.06451,0.1261 -0.04692,0.063 -0.100681,0.1143 -0.161282,0.1554 -0.05865,0.039 -0.122184,0.07 -0.190606,0.094 -0.06842,0.024 -0.139778,0.04 -0.214064,0.05 -0.07233,0.01 -0.145643,0.015 -0.21993,0.015 -0.207223,0 -0.383166,-0.053 -0.527831,-0.1583 -0.144665,-0.1075 -0.245343,-0.262 -0.302036,-0.4633 -0.01173,-0.039 -0.0215,-0.079 -0.02932,-0.1203 -0.0059,-0.043 -0.0088,-0.085 -0.0088,-0.1261 m 0.88265,-0.5835 c -0.117296,0 -0.217975,0.022 -0.302036,0.064 -0.08406,0.041 -0.155418,0.1144 -0.214065,0.2199 -0.0059,0.01 -0.01369,0.026 -0.02346,0.05 -0.0098,0.024 -0.01466,0.042 -0.01466,0.056 l 0.01466,0 1.049797,-0.2111 0.0059,-0.01 c -0.06647,-0.07 -0.145643,-0.1163 -0.237523,-0.1378 -0.09188,-0.024 -0.184742,-0.035 -0.278578,-0.035" />
    <path
       inkscape:connector-curvature="0"
       style="font-size:2.93239355000000002px;font-style:normal;font-variant:normal;font-weight:normal;font-stretch:normal;line-height:125%;letter-spacing:0px;word-spacing:0px;fill:#21528b;fill-opacity:1;stroke:none;font-family:Freak Turbulence BRK;-inkscape-font-specification:Freak Turbulence BRK"
       id="path3880"
       d="m 38.142434,1045.5746 c 0.0391,0 0.07038,0.013 0.09384,0.038 0.02346,0.025 0.04105,0.056 0.05278,0.091 0.08993,-0.049 0.182785,-0.082 0.278577,-0.1 0.09775,-0.02 0.199402,-0.029 0.304969,-0.029 0.07038,0 0.143686,0 0.219929,0.015 0.07624,0.01 0.149551,0.027 0.21993,0.053 0.07233,0.025 0.138798,0.061 0.199403,0.1056 0.06256,0.043 0.113384,0.098 0.152484,0.1642 0.0215,0.037 0.0391,0.076 0.05278,0.1173 0.01564,0.041 0.02346,0.083 0.02346,0.1261 -10e-7,0.041 -0.01466,0.076 -0.04398,0.1055 -0.02933,0.027 -0.06354,0.041 -0.102634,0.041 -0.04301,0 -0.07429,-0.01 -0.09384,-0.026 -0.0176,-0.019 -0.03128,-0.043 -0.04105,-0.07 -0.0078,-0.027 -0.01564,-0.056 -0.02346,-0.085 -0.0078,-0.031 -0.02151,-0.058 -0.04105,-0.079 -0.03323,-0.037 -0.07038,-0.066 -0.111431,-0.088 -0.04106,-0.023 -0.08504,-0.041 -0.131958,-0.053 -0.04496,-0.014 -0.09188,-0.023 -0.140755,-0.026 -0.04887,0 -0.09677,-0.01 -0.143687,-0.01 -0.04887,0 -0.101657,0 -0.158349,0.01 -0.05669,0.01 -0.111432,0.018 -0.164214,0.035 -0.05278,0.016 -0.100679,0.039 -0.143687,0.07 -0.04301,0.031 -0.07527,0.073 -0.09677,0.1261 -0.0039,0.01 -0.0088,0.016 -0.01466,0.029 -0.0039,0.014 -0.0059,0.022 -0.0059,0.023 l 0,1.0528 c 0,0.016 -0.0049,0.03 -0.01466,0.044 -0.0098,0.012 -0.02248,0.022 -0.03812,0.032 -0.01369,0.01 -0.02932,0.015 -0.04692,0.021 -0.01564,0.01 -0.02932,0.01 -0.04105,0.01 -0.03323,0 -0.06647,-0.012 -0.0997,-0.035 -0.03128,-0.025 -0.04692,-0.056 -0.04692,-0.091 l 0,-1.4896 c 0,-0.037 0.01564,-0.068 0.04692,-0.091 0.03323,-0.025 0.06647,-0.038 0.0997,-0.038" />
    <path
       inkscape:connector-curvature="0"
       style="font-size:2.93239355000000002px;font-style:normal;font-variant:normal;font-weight:normal;font-stretch:normal;line-height:125%;letter-spacing:0px;word-spacing:0px;fill:#21528b;fill-opacity:1;stroke:none;font-family:Freak Turbulence BRK;-inkscape-font-specification:Freak Turbulence BRK"
       id="path3882"
       d="m 40.509837,1045.8649 -0.615803,0 c -0.01564,0 -0.0303,0 -0.04398,-0.015 -0.01173,-0.01 -0.02248,-0.022 -0.03226,-0.035 -0.0078,-0.016 -0.01466,-0.031 -0.02053,-0.047 -0.0059,-0.018 -0.0088,-0.032 -0.0088,-0.044 0,-0.033 0.01075,-0.066 0.03226,-0.1 0.02346,-0.033 0.05474,-0.05 0.09384,-0.05 l 0.592344,0 0,-0.085 c -1e-6,-0.039 0.0059,-0.077 0.01759,-0.1143 0.01368,-0.037 0.04203,-0.065 0.08504,-0.082 l 0.04692,0 c 0.03323,0 0.05962,0.01 0.07917,0.017 0.01955,0.01 0.03812,0.029 0.05572,0.059 0.002,0 0.0039,0.01 0.0059,0.015 0.002,0 0.0029,0.067 0.0029,0.1906 l 0.604073,0 c 0.0391,0 0.06842,0.017 0.08797,0.05 0.0215,0.033 0.03225,0.067 0.03226,0.1 -10e-7,0.012 -0.0029,0.026 -0.0088,0.044 -0.0039,0.016 -0.01075,0.031 -0.02053,0.047 -0.0078,0.014 -0.01857,0.025 -0.03226,0.035 -0.01173,0.01 -0.02444,0.015 -0.03812,0.015 l -0.6246,0 0,1.3489 c -1e-6,0.014 -0.0049,0.027 -0.01466,0.041 -0.0098,0.012 -0.02248,0.023 -0.03812,0.032 -0.01368,0.01 -0.02933,0.018 -0.04692,0.023 -0.01564,0.01 -0.02933,0.01 -0.04105,0.01 -0.03128,0 -0.06451,-0.012 -0.0997,-0.035 -0.03323,-0.025 -0.04985,-0.056 -0.04985,-0.091 l 0,-1.3283" />
    <path
       inkscape:connector-curvature="0"
       style="font-size:2.93239355000000002px;font-style:normal;font-variant:normal;font-weight:normal;font-stretch:normal;line-height:125%;letter-spacing:0px;word-spacing:0px;fill:#21528b;fill-opacity:1;stroke:none;font-family:Freak Turbulence BRK;-inkscape-font-specification:Freak Turbulence BRK"
       id="path3884"
       d="m 41.495213,1046.4484 c 0,-0.129 0.0215,-0.2463 0.06451,-0.3519 0.04301,-0.1075 0.102634,-0.1994 0.178876,-0.2756 0.0782,-0.078 0.170079,-0.1378 0.275645,-0.1789 0.107521,-0.043 0.224816,-0.064 0.351887,-0.064 0.0997,0 0.19647,0.01 0.290307,0.026 0.09384,0.018 0.18474,0.049 0.272713,0.094 l 0.0088,0 c 0.01173,-0.033 0.02932,-0.062 0.05278,-0.085 0.02541,-0.024 0.05669,-0.035 0.09384,-0.035 0.03128,0 0.06256,0.011 0.09384,0.032 0.03323,0.022 0.04985,0.051 0.04985,0.088 l 0,1.5014 c -2e-6,0.037 -0.01662,0.066 -0.04985,0.088 -0.03128,0.022 -0.06256,0.032 -0.09384,0.032 -0.03715,0 -0.06842,-0.012 -0.09384,-0.035 -0.02346,-0.023 -0.04106,-0.052 -0.05278,-0.085 l -0.0088,0 c -0.09384,0.045 -0.187675,0.076 -0.28151,0.094 -0.09188,0.018 -0.188652,0.026 -0.290307,0.026 -0.127071,0 -0.243389,-0.022 -0.348955,-0.065 -0.105566,-0.043 -0.19647,-0.1026 -0.272712,-0.1789 -0.07624,-0.078 -0.135868,-0.17 -0.178876,-0.2756 -0.04105,-0.1075 -0.06158,-0.2248 -0.06158,-0.3519 m 0.290307,0 c 0,0.086 0.01369,0.1652 0.04105,0.2375 0.02932,0.07 0.0694,0.132 0.120228,0.1847 0.05083,0.051 0.11143,0.091 0.181808,0.1203 0.07038,0.027 0.148574,0.041 0.234592,0.041 0.04301,0 0.0909,0 0.143687,-0.01 0.05474,-0.01 0.10752,-0.016 0.158349,-0.029 0.05083,-0.014 0.09775,-0.033 0.140755,-0.059 0.04301,-0.027 0.07722,-0.063 0.102634,-0.1085 0.0059,-0.01 0.01173,-0.023 0.0176,-0.038 0.0078,-0.018 0.01173,-0.032 0.01173,-0.044 l 0,-0.5924 c -10e-7,-0.012 -0.0039,-0.025 -0.01173,-0.041 -0.0059,-0.018 -0.01173,-0.031 -0.0176,-0.041 -0.02542,-0.043 -0.05963,-0.077 -0.102634,-0.1026 -0.04105,-0.027 -0.087,-0.048 -0.137822,-0.062 -0.04887,-0.016 -0.0997,-0.025 -0.152485,-0.029 -0.05278,-0.01 -0.101657,-0.01 -0.146619,-0.01 -0.08602,0 -0.165192,0.014 -0.237524,0.041 -0.07233,0.027 -0.133913,0.066 -0.184741,0.1173 -0.05083,0.049 -0.0909,0.1094 -0.120228,0.1818 -0.02737,0.07 -0.04105,0.1495 -0.04105,0.2375" />
    <path
       inkscape:connector-curvature="0"
       style="font-size:3.34991621999999989px;font-style:normal;font-weight:normal;line-height:125%;letter-spacing:0px;word-spacing:0px;fill:#21528b;fill-opacity:1;stroke:none;font-family:Sans"
       id="path3834"
       d="m 4.3081022,1044.8753 1.6318411,0 0,0.2781 -0.6617348,0 0,2.164 -0.332048,0 0,-2.164 -0.6380583,0 0,-0.2781" />
    <path
       inkscape:connector-curvature="0"
       style="font-size:3.34991621999999989px;font-style:normal;font-weight:normal;line-height:125%;letter-spacing:0px;word-spacing:0px;fill:#21528b;fill-opacity:1;stroke:none;font-family:Sans"
       id="path3836"
       d="m 21.126497,1045.1915 0,1.899 0.399111,0 c 0.336953,0 0.583398,-0.076 0.739337,-0.229 0.157025,-0.1526 0.235539,-0.3936 0.235541,-0.723 -2e-6,-0.3271 -0.07852,-0.5665 -0.235541,-0.718 -0.155939,-0.1527 -0.402384,-0.229 -0.739337,-0.229 l -0.399111,0 m -0.330412,-0.2716 0.678816,0 c 0.473261,0 0.820575,0.099 1.041942,0.2961 0.221362,0.1963 0.332045,0.5038 0.332047,0.9225 -2e-6,0.421 -0.11123,0.7301 -0.333683,0.9275 -0.222457,0.1974 -0.569225,0.296 -1.040306,0.296 l -0.678816,0 0,-2.4421" />
    <path
       inkscape:connector-curvature="0"
       style="font-size:3.34991621999999989px;font-style:normal;font-weight:normal;line-height:125%;letter-spacing:0px;word-spacing:0px;fill:#21528b;fill-opacity:1;stroke:none;font-family:Sans"
       id="path3838"
       d="m 32.658066,1045.1563 -0.258778,0.584 0.519192,0.016 -0.260414,-0.5997 m -0.18647,-0.3256 0.374576,0 0.930714,2.4421 -0.343497,0 -0.427643,-1.242 -0.658885,0 -0.45921,1.242 -0.348404,0 0.932349,-2.4421" />
  </g>
  <path
     style="fill:#2e6fbd;stroke:none;stroke-width:1px;stroke-linecap:butt;stroke-linejoin:miter;stroke-opacity:1;fill-opacity:1"
     d="m 13.881356,32.822034 -0.508475,0.661017 0.686441,-0.457627 z"
     id="path3823"
     inkscape:connector-curvature="0" />
</svg>
