<?xml version="1.0" encoding="UTF-8" standalone="no"?>
<!-- Created with Inkscape (http://www.inkscape.org/) -->

<svg
   xmlns:dc="http://purl.org/dc/elements/1.1/"
   xmlns:cc="http://creativecommons.org/ns#"
   xmlns:rdf="http://www.w3.org/1999/02/22-rdf-syntax-ns#"
   xmlns:svg="http://www.w3.org/2000/svg"
   xmlns="http://www.w3.org/2000/svg"
   xmlns:sodipodi="http://sodipodi.sourceforge.net/DTD/sodipodi-0.dtd"
   xmlns:inkscape="http://www.inkscape.org/namespaces/inkscape"
   id="svg7384"
   sodipodi:docname="call-end-symbolic.svg"
   version="1.1"
   inkscape:version="0.48.5 r10040"
   height="16"
   width="16">
  <metadata
     id="metadata90">
    <rdf:RDF>
      <cc:Work
         rdf:about="">
        <dc:format>image/svg+xml</dc:format>
        <dc:type
           rdf:resource="http://purl.org/dc/dcmitype/StillImage" />
        <dc:title>Gnome Symbolic Icon Theme</dc:title>
      </cc:Work>
    </rdf:RDF>
  </metadata>
  <sodipodi:namedview
     inkscape:cy="4.6329161"
     pagecolor="#555753"
     borderopacity="1"
     showborder="false"
     inkscape:bbox-paths="false"
     guidetolerance="10"
     inkscape:object-paths="true"
     inkscape:window-width="1914"
     showguides="true"
     inkscape:object-nodes="true"
     inkscape:snap-bbox="true"
     inkscape:pageshadow="2"
     inkscape:guide-bbox="true"
     inkscape:snap-nodes="false"
     bordercolor="#666666"
     objecttolerance="10"
     id="namedview88"
     showgrid="false"
     inkscape:window-maximized="1"
     inkscape:window-x="0"
     inkscape:snap-global="true"
     inkscape:window-y="25"
     gridtolerance="10"
     inkscape:window-height="1031"
     inkscape:snap-to-guides="true"
     inkscape:current-layer="layer12"
     inkscape:snap-bbox-midpoints="false"
     inkscape:zoom="24.883637"
     inkscape:cx="17.504949"
     inkscape:snap-grids="true"
     inkscape:pageopacity="1">
    <inkscape:grid
       spacingx="1px"
       spacingy="1px"
       id="grid4866"
       empspacing="2"
       enabled="true"
       type="xygrid"
       snapvisiblegridlinesonly="true"
       visible="true" />
  </sodipodi:namedview>
  <title
     id="title9167">Gnome Symbolic Icon Theme</title>
  <defs
     id="defs7386" />
  <g
     inkscape:label="status"
     transform="translate(-100.0002,-746)"
     inkscape:groupmode="layer"
     id="layer9"
     style="display:inline" />
  <g
     inkscape:label="devices"
     transform="translate(-100.0002,-746)"
     inkscape:groupmode="layer"
     id="layer10" />
  <g
     inkscape:label="apps"
     transform="translate(-100.0002,-746)"
     inkscape:groupmode="layer"
     id="layer11" />
  <g
     inkscape:label="places"
     transform="translate(-100.0002,-746)"
     inkscape:groupmode="layer"
     id="layer13" />
  <g
     inkscape:label="mimetypes"
     transform="translate(-100.0002,-746)"
     inkscape:groupmode="layer"
     id="layer14" />
  <g
     inkscape:label="emblems"
     transform="translate(-100.0002,-746)"
     inkscape:groupmode="layer"
     id="layer15"
     style="display:inline" />
  <g
     inkscape:label="categories"
     transform="translate(-100.0002,-746)"
     inkscape:groupmode="layer"
     id="g4953"
     style="display:inline" />
  <g
     inkscape:label="actions"
     transform="translate(-100.0002,-746)"
     inkscape:groupmode="layer"
     id="layer12"
     style="display:inline">
    <path
       inkscape:connector-curvature="0"
       d="m 103.20946,748.73538 c -1.20207,0.2879 -2.55565,1.76137 -2.70993,3.60292 -0.0536,0.56279 0.24241,1.44528 0.77243,1.81922 0.70817,0.42321 1.57418,0.35362 2.34375,0.21875 0.56137,-0.14839 1.32406,-0.2226 1.77243,-0.64509 0,0 -0.0518,-1.07046 0.1875,-1.65625 1.931,-0.81073 3.08672,-0.77074 4.96413,-0.0201 0.23926,0.58579 0.1875,1.65625 0.1875,1.65625 0.44837,0.42249 0.88957,0.51679 1.45094,0.66518 0.76957,0.13487 1.63558,0.20446 2.34375,-0.21875 0.53002,-0.37394 1.22785,-0.77418 1.1743,-1.33697 0.0266,-2.26352 -1.90973,-3.79727 -3.1118,-4.08517 -3.13782,-0.59102 -6.2763,-0.72425 -9.375,0 z"
       id="path44097-0"
       sodipodi:nodetypes="ccccccccccccc"
       style="fill:#ffffff;fill-opacity:1;stroke:none;display:inline;enable-background:new" />
    <path
       inkscape:connector-curvature="0"
       d="m 103.34395,749.52122 c -1.20207,0.2879 -1.99303,1.09829 -2.1875,2.4375 -0.0536,0.5628 -0.28002,1.34482 0.25,1.71875 0.70817,0.42322 1.57418,0.35362 2.34375,0.21875 0.56137,-0.14838 0.80163,-0.2025 1.25,-0.625 0,0 -0.0518,-1.07046 0.1875,-1.65625 1.931,-0.81073 3.81009,-0.75064 5.6875,0 0.23926,0.58579 0.1875,1.65625 0.1875,1.65625 0.44837,0.4225 0.68863,0.47662 1.25,0.625 0.76957,0.13487 1.63558,0.20447 2.34375,-0.21875 0.53002,-0.37393 0.30355,-1.15595 0.25,-1.71875 -0.19447,-1.33921 -0.98543,-2.1496 -2.1875,-2.4375 -3.13782,-0.59102 -6.2763,-0.72425 -9.375,0 z"
       id="path44097"
       sodipodi:nodetypes="ccccccccccccc"
       style="fill:#000000;fill-opacity:1;stroke:none;display:inline;enable-background:new" />
    <path
       inkscape:connector-curvature="0"
       d="m 109.33431,756.86513 -1.28124,1.18077 -1.28125,-1.18078 c -1.30841,-1.00982 -3.32813,1.00485 -1.49776,2.4422 l 2.71875,2.65625 2.71874,-2.65625 c 1.9652,-1.48225 -0.50678,-3.2679 -1.37724,-2.44219 z"
       id="rect3217-6-2-2-4-2-8"
       sodipodi:nodetypes="ccccccc"
       style="font-size:medium;font-style:normal;font-variant:normal;font-weight:normal;font-stretch:normal;text-indent:0;text-align:start;text-decoration:none;line-height:normal;letter-spacing:normal;word-spacing:normal;text-transform:none;direction:ltr;block-progression:tb;writing-mode:lr-tb;text-anchor:start;color:#bebebe;fill:#ffffff;fill-opacity:1;stroke:none;stroke-width:2;marker:none;visibility:visible;display:inline;overflow:visible;enable-background:accumulate;font-family:Bitstream Vera Sans;-inkscape-font-specification:Bitstream Vera Sans" />
    <path
       inkscape:connector-curvature="0"
       d="m 109.28142,757.31251 -1.28124,1.28124 -1.28125,-1.28125 c -1.30841,-1.00982 -2.44402,0.50251 -1.43748,1.43753 l 2.71875,2.65625 2.71874,-2.65625 c 0.98061,-1.0402 -0.56706,-2.26323 -1.43752,-1.43752 z"
       id="rect3217-6-2-2-4-2"
       sodipodi:nodetypes="ccccccc"
       style="font-size:medium;font-style:normal;font-variant:normal;font-weight:normal;font-stretch:normal;text-indent:0;text-align:start;text-decoration:none;line-height:normal;letter-spacing:normal;word-spacing:normal;text-transform:none;direction:ltr;block-progression:tb;writing-mode:lr-tb;text-anchor:start;color:#bebebe;fill:#000000;fill-opacity:1;stroke:none;stroke-width:2;marker:none;visibility:visible;display:inline;overflow:visible;enable-background:accumulate;font-family:Bitstream Vera Sans;-inkscape-font-specification:Bitstream Vera Sans" />
  </g>
</svg>
