<?xml version="1.0" encoding="UTF-8" standalone="no"?>
<!-- Created with Inkscape (http://www.inkscape.org/) -->

<svg
   xmlns:dc="http://purl.org/dc/elements/1.1/"
   xmlns:cc="http://creativecommons.org/ns#"
   xmlns:rdf="http://www.w3.org/1999/02/22-rdf-syntax-ns#"
   xmlns:svg="http://www.w3.org/2000/svg"
   xmlns="http://www.w3.org/2000/svg"
   xmlns:sodipodi="http://sodipodi.sourceforge.net/DTD/sodipodi-0.dtd"
   xmlns:inkscape="http://www.inkscape.org/namespaces/inkscape"
   width="48"
   height="48"
   id="svg4374"
   version="1.1"
   inkscape:version="0.48.5 r10040"
   sodipodi:docname="edit-find-symbolic.svg">
  <defs
     id="defs4376" />
  <sodipodi:namedview
     id="base"
     pagecolor="#ffffff"
     bordercolor="#666666"
     borderopacity="1.0"
     inkscape:pageopacity="0.0"
     inkscape:pageshadow="2"
     inkscape:zoom="1.7124294"
     inkscape:cx="154.9802"
     inkscape:cy="98.571429"
     inkscape:document-units="px"
     inkscape:current-layer="layer1"
     showgrid="false"
     inkscape:window-width="1914"
     inkscape:window-height="1031"
     inkscape:window-x="0"
     inkscape:window-y="25"
     inkscape:window-maximized="1" />
  <metadata
     id="metadata4379">
    <rdf:RDF>
      <cc:Work
         rdf:about="">
        <dc:format>image/svg+xml</dc:format>
        <dc:type
           rdf:resource="http://purl.org/dc/dcmitype/StillImage" />
        <dc:title />
      </cc:Work>
    </rdf:RDF>
  </metadata>
  <g
     inkscape:label="Capa 1"
     inkscape:groupmode="layer"
     id="layer1"
     transform="translate(0,-1004.3622)">
    <path
       inkscape:connector-curvature="0"
       sodipodi:nodetypes="ccccccccc"
       style="fill-rule:nonzero;stroke:#ffffff;stroke-width:13.0164299;stroke-linejoin:round;stroke-miterlimit:4;stroke-opacity:1;stroke-dasharray:none;display:inline"
       d="m 38.098158,1043.1615 c -2.605523,2.6011 -4.168834,1.0405 -5.211033,0 l -7.816558,-7.8032 c -0.781643,-0.7803 0,-2.601 0,-3.9015 l 1.302769,-1.3005 c 1.302755,0 3.126623,-0.7805 3.908265,0 l 7.816557,7.803 c 1.0422,1.0405 2.605512,2.6011 0,5.2022 l 0,0 z"
       id="path3236" />
    <path
       inkscape:connector-curvature="0"
       id="path13"
       d="m 38.227391,1043.2726 c -2.642142,2.6709 -4.227436,1.0684 -5.284285,0 l -7.926442,-8.0135 c -0.79264,-0.8014 0,-2.6711 0,-4.0067 l 1.321072,-1.3355 c 1.321071,0 3.170573,-0.8014 3.963213,0 l 7.926442,8.0134 c 1.05685,1.0684 2.642143,2.6711 0,5.3423 l 0,0 z"
       style="fill-rule:nonzero;stroke:#000000;stroke-width:2.13045669;stroke-linejoin:round;stroke-miterlimit:4;display:inline"
       sodipodi:nodetypes="ccccccccc" />
    <path
       transform="matrix(-1.3234271,0,0,1.3234271,46.03225,1002.1263)"
       sodipodi:type="arc"
       style="fill:#000000;fill-opacity:1;stroke:#000000;stroke-width:7;stroke-linecap:round;stroke-linejoin:round;stroke-miterlimit:4;stroke-opacity:1;stroke-dasharray:none"
       id="path3228"
       sodipodi:cx="22.5"
       sodipodi:cy="14.5"
       sodipodi:rx="6.5"
       sodipodi:ry="6.5"
       d="m 29,14.5 a 6.5,6.5 0 1 1 -13,0 6.5,6.5 0 1 1 13,0 z" />
    <path
       transform="matrix(-1.3234271,0,0,1.3234271,46.03225,1002.1263)"
       sodipodi:type="arc"
       style="fill:#ffffff;fill-opacity:1;stroke:none"
       id="path3234"
       sodipodi:cx="22.48143"
       sodipodi:cy="14.591472"
       sodipodi:rx="6.4801788"
       sodipodi:ry="6.5914717"
       d="m 28.961609,14.591472 a 6.4801788,6.5914717 0 1 1 -12.960358,0 6.4801788,6.5914717 0 1 1 12.960358,0 z" />
  </g>
</svg>
