<?xml version="1.0" encoding="UTF-8" standalone="no"?>
<!-- Created with Inkscape (http://www.inkscape.org/) -->

<svg
   xmlns:dc="http://purl.org/dc/elements/1.1/"
   xmlns:cc="http://creativecommons.org/ns#"
   xmlns:rdf="http://www.w3.org/1999/02/22-rdf-syntax-ns#"
   xmlns:svg="http://www.w3.org/2000/svg"
   xmlns="http://www.w3.org/2000/svg"
   xmlns:sodipodi="http://sodipodi.sourceforge.net/DTD/sodipodi-0.dtd"
   xmlns:inkscape="http://www.inkscape.org/namespaces/inkscape"
   width="48"
   height="48"
   id="svg5121"
   version="1.1"
   inkscape:version="0.48.5 r10040"
   sodipodi:docname="document-print-paused.svg">
  <defs
     id="defs5123" />
  <sodipodi:namedview
     id="base"
     pagecolor="#ffffff"
     bordercolor="#666666"
     borderopacity="1.0"
     inkscape:pageopacity="0.0"
     inkscape:pageshadow="2"
     inkscape:zoom="14.143462"
     inkscape:cx="32.074778"
     inkscape:cy="26.258401"
     inkscape:document-units="px"
     inkscape:current-layer="layer1"
     showgrid="false"
     inkscape:window-width="1914"
     inkscape:window-height="1031"
     inkscape:window-x="0"
     inkscape:window-y="25"
     inkscape:window-maximized="1" />
  <metadata
     id="metadata5126">
    <rdf:RDF>
      <cc:Work
         rdf:about="">
        <dc:format>image/svg+xml</dc:format>
        <dc:type
           rdf:resource="http://purl.org/dc/dcmitype/StillImage" />
        <dc:title />
      </cc:Work>
    </rdf:RDF>
  </metadata>
  <g
     inkscape:label="Capa 1"
     inkscape:groupmode="layer"
     id="layer1"
     transform="translate(0,-1004.3622)">
    <rect
       style="fill:none;stroke:none"
       id="rect3981"
       width="41.884026"
       height="42.280834"
       x="4.3816571"
       y="1009.9305"
       rx="0"
       ry="0" />
    <g
       id="g3100"
       style="fill:#ffffff;fill-opacity:1;stroke:#ffffff;stroke-width:8;stroke-miterlimit:4;stroke-opacity:1;stroke-dasharray:none"
       transform="matrix(0.87258404,0,0,0.88085073,4.3816591,1009.9305)">
      <path
         inkscape:connector-curvature="0"
         style="fill:#ffffff;fill-opacity:1;fill-rule:nonzero;stroke:#ffffff;stroke-width:8;stroke-linejoin:round;stroke-miterlimit:4;stroke-opacity:1;stroke-dasharray:none"
         d="m 41,42 c 0,0.4 -0.6,1 -1,1 L 8,43 C 7.6,43 7,42.4 7,42 l 0,-2 c 0,-0.4 0.5,-0.7 0.9,-0.7 l 31.9,0 c 0.4,0 1.2,0.3 1.2,0.7 l 0,2 z"
         id="path3102"
         sodipodi:nodetypes="ccccccccc" />
      <path
         inkscape:connector-curvature="0"
         style="fill:#ffffff;fill-opacity:1;fill-rule:nonzero;stroke:#ffffff;stroke-width:8;stroke-linejoin:round;stroke-miterlimit:4;stroke-opacity:1;stroke-dasharray:none"
         d="m 44,39 c 0,0.4 -0.6,1 -1,1 L 5,40 C 4.6,40 4,39.4 4,39 L 4,25 c 0,-0.4 0.6,-1 1,-1 l 38,0 c 0.4,0 1,0.6 1,1 l 0,14 z"
         id="path3104"
         sodipodi:nodetypes="ccccccccc" />
      <path
         inkscape:connector-curvature="0"
         style="fill:#ffffff;fill-opacity:1;fill-rule:nonzero;stroke:#ffffff;stroke-width:8;stroke-linejoin:round;stroke-miterlimit:4;stroke-opacity:1;stroke-dasharray:none"
         d="M 12,4 C 9,4 8,6 8,8 L 8,26 40,26 40,8 C 40,6 39,4 36,4 L 12,4 z"
         id="path3106"
         sodipodi:nodetypes="ccccccc" />
    </g>
    <g
       id="g3095"
       transform="matrix(0.87258404,0,0,0.88085073,4.3816591,1009.9305)">
      <path
         inkscape:connector-curvature="0"
         sodipodi:nodetypes="ccccccccc"
         id="path13"
         d="m 41,42 c 0,0.4 -0.6,1 -1,1 L 8,43 C 7.6,43 7,42.4 7,42 l 0,-2 c 0,-0.4 0.5,-0.7 0.9,-0.7 l 31.9,0 c 0.4,0 1.2,0.3 1.2,0.7 l 0,2 z"
         style="fill:#000000;fill-rule:nonzero;stroke:none" />
      <path
         inkscape:connector-curvature="0"
         sodipodi:nodetypes="ccccccccc"
         id="path15"
         d="m 44,39 c 0,0.4 -0.6,1 -1,1 L 5,40 C 4.6,40 4,39.4 4,39 L 4,25 c 0,-0.4 0.6,-1 1,-1 l 38,0 c 0.4,0 1,0.6 1,1 l 0,14 z"
         style="fill:#000000;fill-rule:nonzero;stroke:none" />
      <path
         inkscape:connector-curvature="0"
         sodipodi:nodetypes="ccccccc"
         id="path17"
         d="M 12,4 C 9,4 8,6 8,8 L 8,26 40,26 40,8 C 40,6 39,4 36,4 L 12,4 z"
         style="fill:#000000;fill-rule:nonzero;stroke:none" />
    </g>
    <path
       inkscape:connector-curvature="0"
       style="fill:#ffffff;fill-rule:nonzero;stroke:none"
       d="m 35.794689,1033.7136 -20.94201,0 0,-15.8552 c 0,0 0,-0.881 0.87258,-0.881 l 19.19685,0 c 0.87258,0 0.87258,0.881 0.87258,0.881 l 0,15.8552 z"
       id="path19"
       sodipodi:nodetypes="ccccccc" />
    <path
       inkscape:connector-curvature="0"
       style="fill:none;stroke:#000000;stroke-width:3.50683045;stroke-linejoin:miter;stroke-miterlimit:4;stroke-dasharray:none"
       d="m 18.866559,1028.4283 12.56522,0"
       id="path21"
       sodipodi:nodetypes="cc" />
    <path
       sodipodi:type="arc"
       style="fill:#ffffff;stroke:none"
       id="path3769"
       sodipodi:cx="-1.3376714"
       sodipodi:cy="26.781765"
       sodipodi:rx="8.9946871"
       sodipodi:ry="8.9485598"
       d="m 7.6570157,26.781765 a 8.9946871,8.9485598 0 1 1 -17.9893737,0 8.9946871,8.9485598 0 1 1 17.9893737,0 z"
       transform="matrix(1.211104,0,0,1.2273295,14.489609,983.52403)" />
    <g
       id="g3030"
       transform="matrix(0.48921493,0,0,0.48921493,24.991645,529.38017)"
       style="fill:#000000">
      <path
         transform="matrix(0.38332907,0,0,0.38332907,-61.030731,947.32854)"
         d="m 142.64846,125.08843 c 0,26.75948 -21.69284,48.45233 -48.452324,48.45233 -26.759481,0 -48.452327,-21.69285 -48.452327,-48.45233 0,-26.759479 21.692846,-48.452325 48.452327,-48.452325 26.759484,0 48.452324,21.692846 48.452324,48.452325 z"
         sodipodi:ry="48.452328"
         sodipodi:rx="48.452328"
         sodipodi:cy="125.08843"
         sodipodi:cx="94.196136"
         id="path2986"
         style="fill:#000000;fill-opacity:1;stroke:none"
         sodipodi:type="arc" />
      <path
         inkscape:connector-curvature="0"
         id="path3793"
         d="m -30.841541,987.52274 0,15.30756"
         style="fill:#000000;stroke:#ffffff;stroke-width:6.10377835999999974;stroke-linecap:butt;stroke-linejoin:miter;stroke-miterlimit:4;stroke-opacity:1;stroke-dasharray:none" />
      <path
         sodipodi:nodetypes="cc"
         inkscape:connector-curvature="0"
         id="path3795"
         d="m -20.330341,987.52274 0,15.30756"
         style="fill:#000000;stroke:#ffffff;stroke-width:6.10377835999999974;stroke-linecap:butt;stroke-linejoin:miter;stroke-miterlimit:4;stroke-opacity:1;stroke-dasharray:none" />
    </g>
  </g>
</svg>
