<?xml version="1.0" encoding="UTF-8" standalone="no"?>
<!-- Created with Inkscape (http://www.inkscape.org/) -->

<svg
   xmlns:dc="http://purl.org/dc/elements/1.1/"
   xmlns:cc="http://creativecommons.org/ns#"
   xmlns:rdf="http://www.w3.org/1999/02/22-rdf-syntax-ns#"
   xmlns:svg="http://www.w3.org/2000/svg"
   xmlns="http://www.w3.org/2000/svg"
   xmlns:sodipodi="http://sodipodi.sourceforge.net/DTD/sodipodi-0.dtd"
   xmlns:inkscape="http://www.inkscape.org/namespaces/inkscape"
   width="48"
   height="48"
   id="svg5121"
   version="1.1"
   inkscape:version="0.48.5 r10040"
   sodipodi:docname="document-print-report.svg">
  <defs
     id="defs5123" />
  <sodipodi:namedview
     id="base"
     pagecolor="#ffffff"
     bordercolor="#666666"
     borderopacity="1.0"
     inkscape:pageopacity="0.0"
     inkscape:pageshadow="2"
     inkscape:zoom="10.034439"
     inkscape:cx="40.920455"
     inkscape:cy="20.567913"
     inkscape:document-units="px"
     inkscape:current-layer="layer1"
     showgrid="false"
     inkscape:window-width="1914"
     inkscape:window-height="1031"
     inkscape:window-x="0"
     inkscape:window-y="25"
     inkscape:window-maximized="1" />
  <metadata
     id="metadata5126">
    <rdf:RDF>
      <cc:Work
         rdf:about="">
        <dc:format>image/svg+xml</dc:format>
        <dc:type
           rdf:resource="http://purl.org/dc/dcmitype/StillImage" />
        <dc:title />
      </cc:Work>
    </rdf:RDF>
  </metadata>
  <g
     inkscape:label="Capa 1"
     inkscape:groupmode="layer"
     id="layer1"
     transform="translate(0,-1004.3622)">
    <rect
       style="fill:#ffffff;fill-opacity:1;stroke:none"
       id="rect2995-9"
       width="40.958939"
       height="21.824837"
       x="5.4811258"
       y="1029.5907"
       ry="3.5876446" />
    <rect
       style="fill:#ffffff;fill-opacity:1;stroke:none"
       id="rect2995"
       width="34.182278"
       height="21.824837"
       x="9.2680817"
       y="1012.3002"
       ry="3.5876446" />
    <g
       id="g3095"
       transform="matrix(0.87258404,0,0,0.88085073,4.8897191,1011.4765)">
      <path
         inkscape:connector-curvature="0"
         sodipodi:nodetypes="ccccccccc"
         id="path13"
         d="m 41,42 c 0,0.4 -0.6,1 -1,1 L 8,43 C 7.6,43 7,42.4 7,42 l 0,-2 c 0,-0.4 0.5,-0.7 0.9,-0.7 l 31.9,0 c 0.4,0 1.2,0.3 1.2,0.7 l 0,2 z"
         style="fill:#000000;fill-rule:nonzero;stroke:none" />
      <path
         inkscape:connector-curvature="0"
         sodipodi:nodetypes="ccccccccc"
         id="path15"
         d="m 44,39 c 0,0.4 -0.6,1 -1,1 L 5,40 C 4.6,40 4,39.4 4,39 L 4,25 c 0,-0.4 0.6,-1 1,-1 l 38,0 c 0.4,0 1,0.6 1,1 l 0,14 z"
         style="fill:#000000;fill-rule:nonzero;stroke:none" />
      <path
         inkscape:connector-curvature="0"
         sodipodi:nodetypes="ccccccc"
         id="path17"
         d="M 12,4 C 9,4 8,6 8,8 L 8,26 40,26 40,8 C 40,6 39,4 36,4 L 12,4 z"
         style="fill:#000000;fill-rule:nonzero;stroke:none" />
    </g>
    <path
       inkscape:connector-curvature="0"
       style="fill:#ffffff;fill-rule:nonzero;stroke:none"
       d="m 36.302749,1035.2596 -20.94201,0 0,-15.8552 c 0,0 0,-0.881 0.87258,-0.881 l 19.19685,0 c 0.87258,0 0.87258,0.881 0.87258,0.881 l 0,15.8552 z"
       id="path19"
       sodipodi:nodetypes="ccccccc" />
    <path
       inkscape:connector-curvature="0"
       style="fill:none;stroke:#000000;stroke-width:3.50683045;stroke-linejoin:miter;stroke-miterlimit:4;stroke-dasharray:none"
       d="m 19.374619,1029.9743 12.56522,0"
       id="path21"
       sodipodi:nodetypes="cc" />
    <path
       sodipodi:type="arc"
       style="fill:#ffffff;stroke:none"
       id="path3769"
       sodipodi:cx="-1.3376714"
       sodipodi:cy="26.781765"
       sodipodi:rx="8.9946871"
       sodipodi:ry="8.9485598"
       d="m 7.6570157,26.781765 a 8.9946871,8.9485598 0 1 1 -17.9893737,0 8.9946871,8.9485598 0 1 1 17.9893737,0 z"
       transform="matrix(1.2880298,0,0,1.3052859,15.106245,983.08193)" />
    <g
       id="g3040"
       transform="translate(-1.7938223,4.6838692)">
      <path
         transform="matrix(0.18998486,0,0,0.18998486,-2.720196,989.40898)"
         d="m 142.64846,125.08843 c 0,26.75948 -21.69284,48.45233 -48.452324,48.45233 -26.759481,0 -48.452327,-21.69285 -48.452327,-48.45233 0,-26.759479 21.692846,-48.452325 48.452327,-48.452325 26.759484,0 48.452324,21.692846 48.452324,48.452325 z"
         sodipodi:ry="48.452328"
         sodipodi:rx="48.452328"
         sodipodi:cy="125.08843"
         sodipodi:cx="94.196136"
         id="path2986"
         style="fill:#000000;fill-opacity:1;stroke:none"
         sodipodi:type="arc" />
      <g
         id="flowRoot3822"
         style="font-size:40px;font-style:normal;font-variant:normal;font-weight:normal;font-stretch:normal;line-height:125%;letter-spacing:0px;word-spacing:0px;fill:#ffffff;fill-opacity:1;stroke:none;font-family:'A.C.M.E. Secret Agent';-inkscape-font-specification:'A.C.M.E. Secret Agent'"
         transform="matrix(0.33449007,0,0,0.33449007,-3.58427,989.33448)">
        <path
           inkscape:connector-curvature="0"
           id="path3850"
           style="font-style:italic;font-weight:bold;fill:#ffffff;font-family:DejaVu Serif;-inkscape-font-specification:DejaVu Serif Bold Italic"
           d="m 54.648437,57.446969 c 0.208328,-1.05466 0.742181,-1.940076 1.601563,-2.65625 0.872387,-0.729137 1.835928,-1.09372 2.890625,-1.09375 1.028634,3e-5 1.835925,0.364613 2.421875,1.09375 0.429674,0.533882 0.644518,1.158882 0.644531,1.875 -1.3e-5,0.247423 -0.02605,0.507839 -0.07813,0.78125 -0.195325,1.028671 -0.729179,1.907576 -1.601562,2.636718 -0.859386,0.716169 -1.803396,1.074242 -2.832032,1.074219 -1.054695,2.3e-5 -1.875007,-0.35805 -2.460937,-1.074219 -0.442714,-0.533829 -0.664068,-1.158829 -0.664063,-1.875 -5e-6,-0.247369 0.02604,-0.501275 0.07813,-0.761718 m 2.832032,24.277343 2.96875,0 L 60,84.087594 l -9.882813,0 3.574219,-18.398438 -2.949219,0 0.449219,-2.363281 9.863281,0 -3.574218,18.398437" />
      </g>
    </g>
  </g>
</svg>
