<?xml version="1.0" encoding="UTF-8" standalone="no"?>
<!-- Created with Inkscape (http://www.inkscape.org/) -->

<svg
   xmlns:dc="http://purl.org/dc/elements/1.1/"
   xmlns:cc="http://creativecommons.org/ns#"
   xmlns:rdf="http://www.w3.org/1999/02/22-rdf-syntax-ns#"
   xmlns:svg="http://www.w3.org/2000/svg"
   xmlns="http://www.w3.org/2000/svg"
   xmlns:sodipodi="http://sodipodi.sourceforge.net/DTD/sodipodi-0.dtd"
   xmlns:inkscape="http://www.inkscape.org/namespaces/inkscape"
   width="48"
   height="48"
   id="svg2"
   version="1.1"
   inkscape:version="0.48.5 r10040"
   sodipodi:docname="gtk-index.svg">
  <defs
     id="defs4">
    <inkscape:path-effect
       effect="skeletal"
       id="path-effect2997"
       is_visible="true"
       pattern="M 0,5 C 0,2.24 2.24,0 5,0 7.76,0 10,2.24 10,5 10,7.76 7.76,10 5,10 2.24,10 0,7.76 0,5 z"
       copytype="single_stretched"
       prop_scale="1"
       scale_y_rel="false"
       spacing="0"
       normal_offset="0"
       tang_offset="0"
       prop_units="false"
       vertical_pattern="false"
       fuse_tolerance="0" />
  </defs>
  <sodipodi:namedview
     id="base"
     pagecolor="#ffffff"
     bordercolor="#666666"
     borderopacity="1.0"
     inkscape:pageopacity="0.0"
     inkscape:pageshadow="2"
     inkscape:zoom="13.832504"
     inkscape:cx="30.195462"
     inkscape:cy="27.336043"
     inkscape:document-units="px"
     inkscape:current-layer="layer1"
     showgrid="false"
     inkscape:window-width="1914"
     inkscape:window-height="1031"
     inkscape:window-x="0"
     inkscape:window-y="25"
     inkscape:window-maximized="1" />
  <metadata
     id="metadata7">
    <rdf:RDF>
      <cc:Work
         rdf:about="">
        <dc:format>image/svg+xml</dc:format>
        <dc:type
           rdf:resource="http://purl.org/dc/dcmitype/StillImage" />
        <dc:title />
      </cc:Work>
    </rdf:RDF>
  </metadata>
  <g
     inkscape:label="Capa 1"
     inkscape:groupmode="layer"
     id="layer1"
     transform="translate(0,-1004.3622)">
    <path
       style="fill:#ffffff;stroke:none"
       d="m 11.469713,1005.6965 29.366378,0.2044 c 3.322208,0.1398 3.655846,1.0043 3.655846,4.0487 l 0,36.899 c 0.19815,3.2842 -1.023549,4.597 -4.362627,4.5125 l -29.721026,0.2005 z"
       id="path3009"
       inkscape:connector-curvature="0"
       sodipodi:nodetypes="ccccccc" />
    <rect
       x="19.741064"
       y="1007.8202"
       id="rect3825-9-8-7-9-1-5"
       height="5.1920233"
       inkscape:label="a"
       width="22.885695"
       style="color:#bebebe;fill:#000000;fill-opacity:1;stroke:none;stroke-width:1;marker:none;visibility:visible;display:inline;overflow:visible" />
    <rect
       x="36.313034"
       y="1024.6586"
       id="rect3825-9-8-7-8-9-9-8-3"
       height="5.1920233"
       inkscape:label="a"
       width="6.3137279"
       style="color:#bebebe;fill:#000000;fill-opacity:1;stroke:none;stroke-width:1;marker:none;visibility:visible;display:inline;overflow:visible" />
    <rect
       x="28.349442"
       y="1016.2905"
       id="rect3825-9-8-7-9-1-5-6"
       height="5.1920233"
       inkscape:label="a"
       width="14.197598"
       style="color:#bebebe;fill:#000000;fill-opacity:1;stroke:none;stroke-width:1;marker:none;visibility:visible;display:inline;overflow:visible" />
    <rect
       x="36.366718"
       y="1033.1293"
       id="rect3825-9-8-7-8-9-9-8-3-4"
       height="5.1920233"
       inkscape:label="a"
       width="6.3137279"
       style="color:#bebebe;fill:#000000;fill-opacity:1;stroke:none;stroke-width:1;marker:none;visibility:visible;display:inline;overflow:visible" />
    <rect
       x="36.366718"
       y="1041.3695"
       id="rect3825-9-8-7-8-9-9-8-3-3"
       height="5.1920233"
       inkscape:label="a"
       width="6.3137279"
       style="color:#bebebe;fill:#000000;fill-opacity:1;stroke:none;stroke-width:1;marker:none;visibility:visible;display:inline;overflow:visible" />
    <path
       style="fill:#ffffff;fill-opacity:1;fill-rule:evenodd;stroke:none"
       d="m 2.6565095,1037.0391 c 0.069886,-6.3892 -0.5566766,-10.5473 2.7485334,-10.4823 3.30521,0.065 2.9835485,-0.1681 2.9835485,-0.1681 l 0.046606,-17.742 c 0,0 0.9425233,-2.9283 2.6687076,-2.9283 2.374244,0 3.459438,0.9446 3.360596,2.8338 -0.09884,1.8892 0.197682,16.1528 0.197682,16.1528 0,0 0.04941,-4.7231 3.261754,-4.7231 3.212335,0 3.459435,4.487 3.459435,4.487 0,0 -0.03125,-3.6713 3.393058,-3.684 3.424311,-0.012 3.640586,4.1423 3.640586,4.1423 0,0 0.608548,-2.2531 3.524361,-2.206 2.915809,0.048 3.485001,2.8474 3.526844,5.5732 0.06806,4.4336 0.01344,9.4754 0.0085,13.6147 -0.005,4.1392 -5.325423,6.0102 -5.325423,6.0102 l -0.06988,2.2901 -19.741416,-0.1348 -0.110833,-2.2022 c -6.6898057,-5.5774 -7.5303136,-6.4634 -7.5726229,-10.8337 z"
       id="path2995-9"
       inkscape:connector-curvature="0"
       sodipodi:nodetypes="czccssczczczszcccccc" />
    <path
       style="fill:#000000;fill-opacity:1;fill-rule:evenodd;stroke:none"
       d="m 4.8191665,1037.4785 c 0.063332,-6.0583 -0.8320066,-9.8639 2.4906726,-9.9394 3.3226789,-0.075 3.0145779,5.5887 3.0145779,5.5887 l -0.268705,-22.5711 c 0,0 0.854098,-2.7766 2.418336,-2.7766 2.151498,0 3.134881,0.8957 3.045312,2.6871 -0.08957,1.7913 0.179136,15.3161 0.179136,15.3161 0,0 0.04478,-4.4785 2.955745,-4.4785 2.910961,0 3.134879,4.2546 3.134879,4.2546 0,0 -0.02832,-3.4812 3.074729,-3.4932 3.103052,-0.012 3.299036,3.9278 3.299036,3.9278 0,0 0.551455,-2.1364 3.193713,-2.0917 2.642256,0.045 3.158048,2.6998 3.195965,5.2845 0.06167,4.2039 0.01218,8.9846 0.0077,12.9095 -0.0045,3.9248 -4.825804,5.6989 -4.825804,5.6989 l -0.06333,2.1715 -16.749216,0.089 -0.100435,-2.0881 c -6.062184,-5.2885 -7.9639459,-6.3456 -8.0022855,-10.4896 z"
       id="path2995"
       inkscape:connector-curvature="0"
       sodipodi:nodetypes="czccssczczczszccccc" />
  </g>
</svg>
