<?xml version="1.0" encoding="UTF-8" standalone="no"?>
<!-- Created with Inkscape (http://www.inkscape.org/) -->

<svg
   xmlns:dc="http://purl.org/dc/elements/1.1/"
   xmlns:cc="http://creativecommons.org/ns#"
   xmlns:rdf="http://www.w3.org/1999/02/22-rdf-syntax-ns#"
   xmlns:svg="http://www.w3.org/2000/svg"
   xmlns="http://www.w3.org/2000/svg"
   xmlns:sodipodi="http://sodipodi.sourceforge.net/DTD/sodipodi-0.dtd"
   xmlns:inkscape="http://www.inkscape.org/namespaces/inkscape"
   width="48"
   height="48"
   id="svg5121"
   version="1.1"
   inkscape:version="0.48.5 r10040"
   sodipodi:docname="document-print-warning.svg">
  <defs
     id="defs5123" />
  <sodipodi:namedview
     id="base"
     pagecolor="#ffffff"
     bordercolor="#666666"
     borderopacity="1.0"
     inkscape:pageopacity="0.0"
     inkscape:pageshadow="2"
     inkscape:zoom="7.0683799"
     inkscape:cx="41.598947"
     inkscape:cy="1.8847419"
     inkscape:document-units="px"
     inkscape:current-layer="layer1"
     showgrid="false"
     inkscape:window-width="1914"
     inkscape:window-height="1031"
     inkscape:window-x="0"
     inkscape:window-y="25"
     inkscape:window-maximized="1" />
  <metadata
     id="metadata5126">
    <rdf:RDF>
      <cc:Work
         rdf:about="">
        <dc:format>image/svg+xml</dc:format>
        <dc:type
           rdf:resource="http://purl.org/dc/dcmitype/StillImage" />
        <dc:title />
      </cc:Work>
    </rdf:RDF>
  </metadata>
  <g
     inkscape:label="Capa 1"
     inkscape:groupmode="layer"
     id="layer1"
     transform="translate(0,-1004.3622)">
    <rect
       style="fill:#666666;fill-opacity:1;stroke:none"
       width="32.071808"
       height="20.70857"
       ry="2.7455945"
       rx="3.3597281"
       id="rect4899"
       y="844.41852"
       x="-129.07159" />
    <path
       style="font-size:medium;font-style:normal;font-variant:normal;font-weight:normal;font-stretch:normal;text-indent:0;text-align:start;text-decoration:none;line-height:normal;letter-spacing:normal;word-spacing:normal;text-transform:none;direction:ltr;block-progression:tb;writing-mode:lr-tb;text-anchor:start;color:#000000;fill:#666666;fill-opacity:1;stroke:none;stroke-width:2;marker:none;visibility:visible;display:inline;overflow:visible;enable-background:accumulate;font-family:Bitstream Vera Sans;-inkscape-font-specification:Bitstream Vera Sans"
       id="path41043-9"
       d="m -273.42648,982.75485 c -16.06439,0.49119 -27.90777,-9.30956 -27.90777,-30.08051 l 0,-116.65968 c 2.57072,-11.72536 14.50518,-32.24147 27.90777,-32.30276 l 0,-0.24703 1.83932,0 193.740536,0 c 14.59492,0.21665 27.35388,22.84278 27.69498,32.54979 0,0 0,104.25115 0,117.15294 -0.55827,17.72233 -10.18773,29.50625 -24.62947,29.58725 l -44.551646,0 0,-34.51992 c 0,0 4.75104,0 14.4896,0 9.738556,0 28.333116,-5.09604 28.333116,-18.65866 0,-13.56262 0,-58.05637 0,-67.29114 0,-9.23477 -1.95,-23.88256 -29.274806,-23.88256 -27.99688,0 -110.8662,-1.01591 -135.00654,-1.44147 -21.22403,-0.37415 -28.85559,9.32598 -28.85559,34.05147 0,24.72549 0,40.37955 0,54.6514 0,14.27185 8.22755,22.09985 17.82989,22.13984 10.41968,0.0434 17.82989,0.43112 17.82989,0.43112 l 0,34.51992 z"
       inkscape:connector-curvature="0"
       sodipodi:nodetypes="cccccccccccczzzsszzsccc" />
    <rect
       style="fill:#666666;fill-opacity:1;stroke:none"
       width="32.071808"
       height="20.70857"
       ry="2.7455945"
       rx="3.3597281"
       id="rect4899-2"
       y="844.41016"
       x="-165.28621" />
    <path
       style="font-size:medium;font-style:normal;font-variant:normal;font-weight:normal;font-stretch:normal;text-indent:0;text-align:start;text-decoration:none;line-height:normal;letter-spacing:normal;word-spacing:normal;text-transform:none;direction:ltr;block-progression:tb;writing-mode:lr-tb;text-anchor:start;baseline-shift:baseline;color:#000000;fill:#666666;fill-opacity:1;stroke:none;stroke-width:1.99999988;marker:none;visibility:visible;display:inline;overflow:visible;enable-background:accumulate;font-family:Sans;-inkscape-font-specification:Sans"
       sodipodi:nodetypes="ccccccccccccccccccccc"
       id="path1234-3"
       d="m -245.2964,1037.2531 c -7.05026,-1.3818 -12.6228,-8.424 -12.49637,-15.793 l 0,-110.55142 30.76031,0 107.58825,0.1079 2.85899,25.98926 -110.44724,-1.58989 0,70.25105 61.52062,0 0,-47.37913 46.14047,0 0,-47.37919 30.760306,0 0,54.28866 c 0.0923,4.17094 -1.5011,8.35452 -4.32567,11.35205 l -54.791796,56.26201 c -2.91885,2.9011 -6.9932,4.5384 -11.05449,4.4417 l -83.6296,0 c -0.47986,0.016 -0.96126,0.016 -1.44112,0 -0.47986,0.016 -0.96126,0.016 -1.44112,0 z"
       inkscape:connector-curvature="0" />
    <g
       id="g3095"
       transform="matrix(0.87258404,0,0,0.88085073,2.4702913,1009.2002)">
      <path
         inkscape:connector-curvature="0"
         sodipodi:nodetypes="ccccccccc"
         id="path13"
         d="m 41,42 c 0,0.4 -0.6,1 -1,1 L 8,43 C 7.6,43 7,42.4 7,42 l 0,-2 c 0,-0.4 0.5,-0.7 0.9,-0.7 l 31.9,0 c 0.4,0 1.2,0.3 1.2,0.7 l 0,2 z"
         style="fill:#000000;fill-rule:nonzero;stroke:none" />
      <path
         inkscape:connector-curvature="0"
         sodipodi:nodetypes="ccccccccc"
         id="path15"
         d="m 44,39 c 0,0.4 -0.6,1 -1,1 L 5,40 C 4.6,40 4,39.4 4,39 L 4,25 c 0,-0.4 0.6,-1 1,-1 l 38,0 c 0.4,0 1,0.6 1,1 l 0,14 z"
         style="fill:#000000;fill-rule:nonzero;stroke:none" />
      <path
         inkscape:connector-curvature="0"
         sodipodi:nodetypes="ccccccc"
         id="path17"
         d="M 12,4 C 9,4 8,6 8,8 L 8,26 40,26 40,8 C 40,6 39,4 36,4 L 12,4 z"
         style="fill:#000000;fill-rule:nonzero;stroke:none" />
    </g>
    <path
       inkscape:connector-curvature="0"
       style="fill:#ffffff;fill-rule:nonzero;stroke:none"
       d="m 33.883321,1032.9833 -20.94201,0 0,-15.8552 c 0,0 0,-0.881 0.87258,-0.881 l 19.19685,0 c 0.87258,0 0.87258,0.881 0.87258,0.881 l 0,15.8552 z"
       id="path19"
       sodipodi:nodetypes="ccccccc" />
    <g
       id="g3024">
      <path
         sodipodi:nodetypes="zszszsz"
         inkscape:connector-curvature="0"
         id="path3852"
         d="m 3.3262451,1024.5339 c 0.1415833,-0.691 2.7743868,-5.2819 4.9874026,-9.4081 2.2130163,-4.1262 4.5157373,-8.2892 5.1967413,-8.3047 0.681003,-0.015 2.670403,4.2239 5.121905,8.2306 2.451501,4.0067 5.377434,8.5385 5.389764,9.2963 0.01233,0.7579 -5.049776,0.483 -10.223071,0.4872 -5.1732954,0 -10.6143253,0.3898 -10.4727419,-0.3013 z"
         inkscape:transform-center-y="-19.45273"
         inkscape:transform-center-x="-0.030766269"
         style="fill:#000000;fill-opacity:1;stroke:#ffffff;stroke-width:1.18643092999999999;stroke-miterlimit:4;stroke-dasharray:none" />
      <g
         transform="matrix(0.1733943,0,0,0.17046139,-1.4736768,863.0673)"
         id="text3854"
         style="font-size:52.57753754px;font-style:normal;font-variant:normal;font-weight:normal;font-stretch:normal;line-height:125%;letter-spacing:0px;word-spacing:0px;fill:#ffffff;fill-opacity:1;stroke:none;font-family:'A.C.M.E. Secret Agent';-inkscape-font-specification:'A.C.M.E. Secret Agent'">
        <path
           inkscape:connector-curvature="0"
           id="path3859"
           style="font-size:73.60855103px;font-weight:bold;fill:#ffffff;font-family:Century Schoolbook L;-inkscape-font-specification:Century Schoolbook L Bold"
           d="m 87.863453,912.52932 c 0.294434,-8.02332 1.030521,-13.69119 2.429082,-18.47574 2.355472,-8.09694 2.502691,-8.75942 2.502691,-11.63015 0,-4.63734 -2.576303,-7.36086 -6.845595,-7.36086 -4.3429,0 -6.919204,2.72352 -6.919204,7.36086 0,1.91382 0.368044,4.3429 1.03052,6.55116 2.944339,9.71632 3.459602,12.8815 3.901253,23.55473 l 3.901253,0 m -1.987431,4.12208 c -3.754032,0 -6.845595,3.09156 -6.845595,6.8456 0,3.75403 3.091563,6.9192 6.771987,6.9192 3.901249,0 6.992812,-3.09156 6.992812,-6.9192 0,-3.75404 -3.091563,-6.8456 -6.919204,-6.8456" />
      </g>
    </g>
    <path
       inkscape:connector-curvature="0"
       style="fill:none;stroke:#000000;stroke-width:3.50683045;stroke-linejoin:miter;stroke-miterlimit:4;stroke-dasharray:none"
       d="m 16.955191,1027.698 12.56522,0"
       id="path21"
       sodipodi:nodetypes="cc" />
  </g>
</svg>
