<?xml version="1.0" encoding="UTF-8" standalone="no"?>
<!-- Created with Inkscape (http://www.inkscape.org/) -->

<svg
   xmlns:dc="http://purl.org/dc/elements/1.1/"
   xmlns:cc="http://creativecommons.org/ns#"
   xmlns:rdf="http://www.w3.org/1999/02/22-rdf-syntax-ns#"
   xmlns:svg="http://www.w3.org/2000/svg"
   xmlns="http://www.w3.org/2000/svg"
   xmlns:sodipodi="http://sodipodi.sourceforge.net/DTD/sodipodi-0.dtd"
   xmlns:inkscape="http://www.inkscape.org/namespaces/inkscape"
   width="48"
   height="48"
   id="svg4374"
   version="1.1"
   inkscape:version="0.48.5 r10040"
   sodipodi:docname="gtk-orientation-reverse-landscape.svg">
  <defs
     id="defs4376" />
  <sodipodi:namedview
     id="base"
     pagecolor="#ffffff"
     bordercolor="#666666"
     borderopacity="1.0"
     inkscape:pageopacity="0.0"
     inkscape:pageshadow="2"
     inkscape:zoom="1.7124294"
     inkscape:cx="76.144833"
     inkscape:cy="39.56933"
     inkscape:document-units="px"
     inkscape:current-layer="layer1"
     showgrid="false"
     inkscape:window-width="1914"
     inkscape:window-height="1031"
     inkscape:window-x="0"
     inkscape:window-y="25"
     inkscape:window-maximized="1"
     showguides="true"
     inkscape:guide-bbox="true" />
  <metadata
     id="metadata4379">
    <rdf:RDF>
      <cc:Work
         rdf:about="">
        <dc:format>image/svg+xml</dc:format>
        <dc:type
           rdf:resource="http://purl.org/dc/dcmitype/StillImage" />
        <dc:title></dc:title>
      </cc:Work>
    </rdf:RDF>
  </metadata>
  <g
     inkscape:label="Capa 1"
     inkscape:groupmode="layer"
     id="layer1"
     transform="translate(0,-1004.3622)">
    <g
       transform="translate(-372.61864,663.64464)"
       id="layer9"
       style="display:inline" />
    <g
       transform="translate(-372.61864,663.64464)"
       id="layer10" />
    <g
       transform="translate(-372.61864,663.64464)"
       id="layer12" />
    <g
       transform="translate(-372.61864,663.64464)"
       id="layer13" />
    <g
       transform="translate(-372.61864,663.64464)"
       id="layer14" />
    <g
       transform="translate(-372.61864,663.64464)"
       id="layer15" />
    <path
       style="fill:#ffffff;fill-opacity:1;stroke:none"
       d="m 6.8627535,1010.6743 34.2252105,0 c 3.07969,0 6.1652,2.4793 6.1652,5.559 l -0.10332,18.0837 c -0.0117,2.0543 -0.59838,3.7224 -1.66293,4.6676 l -7.79931,7.7113 c -1.83828,2.4018 -3.477,1.6865 -6.31768,1.6988 l -24.5071705,0.106 c -3.07966,0.013 -5.559,-2.4793 -5.559,-5.559 l 0,-26.7084 c 0,-3.0797 2.47931,-5.559 5.559,-5.559 z"
       id="rect3002"
       inkscape:connector-curvature="0"
       sodipodi:nodetypes="sscscccssss" />
    <g
       id="g6121"
       transform="matrix(0,2.6545689,-2.6545689,0,46.804594,1008.5362)"
       style="fill:#000000;fill-opacity:1">
      <g
         inkscape:label="status"
         transform="translate(-241.0002,-647)"
         style="fill:#000000;fill-opacity:1;display:inline"
         id="layer9-9" />
      <g
         inkscape:label="devices"
         transform="translate(-241.0002,-647)"
         id="layer10-8"
         style="fill:#000000;fill-opacity:1" />
      <g
         inkscape:label="apps"
         transform="translate(-241.0002,-647)"
         id="layer11-5"
         style="fill:#000000;fill-opacity:1" />
      <g
         inkscape:label="places"
         transform="translate(-241.0002,-647)"
         id="layer13-6"
         style="fill:#000000;fill-opacity:1" />
      <g
         inkscape:label="mimetypes"
         transform="translate(-241.0002,-647)"
         id="layer14-6"
         style="fill:#000000;fill-opacity:1" />
      <g
         inkscape:label="emblems"
         transform="translate(-241.0002,-647)"
         style="fill:#000000;fill-opacity:1;display:inline"
         id="layer15-0" />
      <g
         inkscape:label="emotes"
         transform="translate(-241.0002,-647)"
         style="fill:#000000;fill-opacity:1;display:inline"
         id="g71291" />
      <g
         inkscape:label="categories"
         transform="translate(-241.0002,-647)"
         style="fill:#000000;fill-opacity:1;display:inline"
         id="g4953" />
      <g
         inkscape:label="actions"
         transform="translate(-241.0002,-647)"
         style="fill:#000000;fill-opacity:1;display:inline"
         id="layer12-7">
        <path
           style="color:#bebebe;fill:#000000;fill-opacity:1;fill-rule:nonzero;stroke:none;stroke-width:1;marker:none;visibility:visible;display:inline;overflow:visible;enable-background:accumulate"
           id="path4387-5"
           d="m 243.93296,648.00074 c -0.50766,0.0395 -0.94152,0.51729 -0.93263,1.02692 l 0,12.94533 c -0.008,0.5398 0.48663,1.03477 1.02589,1.02691 l 9.948,0 c 0.53926,0.008 1.03373,-0.48711 1.02589,-1.02691 l 0,-9.95795 c -0.004,-0.26704 -0.1184,-0.53079 -0.31088,-0.71573 l -2.9844,-2.98738 c -0.18475,-0.19267 -0.44824,-0.30734 -0.71501,-0.31119 l -6.9636,0 c -0.0311,-9.9e-4 -0.0622,-9.9e-4 -0.0933,0 z m 1.08806,1.89744 5.80553,0 -0.0194,2.19159 2.17223,0 0,8.80987 -7.9584,0 z"
           inkscape:connector-curvature="0"
           sodipodi:nodetypes="cccccccccccccccccccc" />
      </g>
    </g>
    <path
       style="fill:#000000;fill-opacity:1;stroke:none"
       d="m 23.373304,1038.6469 c -1.69419,0 -3.06583,-1.3716 -3.06583,-3.0658 0,-1.6942 1.37164,-3.0688 3.06583,-3.0688 1.69419,0 3.06879,1.3746 3.06879,3.0688 0,1.6942 -1.3746,3.0658 -3.06879,3.0658 z m -1.79854,-6.188 c -1.81678,10e-5 -3.63215,-0.01 -5.44904,-0.036 -0.70313,0 -0.68854,-0.6708 -0.68854,-0.6708 l 0,-0.3293 c 0,0 0.14442,-0.3263 0.49563,-0.4453 l 4.36873,-0.8369 0,-3.1905 -2.09533,-6.0248 c -0.0723,-0.307 0.24337,-0.3176 0.24337,-0.3176 l 0.86068,-0.012 c 0,0 0.42759,0.01 0.53719,0.3354 l 3.27655,5.4193 c 0.31785,0.6657 0.34083,0.7616 0.67667,0 l 3.12815,-5.4252 c 0,0 0.14576,-0.3236 0.52829,-0.3236 l 0.79539,0.01 c 0,0 0.44413,0.095 0.23743,0.4363 l -2.04487,5.9031 0,3.1904 4.50821,0.8726 c 0,0 0.35615,0.095 0.35615,0.4363 l 0,0.3146 c 0,0.6528 -0.64997,0.6411 -0.64997,0.6411 -3.02808,0.025 -6.05672,0.053 -9.08469,0.053 z"
       id="rect2992"
       inkscape:connector-curvature="0" />
  </g>
</svg>
