<?xml version="1.0" encoding="UTF-8" standalone="no"?>
<!-- Created with Inkscape (http://www.inkscape.org/) -->

<svg
   xmlns:dc="http://purl.org/dc/elements/1.1/"
   xmlns:cc="http://creativecommons.org/ns#"
   xmlns:rdf="http://www.w3.org/1999/02/22-rdf-syntax-ns#"
   xmlns:svg="http://www.w3.org/2000/svg"
   xmlns="http://www.w3.org/2000/svg"
   xmlns:sodipodi="http://sodipodi.sourceforge.net/DTD/sodipodi-0.dtd"
   xmlns:inkscape="http://www.inkscape.org/namespaces/inkscape"
   width="48"
   height="48"
   id="svg2"
   version="1.1"
   inkscape:version="0.48.5 r10040"
   sodipodi:docname="gtk-color-picker.svg">
  <defs
     id="defs4" />
  <sodipodi:namedview
     id="base"
     pagecolor="#ffffff"
     bordercolor="#666666"
     borderopacity="1.0"
     inkscape:pageopacity="0.0"
     inkscape:pageshadow="2"
     inkscape:zoom="14.576287"
     inkscape:cx="26.595515"
     inkscape:cy="22.857436"
     inkscape:document-units="px"
     inkscape:current-layer="layer1"
     showgrid="false"
     inkscape:window-width="1914"
     inkscape:window-height="1031"
     inkscape:window-x="0"
     inkscape:window-y="25"
     inkscape:window-maximized="1" />
  <metadata
     id="metadata7">
    <rdf:RDF>
      <cc:Work
         rdf:about="">
        <dc:format>image/svg+xml</dc:format>
        <dc:type
           rdf:resource="http://purl.org/dc/dcmitype/StillImage" />
        <dc:title />
      </cc:Work>
    </rdf:RDF>
  </metadata>
  <g
     inkscape:label="Capa 1"
     inkscape:groupmode="layer"
     id="layer1"
     transform="translate(0,-1004.3622)">
    <path
       style="fill:#000000;stroke:#ffffff;stroke-width:2.05796123;stroke-miterlimit:4;stroke-opacity:1;stroke-dasharray:none"
       d="m 15.416298,1019.1112 17.857945,17.3848 c 0,0 1.99353,2.3006 4.380405,0.1215 1.195101,-1.0907 1.275881,-2.4338 -0.470007,-4.0999 -1.482822,-1.4153 -2.642876,-2.5641 -2.642876,-2.5641 0,0 6.618607,-6.8303 10.280607,-10.7111 1.873417,-1.9854 2.754611,-6.7054 -0.11571,-9.471 -2.902223,-2.7963 -7.06938,-5.4348 -10.941303,-1.8926 -4.038331,3.6941 -10.942638,10.5977 -10.942638,10.5977 0,0 -1.888107,-2.0677 -3.326814,-3.2469 -1.438694,-1.1789 -3.222926,-1.0986 -3.987652,-0.3644 -2.090445,2.007 -0.09197,4.2452 -0.09197,4.2452 z"
       id="path3032"
       inkscape:connector-curvature="0"
       sodipodi:nodetypes="ccsscssscsscc" />
    <path
       style="font-size:medium;font-style:normal;font-variant:normal;font-weight:normal;font-stretch:normal;text-indent:0;text-align:start;text-decoration:none;line-height:normal;letter-spacing:normal;word-spacing:normal;text-transform:none;direction:ltr;block-progression:tb;writing-mode:lr-tb;text-anchor:start;baseline-shift:baseline;color:#000000;fill:#000000;fill-opacity:1;stroke:#ffffff;stroke-width:1.08313751;stroke-miterlimit:4;stroke-opacity:1;stroke-dasharray:none;marker:none;visibility:visible;display:inline;overflow:visible;enable-background:accumulate;font-family:Sans;-inkscape-font-specification:Sans"
       d="m 17.341072,1022.5666 -13.2007385,13.3699 -0.5415687,0.5416 0.067696,0.7108 0.3046324,4.6034 c -0.2797566,0.2405 -0.4529239,0.3949 -1.8277945,1.7262 -1.4166921,1.773 -1.011574,4.9741 0.3797283,6.3163 0.8239303,0.7312 2.0909051,1.1754 3.0050763,1.2318 0.9141712,0.056 1.8137679,-0.052 2.6401476,-0.7785 1.3843852,-1.2177 1.7867991,-1.6885 2.0647311,-1.9969 l 5.483383,-0.2708 0.609266,-0.033 0.440023,-0.44 12.794562,-12.9967 -3.828291,-3.9365 -12.834234,13.7052 -3.7404464,-0.026 -0.5621932,0.4053 -0.4738728,0.5415 c 0,0 -0.3164552,0.444 -1.9367381,1.869 -0.7529644,0.2215 -1.291221,-0.124 -1.009617,-1.1191 1.4337281,-1.3754 2.0647309,-1.8954 2.0647309,-1.8954 l 0.6769609,-0.5416 0.4524614,-0.7718 -0.0074,-3.4887 12.6930173,-12.9705 -3.713522,-3.7539 z"
       id="path3034"
       inkscape:connector-curvature="0"
       sodipodi:nodetypes="cccccccccccccccccccccccccccc" />
  </g>
</svg>
