<?xml version="1.0" encoding="UTF-8" standalone="no"?>
<!-- Created with Inkscape (http://www.inkscape.org/) -->

<svg
   xmlns:dc="http://purl.org/dc/elements/1.1/"
   xmlns:cc="http://creativecommons.org/ns#"
   xmlns:rdf="http://www.w3.org/1999/02/22-rdf-syntax-ns#"
   xmlns:svg="http://www.w3.org/2000/svg"
   xmlns="http://www.w3.org/2000/svg"
   xmlns:sodipodi="http://sodipodi.sourceforge.net/DTD/sodipodi-0.dtd"
   xmlns:inkscape="http://www.inkscape.org/namespaces/inkscape"
   width="48"
   height="48"
   id="svg2"
   version="1.1"
   inkscape:version="0.48.5 r10040"
   sodipodi:docname="gtk-caps-lock-warning.svg">
  <defs
     id="defs4" />
  <sodipodi:namedview
     id="base"
     pagecolor="#ffffff"
     bordercolor="#666666"
     borderopacity="1.0"
     inkscape:pageopacity="0.0"
     inkscape:pageshadow="2"
     inkscape:zoom="10.347892"
     inkscape:cx="13.689799"
     inkscape:cy="17.885206"
     inkscape:document-units="px"
     inkscape:current-layer="layer1"
     showgrid="false"
     inkscape:window-width="1914"
     inkscape:window-height="1031"
     inkscape:window-x="0"
     inkscape:window-y="25"
     inkscape:window-maximized="1" />
  <metadata
     id="metadata7">
    <rdf:RDF>
      <cc:Work
         rdf:about="">
        <dc:format>image/svg+xml</dc:format>
        <dc:type
           rdf:resource="http://purl.org/dc/dcmitype/StillImage" />
        <dc:title />
      </cc:Work>
    </rdf:RDF>
  </metadata>
  <g
     inkscape:label="Capa 1"
     inkscape:groupmode="layer"
     id="layer1"
     transform="translate(0,-1004.3622)">
    <path
       style="fill:#ffffff;stroke:none"
       d="m 1.0065216,1043.7973 19.8836324,-34.1992 c 1.293983,-1.8319 2.746891,-5.5916 5.816165,-0.6493 l 20.37169,35.0711 c 1.847131,3.153 -0.666272,4.1945 -2.355274,4.2855 l -39.2870836,-0.2586 c -2.80133,0.037 -6.29293367,0.2928 -4.4291306,-4.2494 z"
       id="path3773-8"
       inkscape:connector-curvature="0"
       sodipodi:nodetypes="ccccccc" />
    <path
       style="fill:#000000;stroke:#000000;stroke-width:0.97962034px;stroke-linecap:butt;stroke-linejoin:miter;stroke-opacity:1"
       d="m 4.4238196,1044.5385 19.3061024,-32.6876 19.319705,32.7309 z"
       id="path3773"
       inkscape:connector-curvature="0" />
    <g
       style="font-size:52.57753754px;font-style:normal;font-variant:normal;font-weight:normal;font-stretch:normal;line-height:125%;letter-spacing:0px;word-spacing:0px;fill:#ffffff;fill-opacity:1;stroke:none;font-family:'A.C.M.E. Secret Agent';-inkscape-font-specification:'A.C.M.E. Secret Agent'"
       id="text3854"
       transform="matrix(0.35832988,0.00303688,-0.00298551,0.35226885,-4.7114339,711.97058)">
      <path
         d="m 87.863453,912.52932 c 0.294434,-8.02332 1.030521,-13.69119 2.429082,-18.47574 2.355472,-8.09694 2.502691,-8.75942 2.502691,-11.63015 0,-4.63734 -2.576303,-7.36086 -6.845595,-7.36086 -4.3429,0 -6.919204,2.72352 -6.919204,7.36086 0,1.91382 0.368044,4.3429 1.03052,6.55116 2.944339,9.71632 3.459602,12.8815 3.901253,23.55473 l 3.901253,0 m -1.987431,4.12208 c -3.754032,0 -6.845595,3.09156 -6.845595,6.8456 0,3.75403 3.091563,6.9192 6.771987,6.9192 3.901249,0 6.992812,-3.09156 6.992812,-6.9192 0,-3.75404 -3.091563,-6.8456 -6.919204,-6.8456"
         style="font-size:73.60855103px;font-weight:bold;fill:#ffffff;font-family:Century Schoolbook L;-inkscape-font-specification:Century Schoolbook L Bold"
         id="path3859"
         inkscape:connector-curvature="0" />
    </g>
  </g>
</svg>
