<?xml version="1.0" encoding="UTF-8" standalone="no"?>
<!-- Created with Inkscape (http://www.inkscape.org/) -->

<svg
   xmlns:dc="http://purl.org/dc/elements/1.1/"
   xmlns:cc="http://creativecommons.org/ns#"
   xmlns:rdf="http://www.w3.org/1999/02/22-rdf-syntax-ns#"
   xmlns:svg="http://www.w3.org/2000/svg"
   xmlns="http://www.w3.org/2000/svg"
   xmlns:sodipodi="http://sodipodi.sourceforge.net/DTD/sodipodi-0.dtd"
   xmlns:inkscape="http://www.inkscape.org/namespaces/inkscape"
   width="48"
   height="48"
   id="svg2"
   version="1.1"
   inkscape:version="0.48.5 r10040"
   sodipodi:docname="gtk-select-color.svg">
  <defs
     id="defs4">
    <inkscape:path-effect
       fuse_tolerance="0"
       vertical_pattern="false"
       prop_units="false"
       tang_offset="0"
       normal_offset="0"
       spacing="0"
       scale_y_rel="false"
       prop_scale="1"
       copytype="single_stretched"
       pattern="M 0,5 C 0,2.24 2.24,0 5,0 7.76,0 10,2.24 10,5 10,7.76 7.76,10 5,10 2.24,10 0,7.76 0,5 z"
       is_visible="true"
       id="path-effect3052"
       effect="skeletal" />
  </defs>
  <sodipodi:namedview
     id="base"
     pagecolor="#ffffff"
     bordercolor="#666666"
     borderopacity="1.0"
     inkscape:pageopacity="0.0"
     inkscape:pageshadow="2"
     inkscape:zoom="2.21365"
     inkscape:cx="243.82572"
     inkscape:cy="16.534696"
     inkscape:document-units="px"
     inkscape:current-layer="layer1"
     showgrid="false"
     showguides="true"
     inkscape:guide-bbox="true"
     inkscape:window-width="1914"
     inkscape:window-height="1031"
     inkscape:window-x="0"
     inkscape:window-y="25"
     inkscape:window-maximized="1" />
  <metadata
     id="metadata7">
    <rdf:RDF>
      <cc:Work
         rdf:about="">
        <dc:format>image/svg+xml</dc:format>
        <dc:type
           rdf:resource="http://purl.org/dc/dcmitype/StillImage" />
        <dc:title />
      </cc:Work>
    </rdf:RDF>
  </metadata>
  <g
     inkscape:label="Layer 1"
     inkscape:groupmode="layer"
     id="layer1"
     transform="translate(0,-1004.3622)">
    <g
       id="g3255"
       transform="matrix(0.16796682,0,0,0.16796682,7.7084952,869.30687)">
      <path
         sodipodi:nodetypes="ccccsc"
         inkscape:connector-curvature="0"
         id="path3088"
         d="m 104.76116,824.98332 -24.556627,95.92355 c -6.028256,-0.59165 -10.182302,-0.18153 -16.75289,0.3837 l -0.46315,-100.04055 c 0,0 4.657741,-0.15871 18.526027,0.69473 15.052397,0.9263 23.24664,3.03858 23.24664,3.03857 z"
         style="fill:#666666;stroke:#000000;stroke-width:1px;stroke-linecap:butt;stroke-linejoin:miter;stroke-opacity:1" />
      <path
         inkscape:transform-center-y="-45.950004"
         inkscape:transform-center-x="-28.405336"
         sodipodi:nodetypes="ccccc"
         inkscape:connector-curvature="0"
         id="path3088-5"
         d="m 145.12439,839.09512 -48.293563,86.32885 c -5.780766,-2.12833 -9.601224,-3.6196 -16.225322,-4.10401 l 24.133945,-96.24463 c 16.84949,3.21776 21.65638,4.50713 40.38494,14.01979 z"
         style="fill:#999999;stroke:#000000;stroke-width:1px;stroke-linecap:butt;stroke-linejoin:miter;stroke-opacity:1" />
      <path
         inkscape:transform-center-y="-37.500774"
         inkscape:transform-center-x="-40.571592"
         sodipodi:nodetypes="ccccc"
         inkscape:connector-curvature="0"
         id="path3088-5-0"
         d="m 180.1698,863.212 -68.9439,71.13426 c -4.18785,-3.38119 -8.13489,-6.08511 -14.563011,-8.79186 l 48.494161,-86.39066 c 11.04176,5.94856 23.52934,13.16706 35.01275,24.04826 z"
         style="fill:#cccccc;stroke:#000000;stroke-width:1px;stroke-linecap:butt;stroke-linejoin:miter;stroke-opacity:1" />
      <path
         inkscape:transform-center-y="-26.601059"
         inkscape:transform-center-x="-47.924241"
         sodipodi:nodetypes="ccccc"
         inkscape:connector-curvature="0"
         id="path3088-5-6"
         d="m 207.33786,897.2869 -83.99827,50.57767 c -3.1477,-3.81188 -8.41851,-9.54516 -11.9572,-13.38525 l 68.81297,-71.00356 c 9.74298,10.65622 17.88723,19.24045 27.1425,33.81114 z"
         style="fill:#e6e6e6;stroke:#000000;stroke-width:1px;stroke-linecap:butt;stroke-linejoin:miter;stroke-opacity:1" />
      <path
         inkscape:transform-center-y="-13.271289"
         inkscape:transform-center-x="-51.305201"
         sodipodi:nodetypes="ccccc"
         inkscape:connector-curvature="0"
         id="path3088-5-6-5"
         d="m 224.71496,936.86428 -96.12455,26.75847 c -0.90237,-4.54037 -2.48346,-10.89281 -5.51153,-16.21484 l 84.51357,-49.91602 c 7.24692,12.04252 13.56159,22.56599 17.12251,39.37239 z"
         style="fill:#f2f2f2;stroke:#000000;stroke-width:1px;stroke-linecap:butt;stroke-linejoin:miter;stroke-opacity:1" />
      <path
         inkscape:transform-center-y="0.323286"
         inkscape:transform-center-x="-50.561738"
         sodipodi:nodetypes="cccccc"
         inkscape:connector-curvature="0"
         id="path3088-5-6-1"
         d="m 230.12487,980.67001 -99.55261,-0.0462 c 0.75122,-5.83234 -0.57159,-10.46169 -1.87286,-16.5991 l 96.1595,-27.02377 c 2.60261,13.12233 5.87862,30.43163 5.26592,43.66908 z"
         style="fill:none;stroke:#000000;stroke-width:1px;stroke-linecap:butt;stroke-linejoin:miter;stroke-opacity:1" />
    </g>
    <path
       style="fill:#000000;fill-opacity:1;fill-rule:evenodd;stroke:#ffffff;stroke-opacity:1;stroke-width:1.2;stroke-miterlimit:1.8;stroke-dasharray:none;marker-end:none;marker-start:none"
       d="m 2.4543531,1039.8244 c 0.051032,-4.8816 -0.6703914,-7.9479 2.0068621,-8.0088 2.6772524,-0.061 2.428999,4.5031 2.428999,4.5031 L 6.6737064,1018.132 c 0,0 0.6881894,-2.2372 1.948577,-2.2372 1.7335706,0 2.5259336,0.7217 2.4537636,2.165 -0.07216,1.4435 0.144338,12.3411 0.144338,12.3411 0,0 0.03609,-3.6085 2.381595,-3.6085 2.34551,0 2.525934,3.4281 2.525934,3.4281 0,0 -0.02283,-2.8049 2.477465,-2.8147 2.500288,-0.014 2.658204,3.1649 2.658204,3.1649 0,0 0.444334,-1.7214 2.573339,-1.6854 2.128998,0.036 2.5446,2.1753 2.575151,4.258 0.04968,3.3873 0.0098,7.2393 0.0062,10.4018 -0.0036,3.1625 -3.888398,4.592 -3.888398,4.592 l -0.05104,1.7496 -13.4957023,0.071 -0.080929,-1.6825 c -4.8846131,-4.2611 -6.4169579,-5.1131 -6.4478507,-8.452 z"
       id="path2995"
       inkscape:connector-curvature="0"
       sodipodi:nodetypes="czccssczczczszccccc" />
    <path
       style="fill:none;stroke:#ffffff;stroke-width:2.10000000000000009;stroke-linecap:butt;stroke-linejoin:miter;stroke-opacity:1;stroke-miterlimit:4;stroke-dasharray:none"
       d="M 46.911121,30.129096 C 45.803499,12.790711 35.139167,2.9057755 17.781549,2.5185504 l 0,17.4241306 c 6.1431,-0.07338 11.156682,1.68123 11.526733,10.097061 z"
       id="path3840"
       inkscape:connector-curvature="0"
       transform="translate(0,1004.3622)"
       sodipodi:nodetypes="ccccc" />
  </g>
</svg>
