<?xml version="1.0" encoding="UTF-8" standalone="no"?>
<!-- Created with Inkscape (http://www.inkscape.org/) -->

<svg
   xmlns:dc="http://purl.org/dc/elements/1.1/"
   xmlns:cc="http://creativecommons.org/ns#"
   xmlns:rdf="http://www.w3.org/1999/02/22-rdf-syntax-ns#"
   xmlns:svg="http://www.w3.org/2000/svg"
   xmlns="http://www.w3.org/2000/svg"
   xmlns:sodipodi="http://sodipodi.sourceforge.net/DTD/sodipodi-0.dtd"
   xmlns:inkscape="http://www.inkscape.org/namespaces/inkscape"
   width="48"
   height="48"
   id="svg4374"
   version="1.1"
   inkscape:version="0.48.5 r10040"
   sodipodi:docname="gtk-orientation-landscape.svg">
  <defs
     id="defs4376" />
  <sodipodi:namedview
     id="base"
     pagecolor="#ffffff"
     bordercolor="#666666"
     borderopacity="1.0"
     inkscape:pageopacity="0.0"
     inkscape:pageshadow="2"
     inkscape:zoom="8.2482016"
     inkscape:cx="54.489656"
     inkscape:cy="16.935005"
     inkscape:document-units="px"
     inkscape:current-layer="layer1"
     showgrid="false"
     inkscape:window-width="1914"
     inkscape:window-height="1031"
     inkscape:window-x="0"
     inkscape:window-y="25"
     inkscape:window-maximized="1"
     showguides="true"
     inkscape:guide-bbox="true" />
  <metadata
     id="metadata4379">
    <rdf:RDF>
      <cc:Work
         rdf:about="">
        <dc:format>image/svg+xml</dc:format>
        <dc:type
           rdf:resource="http://purl.org/dc/dcmitype/StillImage" />
        <dc:title />
      </cc:Work>
    </rdf:RDF>
  </metadata>
  <g
     inkscape:label="Capa 1"
     inkscape:groupmode="layer"
     id="layer1"
     transform="translate(0,-1004.3622)">
    <path
       style="fill:#ffffff;fill-opacity:1;stroke:none"
       d="m 6.6501517,1010.1712 34.2252103,0 c 3.079689,0 6.165198,2.4793 6.165198,5.559 l -0.103314,18.0837 c -0.01174,2.0543 -0.598383,3.7224 -1.662936,4.6676 l -7.799311,7.7113 c -1.838281,2.4018 -3.476993,1.6865 -6.317675,1.6988 l -24.5071723,0.106 c -3.0796598,0.013 -5.5590048,-2.4793 -5.5590048,-5.559 l 0,-26.7084 c 0,-3.0797 2.4793162,-5.559 5.5590048,-5.559 z"
       id="rect3002"
       inkscape:connector-curvature="0"
       sodipodi:nodetypes="sscscccssss" />
    <g
       id="g6121"
       transform="matrix(0,2.6545689,-2.6545689,0,46.591991,1008.0331)"
       style="fill:#000000;fill-opacity:1">
      <g
         inkscape:label="status"
         transform="translate(-241.0002,-647)"
         style="fill:#000000;fill-opacity:1;display:inline"
         id="layer9-9" />
      <g
         inkscape:label="devices"
         transform="translate(-241.0002,-647)"
         id="layer10-8"
         style="fill:#000000;fill-opacity:1" />
      <g
         inkscape:label="apps"
         transform="translate(-241.0002,-647)"
         id="layer11-5"
         style="fill:#000000;fill-opacity:1" />
      <g
         inkscape:label="places"
         transform="translate(-241.0002,-647)"
         id="layer13-6"
         style="fill:#000000;fill-opacity:1" />
      <g
         inkscape:label="mimetypes"
         transform="translate(-241.0002,-647)"
         id="layer14-6"
         style="fill:#000000;fill-opacity:1" />
      <g
         inkscape:label="emblems"
         transform="translate(-241.0002,-647)"
         style="fill:#000000;fill-opacity:1;display:inline"
         id="layer15-0" />
      <g
         inkscape:label="emotes"
         transform="translate(-241.0002,-647)"
         style="fill:#000000;fill-opacity:1;display:inline"
         id="g71291" />
      <g
         inkscape:label="categories"
         transform="translate(-241.0002,-647)"
         style="fill:#000000;fill-opacity:1;display:inline"
         id="g4953" />
      <g
         inkscape:label="actions"
         transform="translate(-241.0002,-647)"
         style="fill:#000000;fill-opacity:1;display:inline"
         id="layer12-7">
        <path
           style="color:#bebebe;fill:#000000;fill-opacity:1;fill-rule:nonzero;stroke:none;stroke-width:1;marker:none;visibility:visible;display:inline;overflow:visible;enable-background:accumulate"
           id="path4387-5"
           d="m 243.93296,648.00074 c -0.50766,0.0395 -0.94152,0.51729 -0.93263,1.02692 l 0,12.94533 c -0.008,0.5398 0.48663,1.03477 1.02589,1.02691 l 9.948,0 c 0.53926,0.008 1.03373,-0.48711 1.02589,-1.02691 l 0,-9.95795 c -0.004,-0.26704 -0.1184,-0.53079 -0.31088,-0.71573 l -2.9844,-2.98738 c -0.18475,-0.19267 -0.44824,-0.30734 -0.71501,-0.31119 l -6.9636,0 c -0.0311,-9.9e-4 -0.0622,-9.9e-4 -0.0933,0 z m 1.08806,1.89744 5.80553,0 -0.0194,2.19159 2.17223,0 0,8.80987 -7.9584,0 z"
           inkscape:connector-curvature="0"
           sodipodi:nodetypes="cccccccccccccccccccc" />
      </g>
    </g>
    <g
       transform="translate(-372.61864,663.64464)"
       id="layer9"
       style="display:inline" />
    <g
       transform="translate(-372.61864,663.64464)"
       id="layer10" />
    <path
       style="fill:#000000;fill-opacity:1;stroke:none"
       d="m 23.160699,1020.0926 c -1.694192,0 -3.065823,1.3716 -3.065823,3.0658 0,1.6942 1.371631,3.0688 3.065823,3.0688 1.694193,0 3.068792,-1.3746 3.068792,-3.0688 0,-1.6942 -1.374599,-3.0658 -3.068792,-3.0658 z m -1.798539,6.188 c -1.816781,-10e-5 -3.632144,0.01 -5.449034,0.036 -0.703139,0 -0.688549,0.6708 -0.688549,0.6708 l 0,0.3293 c 0,0 0.144423,0.3263 0.495636,0.4453 l 4.368725,0.8369 0,3.1905 -2.095325,6.0248 c -0.07227,0.307 0.243366,0.3176 0.243366,0.3176 l 0.860687,0.012 c 0,0 0.427583,-0.01 0.537187,-0.3354 l 3.276544,-5.4193 c 0.317855,-0.6657 0.34083,-0.7616 0.676676,0 l 3.128152,5.4252 c 0,0 0.145759,0.3236 0.528284,0.3236 l 0.795394,-0.01 c 0,0 0.444124,-0.095 0.237429,-0.4363 l -2.044872,-5.9031 0,-3.1904 4.508216,-0.8726 c 0,0 0.356147,-0.095 0.356147,-0.4363 l 0,-0.3146 c 0,-0.6528 -0.649967,-0.6411 -0.649967,-0.6411 -3.028085,-0.025 -6.056726,-0.053 -9.084696,-0.053 z"
       id="rect2992"
       inkscape:connector-curvature="0" />
    <g
       transform="translate(-372.61864,663.64464)"
       id="layer12" />
    <g
       transform="translate(-372.61864,663.64464)"
       id="layer13" />
    <g
       transform="translate(-372.61864,663.64464)"
       id="layer14" />
    <g
       transform="translate(-372.61864,663.64464)"
       id="layer15" />
  </g>
</svg>
