<?xml version="1.0" encoding="UTF-8" standalone="no"?>
<!-- Generator: Adobe Illustrator 9.0, SVG Export Plug-In  -->

<svg
   xmlns:dc="http://purl.org/dc/elements/1.1/"
   xmlns:cc="http://creativecommons.org/ns#"
   xmlns:rdf="http://www.w3.org/1999/02/22-rdf-syntax-ns#"
   xmlns:svg="http://www.w3.org/2000/svg"
   xmlns="http://www.w3.org/2000/svg"
   xmlns:sodipodi="http://sodipodi.sourceforge.net/DTD/sodipodi-0.dtd"
   xmlns:inkscape="http://www.inkscape.org/namespaces/inkscape"
   width="48pt"
   height="48pt"
   viewBox="0 0 48 48"
   xml:space="preserve"
   id="svg3556"
   version="1.1"
   inkscape:version="0.48.3.1 r9886"
   sodipodi:docname="tool-check-spelling.svg"><metadata
   id="metadata3584"><rdf:RDF><cc:Work
       rdf:about=""><dc:format>image/svg+xml</dc:format><dc:type
         rdf:resource="http://purl.org/dc/dcmitype/StillImage" /></cc:Work></rdf:RDF></metadata><defs
   id="defs3582" /><sodipodi:namedview
   pagecolor="#ffffff"
   bordercolor="#666666"
   borderopacity="1"
   objecttolerance="10"
   gridtolerance="10"
   guidetolerance="10"
   inkscape:pageopacity="0"
   inkscape:pageshadow="2"
   inkscape:window-width="640"
   inkscape:window-height="480"
   id="namedview3580" />
	<g
   id="Layer_x0020_3"
   style="fill-rule:nonzero;clip-rule:nonzero;stroke:#FFFFFF;stroke-width:6.6871;stroke-linejoin:round;stroke-miterlimit:4;">
		<g
   id="g3559">
			<path
   style="fill-rule:evenodd;clip-rule:evenodd;"
   d="M21.8,30.2c-2.8-2.8-6.5-6.5-6.5-6.5l-5.9,5.9l12.4,12.4l21.5-21.5l-5.9-5.9c0,0-11.5,11.5-15.7,15.7z"
   id="path3561" />
			<path
   style="fill-rule:evenodd;clip-rule:evenodd;stroke:none;"
   d="M21.8,30.2c-2.8-2.8-6.5-6.5-6.5-6.5l-5.9,5.9l12.4,12.4l21.5-21.5l-5.9-5.9c0,0-11.5,11.5-15.7,15.7z"
   id="path3563" />
			<g
   id="g3565">
				<path
   d="M9.2,17.2l-1,3.8H4.6L9.2,6.2h4.4l4.6,14.9h-3.6l-1.1-3.8H9.2z M12.9,14.7L12,11.6c-0.2-0.9-0.5-2-0.7-2.9h-0.1c-0.2,0.9-0.4,2-0.7,2.9l-0.9,3.2h3.3z"
   id="path3567" />
				<path
   d="M20.2,6.4c0.9-0.2,2.6-0.3,4.3-0.3c2,0,3.3,0.2,4.4,0.8c1,0.5,1.8,1.6,1.8,2.9c0,1.3-0.8,2.5-2.4,3.2v0c1.7,0.4,3,1.7,3,3.7c0,1.4-0.6,2.4-1.5,3.2c-1.1,0.9-2.9,1.3-5.8,1.3c-1.7,0-2.9-0.1-3.6-0.2V6.4z M23.5,12.1h1.1c1.8,0,2.7-0.7,2.7-1.8      c0-1.1-0.9-1.7-2.4-1.7c-0.7,0-1.2,0-1.4,0.1v3.4z M23.5,18.7c0.3,0.1,0.7,0.1,1.3,0.1c1.5,0,2.9-0.6,2.9-2.2c0-1.5-1.3-2.1-3-2.1h-1.1v4.2z"
   id="path3569" />
			</g>
			<g
   style="stroke:none;"
   id="g3571">
				<path
   d="M9.2,17.2l-1,3.8H4.6L9.2,6.2h4.4l4.6,14.9h-3.6l-1.1-3.8H9.2z M12.9,14.7L12,11.6c-0.2-0.9-0.5-2-0.7-2.9h-0.1c-0.2,0.9-0.4,2-0.7,2.9l-0.9,3.2h3.3z"
   id="path3573" />
				<path
   d="M20.2,6.4c0.9-0.2,2.6-0.3,4.3-0.3c2,0,3.3,0.2,4.4,0.8c1,0.5,1.8,1.6,1.8,2.9c0,1.3-0.8,2.5-2.4,3.2v0c1.7,0.4,3,1.7,3,3.7c0,1.4-0.6,2.4-1.5,3.2c-1.1,0.9-2.9,1.3-5.8,1.3c-1.7,0-2.9-0.1-3.6-0.2V6.4z M23.5,12.1h1.1c1.8,0,2.7-0.7,2.7-1.8      c0-1.1-0.9-1.7-2.4-1.7c-0.7,0-1.2,0-1.4,0.1v3.4z M23.5,18.7c0.3,0.1,0.7,0.1,1.3,0.1c1.5,0,2.9-0.6,2.9-2.2c0-1.5-1.3-2.1-3-2.1h-1.1v4.2z"
   id="path3575" />
			</g>
		</g>
	</g>
	<g
   id="crop_x0020_marks"
   style="fill-rule:nonzero;clip-rule:nonzero;stroke:#000000;stroke-miterlimit:4;">
		<path
   style="fill:none;stroke:none;"
   d="M48,48H0V0h48v48z"
   id="path3578" />
	</g>
</svg>