<?xml version="1.0" encoding="UTF-8" standalone="no"?>
<!-- Creator: CorelDRAW -->

<svg
   xmlns:dc="http://purl.org/dc/elements/1.1/"
   xmlns:cc="http://creativecommons.org/ns#"
   xmlns:rdf="http://www.w3.org/1999/02/22-rdf-syntax-ns#"
   xmlns:svg="http://www.w3.org/2000/svg"
   xmlns="http://www.w3.org/2000/svg"
   xmlns:xlink="http://www.w3.org/1999/xlink"
   xmlns:sodipodi="http://sodipodi.sourceforge.net/DTD/sodipodi-0.dtd"
   xmlns:inkscape="http://www.inkscape.org/namespaces/inkscape"
   xml:space="preserve"
   width="256"
   height="256"
   style="fill-rule:evenodd"
   viewBox="0 0 72.24889 72.248891"
   id="svg2"
   version="1.1"
   inkscape:version="0.48.3.1 r9886"
   sodipodi:docname="huayra-motion.svg"
   inkscape:export-filename="/home/alumno/.icons/huayra-dev/22x22/all/start-here.png"
   inkscape:export-xdpi="123"
   inkscape:export-ydpi="123"><metadata
   id="metadata336"><rdf:RDF><cc:Work
       rdf:about=""><dc:format>image/svg+xml</dc:format><dc:type
         rdf:resource="http://purl.org/dc/dcmitype/StillImage" /><dc:title /></cc:Work></rdf:RDF></metadata><sodipodi:namedview
   pagecolor="#9b9b9b"
   bordercolor="#666666"
   borderopacity="1"
   objecttolerance="10"
   gridtolerance="10"
   guidetolerance="10"
   inkscape:pageopacity="0"
   inkscape:pageshadow="2"
   inkscape:window-width="1913"
   inkscape:window-height="1026"
   id="namedview334"
   showgrid="false"
   inkscape:zoom="0.86628345"
   inkscape:cx="63.309499"
   inkscape:cy="57.969788"
   inkscape:window-x="0"
   inkscape:window-y="26"
   inkscape:window-maximized="1"
   inkscape:current-layer="svg2" />
 <defs
   id="defs4"><linearGradient
     id="linearGradient5245"><stop
       id="stop5247"
       offset="0"
       style="stop-color:#e1f2f7;stop-opacity:1;" /><stop
       id="stop5249"
       offset="1"
       style="stop-color:#287d91;stop-opacity:1;" /></linearGradient><linearGradient
     id="linearGradient5154"><stop
       style="stop-color:#f0f8fb;stop-opacity:1;"
       offset="0"
       id="stop5156" /><stop
       style="stop-color:#c4e5ef;stop-opacity:0;"
       offset="1"
       id="stop5158" /></linearGradient><linearGradient
     id="linearGradient5063"><stop
       style="stop-color:#d8eef4;stop-opacity:1;"
       offset="0"
       id="stop5065" /><stop
       style="stop-color:#e1f2f7;stop-opacity:0;"
       offset="1"
       id="stop5067" /></linearGradient><linearGradient
     id="linearGradient4985"><stop
       style="stop-color:#e9f6f9;stop-opacity:1;"
       offset="0"
       id="stop4987" /><stop
       style="stop-color:#6ac2d6;stop-opacity:0;"
       offset="1"
       id="stop4989" /></linearGradient><linearGradient
     id="linearGradient4975"><stop
       style="stop-color:#73c5d9;stop-opacity:1;"
       offset="0"
       id="stop4977" /><stop
       style="stop-color:#236e80;stop-opacity:1;"
       offset="1"
       id="stop4979" /></linearGradient><inkscape:path-effect
     effect="skeletal"
     id="path-effect3279"
     is_visible="true"
     pattern="M 0,5 C 0,2.24 2.24,0 5,0 7.76,0 10,2.24 10,5 10,7.76 7.76,10 5,10 2.24,10 0,7.76 0,5 z"
     copytype="single_stretched"
     prop_scale="1"
     scale_y_rel="false"
     spacing="0"
     normal_offset="0"
     tang_offset="0"
     prop_units="false"
     vertical_pattern="false"
     fuse_tolerance="0" /><inkscape:path-effect
     effect="skeletal"
     id="path-effect3245"
     is_visible="true"
     pattern="M 0,5 C 0,2.24 2.24,0 5,0 7.76,0 10,2.24 10,5 10,7.76 7.76,10 5,10 2.24,10 0,7.76 0,5 z"
     copytype="single"
     prop_scale="0.07"
     scale_y_rel="true"
     spacing="0.3"
     normal_offset="0"
     tang_offset="0"
     prop_units="false"
     vertical_pattern="false"
     fuse_tolerance="0" /><style
     type="text/css"
     id="style6">
   
    .fil0 {fill:#99AE6A}
    .fil4 {fill:#73A848}
    .fil8 {fill:#6F448A;fill-rule:nonzero}
    .fil1 {fill:#99AE6A;fill-rule:nonzero}
    .fil3 {fill:#ABA0C0;fill-rule:nonzero}
    .fil2 {fill:#BA8FBA;fill-rule:nonzero}
    .fil5 {fill:#73A848;fill-rule:nonzero}
    .fil6 {fill:#98227A;fill-rule:nonzero}
    .fil9 {fill:#B299BF;fill-rule:nonzero}
    .fil7 {fill:#D189B2;fill-rule:nonzero}
   
  </style><linearGradient
     inkscape:collect="always"
     xlink:href="#linearGradient4975"
     id="linearGradient4981"
     x1="150.12842"
     y1="343.41885"
     x2="141.27963"
     y2="313.30615"
     gradientUnits="userSpaceOnUse" /><linearGradient
     inkscape:collect="always"
     xlink:href="#linearGradient4985"
     id="linearGradient4991"
     x1="209.90964"
     y1="125.00735"
     x2="228.37466"
     y2="159.5919"
     gradientUnits="userSpaceOnUse" /><linearGradient
     inkscape:collect="always"
     xlink:href="#linearGradient5154"
     id="linearGradient5160"
     x1="40.254642"
     y1="37.115364"
     x2="61.34063"
     y2="66.417572"
     gradientUnits="userSpaceOnUse"
     gradientTransform="matrix(1.2321225,0,0,1.2321225,-30.173165,-13.039225)" /><linearGradient
     inkscape:collect="always"
     xlink:href="#linearGradient4975"
     id="linearGradient5257"
     x1="59.446133"
     y1="38.337811"
     x2="49.868595"
     y2="31.196501"
     gradientUnits="userSpaceOnUse"
     gradientTransform="matrix(1.215279,0.20303425,-0.20303425,1.215279,-16.316172,-22.675501)" /><linearGradient
     inkscape:collect="always"
     xlink:href="#linearGradient4975"
     id="linearGradient5265"
     x1="53.646587"
     y1="47.038986"
     x2="44.327694"
     y2="40.473587"
     gradientUnits="userSpaceOnUse"
     gradientTransform="matrix(1.215211,0.20344032,-0.20344032,1.215211,-18.292077,-21.197487)" /><linearGradient
     inkscape:collect="always"
     xlink:href="#linearGradient4975"
     id="linearGradient5273"
     x1="49.176533"
     y1="58.161556"
     x2="42.248756"
     y2="53.55426"
     gradientUnits="userSpaceOnUse"
     gradientTransform="matrix(1.2321225,0,0,1.2321225,-29.773943,-11.000299)" /><linearGradient
     inkscape:collect="always"
     xlink:href="#linearGradient4975"
     id="linearGradient5281"
     x1="47.042896"
     y1="66.222923"
     x2="35.628872"
     y2="57.929787"
     gradientUnits="userSpaceOnUse"
     gradientTransform="matrix(1.2321225,0,0,1.2321225,-29.722482,-12.801421)" /><linearGradient
     inkscape:collect="always"
     xlink:href="#linearGradient4975"
     id="linearGradient5289"
     x1="34.375187"
     y1="50.968788"
     x2="42.396248"
     y2="50.968788"
     gradientUnits="userSpaceOnUse"
     gradientTransform="matrix(1.2636709,0,0,1.2636709,-30.105232,-14.844882)" /><linearGradient
     inkscape:collect="always"
     xlink:href="#linearGradient4975"
     id="linearGradient5297"
     x1="39.856121"
     y1="34.569763"
     x2="41.74371"
     y2="34.569763"
     gradientUnits="userSpaceOnUse" /><linearGradient
     inkscape:collect="always"
     xlink:href="#linearGradient4975"
     id="linearGradient5305"
     x1="39.856121"
     y1="34.569763"
     x2="41.74371"
     y2="34.569763"
     gradientUnits="userSpaceOnUse" /></defs>
 
<g
   id="g3050"><path
     sodipodi:nodetypes="csscczccc"
     inkscape:connector-curvature="0"
     id="path5408-0-1-7-3"
     d="m 23.327825,44.487108 c -3.184879,-0.819596 -6.609597,1.203007 -7.429267,4.388176 -0.819595,3.184878 1.275737,6.328271 4.460587,7.147859 0.188212,0.04843 0.376709,0.114383 0.562756,0.14482 0.02328,0.0038 0.04867,-0.283405 0.07224,-0.280729 0.385751,-0.798408 0.57286,-2.581395 1.825551,-3.984376 1.25266,-1.402986 2.398627,-2.551223 3.897969,-2.731575 0.172142,-2.786488 -0.602895,-3.96615 -3.389927,-4.683363 z"
     style="fill:#5999a8;fill-opacity:1;fill-rule:evenodd;stroke:none" /><path
     inkscape:connector-curvature="0"
     id="path5408-06-0-4"
     d="m 28.481031,51.73669 c -1.281419,0.575218 -2.634972,1.735215 -3.650233,3.485981 -2.030049,3.502042 -2.081087,7.85588 -0.200865,9.602434 1.88019,1.746409 4.980358,0.414026 7.0105,-3.088037 1.411039,-2.434371 1.938454,-5.340557 1.473889,-7.407019 -1.720451,-0.137203 -3.271782,-1.253128 -4.371617,-2.647656 -0.09188,0.03488 -0.170709,0.01323 -0.261383,0.05402 z"
     style="fill:#5999a8;fill-opacity:1;fill-rule:evenodd;stroke:none" /><path
     inkscape:connector-curvature="0"
     id="path5408-06-7-1-5"
     d="m 35.415568,37.149485 c -0.825444,0.269223 -1.549517,0.68934 -2.306751,1.293722 -3.028297,2.419269 -3.991014,6.785986 -2.146912,9.552742 1.844263,2.766643 5.78724,2.877802 8.815537,0.458537 2.603572,-2.080112 3.459303,-5.329424 2.537571,-8.000261 -2.086153,-0.105703 -4.093662,-1.467802 -5.241769,-3.45484 -0.54563,0.03309 -1.107867,-0.03079 -1.657915,0.149504 z"
     style="fill:#59bad2;fill-opacity:1;fill-rule:evenodd;stroke:none" /><path
     inkscape:connector-curvature="0"
     id="path5428-82-1-7"
     d="m 41.354246,24.212119 c -2.960803,3.142654 -2.624764,8.315435 0.330428,11.088758 3.148448,2.954669 8.127952,2.812239 11.088755,-0.330412 1.328497,-1.410109 1.819423,-3.195132 1.906532,-4.989632 -2.317605,0.156453 -4.942575,-0.665083 -7.067364,-2.666915 -1.559946,-1.469684 -2.398751,-3.29185 -2.822428,-5.054233 -1.288188,0.377693 -2.448871,0.904467 -3.435893,1.952108 z"
     style="fill:#59bad2;fill-opacity:1;fill-rule:evenodd;stroke:none"
     sodipodi:nodetypes="csscsccc" /><path
     transform="matrix(2.3034733,0,0,2.3034733,-87.985326,-44.772225)"
     d="m 41.743708,34.569763 a 0.94379294,0.94379294 0 1 1 -1.887586,0 0.94379294,0.94379294 0 1 1 1.887586,0 z"
     sodipodi:ry="0.94379294"
     sodipodi:rx="0.94379294"
     sodipodi:cy="34.569763"
     sodipodi:cx="40.799915"
     id="path5428-8-1-8-5-0-2"
     style="fill:#5999a8;fill-opacity:1;fill-rule:evenodd;stroke:none"
     sodipodi:type="arc" /><path
     transform="matrix(4.3392341,0,0,4.3392341,-162.77842,-110.27356)"
     d="m 41.743708,34.569763 a 0.94379294,0.94379294 0 1 1 -1.887586,0 0.94379294,0.94379294 0 1 1 1.887586,0 z"
     sodipodi:ry="0.94379294"
     sodipodi:rx="0.94379294"
     sodipodi:cy="34.569763"
     sodipodi:cx="40.799915"
     id="path5428-8-1-6-2-8"
     style="fill:#5999a8;fill-opacity:1;fill-rule:evenodd;stroke:none"
     sodipodi:type="arc" /><path
     transform="matrix(0.58873455,0,0,0.58873455,-29.0013,-176.1307)"
     d="m 168.96444,326.60593 a 19.998207,19.998207 0 1 1 -39.99641,0 19.998207,19.998207 0 1 1 39.99641,0 z"
     sodipodi:ry="19.998207"
     sodipodi:rx="19.998207"
     sodipodi:cy="326.60593"
     sodipodi:cx="148.96623"
     id="path4457-3-3"
     style="fill:#59bad2;fill-opacity:1;fill-rule:evenodd;stroke:none"
     sodipodi:type="arc" /><path
     sodipodi:nodetypes="scccczccs"
     inkscape:connector-curvature="0"
     id="path5408-0-1-4-4-4"
     d="m 20.845387,63.225818 c -3.939512,0.423991 -6.632377,1.371722 -6.682263,2.614972 -0.06593,1.657669 4.705103,3.16247 10.74975,3.195742 9.387584,0.137304 15.46584,-1.352323 15.532325,-3.009655 0.03928,-1.017926 -3.433514,-2.435256 -8.095929,-2.406042 -1.787106,2.279768 -4.998307,3.131743 -6.835534,2.737034 -1.837255,-0.394709 -2.749949,-2.049564 -3.215785,-3.132051 -0.46187,0.03167 -1.01693,-0.04631 -1.452741,0 z"
     style="fill:#5999a8;fill-opacity:1;fill-rule:evenodd;stroke:none" /></g></svg>