<?xml version="1.0" encoding="UTF-8" standalone="no"?>
<!-- Created with Inkscape (http://www.inkscape.org/) -->

<svg
   xmlns:dc="http://purl.org/dc/elements/1.1/"
   xmlns:cc="http://creativecommons.org/ns#"
   xmlns:rdf="http://www.w3.org/1999/02/22-rdf-syntax-ns#"
   xmlns:svg="http://www.w3.org/2000/svg"
   xmlns="http://www.w3.org/2000/svg"
   xmlns:sodipodi="http://sodipodi.sourceforge.net/DTD/sodipodi-0.dtd"
   xmlns:inkscape="http://www.inkscape.org/namespaces/inkscape"
   height="16"
   width="16"
   id="svg7384"
   version="1.1"
   inkscape:version="0.48.5 r10040"
   sodipodi:docname="input-keyboard-symbolic.svg">
  <metadata
     id="metadata90">
    <rdf:RDF>
      <cc:Work
         rdf:about="">
        <dc:format>image/svg+xml</dc:format>
        <dc:type
           rdf:resource="http://purl.org/dc/dcmitype/StillImage" />
        <dc:title>Gnome Symbolic Icon Theme</dc:title>
      </cc:Work>
    </rdf:RDF>
  </metadata>
  <sodipodi:namedview
     guidetolerance="10"
     inkscape:window-height="1031"
     inkscape:snap-nodes="true"
     inkscape:guide-bbox="true"
     inkscape:window-width="1914"
     inkscape:zoom="22.134699"
     inkscape:snap-global="false"
     inkscape:snap-bbox-midpoints="false"
     borderopacity="1"
     showguides="true"
     inkscape:snap-to-guides="true"
     inkscape:window-x="0"
     inkscape:window-y="25"
     inkscape:window-maximized="1"
     inkscape:object-nodes="false"
     inkscape:snap-others="false"
     objecttolerance="10"
     id="namedview88"
     showgrid="true"
     showborder="true"
     inkscape:snap-bbox="true"
     inkscape:current-layer="layer10"
     inkscape:snap-grids="true"
     inkscape:object-paths="false"
     inkscape:pageopacity="1"
     bordercolor="#666666"
     gridtolerance="10"
     inkscape:bbox-paths="false"
     inkscape:cx="17.603081"
     inkscape:cy="2.1208531"
     pagecolor="#555753"
     inkscape:pageshadow="2"
     borderlayer="true">
    <inkscape:grid
       snapvisiblegridlinesonly="true"
       visible="true"
       enabled="true"
       id="grid4866"
       spacingx="1px"
       spacingy="1px"
       type="xygrid"
       empspacing="2" />
  </sodipodi:namedview>
  <title
     id="title9167">Gnome Symbolic Icon Theme</title>
  <defs
     id="defs7386" />
  <g
     inkscape:label="status"
     style="display:inline"
     transform="translate(-121,-448)"
     id="layer9"
     inkscape:groupmode="layer" />
  <g
     inkscape:label="devices"
     transform="translate(-121,-448)"
     id="layer10"
     inkscape:groupmode="layer">
    <path
       style="color:#bebebe;fill:#ffffff;fill-opacity:1;fill-rule:nonzero;stroke:none;stroke-width:3;marker:none;visibility:visible;display:inline;overflow:visible;enable-background:accumulate"
       d="m 122.06114,449.85838 c -0.54118,0 -0.97687,0.45182 -0.97687,1.01306 l 0,10.13056 c 0,0.56124 0.43569,1.01306 0.97687,1.01306 l 13.67627,0 c 0.54119,0 0.97688,-0.45182 0.97688,-1.01306 l 0,-10.13056 c 0,-0.56124 -0.43569,-1.01306 -0.97688,-1.01306 l -13.67627,0 z"
       id="path3033"
       inkscape:connector-curvature="0" />
    <path
       d="m 122.82094,450.72671 c -0.48106,0 -0.86834,0.38728 -0.86834,0.86834 l 0,8.68334 c 0,0.48106 0.38728,0.86834 0.86834,0.86834 l 12.15667,0 c 0.48106,0 0.86834,-0.38728 0.86834,-0.86834 l 0,-8.68334 c 0,-0.48106 -0.38728,-0.86834 -0.86834,-0.86834 l -12.15667,0 z m 0.86833,1.73667 1.73667,0 0,1.73667 -1.73667,0 0,-1.73667 z m 2.60501,0 1.73666,0 0,1.73667 -1.73666,0 0,-1.73667 z m 2.605,0 1.73667,0 0,1.73667 -1.73667,0 0,-1.73667 z m 2.605,0 1.73667,0 0,1.73667 -1.73667,0 0,-1.73667 z m -6.94667,2.63214 1.73667,0 0,1.73667 -1.73667,0 0,-1.73667 z m 2.605,0 1.73667,0 0,1.73667 -1.73667,0 0,-1.73667 z m 2.605,0 1.73667,0 0,1.73667 -1.73667,0 0,-1.73667 z m 2.60501,0 1.73666,0 0,1.73667 -1.73666,0 0,-1.73667 z m -8.68335,2.605 1.73667,0 0,1.73667 -1.73667,0 0,-1.73667 z m 2.60501,0 5.21,0 0,1.73667 -5.21,0 0,-1.73667 z m 6.07834,0 2.60499,0 0,1.73667 -2.60499,0 0,-1.73667 z"
       style="color:#bebebe;fill:#000000;fill-opacity:1;fill-rule:nonzero;stroke:none;stroke-width:3;marker:none;visibility:visible;display:inline;overflow:visible;enable-background:accumulate"
       id="rect4890"
       inkscape:connector-curvature="0" />
  </g>
  <g
     inkscape:label="apps"
     transform="translate(-121,-448)"
     id="layer11"
     inkscape:groupmode="layer" />
  <g
     inkscape:label="places"
     transform="translate(-121,-448)"
     id="layer13"
     inkscape:groupmode="layer" />
  <g
     inkscape:label="mimetypes"
     transform="translate(-121,-448)"
     id="layer14"
     inkscape:groupmode="layer" />
  <g
     inkscape:label="emblems"
     style="display:inline"
     transform="translate(-121,-448)"
     id="layer15"
     inkscape:groupmode="layer" />
  <g
     inkscape:label="emotes"
     transform="translate(-121,-448)"
     style="display:inline"
     id="g71291"
     inkscape:groupmode="layer" />
  <g
     inkscape:label="categories"
     style="display:inline"
     transform="translate(-121,-448)"
     id="g4953"
     inkscape:groupmode="layer" />
  <g
     inkscape:label="actions"
     transform="translate(-121,-448)"
     style="display:inline"
     id="layer12"
     inkscape:groupmode="layer" />
</svg>
