<?xml version="1.0" encoding="UTF-8" standalone="no"?>
<!-- Created with Inkscape (http://www.inkscape.org/) -->

<svg
   xmlns:dc="http://purl.org/dc/elements/1.1/"
   xmlns:cc="http://creativecommons.org/ns#"
   xmlns:rdf="http://www.w3.org/1999/02/22-rdf-syntax-ns#"
   xmlns:svg="http://www.w3.org/2000/svg"
   xmlns="http://www.w3.org/2000/svg"
   xmlns:sodipodi="http://sodipodi.sourceforge.net/DTD/sodipodi-0.dtd"
   xmlns:inkscape="http://www.inkscape.org/namespaces/inkscape"
   id="svg7384"
   sodipodi:docname="phone-symbolic.svg"
   version="1.1"
   inkscape:version="0.48.5 r10040"
   height="16"
   width="16">
  <metadata
     id="metadata90">
    <rdf:RDF>
      <cc:Work
         rdf:about="">
        <dc:format>image/svg+xml</dc:format>
        <dc:type
           rdf:resource="http://purl.org/dc/dcmitype/StillImage" />
        <dc:title>Gnome Symbolic Icon Theme</dc:title>
      </cc:Work>
    </rdf:RDF>
  </metadata>
  <sodipodi:namedview
     inkscape:cy="6.8007365"
     pagecolor="#555753"
     borderopacity="1"
     showborder="false"
     inkscape:bbox-paths="false"
     guidetolerance="10"
     inkscape:object-paths="true"
     inkscape:window-width="1914"
     showguides="true"
     inkscape:object-nodes="true"
     inkscape:snap-bbox="true"
     inkscape:pageshadow="2"
     inkscape:guide-bbox="true"
     inkscape:snap-nodes="false"
     bordercolor="#666666"
     objecttolerance="10"
     id="namedview88"
     showgrid="false"
     inkscape:window-maximized="1"
     inkscape:window-x="0"
     inkscape:snap-global="true"
     inkscape:window-y="25"
     gridtolerance="10"
     inkscape:window-height="1031"
     inkscape:snap-to-guides="true"
     inkscape:current-layer="layer10"
     inkscape:snap-bbox-midpoints="false"
     inkscape:zoom="42.74243"
     inkscape:cx="13.206081"
     inkscape:snap-grids="true"
     inkscape:pageopacity="1">
    <inkscape:grid
       spacingx="1px"
       spacingy="1px"
       id="grid4866"
       empspacing="2"
       enabled="true"
       type="xygrid"
       snapvisiblegridlinesonly="true"
       visible="true" />
  </sodipodi:namedview>
  <title
     id="title9167">Gnome Symbolic Icon Theme</title>
  <defs
     id="defs7386" />
  <g
     inkscape:label="status"
     transform="translate(-221.0002,-448)"
     inkscape:groupmode="layer"
     id="layer9"
     style="display:inline" />
  <g
     inkscape:label="devices"
     transform="translate(-221.0002,-448)"
     inkscape:groupmode="layer"
     id="layer10">
    <g
       inkscape:label="accessories-calculator"
       transform="translate(173.0002,50)"
       id="g5214" />
    <path
       style="color:#000000;fill:#ffffff;fill-opacity:1;fill-rule:nonzero;stroke:none;stroke-width:1px;marker:none;visibility:visible;display:inline;overflow:visible;enable-background:accumulate"
       d="m 225.1278,449.39613 0.0409,12.35947 c 0,0.62424 0.58202,1.12679 1.30498,1.12679 l 5.17912,0 c 0.72296,0 1.30498,-0.50255 1.30498,-1.12679 l 0,-9.01431 c 0,-0.62425 -0.58202,-1.48317 -1.30498,-1.48317 l -2.95306,0 0,-1.86199 c 0,-0.64374 -0.81396,-1.25613 -1.55785,-1.20655 -1.09214,-0.0732 -2.04602,0.35638 -2.01409,1.20655 z"
       id="path3019"
       inkscape:connector-curvature="0"
       sodipodi:nodetypes="ccssssscscc" />
    <path
       inkscape:connector-curvature="0"
       d="m 227.03145,449 c -0.57131,0 -1.03125,0.45994 -1.03125,1.03125 L 226.03145,461 c 0,0.554 0.446,1 1,1 l 3.96875,0 c 0.554,0 1,-0.446 1,-1 l 0,-8 c 0,-0.554 -0.446,-1 -1,-1 l -2.96875,0 0,-1.96875 c 0,-0.57131 -0.42869,-1.03125 -1,-1.03125 z m 0,4 3.96875,0 0,3.03125 -3.96875,0 0,-3.03125 z m -0.0312,4 1,0 0,1 1,0 0,-1 1,0 0,1 1,0 0,1 -1,0 0,1 1,0 0,1 -1,0 0,-1 -1,0 0,1 -1,0 0,-1 -1,0 0,-1 1,0 0,-1 -1,0 0,-1 z m 1,2 0,1 1,0 0,-1 -1,0 z m 1,0 1,0 0,-1 -1,0 0,1 z"
       id="rect5222"
       style="color:#000000;fill:#000000;fill-opacity:1;fill-rule:nonzero;stroke:none;stroke-width:1px;marker:none;visibility:visible;display:inline;overflow:visible;enable-background:accumulate" />
  </g>
  <g
     inkscape:label="apps"
     transform="translate(-221.0002,-448)"
     inkscape:groupmode="layer"
     id="layer11" />
  <g
     inkscape:label="actions"
     transform="translate(-221.0002,-448)"
     inkscape:groupmode="layer"
     id="layer12" />
  <g
     inkscape:label="places"
     transform="translate(-221.0002,-448)"
     inkscape:groupmode="layer"
     id="layer13" />
  <g
     inkscape:label="mimetypes"
     transform="translate(-221.0002,-448)"
     inkscape:groupmode="layer"
     id="layer14" />
  <g
     inkscape:label="emblems"
     transform="translate(-221.0002,-448)"
     inkscape:groupmode="layer"
     id="layer15"
     style="display:inline" />
  <g
     inkscape:label="categories"
     transform="translate(-221.0002,-448)"
     inkscape:groupmode="layer"
     id="g4953"
     style="display:inline" />
</svg>
