<?xml version="1.0" encoding="UTF-8" standalone="no"?>
<!-- Created with Inkscape (http://www.inkscape.org/) -->

<svg
   xmlns:dc="http://purl.org/dc/elements/1.1/"
   xmlns:cc="http://creativecommons.org/ns#"
   xmlns:rdf="http://www.w3.org/1999/02/22-rdf-syntax-ns#"
   xmlns:svg="http://www.w3.org/2000/svg"
   xmlns="http://www.w3.org/2000/svg"
   xmlns:sodipodi="http://sodipodi.sourceforge.net/DTD/sodipodi-0.dtd"
   xmlns:inkscape="http://www.inkscape.org/namespaces/inkscape"
   id="svg7384"
   sodipodi:docname="printer-symbolic.svg"
   version="1.1"
   inkscape:version="0.48.5 r10040"
   height="16"
   width="16">
  <metadata
     id="metadata90">
    <rdf:RDF>
      <cc:Work
         rdf:about="">
        <dc:format>image/svg+xml</dc:format>
        <dc:type
           rdf:resource="http://purl.org/dc/dcmitype/StillImage" />
        <dc:title>Gnome Symbolic Icon Theme</dc:title>
      </cc:Work>
    </rdf:RDF>
  </metadata>
  <sodipodi:namedview
     inkscape:cy="-15.748889"
     pagecolor="#555753"
     borderopacity="1"
     showborder="false"
     inkscape:bbox-paths="false"
     guidetolerance="10"
     inkscape:window-width="1914"
     showguides="true"
     inkscape:snap-bbox="true"
     inkscape:pageshadow="2"
     inkscape:guide-bbox="true"
     inkscape:snap-nodes="true"
     bordercolor="#666666"
     objecttolerance="10"
     id="namedview88"
     showgrid="false"
     inkscape:window-maximized="1"
     inkscape:window-x="0"
     inkscape:window-y="25"
     gridtolerance="10"
     inkscape:window-height="1031"
     inkscape:current-layer="layer10"
     inkscape:zoom="4.1914683"
     inkscape:cx="49.639057"
     inkscape:pageopacity="1">
    <inkscape:grid
       spacingx="1px"
       spacingy="1px"
       id="grid4866"
       empspacing="2"
       enabled="true"
       type="xygrid"
       snapvisiblegridlinesonly="true"
       visible="true" />
    <sodipodi:guide
       orientation="0,1"
       position="14.911243,13.449941"
       id="guide3792" />
    <sodipodi:guide
       orientation="0,1"
       position="14.106036,4.9505325"
       id="guide3794" />
    <sodipodi:guide
       orientation="1,0"
       position="13.569231,1.4911243"
       id="guide3796" />
    <sodipodi:guide
       orientation="1,0"
       position="2.7734911,3.3997633"
       id="guide3798" />
  </sodipodi:namedview>
  <title
     id="title9167">Gnome Symbolic Icon Theme</title>
  <defs
     id="defs7386" />
  <g
     inkscape:label="status"
     transform="translate(-142,-338)"
     inkscape:groupmode="layer"
     id="layer9"
     style="display:inline" />
  <g
     inkscape:label="devices"
     transform="translate(-142,-338)"
     inkscape:groupmode="layer"
     id="layer10">
    <g
       inkscape:label="accessories-calculator"
       transform="translate(94,-60)"
       id="g10819" />
    <path
       style="fill:#ffffff;fill-opacity:1;stroke:none"
       d="m 2.7436686,2.550059 0.014912,-3.47431936 10.8106509,-0.059645 0,3.56378703 1.371306,-0.015853 c 1.257681,-0.013969 1.207811,0.7725591 1.201142,1.3582185 l -0.03065,5.8445771 c 0.01249,0.5370461 -0.07429,1.2826441 -1.020007,1.3005471 l -1.521788,-0.0179 0,4.354082 -10.8106511,0 0,-4.354082 -1.7442615,0.009 c -0.91808456,-0.009 -1.14649616,-0.282922 -1.13755577,-1.5591637 L -0.0831176,3.7721988 C -0.21209648,2.3271332 0.71013084,2.550059 1.4314793,2.550059 z"
       id="path3022"
       inkscape:connector-curvature="0"
       transform="translate(142,338)"
       sodipodi:nodetypes="ccccccccccccccccc" />
    <g
       inkscape:label="Layer 1"
       transform="translate(142,338)"
       id="layer1-6"
       style="fill:#000000;fill-opacity:1">
      <path
         inkscape:connector-curvature="0"
         d="M 2,4 C 1.5,4 1,4.5 1,5 l 0,4 c 0,0.5 0.5,1 1,1 l 1,0 0,-2 10,0 0,2 1,0 c 0.5,0 1,-0.5 1,-1 L 15,5 C 15,4.5 14.5,4 14,4 L 2,4 z"
         id="path3520"
         sodipodi:nodetypes="ccccccccccccc"
         style="fill:#000000;fill-opacity:1;stroke:none" />
      <path
         inkscape:connector-curvature="0"
         d="M 4,1 4,3 12,3 12,1 4,1 z"
         id="path4804"
         sodipodi:nodetypes="ccccc"
         style="fill:#000000;fill-opacity:1;stroke:none" />
      <path
         inkscape:connector-curvature="0"
         d="M 4,9.0000001 4,14 l 8,0 0,-5 -8,10e-8 z M 5,10 l 6,0 0,1 -6,0 0,-1 z m 0,2 5,0 0,1 -5,0 0,-1 z"
         id="path4806"
         sodipodi:nodetypes="ccccccccccccccc"
         style="fill:#000000;fill-opacity:1;stroke:none" />
    </g>
  </g>
  <g
     inkscape:label="apps"
     transform="translate(-142,-338)"
     inkscape:groupmode="layer"
     id="layer11" />
  <g
     inkscape:label="actions"
     transform="translate(-142,-338)"
     inkscape:groupmode="layer"
     id="layer12" />
  <g
     inkscape:label="places"
     transform="translate(-142,-338)"
     inkscape:groupmode="layer"
     id="layer13" />
  <g
     inkscape:label="mimetypes"
     transform="translate(-142,-338)"
     inkscape:groupmode="layer"
     id="layer14" />
  <g
     inkscape:label="emblems"
     transform="translate(-142,-338)"
     inkscape:groupmode="layer"
     id="layer15" />
</svg>
