<?xml version="1.0" encoding="UTF-8" standalone="no"?>
<!-- Created with Inkscape (http://www.inkscape.org/) -->

<svg
   xmlns:dc="http://purl.org/dc/elements/1.1/"
   xmlns:cc="http://creativecommons.org/ns#"
   xmlns:rdf="http://www.w3.org/1999/02/22-rdf-syntax-ns#"
   xmlns:svg="http://www.w3.org/2000/svg"
   xmlns="http://www.w3.org/2000/svg"
   xmlns:sodipodi="http://sodipodi.sourceforge.net/DTD/sodipodi-0.dtd"
   xmlns:inkscape="http://www.inkscape.org/namespaces/inkscape"
   inkscape:version="0.48.5 r10040"
   version="1.1"
   width="16"
   height="16"
   sodipodi:docname="scanner-symbolic.svg"
   id="svg7384">
  <metadata
     id="metadata90">
    <rdf:RDF>
      <cc:Work
         rdf:about="">
        <dc:format>image/svg+xml</dc:format>
        <dc:type
           rdf:resource="http://purl.org/dc/dcmitype/StillImage" />
        <dc:title>Gnome Symbolic Icon Theme</dc:title>
      </cc:Work>
    </rdf:RDF>
  </metadata>
  <sodipodi:namedview
     inkscape:window-x="0"
     inkscape:window-y="26"
     inkscape:window-maximized="0"
     pagecolor="#555753"
     showborder="false"
     inkscape:pageshadow="2"
     bordercolor="#666666"
     inkscape:snap-bbox="true"
     inkscape:current-layer="layer10"
     inkscape:snap-grids="true"
     inkscape:bbox-paths="false"
     inkscape:snap-others="false"
     inkscape:window-height="1020"
     inkscape:snap-nodes="true"
     borderopacity="1"
     showguides="true"
     inkscape:snap-global="true"
     inkscape:pageopacity="1"
     inkscape:object-paths="false"
     objecttolerance="10"
     gridtolerance="10"
     showgrid="false"
     inkscape:zoom="26.760388"
     inkscape:snap-to-guides="true"
     inkscape:object-nodes="false"
     id="namedview88"
     inkscape:snap-bbox-midpoints="false"
     inkscape:guide-bbox="true"
     inkscape:window-width="1598"
     inkscape:cx="8.9784173"
     inkscape:cy="7.5539568"
     guidetolerance="10">
    <inkscape:grid
       visible="true"
       spacingx="1px"
       spacingy="1px"
       empspacing="2"
       enabled="true"
       id="grid4866"
       snapvisiblegridlinesonly="true"
       type="xygrid" />
  </sodipodi:namedview>
  <title
     id="title9167">Gnome Symbolic Icon Theme</title>
  <defs
     id="defs7386" />
  <g
     inkscape:label="status"
     style="display:inline"
     inkscape:groupmode="layer"
     id="layer9"
     transform="translate(-281.00023,-447)" />
  <g
     inkscape:label="devices"
     inkscape:groupmode="layer"
     id="layer10"
     transform="translate(-281.00023,-447)">
    <path
       style="font-size:medium;font-style:normal;font-variant:normal;font-weight:normal;font-stretch:normal;text-indent:0;text-align:start;text-decoration:none;line-height:normal;letter-spacing:normal;word-spacing:normal;text-transform:none;direction:ltr;block-progression:tb;writing-mode:lr-tb;text-anchor:start;baseline-shift:baseline;color:#000000;fill:#ffffff;fill-opacity:1;fill-rule:nonzero;stroke:none;stroke-width:2;marker:none;visibility:visible;display:inline;overflow:visible;enable-background:accumulate;font-family:Sans;-inkscape-font-specification:Sans"
       d="m 283.40345,446.23741 c -0.65364,0 -1.19752,0.25406 -1.65961,0.71761 -0.23104,0.23179 -0.44014,0.53302 -0.56497,0.95684 -0.12484,0.42382 -0.12634,0.98775 0.0706,1.43525 l 1.12994,2.55155 c 0.0997,0.2265 0.22955,0.54508 0.42373,0.8771 0.27124,-0.093 0.55797,-0.15949 0.84746,-0.15949 l 10.8051,0 c 0.28949,0 0.57623,0.0666 0.84746,0.15949 0.19418,-0.33203 0.32402,-0.6506 0.42373,-0.8771 l 1.12994,-2.55155 c 0.19697,-0.4475 0.19546,-1.01143 0.0706,-1.43525 -0.12484,-0.42382 -0.33394,-0.72505 -0.56498,-0.95684 -0.46209,-0.46355 -1.00596,-0.71761 -1.6596,-0.71761 l -11.29945,0 z"
       id="path3042"
       inkscape:connector-curvature="0" />
    <path
       d="m 284.0002,447 c -0.57847,0 -1.0598,0.19914 -1.46875,0.5625 -0.20447,0.18168 -0.38952,0.41779 -0.5,0.75 -0.11048,0.33221 -0.11181,0.77424 0.0625,1.125 l 1,2 c 0.0882,0.17755 0.20315,0.42726 0.375,0.6875 0.24004,-0.0728 0.4938,-0.125 0.75,-0.125 l 9.5625,0 c 0.2562,0 0.50996,0.0522 0.75,0.125 0.17185,-0.26025 0.28676,-0.50995 0.375,-0.6875 l 1,-2 c 0.17431,-0.35076 0.17298,-0.79279 0.0625,-1.125 -0.11048,-0.33221 -0.29553,-0.56832 -0.5,-0.75 C 295.06,447.19914 294.57867,447 294.0002,447 l -10,0 z m 0.125,2 9.75,0 -0.78125,1.5625 c -0.1179,0.23724 -0.17682,0.37121 -0.21875,0.4375 l -7.75,0 c -0.0419,-0.0663 -0.10085,-0.20026 -0.21875,-0.4375 L 284.1252,449 z"
       inkscape:connector-curvature="0"
       style="font-size:medium;font-style:normal;font-variant:normal;font-weight:normal;font-stretch:normal;text-indent:0;text-align:start;text-decoration:none;line-height:normal;letter-spacing:normal;word-spacing:normal;text-transform:none;direction:ltr;block-progression:tb;writing-mode:lr-tb;text-anchor:start;baseline-shift:baseline;color:#000000;fill:#000000;fill-opacity:1;fill-rule:nonzero;stroke:none;stroke-width:2;marker:none;visibility:visible;display:inline;overflow:visible;enable-background:accumulate;font-family:Sans;-inkscape-font-specification:Sans"
       id="rect4640-8" />
    <path
       style="font-size:medium;font-style:normal;font-variant:normal;font-weight:normal;font-stretch:normal;text-indent:0;text-align:start;text-decoration:none;line-height:normal;letter-spacing:normal;word-spacing:normal;text-transform:none;direction:ltr;block-progression:tb;writing-mode:lr-tb;text-anchor:start;baseline-shift:baseline;color:#000000;fill:#ffffff;fill-opacity:1;fill-rule:nonzero;stroke:none;stroke-width:2;marker:none;visibility:visible;display:inline;overflow:visible;enable-background:accumulate;font-family:Sans;-inkscape-font-specification:Sans"
       d="m 284.21488,452.17049 c -0.5792,0 -1.11108,0.17112 -1.55937,0.51979 -0.44829,0.34867 -0.81681,0.92896 -0.81681,1.59649 l 0,9.76461 14.25707,0 0,-9.76461 c 0,-0.66753 -0.36853,-1.24782 -0.81682,-1.59649 -0.44829,-0.34867 -0.98017,-0.51979 -1.55936,-0.51979 z"
       id="path3019"
       inkscape:connector-curvature="0" />
    <path
       d="m 285.0002,453 c -0.4875,0 -0.93518,0.14403 -1.3125,0.4375 -0.37732,0.29347 -0.6875,0.78189 -0.6875,1.34375 l 0,8.21875 12,0 0,-8.21875 c 0,-0.56186 -0.31018,-1.05028 -0.6875,-1.34375 C 293.93538,453.14403 293.4877,453 293.0002,453 z m 0,1 8,0 0,6 -8,0 z m 7,7 1,0 0,1 -1,0 z"
       inkscape:connector-curvature="0"
       style="font-size:medium;font-style:normal;font-variant:normal;font-weight:normal;font-stretch:normal;text-indent:0;text-align:start;text-decoration:none;line-height:normal;letter-spacing:normal;word-spacing:normal;text-transform:none;direction:ltr;block-progression:tb;writing-mode:lr-tb;text-anchor:start;baseline-shift:baseline;color:#000000;fill:#000000;fill-opacity:1;fill-rule:nonzero;stroke:none;stroke-width:2;marker:none;visibility:visible;display:inline;overflow:visible;enable-background:accumulate;font-family:Sans;-inkscape-font-specification:Sans"
       sodipodi:nodetypes="sssccsssscccccccccc"
       id="rect4640" />
    <rect
       width="5.9999862"
       height="1"
       x="286.00021"
       y="458.03125"
       style="color:#000000;fill:#000000;fill-opacity:1;fill-rule:nonzero;stroke:none;stroke-width:2;marker:none;visibility:visible;display:inline;overflow:visible;enable-background:accumulate"
       rx="0"
       ry="0"
       id="rect5431" />
    <path
       d="m 286.00021,455.03125 5.99999,0 0,0.96875 -5.99999,1 z"
       inkscape:connector-curvature="0"
       style="opacity:0.34999999999999998;color:#000000;fill:#000000;fill-opacity:1;fill-rule:nonzero;stroke:none;stroke-width:2;marker:none;visibility:visible;display:inline;overflow:visible;enable-background:accumulate"
       sodipodi:nodetypes="ccccc"
       id="rect5431-4" />
  </g>
  <g
     inkscape:label="apps"
     inkscape:groupmode="layer"
     id="layer11"
     transform="translate(-281.00023,-447)" />
  <g
     inkscape:label="places"
     inkscape:groupmode="layer"
     id="layer13"
     transform="translate(-281.00023,-447)" />
  <g
     inkscape:label="mimetypes"
     inkscape:groupmode="layer"
     id="layer14"
     transform="translate(-281.00023,-447)" />
  <g
     inkscape:label="emblems"
     style="display:inline"
     inkscape:groupmode="layer"
     id="layer15"
     transform="translate(-281.00023,-447)" />
  <g
     inkscape:label="emotes"
     style="display:inline"
     inkscape:groupmode="layer"
     transform="translate(-281.00023,-447)"
     id="g71291" />
  <g
     inkscape:label="categories"
     style="display:inline"
     inkscape:groupmode="layer"
     id="g4953"
     transform="translate(-281.00023,-447)" />
  <g
     inkscape:label="actions"
     style="display:inline"
     inkscape:groupmode="layer"
     id="layer12"
     transform="translate(-281.00023,-447)" />
</svg>
