<?xml version="1.0" encoding="UTF-8" standalone="no"?>
<!-- Created with Inkscape (http://www.inkscape.org/) -->

<svg
   xmlns:dc="http://purl.org/dc/elements/1.1/"
   xmlns:cc="http://creativecommons.org/ns#"
   xmlns:rdf="http://www.w3.org/1999/02/22-rdf-syntax-ns#"
   xmlns:svg="http://www.w3.org/2000/svg"
   xmlns="http://www.w3.org/2000/svg"
   xmlns:xlink="http://www.w3.org/1999/xlink"
   xmlns:sodipodi="http://sodipodi.sourceforge.net/DTD/sodipodi-0.dtd"
   xmlns:inkscape="http://www.inkscape.org/namespaces/inkscape"
   width="256"
   height="256"
   id="svg2"
   version="1.1"
   inkscape:version="0.48.2 r9819"
   sodipodi:docname="carpeta_musica.svg">
  <defs
     id="defs4">
    <linearGradient
       id="linearGradient3929">
      <stop
         style="stop-color:#0e4474;stop-opacity:0.7368421;"
         offset="0"
         id="stop3935" />
      <stop
         id="stop3941"
         offset="0.63994336"
         style="stop-color:#8297b9;stop-opacity:0.50588235;" />
      <stop
         id="stop3933"
         offset="1"
         style="stop-color:#a3aad0;stop-opacity:0.34210527;" />
    </linearGradient>
    <linearGradient
       id="linearGradient3907">
      <stop
         style="stop-color:#f8fcfd;stop-opacity:1;"
         offset="0"
         id="stop3909" />
      <stop
         style="stop-color:#8b8ea6;stop-opacity:0.68421054;"
         offset="1"
         id="stop3911" />
    </linearGradient>
    <linearGradient
       id="linearGradient3901">
      <stop
         id="stop3903"
         offset="0"
         style="stop-color:#a4a6b0;stop-opacity:1;" />
      <stop
         id="stop3905"
         offset="1"
         style="stop-color:#bfc2cf;stop-opacity:0.20175439;" />
    </linearGradient>
    <linearGradient
       id="linearGradient3887">
      <stop
         style="stop-color:#ffffff;stop-opacity:1;"
         offset="0"
         id="stop3889" />
      <stop
         style="stop-color:#d3d6e8;stop-opacity:0.59649122;"
         offset="1"
         id="stop3891" />
    </linearGradient>
    <linearGradient
       id="linearGradient3790">
      <stop
         id="stop3792"
         offset="0"
         style="stop-color:#87758a;stop-opacity:1;" />
      <stop
         id="stop3794"
         offset="1"
         style="stop-color:#a3aad0;stop-opacity:0;" />
    </linearGradient>
    <linearGradient
       id="linearGradient3776">
      <stop
         id="stop3778"
         offset="0"
         style="stop-color:#f8fcfd;stop-opacity:1;" />
      <stop
         id="stop3780"
         offset="1"
         style="stop-color:#d3d6e8;stop-opacity:0.42477876;" />
    </linearGradient>
    <linearGradient
       id="linearGradient3760">
      <stop
         style="stop-color:#216077;stop-opacity:1;"
         offset="0"
         id="stop3762" />
      <stop
         style="stop-color:#a3aad0;stop-opacity:0;"
         offset="1"
         id="stop3764" />
    </linearGradient>
    <linearGradient
       inkscape:collect="always"
       xlink:href="#linearGradient3776-1"
       id="linearGradient3788-5"
       x1="362.64474"
       y1="318.59375"
       x2="366.68539"
       y2="451.43118"
       gradientUnits="userSpaceOnUse"
       gradientTransform="matrix(0.96411336,0,0,1.0777352,23.158763,-19.023426)" />
    <linearGradient
       id="linearGradient3776-1">
      <stop
         id="stop3778-5"
         offset="0"
         style="stop-color:#f8fcfd;stop-opacity:1;" />
      <stop
         id="stop3780-7"
         offset="1"
         style="stop-color:#d3d6e8;stop-opacity:0;" />
    </linearGradient>
    <linearGradient
       inkscape:collect="always"
       xlink:href="#linearGradient3776-10"
       id="linearGradient4608-1"
       gradientUnits="userSpaceOnUse"
       x1="337.76038"
       y1="408.47336"
       x2="532.66034"
       y2="394.01675" />
    <linearGradient
       id="linearGradient3776-10">
      <stop
         id="stop3778-0"
         offset="0"
         style="stop-color:#f8fcfd;stop-opacity:1;" />
      <stop
         id="stop3780-1"
         offset="1"
         style="stop-color:#d3d6e8;stop-opacity:0.42477876;" />
    </linearGradient>
  </defs>
  <sodipodi:namedview
     id="base"
     pagecolor="#ffffff"
     bordercolor="#666666"
     borderopacity="1.0"
     inkscape:pageopacity="0.0"
     inkscape:pageshadow="2"
     inkscape:zoom="1.9250001"
     inkscape:cx="4.324656"
     inkscape:cy="80.516104"
     inkscape:document-units="px"
     inkscape:current-layer="layer1"
     showgrid="false"
     inkscape:window-width="1680"
     inkscape:window-height="995"
     inkscape:window-x="-2"
     inkscape:window-y="-3"
     inkscape:window-maximized="1" />
  <metadata
     id="metadata7">
    <rdf:RDF>
      <cc:Work
         rdf:about="">
        <dc:format>image/svg+xml</dc:format>
        <dc:type
           rdf:resource="http://purl.org/dc/dcmitype/StillImage" />
        <dc:title />
      </cc:Work>
    </rdf:RDF>
  </metadata>
  <g
     inkscape:label="Layer 1"
     inkscape:groupmode="layer"
     id="layer1"
     transform="translate(0,-796.3622)">
    <g
       id="g3953"
       transform="matrix(0.48227806,0,0,0.48227806,-58.330248,663.27693)">
      <rect
         inkscape:export-ydpi="89"
         inkscape:export-xdpi="89"
         inkscape:export-filename="/home/malefico/Documentos/proyectos/conectar-linux/iconos/Iconos Huayra/tema_male/home_alumno.png"
         y="289.40427"
         x="139.35648"
         height="511.65341"
         width="511.65341"
         id="rect4789"
         style="opacity:0.63596491;fill:none;stroke:none" />
      <path
         inkscape:export-ydpi="89.943024"
         inkscape:export-xdpi="89.943024"
         inkscape:export-filename="/home/malefico/Documentos/proyectos/conectar-linux/iconos/Iconos Huayra/tema_male/home_alumno.png"
         sodipodi:nodetypes="cccscc"
         inkscape:connector-curvature="0"
         id="path4793"
         d="m 160.67406,571.94246 c 69.2318,-28.33937 141.80575,-63.4984 192.8531,-82.7992 17.74565,1.21187 83.83928,46.89187 70.19817,57.57913 -17.16135,12.05383 -56.77635,7.44288 -69.70307,44.45267 -16.59822,47.5215 -40.11836,158.67075 -54.69732,161.36152 C 256.91746,695.27396 193.75686,613.78519 160.67406,571.94246 z"
         style="fill:#fcb979;fill-opacity:1;stroke:none" />
      <path
         inkscape:export-ydpi="89.943024"
         inkscape:export-xdpi="89.943024"
         inkscape:export-filename="/home/malefico/Documentos/proyectos/conectar-linux/iconos/Iconos Huayra/tema_male/home_alumno.png"
         sodipodi:nodetypes="ccccc"
         inkscape:connector-curvature="0"
         id="path4903-45-4-1-8"
         d="m 217.71096,547.92715 c 79.57353,-36.28686 90.25454,-42.81737 161.0352,-63.97598 52.80074,22.40813 80.61844,49.22824 120.66277,126.79849 -34.6415,4.95901 -94.12058,42.67733 -153.36239,76.25494 -30.19733,-66.0035 -71.57832,-96.30067 -128.33558,-139.07745 z"
         style="fill:#e8903d;fill-opacity:1;stroke:none" />
      <path
         inkscape:export-ydpi="89.943024"
         inkscape:export-xdpi="89.943024"
         inkscape:export-filename="/home/malefico/Documentos/proyectos/conectar-linux/iconos/Iconos Huayra/tema_male/home_alumno.png"
         sodipodi:nodetypes="ccccc"
         inkscape:connector-curvature="0"
         id="path4903-45-4-1"
         d="m 221.30025,496.91192 c 69.79374,-49.00061 107.85816,-65.3109 178.63882,-86.46952 52.80074,22.40814 74.75057,65.8539 114.7949,143.42414 -34.64151,4.95901 -102.9224,50.50117 -162.16421,84.07878 -30.19732,-66.0035 -74.51225,-98.25663 -131.26951,-141.0334 z"
         style="fill:#d6e7fc;fill-opacity:1;stroke:none" />
      <path
         inkscape:export-ydpi="89.943024"
         inkscape:export-xdpi="89.943024"
         inkscape:export-filename="/home/malefico/Documentos/proyectos/conectar-linux/iconos/Iconos Huayra/tema_male/home_alumno.png"
         sodipodi:nodetypes="ccccc"
         inkscape:connector-curvature="0"
         id="path4903-45-4-1-1"
         d="m 330.67585,433.96889 c 69.44797,-26.5257 -0.71293,-2.72693 70.06773,-23.88555 52.80075,22.40814 74.75057,65.85389 114.7949,143.42414 -34.6415,4.95901 -74.56944,-22.11007 -133.11971,-5.12931 -30.19732,-66.0035 -16.42326,-65.40868 -51.74292,-114.40928 z"
         style="fill:#9dafc6;fill-opacity:1;stroke:none" />
      <path
         inkscape:export-ydpi="89.943024"
         inkscape:export-xdpi="89.943024"
         inkscape:export-filename="/home/malefico/Documentos/proyectos/conectar-linux/iconos/Iconos Huayra/tema_male/home_alumno.png"
         sodipodi:nodetypes="ccccc"
         inkscape:connector-curvature="0"
         id="path4903-45-4-1-0"
         d="m 376.95595,337.6115 c 85.02765,6.52107 124.78233,18.11807 192.87826,46.76305 26.52678,50.85638 15.86417,98.34993 -2.51401,183.69004 -29.89806,-18.18602 -111.5598,-26.41592 -178.63894,-38.13923 18.63031,-70.15164 4.91192,-123.21653 -11.72531,-192.31386 z"
         style="fill:#d6e7fc;fill-opacity:1;stroke:none" />
      <path
         inkscape:export-ydpi="89.943024"
         inkscape:export-xdpi="89.943024"
         inkscape:export-filename="/home/malefico/Documentos/proyectos/conectar-linux/iconos/Iconos Huayra/tema_male/home_alumno.png"
         sodipodi:nodetypes="ccszzc"
         inkscape:connector-curvature="0"
         id="path4793-5"
         d="m 629.01877,429.05018 c -1.26796,41.21698 -62.17837,126.377 -81.11341,193.77841 -60.98813,40.018 -252.56525,143.94724 -247.35918,130.0662 18.78293,-50.08138 44.67087,-135.1563 49.73119,-164.13144 5.06033,-28.97514 74.52598,-39.25013 99.95393,-52.36148 25.42795,-13.11136 4.43968,-37.74579 37.58011,-54.76149"
         style="fill:#79dafc;fill-opacity:1;stroke:none" />
      <path
         inkscape:export-ydpi="89.943024"
         inkscape:export-xdpi="89.943024"
         inkscape:export-filename="/home/malefico/Documentos/proyectos/conectar-linux/iconos/Iconos Huayra/tema_male/home_alumno.png"
         sodipodi:nodetypes="ccccccc"
         inkscape:connector-curvature="0"
         id="path4823"
         d="m 160.56755,570.74856 c -0.20266,4.62474 0.2445,7.33484 0.2445,7.33484 40.09741,49.37794 125.19307,163.61919 139.52261,175.9375 21.55591,-26.21444 52.67199,-173.27157 64.20445,-183.75773 -3.01498,1.24958 -4.84707,3.76044 -9.32746,5.52238 -6.64535,11.93818 -49.969,167.34601 -55.87955,171.59967 -4.7868,-6.29227 -96.99778,-125.0276 -138.76455,-176.63666 z"
         style="fill:#fc7979;fill-opacity:1;stroke:none" />
      <path
         inkscape:export-ydpi="89.943024"
         inkscape:export-xdpi="89.943024"
         inkscape:export-filename="/home/malefico/Documentos/proyectos/conectar-linux/iconos/Iconos Huayra/tema_male/home_alumno.png"
         sodipodi:nodetypes="ccccc"
         inkscape:connector-curvature="0"
         id="path4823-6"
         d="m 448.38077,533.17823 c 15.24565,-8.49385 12.82225,-28.22198 23.40385,-44.49975 2.25797,0.21228 3.27847,-2.11761 5.71344,0.4223 -10.86916,8.70711 -9.53011,35.98381 -23.35433,45.43461 -2.15457,-0.0578 -0.19586,-0.48025 -5.76296,-1.35716 z"
         style="fill:#fc7979;fill-opacity:1;stroke:none" />
      <path
         inkscape:export-ydpi="89.943024"
         inkscape:export-xdpi="89.943024"
         inkscape:export-filename="/home/malefico/Documentos/proyectos/conectar-linux/iconos/Iconos Huayra/tema_male/home_alumno.png"
         sodipodi:nodetypes="ccccc"
         inkscape:connector-curvature="0"
         id="path4823-6-0"
         d="m 355.12649,575.84575 c 9.37778,-12.40577 74.81506,-33.94394 93.50484,-42.74575 2.25796,0.21228 3.15622,-1.07852 5.59119,1.4614 -11.04205,7.49693 -79.60053,29.33991 -93.18025,41.48016 -2.15458,-0.0578 -0.34867,0.68111 -5.91578,-0.19581 z"
         style="fill:#fcb979;fill-opacity:1;stroke:none" />
      <path
         inkscape:export-ydpi="89.943024"
         inkscape:export-xdpi="89.943024"
         inkscape:export-filename="/home/malefico/Documentos/proyectos/conectar-linux/iconos/Iconos Huayra/tema_male/home_alumno.png"
         sodipodi:nodetypes="ccccc"
         inkscape:connector-curvature="0"
         id="path4823-6-0-5"
         d="m 471.84544,488.37093 c 9.37778,-12.40577 132.55828,-52.09674 151.24806,-60.89855 2.25796,0.21227 3.15622,-1.07852 5.59119,1.46139 -11.21494,8.36135 -137.34376,47.49273 -150.92348,59.63297 -2.15457,-0.0578 -0.34867,0.68111 -5.91577,-0.19581 z"
         style="fill:#fcb979;fill-opacity:1;stroke:none" />
      <path
         sodipodi:nodetypes="czzcssc"
         inkscape:connector-curvature="0"
         id="path3078"
         d="m 336.62337,626.38817 c 0,0 -15.83199,-107.38207 -50.90909,-127.7922 -35.0771,-20.41013 -73.47085,30.58965 -104.93506,14.54545 -31.46421,-16.0442 -17.97343,-62.43133 -49.87013,-93.50649 23.4544,16.12731 22.84393,50.22993 52.11176,86.01354 20.48084,25.04041 87.89447,-37.40113 110.34256,-12.47192 44.89618,49.85842 43.25996,133.21162 43.25996,133.21162 z"
         style="fill:#000000;fill-opacity:1;stroke:#000000;stroke-width:1px;stroke-linecap:butt;stroke-linejoin:miter;stroke-opacity:1" />
      <path
         sodipodi:nodetypes="czzcssc"
         inkscape:connector-curvature="0"
         id="path3078-2"
         d="m 370.38582,567.16739 c 0,0 -9.59822,-77.2522 -44.67532,-97.66233 -35.0771,-20.41013 -73.47085,30.58965 -104.93506,14.54545 -31.46421,-16.0442 -17.97343,-62.43133 -49.87013,-93.50649 23.4544,16.12731 22.84393,50.22993 52.11176,86.01354 20.48084,25.04041 87.89447,-37.40113 110.34256,-12.47192 44.89618,49.85842 37.02619,103.08175 37.02619,103.08175 z"
         style="fill:#000000;fill-opacity:1;stroke:#000000;stroke-width:1px;stroke-linecap:butt;stroke-linejoin:miter;stroke-opacity:1" />
      <path
         sodipodi:nodetypes="czzcssc"
         inkscape:connector-curvature="0"
         id="path3078-8"
         d="m 412.46375,548.46609 c 0,0 -12.71511,-81.40804 -47.79221,-101.81817 -35.0771,-20.41013 -73.47085,30.58965 -104.93506,14.54545 -31.46421,-16.0442 -17.97343,-62.43133 -49.87013,-93.50649 23.4544,16.12731 22.84393,50.22993 52.11176,86.01354 20.48084,25.04041 87.89447,-37.40113 110.34256,-12.47192 44.89618,49.85842 40.14308,107.23759 40.14308,107.23759 z"
         style="fill:#000000;fill-opacity:1;stroke:#000000;stroke-width:1px;stroke-linecap:butt;stroke-linejoin:miter;stroke-opacity:1" />
      <path
         sodipodi:nodetypes="czzcssc"
         inkscape:connector-curvature="0"
         id="path3078-3"
         d="m 452.98323,531.84272 c 0,0 -11.67615,-85.56389 -46.75325,-105.97402 -35.0771,-20.41013 -73.47085,30.58965 -104.93506,14.54545 -31.46421,-16.0442 -17.97343,-62.43133 -49.87013,-93.50649 23.4544,16.12731 22.84393,50.22993 52.11176,86.01354 20.48084,25.04041 87.89447,-37.40113 110.34256,-12.47192 44.89618,49.85842 39.10412,111.39344 39.10412,111.39344 z"
         style="fill:#000000;fill-opacity:1;stroke:#000000;stroke-width:1px;stroke-linecap:butt;stroke-linejoin:miter;stroke-opacity:1" />
      <path
         transform="matrix(0.8775328,-0.47951661,0.47951661,0.8775328,-203.42292,154.71791)"
         sodipodi:open="true"
         sodipodi:end="12.46847"
         sodipodi:start="6.2071318"
         d="m 200.47593,464.31981 c 0.63217,5.5784 -5.58067,10.44518 -13.87675,10.87025 -8.29608,0.42508 -15.53386,-3.75251 -16.16602,-9.33091 -0.63217,-5.5784 5.58066,-10.44518 13.87675,-10.87026 8.16821,-0.41852 15.33672,3.62849 16.13743,9.11045"
         sodipodi:ry="10.129869"
         sodipodi:rx="15.064935"
         sodipodi:cy="465.08948"
         sodipodi:cx="185.45454"
         id="path3899"
         style="fill:#000000;fill-opacity:1;stroke:none"
         sodipodi:type="arc" />
      <path
         transform="matrix(0.8775328,-0.47951661,0.47951661,0.8775328,-48.098252,159.13348)"
         sodipodi:open="true"
         sodipodi:end="12.46847"
         sodipodi:start="6.2071318"
         d="m 200.47593,464.31981 c 0.63217,5.5784 -5.58067,10.44518 -13.87675,10.87025 -8.29608,0.42508 -15.53386,-3.75251 -16.16602,-9.33091 -0.63217,-5.5784 5.58066,-10.44518 13.87675,-10.87026 8.16821,-0.41852 15.33672,3.62849 16.13743,9.11045"
         sodipodi:ry="10.129869"
         sodipodi:rx="15.064935"
         sodipodi:cy="465.08948"
         sodipodi:cx="185.45454"
         id="path3899-6"
         style="fill:#000000;fill-opacity:1;stroke:none"
         sodipodi:type="arc" />
      <path
         transform="matrix(0.8775328,-0.47951661,0.47951661,0.8775328,39.174477,179.39322)"
         sodipodi:open="true"
         sodipodi:end="12.46847"
         sodipodi:start="6.2071318"
         d="m 200.47593,464.31981 c 0.63217,5.5784 -5.58067,10.44518 -13.87675,10.87025 -8.29608,0.42508 -15.53386,-3.75251 -16.16602,-9.33091 -0.63217,-5.5784 5.58066,-10.44518 13.87675,-10.87026 8.16821,-0.41852 15.33672,3.62849 16.13743,9.11045"
         sodipodi:ry="10.129869"
         sodipodi:rx="15.064935"
         sodipodi:cy="465.08948"
         sodipodi:cx="185.45454"
         id="path3899-7"
         style="fill:#000000;fill-opacity:1;stroke:none"
         sodipodi:type="arc" />
      <path
         transform="matrix(0.8775328,-0.47951661,0.47951661,0.8775328,47.486165,135.23738)"
         sodipodi:open="true"
         sodipodi:end="12.46847"
         sodipodi:start="6.2071318"
         d="m 200.47593,464.31981 c 0.63217,5.5784 -5.58067,10.44518 -13.87675,10.87025 -8.29608,0.42508 -15.53386,-3.75251 -16.16602,-9.33091 -0.63217,-5.5784 5.58066,-10.44518 13.87675,-10.87026 8.16821,-0.41852 15.33672,3.62849 16.13743,9.11045"
         sodipodi:ry="10.129869"
         sodipodi:rx="15.064935"
         sodipodi:cy="465.08948"
         sodipodi:cx="185.45454"
         id="path3899-5"
         style="fill:#000000;fill-opacity:1;stroke:none"
         sodipodi:type="arc" />
      <path
         sodipodi:nodetypes="cccccc"
         inkscape:connector-curvature="0"
         id="path3933"
         d="m 441.52848,456.9232 c 0,0 39.30085,-20.0534 50.69129,-27.18229 5.88051,13.07416 23.69267,8.81588 23.69267,8.81588 0,0 -7.2818,4.68121 -13.77481,8.44855 -12.37026,-3.21189 -16.16245,-12.12183 -16.16245,-12.12183 l -44.4467,24.97831"
         style="fill:#000000;fill-opacity:1;stroke:#000000;stroke-width:1px;stroke-linecap:butt;stroke-linejoin:miter;stroke-opacity:1" />
      <path
         sodipodi:nodetypes="cccccc"
         inkscape:connector-curvature="0"
         id="path3933-7"
         d="m 183.20493,480.4322 c 0,0 39.30085,-20.0534 50.69129,-27.18229 5.88051,13.07416 23.69267,8.81588 23.69267,8.81588 0,0 -7.2818,4.68121 -13.77481,8.44855 -12.37026,-3.21189 -16.16245,-12.12183 -16.16245,-12.12183 l -44.4467,24.97831"
         style="fill:#000000;fill-opacity:1;stroke:#000000;stroke-width:1px;stroke-linecap:butt;stroke-linejoin:miter;stroke-opacity:1" />
    </g>
  </g>
</svg>
