<?xml version="1.0" encoding="UTF-8" standalone="no"?>
<!-- Created with Inkscape (http://www.inkscape.org/) -->

<svg
   xmlns:dc="http://purl.org/dc/elements/1.1/"
   xmlns:cc="http://creativecommons.org/ns#"
   xmlns:rdf="http://www.w3.org/1999/02/22-rdf-syntax-ns#"
   xmlns:svg="http://www.w3.org/2000/svg"
   xmlns="http://www.w3.org/2000/svg"
   xmlns:xlink="http://www.w3.org/1999/xlink"
   xmlns:sodipodi="http://sodipodi.sourceforge.net/DTD/sodipodi-0.dtd"
   xmlns:inkscape="http://www.inkscape.org/namespaces/inkscape"
   width="256"
   height="256"
   id="svg2"
   version="1.1"
   inkscape:version="0.48.2 r9819"
   sodipodi:docname="carpeta_peliculas.svg"
   inkscape:export-filename="/home/malefico/Documentos/proyectos/conectar-linux/iconos/Iconos Huayra/tema_male/carpeta.png"
   inkscape:export-xdpi="90"
   inkscape:export-ydpi="90">
  <defs
     id="defs4">
    <linearGradient
       id="linearGradient3929">
      <stop
         style="stop-color:#0e4474;stop-opacity:0.7368421;"
         offset="0"
         id="stop3935" />
      <stop
         id="stop3941"
         offset="0.63994336"
         style="stop-color:#8297b9;stop-opacity:0.50588235;" />
      <stop
         id="stop3933"
         offset="1"
         style="stop-color:#a3aad0;stop-opacity:0.34210527;" />
    </linearGradient>
    <linearGradient
       id="linearGradient3907">
      <stop
         style="stop-color:#f8fcfd;stop-opacity:1;"
         offset="0"
         id="stop3909" />
      <stop
         style="stop-color:#8b8ea6;stop-opacity:0.68421054;"
         offset="1"
         id="stop3911" />
    </linearGradient>
    <linearGradient
       id="linearGradient3901">
      <stop
         id="stop3903"
         offset="0"
         style="stop-color:#a4a6b0;stop-opacity:1;" />
      <stop
         id="stop3905"
         offset="1"
         style="stop-color:#bfc2cf;stop-opacity:0.20175439;" />
    </linearGradient>
    <linearGradient
       id="linearGradient3887">
      <stop
         style="stop-color:#ffffff;stop-opacity:1;"
         offset="0"
         id="stop3889" />
      <stop
         style="stop-color:#d3d6e8;stop-opacity:0.59649122;"
         offset="1"
         id="stop3891" />
    </linearGradient>
    <linearGradient
       id="linearGradient3790">
      <stop
         id="stop3792"
         offset="0"
         style="stop-color:#87758a;stop-opacity:1;" />
      <stop
         id="stop3794"
         offset="1"
         style="stop-color:#a3aad0;stop-opacity:0;" />
    </linearGradient>
    <linearGradient
       id="linearGradient3776">
      <stop
         id="stop3778"
         offset="0"
         style="stop-color:#f8fcfd;stop-opacity:1;" />
      <stop
         id="stop3780"
         offset="1"
         style="stop-color:#d3d6e8;stop-opacity:0.42477876;" />
    </linearGradient>
    <linearGradient
       id="linearGradient3760">
      <stop
         style="stop-color:#216077;stop-opacity:1;"
         offset="0"
         id="stop3762" />
      <stop
         style="stop-color:#a3aad0;stop-opacity:0;"
         offset="1"
         id="stop3764" />
    </linearGradient>
    <linearGradient
       inkscape:collect="always"
       xlink:href="#linearGradient3776-1"
       id="linearGradient3788-5"
       x1="362.64474"
       y1="318.59375"
       x2="366.68539"
       y2="451.43118"
       gradientUnits="userSpaceOnUse"
       gradientTransform="matrix(0.96411336,0,0,1.0777352,23.158763,-19.023426)" />
    <linearGradient
       id="linearGradient3776-1">
      <stop
         id="stop3778-5"
         offset="0"
         style="stop-color:#f8fcfd;stop-opacity:1;" />
      <stop
         id="stop3780-7"
         offset="1"
         style="stop-color:#d3d6e8;stop-opacity:0;" />
    </linearGradient>
    <linearGradient
       inkscape:collect="always"
       xlink:href="#linearGradient3776-10"
       id="linearGradient4608-1"
       gradientUnits="userSpaceOnUse"
       x1="337.76038"
       y1="408.47336"
       x2="532.66034"
       y2="394.01675" />
    <linearGradient
       id="linearGradient3776-10">
      <stop
         id="stop3778-0"
         offset="0"
         style="stop-color:#f8fcfd;stop-opacity:1;" />
      <stop
         id="stop3780-1"
         offset="1"
         style="stop-color:#d3d6e8;stop-opacity:0.42477876;" />
    </linearGradient>
    <linearGradient
       inkscape:collect="always"
       xlink:href="#linearGradient4600"
       id="linearGradient4697"
       x1="234.05936"
       y1="461.30872"
       x2="277.26151"
       y2="46.962513"
       gradientUnits="userSpaceOnUse" />
    <linearGradient
       id="linearGradient4600">
      <stop
         style="stop-color:#036f95;stop-opacity:1;"
         offset="0"
         id="stop4602" />
      <stop
         style="stop-color:#f41fff;stop-opacity:1;"
         offset="1"
         id="stop4604" />
    </linearGradient>
    <linearGradient
       gradientTransform="translate(140.58676,286.79437)"
       y2="46.962513"
       x2="277.26151"
       y1="461.30872"
       x1="234.05936"
       gradientUnits="userSpaceOnUse"
       id="linearGradient4953"
       xlink:href="#linearGradient4600"
       inkscape:collect="always" />
    <linearGradient
       inkscape:collect="always"
       xlink:href="#linearGradient4600"
       id="linearGradient3422"
       gradientUnits="userSpaceOnUse"
       gradientTransform="translate(-11.10155,295.10606)"
       x1="234.05936"
       y1="461.30872"
       x2="267.91086"
       y2="377.87158" />
    <linearGradient
       inkscape:collect="always"
       xlink:href="#linearGradient4600"
       id="linearGradient5353"
       gradientUnits="userSpaceOnUse"
       gradientTransform="translate(-11.10155,295.10606)"
       x1="234.05936"
       y1="461.30872"
       x2="267.91086"
       y2="377.87158" />
  </defs>
  <sodipodi:namedview
     id="base"
     pagecolor="#ffffff"
     bordercolor="#666666"
     borderopacity="1.0"
     inkscape:pageopacity="0.0"
     inkscape:pageshadow="2"
     inkscape:zoom="0.96250004"
     inkscape:cx="591.50078"
     inkscape:cy="203.72571"
     inkscape:document-units="px"
     inkscape:current-layer="layer1"
     showgrid="false"
     inkscape:window-width="1680"
     inkscape:window-height="995"
     inkscape:window-x="-2"
     inkscape:window-y="-3"
     inkscape:window-maximized="1"
     fit-margin-top="0"
     fit-margin-left="0"
     fit-margin-right="0"
     fit-margin-bottom="0" />
  <metadata
     id="metadata7">
    <rdf:RDF>
      <cc:Work
         rdf:about="">
        <dc:format>image/svg+xml</dc:format>
        <dc:type
           rdf:resource="http://purl.org/dc/dcmitype/StillImage" />
        <dc:title />
      </cc:Work>
    </rdf:RDF>
  </metadata>
  <g
     inkscape:label="Layer 1"
     inkscape:groupmode="layer"
     id="layer1"
     transform="translate(14.418179,-545.05768)">
    <g
       id="g5337"
       transform="matrix(0.50453476,0,0,0.50453476,-7.1489561,401.01439)">
      <rect
         inkscape:export-ydpi="89"
         inkscape:export-xdpi="89"
         inkscape:export-filename="/home/malefico/Documentos/proyectos/conectar-linux/iconos/Iconos Huayra/tema_male/home_alumno.png"
         y="297.71594"
         x="-12.331834"
         height="511.65341"
         width="511.65341"
         id="rect4789"
         style="opacity:0.63596491;fill:none;stroke:none" />
      <path
         inkscape:export-ydpi="89.943024"
         inkscape:export-xdpi="89.943024"
         inkscape:export-filename="/home/malefico/Documentos/proyectos/conectar-linux/iconos/Iconos Huayra/tema_male/home_alumno.png"
         sodipodi:nodetypes="cccscc"
         inkscape:connector-curvature="0"
         id="path4793"
         d="m 8.98575,580.25415 c 69.2318,-28.33937 141.80575,-63.4984 192.8531,-82.7992 17.74565,1.21187 83.83928,46.89187 70.19817,57.57913 -17.16135,12.05383 -56.77635,7.44288 -69.70307,44.45267 -16.59822,47.5215 -40.11836,158.67075 -54.69732,161.36152 C 105.22915,703.58565 42.06855,622.09688 8.98575,580.25415 z"
         style="fill:#ffa957;fill-opacity:1;stroke:none" />
      <path
         inkscape:export-ydpi="89.943024"
         inkscape:export-xdpi="89.943024"
         inkscape:export-filename="/home/malefico/Documentos/proyectos/conectar-linux/iconos/Iconos Huayra/tema_male/home_alumno.png"
         sodipodi:nodetypes="ccccc"
         inkscape:connector-curvature="0"
         id="path4903-45-4-1-8"
         d="M 29.139535,571.82325 C 108.71306,535.53639 119.39407,529.00588 190.17473,507.84727 242.97547,530.2554 270.79317,557.07551 310.8375,634.64576 276.196,639.60477 216.71692,677.32309 157.47511,710.9007 127.27778,644.8972 85.896795,614.60003 29.139535,571.82325 z"
         style="fill:#e57f20;fill-opacity:1;stroke:none" />
      <path
         sodipodi:nodetypes="ccccccccc"
         inkscape:connector-curvature="0"
         id="path4689"
         d="M 104.97416,536.7525 5.79555,582.3012 c 0,0 94.62678,133.75608 145.46195,183.6641 73.60953,-30.90419 188.54941,-93.10139 247.5792,-133.70747 21.56232,-69.99233 83.70097,-170.82504 81.54686,-199.82652 -24.19379,5.52736 -45.5487,15.42777 -45.5487,15.42777 l -108.029,41.35354 c 0,0 -28.16053,-55.7105 -63.40436,-36.45407 -58.06723,33.62444 -59.17171,47.07029 -158.42734,83.99395 z"
         style="fill:none;stroke:url(#linearGradient5353);stroke-width:5;stroke-linecap:butt;stroke-linejoin:miter;stroke-miterlimit:4;stroke-opacity:1;stroke-dasharray:none" />
      <g
         transform="matrix(0.89931174,0,0,1.0410054,2.1668765,18.678717)"
         id="g3417">
        <path
           style="fill:#c8beb7;stroke:#000000;stroke-width:1px;stroke-linecap:butt;stroke-linejoin:miter;stroke-opacity:1"
           d="m 163.82837,55.04374 116.81036,-44.44671 81.17953,22.407019 26.44763,22.774347 4.04061,31.222896 -8.81588,26.447628 -37.8348,35.26351 -27.91694,36.73282 -12.85649,26.44762 2.93863,25.71298 19.10106,21.67236 24.97832,17.26442 -160.52242,69.0577 -38.20213,-60.97648 0.73466,-33.05953 31.95755,-37.10015 34.89618,-38.20213 15.06045,-24.61099 9.18321,-27.91694 -9.55053,-29.753583 -23.50901,-20.20305 -53.99724,-19.101065"
           id="path3415"
           inkscape:connector-curvature="0"
           transform="translate(-14.418179,289.05768)" />
        <path
           inkscape:connector-curvature="0"
           style="fill:#1a1a1a;stroke:#000000;stroke-width:1px;stroke-linecap:butt;stroke-linejoin:miter;stroke-opacity:1"
           d="m 298.28125,3.375 c -0.68451,0.00976 -1.0625,0.03125 -1.0625,0.03125 L 121.9375,66.96875 c 3.00907,0.484045 8.98145,1.675152 20.59375,4.25 31.86566,7.065717 63.05572,16.142924 69.0625,58.75 6.00678,42.60708 -91.5075,89.38999 -92.59375,139.59375 -1.08625,50.20376 69.0625,114.59375 69.0625,114.59375 L 395.25,279.84375 c 0,0 -61.83728,-17.08327 -67.59375,-61.71875 C 321.89978,173.48952 434.18915,115.75763 424.625,68.28125 415.06085,20.80487 348.07561,11.456554 334.65625,7.15625 324.59174,3.9310215 308.57164,3.4218036 301.1875,3.375 c -1.23069,-0.0078 -2.22174,-0.00976 -2.90625,0 z M 121.9375,66.96875 c -5.24821,-0.844237 -1.3125,0.46875 -1.3125,0.46875 l 1.3125,-0.46875 z m 202.46875,-58.125 15.15625,2.84375 -18.3125,4.34375 -15.03125,-2.6875 18.1875,-4.5 z m -44.25,4.0625 c 0,0 75.93334,14.352605 89.65625,37.4375 C 353.4145,53.592923 267.45792,86.908286 236.96875,94.6875 226.68262,69.407177 164.65625,54.5 164.65625,54.5 l 115.5,-41.59375 z m 68.03125,1.71875 16.96875,5.0625 -19.9375,4.34375 -13.375,-4.90625 16.34375,-4.5 z m 25.625,9.4375 15.5,6.34375 -19.96875,4.3125 c 0,0 -9.56482,-4.4655 -14.65625,-7.0625 9.05071,-2.22967 19.125,-3.59375 19.125,-3.59375 z m 21.75,10.5 c 0,0 8.07288,3.59635 11.5625,10.9375 -4.31611,1.18842 -11.63695,4.23217 -14.9375,4.875 C 389.96858,44.27603 379.125,38.9375 379.125,38.9375 l 16.4375,-4.375 z m -14,16.65625 c 17.50243,27.152964 -3.125,61.03125 -3.125,61.03125 l -145.71875,54.8125 c 0,0 22.78543,-39.27037 7.8125,-65.4375 C 266.0778,90.003311 361.98215,58.87098 381.5625,51.21875 z m 30.0625,0.21875 c 0,0 3.48026,4.73342 4.03125,11.15625 C 411.34014,63.78217 402.55055,67.35717 399.25,68 399.05138,62.0847 396.09375,56.21875 396.09375,56.21875 L 411.625,51.4375 z m -255.875,9.40625 15.125,2.875 -18.3125,4.3125 -15.03125,-2.6875 18.21875,-4.5 z m 23.5,6.5625 16.96875,5.0625 -19.9375,4.34375 -13.375,-4.90625 16.34375,-4.5 z m 236.5625,2.28125 c 0,0 2.0088,8.76196 -0.5625,12.0625 -4.31611,1.18842 -14.94945,4.95092 -18.25,5.59375 2.92367,-4.62965 1.625,-11.78125 1.625,-11.78125 l 17.1875,-5.875 z m -211.71875,7.9375 15.5,6.34375 -19.96875,4.3125 c 0,0 -9.56482,-4.4655 -14.65625,-7.0625 9.05071,-2.22967 19.125,-3.59375 19.125,-3.59375 z M 220.125,89.9375 c 0,0 8.10413,3.6276 11.59375,10.96875 -4.31611,1.18842 -11.63695,4.20092 -14.9375,4.84375 -2.21892,-6.09897 -13.0625,-11.40625 -13.0625,-11.40625 L 220.125,89.9375 z m 192.125,0.625 c 0,0 -4.4287,9.48071 -7,12.78125 -4.31611,1.18842 -14.38695,4.79467 -17.6875,5.4375 2.92367,-4.62965 6.40625,-12.90625 6.40625,-12.90625 L 412.25,90.5625 z m -177.625,16.28125 c 0,0 3.48026,4.70217 4.03125,11.125 -4.31611,1.18842 -13.07445,4.76342 -16.375,5.40625 -0.19862,-5.9153 -3.15625,-11.78125 -3.15625,-11.78125 l 15.5,-4.75 z m 163.84375,6.3125 -12.1875,12.125 -17.0625,3.84375 c 3.60113,-3.80952 7.74261,-7.09673 11.34375,-10.90625 6.85191,-1.83919 10.99267,-3.0931 17.90625,-5.0625 z M 370.0625,121.5 c -24.626,18.11001 -46.6875,50.875 -46.6875,50.875 0,0 -94.84004,29.31829 -134.25,44 15.56212,-22.40521 38.625,-41.875 38.625,-41.875 0,0 102.28824,-41.74953 142.3125,-53 z m -131.25,3.5625 c 0,0 2.0088,8.76196 -0.5625,12.0625 -4.31611,1.18842 -14.9182,4.95092 -18.21875,5.59375 2.92367,-4.62965 1.625,-11.78125 1.625,-11.78125 l 17.15625,-5.875 z m 139.6875,8.96875 -11.53125,10.4375 -16.28125,2.71875 9,-8.84375 18.8125,-4.3125 z M 235.25,145.9375 c 0,0 -4.39745,9.51196 -6.96875,12.8125 -4.31611,1.18842 -14.38695,4.76342 -17.6875,5.40625 C 213.51742,159.5266 217,151.25 217,151.25 l 18.25,-5.3125 z M 360.65625,152 351.625,162.1875 c -6.27749,0.31454 -8.48473,1.60832 -16.34375,3.0625 l 8.8125,-9.9375 16.5625,-3.3125 z m -14.6875,18.15625 c 0,0 -6.98472,6.84642 -8.78125,11.0625 -2.67684,0.96945 -10.80293,1.65043 -15.78125,3.28125 3.66091,-6.6352 8.46875,-11.25 8.46875,-11.25 l 16.09375,-3.09375 z m -125.75,0.15625 L 208.0625,182.46875 191,186.3125 c 3.60113,-3.80952 7.74261,-7.12798 11.34375,-10.9375 6.85191,-1.83919 10.96142,-3.0931 17.875,-5.0625 z M 317.75,179.875 c -6.5026,12.93606 -20.10229,34.6583 -16.875,43.71875 -23.63638,6.45406 -112.71185,41.8019 -143.875,54.09375 -8.97142,-24.56997 28.03125,-55.90625 28.03125,-55.90625 0,0 112.09736,-38.69347 132.71875,-41.90625 z m 13.1875,10 c -3.53755,5.63419 -4.83253,8.4605 -5.71875,11.4375 -5.85394,1.04328 -10.32094,3.09334 -15.15625,4.53125 2.43229,-6.69329 5.20839,-9.41578 6.96875,-13.28125 5.58557,-1.65298 9.01298,-2.26182 13.90625,-2.6875 z m -130.6875,1.3125 -11.5,10.46875 -16.28125,2.71875 9,-8.875 18.78125,-4.3125 z m -17.8125,17.96875 -9.0625,10.21875 c -6.27749,0.31454 -8.45348,1.57707 -16.3125,3.03125 l 8.8125,-9.9375 16.5625,-3.3125 z M 323.0625,209.5 c -0.51596,5.05406 -0.97781,8.49543 0.65625,14.0625 -4.04057,1.66857 -10.19634,4.67487 -14.5625,6.09375 -4.35999,-9.22236 -1.21875,-15.0625 -1.21875,-15.0625 0,0 9.04807,-4.29421 15.125,-5.09375 z m -155.34375,17.84375 c 0,0 -6.95347,6.81517 -8.75,11.03125 -2.67684,0.96945 -10.80293,1.65043 -15.78125,3.28125 3.66091,-6.6352 8.46875,-11.21875 8.46875,-11.21875 l 16.0625,-3.09375 z m 133.46875,0.8125 c 2.77112,14.68634 20.33766,35.38961 38,45 1.8814,1.02371 -148.53125,64.8125 -148.53125,64.8125 0,0 -26.2201,-29.65303 -31.8125,-54.375 28.56912,-14.43677 124.51217,-51.75743 142.34375,-55.4375 z m 25.03125,3.3125 c 1.63425,6.23488 3.8638,7.70621 7.09375,13.28125 -1.8072,0.25794 -6.97171,4.58194 -12.21875,5.96875 -4.90291,-3.64867 -8.41659,-7.39221 -9.28125,-14.5 4.50397,-0.8341 9.73181,-3.54544 14.40625,-4.75 z M 152.6875,247.0625 c -3.53755,5.63419 -4.80128,8.4605 -5.6875,11.4375 -5.85394,1.04328 -10.35219,3.06209 -15.1875,4.5 2.43229,-6.69329 5.23964,-9.41578 7,-13.28125 5.58557,-1.65298 8.98173,-2.23057 13.875,-2.65625 z m -7.875,19.59375 c -0.51596,5.05406 -0.94656,8.49543 0.6875,14.0625 -4.04057,1.66857 -10.19634,4.70612 -14.5625,6.125 -4.35999,-9.22236 -1.21875,-15.0625 -1.21875,-15.0625 0,0 9.01682,-4.32546 15.09375,-5.125 z m 3.34375,23.625 c 1.63425,6.23488 3.89505,7.73746 7.125,13.3125 -1.8072,0.25794 -6.97171,4.58194 -12.21875,5.96875 -4.90291,-3.64867 -8.44784,-7.42346 -9.3125,-14.53125 4.50397,-0.8341 9.73181,-3.54544 14.40625,-4.75 z m 13.4375,24.1875 c 1.63425,6.23488 5.1763,7.54996 8.40625,13.125 -1.8072,0.25794 -8.25296,4.76944 -13.5,6.15625 -2.8826,-3.83233 -6.06021,-7.39221 -9.3125,-14.5 4.50397,-0.8341 9.73181,-3.57669 14.40625,-4.78125 z m 16.34375,25.71875 c 2.9199,5.50023 6.64505,6.42496 9.875,12 -1.8072,0.25794 -8.44046,5.70694 -13.6875,7.09375 -4.90291,-3.64867 -7.52896,-6.66578 -10.78125,-13.40625 4.50397,-0.8341 9.91931,-4.48294 14.59375,-5.6875 z"
           transform="translate(-14.418179,289.05768)"
           id="path3031" />
      </g>
      <path
         inkscape:export-ydpi="89.943024"
         inkscape:export-xdpi="89.943024"
         inkscape:export-filename="/home/malefico/Documentos/proyectos/conectar-linux/iconos/Iconos Huayra/tema_male/home_alumno.png"
         sodipodi:nodetypes="ccszzc"
         inkscape:connector-curvature="0"
         id="path4793-5"
         d="m 477.33046,437.36187 c -1.26796,41.21698 -62.17837,126.377 -81.11341,193.77841 -60.98813,40.018 -252.56525,143.94724 -247.35918,130.0662 18.78293,-50.08138 44.67087,-135.1563 49.73119,-164.13144 5.06033,-28.97514 74.52598,-39.25013 99.95393,-52.36148 25.42795,-13.11136 4.43968,-37.74579 37.58011,-54.76149"
         style="fill:#47cfff;fill-opacity:1;stroke:none" />
      <path
         inkscape:export-ydpi="89.943024"
         inkscape:export-xdpi="89.943024"
         inkscape:export-filename="/home/malefico/Documentos/proyectos/conectar-linux/iconos/Iconos Huayra/tema_male/home_alumno.png"
         sodipodi:nodetypes="ccccccc"
         inkscape:connector-curvature="0"
         id="path4823"
         d="m 8.87924,579.06025 c -0.20266,4.62474 0.2445,7.33484 0.2445,7.33484 40.09741,49.37794 125.19307,163.61919 139.52261,175.9375 21.55591,-26.21444 52.67199,-173.27157 64.20445,-183.75773 -3.01498,1.24958 -4.84707,3.76044 -9.32746,5.52238 -6.64535,11.93818 -49.969,167.34601 -55.87955,171.59967 -4.7868,-6.29227 -96.99778,-125.0276 -138.76455,-176.63666 z"
         style="fill:#fc7979;fill-opacity:1;stroke:none" />
      <path
         inkscape:export-ydpi="89.943024"
         inkscape:export-xdpi="89.943024"
         inkscape:export-filename="/home/malefico/Documentos/proyectos/conectar-linux/iconos/Iconos Huayra/tema_male/home_alumno.png"
         sodipodi:nodetypes="ccccc"
         inkscape:connector-curvature="0"
         id="path4823-6"
         d="m 296.69246,541.48992 c 15.24565,-8.49385 12.82225,-28.22198 23.40385,-44.49975 2.25797,0.21228 3.27847,-2.11761 5.71344,0.4223 -10.86916,8.70711 -9.53011,35.98381 -23.35433,45.43461 -2.15457,-0.0578 -0.19586,-0.48025 -5.76296,-1.35716 z"
         style="fill:#fc7979;fill-opacity:1;stroke:none" />
      <path
         inkscape:export-ydpi="89.943024"
         inkscape:export-xdpi="89.943024"
         inkscape:export-filename="/home/malefico/Documentos/proyectos/conectar-linux/iconos/Iconos Huayra/tema_male/home_alumno.png"
         sodipodi:nodetypes="ccccc"
         inkscape:connector-curvature="0"
         id="path4823-6-0"
         d="m 203.43818,584.15744 c 9.37778,-12.40577 74.81506,-33.94394 93.50484,-42.74575 2.25796,0.21228 3.15622,-1.07852 5.59119,1.4614 -11.04205,7.49693 -79.60053,29.33991 -93.18025,41.48016 -2.15458,-0.0578 -0.34867,0.68111 -5.91578,-0.19581 z"
         style="fill:#fcb979;fill-opacity:1;stroke:none" />
      <path
         inkscape:export-ydpi="89.943024"
         inkscape:export-xdpi="89.943024"
         inkscape:export-filename="/home/malefico/Documentos/proyectos/conectar-linux/iconos/Iconos Huayra/tema_male/home_alumno.png"
         sodipodi:nodetypes="ccccc"
         inkscape:connector-curvature="0"
         id="path4823-6-0-5"
         d="m 320.15713,496.68262 c 9.37778,-12.40577 132.55828,-52.09674 151.24806,-60.89855 2.25796,0.21227 3.15622,-1.07852 5.59119,1.46139 -11.21494,8.36135 -137.34376,47.49273 -150.92348,59.63297 -2.15457,-0.0578 -0.34867,0.68111 -5.91577,-0.19581 z"
         style="fill:#fcb979;fill-opacity:1;stroke:none" />
      <path
         sodipodi:nodetypes="ccccc"
         inkscape:connector-curvature="0"
         id="rect3454"
         d="m 208.4101,431.20285 c 28.34102,-10.92601 127.11228,-50.34576 127.11228,-50.34576 0,0 4.81361,6.80544 2.46705,22.1135 -14.2946,11.39941 -128.0306,52.89698 -128.0306,52.89698 0,0 1.79857,-10.73205 -1.54873,-24.66472 z"
         style="fill:#e6e6e6;fill-opacity:1;stroke:none" />
      <path
         sodipodi:nodetypes="ccccc"
         inkscape:connector-curvature="0"
         id="rect3457"
         d="M 136.46768,377.76209 242.71287,332.8614 c 0,0 47.29466,6.84319 67.30577,26.81616 -19.46942,7.94639 -89.71895,35.53255 -114.41554,47.09966 -18.98231,-20.30331 -59.13542,-29.01513 -59.13542,-29.01513 z"
         style="fill:#e6e6e6;fill-opacity:1;stroke:none" />
    </g>
  </g>
</svg>
