<?xml version="1.0" encoding="UTF-8" standalone="no"?>
<!-- Created with Inkscape (http://www.inkscape.org/) -->

<svg
   xmlns:dc="http://purl.org/dc/elements/1.1/"
   xmlns:cc="http://creativecommons.org/ns#"
   xmlns:rdf="http://www.w3.org/1999/02/22-rdf-syntax-ns#"
   xmlns:svg="http://www.w3.org/2000/svg"
   xmlns="http://www.w3.org/2000/svg"
   xmlns:xlink="http://www.w3.org/1999/xlink"
   xmlns:sodipodi="http://sodipodi.sourceforge.net/DTD/sodipodi-0.dtd"
   xmlns:inkscape="http://www.inkscape.org/namespaces/inkscape"
   width="512"
   height="512"
   id="svg2"
   version="1.1"
   inkscape:version="0.48.2 r9819"
   sodipodi:docname="carpeta.svg"
   inkscape:export-filename="/home/malefico/Documentos/proyectos/conectar-linux/iconos/Iconos Huayra/tema_male/carpeta.png"
   inkscape:export-xdpi="90"
   inkscape:export-ydpi="90">
  <defs
     id="defs4">
    <linearGradient
       id="linearGradient3929">
      <stop
         style="stop-color:#0e4474;stop-opacity:0.7368421;"
         offset="0"
         id="stop3935" />
      <stop
         id="stop3941"
         offset="0.63994336"
         style="stop-color:#8297b9;stop-opacity:0.50588235;" />
      <stop
         id="stop3933"
         offset="1"
         style="stop-color:#a3aad0;stop-opacity:0.34210527;" />
    </linearGradient>
    <linearGradient
       id="linearGradient3907">
      <stop
         style="stop-color:#f8fcfd;stop-opacity:1;"
         offset="0"
         id="stop3909" />
      <stop
         style="stop-color:#8b8ea6;stop-opacity:0.68421054;"
         offset="1"
         id="stop3911" />
    </linearGradient>
    <linearGradient
       id="linearGradient3901">
      <stop
         id="stop3903"
         offset="0"
         style="stop-color:#a4a6b0;stop-opacity:1;" />
      <stop
         id="stop3905"
         offset="1"
         style="stop-color:#bfc2cf;stop-opacity:0.20175439;" />
    </linearGradient>
    <linearGradient
       id="linearGradient3887">
      <stop
         style="stop-color:#ffffff;stop-opacity:1;"
         offset="0"
         id="stop3889" />
      <stop
         style="stop-color:#d3d6e8;stop-opacity:0.59649122;"
         offset="1"
         id="stop3891" />
    </linearGradient>
    <linearGradient
       id="linearGradient3790">
      <stop
         id="stop3792"
         offset="0"
         style="stop-color:#87758a;stop-opacity:1;" />
      <stop
         id="stop3794"
         offset="1"
         style="stop-color:#a3aad0;stop-opacity:0;" />
    </linearGradient>
    <linearGradient
       id="linearGradient3776">
      <stop
         id="stop3778"
         offset="0"
         style="stop-color:#f8fcfd;stop-opacity:1;" />
      <stop
         id="stop3780"
         offset="1"
         style="stop-color:#d3d6e8;stop-opacity:0.42477876;" />
    </linearGradient>
    <linearGradient
       id="linearGradient3760">
      <stop
         style="stop-color:#216077;stop-opacity:1;"
         offset="0"
         id="stop3762" />
      <stop
         style="stop-color:#a3aad0;stop-opacity:0;"
         offset="1"
         id="stop3764" />
    </linearGradient>
    <linearGradient
       inkscape:collect="always"
       xlink:href="#linearGradient3776-1"
       id="linearGradient3788-5"
       x1="362.64474"
       y1="318.59375"
       x2="366.68539"
       y2="451.43118"
       gradientUnits="userSpaceOnUse"
       gradientTransform="matrix(0.96411336,0,0,1.0777352,23.158763,-19.023426)" />
    <linearGradient
       id="linearGradient3776-1">
      <stop
         id="stop3778-5"
         offset="0"
         style="stop-color:#f8fcfd;stop-opacity:1;" />
      <stop
         id="stop3780-7"
         offset="1"
         style="stop-color:#d3d6e8;stop-opacity:0;" />
    </linearGradient>
    <linearGradient
       inkscape:collect="always"
       xlink:href="#linearGradient3776-10"
       id="linearGradient4608-1"
       gradientUnits="userSpaceOnUse"
       x1="337.76038"
       y1="408.47336"
       x2="532.66034"
       y2="394.01675" />
    <linearGradient
       id="linearGradient3776-10">
      <stop
         id="stop3778-0"
         offset="0"
         style="stop-color:#f8fcfd;stop-opacity:1;" />
      <stop
         id="stop3780-1"
         offset="1"
         style="stop-color:#d3d6e8;stop-opacity:0.42477876;" />
    </linearGradient>
    <linearGradient
       inkscape:collect="always"
       xlink:href="#linearGradient4600"
       id="linearGradient4697"
       x1="234.05936"
       y1="461.30872"
       x2="277.26151"
       y2="46.962513"
       gradientUnits="userSpaceOnUse" />
    <linearGradient
       id="linearGradient4600">
      <stop
         style="stop-color:#036f95;stop-opacity:1;"
         offset="0"
         id="stop4602" />
      <stop
         style="stop-color:#f41fff;stop-opacity:1;"
         offset="1"
         id="stop4604" />
    </linearGradient>
    <linearGradient
       gradientTransform="translate(140.58676,286.79437)"
       y2="46.962513"
       x2="277.26151"
       y1="461.30872"
       x1="234.05936"
       gradientUnits="userSpaceOnUse"
       id="linearGradient4953"
       xlink:href="#linearGradient4600"
       inkscape:collect="always" />
    <linearGradient
       inkscape:collect="always"
       xlink:href="#linearGradient4600"
       id="linearGradient5505"
       gradientUnits="userSpaceOnUse"
       gradientTransform="translate(140.58676,286.79437)"
       x1="234.05936"
       y1="461.30872"
       x2="277.26151"
       y2="46.962513" />
  </defs>
  <sodipodi:namedview
     id="base"
     pagecolor="#ffffff"
     bordercolor="#666666"
     borderopacity="1.0"
     inkscape:pageopacity="0.0"
     inkscape:pageshadow="2"
     inkscape:zoom="0.48125002"
     inkscape:cx="183.18015"
     inkscape:cy="98.523011"
     inkscape:document-units="px"
     inkscape:current-layer="layer1"
     showgrid="false"
     inkscape:window-width="1680"
     inkscape:window-height="995"
     inkscape:window-x="-2"
     inkscape:window-y="-3"
     inkscape:window-maximized="1"
     fit-margin-top="0"
     fit-margin-left="0"
     fit-margin-right="0"
     fit-margin-bottom="0" />
  <metadata
     id="metadata7">
    <rdf:RDF>
      <cc:Work
         rdf:about="">
        <dc:format>image/svg+xml</dc:format>
        <dc:type
           rdf:resource="http://purl.org/dc/dcmitype/StillImage" />
        <dc:title></dc:title>
      </cc:Work>
    </rdf:RDF>
  </metadata>
  <g
     inkscape:label="Layer 1"
     inkscape:groupmode="layer"
     id="layer1"
     transform="translate(14.418179,-289.05768)">
    <g
       id="g5491"
       transform="translate(-151.68831,8.311688)">
      <rect
         inkscape:export-ydpi="89"
         inkscape:export-xdpi="89"
         inkscape:export-filename="/home/malefico/Documentos/proyectos/conectar-linux/iconos/Iconos Huayra/tema_male/home_alumno.png"
         y="289.40427"
         x="139.35648"
         height="511.65341"
         width="511.65341"
         id="rect4789"
         style="opacity:0.63596491;fill:none;stroke:none" />
      <path
         inkscape:export-ydpi="89.943024"
         inkscape:export-xdpi="89.943024"
         inkscape:export-filename="/home/malefico/Documentos/proyectos/conectar-linux/iconos/Iconos Huayra/tema_male/home_alumno.png"
         sodipodi:nodetypes="cccscc"
         inkscape:connector-curvature="0"
         id="path4793"
         d="m 160.67406,571.94246 c 69.2318,-28.33937 141.80575,-63.4984 192.8531,-82.7992 17.74565,1.21187 83.83928,46.89187 70.19817,57.57913 -17.16135,12.05383 -56.77635,7.44288 -69.70307,44.45267 -16.59822,47.5215 -40.11836,158.67075 -54.69732,161.36152 C 256.91746,695.27396 193.75686,613.78519 160.67406,571.94246 z"
         style="fill:#ffa957;fill-opacity:1;stroke:none" />
      <path
         inkscape:export-ydpi="89.943024"
         inkscape:export-xdpi="89.943024"
         inkscape:export-filename="/home/malefico/Documentos/proyectos/conectar-linux/iconos/Iconos Huayra/tema_male/home_alumno.png"
         sodipodi:nodetypes="ccccc"
         inkscape:connector-curvature="0"
         id="path4903-45-4-1-8"
         d="m 217.71096,547.92715 c 79.57353,-36.28686 90.25454,-42.81737 161.0352,-63.97598 52.80074,22.40813 80.61844,49.22824 120.66277,126.79849 -34.6415,4.95901 -94.12058,42.67733 -153.36239,76.25494 -30.19733,-66.0035 -71.57832,-96.30067 -128.33558,-139.07745 z"
         style="fill:#e57f20;fill-opacity:1;stroke:none" />
      <path
         inkscape:export-ydpi="89.943024"
         inkscape:export-xdpi="89.943024"
         inkscape:export-filename="/home/malefico/Documentos/proyectos/conectar-linux/iconos/Iconos Huayra/tema_male/home_alumno.png"
         sodipodi:nodetypes="ccccc"
         inkscape:connector-curvature="0"
         id="path4903-45-4-1"
         d="m 221.30025,496.91192 c 69.79374,-49.00061 107.85816,-65.3109 178.63882,-86.46952 52.80074,22.40814 74.75057,65.8539 114.7949,143.42414 -34.64151,4.95901 -102.9224,50.50117 -162.16421,84.07878 -30.19732,-66.0035 -74.51225,-98.25663 -131.26951,-141.0334 z"
         style="fill:#d6e7fc;fill-opacity:1;stroke:none" />
      <path
         inkscape:export-ydpi="89.943024"
         inkscape:export-xdpi="89.943024"
         inkscape:export-filename="/home/malefico/Documentos/proyectos/conectar-linux/iconos/Iconos Huayra/tema_male/home_alumno.png"
         sodipodi:nodetypes="ccccc"
         inkscape:connector-curvature="0"
         id="path4903-45-4-1-1"
         d="m 330.67585,433.96889 c 69.44797,-26.5257 -0.71293,-2.72693 70.06773,-23.88555 52.80075,22.40814 74.75057,65.85389 114.7949,143.42414 -34.6415,4.95901 -74.56944,-22.11007 -133.11971,-5.12931 -30.19732,-66.0035 -16.42326,-65.40868 -51.74292,-114.40928 z"
         style="fill:#9dafc6;fill-opacity:1;stroke:none" />
      <path
         inkscape:export-ydpi="89.943024"
         inkscape:export-xdpi="89.943024"
         inkscape:export-filename="/home/malefico/Documentos/proyectos/conectar-linux/iconos/Iconos Huayra/tema_male/home_alumno.png"
         sodipodi:nodetypes="ccccc"
         inkscape:connector-curvature="0"
         id="path4903-45-4-1-0"
         d="m 376.95595,337.6115 c 85.02765,6.52107 124.78233,18.11807 192.87826,46.76305 26.52678,50.85638 15.86417,98.34993 -2.51401,183.69004 -29.89806,-18.18602 -111.5598,-26.41592 -178.63894,-38.13923 18.63031,-70.15164 4.91192,-123.21653 -11.72531,-192.31386 z"
         style="fill:#d6e7fc;fill-opacity:1;stroke:none" />
      <path
         inkscape:export-ydpi="89.943024"
         inkscape:export-xdpi="89.943024"
         inkscape:export-filename="/home/malefico/Documentos/proyectos/conectar-linux/iconos/Iconos Huayra/tema_male/home_alumno.png"
         sodipodi:nodetypes="ccszzc"
         inkscape:connector-curvature="0"
         id="path4793-5"
         d="m 629.01877,429.05018 c -1.26796,41.21698 -62.17837,126.377 -81.11341,193.77841 -60.98813,40.018 -252.56525,143.94724 -247.35918,130.0662 18.78293,-50.08138 44.67087,-135.1563 49.73119,-164.13144 5.06033,-28.97514 74.52598,-39.25013 99.95393,-52.36148 25.42795,-13.11136 4.43968,-37.74579 37.58011,-54.76149"
         style="fill:#47cfff;fill-opacity:1;stroke:none" />
      <path
         inkscape:export-ydpi="89.943024"
         inkscape:export-xdpi="89.943024"
         inkscape:export-filename="/home/malefico/Documentos/proyectos/conectar-linux/iconos/Iconos Huayra/tema_male/home_alumno.png"
         sodipodi:nodetypes="ccccccc"
         inkscape:connector-curvature="0"
         id="path4823"
         d="m 160.56755,570.74856 c -0.20266,4.62474 0.2445,7.33484 0.2445,7.33484 40.09741,49.37794 125.19307,163.61919 139.52261,175.9375 21.55591,-26.21444 52.67199,-173.27157 64.20445,-183.75773 -3.01498,1.24958 -4.84707,3.76044 -9.32746,5.52238 -6.64535,11.93818 -49.969,167.34601 -55.87955,171.59967 -4.7868,-6.29227 -96.99778,-125.0276 -138.76455,-176.63666 z"
         style="fill:#fc7979;fill-opacity:1;stroke:none" />
      <path
         inkscape:export-ydpi="89.943024"
         inkscape:export-xdpi="89.943024"
         inkscape:export-filename="/home/malefico/Documentos/proyectos/conectar-linux/iconos/Iconos Huayra/tema_male/home_alumno.png"
         sodipodi:nodetypes="ccccc"
         inkscape:connector-curvature="0"
         id="path4823-6"
         d="m 448.38077,533.17823 c 15.24565,-8.49385 12.82225,-28.22198 23.40385,-44.49975 2.25797,0.21228 3.27847,-2.11761 5.71344,0.4223 -10.86916,8.70711 -9.53011,35.98381 -23.35433,45.43461 -2.15457,-0.0578 -0.19586,-0.48025 -5.76296,-1.35716 z"
         style="fill:#fc7979;fill-opacity:1;stroke:none" />
      <path
         inkscape:export-ydpi="89.943024"
         inkscape:export-xdpi="89.943024"
         inkscape:export-filename="/home/malefico/Documentos/proyectos/conectar-linux/iconos/Iconos Huayra/tema_male/home_alumno.png"
         sodipodi:nodetypes="ccccc"
         inkscape:connector-curvature="0"
         id="path4823-6-0"
         d="m 355.12649,575.84575 c 9.37778,-12.40577 74.81506,-33.94394 93.50484,-42.74575 2.25796,0.21228 3.15622,-1.07852 5.59119,1.4614 -11.04205,7.49693 -79.60053,29.33991 -93.18025,41.48016 -2.15458,-0.0578 -0.34867,0.68111 -5.91578,-0.19581 z"
         style="fill:#fcb979;fill-opacity:1;stroke:none" />
      <path
         inkscape:export-ydpi="89.943024"
         inkscape:export-xdpi="89.943024"
         inkscape:export-filename="/home/malefico/Documentos/proyectos/conectar-linux/iconos/Iconos Huayra/tema_male/home_alumno.png"
         sodipodi:nodetypes="ccccc"
         inkscape:connector-curvature="0"
         id="path4823-6-0-5"
         d="m 471.84544,488.37093 c 9.37778,-12.40577 132.55828,-52.09674 151.24806,-60.89855 2.25796,0.21227 3.15622,-1.07852 5.59119,1.46139 -11.21494,8.36135 -137.34376,47.49273 -150.92348,59.63297 -2.15457,-0.0578 -0.34867,0.68111 -5.91577,-0.19581 z"
         style="fill:#fcb979;fill-opacity:1;stroke:none" />
      <path
         sodipodi:nodetypes="ccccccccccc"
         inkscape:connector-curvature="0"
         id="path4689"
         d="m 256.66247,528.44081 -99.17861,45.5487 c 0,0 94.62678,133.75608 145.46195,183.6641 73.60953,-30.90419 188.54941,-93.10139 247.5792,-133.70747 21.56232,-69.99233 83.70097,-170.82504 81.54686,-199.82652 -24.19379,5.52736 -45.5487,15.42777 -45.5487,15.42777 0,0 -3.71667,-40.47679 -13.22381,-56.56853 -47.98772,-19.97803 -149.55995,-48.63186 -197.62257,-45.5487 3.36333,33.93874 10.48502,46.68881 13.95848,72.73099 -45.74852,14.28767 -112.42196,44.34791 -171.90959,85.95478 13.49859,13.08472 38.93679,32.32488 38.93679,32.32488 z"
         style="fill:none;stroke:url(#linearGradient5505);stroke-width:5;stroke-linecap:butt;stroke-linejoin:miter;stroke-miterlimit:4;stroke-opacity:1;stroke-dasharray:none" />
    </g>
  </g>
</svg>
