<?xml version="1.0" encoding="UTF-8" standalone="no"?>
<!-- Created with Inkscape (http://www.inkscape.org/) -->

<svg
   xmlns:dc="http://purl.org/dc/elements/1.1/"
   xmlns:cc="http://creativecommons.org/ns#"
   xmlns:rdf="http://www.w3.org/1999/02/22-rdf-syntax-ns#"
   xmlns:svg="http://www.w3.org/2000/svg"
   xmlns="http://www.w3.org/2000/svg"
   xmlns:sodipodi="http://sodipodi.sourceforge.net/DTD/sodipodi-0.dtd"
   xmlns:inkscape="http://www.inkscape.org/namespaces/inkscape"
   width="256"
   height="256"
   id="svg2"
   version="1.1"
   inkscape:version="0.48.3.1 r9886"
   sodipodi:docname="dialog-question.svg">
  <defs
     id="defs4">
    <style
       id="style2991"
       type="text/css">
   
    .str3 {stroke:#1F1A17;stroke-width:1.05469}
    .str1 {stroke:#72706F;stroke-width:2.44157}
    .str2 {stroke:#1F1A17;stroke-width:2.76822}
    .str0 {stroke:#72706F;stroke-width:4.15233}
    .fil3 {fill:none}
    .fil1 {fill:#00923F}
    .fil2 {fill:#1F1A17}
    .fil0 {fill:#B8DB7C}
   
  </style>
    <style
       id="style3081"
       type="text/css">
   
    .str1 {stroke:#1F1A17;stroke-width:2.76822}
    .str0 {stroke:#72706F;stroke-width:4.15233}
    .fil1 {fill:none}
    .fil3 {fill:#00923F}
    .fil2 {fill:#1F1A17}
    .fil0 {fill:#B8DB7C}
   
  </style>
    <style
       id="style3135"
       type="text/css">
   
    .str1 {stroke:#1F1A17;stroke-width:2.76822}
    .str0 {stroke:#72706F;stroke-width:4.15233}
    .fil1 {fill:none}
    .fil3 {fill:#00923F}
    .fil2 {fill:#1F1A17}
    .fil0 {fill:#B8DB7C}
   
  </style>
    <style
       id="style3203"
       type="text/css">
   
    .str1 {stroke:#1F1A17;stroke-width:1.38411}
    .str2 {stroke:#1F1A17;stroke-width:2.76822}
    .str0 {stroke:#72706F;stroke-width:4.15233}
    .str4 {stroke:#1F1A17;stroke-width:0.895518}
    .str3 {stroke:#72706F;stroke-width:1.34259}
    .fil2 {fill:none}
    .fil0 {fill:#00923F}
    .fil1 {fill:#1F1A17}
    .fil3 {fill:#B8DB7C}
    .fil5 {fill:#1F1A17;fill-rule:nonzero}
    .fil4 {fill:#72706F;fill-rule:nonzero}
    .fil6 {fill:#B8DB7C;fill-rule:nonzero}
   
  </style>
    <style
       id="style3319"
       type="text/css">
   
    .str1 {stroke:#1F1A17;stroke-width:1.38411}
    .str2 {stroke:#1F1A17;stroke-width:2.76822}
    .str0 {stroke:#72706F;stroke-width:4.15233}
    .str4 {stroke:#1F1A17;stroke-width:0.895518}
    .str3 {stroke:#72706F;stroke-width:1.34259}
    .fil2 {fill:none}
    .fil0 {fill:#00923F}
    .fil1 {fill:#1F1A17}
    .fil3 {fill:#B8DB7C}
    .fil5 {fill:#1F1A17;fill-rule:nonzero}
    .fil4 {fill:#72706F;fill-rule:nonzero}
    .fil6 {fill:#B8DB7C;fill-rule:nonzero}
   
  </style>
    <style
       id="style3435"
       type="text/css">
   
    .str1 {stroke:#1F1A17;stroke-width:2.76822}
    .str0 {stroke:#72706F;stroke-width:4.15233}
    .fil1 {fill:none}
    .fil3 {fill:#00923F}
    .fil2 {fill:#1F1A17}
    .fil0 {fill:#B8DB7C}
   
  </style>
    <style
       id="style3502"
       type="text/css">
   
    .str3 {stroke:#1F1A17;stroke-width:1.05469}
    .str1 {stroke:#72706F;stroke-width:2.44157}
    .str2 {stroke:#1F1A17;stroke-width:2.76822}
    .str0 {stroke:#72706F;stroke-width:4.15233}
    .fil3 {fill:none}
    .fil1 {fill:#00923F}
    .fil2 {fill:#1F1A17}
    .fil0 {fill:#B8DB7C}
   
  </style>
    <style
       id="style3592"
       type="text/css">
   
    .str1 {stroke:#1F1A17;stroke-width:2.76822}
    .str0 {stroke:#72706F;stroke-width:4.15233}
    .fil1 {fill:none}
    .fil3 {fill:#00923F}
    .fil2 {fill:#1F1A17}
    .fil0 {fill:#B8DB7C}
   
  </style>
    <style
       id="style3646"
       type="text/css">
   
    .str1 {stroke:#1F1A17;stroke-width:2.76822}
    .str0 {stroke:#72706F;stroke-width:4.15233}
    .fil1 {fill:none}
    .fil3 {fill:#00923F}
    .fil2 {fill:#1F1A17}
    .fil0 {fill:#B8DB7C}
   
  </style>
    <style
       id="style3714"
       type="text/css">
   
    .str3 {stroke:#1F1A17;stroke-width:1.05469}
    .str1 {stroke:#72706F;stroke-width:2.44157}
    .str2 {stroke:#1F1A17;stroke-width:2.76822}
    .str0 {stroke:#72706F;stroke-width:4.15233}
    .fil3 {fill:none}
    .fil1 {fill:#00923F}
    .fil2 {fill:#1F1A17}
    .fil0 {fill:#B8DB7C}
   
  </style>
    <style
       id="style3804"
       type="text/css">
   
    .str1 {stroke:#1F1A17;stroke-width:2.76822}
    .str0 {stroke:#72706F;stroke-width:4.15233}
    .fil1 {fill:none}
    .fil3 {fill:#00923F}
    .fil2 {fill:#1F1A17}
    .fil0 {fill:#B8DB7C}
   
  </style>
    <style
       id="style3858"
       type="text/css">
   
    .str1 {stroke:#1F1A17;stroke-width:2.76822}
    .str0 {stroke:#72706F;stroke-width:4.15233}
    .fil1 {fill:none}
    .fil3 {fill:#00923F}
    .fil2 {fill:#1F1A17}
    .fil0 {fill:#B8DB7C}
   
  </style>
    <style
       id="style3926"
       type="text/css">
   
    .str2 {stroke:#1F1A17;stroke-width:1.05469}
    .str3 {stroke:#1F1A17;stroke-width:1.38411}
    .str1 {stroke:#1F1A17;stroke-width:2.76822}
    .str0 {stroke:#72706F;stroke-width:4.15233}
    .fil0 {fill:none}
    .fil3 {fill:#00923F}
    .fil1 {fill:#1F1A17}
    .fil2 {fill:#B8DB7C}
   
  </style>
    <style
       id="style3998"
       type="text/css">
   
    .str1 {stroke:#1F1A17;stroke-width:2.76822}
    .str0 {stroke:#72706F;stroke-width:4.15233}
    .fil2 {fill:none}
    .fil3 {fill:#00923F}
    .fil1 {fill:#1F1A17}
    .fil0 {fill:#B8DB7C}
   
  </style>
    <style
       id="style4042"
       type="text/css">
   
    .str1 {stroke:#1F1A17;stroke-width:2.76822}
    .str0 {stroke:#72706F;stroke-width:4.15233}
    .fil2 {fill:none}
    .fil3 {fill:#00923F}
    .fil1 {fill:#1F1A17}
    .fil0 {fill:#B8DB7C}
   
  </style>
    <style
       id="style4086"
       type="text/css">
   
    .str1 {stroke:#1F1A17;stroke-width:2.34375}
    .str0 {stroke:#72706F;stroke-width:3.51563}
    .fil3 {fill:none}
    .fil2 {fill:#1F1A17}
    .fil0 {fill:#00923F;fill-rule:nonzero}
    .fil1 {fill:#B8DB7C;fill-rule:nonzero}
   
  </style>
    <style
       id="style4130"
       type="text/css">
   
    .str1 {stroke:#1F1A17;stroke-width:2.76822}
    .str0 {stroke:#72706F;stroke-width:4.15233}
    .fil2 {fill:none}
    .fil3 {fill:#00923F}
    .fil1 {fill:#1F1A17}
    .fil0 {fill:#B8DB7C}
   
  </style>
    <style
       id="style4181"
       type="text/css">
   
    .str1 {stroke:#1F1A17;stroke-width:2.76822}
    .str0 {stroke:#72706F;stroke-width:4.15233}
    .fil2 {fill:none}
    .fil3 {fill:#00923F}
    .fil1 {fill:#1F1A17}
    .fil0 {fill:#B8DB7C}
   
  </style>
    <style
       id="style4232"
       type="text/css">
   
    .str0 {stroke:#1F1A17;stroke-width:1.84225}
    .str1 {stroke:#72706F;stroke-width:2.76406}
    .fil3 {fill:none}
    .fil4 {fill:#00923F}
    .fil2 {fill:#1F1A17}
    .fil0 {fill:#B8DB7C}
    .fil1 {fill:#72706F;fill-rule:nonzero}
   
  </style>
    <style
       id="style4418"
       type="text/css">
   
    .str0 {stroke:#1F1A17;stroke-width:1.84225}
    .str1 {stroke:#72706F;stroke-width:2.76406}
    .fil3 {fill:none}
    .fil4 {fill:#00923F}
    .fil2 {fill:#1F1A17}
    .fil0 {fill:#B8DB7C}
    .fil1 {fill:#72706F;fill-rule:nonzero}
   
  </style>
    <style
       id="style4604"
       type="text/css">
   
    .str0 {stroke:#1F1A17;stroke-width:1.84225}
    .str1 {stroke:#72706F;stroke-width:2.76406}
    .fil3 {fill:none}
    .fil4 {fill:#00923F}
    .fil2 {fill:#1F1A17}
    .fil0 {fill:#B8DB7C}
    .fil1 {fill:#72706F;fill-rule:nonzero}
   
  </style>
    <style
       id="style4790"
       type="text/css">
   
    .str0 {stroke:#1F1A17;stroke-width:1.84225}
    .str1 {stroke:#72706F;stroke-width:2.76406}
    .fil3 {fill:none}
    .fil4 {fill:#00923F}
    .fil2 {fill:#1F1A17}
    .fil0 {fill:#B8DB7C}
    .fil1 {fill:#72706F;fill-rule:nonzero}
   
  </style>
    <style
       id="style4976"
       type="text/css">
   
    .str1 {stroke:#1F1A17;stroke-width:2.76822}
    .str0 {stroke:#72706F;stroke-width:4.15233}
    .fil2 {fill:none}
    .fil3 {fill:#00923F}
    .fil1 {fill:#1F1A17}
    .fil0 {fill:#B8DB7C}
   
  </style>
    <style
       id="style5094"
       type="text/css">
   
    .str1 {stroke:#1F1A17;stroke-width:2.76822}
    .str0 {stroke:#72706F;stroke-width:4.15233}
    .fil2 {fill:none}
    .fil3 {fill:#00923F}
    .fil1 {fill:#1F1A17}
    .fil0 {fill:#B8DB7C}
   
  </style>
    <style
       id="style5138"
       type="text/css">
   
    .str1 {stroke:#1F1A17;stroke-width:2.76822}
    .str0 {stroke:#72706F;stroke-width:4.15233}
    .fil2 {fill:none}
    .fil3 {fill:#00923F}
    .fil1 {fill:#1F1A17}
    .fil0 {fill:#B8DB7C}
   
  </style>
    <style
       id="style5252"
       type="text/css">
   
    .str2 {stroke:#1F1A17;stroke-width:1.05469}
    .str1 {stroke:#1F1A17;stroke-width:2.76822}
    .str0 {stroke:#72706F;stroke-width:4.15233}
    .fil2 {fill:none}
    .fil3 {fill:#00923F}
    .fil1 {fill:#1F1A17}
    .fil0 {fill:#B8DB7C}
   
  </style>
  </defs>
  <sodipodi:namedview
     id="base"
     pagecolor="#ffffff"
     bordercolor="#666666"
     borderopacity="1.0"
     inkscape:pageopacity="0.0"
     inkscape:pageshadow="2"
     inkscape:zoom="2.5006994"
     inkscape:cx="127.6975"
     inkscape:cy="128.26499"
     inkscape:document-units="px"
     inkscape:current-layer="layer1"
     showgrid="false"
     showguides="true"
     inkscape:guide-bbox="true"
     inkscape:window-width="1918"
     inkscape:window-height="1032"
     inkscape:window-x="0"
     inkscape:window-y="25"
     inkscape:window-maximized="1" />
  <metadata
     id="metadata7">
    <rdf:RDF>
      <cc:Work
         rdf:about="">
        <dc:format>image/svg+xml</dc:format>
        <dc:type
           rdf:resource="http://purl.org/dc/dcmitype/StillImage" />
        <dc:title></dc:title>
      </cc:Work>
    </rdf:RDF>
  </metadata>
  <g
     inkscape:label="Capa 1"
     inkscape:groupmode="layer"
     id="layer1"
     transform="translate(0,-796.36218)">
    <g
       id="g3195"
       transform="matrix(0.51032324,0.51032324,-0.51032324,0.51032324,319.60992,64.670784)">
      <g
         style="fill:#b8db7d;fill-opacity:1;stroke:#737373;stroke-width:0.1874285;stroke-miterlimit:4;stroke-dasharray:none"
         transform="matrix(20.528319,0,0,20.528319,490.01821,866.07873)"
         id="g4907">
        <g
           inkscape:label="status"
           id="layer9"
           style="fill:#b8db7d;fill-opacity:1;stroke:#737373;stroke-width:0.1874285;stroke-miterlimit:4;stroke-dasharray:none;display:inline"
           transform="translate(-181.0002,-667)" />
        <g
           style="fill:#b8db7d;fill-opacity:1;stroke:#737373;stroke-width:0.1874285;stroke-miterlimit:4;stroke-dasharray:none"
           inkscape:label="devices"
           id="layer10"
           transform="translate(-181.0002,-667)" />
        <g
           style="fill:#b8db7d;fill-opacity:1;stroke:#737373;stroke-width:0.1874285;stroke-miterlimit:4;stroke-dasharray:none"
           inkscape:label="apps"
           id="layer11"
           transform="translate(-181.0002,-667)" />
        <g
           style="fill:#b8db7d;fill-opacity:1;stroke:#737373;stroke-width:0.1874285;stroke-miterlimit:4;stroke-dasharray:none"
           inkscape:label="places"
           id="layer13"
           transform="translate(-181.0002,-667)" />
        <g
           style="fill:#b8db7d;fill-opacity:1;stroke:#737373;stroke-width:0.1874285;stroke-miterlimit:4;stroke-dasharray:none"
           inkscape:label="mimetypes"
           id="layer14"
           transform="translate(-181.0002,-667)" />
        <g
           inkscape:label="emblems"
           id="layer15"
           style="fill:#b8db7d;fill-opacity:1;stroke:#737373;stroke-width:0.1874285;stroke-miterlimit:4;stroke-dasharray:none;display:inline"
           transform="translate(-181.0002,-667)" />
        <g
           inkscape:label="emotes"
           id="g71291"
           style="fill:#b8db7d;fill-opacity:1;stroke:#737373;stroke-width:0.1874285;stroke-miterlimit:4;stroke-dasharray:none;display:inline"
           transform="translate(-181.0002,-667)" />
        <g
           inkscape:label="categories"
           id="g4953"
           style="fill:#b8db7d;fill-opacity:1;stroke:#737373;stroke-width:0.1874285;stroke-miterlimit:4;stroke-dasharray:none;display:inline"
           transform="translate(-181.0002,-667)" />
        <g
           inkscape:label="actions"
           id="layer12"
           style="fill:#b8db7d;fill-opacity:1;stroke:#737373;stroke-width:0.1874285;stroke-miterlimit:4;stroke-dasharray:none;display:inline"
           transform="translate(-181.0002,-667)">
          <path
             sodipodi:nodetypes="sssssssss"
             d="m 184.1877,669 c -0.6627,0 -1.1875,0.54899 -1.1875,1.21875 l 0,9.5625 c 0,0.66976 0.5248,1.21875 1.1875,1.21875 l 9.625,0 c 0.6627,0 1.1875,-0.54899 1.1875,-1.21875 l 0,-9.5625 c 0,-0.66976 -0.5248,-1.21875 -1.1875,-1.21875 z"
             id="rect11749-5-0-1-8"
             style="color:#bebebe;fill:#b8db7d;fill-opacity:1;stroke:#737373;stroke-width:0.1874285;stroke-miterlimit:4;stroke-dasharray:none;marker:none;visibility:visible;display:inline;overflow:visible"
             inkscape:connector-curvature="0" />
        </g>
      </g>
      <path
         sodipodi:nodetypes="ccacacac"
         d="m 722.65386,1155.2326 c 24.2345,0.7631 34.39671,-0.9723 50.51719,-3.0302 7.96474,-5.221 4.0453,-18.6476 5.08558,-28.114 1.5759,-14.3405 1.72853,-43.2461 1.72853,-43.2461 0,0 -3.62048,10.8777 -5.2845,16.3624 -4.67729,15.4165 1.85432,36.5686 -13.20538,46.4923 -14.36655,4.8361 -16.94322,4.5811 -25.33903,7.1307 -4.52997,1.3757 -13.50239,4.4049 -13.50239,4.4049 z"
         class="fil1 str1"
         id="path3001"
         inkscape:connector-curvature="0"
         style="fill:#1f1a17;fill-rule:evenodd;stroke:none" />
      <path
         style="fill:#1f1a17;fill-rule:evenodd;stroke:none"
         inkscape:connector-curvature="0"
         id="path3826"
         class="fil1 str1"
         d="m 529.84049,958.2263 c 1.7732,-28.9082 -8.08967,-36.93137 4.07954,-49.64593 7.32853,-6.96411 21.31986,-3.632 32.09391,-3.95393 12.77731,-0.3818 38.27337,2.40818 38.27337,2.40818 l 0.1127,0.34777 c -43.34898,4.24502 -48.98207,-3.55199 -62.89712,9.60733 -8.0786,13.30051 -4.21285,20.49192 -7.37652,30.44211 -1.17305,3.6894 -4.28588,10.79447 -4.28588,10.79447 z"
         sodipodi:nodetypes="ccacccac" />
    </g>
    <path
       id="path5260"
       d="m 107.58573,914.41422 c 2.98904,0.85471 8.17467,1.77169 10.31021,3.90968 -2.56413,-10.2638 21.90493,-30.77192 30.7548,-33.3556 70.66233,-20.6265 94.01666,36.41301 52.75378,62.71721 -7.29188,4.64838 -11.59596,13.31265 -21.47391,17.9733"
       class="fil2"
       inkscape:connector-curvature="0"
       style="fill:none" />
    <g
       id="g3182"
       transform="matrix(-0.76906698,0,0,-0.76906698,195.71495,1619.3785)">
      <path
         style="fill:#00923f;fill-rule:evenodd;stroke:#72706f;stroke-width:3.66303706"
         inkscape:connector-curvature="0"
         class="fil3 str0"
         d="m 81.151592,837.869 c 9.930523,42.26044 -41.975934,47.93443 -61.112811,80.02015 -38.719513,64.9175 105.827069,116.86295 138.719449,20.62536 l -18.11127,-4.44815 c -9.05136,23.40064 -23.19678,34.56196 -51.116395,35.80978 -25.084429,0.3773 -44.449699,-6.55927 -54.272686,-24.61317 -3.258883,-9.13437 -7.639869,-19.8292 7.627659,-31.99539 25.288386,-20.14793 69.331492,-47.77573 59.653712,-75.89807 l -21.38719,0.4994 z"
         id="path5272" />
      <g
         transform="matrix(0.88216426,0,0,0.88216426,-1.8502728,793.18368)"
         id="_48608208"
         style="fill-rule:evenodd">
        <path
           style="fill:#1f1a17;stroke:#1f1a17;stroke-width:2.76821995"
           inkscape:connector-curvature="0"
           id="_67907752"
           class="fil1 str1"
           d="m 171.292,161.413 -3.04781,-0.24499 -3.38968,-0.68236 -3.29418,-1.06161 -0.58686,-0.35987 0.0138,0.29343 -0.11903,1.39241 c -1.24293,7.50325 -7.14062,14.8224 -12.5054,19.7734 -6.97729,6.43749 -14.1304,13.0854 -22.9208,16.6688 -17.974,7.33578 -42.865804,8.414 -60.856504,0.58963 -15.6473,-6.80566 -26.8905,-22.4558 -25.3043,-39.8692 1.08653,-11.9366 7.65412,-21.927 16.4017,-29.7459 l 13.8895,-10.2466 11.74,-10.6756 7.83959,-4.20354 0.262981,0.55918 -23.5285,21.5824 c -8.84999,7.78284 -16.9124,14.2397 -20.1609,26.1915 -5.7745,21.2295 10.5704,38.2429 30.103,43.144 29.860803,7.49772 65.569403,-2.48586 81.237503,-30.5611 1.34397,-2.40558 1.35643,-4.17032 1.481,-6.71154 0.13702,-2.92324 2.97168,-0.0111 3.84229,0.44845 l 8.90259,3.7191 z" />
      </g>
      <path
         style="fill:none"
         inkscape:connector-curvature="0"
         class="fil2"
         d="m 149.25741,935.57558 c -2.99026,-0.85471 -8.17467,-1.77169 -10.31021,-3.90968 2.5629,10.2638 -21.90493,30.77191 -30.7548,33.3556 -70.663566,20.6265 -94.017542,-36.41301 -52.755014,-62.71721 7.293099,-4.64838 11.597196,-13.31265 21.475142,-17.9733"
         id="path5276" />
      <g
         transform="matrix(0.88216426,0,0,0.88216426,-1.8502728,793.18368)"
         id="_67620632"
         style="fill-rule:evenodd">
        <path
           style="fill:#1f1a17;stroke:#1f1a17;stroke-width:2.76821995"
           inkscape:connector-curvature="0"
           id="_67739312"
           class="fil1 str1"
           d="m 18.6993,161.343 c 0.351564,-5.52951 0.222841,-11.1282 2.31285,-16.2591 9.23754,-22.6468 35.083,-34.9626 51.9193,-50.938 7.88803,-7.48388 15.7664,-15.675 18.2799,-26.6233 l 1.03808,-8.15932 -0.834617,-9.17664 0.04568,-0.01246 c -0.182702,-0.715584 0.0346,-1.463 0.985485,-1.6983 0.640842,-0.156404 1.42978,0.250524 1.66093,0.866452 l 0.186855,0.10796 0.484438,0.182702 10.110899,1.37027 0,0.596551 c -2.65057,0.355716 -6.928849,1.48238 -10.188399,0.826313 1.48653,8.39323 1.97374,16.1692 -1.65124,24.4614 -12.7559,29.165902 -45.5884,39.624302 -64.84,63.084902 -5.41879,6.60497 -7.1074,13.4314 -9.51021,21.3706 z m 75.3495,-112.031 -0.03875,-0.04844 -0.02768,-0.01107 0.03599,0.04014 0.03045,0.01938 z" />
      </g>
      <path
         style="fill:none"
         inkscape:connector-curvature="0"
         class="fil2"
         d="m 14.645581,935.51471 c 0,-39.77079 76.887055,-51.7452 65.35461,-98.35691 0.426133,1.71064 8.116061,1.28329 10.678951,1.28329"
         id="path5280" />
      <ellipse
         d="m 19.3388,0 c 0,11.609302 -8.658275,21.0205 -19.3388,21.0205 -10.680525,0 -19.3388,-9.411198 -19.3388,-21.0205 0,-11.609302 8.658275,-21.0205 19.3388,-21.0205 10.680525,0 19.3388,9.411198 19.3388,21.0205 z"
         style="fill:#00923f;fill-opacity:1;fill-rule:evenodd;stroke:#72706f;stroke-width:4.15232992"
         sodipodi:ry="21.0205"
         sodipodi:rx="19.3388"
         sodipodi:cy="0"
         sodipodi:cx="0"
         cy="0"
         cx="0"
         class="fil0 str0"
         transform="matrix(-0.75024718,-0.37135146,0.27279342,-0.58265714,88.984417,815.30783)"
         rx="19.3388"
         ry="21.0205"
         id="ellipse5282" />
      <g
         transform="matrix(0.88216426,0,0,0.88216426,-1.8502728,793.18368)"
         id="_67687976"
         style="fill-rule:evenodd">
        <path
           style="fill:#1f1a17;stroke:#1f1a17;stroke-width:1.05469"
           inkscape:connector-curvature="0"
           id="_67686408"
           class="fil1 str2"
           d="m 98.7908,8.01122 c 10.7075,-1.59588 22.8032,6.82781 26.8503,16.9484 2.76545,6.91639 -8.99255,16.0723 -15.412,17.1034 -3.29003,0.530114 -5.91153,-0.460908 -8.97179,-2.00557 l 0.0138,-0.02768 c 12.8085,4.17032 17.9851,-8.92612 15.246,-18.3062 C 114.07969,13.37186 107.57438,8.2035698 98.790811,8.0111698 z" />
      </g>
      <path
         style="fill:none"
         inkscape:connector-curvature="0"
         class="fil2"
         d="m 85.29944,800.25089 c 0.929193,-0.19902 5.926785,-0.30647 7.206409,0.37729 6.40176,3.4225 13.985481,12.33954 12.377381,18.4263 -2.24788,5.74608 -8.438403,14.24678 -17.401836,9.45548"
         id="path5286" />
    </g>
  </g>
</svg>
