<?xml version="1.0" encoding="UTF-8" standalone="no"?>
<!-- Created with Inkscape (http://www.inkscape.org/) -->

<svg
   xmlns:dc="http://purl.org/dc/elements/1.1/"
   xmlns:cc="http://creativecommons.org/ns#"
   xmlns:rdf="http://www.w3.org/1999/02/22-rdf-syntax-ns#"
   xmlns:svg="http://www.w3.org/2000/svg"
   xmlns="http://www.w3.org/2000/svg"
   xmlns:sodipodi="http://sodipodi.sourceforge.net/DTD/sodipodi-0.dtd"
   xmlns:inkscape="http://www.inkscape.org/namespaces/inkscape"
   width="256"
   height="256"
   id="svg2"
   version="1.1"
   inkscape:version="0.48.3.1 r9886"
   sodipodi:docname="network-idle.svg">
  <defs
     id="defs4">
    <style
       id="style2991"
       type="text/css">
   
    .str3 {stroke:#1F1A17;stroke-width:1.05469}
    .str1 {stroke:#72706F;stroke-width:2.44157}
    .str2 {stroke:#1F1A17;stroke-width:2.76822}
    .str0 {stroke:#72706F;stroke-width:4.15233}
    .fil3 {fill:none}
    .fil1 {fill:#00923F}
    .fil2 {fill:#1F1A17}
    .fil0 {fill:#B8DB7C}
   
  </style>
    <style
       id="style3081"
       type="text/css">
   
    .str1 {stroke:#1F1A17;stroke-width:2.76822}
    .str0 {stroke:#72706F;stroke-width:4.15233}
    .fil1 {fill:none}
    .fil3 {fill:#00923F}
    .fil2 {fill:#1F1A17}
    .fil0 {fill:#B8DB7C}
   
  </style>
    <style
       id="style3135"
       type="text/css">
   
    .str1 {stroke:#1F1A17;stroke-width:2.76822}
    .str0 {stroke:#72706F;stroke-width:4.15233}
    .fil1 {fill:none}
    .fil3 {fill:#00923F}
    .fil2 {fill:#1F1A17}
    .fil0 {fill:#B8DB7C}
   
  </style>
    <style
       id="style3203"
       type="text/css">
   
    .str1 {stroke:#1F1A17;stroke-width:1.38411}
    .str2 {stroke:#1F1A17;stroke-width:2.76822}
    .str0 {stroke:#72706F;stroke-width:4.15233}
    .str4 {stroke:#1F1A17;stroke-width:0.895518}
    .str3 {stroke:#72706F;stroke-width:1.34259}
    .fil2 {fill:none}
    .fil0 {fill:#00923F}
    .fil1 {fill:#1F1A17}
    .fil3 {fill:#B8DB7C}
    .fil5 {fill:#1F1A17;fill-rule:nonzero}
    .fil4 {fill:#72706F;fill-rule:nonzero}
    .fil6 {fill:#B8DB7C;fill-rule:nonzero}
   
  </style>
    <style
       id="style3319"
       type="text/css">
   
    .str1 {stroke:#1F1A17;stroke-width:1.38411}
    .str2 {stroke:#1F1A17;stroke-width:2.76822}
    .str0 {stroke:#72706F;stroke-width:4.15233}
    .str4 {stroke:#1F1A17;stroke-width:0.895518}
    .str3 {stroke:#72706F;stroke-width:1.34259}
    .fil2 {fill:none}
    .fil0 {fill:#00923F}
    .fil1 {fill:#1F1A17}
    .fil3 {fill:#B8DB7C}
    .fil5 {fill:#1F1A17;fill-rule:nonzero}
    .fil4 {fill:#72706F;fill-rule:nonzero}
    .fil6 {fill:#B8DB7C;fill-rule:nonzero}
   
  </style>
    <style
       id="style3435"
       type="text/css">
   
    .str1 {stroke:#1F1A17;stroke-width:2.76822}
    .str0 {stroke:#72706F;stroke-width:4.15233}
    .fil1 {fill:none}
    .fil3 {fill:#00923F}
    .fil2 {fill:#1F1A17}
    .fil0 {fill:#B8DB7C}
   
  </style>
    <style
       id="style3502"
       type="text/css">
   
    .str3 {stroke:#1F1A17;stroke-width:1.05469}
    .str1 {stroke:#72706F;stroke-width:2.44157}
    .str2 {stroke:#1F1A17;stroke-width:2.76822}
    .str0 {stroke:#72706F;stroke-width:4.15233}
    .fil3 {fill:none}
    .fil1 {fill:#00923F}
    .fil2 {fill:#1F1A17}
    .fil0 {fill:#B8DB7C}
   
  </style>
    <style
       id="style3592"
       type="text/css">
   
    .str1 {stroke:#1F1A17;stroke-width:2.76822}
    .str0 {stroke:#72706F;stroke-width:4.15233}
    .fil1 {fill:none}
    .fil3 {fill:#00923F}
    .fil2 {fill:#1F1A17}
    .fil0 {fill:#B8DB7C}
   
  </style>
    <style
       id="style3646"
       type="text/css">
   
    .str1 {stroke:#1F1A17;stroke-width:2.76822}
    .str0 {stroke:#72706F;stroke-width:4.15233}
    .fil1 {fill:none}
    .fil3 {fill:#00923F}
    .fil2 {fill:#1F1A17}
    .fil0 {fill:#B8DB7C}
   
  </style>
    <style
       id="style3714"
       type="text/css">
   
    .str3 {stroke:#1F1A17;stroke-width:1.05469}
    .str1 {stroke:#72706F;stroke-width:2.44157}
    .str2 {stroke:#1F1A17;stroke-width:2.76822}
    .str0 {stroke:#72706F;stroke-width:4.15233}
    .fil3 {fill:none}
    .fil1 {fill:#00923F}
    .fil2 {fill:#1F1A17}
    .fil0 {fill:#B8DB7C}
   
  </style>
    <style
       id="style3804"
       type="text/css">
   
    .str1 {stroke:#1F1A17;stroke-width:2.76822}
    .str0 {stroke:#72706F;stroke-width:4.15233}
    .fil1 {fill:none}
    .fil3 {fill:#00923F}
    .fil2 {fill:#1F1A17}
    .fil0 {fill:#B8DB7C}
   
  </style>
    <style
       id="style3858"
       type="text/css">
   
    .str1 {stroke:#1F1A17;stroke-width:2.76822}
    .str0 {stroke:#72706F;stroke-width:4.15233}
    .fil1 {fill:none}
    .fil3 {fill:#00923F}
    .fil2 {fill:#1F1A17}
    .fil0 {fill:#B8DB7C}
   
  </style>
    <style
       id="style3926"
       type="text/css">
   
    .str2 {stroke:#1F1A17;stroke-width:1.05469}
    .str3 {stroke:#1F1A17;stroke-width:1.38411}
    .str1 {stroke:#1F1A17;stroke-width:2.76822}
    .str0 {stroke:#72706F;stroke-width:4.15233}
    .fil0 {fill:none}
    .fil3 {fill:#00923F}
    .fil1 {fill:#1F1A17}
    .fil2 {fill:#B8DB7C}
   
  </style>
    <style
       id="style3998"
       type="text/css">
   
    .str1 {stroke:#1F1A17;stroke-width:2.76822}
    .str0 {stroke:#72706F;stroke-width:4.15233}
    .fil2 {fill:none}
    .fil3 {fill:#00923F}
    .fil1 {fill:#1F1A17}
    .fil0 {fill:#B8DB7C}
   
  </style>
    <style
       id="style4042"
       type="text/css">
   
    .str1 {stroke:#1F1A17;stroke-width:2.76822}
    .str0 {stroke:#72706F;stroke-width:4.15233}
    .fil2 {fill:none}
    .fil3 {fill:#00923F}
    .fil1 {fill:#1F1A17}
    .fil0 {fill:#B8DB7C}
   
  </style>
    <style
       id="style4086"
       type="text/css">
   
    .str1 {stroke:#1F1A17;stroke-width:2.34375}
    .str0 {stroke:#72706F;stroke-width:3.51563}
    .fil3 {fill:none}
    .fil2 {fill:#1F1A17}
    .fil0 {fill:#00923F;fill-rule:nonzero}
    .fil1 {fill:#B8DB7C;fill-rule:nonzero}
   
  </style>
    <style
       id="style4130"
       type="text/css">
   
    .str1 {stroke:#1F1A17;stroke-width:2.76822}
    .str0 {stroke:#72706F;stroke-width:4.15233}
    .fil2 {fill:none}
    .fil3 {fill:#00923F}
    .fil1 {fill:#1F1A17}
    .fil0 {fill:#B8DB7C}
   
  </style>
    <style
       id="style4181"
       type="text/css">
   
    .str1 {stroke:#1F1A17;stroke-width:2.76822}
    .str0 {stroke:#72706F;stroke-width:4.15233}
    .fil2 {fill:none}
    .fil3 {fill:#00923F}
    .fil1 {fill:#1F1A17}
    .fil0 {fill:#B8DB7C}
   
  </style>
    <style
       id="style4232"
       type="text/css">
   
    .str0 {stroke:#1F1A17;stroke-width:1.84225}
    .str1 {stroke:#72706F;stroke-width:2.76406}
    .fil3 {fill:none}
    .fil4 {fill:#00923F}
    .fil2 {fill:#1F1A17}
    .fil0 {fill:#B8DB7C}
    .fil1 {fill:#72706F;fill-rule:nonzero}
   
  </style>
    <style
       id="style4418"
       type="text/css">
   
    .str0 {stroke:#1F1A17;stroke-width:1.84225}
    .str1 {stroke:#72706F;stroke-width:2.76406}
    .fil3 {fill:none}
    .fil4 {fill:#00923F}
    .fil2 {fill:#1F1A17}
    .fil0 {fill:#B8DB7C}
    .fil1 {fill:#72706F;fill-rule:nonzero}
   
  </style>
    <style
       id="style4604"
       type="text/css">
   
    .str0 {stroke:#1F1A17;stroke-width:1.84225}
    .str1 {stroke:#72706F;stroke-width:2.76406}
    .fil3 {fill:none}
    .fil4 {fill:#00923F}
    .fil2 {fill:#1F1A17}
    .fil0 {fill:#B8DB7C}
    .fil1 {fill:#72706F;fill-rule:nonzero}
   
  </style>
    <style
       id="style4790"
       type="text/css">
   
    .str0 {stroke:#1F1A17;stroke-width:1.84225}
    .str1 {stroke:#72706F;stroke-width:2.76406}
    .fil3 {fill:none}
    .fil4 {fill:#00923F}
    .fil2 {fill:#1F1A17}
    .fil0 {fill:#B8DB7C}
    .fil1 {fill:#72706F;fill-rule:nonzero}
   
  </style>
  </defs>
  <sodipodi:namedview
     id="base"
     pagecolor="#ffffff"
     bordercolor="#666666"
     borderopacity="1.0"
     inkscape:pageopacity="0.0"
     inkscape:pageshadow="2"
     inkscape:zoom="2.566294"
     inkscape:cx="285.65713"
     inkscape:cy="92.344283"
     inkscape:document-units="px"
     inkscape:current-layer="layer1"
     showgrid="false"
     showguides="true"
     inkscape:guide-bbox="true"
     inkscape:window-width="1918"
     inkscape:window-height="1032"
     inkscape:window-x="0"
     inkscape:window-y="25"
     inkscape:window-maximized="1" />
  <metadata
     id="metadata7">
    <rdf:RDF>
      <cc:Work
         rdf:about="">
        <dc:format>image/svg+xml</dc:format>
        <dc:type
           rdf:resource="http://purl.org/dc/dcmitype/StillImage" />
        <dc:title></dc:title>
      </cc:Work>
    </rdf:RDF>
  </metadata>
  <g
     inkscape:label="Capa 1"
     inkscape:groupmode="layer"
     id="layer1"
     transform="translate(0,-796.36218)">
    <g
       style="fill-rule:evenodd"
       id="g4237"
       transform="matrix(0.88716097,0,0,0.88716097,-3.9704036,784.25254)">
      <path
         style="fill:#b8db7c"
         inkscape:connector-curvature="0"
         id="_67754416"
         class="fil0"
         d="m 31.3584,32.0504 96.8668,-0.283742 c 12.3892,-0.03599 22.572,6.42088 22.6288,14.3463 l 0.46368,64.860702 c 0.0567,7.92956 -10.0334,14.4446 -22.4239,14.4805 l -96.865504,0.28236 c -12.3892,0.0374 -22.5734,-6.4195 -22.6302,-14.3477 L 8.935784,46.529516 c -0.056748,-7.92679 10.0334,-14.4432 22.4226,-14.4792 z" />
      <path
         style="fill:#72706f;fill-rule:nonzero"
         inkscape:connector-curvature="0"
         id="_677544161"
         class="fil1"
         d="m 128.225,30.3909 0,2.75161 -96.8668,0.283742 0,-2.75161 96.8668,-0.283742 0,0 z m 24.006,15.7166 -2.75438,0.01107 0,0 -0.0346,-0.625617 -0.0761,-0.620081 -0.12734,-0.615928 -0.17716,-0.610392 -0.22008,-0.599319 -0.27128,-0.593783 -0.31696,-0.586862 -0.36125,-0.577173 -0.40832,-0.567485 -0.44983,-0.555028 -0.49966,-0.546723 -0.53842,-0.53565 -0.58548,-0.514888 -0.62008,-0.498279 -0.66299,-0.489974 -0.70174,-0.460908 -0.73358,-0.448451 -0.77233,-0.424921 -0.80694,-0.398623 -0.83738,-0.38063 -0.87476,-0.355716 -0.8969,-0.323881 -0.92459,-0.305888 -0.95503,-0.271285 -0.9758,-0.244987 -1.00348,-0.213153 -1.02562,-0.185471 -1.03947,-0.153636 -1.06438,-0.120417 -1.07684,-0.08305 -1.09621,-0.0526 -1.11698,-0.01523 0,-2.75161 1.19172,0.01523 1.1848,0.0526 1.17372,0.09412 1.15019,0.128722 1.13635,0.164709 1.11144,0.196543 1.08929,0.235298 1.07268,0.267133 1.04362,0.304504 1.02147,0.325266 0.99379,0.368173 0.96057,0.388935 0.93427,0.422153 0.90383,0.453988 0.86922,0.477517 0.84154,0.503816 0.79863,0.53565 0.76264,0.553643 0.72804,0.586862 0.68237,0.611776 0.64638,0.632538 0.59655,0.654683 0.55779,0.685134 0.5052,0.705895 0.45814,0.729425 0.40278,0.747419 0.34879,0.76818 0.29482,0.793094 0.22976,0.804167 0.17163,0.820776 0.10935,0.836002 0.0346,0.852611 0,0 z m -2.2907,64.8718 0,0 -0.46368,-64.8607 2.75438,-0.01107 0.46368,64.8607 -2.75438,0.0111 z m -21.0468,15.8508 0,-2.75161 0,0 1.1059,-0.0221 1.0976,-0.0595 1.07822,-0.09 1.05746,-0.12595 1.04362,-0.15918 1.01732,-0.18685 1.00071,-0.22007 0.97718,-0.25053 0.94673,-0.28097 0.91905,-0.30727 0.8969,-0.33496 0.86369,-0.35571 0.83184,-0.38479 0.80002,-0.40416 0.7668,-0.42907 0.73219,-0.4526 0.68928,-0.46645 0.65746,-0.48859 0.61177,-0.50381 0.57718,-0.5232 0.53011,-0.53288 0.48997,-0.54672 0.44015,-0.56333 0.40001,-0.56887 0.3571,-0.57856 0.30727,-0.58409 0.26298,-0.59794 0.209,-0.59932 0.16748,-0.60624 0.11626,-0.61731 0.072,-0.62147 0.0235,-0.63669 2.75438,-0.0111 -0.0235,0.84154 -0.0941,0.83739 -0.16056,0.82216 -0.22007,0.81108 -0.28651,0.79587 -0.33773,0.76956 -0.39308,0.75572 -0.44292,0.73081 -0.49689,0.71005 -0.54811,0.68237 -0.58963,0.66298 -0.63807,0.64085 -0.67406,0.61177 -0.71974,0.58963 -0.75434,0.56333 -0.79725,0.54119 -0.82908,0.50797 -0.86368,0.48167 -0.8969,0.45952 -0.92874,0.42631 -0.96057,0.4 -0.98272,0.36818 -1.0187,0.33772 -1.04362,0.30312 -1.063,0.27267 -1.08653,0.24222 -1.11421,0.209 -1.12943,0.17024 -1.15435,0.13426 -1.1668,0.10104 -1.18341,0.0595 -1.20279,0.0221 0,0 z m -96.8655,-2.46925 0,0 96.8655,-0.28236 0,2.75161 -96.8655,0.28236 0,-2.75161 z m -24.0074,-12.9663 2.75438,-0.0111 0,0 0.0346,0.62561 0.07613,0.62147 0.127338,0.61593 0.177166,0.61039 0.220073,0.59793 0.271285,0.59517 0.316961,0.58686 0.361252,0.57718 0.409696,0.56748 0.453988,0.55503 0.495511,0.54811 0.537034,0.53426 0.585478,0.51489 0.620081,0.5052 0.662988,0.48444 0.703127,0.46091 0.732193,0.44845 0.773717,0.42492 0.805551,0.39862 0.83877,0.37925 0.873373,0.3571 0.898286,0.32249 0.924585,0.30728 0.955035,0.2699 0.975797,0.24498 1.00348,0.21316 1.02562,0.18685 1.03947,0.15225 1.06438,0.12042 1.07684,0.0831 1.09621,0.0526 1.11698,0.0152 0,2.75161 -1.19172,-0.0152 -1.1848,-0.0526 -1.17372,-0.0941 -1.15019,-0.12872 -1.13635,-0.16333 -1.11144,-0.19793 -1.08929,-0.23529 -1.07268,-0.26714 -1.04362,-0.30312 -1.02147,-0.32665 -0.995174,-0.36679 -0.959187,-0.39032 -0.935657,-0.42076 -0.902439,-0.45399 -0.870604,-0.47752 -0.840154,-0.50382 -0.800015,-0.53565 -0.762644,-0.55918 -0.728041,-0.58271 -0.682366,-0.61177 -0.644995,-0.63116 -0.603471,-0.65606 -0.550875,-0.68514 -0.506584,-0.70589 -0.4581403,-0.72943 -0.402776,-0.74742 -0.348795,-0.76956 -0.294815,-0.79171 -0.229762,-0.80417 -0.171629,-0.82077 -0.109345,-0.83739 -0.034603,-0.85261 0,0 z m 2.29208,-64.8704 0,0 0.462292,64.8593 -2.75438,0.0111 L 7.5583,46.535223 10.31268,46.52415 z m 21.0454,-15.8494 0,2.75161 0,0 -1.1059,0.02215 -1.09621,0.05952 -1.0796,0.08997 -1.05746,0.125954 -1.04223,0.159172 -1.01732,0.186855 -1.00071,0.220073 -0.977181,0.250524 -0.94673,0.282358 -0.919048,0.305888 -0.898286,0.334954 -0.8623,0.355716 -0.831849,0.384782 -0.801399,0.40416 -0.765412,0.430458 -0.732193,0.452604 -0.689286,0.46506 -0.657452,0.488591 -0.611776,0.503816 -0.577173,0.523192 -0.530114,0.532883 -0.489974,0.546723 -0.440147,0.563332 -0.400007,0.568869 -0.3571,0.578557 -0.307272,0.584094 -0.262981,0.597935 -0.209,0.597935 -0.167477,0.60624 -0.116265,0.617312 -0.07197,0.621465 -0.02353,0.63669 -2.7543804,0.01107 0.02353,-0.841538 0.094119,-0.837386 0.160557,-0.822161 0.220073,-0.811088 0.28651,-0.794478 0.337722,-0.769564 0.393087,-0.755723 0.442915,-0.730809 0.4968954,-0.710048 0.548107,-0.682366 0.58963,-0.662988 0.638074,-0.640842 0.674061,-0.611776 0.719736,-0.58963 0.754339,-0.563332 0.797247,-0.539802 0.829081,-0.507968 0.8623,-0.483054 0.898286,-0.459524 0.928737,-0.426305 0.959187,-0.400007 0.984101,-0.368173 1.0187,-0.336338 1.04362,-0.304504 1.063,-0.272669 1.08653,-0.242219 1.11421,-0.209 1.12805,-0.170245 1.15435,-0.134259 1.16819,-0.10104 1.18203,-0.05952 1.20279,-0.02215 0,0 z" />
    </g>
    <g
       style="fill-rule:evenodd"
       id="_67755776"
       transform="matrix(0.88716097,0,0,0.88716097,-3.9704036,784.25254)">
      <path
         style="fill:#1f1a17;stroke:#1f1a17;stroke-width:1.84224999"
         inkscape:connector-curvature="0"
         id="_68398000"
         class="fil2 str0"
         d="m 151.254,65.7313 1.99035,26.0808 c -0.37509,11.5919 0.19793,28.8877 -13.9435,32.5445 -4.79317,1.23878 -9.7289,1.88239 -14.6785,1.95298 l -48.9573,-0.81386 -0.0069,-0.30173 48.8992,-2.54953 c 6.11776,-0.38617 12.9483,-0.98964 18.2785,-4.3987 7.67627,-4.91359 7.09632,-19.337402 7.74547,-26.570702 l 0.67268,-25.9437 z" />
    </g>
    <path
       style="fill:none"
       inkscape:connector-curvature="0"
       class="fil3"
       d="m 130.21535,842.56803 c 1.73629,7.18828 0.84973,39.4115 -3.08087,44.80704 -3.64448,5.00257 -11.11524,7.14039 -20.57388,7.30861 l -43.407189,0.76992"
       id="path4243" />
    <g
       style="fill-rule:evenodd"
       id="_68352328"
       transform="matrix(0.88716097,0,0,0.88716097,-3.9704036,784.25254)">
      <path
         style="fill:#1f1a17;stroke:#1f1a17;stroke-width:1.84224999"
         inkscape:connector-curvature="0"
         id="_68228656"
         class="fil2 str0"
         d="m 71.7467,31.8733 c -17.5574,0.653299 -38.6014,-1.7329 -54.0979,8.33925 -4.10527,2.66441 -5.8091,8.19392 -6.22295,12.7366 l -0.703127,20.8682 -1.46716,14.4861 -0.275438,0 -0.58271,-28.5071 c -0.089967,-7.17937 -0.809704,-15.0646 4.62846,-20.7173 5.69699,-5.9226 13.9269,-7.82575 21.8426,-8.63822 12.4777,-1.28307 24.4724,0.287895 36.8782,1.43255 z" />
    </g>
    <path
       style="fill:none"
       inkscape:connector-curvature="0"
       class="fil3"
       d="m 59.680468,812.53044 c -7.640159,0 -16.689982,-0.93076 -24.309275,-0.51327 -23.787447,1.30037 -32.2011928,7.68068 -30.5581707,25.159 0.3168052,3.3682 -0.6950063,21.56484 -0.6950063,25.41565"
       id="path4247" />
    <path
       id="path4251"
       d="m 90.208831,834.67859 -46.748415,-0.1363 c -5.980006,-0.0172 -10.89416,3.09683 -10.922371,6.92305 l -0.223483,31.30232 c -0.02579,3.82499 4.84294,6.97094 10.82292,6.98936 l 46.748413,0.13508 c 5.980006,0.0185 10.894155,-3.09928 10.919975,-6.92428 l 0.22471,-31.30108 c 0.0271,-3.82622 -4.842941,-6.97094 -10.821678,-6.98813 z"
       class="fil4"
       inkscape:connector-curvature="0"
       style="fill:#72706f;fill-rule:evenodd;fill-opacity:1" />
    <path
       d="m 43.460771,833.32053 0,0 46.748415,0.1363 0,2.44357 -46.748415,-0.1363 0,-2.44357 z m -12.14417,8.13993 0,0 0.01719,-0.45679 0.05894,-0.44819 0.09209,-0.43715 0.121565,-0.42731 0.157175,-0.42241 0.184189,-0.41136 0.212431,-0.39293 0.240674,-0.37698 0.262776,-0.37083 0.291019,-0.35487 0.308209,-0.33891 0.332768,-0.32908 0.349959,-0.31067 0.372062,-0.29593 0.388025,-0.28979 0.406444,-0.26892 0.427319,-0.25418 0.439598,-0.24067 0.455561,-0.23085 0.470296,-0.21243 0.481348,-0.19401 0.499766,-0.18542 0.512045,-0.16332 0.521869,-0.15103 0.536604,-0.13384 0.543972,-0.11788 0.553795,-0.097 0.56853,-0.0823 0.572214,-0.0639 0.582037,-0.0479 0.593089,-0.0258 0.590632,-0.007 0,2.44358 -0.524324,0.007 -0.507134,0.0258 -0.503451,0.0381 -0.496082,0.054 -0.482576,0.0724 -0.477664,0.0872 -0.467839,0.0982 -0.45065,0.1142 -0.443281,0.12402 -0.426091,0.14367 -0.413812,0.14612 -0.405216,0.167 -0.384341,0.17313 -0.369607,0.18174 -0.353643,0.19401 -0.33154,0.20506 -0.318033,0.21244 -0.30207,0.21366 -0.276283,0.22962 -0.264004,0.23208 -0.23699,0.2333 -0.222255,0.24313 -0.19524,0.2419 -0.176822,0.24559 -0.154719,0.25172 -0.1363,0.2505 -0.115425,0.24681 -0.09087,0.2505 -0.0749,0.25541 -0.0528,0.25541 -0.02947,0.25664 -0.01719,0.25541 0,0 -2.443579,-0.01 z m -0.223483,31.30232 0,0 0.223483,-31.30232 2.443579,0.01 -0.223483,31.30232 -2.443579,-0.01 z m 12.044719,8.21606 0,0 -0.600456,-0.0111 -0.588178,-0.0282 -0.580809,-0.0516 -0.577125,-0.0675 -0.562391,-0.0847 -0.557479,-0.10561 -0.541516,-0.12156 -0.530465,-0.1363 -0.523096,-0.14981 -0.510818,-0.16945 -0.492399,-0.18419 -0.482576,-0.20138 -0.469067,-0.21612 -0.451878,-0.23084 -0.437142,-0.24559 -0.418723,-0.25541 -0.406444,-0.27628 -0.384341,-0.28734 -0.370834,-0.30207 -0.345048,-0.31189 -0.329085,-0.33154 -0.303298,-0.34505 -0.286107,-0.35241 -0.26032,-0.37207 -0.23085,-0.38311 -0.207519,-0.39417 -0.182961,-0.41135 -0.148579,-0.42363 -0.116653,-0.42732 -0.08718,-0.44328 -0.04911,-0.4482 -0.01228,-0.44697 2.443578,0.01 0.01228,0.26524 0.02947,0.25664 0.04789,0.25172 0.06999,0.25541 0.08964,0.24927 0.106829,0.24927 0.131389,0.25173 0.154719,0.24804 0.174365,0.24681 0.190329,0.24681 0.217343,0.23945 0.233306,0.23576 0.259093,0.23577 0.2726,0.22593 0.298386,0.22103 0.310665,0.20752 0.332768,0.20874 0.351187,0.19647 0.365922,0.18419 0.383113,0.17682 0.396621,0.16455 0.416267,0.15472 0.422407,0.13998 0.437142,0.13261 0.454333,0.11666 0.465384,0.10191 0.471524,0.086 0.48626,0.0749 0.49117,0.0577 0.502222,0.0418 0.512045,0.0282 0.514501,0.011 0,0 0,2.44358 z m 46.748413,-2.3085 0,2.44358 -46.748413,-0.13507 0,-2.44358 46.748413,0.13507 0,0 z m 12.14177,-5.69758 0,0 -0.0172,0.45679 -0.0589,0.44328 -0.0909,0.44206 -0.12156,0.43223 -0.1584,0.41626 -0.18297,0.40645 -0.21243,0.39907 -0.24067,0.37697 -0.26277,0.37084 -0.28611,0.34996 -0.31189,0.34382 -0.334001,0.32417 -0.348734,0.31681 -0.373291,0.29961 -0.386793,0.27997 -0.406444,0.27383 -0.422404,0.25418 -0.444512,0.2419 -0.455557,0.22962 -0.471526,0.21366 -0.480123,0.19278 -0.499764,0.18174 -0.512043,0.16822 -0.521872,0.15104 -0.5366,0.13384 -0.543971,0.11788 -0.553802,0.0982 -0.568528,0.0811 -0.57221,0.0651 -0.585721,0.0467 -0.589412,0.0258 -0.590628,0.007 0,-2.44358 0.524321,-0.007 0.510819,-0.0258 0.499764,-0.0368 0.496083,-0.0553 0.48258,-0.0712 0.477665,-0.0884 0.467836,-0.0982 0.450651,-0.1142 0.443279,-0.12402 0.426094,-0.13876 0.413808,-0.15226 0.403995,-0.16577 0.385569,-0.17436 0.3696,-0.18051 0.348734,-0.19524 0.336456,-0.20506 0.318029,-0.20752 0.300846,-0.22348 0.277512,-0.22349 0.262769,-0.22839 0.23822,-0.23822 0.216113,-0.23821 0.200152,-0.24682 0.176829,-0.24558 0.154712,-0.25173 0.136303,-0.24681 0.114196,-0.25173 0.0921,-0.25418 0.07488,-0.2505 0.05154,-0.25049 0.02945,-0.26155 0.01721,-0.25541 0,0 2.44358,0.01 z m 0.22471,-31.30108 0,0 -0.22471,31.30108 -2.443575,-0.01 0.224709,-31.30108 2.443576,0.01 z m -12.043474,-8.21483 0,0 0.600458,0.011 0.588179,0.0282 0.580806,0.0503 0.577134,0.0688 0.561156,0.0847 0.552568,0.10438 0.546429,0.12156 0.530469,0.1363 0.523097,0.14981 0.507128,0.17068 0.497315,0.18296 0.482572,0.20138 0.467844,0.21612 0.4531,0.23085 0.435915,0.24435 0.419955,0.25541 0.406444,0.27751 0.383112,0.28734 0.370833,0.30207 0.34504,0.31189 0.3291,0.33032 0.30329,0.34504 0.28733,0.35365 0.2591,0.37083 0.23085,0.38434 0.20751,0.39417 0.17928,0.41135 0.15226,0.42241 0.11789,0.42855 0.086,0.44328 0.0491,0.44819 0.0122,0.44697 -2.443581,-0.01 -0.01224,-0.26524 -0.02945,-0.25663 -0.04666,-0.25173 -0.07124,-0.25664 -0.08597,-0.24804 -0.110514,-0.24927 -0.131389,-0.25172 -0.15472,-0.24927 -0.173139,-0.24559 -0.191556,-0.24804 -0.217345,-0.23944 -0.233306,-0.23454 -0.259086,-0.23576 -0.272607,-0.22594 -0.297155,-0.22102 -0.310666,-0.20875 -0.333998,-0.20875 -0.349958,-0.19524 -0.367152,-0.18419 -0.381878,-0.17682 -0.396623,-0.16454 -0.411359,-0.15349 -0.428543,-0.14122 -0.43714,-0.13261 -0.454333,-0.11665 -0.460481,-0.10192 -0.476432,-0.0847 -0.485029,-0.0749 -0.491176,-0.0589 -0.502222,-0.0405 -0.512043,-0.0283 -0.5145,-0.011 0,0 0,-2.44358 z"
       class="fil1"
       id="1"
       inkscape:connector-curvature="0"
       style="fill:#72706f;fill-rule:nonzero" />
    <g
       style="fill-rule:evenodd"
       id="g4254"
       transform="matrix(0.88716097,0,0,0.88716097,-3.9704036,784.25254)">
      <path
         style="fill:#1f1a17;stroke:#1f1a17;stroke-width:1.84224999"
         inkscape:connector-curvature="0"
         class="fil2 str0"
         d="m 40.9364,75.1626 -1.08237,14.1871 c 0.20208,6.306 -0.10796,15.7152 7.5863,17.7027 2.60489,0.67268 5.29006,1.02424 7.98215,1.063 l 26.633,-0.44153 0.0028,-0.16609 -26.5998,-1.38549 c -3.3274,-0.21039 -7.04373,-0.53981 -9.94344,-2.39451 -4.17724,-2.66995 -3.86028,-10.519204 -4.21323,-14.454204 l -0.365405,-14.111 z"
         id="path4256" />
    </g>
    <path
       style="fill:none"
       inkscape:connector-curvature="0"
       class="fil3"
       d="m 32.346773,850.93387 c -0.944277,3.90971 -0.461701,21.43957 1.676122,24.37439 1.983106,2.72231 6.047537,3.88516 11.192511,3.97602 l 23.613032,0.41872"
       id="path4258" />
    <g
       style="fill-rule:evenodd"
       id="g4260"
       transform="matrix(0.88716097,0,0,0.88716097,-3.9704036,784.25254)">
      <path
         style="fill:#1f1a17;stroke:#1f1a17;stroke-width:1.84224999"
         inkscape:connector-curvature="0"
         class="fil2 str0"
         d="m 84.187,56.7443 c 9.55173,0.354332 20.9997,-0.943962 29.4289,4.53434 2.23257,1.45193 3.15992,4.4596 3.38415,6.93023 l 0.3834,11.3525 0.79863,7.88111 0.14948,0 0.31696,-15.5089 c 0.0484,-3.90457 0.43877,-8.19392 -2.51908,-11.2694 -3.09902,-3.2222 -7.57523,-4.25752 -11.8798,-4.69905 -6.789046,-0.697591 -13.313696,0.15502 -20.062696,0.779253 z"
         id="path4262" />
    </g>
    <path
       style="fill:none"
       inkscape:connector-curvature="0"
       class="fil3"
       d="m 70.717017,834.59387 c 4.156535,0 9.079294,-0.50591 13.223578,-0.27997 12.939864,0.70851 17.517615,4.17864 16.623715,13.6865 -0.17191,1.83329 0.3782,11.73164 0.3782,13.82649"
       id="path4264" />
    <rect
       style="fill:#00923f;fill-rule:evenodd;stroke:#72706f;stroke-width:2.45216608"
       class="fil4 str1"
       x="18.473173"
       y="896.50592"
       width="94.691124"
       height="15.064526"
       rx="19.176517"
       ry="19.176517"
       id="rect4266" />
    <g
       style="fill-rule:evenodd"
       id="g4268"
       transform="matrix(0.88716097,0,0,0.88716097,-3.9704036,784.25254)">
      <path
         style="fill:#1f1a17;stroke:#1f1a17;stroke-width:1.84224999"
         inkscape:connector-curvature="0"
         class="fil2 str0"
         d="m 32.7549,126.375 c -1.88654,0.87199 -4.06651,1.58204 -4.97725,3.63329 -1.94052,4.37101 1.06853,9.27491 5.3911,10.2286 8.99532,1.98481 18.0197,1.03116 27.1396,1.25262 l 48.5974,2.36129 -0.004,0.17993 -67.037902,0.7585 c -4.22707,-0.4014 -13.3027,-1.10729 -15.2293,-6.26724 -1.25677,-3.36892 -2.11492,-8.26313 1.14881,-10.814 1.56404,-1.22217 3.08656,-1.29829 4.97172,-1.3329 z"
         id="path4270" />
    </g>
    <path
       style="fill:none"
       inkscape:connector-curvature="0"
       class="fil3"
       d="m 25.087223,896.36839 c -7.451061,1.03883 -5.740561,7.22636 -4.470883,10.38946 2.207815,5.49866 21.961492,4.84785 28.91648,4.84785 13.908732,0 29.202588,0 43.111321,0.34628"
       id="path4272" />
    <g
       style="fill-rule:evenodd"
       id="g4274"
       transform="matrix(0.88716097,0,0,0.88716097,-3.9704036,784.25254)">
      <path
         style="fill:#b8db7c"
         inkscape:connector-curvature="0"
         class="fil0"
         d="m 167.759,173.614 96.8668,-0.28097 c 12.3892,-0.0374 22.5734,6.41811 22.6302,14.3463 l 0.46229,64.8607 c 0.0581,7.92679 -10.0334,14.4432 -22.4239,14.4792 l -96.8655,0.28235 c -12.3905,0.0374 -22.572,-6.4195 -22.6288,-14.3477 l -0.46367,-64.8607 c -0.0567,-7.92679 10.0334,-14.4418 22.4226,-14.4792 z"
         id="path4276" />
      <path
         style="fill:#72706f;fill-rule:nonzero"
         inkscape:connector-curvature="0"
         id="path4278"
         class="fil1"
         d="m 264.626,174.709 0,0 -96.8668,0.28097 0,-2.75161 96.8668,-0.28097 0,2.75161 z m 24.0074,12.9649 -2.75438,0.0111 0,0 -0.0346,-0.62561 -0.0761,-0.62147 -0.12734,-0.61593 -0.17716,-0.61039 -0.22008,-0.59793 -0.27128,-0.59517 -0.31696,-0.58686 -0.36125,-0.57718 -0.4097,-0.56748 -0.44845,-0.55503 -0.50105,-0.54672 -0.53703,-0.53565 -0.58548,-0.51489 -0.62008,-0.49828 -0.66299,-0.48997 -0.70313,-0.4623 -0.73219,-0.44706 -0.77372,-0.42631 -0.80555,-0.39724 -0.83877,-0.38063 -0.87337,-0.35571 -0.89829,-0.32388 -0.92458,-0.30589 -0.95504,-0.2699 -0.97579,-0.24499 -1.00348,-0.21315 -1.02562,-0.18686 -1.03947,-0.15225 -1.06438,-0.12042 -1.07684,-0.083 -1.09621,-0.0526 -1.11698,-0.0152 0,-2.75161 1.19172,0.0152 1.1848,0.0526 1.17372,0.0941 1.15019,0.12872 1.13635,0.16332 1.11144,0.19793 1.08929,0.2353 1.07268,0.26713 1.04362,0.30312 1.02147,0.32527 0.99517,0.36817 0.95919,0.38894 0.93566,0.42215 0.90243,0.4526 0.87061,0.47891 0.84015,0.50243 0.80002,0.53703 0.76264,0.55364 0.72804,0.58687 0.68237,0.61177 0.64499,0.63254 0.59794,0.65468 0.55641,0.68514 0.50658,0.70589 0.45814,0.72943 0.40278,0.74742 0.3488,0.76956 0.29481,0.79171 0.22976,0.80417 0.17163,0.82077 0.10935,0.83739 0.0346,0.85261 0,0 z m -2.29208,64.8718 0,0 -0.46229,-64.8607 2.75438,-0.0111 0.46229,64.8607 -2.75438,0.0111 z m -21.0468,15.8494 0,-2.75161 0,0 1.1059,-0.0222 1.0976,-0.0595 1.07822,-0.09 1.05746,-0.12595 1.04362,-0.15918 1.01732,-0.18685 1.00071,-0.22007 0.97718,-0.25053 0.94673,-0.28236 0.91905,-0.30588 0.89828,-0.33496 0.8623,-0.35571 0.83324,-0.38479 0.80001,-0.40416 0.7668,-0.43045 0.73081,-0.45261 0.68928,-0.46506 0.65746,-0.48859 0.61316,-0.50381 0.57717,-0.5232 0.52873,-0.53288 0.48997,-0.54672 0.44015,-0.56333 0.40001,-0.56887 0.3571,-0.57856 0.30865,-0.58409 0.25606,-0.59794 0.21454,-0.59793 0.16748,-0.60624 0.11626,-0.61732 0.072,-0.62146 0.0235,-0.63669 2.75438,-0.0111 -0.0235,0.84153 -0.0941,0.83739 -0.16056,0.82216 -0.22007,0.81109 -0.28098,0.79448 -0.34187,0.76956 -0.39447,0.75572 -0.44292,0.73081 -0.49689,0.71005 -0.54811,0.68237 -0.58963,0.66299 -0.63669,0.64084 -0.67406,0.61177 -0.72112,0.58963 -0.75434,0.56334 -0.79725,0.5398 -0.8277,0.50797 -0.86368,0.48305 -0.8969,0.45952 -0.93012,0.42631 -0.95919,0.40001 -0.9841,0.36817 -1.0187,0.33634 -1.04362,0.3045 -1.063,0.27267 -1.08653,0.24222 -1.11421,0.209 -1.12943,0.17024 -1.15435,0.13426 -1.1668,0.10104 -1.18341,0.0595 -1.20279,0.0222 0,0 z m -96.8655,-2.46925 0,0 96.8655,-0.28236 0,2.75161 -96.8655,0.28236 0,-2.75161 z m -24.006,-12.9663 2.75438,-0.0111 0,0 0.0346,0.62561 0.0761,0.62147 0.12734,0.61593 0.17716,0.61039 0.22008,0.59793 0.27128,0.59517 0.31696,0.58686 0.36125,0.57718 0.40832,0.56748 0.45537,0.55503 0.49412,0.54811 0.53842,0.53426 0.5841,0.51489 0.62008,0.49966 0.66437,0.48998 0.70174,0.46091 0.7322,0.44845 0.77371,0.42492 0.80555,0.39862 0.83877,0.37925 0.87338,0.3571 0.89828,0.32249 0.92459,0.30728 0.95503,0.2699 0.97441,0.24498 1.00486,0.21316 1.02424,0.18685 1.04085,0.15225 1.06438,0.12042 1.07684,0.0831 1.09621,0.0526 1.11698,0.0152 0,2.75161 -1.19172,-0.0152 -1.1848,-0.0526 -1.17372,-0.0941 -1.15019,-0.12872 -1.13774,-0.16333 -1.11006,-0.19793 -1.09068,-0.2353 -1.0713,-0.26713 -1.04362,-0.30312 -1.02147,-0.32665 -0.99517,-0.36679 -0.95919,-0.39032 -0.93565,-0.42077 -0.90244,-0.45398 -0.87061,-0.47752 -0.84015,-0.50382 -0.79863,-0.53565 -0.76403,-0.55364 -0.72804,-0.58825 -0.68098,-0.61177 -0.64638,-0.63116 -0.60209,-0.65606 -0.55226,-0.68514 -0.5052,-0.70589 -0.45814,-0.72943 -0.40277,-0.74742 -0.3488,-0.76956 -0.29481,-0.79171 -0.22976,-0.80417 -0.17163,-0.82077 -0.10935,-0.83739 -0.0346,-0.85261 0,0 z m 2.2907,-64.8718 0,0 0.46368,64.8607 -2.75438,0.0111 -0.46368,-64.8607 2.75438,-0.0111 z m 21.0454,-15.8494 0,2.75161 0,0 -1.1059,0.0222 -1.09621,0.0595 -1.0796,0.09 -1.05746,0.12595 -1.04223,0.15918 -1.01732,0.18823 -1.00071,0.21869 -0.97718,0.25191 -0.94673,0.28098 -0.91905,0.30727 -0.89829,0.33357 -0.8623,0.3571 -0.83184,0.38478 -0.8014,0.40278 -0.76542,0.43045 -0.73219,0.45261 -0.68928,0.46644 -0.65746,0.48859 -0.61177,0.50382 -0.57718,0.52181 -0.53011,0.53288 -0.48997,0.54672 -0.44015,0.56333 -0.40001,0.56887 -0.3571,0.57856 -0.30727,0.58409 -0.26298,0.59794 -0.209,0.59793 -0.16748,0.60624 -0.11626,0.61732 -0.072,0.62146 -0.0235,0.63669 -2.75438,0.0111 0.0235,-0.84153 0.0941,-0.83739 0.16056,-0.82216 0.22007,-0.81109 0.28651,-0.79448 0.33773,-0.76956 0.39308,-0.75572 0.44292,-0.73081 0.49689,-0.71005 0.54811,-0.68237 0.58963,-0.66298 0.63807,-0.64085 0.67406,-0.61039 0.71974,-0.58963 0.75434,-0.56333 0.79725,-0.54119 0.82908,-0.50796 0.8623,-0.48306 0.89828,-0.45814 0.92874,-0.4263 0.95919,-0.40139 0.9841,-0.36679 1.0187,-0.33773 1.04362,-0.30312 1.063,-0.27405 1.08653,-0.24083 1.11421,-0.21039 1.12805,-0.17024 1.15435,-0.13426 1.16819,-0.10104 1.18203,-0.0595 1.20279,-0.0222 0,0 z" />
    </g>
    <g
       style="fill-rule:evenodd"
       id="g4280"
       transform="matrix(0.88716097,0,0,0.88716097,-3.9704036,784.25254)">
      <path
         style="fill:#1f1a17;stroke:#1f1a17;stroke-width:1.84224999"
         inkscape:connector-curvature="0"
         class="fil2 str0"
         d="m 287.657,207.297 1.98896,26.0808 c -0.37371,11.5919 0.19793,28.8877 -13.9435,32.5445 -4.79317,1.23739 -9.7289,1.881 -14.6785,1.95159 l -48.9573,-0.8097 -0.006,-0.30589 48.8978,-2.54814 c 6.11776,-0.38478 12.9483,-0.99102 18.2785,-4.3987 7.67765,-4.9122 7.09494,-19.3374 7.74547,-26.5693 l 0.67406,-25.9451 z"
         id="path4282" />
    </g>
    <path
       style="fill:none"
       inkscape:connector-curvature="0"
       class="fil3"
       d="m 251.22589,968.15923 c 1.73628,7.18829 0.84972,39.41147 -3.0821,44.80707 -3.64448,5.0026 -11.11524,7.1404 -20.57388,7.3086 l -43.40719,0.7699"
       id="path4284" />
    <g
       style="fill-rule:evenodd"
       id="g4286"
       transform="matrix(0.88716097,0,0,0.88716097,-3.9704036,784.25254)">
      <path
         style="fill:#1f1a17;stroke:#1f1a17;stroke-width:1.84224999"
         inkscape:connector-curvature="0"
         class="fil2 str0"
         d="m 208.148,173.44 c -17.5574,0.65191 -38.6014,-1.73429 -54.0979,8.33649 -4.10388,2.66579 -5.8091,8.19669 -6.22295,12.7366 l -0.70313,20.8696 -1.46716,14.4861 -0.27544,0 -0.58271,-28.5071 c -0.0886,-7.17937 -0.80831,-15.0633 4.62984,-20.7173 5.69561,-5.92122 13.9269,-7.82575 21.8412,-8.63961 12.4777,-1.28168 24.4724,0.28928 36.8782,1.43532 z"
         id="path4288" />
    </g>
    <path
       style="fill:none"
       inkscape:connector-curvature="0"
       class="fil3"
       d="m 180.69038,938.12174 c -7.64016,0 -16.68874,-0.93077 -24.30804,-0.51328 -23.78744,1.30038 -32.20234,7.68069 -30.55941,25.159 0.31681,3.3682 -0.69378,21.56484 -0.69378,25.41565"
       id="path4290" />
    <path
       id="path4294"
       d="m 211.21847,960.26971 -46.74841,-0.13753 c -5.97877,-0.016 -10.89292,3.09929 -10.92237,6.92551 l -0.22225,31.30108 c -0.0271,3.82623 4.84171,6.96973 10.82167,6.98813 l 46.74842,0.1375 c 5.98001,0.016 10.89416,-3.0993 10.92122,-6.92548 l 0.22347,-31.30108 c 0.0271,-3.82622 -4.84294,-6.96971 -10.82167,-6.98813 z"
       class="fil4"
       inkscape:connector-curvature="0"
       style="fill:#72706f;fill-rule:evenodd;fill-opacity:1" />
    <path
       d="m 164.47041,958.91058 0,0 46.74842,0.13753 0,2.44358 -46.74842,-0.13753 0,-2.44358 z m -12.14417,8.14238 0,0 0.0172,-0.45679 0.0589,-0.44819 0.0921,-0.43714 0.12157,-0.43346 0.1584,-0.41626 0.18419,-0.40645 0.2112,-0.39294 0.24068,-0.38311 0.264,-0.36961 0.29101,-0.35486 0.30822,-0.33892 0.32785,-0.32417 0.35365,-0.3168 0.37328,-0.29962 0.38803,-0.28488 0.40644,-0.26891 0.42242,-0.25418 0.4445,-0.24191 0.45557,-0.22962 0.46537,-0.21366 0.48627,-0.19401 0.49854,-0.18542 0.51327,-0.16331 0.52064,-0.15103 0.53783,-0.13385 0.54274,-0.11788 0.5538,-0.0982 0.56853,-0.0811 0.57221,-0.0651 0.58204,-0.0479 0.59309,-0.0258 0.59063,-0.007 0,2.44358 -0.52432,0.007 -0.50714,0.0258 -0.50345,0.038 -0.49608,0.0553 -0.48257,0.0712 -0.47767,0.0884 -0.46661,0.0982 -0.45188,0.1142 -0.44205,0.12402 -0.42732,0.14367 -0.41258,0.14612 -0.40031,0.167 -0.38925,0.17436 -0.36961,0.18051 -0.34873,0.19524 -0.33645,0.20507 -0.31804,0.21243 -0.30207,0.21857 -0.27751,0.22348 -0.25786,0.2284 -0.2419,0.23822 -0.22226,0.24312 -0.19523,0.2419 -0.17806,0.24436 -0.15472,0.24805 -0.13507,0.25049 -0.11543,0.25173 -0.0921,0.25418 -0.0749,0.25172 -0.0528,0.25541 -0.0294,0.25663 -0.0172,0.25542 0,0 -2.44358,-0.01 z m -0.22225,31.30108 0,0 0.22225,-31.30108 2.44358,0.01 -0.22225,31.30108 -2.44358,-0.01 z m 12.04348,8.21486 0,0 -0.60046,-0.011 -0.58818,-0.028 -0.5808,-0.052 -0.57714,-0.067 -0.56239,-0.085 -0.55256,-0.1056 -0.54642,-0.1154 -0.53047,-0.1412 -0.5231,-0.1499 -0.51082,-0.1706 -0.4924,-0.1842 -0.48257,-0.2014 -0.46907,-0.2149 -0.45187,-0.2321 -0.43592,-0.2443 -0.41996,-0.2554 -0.40644,-0.2763 -0.38434,-0.2874 -0.3696,-0.302 -0.34505,-0.3119 -0.33031,-0.3316 -0.3033,-0.3438 -0.28611,-0.3536 -0.25909,-0.3709 -0.23085,-0.3843 -0.20752,-0.3942 -0.17927,-0.4113 -0.15227,-0.4224 -0.11788,-0.42857 -0.086,-0.44328 -0.0491,-0.44819 -0.0122,-0.44697 2.44358,0.01 0.0122,0.26523 0.0295,0.25664 0.0467,0.25173 0.0712,0.25663 0.086,0.24804 0.11052,0.24927 0.13139,0.25173 0.15472,0.2493 0.17313,0.2456 0.19034,0.248 0.21733,0.2382 0.23454,0.2358 0.25909,0.2357 0.27137,0.226 0.29839,0.221 0.31067,0.2075 0.33399,0.2088 0.34996,0.1952 0.36592,0.1854 0.38311,0.1756 0.39663,0.1646 0.41626,0.1547 0.42241,0.1412 0.43714,0.1326 0.45434,0.1118 0.46047,0.1055 0.47644,0.086 0.48625,0.075 0.49118,0.058 0.50222,0.042 0.51204,0.028 0.5145,0.011 0,0 0,2.4436 z m 46.74841,0.1375 0,0 -46.74841,-0.1375 0,-2.4436 46.74841,0.1375 0,2.4436 z m 12.14293,-8.14238 0,0 -0.0172,0.45679 -0.0589,0.4482 -0.0921,0.43714 -0.12156,0.42855 -0.15718,0.4212 -0.18419,0.4064 -0.2112,0.393 -0.24068,0.3831 -0.264,0.3696 -0.28611,0.3499 -0.31189,0.3439 -0.334,0.3241 -0.34873,0.3168 -0.37329,0.2996 -0.3868,0.28 -0.40644,0.2738 -0.4224,0.2542 -0.44452,0.2419 -0.45555,0.2296 -0.46661,0.2137 -0.48504,0.194 -0.49977,0.1854 -0.51204,0.1634 -0.52187,0.151 -0.5366,0.1338 -0.54397,0.1179 -0.5538,0.098 -0.56853,0.081 -0.57221,0.065 -0.58204,0.048 -0.59309,0.026 -0.59063,0.01 0,-2.4436 0.52432,-0.01 0.50714,-0.026 0.50345,-0.038 0.49608,-0.055 0.48257,-0.071 0.47767,-0.088 0.46784,-0.098 0.45065,-0.1142 0.44328,-0.124 0.42609,-0.1436 0.41382,-0.1462 0.39907,-0.167 0.39048,-0.1743 0.3696,-0.1805 0.34874,-0.1953 0.33645,-0.2051 0.31803,-0.2075 0.30085,-0.2235 0.27751,-0.2234 0.26278,-0.2284 0.23821,-0.2382 0.21612,-0.2383 0.20015,-0.2468 0.17805,-0.2443 0.15472,-0.2481 0.13507,-0.2505 0.11543,-0.2517 0.0909,-0.24926 0.0749,-0.25664 0.0528,-0.25542 0.0294,-0.25663 0.0172,-0.25541 0,0 2.44357,0.01 z m 0.22348,-31.30108 0,0 -0.22348,31.30108 -2.44358,-0.01 0.22348,-31.30108 2.44358,0.01 z m -12.04348,-8.21483 0,0 0.60046,0.0111 0.58818,0.0282 0.5808,0.0515 0.57713,0.0675 0.56116,0.0847 0.55257,0.10561 0.54643,0.11542 0.53047,0.14121 0.5231,0.14981 0.51204,0.17068 0.4924,0.18419 0.48257,0.20138 0.46785,0.21489 0.4531,0.23207 0.43591,0.24436 0.41996,0.25542 0.40644,0.27628 0.38311,0.28733 0.37083,0.30207 0.34505,0.3119 0.32908,0.33153 0.3033,0.33891 0.28734,0.35856 0.25909,0.37083 0.23085,0.38435 0.20752,0.39415 0.17928,0.41136 0.15226,0.42241 0.11788,0.42855 0.086,0.44328 0.0491,0.44819 0.0122,0.44697 -2.44358,-0.01 -0.0122,-0.26522 -0.0294,-0.25664 -0.0467,-0.25172 -0.0712,-0.25664 -0.086,-0.24804 -0.11052,-0.24928 -0.13138,-0.25172 -0.15473,-0.24927 -0.17313,-0.24559 -0.19156,-0.24313 -0.21735,-0.24312 -0.2333,-0.23576 -0.25909,-0.23577 -0.2726,-0.22594 -0.29716,-0.22103 -0.31066,-0.20751 -0.334,-0.20875 -0.34996,-0.19524 -0.36715,-0.18542 -0.38188,-0.17559 -0.39662,-0.16454 -0.41627,-0.15472 -0.42364,-0.14121 -0.43714,-0.13263 -0.45433,-0.11173 -0.46048,-0.1056 -0.47643,-0.086 -0.48503,-0.0749 -0.49118,-0.0577 -0.50222,-0.0418 -0.51204,-0.0282 -0.5145,-0.0111 0,0 0,-2.44358 z"
       class="fil1"
       id="path4296"
       inkscape:connector-curvature="0"
       style="fill:#72706f;fill-rule:nonzero" />
    <g
       style="fill-rule:evenodd"
       id="g4298"
       transform="matrix(0.88716097,0,0,0.88716097,-3.9704036,784.25254)">
      <path
         style="fill:#1f1a17;stroke:#1f1a17;stroke-width:1.84224999"
         inkscape:connector-curvature="0"
         class="fil2 str0"
         d="m 177.338,216.728 -1.08237,14.1871 c 0.20485,6.30461 -0.10796,15.7138 7.58492,17.7027 2.60766,0.67406 5.29145,1.02424 7.98492,1.063 l 26.633,-0.44153 0.003,-0.16609 -26.5984,-1.38549 c -3.32878,-0.21039 -7.04511,-0.53981 -9.94482,-2.39312 -4.17724,-2.67133 -3.86028,-10.5206 -4.21461,-14.4542 l -0.36541,-14.1124 z"
         id="path4300" />
    </g>
    <path
       style="fill:none"
       inkscape:connector-curvature="0"
       class="fil3"
       d="m 153.35784,976.52516 c -0.94551,3.90972 -0.46293,21.43958 1.67612,24.37444 1.98187,2.7223 6.04631,3.8851 11.19136,3.976 l 23.61303,0.4187"
       id="path4302" />
    <g
       style="fill-rule:evenodd"
       id="g4304"
       transform="matrix(0.88716097,0,0,0.88716097,-3.9704036,784.25254)">
      <path
         style="fill:#1f1a17;stroke:#1f1a17;stroke-width:1.84224999"
         inkscape:connector-curvature="0"
         class="fil2 str0"
         d="m 220.59,198.308 c 9.55035,0.35572 20.9983,-0.94119 29.4275,4.53572 2.23257,1.45055 3.1613,4.4596 3.38553,6.92885 l 0.38201,11.3538 0.79863,7.87973 0.15087,0 0.31558,-15.5076 c 0.0498,-3.90595 0.44015,-8.19392 -2.51908,-11.2694 -3.09625,-3.22082 -7.57523,-4.25752 -11.8798,-4.69905 -6.78905,-0.69897 -13.3137,0.1564 -20.0613,0.77787 z"
         id="path4306" />
    </g>
    <path
       style="fill:none"
       inkscape:connector-curvature="0"
       class="fil3"
       d="m 191.72843,960.18543 c 4.15531,0 9.07806,-0.5059 13.22358,-0.27997 12.93987,0.70852 17.51762,4.17864 16.62371,13.6865 -0.17313,1.83329 0.37698,11.73164 0.37698,13.82649"
       id="path4308" />
    <rect
       style="fill:#00923f;fill-rule:evenodd;stroke:#72706f;stroke-width:2.45216608"
       class="fil4 str1"
       x="139.48352"
       y="1022.0977"
       width="94.691124"
       height="15.064526"
       rx="19.176517"
       ry="19.176517"
       id="rect4310" />
    <g
       style="fill-rule:evenodd"
       id="g4312"
       transform="matrix(0.88716097,0,0,0.88716097,-3.9704036,784.25254)">
      <path
         style="fill:#1f1a17;stroke:#1f1a17;stroke-width:1.84224999"
         inkscape:connector-curvature="0"
         class="fil2 str0"
         d="m 169.156,267.941 c -1.88654,0.87199 -4.06651,1.58065 -4.97725,3.6319 -1.94052,4.3724 1.06715,9.27491 5.39249,10.2286 8.99532,1.98481 18.0183,1.03116 27.1368,1.25262 l 48.6002,2.36267 -0.006,0.17993 -67.0379,0.75711 c -4.22707,-0.40278 -13.3027,-1.10867 -15.228,-6.26863 -1.25677,-3.36754 -2.1163,-8.26174 1.14881,-10.814 1.56266,-1.22078 3.08518,-1.29553 4.97033,-1.33013 z"
         id="path4314" />
    </g>
    <path
       style="fill:none"
       inkscape:connector-curvature="0"
       class="fil3"
       d="m 146.0982,1021.9593 c -7.45106,1.0389 -5.74179,7.2264 -4.47089,10.3895 2.20782,5.4987 21.96025,4.8478 28.91524,4.8478 13.90873,0 29.20383,0 43.11256,0.3463"
       id="path4316" />
    <path
       style="fill:#00923f;fill-rule:evenodd;stroke:#72706f;stroke-width:2.45216608"
       inkscape:connector-curvature="0"
       class="fil4 str1"
       d="m 107.73381,985.69752 -15.546788,15.73588 -0.04791,-10.27283 C 49.376537,989.55075 29.805855,966.13048 23.004347,923.65401 l 9.511519,-0.0958 c 0.472752,32.62845 15.918861,61.6505 58.915916,59.93021 l 0.564847,-13.33776 15.737081,15.54679 z"
       id="path4318" />
    <g
       style="fill-rule:evenodd"
       id="g4320"
       transform="matrix(0.88716097,0,0,0.88716097,-3.9704036,784.25254)">
      <path
         style="fill:#1f1a17;stroke:#1f1a17;stroke-width:1.84224999"
         inkscape:connector-curvature="0"
         class="fil2 str0"
         d="m 30.3756,165.455 c 6.47209,19.9076 12.0805,39.0443 29.8469,51.947 13.34,9.68876 29.4331,11.7179 45.1455,14.9193 l 0,0.57856 c -10.3877,-0.22284 -20.7713,-0.12873 -30.9224,-2.34191 -16.3588,-3.56408 -28.5943,-14.5774 -36.092,-29.1549 -6.2797,-12.2092 -6.42088,-22.298 -7.978,-35.9481 z"
         id="path4322" />
    </g>
    <path
       style="fill:none"
       inkscape:connector-curvature="0"
       class="fil3"
       d="m 22.97649,931.03865 c 3.896216,24.97482 7.632796,27.86412 12.867471,36.28523 12.647633,20.34429 41.280487,23.29135 53.664101,23.29259"
       id="path4324" />
    <g
       style="fill-rule:evenodd"
       id="g4326"
       transform="matrix(0.88716097,0,0,0.88716097,-3.9704036,784.25254)">
      <path
         style="fill:#1f1a17"
         inkscape:connector-curvature="0"
         class="fil2"
         d="m 106.1,224.442 -0.004,-0.0291 -0.25053,-1.93637 -1.29829,-10.331 c -0.17301,-1.75782 -2.40558,-12.1234 3.86305,-9.55589 3.19175,1.3066 5.89907,6.98836 7.69011,9.90053 l 10.6992,14.1594 -0.28651,0.36818 c -6.54407,-3.80353 -11.7248,-7.5254 -16.8321,-12.8044 l -0.48859,5.29698 -0.50935,3.08933 c -0.0581,0.31973 -0.77372,4.39039 -2.36129,3.30525 -0.54534,-0.3751 -0.40969,-0.94673 -0.22146,-1.463 z"
         id="path4328" />
    </g>
    <path
       style="fill:none"
       inkscape:connector-curvature="0"
       class="fil3"
       d="m 90.258512,983.10169 c 1.518943,5.05414 0.850956,-10.51109 0.750263,-16.53038 0.751487,1.50298 2.627762,3.38048 3.378025,4.50895 0.750263,1.12723 2.252023,2.25447 2.626538,3.38048 0,0 1.64665,1.95854 1.876274,2.25447 2.448488,3.15086 6.127358,6.14701 9.504158,8.77599"
       id="path4330" />
    <path
       style="fill:#00923f;fill-rule:evenodd;stroke:#72706f;stroke-width:2.45216608"
       inkscape:connector-curvature="0"
       class="fil4 str1"
       d="m 150.04695,864.13659 15.54555,-15.73592 0.0479,10.27288 c 42.76258,1.60981 62.33326,25.03009 69.13477,67.50656 l -9.51028,0.0946 c -0.47398,-32.62721 -15.9201,-61.64935 -58.91715,-59.92897 l -0.56485,13.33776 -15.73593,-15.54679 z"
       id="path4332" />
    <g
       style="fill-rule:evenodd"
       id="g4334"
       transform="matrix(0.88716097,0,0,0.88716097,-3.9704036,784.25254)">
      <path
         style="fill:#1f1a17;stroke:#1f1a17;stroke-width:1.84224999"
         inkscape:connector-curvature="0"
         class="fil2 str0"
         d="M 269.144,151.657 C 262.67052,131.748 257.0621,112.6113 239.2985,99.7114 225.9557,90.02126 209.8627,87.9922 194.1503,84.7893 l 0,-0.578557 c 10.3877,0.221457 20.7699,0.13149 30.9238,2.34191 16.356,3.56546 28.5915,14.580197 36.0906,29.154897 6.2797,12.2106 6.42088,22.2994 7.97939,35.9495 z"
         id="path4336" />
    </g>
    <path
       style="fill:none"
       inkscape:connector-curvature="0"
       class="fil3"
       d="m 234.80365,918.79494 c -3.89498,-24.97483 -7.6328,-27.86413 -12.86747,-36.28524 -12.64639,-20.34429 -41.28049,-23.29135 -53.6641,-23.29259"
       id="path4338" />
    <g
       style="fill-rule:evenodd"
       id="g4340"
       transform="matrix(0.88716097,0,0,0.88716097,-3.9704036,784.25254)">
      <path
         style="fill:#1f1a17"
         inkscape:connector-curvature="0"
         class="fil2"
         d="m 193.421,92.6675 0.004,0.03184 0.25053,1.93637 1.29553,10.3296 c 0.17301,1.75781 2.40558,12.12479 -3.86305,9.55727 -3.19037,-1.30798 -5.90045,-6.98975 -7.69149,-9.90053 l -10.6992,-14.159401 0.28928,-0.369557 c 6.54268,3.80353 11.7234,7.5254 16.8294,12.804398 l 0.49135,-5.295597 0.50936,-3.089331 c 0.0567,-0.319728 0.77371,-4.390389 2.35991,-3.30525 0.54672,0.37371 0.41246,0.945346 0.22422,1.46023 z"
         id="path4342" />
    </g>
    <path
       style="fill:none"
       inkscape:connector-curvature="0"
       class="fil3"
       d="m 167.52225,866.73119 c -1.51895,-5.05415 -0.85096,10.51232 -0.75027,16.53162 -0.75148,-1.50298 -2.62653,-3.38172 -3.37802,-4.50895 -0.75026,-1.12724 -2.25202,-2.25447 -2.62654,-3.38172 0,0 -1.64665,-1.95854 -1.87627,-2.25324 -2.44726,-3.15086 -6.12736,-6.14701 -9.50416,-8.776"
       id="path4344" />
  </g>
</svg>
