<?xml version="1.0" encoding="UTF-8" standalone="no"?>
<!-- Created with Inkscape (http://www.inkscape.org/) -->

<svg
   xmlns:dc="http://purl.org/dc/elements/1.1/"
   xmlns:cc="http://creativecommons.org/ns#"
   xmlns:rdf="http://www.w3.org/1999/02/22-rdf-syntax-ns#"
   xmlns:svg="http://www.w3.org/2000/svg"
   xmlns="http://www.w3.org/2000/svg"
   xmlns:sodipodi="http://sodipodi.sourceforge.net/DTD/sodipodi-0.dtd"
   xmlns:inkscape="http://www.inkscape.org/namespaces/inkscape"
   width="256"
   height="256"
   id="svg2"
   version="1.1"
   inkscape:version="0.48.3.1 r9886"
   sodipodi:docname="web-browser.svg">
  <defs
     id="defs4" />
  <sodipodi:namedview
     id="base"
     pagecolor="#ffffff"
     bordercolor="#666666"
     borderopacity="1.0"
     inkscape:pageopacity="0.0"
     inkscape:pageshadow="2"
     inkscape:zoom="1.979899"
     inkscape:cx="94.604345"
     inkscape:cy="154.12019"
     inkscape:document-units="px"
     inkscape:current-layer="layer1"
     showgrid="false"
     inkscape:window-width="1438"
     inkscape:window-height="852"
     inkscape:window-x="0"
     inkscape:window-y="25"
     inkscape:window-maximized="1" />
  <metadata
     id="metadata7">
    <rdf:RDF>
      <cc:Work
         rdf:about="">
        <dc:format>image/svg+xml</dc:format>
        <dc:type
           rdf:resource="http://purl.org/dc/dcmitype/StillImage" />
        <dc:title />
      </cc:Work>
    </rdf:RDF>
  </metadata>
  <g
     inkscape:label="Layer 1"
     inkscape:groupmode="layer"
     id="layer1"
     transform="translate(0,-796.36218)">
    <path
       style="opacity:0.95614032000000004;fill:#492356;fill-opacity:1;stroke:#a6f488;stroke-opacity:1;stroke-width:1.8;stroke-miterlimit:4;stroke-dasharray:none"
       d="m 47.387157,823.66936 c -17.749905,21.03076 -27.877828,48.57943 -26.387695,78.23231 3.11997,62.08577 55.973183,109.88683 118.058958,106.76683 28.37516,-1.4259 53.76045,-13.24722 72.67071,-31.58555 l -23.64614,-22.07832 c -13.23702,12.32657 -30.72457,20.23101 -50.20285,21.20985 -43.888658,2.20551 -81.255354,-31.58809 -83.460872,-75.47675 -1.024137,-20.3798 5.712869,-39.35128 17.619576,-54.05101 L 47.387157,823.66936 z"
       id="path2985-0"
       inkscape:connector-curvature="0" />
    <path
       style="fill:#492356;stroke:#a6f488;stroke-width:1.8;stroke-linecap:butt;stroke-linejoin:miter;stroke-opacity:1;stroke-miterlimit:4;stroke-dasharray:none"
       d="m 128.99008,1006.9299 -27.16984,41.7251 54.82485,0 z"
       id="path3027"
       inkscape:connector-curvature="0"
       sodipodi:nodetypes="cccc" />
    <path
       sodipodi:type="arc"
       style="opacity:0.95614032000000004;fill:#8abb22;fill-opacity:1;stroke:none"
       id="path2993"
       sodipodi:cx="448.57144"
       sodipodi:cy="448.07648"
       sodipodi:rx="205.71428"
       sodipodi:ry="205.71428"
       d="M 653.69107,432.44626 C 662.3234,545.7307 577.4861,644.56377 464.20166,653.1961 350.91721,661.82843 252.08414,576.99113 243.45182,463.70669 234.81949,350.42225 319.65679,251.58918 432.94123,242.95685 c 111.53833,-8.49927 209.4256,73.68619 220.35944,185.01223"
       sodipodi:start="6.2071318"
       sodipodi:end="12.46847"
       sodipodi:open="true"
       transform="matrix(0.33962298,0,0,0.33962298,-8.7998191,734.91442)" />
    <path
       style="fill:#492356;stroke:#a6f488;stroke-width:1.8;stroke-linecap:butt;stroke-linejoin:miter;stroke-opacity:1;stroke-miterlimit:4;stroke-dasharray:none"
       d="M 93.07289,835.28399 90.838806,801.5032 61.011194,823.86132 z"
       id="path3027-5"
       inkscape:connector-curvature="0"
       sodipodi:nodetypes="cccc" />
    <path
       style="fill:#492356;stroke:#a6f488;stroke-width:1.8;stroke-linecap:butt;stroke-linejoin:miter;stroke-opacity:1;stroke-miterlimit:4;stroke-dasharray:none"
       d="m 198.37021,931.09907 8.96274,32.69811 24.78579,-27.91621 z"
       id="path3027-4"
       inkscape:connector-curvature="0"
       sodipodi:nodetypes="cccc" />
    <path
       inkscape:connector-curvature="0"
       id="path3047"
       style="font-size:20px;font-style:normal;font-variant:normal;font-weight:normal;font-stretch:normal;line-height:125%;letter-spacing:0px;word-spacing:0px;fill:#ffffff;fill-opacity:1;stroke:none;font-family:Cheri;-inkscape-font-specification:Cheri"
       d="m 123.74329,877.43361 -7.40216,26.16485 -5.93756,-0.55417 c -0.55419,-1.74168 -1.87365,-6.10908 -3.95837,-13.10222 l -4.6313,13.10222 -5.620892,0.15834 -4.987551,-26.28361 6.966738,-0.19791 c 0.343048,2.7181 0.923609,7.70565 1.741685,14.96265 l 3.68129,-12.70638 6.37298,1.02918 3.04795,10.2126 3.36462,-13.65639 7.36257,0.87084" />
    <path
       inkscape:connector-curvature="0"
       id="path3049"
       style="font-size:20px;font-style:normal;font-variant:normal;font-weight:normal;font-stretch:normal;line-height:125%;letter-spacing:0px;word-spacing:0px;fill:#ffffff;fill-opacity:1;stroke:none;font-family:Cheri;-inkscape-font-specification:Cheri"
       d="m 156.98746,877.43361 -7.40216,26.16485 -5.93756,-0.55417 c -0.55421,-1.74168 -1.87366,-6.10908 -3.95838,-13.10222 l -4.63131,13.10222 -5.6209,0.15834 -4.98755,-26.28361 6.96674,-0.19791 c 0.34305,2.7181 0.92363,7.70565 1.74171,14.96265 l 3.68128,-12.70638 6.37299,1.02918 3.04792,10.2126 3.36462,-13.65639 7.3626,0.87084" />
    <path
       inkscape:connector-curvature="0"
       id="path3051"
       style="font-size:20px;font-style:normal;font-variant:normal;font-weight:normal;font-stretch:normal;line-height:125%;letter-spacing:0px;word-spacing:0px;fill:#ffffff;fill-opacity:1;stroke:none;font-family:Cheri;-inkscape-font-specification:Cheri"
       d="m 190.2316,877.43361 -7.40216,26.16485 -5.93756,-0.55417 c -0.55419,-1.74168 -1.87365,-6.10908 -3.95837,-13.10222 l -4.6313,13.10222 -5.62089,0.15834 -4.98755,-26.28361 6.96674,-0.19791 c 0.34305,2.7181 0.92361,7.70565 1.74168,14.96265 l 3.68129,-12.70638 6.37298,1.02918 3.04795,10.2126 3.36462,-13.65639 7.36257,0.87084" />
  </g>
</svg>
