<?xml version="1.0" encoding="UTF-8" standalone="no"?>
<!-- Created with Inkscape (http://www.inkscape.org/) -->

<svg
   xmlns:dc="http://purl.org/dc/elements/1.1/"
   xmlns:cc="http://creativecommons.org/ns#"
   xmlns:rdf="http://www.w3.org/1999/02/22-rdf-syntax-ns#"
   xmlns:svg="http://www.w3.org/2000/svg"
   xmlns="http://www.w3.org/2000/svg"
   xmlns:xlink="http://www.w3.org/1999/xlink"
   xmlns:sodipodi="http://sodipodi.sourceforge.net/DTD/sodipodi-0.dtd"
   xmlns:inkscape="http://www.inkscape.org/namespaces/inkscape"
   version="1.0"
   width="96"
   height="96"
   id="svg2408"
   inkscape:version="0.48.3.1 r9886"
   sodipodi:docname="applications-games.svg">
  <sodipodi:namedview
     pagecolor="#ffffff"
     bordercolor="#666666"
     borderopacity="1"
     objecttolerance="10"
     gridtolerance="10"
     guidetolerance="10"
     inkscape:pageopacity="0"
     inkscape:pageshadow="2"
     inkscape:window-width="1914"
     inkscape:window-height="1031"
     id="namedview542"
     showgrid="false"
     inkscape:zoom="7.4791666"
     inkscape:cx="76.37215"
     inkscape:cy="54.042203"
     inkscape:window-x="0"
     inkscape:window-y="25"
     inkscape:window-maximized="1"
     inkscape:current-layer="svg2408"
     inkscape:snap-global="false" />
  <defs
     id="defs2410">
    <linearGradient
       id="linearGradient4046">
      <stop
         style="stop-color:#ffee43;stop-opacity:1;"
         offset="0"
         id="stop4048" />
      <stop
         style="stop-color:#928500;stop-opacity:1;"
         offset="1"
         id="stop4050" />
    </linearGradient>
    <linearGradient
       id="linearGradient4032">
      <stop
         style="stop-color:#c4dae9;stop-opacity:1;"
         offset="0"
         id="stop4034" />
      <stop
         style="stop-color:#3d79a1;stop-opacity:1;"
         offset="1"
         id="stop4036" />
    </linearGradient>
    <linearGradient
       inkscape:collect="always"
       id="linearGradient3916">
      <stop
         style="stop-color:#ffffff;stop-opacity:1;"
         offset="0"
         id="stop3918" />
      <stop
         style="stop-color:#ffffff;stop-opacity:0;"
         offset="1"
         id="stop3920" />
    </linearGradient>
    <linearGradient
       id="linearGradient4390">
      <stop
         style="stop-color:#efefef;stop-opacity:1;"
         offset="0"
         id="stop4392" />
      <stop
         style="stop-color:#3b3b3b;stop-opacity:1;"
         offset="1"
         id="stop4394" />
    </linearGradient>
    <linearGradient
       id="linearGradient4328">
      <stop
         style="stop-color:#ffffff;stop-opacity:1;"
         offset="0"
         id="stop4330" />
      <stop
         style="stop-color:#a2a2a2;stop-opacity:0;"
         offset="1"
         id="stop4332" />
    </linearGradient>
    <linearGradient
       id="linearGradient4308">
      <stop
         style="stop-color:#03789e;stop-opacity:1;"
         offset="0"
         id="stop4310" />
      <stop
         style="stop-color:#15a8b7;stop-opacity:1;"
         offset="1"
         id="stop4312" />
    </linearGradient>
    <linearGradient
       x1="45.447727"
       y1="92.539597"
       x2="45.447727"
       y2="7.0165396"
       id="ButtonShadow"
       gradientUnits="userSpaceOnUse"
       gradientTransform="scale(1.0058652,0.994169)">
      <stop
         id="stop3750"
         style="stop-color:#000000;stop-opacity:1"
         offset="0" />
      <stop
         id="stop3752"
         style="stop-color:#000000;stop-opacity:0.58823532"
         offset="1" />
    </linearGradient>
    <linearGradient
       id="linearGradient3737">
      <stop
         id="stop3739"
         style="stop-color:#ffffff;stop-opacity:1"
         offset="0" />
      <stop
         id="stop3741"
         style="stop-color:#ffffff;stop-opacity:0"
         offset="1" />
    </linearGradient>
    <filter
       color-interpolation-filters="sRGB"
       id="filter3174">
      <feGaussianBlur
         id="feGaussianBlur3176"
         stdDeviation="1.71" />
    </filter>
    <linearGradient
       x1="36.357143"
       y1="6"
       x2="36.357143"
       y2="63.893143"
       id="linearGradient3188"
       xlink:href="#linearGradient3737"
       gradientUnits="userSpaceOnUse" />
    <filter
       x="-0.192"
       y="-0.192"
       width="1.3839999"
       height="1.3839999"
       color-interpolation-filters="sRGB"
       id="filter3794">
      <feGaussianBlur
         id="feGaussianBlur3796"
         stdDeviation="5.28" />
    </filter>
    <linearGradient
       x1="48"
       y1="20.220806"
       x2="48"
       y2="138.66119"
       id="linearGradient3613"
       xlink:href="#linearGradient3737"
       gradientUnits="userSpaceOnUse" />
    <radialGradient
       cx="48"
       cy="90.171875"
       r="42"
       fx="48"
       fy="90.171875"
       id="radialGradient3619"
       xlink:href="#linearGradient3737"
       gradientUnits="userSpaceOnUse"
       gradientTransform="matrix(1.1573129,0,0,0.99590774,-7.5510206,0.19713193)" />
    <clipPath
       id="clipPath3613">
      <rect
         width="84"
         height="84"
         rx="6"
         ry="6"
         x="6"
         y="6"
         id="rect3615"
         style="fill:#ffffff;fill-opacity:1;fill-rule:nonzero;stroke:none" />
    </clipPath>
    <linearGradient
       x1="48"
       y1="90"
       x2="48"
       y2="5.9877172"
       id="linearGradient3617"
       xlink:href="#linearGradient3187"
       gradientUnits="userSpaceOnUse" />
    <linearGradient
       id="linearGradient3187">
      <stop
         id="stop3189"
         style="stop-color:#a2703a;stop-opacity:1"
         offset="0" />
      <stop
         id="stop3191"
         style="stop-color:#d9b27b;stop-opacity:1"
         offset="1" />
    </linearGradient>
    <linearGradient
       x1="136.41356"
       y1="115.49392"
       x2="149.52968"
       y2="115.49392"
       id="linearGradient3843"
       xlink:href="#linearGradient3485"
       gradientUnits="userSpaceOnUse" />
    <linearGradient
       id="linearGradient3485">
      <stop
         id="stop3487"
         style="stop-color:#e6605b;stop-opacity:1"
         offset="0" />
      <stop
         id="stop3489"
         style="stop-color:#f08682;stop-opacity:1"
         offset="1" />
    </linearGradient>
    <filter
       x="-0.42857143"
       y="-0.16666667"
       width="1.8571428"
       height="1.3333333"
       color-interpolation-filters="sRGB"
       id="filter3495">
      <feGaussianBlur
         stdDeviation="0.55242721"
         id="feGaussianBlur3497" />
    </filter>
    <filter
       x="-0.18344349"
       y="-0.17668343"
       width="1.366887"
       height="1.3533669"
       color-interpolation-filters="sRGB"
       id="filter3509">
      <feGaussianBlur
         stdDeviation="0.65925"
         id="feGaussianBlur3511" />
    </filter>
    <linearGradient
       x1="137.40625"
       y1="116.46875"
       x2="148.53125"
       y2="116.46875"
       id="linearGradient3845"
       xlink:href="#linearGradient3339"
       gradientUnits="userSpaceOnUse"
       gradientTransform="matrix(1.0893815,0,0,1,-13.275943,0)" />
    <linearGradient
       id="linearGradient3339">
      <stop
         id="stop3341"
         style="stop-color:#000000;stop-opacity:1"
         offset="0" />
      <stop
         id="stop3347"
         style="stop-color:#000000;stop-opacity:0.49803922"
         offset="0.69999999" />
      <stop
         id="stop3343"
         style="stop-color:#000000;stop-opacity:0"
         offset="1" />
    </linearGradient>
    <linearGradient
       x1="136"
       y1="60"
       x2="150"
       y2="60"
       id="linearGradient3847"
       xlink:href="#linearGradient3278"
       gradientUnits="userSpaceOnUse"
       gradientTransform="translate(-23.73343,0)" />
    <linearGradient
       id="linearGradient3278">
      <stop
         id="stop3280"
         style="stop-color:#945a00;stop-opacity:1"
         offset="0" />
      <stop
         id="stop3290"
         style="stop-color:#e28e0a;stop-opacity:1"
         offset="0.25" />
      <stop
         id="stop3286"
         style="stop-color:#ffba14;stop-opacity:1"
         offset="0.30000001" />
      <stop
         id="stop3288"
         style="stop-color:#f3ac00;stop-opacity:1"
         offset="0.69999999" />
      <stop
         id="stop3292"
         style="stop-color:#ffd314;stop-opacity:1"
         offset="0.75" />
      <stop
         id="stop3282"
         style="stop-color:#ffed94;stop-opacity:1"
         offset="1" />
    </linearGradient>
    <linearGradient
       x1="143"
       y1="2.4000001e-06"
       x2="143"
       y2="120.01752"
       id="linearGradient3849"
       xlink:href="#linearGradient3254"
       gradientUnits="userSpaceOnUse"
       gradientTransform="translate(-23.73343,0)" />
    <linearGradient
       id="linearGradient3254">
      <stop
         id="stop3256"
         style="stop-color:#000000;stop-opacity:1"
         offset="0" />
      <stop
         id="stop3266"
         style="stop-color:#000000;stop-opacity:1"
         offset="0.06588447" />
      <stop
         id="stop3264"
         style="stop-color:#ad5f1b;stop-opacity:1"
         offset="0.07" />
      <stop
         id="stop3268"
         style="stop-color:#ad601a;stop-opacity:1"
         offset="0.1913653" />
      <stop
         id="stop3262"
         style="stop-color:#785800;stop-opacity:1"
         offset="0.20983393" />
      <stop
         id="stop3258"
         style="stop-color:#785700;stop-opacity:1"
         offset="1" />
    </linearGradient>
    <linearGradient
       x1="141.25002"
       y1="4.9218717"
       x2="144.81252"
       y2="4.9218717"
       id="linearGradient3851"
       xlink:href="#linearGradient3394"
       gradientUnits="userSpaceOnUse"
       gradientTransform="translate(-23.73343,0)" />
    <linearGradient
       id="linearGradient3394">
      <stop
         id="stop3396"
         style="stop-color:#000000;stop-opacity:1"
         offset="0" />
      <stop
         id="stop3402"
         style="stop-color:#7d7d7d;stop-opacity:1"
         offset="0.5" />
      <stop
         id="stop3398"
         style="stop-color:#000000;stop-opacity:1"
         offset="1" />
    </linearGradient>
    <linearGradient
       x1="136.98804"
       y1="17.043356"
       x2="148.99513"
       y2="17.043356"
       id="linearGradient3853"
       xlink:href="#linearGradient3308"
       gradientUnits="userSpaceOnUse"
       gradientTransform="translate(-23.73343,0)" />
    <linearGradient
       id="linearGradient3308">
      <stop
         id="stop3310"
         style="stop-color:#da8539;stop-opacity:1"
         offset="0" />
      <stop
         id="stop3312"
         style="stop-color:#fadfc7;stop-opacity:1"
         offset="1" />
    </linearGradient>
    <linearGradient
       x1="146.10596"
       y1="118.94019"
       x2="146.07562"
       y2="66"
       id="linearGradient3855"
       xlink:href="#linearGradient5452"
       gradientUnits="userSpaceOnUse"
       gradientTransform="matrix(1,0,0,1.2653524,-23.73343,-54.364173)" />
    <linearGradient
       id="linearGradient5452">
      <stop
         id="stop5454"
         style="stop-color:#ffffff;stop-opacity:1"
         offset="0" />
      <stop
         id="stop5456"
         style="stop-color:#ffffff;stop-opacity:0"
         offset="1" />
    </linearGradient>
    <linearGradient
       x1="146.10596"
       y1="118.94019"
       x2="146.07562"
       y2="66"
       id="linearGradient3857"
       xlink:href="#linearGradient5452"
       gradientUnits="userSpaceOnUse"
       gradientTransform="matrix(1,0,0,1.2653524,-29.85843,-54.364173)" />
    <filter
       x="-0.43161276"
       y="-0.11371106"
       width="1.8632255"
       height="1.2274221"
       color-interpolation-filters="sRGB"
       id="filter3382">
      <feGaussianBlur
         stdDeviation="0.73914765"
         id="feGaussianBlur3384" />
    </filter>
    <filter
       x="-0.60979599"
       y="-0.1494"
       width="2.2195919"
       height="1.2988"
       color-interpolation-filters="sRGB"
       id="filter3390">
      <feGaussianBlur
         stdDeviation="0.77812506"
         id="feGaussianBlur3392" />
    </filter>
    <linearGradient
       x1="136"
       y1="106"
       x2="150"
       y2="106"
       id="linearGradient3859"
       xlink:href="#linearGradient3401"
       gradientUnits="userSpaceOnUse" />
    <linearGradient
       id="linearGradient3401">
      <stop
         id="stop3403"
         style="stop-color:#404040;stop-opacity:1"
         offset="0" />
      <stop
         id="stop3447"
         style="stop-color:#808080;stop-opacity:1"
         offset="0.2" />
      <stop
         id="stop3410"
         style="stop-color:#efefef;stop-opacity:1"
         offset="0.69999999" />
      <stop
         id="stop3405"
         style="stop-color:#dcdcdc;stop-opacity:1"
         offset="1" />
    </linearGradient>
    <linearGradient
       x1="136"
       y1="106"
       x2="150"
       y2="106"
       id="linearGradient3861"
       xlink:href="#linearGradient3461"
       gradientUnits="userSpaceOnUse" />
    <linearGradient
       id="linearGradient3461">
      <stop
         id="stop3463"
         style="stop-color:#444542;stop-opacity:1"
         offset="0" />
      <stop
         id="stop3465"
         style="stop-color:#71746e;stop-opacity:1"
         offset="1" />
    </linearGradient>
    <linearGradient
       x1="142.95775"
       y1="98.950562"
       x2="148.95775"
       y2="98.950562"
       id="linearGradient3863"
       xlink:href="#linearGradient3339"
       gradientUnits="userSpaceOnUse"
       gradientTransform="translate(0.04225159,1.5494389)"
       spreadMethod="reflect" />
    <linearGradient
       x1="142.95775"
       y1="98.950562"
       x2="148.95775"
       y2="98.950562"
       id="linearGradient3865"
       xlink:href="#linearGradient3355"
       gradientUnits="userSpaceOnUse"
       gradientTransform="translate(0.04225159,2.5494389)"
       spreadMethod="reflect" />
    <linearGradient
       id="linearGradient3355">
      <stop
         id="stop3357"
         style="stop-color:#ffffff;stop-opacity:1"
         offset="0" />
      <stop
         id="stop3359"
         style="stop-color:#ffffff;stop-opacity:0.49803922"
         offset="0.69999999" />
      <stop
         id="stop3361"
         style="stop-color:#ffffff;stop-opacity:0"
         offset="1" />
    </linearGradient>
    <linearGradient
       x1="142.95775"
       y1="98.950562"
       x2="148.95775"
       y2="98.950562"
       id="linearGradient3867"
       xlink:href="#linearGradient3339"
       gradientUnits="userSpaceOnUse"
       gradientTransform="translate(0.04225159,3.5494389)"
       spreadMethod="reflect" />
    <linearGradient
       x1="142.95775"
       y1="98.950562"
       x2="148.95775"
       y2="98.950562"
       id="linearGradient3869"
       xlink:href="#linearGradient3355"
       gradientUnits="userSpaceOnUse"
       gradientTransform="translate(0.04225159,4.5494389)"
       spreadMethod="reflect" />
    <linearGradient
       x1="142.95775"
       y1="98.950562"
       x2="148.95775"
       y2="98.950562"
       id="linearGradient3871"
       xlink:href="#linearGradient3339"
       gradientUnits="userSpaceOnUse"
       gradientTransform="translate(0.04225159,9.5494389)"
       spreadMethod="reflect" />
    <linearGradient
       x1="142.95775"
       y1="98.950562"
       x2="148.95775"
       y2="98.950562"
       id="linearGradient3873"
       xlink:href="#linearGradient3355"
       gradientUnits="userSpaceOnUse"
       gradientTransform="translate(0.04225159,10.549439)"
       spreadMethod="reflect" />
    <linearGradient
       x1="142.95775"
       y1="98.950562"
       x2="148.95775"
       y2="98.950562"
       id="linearGradient3875"
       xlink:href="#linearGradient3339"
       gradientUnits="userSpaceOnUse"
       gradientTransform="translate(0.04225159,11.549439)"
       spreadMethod="reflect" />
    <linearGradient
       x1="142.95775"
       y1="98.950562"
       x2="148.95775"
       y2="98.950562"
       id="linearGradient3877"
       xlink:href="#linearGradient3355"
       gradientUnits="userSpaceOnUse"
       gradientTransform="translate(0.04225159,12.549439)"
       spreadMethod="reflect" />
    <linearGradient
       x1="137"
       y1="106"
       x2="139.03125"
       y2="106"
       id="linearGradient3879"
       xlink:href="#linearGradient3439"
       gradientUnits="userSpaceOnUse"
       spreadMethod="repeat" />
    <linearGradient
       id="linearGradient3439">
      <stop
         id="stop3441"
         style="stop-color:#afafaf;stop-opacity:1;"
         offset="0" />
      <stop
         id="stop3443"
         style="stop-color:#ffffff;stop-opacity:1"
         offset="1" />
    </linearGradient>
    <filter
       x="-1.0349605"
       y="-0.13573837"
       width="3.069921"
       height="1.2714767"
       color-interpolation-filters="sRGB"
       id="filter3451">
      <feGaussianBlur
         stdDeviation="0.9498173"
         id="feGaussianBlur3453" />
    </filter>
    <filter
       x="-0.93333328"
       y="-0.13770492"
       width="2.8666666"
       height="1.2754098"
       color-interpolation-filters="sRGB"
       id="filter3457">
      <feGaussianBlur
         stdDeviation="0.92807767"
         id="feGaussianBlur3459" />
    </filter>
    <linearGradient
       id="linearGradient4114">
      <stop
         id="stop4116"
         style="stop-color:#aaaaaa;stop-opacity:1"
         offset="0" />
      <stop
         id="stop4118"
         style="stop-color:#dcdcdc;stop-opacity:1"
         offset="1" />
    </linearGradient>
    <linearGradient
       id="linearGradient3465">
      <stop
         id="stop3467"
         style="stop-color:#919191;stop-opacity:1"
         offset="0" />
      <stop
         id="stop3469"
         style="stop-color:#fdfdfd;stop-opacity:1"
         offset="1" />
    </linearGradient>
    <filter
       x="-0.03906453"
       y="-0.14405686"
       width="1.0781291"
       height="1.2881137"
       color-interpolation-filters="sRGB"
       id="filter3294">
      <feGaussianBlur
         id="feGaussianBlur3296"
         stdDeviation="1.4293142" />
    </filter>
    <linearGradient
       id="linearGradient3929">
      <stop
         id="stop3931"
         style="stop-color:#000000;stop-opacity:1"
         offset="0" />
      <stop
         id="stop3933"
         style="stop-color:#000000;stop-opacity:0.58823532"
         offset="1" />
    </linearGradient>
    <linearGradient
       x1="31"
       y1="108"
       x2="31"
       y2="96"
       id="linearGradient4383"
       xlink:href="#linearGradient3929"
       gradientUnits="userSpaceOnUse" />
    <linearGradient
       x1="31"
       y1="108"
       x2="31"
       y2="96"
       id="linearGradient4385"
       xlink:href="#linearGradient3929"
       gradientUnits="userSpaceOnUse" />
    <linearGradient
       x1="31"
       y1="108"
       x2="31"
       y2="96"
       id="linearGradient4387"
       xlink:href="#linearGradient3929"
       gradientUnits="userSpaceOnUse" />
    <linearGradient
       x1="31"
       y1="108"
       x2="31"
       y2="96"
       id="linearGradient4389"
       xlink:href="#linearGradient3929"
       gradientUnits="userSpaceOnUse" />
    <linearGradient
       x1="31"
       y1="108"
       x2="31"
       y2="96"
       id="linearGradient4391"
       xlink:href="#linearGradient3929"
       gradientUnits="userSpaceOnUse" />
    <linearGradient
       x1="23.882524"
       y1="132.27245"
       x2="23.882524"
       y2="117.57551"
       id="linearGradient4393"
       xlink:href="#linearGradient3929"
       gradientUnits="userSpaceOnUse"
       gradientTransform="scale(1.2247449,0.8164966)" />
    <linearGradient
       x1="31"
       y1="108"
       x2="31"
       y2="96"
       id="linearGradient4395"
       xlink:href="#linearGradient3929"
       gradientUnits="userSpaceOnUse" />
    <linearGradient
       x1="31"
       y1="108"
       x2="31"
       y2="96"
       id="linearGradient4397"
       xlink:href="#linearGradient3929"
       gradientUnits="userSpaceOnUse" />
    <linearGradient
       x1="31"
       y1="108"
       x2="31"
       y2="96"
       id="linearGradient4399"
       xlink:href="#linearGradient3929"
       gradientUnits="userSpaceOnUse" />
    <linearGradient
       x1="31"
       y1="108"
       x2="31"
       y2="96"
       id="linearGradient4401"
       xlink:href="#linearGradient3929"
       gradientUnits="userSpaceOnUse" />
    <linearGradient
       x1="31"
       y1="108"
       x2="31"
       y2="96"
       id="linearGradient4403"
       xlink:href="#linearGradient3929"
       gradientUnits="userSpaceOnUse" />
    <linearGradient
       x1="31"
       y1="108"
       x2="31"
       y2="96"
       id="linearGradient4405"
       xlink:href="#linearGradient3929"
       gradientUnits="userSpaceOnUse" />
    <linearGradient
       x1="31"
       y1="108"
       x2="31"
       y2="96"
       id="linearGradient4407"
       xlink:href="#linearGradient3929"
       gradientUnits="userSpaceOnUse" />
    <linearGradient
       x1="31"
       y1="108"
       x2="31"
       y2="80"
       id="linearGradient4409"
       xlink:href="#linearGradient3929"
       gradientUnits="userSpaceOnUse"
       gradientTransform="matrix(0.5581553,0,0,0.5568189,76.116988,21.863559)" />
    <linearGradient
       x1="31"
       y1="108"
       x2="31"
       y2="96"
       id="linearGradient4411"
       xlink:href="#linearGradient3929"
       gradientUnits="userSpaceOnUse" />
    <linearGradient
       x1="-52.5"
       y1="-76.295921"
       x2="-52.5"
       y2="-52.312489"
       id="linearGradient4662"
       xlink:href="#linearGradient3465"
       gradientUnits="userSpaceOnUse"
       gradientTransform="matrix(0.44155423,0,0,0.44049701,89.110105,50.940509)" />
    <linearGradient
       x1="74.906487"
       y1="96.908859"
       x2="74.906487"
       y2="23.893446"
       id="linearGradient4668"
       xlink:href="#linearGradient4114"
       gradientUnits="userSpaceOnUse"
       gradientTransform="matrix(0.79109563,0,0,0.79109563,7.4608755,-7.514973)" />
    <linearGradient
       x1="84"
       y1="96"
       x2="84"
       y2="23.998264"
       id="linearGradient4670"
       xlink:href="#linearGradient3465"
       gradientUnits="userSpaceOnUse"
       gradientTransform="matrix(0.79109563,0,0,0.79109563,6.5958013,-7.9826252)" />
    <linearGradient
       x1="45.447727"
       y1="92.539597"
       x2="45.447727"
       y2="7.0165396"
       id="ButtonShadow-0"
       gradientUnits="userSpaceOnUse"
       gradientTransform="matrix(1.0058652,0,0,0.994169,100,0)">
      <stop
         id="stop3750-8"
         style="stop-color:#000000;stop-opacity:1"
         offset="0" />
      <stop
         id="stop3752-5"
         style="stop-color:#000000;stop-opacity:0.58823532"
         offset="1" />
    </linearGradient>
    <linearGradient
       x1="32.251034"
       y1="6.1317081"
       x2="32.251034"
       y2="90.238609"
       id="linearGradient3780"
       xlink:href="#ButtonShadow-0"
       gradientUnits="userSpaceOnUse"
       gradientTransform="matrix(1.0238095,0,0,1.0119048,-1.1428571,-98.071429)" />
    <linearGradient
       x1="32.251034"
       y1="6.1317081"
       x2="32.251034"
       y2="90.238609"
       id="linearGradient3772"
       xlink:href="#ButtonShadow-0"
       gradientUnits="userSpaceOnUse"
       gradientTransform="matrix(1.0238095,0,0,1.0119048,-1.1428571,-98.071429)" />
    <linearGradient
       x1="32.251034"
       y1="6.1317081"
       x2="32.251034"
       y2="90.238609"
       id="linearGradient3725"
       xlink:href="#ButtonShadow-0"
       gradientUnits="userSpaceOnUse"
       gradientTransform="matrix(1.0238095,0,0,1.0119048,-1.1428571,-98.071429)" />
    <linearGradient
       x1="32.251034"
       y1="6.1317081"
       x2="32.251034"
       y2="90.238609"
       id="linearGradient3721"
       xlink:href="#ButtonShadow-0"
       gradientUnits="userSpaceOnUse"
       gradientTransform="translate(0,-97)" />
    <linearGradient
       x1="32.251034"
       y1="6.1317081"
       x2="32.251034"
       y2="90.238609"
       id="linearGradient3811"
       xlink:href="#ButtonShadow-0"
       gradientUnits="userSpaceOnUse"
       gradientTransform="matrix(1.0238095,0,0,1.0119048,-1.1428571,-98.071429)" />
    <linearGradient
       inkscape:collect="always"
       xlink:href="#linearGradient4308-7"
       id="linearGradient4350-8"
       gradientUnits="userSpaceOnUse"
       x1="152.95821"
       y1="7.220057"
       x2="153.49303"
       y2="90.384399"
       gradientTransform="matrix(0.88161209,0,0,1.0524691,14.531717,-4.8125451)" />
    <linearGradient
       id="linearGradient4308-7">
      <stop
         style="stop-color:#03789e;stop-opacity:1;"
         offset="0"
         id="stop4310-3" />
      <stop
         style="stop-color:#15a8b7;stop-opacity:1;"
         offset="1"
         id="stop4312-1" />
    </linearGradient>
    <linearGradient
       inkscape:collect="always"
       xlink:href="#linearGradient4390"
       id="linearGradient4443"
       gradientUnits="userSpaceOnUse"
       x1="173.08191"
       y1="7.034543"
       x2="187.12892"
       y2="49.957302" />
    <linearGradient
       inkscape:collect="always"
       xlink:href="#linearGradient4390"
       id="linearGradient4445"
       gradientUnits="userSpaceOnUse"
       x1="150.01329"
       y1="24.997812"
       x2="169.35474"
       y2="24.997812" />
    <linearGradient
       inkscape:collect="always"
       xlink:href="#linearGradient4390"
       id="linearGradient4448"
       gradientUnits="userSpaceOnUse"
       gradientTransform="matrix(0.93716497,0,0,0.94922694,-143.48992,45.474442)"
       x1="209.89029"
       y1="49.129711"
       x2="165.88618"
       y2="-41.924999" />
    <linearGradient
       inkscape:collect="always"
       xlink:href="#linearGradient3439"
       id="linearGradient4455"
       gradientUnits="userSpaceOnUse"
       gradientTransform="matrix(0.78571623,0,0,0.95499231,-73.924858,0.59053988)"
       x1="157.4791"
       y1="36.232529"
       x2="153.49303"
       y2="90.384399" />
    <linearGradient
       inkscape:collect="always"
       xlink:href="#linearGradient3916"
       id="linearGradient3922"
       x1="47.597473"
       y1="14.573833"
       x2="48.402527"
       y2="36.501408"
       gradientUnits="userSpaceOnUse" />
    <linearGradient
       inkscape:collect="always"
       xlink:href="#linearGradient4390"
       id="linearGradient3927"
       gradientUnits="userSpaceOnUse"
       x1="150.01329"
       y1="24.997812"
       x2="169.35474"
       y2="24.997812"
       gradientTransform="matrix(1.0011307,0.36973275,-0.36973275,1.0011307,-198.06362,-55.938498)" />
    <linearGradient
       inkscape:collect="always"
       xlink:href="#linearGradient4390"
       id="linearGradient3930"
       gradientUnits="userSpaceOnUse"
       x1="173.08191"
       y1="7.034543"
       x2="187.12892"
       y2="49.957302"
       gradientTransform="matrix(1.0011307,0.36973275,-0.36973275,1.0011307,-198.06362,-55.938498)" />
    <filter
       inkscape:collect="always"
       id="filter3956"
       x="-0.31476212"
       width="1.6295242"
       y="-0.91115474"
       height="2.8223095">
      <feGaussianBlur
         inkscape:collect="always"
         stdDeviation="5.7869897"
         id="feGaussianBlur3958" />
    </filter>
    <linearGradient
       inkscape:collect="always"
       xlink:href="#linearGradient3465"
       id="linearGradient4010"
       x1="-35.727104"
       y1="54.809574"
       x2="0.68618292"
       y2="54.809574"
       gradientUnits="userSpaceOnUse" />
    <linearGradient
       inkscape:collect="always"
       xlink:href="#linearGradient3465"
       id="linearGradient4018"
       x1="-64.471199"
       y1="46.898396"
       x2="-60.953289"
       y2="39.145824"
       gradientUnits="userSpaceOnUse" />
    <filter
       inkscape:collect="always"
       id="filter4117">
      <feGaussianBlur
         inkscape:collect="always"
         stdDeviation="5.3006372"
         id="feGaussianBlur4119" />
    </filter>
    <radialGradient
       inkscape:collect="always"
       xlink:href="#linearGradient4032"
       id="radialGradient4156"
       gradientUnits="userSpaceOnUse"
       gradientTransform="matrix(0.75716953,-0.14370556,0.55676909,2.9335574,19.182847,-137.00455)"
       cx="277.56943"
       cy="89.970825"
       fx="277.56943"
       fy="89.970825"
       r="14.586985" />
    <linearGradient
       inkscape:collect="always"
       xlink:href="#linearGradient4046"
       id="linearGradient4158"
       gradientUnits="userSpaceOnUse"
       x1="289.96779"
       y1="134.83241"
       x2="316.4443"
       y2="134.83241" />
  </defs>
  <metadata
     id="metadata2413">
    <rdf:RDF>
      <cc:Work
         rdf:about="">
        <dc:format>image/svg+xml</dc:format>
        <dc:type
           rdf:resource="http://purl.org/dc/dcmitype/StillImage" />
        <dc:title></dc:title>
      </cc:Work>
    </rdf:RDF>
  </metadata>
  <g
     id="layer2"
     style="display:none">
    <rect
       width="86"
       height="85"
       rx="6"
       ry="6"
       x="5"
       y="7"
       id="rect3745"
       style="opacity:0.9;fill:url(#ButtonShadow);fill-opacity:1;fill-rule:nonzero;stroke:none;filter:url(#filter3174)" />
  </g>
  <rect
     style="fill:url(#linearGradient4455);fill-opacity:1;stroke:none"
     id="rect3538"
     width="83.412865"
     height="82.74118"
     x="6.5464892"
     y="5.442646"
     ry="6.1289759" />
  <path
     sodipodi:type="arc"
     style="fill:#ffffff;fill-opacity:1;stroke:none;filter:url(#filter3956)"
     id="path4316"
     sodipodi:cx="157.90529"
     sodipodi:cy="72.86908"
     sodipodi:rx="32.249771"
     sodipodi:ry="14.39899"
     d="m 190.06184,71.775041 a 32.249771,14.39899 0 1 1 -0.0612,-0.313381"
     sodipodi:start="6.2071318"
     sodipodi:end="12.46847"
     sodipodi:open="true"
     transform="matrix(0.99735675,0,0,1.0652476,-111.15312,-12.667378)" />
  <rect
     style="fill:none;stroke:url(#linearGradient4448);stroke-width:4.76155089999999959;stroke-miterlimit:4;stroke-dasharray:none"
     id="rect3538-4"
     width="87.712372"
     height="86.556808"
     x="4.1174908"
     y="4.7343626"
     ry="6.4116149" />
  <g
     id="g4121"
     transform="matrix(0.34512496,0.05696275,-0.05696275,0.34512496,-48.611887,2.5103266)">
    <rect
       transform="matrix(0.98115549,0,0,0.98576961,3.9185067,-0.37533117)"
       ry="4.9162636"
       y="-13.653788"
       x="220.66043"
       height="200.05411"
       width="144.84068"
       id="rect4087-6"
       style="opacity:0.63719997;fill:#1c1f24;fill-opacity:1;stroke:none;filter:url(#filter4117)" />
    <rect
       ry="4.9162636"
       y="-19.343102"
       x="214.42471"
       height="200.05411"
       width="144.84068"
       id="rect4087"
       style="fill:#f5f4fc;fill-opacity:1;stroke:none" />
    <path
       sodipodi:nodetypes="zssssscsssscz"
       inkscape:connector-curvature="0"
       id="path3252"
       d="m 324.9461,57.426241 c 2.36114,0.753418 -1.60724,-0.756348 0.28363,4.916264 1.89087,5.672611 5.48353,12.101571 4.53809,14.937877 -0.94544,2.836306 -6.99622,5.672611 -7.94166,9.265265 -0.94543,3.592654 -2.07995,9.64344 -1.89087,12.479746 0.18909,2.836307 -4.15991,2.269047 -4.53809,4.538087 -0.37817,2.26905 -2.8363,1.70179 -2.8363,1.70179 0,0 -0.18909,-2.26905 0.37817,-3.40357 0.56726,-1.13452 3.97083,-2.836307 4.349,-5.483526 0.37818,-2.647219 -5.29443,-6.42896 -2.26904,-9.64344 3.02539,-3.214479 8.698,-3.970828 9.64344,-7.752569 0.94543,-3.781741 -3.59265,-13.236093 -3.59265,-13.236093 0,0 1.51513,-9.073249 3.87628,-8.319831 z"
       style="fill:#558bd5;fill-opacity:1;stroke:#000000;stroke-width:1px;stroke-linecap:butt;stroke-linejoin:miter;stroke-opacity:1" />
    <path
       sodipodi:nodetypes="cscsscsscccsssccsssssc"
       inkscape:connector-curvature="0"
       id="path3244"
       d="m 270.01631,127.38845 c 0,0 1.70178,-2.26904 1.32361,-4.53809 -0.37817,-2.26904 -5.29444,-6.42896 -5.29444,-6.42896 0,0 1.13453,-6.23987 1.13453,-8.88709 0,-2.64722 3.78174,-6.61805 5.67261,-10.399788 1.89087,-3.781741 4.53809,-9.643439 4.53809,-9.643439 0,0 16.0724,-22.312273 17.01783,-25.148578 0.94544,-2.836306 4.91626,-14.937878 6.80713,-18.152357 1.89088,-3.21448 9.92707,-18.152357 9.92707,-18.152357 0,0 4.66571,0.942378 4.72718,2.930848 -3.24756,0.192144 -5.19989,3.687198 -5.19989,3.687198 0,0 -3.40357,7.185308 -3.97083,10.210701 -0.56726,3.025393 -1.5127,6.618047 -2.64722,10.021614 -1.13452,3.403567 -10.96705,19.475966 -12.47974,23.06862 -1.5127,3.592654 -14.55971,22.312273 -14.55971,22.312273 l -1.89087,5.672615 c 0,0 -1.13452,-1.32361 -1.70178,1.51269 -0.56726,2.83631 0.94543,4.72718 0.94543,6.80714 0,2.07995 -3.97082,2.64722 -2.8363,4.72717 1.13452,2.07996 2.64722,-0.75635 3.97083,1.13453 1.32361,1.89087 2.64721,6.42895 2.45813,7.94165 -0.18909,1.5127 -7.94166,1.32361 -7.94166,1.32361 z"
       style="fill:#aa0000;fill-opacity:1;stroke:#000000;stroke-width:1px;stroke-linecap:butt;stroke-linejoin:miter;stroke-opacity:1" />
    <path
       sodipodi:nodetypes="ccczcc"
       inkscape:connector-curvature="0"
       id="path3159"
       d="m 256.40205,23.201484 14.5597,26.661275 c 4.34901,1.983228 10.21071,-3.088422 12.66884,-3.781741 0,0 -3.48642,-12.896181 -9.17073,-19.570509 -5.6843,-6.674329 -15.2215,-9.737984 -15.2215,-9.737984 z"
       style="fill:#ca5035;fill-opacity:1;stroke:#000000;stroke-width:1px;stroke-linecap:butt;stroke-linejoin:miter;stroke-opacity:1" />
    <path
       inkscape:connector-curvature="0"
       id="path3248"
       d="m 294.59763,98.269045 c 0,0 8.31983,-9.454353 8.698,-11.723398 0.37818,-2.269044 -2.45813,-15.694225 -1.32361,-19.286879 1.13453,-3.592654 2.45813,-9.076179 5.48353,-13.614268 3.02539,-4.538089 5.29444,-11.156136 5.29444,-11.156136 l 1.89087,10.399788 c 0,0 -9.83253,8.130743 -9.07618,14.181529 0.75635,6.050786 5.48352,14.370616 4.72717,18.908705 -0.75634,4.538089 -7.94165,9.076179 -8.88709,11.53431 -0.94543,2.458132 -6.61804,10.021614 -6.61804,12.479744 0,2.45813 -1.89088,-9.83252 -0.18909,-11.723395 z"
       style="fill:#ff520e;fill-opacity:1;stroke:#000000;stroke-width:1px;stroke-linecap:butt;stroke-linejoin:miter;stroke-opacity:1" />
    <path
       sodipodi:nodetypes="cssccsscc"
       inkscape:connector-curvature="0"
       id="path3226"
       d="m 273.41988,53.6445 c 0,0 7.3493,22.126531 8.31983,29.308493 1.89087,13.992442 5.8617,34.224757 9.07618,41.220977 3.21448,6.99622 5.48352,7.56348 5.48352,7.56348 l 5.29444,-4.72717 c 0,0 -4.15991,-9.64345 -5.67261,-20.79958 -1.24518,-9.18316 -3.21448,-23.635881 -4.91627,-30.632102 -1.6632,-6.837611 -6.99622,-27.228535 -6.99622,-27.228535 z"
       style="fill:url(#radialGradient4156);fill-opacity:1;stroke:#000000;stroke-width:1px;stroke-linecap:butt;stroke-linejoin:miter;stroke-opacity:1" />
    <path
       inkscape:connector-curvature="0"
       id="path3228"
       d="m 257.53657,15.82709 c 0,0 -9.64344,-2.079958 -14.18153,0.567261 -4.53809,2.647219 -4.91627,3.970828 -2.45813,4.159915 2.45813,0.189087 10.02161,-0.567261 11.72339,0.756348 1.70179,1.32361 3.59266,2.458132 3.59266,2.458132 l 3.02539,-7.374395 z"
       style="fill:#eade7a;fill-opacity:1;stroke:#000000;stroke-width:1px;stroke-linecap:butt;stroke-linejoin:miter;stroke-opacity:1" />
    <path
       inkscape:connector-curvature="0"
       id="path3240"
       d="m 276.25618,72.553205 -7.75257,0.378175 c 0,0 0,-1.701784 -2.07995,2.079957 -2.07996,3.781741 -4.34901,4.727176 -4.34901,4.727176 0,0 1.70179,3.970829 -0.18908,5.861699 -1.89087,1.890871 -2.45813,-2.647219 -1.70179,4.916263 0.75635,7.563483 -1.51269,8.698005 -1.51269,8.698005 l -2.45813,1.32361 c 0,0 -2.45814,8.698 -3.97083,10.39979 -1.5127,1.70178 -0.94544,6.23987 -0.94544,6.23987 0,0 -3.21448,1.5127 -4.72717,3.40357 -1.5127,1.89087 -0.94544,9.26526 -0.94544,9.26526 0,0 6.23987,0.18909 6.42896,-0.56726 0.18909,-0.75635 -1.13452,-5.8617 0.18909,-7.94165 1.32361,-2.07996 3.59265,-1.5127 4.53809,-3.59266 0.94543,-2.07996 0.94543,-5.48352 0.94543,-5.48352 0,0 2.64722,-7.56349 4.15992,-8.50892 1.51269,-0.94544 3.40356,-0.94544 3.78174,-2.83631 0.37817,-1.890867 -0.75635,-12.668829 -0.75635,-12.668829 0,0 -0.56726,0.567261 1.13452,-1.890871 1.70179,-2.458131 2.07996,-5.861698 2.07996,-5.861698 0,0 1.70178,-0.189087 3.97083,-2.269045 2.26904,-2.079958 4.91626,-1.323609 4.91626,-1.323609 z"
       style="fill:#db5d2d;fill-opacity:1;stroke:#000000;stroke-width:1px;stroke-linecap:butt;stroke-linejoin:miter;stroke-opacity:1" />
    <path
       inkscape:connector-curvature="0"
       id="path3236"
       d="m 271.33992,55.157197 3.21448,10.2107 c 0,0 -1.89087,0 -2.45813,2.647219 -0.56726,2.647219 2.64722,4.916264 2.64722,4.916264 0,0 0.75635,8.130743 2.26904,11.345223 1.5127,3.21448 -1.89087,10.777962 0.56726,13.992442 2.45813,3.214475 3.21448,4.916265 3.21448,4.916265 0,0 -2.64722,6.23987 0,7.94165 2.64722,1.70179 3.0254,0 3.0254,0 0,0 -1.89087,6.61805 1.13452,10.02162 3.02539,3.40356 -1.13452,0.56726 2.64722,7.94165 3.78174,7.3744 3.97083,2.83631 3.97083,2.83631 0,0 -2.07996,7.56348 1.89087,9.26527 3.97082,1.70178 4.349,1.3236 4.349,1.3236 0,0 -1.13452,4.34901 3.40356,5.8617 4.53809,1.5127 3.59266,-0.37817 3.59266,-0.37817 0,0 0.37817,5.29444 4.91626,5.29444 4.53809,0 4.53809,-1.32361 4.53809,-1.32361 0,0 4.91626,6.42896 5.29444,0.75635 0.37817,-5.67262 -2.26905,-7.18531 -2.26905,-7.18531 0,0 4.72718,-4.91627 0,-6.23987 -4.72717,-1.32361 -0.56726,-5.8617 -5.29443,-6.23988 -4.72718,-0.37817 -4.53809,-5.8617 -6.80714,-5.48352 -2.26904,0.37817 -4.15991,-3.0254 -4.15991,-3.0254 L 291.00497,123.41762 280.60519,73.309554 273.79805,53.6445 z"
       style="fill:#fff380;fill-opacity:1;stroke:#000000;stroke-width:1px;stroke-linecap:butt;stroke-linejoin:miter;stroke-opacity:1" />
    <path
       sodipodi:nodetypes="cssssczc"
       inkscape:connector-curvature="0"
       id="path3232"
       d="m 293.63875,129.48741 c 0,0 3.41701,8.11174 9.65688,14.16253 6.00051,5.81868 9.45436,7.75257 11.53431,6.23987 2.07996,-1.5127 1.13452,-4.53809 -1.89087,-8.13074 -3.02539,-3.59266 -5.29443,-4.34901 -8.88709,-11.15614 -0.90974,-1.72373 -7.00548,-14.07168 -6.78141,-4.19584 -2.31631,-1.48906 -2.57622,-8.71349 -5.78059,-6.80759 -3.20436,1.9059 2.14877,9.88791 2.14877,9.88791 z"
       style="fill:url(#linearGradient4158);fill-opacity:1;stroke:#000000;stroke-width:1px;stroke-linecap:butt;stroke-linejoin:miter;stroke-opacity:1" />
    <path
       inkscape:connector-curvature="0"
       id="path3238"
       d="m 258.10383,19.987005 3.21448,1.323609 c 0,0 -4.15992,1.32361 -1.13453,1.890871 3.0254,0.567261 3.97083,-0.756348 3.97083,-0.756348 l 6.99622,5.294437 c 0,0 -4.15991,0.756348 -1.70178,2.836306 2.45813,2.079957 4.53809,0 4.53809,0 l 3.59265,6.996221 c 0,0 -6.80713,-1.890871 -3.02539,0.945435 3.78174,2.836306 4.91626,1.512696 4.91626,1.512696 l -0.56726,7.563483 5.10535,-1.701784 -5.29443,-14.181529 c 0,0 -3.21448,-4.349002 -5.10535,-6.618047 -1.89088,-2.269044 -13.61427,-8.698004 -13.61427,-8.698004 z"
       style="fill:#eade7a;fill-opacity:1;stroke:#000000;stroke-width:1px;stroke-linecap:butt;stroke-linejoin:miter;stroke-opacity:1" />
    <path
       inkscape:connector-curvature="0"
       id="path3234"
       d="m 268.6927,54.400848 5.10535,0.945436 c 0,0 10.2107,-6.996221 12.29066,-6.807134 2.07996,0.189087 -1.89087,1.701783 1.70178,2.269044 3.59266,0.567262 3.0254,-2.269044 3.0254,-2.269044 0,0 2.64722,0.567261 6.23987,-3.025393 3.59265,-3.592654 1.5127,-8.508917 -0.94544,-4.916263 -2.45813,3.592654 -6.42896,4.349002 -6.42896,4.349002 0,0 1.5127,-6.050786 -1.13452,-6.618047 -2.64722,-0.567261 -5.48352,1.512696 -4.15991,4.727176 1.32361,3.21448 -1.32361,2.647219 -1.32361,2.647219 0,0 -11.15614,3.403567 -13.04701,4.349002 -1.89087,0.945435 -4.349,0 -4.349,0 z"
       style="fill:#c26315;fill-opacity:1;stroke:#000000;stroke-width:1px;stroke-linecap:butt;stroke-linejoin:miter;stroke-opacity:1" />
    <path
       inkscape:connector-curvature="0"
       id="path3230"
       d="m 249.40582,21.499701 c 0,0 -4.349,0.189087 -4.72717,2.269045 -0.37818,2.079957 -6.23988,-2.458132 -4.72718,0.756348 1.5127,3.21448 3.40357,3.025393 3.40357,3.025393 0,0 -4.34901,6.42896 -2.64722,11.53431 1.70178,5.105351 5.48352,10.210701 9.26526,11.53431 3.78174,1.32361 12.66884,2.079958 12.66884,2.079958 0,0 -6.42896,-0.945435 -3.40357,3.21448 3.02539,4.159915 8.88709,-1.32361 8.88709,-1.32361 0,0 -0.75635,-4.349002 -1.89087,-8.130743 -1.13452,-3.781741 -5.10535,-5.294437 -4.53809,-2.458131 0.56726,2.836305 -2.07996,5.672611 -5.67261,-0.945436 -3.59265,-6.618047 -3.59265,-14.181529 -1.89087,-18.152357 1.70178,-3.970828 -4.72718,-3.403567 -4.72718,-3.403567 z"
       style="fill:#eade7a;fill-opacity:1;stroke:#000000;stroke-width:1px;stroke-linecap:butt;stroke-linejoin:miter;stroke-opacity:1" />
    <path
       inkscape:connector-curvature="0"
       id="path3242"
       d="m 283.44149,117.74501 c 0,0 -4.53809,-0.75635 -4.53809,1.5127 0,2.26904 1.70179,5.48352 -0.94543,7.18531 -2.64722,1.70178 -6.80714,1.3236 -6.80714,1.3236 l 4.91627,4.15992 c 0,0 0.18908,0.37817 3.97082,-0.56726 3.78175,-0.94544 4.72718,-6.23987 4.72718,-6.23987 l 0.56726,-3.59266 c 0,0 0.18909,-3.02539 -1.89087,-3.78174 z"
       style="fill:#f26426;fill-opacity:1;stroke:#000000;stroke-width:1px;stroke-linecap:butt;stroke-linejoin:miter;stroke-opacity:1" />
    <path
       inkscape:connector-curvature="0"
       id="path3250"
       d="m 315.58629,68.015116 c 0,0 0.75635,-7.374395 2.64722,-9.265265 1.89087,-1.890871 7.94166,-1.32361 7.94166,-1.32361 0,0 -2.07996,-1.323609 -3.21448,3.21448 -1.13453,4.538089 -4.53809,12.479746 -3.78175,15.316051 0.75635,2.836306 -4.349,3.403567 -4.349,3.403567 z"
       style="fill:#0044aa;fill-opacity:1;stroke:#000000;stroke-width:1px;stroke-linecap:butt;stroke-linejoin:miter;stroke-opacity:1" />
    <path
       inkscape:connector-curvature="0"
       id="path3246"
       d="m 316.15355,28.874096 c 0,0 1.5127,13.803355 0.37818,17.585096 -1.13453,3.781741 -3.0254,6.42896 -2.45814,11.156136 0.56727,4.727177 1.5127,12.290659 2.45814,14.74879 0.94543,2.458132 2.8363,6.42896 2.8363,6.42896 l -7.37439,1.512697 c 0,0 -2.64722,-8.319831 -1.89087,-10.399788 0.75634,-2.079958 -1.89087,-8.508918 -1.13453,-11.912485 0.75635,-3.403567 1.5127,-11.723397 1.5127,-11.723397 0,0 0.94544,1.134522 1.89087,-4.159915 0.94544,-5.294437 0.75635,-14.74879 0.75635,-14.74879 z"
       style="fill:#558bd5;fill-opacity:1;stroke:#000000;stroke-width:1px;stroke-linecap:butt;stroke-linejoin:miter;stroke-opacity:1" />
    <path
       inkscape:connector-curvature="0"
       id="path3254"
       d="m 281.9288,73.876815 c 5.10535,2.079957 5.10535,3.592654 6.23987,1.323609 1.13452,-2.269044 0,-7.752569 -2.26905,-5.861698 -2.26904,1.89087 -4.91626,0.567261 -3.97082,4.538089 z"
       style="fill:#fff380;fill-opacity:1;stroke:#000000;stroke-width:1px;stroke-linecap:butt;stroke-linejoin:miter;stroke-opacity:1" />
    <path
       inkscape:connector-curvature="0"
       id="path3256"
       d="m 288.35776,94.109129 c -1.13453,2.079958 -3.0254,5.861699 -0.37818,6.239871 2.64722,0.37818 6.61805,-1.323607 4.91626,-3.781739 -1.70178,-2.458132 -4.53808,-2.458132 -4.53808,-2.458132 z"
       style="fill:#fff380;fill-opacity:1;stroke:#000000;stroke-width:1px;stroke-linecap:butt;stroke-linejoin:miter;stroke-opacity:1" />
    <path
       inkscape:connector-curvature="0"
       id="path3258"
       d="m 262.45283,25.281442 -2.26905,1.701784 c 0,0 -0.18908,5.483524 1.70179,4.916263 1.89087,-0.567261 4.15991,-2.647219 4.72717,-4.349002 0.56727,-1.701784 -4.15991,-2.269045 -4.15991,-2.269045 z"
       style="fill:#ff9b47;fill-opacity:1;stroke:none" />
    <path
       inkscape:connector-curvature="0"
       id="path3260"
       d="m 268.88179,33.223099 c 0,0 -4.15992,-1.134523 -3.59266,2.458131 0.56727,3.592654 5.10536,2.647219 6.80714,0.756348 1.70178,-1.89087 -3.21448,-3.214479 -3.21448,-3.214479 z"
       style="fill:#ff9b47;fill-opacity:1;stroke:none" />
    <path
       inkscape:connector-curvature="0"
       id="path3262"
       d="m 269.63814,40.219319 c 0,0 -5.67261,-1.89087 -2.26905,2.458132 3.40357,4.349002 7.94166,6.050786 8.88709,3.21448 0.94544,-2.836306 -6.61804,-5.672612 -6.61804,-5.672612 z"
       style="fill:#ff9b47;fill-opacity:1;stroke:none" />
    <path
       inkscape:connector-curvature="0"
       id="path4042"
       d="m 247.37909,26.837413 c 0,0 -5.06493,2.614155 -4.41139,6.698772 0.65354,4.084618 -0.49015,10.45662 3.10432,8.986158 3.59446,-1.470462 -0.49017,-7.515695 1.79722,-9.966466 2.28739,-2.45077 5.55508,-6.045233 3.26769,-6.535387 -2.28737,-0.490154 -3.75784,0.816923 -3.75784,0.816923 z"
       style="fill:#fffefd;fill-opacity:1;stroke:none" />
    <path
       inkscape:connector-curvature="0"
       id="path4044"
       d="m 246.94769,16.205264 c 0,0 -6.99622,3.970828 -2.26904,2.836305 4.72717,-1.134522 3.97083,-1.512696 7.18531,-1.134522 3.21448,0.378174 4.72717,-1.512696 3.21448,-1.512696 -1.5127,0 -8.13075,-0.189087 -8.13075,-0.189087 z"
       style="fill:#fffefd;fill-opacity:1;stroke:none" />
    <path
       inkscape:connector-curvature="0"
       id="path4054"
       d="m 312.86908,105.09192 c 0,0 -3.74373,0 -2.9415,4.54596 0.80223,4.54596 8.28969,13.37048 13.10306,9.89415 4.81338,-3.47632 5.08078,-8.02228 5.08078,-8.02228 0,0 -5.61559,8.02228 -9.09192,5.08078 -3.47632,-2.9415 -0.26741,-4.27855 -0.26741,-7.48747 0,-3.20891 -5.88301,-4.01114 -5.88301,-4.01114 z"
       style="fill:#b3a514;fill-opacity:1;stroke:#000000;stroke-width:1px;stroke-linecap:butt;stroke-linejoin:miter;stroke-opacity:1" />
    <path
       inkscape:connector-curvature="0"
       id="path4056"
       d="m 242.00557,129.42618 0.53482,4.27856 c 0,0 5.6156,6.68523 5.88301,7.75487 0.26741,1.06964 7.75488,-7.48746 7.48747,-9.62674 -0.26741,-2.13928 -13.9053,-2.40669 -13.9053,-2.40669 z"
       style="fill:#fff380;fill-opacity:1;stroke:#000000;stroke-width:1px;stroke-linecap:butt;stroke-linejoin:miter;stroke-opacity:1" />
    <path
       inkscape:connector-curvature="0"
       id="path4058"
       d="m 308.2119,15.070742 c 0,0 1.51269,5.672611 3.02539,9.832526 1.51269,4.159915 6.42896,5.294438 6.42896,5.294438 0,0 -3.02539,-4.159915 1.13452,-6.807134 4.15992,-2.647219 7.56348,-2.647219 7.56348,-2.647219 0,0 -7.94165,-1.134522 -7.94165,-5.672611 0,-4.53809 2.26904,0 -3.0254,1.134522 -5.29443,1.134522 -7.1853,-1.134522 -7.1853,-1.134522 z"
       style="fill:#fff380;fill-opacity:1;stroke:#000000;stroke-width:1px;stroke-linecap:butt;stroke-linejoin:miter;stroke-opacity:1" />
    <text
       sodipodi:linespacing="125%"
       id="text4060"
       y="13.235213"
       x="229.79149"
       style="font-size:21.5524826px;font-style:italic;font-variant:normal;font-weight:normal;font-stretch:normal;line-height:125%;letter-spacing:0px;word-spacing:0px;fill:#000000;fill-opacity:1;stroke:none;font-family:Asana Math;-inkscape-font-specification:Asana Math Italic"
       xml:space="preserve"><tspan
         y="13.235213"
         x="229.79149"
         id="tspan4062"
         sodipodi:role="line">1</tspan></text>
    <path
       sodipodi:nodetypes="cccccc"
       inkscape:connector-curvature="0"
       id="path4064"
       d="m 248.83856,-4.594312 -20.79957,0 0,173.203742 119.50301,-0.0945 0,-173.1092019 -25.33766,0"
       style="opacity:0.59040073;fill:none;stroke:#000000;stroke-width:1px;stroke-linecap:butt;stroke-linejoin:miter;stroke-opacity:1" />
    <text
       transform="scale(-1,-1)"
       sodipodi:linespacing="125%"
       id="text4060-1"
       y="-146.41426"
       x="-342.70764"
       style="font-size:21.5524826px;font-style:italic;font-variant:normal;font-weight:normal;font-stretch:normal;line-height:125%;letter-spacing:0px;word-spacing:0px;fill:#000000;fill-opacity:1;stroke:none;font-family:Asana Math;-inkscape-font-specification:Asana Math Italic"
       xml:space="preserve"><tspan
         y="-146.41426"
         x="-342.70764"
         id="tspan4062-8"
         sodipodi:role="line">1</tspan></text>
    <path
       inkscape:connector-curvature="0"
       id="path4089"
       d="m 261.69648,-4.594312 48.02811,0"
       style="fill:none;stroke:#000000;stroke-width:1px;stroke-linecap:butt;stroke-linejoin:miter;stroke-opacity:1" />
  </g>
  <path
     sodipodi:type="arc"
     style="opacity:0.90880001;fill:url(#linearGradient3922);fill-opacity:1;stroke:none"
     id="path3914"
     sodipodi:cx="46.930363"
     sodipodi:cy="26.874651"
     sodipodi:rx="33.827297"
     sodipodi:ry="12.167131"
     d="m 80.659876,25.95019 a 33.827297,12.167131 0 1 1 -0.0036,-0.01675 l -33.725931,0.941216 z"
     sodipodi:start="6.2071318"
     sodipodi:end="12.488936"
     transform="matrix(1,0,0,1.5219531,1.464029,-12.959639)" />
</svg>
