<?xml version="1.0" encoding="UTF-8" standalone="no"?>
<!-- Created with Inkscape (http://www.inkscape.org/) -->

<svg
   xmlns:dc="http://purl.org/dc/elements/1.1/"
   xmlns:cc="http://creativecommons.org/ns#"
   xmlns:rdf="http://www.w3.org/1999/02/22-rdf-syntax-ns#"
   xmlns:svg="http://www.w3.org/2000/svg"
   xmlns="http://www.w3.org/2000/svg"
   xmlns:sodipodi="http://sodipodi.sourceforge.net/DTD/sodipodi-0.dtd"
   xmlns:inkscape="http://www.inkscape.org/namespaces/inkscape"
   height="60.0000000"
   id="svg1"
   inkscape:version="0.48.3.1 r9886"
   sodipodi:docname="applications-puzzles.svg"
   sodipodi:version="0.32"
   version="1.0"
   width="60.0000000"
   x="0"
   y="0">
  <metadata
     id="metadata3">
    <rdf:RDF>
      <cc:Work
         rdf:about="">
        <dc:title />
        <dc:description />
        <dc:subject>
          <rdf:Bag>
            <rdf:li>hash</rdf:li>
            <rdf:li />
            <rdf:li>application</rdf:li>
            <rdf:li>computer</rdf:li>
            <rdf:li>icons</rdf:li>
            <rdf:li>theme</rdf:li>
          </rdf:Bag>
        </dc:subject>
        <dc:publisher>
          <cc:Agent
             rdf:about="http://www.openclipart.org">
            <dc:title>Danny Allen</dc:title>
          </cc:Agent>
        </dc:publisher>
        <dc:creator>
          <cc:Agent>
            <dc:title>Danny Allen</dc:title>
          </cc:Agent>
        </dc:creator>
        <dc:rights>
          <cc:Agent>
            <dc:title>Danny Allen</dc:title>
          </cc:Agent>
        </dc:rights>
        <dc:date />
        <dc:format>image/svg+xml</dc:format>
        <dc:type
           rdf:resource="http://purl.org/dc/dcmitype/StillImage" />
        <cc:license
           rdf:resource="http://web.resource.org/cc/PublicDomain" />
        <dc:language>en</dc:language>
      </cc:Work>
      <cc:License
         rdf:about="http://web.resource.org/cc/PublicDomain">
        <cc:permits
           rdf:resource="http://web.resource.org/cc/Reproduction" />
        <cc:permits
           rdf:resource="http://web.resource.org/cc/Distribution" />
        <cc:permits
           rdf:resource="http://web.resource.org/cc/DerivativeWorks" />
      </cc:License>
    </rdf:RDF>
  </metadata>
  <sodipodi:namedview
     bordercolor="#666666"
     borderopacity="1.0"
     id="base"
     inkscape:cx="-78.424512"
     inkscape:cy="30.253739"
     inkscape:pageopacity="0.0"
     inkscape:pageshadow="2"
     inkscape:window-height="693"
     inkscape:window-width="1016"
     inkscape:window-x="749"
     inkscape:window-y="241"
     inkscape:zoom="4.9119411"
     pagecolor="#ffffff"
     showgrid="false"
     inkscape:window-maximized="0"
     inkscape:current-layer="svg1" />
  <defs
     id="defs3" />
  <path
     inkscape:connector-curvature="0"
     d="M 30.964422,8.361388 C 30.341817,7.6030281 29.414184,6.9268832 28.49882,6.8862631 26.534979,7.3085473 28.458736,8.4496846 27.6047,9.4061965 26.750656,10.362707 25.808855,9.2403506 25.808855,9.2403506 l 0,0 -3.819354,-5.0177188 -5.089904,3.8742983 C 16.728315,8.2052398 15.711408,8.7958394 15.189902,7.7413701 14.621442,6.5919563 16.778021,6.0055794 14.997564,5.0755452 14.2438,4.902852 13.36289,5.1625032 12.623513,5.5879689 c -0.01153,0.00669 -0.02424,0.012899 -0.03573,0.019627 -0.274516,0.1305822 -0.564538,0.3116242 -0.844489,0.5414585 -0.758357,0.6226105 -1.434504,1.5502369 -1.475125,2.4656011 0.422284,1.9638395 1.563421,0.040077 2.519931,0.894124 0.956515,0.8540405 -0.165842,1.7958395 -0.165842,1.7958395 l -4.992926,3.848602 c 0,0 3.872885,5.004845 3.872885,5.004845 0,0 0.941791,1.12236 1.795839,0.165846 0.854039,-0.956513 -1.068494,-2.096045 0.895343,-2.518327 0.915365,0.04062 1.841776,0.715156 2.464379,1.473517 0.229842,0.279951 0.41087,0.569979 0.54146,0.844492 0.0067,0.01154 0.01295,0.0242 0.01963,0.03573 0.425461,0.739375 0.686339,1.621889 0.513644,2.375648 -0.930034,1.780459 -1.517632,-0.377727 -2.667047,0.190738 -1.149412,0.568463 -0.318403,1.775153 -0.318403,1.775153 l 3.795884,4.98998 5.240695,-3.989078 c 0.380238,-0.177028 1.122807,-0.384207 1.534556,0.448333 0.568461,1.149411 -1.589725,1.737015 0.190735,2.66705 0.75376,0.172687 1.636271,-0.08819 2.375649,-0.513649 0.01174,-0.0064 0.02279,-0.01146 0.03453,-0.01787 0.274494,-0.130615 0.564538,-0.311622 0.844489,-0.541464 0.758325,-0.622644 1.434504,-1.550235 1.475127,-2.465596 -0.422284,-1.963841 -1.563418,-0.04008 -2.519931,-0.89412 -0.956513,-0.854037 0.165846,-1.795838 0.165846,-1.795838 L 32.903523,18.5608 28.912005,13.316896 c -0.17421,-0.386716 -0.355258,-1.10493 0.460619,-1.508435 1.14941,-0.568465 1.735789,1.588118 2.665824,-0.192338 0.172692,-0.753764 -0.08696,-1.6346715 -0.512423,-2.3740493 -0.0067,-0.011534 -0.0129,-0.024239 -0.01963,-0.035733 C 31.37581,8.9318304 31.194773,8.6418052 30.964938,8.3618532 z"
     id="path1452"
     sodipodi:nodetypes="cccccccccccccccccccccccccccccccccccccccccc"
     style="fill:#694869;fill-opacity:1;fill-rule:evenodd;stroke-width:1;display:inline;stroke:#8abb22;stroke-miterlimit:4;stroke-dasharray:none" />
  <path
     inkscape:connector-curvature="0"
     d="m 57.31469,40.152279 c -0.03549,-0.963873 -0.358504,-2.045043 -1.05031,-2.621811 -1.787522,-0.838933 -0.962188,1.199032 -2.199704,1.438726 -1.237517,0.239695 -1.305951,-1.198938 -1.305951,-1.198938 l 0,0 0,-6.198808 c 0,0 -6.147286,0.0079 -6.147286,0.0079 0,0 -1.438633,0.06843 -1.198938,1.305951 0.194753,1.00548 1.577639,0.648907 1.638879,1.438723 0.01413,0.182266 -0.04286,0.425819 -0.200153,0.760981 -0.576765,0.691806 -1.657938,1.014825 -2.621811,1.050307 -0.355818,0.01311 -0.690457,-0.01797 -0.982929,-0.07927 -0.01298,-0.0015 -0.02665,-0.0043 -0.03964,-0.006 -0.83165,-0.107419 -1.675282,-0.428799 -2.162052,-1.012656 -0.838933,-1.787524 1.199031,-0.96219 1.438725,-2.199706 0.174642,-0.901644 -0.537651,-1.180178 -0.939333,-1.266316 l -6.52579,0 c 0,0 0.04954,6.220608 0.04954,6.220606 0,0 0.06844,1.438633 1.305952,1.198938 1.237516,-0.239695 0.412182,-2.275675 2.199704,-1.436743 0.691806,0.576765 1.014827,1.655957 1.05031,2.619828 0.01311,0.355818 -0.01797,0.69046 -0.07927,0.982932 -0.0015,0.01298 -0.0043,0.02664 -0.006,0.03963 -0.107419,0.831648 -0.428796,1.677264 -1.012656,2.164034 -1.787524,0.838932 -0.962188,-1.199032 -2.199704,-1.438726 -1.237516,-0.239695 -1.305951,1.198938 -1.305951,1.198938 l -0.002,6.163137 c 0,0 6.230514,-0.03964 6.230514,-0.03964 0,0 1.438636,-0.06844 1.198939,-1.30595 -0.239695,-1.237517 -2.277656,-0.412183 -1.438726,-2.199705 0.576767,-0.691806 1.657941,-1.014827 2.621811,-1.05031 0.355817,-0.01311 0.690457,0.01797 0.982932,0.07927 0.01298,0.0015 0.02665,0.0043 0.03963,0.006 0.83165,0.107416 1.675285,0.428796 2.162053,1.012655 0.157299,0.33516 0.214286,0.578713 0.200152,0.760979 -0.06124,0.789816 -1.442144,0.433245 -1.636894,1.438726 -0.223646,1.154651 0.972767,1.284868 1.139485,1.298025 l 6.240426,0 0,-6.47823 c 0.09398,-0.40621 0.379975,-1.075786 1.25839,-0.905646 1.237517,0.239695 0.41218,2.275678 2.199704,1.436745 0.583857,-0.48677 0.905237,-1.330402 1.012656,-2.162052 0.0017,-0.01298 0.0044,-0.02666 0.006,-0.03964 0.0613,-0.292472 0.09237,-0.627111 0.07927,-0.982929 z"
     id="path1352"
     sodipodi:nodetypes="cccccccccccccccccccccccccccccccccccccccccccc"
     style="fill:#694869;fill-opacity:1;fill-rule:evenodd;stroke-width:1;display:inline;stroke:#8abb22;stroke-miterlimit:4;stroke-dasharray:none" />
  <path
     inkscape:connector-curvature="0"
     d="m 15.468521,32.017893 c -0.843132,0.259507 -1.721824,0.800823 -2.067603,1.548526 -0.318011,1.777777 1.287049,0.56621 1.791752,1.602753 0.504699,1.036538 -0.750056,1.43755 -0.750056,1.43755 l -5.4763209,1.467375 1.4884859,5.555105 c 0.03173,0.179417 0.176495,1.226738 -0.8785325,1.301216 -1.1500182,0.08119 -0.9028356,-1.912867 -2.2834278,-0.748572 -0.4005809,0.568245 -0.4847987,1.389625 -0.3828302,2.149769 0.00154,0.01188 0.00241,0.0246 0.00415,0.03644 0.015075,0.272898 0.066847,0.575886 0.1626487,0.887132 0.2595151,0.843135 0.800821,1.721826 1.5485266,2.067605 1.7777732,0.318015 0.5662098,-1.287045 1.6027492,-1.79175 1.036538,-0.5047 1.437551,0.750055 1.437551,0.750055 l 1.500168,5.465658 5.691663,-1.525076 c 0.365702,-0.02484 1.104334,0.03369 1.165223,0.896207 0.08119,1.150023 -1.91287,0.902837 -0.748577,2.283426 0.568244,0.400584 1.38963,0.484802 2.149776,0.382832 0.01188,-0.0016 0.02459,-0.0024 0.03642,-0.0042 0.272893,-0.01508 0.575888,-0.06685 0.887134,-0.162641 0.843132,-0.259507 1.721823,-0.800824 2.067604,-1.548528 0.318011,-1.777777 -1.28705,-0.566209 -1.791753,-1.602752 -0.5047,-1.036537 0.750056,-1.43755 0.750056,-1.43755 l 5.440593,-1.47467 -1.532582,-5.719671 c -0.01769,-0.376682 0.06304,-1.065088 0.896022,-1.123891 1.15002,-0.08119 0.903305,1.914617 2.283895,0.750327 0.400582,-0.56825 0.484332,-1.39138 0.382362,-2.151529 -0.0015,-0.01188 -0.0019,-0.02285 -0.0036,-0.03466 -0.01508,-0.272897 -0.06685,-0.575891 -0.162649,-0.887132 -0.259514,-0.843131 -0.800821,-1.721826 -1.548526,-2.067606 -1.777774,-0.318013 -0.56621,1.28705 -1.60275,1.791751 -1.017888,0.495623 -1.417803,-0.693145 -1.432048,-0.73652 -2.69e-4,-9.37e-4 -0.0094,-0.03499 -0.0094,-0.03499 0,0 0.005,0.0436 0.0071,0.0544 l -1.477227,-5.513086 -5.723176,1.533521 c -0.381111,0.01313 -1.040347,-0.08103 -1.097973,-0.897337 -0.08119,-1.150022 1.912869,-0.902837 0.748575,-2.28343 -0.568244,-0.40058 -1.389627,-0.484797 -2.149776,-0.382828 -0.01187,0.0016 -0.02459,0.0024 -0.03642,0.0042 -0.272893,0.01508 -0.575886,0.06685 -0.887133,0.162641 z"
     id="path1532"
     sodipodi:nodetypes="ccccccccccccccccccccccccccccccccccccccccccc"
     style="fill:#8abb22;fill-opacity:1;stroke:#694869;stroke-width:1.33881055999999998;stroke-miterlimit:4;stroke-dasharray:none;display:inline" />
</svg>
