<?xml version="1.0" encoding="UTF-8" standalone="no"?>
<!-- Created with Inkscape (http://www.inkscape.org/) -->

<svg
   xmlns:dc="http://purl.org/dc/elements/1.1/"
   xmlns:cc="http://creativecommons.org/ns#"
   xmlns:rdf="http://www.w3.org/1999/02/22-rdf-syntax-ns#"
   xmlns:svg="http://www.w3.org/2000/svg"
   xmlns="http://www.w3.org/2000/svg"
   xmlns:sodipodi="http://sodipodi.sourceforge.net/DTD/sodipodi-0.dtd"
   xmlns:inkscape="http://www.inkscape.org/namespaces/inkscape"
   height="60.0000000"
   id="svg1"
   inkscape:version="0.48.3.1 r9886"
   sodipodi:docname="applications-drawing.svg"
   sodipodi:version="0.32"
   version="1.0"
   width="60.0000000"
   x="0"
   y="0">
  <metadata
     id="metadata3">
    <rdf:RDF>
      <cc:Work
         rdf:about="">
        <dc:title>Part of the Flat Icon Collection (Wed Aug 25 23:23:49 2004)</dc:title>
        <dc:description />
        <dc:subject>
          <rdf:Bag>
            <rdf:li>hash</rdf:li>
            <rdf:li />
            <rdf:li>application</rdf:li>
            <rdf:li>computer</rdf:li>
            <rdf:li>icons</rdf:li>
            <rdf:li>theme</rdf:li>
          </rdf:Bag>
        </dc:subject>
        <dc:publisher>
          <cc:Agent
             rdf:about="http://www.openclipart.org">
            <dc:title>Danny Allen</dc:title>
          </cc:Agent>
        </dc:publisher>
        <dc:creator>
          <cc:Agent>
            <dc:title>Danny Allen</dc:title>
          </cc:Agent>
        </dc:creator>
        <dc:rights>
          <cc:Agent>
            <dc:title>Danny Allen</dc:title>
          </cc:Agent>
        </dc:rights>
        <dc:date />
        <dc:format>image/svg+xml</dc:format>
        <dc:type
           rdf:resource="http://purl.org/dc/dcmitype/StillImage" />
        <cc:license
           rdf:resource="http://web.resource.org/cc/PublicDomain" />
        <dc:language>en</dc:language>
      </cc:Work>
      <cc:License
         rdf:about="http://web.resource.org/cc/PublicDomain">
        <cc:permits
           rdf:resource="http://web.resource.org/cc/Reproduction" />
        <cc:permits
           rdf:resource="http://web.resource.org/cc/Distribution" />
        <cc:permits
           rdf:resource="http://web.resource.org/cc/DerivativeWorks" />
      </cc:License>
    </rdf:RDF>
  </metadata>
  <sodipodi:namedview
     bordercolor="#666666"
     borderopacity="1.0"
     id="base"
     inkscape:cx="61.450394"
     inkscape:cy="28.242227"
     inkscape:pageopacity="0.0"
     inkscape:pageshadow="2"
     inkscape:window-height="818"
     inkscape:window-width="1219"
     inkscape:window-x="699"
     inkscape:window-y="163"
     inkscape:zoom="6.9465337"
     pagecolor="#ffffff"
     showgrid="false"
     inkscape:window-maximized="0"
     inkscape:current-layer="svg1" />
  <defs
     id="defs3" />
  <path
     d="M 30.488427,2.3397330 C 28.433485,2.4681654 21.103366,1.3181958 20.075896,19.941103 C 13.140471,24.436289 5.2861775,39.955103 9.5244923,38.670765 C 13.762810,35.845223 14.561164,29.562266 17.787073,29.676659 C 19.713581,32.502201 11.342770,40.977575 12.113372,45.472760 C 11.884475,51.195175 18.507837,54.936586 21.719980,56.078713 C 23.472695,54.998320 26.442917,54.241207 30.004873,54.241207 C 33.931115,54.241208 37.258470,55.133024 38.870031,56.401082 C 40.822700,56.368084 48.089796,56.848163 48.089796,45.988550 C 48.860406,41.750237 40.134981,32.374285 42.061490,29.805606 C 45.030534,30.062471 46.167397,34.945157 50.534146,38.412869 C 54.644024,40.082505 47.063216,25.334807 40.256224,19.812155 C 39.742485,1.3176809 32.671801,2.4681654 30.488427,2.3397330 z "
     id="path873"
     sodipodi:nodetypes="ccccccccccccc"
     sodipodi:stroke-cmyk="(0.0000000 0.0000000 0.0000000 0.80000001)"
     style="fill:#a6f488;fill-rule:evenodd;stroke:#492356;stroke-width:1.87500000000000000;stroke-linecap:round;stroke-linejoin:round;stroke-dasharray:none;fill-opacity:1" />
  <path
     d="M 35.809536,39.836020 L 39.020382,41.890961 C 39.020382,41.890961 40.561591,40.991919 42.488096,41.120359 C 43.900861,41.120359 44.157731,44.459630 45.313638,44.844936 C 46.469546,45.230240 48.781349,43.175301 49.808828,44.973368 C 51.863761,49.725419 47.882311,58.715782 41.075319,58.458917 C 33.754595,58.330486 32.213389,42.661563 35.809536,39.836020 z "
     id="path845"
     sodipodi:nodetypes="ccccccc"
     sodipodi:stroke-cmyk="(0.0000000 0.0000000 0.0000000 0.80000001)"
     style="fill:#8abb22;fill-rule:evenodd;stroke:#492356;stroke-width:1.87500000000000000;stroke-linecap:round;stroke-linejoin:round;stroke-dasharray:none;fill-opacity:1" />
  <path
     d="M 24.142284,39.836020 L 20.931439,41.890961 C 20.931439,41.890961 19.390233,40.991919 17.463726,41.120359 C 16.050954,41.120359 15.794087,44.459630 14.638183,44.844936 C 13.482279,45.230240 11.170470,43.175301 10.142999,44.973368 C 8.0880588,49.725419 12.069508,58.715782 18.876498,58.458917 C 26.197224,58.330486 27.738430,42.661563 24.142284,39.836020 z "
     id="path854"
     sodipodi:nodetypes="ccccccc"
     sodipodi:stroke-cmyk="(0.0000000 0.0000000 0.0000000 0.80000001)"
     style="fill:#8abb22;fill-rule:evenodd;stroke:#492356;stroke-width:1.87500000000000000;stroke-linecap:round;stroke-linejoin:round;stroke-dasharray:none;fill-opacity:1" />
  <g
     transform="translate(-1.9793936,2.7536876)"
     id="g2998">
    <path
       d="m 30.484645,36.221017 c -10.187962,7.412525 -10.187962,7.412525 -10.187962,7.412525 l 6.2775,-10.915353 3.910462,3.502828 z"
       id="path599"
       sodipodi:nodetypes="cccc"
       sodipodi:stroke-cmyk="(0 0 0 0.8)"
       style="font-size:12px;fill:#8abb22;fill-rule:evenodd;stroke:#492356;stroke-width:2.5;stroke-linecap:round;stroke-linejoin:round;stroke-dasharray:none"
       inkscape:connector-curvature="0" />
    <rect
       height="37.233131"
       id="rect598"
       sodipodi:fill-cmyk="(0 0 0 0.3)"
       sodipodi:stroke-cmyk="(0 0 0 0.8)"
       style="font-size:12px;fill:#8abb22;fill-opacity:1;fill-rule:evenodd;stroke:#492356;stroke-width:2.5;stroke-linecap:round;stroke-linejoin:round;stroke-dasharray:none"
       transform="matrix(-0.74167851,-0.67075553,0.67075553,-0.74167851,0,0)"
       width="5.1712675"
       x="-46.869789"
       y="-6.4040265" />
    <path
       d="m 61.966338,18.726221 c 0,0.342582 -0.277717,0.6203 -0.620299,0.6203 -0.342582,0 -0.6203,-0.277718 -0.6203,-0.6203 0,-0.342582 0.277718,-0.620299 0.6203,-0.620299 0.342582,0 0.620299,0.277717 0.620299,0.620299 z"
       id="path600"
       sodipodi:cx="61.346039"
       sodipodi:cy="18.726221"
       sodipodi:rx="0.62029958"
       sodipodi:ry="0.62029958"
       sodipodi:stroke-cmyk="(0 0 0 0.8)"
       sodipodi:type="arc"
       style="font-size:12px;fill:#8abb22;fill-rule:evenodd;stroke:#492356;stroke-width:2.33736491;stroke-dasharray:none"
       transform="matrix(-0.793285,-0.717427,0.717427,-0.793285,58.05658,99.6609)" />
    <rect
       height="3.2061858"
       id="rect601"
       rx="1.6256616"
       sodipodi:fill-cmyk="(0 0 0 0.2)"
       sodipodi:stroke-cmyk="(0 0 0 0.8)"
       style="font-size:12px;fill:#8abb22;fill-rule:evenodd;stroke:#492356;stroke-width:2.5;stroke-dasharray:none"
       transform="matrix(-0.74167851,-0.67075553,0.67075553,-0.74167851,0,0)"
       width="5.8952456"
       x="-47.180058"
       y="30.713127" />
  </g>
</svg>
