<?xml version="1.0" encoding="UTF-8" standalone="no"?>
<!-- Created with Inkscape (http://www.inkscape.org/) -->

<svg
   xmlns:dc="http://purl.org/dc/elements/1.1/"
   xmlns:cc="http://creativecommons.org/ns#"
   xmlns:rdf="http://www.w3.org/1999/02/22-rdf-syntax-ns#"
   xmlns:svg="http://www.w3.org/2000/svg"
   xmlns="http://www.w3.org/2000/svg"
   xmlns:sodipodi="http://sodipodi.sourceforge.net/DTD/sodipodi-0.dtd"
   xmlns:inkscape="http://www.inkscape.org/namespaces/inkscape"
   height="60.0000000"
   id="svg1"
   inkscape:version="0.48.3.1 r9886"
   sodipodi:docname="applications-roleplaying.svg"
   sodipodi:version="0.32"
   version="1.0"
   width="60.0000000"
   x="0"
   y="0">
  <metadata
     id="metadata3">
    <rdf:RDF>
      <cc:Work
         rdf:about="">
        <dc:title />
        <dc:description />
        <dc:subject>
          <rdf:Bag>
            <rdf:li>hash</rdf:li>
            <rdf:li />
            <rdf:li>application</rdf:li>
            <rdf:li>computer</rdf:li>
            <rdf:li>icons</rdf:li>
            <rdf:li>theme</rdf:li>
          </rdf:Bag>
        </dc:subject>
        <dc:publisher>
          <cc:Agent
             rdf:about="http://www.openclipart.org">
            <dc:title>Danny Allen</dc:title>
          </cc:Agent>
        </dc:publisher>
        <dc:creator>
          <cc:Agent>
            <dc:title>Danny Allen</dc:title>
          </cc:Agent>
        </dc:creator>
        <dc:rights>
          <cc:Agent>
            <dc:title>Danny Allen</dc:title>
          </cc:Agent>
        </dc:rights>
        <dc:date />
        <dc:format>image/svg+xml</dc:format>
        <dc:type
           rdf:resource="http://purl.org/dc/dcmitype/StillImage" />
        <cc:license
           rdf:resource="http://web.resource.org/cc/PublicDomain" />
        <dc:language>en</dc:language>
      </cc:Work>
      <cc:License
         rdf:about="http://web.resource.org/cc/PublicDomain">
        <cc:permits
           rdf:resource="http://web.resource.org/cc/Reproduction" />
        <cc:permits
           rdf:resource="http://web.resource.org/cc/Distribution" />
        <cc:permits
           rdf:resource="http://web.resource.org/cc/DerivativeWorks" />
      </cc:License>
    </rdf:RDF>
  </metadata>
  <sodipodi:namedview
     bordercolor="#666666"
     borderopacity="1.0"
     id="base"
     inkscape:cx="29.48787"
     inkscape:cy="33.511107"
     inkscape:pageopacity="0.0"
     inkscape:pageshadow="2"
     inkscape:window-height="693"
     inkscape:window-width="1016"
     inkscape:window-x="235"
     inkscape:window-y="158"
     inkscape:zoom="4.9119411"
     pagecolor="#ffffff"
     showgrid="false"
     inkscape:window-maximized="0"
     inkscape:current-layer="svg1" />
  <defs
     id="defs3" />
  <path
     inkscape:connector-curvature="0"
     d="M 3.0537824,52.238303 C 26.593356,55.037603 61.966337,63.053783 55.60429,50.45693 49.242243,37.860077 61.330133,3.886746 56.240495,4.1412279 51.150857,4.3957098 5.3441192,1.5964091 4.5806736,6.8132876 3.817228,12.030166 3.0537824,52.238303 3.0537824,52.238303 z"
     id="path865"
     sodipodi:nodetypes="ccccc"
     style="fill:#a6f488;fill-opacity:1;fill-rule:evenodd;stroke:none" />
  <g
     id="g873"
     transform="translate(0,1.1451694)"
     style="fill:#492356">
    <path
       inkscape:connector-curvature="0"
       d="m 11.456257,15.244832 c 2.141136,0.239347 4.062352,2.45687 5.458497,3.885404 0.883153,0.950474 1.714139,1.93071 2.501956,2.961619 l -1.791889,0.504964 c -0.741249,-1.001064 -1.53451,-1.936641 -2.392408,-2.839642 -0.927043,-0.914142 -1.889725,-1.795409 -2.991586,-2.497638 -0.392593,-0.250205 -1.057793,-0.582443 -0.78457,-0.555101 l 0,-1.459606 z"
       id="path866"
       sodipodi:fill-cmyk="(0.0000000 0.0000000 0.0000000 0.80000001)"
       sodipodi:nodetypes="cccccccc"
       style="fill:#492356;stroke-width:1pt"
       transform="matrix(1.933848,0,0,1.933848,9.417255,6.636538)" />
    <path
       inkscape:connector-curvature="0"
       d="m 10.950377,21.864217 c 1.348552,-1.986654 3.039688,-3.813739 4.579086,-5.651186 0.511855,-0.60161 1.027692,-1.198891 1.549958,-1.791482 l 1.723842,0.583863 c -0.532883,0.573994 -1.054433,1.15563 -1.569977,1.745255 -1.020618,1.204152 -2.023892,2.427109 -2.928507,3.72205 -0.403209,0.577186 -1.544453,2.342873 -1.074806,1.818321 l -2.279596,-0.426821 z"
       id="path867"
       sodipodi:fill-cmyk="(0.0000000 0.0000000 0.0000000 0.80000001)"
       style="fill:#492356;stroke-width:1pt"
       transform="matrix(1.933848,0,0,1.933848,9.417255,6.636538)" />
  </g>
  <path
     inkscape:connector-curvature="0"
     d="M 2.9265416,41.0411 C 17.432009,29.589416 53.950158,27.935284 53.950158,27.935284 L 55.47705,22.0822 c 0,0 -0.127241,-0.636204 -5.34412,-0.890686 -11.197203,0 -16.159599,8.779625 -28.629211,8.779625 -12.4696123,0 -18.3226955,2.672059 -18.3226955,2.672059 L 2.9265416,41.0411 z"
     id="path878"
     sodipodi:nodetypes="ccccccc"
     style="fill:#8abb22;fill-opacity:1;fill-rule:evenodd;stroke:none" />
  <path
     inkscape:connector-curvature="0"
     d="m 12.342371,13.302576 c 6.362047,26.720597 27.993007,0.254481 33.591608,0.381723 7.379975,4.962396 -27.484043,18.322695 -28.756452,25.575428 -1.27241,7.252734 20.231309,3.94447 20.231309,3.94447"
     id="path876"
     sodipodi:nodetypes="cccc"
     sodipodi:stroke-cmyk="(0.0000000 0.0000000 0.0000000 0.80000001)"
     style="fill:none;stroke:#492356;stroke-width:2.50000000000000000;stroke-linecap:round;stroke-linejoin:round;stroke-opacity:1;stroke-dasharray:2.50000000000000000, 2.50000000000000000;stroke-dashoffset:0" />
  <path
     d="m 14.759948,11.839304 a 2.6084392,2.6084392 0 1 1 -5.2168779,0 2.6084392,2.6084392 0 1 1 5.2168779,0 z"
     id="path877"
     sodipodi:cx="12.151509"
     sodipodi:cy="11.839304"
     sodipodi:rx="2.6084392"
     sodipodi:ry="2.6084392"
     sodipodi:stroke-cmyk="(0.0000000 0.0000000 0.0000000 0.80000001)"
     sodipodi:type="arc"
     style="fill:#8abb22;fill-opacity:1;fill-rule:evenodd;stroke:#492356;stroke-width:1.87500000000000000;stroke-opacity:1;stroke-dasharray:none"
     transform="translate(0,1.1451694)" />
  <path
     inkscape:connector-curvature="0"
     d="M 3.0537824,52.238303 C 26.593356,55.037603 61.966337,63.053783 55.60429,50.45693 49.242243,37.860077 61.330133,3.886746 56.240495,4.1412279 51.150857,4.3957098 5.3441192,1.5964091 4.5806736,6.8132876 3.817228,12.030166 3.0537824,52.238303 3.0537824,52.238303 z"
     id="path879"
     sodipodi:nodetypes="ccccc"
     sodipodi:stroke-cmyk="(0.0000000 0.0000000 0.0000000 0.80000001)"
     style="fill:none;stroke:#492356;stroke-width:3.12500000000000000;stroke-linecap:round;stroke-linejoin:round;stroke-opacity:1;stroke-dasharray:none" />
</svg>
