<?xml version="1.0" encoding="UTF-8" standalone="no"?>
<!-- Created with Inkscape (http://www.inkscape.org/) -->

<svg
   xmlns:dc="http://purl.org/dc/elements/1.1/"
   xmlns:cc="http://creativecommons.org/ns#"
   xmlns:rdf="http://www.w3.org/1999/02/22-rdf-syntax-ns#"
   xmlns:svg="http://www.w3.org/2000/svg"
   xmlns="http://www.w3.org/2000/svg"
   xmlns:sodipodi="http://sodipodi.sourceforge.net/DTD/sodipodi-0.dtd"
   xmlns:inkscape="http://www.inkscape.org/namespaces/inkscape"
   height="60.0000000"
   id="svg1"
   inkscape:version="0.48.3.1 r9886"
   sodipodi:docname="applications-cardgames.svg"
   sodipodi:version="0.32"
   version="1.0"
   width="60.0000000"
   x="0"
   y="0">
  <metadata
     id="metadata3">
    <rdf:RDF>
      <cc:Work
         rdf:about="">
        <dc:title>Part of the Flat Icon Collection (Wed Aug 25 23:23:49 2004)</dc:title>
        <dc:description />
        <dc:subject>
          <rdf:Bag>
            <rdf:li>hash</rdf:li>
            <rdf:li />
            <rdf:li>application</rdf:li>
            <rdf:li>computer</rdf:li>
            <rdf:li>icons</rdf:li>
            <rdf:li>theme</rdf:li>
          </rdf:Bag>
        </dc:subject>
        <dc:publisher>
          <cc:Agent
             rdf:about="http://www.openclipart.org">
            <dc:title>Danny Allen</dc:title>
          </cc:Agent>
        </dc:publisher>
        <dc:creator>
          <cc:Agent>
            <dc:title>Danny Allen</dc:title>
          </cc:Agent>
        </dc:creator>
        <dc:rights>
          <cc:Agent>
            <dc:title>Danny Allen</dc:title>
          </cc:Agent>
        </dc:rights>
        <dc:date />
        <dc:format>image/svg+xml</dc:format>
        <dc:type
           rdf:resource="http://purl.org/dc/dcmitype/StillImage" />
        <cc:license
           rdf:resource="http://web.resource.org/cc/PublicDomain" />
        <dc:language>en</dc:language>
      </cc:Work>
      <cc:License
         rdf:about="http://web.resource.org/cc/PublicDomain">
        <cc:permits
           rdf:resource="http://web.resource.org/cc/Reproduction" />
        <cc:permits
           rdf:resource="http://web.resource.org/cc/Distribution" />
        <cc:permits
           rdf:resource="http://web.resource.org/cc/DerivativeWorks" />
      </cc:License>
    </rdf:RDF>
  </metadata>
  <sodipodi:namedview
     bordercolor="#666666"
     borderopacity="1.0"
     id="base"
     inkscape:cx="43.480236"
     inkscape:cy="25.367687"
     inkscape:pageopacity="0.0"
     inkscape:pageshadow="2"
     inkscape:window-height="693"
     inkscape:window-width="1016"
     inkscape:window-x="688"
     inkscape:window-y="339"
     inkscape:zoom="4.9119411"
     pagecolor="#ffffff"
     showgrid="false"
     inkscape:window-maximized="0"
     inkscape:current-layer="svg1" />
  <defs
     id="defs3" />
  <rect
     height="43.5163994"
     id="rect1107"
     rx="2"
     sodipodi:stroke-cmyk="(0.0000000 0.0000000 0.0000000 0.69999999)"
     style="font-size:12;fill:#a6f488;fill-opacity:1;fill-rule:evenodd;stroke:#492356;stroke-width:3.12500000000000000;stroke-dasharray:none;stroke-opacity:1;stroke-linejoin:round;opacity:0.8"
     transform="translate(-0.508964,0.254482)"
     width="30.7923069"
     x="4.83515549"
     y="7.06776953" />
  <path
     d="M 29.375000 3.500000 C 22.177450 3.500000 16.343750 9.333699 16.343750 16.531250 C 16.343750 17.736651 16.537141 18.891736 16.843750 20.000000 C 9.898488 20.285859 4.312500 25.953664 4.312500 32.968750 C 4.312500 40.166300 10.177449 45.999999 17.375000 46.000000 C 20.610186 46.000000 23.470092 44.703053 25.750000 42.750000 C 21.286401 51.767725 15.193984 57.587266 15.562500 57.218750 L 43.468750 57.218750 C 43.468751 57.218750 37.400656 51.357290 33.312500 42.156250 C 35.645855 44.349010 38.735290 45.750000 42.187500 45.750000 C 49.385050 45.750000 55.218752 39.916299 55.218750 32.718750 C 55.218750 25.521200 49.385051 19.687500 42.187500 19.687500 C 42.122803 19.687500 42.064475 19.717809 42.000000 19.718750 C 42.258319 18.695414 42.406250 17.634454 42.406250 16.531250 C 42.406250 9.333700 36.572551 3.500000 29.375000 3.500000 z "
     id="path642"
     sodipodi:stroke-cmyk="(0.0000000 0.0000000 0.0000000 0.69999999)"
     style="font-size:12;fill:#8abb22;fill-opacity:1;fill-rule:evenodd;stroke:#492356;stroke-width:3.27294000000000018;stroke-linejoin:round;stroke-linecap:round;stroke-dasharray:none;stroke-opacity:1;opacity:0.8"
     transform="matrix(0.420112,0.000000,0.000000,0.420112,7.081438,16.39423)" />
  <rect
     height="43.5163994"
     id="rect715"
     rx="2"
     sodipodi:stroke-cmyk="(0 0 0 0.8)"
     style="font-size:12;fill:#a6f488;fill-opacity:1;fill-rule:evenodd;stroke:#492356;stroke-width:3.12500000000000000;stroke-dasharray:none;stroke-opacity:1;stroke-linejoin:round"
     transform="matrix(0.866025,0.500000,-0.500000,0.866025,30.10205,-4.726816)"
     width="30.7923069"
     x="4.83515549"
     y="7.06776953" />
  <path
     d="M 29.375000 3.500000 C 22.177450 3.500000 16.343750 9.333699 16.343750 16.531250 C 16.343750 17.736651 16.537141 18.891736 16.843750 20.000000 C 9.898488 20.285859 4.312500 25.953664 4.312500 32.968750 C 4.312500 40.166300 10.177449 45.999999 17.375000 46.000000 C 20.610186 46.000000 23.470092 44.703053 25.750000 42.750000 C 21.286401 51.767725 15.193984 57.587266 15.562500 57.218750 L 43.468750 57.218750 C 43.468751 57.218750 37.400656 51.357290 33.312500 42.156250 C 35.645855 44.349010 38.735290 45.750000 42.187500 45.750000 C 49.385050 45.750000 55.218752 39.916299 55.218750 32.718750 C 55.218750 25.521200 49.385051 19.687500 42.187500 19.687500 C 42.122803 19.687500 42.064475 19.717809 42.000000 19.718750 C 42.258319 18.695414 42.406250 17.634454 42.406250 16.531250 C 42.406250 9.333700 36.572551 3.500000 29.375000 3.500000 z "
     id="path716"
     sodipodi:stroke-cmyk="(0 0 0 0.8)"
     style="font-size:12;fill:#8abb22;fill-opacity:1;fill-rule:evenodd;stroke:#492356;stroke-width:4.29110999999999976;stroke-linejoin:round;stroke-linecap:round;stroke-dasharray:none;stroke-opacity:1"
     transform="matrix(0.252273,0.145650,-0.145650,0.252273,29.45294,13.06713)" />
  <path
     d="M 29.375000 3.500000 C 22.177450 3.500000 16.343750 9.333699 16.343750 16.531250 C 16.343750 17.736651 16.537141 18.891736 16.843750 20.000000 C 9.898488 20.285859 4.312500 25.953664 4.312500 32.968750 C 4.312500 40.166300 10.177449 45.999999 17.375000 46.000000 C 20.610186 46.000000 23.470092 44.703053 25.750000 42.750000 C 21.286401 51.767725 15.193984 57.587266 15.562500 57.218750 L 43.468750 57.218750 C 43.468751 57.218750 37.400656 51.357290 33.312500 42.156250 C 35.645855 44.349010 38.735290 45.750000 42.187500 45.750000 C 49.385050 45.750000 55.218752 39.916299 55.218750 32.718750 C 55.218750 25.521200 49.385051 19.687500 42.187500 19.687500 C 42.122803 19.687500 42.064475 19.717809 42.000000 19.718750 C 42.258319 18.695414 42.406250 17.634454 42.406250 16.531250 C 42.406250 9.333700 36.572551 3.500000 29.375000 3.500000 z "
     id="path717"
     sodipodi:stroke-cmyk="(0 0 0 0.8)"
     style="font-size:12;fill:#8abb22;fill-opacity:1;fill-rule:evenodd;stroke:#492356;stroke-width:4.29110999999999976;stroke-linejoin:round;stroke-linecap:round;stroke-dasharray:none;stroke-opacity:1"
     transform="matrix(0.252273,0.145650,-0.145650,0.252273,31.23431,22.99192)" />
</svg>
