<?xml version="1.0" encoding="UTF-8" standalone="no"?>
<!-- Created with Inkscape (http://www.inkscape.org/) -->

<svg
   xmlns:dc="http://purl.org/dc/elements/1.1/"
   xmlns:cc="http://creativecommons.org/ns#"
   xmlns:rdf="http://www.w3.org/1999/02/22-rdf-syntax-ns#"
   xmlns:svg="http://www.w3.org/2000/svg"
   xmlns="http://www.w3.org/2000/svg"
   xmlns:xlink="http://www.w3.org/1999/xlink"
   xmlns:sodipodi="http://sodipodi.sourceforge.net/DTD/sodipodi-0.dtd"
   xmlns:inkscape="http://www.inkscape.org/namespaces/inkscape"
   width="256"
   height="256"
   id="svg2"
   version="1.1"
   inkscape:version="0.48.3.1 r9886"
   sodipodi:docname="applications-accessories.svg">
  <defs
     id="defs4">
    <linearGradient
       y2="34.375"
       x2="29.875"
       y1="18.875"
       x1="31.1875"
       gradientUnits="userSpaceOnUse"
       id="linearGradient3013"
       xlink:href="#linearGradient39155-6"
       inkscape:collect="always" />
    <linearGradient
       id="linearGradient39155-6">
      <stop
         id="stop39157-6"
         offset="0"
         style="stop-color:white;stop-opacity:1;" />
      <stop
         id="stop39159-9"
         offset="1"
         style="stop-color:#dadada;stop-opacity:1;" />
    </linearGradient>
  </defs>
  <sodipodi:namedview
     id="base"
     pagecolor="#ffffff"
     bordercolor="#666666"
     borderopacity="1.0"
     inkscape:pageopacity="0.0"
     inkscape:pageshadow="2"
     inkscape:zoom="2.2788842"
     inkscape:cx="-29.390491"
     inkscape:cy="138.95166"
     inkscape:document-units="px"
     inkscape:current-layer="layer1"
     showgrid="false"
     inkscape:window-width="1918"
     inkscape:window-height="1032"
     inkscape:window-x="0"
     inkscape:window-y="25"
     inkscape:window-maximized="1" />
  <metadata
     id="metadata7">
    <rdf:RDF>
      <cc:Work
         rdf:about="">
        <dc:format>image/svg+xml</dc:format>
        <dc:type
           rdf:resource="http://purl.org/dc/dcmitype/StillImage" />
        <dc:title />
      </cc:Work>
    </rdf:RDF>
  </metadata>
  <g
     inkscape:label="Capa 1"
     inkscape:groupmode="layer"
     id="layer1"
     transform="translate(0,-796.36218)">
    <path
       style="fill:#492356;fill-opacity:1;stroke:#a6f488;stroke-width:2;stroke-miterlimit:4;stroke-opacity:1;stroke-dasharray:none"
       d="m 22.910338,893.30497 c -11.615782,0.37305 -15.8212378,11.44151 -15.8212378,21.7066 l 0,105.45183 c 0,11.7315 9.4866478,21.17 21.2738528,21.17 l 209.743917,0 c 11.7872,0 17.91037,-21.9346 -2.28491,-32.3349 C 215.62669,998.89826 44.126951,897.15768 28.362953,893.82427 c -1.9705,-0.41667 -3.793218,-0.57259 -5.452615,-0.5193 z m 26.517236,43.14774 c 0.87468,-0.0281 1.839534,0.0563 2.878199,0.276 8.309312,1.75706 98.700187,55.3807 109.345267,60.86273 10.64507,5.48206 7.42222,17.04576 1.2091,17.04576 l -110.554367,0 c -6.213118,0 -11.223661,-4.9742 -11.223661,-11.158 l 0,-55.59255 c 0,-5.4108 2.222701,-11.23731 8.345462,-11.43394 z"
       id="rect3030"
       inkscape:connector-curvature="0"
       sodipodi:nodetypes="ssssssssscssssss" />
    <path
       inkscape:connector-curvature="0"
       d="m 126.4737,889.58692 c -19.00515,-22.12099 -23.11124,-38.28844 -29.547689,-36.7412 -5.031766,1.20936 -2.613783,4.84487 -15.910207,7.4099 -12.766771,2.46284 -25.810729,-6.38635 -28.520622,-17.06294 -3.609538,-10.46455 2.240814,-23.61756 15.329836,-26.86456 12.952989,-3.9578 28.392193,2.47532 33.000982,13.36704 6.67807,12.45149 10.10237,28.8963 31.68482,43.01098 l 16.56584,10.83366 57.32884,68.33251 c 6.40997,8.83463 10.25878,20.58773 1.94768,31.77646 L 126.4737,889.58692 z m -61.503062,-41.2443 c 11.040875,9.2994 30.572974,3.62806 30.539771,-8.78556 0.781757,-11.42086 -15.659992,-21.82229 -27.881547,-15.30315 -10.2905,4.57098 -10.216533,17.72263 -2.658224,24.08871 z"
       id="path48999"
       sodipodi:nodetypes="cccccczcccccccc"
       style="fill:#492356;fill-opacity:1;fill-rule:evenodd;stroke:#a6f488;stroke-width:2;stroke-miterlimit:4;stroke-opacity:1;marker-start:none;stroke-dasharray:none" />
    <path
       inkscape:connector-curvature="0"
       d="m 155.75756,890.19001 c 18.94701,-22.15671 23.00993,-38.33185 29.45065,-36.79674 5.03467,1.19996 2.62603,4.83993 15.92959,7.38 12.77347,2.43884 25.79374,-6.43492 28.47567,-17.11658 3.58155,-10.47123 -2.3034,-23.61328 -15.40086,-26.8356 -12.96346,-3.93344 -28.38565,2.52868 -32.96551,13.42913 -6.64492,12.46387 -10.02606,28.91522 -31.57112,43.07034 l -16.53741,10.86497 -57.147885,68.44019 c -6.386691,8.84667 -10.204678,20.60697 -1.864189,31.78003 l 81.631064,-94.21574 z m 61.3942,-41.3599 c -11.01673,9.32012 -30.56347,3.68558 -30.56305,-8.72807 -0.81197,-11.41935 15.60226,-21.8517 27.84132,-15.35563 10.30232,4.55165 10.26298,17.70339 2.72173,24.0837 z"
       id="path49000"
       sodipodi:nodetypes="cccccczcccccccc"
       style="fill:#8abb22;fill-opacity:1;fill-rule:evenodd;stroke:#a6f488;stroke-width:2;stroke-miterlimit:4;stroke-opacity:1;stroke-dasharray:none;marker-start:none" />
    <path
       style="fill:#492356;fill-opacity:1;fill-rule:nonzero;stroke:none;stroke-width:0.05629849000000000"
       inkscape:connector-curvature="0"
       id="path4782-0-5"
       d="m 132.78612,891.86214 c 0,3.7334 3.55251,6.7602 7.93464,6.7602 4.37949,0 7.93199,-3.0268 7.93199,-6.7602 0.28872,-3.6512 -3.26378,-6.67543 -7.93199,-6.75662 -4.38213,0 -7.93464,3.02402 -7.93464,6.75662 z"
       class="fil0 str0" />
    <path
       style="fill:none"
       inkscape:connector-curvature="0"
       id="path4788-1-1"
       d="m 146.25219,886.90848 c -1.12598,-1.22225 -5.53813,-1.95089 -7.14788,-1.75693 -7.45615,0.89847 -8.30746,11.5953 -0.63899,13.03728"
       class="fil3" />
  </g>
</svg>
