<?xml version="1.0" encoding="UTF-8" standalone="no"?>
 

<svg
   xmlns:dc="http://purl.org/dc/elements/1.1/"
   xmlns:cc="http://creativecommons.org/ns#"
   xmlns:rdf="http://www.w3.org/1999/02/22-rdf-syntax-ns#"
   xmlns:svg="http://www.w3.org/2000/svg"
   xmlns="http://www.w3.org/2000/svg"
   xmlns:sodipodi="http://sodipodi.sourceforge.net/DTD/sodipodi-0.dtd"
   xmlns:inkscape="http://www.inkscape.org/namespaces/inkscape"
   xml:space="preserve"
   width="256"
   height="256"
   style="fill-rule:evenodd"
   viewBox="0 0 256 256"
   id="svg2"
   version="1.1"
   inkscape:version="0.48.3.1 r9886"
   sodipodi:docname="huayra-menu-system-tools.svg"><metadata
   id="metadata18"><rdf:RDF><cc:Work
       rdf:about=""><dc:format>image/svg+xml</dc:format><dc:type
         rdf:resource="http://purl.org/dc/dcmitype/StillImage" /><dc:title /></cc:Work></rdf:RDF></metadata><sodipodi:namedview
   pagecolor="#ffffff"
   bordercolor="#666666"
   borderopacity="1"
   objecttolerance="10"
   gridtolerance="10"
   guidetolerance="10"
   inkscape:pageopacity="0"
   inkscape:pageshadow="2"
   inkscape:window-width="1918"
   inkscape:window-height="1007"
   id="namedview16"
   showgrid="false"
   inkscape:zoom="2.339755"
   inkscape:cx="143.05319"
   inkscape:cy="120.91754"
   inkscape:window-x="0"
   inkscape:window-y="25"
   inkscape:window-maximized="1"
   inkscape:current-layer="svg2"
   borderlayer="false"
   showborder="true"
   inkscape:showpageshadow="true" />
 <defs
   id="defs4"><style
     type="text/css"
     id="style6">
   
    .str0 {stroke:#1F1A17;stroke-width:2.83465}
    .fil0 {fill:#0093DD}
    .fil1 {fill:#1F1A17}
    .fil2 {fill:#3A2E2A}
   
  </style></defs>
 
<path
   style="fill:#8abb22;fill-opacity:1;stroke:#492356;stroke-width:1.93662620000000008;stroke-miterlimit:4;stroke-dasharray:none"
   d="m 138.66906,114.63603 -34.30134,64.74056 33.64335,64.71195 76.38412,0.62939 34.30134,-64.71196 -33.01395,-65.36994 -77.01352,0 z m 39.50805,35.58871 c 17.56738,0 31.7838,13.56822 31.7838,30.32478 0,16.75658 -14.21642,30.3534 -31.7838,30.3534 -17.5674,0 -31.81243,-13.59682 -31.81243,-30.3534 0,-16.75656 14.24503,-30.32478 31.81243,-30.32478 z"
   id="polygon10"
   inkscape:connector-curvature="0" /><path
   style="fill:#8abb22;fill-opacity:1;stroke:#492356;stroke-width:1.93662620000000008;stroke-miterlimit:4;stroke-dasharray:none"
   inkscape:connector-curvature="0"
   id="path14"
   d="m 17.497654,243.19001 1.117162,1.95925 c 4.8021,8.42345 16.230558,11.58291 24.415275,7.00008 l 1.937188,-1.08342 C 57.170432,244.23191 137.82658,91.826222 148.61625,85.783235 l 1.9372,-1.083416 c 9.70795,-5.436587 18.3352,-2.515881 26.57567,-7.129841 l 1.93461,-1.083425 c 17.22063,-9.641864 15.76998,-24.628122 14.20773,-39.737693 l -17.3335,16.321465 c -1.24561,1.287134 -1.6193,1.169058 -4.99413,-0.352925 L 152.18824,45.021844 C 147.50032,29.455547 145.64747,23.221045 148.13739,20.917918 L 164.3576,5.9056601 C 155.75508,0.33932956 144.69771,0.11744824 132.90589,6.7204999 106.3237,21.604318 127.60943,55.203449 120.13056,70.242896 111.85372,86.883487 94.529301,110.50863 83.564041,126.94297 70.834135,146.02163 58.37804,164.39437 45.907573,183.3316 38.287276,194.90281 9.7704961,229.6373 17.497206,243.18984 z"
   class="fil2" /><path
   inkscape:connector-curvature="0"
   style="fill:#8abb22;fill-opacity:1;fill-rule:evenodd;stroke:#492356;stroke-width:1.93662620000000008;stroke-miterlimit:4;stroke-dasharray:none"
   d="M 30.668474,18.327255 7.3034655,62.426516 30.220272,106.5063 82.250779,106.935 105.61579,62.855238 83.127694,18.327255 l -52.45922,0 z m 26.911659,24.241929 c 11.966366,0 21.65015,9.242256 21.65015,20.656304 0,11.414058 -9.683784,20.675789 -21.65015,20.675789 -11.966365,0 -21.669634,-9.261731 -21.669634,-20.675789 0,-11.414048 9.703269,-20.656304 21.669634,-20.656304 z"
   id="polygon10-4" /></svg>