<?xml version="1.0" encoding="UTF-8" standalone="no"?>
<!-- Created with Inkscape (http://www.inkscape.org/) -->

<svg
   xmlns:dc="http://purl.org/dc/elements/1.1/"
   xmlns:cc="http://creativecommons.org/ns#"
   xmlns:rdf="http://www.w3.org/1999/02/22-rdf-syntax-ns#"
   xmlns:svg="http://www.w3.org/2000/svg"
   xmlns="http://www.w3.org/2000/svg"
   xmlns:sodipodi="http://sodipodi.sourceforge.net/DTD/sodipodi-0.dtd"
   xmlns:inkscape="http://www.inkscape.org/namespaces/inkscape"
   id="svg7384"
   version="1.1"
   height="256"
   width="256"
   inkscape:version="0.48.3.1 r9886"
   sodipodi:docname="huayra-menu-accesibility.svg">
  <sodipodi:namedview
     pagecolor="#ffffff"
     bordercolor="#666666"
     borderopacity="1"
     objecttolerance="10"
     gridtolerance="10"
     guidetolerance="10"
     inkscape:pageopacity="0"
     inkscape:pageshadow="2"
     inkscape:window-width="1007"
     inkscape:window-height="912"
     id="namedview14"
     showgrid="false"
     inkscape:zoom="2.6074563"
     inkscape:cx="151.24702"
     inkscape:cy="124.05823"
     inkscape:window-x="363"
     inkscape:window-y="89"
     inkscape:window-maximized="0"
     inkscape:current-layer="svg7384" />
  <title
     id="title9167">Gnome Symbolic Icon Theme</title>
  <metadata
     id="metadata90">
    <rdf:RDF>
      <cc:Work
         rdf:about="">
        <dc:format>image/svg+xml</dc:format>
        <dc:type
           rdf:resource="http://purl.org/dc/dcmitype/StillImage" />
        <dc:title>Gnome Symbolic Icon Theme</dc:title>
      </cc:Work>
    </rdf:RDF>
  </metadata>
  <defs
     id="defs7386" />
  <g
     transform="translate(-41.982553,-141.00459)"
     id="layer9"
     style="display:inline" />
  <g
     transform="translate(-41.982553,-141.00459)"
     id="layer10" />
  <rect
     style="fill:#492356;fill-opacity:1;stroke:none"
     id="rect2992"
     width="194.44238"
     height="204.03027"
     x="31.448275"
     y="31.643408"
     ry="79.27803" />
  <path
     style="fill:#8abb22;fill-opacity:1;stroke:none;stroke-width:2;marker:none;visibility:visible;display:inline;overflow:visible"
     id="path3850"
     d="M 128,0.72665008 C 57.708912,0.72665008 0.72666676,57.708832 0.72666676,127.99999 0.72666676,198.29114 57.708912,255.27332 128,255.27332 c 70.29109,0 127.27334,-56.98218 127.27334,-127.27333 C 255.27334,57.708832 198.29109,0.72665008 128,0.72665008 z m 0,30.91485192 c 17.83881,0 32.29709,14.458251 32.29709,32.297041 0,17.838631 -14.45828,32.296882 -32.29709,32.296882 -17.8388,0 -32.297086,-14.458251 -32.297086,-32.296882 0,-17.83879 14.458286,-32.297041 32.297086,-32.297041 z M 51.677556,97.189975 c 51.015304,-0.72864 102.024474,-0.245001 153.038664,0.179774 0,0 6.85553,-0.127274 6.85553,6.746761 l 0,3.31881 c 0,3.59261 -3.74835,4.58248 -3.74835,4.58248 l -47.49169,9.1982 0,33.58266 21.55201,62.14773 c 2.17635,3.59102 -2.51983,4.61684 -2.51983,4.61684 l -8.37611,0.0795 c -4.02774,0 -5.53776,-3.38912 -5.53776,-3.38912 l -32.96028,-57.13873 c -3.53627,-8.01981 -3.75725,-6.99701 -7.10407,0.0122 l -34.506145,57.05377 c -1.154051,3.46247 -5.657236,3.53804 -5.657236,3.53804 l -9.072982,-0.14318 c 0,0 -3.316679,-0.0955 -2.55576,-3.32788 l 22.074749,-63.45849 0,-33.58266 -46.008452,-8.8264 c -3.698054,-1.25206 -5.231586,-4.68271 -5.231586,-4.68271 l 0,-3.46247 c 0,0 -0.154319,-7.054601 7.249298,-7.054601 z"
     inkscape:connector-curvature="0" />
  <g
     transform="translate(-41.982553,-141.00459)"
     id="layer12" />
  <g
     transform="translate(-41.982553,-141.00459)"
     id="layer13" />
  <g
     transform="translate(-41.982553,-141.00459)"
     id="layer14" />
  <g
     transform="translate(-41.982553,-141.00459)"
     id="layer15" />
</svg>
