<?xml version="1.0" encoding="UTF-8" standalone="no"?>
<!-- Created with Inkscape (http://www.inkscape.org/) -->

<svg
   xmlns:dc="http://purl.org/dc/elements/1.1/"
   xmlns:cc="http://creativecommons.org/ns#"
   xmlns:rdf="http://www.w3.org/1999/02/22-rdf-syntax-ns#"
   xmlns:svg="http://www.w3.org/2000/svg"
   xmlns="http://www.w3.org/2000/svg"
   xmlns:xlink="http://www.w3.org/1999/xlink"
   xmlns:sodipodi="http://sodipodi.sourceforge.net/DTD/sodipodi-0.dtd"
   xmlns:inkscape="http://www.inkscape.org/namespaces/inkscape"
   version="1.0"
   width="96"
   height="96"
   id="svg2408"
   inkscape:version="0.91 r13725"
   sodipodi:docname="preferences-desktop-locale.svg">
  <sodipodi:namedview
     pagecolor="#ffffff"
     bordercolor="#666666"
     borderopacity="1"
     objecttolerance="10"
     gridtolerance="10"
     guidetolerance="10"
     inkscape:pageopacity="0"
     inkscape:pageshadow="2"
     inkscape:window-width="1914"
     inkscape:window-height="1030"
     id="namedview542"
     showgrid="false"
     inkscape:zoom="4.9543693"
     inkscape:cx="30.257508"
     inkscape:cy="26.661274"
     inkscape:window-x="0"
     inkscape:window-y="26"
     inkscape:window-maximized="1"
     inkscape:current-layer="svg2408"
     inkscape:snap-global="false" />
  <defs
     id="defs2410">
    <linearGradient
       id="linearGradient4390">
      <stop
         style="stop-color:#efefef;stop-opacity:1;"
         offset="0"
         id="stop4392" />
      <stop
         style="stop-color:#3b3b3b;stop-opacity:1;"
         offset="1"
         id="stop4394" />
    </linearGradient>
    <linearGradient
       id="linearGradient4328">
      <stop
         style="stop-color:#ffffff;stop-opacity:1;"
         offset="0"
         id="stop4330" />
      <stop
         style="stop-color:#a2a2a2;stop-opacity:0;"
         offset="1"
         id="stop4332" />
    </linearGradient>
    <linearGradient
       id="linearGradient4308">
      <stop
         style="stop-color:#03789e;stop-opacity:1;"
         offset="0"
         id="stop4310" />
      <stop
         style="stop-color:#15a8b7;stop-opacity:1;"
         offset="1"
         id="stop4312" />
    </linearGradient>
    <linearGradient
       x1="45.447727"
       y1="92.539597"
       x2="45.447727"
       y2="7.0165396"
       id="ButtonShadow"
       gradientUnits="userSpaceOnUse"
       gradientTransform="scale(1.0058652,0.994169)">
      <stop
         id="stop3750"
         style="stop-color:#000000;stop-opacity:1"
         offset="0" />
      <stop
         id="stop3752"
         style="stop-color:#000000;stop-opacity:0.58823532"
         offset="1" />
    </linearGradient>
    <linearGradient
       id="linearGradient3737">
      <stop
         id="stop3739"
         style="stop-color:#ffffff;stop-opacity:1"
         offset="0" />
      <stop
         id="stop3741"
         style="stop-color:#ffffff;stop-opacity:0"
         offset="1" />
    </linearGradient>
    <filter
       color-interpolation-filters="sRGB"
       id="filter3174">
      <feGaussianBlur
         id="feGaussianBlur3176"
         stdDeviation="1.71" />
    </filter>
    <linearGradient
       x1="36.357143"
       y1="6"
       x2="36.357143"
       y2="63.893143"
       id="linearGradient3188"
       xlink:href="#linearGradient3737"
       gradientUnits="userSpaceOnUse" />
    <filter
       x="-0.192"
       y="-0.192"
       width="1.3839999"
       height="1.3839999"
       color-interpolation-filters="sRGB"
       id="filter3794">
      <feGaussianBlur
         id="feGaussianBlur3796"
         stdDeviation="5.28" />
    </filter>
    <linearGradient
       x1="48"
       y1="20.220806"
       x2="48"
       y2="138.66119"
       id="linearGradient3613"
       xlink:href="#linearGradient3737"
       gradientUnits="userSpaceOnUse" />
    <radialGradient
       cx="48"
       cy="90.171875"
       r="42"
       fx="48"
       fy="90.171875"
       id="radialGradient3619"
       xlink:href="#linearGradient3737"
       gradientUnits="userSpaceOnUse"
       gradientTransform="matrix(1.1573129,0,0,0.99590774,-7.5510206,0.19713193)" />
    <clipPath
       id="clipPath3613">
      <rect
         width="84"
         height="84"
         rx="6"
         ry="6"
         x="6"
         y="6"
         id="rect3615"
         style="fill:#ffffff;fill-opacity:1;fill-rule:nonzero;stroke:none" />
    </clipPath>
    <linearGradient
       x1="48"
       y1="90"
       x2="48"
       y2="5.9877172"
       id="linearGradient3617"
       xlink:href="#linearGradient3187"
       gradientUnits="userSpaceOnUse" />
    <linearGradient
       id="linearGradient3187">
      <stop
         id="stop3189"
         style="stop-color:#a2703a;stop-opacity:1"
         offset="0" />
      <stop
         id="stop3191"
         style="stop-color:#d9b27b;stop-opacity:1"
         offset="1" />
    </linearGradient>
    <linearGradient
       x1="136.41356"
       y1="115.49392"
       x2="149.52968"
       y2="115.49392"
       id="linearGradient3843"
       xlink:href="#linearGradient3485"
       gradientUnits="userSpaceOnUse" />
    <linearGradient
       id="linearGradient3485">
      <stop
         id="stop3487"
         style="stop-color:#e6605b;stop-opacity:1"
         offset="0" />
      <stop
         id="stop3489"
         style="stop-color:#f08682;stop-opacity:1"
         offset="1" />
    </linearGradient>
    <filter
       x="-0.42857143"
       y="-0.16666667"
       width="1.8571428"
       height="1.3333333"
       color-interpolation-filters="sRGB"
       id="filter3495">
      <feGaussianBlur
         stdDeviation="0.55242721"
         id="feGaussianBlur3497" />
    </filter>
    <filter
       x="-0.18344349"
       y="-0.17668343"
       width="1.366887"
       height="1.3533669"
       color-interpolation-filters="sRGB"
       id="filter3509">
      <feGaussianBlur
         stdDeviation="0.65925"
         id="feGaussianBlur3511" />
    </filter>
    <linearGradient
       x1="137.40625"
       y1="116.46875"
       x2="148.53125"
       y2="116.46875"
       id="linearGradient3845"
       xlink:href="#linearGradient3339"
       gradientUnits="userSpaceOnUse"
       gradientTransform="matrix(1.0893815,0,0,1,-13.275943,0)" />
    <linearGradient
       id="linearGradient3339">
      <stop
         id="stop3341"
         style="stop-color:#000000;stop-opacity:1"
         offset="0" />
      <stop
         id="stop3347"
         style="stop-color:#000000;stop-opacity:0.49803922"
         offset="0.69999999" />
      <stop
         id="stop3343"
         style="stop-color:#000000;stop-opacity:0"
         offset="1" />
    </linearGradient>
    <linearGradient
       x1="136"
       y1="60"
       x2="150"
       y2="60"
       id="linearGradient3847"
       xlink:href="#linearGradient3278"
       gradientUnits="userSpaceOnUse"
       gradientTransform="translate(-23.73343,0)" />
    <linearGradient
       id="linearGradient3278">
      <stop
         id="stop3280"
         style="stop-color:#945a00;stop-opacity:1"
         offset="0" />
      <stop
         id="stop3290"
         style="stop-color:#e28e0a;stop-opacity:1"
         offset="0.25" />
      <stop
         id="stop3286"
         style="stop-color:#ffba14;stop-opacity:1"
         offset="0.30000001" />
      <stop
         id="stop3288"
         style="stop-color:#f3ac00;stop-opacity:1"
         offset="0.69999999" />
      <stop
         id="stop3292"
         style="stop-color:#ffd314;stop-opacity:1"
         offset="0.75" />
      <stop
         id="stop3282"
         style="stop-color:#ffed94;stop-opacity:1"
         offset="1" />
    </linearGradient>
    <linearGradient
       x1="143"
       y1="2.4000001e-06"
       x2="143"
       y2="120.01752"
       id="linearGradient3849"
       xlink:href="#linearGradient3254"
       gradientUnits="userSpaceOnUse"
       gradientTransform="translate(-23.73343,0)" />
    <linearGradient
       id="linearGradient3254">
      <stop
         id="stop3256"
         style="stop-color:#000000;stop-opacity:1"
         offset="0" />
      <stop
         id="stop3266"
         style="stop-color:#000000;stop-opacity:1"
         offset="0.06588447" />
      <stop
         id="stop3264"
         style="stop-color:#ad5f1b;stop-opacity:1"
         offset="0.07" />
      <stop
         id="stop3268"
         style="stop-color:#ad601a;stop-opacity:1"
         offset="0.1913653" />
      <stop
         id="stop3262"
         style="stop-color:#785800;stop-opacity:1"
         offset="0.20983393" />
      <stop
         id="stop3258"
         style="stop-color:#785700;stop-opacity:1"
         offset="1" />
    </linearGradient>
    <linearGradient
       x1="141.25002"
       y1="4.9218717"
       x2="144.81252"
       y2="4.9218717"
       id="linearGradient3851"
       xlink:href="#linearGradient3394"
       gradientUnits="userSpaceOnUse"
       gradientTransform="translate(-23.73343,0)" />
    <linearGradient
       id="linearGradient3394">
      <stop
         id="stop3396"
         style="stop-color:#000000;stop-opacity:1"
         offset="0" />
      <stop
         id="stop3402"
         style="stop-color:#7d7d7d;stop-opacity:1"
         offset="0.5" />
      <stop
         id="stop3398"
         style="stop-color:#000000;stop-opacity:1"
         offset="1" />
    </linearGradient>
    <linearGradient
       x1="136.98804"
       y1="17.043356"
       x2="148.99513"
       y2="17.043356"
       id="linearGradient3853"
       xlink:href="#linearGradient3308"
       gradientUnits="userSpaceOnUse"
       gradientTransform="translate(-23.73343,0)" />
    <linearGradient
       id="linearGradient3308">
      <stop
         id="stop3310"
         style="stop-color:#da8539;stop-opacity:1"
         offset="0" />
      <stop
         id="stop3312"
         style="stop-color:#fadfc7;stop-opacity:1"
         offset="1" />
    </linearGradient>
    <linearGradient
       x1="146.10596"
       y1="118.94019"
       x2="146.07562"
       y2="66"
       id="linearGradient3855"
       xlink:href="#linearGradient5452"
       gradientUnits="userSpaceOnUse"
       gradientTransform="matrix(1,0,0,1.2653524,-23.73343,-54.364173)" />
    <linearGradient
       id="linearGradient5452">
      <stop
         id="stop5454"
         style="stop-color:#ffffff;stop-opacity:1"
         offset="0" />
      <stop
         id="stop5456"
         style="stop-color:#ffffff;stop-opacity:0"
         offset="1" />
    </linearGradient>
    <linearGradient
       x1="146.10596"
       y1="118.94019"
       x2="146.07562"
       y2="66"
       id="linearGradient3857"
       xlink:href="#linearGradient5452"
       gradientUnits="userSpaceOnUse"
       gradientTransform="matrix(1,0,0,1.2653524,-29.85843,-54.364173)" />
    <filter
       x="-0.43161276"
       y="-0.11371106"
       width="1.8632255"
       height="1.2274221"
       color-interpolation-filters="sRGB"
       id="filter3382">
      <feGaussianBlur
         stdDeviation="0.73914765"
         id="feGaussianBlur3384" />
    </filter>
    <filter
       x="-0.60979599"
       y="-0.1494"
       width="2.2195919"
       height="1.2988"
       color-interpolation-filters="sRGB"
       id="filter3390">
      <feGaussianBlur
         stdDeviation="0.77812506"
         id="feGaussianBlur3392" />
    </filter>
    <linearGradient
       x1="136"
       y1="106"
       x2="150"
       y2="106"
       id="linearGradient3859"
       xlink:href="#linearGradient3401"
       gradientUnits="userSpaceOnUse" />
    <linearGradient
       id="linearGradient3401">
      <stop
         id="stop3403"
         style="stop-color:#404040;stop-opacity:1"
         offset="0" />
      <stop
         id="stop3447"
         style="stop-color:#808080;stop-opacity:1"
         offset="0.2" />
      <stop
         id="stop3410"
         style="stop-color:#efefef;stop-opacity:1"
         offset="0.69999999" />
      <stop
         id="stop3405"
         style="stop-color:#dcdcdc;stop-opacity:1"
         offset="1" />
    </linearGradient>
    <linearGradient
       x1="136"
       y1="106"
       x2="150"
       y2="106"
       id="linearGradient3861"
       xlink:href="#linearGradient3461"
       gradientUnits="userSpaceOnUse" />
    <linearGradient
       id="linearGradient3461">
      <stop
         id="stop3463"
         style="stop-color:#444542;stop-opacity:1"
         offset="0" />
      <stop
         id="stop3465"
         style="stop-color:#71746e;stop-opacity:1"
         offset="1" />
    </linearGradient>
    <linearGradient
       x1="142.95775"
       y1="98.950562"
       x2="148.95775"
       y2="98.950562"
       id="linearGradient3863"
       xlink:href="#linearGradient3339"
       gradientUnits="userSpaceOnUse"
       gradientTransform="translate(0.04225159,1.5494389)"
       spreadMethod="reflect" />
    <linearGradient
       x1="142.95775"
       y1="98.950562"
       x2="148.95775"
       y2="98.950562"
       id="linearGradient3865"
       xlink:href="#linearGradient3355"
       gradientUnits="userSpaceOnUse"
       gradientTransform="translate(0.04225159,2.5494389)"
       spreadMethod="reflect" />
    <linearGradient
       id="linearGradient3355">
      <stop
         id="stop3357"
         style="stop-color:#ffffff;stop-opacity:1"
         offset="0" />
      <stop
         id="stop3359"
         style="stop-color:#ffffff;stop-opacity:0.49803922"
         offset="0.69999999" />
      <stop
         id="stop3361"
         style="stop-color:#ffffff;stop-opacity:0"
         offset="1" />
    </linearGradient>
    <linearGradient
       x1="142.95775"
       y1="98.950562"
       x2="148.95775"
       y2="98.950562"
       id="linearGradient3867"
       xlink:href="#linearGradient3339"
       gradientUnits="userSpaceOnUse"
       gradientTransform="translate(0.04225159,3.5494389)"
       spreadMethod="reflect" />
    <linearGradient
       x1="142.95775"
       y1="98.950562"
       x2="148.95775"
       y2="98.950562"
       id="linearGradient3869"
       xlink:href="#linearGradient3355"
       gradientUnits="userSpaceOnUse"
       gradientTransform="translate(0.04225159,4.5494389)"
       spreadMethod="reflect" />
    <linearGradient
       x1="142.95775"
       y1="98.950562"
       x2="148.95775"
       y2="98.950562"
       id="linearGradient3871"
       xlink:href="#linearGradient3339"
       gradientUnits="userSpaceOnUse"
       gradientTransform="translate(0.04225159,9.5494389)"
       spreadMethod="reflect" />
    <linearGradient
       x1="142.95775"
       y1="98.950562"
       x2="148.95775"
       y2="98.950562"
       id="linearGradient3873"
       xlink:href="#linearGradient3355"
       gradientUnits="userSpaceOnUse"
       gradientTransform="translate(0.04225159,10.549439)"
       spreadMethod="reflect" />
    <linearGradient
       x1="142.95775"
       y1="98.950562"
       x2="148.95775"
       y2="98.950562"
       id="linearGradient3875"
       xlink:href="#linearGradient3339"
       gradientUnits="userSpaceOnUse"
       gradientTransform="translate(0.04225159,11.549439)"
       spreadMethod="reflect" />
    <linearGradient
       x1="142.95775"
       y1="98.950562"
       x2="148.95775"
       y2="98.950562"
       id="linearGradient3877"
       xlink:href="#linearGradient3355"
       gradientUnits="userSpaceOnUse"
       gradientTransform="translate(0.04225159,12.549439)"
       spreadMethod="reflect" />
    <linearGradient
       x1="137"
       y1="106"
       x2="139.03125"
       y2="106"
       id="linearGradient3879"
       xlink:href="#linearGradient3439"
       gradientUnits="userSpaceOnUse"
       spreadMethod="repeat" />
    <linearGradient
       id="linearGradient3439">
      <stop
         id="stop3441"
         style="stop-color:#afafaf;stop-opacity:1;"
         offset="0" />
      <stop
         id="stop3443"
         style="stop-color:#ffffff;stop-opacity:1"
         offset="1" />
    </linearGradient>
    <filter
       x="-1.0349605"
       y="-0.13573837"
       width="3.069921"
       height="1.2714767"
       color-interpolation-filters="sRGB"
       id="filter3451">
      <feGaussianBlur
         stdDeviation="0.9498173"
         id="feGaussianBlur3453" />
    </filter>
    <filter
       x="-0.93333328"
       y="-0.13770492"
       width="2.8666666"
       height="1.2754098"
       color-interpolation-filters="sRGB"
       id="filter3457">
      <feGaussianBlur
         stdDeviation="0.92807767"
         id="feGaussianBlur3459" />
    </filter>
    <linearGradient
       id="linearGradient4114">
      <stop
         id="stop4116"
         style="stop-color:#aaaaaa;stop-opacity:1"
         offset="0" />
      <stop
         id="stop4118"
         style="stop-color:#dcdcdc;stop-opacity:1"
         offset="1" />
    </linearGradient>
    <linearGradient
       id="linearGradient3465">
      <stop
         id="stop3467"
         style="stop-color:#919191;stop-opacity:1"
         offset="0" />
      <stop
         id="stop3469"
         style="stop-color:#fdfdfd;stop-opacity:1"
         offset="1" />
    </linearGradient>
    <filter
       x="-0.03906453"
       y="-0.14405686"
       width="1.0781291"
       height="1.2881137"
       color-interpolation-filters="sRGB"
       id="filter3294">
      <feGaussianBlur
         id="feGaussianBlur3296"
         stdDeviation="1.4293142" />
    </filter>
    <linearGradient
       id="linearGradient3929">
      <stop
         id="stop3931"
         style="stop-color:#000000;stop-opacity:1"
         offset="0" />
      <stop
         id="stop3933"
         style="stop-color:#000000;stop-opacity:0.58823532"
         offset="1" />
    </linearGradient>
    <linearGradient
       x1="31"
       y1="108"
       x2="31"
       y2="96"
       id="linearGradient4383"
       xlink:href="#linearGradient3929"
       gradientUnits="userSpaceOnUse" />
    <linearGradient
       x1="31"
       y1="108"
       x2="31"
       y2="96"
       id="linearGradient4385"
       xlink:href="#linearGradient3929"
       gradientUnits="userSpaceOnUse" />
    <linearGradient
       x1="31"
       y1="108"
       x2="31"
       y2="96"
       id="linearGradient4387"
       xlink:href="#linearGradient3929"
       gradientUnits="userSpaceOnUse" />
    <linearGradient
       x1="31"
       y1="108"
       x2="31"
       y2="96"
       id="linearGradient4389"
       xlink:href="#linearGradient3929"
       gradientUnits="userSpaceOnUse" />
    <linearGradient
       x1="31"
       y1="108"
       x2="31"
       y2="96"
       id="linearGradient4391"
       xlink:href="#linearGradient3929"
       gradientUnits="userSpaceOnUse" />
    <linearGradient
       x1="23.882524"
       y1="132.27245"
       x2="23.882524"
       y2="117.57551"
       id="linearGradient4393"
       xlink:href="#linearGradient3929"
       gradientUnits="userSpaceOnUse"
       gradientTransform="scale(1.2247449,0.8164966)" />
    <linearGradient
       x1="31"
       y1="108"
       x2="31"
       y2="96"
       id="linearGradient4395"
       xlink:href="#linearGradient3929"
       gradientUnits="userSpaceOnUse" />
    <linearGradient
       x1="31"
       y1="108"
       x2="31"
       y2="96"
       id="linearGradient4397"
       xlink:href="#linearGradient3929"
       gradientUnits="userSpaceOnUse" />
    <linearGradient
       x1="31"
       y1="108"
       x2="31"
       y2="96"
       id="linearGradient4399"
       xlink:href="#linearGradient3929"
       gradientUnits="userSpaceOnUse" />
    <linearGradient
       x1="31"
       y1="108"
       x2="31"
       y2="96"
       id="linearGradient4401"
       xlink:href="#linearGradient3929"
       gradientUnits="userSpaceOnUse" />
    <linearGradient
       x1="31"
       y1="108"
       x2="31"
       y2="96"
       id="linearGradient4403"
       xlink:href="#linearGradient3929"
       gradientUnits="userSpaceOnUse" />
    <linearGradient
       x1="31"
       y1="108"
       x2="31"
       y2="96"
       id="linearGradient4405"
       xlink:href="#linearGradient3929"
       gradientUnits="userSpaceOnUse" />
    <linearGradient
       x1="31"
       y1="108"
       x2="31"
       y2="96"
       id="linearGradient4407"
       xlink:href="#linearGradient3929"
       gradientUnits="userSpaceOnUse" />
    <linearGradient
       x1="31"
       y1="108"
       x2="31"
       y2="80"
       id="linearGradient4409"
       xlink:href="#linearGradient3929"
       gradientUnits="userSpaceOnUse"
       gradientTransform="matrix(0.5581553,0,0,0.5568189,76.116988,21.863559)" />
    <linearGradient
       x1="31"
       y1="108"
       x2="31"
       y2="96"
       id="linearGradient4411"
       xlink:href="#linearGradient3929"
       gradientUnits="userSpaceOnUse" />
    <linearGradient
       x1="-52.5"
       y1="-76.295921"
       x2="-52.5"
       y2="-52.312489"
       id="linearGradient4662"
       xlink:href="#linearGradient3465"
       gradientUnits="userSpaceOnUse"
       gradientTransform="matrix(0.44155423,0,0,0.44049701,89.110105,50.940509)" />
    <linearGradient
       x1="74.906487"
       y1="96.908859"
       x2="74.906487"
       y2="23.893446"
       id="linearGradient4668"
       xlink:href="#linearGradient4114"
       gradientUnits="userSpaceOnUse"
       gradientTransform="matrix(0.79109563,0,0,0.79109563,7.4608755,-7.514973)" />
    <linearGradient
       x1="84"
       y1="96"
       x2="84"
       y2="23.998264"
       id="linearGradient4670"
       xlink:href="#linearGradient3465"
       gradientUnits="userSpaceOnUse"
       gradientTransform="matrix(0.79109563,0,0,0.79109563,6.5958013,-7.9826252)" />
    <linearGradient
       x1="45.447727"
       y1="92.539597"
       x2="45.447727"
       y2="7.0165396"
       id="ButtonShadow-0"
       gradientUnits="userSpaceOnUse"
       gradientTransform="matrix(1.0058652,0,0,0.994169,100,0)">
      <stop
         id="stop3750-8"
         style="stop-color:#000000;stop-opacity:1"
         offset="0" />
      <stop
         id="stop3752-5"
         style="stop-color:#000000;stop-opacity:0.58823532"
         offset="1" />
    </linearGradient>
    <linearGradient
       x1="32.251034"
       y1="6.1317081"
       x2="32.251034"
       y2="90.238609"
       id="linearGradient3780"
       xlink:href="#ButtonShadow-0"
       gradientUnits="userSpaceOnUse"
       gradientTransform="matrix(1.0238095,0,0,1.0119048,-1.1428571,-98.071429)" />
    <linearGradient
       x1="32.251034"
       y1="6.1317081"
       x2="32.251034"
       y2="90.238609"
       id="linearGradient3772"
       xlink:href="#ButtonShadow-0"
       gradientUnits="userSpaceOnUse"
       gradientTransform="matrix(1.0238095,0,0,1.0119048,-1.1428571,-98.071429)" />
    <linearGradient
       x1="32.251034"
       y1="6.1317081"
       x2="32.251034"
       y2="90.238609"
       id="linearGradient3725"
       xlink:href="#ButtonShadow-0"
       gradientUnits="userSpaceOnUse"
       gradientTransform="matrix(1.0238095,0,0,1.0119048,-1.1428571,-98.071429)" />
    <linearGradient
       x1="32.251034"
       y1="6.1317081"
       x2="32.251034"
       y2="90.238609"
       id="linearGradient3721"
       xlink:href="#ButtonShadow-0"
       gradientUnits="userSpaceOnUse"
       gradientTransform="translate(0,-97)" />
    <linearGradient
       x1="32.251034"
       y1="6.1317081"
       x2="32.251034"
       y2="90.238609"
       id="linearGradient3811"
       xlink:href="#ButtonShadow-0"
       gradientUnits="userSpaceOnUse"
       gradientTransform="matrix(1.0238095,0,0,1.0119048,-1.1428571,-98.071429)" />
    <linearGradient
       inkscape:collect="always"
       xlink:href="#linearGradient4308-7"
       id="linearGradient4350-8"
       gradientUnits="userSpaceOnUse"
       x1="152.95821"
       y1="7.220057"
       x2="153.49303"
       y2="90.384399"
       gradientTransform="matrix(0.88161209,0,0,1.0524691,14.531717,-4.8125451)" />
    <linearGradient
       id="linearGradient4308-7">
      <stop
         style="stop-color:#03789e;stop-opacity:1;"
         offset="0"
         id="stop4310-3" />
      <stop
         style="stop-color:#15a8b7;stop-opacity:1;"
         offset="1"
         id="stop4312-1" />
    </linearGradient>
    <linearGradient
       inkscape:collect="always"
       xlink:href="#linearGradient4390"
       id="linearGradient4443"
       gradientUnits="userSpaceOnUse"
       x1="173.08191"
       y1="7.034543"
       x2="187.12892"
       y2="49.957302" />
    <linearGradient
       inkscape:collect="always"
       xlink:href="#linearGradient4390"
       id="linearGradient4445"
       gradientUnits="userSpaceOnUse"
       x1="150.01329"
       y1="24.997812"
       x2="169.35474"
       y2="24.997812" />
    <linearGradient
       inkscape:collect="always"
       xlink:href="#linearGradient4390"
       id="linearGradient3927"
       gradientUnits="userSpaceOnUse"
       x1="150.01329"
       y1="24.997812"
       x2="169.35474"
       y2="24.997812"
       gradientTransform="matrix(1.0011307,0.36973275,-0.36973275,1.0011307,-198.06362,-55.938498)" />
    <linearGradient
       inkscape:collect="always"
       xlink:href="#linearGradient4390"
       id="linearGradient3930"
       gradientUnits="userSpaceOnUse"
       x1="173.08191"
       y1="7.034543"
       x2="187.12892"
       y2="49.957302"
       gradientTransform="matrix(1.0011307,0.36973275,-0.36973275,1.0011307,-198.06362,-55.938498)" />
    <linearGradient
       inkscape:collect="always"
       xlink:href="#linearGradient3465"
       id="linearGradient4010"
       x1="-35.727104"
       y1="54.809574"
       x2="0.68618292"
       y2="54.809574"
       gradientUnits="userSpaceOnUse" />
    <linearGradient
       inkscape:collect="always"
       xlink:href="#linearGradient3465"
       id="linearGradient4018"
       x1="-64.471199"
       y1="46.898396"
       x2="-60.953289"
       y2="39.145824"
       gradientUnits="userSpaceOnUse" />
    <inkscape:path-effect
       effect="bend_path"
       id="path-effect5387"
       is_visible="true"
       bendpath="m -111.09338,18.945284 c 11.335105,-6.024395 25.577801,-7.454938 33.28406,-2.970428 14.916984,7.330914 23.902335,-2.110844 40.107737,-3.645215"
       prop_scale="1"
       scale_y_rel="false"
       vertical="false"
       bendpath-nodetypes="ccc" />
    <inkscape:path-effect
       effect="bend_path"
       id="path-effect5387-2"
       is_visible="true"
       bendpath="m -111.09338,18.945284 c 11.335105,-6.024395 25.577801,-7.454938 33.28406,-2.970428 14.916984,7.330914 23.902335,-2.110844 40.107737,-3.645215"
       prop_scale="1"
       scale_y_rel="false"
       vertical="false"
       bendpath-nodetypes="ccc" />
  </defs>
  <metadata
     id="metadata2413">
    <rdf:RDF>
      <cc:Work
         rdf:about="">
        <dc:format>image/svg+xml</dc:format>
        <dc:type
           rdf:resource="http://purl.org/dc/dcmitype/StillImage" />
        <dc:title></dc:title>
      </cc:Work>
    </rdf:RDF>
  </metadata>
  <g
     id="layer2"
     style="display:none">
    <rect
       width="86"
       height="85"
       rx="6"
       ry="6"
       x="5"
       y="7"
       id="rect3745"
       style="opacity:0.9;fill:url(#ButtonShadow);fill-opacity:1;fill-rule:nonzero;stroke:none;filter:url(#filter3174)" />
  </g>
  <path
     style="color:#000000;fill:#0088aa;fill-opacity:1;fill-rule:nonzero;stroke:none;visibility:visible;display:inline;overflow:visible;enable-background:accumulate"
     d="M 29.375 13 L 29.375 34.09375 L 29.375 49.15625 L 29.382812 49.15625 L 29.382812 58.181641 L 47.457031 58.181641 L 47.457031 58.1875 L 44.4375 58.1875 L 44.4375 61.1875 L 47.457031 61.1875 L 47.457031 64.207031 L 56.494141 64.207031 L 59.5 64.207031 L 59.5 64.21875 L 62.53125 64.21875 L 62.53125 61.193359 L 65.53125 61.193359 L 68.544922 61.193359 L 68.544922 58.181641 L 71.556641 58.181641 L 74.568359 58.181641 L 74.568359 55.169922 L 77.582031 55.169922 L 77.582031 52.15625 L 86.619141 52.15625 L 86.619141 49.144531 L 89.630859 49.144531 L 89.630859 46.130859 L 92.644531 46.130859 L 92.644531 43.119141 L 86.619141 43.119141 L 86.619141 46.130859 L 83.607422 46.130859 L 83.607422 49.144531 L 77.582031 49.144531 L 74.568359 49.144531 L 74.568359 52.15625 L 71.556641 52.15625 L 68.544922 52.15625 L 65.53125 52.15625 L 65.53125 55.169922 L 62.53125 55.169922 L 62.53125 55.15625 L 59.5 55.15625 L 59.5 55.169922 L 56.494141 55.169922 L 56.494141 52.15625 L 56.5 52.15625 L 56.5 55.15625 L 59.5 55.15625 L 59.5 52.15625 L 59.507812 52.15625 L 59.507812 49.15625 L 62.53125 49.15625 L 62.53125 46.125 L 65.53125 46.125 L 65.53125 43.125 L 68.53125 43.125 L 68.53125 40.09375 L 71.5625 40.09375 L 71.5625 37.09375 L 74.5625 37.09375 L 74.5625 34.09375 L 77.59375 34.09375 L 77.59375 31.0625 L 80.59375 31.0625 L 80.59375 28.0625 L 77.59375 28.0625 L 74.5625 28.0625 L 74.5625 31.0625 L 71.5625 31.0625 L 71.5625 34.09375 L 68.53125 34.09375 L 68.53125 37.09375 L 65.53125 37.09375 L 65.53125 40.09375 L 59.5 40.09375 L 59.5 43.125 L 56.5 43.125 L 56.5 46.130859 L 53.482422 46.130859 L 53.482422 49.144531 L 50.46875 49.144531 L 50.46875 43.125 L 50.46875 37.09375 L 50.46875 31.0625 L 53.46875 31.0625 L 53.46875 22.03125 L 53.46875 13 L 50.46875 13 L 50.46875 22.03125 L 47.46875 22.03125 L 47.46875 31.0625 L 44.4375 31.0625 L 44.4375 37.09375 L 44.4375 43.125 L 41.4375 43.125 L 41.4375 49.144531 L 35.40625 49.144531 L 35.40625 34.09375 L 32.40625 34.09375 L 32.40625 13 L 29.375 13 z M 59.5 64.21875 L 50.46875 64.21875 L 50.46875 82.28125 L 59.5 82.28125 L 59.5 64.21875 z M 8.28125 28.0625 L 8.28125 37.09375 L 11.3125 37.09375 L 11.3125 40.09375 L 14.3125 40.09375 L 14.3125 49.15625 L 17.34375 49.15625 L 17.34375 55.15625 L 20.34375 55.15625 L 20.34375 58.1875 L 17.34375 58.1875 L 14.3125 58.1875 L 11.3125 58.1875 L 11.3125 55.15625 L 8.28125 55.15625 L 8.28125 52.15625 L 2.28125 52.15625 L 2.28125 55.15625 L 5.28125 55.15625 L 5.28125 58.1875 L 8.28125 58.1875 L 8.28125 61.1875 L 11.3125 61.1875 L 11.3125 64.21875 L 14.3125 64.21875 L 14.3125 67.21875 L 17.34375 67.21875 L 17.34375 70.21875 L 20.34375 70.21875 L 20.34375 64.21875 L 23.34375 64.21875 L 23.34375 61.1875 L 26.375 61.1875 L 29.375 61.1875 L 29.375 52.15625 L 26.375 52.15625 L 23.34375 52.15625 L 23.34375 49.15625 L 20.34375 49.15625 L 20.34375 43.125 L 17.34375 43.125 L 17.34375 37.09375 L 14.3125 37.09375 L 14.3125 34.09375 L 11.3125 34.09375 L 11.3125 28.0625 L 8.28125 28.0625 z M 77.582031 64.207031 L 77.582031 67.21875 L 74.568359 67.21875 L 59.507812 67.21875 L 59.507812 73.244141 L 59.507812 76.255859 L 65.53125 76.255859 L 65.53125 73.244141 L 74.568359 73.244141 L 74.568359 70.230469 L 83.607422 70.230469 L 83.607422 67.21875 L 92.644531 67.21875 L 92.644531 64.207031 L 77.582031 64.207031 z M 32.40625 67.21875 L 32.40625 70.21875 L 29.375 70.21875 L 29.375 76.25 L 32.40625 76.25 L 32.40625 79.28125 L 38.40625 79.28125 L 38.40625 76.25 L 41.4375 76.25 L 41.4375 70.21875 L 38.40625 70.21875 L 38.40625 67.21875 L 32.40625 67.21875 z M 59.507812 79.267578 L 59.507812 82.28125 L 59.507812 85.292969 L 68.544922 85.292969 L 68.544922 88.304688 L 77.582031 88.304688 L 77.582031 91.318359 L 86.619141 91.318359 L 86.619141 88.304688 L 83.607422 88.304688 L 83.607422 85.292969 L 74.568359 85.292969 L 74.568359 82.28125 L 68.544922 82.28125 L 68.544922 79.267578 L 59.507812 79.267578 z "
     id="rect5114" />
  <path
     style="color:#000000;fill:#87cdde;fill-opacity:1;fill-rule:nonzero;stroke:none;visibility:visible;display:inline;overflow:visible;enable-background:accumulate"
     d="M 32.394531 9.9824219 L 32.394531 12.996094 L 32.394531 16.007812 L 32.394531 19.019531 L 32.394531 22.033203 L 32.394531 25.044922 L 32.394531 28.056641 L 32.394531 31.070312 L 32.394531 34.082031 L 35.408203 34.082031 L 35.408203 31.070312 L 35.408203 28.056641 L 35.408203 25.044922 L 35.408203 22.033203 L 35.408203 19.019531 L 35.408203 16.007812 L 35.408203 12.996094 L 35.408203 9.9824219 L 32.394531 9.9824219 z M 35.408203 34.082031 L 35.408203 37.09375 L 35.408203 40.107422 L 35.408203 43.119141 L 35.408203 46.130859 L 35.408203 49.144531 L 38.419922 49.144531 L 38.419922 46.130859 L 38.419922 43.119141 L 38.419922 40.107422 L 38.419922 37.09375 L 38.419922 34.082031 L 35.408203 34.082031 z M 50.470703 9.9824219 L 50.470703 12.996094 L 53.482422 12.996094 L 53.482422 9.9824219 L 50.470703 9.9824219 z M 53.482422 12.996094 L 53.482422 16.007812 L 53.482422 19.019531 L 53.482422 22.033203 L 53.482422 25.044922 L 53.482422 28.056641 L 53.482422 31.070312 L 56.494141 31.070312 L 56.494141 28.056641 L 56.494141 25.044922 L 56.494141 22.033203 L 56.494141 19.019531 L 56.494141 16.007812 L 56.494141 12.996094 L 53.482422 12.996094 z M 53.482422 31.070312 L 50.470703 31.070312 L 50.470703 34.082031 L 50.470703 37.09375 L 50.470703 40.107422 L 50.470703 43.119141 L 50.470703 46.130859 L 50.470703 49.144531 L 53.482422 49.144531 L 53.482422 46.130859 L 56.494141 46.130859 L 56.494141 43.119141 L 53.482422 43.119141 L 53.482422 40.107422 L 53.482422 37.09375 L 53.482422 34.082031 L 53.482422 31.070312 z M 56.494141 43.119141 L 59.507812 43.119141 L 59.507812 40.107422 L 56.494141 40.107422 L 56.494141 43.119141 z M 59.507812 40.107422 L 62.519531 40.107422 L 65.53125 40.107422 L 65.53125 37.09375 L 62.519531 37.09375 L 59.507812 37.09375 L 59.507812 40.107422 z M 65.53125 37.09375 L 68.544922 37.09375 L 68.544922 34.082031 L 65.53125 34.082031 L 65.53125 37.09375 z M 68.544922 34.082031 L 71.556641 34.082031 L 71.556641 31.070312 L 68.544922 31.070312 L 68.544922 34.082031 z M 71.556641 31.070312 L 74.568359 31.070312 L 74.568359 28.056641 L 71.556641 28.056641 L 71.556641 31.070312 z M 74.568359 28.056641 L 77.582031 28.056641 L 80.59375 28.056641 L 80.59375 25.044922 L 77.582031 25.044922 L 74.568359 25.044922 L 74.568359 28.056641 z M 8.296875 25.044922 L 8.296875 28.056641 L 11.308594 28.056641 L 11.308594 25.044922 L 8.296875 25.044922 z M 11.308594 28.056641 L 11.308594 31.070312 L 11.308594 34.082031 L 14.320312 34.082031 L 14.320312 31.070312 L 14.320312 28.056641 L 11.308594 28.056641 z M 14.320312 34.082031 L 14.320312 37.09375 L 17.333984 37.09375 L 17.333984 34.082031 L 14.320312 34.082031 z M 17.333984 37.09375 L 17.333984 40.107422 L 17.333984 43.119141 L 20.345703 43.119141 L 20.345703 40.107422 L 20.345703 37.09375 L 17.333984 37.09375 z M 20.345703 43.119141 L 20.345703 46.130859 L 20.345703 49.144531 L 23.357422 49.144531 L 23.357422 46.130859 L 23.357422 43.119141 L 20.345703 43.119141 z M 23.357422 49.144531 L 23.357422 52.15625 L 26.371094 52.15625 L 29.382812 52.15625 L 29.382812 49.144531 L 26.371094 49.144531 L 23.357422 49.144531 z M 86.619141 40.107422 L 86.619141 43.119141 L 89.630859 43.119141 L 92.644531 43.119141 L 92.644531 40.107422 L 89.630859 40.107422 L 86.619141 40.107422 z M 86.619141 43.119141 L 83.607422 43.119141 L 83.607422 46.130859 L 86.619141 46.130859 L 86.619141 43.119141 z M 83.607422 46.130859 L 80.59375 46.130859 L 77.582031 46.130859 L 74.568359 46.130859 L 74.568359 49.144531 L 77.582031 49.144531 L 80.59375 49.144531 L 83.607422 49.144531 L 83.607422 46.130859 z M 74.568359 49.144531 L 71.556641 49.144531 L 68.544922 49.144531 L 65.53125 49.144531 L 65.53125 52.15625 L 68.544922 52.15625 L 71.556641 52.15625 L 74.568359 52.15625 L 74.568359 49.144531 z M 65.53125 52.15625 L 62.519531 52.15625 L 59.507812 52.15625 L 59.507812 55.169922 L 62.519531 55.169922 L 65.53125 55.169922 L 65.53125 52.15625 z M 2.2714844 49.144531 L 2.2714844 52.15625 L 5.2832031 52.15625 L 8.296875 52.15625 L 8.296875 49.144531 L 5.2832031 49.144531 L 2.2714844 49.144531 z M 8.296875 52.15625 L 8.296875 55.169922 L 11.308594 55.169922 L 11.308594 52.15625 L 8.296875 52.15625 z M 11.308594 55.169922 L 11.308594 58.181641 L 14.320312 58.181641 L 17.333984 58.181641 L 20.345703 58.181641 L 20.345703 55.169922 L 17.333984 55.169922 L 14.320312 55.169922 L 11.308594 55.169922 z M 77.582031 61.193359 L 77.582031 64.207031 L 92.644531 64.207031 L 92.644531 61.193359 L 77.582031 61.193359 z M 77.582031 64.207031 L 59.507812 64.207031 L 59.507812 67.21875 L 77.582031 67.21875 L 77.582031 64.207031 z M 32.394531 64.207031 L 32.394531 67.21875 L 35.408203 67.21875 L 38.419922 67.21875 L 38.419922 64.207031 L 35.408203 64.207031 L 32.394531 64.207031 z M 38.419922 67.21875 L 38.419922 70.230469 L 41.433594 70.230469 L 41.433594 67.21875 L 38.419922 67.21875 z M 41.433594 70.230469 L 41.433594 73.244141 L 41.433594 76.255859 L 44.445312 76.255859 L 44.445312 73.244141 L 44.445312 70.230469 L 41.433594 70.230469 z M 41.433594 76.255859 L 38.419922 76.255859 L 38.419922 79.267578 L 41.433594 79.267578 L 41.433594 76.255859 z M 38.419922 79.267578 L 35.408203 79.267578 L 32.394531 79.267578 L 32.394531 82.28125 L 35.408203 82.28125 L 38.419922 82.28125 L 38.419922 79.267578 z M 32.394531 79.267578 L 32.394531 76.255859 L 29.382812 76.255859 L 29.382812 79.267578 L 32.394531 79.267578 z M 29.382812 76.255859 L 29.382812 73.244141 L 29.382812 70.230469 L 26.371094 70.230469 L 26.371094 73.244141 L 26.371094 76.255859 L 29.382812 76.255859 z M 29.382812 70.230469 L 32.394531 70.230469 L 32.394531 67.21875 L 29.382812 67.21875 L 29.382812 70.230469 z M 59.507812 76.255859 L 59.507812 79.267578 L 68.544922 79.267578 L 68.544922 76.255859 L 59.507812 76.255859 z M 68.544922 79.267578 L 68.544922 82.28125 L 74.568359 82.28125 L 74.568359 79.267578 L 68.544922 79.267578 z M 74.568359 82.28125 L 74.568359 85.292969 L 83.607422 85.292969 L 83.607422 82.28125 L 74.568359 82.28125 z M 83.607422 85.292969 L 83.607422 88.304688 L 86.619141 88.304688 L 86.619141 85.292969 L 83.607422 85.292969 z M 86.619141 88.304688 L 86.619141 91.318359 L 89.630859 91.318359 L 89.630859 88.304688 L 86.619141 88.304688 z "
     id="rect5114-8" />
</svg>
