<?xml version="1.0" encoding="UTF-8" standalone="no"?>
<svg
   xml:space="preserve"
   width="256"
   height="256"
   style="fill-rule:evenodd"
   viewBox="0 0 72.24889 72.24889"
   id="svg2"
   version="1.1"
   inkscape:version="1.2.2 (b0a8486541, 2022-12-01)"
   sodipodi:docname="avatar-default.svg"
   xmlns:inkscape="http://www.inkscape.org/namespaces/inkscape"
   xmlns:sodipodi="http://sodipodi.sourceforge.net/DTD/sodipodi-0.dtd"
   xmlns:xlink="http://www.w3.org/1999/xlink"
   xmlns="http://www.w3.org/2000/svg"
   xmlns:svg="http://www.w3.org/2000/svg"
   xmlns:rdf="http://www.w3.org/1999/02/22-rdf-syntax-ns#"
   xmlns:cc="http://creativecommons.org/ns#"
   xmlns:dc="http://purl.org/dc/elements/1.1/"><metadata
   id="metadata20"><rdf:RDF><cc:Work
       rdf:about=""><dc:format>image/svg+xml</dc:format><dc:type
         rdf:resource="http://purl.org/dc/dcmitype/StillImage" /></cc:Work></rdf:RDF></metadata><sodipodi:namedview
   pagecolor="#ffffff"
   bordercolor="#666666"
   borderopacity="1"
   objecttolerance="10"
   gridtolerance="10"
   guidetolerance="10"
   inkscape:pageopacity="0"
   inkscape:pageshadow="2"
   inkscape:window-width="1366"
   inkscape:window-height="713"
   id="namedview18"
   showgrid="false"
   showguides="true"
   inkscape:guide-bbox="true"
   fit-margin-top="0"
   fit-margin-left="0"
   fit-margin-right="0"
   fit-margin-bottom="0"
   inkscape:zoom="1.2685914"
   inkscape:cx="83.557243"
   inkscape:cy="167.50862"
   inkscape:window-x="0"
   inkscape:window-y="0"
   inkscape:window-maximized="1"
   inkscape:current-layer="svg2"
   inkscape:showpageshadow="2"
   inkscape:pagecheckerboard="0"
   inkscape:deskcolor="#d1d1d1" />
 <defs
   id="defs4"><style
     type="text/css"
     id="style6">
   
    .fil2 {fill:#6F448A}
    .fil3 {fill:#73A848}
    .fil1 {fill:#6F448A;fill-rule:nonzero}
    .fil0 {fill:#73A848;fill-rule:nonzero}
   
  </style><linearGradient
     inkscape:collect="always"
     xlink:href="#linearGradient1731"
     id="linearGradient1733"
     x1="11.021262"
     y1="293.01489"
     x2="12.889274"
     y2="274.52158"
     gradientUnits="userSpaceOnUse"
     gradientTransform="matrix(1.0666667,0,0,1.0666667,16.248137,-275.02184)" /><linearGradient
     inkscape:collect="always"
     id="linearGradient1731"><stop
       style="stop-color:#247794;stop-opacity:1;"
       offset="0"
       id="stop1727" /><stop
       style="stop-color:#32bbed;stop-opacity:1"
       offset="1"
       id="stop1729" /></linearGradient><clipPath
     clipPathUnits="userSpaceOnUse"
     id="clipPath4684-9-2-8-3-3-7"><rect
       style="opacity:1;fill:#ffffff;fill-opacity:1;stroke:none;stroke-width:1.8;stroke-miterlimit:4;stroke-dasharray:none;stroke-opacity:1"
       id="rect4686-3-0-2-6-6-5"
       width="287.12778"
       height="391.95221"
       x="858.53998"
       y="-240.54115"
       transform="rotate(40.146762)" /></clipPath><clipPath
     clipPathUnits="userSpaceOnUse"
     id="clipPath4680-6-1-99-7-7-4"><rect
       style="opacity:1;fill:#ffffff;fill-opacity:1;stroke:none;stroke-width:1.8;stroke-miterlimit:4;stroke-dasharray:none;stroke-opacity:1"
       id="rect4682-3-4-6-5-5-8"
       width="287.12778"
       height="391.95221"
       x="1257.7643"
       y="386.63037" /></clipPath><clipPath
     clipPathUnits="userSpaceOnUse"
     id="clipPath4676-6-4-0-3-3-1"><rect
       style="opacity:1;fill:#ffffff;fill-opacity:1;stroke:none;stroke-width:1.8;stroke-miterlimit:4;stroke-dasharray:none;stroke-opacity:1"
       id="rect4678-3-2-2-5-5-2"
       width="287.12778"
       height="391.95221"
       x="858.53998"
       y="-240.54115"
       transform="rotate(40.146762)" /></clipPath><clipPath
     clipPathUnits="userSpaceOnUse"
     id="clipPath4668-2-9-7-6-6-8"><rect
       style="opacity:1;fill:#ffffff;fill-opacity:1;stroke:none;stroke-width:1.8;stroke-miterlimit:4;stroke-dasharray:none;stroke-opacity:1"
       id="rect4670-3-4-6-2-2-9"
       width="287.12778"
       height="391.95221"
       x="1257.7643"
       y="386.63037" /></clipPath><clipPath
     clipPathUnits="userSpaceOnUse"
     id="clipPath4664-4-4-1-9-9-3"><rect
       style="opacity:1;fill:#ffffff;fill-opacity:1;stroke:none;stroke-width:1.8;stroke-miterlimit:4;stroke-dasharray:none;stroke-opacity:1"
       id="rect4666-5-1-32-1-1-6"
       width="287.12778"
       height="391.95221"
       x="1257.7643"
       y="386.63037" /></clipPath><clipPath
     clipPathUnits="userSpaceOnUse"
     id="clipPath4660-4-5-1-2-2-8"><rect
       style="opacity:1;fill:#ffffff;fill-opacity:1;stroke:none;stroke-width:1.8;stroke-miterlimit:4;stroke-dasharray:none;stroke-opacity:1"
       id="rect4662-3-0-5-7-7-0"
       width="287.12778"
       height="391.95221"
       x="1257.7643"
       y="386.63037" /></clipPath><clipPath
     clipPathUnits="userSpaceOnUse"
     id="clipPath4656-3-0-9-0-0-2"><rect
       style="opacity:1;fill:#ffffff;fill-opacity:1;stroke:none;stroke-width:1.8;stroke-miterlimit:4;stroke-dasharray:none;stroke-opacity:1"
       id="rect4658-4-1-9-9-9-1"
       width="287.12778"
       height="391.95221"
       x="1257.7643"
       y="386.63037" /></clipPath><clipPath
     clipPathUnits="userSpaceOnUse"
     id="clipPath4652-5-4-1-3-3-0"><rect
       style="opacity:1;fill:#ffffff;fill-opacity:1;stroke:none;stroke-width:1.8;stroke-miterlimit:4;stroke-dasharray:none;stroke-opacity:1"
       id="rect4654-6-9-49-6-6-5"
       width="287.12778"
       height="391.95221"
       x="1257.7643"
       y="386.63037" /></clipPath><clipPath
     clipPathUnits="userSpaceOnUse"
     id="clipPath4644-9-5-58-2-0-1"><rect
       style="opacity:1;fill:#ffffff;fill-opacity:1;stroke:none;stroke-width:1.8;stroke-miterlimit:4;stroke-dasharray:none;stroke-opacity:1"
       id="rect4646-1-0-7-6-6-1"
       width="287.12778"
       height="391.95221"
       x="1257.7643"
       y="386.63037"
       transform="rotate(40.99054)" /></clipPath><clipPath
     clipPathUnits="userSpaceOnUse"
     id="clipPath4640-9-7-0-1-2-0"><rect
       style="opacity:1;fill:#ffffff;fill-opacity:1;stroke:none;stroke-width:1.8;stroke-miterlimit:4;stroke-dasharray:none;stroke-opacity:1"
       id="rect4642-5-0-48-8-6-8"
       width="287.12778"
       height="391.95221"
       x="1257.7643"
       y="386.63037"
       transform="rotate(40.99054)" /></clipPath><clipPath
     clipPathUnits="userSpaceOnUse"
     id="clipPath4636-6-6-0-7-1-5"><rect
       style="opacity:1;fill:#ffffff;fill-opacity:1;stroke:none;stroke-width:1.8;stroke-miterlimit:4;stroke-dasharray:none;stroke-opacity:1"
       id="rect4638-0-7-4-9-8-0"
       width="287.12778"
       height="391.95221"
       x="1257.7643"
       y="386.63037" /></clipPath><clipPath
     clipPathUnits="userSpaceOnUse"
     id="clipPath4632-4-1-2-2-7-6"><rect
       style="opacity:1;fill:#ffffff;fill-opacity:1;stroke:none;stroke-width:1.8;stroke-miterlimit:4;stroke-dasharray:none;stroke-opacity:1"
       id="rect4634-1-3-9-0-9-4"
       width="287.12778"
       height="391.95221"
       x="1257.7643"
       y="386.63037" /></clipPath><clipPath
     clipPathUnits="userSpaceOnUse"
     id="clipPath4628-8-0-6-2-2-6"><rect
       style="opacity:1;fill:#ffffff;fill-opacity:1;stroke:none;stroke-width:1.8;stroke-miterlimit:4;stroke-dasharray:none;stroke-opacity:1"
       id="rect4630-4-6-1-3-0-2"
       width="287.12778"
       height="391.95221"
       x="1257.7643"
       y="386.63037" /></clipPath><clipPath
     clipPathUnits="userSpaceOnUse"
     id="clipPath4624-2-2-0-7-2-5"><rect
       style="opacity:1;fill:#ffffff;fill-opacity:1;stroke:none;stroke-width:1.8;stroke-miterlimit:4;stroke-dasharray:none;stroke-opacity:1"
       id="rect4626-9-4-42-5-3-8"
       width="287.12778"
       height="391.95221"
       x="1257.7643"
       y="386.63037" /></clipPath><clipPath
     clipPathUnits="userSpaceOnUse"
     id="clipPath4616-3-0-55-2-7-6"><rect
       style="opacity:1;fill:#ffffff;fill-opacity:1;stroke:none;stroke-width:1.8;stroke-miterlimit:4;stroke-dasharray:none;stroke-opacity:1"
       id="rect4618-5-0-2-8-5-2"
       width="287.12778"
       height="391.95221"
       x="1257.7643"
       y="386.63037" /></clipPath><clipPath
     clipPathUnits="userSpaceOnUse"
     id="clipPath4612-3-3-9-9-9-8"><rect
       style="opacity:1;fill:#ffffff;fill-opacity:1;stroke:none;stroke-width:1.8;stroke-miterlimit:4;stroke-dasharray:none;stroke-opacity:1"
       id="rect4614-2-8-7-0-7-2-4"
       width="287.12778"
       height="391.95221"
       x="1257.7643"
       y="386.63037" /></clipPath><clipPath
     clipPathUnits="userSpaceOnUse"
     id="clipPath4608-7-7-2-3-2-7"><rect
       style="opacity:1;fill:#ffffff;fill-opacity:1;stroke:none;stroke-width:1.8;stroke-miterlimit:4;stroke-dasharray:none;stroke-opacity:1"
       id="rect4610-5-1-8-6-8-2"
       width="287.12778"
       height="391.95221"
       x="1257.7643"
       y="386.63037" /></clipPath><clipPath
     clipPathUnits="userSpaceOnUse"
     id="clipPath4604-4-4-3-1-9-4"><rect
       style="opacity:1;fill:#ffffff;fill-opacity:1;stroke:none;stroke-width:1.8;stroke-miterlimit:4;stroke-dasharray:none;stroke-opacity:1"
       id="rect4606-3-7-80-2-7-0"
       width="287.12778"
       height="391.95221"
       x="1257.7643"
       y="386.63037"
       transform="rotate(40.99054)" /></clipPath><clipPath
     clipPathUnits="userSpaceOnUse"
     id="clipPath4600-3-9-4-9-3-6"><rect
       style="opacity:1;fill:#ffffff;fill-opacity:1;stroke:none;stroke-width:1.8;stroke-miterlimit:4;stroke-dasharray:none;stroke-opacity:1"
       id="rect4602-0-1-0-3-6-2"
       width="287.12778"
       height="391.95221"
       x="1257.7643"
       y="386.63037"
       transform="rotate(40.99054)" /></clipPath><clipPath
     clipPathUnits="userSpaceOnUse"
     id="clipPath4596-7-7-9-1-1-9"><rect
       style="opacity:1;fill:#ffffff;fill-opacity:1;stroke:none;stroke-width:1.8;stroke-miterlimit:4;stroke-dasharray:none;stroke-opacity:1"
       id="rect4598-8-3-1-9-2-9"
       width="486.26138"
       height="663.7854"
       x="2969.8318"
       y="-2567.8557"
       transform="rotate(40.99054)" /></clipPath><clipPath
     clipPathUnits="userSpaceOnUse"
     id="clipPath4592-4-5-9-4-9-0"><rect
       style="opacity:1;fill:#ffffff;fill-opacity:1;stroke:none;stroke-width:1.8;stroke-miterlimit:4;stroke-dasharray:none;stroke-opacity:1"
       id="rect4594-4-8-6-7-3-8"
       width="486.26138"
       height="663.7854"
       x="2972.7505"
       y="-2579.1865"
       transform="rotate(40.99054)" /></clipPath><clipPath
     clipPathUnits="userSpaceOnUse"
     id="clipPath4588-4-5-2-8-1-1"><rect
       style="opacity:1;fill:#ffffff;fill-opacity:1;stroke:none;stroke-width:1.8;stroke-miterlimit:4;stroke-dasharray:none;stroke-opacity:1"
       id="rect4590-9-3-5-4-9-3"
       width="287.12778"
       height="391.95221"
       x="1257.7643"
       y="386.63037" /></clipPath><clipPath
     clipPathUnits="userSpaceOnUse"
     id="clipPath4648-5-4-10-0-4-1"><rect
       style="opacity:1;fill:#ffffff;fill-opacity:1;stroke:none;stroke-width:1.8;stroke-miterlimit:4;stroke-dasharray:none;stroke-opacity:1"
       id="rect4650-4-2-7-6-7-1"
       width="287.12778"
       height="391.95221"
       x="1257.7643"
       y="386.63037" /></clipPath><clipPath
     clipPathUnits="userSpaceOnUse"
     id="clipPath4620-9-7-2-9-8-0"><rect
       style="opacity:1;fill:#ffffff;fill-opacity:1;stroke:none;stroke-width:1.8;stroke-miterlimit:4;stroke-dasharray:none;stroke-opacity:1"
       id="rect4622-8-3-20-2-4-3"
       width="287.12778"
       height="391.95221"
       x="1257.7643"
       y="386.63037" /></clipPath><linearGradient
     gradientTransform="matrix(1.0654932,0,0,1.0666667,-41.794639,-273.52275)"
     inkscape:collect="always"
     xlink:href="#linearGradient1731"
     id="linearGradient1733-6"
     x1="11.021262"
     y1="293.01489"
     x2="12.889274"
     y2="274.52158"
     gradientUnits="userSpaceOnUse" /></defs>
 
<g
   id="g6613"
   transform="matrix(2.5406714,0,0,2.5406714,-39.61511,-35.658569)"><circle
     style="fill:url(#linearGradient1733);fill-opacity:1;stroke:none;stroke-width:0.248477;stroke-miterlimit:4;stroke-dasharray:none;stroke-opacity:0.996078"
     id="path1041-7"
     cx="29.810843"
     cy="28.253561"
     r="13.32981" /><g
     id="g3185-0-4"
     transform="matrix(0.91233893,0,0,0.91233893,17.030751,-231.51292)"><path
       transform="matrix(0.04439519,-0.03692897,0.03692897,0.04439519,-52.18261,283.60322)"
       clip-path="url(#clipPath4684-9-2-8-3-3-7)"
       mask="none"
       sodipodi:nodetypes="cscc"
       inkscape:connector-curvature="0"
       id="path5962-64-1-3-2-7-5-5-9-0-6-0"
       d="m 778.02048,597.88223 c -4.5485,-4.5463 -19.2977,-27.1761 -14.6525,-32.5594 9.8196,-11.3803 28.63545,19.6568 28.63545,19.6568 0,0 -10.18565,6.5349 -13.98295,12.9026 z"
       style="display:inline;fill:#000000;fill-opacity:1;stroke:none" /><path
       sodipodi:nodetypes="cccc"
       inkscape:connector-curvature="0"
       id="path7525-2-0-2-3-3"
       d="m 10.974262,291.64416 c 0.830725,1.88079 1.99255,5.75152 2.989932,7.67398 l -0.0776,-7.90178 z"
       style="fill:#ffffff;fill-opacity:1;fill-rule:evenodd;stroke:none;stroke-width:0.0818699px;stroke-linecap:butt;stroke-linejoin:miter;stroke-opacity:1" /><path
       clip-path="url(#clipPath4680-6-1-99-7-7-4)"
       mask="none"
       sodipodi:nodetypes="ccssszccsscc"
       inkscape:connector-curvature="0"
       id="path6935-0-4-8-1-3-9-3-2-9"
       d="m 1481.285,727.09909 c -24.5676,-43.40276 -81.3255,-104.26049 -81.3255,-104.26049 0,0 -18.5697,-66.83656 36.8186,-84.94023 55.3881,-18.10363 73.708,-26.1213 94.6427,-11.12409 20.9347,14.99722 24.7145,26.21517 33.7359,37.45757 9.5267,11.87207 27.0184,51.71707 90.755,59.42347 63.7364,7.70631 57.2174,13.10085 57.2174,13.10085 L 1511.4395,844.3105 c 0,0 6.2064,-48.95028 2.2718,-71.6729 -1.2149,-7.01627 -15.5533,-7.21621 -15.8296,-8.20846 -0.478,-1.71639 -2.6736,-3.328 -3.7289,-5.06659 -4.8783,-12.61848 -7.5052,-22.7078 -12.8678,-32.26346 z"
       style="display:inline;fill:#ffffff;stroke:none"
       transform="matrix(0.05766314,3.9453274e-4,-3.9563257e-4,0.05774533,-74.873013,247.23028)" /><path
       transform="matrix(0.04439519,-0.03692897,0.03692897,0.04439519,-52.18261,283.60322)"
       clip-path="url(#clipPath4676-6-4-0-3-3-1)"
       mask="none"
       sodipodi:nodetypes="cscc"
       inkscape:connector-curvature="0"
       id="path5964-7-1-1-9-3-7-4-3-6-0-1"
       d="m 906.63483,586.58153 c 0,0 22.3319,-26.5265 27.0297,-20.6454 7.7945,9.7579 -8.0812,31.5952 -15.616,33.7645 -4.7525,-9.3872 -11.4137,-13.1191 -11.4137,-13.1191 z"
       style="display:inline;fill:#000000;fill-opacity:1;stroke:none" /><path
       clip-path="url(#clipPath4668-2-9-7-6-6-8)"
       mask="none"
       sodipodi:nodetypes="cssssc"
       inkscape:connector-curvature="0"
       id="path6983-98-7-1-7-2-6-1-6-9"
       d="m 1482.9377,587.28905 c 0,0 23.4426,16.26622 29.7834,16.28785 6.3404,0.0216 32.2447,2.46044 44.8902,-11.63931 12.4545,-13.88691 7.7592,-24.43178 -1.2395,-34.78704 -8.9987,-10.35531 -27.4026,-41.47179 -38.4814,-34.21498 -11.0788,7.2568 -34.9527,64.35348 -34.9527,64.35348 z"
       style="display:inline;fill:#000000;fill-opacity:1;stroke:#000000;stroke-width:0.59048px;stroke-linecap:butt;stroke-linejoin:miter;stroke-opacity:1"
       transform="matrix(0.05774533,3.953643e-4,-3.953643e-4,0.05774533,-74.987981,247.22912)" /><path
       clip-path="url(#clipPath4664-4-4-1-9-9-3)"
       mask="none"
       inkscape:connector-curvature="0"
       id="path7018-2-8-1-9-3-0-0-1-6"
       d="m 1508.3851,697.72477 15.7318,5.88619 c 0,0 34.394,-21.50671 39.7381,-29.50333 5.3439,-7.99658 14.6487,-25.58156 14.6487,-25.58156 l -4.3695,-10.17223 c 0,0 -16.7257,29.62157 -29.6534,39.17934 -12.9277,9.55774 -36.0957,20.19159 -36.0957,20.19159 z"
       style="display:inline;fill:#000000;fill-opacity:1;stroke:#000000;stroke-width:0.59048px;stroke-linecap:butt;stroke-linejoin:miter;stroke-opacity:1"
       transform="matrix(0.05774533,3.953643e-4,-3.953643e-4,0.05774533,-74.987981,247.22912)" /><path
       clip-path="url(#clipPath4660-4-5-1-2-2-8)"
       mask="none"
       sodipodi:nodetypes="ccszcsc"
       inkscape:connector-curvature="0"
       id="path13288-4-6-1-5-6-5-9"
       d="m 1500.274,687.14894 26.3998,15.30307 c 0,0 31.6194,-20.48472 40.1255,-27.87659 8.5062,-7.39171 13.0122,-22.96636 12.1071,-33.30739 -0.9052,-10.34096 -13.4138,-23.25153 -13.4138,-23.25153 0,0 -29.7267,43.35745 -37.5972,54.34407 -7.8705,10.98662 -27.6214,14.78837 -27.6214,14.78837 z"
       style="display:inline;fill:#c83737;stroke:#000000;stroke-width:0.876489px;stroke-linecap:butt;stroke-linejoin:miter;stroke-opacity:1"
       transform="matrix(0.05774533,3.953643e-4,-3.953643e-4,0.05774533,-74.987981,247.22912)" /><path
       clip-path="url(#clipPath4656-3-0-9-0-0-2)"
       mask="none"
       inkscape:connector-curvature="0"
       id="path13290-5-0-5-0-3-5-3"
       d="m 1516.5888,678.28543 9.115,3.22237 c 0,0 29.6911,-26.38801 30.9281,-29.80892 1.2371,-3.42092 -5.8836,-13.06828 -5.8836,-13.06828 l -24.9446,21.67681 z"
       style="display:inline;fill:#ffffff;stroke:none"
       transform="matrix(0.05774533,3.953643e-4,-3.953643e-4,0.05774533,-74.987981,247.22912)" /><path
       clip-path="url(#clipPath4652-5-4-1-3-3-0)"
       mask="none"
       sodipodi:nodetypes="sscczsccs"
       inkscape:connector-curvature="0"
       id="path5150-81-5-0-8-7-29-2-4-3"
       d="m 1495.1301,688.53469 c 17.7697,5.74071 25.8912,-12.43748 43.8627,-29.85882 17.9565,-17.40676 32.3201,-20.96543 27.0791,-41.51294 -7.1695,-14.4955 -13.0311,-15.23796 -16.2892,-6.91157 -4.7416,-7.4815 -8.6085,-3.96562 -16.2343,-0.91983 -7.6258,3.04569 -5.6092,16.36629 -18.0488,27.36209 -6.2199,5.49782 -20.4691,5.787 -28.7507,9.16577 -11.1536,6.91499 -7.6066,14.54399 -4.4563,24.88105 -9.1949,6.52427 6.7467,15.82663 12.8375,17.79425 z"
       style="display:inline;fill:#deccd8;fill-opacity:1;stroke:none"
       transform="matrix(0.05774533,3.953643e-4,-3.953643e-4,0.05774533,-74.987981,247.22912)" /><path
       clip-path="url(#clipPath4644-9-5-58-2-0-1)"
       mask="none"
       sodipodi:open="true"
       sodipodi:end="6.1852847"
       sodipodi:start="6.2071318"
       transform="matrix(0.04384655,-0.03757873,0.03757873,0.04384655,-74.987981,247.22912)"
       d="m 806.79638,1408.5604 a 33.999088,35.192036 0 0 1 -31.13243,37.749 33.999088,35.192036 0 0 1 -36.63895,-32.0181 33.999088,35.192036 0 0 1 30.73221,-38.0988 33.999088,35.192036 0 0 1 36.97464,31.6019"
       sodipodi:ry="35.192036"
       sodipodi:rx="33.999088"
       sodipodi:cy="1411.2343"
       sodipodi:cx="772.89557"
       id="path6985-4-6-5-3-9-5-6-7-8"
       style="display:inline;fill:#ffffff;fill-opacity:1;stroke:none"
       sodipodi:type="arc"
       sodipodi:arc-type="arc" /><path
       clip-path="url(#clipPath4640-9-7-0-1-2-0)"
       mask="none"
       sodipodi:open="true"
       sodipodi:end="6.1852847"
       sodipodi:start="6.2071318"
       d="m 719.85637,1406.2529 a 33.999088,35.192036 0 0 1 -31.13243,37.749 33.999088,35.192036 0 0 1 -36.63894,-32.0181 33.999088,35.192036 0 0 1 30.7322,-38.0988 33.999088,35.192036 0 0 1 36.97465,31.6019"
       sodipodi:ry="35.192036"
       sodipodi:rx="33.999088"
       sodipodi:cy="1408.9268"
       sodipodi:cx="685.95557"
       id="path6985-6-2-3-9-9-8-1-1-6-0"
       style="display:inline;fill:#ffffff;fill-opacity:1;stroke:none"
       sodipodi:type="arc"
       transform="matrix(0.04384655,-0.03757873,0.03757873,0.04384655,-74.987981,247.22912)"
       sodipodi:arc-type="arc" /><path
       clip-path="url(#clipPath4636-6-6-0-7-1-5)"
       mask="none"
       inkscape:connector-curvature="0"
       id="path6939-3-5-5-9-3-5-1-3-74-5-5-5"
       d="m 1405.9427,635.42177 c 0,0 -32.7806,-15.56231 -42.4733,-7.62804 -9.6927,7.93415 -21.0642,15.70093 -10.0665,24.4276 10.9977,8.72671 16.0341,9.22903 33.5751,3.34953 17.5412,-5.87973 29.752,-13.56269 29.752,-13.56269 z"
       style="display:inline;fill:#f4d7d7;fill-opacity:1;stroke:none"
       transform="matrix(0.05774533,3.953643e-4,-3.953643e-4,0.05774533,-74.987981,247.22912)" /><path
       clip-path="url(#clipPath4632-4-1-2-2-7-6)"
       mask="none"
       sodipodi:nodetypes="sssscsssscsssssccsscscccssccc"
       inkscape:connector-curvature="0"
       id="path5152-7-9-3-1-0-3-5-6-6"
       d="m 1414.0127,512.89601 c -68.0748,58.10373 -16.8213,114.149 -6.6684,128.53966 10.1533,14.39074 28.2796,50.73157 33.3785,50.99305 5.0989,0.26162 4.2306,-2.62194 4.7922,-6.97576 0.5158,-3.99755 -23.2038,-37.12938 -27.9387,-41.63891 4.1067,3.66837 21.5001,16.41999 49.4572,-1.15057 19.142,-12.03053 11.9528,-39.71968 13.2333,-46.04241 1.2806,-6.32274 7.243,-8.99696 12.8674,-7.97936 5.6248,1.01753 17.6947,16.30833 41.5806,0.75623 19.1794,-12.48778 10.9631,-41.08719 10.9631,-41.08719 0,0 29.8218,19.32277 35.8827,20.27759 8.6015,1.35501 9.6142,-6.15371 3.4766,-10.59953 -8.1302,-5.88906 -32.0677,-5.51508 -48.398,-30.00995 -16.3301,-24.49501 -62.5711,-66.34168 -122.6265,-15.08285 z m 8.2419,82.83012 c 10.5138,-9.6567 27.1805,-9.18251 38.1627,1.30512 l 0.4567,0.42827 c 11.2854,11.23407 11.8486,29.10668 1.2552,39.91582 -10.5934,10.809 -28.3305,10.47234 -39.616,-0.7617 -11.2853,-11.23402 -11.8485,-29.10673 -1.2549,-39.9158 0.3257,-0.3326 0.6572,-0.66022 0.9962,-0.97161 z m 64.6509,-59.38012 c 11.2047,-10.27836 28.7809,-9.9941 40.2363,0.89749 l 0.4656,0.4511 c 11.7658,11.67285 12.1561,30.45102 0.8534,41.94166 -11.303,11.49071 -30.0019,11.34822 -41.7677,-0.32469 -11.7658,-11.6728 -12.1561,-30.45101 -0.8533,-41.9417 0.3476,-0.35371 0.7043,-0.69243 1.0658,-1.02389 z"
       style="display:inline;fill:#9d8167;fill-opacity:1;stroke:none"
       transform="matrix(0.05774533,3.953643e-4,-3.953643e-4,0.05774533,-74.987981,247.22912)" /><path
       clip-path="url(#clipPath4628-8-0-6-2-2-6)"
       mask="none"
       inkscape:connector-curvature="0"
       id="path13290-5-2-2-3-1-4-9-6"
       d="m 1530.9637,692.64358 -2.7285,-9.27476 c 0,0 27.9433,-28.23228 31.4257,-29.28387 3.4824,-1.0517 12.7337,6.57651 12.7337,6.57651 l -22.9843,23.74537 z"
       style="display:inline;fill:#ffffff;stroke:none"
       transform="matrix(0.05774533,3.953643e-4,-3.953643e-4,0.05774533,-74.987981,247.22912)" /><path
       clip-path="url(#clipPath4624-2-2-0-7-2-5)"
       mask="none"
       sodipodi:nodetypes="zszz"
       inkscape:connector-curvature="0"
       id="path6030-7-6-7-8-5-4-7-3-4"
       d="m 1516.5952,692.31237 c 32.0329,0.28386 49.4299,-19.223 60.9774,-55.69652 1.8991,-5.99835 17.7147,33.38656 -11.0868,59.60811 -28.8015,26.22144 -81.9236,-4.19557 -49.8906,-3.91159 z"
       style="display:inline;fill:#deccd8;fill-opacity:1;stroke:none"
       transform="matrix(0.05774533,3.953643e-4,-3.953643e-4,0.05774533,-74.987981,247.22912)" /><path
       clip-path="url(#clipPath4616-3-0-55-2-7-6)"
       mask="none"
       sodipodi:nodetypes="cccsssc"
       inkscape:connector-curvature="0"
       id="path6961-0-7-7-3-6-9-5-7-0"
       d="m 1478.3489,571.32353 c 0,0 -6.6838,-24.27544 7.5609,-36.99407 14.4538,-12.25854 25.9732,-8.50064 39.9905,1.0061 0,0 -13.974,-11.761 -21.6007,-13.03558 -7.9151,-1.32261 -17.7354,1.18795 -24.1808,7.18408 -6.0395,5.61854 -9.9173,16.32277 -8.5308,25.19325 1.3428,8.59074 6.7609,16.64622 6.7609,16.64622 z"
       style="display:inline;fill:#aaeeff;stroke:none"
       transform="matrix(0.05774533,3.953643e-4,-3.953643e-4,0.05774533,-74.987981,247.22912)" /><path
       clip-path="url(#clipPath4612-3-3-9-9-9-8)"
       mask="none"
       sodipodi:nodetypes="cccsssc"
       inkscape:connector-curvature="0"
       id="path6961-8-5-1-5-3-5-4-4-6-4-0"
       d="m 1413.825,630.86096 c 0,0 -6.6838,-24.27541 7.561,-36.9941 14.4537,-12.25843 25.9731,-8.50052 39.9904,1.0061 0,0 -13.9738,-11.76103 -21.6008,-13.03554 -7.9149,-1.32261 -17.7354,1.18805 -24.1807,7.1841 -6.0395,5.61855 -9.9173,16.32279 -8.5307,25.19321 1.3427,8.5908 6.7608,16.64623 6.7608,16.64623 z"
       style="display:inline;fill:#aaeeff;stroke:none"
       transform="matrix(0.05774533,3.953643e-4,-3.953643e-4,0.05774533,-74.987981,247.22912)" /><path
       clip-path="url(#clipPath4608-7-7-2-3-2-7)"
       mask="none"
       sodipodi:nodetypes="ccsccsc"
       inkscape:connector-curvature="0"
       id="path6981-2-8-6-2-1-2-9-5-4"
       d="m 1453.7592,587.35789 5.8795,3.58316 c 0,0 3.886,-4.16709 9.9642,-9.44899 5.1774,-4.49926 8.7499,-7.2086 8.7499,-7.2086 l -2.8941,-6.96778 c 0,0 -3.24,4.00094 -10.2186,10.06533 -6.9786,6.06441 -11.4809,9.97688 -11.4809,9.97688 z"
       style="display:inline;fill:#aaeeff;fill-opacity:1;stroke:none"
       transform="matrix(0.05774533,3.953643e-4,-3.953643e-4,0.05774533,-74.987981,247.22912)" /><path
       clip-path="url(#clipPath4604-4-4-3-1-9-4)"
       mask="none"
       sodipodi:open="true"
       sodipodi:end="6.1852847"
       sodipodi:start="6.2071318"
       transform="matrix(0.04384655,-0.03757873,0.03757873,0.04384655,-74.987981,247.22912)"
       d="m 771.1209,1486.7355 a 11.17695,8.4354334 0 0 1 -10.23456,9.0484 11.17695,8.4354334 0 0 1 -12.04478,-7.6747 11.17695,8.4354334 0 0 1 10.10298,-9.1322 11.17695,8.4354334 0 0 1 12.15515,7.5749"
       sodipodi:ry="8.4354334"
       sodipodi:rx="11.17695"
       sodipodi:cy="1487.3765"
       sodipodi:cx="759.97626"
       id="path7014-8-3-4-9-0-26-3-2-6"
       style="display:inline;fill:#000000;fill-opacity:1;stroke:none"
       sodipodi:type="arc"
       sodipodi:arc-type="arc" /><path
       clip-path="url(#clipPath4600-3-9-4-9-3-6)"
       mask="none"
       sodipodi:open="true"
       sodipodi:end="6.1852847"
       sodipodi:start="6.2071318"
       transform="matrix(0.04384655,-0.03757873,0.03757873,0.04384655,-74.987981,247.22912)"
       d="m 703.21701,1482.323 a 10.755177,8.2245474 0 0 1 -9.84835,8.8221 10.755177,8.2245474 0 0 1 -11.59026,-7.4828 10.755177,8.2245474 0 0 1 9.72174,-8.9039 10.755177,8.2245474 0 0 1 11.69646,7.3856"
       sodipodi:ry="8.2245474"
       sodipodi:rx="10.755177"
       sodipodi:cy="1482.9479"
       sodipodi:cx="692.49292"
       id="path7016-3-1-5-9-7-4-7-5-2"
       style="display:inline;fill:#000000;fill-opacity:1;stroke:none"
       sodipodi:type="arc"
       sodipodi:arc-type="arc" /><g
       clip-path="url(#clipPath4596-7-7-9-1-1-9)"
       mask="none"
       inkscape:export-ydpi="90"
       inkscape:export-xdpi="90"
       inkscape:export-filename="/home/alumno/Documentos/plymouth-themes-huayra/huayra_liso/vaca_cabeza-01.png"
       transform="matrix(0.02589053,-0.0221895,0.0221895,0.02589053,-104.37406,356.91662)"
       id="g3747-6-3-7-2-1-4-4-6"
       style="display:inline"><path
         style="display:inline;fill:#000000;fill-opacity:1;stroke:none"
         d="m 3940.927,505.10211 c 1.516,21.18198 -13.383,39.66183 -33.2779,41.27592 -19.8948,1.61402 -37.2518,-14.24882 -38.7678,-35.43079 -1.516,-21.18198 13.383,-39.66183 33.2779,-41.27593 19.5882,-1.58914 36.7791,13.77787 38.6993,34.59367"
         id="path5156-8-51-3-2-9-5-28-5-7-7"
         inkscape:connector-curvature="0" /><path
         style="display:inline;fill:#000000;fill-opacity:1;stroke:none"
         d="m 4085.6179,501.7779 c 1.516,21.18199 -13.383,39.66183 -33.2779,41.27592 -19.8948,1.61402 -37.2518,-14.24882 -38.7678,-35.43078 -1.516,-21.18198 13.383,-39.66183 33.2779,-41.27593 19.5882,-1.58914 36.7791,13.77787 38.6993,34.59366"
         id="path5156-8-5-6-3-7-8-1-8-2-4-5"
         inkscape:connector-curvature="0" /></g><g
       clip-path="url(#clipPath4592-4-5-9-4-9-0)"
       mask="none"
       inkscape:export-ydpi="90"
       inkscape:export-xdpi="90"
       inkscape:export-filename="/home/alumno/Documentos/plymouth-themes-huayra/huayra_liso/vaca_cabeza-01.png"
       transform="matrix(0.02589053,-0.0221895,0.0221895,0.02589053,-104.47624,357.30228)"
       id="g3741-7-6-1-2-4-1-4-6"
       style="display:inline"><path
         style="display:inline;opacity:0.43;fill:#e6e6e6;stroke:none"
         d="m 4023.8296,473.02454 c 0,0 31.1922,2.90819 41.5179,15.18716 10.3258,12.27898 12.391,21.97292 24.0936,28.43554 11.7025,6.46262 17.2097,3.87758 17.2097,3.87758 0,0 18.1056,-45.96608 -22.7168,-66.88816 -38.5778,-19.77166 -60.1044,19.38788 -60.1044,19.38788 z"
         id="path6987-0-1-4-7-6-0-5-76-4-3-9"
         inkscape:connector-curvature="0"
         sodipodi:nodetypes="csscsc" /><path
         sodipodi:type="arc"
         style="display:inline;fill:#ffffff;fill-opacity:1;stroke:none"
         id="path6989-1-1-8-0-3-89-9-0-8"
         sodipodi:cx="-427.29453"
         sodipodi:cy="781.47375"
         sodipodi:rx="7.5761442"
         sodipodi:ry="8.586297"
         d="m -419.74028,780.82137 a 7.5761442,8.586297 0 0 1 -6.93736,9.21017 7.5761442,8.586297 0 0 1 -8.16439,-7.81192 7.5761442,8.586297 0 0 1 6.84817,-9.2955 7.5761442,8.586297 0 0 1 8.2392,7.71037"
         transform="translate(4501.6594,-306.73121)"
         sodipodi:start="6.2071318"
         sodipodi:end="6.1852847"
         sodipodi:open="true"
         sodipodi:arc-type="arc" /><path
         style="display:inline;opacity:0.43;fill:#e6e6e6;stroke:none"
         d="m 3873.8164,477.45607 c 0,0 31.1922,2.90819 41.5179,15.18716 10.3258,12.27898 12.391,21.97292 24.0936,28.43554 11.7025,6.46262 17.2097,3.87758 17.2097,3.87758 0,0 18.1056,-45.96608 -22.7168,-66.88816 -38.5778,-19.77166 -60.1044,19.38788 -60.1044,19.38788 z"
         id="path6987-0-2-1-7-0-0-0-2-7-7"
         inkscape:connector-curvature="0"
         sodipodi:nodetypes="csscsc" /><path
         sodipodi:type="arc"
         style="display:inline;fill:#ffffff;fill-opacity:1;stroke:none"
         id="path6989-6-9-7-5-3-8-6-0-8-2"
         sodipodi:cx="-427.29453"
         sodipodi:cy="781.47375"
         sodipodi:rx="7.5761442"
         sodipodi:ry="8.586297"
         d="m -419.74028,780.82137 a 7.5761442,8.586297 0 0 1 -6.93736,9.21017 7.5761442,8.586297 0 0 1 -8.16439,-7.81192 7.5761442,8.586297 0 0 1 6.84817,-9.2955 7.5761442,8.586297 0 0 1 8.2392,7.71037"
         transform="translate(4351.3765,-304.15304)"
         sodipodi:start="6.2071318"
         sodipodi:end="6.1852847"
         sodipodi:open="true"
         sodipodi:arc-type="arc" /></g><path
       clip-path="url(#clipPath4588-4-5-2-8-1-1)"
       mask="none"
       sodipodi:nodetypes="csccsssc"
       inkscape:connector-curvature="0"
       id="path5154-4-0-1-4-6-0-6-3-5-8-6-6-8"
       d="m 1405.3857,638.56353 c -22.426,-11.41258 -42.4293,-11.82703 -41.6976,5.64204 0.7023,16.76186 32.4523,6.44345 44.1367,-0.37608 l 4.1851,2.34086 c -8.8831,13.60136 -54.2348,34.24875 -66.796,15.59988 -7.8509,-11.65549 -8.8899,-22.79892 -2.3151,-30.4315 3.945,-4.57957 10.6302,-7.8903 20.2328,-9.31347 22.8472,-3.3862 32.5698,2.29355 41.0157,12.94527"
       style="display:inline;fill:#ffffff;fill-opacity:1;stroke:none"
       transform="matrix(0.05774533,3.953643e-4,-3.953643e-4,0.05774533,-74.987981,247.22912)" /><path
       clip-path="url(#clipPath4648-5-4-10-0-4-1)"
       mask="none"
       inkscape:connector-curvature="0"
       id="path6939-3-5-5-2-3-43-0-8-2"
       d="m 1538.1233,529.85021 c 0,0 -9.8127,-34.93513 -0.3578,-43.15141 9.4548,-8.21614 19.0276,-18.11533 25.7751,-5.80381 6.7476,12.31156 6.3937,17.36041 -2.3592,33.65916 -8.753,16.29877 -18.3848,27.03943 -18.3848,27.03943 z"
       style="display:inline;fill:#f4d7d7;fill-opacity:1;stroke:none"
       transform="matrix(0.05774533,3.953643e-4,-3.953643e-4,0.05774533,-74.987981,247.22912)" /><path
       clip-path="url(#clipPath4620-9-7-2-9-8-0)"
       mask="none"
       sodipodi:nodetypes="csccsssc"
       inkscape:connector-curvature="0"
       id="path5154-4-0-1-4-5-7-6-6-8-9"
       d="m 1541.314,529.83079 c -7.4681,-24.02916 -4.5041,-43.81593 12.5915,-40.14933 16.4036,3.51825 0.8798,33.07402 -7.8121,43.44149 l 1.6014,4.51989 c 14.9044,-6.4627 42.9026,-47.68396 26.6385,-63.20965 -10.165,-9.70361 -20.9737,-12.60653 -29.6055,-7.41264 -5.1792,3.1163 -9.5696,9.14756 -12.5914,18.3728 -7.1899,21.94929 -3.2306,32.4902 5.8445,42.61122"
       style="display:inline;fill:#ffffff;fill-opacity:1;stroke:none"
       transform="matrix(0.05774533,3.953643e-4,-3.953643e-4,0.05774533,-74.987981,247.22912)" /></g><path
     style="fill:url(#linearGradient1733-6);fill-opacity:1;stroke:none;stroke-width:0.24834;stroke-miterlimit:4;stroke-dasharray:none;stroke-opacity:0.996078"
     id="path1041-7-7"
     sodipodi:type="arc"
     sodipodi:cx="-28.246887"
     sodipodi:cy="29.752666"
     sodipodi:rx="13.315145"
     sodipodi:ry="13.32981"
     sodipodi:start="0"
     sodipodi:end="3.1437978"
     sodipodi:open="true"
     d="m -14.931743,29.752666 a 13.315145,13.32981 0 0 1 -6.66605,11.548851 13.315145,13.32981 0 0 1 -13.323611,-0.01471 13.315145,13.32981 0 0 1 -6.640595,-11.563538"
     transform="rotate(-90)"
     sodipodi:arc-type="arc" /><path
     inkscape:connector-curvature="0"
     id="path3498-3-2-8-7-9-4-1-3"
     style="fill:#e7408a;fill-opacity:1;fill-rule:nonzero;stroke:none;stroke-width:0.141123"
     d="m 32.652092,18.883065 c 0.141122,0 0.255574,0.114454 0.255574,0.255574 0,0.141269 -0.114452,0.255722 -0.255574,0.255722 -0.141122,0 -0.255572,-0.114453 -0.255572,-0.255722 0,-0.14112 0.11445,-0.255574 0.255572,-0.255574" /><path
     inkscape:connector-curvature="0"
     id="path3510-5-2-6-6-6-3-4-2"
     style="fill:#f19106;fill-opacity:1;fill-rule:nonzero;stroke:none;stroke-width:0.141123"
     d="m 32.652092,16.497913 c 0.141122,0 0.255574,0.114453 0.255574,0.255573 0,0.14127 -0.114452,0.255712 -0.255574,0.255712 -0.141122,0 -0.255572,-0.114442 -0.255572,-0.255712 0,-0.14112 0.11445,-0.255573 0.255572,-0.255573" /><path
     inkscape:connector-curvature="0"
     id="path3514-0-5-7-3-4-0-9-1"
     style="fill:#f19106;fill-opacity:1;fill-rule:nonzero;stroke:none;stroke-width:0.141123"
     d="m 30.278931,18.80314 c 0.141125,0 0.255435,0.114453 0.255435,0.255435 0,0.14112 -0.11431,0.255424 -0.255435,0.255424 -0.141122,0 -0.255431,-0.114304 -0.255431,-0.255424 0,-0.140982 0.114309,-0.255435 0.255431,-0.255435" /><path
     inkscape:connector-curvature="0"
     id="path3518-3-0-2-1-3-3-2-5"
     style="fill:#dddc08;fill-opacity:1;fill-rule:nonzero;stroke:none;stroke-width:0.141123"
     d="m 31.462809,19.453839 c 0.141123,0 0.255432,0.114442 0.255432,0.255424 0,0.140981 -0.114309,0.255434 -0.255432,0.255434 -0.141122,0 -0.255431,-0.114453 -0.255431,-0.255434 0,-0.140982 0.114309,-0.255424 0.255431,-0.255424" /><path
     inkscape:connector-curvature="0"
     id="path3538-7-3-5-7-3-0-06-9"
     style="fill:#9b86bd;fill-opacity:1;fill-rule:nonzero;stroke:none;stroke-width:0.141123"
     d="m 31.462809,21.83898 c 0.141123,0 0.255432,0.114443 0.255432,0.255424 0,0.140981 -0.114309,0.255435 -0.255432,0.255435 -0.141122,0 -0.255431,-0.114454 -0.255431,-0.255435 0,-0.140981 0.114309,-0.255424 0.255431,-0.255424" /><path
     inkscape:connector-curvature="0"
     id="path3550-6-2-9-5-3-9-8-9"
     style="fill:#57b6b0;fill-opacity:1;fill-rule:nonzero;stroke:none;stroke-width:0.141123"
     d="m 31.462809,15.875876 c 0.141123,0 0.255432,0.114453 0.255432,0.255434 0,0.140982 -0.114309,0.255435 -0.255432,0.255435 -0.141122,0 -0.255431,-0.114453 -0.255431,-0.255435 0,-0.140981 0.114309,-0.255434 0.255431,-0.255434" /><path
     inkscape:connector-curvature="0"
     id="path3554-5-7-4-9-8-2-92-1"
     style="fill:#57b6b0;fill-opacity:1;fill-rule:nonzero;stroke:none;stroke-width:0.141123"
     d="m 30.278931,17.610574 c 0.141125,0 0.255435,0.114443 0.255435,0.255424 0,0.140982 -0.11431,0.255435 -0.255435,0.255435 -0.141122,0 -0.255431,-0.114453 -0.255431,-0.255435 0,-0.140981 0.114309,-0.255424 0.255431,-0.255424" /><path
     inkscape:connector-curvature="0"
     id="path3558-8-6-1-6-6-5-6-4"
     style="fill:#57b6b0;fill-opacity:1;fill-rule:nonzero;stroke:none;stroke-width:0.141123"
     d="m 32.652092,20.075641 c 0.141122,0 0.255574,0.114454 0.255574,0.255574 0,0.141258 -0.114452,0.255712 -0.255574,0.255712 -0.141122,0 -0.255572,-0.114454 -0.255572,-0.255712 0,-0.14112 0.11445,-0.255574 0.255572,-0.255574" /><path
     inkscape:connector-curvature="0"
     id="path3566-7-3-4-2-0-4-6-9"
     style="fill:#ffd102;fill-opacity:1;fill-rule:nonzero;stroke:none;stroke-width:0.141123"
     d="m 31.462809,17.041625 c 0.141123,0 0.255432,0.114453 0.255432,0.255435 0,0.140981 -0.114309,0.255424 -0.255432,0.255424 -0.141122,0 -0.255431,-0.114443 -0.255431,-0.255424 0,-0.140982 0.114309,-0.255435 0.255431,-0.255435" /><path
     inkscape:connector-curvature="0"
     id="path3582-7-85-9-1-4-0-49-1"
     style="fill:#49b9eb;fill-opacity:1;fill-rule:nonzero;stroke:none;stroke-width:0.141123"
     d="m 30.278931,15.201902 c 0.139149,0 0.251905,0.112758 0.251905,0.251904 0,0.139147 -0.112756,0.251904 -0.251905,0.251904 -0.139146,0 -0.251902,-0.112757 -0.251902,-0.251904 0,-0.139146 0.112756,-0.251904 0.251902,-0.251904" /><path
     inkscape:connector-curvature="0"
     id="path3586-2-5-6-7-8-5-50-0"
     style="fill:#49b9eb;fill-opacity:1;fill-rule:nonzero;stroke:none;stroke-width:0.141123"
     d="m 32.652092,15.281849 c 0.139146,0 0.252044,0.112896 0.252044,0.252043 0,0.139285 -0.112898,0.252181 -0.252044,0.252181 -0.139146,0 -0.252045,-0.112896 -0.252045,-0.252181 0,-0.139147 0.112899,-0.252043 0.252045,-0.252043" /><path
     inkscape:connector-curvature="0"
     id="path3602-8-8-6-8-8-9-4-7"
     style="fill:#49b9eb;fill-opacity:1;fill-rule:nonzero;stroke:none;stroke-width:0.141123"
     d="m 30.278931,16.416569 c 0.139149,0 0.251905,0.112757 0.251905,0.251904 0,0.139147 -0.112756,0.251904 -0.251905,0.251904 -0.139146,0 -0.251902,-0.112757 -0.251902,-0.251904 0,-0.139147 0.112756,-0.251904 0.251902,-0.251904" /><path
     inkscape:connector-curvature="0"
     id="path3606-8-5-5-5-8-4-8-5"
     style="fill:#49b9eb;fill-opacity:1;fill-rule:nonzero;stroke:none;stroke-width:0.141123"
     d="m 31.462809,18.259833 c 0.139146,0 0.251906,0.112758 0.251906,0.251904 0,0.139158 -0.11276,0.251904 -0.251906,0.251904 -0.139146,0 -0.251901,-0.112746 -0.251901,-0.251904 0,-0.139146 0.112755,-0.251904 0.251901,-0.251904" /><path
     inkscape:connector-curvature="0"
     id="path3614-9-45-9-7-9-6-7-8"
     style="fill:#49b9eb;fill-opacity:1;fill-rule:nonzero;stroke:none;stroke-width:0.141123"
     d="m 32.652092,17.69627 c 0.139146,0 0.252044,0.112896 0.252044,0.252043 0,0.139296 -0.112898,0.252192 -0.252044,0.252192 -0.139146,0 -0.252045,-0.112896 -0.252045,-0.252192 0,-0.139147 0.112899,-0.252043 0.252045,-0.252043" /><path
     inkscape:connector-curvature="0"
     id="path3622-4-6-7-4-7-9-1-7"
     style="fill:#49b9eb;fill-opacity:1;fill-rule:nonzero;stroke:none;stroke-width:0.141123"
     d="m 31.462809,20.643567 c 0.139146,0 0.251906,0.112757 0.251906,0.251904 0,0.139146 -0.11276,0.251904 -0.251906,0.251904 -0.139146,0 -0.251901,-0.112758 -0.251901,-0.251904 0,-0.139147 0.112755,-0.251904 0.251901,-0.251904" /><path
     inkscape:connector-curvature="0"
     id="path3638-2-6-9-1-7-2-7-0"
     style="fill:#49b9eb;fill-opacity:1;fill-rule:nonzero;stroke:none;stroke-width:0.141123"
     d="m 30.278931,20.015865 c 0.139149,0 0.251905,0.112758 0.251905,0.251904 0,0.139147 -0.112756,0.251904 -0.251905,0.251904 -0.139146,0 -0.251902,-0.112757 -0.251902,-0.251904 0,-0.139146 0.112756,-0.251904 0.251902,-0.251904" /><path
     inkscape:connector-curvature="0"
     id="path3498-3-2-8-7-9-4-0-7-8"
     style="fill:#e7408a;fill-opacity:1;fill-rule:nonzero;stroke:none;stroke-width:0.141123"
     d="m 36.218273,18.883065 c 0.141122,0 0.255574,0.114443 0.255574,0.255574 0,0.141258 -0.114452,0.255712 -0.255574,0.255712 -0.141122,0 -0.255571,-0.114454 -0.255571,-0.255712 0,-0.141131 0.114449,-0.255574 0.255571,-0.255574" /><path
     inkscape:connector-curvature="0"
     id="path3510-5-2-6-6-6-3-3-2-0"
     style="fill:#f19106;fill-opacity:1;fill-rule:nonzero;stroke:none;stroke-width:0.141123"
     d="m 36.48927,16.728804 c 0,0.141269 -0.129875,0.280384 -0.270997,0.280384 -0.141122,0 -0.255571,-0.114443 -0.255571,-0.255712 0,-0.088 0.08152,-0.190294 0.149227,-0.236267"
     sodipodi:nodetypes="cssc" /><path
     inkscape:connector-curvature="0"
     id="path3514-0-5-7-3-4-0-6-2-4"
     style="fill:#f19106;fill-opacity:1;fill-rule:nonzero;stroke:none;stroke-width:0.141123"
     d="m 33.845112,18.803129 c 0.141126,0 0.255435,0.114454 0.255435,0.255435 0,0.14112 -0.114309,0.255435 -0.255435,0.255435 -0.141122,0 -0.255431,-0.114315 -0.255431,-0.255435 0,-0.140981 0.114309,-0.255435 0.255431,-0.255435" /><path
     inkscape:connector-curvature="0"
     id="path3518-3-0-2-1-3-3-1-6-2"
     style="fill:#dddc08;fill-opacity:1;fill-rule:nonzero;stroke:none;stroke-width:0.141123"
     d="m 35.028991,19.453828 c 0.141122,0 0.255431,0.114443 0.255431,0.255435 0,0.14097 -0.114309,0.255424 -0.255431,0.255424 -0.141122,0 -0.255432,-0.114454 -0.255432,-0.255424 0,-0.140992 0.11431,-0.255435 0.255432,-0.255435" /><path
     inkscape:connector-curvature="0"
     id="path3538-7-3-5-7-3-0-0-1-9"
     style="fill:#9b86bd;fill-opacity:1;fill-rule:nonzero;stroke:none;stroke-width:0.141123"
     d="m 35.028991,21.838969 c 0.141122,0 0.255431,0.114454 0.255431,0.255435 0,0.140981 -0.114309,0.255424 -0.255431,0.255424 -0.141122,0 -0.255432,-0.114443 -0.255432,-0.255424 0,-0.140981 0.11431,-0.255435 0.255432,-0.255435" /><path
     inkscape:connector-curvature="0"
     id="path3550-6-2-9-5-3-9-6-0-6"
     style="fill:#57b6b0;fill-opacity:1;fill-rule:nonzero;stroke:none;stroke-width:0.141123"
     d="m 35.293317,16.104612 c 0,0.140981 -0.123204,0.282122 -0.264326,0.282122 -0.141122,0 -0.255432,-0.114453 -0.255432,-0.255434 0,-0.08128 0.03804,-0.153814 0.09731,-0.200608"
     sodipodi:nodetypes="cssc" /><path
     inkscape:connector-curvature="0"
     id="path3554-5-7-4-9-8-2-3-6-1"
     style="fill:#57b6b0;fill-opacity:1;fill-rule:nonzero;stroke:none;stroke-width:0.141123"
     d="m 33.845112,17.610564 c 0.141126,0 0.255435,0.114442 0.255435,0.255424 0,0.140992 -0.114309,0.255434 -0.255435,0.255434 -0.141122,0 -0.255431,-0.114442 -0.255431,-0.255434 0,-0.140982 0.114309,-0.255424 0.255431,-0.255424" /><path
     inkscape:connector-curvature="0"
     id="path3558-8-6-1-6-6-5-2-15-0"
     style="fill:#57b6b0;fill-opacity:1;fill-rule:nonzero;stroke:none;stroke-width:0.141123"
     d="m 36.218273,20.075631 c 0.141122,0 0.255574,0.114453 0.255574,0.255573 0,0.141269 -0.114452,0.255723 -0.255574,0.255723 -0.141122,0 -0.255571,-0.114454 -0.255571,-0.255723 0,-0.14112 0.114449,-0.255573 0.255571,-0.255573" /><path
     inkscape:connector-curvature="0"
     id="path3566-7-3-4-2-0-4-0-9-4"
     style="fill:#ffd102;fill-opacity:1;fill-rule:nonzero;stroke:none;stroke-width:0.141123"
     d="m 35.028991,17.041614 c 0.141122,0 0.255431,0.114454 0.255431,0.255435 0,0.140981 -0.114309,0.255435 -0.255431,0.255435 -0.141122,0 -0.255432,-0.114454 -0.255432,-0.255435 0,-0.140981 0.11431,-0.255435 0.255432,-0.255435" /><path
     inkscape:connector-curvature="0"
     id="path3582-7-85-9-1-4-0-6-4-2"
     style="fill:#49b9eb;fill-opacity:1;fill-rule:nonzero;stroke:none;stroke-width:0.141123"
     d="m 34.041742,15.611289 c -0.04617,0.0576 -0.117083,0.0944 -0.19663,0.0944 -0.139145,0 -0.260796,-0.08608 -0.260796,-0.225216"
     sodipodi:nodetypes="csc" /><path
     inkscape:connector-curvature="0"
     id="path3602-8-8-6-8-8-9-5-0-2"
     style="fill:#49b9eb;fill-opacity:1;fill-rule:nonzero;stroke:none;stroke-width:0.141123"
     d="m 33.845112,16.416558 c 0.139149,0 0.251906,0.112758 0.251906,0.251904 0,0.139147 -0.112757,0.251904 -0.251906,0.251904 -0.139145,0 -0.251901,-0.112757 -0.251901,-0.251904 0,-0.139146 0.112756,-0.251904 0.251901,-0.251904" /><path
     inkscape:connector-curvature="0"
     id="path3606-8-5-5-5-8-4-5-9-0"
     style="fill:#49b9eb;fill-opacity:1;fill-rule:nonzero;stroke:none;stroke-width:0.141123"
     d="m 35.028991,18.259822 c 0.139146,0 0.251905,0.112769 0.251905,0.251915 0,0.139147 -0.112759,0.251904 -0.251905,0.251904 -0.139147,0 -0.251902,-0.112757 -0.251902,-0.251904 0,-0.139146 0.112755,-0.251915 0.251902,-0.251915" /><path
     inkscape:connector-curvature="0"
     id="path3614-9-45-9-7-9-6-4-1-5"
     style="fill:#49b9eb;fill-opacity:1;fill-rule:nonzero;stroke:none;stroke-width:0.141123"
     d="m 36.218273,17.69626 c 0.139147,0 0.252045,0.112896 0.252045,0.252053 0,0.139285 -0.112898,0.252181 -0.252045,0.252181 -0.139146,0 -0.252045,-0.112896 -0.252045,-0.252181 0,-0.139157 0.112899,-0.252053 0.252045,-0.252053" /><path
     inkscape:connector-curvature="0"
     id="path3622-4-6-7-4-7-9-7-77-5"
     style="fill:#49b9eb;fill-opacity:1;fill-rule:nonzero;stroke:none;stroke-width:0.141123"
     d="m 35.028991,20.643556 c 0.139146,0 0.251905,0.112757 0.251905,0.251904 0,0.139157 -0.112759,0.251904 -0.251905,0.251904 -0.139147,0 -0.251902,-0.112747 -0.251902,-0.251904 0,-0.139147 0.112755,-0.251904 0.251902,-0.251904" /><path
     inkscape:connector-curvature="0"
     id="path3638-2-6-9-1-7-2-6-1-2"
     style="fill:#49b9eb;fill-opacity:1;fill-rule:nonzero;stroke:none;stroke-width:0.141123"
     d="m 33.845112,20.015855 c 0.139149,0 0.251906,0.112757 0.251906,0.251904 0,0.139146 -0.112757,0.251904 -0.251906,0.251904 -0.139145,0 -0.251901,-0.112758 -0.251901,-0.251904 0,-0.139147 0.112756,-0.251904 0.251901,-0.251904" /><path
     inkscape:connector-curvature="0"
     id="path3498-3-2-8-7-9-4-9-5-0"
     style="fill:#e7408a;fill-opacity:1;fill-rule:nonzero;stroke:none;stroke-width:0.141123"
     d="m 39.699524,19.323972 c -0.01528,0.0032 -0.03105,0.0043 -0.04716,0.0043 -0.141122,0 -0.255571,-0.114454 -0.255571,-0.255712 0,-0.02283 0.003,-0.04491 0.0086,-0.06592"
     sodipodi:nodetypes="cssc" /><path
     inkscape:connector-curvature="0"
     id="path3514-0-5-7-3-4-0-4-7-8"
     style="fill:#f19106;fill-opacity:1;fill-rule:nonzero;stroke:none;stroke-width:0.141123"
     d="m 37.279208,18.737092 c 0.141125,0 0.255434,0.114453 0.255434,0.255435 0,0.14112 -0.114309,0.255434 -0.255434,0.255434 -0.141123,0 -0.255431,-0.114314 -0.255431,-0.255434 0,-0.140982 0.114308,-0.255435 0.255431,-0.255435" /><path
     inkscape:connector-curvature="0"
     id="path3518-3-0-2-1-3-3-5-7-3"
     style="fill:#dddc08;fill-opacity:1;fill-rule:nonzero;stroke:none;stroke-width:0.141123"
     d="m 38.463086,19.387791 c 0.141122,0 0.255431,0.114453 0.255431,0.255434 0,0.140982 -0.114309,0.255435 -0.255431,0.255435 -0.141122,0 -0.255432,-0.114453 -0.255432,-0.255435 0,-0.140981 0.11431,-0.255434 0.255432,-0.255434" /><path
     inkscape:connector-curvature="0"
     id="path3538-7-3-5-7-3-0-2-67-8"
     style="fill:#9b86bd;fill-opacity:1;fill-rule:nonzero;stroke:none;stroke-width:0.141123"
     d="m 38.463086,21.772932 c 0.141122,0 0.255431,0.114453 0.255431,0.255435 0,0.140981 -0.114309,0.255434 -0.255431,0.255434 -0.141122,0 -0.255432,-0.114453 -0.255432,-0.255434 0,-0.140982 0.11431,-0.255435 0.255432,-0.255435" /><path
     inkscape:connector-curvature="0"
     id="path3554-5-7-4-9-8-2-4-6-4"
     style="fill:#57b6b0;fill-opacity:1;fill-rule:nonzero;stroke:none;stroke-width:0.141123"
     d="m 37.279208,17.544526 c 0.141125,0 0.255434,0.114454 0.255434,0.255435 0,0.140981 -0.114309,0.255424 -0.255434,0.255424 -0.141123,0 -0.255431,-0.114443 -0.255431,-0.255424 0,-0.140981 0.114308,-0.255435 0.255431,-0.255435" /><path
     inkscape:connector-curvature="0"
     id="path3558-8-6-1-6-6-5-7-5-0"
     style="fill:#57b6b0;fill-opacity:1;fill-rule:nonzero;stroke:none;stroke-width:0.141123"
     d="m 39.652368,20.009593 c 0.141123,0 0.255575,0.114454 0.255575,0.255574 0,0.141269 -0.114452,0.255722 -0.255575,0.255722 -0.141122,0 -0.255571,-0.114453 -0.255571,-0.255722 0,-0.14112 0.114449,-0.255574 0.255571,-0.255574" /><path
     inkscape:connector-curvature="0"
     id="path3606-8-5-5-5-8-4-7-12-2"
     style="fill:#49b9eb;fill-opacity:1;fill-rule:nonzero;stroke:none;stroke-width:0.141123"
     d="m 38.463086,18.193796 c 0.139146,0 0.251905,0.112757 0.251905,0.251904 0,0.139147 -0.112759,0.251904 -0.251905,0.251904 -0.139146,0 -0.251902,-0.112757 -0.251902,-0.251904 0,-0.139147 0.112756,-0.251904 0.251902,-0.251904" /><path
     inkscape:connector-curvature="0"
     id="path3622-4-6-7-4-7-9-6-3-4"
     style="fill:#49b9eb;fill-opacity:1;fill-rule:nonzero;stroke:none;stroke-width:0.141123"
     d="m 38.463086,20.577519 c 0.139146,0 0.251905,0.112768 0.251905,0.251914 0,0.139147 -0.112759,0.251904 -0.251905,0.251904 -0.139146,0 -0.251902,-0.112757 -0.251902,-0.251904 0,-0.139146 0.112756,-0.251914 0.251902,-0.251914" /><path
     inkscape:connector-curvature="0"
     id="path3638-2-6-9-1-7-2-8-90-4"
     style="fill:#49b9eb;fill-opacity:1;fill-rule:nonzero;stroke:none;stroke-width:0.141123"
     d="m 37.279208,19.949817 c 0.139148,0 0.251905,0.112758 0.251905,0.251904 0,0.139147 -0.112757,0.251904 -0.251905,0.251904 -0.139146,0 -0.251902,-0.112757 -0.251902,-0.251904 0,-0.139146 0.112756,-0.251904 0.251902,-0.251904" /><g
     id="g2681"
     transform="matrix(1.0666667,0,0,1.0666667,15.858655,-274.50578)"><path
       d="m 15.744806,292.62736 c 0.132302,0 0.239601,-0.1073 0.239601,-0.2396 0,-0.13244 -0.107299,-0.23974 -0.239601,-0.23974 -0.132302,0 -0.239598,0.1073 -0.239598,0.23974 0,0.1323 0.107296,0.2396 0.239598,0.2396"
       style="fill:#e7408a;fill-opacity:1;fill-rule:nonzero;stroke:none;stroke-width:0.132303"
       id="path3498-3-2-8-7-9-4-1-3-7"
       inkscape:connector-curvature="0" /><path
       d="m 15.744806,294.86344 c 0.132302,0 0.239601,-0.1073 0.239601,-0.2396 0,-0.13244 -0.107299,-0.23973 -0.239601,-0.23973 -0.132302,0 -0.239598,0.10729 -0.239598,0.23973 0,0.1323 0.107296,0.2396 0.239598,0.2396"
       style="fill:#f19106;fill-opacity:1;fill-rule:nonzero;stroke:none;stroke-width:0.132303"
       id="path3510-5-2-6-6-6-3-4-2-3"
       inkscape:connector-curvature="0" /><path
       d="m 13.519968,292.70229 c 0.132305,0 0.23947,-0.1073 0.23947,-0.23947 0,-0.1323 -0.107165,-0.23946 -0.23947,-0.23946 -0.132302,0 -0.239467,0.10716 -0.239467,0.23946 0,0.13217 0.107165,0.23947 0.239467,0.23947"
       style="fill:#f19106;fill-opacity:1;fill-rule:nonzero;stroke:none;stroke-width:0.132303"
       id="path3514-0-5-7-3-4-0-9-1-2"
       inkscape:connector-curvature="0" /><path
       d="m 14.629854,292.09226 c 0.132302,0 0.239467,-0.10729 0.239467,-0.23946 0,-0.13217 -0.107165,-0.23947 -0.239467,-0.23947 -0.132302,0 -0.239467,0.1073 -0.239467,0.23947 0,0.13217 0.107165,0.23946 0.239467,0.23946"
       style="fill:#dddc08;fill-opacity:1;fill-rule:nonzero;stroke:none;stroke-width:0.132303"
       id="path3518-3-0-2-1-3-3-2-5-6"
       inkscape:connector-curvature="0" /><path
       d="m 14.629854,289.85619 c 0.132302,0 0.239467,-0.10729 0.239467,-0.23946 0,-0.13217 -0.107165,-0.23947 -0.239467,-0.23947 -0.132302,0 -0.239467,0.1073 -0.239467,0.23947 0,0.13217 0.107165,0.23946 0.239467,0.23946"
       style="fill:#9b86bd;fill-opacity:1;fill-rule:nonzero;stroke:none;stroke-width:0.132303"
       id="path3538-7-3-5-7-3-0-06-9-5"
       inkscape:connector-curvature="0" /><path
       d="m 14.629854,295.4466 c 0.132302,0 0.239467,-0.1073 0.239467,-0.23947 0,-0.13217 -0.107165,-0.23947 -0.239467,-0.23947 -0.132302,0 -0.239467,0.1073 -0.239467,0.23947 0,0.13217 0.107165,0.23947 0.239467,0.23947"
       style="fill:#57b6b0;fill-opacity:1;fill-rule:nonzero;stroke:none;stroke-width:0.132303"
       id="path3550-6-2-9-5-3-9-8-9-2"
       inkscape:connector-curvature="0" /><path
       d="m 13.519968,293.82032 c 0.132305,0 0.23947,-0.10729 0.23947,-0.23946 0,-0.13217 -0.107165,-0.23947 -0.23947,-0.23947 -0.132302,0 -0.239467,0.1073 -0.239467,0.23947 0,0.13217 0.107165,0.23946 0.239467,0.23946"
       style="fill:#57b6b0;fill-opacity:1;fill-rule:nonzero;stroke:none;stroke-width:0.132303"
       id="path3554-5-7-4-9-8-2-92-1-6"
       inkscape:connector-curvature="0" /><path
       d="m 15.744806,291.50932 c 0.132302,0 0.239601,-0.1073 0.239601,-0.2396 0,-0.13243 -0.107299,-0.23973 -0.239601,-0.23973 -0.132302,0 -0.239598,0.1073 -0.239598,0.23973 0,0.1323 0.107296,0.2396 0.239598,0.2396"
       style="fill:#57b6b0;fill-opacity:1;fill-rule:nonzero;stroke:none;stroke-width:0.132303"
       id="path3558-8-6-1-6-6-5-6-4-5"
       inkscape:connector-curvature="0" /><path
       d="m 14.629854,294.35371 c 0.132302,0 0.239467,-0.1073 0.239467,-0.23947 0,-0.13217 -0.107165,-0.23946 -0.239467,-0.23946 -0.132302,0 -0.239467,0.10729 -0.239467,0.23946 0,0.13217 0.107165,0.23947 0.239467,0.23947"
       style="fill:#ffd102;fill-opacity:1;fill-rule:nonzero;stroke:none;stroke-width:0.132303"
       id="path3566-7-3-4-2-0-4-6-9-8"
       inkscape:connector-curvature="0" /><path
       d="m 13.519968,296.07845 c 0.130452,0 0.236161,-0.10571 0.236161,-0.23616 0,-0.13045 -0.105709,-0.23616 -0.236161,-0.23616 -0.130449,0 -0.236158,0.10571 -0.236158,0.23616 0,0.13045 0.105709,0.23616 0.236158,0.23616"
       style="fill:#49b9eb;fill-opacity:1;fill-rule:nonzero;stroke:none;stroke-width:0.132303"
       id="path3582-7-85-9-1-4-0-49-1-7"
       inkscape:connector-curvature="0" /><path
       d="m 15.744806,296.0035 c 0.13045,0 0.236292,-0.10584 0.236292,-0.23629 0,-0.13058 -0.105842,-0.23642 -0.236292,-0.23642 -0.130449,0 -0.236292,0.10584 -0.236292,0.23642 0,0.13045 0.105843,0.23629 0.236292,0.23629"
       style="fill:#49b9eb;fill-opacity:1;fill-rule:nonzero;stroke:none;stroke-width:0.132303"
       id="path3586-2-5-6-7-8-5-50-0-9"
       inkscape:connector-curvature="0" /><path
       d="m 13.519968,294.9397 c 0.130452,0 0.236161,-0.10571 0.236161,-0.23616 0,-0.13045 -0.105709,-0.23616 -0.236161,-0.23616 -0.130449,0 -0.236158,0.10571 -0.236158,0.23616 0,0.13045 0.105709,0.23616 0.236158,0.23616"
       style="fill:#49b9eb;fill-opacity:1;fill-rule:nonzero;stroke:none;stroke-width:0.132303"
       id="path3602-8-8-6-8-8-9-4-7-6"
       inkscape:connector-curvature="0" /><path
       d="m 14.629854,293.21164 c 0.130449,0 0.236161,-0.10571 0.236161,-0.23616 0,-0.13046 -0.105712,-0.23616 -0.236161,-0.23616 -0.13045,0 -0.236158,0.1057 -0.236158,0.23616 0,0.13045 0.105708,0.23616 0.236158,0.23616"
       style="fill:#49b9eb;fill-opacity:1;fill-rule:nonzero;stroke:none;stroke-width:0.132303"
       id="path3606-8-5-5-5-8-4-8-5-0"
       inkscape:connector-curvature="0" /><path
       d="m 15.744806,293.73998 c 0.13045,0 0.236292,-0.10584 0.236292,-0.23629 0,-0.13059 -0.105842,-0.23643 -0.236292,-0.23643 -0.130449,0 -0.236292,0.10584 -0.236292,0.23643 0,0.13045 0.105843,0.23629 0.236292,0.23629"
       style="fill:#49b9eb;fill-opacity:1;fill-rule:nonzero;stroke:none;stroke-width:0.132303"
       id="path3614-9-45-9-7-9-6-7-8-4"
       inkscape:connector-curvature="0" /><path
       d="m 14.629854,290.97689 c 0.130449,0 0.236161,-0.10571 0.236161,-0.23616 0,-0.13045 -0.105712,-0.23616 -0.236161,-0.23616 -0.13045,0 -0.236158,0.10571 -0.236158,0.23616 0,0.13045 0.105708,0.23616 0.236158,0.23616"
       style="fill:#49b9eb;fill-opacity:1;fill-rule:nonzero;stroke:none;stroke-width:0.132303"
       id="path3622-4-6-7-4-7-9-1-7-1"
       inkscape:connector-curvature="0" /><path
       d="m 13.519968,291.56536 c 0.130452,0 0.236161,-0.10571 0.236161,-0.23616 0,-0.13045 -0.105709,-0.23616 -0.236161,-0.23616 -0.130449,0 -0.236158,0.10571 -0.236158,0.23616 0,0.13045 0.105709,0.23616 0.236158,0.23616"
       style="fill:#49b9eb;fill-opacity:1;fill-rule:nonzero;stroke:none;stroke-width:0.132303"
       id="path3638-2-6-9-1-7-2-7-0-0"
       inkscape:connector-curvature="0" /><path
       d="m 19.088101,292.62736 c 0.132302,0 0.239601,-0.10729 0.239601,-0.2396 0,-0.13243 -0.107299,-0.23973 -0.239601,-0.23973 -0.132302,0 -0.239598,0.1073 -0.239598,0.23973 0,0.13231 0.107296,0.2396 0.239598,0.2396"
       style="fill:#e7408a;fill-opacity:1;fill-rule:nonzero;stroke:none;stroke-width:0.132303"
       id="path3498-3-2-8-7-9-4-0-7-8-4"
       inkscape:connector-curvature="0" /><path
       sodipodi:nodetypes="cssc"
       d="m 19.342161,294.64698 c 0,-0.13244 -0.121758,-0.26286 -0.25406,-0.26286 -0.132302,0 -0.239598,0.10729 -0.239598,0.23973 0,0.0825 0.07642,0.1784 0.1399,0.2215"
       style="fill:#f19106;fill-opacity:1;fill-rule:nonzero;stroke:none;stroke-width:0.132303"
       id="path3510-5-2-6-6-6-3-3-2-0-8"
       inkscape:connector-curvature="0" /><path
       d="m 16.863263,292.7023 c 0.132305,0 0.23947,-0.1073 0.23947,-0.23947 0,-0.1323 -0.107165,-0.23947 -0.23947,-0.23947 -0.132302,0 -0.239467,0.10717 -0.239467,0.23947 0,0.13217 0.107165,0.23947 0.239467,0.23947"
       style="fill:#f19106;fill-opacity:1;fill-rule:nonzero;stroke:none;stroke-width:0.132303"
       id="path3514-0-5-7-3-4-0-6-2-4-7"
       inkscape:connector-curvature="0" /><path
       d="m 17.973149,292.09227 c 0.132302,0 0.239467,-0.10729 0.239467,-0.23947 0,-0.13216 -0.107165,-0.23946 -0.239467,-0.23946 -0.132302,0 -0.239467,0.1073 -0.239467,0.23946 0,0.13218 0.107165,0.23947 0.239467,0.23947"
       style="fill:#dddc08;fill-opacity:1;fill-rule:nonzero;stroke:none;stroke-width:0.132303"
       id="path3518-3-0-2-1-3-3-1-6-2-0"
       inkscape:connector-curvature="0" /><path
       d="m 17.973149,289.8562 c 0.132302,0 0.239467,-0.1073 0.239467,-0.23947 0,-0.13217 -0.107165,-0.23946 -0.239467,-0.23946 -0.132302,0 -0.239467,0.10729 -0.239467,0.23946 0,0.13217 0.107165,0.23947 0.239467,0.23947"
       style="fill:#9b86bd;fill-opacity:1;fill-rule:nonzero;stroke:none;stroke-width:0.132303"
       id="path3538-7-3-5-7-3-0-0-1-9-8"
       inkscape:connector-curvature="0" /><path
       sodipodi:nodetypes="cssc"
       d="m 18.220955,295.23216 c 0,-0.13217 -0.115504,-0.26449 -0.247806,-0.26449 -0.132302,0 -0.239467,0.1073 -0.239467,0.23947 0,0.0762 0.03566,0.1442 0.09123,0.18807"
       style="fill:#57b6b0;fill-opacity:1;fill-rule:nonzero;stroke:none;stroke-width:0.132303"
       id="path3550-6-2-9-5-3-9-6-0-6-6"
       inkscape:connector-curvature="0" /><path
       d="m 16.863263,293.82033 c 0.132305,0 0.23947,-0.10729 0.23947,-0.23946 0,-0.13218 -0.107165,-0.23947 -0.23947,-0.23947 -0.132302,0 -0.239467,0.10729 -0.239467,0.23947 0,0.13217 0.107165,0.23946 0.239467,0.23946"
       style="fill:#57b6b0;fill-opacity:1;fill-rule:nonzero;stroke:none;stroke-width:0.132303"
       id="path3554-5-7-4-9-8-2-3-6-1-2"
       inkscape:connector-curvature="0" /><path
       d="m 19.088101,291.50933 c 0.132302,0 0.239601,-0.1073 0.239601,-0.2396 0,-0.13244 -0.107299,-0.23974 -0.239601,-0.23974 -0.132302,0 -0.239598,0.1073 -0.239598,0.23974 0,0.1323 0.107296,0.2396 0.239598,0.2396"
       style="fill:#57b6b0;fill-opacity:1;fill-rule:nonzero;stroke:none;stroke-width:0.132303"
       id="path3558-8-6-1-6-6-5-2-15-0-4"
       inkscape:connector-curvature="0" /><path
       d="m 17.973149,294.35372 c 0.132302,0 0.239467,-0.1073 0.239467,-0.23947 0,-0.13217 -0.107165,-0.23947 -0.239467,-0.23947 -0.132302,0 -0.239467,0.1073 -0.239467,0.23947 0,0.13217 0.107165,0.23947 0.239467,0.23947"
       style="fill:#ffd102;fill-opacity:1;fill-rule:nonzero;stroke:none;stroke-width:0.132303"
       id="path3566-7-3-4-2-0-4-0-9-4-7"
       inkscape:connector-curvature="0" /><path
       sodipodi:nodetypes="csc"
       d="m 17.047603,295.69465 c -0.04328,-0.054 -0.109765,-0.0885 -0.18434,-0.0885 -0.130449,0 -0.244497,0.0807 -0.244497,0.21114"
       style="fill:#49b9eb;fill-opacity:1;fill-rule:nonzero;stroke:none;stroke-width:0.132303"
       id="path3582-7-85-9-1-4-0-6-4-2-9"
       inkscape:connector-curvature="0" /><path
       d="m 16.863263,294.93971 c 0.130452,0 0.236161,-0.10571 0.236161,-0.23616 0,-0.13045 -0.105709,-0.23616 -0.236161,-0.23616 -0.130449,0 -0.236158,0.10571 -0.236158,0.23616 0,0.13045 0.105709,0.23616 0.236158,0.23616"
       style="fill:#49b9eb;fill-opacity:1;fill-rule:nonzero;stroke:none;stroke-width:0.132303"
       id="path3602-8-8-6-8-8-9-5-0-2-3"
       inkscape:connector-curvature="0" /><path
       d="m 17.973149,293.21165 c 0.130449,0 0.236161,-0.10572 0.236161,-0.23617 0,-0.13045 -0.105712,-0.23616 -0.236161,-0.23616 -0.13045,0 -0.236158,0.10571 -0.236158,0.23616 0,0.13045 0.105708,0.23617 0.236158,0.23617"
       style="fill:#49b9eb;fill-opacity:1;fill-rule:nonzero;stroke:none;stroke-width:0.132303"
       id="path3606-8-5-5-5-8-4-5-9-0-9"
       inkscape:connector-curvature="0" /><path
       d="m 19.088101,293.73999 c 0.13045,0 0.236292,-0.10584 0.236292,-0.2363 0,-0.13058 -0.105842,-0.23642 -0.236292,-0.23642 -0.130449,0 -0.236292,0.10584 -0.236292,0.23642 0,0.13046 0.105843,0.2363 0.236292,0.2363"
       style="fill:#49b9eb;fill-opacity:1;fill-rule:nonzero;stroke:none;stroke-width:0.132303"
       id="path3614-9-45-9-7-9-6-4-1-5-2"
       inkscape:connector-curvature="0" /><path
       d="m 17.973149,290.9769 c 0.130449,0 0.236161,-0.10571 0.236161,-0.23616 0,-0.13046 -0.105712,-0.23616 -0.236161,-0.23616 -0.13045,0 -0.236158,0.1057 -0.236158,0.23616 0,0.13045 0.105708,0.23616 0.236158,0.23616"
       style="fill:#49b9eb;fill-opacity:1;fill-rule:nonzero;stroke:none;stroke-width:0.132303"
       id="path3622-4-6-7-4-7-9-7-77-5-8"
       inkscape:connector-curvature="0" /><path
       d="m 16.863263,291.56537 c 0.130452,0 0.236161,-0.10571 0.236161,-0.23616 0,-0.13045 -0.105709,-0.23616 -0.236161,-0.23616 -0.130449,0 -0.236158,0.10571 -0.236158,0.23616 0,0.13045 0.105709,0.23616 0.236158,0.23616"
       style="fill:#49b9eb;fill-opacity:1;fill-rule:nonzero;stroke:none;stroke-width:0.132303"
       id="path3638-2-6-9-1-7-2-6-1-2-3"
       inkscape:connector-curvature="0" /><path
       sodipodi:nodetypes="cssc"
       d="m 22.351774,292.21401 c -0.01433,-0.003 -0.02911,-0.004 -0.04421,-0.004 -0.132302,0 -0.239598,0.1073 -0.239598,0.23973 0,0.0214 0.0028,0.0421 0.0081,0.0618"
       style="fill:#e7408a;fill-opacity:1;fill-rule:nonzero;stroke:none;stroke-width:0.132303"
       id="path3498-3-2-8-7-9-4-9-5-0-0"
       inkscape:connector-curvature="0" /><path
       d="m 20.082727,292.76421 c 0.132305,0 0.23947,-0.1073 0.23947,-0.23947 0,-0.1323 -0.107165,-0.23947 -0.23947,-0.23947 -0.132302,0 -0.239466,0.10717 -0.239466,0.23947 0,0.13217 0.107164,0.23947 0.239466,0.23947"
       style="fill:#f19106;fill-opacity:1;fill-rule:nonzero;stroke:none;stroke-width:0.132303"
       id="path3514-0-5-7-3-4-0-4-7-8-1"
       inkscape:connector-curvature="0" /><path
       d="m 21.192613,292.15418 c 0.132302,0 0.239467,-0.1073 0.239467,-0.23947 0,-0.13217 -0.107165,-0.23947 -0.239467,-0.23947 -0.132302,0 -0.239467,0.1073 -0.239467,0.23947 0,0.13217 0.107165,0.23947 0.239467,0.23947"
       style="fill:#dddc08;fill-opacity:1;fill-rule:nonzero;stroke:none;stroke-width:0.132303"
       id="path3518-3-0-2-1-3-3-5-7-3-7"
       inkscape:connector-curvature="0" /><path
       d="m 21.192613,289.91811 c 0.132302,0 0.239467,-0.1073 0.239467,-0.23947 0,-0.13217 -0.107165,-0.23947 -0.239467,-0.23947 -0.132302,0 -0.239467,0.1073 -0.239467,0.23947 0,0.13217 0.107165,0.23947 0.239467,0.23947"
       style="fill:#9b86bd;fill-opacity:1;fill-rule:nonzero;stroke:none;stroke-width:0.132303"
       id="path3538-7-3-5-7-3-0-2-67-8-8"
       inkscape:connector-curvature="0" /><path
       d="m 20.082727,293.88224 c 0.132305,0 0.23947,-0.1073 0.23947,-0.23947 0,-0.13217 -0.107165,-0.23946 -0.23947,-0.23946 -0.132302,0 -0.239466,0.10729 -0.239466,0.23946 0,0.13217 0.107164,0.23947 0.239466,0.23947"
       style="fill:#57b6b0;fill-opacity:1;fill-rule:nonzero;stroke:none;stroke-width:0.132303"
       id="path3554-5-7-4-9-8-2-4-6-4-9"
       inkscape:connector-curvature="0" /><path
       d="m 22.307565,291.57124 c 0.132303,0 0.239601,-0.1073 0.239601,-0.2396 0,-0.13244 -0.107298,-0.23974 -0.239601,-0.23974 -0.132302,0 -0.239598,0.1073 -0.239598,0.23974 0,0.1323 0.107296,0.2396 0.239598,0.2396"
       style="fill:#57b6b0;fill-opacity:1;fill-rule:nonzero;stroke:none;stroke-width:0.132303"
       id="path3558-8-6-1-6-6-5-7-5-0-1"
       inkscape:connector-curvature="0" /><path
       d="m 21.192613,293.27355 c 0.130449,0 0.236161,-0.10571 0.236161,-0.23616 0,-0.13045 -0.105712,-0.23616 -0.236161,-0.23616 -0.130449,0 -0.236158,0.10571 -0.236158,0.23616 0,0.13045 0.105709,0.23616 0.236158,0.23616"
       style="fill:#49b9eb;fill-opacity:1;fill-rule:nonzero;stroke:none;stroke-width:0.132303"
       id="path3606-8-5-5-5-8-4-7-12-2-5"
       inkscape:connector-curvature="0" /><path
       d="m 21.192613,291.03881 c 0.130449,0 0.236161,-0.10572 0.236161,-0.23617 0,-0.13045 -0.105712,-0.23616 -0.236161,-0.23616 -0.130449,0 -0.236158,0.10571 -0.236158,0.23616 0,0.13045 0.105709,0.23617 0.236158,0.23617"
       style="fill:#49b9eb;fill-opacity:1;fill-rule:nonzero;stroke:none;stroke-width:0.132303"
       id="path3622-4-6-7-4-7-9-6-3-4-4"
       inkscape:connector-curvature="0" /><path
       d="m 20.082727,291.62728 c 0.130452,0 0.236161,-0.10571 0.236161,-0.23616 0,-0.13045 -0.105709,-0.23616 -0.236161,-0.23616 -0.130449,0 -0.236158,0.10571 -0.236158,0.23616 0,0.13045 0.105709,0.23616 0.236158,0.23616"
       style="fill:#49b9eb;fill-opacity:1;fill-rule:nonzero;stroke:none;stroke-width:0.132303"
       id="path3638-2-6-9-1-7-2-8-90-4-9"
       inkscape:connector-curvature="0" /></g></g></svg>
