<?xml version="1.0" encoding="UTF-8" standalone="no"?>
<!-- Created with Inkscape (http://www.inkscape.org/) -->

<svg
   xmlns:dc="http://purl.org/dc/elements/1.1/"
   xmlns:cc="http://creativecommons.org/ns#"
   xmlns:rdf="http://www.w3.org/1999/02/22-rdf-syntax-ns#"
   xmlns:svg="http://www.w3.org/2000/svg"
   xmlns="http://www.w3.org/2000/svg"
   xmlns:sodipodi="http://sodipodi.sourceforge.net/DTD/sodipodi-0.dtd"
   xmlns:inkscape="http://www.inkscape.org/namespaces/inkscape"
   id="svg7384"
   sodipodi:docname="gpm-battery-050.svg"
   version="1.1"
   inkscape:version="0.92.1 r15371"
   height="16"
   width="16">
  <metadata
     id="metadata90">
    <rdf:RDF>
      <cc:Work
         rdf:about="">
        <dc:format>image/svg+xml</dc:format>
        <dc:type
           rdf:resource="http://purl.org/dc/dcmitype/StillImage" />
        <dc:title>Gnome Symbolic Icon Theme</dc:title>
      </cc:Work>
    </rdf:RDF>
  </metadata>
  <sodipodi:namedview
     inkscape:cy="10.313397"
     pagecolor="#555753"
     borderopacity="1"
     showborder="true"
     inkscape:bbox-paths="false"
     guidetolerance="10"
     inkscape:object-paths="true"
     inkscape:window-width="1918"
     showguides="true"
     inkscape:object-nodes="true"
     inkscape:snap-bbox="true"
     inkscape:pageshadow="2"
     inkscape:guide-bbox="true"
     inkscape:snap-nodes="false"
     bordercolor="#666666"
     objecttolerance="10"
     id="namedview88"
     showgrid="true"
     inkscape:window-maximized="1"
     inkscape:window-x="0"
     inkscape:snap-global="true"
     inkscape:window-y="26"
     gridtolerance="10"
     inkscape:window-height="1023"
     inkscape:snap-to-guides="true"
     inkscape:current-layer="layer9"
     inkscape:snap-bbox-midpoints="false"
     inkscape:zoom="15.999999"
     inkscape:cx="3.2401011"
     inkscape:snap-grids="true"
     inkscape:pageopacity="0">
    <inkscape:grid
       spacingx="1"
       spacingy="1"
       id="grid4866"
       empspacing="2"
       enabled="true"
       type="xygrid"
       snapvisiblegridlinesonly="true"
       visible="true"
       originx="0"
       originy="0" />
  </sodipodi:namedview>
  <title
     id="title9167">Gnome Symbolic Icon Theme</title>
  <defs
     id="defs7386" />
  <g
     inkscape:label="status"
     transform="translate(-61.0002,-217)"
     inkscape:groupmode="layer"
     id="layer9"
     style="display:inline">
    <rect
       transform="matrix(0,1,1,0,0,0)"
       x="224.98631"
       y="66.727509"
       id="rect3735"
       height="4.5455456"
       width="1.7534209"
       style="fill:#f79420;fill-opacity:1;stroke:none" />
    <path
       inkscape:connector-curvature="0"
       d="m 67.153472,218.00003 c -0.445761,0 -0.723712,0.20028 -0.937519,0.41096 -0.213806,0.21067 -0.397735,0.48965 -0.397735,0.9041 l 0,0.41096 -0.909109,0 -0.909109,0 0,0.87672 0,10.52052 0,0.87671 0.909109,0 8.181982,0 0.909109,0 0,-0.87671 0,-10.52052 0,-0.87672 -0.909109,0 -0.909109,0 0,-0.30136 0,-0.0275 c -0.02175,-0.37751 -0.154763,-0.65954 -0.369326,-0.9041 -0.203398,-0.23183 -0.569727,-0.46406 -1.051157,-0.46575 l 0,-0.0275 -0.05682,0 -3.551208,0 z m 0.482964,1.75341 2.727328,0 0,0.84933 0,0.87671 0.909109,0 0.909109,0 0,8.76711 -6.363764,0 0,-8.76711 0.909109,0 0.909109,0 0,-0.87671 0,-0.84933 z"
       id="path3737"
       style="font-size:medium;font-style:normal;font-variant:normal;font-weight:normal;font-stretch:normal;text-indent:0;text-align:start;text-decoration:none;line-height:normal;letter-spacing:normal;word-spacing:normal;text-transform:none;direction:ltr;block-progression:tb;writing-mode:lr-tb;text-anchor:start;baseline-shift:baseline;color:#bebebe;fill:#9283be;fill-opacity:1;stroke:none;stroke-width:2;marker:none;visibility:visible;display:inline;overflow:visible;enable-background:accumulate;font-family:Sans;-inkscape-font-specification:Sans" />
    <rect
       transform="matrix(0,1,1,0,0,0)"
       x="227.61644"
       y="66.727509"
       id="rect10870"
       height="4.5455456"
       style="fill:#f79420;fill-opacity:1;stroke:none"
       width="1.7534209" />
  </g>
  <g
     inkscape:label="devices"
     transform="translate(-61.0002,-217)"
     inkscape:groupmode="layer"
     id="layer10" />
  <g
     inkscape:label="apps"
     transform="translate(-61.0002,-217)"
     inkscape:groupmode="layer"
     id="layer11" />
  <g
     inkscape:label="actions"
     transform="translate(-61.0002,-217)"
     inkscape:groupmode="layer"
     id="layer12" />
  <g
     inkscape:label="places"
     transform="translate(-61.0002,-217)"
     inkscape:groupmode="layer"
     id="layer13" />
  <g
     inkscape:label="mimetypes"
     transform="translate(-61.0002,-217)"
     inkscape:groupmode="layer"
     id="layer14" />
  <g
     inkscape:label="emblems"
     transform="translate(-61.0002,-217)"
     inkscape:groupmode="layer"
     id="layer15"
     style="display:inline" />
  <g
     inkscape:label="categories"
     transform="translate(-61.0002,-217)"
     inkscape:groupmode="layer"
     id="g4953"
     style="display:inline" />
</svg>
