<?xml version="1.0" encoding="UTF-8" standalone="no"?>
<!-- Created with Inkscape (http://www.inkscape.org/) -->

<svg
   xmlns:dc="http://purl.org/dc/elements/1.1/"
   xmlns:cc="http://creativecommons.org/ns#"
   xmlns:rdf="http://www.w3.org/1999/02/22-rdf-syntax-ns#"
   xmlns:svg="http://www.w3.org/2000/svg"
   xmlns="http://www.w3.org/2000/svg"
   xmlns:sodipodi="http://sodipodi.sourceforge.net/DTD/sodipodi-0.dtd"
   xmlns:inkscape="http://www.inkscape.org/namespaces/inkscape"
   id="svg7384"
   sodipodi:docname="network-vpn-acquiring-symbolic.svg"
   version="1.1"
   inkscape:version="0.92.1 r15371"
   height="16"
   width="16">
  <metadata
     id="metadata90">
    <rdf:RDF>
      <cc:Work
         rdf:about="">
        <dc:format>image/svg+xml</dc:format>
        <dc:type
           rdf:resource="http://purl.org/dc/dcmitype/StillImage" />
        <dc:title>Gnome Symbolic Icon Theme</dc:title>
      </cc:Work>
    </rdf:RDF>
  </metadata>
  <sodipodi:namedview
     inkscape:cy="-1.5684128"
     pagecolor="#ffffff"
     borderopacity="1"
     showborder="false"
     inkscape:bbox-paths="false"
     guidetolerance="10"
     inkscape:object-paths="true"
     inkscape:window-width="1914"
     showguides="true"
     inkscape:object-nodes="true"
     inkscape:snap-bbox="true"
     inkscape:pageshadow="2"
     inkscape:guide-bbox="true"
     inkscape:snap-nodes="false"
     bordercolor="#666666"
     objecttolerance="10"
     id="namedview88"
     showgrid="false"
     inkscape:window-maximized="1"
     inkscape:window-x="0"
     inkscape:snap-global="true"
     inkscape:window-y="24"
     gridtolerance="10"
     inkscape:window-height="1008"
     inkscape:snap-to-guides="true"
     inkscape:current-layer="layer9"
     inkscape:snap-bbox-midpoints="false"
     inkscape:zoom="10.65625"
     inkscape:cx="32.391582"
     inkscape:snap-grids="true"
     inkscape:pageopacity="0">
    <inkscape:grid
       spacingx="1"
       spacingy="1"
       id="grid4866"
       empspacing="2"
       enabled="true"
       type="xygrid"
       snapvisiblegridlinesonly="true"
       visible="true"
       originx="0"
       originy="0" />
  </sodipodi:namedview>
  <title
     id="title9167">Gnome Symbolic Icon Theme</title>
  <defs
     id="defs7386" />
  <g
     inkscape:label="status"
     transform="translate(-241.0002,-237)"
     inkscape:groupmode="layer"
     id="layer9"
     style="display:inline">
    <g
       inkscape:label="lock"
       transform="translate(221.0002,-39)"
       id="g4994"
       style="fill:#bebebe;fill-opacity:1" />
    <path
       style="color:#bebebe;display:inline;overflow:visible;visibility:visible;fill:#9384be;fill-opacity:0.60000002;fill-rule:nonzero;stroke:#9384be;stroke-width:2;stroke-linecap:butt;stroke-linejoin:miter;stroke-miterlimit:4;stroke-dasharray:none;stroke-dashoffset:0;stroke-opacity:0.60000002;marker:none;opacity:0.6"
       sodipodi:nodetypes="cc"
       id="path4998"
       d="M 248.99995,249.1 V 250"
       inkscape:connector-curvature="0" />
    <path
       style="color:#bebebe;display:inline;overflow:visible;visibility:visible;fill:#9384be;fill-opacity:0.60000002;fill-rule:nonzero;stroke:#9384be;stroke-width:2;stroke-linecap:butt;stroke-linejoin:miter;stroke-miterlimit:4;stroke-dasharray:none;stroke-dashoffset:0;stroke-opacity:0.60000002;marker:none;opacity:0.6"
       id="path5000"
       d="m 242.99995,251 h 12"
       inkscape:connector-curvature="0" />
    <path
       style="color:#bebebe;display:inline;overflow:visible;visibility:visible;fill:#9283be;fill-opacity:1;fill-rule:nonzero;stroke:none;stroke-width:1;marker:none;opacity:0.6"
       d="M 8 1 C 6.35499 1 5 2.355 5 4 L 5 5 L 4 5 L 4 6.9375 L 5 6.9375 L 5 7 L 6 7 L 10 7 L 11 7 L 11 6.9375 L 12 6.9375 L 12 5 L 11 5 L 11 4 C 11 2.355 9.64501 1 8 1 z M 8 3 C 8.56413 3 9 3.43588 9 4 L 9 5 L 7 5 L 7 4 C 7 3.43588 7.43587 3 8 3 z "
       transform="translate(241.0002,237)"
       id="rect5002" />
    <path
       sodipodi:cy="209"
       transform="matrix(1.5,0,0,1.5,202.51323,-66.97658)"
       d="m 29,209 a 1,1 0 0 1 -1,1 1,1 0 0 1 -1,-1 1,1 0 0 1 1,-1 1,1 0 0 1 1,1 z"
       id="path4955-1-1"
       sodipodi:type="arc"
       sodipodi:rx="1"
       sodipodi:ry="1"
       style="fill:#9283be;fill-opacity:1;stroke:none;display:inline"
       sodipodi:cx="28" />
    <path
       sodipodi:cy="209"
       transform="matrix(1.5,0,0,1.5,206.51323,-66.97658)"
       d="m 29,209 a 1,1 0 0 1 -1,1 1,1 0 0 1 -1,-1 1,1 0 0 1 1,-1 1,1 0 0 1 1,1 z"
       id="path4957-2-6"
       sodipodi:type="arc"
       sodipodi:rx="1"
       sodipodi:ry="1"
       style="fill:#9283be;fill-opacity:1;stroke:none;display:inline"
       sodipodi:cx="28" />
    <path
       sodipodi:cy="209"
       transform="matrix(1.5,0,0,1.5,210.51318,-66.97658)"
       d="m 29,209 a 1,1 0 0 1 -1,1 1,1 0 0 1 -1,-1 1,1 0 0 1 1,-1 1,1 0 0 1 1,1 z"
       id="path4959-4-4"
       sodipodi:type="arc"
       sodipodi:rx="1"
       sodipodi:ry="1"
       style="fill:#9283be;fill-opacity:1;stroke:none;display:inline"
       sodipodi:cx="28" />
    <path
       inkscape:connector-curvature="0"
       style="opacity:0.6;fill:#9283be;fill-opacity:1;stroke:none"
       d="m 34.63203,174.07237 -70.25,48.1875 48.8125,40.53125 8.625,-5.59375 v -22.9375 h 35.40625 l 26.28125,-17.03125 z m 98.375,2 -49.1875,41.15625 25.53125,17.03125 h 37.71875 v 25.15625 l 7.03125,4.6875 46.1875,-42.84375 z m -120.46875,86.34375 -49.1875,39.15625 58.46875,39.8125 v -72.8125 z m 141.5625,2 -7.03125,4.1875 v 69.71875 l 54.21875,-34.75 z m 4,79.3125 -11.03125,6.71875 v 0.59375 h -0.9375 l -17.625,10.75 -11.9375,-10.75 h -71.375 l -12.0625,9.75 -20.59375,-15.0625 -1,16.0625 73.28125,44.1875 74.8125,-47.6875 z"
       id="path3050" />
  </g>
  <g
     inkscape:label="devices"
     transform="translate(-241.0002,-237)"
     inkscape:groupmode="layer"
     id="layer10" />
  <g
     inkscape:label="apps"
     transform="translate(-241.0002,-237)"
     inkscape:groupmode="layer"
     id="layer11" />
  <g
     inkscape:label="actions"
     transform="translate(-241.0002,-237)"
     inkscape:groupmode="layer"
     id="layer12" />
  <g
     inkscape:label="places"
     transform="translate(-241.0002,-237)"
     inkscape:groupmode="layer"
     id="layer13" />
  <g
     inkscape:label="mimetypes"
     transform="translate(-241.0002,-237)"
     inkscape:groupmode="layer"
     id="layer14" />
  <g
     inkscape:label="emblems"
     transform="translate(-241.0002,-237)"
     inkscape:groupmode="layer"
     id="layer15"
     style="display:inline" />
  <g
     inkscape:label="categories"
     transform="translate(-241.0002,-237)"
     inkscape:groupmode="layer"
     id="g4953"
     style="display:inline" />
</svg>
