<?xml version="1.0" encoding="UTF-8" standalone="no"?>
<!-- Created with Inkscape (http://www.inkscape.org/) -->

<svg
   xmlns:dc="http://purl.org/dc/elements/1.1/"
   xmlns:cc="http://creativecommons.org/ns#"
   xmlns:rdf="http://www.w3.org/1999/02/22-rdf-syntax-ns#"
   xmlns:svg="http://www.w3.org/2000/svg"
   xmlns="http://www.w3.org/2000/svg"
   xmlns:sodipodi="http://sodipodi.sourceforge.net/DTD/sodipodi-0.dtd"
   xmlns:inkscape="http://www.inkscape.org/namespaces/inkscape"
   id="svg7384"
   sodipodi:docname="network-wireless-acquiring-symbolic.svg"
   version="1.1"
   inkscape:version="0.92.1 r15371"
   height="16"
   width="16">
  <metadata
     id="metadata90">
    <rdf:RDF>
      <cc:Work
         rdf:about="">
        <dc:format>image/svg+xml</dc:format>
        <dc:type
           rdf:resource="http://purl.org/dc/dcmitype/StillImage" />
        <dc:title>Gnome Symbolic Icon Theme</dc:title>
      </cc:Work>
    </rdf:RDF>
  </metadata>
  <sodipodi:namedview
     inkscape:cy="-16.5"
     pagecolor="#ffffff"
     borderopacity="1"
     showborder="false"
     inkscape:bbox-paths="false"
     guidetolerance="10"
     inkscape:object-paths="true"
     inkscape:window-width="1918"
     showguides="true"
     inkscape:object-nodes="true"
     inkscape:snap-bbox="true"
     inkscape:pageshadow="2"
     inkscape:guide-bbox="true"
     inkscape:snap-nodes="false"
     bordercolor="#666666"
     objecttolerance="10"
     id="namedview88"
     showgrid="false"
     inkscape:window-maximized="1"
     inkscape:window-x="0"
     inkscape:snap-global="true"
     inkscape:window-y="26"
     gridtolerance="10"
     inkscape:window-height="1023"
     inkscape:snap-to-guides="true"
     inkscape:current-layer="layer9"
     inkscape:snap-bbox-midpoints="false"
     inkscape:zoom="6.896"
     inkscape:cx="29"
     inkscape:snap-grids="true"
     inkscape:pageopacity="0">
    <inkscape:grid
       spacingx="1"
       spacingy="1"
       id="grid4866"
       empspacing="2"
       enabled="true"
       type="xygrid"
       snapvisiblegridlinesonly="true"
       visible="true"
       originx="0"
       originy="0" />
  </sodipodi:namedview>
  <title
     id="title9167">Gnome Symbolic Icon Theme</title>
  <defs
     id="defs7386">
    <clipPath
       id="clipPath6259-6-8-2-1-6-6"
       clipPathUnits="userSpaceOnUse">
      <rect
         x="26.998718"
         y="221.50153"
         id="rect6261-4-9-2-0-9-0"
         height="4.8734746"
         style="color:#bebebe;fill:#bebebe;fill-opacity:1;stroke:none;stroke-width:2;marker:none;visibility:visible;display:inline;overflow:visible"
         width="1.8762827" />
    </clipPath>
    <clipPath
       id="clipPath3157-7-0"
       clipPathUnits="userSpaceOnUse">
      <rect
         x="28.124998"
         y="221.32954"
         id="rect3159-5-5"
         height="5.21591"
         width="1.7386366"
         style="color:#bebebe;fill:#bebebe;fill-opacity:1;fill-rule:nonzero;stroke:none;stroke-width:2;marker:none;visibility:visible;display:inline;overflow:visible" />
    </clipPath>
  </defs>
  <g
     inkscape:label="status"
     transform="translate(-141.0002,-177)"
     inkscape:groupmode="layer"
     id="layer9"
     style="display:inline">
    <path
       sodipodi:cy="209"
       transform="matrix(1.5,0,0,1.5,106.5002,-124)"
       d="m 29,209 a 1,1 0 0 1 -1,1 1,1 0 0 1 -1,-1 1,1 0 0 1 1,-1 1,1 0 0 1 1,1 z"
       id="path4175"
       sodipodi:type="arc"
       sodipodi:rx="1"
       sodipodi:ry="1"
       style="opacity:1;fill:#812c85;fill-opacity:0.50196081;stroke:none;display:inline"
       sodipodi:cx="28" />
    <path
       transform="matrix(0,-2.66667,2.66667,0,-448.6658,255)"
       inkscape:connector-curvature="0"
       d="m 27.0625,221.3125 a 0.3750375,0.3750375 0 0 0 -0.125,0.625 c 1.10149,1.10149 1.10149,2.89851 0,4 a 0.37565048,0.37565048 0 1 0 0.53125,0.53125 c 1.388102,-1.3881 1.388102,-3.6744 0,-5.0625 a 0.3750375,0.3750375 0 0 0 -0.40625,-0.0937 z"
       clip-path="url(#clipPath6259-6-8-2-1-6-6)"
       id="path4181"
       style="font-size:medium;font-style:normal;font-variant:normal;font-weight:normal;font-stretch:normal;text-indent:0;text-align:start;text-decoration:none;line-height:normal;letter-spacing:normal;word-spacing:normal;text-transform:none;direction:ltr;block-progression:tb;writing-mode:lr-tb;text-anchor:start;baseline-shift:baseline;opacity:1;color:#000000;fill:#812c85;fill-opacity:0.50196081;stroke:none;stroke-width:0.75;marker:none;visibility:visible;display:inline;overflow:visible;enable-background:accumulate;font-family:Sans;-inkscape-font-specification:Sans" />
    <path
       sodipodi:cy="209"
       transform="matrix(1.5,0,0,1.5,102.4999,-128)"
       d="m 29,209 a 1,1 0 0 1 -1,1 1,1 0 0 1 -1,-1 1,1 0 0 1 1,-1 1,1 0 0 1 1,1 z"
       id="path4955"
       sodipodi:type="arc"
       sodipodi:rx="1"
       sodipodi:ry="1"
       style="fill:#f79420;fill-opacity:1;stroke:none;display:inline"
       sodipodi:cx="28" />
    <path
       sodipodi:cy="209"
       transform="matrix(1.5,0,0,1.5,106.4999,-128)"
       d="m 29,209 a 1,1 0 0 1 -1,1 1,1 0 0 1 -1,-1 1,1 0 0 1 1,-1 1,1 0 0 1 1,1 z"
       id="path4957"
       sodipodi:type="arc"
       sodipodi:rx="1"
       sodipodi:ry="1"
       style="fill:#f79420;fill-opacity:1;stroke:none;display:inline"
       sodipodi:cx="28" />
    <path
       sodipodi:cy="209"
       transform="matrix(1.5,0,0,1.5,110.4999,-128)"
       d="m 29,209 a 1,1 0 0 1 -1,1 1,1 0 0 1 -1,-1 1,1 0 0 1 1,-1 1,1 0 0 1 1,1 z"
       id="path4959"
       sodipodi:type="arc"
       sodipodi:rx="1"
       sodipodi:ry="1"
       style="fill:#f79420;fill-opacity:1;stroke:none;display:inline"
       sodipodi:cx="28" />
    <path
       transform="matrix(0,-1.72549,1.72549,0,-237.9018,231.529)"
       inkscape:connector-curvature="0"
       d="m 27.125,221.09375 a 0.57960298,0.57960298 0 0 0 -0.34375,1 c 1.023324,1.02332 1.023324,2.66418 0,3.6875 a 0.57960298,0.57960298 0 1 0 0.8125,0.8125 c 1.466269,-1.46627 1.466269,-3.84623 0,-5.3125 a 0.57960298,0.57960298 0 0 0 -0.46875,-0.1875 z"
       clip-path="url(#clipPath3157-7-0)"
       id="path3745-5-4-5-6"
       style="font-size:medium;font-style:normal;font-variant:normal;font-weight:normal;font-stretch:normal;text-indent:0;text-align:start;text-decoration:none;line-height:normal;letter-spacing:normal;word-spacing:normal;text-transform:none;direction:ltr;block-progression:tb;writing-mode:lr-tb;text-anchor:start;baseline-shift:baseline;opacity:1;color:#000000;fill:#812c85;fill-opacity:0.50196081;stroke:none;stroke-width:1.15909004;marker:none;visibility:visible;display:inline;overflow:visible;enable-background:accumulate;font-family:Sans;-inkscape-font-specification:Sans" />
    <path
       style="color:#bebebe;font-style:normal;font-variant:normal;font-weight:normal;font-stretch:normal;font-size:medium;line-height:normal;font-family:Sans;-inkscape-font-specification:Sans;text-indent:0;text-align:start;text-decoration:none;text-decoration-line:none;letter-spacing:normal;word-spacing:normal;text-transform:none;writing-mode:lr-tb;direction:ltr;baseline-shift:baseline;text-anchor:start;display:inline;overflow:visible;visibility:visible;opacity:0.5;fill:#9283be;fill-opacity:1;stroke:none;stroke-width:2;marker:none;enable-background:accumulate"
       id="rect4087"
       d="m 202.27544,183.26451 c -0.76178,0 -1.40004,0.63826 -1.40004,1.40005 v 3.60013 c 0,0.76178 0.63826,1.40005 1.40004,1.40005 h 0.10001 l -0.62502,1.25004 -0.57502,1.15004 h 1.30004 4.00014 v -0.80003 h 1.70006 l -0.17501,-0.35001 -0.62502,-1.25004 h 0.10001 c 0.76179,0 1.40005,-0.63827 1.40005,-1.40005 v -3.60013 c 0,-0.76179 -0.63826,-1.40005 -1.40005,-1.40005 z m 0.20001,1.60006 h 4.80017 v 3.20011 h -4.80017 z"
       inkscape:connector-curvature="0" />
    <path
       style="color:#bebebe;display:inline;overflow:visible;visibility:visible;opacity:1;fill:#812c85;fill-opacity:0.50196078;fill-rule:nonzero;stroke:#812c85;stroke-width:1.60005593;stroke-linecap:butt;stroke-linejoin:miter;stroke-miterlimit:4;stroke-dasharray:none;stroke-dashoffset:0;stroke-opacity:0.50196078;marker:none"
       sodipodi:nodetypes="cc"
       id="path4091"
       d="m 204.87529,192.06454 v 1.61761"
       inkscape:connector-curvature="0" />
    <path
       style="color:#bebebe;display:inline;overflow:visible;visibility:visible;opacity:1;fill:#812c85;fill-opacity:0.50196078;fill-rule:nonzero;stroke:#812c85;stroke-width:1.60005593;stroke-linecap:butt;stroke-linejoin:miter;stroke-miterlimit:4;stroke-dasharray:none;stroke-dashoffset:0;stroke-opacity:0.50196078;marker:none"
       sodipodi:nodetypes="cc"
       id="path4093"
       d="m 200.07516,194.4649 h 6.40023"
       inkscape:connector-curvature="0" />
    <path
       inkscape:connector-curvature="0"
       d="m 207.27545,192.06481 h 1.10004 l 0.90003,0.87503 0.87504,-0.87503 h 1.12503 v 1.17504 l -0.87502,0.85004 0.87502,0.85002 v 1.12504 h -1.15004 l -0.85003,-0.85002 -0.85002,0.85002 h -1.15005 v -1.12504 l 0.85004,-0.85002 -0.85004,-0.85004 z"
       id="path3761-2-3-5-4-8-9-8-9-9"
       sodipodi:nodetypes="ccccccccccccccccc"
       style="color:#bebebe;display:inline;overflow:visible;visibility:visible;fill:#f79420;fill-opacity:1;stroke:none;stroke-width:2;marker:none" />
  </g>
  <g
     inkscape:label="devices"
     transform="translate(-141.0002,-177)"
     inkscape:groupmode="layer"
     id="layer10" />
  <g
     inkscape:label="apps"
     transform="translate(-141.0002,-177)"
     inkscape:groupmode="layer"
     id="layer11" />
  <g
     inkscape:label="actions"
     transform="translate(-141.0002,-177)"
     inkscape:groupmode="layer"
     id="layer12" />
  <g
     inkscape:label="places"
     transform="translate(-141.0002,-177)"
     inkscape:groupmode="layer"
     id="layer13" />
  <g
     inkscape:label="mimetypes"
     transform="translate(-141.0002,-177)"
     inkscape:groupmode="layer"
     id="layer14" />
  <g
     inkscape:label="emblems"
     transform="translate(-141.0002,-177)"
     inkscape:groupmode="layer"
     id="layer15"
     style="display:inline" />
  <g
     inkscape:label="categories"
     transform="translate(-141.0002,-177)"
     inkscape:groupmode="layer"
     id="g4953"
     style="display:inline" />
</svg>
