<?xml version="1.0" encoding="UTF-8" standalone="no"?>
<!-- Creator: CorelDRAW -->

<svg
   xmlns:dc="http://purl.org/dc/elements/1.1/"
   xmlns:cc="http://creativecommons.org/ns#"
   xmlns:rdf="http://www.w3.org/1999/02/22-rdf-syntax-ns#"
   xmlns:svg="http://www.w3.org/2000/svg"
   xmlns="http://www.w3.org/2000/svg"
   xmlns:sodipodi="http://sodipodi.sourceforge.net/DTD/sodipodi-0.dtd"
   xmlns:inkscape="http://www.inkscape.org/namespaces/inkscape"
   xml:space="preserve"
   width="300px"
   height="300px"
   style="shape-rendering:geometricPrecision; text-rendering:geometricPrecision; image-rendering:optimizeQuality; fill-rule:evenodd; clip-rule:evenodd"
   viewBox="0 0 300 300"
   id="svg2"
   version="1.1"
   inkscape:version="0.48.2 r9819"
   sodipodi:docname="conf_sistema_avanzada_mod.svg"><metadata
   id="metadata18"><rdf:RDF><cc:Work
       rdf:about=""><dc:format>image/svg+xml</dc:format><dc:type
         rdf:resource="http://purl.org/dc/dcmitype/StillImage" /><dc:title></dc:title></cc:Work></rdf:RDF></metadata><sodipodi:namedview
   pagecolor="#53978c"
   bordercolor="#666666"
   borderopacity="1"
   objecttolerance="10"
   gridtolerance="10"
   guidetolerance="10"
   inkscape:pageopacity="0.42352941"
   inkscape:pageshadow="2"
   inkscape:window-width="1680"
   inkscape:window-height="995"
   id="namedview16"
   showgrid="false"
   inkscape:zoom="1.1698775"
   inkscape:cx="99.669756"
   inkscape:cy="145.95874"
   inkscape:window-x="-2"
   inkscape:window-y="-3"
   inkscape:window-maximized="1"
   inkscape:current-layer="svg2"
   borderlayer="false"
   showborder="true"
   inkscape:showpageshadow="true" />
 <defs
   id="defs4"><inkscape:path-effect
   effect="spiro"
   id="path-effect3083"
   is_visible="true" /><inkscape:path-effect
   effect="spiro"
   id="path-effect3079"
   is_visible="true" /><inkscape:path-effect
   effect="spiro"
   id="path-effect3075"
   is_visible="true" />
  <style
   type="text/css"
   id="style6">
   
    .str0 {stroke:#1F1A17;stroke-width:2.83465}
    .fil0 {fill:#0093DD}
    .fil1 {fill:#1F1A17}
    .fil2 {fill:#3A2E2A}
   
  </style>
 
  
  
  
  
 </defs>
 <path
   style="fill:#003366"
   d="M 162.96875 135.84375 L 125.5 206.5625 L 162.25 277.25 L 245.6875 277.9375 L 283.15625 207.25 L 247.09375 135.84375 L 162.96875 135.84375 z M 206.125 174.71875 C 225.31458 174.71875 240.84375 189.53987 240.84375 207.84375 C 240.84375 226.14763 225.31458 241 206.125 241 C 186.93542 241 171.375 226.14763 171.375 207.84375 C 171.375 189.53987 186.93542 174.71875 206.125 174.71875 z "
   id="polygon10" /><path
   style="fill:#333333"
   inkscape:connector-curvature="0"
   id="path14"
   d="m 30.608296,276.2685 1.22032,2.14016 c 5.24553,9.20129 17.7293,12.6525 26.6698,7.64648 l 2.11607,-1.18347 c 13.33,-7.46506 101.433994,-173.944 113.219994,-180.545 l 2.11607,-1.18346 c 10.6044,-5.938605 20.0283,-2.7482 29.0297,-7.788215 l 2.11324,-1.18347 c 18.8108,-10.5322 17.2262,-26.9023 15.5197,-43.4071 l -18.9341,17.8286 c -1.36063,1.40599 -1.76882,1.27701 -5.45529,-0.385513 l -20.4875,-8.40617 c -5.1208,-17.0037 -7.14475,-23.8139 -4.4249,-26.3297 l 17.718,-16.3985 c -9.39688,-6.08033 -21.4753,-6.3227 -34.356,0.890082 -29.0368,16.2582 -5.78553,52.9599 -13.955,69.3881 -9.04113,18.177196 -27.9653,43.983896 -39.9431,61.935796 -13.905394,20.8404 -27.511694,40.9097 -41.133694,61.5956 -8.32396,12.6397 -39.474,50.5816 -31.0338,65.3856 z"
   class="fil2" />
<path
   inkscape:connector-curvature="0"
   style="fill:#0169c9;fill-rule:evenodd"
   d="m 44.995319,30.641756 -25.522551,48.171418 25.032961,48.150136 56.835041,0.4683 25.52255,-48.150126 -24.56466,-48.639728 -57.303341,0 z m 29.3967,26.480446 c 13.07135,0 23.64934,10.095692 23.64934,22.563722 0,12.46804 -10.57799,22.585006 -23.64934,22.585006 -13.071347,0 -23.670623,-10.116966 -23.670623,-22.585006 0,-12.46803 10.599276,-22.563722 23.670623,-22.563722 z"
   id="polygon10-4" /></svg>